<?xml version="1.0" encoding="UTF-8" standalone="no"?>
<!DOCTYPE svg PUBLIC "-//W3C//DTD SVG 1.1//EN"
"http://www.w3.org/Graphics/SVG/1.1/DTD/svg11.dtd">
<svg viewBox="0 0 999 1376" version="1.1" xmlns="http://www.w3.org/2000/svg" xmlns:xlink="http://www.w3.org/1999/xlink">
<defs>
<clipPath id="c0_71"><path d="M32.1,1344.3V32.1H967.5V1344.3Z"/></clipPath>
<clipPath id="c1_71"><path d="M208.1,460.6l-6.5,-2.1L185.2,444.6V387.5h72v73.1Z"/></clipPath>
<clipPath id="c2_71"><path d="M238,996.7V922.1h75.2v74.6Z"/></clipPath>
<clipPath id="c3_71"><path d="M233.2,1089.1v-74.7h80v74.7Z"/></clipPath>
<clipPath id="c4_71"><path d="M233.8,1180.1v-74.7h81.6v74.7Z"/></clipPath>
<clipPath id="c5_71"><path d="M198.2,901l-6.5,-2.1L175.3,885V827.9h72V901Z"/></clipPath>
<clipPath id="c6_71"><path d="M200.1,137.2c.1,-1.3,.7,-2.5,1.6,-3.4c1,-1,2.3,-1.6,3.9,-1.6h19.2v5Z"/></clipPath>
<clipPath id="c7_71"><path d="M199.5,137.7v-6h25.8v6Z"/></clipPath>
<style type="text/css"><![CDATA[
.g0_71{
fill: #FEFCF4;
}
.g1_71{
fill: #6381B7;
}
.g2_71{
fill: none;
stroke: #6381B7;
stroke-width: 0.381;
stroke-dasharray: 2,1;
}
.g3_71{
fill: none;
stroke: #6381B7;
stroke-width: 0.381;
}
.g4_71{
fill: #FFF;
}
.g5_71{
fill: none;
stroke: #6381B7;
stroke-width: 0.763;
}
.g6_71{
fill: #48484A;
}
.g7_71{
fill: #E1E0ED;
}
.g8_71{
fill: #7A74A9;
}
.g9_71{
fill: none;
stroke: #231F20;
stroke-width: 0.305;
stroke-miterlimit: 10;
}
.ga_71{
fill: #FCE8B0;
}
.gb_71{
fill: none;
stroke: #231F20;
stroke-width: 0.42;
stroke-miterlimit: 10;
}
.gc_71{
fill: #25408F;
}
.gd_71{
fill: none;
stroke: #231F20;
stroke-width: 1.527;
}
.ge_71{
fill: #39B4D1;
stroke: #2D2A4A;
stroke-width: 1.038;
stroke-linecap: round;
stroke-linejoin: round;
}
.gf_71{
fill: #2D2A4A;
}
.gg_71{
fill: none;
stroke: #2D2A4A;
stroke-width: 1.038;
stroke-linecap: round;
stroke-linejoin: round;
}
.gh_71{
fill: #DEDAD3;
}
.gi_71{
fill: #29263F;
}
.gj_71{
fill: #E15F46;
stroke: #2D2A4A;
stroke-width: 1.038;
stroke-linecap: round;
stroke-linejoin: round;
}
.gk_71{
fill: #DEF1F3;
}
.gl_71{
fill: none;
stroke: #FFF;
stroke-width: 1.909;
stroke-miterlimit: 10;
}
.gm_71{
fill: none;
stroke: #000;
stroke-width: 0.381;
stroke-miterlimit: 10;
}
]]></style>
</defs>
<path clip-path="url(#c0_71)" d="M-877.3,1344.3H45.1V32.1H-877.3V1344.3Z" class="g0_71"/>
<path d="M422.2,770c0,0,-4.3,0,-4.3,4.3v10.9c0,0,0,4.3,4.3,4.3h30.3c0,0,4.4,0,4.4,-4.3V774.3c0,0,0,-4.3,-4.4,-4.3Z" class="g1_71"/>
<path d="M409,761.2v37.5m1.4,1H866.8m.9,-1.4V760.8m-1.3,-1H410" class="g2_71"/>
<path d="M409,799.1v.6h.6m457.5,0h.6v-.6m0,-38.7v-.6h-.6m-457.5,0H409v.6" class="g3_71"/>
<path d="M166.7,479.1c0,0,-13,0,-13,13V738.9c0,0,0,13,13,13H854.5c0,0,13,0,13,-13V492.1c0,0,0,-13,-13,-13Z" class="g4_71"/>
<path d="M166.7,479.1c0,0,-13,0,-13,13V738.9c0,0,0,13,13,13H854.5c0,0,13,0,13,-13V492.1c0,0,0,-13,-13,-13H166.7Z" class="g5_71"/>
<path d="M195.3,566.9c0,0,-1.5,0,-1.5,1.6v6.7c0,0,0,4.3,4.2,5.3l52.2,12.9c0,0,4.2,1,4.2,-3.3V571.3c0,0,0,-4.4,-4.3,-4.4Z" class="g6_71"/>
<path d="M219.2,547.4c0,0,-12.9,0,-12.9,13v21.7c0,0,0,13,12.9,13H824.6c0,0,13,0,13,-13V560.4c0,0,0,-13,-13,-13Z" class="g7_71"/>
<path d="M198.1,553.9c0,0,-4.3,0,-4.3,4.4v17.3c0,0,0,4.3,4.3,4.3h37.3c0,0,4.3,0,4.3,-4.3V558.3c0,0,0,-4.4,-4.3,-4.4Z" class="g8_71"/>
<path d="M322.1,579.8h70.8m-34,46.7H704M358.9,660.9H704M358.9,695.3H704M358.9,729.7H704" class="g9_71"/>
<path d="M240.7,415.7c0,0,-13,0,-13,12.9v21.7c0,0,0,13,13,13H854.2c0,0,12.9,0,12.9,-13V428.6c0,0,0,-12.9,-12.9,-12.9Z" class="ga_71"/>
<image clip-path="url(#c1_71)" preserveAspectRatio="none" x="184" y="386" width="75" height="76" xlink:href="img/1.png"/>
<path d="M235.5,455.9c0,0,-26.8,11.3,-51.1,-12.7c0,0,15.2,25.3,49.3,23.9c0,0,24.8,.4,20.3,-10.1c0,0,1.2,-4.4,-18.5,-1.1Z" class="ga_71"/>
<path d="M166.7,811.3c0,0,-13,0,-13,13V1183c0,0,0,12.9,13,12.9H854.5c0,0,13,0,13,-12.9V824.3c0,0,0,-13,-13,-13H166.7Z" class="g5_71"/>
<path d="M442.8,1214.8c0,0,-4.3,0,-4.3,4.4V1230c0,0,0,4.3,4.3,4.3h30.3c0,0,4.3,0,4.3,-4.3v-10.8c0,0,0,-4.4,-4.3,-4.4Z" class="g1_71"/>
<path d="M429.6,1206v37.5m1.4,1H866.8m.9,-1.3v-37.6m-1.3,-1H430.6" class="g2_71"/>
<path d="M429.6,1243.9v.6h.6m436.9,0h.6v-.6m0,-38.7v-.6h-.6m-436.9,0h-.6v.6" class="g3_71"/>
<path d="M403.1,977.5H627.3M398,1038.6H622.2m-219.1,30.6H627.3M398,1130.3H622.2m-219.1,30.6H627.3" class="gb_71"/>
<image clip-path="url(#c2_71)" preserveAspectRatio="none" x="238" y="922" width="75" height="75" xlink:href="img/2.png"/>
<image clip-path="url(#c3_71)" preserveAspectRatio="none" x="232" y="1013" width="81" height="78" xlink:href="img/3.png"/>
<image clip-path="url(#c4_71)" preserveAspectRatio="none" x="234" y="1104" width="81" height="78" xlink:href="img/4.png"/>
<path d="M230.9,856.9c0,0,-13,0,-13,13v21.7c0,0,0,13,13,13H832.8c0,0,13,0,13,-13V869.9c0,0,0,-13,-13,-13Z" class="ga_71"/>
<image clip-path="url(#c5_71)" preserveAspectRatio="none" x="174" y="826" width="75" height="77" xlink:href="img/5.png"/>
<path d="M225.7,896.3c0,0,-26.9,11.3,-51.1,-12.7c0,0,15.1,25.3,49.2,23.9c0,0,24.8,.4,20.3,-10.1c0,0,1.2,-4.4,-18.4,-1.1Z" class="ga_71"/>
<path d="M153.3,109.5v39L165,158.7V136.5Z" class="gc_71"/>
<path d="M153.3,109.5v39H851.1c0,0,16.8,0,16.8,-16.8v-5.4c0,0,0,-16.8,-16.8,-16.8Z" class="g1_71"/>
<path d="M790.4,131c0,0,-.5,-10,8.6,-9.4c0,0,6.8,-.3,6.7,9.5m-15.3,-1.5v6.5c0,0,-3.4,.3,-3.9,-3c0,0,-.1,-3.8,3.9,-3.5Zm15.3,0v6.5c0,0,3.4,.3,4,-3c0,0,0,-3.8,-4,-3.5Z" class="gd_71"/>
<path d="M169,140.8h61v-32H169v32Z" class="ge_71"/>
<path d="M169,143.1h61v-2.3H169v2.3Z" class="ge_71"/>
<path d="M193.5,106.2H173.8v31.5h25.7V112.3c0,-3.4,-2.7,-6.1,-6,-6.1Z" class="g4_71"/>
<path d="M193.5,106.2v-.5H173.8c-.2,0,-.3,.1,-.4,.2c-.1,.1,-.2,.2,-.2,.3v31.5c0,.1,.1,.3,.2,.4c.1,.1,.2,.1,.4,.1h25.7c.2,0,.3,0,.4,-.1c.1,-.1,.1,-.3,.1,-.4V112.3c0,-3.7,-2.9,-6.6,-6.5,-6.6v1c1.5,0,2.9,.7,3.9,1.7c1,1,1.6,2.3,1.6,3.9v24.9H174.3V106.7h19.2Z" class="gf_71"/>
<path d="M173.8,131.7v6h25.7c0,-3.3,-2.7,-6,-6,-6Z" class="g4_71"/>
<path d="M173.8,131.7h-.6v6c0,.1,.1,.3,.2,.4c.1,.1,.2,.1,.4,.1h25.7c.2,0,.3,0,.4,-.1c.1,-.1,.1,-.3,.1,-.4c0,-3.6,-2.9,-6.6,-6.5,-6.6H173.8c-.2,0,-.3,.1,-.4,.2c-.1,.1,-.2,.2,-.2,.4h.6v.5h19.7c1.5,0,2.9,.6,3.9,1.6c1,1,1.6,2.4,1.6,3.9h.5v-.5H174.3v-5.5h-.5v.5Z" class="gf_71"/>
<path d="M177.3,110.9h17.2m-17.2,2.8h17.2m-17.2,2.9h17.2m-17.2,2.9h17.2m-17.2,2.8h17.2m-17.2,2.9h17.2M177.3,128h17.2" class="gg_71"/>
<path d="M193.5,132.2H174.3v5H199c-.1,-1.3,-.7,-2.5,-1.6,-3.4c-1,-1,-2.4,-1.6,-3.9,-1.6Z" class="gh_71"/>
<path d="M174.3,132.2h19.2c1.5,0,2.9,.6,3.9,1.6c.9,.9,1.5,2.1,1.6,3.4H174.3Zm19.2,-.5H173.8v6H199v-2.5c-.9,-2.1,-3.1,-3.5,-5.5,-3.5Z" class="gi_71"/>
<path d="M205.6,106.2h19.7v31.5H199.5V112.3c0,-3.4,2.7,-6.1,6.1,-6.1Z" class="g4_71"/>
<path d="M205.6,106.2v.5h19.2v30.5H200V112.3c0,-1.6,.7,-2.9,1.7,-3.9c1,-1,2.3,-1.7,3.9,-1.7v-1c-3.7,0,-6.6,2.9,-6.6,6.6v25.4c0,.1,.1,.3,.2,.4c0,.1,.2,.1,.3,.1h25.8c.1,0,.2,0,.3,-.1c.1,-.1,.2,-.3,.2,-.4V106.2c0,-.1,-.1,-.2,-.2,-.3c-.1,-.1,-.2,-.2,-.3,-.2H205.6Z" class="gf_71"/>
<path d="M225.3,131.7v6H199.5c0,-3.3,2.7,-6,6.1,-6Z" class="g4_71"/>
<path d="M225.3,131.7h-.5v5.5H199.5v.5h.5c0,-1.5,.7,-2.9,1.7,-3.9c1,-1,2.3,-1.6,3.9,-1.6h19.7v-.5h-.5h.5v-.6H205.6c-3.7,0,-6.6,3,-6.6,6.6c0,.1,.1,.3,.2,.4c0,.1,.2,.1,.3,.1h25.8c.1,0,.2,0,.3,-.1c.1,-.1,.2,-.3,.2,-.4v-6c0,-.2,-.1,-.3,-.2,-.4c-.1,-.1,-.2,-.2,-.3,-.2Z" class="gf_71"/>
<path d="M221.8,110.9H204.6m17.2,2.8H204.6m17.2,2.9H204.6m17.2,2.9H204.6m17.2,2.8H204.6m17.2,2.9H204.6m17.2,2.8H204.6" class="gg_71"/>
<path clip-path="url(#c6_71)" d="M200.1,137.2h24.7v-5H200.1v5Z" class="gh_71"/>
<path clip-path="url(#c7_71)" d="M200.1,137.2c.1,-1.3,.7,-2.5,1.6,-3.4c1,-1,2.3,-1.6,3.9,-1.6h19.2v5Zm25.2,-5.5H205.6c-3.4,0,-6.1,2.7,-6.1,6h25.8v-6h-.5h.5Z" class="gi_71"/>
<path d="M199.5,108.8v34.3" class="gg_71"/>
<path d="M217.2,145.5h3.3V134.7h-3.3v10.8Z" class="gj_71"/>
<path d="M170.7,166.3c0,0,-17.4,0,-17.4,17.4v150c0,0,0,17.3,17.4,17.3H850.6c0,0,17.3,0,17.3,-17.3v-150c0,0,0,-17.4,-17.3,-17.4Z" class="gk_71"/>
<path d="M32.1,45.1H9.2m958.3,0h22.9M32.1,1331.3H9.2m958.3,0h22.9M45.1,32.1V9.2m0,1335.1v22.9M954.5,32.1V9.2m0,1335.1v22.9" class="gl_71"/>
<path d="M32.1,45.1H9.2m958.3,0h22.9M32.1,1331.3H9.2m958.3,0h22.9M45.1,32.1V9.2m0,1335.1v22.9M954.5,32.1V9.2m0,1335.1v22.9" class="gm_71"/>
<path d="M27.5,32.1H0m972.1,0h27.5M27.5,1344.3H0m972.1,0h27.5M32.1,27.5V0m0,1348.9v27.5M967.5,27.5V0m0,1348.9v27.5" class="gl_71"/>
<path d="M27.5,32.1H0m972.1,0h27.5M27.5,1344.3H0m972.1,0h27.5M32.1,27.5V0m0,1348.9v27.5M967.5,27.5V0m0,1348.9v27.5" class="gm_71"/>
</svg>