<?xml version="1.0" encoding="UTF-8" standalone="no"?>
<!DOCTYPE svg PUBLIC "-//W3C//DTD SVG 1.1//EN"
"http://www.w3.org/Graphics/SVG/1.1/DTD/svg11.dtd">
<svg viewBox="0 0 999 1376" version="1.1" xmlns="http://www.w3.org/2000/svg" xmlns:xlink="http://www.w3.org/1999/xlink">
<defs>
<clipPath id="c0_337"><path d="M153.3,1244.7V131.7H867.9v1113Z"/></clipPath>
<clipPath id="c1_337"><path d="M458.7,1227.4V1012.8H850.6v205.9c0,8.7,-8.7,8.7,-8.7,8.7Z"/></clipPath>
<style type="text/css"><![CDATA[
.g0_337{
fill: #FFF;
}
.g1_337{
fill: none;
stroke: #231F20;
stroke-width: 0.756;
stroke-miterlimit: 3;
}
.g2_337{
fill: #25408F;
}
.g3_337{
fill: #6381B7;
}
.g4_337{
fill: #FFDE2C;
}
.g5_337{
fill: none;
stroke: #231F20;
stroke-width: 1.451;
stroke-miterlimit: 10;
}
.g6_337{
fill: #D2D3D5;
}
.g7_337{
fill: #A8AAAD;
}
.g8_337{
fill: none;
stroke: #231F20;
stroke-width: 0.828;
stroke-miterlimit: 10;
}
.g9_337{
fill: #6CCFF6;
}
.ga_337{
fill: none;
stroke: #231F20;
stroke-width: 0.828;
stroke-linecap: round;
stroke-linejoin: round;
}
.gb_337{
fill: none;
stroke: #231F20;
stroke-width: 1.451;
stroke-linecap: round;
stroke-linejoin: round;
}
.gc_337{
fill: none;
stroke: #FFF;
stroke-width: 1.909;
stroke-miterlimit: 10;
}
.gd_337{
fill: none;
stroke: #000;
stroke-width: 0.381;
stroke-miterlimit: 10;
}
]]></style>
</defs>
<path d="M153.3,1244.7H867.9V131.7H153.3v1113Z" class="g0_337"/>
<image clip-path="url(#c0_337)" preserveAspectRatio="none" x="151" y="130" width="719" height="1117" xlink:href="img/1.jpg"/>
<path d="M365.2,215.9h-2.3v-5.6c-1.1,.6,-2.3,1.1,-3.6,1.4c-1.3,.4,-2.7,.5,-4.4,.5H345v-1.8h6.7v-4.3c-1.7,-.2,-3,-.8,-4,-2c-1,-1.1,-1.6,-2.5,-1.6,-4.2c0,-.9,.2,-1.8,.5,-2.5c.3,-.8,.8,-1.5,1.4,-2c.6,-.6,1.3,-1,2.1,-1.3c.8,-.3,1.7,-.4,2.6,-.4c1,0,1.9,.1,2.7,.4c.8,.3,1.5,.7,2,1.3c.6,.5,1.1,1.2,1.4,2c.3,.7,.5,1.6,.5,2.5c0,1.7,-.5,3.1,-1.5,4.2c-1,1.1,-2.2,1.7,-3.8,2v4.3h.8c1.5,0,2.9,-.1,4.2,-.4c1.3,-.3,2.6,-.9,3.9,-1.7V193.4h2.3v22.5Zm-9.4,-19.2c-.8,-.8,-1.8,-1.2,-3.1,-1.2c-1.2,0,-2.3,.4,-3.1,1.2c-.8,.8,-1.2,1.8,-1.2,3.2c0,1.5,.4,2.6,1.2,3.3c.8,.7,1.9,1.1,3.1,1.1c1.3,0,2.3,-.4,3.1,-1.1c.8,-.7,1.2,-1.8,1.2,-3.3c0,-1.4,-.4,-2.4,-1.2,-3.2Zm33.6,7.7H379.3v4.3h4.9c.8,0,1.4,.2,1.7,.6c.2,.4,.4,.9,.4,1.6l-.3,6.9h-2v-6.5c0,-.3,-.1,-.5,-.2,-.6c-.1,-.1,-.3,-.2,-.5,-.2H370.5v-1.8H377v-4.3h-8.9v-1.8h15.1c.2,-1.1,.4,-2.3,.6,-3.5c.1,-1.2,.2,-2.4,.2,-3.5c0,-.3,-.1,-.5,-.2,-.6c-.1,-.1,-.3,-.2,-.6,-.2H370.9V193h12.9c.8,0,1.4,.2,1.8,.5c.4,.3,.6,.8,.6,1.5c0,1.1,-.1,2.4,-.2,3.7c-.2,1.4,-.4,2.7,-.7,3.9h4.1v1.8ZM411,210h-2.2V193.1H411V210Zm-12.9,7.5c-.8,0,-1.4,-.2,-1.8,-.5c-.4,-.4,-.6,-.9,-.6,-1.6v-6.7H398v6.2c0,.3,0,.5,.1,.6c.1,.2,.4,.2,.7,.2h7.1c1.1,0,2,0,2.9,-.2c.8,-.1,1.7,-.3,2.7,-.6l.4,1.7c-1,.3,-2,.6,-2.9,.7c-1,.1,-2,.2,-3,.2h-7.9Zm5.5,-15.7c-.3,.8,-.8,1.4,-1.3,2c-.6,.5,-1.3,.9,-2.1,1.3c-.8,.3,-1.6,.4,-2.5,.4c-.9,0,-1.8,-.1,-2.6,-.5c-.8,-.3,-1.4,-.7,-2,-1.3c-.6,-.5,-1,-1.2,-1.3,-1.9c-.3,-.8,-.4,-1.6,-.4,-2.4c0,-.8,.1,-1.6,.4,-2.3c.4,-.8,.8,-1.4,1.4,-2c.6,-.5,1.2,-.9,2,-1.3c.8,-.3,1.6,-.4,2.5,-.4c1,0,1.8,.1,2.6,.5c.8,.3,1.4,.8,2,1.3c.6,.6,1,1.2,1.3,1.9c.3,.8,.5,1.5,.5,2.3c0,.9,-.2,1.7,-.5,2.4Zm-2.9,-5.3c-.7,-.9,-1.7,-1.3,-3,-1.3c-1.3,0,-2.3,.4,-3,1.3c-.7,.8,-1.1,1.8,-1.1,2.9c0,1.2,.4,2.2,1.1,3c.7,.9,1.7,1.3,3,1.3c1.3,0,2.3,-.4,3,-1.3c.8,-.8,1.1,-1.8,1.1,-3c0,-1.1,-.3,-2.1,-1.1,-2.9Zm41.8,9H421.2v-1.8h15c.2,-.6,.3,-1.2,.4,-1.9c.1,-.6,.2,-1.3,.3,-2c0,-.7,.1,-1.4,.1,-2.1c.1,-.6,.1,-1.3,.1,-1.8c0,-.3,-.1,-.5,-.2,-.6c-.1,-.1,-.3,-.2,-.6,-.2H424v-1.8h12.9c.9,0,1.4,.2,1.8,.5c.4,.3,.6,.8,.6,1.5c0,.6,0,1.2,-.1,1.9c0,.7,-.1,1.5,-.1,2.2c-.1,.7,-.2,1.5,-.4,2.2c-.1,.8,-.2,1.5,-.3,2.1h4.1v1.8Zm-16.2,12c-.9,0,-1.5,-.2,-1.9,-.5c-.4,-.4,-.6,-.9,-.6,-1.6V209h2.3v5.9c0,.3,.1,.5,.2,.6c.1,.2,.3,.2,.7,.2h7.1c1,0,2,0,2.8,-.2c.9,-.1,1.8,-.3,2.7,-.6l.5,1.7c-1.1,.3,-2.1,.6,-3,.7c-.9,.1,-1.9,.2,-2.9,.2h-7.9Zm22.9,-13.4c0,.3,0,.6,.1,.7c.2,.2,.4,.2,.7,.2h5.4c1.2,0,2.3,0,3.5,-.1c1.1,-.1,2.3,-.3,3.7,-.7l.3,1.8c-.7,.2,-1.3,.3,-1.9,.4c-.6,.1,-1.2,.2,-1.7,.3c-.6,.1,-1.1,.1,-1.7,.1c-.6,.1,-1.2,.1,-1.9,.1v4.2h9.7V213H444.1v-1.9h9.4v-4.2h-3.7c-.9,0,-1.6,-.2,-2.1,-.6c-.5,-.4,-.8,-1.1,-.8,-1.9v-4.9h12.8v-3.6H446.9v-1.8h15v6.6c-.6,.2,-1.2,.4,-1.8,.5c-.6,.1,-1.2,.2,-1.9,.2h-9v2.7Zm17.7,4.9c1.2,-.8,2.4,-1.7,3.4,-2.7c1.1,-1,2.1,-2,2.9,-3c.8,-1.1,1.5,-2.2,2.1,-3.2c.5,-1.1,.9,-2.2,1,-3.3c.1,-.2,0,-.4,-.1,-.4c-.1,-.1,-.2,-.2,-.5,-.2h-7.9v-1.8h9c.9,0,1.5,.2,1.6,.8c.2,.5,.3,1.1,.2,1.7c-.1,1,-.4,2.1,-.9,3.1c-.4,1,-1,2,-1.7,3c.6,.2,1,.4,1.4,.7c.4,.3,.7,.6,1,1c.5,.8,1.1,1.6,1.7,2.4c.6,.9,1.1,1.7,1.5,2.5l-1.6,1.2c-.6,-.9,-1.2,-1.8,-1.8,-2.7c-.5,-.9,-1,-1.6,-1.4,-2.1c-.2,-.3,-.5,-.5,-.8,-.8c-.3,-.2,-.7,-.4,-1.1,-.6c-1,1.1,-2,2.2,-3.1,3.3c-1.1,1,-2.4,2,-3.6,2.9L466.9,209Zm23.9,-4.9h-4.3v11.8h-2.2V193.4h2.2v8.9h4.3v1.8Zm9.7,-10.3H509c.4,0,.8,.1,1,.2c.2,.2,.4,.3,.5,.6c.1,.2,.1,.4,.1,.6c0,.3,0,.5,0,.7c-.2,.9,-.4,1.7,-.8,2.6c-.4,.8,-.8,1.6,-1.4,2.4c.6,.2,1.1,.5,1.5,.7c.4,.3,.8,.7,1.1,1c.4,.5,.9,1,1.4,1.7c.5,.7,1,1.2,1.4,1.7l-1.5,1.4c-.2,-.3,-.5,-.6,-.7,-.9c-.2,-.3,-.5,-.6,-.7,-.9c-.3,-.2,-.5,-.5,-.7,-.8c-.3,-.3,-.5,-.6,-.7,-.9c-.3,-.3,-.6,-.5,-1,-.8c-.3,-.3,-.7,-.5,-1.2,-.7c-.9,1,-1.9,2,-3,2.8c-1.2,.9,-2.4,1.6,-3.7,2.2l-1,-1.8c2.4,-1.1,4.3,-2.5,5.8,-4.1c1.4,-1.6,2.4,-3.3,2.8,-5.1c.1,-.3,.1,-.5,0,-.6c-.1,-.2,-.3,-.2,-.6,-.2h-7.1v-1.8Zm11.7,5.1h4.6v-5.8H519V210h-2.2v-9.3h-4.6v-1.8Zm-6.1,18.6c-.8,0,-1.4,-.2,-1.8,-.5c-.4,-.4,-.6,-.9,-.6,-1.6V209H506v5.9c0,.3,0,.5,.1,.6c.1,.2,.4,.2,.7,.2h7.1c1.1,0,2,0,2.9,-.2c.8,-.1,1.7,-.3,2.6,-.6l.5,1.7c-1,.3,-2,.6,-3,.7c-.9,.1,-1.9,.2,-2.9,.2h-7.9Zm37.4,-11.2H522.2v-1.8h5.1v-4.2c-.4,-.4,-.7,-.9,-.9,-1.4c-.3,-.5,-.4,-1.1,-.4,-1.7c0,-.8,.2,-1.4,.5,-2.1c.3,-.6,.8,-1.1,1.4,-1.5c.6,-.5,1.3,-.8,2.1,-1c.8,-.3,1.7,-.4,2.6,-.4c1.9,0,3.5,.5,4.7,1.4c1.2,.9,1.8,2.1,1.8,3.6c0,.6,-.1,1.1,-.3,1.7c-.2,.5,-.5,.9,-.8,1.3v4.3h5.5v1.8Zm-4.7,9.1c-.3,.7,-.8,1.2,-1.4,1.6c-.6,.5,-1.2,.8,-2,1.1c-.8,.2,-1.7,.3,-2.6,.3c-1,0,-1.9,-.1,-2.7,-.3c-.8,-.3,-1.5,-.6,-2.1,-1.1c-.6,-.4,-1,-.9,-1.4,-1.6c-.3,-.6,-.5,-1.3,-.5,-2.2c0,-.8,.2,-1.5,.5,-2.1c.4,-.6,.8,-1.2,1.4,-1.6c.6,-.4,1.3,-.8,2.1,-1c.8,-.2,1.7,-.4,2.7,-.4c1.9,0,3.4,.5,4.7,1.4c1.2,.9,1.8,2.1,1.8,3.7c0,.9,-.1,1.6,-.5,2.2Zm-2.9,-4.6c-.8,-.6,-1.9,-.9,-3.1,-.9c-1.3,0,-2.4,.3,-3.2,.9c-.8,.6,-1.2,1.4,-1.2,2.4c0,1.1,.4,2,1.2,2.6c.8,.6,1.9,.8,3.2,.8c1.2,0,2.3,-.2,3.1,-.8c.8,-.6,1.2,-1.5,1.2,-2.6c0,-1,-.4,-1.8,-1.2,-2.4Zm-.3,-16c-.8,-.5,-1.8,-.8,-3,-.8c-1.2,0,-2.2,.3,-3.1,.8c-.8,.6,-1.2,1.4,-1.2,2.4c0,1,.4,1.8,1.2,2.4c.9,.5,1.9,.8,3.1,.8c1.2,0,2.2,-.3,3,-.8c.8,-.6,1.2,-1.4,1.2,-2.4c0,-1,-.4,-1.8,-1.2,-2.4Zm-4.6,7.3c-.5,-.1,-1,-.2,-1.4,-.4v2.8h6.1v-2.9c-.4,.2,-.9,.3,-1.5,.4c-.5,.1,-1,.2,-1.6,.2c-.6,0,-1.1,-.1,-1.6,-.1Zm39.1,15.1c0,.2,-.1,.3,-.2,.4c-.1,.2,-.3,.2,-.5,.2H557.5c-1,0,-1.7,-.2,-2.1,-.6c-.4,-.3,-.6,-.9,-.6,-1.7v-7.4h14c.6,0,1.1,.2,1.4,.5c.3,.2,.4,.6,.4,1.2l-.5,7.4Zm3.3,-12.9H552.1v-1.8h15.2c.2,-1.1,.4,-2.3,.5,-3.5c.2,-1.2,.2,-2.3,.2,-3.4c0,-.3,-.1,-.5,-.2,-.6c-.1,-.1,-.3,-.2,-.6,-.2H554.9V193h12.9c.9,0,1.5,.2,1.8,.5c.4,.3,.6,.8,.6,1.5c0,1.1,0,2.3,-.2,3.6c-.2,1.4,-.4,2.7,-.6,3.9h4v1.8ZM568.3,216v-6.1H557v5.4c0,.3,.1,.5,.2,.6c.1,.1,.3,.1,.5,.1h10.6Zm28,-10.5h-5.4v4.4c.3,.4,.6,.9,.8,1.4c.3,.6,.4,1.1,.4,1.8c0,.8,-.2,1.5,-.5,2.2c-.4,.6,-.9,1.2,-1.5,1.7c-.5,.4,-1.2,.8,-2,1c-.8,.3,-1.7,.4,-2.6,.4c-1,0,-1.9,-.1,-2.7,-.4c-.8,-.2,-1.5,-.6,-2.1,-1c-.6,-.5,-1,-1.1,-1.4,-1.7c-.3,-.7,-.4,-1.4,-.4,-2.2c0,-.7,.1,-1.3,.3,-1.8c.2,-.6,.5,-1.1,.9,-1.5v-4.3H575v-1.8h21.3v1.8Zm-4.9,-6.3c-.3,.6,-.8,1.2,-1.4,1.6c-.6,.4,-1.2,.7,-2,.9c-.8,.2,-1.7,.3,-2.6,.3c-.9,0,-1.8,-.1,-2.6,-.3c-.8,-.2,-1.5,-.5,-2.1,-.9c-.6,-.4,-1,-.9,-1.4,-1.5c-.3,-.6,-.5,-1.4,-.5,-2.2c0,-.8,.2,-1.5,.5,-2.1c.4,-.6,.8,-1.1,1.4,-1.5c.6,-.5,1.3,-.8,2.1,-1c.8,-.2,1.7,-.3,2.6,-.3c.9,0,1.7,.1,2.5,.3c.8,.2,1.5,.5,2.1,1c.6,.4,1.1,.9,1.4,1.5c.4,.6,.5,1.3,.5,2.1c0,.8,-.1,1.5,-.5,2.1Zm-2.8,11.3c-.8,-.6,-1.9,-.9,-3.1,-.9c-1.3,0,-2.4,.3,-3.2,.9c-.8,.7,-1.2,1.5,-1.2,2.6c0,1.1,.4,1.9,1.2,2.6c.8,.6,1.9,.9,3.2,.9c1.2,0,2.3,-.3,3.1,-.9c.8,-.7,1.2,-1.5,1.2,-2.6c0,-1.1,-.4,-1.9,-1.2,-2.6Zm-.1,-15.7c-.8,-.5,-1.8,-.8,-3.1,-.8c-1.3,0,-2.3,.3,-3.1,.8c-.8,.6,-1.2,1.3,-1.2,2.3c0,1,.4,1.8,1.2,2.3c.8,.5,1.8,.8,3.1,.8c1.3,0,2.3,-.3,3.1,-.8c.8,-.5,1.2,-1.3,1.2,-2.3c0,-1,-.4,-1.7,-1.2,-2.3Zm-1.4,13.1c.6,.1,1.1,.3,1.5,.4v-2.8h-6.2v2.8c.4,-.2,.9,-.3,1.4,-.4c.5,-.1,1.1,-.1,1.7,-.1c.6,0,1.1,0,1.6,.1Zm30.4,-7.5H623v-7h2.3v22.5H623V202.4h-5.5v-2Zm-4.9,-6.5c.3,.7,.5,1.4,.6,2.2c.2,.8,.2,1.6,.2,2.4c0,.7,0,1.4,-.1,2c-.1,.7,-.3,1.3,-.5,1.9c.7,.2,1.3,.4,1.7,.7c.5,.3,.9,.6,1.2,1c.5,.8,1.1,1.6,1.8,2.6c.6,1.1,1.3,2.1,2,3.2l-1.7,1.3c-.4,-.5,-.7,-1,-1,-1.6c-.4,-.5,-.7,-1.1,-1.1,-1.6c-.3,-.5,-.6,-1,-.9,-1.5c-.3,-.4,-.6,-.8,-.8,-1.1c-.2,-.2,-.5,-.4,-.7,-.7c-.3,-.2,-.7,-.4,-1.2,-.5c-.6,1.3,-1.4,2.5,-2.5,3.6c-1,1.2,-2.2,2.3,-3.6,3.4l-1.3,-1.8c2.2,-1.6,3.9,-3.3,4.9,-5.2c1,-1.8,1.5,-3.7,1.5,-5.6c0,-.6,-.1,-1.3,-.2,-2c-.1,-.7,-.3,-1.4,-.5,-1.9l2.2,-.8Zm28.7,.3v14.6c-.8,.5,-1.8,.9,-3,1.2c-1.2,.4,-2.2,.5,-3.2,.5h-3.4c-.8,0,-1.4,-.1,-1.8,-.5c-.5,-.4,-.7,-1,-.7,-1.9V194.2h2.3v6.3h7.6v-6.3h2.2Zm5.1,-.8h2.3v22.5h-2.3V193.4Zm-9.5,15.1c.7,-.2,1.5,-.5,2.2,-.8v-5.4h-7.6v5.6c0,.3,0,.5,.2,.6c.1,.2,.3,.2,.5,.2h2.6c.6,0,1.3,-.1,2.1,-.2Zm25.7,-11.9c0,.4,0,.9,-.1,1.3c0,.3,-.1,.7,-.2,1.1c.9,.1,1.6,.3,2.2,.5c.7,.3,1.2,.6,1.8,1c.3,.3,.7,.7,1.1,1c.4,.4,.9,.8,1.3,1.2c.5,.4,.9,.8,1.4,1.3c.5,.4,.9,.8,1.4,1.2l-1.4,1.6c-.9,-.8,-1.8,-1.6,-2.7,-2.5c-1,-.8,-1.8,-1.6,-2.5,-2.1c-.4,-.3,-.8,-.6,-1.3,-.8c-.5,-.3,-1.1,-.5,-2,-.6c-.3,.5,-.6,1,-1,1.5c-.4,.5,-.9,.9,-1.4,1.4c-.7,.6,-1.6,1.2,-2.6,1.7c-.9,.6,-2,1,-3.3,1.4l-.7,-1.9c1.1,-.4,2,-.8,2.9,-1.3c.9,-.5,1.7,-1,2.3,-1.6c.9,-.7,1.5,-1.5,1.9,-2.4c.4,-.8,.6,-1.9,.6,-3.1v-.8c0,-.3,0,-.5,0,-.9c-.1,-.3,-.2,-.6,-.2,-.9l2.2,-.7c.1,.4,.2,.7,.3,1.1c0,.4,0,.8,0,1.2v1.1Zm10.1,16.1H651.3v-1.9h21.4v1.9Z" class="g1_337"/>
<image preserveAspectRatio="none" x="349" y="679" width="316" height="317" xlink:href="img/2.jpg"/>
<image clip-path="url(#c1_337)" preserveAspectRatio="none" x="459" y="1013" width="393" height="215" xlink:href="img/3.png"/>
<path d="M153.3,126.3v22.2L165,158.7V136.5Z" class="g2_337"/>
<path d="M153.3,109.5v39H851.1c0,0,16.8,0,16.8,-16.8v-5.4c0,0,0,-16.8,-16.8,-16.8Z" class="g3_337"/>
<path d="M207.2,115.7c0,-9.1,-7.9,-16.6,-17.7,-16.6c-9.8,0,-17.7,7.5,-17.7,16.6c0,2.7,.6,5.2,1.8,7.4c1.2,2.4,2.9,4.6,5,6.2c1.2,1,1.6,1.7,1.7,4.3v.6c0,3.3,2.7,5.9,5.9,5.9h6.6c3.2,0,5.8,-2.6,5.8,-5.9v-.6c.2,-2.6,.6,-3.3,1.8,-4.3c2.1,-1.6,3.8,-3.8,5,-6.2c1.2,-2.2,1.8,-4.7,1.8,-7.4Z" class="g4_337"/>
<path d="M207.2,115.7c0,-9.1,-7.9,-16.6,-17.7,-16.6c-9.8,0,-17.7,7.5,-17.7,16.6c0,2.7,.6,5.2,1.8,7.4c1.2,2.4,2.9,4.6,5,6.2c1.2,1,1.6,1.7,1.7,4.3v.6c0,3.3,2.7,5.9,5.9,5.9h6.6c3.2,0,5.8,-2.6,5.8,-5.9v-.6c.2,-2.6,.6,-3.3,1.8,-4.3c2.1,-1.6,3.8,-3.8,5,-6.2c1.2,-2.2,1.8,-4.7,1.8,-7.4Z" class="g5_337"/>
<path d="M194.6,147.4c0,2.8,-2.3,5.1,-5.1,5.1c-2.8,0,-5.1,-2.3,-5.1,-5.1c0,-2.8,2.3,-5.1,5.1,-5.1c2.8,0,5.1,2.3,5.1,5.1Z" class="g0_337"/>
<path d="M194.6,147.4c0,2.8,-2.3,5.1,-5.1,5.1c-2.8,0,-5.1,-2.3,-5.1,-5.1c0,-2.8,2.3,-5.1,5.1,-5.1c2.8,0,5.1,2.3,5.1,5.1Z" class="g5_337"/>
<path d="M182.1,140.2c0,1,.8,1.8,1.8,1.8h11.2c1,0,1.8,-.8,1.8,-1.8v-1.3H182.1Z" class="g0_337"/>
<path d="M182.1,140.2c0,1,.8,1.8,1.8,1.8h11.2c1,0,1.8,-.8,1.8,-1.8v-1.3H182.1v1.3Z" class="g5_337"/>
<path d="M196.9,143.2c0,.8,-.6,1.3,-1.3,1.3H183.4c-.8,0,-1.3,-.5,-1.3,-1.3c0,-.7,.5,-1.3,1.3,-1.3h12.2c.7,0,1.3,.6,1.3,1.3Z" class="g0_337"/>
<path d="M196.9,143.2c0,.8,-.6,1.3,-1.3,1.3H183.4c-.8,0,-1.3,-.5,-1.3,-1.3c0,-.7,.5,-1.3,1.3,-1.3h12.2c.7,0,1.3,.6,1.3,1.3Z" class="g5_337"/>
<path d="M196.9,145.8c0,.7,-.6,1.3,-1.3,1.3H183.4c-.8,0,-1.3,-.6,-1.3,-1.3c0,-.7,.5,-1.3,1.3,-1.3h12.2c.7,0,1.3,.6,1.3,1.3Z" class="g0_337"/>
<path d="M196.9,145.8c0,.7,-.6,1.3,-1.3,1.3H183.4c-.8,0,-1.3,-.6,-1.3,-1.3c0,-.7,.5,-1.3,1.3,-1.3h12.2c.7,0,1.3,.6,1.3,1.3Z" class="g5_337"/>
<path d="M215.5,128.7l8.3,10.4c.6,.7,1.8,.6,2.7,-.2c.9,-.7,1.2,-1.9,.7,-2.6l-8.9,-10.2Z" class="g6_337"/>
<path d="M215.5,128.7l8.3,10.4c.6,.7,1.8,.6,2.7,-.2c.9,-.7,1.2,-1.9,.7,-2.6l-8.9,-10.2l-2.8,2.6Z" class="g5_337"/>
<path d="M217.5,125.1c.5,.6,.3,1.8,-.7,2.6c-.9,.7,-2.1,.8,-2.6,.2c-.6,-.7,-.3,-1.9,.6,-2.6c.9,-.8,2.1,-.9,2.7,-.2Z" class="g7_337"/>
<path d="M217.5,125.1c.5,.6,.3,1.8,-.7,2.6c-.9,.7,-2.1,.8,-2.6,.2c-.6,-.7,-.3,-1.9,.6,-2.6c.9,-.8,2.1,-.9,2.7,-.2Z" class="g5_337"/>
<path d="M212.7,124.7l1.7,2c.3,.3,1,.3,1.5,-.1c.5,-.5,.7,-1.1,.4,-1.5l-1.7,-2Z" class="g0_337"/>
<path d="M212.7,124.7l1.7,2c.3,.3,1,.3,1.5,-.1c.5,-.5,.7,-1.1,.4,-1.5l-1.7,-2l-1.9,1.6Z" class="g8_337"/>
<path d="M214.8,122.9c.4,.5,.2,1.3,-.5,1.8c-.6,.5,-1.4,.6,-1.8,.1c-.4,-.4,-.2,-1.2,.5,-1.7c.6,-.6,1.4,-.6,1.8,-.2Z" class="g0_337"/>
<path d="M214.8,122.9c.4,.5,.2,1.3,-.5,1.8c-.6,.5,-1.4,.6,-1.8,.1c-.4,-.4,-.2,-1.2,.5,-1.7c.6,-.6,1.4,-.6,1.8,-.2Z" class="g8_337"/>
<path d="M216.4,105.4c4.8,5.7,4.1,14.2,-1.7,19c-5.7,4.8,-14.2,4,-19,-1.7c-4.8,-5.7,-4,-14.2,1.7,-19c5.7,-4.8,14.2,-4.1,19,1.7Z" class="g0_337"/>
<path d="M216.4,105.4c4.8,5.7,4.1,14.2,-1.7,19c-5.7,4.8,-14.2,4,-19,-1.7c-4.8,-5.7,-4,-14.2,1.7,-19c5.7,-4.8,14.2,-4.1,19,1.7Z" class="g5_337"/>
<path d="M214,107.4c3.5,4.2,3,10.5,-1.3,14.1c-4.2,3.5,-10.5,2.9,-14,-1.3c-3.5,-4.2,-3,-10.5,1.2,-14c4.2,-3.6,10.5,-3,14.1,1.2Z" class="g9_337"/>
<path d="M214,107.4c3.5,4.2,3,10.5,-1.3,14.1c-4.2,3.5,-10.5,2.9,-14,-1.3c-3.5,-4.2,-3,-10.5,1.2,-14c4.2,-3.6,10.5,-3,14.1,1.2Z" class="g5_337"/>
<path d="M213,110.6l-3.1,3m3.1,-.4l-3.1,3" class="ga_337"/>
<path d="M172.1,99l3.1,3.3m1.1,-5.9l1.2,3.9m-8.1,3l3.7,1.2" class="gb_337"/>
<path d="M185.8,106.1c1.2,1.2,.2,4.3,-2.2,6.7c-2.5,2.5,-5.5,3.5,-6.8,2.3c-1.2,-1.3,-.3,-4.3,2.2,-6.8c2.5,-2.5,5.5,-3.5,6.8,-2.2Z" class="g0_337"/>
<path d="M203.7,107.6c.6,.6,.1,1.9,-.9,3c-1.1,1,-2.4,1.5,-3,.9c-.5,-.5,-.1,-1.8,1,-2.9c1.1,-1.1,2.4,-1.5,2.9,-1Z" class="g0_337"/>
<path d="M32.1,45.1H9.2m958.3,0h22.9M32.1,1331.3H9.2m958.3,0h22.9M45.1,32.1V9.2m0,1335.1v22.9M954.5,32.1V9.2m0,1335.1v22.9" class="gc_337"/>
<path d="M32.1,45.1H9.2m958.3,0h22.9M32.1,1331.3H9.2m958.3,0h22.9M45.1,32.1V9.2m0,1335.1v22.9M954.5,32.1V9.2m0,1335.1v22.9" class="gd_337"/>
<path d="M27.5,32.1H0m972.1,0h27.5M27.5,1344.3H0m972.1,0h27.5M32.1,27.5V0m0,1348.9v27.5M967.5,27.5V0m0,1348.9v27.5" class="gc_337"/>
<path d="M27.5,32.1H0m972.1,0h27.5M27.5,1344.3H0m972.1,0h27.5M32.1,27.5V0m0,1348.9v27.5M967.5,27.5V0m0,1348.9v27.5" class="gd_337"/>
</svg>