<?xml version="1.0" encoding="UTF-8" standalone="no"?>
<!DOCTYPE svg PUBLIC "-//W3C//DTD SVG 1.1//EN"
"http://www.w3.org/Graphics/SVG/1.1/DTD/svg11.dtd">
<svg viewBox="0 0 999 1376" version="1.1" xmlns="http://www.w3.org/2000/svg" xmlns:xlink="http://www.w3.org/1999/xlink">
<defs>
<clipPath id="c0_277"><path d="M153.3,934.6V131.7H867.9V934.6Z"/></clipPath>
<style type="text/css"><![CDATA[
.g0_277{
fill: #FFF;
}
.g1_277{
fill: none;
stroke: #231F20;
stroke-width: 0.756;
stroke-miterlimit: 3;
}
.g2_277{
fill: #6381B7;
}
.g3_277{
fill: none;
stroke: #6381B7;
stroke-width: 0.381;
stroke-dasharray: 2,1;
}
.g4_277{
fill: none;
stroke: #6381B7;
stroke-width: 0.381;
}
.g5_277{
fill: #25408F;
}
.g6_277{
fill: #FFDE2C;
}
.g7_277{
fill: none;
stroke: #231F20;
stroke-width: 1.451;
stroke-miterlimit: 10;
}
.g8_277{
fill: #D2D3D5;
}
.g9_277{
fill: #A8AAAD;
}
.ga_277{
fill: none;
stroke: #231F20;
stroke-width: 0.828;
stroke-miterlimit: 10;
}
.gb_277{
fill: #6CCFF6;
}
.gc_277{
fill: none;
stroke: #231F20;
stroke-width: 0.828;
stroke-linecap: round;
stroke-linejoin: round;
}
.gd_277{
fill: none;
stroke: #231F20;
stroke-width: 1.451;
stroke-linecap: round;
stroke-linejoin: round;
}
.ge_277{
fill: #FEF9EC;
}
.gf_277{
fill: none;
stroke: #FECD4E;
stroke-width: 1.527;
stroke-linecap: round;
stroke-linejoin: round;
stroke-dasharray: 0,5;
}
.gg_277{
fill: none;
stroke: #FECD4E;
stroke-width: 1.527;
stroke-linecap: round;
stroke-linejoin: round;
}
.gh_277{
fill: #FECD4E;
}
.gi_277{
fill: #FFE3A6;
}
.gj_277{
fill: #F37B69;
}
.gk_277{
fill: #3D3B39;
}
.gl_277{
fill: none;
stroke: #FFF;
stroke-width: 1.909;
stroke-miterlimit: 10;
}
.gm_277{
fill: none;
stroke: #000;
stroke-width: 0.381;
stroke-miterlimit: 10;
}
]]></style>
</defs>
<path d="M153.3,934.6H867.9V131.7H153.3V934.6Z" class="g0_277"/>
<image clip-path="url(#c0_277)" preserveAspectRatio="none" x="151" y="130" width="719" height="807" xlink:href="img/1.jpg"/>
<path d="M405.5,206.8c-.3,.6,-.7,1.1,-1.3,1.5c-.5,.5,-1.1,.8,-1.8,1c-.8,.3,-1.5,.4,-2.3,.4c-.8,0,-1.5,-.1,-2.2,-.3c-.7,-.3,-1.4,-.6,-1.9,-1c-.5,-.5,-.9,-1,-1.3,-1.6c-.3,-.6,-.4,-1.3,-.4,-2c0,-.7,.1,-1.4,.4,-2c.3,-.6,.7,-1.1,1.3,-1.6c.5,-.4,1.1,-.7,1.8,-1c.7,-.2,1.5,-.3,2.3,-.3c.9,0,1.6,.1,2.3,.3c.8,.3,1.4,.6,1.9,1.1c.5,.4,.9,.9,1.2,1.5c.3,.6,.5,1.3,.5,2c0,.7,-.2,1.4,-.5,2ZM417,204.3h-4.3v8h-2.2V194.8h2.2v7.7H417v1.8Zm-17,14.9c-.9,0,-1.5,-.2,-1.9,-.5c-.3,-.4,-.5,-.9,-.5,-1.6v-5.3h2.2v4.8c0,.3,.1,.5,.2,.6c.1,.2,.3,.2,.7,.2h7.1c1,0,2,0,2.8,-.1c.9,-.2,1.8,-.4,2.7,-.7l.5,1.7c-1.1,.4,-2.1,.6,-3,.7c-.9,.2,-1.9,.2,-3,.2H400Zm2.7,-16.7c-.7,-.6,-1.6,-.9,-2.6,-.9c-1,0,-1.8,.3,-2.5,.9c-.7,.5,-1.1,1.3,-1.1,2.3c0,1,.4,1.8,1.1,2.3c.7,.6,1.5,.8,2.5,.8c1,0,1.9,-.2,2.6,-.8c.7,-.5,1,-1.3,1,-2.3c0,-1,-.3,-1.8,-1,-2.3Zm4.7,-3.5H392.9v-1.7h5.4c.3,-.5,.5,-.8,.5,-1.1c.1,-.3,.1,-.7,.1,-1c0,-.1,0,-.3,0,-.4c0,-.1,0,-.2,-.1,-.3c0,-.1,0,-.2,0,-.3c-.1,-.1,-.1,-.2,-.1,-.3l2.1,-.6c.1,.3,.2,.6,.2,.8c.1,.3,.1,.6,.1,1c0,.4,-.1,.7,-.2,1.1c-.1,.4,-.2,.7,-.4,1.1h6.9V199Zm31.9,7.1H429.2v4.3h4.9c.8,0,1.4,.2,1.7,.6c.3,.4,.4,.9,.4,1.6l-.3,6.9h-2V213c0,-.3,0,-.5,-.1,-.6c-.2,-.1,-.3,-.2,-.6,-.2H420.4v-1.8h6.5v-4.3H418v-1.8h15.2c.2,-1.1,.4,-2.2,.5,-3.5c.2,-1.2,.2,-2.4,.2,-3.5c0,-.3,-.1,-.5,-.2,-.6c-.1,-.1,-.3,-.1,-.5,-.1H420.8v-1.8h13c.8,0,1.4,.1,1.7,.4c.4,.3,.6,.8,.6,1.6c.1,1.1,0,2.3,-.2,3.7c-.2,1.3,-.4,2.6,-.6,3.8h4v1.8Zm21.7,5.6h-2.3V194.8H461v16.9Zm-12.9,7.5c-.9,0,-1.5,-.2,-1.9,-.5c-.3,-.4,-.5,-.9,-.5,-1.6v-6.7h2.2v6.2c0,.3,.1,.5,.2,.6c.1,.2,.3,.2,.7,.2h7.1c1,0,2,0,2.8,-.1c.9,-.2,1.8,-.4,2.7,-.7l.5,1.7c-1.1,.4,-2.1,.6,-3,.7c-.9,.2,-1.9,.2,-3,.2h-7.8Zm5.5,-15.6c-.4,.7,-.8,1.3,-1.4,1.9c-.6,.5,-1.3,1,-2,1.3c-.8,.3,-1.6,.4,-2.5,.4c-1,0,-1.8,-.1,-2.6,-.4c-.8,-.4,-1.5,-.8,-2.1,-1.4c-.5,-.5,-.9,-1.2,-1.2,-1.9c-.3,-.8,-.5,-1.5,-.5,-2.4c0,-.8,.2,-1.6,.5,-2.3c.3,-.8,.8,-1.4,1.3,-1.9c.6,-.6,1.3,-1,2,-1.3c.8,-.4,1.7,-.5,2.6,-.5c.9,0,1.8,.1,2.5,.5c.8,.3,1.5,.8,2.1,1.3c.5,.6,1,1.2,1.3,2c.3,.7,.5,1.4,.5,2.2c0,.9,-.2,1.7,-.5,2.5Zm-2.9,-5.4c-.8,-.9,-1.8,-1.3,-3,-1.3c-1.3,0,-2.3,.4,-3,1.3c-.8,.8,-1.1,1.8,-1.1,2.9c0,1.2,.3,2.2,1.1,3c.7,.9,1.7,1.3,3,1.3c1.2,0,2.2,-.4,3,-1.3c.7,-.8,1.1,-1.8,1.1,-3c0,-1.1,-.4,-2.1,-1.1,-2.9Zm17.8,21.3c-.6,0,-1,-.1,-1.3,-.4c-.3,-.3,-.4,-.7,-.4,-1.2v-4.4h13.4v-2.4H466.8v-1.7h14.1c.7,0,1.1,.1,1.3,.4c.2,.3,.3,.7,.3,1.2l-.4,3.5c0,.3,-.1,.5,-.3,.6c-.1,.1,-.4,.2,-.7,.2h-12v2.5h7.8c.8,0,1.7,-.1,2.8,-.2c1,-.1,2,-.3,3,-.6l.4,1.7c-.9,.3,-1.9,.5,-2.9,.6c-1.1,.2,-2.1,.2,-3.2,.2h-8.5Zm17,-12.7H464.2V205h21.3v1.8Zm-16.1,-6.5c0,.3,.1,.5,.2,.6c.1,.1,.3,.2,.6,.2h5.3c1.2,0,2.4,-.1,3.5,-.2c1.1,-.1,2.2,-.3,3.3,-.7l.4,1.8c-1.2,.3,-2.4,.5,-3.6,.7c-1.2,.1,-2.4,.2,-3.6,.2h-5.6c-.9,0,-1.6,-.2,-2.1,-.6c-.4,-.4,-.6,-1,-.6,-1.9v-5.6H482v1.7H469.4v3.8ZM502,217.1V204.6h-3.4c-.2,1.9,-.8,3.4,-1.8,4.6c-1,1.1,-2.3,1.7,-3.9,1.7c-1.8,0,-3.2,-.7,-4.1,-2c-1,-1.4,-1.5,-3.1,-1.5,-5.3c0,-2.1,.5,-3.9,1.5,-5.3c1,-1.3,2.3,-2,4.1,-2c1.6,0,3,.6,3.9,1.8c1,1.1,1.6,2.7,1.8,4.6H502v-7.6h2.2v22H502Zm-5.7,-15.5c-.2,-.7,-.4,-1.2,-.7,-1.7c-.2,-.5,-.6,-.9,-1.1,-1.3c-.4,-.3,-.9,-.4,-1.6,-.4c-.6,0,-1.2,.1,-1.6,.4c-.5,.4,-.8,.8,-1.1,1.3c-.3,.5,-.5,1,-.6,1.7c-.1,.6,-.2,1.3,-.2,2c0,.7,.1,1.4,.2,2c.1,.7,.3,1.3,.6,1.8c.3,.5,.6,.9,1.1,1.2c.4,.3,1,.4,1.6,.4c.7,0,1.2,-.1,1.6,-.4c.5,-.3,.9,-.7,1.1,-1.2c.3,-.5,.5,-1.1,.7,-1.8c.1,-.6,.2,-1.3,.2,-2c0,-.7,-.1,-1.4,-.2,-2Zm10.8,-6.5h2.2v22.6h-2.2V195.1ZM512.7,211c1.1,-.7,2,-1.5,3,-2.4c.9,-.9,1.7,-1.8,2.4,-2.9c.7,-1,1.3,-2.1,1.7,-3.2c.5,-1.2,.7,-2.4,.8,-3.8c0,-.3,0,-.5,-.1,-.6c0,-.1,-.2,-.2,-.5,-.2h-7.1v-1.8h7.8c.8,0,1.4,.2,1.7,.6c.4,.5,.5,1,.5,1.7c-.1,.9,-.2,1.8,-.4,2.6c-.2,.8,-.4,1.6,-.7,2.4h4.5v-8.3h2.2v22h-2.2V205.3h-5.4c-.8,1.5,-1.8,2.9,-3,4.1c-1.2,1.2,-2.5,2.4,-3.9,3.4L512.7,211Zm19.1,-15.9H534v22.6h-2.2V195.1ZM567.5,205.3h-4.3v12.3h-2.3v-8.4c-1.3,.9,-2.8,1.4,-4.3,1.8c-1.5,.4,-2.9,.6,-4.1,.6h-4c-.9,0,-1.6,-.2,-2.1,-.6c-.4,-.4,-.7,-1,-.7,-2V195.9H548v12.9c0,.4,0,.6,.1,.7c.2,.2,.4,.2,.8,.2h3.6c.6,0,1.2,0,2,-.1c.7,-.1,1.4,-.2,2.2,-.4c.7,-.3,1.4,-.5,2.2,-.9c.7,-.3,1.4,-.8,2,-1.3V195.1h2.3v8.4h4.3v1.8Zm22.1,12.3h-2.3V195.1h2.3v22.5Zm-7.1,-11.1c-.3,.9,-.7,1.6,-1.3,2.3c-.6,.6,-1.3,1.2,-2.2,1.5c-.8,.4,-1.8,.6,-2.8,.6c-1.1,0,-2,-.2,-2.9,-.6c-.8,-.3,-1.5,-.9,-2.1,-1.5c-.6,-.7,-1,-1.4,-1.3,-2.3c-.3,-.9,-.5,-1.9,-.5,-2.9c0,-1,.2,-1.9,.5,-2.8c.3,-.9,.7,-1.7,1.3,-2.4c.6,-.6,1.3,-1.1,2.1,-1.5c.9,-.4,1.8,-.6,2.9,-.6c1,0,2,.2,2.8,.6c.9,.4,1.6,.9,2.2,1.5c.6,.7,1,1.5,1.3,2.4c.4,.9,.5,1.8,.5,2.8c0,1,-.1,2,-.5,2.9Zm-2.1,-4.9c-.2,-.7,-.5,-1.3,-.9,-1.8c-.3,-.4,-.8,-.8,-1.4,-1.1c-.5,-.3,-1.2,-.5,-1.9,-.5c-.7,0,-1.4,.2,-1.9,.5c-.6,.3,-1.1,.7,-1.5,1.1c-.3,.5,-.6,1.1,-.8,1.8c-.2,.6,-.3,1.3,-.3,2c0,.7,.1,1.4,.3,2.1c.2,.6,.5,1.2,.8,1.7c.4,.5,.9,.8,1.5,1.1c.5,.3,1.2,.5,1.9,.5c.7,0,1.4,-.2,1.9,-.5c.6,-.3,1.1,-.6,1.4,-1.1c.4,-.5,.7,-1.1,.9,-1.7c.2,-.7,.3,-1.4,.3,-2.1c0,-.7,-.1,-1.4,-.3,-2Zm15.2,6.4c-.8,0,-1.5,-.2,-1.9,-.5c-.5,-.3,-.7,-.9,-.7,-1.7v-5h8.5v-3.5H593v-1.8h10.7v6.4c-.6,.2,-1.1,.4,-1.7,.5c-.6,.1,-1.2,.2,-1.8,.2h-5v3c0,.2,.1,.4,.2,.5c.1,.1,.2,.1,.4,.1h4.9c1.3,0,2.7,-.1,4.1,-.4c1.5,-.3,2.9,-.9,4.2,-1.8v-9.2h2.3v6.8h4.2v1.9h-4.2v8.4H609V206c-1.2,.7,-2.5,1.1,-3.9,1.5c-1.5,.3,-3,.5,-4.5,.5h-5Zm2.9,10.9c-.8,0,-1.4,-.1,-1.8,-.5c-.4,-.4,-.6,-.9,-.6,-1.6v-6.1h2.3v5.7c0,.2,0,.4,.1,.5c.1,.2,.4,.2,.7,.2h7.1c1.1,0,2,0,2.9,-.1c.8,-.2,1.7,-.4,2.6,-.7l.5,1.7c-1,.4,-2,.6,-2.9,.7c-1,.2,-2,.2,-3,.2h-7.9ZM624,195.4c.7,.2,1.2,.5,1.8,.9c.5,.4,.9,.9,1.2,1.5c.3,.6,.4,1.3,.4,2.1c0,1,-.2,1.9,-.7,2.7c-.5,.8,-1.2,1.6,-2.3,2.3c-.5,.4,-.9,.7,-1.3,.9c-.3,.2,-.6,.4,-.7,.6c-.2,.2,-.4,.4,-.5,.7c0,.2,-.1,.5,-.1,.9l-.1,2.5H620l-.2,-2.9c-.1,-1,.1,-1.8,.6,-2.3c.5,-.6,1.1,-1,1.7,-1.4c1.1,-.6,1.9,-1.2,2.4,-1.8c.4,-.6,.7,-1.3,.7,-2.2c0,-.9,-.4,-1.7,-1,-2.2c-.6,-.5,-1.4,-.8,-2.4,-.8c-.7,0,-1.4,.1,-2.1,.2c-.7,.2,-1.4,.4,-2,.7l-.7,-1.6c.7,-.4,1.5,-.6,2.4,-.8c.9,-.3,1.7,-.4,2.6,-.4c.7,0,1.4,.2,2,.4Zm-1.8,20.9h-2.7v-3h2.7v3Z" class="g1_277"/>
<path d="M703.7,1214.8c0,0,-4.3,0,-4.3,4.4V1230c0,0,0,4.3,4.3,4.3H734c0,0,4.4,0,4.4,-4.3v-10.8c0,0,0,-4.4,-4.4,-4.4Z" class="g2_277"/>
<path d="M690.5,1206v37.5m1.4,1H866.8m.9,-1.3v-37.6m-1.3,-1H691.5" class="g3_277"/>
<path d="M690.5,1243.9v.6h.6m176.1,0h.5v-.6m0,-38.7v-.6h-.5m-176.1,0h-.6v.6" class="g4_277"/>
<path d="M153.3,126.3v22.2L165,158.7V136.5Z" class="g5_277"/>
<path d="M153.3,109.5v39H851.1c0,0,16.8,0,16.8,-16.8v-5.4c0,0,0,-16.8,-16.8,-16.8Z" class="g2_277"/>
<path d="M207.2,115.7c0,-9.1,-7.9,-16.6,-17.7,-16.6c-9.8,0,-17.7,7.5,-17.7,16.6c0,2.7,.6,5.2,1.8,7.4c1.2,2.4,2.9,4.6,5,6.2c1.2,1,1.6,1.7,1.7,4.3v.6c0,3.3,2.7,5.9,5.9,5.9h6.6c3.2,0,5.8,-2.6,5.8,-5.9v-.6c.2,-2.6,.6,-3.3,1.8,-4.3c2.1,-1.6,3.8,-3.8,5,-6.2c1.2,-2.2,1.8,-4.7,1.8,-7.4Z" class="g6_277"/>
<path d="M207.2,115.7c0,-9.1,-7.9,-16.6,-17.7,-16.6c-9.8,0,-17.7,7.5,-17.7,16.6c0,2.7,.6,5.2,1.8,7.4c1.2,2.4,2.9,4.6,5,6.2c1.2,1,1.6,1.7,1.7,4.3v.6c0,3.3,2.7,5.9,5.9,5.9h6.6c3.2,0,5.8,-2.6,5.8,-5.9v-.6c.2,-2.6,.6,-3.3,1.8,-4.3c2.1,-1.6,3.8,-3.8,5,-6.2c1.2,-2.2,1.8,-4.7,1.8,-7.4Z" class="g7_277"/>
<path d="M194.6,147.4c0,2.8,-2.3,5.1,-5.1,5.1c-2.8,0,-5.1,-2.3,-5.1,-5.1c0,-2.8,2.3,-5.1,5.1,-5.1c2.8,0,5.1,2.3,5.1,5.1Z" class="g0_277"/>
<path d="M194.6,147.4c0,2.8,-2.3,5.1,-5.1,5.1c-2.8,0,-5.1,-2.3,-5.1,-5.1c0,-2.8,2.3,-5.1,5.1,-5.1c2.8,0,5.1,2.3,5.1,5.1Z" class="g7_277"/>
<path d="M182.1,140.2c0,1,.8,1.8,1.8,1.8h11.2c1,0,1.8,-.8,1.8,-1.8v-1.3H182.1Z" class="g0_277"/>
<path d="M182.1,140.2c0,1,.8,1.8,1.8,1.8h11.2c1,0,1.8,-.8,1.8,-1.8v-1.3H182.1v1.3Z" class="g7_277"/>
<path d="M196.9,143.2c0,.8,-.6,1.3,-1.3,1.3H183.4c-.8,0,-1.3,-.5,-1.3,-1.3c0,-.7,.5,-1.3,1.3,-1.3h12.2c.7,0,1.3,.6,1.3,1.3Z" class="g0_277"/>
<path d="M196.9,143.2c0,.8,-.6,1.3,-1.3,1.3H183.4c-.8,0,-1.3,-.5,-1.3,-1.3c0,-.7,.5,-1.3,1.3,-1.3h12.2c.7,0,1.3,.6,1.3,1.3Z" class="g7_277"/>
<path d="M196.9,145.8c0,.7,-.6,1.3,-1.3,1.3H183.4c-.8,0,-1.3,-.6,-1.3,-1.3c0,-.7,.5,-1.3,1.3,-1.3h12.2c.7,0,1.3,.6,1.3,1.3Z" class="g0_277"/>
<path d="M196.9,145.8c0,.7,-.6,1.3,-1.3,1.3H183.4c-.8,0,-1.3,-.6,-1.3,-1.3c0,-.7,.5,-1.3,1.3,-1.3h12.2c.7,0,1.3,.6,1.3,1.3Z" class="g7_277"/>
<path d="M215.5,128.7l8.3,10.4c.6,.7,1.8,.6,2.7,-.2c.9,-.7,1.2,-1.9,.7,-2.6l-8.9,-10.2Z" class="g8_277"/>
<path d="M215.5,128.7l8.3,10.4c.6,.7,1.8,.6,2.7,-.2c.9,-.7,1.2,-1.9,.7,-2.6l-8.9,-10.2l-2.8,2.6Z" class="g7_277"/>
<path d="M217.5,125.1c.5,.6,.3,1.8,-.7,2.6c-.9,.7,-2.1,.8,-2.6,.2c-.6,-.7,-.3,-1.9,.6,-2.6c.9,-.8,2.1,-.9,2.7,-.2Z" class="g9_277"/>
<path d="M217.5,125.1c.5,.6,.3,1.8,-.7,2.6c-.9,.7,-2.1,.8,-2.6,.2c-.6,-.7,-.3,-1.9,.6,-2.6c.9,-.8,2.1,-.9,2.7,-.2Z" class="g7_277"/>
<path d="M212.7,124.7l1.7,2c.3,.3,1,.3,1.5,-.1c.5,-.5,.7,-1.1,.4,-1.5l-1.7,-2Z" class="g0_277"/>
<path d="M212.7,124.7l1.7,2c.3,.3,1,.3,1.5,-.1c.5,-.5,.7,-1.1,.4,-1.5l-1.7,-2l-1.9,1.6Z" class="ga_277"/>
<path d="M214.8,122.9c.4,.5,.2,1.3,-.5,1.8c-.6,.5,-1.4,.6,-1.8,.1c-.4,-.4,-.2,-1.2,.5,-1.7c.6,-.6,1.4,-.6,1.8,-.2Z" class="g0_277"/>
<path d="M214.8,122.9c.4,.5,.2,1.3,-.5,1.8c-.6,.5,-1.4,.6,-1.8,.1c-.4,-.4,-.2,-1.2,.5,-1.7c.6,-.6,1.4,-.6,1.8,-.2Z" class="ga_277"/>
<path d="M216.4,105.4c4.8,5.7,4.1,14.2,-1.7,19c-5.7,4.8,-14.2,4,-19,-1.7c-4.8,-5.7,-4,-14.2,1.7,-19c5.7,-4.8,14.2,-4.1,19,1.7Z" class="g0_277"/>
<path d="M216.4,105.4c4.8,5.7,4.1,14.2,-1.7,19c-5.7,4.8,-14.2,4,-19,-1.7c-4.8,-5.7,-4,-14.2,1.7,-19c5.7,-4.8,14.2,-4.1,19,1.7Z" class="g7_277"/>
<path d="M214,107.4c3.5,4.2,3,10.5,-1.3,14.1c-4.2,3.5,-10.5,2.9,-14,-1.3c-3.5,-4.2,-3,-10.5,1.2,-14c4.2,-3.6,10.5,-3,14.1,1.2Z" class="gb_277"/>
<path d="M214,107.4c3.5,4.2,3,10.5,-1.3,14.1c-4.2,3.5,-10.5,2.9,-14,-1.3c-3.5,-4.2,-3,-10.5,1.2,-14c4.2,-3.6,10.5,-3,14.1,1.2Z" class="g7_277"/>
<path d="M213,110.6l-3.1,3m3.1,-.4l-3.1,3" class="gc_277"/>
<path d="M172.1,99l3.1,3.3m1.1,-5.9l1.2,3.9m-8.1,3l3.7,1.2" class="gd_277"/>
<path d="M185.8,106.1c1.2,1.2,.2,4.3,-2.2,6.7c-2.5,2.5,-5.5,3.5,-6.8,2.3c-1.2,-1.3,-.3,-4.3,2.2,-6.8c2.5,-2.5,5.5,-3.5,6.8,-2.2Z" class="g0_277"/>
<path d="M203.7,107.6c.6,.6,.1,1.9,-.9,3c-1.1,1,-2.4,1.5,-3,.9c-.5,-.5,-.1,-1.8,1,-2.9c1.1,-1.1,2.4,-1.5,2.9,-1Z" class="g0_277"/>
<path d="M154.1,1198.9h713v-170h-713v170Z" class="ge_277"/>
<path d="M154.1,1033.5v163.1m4.6,2.3H864.9m2.2,-4.6V1031.2m-4.5,-2.3H156.4" class="gf_277"/>
<path d="M154.1,1198.9v0m713.1,0v0m0,-170v0m-713.1,0v0" class="gg_277"/>
<path d="M153.3,1032.2v-28.7c0,0,0,-8.6,8.7,-8.6H859.3c0,0,8.6,0,8.6,8.6v29.2Z" class="gh_277"/>
<path d="M350,1087.7c0,0,-2.2,0,-2.2,2.2v17.3c0,0,0,2.1,2.2,2.1h18.2c0,0,2.1,0,2.1,-2.1v-17.3c0,0,0,-2.2,-2.1,-2.2Z" class="gi_277"/>
<path d="M377.2,1087.7c0,0,-2.1,0,-2.1,2.2v17.3c0,0,0,2.1,2.1,2.1h18.2c0,0,2.2,0,2.2,-2.1v-17.3c0,0,0,-2.2,-2.2,-2.2Z" class="gi_277"/>
<path d="M373.7,1142.2c0,0,-2.2,0,-2.2,2.1v17.4c0,0,0,2.1,2.2,2.1h18.2c0,0,2.1,0,2.1,-2.1v-17.4c0,0,0,-2.1,-2.1,-2.1Z" class="gi_277"/>
<path d="M400.9,1142.2c0,0,-2.1,0,-2.1,2.1v17.4c0,0,0,2.1,2.1,2.1h18.2c0,0,2.2,0,2.2,-2.1v-17.4c0,0,0,-2.1,-2.2,-2.1Z" class="gi_277"/>
<path d="M199.6,1012.7c-.1,.1,-.2,.1,-.3,.1c-.2,0,-.3,0,-.4,-.1l-12.4,-5.3V1020c.9,.2,1.8,.4,2.7,.6c3.3,.7,6.6,1.5,10.1,1.5c3.4,0,6.8,-.8,10,-1.5c.9,-.2,1.8,-.4,2.7,-.6v-12.6Z" class="gj_277"/>
<path d="M178.3,1001.8l21,9l20.9,-9l-20.9,-8.9Z" class="g6_277"/>
<path d="M223,1001L199.6,991c-.2,-.1,-.5,-.1,-.7,0l-23.3,10c-.4,.1,-.6,.5,-.6,.8c0,.4,.2,.8,.6,.9l9,3.9v14.2c0,.4,.4,.8,.8,.9c1.1,.2,2.2,.4,3.4,.7c3.3,.8,6.8,1.5,10.5,1.5c3.6,0,7.1,-.7,10.5,-1.5c1.1,-.3,2.2,-.5,3.3,-.7c.5,-.1,.8,-.5,.8,-.9v-14.2l3.2,-1.4v17c-1.6,.4,-2.8,1.9,-2.8,3.6v5.2c0,2.1,1.7,3.8,3.8,3.8c2,0,3.7,-1.7,3.7,-3.8v-5.2c0,-1.7,-1.2,-3.2,-2.8,-3.6v-17.8l4,-1.7c.3,-.1,.5,-.5,.5,-.9c0,-.3,-.2,-.7,-.5,-.8m-3,24.8v3.3q-.1,0,-.2,0h-3.6v-3.3c0,-1,.8,-1.9,1.9,-1.9c1,0,1.9,.9,1.9,1.9m-1.9,7.1c-1.1,0,-1.9,-.9,-1.9,-1.9v-.9h3.6c.1,0,.1,-.1,.2,-.1v1c0,1,-.9,1.9,-1.9,1.9m-18.8,-22.1l-21,-9l21,-8.9l20.9,8.9Zm10,9.8c-3.2,.7,-6.6,1.5,-10,1.5c-3.5,0,-6.8,-.8,-10.1,-1.5c-.9,-.2,-1.8,-.4,-2.7,-.6v-12.6l12.4,5.3c.1,.1,.2,.1,.4,.1c.1,0,.2,0,.3,-.1l12.4,-5.3V1020c-.9,.2,-1.8,.4,-2.7,.6Z" class="gk_277"/>
<path d="M219.8,1030.1h-3.6v.9c0,1,.8,1.9,1.9,1.9c1,0,1.9,-.9,1.9,-1.9v-1c-.1,0,-.1,.1,-.2,.1Z" class="g0_277"/>
<path d="M218.1,1023.9c-1.1,0,-1.9,.9,-1.9,1.9v3.3h3.6q.1,0,.2,0v-3.3c0,-1,-.9,-1.9,-1.9,-1.9Z" class="g0_277"/>
<path d="M32.1,45.1H9.2m958.3,0h22.9M32.1,1331.3H9.2m958.3,0h22.9M45.1,32.1V9.2m0,1335.1v22.9M954.5,32.1V9.2m0,1335.1v22.9" class="gl_277"/>
<path d="M32.1,45.1H9.2m958.3,0h22.9M32.1,1331.3H9.2m958.3,0h22.9M45.1,32.1V9.2m0,1335.1v22.9M954.5,32.1V9.2m0,1335.1v22.9" class="gm_277"/>
<path d="M27.5,32.1H0m972.1,0h27.5M27.5,1344.3H0m972.1,0h27.5M32.1,27.5V0m0,1348.9v27.5M967.5,27.5V0m0,1348.9v27.5" class="gl_277"/>
<path d="M27.5,32.1H0m972.1,0h27.5M27.5,1344.3H0m972.1,0h27.5M32.1,27.5V0m0,1348.9v27.5M967.5,27.5V0m0,1348.9v27.5" class="gm_277"/>
</svg>