<?xml version="1.0" encoding="UTF-8" standalone="no"?>
<!DOCTYPE svg PUBLIC "-//W3C//DTD SVG 1.1//EN"
"http://www.w3.org/Graphics/SVG/1.1/DTD/svg11.dtd">
<svg viewBox="0 0 999 1376" version="1.1" xmlns="http://www.w3.org/2000/svg" xmlns:xlink="http://www.w3.org/1999/xlink">
<defs>
<clipPath id="c0_297"><path d="M668,756.9V541.3H905.6V756.9Z"/></clipPath>
<clipPath id="c1_297"><path d="M672,755.4v-209H901.9v209Z"/></clipPath>
<clipPath id="c2_297"><path d="M671.7,755.1v-209H901.6v209Z"/></clipPath>
<clipPath id="c3_297"><path d="M199.2,248.4l-6.5,-2.2L176.3,232.3V175.2h72v73.2Z"/></clipPath>
<clipPath id="c4_297"><path d="M652.3,510.7V302.8H914.1V510.7Z"/></clipPath>
<clipPath id="c5_297"><path d="M656.4,503.1V307.8h253V503.1Z"/></clipPath>
<clipPath id="c6_297"><path d="M656.1,502.8V307.5h253V502.8Z"/></clipPath>
<clipPath id="c7_297"><path d="M198.6,864.6l-6.5,-2.2L175.7,848.5V791.4h72v73.2Z"/></clipPath>
<clipPath id="c8_297"><path d="M778,321.5c-.2,-.1,3.6,-8.2,3.6,-8.2l.8,.5c0,0,-4.1,7.7,-4.4,7.7Z"/></clipPath>
<clipPath id="c9_297"><path d="M785.5,313.8c0,0,-6.8,-1.2,-7.5,-5.3c-.7,-3.6,1.5,-3.8,2,-3.8c.1,0,.2,0,.2,0L788.5,292L787,288.9c0,0,-.6,-1.1,.2,-2.1c0,-.1,.1,-.1,.3,-.1c2.1,0,12.9,5.6,12.9,5.6l.1,.1c-.4,.5,-.8,1.2,-1.4,1.6c-.7,.5,-5.1,1.2,-5.1,1.2l-8.5,18.6Z"/></clipPath>
<clipPath id="ca_297"><path d="M785.1,313.4c.2,-.5,.2,-1.8,0,-2.3v-1.3c-1.5,-.6,-2.8,-1.3,-3.6,-2.6c-1.1,.6,-2.1,1.3,-3.2,1.9c1.6,2.2,3.9,3.6,6.8,4.3Zm0,-3.9c2.2,-4.6,4,-9.5,6.2,-14.1c-.9,-.4,-1.9,-1.3,-2.6,-1.4c-2.3,4.4,-4.7,8.7,-7.1,12.9c.7,1.3,2.1,2,3.5,2.6Zm-7.3,12.1c1.1,-2.9,2.4,-5.5,3.6,-8.3c-2,-1.6,-4,-3.1,-4.4,-6.2v-1.5c-.1,-2.7,1.9,-3.4,4.6,-3.4c0,0,.1,0,.1,0c2,-3.3,4.3,-6.3,6.2,-9.7c-.6,-.8,-1.2,-2.3,-.9,-3.6c.5,1.2,1.6,1.9,2.4,2.9c-.1,.6,-.3,1.1,-.4,1.7c.6,.7,1.4,1.2,2.4,1.4c.5,-.4,.5,-1.2,1.2,-1.5c.9,.4,1.8,.8,3.1,.8c.1,.1,.5,.1,.8,.1c.4,0,.7,0,.8,-.1c.1,0,.2,0,.3,0c.3,0,.5,-.1,.6,-.1c.2,-.1,.4,-.2,.6,-.2c.1,0,.2,.1,.3,.1c-1.3,.7,-2.2,1.8,-4.2,1.8c-.1,0,-.2,0,-.3,0c-.9,3.7,-1.9,7.4,-2.7,11.2c.6,1,1.5,1.7,1.3,3.1c-.5,2.8,-3.9,4.4,-7.2,4.4c-1.3,0,-2.5,-.2,-3.6,-.7c-1,2.1,-2.1,4.1,-3.3,6c0,-.4,.3,-.4,.3,-.7c.9,-1.9,1.9,-3.6,2.6,-5.7c-1.1,1.7,-1.8,3.7,-2.8,5.5c-.2,.4,-.4,.9,-.6,1.3c-.3,.4,-.3,1.1,-.8,1.4Z"/></clipPath>
<clipPath id="cb_297"><path d="M795.6,293.8c-4.8,0,-13.1,-7.3,-5.6,-8.8h1.3c.2,0,.4,0,.7,0q.1,0,.2,0c.3,0,.5,.1,.9,.1c3,.7,8.2,3.8,7.5,7.1c-.3,1.1,-1.6,1.6,-3.2,1.6h-1.7c0,0,-.1,0,-.1,0Z"/></clipPath>
<clipPath id="cc_297"><path d="M782.4,562.3c-.3,-.1,3.5,-8.3,3.5,-8.3l.8,.6c0,0,-4,7.7,-4.3,7.7Z"/></clipPath>
<clipPath id="cd_297"><path d="M789.9,554.5c0,0,-6.9,-1.1,-7.6,-5.2c-.7,-3.6,1.5,-3.8,2.1,-3.8q.1,0,.1,0l8.3,-12.8l-1.4,-3c0,0,-.6,-1.1,.1,-2.1c0,-.1,.1,-.1,.3,-.1c2.1,0,12.9,5.5,12.9,5.5l.1,.2c-.4,.5,-.7,1.1,-1.4,1.6c-.6,.5,-5.1,1.2,-5.1,1.2l-8.4,18.5Z"/></clipPath>
<clipPath id="ce_297"><path d="M789.5,554.2c.2,-.5,.2,-1.8,0,-2.3v-1.4c-1.6,-.5,-2.9,-1.2,-3.7,-2.5c-1.1,.6,-2.1,1.2,-3.1,1.9c1.5,2.1,3.8,3.6,6.8,4.3Zm0,-3.9c2.2,-4.6,4,-9.5,6.1,-14.1c-.9,-.4,-1.8,-1.3,-2.6,-1.4c-2.3,4.4,-4.6,8.7,-7,12.9c.7,1.3,2,2,3.5,2.6Zm-7.3,12c1,-2.8,2.4,-5.4,3.5,-8.2c-2,-1.6,-3.9,-3.2,-4.4,-6.2v-1.5c0,-2.7,1.9,-3.4,4.6,-3.4q.1,0,.2,0c1.9,-3.3,4.2,-6.3,6.1,-9.7c-.5,-.8,-1.1,-2.3,-.8,-3.6c.5,1.2,1.6,1.9,2.3,2.9c-.1,.6,-.2,1.1,-.3,1.7c.6,.7,1.3,1.2,2.4,1.4c.4,-.4,.5,-1.2,1.1,-1.5c.9,.4,1.8,.8,3.1,.8c.2,.1,.5,.1,.8,.1c.4,0,.7,0,.9,-.1c.1,0,.2,0,.2,0c.3,0,.5,-.1,.7,-.1c.2,-.1,.3,-.2,.5,-.2c.1,0,.2,.1,.3,.1c-1.3,.7,-2.2,1.8,-4.1,1.8c-.2,0,-.3,0,-.4,0c-.9,3.7,-1.9,7.4,-2.6,11.2c.5,1,1.5,1.7,1.2,3.1c-.5,2.7,-3.8,4.4,-7.2,4.4c-1.3,0,-2.5,-.2,-3.6,-.7c-1,2.1,-2.1,4.1,-3.3,6c0,-.4,.3,-.4,.3,-.8c.9,-1.8,1.9,-3.5,2.6,-5.6c-1,1.7,-1.8,3.7,-2.7,5.5c-.2,.4,-.5,.9,-.7,1.3c-.3,.4,-.3,1.1,-.7,1.3Z"/></clipPath>
<clipPath id="cf_297"><path d="M799.9,534.6c-4.8,0,-13.1,-7.3,-5.5,-8.8h1.2c.2,0,.5,0,.7,0c.1,0,.2,0,.2,0c.3,0,.6,0,.9,.1c3.1,.7,8.2,3.8,7.5,7c-.2,1.2,-1.5,1.6,-3.1,1.7H800c0,0,-.1,0,-.1,0Z"/></clipPath>
<clipPath id="cg_297"><path d="M786.5,132.5V120.1H801v12.4Z"/></clipPath>
<style type="text/css"><![CDATA[
.g0_297{
fill: #FEFCF4;
}
.g1_297{
fill: #FFF;
}
.g2_297{
fill: none;
stroke: #6381B7;
stroke-width: 0.763;
}
.g3_297{
fill: #F7C2D9;
}
.g4_297{
fill: #FEF6F5;
}
.g5_297{
fill: #EC008C;
}
.g6_297{
fill: none;
stroke: #949698;
stroke-width: 0.305;
stroke-dasharray: 4,4;
}
.g7_297{
fill: none;
stroke: #949698;
stroke-width: 0.305;
}
.g8_297{
fill: none;
stroke: #949698;
stroke-width: 0.305;
stroke-dasharray: 3,3;
}
.g9_297{
fill: #6D6F71;
}
.ga_297{
fill: #FCE8B0;
}
.gb_297{
fill: #6381B7;
}
.gc_297{
fill: none;
stroke: #6381B7;
stroke-width: 0.381;
stroke-dasharray: 2,1;
}
.gd_297{
fill: none;
stroke: #6381B7;
stroke-width: 0.381;
}
.ge_297{
fill: none;
stroke: #00ABE5;
stroke-width: 2.291;
}
.gf_297{
fill: #3D3B39;
}
.gg_297{
fill: #E5E9B7;
}
.gh_297{
fill: #61C7CB;
}
.gi_297{
fill: none;
stroke: #00ABE5;
stroke-width: 1.527;
stroke-linecap: round;
stroke-linejoin: round;
stroke-dasharray: 0,5;
}
.gj_297{
fill: none;
stroke: #00ABE5;
stroke-width: 1.527;
stroke-linecap: round;
stroke-linejoin: round;
}
.gk_297{
fill: #25408F;
}
.gl_297{
fill: #A8AAAD;
}
.gm_297{
fill: none;
stroke: #949698;
stroke-width: 0.549;
}
.gn_297{
fill: none;
stroke: #BCBEC0;
stroke-width: 2.566;
}
.go_297{
fill: #231F20;
}
.gp_297{
fill: #363637;
}
.gq_297{
fill: #5CC4BE;
}
.gr_297{
fill: #EAD646;
}
.gs_297{
fill: none;
stroke: #FFF;
stroke-width: 1.909;
stroke-miterlimit: 10;
}
.gt_297{
fill: none;
stroke: #000;
stroke-width: 0.381;
stroke-miterlimit: 10;
}
]]></style>
</defs>
<path d="M45.1,1344.3H967.5V32.1H45.1V1344.3Z" class="g0_297"/>
<path d="M172.1,137.3c0,0,-18.4,0,-18.4,18.4V750.5c0,0,0,18.3,18.4,18.3H849.2c0,0,18.3,0,18.3,-18.3V137.3Z" class="g1_297"/>
<path d="M172.1,137.3c0,0,-18.4,0,-18.4,18.4V750.5c0,0,0,18.3,18.4,18.3H849.2c0,0,18.3,0,18.3,-18.3V137.3H172.1Z" class="g2_297"/>
<image clip-path="url(#c0_297)" preserveAspectRatio="none" x="668" y="541" width="237" height="217" xlink:href="img/1.png"/>
<path d="M673,567.4L688.6,751L899.2,730.9l-2.4,-28.6L884,546Z" class="g3_297"/>
<image clip-path="url(#c1_297)" preserveAspectRatio="none" x="671" y="547" width="230" height="209" xlink:href="img/2.png"/>
<image clip-path="url(#c2_297)" preserveAspectRatio="none" x="671" y="547" width="230" height="208" xlink:href="img/3.png"/>
<path d="M676.5,560.7l8.1,188l180,-8l30.8,-27.4L889,550.8Z" class="g4_297"/>
<path d="M865.7,739.8L896.2,713l-18.5,-7.9Z" class="g5_297"/>
<path d="M406,566.4c24.8,-.8,44.8,-7.3,48.6,-15.7m-.7,-7.1c-5.3,-7.9,-25.2,-13.9,-49.4,-14.4m-7.5,0c-24.8,.8,-44.8,7.3,-48.6,15.7m.7,7.1c5.3,8,25.2,13.9,49.4,14.4" class="g6_297"/>
<path d="M455.1,549.3c.1,-.5,.2,-1,.2,-1.5c0,-.5,-.1,-1,-.2,-1.5M403,529.2c-.5,0,-1,0,-1.5,0c-.5,0,-1,0,-1.5,0m-52.1,17.1c-.1,.5,-.2,1,-.2,1.5c0,.5,.1,1,.2,1.5M400,566.4c.5,0,1,0,1.5,0c.5,0,1,0,1.5,0" class="g7_297"/>
<path d="M404.7,569.2c8.4,20.1,46.1,103.1,90.8,111m7.1,-2.2c5,-4.1,10.9,-12.6,-8.6,-22.2" class="g6_297"/>
<path d="M487.6,656c-2,1.4,-4.1,3.7,-4.4,7.6m1.8,6.7c5.4,10.1,25.3,36,92,47.5" class="g8_297"/>
<path d="M584.6,719.1c14.7,2.2,61.8,7.8,103.7,-5" class="g6_297"/>
<path d="M402.9,564.9c0,0,.2,.5,.6,1.5m93.6,114c.5,.1,1,.2,1.5,.2c0,0,.6,-.3,1.4,-.8m-7.4,-24.7c-.5,-.2,-.9,-.4,-1.4,-.6c0,0,-.5,.1,-1.3,.4m-6.8,10c0,.4,.1,.8,.1,1.2c0,0,.2,.6,.5,1.5m94.8,50.5c.4,.1,.9,.2,1.4,.2c0,0,.6,.1,1.6,.3m108.3,-5c.5,-.2,1,-.3,1.5,-.5" class="g7_297"/>
<path d="M684.3,712l1.9,5.7l6.6,-5.7Z" class="g9_297"/>
<path d="M231.8,177.4c0,0,-13,0,-13,13V238c0,0,0,13,13,13H835c0,0,13,0,13,-13V190.4c0,0,0,-13,-13,-13Z" class="ga_297"/>
<image clip-path="url(#c3_297)" preserveAspectRatio="none" x="175" y="174" width="75" height="76" xlink:href="img/4.png"/>
<path d="M226.6,243.6c0,0,-26.9,11.3,-51.1,-12.7c0,0,15.1,25.3,49.3,23.9c0,0,24.7,.4,20.2,-10.1c0,0,1.2,-4.4,-18.4,-1.1Z" class="ga_297"/>
<image clip-path="url(#c4_297)" preserveAspectRatio="none" x="652" y="303" width="262" height="208" xlink:href="img/5.png"/>
<path d="M657.4,326.3l11.2,178.3L908,486.2L896.1,307.5Z" class="g3_297"/>
<image clip-path="url(#c5_297)" preserveAspectRatio="none" x="656" y="308" width="253" height="195" xlink:href="img/6.png"/>
<image clip-path="url(#c6_297)" preserveAspectRatio="none" x="655" y="308" width="254" height="195" xlink:href="img/7.png"/>
<path d="M661,317l3.1,179.7l203.2,-3.5L903,467L900.4,312.8Z" class="g4_297"/>
<path d="M867.3,493.1L903,467.4L889.6,455.3Z" class="g5_297"/>
<path d="M461.2,308.8c25.1,-.6,45.4,-6.5,49.6,-14.2m-.9,-7c-5.7,-7.2,-25.8,-12.6,-50.2,-13m-7.6,.1c-25.1,.6,-45.4,6.5,-49.6,14.1m.9,7.1c5.7,7.1,25.8,12.5,50.2,12.9" class="g6_297"/>
<path d="M511.3,293.2c.2,-.5,.3,-1,.3,-1.5c0,-.5,-.1,-1,-.3,-1.5M458.2,274.6c-.5,0,-1,0,-1.6,0c-.5,0,-1,0,-1.5,0m-53.2,15.6c-.1,.5,-.2,1,-.2,1.5c0,.5,.1,1,.2,1.5m53.2,15.7c.5,0,1,0,1.5,0c.6,0,1.1,0,1.6,0" class="g7_297"/>
<path d="M471.3,273.6C486,267.5,534.8,249.2,561,261.4" class="g6_297"/>
<path d="M565.2,267c.4,3.4,-1.4,7.2,-12.9,4.7" class="g8_297"/>
<path d="M554.3,261.5c8.3,-2.1,28.6,-3.5,65,14.7m6.8,3.5c9.8,5.3,34.9,20,51.4,39.9" class="g6_297"/>
<path d="M466.9,275.4c0,0,.5,-.2,1.5,-.6m94,-12.8c.5,.3,.9,.5,1.4,.8c0,0,.3,.5,.6,1.4m-13.5,7.2c-.5,-.1,-1,-.2,-1.5,-.4c0,0,-.7,-.7,-1.2,-1.9m.2,-4.3c.3,-.6,.8,-1.1,1.4,-1.7c0,0,.5,-.3,1.5,-.7m69.4,14.5c.4,.3,.9,.5,1.4,.7c0,0,.5,.3,1.3,.7m55.1,42.4c.3,.4,.6,.8,.9,1.2" class="g7_297"/>
<path d="M671.7,318l6.5,-3.6l2.1,8.6Z" class="g9_297"/>
<path d="M335.6,962.9c0,0,-4.3,0,-4.3,4.4v10.8c0,0,0,4.3,4.3,4.3h30.3c0,0,4.4,0,4.4,-4.3V967.3c0,0,0,-4.4,-4.4,-4.4Z" class="gb_297"/>
<path d="M322.4,954.1v37.6m1.4,.9h543m.9,-1.3V953.7m-1.3,-.9h-543" class="gc_297"/>
<path d="M322.4,992v.6h.6m544.2,0h.5V992m0,-38.7v-.5h-.5m-544.2,0h-.6v.5" class="gd_297"/>
<path d="M166.7,778c0,0,-13,0,-13,13V933.5c0,0,0,13,13,13H854.5c0,0,13,0,13,-13V791c0,0,0,-13,-13,-13Z" class="g1_297"/>
<path d="M166.7,778c0,0,-13,0,-13,13V933.5c0,0,0,13,13,13H854.5c0,0,13,0,13,-13V791c0,0,0,-13,-13,-13H166.7Z" class="g2_297"/>
<path d="M231.2,819.6c0,0,-12.9,0,-12.9,13v21.6c0,0,0,13,12.9,13H833.3c0,0,13,0,13,-13V832.6c0,0,0,-13,-13,-13Z" class="ga_297"/>
<image clip-path="url(#c7_297)" preserveAspectRatio="none" x="174" y="790" width="75" height="76" xlink:href="img/8.png"/>
<path d="M226,859.8c0,0,-26.8,11.3,-51.1,-12.7c0,0,15.2,25.3,49.3,23.9c0,0,24.8,.4,20.3,-10.1c0,0,1.2,-4.4,-18.5,-1.1Z" class="ga_297"/>
<image clip-path="url(#c8_297)" x="777" y="313" width="6" height="9" xlink:href="shade/1.png"/>
<image clip-path="url(#c9_297)" x="777" y="286" width="24" height="28" xlink:href="shade/2.png"/>
<image clip-path="url(#ca_297)" x="776" y="288" width="24" height="34" xlink:href="shade/3.png"/>
<image clip-path="url(#cb_297)" x="782" y="284" width="20" height="10" xlink:href="shade/4.png"/>
<image clip-path="url(#cc_297)" x="782" y="554" width="5" height="9" xlink:href="shade/5.png"/>
<image clip-path="url(#cd_297)" x="781" y="527" width="24" height="28" xlink:href="shade/6.png"/>
<image clip-path="url(#ce_297)" x="781" y="529" width="23" height="34" xlink:href="shade/7.png"/>
<image clip-path="url(#cf_297)" x="786" y="525" width="20" height="10" xlink:href="shade/8.png"/>
<path d="M154.5,1057.1v-28.7c0,0,0,-4.4,4.3,-4.4H862.4c0,0,4.4,0,4.4,4.4v29.1" class="ge_297"/>
<path d="M200.1,1024.6c2.6,0,4.8,-2.2,4.8,-4.8c0,-2.7,-2.2,-4.8,-4.8,-4.8c-2.7,0,-4.8,2.1,-4.8,4.8c0,2.6,2.1,4.8,4.8,4.8Z" class="g1_297"/>
<path d="M200.1,1026.5c3.6,0,6.6,-3,6.6,-6.7c0,-3.7,-3,-6.7,-6.6,-6.7c-3.7,0,-6.7,3,-6.7,6.7c0,3.7,3,6.7,6.7,6.7m0,-11.5c2.6,0,4.8,2.1,4.8,4.8c0,2.6,-2.2,4.8,-4.8,4.8c-2.7,0,-4.8,-2.2,-4.8,-4.8c0,-2.7,2.1,-4.8,4.8,-4.8Z" class="gf_297"/>
<path d="M205.5,1028.4H194.6c-.1,0,-.3,0,-.4,0c2.7,1.1,4.9,3.4,5.9,6.2c1.3,-.5,2.7,-.8,4.2,-.8c2.9,0,5.5,1,7.5,2.7v-1.8c0,-3.5,-2.8,-6.3,-6.3,-6.3Z" class="g1_297"/>
<path d="M184,1025.4c3.4,0,6.1,-2.7,6.1,-6.1c0,-3.4,-2.7,-6.2,-6.1,-6.2c-3.4,0,-6.1,2.8,-6.1,6.2c0,3.4,2.7,6.1,6.1,6.1Z" class="gg_297"/>
<path d="M184,1027.3c4.4,0,8,-3.6,8,-8c0,-4.4,-3.6,-8,-8,-8c-4.4,0,-8,3.6,-8,8c0,4.4,3.6,8,8,8m0,-14.2c3.4,0,6.1,2.8,6.1,6.2c0,3.4,-2.7,6.1,-6.1,6.1c-3.4,0,-6.1,-2.7,-6.1,-6.1c0,-3.4,2.7,-6.2,6.1,-6.2Z" class="gf_297"/>
<path d="M198.4,1035.4c-1,-3.3,-4.1,-5.7,-7.7,-5.7H177.3c-4.4,0,-8,3.6,-8,8v4.3h23.8c.9,-2.8,2.8,-5.1,5.3,-6.6Z" class="gg_297"/>
<path d="M204.3,1035.7c-5.5,0,-9.9,4.5,-9.9,10c0,5.5,4.4,10,9.9,10c5.5,0,10,-4.5,10,-10c0,-5.5,-4.5,-10,-10,-10m6.7,11.7c0,.2,-.2,.4,-.5,.4h-4v4.1c0,.2,-.2,.4,-.5,.4h-3.3c-.3,0,-.5,-.2,-.5,-.4v-4.1h-4.1c-.2,0,-.4,-.2,-.4,-.4V1044c0,-.3,.2,-.5,.4,-.5h4.1v-4c0,-.3,.2,-.5,.5,-.5H206c.3,0,.5,.2,.5,.5v4h4c.3,0,.5,.2,.5,.5Z" class="gh_297"/>
<path d="M213.7,1038.4v-3.7c0,-4.5,-3.7,-8.2,-8.2,-8.2H194.6c-1.6,0,-3.1,.5,-4.3,1.3h-13c-5.4,0,-9.9,4.4,-9.9,9.9v5.2c0,.5,.4,1,1,1h24.2c-.1,.6,-.1,1.2,-.1,1.8c0,6.5,5.3,11.8,11.8,11.8c6.6,0,11.9,-5.3,11.9,-11.8c0,-2.8,-.9,-5.3,-2.5,-7.3m-9.4,17.3c-5.5,0,-9.9,-4.5,-9.9,-10c0,-5.5,4.4,-10,9.9,-10c5.5,0,10,4.5,10,10c0,5.5,-4.5,10,-10,10m-35,-18c0,-4.4,3.6,-8,8,-8h13.4c3.6,0,6.7,2.4,7.7,5.7c-2.5,1.5,-4.4,3.8,-5.3,6.6H169.3Zm42.5,-1.2c-2,-1.7,-4.6,-2.7,-7.5,-2.7c-1.5,0,-2.9,.3,-4.2,.8c-1,-2.8,-3.2,-5.1,-5.9,-6.2c.1,0,.3,0,.4,0h10.9c3.5,0,6.3,2.8,6.3,6.3Z" class="gf_297"/>
<path d="M205.5,1044v-4h-2.4v4c0,.3,-.2,.5,-.4,.5h-4.1v2.4h4.1c.2,0,.4,.2,.4,.5v4h2.4v-4c0,-.3,.3,-.5,.5,-.5h4.1v-2.4H206c-.2,0,-.5,-.2,-.5,-.5Z" class="g1_297"/>
<path d="M210.5,1043.5h-4v-4c0,-.3,-.2,-.5,-.5,-.5h-3.3c-.3,0,-.5,.2,-.5,.5v4h-4.1c-.2,0,-.4,.2,-.4,.5v3.4c0,.2,.2,.4,.4,.4h4.1v4.1c0,.2,.2,.4,.5,.4H206c.3,0,.5,-.2,.5,-.4v-4.1h4c.3,0,.5,-.2,.5,-.4V1044c0,-.3,-.2,-.5,-.5,-.5m-.4,3.4H206c-.2,0,-.5,.2,-.5,.5v4h-2.4v-4c0,-.3,-.2,-.5,-.4,-.5h-4.1v-2.4h4.1c.2,0,.4,-.2,.4,-.5v-4h2.4v4c0,.3,.3,.5,.5,.5h4.1Z" class="gf_297"/>
<path d="M154.1,1067.2v174.5m4.6,2.2H864.9m2.2,-4.5V1064.9m-4.5,-2.3H156.4" class="gi_297"/>
<path d="M154.1,1243.9v0m713.1,0v0m0,-181.3v0m-713.1,0v0" class="gj_297"/>
<path d="M482.5,1157.6H768.3v26H482.5v-26Zm-307.5,0H460.8v26H175v-26Z" class="g3_297"/>
<path d="M153.3,111.9v39L165,161.2V117Z" class="gk_297"/>
<path d="M153.3,111.9v39H851.1c0,0,16.8,0,16.8,-16.8v-5.3c0,0,0,-16.9,-16.8,-16.9Z" class="gb_297"/>
<path d="M802.6,145.6c8.2,0,14.9,-6.5,14.9,-14.5c0,-8.1,-6.7,-14.5,-14.9,-14.5c-8.2,0,-14.9,6.4,-14.9,14.5c0,8,6.7,14.5,14.9,14.5Z" class="gl_297"/>
<path d="M802.6,145.6c8.2,0,14.9,-6.5,14.9,-14.5c0,-8.1,-6.7,-14.5,-14.9,-14.5c-8.2,0,-14.9,6.4,-14.9,14.5c0,8,6.7,14.5,14.9,14.5Z" class="gm_297"/>
<path d="M802.6,136.4c3,0,5.5,-2.4,5.5,-5.3c0,-3,-2.5,-5.4,-5.5,-5.4c-3,0,-5.5,2.4,-5.5,5.4c0,2.9,2.5,5.3,5.5,5.3Z" class="g1_297"/>
<path d="M802.6,136.4c3,0,5.5,-2.4,5.5,-5.3c0,-3,-2.5,-5.4,-5.5,-5.4c-3,0,-5.5,2.4,-5.5,5.4c0,2.9,2.5,5.3,5.5,5.3Z" class="gn_297"/>
<g clip-path="url(#cg_297)" opacity="0.3">
<path d="M788,130.3v0c0,0,0,-4.8,3.7,-8.7l7.7,6.8c0,0,-1,.9,-1,2.6Z" class="g1_297"/>
</g>
<path d="M807.2,131c0,0,-3.5,0,-3.5,3.4v8.7c0,0,0,3.5,3.5,3.5h43.5c0,0,3.5,0,3.5,-3.5v-8.7c0,0,0,-3.4,-3.5,-3.4Z" class="go_297"/>
<path d="M191.2,122c0,-8.3,-6.8,-15,-15.1,-15c-8.3,0,-15,6.7,-15,15c0,8.3,6.7,15.1,15,15.1c.8,0,1.7,-.1,2.4,-.2l4.5,5.2v-6.7c4.9,-2.5,8.2,-7.6,8.2,-13.4Z" class="g1_297"/>
<path d="M183.5,143.3l-5.1,-5.9c-.8,.1,-1.5,.1,-2.3,.1c-8.5,0,-15.5,-6.9,-15.5,-15.5c0,-8.5,7,-15.5,15.5,-15.5c8.6,0,15.5,7,15.5,15.5c0,5.7,-3.1,11,-8.1,13.7Zm-4.8,-6.9l3.9,4.5v-5.8l.2,-.1c4.9,-2.5,7.9,-7.5,7.9,-13c0,-8,-6.5,-14.6,-14.6,-14.6c-8,0,-14.6,6.6,-14.6,14.6c0,8.1,6.6,14.6,14.6,14.6c.8,0,1.6,-.1,2.4,-.2Z" class="gp_297"/>
<path d="M169.1,121.6c.8,0,1.4,.6,1.4,1.4c0,.8,-.6,1.5,-1.4,1.5c-.8,0,-1.4,-.7,-1.4,-1.5c0,-.8,.6,-1.4,1.4,-1.4Z" class="gq_297"/>
<path d="M169.1,124.9c-1,0,-1.9,-.8,-1.9,-1.9c0,-1,.9,-1.9,1.9,-1.9c1,0,1.9,.9,1.9,1.9c0,1.1,-.9,1.9,-1.9,1.9m0,-2.9c-.5,0,-1,.5,-1,1c0,.6,.5,1,1,1c.5,0,1,-.4,1,-1c0,-.5,-.5,-1,-1,-1Z" class="gp_297"/>
<path d="M176.1,121.6c.8,0,1.5,.6,1.5,1.4c0,.8,-.7,1.5,-1.5,1.5c-.8,0,-1.4,-.7,-1.4,-1.5c0,-.8,.6,-1.4,1.4,-1.4Z" class="gq_297"/>
<path d="M176.1,124.9c-1,0,-1.9,-.8,-1.9,-1.9c0,-1,.9,-1.9,1.9,-1.9c1.1,0,1.9,.9,1.9,1.9c0,1.1,-.8,1.9,-1.9,1.9m0,-2.9c-.5,0,-1,.5,-1,1c0,.6,.5,1,1,1c.6,0,1,-.4,1,-1c0,-.5,-.4,-1,-1,-1Z" class="gp_297"/>
<path d="M183.1,121.6c.8,0,1.5,.6,1.5,1.4c0,.8,-.7,1.5,-1.5,1.5c-.8,0,-1.4,-.7,-1.4,-1.5c0,-.8,.6,-1.4,1.4,-1.4Z" class="gq_297"/>
<path d="M183.1,124.9c-1,0,-1.9,-.8,-1.9,-1.9c0,-1,.9,-1.9,1.9,-1.9c1.1,0,1.9,.9,1.9,1.9c0,1.1,-.8,1.9,-1.9,1.9m0,-2.9c-.5,0,-1,.5,-1,1c0,.6,.5,1,1,1c.6,0,1,-.4,1,-1c0,-.5,-.4,-1,-1,-1Z" class="gp_297"/>
<path d="M185.1,136.3c0,-9.8,7.8,-17.7,17.6,-17.7c9.7,0,17.6,7.9,17.6,17.7c0,9.7,-7.9,17.6,-17.6,17.6c-1,0,-1.9,-.1,-2.9,-.3l-5.2,6.1v-7.8c-5.7,-2.9,-9.5,-8.8,-9.5,-15.6Z" class="gr_297"/>
<path d="M194.6,160.2q-.1,0,-.2,0c-.2,-.1,-.3,-.3,-.3,-.5v-7.5c-5.9,-3.2,-9.5,-9.2,-9.5,-15.9c0,-10,8.1,-18.1,18.1,-18.1c9.9,0,18,8.1,18,18.1c0,9.9,-8.1,18,-18,18c-.9,0,-1.8,0,-2.7,-.2l-5.1,5.9c-.1,.1,-.2,.2,-.3,.2m8.1,-41.1c-9.5,0,-17.2,7.7,-17.2,17.2c0,6.4,3.6,12.2,9.3,15.2c.1,.1,.2,.2,.2,.4v6.6l4.5,-5.2c.1,-.1,.3,-.1,.4,-.1c1,.1,1.9,.2,2.8,.2c9.4,0,17.1,-7.7,17.1,-17.1c0,-9.5,-7.7,-17.2,-17.1,-17.2Z" class="gp_297"/>
<path d="M210.9,135.8c.9,0,1.6,.7,1.6,1.6c0,1,-.7,1.7,-1.6,1.7c-1,0,-1.7,-.7,-1.7,-1.7c0,-.9,.7,-1.6,1.7,-1.6Z" class="g1_297"/>
<path d="M210.9,139.6c-1.2,0,-2.2,-1,-2.2,-2.2c0,-1.1,1,-2.1,2.2,-2.1c1.1,0,2.1,1,2.1,2.1c0,1.2,-1,2.2,-2.1,2.2m0,-3.4c-.7,0,-1.3,.6,-1.3,1.2c0,.7,.6,1.3,1.3,1.3c.6,0,1.2,-.6,1.2,-1.3c0,-.6,-.6,-1.2,-1.2,-1.2Z" class="gp_297"/>
<path d="M202.7,135.8c.9,0,1.6,.7,1.6,1.6c0,1,-.7,1.7,-1.6,1.7c-1,0,-1.7,-.7,-1.7,-1.7c0,-.9,.7,-1.6,1.7,-1.6Z" class="g1_297"/>
<path d="M202.7,139.6c-1.2,0,-2.2,-1,-2.2,-2.2c0,-1.1,1,-2.1,2.2,-2.1c1.1,0,2.1,1,2.1,2.1c0,1.2,-1,2.2,-2.1,2.2m0,-3.4c-.7,0,-1.3,.6,-1.3,1.2c0,.7,.6,1.3,1.3,1.3c.6,0,1.2,-.6,1.2,-1.3c0,-.6,-.6,-1.2,-1.2,-1.2Z" class="gp_297"/>
<path d="M194.5,135.8c.9,0,1.6,.7,1.6,1.6c0,1,-.7,1.7,-1.6,1.7c-1,0,-1.7,-.7,-1.7,-1.7c0,-.9,.7,-1.6,1.7,-1.6Z" class="g1_297"/>
<path d="M194.5,139.6c-1.2,0,-2.2,-1,-2.2,-2.2c0,-1.1,1,-2.1,2.2,-2.1c1.1,0,2.1,1,2.1,2.1c0,1.2,-1,2.2,-2.1,2.2m0,-3.4c-.7,0,-1.2,.6,-1.2,1.2c0,.7,.5,1.3,1.2,1.3c.6,0,1.2,-.6,1.2,-1.3c0,-.6,-.6,-1.2,-1.2,-1.2Z" class="gp_297"/>
<path d="M32.1,45.1H9.2m958.3,0h22.9M32.1,1331.3H9.2m958.3,0h22.9M45.1,32.1V9.2m0,1335.1v22.9M954.5,32.1V9.2m0,1335.1v22.9" class="gs_297"/>
<path d="M32.1,45.1H9.2m958.3,0h22.9M32.1,1331.3H9.2m958.3,0h22.9M45.1,32.1V9.2m0,1335.1v22.9M954.5,32.1V9.2m0,1335.1v22.9" class="gt_297"/>
<path d="M27.5,32.1H0m972.1,0h27.5M27.5,1344.3H0m972.1,0h27.5M32.1,27.5V0m0,1348.9v27.5M967.5,27.5V0m0,1348.9v27.5" class="gs_297"/>
<path d="M27.5,32.1H0m972.1,0h27.5M27.5,1344.3H0m972.1,0h27.5M32.1,27.5V0m0,1348.9v27.5M967.5,27.5V0m0,1348.9v27.5" class="gt_297"/>
</svg>