<?xml version="1.0" encoding="UTF-8" standalone="no"?>
<!DOCTYPE svg PUBLIC "-//W3C//DTD SVG 1.1//EN"
"http://www.w3.org/Graphics/SVG/1.1/DTD/svg11.dtd">
<svg viewBox="0 0 999 1376" version="1.1" xmlns="http://www.w3.org/2000/svg" xmlns:xlink="http://www.w3.org/1999/xlink">
<defs>
<clipPath id="c0_38"><path d="M32.1,1344.3V32.1H967.5V1344.3Z"/></clipPath>
<clipPath id="c1_38"><path d="M130,266.6V209.4h55.5v57.2Z"/></clipPath>
<clipPath id="c2_38"><path d="M155.9,454.6V293.5h698V454.6Z"/></clipPath>
<clipPath id="c3_38"><path d="M311.6,570V485H414.4v85Z"/></clipPath>
<clipPath id="c4_38"><path d="M746.1,572.2V487.1H848.8v85.1Z"/></clipPath>
<clipPath id="c5_38"><path d="M181.6,717.8l-6.5,-2l-14,-11.2V643.7h62.7v74.1Z"/></clipPath>
<style type="text/css"><![CDATA[
.g0_38{
fill: #FFFDEA;
}
.g1_38{
fill: #BCE4EA;
}
.g2_38{
fill: #BCBEC0;
}
.g3_38{
fill: #00AABD;
}
.g4_38{
fill: #FEF0DB;
}
.g5_38{
fill: #FDD095;
}
.g6_38{
fill: #F47A43;
}
.g7_38{
fill: #FFF;
}
.g8_38{
fill: none;
stroke: #231F20;
stroke-width: 1.527;
}
.g9_38{
fill: none;
stroke: #976EAF;
stroke-width: 1.145;
stroke-linecap: round;
stroke-linejoin: round;
stroke-dasharray: 4,2;
}
.ga_38{
fill: none;
stroke: #976EAF;
stroke-width: 1.145;
stroke-linecap: round;
stroke-linejoin: round;
stroke-dasharray: 4,3;
}
.gb_38{
fill: none;
stroke: #976EAF;
stroke-width: 1.145;
stroke-linecap: round;
stroke-linejoin: round;
}
.gc_38{
fill: #FCBB62;
}
.gd_38{
fill: none;
stroke: #EE1E7B;
stroke-width: 6.347;
}
.ge_38{
fill: #FCBB62;
stroke: #FFF;
stroke-width: 1.261;
}
.gf_38{
fill: none;
stroke: #FFF;
stroke-width: 1.261;
}
.gg_38{
fill: none;
stroke: #EE1E7B;
stroke-width: 5.891;
}
.gh_38{
fill: none;
stroke: #EE1E7B;
stroke-width: 6.424;
}
.gi_38{
fill: #FCDCBA;
}
.gj_38{
fill: #DED3E8;
}
.gk_38{
fill: none;
stroke: #6D6F71;
stroke-width: 0.305;
stroke-miterlimit: 10;
}
.gl_38{
fill: none;
stroke: #231F20;
stroke-width: 0.305;
stroke-miterlimit: 10;
}
.gm_38{
fill: none;
stroke: #58595B;
stroke-width: 0.152;
stroke-miterlimit: 1;
}
.gn_38{
fill: none;
stroke: #FFF;
stroke-width: 1.909;
stroke-miterlimit: 10;
}
.go_38{
fill: none;
stroke: #000;
stroke-width: 0.381;
stroke-miterlimit: 10;
}
]]></style>
</defs>
<g clip-path="url(#c0_38)">
<path d="M32.1,1344.3H1877V32.1H32.1V1344.3Z" class="g0_38"/>
<path d="M32.1,179.3H1877V32.1H32.1V179.3Z" class="g1_38"/>
<path d="M1877,177.2H32.1v-5.4H768.7c43.1,0,53,-37.9,115.3,-37.9h993Z" class="g2_38"/>
<path d="M1877,183.7H32.1v-9.8H768.7c43.1,0,53,-33.6,115.3,-33.6h993Z" class="g3_38"/>
</g>
<path d="M480.7,218.1c0,0,-8.6,0,-8.6,8.7v30.3c0,0,0,8.7,8.6,8.7H833c0,0,8.7,0,8.7,-8.7V226.8c0,0,0,-8.7,-8.7,-8.7Z" class="g4_38"/>
<path d="M160.5,218.1c0,0,-8.6,0,-8.6,8.7v30.3c0,0,0,8.7,8.6,8.7H731.6c0,0,8.6,0,8.6,-8.7V226.8c0,0,0,-8.7,-8.6,-8.7Z" class="g5_38"/>
<image clip-path="url(#c1_38)" preserveAspectRatio="none" x="130" y="210" width="55" height="57" xlink:href="img/1.png"/>
<path d="M154.8,211.1c12.7,0,23,10.6,23,23.8c0,13.1,-10.3,23.7,-23,23.7C142,258.6,131.7,248,131.7,234.9c0,-13.2,10.3,-23.8,23.1,-23.8Z" class="g6_38"/>
<path d="M172,234.9c0,-9.8,-7.7,-17.8,-17.2,-17.8c-9.6,0,-17.3,8,-17.3,17.8c0,9.8,7.7,17.7,17.3,17.7c3.6,0,7,-1.1,9.7,-3.1l6.4,1.8l-1.7,-6.7c1.8,-2.8,2.8,-6.2,2.8,-9.7Z" class="g7_38"/>
<path d="M770.8,241.2c0,0,-.5,-9.9,8.3,-9.3c0,0,6.6,-.4,6.5,9.5m-14.9,-1.5v6.5c0,0,-3.2,.3,-3.8,-3c0,0,0,-3.8,3.8,-3.5Zm15,0v6.5c0,0,3.2,.3,3.7,-3c0,0,.1,-3.8,-3.7,-3.5Z" class="g8_38"/>
<image clip-path="url(#c2_38)" preserveAspectRatio="none" x="156" y="294" width="697" height="161" xlink:href="img/2.png"/>
<path d="M171.2,295.8c0,0,-13,0,-13,12.9V433.2c0,0,0,13,13,13H832.7c0,0,13,0,13,-13V308.7c0,0,0,-12.9,-13,-12.9Z" class="g7_38"/>
<path d="M167.7,296.3c-3.4,.9,-8.3,3.3,-9.3,9.9" class="g9_38"/>
<path d="M158.2,312.7V430.4" class="ga_38"/>
<path d="M158.8,436.7c.9,3.5,3.3,8.3,9.9,9.3" class="g9_38"/>
<path d="M175.3,446.2H829.8" class="ga_38"/>
<path d="M836.2,445.7c3.5,-.9,8.3,-3.4,9.3,-9.9" class="g9_38"/>
<path d="M845.7,429.2V311.6" class="ga_38"/>
<path d="M845.2,305.2c-.9,-3.4,-3.4,-8.3,-9.9,-9.3" class="g9_38"/>
<path d="M828.7,295.8H174.1" class="ga_38"/>
<path d="M158.3,307.2c0,.5,-.1,1,-.1,1.5v1.7m0,121.1v1.7c0,0,0,.6,.2,1.6m11.3,11.3c.5,.1,1,.1,1.5,.1H173m658,0h1.7c0,0,.6,0,1.6,-.2m11.3,-11.2c.1,-.5,.1,-1.1,.1,-1.6v-1.7m0,-121.1v-1.7c0,0,0,-.6,-.2,-1.5M834.3,295.8c-.5,0,-1.1,0,-1.6,0H831m-658,0h-1.8c0,0,-.6,0,-1.5,.1" class="gb_38"/>
<path d="M175,474.4c0,0,-17.3,0,-17.3,17.3v78c0,0,0,17.3,17.3,17.3h86.6c0,0,17.3,0,17.3,-17.3v-78c0,0,0,-17.3,-17.3,-17.3Z" class="g7_38"/>
<path d="M268.3,491l2.4,81.6c0,0,-2.4,5.5,-10.9,2.5l-.6,-28.5c0,0,11.5,-13.3,5.4,-29.6c0,0,-33.2,-32,-72.5,-1.2l-.6,4.8l-7.3,-3L183,504.9l-13.9,-6c0,0,-1.2,-8.5,2.4,-9.1Z" class="gc_38"/>
<path d="M243.5,546.8c0,0,10.9,-46,-1.2,-39.9c0,0,-23.6,11.5,-38.1,10.9c0,0,-7.9,6.6,-1.8,13.3c0,0,7.2,4.8,12.7,6.6c0,0,3,.6,1.8,4.9Z" class="g2_38"/>
<path d="M192.1,532.1c0,0,-6.1,1.2,-4.8,10.9c0,0,-1.3,24.8,3.6,26.6c0,0,4.8,3.6,28.4,-1.2l2.4,6h21.8c0,0,2.4,-32.6,-4.9,-30.8c0,0,-16.3,-2.4,-31.4,-1.8c0,0,-17.5,-.6,-15.1,-9.7Z" class="gc_38"/>
<path d="M201.3,521.2h38.1v20.6" class="gd_38"/>
<path d="M464.6,474.4c0,0,-17.3,0,-17.3,17.3v78c0,0,0,17.3,17.3,17.3h86.6c0,0,17.3,0,17.3,-17.3v-78c0,0,0,-17.3,-17.3,-17.3Z" class="g7_38"/>
<path d="M484.5,551.7l1.3,11.7h46.3V551.7" class="ge_38"/>
<path d="M460.5,499.8l3.7,35.2c0,0,.6,4.3,20.3,16.7L508,564.6c0,0,44.4,-25.3,46.9,-29.6l2.5,-35.2Z" class="gc_38"/>
<path d="M460.5,499.8l3.7,35.2c0,0,.6,4.3,20.3,16.7L508,564.6c0,0,44.4,-25.3,46.9,-29.6l2.5,-35.2H460.5Z" class="gf_38"/>
<path d="M504.3,512.2c0,0,4.3,9.8,9.9,-.6" class="ge_38"/>
<path d="M490.7,530.7c0,0,3.7,-10.5,17.9,-1.9c0,0,13.6,-9.8,17.9,3.7Z" class="gc_38"/>
<path d="M490.7,530.7c0,0,3.7,-10.5,17.9,-1.9c0,0,13.6,-9.8,17.9,3.7l-35.8,-1.8Z" class="gf_38"/>
<path d="M490.4,531.9c0,0,17.9,13,36.1,.6" class="ge_38"/>
<path d="M486.7,546.1h41.8V520.5H486.7v25.6Z" class="gg_38"/>
<path d="M319.8,474.4c0,0,-17.3,0,-17.3,17.3v78c0,0,0,17.3,17.3,17.3h86.6c0,0,17.3,0,17.3,-17.3v-78c0,0,0,-17.3,-17.3,-17.3Z" class="g7_38"/>
<path clip-path="url(#c3_38)" d="M413.8,492.9l.6,71.6c0,0,-2.4,5.5,-11,2.4l-.6,-19.5c0,0,11.6,-13.5,5.5,-30c0,0,-33.7,-32.4,-73.4,-1.2l-.6,4.9L326.9,518l.6,-12.8L311.6,499c0,0,.6,-6.7,4.3,-7.3Z" class="gc_38"/>
<path d="M375.3,540c0,0,-12.3,-11.6,-22.7,-11c0,0,-7.9,-3,-9.8,-12.8c0,0,-7.9,-3.1,-3.6,9.1c0,0,5.5,11.7,15.3,14.1l5.5,3.7c0,0,14,1.8,15.3,-3.1Z" class="g2_38"/>
<path d="M335.9,530.4c0,0,-6.1,1.2,-4.8,11c0,0,-1.3,17.7,3.6,19.6c0,0,4.9,3.7,28.8,-1.2l2.4,6.1H388c0,0,2.4,-25.7,-4.9,-23.9c0,0,-16.6,-2.4,-31.9,-1.8c0,0,-17.7,-.6,-15.3,-9.8Z" class="gc_38"/>
<path d="M347.7,519.2v19.6h36.1" class="gh_38"/>
<path d="M609.4,474.4c0,0,-17.3,0,-17.3,17.3v78c0,0,0,17.3,17.3,17.3H696c0,0,17.4,0,17.4,-17.3v-78c0,0,0,-17.3,-17.4,-17.3Z" class="g7_38"/>
<path d="M703.4,493.8l.6,71.6c0,0,-2.4,5.5,-11,2.4l-.6,-19.6c0,0,11.6,-13.4,5.5,-30c0,0,-31.2,-21.4,-73.4,-1.2l-.6,4.9l-7.4,-3l.7,-12.9l-16,-6.1c0,0,.7,-6.7,4.3,-7.4Z" class="gc_38"/>
<path d="M646.5,541.2l3.7,3.7c0,0,17.1,-1.9,24.5,1.8c0,0,7.9,-1.8,-1.9,-11c0,0,-45.9,-13.5,-49.5,-7.4Z" class="g2_38"/>
<path d="M624.5,533.5c0,0,-6.1,1.3,-4.9,11.1c0,0,-1.2,17.7,3.7,19.5c0,0,4.9,3.7,28.7,-1.2l2.5,6.1h22c0,0,2.4,-25.7,-4.9,-23.8c0,0,-16.5,-2.5,-31.8,-1.9c0,0,-17.8,-.6,-15.3,-9.8Z" class="gc_38"/>
<path d="M610.8,539.6l12.1,-12.2l13.7,8.4" class="gh_38"/>
<path d="M754.2,474.4c0,0,-17.3,0,-17.3,17.3v78c0,0,0,17.3,17.3,17.3h86.6c0,0,17.4,0,17.4,-17.3v-78c0,0,0,-17.3,-17.4,-17.3Z" class="g7_38"/>
<path clip-path="url(#c4_38)" d="M848.2,495.1l.6,71.6c0,0,-2.4,5.5,-11,2.4l-.6,-19.6c0,0,11.6,-13.4,5.5,-29.9c0,0,-33.6,-32.5,-73.4,-1.3l-.6,4.9l-7.4,-3l.7,-12.9l-15.9,-6.1c0,0,.6,-6.7,4.2,-7.3Z" class="gc_38"/>
<path d="M788.3,546.8c0,0,-1.3,-7.4,-8.6,-4.9c0,0,-11,-4.9,-.6,-9.8c0,0,45.9,-6.7,41,15.9Z" class="g2_38"/>
<path d="M769.3,534.8c0,0,-6.1,1.3,-4.9,11.1c0,0,-1.2,17.7,3.7,19.5c0,0,4.9,3.7,28.7,-1.2l2.5,6.1h22c0,0,2.5,-25.7,-4.9,-23.8c0,0,-16.5,-2.5,-31.8,-1.9c0,0,-17.7,-.6,-15.3,-9.8Z" class="gc_38"/>
<path d="M836.6,559c0,3.9,-3.2,7.1,-7,7.1c-3.9,0,-7.1,-3.2,-7.1,-7.1c0,-3.9,3.2,-7,7.1,-7c3.8,0,7,3.1,7,7Z" class="gh_38"/>
<path d="M214.2,672.8c0,0,-13,0,-13,13v21.7c0,0,0,13,13,13H833.3c0,0,13,0,13,-13V685.8c0,0,0,-13,-13,-13Z" class="gi_38"/>
<image clip-path="url(#c5_38)" preserveAspectRatio="none" x="161" y="643" width="63" height="76" xlink:href="img/3.png"/>
<path d="M209,713.1c0,0,-26.8,11.3,-51.1,-12.7c0,0,15.2,25.3,49.3,23.9c0,0,24.8,.4,20.3,-10.1c0,0,1.2,-4.4,-18.5,-1.1Z" class="gi_38"/>
<path d="M170.8,791.8H845.7V752.9H170.8v38.9Z" class="gj_38"/>
<path d="M170.8,791.8h135V900.1h-135V791.8Zm135,0h135V900.1h-135V791.8Zm135,0h135V900.1h-135V791.8Zm135,0H710.7V900.1H575.8V791.8Zm134.9,0h135V900.1h-135V791.8ZM170.8,900.1h135v108.3h-135V900.1Zm135,0h135v108.3h-135V900.1Zm135,0h135v108.3h-135V900.1Zm135,0H710.7v108.3H575.8V900.1Zm134.9,0h135v108.3h-135V900.1Z" class="g7_38"/>
<path d="M170.8,899.9V792m135,107.9V792m135,107.9V792m135,107.9V792M710.7,899.9V792m135,107.9V792m-675,108.1H305.8m-135,108.1v-108m135,-.1h135m-135,108.1v-108m135,-.1h135m-135,108.1v-108m135,-.1H710.7M575.8,1008.2v-108m134.9,-.1H845.9M710.7,1008.2v-108m135,108v-108m-675,108.2H305.8m0,0h135m0,0h135m0,0H710.7m0,0H845.9M170.8,791.7V753m-.1,-.1H305.8m0,0h135m0,0h135m0,0H710.7m0,0H845.9M170.7,791.8H305.8m0,0h135m0,0h135m0,0H710.7m0,0H845.9" class="gk_38"/>
<path d="M845.7,791.7V753" class="gl_38"/>
<path d="M259.1,134H247l1.1,1.2h4.3c.6,.4,.8,.7,.8,1c-.7,0,-1.4,.3,-1.9,.8c-.6,.5,-.9,1.1,-.9,1.8c0,.4,.2,.7,.5,.9c.3,.2,.6,.3,1,.3c.5,0,1.1,-.2,1.6,-.7c.4,-.5,.7,-1,.7,-1.6c.1,0,.2,-.1,.3,-.1c.2,0,.3,0,.5,0c.1,0,.3,.1,.5,.2c.2,.1,.4,.2,.5,.4c.2,.2,.3,.4,.4,.7c0,.2,.1,.5,.1,.7c0,.8,-.5,1.5,-1.4,2c-.8,.3,-1.6,.5,-2.5,.4c-1.3,-.1,-2.4,-.4,-3.4,-1l1.5,3c.8,.2,1.7,.5,2.6,.9c.9,.3,1.7,.7,2.5,1.2c.9,.5,1.6,1,2.3,1.5c.7,.6,1.3,1.2,1.9,1.9l-.3,-1.3c-1,-1.1,-2,-2,-3,-2.8c-.9,-.8,-1.7,-1.4,-2.6,-1.9c1.2,-.3,2.1,-.7,2.7,-1.2c.8,-.6,1.2,-1.4,1.2,-2.4c0,-1,-.3,-1.8,-1,-2.5c-.4,-.5,-1.2,-.9,-2.4,-1.3c-.1,-.2,-.2,-.3,-.3,-.5c-.1,-.1,-.3,-.2,-.4,-.4h6.4L259.1,134Zm5.2,1.2L263.1,134H262c-.3,-.4,-.6,-1,-.7,-1.9l-.5,-.3c0,.2,0,.5,.1,.9c0,.3,0,.7,0,1.2c.1,.5,.1,.9,.1,1.3c0,.3,0,.6,0,.9c-.2,-.8,-.5,-1.3,-.9,-1.6c-.4,-.3,-1,-.5,-1.7,-.5H257l1.2,1.2c.3,0,.7,.1,1,.2c.3,.1,.6,.3,.9,.5c.2,.2,.4,.4,.5,.7c.2,.3,.3,.7,.3,1v8.9l1.1,1.2V135.2h2.3Zm8.9,0L271.9,134h-9.4l1.2,1.2h6.5v4.1c-1,-1.7,-2.1,-2.5,-3.4,-2.5c-.6,0,-1.1,.2,-1.7,.6c-.5,.4,-.7,1,-.7,1.6c0,1.2,.6,1.8,1.9,1.8c.5,0,.8,-.1,1,-.4c.3,-.3,.4,-.7,.4,-1.1c0,-.2,-.1,-.6,-.5,-1c1,0,1.8,.6,2.5,1.7c.3,.5,.5,1,.6,1.5c.1,.5,.1,1,.1,1.5v1l.9,.6v-9.4h1.9Zm8.7,-1.2c-.2,0,-.3,0,-.4,0c-.7,0,-1.1,-.4,-1,-1.3c0,-.1,0,-.2,0,-.3l-.7,-.7c0,.5,0,1,.1,1.5c0,.6,0,1.2,0,1.9l.2,3.5c-.5,-1.6,-1.1,-2.6,-1.5,-3.2c-.8,-.8,-1.7,-1.3,-3,-1.3c-.5,0,-1,.1,-1.5,.2c-.4,.2,-.9,.4,-1.3,.7c-.9,.6,-1.4,1.4,-1.4,2.4c0,.4,.2,.8,.4,1.1c.4,.4,.7,.6,1,.6c.1,0,.3,0,.5,-.1c.2,-.1,.5,-.2,.8,-.4c.5,-.3,.9,-.5,1.1,-.5c.5,0,.7,.2,.7,.6c0,.1,-.1,.3,-.3,.6c-.2,.2,-.4,.5,-.8,.9c-.3,.3,-.5,.6,-.8,.9c-.3,.2,-.5,.4,-.7,.6l1.4,1.5c.8,-.8,1.4,-1.6,1.8,-2.3c.5,-.7,.7,-1.2,.7,-1.7c0,-.3,-.1,-.6,-.2,-.9c-.1,-.3,-.3,-.5,-.5,-.7c-.2,-.1,-.5,-.3,-.8,-.4c-.3,-.1,-.6,-.1,-.9,-.1c-.5,0,-1,.1,-1.6,.4c.5,-1.3,1.5,-1.9,2.9,-1.9c.9,0,1.7,.5,2.5,1.5c.3,.5,.6,.9,.8,1.4c.1,.5,.2,1,.2,1.5c0,.4,0,.9,0,1.6c0,1,0,2.6,-.1,4.8l1.4,1.6V135.2h2.2L281.9,134Zm13.8,1.2L294.5,134H281.2l1.3,1.2h9.8v3.3c-.5,-1.3,-1.3,-2,-2.3,-2c-.3,0,-.6,.2,-1,.5c-.3,.3,-.5,.6,-.5,1c-.8,-1,-1.7,-1.6,-2.7,-1.6c-.8,0,-1.5,.4,-2,1.2c-.4,.7,-.7,1.4,-.7,2.3c0,.5,.1,1,.3,1.4c.2,.4,.4,.8,.7,1.1c.3,.3,.7,.5,1.1,.7c.4,.1,.9,.2,1.4,.2c.7,-.1,1.1,-.2,1.5,-.5c.3,-.3,.5,-.7,.5,-1.2c0,-1.1,-.6,-1.7,-1.7,-1.7c-.3,0,-.6,.1,-.9,.3c-.3,.3,-.4,.6,-.4,1c0,.2,.1,.6,.4,1c-1.2,-.2,-1.8,-.8,-1.8,-1.7c0,-.3,.1,-.6,.2,-.9c.1,-.3,.3,-.5,.5,-.7c.2,-.2,.5,-.4,.7,-.5c.3,-.1,.6,-.2,.9,-.2c.7,0,1.3,.2,1.8,.6c.5,.4,.8,1,.9,1.6l.5,-.2c0,-.3,-.1,-.5,-.1,-.7c0,-.9,.4,-1.3,1,-1.3c.5,0,.8,.2,1.1,.5c.4,.3,.5,.7,.5,1.1v6.9l1.2,1.1V135.2h2.3ZM308.9,134c-.5,0,-1,.2,-1.5,.4c-.5,.3,-.9,.5,-1.3,.8c-.8,.8,-1.4,1.8,-1.8,2.8c-.4,1,-.6,2.1,-.7,3.3c0,1.5,.3,2.8,1,3.9c.7,1.4,1.8,2.1,3.1,2.1c.3,0,.6,0,.9,-.1c.2,-.1,.5,-.2,.7,-.4c.2,-.2,.3,-.4,.4,-.7c.2,-.2,.2,-.5,.2,-.8c0,-.4,-.1,-.9,-.4,-1.2c-.3,-.3,-.6,-.5,-1,-.5c-.2,0,-.4,.1,-.6,.1c-.2,.1,-.3,.2,-.5,.3c-.1,.2,-.2,.3,-.3,.4c-.1,.2,-.1,.4,-.1,.6c0,.2,.1,.4,.2,.7c.1,.2,.3,.4,.5,.6c0,0,-.1,.1,-.2,.1h-.1c-.7,0,-1.4,-.5,-1.9,-1.4c-.5,-.7,-.7,-1.5,-.7,-2.3c0,-1,.1,-1.9,.3,-2.7c.3,-.7,.6,-1.4,1,-2.1c.4,-.7,1,-1.3,1.7,-1.7c.6,-.5,1.4,-.8,2.3,-1L308.9,134Zm13.9,1.2L321.6,134c-.7,-.1,-1.2,-.6,-1.3,-1.5l-.7,-.6l.2,5.3h-.1c-.1,-.5,-.5,-1.2,-1.2,-2c-.7,-.8,-1.3,-1.2,-1.7,-1.2c-1.3,0,-2.3,.8,-3,2.4c-.2,-.7,-.5,-1.2,-1.1,-1.7c-.5,-.5,-1.1,-.7,-1.7,-.7h-2.6l1.2,1.2c.1,0,.6,0,1.4,0c.7,0,1.4,.5,2,1.5c-.3,.1,-.6,.2,-.8,.4c-.3,.2,-.5,.4,-.7,.7c-.2,.2,-.4,.5,-.5,.8c-.1,.2,-.1,.5,-.1,.8c0,.4,.1,.8,.4,1.2c.3,.3,.6,.5,1.1,.5c.9,0,1.6,-.5,1.9,-1.5c.2,.5,.4,.8,.8,1.1c.3,.2,.7,.4,1.1,.4c.5,-.1,.9,-.3,1.2,-.7c.2,-.3,.4,-.7,.4,-1.2c0,-.6,-.7,-1.3,-1.9,-2.2c0,-.3,.1,-.6,.4,-.7c.3,-.2,.6,-.3,.9,-.3c.5,0,1,.3,1.6,1c.5,.8,.8,1.4,.8,1.9l-.1,7.7l1.2,1.2V135.2h2.1ZM333.4,134c-.6,-.1,-.9,-.2,-1,-.6c-.1,-.1,-.1,-.2,-.1,-.5c-.1,-.2,-.1,-.5,-.1,-.7l-.6,-.4v12.3h-.1c-.8,-1.4,-2,-2.5,-3.8,-3.4c.8,-.2,1.4,-.6,2,-1.2c.5,-.6,.8,-1.3,.8,-2c0,-.7,-.3,-1.3,-.9,-1.9c0,-.1,-.2,-.2,-.5,-.5c-.3,-.3,-.7,-.6,-1.1,-1c-.3,.3,-.5,.5,-.8,.8c-.2,.2,-.3,.3,-.4,.4c-.2,.2,-.5,.3,-.7,.5c-.3,.1,-.5,.2,-.8,.2c0,-.7,-.4,-1.1,-1.1,-1.1c-.4,0,-.7,.2,-.9,.4c-.3,.3,-.4,.6,-.4,.9c0,.5,.2,.9,.5,1.2c.4,.3,.8,.5,1.3,.5c1.3,0,2.6,-.7,3.9,-2c.4,.4,.7,.8,.7,1.3c0,.4,-.2,.7,-.5,1c-.3,.2,-.7,.5,-1.3,.8c-.5,.2,-.9,.3,-1.4,.4c-.4,.1,-.8,.2,-1.2,.2c-.2,0,-.4,0,-.5,-.1c-.2,0,-.4,0,-.5,0l2,2.5c1.2,.1,2.2,.4,3.2,1c.5,.3,1,.6,1.4,1c.4,.4,.7,.9,1,1.3c0,.1,.1,.3,.2,.5c.1,.2,.2,.5,.3,.8c.1,.2,.2,.3,.3,.5c.1,.2,.3,.4,.4,.5V135.2h1.9L333.4,134Zm5.8,1.2L338,134h-1.1c-.3,-.4,-.6,-1,-.7,-1.9l-.5,-.3c0,.2,0,.5,.1,.9c0,.3,0,.7,0,1.2c.1,.5,.1,.9,.1,1.3c0,.3,0,.6,0,.9c-.2,-.8,-.5,-1.3,-.9,-1.6c-.4,-.3,-1,-.5,-1.7,-.5h-1.4l1.2,1.2c.3,0,.7,.1,1,.2c.3,.1,.6,.3,.9,.5c.2,.2,.4,.4,.5,.7c.2,.3,.3,.7,.3,1v8.9l1.1,1.2V135.2h2.3Zm18.8,13c-1.1,-1,-2.1,-1.8,-3,-2.5c-.9,-.7,-1.7,-1.3,-2.4,-1.7c2.3,-.7,3.4,-2,3.4,-4c0,-1.1,-.5,-2,-1.4,-2.9c-.6,-.6,-1.6,-1.2,-2.8,-1.9c-.1,-.8,-.5,-1.3,-1.4,-1.3c-.3,0,-.7,.2,-.9,.5c-.3,.2,-.4,.6,-.4,.9c0,.5,.5,1.1,1.5,1.6c.5,.2,1,.5,1.4,.7c.5,.3,1,.5,1.4,.8c1.1,.7,1.6,1.4,1.6,2.2c0,.5,-.3,.9,-.9,1.2c-.6,.3,-1.1,.5,-1.7,.5c-.4,0,-.8,-.1,-1.3,-.2c-.5,-.1,-1,-.3,-1.5,-.6c-1.2,-.4,-2,-.9,-2.3,-1.4l1.2,3.9c.9,.2,1.7,.5,2.7,.8c.9,.4,1.8,.8,2.6,1.4c.8,.5,1.6,1,2.4,1.6c.7,.6,1.4,1.2,2,1.9l-.2,-1.5Z" class="gm_38"/>
<path d="M32.1,45.1H9.2m958.3,0h22.9M32.1,1331.3H9.2m958.3,0h22.9M45.1,32.1V9.2m0,1335.1v22.9M954.5,32.1V9.2m0,1335.1v22.9" class="gn_38"/>
<path d="M32.1,45.1H9.2m958.3,0h22.9M32.1,1331.3H9.2m958.3,0h22.9M45.1,32.1V9.2m0,1335.1v22.9M954.5,32.1V9.2m0,1335.1v22.9" class="go_38"/>
<path d="M27.5,32.1H0m972.1,0h27.5M27.5,1344.3H0m972.1,0h27.5M32.1,27.5V0m0,1348.9v27.5M967.5,27.5V0m0,1348.9v27.5" class="gn_38"/>
<path d="M27.5,32.1H0m972.1,0h27.5M27.5,1344.3H0m972.1,0h27.5M32.1,27.5V0m0,1348.9v27.5M967.5,27.5V0m0,1348.9v27.5" class="go_38"/>
</svg>