<?xml version="1.0" encoding="UTF-8" standalone="no"?>
<!DOCTYPE svg PUBLIC "-//W3C//DTD SVG 1.1//EN"
"http://www.w3.org/Graphics/SVG/1.1/DTD/svg11.dtd">
<svg viewBox="0 0 999 1376" version="1.1" xmlns="http://www.w3.org/2000/svg" xmlns:xlink="http://www.w3.org/1999/xlink">
<defs>
<clipPath id="c0_354"><path d="M32.1,1344.3V32.1H967.5V1344.3Z"/></clipPath>
<clipPath id="c1_354"><path d="M689.8,845.3V600.5H927.4V845.3Z"/></clipPath>
<clipPath id="c2_354"><path d="M685.3,843.8V599H937.2V843.8Z"/></clipPath>
<clipPath id="c3_354"><path d="M685,843.5V598.7H936.9V843.5Z"/></clipPath>
<clipPath id="c4_354"><path d="M176.6,524.5l-6.5,-2.1l-16.4,-14V451.3h72v73.2Z"/></clipPath>
<clipPath id="c5_354"><path d="M176.6,1125.9l-6.5,-2.1l-16.4,-14v-57.1h72v73.2Z"/></clipPath>
<clipPath id="c6_354"><path d="M815.7,625.3c-.2,-.1,3.6,-8.2,3.6,-8.2l.8,.5c0,0,-4.1,7.7,-4.4,7.7Z"/></clipPath>
<clipPath id="c7_354"><path d="M823.2,617.6c0,0,-6.8,-1.1,-7.6,-5.2c-.6,-3.7,1.6,-3.9,2.1,-3.9q.1,0,.1,0l8.4,-12.7l-1.5,-3.1c0,0,-.6,-1.1,.1,-2.1c.1,0,.2,-.1,.4,-.1c2.1,0,12.9,5.6,12.9,5.6l.1,.1c-.4,.5,-.8,1.2,-1.4,1.7c-.7,.5,-5.1,1.1,-5.1,1.1l-8.5,18.6Z"/></clipPath>
<clipPath id="c8_354"><path d="M822.8,617.2c.2,-.4,.2,-1.8,0,-2.2v-1.4c-1.5,-.5,-2.9,-1.3,-3.6,-2.5c-1.1,.6,-2.2,1.2,-3.2,1.8c1.6,2.2,3.9,3.6,6.8,4.3Zm0,-3.9c2.2,-4.5,4,-9.5,6.2,-14c-.9,-.4,-1.9,-1.4,-2.7,-1.4c-2.3,4.3,-4.6,8.6,-7,12.8c.7,1.3,2.1,2,3.5,2.6Zm-7.3,12.1c1.1,-2.9,2.4,-5.5,3.5,-8.3c-1.9,-1.5,-3.9,-3.1,-4.4,-6.2v-1.5c0,-2.7,2,-3.4,4.6,-3.4c.1,0,.2,0,.2,0c2,-3.3,4.2,-6.3,6.2,-9.6c-.6,-.9,-1.2,-2.4,-.9,-3.7c.5,1.3,1.6,1.9,2.4,2.9c-.1,.6,-.3,1.1,-.4,1.8c.6,.6,1.3,1.1,2.4,1.3c.5,-.4,.5,-1.2,1.1,-1.5c1,.4,1.9,.8,3.2,.8c.1,.1,.4,.1,.8,.1c.3,0,.7,0,.8,-.1c.1,0,.2,0,.3,0c.2,0,.4,0,.6,-.1c.2,-.1,.4,-.1,.5,-.1c.2,0,.3,0,.4,.1c-1.4,.6,-2.2,1.7,-4.2,1.7c-.1,0,-.2,0,-.4,0c-.8,3.8,-1.8,7.4,-2.6,11.2c.5,1.1,1.5,1.7,1.3,3.2c-.5,2.7,-3.9,4.3,-7.2,4.3c-1.3,0,-2.6,-.2,-3.6,-.7c-1.1,2.1,-2.1,4.1,-3.3,6c-.1,-.3,.3,-.4,.2,-.7c1,-1.8,2,-3.6,2.7,-5.7c-1.1,1.7,-1.9,3.7,-2.8,5.6c-.2,.4,-.4,.8,-.6,1.2c-.3,.4,-.3,1.1,-.8,1.4Z"/></clipPath>
<clipPath id="c9_354"><path d="M833.3,597.6c-4.8,0,-13.1,-7.3,-5.6,-8.8H829c.2,.1,.4,.1,.7,.1c0,0,.1,0,.2,0c.2,0,.5,0,.8,0c3.1,.7,8.3,3.8,7.6,7.1c-.3,1.1,-1.6,1.6,-3.2,1.6h-1.7q-.1,0,-.1,0Z"/></clipPath>
<clipPath id="ca_354"><path d="M63.7,995.6V728.8H276.5V995.6Z"/></clipPath>
<clipPath id="cb_354"><path d="M66.6,997.6V730.3H278.9V997.6Z"/></clipPath>
<clipPath id="cc_354"><path d="M66.2,997.3V730H278V997.3Z"/></clipPath>
<clipPath id="cd_354"><path d="M167.4,747.4c-.3,-.1,3.6,-8.2,3.6,-8.2l.7,.5c0,0,-4,7.7,-4.3,7.7Z"/></clipPath>
<clipPath id="ce_354"><path d="M174.9,739.7c0,0,-6.8,-1.1,-7.6,-5.2c-.6,-3.7,1.6,-3.9,2.1,-3.9q.1,0,.1,0l8.4,-12.7l-1.5,-3.1c0,0,-.6,-1.1,.1,-2.1c.1,0,.2,-.1,.3,-.1c2.1,0,13,5.6,13,5.6l.1,.1c-.4,.5,-.8,1.2,-1.4,1.7c-.7,.5,-5.1,1.1,-5.1,1.1l-8.5,18.6Z"/></clipPath>
<clipPath id="cf_354"><path d="M174.5,739.3c.2,-.4,.2,-1.8,0,-2.2v-1.4c-1.5,-.5,-2.9,-1.3,-3.6,-2.5c-1.1,.6,-2.2,1.2,-3.2,1.9c1.6,2.1,3.8,3.5,6.8,4.2Zm0,-3.9c2.2,-4.5,4,-9.5,6.2,-14C179.8,721,178.8,720,178,720c-2.3,4.3,-4.6,8.6,-7,12.8c.7,1.3,2.1,2,3.5,2.6Zm-7.3,12.1c1.1,-2.9,2.4,-5.5,3.5,-8.3c-1.9,-1.5,-3.9,-3.1,-4.4,-6.2v-1.5c0,-2.7,2,-3.4,4.6,-3.4c.1,0,.2,0,.2,0c2,-3.3,4.2,-6.3,6.2,-9.6c-.6,-.9,-1.2,-2.4,-.9,-3.7c.5,1.3,1.6,1.9,2.4,2.9c-.1,.6,-.3,1.1,-.4,1.8c.6,.6,1.3,1.1,2.4,1.4c.4,-.5,.5,-1.3,1.1,-1.6c1,.4,1.9,.8,3.2,.8c.1,.1,.4,.2,.8,.2c.3,0,.7,-.1,.8,-.2c.1,0,.2,0,.3,0c.2,0,.4,0,.6,-.1c.2,-.1,.4,-.1,.5,-.1c.1,0,.3,0,.4,.1c-1.4,.6,-2.2,1.7,-4.2,1.7c-.1,0,-.2,0,-.4,0c-.8,3.8,-1.8,7.4,-2.6,11.2c.5,1.1,1.5,1.7,1.2,3.2c-.4,2.7,-3.8,4.3,-7.2,4.3c-1.2,0,-2.5,-.2,-3.6,-.7c-1,2.1,-2,4.1,-3.2,6c-.1,-.3,.3,-.4,.2,-.7c1,-1.8,2,-3.6,2.7,-5.7c-1.1,1.7,-1.9,3.7,-2.8,5.6c-.2,.4,-.4,.8,-.6,1.2c-.3,.4,-.3,1.1,-.8,1.4Z"/></clipPath>
<clipPath id="cg_354"><path d="M184.9,719.7c-4.7,0,-13,-7.3,-5.5,-8.8h1.3c.1,.1,.3,.1,.5,.1q.1,0,.2,0c0,0,.1,0,.1,0c.3,0,.6,0,.9,0c3.1,.7,8.2,3.8,7.6,7.1c-.3,1.1,-1.6,1.6,-3.2,1.6h-1.7q-.1,0,-.2,0Z"/></clipPath>
<clipPath id="ch_354"><path d="M125.5,386.7V205.8H858.6V386.7Z"/></clipPath>
<clipPath id="ci_354"><path d="M764.8,421.9V409.5h14.5v12.4Z"/></clipPath>
<style type="text/css"><![CDATA[
.g0_354{
fill: #FEFCF4;
}
.g1_354{
fill: #FFF;
}
.g2_354{
fill: none;
stroke: #6381B7;
stroke-width: 0.763;
}
.g3_354{
fill: #6381B7;
}
.g4_354{
fill: none;
stroke: #6381B7;
stroke-width: 0.381;
stroke-dasharray: 2,1;
}
.g5_354{
fill: none;
stroke: #6381B7;
stroke-width: 0.381;
}
.g6_354{
fill: #F7C2D9;
}
.g7_354{
fill: #FEF6F5;
}
.g8_354{
fill: #EC008C;
}
.g9_354{
fill: none;
stroke: #818385;
stroke-width: 0.305;
stroke-dasharray: 4,4;
}
.ga_354{
fill: none;
stroke: #818385;
stroke-width: 0.305;
}
.gb_354{
fill: none;
stroke: #949698;
stroke-width: 0.305;
stroke-dasharray: 4,4;
}
.gc_354{
fill: #6D6F71;
}
.gd_354{
fill: #FCE8B0;
}
.ge_354{
fill: none;
stroke: #818385;
stroke-width: 0.305;
stroke-dasharray: 3,3;
}
.gf_354{
fill: none;
stroke: #949698;
stroke-width: 0.305;
stroke-dasharray: 3,3;
}
.gg_354{
fill: none;
stroke: #949698;
stroke-width: 0.305;
}
.gh_354{
fill: #2E6E51;
}
.gi_354{
fill: none;
stroke: #FFF;
stroke-width: 0.152;
stroke-miterlimit: 1;
}
.gj_354{
fill: #BCBEC0;
}
.gk_354{
fill: #EE314A;
}
.gl_354{
fill: #CEEDFB;
}
.gm_354{
fill: #27639D;
}
.gn_354{
fill: #231F20;
}
.go_354{
fill: none;
stroke: #204A78;
stroke-width: 1.527;
}
.gp_354{
fill: #25408F;
}
.gq_354{
fill: #A8AAAD;
}
.gr_354{
fill: none;
stroke: #949698;
stroke-width: 0.549;
}
.gs_354{
fill: none;
stroke: #BCBEC0;
stroke-width: 2.566;
}
.gt_354{
fill: #363637;
}
.gu_354{
fill: #5CC4BE;
}
.gv_354{
fill: #EAD646;
}
.gw_354{
fill: none;
stroke: #FFF;
stroke-width: 1.909;
stroke-miterlimit: 10;
}
.gx_354{
fill: none;
stroke: #000;
stroke-width: 0.381;
stroke-miterlimit: 10;
}
]]></style>
</defs>
<path d="M32.1,1344.3H954.5V32.1H32.1V1344.3Z" class="g0_354"/>
<path clip-path="url(#c0_354)" d="M954.5,1344.3H1877V32.1H954.5V1344.3Z" class="g0_354"/>
<path d="M150.4,427.5c0,0,-18.3,0,-18.3,18.3v568.9c0,0,0,18.3,18.3,18.3H827.5c0,0,18.4,0,18.4,-18.3V427.5Z" class="g1_354"/>
<path d="M150.4,427.5c0,0,-18.3,0,-18.3,18.3v568.9c0,0,0,18.3,18.3,18.3H827.5c0,0,18.4,0,18.4,-18.3V427.5H150.4Z" class="g2_354"/>
<path d="M145.1,1039.6c0,0,-13,0,-13,12.9v137.6c0,0,0,13,13,13H832.9c0,0,13,0,13,-13V1052.5c0,0,0,-12.9,-13,-12.9Z" class="g1_354"/>
<path d="M145.1,1039.6c0,0,-13,0,-13,12.9v137.6c0,0,0,13,13,13H832.9c0,0,13,0,13,-13V1052.5c0,0,0,-12.9,-13,-12.9H145.1Z" class="g2_354"/>
<path d="M400.6,1217.9c0,0,-4.4,0,-4.4,4.3v10.9c0,0,0,4.3,4.4,4.3h30.3c0,0,4.3,0,4.3,-4.3v-10.9c0,0,0,-4.3,-4.3,-4.3Z" class="g3_354"/>
<path d="M387.4,1209.1v37.5m1.3,1H845.1m1,-1.3v-37.6m-1.4,-1H388.3" class="g4_354"/>
<path d="M387.4,1247v.6h.6m457.5,0h.6v-.6m0,-38.7v-.6h-.6m-457.5,0h-.6v.6" class="g5_354"/>
<image clip-path="url(#c1_354)" preserveAspectRatio="none" x="689" y="601" width="238" height="244" xlink:href="img/1.png"/>
<path d="M695,608.2l1.4,230.5l224.7,-2.3l-.8,-230.6Z" class="g6_354"/>
<image clip-path="url(#c2_354)" preserveAspectRatio="none" x="685" y="599" width="252" height="245" xlink:href="img/2.png"/>
<image clip-path="url(#c3_354)" preserveAspectRatio="none" x="684" y="599" width="253" height="245" xlink:href="img/3.png"/>
<path d="M701.5,603.5L689.8,830l185.1,7.4l45,-26.2L930.8,615.4Z" class="g7_354"/>
<path d="M874.9,837.4l45,-26.1l-22.1,-7.9Z" class="g8_354"/>
<path d="M451.5,565.5c9.3,-1.1,16.7,-5.4,18.6,-11m-.6,-7.4C466.8,541.9,459.2,538,450,537.3m-7.6,.1c-9.3,1.1,-16.6,5.5,-18.6,11.1m.6,7.3c2.8,5.3,10.3,9.2,19.5,9.9" class="g9_354"/>
<path d="M470.5,553c.1,-.5,.1,-1,.1,-1.5c0,-.5,0,-1,-.1,-1.5m-22,-12.8c-.5,0,-1,0,-1.5,0c-.5,0,-1,0,-1.5,0M423.4,550c-.1,.5,-.1,1,-.1,1.5c0,.5,0,1,.1,1.5m22.1,12.8c.5,0,1,0,1.5,0c.5,0,1,0,1.5,0" class="ga_354"/>
<path d="M447.3,565.3c0,0,74.4,44.9,250.2,64.8" class="gb_354"/>
<path d="M694.1,632.9l.2,-8.8l11.2,4.8Z" class="gc_354"/>
<path d="M209.2,453.5c0,0,-13,0,-13,13v47.6c0,0,0,13,13,13h602c0,0,13,0,13,-13V466.5c0,0,0,-13,-13,-13Z" class="gd_354"/>
<image clip-path="url(#c4_354)" preserveAspectRatio="none" x="152" y="450" width="75" height="76" xlink:href="img/4.png"/>
<path d="M204,519.8c0,0,-26.8,11.3,-51.1,-12.8c0,0,15.2,25.3,49.3,24c0,0,24.8,.3,20.3,-10.1c0,0,1.2,-4.5,-18.5,-1.1Z" class="gd_354"/>
<path d="M209.2,1080.9c0,0,-13,0,-13,13v21.6c0,0,0,13,13,13h602c0,0,13,0,13,-13v-21.6c0,0,0,-13,-13,-13Z" class="gd_354"/>
<image clip-path="url(#c5_354)" preserveAspectRatio="none" x="152" y="1051" width="75" height="76" xlink:href="img/5.png"/>
<path d="M204,1121.2c0,0,-26.8,11.3,-51.1,-12.8c0,0,15.2,25.3,49.3,24c0,0,24.8,.3,20.3,-10.1c0,0,1.2,-4.5,-18.5,-1.1Z" class="gd_354"/>
<image clip-path="url(#c6_354)" x="815" y="617" width="6" height="9" xlink:href="shade/1.png"/>
<image clip-path="url(#c7_354)" x="814" y="590" width="25" height="28" xlink:href="shade/2.png"/>
<image clip-path="url(#c8_354)" x="814" y="592" width="23" height="34" xlink:href="shade/3.png"/>
<image clip-path="url(#c9_354)" x="820" y="588" width="19" height="10" xlink:href="shade/4.png"/>
<image clip-path="url(#ca_354)" preserveAspectRatio="none" x="63" y="729" width="213" height="267" xlink:href="img/6.png"/>
<path d="M74.4,733.7L68.9,984.2l196.4,5.1l4.8,-250Z" class="g6_354"/>
<image clip-path="url(#cb_354)" preserveAspectRatio="none" x="66" y="731" width="213" height="267" xlink:href="img/7.png"/>
<image clip-path="url(#cc_354)" preserveAspectRatio="none" x="66" y="730" width="211" height="267" xlink:href="img/8.png"/>
<path d="M71.5,739l5.2,252.3l162.1,-4.1l32.8,-25.6L266.7,735.3Z" class="g7_354"/>
<path d="M240.5,987.1l32.8,-25.3l-15.9,-8.2Z" class="g8_354"/>
<path d="M441.8,864.4c8.5,-1.3,15.2,-6.4,16.7,-12.9m-.4,-7.3c-2.3,-6.1,-9.2,-10.7,-17.7,-11.6m-7.5,.2c-8.4,1.3,-15.1,6.4,-16.7,12.8m.5,7.3c2.3,6.2,9.2,10.8,17.7,11.7" class="ge_354"/>
<path d="M458.8,850.1c.1,-.5,.1,-1,.1,-1.5c0,-.5,0,-1,-.1,-1.5M438.9,832.5c-.5,-.1,-1,-.1,-1.5,-.1c-.5,0,-1,0,-1.5,.1M416,847.1c-.1,.5,-.1,1,-.1,1.5c0,.5,0,1,.1,1.5m19.9,14.6c.5,0,1,0,1.5,0c.5,0,1,0,1.5,0" class="ga_354"/>
<path d="M439.2,828.5C432.4,812,404.5,755.3,346.1,763.1" class="gb_354"/>
<path d="M339.7,765.8c-2.1,3.8,.2,10.7,7.6,9m4.4,-4.7c-.1,-5.2,-5.2,-13.9,-13.6,-15.8" class="gf_354"/>
<path d="M330.4,753.8c-12.4,-.4,-29.8,-1.4,-67.5,7.3" class="gb_354"/>
<path d="M440.8,832.8c0,0,-.1,-.5,-.5,-1.4M344.5,763.3c-.5,.1,-1,.1,-1.5,.2c-.5,.1,-.9,.2,-1.3,.4m6.9,10.5c.4,-.1,.9,-.3,1.3,-.5c.5,-.2,.8,-.5,1.1,-.9M336.7,754.1c-.5,-.1,-1,-.1,-1.5,-.1c-.5,0,-1.1,0,-1.6,0m-72.2,7.4c-.5,.1,-1.1,.3,-1.6,.4" class="gg_354"/>
<path d="M264.6,766l-3.7,-8l-8.4,8.8Z" class="gc_354"/>
<image clip-path="url(#cd_354)" x="167" y="739" width="5" height="9" xlink:href="shade/5.png"/>
<image clip-path="url(#ce_354)" x="166" y="712" width="24" height="28" xlink:href="shade/6.png"/>
<image clip-path="url(#cf_354)" x="166" y="714" width="23" height="34" xlink:href="shade/7.png"/>
<image clip-path="url(#cg_354)" x="171" y="710" width="20" height="10" xlink:href="shade/8.png"/>
<path d="M32.1,179.3H967.5V32.1H32.1V179.3Z" class="gh_354"/>
<path d="M254.5,134c-.5,0,-1,.2,-1.5,.4c-.5,.3,-.9,.5,-1.3,.8c-.8,.8,-1.4,1.8,-1.8,2.8c-.4,1,-.7,2.1,-.7,3.3c0,1.5,.3,2.8,.9,3.9c.8,1.4,1.8,2.1,3.2,2.1c.3,0,.6,0,.9,-.1c.2,-.1,.5,-.2,.7,-.4c.2,-.2,.3,-.4,.4,-.7c.1,-.2,.2,-.5,.2,-.8c0,-.4,-.1,-.9,-.4,-1.2c-.3,-.3,-.7,-.5,-1,-.5c-.2,0,-.4,.1,-.6,.1c-.2,.1,-.3,.2,-.5,.3c-.1,.2,-.2,.3,-.3,.4c-.1,.2,-.1,.4,-.1,.6c0,.2,0,.4,.2,.7c.1,.2,.3,.4,.5,.6c0,0,-.1,.1,-.2,.1H253c-.8,0,-1.4,-.5,-1.9,-1.4c-.5,-.7,-.7,-1.5,-.7,-2.3c0,-1,.1,-1.9,.3,-2.7c.2,-.7,.6,-1.4,1,-2.1c.4,-.7,1,-1.3,1.6,-1.7c.7,-.5,1.5,-.8,2.4,-1L254.5,134Zm13.6,1.2L267,134H254.1c.3,.4,.7,.7,.9,.9c.2,.2,.4,.4,.5,.5c.3,.2,.6,.4,.9,.6c.3,.1,.6,.2,.9,.3c.5,.1,.9,.2,1.3,.3c.3,.1,.6,.2,.8,.4c.2,.2,.4,.4,.5,.7c.1,.4,.2,.8,.3,1.4c-.4,.5,-.7,.9,-1,1.3c-.3,.3,-.5,.5,-.6,.7c-.2,.2,-.3,.3,-.4,.4c-.1,0,-.2,0,-.3,0c-.2,0,-.3,0,-.5,-.1c-.1,-.1,-.2,-.3,-.3,-.4c-.1,-.2,-.2,-.4,-.3,-.6c0,-.2,-.1,-.3,-.1,-.5l-.8,.8c.1,.2,.3,.5,.5,.8c.1,.3,.3,.6,.6,.9c.2,.3,.4,.5,.7,.7c.3,.1,.7,.2,1,.2c.2,0,.3,0,.5,-.1c.1,0,.3,-.1,.5,-.3c.2,-.2,.5,-.5,.8,-.9c.2,-.4,.6,-.9,1,-1.6c.4,-.6,.9,-1,1.3,-1.1c.4,0,.8,.1,1.1,.4c.3,.4,.5,.9,.7,1.6c.2,.7,.3,1.6,.3,2.5v.4c0,.1,0,.3,0,.5c0,.1,-.1,.4,-.1,.7c0,.3,0,.6,0,1.1c.2,.2,.4,.4,.6,.6c.1,.3,.3,.5,.5,.7V135.2h2.2Zm-3.3,4.1c-.4,-.4,-.7,-.8,-1,-1.1c-.3,-.4,-.6,-.6,-.9,-.7c-.3,-.1,-.6,-.1,-.9,.1c-.4,.1,-.7,.4,-1.1,.8c0,-.6,-.2,-1.1,-.4,-1.6c-.3,-.5,-.7,-1,-1.4,-1.6h5.7v4.1ZM278.7,134c-.5,-.1,-.8,-.2,-1,-.6c0,-.1,0,-.2,-.1,-.5c0,-.2,0,-.5,0,-.7l-.7,-.4v12.3c-.8,-1.4,-2.1,-2.5,-3.8,-3.4c.7,-.2,1.4,-.6,1.9,-1.2c.6,-.6,.9,-1.3,.9,-2c0,-.7,-.3,-1.3,-.9,-1.9c-.1,-.1,-.2,-.2,-.5,-.5c-.3,-.3,-.7,-.6,-1.1,-1c-.3,.3,-.6,.5,-.8,.8c-.2,.2,-.4,.3,-.4,.4c-.2,.2,-.5,.3,-.7,.5c-.3,.1,-.5,.2,-.8,.2c0,-.7,-.4,-1.1,-1.1,-1.1c-.4,0,-.7,.2,-.9,.4c-.3,.3,-.4,.6,-.4,.9c0,.5,.2,.9,.5,1.2c.4,.3,.8,.5,1.3,.5c1.3,0,2.6,-.7,3.9,-2c.4,.4,.6,.8,.6,1.3c0,.4,-.1,.7,-.4,1c-.3,.2,-.8,.5,-1.3,.8c-.5,.2,-.9,.3,-1.4,.4c-.4,.1,-.9,.2,-1.3,.2c-.1,0,-.3,0,-.5,-.1c-.1,0,-.3,0,-.4,0l2,2.5c1.1,.1,2.2,.4,3.2,1h-.1c.6,.3,1,.6,1.4,1c.4,.4,.8,.9,1.1,1.3c0,.1,.1,.3,.2,.5c0,.2,.1,.5,.3,.8c0,.2,.1,.3,.3,.5c.1,.2,.2,.4,.4,.5V135.2H280L278.7,134Zm5.8,1.2L283.4,134h-1.1c-.4,-.4,-.6,-1,-.8,-1.9l-.4,-.3c0,.2,0,.5,0,.9c0,.3,.1,.7,.1,1.2c0,.5,.1,.9,.1,1.3c0,.3,0,.6,0,.9c-.2,-.8,-.6,-1.3,-1,-1.6c-.4,-.3,-.9,-.5,-1.7,-.5h-1.3l1.2,1.2c.3,0,.7,.1,1,.2c.3,.1,.6,.3,.8,.5c.3,.2,.5,.4,.6,.7c.2,.3,.2,.7,.2,1v8.9l1.2,1.2V135.2h2.2Zm6,-1.2h-8l1.2,1.2h4c-1.7,2,-2.5,4,-2.5,6.1c0,1.5,.3,2.8,.9,3.9c.8,1.4,1.8,2.1,3.2,2.1c.3,0,.6,0,.8,-.1c.3,-.1,.5,-.2,.7,-.4c.2,-.2,.4,-.4,.5,-.7c.1,-.2,.2,-.5,.2,-.8c0,-.4,-.2,-.9,-.4,-1.2c-.3,-.3,-.7,-.5,-1.1,-.5c-.3,0,-.7,.2,-1,.4c-.3,.3,-.5,.6,-.5,1c0,.2,.1,.4,.2,.7c.2,.2,.4,.4,.6,.6c-.7,.2,-1.5,-.2,-2.2,-1.3c-.5,-.7,-.7,-1.5,-.7,-2.3c0,-1,.1,-1.9,.3,-2.7c.2,-.7,.5,-1.4,1,-2.1c.4,-.7,1,-1.3,1.6,-1.7c.7,-.5,1.5,-.8,2.4,-1L290.5,134Zm12.1,1.2L301.4,134H289.7l1.2,1.2h8.5v6.6h-.1c-1.3,-2.6,-2.8,-4,-4.4,-4c-.8,0,-1.5,.3,-2.1,.9c-.6,.5,-.9,1.2,-.9,2c0,1.5,.8,2.2,2.3,2.2c.5,0,.9,-.2,1.2,-.5c.3,-.4,.5,-.8,.5,-1.3c0,-.3,-.3,-.8,-.8,-1.5c0,-.1,.2,-.1,.3,-.1c1.3,0,2.4,.8,3.4,2.5c.6,1.4,.9,2.9,.9,4.2l-.1,1.3l1,.6V135.2h2ZM321.1,134h-.9c-.1,-.1,-.2,-.2,-.3,-.3c-.1,-.2,-.1,-.3,-.1,-.4l-.2,-.8l-.6,-.7v13.1c-.2,-.4,-.4,-.7,-.7,-1c-.3,-.4,-.7,-.7,-1.1,-1c-.2,-.2,-.5,-.4,-.9,-.7c-.4,-.2,-.9,-.5,-1.5,-.8c2,-1.2,3,-2.6,3,-4.1c0,-.9,-.3,-1.6,-.9,-2.3c-.6,-.7,-1.4,-1,-2.3,-1c-.9,0,-1.8,.3,-2.7,.8c-.9,.7,-1.4,1.5,-1.4,2.4c0,.5,.1,.9,.4,1.2c.3,.3,.7,.5,1.2,.5c.2,0,.3,0,.5,-.1c.2,-.1,.4,-.2,.5,-.3c.2,-.1,.3,-.2,.4,-.4c.1,-.1,.1,-.3,.1,-.5c0,-.3,-.2,-.7,-.7,-1.2c.2,-.2,.5,-.5,1,-.8c.5,-.2,.9,-.4,1.2,-.4c.4,0,.8,.2,1.1,.5c.3,.3,.4,.6,.4,1.1c0,.4,-.1,.8,-.4,1.2c-.3,.4,-.8,.8,-1.4,1.2c-.5,.3,-1.1,.6,-1.6,.7c-.5,.2,-.9,.3,-1.2,.3c-.3,0,-.6,0,-.9,0l1.9,2.5c.7,0,1.5,.1,2.3,.4c.8,.2,1.4,.6,2,1.1c.2,.2,.6,.6,1.1,1.2c.5,.6,1.1,1.4,1.8,2.4V135.2h2.1L321.1,134Zm6.1,1.2L326,134h-6l1.2,1.2h3.5c-1.4,1.2,-2,2.6,-1.9,4.2c0,.5,.2,1.4,.5,2.4c.1,.5,.2,1,.3,1.4c.1,.4,.1,.8,.1,1c0,.9,-.1,1.6,-.5,2c-.2,.3,-.5,.6,-.9,.8c-.4,.2,-.8,.4,-1.2,.5l.7,.5c.4,-.1,.9,-.3,1.3,-.5c.4,-.2,.7,-.5,1.1,-.8c.3,-.4,.6,-.8,.8,-1.3c.2,-.4,.3,-.9,.3,-1.3c0,-.4,0,-.8,-.1,-1.4c-.1,-.5,-.2,-1.2,-.3,-1.9c-.2,-1.1,-.3,-2.2,-.3,-3.3c.1,-1.5,.7,-2.3,1.8,-2.3h.8Zm4.1,0L330.1,134H329c-.3,-.4,-.6,-1,-.7,-1.9l-.4,-.3c0,.2,0,.5,0,.9c0,.3,0,.7,0,1.2c.1,.5,.1,.9,.1,1.3c0,.3,.1,.6,.1,.9c-.3,-.8,-.6,-1.3,-1,-1.6c-.4,-.3,-1,-.5,-1.7,-.5H324l1.2,1.2c.4,0,.7,.1,1,.2c.3,.1,.6,.3,.9,.5c.2,.2,.4,.4,.6,.7c.1,.3,.2,.7,.2,1v8.9l1.1,1.2V135.2h2.3Zm14.4,0L344.4,134H329.3l1.2,1.2h7.8v1c-2.6,.8,-4.9,2.1,-7,3.7L333,142c1.4,.1,2.6,.7,3.7,1.8c.4,.5,.9,1,1.3,1.6c.4,.7,.7,1.3,1,2c0,.1,.1,.1,.2,.2c0,0,.1,.1,.2,.1v-10c1.2,0,2.2,.3,2.8,1c.6,.7,1,1.4,1,2.2l-.1,.3c-.2,-.2,-.4,-.3,-.6,-.4c-.1,-.2,-.4,-.2,-.6,-.2c-.4,0,-.7,.1,-1,.4c-.3,.2,-.4,.5,-.4,.9c0,.2,0,.4,.1,.6c.1,.2,.2,.3,.4,.5c.1,.1,.3,.2,.5,.3c.2,.1,.4,.1,.6,.1c.3,0,.5,-.1,.8,-.2c.2,-.1,.4,-.3,.6,-.5c.1,-.2,.3,-.4,.4,-.7c.1,-.3,.1,-.5,.1,-.8c0,-1.3,-.4,-2.4,-1.2,-3.4c-.8,-1.2,-2,-1.7,-3.4,-1.7v-.9h6.3Zm-7.5,9.1c-1,-1.8,-2.5,-3.1,-4.5,-4c.9,-.5,1.6,-1,2.4,-1.4c.7,-.4,1.4,-.8,2.1,-1.1v6.5Zm4,7c-.1,-.2,-.2,-.4,-.3,-.5c-.1,-.2,-.3,-.4,-.5,-.7c-.3,-.3,-.6,-.7,-1,-1c-.3,-.3,-.6,-.6,-.9,-.9c0,-.3,0,-.7,0,-1.2c-.1,-.5,-.1,-.9,-.3,-1.2l-1,-.7c.1,.6,.2,1,.2,1.5c0,.4,0,.7,-.1,.9c-.8,-.4,-1.3,-.6,-1.8,-.6c-.3,0,-.6,.1,-.8,.2c-.3,0,-.5,.2,-.7,.3c-.2,.2,-.4,.4,-.5,.7c-.1,.2,-.2,.5,-.2,.7c0,.6,.3,1,.7,1.4c.5,.3,1,.5,1.6,.5c1,-.1,1.8,-.6,2.5,-1.5c.2,.2,.5,.4,.8,.6c.2,.2,.5,.4,.8,.7c.3,.3,.5,.6,.8,.9c.2,.2,.5,.5,.7,.8v-.9Zm-4.8,-3.1c.1,.1,.3,.2,.5,.4c-.2,.2,-.4,.4,-.7,.6c-.4,.2,-.7,.3,-1.1,.2c-.4,0,-.6,-.3,-.6,-.6c.1,-.5,.5,-.7,1.3,-.8c.2,.1,.4,.1,.6,.2Zm19.2,-13L355.3,134H344.2c.6,1,1.7,1.7,3.3,2.2c.7,.2,1.3,.4,1.7,.6c.4,.2,.7,.4,.8,.6c-.5,.4,-1.1,.8,-1.7,1.4c-.6,.5,-1.3,1.1,-1.9,1.7l1.6,2.1c1.5,.1,2.6,.5,3.6,1.2c.5,.5,1.1,1.2,1.7,2.3c.6,1,1,1.6,1.3,1.8V135.2h2Zm-3.2,9.5c-1,-1.7,-2.5,-2.9,-4.5,-3.6c.5,-.5,1,-1.1,1.5,-1.6c.5,-.5,1,-.9,1.4,-1.4c-.6,-.7,-1.1,-1.3,-1.6,-1.8c-.5,-.5,-1,-.9,-1.4,-1.1h4.6v9.5Zm-4.6,2c.2,.2,.5,.3,.9,.3c.3,0,.6,-.1,.8,-.3c.3,-.3,.4,-.6,.4,-.9c0,-.3,-.1,-.6,-.4,-.9c-.2,-.2,-.5,-.3,-.8,-.3c-.4,0,-.7,.1,-.9,.3c-.2,.3,-.4,.6,-.4,.9c0,.3,.2,.6,.4,.9ZM368,135.2L366.8,134H355.1l1.2,1.2h8.4v6.6c-1.3,-2.6,-2.8,-4,-4.5,-4c-.8,0,-1.5,.3,-2.1,.9c-.5,.5,-.8,1.2,-.8,2c0,1.5,.7,2.2,2.3,2.2c.5,0,.9,-.2,1.2,-.5c.3,-.4,.4,-.8,.4,-1.3c0,-.3,-.2,-.8,-.8,-1.5c.1,-.1,.2,-.1,.4,-.1c1.3,0,2.4,.8,3.3,2.5c.7,1.4,1,2.9,1,4.2l-.1,1.3l.9,.6V135.2H368Zm6.1,-1.2h-7.9l1.2,1.2h4c-1.7,2,-2.6,4,-2.6,6.1c0,1.5,.3,2.8,1,3.9c.7,1.4,1.8,2.1,3.2,2.1c.3,0,.5,0,.8,-.1c.3,-.1,.5,-.2,.7,-.4c.2,-.2,.3,-.4,.5,-.7c.1,-.2,.1,-.5,.1,-.8c0,-.4,-.1,-.9,-.4,-1.2c-.3,-.3,-.6,-.5,-1,-.5c-.4,0,-.7,.2,-1,.4c-.3,.3,-.5,.6,-.5,1c0,.2,.1,.4,.2,.7c.1,.2,.3,.4,.6,.6c-.8,.2,-1.5,-.2,-2.3,-1.3c-.4,-.7,-.6,-1.5,-.7,-2.3c0,-1,.1,-1.9,.4,-2.7c.2,-.7,.5,-1.4,.9,-2.1c.5,-.7,1,-1.3,1.7,-1.7c.6,-.5,1.4,-.8,2.3,-1L374.1,134Zm12.4,1.2L385.3,134H373.5l1.2,1.2H376v7.1l1.6,1.7c.5,-1.1,1.2,-2.1,2.1,-2.9c.9,-.9,1.9,-1.5,2.9,-1.9c-.2,1,-.4,2.1,-.4,3.1c0,.6,.1,1.3,.2,2.2c.1,.8,.3,1.8,.6,3l.8,.4c-.3,-1.6,-.5,-2.8,-.5,-3.7c0,-.9,.2,-1.8,.4,-2.8c.3,-1,.7,-2,1.3,-3l-2,-1.5c-.4,.1,-.8,.3,-1.3,.6c-.5,.2,-1,.5,-1.5,.8c-.5,.4,-1,.7,-1.5,1.2c-.5,.4,-1,.8,-1.4,1.3v-5.6h9.2Zm4.5,0L389.8,134h-1.1c-.3,-.4,-.6,-1,-.7,-1.9l-.5,-.3c0,.2,0,.5,.1,.9c0,.3,0,.7,0,1.2c.1,.5,.1,.9,.1,1.3c0,.3,0,.6,0,.9c-.2,-.8,-.5,-1.3,-.9,-1.6c-.4,-.3,-1,-.5,-1.7,-.5h-1.4l1.2,1.2c.3,0,.7,.1,1,.2c.3,.1,.6,.3,.9,.5c.2,.2,.4,.4,.5,.7c.2,.3,.3,.7,.3,1v8.9l1.1,1.2V135.2H391ZM404.2,134c-.5,0,-1,.2,-1.5,.4c-.5,.3,-.9,.5,-1.3,.8c-.8,.8,-1.4,1.8,-1.8,2.8c-.4,1,-.7,2.1,-.7,3.3c0,1.5,.3,2.8,.9,3.9c.8,1.4,1.8,2.1,3.2,2.1c.3,0,.6,0,.9,-.1c.2,-.1,.5,-.2,.7,-.4c.2,-.2,.3,-.4,.4,-.7c.1,-.2,.2,-.5,.2,-.8c0,-.4,-.1,-.9,-.4,-1.2c-.3,-.3,-.7,-.5,-1.1,-.5c-.1,0,-.3,.1,-.5,.1c-.2,.1,-.3,.2,-.5,.3c-.1,.2,-.2,.3,-.3,.4c-.1,.2,-.1,.4,-.1,.6c0,.2,0,.4,.2,.7c.1,.2,.3,.4,.5,.6c0,0,-.1,.1,-.2,.1h-.1c-.8,0,-1.4,-.5,-1.9,-1.4c-.5,-.7,-.7,-1.5,-.7,-2.3c0,-1,.1,-1.9,.3,-2.7c.2,-.7,.6,-1.4,1,-2.1c.4,-.7,1,-1.3,1.6,-1.7c.7,-.5,1.5,-.8,2.4,-1L404.2,134Zm13.8,1.2L416.8,134c-.7,-.1,-1.1,-.6,-1.2,-1.5l-.7,-.6l.2,5.3H415c-.1,-.5,-.5,-1.2,-1.2,-2c-.7,-.8,-1.3,-1.2,-1.7,-1.2c-1.3,0,-2.3,.8,-3,2.4c-.2,-.7,-.5,-1.2,-1.1,-1.7c-.5,-.5,-1.1,-.7,-1.7,-.7h-2.6l1.2,1.2c.1,0,.6,0,1.4,0c.7,0,1.4,.5,2,1.5c-.3,.1,-.6,.2,-.9,.4c-.2,.2,-.4,.4,-.6,.7c-.2,.2,-.4,.5,-.5,.8c-.1,.2,-.1,.5,-.1,.8c0,.4,.1,.8,.4,1.2c.3,.3,.6,.5,1,.5c1,0,1.6,-.5,2,-1.5c.2,.5,.4,.8,.7,1.1c.4,.2,.8,.4,1.1,.4c.6,-.1,1,-.3,1.2,-.7c.3,-.3,.5,-.7,.5,-1.2c0,-.6,-.7,-1.3,-1.9,-2.2c0,-.3,.1,-.6,.4,-.7c.3,-.2,.6,-.3,.9,-.3c.5,0,1,.3,1.6,1c.5,.8,.8,1.4,.8,1.9l-.1,7.7l1.2,1.2V135.2h2ZM428.6,134c-.5,-.1,-.8,-.2,-1,-.6c0,-.1,0,-.2,0,-.5c-.1,-.2,-.1,-.5,-.1,-.7l-.7,-.4v12.3c-.8,-1.4,-2,-2.5,-3.8,-3.4c.7,-.2,1.4,-.6,1.9,-1.2c.6,-.6,.9,-1.3,.9,-2c0,-.7,-.3,-1.3,-.9,-1.9c0,-.1,-.2,-.2,-.5,-.5c-.3,-.3,-.7,-.6,-1.1,-1c-.3,.3,-.5,.5,-.8,.8c-.2,.2,-.3,.3,-.4,.4c-.2,.2,-.5,.3,-.7,.5c-.3,.1,-.5,.2,-.8,.2c0,-.7,-.4,-1.1,-1.1,-1.1c-.4,0,-.7,.2,-.9,.4c-.3,.3,-.4,.6,-.4,.9c0,.5,.2,.9,.5,1.2c.4,.3,.8,.5,1.3,.5c1.3,0,2.6,-.7,3.9,-2c.4,.4,.6,.8,.6,1.3c0,.4,-.1,.7,-.4,1c-.3,.2,-.8,.5,-1.3,.8c-.5,.2,-.9,.3,-1.4,.4c-.4,.1,-.8,.2,-1.2,.2c-.2,0,-.4,0,-.5,-.1c-.2,0,-.4,0,-.5,0l2,2.5c1.2,.1,2.2,.4,3.2,1h-.1c.6,.3,1,.6,1.4,1c.4,.4,.8,.9,1.1,1.3c0,.1,.1,.3,.2,.5c.1,.2,.2,.5,.3,.8c0,.2,.1,.3,.3,.5c.1,.2,.2,.4,.4,.5V135.2h1.9L428.6,134Zm5.8,1.2L433.3,134h-1.1c-.4,-.4,-.6,-1,-.8,-1.9l-.4,-.3c0,.2,0,.5,0,.9c.1,.3,.1,.7,.1,1.2c0,.5,.1,.9,.1,1.3c0,.3,0,.6,0,.9c-.2,-.8,-.6,-1.3,-.9,-1.6c-.4,-.3,-1,-.5,-1.7,-.5h-1.4l1.2,1.2c.3,0,.7,.1,1,.2c.3,.1,.6,.3,.8,.5c.3,.2,.5,.4,.6,.7c.2,.3,.2,.7,.2,1v8.9l1.2,1.2V135.2h2.2Zm18.5,0L451.6,134h-11c.4,.4,.7,.7,1,.9c.3,.3,.6,.5,.8,.7c.3,.2,.6,.4,1,.5c.3,.2,.7,.4,1.1,.5c.9,.4,1.5,.7,1.9,1c-.7,.4,-1.3,.9,-2,1.4c-.6,.5,-1.2,1.1,-1.7,1.6l1.6,2c1.7,.1,3,.5,3.9,1.2c.5,.4,.9,.9,1.2,1.5c.3,.6,.6,1.1,.8,1.6l.8,.9V135.2h1.9Zm-3.1,9.4c-1.1,-1.7,-2.6,-2.9,-4.6,-3.6c.6,-.5,1.1,-1.1,1.6,-1.6c.5,-.5,.9,-.9,1.4,-1.3c-1.3,-1.5,-2.4,-2.5,-3.2,-2.9h4.8v9.4Zm7.7,-9.4L456.3,134h-1.1c-.3,-.4,-.6,-1,-.7,-1.9l-.5,-.3c0,.2,0,.5,.1,.9c0,.3,0,.7,0,1.2c.1,.5,.1,.9,.1,1.3c0,.3,0,.6,0,.9c-.2,-.8,-.5,-1.3,-.9,-1.6c-.4,-.3,-1,-.5,-1.7,-.5h-1.4l1.2,1.2c.3,0,.7,.1,1,.2c.3,.1,.6,.3,.9,.5c.2,.2,.4,.4,.5,.7c.2,.3,.3,.7,.3,1v8.9l1.1,1.2V135.2h2.3Zm5.9,-1.2h-7.9l1.2,1.2h3.9c-1.7,2,-2.5,4,-2.5,6.1c0,1.5,.3,2.8,.9,3.9c.8,1.4,1.8,2.1,3.2,2.1c.3,0,.6,0,.9,-.1c.2,-.1,.5,-.2,.7,-.4c.2,-.2,.3,-.4,.4,-.7c.2,-.2,.2,-.5,.2,-.8c0,-.4,-.1,-.9,-.4,-1.2c-.3,-.3,-.6,-.5,-1,-.5c-.4,0,-.8,.2,-1.1,.4c-.3,.3,-.4,.6,-.4,1c0,.2,0,.4,.2,.7c.1,.2,.3,.4,.5,.6c-.7,.2,-1.4,-.2,-2.2,-1.3c-.4,-.7,-.7,-1.5,-.7,-2.3c0,-1,.1,-1.9,.3,-2.7c.3,-.7,.6,-1.4,1,-2.1c.4,-.7,1,-1.3,1.6,-1.7c.7,-.5,1.5,-.8,2.4,-1L463.4,134Zm12.2,1.2L474.4,134H462.6l1.1,1.2h8.2v.9c-2.5,.8,-4.9,2.1,-7.3,3.7l1.5,2.3c1.7,.1,3.1,.7,4.1,1.6c.3,.3,.6,.6,.9,1c.4,.4,.6,.8,.8,1.2c.2,.3,.3,.5,.4,.7c0,.1,.1,.2,.1,.4l.7,.8V135.2h2.5Zm-3.7,9.4c-1,-1.8,-2.6,-3.2,-4.8,-4.1c.9,-.6,1.7,-1.1,2.5,-1.5c.8,-.4,1.6,-.7,2.3,-1v6.6Zm10.7,-9.9c-.6,-.6,-1.4,-.9,-2.4,-.9c-.6,0,-1.1,.1,-1.7,.3c-.5,.1,-1,.4,-1.4,.7c-.4,.3,-.7,.6,-.9,1.1c-.3,.4,-.4,.8,-.4,1.3v.2q0,.1,0,.2l.3,.3c.3,0,.6,-.1,.8,-.2c.3,0,.5,-.1,.7,-.2c0,-.1,0,-.2,-.1,-.3c0,-.1,0,-.2,0,-.3c0,-.3,0,-.5,.1,-.8c.1,-.3,.3,-.5,.5,-.7c.1,-.2,.3,-.3,.6,-.4c.2,-.1,.4,-.2,.7,-.2c.7,0,1.3,.3,1.7,.7c.4,.5,.5,1.2,.5,2.1c0,.3,0,.6,-.2,.9c-.1,.2,-.3,.5,-.5,.7c-.2,.3,-.4,.5,-.7,.8c-.2,.2,-.5,.5,-.7,.8c-.2,.2,-.3,.5,-.5,.8c-.1,.3,-.1,.7,-.1,1.1l.1,1.2l.2,.2c.2,0,.3,-.1,.3,-.2c.1,0,.2,-.1,.3,-.2l.1,-1c0,-.5,.1,-.9,.3,-1.2c.2,-.4,.4,-.6,.7,-.9c.2,-.2,.5,-.4,.8,-.6c.3,-.2,.6,-.5,.8,-.7c.3,-.3,.5,-.6,.6,-.9c.2,-.3,.3,-.8,.3,-1.3c0,-1,-.3,-1.8,-.8,-2.4Zm-3.1,10.6c-.3,0,-.7,.2,-1,.5c-.3,.3,-.4,.7,-.4,1.2c0,.4,.1,.7,.2,.9c.2,.2,.5,.3,.8,.3c.5,0,.8,-.2,1.1,-.5c.2,-.3,.4,-.7,.4,-1.2c0,-.8,-.4,-1.2,-1.1,-1.2Z" class="gi_354"/>
<g clip-path="url(#c0_354)">
<path d="M1877,177.2H32.1v-5.4H768.7c43.1,0,53,-37.9,115.3,-37.9h993Z" class="gj_354"/>
<path d="M1877,183.7H32.1v-9.8H768.7c43.1,0,53,-33.6,115.3,-33.6h993Z" class="gk_354"/>
</g>
<image clip-path="url(#ch_354)" preserveAspectRatio="none" x="125" y="206" width="734" height="181" xlink:href="img/9.png"/>
<path d="M144.6,231.3c0,0,-13,0,-13,13v117c0,0,0,13,13,13H833.1c0,0,13,0,13,-13v-130Z" class="gl_354"/>
<path d="M147.7,294.1l54.1,40.8l54.1,-40.8V230h8.7V211.9H155.8c-6.5,.4,-7.7,3.9,-8.2,8.4Z" class="gm_354"/>
<path d="M274,220.3c-.3,-4.7,-4.2,-8.4,-9,-8.4c-4.8,0,-8.7,3.7,-9,8.4h-.1V230h18.2v-9.7Z" class="gn_354"/>
<path d="M255.9,230.6H846.1" class="go_354"/>
<path d="M131.7,401.3v39l11.7,10.3V406.4Z" class="gp_354"/>
<path d="M131.7,401.3v39H829.5c0,0,16.8,0,16.8,-16.8v-5.4c0,0,0,-16.8,-16.8,-16.8Z" class="g3_354"/>
<path d="M781,434.9c8.2,0,14.8,-6.5,14.8,-14.5c0,-8,-6.6,-14.5,-14.8,-14.5c-8.3,0,-14.9,6.5,-14.9,14.5c0,8,6.6,14.5,14.9,14.5Z" class="gq_354"/>
<path d="M781,434.9c8.2,0,14.8,-6.5,14.8,-14.5c0,-8,-6.6,-14.5,-14.8,-14.5c-8.3,0,-14.9,6.5,-14.9,14.5c0,8,6.6,14.5,14.9,14.5Z" class="gr_354"/>
<path d="M781,425.8c3,0,5.4,-2.4,5.4,-5.4c0,-2.9,-2.4,-5.3,-5.4,-5.3c-3.1,0,-5.5,2.4,-5.5,5.3c0,3,2.4,5.4,5.5,5.4Z" class="g1_354"/>
<path d="M781,425.8c3,0,5.4,-2.4,5.4,-5.4c0,-2.9,-2.4,-5.3,-5.4,-5.3c-3.1,0,-5.5,2.4,-5.5,5.3c0,3,2.4,5.4,5.5,5.4Z" class="gs_354"/>
<g clip-path="url(#ci_354)" opacity="0.3">
<path d="M766.4,419.6v0c0,0,-.1,-4.8,3.6,-8.6l7.8,6.7c0,0,-1,.9,-1.1,2.7Z" class="g1_354"/>
</g>
<path d="M785.6,420.3c0,0,-3.5,0,-3.5,3.5v8.7c0,0,0,3.4,3.5,3.4H829c0,0,3.5,0,3.5,-3.4v-8.7c0,0,0,-3.5,-3.5,-3.5Z" class="gn_354"/>
<path d="M169.5,411.4c0,-8.3,-6.7,-15.1,-15,-15.1c-8.4,0,-15.1,6.8,-15.1,15.1c0,8.3,6.8,15,15.1,15c.8,0,1.6,0,2.4,-.2l4.5,5.3v-6.8c4.8,-2.5,8.1,-7.5,8.1,-13.3Z" class="g1_354"/>
<path d="M161.8,432.7l-5.1,-6c-.7,.1,-1.5,.2,-2.2,.2c-8.6,0,-15.6,-7,-15.6,-15.5c0,-8.6,7,-15.5,15.6,-15.5c8.5,0,15.5,6.9,15.5,15.5c0,5.7,-3.1,10.9,-8.2,13.6Zm-4.7,-7l3.8,4.5v-5.7l.3,-.2c4.8,-2.5,7.9,-7.4,7.9,-12.9c0,-8.1,-6.6,-14.6,-14.6,-14.6c-8.1,0,-14.6,6.5,-14.6,14.6c0,8,6.5,14.6,14.6,14.6c.7,0,1.5,-.1,2.3,-.2Z" class="gt_354"/>
<path d="M147.4,410.9c.8,0,1.5,.7,1.5,1.5c0,.8,-.7,1.4,-1.5,1.4c-.7,0,-1.4,-.6,-1.4,-1.4c0,-.8,.7,-1.5,1.4,-1.5Z" class="gu_354"/>
<path d="M147.4,414.3c-1,0,-1.8,-.9,-1.8,-1.9c0,-1.1,.8,-1.9,1.8,-1.9c1.1,0,1.9,.8,1.9,1.9c0,1,-.8,1.9,-1.9,1.9m0,-2.9c-.5,0,-.9,.4,-.9,1c0,.5,.4,1,.9,1c.6,0,1,-.5,1,-1c0,-.6,-.4,-1,-1,-1Z" class="gt_354"/>
<path d="M154.5,410.9c.8,0,1.4,.7,1.4,1.5c0,.8,-.6,1.4,-1.4,1.4c-.8,0,-1.5,-.6,-1.5,-1.4c0,-.8,.7,-1.5,1.5,-1.5Z" class="gu_354"/>
<path d="M154.5,414.3c-1.1,0,-1.9,-.9,-1.9,-1.9c0,-1.1,.8,-1.9,1.9,-1.9c1,0,1.9,.8,1.9,1.9c0,1,-.9,1.9,-1.9,1.9m0,-2.9c-.6,0,-1,.4,-1,1c0,.5,.4,1,1,1c.5,0,.9,-.5,.9,-1c0,-.6,-.4,-1,-.9,-1Z" class="gt_354"/>
<path d="M161.5,410.9c.8,0,1.4,.7,1.4,1.5c0,.8,-.6,1.4,-1.4,1.4c-.8,0,-1.5,-.6,-1.5,-1.4c0,-.8,.7,-1.5,1.5,-1.5Z" class="gu_354"/>
<path d="M161.5,414.3c-1.1,0,-1.9,-.9,-1.9,-1.9c0,-1.1,.8,-1.9,1.9,-1.9c1,0,1.9,.8,1.9,1.9c0,1,-.9,1.9,-1.9,1.9m0,-2.9c-.6,0,-1,.4,-1,1c0,.5,.4,1,1,1c.5,0,1,-.5,1,-1c0,-.6,-.5,-1,-1,-1Z" class="gt_354"/>
<path d="M163.4,425.6c0,-9.7,7.9,-17.6,17.6,-17.6c9.7,0,17.6,7.9,17.6,17.6c0,9.7,-7.9,17.6,-17.6,17.6c-.9,0,-1.9,-.1,-2.8,-.2l-5.3,6.1v-7.8c-5.6,-3,-9.5,-8.9,-9.5,-15.7Z" class="gv_354"/>
<path d="M172.9,449.6c0,0,-.1,0,-.1,-.1c-.2,0,-.3,-.2,-.3,-.4v-7.6c-5.9,-3.1,-9.6,-9.2,-9.6,-15.9c0,-10,8.2,-18.1,18.1,-18.1c10,0,18.1,8.1,18.1,18.1c0,10,-8.1,18.1,-18.1,18.1c-.8,0,-1.7,-.1,-2.6,-.2l-5.1,5.9c-.1,.1,-.2,.2,-.4,.2M181,408.5c-9.4,0,-17.1,7.6,-17.1,17.1c0,6.5,3.5,12.3,9.2,15.3c.2,0,.3,.2,.3,.4v6.6l4.4,-5.2c.1,-.1,.3,-.2,.5,-.2c.9,.2,1.8,.3,2.7,.3c9.5,0,17.2,-7.7,17.2,-17.2c0,-9.5,-7.7,-17.1,-17.2,-17.1Z" class="gt_354"/>
<path d="M189.2,425.1c.9,0,1.7,.8,1.7,1.7c0,.9,-.8,1.7,-1.7,1.7c-.9,0,-1.7,-.8,-1.7,-1.7c0,-.9,.8,-1.7,1.7,-1.7Z" class="g1_354"/>
<path d="M189.2,428.9c-1.2,0,-2.1,-.9,-2.1,-2.1c0,-1.2,.9,-2.1,2.1,-2.1c1.2,0,2.1,.9,2.1,2.1c0,1.2,-.9,2.1,-2.1,2.1m0,-3.3c-.7,0,-1.2,.5,-1.2,1.2c0,.7,.5,1.2,1.2,1.2c.7,0,1.2,-.5,1.2,-1.2c0,-.7,-.5,-1.2,-1.2,-1.2Z" class="gt_354"/>
<path d="M181,425.1c.9,0,1.7,.8,1.7,1.7c0,.9,-.8,1.7,-1.7,1.7c-.9,0,-1.7,-.8,-1.7,-1.7c0,-.9,.8,-1.7,1.7,-1.7Z" class="g1_354"/>
<path d="M181,428.9c-1.2,0,-2.1,-.9,-2.1,-2.1c0,-1.2,.9,-2.1,2.1,-2.1c1.2,0,2.1,.9,2.1,2.1c0,1.2,-.9,2.1,-2.1,2.1m0,-3.3c-.7,0,-1.2,.5,-1.2,1.2c0,.7,.5,1.2,1.2,1.2c.7,0,1.2,-.5,1.2,-1.2c0,-.7,-.5,-1.2,-1.2,-1.2Z" class="gt_354"/>
<path d="M172.8,425.1c.9,0,1.7,.8,1.7,1.7c0,.9,-.8,1.7,-1.7,1.7c-.9,0,-1.7,-.8,-1.7,-1.7c0,-.9,.8,-1.7,1.7,-1.7Z" class="g1_354"/>
<path d="M172.8,428.9c-1.2,0,-2.1,-.9,-2.1,-2.1c0,-1.2,.9,-2.1,2.1,-2.1c1.2,0,2.1,.9,2.1,2.1c0,1.2,-.9,2.1,-2.1,2.1m0,-3.3c-.7,0,-1.2,.5,-1.2,1.2c0,.7,.5,1.2,1.2,1.2c.7,0,1.2,-.5,1.2,-1.2c0,-.7,-.5,-1.2,-1.2,-1.2Z" class="gt_354"/>
<path d="M32.1,45.1H9.2m958.3,0h22.9M32.1,1331.3H9.2m958.3,0h22.9M45.1,32.1V9.2m0,1335.1v22.9M954.5,32.1V9.2m0,1335.1v22.9" class="gw_354"/>
<path d="M32.1,45.1H9.2m958.3,0h22.9M32.1,1331.3H9.2m958.3,0h22.9M45.1,32.1V9.2m0,1335.1v22.9M954.5,32.1V9.2m0,1335.1v22.9" class="gx_354"/>
<path d="M27.5,32.1H0m972.1,0h27.5M27.5,1344.3H0m972.1,0h27.5M32.1,27.5V0m0,1348.9v27.5M967.5,27.5V0m0,1348.9v27.5" class="gw_354"/>
<path d="M27.5,32.1H0m972.1,0h27.5M27.5,1344.3H0m972.1,0h27.5M32.1,27.5V0m0,1348.9v27.5M967.5,27.5V0m0,1348.9v27.5" class="gx_354"/>
</svg>