<?xml version="1.0" encoding="UTF-8" standalone="no"?>
<!DOCTYPE svg PUBLIC "-//W3C//DTD SVG 1.1//EN"
"http://www.w3.org/Graphics/SVG/1.1/DTD/svg11.dtd">
<svg viewBox="0 0 999 1376" version="1.1" xmlns="http://www.w3.org/2000/svg" xmlns:xlink="http://www.w3.org/1999/xlink">
<defs>
<clipPath id="c0_198"><path d="M32.1,1344.3V32.1H967.5V1344.3Z"/></clipPath>
<clipPath id="c1_198"><path d="M176.6,552.9l-6.5,-2.1L153.7,536.9V479.8h72v73.1Z"/></clipPath>
<clipPath id="c2_198"><path d="M176.6,1101.5l-6.5,-2.1l-16.4,-14v-57.1h72v73.2Z"/></clipPath>
<clipPath id="c3_198"><path d="M83.2,867.7V613.1H313.7V867.7Z"/></clipPath>
<clipPath id="c4_198"><path d="M87,863.4V613.7H314.7V863.4Z"/></clipPath>
<clipPath id="c5_198"><path d="M86.7,863.1V613.4H314.4V863.1Z"/></clipPath>
<clipPath id="c6_198"><path d="M195.6,631h-.1c-.2,-.1,3.6,-8.3,3.6,-8.3l.8,.5c0,0,-4,7.8,-4.3,7.8Z"/></clipPath>
<clipPath id="c7_198"><path d="M203.1,623.2c0,0,-6.9,-1.1,-7.6,-5.2c-.7,-3.6,1.5,-3.8,2.1,-3.8c0,0,.1,0,.1,0L206,601.4l-1.5,-3c0,0,-.6,-1.2,.2,-2.1c0,-.1,.1,-.1,.3,-.1c2.1,0,12.9,5.5,12.9,5.5l.1,.2c-.4,.5,-.7,1.1,-1.4,1.6c-.7,.5,-5.1,1.2,-5.1,1.2l-8.4,18.5Z"/></clipPath>
<clipPath id="c8_198"><path d="M202.7,622.9c.2,-.5,.2,-1.8,0,-2.3v-1.4c-1.6,-.5,-2.9,-1.2,-3.7,-2.5c-1.1,.6,-2.1,1.2,-3.1,1.9c1.5,2.1,3.8,3.5,6.8,4.3Zm0,-3.9c2.1,-4.6,3.9,-9.5,6.1,-14.1c-.9,-.4,-1.8,-1.3,-2.6,-1.4c-2.3,4.3,-4.6,8.7,-7.1,12.8c.8,1.4,2.1,2,3.6,2.7Zm-7.3,12c1,-2.9,2.4,-5.4,3.5,-8.3c-2,-1.5,-3.9,-3.1,-4.4,-6.1v-1.5c-.1,-2.7,1.9,-3.4,4.5,-3.4c.1,0,.2,0,.3,0c1.9,-3.3,4.2,-6.4,6.1,-9.7c-.6,-.8,-1.1,-2.3,-.9,-3.6c.6,1.2,1.7,1.9,2.4,2.9c-.1,.6,-.3,1.1,-.4,1.7c.6,.7,1.4,1.2,2.4,1.4c.5,-.4,.6,-1.2,1.2,-1.5c.9,.3,1.8,.7,3.1,.7c.1,.1,.5,.2,.8,.2c.4,0,.7,-.1,.8,-.2c.2,.1,.3,.1,.4,.1c.2,0,.4,-.1,.6,-.1c.2,-.1,.3,-.2,.5,-.2c.1,0,.2,0,.3,.1c-1.3,.7,-2.2,1.8,-4.2,1.8c-.1,0,-.2,0,-.3,0c-.9,3.7,-1.9,7.3,-2.7,11.2c.6,1,1.5,1.7,1.3,3.1c-.5,2.7,-3.9,4.4,-7.2,4.4c-1.3,0,-2.5,-.2,-3.6,-.8c-1,2.1,-2.1,4.2,-3.3,6.1c0,-.4,.3,-.4,.3,-.8c.9,-1.8,1.9,-3.6,2.6,-5.6c-1,1.7,-1.8,3.7,-2.8,5.5c-.2,.4,-.4,.8,-.6,1.3c-.3,.4,-.3,1.1,-.7,1.3Z"/></clipPath>
<clipPath id="c9_198"><path d="M213.1,603.3c-4.8,0,-13.1,-7.3,-5.5,-8.8h1.2c.2,0,.3,0,.5,0q.1,0,.2,0c.3,0,.7,0,1.1,.1c3.1,.6,8.2,3.8,7.5,7c-.2,1.2,-1.5,1.6,-3.1,1.7h-1.8c0,0,-.1,0,-.1,0Z"/></clipPath>
<clipPath id="ca_198"><path d="M764.8,434.8V422.4h14.5v12.4Z"/></clipPath>
<clipPath id="cb_198"><path d="M125.5,386.7V205.8H858.6V386.7Z"/></clipPath>
<clipPath id="cc_198"><path d="M704.1,891.6V637H931.8V891.6Z"/></clipPath>
<clipPath id="cd_198"><path d="M699.8,895.7V635.6H931.9V895.7Z"/></clipPath>
<clipPath id="ce_198"><path d="M699.5,895.4V635.3H931.6V895.4Z"/></clipPath>
<clipPath id="cf_198"><path d="M816.6,648c-.3,-.1,3.5,-8.2,3.5,-8.2l.8,.5c0,0,-4,7.7,-4.3,7.7Z"/></clipPath>
<clipPath id="cg_198"><path d="M824.1,640.3c0,0,-6.9,-1.1,-7.6,-5.2c-.6,-3.6,1.5,-3.9,2.1,-3.9q.1,0,.1,0L827,618.5l-1.4,-3.1c0,0,-.6,-1.1,.1,-2.1c0,0,.2,-.1,.3,-.1c2.1,0,13,5.6,13,5.6v.1c-.3,.6,-.7,1.2,-1.4,1.7c-.6,.5,-5.1,1.1,-5.1,1.1l-8.4,18.6Z"/></clipPath>
<clipPath id="ch_198"><path d="M823.7,639.9c.2,-.4,.2,-1.8,0,-2.2v-1.4c-1.5,-.5,-2.9,-1.2,-3.7,-2.5c-1.1,.6,-2.1,1.2,-3.1,1.9c1.5,2.1,3.8,3.5,6.8,4.2Zm0,-3.9c2.2,-4.5,4,-9.5,6.1,-14c-.8,-.4,-1.8,-1.4,-2.6,-1.4c-2.3,4.3,-4.6,8.6,-7,12.8c.7,1.3,2.1,2,3.5,2.6Zm-7.3,12.1v0c1,-2.9,2.4,-5.5,3.5,-8.3c-2,-1.5,-3.9,-3.1,-4.4,-6.1v-1.6c0,-2.7,1.9,-3.4,4.6,-3.4c0,0,.1,0,.2,0c1.9,-3.3,4.2,-6.3,6.1,-9.6c-.5,-.9,-1.1,-2.4,-.8,-3.7c.5,1.3,1.6,1.9,2.3,2.9c-.1,.6,-.2,1.2,-.3,1.8c.6,.6,1.3,1.2,2.4,1.4c.4,-.5,.5,-1.3,1.1,-1.5c.9,.3,1.8,.7,3.1,.7c.2,.1,.5,.2,.9,.2c.3,0,.6,-.1,.8,-.2c.1,0,.2,0,.3,0c.2,0,.4,0,.6,-.1c.2,-.1,.3,-.1,.5,-.1c.1,0,.2,0,.3,.1c-1.3,.6,-2.2,1.8,-4.1,1.8c-.2,0,-.3,-.1,-.4,-.1c-.9,3.8,-1.9,7.4,-2.6,11.2c.5,1.1,1.5,1.7,1.2,3.2c-.4,2.7,-3.8,4.4,-7.2,4.4c-1.2,0,-2.5,-.3,-3.6,-.8c-1,2.1,-2,4.1,-3.3,6c0,-.3,.3,-.3,.3,-.7c1,-1.8,1.9,-3.6,2.6,-5.7c-1,1.7,-1.8,3.7,-2.7,5.6c-.2,.4,-.5,.8,-.7,1.2c-.3,.4,-.3,1.1,-.7,1.4Z"/></clipPath>
<clipPath id="ci_198"><path d="M834.1,620.3c-4.8,0,-13.1,-7.3,-5.5,-8.8h1.2c.2,.1,.5,.1,.7,.1q.1,0,.2,0c.2,0,.6,0,.9,.1c3.1,.6,8.2,3.8,7.5,7c-.2,1.1,-1.5,1.6,-3.1,1.6h-1.9Z"/></clipPath>
<style type="text/css"><![CDATA[
.g0_198{
fill: #FEFCF4;
}
.g1_198{
fill: #FFF;
}
.g2_198{
fill: none;
stroke: #6381B7;
stroke-width: 0.763;
}
.g3_198{
fill: #6381B7;
}
.g4_198{
fill: none;
stroke: #6381B7;
stroke-width: 0.381;
stroke-dasharray: 2,1;
}
.g5_198{
fill: none;
stroke: #6381B7;
stroke-width: 0.381;
}
.g6_198{
fill: #FCE8B0;
}
.g7_198{
fill: #F7C2D9;
}
.g8_198{
fill: #FDF4F3;
}
.g9_198{
fill: #EC008C;
}
.ga_198{
fill: none;
stroke: #818385;
stroke-width: 0.305;
stroke-dasharray: 4,4;
}
.gb_198{
fill: none;
stroke: #818385;
stroke-width: 0.305;
}
.gc_198{
fill: none;
stroke: #949698;
stroke-width: 0.305;
stroke-dasharray: 4,4;
}
.gd_198{
fill: none;
stroke: #949698;
stroke-width: 0.305;
stroke-dasharray: 3,3;
}
.ge_198{
fill: none;
stroke: #949698;
stroke-width: 0.305;
}
.gf_198{
fill: #6D6F71;
}
.gg_198{
fill: #2E6E51;
}
.gh_198{
fill: none;
stroke: #FFF;
stroke-width: 0.152;
stroke-miterlimit: 1;
}
.gi_198{
fill: #BCBEC0;
}
.gj_198{
fill: #EE314A;
}
.gk_198{
fill: #25408F;
}
.gl_198{
fill: #A8AAAD;
}
.gm_198{
fill: none;
stroke: #949698;
stroke-width: 0.549;
}
.gn_198{
fill: none;
stroke: #BCBEC0;
stroke-width: 2.566;
}
.go_198{
fill: #231F20;
}
.gp_198{
fill: #363637;
}
.gq_198{
fill: #5CC4BE;
}
.gr_198{
fill: #EAD646;
}
.gs_198{
fill: #CEEDFB;
}
.gt_198{
fill: #27639D;
}
.gu_198{
fill: none;
stroke: #204A78;
stroke-width: 1.527;
}
.gv_198{
fill: none;
stroke: #FFF;
stroke-width: 1.909;
stroke-miterlimit: 10;
}
.gw_198{
fill: none;
stroke: #000;
stroke-width: 0.381;
stroke-miterlimit: 10;
}
]]></style>
</defs>
<path d="M32.1,1344.3H954.5V32.1H32.1V1344.3Z" class="g0_198"/>
<path clip-path="url(#c0_198)" d="M954.5,1344.3H1877V32.1H954.5V1344.3Z" class="g0_198"/>
<path d="M150.4,440.5c0,0,-18.3,0,-18.3,18.3V975.5c0,0,0,18.3,18.3,18.3H827.5c0,0,18.4,0,18.4,-18.3v-535Z" class="g1_198"/>
<path d="M150.4,440.5c0,0,-18.3,0,-18.3,18.3V975.5c0,0,0,18.3,18.3,18.3H827.5c0,0,18.4,0,18.4,-18.3v-535H150.4Z" class="g2_198"/>
<path d="M145.1,1015.1c0,0,-13,0,-13,13v146.5c0,0,0,13,13,13H832.9c0,0,13,0,13,-13V1028.1c0,0,0,-13,-13,-13Z" class="g1_198"/>
<path d="M145.1,1015.1c0,0,-13,0,-13,13v146.5c0,0,0,13,13,13H832.9c0,0,13,0,13,-13V1028.1c0,0,0,-13,-13,-13H145.1Z" class="g2_198"/>
<path d="M486.3,1205.8c0,0,-4.3,0,-4.3,4.3v10.8c0,0,0,4.4,4.3,4.4h30.3c0,0,4.4,0,4.4,-4.4v-10.8c0,0,0,-4.3,-4.4,-4.3Z" class="g3_198"/>
<path d="M473.1,1196.9v37.6m1.4,.9H845.1m1,-1.3v-37.5m-1.4,-1H474.1" class="g4_198"/>
<path d="M473.1,1234.9v.5h.6m371.8,0h.6v-.5m0,-38.7v-.6h-.6m-371.8,0h-.6v.6" class="g5_198"/>
<path d="M209.2,482c0,0,-13,0,-13,13v47.6c0,0,0,13,13,13h602c0,0,13,0,13,-13V495c0,0,0,-13,-13,-13Z" class="g6_198"/>
<image clip-path="url(#c1_198)" preserveAspectRatio="none" x="152" y="478" width="75" height="77" xlink:href="img/1.png"/>
<path d="M204,548.2c0,0,-26.8,11.3,-51.1,-12.7c0,0,15.2,25.3,49.3,23.9c0,0,24.8,.4,20.3,-10.1c0,0,1.2,-4.5,-18.5,-1.1Z" class="g6_198"/>
<path d="M209.2,1056.5c0,0,-13,0,-13,13v21.6c0,0,0,13,13,13h602c0,0,13,0,13,-13v-21.6c0,0,0,-13,-13,-13Z" class="g6_198"/>
<image clip-path="url(#c2_198)" preserveAspectRatio="none" x="152" y="1027" width="75" height="76" xlink:href="img/2.png"/>
<path d="M204,1096.8c0,0,-26.8,11.3,-51.1,-12.8c0,0,15.2,25.3,49.3,24c0,0,24.8,.3,20.3,-10.2c0,0,1.2,-4.4,-18.5,-1Z" class="g6_198"/>
<image clip-path="url(#c3_198)" preserveAspectRatio="none" x="83" y="613" width="230" height="255" xlink:href="img/3.png"/>
<path d="M88.3,624.3l6.4,237.1l213,-5.6l-7.1,-238Z" class="g7_198"/>
<image clip-path="url(#c4_198)" preserveAspectRatio="none" x="86" y="614" width="229" height="250" xlink:href="img/4.png"/>
<image clip-path="url(#c5_198)" preserveAspectRatio="none" x="86" y="614" width="228" height="250" xlink:href="img/5.png"/>
<path d="M95.8,618.4L91.6,853.8l180.2,3.1l32.7,-33l3.7,-201.8Z" class="g8_198"/>
<path d="M272.5,858l32.7,-33.2l-27.4,-5.6Z" class="g9_198"/>
<path d="M411.9,868.3c13.3,-1.1,23.9,-6.6,26.3,-13.7m-.6,-7.9C434.1,840,423.3,835,410.3,834.3m-8.2,.1c-13.3,1.1,-23.9,6.7,-26.4,13.8m.7,7.9c3.5,6.6,14.2,11.6,27.3,12.3" class="ga_198"/>
<path d="M438.7,853c.1,-.5,.1,-1.1,.1,-1.6c0,-.6,0,-1.1,-.1,-1.7M408.6,834.3c-.5,-.1,-1.1,-.1,-1.6,-.1c-.6,0,-1.1,0,-1.7,.1m-30,15.4c-.1,.6,-.1,1.1,-.1,1.7c0,.5,0,1.1,.1,1.6m30,15.5c.6,0,1.1,0,1.7,0c.5,0,1.1,0,1.6,0" class="gb_198"/>
<path d="M402.8,870.3c-12.1,8.3,-51.5,33.4,-76.4,27.2" class="gc_198"/>
<path d="M321.6,893.1c-1,-3,-.1,-6.9,10.4,-6.7" class="gd_198"/>
<path d="M331.8,896.3c-7.2,3.3,-24.8,8,-59.1,-1.8" class="gc_198"/>
<path d="M265.4,892.3c-9.7,-3.2,-33.7,-12,-51.4,-26.9" class="gd_198"/>
<path d="M406.6,867.7c0,0,-.5,.3,-1.3,.9m-80.4,28.5c-.4,-.1,-.9,-.3,-1.4,-.5c0,0,-.4,-.4,-.8,-1.1m10.7,-9c.4,0,.8,0,1.3,.1c0,0,.8,.5,1.4,1.5m.6,4c-.2,.5,-.5,1.1,-1,1.8c0,0,-.4,.3,-1.2,.9M271.2,894c-.5,-.1,-1,-.3,-1.5,-.4c0,0,-.5,-.2,-1.4,-.4M212.9,864.5c-.4,-.4,-.7,-.7,-1.1,-1" class="ge_198"/>
<path d="M218.4,860.7l-8,5.5l-4.7,-11.7Z" class="gf_198"/>
<image clip-path="url(#c6_198)" x="195" y="622" width="5" height="10" xlink:href="shade/1.png"/>
<image clip-path="url(#c7_198)" x="194" y="596" width="24" height="28" xlink:href="shade/2.png"/>
<image clip-path="url(#c8_198)" x="194" y="598" width="23" height="34" xlink:href="shade/3.png"/>
<image clip-path="url(#c9_198)" x="199" y="594" width="20" height="10" xlink:href="shade/4.png"/>
<path d="M32.1,179.3H967.5V32.1H32.1V179.3Z" class="gg_198"/>
<path d="M262.3,134H247.1l1.2,1.2h11.8v8.2L258.5,142c.2,-.6,.3,-1.3,.3,-1.9c0,-.8,-.2,-1.6,-.6,-2.2c-.3,-.5,-.6,-.9,-1,-1.2c-.5,-.3,-.9,-.6,-1.4,-.7c-.3,-.1,-.6,-.2,-.9,-.2c-.7,0,-1.3,.2,-2,.7c-.3,.2,-.5,.5,-.7,.8c-.1,.3,-.2,.6,-.2,.9c0,.4,0,.7,.2,.9c.3,.5,.7,.7,1.2,.8c.6,.1,1.1,0,1.5,-.3c.2,-.2,.4,-.4,.6,-.6c.1,-.3,.2,-.5,.2,-.8c0,-.3,-.1,-.6,-.4,-1c.3,-.1,.5,-.1,.7,0c.2,0,.5,.1,.8,.3c.1,.2,.3,.4,.5,.7c.2,.3,.3,.6,.4,.9c.1,.3,.1,.5,.1,.7c0,.6,-.2,1.1,-.5,1.7c-.4,.8,-1.4,1.3,-2.8,1.3c-.5,0,-1.1,-.2,-1.6,-.5c-.6,-.3,-1.1,-.8,-1.5,-1.4c-.5,-.5,-.9,-1.2,-1.2,-2c-.4,-.8,-.7,-1.7,-.9,-2.7l-.7,-.3c.1,1,.3,2,.6,2.9c.2,.9,.5,1.7,.9,2.3c.3,.5,.7,1,1,1.5c.4,.4,.8,.8,1.2,1.1c.4,.3,.8,.6,1.2,.7c.5,.2,.9,.3,1.3,.3c.7,0,1.3,-.2,1.9,-.4c.5,-.3,1,-.7,1.3,-1.2c1.4,.9,2.4,2.4,2.9,4.5v-.1l.4,.3V135.2h2.2L262.3,134Zm12.5,1.2L273.6,134H261.8l1.2,1.2h8.2v.9c-2.5,.8,-5,2.1,-7.4,3.7l1.6,2.3c1.7,.1,3,.7,4.1,1.6c.3,.3,.6,.6,.9,1c.3,.4,.6,.8,.8,1.2c.1,.3,.3,.5,.3,.7c.1,.1,.1,.2,.2,.4l.6,.8V135.2h2.5Zm-3.6,9.4c-1.1,-1.8,-2.7,-3.2,-4.9,-4.1c.9,-.6,1.8,-1.1,2.5,-1.5c.8,-.4,1.6,-.7,2.4,-1v6.6ZM289,135.2L287.8,134H272.6l1.3,1.2h7.7v1c-2.6,.8,-4.9,2.1,-6.9,3.7l1.7,2.1c1.3,.1,2.5,.7,3.6,1.8c.5,.5,.9,1,1.3,1.6c.4,.7,.7,1.3,1,2q.1,.1,.2,.2c.1,0,.2,.1,.3,.1v-10c1.2,0,2.1,.3,2.7,1c.7,.7,1,1.4,1,2.2l-.1,.3c-.1,-.2,-.3,-.3,-.5,-.4c-.2,-.2,-.4,-.2,-.7,-.2c-.4,0,-.7,.1,-1,.4c-.2,.2,-.4,.5,-.4,.9c0,.2,.1,.4,.2,.6c.1,.2,.2,.3,.3,.5c.2,.1,.3,.2,.5,.3c.2,.1,.4,.1,.6,.1c.3,0,.6,-.1,.8,-.2c.2,-.1,.4,-.3,.6,-.5c.2,-.2,.3,-.4,.4,-.7c.1,-.3,.2,-.5,.2,-.8c0,-1.3,-.4,-2.4,-1.2,-3.4c-.9,-1.2,-2,-1.7,-3.4,-1.7v-.9H289Zm-7.4,9.1h-.1c-.9,-1.8,-2.4,-3.1,-4.4,-4c.8,-.5,1.6,-1,2.3,-1.4c.7,-.4,1.5,-.8,2.2,-1.1v6.5Zm12,-9.1L292.5,134h-1.1c-.4,-.4,-.6,-1,-.8,-1.9l-.4,-.3c0,.2,0,.5,0,.9c.1,.3,.1,.7,.1,1.2c0,.5,.1,.9,.1,1.3c0,.3,0,.6,0,.9c-.2,-.8,-.6,-1.3,-1,-1.6c-.3,-.3,-.9,-.5,-1.6,-.5h-1.4l1.2,1.2c.3,0,.7,.1,1,.2c.3,.1,.6,.3,.8,.5c.3,.2,.5,.4,.6,.7c.2,.3,.2,.7,.2,1v8.9l1.2,1.2V135.2h2.2Zm6,-1.2h-7.9l1.1,1.2h4c-1.7,2,-2.5,4,-2.5,6.1c0,1.5,.3,2.8,.9,3.9c.8,1.4,1.8,2.1,3.2,2.1c.3,0,.6,0,.9,-.1c.2,-.1,.5,-.2,.7,-.4c.2,-.2,.3,-.4,.4,-.7c.1,-.2,.2,-.5,.2,-.8c0,-.4,-.2,-.9,-.4,-1.2c-.3,-.3,-.7,-.5,-1.1,-.5c-.3,0,-.7,.2,-1,.4c-.3,.3,-.4,.6,-.4,1c0,.2,0,.4,.1,.7c.2,.2,.4,.4,.6,.6c-.7,.2,-1.4,-.2,-2.2,-1.3c-.5,-.7,-.7,-1.5,-.7,-2.3c0,-1,.1,-1.9,.3,-2.7c.2,-.7,.5,-1.4,1,-2.1c.4,-.7,1,-1.3,1.6,-1.7c.7,-.5,1.5,-.8,2.4,-1L299.6,134Zm13.7,1.2L312.1,134c-.7,-.1,-1.1,-.6,-1.3,-1.5l-.7,-.6l.2,5.3c-.2,-.5,-.6,-1.2,-1.3,-2c-.7,-.8,-1.2,-1.2,-1.7,-1.2c-1.3,0,-2.3,.8,-3,2.4c-.1,-.7,-.5,-1.2,-1,-1.7c-.6,-.5,-1.2,-.7,-1.8,-.7h-2.6l1.2,1.2c.2,0,.6,0,1.4,0c.8,0,1.4,.5,2,1.5c-.3,.1,-.6,.2,-.8,.4c-.3,.2,-.5,.4,-.7,.7c-.2,.2,-.3,.5,-.4,.8c-.1,.2,-.2,.5,-.2,.8c0,.4,.1,.8,.4,1.2c.3,.3,.7,.5,1.1,.5c.9,0,1.6,-.5,1.9,-1.5c.2,.5,.5,.8,.8,1.1c.3,.2,.7,.4,1.1,.4c.5,-.1,.9,-.3,1.2,-.7c.3,-.3,.4,-.7,.4,-1.2c0,-.6,-.6,-1.3,-1.9,-2.2c0,-.3,.2,-.6,.4,-.7c.3,-.2,.6,-.3,1,-.3c.4,0,1,.3,1.5,1c.5,.8,.8,1.4,.8,1.9l-.1,7.7l1.3,1.2V135.2h2ZM326.7,134c-.5,0,-1,.2,-1.5,.4c-.5,.3,-.9,.5,-1.3,.8c-.8,.8,-1.4,1.8,-1.8,2.8c-.4,1,-.7,2.1,-.7,3.3c0,1.5,.3,2.8,.9,3.9c.8,1.4,1.8,2.1,3.2,2.1c.3,0,.6,0,.9,-.1c.2,-.1,.5,-.2,.7,-.4c.2,-.2,.3,-.4,.4,-.7c.2,-.2,.2,-.5,.2,-.8c0,-.4,-.1,-.9,-.4,-1.2c-.3,-.3,-.6,-.5,-1,-.5c-.2,0,-.4,.1,-.6,.1c-.2,.1,-.3,.2,-.5,.3c-.1,.2,-.2,.3,-.3,.4c-.1,.2,-.1,.4,-.1,.6c0,.2,0,.4,.2,.7c.1,.2,.3,.4,.5,.6c0,0,-.1,.1,-.2,.1h-.1c-.7,0,-1.4,-.5,-1.9,-1.4c-.5,-.7,-.7,-1.5,-.7,-2.3c0,-1,.1,-1.9,.3,-2.7c.3,-.7,.6,-1.4,1,-2.1c.4,-.7,1,-1.3,1.7,-1.7c.6,-.5,1.4,-.8,2.3,-1L326.7,134Zm14.6,0H325.9l1.2,1.2h5.3c-.4,.3,-.9,.8,-1.3,1.5c-.3,.6,-.5,1.2,-.5,1.7c0,.8,.3,1.5,.8,2.1c.5,.7,1.2,1,2,1c.3,0,.8,-.1,1.3,-.3c.5,-.2,.8,-.3,.9,-.3c.3,0,.4,.1,.6,.4c.1,.2,.1,.4,.1,.6c0,.6,-.4,1,-1.1,1.3c-.6,.3,-1.2,.5,-1.8,.5c-.7,0,-1.3,-.2,-1.8,-.6c-.6,-.4,-1.1,-1,-1.5,-1.7c-.6,-.9,-1,-2.1,-1.1,-3.5c-.1,-.5,-.1,-.9,0,-1.3l-.6,-.3c0,1.2,0,2.3,.2,3.3c.2,1,.4,1.9,.7,2.7c1,2.2,2.4,3.4,4.5,3.4c.9,0,1.7,-.4,2.4,-1c.6,-.7,1,-1.5,1,-2.4c0,-.3,-.1,-.6,-.2,-.9c-.1,-.4,-.3,-.7,-.5,-1.1c-.4,-.7,-.8,-1.2,-1.3,-1.4l-1.4,.7c-.3,.1,-.5,.2,-.7,.3c-.3,.1,-.5,.1,-.6,.1c-.6,0,-.9,-.3,-.9,-.9c0,-.4,.2,-1,.7,-1.7c.2,-.4,.4,-.7,.6,-.9c.2,-.2,.5,-.3,.7,-.3l.1,.1c.7,.9,1.5,1.6,2.3,1.9c.8,.3,1.8,.5,3.1,.5c-.5,1.2,-.8,2.5,-.8,3.6c0,.9,.1,1.8,.3,2.6c.2,.8,.4,1.6,.7,2.4l1.2,.3c-.6,-1.3,-1,-2.5,-1,-3.4c0,-1.2,.2,-2.3,.6,-3.3c.3,-.9,.8,-1.7,1.5,-2.3l-1.9,-1.9c-.3,.2,-.7,.3,-1.2,.4c-.6,.1,-1.1,.1,-1.8,.1c-.1,0,-.3,0,-.5,-.1c-.3,-.1,-.5,-.1,-.7,-.3c-.3,-.1,-.5,-.2,-.6,-.3c-.2,-.2,-.3,-.3,-.3,-.5c.1,-.2,.2,-.4,.4,-.5c.2,-.2,.4,-.3,.6,-.3h6.8L341.3,134Zm14.6,0H340.6l1.2,1.2h5.3c-.5,.3,-.9,.8,-1.3,1.5c-.4,.6,-.5,1.2,-.5,1.7c0,.8,.2,1.5,.8,2.1c.5,.7,1.2,1,2,1c.3,0,.7,-.1,1.2,-.3c.6,-.2,.9,-.3,1,-.3c.2,0,.4,.1,.5,.4c.1,.2,.2,.4,.2,.6c0,.6,-.4,1,-1.1,1.3c-.6,.3,-1.2,.5,-1.8,.5c-.7,0,-1.3,-.2,-1.9,-.6c-.5,-.4,-1,-1,-1.4,-1.7c-.6,-.9,-1,-2.1,-1.2,-3.5c0,-.5,0,-.9,0,-1.3l-.6,-.3c0,1.2,.1,2.3,.3,3.3c.1,1,.4,1.9,.7,2.7c.9,2.2,2.4,3.4,4.5,3.4c.9,0,1.7,-.4,2.3,-1c.7,-.7,1,-1.5,1,-2.4c0,-.3,0,-.6,-.1,-.9c-.1,-.4,-.3,-.7,-.5,-1.1c-.4,-.7,-.9,-1.2,-1.4,-1.4l-1.3,.7c-.3,.1,-.5,.2,-.8,.3c-.2,.1,-.4,.1,-.5,.1c-.7,0,-1,-.3,-1,-.9c0,-.4,.3,-1,.7,-1.7c.3,-.4,.5,-.7,.7,-.9c.2,-.2,.4,-.3,.6,-.3l.1,.1c.8,.9,1.6,1.6,2.4,1.9c.8,.3,1.8,.5,3.1,.5c-.5,1.2,-.8,2.5,-.8,3.6c0,.9,.1,1.8,.3,2.6c.1,.8,.4,1.6,.7,2.4l1.1,.3c-.6,-1.3,-.9,-2.5,-.9,-3.4c0,-1.2,.2,-2.3,.5,-3.3c.4,-.9,.9,-1.7,1.5,-2.3l-1.8,-1.9c-.3,.2,-.8,.3,-1.3,.4c-.5,.1,-1.1,.1,-1.7,.1c-.2,0,-.3,0,-.6,-.1c-.2,-.1,-.4,-.1,-.7,-.3c-.2,-.1,-.4,-.2,-.6,-.3c-.1,-.2,-.2,-.3,-.2,-.5c0,-.2,.1,-.4,.3,-.5c.3,-.2,.5,-.3,.7,-.3h6.8L355.9,134Zm1.4,17.3c-.1,-.2,-.2,-.4,-.3,-.5c-.1,-.2,-.3,-.4,-.5,-.7c-.3,-.3,-.6,-.7,-.9,-1c-.4,-.3,-.7,-.6,-1,-.9c0,-.3,0,-.7,0,-1.2c0,-.5,-.1,-.9,-.3,-1.2l-1,-.7c.1,.6,.2,1,.2,1.5c0,.4,0,.7,-.1,.9c-.7,-.4,-1.3,-.6,-1.8,-.6c-.3,0,-.5,.1,-.8,.2c-.3,0,-.5,.2,-.7,.3c-.2,.2,-.4,.4,-.5,.7c-.1,.2,-.2,.5,-.2,.7c0,.6,.3,1,.7,1.4c.5,.3,1,.5,1.7,.5c1,-.1,1.8,-.6,2.4,-1.5c.2,.2,.5,.4,.8,.6c.3,.2,.5,.4,.8,.7c.3,.3,.6,.6,.8,.9c.3,.2,.5,.5,.7,.8v-.9Zm-4.8,-3.1c.2,.1,.3,.2,.5,.4c-.1,.2,-.4,.4,-.7,.6c-.4,.2,-.7,.3,-1.1,.2c-.4,0,-.6,-.3,-.6,-.6c.1,-.5,.5,-.7,1.3,-.8c.2,.1,.4,.1,.6,.2Zm24.4,-16.3c-2.3,-2.4,-4.7,-3.6,-7.3,-3.6c-1,0,-2,.4,-3,1.2c-1.1,.9,-1.7,1.8,-1.7,2.7c0,.4,.2,.7,.5,1l.8,.8H363l1.2,1.2H366v11.3l1.3,1.2V135.2h2.1L368.1,134h-1.3l-.4,-1.1c0,-.9,.6,-1.6,1.6,-2.3c1,-.7,1.9,-1,2.8,-1c.6,0,1.2,.1,1.8,.2c.5,.2,1.1,.4,1.6,.7c.6,.4,1.2,.7,1.6,1c.5,.4,.9,.7,1.3,1l-.2,-.6Zm2.7,3.3L378.4,134H367.8l1.3,1.2h1.1v5.4l1,1.4c1.6,-2.3,3.1,-3.6,4.4,-4c.2,0,.3,0,.4,0c.1,.1,.2,.2,.3,.2c.1,.1,.2,.2,.2,.3c0,.1,.1,.2,.1,.3v1c-1,.6,-1.8,1.1,-2.6,1.7c-.8,.5,-1.6,1,-2.3,1.5l1.2,1.6c.6,0,1.1,.1,1.6,.3c.4,.2,.8,.4,1.1,.6c.2,.2,.3,.4,.5,.6c.2,.3,.4,.6,.7,1c.4,.6,.7,1.1,1.1,1.2v-9.1c0,-.3,0,-.6,-.1,-.9c-.1,-.3,-.3,-.6,-.4,-.9c-.5,-.6,-1.1,-.9,-1.7,-.9c-.8,-.1,-1.7,.3,-2.5,.9c-.2,.1,-.4,.3,-.7,.6c-.3,.3,-.7,.6,-1.1,1v-3.8h8.2Zm-2.9,10.6c-.7,-1.1,-1.7,-1.8,-2.8,-2.2c.6,-.4,1.1,-.8,1.6,-1.1c.5,-.3,.9,-.5,1.2,-.7v4ZM385.8,134h-8l1.2,1.2h4c-1.7,2,-2.5,4,-2.5,6.1c0,1.5,.3,2.8,.9,3.9c.7,1.4,1.8,2.1,3.2,2.1c.3,0,.6,0,.8,-.1c.3,-.1,.5,-.2,.7,-.4c.2,-.2,.4,-.4,.5,-.7c.1,-.2,.2,-.5,.2,-.8c0,-.4,-.2,-.9,-.5,-1.2c-.2,-.3,-.6,-.5,-1,-.5c-.4,0,-.7,.2,-1,.4c-.3,.3,-.5,.6,-.5,1c0,.2,.1,.4,.2,.7c.1,.2,.3,.4,.6,.6c-.7,.2,-1.5,-.2,-2.2,-1.3c-.5,-.7,-.7,-1.5,-.7,-2.3c0,-1,.1,-1.9,.3,-2.7c.2,-.7,.5,-1.4,.9,-2.1c.5,-.7,1.1,-1.3,1.7,-1.7c.7,-.5,1.4,-.8,2.3,-1L385.8,134Zm13.9,1.2L398.6,134c-.2,0,-.3,0,-.4,0c-.5,0,-.8,-.2,-1,-.6c0,-.2,-.1,-.6,-.1,-1.2l-.6,-.5c.1,1.1,.1,2.2,.2,3.2c0,1.1,.1,2.1,.1,3.2c-1.5,-2.6,-3.2,-3.9,-4.9,-3.9c-.5,0,-1,.1,-1.5,.3c-.5,.1,-1,.4,-1.5,.7c-.6,.4,-1,.8,-1.3,1.2c-.3,.4,-.5,.9,-.5,1.3c0,.2,.1,.5,.3,.7c.2,.2,.4,.3,.7,.3c.2,0,.5,-.1,.8,-.3c.2,-.1,.4,-.1,.5,-.2c.1,0,.3,0,.4,0c.5,0,.7,.4,.7,1.2c0,.5,-.4,1.1,-1.2,1.9l1.7,.6l4.2,-4.2c.1,.1,.3,.2,.4,.4c.2,.2,.4,.4,.5,.6c.2,.3,.3,.5,.4,.7c.1,.3,.1,.5,.1,.6l-.2,6.4l1.3,1.3V135.2h2Zm-8.5,4.2c.1,-.7,0,-1.2,-.3,-1.6c-.3,-.5,-.8,-.7,-1.4,-.7c.5,-1.1,1.5,-1.6,2.8,-1.6c.7,0,1.3,.3,1.9,.9l-3,3Zm27.1,-4.2L417.1,134H406c.4,.4,.8,.7,1.1,.9c.3,.3,.5,.5,.7,.7c.3,.2,.7,.4,1,.5c.4,.2,.8,.4,1.2,.5c.8,.4,1.4,.7,1.8,1c-.6,.4,-1.3,.9,-1.9,1.4c-.7,.5,-1.3,1.1,-1.8,1.6l1.7,2c1.6,.1,2.9,.5,3.8,1.2c.5,.4,.9,.9,1.3,1.5c.3,.6,.5,1.1,.7,1.6l.8,.9V135.2h1.9Zm-3.1,9.4c-1.1,-1.7,-2.6,-2.9,-4.6,-3.6c.6,-.5,1.1,-1.1,1.6,-1.6c.5,-.5,1,-.9,1.4,-1.3c-1.3,-1.5,-2.3,-2.5,-3.2,-2.9h4.8v9.4Zm7.7,-9.4L421.7,134h-1.1c-.3,-.4,-.6,-1,-.7,-1.9l-.4,-.3c0,.2,0,.5,0,.9c0,.3,0,.7,.1,1.2c0,.5,0,.9,0,1.3c.1,.3,.1,.6,.1,.9c-.3,-.8,-.6,-1.3,-1,-1.6c-.4,-.3,-1,-.5,-1.7,-.5h-1.4l1.2,1.2c.4,0,.7,.1,1,.2c.4,.1,.6,.3,.9,.5c.2,.2,.4,.4,.6,.7c.1,.3,.2,.7,.2,1v8.9l1.1,1.2V135.2h2.3Zm11.1,0L432.9,134H421l1.2,1.2h8.2v.9c-2.5,.8,-5,2.1,-7.4,3.7l1.6,2.3c1.7,.1,3.1,.7,4.1,1.6c.3,.3,.6,.6,.9,1c.3,.4,.6,.8,.8,1.2c.1,.3,.3,.5,.3,.7c.1,.1,.1,.2,.2,.4l.7,.8V135.2H434Zm-3.6,9.4c-1.1,-1.8,-2.7,-3.2,-4.8,-4.1c.8,-.6,1.7,-1.1,2.5,-1.5c.7,-.4,1.5,-.7,2.3,-1v6.6Z" class="gh_198"/>
<g clip-path="url(#c0_198)">
<path d="M1877,177.2H32.1v-5.4H768.7c43.1,0,53,-37.9,115.3,-37.9h993Z" class="gi_198"/>
<path d="M1877,183.7H32.1v-9.8H768.7c43.1,0,53,-33.6,115.3,-33.6h993Z" class="gj_198"/>
</g>
<path d="M131.7,414.2v39l11.7,10.3V419.2Z" class="gk_198"/>
<path d="M131.7,414.2v39H829.5c0,0,16.8,0,16.8,-16.8V431c0,0,0,-16.8,-16.8,-16.8Z" class="g3_198"/>
<path d="M781,447.8c8.2,0,14.8,-6.5,14.8,-14.5c0,-8,-6.6,-14.5,-14.8,-14.5c-8.3,0,-14.9,6.5,-14.9,14.5c0,8,6.6,14.5,14.9,14.5Z" class="gl_198"/>
<path d="M781,447.8c8.2,0,14.8,-6.5,14.8,-14.5c0,-8,-6.6,-14.5,-14.8,-14.5c-8.3,0,-14.9,6.5,-14.9,14.5c0,8,6.6,14.5,14.9,14.5Z" class="gm_198"/>
<path d="M781,438.7c3,0,5.4,-2.4,5.4,-5.4c0,-3,-2.4,-5.3,-5.4,-5.3c-3.1,0,-5.5,2.3,-5.5,5.3c0,3,2.4,5.4,5.5,5.4Z" class="g1_198"/>
<path d="M781,438.7c3,0,5.4,-2.4,5.4,-5.4c0,-3,-2.4,-5.3,-5.4,-5.3c-3.1,0,-5.5,2.3,-5.5,5.3c0,3,2.4,5.4,5.5,5.4Z" class="gn_198"/>
<g clip-path="url(#ca_198)" opacity="0.3">
<path d="M766.4,432.5c0,0,-.1,-4.8,3.6,-8.6l7.8,6.7c0,0,-1,.9,-1.1,2.7Z" class="g1_198"/>
</g>
<path d="M785.6,433.2c0,0,-3.5,0,-3.5,3.5v8.7c0,0,0,3.4,3.5,3.4H829c0,0,3.5,0,3.5,-3.4v-8.7c0,0,0,-3.5,-3.5,-3.5Z" class="go_198"/>
<path d="M169.5,424.3c0,-8.4,-6.7,-15.1,-15,-15.1c-8.4,0,-15.1,6.7,-15.1,15.1c0,8.3,6.8,15,15.1,15c.8,0,1.6,-.1,2.4,-.2l4.5,5.2v-6.7c4.8,-2.5,8.1,-7.5,8.1,-13.3Z" class="g1_198"/>
<path d="M161.8,445.6l-5.1,-6c-.7,.1,-1.5,.2,-2.2,.2c-8.6,0,-15.6,-7,-15.6,-15.5c0,-8.6,7,-15.5,15.6,-15.5c8.5,0,15.5,6.9,15.5,15.5c0,5.7,-3.1,10.9,-8.2,13.6Zm-4.7,-7l3.8,4.5v-5.7l.3,-.2c4.8,-2.5,7.9,-7.5,7.9,-12.9c0,-8.1,-6.6,-14.6,-14.6,-14.6c-8.1,0,-14.6,6.5,-14.6,14.6c0,8,6.5,14.6,14.6,14.6c.7,0,1.5,-.1,2.3,-.2Z" class="gp_198"/>
<path d="M147.4,423.8c.8,0,1.5,.7,1.5,1.5c0,.8,-.7,1.4,-1.5,1.4c-.7,0,-1.4,-.6,-1.4,-1.4c0,-.8,.7,-1.5,1.4,-1.5Z" class="gq_198"/>
<path d="M147.4,427.2c-1,0,-1.8,-.9,-1.8,-1.9c0,-1.1,.8,-1.9,1.8,-1.9c1.1,0,1.9,.8,1.9,1.9c0,1,-.8,1.9,-1.9,1.9m0,-2.9c-.5,0,-.9,.4,-.9,1c0,.5,.4,1,.9,1c.6,0,1,-.5,1,-1c0,-.6,-.4,-1,-1,-1Z" class="gp_198"/>
<path d="M154.5,423.8c.8,0,1.4,.7,1.4,1.5c0,.8,-.6,1.4,-1.4,1.4c-.8,0,-1.5,-.6,-1.5,-1.4c0,-.8,.7,-1.5,1.5,-1.5Z" class="gq_198"/>
<path d="M154.5,427.2c-1.1,0,-1.9,-.9,-1.9,-1.9c0,-1.1,.8,-1.9,1.9,-1.9c1,0,1.9,.8,1.9,1.9c0,1,-.9,1.9,-1.9,1.9m0,-2.9c-.6,0,-1,.4,-1,1c0,.5,.4,1,1,1c.5,0,.9,-.5,.9,-1c0,-.6,-.4,-1,-.9,-1Z" class="gp_198"/>
<path d="M161.5,423.8c.8,0,1.4,.7,1.4,1.5c0,.8,-.6,1.4,-1.4,1.4c-.8,0,-1.5,-.6,-1.5,-1.4c0,-.8,.7,-1.5,1.5,-1.5Z" class="gq_198"/>
<path d="M161.5,427.2c-1.1,0,-1.9,-.9,-1.9,-1.9c0,-1.1,.8,-1.9,1.9,-1.9c1,0,1.9,.8,1.9,1.9c0,1,-.9,1.9,-1.9,1.9m0,-2.9c-.6,0,-1,.4,-1,1c0,.5,.4,1,1,1c.5,0,1,-.5,1,-1c0,-.6,-.5,-1,-1,-1Z" class="gp_198"/>
<path d="M163.4,438.5c0,-9.7,7.9,-17.6,17.6,-17.6c9.7,0,17.6,7.9,17.6,17.6c0,9.7,-7.9,17.6,-17.6,17.6c-.9,0,-1.9,-.1,-2.8,-.2l-5.3,6.1v-7.8c-5.6,-3,-9.5,-8.9,-9.5,-15.7Z" class="gr_198"/>
<path d="M172.9,462.5c0,0,-.1,-.1,-.1,-.1c-.2,0,-.3,-.2,-.3,-.4v-7.6c-5.9,-3.1,-9.6,-9.2,-9.6,-15.9c0,-10,8.2,-18.1,18.1,-18.1c10,0,18.1,8.1,18.1,18.1c0,10,-8.1,18.1,-18.1,18.1c-.8,0,-1.7,-.1,-2.6,-.2l-5.1,5.9c-.1,.1,-.2,.2,-.4,.2M181,421.4c-9.4,0,-17.1,7.6,-17.1,17.1c0,6.5,3.5,12.3,9.2,15.2c.2,.1,.3,.3,.3,.5v6.6l4.4,-5.2c.1,-.1,.3,-.2,.5,-.2c.9,.2,1.8,.3,2.7,.3c9.5,0,17.2,-7.7,17.2,-17.2c0,-9.5,-7.7,-17.1,-17.2,-17.1Z" class="gp_198"/>
<path d="M189.2,438c.9,0,1.7,.8,1.7,1.7c0,.9,-.8,1.7,-1.7,1.7c-.9,0,-1.7,-.8,-1.7,-1.7c0,-.9,.8,-1.7,1.7,-1.7Z" class="g1_198"/>
<path d="M189.2,441.8c-1.2,0,-2.1,-.9,-2.1,-2.1c0,-1.2,.9,-2.1,2.1,-2.1c1.2,0,2.1,.9,2.1,2.1c0,1.2,-.9,2.1,-2.1,2.1m0,-3.3c-.7,0,-1.2,.5,-1.2,1.2c0,.6,.5,1.2,1.2,1.2c.7,0,1.2,-.6,1.2,-1.2c0,-.7,-.5,-1.2,-1.2,-1.2Z" class="gp_198"/>
<path d="M181,438c.9,0,1.7,.8,1.7,1.7c0,.9,-.8,1.7,-1.7,1.7c-.9,0,-1.7,-.8,-1.7,-1.7c0,-.9,.8,-1.7,1.7,-1.7Z" class="g1_198"/>
<path d="M181,441.8c-1.2,0,-2.1,-.9,-2.1,-2.1c0,-1.2,.9,-2.1,2.1,-2.1c1.2,0,2.1,.9,2.1,2.1c0,1.2,-.9,2.1,-2.1,2.1m0,-3.3c-.7,0,-1.2,.5,-1.2,1.2c0,.6,.5,1.2,1.2,1.2c.7,0,1.2,-.6,1.2,-1.2c0,-.7,-.5,-1.2,-1.2,-1.2Z" class="gp_198"/>
<path d="M172.8,438c.9,0,1.7,.8,1.7,1.7c0,.9,-.8,1.7,-1.7,1.7c-.9,0,-1.7,-.8,-1.7,-1.7c0,-.9,.8,-1.7,1.7,-1.7Z" class="g1_198"/>
<path d="M172.8,441.8c-1.2,0,-2.1,-.9,-2.1,-2.1c0,-1.2,.9,-2.1,2.1,-2.1c1.2,0,2.1,.9,2.1,2.1c0,1.2,-.9,2.1,-2.1,2.1m0,-3.3c-.7,0,-1.2,.5,-1.2,1.2c0,.6,.5,1.2,1.2,1.2c.7,0,1.2,-.6,1.2,-1.2c0,-.7,-.5,-1.2,-1.2,-1.2Z" class="gp_198"/>
<image clip-path="url(#cb_198)" preserveAspectRatio="none" x="125" y="206" width="734" height="181" xlink:href="img/6.png"/>
<path d="M144.6,231.3c0,0,-13,0,-13,13v117c0,0,0,13,13,13H833.1c0,0,13,0,13,-13v-130Z" class="gs_198"/>
<path d="M147.7,294.1l54.1,40.8l54.1,-40.8V230h8.7V211.9H155.8c-6.5,.4,-7.7,3.9,-8.2,8.4Z" class="gt_198"/>
<path d="M274,220.3c-.3,-4.7,-4.2,-8.4,-9,-8.4c-4.8,0,-8.7,3.7,-9,8.4h-.1V230h18.2v-9.7Z" class="go_198"/>
<path d="M255.9,230.6H846.1" class="gu_198"/>
<path d="M531.1,750.3c24.8,-.7,44.8,-6.6,48.8,-14.3m-.8,-7c-5.6,-7.2,-25.4,-12.6,-49.5,-13.1m-7.4,.1c-24.8,.6,-44.8,6.6,-48.8,14.3m.8,6.9c5.6,7.3,25.4,12.7,49.5,13.1" class="gd_198"/>
<path d="M580.4,734.6c.2,-.5,.2,-1,.2,-1.5c0,-.5,0,-1,-.2,-1.5M528.1,715.9c-.5,0,-1,0,-1.4,0c-.6,0,-1,0,-1.5,0m-52.3,15.7c-.2,.5,-.2,1,-.2,1.5c0,.5,0,1,.2,1.5m52.3,15.7c.5,0,.9,0,1.5,0c.4,0,.9,0,1.4,0" class="ge_198"/>
<image clip-path="url(#cc_198)" preserveAspectRatio="none" x="704" y="638" width="227" height="254" xlink:href="img/7.png"/>
<path d="M713.1,642.2L709,883.3l212.3,2l4.1,-239.4Z" class="g7_198"/>
<image clip-path="url(#cd_198)" preserveAspectRatio="none" x="700" y="636" width="231" height="260" xlink:href="img/8.png"/>
<image clip-path="url(#ce_198)" preserveAspectRatio="none" x="699" y="635" width="232" height="261" xlink:href="img/9.png"/>
<path d="M704.5,649.3l10.1,239.8l180.1,-7.9l30.7,-34.8L916.7,640Z" class="g8_198"/>
<path d="M894.8,881.2l30.6,-34.7l-20,-5.7Z" class="g9_198"/>
<path d="M520,710.4c9,-11.6,38.7,-47.6,64.3,-49.4" class="gc_198"/>
<path d="M590.3,663.7c1.8,2.5,2.2,6.4,-7.9,9.5" class="gd_198"/>
<path d="M579.6,663.8c5.7,-5.4,21,-15.3,56.7,-16.6" class="gc_198"/>
<path d="M643.9,647.1c10.2,0,35.8,.9,57.2,9.6" class="gd_198"/>
<path d="M517.3,714.1c0,0,.3,-.5,.9,-1.3m67.6,-51.9c.5,0,1,0,1.5,0c0,0,.5,.3,1.1,.8m-7.3,11.9c-.4,.1,-.9,.2,-1.3,.3c0,0,-.9,-.3,-1.8,-1m-1.8,-3.6c0,-.6,.1,-1.3,.4,-2c0,0,.2,-.5,.9,-1.3m60.4,-18.8c.5,0,1,0,1.5,0c0,0,.6,-.1,1.5,-.1m61.5,10.2c.5,.2,1,.4,1.4,.6" class="ge_198"/>
<path d="M699,660.9l4.2,-8.2l8.1,9.7Z" class="gf_198"/>
<image clip-path="url(#cf_198)" x="816" y="639" width="5" height="10" xlink:href="shade/5.png"/>
<image clip-path="url(#cg_198)" x="815" y="613" width="25" height="28" xlink:href="shade/6.png"/>
<image clip-path="url(#ch_198)" x="815" y="615" width="23" height="34" xlink:href="shade/7.png"/>
<image clip-path="url(#ci_198)" x="820" y="611" width="20" height="10" xlink:href="shade/8.png"/>
<path d="M32.1,45.1H9.2m958.3,0h22.9M32.1,1331.3H9.2m958.3,0h22.9M45.1,32.1V9.2m0,1335.1v22.9M954.5,32.1V9.2m0,1335.1v22.9" class="gv_198"/>
<path d="M32.1,45.1H9.2m958.3,0h22.9M32.1,1331.3H9.2m958.3,0h22.9M45.1,32.1V9.2m0,1335.1v22.9M954.5,32.1V9.2m0,1335.1v22.9" class="gw_198"/>
<path d="M27.5,32.1H0m972.1,0h27.5M27.5,1344.3H0m972.1,0h27.5M32.1,27.5V0m0,1348.9v27.5M967.5,27.5V0m0,1348.9v27.5" class="gv_198"/>
<path d="M27.5,32.1H0m972.1,0h27.5M27.5,1344.3H0m972.1,0h27.5M32.1,27.5V0m0,1348.9v27.5M967.5,27.5V0m0,1348.9v27.5" class="gw_198"/>
</svg>