<?xml version="1.0" encoding="UTF-8" standalone="no"?>
<!DOCTYPE svg PUBLIC "-//W3C//DTD SVG 1.1//EN"
"http://www.w3.org/Graphics/SVG/1.1/DTD/svg11.dtd">
<svg viewBox="0 0 999 1376" version="1.1" xmlns="http://www.w3.org/2000/svg" xmlns:xlink="http://www.w3.org/1999/xlink">
<defs>
<clipPath id="c0_34"><path d="M32.1,1344.3V32.1H967.5V1344.3Z"/></clipPath>
<clipPath id="c1_34"><path d="M181.6,291.8l-6.5,-2l-14,-11.3V217.6h62.7v74.2Z"/></clipPath>
<clipPath id="c2_34"><path d="M32.1,1344.3V416.2H956.4v928.1Z"/></clipPath>
<style type="text/css"><![CDATA[
.g0_34{
fill: #FFFDEA;
}
.g1_34{
fill: #BCE4EA;
}
.g2_34{
fill: #BCBEC0;
}
.g3_34{
fill: #00AABD;
}
.g4_34{
fill: #FCDCBA;
}
.g5_34{
fill: #FFF;
}
.g6_34{
fill: #231F20;
}
.g7_34{
fill: none;
stroke: #FFF;
stroke-width: 1.909;
stroke-miterlimit: 10;
}
.g8_34{
fill: none;
stroke: #000;
stroke-width: 0.381;
stroke-miterlimit: 10;
}
]]></style>
</defs>
<g clip-path="url(#c0_34)">
<path d="M32.1,1344.3H1877V32.1H32.1V1344.3Z" class="g0_34"/>
<path d="M32.1,179.3H1877V32.1H32.1V179.3Z" class="g1_34"/>
<path d="M1877,177.2H32.1v-5.4H768.7c43.1,0,53,-37.9,115.3,-37.9h993Z" class="g2_34"/>
<path d="M1877,183.7H32.1v-9.8H768.7c43.1,0,53,-33.6,115.3,-33.6h993Z" class="g3_34"/>
</g>
<path d="M214.2,246.8c0,0,-13,0,-13,13v21.6c0,0,0,13,13,13H833.3c0,0,13,0,13,-13V259.8c0,0,0,-13,-13,-13Z" class="g4_34"/>
<image clip-path="url(#c1_34)" preserveAspectRatio="none" x="161" y="217" width="63" height="76" xlink:href="img/1.png"/>
<path d="M209,287.1c0,0,-26.8,11.3,-51.1,-12.8c0,0,15.2,25.3,49.3,24c0,0,24.8,.3,20.3,-10.1c0,0,1.2,-4.5,-18.5,-1.1Z" class="g4_34"/>
<path d="M254.6,328.3H375.8V488.6H254.6V328.3Zm138.6,0H514.4V488.6H393.2V328.3Zm138.5,0H653V488.6H531.7V328.3Zm138.6,0H791.6V488.6H670.3V328.3Z" class="g5_34"/>
<path d="M303.7,448.7v-3.1c-2.6,.3,-5.3,.6,-7,.6V437h-4v9.3H285v3.1c.4,0,7.9,.1,12,0c2.5,-.2,4.3,-.4,6.7,-.7Z" class="g6_34"/>
<path d="M302.8,442.7v-3.1h4.6V427.7h3.8v29h-3.8v-14Z" class="g6_34"/>
<path d="M440.8,442.2v-3.1c-1.7,.4,-3.8,.5,-7.3,.7c-3.5,.1,-12.5,.1,-13.1,.1v2.9h7.2v12.6h3.7V442.8c.7,0,1.5,0,2.1,-.1c3.5,-.2,5.4,-.2,7.4,-.5Z" class="g6_34"/>
<path d="M442.3,456.7v-29H446v10h7v3.1h-7v15.9Z" class="g6_34"/>
<path d="M587.6,442v-3.1c-1.6,.3,-5.3,.7,-8.3,.8l-12,.1v3h8.2v12.6h3.7V442.8c2.1,0,6.1,-.4,8.4,-.8Z" class="g6_34"/>
<path d="M563,456.7h3.8v-29H563v29Z" class="g6_34"/>
<path d="M716.6,443.5v-2.9c-1.1,.3,-2.5,.4,-5.4,.5c-2.7,.2,-10,.1,-10.4,.1v3h5.9v12.5h3.7V444.1c.3,0,.5,0,.8,0c2.8,-.2,3.8,-.2,5.4,-.6Z" class="g6_34"/>
<path d="M721.2,455.7v-28h-3.4v6.7H713v3h4.8v18.3Zm5.7,-28.3h-3.5v29h3.5v-29Z" class="g6_34"/>
<image clip-path="url(#c2_34)" preserveAspectRatio="none" x="31" y="417" width="925" height="929" xlink:href="img/2.png"/>
<path d="M32.1,45.1H9.2m958.3,0h22.9M32.1,1331.3H9.2m958.3,0h22.9M45.1,32.1V9.2m0,1335.1v22.9M954.5,32.1V9.2m0,1335.1v22.9" class="g7_34"/>
<path d="M32.1,45.1H9.2m958.3,0h22.9M32.1,1331.3H9.2m958.3,0h22.9M45.1,32.1V9.2m0,1335.1v22.9M954.5,32.1V9.2m0,1335.1v22.9" class="g8_34"/>
<path d="M27.5,32.1H0m972.1,0h27.5M27.5,1344.3H0m972.1,0h27.5M32.1,27.5V0m0,1348.9v27.5M967.5,27.5V0m0,1348.9v27.5" class="g7_34"/>
<path d="M27.5,32.1H0m972.1,0h27.5M27.5,1344.3H0m972.1,0h27.5M32.1,27.5V0m0,1348.9v27.5M967.5,27.5V0m0,1348.9v27.5" class="g8_34"/>
</svg>