<?xml version="1.0" encoding="UTF-8" standalone="no"?>
<!DOCTYPE svg PUBLIC "-//W3C//DTD SVG 1.1//EN"
"http://www.w3.org/Graphics/SVG/1.1/DTD/svg11.dtd">
<svg viewBox="0 0 999 1376" version="1.1" xmlns="http://www.w3.org/2000/svg" xmlns:xlink="http://www.w3.org/1999/xlink">
<defs>
<clipPath id="c0_117"><path d="M685.5,492.9V272.4H919.2V492.9Z"/></clipPath>
<clipPath id="c1_117"><path d="M678.4,501.6V265.1H924.8V501.6Z"/></clipPath>
<clipPath id="c2_117"><path d="M678.1,501.3V264.8H924.5V501.3Z"/></clipPath>
<clipPath id="c3_117"><path d="M199.2,249.5l-6.5,-2.1l-16.4,-14V176.3h72v73.2Z"/></clipPath>
<clipPath id="c4_117"><path d="M198.2,674.8l-6.5,-2.1L175.3,658.8V601.7h72v73.1Z"/></clipPath>
<clipPath id="c5_117"><path d="M198,1210.1l-6.5,-2.1l-16.4,-13.9V1137h72v73.1Z"/></clipPath>
<clipPath id="c6_117"><path d="M786.5,132.5V120.1H801v12.4Z"/></clipPath>
<clipPath id="c7_117"><path d="M791,299.5c-.2,-.1,3.6,-8.2,3.6,-8.2l.8,.5c0,0,-4.1,7.7,-4.4,7.7Z"/></clipPath>
<clipPath id="c8_117"><path d="M798.5,291.8c0,0,-6.8,-1.1,-7.6,-5.3c-.6,-3.6,1.6,-3.8,2.1,-3.8c.1,0,.2,0,.2,0L801.5,270L800,266.9c0,0,-.6,-1.1,.2,-2.1c0,0,.1,-.1,.3,-.1c2.1,0,12.9,5.6,12.9,5.6l.1,.1c-.4,.5,-.8,1.2,-1.4,1.7c-.7,.5,-5.1,1.1,-5.1,1.1l-8.5,18.6Z"/></clipPath>
<clipPath id="c9_117"><path d="M798.1,291.4c.2,-.5,.2,-1.8,0,-2.2v-1.4c-1.5,-.6,-2.8,-1.3,-3.6,-2.5c-1.1,.5,-2.1,1.2,-3.2,1.8c1.6,2.2,3.9,3.6,6.8,4.3Zm0,-3.9c2.2,-4.5,4,-9.5,6.2,-14.1c-.9,-.3,-1.9,-1.3,-2.7,-1.3c-2.3,4.3,-4.6,8.6,-7,12.8c.7,1.3,2.1,2,3.5,2.6Zm-7.3,12.1c1.1,-2.9,2.4,-5.5,3.6,-8.3c-2,-1.6,-4,-3.1,-4.4,-6.2v-1.5c-.1,-2.7,1.9,-3.4,4.5,-3.4c.1,0,.2,0,.2,0c2,-3.3,4.3,-6.3,6.2,-9.6c-.6,-.9,-1.2,-2.4,-.9,-3.7c.5,1.3,1.6,1.9,2.4,2.9c-.1,.6,-.3,1.1,-.4,1.8c.6,.6,1.4,1.1,2.4,1.3c.5,-.4,.5,-1.2,1.1,-1.5c1,.4,1.9,.8,3.2,.8c.1,.1,.5,.1,.8,.1c.3,0,.7,0,.8,-.1c.1,0,.2,0,.3,0c.2,0,.4,0,.6,-.1c.2,-.1,.4,-.1,.6,-.1c.1,0,.2,0,.3,.1c-1.3,.6,-2.2,1.7,-4.2,1.7c-.1,0,-.2,0,-.3,0c-.9,3.8,-1.9,7.4,-2.7,11.2c.6,1.1,1.5,1.7,1.3,3.1c-.5,2.8,-3.9,4.4,-7.2,4.4c-1.3,0,-2.6,-.2,-3.6,-.7c-1,2.1,-2.1,4.1,-3.3,6c0,-.3,.3,-.4,.2,-.7c1,-1.8,2,-3.6,2.7,-5.7c-1.1,1.7,-1.8,3.7,-2.8,5.5c-.2,.5,-.4,.9,-.6,1.3c-.3,.4,-.3,1.1,-.8,1.4Z"/></clipPath>
<clipPath id="ca_117"><path d="M808.6,271.8c-4.8,0,-13.1,-7.3,-5.6,-8.8h1.3c.1,.1,.3,.1,.5,.1q.1,0,.2,0c.3,0,.6,0,1,0c3.1,.7,8.3,3.8,7.6,7.1c-.3,1.1,-1.6,1.6,-3.2,1.6h-1.7q-.1,0,-.1,0Z"/></clipPath>
<style type="text/css"><![CDATA[
.g0_117{
fill: #FEFCF4;
}
.g1_117{
fill: #FFF;
}
.g2_117{
fill: none;
stroke: #6381B7;
stroke-width: 0.763;
}
.g3_117{
fill: #F7C2D9;
}
.g4_117{
fill: #FDF4F3;
}
.g5_117{
fill: #EC008C;
}
.g6_117{
fill: none;
stroke: #949698;
stroke-width: 0.305;
stroke-dasharray: 4,4;
}
.g7_117{
fill: none;
stroke: #949698;
stroke-width: 0.305;
stroke-dasharray: 3,3;
}
.g8_117{
fill: none;
stroke: #949698;
stroke-width: 0.305;
}
.g9_117{
fill: #6D6F71;
}
.ga_117{
fill: #6381B7;
}
.gb_117{
fill: none;
stroke: #6381B7;
stroke-width: 0.381;
stroke-dasharray: 2,1;
}
.gc_117{
fill: none;
stroke: #6381B7;
stroke-width: 0.381;
}
.gd_117{
fill: #FCE8B0;
}
.ge_117{
fill: #25408F;
}
.gf_117{
fill: #A8AAAD;
}
.gg_117{
fill: none;
stroke: #949698;
stroke-width: 0.549;
}
.gh_117{
fill: none;
stroke: #BCBEC0;
stroke-width: 2.566;
}
.gi_117{
fill: #231F20;
}
.gj_117{
fill: #363637;
}
.gk_117{
fill: #5CC4BE;
}
.gl_117{
fill: #F0D73F;
}
.gm_117{
fill: none;
stroke: #00ABE5;
stroke-width: 2.291;
}
.gn_117{
fill: #3D3B39;
}
.go_117{
fill: #E5E9B7;
}
.gp_117{
fill: #61C7CB;
}
.gq_117{
fill: none;
stroke: #00ABE5;
stroke-width: 1.527;
stroke-linecap: round;
stroke-linejoin: round;
stroke-dasharray: 0,5;
}
.gr_117{
fill: none;
stroke: #00ABE5;
stroke-width: 1.527;
stroke-linecap: round;
stroke-linejoin: round;
}
.gs_117{
fill: none;
stroke: #FFF;
stroke-width: 1.909;
stroke-miterlimit: 10;
}
.gt_117{
fill: none;
stroke: #000;
stroke-width: 0.381;
stroke-miterlimit: 10;
}
]]></style>
</defs>
<path d="M45.1,1344.3H967.5V32.1H45.1V1344.3Z" class="g0_117"/>
<path d="M172.3,137.3c0,0,-18.3,0,-18.3,18.4V553.8c0,0,0,18.4,18.3,18.4H849.4c0,0,18.4,0,18.4,-18.4V137.3Z" class="g1_117"/>
<path d="M172.3,137.3c0,0,-18.3,0,-18.3,18.4V553.8c0,0,0,18.4,18.3,18.4H849.4c0,0,18.4,0,18.4,-18.4V137.3H172.3Z" class="g2_117"/>
<image clip-path="url(#c0_117)" preserveAspectRatio="none" x="685" y="273" width="234" height="220" xlink:href="img/1.png"/>
<path d="M690.2,284.7L695,487l218.3,-7.9l-.8,-22.9L909.1,277.1Z" class="g3_117"/>
<image clip-path="url(#c1_117)" preserveAspectRatio="none" x="678" y="266" width="246" height="236" xlink:href="img/2.png"/>
<image clip-path="url(#c2_117)" preserveAspectRatio="none" x="678" y="265" width="246" height="237" xlink:href="img/3.png"/>
<path d="M683,294.3l20.8,201.2L888.5,474.4l29.7,-27L900.6,269.5Z" class="g4_117"/>
<path d="M888.5,475.1l30.2,-28.4L901.6,441Z" class="g5_117"/>
<path d="M367.2,362.4c14.2,-7.1,33.6,-9.8,41.1,-10.6m7.8,.5c11.4,1.5,40.2,4.2,54.3,-7.1" class="g6_117"/>
<path d="M472.4,339c-.6,-2.5,-2.4,-4.9,-7.2,-1.9" class="g7_117"/>
<path d="M462.1,343.1c1.4,2.1,6.8,3.5,23.3,.4" class="g6_117"/>
<path d="M493,341.9c106.5,-22.1,150.3,-33.6,187.8,-34" class="g7_117"/>
<path d="M363.1,364.7c.4,-.3,.9,-.5,1.3,-.8m45.4,-12.3c1,-.1,1.6,-.1,1.6,-.1c0,0,.6,.1,1.6,.3m58.6,-7.7c.4,-.3,.8,-.7,1.1,-1.1c0,0,.1,-.5,0,-1.3m-8.6,-3.8c-.3,.2,-.7,.5,-1.1,.8c0,0,-.4,.5,-.8,1.3m24.8,3.2c.5,-.1,1,-.2,1.6,-.3c.4,-.1,.9,-.2,1.4,-.3M682.3,307.9c.6,0,1.1,0,1.6,0" class="g8_117"/>
<path d="M350.3,393.1c10.8,-1.2,19.4,-6.8,21.2,-14m-.5,-7C368.5,365.2,359.7,360,348.9,359.2m-7.1,.1c-10.9,1.2,-19.4,6.9,-21.2,14.1m.4,7c2.6,6.9,11.4,12.1,22.2,12.9" class="g7_117"/>
<path d="M371.7,377.7c.1,-.5,.1,-1,.1,-1.5c0,-.4,0,-.9,-.1,-1.4M347.4,359.1c-.4,0,-.9,0,-1.4,0c-.5,0,-.9,0,-1.4,0m-24.3,15.7c0,.5,-.1,1,-.1,1.4c0,.5,.1,1,.1,1.5m24.3,15.6c.5,.1,.9,.1,1.4,.1c.5,0,1,0,1.4,-.1" class="g8_117"/>
<path d="M681,303.2l-1.5,8.7l11.9,-2.6Z" class="g9_117"/>
<path d="M166.7,588.5c0,0,-13,0,-13,13V756.7c0,0,0,13,13,13H854.5c0,0,13,0,13,-13V601.5c0,0,0,-13,-13,-13Z" class="g1_117"/>
<path d="M166.7,588.5c0,0,-13,0,-13,13V756.7c0,0,0,13,13,13H854.5c0,0,13,0,13,-13V601.5c0,0,0,-13,-13,-13H166.7Z" class="g2_117"/>
<path d="M478.5,786.9c0,0,-4.3,0,-4.3,4.3v10.9c0,0,0,4.3,4.3,4.3h30.3c0,0,4.4,0,4.4,-4.3V791.2c0,0,0,-4.3,-4.4,-4.3Z" class="ga_117"/>
<path d="M465.3,778v37.6m1.4,1H866.8m.9,-1.4V777.7m-1.3,-1H466.3" class="gb_117"/>
<path d="M465.3,816v.6h.6m401.2,0h.6V816m0,-38.7v-.6h-.6m-401.2,0h-.6v.6" class="gc_117"/>
<path d="M231.8,178.5c0,0,-13,0,-13,13v47.6c0,0,0,13,13,13h602c0,0,13,0,13,-13V191.5c0,0,0,-13,-13,-13Z" class="gd_117"/>
<image clip-path="url(#c3_117)" preserveAspectRatio="none" x="175" y="175" width="75" height="76" xlink:href="img/4.png"/>
<path d="M226.6,244.8c0,0,-26.9,11.3,-51.1,-12.8c0,0,15.1,25.3,49.3,24c0,0,24.7,.3,20.2,-10.1c0,0,1.2,-4.5,-18.4,-1.1Z" class="gd_117"/>
<path d="M230.9,630.7c0,0,-13,0,-13,13v21.6c0,0,0,13,13,13H832.8c0,0,13,0,13,-13V643.7c0,0,0,-13,-13,-13Z" class="gd_117"/>
<image clip-path="url(#c4_117)" preserveAspectRatio="none" x="174" y="600" width="75" height="76" xlink:href="img/5.png"/>
<path d="M225.7,670.1c0,0,-26.9,11.3,-51.1,-12.8c0,0,15.1,25.4,49.2,24c0,0,24.8,.4,20.3,-10.1c0,0,1.2,-4.5,-18.4,-1.1Z" class="gd_117"/>
<path d="M230.6,1108.8c0,0,-13,0,-13,13v78c0,0,0,12.9,13,12.9h624c0,0,13,0,13,-12.9v-78c0,0,0,-13,-13,-13Z" class="gd_117"/>
<image clip-path="url(#c5_117)" preserveAspectRatio="none" x="174" y="1135" width="74" height="77" xlink:href="img/6.png"/>
<path d="M225.4,1205.4c0,0,-26.8,11.3,-51.1,-12.8c0,0,15.2,25.3,49.3,24c0,0,24.7,.3,20.2,-10.1c0,0,1.3,-4.5,-18.4,-1.1Z" class="gd_117"/>
<path d="M153.3,111.9v39L165,161.2V117Z" class="ge_117"/>
<path d="M153.3,111.9v39H851.1c0,0,16.8,0,16.8,-16.8v-5.3c0,0,0,-16.9,-16.8,-16.9Z" class="ga_117"/>
<path d="M802.6,145.6c8.2,0,14.9,-6.5,14.9,-14.5c0,-8.1,-6.7,-14.5,-14.9,-14.5c-8.2,0,-14.9,6.4,-14.9,14.5c0,8,6.7,14.5,14.9,14.5Z" class="gf_117"/>
<path d="M802.6,145.6c8.2,0,14.9,-6.5,14.9,-14.5c0,-8.1,-6.7,-14.5,-14.9,-14.5c-8.2,0,-14.9,6.4,-14.9,14.5c0,8,6.7,14.5,14.9,14.5Z" class="gg_117"/>
<path d="M802.6,136.4c3,0,5.5,-2.4,5.5,-5.3c0,-3,-2.5,-5.4,-5.5,-5.4c-3,0,-5.5,2.4,-5.5,5.4c0,2.9,2.5,5.3,5.5,5.3Z" class="g1_117"/>
<path d="M802.6,136.4c3,0,5.5,-2.4,5.5,-5.3c0,-3,-2.5,-5.4,-5.5,-5.4c-3,0,-5.5,2.4,-5.5,5.4c0,2.9,2.5,5.3,5.5,5.3Z" class="gh_117"/>
<g clip-path="url(#c6_117)" opacity="0.3">
<path d="M788,130.3c0,0,0,-4.8,3.7,-8.7l7.7,6.8c0,0,-1,.9,-1,2.6Z" class="g1_117"/>
</g>
<path d="M807.2,131c0,0,-3.5,0,-3.5,3.4v8.7c0,0,0,3.5,3.5,3.5h43.5c0,0,3.5,0,3.5,-3.5v-8.7c0,0,0,-3.4,-3.5,-3.4Z" class="gi_117"/>
<path d="M191.2,122c0,-8.3,-6.8,-15,-15.1,-15c-8.3,0,-15,6.7,-15,15c0,8.3,6.7,15.1,15,15.1c.8,0,1.7,-.1,2.4,-.2l4.5,5.2v-6.7c4.9,-2.5,8.2,-7.6,8.2,-13.4Z" class="g1_117"/>
<path d="M183.5,143.3l-5.1,-5.9c-.8,.1,-1.5,.1,-2.3,.1c-8.5,0,-15.5,-6.9,-15.5,-15.5c0,-8.5,7,-15.5,15.5,-15.5c8.6,0,15.5,7,15.5,15.5c0,5.7,-3.1,11,-8.1,13.7Zm-4.8,-6.9l3.9,4.5v-5.8l.2,-.1c4.9,-2.5,7.9,-7.5,7.9,-13c0,-8,-6.5,-14.6,-14.6,-14.6c-8,0,-14.6,6.6,-14.6,14.6c0,8.1,6.6,14.6,14.6,14.6c.8,0,1.6,-.1,2.4,-.2Z" class="gj_117"/>
<path d="M169.1,121.6c.8,0,1.4,.6,1.4,1.4c0,.8,-.6,1.5,-1.4,1.5c-.8,0,-1.4,-.7,-1.4,-1.5c0,-.8,.6,-1.4,1.4,-1.4Z" class="gk_117"/>
<path d="M169.1,124.9c-1,0,-1.9,-.8,-1.9,-1.9c0,-1,.9,-1.9,1.9,-1.9c1,0,1.9,.9,1.9,1.9c0,1.1,-.9,1.9,-1.9,1.9m0,-2.9c-.5,0,-1,.5,-1,1c0,.6,.5,1,1,1c.5,0,1,-.4,1,-1c0,-.5,-.5,-1,-1,-1Z" class="gj_117"/>
<path d="M176.1,121.6c.8,0,1.5,.6,1.5,1.4c0,.8,-.7,1.5,-1.5,1.5c-.8,0,-1.4,-.7,-1.4,-1.5c0,-.8,.6,-1.4,1.4,-1.4Z" class="gk_117"/>
<path d="M176.1,124.9c-1,0,-1.9,-.8,-1.9,-1.9c0,-1,.9,-1.9,1.9,-1.9c1.1,0,1.9,.9,1.9,1.9c0,1.1,-.8,1.9,-1.9,1.9m0,-2.9c-.5,0,-1,.5,-1,1c0,.6,.5,1,1,1c.6,0,1,-.4,1,-1c0,-.5,-.4,-1,-1,-1Z" class="gj_117"/>
<path d="M183.1,121.6c.8,0,1.5,.6,1.5,1.4c0,.8,-.7,1.5,-1.5,1.5c-.8,0,-1.4,-.7,-1.4,-1.5c0,-.8,.6,-1.4,1.4,-1.4Z" class="gk_117"/>
<path d="M183.1,124.9c-1,0,-1.9,-.8,-1.9,-1.9c0,-1,.9,-1.9,1.9,-1.9c1.1,0,1.9,.9,1.9,1.9c0,1.1,-.8,1.9,-1.9,1.9m0,-2.9c-.5,0,-1,.5,-1,1c0,.6,.5,1,1,1c.6,0,1,-.4,1,-1c0,-.5,-.4,-1,-1,-1Z" class="gj_117"/>
<path d="M185.1,136.3c0,-9.8,7.8,-17.7,17.6,-17.7c9.7,0,17.6,7.9,17.6,17.7c0,9.7,-7.9,17.6,-17.6,17.6c-1,0,-1.9,-.1,-2.9,-.3l-5.2,6.1v-7.8c-5.7,-2.9,-9.5,-8.8,-9.5,-15.6Z" class="gl_117"/>
<path d="M194.6,160.2q-.1,0,-.2,0c-.2,-.1,-.3,-.3,-.3,-.5v-7.5c-5.9,-3.2,-9.5,-9.2,-9.5,-15.9c0,-10,8.1,-18.1,18.1,-18.1c9.9,0,18,8.1,18,18.1c0,9.9,-8.1,18,-18,18c-.9,0,-1.8,0,-2.7,-.2l-5.1,5.9c-.1,.1,-.2,.2,-.3,.2m8.1,-41.1c-9.5,0,-17.2,7.7,-17.2,17.2c0,6.4,3.6,12.2,9.3,15.2c.1,.1,.2,.2,.2,.4v6.6l4.5,-5.2c.1,-.1,.3,-.1,.4,-.1c1,.1,1.9,.2,2.8,.2c9.4,0,17.1,-7.7,17.1,-17.1c0,-9.5,-7.7,-17.2,-17.1,-17.2Z" class="gj_117"/>
<path d="M210.9,135.8c.9,0,1.6,.7,1.6,1.6c0,1,-.7,1.7,-1.6,1.7c-1,0,-1.7,-.7,-1.7,-1.7c0,-.9,.7,-1.6,1.7,-1.6Z" class="g1_117"/>
<path d="M210.9,139.6c-1.2,0,-2.2,-1,-2.2,-2.2c0,-1.1,1,-2.1,2.2,-2.1c1.1,0,2.1,1,2.1,2.1c0,1.2,-1,2.2,-2.1,2.2m0,-3.4c-.7,0,-1.3,.6,-1.3,1.2c0,.7,.6,1.3,1.3,1.3c.6,0,1.2,-.6,1.2,-1.3c0,-.6,-.6,-1.2,-1.2,-1.2Z" class="gj_117"/>
<path d="M202.7,135.8c.9,0,1.6,.7,1.6,1.6c0,1,-.7,1.7,-1.6,1.7c-1,0,-1.7,-.7,-1.7,-1.7c0,-.9,.7,-1.6,1.7,-1.6Z" class="g1_117"/>
<path d="M202.7,139.6c-1.2,0,-2.2,-1,-2.2,-2.2c0,-1.1,1,-2.1,2.2,-2.1c1.1,0,2.1,1,2.1,2.1c0,1.2,-1,2.2,-2.1,2.2m0,-3.4c-.7,0,-1.3,.6,-1.3,1.2c0,.7,.6,1.3,1.3,1.3c.6,0,1.2,-.6,1.2,-1.3c0,-.6,-.6,-1.2,-1.2,-1.2Z" class="gj_117"/>
<path d="M194.5,135.8c.9,0,1.6,.7,1.6,1.6c0,1,-.7,1.7,-1.6,1.7c-1,0,-1.7,-.7,-1.7,-1.7c0,-.9,.7,-1.6,1.7,-1.6Z" class="g1_117"/>
<path d="M194.5,139.6c-1.2,0,-2.2,-1,-2.2,-2.2c0,-1.1,1,-2.1,2.2,-2.1c1.1,0,2.1,1,2.1,2.1c0,1.2,-1,2.2,-2.1,2.2m0,-3.4c-.7,0,-1.2,.6,-1.2,1.2c0,.7,.5,1.3,1.2,1.3c.6,0,1.2,-.6,1.2,-1.3c0,-.6,-.6,-1.2,-1.2,-1.2Z" class="gj_117"/>
<image clip-path="url(#c7_117)" x="790" y="291" width="6" height="9" xlink:href="shade/1.png"/>
<image clip-path="url(#c8_117)" x="790" y="264" width="24" height="28" xlink:href="shade/2.png"/>
<image clip-path="url(#c9_117)" x="789" y="266" width="24" height="34" xlink:href="shade/3.png"/>
<image clip-path="url(#ca_117)" x="795" y="263" width="20" height="9" xlink:href="shade/4.png"/>
<path d="M154.5,917.6V888.9c0,0,0,-4.4,4.3,-4.4H862.4c0,0,4.4,0,4.4,4.4V918" class="gm_117"/>
<path d="M200.1,885.1c2.6,0,4.8,-2.2,4.8,-4.8c0,-2.7,-2.2,-4.8,-4.8,-4.8c-2.7,0,-4.8,2.1,-4.8,4.8c0,2.6,2.1,4.8,4.8,4.8Z" class="g1_117"/>
<path d="M200.1,887c3.6,0,6.6,-3,6.6,-6.7c0,-3.7,-3,-6.7,-6.6,-6.7c-3.7,0,-6.7,3,-6.7,6.7c0,3.7,3,6.7,6.7,6.7m0,-11.5c2.6,0,4.8,2.1,4.8,4.8c0,2.6,-2.2,4.8,-4.8,4.8c-2.7,0,-4.8,-2.2,-4.8,-4.8c0,-2.7,2.1,-4.8,4.8,-4.8Z" class="gn_117"/>
<path d="M205.5,888.9H194.6c-.1,0,-.3,0,-.4,0c2.7,1.1,4.9,3.4,5.9,6.2c1.3,-.5,2.7,-.8,4.2,-.8c2.9,0,5.5,1,7.5,2.7v-1.8c0,-3.5,-2.8,-6.3,-6.3,-6.3Z" class="g1_117"/>
<path d="M184,885.9c3.4,0,6.1,-2.7,6.1,-6.1c0,-3.4,-2.7,-6.2,-6.1,-6.2c-3.4,0,-6.1,2.8,-6.1,6.2c0,3.4,2.7,6.1,6.1,6.1Z" class="go_117"/>
<path d="M184,887.8c4.4,0,8,-3.6,8,-8c0,-4.4,-3.6,-8,-8,-8c-4.4,0,-8,3.6,-8,8c0,4.4,3.6,8,8,8m0,-14.2c3.4,0,6.1,2.8,6.1,6.2c0,3.4,-2.7,6.1,-6.1,6.1c-3.4,0,-6.1,-2.7,-6.1,-6.1c0,-3.4,2.7,-6.2,6.1,-6.2Z" class="gn_117"/>
<path d="M198.4,895.9c-1,-3.3,-4.1,-5.7,-7.7,-5.7H177.3c-4.4,0,-8,3.5,-8,8v4.3h23.8c.9,-2.8,2.8,-5.1,5.3,-6.6Z" class="go_117"/>
<path d="M204.3,896.2c-5.5,0,-9.9,4.5,-9.9,10c0,5.5,4.4,9.9,9.9,9.9c5.5,0,10,-4.4,10,-9.9c0,-5.5,-4.5,-10,-10,-10m6.7,11.7c0,.2,-.2,.4,-.5,.4h-4v4.1c0,.2,-.2,.4,-.5,.4h-3.3c-.3,0,-.5,-.2,-.5,-.4v-4.1h-4.1c-.2,0,-.4,-.2,-.4,-.4v-3.4c0,-.3,.2,-.5,.4,-.5h4.1v-4c0,-.3,.2,-.5,.5,-.5H206c.3,0,.5,.2,.5,.5v4h4c.3,0,.5,.2,.5,.5Z" class="gp_117"/>
<path d="M213.7,898.9v-3.7c0,-4.5,-3.7,-8.2,-8.2,-8.2H194.6c-1.6,0,-3.1,.5,-4.3,1.3h-13c-5.4,0,-9.9,4.4,-9.9,9.9v5.2c0,.5,.4,1,1,1h24.2c-.1,.6,-.1,1.2,-.1,1.8c0,6.5,5.3,11.8,11.8,11.8c6.6,0,11.9,-5.3,11.9,-11.8c0,-2.8,-.9,-5.3,-2.5,-7.3m-9.4,17.2c-5.5,0,-9.9,-4.4,-9.9,-9.9c0,-5.5,4.4,-10,9.9,-10c5.5,0,10,4.5,10,10c0,5.5,-4.5,9.9,-10,9.9m-35,-17.9c0,-4.5,3.6,-8,8,-8h13.4c3.6,0,6.7,2.4,7.7,5.7c-2.5,1.5,-4.4,3.8,-5.3,6.6H169.3ZM211.8,897c-2,-1.7,-4.6,-2.7,-7.5,-2.7c-1.5,0,-2.9,.3,-4.2,.8c-1,-2.8,-3.2,-5.1,-5.9,-6.2c.1,0,.3,0,.4,0h10.9c3.5,0,6.3,2.8,6.3,6.3Z" class="gn_117"/>
<path d="M205.5,904.5v-4h-2.4v4c0,.3,-.2,.5,-.4,.5h-4.1v2.4h4.1c.2,0,.4,.2,.4,.5v4h2.4v-4c0,-.3,.3,-.5,.5,-.5h4.1V905H206c-.2,0,-.5,-.2,-.5,-.5Z" class="g1_117"/>
<path d="M210.5,904h-4v-4c0,-.3,-.2,-.5,-.5,-.5h-3.3c-.3,0,-.5,.2,-.5,.5v4h-4.1c-.2,0,-.4,.2,-.4,.5v3.4c0,.2,.2,.4,.4,.4h4.1v4.1c0,.2,.2,.4,.5,.4H206c.3,0,.5,-.2,.5,-.4v-4.1h4c.3,0,.5,-.2,.5,-.4v-3.4c0,-.3,-.2,-.5,-.5,-.5m-.4,3.4H206c-.2,0,-.5,.2,-.5,.5v4h-2.4v-4c0,-.3,-.2,-.5,-.4,-.5h-4.1V905h4.1c.2,0,.4,-.2,.4,-.5v-4h2.4v4c0,.3,.3,.5,.5,.5h4.1Z" class="gn_117"/>
<path d="M154.1,927.7v160.5m4.6,2.3H864.9m2.2,-4.5V925.4m-4.5,-2.3H156.4" class="gq_117"/>
<path d="M154.1,1090.5v0m713.1,0v0m0,-167.4v0m-713.1,0v0" class="gr_117"/>
<path d="M32.1,45.1H9.2m958.3,0h22.9M32.1,1331.3H9.2m958.3,0h22.9M45.1,32.1V9.2m0,1335.1v22.9M954.5,32.1V9.2m0,1335.1v22.9" class="gs_117"/>
<path d="M32.1,45.1H9.2m958.3,0h22.9M32.1,1331.3H9.2m958.3,0h22.9M45.1,32.1V9.2m0,1335.1v22.9M954.5,32.1V9.2m0,1335.1v22.9" class="gt_117"/>
<path d="M27.5,32.1H0m972.1,0h27.5M27.5,1344.3H0m972.1,0h27.5M32.1,27.5V0m0,1348.9v27.5M967.5,27.5V0m0,1348.9v27.5" class="gs_117"/>
<path d="M27.5,32.1H0m972.1,0h27.5M27.5,1344.3H0m972.1,0h27.5M32.1,27.5V0m0,1348.9v27.5M967.5,27.5V0m0,1348.9v27.5" class="gt_117"/>
</svg>