<?xml version="1.0" encoding="UTF-8" standalone="no"?>
<!DOCTYPE svg PUBLIC "-//W3C//DTD SVG 1.1//EN"
"http://www.w3.org/Graphics/SVG/1.1/DTD/svg11.dtd">
<svg viewBox="0 0 999 1376" version="1.1" xmlns="http://www.w3.org/2000/svg" xmlns:xlink="http://www.w3.org/1999/xlink">
<defs>
<clipPath id="c0_143"><path d="M32.1,1344.3V32.1H967.5V1344.3Z"/></clipPath>
<clipPath id="c1_143"><path d="M307.9,949.1V884.2h65.9v64.9Z"/></clipPath>
<clipPath id="c2_143"><path d="M198.2,784.3l-6.5,-2.1L175.4,768.3V711.2h71.9v73.1Z"/></clipPath>
<clipPath id="c3_143"><path d="M200.1,137.2c.1,-1.3,.7,-2.5,1.6,-3.4c1,-1,2.3,-1.6,3.9,-1.6h19.2v5Z"/></clipPath>
<clipPath id="c4_143"><path d="M199.5,137.7v-6h25.8v6Z"/></clipPath>
<style type="text/css"><![CDATA[
.g0_143{
fill: #FEFCF4;
}
.g1_143{
fill: #DCE9F3;
}
.g2_143{
fill: #9BD1EA;
}
.g3_143{
fill: #FFF;
}
.g4_143{
fill: none;
stroke: #58595B;
stroke-width: 0.381;
stroke-miterlimit: 10;
}
.g5_143{
fill: none;
stroke: #6381B7;
stroke-width: 0.763;
}
.g6_143{
fill: none;
stroke: #231F20;
stroke-width: 0.435;
}
.g7_143{
fill: #1B5B94;
}
.g8_143{
fill: none;
stroke: #818385;
stroke-width: 0.618;
stroke-miterlimit: 10;
}
.g9_143{
fill: none;
stroke: #231F20;
stroke-width: 0.305;
stroke-miterlimit: 10;
}
.ga_143{
fill: #48484A;
}
.gb_143{
fill: #F0E8F3;
}
.gc_143{
fill: #766FA6;
}
.gd_143{
fill: #6381B7;
}
.ge_143{
fill: none;
stroke: #6381B7;
stroke-width: 0.381;
stroke-dasharray: 2,1;
}
.gf_143{
fill: none;
stroke: #6381B7;
stroke-width: 0.381;
}
.gg_143{
fill: #FCE8B0;
}
.gh_143{
fill: #25408F;
}
.gi_143{
fill: none;
stroke: #231F20;
stroke-width: 1.527;
}
.gj_143{
fill: #39B4D1;
stroke: #2D2A4A;
stroke-width: 1.038;
stroke-linecap: round;
stroke-linejoin: round;
}
.gk_143{
fill: #2D2A4A;
}
.gl_143{
fill: none;
stroke: #2D2A4A;
stroke-width: 1.038;
stroke-linecap: round;
stroke-linejoin: round;
}
.gm_143{
fill: #DEDAD3;
}
.gn_143{
fill: #29263F;
}
.go_143{
fill: #E15F46;
stroke: #2D2A4A;
stroke-width: 1.038;
stroke-linecap: round;
stroke-linejoin: round;
}
.gp_143{
fill: #FDF9EC;
}
.gq_143{
fill: none;
stroke: #F89C47;
stroke-width: 1.527;
stroke-linecap: round;
stroke-linejoin: round;
stroke-dasharray: 0,5;
}
.gr_143{
fill: none;
stroke: #F89C47;
stroke-width: 1.527;
stroke-linecap: round;
stroke-linejoin: round;
}
.gs_143{
fill: none;
stroke: #F89C47;
stroke-width: 7.638;
stroke-linecap: round;
stroke-linejoin: round;
}
.gt_143{
fill: none;
stroke: #FFF;
stroke-width: 1.909;
stroke-miterlimit: 10;
}
.gu_143{
fill: none;
stroke: #000;
stroke-width: 0.381;
stroke-miterlimit: 10;
}
]]></style>
</defs>
<path clip-path="url(#c0_143)" d="M-877.3,1344.3H45.1V32.1H-877.3V1344.3Z" class="g0_143"/>
<path d="M170.7,166.3c0,0,-17.4,0,-17.4,17.4V407c0,0,0,17.3,17.4,17.3H850.6c0,0,17.3,0,17.3,-17.3V183.7c0,0,0,-17.4,-17.3,-17.4Z" class="g1_143"/>
<path d="M250.8,218.2H467.3v30.1H250.8V218.2Zm216.5,0H770.4v30.1H467.3V218.2Z" class="g2_143"/>
<path d="M250.8,248.3H467.3v53.4H250.8V248.3Zm216.5,0H770.4v53.4H467.3V248.3Z" class="g3_143"/>
<path d="M250.8,218.2H467.3m0,0H770.4M467.3,248.1V218.4M250.8,248.3H467.3m0,0H770.4M467.3,301.5v-53M250.8,301.7H467.3m0,0H770.4" class="g4_143"/>
<path d="M166.5,798.2c0,0,-13,0,-13,13v371.6c0,0,0,13,13,13h688c0,0,13,0,13,-13V811.2c0,0,0,-13,-13,-13Z" class="g3_143"/>
<path d="M166.5,798.2c0,0,-13,0,-13,13v371.6c0,0,0,13,13,13h688c0,0,13,0,13,-13V811.2c0,0,0,-13,-13,-13h-688Z" class="g5_143"/>
<path d="M198.8,857.8H866.6V838.7H198.8v19.1Z" class="g3_143"/>
<path d="M279.1,974.8c-16,0,-28.8,12.9,-28.8,28.8c0,15.9,12.8,28.8,28.8,28.8c15.9,0,28.8,-12.9,28.8,-28.8c0,-15.9,-12.9,-28.8,-28.8,-28.8Z" class="g3_143"/>
<path d="M279.1,974.8c-16,0,-28.8,12.9,-28.8,28.8c0,15.9,12.8,28.8,28.8,28.8c15.9,0,28.8,-12.9,28.8,-28.8c0,-15.9,-12.9,-28.8,-28.8,-28.8Z" class="g6_143"/>
<path d="M279.1,976.4c-15.1,0,-27.3,12.2,-27.3,27.2c0,15.1,12.2,27.3,27.3,27.3c15,0,27.2,-12.2,27.2,-27.3c0,-15,-12.2,-27.2,-27.2,-27.2Z" class="g7_143"/>
<path d="M276.4,1010.3c0,0,-6.4,-1.4,-6.5,-1.4c-.6,0,-1.1,.5,-1.1,1.1c0,.2,.2,.6,.2,.6l9.3,13.3c.2,.2,.4,.3,.7,.3c.3,0,.6,-.1,.8,-.3l9.3,-13.3c.2,-.2,.2,-.4,.2,-.6c0,-.6,-.5,-1.1,-1.1,-1.1c-.1,0,-6.6,1.4,-6.6,1.4V983h-5.2Z" class="g3_143"/>
<path d="M567.4,974.8c-15.9,0,-28.8,12.9,-28.8,28.8c0,15.9,12.9,28.8,28.8,28.8c15.9,0,28.8,-12.9,28.8,-28.8c0,-15.9,-12.9,-28.8,-28.8,-28.8Z" class="g3_143"/>
<path d="M567.4,974.8c-15.9,0,-28.8,12.9,-28.8,28.8c0,15.9,12.9,28.8,28.8,28.8c15.9,0,28.8,-12.9,28.8,-28.8c0,-15.9,-12.9,-28.8,-28.8,-28.8Z" class="g6_143"/>
<path d="M567.4,976.4c-15.1,0,-27.3,12.2,-27.3,27.2c0,15.1,12.2,27.3,27.3,27.3c15.1,0,27.3,-12.2,27.3,-27.3c0,-15,-12.2,-27.2,-27.3,-27.2Z" class="g7_143"/>
<path d="M573.4,997.2c0,0,-1.3,6.4,-1.3,6.6c0,.6,.5,1,1,1c.3,0,.7,-.1,.7,-.1l13.1,-9.2c.2,-.2,.3,-.5,.3,-.8c0,-.3,-.1,-.6,-.3,-.8l-13.1,-9.2c-.2,-.1,-.4,-.2,-.7,-.2c-.5,0,-1,.5,-1,1.1c0,.1,1.3,6.5,1.3,6.5h-6.5c-5.4,0,-9.8,4.4,-9.8,9.8v21.5h5.1v-21.5c0,-2.6,2.1,-4.7,4.7,-4.7Z" class="g3_143"/>
<path d="M279.1,1049.1c-16,0,-28.8,12.9,-28.8,28.8c0,15.9,12.8,28.8,28.8,28.8c15.9,0,28.8,-12.9,28.8,-28.8c0,-15.9,-12.9,-28.8,-28.8,-28.8Z" class="g3_143"/>
<path d="M279.1,1049.1c-16,0,-28.8,12.9,-28.8,28.8c0,15.9,12.8,28.8,28.8,28.8c15.9,0,28.8,-12.9,28.8,-28.8c0,-15.9,-12.9,-28.8,-28.8,-28.8Z" class="g6_143"/>
<path d="M279.1,1050.6c-15.1,0,-27.3,12.2,-27.3,27.3c0,15.1,12.2,27.3,27.3,27.3c15,0,27.2,-12.2,27.2,-27.3c0,-15.1,-12.2,-27.3,-27.2,-27.3Z" class="g7_143"/>
<path d="M274.9,1071.5c0,0,1.3,6.4,1.3,6.5c0,.6,-.5,1.1,-1.1,1.1c-.2,0,-.6,-.2,-.6,-.2l-13.1,-9.2c-.2,-.2,-.4,-.5,-.4,-.8c0,-.3,.2,-.5,.4,-.7l13.1,-9.2c.2,-.2,.4,-.2,.6,-.2c.6,0,1.1,.4,1.1,1c0,.2,-1.3,6.6,-1.3,6.6h6.5c5.4,0,9.8,4.4,9.8,9.8v21.5h-5.1v-21.6c0,-2.6,-2.1,-4.6,-4.7,-4.6Z" class="g3_143"/>
<path d="M567.4,1049.1c-15.9,0,-28.8,12.9,-28.8,28.8c0,15.9,12.9,28.8,28.8,28.8c15.9,0,28.8,-12.9,28.8,-28.8c0,-15.9,-12.9,-28.8,-28.8,-28.8Z" class="g3_143"/>
<path d="M567.4,1049.1c-15.9,0,-28.8,12.9,-28.8,28.8c0,15.9,12.9,28.8,28.8,28.8c15.9,0,28.8,-12.9,28.8,-28.8c0,-15.9,-12.9,-28.8,-28.8,-28.8Z" class="g6_143"/>
<path d="M567.4,1050.6c-15.1,0,-27.3,12.2,-27.3,27.3c0,15.1,12.2,27.3,27.3,27.3c15.1,0,27.3,-12.2,27.3,-27.3c0,-15.1,-12.2,-27.3,-27.3,-27.3Z" class="g7_143"/>
<path d="M548.4,1090.3h6.9v-7h6.9v-6.9h7v-7h7v-7h10.2v3.3h-6.9v7h-7v7h-7v6.9h-6.9v7H548.4Z" class="g3_143"/>
<path d="M560.6,1068.5c0,0,-4.1,4.1,-5.9,5.9c-.5,.5,-1.3,.5,-1.8,0c-.5,-.4,-.5,-1.2,0,-1.7c1.6,-1.6,5.9,-5.9,5.9,-5.9c0,0,-.6,0,-3.3,0c-.7,0,-1.2,-.6,-1.2,-1.3c0,-.7,.5,-1.2,1.2,-1.2h6.3c.7,0,1.3,.5,1.3,1.2v6.3c0,.6,-.6,1.2,-1.3,1.2c-.7,0,-1.2,-.6,-1.2,-1.2Z" class="g3_143"/>
<path d="M279.1,1123.3c-16,0,-28.8,12.9,-28.8,28.8c0,15.9,12.8,28.8,28.8,28.8c15.9,0,28.8,-12.9,28.8,-28.8c0,-15.9,-12.9,-28.8,-28.8,-28.8Z" class="g3_143"/>
<path d="M279.1,1123.3c-16,0,-28.8,12.9,-28.8,28.8c0,15.9,12.8,28.8,28.8,28.8c15.9,0,28.8,-12.9,28.8,-28.8c0,-15.9,-12.9,-28.8,-28.8,-28.8Z" class="g6_143"/>
<path d="M279.1,1124.9c-15.1,0,-27.3,12.2,-27.3,27.2c0,15.1,12.2,27.3,27.3,27.3c15,0,27.2,-12.2,27.2,-27.3c0,-15,-12.2,-27.2,-27.2,-27.2Z" class="g7_143"/>
<path d="M260,1164.6h6.9v-7h7v-7h7v-7h6.9v-6.9h10.3v3.3h-7v6.9h-6.9v7h-7v7h-7v7H260Z" class="g3_143"/>
<path d="M284.2,1162.9c0,0,4.1,-4,6,-5.9c.5,-.5,1.2,-.5,1.7,0c.5,.5,.5,1.3,0,1.8c-1.5,1.5,-5.9,5.9,-5.9,5.9c0,0,.6,0,3.3,0c.7,0,1.2,.5,1.2,1.2c0,.7,-.5,1.3,-1.2,1.3H283c-.7,0,-1.2,-.6,-1.2,-1.3v-6.2c0,-.7,.5,-1.3,1.2,-1.3c.7,0,1.2,.6,1.2,1.3Z" class="g3_143"/>
<path d="M327.3,1009.8h70.1m-70.1,74.3h70.1m-70.1,74.2h70.1" class="g8_143"/>
<path d="M316.2,1163.5H519.7V971.2H316.2v192.3Z" class="g3_143"/>
<path d="M333.5,1011.2h68.8M333.5,1086h68.8m-68.8,74.9h68.8M620.2,1011.2H689M620.2,1086H689" class="g9_143"/>
<path d="M201.7,885.3c0,0,-4.3,0,-4.3,4.3v14.8c0,0,0,4.3,4.1,5.8l52.4,18.5c0,0,4.1,1.4,4.1,-2.9V889.6c0,0,0,-4.3,-4.3,-4.3Z" class="ga_143"/>
<path d="M222.8,872.3c0,0,-12.9,0,-12.9,13v62.5c0,0,0,13,12.9,13H828.2c0,0,13,0,13,-13V885.3c0,0,0,-13,-13,-13Z" class="gb_143"/>
<path d="M201.7,883.1c0,0,-4.3,0,-4.3,4.4v17.3c0,0,0,4.3,4.3,4.3H239c0,0,4.3,0,4.3,-4.3V887.5c0,0,0,-4.4,-4.3,-4.4Z" class="gc_143"/>
<path d="M398,922.2h37.3" class="g9_143"/>
<image clip-path="url(#c1_143)" preserveAspectRatio="none" x="306" y="882" width="69" height="69" xlink:href="img/1.jpg"/>
<path d="M511.3,1210.5c0,0,-4.3,0,-4.3,4.3v10.9c0,0,0,4.3,4.3,4.3h30.3c0,0,4.4,0,4.4,-4.3v-10.9c0,0,0,-4.3,-4.4,-4.3Z" class="gd_143"/>
<path d="M498.1,1201.6v37.6m1.4,1H866.8m.9,-1.4v-37.5m-1.3,-1H499.1" class="ge_143"/>
<path d="M498.1,1239.6v.6h.6m368.5,0h.5v-.6m0,-38.7v-.6h-.5m-368.5,0h-.6v.6" class="gf_143"/>
<path d="M230.9,739.3c0,0,-13,0,-13,13V774c0,0,0,13,13,13H854.2c0,0,13,0,13,-13V752.3c0,0,0,-13,-13,-13Z" class="gg_143"/>
<image clip-path="url(#c2_143)" preserveAspectRatio="none" x="174" y="710" width="75" height="76" xlink:href="img/2.png"/>
<path d="M225.7,779.6c0,0,-26.9,11.3,-51.1,-12.7c0,0,15.1,25.3,49.3,23.9c0,0,24.7,.4,20.2,-10.1c0,0,1.2,-4.5,-18.4,-1.1Z" class="gg_143"/>
<path d="M153.3,109.5v39L165,158.7V136.5Z" class="gh_143"/>
<path d="M153.3,109.5v39H851.1c0,0,16.8,0,16.8,-16.8v-5.4c0,0,0,-16.8,-16.8,-16.8Z" class="gd_143"/>
<path d="M790.4,131c0,0,-.5,-10,8.6,-9.4c0,0,6.8,-.3,6.7,9.5m-15.3,-1.5v6.5c0,0,-3.4,.3,-3.9,-3c0,0,-.1,-3.8,3.9,-3.5Zm15.3,0v6.5c0,0,3.4,.3,4,-3c0,0,0,-3.8,-4,-3.5Z" class="gi_143"/>
<path d="M169,140.8h61v-32H169v32Z" class="gj_143"/>
<path d="M169,143.1h61v-2.3H169v2.3Z" class="gj_143"/>
<path d="M193.5,106.2H173.8v31.5h25.7V112.3c0,-3.4,-2.7,-6.1,-6,-6.1Z" class="g3_143"/>
<path d="M193.5,106.2v-.5H173.8c-.2,0,-.3,.1,-.4,.2c-.1,.1,-.2,.2,-.2,.3v31.5c0,.1,.1,.3,.2,.4c.1,.1,.2,.1,.4,.1h25.7c.2,0,.3,0,.4,-.1c.1,-.1,.1,-.3,.1,-.4V112.3c0,-3.7,-2.9,-6.6,-6.5,-6.6v1c1.5,0,2.9,.7,3.9,1.7c1,1,1.6,2.3,1.6,3.9v24.9H174.3V106.7h19.2Z" class="gk_143"/>
<path d="M173.8,131.7v6h25.7c0,-3.3,-2.7,-6,-6,-6Z" class="g3_143"/>
<path d="M173.8,131.7h-.6v6c0,.1,.1,.3,.2,.4c.1,.1,.2,.1,.4,.1h25.7c.2,0,.3,0,.4,-.1c.1,-.1,.1,-.3,.1,-.4c0,-3.6,-2.9,-6.6,-6.5,-6.6H173.8c-.2,0,-.3,.1,-.4,.2c-.1,.1,-.2,.2,-.2,.4h.6v.5h19.7c1.5,0,2.9,.6,3.9,1.6c1,1,1.6,2.4,1.6,3.9h.5v-.5H174.3v-5.5h-.5v.5Z" class="gk_143"/>
<path d="M177.3,110.9h17.2m-17.2,2.8h17.2m-17.2,2.9h17.2m-17.2,2.9h17.2m-17.2,2.8h17.2m-17.2,2.9h17.2M177.3,128h17.2" class="gl_143"/>
<path d="M193.5,132.2H174.3v5H199c-.1,-1.3,-.7,-2.5,-1.6,-3.4c-1,-1,-2.4,-1.6,-3.9,-1.6Z" class="gm_143"/>
<path d="M174.3,132.2h19.2c1.5,0,2.9,.6,3.9,1.6c.9,.9,1.5,2.1,1.6,3.4H174.3Zm19.2,-.5H173.8v6H199v-2.5c-.9,-2.1,-3.1,-3.5,-5.5,-3.5Z" class="gn_143"/>
<path d="M205.6,106.2h19.7v31.5H199.5V112.3c0,-3.4,2.7,-6.1,6.1,-6.1Z" class="g3_143"/>
<path d="M205.6,106.2v.5h19.2v30.5H200V112.3c0,-1.6,.7,-2.9,1.7,-3.9c1,-1,2.3,-1.7,3.9,-1.7v-1c-3.7,0,-6.6,2.9,-6.6,6.6v25.4c0,.1,.1,.3,.2,.4c0,.1,.2,.1,.3,.1h25.8c.1,0,.2,0,.3,-.1c.1,-.1,.2,-.3,.2,-.4V106.2c0,-.1,-.1,-.2,-.2,-.3c-.1,-.1,-.2,-.2,-.3,-.2H205.6Z" class="gk_143"/>
<path d="M225.3,131.7v6H199.5c0,-3.3,2.7,-6,6.1,-6Z" class="g3_143"/>
<path d="M225.3,131.7h-.5v5.5H199.5v.5h.5c0,-1.5,.7,-2.9,1.7,-3.9c1,-1,2.3,-1.6,3.9,-1.6h19.7v-.5h-.5h.5v-.6H205.6c-3.7,0,-6.6,3,-6.6,6.6c0,.1,.1,.3,.2,.4c0,.1,.2,.1,.3,.1h25.8c.1,0,.2,0,.3,-.1c.1,-.1,.2,-.3,.2,-.4v-6c0,-.2,-.1,-.3,-.2,-.4c-.1,-.1,-.2,-.2,-.3,-.2Z" class="gk_143"/>
<path d="M221.8,110.9H204.6m17.2,2.8H204.6m17.2,2.9H204.6m17.2,2.9H204.6m17.2,2.8H204.6m17.2,2.9H204.6m17.2,2.8H204.6" class="gl_143"/>
<path clip-path="url(#c3_143)" d="M200.1,137.2h24.7v-5H200.1v5Z" class="gm_143"/>
<path clip-path="url(#c4_143)" d="M200.1,137.2c.1,-1.3,.7,-2.5,1.6,-3.4c1,-1,2.3,-1.6,3.9,-1.6h19.2v5Zm25.2,-5.5H205.6c-3.4,0,-6.1,2.7,-6.1,6h25.8v-6h-.5h.5Z" class="gn_143"/>
<path d="M199.5,108.8v34.3" class="gl_143"/>
<path d="M217.2,145.5h3.3V134.7h-3.3v10.8Z" class="go_143"/>
<path d="M171.4,430.1c0,0,-17.3,0,-17.3,17.3v215c0,0,0,17.4,17.3,17.4H849.8c0,0,17.3,0,17.3,-17.4v-215c0,0,0,-17.3,-17.3,-17.3Z" class="gp_143"/>
<path d="M166.9,430.8c-4.8,1.2,-11.7,4.6,-12.7,14.3m-.1,6.9V660.2m.7,6.8c1.2,4.7,4.6,11.7,14.3,12.7m6.9,.1H847.5m6.8,-.7c4.8,-1.2,11.8,-4.6,12.7,-14.4m.1,-6.8V449.7m-.6,-6.8c-1.2,-4.8,-4.6,-11.7,-14.4,-12.7m-6.9,-.1H173.7" class="gq_143"/>
<path d="M154.1,447.4v0m0,215v0m17.3,17.4v0m678.4,0v0m17.4,-17.4v0m0,-215v0M849.8,430.1v0m-678.4,0v0" class="gr_143"/>
<path d="M188,417.9v18.3m12.6,-18.3v18.3M820.3,417.9v18.3m12.6,-18.3v18.3" class="gs_143"/>
<path d="M32.1,45.1H9.2m958.3,0h22.9M32.1,1331.3H9.2m958.3,0h22.9M45.1,32.1V9.2m0,1335.1v22.9M954.5,32.1V9.2m0,1335.1v22.9" class="gt_143"/>
<path d="M32.1,45.1H9.2m958.3,0h22.9M32.1,1331.3H9.2m958.3,0h22.9M45.1,32.1V9.2m0,1335.1v22.9M954.5,32.1V9.2m0,1335.1v22.9" class="gu_143"/>
<path d="M27.5,32.1H0m972.1,0h27.5M27.5,1344.3H0m972.1,0h27.5M32.1,27.5V0m0,1348.9v27.5M967.5,27.5V0m0,1348.9v27.5" class="gt_143"/>
<path d="M27.5,32.1H0m972.1,0h27.5M27.5,1344.3H0m972.1,0h27.5M32.1,27.5V0m0,1348.9v27.5M967.5,27.5V0m0,1348.9v27.5" class="gu_143"/>
</svg>