<?xml version="1.0" encoding="UTF-8" standalone="no"?>
<!DOCTYPE svg PUBLIC "-//W3C//DTD SVG 1.1//EN"
"http://www.w3.org/Graphics/SVG/1.1/DTD/svg11.dtd">
<svg viewBox="0 0 999 1376" version="1.1" xmlns="http://www.w3.org/2000/svg" xmlns:xlink="http://www.w3.org/1999/xlink">
<defs>
<clipPath id="c0_330"><path d="M32.1,1344.3V32.1H967.5V1344.3Z"/></clipPath>
<clipPath id="c1_330"><path d="M176.6,546.1L170.1,544L153.7,530.1V473h72v73.1Z"/></clipPath>
<clipPath id="c2_330"><path d="M176.6,1114.5l-6.5,-2.1l-16.4,-13.9v-57.1h72v73.1Z"/></clipPath>
<clipPath id="c3_330"><path d="M676.5,959.6V664.8H899.8V959.6Z"/></clipPath>
<clipPath id="c4_330"><path d="M672.7,968.8V663H901V968.8Z"/></clipPath>
<clipPath id="c5_330"><path d="M672.4,968.5V662.7H900.7V968.5Z"/></clipPath>
<clipPath id="c6_330"><path d="M781.1,685c-.3,-.1,3.5,-8.2,3.5,-8.2l.8,.5c0,0,-4,7.7,-4.3,7.7Z"/></clipPath>
<clipPath id="c7_330"><path d="M788.6,677.3c0,0,-6.9,-1.1,-7.6,-5.2c-.7,-3.6,1.5,-3.9,2.1,-3.9c0,0,.1,0,.1,0l8.3,-12.7l-1.4,-3.1c0,0,-.7,-1.1,.1,-2.1c0,0,.2,-.1,.3,-.1c2.1,0,12.9,5.6,12.9,5.6l.1,.1c-.4,.6,-.7,1.2,-1.4,1.7c-.6,.5,-5.1,1.1,-5.1,1.1l-8.4,18.6Z"/></clipPath>
<clipPath id="c8_330"><path d="M788.2,676.9c.2,-.4,.2,-1.8,0,-2.2v-1.4c-1.6,-.5,-2.9,-1.2,-3.7,-2.5c-1.1,.6,-2.1,1.2,-3.1,1.9c1.5,2.1,3.8,3.5,6.8,4.2Zm0,-3.9c2.2,-4.5,4,-9.5,6.1,-14c-.9,-.4,-1.8,-1.4,-2.6,-1.4c-2.3,4.3,-4.6,8.6,-7,12.8c.7,1.3,2,2,3.5,2.6Zm-7.3,12.1c1,-2.9,2.4,-5.5,3.5,-8.3c-2,-1.5,-3.9,-3.1,-4.4,-6.2v-1.5c0,-2.7,1.9,-3.4,4.6,-3.4c0,0,.1,0,.2,0c1.9,-3.3,4.2,-6.3,6.1,-9.6c-.5,-.9,-1.1,-2.4,-.8,-3.7c.5,1.3,1.6,1.9,2.3,2.9c-.1,.6,-.2,1.2,-.3,1.8c.5,.6,1.3,1.2,2.4,1.4c.4,-.5,.5,-1.3,1.1,-1.5c.9,.3,1.8,.7,3.1,.7c.2,.1,.5,.2,.8,.2c.4,0,.7,-.1,.9,-.2c.1,0,.2,0,.3,0c.2,0,.4,0,.6,-.1c.2,-.1,.3,-.1,.5,-.1c.1,0,.2,0,.3,.1c-1.3,.6,-2.2,1.8,-4.2,1.8c-.1,0,-.2,-.1,-.3,-.1c-.9,3.8,-1.9,7.4,-2.7,11.2c.6,1.1,1.6,1.7,1.3,3.2c-.5,2.7,-3.8,4.4,-7.2,4.4c-1.3,0,-2.5,-.3,-3.6,-.8c-1,2.1,-2.1,4.1,-3.3,6c0,-.3,.3,-.3,.3,-.7c.9,-1.8,1.9,-3.6,2.6,-5.7c-1,1.7,-1.8,3.7,-2.7,5.6c-.2,.4,-.5,.8,-.7,1.2c-.3,.4,-.3,1.1,-.7,1.4Z"/></clipPath>
<clipPath id="c9_330"><path d="M798.6,657.3c-4.8,0,-13.1,-7.3,-5.5,-8.8h1.2c.2,.1,.3,.1,.5,.1c.1,0,.2,0,.2,0c0,0,.1,0,.1,0c.3,0,.6,0,1,.1c3.1,.6,8.2,3.8,7.5,7c-.2,1.1,-1.5,1.6,-3.1,1.6h-1.8c0,0,-.1,0,-.1,0Z"/></clipPath>
<clipPath id="ca_330"><path d="M125.5,386.7V205.8H858.6V386.7Z"/></clipPath>
<clipPath id="cb_330"><path d="M764.8,435.3V422.9h14.5v12.4Z"/></clipPath>
<clipPath id="cc_330"><path d="M72.6,924.1V750.9H257.4V924.1Z"/></clipPath>
<clipPath id="cd_330"><path d="M77.3,917.5V754.7H251.1V917.5Z"/></clipPath>
<clipPath id="ce_330"><path d="M76.9,917.2V754.4H250.7V917.2Z"/></clipPath>
<clipPath id="cf_330"><path d="M152.4,771.6c-.2,-.1,4,-8,4,-8l.8,.6c0,0,-4.5,7.4,-4.8,7.4Z"/></clipPath>
<clipPath id="cg_330"><path d="M160.3,764.3c-.1,0,-6.8,-1.5,-7.3,-5.6c-.4,-3.4,1.5,-3.7,2.2,-3.7c.1,0,.2,0,.2,0l9,-12.3l-1.3,-3.1c0,0,-.5,-1.2,.3,-2.1c0,-.1,.1,-.1,.2,-.1c2,0,12.7,6.2,12.7,6.2l.1,.2c-.4,.5,-.8,1.1,-1.5,1.5c-.7,.5,-5.1,.9,-5.1,.9l-9.5,18.1Z"/></clipPath>
<clipPath id="ch_330"><path d="M159.9,763.9c.3,-.4,.3,-1.8,.2,-2.2c0,-.5,0,-.9,0,-1.4c-1.5,-.6,-2.8,-1.4,-3.5,-2.7c-1.1,.5,-2.2,1.1,-3.2,1.7c1.4,2.2,3.6,3.8,6.5,4.6Zm.2,-3.9c2.5,-4.4,4.5,-9.2,6.9,-13.7c-.8,-.4,-1.7,-1.4,-2.5,-1.5c-2.6,4.2,-5.1,8.4,-7.7,12.4c.6,1.4,2,2.1,3.3,2.8Zm-7.9,11.7c1.2,-2.8,2.7,-5.3,4,-8.1c-1.9,-1.6,-3.8,-3.3,-4.1,-6.4c0,-.5,.1,-1,.1,-1.5c.1,-2.4,1.8,-3.1,4.1,-3.1c.2,0,.5,0,.8,0c2.2,-3.2,4.6,-6.1,6.7,-9.4c-.5,-.8,-1,-2.4,-.7,-3.6c.5,1.2,1.5,1.9,2.2,3c-.1,.6,-.3,1.1,-.4,1.7c.5,.7,1.2,1.3,2.3,1.5c.5,-.4,.6,-1.2,1.2,-1.4c.9,.4,1.8,.8,3.1,.9c.1,.1,.6,.2,1,.2c.2,0,.5,-.1,.6,-.1c.1,0,.3,0,.4,0c.2,0,.4,0,.6,-.1c.1,0,.3,-.1,.4,-.1c.2,0,.3,0,.4,.1c-1.3,.6,-2.2,1.6,-4,1.6c-.2,0,-.4,0,-.6,0c-1.1,3.6,-2.3,7.2,-3.2,11c.4,1.1,1.4,1.7,1,3.2c-.5,2.5,-3.7,4,-6.8,4c-1.5,0,-2.9,-.3,-4.1,-.9c-1.2,2,-2.3,4,-3.6,5.8c0,-.4,.3,-.4,.3,-.7c1,-1.8,2.1,-3.5,2.9,-5.5c-1.1,1.6,-2,3.6,-3,5.3c-.3,.4,-.5,.9,-.7,1.3c-.4,.4,-.4,1.1,-.9,1.3Z"/></clipPath>
<clipPath id="ci_330"><path d="M173.5,745c-.1,0,-.2,0,-.2,0c-.6,0,-1.2,-.1,-1.8,-.1c-4.8,-.1,-12.9,-8,-5.2,-9.1c.4,0,.9,.1,1.3,.1c.4,.1,1,0,1.7,.2c3.1,.8,8,4.2,7.2,7.4c-.3,1.1,-1.5,1.5,-3,1.5Z"/></clipPath>
<style type="text/css"><![CDATA[
.g0_330{
fill: #FEFCF4;
}
.g1_330{
fill: #FFF;
}
.g2_330{
fill: none;
stroke: #6381B7;
stroke-width: 0.763;
}
.g3_330{
fill: #6381B7;
}
.g4_330{
fill: none;
stroke: #6381B7;
stroke-width: 0.381;
stroke-dasharray: 2,1;
}
.g5_330{
fill: none;
stroke: #6381B7;
stroke-width: 0.381;
}
.g6_330{
fill: #FCE8B0;
}
.g7_330{
fill: none;
stroke: #818385;
stroke-width: 0.305;
stroke-dasharray: 4,4;
}
.g8_330{
fill: none;
stroke: #818385;
stroke-width: 0.305;
}
.g9_330{
fill: #F7C2D9;
}
.ga_330{
fill: #FEF6F5;
}
.gb_330{
fill: #EC008C;
}
.gc_330{
fill: none;
stroke: #949698;
stroke-width: 0.305;
stroke-dasharray: 4,4;
}
.gd_330{
fill: none;
stroke: #949698;
stroke-width: 0.305;
stroke-dasharray: 3,3;
}
.ge_330{
fill: none;
stroke: #949698;
stroke-width: 0.305;
}
.gf_330{
fill: #6D6F71;
}
.gg_330{
fill: #2E6E51;
}
.gh_330{
fill: none;
stroke: #FFF;
stroke-width: 0.152;
stroke-miterlimit: 1;
}
.gi_330{
fill: #BCBEC0;
}
.gj_330{
fill: #EE314A;
}
.gk_330{
fill: #CEEDFB;
}
.gl_330{
fill: #27639D;
}
.gm_330{
fill: #231F20;
}
.gn_330{
fill: none;
stroke: #204A78;
stroke-width: 1.527;
}
.go_330{
fill: #25408F;
}
.gp_330{
fill: #A8AAAD;
}
.gq_330{
fill: none;
stroke: #949698;
stroke-width: 0.549;
}
.gr_330{
fill: none;
stroke: #BCBEC0;
stroke-width: 2.566;
}
.gs_330{
fill: #363637;
}
.gt_330{
fill: #5CC4BE;
}
.gu_330{
fill: #EAD646;
}
.gv_330{
fill: none;
stroke: #FFF;
stroke-width: 1.909;
stroke-miterlimit: 10;
}
.gw_330{
fill: none;
stroke: #000;
stroke-width: 0.381;
stroke-miterlimit: 10;
}
]]></style>
</defs>
<path d="M32.1,1344.3H954.5V32.1H32.1V1344.3Z" class="g0_330"/>
<path clip-path="url(#c0_330)" d="M954.5,1344.3H1877V32.1H954.5V1344.3Z" class="g0_330"/>
<path d="M150.4,440.5c0,0,-18.3,0,-18.3,18.3v542c0,0,0,18.3,18.3,18.3H827.5c0,0,18.4,0,18.4,-18.3V440.5Z" class="g1_330"/>
<path d="M150.4,440.5c0,0,-18.3,0,-18.3,18.3v542c0,0,0,18.3,18.3,18.3H827.5c0,0,18.4,0,18.4,-18.3V440.5H150.4Z" class="g2_330"/>
<path d="M145.1,1028c0,0,-13,0,-13,13v142.5c0,0,0,13,13,13H832.9c0,0,13,0,13,-13V1041c0,0,0,-13,-13,-13Z" class="g1_330"/>
<path d="M145.1,1028c0,0,-13,0,-13,13v142.5c0,0,0,13,13,13H832.9c0,0,13,0,13,-13V1041c0,0,0,-13,-13,-13H145.1Z" class="g2_330"/>
<path d="M425.1,1214.8c0,0,-4.3,0,-4.3,4.4V1230c0,0,0,4.3,4.3,4.3h30.3c0,0,4.4,0,4.4,-4.3v-10.8c0,0,0,-4.4,-4.4,-4.4Z" class="g3_330"/>
<path d="M411.9,1206v37.5m1.4,1H845.1m1,-1.3v-37.6m-1.4,-1H412.9" class="g4_330"/>
<path d="M411.9,1243.9v.6h.6m433,0h.6v-.6m0,-38.7v-.6h-.6m-433,0h-.6v.6" class="g5_330"/>
<path d="M209.2,475.2c0,0,-13,0,-13,13v47.6c0,0,0,13,13,13h602c0,0,13,0,13,-13V488.2c0,0,0,-13,-13,-13Z" class="g6_330"/>
<image clip-path="url(#c1_330)" preserveAspectRatio="none" x="152" y="471" width="75" height="77" xlink:href="img/1.png"/>
<path d="M204,541.4c0,0,-26.8,11.3,-51.1,-12.7c0,0,15.2,25.3,49.3,23.9c0,0,24.8,.4,20.3,-10.1c0,0,1.2,-4.5,-18.5,-1.1Z" class="g6_330"/>
<path d="M209.2,1069.5c0,0,-13,0,-13,13v21.7c0,0,0,13,13,13h602c0,0,13,0,13,-13v-21.7c0,0,0,-13,-13,-13Z" class="g6_330"/>
<image clip-path="url(#c2_330)" preserveAspectRatio="none" x="152" y="1040" width="75" height="76" xlink:href="img/2.png"/>
<path d="M204,1109.8c0,0,-26.8,11.3,-51.1,-12.8c0,0,15.2,25.4,49.3,24c0,0,24.8,.3,20.3,-10.1c0,0,1.2,-4.5,-18.5,-1.1Z" class="g6_330"/>
<path d="M437.3,769.7c22.4,-.8,40.5,-6.6,44.3,-14.1m-.8,-7.3c-5.3,-7,-23.3,-12.3,-45,-12.8m-7.8,0c-22.3,.7,-40.4,6.6,-44.2,14.1m.8,7.3c5.2,7,23.2,12.3,45,12.8" class="g7_330"/>
<path d="M482.1,754.1c.2,-.5,.2,-1,.2,-1.5c0,-.5,0,-1,-.2,-1.5M434.2,735.5c-.5,0,-1,0,-1.5,0c-.5,0,-1.1,0,-1.6,0m-47.9,15.6c-.1,.5,-.2,1,-.2,1.5c0,.5,.1,1,.2,1.5m47.9,15.6c.5,0,1.1,0,1.6,0c.5,0,1,0,1.5,0" class="g8_330"/>
<image clip-path="url(#c3_330)" preserveAspectRatio="none" x="676" y="665" width="223" height="295" xlink:href="img/3.png"/>
<path d="M681.7,672.2l5.6,281.3l206.4,-3L887.9,670.1Z" class="g9_330"/>
<image clip-path="url(#c4_330)" preserveAspectRatio="none" x="672" y="664" width="229" height="305" xlink:href="img/4.png"/>
<image clip-path="url(#c5_330)" preserveAspectRatio="none" x="672" y="663" width="229" height="306" xlink:href="img/5.png"/>
<path d="M677.5,678.6l18.2,283.7l167.2,-9.2l31.5,-28L877.8,667.4Z" class="ga_330"/>
<path d="M862.5,953.5l31.9,-28.4l-20.3,-7.6Z" class="gb_330"/>
<path d="M449.5,733.4c14.4,-7.6,66.5,-32.7,137.7,-40.3" class="gc_330"/>
<path d="M594.4,693c4.1,.9,2.7,4.9,.8,7.9" class="gd_330"/>
<path d="M589.3,702.5c-3.6,-2.7,-5.6,-9.4,12.1,-13.1" class="gc_330"/>
<path d="M608.8,688.1c27.8,-4.4,43.9,-2.6,70.5,-.4" class="gd_330"/>
<path d="M445.5,735.5c0,0,.4,-.2,1.3,-.7M588.7,693c.5,-.1,1,-.1,1.5,-.2c.5,0,1,-.1,1.4,-.1m2.8,9.3c-.3,.4,-.6,.8,-.8,1.1c-.3,.4,-.8,.5,-1.4,.5M602.9,689c.5,0,1,-.1,1.5,-.2c.5,-.1,1,-.2,1.5,-.3m74.9,-.7c.5,0,1,.1,1.5,.1" class="ge_330"/>
<path d="M677.3,684l-.8,8.8l11.7,-3.4Z" class="gf_330"/>
<image clip-path="url(#c6_330)" x="780" y="676" width="6" height="10" xlink:href="shade/1.png"/>
<image clip-path="url(#c7_330)" x="780" y="650" width="24" height="28" xlink:href="shade/2.png"/>
<image clip-path="url(#c8_330)" x="779" y="652" width="24" height="34" xlink:href="shade/3.png"/>
<image clip-path="url(#c9_330)" x="785" y="648" width="20" height="10" xlink:href="shade/4.png"/>
<path d="M32.1,179.3H967.5V32.1H32.1V179.3Z" class="gg_330"/>
<path d="M262.3,134H247.1l1.2,1.2h11.8v8.2L258.5,142c.2,-.6,.3,-1.3,.3,-1.9c0,-.8,-.2,-1.6,-.6,-2.2c-.3,-.5,-.6,-.9,-1,-1.2c-.5,-.3,-.9,-.6,-1.4,-.7c-.3,-.1,-.6,-.2,-.9,-.2c-.7,0,-1.3,.2,-2,.7c-.3,.2,-.5,.5,-.7,.8c-.1,.3,-.2,.6,-.2,.9c0,.4,0,.7,.2,.9c.3,.5,.7,.7,1.2,.8c.6,.1,1.1,0,1.5,-.3c.2,-.2,.4,-.4,.6,-.6c.1,-.3,.2,-.5,.2,-.8c0,-.3,-.1,-.6,-.4,-1c.3,-.1,.5,-.1,.7,0c.2,0,.5,.1,.8,.3c.1,.2,.3,.4,.5,.7c.2,.3,.3,.6,.4,.9c.1,.3,.1,.5,.1,.7c0,.6,-.2,1.1,-.5,1.7c-.4,.8,-1.4,1.3,-2.8,1.3c-.5,0,-1.1,-.2,-1.6,-.5c-.6,-.3,-1.1,-.8,-1.5,-1.4c-.5,-.5,-.9,-1.2,-1.2,-2c-.4,-.8,-.7,-1.7,-.9,-2.7l-.7,-.3c.1,1,.3,2,.6,2.9c.2,.9,.5,1.7,.9,2.3c.3,.5,.7,1,1,1.5c.4,.4,.8,.8,1.2,1.1c.4,.3,.8,.6,1.2,.7c.5,.2,.9,.3,1.3,.3c.7,0,1.3,-.2,1.9,-.4c.5,-.3,1,-.7,1.3,-1.2c1.4,.9,2.4,2.4,2.9,4.5v-.1l.4,.3V135.2h2.2L262.3,134Zm6.1,1.2L267.2,134h-6l1.2,1.2h3.5c-1.4,1.2,-2,2.6,-1.9,4.2c0,.5,.2,1.4,.5,2.4c.1,.5,.3,1,.3,1.4c.1,.4,.2,.8,.2,1c0,.9,-.2,1.6,-.6,2c-.2,.3,-.5,.6,-.9,.8c-.3,.2,-.7,.4,-1.1,.5l.7,.5c.4,-.1,.8,-.3,1.2,-.5c.4,-.2,.8,-.5,1.1,-.8c.3,-.4,.6,-.8,.8,-1.3c.2,-.4,.3,-.9,.3,-1.3c0,-.4,0,-.8,-.1,-1.4c-.1,-.5,-.2,-1.2,-.3,-1.9c-.2,-1.1,-.3,-2.2,-.3,-3.3c.1,-1.5,.8,-2.3,1.9,-2.3h.7Zm4.1,0L271.3,134h-1c-.4,-.4,-.6,-1,-.8,-1.9l-.4,-.3c0,.2,0,.5,0,.9c0,.3,0,.7,.1,1.2c0,.5,0,.9,.1,1.3c0,.3,0,.6,0,.9c-.3,-.8,-.6,-1.3,-1,-1.6c-.4,-.3,-.9,-.5,-1.7,-.5h-1.3l1.2,1.2c.3,0,.6,.1,1,.2c.3,.1,.6,.3,.8,.5c.3,.2,.5,.4,.6,.7c.1,.3,.2,.7,.2,1v8.9l1.2,1.2V135.2h2.2Zm14.4,0L285.7,134H270.5l1.2,1.2h7.8v1c-2.6,.8,-4.9,2.1,-6.9,3.7l1.7,2.1c1.3,.1,2.5,.7,3.6,1.8c.5,.5,.9,1,1.3,1.6c.4,.7,.7,1.3,1,2c0,.1,.1,.1,.2,.2c.1,0,.2,.1,.2,.1v-10c1.2,0,2.2,.3,2.8,1c.7,.7,1,1.4,1,2.2l-.1,.3c-.2,-.2,-.3,-.3,-.5,-.4c-.2,-.2,-.4,-.2,-.7,-.2c-.4,0,-.7,.1,-1,.4c-.3,.2,-.4,.5,-.4,.9c0,.2,.1,.4,.1,.6c.1,.2,.3,.3,.4,.5c.2,.1,.3,.2,.5,.3c.2,.1,.4,.1,.6,.1c.3,0,.5,-.1,.8,-.2c.2,-.1,.4,-.3,.6,-.5c.2,-.2,.3,-.4,.4,-.7c.1,-.3,.2,-.5,.2,-.8c0,-1.3,-.4,-2.4,-1.3,-3.4c-.8,-1.2,-1.9,-1.7,-3.3,-1.7v-.9h6.2Zm-7.4,9.1h-.1c-1,-1.8,-2.4,-3.1,-4.4,-4c.8,-.5,1.6,-1,2.3,-1.4c.7,-.4,1.4,-.8,2.2,-1.1v6.5Zm12,-9.1L290.3,134h-1c-.4,-.4,-.6,-1,-.8,-1.9l-.4,-.3c0,.2,0,.5,0,.9c0,.3,.1,.7,.1,1.2c0,.5,.1,.9,.1,1.3c0,.3,0,.6,0,.9c-.2,-.8,-.6,-1.3,-1,-1.6c-.4,-.3,-.9,-.5,-1.7,-.5h-1.3l1.2,1.2c.3,0,.6,.1,1,.2c.3,.1,.6,.3,.8,.5c.3,.2,.5,.4,.6,.7c.2,.3,.2,.7,.2,1v8.9l1.2,1.2V135.2h2.2ZM302.9,134h-1.2c0,-1.1,-.3,-1.9,-.9,-2.5c-.6,-.6,-1.5,-.9,-2.6,-.9c-.2,0,-.5,0,-.8,0c-.3,0,-.6,.1,-1,.1c-.5,0,-.8,.1,-1.1,.1c-.3,0,-.5,0,-.7,0c-.3,0,-.5,0,-.8,-.1c-.2,-.1,-.5,-.1,-.7,-.2c-.5,-.3,-.8,-.6,-.8,-1.1c0,-.3,.1,-.6,.4,-.8c0,-.1,-.1,-.1,-.2,-.1c-.1,-.1,-.2,-.1,-.2,-.2c-.5,.3,-.7,.7,-.7,1.4c0,.9,.5,1.6,1.3,2.1c.8,.4,1.6,.7,2.5,.7c.2,0,.4,-.1,.7,-.1c.3,0,.6,0,1,0c.4,-.1,.7,-.1,1,-.1c.3,0,.5,0,.7,0c.4,0,.8,0,1.2,.2c.4,.2,.7,.5,.7,.8c0,.5,-.3,.7,-.8,.7H289.7l1.2,1.2H296v4.5c0,.3,.1,.6,.2,.8c.1,.3,.2,.5,.4,.7c.2,.2,.4,.3,.6,.4c.3,.1,.5,.2,.8,.2c.2,0,.4,-.1,.7,-.2c.3,-.2,.6,-.4,.9,-.6c.3,-.2,.6,-.5,.8,-.8c.3,-.3,.5,-.5,.6,-.8c.5,.4,.7,1,.7,1.5c0,.9,-.4,1.7,-1.1,2.3c-.4,.3,-.8,.5,-1.2,.7c-.4,.2,-.9,.2,-1.4,.2c-1.5,0,-2.9,-.9,-3.9,-2.8c-.4,-.7,-.7,-1.5,-.9,-2.3c-.2,-.8,-.4,-1.7,-.4,-2.5l-.9,-.5c.8,6.8,2.9,10.2,6.4,10.2c1.3,0,2.3,-.5,3.3,-1.5c.7,-.9,1.1,-2.1,1,-3.5c0,-.7,-.2,-1.4,-.6,-2.2c-.5,-.9,-1,-1.4,-1.6,-1.4c-.1,0,-.4,.4,-.9,1.1c-.5,.6,-1,1,-1.5,1.2c-.3,0,-.5,-.1,-.6,-.3c-.1,-.3,-.2,-.5,-.2,-.7v-3.7h6.9L302.9,134Zm16.3,1.2L318,134h-1.6c0,-1.1,-.2,-2,-.7,-2.6c-.5,-.6,-1.3,-.9,-2.4,-.9c-.3,0,-.9,.1,-1.9,.1c-.4,.1,-.8,.1,-1.1,.1c-.3,0,-.5,0,-.7,0c-.5,0,-1,-.1,-1.3,-.3c-.4,-.2,-.7,-.6,-.7,-1.1c0,-.1,.1,-.2,.1,-.3c.1,-.1,.2,-.2,.2,-.3v-.4c-.6,0,-.9,.5,-.9,1.4c0,.9,.5,1.6,1.3,2c.7,.5,1.6,.7,2.5,.7c.1,0,.3,0,.6,0c.2,-.1,.5,-.1,.9,-.1c0,0,.1,0,.1,0h.1c.3,-.1,.5,-.1,.7,-.1c.3,0,.4,0,.5,0c1.1,0,1.6,.3,1.5,1c0,.2,0,.3,0,.4c0,.2,0,.3,0,.4H302.7l1.1,1.2h6.3v4c-.1,-.3,-.2,-.5,-.4,-.8c-.2,-.2,-.4,-.5,-.7,-.7c-.5,-.4,-1.1,-.7,-1.7,-.7c-.3,0,-.6,.1,-.9,.2c-.3,.2,-.6,.3,-.8,.5c-.2,.3,-.4,.5,-.5,.8c-.1,.3,-.2,.6,-.2,1c0,.9,.6,1.4,1.7,1.4c.3,0,.7,-.1,1,-.4c.3,-.2,.5,-.5,.5,-.9c0,-.4,-.2,-.7,-.5,-.9c.1,0,.3,-.1,.5,-.1c1,0,1.6,.7,1.8,2l.2,1.2v1.4c.1,1.7,1,2.6,2.7,2.7c1.2,0,2.3,-.6,3.3,-1.8c1,-1.2,1.5,-2.3,1.5,-3.5c0,-.8,-.2,-1.4,-.6,-2c-.4,-.7,-.9,-1,-1.6,-1c-.5,0,-.8,.2,-1.1,.5c-.3,.3,-.5,.7,-.5,1.1c0,.4,.2,.8,.5,1c.3,.3,.7,.4,1.1,.4h.4c0,.4,-.2,.8,-.3,1.2c-.2,.4,-.5,.8,-.9,1.3c-.7,.8,-1.4,1.3,-2.2,1.3c-.6,0,-1,-.3,-1.1,-.8v-8.4h7.9ZM337.7,134c-.6,-.1,-.9,-.2,-1,-.6c-.1,-.1,-.1,-.2,-.1,-.5c-.1,-.2,-.1,-.5,-.1,-.7l-.6,-.4v12.3h-.1c-.8,-1.4,-2,-2.5,-3.8,-3.4c.8,-.2,1.4,-.6,2,-1.2c.5,-.6,.8,-1.3,.8,-2c0,-.7,-.3,-1.3,-.9,-1.9c0,-.1,-.2,-.2,-.5,-.5c-.3,-.3,-.7,-.6,-1.1,-1c-.3,.3,-.5,.5,-.8,.8c-.2,.2,-.3,.3,-.4,.4c-.2,.2,-.5,.3,-.7,.5c-.3,.1,-.5,.2,-.8,.2c0,-.7,-.4,-1.1,-1.1,-1.1c-.4,0,-.7,.2,-.9,.4c-.3,.3,-.4,.6,-.4,.9c0,.5,.2,.9,.5,1.2c.4,.3,.8,.5,1.3,.5c1.3,0,2.6,-.7,3.9,-2c.4,.4,.7,.8,.7,1.3c0,.4,-.2,.7,-.5,1c-.3,.2,-.7,.5,-1.3,.8c-.5,.2,-.9,.3,-1.4,.4c-.4,.1,-.8,.2,-1.2,.2c-.2,0,-.4,0,-.5,-.1c-.2,0,-.4,0,-.5,0l2,2.5c1.2,.1,2.2,.4,3.2,1c.5,.3,1,.6,1.4,1c.4,.4,.7,.9,1,1.3c0,.1,.1,.3,.2,.5c.1,.2,.2,.5,.3,.8c.1,.2,.2,.3,.3,.5c.1,.2,.3,.4,.4,.5V135.2h1.9L337.7,134Zm2.1,16.6c-.1,-.1,-.2,-.3,-.4,-.5c-.1,-.1,-.2,-.4,-.5,-.6c-.3,-.4,-.6,-.7,-.9,-1c-.3,-.4,-.7,-.7,-1,-1c0,-.3,0,-.7,0,-1.1c0,-.5,-.1,-.9,-.2,-1.2l-1,-.7c.1,.5,.1,1,.1,1.4c.1,.5,0,.8,-.1,1c-.7,-.4,-1.3,-.6,-1.7,-.6c-.3,0,-.6,0,-.9,.1c-.2,.1,-.5,.2,-.7,.4c-.2,.2,-.3,.4,-.4,.6c-.2,.2,-.2,.5,-.2,.8c0,.5,.2,1,.7,1.3c.4,.4,1,.5,1.6,.5c1,0,1.8,-.5,2.4,-1.4c.3,.1,.5,.3,.8,.5c.3,.3,.6,.5,.8,.8c.3,.2,.6,.5,.9,.8c.2,.3,.4,.6,.7,.9v-1Zm-4.9,-3c.2,.1,.4,.2,.5,.3c-.1,.3,-.3,.5,-.6,.7c-.4,.2,-.8,.2,-1.1,.2c-.4,-.1,-.6,-.3,-.6,-.7c0,-.4,.4,-.7,1.2,-.7c.3,0,.5,.1,.6,.2Zm16.7,-12.4L350.4,134H337.1l1.3,1.2h9.8v3.3c-.5,-1.3,-1.2,-2,-2.2,-2c-.4,0,-.7,.2,-1,.5c-.4,.3,-.5,.6,-.5,1c-.8,-1,-1.7,-1.6,-2.8,-1.6c-.8,0,-1.4,.4,-1.9,1.2c-.5,.7,-.7,1.4,-.7,2.3c0,.5,.1,1,.2,1.4c.2,.4,.4,.8,.7,1.1c.4,.3,.7,.5,1.1,.7c.5,.1,.9,.2,1.5,.2c.6,-.1,1.1,-.2,1.4,-.5c.3,-.3,.5,-.7,.5,-1.2c0,-1.1,-.5,-1.7,-1.6,-1.7c-.4,0,-.7,.1,-1,.3c-.3,.3,-.4,.6,-.4,1c0,.2,.1,.6,.4,1c-1.2,-.2,-1.7,-.8,-1.7,-1.7c0,-.3,0,-.6,.1,-.9c.2,-.3,.3,-.5,.5,-.7c.2,-.2,.5,-.4,.8,-.5c.2,-.1,.5,-.2,.8,-.2c.7,0,1.3,.2,1.8,.6c.5,.4,.9,1,1,1.6l.5,-.2c-.1,-.3,-.1,-.5,-.1,-.7c0,-.9,.3,-1.3,1,-1.3c.4,0,.8,.2,1.1,.5c.3,.3,.4,.7,.4,1.1v6.9l1.3,1.1V135.2h2.2Zm6,-1.2h-8l1.2,1.2h4c-1.7,2,-2.6,4,-2.6,6.1c0,1.5,.4,2.8,1,3.9c.7,1.4,1.8,2.1,3.2,2.1c.3,0,.6,0,.8,-.1c.3,-.1,.5,-.2,.7,-.4c.2,-.2,.4,-.4,.5,-.7c.1,-.2,.2,-.5,.2,-.8c0,-.4,-.2,-.9,-.5,-1.2c-.3,-.3,-.6,-.5,-1,-.5c-.4,0,-.7,.2,-1,.4c-.3,.3,-.5,.6,-.5,1c0,.2,.1,.4,.2,.7c.1,.2,.3,.4,.6,.6c-.7,.2,-1.5,-.2,-2.3,-1.3c-.4,-.7,-.6,-1.5,-.6,-2.3c0,-1,.1,-1.9,.3,-2.7c.2,-.7,.5,-1.4,.9,-2.1c.5,-.7,1,-1.3,1.7,-1.7c.7,-.5,1.4,-.8,2.3,-1L357.6,134Zm13.5,0H356.8l1.3,1.2h14.2L371.1,134Zm-.6,5.6c-.2,-.6,-.5,-1.2,-.9,-1.7c-.5,-.5,-1,-.9,-1.5,-1.1c-.6,-.3,-1.2,-.5,-1.8,-.5c-.8,0,-1.5,.3,-2,.7c-.6,.5,-.9,1.1,-.9,1.9c0,.6,.2,1.2,.5,1.6c.4,.5,.9,.7,1.5,.7c1.3,0,1.9,-.6,1.9,-1.7c0,-.5,-.1,-1,-.5,-1.4c.4,-.1,.7,-.2,.9,-.2c.6,0,1.1,.3,1.6,.9c.3,.6,.5,1.1,.5,1.8c0,.8,-.3,1.6,-1,2.3c-.8,.6,-1.6,1,-2.5,1c-1.7,0,-3.2,-.9,-4.4,-2.8c-.3,-.3,-.7,-1,-1.1,-1.8c-.4,-.9,-.9,-1.9,-1.4,-3.1l-.7,-.2c1.8,6.5,4.3,9.8,7.6,9.8c1.1,0,2.2,-.5,3.1,-1.3c.5,-.4,.8,-.8,1.1,-1.4c.2,-.5,.3,-1,.3,-1.6c0,-.7,-.1,-1.3,-.3,-1.9Zm21.6,8.2v-12c0,-.4,-.3,-.8,-.8,-1.2c-.5,-.5,-1,-.7,-1.4,-.7c-.6,0,-1.2,.1,-1.8,.5c-.6,.3,-1.2,.7,-1.7,1.2c-1.1,1.2,-1.6,2.4,-1.6,3.7c0,.6,.2,1.1,.5,1.5c.4,.4,.9,.6,1.5,.6c.5,0,.9,-.2,1.2,-.4c.3,-.3,.5,-.6,.5,-1.1c0,-.9,-.3,-1.3,-.9,-1.3c-.3,0,-.5,0,-.9,0c.1,-.4,.3,-.8,.5,-1.1c.2,-.4,.4,-.8,.7,-1.2c.4,-.4,.7,-.7,1.1,-.9c.3,-.2,.6,-.3,1,-.3c.6,0,.9,.1,.9,.3v9.1c-1.2,-.9,-2.3,-1.4,-3.6,-1.4h-1.1c-.2,0,-.5,0,-.7,0H385c-.5,0,-.9,0,-1.3,-.1c-.4,-.1,-.7,-.2,-1,-.3c-.3,-.2,-.5,-.5,-.7,-.9c-.2,-.4,-.3,-.8,-.3,-1.3c0,-.6,.1,-1.1,.2,-1.5c.1,-.4,.3,-.8,.5,-1.2l-.4,-.4c-.4,.4,-.6,.8,-.8,1.3c-.2,.6,-.3,1.2,-.3,1.8c0,3,1.5,4.5,4.4,4.5c.2,0,.5,0,.8,0c.3,0,.6,-.1,1.1,-.1c.8,-.1,1.4,-.2,1.8,-.2c.7,0,1.3,.3,1.8,.8c.1,.2,.2,.4,.3,.6c.1,.3,.2,.6,.4,.9c.1,.4,.2,.7,.4,.8h.2ZM400.5,134h-7.9l1.2,1.2h4c-1.7,2,-2.6,4,-2.6,6.1c0,1.5,.3,2.8,1,3.9c.7,1.4,1.8,2.1,3.2,2.1c.3,0,.5,0,.8,-.1c.3,-.1,.5,-.2,.7,-.4c.2,-.2,.3,-.4,.5,-.7c.1,-.2,.1,-.5,.1,-.8c0,-.4,-.1,-.9,-.4,-1.2c-.3,-.3,-.6,-.5,-1,-.5c-.4,0,-.7,.2,-1,.4c-.4,.3,-.5,.6,-.5,1c0,.2,.1,.4,.2,.7c.1,.2,.3,.4,.6,.6c-.8,.2,-1.5,-.2,-2.3,-1.3c-.4,-.7,-.7,-1.5,-.7,-2.3c0,-1,.1,-1.9,.4,-2.7c.2,-.7,.5,-1.4,.9,-2.1c.5,-.7,1,-1.3,1.7,-1.7c.6,-.5,1.4,-.8,2.3,-1L400.5,134Zm13.5,1.2L412.9,134h-13c.4,.4,.7,.7,1,.9c.2,.2,.4,.4,.5,.5c.3,.2,.6,.4,.9,.6c.3,.1,.6,.2,.9,.3c.5,.1,.9,.2,1.2,.3c.4,.1,.6,.2,.9,.4c.2,.2,.4,.4,.5,.7c.1,.4,.2,.8,.3,1.4c-.4,.5,-.8,.9,-1,1.3c-.3,.3,-.5,.5,-.7,.7c-.1,.2,-.3,.3,-.4,.4c-.1,0,-.2,0,-.2,0c-.2,0,-.4,0,-.5,-.1c-.1,-.1,-.2,-.3,-.3,-.4c-.1,-.2,-.2,-.4,-.3,-.6c-.1,-.2,-.1,-.3,-.1,-.5l-.8,.8c.1,.2,.3,.5,.4,.8c.2,.3,.4,.6,.6,.9c.3,.3,.5,.5,.8,.7c.3,.1,.6,.2,1,.2c.1,0,.3,0,.4,-.1c.2,0,.4,-.1,.6,-.3c.2,-.2,.4,-.5,.7,-.9c.3,-.4,.7,-.9,1.1,-1.6c.4,-.6,.8,-1,1.2,-1.1c.5,0,.8,.1,1.1,.4c.3,.4,.6,.9,.8,1.6c.1,.7,.2,1.6,.2,2.5v.4c0,.1,0,.3,0,.5c0,.1,0,.4,0,.7c0,.3,0,.6,0,1.1c.1,.2,.3,.4,.5,.6c.2,.3,.4,.5,.6,.7V135.2H414Zm-3.3,4.1c-.4,-.4,-.7,-.8,-1,-1.1c-.3,-.4,-.6,-.6,-.9,-.7c-.3,-.1,-.6,-.1,-1,.1c-.3,.1,-.7,.4,-1.1,.8c0,-.6,-.1,-1.1,-.4,-1.6c-.2,-.5,-.6,-1,-1.3,-1.6h5.7v4.1Zm15.4,-7.4c-2.4,-2.4,-4.8,-3.6,-7.3,-3.6c-1,0,-2,.4,-3.1,1.2c-1.1,.9,-1.6,1.8,-1.6,2.7c0,.4,.2,.7,.5,1l.8,.8h-3.2l1.2,1.2h1.8v11.3l1.2,1.2V135.2h2.1L417.3,134H416l-.5,-1.1c.1,-.9,.6,-1.6,1.7,-2.3c.9,-.7,1.8,-1,2.7,-1c.7,0,1.3,.1,1.8,.2c.6,.2,1.2,.4,1.7,.7c.6,.4,1.1,.7,1.6,1c.5,.4,.9,.7,1.3,1l-.2,-.6Zm3.9,16.8c-.4,-.5,-.9,-1,-1.3,-1.4c-.4,-.4,-.8,-.8,-1.1,-1c-.3,-.2,-.7,-.5,-1.2,-.8c-.5,-.3,-1.1,-.6,-1.8,-1c.6,-.3,1.1,-.6,1.5,-.8c.4,-.3,.8,-.5,1,-.8c.9,-.7,1.4,-1.5,1.4,-2.5c0,-.9,-.3,-1.7,-.8,-2.4c-.6,-.7,-1.4,-1.1,-2.4,-1.1c-.3,0,-.6,0,-.8,.1c-.3,0,-.6,.1,-.8,.1c-1.4,0,-2.4,-.7,-2.9,-1.9h8.7L428.3,134H416.9l1.2,1.2h1.6v5.2c0,.2,0,.5,.1,.6c.1,.2,.3,.4,.4,.5c.2,.2,.4,.3,.6,.4c.2,.1,.5,.1,.7,.1c.4,0,.7,-.1,1.2,-.3c.4,-.2,.8,-.4,1.2,-.7c1,-.8,1.5,-1.7,1.3,-2.6c1.3,-.2,2,.2,2.1,1.2c0,1.2,-.7,2.2,-2.1,2.9c-.5,.2,-1.1,.4,-1.7,.6c-.5,.1,-1.2,.2,-1.9,.2c-.2,0,-.5,-.1,-.8,-.1c-.3,-.1,-.6,-.1,-.9,-.2l1.2,2.2c1.7,.2,3.4,.6,4.9,1.3c1.5,.8,2.9,1.8,4.2,3.1l-.2,-.9Zm-6.6,-9.5c-.1,.3,-.3,.6,-.6,.8c-.2,.3,-.5,.5,-.7,.7c-.3,.1,-.6,.2,-.8,.2c-.3,0,-.5,-.2,-.5,-.7v-3.6c.7,.9,1.7,1.5,2.8,1.8c0,.3,0,.5,-.2,.8Z" class="gh_330"/>
<g clip-path="url(#c0_330)">
<path d="M1877,177.2H32.1v-5.4H768.7c43.1,0,53,-37.9,115.3,-37.9h993Z" class="gi_330"/>
<path d="M1877,183.7H32.1v-9.8H768.7c43.1,0,53,-33.6,115.3,-33.6h993Z" class="gj_330"/>
</g>
<image clip-path="url(#ca_330)" preserveAspectRatio="none" x="125" y="206" width="734" height="181" xlink:href="img/6.png"/>
<path d="M144.6,231.3c0,0,-13,0,-13,13v117c0,0,0,13,13,13H833.1c0,0,13,0,13,-13v-130Z" class="gk_330"/>
<path d="M147.7,294.1l54.1,40.8l54.1,-40.8V230h8.7V211.9H155.8c-6.5,.4,-7.7,3.9,-8.2,8.4Z" class="gl_330"/>
<path d="M274,220.3c-.3,-4.7,-4.2,-8.4,-9,-8.4c-4.8,0,-8.7,3.7,-9,8.4h-.1V230h18.2v-9.7Z" class="gm_330"/>
<path d="M255.9,230.6H846.1" class="gn_330"/>
<path d="M131.7,414.7v39L143.4,464V419.8Z" class="go_330"/>
<path d="M131.7,414.7v39H829.5c0,0,16.8,0,16.8,-16.8v-5.4c0,0,0,-16.8,-16.8,-16.8Z" class="g3_330"/>
<path d="M781,448.3c8.2,0,14.8,-6.5,14.8,-14.5c0,-8,-6.6,-14.5,-14.8,-14.5c-8.3,0,-14.9,6.5,-14.9,14.5c0,8,6.6,14.5,14.9,14.5Z" class="gp_330"/>
<path d="M781,448.3c8.2,0,14.8,-6.5,14.8,-14.5c0,-8,-6.6,-14.5,-14.8,-14.5c-8.3,0,-14.9,6.5,-14.9,14.5c0,8,6.6,14.5,14.9,14.5Z" class="gq_330"/>
<path d="M781,439.2c3,0,5.4,-2.4,5.4,-5.4c0,-2.9,-2.4,-5.3,-5.4,-5.3c-3.1,0,-5.5,2.4,-5.5,5.3c0,3,2.4,5.4,5.5,5.4Z" class="g1_330"/>
<path d="M781,439.2c3,0,5.4,-2.4,5.4,-5.4c0,-2.9,-2.4,-5.3,-5.4,-5.3c-3.1,0,-5.5,2.4,-5.5,5.3c0,3,2.4,5.4,5.5,5.4Z" class="gr_330"/>
<g clip-path="url(#cb_330)" opacity="0.3">
<path d="M766.4,433.1v0c0,0,-.1,-4.9,3.6,-8.7l7.8,6.7c0,0,-1,1,-1.1,2.7Z" class="g1_330"/>
</g>
<path d="M785.6,433.7c0,0,-3.5,0,-3.5,3.5v8.7c0,0,0,3.5,3.5,3.5H829c0,0,3.5,0,3.5,-3.5v-8.7c0,0,0,-3.5,-3.5,-3.5Z" class="gm_330"/>
<path d="M169.5,424.8c0,-8.3,-6.7,-15.1,-15,-15.1c-8.4,0,-15.1,6.8,-15.1,15.1c0,8.3,6.8,15.1,15.1,15.1c.8,0,1.6,-.1,2.4,-.2l4.5,5.2v-6.7c4.8,-2.5,8.1,-7.6,8.1,-13.4Z" class="g1_330"/>
<path d="M161.8,446.1l-5.1,-6c-.7,.2,-1.5,.2,-2.2,.2c-8.6,0,-15.6,-6.9,-15.6,-15.5c0,-8.6,7,-15.5,15.6,-15.5c8.5,0,15.5,6.9,15.5,15.5c0,5.7,-3.1,10.9,-8.2,13.6Zm-4.7,-6.9l3.8,4.4v-5.7l.3,-.1c4.8,-2.6,7.9,-7.5,7.9,-13c0,-8,-6.6,-14.6,-14.6,-14.6c-8.1,0,-14.6,6.6,-14.6,14.6c0,8,6.5,14.6,14.6,14.6c.7,0,1.5,-.1,2.3,-.2Z" class="gs_330"/>
<path d="M147.4,424.4c.8,0,1.5,.6,1.5,1.4c0,.8,-.7,1.4,-1.5,1.4c-.7,0,-1.4,-.6,-1.4,-1.4c0,-.8,.7,-1.4,1.4,-1.4Z" class="gt_330"/>
<path d="M147.4,427.7c-1,0,-1.8,-.8,-1.8,-1.9c0,-1,.8,-1.9,1.8,-1.9c1.1,0,1.9,.9,1.9,1.9c0,1.1,-.8,1.9,-1.9,1.9m0,-2.9c-.5,0,-.9,.5,-.9,1c0,.5,.4,1,.9,1c.6,0,1,-.5,1,-1c0,-.5,-.4,-1,-1,-1Z" class="gs_330"/>
<path d="M154.5,424.4c.8,0,1.4,.6,1.4,1.4c0,.8,-.6,1.4,-1.4,1.4c-.8,0,-1.5,-.6,-1.5,-1.4c0,-.8,.7,-1.4,1.5,-1.4Z" class="gt_330"/>
<path d="M154.5,427.7c-1.1,0,-1.9,-.8,-1.9,-1.9c0,-1,.8,-1.9,1.9,-1.9c1,0,1.9,.9,1.9,1.9c0,1.1,-.9,1.9,-1.9,1.9m0,-2.9c-.6,0,-1,.5,-1,1c0,.5,.4,1,1,1c.5,0,.9,-.5,.9,-1c0,-.5,-.4,-1,-.9,-1Z" class="gs_330"/>
<path d="M161.5,424.4c.8,0,1.4,.6,1.4,1.4c0,.8,-.6,1.4,-1.4,1.4c-.8,0,-1.5,-.6,-1.5,-1.4c0,-.8,.7,-1.4,1.5,-1.4Z" class="gt_330"/>
<path d="M161.5,427.7c-1.1,0,-1.9,-.8,-1.9,-1.9c0,-1,.8,-1.9,1.9,-1.9c1,0,1.9,.9,1.9,1.9c0,1.1,-.9,1.9,-1.9,1.9m0,-2.9c-.6,0,-1,.5,-1,1c0,.5,.4,1,1,1c.5,0,1,-.5,1,-1c0,-.5,-.5,-1,-1,-1Z" class="gs_330"/>
<path d="M163.4,439c0,-9.7,7.9,-17.6,17.6,-17.6c9.7,0,17.6,7.9,17.6,17.6c0,9.8,-7.9,17.6,-17.6,17.6c-.9,0,-1.9,0,-2.8,-.2l-5.3,6.1v-7.8c-5.6,-2.9,-9.5,-8.9,-9.5,-15.7Z" class="gu_330"/>
<path d="M172.9,463c0,0,-.1,0,-.1,0c-.2,-.1,-.3,-.3,-.3,-.5V455c-5.9,-3.2,-9.6,-9.3,-9.6,-16c0,-9.9,8.2,-18,18.1,-18c10,0,18.1,8.1,18.1,18c0,10,-8.1,18.1,-18.1,18.1c-.8,0,-1.7,-.1,-2.6,-.2l-5.1,5.9c-.1,.1,-.2,.2,-.4,.2M181,421.9c-9.4,0,-17.1,7.7,-17.1,17.1c0,6.5,3.5,12.3,9.2,15.3c.2,.1,.3,.2,.3,.4v6.6l4.4,-5.2c.1,-.1,.3,-.1,.5,-.1c.9,.1,1.8,.2,2.7,.2c9.5,0,17.2,-7.7,17.2,-17.2c0,-9.4,-7.7,-17.1,-17.2,-17.1Z" class="gs_330"/>
<path d="M189.2,438.5c.9,0,1.7,.8,1.7,1.7c0,.9,-.8,1.7,-1.7,1.7c-.9,0,-1.7,-.8,-1.7,-1.7c0,-.9,.8,-1.7,1.7,-1.7Z" class="g1_330"/>
<path d="M189.2,442.3c-1.2,0,-2.1,-.9,-2.1,-2.1c0,-1.2,.9,-2.1,2.1,-2.1c1.2,0,2.1,.9,2.1,2.1c0,1.2,-.9,2.1,-2.1,2.1m0,-3.3c-.7,0,-1.2,.5,-1.2,1.2c0,.7,.5,1.2,1.2,1.2c.7,0,1.2,-.5,1.2,-1.2c0,-.7,-.5,-1.2,-1.2,-1.2Z" class="gs_330"/>
<path d="M181,438.5c.9,0,1.7,.8,1.7,1.7c0,.9,-.8,1.7,-1.7,1.7c-.9,0,-1.7,-.8,-1.7,-1.7c0,-.9,.8,-1.7,1.7,-1.7Z" class="g1_330"/>
<path d="M181,442.3c-1.2,0,-2.1,-.9,-2.1,-2.1c0,-1.2,.9,-2.1,2.1,-2.1c1.2,0,2.1,.9,2.1,2.1c0,1.2,-.9,2.1,-2.1,2.1m0,-3.3c-.7,0,-1.2,.5,-1.2,1.2c0,.7,.5,1.2,1.2,1.2c.7,0,1.2,-.5,1.2,-1.2c0,-.7,-.5,-1.2,-1.2,-1.2Z" class="gs_330"/>
<path d="M172.8,438.5c.9,0,1.7,.8,1.7,1.7c0,.9,-.8,1.7,-1.7,1.7c-.9,0,-1.7,-.8,-1.7,-1.7c0,-.9,.8,-1.7,1.7,-1.7Z" class="g1_330"/>
<path d="M172.8,442.3c-1.2,0,-2.1,-.9,-2.1,-2.1c0,-1.2,.9,-2.1,2.1,-2.1c1.2,0,2.1,.9,2.1,2.1c0,1.2,-.9,2.1,-2.1,2.1m0,-3.3c-.7,0,-1.2,.5,-1.2,1.2c0,.7,.5,1.2,1.2,1.2c.7,0,1.2,-.5,1.2,-1.2c0,-.7,-.5,-1.2,-1.2,-1.2Z" class="gs_330"/>
<image clip-path="url(#cc_330)" preserveAspectRatio="none" x="73" y="752" width="184" height="172" xlink:href="img/7.png"/>
<path d="M77.6,769.3L90.3,918l161,-14.4l-10.8,-148Z" class="g9_330"/>
<image clip-path="url(#cd_330)" preserveAspectRatio="none" x="77" y="755" width="174" height="163" xlink:href="img/8.png"/>
<image clip-path="url(#ce_330)" preserveAspectRatio="none" x="76" y="755" width="175" height="162" xlink:href="img/9.png"/>
<path d="M81.8,762.9l1.9,147.9l128,-2.6l32.7,-27.6L242.9,759.7Z" class="ga_330"/>
<path d="M211.8,908.2l32.6,-27.5l-21.7,-5.9Z" class="gb_330"/>
<image clip-path="url(#cf_330)" x="152" y="763" width="6" height="9" xlink:href="shade/5.png"/>
<image clip-path="url(#cg_330)" x="152" y="737" width="25" height="28" xlink:href="shade/6.png"/>
<image clip-path="url(#ch_330)" x="152" y="739" width="23" height="33" xlink:href="shade/7.png"/>
<image clip-path="url(#ci_330)" x="158" y="735" width="20" height="11" xlink:href="shade/8.png"/>
<path d="M348.9,800.9C338.1,786.6,297.2,736.5,260.1,744" class="gc_330"/>
<path d="M253.8,746.9c-2.1,2.9,.5,7.2,3.4,6.8" class="gd_330"/>
<path d="M261,747.6c-.3,-4.1,-4.7,-8.3,-14.4,-9.1m-8.1,-.3c-13.7,-1.1,-24.6,-4.9,-45.9,24.3" class="gc_330"/>
<path d="M351.7,804.6c0,0,-.3,-.4,-.9,-1.2M258.6,744.3c-.5,.1,-1,.3,-1.5,.4c-.5,.2,-.9,.3,-1.3,.5m2.6,8c.3,-.2,.7,-.5,1,-.9c.4,-.5,.7,-.9,.9,-1.4M244.9,738.4c-.5,0,-1.1,0,-1.7,0c-.5,0,-1,0,-1.6,0m-50,25.4c-.3,.4,-.6,.9,-.9,1.3" class="ge_330"/>
<path d="M359.5,836.7c13.5,-1,24.2,-6.1,26.9,-12.7m-.7,-7.8c-3.8,-6.1,-14.6,-10.7,-27.9,-11.3m-8.1,.1c-13.5,1,-24.3,6.1,-27,12.6m.8,7.9c3.7,6.1,14.6,10.7,27.8,11.3" class="g7_330"/>
<path d="M386.9,822.5c.1,-.6,.1,-1.1,.1,-1.7c0,-.5,0,-1.1,-.1,-1.6M356.2,804.8c-.5,0,-1.1,0,-1.6,0c-.6,0,-1.1,0,-1.7,0m-30.6,14.4c-.2,.5,-.2,1.1,-.2,1.6c0,.6,0,1.1,.2,1.7m30.6,14.4c.6,0,1.1,0,1.7,0c.5,0,1.1,0,1.6,0" class="g8_330"/>
<path d="M197.8,762l-6.7,-5.8l-4,11.5Z" class="gf_330"/>
<path d="M32.1,45.1H9.2m958.3,0h22.9M32.1,1331.3H9.2m958.3,0h22.9M45.1,32.1V9.2m0,1335.1v22.9M954.5,32.1V9.2m0,1335.1v22.9" class="gv_330"/>
<path d="M32.1,45.1H9.2m958.3,0h22.9M32.1,1331.3H9.2m958.3,0h22.9M45.1,32.1V9.2m0,1335.1v22.9M954.5,32.1V9.2m0,1335.1v22.9" class="gw_330"/>
<path d="M27.5,32.1H0m972.1,0h27.5M27.5,1344.3H0m972.1,0h27.5M32.1,27.5V0m0,1348.9v27.5M967.5,27.5V0m0,1348.9v27.5" class="gv_330"/>
<path d="M27.5,32.1H0m972.1,0h27.5M27.5,1344.3H0m972.1,0h27.5M32.1,27.5V0m0,1348.9v27.5M967.5,27.5V0m0,1348.9v27.5" class="gw_330"/>
</svg>