<?xml version="1.0" encoding="UTF-8" standalone="no"?>
<!DOCTYPE svg PUBLIC "-//W3C//DTD SVG 1.1//EN"
"http://www.w3.org/Graphics/SVG/1.1/DTD/svg11.dtd">
<svg viewBox="0 0 999 1376" version="1.1" xmlns="http://www.w3.org/2000/svg" xmlns:xlink="http://www.w3.org/1999/xlink">
<defs>
<clipPath id="c0_154"><path d="M216.1,334.5v-90h90.1v90Z"/></clipPath>
<clipPath id="c1_154"><path d="M369.1,334.5v-90h90.1v90Z"/></clipPath>
<clipPath id="c2_154"><path d="M522.1,334.5v-90h90v90Z"/></clipPath>
<clipPath id="c3_154"><path d="M675.1,334.5v-90h90v90Z"/></clipPath>
<clipPath id="c4_154"><path d="M216.1,474.5V384.4h90.1v90.1Z"/></clipPath>
<clipPath id="c5_154"><path d="M369.1,474.5V384.4h90.1v90.1Z"/></clipPath>
<clipPath id="c6_154"><path d="M519.1,474.5V384.4H618v90.1Z"/></clipPath>
<clipPath id="c7_154"><path d="M667.8,474.5V384.4H768.6v90.1Z"/></clipPath>
<clipPath id="c8_154"><path d="M216.1,617.6v-90h90.1v90Z"/></clipPath>
<clipPath id="c9_154"><path d="M369.1,617.6v-90h90.1v90Z"/></clipPath>
<clipPath id="ca_154"><path d="M522.1,617.6v-90h90v90Z"/></clipPath>
<clipPath id="cb_154"><path d="M675.1,617.6v-90h90v90Z"/></clipPath>
<clipPath id="cc_154"><path d="M180.8,662.9V522H832.3V662.9Z"/></clipPath>
<clipPath id="cd_154"><path d="M176.6,229.2l-6.5,-2.1L153.7,213.2V156.1h72v73.1Z"/></clipPath>
<clipPath id="ce_154"><path d="M226.9,1058.6v-68h65.7v68Z"/></clipPath>
<clipPath id="cf_154"><path d="M378.1,1057.1V989.8h68v67.3Z"/></clipPath>
<clipPath id="cg_154"><path d="M542.4,1055.5V989.8h63.4v65.7Z"/></clipPath>
<clipPath id="ch_154"><path d="M708.2,1057.4V990.3h67.1v67.1Z"/></clipPath>
<clipPath id="ci_154"><path d="M176.6,907.7l-6.5,-2.1L153.7,891.7V834.6h72v73.1Z"/></clipPath>
<style type="text/css"><![CDATA[
.g0_154{
fill: #FEFCF4;
}
.g1_154{
fill: #FFF;
}
.g2_154{
fill: none;
stroke: #6381B7;
stroke-width: 0.763;
}
.g3_154{
fill: none;
stroke: #949698;
stroke-width: 1.237;
}
.g4_154{
fill: none;
stroke: #C756A0;
stroke-width: 1.527;
}
.g5_154{
fill: #C756A0;
}
.g6_154{
fill: #9D827F;
}
.g7_154{
fill: #FCE8B0;
}
.g8_154{
fill: #ABB2C9;
}
.g9_154{
fill: #EFE9CC;
}
.ga_154{
fill: #6381B7;
}
.gb_154{
fill: none;
stroke: #6381B7;
stroke-width: 0.381;
stroke-dasharray: 2,1;
}
.gc_154{
fill: none;
stroke: #6381B7;
stroke-width: 0.381;
}
.gd_154{
fill: #25408F;
}
.ge_154{
fill: #00BAF1;
}
.gf_154{
fill: #332D2C;
}
.gg_154{
fill: #D9DFF0;
}
.gh_154{
fill: #F27C85;
}
.gi_154{
fill: #7DD3F6;
}
.gj_154{
fill: none;
stroke: #FFF;
stroke-width: 1.909;
stroke-miterlimit: 10;
}
.gk_154{
fill: none;
stroke: #000;
stroke-width: 0.381;
stroke-miterlimit: 10;
}
]]></style>
</defs>
<path d="M32.1,1344.3H954.5V32.1H32.1V1344.3Z" class="g0_154"/>
<path d="M150.4,119.1c0,0,-18.3,0,-18.3,18.3V650.7c0,0,0,18.4,18.3,18.4H827.5c0,0,18.4,0,18.4,-18.4V137.4c0,0,0,-18.3,-18.4,-18.3Z" class="g1_154"/>
<path d="M150.4,119.1c0,0,-18.3,0,-18.3,18.3V650.7c0,0,0,18.4,18.3,18.4H827.5c0,0,18.4,0,18.4,-18.4V137.4c0,0,0,-18.3,-18.4,-18.3H150.4Z" class="g2_154"/>
<path d="M206.2,335.7h136V242.1h-136v93.6Z" class="g1_154"/>
<path d="M358,335.7H498.8V242.1H358v93.6Z" class="g1_154"/>
<path d="M512.5,335.7H648.4V242.1H512.5v93.6Z" class="g1_154"/>
<path d="M666.4,335.7h136V242.1h-136v93.6Z" class="g1_154"/>
<path d="M666.4,474.2h136v-90h-136v90Z" class="g1_154"/>
<path d="M512.5,474.2H648.4v-90H512.5v90Z" class="g1_154"/>
<path d="M358,474.2H496.8v-90H358v90Z" class="g1_154"/>
<path d="M206.2,474.2H345v-90H206.2v90Z" class="g1_154"/>
<image clip-path="url(#c0_154)" preserveAspectRatio="none" x="216" y="244" width="90" height="91" xlink:href="img/1.jpg"/>
<path d="M192.8,334.5H329.6v-90H192.8v90Z" class="g3_154"/>
<image clip-path="url(#c1_154)" preserveAspectRatio="none" x="369" y="244" width="90" height="91" xlink:href="img/2.jpg"/>
<path d="M345.7,334.5H482.6v-90H345.7v90Z" class="g3_154"/>
<image clip-path="url(#c2_154)" preserveAspectRatio="none" x="522" y="244" width="90" height="91" xlink:href="img/3.jpg"/>
<path d="M498.7,334.5H635.5v-90H498.7v90Z" class="g3_154"/>
<image clip-path="url(#c3_154)" preserveAspectRatio="none" x="675" y="244" width="90" height="91" xlink:href="img/4.jpg"/>
<path d="M651.7,334.5H788.5v-90H651.7v90Z" class="g3_154"/>
<image clip-path="url(#c4_154)" preserveAspectRatio="none" x="216" y="384" width="90" height="91" xlink:href="img/5.jpg"/>
<path d="M192.8,474.5H329.6V384.4H192.8v90.1Z" class="g3_154"/>
<image clip-path="url(#c5_154)" preserveAspectRatio="none" x="369" y="384" width="90" height="91" xlink:href="img/6.jpg"/>
<path d="M345.7,474.5H482.6V384.4H345.7v90.1Z" class="g3_154"/>
<image clip-path="url(#c6_154)" preserveAspectRatio="none" x="519" y="383" width="99" height="93" xlink:href="img/7.jpg"/>
<path d="M498.7,474.5H635.5V384.4H498.7v90.1Z" class="g3_154"/>
<image clip-path="url(#c7_154)" preserveAspectRatio="none" x="668" y="383" width="101" height="92" xlink:href="img/8.jpg"/>
<path d="M651.7,474.5H788.5V384.4H651.7v90.1Z" class="g3_154"/>
<path d="M150.4,697.8c0,0,-18.3,0,-18.3,18.4v91.7c0,0,0,18.3,18.3,18.3H827.5c0,0,18.4,0,18.4,-18.3V716.2c0,0,0,-18.4,-18.4,-18.4Z" class="g1_154"/>
<path d="M150.4,697.8c0,0,-18.3,0,-18.3,18.4v91.7c0,0,0,18.3,18.3,18.3H827.5c0,0,18.4,0,18.4,-18.3V716.2c0,0,0,-18.4,-18.4,-18.4H150.4Z" class="g4_154"/>
<path d="M157.4,681c0,0,-6.2,0,-6.2,6.2v19.4c0,0,0,6.2,6.2,6.2h162c0,0,6.3,0,6.3,-6.2V687.2c0,0,0,-6.2,-6.3,-6.2Z" class="g5_154"/>
<path d="M202.2,381.2H815.9V340.1H202.2v41.1Z" class="g1_154"/>
<path d="M193.2,384H331.8V341.2H193.2V384Z" class="g1_154"/>
<path d="M344.8,384H483.3V341.2H344.8V384Z" class="g1_154"/>
<path d="M496.8,384H635.3V341.2H496.8V384Z" class="g1_154"/>
<path d="M653.1,384H791.7V341.2H653.1V384Z" class="g1_154"/>
<path d="M202.2,518.9H815.9V477.8H202.2v41.1Z" class="g1_154"/>
<path d="M193.2,521.8H331.8V478.9H193.2v42.9Z" class="g1_154"/>
<path d="M344.8,521.8H483.3V478.9H344.8v42.9Z" class="g1_154"/>
<path d="M496.8,521.8H635.3V478.9H496.8v42.9Z" class="g1_154"/>
<path d="M653.1,529.6H791.7V478.9H653.1v50.7Z" class="g1_154"/>
<image clip-path="url(#c8_154)" preserveAspectRatio="none" x="216" y="528" width="90" height="90" xlink:href="img/9.jpg"/>
<path d="M192.8,617.6H329.6v-90H192.8v90Z" class="g3_154"/>
<image clip-path="url(#c9_154)" preserveAspectRatio="none" x="369" y="528" width="90" height="90" xlink:href="img/10.jpg"/>
<path d="M345.7,617.6H482.6v-90H345.7v90Z" class="g3_154"/>
<image clip-path="url(#ca_154)" preserveAspectRatio="none" x="522" y="528" width="90" height="90" xlink:href="img/11.jpg"/>
<path d="M498.7,617.6H635.5v-90H498.7v90Z" class="g3_154"/>
<image clip-path="url(#cb_154)" preserveAspectRatio="none" x="675" y="528" width="90" height="90" xlink:href="img/12.jpg"/>
<path d="M651.7,617.6H788.5v-90H651.7v90Z" class="g3_154"/>
<path clip-path="url(#cc_154)" d="M780.3,664.9c-.1,-.7,-.3,-1.2,-.5,-1.8c-.1,-.3,-.3,-.6,-.5,-.8c-.1,-.2,-.2,-.3,-.3,-.4v-.1h-.1l-.1,-.1l-.2,-.2c-.3,-.2,-.6,-.4,-.9,-.5c-.3,-.1,-.6,-.1,-.9,-.2c-.6,0,-1.2,0,-1.8,.1c-.3,.1,-.6,.2,-1,.3c-.3,.2,-.6,.4,-.8,.7c-.4,.4,-.8,.9,-1.1,1.4c-.1,.3,-.3,.5,-.4,.8l-.1,.2v.1l-.1,.1c0,.2,-.1,.4,-.1,.5c-.1,.3,-.1,.6,-.2,.9v.9h1.5v-.7c.1,-.3,.1,-.5,.1,-.7l.1,-.3l.1,-.1v-.1l.1,-.1c.1,-.3,.2,-.5,.3,-.7c.3,-.4,.5,-.8,.9,-1.1c.1,-.2,.3,-.3,.4,-.4c.2,0,.4,-.1,.6,-.1c.4,-.1,.9,-.1,1.3,-.1c.4,.1,.9,.2,1.1,.4l.1,.1h.1l.2,.3c.1,.2,.2,.4,.3,.6c.2,.4,.4,.9,.5,1.3c0,.3,0,.5,0,.7v.7l-.2,1.7l-.3,3.3l-.7,6.5l-.3,3.3l-.1,.2v.2l-.1,.3c0,.2,-.1,.4,-.2,.6c-.2,.4,-.4,.8,-.7,1.1c-.2,.1,-.3,.2,-.5,.3c-.2,0,-.4,.1,-.6,.1c-.4,.1,-.8,.1,-1.2,-.1c-.2,0,-.4,-.1,-.5,-.2c-.2,-.1,-.3,-.2,-.4,-.4c-.3,-.3,-.5,-.7,-.6,-1.1c0,-.2,0,-.5,0,-.7c0,-.1,0,-.2,0,-.3v-.4l.2,-1.6L773,676l.6,-6.6c0,0,-.3,-.1,-.7,-.2c-.4,0,-.8,0,-.8,.1l-.6,6.5l-.3,3.3l-.2,1.6v.5c0,.1,0,.3,0,.4c0,.4,0,.7,.1,1c.1,.7,.4,1.3,.8,1.8c.2,.3,.5,.5,.8,.7c.3,.2,.6,.3,.9,.4c.6,.2,1.2,.3,1.9,.2c.3,-.1,.6,-.1,.9,-.3c.3,-.1,.6,-.3,.9,-.6c.4,-.4,.8,-.9,1.1,-1.5c.1,-.3,.2,-.6,.3,-.9c0,-.2,.1,-.4,.1,-.5v-.3l.1,-.2l.3,-3.2l.7,-6.6l.3,-3.2l.2,-1.7v-.4c0,-.2,0,-.3,0,-.5c0,-.3,0,-.6,-.1,-.9Z" class="g6_154"/>
<path d="M202.2,663.3H815.9V622.1H202.2v41.2Z" class="g1_154"/>
<path d="M209.2,184.2c0,0,-13,0,-13,13v21.7c0,0,0,13,13,13h602c0,0,13,0,13,-13V197.2c0,0,0,-13,-13,-13Z" class="g7_154"/>
<image clip-path="url(#cd_154)" preserveAspectRatio="none" x="152" y="154" width="75" height="77" xlink:href="img/13.png"/>
<path d="M204,224.5c0,0,-26.8,11.3,-51.1,-12.8c0,0,15.2,25.4,49.3,24c0,0,24.8,.4,20.3,-10.1c0,0,1.2,-4.5,-18.5,-1.1Z" class="g7_154"/>
<path d="M145.1,920.3c0,0,-13,0,-13,13v250.4c0,0,0,13,13,13H832.9c0,0,13,0,13,-13V933.3c0,0,0,-13,-13,-13Z" class="g1_154"/>
<path d="M145.1,920.3c0,0,-13,0,-13,13v250.4c0,0,0,13,13,13H832.9c0,0,13,0,13,-13V933.3c0,0,0,-13,-13,-13H145.1Z" class="g2_154"/>
<path d="M222.5,1061.2h69.3V985.4H222.5v75.8Z" class="g1_154"/>
<image clip-path="url(#ce_154)" preserveAspectRatio="none" x="227" y="991" width="67" height="67" xlink:href="img/14.jpg"/>
<path d="M366,1061.2h95.2V990.6H366v70.6Z" class="g1_154"/>
<image clip-path="url(#cf_154)" preserveAspectRatio="none" x="378" y="989" width="67" height="67" xlink:href="img/15.jpg"/>
<path d="M536.2,1061.2h69.3V990.6H536.2v70.6Z" class="g1_154"/>
<image clip-path="url(#cg_154)" preserveAspectRatio="none" x="542" y="988" width="68" height="68" xlink:href="img/16.jpg"/>
<path d="M698.4,1061.2h77.9V990.6H698.4v70.6Z" class="g1_154"/>
<image clip-path="url(#ch_154)" preserveAspectRatio="none" x="708" y="990" width="67" height="67" xlink:href="img/17.jpg"/>
<path d="M254.3,1068.4c2,0,3.6,-1.6,3.6,-3.6c0,-2,-1.6,-3.6,-3.6,-3.6c-2,0,-3.6,1.6,-3.6,3.6c0,2,1.6,3.6,3.6,3.6Z" class="g8_154"/>
<path d="M579.1,1068.4c2,0,3.6,-1.6,3.6,-3.6c0,-2,-1.6,-3.6,-3.6,-3.6c-2,0,-3.6,1.6,-3.6,3.6c0,2,1.6,3.6,3.6,3.6Z" class="g8_154"/>
<path d="M405.2,1068.4c1.9,0,3.6,-1.6,3.6,-3.6c0,-2,-1.7,-3.6,-3.6,-3.6c-2,0,-3.7,1.6,-3.7,3.6c0,2,1.7,3.6,3.7,3.6Z" class="g8_154"/>
<path d="M733.6,1068.4c2,0,3.6,-1.6,3.6,-3.6c0,-2,-1.6,-3.6,-3.6,-3.6c-2,0,-3.6,1.6,-3.6,3.6c0,2,1.6,3.6,3.6,3.6Z" class="g8_154"/>
<path d="M254.3,1135.5c2,0,3.6,-1.6,3.6,-3.6c0,-2,-1.6,-3.6,-3.6,-3.6c-2,0,-3.6,1.6,-3.6,3.6c0,2,1.6,3.6,3.6,3.6Z" class="g8_154"/>
<path d="M579.1,1135.5c2,0,3.6,-1.6,3.6,-3.6c0,-2,-1.6,-3.6,-3.6,-3.6c-2,0,-3.6,1.6,-3.6,3.6c0,2,1.6,3.6,3.6,3.6Z" class="g8_154"/>
<path d="M405.2,1135.5c1.9,0,3.6,-1.6,3.6,-3.6c0,-2,-1.7,-3.6,-3.6,-3.6c-2,0,-3.7,1.6,-3.7,3.6c0,2,1.7,3.6,3.7,3.6Z" class="g8_154"/>
<path d="M733.6,1135.5c2,0,3.6,-1.6,3.6,-3.6c0,-2,-1.6,-3.6,-3.6,-3.6c-2,0,-3.6,1.6,-3.6,3.6c0,2,1.6,3.6,3.6,3.6Z" class="g8_154"/>
<path d="M213.2,1144.9c0,0,-8.7,0,-8.7,8.7v15.1c0,0,0,8.7,8.7,8.7h69.3c0,0,8.6,0,8.6,-8.7v-15.1c0,0,0,-8.7,-8.6,-8.7Z" class="g9_154"/>
<path d="M543.7,1144.9c0,0,-8.6,0,-8.6,8.7v15.1c0,0,0,8.7,8.6,8.7H613c0,0,8.7,0,8.7,-8.7v-15.1c0,0,0,-8.7,-8.7,-8.7Z" class="g9_154"/>
<path d="M378.5,1144.9c0,0,-8.7,0,-8.7,8.7v15.1c0,0,0,8.7,8.7,8.7h69.2c0,0,8.7,0,8.7,-8.7v-15.1c0,0,0,-8.7,-8.7,-8.7Z" class="g9_154"/>
<path d="M711.2,1144.9c0,0,-8.7,0,-8.7,8.7v15.1c0,0,0,8.7,8.7,8.7h69.3c0,0,8.7,0,8.7,-8.7v-15.1c0,0,0,-8.7,-8.7,-8.7Z" class="g9_154"/>
<path d="M637.9,1211.3c0,0,-4.3,0,-4.3,4.3v10.8c0,0,0,4.4,4.3,4.4h30.3c0,0,4.3,0,4.3,-4.4v-10.8c0,0,0,-4.3,-4.3,-4.3Z" class="ga_154"/>
<path d="M624.7,1203.8v35.4m1.3,1H844.7m.9,-1.4v-35.4m-1.3,-1H625.7" class="gb_154"/>
<path d="M624.7,1239.6v.6h.6m219.7,0h.6v-.6m0,-36.6v-.6H845m-219.7,0h-.6v.6" class="gc_154"/>
<path d="M209.2,862.7c0,0,-13,0,-13,13v21.7c0,0,0,13,13,13H830.8c0,0,13,0,13,-13V875.7c0,0,0,-13,-13,-13Z" class="g7_154"/>
<image clip-path="url(#ci_154)" preserveAspectRatio="none" x="152" y="833" width="75" height="76" xlink:href="img/18.png"/>
<path d="M204,903c0,0,-26.8,11.3,-51.1,-12.7c0,0,15.2,25.3,49.3,23.9c0,0,24.8,.4,20.3,-10.1c0,0,1.2,-4.5,-18.5,-1.1Z" class="g7_154"/>
<path d="M131.7,126.7v22.2l11.7,10.3V137Z" class="gd_154"/>
<path d="M131.7,109.9v39H829.4c0,0,16.9,0,16.9,-16.8v-5.4c0,0,0,-16.8,-16.9,-16.8Z" class="ga_154"/>
<path d="M189.6,121.3l-6.4,-6.5L162,136l6.4,6.5Z" class="ge_154"/>
<path d="M168.4,143c.2,0,.3,0,.4,-.1L190,121.7c.1,-.1,.2,-.3,.2,-.4c0,-.1,-.1,-.3,-.2,-.4l-6.5,-6.4c-.2,-.2,-.5,-.2,-.7,0l-21.2,21.2c-.1,.1,-.2,.2,-.2,.3c0,.2,.1,.3,.2,.4l6.5,6.5c.1,.1,.2,.1,.3,.1m20.5,-21.7l-20.5,20.5L162.7,136l20.5,-20.4Z" class="gf_154"/>
<path d="M189.6,121.3l-6.4,-6.5l2.1,-2.1l6.5,6.5Z" class="gg_154"/>
<path d="M189.6,121.8c.2,0,.3,0,.4,-.1l2.1,-2.1c.1,-.1,.2,-.3,.2,-.4c0,-.2,-.1,-.3,-.2,-.4l-6.4,-6.5c-.2,-.2,-.6,-.2,-.8,0l-2.1,2.2c-.1,0,-.2,.2,-.2,.3c0,.2,.1,.3,.2,.4l6.5,6.5c.1,.1,.2,.1,.3,.1m1.4,-2.6l-1.4,1.4l-5.7,-5.8l1.4,-1.4Z" class="gf_154"/>
<path d="M195.4,115.6l-6.5,-6.5l-3.6,3.6l6.5,6.5Z" class="gh_154"/>
<path d="M191.8,119.7c.1,0,.2,0,.3,-.1l3.7,-3.7c.2,-.2,.2,-.5,0,-.7l-6.5,-6.5c-.2,-.2,-.6,-.2,-.8,0l-3.6,3.6c-.2,.2,-.2,.6,0,.8l6.5,6.5c.1,.1,.2,.1,.4,.1m2.8,-4.1l-2.8,2.8L186,112.7l2.9,-2.9Z" class="gf_154"/>
<path d="M157.3,147.2L162,136l6.4,6.5Z" class="g1_154"/>
<path d="M157.3,147.7c.1,0,.2,0,.2,-.1L168.6,143c.2,-.1,.3,-.2,.4,-.4c0,-.2,-.1,-.3,-.2,-.5l-6.5,-6.4c-.1,-.2,-.3,-.2,-.5,-.2c-.1,.1,-.3,.2,-.3,.3l-4.7,11.1c0,.2,0,.5,.1,.6c.1,.1,.3,.2,.4,.2m10.2,-5.4l-9.2,3.9l3.8,-9.2Z" class="gf_154"/>
<path d="M157.3,147.2l2.3,-5.4l3.1,3.1Z" class="gf_154"/>
<path d="M157.3,147.7c.1,0,.2,0,.2,-.1l5.4,-2.2c.1,-.1,.3,-.2,.3,-.4c0,-.2,0,-.3,-.1,-.5l-3.2,-3.1c-.1,-.1,-.3,-.2,-.4,-.1c-.2,0,-.4,.1,-.4,.3l-2.3,5.3c0,.2,0,.5,.1,.6c.1,.1,.3,.2,.4,.2m4.5,-3l-3.5,1.5l1.4,-3.5Z" class="gf_154"/>
<path d="M187.9,119.5l-3,-2.9l-21.2,21.2l3,3Z" class="gi_154"/>
<path d="M166.7,141.3c.1,0,.2,-.1,.3,-.2l21.3,-21.2c.1,-.1,.1,-.2,.1,-.4c0,-.1,0,-.2,-.1,-.3l-3,-3c-.2,-.2,-.5,-.2,-.8,0l-21.2,21.2c-.1,.1,-.1,.3,-.1,.4c0,.1,0,.3,.1,.4l3,2.9c.1,.1,.2,.2,.4,.2m20.4,-21.8L166.7,140l-2.2,-2.2l20.4,-20.5Z" class="gf_154"/>
<path d="M32.1,45.1H9.2m958.3,0h22.9M32.1,1331.3H9.2m958.3,0h22.9M45.1,32.1V9.2m0,1335.1v22.9M954.5,32.1V9.2m0,1335.1v22.9" class="gj_154"/>
<path d="M32.1,45.1H9.2m958.3,0h22.9M32.1,1331.3H9.2m958.3,0h22.9M45.1,32.1V9.2m0,1335.1v22.9M954.5,32.1V9.2m0,1335.1v22.9" class="gk_154"/>
<path d="M27.5,32.1H0m972.1,0h27.5M27.5,1344.3H0m972.1,0h27.5M32.1,27.5V0m0,1348.9v27.5M967.5,27.5V0m0,1348.9v27.5" class="gj_154"/>
<path d="M27.5,32.1H0m972.1,0h27.5M27.5,1344.3H0m972.1,0h27.5M32.1,27.5V0m0,1348.9v27.5M967.5,27.5V0m0,1348.9v27.5" class="gk_154"/>
</svg>