<?xml version="1.0" encoding="UTF-8" standalone="no"?>
<!DOCTYPE svg PUBLIC "-//W3C//DTD SVG 1.1//EN"
"http://www.w3.org/Graphics/SVG/1.1/DTD/svg11.dtd">
<svg viewBox="0 0 999 1376" version="1.1" xmlns="http://www.w3.org/2000/svg" xmlns:xlink="http://www.w3.org/1999/xlink">
<defs>
<clipPath id="c0_107"><path d="M32.1,1344.3V32.1H967.5V1344.3Z"/></clipPath>
<clipPath id="c1_107"><path d="M209.6,1106.1v-69.2h73.7v69.2Z"/></clipPath>
<clipPath id="c2_107"><path d="M209.6,1189.5v-69.3h73.7v69.3Z"/></clipPath>
<clipPath id="c3_107"><path d="M548.9,1108.3v-72.2h73.6v72.2Z"/></clipPath>
<clipPath id="c4_107"><path d="M548.9,1190.6v-72.2h73.6v72.2Z"/></clipPath>
<clipPath id="c5_107"><path d="M286.3,1015.4V950.8h68.4v64.6Z"/></clipPath>
<clipPath id="c6_107"><path d="M208.1,858.4l-6.5,-2.1l-16.4,-14V785.2h72v73.2Z"/></clipPath>
<clipPath id="c7_107"><path d="M200.1,137.2c.1,-1.3,.7,-2.5,1.6,-3.4c1,-1,2.3,-1.6,3.9,-1.6h19.2v5Z"/></clipPath>
<clipPath id="c8_107"><path d="M199.5,137.7v-6h25.8v6Z"/></clipPath>
<style type="text/css"><![CDATA[
.g0_107{
fill: #FEFCF4;
}
.g1_107{
fill: #FFF;
}
.g2_107{
fill: none;
stroke: #27639D;
stroke-width: 0.763;
}
.g3_107{
fill: #48484A;
}
.g4_107{
fill: #F0E8F3;
}
.g5_107{
fill: #766FA6;
}
.g6_107{
fill: none;
stroke: #231F20;
stroke-width: 0.305;
stroke-miterlimit: 10;
}
.g7_107{
fill: #6381B7;
}
.g8_107{
fill: none;
stroke: #6381B7;
stroke-width: 0.381;
stroke-dasharray: 2,1;
}
.g9_107{
fill: none;
stroke: #6381B7;
stroke-width: 0.381;
}
.ga_107{
fill: #FCE8B0;
}
.gb_107{
fill: #25408F;
}
.gc_107{
fill: none;
stroke: #231F20;
stroke-width: 1.527;
}
.gd_107{
fill: #39B4D1;
stroke: #2D2A4A;
stroke-width: 1.038;
stroke-linecap: round;
stroke-linejoin: round;
}
.ge_107{
fill: #2D2A4A;
}
.gf_107{
fill: none;
stroke: #2D2A4A;
stroke-width: 1.038;
stroke-linecap: round;
stroke-linejoin: round;
}
.gg_107{
fill: #DEDAD3;
}
.gh_107{
fill: #29263F;
}
.gi_107{
fill: #E15F46;
stroke: #2D2A4A;
stroke-width: 1.038;
stroke-linecap: round;
stroke-linejoin: round;
}
.gj_107{
fill: #DEF1F3;
}
.gk_107{
fill: #F7F8E9;
}
.gl_107{
fill: none;
stroke: #BFD62F;
stroke-width: 1.527;
stroke-linecap: round;
stroke-linejoin: round;
stroke-dasharray: 0,5;
}
.gm_107{
fill: none;
stroke: #BFD62F;
stroke-width: 1.527;
stroke-linecap: round;
stroke-linejoin: round;
}
.gn_107{
fill: #BFD62F;
}
.go_107{
fill: #D1232A;
}
.gp_107{
fill: #233D4A;
}
.gq_107{
fill: #FFE293;
}
.gr_107{
fill: #F89C47;
}
.gs_107{
fill: #FDF9EC;
}
.gt_107{
fill: none;
stroke: #F89C47;
stroke-width: 1.527;
stroke-linecap: round;
stroke-linejoin: round;
stroke-dasharray: 0,5;
}
.gu_107{
fill: none;
stroke: #F89C47;
stroke-width: 1.527;
stroke-linecap: round;
stroke-linejoin: round;
}
.gv_107{
fill: none;
stroke: #F89C47;
stroke-width: 7.638;
stroke-linecap: round;
stroke-linejoin: round;
}
.gw_107{
fill: none;
stroke: #FFF;
stroke-width: 1.909;
stroke-miterlimit: 10;
}
.gx_107{
fill: none;
stroke: #000;
stroke-width: 0.381;
stroke-miterlimit: 10;
}
]]></style>
</defs>
<path clip-path="url(#c0_107)" d="M-877.3,1344.3H45.1V32.1H-877.3V1344.3Z" class="g0_107"/>
<path d="M170.8,872.1c0,0,-17.4,0,-17.4,17.3v291.3c0,0,0,17.3,17.4,17.3H849.9c0,0,17.4,0,17.4,-17.3V889.4c0,0,0,-17.3,-17.4,-17.3Z" class="g1_107"/>
<path d="M170.8,872.1c0,0,-17.4,0,-17.4,17.3v291.3c0,0,0,17.3,17.4,17.3H849.9c0,0,17.4,0,17.4,-17.3V889.4c0,0,0,-17.3,-17.4,-17.3H170.8Z" class="g2_107"/>
<path d="M209.6,1106.1h73.7v-69.2H209.6v69.2Z" class="g1_107"/>
<image clip-path="url(#c1_107)" preserveAspectRatio="none" x="208" y="1035" width="77" height="73" xlink:href="img/1.png"/>
<path d="M209.6,1189.5h73.7v-69.3H209.6v69.3Z" class="g1_107"/>
<image clip-path="url(#c2_107)" preserveAspectRatio="none" x="208" y="1118" width="77" height="73" xlink:href="img/2.png"/>
<path d="M548.9,1108.3h73.6v-72.2H548.9v72.2Z" class="g1_107"/>
<image clip-path="url(#c3_107)" preserveAspectRatio="none" x="547" y="1034" width="77" height="76" xlink:href="img/3.png"/>
<path d="M548.9,1190.6h73.6v-72.2H548.9v72.2Z" class="g1_107"/>
<image clip-path="url(#c4_107)" preserveAspectRatio="none" x="547" y="1117" width="77" height="75" xlink:href="img/4.png"/>
<path d="M196.1,957.2c0,0,-4.4,0,-4.4,4.3v14.8c0,0,0,4.3,4.1,5.8l52.5,18.5c0,0,4.1,1.4,4.1,-2.9V961.5c0,0,0,-4.3,-4.4,-4.3Z" class="g3_107"/>
<path d="M217.2,944.2c0,0,-13,0,-13,13v51.5c0,0,0,13,13,13H822.6c0,0,13,0,13,-13V957.2c0,0,0,-13,-13,-13Z" class="g4_107"/>
<path d="M196.1,955c0,0,-4.4,0,-4.4,4.4v17.3c0,0,0,4.3,4.4,4.3h37.3c0,0,4.3,0,4.3,-4.3V959.4c0,0,0,-4.4,-4.3,-4.4Z" class="g5_107"/>
<path d="M396.5,1004.5h71.1" class="g6_107"/>
<path d="M286.3,1015.4h68.4V950.8H286.3v64.6Z" class="g1_107"/>
<image clip-path="url(#c5_107)" preserveAspectRatio="none" x="285" y="949" width="71" height="68" xlink:href="img/5.jpg"/>
<path d="M316,1095.9H466.4M316,1177.4H466.4m185.7,-81.5H802.5m-150.4,81.5H802.5" class="g6_107"/>
<path d="M430.9,1214.8c0,0,-4.3,0,-4.3,4.4V1230c0,0,0,4.3,4.3,4.3h30.3c0,0,4.3,0,4.3,-4.3v-10.8c0,0,0,-4.4,-4.3,-4.4Z" class="g7_107"/>
<path d="M417.7,1206v37.5m1.3,1H866.8m.9,-1.3v-37.6m-1.3,-1H418.7" class="g8_107"/>
<path d="M417.7,1243.9v.6h.6m448.9,0h.5v-.6m0,-38.7v-.6h-.5m-448.9,0h-.6v.6" class="g9_107"/>
<path d="M240.7,813.4c0,0,-13,0,-13,13V848c0,0,0,13,13,13H854.2c0,0,12.9,0,12.9,-13V826.4c0,0,0,-13,-12.9,-13Z" class="ga_107"/>
<image clip-path="url(#c6_107)" preserveAspectRatio="none" x="184" y="784" width="75" height="76" xlink:href="img/6.png"/>
<path d="M235.5,853.7c0,0,-26.8,11.3,-51.1,-12.8c0,0,15.2,25.3,49.3,24c0,0,24.8,.3,20.3,-10.1c0,0,1.2,-4.5,-18.5,-1.1Z" class="ga_107"/>
<path d="M153.3,109.5v39L165,158.7V136.5Z" class="gb_107"/>
<path d="M153.3,109.5v39H851.1c0,0,16.8,0,16.8,-16.8v-5.4c0,0,0,-16.8,-16.8,-16.8Z" class="g7_107"/>
<path d="M790.4,131c0,0,-.5,-10,8.6,-9.4c0,0,6.8,-.3,6.7,9.5m-15.3,-1.5v6.5c0,0,-3.4,.3,-3.9,-3c0,0,-.1,-3.8,3.9,-3.5Zm15.3,0v6.5c0,0,3.4,.3,4,-3c0,0,0,-3.8,-4,-3.5Z" class="gc_107"/>
<path d="M169,140.8h61v-32H169v32Z" class="gd_107"/>
<path d="M169,143.1h61v-2.3H169v2.3Z" class="gd_107"/>
<path d="M193.5,106.2H173.8v31.5h25.7V112.3c0,-3.4,-2.7,-6.1,-6,-6.1Z" class="g1_107"/>
<path d="M193.5,106.2v-.5H173.8c-.2,0,-.3,.1,-.4,.2c-.1,.1,-.2,.2,-.2,.3v31.5c0,.1,.1,.3,.2,.4c.1,.1,.2,.1,.4,.1h25.7c.2,0,.3,0,.4,-.1c.1,-.1,.1,-.3,.1,-.4V112.3c0,-3.7,-2.9,-6.6,-6.5,-6.6v1c1.5,0,2.9,.7,3.9,1.7c1,1,1.6,2.3,1.6,3.9v24.9H174.3V106.7h19.2Z" class="ge_107"/>
<path d="M173.8,131.7v6h25.7c0,-3.3,-2.7,-6,-6,-6Z" class="g1_107"/>
<path d="M173.8,131.7h-.6v6c0,.1,.1,.3,.2,.4c.1,.1,.2,.1,.4,.1h25.7c.2,0,.3,0,.4,-.1c.1,-.1,.1,-.3,.1,-.4c0,-3.6,-2.9,-6.6,-6.5,-6.6H173.8c-.2,0,-.3,.1,-.4,.2c-.1,.1,-.2,.2,-.2,.4h.6v.5h19.7c1.5,0,2.9,.6,3.9,1.6c1,1,1.6,2.4,1.6,3.9h.5v-.5H174.3v-5.5h-.5v.5Z" class="ge_107"/>
<path d="M177.3,110.9h17.2m-17.2,2.8h17.2m-17.2,2.9h17.2m-17.2,2.9h17.2m-17.2,2.8h17.2m-17.2,2.9h17.2M177.3,128h17.2" class="gf_107"/>
<path d="M193.5,132.2H174.3v5H199c-.1,-1.3,-.7,-2.5,-1.6,-3.4c-1,-1,-2.4,-1.6,-3.9,-1.6Z" class="gg_107"/>
<path d="M174.3,132.2h19.2c1.5,0,2.9,.6,3.9,1.6c.9,.9,1.5,2.1,1.6,3.4H174.3Zm19.2,-.5H173.8v6H199v-2.5c-.9,-2.1,-3.1,-3.5,-5.5,-3.5Z" class="gh_107"/>
<path d="M205.6,106.2h19.7v31.5H199.5V112.3c0,-3.4,2.7,-6.1,6.1,-6.1Z" class="g1_107"/>
<path d="M205.6,106.2v.5h19.2v30.5H200V112.3c0,-1.6,.7,-2.9,1.7,-3.9c1,-1,2.3,-1.7,3.9,-1.7v-1c-3.7,0,-6.6,2.9,-6.6,6.6v25.4c0,.1,.1,.3,.2,.4c0,.1,.2,.1,.3,.1h25.8c.1,0,.2,0,.3,-.1c.1,-.1,.2,-.3,.2,-.4V106.2c0,-.1,-.1,-.2,-.2,-.3c-.1,-.1,-.2,-.2,-.3,-.2H205.6Z" class="ge_107"/>
<path d="M225.3,131.7v6H199.5c0,-3.3,2.7,-6,6.1,-6Z" class="g1_107"/>
<path d="M225.3,131.7h-.5v5.5H199.5v.5h.5c0,-1.5,.7,-2.9,1.7,-3.9c1,-1,2.3,-1.6,3.9,-1.6h19.7v-.5h-.5h.5v-.6H205.6c-3.7,0,-6.6,3,-6.6,6.6c0,.1,.1,.3,.2,.4c0,.1,.2,.1,.3,.1h25.8c.1,0,.2,0,.3,-.1c.1,-.1,.2,-.3,.2,-.4v-6c0,-.2,-.1,-.3,-.2,-.4c-.1,-.1,-.2,-.2,-.3,-.2Z" class="ge_107"/>
<path d="M221.8,110.9H204.6m17.2,2.8H204.6m17.2,2.9H204.6m17.2,2.9H204.6m17.2,2.8H204.6m17.2,2.9H204.6m17.2,2.8H204.6" class="gf_107"/>
<path clip-path="url(#c7_107)" d="M200.1,137.2h24.7v-5H200.1v5Z" class="gg_107"/>
<path clip-path="url(#c8_107)" d="M200.1,137.2c.1,-1.3,.7,-2.5,1.6,-3.4c1,-1,2.3,-1.6,3.9,-1.6h19.2v5Zm25.2,-5.5H205.6c-3.4,0,-6.1,2.7,-6.1,6h25.8v-6h-.5h.5Z" class="gh_107"/>
<path d="M199.5,108.8v34.3" class="gf_107"/>
<path d="M217.2,145.5h3.3V134.7h-3.3v10.8Z" class="gi_107"/>
<path d="M170.7,166.3c0,0,-17.4,0,-17.4,17.4V309.1c0,0,0,17.3,17.4,17.3H850.6c0,0,17.3,0,17.3,-17.3V183.7c0,0,0,-17.4,-17.3,-17.4Z" class="gj_107"/>
<path d="M154.1,768.5h713V596.3h-713V768.5Z" class="gk_107"/>
<path d="M154.1,600.8V766.3m4.6,2.2H864.9m2.2,-4.5V598.5m-4.5,-2.2H156.4" class="gl_107"/>
<path d="M154.1,768.5v0m713.1,0v0m0,-172.2v0m-713.1,0v0" class="gm_107"/>
<path d="M153.3,599.5V570.9c0,0,0,-8.7,8.7,-8.7H859.3c0,0,8.6,0,8.6,8.7v29.2Z" class="gn_107"/>
<path d="M175,623c0,0,4.8,5.5,6.1,12.3c0,0,6.6,-11.3,11.7,-13.9c0,0,-9.3,4.9,-11.2,8.1c0,0,-1.8,-4.3,-6.6,-6.5Z" class="go_107"/>
<path d="M183.4,591.1l3,3l8.1,-8.1l-2.9,-3Z" class="g1_107"/>
<path d="M186.4,595.1v0c.3,0,.5,-.1,.7,-.3l8.1,-8.1c.2,-.2,.3,-.5,.3,-.7c0,-.3,-.1,-.6,-.3,-.7l-2.9,-3c-.4,-.4,-1,-.4,-1.4,0l-8.2,8.1c-.4,.4,-.4,1,0,1.4l3,3c.2,.2,.4,.3,.7,.3m6.7,-9.1l-6.7,6.7l-1.6,-1.6l6.8,-6.7Z" class="gp_107"/>
<path d="M190,564.2c-6.5,6.5,-6.5,17.1,0,23.6c6.5,6.6,17.1,6.6,23.7,0c6.5,-6.5,6.5,-17.1,0,-23.6c-6.6,-6.6,-17.2,-6.6,-23.7,0Z" class="gq_107"/>
<path d="M201.8,593.7c4.8,0,9.2,-1.8,12.6,-5.2c6.9,-6.9,6.9,-18.1,0,-25c-3.4,-3.4,-7.8,-5.2,-12.6,-5.2c-4.7,0,-9.2,1.8,-12.5,5.2c-6.9,6.9,-6.9,18.1,0,25c3.3,3.4,7.8,5.2,12.5,5.2m0,-33.5c4.2,0,8.2,1.7,11.2,4.7c6.1,6.1,6.1,16.1,0,22.2c-3,3,-7,4.6,-11.2,4.6c-4.2,0,-8.1,-1.6,-11.1,-4.6c-6.2,-6.1,-6.2,-16.1,0,-22.2c3,-3,6.9,-4.7,11.1,-4.7Z" class="gp_107"/>
<path d="M176,596.3l5.2,5.2l8.2,-8.1l-5.2,-5.3Z" class="gr_107"/>
<path d="M181.2,602.5c.3,0,.5,-.1,.7,-.3l8.2,-8.1c.2,-.2,.3,-.5,.3,-.7c0,-.3,-.1,-.6,-.3,-.7l-5.2,-5.3c-.4,-.4,-1,-.4,-1.4,0l-8.2,8.2c-.4,.4,-.4,1,0,1.4l5.2,5.2c.2,.2,.5,.3,.7,.3m6.8,-9.1l-6.8,6.7l-3.8,-3.8l6.8,-6.8Z" class="gp_107"/>
<path d="M189.8,576.1c0,6.6,5.3,11.9,11.9,11.9c6.6,0,12,-5.3,12,-11.9c0,-6.6,-5.4,-12,-12,-12c-6.6,0,-11.9,5.4,-11.9,12Z" class="g1_107"/>
<path d="M201.7,588.8c7,0,12.8,-5.7,12.8,-12.7c0,-7,-5.8,-12.8,-12.8,-12.8c-7,0,-12.7,5.8,-12.7,12.8c0,7,5.7,12.7,12.7,12.7m0,-23.9c6.2,0,11.2,5,11.2,11.2c0,6.1,-5,11.1,-11.2,11.1c-6.1,0,-11.1,-5,-11.1,-11.1c0,-6.2,5,-11.2,11.1,-11.2Z" class="gp_107"/>
<path d="M171.4,334.4c0,0,-17.3,0,-17.3,17.3V495.1c0,0,0,17.4,17.3,17.4H849.8c0,0,17.3,0,17.3,-17.4V351.7c0,0,0,-17.3,-17.3,-17.3Z" class="gs_107"/>
<path d="M166.9,335.1c-4.8,1.2,-11.7,4.6,-12.7,14.3m-.1,7V492.8m.7,6.9c1.2,4.7,4.6,11.7,14.3,12.7m6.9,.1H847.5m6.8,-.7c4.8,-1.2,11.8,-4.6,12.7,-14.4m.1,-6.9V354m-.6,-6.8c-1.2,-4.8,-4.6,-11.7,-14.4,-12.7m-6.9,-.1H173.7" class="gt_107"/>
<path d="M154.1,351.7v0m0,143.4v0m17.3,17.4v0m678.4,0v0m17.4,-17.4v0m0,-143.4v0M849.8,334.4v0m-678.4,0v0" class="gu_107"/>
<path d="M188,322.2v18.3m12.6,-18.3v18.3M820.3,322.2v18.3m12.6,-18.3v18.3" class="gv_107"/>
<path d="M32.1,45.1H9.2m958.3,0h22.9M32.1,1331.3H9.2m958.3,0h22.9M45.1,32.1V9.2m0,1335.1v22.9M954.5,32.1V9.2m0,1335.1v22.9" class="gw_107"/>
<path d="M32.1,45.1H9.2m958.3,0h22.9M32.1,1331.3H9.2m958.3,0h22.9M45.1,32.1V9.2m0,1335.1v22.9M954.5,32.1V9.2m0,1335.1v22.9" class="gx_107"/>
<path d="M27.5,32.1H0m972.1,0h27.5M27.5,1344.3H0m972.1,0h27.5M32.1,27.5V0m0,1348.9v27.5M967.5,27.5V0m0,1348.9v27.5" class="gw_107"/>
<path d="M27.5,32.1H0m972.1,0h27.5M27.5,1344.3H0m972.1,0h27.5M32.1,27.5V0m0,1348.9v27.5M967.5,27.5V0m0,1348.9v27.5" class="gx_107"/>
</svg>