<?xml version="1.0" encoding="UTF-8" standalone="no"?>
<!DOCTYPE svg PUBLIC "-//W3C//DTD SVG 1.1//EN"
"http://www.w3.org/Graphics/SVG/1.1/DTD/svg11.dtd">
<svg viewBox="0 0 999 1376" version="1.1" xmlns="http://www.w3.org/2000/svg" xmlns:xlink="http://www.w3.org/1999/xlink">
<defs>
<clipPath id="c0_224"><path d="M32.1,1344.3V32.1H967.5V1344.3Z"/></clipPath>
<clipPath id="c1_224"><path d="M215.6,970.9V897.8H288v73.1Z"/></clipPath>
<clipPath id="c2_224"><path d="M211.4,1056.4V982.8H283v73.6Z"/></clipPath>
<clipPath id="c3_224"><path d="M208.7,1141.4v-73.6H283v73.6Z"/></clipPath>
<clipPath id="c4_224"><path d="M208.4,1226.4v-73.5h73.9v73.5Z"/></clipPath>
<clipPath id="c5_224"><path d="M259,865.1v-78h81.4v78Z"/></clipPath>
<clipPath id="c6_224"><path d="M176.6,696.6l-6.5,-2.1L153.7,680.6V623.5h72v73.1Z"/></clipPath>
<clipPath id="c7_224"><path d="M178.4,137.2c.1,-1.3,.7,-2.5,1.6,-3.4c1,-1,2.4,-1.6,3.9,-1.6h19.2v5Z"/></clipPath>
<clipPath id="c8_224"><path d="M177.9,137.7v-6h25.7v6Z"/></clipPath>
<style type="text/css"><![CDATA[
.g0_224{
fill: #FEFCF4;
}
.g1_224{
fill: #DEF1F3;
}
.g2_224{
fill: #9BD1EA;
}
.g3_224{
fill: #FFF;
}
.g4_224{
fill: none;
stroke: #58595B;
stroke-width: 0.381;
stroke-miterlimit: 10;
}
.g5_224{
fill: none;
stroke: #6381B7;
stroke-width: 0.763;
}
.g6_224{
fill: none;
stroke: #231F20;
stroke-width: 0.42;
stroke-miterlimit: 10;
}
.g7_224{
fill: #48484A;
}
.g8_224{
fill: #F0E8F3;
}
.g9_224{
fill: #766FA6;
}
.ga_224{
fill: none;
stroke: #231F20;
stroke-width: 0.458;
stroke-miterlimit: 10;
}
.gb_224{
fill: #6381B7;
}
.gc_224{
fill: none;
stroke: #6381B7;
stroke-width: 0.381;
stroke-dasharray: 2,1;
}
.gd_224{
fill: none;
stroke: #6381B7;
stroke-width: 0.381;
}
.ge_224{
fill: #FCE8B0;
}
.gf_224{
fill: #25408F;
}
.gg_224{
fill: none;
stroke: #231F20;
stroke-width: 1.527;
}
.gh_224{
fill: #39B4D1;
stroke: #2D2A4A;
stroke-width: 1.038;
stroke-linecap: round;
stroke-linejoin: round;
}
.gi_224{
fill: #2D2A4A;
}
.gj_224{
fill: none;
stroke: #2D2A4A;
stroke-width: 1.038;
stroke-linecap: round;
stroke-linejoin: round;
}
.gk_224{
fill: #DEDAD3;
}
.gl_224{
fill: #29263F;
}
.gm_224{
fill: #E15F46;
stroke: #2D2A4A;
stroke-width: 1.038;
stroke-linecap: round;
stroke-linejoin: round;
}
.gn_224{
fill: #F7F8E9;
}
.go_224{
fill: none;
stroke: #BFD62F;
stroke-width: 1.527;
stroke-linecap: round;
stroke-linejoin: round;
stroke-dasharray: 0,5;
}
.gp_224{
fill: none;
stroke: #BFD62F;
stroke-width: 1.527;
stroke-linecap: round;
stroke-linejoin: round;
}
.gq_224{
fill: #BFD62F;
}
.gr_224{
fill: #D1232A;
}
.gs_224{
fill: #233D4A;
}
.gt_224{
fill: #FFE293;
}
.gu_224{
fill: #F89C47;
}
.gv_224{
fill: none;
stroke: #FFF;
stroke-width: 1.909;
stroke-miterlimit: 10;
}
.gw_224{
fill: none;
stroke: #000;
stroke-width: 0.381;
stroke-miterlimit: 10;
}
]]></style>
</defs>
<path clip-path="url(#c0_224)" d="M954.5,1344.3H1877V32.1H954.5V1344.3Z" class="g0_224"/>
<path d="M149,165.8c0,0,-17.3,0,-17.3,17.3V407.9c0,0,0,17.3,17.3,17.3H828.9c0,0,17.4,0,17.4,-17.3V183.1c0,0,0,-17.3,-17.4,-17.3Z" class="g1_224"/>
<path d="M173.9,212.3H303.8v47.6H173.9V212.3Zm129.9,0h130v47.6h-130V212.3Z" class="g2_224"/>
<path d="M173.9,259.9H303.8v47.7H173.9V259.9Zm129.9,0h130v47.7h-130V259.9Z" class="g3_224"/>
<path d="M173.9,212.3H303.8m0,0h130m-130,47.4V212.5M173.9,259.9H303.8m0,0h130m-130,47.5V260.1M173.9,307.6H303.8m0,0h130" class="g4_224"/>
<path d="M435.9,212.3H804v23.8H435.9V212.3Zm0,23.8H630.8v23.8H435.9V236.1Zm194.9,0H804v23.8H630.8V236.1Z" class="g2_224"/>
<path d="M435.9,259.9H630.8v47.7H435.9V259.9Zm194.9,0H804v47.7H630.8V259.9Z" class="g3_224"/>
<path d="M435.9,212.3H630.8m0,0H804M435.9,236.1H630.8m0,0H804M630.8,259.7V236.3M435.9,259.9H630.8m0,0H804M630.8,307.4V260.1M435.9,307.6H630.8m0,0H804" class="g4_224"/>
<path d="M145.1,715c0,0,-13,0,-13,13v503.3c0,0,0,13,13,13H832.9c0,0,13,0,13,-13V728c0,0,0,-13,-13,-13Z" class="g3_224"/>
<path d="M145.1,715c0,0,-13,0,-13,13v503.3c0,0,0,13,13,13H832.9c0,0,13,0,13,-13V728c0,0,0,-13,-13,-13H145.1Z" class="g5_224"/>
<path d="M203.8,1230.7h86.9V897.5H203.8v333.2Z" class="g3_224"/>
<image clip-path="url(#c1_224)" preserveAspectRatio="none" x="216" y="897" width="73" height="74" xlink:href="img/1.jpg"/>
<image clip-path="url(#c2_224)" preserveAspectRatio="none" x="211" y="983" width="73" height="73" xlink:href="img/2.jpg"/>
<image clip-path="url(#c3_224)" preserveAspectRatio="none" x="209" y="1068" width="74" height="73" xlink:href="img/3.jpg"/>
<image clip-path="url(#c4_224)" preserveAspectRatio="none" x="208" y="1153" width="74" height="73" xlink:href="img/4.jpg"/>
<path d="M374.3,933.8H574.1m-199.8,84H574.1m-145.9,84H628m-234.1,84.1H593.7" class="g6_224"/>
<path d="M178.8,791.4c0,0,-4.4,0,-4.4,4.4v14.7c0,0,0,4.3,4.1,5.8L231,834.8c0,0,4,1.4,4,-2.9V795.8c0,0,0,-4.4,-4.3,-4.4Z" class="g7_224"/>
<path d="M199.9,778.4c0,0,-13,0,-13,13v79.1c0,0,0,13,13,13H808.4c0,0,13,0,13,-13V791.4c0,0,0,-13,-13,-13Z" class="g8_224"/>
<path d="M178.8,789.3c0,0,-4.4,0,-4.4,4.3v17.3c0,0,0,4.3,4.4,4.3H216c0,0,4.4,0,4.4,-4.3V793.6c0,0,0,-4.3,-4.4,-4.3Z" class="g9_224"/>
<path d="M410.1,813.5h75.7" class="ga_224"/>
<image clip-path="url(#c5_224)" preserveAspectRatio="none" x="257" y="785" width="85" height="82" xlink:href="img/5.jpg"/>
<path d="M679.2,1135.6c0,0,-4.3,0,-4.3,4.4v10.8c0,0,0,4.3,4.3,4.3h30.3c0,0,4.3,0,4.3,-4.3V1140c0,0,0,-4.4,-4.3,-4.4Z" class="gb_224"/>
<path d="M666,1123.2v106.3m1.3,1H829.2m1,-1.3V1122.8m-1.3,-.9H667" class="gc_224"/>
<path d="M666,1229.9v.6h.6m163,0h.6v-.6m0,-107.4v-.6h-.6m-163,0H666v.6" class="gd_224"/>
<path d="M209.2,651.6c0,0,-13,0,-13,13v21.7c0,0,0,13,13,13H830.8c0,0,13,0,13,-13V664.6c0,0,0,-13,-13,-13Z" class="ge_224"/>
<image clip-path="url(#c6_224)" preserveAspectRatio="none" x="152" y="622" width="75" height="76" xlink:href="img/6.png"/>
<path d="M204,691.9c0,0,-26.8,11.3,-51.1,-12.8c0,0,15.2,25.4,49.3,24c0,0,24.8,.4,20.3,-10.1c0,0,1.2,-4.5,-18.5,-1.1Z" class="ge_224"/>
<path d="M131.7,109.5v39l11.7,10.2V136.5Z" class="gf_224"/>
<path d="M131.7,109.5v39H829.5c0,0,16.8,0,16.8,-16.8v-5.4c0,0,0,-16.8,-16.8,-16.8Z" class="gb_224"/>
<path d="M768.8,131c0,0,-.5,-10,8.6,-9.4c0,0,6.7,-.3,6.6,9.5m-15.3,-1.5v6.5c0,0,-3.3,.3,-3.9,-3c0,0,-.1,-3.8,3.9,-3.5Zm15.4,0v6.5c0,0,3.3,.3,3.9,-3c0,0,.1,-3.8,-3.9,-3.5Z" class="gg_224"/>
<path d="M147.4,140.8h61v-32h-61v32Z" class="gh_224"/>
<path d="M147.4,143.1h61v-2.3h-61v2.3Z" class="gh_224"/>
<path d="M171.8,106.2H152.1v31.5h25.8V112.3c0,-3.4,-2.7,-6.1,-6.1,-6.1Z" class="g3_224"/>
<path d="M171.8,106.2v-.5H152.1c-.1,0,-.3,.1,-.4,.2c-.1,.1,-.1,.2,-.1,.3v31.5c0,.1,0,.3,.1,.4c.1,.1,.3,.1,.4,.1h25.8c.1,0,.2,0,.3,-.1c.1,-.1,.2,-.3,.2,-.4V112.3c0,-3.7,-2.9,-6.6,-6.6,-6.6v1c1.6,0,2.9,.7,3.9,1.7c1,1,1.6,2.3,1.6,3.9v24.9H152.6V106.7h19.2Z" class="gi_224"/>
<path d="M152.1,131.7v6h25.8c0,-3.3,-2.7,-6,-6.1,-6Z" class="g3_224"/>
<path d="M152.1,131.7h-.5v6c0,.1,0,.3,.1,.4c.1,.1,.3,.1,.4,.1h25.8c.1,0,.2,0,.3,-.1c.1,-.1,.2,-.3,.2,-.4c0,-3.6,-3,-6.6,-6.6,-6.6H152.1c-.1,0,-.3,.1,-.4,.2c-.1,.1,-.1,.2,-.1,.4h.5v.5h19.7c1.6,0,2.9,.6,3.9,1.6c1,1,1.6,2.4,1.6,3.9h.6v-.5H152.6v-5.5h-.5v.5Z" class="gi_224"/>
<path d="M155.6,110.9h17.2m-17.2,2.8h17.2m-17.2,2.9h17.2m-17.2,2.9h17.2m-17.2,2.8h17.2m-17.2,2.9h17.2M155.6,128h17.2" class="gj_224"/>
<path d="M171.8,132.2H152.6v5h24.7c-.1,-1.3,-.7,-2.5,-1.6,-3.4c-1,-1,-2.3,-1.6,-3.9,-1.6Z" class="gk_224"/>
<path d="M152.6,132.2h19.2c1.6,0,2.9,.6,3.9,1.6c.9,.9,1.5,2.1,1.6,3.4H152.6Zm19.2,-.5H152.1v6h25.2v-2.5c-.9,-2.1,-3,-3.5,-5.5,-3.5Z" class="gl_224"/>
<path d="M183.9,106.2h19.7v31.5H177.9V112.3c0,-3.4,2.7,-6.1,6,-6.1Z" class="g3_224"/>
<path d="M183.9,106.2v.5h19.2v30.5H178.4V112.3c0,-1.6,.6,-2.9,1.6,-3.9c1,-1,2.4,-1.7,3.9,-1.7v-1c-3.6,0,-6.6,2.9,-6.6,6.6v25.4c0,.1,.1,.3,.2,.4c.1,.1,.2,.1,.4,.1h25.7c.2,0,.3,0,.4,-.1c.1,-.1,.1,-.3,.1,-.4V106.2c0,-.1,0,-.2,-.1,-.3c-.1,-.1,-.2,-.2,-.4,-.2H183.9Z" class="gi_224"/>
<path d="M203.6,131.7v6H177.9c0,-3.3,2.7,-6,6,-6Z" class="g3_224"/>
<path d="M203.6,131.7h-.5v5.5H177.9v.5h.5c0,-1.5,.6,-2.9,1.6,-3.9c1,-1,2.4,-1.6,3.9,-1.6h19.7v-.5h-.5h.5v-.6H183.9c-3.6,0,-6.6,3,-6.6,6.6c0,.1,.1,.3,.2,.4c.1,.1,.2,.1,.4,.1h25.7c.2,0,.3,0,.4,-.1c.1,-.1,.1,-.3,.1,-.4v-6c0,-.2,0,-.3,-.1,-.4c-.1,-.1,-.2,-.2,-.4,-.2Z" class="gi_224"/>
<path d="M200.1,110.9H182.9m17.2,2.8H182.9m17.2,2.9H182.9m17.2,2.9H182.9m17.2,2.8H182.9m17.2,2.9H182.9m17.2,2.8H182.9" class="gj_224"/>
<path clip-path="url(#c7_224)" d="M178.4,137.2h24.7v-5H178.4v5Z" class="gk_224"/>
<path clip-path="url(#c8_224)" d="M178.4,137.2c.1,-1.3,.7,-2.5,1.6,-3.4c1,-1,2.4,-1.6,3.9,-1.6h19.2v5Zm25.2,-5.5H183.9c-3.3,0,-6,2.7,-6,6h25.7v-6h-.5h.5Z" class="gl_224"/>
<path d="M177.9,108.8v34.3" class="gj_224"/>
<path d="M195.5,145.5h3.3V134.7h-3.3v10.8Z" class="gm_224"/>
<path d="M132.5,586.5h713v-111h-713v111Z" class="gn_224"/>
<path d="M132.5,480.1V584.2m4.5,2.3H843.2m2.3,-4.6V477.8m-4.6,-2.4H134.7" class="go_224"/>
<path d="M132.5,586.5v0m713,0v0m0,-111.1v0m-713,0v0" class="gp_224"/>
<path d="M131.7,478.7V450.1c0,0,0,-8.7,8.6,-8.7H837.6c0,0,8.7,0,8.7,8.7v29.1Z" class="gq_224"/>
<path d="M153.3,502.1c0,0,4.8,5.6,6.1,12.4c0,0,6.7,-11.4,11.7,-14c0,0,-9.3,5,-11.1,8.2c0,0,-1.9,-4.3,-6.7,-6.6Z" class="gr_224"/>
<path d="M161.8,470.3l2.9,3l8.2,-8.2l-3,-2.9Z" class="g3_224"/>
<path d="M164.7,474.3v0c.3,0,.6,-.1,.7,-.3l8.2,-8.2c.2,-.2,.3,-.4,.3,-.7c0,-.2,-.1,-.5,-.3,-.7l-3,-2.9c-.4,-.4,-1,-.4,-1.4,0l-8.1,8.1c-.4,.4,-.4,1,0,1.4l2.9,3c.2,.2,.5,.3,.7,.3m6.8,-9.2l-6.8,6.8l-1.5,-1.6l6.7,-6.7Z" class="gs_224"/>
<path d="M168.3,443.3c-6.5,6.6,-6.5,17.2,0,23.7c6.6,6.5,17.2,6.5,23.7,0c6.5,-6.5,6.5,-17.1,0,-23.7c-6.5,-6.5,-17.1,-6.5,-23.7,0Z" class="gt_224"/>
<path d="M180.2,472.9c4.7,0,9.2,-1.9,12.5,-5.2c6.9,-6.9,6.9,-18.2,0,-25.1c-3.3,-3.3,-7.8,-5.2,-12.5,-5.2c-4.8,0,-9.2,1.9,-12.6,5.2c-6.9,6.9,-6.9,18.2,0,25.1c3.4,3.3,7.8,5.2,12.6,5.2m0,-33.5c4.2,0,8.1,1.7,11.1,4.6c6.2,6.2,6.2,16.2,0,22.3c-3,3,-6.9,4.6,-11.1,4.6c-4.2,0,-8.2,-1.6,-11.2,-4.6c-6.1,-6.1,-6.1,-16.1,0,-22.3c3,-2.9,7,-4.6,11.2,-4.6Z" class="gs_224"/>
<path d="M154.3,475.5l5.3,5.2l8.1,-8.2l-5.2,-5.2Z" class="gu_224"/>
<path d="M159.6,481.7c.2,0,.5,-.1,.7,-.3l8.1,-8.2c.2,-.2,.3,-.4,.3,-.7c0,-.2,-.1,-.5,-.3,-.7l-5.2,-5.2c-.4,-.4,-1,-.4,-1.4,0l-8.2,8.2c-.4,.4,-.4,1,0,1.4l5.3,5.2c.2,.2,.4,.3,.7,.3m6.7,-9.2l-6.7,6.8l-3.9,-3.8l6.8,-6.8Z" class="gs_224"/>
<path d="M168.1,455.3c0,6.6,5.4,11.9,12,11.9c6.6,0,11.9,-5.3,11.9,-11.9c0,-6.6,-5.3,-12,-11.9,-12c-6.6,0,-12,5.4,-12,12Z" class="g3_224"/>
<path d="M180.1,468c7,0,12.7,-5.7,12.7,-12.7c0,-7.1,-5.7,-12.8,-12.7,-12.8c-7.1,0,-12.8,5.7,-12.8,12.8c0,7,5.7,12.7,12.8,12.7m0,-23.9c6.1,0,11.1,5,11.1,11.2c0,6.1,-5,11.1,-11.1,11.1c-6.2,0,-11.2,-5,-11.2,-11.1c0,-6.2,5,-11.2,11.2,-11.2Z" class="gs_224"/>
<path d="M32.1,45.1H9.2m958.3,0h22.9M32.1,1331.3H9.2m958.3,0h22.9M45.1,32.1V9.2m0,1335.1v22.9M954.5,32.1V9.2m0,1335.1v22.9" class="gv_224"/>
<path d="M32.1,45.1H9.2m958.3,0h22.9M32.1,1331.3H9.2m958.3,0h22.9M45.1,32.1V9.2m0,1335.1v22.9M954.5,32.1V9.2m0,1335.1v22.9" class="gw_224"/>
<path d="M27.5,32.1H0m972.1,0h27.5M27.5,1344.3H0m972.1,0h27.5M32.1,27.5V0m0,1348.9v27.5M967.5,27.5V0m0,1348.9v27.5" class="gv_224"/>
<path d="M27.5,32.1H0m972.1,0h27.5M27.5,1344.3H0m972.1,0h27.5M32.1,27.5V0m0,1348.9v27.5M967.5,27.5V0m0,1348.9v27.5" class="gw_224"/>
</svg>