<?xml version="1.0" encoding="UTF-8" standalone="no"?>
<!DOCTYPE svg PUBLIC "-//W3C//DTD SVG 1.1//EN"
"http://www.w3.org/Graphics/SVG/1.1/DTD/svg11.dtd">
<svg viewBox="0 0 999 1376" version="1.1" xmlns="http://www.w3.org/2000/svg" xmlns:xlink="http://www.w3.org/1999/xlink">
<defs>
<clipPath id="c0_53"><path d="M32.1,1344.3V32.1H967.5V1344.3Z"/></clipPath>
<clipPath id="c1_53"><path d="M203.1,287.5l-6.5,-2.1l-14,-11.2V213.3h62.7v74.2Z"/></clipPath>
<clipPath id="c2_53"><path d="M203.1,478l-6.5,-2l-14,-11.3V403.9h62.7V478Z"/></clipPath>
<clipPath id="c3_53"><path d="M203,1021.6l-6.5,-2l-14,-11.2V947.5h62.7v74.1Z"/></clipPath>
<style type="text/css"><![CDATA[
.g0_53{
fill: #FFFDEA;
}
.g1_53{
fill: #BCE4EA;
}
.g2_53{
fill: #BCBEC0;
}
.g3_53{
fill: #00AABD;
}
.g4_53{
fill: #FCDCBA;
}
.g5_53{
fill: #D8CCE4;
}
.g6_53{
fill: #FFF;
}
.g7_53{
fill: none;
stroke: #FFF;
stroke-width: 0.305;
stroke-miterlimit: 10;
}
.g8_53{
fill: none;
stroke: #6D6F71;
stroke-width: 0.305;
stroke-miterlimit: 10;
}
.g9_53{
fill: none;
stroke: #6D6F71;
stroke-width: 0.305;
stroke-miterlimit: 10;
stroke-dasharray: 2,2;
}
.ga_53{
fill: #DED3E8;
}
.gb_53{
fill: none;
stroke: #6D6F71;
stroke-width: 0.152;
stroke-miterlimit: 10;
}
.gc_53{
fill: none;
stroke: #976EAF;
stroke-width: 0.763;
stroke-dasharray: 3,3;
}
.gd_53{
fill: none;
stroke: #976EAF;
stroke-width: 0.763;
}
.ge_53{
fill: none;
stroke: #FFF;
stroke-width: 1.909;
stroke-miterlimit: 10;
}
.gf_53{
fill: none;
stroke: #000;
stroke-width: 0.381;
stroke-miterlimit: 10;
}
]]></style>
</defs>
<g clip-path="url(#c0_53)">
<path d="M-877.3,1344.3H967.5V32.1H-877.3V1344.3Z" class="g0_53"/>
<path d="M-877.3,179.3H967.5V32.1H-877.3V179.3Z" class="g1_53"/>
<path d="M967.5,177.2H-877.3v-5.4h736.6c43.1,0,53.1,-37.9,115.3,-37.9H967.5Z" class="g2_53"/>
<path d="M967.5,183.7H-877.3v-9.8h736.6c43.1,0,53.1,-33.6,115.3,-33.6H967.5Z" class="g3_53"/>
</g>
<path d="M235.8,242.5c0,0,-13,0,-13,13v21.6c0,0,0,13,13,13h619c0,0,13,0,13,-13V255.5c0,0,0,-13,-13,-13Z" class="g4_53"/>
<image clip-path="url(#c1_53)" preserveAspectRatio="none" x="183" y="212" width="62" height="77" xlink:href="img/1.png"/>
<path d="M230.6,282.7c0,0,-26.9,11.3,-51.1,-12.7c0,0,15.1,25.3,49.2,24c0,0,24.8,.3,20.3,-10.2c0,0,1.2,-4.4,-18.4,-1.1Z" class="g4_53"/>
<path d="M235.8,433c0,0,-13,0,-13,13v21.7c0,0,0,13,13,13h619c0,0,13,0,13,-13V446c0,0,0,-13,-13,-13Z" class="g4_53"/>
<image clip-path="url(#c2_53)" preserveAspectRatio="none" x="183" y="403" width="62" height="77" xlink:href="img/2.png"/>
<path d="M230.6,473.3c0,0,-26.9,11.3,-51.1,-12.8c0,0,15.1,25.4,49.2,24c0,0,24.8,.3,20.3,-10.1c0,0,1.2,-4.5,-18.4,-1.1Z" class="g4_53"/>
<path d="M341.7,644.7H467.3V558H341.7v86.7Z" class="g5_53"/>
<path d="M467.3,558H592.9v43.4H467.3V558Zm125.6,0H718.5v43.4H592.9V558Z" class="g6_53"/>
<path d="M467.3,601.4H592.9v43.3H467.3V601.4Zm125.6,0H718.5v43.3H592.9V601.4Z" class="g6_53"/>
<path d="M467.5,601.4H592.9m0,0H718.3" class="g7_53"/>
<path d="M341.6,558H467.3M341.7,601.4V558.2M467.3,558H592.9M467.3,601.4V558.2M592.9,558H718.7M592.9,601.2v-43m125.6,43.2V558.2M341.7,644.5V601.4m125.6,43.1V601.4m125.6,43.1v-43m125.6,43V601.4M341.6,644.7H467.3m0,0H592.9m0,0H718.7" class="g8_53"/>
<path d="M469.3,601.4H591.7" class="g9_53"/>
<path d="M467.5,601.4h.6m124.2,0h.6" class="g8_53"/>
<path d="M594.8,601.4H717.1" class="g9_53"/>
<path d="M592.9,601.4h.6m124.2,0h.6" class="g8_53"/>
<path d="M192.5,658H328v49.8H192.5V658Zm0,49.8H328v49.8H192.5V707.8Zm0,49.8H328v49.8H192.5V757.6Zm0,49.8H328v49.8H192.5V807.4Zm0,49.8H328V907H192.5V857.2Z" class="ga_53"/>
<path d="M328,658h77.1v49.8H328V658Zm77.1,0h77.1v49.8H405.1V658Zm77.1,0h77.1v49.8H482.2V658Zm77.1,0h77.1v49.8H559.3V658Zm77.1,0h77v49.8h-77V658Zm77,0h77.1v49.8H713.4V658Zm77.1,0h77.1v49.8H790.5V658ZM328,707.8h77.1v49.8H328V707.8Zm77.1,0h77.1v49.8H405.1V707.8Zm77.1,0h77.1v49.8H482.2V707.8Zm77.1,0h77.1v49.8H559.3V707.8Zm77.1,0h77v49.8h-77V707.8Zm77,0h77.1v49.8H713.4V707.8Zm77.1,0h77.1v49.8H790.5V707.8ZM328,757.6h77.1v49.8H328V757.6Zm77.1,0h77.1v49.8H405.1V757.6Zm77.1,0h77.1v49.8H482.2V757.6Zm77.1,0h77.1v49.8H559.3V757.6Zm77.1,0h77v49.8h-77V757.6Zm77,0h77.1v49.8H713.4V757.6Zm77.1,0h77.1v49.8H790.5V757.6ZM328,807.4h77.1v49.8H328V807.4Zm77.1,0h77.1v49.8H405.1V807.4Zm77.1,0h77.1v49.8H482.2V807.4Zm77.1,0h77.1v49.8H559.3V807.4Zm77.1,0h77v49.8h-77V807.4Zm77,0h77.1v49.8H713.4V807.4Zm77.1,0h77.1v49.8H790.5V807.4ZM328,857.2h77.1V907H328V857.2Zm77.1,0h77.1V907H405.1V857.2Zm77.1,0h77.1V907H482.2V857.2Zm77.1,0h77.1V907H559.3V857.2Zm77.1,0h77V907h-77V857.2Zm77,0h77.1V907H713.4V857.2Zm77.1,0h77.1V907H790.5V857.2Z" class="g6_53"/>
<path d="M482.2,707.6V658.1" class="g7_53"/>
<path d="M328,658h77.1m0,0h77.1m-77.1,49.6V658.1m77.1,-.1h77.1m0,0h77.1m-77.1,49.6V658.1m77.1,-.1h77m-77,49.6V658.1m77,-.1h77.1m-77.1,49.6V658.1m77.1,-.1h77.3m-77.3,49.6V658.1m77.1,49.5V658.1M328,707.8h77.1m0,0h77.1m-77.1,49.6V707.9m77.1,-.1h77.1m-77.1,49.6V707.9m77.1,-.1h77.1m-77.1,49.6V707.9m77.1,-.1h77m-77,49.6V707.9m77,-.1h77.1m-77.1,49.6V707.9m77.1,-.1h77.3m-77.3,49.6V707.9m77.1,49.5V707.9M328,757.6h77.1m0,0h77.1m-77.1,49.6V757.7m77.1,-.1h77.1m-77.1,49.6V757.7m77.1,-.1h77.1m-77.1,49.6V757.7m77.1,-.1h77m-77,49.6V757.7m77,-.1h77.1m-77.1,49.6V757.7m77.1,-.1h77.3m-77.3,49.6V757.7m77.1,49.5V757.7M328,807.4h77.1m0,0h77.1M405.1,857V807.5m77.1,-.1h77.1M482.2,857V807.5m77.1,-.1h77.1M559.3,857V807.5m77.1,-.1h77m-77,49.6V807.5m77,-.1h77.1M713.4,857V807.5m77.1,-.1h77.3M790.5,857V807.5M867.6,857V807.5M328,857.2h77.1m0,0h77.1m-77.1,49.6V857.3m77.1,-.1h77.1m-77.1,49.6V857.3m77.1,-.1h77.1m-77.1,49.6V857.3m77.1,-.1h77m-77,49.6V857.3m77,-.1h77.1m-77.1,49.6V857.3m77.1,-.1h77.3m-77.3,49.6V857.3m77.1,49.5V857.3M328,907h77.1m0,0h77.1m0,0h77.1m0,0h77.1m0,0h77m0,0h77.1m0,0h77.3" class="g8_53"/>
<path d="M482.1,707.6V658.1m.2,49.5V658.1" class="gb_53"/>
<path d="M192.3,658H328M192.5,707.6V658.1M328,707.6V658.1M192.3,707.8H328M192.5,757.4V707.9M328,757.4V707.9M192.3,757.6H328M192.5,807.2V757.7M328,807.2V757.7M192.3,807.4H328M192.5,857V807.5M328,857V807.5M192.3,857.2H328M192.5,906.8V857.3M328,906.8V857.3M192.3,907H328" class="g8_53"/>
<path d="M235.6,976.6c0,0,-13,0,-13,13v21.7c0,0,0,13,13,13H854.7c0,0,13,0,13,-13V989.6c0,0,0,-13,-13,-13Z" class="g4_53"/>
<image clip-path="url(#c3_53)" preserveAspectRatio="none" x="182" y="947" width="63" height="76" xlink:href="img/3.png"/>
<path d="M230.4,1016.9c0,0,-26.8,11.3,-51.1,-12.8c0,0,15.2,25.4,49.3,24c0,0,24.8,.4,20.3,-10.1c0,0,1.2,-4.5,-18.5,-1.1Z" class="g4_53"/>
<path d="M391.4,600.7c7,-1.7,12.5,-7.5,13.6,-14.7m-.3,-7C403,571.9,397.2,566.5,390,565.4m-7,.2c-7,1.7,-12.5,7.5,-13.6,14.7m.3,7.1c1.7,7,7.5,12.4,14.7,13.6" class="gc_53"/>
<path d="M405.2,584.6c0,-.5,0,-1,0,-1.4c0,-.5,0,-1,0,-1.4M388.6,565.2c-.5,0,-.9,-.1,-1.4,-.1c-.5,0,-.9,.1,-1.4,.1m-16.6,16.6c0,.4,0,.9,0,1.4c0,.4,0,.9,0,1.4m16.6,16.5c.5,.1,.9,.1,1.4,.1c.5,0,.9,0,1.4,-.1" class="gd_53"/>
<path d="M32.1,45.1H9.2m958.3,0h22.9M32.1,1331.3H9.2m958.3,0h22.9M45.1,32.1V9.2m0,1335.1v22.9M954.5,32.1V9.2m0,1335.1v22.9" class="ge_53"/>
<path d="M32.1,45.1H9.2m958.3,0h22.9M32.1,1331.3H9.2m958.3,0h22.9M45.1,32.1V9.2m0,1335.1v22.9M954.5,32.1V9.2m0,1335.1v22.9" class="gf_53"/>
<path d="M27.5,32.1H0m972.1,0h27.5M27.5,1344.3H0m972.1,0h27.5M32.1,27.5V0m0,1348.9v27.5M967.5,27.5V0m0,1348.9v27.5" class="ge_53"/>
<path d="M27.5,32.1H0m972.1,0h27.5M27.5,1344.3H0m972.1,0h27.5M32.1,27.5V0m0,1348.9v27.5M967.5,27.5V0m0,1348.9v27.5" class="gf_53"/>
</svg>