<?xml version="1.0" encoding="UTF-8" standalone="no"?>
<!DOCTYPE svg PUBLIC "-//W3C//DTD SVG 1.1//EN"
"http://www.w3.org/Graphics/SVG/1.1/DTD/svg11.dtd">
<svg viewBox="0 0 999 1376" version="1.1" xmlns="http://www.w3.org/2000/svg" xmlns:xlink="http://www.w3.org/1999/xlink">
<defs>
<clipPath id="c0_169"><path d="M153.3,1251.2V131.7H867.9V1251.2Z"/></clipPath>
<clipPath id="c1_169"><path d="M275,1177.1V236.6H860.2v940.5Z"/></clipPath>
<style type="text/css"><![CDATA[
.g0_169{
fill: #FFF;
}
.g1_169{
fill: #93BEDA;
}
.g2_169{
fill: none;
stroke: #231F20;
stroke-width: 0.756;
stroke-miterlimit: 3;
}
.g3_169{
fill: #25408F;
}
.g4_169{
fill: #6381B7;
}
.g5_169{
fill: #FFDE2C;
}
.g6_169{
fill: none;
stroke: #231F20;
stroke-width: 1.451;
stroke-miterlimit: 10;
}
.g7_169{
fill: #D2D3D5;
}
.g8_169{
fill: #A8AAAD;
}
.g9_169{
fill: none;
stroke: #231F20;
stroke-width: 0.828;
stroke-miterlimit: 10;
}
.ga_169{
fill: #6CCFF6;
}
.gb_169{
fill: none;
stroke: #231F20;
stroke-width: 0.828;
stroke-linecap: round;
stroke-linejoin: round;
}
.gc_169{
fill: none;
stroke: #231F20;
stroke-width: 1.451;
stroke-linecap: round;
stroke-linejoin: round;
}
.gd_169{
fill: none;
stroke: #FFF;
stroke-width: 1.909;
stroke-miterlimit: 10;
}
.ge_169{
fill: none;
stroke: #000;
stroke-width: 0.381;
stroke-miterlimit: 10;
}
]]></style>
</defs>
<path d="M153.3,1251.2H867.9V131.7H153.3V1251.2Z" class="g0_169"/>
<image clip-path="url(#c0_169)" preserveAspectRatio="none" x="151" y="129" width="720" height="1125" xlink:href="img/1.jpg"/>
<image clip-path="url(#c1_169)" preserveAspectRatio="none" x="275" y="237" width="585" height="940" xlink:href="img/2.png"/>
<path d="M181.5,241.4c0,0,-8.7,0,-8.7,8.6v43.3c0,0,0,8.7,8.7,8.7h82.3c0,0,8.6,0,8.6,-8.7V250c0,0,0,-8.6,-8.6,-8.6Z" class="g1_169"/>
<path d="M181.5,575.3c0,0,-8.7,0,-8.7,8.6v43.3c0,0,0,8.7,8.7,8.7h82.3c0,0,8.6,0,8.6,-8.7V583.9c0,0,0,-8.6,-8.6,-8.6Z" class="g1_169"/>
<path d="M181.5,749.4c0,0,-8.7,0,-8.7,8.6v43.3c0,0,0,8.7,8.7,8.7h82.3c0,0,8.6,0,8.6,-8.7V758c0,0,0,-8.6,-8.6,-8.6Z" class="g1_169"/>
<path d="M181.5,909.6c0,0,-8.7,0,-8.7,8.7v95.2c0,0,0,8.7,8.7,8.7h82.3c0,0,8.6,0,8.6,-8.7V918.3c0,0,0,-8.7,-8.6,-8.7Z" class="g1_169"/>
<path d="M181.5,1077.5c0,0,-8.7,0,-8.7,8.7v77.9c0,0,0,8.7,8.7,8.7h82.3c0,0,8.6,0,8.6,-8.7v-77.9c0,0,0,-8.7,-8.6,-8.7Z" class="g1_169"/>
<path d="M426.5,202c0,.2,-.1,.3,-.2,.4c-.2,.1,-.4,.2,-.6,.2H413.8c-.9,0,-1.6,-.2,-2,-.6c-.5,-.4,-.7,-1,-.7,-1.7V194h14c.7,0,1.2,.2,1.5,.5c.3,.2,.4,.6,.3,1.2l-.4,6.3Zm-1.9,-1.2v-5H413.4v4.3c0,.2,0,.4,.1,.5c.1,.2,.3,.2,.6,.2h10.5Zm5.1,-9.3H408.4v-1.8h21.3v1.8Zm-4.9,-7c-.3,.7,-.8,1.2,-1.3,1.7c-.6,.4,-1.3,.8,-2.1,1c-.8,.2,-1.7,.3,-2.6,.3c-.9,0,-1.7,-.1,-2.5,-.3c-.8,-.2,-1.6,-.6,-2.2,-1c-.6,-.5,-1,-1,-1.4,-1.7c-.3,-.6,-.5,-1.4,-.5,-2.2c0,-.9,.2,-1.6,.5,-2.3c.4,-.7,.8,-1.2,1.4,-1.7c.6,-.4,1.4,-.7,2.2,-1c.8,-.2,1.6,-.3,2.5,-.3c.9,0,1.8,.1,2.6,.3c.8,.3,1.5,.6,2,1c.6,.5,1.1,1,1.4,1.7c.4,.7,.6,1.4,.6,2.3c0,.8,-.2,1.6,-.6,2.2Zm-2.9,-4.8c-.8,-.6,-1.8,-.9,-3.1,-.9c-1.3,0,-2.3,.3,-3.1,.9c-.8,.7,-1.2,1.5,-1.2,2.6c0,1,.4,1.8,1.2,2.5c.8,.6,1.8,.9,3.1,.9c1.3,0,2.3,-.3,3.1,-.9c.8,-.7,1.2,-1.5,1.2,-2.5c0,-1.1,-.4,-1.9,-1.2,-2.6Zm29,22.9h-2v-6.9c0,-.2,-.1,-.4,-.2,-.6c0,-.1,-.2,-.2,-.5,-.2H435.5v-1.8h12.4c.3,-.4,.6,-.9,.9,-1.5c.2,-.6,.4,-1.2,.4,-1.8V177.9h2.2v11.7c0,.9,-.2,1.7,-.5,2.2c-.4,.6,-.7,1,-1.1,1.4c.5,.1,.8,.3,1.1,.6c.2,.4,.3,.8,.3,1.4l-.3,7.4ZM439,177.7c.1,.5,.3,.9,.3,1.4c.1,.5,.2,1,.2,1.6c0,.4,-.1,.8,-.1,1.2c-.1,.3,-.1,.7,-.2,1.1c1.1,.1,1.8,.3,2.4,.7c.5,.4,1,.7,1.3,1.1c.5,.6,.9,1.3,1.5,2c.5,.8,1,1.4,1.5,2.1l-1.6,1.2c-.5,-.7,-1,-1.4,-1.5,-2.1c-.5,-.8,-1,-1.4,-1.5,-1.9c-.3,-.4,-.7,-.8,-1.1,-1c-.4,-.2,-.9,-.3,-1.5,-.5c-.2,.4,-.4,.7,-.6,1.1c-.2,.3,-.4,.7,-.7,1c-.6,.8,-1.3,1.5,-2.2,2.3c-.8,.8,-1.7,1.4,-2.4,1.8l-1.2,-1.7c.8,-.6,1.6,-1.1,2.3,-1.8c.7,-.6,1.3,-1.2,1.8,-1.9c.6,-.8,1,-1.6,1.2,-2.4c.1,-.7,.2,-1.5,.3,-2.3c0,-.4,-.1,-.8,-.1,-1.2c-.1,-.4,-.2,-.7,-.3,-1.1l2.2,-.7Zm37.1,22.4V188h-3.5v5.4c-.7,.6,-1.5,1.1,-2.3,1.4c-.8,.3,-1.6,.5,-2.5,.5h-2.6c-.8,0,-1.5,-.1,-2,-.5c-.4,-.3,-.7,-.9,-.7,-1.6v-14h10.1V186h3.5v-7.8h2.2v21.9h-2.2ZM470.4,181h-5.7v11.8c0,.2,.1,.4,.2,.5c.1,.1,.2,.2,.5,.2h2.2c.4,0,.8,-.1,1.3,-.2c.6,-.2,1.1,-.4,1.5,-.8V181Zm11.2,-2.8h2.2v22.5h-2.2V178.2ZM492,201.6V194h-5.5v-1.9h21.3V194h-5.7v7.6h-2.2V194h-5.7v7.6H492Zm-.4,-23v7.1c0,.2,.1,.5,.2,.6c.1,.2,.3,.2,.6,.2h5.7c1.1,0,2.3,0,3.4,-.2c1.1,-.1,2.2,-.4,3.3,-.7l.4,1.8c-1,.3,-2.1,.6,-3.3,.7c-1.2,.2,-2.5,.3,-3.8,.3h-6c-1,0,-1.7,-.2,-2.1,-.7c-.4,-.4,-.6,-1,-.6,-1.8v-7.3h2.2Z" class="g2_169"/>
<path d="M153.3,126.3v22.2L165,158.7V136.5Z" class="g3_169"/>
<path d="M153.3,109.5v39H851.1c0,0,16.8,0,16.8,-16.8v-5.4c0,0,0,-16.8,-16.8,-16.8Z" class="g4_169"/>
<path d="M207.2,115.7c0,-9.1,-7.9,-16.6,-17.7,-16.6c-9.8,0,-17.7,7.5,-17.7,16.6c0,2.7,.6,5.2,1.8,7.4c1.2,2.4,2.9,4.6,5,6.2c1.2,1,1.6,1.7,1.7,4.3v.6c0,3.3,2.7,5.9,5.9,5.9h6.6c3.2,0,5.8,-2.6,5.8,-5.9v-.6c.2,-2.6,.6,-3.3,1.8,-4.3c2.1,-1.6,3.8,-3.8,5,-6.2c1.2,-2.2,1.8,-4.7,1.8,-7.4Z" class="g5_169"/>
<path d="M207.2,115.7c0,-9.1,-7.9,-16.6,-17.7,-16.6c-9.8,0,-17.7,7.5,-17.7,16.6c0,2.7,.6,5.2,1.8,7.4c1.2,2.4,2.9,4.6,5,6.2c1.2,1,1.6,1.7,1.7,4.3v.6c0,3.3,2.7,5.9,5.9,5.9h6.6c3.2,0,5.8,-2.6,5.8,-5.9v-.6c.2,-2.6,.6,-3.3,1.8,-4.3c2.1,-1.6,3.8,-3.8,5,-6.2c1.2,-2.2,1.8,-4.7,1.8,-7.4Z" class="g6_169"/>
<path d="M194.6,147.4c0,2.8,-2.3,5.1,-5.1,5.1c-2.8,0,-5.1,-2.3,-5.1,-5.1c0,-2.8,2.3,-5.1,5.1,-5.1c2.8,0,5.1,2.3,5.1,5.1Z" class="g0_169"/>
<path d="M194.6,147.4c0,2.8,-2.3,5.1,-5.1,5.1c-2.8,0,-5.1,-2.3,-5.1,-5.1c0,-2.8,2.3,-5.1,5.1,-5.1c2.8,0,5.1,2.3,5.1,5.1Z" class="g6_169"/>
<path d="M182.1,140.2c0,1,.8,1.8,1.8,1.8h11.2c1,0,1.8,-.8,1.8,-1.8v-1.3H182.1Z" class="g0_169"/>
<path d="M182.1,140.2c0,1,.8,1.8,1.8,1.8h11.2c1,0,1.8,-.8,1.8,-1.8v-1.3H182.1v1.3Z" class="g6_169"/>
<path d="M196.9,143.2c0,.8,-.6,1.3,-1.3,1.3H183.4c-.8,0,-1.3,-.5,-1.3,-1.3c0,-.7,.5,-1.3,1.3,-1.3h12.2c.7,0,1.3,.6,1.3,1.3Z" class="g0_169"/>
<path d="M196.9,143.2c0,.8,-.6,1.3,-1.3,1.3H183.4c-.8,0,-1.3,-.5,-1.3,-1.3c0,-.7,.5,-1.3,1.3,-1.3h12.2c.7,0,1.3,.6,1.3,1.3Z" class="g6_169"/>
<path d="M196.9,145.8c0,.7,-.6,1.3,-1.3,1.3H183.4c-.8,0,-1.3,-.6,-1.3,-1.3c0,-.7,.5,-1.3,1.3,-1.3h12.2c.7,0,1.3,.6,1.3,1.3Z" class="g0_169"/>
<path d="M196.9,145.8c0,.7,-.6,1.3,-1.3,1.3H183.4c-.8,0,-1.3,-.6,-1.3,-1.3c0,-.7,.5,-1.3,1.3,-1.3h12.2c.7,0,1.3,.6,1.3,1.3Z" class="g6_169"/>
<path d="M215.5,128.7l8.3,10.4c.6,.7,1.8,.6,2.7,-.2c.9,-.7,1.2,-1.9,.7,-2.6l-8.9,-10.2Z" class="g7_169"/>
<path d="M215.5,128.7l8.3,10.4c.6,.7,1.8,.6,2.7,-.2c.9,-.7,1.2,-1.9,.7,-2.6l-8.9,-10.2l-2.8,2.6Z" class="g6_169"/>
<path d="M217.5,125.1c.5,.6,.3,1.8,-.7,2.6c-.9,.7,-2.1,.8,-2.6,.2c-.6,-.7,-.3,-1.9,.6,-2.6c.9,-.8,2.1,-.9,2.7,-.2Z" class="g8_169"/>
<path d="M217.5,125.1c.5,.6,.3,1.8,-.7,2.6c-.9,.7,-2.1,.8,-2.6,.2c-.6,-.7,-.3,-1.9,.6,-2.6c.9,-.8,2.1,-.9,2.7,-.2Z" class="g6_169"/>
<path d="M212.7,124.7l1.7,2c.3,.3,1,.3,1.5,-.1c.5,-.5,.7,-1.1,.4,-1.5l-1.7,-2Z" class="g0_169"/>
<path d="M212.7,124.7l1.7,2c.3,.3,1,.3,1.5,-.1c.5,-.5,.7,-1.1,.4,-1.5l-1.7,-2l-1.9,1.6Z" class="g9_169"/>
<path d="M214.8,122.9c.4,.5,.2,1.3,-.5,1.8c-.6,.5,-1.4,.6,-1.8,.1c-.4,-.4,-.2,-1.2,.5,-1.7c.6,-.6,1.4,-.6,1.8,-.2Z" class="g0_169"/>
<path d="M214.8,122.9c.4,.5,.2,1.3,-.5,1.8c-.6,.5,-1.4,.6,-1.8,.1c-.4,-.4,-.2,-1.2,.5,-1.7c.6,-.6,1.4,-.6,1.8,-.2Z" class="g9_169"/>
<path d="M216.4,105.4c4.8,5.7,4.1,14.2,-1.7,19c-5.7,4.8,-14.2,4,-19,-1.7c-4.8,-5.7,-4,-14.2,1.7,-19c5.7,-4.8,14.2,-4.1,19,1.7Z" class="g0_169"/>
<path d="M216.4,105.4c4.8,5.7,4.1,14.2,-1.7,19c-5.7,4.8,-14.2,4,-19,-1.7c-4.8,-5.7,-4,-14.2,1.7,-19c5.7,-4.8,14.2,-4.1,19,1.7Z" class="g6_169"/>
<path d="M214,107.4c3.5,4.2,3,10.5,-1.3,14.1c-4.2,3.5,-10.5,2.9,-14,-1.3c-3.5,-4.2,-3,-10.5,1.2,-14c4.2,-3.6,10.5,-3,14.1,1.2Z" class="ga_169"/>
<path d="M214,107.4c3.5,4.2,3,10.5,-1.3,14.1c-4.2,3.5,-10.5,2.9,-14,-1.3c-3.5,-4.2,-3,-10.5,1.2,-14c4.2,-3.6,10.5,-3,14.1,1.2Z" class="g6_169"/>
<path d="M213,110.6l-3.1,3m3.1,-.4l-3.1,3" class="gb_169"/>
<path d="M172.1,99l3.1,3.3m1.1,-5.9l1.2,3.9m-8.1,3l3.7,1.2" class="gc_169"/>
<path d="M185.8,106.1c1.2,1.2,.2,4.3,-2.2,6.7c-2.5,2.5,-5.5,3.5,-6.8,2.3c-1.2,-1.3,-.3,-4.3,2.2,-6.8c2.5,-2.5,5.5,-3.5,6.8,-2.2Z" class="g0_169"/>
<path d="M203.7,107.6c.6,.6,.1,1.9,-.9,3c-1.1,1,-2.4,1.5,-3,.9c-.5,-.5,-.1,-1.8,1,-2.9c1.1,-1.1,2.4,-1.5,2.9,-1Z" class="g0_169"/>
<path d="M32.1,45.1H9.2m958.3,0h22.9M32.1,1331.3H9.2m958.3,0h22.9M45.1,32.1V9.2m0,1335.1v22.9M954.5,32.1V9.2m0,1335.1v22.9" class="gd_169"/>
<path d="M32.1,45.1H9.2m958.3,0h22.9M32.1,1331.3H9.2m958.3,0h22.9M45.1,32.1V9.2m0,1335.1v22.9M954.5,32.1V9.2m0,1335.1v22.9" class="ge_169"/>
<path d="M27.5,32.1H0m972.1,0h27.5M27.5,1344.3H0m972.1,0h27.5M32.1,27.5V0m0,1348.9v27.5M967.5,27.5V0m0,1348.9v27.5" class="gd_169"/>
<path d="M27.5,32.1H0m972.1,0h27.5M27.5,1344.3H0m972.1,0h27.5M32.1,27.5V0m0,1348.9v27.5M967.5,27.5V0m0,1348.9v27.5" class="ge_169"/>
</svg>