<?xml version="1.0" encoding="UTF-8" standalone="no"?>
<!DOCTYPE svg PUBLIC "-//W3C//DTD SVG 1.1//EN"
"http://www.w3.org/Graphics/SVG/1.1/DTD/svg11.dtd">
<svg viewBox="0 0 999 1376" version="1.1" xmlns="http://www.w3.org/2000/svg" xmlns:xlink="http://www.w3.org/1999/xlink">
<defs>
<clipPath id="c0_67"><path d="M32.1,1344.3V32.1H967.5V1344.3Z"/></clipPath>
<clipPath id="c1_67"><path d="M374.8,605.1V523.2H501.9v81.9Z"/></clipPath>
<clipPath id="c2_67"><path d="M692.3,451.9V370H819.4v81.9Z"/></clipPath>
<clipPath id="c3_67"><path d="M533.8,605.1V523.2H661v81.9Z"/></clipPath>
<clipPath id="c4_67"><path d="M215.7,911.4v-82H342.8v82Z"/></clipPath>
<clipPath id="c5_67"><path d="M374.8,758.2V676.3H501.9v81.9Z"/></clipPath>
<clipPath id="c6_67"><path d="M199.2,335.8l-6.5,-2.1L176.3,319.8V262.7h72v73.1Z"/></clipPath>
<clipPath id="c7_67"><path d="M658.6,177V59h200V177Z"/></clipPath>
<style type="text/css"><![CDATA[
.g0_67{
fill: #FEFCF4;
}
.g1_67{
fill: #FFF;
}
.g2_67{
fill: none;
stroke: #6381B7;
stroke-width: 0.763;
}
.g3_67{
fill: none;
stroke: #949698;
stroke-width: 0.29;
}
.g4_67{
fill: #2C3D98;
}
.g5_67{
fill: #EE2123;
}
.g6_67{
fill: #4E9C44;
}
.g7_67{
fill: #EE1D23;
}
.g8_67{
fill: #FFF200;
}
.g9_67{
fill: none;
stroke: #231F20;
stroke-width: 0.152;
}
.ga_67{
fill: #F4EC1A;
}
.gb_67{
fill: #F68F1E;
}
.gc_67{
fill: #9F3023;
}
.gd_67{
fill: #F2EB19;
}
.ge_67{
fill: none;
stroke: #DEA825;
stroke-width: 0.786;
}
.gf_67{
fill: #F2EB19;
stroke: #DEA825;
stroke-width: 0.786;
}
.gg_67{
fill: #DE374D;
}
.gh_67{
fill: #F8D026;
}
.gi_67{
fill: #4B6B5A;
}
.gj_67{
fill: #4F4B72;
}
.gk_67{
fill: #FFF;
stroke: #949698;
stroke-width: 0.29;
}
.gl_67{
fill: #F4C037;
}
.gm_67{
fill: #47B048;
}
.gn_67{
fill: #DF3546;
}
.go_67{
fill: #FCE8B0;
}
.gp_67{
fill: #25408F;
}
.gq_67{
fill: #6381B7;
}
.gr_67{
fill: #00BAF1;
}
.gs_67{
fill: #332D2C;
}
.gt_67{
fill: #D9DFF0;
}
.gu_67{
fill: #F27C85;
}
.gv_67{
fill: #7DD3F6;
}
.gw_67{
fill: none;
stroke: #00ABE5;
stroke-width: 2.291;
}
.gx_67{
fill: #3D3B39;
}
.gy_67{
fill: #E5E9B7;
}
.gz_67{
fill: #61C7CB;
}
.g10_67{
fill: none;
stroke: #00ABE5;
stroke-width: 1.527;
stroke-linecap: round;
stroke-linejoin: round;
stroke-dasharray: 0,5;
}
.g11_67{
fill: none;
stroke: #00ABE5;
stroke-width: 1.527;
stroke-linecap: round;
stroke-linejoin: round;
}
.g12_67{
fill: #2E6E51;
}
.g13_67{
fill: #BCBEC0;
}
.g14_67{
fill: #EE314A;
}
.g15_67{
fill: #28684F;
}
.g16_67{
fill: #EA364D;
}
.g17_67{
fill: #050504;
}
.g18_67{
fill: none;
stroke: #FFF;
stroke-width: 1.909;
stroke-miterlimit: 10;
}
.g19_67{
fill: none;
stroke: #000;
stroke-width: 0.381;
stroke-miterlimit: 10;
}
]]></style>
</defs>
<path d="M45.1,1344.3H967.5V32.1H45.1V1344.3Z" class="g0_67"/>
<path clip-path="url(#c0_67)" d="M-877.3,1344.3H45.1V32.1H-877.3V1344.3Z" class="g0_67"/>
<path d="M172.1,220.3c0,0,-18.4,0,-18.4,18.3V959.1c0,0,0,18.3,18.4,18.3H849.2c0,0,18.3,0,18.3,-18.3V220.3Z" class="g1_67"/>
<path d="M172.1,220.3c0,0,-18.4,0,-18.4,18.3V959.1c0,0,0,18.3,18.4,18.3H849.2c0,0,18.3,0,18.3,-18.3V220.3H172.1Z" class="g2_67"/>
<path d="M374.8,605.1H501.9V523.2H374.8v81.9Z" class="g1_67"/>
<image clip-path="url(#c1_67)" preserveAspectRatio="none" x="375" y="523" width="127" height="82" xlink:href="img/1.jpg"/>
<path d="M374.8,605.1H501.9V523.2H374.8v81.9Z" class="g3_67"/>
<path d="M692.3,451.9H819.4V370H692.3v81.9Z" class="g1_67"/>
<image clip-path="url(#c2_67)" preserveAspectRatio="none" x="692" y="370" width="129" height="83" xlink:href="img/2.jpg"/>
<path d="M692.3,451.9H819.4V370H692.3v81.9Z" class="g3_67"/>
<path d="M533.8,451.9H661V370H533.8v81.9Z" class="g1_67"/>
<path d="M569.1,451.9h62.3L589.8,409.6l41.2,-.7L567.9,370Z" class="g4_67"/>
<path d="M570.7,451.1l56.9,-.5L585,407.1l39.7,-.7L570.1,374.2Z" class="g5_67"/>
<path d="M571.1,393.7c0,0,.2,6.6,7.7,10.7c7.6,4,14.6,-.6,16.8,-3c2.2,-2.4,3.4,-5.8,3.4,-7.9c0,0,-3.8,5.8,-10.2,7.2l2.6,-1.6l-2.1,-.8l1.5,-2l-2.9,.3l.8,-2.7l-2.4,1.5l-1.4,-2.7l-.9,3.1l-1.9,-2.1v2.8l-3.1,2.9l2.5,-.9l-2.5,.9l2.4,.9c0,0,-.9,.5,-4.3,-1.2c-3.3,-1.6,-6,-5.4,-6,-5.4Z" class="g1_67"/>
<path d="M579.3,420.7l.5,6l-5.4,-1.1l3.6,4.9l-5.4,2.1l5.2,2l-3.8,4.3l6.2,-.5l-.4,6.2l4.3,-4.1l2.2,5.8l2.3,-5.7l4.7,3.6l-.7,-5.6l5.8,1l-3.8,-5.2l5.2,-2.1l-5.4,-1.9l3.7,-5l-6,1.3l.9,-5.8l-4.6,3.9l-2.2,-6l-2.6,6Z" class="g1_67"/>
<path d="M533.8,451.9H661V370H533.8v81.9Z" class="g3_67"/>
<path d="M533.8,605.1H661V523.2H533.8v81.9Z" class="g1_67"/>
<image clip-path="url(#c3_67)" preserveAspectRatio="none" x="534" y="523" width="129" height="84" xlink:href="img/3.jpg"/>
<path d="M533.8,605.1H661V523.2H533.8v81.9Z" class="g3_67"/>
<path d="M692.3,758.2H819.5V676.3H692.3v81.9Z" class="g1_67"/>
<path d="M692.3,721.6H819.5V676.3H692.3v45.3Z" class="g4_67"/>
<path d="M692.4,758.2H819.5V716.3H692.4Z" class="g6_67"/>
<path d="M692.4,730.9H819.5V709.2H692.4v21.7Z" class="g5_67"/>
<path d="M692.6,728.8H819.5V710.9H692.6v17.9Z" class="g1_67"/>
<path d="M706.9,692.2c0,0,-6.5,2.1,-6.1,7.6c.4,5.5,6.2,7,6.2,7c0,0,-5.6,1.4,-9.4,-3.7c-3.7,-5.1,1.7,-12,9.3,-10.9Z" class="g1_67"/>
<path d="M726,692.9l.5,1.1l1.2,.2l-.9,.8l.2,1.2l-1,-.6l-1.1,.6l.2,-1.2l-.8,-.8l1.2,-.2Z" class="g1_67"/>
<path d="M730.7,692.9l.5,1l1.2,.2l-.9,.8l.2,1.2l-1,-.6l-1.1,.6l.2,-1.2l-.8,-.8l1.1,-.2Z" class="g1_67"/>
<path d="M735,692.9l.5,1.1l1.2,.2l-.8,.8l.2,1.2l-1.1,-.6l-1,.6l.2,-1.2l-.9,-.8l1.2,-.2Z" class="g1_67"/>
<path d="M726.1,697.9l.5,1l1.2,.2l-.9,.8l.2,1.2l-1,-.6l-1.1,.6l.2,-1.2l-.8,-.8l1.2,-.2Z" class="g1_67"/>
<path d="M730.8,697.8l.5,1l1.2,.2l-.9,.9l.2,1.1l-1,-.5l-1.1,.5l.2,-1.1l-.8,-.9l1.1,-.2Z" class="g1_67"/>
<path d="M735.1,697.9l.5,1l1.2,.2l-.8,.8l.2,1.2l-1.1,-.6l-1,.6l.2,-1.2l-.9,-.8l1.2,-.2Z" class="g1_67"/>
<path d="M720.8,697.8l.6,1.1l1.1,.2l-.8,.8l.2,1.2l-1.1,-.6l-1,.6l.2,-1.2l-.9,-.8l1.2,-.2Z" class="g1_67"/>
<path d="M726,702.6l.6,1.1l1.1,.1l-.8,.9l.2,1.1l-1.1,-.5l-1,.5l.2,-1.1l-.9,-.9l1.2,-.1Z" class="g1_67"/>
<path d="M730.7,702.5l.5,1.1l1.2,.2l-.8,.8l.2,1.2l-1.1,-.6l-1,.6l.2,-1.2l-.9,-.8l1.2,-.2Z" class="g1_67"/>
<path d="M735.1,702.6l.5,1.1l1.2,.1l-.9,.9l.2,1.1l-1,-.5l-1.1,.5l.2,-1.1l-.8,-.9l1.1,-.1Z" class="g1_67"/>
<path d="M720.8,702.6l.5,1l1.2,.2l-.9,.8l.2,1.2l-1,-.5l-1.1,.5l.2,-1.2l-.8,-.8l1.2,-.2Z" class="g1_67"/>
<path d="M715.7,702.6l.5,1l1.2,.2l-.9,.8l.2,1.2l-1,-.5l-1.1,.5l.2,-1.2l-.8,-.8l1.1,-.2Z" class="g1_67"/>
<path d="M692.3,758.2H819.5V676.3H692.3v81.9Z" class="g3_67"/>
<path d="M374.8,911.4H501.9v-82H374.8v82Z" class="g1_67"/>
<path d="M374.8,911.1H501.9V829.4H374.8v81.7Z" class="g7_67"/>
<path d="M391.9,834.7l9.2,23.7L378.7,845.3l26.4,-1.4l-22.4,14.5Z" class="g8_67"/>
<path d="M406.4,832.1l6.6,5.3h-7.9l7.9,-5.3l-5.3,7.9Z" class="g8_67"/>
<path d="M414.3,840l5.2,7.9l-7.9,-2.6l7.9,-2.7l-5.2,6.6Z" class="g8_67"/>
<path d="M418.2,851.8l2.7,8l-6.6,-5.3l7.9,1.3l-7.9,4Z" class="g8_67"/>
<path d="M409,862.4l6.6,5.2h-9.2l7.9,-3.9l-4,7.9Z" class="g8_67"/>
<path d="M374.8,911.4H501.9v-82H374.8v82Z" class="g3_67"/>
<path d="M215.7,911.4H342.8v-82H215.7v82Z" class="g1_67"/>
<path d="M215.7,871.1H342.8V829.4H215.7v41.7Z" class="g1_67"/>
<path clip-path="url(#c4_67)" d="M214.3,916.3H346.6V826H214.3v90.3Z" class="g9_67"/>
<path d="M215.7,871H342.8V829.4H215.7V871Z" class="g7_67"/>
<path d="M215.7,911.4H342.8v-82H215.7v82Z" class="g3_67"/>
<path d="M374.8,758.2H501.9V676.3H374.8v81.9Z" class="g1_67"/>
<path d="M374.8,758.2H501.9V676.3H374.8v81.9Z" class="g7_67"/>
<path d="M414.8,710.7h18.5L439,693.1l5.8,17.6h18.4l-14.9,11l5.7,17.5L439,728.4l-14.9,10.8l5.7,-17.5Z" class="g8_67"/>
<path clip-path="url(#c5_67)" d="M372.3,761.7H505.6V670.8H372.3v90.9Z" class="g9_67"/>
<path d="M374.8,758.2H501.9V676.3H374.8v81.9Z" class="g3_67"/>
<path d="M215.7,613.9H342.8v-82H215.7v82Z" class="ga_67"/>
<path d="M222.7,603.1h19.4V542.9H222.7v60.2Z" class="g6_67"/>
<path d="M240.4,603.1h17.7V542.9H240.4v60.2Z" class="gb_67"/>
<path d="M262.3,603.3H337V542.9H262.3v60.4Z" class="gc_67"/>
<path d="M269.8,552c0,0,-.7,-2.6,-.9,-4.7c-.1,-2.1,-.9,-2.7,-2.3,-3.2c-1.4,-.5,-3.1,.5,-2.4,3.4c.6,2.8,1.9,2.4,3,2.7c1.3,.5,2.6,1.8,2.6,1.8Z" class="gd_67"/>
<path d="M269.8,552c0,0,-.7,-2.6,-.9,-4.7c-.1,-2.1,-.9,-2.7,-2.3,-3.2c-1.4,-.5,-3.1,.5,-2.4,3.4c.6,2.8,1.9,2.4,3,2.7c1.3,.5,2.6,1.8,2.6,1.8Z" class="ge_67"/>
<path d="M269.5,594c0,0,-1.9,1.5,-3.7,2.2c-1.7,.8,-1.9,1.8,-2,3.5c-.1,1.6,1.3,3.2,3.5,1.8c2.2,-1.5,1.5,-2.9,1.5,-4.1c0,-1.6,.7,-3.4,.7,-3.4Z" class="gd_67"/>
<path d="M269.5,594c0,0,-1.9,1.5,-3.7,2.2c-1.7,.8,-1.9,1.8,-2,3.5c-.1,1.6,1.3,3.2,3.5,1.8c2.2,-1.5,1.5,-2.9,1.5,-4.1c0,-1.6,.7,-3.4,.7,-3.4Z" class="ge_67"/>
<path d="M330,594.3c0,0,.8,2.5,1.1,4.6c.2,2.2,1,2.7,2.4,3.1c1.4,.5,3,-.7,2.3,-3.5c-.7,-2.8,-2,-2.3,-3.1,-2.6c-1.3,-.4,-2.7,-1.6,-2.7,-1.6Z" class="gd_67"/>
<path d="M330,594.3c0,0,.8,2.5,1.1,4.6c.2,2.2,1,2.7,2.4,3.1c1.4,.5,3,-.7,2.3,-3.5c-.7,-2.8,-2,-2.3,-3.1,-2.6c-1.3,-.4,-2.7,-1.6,-2.7,-1.6Z" class="ge_67"/>
<path d="M330.1,552.1c0,0,2.1,-1.4,3.9,-2c1.7,-.6,2,-1.6,2.2,-3.2c.2,-1.7,-1.1,-3.4,-3.4,-2.1c-2.3,1.3,-1.6,2.7,-1.7,3.9c-.1,1.6,-1,3.4,-1,3.4Z" class="gd_67"/>
<path d="M330.1,552.1c0,0,2.1,-1.4,3.9,-2c1.7,-.6,2,-1.6,2.2,-3.2c.2,-1.7,-1.1,-3.4,-3.4,-2.1c-2.3,1.3,-1.6,2.7,-1.7,3.9c-.1,1.6,-1,3.4,-1,3.4Z" class="ge_67"/>
<path d="M281.7,550.7c0,1.2,-.3,20.5,-.3,21.3c0,0,.6,.1,.7,.8c0,.7,-.3,2,0,2.3c.3,.4,.2,.6,.8,.8c.6,.2,1,1.5,1.5,1.9c.4,.3,1.4,1.8,1.4,1.8c0,0,.1,-2.8,.7,-4.7c.5,-2,2.5,-4.8,3,-5.3c.6,-.5,1.2,-.7,1.2,-1.8c0,-1,-.7,-.8,-1.1,-.7c-.4,.1,-.5,.3,-.6,-.2c-.1,-.6,-.4,.2,-.8,.3c-.4,.1,-.3,-.3,-.3,-.6c0,-.4,-.1,-.1,-.5,.3c-.5,.5,-.8,.5,-.9,-.1c-.2,-.7,.3,-1.1,-.2,-.7c-.5,.5,-.8,.8,-1.3,.6c-.5,-.3,-.3,-.9,.1,-1.1c.4,-.2,1.1,-1,1,-1.4c-.2,-.5,-.5,-.5,-.6,-1.1c-.2,-.5,-.5,-.9,.1,-.9c.6,-.1,.9,.2,1.6,.2c.6,0,2.4,-.1,2.8,.3c.4,.3,1.4,.6,1.6,.6c0,0,-.2,-1.1,-.9,-1.1c-.7,0,-1,-.7,-1,-1.2c0,-.5,-.2,.8,-.9,.4c-.6,-.3,-.4,-.8,-.9,-1c-.4,-.3,-1,-.1,-1.4,-.7c-.4,-.5,-.4,-.7,-.8,-1.2c-.5,-.5,-.4,-1.1,-.4,-1.9c0,-.8,.5,-1.6,1.1,-1.6c.6,0,.9,.8,.9,1.4c0,.5,.7,-.2,1.2,-.5c.6,-.2,2.6,.1,3.1,-.2c.4,-.4,-.5,-1.6,0,-1.9c.6,-.3,1.4,0,1.8,.4c.4,.3,.7,.8,1.3,.2c.6,-.6,.5,-1,1.1,-1c.6,0,1.1,1.1,2,1.2c.9,.1,1.1,-.2,1.5,-.7c.5,-.5,.6,-.5,1.1,-.5c.6,0,.9,.9,.9,1.5c0,.5,-.1,.9,.4,.8c.6,0,1,-.4,1.4,-1c.4,-.6,.6,-.8,.6,0c0,.8,-.7,1.3,-.9,2.1c-.2,.8,.4,1.2,.7,1.6c.3,.5,.4,1.2,.1,1.4c-.3,.3,-.6,.1,-.6,.1c0,0,.4,3.6,0,4.2c-.4,.6,-.6,-.1,-.6,-.1c0,0,-.1,1.1,.3,1.6c.5,.5,0,1,-.3,1.3c-.3,.4,-.3,.9,0,1.5c.2,.5,1.9,.9,2.5,1c.6,.2,3.9,.3,6.6,-.1c2.8,-.5,4.7,-1.2,7.1,-.5c0,0,1.4,-.6,1.4,-2.5c0,-1.8,-.9,-3.3,-2.5,-3.5c-1.6,-.3,-3.3,.4,-4.4,.6c-1.1,.2,-3,.3,-4.2,-.1c-1.2,-.4,-2.5,-.8,-3.2,-.7c-.7,.1,-.9,.4,-1.2,-.8c-.3,-1.2,0,-1.6,.4,-2c.4,-.3,0,-.3,-.5,-.9c-.4,-.7,-.3,-2.9,.1,-4.1c.5,-1.3,1,-2.9,5.8,-2.8c4.8,.1,7.3,3.9,9,5.6c1.6,1.7,2.4,2.2,3,1.8c.7,-.5,1.5,-1.2,1.5,-.3c0,.9,0,1.6,-1.6,1.6c-1.6,0,-2.1,-1,-3.1,-1.6c-1,-.5,-2.5,-2,-2.3,-1.6c.2,.5,.7,1.4,.2,1.5c-.4,.1,-.8,-1.4,-1.2,-1.7c-.4,-.2,-1.1,-1.6,-1.3,-2c-.3,-.4,.2,2,-.8,2.9c-1,.9,-.6,-3.6,-1.5,-3.7c-.8,-.1,-.4,3,-1.2,3.3c-.8,.3,-.2,-2.1,-.9,-3c-.7,-1,-1.1,-1,-1.1,-.5c0,.6,.1,1.4,-.2,1.5c-.2,.1,-.9,-1.1,-1.8,-1c-.9,.1,-1.4,.6,-1.6,1.8c-.1,1.1,.3,2.3,.7,1.9c.5,-.4,1.5,-1.9,1.9,-1.4c.4,.4,-.5,1.5,-.4,2.6c.1,1.2,.4,1.8,.9,1.6c.6,-.1,0,-1.6,.6,-1.4c.5,.2,1,1.8,2.7,1.7c1.8,-.1,5.3,-.7,6.8,-.3c1.6,.3,3.2,1.6,3.1,4.4c0,2.8,-1.7,4.4,-1.7,4.4c0,0,2.1,2.3,2.1,4.9c0,2.7,-1,6.3,-1.6,7.7c-.6,1.3,-.9,2.6,-.7,3.8c.2,1.2,.5,1.4,1.3,1.4c.8,0,1.2,.8,.8,1.7c-.5,.9,-1.8,1.4,-1.9,2.6c0,1.1,.2,1.2,.5,1.9c.3,.6,.5,1.4,-.3,1.6c-.9,.3,-1.2,.1,-1.5,-.2c-.3,-.4,0,.3,-.8,.4c-.7,.1,-.7,-.6,-1.2,-.6c-.5,0,-.1,.4,-.8,.4c-.8,0,-1,-.1,-1.6,-.3c-.5,-.2,-.4,-1,.4,-1.5c.9,-.6,2.2,-.5,2.6,-1.6c.4,-1.2,.3,-3.8,-.1,-4.4c-.3,-.5,-1.8,-2.1,-2.4,-2.3c-.6,-.2,-.2,1.2,-.9,2.1c-.7,.8,-.4,1.2,-.1,1.5c.3,.2,.7,.7,.5,1.1c-.2,.5,-1.1,.7,-1.1,1.4c0,.8,.2,2.6,-.2,3.2c-.4,.7,-1.2,.7,-1.5,0c-.2,-.8,-.4,.4,-1.2,.5c-.8,.1,-.7,-.8,-1.2,-.5c-.4,.4,-1,.7,-2,.5c-.9,-.3,-.3,-1.2,.3,-1.3c.7,-.2,2.8,-.9,2.9,-1.3c.1,-.4,.2,-4.7,-.1,-5.2c-.3,-.6,-1.5,-1.3,-2.2,-2.9c-.7,-1.6,-.7,-3.4,-.7,-3.4c0,0,-3.7,1.4,-5.3,2.2c-1.7,.8,-3.6,1.6,-5.1,1.9c-1.9,.4,-6,1.9,-8.5,-.3c0,0,-1.7,1.8,-2.3,1.8c-.5,0,-2.7,-4.1,-3.1,-4.1c-.5,0,-1.2,.3,-1.1,-.3c.1,-.6,.7,-1.2,.4,-1.6c-.3,-.4,-.8,-1,-1.1,-1c-.3,0,-.7,-.1,-.7,.4v.7c0,.2,.8,.2,.9,.2c.1,0,.2,1,-.1,1c-.2,0,-.9,.1,-.9,.1v1.1c0,0,.4,.1,.4,.3c0,.3,.1,.8,0,1c-.1,.2,-.4,.2,-.4,.2c0,0,0,1.8,0,2c.1,.2,.3,.5,.7,.5c.3,-.1,.2,-.5,.4,-.6c.3,-.1,.6,-.1,.6,.5c0,.6,-.2,1.1,-.5,1.2c-.2,.2,-1.4,.1,-1.4,.1v.6c0,.3,.4,.1,.4,.6c0,.4,-1,1.4,-1.3,1.5c-.4,.1,-1.2,-1.7,-1.1,-1.9c0,-.2,.5,-.2,.6,-.4c0,-.2,-.1,-.9,-.1,-1.1h-.4c-.1,0,-.3,.6,-.7,.6c-.4,0,-.6,-.6,-.4,-1c.2,-.4,.6,-.4,.9,-.4c.4,0,.7,-.2,.7,-.4V585c0,0,-.5,-.1,-.6,-.5c-.1,-.4,.2,-1.2,.6,-1.3v-.9c0,-.1,-.8,-.1,-1,-.1c-.2,0,-.1,-1.1,.3,-1.2c.4,0,.8,0,.8,0v-.9c0,0,-.6,-.2,-.8,-.6c-.1,-.4,-.1,-.6,-.1,-.7c0,-.1,-.3,0,-.4,-.2c-.1,-.2,.1,-.6,.1,-.6c0,0,-.6,-.6,-.3,-1.3c.2,-.7,.5,-.3,.5,-.6c0,-.4,.1,-.4,.1,-.9c.1,-.4,0,-.4,-.2,-.6c-.2,-.2,-.4,-.7,-.3,-1.4c.1,-.8,.3,-1,.3,-1.2v-4.5c0,-.9,.4,-8.9,1.7,-12.5c1.2,-3.7,2.2,-4.3,2.2,-4.3Z" class="gd_67"/>
<path d="M281.7,550.7c0,1.2,-.3,20.5,-.3,21.3c0,0,.6,.1,.7,.8c0,.7,-.3,2,0,2.3c.3,.4,.2,.6,.8,.8c.6,.2,1,1.5,1.5,1.9c.4,.3,1.4,1.8,1.4,1.8c0,0,.1,-2.8,.7,-4.7c.5,-2,2.5,-4.8,3,-5.3c.6,-.5,1.2,-.7,1.2,-1.8c0,-1,-.7,-.8,-1.1,-.7c-.4,.1,-.5,.3,-.6,-.2c-.1,-.6,-.4,.2,-.8,.3c-.4,.1,-.3,-.3,-.3,-.6c0,-.4,-.1,-.1,-.5,.3c-.5,.5,-.8,.5,-.9,-.1c-.2,-.7,.3,-1.1,-.2,-.7c-.5,.5,-.8,.8,-1.3,.6c-.5,-.3,-.3,-.9,.1,-1.1c.4,-.2,1.1,-1,1,-1.4c-.2,-.5,-.5,-.5,-.6,-1.1c-.2,-.5,-.5,-.9,.1,-.9c.6,-.1,.9,.2,1.6,.2c.6,0,2.4,-.1,2.8,.3c.4,.3,1.4,.6,1.6,.6c0,0,-.2,-1.1,-.9,-1.1c-.7,0,-1,-.7,-1,-1.2c0,-.5,-.2,.8,-.9,.4c-.6,-.3,-.4,-.8,-.9,-1c-.4,-.3,-1,-.1,-1.4,-.7c-.4,-.5,-.4,-.7,-.8,-1.2c-.5,-.5,-.4,-1.1,-.4,-1.9c0,-.8,.5,-1.6,1.1,-1.6c.6,0,.9,.8,.9,1.4c0,.5,.7,-.2,1.2,-.5c.6,-.2,2.6,.1,3.1,-.2c.4,-.4,-.5,-1.6,0,-1.9c.6,-.3,1.4,0,1.8,.4c.4,.3,.7,.8,1.3,.2c.6,-.6,.5,-1,1.1,-1c.6,0,1.1,1.1,2,1.2c.9,.1,1.1,-.2,1.5,-.7c.5,-.5,.6,-.5,1.1,-.5c.6,0,.9,.9,.9,1.5c0,.5,-.1,.9,.4,.8c.6,0,1,-.4,1.4,-1c.4,-.6,.6,-.8,.6,0c0,.8,-.7,1.3,-.9,2.1c-.2,.8,.4,1.2,.7,1.6c.3,.5,.4,1.2,.1,1.4c-.3,.3,-.6,.1,-.6,.1c0,0,.4,3.6,0,4.2c-.4,.6,-.6,-.1,-.6,-.1c0,0,-.1,1.1,.3,1.6c.5,.5,0,1,-.3,1.3c-.3,.4,-.3,.9,0,1.5c.2,.5,1.9,.9,2.5,1c.6,.2,3.9,.3,6.6,-.1c2.8,-.5,4.7,-1.2,7.1,-.5c0,0,1.4,-.6,1.4,-2.5c0,-1.8,-.9,-3.3,-2.5,-3.5c-1.6,-.3,-3.3,.4,-4.4,.6c-1.1,.2,-3,.3,-4.2,-.1c-1.2,-.4,-2.5,-.8,-3.2,-.7c-.7,.1,-.9,.4,-1.2,-.8c-.3,-1.2,0,-1.6,.4,-2c.4,-.3,0,-.3,-.5,-.9c-.4,-.7,-.3,-2.9,.1,-4.1c.5,-1.3,1,-2.9,5.8,-2.8c4.8,.1,7.3,3.9,9,5.6c1.6,1.7,2.4,2.2,3,1.8c.7,-.5,1.5,-1.2,1.5,-.3c0,.9,0,1.6,-1.6,1.6c-1.6,0,-2.1,-1,-3.1,-1.6c-1,-.5,-2.5,-2,-2.3,-1.6c.2,.5,.7,1.4,.2,1.5c-.4,.1,-.8,-1.4,-1.2,-1.7c-.4,-.2,-1.1,-1.6,-1.3,-2c-.3,-.4,.2,2,-.8,2.9c-1,.9,-.6,-3.6,-1.5,-3.7c-.8,-.1,-.4,3,-1.2,3.3c-.8,.3,-.2,-2.1,-.9,-3c-.7,-1,-1.1,-1,-1.1,-.5c0,.6,.1,1.4,-.2,1.5c-.2,.1,-.9,-1.1,-1.8,-1c-.9,.1,-1.4,.6,-1.6,1.8c-.1,1.1,.3,2.3,.7,1.9c.5,-.4,1.5,-1.9,1.9,-1.4c.4,.4,-.5,1.5,-.4,2.6c.1,1.2,.4,1.8,.9,1.6c.6,-.1,0,-1.6,.6,-1.4c.5,.2,1,1.8,2.7,1.7c1.8,-.1,5.3,-.7,6.8,-.3c1.6,.3,3.2,1.6,3.1,4.4c0,2.8,-1.7,4.4,-1.7,4.4c0,0,2.1,2.3,2.1,4.9c0,2.7,-1,6.3,-1.6,7.7c-.6,1.3,-.9,2.6,-.7,3.8c.2,1.2,.5,1.4,1.3,1.4c.8,0,1.2,.8,.8,1.7c-.5,.9,-1.8,1.4,-1.9,2.6c0,1.1,.2,1.2,.5,1.9c.3,.6,.5,1.4,-.3,1.6c-.9,.3,-1.2,.1,-1.5,-.2c-.3,-.4,0,.3,-.8,.4c-.7,.1,-.7,-.6,-1.2,-.6c-.5,0,-.1,.4,-.8,.4c-.8,0,-1,-.1,-1.6,-.3c-.5,-.2,-.4,-1,.4,-1.5c.9,-.6,2.2,-.5,2.6,-1.6c.4,-1.2,.3,-3.8,-.1,-4.4c-.3,-.5,-1.8,-2.1,-2.4,-2.3c-.6,-.2,-.2,1.2,-.9,2.1c-.7,.8,-.4,1.2,-.1,1.5c.3,.2,.7,.7,.5,1.1c-.2,.5,-1.1,.7,-1.1,1.4c0,.8,.2,2.6,-.2,3.2c-.4,.7,-1.2,.7,-1.5,0c-.2,-.8,-.4,.4,-1.2,.5c-.8,.1,-.7,-.8,-1.2,-.5c-.4,.4,-1,.7,-2,.5c-.9,-.3,-.3,-1.2,.3,-1.3c.7,-.2,2.8,-.9,2.9,-1.3c.1,-.4,.2,-4.7,-.1,-5.2c-.3,-.6,-1.5,-1.3,-2.2,-2.9c-.7,-1.6,-.7,-3.4,-.7,-3.4c0,0,-3.7,1.4,-5.3,2.2c-1.7,.8,-3.6,1.6,-5.1,1.9c-1.9,.4,-6,1.9,-8.5,-.3c0,0,-1.7,1.8,-2.3,1.8c-.5,0,-2.7,-4.1,-3.1,-4.1c-.5,0,-1.2,.3,-1.1,-.3c.1,-.6,.7,-1.2,.4,-1.6c-.3,-.4,-.8,-1,-1.1,-1c-.3,0,-.7,-.1,-.7,.4v.7c0,.2,.8,.2,.9,.2c.1,0,.2,1,-.1,1c-.2,0,-.9,.1,-.9,.1v1.1c0,0,.4,.1,.4,.3c0,.3,.1,.8,0,1c-.1,.2,-.4,.2,-.4,.2c0,0,0,1.8,0,2c.1,.2,.3,.5,.7,.5c.3,-.1,.2,-.5,.4,-.6c.3,-.1,.6,-.1,.6,.5c0,.6,-.2,1.1,-.5,1.2c-.2,.2,-1.4,.1,-1.4,.1v.6c0,.3,.4,.1,.4,.6c0,.4,-1,1.4,-1.3,1.5c-.4,.1,-1.2,-1.7,-1.1,-1.9c0,-.2,.5,-.2,.6,-.4c0,-.2,-.1,-.9,-.1,-1.1h-.4c-.1,0,-.3,.6,-.7,.6c-.4,0,-.6,-.6,-.4,-1c.2,-.4,.6,-.4,.9,-.4c.4,0,.7,-.2,.7,-.4V585c0,0,-.5,-.1,-.6,-.5c-.1,-.4,.2,-1.2,.6,-1.3v-.9c0,-.1,-.8,-.1,-1,-.1c-.2,0,-.1,-1.1,.3,-1.2c.4,0,.8,0,.8,0v-.9c0,0,-.6,-.2,-.8,-.6c-.1,-.4,-.1,-.6,-.1,-.7c0,-.1,-.3,0,-.4,-.2c-.1,-.2,.1,-.6,.1,-.6c0,0,-.6,-.6,-.3,-1.3c.2,-.7,.5,-.3,.5,-.6c0,-.4,.1,-.4,.1,-.9c.1,-.4,0,-.4,-.2,-.6c-.2,-.2,-.4,-.7,-.3,-1.4c.1,-.8,.3,-1,.3,-1.2v-4.5c0,-.9,.4,-8.9,1.7,-12.5c1.2,-3.7,2.2,-4.3,2.2,-4.3Zm-3.5,21.9c0,.5,.3,1.2,.7,1.5c.3,.2,1.1,.3,1.3,.2c.3,-.2,.7,-.9,.7,-1.7m-2.8,2.9c0,0,2.5,-.1,3,0c.5,.2,.4,1,.1,1.3c-.3,.2,-1.7,.3,-2,.2c-.4,0,-1,-.5,-1.5,-.4m-.2,1c0,0,.4,0,1,.2c.6,.1,2.7,-.1,2.8,.3c.1,.4,-.2,1.2,-.5,1.4m-2.7,-.6c0,0,1.8,.1,2,.1c.2,0,.1,.4,.1,.4m5.7,1.2c0,0,-.2,2.1,2.1,4.2" class="ge_67"/>
<path d="M290.4,581c0,0,.5,.5,.6,1.6c0,1.2,-.1,1.9,0,3.4c.2,1.4,.9,3.2,1,4.4c.1,1.2,-.6,2.5,-1,2.8c-.4,.4,-2.2,.1,-2.5,.3c-.3,.3,-.9,1.1,-.6,1.2c.3,.1,.7,-.3,.9,-.1c.2,.3,.2,.4,.6,.3c.3,0,.5,-.6,.9,-.5c.5,.2,.2,.6,.7,.6c.5,0,.7,-.4,1.2,-.4h2.7c.4,0,.4,-1,.1,-1.2c-.2,-.2,-.1,-.9,0,-1.1c.2,-.2,2.2,-1.7,2.3,-2.2c0,-.5,-.7,-.7,-1.1,-1c-.5,-.2,-.5,-1.1,-.3,-1.7c.2,-.5,.8,-2,1.5,-3.3c.6,-1.4,2,-3.7,2,-4.5" class="gf_67"/>
<path d="M307.1,581.3c0,0,1.7,-.6,3.1,.2c1.3,.8,3,3.2,4.4,3.9M286.1,563.5c0,0,.5,-.1,.8,.1c.3,.2,.5,.4,.9,.2c.5,-.1,.4,-.4,1,-.4c.6,0,.2,.6,.9,.8c.7,.2,1,-.2,1.3,.3c.2,.6,.4,.6,.8,.6c.4,0,1,-.8,.3,-1.4m.7,-1.4c0,0,.5,-.2,.8,.6c.3,.9,.8,1,.9,.6c.1,-.3,.2,-1.3,.5,-1.1c.2,.3,.6,1.2,1,1.1c.3,0,-.1,-2.3,.3,-2.3c.3,0,.8,1,1.1,1c.3,0,.3,-1.1,.6,-1.1c.3,.1,.7,0,1.4,.6c.7,.7,1,1,1.2,.8c.2,-.2,0,-2.2,0,-2.2m0,2.2c0,0,1.1,1.8,1.7,1.9m-1.1,-6.3c0,0,1.1,1.5,1.7,1.7m-11.6,-1.4c.5,-.3,1.1,-.1,1.5,.3c.4,.3,-.5,.6,-.9,.6c-.5,0,-1.1,-.5,-.6,-.9Zm1.8,.5c0,0,2.2,.1,2.4,0c.3,-.2,-.6,-.7,.7,-.6c.5,.1,.5,.5,1.1,.6c.7,.1,1.4,.1,1.7,0c.3,-.2,.7,-.6,1.1,-.6m-1.6,-.6c0,0,.5,0,1.2,-.4c.7,-.5,1.5,-.1,2,-.5c.5,-.3,.4,-1.1,.4,-1.1m-5.2,8.7c0,0,1,1,1.2,.7c.2,-.3,0,-1.8,.5,-1.6c.5,.2,1,1,1.2,1c.2,0,0,-1.1,.3,-.7c.3,.5,.1,1.6,.7,2c.6,.3,.8,-.2,1.6,1.3m-8.6,-1.9c0,0,1.4,2.2,1.6,2c.1,-.2,-.1,-1.2,.2,-1.2c.4,0,1.2,2.4,1.6,2.2c.3,-.2,.2,-1.3,.5,-1.2c.3,0,.8,1,1,1.2m-6.8,.3c0,0,.3,.7,.5,.5c.2,-.1,.1,-1,.4,-.8c.3,.1,.4,1,.7,.8c.3,-.1,.3,-1.7,.5,-1.6c.2,.1,1.8,2.8,2.3,2.7c.4,-.1,.2,-1.3,.5,-1.3c.3,0,1.3,1.2,1.6,1.2c.3,0,.1,-1,.5,-1m.7,-.5c0,0,0,-1.5,.2,-1c.3,.5,.6,1.3,1,1.3c.4,0,.4,-.3,.9,.1c.4,.3,.9,.4,1.5,.2m-13,2.5c0,0,.6,-1.5,.6,-1.2c.1,.2,.4,2.7,.5,2.7c.2,0,1.5,-1.9,1.7,-1.6c.3,.3,.8,1.5,.9,1.4c.2,-.1,.5,-1.8,.9,-2c.4,-.1,0,1.6,.3,1.5c.3,-.2,1.3,-1.6,1.6,-1.6c.3,0,1.5,2.3,1.9,2.2c.3,0,.1,-1.6,.3,-1.6c.2,-.1,2,1.1,2.1,.9c.2,-.2,-1.4,-1.8,-.9,-1.8c.5,0,1.5,.6,1.4,.3c0,-.2,-.3,-.6,.6,-.4c.9,.2,1.3,.3,1.4,.3c.2,0,0,-.9,0,-.9" class="ge_67"/>
<path d="M215.7,613.9H342.8v-82H215.7v82Z" class="g3_67"/>
<path d="M533.8,911.4H661v-82H533.8v82Z" class="g1_67"/>
<path d="M533.8,911.4H661v-82H533.8v82Z" class="gg_67"/>
<path d="M598.2,848.2c.5,.4,.8,1,.9,1.6c.3,1.5,0,2.9,-.1,4.3c-.1,.9,-.1,1.9,.2,2.8c0,0,0,.1,0,.1c-.8,0,-1.7,0,-2.5,.1c-.5,0,-1.1,.1,-1.6,.2c-.3,-.7,-.4,-1.6,-.3,-2.4c0,-1.1,.2,-2.2,.3,-3.3c.1,-1.1,.1,-2.2,-.4,-3.2c.9,.6,1.3,1.5,1.5,2.5c.3,1.7,.1,3.4,.5,5.1c.1,.3,.2,.6,.4,.9c-.1,-.6,-.1,-1.2,0,-1.8c.2,-1.4,.8,-2.8,1.1,-4.2c.1,-.9,.2,-1.8,0,-2.7Z" class="gh_67"/>
<path d="M601.6,848.5c.3,.2,.4,.5,.5,.7c.2,.8,.2,1.6,.1,2.3c-.3,1.9,-1.2,3.8,-.9,5.8c.1,-.1,0,-.3,.1,-.4c.2,-1.4,1.1,-2.6,1.9,-3.7c.8,-1.2,1.6,-2.4,1.7,-3.9c.2,.2,.3,.5,.3,.8c.2,.7,.1,1.4,-.2,2c-.2,1,-.7,1.9,-1.1,2.9c-.4,.9,-.8,1.9,-.7,2.9c.3,-1,.9,-1.9,1.6,-2.7c1.1,-1.2,2.5,-2.4,3.1,-4c.1,-.2,.1,-.4,.2,-.6c.3,.9,.2,1.9,-.2,2.7c-.5,1,-1.1,1.8,-1.7,2.7c-.5,.9,-1.1,1.8,-1.2,2.9h.1c.4,-.9,1,-1.7,1.8,-2.3c.7,-.6,1.5,-1.2,2.3,-1.8c.7,-.6,1.3,-1.3,1.7,-2c0,-.2,.1,-.3,.2,-.4c.2,.9,-.2,1.9,-.7,2.7c-1.1,1.6,-2.8,2.8,-3.6,4.7c0,.1,-.1,.2,-.1,.3c.2,-.1,.2,-.4,.4,-.5c1.6,-1.8,4.1,-2.3,5.8,-4c.3,-.2,.5,-.6,.8,-.9c0,.7,-.3,1.4,-.7,2c-.8,1.1,-2,1.8,-3,2.8c-.7,.5,-1.3,1.1,-1.7,1.8c0,.1,-.1,.2,-.1,.3c.5,-.6,1.2,-1,2,-1.4c1.2,-.5,2.5,-.9,3.7,-1.5c.7,-.3,1.3,-.7,1.8,-1.2c.1,-.1,.1,-.2,.2,-.2c0,.7,-.4,1.3,-.8,1.7c-1.4,1.4,-3.4,2.1,-4.9,3.4c-.3,.2,-.5,.5,-.7,.8c-.1,0,-.1,.1,-.1,.1c.7,-.5,1.4,-.9,2.2,-1.1c1.1,-.3,2.2,-.4,3.3,-.7c.9,-.2,1.8,-.5,2.6,-1.1c.1,0,.1,-.1,.2,-.1c-.1,.5,-.4,.9,-.8,1.3c-1.1,1,-2.6,1.4,-4,2c-.9,.3,-1.8,.8,-2.5,1.5c-.1,0,-.1,-.1,-.2,-.2c-1.6,-3.7,-5.1,-6.7,-9.1,-7.6c-.6,-.1,-1.2,-.2,-1.9,-.3c-.2,-1,.2,-2,.6,-2.9c.4,-1,.9,-1.9,1.2,-2.9c.4,-.9,.6,-1.8,.5,-2.7Z" class="gh_67"/>
<path d="M591.4,849.3c.7,.3,1.2,.9,1.5,1.6c.9,1.9,.8,4,1.8,5.9c.1,.2,.3,.3,.4,.5c-.2,.1,-.4,.1,-.5,.2c-.4,.1,-.8,.3,-1.2,.4c-.1,0,-.2,.1,-.3,.1c-.5,-.8,-.6,-1.8,-.7,-2.7c-.1,-1.1,-.1,-2.3,-.2,-3.4c-.1,-.9,-.3,-1.8,-.8,-2.6Z" class="gh_67"/>
<path d="M588.2,850.6c.6,.1,1,.4,1.4,.8c.6,.8,1,1.7,1.4,2.6c.3,.8,.6,1.5,.9,2.3c.3,.6,.7,1.1,1.2,1.6c0,.1,-.1,.2,-.2,.2c-4,1.7,-7.1,5.6,-7.7,9.9c-.2,.4,-.1,.8,-.2,1.2c-1,.1,-2,-.3,-2.9,-.7c-1,-.4,-1.9,-.9,-2.9,-1.2c-.9,-.4,-1.8,-.6,-2.7,-.5c.7,-.8,1.9,-.7,2.9,-.6c1.9,.3,3.6,1.1,5.5,1c.1,-.1,.4,0,.4,-.1c-.6,0,-1.2,-.2,-1.7,-.5c-1.5,-.7,-2.8,-1.9,-4.4,-2.6c-.6,-.3,-1.2,-.5,-1.9,-.6c.2,-.2,.5,-.3,.8,-.3c.8,-.2,1.7,0,2.5,.3c.8,.3,1.6,.7,2.5,1.1c.9,.4,1.8,.7,2.8,.6c-1.1,-.2,-1.9,-.9,-2.7,-1.6c-1.3,-1.1,-2.4,-2.4,-4,-3.1c-.2,-.1,-.5,-.1,-.6,-.2c.9,-.3,1.8,-.2,2.7,.3c.7,.3,1.4,.8,2.2,1.2c1,.7,2.1,1.4,3.4,1.6l-.1,-.1c-.8,-.3,-1.6,-1,-2.2,-1.8c-.6,-.7,-1.2,-1.5,-1.9,-2.3c-.5,-.6,-1.2,-1.3,-2,-1.7c-.1,0,-.2,0,-.3,-.1c.8,-.3,1.6,.1,2.3,.5c1.6,.9,2.7,2.4,4.3,3.3c.3,.2,.7,.4,1.1,.5c-.1,-.1,-.3,-.2,-.4,-.3c-.7,-.5,-1.2,-1.3,-1.6,-2c-.6,-.9,-1,-1.8,-1.6,-2.7c-.3,-.5,-.7,-.9,-1,-1.3c-.3,-.3,-.6,-.4,-.9,-.7c.8,0,1.5,.3,2.1,.7c1,.8,1.7,1.8,2.5,2.8c.5,.5,.9,1.1,1.6,1.5c.2,.2,.5,.4,.8,.5c-1,-.8,-1.5,-2.1,-1.9,-3.2c-.5,-1.4,-1,-2.9,-2,-4.1c-.1,-.1,-.3,-.2,-.4,-.4c.6,0,1.2,.4,1.7,.9c1.4,1.4,2.1,3.3,3.4,4.8c.2,.3,.5,.5,.8,.8h.1c-.7,-.8,-1,-1.8,-1.3,-2.8c-.4,-1.8,-.5,-3.8,-1.6,-5.3c-.1,-.1,-.2,-.1,-.2,-.2Z" class="gh_67"/>
<path d="M597.7,858.5c1.5,-.1,3,.1,4.3,.7c1,.3,1.8,.7,2.6,1.3c-2,.2,-4.1,.6,-6,1.3c-.1,.1,-.3,.2,-.4,.2c-2.1,-.9,-4.2,-1.3,-6.4,-1.5c1.7,-1.2,3.8,-1.9,5.9,-2Z" class="gh_67"/>
<path d="M590.8,861.3c2.1,.1,4.1,.5,6,1.3c0,0,.1,0,0,.1c-.2,.1,-.5,.2,-.7,.3c-1.7,-.7,-3.6,-1.1,-5.4,-1.2c-.1,0,-.2,-.1,-.4,-.1c.2,-.1,.4,-.2,.5,-.4Z" class="gh_67"/>
<path d="M605.4,861.3c.1,-.1,.2,0,.3,.1c.1,.1,.3,.2,.4,.3c-2,.2,-4,.6,-5.8,1.3c-.3,-.1,-.5,-.3,-.8,-.4c0,0,.1,0,.2,-.1c1.8,-.7,3.7,-1.1,5.7,-1.2Z" class="gh_67"/>
<path d="M589.7,862.5c1.8,0,3.6,.5,5.3,1.2c-.1,.2,-.4,.3,-.6,.4c-1.1,-.4,-2.2,-.8,-3.4,-1c-.5,-.1,-1.1,-.1,-1.6,-.2c.1,-.2,.2,-.3,.3,-.4Z" class="gh_67"/>
<path d="M606.2,862.5c.1,0,.4,0,.5,0c.1,.1,.3,.2,.3,.4c-1.7,.1,-3.4,.6,-5,1.2c-.2,-.1,-.5,-.2,-.6,-.4c.6,-.2,1.2,-.5,1.9,-.7c.9,-.3,1.9,-.4,2.9,-.5Z" class="gh_67"/>
<path d="M598.1,863.2c.1,0,.2,0,.3,.1c.2,.1,.4,.2,.6,.4c-.3,.1,-.5,.2,-.7,.3c-.1,.1,-.2,.1,-.2,0c-.2,-.1,-.5,-.2,-.7,-.3c.2,-.2,.5,-.3,.7,-.5Z" class="gh_67"/>
<path d="M619.1,863.4h.1c-.3,.8,-1,1.3,-1.8,1.6c-1.6,.7,-3.5,.8,-5.2,1.5c-.4,.1,-.8,.4,-1.1,.6c-.2,-.3,-.2,-.6,-.3,-.9c-.1,-.3,-.2,-.5,-.3,-.8c0,-.1,-.1,-.2,0,-.2c.8,-.5,1.7,-.7,2.6,-.8c1.1,-.1,2.3,-.1,3.4,-.2c.9,-.1,1.8,-.3,2.6,-.8Z" class="gh_67"/>
<path d="M588.9,863.6c.8,0,1.6,.2,2.4,.4c.8,.2,1.4,.5,2.1,.7c.1,.1,.2,.1,.2,.2c-.6,.3,-1,.8,-1.4,1.2c-.9,.8,-1.6,1.8,-2.2,2.7c-.9,1.4,-1.7,2.8,-2.1,4.4c0,.1,-.1,0,-.1,-.1c-.8,-2.3,-.9,-4.8,-.1,-7.1c.3,-.8,.7,-1.7,1.2,-2.4Z" class="gh_67"/>
<path d="M607.2,863.6c0,0,.3,-.1,.4,0c1.7,2.9,2.1,6.5,1,9.6h-.1c-.7,-2.5,-2.2,-4.8,-4,-6.8c-.5,-.5,-1,-1.1,-1.7,-1.5c0,-.1,.1,-.1,.2,-.2c1.3,-.5,2.7,-.9,4.2,-1.1Z" class="gh_67"/>
<path d="M596.3,864.3c.3,.1,.5,.3,.8,.4c-.2,.2,-.4,.4,-.6,.5c-.3,-.1,-.5,-.3,-.7,-.4c0,0,0,-.1,0,-.1c.1,-.1,.3,-.2,.5,-.4Z" class="gh_67"/>
<path d="M600,864.3c.1,0,.2,.2,.4,.2c0,.1,.3,.2,.2,.3c-.2,.1,-.4,.2,-.6,.3c-.1,.2,-.1,.1,-.2,0c-.2,-.1,-.4,-.2,-.5,-.4c.2,-.1,.4,-.2,.7,-.4Z" class="gh_67"/>
<path d="M598.2,865.4c.2,.2,.4,.3,.6,.5c-.2,.2,-.4,.4,-.6,.5c-.2,-.1,-.4,-.3,-.6,-.5c.2,-.2,.4,-.3,.6,-.5Z" class="gh_67"/>
<path d="M594.8,865.5c.3,0,.5,.3,.7,.4c.1,.1,-.1,.2,-.2,.3c-3,2.7,-5,6.4,-5.5,10.3c-.4,-.3,-.6,-.7,-.9,-1.1c.1,-.7,.3,-1.5,.6,-2.2c.8,-2.3,2.1,-4.5,3.8,-6.3c.5,-.5,1,-1,1.5,-1.4Z" class="gh_67"/>
<path d="M601.5,865.5c.2,0,.3,.2,.5,.3c1.8,1.6,3.3,3.6,4.3,5.9c.5,1.2,1,2.4,1.2,3.7c-.3,.4,-.5,.8,-.9,1.1c-.5,-3.9,-2.5,-7.6,-5.5,-10.3c-.1,-.1,-.2,-.2,-.3,-.3c.2,-.2,.5,-.3,.7,-.4Z" class="gh_67"/>
<path d="M596.6,866.7c.2,0,.3,.2,.4,.2c.1,.1,.2,.2,.3,.3c-3.2,2.9,-5.1,7.2,-5.1,11.5c-.4,-.2,-.7,-.5,-1,-.7c.2,-4.3,2.2,-8.5,5.4,-11.3Z" class="gh_67"/>
<path d="M599.7,866.7c.4,.3,.8,.6,1.1,1c.8,.9,1.6,1.9,2.2,3c1.3,2.2,2.1,4.7,2.2,7.3c-.3,.2,-.6,.5,-1,.7c0,-3.9,-1.6,-7.7,-4.1,-10.5c-.4,-.4,-.6,-.7,-1,-1c.1,-.2,.4,-.3,.6,-.5Z" class="gh_67"/>
<path d="M612.6,866.8c1.8,-.1,3.5,.4,5.2,.4c.8,0,1.5,-.2,2.2,-.4c-.4,.6,-1,.9,-1.6,1.2c-1.6,.5,-3.3,.3,-4.9,.5c-.7,.2,-1.4,.3,-2,.7c.6,-.1,1.2,-.2,1.8,-.1c1.4,.2,2.7,.7,4,1c1,.2,2,.4,2.9,.1c-.4,.5,-1,.8,-1.7,.9c-1.1,.2,-2.4,.1,-3.5,0c-1.1,-.1,-2.3,-.3,-3.3,.1c-.1,0,-.2,0,-.3,0c0,-1.1,.1,-2.1,-.2,-3.2c0,-.3,-.1,-.6,-.1,-.8c.5,-.3,1,-.4,1.5,-.4Z" class="gh_67"/>
<path d="M598.2,868c0,0,.1,.1,.1,.1c2.3,2.4,3.9,5.6,4.3,8.9c.1,.8,.2,1.7,.1,2.5c-2.8,1.3,-6.2,1.3,-9,0c-.2,-3.7,1.1,-7.4,3.4,-10.3c.3,-.4,.7,-.8,1.1,-1.2Z" class="gh_67"/>
<path d="M578.3,869.2c1.3,-.1,2.5,.2,3.8,.2c.9,.1,1.9,.1,2.7,-.2c.1,0,.2,0,.2,0c0,.9,-.1,1.7,0,2.5c.1,.6,.2,1.1,.3,1.6c-.8,.3,-1.6,.4,-2.5,.4c-1.1,-.1,-2.1,-.3,-3.2,-.4c-1.1,-.1,-2.2,-.1,-3.2,.4c.5,-.9,1.5,-1.3,2.4,-1.4c1.7,-.3,3.5,-.2,5.1,-.6c.4,-.1,.7,-.2,1,-.4c-.6,.1,-1.2,.1,-1.8,0c-1.4,-.2,-2.7,-.7,-4.1,-1c-.9,-.2,-1.9,-.3,-2.8,-.1c.5,-.6,1.3,-.9,2.1,-1Z" class="gh_67"/>
<path d="M611.4,871.3c.9,-.1,1.8,.1,2.6,.5c1.2,.4,2.3,1.1,3.6,1.5c.7,.3,1.5,.4,2.3,.4c-.5,.5,-1.3,.6,-2,.6c-2.3,-.1,-4.4,-1.3,-6.8,-1c0,.1,.1,0,.2,.1c.7,0,1.4,.4,2.1,.7c1.1,.6,2,1.4,3.1,2c.8,.5,1.7,.9,2.6,.9c-.1,.1,-.2,.2,-.3,.2c-.8,.3,-1.7,.2,-2.4,0c-1.4,-.4,-2.6,-1.1,-3.9,-1.5c-.6,-.3,-1.3,-.4,-2,-.4c1.5,.4,2.6,1.6,3.7,2.5c1,1,2.1,2,3.5,2.4c0,0,.2,.1,.1,.1c-.7,.2,-1.5,.1,-2.2,-.1c-1.6,-.6,-2.9,-1.8,-4.4,-2.5c-.5,-.3,-1.1,-.5,-1.7,-.5h.1c.8,.4,1.6,1.1,2.2,1.8c1,1.2,1.8,2.5,3.1,3.5c.3,.3,.7,.5,1.1,.7c-.8,.2,-1.5,-.1,-2.2,-.4c-1.1,-.6,-1.9,-1.5,-2.8,-2.3c-.8,-.7,-1.7,-1.4,-2.7,-1.7c.1,.2,.3,.2,.4,.3c1.2,1,1.8,2.5,2.6,3.8c.6,1.1,1.3,2.1,2.3,2.8c.1,.1,.4,.2,-.1,.1c-1.1,0,-2,-.8,-2.7,-1.5c-.6,-.7,-1.2,-1.5,-1.8,-2.2c-.5,-.6,-1.1,-1.2,-1.8,-1.6c-.1,-.1,-.2,-.2,-.4,-.2c.9,.7,1.4,1.8,1.7,2.8c.7,1.6,1.1,3.4,2.3,4.6c.1,.2,.3,.2,.3,.4c-1.2,-.2,-2.1,-1.2,-2.7,-2.1c-.6,-1,-1.1,-1.9,-1.7,-2.9c-.5,-.5,-.9,-1.2,-1.6,-1.5c.7,.7,1,1.7,1.2,2.7c.4,1.6,.5,3.4,1.4,4.8c.1,.3,.3,.5,.5,.7c-.6,-.1,-1,-.4,-1.4,-.8c-.9,-1.1,-1.3,-2.5,-1.9,-3.8c-.4,-1,-.8,-1.9,-1.6,-2.7c0,-.1,.1,-.1,.1,-.1c2.4,-1,4.4,-2.7,5.8,-4.8c1.2,-1.9,2,-4,2.2,-6.3Z" class="gh_67"/>
<path d="M585.3,873.3c0,0,.1,.1,.1,.2c.1,.5,.3,1,.5,1.6c0,0,.1,.1,0,.2c-.8,.5,-1.7,.6,-2.6,.7c-1,.1,-2,.1,-3,.2c-1,0,-2.1,.3,-3.1,.8c.3,-.6,.8,-1.1,1.4,-1.4c2.1,-1.1,4.7,-.8,6.7,-2.3Z" class="gh_67"/>
<path d="M585.9,875.4c.1,-.1,.1,0,.2,.1c1.6,3.9,5.3,6.8,9.4,7.7c.5,.1,1,.2,1.6,.2c.1,.9,-.1,1.8,-.4,2.6c-.7,1.7,-1.7,3.2,-1.9,5c-.1,.3,0,.6,-.1,1c-.4,-.5,-.6,-1.2,-.6,-1.8c0,-1.3,.4,-2.5,.7,-3.6c.2,-1.1,.5,-2.1,.4,-3.1c-.1,-.1,0,-.3,-.1,-.4c-.1,.6,-.2,1.1,-.4,1.6c-.7,1.4,-1.6,2.5,-2.4,3.8c-.4,.8,-.9,1.7,-.9,2.6c-.2,-.2,-.3,-.5,-.3,-.7c-.2,-.7,-.1,-1.4,.2,-2.1c.2,-.9,.7,-1.8,1,-2.7c.5,-1,.9,-2,.8,-3.1c-.4,1.5,-1.5,2.6,-2.5,3.7c-1,1,-2,2.1,-2.4,3.5c0,.1,0,.2,-.1,.1c-.2,-.9,-.1,-1.8,.3,-2.6c.5,-1,1.1,-1.9,1.7,-2.8c.5,-.9,1,-1.8,1.2,-2.8h-.1c-.4,.9,-1,1.6,-1.8,2.2c-.7,.6,-1.6,1.2,-2.3,1.9c-.7,.6,-1.3,1.2,-1.7,2c-.1,.1,-.1,.2,-.2,.3c-.2,-.8,.1,-1.6,.5,-2.3c1,-1.6,2.4,-2.7,3.4,-4.3c.2,-.3,.4,-.7,.5,-1.1c-.2,.1,-.2,.3,-.3,.4c-.6,.7,-1.3,1.2,-2,1.6c-.9,.6,-1.9,1,-2.7,1.6c-.5,.3,-.9,.7,-1.3,1.1c-.3,.2,-.5,.5,-.7,.8c-.1,-.8,.3,-1.5,.7,-2.1c.8,-.9,1.8,-1.7,2.7,-2.5c.6,-.5,1.2,-.9,1.6,-1.6c.2,-.2,.4,-.5,.5,-.8c-.8,1,-2.1,1.5,-3.3,1.9c-1.4,.6,-2.8,1,-4,2c-.2,.1,-.3,.3,-.4,.4c0,-.5,.3,-1.1,.6,-1.5c.8,-.8,1.8,-1.4,2.7,-1.9c1.1,-.7,2.3,-1.4,3.1,-2.5c0,0,.1,0,.1,0c-.8,.6,-1.9,1,-2.9,1.2c-1.7,.4,-3.7,.5,-5.2,1.6c-.1,.1,-.1,.2,-.2,.2c.1,-.5,.4,-1,.8,-1.4c.7,-.6,1.7,-1,2.6,-1.4c.7,-.3,1.5,-.6,2.3,-.9c.6,-.3,1.1,-.7,1.6,-1.1Z" class="gh_67"/>
<path d="M603.1,882.5c.1,-.1,.2,0,.2,0c.5,.8,.6,1.7,.7,2.6c.1,1,.1,2,.2,3c0,1.1,.3,2.1,.8,3.1c-.8,-.3,-1.3,-1,-1.6,-1.7c-.7,-1.7,-.8,-3.6,-1.5,-5.3c-.1,-.4,-.4,-.7,-.6,-1.1c.6,-.2,1.3,-.4,1.8,-.6Z" class="gh_67"/>
<path d="M601.2,883.1c.7,1.4,.4,2.9,.2,4.3c-.1,1.6,-.4,3.2,.2,4.6c-.5,-.4,-.9,-1,-1.2,-1.6c-.5,-1.6,-.3,-3.3,-.5,-4.9c-.1,-.7,-.3,-1.4,-.6,-2c0,.6,.1,1.2,0,1.8c-.2,1.4,-.7,2.7,-1,4c-.2,1,-.4,2,-.1,2.9c-.5,-.4,-.8,-1,-.9,-1.6c-.2,-1.3,0,-2.6,.1,-3.9c0,-.8,.2,-1.7,0,-2.5c0,-.3,-.2,-.5,-.2,-.8c.8,0,1.7,.1,2.5,0c.5,-.1,1,-.2,1.5,-.3Z" class="gh_67"/>
<path d="M533.8,911.4H661v-82H533.8v82Z" class="g3_67"/>
<path d="M692.3,911.4H819.4v-82H692.3v82Z" class="g1_67"/>
<path d="M692.3,911.4H819.4v-82H692.3v82Z" class="g1_67"/>
<path d="M729.5,911.4h89.9v-82H729.5v82Z" class="gi_67"/>
<path d="M804.8,880.5l-3.2,3.1l-2.2,1.6l-2.4,1.5l-2.5,1.2l-2.7,.9l-2.8,.7l-2.9,.4l-3,.1l-2.9,-.2l-2.8,-.5l-2.7,-.7l-2.6,-1l-2.4,-1.2L767.1,885l-2.3,-1.8L763,881.4l-1.8,-2l-1.7,-2.3l-1.4,-2.4l-1.2,-2.5l-1.1,-2.8l-.5,-2.7l-.3,-2.9l-.1,-2.9L755,858l.5,-2.8l.7,-2.7l1,-2.6l1.3,-2.5l1.4,-2.3l1.8,-2.1l-3.4,2.5l-2.3,2.1l-1.9,2.2l-1.8,2.3l-1.5,2.4l-1.3,2.6l-1,2.7l-.8,2.8l-.4,2.8l-.2,3l.1,3.1l.4,2.9l.7,2.9l.9,2.8l1.3,2.7l1.4,2.4l1.8,2.3l1.9,2.2l2.3,2l2,1.6l2.5,1.5l2.5,1.3l2.7,1l2.8,.8l2.9,.5l3,.1h3l3,-.5l3,-.7l2.6,-.9l2.2,-.9l2.1,-1.1l2,-1.3l1.8,-1.4l1.7,-1.5l1.5,-1.5l1.5,-1.6l1.2,-1.6l1.6,-2.4Z" class="g1_67"/>
<path d="M782.8,849.7l4.7,4l5.2,-3.2l-2.4,5.7l4.6,4l-6.1,-.5l-2.4,5.6L785,859.4l-6.1,-.5l5.3,-3.2Z" class="g1_67"/>
<path d="M692.3,911.4H819.4v-82H692.3v82Z" class="g3_67"/>
<path d="M533.8,758.2H661V676.3H533.8v81.9Z" class="g1_67"/>
<path d="M533.8,758.2H661V746.6H533.8v11.6Z" class="g7_67"/>
<path d="M533.8,688.7H661V676.3H533.8v12.4Z" class="g7_67"/>
<path d="M533.8,703.2H661V688.8H533.8v14.4Z" class="g1_67"/>
<path d="M533.8,746.6H661V732.1H533.8v14.5Z" class="g1_67"/>
<path d="M533.8,732.2H661v-29H533.8v29Z" class="gj_67"/>
<path d="M533.8,758.2H661V676.3H533.8v81.9Z" class="g3_67"/>
<path d="M692.3,605.1H819.4V523.2H692.3v81.9Z" class="gk_67"/>
<path d="M692.1,550.4H819.6V523H692.1v27.4Z" class="gl_67"/>
<path d="M692.1,577.8H819.6V550.4H692.1v27.4Z" class="gm_67"/>
<path d="M692.1,605.2H819.6V577.8H692.1v27.4Z" class="gn_67"/>
<path d="M755.9,538.1l6.6,19.9h21.6l-17.4,12.3l6.6,19.8L755.9,577.9l-17.5,12.2L745,570.3L727.6,558h21.6Z" class="g1_67"/>
<path d="M215.6,758.2H342.8V676.3H215.6v81.9Z" class="g1_67"/>
<path d="M217.2,730.8H342.8V677.5H217.2v53.3Z" class="g4_67"/>
<path d="M217.2,758.2H342.8V718H217.2v40.2Z" class="g5_67"/>
<path d="M215.6,758.2V676.3l57,42l-54.8,39.9Z" class="g1_67"/>
<path d="M221.3,689.5l-2.2,-1.4l2.4,-1l.5,-2.7l1.6,2.1l2.5,-.3l-1.3,2.4l1,2.5l-2.5,-.7l-1.9,1.9Z" class="gd_67"/>
<path d="M262.3,720.3l-2.4,.5l1.1,-2.4l-1.2,-2.5l2.5,.5l1.7,-2l.4,2.7l2.3,1.2l-2.3,1.2l-.3,2.8Z" class="gd_67"/>
<path d="M222.2,747L220,745.8l2.2,-1.2l.4,-2.8l1.7,2l2.5,-.5l-1.2,2.5l1.2,2.4l-2.5,-.4l-1.7,1.9Z" class="gd_67"/>
<path d="M235.1,712.4l-.7,-8.8l2.3,-2.6l2.1,2.6l-1.3,8.8Z" class="gd_67"/>
<path d="M237.6,702.1l-.8,10.1Z" class="gd_67"/>
<path d="M235.5,702.5l.5,9.9Z" class="gd_67"/>
<path d="M225.6,709.6l-.2,-3.7l3.2,.1l5,7l-1.6,1.9Z" class="gd_67"/>
<path d="M226.7,705.9l6.3,7.5Z" class="gd_67"/>
<path d="M225.6,707.9l7,6.3Z" class="gd_67"/>
<path d="M239.1,713l4.8,-7.1l3.4,-.2l-.1,3.5l-6.4,5.6Z" class="gd_67"/>
<path d="M247.3,707.2l-6.8,6.9Z" class="gd_67"/>
<path d="M245.5,706l-5.8,7.6Z" class="gd_67"/>
<path d="M234.2,731.7l.8,-8.8h2.3l1.3,8.8l-2.1,2.6Z" class="gd_67"/>
<path d="M236.6,723.1l.8,10.1Z" class="gd_67"/>
<path d="M235.8,722.9l-.4,9.9Z" class="gd_67"/>
<path d="M225.5,725.7l6.4,-5.3l1.6,1.9l-5.1,7l-3.2,.1Z" class="gd_67"/>
<path d="M232.9,721.9l-6.3,7.5Z" class="gd_67"/>
<path d="M232.5,721.1l-7,6.3Z" class="gd_67"/>
<path d="M243.8,729.4l-4.9,-7.1l1.8,-1.8l6.3,5.6l.1,3.5Z" class="gd_67"/>
<path d="M240.3,721.2l6.8,6.9Z" class="gd_67"/>
<path d="M239.6,721.7l5.7,7.6Z" class="gd_67"/>
<path d="M241.3,719.5v-2.6l8,-1.4l2.4,2.3l-2.4,2.6Z" class="gd_67"/>
<path d="M250.7,716.8l-9.2,.9Z" class="gd_67"/>
<path d="M241.3,718.6l9,.5Z" class="gd_67"/>
<path d="M220.9,717.2l2.4,-2.3l8,1.4v2.6l-8,.8Z" class="gd_67"/>
<path d="M221.9,716.2l9.2,.9Z" class="gd_67"/>
<path d="M231.3,717.9l-9,.6Z" class="gd_67"/>
<path d="M242.1,717.4c0,3.5,-2.6,6.3,-5.8,6.3c-3.1,0,-5.7,-2.8,-5.7,-6.3c0,-3.5,2.6,-6.3,5.7,-6.3c3.2,0,5.8,2.8,5.8,6.3Z" class="gd_67"/>
<path d="M215.6,758.2H342.8V676.3H215.6v81.9Z" class="g3_67"/>
<path d="M231.8,264.8c0,0,-13,0,-13,13v47.7c0,0,0,12.9,13,12.9h602c0,0,13,0,13,-12.9V277.8c0,0,0,-13,-13,-13Z" class="go_67"/>
<image clip-path="url(#c6_67)" preserveAspectRatio="none" x="175" y="261" width="75" height="76" xlink:href="img/4.png"/>
<path d="M226.6,331.1c0,0,-26.9,11.3,-51.1,-12.8c0,0,15.1,25.3,49.3,24c0,0,24.7,.3,20.2,-10.1c0,0,1.2,-4.5,-18.4,-1.1Z" class="go_67"/>
<path d="M153.3,217.5v22.2L165,250V227.8Z" class="gp_67"/>
<path d="M153.3,200.7v39H851.1c0,0,16.8,0,16.8,-16.8v-5.4c0,0,0,-16.8,-16.8,-16.8Z" class="gq_67"/>
<path d="M211.3,212.1l-6.5,-6.4l-21.2,21.2l6.5,6.4Z" class="gr_67"/>
<path d="M190.1,233.9c.1,0,.3,-.1,.4,-.2l21.2,-21.2c.1,-.1,.1,-.2,.1,-.4c0,-.1,0,-.2,-.1,-.3l-6.5,-6.5c-.2,-.2,-.6,-.2,-.8,0l-21.2,21.2c-.1,.1,-.1,.2,-.1,.4c0,.1,0,.2,.1,.3l6.5,6.5c.1,.1,.3,.2,.4,.2m20.5,-21.8l-20.5,20.5l-5.8,-5.7l20.5,-20.5Z" class="gs_67"/>
<path d="M211.3,212.1l-6.5,-6.4l2.1,-2.2l6.5,6.5Z" class="gt_67"/>
<path d="M211.3,212.7c.1,0,.3,-.1,.4,-.2l2.1,-2.1c.1,-.1,.2,-.2,.2,-.4c0,-.1,-.1,-.3,-.2,-.4l-6.5,-6.4c-.2,-.3,-.5,-.3,-.7,0l-2.2,2.1c-.1,.1,-.1,.2,-.1,.4c0,.1,0,.2,.1,.3l6.5,6.5c.1,.1,.3,.2,.4,.2m1.4,-2.7l-1.4,1.4l-5.7,-5.7l1.3,-1.4Z" class="gs_67"/>
<path d="M217,206.4l-6.4,-6.5l-3.7,3.6l6.5,6.5Z" class="gu_67"/>
<path d="M213.4,210.5c.2,0,.3,0,.4,-.1l3.6,-3.6c.2,-.2,.2,-.6,0,-.8l-6.5,-6.5c-.2,-.2,-.5,-.2,-.7,0l-3.6,3.7c-.2,.2,-.2,.5,0,.7l6.5,6.5c.1,.1,.2,.1,.3,.1m2.9,-4.1l-2.9,2.9l-5.7,-5.8l2.9,-2.8Z" class="gs_67"/>
<path d="M179,238l4.6,-11.1l6.5,6.4Z" class="g1_67"/>
<path d="M179,238.5c0,0,.1,0,.2,0l11.1,-4.7c.2,0,.3,-.2,.3,-.4c0,-.1,0,-.3,-.1,-.4L184,226.5c-.1,-.1,-.3,-.2,-.5,-.1c-.2,0,-.3,.1,-.4,.3l-4.6,11.1c-.1,.2,0,.4,.1,.6c.1,.1,.2,.1,.4,.1m10.2,-5.3l-9.3,3.8l3.9,-9.2Z" class="gs_67"/>
<path d="M179,238l2.2,-5.4l3.1,3.1Z" class="gs_67"/>
<path d="M179,238.5c0,0,.1,0,.2,0l5.3,-2.3c.2,0,.3,-.2,.4,-.4c0,-.1,-.1,-.3,-.2,-.4l-3.1,-3.2c-.1,-.1,-.3,-.1,-.5,-.1c-.2,0,-.3,.2,-.4,.3l-2.2,5.4c-.1,.2,0,.4,.1,.6c.1,.1,.2,.1,.4,.1m4.4,-2.9l-3.5,1.4l1.5,-3.5Z" class="gs_67"/>
<path d="M209.5,210.4l-2.9,-3l-21.2,21.2l2.9,3Z" class="gv_67"/>
<path d="M188.3,232.1c.2,0,.3,0,.4,-.1l21.2,-21.2c.1,-.1,.2,-.3,.2,-.4c0,-.2,-.1,-.3,-.2,-.4l-3,-3c-.2,-.2,-.5,-.2,-.7,0L185,228.3c-.1,.1,-.2,.2,-.2,.3c0,.2,.1,.3,.2,.4l3,3c.1,.1,.2,.1,.3,.1m20.5,-21.7l-20.5,20.4l-2.2,-2.2l20.5,-20.4Z" class="gs_67"/>
<path d="M154.5,1073.5v-28.7c0,0,0,-4.4,4.3,-4.4H862.4c0,0,4.4,0,4.4,4.4v29.1" class="gw_67"/>
<path d="M200.1,1041c2.6,0,4.8,-2.2,4.8,-4.8c0,-2.7,-2.2,-4.8,-4.8,-4.8c-2.7,0,-4.8,2.1,-4.8,4.8c0,2.6,2.1,4.8,4.8,4.8Z" class="g1_67"/>
<path d="M200.1,1042.9c3.6,0,6.6,-3,6.6,-6.7c0,-3.7,-3,-6.7,-6.6,-6.7c-3.7,0,-6.7,3,-6.7,6.7c0,3.7,3,6.7,6.7,6.7m0,-11.5c2.6,0,4.8,2.1,4.8,4.8c0,2.6,-2.2,4.8,-4.8,4.8c-2.7,0,-4.8,-2.2,-4.8,-4.8c0,-2.7,2.1,-4.8,4.8,-4.8Z" class="gx_67"/>
<path d="M205.5,1044.8H194.6c-.1,0,-.3,0,-.4,0c2.7,1.1,4.9,3.4,5.9,6.2c1.3,-.5,2.7,-.8,4.2,-.8c2.9,0,5.5,1,7.5,2.7v-1.8c0,-3.5,-2.8,-6.3,-6.3,-6.3Z" class="g1_67"/>
<path d="M184,1041.8c3.4,0,6.1,-2.7,6.1,-6.1c0,-3.4,-2.7,-6.2,-6.1,-6.2c-3.4,0,-6.1,2.8,-6.1,6.2c0,3.4,2.7,6.1,6.1,6.1Z" class="gy_67"/>
<path d="M184,1043.7c4.4,0,8,-3.6,8,-8c0,-4.4,-3.6,-8,-8,-8c-4.4,0,-8,3.6,-8,8c0,4.4,3.6,8,8,8m0,-14.2c3.4,0,6.1,2.8,6.1,6.2c0,3.4,-2.7,6.1,-6.1,6.1c-3.4,0,-6.1,-2.7,-6.1,-6.1c0,-3.4,2.7,-6.2,6.1,-6.2Z" class="gx_67"/>
<path d="M198.4,1051.8c-1,-3.3,-4.1,-5.7,-7.7,-5.7H177.3c-4.4,0,-8,3.5,-8,8v4.3h23.8c.9,-2.8,2.8,-5.1,5.3,-6.6Z" class="gy_67"/>
<path d="M204.3,1052.1c-5.5,0,-9.9,4.5,-9.9,10c0,5.5,4.4,9.9,9.9,9.9c5.5,0,10,-4.4,10,-9.9c0,-5.5,-4.5,-10,-10,-10m6.7,11.7c0,.2,-.2,.4,-.5,.4h-4v4.1c0,.2,-.2,.4,-.5,.4h-3.3c-.3,0,-.5,-.2,-.5,-.4v-4.1h-4.1c-.2,0,-.4,-.2,-.4,-.4v-3.4c0,-.3,.2,-.5,.4,-.5h4.1v-4c0,-.3,.2,-.5,.5,-.5H206c.3,0,.5,.2,.5,.5v4h4c.3,0,.5,.2,.5,.5Z" class="gz_67"/>
<path d="M213.7,1054.8v-3.7c0,-4.5,-3.7,-8.2,-8.2,-8.2H194.6c-1.6,0,-3.1,.5,-4.3,1.3h-13c-5.4,0,-9.9,4.4,-9.9,9.9v5.2c0,.5,.4,1,1,1h24.2c-.1,.6,-.1,1.2,-.1,1.8c0,6.5,5.3,11.8,11.8,11.8c6.6,0,11.9,-5.3,11.9,-11.8c0,-2.8,-.9,-5.3,-2.5,-7.3m-9.4,17.2c-5.5,0,-9.9,-4.4,-9.9,-9.9c0,-5.5,4.4,-10,9.9,-10c5.5,0,10,4.5,10,10c0,5.5,-4.5,9.9,-10,9.9m-35,-17.9c0,-4.5,3.6,-8,8,-8h13.4c3.6,0,6.7,2.4,7.7,5.7c-2.5,1.5,-4.4,3.8,-5.3,6.6H169.3Zm42.5,-1.2c-2,-1.7,-4.6,-2.7,-7.5,-2.7c-1.5,0,-2.9,.3,-4.2,.8c-1,-2.8,-3.2,-5.1,-5.9,-6.2c.1,0,.3,0,.4,0h10.9c3.5,0,6.3,2.8,6.3,6.3Z" class="gx_67"/>
<path d="M205.5,1060.4v-4.1h-2.4v4.1c0,.3,-.2,.5,-.4,.5h-4.1v2.4h4.1c.2,0,.4,.2,.4,.5v4h2.4v-4c0,-.3,.3,-.5,.5,-.5h4.1v-2.4H206c-.2,0,-.5,-.2,-.5,-.5Z" class="g1_67"/>
<path d="M210.5,1059.9h-4v-4c0,-.3,-.2,-.5,-.5,-.5h-3.3c-.3,0,-.5,.2,-.5,.5v4h-4.1c-.2,0,-.4,.2,-.4,.5v3.4c0,.2,.2,.4,.4,.4h4.1v4.1c0,.2,.2,.4,.5,.4H206c.3,0,.5,-.2,.5,-.4v-4.1h4c.3,0,.5,-.2,.5,-.4v-3.4c0,-.3,-.2,-.5,-.5,-.5m-.4,3.4H206c-.2,0,-.5,.2,-.5,.5v4h-2.4v-4c0,-.3,-.2,-.5,-.4,-.5h-4.1v-2.4h4.1c.2,0,.4,-.2,.4,-.5v-4.1h2.4v4.1c0,.3,.3,.5,.5,.5h4.1Z" class="gx_67"/>
<path d="M154.1,1083.6v158m4.6,2.3H864.9m2.2,-4.6v-158m-4.5,-2.3H156.4" class="g10_67"/>
<path d="M154.1,1243.9v0m713.1,0v0m0,-164.9v0m-713.1,0v0" class="g11_67"/>
<path d="M32.1,179.3H967.5V32.1H32.1V179.3Z" class="g12_67"/>
<g clip-path="url(#c0_67)">
<path d="M967.5,177.2H-877.3v-5.4h736.6c43.1,0,53.1,-37.9,115.3,-37.9H967.5Z" class="g13_67"/>
<path d="M967.5,183.7H-877.3v-9.8h736.6c43.1,0,53.1,-33.6,115.3,-33.6H967.5Z" class="g14_67"/>
</g>
<image clip-path="url(#c7_67)" preserveAspectRatio="none" x="659" y="59" width="200" height="118" xlink:href="img/5.png"/>
<path d="M215.5,452.1H343V369.9H215.5v82.2Z" class="g15_67"/>
<path d="M299.8,411c0,15.1,-12.3,27.4,-27.4,27.4C257.2,438.4,245,426.1,245,411c0,-15.1,12.2,-27.4,27.4,-27.4c15.1,0,27.4,12.3,27.4,27.4Z" class="g16_67"/>
<path d="M374.8,451.9H501.9V370H374.8v81.9Z" class="g1_67"/>
<path d="M374.9,451.9h127V370h-127v81.9Z" class="g4_67"/>
<path d="M374.8,434.7H501.9V388.1H374.8v46.6Z" class="g7_67"/>
<path d="M437.9,394.3c0,0,0,-.9,.5,-.9c.5,0,.5,.9,.5,.9Z" class="g1_67"/>
<path d="M438,394.2h.8c0,-.2,-.1,-.4,-.2,-.6c0,-.1,-.1,-.1,-.2,-.1q-.1,0,-.2,.1c-.1,.2,-.2,.4,-.2,.6m1,.2h-1.2v-.1c0,0,0,-.6,.3,-.8c0,-.1,.2,-.2,.3,-.2c.1,0,.3,.1,.4,.2c.2,.2,.2,.8,.2,.8Z" class="g17_67"/>
<path d="M459.5,417.8v-4.5c.2,-.5,.7,-1.1,1,-1.1v-4.3c-.5,0,-.8,.8,-.8,.8l-.9,4.1v5Z" class="g1_67"/>
<path d="M458.9,417.7h.5v-4.4c.2,-.6,.6,-1.1,1,-1.2v-4c-.4,0,-.6,.6,-.6,.6l-.9,4.1Zm.7,.2h-.9v-5.2l.9,-4.1c0,0,.3,-.8,.9,-.8h.1v4.4h-.1c-.3,.1,-.7,.6,-.9,1.1Z" class="g17_67"/>
<path d="M450,411.7h1.4v-2.8H450v2.8Z" class="g1_67"/>
<path d="M450.2,411.6h1.1V409h-1.1v2.6Zm1.2,.2H450l-.1,-.1v-2.8l.1,-.1h1.4l.1,.1v2.8Z" class="g17_67"/>
<path d="M426.1,418.4H451v-9.5H426.1v9.5Z" class="g1_67"/>
<path d="M426.2,418.3h24.7V409H426.2v9.3Zm24.8,.2H426.1l-.1,-.1v-9.5l.1,-.1H451l.1,.1v9.5Z" class="g17_67"/>
<path d="M417.4,417.8v-4.5c-.2,-.5,-.7,-1.1,-1,-1.2v-3.9l.8,.5l.9,4.1v5Z" class="g1_67"/>
<path d="M417.5,417.7h.5v-4.9l-.9,-4.1l-.6,-.3v3.7c.4,.1,.8,.6,1,1.2Zm.7,.2h-.9v-4.6c-.2,-.5,-.6,-1,-.9,-1.1h-.1V408l1,.6l.9,4.2Z" class="g17_67"/>
<path d="M417.4,417.8v-4.5c-.2,-.5,-.7,-1.1,-1,-1.1v-4.3c.5,0,.8,.8,.8,.8l.9,4.1v5Z" class="g1_67"/>
<path d="M416.5,412.1c.4,.1,.8,.6,1,1.2v4.4h.5v-4.9l-.9,-4.1c0,0,-.2,-.6,-.6,-.6Zm.8,5.8v-4.6c-.2,-.5,-.6,-1,-.9,-1.1h-.1v-4.4h.1c.6,0,.9,.8,.9,.8l.9,4.2v5.1Z" class="g17_67"/>
<path d="M416.4,418.9c.4,-.1,.8,-.6,1,-1.1h42.1c.2,.5,.6,1,1,1.1Z" class="g1_67"/>
<path d="M416.7,418.8h43.5c-.3,-.2,-.6,-.5,-.7,-.9H417.4c-.1,.4,-.4,.7,-.7,.9m43.8,.3H416.4v-.2c.3,-.2,.7,-.7,.9,-1.1v-.1h42.3v.1c.2,.4,.6,.9,1,1.1Z" class="g17_67"/>
<path d="M449.7,417.8h.8v-3.6h-.8v3.6Z" class="g1_67"/>
<path d="M449.8,417.7h.6v-3.4h-.6v3.4Zm.7,.2h-.8l-.1,-.1v-3.6l.1,-.1h.8l.1,.1v3.6Z" class="g17_67"/>
<path d="M426.1,413.5H451v-1.1H426.1v1.1Z" class="g1_67"/>
<path d="M426.2,413.4h24.7v-.9H426.2v.9Zm24.8,.2H426.1l-.1,-.1v-1.1l.1,-.1H451l.1,.1v1.1Z" class="g17_67"/>
<path d="M426.1,411.9H451v-1H426.1v1Z" class="g1_67"/>
<path d="M426.2,411.8h24.7V411H426.2v.8ZM451,412H426.1l-.1,-.1v-1l.1,-.1H451l.1,.1v1Z" class="g17_67"/>
<path d="M426.1,410.3H451v-.9H426.1v.9Z" class="g1_67"/>
<path d="M426.2,410.2h24.7v-.7H426.2v.7Zm24.8,.2H426.1l-.1,-.1v-.9l.1,-.1H451l.1,.1v.9Z" class="g17_67"/>
<path d="M450,411.7h1.4v-2.8H450v2.8Z" class="g1_67"/>
<path d="M450.2,411.6h1.1V409h-1.1v2.6Zm1.2,.2H450l-.1,-.1v-2.8l.1,-.1h1.4l.1,.1v2.8Z" class="g17_67"/>
<path d="M460.1,418.9c-.4,-.1,-1,-.6,-1,-1.1v-5.5l.3,-.5h-9.5l.4,.5v5.5c0,.5,-.4,1,-.8,1.1Z" class="g1_67"/>
<path d="M449.9,418.8h9.8c-.3,-.2,-.7,-.6,-.7,-1v-5.6l.2,-.3h-9.1l.3,.3v5.6c0,.4,-.3,.8,-.5,1m10.2,.3H449.5v-.2c.3,-.2,.7,-.6,.7,-1.1v-5.5l-.5,-.6h9.9l-.4,.6v5.5c0,.4,.6,.9,.9,1.1Z" class="g17_67"/>
<path d="M432.7,417.8h.8v-3.6h-.8v3.6Z" class="g1_67"/>
<path d="M432.8,417.7h.5v-3.4h-.5v3.4Zm.7,.2h-.8l-.1,-.1v-3.6l.1,-.1h.8l.1,.1v3.6Z" class="g17_67"/>
<path d="M443.4,417.8h.8v-3.6h-.8v3.6Z" class="g1_67"/>
<path d="M443.5,417.7h.5v-3.4h-.5v3.4Zm.7,.2h-.8l-.1,-.1v-3.6l.1,-.1h.8l.1,.1v3.6Z" class="g17_67"/>
<path d="M444.7,418.9c-.5,-.1,-1.1,-.6,-1.1,-1.1v-5.3l.6,-.7H432.6l.6,.7v5.3c0,.5,-.4,1,-.9,1.1Z" class="g1_67"/>
<path d="M432.7,418.8h11.5c-.3,-.2,-.7,-.6,-.7,-1v-5.3l.5,-.6H432.8l.5,.6v5.3c0,.4,-.3,.8,-.6,1m12,.3H432.3v-.2c.4,-.2,.8,-.6,.8,-1.1v-5.2l-.7,-.9h12l-.7,.9v5.2c0,.4,.6,.9,1,1.1Z" class="g17_67"/>
<path d="M434.7,417.8h.8v-3.6h-.8v3.6Z" class="g1_67"/>
<path d="M434.8,417.7h.6v-3.4h-.6v3.4Zm.7,.2h-.8l-.1,-.1v-3.6l.1,-.1h.8l.1,.1v3.6Z" class="g17_67"/>
<path d="M441.3,417.8h.8v-3.6h-.8v3.6Z" class="g1_67"/>
<path d="M441.4,417.7h.6v-3.4h-.6v3.4Zm.7,.2h-.8l-.1,-.1v-3.6l.1,-.1h.8l.1,.1v3.6Z" class="g17_67"/>
<path d="M432.4,405.8v6h11.8v-6c-.4,.2,-.5,.6,-.5,.6V409H433v-2.6c0,0,-.1,-.4,-.6,-.6Z" class="g1_67"/>
<path d="M432.5,411.7h11.6v-5.8c-.3,.2,-.3,.5,-.3,.5v2.7H432.9v-2.7c0,-.1,-.1,-.3,-.4,-.5Zm11.8,.2h-12v-6.3l.2,.1c.5,.2,.6,.6,.6,.7v2.5h10.5v-2.5c0,-.1,.1,-.5,.6,-.7l.2,-.1Z" class="g17_67"/>
<path d="M442.6,418.9c-.4,-.1,-1.2,-.6,-1.2,-1.1v-5.9c.1,-.3,.5,-.5,.8,-.7h-7.8c.4,.2,.8,.3,.9,.7v5.9c0,.5,-.6,1,-1,1.1Z" class="g1_67"/>
<path d="M434.7,418.8h7.5c-.4,-.2,-.9,-.6,-.9,-1v-5.9c.1,-.3,.3,-.5,.6,-.6h-7.1c.3,.1,.5,.3,.6,.6v5.9c0,.4,-.3,.8,-.7,1m7.9,.3h-8.3v-.2c.3,-.2,.9,-.7,.9,-1.1v-5.9c-.1,-.3,-.4,-.4,-.7,-.6c0,0,-.1,0,-.1,0v-.2h8.1l-.2,.2c-.1,0,-.2,.1,-.2,.1c-.3,.1,-.5,.3,-.6,.5v5.9c0,.4,.8,.9,1.2,1.1Z" class="g17_67"/>
<path d="M443.7,411.2V407h-1.1v-.5h-8.5v.5h-1v4.2Z" class="g1_67"/>
<path d="M433.2,411.1h10.4v-4h-1.1v-.5h-8.3v.5h-1Zm10.6,.2H433v-4.4h1v-.5h8.7v.5h1.1Z" class="g17_67"/>
<path d="M426.3,417.8h.8v-3.6h-.8v3.6Z" class="g1_67"/>
<path d="M426.4,417.7h.6v-3.4h-.6v3.4Zm.7,.2h-.8l-.1,-.1v-3.6l.1,-.1h.8l.1,.1v3.6Z" class="g17_67"/>
<path d="M416.8,418.9c.4,-.1,.9,-.6,.9,-1.1v-5.5l-.2,-.5H427l-.4,.5v5.5c0,.5,.4,1,.7,1.1Z" class="g1_67"/>
<path d="M417.2,418.8H427c-.3,-.2,-.5,-.6,-.5,-1v-5.6l.3,-.3h-9.2l.2,.3v5.6c0,.4,-.3,.8,-.6,1m10.1,.3H416.8l-.1,-.2c.4,-.2,.9,-.7,.9,-1.1v-5.5l-.3,-.6h9.9l-.5,.6v5.5c0,.5,.4,.9,.7,1.1Z" class="g17_67"/>
<path d="M417.8,411.3h.9v-3.2h-.9v3.2Z" class="g1_67"/>
<path d="M417.9,411.2h.7v-3h-.7v3Zm.8,.2h-.9l-.1,-.1v-3.2l.1,-.1h.9l.1,.1v3.2Z" class="g17_67"/>
<path d="M417.8,408.1h.9v-.7h-.9v.7Z" class="g1_67"/>
<path d="M417.9,408h.7v-.5h-.7v.5Zm.8,.2h-.9l-.1,-.1v-.7l.1,-.1h.9l.1,.1v.7Z" class="g17_67"/>
<path d="M425.4,418.9c-.3,-.1,-.9,-.6,-.9,-1.1v-5.3l.8,-.7h-6.5l.8,.7v5.3c0,.5,-.5,1,-.9,1.1Z" class="g1_67"/>
<path d="M419.1,418.8h6c-.4,-.2,-.7,-.6,-.7,-1v-5.3l.6,-.6h-5.9l.6,.6v5.3c0,.4,-.3,.8,-.6,1m6.3,.3h-6.7v-.2c.3,-.2,.8,-.7,.8,-1.1v-5.2l-.9,-.9h7l-1,.9v5.2c0,.4,.5,.9,.9,1.1Z" class="g17_67"/>
<path d="M424.5,418.9c-.4,-.1,-.9,-.6,-.9,-1.1V413l.5,-.7H420l.5,.7v4.8c0,.5,-.5,1,-.9,1.1Z" class="g1_67"/>
<path d="M420,418.8h4.2c-.4,-.2,-.7,-.6,-.7,-1V413l.4,-.6h-3.7l.4,.6v4.8c0,.4,-.3,.8,-.6,1m4.5,.3h-4.9v-.2c.3,-.2,.8,-.7,.8,-1.1v-4.7l-.6,-.9h4.5l-.6,.9v4.7c0,.4,.5,.9,.9,1.1Z" class="g17_67"/>
<path d="M458.1,418.9c-.3,-.1,-.9,-.6,-.9,-1.1v-5.3l.8,-.7h-6.5l.8,.7v5.3c0,.5,-.5,1,-.9,1.1Z" class="g1_67"/>
<path d="M451.8,418.8h6c-.4,-.2,-.7,-.6,-.7,-1v-5.3l.6,-.6h-5.9l.6,.6v5.3c0,.4,-.3,.8,-.6,1m6.3,.3h-6.7v-.2c.3,-.2,.8,-.7,.8,-1.1v-5.2l-.9,-.9h7l-1,.9v5.2c0,.4,.5,.9,.9,1.1Z" class="g17_67"/>
<path d="M457.2,418.9c-.3,-.1,-.9,-.6,-.9,-1.1V413l.5,-.7h-4.1l.5,.7v4.8c0,.5,-.5,1,-.9,1.1Z" class="g1_67"/>
<path d="M452.7,418.8h4.2c-.4,-.2,-.7,-.6,-.7,-1V413l.4,-.6h-3.7l.4,.6v4.8c0,.4,-.3,.8,-.6,1m4.5,.3h-4.9v-.2c.3,-.2,.8,-.7,.8,-1.1v-4.7l-.6,-.9H457l-.6,.9v4.7c0,.4,.5,.9,.9,1.1Z" class="g17_67"/>
<path d="M421.1,418.9H423v-6.6h-1.9v6.6Z" class="g1_67"/>
<path d="M421.2,418.8h1.7v-6.4h-1.7v6.4Zm1.9,.3H421v-6.9h2.1v6.9Z" class="g17_67"/>
<path d="M440.9,418.9c-.3,-.1,-.9,-.6,-.9,-1.1v-5l.3,-.5h-3.8l.3,.5v5c0,.5,-.6,1,-1,1.1Z" class="g1_67"/>
<path d="M436.2,418.8h4.4c-.4,-.2,-.7,-.6,-.7,-1v-5.1l.2,-.3h-3.4l.2,.3v5.1c0,.4,-.3,.8,-.7,1m4.7,.3h-5.1v-.2c.4,-.2,.9,-.7,.9,-1.1v-5l-.4,-.6h4.2l-.4,.6v5c0,.4,.5,.9,.9,1.1Z" class="g17_67"/>
<path d="M437.4,418.9h2v-6.6h-2v6.6Z" class="g1_67"/>
<path d="M437.5,418.8h1.8v-6.4h-1.8v6.4Zm2,.3h-2.2v-6.9h2.2v6.9Z" class="g17_67"/>
<path d="M453.8,418.9h2v-6.6h-2v6.6Z" class="g1_67"/>
<path d="M453.9,418.8h1.8v-6.4h-1.8v6.4Zm2,.3h-2.2v-6.9h2.2v6.9Z" class="g17_67"/>
<path d="M436.4,411.2h4v-1.4h-4v1.4Z" class="g1_67"/>
<path d="M436.5,411.1h3.8v-1.2h-3.8v1.2Zm3.9,.2h-4l-.1,-.1v-1.4l.1,-.1h4l.1,.1v1.4Z" class="g17_67"/>
<path d="M440.4,410.9c0,-.5,1.3,-.5,1.9,-.9h-7.8c.6,.4,1.9,.4,1.9,.9l.2,.8l3.3,.1Z" class="g1_67"/>
<path d="M436.7,411.6l3.1,.1l.5,-.9c0,-.3,.5,-.4,1,-.5c.2,-.1,.3,-.1,.5,-.2H435c.1,.1,.3,.1,.5,.2c.5,.1,1,.2,1,.5Zm3.2,.3l-3.3,-.1l-.1,-.1l-.2,-.8c0,-.2,-.5,-.3,-.9,-.4c-.3,-.1,-.7,-.2,-1,-.4l.1,-.2h7.8l.1,.2c-.3,.2,-.7,.3,-1,.3c-.4,.2,-.9,.3,-.9,.5l-.5,1Z" class="g17_67"/>
<path d="M441.9,406.2c0,-1,.1,-1.4,.4,-1.4v3.4c-.8,.2,-1.4,1.3,-1.4,1.3h-5c0,0,-.6,-1.1,-1.4,-1.3v-3.4c.4,0,.4,.4,.4,1.4Z" class="g1_67"/>
<path d="M435.9,409.4h5c.1,-.2,.6,-1,1.3,-1.3v-3.2c-.1,.1,-.2,.4,-.2,1.3v.1h-7.2v-.1c0,-.9,0,-1.2,-.2,-1.3v3.2c.7,.3,1.2,1.1,1.3,1.3m5.1,.2h-5.2v-.1c0,0,-.6,-1,-1.4,-1.3v-3.5h.1c.5,0,.5,.4,.5,1.4h6.8c0,-.9,.1,-1.4,.5,-1.4h.1v3.5h-.1c-.7,.3,-1.3,1.3,-1.3,1.3Z" class="g17_67"/>
<path d="M435.9,406.9c.7,.8,.6,2.1,.6,2.9h3.8c0,-.8,-.1,-2.1,.6,-2.9Z" class="g1_67"/>
<path d="M436.6,409.7h3.6v-.1c0,-.7,0,-1.9,.5,-2.6h-4.6c.5,.7,.5,1.9,.5,2.6Zm3.8,.2h-4v-.3c0,-.8,0,-2,-.5,-2.7l-.2,-.1h5.4l-.1,.1c-.6,.7,-.6,1.9,-.6,2.7Z" class="g17_67"/>
<path d="M418.4,417.8h.8v-3.6h-.8v3.6Z" class="g1_67"/>
<path d="M418.5,417.7h.6v-3.4h-.6v3.4Zm.7,.2h-.8l-.1,-.1v-3.6l.1,-.1h.8l.1,.1v3.6Z" class="g17_67"/>
<path d="M458.2,411.3h.9v-3.2h-.9v3.2Z" class="g1_67"/>
<path d="M458.3,411.2h.7v-3h-.7v3Zm.8,.2h-.9l-.1,-.1v-3.2l.1,-.1h.9l.1,.1v3.2Z" class="g17_67"/>
<path d="M416.7,418.8h43.5c-.3,-.2,-.6,-.5,-.7,-.9H417.4c-.1,.4,-.4,.7,-.7,.9m43.8,.3H416.4v-.2c.3,-.2,.7,-.7,.9,-1.1v-.1h42.3v.1c.2,.4,.6,.9,1,1.1Z" class="g17_67"/>
<path d="M425.1,417.8h.8v-3.6h-.8v3.6Z" class="g1_67"/>
<path d="M425.2,417.7h.6v-3.4h-.6v3.4Zm.7,.2h-.8l-.1,-.1v-3.6l.1,-.1h.8l.1,.1v3.6Z" class="g17_67"/>
<path d="M417.2,407v4.8h.5V407c-.2,-.1,-.3,-.1,-.5,0Z" class="g1_67"/>
<path d="M417.3,411.7h.3V407c-.1,0,-.2,0,-.3,0Zm.5,.2h-.7v-5c.2,-.1,.4,-.2,.7,0Z" class="g17_67"/>
<path d="M417.2,410.1c.7,.3,1.4,.7,1.5,1.7h-1.5Z" class="g1_67"/>
<path d="M417.3,411.7h1.3c-.2,-.7,-.7,-1.1,-1.3,-1.4Zm1.6,.2h-1.8v-2l.2,.1c.7,.4,1.4,.8,1.5,1.8Z" class="g17_67"/>
<path d="M425.5,411.7h1.3v-2.8h-1.3v2.8Z" class="g1_67"/>
<path d="M425.6,411.6h1.1V409h-1.1v2.6Zm1.2,.2h-1.3l-.1,-.1v-2.8l.1,-.1h1.3l.2,.1v2.8Z" class="g17_67"/>
<path d="M426.6,408.7v3.1h.5v-3.2c-.2,0,-.3,0,-.5,.1Z" class="g1_67"/>
<path d="M426.7,411.7h.3v-3c-.1,0,-.2,0,-.3,0Zm.5,.2h-.7v-3.3h.1c.1,-.1,.4,-.1,.5,0h.1Z" class="g17_67"/>
<path d="M435.2,406.2V405c0,-.6,-.6,-.6,-.6,-1.1c0,0,-.1,-.6,.1,-.9c.2,.9,.6,.7,.6,.3c0,-.3,-.2,-.6,-.7,-1.4c-.2,-.2,-.1,-1,.2,-1.2c0,.6,.1,.9,.4,.9c.2,0,.3,-.1,.3,-.4c0,-.4,-.2,-.6,-.4,-1c-.2,-.5,0,-.9,.2,-1.2c.2,.7,.1,.9,.4,.9c.6,-.2,0,-1,-.1,-1.2c-.2,-.3,.2,-.8,.2,-.8q.2,.6,.4,.6c.3,-.1,.3,-.5,-.1,-.8c-.2,-.2,-.1,-.5,.1,-.7c.2,.4,.5,.4,.5,.2l-.2,-1h3.8l-.2,.9c0,.3,.3,.3,.5,-.1c.2,.2,.3,.5,.1,.7c-.3,.3,-.4,.7,-.1,.8q.2,0,.4,-.6c0,0,.3,.3,.2,.8c-.1,.2,-.7,1,-.1,1.2c.3,0,.3,-.2,.4,-.9c.3,.3,.4,.7,.2,1.2c-.1,.4,-.4,.6,-.4,1c0,.3,.1,.4,.3,.4c.3,0,.4,-.3,.5,-.9c.2,.2,.3,1,.1,1.2c-.5,.8,-.7,1.1,-.7,1.4c0,.4,.4,.6,.6,-.3c.2,.3,.1,.9,.1,.9c0,.5,-.6,.5,-.6,1.1v1.2Z" class="g1_67"/>
<path d="M435.3,406.1h6.2V405c0,-.3,.2,-.5,.4,-.7c.1,-.1,.2,-.2,.2,-.4c.1,-.1,.1,-.4,0,-.6c-.1,.4,-.3,.4,-.4,.4c-.2,0,-.3,-.2,-.3,-.4c0,-.3,.1,-.5,.5,-1c.1,-.1,.1,-.3,.2,-.4c.1,-.2,.1,-.6,0,-.9c-.1,.4,-.2,.7,-.5,.7c-.1,0,-.4,0,-.4,-.5c0,-.3,.1,-.5,.2,-.7c.1,-.1,.2,-.2,.2,-.4c.1,-.3,.1,-.6,-.1,-.9q0,.1,0,.2c0,.4,-.1,.6,-.4,.6c-.2,0,-.3,-.1,-.3,-.3c-.2,-.3,.1,-.8,.3,-1v-.1c.1,-.2,0,-.3,0,-.5c-.2,.4,-.3,.5,-.6,.5c-.1,-.1,-.2,-.1,-.2,-.3c0,-.2,.1,-.4,.3,-.6c.1,-.2,.1,-.3,0,-.5c-.1,.2,-.3,.3,-.4,.2c-.2,0,-.2,-.2,-.2,-.3l.2,-.8h-3.6l.2,.9c0,.1,-.1,.2,-.2,.2c-.2,.1,-.3,0,-.4,-.2c-.1,.2,-.1,.3,0,.5c.2,.2,.4,.4,.3,.6c0,.2,-.1,.2,-.2,.3c-.3,0,-.4,-.1,-.5,-.4c-.1,.1,-.2,.3,-.1,.4v.1c.2,.2,.5,.7,.3,1c0,.2,-.1,.3,-.3,.3c-.3,0,-.3,-.2,-.4,-.6q0,-.1,0,-.2c-.2,.3,-.2,.6,-.1,.9c.1,.2,.1,.3,.2,.4c.1,.2,.2,.4,.2,.7c0,.5,-.2,.5,-.4,.5c-.3,0,-.4,-.3,-.5,-.7c-.1,.3,-.1,.7,0,.9c.1,.1,.2,.3,.2,.4c.4,.5,.5,.7,.5,1c0,.2,-.1,.4,-.2,.4c-.1,0,-.4,0,-.5,-.4c-.1,.2,0,.5,0,.6c0,.2,.1,.3,.2,.4c.2,.2,.4,.4,.4,.7Zm6.4,.2h-6.6V405c0,-.3,-.2,-.4,-.3,-.5c-.2,-.2,-.3,-.3,-.3,-.6c0,0,-.1,-.7,.1,-1l.1,-.2l.1,.2c.1,.5,.3,.6,.3,.6c.1,0,.1,-.1,.1,-.2c0,-.2,-.1,-.4,-.4,-.9c-.1,-.1,-.2,-.3,-.3,-.4c-.2,-.3,-.1,-1.1,.2,-1.4l.1,-.2l.1,.2c0,.7,.1,.9,.3,.9c.1,0,.2,0,.2,-.3c0,-.2,-.1,-.4,-.2,-.6c0,-.1,-.1,-.2,-.2,-.4c-.2,-.5,-.1,-1,.3,-1.3l.1,-.1v.2c.1,.1,.1,.2,.1,.3c.1,.4,.1,.5,.2,.5c.1,0,.1,-.1,.2,-.1c0,-.3,-.2,-.7,-.4,-.9v-.1c-.2,-.3,.2,-.8,.2,-.9l.1,-.1l.1,.2q.2,.5,.3,.5c.1,0,.1,-.1,.1,-.1c0,-.1,0,-.3,-.2,-.5c-.3,-.2,-.2,-.6,0,-.9l.1,-.1l.1,.2c.1,.2,.2,.2,.2,.2q.1,0,.1,0l-.2,-1.1h4l-.2,1q0,.1,0,.1c.1,0,.2,0,.3,-.2l.1,-.2l.1,.1c.3,.3,.3,.7,0,.9c-.2,.2,-.2,.4,-.2,.5c0,0,.1,.1,.1,.1c.1,0,.2,0,.3,-.5l.1,-.2l.1,.1c0,0,.3,.4,.2,.9v.1c-.1,.2,-.4,.6,-.3,.9c0,0,0,.1,.1,.1c.1,0,.2,-.1,.2,-.5c0,-.1,.1,-.2,.1,-.3v-.2l.1,.1c.4,.3,.5,.8,.3,1.3c-.1,.2,-.1,.3,-.2,.4c-.1,.2,-.2,.4,-.2,.6c0,.3,.1,.3,.2,.3c.2,0,.3,-.2,.4,-.9v-.2l.1,.2c.3,.3,.4,1.1,.2,1.4c-.1,.1,-.2,.3,-.2,.4c-.4,.5,-.5,.7,-.5,.9c0,.1,0,.2,.1,.2c.1,0,.2,-.1,.4,-.6v-.2l.1,.2c.2,.3,.2,1,.1,1c0,.3,-.1,.4,-.3,.6c-.1,.1,-.3,.2,-.3,.5Z" class="g17_67"/>
<path d="M436.6,397.4h3.7v-.1h-3.7v.1Z" class="g17_67"/>
<path d="M438.1,397.9l-.6,-.3v-.7c.3,0,.5,0,.5,.4c.1,-.5,.2,-.5,.4,-.7c.2,.2,.4,.2,.4,.7c.1,-.4,.3,-.4,.5,-.4v.7l-.5,.3Z" class="g1_67"/>
<path d="M438.1,397.8h.7l.4,-.2V397c-.1,0,-.2,.1,-.2,.3h-.3c0,-.3,-.1,-.4,-.2,-.5h-.1c-.2,.1,-.2,.2,-.3,.5h-.2c0,-.2,-.1,-.3,-.3,-.3v.6Zm.7,.2H438l-.6,-.3v-1l.2,.1c.2,0,.3,0,.4,.2c.1,-.2,.1,-.3,.2,-.3q.1,-.1,.2,-.1v-.1l.1,.1c0,0,.1,0,.1,.1c.1,0,.2,.1,.3,.3c.1,-.2,.2,-.2,.3,-.2l.2,-.1v1Z" class="g17_67"/>
<path d="M436.1,398.6h4.6v-.2h-4.6v.2Z" class="g17_67"/>
<path d="M438,399.1l-.8,-.6v-.7c.3,.1,.6,.1,.6,.5c.1,-.5,.3,-.8,.6,-1c.3,.2,.5,.5,.6,1c.1,-.4,.4,-.4,.7,-.5v.7l-.9,.6Z" class="g1_67"/>
<path d="M438.1,399h.7l.8,-.5V398c-.3,0,-.5,.1,-.5,.3h-.2c-.1,-.4,-.2,-.7,-.5,-.9c-.2,.2,-.4,.5,-.5,.9h-.2c0,-.2,-.2,-.3,-.4,-.3v.5Zm.8,.2H438l-.9,-.6v-.9l.2,.1c.2,0,.4,.1,.5,.2c.1,-.4,.3,-.6,.6,-.8h.1c.3,.2,.4,.4,.6,.8c.1,-.1,.3,-.2,.5,-.2l.2,-.1v.9Z" class="g17_67"/>
<path d="M435.7,400h5.4v-.2h-5.4v.2Z" class="g17_67"/>
<path d="M438,401.1l-1,-.9v-1c.3,.1,.7,.1,.8,.7c.1,-.8,.3,-1.2,.6,-1.5c.4,.3,.6,.7,.7,1.5c.1,-.6,.4,-.6,.8,-.7v1l-1,.9Z" class="g1_67"/>
<path d="M438,401h.9l.9,-.8v-.9c-.3,.1,-.6,.2,-.6,.6H439c-.1,-.7,-.3,-1.1,-.6,-1.4c-.3,.3,-.4,.7,-.5,1.4h-.3c0,-.4,-.2,-.5,-.5,-.6v.9Zm.9,.2h-1l-1,-.9v-1.2h.1c0,0,.1,0,.1,0c.2,.1,.5,.2,.6,.4c.2,-.6,.3,-.9,.7,-1.2h.1c.3,.3,.5,.6,.6,1.2c.2,-.2,.4,-.3,.6,-.4q.1,0,.2,0h.1v1.2Z" class="g17_67"/>
<path d="M439.8,402.3l-.9,1.2h-1l-.9,-1.2Z" class="g1_67"/>
<path d="M437.9,403.4h.9l.8,-1h-2.4Zm1,.2h-1.1l-1,-1.5H440Z" class="g17_67"/>
<path d="M436.5,404.3c.4,.3,.6,.8,.6,1.7h2.6c0,-.9,.2,-1.4,.6,-1.7Z" class="g1_67"/>
<path d="M437.2,405.9h2.4c0,-.7,.1,-1.2,.4,-1.5h-3.2c.3,.3,.4,.8,.4,1.5m2.6,.2H437V406c0,-.9,-.2,-1.4,-.6,-1.6l.1,-.2h3.8l.1,.2c-.4,.2,-.6,.7,-.6,1.6Z" class="g17_67"/>
<path d="M435.2,401.7h6.5v-.1h-6.5v.1Z" class="g17_67"/>
<path d="M435.1,403.7h6.6v-.2h-6.6v.2Z" class="g17_67"/>
<path d="M440.4,402.3V401c-.5,.1,-.7,.4,-.9,.7c0,-.4,-.5,-1.3,-1.1,-1.8c-.6,.5,-1.2,1.4,-1.1,1.8c-.1,-.3,-.4,-.6,-.9,-.7v1.3Z" class="g1_67"/>
<path d="M436.5,402.1h3.8v-1c-.4,.2,-.6,.4,-.7,.6h-.2c0,-.4,-.5,-1.2,-1,-1.7c-.6,.5,-1.1,1.3,-1,1.7h-.2c-.1,-.2,-.4,-.4,-.7,-.6Zm3.9,.3h-4l-.1,-.1V401l.2,-.1c.3,.1,.5,.3,.7,.5c.2,-.5,.7,-1.2,1.1,-1.6h.2c.5,.4,.9,1.1,1.1,1.6c.1,-.2,.4,-.4,.7,-.5l.2,.1v1.3Z" class="g17_67"/>
<path d="M440.5,404.3v-1.2c-.4,.1,-.7,.4,-.9,.7c0,-.4,-.6,-1.4,-1.2,-1.8c-.7,.5,-1.3,1.3,-1.3,1.8c-.1,-.3,-.4,-.6,-.9,-.7v1.2Z" class="g1_67"/>
<path d="M436.3,404.2h4.1v-1c-.3,.1,-.6,.3,-.7,.6h-.2c0,-.4,-.5,-1.2,-1.1,-1.7c-.6,.5,-1.2,1.3,-1.2,1.7H437c0,-.2,-.3,-.5,-.7,-.6Zm4.2,.2h-4.3l-.1,-.1v-1.2l.2,-.1c.3,.1,.6,.3,.8,.5c.2,-.5,.7,-1.2,1.2,-1.6h.2c.5,.4,1,1.1,1.2,1.6c.2,-.2,.4,-.4,.8,-.5l.1,.1v1.2Z" class="g17_67"/>
<path d="M441.1,406.9v-1.5c-.6,.2,-1,.6,-1.2,.9c0,-.8,-.8,-2,-1.5,-2.4c-.7,.4,-1.6,1.7,-1.6,2.4c-.1,-.3,-.5,-.7,-1.1,-.9v1.5Z" class="g1_67"/>
<path d="M435.8,406.8H441v-1.2c-.4,.1,-.7,.4,-1,.7h-.2c0,-.7,-.8,-1.8,-1.4,-2.3c-.6,.4,-1.5,1.6,-1.5,2.3h-.1c-.2,-.2,-.5,-.6,-1,-.7Zm5.3,.2h-5.4l-.1,-.1v-1.5l.1,-.1c.5,.2,.8,.5,1.1,.7c.1,-.8,.9,-1.8,1.5,-2.2h.1c.7,.4,1.5,1.4,1.6,2.2c.3,-.3,.7,-.6,1,-.7l.2,.1v1.5Z" class="g17_67"/>
<path d="M440.8,410.1v-1.5c-.6,.2,-.7,.7,-.9,1c.1,-1.5,-.8,-3.1,-1.5,-3.5c-.7,.4,-1.6,2.1,-1.5,3.5c-.2,-.3,-.4,-.8,-.9,-1v1.5Z" class="g1_67"/>
<path d="M436.1,410h4.6v-1.2c-.4,.1,-.5,.5,-.6,.7c0,.1,-.1,.1,-.1,.2l-.2,-.1c.1,-1.4,-.8,-2.9,-1.4,-3.4c-.7,.5,-1.5,2,-1.4,3.4l-.2,.1q-.1,-.1,-.1,-.2c-.1,-.3,-.3,-.6,-.6,-.7Zm4.7,.2H436l-.1,-.1v-1.5l.2,-.1c.3,.1,.5,.4,.7,.7c.1,-1.4,.9,-2.8,1.5,-3.2h.1c.7,.4,1.5,1.7,1.6,3.2c.2,-.3,.4,-.6,.7,-.7l.2,.1v1.5Z" class="g17_67"/>
<path d="M458.2,408.1h.9v-.7h-.9v.7Z" class="g1_67"/>
<path d="M458.3,408h.7v-.5h-.7v.5Zm.8,.2h-.9l-.1,-.1v-.7l.1,-.1h.9l.1,.1v.7Z" class="g17_67"/>
<path d="M451,417.8h.7v-3.6H451v3.6Z" class="g1_67"/>
<path d="M451.1,417.7h.5v-3.4h-.5v3.4Zm.6,.2H451l-.1,-.1v-3.6l.1,-.1h.7l.1,.1v3.6Z" class="g17_67"/>
<path d="M457.7,417.8h.8v-3.6h-.8v3.6Z" class="g1_67"/>
<path d="M457.8,417.7h.6v-3.4h-.6v3.4Zm.7,.2h-.8l-.1,-.1v-3.6l.1,-.1h.8l.1,.1v3.6Z" class="g17_67"/>
<path d="M433.1,410.2h10.6V410H433.1v.2Z" class="g17_67"/>
<path d="M436.5,411.4h3.8v-1.2h-3.8v1.2Zm4,.2h-4.2V410h4.2v1.6Z" class="g17_67"/>
<path d="M440.4,412.3v-1.5c-.5,.2,-.6,.4,-.7,.7c0,-.9,-.6,-1.9,-1.3,-2.3c-.7,.4,-1.3,1.4,-1.3,2.3c-.1,-.3,-.2,-.5,-.7,-.7v1.5Z" class="g1_67"/>
<path d="M436.5,412.2h3.8V411c-.3,.1,-.4,.2,-.5,.4q0,.1,-.1,.1h-.1c0,-.9,-.6,-1.8,-1.2,-2.2c-.6,.4,-1.2,1.3,-1.2,2.2H437v-.1c-.1,-.2,-.2,-.3,-.5,-.4Zm4,.2h-4.2v-1.7h.1c.4,.1,.5,.2,.6,.4c.2,-.8,.8,-1.7,1.3,-2l.1,-.1v.1c.6,.3,1.2,1.2,1.3,2c.2,-.2,.3,-.3,.7,-.4h.1Z" class="g17_67"/>
<path d="M427.1,410.1c-.7,.3,-1.4,.7,-1.5,1.7h1.5Z" class="g1_67"/>
<path d="M425.7,411.7H427v-1.4c-.6,.3,-1.1,.7,-1.3,1.4m1.5,.2h-1.8l.1,-.1c.1,-1,.8,-1.4,1.5,-1.8l.2,-.1Z" class="g17_67"/>
<path d="M417.7,411.8h1v-3.7h-1v3.7Z" class="g1_67"/>
<path d="M417.8,411.7h.8v-3.5h-.8v3.5Zm.9,.2h-1l-.1,-.1v-3.7l.1,-.1h1l.1,.1v3.7Z" class="g17_67"/>
<path d="M417.7,408.1h1v-.7h-1v.7Z" class="g1_67"/>
<path d="M417.8,408h.8v-.5h-.8v.5Zm.9,.2h-1l-.1,-.1v-.7l.1,-.1h1l.1,.1v.7Z" class="g17_67"/>
<path d="M425.5,411.7h1.3v-2.8h-1.3v2.8Z" class="g1_67"/>
<path d="M425.6,411.6h1.1V409h-1.1v2.6Zm1.2,.2h-1.3l-.1,-.1v-2.8l.1,-.1h1.3l.2,.1v2.8Z" class="g17_67"/>
<path d="M418.7,411.7v-6.3c.2,0,.3,1,.9,1c.3,0,.3,-.4,.1,-.7c-.2,-.3,-.3,-.7,-.1,-1.4c.2,.5,.7,.7,.6,.4c-.2,-.6,-.6,-.7,-.3,-1.6c.2,.7,.6,.7,.5,.3c-.1,-.5,-.4,-.7,0,-1.5c.1,.8,.4,.8,.4,.3c0,-.7,0,-1.5,.9,-1.8c0,0,.1,-.7,.4,-.7c.4,0,.4,.7,.4,.7c1,.3,.9,1.1,.9,1.8c0,.5,.3,.5,.5,-.3c.3,.8,0,1,-.1,1.5c-.1,.4,.4,.4,.5,-.3c.3,.9,-.1,1,-.3,1.6c-.1,.3,.4,.1,.6,-.4c.3,.7,.1,1.1,-.1,1.4c-.2,.3,-.2,.7,.1,.7c.7,0,.7,-1,1,-1v6.3Z" class="g1_67"/>
<path d="M418.8,411.6h6.7v-5.9c-.1,0,-.1,.1,-.1,.1c-.1,.3,-.3,.7,-.8,.7c-.1,0,-.2,-.1,-.3,-.2c-.1,-.2,0,-.5,.1,-.7c.2,-.2,.3,-.5,.2,-1c-.2,.2,-.4,.4,-.6,.3c0,0,-.1,-.1,-.1,-.3c.1,-.2,.2,-.3,.2,-.4c.2,-.2,.3,-.4,.2,-.8c-.1,.2,-.2,.3,-.3,.4c-.1,0,-.2,0,-.2,-.1c-.1,-.1,-.1,-.2,-.1,-.4c0,-.1,.1,-.2,.1,-.3c.1,-.2,.2,-.4,.1,-.7c-.1,.3,-.2,.4,-.4,.4c0,0,-.2,-.1,-.2,-.5v-.1c0,-.7,0,-1.3,-.8,-1.6h-.1v-.1c0,-.1,-.1,-.6,-.3,-.6c-.2,0,-.3,.5,-.3,.6v.1h-.1c-.8,.3,-.8,.9,-.8,1.6v.1c0,.4,-.1,.5,-.2,.5c-.1,0,-.3,-.1,-.4,-.4c-.1,.3,0,.5,.1,.7c0,.1,.1,.2,.1,.3c.1,.2,0,.3,0,.4c-.1,.1,-.2,.1,-.3,.1c-.1,-.1,-.2,-.2,-.3,-.4c0,.4,.1,.6,.2,.8c.1,.1,.2,.2,.2,.4c.1,.2,0,.3,-.1,.3c-.2,.1,-.4,-.1,-.6,-.3c-.1,.5,.1,.8,.2,1c.1,.2,.2,.5,.1,.7c-.1,.1,-.2,.2,-.3,.2c-.4,0,-.6,-.4,-.8,-.7c0,0,0,-.1,0,-.1Zm6.9,.3h-7.1v-6.6h.1c.1,0,.2,.2,.3,.4c.2,.3,.3,.6,.6,.6c.1,0,.1,-.1,.1,-.1c.1,-.1,0,-.3,-.1,-.5c-.1,-.2,-.4,-.7,-.1,-1.4l.1,-.3l.1,.3c.1,.3,.3,.4,.4,.4c0,-.2,-.1,-.3,-.2,-.4c-.2,-.3,-.3,-.6,-.1,-1.3l.2,-.3v.4c.1,.3,.2,.4,.3,.5c0,-.1,.1,-.1,0,-.2c0,-.1,0,-.2,-.1,-.3c-.1,-.3,-.2,-.6,.1,-1.2l.1,-.3l.1,.3c0,.4,.1,.5,.2,.6c0,-.1,0,-.2,0,-.3v-.1c0,-.7,0,-1.5,.9,-1.8c.1,-.2,.2,-.7,.5,-.7c.4,0,.5,.5,.5,.7c.9,.3,.9,1.1,.9,1.8v.1c0,.1,.1,.2,.1,.3c0,-.1,.1,-.2,.2,-.6v-.3l.2,.3c.2,.6,.1,.9,0,1.2c0,.1,-.1,.2,-.1,.3c0,.1,0,.2,0,.2c.1,-.1,.2,-.2,.3,-.5l.1,-.4l.1,.3c.2,.7,.1,1,-.1,1.3c-.1,.1,-.1,.2,-.2,.4c0,0,0,.1,0,.1c.1,0,.3,-.2,.4,-.5l.1,-.3l.1,.3c.3,.7,.1,1.1,-.1,1.4c-.1,.2,-.1,.4,-.1,.5c0,0,.1,.1,.1,.1c.3,0,.5,-.3,.6,-.6c.1,-.2,.2,-.4,.4,-.4h.1Z" class="g17_67"/>
<path d="M422.6,402.7l.4,-.3V402q-.2,0,-.3,.2c-.1,-.3,-.3,-.5,-.6,-.7c-.3,.2,-.5,.4,-.6,.7q-.1,-.2,-.3,-.2v.4l.4,.3Z" class="g1_67"/>
<path d="M421.6,402.6h1l.3,-.3v-.2c-.1,0,-.1,.1,-.2,.1l-.1,.2v-.2c-.1,-.2,-.3,-.4,-.5,-.6c-.2,.2,-.4,.4,-.5,.6v.2l-.1,-.2q-.1,-.1,-.2,-.1v.2Zm1,.2h-1l-.5,-.4v-.5h.1c.1,0,.2,0,.3,.1c.1,-.3,.3,-.4,.5,-.6h.1c.3,.2,.5,.3,.6,.6c.1,-.1,.2,-.1,.3,-.1h.1v.5Z" class="g17_67"/>
<path d="M422.8,403.8l.2,-.4v-.6q-.2,.1,-.3,.2c-.1,-.2,-.3,-.5,-.6,-.6c-.3,.1,-.5,.3,-.6,.6q-.1,-.1,-.3,-.2v.6l.2,.4Z" class="g1_67"/>
<path d="M421.5,403.7h1.2l.2,-.3V403q-.1,0,-.2,.1l-.1,.2v-.2c-.1,-.3,-.3,-.5,-.5,-.6c-.2,.1,-.4,.3,-.5,.6v.2l-.1,-.2q-.1,-.1,-.2,-.1v.4Zm1.4,.2h-1.6l-.2,-.5v-.7h.1c.1,0,.2,.1,.3,.1c.1,-.2,.3,-.4,.5,-.5h.1c.3,.1,.5,.3,.6,.6c.1,-.1,.2,-.2,.3,-.2h.1v.7Z" class="g17_67"/>
<path d="M422.8,405.2l.6,-.7v-.7c-.2,0,-.3,.1,-.5,.4c-.1,-.5,-.4,-.6,-.8,-.9c-.4,.3,-.7,.4,-.8,.8c-.2,-.2,-.3,-.3,-.5,-.3v.7l.6,.7Z" class="g1_67"/>
<path d="M421.4,405.1h1.4l.5,-.6v-.6c-.1,.1,-.2,.2,-.3,.3l-.1,.2l-.1,-.2c-.1,-.4,-.3,-.5,-.6,-.7c0,0,-.1,0,-.1,0q-.1,0,-.1,0c-.3,.2,-.5,.3,-.6,.7l-.1,.2l-.1,-.2c-.1,-.2,-.2,-.2,-.3,-.3v.6Zm1.5,.2h-1.6l-.6,-.7v-.9h.1c.2,0,.3,.1,.4,.2c.2,-.3,.4,-.4,.7,-.5c0,-.1,.1,-.1,.1,-.2h.1q.1,.1,.2,.1c.3,.2,.5,.3,.7,.6c.1,-.1,.2,-.2,.4,-.2h.1v.9Z" class="g17_67"/>
<path d="M423,406.7c0,0,.7,-.6,.7,-1V405c-.2,0,-.5,.1,-.7,.4c-.2,-.6,-.4,-.8,-.9,-1.1c-.5,.3,-.8,.5,-.9,1.1c-.2,-.3,-.5,-.4,-.7,-.4v.7c0,.4,.7,1,.7,1Z" class="g1_67"/>
<path d="M421.2,406.6H423c.2,-.3,.6,-.7,.6,-.9v-.6c-.2,0,-.4,.1,-.5,.3l-.1,.2l-.1,-.2c-.1,-.5,-.3,-.7,-.8,-1c-.5,.3,-.7,.5,-.8,1l-.1,.2l-.1,-.2c-.2,-.2,-.3,-.3,-.5,-.3v.6c0,.3,.4,.7,.6,.9m1.8,.2h-1.9v-.1c-.1,0,-.6,-.6,-.7,-.9v-.9h.1c.2,0,.4,.1,.6,.3c.2,-.5,.5,-.7,.9,-1h.2c.4,.3,.7,.5,.9,1c.2,-.2,.4,-.3,.6,-.3h.1v.8c0,.4,-.7,1,-.7,1Z" class="g17_67"/>
<path d="M423.3,409.3c0,0,.9,-1.1,1,-1.5v-1.1c-.4,0,-.7,.3,-1,.7c-.2,-.9,-.6,-1.6,-1.2,-2.1c-.7,.5,-1,1.2,-1.2,2.1c-.3,-.4,-.6,-.7,-1,-.7v1.1c.1,.4,1,1.5,1,1.5Z" class="g1_67"/>
<path d="M420.9,409.2h2.3c.4,-.4,.9,-1.1,1,-1.4v-1c-.3,.1,-.6,.3,-.8,.7l-.1,.2l-.1,-.2c-.2,-1,-.5,-1.6,-1.1,-2.1c-.6,.5,-.9,1.1,-1.1,2.1l-.1,.2l-.1,-.2c-.2,-.4,-.5,-.6,-.8,-.7v1c.1,.3,.7,1.1,.9,1.4m2.4,.2h-2.5c-.1,-.2,-.9,-1.1,-1,-1.5v-1.4l.1,.1c.4,0,.7,.2,.9,.6c.3,-1,.6,-1.5,1.2,-2h.2c.5,.5,.9,1,1.2,2c.2,-.4,.5,-.6,.8,-.6l.2,-.1v1.3c-.1,.5,-.9,1.5,-1,1.6Z" class="g17_67"/>
<path d="M423.3,410.8c0,0,.8,-.8,1,-1.1v-1.2c-.4,0,-.7,.3,-1,.8c-.2,-1,-.6,-1.6,-1.2,-2c-.7,.4,-1,1,-1.2,2c-.3,-.5,-.6,-.8,-1,-.8v1.2c.2,.3,1,1.1,1,1.1Z" class="g1_67"/>
<path d="M420.9,410.7h2.4c.1,-.1,.7,-.7,.9,-1.1v-1c-.3,.1,-.6,.3,-.8,.7l-.1,.3l-.1,-.3c-.2,-.9,-.5,-1.5,-1.1,-1.9c-.6,.4,-.9,1,-1.1,1.9l-.1,.3l-.1,-.3c-.2,-.4,-.5,-.6,-.8,-.7v1c.2,.4,.8,1,.9,1.1m2.4,.2h-2.5c0,0,-.7,-.8,-1,-1.2v-1.3h.1c.4,0,.7,.2,.9,.6c.3,-.8,.6,-1.4,1.2,-1.8l.1,-.1l.1,.1c.6,.4,.9,1,1.2,1.8c.2,-.4,.5,-.6,.8,-.6h.2l-.1,1.3c-.1,.4,-.9,1.2,-.9,1.2Z" class="g17_67"/>
<path d="M423.6,411.7c-.2,-1,-.4,-1.7,-1.5,-2.5c-1.2,.8,-1.4,1.5,-1.6,2.5Z" class="g1_67"/>
<path d="M420.6,411.6h2.9c-.2,-.9,-.5,-1.6,-1.4,-2.3c-1,.7,-1.3,1.4,-1.5,2.3m3.1,.2h-3.3v-.1c.2,-.9,.4,-1.8,1.6,-2.6h.1c1.2,.8,1.4,1.7,1.6,2.6Z" class="g17_67"/>
<path d="M424.2,412.3v-1.5c-.5,.2,-1,.5,-1.1,.9c-.2,-.9,-.6,-1.2,-1.1,-1.7c-.4,.5,-.7,.8,-.9,1.7c-.2,-.4,-.7,-.7,-1.2,-.9v1.5Z" class="g1_67"/>
<path d="M420,412.2h4.1V411c-.5,.2,-.8,.5,-1,.7l-.1,.3v-.3c-.2,-.8,-.5,-1.1,-1,-1.6c-.4,.5,-.6,.8,-.8,1.6l-.1,.3l-.1,-.3c-.1,-.2,-.5,-.5,-1,-.7Zm4.3,.2h-4.5v-1.7h.2c.4,.2,.8,.5,1,.7c.2,-.7,.5,-1,1,-1.5v-.1l.2,.2c.4,.4,.7,.8,.9,1.4c.2,-.2,.6,-.5,1.1,-.7h.1Z" class="g17_67"/>
<path d="M417.2,407v4.8h.5V407c-.2,-.1,-.3,-.1,-.5,0Z" class="g1_67"/>
<path d="M417.3,411.7h.3V407c-.1,0,-.2,0,-.3,0Zm.5,.2h-.7v-5c.2,-.1,.4,-.2,.7,0Z" class="g17_67"/>
<path d="M417.2,410.1c.7,.3,1.4,.7,1.5,1.7h-1.5Z" class="g1_67"/>
<path d="M417.3,411.7h1.3c-.2,-.7,-.7,-1.1,-1.3,-1.4Zm1.6,.2h-1.8v-2l.2,.1c.7,.4,1.4,.8,1.5,1.8Z" class="g17_67"/>
<path d="M426.6,408.7v3.1h.5v-3.2c-.2,0,-.3,0,-.5,.1Z" class="g1_67"/>
<path d="M426.7,411.7h.3v-3c-.1,0,-.2,0,-.3,0Zm.5,.2h-.7v-3.3h.1c.1,-.1,.4,-.1,.5,0h.1Z" class="g17_67"/>
<path d="M427.1,410.1c-.7,.3,-1.4,.7,-1.5,1.7h1.5Z" class="g1_67"/>
<path d="M425.7,411.7H427v-1.5c-.6,.4,-1.1,.7,-1.3,1.5m1.5,.2h-1.8l.1,-.1c.1,-1,.8,-1.4,1.5,-1.8l.2,-.1Z" class="g17_67"/>
<path d="M459.7,407v4.8h-.6V407c.2,-.1,.4,-.1,.6,0Z" class="g1_67"/>
<path d="M459.2,411.7h.4V407c-.1,0,-.2,0,-.4,0Zm.6,.2H459v-5h.1c.3,-.2,.5,-.1,.7,0Z" class="g17_67"/>
<path d="M451.4,411.7v-6.3c.2,0,.3,1,.9,1c.3,0,.3,-.4,.1,-.7c-.2,-.3,-.4,-.7,-.1,-1.4c.2,.5,.7,.7,.6,.4c-.2,-.6,-.6,-.7,-.3,-1.6c.1,.7,.6,.7,.5,.3c-.1,-.5,-.4,-.7,-.1,-1.5c.2,.8,.5,.8,.5,.3c0,-.7,0,-1.5,.9,-1.8c0,0,.1,-.7,.4,-.7c.3,0,.4,.7,.4,.7c.9,.3,.9,1.1,.9,1.8c0,.5,.3,.5,.5,-.3c.3,.8,0,1,-.1,1.5c-.1,.4,.4,.4,.5,-.3c.3,.9,-.1,1,-.3,1.6c-.1,.3,.4,.1,.6,-.4c.3,.7,.1,1.1,-.1,1.4c-.2,.3,-.2,.7,.1,.7c.6,0,.7,-1,1,-1v6.3Z" class="g1_67"/>
<path d="M451.5,411.6h6.6v-5.9c0,0,0,.1,0,.1c-.2,.3,-.3,.7,-.8,.7c-.1,0,-.2,-.1,-.3,-.2c-.1,-.2,0,-.5,.1,-.7c.1,-.2,.3,-.5,.2,-1c-.2,.2,-.4,.4,-.6,.3c-.1,0,-.1,-.1,-.1,-.3c.1,-.2,.2,-.3,.2,-.4c.1,-.2,.3,-.4,.2,-.8c-.1,.2,-.2,.3,-.3,.4c-.1,0,-.2,0,-.2,-.1c-.1,-.1,-.1,-.2,-.1,-.4c0,-.1,.1,-.2,.1,-.3c.1,-.2,.2,-.4,.1,-.7c-.1,.3,-.2,.4,-.4,.4c0,0,-.2,-.1,-.2,-.5v-.1c0,-.7,0,-1.3,-.8,-1.6h-.1v-.1c0,-.1,-.1,-.6,-.3,-.6c-.2,0,-.3,.5,-.3,.6v.1h-.1c-.8,.3,-.8,.9,-.8,1.6v.1c0,.4,-.1,.5,-.2,.5c-.2,0,-.3,-.1,-.4,-.4c-.1,.3,0,.5,.1,.7c0,.1,.1,.2,.1,.3c.1,.2,0,.3,-.1,.4c0,.1,-.1,.1,-.2,.1c-.1,-.1,-.2,-.2,-.3,-.4c0,.4,.1,.6,.2,.8c.1,.1,.1,.2,.2,.4c0,.2,0,.3,-.1,.3c-.2,.1,-.4,-.1,-.6,-.3c-.1,.5,.1,.8,.2,1c.1,.2,.2,.5,.1,.7c-.1,.1,-.2,.2,-.3,.2c-.4,0,-.6,-.4,-.8,-.7c0,0,0,-.1,0,-.1Zm6.9,.3h-7.1v-6.6h.1c.1,0,.2,.2,.3,.4c.1,.3,.3,.6,.6,.6c.1,0,.1,-.1,.1,-.1c.1,-.1,0,-.3,-.1,-.5c-.1,-.2,-.4,-.7,-.1,-1.4l.1,-.3l.1,.3c.1,.3,.3,.4,.4,.4c0,-.2,-.1,-.3,-.2,-.4c-.2,-.3,-.3,-.6,-.1,-1.3l.2,-.3v.4c.1,.3,.2,.4,.3,.5c0,0,0,-.1,0,-.2c0,-.1,-.1,-.2,-.1,-.3c-.1,-.3,-.2,-.6,.1,-1.2l.1,-.3v.3c.1,.4,.2,.5,.3,.6c0,-.1,0,-.2,0,-.3v-.1c0,-.7,0,-1.5,.9,-1.8c0,-.2,.1,-.7,.5,-.7c.4,0,.5,.5,.5,.7c.9,.3,.9,1.1,.9,1.8v.1c0,.1,0,.2,.1,.3c0,-.1,.1,-.2,.2,-.6v-.3l.2,.3c.2,.6,.1,.9,0,1.2c0,.1,-.1,.2,-.1,.3c0,.1,0,.2,0,.2c.1,-.1,.2,-.2,.3,-.5v-.4l.2,.3c.2,.7,.1,1,-.1,1.3c-.1,.1,-.1,.2,-.2,.4c0,0,0,.1,0,.1c.1,0,.3,-.2,.4,-.5l.1,-.3l.1,.3c.3,.7,.1,1.2,-.1,1.4c-.1,.2,-.1,.4,-.1,.5c0,0,0,.1,.1,.1c.3,0,.5,-.3,.6,-.6c.1,-.2,.2,-.4,.4,-.4h.1Z" class="g17_67"/>
<path d="M455.3,402.7l.4,-.3V402q-.2,0,-.4,.2c0,-.3,-.2,-.5,-.5,-.7c-.3,.2,-.5,.4,-.6,.7c-.1,-.2,-.2,-.2,-.3,-.2v.4l.4,.3Z" class="g1_67"/>
<path d="M454.3,402.6h.9l.4,-.3v-.2c-.1,0,-.1,.1,-.2,.1l-.1,.2l-.1,-.2c0,-.2,-.2,-.4,-.4,-.6c-.2,.2,-.4,.4,-.5,.6v.2l-.2,-.2c0,-.1,-.1,-.1,-.1,-.1v.2Zm1,.2h-1l-.5,-.4v-.5h.1c.1,0,.2,0,.3,.1c.1,-.3,.3,-.4,.5,-.6h.1c.3,.2,.5,.3,.6,.6q.1,-.1,.3,-.1h.1v.5Z" class="g17_67"/>
<path d="M455.5,403.8l.2,-.4v-.6q-.2,.1,-.4,.2c0,-.2,-.2,-.5,-.5,-.6c-.3,.1,-.5,.3,-.6,.6c-.1,-.1,-.2,-.1,-.3,-.2v.6l.2,.4Z" class="g1_67"/>
<path d="M454.1,403.7h1.3l.2,-.3V403q-.1,0,-.2,.1l-.1,.2l-.1,-.2c0,-.3,-.2,-.5,-.4,-.6c-.2,.1,-.4,.3,-.5,.6v.2l-.2,-.2c0,-.1,-.1,-.1,-.1,-.1v.4Zm1.5,.2H454l-.2,-.5v-.7h.1c.1,0,.2,.1,.3,.1c.1,-.2,.3,-.4,.5,-.5h.1c.3,.1,.5,.3,.6,.6c.1,-.1,.1,-.2,.3,-.2h.1v.7Z" class="g17_67"/>
<path d="M455.5,405.2l.6,-.7v-.7c-.2,0,-.3,.1,-.5,.4c-.1,-.5,-.4,-.6,-.8,-.9c-.4,.3,-.7,.4,-.8,.8c-.2,-.2,-.3,-.3,-.5,-.3v.7l.5,.7Z" class="g1_67"/>
<path d="M454.1,405.1h1.4l.5,-.6v-.6c-.1,.1,-.2,.2,-.3,.3l-.1,.2l-.1,-.2c-.1,-.4,-.3,-.5,-.6,-.7c0,0,-.1,0,-.1,0q-.1,0,-.1,0c-.3,.2,-.5,.3,-.6,.7l-.1,.2l-.1,-.2c-.1,-.2,-.2,-.2,-.3,-.3v.6Zm1.5,.2H454l-.6,-.7v-.9h.1c.2,0,.3,.1,.4,.2c.2,-.3,.4,-.4,.7,-.5c0,-.1,.1,-.1,.1,-.2h.1q.1,.1,.2,.1c.3,.2,.5,.3,.6,.6c.2,-.1,.3,-.2,.5,-.2h.1v.9Z" class="g17_67"/>
<path d="M455.7,406.7c0,0,.7,-.6,.7,-1V405c-.2,0,-.5,.1,-.7,.4c-.2,-.6,-.4,-.8,-.9,-1.1c-.5,.3,-.8,.5,-.9,1.1c-.2,-.3,-.5,-.4,-.7,-.4v.7c0,.4,.7,1,.7,1Z" class="g1_67"/>
<path d="M453.9,406.6h1.8c.2,-.3,.6,-.7,.6,-.9v-.6c-.2,0,-.4,.1,-.5,.3l-.1,.2l-.1,-.2c-.1,-.5,-.4,-.7,-.8,-1c-.5,.3,-.7,.5,-.8,1l-.1,.2l-.1,-.2c-.2,-.2,-.3,-.3,-.5,-.3v.6c0,.3,.4,.7,.6,.9m1.8,.2h-1.9v-.1c-.1,0,-.7,-.6,-.7,-.9l-.1,-.1v-.8h.2c.2,0,.4,.1,.6,.3c.2,-.5,.5,-.7,.9,-1h.1c.5,.3,.8,.5,.9,1c.2,-.2,.5,-.3,.7,-.3h.1v.8c0,.4,-.7,1,-.7,1Z" class="g17_67"/>
<path d="M456,409.3c0,0,.9,-1.1,.9,-1.5v-1.1c-.3,0,-.6,.3,-.9,.7c-.2,-.9,-.6,-1.6,-1.2,-2.1c-.7,.5,-1,1.2,-1.2,2.1c-.3,-.4,-.6,-.7,-1,-.7v1.1c.1,.4,1,1.5,1,1.5Z" class="g1_67"/>
<path d="M453.6,409.2h2.3c.4,-.4,.9,-1.1,.9,-1.4v-1c-.2,.1,-.5,.3,-.7,.7l-.1,.2l-.1,-.2c-.2,-1,-.6,-1.6,-1.1,-2.1c-.6,.5,-.9,1.1,-1.1,2.1l-.1,.2l-.1,-.2c-.2,-.4,-.5,-.6,-.8,-.7v1c.1,.3,.7,1.1,.9,1.4m2.4,.2h-2.5c-.1,-.2,-.9,-1.1,-1,-1.5v-1.4l.1,.1c.4,0,.7,.2,.9,.6c.3,-1,.6,-1.5,1.2,-2h.1c.6,.5,1,1,1.2,2c.3,-.4,.6,-.6,.9,-.6l.1,-.1v1.3c0,.5,-.8,1.5,-.9,1.6Z" class="g17_67"/>
<path d="M456,410.8c0,0,.8,-.8,.9,-1.1v-1.2c-.3,0,-.6,.3,-.9,.8c-.2,-1,-.6,-1.6,-1.2,-2c-.7,.4,-1,1,-1.2,2c-.3,-.5,-.6,-.8,-1,-.8v1.2c.2,.3,1,1.1,1,1.1Z" class="g1_67"/>
<path d="M453.6,410.7h2.3c.2,-.1,.8,-.7,.9,-1.1v-1c-.2,.1,-.5,.3,-.7,.7l-.1,.3l-.1,-.3c-.2,-.9,-.5,-1.5,-1.1,-1.9c-.6,.4,-.9,1,-1.1,1.9l-.1,.3l-.1,-.3c-.2,-.4,-.5,-.6,-.8,-.7v1c.2,.4,.8,1,.9,1.1m2.4,.2h-2.5c0,0,-.8,-.8,-1,-1.2v-1.3h.1c.4,0,.7,.2,.9,.6c.3,-.8,.6,-1.4,1.2,-1.8l.1,-.1v.1c.7,.4,1,1,1.2,1.8c.3,-.4,.6,-.6,.9,-.6h.1v1.3c-.1,.4,-.9,1.2,-.9,1.2Z" class="g17_67"/>
<path d="M456.3,411.7c-.2,-1,-.4,-1.7,-1.6,-2.5c-1.1,.8,-1.3,1.5,-1.5,2.5Z" class="g1_67"/>
<path d="M453.3,411.6h2.9c-.3,-.9,-.5,-1.6,-1.5,-2.3c-.9,.7,-1.2,1.4,-1.4,2.3m3.1,.2H453l.1,-.1c.2,-.9,.4,-1.8,1.6,-2.6h.1c1.2,.8,1.4,1.7,1.6,2.6Z" class="g17_67"/>
<path d="M459.7,410.1c-.7,.3,-1.3,.7,-1.5,1.7h1.5Z" class="g1_67"/>
<path d="M458.4,411.7h1.2v-1.4c-.6,.3,-1.1,.6,-1.2,1.4m1.4,.2h-1.7v-.1c.2,-1,.9,-1.5,1.5,-1.8l.2,-.1Z" class="g17_67"/>
<path d="M450.2,408.7v3.1h-.4v-3.2c.1,0,.3,0,.4,.1Z" class="g1_67"/>
<path d="M449.9,411.7h.2v-3c0,0,-.1,0,-.2,0Zm.5,.2h-.7v-3.3h.1c.1,-.1,.4,-.1,.5,0h.1Z" class="g17_67"/>
<path d="M449.8,410.1c.7,.3,1.4,.7,1.5,1.7h-1.5Z" class="g1_67"/>
<path d="M449.9,411.7h1.3c-.2,-.7,-.7,-1.1,-1.3,-1.4Zm1.6,.2h-1.8v-2l.2,.1c.7,.4,1.4,.8,1.5,1.8Z" class="g17_67"/>
<path d="M450.2,408.7v3.1h-.4v-3.2c.1,0,.3,0,.4,.1Z" class="g1_67"/>
<path d="M449.9,411.7h.2v-3c0,0,-.1,0,-.2,0Zm.5,.2h-.7v-3.3h.1c.1,-.1,.4,-.1,.5,0h.1Z" class="g17_67"/>
<path d="M449.8,410.1c.7,.3,1.4,.7,1.5,1.7h-1.5Z" class="g1_67"/>
<path d="M449.9,411.7h1.3c-.2,-.7,-.7,-1.1,-1.3,-1.4Zm1.6,.2h-1.8v-2l.2,.1c.7,.4,1.4,.8,1.5,1.8Z" class="g17_67"/>
<path d="M442.3,405.8c0,-1.2,1.1,-1.4,1.1,-1.4v1.1c-.4,0,-.6,.4,-.6,.9c0,.5,.3,.6,.3,.6v3.1h-.8Z" class="g1_67"/>
<path d="M442.4,410h.6v-3c-.1,0,-.3,-.2,-.3,-.6c0,-.4,.1,-.7,.2,-.8c.1,-.1,.2,-.2,.4,-.2v-.8c-.3,0,-.9,.3,-.9,1.2Zm.8,.2h-1v-4.4c0,-1.3,1.1,-1.5,1.2,-1.5h.1v1.3h-.1c-.2,0,-.3,.1,-.3,.1c-.2,.2,-.2,.4,-.2,.7c0,.4,.2,.5,.2,.5h.1v.1Z" class="g17_67"/>
<path d="M434.5,405.8c0,-1.2,-1.1,-1.4,-1.1,-1.4v1.1c.4,0,.6,.4,.6,.9c0,.5,-.3,.6,-.3,.6v3.1h.8Z" class="g1_67"/>
<path d="M433.8,410h.6v-4.2c0,-.9,-.6,-1.2,-.9,-1.2v.8c.2,0,.3,.1,.4,.2c.1,.1,.2,.4,.2,.8c0,.4,-.2,.6,-.3,.6Zm.8,.2h-1v-3.3h.1c0,0,.2,-.1,.2,-.5c0,-.3,-.1,-.5,-.2,-.7c-.1,0,-.2,-.1,-.3,-.1h-.1v-1.3h.1c0,0,1.2,.2,1.2,1.5Z" class="g17_67"/>
<path d="M456.9,412.3v-1.5c-.5,.2,-1,.5,-1.1,.8c-.2,-.8,-.6,-1.1,-1.1,-1.6c-.4,.5,-.7,.8,-.9,1.6c-.2,-.3,-.6,-.6,-1.2,-.8v1.5Z" class="g1_67"/>
<path d="M452.7,412.2h4.1V411c-.5,.2,-.8,.4,-.9,.7l-.2,.2v-.2c-.2,-.8,-.5,-1.1,-1,-1.6c-.4,.5,-.6,.8,-.8,1.6l-.1,.2l-.1,-.2c-.1,-.3,-.5,-.5,-1,-.7Zm4.3,.2h-4.5v-1.7h.2c.5,.2,.8,.4,1,.7c.2,-.7,.5,-1,1,-1.5v-.1l.2,.2c.4,.4,.7,.7,.9,1.4c.2,-.3,.6,-.5,1.1,-.7h.1Z" class="g17_67"/>
<path d="M411.6,427.1h53.6v-2.8H411.6v2.8Z" class="g1_67"/>
<path d="M411.7,427h53.4v-2.6H411.7V427Zm53.6,.2H411.5v-3h53.8v3Z" class="g17_67"/>
<path d="M410.2,429.8h56.4v-2.7H410.2v2.7Z" class="g1_67"/>
<path d="M410.3,429.7h56.2v-2.5H410.3v2.5Zm56.4,.2H410.1V427h56.6v2.9Z" class="g17_67"/>
<path d="M414.5,422h47.9v-1.7H414.5V422Z" class="g1_67"/>
<path d="M414.6,421.9h47.7v-1.6H414.6v1.6Zm47.9,.2H414.4v-2h48.1v2Z" class="g17_67"/>
<path d="M413.1,424.3h50.7V422H413.1v2.3Z" class="g1_67"/>
<path d="M413.2,424.2h50.5v-2.1H413.2v2.1Zm50.7,.2H413v-2.5h50.9v2.5Z" class="g17_67"/>
<path d="M415.3,420.2h46.3v-1.3H415.3v1.3Z" class="g1_67"/>
<path d="M415.4,420.1h46.1V419H415.4v1.1Zm46.3,.2H415.2v-1.5h46.5v1.5Z" class="g17_67"/>
<path d="M420.3,429.8h3.5V418.9h-3.5v10.9Z" class="g1_67"/>
<path d="M420.4,429.7h3.3V419h-3.3v10.7Zm3.5,.2h-3.7V418.8h3.7v11.1Z" class="g17_67"/>
<path d="M421.1,429.8H423V418.9h-1.9v10.9Z" class="g1_67"/>
<path d="M421.2,429.7h1.7V419h-1.7v10.7Zm1.9,.2H421V418.8h2.1v11.1Z" class="g17_67"/>
<path d="M421.1,420.3h2v-.2h-2v.2Z" class="g17_67"/>
<path d="M421.1,421.7h2v-.2h-2v.2Z" class="g17_67"/>
<path d="M421.1,423.1h2v-.2h-2v.2Z" class="g17_67"/>
<path d="M421.1,424.4h2v-.2h-2v.2Z" class="g17_67"/>
<path d="M421.1,425.8h2v-.2h-2v.2Z" class="g17_67"/>
<path d="M421.1,427.2h2V427h-2v.2Z" class="g17_67"/>
<path d="M421.1,428.5h2v-.2h-2v.2Z" class="g17_67"/>
<path d="M436.6,418.9h3.5v10.9h-3.5Z" class="g1_67"/>
<path d="M436.7,429.7H440V419h-3.3v10.7Zm3.5,.2h-3.7V418.8h3.7v11.1Z" class="g17_67"/>
<path d="M437.4,429.8h2V418.9h-2v10.9Z" class="g1_67"/>
<path d="M437.5,429.7h1.8V419h-1.8v10.7Zm2,.2h-2.2V418.8h2.2v11.1Z" class="g17_67"/>
<path d="M437.4,420.3h1.9v-.2h-1.9v.2Z" class="g17_67"/>
<path d="M437.4,421.7h1.9v-.2h-1.9v.2Z" class="g17_67"/>
<path d="M437.4,423.1h1.9v-.2h-1.9v.2Z" class="g17_67"/>
<path d="M437.4,424.4h1.9v-.2h-1.9v.2Z" class="g17_67"/>
<path d="M437.4,425.8h1.9v-.2h-1.9v.2Z" class="g17_67"/>
<path d="M437.4,427.2h1.9V427h-1.9v.2Z" class="g17_67"/>
<path d="M437.4,428.5h1.9v-.2h-1.9v.2Z" class="g17_67"/>
<path d="M453,429.8h3.5V418.9H453v10.9Z" class="g1_67"/>
<path d="M453.1,429.7h3.3V419h-3.3v10.7Zm3.5,.2h-3.7V418.8h3.7v11.1Z" class="g17_67"/>
<path d="M453.8,429.8h1.9V418.9h-1.9v10.9Z" class="g1_67"/>
<path d="M453.9,429.7h1.7V419h-1.7v10.7Zm2,.2h-2.2V418.8h2.2v11.1Z" class="g17_67"/>
<path d="M453.8,420.3h2v-.2h-2v.2Z" class="g17_67"/>
<path d="M453.8,421.7h2v-.2h-2v.2Z" class="g17_67"/>
<path d="M453.8,423.1h2v-.2h-2v.2Z" class="g17_67"/>
<path d="M453.8,424.4h2v-.2h-2v.2Z" class="g17_67"/>
<path d="M453.8,425.8h2v-.2h-2v.2Z" class="g17_67"/>
<path d="M453.8,427.2h2V427h-2v.2Z" class="g17_67"/>
<path d="M453.8,428.5h2v-.2h-2v.2Z" class="g17_67"/>
<path d="M427.9,417.8h.7v-3.6h-.7v3.6Z" class="g1_67"/>
<path d="M428,417.7h.5v-3.4H428v3.4Zm.6,.2h-.7l-.1,-.1v-3.6l.1,-.1h.7l.1,.1v3.6Z" class="g17_67"/>
<path d="M429.5,417.8h.8v-3.6h-.8v3.6Z" class="g1_67"/>
<path d="M429.6,417.7h.6v-3.4h-.6v3.4Zm.7,.2h-.8l-.1,-.1v-3.6l.1,-.1h.8l.1,.1v3.6Z" class="g17_67"/>
<path d="M431.1,417.8h.8v-3.6h-.8v3.6Z" class="g1_67"/>
<path d="M431.2,417.7h.6v-3.4h-.6v3.4Zm.7,.2h-.8l-.1,-.1v-3.6l.1,-.1h.8l.1,.1v3.6Z" class="g17_67"/>
<path d="M444.9,417.8h.7v-3.6h-.7v3.6Z" class="g1_67"/>
<path d="M445,417.7h.5v-3.4H445v3.4Zm.6,.2h-.7l-.2,-.1v-3.6l.2,-.1h.7l.1,.1v3.6Z" class="g17_67"/>
<path d="M446.5,417.8h.8v-3.6h-.8v3.6Z" class="g1_67"/>
<path d="M446.6,417.7h.6v-3.4h-.6v3.4Zm.7,.2h-.8l-.1,-.1v-3.6l.1,-.1h.8l.1,.1v3.6Z" class="g17_67"/>
<path d="M448.1,417.8h.8v-3.6h-.8v3.6Z" class="g1_67"/>
<path d="M448.2,417.7h.6v-3.4h-.6v3.4Zm.7,.2h-.8l-.1,-.1v-3.6l.1,-.1h.8l.1,.1v3.6Z" class="g17_67"/>
<path d="M436.8,396.2l-.1,-.7h3.4l-.1,.7Z" class="g1_67"/>
<path d="M436.9,396.1H440v-.5h-3.2Zm3.2,.2h-3.4l-.1,-.9h3.7Z" class="g17_67"/>
<path d="M437,395.5l-.1,-.6h3l-.1,.6Z" class="g1_67"/>
<path d="M437.1,395.4h2.6l.1,-.4H437Zm2.8,.2h-3l-.1,-.8H440Z" class="g17_67"/>
<path d="M437.5,394.9l-.1,-.6h2l-.1,.6Z" class="g1_67"/>
<path d="M437.6,394.8h1.7v-.4h-1.8Zm1.8,.2h-2l-.1,-.8h2.2Z" class="g17_67"/>
<path d="M374.8,451.9H501.9V370H374.8v81.9Z" class="g3_67"/>
<path d="M32.1,45.1H9.2m958.3,0h22.9M32.1,1331.3H9.2m958.3,0h22.9M45.1,32.1V9.2m0,1335.1v22.9M954.5,32.1V9.2m0,1335.1v22.9" class="g18_67"/>
<path d="M32.1,45.1H9.2m958.3,0h22.9M32.1,1331.3H9.2m958.3,0h22.9M45.1,32.1V9.2m0,1335.1v22.9M954.5,32.1V9.2m0,1335.1v22.9" class="g19_67"/>
<path d="M27.5,32.1H0m972.1,0h27.5M27.5,1344.3H0m972.1,0h27.5M32.1,27.5V0m0,1348.9v27.5M967.5,27.5V0m0,1348.9v27.5" class="g18_67"/>
<path d="M27.5,32.1H0m972.1,0h27.5M27.5,1344.3H0m972.1,0h27.5M32.1,27.5V0m0,1348.9v27.5M967.5,27.5V0m0,1348.9v27.5" class="g19_67"/>
</svg>