<?xml version="1.0" encoding="UTF-8" standalone="no"?>
<!DOCTYPE svg PUBLIC "-//W3C//DTD SVG 1.1//EN"
"http://www.w3.org/Graphics/SVG/1.1/DTD/svg11.dtd">
<svg viewBox="0 0 999 1376" version="1.1" xmlns="http://www.w3.org/2000/svg" xmlns:xlink="http://www.w3.org/1999/xlink">
<defs>
<clipPath id="c0_253"><path d="M153.3,959.5V130.6H867.9V959.5Z"/></clipPath>
<clipPath id="c1_253"><path d="M236.5,719.4V569.6H781.8V719.4Z"/></clipPath>
<clipPath id="c2_253"><path d="M236.5,906.6V758.8H781.8V906.6Z"/></clipPath>
<style type="text/css"><![CDATA[
.g0_253{
fill: #FFF;
}
.g1_253{
fill: none;
stroke: #231F20;
stroke-width: 0.756;
stroke-miterlimit: 3;
}
.g2_253{
fill: #6381B7;
}
.g3_253{
fill: none;
stroke: #6381B7;
stroke-width: 0.381;
stroke-dasharray: 2,1;
}
.g4_253{
fill: none;
stroke: #6381B7;
stroke-width: 0.381;
}
.g5_253{
fill: #25408F;
}
.g6_253{
fill: #FFDE2C;
}
.g7_253{
fill: none;
stroke: #231F20;
stroke-width: 1.451;
stroke-miterlimit: 10;
}
.g8_253{
fill: #D2D3D5;
}
.g9_253{
fill: #A8AAAD;
}
.ga_253{
fill: none;
stroke: #231F20;
stroke-width: 0.828;
stroke-miterlimit: 10;
}
.gb_253{
fill: #6CCFF6;
}
.gc_253{
fill: none;
stroke: #231F20;
stroke-width: 0.828;
stroke-linecap: round;
stroke-linejoin: round;
}
.gd_253{
fill: none;
stroke: #231F20;
stroke-width: 1.451;
stroke-linecap: round;
stroke-linejoin: round;
}
.ge_253{
fill: #FEF9EC;
}
.gf_253{
fill: none;
stroke: #FECD4E;
stroke-width: 1.527;
stroke-linecap: round;
stroke-linejoin: round;
stroke-dasharray: 0,5;
}
.gg_253{
fill: none;
stroke: #FECD4E;
stroke-width: 1.527;
stroke-linecap: round;
stroke-linejoin: round;
}
.gh_253{
fill: #FECD4E;
}
.gi_253{
fill: #FFE3A6;
}
.gj_253{
fill: #F37B69;
}
.gk_253{
fill: #3D3B39;
}
.gl_253{
fill: none;
stroke: #FFF;
stroke-width: 1.909;
stroke-miterlimit: 10;
}
.gm_253{
fill: none;
stroke: #000;
stroke-width: 0.381;
stroke-miterlimit: 10;
}
]]></style>
</defs>
<path d="M153.3,959.5H867.9V130.6H153.3V959.5Z" class="g0_253"/>
<image clip-path="url(#c0_253)" preserveAspectRatio="none" x="151" y="128" width="719" height="834" xlink:href="img/1.jpg"/>
<path d="M352.7,184.9v9.3c0,.3,-.1,.4,-.2,.6c-.1,.1,-.3,.2,-.5,.2H340.2c-.9,0,-1.6,-.2,-2.1,-.5c-.4,-.3,-.6,-1,-.6,-1.9v-7.7h2.2V188h10.7v-3.1h2.3ZM333.8,170.7h8.6c.4,0,.7,0,1,.2c.2,.1,.4,.3,.5,.5c0,.2,.1,.5,.1,.7c0,.2,0,.5,0,.7c-.2,.7,-.5,1.5,-.9,2.2c-.4,.8,-.8,1.6,-1.4,2.3c.6,.1,1.2,.3,1.6,.6c.4,.2,.7,.5,1,.9c.4,.4,.8,.9,1.3,1.5c.4,.5,.9,1,1.2,1.5l-1.4,1.4c-.3,-.3,-.5,-.6,-.7,-.8c-.2,-.3,-.4,-.5,-.6,-.8c-.2,-.2,-.4,-.5,-.6,-.7c-.2,-.2,-.4,-.5,-.7,-.8c-.3,-.3,-.6,-.6,-1,-.8c-.3,-.3,-.8,-.5,-1.3,-.6c-.9,.9,-1.9,1.8,-3,2.6c-1.1,.8,-2.3,1.5,-3.5,2.1l-1,-1.9c2.3,-1.1,4.1,-2.3,5.5,-3.7c1.3,-1.3,2.4,-2.9,3.1,-4.6c.1,-.3,.1,-.4,0,-.6c-.1,-.1,-.3,-.2,-.6,-.2h-7.2v-1.7Zm16.6,22.5v-3.4H339.7v2.7c0,.2,.1,.4,.2,.5c.1,.1,.3,.2,.5,.2h10Zm2.3,-9.7h-2.3V170.3h2.3v13.2Zm7.5,11.5c-.6,0,-1.1,-.2,-1.3,-.5c-.3,-.3,-.4,-.7,-.4,-1.1V189h13.4v-2.4H358.5v-1.8h14.1c.6,0,1.1,.1,1.3,.4c.2,.3,.3,.7,.3,1.3l-.4,3.4c0,.4,-.1,.6,-.3,.7c-.2,.1,-.4,.1,-.7,.1H360.7v2.5h7.9c.8,0,1.7,-.1,2.8,-.1c1,-.1,2,-.3,3,-.7l.4,1.7c-.9,.3,-1.9,.6,-3,.7c-1,.1,-2,.2,-3.1,.2h-8.5Zm16.9,-12.8H355.8v-1.7h21.3v1.7Zm-16,-6.5c0,.3,.1,.5,.2,.7c.1,.1,.3,.1,.6,.1h5.3c1.2,0,2.3,0,3.5,-.2c1.1,-.1,2.2,-.3,3.3,-.6l.4,1.7c-1.2,.3,-2.4,.6,-3.6,.7c-1.3,.1,-2.5,.2,-3.6,.2h-5.6c-1,0,-1.6,-.2,-2.1,-.6c-.4,-.4,-.6,-1,-.6,-1.8v-5.7h14.8V172H361.1v3.7Zm38.4,17.4h-2.3V170.5h2.3v22.6Zm-7.1,-11.2c-.3,.9,-.8,1.7,-1.4,2.3c-.6,.7,-1.3,1.2,-2.1,1.6c-.9,.3,-1.8,.5,-2.9,.5c-1,0,-2,-.2,-2.8,-.5c-.9,-.4,-1.6,-.9,-2.2,-1.6c-.5,-.6,-1,-1.4,-1.3,-2.3c-.3,-.9,-.5,-1.8,-.5,-2.8c0,-1,.2,-2,.5,-2.9c.3,-.9,.8,-1.7,1.3,-2.3c.6,-.7,1.3,-1.2,2.2,-1.6c.8,-.3,1.8,-.5,2.8,-.5c1.1,0,2,.2,2.9,.5c.8,.4,1.5,.9,2.1,1.6c.6,.6,1.1,1.4,1.4,2.3c.3,.9,.5,1.9,.5,2.9c0,1,-.2,1.9,-.5,2.8ZM390.3,177c-.3,-.6,-.5,-1.2,-.9,-1.7c-.4,-.5,-.9,-.9,-1.4,-1.2c-.6,-.3,-1.3,-.4,-2,-.4c-.7,0,-1.4,.1,-1.9,.4c-.6,.3,-1.1,.7,-1.4,1.2c-.4,.5,-.7,1.1,-.9,1.7c-.2,.7,-.3,1.3,-.3,2.1c0,.7,.1,1.4,.3,2c.2,.7,.5,1.2,.9,1.7c.3,.5,.8,.9,1.4,1.2c.5,.3,1.2,.4,1.9,.4c.7,0,1.4,-.1,2,-.4c.5,-.3,1,-.7,1.4,-1.2c.4,-.5,.6,-1,.9,-1.7c.2,-.6,.3,-1.3,.3,-2c0,-.8,-.1,-1.4,-.3,-2.1Zm25.9,-6.7c.3,.5,.4,1.1,.5,1.9c.1,.7,.1,1.4,.1,2.1c0,.4,0,.8,0,1.2c-.1,.4,-.2,.8,-.2,1.1c.9,.2,1.6,.5,2,.9c.5,.4,.9,.7,1.1,1.1c.2,.4,.4,.8,.7,1.2c.2,.4,.5,.8,.7,1.2c.3,.4,.5,.8,.7,1.2c.3,.4,.5,.7,.7,1.1l-1.8,1.1c-.4,-.7,-.9,-1.6,-1.4,-2.4c-.5,-.9,-1,-1.7,-1.4,-2.3c-.2,-.3,-.5,-.6,-.8,-.8c-.3,-.2,-.7,-.4,-1.1,-.5c-.2,.3,-.3,.7,-.5,1c-.2,.3,-.4,.6,-.6,.9c-.6,.8,-1.3,1.6,-2.1,2.3c-.7,.7,-1.6,1.4,-2.5,2.1L409,183c.9,-.7,1.7,-1.3,2.4,-1.9c.7,-.6,1.2,-1.3,1.7,-2c.5,-.7,.8,-1.4,1.1,-2.2c.2,-.8,.3,-1.6,.3,-2.6c0,-.4,0,-1,-.1,-1.6c-.1,-.7,-.2,-1.2,-.4,-1.7l2.2,-.7Zm5.3,5.6h5.3v-5.6H429v16.8h-2.2v-9.4h-5.3v-1.8Zm-5.4,18.8c-.8,0,-1.4,-.2,-1.8,-.6c-.4,-.4,-.6,-.9,-.6,-1.6v-6.3H416v5.9c0,.3,0,.5,.1,.6c.1,.1,.3,.2,.7,.2h7.1c1.1,0,2,-.1,2.9,-.2c.8,-.1,1.7,-.3,2.6,-.7l.5,1.8c-1,.3,-2,.5,-3,.7c-.9,.1,-1.9,.2,-2.9,.2h-7.9Zm20.5,.3c-.7,0,-1.1,-.2,-1.4,-.5c-.2,-.3,-.3,-.7,-.3,-1.1V189h13.3v-2.4H434.9v-1.8h6.5v-2.4h-9.2v-1.8h21.3v1.8h-9.8v2.4h5.2c.7,0,1.1,.1,1.3,.4c.3,.3,.4,.7,.3,1.3l-.4,3.4c0,.4,-.1,.6,-.3,.7c-.1,.1,-.4,.1,-.7,.1h-12v2.5h7.8c.8,0,1.8,-.1,2.8,-.1c1,-.1,2,-.3,3,-.7l.5,1.7c-1,.3,-2,.6,-3,.7c-1,.1,-2.1,.2,-3.1,.2h-8.5Zm13.7,-17.9c-.8,.3,-1.8,.7,-2.9,1c-1.1,.3,-2.2,.4,-3.3,.4h-6.3c-1,0,-1.7,-.2,-2.2,-.5c-.4,-.4,-.6,-.9,-.6,-1.7v-6.1h15.3v6.9Zm-13,-1c0,.2,0,.4,.1,.5c.1,.1,.2,.2,.5,.2H444c.6,0,1.3,-.1,2,-.2c.8,-.2,1.5,-.4,2.1,-.6v-4H437.3v4.1Z" class="g1_253"/>
<path d="M703.7,1219.2c0,0,-4.3,0,-4.3,4.3v10.8c0,0,0,4.3,4.3,4.3H734c0,0,4.4,0,4.4,-4.3v-10.8c0,0,0,-4.3,-4.4,-4.3Z" class="g2_253"/>
<path d="M690.5,1210.3v37.6m1.4,.9H866.8m.9,-1.3v-37.6m-1.3,-.9H691.5" class="g3_253"/>
<path d="M690.5,1248.3v.5h.6m176.1,0h.5v-.5m0,-38.8v-.5h-.5m-176.1,0h-.6v.5" class="g4_253"/>
<image clip-path="url(#c1_253)" preserveAspectRatio="none" x="237" y="570" width="545" height="151" xlink:href="img/2.png"/>
<image clip-path="url(#c2_253)" preserveAspectRatio="none" x="237" y="757" width="545" height="150" xlink:href="img/3.png"/>
<path d="M153.3,126.3v22.2L165,158.7V136.5Z" class="g5_253"/>
<path d="M153.3,109.5v39H851.1c0,0,16.8,0,16.8,-16.8v-5.4c0,0,0,-16.8,-16.8,-16.8Z" class="g2_253"/>
<path d="M207.2,115.7c0,-9.1,-7.9,-16.6,-17.7,-16.6c-9.8,0,-17.7,7.5,-17.7,16.6c0,2.7,.6,5.2,1.8,7.4c1.2,2.4,2.9,4.6,5,6.2c1.2,1,1.6,1.7,1.7,4.3v.6c0,3.3,2.7,5.9,5.9,5.9h6.6c3.2,0,5.8,-2.6,5.8,-5.9v-.6c.2,-2.6,.6,-3.3,1.8,-4.3c2.1,-1.6,3.8,-3.8,5,-6.2c1.2,-2.2,1.8,-4.7,1.8,-7.4Z" class="g6_253"/>
<path d="M207.2,115.7c0,-9.1,-7.9,-16.6,-17.7,-16.6c-9.8,0,-17.7,7.5,-17.7,16.6c0,2.7,.6,5.2,1.8,7.4c1.2,2.4,2.9,4.6,5,6.2c1.2,1,1.6,1.7,1.7,4.3v.6c0,3.3,2.7,5.9,5.9,5.9h6.6c3.2,0,5.8,-2.6,5.8,-5.9v-.6c.2,-2.6,.6,-3.3,1.8,-4.3c2.1,-1.6,3.8,-3.8,5,-6.2c1.2,-2.2,1.8,-4.7,1.8,-7.4Z" class="g7_253"/>
<path d="M194.6,147.4c0,2.8,-2.3,5.1,-5.1,5.1c-2.8,0,-5.1,-2.3,-5.1,-5.1c0,-2.8,2.3,-5.1,5.1,-5.1c2.8,0,5.1,2.3,5.1,5.1Z" class="g0_253"/>
<path d="M194.6,147.4c0,2.8,-2.3,5.1,-5.1,5.1c-2.8,0,-5.1,-2.3,-5.1,-5.1c0,-2.8,2.3,-5.1,5.1,-5.1c2.8,0,5.1,2.3,5.1,5.1Z" class="g7_253"/>
<path d="M182.1,140.2c0,1,.8,1.8,1.8,1.8h11.2c1,0,1.8,-.8,1.8,-1.8v-1.3H182.1Z" class="g0_253"/>
<path d="M182.1,140.2c0,1,.8,1.8,1.8,1.8h11.2c1,0,1.8,-.8,1.8,-1.8v-1.3H182.1v1.3Z" class="g7_253"/>
<path d="M196.9,143.2c0,.8,-.6,1.3,-1.3,1.3H183.4c-.8,0,-1.3,-.5,-1.3,-1.3c0,-.7,.5,-1.3,1.3,-1.3h12.2c.7,0,1.3,.6,1.3,1.3Z" class="g0_253"/>
<path d="M196.9,143.2c0,.8,-.6,1.3,-1.3,1.3H183.4c-.8,0,-1.3,-.5,-1.3,-1.3c0,-.7,.5,-1.3,1.3,-1.3h12.2c.7,0,1.3,.6,1.3,1.3Z" class="g7_253"/>
<path d="M196.9,145.8c0,.7,-.6,1.3,-1.3,1.3H183.4c-.8,0,-1.3,-.6,-1.3,-1.3c0,-.7,.5,-1.3,1.3,-1.3h12.2c.7,0,1.3,.6,1.3,1.3Z" class="g0_253"/>
<path d="M196.9,145.8c0,.7,-.6,1.3,-1.3,1.3H183.4c-.8,0,-1.3,-.6,-1.3,-1.3c0,-.7,.5,-1.3,1.3,-1.3h12.2c.7,0,1.3,.6,1.3,1.3Z" class="g7_253"/>
<path d="M215.5,128.7l8.3,10.4c.6,.7,1.8,.6,2.7,-.2c.9,-.7,1.2,-1.9,.7,-2.6l-8.9,-10.2Z" class="g8_253"/>
<path d="M215.5,128.7l8.3,10.4c.6,.7,1.8,.6,2.7,-.2c.9,-.7,1.2,-1.9,.7,-2.6l-8.9,-10.2l-2.8,2.6Z" class="g7_253"/>
<path d="M217.5,125.1c.5,.6,.3,1.8,-.7,2.6c-.9,.7,-2.1,.8,-2.6,.2c-.6,-.7,-.3,-1.9,.6,-2.6c.9,-.8,2.1,-.9,2.7,-.2Z" class="g9_253"/>
<path d="M217.5,125.1c.5,.6,.3,1.8,-.7,2.6c-.9,.7,-2.1,.8,-2.6,.2c-.6,-.7,-.3,-1.9,.6,-2.6c.9,-.8,2.1,-.9,2.7,-.2Z" class="g7_253"/>
<path d="M212.7,124.7l1.7,2c.3,.3,1,.3,1.5,-.1c.5,-.5,.7,-1.1,.4,-1.5l-1.7,-2Z" class="g0_253"/>
<path d="M212.7,124.7l1.7,2c.3,.3,1,.3,1.5,-.1c.5,-.5,.7,-1.1,.4,-1.5l-1.7,-2l-1.9,1.6Z" class="ga_253"/>
<path d="M214.8,122.9c.4,.5,.2,1.3,-.5,1.8c-.6,.5,-1.4,.6,-1.8,.1c-.4,-.4,-.2,-1.2,.5,-1.7c.6,-.6,1.4,-.6,1.8,-.2Z" class="g0_253"/>
<path d="M214.8,122.9c.4,.5,.2,1.3,-.5,1.8c-.6,.5,-1.4,.6,-1.8,.1c-.4,-.4,-.2,-1.2,.5,-1.7c.6,-.6,1.4,-.6,1.8,-.2Z" class="ga_253"/>
<path d="M216.4,105.4c4.8,5.7,4.1,14.2,-1.7,19c-5.7,4.8,-14.2,4,-19,-1.7c-4.8,-5.7,-4,-14.2,1.7,-19c5.7,-4.8,14.2,-4.1,19,1.7Z" class="g0_253"/>
<path d="M216.4,105.4c4.8,5.7,4.1,14.2,-1.7,19c-5.7,4.8,-14.2,4,-19,-1.7c-4.8,-5.7,-4,-14.2,1.7,-19c5.7,-4.8,14.2,-4.1,19,1.7Z" class="g7_253"/>
<path d="M214,107.4c3.5,4.2,3,10.5,-1.3,14.1c-4.2,3.5,-10.5,2.9,-14,-1.3c-3.5,-4.2,-3,-10.5,1.2,-14c4.2,-3.6,10.5,-3,14.1,1.2Z" class="gb_253"/>
<path d="M214,107.4c3.5,4.2,3,10.5,-1.3,14.1c-4.2,3.5,-10.5,2.9,-14,-1.3c-3.5,-4.2,-3,-10.5,1.2,-14c4.2,-3.6,10.5,-3,14.1,1.2Z" class="g7_253"/>
<path d="M213,110.6l-3.1,3m3.1,-.4l-3.1,3" class="gc_253"/>
<path d="M172.1,99l3.1,3.3m1.1,-5.9l1.2,3.9m-8.1,3l3.7,1.2" class="gd_253"/>
<path d="M185.8,106.1c1.2,1.2,.2,4.3,-2.2,6.7c-2.5,2.5,-5.5,3.5,-6.8,2.3c-1.2,-1.3,-.3,-4.3,2.2,-6.8c2.5,-2.5,5.5,-3.5,6.8,-2.2Z" class="g0_253"/>
<path d="M203.7,107.6c.6,.6,.1,1.9,-.9,3c-1.1,1,-2.4,1.5,-3,.9c-.5,-.5,-.1,-1.8,1,-2.9c1.1,-1.1,2.4,-1.5,2.9,-1Z" class="g0_253"/>
<path d="M154.1,1202.8h713V1006h-713v196.8Z" class="ge_253"/>
<path d="M154.1,1010.5v190m4.6,2.3H864.9m2.2,-4.6V1008.3m-4.5,-2.3H156.4" class="gf_253"/>
<path d="M154.1,1202.8v0m713.1,0v0m0,-196.8v0m-713.1,0v0" class="gg_253"/>
<path d="M153.3,1009.2V980.6c0,0,0,-8.7,8.7,-8.7H859.3c0,0,8.6,0,8.6,8.7v29.2Z" class="gh_253"/>
<path d="M587.1,1064.7c0,0,-2.1,0,-2.1,2.2v17.3c0,0,0,2.2,2.1,2.2h18.2c0,0,2.2,0,2.2,-2.2v-17.3c0,0,0,-2.2,-2.2,-2.2Z" class="gi_253"/>
<path d="M614.4,1064.7c0,0,-2.2,0,-2.2,2.2v17.3c0,0,0,2.2,2.2,2.2h18.2c0,0,2.1,0,2.1,-2.2v-17.3c0,0,0,-2.2,-2.1,-2.2Z" class="gi_253"/>
<path d="M641.6,1064.7c0,0,-2.1,0,-2.1,2.2v17.3c0,0,0,2.2,2.1,2.2h18.2c0,0,2.2,0,2.2,-2.2v-17.3c0,0,0,-2.2,-2.2,-2.2Z" class="gi_253"/>
<path d="M297.9,1119.2c0,0,-2.2,0,-2.2,2.2v17.3c0,0,0,2.2,2.2,2.2h18.2c0,0,2.1,0,2.1,-2.2v-17.3c0,0,0,-2.2,-2.1,-2.2Z" class="gi_253"/>
<path d="M325.1,1119.2c0,0,-2.1,0,-2.1,2.2v17.3c0,0,0,2.2,2.1,2.2h18.2c0,0,2.2,0,2.2,-2.2v-17.3c0,0,0,-2.2,-2.2,-2.2Z" class="gi_253"/>
<path d="M199.6,989.7c-.1,.1,-.2,.1,-.3,.1c-.2,0,-.3,0,-.4,-.1l-12.4,-5.3V997c.9,.2,1.8,.4,2.7,.6c3.3,.8,6.6,1.5,10.1,1.5c3.4,0,6.8,-.7,10,-1.5c.9,-.2,1.8,-.4,2.7,-.6V984.4Z" class="gj_253"/>
<path d="M178.3,978.9l21,9l20.9,-9l-20.9,-9Z" class="g6_253"/>
<path d="M223,978L199.6,968c-.2,-.1,-.5,-.1,-.7,0l-23.3,10c-.4,.2,-.6,.5,-.6,.9c0,.4,.2,.7,.6,.9l9,3.8v14.2c0,.5,.4,.9,.8,.9c1.1,.3,2.2,.5,3.4,.8c3.3,.7,6.8,1.5,10.5,1.5c3.6,0,7.1,-.8,10.5,-1.5c1.1,-.3,2.2,-.5,3.3,-.8c.5,0,.8,-.4,.8,-.9V983.6l3.2,-1.3v16.9c-1.6,.5,-2.8,1.9,-2.8,3.7v5.1c0,2.1,1.7,3.8,3.8,3.8c2,0,3.7,-1.7,3.7,-3.8v-5.1c0,-1.8,-1.2,-3.2,-2.8,-3.7V981.4l4,-1.6c.3,-.2,.5,-.5,.5,-.9c0,-.4,-.2,-.7,-.5,-.9m-3,24.9v3.3q-.1,0,-.2,0h-3.6v-3.3c0,-1.1,.8,-1.9,1.9,-1.9c1,0,1.9,.8,1.9,1.9m-1.9,7c-1.1,0,-1.9,-.8,-1.9,-1.9v-.9h3.6q.1,0,.2,0v.9c0,1.1,-.9,1.9,-1.9,1.9m-18.8,-22l-21,-9l21,-9l20.9,9Zm10,9.7c-3.2,.8,-6.6,1.5,-10,1.5c-3.5,0,-6.8,-.7,-10.1,-1.5c-.9,-.2,-1.8,-.4,-2.7,-.6V984.5l12.4,5.2c.1,.1,.2,.1,.4,.1c.1,0,.2,0,.3,-.1L212,984.5V997c-.9,.2,-1.8,.4,-2.7,.6Z" class="gk_253"/>
<path d="M219.8,1007.1h-3.6v.9c0,1.1,.8,1.9,1.9,1.9c1,0,1.9,-.8,1.9,-1.9v-.9q-.1,0,-.2,0Z" class="g0_253"/>
<path d="M218.1,1001c-1.1,0,-1.9,.8,-1.9,1.9v3.3h3.6q.1,0,.2,0v-3.3c0,-1.1,-.9,-1.9,-1.9,-1.9Z" class="g0_253"/>
<path d="M32.1,45.1H9.2m958.3,0h22.9M32.1,1331.3H9.2m958.3,0h22.9M45.1,32.1V9.2m0,1335.1v22.9M954.5,32.1V9.2m0,1335.1v22.9" class="gl_253"/>
<path d="M32.1,45.1H9.2m958.3,0h22.9M32.1,1331.3H9.2m958.3,0h22.9M45.1,32.1V9.2m0,1335.1v22.9M954.5,32.1V9.2m0,1335.1v22.9" class="gm_253"/>
<path d="M27.5,32.1H0m972.1,0h27.5M27.5,1344.3H0m972.1,0h27.5M32.1,27.5V0m0,1348.9v27.5M967.5,27.5V0m0,1348.9v27.5" class="gl_253"/>
<path d="M27.5,32.1H0m972.1,0h27.5M27.5,1344.3H0m972.1,0h27.5M32.1,27.5V0m0,1348.9v27.5M967.5,27.5V0m0,1348.9v27.5" class="gm_253"/>
</svg>