<?xml version="1.0" encoding="UTF-8" standalone="no"?>
<!DOCTYPE svg PUBLIC "-//W3C//DTD SVG 1.1//EN"
"http://www.w3.org/Graphics/SVG/1.1/DTD/svg11.dtd">
<svg viewBox="0 0 999 1376" version="1.1" xmlns="http://www.w3.org/2000/svg" xmlns:xlink="http://www.w3.org/1999/xlink">
<defs>
<clipPath id="c0_165"><path d="M199.2,237.3l-6.5,-2.1L176.3,221.3V164.2h72v73.1Z"/></clipPath>
<clipPath id="c1_165"><path d="M198.6,730.6l-6.5,-2.1L175.7,714.6V657.5h72v73.1Z"/></clipPath>
<clipPath id="c2_165"><path d="M786.5,132.5V120.1H801v12.4Z"/></clipPath>
<clipPath id="c3_165"><path d="M673.4,502.6v-203H919.2v203Z"/></clipPath>
<clipPath id="c4_165"><path d="M677.4,497.6V305.1h236V497.6Z"/></clipPath>
<clipPath id="c5_165"><path d="M790.2,322.7c-.3,-.1,3.5,-8.2,3.5,-8.2l.8,.5c0,0,-4,7.7,-4.3,7.7Z"/></clipPath>
<clipPath id="c6_165"><path d="M797.7,315c0,0,-6.9,-1.1,-7.6,-5.3c-.7,-3.6,1.5,-3.8,2.1,-3.8c0,0,.1,0,.1,0l8.3,-12.7l-1.5,-3.1c0,0,-.6,-1.1,.2,-2.1c0,0,.1,-.1,.3,-.1c2.1,0,12.9,5.6,12.9,5.6l.1,.1c-.4,.5,-.7,1.2,-1.4,1.7c-.6,.5,-5.1,1.1,-5.1,1.1L797.7,315Z"/></clipPath>
<clipPath id="c7_165"><path d="M797.3,314.6c.2,-.5,.2,-1.8,0,-2.2V311c-1.6,-.6,-2.9,-1.3,-3.7,-2.6c-1.1,.6,-2.1,1.3,-3.1,1.9c1.5,2.2,3.8,3.6,6.8,4.3Zm0,-3.9c2.2,-4.5,3.9,-9.5,6.1,-14.1c-.9,-.4,-1.8,-1.3,-2.6,-1.3c-2.3,4.3,-4.6,8.6,-7.1,12.8c.8,1.3,2.1,2,3.6,2.6ZM790,322.8c1,-2.9,2.4,-5.5,3.5,-8.3c-2,-1.6,-3.9,-3.1,-4.4,-6.2v-1.5c0,-2.7,1.9,-3.4,4.6,-3.4c0,0,.1,0,.2,0c1.9,-3.3,4.2,-6.3,6.1,-9.6c-.5,-.9,-1.1,-2.4,-.9,-3.7c.6,1.3,1.7,1.9,2.4,2.9c-.1,.6,-.2,1.1,-.3,1.8c.5,.6,1.3,1.1,2.3,1.3c.5,-.4,.6,-1.2,1.2,-1.5c.9,.4,1.8,.8,3.1,.8c.1,.1,.5,.1,.8,.1c.4,0,.7,0,.8,-.1c.2,0,.3,0,.4,0c.2,0,.4,0,.6,-.1c.2,-.1,.3,-.1,.5,-.1c.1,0,.2,0,.3,.1c-1.3,.6,-2.2,1.7,-4.2,1.7c-.1,0,-.2,0,-.3,0c-.9,3.8,-1.9,7.4,-2.7,11.2c.6,1.1,1.6,1.7,1.3,3.1c-.5,2.8,-3.9,4.4,-7.2,4.4c-1.3,0,-2.5,-.2,-3.6,-.7c-1,2.1,-2.1,4.1,-3.3,6c0,-.4,.3,-.4,.3,-.7c.9,-1.8,1.9,-3.6,2.6,-5.7c-1,1.7,-1.8,3.7,-2.7,5.5c-.3,.5,-.5,.9,-.7,1.3c-.3,.4,-.3,1.1,-.7,1.4Z"/></clipPath>
<clipPath id="c8_165"><path d="M807.7,295c-4.8,0,-13.1,-7.3,-5.5,-8.8h1.2c.2,.1,.4,.1,.6,.1c0,0,.1,0,.1,0q.1,0,.2,0c.2,0,.5,0,.9,0c3.1,.7,8.2,3.8,7.5,7.1c-.2,1.1,-1.5,1.6,-3.1,1.6h-1.8c0,0,-.1,0,-.1,0Z"/></clipPath>
<clipPath id="c9_165"><path d="M93.3,617.8v-215h214v215Z"/></clipPath>
<clipPath id="ca_165"><path d="M94.1,616.1V403.2H308.6V616.1Z"/></clipPath>
<clipPath id="cb_165"><path d="M193.5,423.5c-.2,-.1,3.6,-8.2,3.6,-8.2l.8,.5c0,0,-4.1,7.7,-4.4,7.7Z"/></clipPath>
<clipPath id="cc_165"><path d="M201,415.8c0,0,-6.8,-1.1,-7.6,-5.2c-.6,-3.6,1.6,-3.9,2.1,-3.9c.1,0,.1,.1,.1,.1L204,394l-1.5,-3.1c0,0,-.6,-1.1,.1,-2c.1,-.1,.2,-.1,.4,-.1c2.1,0,12.9,5.5,12.9,5.5l.1,.2c-.4,.5,-.8,1.1,-1.4,1.6c-.7,.5,-5.1,1.1,-5.1,1.1L201,415.8Z"/></clipPath>
<clipPath id="cd_165"><path d="M200.6,415.4c.2,-.4,.2,-1.7,0,-2.2v-1.4c-1.5,-.5,-2.9,-1.2,-3.6,-2.5c-1.1,.6,-2.2,1.2,-3.2,1.9c1.6,2.1,3.9,3.5,6.8,4.2Zm0,-3.9c2.2,-4.5,4,-9.5,6.2,-14c-.9,-.4,-1.9,-1.3,-2.7,-1.4c-2.3,4.3,-4.6,8.6,-7,12.8c.7,1.3,2.1,2,3.5,2.6Zm-7.3,12.1c1.1,-2.9,2.4,-5.5,3.6,-8.3c-2,-1.5,-4,-3.1,-4.4,-6.1v-1.5c-.1,-2.7,1.9,-3.4,4.5,-3.4c.1,0,.2,0,.2,0c2,-3.4,4.2,-6.4,6.2,-9.7c-.6,-.9,-1.2,-2.4,-.9,-3.7c.5,1.3,1.6,1.9,2.4,2.9c-.1,.6,-.3,1.2,-.4,1.8c.6,.7,1.3,1.2,2.4,1.4c.5,-.4,.5,-1.3,1.1,-1.5c1,.3,1.9,.7,3.2,.7c.1,.1,.4,.2,.8,.2c.3,0,.7,-.1,.8,-.2c.1,0,.2,.1,.3,.1c.2,0,.4,-.1,.6,-.2c.2,0,.4,-.1,.6,-.1c.1,0,.2,0,.3,.1c-1.4,.7,-2.2,1.8,-4.2,1.8c-.1,0,-.2,0,-.4,0c-.8,3.7,-1.8,7.3,-2.6,11.1c.5,1.1,1.5,1.7,1.3,3.2c-.5,2.7,-3.9,4.4,-7.2,4.4c-1.3,0,-2.6,-.3,-3.6,-.8c-1,2.1,-2.1,4.2,-3.3,6.1c0,-.4,.3,-.4,.2,-.8c1,-1.8,2,-3.6,2.7,-5.7c-1.1,1.8,-1.9,3.7,-2.8,5.6c-.2,.4,-.4,.8,-.6,1.2c-.3,.4,-.3,1.2,-.8,1.4Z"/></clipPath>
<clipPath id="ce_165"><path d="M211.1,395.8c-4.8,0,-13.1,-7.3,-5.6,-8.8h1.3c.2,.1,.4,.1,.7,.1c0,0,.1,0,.2,0c.3,0,.5,0,.8,.1c3.1,.6,8.3,3.8,7.6,7c-.3,1.2,-1.6,1.6,-3.2,1.6h-1.7q-.1,0,-.1,0Z"/></clipPath>
<clipPath id="cf_165"><path d="M264,978.9V946.6H784.6v32.3Z"/></clipPath>
<clipPath id="cg_165"><path d="M266.1,1052.8v-32.9H783.8v32.9Z"/></clipPath>
<clipPath id="ch_165"><path d="M264,1122.7v-27.1H781.6v27.1Z"/></clipPath>
<clipPath id="ci_165"><path d="M264,1192.6v-28.7H781.6v28.7Z"/></clipPath>
<style type="text/css"><![CDATA[
.g0_165{
fill: #FEFCF4;
}
.g1_165{
fill: none;
stroke: #00ABE5;
stroke-width: 1.527;
stroke-linecap: round;
stroke-linejoin: round;
stroke-dasharray: 0,5;
}
.g2_165{
fill: none;
stroke: #00ABE5;
stroke-width: 1.527;
stroke-linecap: round;
stroke-linejoin: round;
}
.g3_165{
fill: none;
stroke: #00ABE5;
stroke-width: 2.291;
}
.g4_165{
fill: #FFF;
}
.g5_165{
fill: #3D3B39;
}
.g6_165{
fill: #E5E9B7;
}
.g7_165{
fill: #61C7CB;
}
.g8_165{
fill: none;
stroke: #6381B7;
stroke-width: 0.763;
}
.g9_165{
fill: #6381B7;
}
.ga_165{
fill: none;
stroke: #6381B7;
stroke-width: 0.381;
stroke-dasharray: 2,1;
}
.gb_165{
fill: none;
stroke: #6381B7;
stroke-width: 0.381;
}
.gc_165{
fill: #FCE8B0;
}
.gd_165{
fill: #25408F;
}
.ge_165{
fill: #A8AAAD;
}
.gf_165{
fill: none;
stroke: #949698;
stroke-width: 0.549;
}
.gg_165{
fill: none;
stroke: #BCBEC0;
stroke-width: 2.566;
}
.gh_165{
fill: #231F20;
}
.gi_165{
fill: #363637;
}
.gj_165{
fill: #5CC4BE;
}
.gk_165{
fill: #F0D73F;
}
.gl_165{
fill: #F7C2D9;
}
.gm_165{
fill: #FDF4F3;
}
.gn_165{
fill: #EC008C;
}
.go_165{
fill: none;
stroke: #949698;
stroke-width: 0.305;
stroke-dasharray: 4,4;
}
.gp_165{
fill: none;
stroke: #949698;
stroke-width: 0.305;
}
.gq_165{
fill: none;
stroke: #949698;
stroke-width: 0.305;
stroke-dasharray: 3,3;
}
.gr_165{
fill: #6D6F71;
}
.gs_165{
fill: none;
stroke: #FFF;
stroke-width: 1.909;
stroke-miterlimit: 10;
}
.gt_165{
fill: none;
stroke: #000;
stroke-width: 0.381;
stroke-miterlimit: 10;
}
]]></style>
</defs>
<path d="M45.1,1344.3H967.5V32.1H45.1V1344.3Z" class="g0_165"/>
<path d="M154.1,933.1v308.5m4.6,2.3H864.9m2.2,-4.6V930.8m-4.5,-2.3H156.4" class="g1_165"/>
<path d="M154.1,1243.9v0m713.1,0v0m0,-315.4v0m-713.1,0v0" class="g2_165"/>
<path d="M154.5,922.9V894.2c0,0,0,-4.3,4.3,-4.3H862.4c0,0,4.4,0,4.4,4.3v29.2" class="g3_165"/>
<path d="M200.1,890.4c2.6,0,4.8,-2.1,4.8,-4.8c0,-2.6,-2.2,-4.8,-4.8,-4.8c-2.7,0,-4.8,2.2,-4.8,4.8c0,2.7,2.1,4.8,4.8,4.8Z" class="g4_165"/>
<path d="M200.1,892.3c3.6,0,6.6,-3,6.6,-6.7c0,-3.6,-3,-6.6,-6.6,-6.6c-3.7,0,-6.7,3,-6.7,6.6c0,3.7,3,6.7,6.7,6.7m0,-11.5c2.6,0,4.8,2.2,4.8,4.8c0,2.7,-2.2,4.8,-4.8,4.8c-2.7,0,-4.8,-2.1,-4.8,-4.8c0,-2.6,2.1,-4.8,4.8,-4.8Z" class="g5_165"/>
<path d="M205.5,894.3H194.6c-.1,0,-.3,0,-.4,0c2.7,1,4.9,3.3,5.9,6.2c1.3,-.6,2.7,-.8,4.2,-.8c2.9,0,5.5,1,7.5,2.6v-1.7c0,-3.5,-2.8,-6.3,-6.3,-6.3Z" class="g4_165"/>
<path d="M184,891.3c3.4,0,6.1,-2.8,6.1,-6.2c0,-3.3,-2.7,-6.1,-6.1,-6.1c-3.4,0,-6.1,2.8,-6.1,6.1c0,3.4,2.7,6.2,6.1,6.2Z" class="g6_165"/>
<path d="M184,893.2c4.4,0,8,-3.6,8,-8.1c0,-4.4,-3.6,-8,-8,-8c-4.4,0,-8,3.6,-8,8c0,4.5,3.6,8.1,8,8.1M184,879c3.4,0,6.1,2.8,6.1,6.1c0,3.4,-2.7,6.2,-6.1,6.2c-3.4,0,-6.1,-2.8,-6.1,-6.2c0,-3.3,2.7,-6.1,6.1,-6.1Z" class="g5_165"/>
<path d="M198.4,901.3c-1,-3.3,-4.1,-5.8,-7.7,-5.8H177.3c-4.4,0,-8,3.6,-8,8v4.3h23.8c.9,-2.7,2.8,-5.1,5.3,-6.5Z" class="g6_165"/>
<path d="M204.3,901.6c-5.5,0,-9.9,4.4,-9.9,9.9c0,5.5,4.4,10,9.9,10c5.5,0,10,-4.5,10,-10c0,-5.5,-4.5,-9.9,-10,-9.9m6.7,11.6c0,.3,-.2,.5,-.5,.5h-4v4c0,.3,-.2,.5,-.5,.5h-3.3c-.3,0,-.5,-.2,-.5,-.5v-4h-4.1c-.2,0,-.4,-.2,-.4,-.5v-3.3c0,-.3,.2,-.5,.4,-.5h4.1v-4.1c0,-.2,.2,-.4,.5,-.4H206c.3,0,.5,.2,.5,.4v4.1h4c.3,0,.5,.2,.5,.5Z" class="g7_165"/>
<path d="M213.7,904.2v-3.6c0,-4.6,-3.7,-8.2,-8.2,-8.2H194.6c-1.6,0,-3.1,.4,-4.3,1.2h-13c-5.4,0,-9.9,4.5,-9.9,9.9v5.3c0,.5,.4,.9,1,.9h24.2c-.1,.6,-.1,1.2,-.1,1.8c0,6.6,5.3,11.9,11.8,11.9c6.6,0,11.9,-5.3,11.9,-11.9c0,-2.7,-.9,-5.2,-2.5,-7.3m-9.4,17.3c-5.5,0,-9.9,-4.5,-9.9,-10c0,-5.5,4.4,-9.9,9.9,-9.9c5.5,0,10,4.4,10,9.9c0,5.5,-4.5,10,-10,10m-35,-18c0,-4.4,3.6,-8,8,-8h13.4c3.6,0,6.7,2.5,7.7,5.8c-2.5,1.4,-4.4,3.8,-5.3,6.5H169.3Zm42.5,-1.2c-2,-1.6,-4.6,-2.6,-7.5,-2.6c-1.5,0,-2.9,.2,-4.2,.8c-1,-2.9,-3.2,-5.2,-5.9,-6.2c.1,0,.3,0,.4,0h10.9c3.5,0,6.3,2.8,6.3,6.3Z" class="g5_165"/>
<path d="M205.5,909.9v-4.1h-2.4v4.1c0,.2,-.2,.4,-.4,.4h-4.1v2.4h4.1c.2,0,.4,.3,.4,.5v4.1h2.4v-4.1c0,-.2,.3,-.5,.5,-.5h4.1v-2.4H206c-.2,0,-.5,-.2,-.5,-.4Z" class="g4_165"/>
<path d="M210.5,909.4h-4v-4.1c0,-.2,-.2,-.4,-.5,-.4h-3.3c-.3,0,-.5,.2,-.5,.4v4.1h-4.1c-.2,0,-.4,.2,-.4,.5v3.3c0,.3,.2,.5,.4,.5h4.1v4c0,.3,.2,.5,.5,.5H206c.3,0,.5,-.2,.5,-.5v-4h4c.3,0,.5,-.2,.5,-.5v-3.3c0,-.3,-.2,-.5,-.5,-.5m-.4,3.3H206c-.2,0,-.5,.3,-.5,.5v4.1h-2.4v-4.1c0,-.2,-.2,-.5,-.4,-.5h-4.1v-2.4h4.1c.2,0,.4,-.2,.4,-.4v-4.1h2.4v4.1c0,.2,.3,.4,.5,.4h4.1Z" class="g5_165"/>
<path d="M172.1,137.3c0,0,-18.4,0,-18.4,18.4V611c0,0,0,18.3,18.4,18.3H849.2c0,0,18.3,0,18.3,-18.3V137.3Z" class="g4_165"/>
<path d="M172.1,137.3c0,0,-18.4,0,-18.4,18.4V611c0,0,0,18.3,18.4,18.3H849.2c0,0,18.3,0,18.3,-18.3V137.3H172.1Z" class="g8_165"/>
<path d="M166.7,644.3c0,0,-13,0,-13,13V795.1c0,0,0,13,13,13H854.5c0,0,13,0,13,-13V657.3c0,0,0,-13,-13,-13Z" class="g4_165"/>
<path d="M166.7,644.3c0,0,-13,0,-13,13V795.1c0,0,0,13,13,13H854.5c0,0,13,0,13,-13V657.3c0,0,0,-13,-13,-13H166.7Z" class="g8_165"/>
<path d="M426.6,826.5c0,0,-4.4,0,-4.4,4.3v10.9c0,0,0,4.3,4.4,4.3h30.3c0,0,4.3,0,4.3,-4.3V830.8c0,0,0,-4.3,-4.3,-4.3Z" class="g9_165"/>
<path d="M413.4,817.7v37.5m1.3,1H866.8m.9,-1.3V817.3m-1.3,-1H414.3" class="ga_165"/>
<path d="M413.4,855.6v.6h.5m453.2,0h.6v-.6m0,-38.7v-.6h-.6m-453.2,0h-.5v.6" class="gb_165"/>
<path d="M231.8,166.3c0,0,-13,0,-13,13V227c0,0,0,13,13,13h602c0,0,13,0,13,-13V179.3c0,0,0,-13,-13,-13Z" class="gc_165"/>
<image clip-path="url(#c0_165)" preserveAspectRatio="none" x="175" y="163" width="75" height="76" xlink:href="img/1.png"/>
<path d="M226.6,232.6c0,0,-26.9,11.3,-51.1,-12.8c0,0,15.1,25.4,49.3,24c0,0,24.7,.3,20.2,-10.1c0,0,1.2,-4.5,-18.4,-1.1Z" class="gc_165"/>
<path d="M231.2,685.7c0,0,-12.9,0,-12.9,12.9v21.7c0,0,0,13,12.9,13H833.3c0,0,13,0,13,-13V698.6c0,0,0,-12.9,-13,-12.9Z" class="gc_165"/>
<image clip-path="url(#c1_165)" preserveAspectRatio="none" x="174" y="656" width="75" height="76" xlink:href="img/2.png"/>
<path d="M226,725.9c0,0,-26.8,11.3,-51.1,-12.7c0,0,15.2,25.3,49.3,23.9c0,0,24.8,.4,20.3,-10.1c0,0,1.2,-4.4,-18.5,-1.1Z" class="gc_165"/>
<path d="M153.3,111.9v39L165,161.2V117Z" class="gd_165"/>
<path d="M153.3,111.9v39H851.1c0,0,16.8,0,16.8,-16.8v-5.3c0,0,0,-16.9,-16.8,-16.9Z" class="g9_165"/>
<path d="M802.6,145.6c8.2,0,14.9,-6.5,14.9,-14.5c0,-8.1,-6.7,-14.5,-14.9,-14.5c-8.2,0,-14.9,6.4,-14.9,14.5c0,8,6.7,14.5,14.9,14.5Z" class="ge_165"/>
<path d="M802.6,145.6c8.2,0,14.9,-6.5,14.9,-14.5c0,-8.1,-6.7,-14.5,-14.9,-14.5c-8.2,0,-14.9,6.4,-14.9,14.5c0,8,6.7,14.5,14.9,14.5Z" class="gf_165"/>
<path d="M802.6,136.4c3,0,5.5,-2.4,5.5,-5.3c0,-3,-2.5,-5.4,-5.5,-5.4c-3,0,-5.5,2.4,-5.5,5.4c0,2.9,2.5,5.3,5.5,5.3Z" class="g4_165"/>
<path d="M802.6,136.4c3,0,5.5,-2.4,5.5,-5.3c0,-3,-2.5,-5.4,-5.5,-5.4c-3,0,-5.5,2.4,-5.5,5.4c0,2.9,2.5,5.3,5.5,5.3Z" class="gg_165"/>
<g clip-path="url(#c2_165)" opacity="0.3">
<path d="M788,130.3c0,0,0,-4.8,3.7,-8.7l7.7,6.8c0,0,-1,.9,-1,2.6Z" class="g4_165"/>
</g>
<path d="M807.2,131c0,0,-3.5,0,-3.5,3.4v8.7c0,0,0,3.5,3.5,3.5h43.5c0,0,3.5,0,3.5,-3.5v-8.7c0,0,0,-3.4,-3.5,-3.4Z" class="gh_165"/>
<path d="M191.2,122c0,-8.3,-6.8,-15,-15.1,-15c-8.3,0,-15,6.7,-15,15c0,8.3,6.7,15.1,15,15.1c.8,0,1.7,-.1,2.4,-.2l4.5,5.2v-6.7c4.9,-2.5,8.2,-7.6,8.2,-13.4Z" class="g4_165"/>
<path d="M183.5,143.3l-5.1,-5.9c-.8,.1,-1.5,.1,-2.3,.1c-8.5,0,-15.5,-6.9,-15.5,-15.5c0,-8.5,7,-15.5,15.5,-15.5c8.6,0,15.5,7,15.5,15.5c0,5.7,-3.1,11,-8.1,13.7Zm-4.8,-6.9l3.9,4.5v-5.8l.2,-.1c4.9,-2.5,7.9,-7.5,7.9,-13c0,-8,-6.5,-14.6,-14.6,-14.6c-8,0,-14.6,6.6,-14.6,14.6c0,8.1,6.6,14.6,14.6,14.6c.8,0,1.6,-.1,2.4,-.2Z" class="gi_165"/>
<path d="M169.1,121.6c.8,0,1.4,.6,1.4,1.4c0,.8,-.6,1.5,-1.4,1.5c-.8,0,-1.4,-.7,-1.4,-1.5c0,-.8,.6,-1.4,1.4,-1.4Z" class="gj_165"/>
<path d="M169.1,124.9c-1,0,-1.9,-.8,-1.9,-1.9c0,-1,.9,-1.9,1.9,-1.9c1,0,1.9,.9,1.9,1.9c0,1.1,-.9,1.9,-1.9,1.9m0,-2.9c-.5,0,-1,.5,-1,1c0,.6,.5,1,1,1c.5,0,1,-.4,1,-1c0,-.5,-.5,-1,-1,-1Z" class="gi_165"/>
<path d="M176.1,121.6c.8,0,1.5,.6,1.5,1.4c0,.8,-.7,1.5,-1.5,1.5c-.8,0,-1.4,-.7,-1.4,-1.5c0,-.8,.6,-1.4,1.4,-1.4Z" class="gj_165"/>
<path d="M176.1,124.9c-1,0,-1.9,-.8,-1.9,-1.9c0,-1,.9,-1.9,1.9,-1.9c1.1,0,1.9,.9,1.9,1.9c0,1.1,-.8,1.9,-1.9,1.9m0,-2.9c-.5,0,-1,.5,-1,1c0,.6,.5,1,1,1c.6,0,1,-.4,1,-1c0,-.5,-.4,-1,-1,-1Z" class="gi_165"/>
<path d="M183.1,121.6c.8,0,1.5,.6,1.5,1.4c0,.8,-.7,1.5,-1.5,1.5c-.8,0,-1.4,-.7,-1.4,-1.5c0,-.8,.6,-1.4,1.4,-1.4Z" class="gj_165"/>
<path d="M183.1,124.9c-1,0,-1.9,-.8,-1.9,-1.9c0,-1,.9,-1.9,1.9,-1.9c1.1,0,1.9,.9,1.9,1.9c0,1.1,-.8,1.9,-1.9,1.9m0,-2.9c-.5,0,-1,.5,-1,1c0,.6,.5,1,1,1c.6,0,1,-.4,1,-1c0,-.5,-.4,-1,-1,-1Z" class="gi_165"/>
<path d="M185.1,136.3c0,-9.8,7.8,-17.7,17.6,-17.7c9.7,0,17.6,7.9,17.6,17.7c0,9.7,-7.9,17.6,-17.6,17.6c-1,0,-1.9,-.1,-2.9,-.3l-5.2,6.1v-7.8c-5.7,-2.9,-9.5,-8.8,-9.5,-15.6Z" class="gk_165"/>
<path d="M194.6,160.2q-.1,0,-.2,0c-.2,-.1,-.3,-.3,-.3,-.5v-7.5c-5.9,-3.2,-9.5,-9.2,-9.5,-15.9c0,-10,8.1,-18.1,18.1,-18.1c9.9,0,18,8.1,18,18.1c0,9.9,-8.1,18,-18,18c-.9,0,-1.8,0,-2.7,-.2l-5.1,5.9c-.1,.1,-.2,.2,-.3,.2m8.1,-41.1c-9.5,0,-17.2,7.7,-17.2,17.2c0,6.4,3.6,12.2,9.3,15.2c.1,.1,.2,.2,.2,.4v6.6l4.5,-5.2c.1,-.1,.3,-.1,.4,-.1c1,.1,1.9,.2,2.8,.2c9.4,0,17.1,-7.7,17.1,-17.1c0,-9.5,-7.7,-17.2,-17.1,-17.2Z" class="gi_165"/>
<path d="M210.9,135.8c.9,0,1.6,.7,1.6,1.6c0,1,-.7,1.7,-1.6,1.7c-1,0,-1.7,-.7,-1.7,-1.7c0,-.9,.7,-1.6,1.7,-1.6Z" class="g4_165"/>
<path d="M210.9,139.6c-1.2,0,-2.2,-1,-2.2,-2.2c0,-1.1,1,-2.1,2.2,-2.1c1.1,0,2.1,1,2.1,2.1c0,1.2,-1,2.2,-2.1,2.2m0,-3.4c-.7,0,-1.3,.6,-1.3,1.2c0,.7,.6,1.3,1.3,1.3c.6,0,1.2,-.6,1.2,-1.3c0,-.6,-.6,-1.2,-1.2,-1.2Z" class="gi_165"/>
<path d="M202.7,135.8c.9,0,1.6,.7,1.6,1.6c0,1,-.7,1.7,-1.6,1.7c-1,0,-1.7,-.7,-1.7,-1.7c0,-.9,.7,-1.6,1.7,-1.6Z" class="g4_165"/>
<path d="M202.7,139.6c-1.2,0,-2.2,-1,-2.2,-2.2c0,-1.1,1,-2.1,2.2,-2.1c1.1,0,2.1,1,2.1,2.1c0,1.2,-1,2.2,-2.1,2.2m0,-3.4c-.7,0,-1.3,.6,-1.3,1.2c0,.7,.6,1.3,1.3,1.3c.6,0,1.2,-.6,1.2,-1.3c0,-.6,-.6,-1.2,-1.2,-1.2Z" class="gi_165"/>
<path d="M194.5,135.8c.9,0,1.6,.7,1.6,1.6c0,1,-.7,1.7,-1.6,1.7c-1,0,-1.7,-.7,-1.7,-1.7c0,-.9,.7,-1.6,1.7,-1.6Z" class="g4_165"/>
<path d="M194.5,139.6c-1.2,0,-2.2,-1,-2.2,-2.2c0,-1.1,1,-2.1,2.2,-2.1c1.1,0,2.1,1,2.1,2.1c0,1.2,-1,2.2,-2.1,2.2m0,-3.4c-.7,0,-1.2,.6,-1.2,1.2c0,.7,.5,1.3,1.2,1.3c.6,0,1.2,-.6,1.2,-1.3c0,-.6,-.6,-1.2,-1.2,-1.2Z" class="gi_165"/>
<image clip-path="url(#c3_165)" preserveAspectRatio="none" x="673" y="300" width="246" height="203" xlink:href="img/3.png"/>
<path d="M689.7,304.5L678.4,481.1l223.7,15.6L913.4,317.9Z" class="gl_165"/>
<image clip-path="url(#c4_165)" preserveAspectRatio="none" x="677" y="305" width="236" height="193" xlink:href="img/4.png"/>
<path d="M682.4,310.3l.9,179.2l170.1,1.9l53.2,-9.2l.3,-170.8Z" class="gm_165"/>
<path d="M906.7,482.3l-54.1,9.2l37.1,-25.2Z" class="gn_165"/>
<path d="M405.4,478.5c9.6,-1.4,17.1,-6.8,19,-13.6m-.5,-8c-2.7,-6.4,-10.5,-11.3,-20.2,-12.2m-8.2,.2c-9.6,1.4,-17.2,6.8,-19,13.5m.5,8.1c2.7,6.4,10.5,11.3,20.2,12.2" class="go_165"/>
<path d="M424.7,463.3c.1,-.5,.1,-1.1,.1,-1.6c0,-.6,0,-1.1,-.1,-1.6M402.1,444.6c-.6,0,-1.1,0,-1.7,0c-.5,0,-1.1,0,-1.6,0m-22.7,15.5c0,.5,-.1,1,-.1,1.6c0,.5,.1,1.1,.1,1.6m22.7,15.5c.5,0,1.1,0,1.6,0c.6,0,1.1,0,1.7,0" class="gp_165"/>
<path d="M406.8,439.2c9.6,-19,51.5,-96.6,94.4,-96.7m6.5,3.3c4.5,5,9.7,14.8,-9.5,21.2" class="go_165"/>
<path d="M491.9,365.6c-1.7,-1.7,-3.6,-4.4,-3.6,-8.4m2.4,-6.6c5.9,-9.4,26.8,-32.1,90.6,-32" class="gq_165"/>
<path d="M588.8,318.7c14.2,.4,59.2,3.2,97.9,23.8" class="go_165"/>
<path d="M404.7,443.4c0,0,.2,-.5,.7,-1.4m97.3,-99.5c.5,0,1.1,0,1.6,.1c0,0,.5,.3,1.2,1m-8.8,23.9c-.5,.1,-1,.3,-1.5,.4c0,0,-.5,-.2,-1.2,-.6m-5.6,-11.4c0,-.4,.1,-.9,.2,-1.3c0,0,.2,-.5,.6,-1.4m93.6,-34.5c.4,0,.9,0,1.4,0c0,0,.6,0,1.6,0M688,343.2c.5,.2,.9,.5,1.4,.7" class="gp_165"/>
<path d="M680.3,343.8l3.8,-7.7l7,10.3Z" class="gr_165"/>
<image clip-path="url(#c5_165)" x="789" y="314" width="6" height="9" xlink:href="shade/1.png"/>
<image clip-path="url(#c6_165)" x="789" y="287" width="24" height="28" xlink:href="shade/2.png"/>
<image clip-path="url(#c7_165)" x="789" y="290" width="23" height="33" xlink:href="shade/3.png"/>
<image clip-path="url(#c8_165)" x="794" y="286" width="20" height="10" xlink:href="shade/4.png"/>
<path d="M533.6,478.7c14.4,-1,26,-6.8,28.4,-14.2m-.6,-7c-3.4,-7,-15,-12.2,-29.3,-12.9m-7.2,.1c-14.5,1,-26.1,6.8,-28.4,14.1m.5,7.1c3.4,7,15.1,12.2,29.3,12.9" class="gq_165"/>
<path d="M562.3,463.1c.1,-.4,.1,-.9,.1,-1.4c0,-.5,0,-1,-.1,-1.5M530.7,444.6c-.5,0,-1,0,-1.5,0c-.5,0,-1,0,-1.4,0m-31.7,15.6c-.1,.5,-.1,1,-.1,1.5c0,.5,0,1,.1,1.4m31.7,15.7c.4,0,.9,0,1.4,0c.5,0,1,0,1.5,0" class="gp_165"/>
<image clip-path="url(#c9_165)" preserveAspectRatio="none" x="93" y="403" width="214" height="216" xlink:href="img/5.png"/>
<path d="M102.7,407.5L98.4,605.2l198.2,6.7l4.3,-197.8Z" class="gl_165"/>
<image clip-path="url(#ca_165)" preserveAspectRatio="none" x="94" y="404" width="214" height="212" xlink:href="img/6.png"/>
<path d="M99.2,414.3l6.4,195.3l144.1,-3.2L302.6,595L294.7,408.1Z" class="gm_165"/>
<path d="M302.8,595.1l-53.7,11.4l36.1,-26.7Z" class="gn_165"/>
<path d="M530.7,483.6c-9,19.3,-48.5,98.2,-91.4,99.6m-6.6,-3.1c-4.7,-4.9,-10.2,-14.5,8.8,-21.5" class="go_165"/>
<path d="M447.8,559.8c1.9,1.7,3.8,4.3,3.9,8.3m-2.1,6.7c-5.6,9.5,-25.9,32.9,-89.6,34.7" class="gq_165"/>
<path d="M352.5,609.6c-14.3,.1,-59.3,-1.3,-98.6,-20.7" class="go_165"/>
<path d="M532.7,479.4c0,0,-.3,.5,-.7,1.4M437.8,583.2c-.6,0,-1.1,0,-1.6,0c0,0,-.5,-.3,-1.2,-1m8,-24.1c.5,-.2,1,-.3,1.5,-.5c0,0,.5,.2,1.2,.6m6,11.2c-.1,.4,-.1,.9,-.2,1.3c0,0,-.1,.5,-.5,1.4m-92.5,37.4c-.5,0,-1,0,-1.5,0c0,0,-.5,.1,-1.5,.1m-103,-21.4c-.4,-.2,-.9,-.5,-1.3,-.7" class="gp_165"/>
<path d="M260.2,587.3l-3.5,7.8l-7.3,-10Z" class="gr_165"/>
<image clip-path="url(#cb_165)" x="193" y="415" width="5" height="9" xlink:href="shade/5.png"/>
<image clip-path="url(#cc_165)" x="192" y="388" width="24" height="28" xlink:href="shade/6.png"/>
<image clip-path="url(#cd_165)" x="192" y="390" width="23" height="34" xlink:href="shade/7.png"/>
<image clip-path="url(#ce_165)" x="197" y="387" width="20" height="9" xlink:href="shade/8.png"/>
<image clip-path="url(#cf_165)" preserveAspectRatio="none" x="262" y="945" width="523" height="36" xlink:href="img/7.png"/>
<image clip-path="url(#cg_165)" preserveAspectRatio="none" x="265" y="1018" width="519" height="37" xlink:href="img/8.png"/>
<image clip-path="url(#ch_165)" preserveAspectRatio="none" x="262" y="1094" width="520" height="30" xlink:href="img/9.png"/>
<image clip-path="url(#ci_165)" preserveAspectRatio="none" x="262" y="1162" width="520" height="32" xlink:href="img/10.png"/>
<path d="M32.1,45.1H9.2m958.3,0h22.9M32.1,1331.3H9.2m958.3,0h22.9M45.1,32.1V9.2m0,1335.1v22.9M954.5,32.1V9.2m0,1335.1v22.9" class="gs_165"/>
<path d="M32.1,45.1H9.2m958.3,0h22.9M32.1,1331.3H9.2m958.3,0h22.9M45.1,32.1V9.2m0,1335.1v22.9M954.5,32.1V9.2m0,1335.1v22.9" class="gt_165"/>
<path d="M27.5,32.1H0m972.1,0h27.5M27.5,1344.3H0m972.1,0h27.5M32.1,27.5V0m0,1348.9v27.5M967.5,27.5V0m0,1348.9v27.5" class="gs_165"/>
<path d="M27.5,32.1H0m972.1,0h27.5M27.5,1344.3H0m972.1,0h27.5M32.1,27.5V0m0,1348.9v27.5M967.5,27.5V0m0,1348.9v27.5" class="gt_165"/>
</svg>