<?xml version="1.0" encoding="UTF-8" standalone="no"?>
<!DOCTYPE svg PUBLIC "-//W3C//DTD SVG 1.1//EN"
"http://www.w3.org/Graphics/SVG/1.1/DTD/svg11.dtd">
<svg viewBox="0 0 999 1376" version="1.1" xmlns="http://www.w3.org/2000/svg" xmlns:xlink="http://www.w3.org/1999/xlink">
<defs>
<clipPath id="c0_329"><path d="M32.1,1344.3V32.1H967.5V1344.3Z"/></clipPath>
<clipPath id="c1_329"><path d="M215,433V324.1H831.1V433Z"/></clipPath>
<clipPath id="c2_329"><path d="M215,596.2V513.1H822.2v83.1Z"/></clipPath>
<clipPath id="c3_329"><path d="M197.4,828.6c-1.2,-31.7,.3,-74.4,.6,-115.8H759.3c-.9,31.1,-3.3,78.9,-.1,115.8Z"/></clipPath>
<clipPath id="c4_329"><path d="M194.9,828.6V712.5H776.4V828.6Z"/></clipPath>
<clipPath id="c5_329"><path d="M210.9,730c-2.3,0,-4.2,-1.9,-4.2,-4.3c0,-2.3,1.9,-4.2,4.2,-4.2c2.4,0,4.3,1.9,4.3,4.2c0,2.4,-1.9,4.3,-4.3,4.3Z"/></clipPath>
<clipPath id="c6_329"><path d="M210.5,729.2c-2.2,0,-4,-1.8,-4,-4c0,-2.3,1.8,-4.1,4,-4.1c2.3,0,4.1,1.8,4.1,4.1c0,2.2,-1.8,4,-4.1,4Z"/></clipPath>
<clipPath id="c7_329"><path d="M210.5,727.1c-.6,0,-1.2,-.4,-1.6,-.9c-.8,-.7,-2.7,-2.5,-2.7,-3c0,-1,2.5,-2.6,3.6,-2.6c.4,.1,1.4,2.1,2.1,2.9c.3,.5,.6,1.1,.6,1.7c0,1,-.9,1.9,-2,1.9Z"/></clipPath>
<clipPath id="c8_329"><path d="M208.1,724.6c-1.2,0,-2.1,-1,-2,-2.2c.1,-1.1,1,-2.1,2.2,-2.2q.1,0,.2,0c1.1,0,2,.8,2,2c0,1.3,-1.1,2.4,-2.4,2.4Z"/></clipPath>
<clipPath id="c9_329"><path d="M749.6,729.8c-2.3,0,-4.2,-1.9,-4.2,-4.3c0,-2.3,1.9,-4.2,4.2,-4.2c2.4,0,4.3,1.9,4.3,4.2c0,2.4,-1.9,4.3,-4.3,4.3Z"/></clipPath>
<clipPath id="ca_329"><path d="M750,729c-2.2,0,-4,-1.8,-4,-4c0,-2.3,1.8,-4.1,4,-4.1c2.3,0,4.1,1.8,4.1,4.1c0,2.2,-1.8,4,-4.1,4Z"/></clipPath>
<clipPath id="cb_329"><path d="M750,726.9c-1,0,-1.9,-.9,-1.9,-1.9c0,-.7,.3,-1.3,.6,-1.7c.7,-.8,1.7,-2.8,2.1,-2.9c1.1,0,3.6,1.6,3.6,2.6c0,.4,-2,2.3,-2.7,3c-.4,.5,-1,.9,-1.7,.9Z"/></clipPath>
<clipPath id="cc_329"><path d="M752.5,724.4c-1.3,0,-2.5,-1.1,-2.5,-2.4c0,-1.2,1,-2,2.1,-2q.1,0,.2,0c1.2,.1,2.1,1.1,2.2,2.2c.1,1.2,-.8,2.2,-2,2.2Z"/></clipPath>
<clipPath id="cd_329"><path d="M218.2,945.9c-4.3,0,-15.7,-1.2,-18.1,-14.6c-4.2,-23.8,-3.3,-66.7,-2.5,-112.2H758.2c-1,36.5,-1.4,79.8,4.7,107.3L747,940.5l-9.9,1.6l-517.2,3.8c0,0,-.6,0,-1.7,0Z"/></clipPath>
<clipPath id="ce_329"><path d="M194.9,947.8V819.1H776.4V947.8Z"/></clipPath>
<clipPath id="cf_329"><path d="M293.4,947c-32.2,0,-53.8,-.1,-58,-.2c-12.7,-.4,-19.3,.1,-26.2,-2.7c.6,.2,1.3,.3,1.9,.3c7.5,0,16.1,-11.5,6.6,-21c16,.9,139.8,1.8,265.9,1.8c134,0,270.7,-1,283.1,-4.4c6.6,9,9.7,20.6,-11.2,23.2c-15.3,1.9,-329.1,3,-462.1,3Z"/></clipPath>
<style type="text/css"><![CDATA[
.g0_329{
fill: #FEFCF4;
}
.g1_329{
fill: #F16865;
}
.g2_329{
fill: #6381B7;
}
.g3_329{
fill: none;
stroke: #6381B7;
stroke-width: 0.381;
stroke-dasharray: 2,1;
}
.g4_329{
fill: none;
stroke: #6381B7;
stroke-width: 0.381;
}
.g5_329{
fill: #FEF9F9;
}
.g6_329{
fill: none;
stroke: #A164A9;
stroke-width: 1.527;
stroke-linecap: round;
stroke-linejoin: round;
stroke-dasharray: 0,5;
}
.g7_329{
fill: none;
stroke: #A164A9;
stroke-width: 1.527;
stroke-linecap: round;
stroke-linejoin: round;
}
.g8_329{
fill: #A164A9;
}
.g9_329{
fill: #FFF;
}
.ga_329{
fill: none;
stroke: #231F20;
stroke-width: 0.305;
stroke-miterlimit: 10;
}
.gb_329{
fill: #5F6F90;
}
.gc_329{
fill: #F89C27;
}
.gd_329{
fill: #F89B26;
}
.ge_329{
fill: #F79A25;
}
.gf_329{
fill: #F79924;
}
.gg_329{
fill: #F79923;
}
.gh_329{
fill: #F69823;
}
.gi_329{
fill: #F59822;
}
.gj_329{
fill: #F49622;
}
.gk_329{
fill: #F39721;
}
.gl_329{
fill: #F39621;
}
.gm_329{
fill: #F29620;
}
.gn_329{
fill: #F2951F;
}
.go_329{
fill: #F1951F;
}
.gp_329{
fill: #F0941F;
}
.gq_329{
fill: #EF9420;
}
.gr_329{
fill: #EE9320;
}
.gs_329{
fill: #EC9321;
}
.gt_329{
fill: #EB9221;
}
.gu_329{
fill: #EA9122;
}
.gv_329{
fill: #E99122;
}
.gw_329{
fill: #E89022;
}
.gx_329{
fill: #E78F22;
}
.gy_329{
fill: #E69023;
}
.gz_329{
fill: #E58F23;
}
.g10_329{
fill: #E48E24;
}
.g11_329{
fill: #E38E24;
}
.g12_329{
fill: #E18E24;
}
.g13_329{
fill: #E18D25;
}
.g14_329{
fill: #E08D25;
}
.g15_329{
fill: #DF8C25;
}
.g16_329{
fill: #DE8C25;
}
.g17_329{
fill: #DD8C26;
}
.g18_329{
fill: #DC8B26;
}
.g19_329{
fill: #DA8B26;
}
.g1a_329{
fill: #D98A27;
}
.g1b_329{
fill: #D88A27;
}
.g1c_329{
fill: #D88927;
}
.g1d_329{
fill: #D68927;
}
.g1e_329{
fill: #D58728;
}
.g1f_329{
fill: #D48828;
}
.g1g_329{
fill: #D28628;
}
.g1h_329{
fill: #D18629;
}
.g1i_329{
fill: #D08629;
}
.g1j_329{
fill: #CF8529;
}
.g1k_329{
fill: #CE8529;
}
.g1l_329{
fill: #CE852A;
}
.g1m_329{
fill: #CC842A;
}
.g1n_329{
fill: #CB832A;
}
.g1o_329{
fill: #CB8429;
}
.g1p_329{
fill: #CA8329;
}
.g1q_329{
fill: #C98329;
}
.g1r_329{
fill: #C98229;
}
.g1s_329{
fill: #C78129;
}
.g1t_329{
fill: #C68029;
}
.g1u_329{
fill: #C58129;
}
.g1v_329{
fill: #C47F29;
}
.g1w_329{
fill: #C37F29;
}
.g1x_329{
fill: #C17E29;
}
.g1y_329{
fill: #C07E29;
}
.g1z_329{
fill: #BE7D2A;
}
.g20_329{
fill: #BD7D2A;
}
.g21_329{
fill: #BC7C2A;
}
.g22_329{
fill: #BB7B2A;
}
.g23_329{
fill: #BA7B2A;
}
.g24_329{
fill: #B97A2A;
}
.g25_329{
fill: #B87B2A;
}
.g26_329{
fill: #B77A2A;
}
.g27_329{
fill: #B57A2A;
}
.g28_329{
fill: #B4782A;
}
.g29_329{
fill: #B3782A;
}
.g2a_329{
fill: #B3772A;
}
.g2b_329{
fill: #B1772A;
}
.g2c_329{
fill: #AF762A;
}
.g2d_329{
fill: #AE762A;
}
.g2e_329{
fill: #AD752A;
}
.g2f_329{
fill: #AC742A;
}
.g2g_329{
fill: #AA732A;
}
.g2h_329{
fill: #A9732A;
}
.g2i_329{
fill: #A87229;
}
.g2j_329{
fill: #A77229;
}
.g2k_329{
fill: #A67129;
}
.g2l_329{
fill: #CF6C34;
}
.g2m_329{
fill: none;
stroke: #A164A9;
stroke-width: 1.527;
}
.g2n_329{
fill: none;
stroke: #FFF;
stroke-width: 1.909;
stroke-miterlimit: 10;
}
.g2o_329{
fill: none;
stroke: #000;
stroke-width: 0.381;
stroke-miterlimit: 10;
}
]]></style>
</defs>
<path clip-path="url(#c0_329)" d="M-877.3,1344.3H45.1V32.1H-877.3V1344.3Z" class="g0_329"/>
<path d="M45.1,1344.3H967.5V32.1H45.1V1344.3Z" class="g0_329"/>
<path clip-path="url(#c0_329)" d="M867.9,166.7c0,0,30.3,0,30.3,-30.3v-4.3c0,0,0,-30.3,-30.3,-30.3H-735.4c0,0,-30.4,0,-30.4,30.3v4.3c0,0,0,30.3,30.4,30.3Z" class="g1_329"/>
<path d="M689.4,1087.7c0,0,-4.3,0,-4.3,4.3v10.9c0,0,0,4.3,4.3,4.3h30.3c0,0,4.4,0,4.4,-4.3V1092c0,0,0,-4.3,-4.4,-4.3Z" class="g2_329"/>
<path d="M676.2,1080.2v34.9m1.4,1H866.8m.9,-1.4v-34.9m-1.3,-.9H677.2" class="g3_329"/>
<path d="M676.2,1115.5v.6h.6m190.3,0h.6v-.6m0,-36.1v-.5h-.6m-190.3,0h-.6v.5" class="g4_329"/>
<image preserveAspectRatio="none" x="690" y="65" width="167" height="118" xlink:href="img/1.png"/>
<path d="M154.1,1069.2h713V251h-713v818.2Z" class="g5_329"/>
<path d="M154.1,255.5V1067m4.6,2.2H864.9m2.2,-4.5V253.3M862.6,251H156.4" class="g6_329"/>
<path d="M154.1,1069.2v0m713.1,0v0m0,-818.2v0m-713.1,0v0" class="g7_329"/>
<path d="M153.3,265.3V227c0,0,0,-8.7,8.7,-8.7H859.3c0,0,8.6,0,8.6,8.7v38.9Z" class="g8_329"/>
<image clip-path="url(#c1_329)" preserveAspectRatio="none" x="215" y="324" width="615" height="109" xlink:href="img/2.png"/>
<path d="M218.3,426.9H824.6V327.3H218.3v99.6Z" class="g9_329"/>
<path d="M566.4,357.1h68" class="ga_329"/>
<image clip-path="url(#c2_329)" preserveAspectRatio="none" x="215" y="513" width="607" height="83" xlink:href="img/3.png"/>
<path d="M218.3,590H815.9V516.4H218.3V590Z" class="g9_329"/>
<path d="M506.2,546.2h70.9" class="ga_329"/>
<image clip-path="url(#c3_329)" x="196" y="712" width="564" height="117" xlink:href="shade/1.png"/>
<path clip-path="url(#c4_329)" d="M198.2,713c-.1,13.6,-.3,27.5,-.5,40.9c-.7,42.5,-1.3,82.7,2.7,105.3c2.2,13,13.2,14.4,17.8,14.4c1,0,1.7,0,1.7,0l517.2,-3.8l9.8,-1.6l15.7,-13.9c-7.1,-32.5,-5.4,-86.5,-4.1,-126c.2,-5.4,.4,-10.5,.5,-15.3Zm20,161.1c-4.7,0,-16,-1.4,-18.3,-14.8c-4,-22.7,-3.4,-62.9,-2.7,-105.5c.2,-13.4,.5,-27.3,.5,-41c0,-.2,.2,-.3,.3,-.3H759.3c0,0,.1,0,.1,.1c.1,0,.1,.1,.1,.2c-.1,4.8,-.3,10,-.5,15.5c-1.3,39.5,-3,93.6,4.2,126c0,.1,-.1,.2,-.1,.2l-16,14.1H747l-9.9,1.7L219.9,874c0,0,-.6,.1,-1.7,.1Z" class="gb_329"/>
<g clip-path="url(#c5_329)">
<path d="M206.7,730h8.5v-8.5h-8.5V730Z" class="gc_329"/>
<path d="M208.9,722.1c2,-1.1,4.6,-.4,5.7,1.6c1.1,2,.4,4.5,-1.6,5.7c-2,1.1,-4.6,.4,-5.7,-1.6c-1.1,-2,-.4,-4.6,1.6,-5.7Z" class="gc_329"/>
<path d="M208.9,722.2c2,-1.2,4.5,-.4,5.6,1.5c1.1,2,.4,4.5,-1.5,5.6c-2,1.1,-4.5,.4,-5.6,-1.6c-1.1,-1.9,-.4,-4.4,1.5,-5.5Z" class="gd_329"/>
<path d="M209,722.2c1.9,-1.1,4.4,-.4,5.5,1.6c1.1,1.9,.4,4.4,-1.6,5.5c-1.9,1.1,-4.4,.4,-5.5,-1.6c-1.1,-1.9,-.4,-4.4,1.6,-5.5Z" class="gd_329"/>
<path d="M209,722.2c1.9,-1.1,4.4,-.4,5.5,1.6c1.1,1.9,.4,4.4,-1.6,5.5c-1.9,1.1,-4.4,.4,-5.5,-1.6c-1.1,-1.9,-.4,-4.4,1.6,-5.5Z" class="ge_329"/>
<path d="M209,722.2c1.9,-1.1,4.4,-.4,5.5,1.6c1.1,1.9,.4,4.4,-1.6,5.5c-1.9,1.1,-4.4,.4,-5.5,-1.6c-1.1,-1.9,-.4,-4.4,1.6,-5.5Z" class="ge_329"/>
<path d="M209,722.2c1.9,-1,4.4,-.3,5.4,1.6c1.1,1.9,.4,4.4,-1.5,5.4c-1.9,1.1,-4.4,.4,-5.4,-1.5c-1.1,-1.9,-.4,-4.4,1.5,-5.5Z" class="gf_329"/>
<path d="M209,722.3c1.9,-1.1,4.4,-.4,5.4,1.5c1.1,1.9,.4,4.3,-1.5,5.4c-1.9,1.1,-4.4,.4,-5.4,-1.5c-1.1,-1.9,-.4,-4.4,1.5,-5.4Z" class="gf_329"/>
<path d="M209,722.3c1.9,-1.1,4.3,-.4,5.4,1.5c1.1,1.9,.4,4.3,-1.5,5.4c-1.9,1.1,-4.3,.4,-5.4,-1.5c-1.1,-1.9,-.4,-4.3,1.5,-5.4Z" class="gg_329"/>
<path d="M209,722.3c1.9,-1,4.3,-.4,5.4,1.5c1,1.9,.4,4.3,-1.5,5.4c-1.9,1,-4.3,.3,-5.4,-1.5c-1,-1.9,-.4,-4.3,1.5,-5.4Z" class="gg_329"/>
<path d="M209,722.3c1.9,-1,4.3,-.3,5.4,1.5c1,1.9,.3,4.3,-1.6,5.3c-1.8,1.1,-4.2,.4,-5.3,-1.5c-1,-1.8,-.3,-4.2,1.5,-5.3Z" class="gh_329"/>
<path d="M209.1,722.4c1.8,-1.1,4.2,-.4,5.2,1.5c1.1,1.8,.4,4.2,-1.5,5.2c-1.8,1.1,-4.2,.4,-5.2,-1.5c-1.1,-1.8,-.4,-4.2,1.5,-5.2Z" class="gi_329"/>
<path d="M209.1,722.4c1.8,-1.1,4.2,-.4,5.2,1.5c1,1.8,.4,4.2,-1.5,5.2c-1.8,1,-4.2,.4,-5.2,-1.5c-1,-1.8,-.4,-4.2,1.5,-5.2Z" class="gj_329"/>
<path d="M209.1,722.4c1.8,-1,4.2,-.4,5.2,1.5c1,1.8,.4,4.2,-1.5,5.2c-1.8,1,-4.2,.3,-5.2,-1.5c-1,-1.8,-.4,-4.2,1.5,-5.2Z" class="gk_329"/>
<path d="M209.1,722.4c1.8,-1,4.1,-.3,5.2,1.5c1,1.8,.3,4.1,-1.5,5.2c-1.8,1,-4.1,.3,-5.2,-1.5c-1,-1.8,-.3,-4.1,1.5,-5.2Z" class="gl_329"/>
<path d="M209.1,722.5c1.8,-1.1,4.1,-.4,5.1,1.4c1.1,1.8,.4,4.1,-1.4,5.1c-1.8,1,-4.1,.4,-5.1,-1.4c-1.1,-1.8,-.4,-4.1,1.4,-5.1Z" class="gm_329"/>
<path d="M209.1,722.5c1.8,-1,4.1,-.4,5.1,1.4c1,1.8,.4,4.1,-1.4,5.1c-1.8,1,-4.1,.4,-5.1,-1.4c-1,-1.8,-.4,-4.1,1.4,-5.1Z" class="gn_329"/>
<path d="M209.1,722.5c1.8,-1,4.1,-.4,5.1,1.4c1,1.8,.3,4.1,-1.4,5.1c-1.8,1,-4.1,.3,-5.1,-1.5c-1,-1.7,-.3,-4,1.4,-5Z" class="go_329"/>
<path d="M209.2,722.5c1.7,-1,4,-.3,5,1.4c1,1.8,.3,4.1,-1.5,5.1c-1.7,1,-4,.3,-5,-1.5c-1,-1.7,-.3,-4,1.5,-5Z" class="gp_329"/>
<path d="M209.2,722.5c1.7,-.9,4,-.3,4.9,1.5c1,1.7,.4,4,-1.4,4.9c-1.7,1,-4,.4,-4.9,-1.4c-1,-1.7,-.4,-4,1.4,-5Z" class="gq_329"/>
<path d="M209.2,722.6c1.7,-1,3.9,-.4,4.9,1.4c1,1.7,.4,3.9,-1.4,4.9c-1.7,1,-3.9,.4,-4.9,-1.4c-1,-1.7,-.4,-4,1.4,-4.9Z" class="gr_329"/>
<path d="M209.2,722.6c1.7,-1,3.9,-.4,4.9,1.4c1,1.7,.3,3.9,-1.4,4.9c-1.7,1,-3.9,.3,-4.9,-1.4c-1,-1.7,-.3,-3.9,1.4,-4.9Z" class="gs_329"/>
<path d="M209.2,722.6c1.7,-.9,3.9,-.3,4.9,1.4c.9,1.7,.3,3.9,-1.4,4.9c-1.7,.9,-3.9,.3,-4.9,-1.4c-.9,-1.7,-.3,-3.9,1.4,-4.9Z" class="gt_329"/>
<path d="M209.2,722.6c1.7,-.9,3.9,-.3,4.9,1.4c.9,1.7,.3,3.9,-1.4,4.8c-1.7,1,-3.9,.4,-4.9,-1.3c-.9,-1.7,-.3,-3.9,1.4,-4.9Z" class="gu_329"/>
<path d="M209.2,722.7c1.7,-1,3.9,-.4,4.8,1.3c1,1.7,.4,3.9,-1.3,4.8c-1.7,1,-3.9,.4,-4.8,-1.3c-1,-1.7,-.4,-3.9,1.3,-4.8Z" class="gv_329"/>
<path d="M209.2,722.7c1.7,-1,3.9,-.3,4.8,1.3c.9,1.7,.3,3.9,-1.3,4.8c-1.7,.9,-3.9,.3,-4.8,-1.4c-.9,-1.6,-.3,-3.8,1.3,-4.7Z" class="gw_329"/>
<path d="M209.3,722.7c1.6,-.9,3.7,-.3,4.7,1.4c.9,1.6,.3,3.7,-1.4,4.7c-1.6,.9,-3.7,.3,-4.7,-1.4c-.9,-1.6,-.3,-3.8,1.4,-4.7Z" class="gx_329"/>
<path d="M209.3,722.7c1.6,-.9,3.7,-.3,4.7,1.4c.9,1.6,.3,3.7,-1.4,4.6c-1.6,1,-3.7,.4,-4.7,-1.3c-.9,-1.6,-.3,-3.7,1.4,-4.7Z" class="gy_329"/>
<path d="M209.3,722.8c1.6,-1,3.7,-.4,4.6,1.3c1,1.6,.4,3.7,-1.3,4.6c-1.6,.9,-3.7,.4,-4.6,-1.3c-1,-1.6,-.4,-3.7,1.3,-4.6Z" class="gz_329"/>
<path d="M209.3,722.8c1.6,-.9,3.7,-.3,4.6,1.3c.9,1.6,.3,3.7,-1.3,4.6c-1.6,.9,-3.7,.3,-4.6,-1.3c-.9,-1.6,-.3,-3.7,1.3,-4.6Z" class="g10_329"/>
<path d="M209.3,722.8c1.6,-.9,3.7,-.3,4.6,1.3c.9,1.6,.3,3.7,-1.3,4.6c-1.6,.9,-3.7,.3,-4.6,-1.3c-.9,-1.6,-.3,-3.7,1.3,-4.6Z" class="g11_329"/>
<path d="M209.3,722.8c1.6,-.9,3.7,-.3,4.6,1.3c.9,1.6,.3,3.7,-1.3,4.6c-1.6,.9,-3.7,.3,-4.6,-1.3c-.9,-1.6,-.3,-3.7,1.3,-4.6Z" class="g12_329"/>
<path d="M209.3,722.9c1.6,-.9,3.6,-.4,4.5,1.2c.9,1.6,.4,3.6,-1.2,4.5c-1.6,.9,-3.7,.4,-4.5,-1.2c-.9,-1.6,-.4,-3.7,1.2,-4.5Z" class="g13_329"/>
<path d="M209.4,722.9c1.5,-.9,3.5,-.3,4.4,1.2c.9,1.6,.3,3.6,-1.3,4.5c-1.5,.9,-3.5,.3,-4.4,-1.3c-.9,-1.5,-.3,-3.5,1.3,-4.4Z" class="g14_329"/>
<path d="M209.4,722.9c1.5,-.9,3.5,-.3,4.4,1.3c.9,1.5,.3,3.5,-1.3,4.4c-1.5,.9,-3.5,.3,-4.4,-1.3c-.9,-1.5,-.3,-3.5,1.3,-4.4Z" class="g15_329"/>
<path d="M209.4,722.9c1.5,-.8,3.5,-.3,4.4,1.3c.8,1.5,.3,3.5,-1.3,4.4c-1.5,.8,-3.5,.3,-4.4,-1.3c-.8,-1.5,-.3,-3.5,1.3,-4.4Z" class="g16_329"/>
<path d="M209.4,722.9c1.5,-.8,3.5,-.3,4.3,1.3c.9,1.5,.4,3.5,-1.2,4.3c-1.5,.9,-3.5,.3,-4.3,-1.2c-.9,-1.5,-.4,-3.5,1.2,-4.4Z" class="g17_329"/>
<path d="M209.4,723c1.5,-.9,3.5,-.3,4.3,1.2c.9,1.5,.3,3.5,-1.2,4.3c-1.5,.9,-3.5,.3,-4.3,-1.2c-.9,-1.5,-.3,-3.5,1.2,-4.3Z" class="g18_329"/>
<path d="M209.4,723c1.5,-.9,3.5,-.3,4.3,1.2c.8,1.5,.3,3.4,-1.2,4.3c-1.5,.8,-3.5,.3,-4.3,-1.2c-.8,-1.5,-.3,-3.5,1.2,-4.3Z" class="g18_329"/>
<path d="M209.4,723c1.5,-.8,3.4,-.3,4.3,1.2c.8,1.5,.3,3.4,-1.2,4.3c-1.5,.8,-3.4,.3,-4.3,-1.2c-.8,-1.5,-.3,-3.4,1.2,-4.3Z" class="g19_329"/>
<path d="M209.4,723c1.5,-.8,3.4,-.3,4.2,1.2c.9,1.5,.4,3.4,-1.1,4.2c-1.5,.9,-3.4,.3,-4.3,-1.1c-.8,-1.5,-.2,-3.4,1.2,-4.3Z" class="g1a_329"/>
<path d="M209.5,723.1c1.4,-.9,3.3,-.3,4.1,1.2c.9,1.4,.3,3.3,-1.2,4.1c-1.4,.8,-3.3,.3,-4.1,-1.2c-.9,-1.4,-.3,-3.3,1.2,-4.1Z" class="g1b_329"/>
<path d="M209.5,723.1c1.4,-.8,3.3,-.3,4.1,1.2c.8,1.4,.3,3.3,-1.2,4.1c-1.4,.8,-3.3,.3,-4.1,-1.2c-.8,-1.4,-.3,-3.3,1.2,-4.1Z" class="g1c_329"/>
<path d="M209.5,723.1c1.4,-.8,3.3,-.3,4.1,1.2c.8,1.4,.3,3.3,-1.2,4.1c-1.4,.8,-3.3,.3,-4.1,-1.2c-.8,-1.4,-.3,-3.3,1.2,-4.1Z" class="g1d_329"/>
<path d="M209.5,723.1c1.4,-.8,3.3,-.3,4.1,1.2c.8,1.4,.2,3.2,-1.2,4.1c-1.4,.8,-3.3,.2,-4.1,-1.2c-.8,-1.4,-.2,-3.3,1.2,-4.1Z" class="g1e_329"/>
<path d="M209.5,723.2c1.4,-.8,3.2,-.3,4,1.1c.8,1.4,.3,3.2,-1.1,4c-1.4,.8,-3.2,.3,-4,-1.1c-.8,-1.4,-.3,-3.2,1.1,-4Z" class="g1f_329"/>
<path d="M209.5,723.2c1.4,-.8,3.2,-.3,4,1.1c.8,1.4,.3,3.2,-1.1,4c-1.4,.8,-3.2,.3,-4,-1.1c-.8,-1.4,-.3,-3.2,1.1,-4Z" class="g1g_329"/>
<path d="M209.5,723.2c1.4,-.8,3.2,-.3,4,1.1c.8,1.4,.3,3.2,-1.1,4c-1.4,.8,-3.2,.3,-4,-1.1c-.8,-1.4,-.3,-3.2,1.1,-4Z" class="g1h_329"/>
<path d="M209.5,723.2c1.4,-.7,3.2,-.2,4,1.1c.7,1.4,.2,3.2,-1.1,4c-1.4,.7,-3.2,.2,-4,-1.2c-.7,-1.3,-.2,-3.1,1.1,-3.9Z" class="g1i_329"/>
<path d="M209.6,723.3c1.3,-.8,3.1,-.3,3.8,1.1c.8,1.3,.3,3.1,-1.1,3.8c-1.3,.8,-3.1,.3,-3.8,-1.1c-.8,-1.3,-.3,-3.1,1.1,-3.8Z" class="g1j_329"/>
<path d="M209.6,723.3c1.3,-.8,3.1,-.3,3.8,1.1c.8,1.3,.3,3,-1.1,3.8c-1.3,.8,-3.1,.3,-3.8,-1.1c-.8,-1.3,-.3,-3.1,1.1,-3.8Z" class="g1k_329"/>
<path d="M209.6,723.3c1.3,-.8,3,-.3,3.8,1.1c.7,1.3,.3,3,-1.1,3.8c-1.3,.7,-3,.3,-3.8,-1.1c-.7,-1.3,-.3,-3,1.1,-3.8Z" class="g1l_329"/>
<path d="M209.6,723.3c1.3,-.7,3,-.2,3.8,1.1c.7,1.3,.2,3,-1.1,3.8c-1.3,.7,-3,.2,-3.8,-1.1c-.7,-1.3,-.2,-3,1.1,-3.8Z" class="g1m_329"/>
<path d="M209.6,723.3c1.3,-.7,3,-.2,3.7,1.1c.8,1.3,.3,3,-1,3.7c-1.3,.8,-3,.3,-3.7,-1c-.8,-1.3,-.3,-3,1,-3.8Z" class="g1n_329"/>
<path d="M209.6,723.4c1.3,-.8,3,-.3,3.7,1c.8,1.3,.3,3,-1,3.7c-1.3,.7,-3,.3,-3.7,-1c-.8,-1.3,-.3,-3,1,-3.7Z" class="g1o_329"/>
<path d="M209.6,723.4c1.3,-.7,3,-.3,3.7,1c.7,1.3,.3,3,-1,3.7c-1.3,.7,-3,.3,-3.7,-1c-.7,-1.3,-.3,-3,1,-3.7Z" class="g1p_329"/>
<path d="M209.7,723.4c1.2,-.7,2.9,-.2,3.6,1c.7,1.3,.2,3,-1.1,3.7c-1.2,.7,-2.9,.2,-3.6,-1.1c-.7,-1.2,-.2,-2.9,1.1,-3.6Z" class="g1q_329"/>
<path d="M209.7,723.4c1.2,-.7,2.8,-.2,3.6,1.1c.7,1.2,.2,2.8,-1.1,3.5c-1.2,.8,-2.8,.3,-3.6,-1c-.7,-1.2,-.2,-2.9,1.1,-3.6Z" class="g1r_329"/>
<path d="M209.7,723.5c1.2,-.7,2.8,-.3,3.5,1c.7,1.2,.3,2.8,-1,3.5c-1.2,.7,-2.8,.3,-3.5,-1c-.7,-1.2,-.3,-2.8,1,-3.5Z" class="g1s_329"/>
<path d="M209.7,723.5c1.2,-.7,2.8,-.3,3.5,1c.7,1.2,.3,2.8,-1,3.5c-1.2,.7,-2.8,.2,-3.5,-1c-.7,-1.2,-.3,-2.8,1,-3.5Z" class="g1t_329"/>
<path d="M209.7,723.5c1.2,-.7,2.8,-.2,3.5,1c.7,1.2,.2,2.8,-1,3.5c-1.2,.7,-2.8,.2,-3.5,-1c-.7,-1.2,-.2,-2.8,1,-3.5Z" class="g1u_329"/>
<path d="M209.7,723.5c1.2,-.6,2.8,-.2,3.5,1c.6,1.2,.2,2.8,-1,3.5c-1.2,.6,-2.8,.2,-3.5,-1c-.6,-1.2,-.2,-2.8,1,-3.5Z" class="g1v_329"/>
<path d="M209.7,723.6c1.2,-.7,2.8,-.3,3.4,.9c.7,1.2,.3,2.8,-.9,3.4c-1.2,.7,-2.8,.3,-3.4,-.9c-.7,-1.2,-.3,-2.8,.9,-3.4Z" class="g1w_329"/>
<path d="M209.7,723.6c1.2,-.7,2.7,-.3,3.4,.9c.7,1.2,.3,2.7,-.9,3.4c-1.2,.7,-2.7,.2,-3.4,-1c-.7,-1.1,-.2,-2.7,.9,-3.3Z" class="g1x_329"/>
<path d="M209.8,723.6c1.1,-.7,2.6,-.2,3.3,1c.6,1.1,.2,2.6,-1,3.3c-1.1,.6,-2.6,.2,-3.3,-1c-.6,-1.1,-.2,-2.6,1,-3.3Z" class="g1y_329"/>
<path d="M209.8,723.6c1.1,-.6,2.6,-.2,3.3,1c.6,1.1,.2,2.6,-1,3.3c-1.1,.6,-2.6,.2,-3.3,-1c-.6,-1.1,-.2,-2.6,1,-3.3Z" class="g1z_329"/>
<path d="M209.8,723.7c1.1,-.7,2.6,-.3,3.2,.9c.7,1.1,.3,2.6,-.9,3.2c-1.1,.7,-2.6,.3,-3.2,-.9c-.7,-1.1,-.3,-2.6,.9,-3.2Z" class="g20_329"/>
<path d="M209.8,723.7c1.1,-.7,2.6,-.3,3.2,.9c.7,1.1,.2,2.6,-.9,3.2c-1.1,.7,-2.6,.2,-3.2,-.9c-.7,-1.1,-.2,-2.6,.9,-3.2Z" class="g20_329"/>
<path d="M209.8,723.7c1.1,-.6,2.6,-.2,3.2,.9c.6,1.1,.2,2.6,-.9,3.2c-1.1,.6,-2.6,.2,-3.2,-.9c-.6,-1.1,-.2,-2.6,.9,-3.2Z" class="g21_329"/>
<path d="M209.8,723.7c1.1,-.6,2.5,-.2,3.2,.9c.6,1.1,.2,2.5,-.9,3.2c-1.1,.6,-2.5,.2,-3.2,-.9c-.6,-1.1,-.2,-2.6,.9,-3.2Z" class="g22_329"/>
<path d="M209.8,723.7c1.1,-.6,2.5,-.2,3.1,.9c.7,1.1,.3,2.5,-.8,3.1c-1.1,.7,-2.5,.3,-3.1,-.8c-.7,-1.1,-.3,-2.5,.8,-3.2Z" class="g23_329"/>
<path d="M209.8,723.8c1.1,-.6,2.5,-.2,3.1,.8c.6,1.1,.2,2.5,-.8,3.1c-1.1,.6,-2.5,.2,-3.1,-.9c-.6,-1,-.2,-2.4,.8,-3Z" class="g24_329"/>
<path d="M209.9,723.8c1,-.6,2.4,-.2,3,.9c.6,1,.2,2.4,-.9,3c-1,.6,-2.4,.2,-3,-.9c-.6,-1,-.2,-2.4,.9,-3Z" class="g25_329"/>
<path d="M209.9,723.8c1,-.6,2.4,-.2,3,.9c.6,1,.2,2.4,-.9,3c-1,.6,-2.4,.2,-3,-.9c-.6,-1,-.2,-2.4,.9,-3Z" class="g26_329"/>
<path d="M209.9,723.8c1,-.5,2.4,-.2,3,.9c.5,1,.2,2.4,-.9,2.9c-1,.6,-2.4,.3,-3,-.8c-.5,-1,-.2,-2.4,.9,-3Z" class="g27_329"/>
<path d="M209.9,723.9c1,-.6,2.4,-.2,2.9,.8c.6,1,.2,2.3,-.8,2.9c-1,.6,-2.4,.2,-2.9,-.8c-.6,-1,-.2,-2.4,.8,-2.9Z" class="g28_329"/>
<path d="M209.9,723.9c1,-.6,2.3,-.2,2.9,.8c.6,1,.2,2.3,-.8,2.9c-1,.6,-2.3,.2,-2.9,-.8c-.6,-1,-.2,-2.3,.8,-2.9Z" class="g29_329"/>
<path d="M209.9,723.9c1,-.6,2.3,-.2,2.9,.8c.6,1,.2,2.3,-.8,2.9c-1,.5,-2.3,.2,-2.9,-.8c-.5,-1,-.2,-2.3,.8,-2.9Z" class="g2a_329"/>
<path d="M209.9,723.9c1,-.5,2.3,-.2,2.9,.8c.5,1,.2,2.3,-.8,2.9c-1,.5,-2.3,.2,-2.9,-.8c-.5,-1,-.2,-2.3,.8,-2.9Z" class="g2b_329"/>
<path d="M210,724c.9,-.6,2.2,-.2,2.7,.7c.6,1,.2,2.3,-.8,2.8c-.9,.6,-2.2,.2,-2.7,-.8c-.6,-.9,-.2,-2.2,.8,-2.7Z" class="g2c_329"/>
<path d="M210,724c.9,-.6,2.2,-.2,2.7,.8c.6,.9,.2,2.2,-.8,2.7c-.9,.6,-2.2,.2,-2.7,-.8c-.6,-.9,-.2,-2.2,.8,-2.7Z" class="g2c_329"/>
<path d="M210,724c.9,-.5,2.2,-.2,2.7,.8c.5,.9,.2,2.1,-.8,2.7c-.9,.5,-2.2,.2,-2.7,-.8c-.5,-.9,-.2,-2.2,.8,-2.7Z" class="g2d_329"/>
<path d="M210,724c.9,-.5,2.1,-.2,2.7,.8c.5,.9,.2,2.1,-.8,2.7c-.9,.5,-2.1,.1,-2.7,-.8c-.5,-.9,-.2,-2.1,.8,-2.7Z" class="g2e_329"/>
<path d="M210,724c.9,-.5,2.1,-.1,2.6,.8c.6,.9,.2,2.1,-.7,2.6c-.9,.6,-2.1,.2,-2.6,-.7c-.6,-.9,-.2,-2.1,.7,-2.7Z" class="g2f_329"/>
<path d="M210,724.1c.9,-.5,2.1,-.2,2.6,.7c.5,.9,.2,2.1,-.7,2.6c-.9,.5,-2.1,.2,-2.6,-.7c-.5,-.9,-.2,-2.1,.7,-2.6Z" class="g2f_329"/>
<path d="M210,724.1c.9,-.5,2.1,-.2,2.6,.7c.5,.9,.2,2.1,-.7,2.6c-.9,.5,-2.1,.2,-2.6,-.7c-.5,-.9,-.2,-2.1,.7,-2.6Z" class="g2g_329"/>
<path d="M210,724.1c.9,-.5,2.1,-.2,2.6,.7c.5,.9,.2,2.1,-.7,2.6c-.9,.5,-2.1,.1,-2.6,-.7c-.5,-.9,-.1,-2.1,.7,-2.6Z" class="g2h_329"/>
<path d="M210.1,724.1c.8,-.4,2,-.1,2.4,.7c.5,.9,.2,2.1,-.7,2.5c-.8,.5,-2,.2,-2.4,-.7c-.5,-.8,-.2,-2,.7,-2.5Z" class="g2i_329"/>
<path d="M210.1,724.2c.8,-.5,1.9,-.2,2.4,.7c.5,.8,.2,1.9,-.7,2.4c-.8,.5,-1.9,.2,-2.4,-.7c-.5,-.8,-.2,-1.9,.7,-2.4Z" class="g2j_329"/>
<path d="M210.1,724.2c.8,-.5,1.9,-.2,2.4,.7c.5,.8,.2,1.9,-.7,2.4c-.8,.5,-1.9,.2,-2.4,-.7c-.5,-.8,-.2,-1.9,.7,-2.4Z" class="g2k_329"/>
</g>
<path d="M210.9,721.9c-2.1,0,-3.8,1.7,-3.8,3.8c0,2.2,1.7,3.9,3.8,3.9c2.2,0,3.9,-1.7,3.9,-3.9c0,-2.1,-1.7,-3.8,-3.9,-3.8m0,8.4c-2.5,0,-4.5,-2,-4.5,-4.6c0,-2.5,2,-4.5,4.5,-4.5c2.6,0,4.6,2,4.6,4.5c0,2.6,-2,4.6,-4.6,4.6Z" class="g2l_329"/>
<image clip-path="url(#c6_329)" x="206" y="721" width="9" height="9" xlink:href="shade/2.png"/>
<path d="M210.5,721.5c-2,0,-3.6,1.6,-3.6,3.7c0,2,1.6,3.6,3.6,3.6c2.1,0,3.7,-1.6,3.7,-3.6c0,-2.1,-1.6,-3.7,-3.7,-3.7m0,8c-2.4,0,-4.3,-1.9,-4.3,-4.3c0,-2.4,1.9,-4.4,4.3,-4.4c2.4,0,4.4,2,4.4,4.4c0,2.4,-2,4.3,-4.4,4.3Z" class="g2l_329"/>
<image clip-path="url(#c7_329)" x="206" y="720" width="7" height="8" xlink:href="shade/3.png"/>
<path d="M209.7,721c-1,.1,-3.2,1.5,-3.2,2.2c.1,.2,.5,.7,2.6,2.8c.4,.4,.9,.8,1.4,.8c.9,0,1.7,-.8,1.7,-1.6c0,-.5,-.3,-1,-.6,-1.5c-.3,-.3,-.6,-.8,-.9,-1.3c-.3,-.5,-.8,-1.2,-1,-1.4m.8,6.4c-.7,0,-1.4,-.4,-1.9,-.9c-2.6,-2.5,-2.8,-3,-2.8,-3.3c0,-1.3,2.8,-2.9,4,-2.9c.4,.1,.7,.6,1.5,1.8c.3,.4,.6,.9,.8,1.2c.3,.3,.7,1,.7,1.9c0,1.2,-1,2.2,-2.3,2.2Z" class="g2l_329"/>
<image clip-path="url(#c8_329)" x="205" y="720" width="6" height="5" xlink:href="shade/4.png"/>
<path d="M208.5,720.5q-.1,0,-.2,0c-1,.1,-1.8,1,-1.9,1.9c0,.5,.1,1,.4,1.3c.4,.3,.8,.5,1.3,.5c1.1,0,2.1,-.9,2.1,-2c0,-1,-.7,-1.7,-1.7,-1.7m-.4,4.4c-.7,0,-1.3,-.3,-1.8,-.7c-.4,-.5,-.6,-1.2,-.6,-1.8c.1,-1.3,1.2,-2.4,2.5,-2.6c1.5,-.1,2.7,1,2.7,2.4c0,1.5,-1.3,2.7,-2.8,2.7Z" class="g2l_329"/>
<g clip-path="url(#c9_329)">
<path d="M745.4,729.8h8.5v-8.5h-8.5v8.5Z" class="gc_329"/>
<path d="M751.6,721.9c-2,-1.1,-4.5,-.4,-5.6,1.6c-1.1,2,-.4,4.5,1.6,5.7c2,1.1,4.5,.4,5.6,-1.6c1.2,-2,.4,-4.6,-1.6,-5.7Z" class="gc_329"/>
<path d="M751.6,721.9c-2,-1.1,-4.5,-.4,-5.6,1.6c-1.1,2,-.4,4.5,1.6,5.6c2,1.1,4.5,.4,5.6,-1.6c1.1,-1.9,.4,-4.4,-1.6,-5.6Z" class="gd_329"/>
<path d="M751.6,722c-2,-1.1,-4.4,-.4,-5.5,1.5c-1.1,2,-.4,4.5,1.5,5.6c2,1.1,4.5,.4,5.6,-1.6c1.1,-1.9,.4,-4.4,-1.6,-5.5Z" class="gd_329"/>
<path d="M751.6,722c-2,-1.1,-4.4,-.4,-5.5,1.6c-1.1,1.9,-.4,4.4,1.6,5.5c1.9,1.1,4.4,.4,5.5,-1.6c1.1,-1.9,.4,-4.4,-1.6,-5.5Z" class="ge_329"/>
<path d="M751.6,722c-2,-1.1,-4.4,-.4,-5.5,1.6c-1.1,1.9,-.4,4.4,1.6,5.5c1.9,1,4.4,.4,5.5,-1.6c1,-1.9,.3,-4.4,-1.6,-5.5Z" class="ge_329"/>
<path d="M751.6,722c-2,-1,-4.4,-.3,-5.5,1.6c-1,1.9,-.4,4.4,1.6,5.4c1.9,1.1,4.4,.4,5.4,-1.5c1.1,-1.9,.4,-4.4,-1.5,-5.5Z" class="gf_329"/>
<path d="M751.6,722.1c-2,-1.1,-4.4,-.4,-5.4,1.5c-1.1,1.9,-.4,4.3,1.5,5.4c1.9,1.1,4.3,.4,5.4,-1.5c1.1,-1.9,.4,-4.4,-1.5,-5.4Z" class="gf_329"/>
<path d="M751.6,722.1c-2,-1.1,-4.4,-.4,-5.4,1.5c-1.1,1.9,-.4,4.3,1.5,5.4c1.9,1.1,4.3,.4,5.4,-1.5c1,-1.9,.4,-4.3,-1.5,-5.4Z" class="gg_329"/>
<path d="M751.5,722.1c-1.9,-1,-4.2,-.4,-5.3,1.5c-1.1,1.9,-.4,4.3,1.5,5.4c1.9,1,4.3,.3,5.4,-1.5c1,-1.9,.3,-4.3,-1.6,-5.4Z" class="gg_329"/>
<path d="M751.5,722.1c-1.9,-1,-4.2,-.3,-5.3,1.5c-1,1.9,-.3,4.3,1.5,5.3c1.9,1.1,4.3,.4,5.3,-1.5c1.1,-1.8,.4,-4.2,-1.5,-5.3Z" class="gh_329"/>
<path d="M751.5,722.2c-1.9,-1.1,-4.2,-.4,-5.2,1.5c-1.1,1.8,-.4,4.2,1.4,5.2c1.9,1.1,4.3,.4,5.3,-1.5c1.1,-1.8,.4,-4.2,-1.5,-5.2Z" class="gi_329"/>
<path d="M751.5,722.2c-1.9,-1.1,-4.2,-.4,-5.2,1.5c-1.1,1.8,-.4,4.2,1.5,5.2c1.8,1,4.2,.4,5.2,-1.5c1,-1.8,.4,-4.2,-1.5,-5.2Z" class="gj_329"/>
<path d="M751.5,722.2c-1.9,-1,-4.2,-.4,-5.2,1.5c-1,1.8,-.4,4.1,1.5,5.2c1.8,1,4.1,.3,5.2,-1.5c1,-1.8,.3,-4.2,-1.5,-5.2Z" class="gk_329"/>
<path d="M751.5,722.2c-1.9,-1,-4.2,-.3,-5.2,1.5c-1,1.8,-.3,4.1,1.5,5.1c1.8,1.1,4.1,.4,5.1,-1.4c1.1,-1.8,.4,-4.2,-1.4,-5.2Z" class="gl_329"/>
<path d="M751.5,722.3c-1.9,-1.1,-4.1,-.4,-5.2,1.4c-1,1.8,-.3,4.1,1.5,5.1c1.8,1,4.1,.4,5.1,-1.4c1,-1.8,.4,-4.1,-1.4,-5.1Z" class="gm_329"/>
<path d="M751.4,722.3c-1.8,-1,-4,-.4,-5,1.4c-1,1.8,-.4,4.1,1.4,5.1c1.8,1,4.1,.4,5.1,-1.4c1,-1.8,.4,-4.1,-1.5,-5.1Z" class="gn_329"/>
<path d="M751.4,722.3c-1.8,-1,-4,-.4,-5,1.4c-1,1.8,-.4,4.1,1.4,5.1c1.8,1,4.1,.3,5.1,-1.5c1,-1.7,.3,-4,-1.5,-5Z" class="go_329"/>
<path d="M751.4,722.3c-1.8,-1,-4,-.3,-5,1.4c-1,1.8,-.3,4.1,1.4,5.1c1.8,.9,4.1,.3,5.1,-1.5c.9,-1.7,.3,-4,-1.5,-5Z" class="gp_329"/>
<path d="M751.4,722.3c-1.8,-.9,-4,-.3,-5,1.5c-.9,1.7,-.3,4,1.4,4.9c1.8,1,4,.4,5,-1.4c1,-1.7,.4,-4,-1.4,-5Z" class="gq_329"/>
<path d="M751.4,722.4c-1.8,-1,-4,-.4,-4.9,1.4c-1,1.7,-.4,3.9,1.4,4.9c1.7,1,3.9,.4,4.9,-1.4c1,-1.7,.4,-4,-1.4,-4.9Z" class="gr_329"/>
<path d="M751.4,722.4c-1.8,-1,-3.9,-.4,-4.9,1.4c-1,1.7,-.4,3.9,1.4,4.9c1.7,1,3.9,.3,4.9,-1.4c.9,-1.7,.3,-3.9,-1.4,-4.9Z" class="gs_329"/>
<path d="M751.4,722.4c-1.8,-.9,-3.9,-.3,-4.9,1.4c-1,1.7,-.3,3.9,1.4,4.9c1.7,.9,3.9,.3,4.9,-1.4c.9,-1.7,.3,-3.9,-1.4,-4.9Z" class="gt_329"/>
<path d="M751.4,722.4c-1.8,-.9,-3.9,-.3,-4.9,1.4c-.9,1.7,-.3,3.9,1.4,4.8c1.7,1,3.9,.4,4.8,-1.3c1,-1.7,.4,-3.9,-1.3,-4.9Z" class="gu_329"/>
<path d="M751.3,722.5c-1.7,-1,-3.8,-.4,-4.7,1.3c-1,1.7,-.4,3.9,1.3,4.8c1.7,1,3.9,.4,4.8,-1.3c1,-1.7,.3,-3.9,-1.4,-4.8Z" class="gv_329"/>
<path d="M751.3,722.5c-1.7,-1,-3.8,-.4,-4.7,1.3c-1,1.7,-.4,3.9,1.3,4.8c1.7,.9,3.8,.3,4.8,-1.4c.9,-1.6,.3,-3.8,-1.4,-4.7Z" class="gw_329"/>
<path d="M751.3,722.5c-1.7,-.9,-3.8,-.3,-4.7,1.3c-.9,1.7,-.3,3.8,1.3,4.8c1.7,.9,3.8,.3,4.8,-1.4c.9,-1.6,.3,-3.8,-1.4,-4.7Z" class="gx_329"/>
<path d="M751.3,722.5c-1.7,-.9,-3.8,-.3,-4.7,1.4c-.9,1.6,-.3,3.7,1.4,4.6c1.6,1,3.7,.4,4.6,-1.3c1,-1.6,.4,-3.7,-1.3,-4.7Z" class="gy_329"/>
<path d="M751.3,722.6c-1.7,-1,-3.7,-.4,-4.7,1.3c-.9,1.6,-.3,3.7,1.4,4.6c1.6,.9,3.7,.4,4.6,-1.3c.9,-1.6,.3,-3.7,-1.3,-4.6Z" class="gz_329"/>
<path d="M751.3,722.6c-1.7,-.9,-3.7,-.3,-4.6,1.3c-.9,1.6,-.4,3.7,1.3,4.6c1.6,.9,3.7,.3,4.6,-1.3c.9,-1.6,.3,-3.7,-1.3,-4.6Z" class="g10_329"/>
<path d="M751.3,722.6c-1.7,-.9,-3.7,-.3,-4.6,1.3c-.9,1.6,-.3,3.7,1.3,4.6c1.6,.9,3.7,.3,4.6,-1.3c.9,-1.6,.3,-3.7,-1.3,-4.6Z" class="g11_329"/>
<path d="M751.3,722.6c-1.7,-.9,-3.7,-.3,-4.6,1.3c-.9,1.6,-.3,3.7,1.3,4.6c1.6,.8,3.6,.3,4.5,-1.3c.9,-1.6,.4,-3.7,-1.2,-4.6Z" class="g12_329"/>
<path d="M751.2,722.7c-1.6,-.9,-3.6,-.4,-4.5,1.2c-.8,1.6,-.3,3.6,1.3,4.5c1.6,.9,3.6,.3,4.5,-1.3c.9,-1.5,.3,-3.6,-1.3,-4.4Z" class="g13_329"/>
<path d="M751.2,722.7c-1.6,-.9,-3.5,-.3,-4.4,1.2c-.9,1.6,-.3,3.6,1.2,4.5c1.6,.9,3.6,.3,4.5,-1.3c.9,-1.5,.3,-3.5,-1.3,-4.4Z" class="g14_329"/>
<path d="M751.2,722.7c-1.6,-.9,-3.5,-.3,-4.4,1.3c-.9,1.5,-.3,3.5,1.2,4.4c1.6,.9,3.6,.3,4.5,-1.3c.8,-1.5,.3,-3.5,-1.3,-4.4Z" class="g15_329"/>
<path d="M751.2,722.7c-1.6,-.8,-3.5,-.3,-4.4,1.3c-.9,1.5,-.3,3.5,1.3,4.4c1.5,.8,3.5,.3,4.4,-1.3c.8,-1.5,.3,-3.5,-1.3,-4.4Z" class="g16_329"/>
<path d="M751.2,722.7c-1.6,-.8,-3.5,-.3,-4.4,1.3c-.8,1.5,-.3,3.5,1.3,4.3c1.5,.9,3.5,.3,4.3,-1.2c.9,-1.5,.3,-3.5,-1.2,-4.4Z" class="g17_329"/>
<path d="M751.2,722.8c-1.6,-.9,-3.5,-.3,-4.3,1.2c-.9,1.5,-.3,3.5,1.2,4.3c1.5,.9,3.5,.3,4.3,-1.2c.9,-1.5,.3,-3.5,-1.2,-4.3Z" class="g18_329"/>
<path d="M751.2,722.8c-1.6,-.9,-3.5,-.3,-4.3,1.2c-.9,1.5,-.3,3.4,1.2,4.3c1.5,.8,3.4,.3,4.3,-1.2c.8,-1.5,.3,-3.5,-1.2,-4.3Z" class="g18_329"/>
<path d="M751.2,722.8c-1.6,-.8,-3.5,-.3,-4.3,1.2c-.8,1.5,-.3,3.4,1.2,4.3c1.5,.8,3.4,.3,4.3,-1.2c.8,-1.5,.3,-3.4,-1.2,-4.3Z" class="g19_329"/>
<path d="M751.1,722.8c-1.5,-.8,-3.3,-.3,-4.2,1.2c-.8,1.5,-.3,3.4,1.2,4.2c1.5,.9,3.4,.3,4.2,-1.2c.9,-1.4,.3,-3.3,-1.2,-4.2Z" class="g1a_329"/>
<path d="M751.1,722.9c-1.5,-.9,-3.3,-.3,-4.1,1.1c-.9,1.5,-.3,3.4,1.1,4.2c1.5,.8,3.4,.3,4.2,-1.2c.8,-1.4,.3,-3.3,-1.2,-4.1Z" class="g1b_329"/>
<path d="M751.1,722.9c-1.5,-.8,-3.3,-.3,-4.1,1.2c-.8,1.4,-.3,3.3,1.1,4.1c1.5,.8,3.4,.3,4.2,-1.2c.8,-1.4,.3,-3.3,-1.2,-4.1Z" class="g1c_329"/>
<path d="M751.1,722.9c-1.5,-.8,-3.3,-.3,-4.1,1.2c-.8,1.4,-.3,3.3,1.2,4.1c1.4,.8,3.2,.3,4.1,-1.2c.8,-1.4,.3,-3.3,-1.2,-4.1Z" class="g1d_329"/>
<path d="M751.1,722.9c-1.5,-.8,-3.3,-.3,-4.1,1.2c-.8,1.4,-.3,3.2,1.2,4c1.4,.9,3.2,.3,4,-1.1c.8,-1.4,.3,-3.3,-1.1,-4.1Z" class="g1e_329"/>
<path d="M751.1,723c-1.5,-.8,-3.3,-.3,-4.1,1.1c-.8,1.4,-.2,3.2,1.2,4c1.4,.8,3.2,.3,4,-1.1c.8,-1.4,.3,-3.2,-1.1,-4Z" class="g1f_329"/>
<path d="M751.1,723c-1.5,-.8,-3.2,-.3,-4,1.1c-.8,1.4,-.3,3.2,1.1,4c1.4,.8,3.2,.3,4,-1.1c.8,-1.4,.3,-3.2,-1.1,-4Z" class="g1g_329"/>
<path d="M751,723c-1.4,-.8,-3.1,-.3,-3.9,1.1c-.8,1.4,-.3,3.2,1.1,4c1.4,.8,3.2,.3,4,-1.1c.8,-1.4,.2,-3.2,-1.2,-4Z" class="g1h_329"/>
<path d="M751,723c-1.4,-.7,-3.1,-.3,-3.9,1.1c-.8,1.4,-.3,3.2,1.1,4c1.4,.7,3.2,.2,3.9,-1.2c.8,-1.3,.3,-3.1,-1.1,-3.9Z" class="g1i_329"/>
<path d="M751,723c-1.4,-.7,-3.1,-.2,-3.9,1.2c-.7,1.3,-.2,3.1,1.1,3.8c1.4,.8,3.2,.3,3.9,-1.1c.8,-1.3,.3,-3.1,-1.1,-3.9Z" class="g1j_329"/>
<path d="M751,723.1c-1.4,-.8,-3.1,-.3,-3.8,1.1c-.8,1.3,-.3,3,1.1,3.8c1.3,.8,3,.3,3.8,-1.1c.8,-1.3,.3,-3.1,-1.1,-3.8Z" class="g1k_329"/>
<path d="M751,723.1c-1.4,-.8,-3.1,-.3,-3.8,1.1c-.8,1.3,-.3,3,1.1,3.8c1.3,.7,3,.3,3.8,-1.1c.7,-1.3,.2,-3.1,-1.1,-3.8Z" class="g1l_329"/>
<path d="M751,723.1c-1.4,-.7,-3,-.2,-3.8,1.1c-.7,1.3,-.3,3,1.1,3.8c1.3,.7,3,.2,3.7,-1.1c.8,-1.3,.3,-3,-1,-3.8Z" class="g1m_329"/>
<path d="M751,723.1c-1.4,-.7,-3,-.2,-3.8,1.1c-.7,1.3,-.2,3,1.1,3.7c1.3,.8,3,.3,3.7,-1c.8,-1.3,.3,-3,-1,-3.8Z" class="g1n_329"/>
<path d="M751,723.2c-1.4,-.8,-3,-.3,-3.7,1c-.8,1.3,-.3,3,1,3.7c1.3,.7,3,.3,3.7,-1c.7,-1.3,.3,-3,-1,-3.7Z" class="g1o_329"/>
<path d="M750.9,723.2c-1.3,-.7,-2.9,-.3,-3.6,1c-.7,1.3,-.3,3,1,3.7c1.3,.7,3,.2,3.7,-1c.7,-1.3,.2,-3,-1.1,-3.7Z" class="g1p_329"/>
<path d="M750.9,723.2c-1.3,-.7,-2.9,-.2,-3.6,1c-.7,1.3,-.3,2.9,1,3.7c1.3,.7,2.9,.2,3.7,-1.1c.7,-1.2,.2,-2.9,-1.1,-3.6Z" class="g1q_329"/>
<path d="M750.9,723.2c-1.3,-.7,-2.9,-.2,-3.6,1.1c-.7,1.2,-.2,2.8,1,3.5c1.3,.8,2.9,.3,3.6,-1c.7,-1.2,.3,-2.9,-1,-3.6Z" class="g1r_329"/>
<path d="M750.9,723.3c-1.3,-.7,-2.8,-.3,-3.5,1c-.8,1.2,-.3,2.8,1,3.5c1.2,.7,2.8,.3,3.5,-1c.7,-1.2,.3,-2.8,-1,-3.5Z" class="g1s_329"/>
<path d="M750.9,723.3c-1.3,-.7,-2.8,-.3,-3.5,1c-.7,1.2,-.3,2.8,1,3.5c1.2,.7,2.8,.2,3.5,-1c.7,-1.2,.2,-2.8,-1,-3.5Z" class="g1t_329"/>
<path d="M750.9,723.3c-1.3,-.7,-2.8,-.2,-3.5,1c-.7,1.2,-.3,2.8,1,3.5c1.2,.7,2.8,.2,3.5,-1c.7,-1.2,.2,-2.8,-1,-3.5Z" class="g1u_329"/>
<path d="M750.9,723.3c-1.3,-.6,-2.8,-.2,-3.5,1c-.7,1.2,-.2,2.8,1,3.5c1.2,.6,2.8,.2,3.4,-1c.7,-1.2,.3,-2.8,-.9,-3.5Z" class="g1v_329"/>
<path d="M750.8,723.4c-1.2,-.7,-2.7,-.3,-3.4,.9c-.6,1.2,-.2,2.8,1,3.4c1.2,.7,2.7,.3,3.4,-.9c.7,-1.2,.3,-2.8,-1,-3.4Z" class="g1w_329"/>
<path d="M750.8,723.4c-1.2,-.7,-2.7,-.3,-3.3,.9c-.7,1.2,-.3,2.7,.9,3.4c1.2,.7,2.7,.2,3.4,-1c.7,-1.1,.2,-2.7,-1,-3.3Z" class="g1x_329"/>
<path d="M750.8,723.4c-1.2,-.7,-2.7,-.2,-3.3,.9c-.7,1.2,-.2,2.7,.9,3.4c1.2,.6,2.7,.2,3.4,-1c.6,-1.1,.2,-2.6,-1,-3.3Z" class="g1y_329"/>
<path d="M750.8,723.4c-1.2,-.6,-2.6,-.2,-3.3,1c-.6,1.1,-.2,2.6,.9,3.3c1.2,.6,2.7,.2,3.3,-1c.7,-1.1,.3,-2.6,-.9,-3.3Z" class="g1z_329"/>
<path d="M750.8,723.4c-1.2,-.6,-2.6,-.2,-3.3,1c-.6,1.1,-.2,2.6,1,3.2c1.1,.7,2.6,.3,3.2,-.9c.7,-1.1,.3,-2.6,-.9,-3.3Z" class="g20_329"/>
<path d="M750.8,723.5c-1.2,-.7,-2.6,-.3,-3.2,.9c-.7,1.1,-.3,2.6,.9,3.2c1.1,.6,2.6,.2,3.2,-.9c.6,-1.1,.2,-2.6,-.9,-3.2Z" class="g20_329"/>
<path d="M750.8,723.5c-1.2,-.6,-2.6,-.2,-3.2,.9c-.6,1.1,-.2,2.6,.9,3.2c1.1,.6,2.5,.2,3.2,-.9c.6,-1.2,.2,-2.6,-.9,-3.2Z" class="g21_329"/>
<path d="M750.8,723.5c-1.2,-.6,-2.6,-.2,-3.2,.9c-.6,1.1,-.2,2.5,.9,3.2c1.1,.6,2.5,.2,3.1,-.9c.7,-1.2,.3,-2.6,-.8,-3.2Z" class="g22_329"/>
<path d="M750.7,723.5c-1.1,-.6,-2.5,-.2,-3.1,.9c-.6,1.1,-.2,2.5,.9,3.1c1.1,.7,2.5,.3,3.1,-.8c.6,-1.1,.2,-2.5,-.9,-3.2Z" class="g23_329"/>
<path d="M750.7,723.6c-1.1,-.6,-2.4,-.3,-3,.8c-.7,1.1,-.3,2.5,.8,3.1c1.1,.6,2.5,.2,3.1,-.9c.6,-1,.2,-2.4,-.9,-3Z" class="g24_329"/>
<path d="M750.7,723.6c-1.1,-.6,-2.4,-.2,-3,.8c-.6,1.1,-.2,2.5,.8,3.1c1.1,.6,2.5,.2,3.1,-.9c.6,-1,.2,-2.4,-.9,-3Z" class="g25_329"/>
<path d="M750.7,723.6c-1.1,-.6,-2.4,-.2,-3,.9c-.6,1,-.2,2.4,.9,3c1,.6,2.4,.2,3,-.9c.6,-1,.2,-2.4,-.9,-3Z" class="g26_329"/>
<path d="M750.7,723.6c-1.1,-.6,-2.4,-.2,-3,.9c-.6,1,-.2,2.4,.9,2.9c1,.6,2.4,.3,2.9,-.8c.6,-1,.2,-2.4,-.8,-3Z" class="g27_329"/>
<path d="M750.7,723.7c-1.1,-.6,-2.4,-.2,-2.9,.8c-.6,1,-.3,2.3,.8,2.9c1,.6,2.3,.2,2.9,-.8c.6,-1,.2,-2.4,-.8,-2.9Z" class="g28_329"/>
<path d="M750.7,723.7c-1.1,-.6,-2.4,-.2,-2.9,.8c-.6,1,-.2,2.3,.8,2.9c1,.6,2.3,.2,2.9,-.8c.6,-1,.2,-2.3,-.8,-2.9Z" class="g29_329"/>
<path d="M750.7,723.7c-1.1,-.6,-2.3,-.2,-2.9,.8c-.6,1,-.2,2.3,.8,2.9c1,.5,2.3,.2,2.9,-.8c.5,-1,.2,-2.3,-.8,-2.9Z" class="g2a_329"/>
<path d="M750.6,723.7c-1,-.5,-2.2,-.2,-2.8,.8c-.5,1,-.2,2.3,.8,2.8c1,.6,2.3,.2,2.8,-.7c.6,-1.1,.2,-2.3,-.8,-2.9Z" class="g2b_329"/>
<path d="M750.6,723.8c-1,-.6,-2.2,-.2,-2.8,.7c-.5,1,-.2,2.3,.8,2.8c1,.6,2.3,.2,2.8,-.8c.6,-1,.2,-2.2,-.8,-2.7Z" class="g2c_329"/>
<path d="M750.6,723.8c-1,-.6,-2.2,-.2,-2.7,.8c-.6,.9,-.2,2.2,.7,2.7c1,.5,2.2,.2,2.8,-.8c.5,-.9,.2,-2.2,-.8,-2.7Z" class="g2c_329"/>
<path d="M750.6,723.8c-1,-.5,-2.2,-.2,-2.7,.8c-.5,.9,-.2,2.1,.8,2.7c.9,.5,2.1,.2,2.7,-.8c.5,-.9,.2,-2.2,-.8,-2.7Z" class="g2d_329"/>
<path d="M750.6,723.8c-1,-.5,-2.2,-.2,-2.7,.8c-.5,.9,-.2,2.1,.8,2.7c.9,.5,2.1,.1,2.6,-.8c.6,-.9,.2,-2.1,-.7,-2.7Z" class="g2e_329"/>
<path d="M750.6,723.8c-1,-.5,-2.1,-.1,-2.7,.8c-.5,.9,-.1,2.1,.8,2.6c.9,.6,2.1,.2,2.6,-.7c.5,-1,.2,-2.1,-.7,-2.7Z" class="g2f_329"/>
<path d="M750.6,723.9c-1,-.5,-2.1,-.2,-2.6,.7c-.6,.9,-.2,2.1,.7,2.6c.9,.5,2.1,.2,2.6,-.7c.5,-.9,.2,-2.1,-.7,-2.6Z" class="g2f_329"/>
<path d="M750.5,723.9c-.9,-.5,-2,-.2,-2.5,.7c-.5,.9,-.2,2.1,.7,2.6c.9,.5,2.1,.2,2.6,-.7c.5,-.9,.2,-2.1,-.8,-2.6Z" class="g2g_329"/>
<path d="M750.5,723.9c-.9,-.5,-2,-.2,-2.5,.7c-.5,.9,-.2,2.1,.7,2.6c.9,.5,2.1,.1,2.6,-.8c.5,-.9,.1,-2,-.8,-2.5Z" class="g2h_329"/>
<path d="M750.5,723.9c-.9,-.5,-2,-.1,-2.5,.7c-.5,.9,-.1,2,.7,2.5c.9,.5,2,.2,2.5,-.7c.5,-.8,.2,-2,-.7,-2.5Z" class="g2i_329"/>
<path d="M750.5,724c-.9,-.5,-2,-.2,-2.4,.7c-.5,.8,-.2,1.9,.6,2.4c.9,.5,2,.2,2.5,-.7c.5,-.9,.2,-2,-.7,-2.4Z" class="g2j_329"/>
<path d="M750.5,724c-.9,-.5,-1.9,-.2,-2.4,.7c-.5,.8,-.2,1.9,.7,2.4c.8,.5,1.9,.2,2.4,-.7c.5,-.9,.2,-1.9,-.7,-2.4Z" class="g2k_329"/>
</g>
<path d="M749.6,721.6c-2.1,0,-3.9,1.8,-3.9,3.9c0,2.2,1.8,3.9,3.9,3.9c2.2,0,3.9,-1.7,3.9,-3.9c0,-2.1,-1.7,-3.9,-3.9,-3.9m0,8.5c-2.5,0,-4.5,-2,-4.5,-4.6c0,-2.5,2,-4.5,4.5,-4.5c2.6,0,4.6,2,4.6,4.5c0,2.6,-2,4.6,-4.6,4.6Z" class="g2l_329"/>
<image clip-path="url(#ca_329)" x="746" y="720" width="9" height="9" xlink:href="shade/5.png"/>
<path d="M750,721.3c-2,0,-3.6,1.6,-3.6,3.7c0,2,1.6,3.6,3.6,3.6c2.1,0,3.7,-1.6,3.7,-3.6c0,-2.1,-1.6,-3.7,-3.7,-3.7m0,8c-2.4,0,-4.3,-1.9,-4.3,-4.3c0,-2.4,1.9,-4.4,4.3,-4.4c2.4,0,4.4,2,4.4,4.4c0,2.4,-2,4.3,-4.4,4.3Z" class="g2l_329"/>
<image clip-path="url(#cb_329)" x="748" y="720" width="7" height="7" xlink:href="shade/6.png"/>
<path d="M750.9,720.8c-.2,.2,-.7,.9,-1.1,1.4c-.2,.5,-.6,1,-.8,1.3c-.4,.5,-.6,1,-.6,1.5c0,.8,.8,1.6,1.6,1.6c.6,0,1.1,-.4,1.5,-.8c2,-2,2.5,-2.6,2.6,-2.8c0,-.7,-2.2,-2.2,-3.2,-2.2m-.9,6.4c-1.2,0,-2.2,-1,-2.2,-2.2c0,-.9,.4,-1.6,.7,-1.9c.2,-.3,.5,-.8,.8,-1.2c.7,-1.2,1.1,-1.7,1.4,-1.8c1.3,0,4,1.6,4,2.9c0,.4,-.4,1,-2.7,3.2c-.6,.6,-1.2,1,-2,1Z" class="g2l_329"/>
<image clip-path="url(#cc_329)" x="750" y="719" width="5" height="6" xlink:href="shade/7.png"/>
<path d="M752.1,720.3c-1,0,-1.7,.7,-1.7,1.7c0,1.1,.9,2,2.1,2c.5,0,.9,-.2,1.2,-.5c.4,-.3,.5,-.8,.5,-1.3c-.1,-1,-.9,-1.8,-1.9,-1.9q-.1,0,-.2,0m.4,4.4c-1.5,0,-2.8,-1.2,-2.8,-2.7c0,-1.4,1.2,-2.5,2.6,-2.4c1.3,.2,2.4,1.3,2.5,2.6c.1,.6,-.1,1.3,-.6,1.8c-.4,.4,-1,.7,-1.7,.7Z" class="g2l_329"/>
<image clip-path="url(#cd_329)" x="195" y="819" width="568" height="129" xlink:href="shade/8.png"/>
<path clip-path="url(#ce_329)" d="M198.2,785.1c-.1,13.6,-.3,27.4,-.5,40.8c-.7,42.6,-1.3,82.8,2.7,105.4c2.2,13,13.2,14.4,17.8,14.4c1,0,1.7,-.1,1.7,-.1l517.2,-3.7l9.8,-1.7l15.7,-13.9c-7.1,-32.4,-5.4,-86.5,-4.1,-125.9c.2,-5.4,.4,-10.6,.5,-15.3Zm20,161.1c-4.7,0,-16,-1.4,-18.3,-14.8c-4,-22.7,-3.4,-62.9,-2.7,-105.5c.2,-13.4,.5,-27.4,.5,-41.1c0,-.1,.2,-.2,.3,-.2H759.3c0,0,.1,0,.1,.1c.1,0,.1,.1,.1,.1c-.1,4.9,-.3,10.1,-.5,15.6c-1.3,39.5,-3,93.6,4.2,126c0,.1,-.1,.2,-.1,.2l-16,14.1H747l-9.9,1.7l-517.2,3.7c0,0,-.6,.1,-1.7,.1Z" class="gb_329"/>
<image clip-path="url(#cf_329)" x="209" y="920" width="568" height="28" xlink:href="shade/9.png"/>
<path d="M211.4,944.6c4.9,1.6,9.9,1.7,17.5,1.8c2,0,4.1,.1,6.5,.1c4.1,.2,14.2,.2,29.2,.2c60,0,475.7,-1,490.8,-2.9c8.5,-1.1,13.6,-3.7,15.4,-7.7c2,-4.8,-1.1,-10.8,-4.2,-15c-14.7,3.8,-378.9,4.4,-421.6,4.4c-55.5,0,-109.8,-.9,-126.7,-1.8c3.8,4,4.8,8.8,2.9,13.4c-1.7,4.3,-5.9,7.4,-9.8,7.5m53.2,2.6c-15,0,-25.1,0,-29.2,-.2c-2.4,0,-4.5,-.1,-6.5,-.1c-8.8,-.2,-14.1,-.3,-19.8,-2.6c-.1,0,-.2,-.2,-.2,-.3c.1,-.1,.2,-.2,.3,-.1c.6,.1,1.3,.2,1.9,.2c3.9,0,7.9,-3,9.7,-7.2c1.9,-4.5,.7,-9.4,-3.2,-13.3c-.1,-.1,-.1,-.2,-.1,-.3c0,-.1,.1,-.1,.2,-.1c16.1,.8,71.1,1.8,127.3,1.8c42.9,0,407.4,-.6,421.6,-4.4c.1,0,.3,0,.3,.1c3.2,4.3,6.5,10.5,4.3,15.6c-1.8,4.2,-7.1,6.9,-15.7,8c-15.1,1.9,-430.9,2.9,-490.9,2.9Z" class="gb_329"/>
<path d="M227,792.7c-.4,0,-.7,.1,-.9,.4c-.2,.2,-.3,.5,-.3,.8c0,.4,.1,.7,.3,.9c.2,.3,.5,.4,.9,.4c.3,0,.5,-.1,.8,-.4c.2,-.2,.3,-.5,.3,-.9c0,-.3,-.1,-.6,-.3,-.8c-.3,-.3,-.5,-.4,-.8,-.4Zm0,57.6c-.4,0,-.7,.1,-.9,.3c-.2,.3,-.3,.6,-.3,.9c0,.3,.1,.6,.3,.9c.2,.2,.5,.3,.9,.3c.3,0,.5,-.1,.8,-.3c.2,-.3,.3,-.6,.3,-.9c0,-.3,-.1,-.6,-.3,-.9c-.3,-.2,-.5,-.3,-.8,-.3Zm0,31.5c-.4,0,-.7,.2,-.9,.4c-.2,.2,-.3,.5,-.3,.9c0,.3,.1,.6,.3,.8c.2,.3,.5,.4,.9,.4c.3,0,.5,-.1,.8,-.4c.2,-.2,.3,-.5,.3,-.8c0,-.4,-.1,-.7,-.3,-.9c-.3,-.2,-.5,-.4,-.8,-.4Z" class="g2m_329"/>
<path d="M32.1,45.1H9.2m958.3,0h22.9M32.1,1331.3H9.2m958.3,0h22.9M45.1,32.1V9.2m0,1335.1v22.9M954.5,32.1V9.2m0,1335.1v22.9" class="g2n_329"/>
<path d="M32.1,45.1H9.2m958.3,0h22.9M32.1,1331.3H9.2m958.3,0h22.9M45.1,32.1V9.2m0,1335.1v22.9M954.5,32.1V9.2m0,1335.1v22.9" class="g2o_329"/>
<path d="M27.5,32.1H0m972.1,0h27.5M27.5,1344.3H0m972.1,0h27.5M32.1,27.5V0m0,1348.9v27.5M967.5,27.5V0m0,1348.9v27.5" class="g2n_329"/>
<path d="M27.5,32.1H0m972.1,0h27.5M27.5,1344.3H0m972.1,0h27.5M32.1,27.5V0m0,1348.9v27.5M967.5,27.5V0m0,1348.9v27.5" class="g2o_329"/>
</svg>