<?xml version="1.0" encoding="UTF-8" standalone="no"?>
<!DOCTYPE svg PUBLIC "-//W3C//DTD SVG 1.1//EN"
"http://www.w3.org/Graphics/SVG/1.1/DTD/svg11.dtd">
<svg viewBox="0 0 999 1376" version="1.1" xmlns="http://www.w3.org/2000/svg" xmlns:xlink="http://www.w3.org/1999/xlink">
<defs>
<style type="text/css"><![CDATA[
.g0_204{
fill: none;
stroke: #6381B7;
stroke-width: 0.763;
}
.g1_204{
fill: #D1E2EE;
}
.g2_204{
fill: #E9EAEB;
}
.g3_204{
fill: none;
stroke: #93BEDA;
stroke-width: 0.458;
stroke-miterlimit: 10;
}
.g4_204{
fill: #766FA6;
}
.g5_204{
fill: #48484A;
}
.g6_204{
fill: #F0E8F3;
}
.g7_204{
fill: #6381B7;
}
.g8_204{
fill: none;
stroke: #6381B7;
stroke-width: 0.381;
stroke-dasharray: 2,1;
}
.g9_204{
fill: none;
stroke: #6381B7;
stroke-width: 0.381;
}
.ga_204{
fill: #FCFBEC;
}
.gb_204{
fill: none;
stroke: #EAD646;
stroke-width: 1.527;
stroke-linecap: round;
stroke-linejoin: round;
stroke-dasharray: 0,5;
}
.gc_204{
fill: none;
stroke: #EAD646;
stroke-width: 1.527;
stroke-linecap: round;
stroke-linejoin: round;
}
.gd_204{
fill: #EAD646;
}
.ge_204{
fill: #61C7CB;
}
.gf_204{
fill: #FFF;
}
.gg_204{
fill: #F5CA58;
}
.gh_204{
fill: #3D3B39;
}
.gi_204{
fill: #231F20;
}
.gj_204{
fill: none;
stroke: #949698;
stroke-width: 0.305;
}
.gk_204{
fill: #25408F;
}
.gl_204{
fill: #F37553;
}
.gm_204{
fill: #363637;
}
.gn_204{
fill: #F0D73F;
}
.go_204{
fill: #506CB4;
}
.gp_204{
fill: #5CC4BE;
}
.gq_204{
fill: none;
stroke: #FFF;
stroke-width: 1.909;
stroke-miterlimit: 10;
}
.gr_204{
fill: none;
stroke: #000;
stroke-width: 0.381;
stroke-miterlimit: 10;
}
]]></style>
</defs>
<path d="M145.5,173.9c0,0,-13,0,-13,12.9V970.6c0,0,0,13,13,13H833.3c0,0,13,0,13,-13V186.8c0,0,0,-12.9,-13,-12.9H145.5Z" class="g0_204"/>
<path d="M563.8,400.5H802v63.6H563.8V400.5Zm-203.5,0H563.8v63.6H360.3V400.5Zm-121.3,0H360.3v63.6H239V400.5Zm-64.9,0H239v63.6H174.1V400.5Z" class="g1_204"/>
<path d="M174.1,875.5H239v82.3H174.1V875.5Zm0,-82.3H239v82.3H174.1V793.2Zm0,-82.2H239v82.2H174.1V711Zm0,-82.3H239V711H174.1V628.7Zm0,-82.3H239v82.3H174.1V546.4Zm0,-82.3H239v82.3H174.1V464.1Z" class="g2_204"/>
<path d="M174.1,400.5H239m0,63.4V400.7m0,-.2H360.3m0,0H563.8M360.3,463.9V400.7m203.5,63.2V400.7m0,-.2H802M174.1,464.1H239m-64.9,82.3H239m0,-.2V464.3m0,164.1V546.6m0,-82.5H360.3m0,0H563.8M360.3,546.2V464.3m0,164.1V546.6M239,546.4H360.3m0,0H563.8m0,-.2V464.3m0,164.1V546.6m0,-82.5H802M563.8,546.4H802M174.1,628.7H239m0,82V628.9m0,-.2H360.3m0,0H563.8m-203.5,82V628.9m203.5,81.8V628.9m0,-.2H802M174.1,711H239m0,82V711.2m0,-.2H360.3m0,0H563.8M360.3,793V711.2M563.8,793V711.2m0,-.2H802M174.1,793.2H239m-64.9,82.3H239m-64.9,82.3H239m0,-82.5V793.5m0,164.1V875.8m0,-82.6H360.3m0,0H563.8M360.3,875.3V793.5m0,164.1V875.8M239,875.5H360.3m0,0H563.8M239,957.8H360.3m0,0H563.8m0,-82.5V793.5m0,164.1V875.8m0,-82.6H802M563.8,875.5H802M563.8,957.8H802" class="g3_204"/>
<path d="M189.2,494.4c0,0,-4.3,0,-4.3,4.3v13c0,0,0,4.4,4.3,4.4h34.7c0,0,4.3,0,4.3,-4.4v-13c0,0,0,-4.3,-4.3,-4.3Z" class="g4_204"/>
<path d="M171.1,254.9c0,0,-4.3,0,-4.3,4.4v14.3c0,0,0,4.4,4.1,5.8l52.4,18.2c0,0,4.1,1.5,4.1,-2.9V259.3c0,0,0,-4.4,-4.3,-4.4Z" class="g5_204"/>
<path d="M192.2,242.1c0,0,-12.9,0,-12.9,13V367.7c0,0,0,13,12.9,13H789.9c0,0,13,0,13,-13V255.1c0,0,0,-13,-13,-13Z" class="g6_204"/>
<path d="M171.1,252.8c0,0,-4.3,0,-4.3,4.3V274c0,0,0,4.4,4.3,4.4h32.5c0,0,4.3,0,4.3,-4.4V257.1c0,0,0,-4.3,-4.3,-4.3Z" class="g4_204"/>
<path d="M736.2,1214.8c0,0,-4.3,0,-4.3,4.4V1230c0,0,0,4.3,4.3,4.3h30.3c0,0,4.3,0,4.3,-4.3v-10.8c0,0,0,-4.4,-4.3,-4.4Z" class="g7_204"/>
<path d="M723,1206v37.5m1.4,1H845.5m1,-1.3v-37.6m-1.3,-1H724" class="g8_204"/>
<path d="M723,1243.9v.6h.6m122.3,0h.6v-.6m0,-38.7v-.6h-.6m-122.3,0H723v.6" class="g9_204"/>
<path d="M132.5,1198.2h713V1049.6h-713v148.6Z" class="ga_204"/>
<path d="M132.5,1054.2v141.7m4.5,2.3H843.2m2.3,-4.6V1051.9m-4.6,-2.3H134.7" class="gb_204"/>
<path d="M132.5,1198.2v0m713,0v0m0,-148.6v0m-713,0v0" class="gc_204"/>
<path d="M131.7,1052.8v-28.6c0,0,0,-8.7,8.6,-8.7H837.6c0,0,8.7,0,8.7,8.7v29.1Z" class="gd_204"/>
<path d="M160.4,1041.4H155c.1,3.1,1.1,5.9,2.7,8.2h4.1c-.8,-2.4,-1.4,-5.2,-1.4,-8.2Z" class="ge_204"/>
<path d="M160.4,1040.5c0,-3,.6,-5.8,1.4,-8.2h-4.1c-1.6,2.3,-2.6,5.2,-2.7,8.2Z" class="ge_204"/>
<path d="M170.6,1031.1v.3h6.6c-.2,-.4,-.4,-.8,-.6,-1.2c-1.9,.5,-3.9,.8,-6,.9Z" class="ge_204"/>
<path d="M177.5,1030c.2,.5,.4,.9,.6,1.4h2.3c.1,-.4,.3,-.8,.6,-1.1c-.3,-.3,-.6,-.6,-.9,-.9c-.1,.1,-.2,.1,-.3,.1c-.8,.2,-1.5,.4,-2.3,.5Z" class="ge_204"/>
<path d="M179.9,1041.4c0,3,-.5,5.8,-1.4,8.2h4.1c1.7,-2.3,2.7,-5.1,2.7,-8.2Z" class="ge_204"/>
<path d="M179,1040.5c0,-3,-.6,-5.8,-1.5,-8.2h-6.9v8.2Z" class="ge_204"/>
<path d="M169.7,1050.5h-6.5c1.1,2.5,2.6,4.5,4.4,5.4c.7,.1,1.4,.2,2.1,.2Z" class="ge_204"/>
<path d="M180.3,1035.7v-3.4h-1.8c.9,2.4,1.4,5.2,1.4,8.2h5.4c0,-.9,-.1,-1.8,-.3,-2.6c-.5,.4,-1.1,.7,-1.8,.7c-1.6,0,-2.9,-1.3,-2.9,-2.9Z" class="ge_204"/>
<path d="M170.6,1050.5v5.6c.7,0,1.5,-.1,2.2,-.2c1.7,-.9,3.3,-2.9,4.4,-5.4Z" class="ge_204"/>
<path d="M178.1,1050.5c-.8,2,-1.9,3.7,-3.1,4.9c2.7,-1,5.2,-2.7,6.9,-4.9Z" class="ge_204"/>
<path d="M170.6,1041.4v8.2h6.9c.9,-2.4,1.5,-5.2,1.5,-8.2Z" class="ge_204"/>
<path d="M162.2,1031.4c.2,-.5,.4,-.9,.6,-1.4c-.8,-.1,-1.5,-.3,-2.3,-.5q-.1,0,-.2,-.1c-.7,.6,-1.4,1.3,-1.9,2Z" class="ge_204"/>
<path d="M169.7,1031.1c-2.1,-.1,-4,-.4,-6,-.9c-.2,.4,-.4,.8,-.5,1.2h6.5Z" class="ge_204"/>
<path d="M165.3,1055.4c-1.2,-1.2,-2.3,-2.9,-3.1,-4.9h-3.8c1.8,2.2,4.2,3.9,6.9,4.9Z" class="ge_204"/>
<path d="M169.7,1040.5v-8.2h-6.9c-.9,2.4,-1.4,5.2,-1.5,8.2Z" class="ge_204"/>
<path d="M169.7,1041.4h-8.4c.1,3,.6,5.8,1.5,8.2h6.9Z" class="ge_204"/>
<path d="M161.6,1027.9c.6,.1,1.1,.2,1.7,.4c2.2,.5,4.5,1,6.9,1c2.3,0,4.6,-.5,6.9,-1c.5,-.2,1,-.3,1.6,-.4v-5.2l-8.2,3.5c-.1,.1,-.2,.1,-.3,.1c-.2,0,-.3,0,-.4,-.1l-8.2,-3.5Z" class="gf_204"/>
<path d="M170.2,1024.4l13.7,-5.9l-13.7,-5.9l-13.8,5.9Z" class="gg_204"/>
<path d="M182.1,1035.7c0,.6,.5,1,1.1,1c.5,0,1,-.4,1,-1v-.5h-2.1Z" class="gf_204"/>
<path d="M183.2,1031.1c-.6,0,-1.1,.5,-1.1,1v2.2h2.1v-2.2c0,-.5,-.5,-1,-1,-1Z" class="gf_204"/>
<path d="M186,1032.1c0,-1.2,-.8,-2.3,-1.9,-2.7v-9l2.5,-1.1c.4,-.1,.6,-.4,.6,-.8c0,-.4,-.2,-.7,-.6,-.8l-16.1,-7c-.2,0,-.5,0,-.7,0l-16.1,7c-.3,.1,-.6,.4,-.6,.8c0,.4,.3,.7,.6,.8l6.1,2.7v5.5c-4,3.1,-6.7,8,-6.7,13.5c0,9.3,7.7,17,17.1,17c9.4,0,17,-7.7,17,-17c0,-2.2,-.4,-4.3,-1.2,-6.2Zm-15.8,-19.5l13.7,5.9l-13.7,5.9l-13.8,-5.9Zm15.1,27.9h-5.4c0,-3,-.5,-5.8,-1.4,-8.2h1.8v3.4c0,1.6,1.3,2.9,2.9,2.9c.7,0,1.3,-.3,1.8,-.7c.2,.8,.3,1.7,.3,2.6m-2.7,9.1h-4.1c.9,-2.4,1.4,-5.2,1.4,-8.2h5.4c0,3.1,-1,5.9,-2.7,8.2m-9.8,6.3c-.7,.1,-1.5,.2,-2.2,.2v-5.6h6.6c-1.1,2.5,-2.7,4.5,-4.4,5.4m-9.6,-5.4h6.5v5.6c-.7,0,-1.4,-.1,-2.1,-.2c-1.8,-.9,-3.3,-2.9,-4.4,-5.4m-8.2,-9.1h5.4c0,3,.6,5.8,1.4,8.2h-4.1c-1.6,-2.3,-2.6,-5.1,-2.7,-8.2m2.7,-9.1h4.1c-.8,2.4,-1.4,5.2,-1.4,8.2H155c.1,-3,1.1,-5.9,2.7,-8.2m23.3,-2c-.3,.3,-.5,.7,-.6,1.1h-2.3c-.2,-.5,-.4,-.9,-.6,-1.4c.8,-.1,1.5,-.3,2.3,-.5c.1,0,.2,0,.3,-.1c.3,.3,.6,.6,.9,.9m3.2,4.9v.5c0,.6,-.5,1,-1,1c-.6,0,-1.1,-.4,-1.1,-1v-.5Zm-13.6,-3.8v-.3c2.1,-.1,4.1,-.4,6,-.9c.2,.4,.4,.8,.6,1.2Zm6.9,.9c.9,2.4,1.5,5.2,1.5,8.2h-8.4v-8.2Zm-13.8,-2.1c2,.5,3.9,.8,6,.9v.3h-6.5c.1,-.4,.3,-.8,.5,-1.2m6,2.1v8.2h-8.4c.1,-3,.6,-5.8,1.5,-8.2Zm-8.4,9.1h8.4v8.2h-6.9c-.9,-2.4,-1.4,-5.2,-1.5,-8.2m9.3,8.2v-8.2H179c0,3,-.6,5.8,-1.5,8.2Zm13.6,-15.3h-2.1v-2.2c0,-.5,.5,-1,1.1,-1c.5,0,1,.5,1,1Zm-14.4,-8.1c.1,.1,.2,.1,.4,.1c.1,0,.2,0,.3,-.1l8.2,-3.5v5.2c-.6,.1,-1.1,.2,-1.6,.3c-2.3,.5,-4.6,1.1,-6.9,1.1c-2.4,0,-4.7,-.6,-6.9,-1.1c-.6,-.1,-1.1,-.2,-1.7,-.3v-5.2Zm-9.5,3.2q.1,.1,.2,.1c.8,.2,1.5,.4,2.3,.5c-.2,.5,-.4,.9,-.6,1.4h-3.8c.5,-.7,1.2,-1.4,1.9,-2m1.9,21.1c.8,2,1.9,3.7,3.1,4.9c-2.7,-1,-5.1,-2.7,-6.9,-4.9Zm12.8,4.9c1.2,-1.2,2.3,-2.9,3.1,-4.9H182c-1.9,2.2,-4.3,3.9,-7,4.9m7.2,-26.4c-.5,-.6,-1.1,-1.1,-1.7,-1.5V1022l1.7,-.8Z" class="gh_204"/>
<path d="M303.9,1158.3h-9.5v-6.2h9.5v-3.9l7,7l-7,7Z" class="gi_204"/>
<path d="M455.6,1158.3h-9.4v-6.2h9.4v-3.9l7.1,7l-7.1,7Z" class="gi_204"/>
<path d="M607.5,1158.3H598v-6.2h9.5v-3.9l7,7l-7,7Z" class="gi_204"/>
<path d="M181.2,1134.4c0,0,-4.3,0,-4.3,4.4v33c0,0,0,4.3,4.3,4.3h91.4c0,0,4.3,0,4.3,-4.3v-33c0,0,0,-4.4,-4.3,-4.4Z" class="gf_204"/>
<path d="M181.2,1134.4c0,0,-4.3,0,-4.3,4.4v33c0,0,0,4.3,4.3,4.3h91.4c0,0,4.3,0,4.3,-4.3v-33c0,0,0,-4.4,-4.3,-4.4H181.2Z" class="gj_204"/>
<path d="M332.8,1134.5c0,0,-4.3,0,-4.3,4.3v33.1c0,0,0,4.3,4.3,4.3h91.3c0,0,4.4,0,4.4,-4.3v-33.1c0,0,0,-4.3,-4.4,-4.3Z" class="gf_204"/>
<path d="M332.8,1134.5c0,0,-4.3,0,-4.3,4.3v33.1c0,0,0,4.3,4.3,4.3h91.3c0,0,4.4,0,4.4,-4.3v-33.1c0,0,0,-4.3,-4.4,-4.3H332.8Z" class="gj_204"/>
<path d="M484.7,1134.2c0,0,-4.4,0,-4.4,4.3v33.1c0,0,0,4.3,4.4,4.3H576c0,0,4.4,0,4.4,-4.3v-33.1c0,0,0,-4.3,-4.4,-4.3Z" class="gf_204"/>
<path d="M484.7,1134.2c0,0,-4.4,0,-4.4,4.3v33.1c0,0,0,4.3,4.4,4.3H576c0,0,4.4,0,4.4,-4.3v-33.1c0,0,0,-4.3,-4.4,-4.3H484.7Z" class="gj_204"/>
<path d="M636.5,1134.5c0,0,-4.3,0,-4.3,4.3v33.1c0,0,0,4.3,4.3,4.3h91.4c0,0,4.3,0,4.3,-4.3v-33.1c0,0,0,-4.3,-4.3,-4.3Z" class="gf_204"/>
<path d="M636.5,1134.5c0,0,-4.3,0,-4.3,4.3v33.1c0,0,0,4.3,4.3,4.3h91.4c0,0,4.3,0,4.3,-4.3v-33.1c0,0,0,-4.3,-4.3,-4.3H636.5Z" class="gj_204"/>
<path d="M132.2,126.3v22.2l11.7,10.2V136.5Z" class="gk_204"/>
<path d="M132.2,109.5v39H829.9c0,0,16.9,0,16.9,-16.8v-5.4c0,0,0,-16.8,-16.9,-16.8Z" class="g7_204"/>
<path d="M166,111.6c.7,-.6,1.7,-.8,2.5,-.6l1.3,-1.3l-6.2,-6.1l-6.1,6.1l-1.3,-1.3c.2,-.8,0,-1.8,-.6,-2.4c-1,-1,-2.6,-1,-3.6,0c-1,1,-1,2.6,0,3.6c.6,.6,1.6,.9,2.4,.6l1.3,1.3l-6.1,6.1l6.1,6.2l-1.3,1.3c-.8,-.3,-1.8,-.1,-2.4,.6c-1,1,-1,2.6,0,3.6c1,1,2.6,1,3.6,0c.6,-.7,.9,-1.6,.6,-2.4l1.3,-1.3l6.1,6.1l6.2,-6.1l-1.3,-1.3c-.9,.2,-1.8,0,-2.5,-.7c-1,-1,-1,-2.6,0,-3.6c1,-1,2.6,-1,3.6,0c.7,.7,.9,1.6,.7,2.5l1.3,1.3l6.1,-6.2l-6.1,-6.1l-1.3,1.3c.2,.8,0,1.8,-.7,2.4c-1,1,-2.6,1,-3.6,0c-1,-.9,-1,-2.6,0,-3.6Z" class="gl_204"/>
<path d="M163.6,132.3l-6.1,-6.2l-.8,.9c.1,.9,-.2,1.9,-.8,2.6c-1.2,1.1,-3.1,1.1,-4.2,0c-1.2,-1.2,-1.2,-3,0,-4.2c.7,-.7,1.6,-1,2.6,-.8l.8,-.8L149,117.6l6.1,-6.1l-.8,-.8c-1,.1,-1.9,-.2,-2.6,-.8c-.6,-.6,-.9,-1.3,-.9,-2.1c0,-.8,.3,-1.5,.9,-2.1c1.1,-1.1,3,-1.1,4.1,0c.7,.7,1,1.7,.9,2.6l.8,.8l6.1,-6.1l6.7,6.7l-1.7,1.7h-.2c-.7,-.2,-1.5,0,-2.1,.5c-.8,.9,-.8,2.2,0,3.1c.9,.8,2.2,.8,3.1,0c.5,-.6,.7,-1.4,.5,-2.1v-.2l1.7,-1.7l6.7,6.6l-6.7,6.7l-1.8,-1.7l.1,-.2c.2,-.8,0,-1.5,-.6,-2.1c-.4,-.4,-.9,-.6,-1.5,-.6c-.5,0,-1.1,.2,-1.5,.6c-.8,.8,-.8,2.2,0,3c.5,.6,1.3,.8,2.1,.6l.2,-.1l1.7,1.8ZM157.5,125l6.1,6.1l5.6,-5.5l-.8,-.9c-1,.2,-2,-.1,-2.7,-.8c-.5,-.5,-.8,-1.3,-.8,-2.1c0,-.7,.3,-1.5,.8,-2c.6,-.6,1.3,-.9,2.1,-.9c.8,0,1.6,.3,2.1,.9c.7,.6,1,1.6,.8,2.6l.9,.8l5.5,-5.6l-5.5,-5.5l-.9,.8c.2,1,-.1,1.9,-.8,2.6c-1.1,1.2,-3,1.2,-4.1,0c-1.2,-1.1,-1.2,-3,0,-4.1c.6,-.7,1.6,-1,2.6,-.8l.8,-.9l-5.6,-5.6l-6.1,6.2l-1.7,-1.7v-.3c.2,-.7,0,-1.5,-.5,-2c-.9,-.9,-2.2,-.9,-3.1,0c-.4,.4,-.6,.9,-.6,1.5c0,.6,.2,1.1,.6,1.5c.6,.5,1.4,.8,2.1,.6l.2,-.1l1.8,1.7l-6.2,6.1l6.2,6.2l-1.8,1.7l-.2,-.1c-.7,-.2,-1.5,.1,-2,.6c-.9,.8,-.9,2.2,0,3c.8,.9,2.2,.9,3,0c.5,-.5,.7,-1.3,.5,-2v-.3Z" class="gm_204"/>
<path d="M196.6,122.1c.9,0,1.8,.5,2.2,1.3h1.8v-8.7h-8.7v-1.8c.8,-.4,1.3,-1.2,1.3,-2.2c0,-1.4,-1.1,-2.5,-2.5,-2.5c-1.5,0,-2.6,1.1,-2.6,2.5c0,1,.5,1.8,1.3,2.2v1.8h-8.7v8.7h-1.8c-.4,-.8,-1.2,-1.3,-2.2,-1.3c-1.4,0,-2.5,1.2,-2.5,2.6c0,1.4,1.1,2.5,2.5,2.5c1,0,1.8,-.5,2.2,-1.2h1.8v8.6h8.7v-1.8c-.8,-.4,-1.3,-1.2,-1.3,-2.2c0,-1.4,1.2,-2.5,2.6,-2.5c1.4,0,2.5,1.1,2.5,2.5c0,1,-.5,1.8,-1.3,2.2v1.8h8.7V126h-1.8c-.4,.7,-1.2,1.2,-2.2,1.2c-1.4,0,-2.5,-1.1,-2.5,-2.5c0,-1.4,1.1,-2.6,2.5,-2.6Z" class="gn_204"/>
<path d="M201,135h-9.5v-2.4l.2,-.1c.7,-.4,1.1,-1.1,1.1,-1.9c0,-1.2,-1,-2.1,-2.1,-2.1c-1.2,0,-2.2,.9,-2.2,2.1c0,.8,.4,1.5,1.1,1.9l.2,.1V135h-9.5v-8.6h-1.2c-.5,.7,-1.4,1.2,-2.4,1.2c-1.6,0,-2.9,-1.3,-2.9,-2.9c0,-1.6,1.3,-3,2.9,-3c1,0,1.9,.5,2.4,1.3h1.2v-8.7H189v-1.1c-.8,-.6,-1.3,-1.5,-1.3,-2.5c0,-1.6,1.3,-2.9,3,-2.9c1.6,0,2.9,1.3,2.9,2.9c0,1,-.5,1.9,-1.3,2.5v1.1H201v9.5h-2.4l-.1,-.2c-.4,-.6,-1.1,-1.1,-1.9,-1.1c-.6,0,-1.1,.3,-1.5,.7c-.4,.4,-.6,.9,-.6,1.5c0,1.2,.9,2.1,2.1,2.1c.8,0,1.5,-.4,1.9,-1l.1,-.2H201Zm-8.7,-.8h7.9v-7.8H199c-.5,.7,-1.4,1.2,-2.4,1.2c-1.6,0,-2.9,-1.3,-2.9,-2.9c0,-.8,.3,-1.5,.8,-2.1c.6,-.5,1.3,-.9,2.1,-.9c1,0,1.9,.5,2.4,1.3h1.2v-7.9h-8.7v-2.4l.2,-.1c.7,-.4,1.1,-1.1,1.1,-1.9c0,-1.2,-1,-2.1,-2.1,-2.1c-1.2,0,-2.2,.9,-2.2,2.1c0,.8,.4,1.5,1.1,1.9l.2,.1v2.4h-8.7v8.7h-2.4l-.1,-.2c-.4,-.6,-1.1,-1.1,-1.9,-1.1c-1.2,0,-2.1,1,-2.1,2.2c0,1.2,.9,2.1,2.1,2.1c.8,0,1.5,-.4,1.9,-1l.1,-.2h2.4v8.6H189V133c-.8,-.5,-1.3,-1.4,-1.3,-2.4c0,-1.6,1.3,-2.9,3,-2.9c1.6,0,2.9,1.3,2.9,2.9c0,1,-.5,1.9,-1.3,2.4Z" class="gm_204"/>
<path d="M176.7,142c1,0,1.8,.5,2.2,1.3h1.8v-8.7H172v-1.8c.8,-.4,1.3,-1.2,1.3,-2.2c0,-1.4,-1.1,-2.5,-2.5,-2.5c-1.4,0,-2.6,1.1,-2.6,2.5c0,1,.5,1.8,1.3,2.2v1.8h-8.7v8.7H159c-.4,-.8,-1.2,-1.3,-2.2,-1.3c-1.4,0,-2.5,1.2,-2.5,2.6c0,1.4,1.1,2.5,2.5,2.5c1,0,1.8,-.5,2.2,-1.2h1.8v8.6h8.7v-1.8c-.8,-.4,-1.3,-1.2,-1.3,-2.2c0,-1.4,1.2,-2.5,2.6,-2.5c1.4,0,2.5,1.1,2.5,2.5c0,1,-.5,1.8,-1.3,2.2v1.8h8.7v-8.7h-1.8c-.4,.8,-1.2,1.3,-2.2,1.3c-1.4,0,-2.5,-1.1,-2.5,-2.5c0,-1.4,1.1,-2.6,2.5,-2.6Z" class="go_204"/>
<path d="M181.1,154.9h-9.5v-2.4l.2,-.1c.7,-.4,1.1,-1.1,1.1,-1.9c0,-1.2,-1,-2.1,-2.1,-2.1c-1.2,0,-2.2,.9,-2.2,2.1c0,.8,.4,1.5,1.1,1.9l.2,.1v2.4h-9.5v-8.6h-1.2c-.5,.7,-1.4,1.2,-2.4,1.2c-1.6,0,-2.9,-1.3,-2.9,-2.9c0,-1.6,1.3,-3,2.9,-3c1,0,1.9,.5,2.4,1.3h1.2v-8.7h8.7V133c-.8,-.5,-1.3,-1.4,-1.3,-2.4c0,-1.6,1.3,-2.9,3,-2.9c1.6,0,2.9,1.3,2.9,2.9c0,1,-.5,1.9,-1.3,2.4v1.2h8.7v9.5h-2.4l-.1,-.2c-.4,-.7,-1.1,-1.1,-1.9,-1.1c-1.2,0,-2.1,1,-2.1,2.2c0,1.1,.9,2.1,2.1,2.1c.8,0,1.5,-.4,1.9,-1.1l.1,-.2h2.4Zm-8.7,-.8h7.9v-7.9h-1.2c-.5,.8,-1.4,1.3,-2.4,1.3c-1.6,0,-2.9,-1.3,-2.9,-2.9c0,-1.6,1.3,-3,2.9,-3c1,0,1.9,.5,2.4,1.3h1.2V135h-8.7v-2.4l.2,-.1c.7,-.4,1.1,-1.1,1.1,-1.9c0,-1.2,-1,-2.1,-2.1,-2.1c-1.2,0,-2.2,.9,-2.2,2.1c0,.8,.4,1.5,1.1,1.9l.2,.1V135h-8.7v8.7h-2.4l-.1,-.2c-.4,-.7,-1.1,-1.1,-1.9,-1.1c-1.2,0,-2.1,1,-2.1,2.2c0,1.2,.9,2.1,2.1,2.1c.8,0,1.5,-.4,1.9,-1l.1,-.2h2.4v8.6h7.9v-1.2c-.8,-.5,-1.3,-1.4,-1.3,-2.4c0,-1.6,1.3,-2.9,3,-2.9c1.6,0,2.9,1.3,2.9,2.9c0,1,-.5,1.9,-1.3,2.4Z" class="gm_204"/>
<path d="M196.6,142c.9,0,1.8,.5,2.2,1.3h1.8v-8.7h-8.7v-1.8c.8,-.4,1.3,-1.2,1.3,-2.2c0,-1.4,-1.1,-2.5,-2.5,-2.5c-1.5,0,-2.6,1.1,-2.6,2.5c0,1,.5,1.8,1.3,2.2v1.8h-8.7v8.7h-1.8c-.4,-.8,-1.2,-1.3,-2.2,-1.3c-1.4,0,-2.5,1.2,-2.5,2.6c0,1.4,1.1,2.5,2.5,2.5c1,0,1.8,-.5,2.2,-1.2h1.8v8.6h8.7v-1.8c-.8,-.4,-1.3,-1.2,-1.3,-2.2c0,-1.4,1.2,-2.5,2.6,-2.5c1.4,0,2.5,1.1,2.5,2.5c0,1,-.5,1.8,-1.3,2.2v1.8h8.7v-8.7h-1.8c-.4,.8,-1.2,1.3,-2.2,1.3c-1.4,0,-2.5,-1.1,-2.5,-2.5c0,-1.4,1.1,-2.6,2.5,-2.6Z" class="gp_204"/>
<path d="M201,154.9h-9.5v-2.4l.2,-.1c.7,-.4,1.1,-1.1,1.1,-1.9c0,-1.2,-1,-2.1,-2.1,-2.1c-1.2,0,-2.2,.9,-2.2,2.1c0,.8,.4,1.5,1.1,1.9l.2,.1v2.4h-9.5v-8.6h-1.2c-.5,.7,-1.4,1.2,-2.4,1.2c-1.6,0,-2.9,-1.3,-2.9,-2.9c0,-1.6,1.3,-3,2.9,-3c1,0,1.9,.5,2.4,1.3h1.2v-8.7H189V133c-.8,-.5,-1.3,-1.4,-1.3,-2.4c0,-1.6,1.3,-2.9,3,-2.9c1.6,0,2.9,1.3,2.9,2.9c0,1,-.5,1.9,-1.3,2.4v1.2H201v9.5h-2.4l-.1,-.2c-.4,-.7,-1.1,-1.1,-1.9,-1.1c-.6,0,-1.1,.3,-1.5,.7c-.4,.4,-.6,.9,-.6,1.5c0,1.1,.9,2.1,2.1,2.1c.8,0,1.5,-.4,1.9,-1.1l.1,-.2H201Zm-8.7,-.8h7.9v-7.9H199c-.5,.8,-1.4,1.3,-2.4,1.3c-1.6,0,-2.9,-1.3,-2.9,-2.9c0,-.8,.3,-1.5,.8,-2.1c.6,-.6,1.3,-.9,2.1,-.9c1,0,1.9,.5,2.4,1.3h1.2V135h-8.7v-2.4l.2,-.1c.7,-.4,1.1,-1.1,1.1,-1.9c0,-1.2,-1,-2.1,-2.1,-2.1c-1.2,0,-2.2,.9,-2.2,2.1c0,.8,.4,1.5,1.1,1.9l.2,.1V135h-8.7v8.7h-2.4l-.1,-.2c-.4,-.7,-1.1,-1.1,-1.9,-1.1c-1.2,0,-2.1,1,-2.1,2.2c0,1.2,.9,2.1,2.1,2.1c.8,0,1.5,-.4,1.9,-1l.1,-.2h2.4v8.6H189v-1.2c-.8,-.5,-1.3,-1.4,-1.3,-2.4c0,-1.6,1.3,-2.9,3,-2.9c1.6,0,2.9,1.3,2.9,2.9c0,1,-.5,1.9,-1.3,2.4Z" class="gm_204"/>
<path d="M32.1,45.1H9.2m958.3,0h22.9M32.1,1331.3H9.2m958.3,0h22.9M45.1,32.1V9.2m0,1335.1v22.9M954.5,32.1V9.2m0,1335.1v22.9" class="gq_204"/>
<path d="M32.1,45.1H9.2m958.3,0h22.9M32.1,1331.3H9.2m958.3,0h22.9M45.1,32.1V9.2m0,1335.1v22.9M954.5,32.1V9.2m0,1335.1v22.9" class="gr_204"/>
<path d="M27.5,32.1H0m972.1,0h27.5M27.5,1344.3H0m972.1,0h27.5M32.1,27.5V0m0,1348.9v27.5M967.5,27.5V0m0,1348.9v27.5" class="gq_204"/>
<path d="M27.5,32.1H0m972.1,0h27.5M27.5,1344.3H0m972.1,0h27.5M32.1,27.5V0m0,1348.9v27.5M967.5,27.5V0m0,1348.9v27.5" class="gr_204"/>
</svg>