<?xml version="1.0" encoding="UTF-8" standalone="no"?>
<!DOCTYPE svg PUBLIC "-//W3C//DTD SVG 1.1//EN"
"http://www.w3.org/Graphics/SVG/1.1/DTD/svg11.dtd">
<svg viewBox="0 0 999 1376" version="1.1" xmlns="http://www.w3.org/2000/svg" xmlns:xlink="http://www.w3.org/1999/xlink">
<defs>
<clipPath id="c0_158"><path d="M32.1,1344.3V32.1H967.5V1344.3Z"/></clipPath>
<clipPath id="c1_158"><path d="M743.5,345V332.6H758V345Z"/></clipPath>
<clipPath id="c2_158"><path d="M186,291.4l-6.5,-2.1L163.1,275.4V218.3H235v73.1Z"/></clipPath>
<clipPath id="c3_158"><path d="M186,674.5l-6.5,-2.1L163.1,658.5V601.4H235v73.1Z"/></clipPath>
<style type="text/css"><![CDATA[
.g0_158{
fill: #FEFCF4;
}
.g1_158{
fill: #59816A;
}
.g2_158{
fill: #2E6E51;
}
.g3_158{
fill: #92A696;
}
.g4_158{
fill: #F9F6DB;
}
.g5_158{
fill: #DE524C;
}
.g6_158{
fill: #030303;
}
.g7_158{
fill: #FFF;
}
.g8_158{
fill: none;
stroke: #6381B7;
stroke-width: 0.763;
}
.g9_158{
fill: #A8AAAD;
}
.ga_158{
fill: none;
stroke: #949698;
stroke-width: 0.549;
}
.gb_158{
fill: none;
stroke: #BCBEC0;
stroke-width: 2.566;
}
.gc_158{
fill: #231F20;
}
.gd_158{
fill: #FCE8B0;
}
.ge_158{
fill: none;
stroke: #FFF;
stroke-width: 1.909;
stroke-miterlimit: 10;
}
.gf_158{
fill: none;
stroke: #000;
stroke-width: 0.381;
stroke-miterlimit: 10;
}
]]></style>
</defs>
<path clip-path="url(#c0_158)" d="M954.5,1344.3H1877V32.1H954.5V1344.3Z" class="g0_158"/>
<path d="M32.1,1344.3H954.5V32.1H32.1V1344.3Z" class="g0_158"/>
<path clip-path="url(#c0_158)" d="M1777.4,162.9c0,0,30.3,0,30.3,-30.3v-4.3c0,0,0,-30.3,-30.3,-30.3H162.8c0,0,-30.3,0,-30.3,30.3v4.3c0,0,0,30.3,30.3,30.3Z" class="g1_158"/>
<path d="M183.7,130.5c0,26.3,-21.4,47.6,-47.7,47.6c-26.3,0,-47.6,-21.3,-47.6,-47.6c0,-26.3,21.3,-47.7,47.6,-47.7c26.3,0,47.7,21.4,47.7,47.7Z" class="g2_158"/>
<path d="M158.3,88.4c0,0,26.2,12.3,25.3,44.1c0,0,.4,18,-14.5,32.2c0,0,-12.5,13.6,-33.8,13.4L119.8,142.5L146.3,109Z" class="g3_158"/>
<path d="M138.2,95.4l-35.3,40.2c-2.2,9.3,5.7,10.7,5.7,10.7L162,135.2Z" class="g4_158"/>
<path d="M163.8,131.9c1,1.6,.6,3.7,-1,4.7c-1.6,1,-3.7,.4,-4.7,-1.2L135.8,98.9c-1,-1.6,-.5,-3.8,1.1,-4.7c1.6,-1,3.7,-.5,4.7,1.2Z" class="g5_158"/>
<path d="M112,121.2l-8.5,5.9c-7.2,4.1,-9.8,13,-5.8,19.8c4,6.9,11.5,9,18.7,4.9l17.1,25.4c.8,1.9,5,.3,7,-.7c1.9,-.9,4.4,-3.2,3.5,-5.1L127.5,145.3l.7,-.8c.7,-.3,-15,-24.1,-16.2,-23.3Z" class="g6_158"/>
<path d="M168.7,102.2c.4,.5,0,1.4,-.7,1.9l-9.2,6.7c-.7,.5,-1.6,.5,-2,0c-.3,-.5,0,-1.3,.7,-1.9l9.2,-6.7c.8,-.5,1.7,-.5,2,0Z" class="g7_158"/>
<path d="M158.4,88.4c.5,.3,.6,1.3,.1,2l-5.9,9.9c-.5,.8,-1.3,1.2,-1.9,.9c-.5,-.4,-.5,-1.3,0,-2.1l5.9,-9.8c.5,-.8,1.3,-1.2,1.8,-.9Z" class="g7_158"/>
<path d="M176.2,121.9c.1,-.6,-.6,-1.2,-1.5,-1.3l-11.2,-1.4c-.9,-.1,-1.7,.3,-1.8,1c-.1,.6,.6,1.2,1.5,1.3l11.2,1.3c.9,.1,1.7,-.3,1.8,-.9Z" class="g7_158"/>
<path d="M145.1,691.8c0,0,-13,0,-13,13v406.3c0,0,0,13,13,13H832.9c0,0,13,0,13,-13V704.8c0,0,0,-13,-13,-13Z" class="g7_158"/>
<path d="M145.1,691.8c0,0,-13,0,-13,13v406.3c0,0,0,13,13,13H832.9c0,0,13,0,13,-13V704.8c0,0,0,-13,-13,-13H145.1Z" class="g8_158"/>
<path d="M195.2,763H645.6V741.6H195.2V763Z" class="g7_158"/>
<path d="M145.1,310.7c0,0,-13,0,-13,13V509.2c0,0,0,13,13,13H832.9c0,0,13,0,13,-13V323.7c0,0,0,-13,-13,-13Z" class="g7_158"/>
<path d="M145.1,310.7c0,0,-13,0,-13,13V509.2c0,0,0,13,13,13H832.9c0,0,13,0,13,-13V323.7c0,0,0,-13,-13,-13H145.1Z" class="g8_158"/>
<path d="M759.6,358c8.3,0,14.9,-6.5,14.9,-14.4c0,-8,-6.6,-14.5,-14.9,-14.5c-8.2,0,-14.8,6.5,-14.8,14.5c0,7.9,6.6,14.4,14.8,14.4Z" class="g9_158"/>
<path d="M759.6,358c8.3,0,14.9,-6.5,14.9,-14.4c0,-8,-6.6,-14.5,-14.9,-14.5c-8.2,0,-14.8,6.5,-14.8,14.5c0,7.9,6.6,14.4,14.8,14.4Z" class="ga_158"/>
<path d="M759.6,348.9c3.1,0,5.5,-2.4,5.5,-5.3c0,-3,-2.4,-5.4,-5.5,-5.4c-3,0,-5.5,2.4,-5.5,5.4c0,2.9,2.5,5.3,5.5,5.3Z" class="g7_158"/>
<path d="M759.6,348.9c3.1,0,5.5,-2.4,5.5,-5.3c0,-3,-2.4,-5.4,-5.5,-5.4c-3,0,-5.5,2.4,-5.5,5.4c0,2.9,2.5,5.3,5.5,5.3Z" class="gb_158"/>
<g clip-path="url(#c1_158)" opacity="0.3">
<path d="M745.1,342.8v0c0,0,-.1,-4.8,3.6,-8.6l7.8,6.7c0,0,-1,.9,-1.1,2.6Z" class="g7_158"/>
</g>
<path d="M764.3,343.5c0,0,-3.5,0,-3.5,3.4v8.7c0,0,0,3.4,3.5,3.4h43.4c0,0,3.5,0,3.5,-3.4v-8.7c0,0,0,-3.4,-3.5,-3.4Z" class="gc_158"/>
<path d="M218.6,246.5c0,0,-13,0,-13,12.9v21.7c0,0,0,13,13,13H833.3c0,0,13,0,13,-13V259.4c0,0,0,-12.9,-13,-12.9Z" class="gd_158"/>
<image clip-path="url(#c2_158)" preserveAspectRatio="none" x="161" y="217" width="75" height="76" xlink:href="img/1.png"/>
<path d="M213.4,286.7c0,0,-26.9,11.3,-51.1,-12.7c0,0,15.1,25.3,49.3,23.9c0,0,24.7,.4,20.2,-10.1c0,0,1.2,-4.4,-18.4,-1.1Z" class="gd_158"/>
<path d="M218.6,603.6c0,0,-13,0,-13,13v47.6c0,0,0,13,13,13H833.3c0,0,13,0,13,-13V616.6c0,0,0,-13,-13,-13Z" class="gd_158"/>
<image clip-path="url(#c3_158)" preserveAspectRatio="none" x="161" y="600" width="75" height="76" xlink:href="img/2.png"/>
<path d="M213.4,669.8c0,0,-26.9,11.3,-51.1,-12.7c0,0,15.1,25.3,49.3,23.9c0,0,24.7,.4,20.2,-10.1c0,0,1.2,-4.4,-18.4,-1.1Z" class="gd_158"/>
<path d="M32.1,45.1H9.2m958.3,0h22.9M32.1,1331.3H9.2m958.3,0h22.9M45.1,32.1V9.2m0,1335.1v22.9M954.5,32.1V9.2m0,1335.1v22.9" class="ge_158"/>
<path d="M32.1,45.1H9.2m958.3,0h22.9M32.1,1331.3H9.2m958.3,0h22.9M45.1,32.1V9.2m0,1335.1v22.9M954.5,32.1V9.2m0,1335.1v22.9" class="gf_158"/>
<path d="M27.5,32.1H0m972.1,0h27.5M27.5,1344.3H0m972.1,0h27.5M32.1,27.5V0m0,1348.9v27.5M967.5,27.5V0m0,1348.9v27.5" class="ge_158"/>
<path d="M27.5,32.1H0m972.1,0h27.5M27.5,1344.3H0m972.1,0h27.5M32.1,27.5V0m0,1348.9v27.5M967.5,27.5V0m0,1348.9v27.5" class="gf_158"/>
</svg>