<?xml version="1.0" encoding="UTF-8" standalone="no"?>
<!DOCTYPE svg PUBLIC "-//W3C//DTD SVG 1.1//EN"
"http://www.w3.org/Graphics/SVG/1.1/DTD/svg11.dtd">
<svg viewBox="0 0 999 1376" version="1.1" xmlns="http://www.w3.org/2000/svg" xmlns:xlink="http://www.w3.org/1999/xlink">
<defs>
<clipPath id="c0_150"><path d="M32.1,1344.3V32.1H967.5V1344.3Z"/></clipPath>
<clipPath id="c1_150"><path d="M125.6,386.7V205.8H858.8V386.7Z"/></clipPath>
<clipPath id="c2_150"><path d="M176.6,546.8l-6.5,-2.1l-16.4,-14V473.6h72v73.2Z"/></clipPath>
<clipPath id="c3_150"><path d="M176.6,1114.5l-6.5,-2.1l-16.4,-13.9v-57.1h72v73.1Z"/></clipPath>
<clipPath id="c4_150"><path d="M764.8,434.8V422.4h14.5v12.4Z"/></clipPath>
<clipPath id="c5_150"><path d="M83.9,925.3V764.1H300V925.3Z"/></clipPath>
<clipPath id="c6_150"><path d="M88.6,920.1V768.3h209V920.1Z"/></clipPath>
<clipPath id="c7_150"><path d="M185.6,787.2c-.3,-.1,3.6,-8.3,3.6,-8.3l.7,.6c0,0,-4,7.7,-4.3,7.7Z"/></clipPath>
<clipPath id="c8_150"><path d="M193.1,779.4c0,0,-6.8,-1.1,-7.6,-5.2c-.6,-3.6,1.5,-3.8,2.1,-3.8q.1,0,.1,0L196,757.6l-1.4,-3c0,0,-.6,-1.2,.1,-2.1c.1,-.1,.2,-.1,.3,-.1c2.1,0,13,5.5,13,5.5v.2c-.3,.5,-.7,1.1,-1.4,1.6c-.6,.5,-5,1.2,-5,1.2l-8.5,18.5Z"/></clipPath>
<clipPath id="c9_150"><path d="M192.7,779.1c.2,-.5,.2,-1.8,0,-2.3v-1.4c-1.5,-.5,-2.9,-1.2,-3.7,-2.5c-1,.6,-2.1,1.2,-3.1,1.9c1.6,2.1,3.8,3.6,6.8,4.3Zm0,-3.9c2.2,-4.6,4,-9.5,6.2,-14.1c-.9,-.4,-1.9,-1.3,-2.7,-1.4c-2.3,4.3,-4.6,8.7,-7,12.8c.7,1.4,2.1,2,3.5,2.7Zm-7.3,12c1,-2.9,2.4,-5.4,3.5,-8.2c-2,-1.6,-3.9,-3.2,-4.4,-6.2v-1.5c0,-2.7,2,-3.4,4.6,-3.4q.1,0,.2,0c1.9,-3.3,4.2,-6.3,6.2,-9.7c-.6,-.8,-1.2,-2.3,-.9,-3.6c.5,1.2,1.6,1.9,2.4,2.9c-.1,.6,-.3,1.1,-.4,1.7c.6,.7,1.3,1.2,2.4,1.4c.4,-.4,.5,-1.2,1.1,-1.5c1,.3,1.9,.7,3.1,.7c.2,.2,.5,.2,.9,.2c.3,0,.7,0,.8,-.2c.1,.1,.2,.1,.3,.1c.2,0,.4,-.1,.6,-.1c.2,-.1,.4,-.2,.5,-.2c.1,0,.2,0,.3,.1c-1.3,.7,-2.1,1.8,-4.1,1.8c-.1,0,-.3,0,-.4,0c-.8,3.7,-1.8,7.3,-2.6,11.2c.5,1,1.5,1.7,1.2,3.1c-.4,2.7,-3.8,4.4,-7.2,4.4c-1.2,0,-2.5,-.2,-3.6,-.7c-1,2.1,-2,4.1,-3.2,6c-.1,-.4,.2,-.4,.2,-.8c1,-1.8,2,-3.6,2.7,-5.6c-1.1,1.7,-1.9,3.7,-2.8,5.5c-.2,.4,-.4,.8,-.6,1.3c-.3,.4,-.3,1.1,-.8,1.3Z"/></clipPath>
<clipPath id="ca_150"><path d="M203.1,759.5c-4.8,0,-13.1,-7.3,-5.5,-8.8h1.3c.1,0,.3,0,.5,0c0,0,.1,0,.1,0c.1,0,.2,0,.2,0c.3,0,.6,0,.9,.1c3.1,.6,8.2,3.8,7.6,7c-.3,1.2,-1.6,1.6,-3.2,1.7h-1.9Z"/></clipPath>
<clipPath id="cb_150"><path d="M680.7,802V616.6H902.3V802Z"/></clipPath>
<clipPath id="cc_150"><path d="M675.8,808.6V609H905.2V808.6Z"/></clipPath>
<clipPath id="cd_150"><path d="M785,635.6c-.3,-.1,3.5,-8.2,3.5,-8.2l.8,.5c0,0,-4,7.7,-4.3,7.7Z"/></clipPath>
<clipPath id="ce_150"><path d="M792.5,627.9c0,0,-6.9,-1.1,-7.6,-5.2c-.7,-3.6,1.5,-3.9,2.1,-3.9c0,0,.1,0,.1,0l8.3,-12.7L793.9,603c0,0,-.5,-1.1,.2,-2.1c0,0,.1,-.1,.3,-.1c2.1,0,12.9,5.6,12.9,5.6l.1,.1c-.4,.6,-.7,1.2,-1.4,1.7c-.6,.5,-5.1,1.1,-5.1,1.1l-8.4,18.6Z"/></clipPath>
<clipPath id="cf_150"><path d="M792.1,627.5c.2,-.4,.2,-1.8,0,-2.2v-1.4c-1.6,-.5,-2.9,-1.2,-3.7,-2.5c-1.1,.6,-2.1,1.2,-3.1,1.9c1.5,2.1,3.8,3.5,6.8,4.2Zm0,-3.9c2.2,-4.5,3.9,-9.5,6.1,-14c-.9,-.4,-1.8,-1.3,-2.6,-1.4c-2.3,4.3,-4.6,8.6,-7.1,12.8c.8,1.3,2.1,2,3.6,2.6Zm-7.3,12.1c1,-2.9,2.4,-5.5,3.5,-8.3c-2,-1.5,-3.9,-3.1,-4.4,-6.1v-1.6c0,-2.7,1.9,-3.4,4.6,-3.4q.1,0,.2,0c1.9,-3.3,4.2,-6.3,6.1,-9.6c-.5,-.9,-1.1,-2.4,-.9,-3.7c.6,1.3,1.7,1.9,2.4,2.9c-.1,.6,-.2,1.2,-.3,1.8c.6,.7,1.3,1.2,2.3,1.4c.5,-.5,.6,-1.3,1.2,-1.5c.9,.3,1.8,.7,3.1,.7c.1,.1,.5,.2,.8,.2c.4,0,.7,-.1,.9,-.2c.1,0,.2,.1,.2,.1c.3,0,.5,-.1,.7,-.2c.2,-.1,.3,-.1,.5,-.1c.1,0,.2,0,.3,.1c-1.3,.6,-2.2,1.8,-4.2,1.8c-.1,0,-.2,0,-.3,-.1c-.9,3.8,-1.9,7.4,-2.6,11.2c.5,1.1,1.4,1.7,1.2,3.2c-.5,2.7,-3.8,4.4,-7.2,4.4c-1.3,0,-2.5,-.3,-3.6,-.8c-1,2.1,-2.1,4.1,-3.3,6c0,-.3,.3,-.3,.3,-.7c.9,-1.8,1.9,-3.6,2.6,-5.7c-1,1.7,-1.8,3.7,-2.7,5.6c-.2,.4,-.5,.8,-.7,1.2c-.3,.4,-.3,1.2,-.7,1.4Z"/></clipPath>
<clipPath id="cg_150"><path d="M802.5,607.9c-4.8,0,-13.1,-7.3,-5.5,-8.8h1.2c.2,.1,.4,.1,.5,.1c.1,0,.2,0,.2,0q.1,0,.2,0c.2,0,.5,0,.9,.1c3.1,.6,8.2,3.8,7.5,7c-.2,1.1,-1.5,1.6,-3.1,1.6h-1.8c0,0,-.1,0,-.1,0Z"/></clipPath>
<style type="text/css"><![CDATA[
.g0_150{
fill: #FEFCF4;
}
.g1_150{
fill: #CEEDFB;
}
.g2_150{
fill: #27639D;
}
.g3_150{
fill: #231F20;
}
.g4_150{
fill: none;
stroke: #204A78;
stroke-width: 1.527;
}
.g5_150{
fill: #FFF;
}
.g6_150{
fill: none;
stroke: #6381B7;
stroke-width: 0.763;
}
.g7_150{
fill: #6381B7;
}
.g8_150{
fill: none;
stroke: #6381B7;
stroke-width: 0.381;
stroke-dasharray: 2,1;
}
.g9_150{
fill: none;
stroke: #6381B7;
stroke-width: 0.381;
}
.ga_150{
fill: #FCE8B0;
}
.gb_150{
fill: #2E6E51;
}
.gc_150{
fill: none;
stroke: #FFF;
stroke-width: 0.152;
stroke-miterlimit: 1;
}
.gd_150{
fill: #BCBEC0;
}
.ge_150{
fill: #EE314A;
}
.gf_150{
fill: none;
stroke: #BCBEC0;
stroke-width: 0.432;
}
.gg_150{
fill: #25408F;
}
.gh_150{
fill: #A8AAAD;
}
.gi_150{
fill: none;
stroke: #949698;
stroke-width: 0.549;
}
.gj_150{
fill: none;
stroke: #BCBEC0;
stroke-width: 2.566;
}
.gk_150{
fill: #363637;
}
.gl_150{
fill: #5CC4BE;
}
.gm_150{
fill: #F0D73F;
}
.gn_150{
fill: none;
stroke: #818385;
stroke-width: 0.305;
stroke-dasharray: 4,4;
}
.go_150{
fill: none;
stroke: #818385;
stroke-width: 0.305;
}
.gp_150{
fill: #F7C2D9;
}
.gq_150{
fill: #FDF4F3;
}
.gr_150{
fill: #EC008C;
}
.gs_150{
fill: #6D6F71;
}
.gt_150{
fill: none;
stroke: #949698;
stroke-width: 0.305;
stroke-dasharray: 4,4;
}
.gu_150{
fill: none;
stroke: #949698;
stroke-width: 0.305;
stroke-dasharray: 3,3;
}
.gv_150{
fill: none;
stroke: #949698;
stroke-width: 0.305;
}
.gw_150{
fill: none;
stroke: #FFF;
stroke-width: 1.909;
stroke-miterlimit: 10;
}
.gx_150{
fill: none;
stroke: #000;
stroke-width: 0.381;
stroke-miterlimit: 10;
}
]]></style>
</defs>
<path clip-path="url(#c0_150)" d="M954.5,1344.3H1877V32.1H954.5V1344.3Z" class="g0_150"/>
<path d="M32.1,1344.3H954.5V32.1H32.1V1344.3Z" class="g0_150"/>
<image clip-path="url(#c1_150)" preserveAspectRatio="none" x="125" y="206" width="734" height="181" xlink:href="img/1.png"/>
<path d="M144.7,231.3c0,0,-13,0,-13,13v117c0,0,0,13,13,13H833.3c0,0,13,0,13,-13v-130Z" class="g1_150"/>
<path d="M147.8,294.1l54.1,40.8L256,294.1V230h8.8V211.9H156c-6.5,.4,-7.8,3.9,-8.2,8.4h-.1Z" class="g2_150"/>
<path d="M274.2,220.3c-.4,-4.7,-4.3,-8.4,-9.1,-8.4c-4.8,0,-8.7,3.7,-9,8.4H256V230h18.2v-9.7Z" class="g3_150"/>
<path d="M256,230.6H846.3" class="g4_150"/>
<path d="M150,440.5c0,0,-18.3,0,-18.3,18.3V989.9c0,0,0,18.4,18.3,18.4H827.2c0,0,18.3,0,18.3,-18.4V440.5Z" class="g5_150"/>
<path d="M150,440.5c0,0,-18.3,0,-18.3,18.3V989.9c0,0,0,18.4,18.3,18.4H827.2c0,0,18.3,0,18.3,-18.4V440.5H150Z" class="g6_150"/>
<path d="M359.7,1213.5c0,0,-4.3,0,-4.3,4.3v10.9c0,0,0,4.3,4.3,4.3h30.4c0,0,4.3,0,4.3,-4.3v-10.9c0,0,0,-4.3,-4.3,-4.3Z" class="g7_150"/>
<path d="M346.6,1206v37.5m1.3,1H845.3m1,-1.3v-37.6m-1.4,-1H347.5" class="g8_150"/>
<path d="M346.6,1243.9v.6h.5m498.6,0h.6v-.6m0,-38.7v-.6h-.6m-498.6,0h-.5v.6" class="g9_150"/>
<path d="M144.9,1022.8c0,0,-13,0,-13,12.9v149.6c0,0,0,13,13,13H832.3c0,0,13,0,13,-13V1035.7c0,0,0,-12.9,-13,-12.9Z" class="g5_150"/>
<path d="M144.9,1022.8c0,0,-13,0,-13,12.9v149.6c0,0,0,13,13,13H832.3c0,0,13,0,13,-13V1035.7c0,0,0,-12.9,-13,-12.9H144.9Z" class="g6_150"/>
<path d="M209.2,501.8c0,0,-13,0,-13,13v21.6c0,0,0,13,13,13h602c0,0,13,0,13,-13V514.8c0,0,0,-13,-13,-13Z" class="ga_150"/>
<image clip-path="url(#c2_150)" preserveAspectRatio="none" x="152" y="472" width="75" height="76" xlink:href="img/2.png"/>
<path d="M204,542.1c0,0,-26.8,11.3,-51.1,-12.8c0,0,15.2,25.3,49.3,24c0,0,24.8,.3,20.3,-10.1c0,0,1.2,-4.5,-18.5,-1.1Z" class="ga_150"/>
<path d="M209.2,1069.5c0,0,-13,0,-13,13v21.7c0,0,0,13,13,13h602c0,0,13,0,13,-13v-21.7c0,0,0,-13,-13,-13Z" class="ga_150"/>
<image clip-path="url(#c3_150)" preserveAspectRatio="none" x="152" y="1040" width="75" height="76" xlink:href="img/3.png"/>
<path d="M204,1109.8c0,0,-26.8,11.3,-51.1,-12.8c0,0,15.2,25.3,49.3,24c0,0,24.8,.3,20.3,-10.1c0,0,1.2,-4.5,-18.5,-1.1Z" class="ga_150"/>
<path d="M32.1,179.3H967.5V32.1H32.1V179.3Z" class="gb_150"/>
<path d="M262.3,134H247.1l1.2,1.2h11.8v8.2L258.5,142c.2,-.6,.3,-1.3,.3,-1.9c0,-.8,-.2,-1.6,-.6,-2.2c-.3,-.5,-.6,-.9,-1,-1.2c-.5,-.3,-.9,-.6,-1.4,-.7c-.3,-.1,-.6,-.2,-.9,-.2c-.7,0,-1.3,.2,-2,.7c-.3,.2,-.5,.5,-.7,.8c-.1,.3,-.2,.6,-.2,.9c0,.4,0,.7,.2,.9c.3,.5,.7,.7,1.2,.8c.6,.1,1.1,0,1.5,-.3c.2,-.2,.4,-.4,.6,-.6c.1,-.3,.2,-.5,.2,-.8c0,-.3,-.1,-.6,-.4,-1c.3,-.1,.5,-.1,.7,0c.2,0,.5,.1,.8,.3c.1,.2,.3,.4,.5,.7c.2,.3,.3,.6,.4,.9c.1,.3,.1,.5,.1,.7c0,.6,-.2,1.1,-.5,1.7c-.4,.8,-1.4,1.3,-2.8,1.3c-.5,0,-1.1,-.2,-1.6,-.5c-.6,-.3,-1.1,-.8,-1.5,-1.4c-.5,-.5,-.9,-1.2,-1.2,-2c-.4,-.8,-.7,-1.7,-.9,-2.7l-.7,-.3c.1,1,.3,2,.6,2.9c.2,.9,.5,1.7,.9,2.3c.3,.5,.7,1,1,1.5c.4,.4,.8,.8,1.2,1.1c.4,.3,.8,.6,1.2,.7c.5,.2,.9,.3,1.3,.3c.7,0,1.3,-.2,1.9,-.4c.5,-.3,1,-.7,1.3,-1.2c1.4,.9,2.4,2.4,2.9,4.5v-.1l.4,.3V135.2h2.2L262.3,134Zm5.5,1.2L266.7,134h-1.1c-.4,-.4,-.6,-1,-.7,-1.9l-.5,-.3c0,.2,0,.5,0,.9c.1,.3,.1,.7,.1,1.2c.1,.5,.1,.9,.1,1.3c0,.3,0,.6,0,.9c-.2,-.8,-.5,-1.3,-.9,-1.6c-.4,-.3,-1,-.5,-1.7,-.5h-1.4l1.2,1.2c.3,0,.7,.1,1,.2c.3,.1,.6,.3,.8,.5c.3,.2,.5,.4,.6,.7c.2,.3,.2,.7,.2,1v8.9l1.2,1.2V135.2h2.2Zm12.7,0L279.4,134H266.5c.3,.4,.6,.7,.9,.9c.2,.2,.4,.4,.5,.5c.3,.2,.6,.4,.9,.6c.3,.1,.6,.2,.9,.3c.5,.1,.9,.2,1.2,.3c.4,.1,.7,.2,.9,.4c.2,.2,.4,.4,.5,.7c.1,.4,.2,.8,.3,1.4c-.4,.5,-.8,.9,-1,1.3c-.3,.3,-.5,.5,-.7,.7c-.1,.2,-.3,.3,-.4,.4q-.1,0,-.2,0c-.2,0,-.3,0,-.5,-.1c-.1,-.1,-.2,-.3,-.3,-.4c-.1,-.2,-.2,-.4,-.3,-.6c0,-.2,-.1,-.3,-.1,-.5l-.8,.8c.1,.2,.3,.5,.4,.8c.2,.3,.4,.6,.6,.9c.3,.3,.5,.5,.8,.7c.3,.1,.6,.2,1,.2c.1,0,.3,0,.4,-.1c.2,0,.4,-.1,.6,-.3c.2,-.2,.5,-.5,.7,-.9c.3,-.4,.7,-.9,1.1,-1.6c.4,-.6,.8,-1,1.3,-1.1c.4,0,.7,.1,1,.4c.3,.4,.6,.9,.8,1.6c.2,.7,.3,1.6,.3,2.5v.4c0,.1,0,.3,-.1,.5c0,.1,0,.4,0,.7c0,.3,0,.6,0,1.1c.2,.2,.3,.4,.5,.6c.2,.3,.4,.5,.6,.7V135.2h2.2Zm-3.3,4.1c-.4,-.4,-.7,-.8,-1,-1.1c-.3,-.4,-.6,-.6,-.9,-.7c-.3,-.1,-.6,-.1,-.9,.1c-.4,.1,-.7,.4,-1.1,.8c-.1,-.6,-.2,-1.1,-.4,-1.6c-.3,-.5,-.7,-1,-1.4,-1.6h5.7v4.1Zm3.9,13c-.1,-.1,-.2,-.3,-.3,-.5c-.1,-.1,-.3,-.3,-.5,-.6c-.3,-.4,-.6,-.7,-1,-1c-.3,-.4,-.6,-.7,-.9,-.9c0,-.4,0,-.8,0,-1.2c0,-.5,-.1,-.9,-.3,-1.2l-1,-.7c.1,.5,.2,1,.2,1.4c0,.5,0,.8,-.1,1c-.7,-.4,-1.3,-.6,-1.8,-.6c-.3,0,-.5,0,-.8,.1c-.3,.1,-.5,.2,-.7,.4c-.2,.2,-.4,.4,-.5,.6c-.1,.3,-.2,.5,-.2,.8c0,.6,.3,1,.7,1.4c.5,.3,1,.4,1.6,.4c1,0,1.9,-.5,2.5,-1.4c.2,.2,.5,.3,.8,.6c.2,.2,.5,.4,.8,.7c.3,.3,.5,.5,.8,.8c.3,.3,.5,.6,.7,.9v-1Zm-4.8,-3c.2,.1,.3,.2,.5,.4c-.1,.2,-.4,.4,-.7,.6c-.4,.2,-.7,.3,-1.1,.2c-.4,-.1,-.6,-.3,-.6,-.7c.1,-.4,.5,-.7,1.3,-.7c.2,.1,.4,.1,.6,.2Zm15.5,-14.1L290.6,134H278.9l1.2,1.2h8.4v6.6c-1.3,-2.6,-2.8,-4,-4.4,-4c-.8,0,-1.5,.3,-2.1,.9c-.6,.5,-.9,1.2,-.9,2c0,1.5,.8,2.2,2.3,2.2c.5,0,.9,-.2,1.2,-.5c.3,-.4,.5,-.8,.5,-1.3c0,-.3,-.3,-.8,-.8,-1.5c0,-.1,.2,-.1,.3,-.1c1.3,0,2.4,.8,3.4,2.5c.6,1.4,.9,2.9,.9,4.2l-.1,1.3l.9,.6V135.2h2.1Zm19.9,-3.3c-2.3,-2.4,-4.8,-3.6,-7.3,-3.6c-1,0,-2,.4,-3.1,1.2c-1,.9,-1.6,1.8,-1.6,2.7c0,.4,.2,.7,.5,1l.8,.8h-3.2l1.2,1.2h1.8v11.3l1.2,1.2V135.2h2.1L302.9,134h-1.3l-.5,-1.1c.1,-.9,.7,-1.6,1.7,-2.3c.9,-.7,1.9,-1,2.8,-1c.6,0,1.2,.1,1.7,.2c.6,.2,1.2,.4,1.7,.7c.6,.4,1.2,.7,1.6,1c.5,.4,.9,.7,1.3,1l-.2,-.6Zm5,3.3L315.5,134H302.6c.4,.4,.7,.7,.9,.9c.3,.2,.5,.4,.6,.5c.3,.2,.6,.4,.9,.6c.3,.1,.6,.2,.9,.3c.5,.1,.9,.2,1.2,.3c.3,.1,.6,.2,.8,.4c.3,.2,.4,.4,.6,.7c.1,.4,.2,.8,.2,1.4c-.4,.5,-.7,.9,-1,1.3c-.2,.3,-.4,.5,-.6,.7c-.2,.2,-.3,.3,-.4,.4c-.1,0,-.2,0,-.2,0c-.2,0,-.4,0,-.5,-.1c-.1,-.1,-.3,-.3,-.4,-.4c-.1,-.2,-.1,-.4,-.2,-.6c-.1,-.2,-.1,-.3,-.2,-.5l-.8,.8c.2,.2,.3,.5,.5,.8c.2,.3,.4,.6,.6,.9c.2,.3,.5,.5,.8,.7c.3,.1,.6,.2,1,.2c.1,0,.3,0,.4,-.1c.2,0,.3,-.1,.5,-.3c.3,-.2,.5,-.5,.8,-.9c.3,-.4,.6,-.9,1,-1.6c.5,-.6,.9,-1,1.3,-1.1c.4,0,.8,.1,1.1,.4c.3,.4,.6,.9,.7,1.6c.2,.7,.3,1.6,.3,2.5v.4c0,.1,0,.3,0,.5c0,.1,0,.4,0,.7c0,.3,0,.6,-.1,1.1c.2,.2,.4,.4,.6,.6c.2,.3,.4,.5,.6,.7V135.2h2.2Zm-3.4,4.1c-.3,-.4,-.6,-.8,-.9,-1.1c-.3,-.4,-.6,-.6,-.9,-.7c-.3,-.1,-.6,-.1,-1,.1c-.3,.1,-.7,.4,-1.1,.8c0,-.6,-.1,-1.1,-.4,-1.6c-.2,-.5,-.7,-1,-1.3,-1.6h5.6v4.1Zm15.4,-7.4c-2.3,-2.4,-4.7,-3.6,-7.2,-3.6c-1,0,-2,.4,-3.1,1.2c-1.1,.9,-1.6,1.8,-1.6,2.7c0,.4,.1,.7,.5,1l.8,.8h-3.2l1.2,1.2h1.8v11.3l1.2,1.2V135.2h2.1L320,134h-1.3l-.5,-1.1c.1,-.9,.6,-1.6,1.7,-2.3c.9,-.7,1.8,-1,2.7,-1c.6,0,1.2,.1,1.8,.2c.6,.2,1.1,.4,1.7,.7c.6,.4,1.1,.7,1.6,1c.5,.4,.9,.7,1.3,1l-.3,-.6Zm2.9,3.3L330.4,134h-.6c0,-1.1,-.2,-2,-.7,-2.6c-.5,-.6,-1.3,-.9,-2.4,-.9c-.3,0,-.8,.1,-1.5,.1c-.3,.1,-.6,.1,-.8,.1c-.3,0,-.5,0,-.7,0c-.5,0,-.9,-.1,-1.3,-.3c-.4,-.2,-.6,-.6,-.6,-1.1c0,-.2,.1,-.4,.3,-.6c0,-.1,0,-.2,0,-.2c0,-.1,-.1,-.2,-.1,-.2c-.5,0,-.8,.5,-.8,1.4c0,.9,.4,1.6,1.2,2c.8,.5,1.6,.7,2.6,.7c.1,0,.2,0,.4,0c.2,-.1,.4,-.1,.6,-.1c.5,-.1,.9,-.1,1.1,-.1c1,0,1.5,.3,1.5,1c0,.2,0,.3,0,.4c0,.2,0,.3,0,.4h-9.1l1.1,1.2h1.9v8c.2,.9,.5,1.6,.9,2c.5,.5,1.1,.7,1.9,.7c1.1,0,2.2,-.6,3.2,-1.8c1,-1.2,1.5,-2.3,1.5,-3.5c0,-.4,-.1,-.7,-.2,-1.1c-.1,-.3,-.2,-.6,-.3,-.9c-.5,-.7,-1,-1,-1.7,-1c-.5,0,-.8,.2,-1.1,.5c-.3,.3,-.4,.7,-.4,1.1c0,.4,.1,.8,.4,1c.4,.3,.7,.4,1.1,.4h.4c-.1,.8,-.5,1.6,-1.1,2.5c-.8,.8,-1.5,1.3,-2.3,1.3c-.5,0,-.8,-.3,-1.1,-.8v-8.4h7.9Zm18,-1.2H337.5l1.2,1.2H343c.5,.4,.8,.7,.8,1c-.7,0,-1.4,.3,-1.9,.8c-.6,.5,-.9,1.1,-.9,1.8c0,.4,.2,.7,.5,.9c.3,.2,.6,.3,.9,.3c.6,0,1.1,-.2,1.6,-.7c.5,-.5,.8,-1,.8,-1.6c.1,0,.2,-.1,.3,-.1c.1,0,.3,0,.4,0c.2,0,.4,.1,.6,.2c.2,.1,.3,.2,.5,.4c.1,.2,.3,.4,.3,.7c.1,.2,.2,.5,.2,.7c0,.8,-.5,1.5,-1.5,2c-.7,.3,-1.5,.5,-2.4,.4c-1.3,-.1,-2.4,-.4,-3.4,-1l1.5,3c.8,.2,1.7,.5,2.6,.9c.8,.3,1.7,.7,2.5,1.2c.8,.5,1.6,1,2.3,1.5c.7,.6,1.3,1.2,1.9,1.9l-.3,-1.3c-1.1,-1.1,-2.1,-2,-3,-2.8c-.9,-.8,-1.8,-1.4,-2.6,-1.9c1.2,-.3,2.1,-.7,2.7,-1.2c.8,-.6,1.2,-1.4,1.2,-2.4c0,-1,-.4,-1.8,-1,-2.5c-.4,-.5,-1.2,-.9,-2.4,-1.3c-.1,-.2,-.2,-.3,-.4,-.5c-.1,-.1,-.2,-.2,-.3,-.4h6.3L349.6,134Zm6.8,0h-8l1.2,1.2h4c-1.7,2,-2.6,4,-2.6,6.1c0,1.5,.4,2.8,1,3.9c.7,1.4,1.8,2.1,3.2,2.1c.3,0,.6,0,.8,-.1c.3,-.1,.5,-.2,.7,-.4c.2,-.2,.4,-.4,.5,-.7c.1,-.2,.2,-.5,.2,-.8c0,-.4,-.2,-.9,-.5,-1.2c-.3,-.3,-.6,-.5,-1,-.5c-.4,0,-.7,.2,-1,.4c-.3,.3,-.5,.6,-.5,1c0,.2,.1,.4,.2,.7c.1,.2,.3,.4,.6,.6c-.7,.2,-1.5,-.2,-2.2,-1.3c-.5,-.7,-.7,-1.5,-.7,-2.3c0,-1,.1,-1.9,.3,-2.7c.2,-.7,.5,-1.4,.9,-2.1c.5,-.7,1,-1.3,1.7,-1.7c.7,-.5,1.4,-.8,2.3,-1L356.4,134Zm13.6,1.2L368.7,134H355.5l1.2,1.2h9.8v3.3c-.5,-1.3,-1.2,-2,-2.2,-2c-.3,0,-.6,.2,-1,.5c-.3,.3,-.5,.6,-.5,1c-.8,-1,-1.7,-1.6,-2.7,-1.6c-.8,0,-1.5,.4,-2,1.2c-.5,.7,-.7,1.4,-.7,2.3c0,.5,.1,1,.3,1.4c.1,.4,.4,.8,.7,1.1c.3,.3,.7,.5,1.1,.7c.4,.1,.9,.2,1.4,.2c.6,-.1,1.1,-.2,1.4,-.5c.4,-.3,.5,-.7,.6,-1.2c0,-1.1,-.6,-1.7,-1.7,-1.7c-.3,0,-.6,.1,-.9,.3c-.3,.3,-.4,.6,-.4,1c0,.2,.1,.6,.3,1c-1.1,-.2,-1.7,-.8,-1.7,-1.7c0,-.3,.1,-.6,.2,-.9c.1,-.3,.3,-.5,.5,-.7c.2,-.2,.4,-.4,.7,-.5c.3,-.1,.6,-.2,.9,-.2c.6,0,1.2,.2,1.8,.6c.5,.4,.8,1,.9,1.6l.5,-.2c-.1,-.3,-.1,-.5,-.1,-.7c0,-.9,.3,-1.3,1,-1.3c.5,0,.8,.2,1.1,.5c.3,.3,.5,.7,.5,1.1v6.9l1.2,1.1V135.2H370Zm11.1,0L379.9,134H368.1l1.2,1.2h8.2v.9c-2.5,.8,-5,2.1,-7.4,3.7l1.6,2.3c1.7,.1,3,.7,4.1,1.6c.2,.3,.5,.6,.9,1c.3,.4,.5,.8,.7,1c.1,.3,.3,.7,.6,1.3l.6,.8V135.2h2.5Zm-3.6,9.4c-1.1,-1.8,-2.7,-3.2,-4.9,-4.1c.9,-.6,1.7,-1.1,2.5,-1.5c.8,-.4,1.6,-.7,2.4,-1v6.6Zm-4.7,1.7c.2,.3,.5,.4,.8,.4c.4,0,.7,-.1,.9,-.4c.3,-.2,.4,-.5,.4,-.8c0,-.4,-.1,-.7,-.4,-.9c-.2,-.3,-.5,-.4,-.9,-.4c-.3,0,-.6,.1,-.8,.4c-.3,.2,-.4,.5,-.4,.9c0,.3,.1,.6,.4,.8Zm28.5,-11.1L400.1,134H387.2c.4,.4,.7,.7,.9,.9c.3,.2,.5,.4,.6,.5c.3,.2,.6,.4,.9,.6c.3,.1,.6,.2,.8,.3c.5,.1,1,.2,1.3,.3c.3,.1,.6,.2,.8,.4c.3,.2,.4,.4,.5,.7c.2,.4,.3,.8,.3,1.4c-.4,.5,-.7,.9,-1,1.3c-.2,.3,-.4,.5,-.6,.7c-.2,.2,-.3,.3,-.4,.4c-.1,0,-.2,0,-.3,0c-.1,0,-.3,0,-.4,-.1c-.2,-.1,-.3,-.3,-.4,-.4c-.1,-.2,-.1,-.4,-.2,-.6c-.1,-.2,-.1,-.3,-.2,-.5l-.8,.8c.2,.2,.3,.5,.5,.8c.2,.3,.4,.6,.6,.9c.2,.3,.5,.5,.8,.7c.3,.1,.6,.2,1,.2c.1,0,.2,0,.4,-.1c.1,0,.3,-.1,.5,-.3c.3,-.2,.5,-.5,.8,-.9c.3,-.4,.6,-.9,1,-1.6c.5,-.6,.9,-1,1.3,-1.1c.4,0,.8,.1,1.1,.4c.3,.4,.6,.9,.7,1.6c.2,.7,.3,1.6,.3,2.5v.4c0,.1,0,.3,0,.5c0,.1,0,.4,0,.7c0,.3,-.1,.6,-.1,1.1c.2,.2,.4,.4,.6,.6c.2,.3,.4,.5,.6,.7V135.2h2.2Zm-3.4,4.1c-.3,-.4,-.6,-.8,-.9,-1.1c-.3,-.4,-.6,-.6,-.9,-.7c-.3,-.1,-.6,-.1,-1,.1c-.3,.1,-.7,.4,-1.1,.8c0,-.6,-.1,-1.1,-.4,-1.6c-.2,-.5,-.7,-1,-1.3,-1.6h5.6v4.1Zm8,-4.1L404.7,134h-1.1c-.3,-.4,-.6,-1,-.7,-1.9l-.4,-.3c0,.2,0,.5,0,.9c0,.3,0,.7,.1,1.2c0,.5,0,.9,0,1.3c.1,.3,.1,.6,.1,.9c-.3,-.8,-.6,-1.3,-1,-1.6c-.4,-.3,-1,-.5,-1.7,-.5h-1.4l1.2,1.2c.4,0,.7,.1,1,.2c.4,.1,.6,.3,.9,.5c.2,.2,.4,.4,.6,.7c.1,.3,.2,.7,.2,1v8.9l1.1,1.2V135.2h2.3ZM416.1,134H404l1.3,1.2c.4,.6,.8,1,1.1,1.2c.2,.2,.5,.3,.8,.4c.3,.2,.6,.3,1.1,.4c.8,.3,1.3,.5,1.6,.8c.5,.4,.7,1.1,.7,2.2c-.3,-.2,-.6,-.3,-1,-.3c-.7,0,-1.3,.2,-1.7,.5c-.5,.4,-.8,1,-.8,1.6c0,.6,.2,1.1,.6,1.5c.4,.4,.9,.5,1.5,.5c.3,0,.6,0,1,-.2c.4,-.1,.7,-.5,1.1,-.9c1.6,.5,2.7,2,3.3,4.4l.5,.5V135.2h2.2L416.1,134Zm-2.2,9.8c-.2,-.4,-.5,-.8,-.9,-1.2c-.3,-.4,-.7,-.8,-1.2,-1.2c0,-.1,.1,-.2,.1,-.3v-.3c0,-1.1,-.4,-2.1,-1.2,-3.1c-.4,-.7,-1.3,-1.5,-2.5,-2.5H414v8.6h-.1Zm9.5,-9.8h-8l1.2,1.2h4c-1.7,2,-2.5,4,-2.5,6.1c0,1.5,.3,2.8,.9,3.9c.8,1.4,1.8,2.1,3.2,2.1c.3,0,.6,0,.9,-.1c.2,-.1,.4,-.2,.6,-.4c.2,-.2,.4,-.4,.5,-.7c.1,-.2,.2,-.5,.2,-.8c0,-.4,-.2,-.9,-.4,-1.2c-.3,-.3,-.7,-.5,-1.1,-.5c-.3,0,-.7,.2,-1,.4c-.3,.3,-.4,.6,-.4,1c0,.2,0,.4,.1,.7c.2,.2,.4,.4,.6,.6c-.7,.2,-1.4,-.2,-2.2,-1.3c-.5,-.7,-.7,-1.5,-.7,-2.3c0,-1,.1,-1.9,.3,-2.7c.2,-.7,.5,-1.4,1,-2.1c.4,-.7,1,-1.3,1.6,-1.7c.7,-.5,1.5,-.8,2.4,-1L423.4,134Zm12.2,1.2L434.3,134H422.7l1.1,1.2h8.5v6.6h-.1c-1.3,-2.6,-2.7,-4,-4.4,-4c-.8,0,-1.5,.3,-2.1,.9c-.6,.5,-.9,1.2,-.9,2c0,1.5,.8,2.2,2.3,2.2c.5,0,.9,-.2,1.2,-.5c.3,-.4,.5,-.8,.5,-1.3c0,-.3,-.3,-.8,-.8,-1.5c.1,-.1,.2,-.1,.3,-.1c1.3,0,2.4,.8,3.4,2.5c.6,1.4,.9,2.9,.9,4.2l-.1,1.3l1,.6V135.2h2.1Zm17.6,10.5c-.2,-.2,-.5,-.3,-.9,-.3v-1.2c0,-.2,0,-.4,0,-.7c0,-.3,0,-.5,.1,-.8c0,-.2,0,-.5,0,-.7c0,-.2,0,-.4,0,-.6c0,-2.1,-.3,-3.7,-.8,-4.8c-.7,-1.5,-1.8,-2.3,-3.5,-2.3c-1,0,-1.9,.4,-2.7,1.3c-.8,.8,-1.1,1.7,-1.1,2.8c0,.7,.3,1.4,.8,2c.6,.7,1.3,1,2,1h3.7c0,.5,0,1,0,1.5c-.1,.5,-.1,1,-.1,1.6c0,2.2,.5,3.3,1.6,3.3c.8,0,1.2,-.4,1.2,-1.3c0,-.3,-.1,-.6,-.3,-.8Zm-2.4,-6.1H447c-.8,0,-1.2,-.2,-1.2,-.8c0,-.8,.3,-1.5,.9,-2.2c.3,-.3,.6,-.5,1,-.7c.3,-.2,.7,-.3,1,-.3c.6,0,1.1,.5,1.6,1.4c.2,.4,.3,.8,.4,1.1c.1,.4,.2,.7,.2,1l-.1,.5Zm14.6,-4.4L464.2,134h-.6c0,-1.1,-.3,-2,-.7,-2.6c-.5,-.6,-1.3,-.9,-2.4,-.9c-.3,0,-.8,.1,-1.5,.1c-.3,.1,-.6,.1,-.8,.1c-.3,0,-.5,0,-.7,0c-.5,0,-.9,-.1,-1.3,-.3c-.4,-.2,-.6,-.6,-.6,-1.1c0,-.2,.1,-.4,.3,-.6c0,-.1,0,-.2,0,-.2c-.1,-.1,-.1,-.2,-.1,-.2c-.6,0,-.8,.5,-.8,1.4c0,.9,.4,1.6,1.2,2c.8,.5,1.6,.7,2.5,.7c.2,0,.3,0,.5,0c.2,-.1,.4,-.1,.6,-.1c.5,-.1,.9,-.1,1.1,-.1c1,0,1.5,.3,1.5,1c0,.2,0,.3,0,.4c0,.2,0,.3,0,.4h-9.1l1.1,1.2h1.9v8c.2,.9,.5,1.6,.9,2c.5,.5,1.1,.7,1.8,.7c1.2,0,2.3,-.6,3.3,-1.8c1,-1.2,1.5,-2.3,1.5,-3.5c0,-.4,-.1,-.7,-.2,-1.1c-.1,-.3,-.2,-.6,-.3,-.9c-.5,-.7,-1.1,-1,-1.7,-1c-.5,0,-.9,.2,-1.1,.5c-.3,.3,-.5,.7,-.5,1.1c0,.4,.2,.8,.5,1c.3,.3,.7,.4,1.1,.4h.4c-.1,.8,-.5,1.6,-1.2,2.5c-.7,.8,-1.5,1.3,-2.2,1.3c-.5,0,-.9,-.3,-1.1,-.8v-8.4h7.9Zm4.7,0L468.9,134h-1.1c-.3,-.4,-.6,-1,-.7,-1.9l-.5,-.3c0,.2,0,.5,.1,.9c0,.3,0,.7,0,1.2c.1,.5,.1,.9,.1,1.3c0,.3,0,.6,0,.9c-.2,-.8,-.5,-1.3,-.9,-1.6c-.4,-.3,-1,-.5,-1.7,-.5h-1.4l1.2,1.2c.3,0,.7,.1,1,.2c.3,.1,.6,.3,.9,.5c.2,.2,.4,.4,.5,.7c.2,.3,.3,.7,.3,1v8.9l1.1,1.2V135.2h2.3Zm10.6,0L479.5,134H468.4c.6,1,1.7,1.7,3.3,2.2c.7,.2,1.3,.4,1.7,.6c.4,.2,.7,.4,.8,.6c-.5,.4,-1.1,.8,-1.7,1.4c-.6,.5,-1.3,1.1,-1.9,1.7l1.6,2.1c1.4,.1,2.6,.5,3.5,1.2c.6,.5,1.2,1.2,1.8,2.3c.5,1,1,1.6,1.3,1.8V135.2h1.9Zm-3.1,9.5c-1,-1.7,-2.5,-2.9,-4.5,-3.6c.5,-.5,1,-1.1,1.5,-1.6c.5,-.5,.9,-.9,1.4,-1.4c-.6,-.7,-1.1,-1.3,-1.6,-1.8c-.6,-.5,-1,-.9,-1.4,-1.1h4.6v9.5Zm-4.6,2c.2,.2,.5,.3,.8,.3c.4,0,.7,-.1,.9,-.3c.3,-.3,.4,-.6,.4,-.9c0,-.3,-.1,-.6,-.4,-.9c-.2,-.2,-.5,-.3,-.9,-.3c-.3,0,-.6,.1,-.8,.3c-.3,.3,-.4,.6,-.4,.9c0,.3,.1,.6,.4,.9ZM494.3,134c-.5,0,-1,.2,-1.5,.4c-.5,.3,-.9,.5,-1.3,.8c-.8,.8,-1.4,1.8,-1.8,2.8c-.4,1,-.7,2.1,-.7,3.3c0,1.5,.3,2.8,.9,3.9c.8,1.4,1.8,2.1,3.2,2.1c.3,0,.6,0,.9,-.1c.2,-.1,.5,-.2,.7,-.4c.2,-.2,.3,-.4,.4,-.7c.1,-.2,.2,-.5,.2,-.8c0,-.4,-.2,-.9,-.4,-1.2c-.3,-.3,-.7,-.5,-1.1,-.5c-.1,0,-.3,.1,-.5,.1c-.2,.1,-.3,.2,-.5,.3c-.1,.2,-.2,.3,-.3,.4c-.1,.2,-.1,.4,-.1,.6c0,.2,0,.4,.1,.7c.2,.2,.4,.4,.6,.6c0,0,-.1,.1,-.2,.1h-.1c-.8,0,-1.4,-.5,-1.9,-1.4c-.5,-.7,-.7,-1.5,-.7,-2.3c0,-1,.1,-1.9,.3,-2.7c.2,-.7,.5,-1.4,1,-2.1c.4,-.7,1,-1.3,1.6,-1.7c.7,-.5,1.5,-.8,2.4,-1L494.3,134Zm12.5,1.2L505.6,134H493.8l1.3,1.2h1.2v7.1l1.6,1.7c.6,-1.1,1.3,-2.1,2.1,-2.9c.9,-.9,1.9,-1.5,2.9,-1.9c-.2,1,-.4,2.1,-.4,3.1c0,.6,.1,1.3,.2,2.2c.1,.8,.3,1.8,.6,3l.8,.4c-.3,-1.6,-.5,-2.8,-.5,-3.7c0,-.9,.2,-1.8,.5,-2.8c.2,-1,.7,-2,1.2,-3l-2,-1.5c-.4,.1,-.8,.3,-1.3,.6c-.5,.2,-1,.5,-1.5,.8c-.5,.4,-1,.7,-1.5,1.2c-.5,.4,-.9,.8,-1.4,1.3v-5.6h9.2ZM517.3,134c-.6,-.1,-.9,-.2,-1,-.6c-.1,-.1,-.1,-.2,-.1,-.5c-.1,-.2,-.1,-.5,-.1,-.7l-.6,-.4v12.3h-.1c-.8,-1.4,-2,-2.5,-3.8,-3.4c.8,-.2,1.4,-.6,2,-1.2c.5,-.6,.8,-1.3,.8,-2c0,-.7,-.3,-1.3,-.9,-1.9c0,-.1,-.2,-.2,-.5,-.5c-.3,-.3,-.7,-.6,-1.1,-1c-.3,.3,-.5,.5,-.8,.8c-.2,.2,-.3,.3,-.4,.4c-.2,.2,-.5,.3,-.7,.5c-.3,.1,-.5,.2,-.8,.2c0,-.7,-.4,-1.1,-1.1,-1.1c-.4,0,-.7,.2,-.9,.4c-.3,.3,-.4,.6,-.4,.9c0,.5,.2,.9,.5,1.2c.4,.3,.8,.5,1.3,.5c1.3,0,2.6,-.7,3.9,-2c.4,.4,.7,.8,.7,1.3c0,.4,-.2,.7,-.5,1c-.3,.2,-.7,.5,-1.3,.8c-.5,.2,-.9,.3,-1.4,.4c-.4,.1,-.8,.2,-1.2,.2c-.2,0,-.4,0,-.5,-.1c-.2,0,-.4,0,-.5,0l2,2.5c1.2,.1,2.2,.4,3.2,1c.5,.3,1,.6,1.4,1c.3,.4,.7,.9,1,1.3c0,.1,.1,.3,.2,.5c.1,.2,.2,.5,.3,.8c.1,.2,.2,.3,.3,.5c.1,.2,.3,.4,.4,.5V135.2h1.9L517.3,134Zm5.8,1.2L521.9,134h-1.1c-.3,-.4,-.6,-1,-.7,-1.9l-.5,-.3c0,.2,0,.5,.1,.9c0,.3,0,.7,0,1.2c.1,.5,.1,.9,.1,1.3c0,.3,0,.6,0,.9c-.2,-.8,-.5,-1.3,-.9,-1.6c-.4,-.3,-1,-.5,-1.7,-.5h-1.4l1.2,1.2c.3,0,.7,.1,1,.2c.3,.1,.6,.3,.9,.5c.2,.2,.4,.4,.5,.7c.2,.3,.3,.7,.3,1v8.9l1.1,1.2V135.2h2.3Zm22.1,0L544,134H528.9l1.2,1.2h7.8v1c-2.6,.8,-5,2.1,-7,3.7l1.7,2.1c1.3,.1,2.5,.7,3.6,1.8c.5,.5,.9,1,1.3,1.6c.4,.7,.8,1.3,1,2q.1,.1,.2,.2c.1,0,.2,.1,.3,.1v-10c1.2,0,2.1,.3,2.7,1c.7,.7,1,1.4,1,2.2l-.1,.3c-.1,-.2,-.3,-.3,-.5,-.4c-.2,-.2,-.4,-.2,-.7,-.2c-.3,0,-.7,.1,-1,.4c-.2,.2,-.4,.5,-.4,.9c0,.2,.1,.4,.2,.6c.1,.2,.2,.3,.3,.5c.2,.1,.4,.2,.5,.3c.2,.1,.4,.1,.6,.1c.3,0,.6,-.1,.8,-.2c.3,-.1,.5,-.3,.6,-.5c.2,-.2,.3,-.4,.4,-.7c.1,-.3,.2,-.5,.2,-.8c0,-1.3,-.4,-2.4,-1.2,-3.4c-.9,-1.2,-2,-1.7,-3.4,-1.7v-.9h6.2Zm-7.4,9.1h-.1c-.9,-1.8,-2.4,-3.1,-4.4,-4c.8,-.5,1.6,-1,2.3,-1.4c.7,-.4,1.5,-.8,2.2,-1.1v6.5Zm19.5,-12.4c-2.3,-2.4,-4.7,-3.6,-7.3,-3.6c-1,0,-2,.4,-3,1.2c-1.1,.9,-1.7,1.8,-1.7,2.7c0,.4,.2,.7,.5,1l.8,.8h-3.1l1.1,1.2h1.9v11.3l1.2,1.2V135.2h2.1L548.6,134h-1.4l-.4,-1.1c0,-.9,.6,-1.6,1.6,-2.3c1,-.7,1.9,-1,2.8,-1c.6,0,1.2,.1,1.8,.2c.5,.2,1.1,.4,1.6,.7c.6,.4,1.2,.7,1.7,1c.4,.4,.8,.7,1.2,1l-.2,-.6Zm3.7,3.3L559.8,134H548l1.2,1.2h8.2v.9c-2.5,.8,-5,2.1,-7.4,3.7l1.6,2.3c1.7,.1,3,.7,4.1,1.6c.2,.3,.5,.6,.9,1c.3,.4,.5,.8,.7,1c.1,.3,.3,.7,.6,1.3l.6,.8V135.2H561Zm-3.6,9.4c-1.1,-1.8,-2.7,-3.2,-4.9,-4.1c.9,-.6,1.7,-1.1,2.5,-1.5c.8,-.4,1.6,-.7,2.4,-1v6.6Zm-4.7,1.7c.2,.3,.5,.4,.8,.4c.4,0,.7,-.1,.9,-.4c.3,-.2,.4,-.5,.4,-.8c0,-.4,-.1,-.7,-.4,-.9c-.2,-.3,-.5,-.4,-.9,-.4c-.3,0,-.6,.1,-.8,.4c-.3,.2,-.4,.5,-.4,.9c0,.3,.1,.6,.4,.8Z" class="gc_150"/>
<g clip-path="url(#c0_150)">
<path d="M1877,177.2H32.1v-5.4H768.7c43.1,0,53,-37.9,115.3,-37.9h993Z" class="gd_150"/>
<path d="M1877,183.7H32.1v-9.8H768.7c43.1,0,53,-33.6,115.3,-33.6h993Z" class="ge_150"/>
<path d="M1877,183.7H32.1v-9.8H768.7c43.1,0,53,-33.6,115.3,-33.6h993v43.4Z" class="gf_150"/>
</g>
<path d="M131.7,414.2v39l11.7,10.3V419.2Z" class="gg_150"/>
<path d="M131.7,414.2v39H829.5c0,0,16.8,0,16.8,-16.8V431c0,0,0,-16.8,-16.8,-16.8Z" class="g7_150"/>
<path d="M781,447.8c8.2,0,14.8,-6.5,14.8,-14.5c0,-8,-6.6,-14.5,-14.8,-14.5c-8.3,0,-14.9,6.5,-14.9,14.5c0,8,6.6,14.5,14.9,14.5Z" class="gh_150"/>
<path d="M781,447.8c8.2,0,14.8,-6.5,14.8,-14.5c0,-8,-6.6,-14.5,-14.8,-14.5c-8.3,0,-14.9,6.5,-14.9,14.5c0,8,6.6,14.5,14.9,14.5Z" class="gi_150"/>
<path d="M781,438.7c3,0,5.4,-2.4,5.4,-5.4c0,-3,-2.4,-5.3,-5.4,-5.3c-3.1,0,-5.5,2.3,-5.5,5.3c0,3,2.4,5.4,5.5,5.4Z" class="g5_150"/>
<path d="M781,438.7c3,0,5.4,-2.4,5.4,-5.4c0,-3,-2.4,-5.3,-5.4,-5.3c-3.1,0,-5.5,2.3,-5.5,5.3c0,3,2.4,5.4,5.5,5.4Z" class="gj_150"/>
<g clip-path="url(#c4_150)" opacity="0.3">
<path d="M766.4,432.5c0,0,-.1,-4.8,3.6,-8.6l7.8,6.7c0,0,-1,.9,-1.1,2.7Z" class="g5_150"/>
</g>
<path d="M785.6,433.2c0,0,-3.5,0,-3.5,3.5v8.7c0,0,0,3.4,3.5,3.4H829c0,0,3.5,0,3.5,-3.4v-8.7c0,0,0,-3.5,-3.5,-3.5Z" class="g3_150"/>
<path d="M169.5,424.3c0,-8.4,-6.7,-15.1,-15,-15.1c-8.4,0,-15.1,6.7,-15.1,15.1c0,8.3,6.8,15,15.1,15c.8,0,1.6,-.1,2.4,-.2l4.5,5.2v-6.7c4.8,-2.5,8.1,-7.5,8.1,-13.3Z" class="g5_150"/>
<path d="M161.8,445.6l-5.1,-6c-.7,.1,-1.5,.2,-2.2,.2c-8.6,0,-15.6,-7,-15.6,-15.5c0,-8.6,7,-15.5,15.6,-15.5c8.5,0,15.5,6.9,15.5,15.5c0,5.7,-3.1,10.9,-8.2,13.6Zm-4.7,-7l3.8,4.5v-5.7l.3,-.2c4.8,-2.5,7.9,-7.5,7.9,-12.9c0,-8.1,-6.6,-14.6,-14.6,-14.6c-8.1,0,-14.6,6.5,-14.6,14.6c0,8,6.5,14.6,14.6,14.6c.7,0,1.5,-.1,2.3,-.2Z" class="gk_150"/>
<path d="M147.4,423.8c.8,0,1.5,.7,1.5,1.5c0,.8,-.7,1.4,-1.5,1.4c-.7,0,-1.4,-.6,-1.4,-1.4c0,-.8,.7,-1.5,1.4,-1.5Z" class="gl_150"/>
<path d="M147.4,427.2c-1,0,-1.8,-.9,-1.8,-1.9c0,-1.1,.8,-1.9,1.8,-1.9c1.1,0,1.9,.8,1.9,1.9c0,1,-.8,1.9,-1.9,1.9m0,-2.9c-.5,0,-.9,.4,-.9,1c0,.5,.4,1,.9,1c.6,0,1,-.5,1,-1c0,-.6,-.4,-1,-1,-1Z" class="gk_150"/>
<path d="M154.5,423.8c.8,0,1.4,.7,1.4,1.5c0,.8,-.6,1.4,-1.4,1.4c-.8,0,-1.5,-.6,-1.5,-1.4c0,-.8,.7,-1.5,1.5,-1.5Z" class="gl_150"/>
<path d="M154.5,427.2c-1.1,0,-1.9,-.9,-1.9,-1.9c0,-1.1,.8,-1.9,1.9,-1.9c1,0,1.9,.8,1.9,1.9c0,1,-.9,1.9,-1.9,1.9m0,-2.9c-.6,0,-1,.4,-1,1c0,.5,.4,1,1,1c.5,0,.9,-.5,.9,-1c0,-.6,-.4,-1,-.9,-1Z" class="gk_150"/>
<path d="M161.5,423.8c.8,0,1.4,.7,1.4,1.5c0,.8,-.6,1.4,-1.4,1.4c-.8,0,-1.5,-.6,-1.5,-1.4c0,-.8,.7,-1.5,1.5,-1.5Z" class="gl_150"/>
<path d="M161.5,427.2c-1.1,0,-1.9,-.9,-1.9,-1.9c0,-1.1,.8,-1.9,1.9,-1.9c1,0,1.9,.8,1.9,1.9c0,1,-.9,1.9,-1.9,1.9m0,-2.9c-.6,0,-1,.4,-1,1c0,.5,.4,1,1,1c.5,0,1,-.5,1,-1c0,-.6,-.5,-1,-1,-1Z" class="gk_150"/>
<path d="M163.4,438.5c0,-9.7,7.9,-17.6,17.6,-17.6c9.7,0,17.6,7.9,17.6,17.6c0,9.7,-7.9,17.6,-17.6,17.6c-.9,0,-1.9,-.1,-2.8,-.2l-5.3,6.1v-7.8c-5.6,-3,-9.5,-8.9,-9.5,-15.7Z" class="gm_150"/>
<path d="M172.9,462.5c0,0,-.1,-.1,-.1,-.1c-.2,0,-.3,-.2,-.3,-.4v-7.6c-5.9,-3.1,-9.6,-9.2,-9.6,-15.9c0,-10,8.2,-18.1,18.1,-18.1c10,0,18.1,8.1,18.1,18.1c0,10,-8.1,18.1,-18.1,18.1c-.8,0,-1.7,-.1,-2.6,-.2l-5.1,5.9c-.1,.1,-.2,.2,-.4,.2M181,421.4c-9.4,0,-17.1,7.6,-17.1,17.1c0,6.5,3.5,12.3,9.2,15.2c.2,.1,.3,.3,.3,.5v6.6l4.4,-5.2c.1,-.1,.3,-.2,.5,-.2c.9,.2,1.8,.3,2.7,.3c9.5,0,17.2,-7.7,17.2,-17.2c0,-9.5,-7.7,-17.1,-17.2,-17.1Z" class="gk_150"/>
<path d="M189.2,438c.9,0,1.7,.8,1.7,1.7c0,.9,-.8,1.7,-1.7,1.7c-.9,0,-1.7,-.8,-1.7,-1.7c0,-.9,.8,-1.7,1.7,-1.7Z" class="g5_150"/>
<path d="M189.2,441.8c-1.2,0,-2.1,-.9,-2.1,-2.1c0,-1.2,.9,-2.1,2.1,-2.1c1.2,0,2.1,.9,2.1,2.1c0,1.2,-.9,2.1,-2.1,2.1m0,-3.3c-.7,0,-1.2,.5,-1.2,1.2c0,.6,.5,1.2,1.2,1.2c.7,0,1.2,-.6,1.2,-1.2c0,-.7,-.5,-1.2,-1.2,-1.2Z" class="gk_150"/>
<path d="M181,438c.9,0,1.7,.8,1.7,1.7c0,.9,-.8,1.7,-1.7,1.7c-.9,0,-1.7,-.8,-1.7,-1.7c0,-.9,.8,-1.7,1.7,-1.7Z" class="g5_150"/>
<path d="M181,441.8c-1.2,0,-2.1,-.9,-2.1,-2.1c0,-1.2,.9,-2.1,2.1,-2.1c1.2,0,2.1,.9,2.1,2.1c0,1.2,-.9,2.1,-2.1,2.1m0,-3.3c-.7,0,-1.2,.5,-1.2,1.2c0,.6,.5,1.2,1.2,1.2c.7,0,1.2,-.6,1.2,-1.2c0,-.7,-.5,-1.2,-1.2,-1.2Z" class="gk_150"/>
<path d="M172.8,438c.9,0,1.7,.8,1.7,1.7c0,.9,-.8,1.7,-1.7,1.7c-.9,0,-1.7,-.8,-1.7,-1.7c0,-.9,.8,-1.7,1.7,-1.7Z" class="g5_150"/>
<path d="M172.8,441.8c-1.2,0,-2.1,-.9,-2.1,-2.1c0,-1.2,.9,-2.1,2.1,-2.1c1.2,0,2.1,.9,2.1,2.1c0,1.2,-.9,2.1,-2.1,2.1m0,-3.3c-.7,0,-1.2,.5,-1.2,1.2c0,.6,.5,1.2,1.2,1.2c.7,0,1.2,-.6,1.2,-1.2c0,-.7,-.5,-1.2,-1.2,-1.2Z" class="gk_150"/>
<path d="M402.3,839.3c10.1,-1.3,18.1,-6.2,20.2,-12.5m-.7,-8c-2.9,-5.9,-11.1,-10.3,-21.1,-11.1m-8.3,.1c-10.1,1.3,-18,6.2,-20.1,12.5m.6,8c3,5.9,11.2,10.3,21.2,11.1" class="gn_150"/>
<path d="M422.9,825.2c0,-.5,.1,-1.1,.1,-1.6c0,-.6,-.1,-1.1,-.1,-1.7M399,807.6c-.5,-.1,-1.1,-.1,-1.6,-.1c-.6,0,-1.1,0,-1.7,.1m-23.8,14.3c-.1,.6,-.1,1.1,-.1,1.7c0,.5,0,1.1,.1,1.6m23.8,14.3c.6,.1,1.1,.1,1.7,.1c.5,0,1.1,0,1.6,-.1" class="go_150"/>
<image clip-path="url(#c5_150)" preserveAspectRatio="none" x="83" y="764" width="216" height="162" xlink:href="img/4.png"/>
<path d="M102.4,769L88.7,899.6l191.8,19.6L294.2,788.5Z" class="gp_150"/>
<image clip-path="url(#c6_150)" preserveAspectRatio="none" x="88" y="768" width="209" height="152" xlink:href="img/5.png"/>
<path d="M99.1,773.3L93.7,907.8l138.7,6.3l54,-8.5l5.2,-123.4Z" class="gq_150"/>
<path d="M286.1,906.6l-54.4,7.5l37.9,-24Z" class="gr_150"/>
<path d="M218.7,790.6l-4.4,-6l-6,8Z" class="gs_150"/>
<path d="M392.8,804.9c-11.2,-6.1,-44,-22.8,-67.3,-22.3" class="gt_150"/>
<path d="M319.8,785.9c.3,1.2,2.4,2.5,9.2,3.2" class="gu_150"/>
<path d="M329.3,783.5c-6.7,-2.5,-22.6,-6.5,-54.1,-5" class="gt_150"/>
<path d="M267.7,778.9c-9.4,.6,-32.3,2.8,-50.1,8.7" class="gu_150"/>
<path d="M396.8,807.2c0,0,-.5,-.3,-1.3,-.8M324,782.7c-.5,0,-1,0,-1.5,.1c0,0,-.6,.3,-1.2,.7m9.1,5.7c.5,.1,1,.1,1.5,.2c0,0,.6,-.2,1.2,-.6m1.2,-2.1c-.1,-.4,-.3,-.7,-.7,-1.1c0,0,-.5,-.3,-1.4,-.8m-58.6,-6.3c-.5,.1,-1,.1,-1.6,.1c0,0,-.5,0,-1.4,.1M216.2,788c-.4,.2,-.9,.4,-1.3,.5" class="gv_150"/>
<image clip-path="url(#c7_150)" x="185" y="778" width="5" height="10" xlink:href="shade/1.png"/>
<image clip-path="url(#c8_150)" x="184" y="752" width="25" height="28" xlink:href="shade/2.png"/>
<image clip-path="url(#c9_150)" x="184" y="754" width="23" height="34" xlink:href="shade/3.png"/>
<image clip-path="url(#ca_150)" x="189" y="750" width="20" height="10" xlink:href="shade/4.png"/>
<path d="M610,654.8c28.7,-.6,52,-6.5,56.7,-14.2m-.9,-7c-6.4,-7.2,-29.5,-12.6,-57.3,-13m-7.7,0c-28.6,.6,-51.9,6.5,-56.7,14.2m1,7c6.4,7.2,29.4,12.6,57.3,13" class="gn_150"/>
<path d="M667.4,639.2c.1,-.5,.2,-1,.2,-1.5c0,-.5,-.1,-1,-.2,-1.5M607,620.6c-.5,0,-1.1,0,-1.6,0c-.5,0,-1,0,-1.5,0m-60.4,15.6c-.2,.5,-.2,1,-.2,1.5c0,.5,0,1,.2,1.5m60.4,15.6c.5,0,1,0,1.5,0c.5,0,1.1,0,1.6,0" class="go_150"/>
<image clip-path="url(#cb_150)" preserveAspectRatio="none" x="681" y="617" width="221" height="186" xlink:href="img/6.png"/>
<path d="M685.8,628.8L690.7,796L896,788.5L891.1,621.3Z" class="gp_150"/>
<image clip-path="url(#cc_150)" preserveAspectRatio="none" x="675" y="609" width="229" height="200" xlink:href="img/7.png"/>
<path d="M680.5,636.4l15.2,166.3L843.1,786.3l56.1,-16.2L885,613.7Z" class="gq_150"/>
<path d="M899.3,770.3l-57.8,16.3l38.3,-37.4Z" class="gr_150"/>
<path d="M584,618.5c11.8,-6.9,46.7,-25.4,69.6,-21m5.2,4.9c.1,1.9,-1.7,3.8,-9.2,3.8m-.1,-7.9c6.9,-2.6,23.1,-5.8,54.2,1.6" class="gt_150"/>
<path d="M711.1,601.8c9.2,2.5,31.2,9.3,47.8,20.6" class="gu_150"/>
<path d="M580,620.9c0,0,.5,-.3,1.3,-.8m73.8,-22.2c.5,.1,1,.2,1.5,.4c0,0,.5,.5,1,1.2m-9.6,6.7c-.5,0,-1,0,-1.6,-.1c0,0,-.7,-.4,-1.3,-1.1m-.7,-3.1c.2,-.5,.5,-1,.9,-1.5c0,0,.4,-.3,1.4,-.8m58.5,.7c.5,.1,1,.2,1.5,.4c0,0,.6,.1,1.5,.3m51.9,22.3c.4,.3,.8,.6,1.2,.9" class="gv_150"/>
<path d="M758.7,627.1l6.4,-3.8l2.4,9.7Z" class="gs_150"/>
<image clip-path="url(#cd_150)" x="784" y="627" width="6" height="9" xlink:href="shade/5.png"/>
<image clip-path="url(#ce_150)" x="784" y="600" width="24" height="28" xlink:href="shade/6.png"/>
<image clip-path="url(#cf_150)" x="783" y="603" width="23" height="33" xlink:href="shade/7.png"/>
<image clip-path="url(#cg_150)" x="789" y="599" width="20" height="10" xlink:href="shade/8.png"/>
<path d="M32.1,45.1H9.2m958.3,0h22.9M32.1,1331.3H9.2m958.3,0h22.9M45.1,32.1V9.2m0,1335.1v22.9M954.5,32.1V9.2m0,1335.1v22.9" class="gw_150"/>
<path d="M32.1,45.1H9.2m958.3,0h22.9M32.1,1331.3H9.2m958.3,0h22.9M45.1,32.1V9.2m0,1335.1v22.9M954.5,32.1V9.2m0,1335.1v22.9" class="gx_150"/>
<path d="M27.5,32.1H0m972.1,0h27.5M27.5,1344.3H0m972.1,0h27.5M32.1,27.5V0m0,1348.9v27.5M967.5,27.5V0m0,1348.9v27.5" class="gw_150"/>
<path d="M27.5,32.1H0m972.1,0h27.5M27.5,1344.3H0m972.1,0h27.5M32.1,27.5V0m0,1348.9v27.5M967.5,27.5V0m0,1348.9v27.5" class="gx_150"/>
</svg>