<?xml version="1.0" encoding="UTF-8" standalone="no"?>
<!DOCTYPE svg PUBLIC "-//W3C//DTD SVG 1.1//EN"
"http://www.w3.org/Graphics/SVG/1.1/DTD/svg11.dtd">
<svg viewBox="0 0 999 1376" version="1.1" xmlns="http://www.w3.org/2000/svg" xmlns:xlink="http://www.w3.org/1999/xlink">
<defs>
<clipPath id="c0_261"><path d="M198.6,987.5l-6.5,-2.2L175.7,971.4V914.3h72v73.2Z"/></clipPath>
<clipPath id="c1_261"><path d="M708.1,663.6V369.9H925.9V663.6Z"/></clipPath>
<clipPath id="c2_261"><path d="M710.1,661.1v-291H924.6v291Z"/></clipPath>
<clipPath id="c3_261"><path d="M709.8,660.8v-291H924.3v291Z"/></clipPath>
<clipPath id="c4_261"><path d="M199.2,263.3l-6.5,-2.1L176.3,247.3V190.2h72v73.1Z"/></clipPath>
<clipPath id="c5_261"><path d="M817.9,354.4c-.3,-.1,3.5,-8.2,3.5,-8.2l.8,.5c0,0,-4,7.7,-4.3,7.7Z"/></clipPath>
<clipPath id="c6_261"><path d="M825.4,346.7c0,0,-6.9,-1.1,-7.6,-5.3c-.6,-3.6,1.5,-3.8,2.1,-3.8q.1,0,.1,0l8.3,-12.7l-1.4,-3.1c0,0,-.6,-1.1,.1,-2.1c.1,0,.2,-.1,.3,-.1c2.1,0,13,5.6,13,5.6v.1c-.3,.5,-.7,1.2,-1.4,1.7c-.6,.5,-5,1.1,-5,1.1l-8.5,18.6Z"/></clipPath>
<clipPath id="c7_261"><path d="M825,346.3c.2,-.5,.2,-1.8,0,-2.2v-1.4c-1.6,-.6,-2.9,-1.3,-3.7,-2.6c-1.1,.6,-2.1,1.3,-3.1,1.9c1.5,2.2,3.8,3.6,6.8,4.3Zm0,-3.9c2.2,-4.5,4,-9.5,6.1,-14.1c-.8,-.4,-1.8,-1.3,-2.6,-1.3c-2.3,4.3,-4.6,8.6,-7,12.8c.7,1.3,2.1,2,3.5,2.6Zm-7.3,12.1c1,-2.9,2.4,-5.5,3.5,-8.3c-2,-1.6,-3.9,-3.1,-4.4,-6.2v-1.5c0,-2.7,1.9,-3.4,4.6,-3.4q.1,0,.2,0c1.9,-3.3,4.2,-6.3,6.1,-9.6c-.5,-.9,-1.1,-2.4,-.8,-3.7c.5,1.3,1.6,1.9,2.3,2.9c-.1,.6,-.2,1.1,-.3,1.8c.6,.6,1.3,1.1,2.4,1.3c.4,-.4,.5,-1.2,1.1,-1.5c.9,.4,1.8,.8,3.1,.8c.2,.1,.5,.1,.9,.1c.3,0,.6,0,.8,-.1c.1,0,.2,0,.3,0c.2,0,.4,0,.6,-.1c.2,-.1,.4,-.1,.5,-.1c.1,0,.2,0,.3,.1c-1.3,.6,-2.2,1.7,-4.1,1.7c-.2,0,-.3,0,-.4,0c-.9,3.8,-1.9,7.4,-2.6,11.2c.5,1.1,1.5,1.7,1.2,3.1c-.4,2.8,-3.8,4.4,-7.2,4.4c-1.2,0,-2.5,-.2,-3.6,-.7c-1,2.1,-2.1,4.1,-3.3,6c0,-.4,.3,-.4,.3,-.7c.9,-1.8,1.9,-3.6,2.6,-5.7c-1,1.7,-1.8,3.7,-2.7,5.5c-.2,.5,-.4,.9,-.7,1.3c-.3,.4,-.3,1.1,-.7,1.4Z"/></clipPath>
<clipPath id="c8_261"><path d="M835.4,326.7c-4.8,0,-13.1,-7.3,-5.5,-8.8h1.2c.2,.1,.4,.1,.6,.1c0,0,.1,0,.1,0q.1,0,.2,0c.3,0,.6,0,.9,0c3.1,.7,8.2,3.8,7.5,7.1c-.2,1.1,-1.5,1.6,-3.1,1.6h-1.9Z"/></clipPath>
<clipPath id="c9_261"><path d="M205.5,317.1c-.2,0,3.6,-8.2,3.6,-8.2l.7,.5c0,0,-4,7.7,-4.3,7.7Z"/></clipPath>
<clipPath id="ca_261"><path d="M213,309.4c0,0,-6.8,-1.1,-7.6,-5.2c-.6,-3.6,1.6,-3.8,2.1,-3.8q.1,0,.1,0L216,287.6l-1.5,-3c0,0,-.6,-1.2,.1,-2.1c.1,-.1,.2,-.1,.4,-.1c2.1,0,12.9,5.5,12.9,5.5l.1,.2c-.4,.5,-.8,1.1,-1.4,1.6c-.7,.5,-5.1,1.2,-5.1,1.2L213,309.4Z"/></clipPath>
<clipPath id="cb_261"><path d="M212.6,309.1c.2,-.5,.2,-1.8,0,-2.3v-1.4c-1.5,-.5,-2.9,-1.2,-3.6,-2.5c-1.1,.6,-2.2,1.2,-3.2,1.9c1.6,2.1,3.9,3.5,6.8,4.3Zm0,-3.9c2.2,-4.6,4,-9.5,6.2,-14.1c-.9,-.4,-1.9,-1.3,-2.7,-1.4c-2.3,4.3,-4.6,8.6,-7,12.8c.7,1.4,2.1,2,3.5,2.7Zm-7.3,12c1.1,-2.9,2.4,-5.4,3.5,-8.3c-1.9,-1.5,-3.9,-3.1,-4.4,-6.1v-1.5c0,-2.7,2,-3.4,4.6,-3.4q.1,0,.2,0c2,-3.3,4.2,-6.3,6.2,-9.7c-.6,-.9,-1.2,-2.3,-.9,-3.6c.5,1.2,1.6,1.9,2.4,2.9c-.1,.6,-.3,1.1,-.4,1.7c.6,.7,1.3,1.2,2.4,1.4c.5,-.4,.5,-1.2,1.1,-1.5c1,.3,1.9,.7,3.2,.7c.1,.1,.4,.2,.8,.2c.3,0,.7,-.1,.8,-.2c.1,.1,.2,.1,.3,.1c.2,0,.4,-.1,.6,-.2c.2,0,.4,-.1,.5,-.1c.2,0,.3,0,.4,.1c-1.4,.7,-2.2,1.8,-4.2,1.8c-.1,0,-.2,0,-.4,0c-.8,3.7,-1.8,7.3,-2.6,11.2c.5,1,1.5,1.6,1.3,3.1c-.5,2.7,-3.9,4.4,-7.2,4.4c-1.3,0,-2.6,-.2,-3.7,-.8c-1,2.1,-2,4.2,-3.2,6.1c-.1,-.4,.3,-.4,.2,-.8c1,-1.8,2,-3.6,2.7,-5.6c-1.1,1.7,-1.9,3.7,-2.8,5.5c-.2,.4,-.4,.8,-.6,1.2c-.3,.5,-.3,1.2,-.8,1.4Z"/></clipPath>
<clipPath id="cc_261"><path d="M223.1,289.5c-4.8,0,-13.1,-7.3,-5.6,-8.8h1.3c.1,0,.3,0,.5,0c0,0,.1,0,.2,0c.3,0,.6,0,1,.1c3.1,.6,8.3,3.8,7.6,7c-.3,1.2,-1.6,1.6,-3.2,1.7h-1.7q-.1,0,-.1,0Z"/></clipPath>
<clipPath id="cd_261"><path d="M786.5,132.5V120.1H801v12.4Z"/></clipPath>
<clipPath id="ce_261"><path d="M113.4,578V321.7H322.9V578Z"/></clipPath>
<clipPath id="cf_261"><path d="M109.5,582.5V319H327.3V582.5Z"/></clipPath>
<clipPath id="cg_261"><path d="M109.2,582.2V318.7H327V582.2Z"/></clipPath>
<style type="text/css"><![CDATA[
.g0_261{
fill: #FEFCF4;
}
.g1_261{
fill: #FFF;
}
.g2_261{
fill: none;
stroke: #6381B7;
stroke-width: 0.763;
}
.g3_261{
fill: #FCE8B0;
}
.g4_261{
fill: #F7C2D9;
}
.g5_261{
fill: #FEF6F5;
}
.g6_261{
fill: #EC008C;
}
.g7_261{
fill: none;
stroke: #949698;
stroke-width: 0.305;
stroke-dasharray: 4,4;
}
.g8_261{
fill: none;
stroke: #949698;
stroke-width: 0.305;
stroke-dasharray: 3,3;
}
.g9_261{
fill: none;
stroke: #949698;
stroke-width: 0.305;
}
.ga_261{
fill: #6D6F71;
}
.gb_261{
fill: #6381B7;
}
.gc_261{
fill: none;
stroke: #6381B7;
stroke-width: 0.381;
stroke-dasharray: 2,1;
}
.gd_261{
fill: none;
stroke: #6381B7;
stroke-width: 0.381;
}
.ge_261{
fill: #25408F;
}
.gf_261{
fill: #A8AAAD;
}
.gg_261{
fill: none;
stroke: #949698;
stroke-width: 0.549;
}
.gh_261{
fill: none;
stroke: #BCBEC0;
stroke-width: 2.566;
}
.gi_261{
fill: #231F20;
}
.gj_261{
fill: #363637;
}
.gk_261{
fill: #5CC4BE;
}
.gl_261{
fill: #EAD646;
}
.gm_261{
fill: none;
stroke: #FFF;
stroke-width: 1.909;
stroke-miterlimit: 10;
}
.gn_261{
fill: none;
stroke: #000;
stroke-width: 0.381;
stroke-miterlimit: 10;
}
]]></style>
</defs>
<path d="M45.1,1344.3H967.5V32.1H45.1V1344.3Z" class="g0_261"/>
<path d="M166.7,901.2c0,0,-13,0,-13,13V1104c0,0,0,13,13,13H854.5c0,0,13,0,13,-13V914.2c0,0,0,-13,-13,-13Z" class="g1_261"/>
<path d="M166.7,901.2c0,0,-13,0,-13,13V1104c0,0,0,13,13,13H854.5c0,0,13,0,13,-13V914.2c0,0,0,-13,-13,-13H166.7Z" class="g2_261"/>
<path d="M231.2,942.5c0,0,-12.9,0,-12.9,13v21.6c0,0,0,13,12.9,13H833.3c0,0,13,0,13,-13V955.5c0,0,0,-13,-13,-13Z" class="g3_261"/>
<image clip-path="url(#c0_261)" preserveAspectRatio="none" x="174" y="913" width="75" height="76" xlink:href="img/1.png"/>
<path d="M226,982.7c0,0,-26.8,11.4,-51.1,-12.7c0,0,15.2,25.3,49.3,24c0,0,24.8,.3,20.3,-10.2c0,0,1.2,-4.4,-18.5,-1.1Z" class="g3_261"/>
<path d="M172.1,137.3c0,0,-18.4,0,-18.4,18.4V844.9c0,0,0,18.3,18.4,18.3H849.2c0,0,18.3,0,18.3,-18.3V137.3Z" class="g1_261"/>
<path d="M172.1,137.3c0,0,-18.4,0,-18.4,18.4V844.9c0,0,0,18.3,18.4,18.3H849.2c0,0,18.3,0,18.3,-18.3V137.3H172.1Z" class="g2_261"/>
<image clip-path="url(#c1_261)" preserveAspectRatio="none" x="708" y="370" width="218" height="294" xlink:href="img/2.png"/>
<path d="M713,381.5l9.6,276L920,651.7L909.2,374.6Z" class="g4_261"/>
<image clip-path="url(#c2_261)" preserveAspectRatio="none" x="710" y="370" width="214" height="291" xlink:href="img/3.png"/>
<image clip-path="url(#c3_261)" preserveAspectRatio="none" x="710" y="370" width="214" height="291" xlink:href="img/4.png"/>
<path d="M721.7,374.9l-7.2,275.2L881,654.5l30.7,-36.9l6.2,-237.5Z" class="g5_261"/>
<path d="M881.1,654.4l30.5,-36.6l-19.9,-5.3Z" class="g6_261"/>
<path d="M533.5,694.8c18.1,13,97.5,67.6,139.1,47.8" class="g7_261"/>
<path d="M676.8,737.1c2,-6.7,2.9,-19.1,-19.9,-16m-4.8,4.1c-.9,2.4,-1.3,5.8,.6,9.5" class="g8_261"/>
<path d="M658,739.7c10.1,6,41.4,18.2,103.3,-11.3m6.8,-3.4c13.2,-6.6,55.6,-29.9,82.8,-67.2" class="g7_261"/>
<path d="M529.8,692c0,0,.4,.4,1.3,1m142.8,48.9c.5,-.3,.9,-.5,1.4,-.8c0,0,.2,-.5,.6,-1.3M655.5,721.3c-.5,0,-.9,.1,-1.4,.2c0,0,-.4,.4,-.8,1.2m.2,13.2c.2,.4,.5,.8,.8,1.1c0,0,.4,.4,1.2,1M762.6,727.7c.5,-.2,.9,-.4,1.4,-.7c0,0,.5,-.2,1.4,-.6m86.4,-69.8c.3,-.4,.6,-.8,.9,-1.3" class="g9_261"/>
<path d="M857.2,659.2L856.6,649l-9.2,5.8Z" class="ga_261"/>
<path d="M533.6,693.2c14.7,-1,26.4,-6.7,28.8,-14.1m-.6,-7.1c-3.4,-7,-15.2,-12.2,-29.6,-12.9m-7.3,.1c-14.7,1,-26.4,6.8,-28.8,14.1m.5,7.1c3.5,7,15.3,12.3,29.7,12.9" class="g8_261"/>
<path d="M562.8,677.7c0,-.5,.1,-1,.1,-1.5c0,-.5,-.1,-1,-.1,-1.4M530.7,659.1c-.5,0,-1,0,-1.5,0c-.4,0,-.9,0,-1.4,0m-32.1,15.7c0,.4,-.1,.9,-.1,1.4c0,.5,.1,1,.1,1.5m32.1,15.6c.5,0,1,.1,1.4,.1c.5,0,1,-.1,1.5,-.1" class="g9_261"/>
<path d="M504.5,1136.1c0,0,-4.3,0,-4.3,4.4v10.8c0,0,0,4.3,4.3,4.3h30.3c0,0,4.4,0,4.4,-4.3v-10.8c0,0,0,-4.4,-4.4,-4.4Z" class="gb_261"/>
<path d="M491.3,1127.3v37.5m1.4,1H866.8m.9,-1.3v-37.6m-1.3,-1H492.3" class="gc_261"/>
<path d="M491.3,1165.2v.6h.6m375.2,0h.6v-.6m0,-38.7v-.6h-.6m-375.2,0h-.6v.6" class="gd_261"/>
<path d="M231.8,192.4c0,0,-13,0,-13,13V253c0,0,0,13,13,13h602c0,0,13,0,13,-13V205.4c0,0,0,-13,-13,-13Z" class="g3_261"/>
<image clip-path="url(#c4_261)" preserveAspectRatio="none" x="175" y="189" width="75" height="76" xlink:href="img/5.png"/>
<path d="M226.6,258.6c0,0,-26.9,11.3,-51.1,-12.7c0,0,15.1,25.3,49.3,23.9c0,0,24.7,.4,20.2,-10.1c0,0,1.2,-4.4,-18.4,-1.1Z" class="g3_261"/>
<image clip-path="url(#c5_261)" x="817" y="346" width="6" height="9" xlink:href="shade/1.png"/>
<image clip-path="url(#c6_261)" x="817" y="319" width="24" height="28" xlink:href="shade/2.png"/>
<image clip-path="url(#c7_261)" x="816" y="321" width="23" height="34" xlink:href="shade/3.png"/>
<image clip-path="url(#c8_261)" x="822" y="317" width="20" height="10" xlink:href="shade/4.png"/>
<image clip-path="url(#c9_261)" x="205" y="308" width="5" height="10" xlink:href="shade/5.png"/>
<image clip-path="url(#ca_261)" x="204" y="282" width="24" height="28" xlink:href="shade/6.png"/>
<image clip-path="url(#cb_261)" x="204" y="284" width="23" height="34" xlink:href="shade/7.png"/>
<image clip-path="url(#cc_261)" x="209" y="280" width="20" height="10" xlink:href="shade/8.png"/>
<path d="M153.3,111.9v39L165,161.2V117Z" class="ge_261"/>
<path d="M153.3,111.9v39H851.1c0,0,16.8,0,16.8,-16.8v-5.3c0,0,0,-16.9,-16.8,-16.9Z" class="gb_261"/>
<path d="M802.6,145.6c8.2,0,14.9,-6.5,14.9,-14.5c0,-8.1,-6.7,-14.5,-14.9,-14.5c-8.2,0,-14.9,6.4,-14.9,14.5c0,8,6.7,14.5,14.9,14.5Z" class="gf_261"/>
<path d="M802.6,145.6c8.2,0,14.9,-6.5,14.9,-14.5c0,-8.1,-6.7,-14.5,-14.9,-14.5c-8.2,0,-14.9,6.4,-14.9,14.5c0,8,6.7,14.5,14.9,14.5Z" class="gg_261"/>
<path d="M802.6,136.4c3,0,5.5,-2.4,5.5,-5.3c0,-3,-2.5,-5.4,-5.5,-5.4c-3,0,-5.5,2.4,-5.5,5.4c0,2.9,2.5,5.3,5.5,5.3Z" class="g1_261"/>
<path d="M802.6,136.4c3,0,5.5,-2.4,5.5,-5.3c0,-3,-2.5,-5.4,-5.5,-5.4c-3,0,-5.5,2.4,-5.5,5.4c0,2.9,2.5,5.3,5.5,5.3Z" class="gh_261"/>
<g clip-path="url(#cd_261)" opacity="0.3">
<path d="M788,130.3c0,0,0,-4.8,3.7,-8.7l7.7,6.8c0,0,-1,.9,-1,2.6Z" class="g1_261"/>
</g>
<path d="M807.2,131c0,0,-3.5,0,-3.5,3.4v8.7c0,0,0,3.5,3.5,3.5h43.5c0,0,3.5,0,3.5,-3.5v-8.7c0,0,0,-3.4,-3.5,-3.4Z" class="gi_261"/>
<path d="M191.2,122c0,-8.3,-6.8,-15,-15.1,-15c-8.3,0,-15,6.7,-15,15c0,8.3,6.7,15.1,15,15.1c.8,0,1.7,-.1,2.4,-.2l4.5,5.2v-6.7c4.9,-2.5,8.2,-7.6,8.2,-13.4Z" class="g1_261"/>
<path d="M183.5,143.3l-5.1,-5.9c-.8,.1,-1.5,.1,-2.3,.1c-8.5,0,-15.5,-6.9,-15.5,-15.5c0,-8.5,7,-15.5,15.5,-15.5c8.6,0,15.5,7,15.5,15.5c0,5.7,-3.1,11,-8.1,13.7Zm-4.8,-6.9l3.9,4.5v-5.8l.2,-.1c4.9,-2.5,7.9,-7.5,7.9,-13c0,-8,-6.5,-14.6,-14.6,-14.6c-8,0,-14.6,6.6,-14.6,14.6c0,8.1,6.6,14.6,14.6,14.6c.8,0,1.6,-.1,2.4,-.2Z" class="gj_261"/>
<path d="M169.1,121.6c.8,0,1.4,.6,1.4,1.4c0,.8,-.6,1.5,-1.4,1.5c-.8,0,-1.4,-.7,-1.4,-1.5c0,-.8,.6,-1.4,1.4,-1.4Z" class="gk_261"/>
<path d="M169.1,124.9c-1,0,-1.9,-.8,-1.9,-1.9c0,-1,.9,-1.9,1.9,-1.9c1,0,1.9,.9,1.9,1.9c0,1.1,-.9,1.9,-1.9,1.9m0,-2.9c-.5,0,-1,.5,-1,1c0,.6,.5,1,1,1c.5,0,1,-.4,1,-1c0,-.5,-.5,-1,-1,-1Z" class="gj_261"/>
<path d="M176.1,121.6c.8,0,1.5,.6,1.5,1.4c0,.8,-.7,1.5,-1.5,1.5c-.8,0,-1.4,-.7,-1.4,-1.5c0,-.8,.6,-1.4,1.4,-1.4Z" class="gk_261"/>
<path d="M176.1,124.9c-1,0,-1.9,-.8,-1.9,-1.9c0,-1,.9,-1.9,1.9,-1.9c1.1,0,1.9,.9,1.9,1.9c0,1.1,-.8,1.9,-1.9,1.9m0,-2.9c-.5,0,-1,.5,-1,1c0,.6,.5,1,1,1c.6,0,1,-.4,1,-1c0,-.5,-.4,-1,-1,-1Z" class="gj_261"/>
<path d="M183.1,121.6c.8,0,1.5,.6,1.5,1.4c0,.8,-.7,1.5,-1.5,1.5c-.8,0,-1.4,-.7,-1.4,-1.5c0,-.8,.6,-1.4,1.4,-1.4Z" class="gk_261"/>
<path d="M183.1,124.9c-1,0,-1.9,-.8,-1.9,-1.9c0,-1,.9,-1.9,1.9,-1.9c1.1,0,1.9,.9,1.9,1.9c0,1.1,-.8,1.9,-1.9,1.9m0,-2.9c-.5,0,-1,.5,-1,1c0,.6,.5,1,1,1c.6,0,1,-.4,1,-1c0,-.5,-.4,-1,-1,-1Z" class="gj_261"/>
<path d="M185.1,136.3c0,-9.8,7.8,-17.7,17.6,-17.7c9.7,0,17.6,7.9,17.6,17.7c0,9.7,-7.9,17.6,-17.6,17.6c-1,0,-1.9,-.1,-2.9,-.3l-5.2,6.1v-7.8c-5.7,-2.9,-9.5,-8.8,-9.5,-15.6Z" class="gl_261"/>
<path d="M194.6,160.2q-.1,0,-.2,0c-.2,-.1,-.3,-.3,-.3,-.5v-7.5c-5.9,-3.2,-9.5,-9.2,-9.5,-15.9c0,-10,8.1,-18.1,18.1,-18.1c9.9,0,18,8.1,18,18.1c0,9.9,-8.1,18,-18,18c-.9,0,-1.8,0,-2.7,-.2l-5.1,5.9c-.1,.1,-.2,.2,-.3,.2m8.1,-41.1c-9.5,0,-17.2,7.7,-17.2,17.2c0,6.4,3.6,12.2,9.3,15.2c.1,.1,.2,.2,.2,.4v6.6l4.5,-5.2c.1,-.1,.3,-.1,.4,-.1c1,.1,1.9,.2,2.8,.2c9.4,0,17.1,-7.7,17.1,-17.1c0,-9.5,-7.7,-17.2,-17.1,-17.2Z" class="gj_261"/>
<path d="M210.9,135.8c.9,0,1.6,.7,1.6,1.6c0,1,-.7,1.7,-1.6,1.7c-1,0,-1.7,-.7,-1.7,-1.7c0,-.9,.7,-1.6,1.7,-1.6Z" class="g1_261"/>
<path d="M210.9,139.6c-1.2,0,-2.2,-1,-2.2,-2.2c0,-1.1,1,-2.1,2.2,-2.1c1.1,0,2.1,1,2.1,2.1c0,1.2,-1,2.2,-2.1,2.2m0,-3.4c-.7,0,-1.3,.6,-1.3,1.2c0,.7,.6,1.3,1.3,1.3c.6,0,1.2,-.6,1.2,-1.3c0,-.6,-.6,-1.2,-1.2,-1.2Z" class="gj_261"/>
<path d="M202.7,135.8c.9,0,1.6,.7,1.6,1.6c0,1,-.7,1.7,-1.6,1.7c-1,0,-1.7,-.7,-1.7,-1.7c0,-.9,.7,-1.6,1.7,-1.6Z" class="g1_261"/>
<path d="M202.7,139.6c-1.2,0,-2.2,-1,-2.2,-2.2c0,-1.1,1,-2.1,2.2,-2.1c1.1,0,2.1,1,2.1,2.1c0,1.2,-1,2.2,-2.1,2.2m0,-3.4c-.7,0,-1.3,.6,-1.3,1.2c0,.7,.6,1.3,1.3,1.3c.6,0,1.2,-.6,1.2,-1.3c0,-.6,-.6,-1.2,-1.2,-1.2Z" class="gj_261"/>
<path d="M194.5,135.8c.9,0,1.6,.7,1.6,1.6c0,1,-.7,1.7,-1.6,1.7c-1,0,-1.7,-.7,-1.7,-1.7c0,-.9,.7,-1.6,1.7,-1.6Z" class="g1_261"/>
<path d="M194.5,139.6c-1.2,0,-2.2,-1,-2.2,-2.2c0,-1.1,1,-2.1,2.2,-2.1c1.1,0,2.1,1,2.1,2.1c0,1.2,-1,2.2,-2.1,2.2m0,-3.4c-.7,0,-1.2,.6,-1.2,1.2c0,.7,.5,1.3,1.2,1.3c.6,0,1.2,-.6,1.2,-1.3c0,-.6,-.6,-1.2,-1.2,-1.2Z" class="gj_261"/>
<image clip-path="url(#ce_261)" preserveAspectRatio="none" x="113" y="322" width="209" height="256" xlink:href="img/6.png"/>
<path d="M120.5,326.6l-1.8,242.2l197.4,2.7l.7,-243.2Z" class="g4_261"/>
<image clip-path="url(#cf_261)" preserveAspectRatio="none" x="109" y="319" width="218" height="264" xlink:href="img/7.png"/>
<image clip-path="url(#cg_261)" preserveAspectRatio="none" x="109" y="319" width="218" height="264" xlink:href="img/8.png"/>
<path d="M114.3,333.7l12.5,242.5l166.4,-8.7L321,530.8L310.3,323.4Z" class="g5_261"/>
<path d="M293.2,567.5l28,-36.3l-15.4,-5Z" class="g6_261"/>
<path d="M636.4,532.1c21.4,-.8,38.8,-6.7,42.3,-14.2m-.7,-7.1c-5,-7.1,-22.2,-12.4,-43.1,-12.9m-7.5,0c-21.5,.8,-38.8,6.6,-42.3,14.2m.7,7.1c4.9,7.1,22.2,12.4,43.1,12.9" class="g8_261"/>
<path d="M679.2,516.5c.1,-.5,.2,-1,.2,-1.5c0,-.5,-.1,-1,-.2,-1.5M633.4,497.9c-.5,0,-1,0,-1.5,0c-.5,0,-1,0,-1.5,0m-45.8,15.6c-.1,.5,-.2,1,-.2,1.5c0,.5,.1,1,.2,1.5m45.8,15.6c.5,0,1,0,1.5,0c.5,0,1,0,1.5,0" class="g9_261"/>
<path d="M612.5,534.7c-17.7,10.2,-89.8,50,-137.6,45" class="g7_261"/>
<path d="M468.5,576.5c-3.1,-3.5,-4.4,-9.3,18.9,-10.7m6.4,2.2c.9,.9,1.6,2.2,1.1,3.8" class="g8_261"/>
<path d="M489.4,576.4c-10.1,4.8,-41.2,15.3,-112,7.9" class="g7_261"/>
<path d="M369.9,583.5c-15,-1.7,-65.3,-8.4,-102.4,-24.9" class="g8_261"/>
<path d="M616.4,532.3c0,0,-.4,.3,-1.3,.8M473.3,579.5c-.5,0,-1,-.1,-1.5,-.2c0,0,-.5,-.3,-1.1,-.8m18.1,-12.8c.5,0,1,0,1.5,0c0,0,.5,.2,1.2,.6m2.7,6.8c-.2,.3,-.5,.7,-.9,1.1c0,0,-.4,.3,-1.3,.8m-116.1,9.2c-.5,-.1,-1,-.1,-1.5,-.2c0,0,-.6,0,-1.5,-.1m-106.7,-26c-.5,-.2,-.9,-.4,-1.4,-.6" class="g9_261"/>
<path d="M272.1,555.3l-8,5.4l-4.6,-11.8Z" class="ga_261"/>
<path d="M32.1,45.1H9.2m958.3,0h22.9M32.1,1331.3H9.2m958.3,0h22.9M45.1,32.1V9.2m0,1335.1v22.9M954.5,32.1V9.2m0,1335.1v22.9" class="gm_261"/>
<path d="M32.1,45.1H9.2m958.3,0h22.9M32.1,1331.3H9.2m958.3,0h22.9M45.1,32.1V9.2m0,1335.1v22.9M954.5,32.1V9.2m0,1335.1v22.9" class="gn_261"/>
<path d="M27.5,32.1H0m972.1,0h27.5M27.5,1344.3H0m972.1,0h27.5M32.1,27.5V0m0,1348.9v27.5M967.5,27.5V0m0,1348.9v27.5" class="gm_261"/>
<path d="M27.5,32.1H0m972.1,0h27.5M27.5,1344.3H0m972.1,0h27.5M32.1,27.5V0m0,1348.9v27.5M967.5,27.5V0m0,1348.9v27.5" class="gn_261"/>
</svg>