<?xml version="1.0" encoding="UTF-8" standalone="no"?>
<!DOCTYPE svg PUBLIC "-//W3C//DTD SVG 1.1//EN"
"http://www.w3.org/Graphics/SVG/1.1/DTD/svg11.dtd">
<svg viewBox="0 0 999 1376" version="1.1" xmlns="http://www.w3.org/2000/svg" xmlns:xlink="http://www.w3.org/1999/xlink">
<defs>
<clipPath id="c0_193"><path d="M154.8,1244.1V131.1H869.3v1113Z"/></clipPath>
<clipPath id="c1_193"><path d="M253.5,1080.7V534.4H769v546.3Z"/></clipPath>
<style type="text/css"><![CDATA[
.g0_193{
fill: #FFF;
}
.g1_193{
fill: none;
stroke: #231F20;
stroke-width: 0.756;
stroke-miterlimit: 3;
}
.g2_193{
fill: #25408F;
}
.g3_193{
fill: #6381B7;
}
.g4_193{
fill: #FFDE2C;
}
.g5_193{
fill: none;
stroke: #231F20;
stroke-width: 1.451;
stroke-miterlimit: 10;
}
.g6_193{
fill: #D2D3D5;
}
.g7_193{
fill: #A8AAAD;
}
.g8_193{
fill: none;
stroke: #231F20;
stroke-width: 0.828;
stroke-miterlimit: 10;
}
.g9_193{
fill: #6CCFF6;
}
.ga_193{
fill: none;
stroke: #231F20;
stroke-width: 0.828;
stroke-linecap: round;
stroke-linejoin: round;
}
.gb_193{
fill: none;
stroke: #231F20;
stroke-width: 1.451;
stroke-linecap: round;
stroke-linejoin: round;
}
.gc_193{
fill: none;
stroke: #FFF;
stroke-width: 1.909;
stroke-miterlimit: 10;
}
.gd_193{
fill: none;
stroke: #000;
stroke-width: 0.381;
stroke-miterlimit: 10;
}
]]></style>
</defs>
<path d="M154.8,1244.1H869.3V131.1H154.8v1113Z" class="g0_193"/>
<image clip-path="url(#c0_193)" preserveAspectRatio="none" x="152" y="129" width="719" height="1117" xlink:href="img/1.jpg"/>
<path d="M416.9,213.7v-6.8h-7.2v-1.8h10.8c1.5,0,2.8,-.1,4,-.4c1.1,-.3,2.3,-.8,3.3,-1.5V191.4H430V214h-2.2v-8.7c-1.1,.6,-2.2,1,-3.4,1.3c-1.1,.2,-2.4,.3,-3.9,.3h-1.3v6.8h-2.3ZM412.1,193h4c.1,-.3,.2,-.6,.3,-.9c0,-.3,.1,-.6,.1,-.8c0,-.2,-.1,-.4,-.1,-.6c0,-.2,-.1,-.4,-.1,-.7l2.2,-.5c0,.2,.1,.5,.1,.7c0,.3,.1,.6,.1,.8c-.1,.3,-.1,.6,-.2,.9c-.1,.4,-.2,.7,-.4,1.1h3.1c.5,0,.9,.1,1.2,.5c.2,.3,.2,.8,.1,1.5c-.2,.6,-.5,1.2,-.8,1.7c-.3,.6,-.6,1.1,-1.1,1.6c.5,.1,.8,.2,1.1,.4c.3,.2,.5,.3,.7,.5c.3,.3,.7,.7,1.1,1.2c.5,.5,1,1,1.5,1.6l-1.5,1.4c-.3,-.4,-.7,-.9,-1.2,-1.3c-.4,-.5,-.8,-.9,-1.2,-1.3c-.2,-.2,-.4,-.4,-.7,-.6c-.3,-.2,-.7,-.4,-1.2,-.5c-.9,.8,-2,1.5,-3.2,2.1c-1.2,.6,-2.5,1.2,-3.8,1.6l-.8,-2c2.3,-.7,4.1,-1.6,5.4,-2.5c1.3,-.9,2.4,-2,3.1,-3.4c.1,-.2,.1,-.4,.1,-.5c-.1,-.2,-.3,-.2,-.5,-.2h-7.4V193Zm34.3,13.8c-.8,.5,-1.8,.9,-3,1.2c-1.2,.4,-2.3,.6,-3.3,.6h-3.3c-.8,0,-1.4,-.2,-1.9,-.6c-.4,-.4,-.6,-1,-.6,-1.9V192.4h12.1v14.4Zm-2.3,-12.6h-7.6v11.7c0,.3,.1,.5,.2,.6c.1,.2,.3,.2,.6,.2h2.6c.6,0,1.3,-.1,2,-.2c.8,-.2,1.5,-.5,2.2,-.8V194.2Zm7.3,-2.8h2.3V214h-2.3V191.4ZM469.2,215.8c-.6,0,-1.1,-.1,-1.3,-.4c-.3,-.2,-.4,-.6,-.4,-1.1v-4.1h13.3v-1.9H467.5v-1.8h12.1c.4,-.5,.7,-1,.9,-1.5c.2,-.6,.3,-1.2,.3,-2v-.1c-1.1,.5,-2.2,.9,-3.4,1.2c-1.1,.2,-2.5,.4,-4.2,.4h-9.4v-1.8h6.3V201c-1.2,-.2,-2.2,-.6,-3.1,-1.3c-.8,-.7,-1.2,-1.7,-1.2,-3c0,-.5,.1,-1,.2,-1.5c.2,-.5,.5,-.9,.8,-1.2h-2.7v-1.8h5.6c.1,-.2,.1,-.4,.2,-.6c0,-.2,.1,-.5,.1,-.7c0,-.2,-.1,-.4,-.1,-.6c0,-.2,-.1,-.4,-.2,-.5l2.3,-.7c.1,.2,.1,.5,.1,.8c.1,.3,.1,.5,.1,.7c0,.3,-.1,.7,-.1,.9c-.1,.3,-.2,.5,-.3,.7h6.5V194h-2.7c.4,.3,.6,.7,.8,1.2c.2,.5,.3,1,.3,1.5c0,1.3,-.4,2.3,-1.3,3c-.8,.7,-1.8,1.1,-3,1.3v1.7h.8c1.4,0,2.7,-.1,4,-.4c1.2,-.2,2.5,-.7,3.6,-1.5v-9.7h2.3v6.5h4.2v1.8h-4.2V203c0,.8,-.2,1.5,-.4,2.1c-.3,.5,-.6,1,-1,1.4c.6,.1,.9,.3,1.1,.5c.2,.3,.3,.7,.2,1.2l-.3,3c0,.3,-.1,.5,-.3,.6c-.2,.1,-.4,.2,-.7,.2h-12v2h7.8c.8,0,1.7,0,2.7,-.1c1.1,-.1,2.1,-.3,3.1,-.6l.4,1.7c-.9,.3,-1.9,.5,-3,.6c-1,.2,-2,.2,-3.1,.2h-8.4Zm4.5,-20.9c-.6,-.5,-1.4,-.7,-2.5,-.7c-1.1,0,-1.9,.2,-2.4,.7c-.6,.5,-.8,1.1,-.8,1.8c0,.8,.2,1.4,.8,1.9c.5,.4,1.3,.6,2.4,.6c1.1,0,1.9,-.2,2.5,-.6c.5,-.5,.8,-1.1,.8,-1.9c0,-.7,-.3,-1.3,-.8,-1.8ZM505,213.3c-.3,.7,-.8,1.2,-1.4,1.7c-.6,.5,-1.3,.8,-2.1,1.1c-.8,.2,-1.6,.3,-2.6,.3c-.9,0,-1.8,-.1,-2.6,-.3c-.8,-.3,-1.5,-.6,-2.1,-1.1c-.6,-.5,-1.1,-1,-1.4,-1.7c-.3,-.6,-.5,-1.4,-.5,-2.2c0,-.8,.2,-1.5,.5,-2.2c.3,-.6,.8,-1.2,1.4,-1.6c.6,-.5,1.3,-.8,2.1,-1.1c.8,-.2,1.7,-.3,2.6,-.3c1,0,1.8,.1,2.6,.3c.9,.3,1.5,.6,2.1,1.1c.6,.4,1.1,1,1.4,1.6c.3,.7,.5,1.4,.5,2.2c0,.8,-.2,1.6,-.5,2.2Zm4.7,-9.2H488.4v-1.7h9.2v-3.2h-3.5c-.9,0,-1.6,-.2,-2.1,-.6c-.4,-.4,-.6,-1,-.6,-1.8v-5.7h14.8v1.7H493.6v3.8c0,.3,.1,.5,.2,.6c.1,.2,.3,.2,.6,.2h5.3c1.2,0,2.4,0,3.5,-.2c1.1,-.1,2.2,-.3,3.3,-.6l.4,1.7c-1.2,.3,-2.3,.6,-3.5,.7c-1.2,.1,-2.3,.2,-3.5,.2v3.2h9.8v1.7Zm-7.6,4.5c-.9,-.6,-1.9,-1,-3.2,-1c-1.3,0,-2.3,.4,-3.1,1c-.8,.6,-1.3,1.5,-1.3,2.5c0,1.1,.5,2,1.3,2.6c.8,.6,1.8,1,3.1,1c1.3,0,2.3,-.4,3.2,-1c.8,-.6,1.2,-1.5,1.2,-2.6c0,-1,-.4,-1.9,-1.2,-2.5Zm37.5,2.1H518.2v-1.9h21.4v1.9ZM520.5,192.1h16.4V194H520.5v-1.9Zm13.7,3.2V199c0,.6,-.1,1.2,-.2,1.8c-.1,.5,-.3,1.1,-.7,1.7h3.9v1.9H520.3v-1.9h3.8c-.3,-.5,-.5,-1.1,-.6,-1.6c-.1,-.6,-.2,-1.2,-.2,-1.8v-3.8h2.2v3.9c0,.6,0,1.2,.1,1.8c.1,.5,.3,1.1,.6,1.5h5.1c.3,-.5,.4,-1.1,.5,-1.6c.1,-.6,.2,-1.2,.2,-1.8v-3.8h2.2Zm12,6.8c0,.3,.1,.6,.2,.7c.2,.2,.4,.2,.7,.2h5.4c1.1,0,2.3,0,3.4,-.1c1.2,-.1,2.4,-.3,3.8,-.6l.3,1.7c-.7,.2,-1.3,.3,-1.9,.5c-.6,.1,-1.2,.2,-1.7,.2c-.6,.1,-1.2,.1,-1.7,.1c-.6,.1,-1.2,.1,-1.9,.1v4.2h9.7V211H541.2v-1.9h9.4v-4.2h-3.7c-1,0,-1.7,-.2,-2.2,-.6c-.4,-.4,-.7,-1,-.7,-1.9v-4.8h12.8V194H544v-1.9h15v6.6c-.6,.3,-1.2,.4,-1.8,.5c-.6,.1,-1.2,.2,-1.9,.2h-9.1v2.7Zm39.2,8.3H564.1v-1.8h21.3v1.8Zm-6.6,-4.6c.3,-1.6,.6,-3.2,.9,-4.9c.3,-1.7,.4,-3.7,.4,-5.8c0,-.4,-.1,-.6,-.2,-.8c-.1,-.1,-.4,-.2,-.7,-.2H566.5v-1.8h13.3c1,0,1.6,.2,2,.7c.3,.4,.5,1,.5,1.8c0,2,-.2,3.9,-.5,5.8c-.2,2,-.6,3.8,-1,5.6l-2,-.4Zm29.4,9.5c-.1,.2,-.1,.3,-.3,.4c-.1,.1,-.3,.1,-.5,.1H595.2c-.9,0,-1.5,-.2,-1.9,-.6c-.4,-.4,-.5,-1,-.5,-1.8v-6.8h14.4c.5,0,.9,.2,1.1,.5c.3,.3,.4,.8,.3,1.5l-.4,6.7ZM603,197.1h3.6v-6h2.1v14.1h-2.1v-6.3H603v6.3h-2.2v-3.3c-1,.5,-2.2,.9,-3.3,1.1c-1.2,.3,-2.3,.4,-3.4,.4h-3c-.9,0,-1.6,-.2,-2.1,-.5c-.5,-.4,-.8,-1.1,-.8,-2v-4.4h7.2v-3.2h-7.2v-1.8h9.3v6.2c-.6,.2,-1.2,.4,-1.8,.5c-.6,.1,-1.2,.1,-1.9,.1h-3.4v2.6c0,.3,.1,.5,.2,.6c.1,.1,.3,.2,.6,.2h3c1,0,2.1,-.2,3.3,-.4c1.2,-.3,2.3,-.7,3.3,-1.3v-8.9H603v6Zm3.3,16.9v-5.6H595v4.7c0,.4,.1,.6,.2,.7c.1,.2,.3,.2,.7,.2h10.4Z" class="g1_193"/>
<image clip-path="url(#c1_193)" preserveAspectRatio="none" x="253" y="534" width="516" height="547" xlink:href="img/2.png"/>
<path d="M153.3,126.3v22.2L165,158.7V136.5Z" class="g2_193"/>
<path d="M153.3,109.5v39H851.1c0,0,16.8,0,16.8,-16.8v-5.4c0,0,0,-16.8,-16.8,-16.8Z" class="g3_193"/>
<path d="M207.2,115.7c0,-9.1,-7.9,-16.6,-17.7,-16.6c-9.8,0,-17.7,7.5,-17.7,16.6c0,2.7,.6,5.2,1.8,7.4c1.2,2.4,2.9,4.6,5,6.2c1.2,1,1.6,1.7,1.7,4.3v.6c0,3.3,2.7,5.9,5.9,5.9h6.6c3.2,0,5.8,-2.6,5.8,-5.9v-.6c.2,-2.6,.6,-3.3,1.8,-4.3c2.1,-1.6,3.8,-3.8,5,-6.2c1.2,-2.2,1.8,-4.7,1.8,-7.4Z" class="g4_193"/>
<path d="M207.2,115.7c0,-9.1,-7.9,-16.6,-17.7,-16.6c-9.8,0,-17.7,7.5,-17.7,16.6c0,2.7,.6,5.2,1.8,7.4c1.2,2.4,2.9,4.6,5,6.2c1.2,1,1.6,1.7,1.7,4.3v.6c0,3.3,2.7,5.9,5.9,5.9h6.6c3.2,0,5.8,-2.6,5.8,-5.9v-.6c.2,-2.6,.6,-3.3,1.8,-4.3c2.1,-1.6,3.8,-3.8,5,-6.2c1.2,-2.2,1.8,-4.7,1.8,-7.4Z" class="g5_193"/>
<path d="M194.6,147.4c0,2.8,-2.3,5.1,-5.1,5.1c-2.8,0,-5.1,-2.3,-5.1,-5.1c0,-2.8,2.3,-5.1,5.1,-5.1c2.8,0,5.1,2.3,5.1,5.1Z" class="g0_193"/>
<path d="M194.6,147.4c0,2.8,-2.3,5.1,-5.1,5.1c-2.8,0,-5.1,-2.3,-5.1,-5.1c0,-2.8,2.3,-5.1,5.1,-5.1c2.8,0,5.1,2.3,5.1,5.1Z" class="g5_193"/>
<path d="M182.1,140.2c0,1,.8,1.8,1.8,1.8h11.2c1,0,1.8,-.8,1.8,-1.8v-1.3H182.1Z" class="g0_193"/>
<path d="M182.1,140.2c0,1,.8,1.8,1.8,1.8h11.2c1,0,1.8,-.8,1.8,-1.8v-1.3H182.1v1.3Z" class="g5_193"/>
<path d="M196.9,143.2c0,.8,-.6,1.3,-1.3,1.3H183.4c-.8,0,-1.3,-.5,-1.3,-1.3c0,-.7,.5,-1.3,1.3,-1.3h12.2c.7,0,1.3,.6,1.3,1.3Z" class="g0_193"/>
<path d="M196.9,143.2c0,.8,-.6,1.3,-1.3,1.3H183.4c-.8,0,-1.3,-.5,-1.3,-1.3c0,-.7,.5,-1.3,1.3,-1.3h12.2c.7,0,1.3,.6,1.3,1.3Z" class="g5_193"/>
<path d="M196.9,145.8c0,.7,-.6,1.3,-1.3,1.3H183.4c-.8,0,-1.3,-.6,-1.3,-1.3c0,-.7,.5,-1.3,1.3,-1.3h12.2c.7,0,1.3,.6,1.3,1.3Z" class="g0_193"/>
<path d="M196.9,145.8c0,.7,-.6,1.3,-1.3,1.3H183.4c-.8,0,-1.3,-.6,-1.3,-1.3c0,-.7,.5,-1.3,1.3,-1.3h12.2c.7,0,1.3,.6,1.3,1.3Z" class="g5_193"/>
<path d="M215.5,128.7l8.3,10.4c.6,.7,1.8,.6,2.7,-.2c.9,-.7,1.2,-1.9,.7,-2.6l-8.9,-10.2Z" class="g6_193"/>
<path d="M215.5,128.7l8.3,10.4c.6,.7,1.8,.6,2.7,-.2c.9,-.7,1.2,-1.9,.7,-2.6l-8.9,-10.2l-2.8,2.6Z" class="g5_193"/>
<path d="M217.5,125.1c.5,.6,.3,1.8,-.7,2.6c-.9,.7,-2.1,.8,-2.6,.2c-.6,-.7,-.3,-1.9,.6,-2.6c.9,-.8,2.1,-.9,2.7,-.2Z" class="g7_193"/>
<path d="M217.5,125.1c.5,.6,.3,1.8,-.7,2.6c-.9,.7,-2.1,.8,-2.6,.2c-.6,-.7,-.3,-1.9,.6,-2.6c.9,-.8,2.1,-.9,2.7,-.2Z" class="g5_193"/>
<path d="M212.7,124.7l1.7,2c.3,.3,1,.3,1.5,-.1c.5,-.5,.7,-1.1,.4,-1.5l-1.7,-2Z" class="g0_193"/>
<path d="M212.7,124.7l1.7,2c.3,.3,1,.3,1.5,-.1c.5,-.5,.7,-1.1,.4,-1.5l-1.7,-2l-1.9,1.6Z" class="g8_193"/>
<path d="M214.8,122.9c.4,.5,.2,1.3,-.5,1.8c-.6,.5,-1.4,.6,-1.8,.1c-.4,-.4,-.2,-1.2,.5,-1.7c.6,-.6,1.4,-.6,1.8,-.2Z" class="g0_193"/>
<path d="M214.8,122.9c.4,.5,.2,1.3,-.5,1.8c-.6,.5,-1.4,.6,-1.8,.1c-.4,-.4,-.2,-1.2,.5,-1.7c.6,-.6,1.4,-.6,1.8,-.2Z" class="g8_193"/>
<path d="M216.4,105.4c4.8,5.7,4.1,14.2,-1.7,19c-5.7,4.8,-14.2,4,-19,-1.7c-4.8,-5.7,-4,-14.2,1.7,-19c5.7,-4.8,14.2,-4.1,19,1.7Z" class="g0_193"/>
<path d="M216.4,105.4c4.8,5.7,4.1,14.2,-1.7,19c-5.7,4.8,-14.2,4,-19,-1.7c-4.8,-5.7,-4,-14.2,1.7,-19c5.7,-4.8,14.2,-4.1,19,1.7Z" class="g5_193"/>
<path d="M214,107.4c3.5,4.2,3,10.5,-1.3,14.1c-4.2,3.5,-10.5,2.9,-14,-1.3c-3.5,-4.2,-3,-10.5,1.2,-14c4.2,-3.6,10.5,-3,14.1,1.2Z" class="g9_193"/>
<path d="M214,107.4c3.5,4.2,3,10.5,-1.3,14.1c-4.2,3.5,-10.5,2.9,-14,-1.3c-3.5,-4.2,-3,-10.5,1.2,-14c4.2,-3.6,10.5,-3,14.1,1.2Z" class="g5_193"/>
<path d="M213,110.6l-3.1,3m3.1,-.4l-3.1,3" class="ga_193"/>
<path d="M172.1,99l3.1,3.3m1.1,-5.9l1.2,3.9m-8.1,3l3.7,1.2" class="gb_193"/>
<path d="M185.8,106.1c1.2,1.2,.2,4.3,-2.2,6.7c-2.5,2.5,-5.5,3.5,-6.8,2.3c-1.2,-1.3,-.3,-4.3,2.2,-6.8c2.5,-2.5,5.5,-3.5,6.8,-2.2Z" class="g0_193"/>
<path d="M203.7,107.6c.6,.6,.1,1.9,-.9,3c-1.1,1,-2.4,1.5,-3,.9c-.5,-.5,-.1,-1.8,1,-2.9c1.1,-1.1,2.4,-1.5,2.9,-1Z" class="g0_193"/>
<path d="M32.1,45.1H9.2m958.3,0h22.9M32.1,1331.3H9.2m958.3,0h22.9M45.1,32.1V9.2m0,1335.1v22.9M954.5,32.1V9.2m0,1335.1v22.9" class="gc_193"/>
<path d="M32.1,45.1H9.2m958.3,0h22.9M32.1,1331.3H9.2m958.3,0h22.9M45.1,32.1V9.2m0,1335.1v22.9M954.5,32.1V9.2m0,1335.1v22.9" class="gd_193"/>
<path d="M27.5,32.1H0m972.1,0h27.5M27.5,1344.3H0m972.1,0h27.5M32.1,27.5V0m0,1348.9v27.5M967.5,27.5V0m0,1348.9v27.5" class="gc_193"/>
<path d="M27.5,32.1H0m972.1,0h27.5M27.5,1344.3H0m972.1,0h27.5M32.1,27.5V0m0,1348.9v27.5M967.5,27.5V0m0,1348.9v27.5" class="gd_193"/>
</svg>