<?xml version="1.0" encoding="UTF-8" standalone="no"?>
<!DOCTYPE svg PUBLIC "-//W3C//DTD SVG 1.1//EN"
"http://www.w3.org/Graphics/SVG/1.1/DTD/svg11.dtd">
<svg viewBox="0 0 999 1376" version="1.1" xmlns="http://www.w3.org/2000/svg" xmlns:xlink="http://www.w3.org/1999/xlink">
<defs>
<clipPath id="c0_298"><path d="M178.8,890.4l-6.5,-2.1l-16.4,-14V817.2h72v73.2Z"/></clipPath>
<clipPath id="c1_298"><path d="M203.2,1025.7V957.8h65.7v67.9Z"/></clipPath>
<clipPath id="c2_298"><path d="M335.3,1028V960.1H401V1028Z"/></clipPath>
<clipPath id="c3_298"><path d="M474,1027.8V958.5h70.8v69.3Z"/></clipPath>
<clipPath id="c4_298"><path d="M582.1,1029.6V963.1h78.7v66.5Z"/></clipPath>
<clipPath id="c5_298"><path d="M702.7,1032.9V965.5h81.1v67.4Z"/></clipPath>
<clipPath id="c6_298"><path d="M192.7,370.7V255.3H321.1V370.7Z"/></clipPath>
<clipPath id="c7_298"><path d="M349.9,370.5V255.3H477.5V370.5Z"/></clipPath>
<clipPath id="c8_298"><path d="M493.4,370.7V255.3h128V370.7Z"/></clipPath>
<clipPath id="c9_298"><path d="M658.5,370.7V255.3H773.9V370.7Z"/></clipPath>
<clipPath id="ca_298"><path d="M190.1,545.2V429.8H318.5V545.2Z"/></clipPath>
<clipPath id="cb_298"><path d="M340.7,545.2V429.8H477.5V545.2Z"/></clipPath>
<clipPath id="cc_298"><path d="M500.9,545.2V429.8H629.3V545.2Z"/></clipPath>
<clipPath id="cd_298"><path d="M646.2,545.2V429.8H783V545.2Z"/></clipPath>
<clipPath id="ce_298"><path d="M187.9,740.4V625h131V740.4Z"/></clipPath>
<clipPath id="cf_298"><path d="M347.2,733.8V625H457.8V733.8Z"/></clipPath>
<clipPath id="cg_298"><path d="M499.1,740.4V625H627.5V740.4Z"/></clipPath>
<clipPath id="ch_298"><path d="M657.6,737.8V625H773V737.8Z"/></clipPath>
<clipPath id="ci_298"><path d="M651.4,736.1V627H780.9V736.1Z"/></clipPath>
<clipPath id="cj_298"><path d="M176.6,236.8l-6.5,-2.1L153.7,220.8V163.7h72v73.1Z"/></clipPath>
<style type="text/css"><![CDATA[
.g0_298{
fill: #FEFCF4;
}
.g1_298{
fill: #FCE8B0;
}
.g2_298{
fill: #FFF;
}
.g3_298{
fill: none;
stroke: #6381B7;
stroke-width: 0.763;
}
.g4_298{
fill: #EFE9CC;
}
.g5_298{
fill: #ABB2C9;
}
.g6_298{
fill: none;
stroke: #949698;
stroke-width: 1.237;
}
.g7_298{
fill: #6381B7;
}
.g8_298{
fill: none;
stroke: #6381B7;
stroke-width: 0.381;
stroke-dasharray: 2,1;
}
.g9_298{
fill: none;
stroke: #6381B7;
stroke-width: 0.381;
}
.ga_298{
fill: #25408F;
}
.gb_298{
fill: #00BAF1;
}
.gc_298{
fill: #332D2C;
}
.gd_298{
fill: #D9DFF0;
}
.ge_298{
fill: #F27C85;
}
.gf_298{
fill: #7DD3F6;
}
.gg_298{
fill: none;
stroke: #FFF;
stroke-width: 1.909;
stroke-miterlimit: 10;
}
.gh_298{
fill: none;
stroke: #000;
stroke-width: 0.381;
stroke-miterlimit: 10;
}
]]></style>
</defs>
<path d="M32.1,1344.3H954.5V32.1H32.1V1344.3Z" class="g0_298"/>
<path d="M211.4,845.4c0,0,-13,0,-13,13V880c0,0,0,13,13,13H833c0,0,13,0,13,-13V858.4c0,0,0,-13,-13,-13Z" class="g1_298"/>
<image clip-path="url(#c0_298)" preserveAspectRatio="none" x="154" y="816" width="75" height="76" xlink:href="img/1.png"/>
<path d="M206.2,885.7c0,0,-26.9,11.3,-51.1,-12.8c0,0,15.2,25.3,49.3,24c0,0,24.7,.3,20.2,-10.2c0,0,1.3,-4.4,-18.4,-1Z" class="g1_298"/>
<path d="M150.9,135.3c0,0,-18.3,0,-18.3,18.4V791.6c0,0,0,18.3,18.3,18.3H828c0,0,18.4,0,18.4,-18.3V135.3Z" class="g2_298"/>
<path d="M150.9,135.3c0,0,-18.3,0,-18.3,18.4V791.6c0,0,0,18.3,18.3,18.3H828c0,0,18.4,0,18.4,-18.3V135.3H150.9Z" class="g3_298"/>
<path d="M145.1,906c0,0,-13,0,-13,13v269.2c0,0,0,13,13,13H832.9c0,0,13,0,13,-13V919c0,0,0,-13,-13,-13Z" class="g2_298"/>
<path d="M145.1,906c0,0,-13,0,-13,13v269.2c0,0,0,13,13,13H832.9c0,0,13,0,13,-13V919c0,0,0,-13,-13,-13H145.1Z" class="g3_298"/>
<path d="M203.7,1029.4h65V953.6h-65v75.8Z" class="g2_298"/>
<image clip-path="url(#c1_298)" preserveAspectRatio="none" x="201" y="957" width="77" height="69" xlink:href="img/2.jpg"/>
<path d="M335.6,1029.4h64.9V958.8H335.6v70.6Z" class="g2_298"/>
<image clip-path="url(#c2_298)" preserveAspectRatio="none" x="328" y="959" width="74" height="70" xlink:href="img/3.jpg"/>
<path d="M470.6,1029.4h77.9V953.6H470.6v75.8Z" class="g2_298"/>
<image clip-path="url(#c3_298)" preserveAspectRatio="none" x="474" y="957" width="71" height="71" xlink:href="img/4.jpg"/>
<path d="M582.1,1029.4h86.6V958.8H582.1v70.6Z" class="g2_298"/>
<image clip-path="url(#c4_298)" preserveAspectRatio="none" x="581" y="962" width="80" height="70" xlink:href="img/5.jpg"/>
<path d="M697.3,1046.1h99.6V958.8H697.3v87.3Z" class="g2_298"/>
<image clip-path="url(#c5_298)" preserveAspectRatio="none" x="703" y="964" width="82" height="70" xlink:href="img/6.jpg"/>
<path d="M187.1,1152.3c0,0,-8.7,0,-8.7,8.7v15.1c0,0,0,8.7,8.7,8.7H294.3c0,0,8.7,0,8.7,-8.7V1161c0,0,0,-8.7,-8.7,-8.7Z" class="g4_298"/>
<path d="M492.2,1152.3c0,0,-8.7,0,-8.7,8.7v15.1c0,0,0,8.7,8.7,8.7h59.9c0,0,8.6,0,8.6,-8.7V1161c0,0,0,-8.7,-8.6,-8.7Z" class="g4_298"/>
<path d="M346.3,1152.3c0,0,-8.6,0,-8.6,8.7v15.1c0,0,0,8.7,8.6,8.7h88.5c0,0,8.7,0,8.7,-8.7V1161c0,0,0,-8.7,-8.7,-8.7Z" class="g4_298"/>
<path d="M605.3,1152.3c0,0,-8.6,0,-8.6,8.7v15.1c0,0,0,8.7,8.6,8.7h41.2c0,0,8.6,0,8.6,-8.7V1161c0,0,0,-8.7,-8.6,-8.7Z" class="g4_298"/>
<path d="M697.3,1152.3c0,0,-8.7,0,-8.7,8.7v15.1c0,0,0,8.7,8.7,8.7H805c0,0,8.7,0,8.7,-8.7V1161c0,0,0,-8.7,-8.7,-8.7Z" class="g4_298"/>
<path d="M239.1,1046.4c1.9,0,3.6,-1.7,3.6,-3.6c0,-2,-1.7,-3.7,-3.6,-3.7c-2,0,-3.7,1.7,-3.7,3.7c0,1.9,1.7,3.6,3.7,3.6Z" class="g5_298"/>
<path d="M491.3,1046.4c2,0,3.6,-1.7,3.6,-3.6c0,-2,-1.6,-3.7,-3.6,-3.7c-2,0,-3.6,1.7,-3.6,3.7c0,1.9,1.6,3.6,3.6,3.6Z" class="g5_298"/>
<path d="M361.8,1046.4c2,0,3.6,-1.7,3.6,-3.6c0,-2,-1.6,-3.7,-3.6,-3.7c-2,0,-3.6,1.7,-3.6,3.7c0,1.9,1.6,3.6,3.6,3.6Z" class="g5_298"/>
<path d="M615.5,1046.4c2,0,3.6,-1.7,3.6,-3.6c0,-2,-1.6,-3.7,-3.6,-3.7c-2,0,-3.6,1.7,-3.6,3.7c0,1.9,1.6,3.6,3.6,3.6Z" class="g5_298"/>
<path d="M743.5,1046.4c2,0,3.6,-1.7,3.6,-3.6c0,-2,-1.6,-3.7,-3.6,-3.7c-2,0,-3.6,1.7,-3.6,3.7c0,1.9,1.6,3.6,3.6,3.6Z" class="g5_298"/>
<path d="M239.1,1142.9c1.9,0,3.6,-1.6,3.6,-3.6c0,-2,-1.7,-3.6,-3.6,-3.6c-2,0,-3.7,1.6,-3.7,3.6c0,2,1.7,3.6,3.7,3.6Z" class="g5_298"/>
<path d="M491.3,1142.9c2,0,3.6,-1.6,3.6,-3.6c0,-2,-1.6,-3.6,-3.6,-3.6c-2,0,-3.6,1.6,-3.6,3.6c0,2,1.6,3.6,3.6,3.6Z" class="g5_298"/>
<path d="M361.8,1142.9c2,0,3.6,-1.6,3.6,-3.6c0,-2,-1.6,-3.6,-3.6,-3.6c-2,0,-3.6,1.6,-3.6,3.6c0,2,1.6,3.6,3.6,3.6Z" class="g5_298"/>
<path d="M615.5,1142.9c2,0,3.6,-1.6,3.6,-3.6c0,-2,-1.6,-3.6,-3.6,-3.6c-2,0,-3.6,1.6,-3.6,3.6c0,2,1.6,3.6,3.6,3.6Z" class="g5_298"/>
<path d="M743.5,1142.9c2,0,3.6,-1.6,3.6,-3.6c0,-2,-1.6,-3.6,-3.6,-3.6c-2,0,-3.6,1.6,-3.6,3.6c0,2,1.6,3.6,3.6,3.6Z" class="g5_298"/>
<image clip-path="url(#c6_298)" preserveAspectRatio="none" x="193" y="254" width="128" height="118" xlink:href="img/7.jpg"/>
<path d="M187.9,370.7H324.7V255.3H187.9V370.7Z" class="g6_298"/>
<image clip-path="url(#c7_298)" preserveAspectRatio="none" x="350" y="254" width="128" height="117" xlink:href="img/8.jpg"/>
<path d="M340.7,370.7H477.5V255.3H340.7V370.7Z" class="g6_298"/>
<image clip-path="url(#c8_298)" preserveAspectRatio="none" x="493" y="254" width="128" height="118" xlink:href="img/9.jpg"/>
<path d="M493.4,370.7H630.3V255.3H493.4V370.7Z" class="g6_298"/>
<image clip-path="url(#c9_298)" preserveAspectRatio="none" x="658" y="255" width="116" height="116" xlink:href="img/10.jpg"/>
<path d="M646.2,370.7H783V255.3H646.2V370.7Z" class="g6_298"/>
<path d="M170.7,415.1H807.3V376.2H170.7v38.9Z" class="g2_298"/>
<image clip-path="url(#ca_298)" preserveAspectRatio="none" x="190" y="428" width="129" height="118" xlink:href="img/11.jpg"/>
<path d="M187.9,545.2H324.7V429.8H187.9V545.2Z" class="g6_298"/>
<image clip-path="url(#cb_298)" preserveAspectRatio="none" x="339" y="428" width="140" height="118" xlink:href="img/12.jpg"/>
<path d="M340.7,545.2H477.5V429.8H340.7V545.2Z" class="g6_298"/>
<image clip-path="url(#cc_298)" preserveAspectRatio="none" x="501" y="428" width="128" height="118" xlink:href="img/13.jpg"/>
<path d="M493.4,545.2H630.3V429.8H493.4V545.2Z" class="g6_298"/>
<image clip-path="url(#cd_298)" preserveAspectRatio="none" x="646" y="428" width="138" height="118" xlink:href="img/14.jpg"/>
<path d="M646.2,545.2H783V429.8H646.2V545.2Z" class="g6_298"/>
<path d="M170.7,589.5H807.3v-39H170.7v39Z" class="g2_298"/>
<path d="M582.7,1219.2c0,0,-4.3,0,-4.3,4.3v10.8c0,0,0,4.3,4.3,4.3H613c0,0,4.4,0,4.4,-4.3v-10.8c0,0,0,-4.3,-4.4,-4.3Z" class="g7_298"/>
<path d="M569.5,1210.3v37.6m1.4,.9H845.1m1,-1.3v-37.6m-1.4,-.9H570.5" class="g8_298"/>
<path d="M569.5,1248.3v.5h.6m275.4,0h.6v-.5m0,-38.8v-.5h-.6m-275.4,0h-.6v.5" class="g9_298"/>
<image clip-path="url(#ce_298)" preserveAspectRatio="none" x="187" y="624" width="132" height="117" xlink:href="img/15.jpg"/>
<path d="M187.9,740.4H324.7V625H187.9V740.4Z" class="g6_298"/>
<image clip-path="url(#cf_298)" preserveAspectRatio="none" x="347" y="623" width="111" height="111" xlink:href="img/16.jpg"/>
<path d="M340.7,740.4H477.5V625H340.7V740.4Z" class="g6_298"/>
<image clip-path="url(#cg_298)" preserveAspectRatio="none" x="499" y="623" width="129" height="118" xlink:href="img/17.jpg"/>
<path d="M493.4,740.4H630.3V625H493.4V740.4Z" class="g6_298"/>
<image clip-path="url(#ch_298)" preserveAspectRatio="none" x="658" y="624" width="115" height="114" xlink:href="img/18.jpg"/>
<path d="M646.2,740.4H783V625H646.2V740.4Z" class="g6_298"/>
<path d="M170.7,784.7H807.3v-39H170.7v39Z" class="g2_298"/>
<image clip-path="url(#ci_298)" preserveAspectRatio="none" x="650" y="626" width="132" height="111" xlink:href="img/19.png"/>
<path d="M209.2,191.8c0,0,-13,0,-13,13v21.7c0,0,0,13,13,13h602c0,0,13,0,13,-13V204.8c0,0,0,-13,-13,-13Z" class="g1_298"/>
<image clip-path="url(#cj_298)" preserveAspectRatio="none" x="152" y="162" width="75" height="76" xlink:href="img/20.png"/>
<path d="M204,232.1c0,0,-26.8,11.3,-51.1,-12.7c0,0,15.2,25.3,49.3,23.9c0,0,24.8,.4,20.3,-10.1c0,0,1.2,-4.4,-18.5,-1.1Z" class="g1_298"/>
<path d="M131.7,126.7v22.2l11.7,10.3V137Z" class="ga_298"/>
<path d="M131.7,109.9v39H829.4c0,0,16.9,0,16.9,-16.8v-5.4c0,0,0,-16.8,-16.9,-16.8Z" class="g7_298"/>
<path d="M189.6,121.3l-6.4,-6.5L162,136l6.4,6.5Z" class="gb_298"/>
<path d="M168.4,143c.2,0,.3,0,.4,-.1L190,121.7c.1,-.1,.2,-.3,.2,-.4c0,-.1,-.1,-.3,-.2,-.4l-6.5,-6.4c-.2,-.2,-.5,-.2,-.7,0l-21.2,21.2c-.1,.1,-.2,.2,-.2,.3c0,.2,.1,.3,.2,.4l6.5,6.5c.1,.1,.2,.1,.3,.1m20.5,-21.7l-20.5,20.5L162.7,136l20.5,-20.4Z" class="gc_298"/>
<path d="M189.6,121.3l-6.4,-6.5l2.1,-2.1l6.5,6.5Z" class="gd_298"/>
<path d="M189.6,121.8c.2,0,.3,0,.4,-.1l2.1,-2.1c.1,-.1,.2,-.3,.2,-.4c0,-.2,-.1,-.3,-.2,-.4l-6.4,-6.5c-.2,-.2,-.6,-.2,-.8,0l-2.1,2.2c-.1,0,-.2,.2,-.2,.3c0,.2,.1,.3,.2,.4l6.5,6.5c.1,.1,.2,.1,.3,.1m1.4,-2.6l-1.4,1.4l-5.7,-5.8l1.4,-1.4Z" class="gc_298"/>
<path d="M195.4,115.6l-6.5,-6.5l-3.6,3.6l6.5,6.5Z" class="ge_298"/>
<path d="M191.8,119.7c.1,0,.2,0,.3,-.1l3.7,-3.7c.2,-.2,.2,-.5,0,-.7l-6.5,-6.5c-.2,-.2,-.6,-.2,-.8,0l-3.6,3.6c-.2,.2,-.2,.6,0,.8l6.5,6.5c.1,.1,.2,.1,.4,.1m2.8,-4.1l-2.8,2.8L186,112.7l2.9,-2.9Z" class="gc_298"/>
<path d="M157.3,147.2L162,136l6.4,6.5Z" class="g2_298"/>
<path d="M157.3,147.7c.1,0,.2,0,.2,-.1L168.6,143c.2,-.1,.3,-.2,.4,-.4c0,-.2,-.1,-.3,-.2,-.5l-6.5,-6.4c-.1,-.2,-.3,-.2,-.5,-.2c-.1,.1,-.3,.2,-.3,.3l-4.7,11.1c0,.2,0,.5,.1,.6c.1,.1,.3,.2,.4,.2m10.2,-5.4l-9.2,3.9l3.8,-9.2Z" class="gc_298"/>
<path d="M157.3,147.2l2.3,-5.4l3.1,3.1Z" class="gc_298"/>
<path d="M157.3,147.7c.1,0,.2,0,.2,-.1l5.4,-2.2c.1,-.1,.3,-.2,.3,-.4c0,-.2,0,-.3,-.1,-.5l-3.2,-3.1c-.1,-.1,-.3,-.2,-.4,-.1c-.2,0,-.4,.1,-.4,.3l-2.3,5.3c0,.2,0,.5,.1,.6c.1,.1,.3,.2,.4,.2m4.5,-3l-3.5,1.5l1.4,-3.5Z" class="gc_298"/>
<path d="M187.9,119.5l-3,-2.9l-21.2,21.2l3,3Z" class="gf_298"/>
<path d="M166.7,141.3c.1,0,.2,-.1,.3,-.2l21.3,-21.2c.1,-.1,.1,-.2,.1,-.4c0,-.1,0,-.2,-.1,-.3l-3,-3c-.2,-.2,-.5,-.2,-.8,0l-21.2,21.2c-.1,.1,-.1,.3,-.1,.4c0,.1,0,.3,.1,.4l3,2.9c.1,.1,.2,.2,.4,.2m20.4,-21.8L166.7,140l-2.2,-2.2l20.4,-20.5Z" class="gc_298"/>
<path d="M32.1,45.1H9.2m958.3,0h22.9M32.1,1331.3H9.2m958.3,0h22.9M45.1,32.1V9.2m0,1335.1v22.9M954.5,32.1V9.2m0,1335.1v22.9" class="gg_298"/>
<path d="M32.1,45.1H9.2m958.3,0h22.9M32.1,1331.3H9.2m958.3,0h22.9M45.1,32.1V9.2m0,1335.1v22.9M954.5,32.1V9.2m0,1335.1v22.9" class="gh_298"/>
<path d="M27.5,32.1H0m972.1,0h27.5M27.5,1344.3H0m972.1,0h27.5M32.1,27.5V0m0,1348.9v27.5M967.5,27.5V0m0,1348.9v27.5" class="gg_298"/>
<path d="M27.5,32.1H0m972.1,0h27.5M27.5,1344.3H0m972.1,0h27.5M32.1,27.5V0m0,1348.9v27.5M967.5,27.5V0m0,1348.9v27.5" class="gh_298"/>
</svg>