<?xml version="1.0" encoding="UTF-8" standalone="no"?>
<!DOCTYPE svg PUBLIC "-//W3C//DTD SVG 1.1//EN"
"http://www.w3.org/Graphics/SVG/1.1/DTD/svg11.dtd">
<svg viewBox="0 0 999 1376" version="1.1" xmlns="http://www.w3.org/2000/svg" xmlns:xlink="http://www.w3.org/1999/xlink">
<defs>
<clipPath id="c0_270"><path d="M32.1,1344.3V32.1H967.5V1344.3Z"/></clipPath>
<clipPath id="c1_270"><path d="M176.6,527.1l-6.5,-2.2L153.7,511V453.9h72v73.2Z"/></clipPath>
<clipPath id="c2_270"><path d="M623.4,746.6V505.7H886.8V746.6Z"/></clipPath>
<clipPath id="c3_270"><path d="M629.2,741.9V513.1H885.5V741.9Z"/></clipPath>
<clipPath id="c4_270"><path d="M628.9,741.6V512.8H884.7V741.6Z"/></clipPath>
<clipPath id="c5_270"><path d="M176.6,1086.6l-6.5,-2.2l-16.4,-13.9v-57.1h72v73.2Z"/></clipPath>
<clipPath id="c6_270"><path d="M752,534.7c-.2,-.1,3.6,-8.3,3.6,-8.3l.8,.6c0,0,-4.1,7.7,-4.4,7.7Z"/></clipPath>
<clipPath id="c7_270"><path d="M759.6,526.9c0,0,-6.9,-1.1,-7.6,-5.2c-.7,-3.6,1.5,-3.8,2.1,-3.8c0,0,.1,0,.1,0l8.3,-12.8l-1.5,-3c0,0,-.6,-1.2,.2,-2.1c0,-.1,.1,-.1,.3,-.1c2.1,0,12.9,5.5,12.9,5.5l.1,.2c-.4,.5,-.7,1.1,-1.4,1.6c-.7,.5,-5.1,1.2,-5.1,1.2l-8.4,18.5Z"/></clipPath>
<clipPath id="c8_270"><path d="M759.1,526.6c.3,-.5,.3,-1.8,0,-2.3v-1.4c-1.5,-.5,-2.8,-1.2,-3.6,-2.5c-1.1,.6,-2.1,1.2,-3.1,1.9c1.5,2.1,3.8,3.6,6.7,4.3Zm0,-3.9c2.2,-4.6,4,-9.5,6.2,-14.1c-.9,-.4,-1.8,-1.3,-2.6,-1.4c-2.3,4.4,-4.6,8.7,-7.1,12.8c.8,1.4,2.1,2,3.5,2.7Zm-7.2,12c1,-2.8,2.4,-5.4,3.5,-8.3c-2,-1.5,-3.9,-3.1,-4.4,-6.1v-1.5c-.1,-2.7,1.9,-3.4,4.6,-3.4c0,0,.1,0,.2,0c1.9,-3.3,4.2,-6.3,6.1,-9.7c-.6,-.8,-1.1,-2.3,-.9,-3.6c.5,1.2,1.7,1.9,2.4,2.9c-.1,.6,-.3,1.1,-.4,1.7c.6,.7,1.4,1.2,2.4,1.4c.5,-.4,.6,-1.2,1.2,-1.5c.9,.4,1.8,.7,3.1,.7c.1,.2,.5,.2,.8,.2c.4,0,.7,0,.8,-.2c.1,.1,.2,.1,.3,.1c.3,0,.5,-.1,.7,-.1c.1,-.1,.3,-.2,.5,-.2c.1,0,.2,.1,.3,.1c-1.3,.7,-2.2,1.8,-4.2,1.8c-.1,0,-.2,0,-.3,0c-.9,3.7,-1.9,7.3,-2.7,11.2c.6,1,1.5,1.7,1.3,3.1c-.5,2.7,-3.9,4.4,-7.2,4.4c-1.3,0,-2.5,-.2,-3.6,-.7c-1,2.1,-2.1,4.1,-3.3,6c0,-.4,.3,-.4,.3,-.8c.9,-1.8,1.9,-3.6,2.6,-5.6c-1,1.7,-1.8,3.7,-2.8,5.5c-.2,.4,-.4,.8,-.6,1.3c-.3,.4,-.3,1.1,-.7,1.3Z"/></clipPath>
<clipPath id="c9_270"><path d="M769.6,507c-4.8,0,-13.1,-7.3,-5.6,-8.8h1.3c.2,0,.4,0,.7,0c.1,0,.2,0,.2,0c.3,0,.6,0,.9,.1c3.1,.6,8.2,3.8,7.5,7c-.2,1.2,-1.5,1.6,-3.1,1.7h-1.8c0,0,-.1,0,-.1,0Z"/></clipPath>
<clipPath id="ca_270"><path d="M636,969.2V759.6H877.5V969.2Z"/></clipPath>
<clipPath id="cb_270"><path d="M642.2,964V765.5H872.1V964Z"/></clipPath>
<clipPath id="cc_270"><path d="M641.9,963.7V765.2H871.8V963.7Z"/></clipPath>
<clipPath id="cd_270"><path d="M761.3,777.7c0,0,-.1,0,-.1,0c-.2,-.1,3.6,-8.2,3.6,-8.2l.8,.5c0,0,-4.1,7.7,-4.3,7.7Z"/></clipPath>
<clipPath id="ce_270"><path d="M768.8,770c0,0,-6.9,-1.1,-7.6,-5.2c-.7,-3.6,1.5,-3.9,2.1,-3.9c0,0,.1,0,.1,0l8.3,-12.7l-1.5,-3.1c0,0,-.6,-1.1,.2,-2.1c0,0,.1,-.1,.3,-.1c2.1,0,12.9,5.6,12.9,5.6l.1,.1c-.4,.6,-.7,1.2,-1.4,1.7c-.7,.5,-5.1,1.1,-5.1,1.1L768.8,770Z"/></clipPath>
<clipPath id="cf_270"><path d="M768.4,769.6c.2,-.4,.2,-1.8,0,-2.2V766c-1.6,-.5,-2.9,-1.2,-3.7,-2.5c-1.1,.6,-2.1,1.2,-3.1,1.9c1.5,2.1,3.8,3.5,6.8,4.2Zm0,-3.9c2.1,-4.5,3.9,-9.5,6.1,-14c-.9,-.4,-1.8,-1.4,-2.6,-1.4c-2.3,4.3,-4.6,8.6,-7.1,12.8c.8,1.3,2.1,2,3.6,2.6Zm-7.3,12.1c1,-2.9,2.4,-5.5,3.5,-8.3c-2,-1.5,-3.9,-3.1,-4.4,-6.1v-1.6c-.1,-2.7,1.9,-3.3,4.6,-3.3c0,0,.1,0,.2,0c1.9,-3.4,4.2,-6.4,6.1,-9.7c-.6,-.9,-1.1,-2.4,-.9,-3.7c.5,1.3,1.7,1.9,2.4,2.9c-.1,.6,-.3,1.2,-.4,1.8c.6,.6,1.4,1.2,2.4,1.4c.5,-.5,.5,-1.3,1.2,-1.5c.9,.3,1.8,.7,3.1,.7c.1,.1,.5,.2,.8,.2c.4,0,.7,-.1,.8,-.2c.2,0,.3,.1,.4,.1c.2,0,.4,-.1,.6,-.2c.2,0,.3,-.1,.5,-.1c.1,0,.2,0,.3,.1c-1.3,.6,-2.2,1.8,-4.2,1.8c-.1,0,-.2,0,-.3,-.1c-.9,3.8,-1.9,7.4,-2.7,11.2c.6,1.1,1.5,1.7,1.3,3.2c-.5,2.7,-3.9,4.4,-7.2,4.4c-1.3,0,-2.5,-.3,-3.6,-.8c-1,2.1,-2.1,4.1,-3.3,6c0,-.3,.3,-.3,.3,-.7c.9,-1.8,1.9,-3.6,2.6,-5.7c-1,1.7,-1.8,3.7,-2.8,5.6c-.2,.4,-.4,.8,-.6,1.2c-.3,.4,-.3,1.2,-.7,1.4Z"/></clipPath>
<clipPath id="cg_270"><path d="M778.8,750c-4.8,0,-13.1,-7.3,-5.5,-8.8h1.2c.2,.1,.3,.1,.5,.1q.1,0,.2,0q.1,0,.2,0c.3,0,.5,0,.9,.1c3,.6,8.2,3.8,7.5,7c-.2,1.2,-1.5,1.6,-3.1,1.6h-1.8c0,0,-.1,0,-.1,0Z"/></clipPath>
<clipPath id="ch_270"><path d="M125.5,386.7V205.8H858.6V386.7Z"/></clipPath>
<clipPath id="ci_270"><path d="M764.8,419.7V407.3h14.5v12.4Z"/></clipPath>
<style type="text/css"><![CDATA[
.g0_270{
fill: #FEFCF4;
}
.g1_270{
fill: #FFF;
}
.g2_270{
fill: none;
stroke: #6381B7;
stroke-width: 0.763;
}
.g3_270{
fill: #6381B7;
}
.g4_270{
fill: none;
stroke: #6381B7;
stroke-width: 0.381;
stroke-dasharray: 2,1;
}
.g5_270{
fill: none;
stroke: #6381B7;
stroke-width: 0.381;
}
.g6_270{
fill: #FCE8B0;
}
.g7_270{
fill: #F7C2D9;
}
.g8_270{
fill: #FEF6F5;
}
.g9_270{
fill: #EC008C;
}
.ga_270{
fill: none;
stroke: #818385;
stroke-width: 0.305;
stroke-dasharray: 4,4;
}
.gb_270{
fill: none;
stroke: #818385;
stroke-width: 0.305;
}
.gc_270{
fill: none;
stroke: #949698;
stroke-width: 0.305;
stroke-dasharray: 4,4;
}
.gd_270{
fill: none;
stroke: #949698;
stroke-width: 0.305;
stroke-dasharray: 3,3;
}
.ge_270{
fill: none;
stroke: #949698;
stroke-width: 0.305;
}
.gf_270{
fill: #6D6F71;
}
.gg_270{
fill: #2E6E51;
}
.gh_270{
fill: none;
stroke: #FFF;
stroke-width: 0.152;
stroke-miterlimit: 1;
}
.gi_270{
fill: #BCBEC0;
}
.gj_270{
fill: #EE314A;
}
.gk_270{
fill: #CEEDFB;
}
.gl_270{
fill: #27639D;
}
.gm_270{
fill: #231F20;
}
.gn_270{
fill: none;
stroke: #204A78;
stroke-width: 1.527;
}
.go_270{
fill: #25408F;
}
.gp_270{
fill: #A8AAAD;
}
.gq_270{
fill: none;
stroke: #949698;
stroke-width: 0.549;
}
.gr_270{
fill: none;
stroke: #BCBEC0;
stroke-width: 2.566;
}
.gs_270{
fill: #363637;
}
.gt_270{
fill: #5CC4BE;
}
.gu_270{
fill: #EAD646;
}
.gv_270{
fill: none;
stroke: #FFF;
stroke-width: 1.909;
stroke-miterlimit: 10;
}
.gw_270{
fill: none;
stroke: #000;
stroke-width: 0.381;
stroke-miterlimit: 10;
}
]]></style>
</defs>
<path d="M32.1,1344.3H954.5V32.1H32.1V1344.3Z" class="g0_270"/>
<path clip-path="url(#c0_270)" d="M954.5,1344.3H1877V32.1H954.5V1344.3Z" class="g0_270"/>
<path d="M150.4,425.3c0,0,-18.3,0,-18.3,18.3V975.2c0,0,0,18.4,18.3,18.4H827.5c0,0,18.4,0,18.4,-18.4V425.3Z" class="g1_270"/>
<path d="M150.4,425.3c0,0,-18.3,0,-18.3,18.3V975.2c0,0,0,18.4,18.3,18.4H827.5c0,0,18.4,0,18.4,-18.4V425.3H150.4Z" class="g2_270"/>
<path d="M145.1,1005.6c0,0,-13,0,-13,13v168.1c0,0,0,13,13,13H832.9c0,0,13,0,13,-13V1018.6c0,0,0,-13,-13,-13Z" class="g1_270"/>
<path d="M145.1,1005.6c0,0,-13,0,-13,13v168.1c0,0,0,13,13,13H832.9c0,0,13,0,13,-13V1018.6c0,0,0,-13,-13,-13H145.1Z" class="g2_270"/>
<path d="M468.8,1214.8c0,0,-4.3,0,-4.3,4.4V1230c0,0,0,4.3,4.3,4.3h30.3c0,0,4.3,0,4.3,-4.3v-10.8c0,0,0,-4.4,-4.3,-4.4Z" class="g3_270"/>
<path d="M455.6,1206v37.5m1.3,1H845.1m1,-1.3v-37.6m-1.4,-1H456.6" class="g4_270"/>
<path d="M455.6,1243.9v.6h.6m389.3,0h.6v-.6m0,-38.7v-.6h-.6m-389.3,0h-.6v.6" class="g5_270"/>
<path d="M209.2,456.1c0,0,-13,0,-13,13v47.6c0,0,0,13,13,13h602c0,0,13,0,13,-13V469.1c0,0,0,-13,-13,-13Z" class="g6_270"/>
<image clip-path="url(#c1_270)" preserveAspectRatio="none" x="152" y="452" width="75" height="77" xlink:href="img/1.png"/>
<path d="M204,522.3c0,0,-26.8,11.3,-51.1,-12.7c0,0,15.2,25.3,49.3,24c0,0,24.8,.3,20.3,-10.2c0,0,1.2,-4.4,-18.5,-1.1Z" class="g6_270"/>
<image clip-path="url(#c2_270)" preserveAspectRatio="none" x="623" y="506" width="263" height="241" xlink:href="img/2.png"/>
<path d="M628.2,534.5l20.4,205.9L880.9,717.5L862.5,510.6Z" class="g7_270"/>
<image clip-path="url(#c3_270)" preserveAspectRatio="none" x="629" y="513" width="256" height="229" xlink:href="img/3.png"/>
<image clip-path="url(#c4_270)" preserveAspectRatio="none" x="629" y="513" width="256" height="229" xlink:href="img/4.png"/>
<path d="M633.7,528.7l9.6,207l210,-10.1l25.4,-31.3L870.4,517.6Z" class="g8_270"/>
<path d="M854.4,726.1l25.4,-32.3l-21.2,-2Z" class="g9_270"/>
<path d="M323.6,591.9c3.8,-1.5,6.7,-4.6,7.8,-8.3m-.6,-8.2c-1.6,-3.6,-4.8,-6.3,-8.8,-7.3m-8.3,.5c-3.7,1.5,-6.6,4.6,-7.7,8.3m.5,8.2c1.6,3.6,4.9,6.3,8.8,7.3" class="ga_270"/>
<path d="M331.7,581.9c.1,-.5,.1,-1.1,.1,-1.7c0,-.5,0,-1.1,-.1,-1.6M320.3,567.8c-.5,0,-1.1,-.1,-1.6,-.1c-.6,0,-1.2,.1,-1.7,.1m-11.4,10.8c-.1,.5,-.1,1.1,-.1,1.6c0,.6,0,1.2,.1,1.7M317,592.7c.5,0,1.1,.1,1.7,.1c.5,0,1.1,-.1,1.6,-.1" class="gb_270"/>
<path d="M322.9,566.6c16.9,-7.1,80.8,-32.8,122.2,-32.2" class="gc_270"/>
<path d="M451.7,536.7c1.7,2,.4,4.8,-17.6,6.4" class="gd_270"/>
<path d="M433.3,536.8c9.9,-3.4,37.7,-10.5,97.8,-9.4" class="gc_270"/>
<path d="M538.7,527.5c13.9,.4,56.6,2.1,88,9.9" class="gd_270"/>
<path d="M318.6,568.5c0,0,.5,-.3,1.4,-.7M446.6,534.5c.5,0,1,0,1.5,0c0,0,.6,.2,1.3,.6m-16.7,8.1c-.5,.1,-.9,.1,-1.4,.1c0,0,-.9,-.2,-1.9,-.6m-1.8,-2.8c.2,-.5,.7,-.9,1.4,-1.4c0,0,.4,-.2,1.4,-.6M532.7,527.4c.5,0,1,0,1.5,0c0,0,.6,0,1.5,.1m92.4,10.3c.5,.1,1,.2,1.5,.3" class="ge_270"/>
<path d="M625.6,542.1l3.1,-7.4l7.5,7.6Z" class="gf_270"/>
<path d="M209.2,1041.6c0,0,-13,0,-13,13v21.6c0,0,0,13,13,13h602c0,0,13,0,13,-13v-21.6c0,0,0,-13,-13,-13Z" class="g6_270"/>
<image clip-path="url(#c5_270)" preserveAspectRatio="none" x="152" y="1012" width="75" height="76" xlink:href="img/5.png"/>
<path d="M204,1081.8c0,0,-26.8,11.3,-51.1,-12.7c0,0,15.2,25.3,49.3,23.9c0,0,24.8,.4,20.3,-10.1c0,0,1.2,-4.4,-18.5,-1.1Z" class="g6_270"/>
<image clip-path="url(#c6_270)" x="751" y="526" width="6" height="9" xlink:href="shade/1.png"/>
<image clip-path="url(#c7_270)" x="751" y="499" width="24" height="28" xlink:href="shade/2.png"/>
<image clip-path="url(#c8_270)" x="750" y="502" width="24" height="33" xlink:href="shade/3.png"/>
<image clip-path="url(#c9_270)" x="756" y="498" width="20" height="10" xlink:href="shade/4.png"/>
<image clip-path="url(#ca_270)" preserveAspectRatio="none" x="636" y="760" width="241" height="209" xlink:href="img/6.png"/>
<path d="M640.8,775.4l11.8,187.3l219,-9.7L860,764.3Z" class="g7_270"/>
<image clip-path="url(#cb_270)" preserveAspectRatio="none" x="642" y="766" width="230" height="199" xlink:href="img/7.png"/>
<image clip-path="url(#cc_270)" preserveAspectRatio="none" x="642" y="765" width="230" height="199" xlink:href="img/8.png"/>
<path d="M647.4,770.7l-.3,186.7l181.8,-.2l36,-31.9l.3,-154.8Z" class="g8_270"/>
<path d="M829.4,957.4l35.9,-32.1l-30.8,-.4Z" class="g9_270"/>
<path d="M431.1,617.7c7.3,-1.1,13.1,-4.5,15,-8.9m-.8,-7.9c-2.6,-4,-8.6,-7,-15.8,-7.7m-8.3,.2c-7.3,1.1,-13.1,4.6,-15,9m.8,7.8c2.7,4,8.6,7,15.9,7.7" class="ga_270"/>
<path d="M446.6,607.2c.2,-.5,.2,-1.1,.2,-1.6c0,-.6,0,-1.1,-.2,-1.7M427.8,593.1c-.5,0,-1.1,0,-1.6,0c-.6,0,-1.1,0,-1.7,0m-18.8,10.8c-.1,.6,-.2,1.1,-.2,1.7c0,.5,.1,1.1,.2,1.6m18.8,10.9c.6,0,1.1,0,1.7,0c.5,0,1.1,0,1.6,0" class="gb_270"/>
<path d="M429.4,625.2c4.2,18.5,22.4,89.3,57.8,107.5m7.3,0c4.6,-1.9,9.3,-6.7,-4.2,-18.4m-6.9,-1.4c-1.3,.5,-2.5,1.4,-3.3,3m.5,7.5c3.4,9.7,16.8,33.8,68.2,59.8m6.9,3.4c12.3,5.9,49.9,22.5,86.3,24.5" class="gc_270"/>
<path d="M428.5,620.8c0,0,.1,.5,.3,1.5m59.7,111c.5,.2,.9,.4,1.4,.6c0,0,.6,0,1.6,-.2m-2.4,-20.4c-.4,-.4,-.9,-.7,-1.3,-1c0,0,-.6,-.1,-1.5,-.1m-6.7,5.2c-.1,.4,-.2,.9,-.2,1.5c0,0,0,.5,.3,1.5m70.5,63.5c.5,.2,.9,.5,1.4,.7c0,0,.5,.2,1.4,.7m90.5,25.9c.5,0,1,0,1.5,0" class="ge_270"/>
<path d="M641.2,807.8v8.4l10.2,-.9Z" class="gf_270"/>
<image clip-path="url(#cd_270)" x="760" y="769" width="6" height="9" xlink:href="shade/5.png"/>
<image clip-path="url(#ce_270)" x="760" y="742" width="24" height="28" xlink:href="shade/6.png"/>
<image clip-path="url(#cf_270)" x="760" y="745" width="23" height="33" xlink:href="shade/7.png"/>
<image clip-path="url(#cg_270)" x="765" y="741" width="20" height="10" xlink:href="shade/8.png"/>
<path d="M32.1,179.3H967.5V32.1H32.1V179.3Z" class="gg_270"/>
<path d="M260.2,135.2L259,134H247.2l1.2,1.2h8.2v.9c-2.6,.8,-5,2.1,-7.4,3.7l1.6,2.3c1.7,.1,3,.7,4,1.6c.3,.3,.6,.6,1,1c.3,.4,.5,.8,.7,1.2c.2,.3,.3,.5,.4,.7c.1,.1,.1,.2,.1,.4l.7,.8V135.2h2.5Zm-3.6,9.4c-1.1,-1.8,-2.7,-3.2,-4.9,-4.1c.9,-.6,1.7,-1.1,2.5,-1.5c.8,-.4,1.6,-.7,2.4,-1v6.6Zm14.1,-9.4L269.5,134H258.3c.6,1,1.8,1.7,3.4,2.2c.7,.2,1.2,.4,1.6,.6c.4,.2,.7,.4,.8,.6c-.5,.4,-1.1,.8,-1.7,1.4c-.6,.5,-1.2,1.1,-1.9,1.7l1.6,2.1c1.5,.1,2.7,.5,3.6,1.2c.5,.5,1.1,1.2,1.7,2.3c.6,1,1,1.6,1.3,1.8V135.2h2Zm-3.1,9.5h-.1c-1,-1.7,-2.5,-2.9,-4.5,-3.6c.5,-.5,1,-1.1,1.5,-1.6c.5,-.5,1,-.9,1.5,-1.4c-.6,-.7,-1.2,-1.3,-1.7,-1.8c-.5,-.5,-1,-.9,-1.3,-1.1h4.6v9.5Zm-4.7,2c.3,.2,.6,.3,.9,.3c.3,0,.6,-.1,.9,-.3c.2,-.3,.3,-.6,.3,-.9c0,-.3,-.1,-.6,-.3,-.9c-.3,-.2,-.6,-.3,-.9,-.3c-.3,0,-.6,.1,-.9,.3c-.2,.3,-.3,.6,-.3,.9c0,.3,.1,.6,.3,.9Zm23.4,-11.5L285.1,134H269.4l1.1,1.2h4.6c0,.3,0,.6,-.1,.9c-.1,.3,-.2,.5,-.3,.8c-.4,.7,-.9,1,-1.4,1c-.4,-.1,-.8,-.4,-1,-.7l-.5,.8c.6,1,1.4,1.6,2.2,1.6c.5,0,1.1,-.4,1.6,-1.2c.2,-.4,.4,-.7,.5,-1c.2,-.4,.3,-.7,.4,-1c0,1.1,.7,2,2.1,2.7c-.7,.5,-1.5,.9,-2.2,1.4c-.8,.5,-1.5,1,-2.2,1.5l1.2,1.7c.7,0,1.3,.1,1.9,.3c.5,.2,1,.5,1.5,.9c.2,.2,.4,.5,.7,.9c.2,.3,.4,.8,.7,1.3c.4,.7,.7,1.1,.9,1.2v-8.1h.5c.3,0,.6,.1,.9,.2c.2,.1,.5,.3,.7,.5c.3,.1,.5,.3,.6,.5c.2,.2,.3,.4,.3,.6c0,.3,0,.6,-.1,.7h-.1c-.1,-.1,-.2,-.1,-.2,-.2c-.1,0,-.2,-.1,-.3,-.1c-.1,0,-.3,0,-.4,0c-.2,0,-.3,.1,-.4,.2c-.3,.2,-.5,.5,-.4,1c0,.3,.1,.5,.3,.7c.2,.3,.4,.4,.7,.4c.5,0,.9,-.2,1.2,-.5c.3,-.4,.5,-.8,.5,-1.4c.1,-2.2,-1.1,-3.6,-3.5,-4.1c.4,-.6,.6,-1.2,.6,-2c0,-.5,-.1,-1.1,-.5,-1.5h4.8Zm-6.9,2.5c-.6,0,-1.2,-.3,-1.6,-.8c-.5,-.5,-.7,-1.1,-.7,-1.7h3.2c0,0,.1,0,.1,.1q.1,0,.2,0c.3,.4,.4,.8,.4,1.2c0,.8,-.5,1.2,-1.6,1.2Zm.6,7.2c-.4,-.5,-.9,-1,-1.4,-1.4c-.6,-.5,-1.2,-.9,-1.9,-1.3c.6,-.5,1.2,-.9,1.7,-1.3c.6,-.3,1.1,-.5,1.6,-.7v4.7ZM292.5,134h-8l1.2,1.2h4c-1.7,2,-2.5,4,-2.5,6.1c0,1.5,.3,2.8,.9,3.9c.7,1.4,1.8,2.1,3.2,2.1c.3,0,.6,0,.8,-.1c.3,-.1,.5,-.2,.7,-.4c.2,-.2,.4,-.4,.5,-.7c.1,-.2,.2,-.5,.2,-.8c0,-.4,-.2,-.9,-.5,-1.2c-.2,-.3,-.6,-.5,-1,-.5c-.4,0,-.7,.2,-1,.4c-.3,.3,-.5,.6,-.5,1c0,.2,.1,.4,.2,.7c.1,.2,.3,.4,.6,.6c-.7,.2,-1.5,-.2,-2.2,-1.3c-.5,-.7,-.7,-1.5,-.7,-2.3c0,-1,.1,-1.9,.3,-2.7c.2,-.7,.5,-1.4,.9,-2.1c.5,-.7,1.1,-1.3,1.7,-1.7c.7,-.5,1.4,-.8,2.3,-1L292.5,134Zm12.4,1.2L303.7,134H291.9l1.2,1.2h1.2v7.1L296,144c.5,-1.1,1.2,-2.1,2.1,-2.9c.8,-.9,1.8,-1.5,2.9,-1.9c-.3,1,-.4,2.1,-.4,3.1c0,.6,0,1.3,.2,2.2c.1,.8,.3,1.8,.5,3l.8,.4c-.3,-1.6,-.4,-2.8,-.4,-3.7c0,-.9,.1,-1.8,.4,-2.8c.3,-1,.7,-2,1.2,-3l-1.9,-1.5c-.4,.1,-.9,.3,-1.4,.6c-.4,.2,-.9,.5,-1.5,.8c-.5,.4,-1,.7,-1.5,1.2c-.5,.4,-.9,.8,-1.3,1.3v-5.6h9.2Zm11.1,0L314.8,134H303l1.2,1.2h8.2v.9c-2.5,.8,-5,2.1,-7.4,3.7l1.6,2.3c1.7,.1,3,.7,4.1,1.6c.3,.3,.6,.6,.9,1c.3,.4,.6,.8,.7,1c.2,.3,.3,.7,.6,1.3l.6,.8V135.2H316Zm-3.6,9.4c-1.1,-1.8,-2.7,-3.2,-4.9,-4.1c.9,-.6,1.7,-1.1,2.5,-1.5c.8,-.4,1.6,-.7,2.4,-1v6.6Zm-4.7,1.7c.2,.3,.5,.4,.8,.4c.4,0,.7,-.1,.9,-.4c.3,-.2,.4,-.5,.4,-.8c0,-.4,-.1,-.7,-.4,-.9c-.2,-.3,-.5,-.4,-.9,-.4c-.3,0,-.6,.1,-.8,.4c-.3,.2,-.4,.5,-.4,.9c0,.3,.1,.6,.4,.8Zm27.4,-11.1L333.9,134H322.1l1.2,1.2h1.3v7.1l1.6,1.7c.5,-1.1,1.2,-2.1,2.1,-2.9c.9,-.9,1.9,-1.5,2.9,-1.9c-.2,1,-.4,2.1,-.4,3.1c0,.6,.1,1.3,.2,2.2c.1,.8,.3,1.8,.5,3l.9,.4c-.3,-1.6,-.5,-2.8,-.5,-3.7c0,-.9,.1,-1.8,.4,-2.8c.3,-1,.7,-2,1.3,-3l-2,-1.5c-.4,.1,-.8,.3,-1.3,.6c-.5,.2,-1,.5,-1.5,.8c-.5,.4,-1,.7,-1.5,1.2c-.5,.4,-1,.8,-1.4,1.3v-5.6h9.2Zm.1,16.5c-.1,-.2,-.2,-.3,-.3,-.5c-.1,-.2,-.3,-.4,-.6,-.7c-.2,-.3,-.6,-.6,-.9,-1c-.3,-.3,-.6,-.6,-1,-.9c.1,-.3,.1,-.7,.1,-1.2c-.1,-.4,-.2,-.8,-.3,-1.2l-1,-.6c.1,.5,.1,1,.2,1.4c0,.4,-.1,.8,-.2,1c-.7,-.5,-1.3,-.7,-1.7,-.7c-.3,0,-.6,.1,-.8,.2c-.3,.1,-.5,.2,-.7,.4c-.2,.1,-.4,.3,-.5,.6c-.1,.2,-.2,.5,-.2,.8c0,.5,.2,1,.7,1.3c.5,.3,1,.5,1.6,.5c1,-.1,1.8,-.5,2.5,-1.4c.2,.1,.5,.3,.7,.5c.3,.2,.6,.5,.9,.7c.2,.3,.5,.6,.8,.9c.2,.3,.5,.6,.7,.8v-.9Zm-4.8,-3.1c.1,.1,.3,.2,.4,.4c-.1,.2,-.3,.5,-.6,.7c-.4,.1,-.8,.2,-1.1,.2c-.4,-.1,-.6,-.3,-.6,-.7c0,-.5,.4,-.7,1.2,-.7c.3,0,.5,.1,.7,.1ZM345.1,134h-1c.1,-1.1,-.3,-2,-1,-2.5c-.8,-.6,-1.9,-.9,-3.4,-.9c-.9,.1,-1.6,.1,-2.1,.2c-.5,0,-.9,0,-1,0c-.5,0,-.9,-.1,-1.2,-.3c-.4,-.3,-.6,-.6,-.6,-1c0,-.4,.1,-.8,.5,-1q-.1,0,-.2,0q-.1,0,-.2,0c-.1,-.1,-.3,.1,-.5,.5c-.2,.3,-.3,.6,-.3,.8c0,.8,.4,1.5,1.3,2c.8,.4,1.6,.7,2.5,.7c.2,0,.4,-.1,.7,-.1c.3,0,.6,0,1.1,0c.3,-.1,.7,-.1,1,-.1c.3,0,.5,0,.7,0c.2,0,.4,0,.6,0c.2,0,.4,.1,.5,.1c.5,.2,.8,.4,.8,.7c0,.3,-.3,.5,-.7,.7c-.2,.1,-.3,.1,-.5,.1c-.2,.1,-.4,.1,-.5,.1h-8.2l1.2,1.2h3.9c.5,.4,.8,.7,.8,1c-.8,0,-1.4,.3,-1.9,.8c-.6,.5,-.9,1.1,-.9,1.8c0,.4,.2,.7,.5,.9c.3,.2,.6,.3,.9,.3c.6,0,1.1,-.2,1.6,-.7c.5,-.5,.7,-1,.7,-1.6c.2,0,.3,0,.4,-.1c0,0,.2,0,.3,0c.2,0,.5,.1,.7,.2c.2,.1,.3,.2,.5,.4c.1,.2,.2,.4,.3,.7c.1,.2,.1,.5,.1,.7c.1,.8,-.4,1.5,-1.4,2c-.7,.3,-1.5,.5,-2.4,.4c-1.3,-.1,-2.4,-.4,-3.4,-1l1.4,3c.9,.2,1.8,.5,2.6,.9c.9,.3,1.8,.7,2.6,1.2c.8,.5,1.6,1,2.3,1.5c.7,.6,1.3,1.2,1.9,1.9l-.3,-1.3c-1.1,-1.1,-2.1,-2,-3,-2.8c-.9,-.8,-1.8,-1.4,-2.6,-1.9c1.2,-.3,2.1,-.7,2.7,-1.2c.8,-.6,1.2,-1.5,1.2,-2.4c0,-1,-.4,-1.8,-1,-2.5c-.4,-.5,-1.2,-.9,-2.4,-1.3c-.2,-.2,-.3,-.3,-.4,-.5c-.1,-.1,-.2,-.2,-.3,-.4h6.3L345.1,134Zm19.3,0H352.3l1.2,1.2h4.3c.5,.4,.8,.7,.8,1c-.7,0,-1.4,.3,-1.9,.8c-.6,.5,-.9,1.1,-.9,1.8c0,.4,.1,.7,.4,.9c.3,.2,.7,.3,1,.3c.6,0,1.1,-.2,1.6,-.7c.5,-.5,.7,-1,.7,-1.6c.2,0,.3,-.1,.4,-.1c.1,0,.3,0,.4,0c.2,0,.3,.1,.5,.2c.2,.1,.4,.2,.6,.4c.1,.2,.2,.4,.3,.7c.1,.2,.1,.5,.1,.7c.1,.8,-.4,1.5,-1.4,2c-.7,.3,-1.5,.5,-2.4,.4c-1.3,-.1,-2.4,-.4,-3.4,-1l1.4,3c.9,.2,1.8,.5,2.6,.9c.9,.3,1.8,.7,2.6,1.2c.8,.5,1.6,1,2.3,1.5c.7,.6,1.3,1.2,1.9,1.9l-.3,-1.3c-1.1,-1.1,-2.1,-2,-3,-2.8c-.9,-.8,-1.8,-1.4,-2.6,-1.9c1.2,-.3,2.1,-.7,2.7,-1.2c.8,-.6,1.1,-1.4,1.1,-2.4c0,-1,-.3,-1.8,-.9,-2.5c-.4,-.5,-1.2,-.9,-2.5,-1.3c-.1,-.2,-.2,-.3,-.3,-.5c-.1,-.1,-.2,-.2,-.3,-.4h6.3L364.4,134Zm5.2,1.2L368.4,134h-1c-.4,-.4,-.6,-1,-.8,-1.9l-.4,-.3c0,.2,0,.5,0,.9c0,.3,0,.7,.1,1.2c0,.5,.1,.9,.1,1.3c0,.3,0,.6,0,.9c-.3,-.8,-.6,-1.3,-1,-1.6c-.4,-.3,-.9,-.5,-1.7,-.5h-1.3l1.2,1.2c.3,0,.6,.1,1,.2c.3,.1,.6,.3,.8,.5c.3,.2,.5,.4,.6,.7c.1,.3,.2,.7,.2,1v8.9l1.2,1.2V135.2h2.2ZM382.1,134H367.8l1.3,1.2h14.3L382.1,134Zm-.5,5.6c-.3,-.6,-.6,-1.2,-1,-1.7c-.4,-.5,-.9,-.9,-1.5,-1.1c-.5,-.3,-1.2,-.5,-1.8,-.5c-.8,0,-1.4,.3,-2,.7c-.6,.5,-.9,1.1,-.9,1.9c0,.6,.2,1.2,.6,1.6c.3,.5,.8,.7,1.5,.7c1.2,0,1.9,-.6,1.9,-1.7c0,-.5,-.2,-1,-.5,-1.4c.4,-.1,.6,-.2,.8,-.2c.6,0,1.2,.3,1.6,.9c.4,.6,.6,1.1,.6,1.8c0,.8,-.4,1.6,-1.1,2.3c-.8,.6,-1.6,1,-2.4,1c-1.8,0,-3.3,-.9,-4.5,-2.8c-.3,-.3,-.6,-1,-1.1,-1.8c-.4,-.9,-.8,-1.9,-1.3,-3.1l-.7,-.2c1.8,6.5,4.3,9.8,7.5,9.8c1.2,0,2.2,-.5,3.2,-1.3c.4,-.4,.7,-.8,1,-1.4c.2,-.5,.4,-1,.4,-1.6c0,-.7,-.1,-1.3,-.3,-1.9Zm21.6,-7.7c-2.4,-2.4,-4.8,-3.6,-7.3,-3.6c-1,0,-2,.4,-3.1,1.2c-1.1,.9,-1.6,1.8,-1.6,2.7c0,.4,.2,.7,.5,1l.8,.8h-3.2l1.2,1.2h1.8v11.3l1.2,1.2V135.2h2.1L394.4,134h-1.3l-.5,-1.1c.1,-.9,.6,-1.6,1.7,-2.3c.9,-.7,1.8,-1,2.7,-1c.6,0,1.2,.1,1.8,.2c.6,.2,1.2,.4,1.7,.7c.6,.4,1.1,.7,1.6,1c.5,.4,.9,.7,1.3,1l-.2,-.6Zm3.9,3.3L405.9,134H394.1l1.2,1.2h1.3v7.1l1.6,1.7c.5,-1.1,1.2,-2.1,2.1,-2.9c.9,-.9,1.8,-1.5,2.9,-1.9c-.3,1,-.4,2.1,-.4,3.1c0,.6,0,1.3,.2,2.2c.1,.8,.3,1.8,.5,3l.8,.4c-.3,-1.6,-.4,-2.8,-.4,-3.7c0,-.9,.1,-1.8,.4,-2.8c.3,-1,.7,-2,1.2,-3l-1.9,-1.5c-.4,.1,-.9,.3,-1.3,.6c-.5,.2,-1,.5,-1.5,.8c-.6,.4,-1.1,.7,-1.6,1.2c-.4,.4,-.9,.8,-1.3,1.3v-5.6h9.2ZM413,134h-7.9l1.2,1.2h4c-1.7,2,-2.6,4,-2.6,6.1c0,1.5,.3,2.8,1,3.9c.7,1.4,1.8,2.1,3.2,2.1c.3,0,.5,0,.8,-.1c.3,-.1,.5,-.2,.7,-.4c.2,-.2,.4,-.4,.5,-.7c.1,-.2,.1,-.5,.1,-.8c0,-.4,-.1,-.9,-.4,-1.2c-.3,-.3,-.6,-.5,-1,-.5c-.4,0,-.7,.2,-1,.4c-.3,.3,-.5,.6,-.5,1c0,.2,.1,.4,.2,.7c.1,.2,.3,.4,.6,.6c-.7,.2,-1.5,-.2,-2.3,-1.3c-.4,-.7,-.6,-1.5,-.7,-2.3c0,-1,.2,-1.9,.4,-2.7c.2,-.7,.5,-1.4,.9,-2.1c.5,-.7,1,-1.3,1.7,-1.7c.6,-.5,1.4,-.8,2.3,-1L413,134Zm11.8,1.2L423.5,134H412.4c.6,1,1.7,1.7,3.3,2.2c.7,.2,1.3,.4,1.7,.6c.4,.2,.7,.4,.8,.6c-.5,.4,-1.1,.8,-1.7,1.4c-.6,.5,-1.3,1.1,-1.9,1.7l1.6,2.1c1.5,.1,2.6,.5,3.5,1.2c.6,.5,1.2,1.2,1.8,2.3c.5,1,1,1.6,1.3,1.8V135.2h2Zm-3.2,9.5c-1,-1.7,-2.5,-2.9,-4.5,-3.6c.5,-.5,1,-1.1,1.5,-1.6c.5,-.5,.9,-.9,1.4,-1.4c-.6,-.7,-1.1,-1.3,-1.6,-1.8c-.6,-.5,-1,-.9,-1.4,-1.1h4.6v9.5Zm-4.6,2c.2,.2,.5,.3,.8,.3c.4,0,.7,-.1,.9,-.3c.3,-.3,.4,-.6,.4,-.9c0,-.3,-.1,-.6,-.4,-.9c-.2,-.2,-.5,-.3,-.9,-.3c-.3,0,-.6,.1,-.8,.3c-.3,.3,-.4,.6,-.4,.9c0,.3,.1,.6,.4,.9Zm27.7,-14.8c-2.3,-2.4,-4.7,-3.6,-7.3,-3.6c-.9,0,-2,.4,-3,1.2c-1.1,.9,-1.6,1.8,-1.6,2.7c0,.4,.1,.7,.4,1l.9,.8h-3.2l1.1,1.2h1.9v11.3l1.2,1.2V135.2h2.1L436,134h-1.3l-.5,-1.1c0,-.9,.6,-1.6,1.6,-2.3c1,-.7,1.9,-1,2.8,-1c.6,0,1.2,.1,1.8,.2c.6,.2,1.1,.4,1.7,.7c.6,.4,1.1,.7,1.6,1c.4,.4,.9,.7,1.2,1l-.2,-.6Zm5.9,2.1H435.3l1.2,1.2h5.3c-.5,.3,-.9,.8,-1.3,1.5c-.4,.6,-.5,1.2,-.5,1.7c0,.8,.2,1.5,.8,2.1c.5,.7,1.2,1,2,1c.3,0,.7,-.1,1.2,-.3c.6,-.2,.9,-.3,1,-.3c.2,0,.4,.1,.5,.4c.2,.2,.2,.4,.2,.6c0,.6,-.4,1,-1.1,1.3c-.6,.3,-1.2,.5,-1.8,.5c-.7,0,-1.3,-.2,-1.9,-.6c-.5,-.4,-1,-1,-1.4,-1.7c-.6,-.9,-1,-2.1,-1.1,-3.5c-.1,-.5,-.1,-.9,0,-1.3l-.7,-.3c0,1.2,.1,2.3,.3,3.3c.1,1,.4,1.9,.7,2.7c.9,2.2,2.4,3.4,4.5,3.4c.9,0,1.7,-.4,2.3,-1c.7,-.7,1,-1.5,1,-2.4c0,-.3,0,-.6,-.1,-.9c-.1,-.4,-.3,-.7,-.5,-1.1c-.4,-.7,-.8,-1.2,-1.4,-1.4l-1.3,.7c-.3,.1,-.5,.2,-.8,.3c-.2,.1,-.4,.1,-.5,.1c-.6,0,-1,-.3,-1,-.9c0,-.4,.3,-1,.7,-1.7c.3,-.4,.5,-.7,.7,-.9c.2,-.2,.4,-.3,.6,-.3l.1,.1c.8,.9,1.6,1.6,2.4,1.9c.8,.3,1.8,.5,3.1,.5c-.5,1.2,-.8,2.5,-.8,3.6c0,.9,.1,1.8,.3,2.6c.2,.8,.4,1.6,.7,2.4l1.1,.3c-.6,-1.3,-.9,-2.5,-.9,-3.4c0,-1.2,.2,-2.3,.5,-3.3c.4,-.9,.9,-1.7,1.5,-2.3l-1.8,-1.9c-.3,.2,-.8,.3,-1.3,.4c-.5,.1,-1.1,.1,-1.7,.1c-.2,0,-.3,0,-.6,-.1c-.2,-.1,-.4,-.1,-.7,-.3c-.2,-.1,-.4,-.2,-.6,-.3c-.1,-.2,-.2,-.3,-.2,-.5c0,-.2,.2,-.4,.4,-.5c.2,-.2,.4,-.3,.6,-.3h6.8L450.6,134Zm13.2,-2.1c-2.3,-2.4,-4.7,-3.6,-7.3,-3.6c-.9,0,-2,.4,-3,1.2c-1.1,.9,-1.6,1.8,-1.6,2.7c0,.4,.1,.7,.4,1l.9,.8H450l1.1,1.2H453v11.3l1.2,1.2V135.2h2.1L455.1,134h-1.3l-.5,-1.1c0,-.9,.6,-1.6,1.6,-2.3c1,-.7,1.9,-1,2.8,-1c.6,0,1.2,.1,1.8,.2c.6,.2,1.1,.4,1.7,.7c.6,.4,1.1,.7,1.6,1c.4,.4,.9,.7,1.2,1l-.2,-.6Zm3.7,3.3L466.3,134H454.6l1.2,1.2h8.4v6.6c-1.3,-2.6,-2.8,-4,-4.5,-4c-.8,0,-1.5,.3,-2.1,.9c-.5,.5,-.8,1.2,-.8,2c0,1.5,.7,2.2,2.3,2.2c.5,0,.9,-.2,1.2,-.5c.3,-.4,.4,-.8,.4,-1.3c0,-.3,-.2,-.8,-.8,-1.5c.1,-.1,.2,-.1,.4,-.1c1.3,0,2.4,.8,3.3,2.5c.7,1.4,1,2.9,1,4.2l-.1,1.3l.9,.6V135.2h2.1Zm12.6,0L479,134H466.1c.3,.4,.7,.7,.9,.9c.2,.2,.4,.4,.5,.5c.3,.2,.6,.4,.9,.6c.3,.1,.6,.2,.9,.3c.5,.1,.9,.2,1.3,.3c.3,.1,.6,.2,.8,.4c.2,.2,.4,.4,.5,.7c.1,.4,.2,.8,.3,1.4c-.4,.5,-.7,.9,-1,1.3c-.3,.3,-.5,.5,-.6,.7c-.2,.2,-.3,.3,-.4,.4c-.1,0,-.2,0,-.3,0c-.2,0,-.3,0,-.5,-.1c-.1,-.1,-.2,-.3,-.3,-.4c-.1,-.2,-.2,-.4,-.3,-.6c0,-.2,-.1,-.3,-.1,-.5l-.8,.8c.1,.2,.3,.5,.5,.8c.1,.3,.3,.6,.6,.9c.2,.3,.5,.5,.7,.7c.3,.1,.7,.2,1,.2c.2,0,.3,0,.5,-.1c.1,0,.3,-.1,.5,-.3c.2,-.2,.5,-.5,.8,-.9c.3,-.4,.6,-.9,1,-1.6c.4,-.6,.9,-1,1.3,-1.1c.4,0,.8,.1,1.1,.4c.3,.4,.5,.9,.7,1.6c.2,.7,.3,1.6,.3,2.5v.4c0,.1,0,.3,0,.5c0,.1,-.1,.4,-.1,.7c0,.3,0,.6,0,1.1c.2,.2,.4,.4,.6,.6c.1,.3,.3,.5,.5,.7V135.2h2.2Zm-3.3,4.1c-.4,-.4,-.7,-.8,-1,-1.1c-.3,-.4,-.6,-.6,-.9,-.7c-.3,-.1,-.6,-.1,-.9,.1c-.4,.1,-.7,.4,-1.1,.8c0,-.6,-.2,-1.1,-.4,-1.6c-.3,-.5,-.7,-1,-1.4,-1.6h5.7v4.1ZM500,131.9c-2.3,-2.4,-4.8,-3.6,-7.3,-3.6c-1,0,-2,.4,-3.1,1.2c-1,.9,-1.6,1.8,-1.6,2.7c0,.4,.2,.7,.5,1l.8,.8h-3.2l1.2,1.2h1.8v11.3l1.3,1.2V135.2h2L491.2,134h-1.3l-.4,-1.1c0,-.9,.6,-1.6,1.6,-2.3c.9,-.7,1.9,-1,2.8,-1c.6,0,1.2,.1,1.7,.2c.6,.2,1.2,.4,1.7,.7c.6,.4,1.2,.7,1.6,1c.5,.4,.9,.7,1.3,1l-.2,-.6Zm3.9,3.3L502.7,134H490.9l1.2,1.2h1.3v7.1L495,144c.5,-1.1,1.2,-2.1,2.1,-2.9c.9,-.9,1.9,-1.5,2.9,-1.9c-.2,1,-.4,2.1,-.4,3.1c0,.6,.1,1.3,.2,2.2c.1,.8,.3,1.8,.5,3l.9,.4c-.3,-1.6,-.5,-2.8,-.5,-3.7c0,-.9,.1,-1.8,.4,-2.8c.3,-1,.7,-2,1.3,-3l-2,-1.5c-.4,.1,-.8,.3,-1.3,.6c-.5,.2,-1,.5,-1.5,.8c-.5,.4,-1,.7,-1.5,1.2c-.5,.4,-1,.8,-1.4,1.3v-5.6h9.2Zm6,-1.2h-8l1.2,1.2h4c-1.7,2,-2.5,4,-2.5,6.1c0,1.5,.3,2.8,.9,3.9c.7,1.4,1.8,2.1,3.2,2.1c.3,0,.6,0,.8,-.1c.3,-.1,.5,-.2,.7,-.4c.2,-.2,.4,-.4,.5,-.7c.1,-.2,.2,-.5,.2,-.8c0,-.4,-.2,-.9,-.5,-1.2c-.3,-.3,-.6,-.5,-1,-.5c-.4,0,-.7,.2,-1,.4c-.3,.3,-.5,.6,-.5,1c0,.2,.1,.4,.2,.7c.1,.2,.3,.4,.6,.6c-.7,.2,-1.5,-.2,-2.2,-1.3c-.5,-.7,-.7,-1.5,-.7,-2.3c0,-1,.1,-1.9,.3,-2.7c.2,-.7,.5,-1.4,.9,-2.1c.5,-.7,1,-1.3,1.7,-1.7c.7,-.5,1.4,-.8,2.3,-1L509.9,134Zm13.5,0H509.1l1.3,1.2h14.2L523.4,134Zm-.6,5.6c-.2,-.6,-.5,-1.2,-.9,-1.7c-.5,-.5,-1,-.9,-1.5,-1.1c-.6,-.3,-1.2,-.5,-1.8,-.5c-.8,0,-1.5,.3,-2,.7c-.6,.5,-.9,1.1,-.9,1.9c0,.6,.2,1.2,.5,1.6c.4,.5,.9,.7,1.5,.7c1.3,0,1.9,-.6,1.9,-1.7c0,-.5,-.1,-1,-.5,-1.4c.4,-.1,.7,-.2,.9,-.2c.6,0,1.1,.3,1.6,.9c.4,.6,.5,1.1,.5,1.8c0,.8,-.3,1.6,-1,2.3c-.8,.6,-1.6,1,-2.5,1c-1.7,0,-3.2,-.9,-4.4,-2.8c-.3,-.3,-.7,-1,-1.1,-1.8c-.4,-.9,-.9,-1.9,-1.4,-3.1l-.6,-.2c1.8,6.5,4.3,9.8,7.5,9.8c1.1,0,2.2,-.5,3.2,-1.3c.4,-.4,.7,-.8,1,-1.4c.2,-.5,.3,-1,.3,-1.6c0,-.7,-.1,-1.3,-.3,-1.9ZM542.6,134H530.5l1.2,1.2h4.2c.6,.4,.8,.7,.8,1c-.7,0,-1.3,.3,-1.9,.8c-.6,.5,-.9,1.1,-.9,1.8c0,.4,.2,.7,.5,.9c.3,.2,.6,.3,1,.3c.5,0,1.1,-.2,1.6,-.7c.4,-.5,.7,-1,.7,-1.6c.1,0,.2,-.1,.3,-.1c.2,0,.3,0,.5,0c.1,0,.3,.1,.5,.2c.2,.1,.4,.2,.5,.4c.2,.2,.3,.4,.4,.7c0,.2,.1,.5,.1,.7c0,.8,-.5,1.5,-1.4,2c-.8,.3,-1.6,.5,-2.5,.4c-1.3,-.1,-2.4,-.4,-3.4,-1l1.5,3c.8,.2,1.7,.5,2.6,.9c.9,.3,1.7,.7,2.5,1.2c.9,.5,1.6,1,2.3,1.5c.7,.6,1.3,1.2,1.9,1.9l-.3,-1.3c-1,-1.1,-2,-2,-3,-2.8c-.9,-.8,-1.7,-1.4,-2.6,-1.9c1.3,-.3,2.1,-.7,2.7,-1.2c.8,-.6,1.2,-1.4,1.2,-2.4c0,-1,-.3,-1.8,-1,-2.5c-.4,-.5,-1.2,-.9,-2.4,-1.3c-.1,-.2,-.2,-.3,-.3,-.5c-.1,-.1,-.3,-.2,-.4,-.4h6.4L542.6,134Zm11.4,1.2L552.8,134H541.7c.6,1,1.7,1.7,3.3,2.2c.7,.2,1.2,.4,1.6,.6c.5,.2,.7,.4,.9,.6c-.5,.4,-1.1,.8,-1.7,1.4c-.7,.5,-1.3,1.1,-1.9,1.7l1.6,2.1c1.4,.1,2.6,.5,3.5,1.2c.6,.5,1.2,1.2,1.8,2.3c.5,1,1,1.6,1.3,1.8V135.2H554Zm-3.1,9.5c-1.1,-1.7,-2.6,-2.9,-4.5,-3.6c.5,-.5,1,-1.1,1.4,-1.6c.5,-.5,1,-.9,1.5,-1.4c-.6,-.7,-1.2,-1.3,-1.7,-1.8c-.5,-.5,-.9,-.9,-1.3,-1.1h4.6v9.5Zm-4.6,2c.2,.2,.5,.3,.8,.3c.4,0,.7,-.1,.9,-.3c.2,-.3,.4,-.6,.4,-.9c0,-.3,-.2,-.6,-.4,-.9c-.2,-.2,-.5,-.3,-.9,-.3c-.3,0,-.6,.1,-.8,.3c-.3,.3,-.4,.6,-.4,.9c0,.3,.1,.6,.4,.9Z" class="gh_270"/>
<g clip-path="url(#c0_270)">
<path d="M1877,177.2H32.1v-5.4H768.7c43.1,0,53,-37.9,115.3,-37.9h993Z" class="gi_270"/>
<path d="M1877,183.7H32.1v-9.8H768.7c43.1,0,53,-33.6,115.3,-33.6h993Z" class="gj_270"/>
</g>
<image clip-path="url(#ch_270)" preserveAspectRatio="none" x="125" y="206" width="734" height="181" xlink:href="img/9.png"/>
<path d="M144.6,231.3c0,0,-13,0,-13,13v117c0,0,0,13,13,13H833.1c0,0,13,0,13,-13v-130Z" class="gk_270"/>
<path d="M147.7,294.1l54.1,40.8l54.1,-40.8V230h8.7V211.9H155.8c-6.5,.4,-7.7,3.9,-8.2,8.4Z" class="gl_270"/>
<path d="M274,220.3c-.3,-4.7,-4.2,-8.4,-9,-8.4c-4.8,0,-8.7,3.7,-9,8.4h-.1V230h18.2v-9.7Z" class="gm_270"/>
<path d="M255.9,230.6H846.1" class="gn_270"/>
<path d="M131.7,399.1v39l11.7,10.3V404.2Z" class="go_270"/>
<path d="M131.7,399.1v39H829.5c0,0,16.8,0,16.8,-16.8v-5.4c0,0,0,-16.8,-16.8,-16.8Z" class="g3_270"/>
<path d="M781,432.8c8.2,0,14.8,-6.5,14.8,-14.6c0,-8,-6.6,-14.5,-14.8,-14.5c-8.3,0,-14.9,6.5,-14.9,14.5c0,8.1,6.6,14.6,14.9,14.6Z" class="gp_270"/>
<path d="M781,432.8c8.2,0,14.8,-6.5,14.8,-14.6c0,-8,-6.6,-14.5,-14.8,-14.5c-8.3,0,-14.9,6.5,-14.9,14.5c0,8.1,6.6,14.6,14.9,14.6Z" class="gq_270"/>
<path d="M781,423.6c3,0,5.4,-2.4,5.4,-5.4c0,-2.9,-2.4,-5.3,-5.4,-5.3c-3.1,0,-5.5,2.4,-5.5,5.3c0,3,2.4,5.4,5.5,5.4Z" class="g1_270"/>
<path d="M781,423.6c3,0,5.4,-2.4,5.4,-5.4c0,-2.9,-2.4,-5.3,-5.4,-5.3c-3.1,0,-5.5,2.4,-5.5,5.3c0,3,2.4,5.4,5.5,5.4Z" class="gr_270"/>
<g clip-path="url(#ci_270)" opacity="0.3">
<path d="M766.4,417.5v0c0,0,-.1,-4.9,3.6,-8.7l7.8,6.7c0,0,-1,1,-1.1,2.7Z" class="g1_270"/>
</g>
<path d="M785.6,418.1c0,0,-3.5,0,-3.5,3.5v8.7c0,0,0,3.5,3.5,3.5H829c0,0,3.5,0,3.5,-3.5v-8.7c0,0,0,-3.5,-3.5,-3.5Z" class="gm_270"/>
<path d="M169.5,409.2c0,-8.3,-6.7,-15,-15,-15c-8.4,0,-15.1,6.7,-15.1,15c0,8.3,6.8,15.1,15.1,15.1c.8,0,1.6,-.1,2.4,-.2l4.5,5.2v-6.7c4.8,-2.5,8.1,-7.6,8.1,-13.4Z" class="g1_270"/>
<path d="M161.8,430.5l-5.1,-5.9c-.7,.1,-1.5,.1,-2.2,.1c-8.6,0,-15.6,-6.9,-15.6,-15.5c0,-8.5,7,-15.5,15.6,-15.5c8.5,0,15.5,7,15.5,15.5c0,5.7,-3.1,10.9,-8.2,13.7Zm-4.7,-6.9l3.8,4.5v-5.8l.3,-.1c4.8,-2.5,7.9,-7.5,7.9,-13c0,-8,-6.6,-14.6,-14.6,-14.6c-8.1,0,-14.6,6.6,-14.6,14.6c0,8.1,6.5,14.6,14.6,14.6c.7,0,1.5,-.1,2.3,-.2Z" class="gs_270"/>
<path d="M147.4,408.8c.8,0,1.5,.6,1.5,1.4c0,.8,-.7,1.4,-1.5,1.4c-.7,0,-1.4,-.6,-1.4,-1.4c0,-.8,.7,-1.4,1.4,-1.4Z" class="gt_270"/>
<path d="M147.4,412.1c-1,0,-1.8,-.8,-1.8,-1.9c0,-1,.8,-1.9,1.8,-1.9c1.1,0,1.9,.9,1.9,1.9c0,1.1,-.8,1.9,-1.9,1.9m0,-2.9c-.5,0,-.9,.5,-.9,1c0,.6,.4,1,.9,1c.6,0,1,-.4,1,-1c0,-.5,-.4,-1,-1,-1Z" class="gs_270"/>
<path d="M154.5,408.8c.8,0,1.4,.6,1.4,1.4c0,.8,-.6,1.4,-1.4,1.4c-.8,0,-1.5,-.6,-1.5,-1.4c0,-.8,.7,-1.4,1.5,-1.4Z" class="gt_270"/>
<path d="M154.5,412.1c-1.1,0,-1.9,-.8,-1.9,-1.9c0,-1,.8,-1.9,1.9,-1.9c1,0,1.9,.9,1.9,1.9c0,1.1,-.9,1.9,-1.9,1.9m0,-2.9c-.6,0,-1,.5,-1,1c0,.6,.4,1,1,1c.5,0,.9,-.4,.9,-1c0,-.5,-.4,-1,-.9,-1Z" class="gs_270"/>
<path d="M161.5,408.8c.8,0,1.4,.6,1.4,1.4c0,.8,-.6,1.4,-1.4,1.4c-.8,0,-1.5,-.6,-1.5,-1.4c0,-.8,.7,-1.4,1.5,-1.4Z" class="gt_270"/>
<path d="M161.5,412.1c-1.1,0,-1.9,-.8,-1.9,-1.9c0,-1,.8,-1.9,1.9,-1.9c1,0,1.9,.9,1.9,1.9c0,1.1,-.9,1.9,-1.9,1.9m0,-2.9c-.6,0,-1,.5,-1,1c0,.6,.4,1,1,1c.5,0,1,-.4,1,-1c0,-.5,-.5,-1,-1,-1Z" class="gs_270"/>
<path d="M163.4,423.4c0,-9.7,7.9,-17.6,17.6,-17.6c9.7,0,17.6,7.9,17.6,17.6c0,9.8,-7.9,17.7,-17.6,17.7c-.9,0,-1.9,-.1,-2.8,-.3l-5.3,6.1v-7.8c-5.6,-2.9,-9.5,-8.8,-9.5,-15.7Z" class="gu_270"/>
<path d="M172.9,447.4c0,0,-.1,0,-.1,0c-.2,-.1,-.3,-.3,-.3,-.5v-7.5c-5.9,-3.2,-9.6,-9.2,-9.6,-16c0,-9.9,8.2,-18,18.1,-18c10,0,18.1,8.1,18.1,18c0,10,-8.1,18.1,-18.1,18.1c-.8,0,-1.7,0,-2.6,-.2l-5.1,5.9c-.1,.1,-.2,.2,-.4,.2M181,406.3c-9.4,0,-17.1,7.7,-17.1,17.1c0,6.5,3.5,12.3,9.2,15.3c.2,.1,.3,.2,.3,.4v6.6l4.4,-5.2c.1,-.1,.3,-.1,.5,-.1c.9,.1,1.8,.2,2.7,.2c9.5,0,17.2,-7.7,17.2,-17.2c0,-9.4,-7.7,-17.1,-17.2,-17.1Z" class="gs_270"/>
<path d="M189.2,423c.9,0,1.7,.7,1.7,1.6c0,1,-.8,1.7,-1.7,1.7c-.9,0,-1.7,-.7,-1.7,-1.7c0,-.9,.8,-1.6,1.7,-1.6Z" class="g1_270"/>
<path d="M189.2,426.8c-1.2,0,-2.1,-1,-2.1,-2.2c0,-1.1,.9,-2.1,2.1,-2.1c1.2,0,2.1,1,2.1,2.1c0,1.2,-.9,2.2,-2.1,2.2m0,-3.4c-.7,0,-1.2,.6,-1.2,1.2c0,.7,.5,1.2,1.2,1.2c.7,0,1.2,-.5,1.2,-1.2c0,-.6,-.5,-1.2,-1.2,-1.2Z" class="gs_270"/>
<path d="M181,423c.9,0,1.7,.7,1.7,1.6c0,1,-.8,1.7,-1.7,1.7c-.9,0,-1.7,-.7,-1.7,-1.7c0,-.9,.8,-1.6,1.7,-1.6Z" class="g1_270"/>
<path d="M181,426.8c-1.2,0,-2.1,-1,-2.1,-2.2c0,-1.1,.9,-2.1,2.1,-2.1c1.2,0,2.1,1,2.1,2.1c0,1.2,-.9,2.2,-2.1,2.2m0,-3.4c-.7,0,-1.2,.6,-1.2,1.2c0,.7,.5,1.2,1.2,1.2c.7,0,1.2,-.5,1.2,-1.2c0,-.6,-.5,-1.2,-1.2,-1.2Z" class="gs_270"/>
<path d="M172.8,423c.9,0,1.7,.7,1.7,1.6c0,1,-.8,1.7,-1.7,1.7c-.9,0,-1.7,-.7,-1.7,-1.7c0,-.9,.8,-1.6,1.7,-1.6Z" class="g1_270"/>
<path d="M172.8,426.8c-1.2,0,-2.1,-1,-2.1,-2.2c0,-1.1,.9,-2.1,2.1,-2.1c1.2,0,2.1,1,2.1,2.1c0,1.2,-.9,2.2,-2.1,2.2m0,-3.4c-.7,0,-1.2,.6,-1.2,1.2c0,.7,.5,1.2,1.2,1.2c.7,0,1.2,-.5,1.2,-1.2c0,-.6,-.5,-1.2,-1.2,-1.2Z" class="gs_270"/>
<path d="M32.1,45.1H9.2m958.3,0h22.9M32.1,1331.3H9.2m958.3,0h22.9M45.1,32.1V9.2m0,1335.1v22.9M954.5,32.1V9.2m0,1335.1v22.9" class="gv_270"/>
<path d="M32.1,45.1H9.2m958.3,0h22.9M32.1,1331.3H9.2m958.3,0h22.9M45.1,32.1V9.2m0,1335.1v22.9M954.5,32.1V9.2m0,1335.1v22.9" class="gw_270"/>
<path d="M27.5,32.1H0m972.1,0h27.5M27.5,1344.3H0m972.1,0h27.5M32.1,27.5V0m0,1348.9v27.5M967.5,27.5V0m0,1348.9v27.5" class="gv_270"/>
<path d="M27.5,32.1H0m972.1,0h27.5M27.5,1344.3H0m972.1,0h27.5M32.1,27.5V0m0,1348.9v27.5M967.5,27.5V0m0,1348.9v27.5" class="gw_270"/>
</svg>