<?xml version="1.0" encoding="UTF-8" standalone="no"?>
<!DOCTYPE svg PUBLIC "-//W3C//DTD SVG 1.1//EN"
"http://www.w3.org/Graphics/SVG/1.1/DTD/svg11.dtd">
<svg viewBox="0 0 999 1376" version="1.1" xmlns="http://www.w3.org/2000/svg" xmlns:xlink="http://www.w3.org/1999/xlink">
<defs>
<clipPath id="c0_188"><path d="M32.1,1344.3V32.1H967.5V1344.3Z"/></clipPath>
<clipPath id="c1_188"><path d="M207,1086.1v-69.5h70.3v69.5Z"/></clipPath>
<clipPath id="c2_188"><path d="M207,1003.6v-71h70.3v71Z"/></clipPath>
<clipPath id="c3_188"><path d="M207,920.3v-71h70.3v71Z"/></clipPath>
<clipPath id="c4_188"><path d="M207,836.3v-71h70.3v71Z"/></clipPath>
<clipPath id="c5_188"><path d="M240.8,741.2V656.6h75.8v84.6Z"/></clipPath>
<clipPath id="c6_188"><path d="M176.6,551.6l-6.5,-2.1L153.7,535.6V478.5h72v73.1Z"/></clipPath>
<clipPath id="c7_188"><path d="M178.4,137.2c.1,-1.3,.7,-2.5,1.6,-3.4c1,-1,2.4,-1.6,3.9,-1.6h19.2v5Z"/></clipPath>
<clipPath id="c8_188"><path d="M177.9,137.7v-6h25.7v6Z"/></clipPath>
<style type="text/css"><![CDATA[
.g0_188{
fill: #FEFCF4;
}
.g1_188{
fill: #FFF;
}
.g2_188{
fill: none;
stroke: #6381B7;
stroke-width: 0.763;
}
.g3_188{
fill: none;
stroke: #231F20;
stroke-width: 0.381;
stroke-miterlimit: 10;
}
.g4_188{
fill: #DCE9F3;
}
.g5_188{
fill: #9BD1EA;
}
.g6_188{
fill: none;
stroke: #58595B;
stroke-width: 0.381;
stroke-miterlimit: 10;
}
.g7_188{
fill: #48484A;
}
.g8_188{
fill: #F0E8F3;
}
.g9_188{
fill: #766FA6;
}
.ga_188{
fill: none;
stroke: #231F20;
stroke-width: 0.458;
stroke-miterlimit: 10;
}
.gb_188{
fill: #6381B7;
}
.gc_188{
fill: none;
stroke: #6381B7;
stroke-width: 0.381;
stroke-dasharray: 2,1;
}
.gd_188{
fill: none;
stroke: #6381B7;
stroke-width: 0.381;
}
.ge_188{
fill: #FCE8B0;
}
.gf_188{
fill: #25408F;
}
.gg_188{
fill: none;
stroke: #231F20;
stroke-width: 1.527;
}
.gh_188{
fill: #39B4D1;
stroke: #2D2A4A;
stroke-width: 1.038;
stroke-linecap: round;
stroke-linejoin: round;
}
.gi_188{
fill: #2D2A4A;
}
.gj_188{
fill: none;
stroke: #2D2A4A;
stroke-width: 1.038;
stroke-linecap: round;
stroke-linejoin: round;
}
.gk_188{
fill: #DEDAD3;
}
.gl_188{
fill: #29263F;
}
.gm_188{
fill: #E15F46;
stroke: #2D2A4A;
stroke-width: 1.038;
stroke-linecap: round;
stroke-linejoin: round;
}
.gn_188{
fill: none;
stroke: #FFF;
stroke-width: 1.909;
stroke-miterlimit: 10;
}
.go_188{
fill: none;
stroke: #000;
stroke-width: 0.381;
stroke-miterlimit: 10;
}
]]></style>
</defs>
<path clip-path="url(#c0_188)" d="M954.5,1344.3H1877V32.1H954.5V1344.3Z" class="g0_188"/>
<path d="M145.1,569.5c0,0,-13,0,-13,13v507.7c0,0,0,13,13,13H832.9c0,0,13,0,13,-13V582.5c0,0,0,-13,-13,-13Z" class="g1_188"/>
<path d="M145.1,569.5c0,0,-13,0,-13,13v507.7c0,0,0,13,13,13H832.9c0,0,13,0,13,-13V582.5c0,0,0,-13,-13,-13H145.1Z" class="g2_188"/>
<path d="M172.2,622.2H601.9V609.8H172.2v12.4Z" class="g1_188"/>
<image clip-path="url(#c1_188)" preserveAspectRatio="none" x="204" y="1016" width="74" height="70" xlink:href="img/1.jpg"/>
<image clip-path="url(#c2_188)" preserveAspectRatio="none" x="203" y="932" width="75" height="73" xlink:href="img/2.jpg"/>
<image clip-path="url(#c3_188)" preserveAspectRatio="none" x="205" y="848" width="74" height="73" xlink:href="img/3.jpg"/>
<image clip-path="url(#c4_188)" preserveAspectRatio="none" x="203" y="764" width="78" height="73" xlink:href="img/4.jpg"/>
<path d="M315.4,798.7H497M315.4,878.9H497M315.4,959.2H497m-181.6,80.2H497" class="g3_188"/>
<path d="M149,166.3c0,0,-17.3,0,-17.3,17.4V400.2c0,0,0,17.3,17.3,17.3H828.9c0,0,17.4,0,17.4,-17.3V183.7c0,0,0,-17.4,-17.4,-17.4Z" class="g4_188"/>
<path d="M222.6,213.5H460.8v30.1H222.6V213.5Zm238.2,0H763.9v30.1H460.8V213.5Z" class="g5_188"/>
<path d="M222.6,243.6H460.8v53.5H222.6V243.6Zm238.2,0H763.9v53.5H460.8V243.6Z" class="g1_188"/>
<path d="M222.6,213.5H460.8m0,0H763.9M460.8,243.4V213.7M222.6,243.6H460.8m0,0H763.9M460.8,297V243.8M222.6,297.1H460.8m0,0H763.9" class="g6_188"/>
<path d="M172.3,663.8c0,0,-4.4,0,-4.4,4.3v14.8c0,0,0,4.3,4.1,5.8l52.5,18.5c0,0,4.1,1.4,4.1,-2.9V668.1c0,0,0,-4.3,-4.4,-4.3Z" class="g7_188"/>
<path d="M193.4,650.8c0,0,-13,0,-13,13v70.7c0,0,0,13,13,13H798.8c0,0,13,0,13,-13V663.8c0,0,0,-13,-13,-13Z" class="g8_188"/>
<path d="M172.3,661.6c0,0,-4.4,0,-4.4,4.4v17.3c0,0,0,4.3,4.4,4.3h37.2c0,0,4.4,0,4.4,-4.3V666c0,0,0,-4.4,-4.4,-4.4Z" class="g9_188"/>
<path d="M351.3,691.7h86.5" class="ga_188"/>
<image clip-path="url(#c5_188)" preserveAspectRatio="none" x="239" y="655" width="79" height="88" xlink:href="img/5.png"/>
<path d="M435.2,1124.9c0,0,-4.3,0,-4.3,4.3v10.9c0,0,0,4.3,4.3,4.3h30.3c0,0,4.4,0,4.4,-4.3v-10.9c0,0,0,-4.3,-4.4,-4.3Z" class="gb_188"/>
<path d="M422,1116.1v37.5m1.4,1H845.1m1,-1.3v-37.6m-1.4,-1H423" class="gc_188"/>
<path d="M422,1154v.6h.6m422.9,0h.6v-.6m0,-38.7v-.6h-.6m-422.9,0H422v.6" class="gd_188"/>
<path d="M209.2,506.6c0,0,-13,0,-13,13v21.7c0,0,0,12.9,13,12.9H830.8c0,0,13,0,13,-12.9V519.6c0,0,0,-13,-13,-13Z" class="ge_188"/>
<image clip-path="url(#c6_188)" preserveAspectRatio="none" x="152" y="477" width="75" height="76" xlink:href="img/6.png"/>
<path d="M204,546.9c0,0,-26.8,11.3,-51.1,-12.8c0,0,15.2,25.3,49.3,24c0,0,24.8,.3,20.3,-10.1c0,0,1.2,-4.5,-18.5,-1.1Z" class="ge_188"/>
<path d="M131.7,109.5v39l11.7,10.2V136.5Z" class="gf_188"/>
<path d="M131.7,109.5v39H829.5c0,0,16.8,0,16.8,-16.8v-5.4c0,0,0,-16.8,-16.8,-16.8Z" class="gb_188"/>
<path d="M768.8,131c0,0,-.5,-10,8.6,-9.4c0,0,6.7,-.3,6.6,9.5m-15.3,-1.5v6.5c0,0,-3.3,.3,-3.9,-3c0,0,-.1,-3.8,3.9,-3.5Zm15.4,0v6.5c0,0,3.3,.3,3.9,-3c0,0,.1,-3.8,-3.9,-3.5Z" class="gg_188"/>
<path d="M147.4,140.8h61v-32h-61v32Z" class="gh_188"/>
<path d="M147.4,143.1h61v-2.3h-61v2.3Z" class="gh_188"/>
<path d="M171.8,106.2H152.1v31.5h25.8V112.3c0,-3.4,-2.7,-6.1,-6.1,-6.1Z" class="g1_188"/>
<path d="M171.8,106.2v-.5H152.1c-.1,0,-.3,.1,-.4,.2c-.1,.1,-.1,.2,-.1,.3v31.5c0,.1,0,.3,.1,.4c.1,.1,.3,.1,.4,.1h25.8c.1,0,.2,0,.3,-.1c.1,-.1,.2,-.3,.2,-.4V112.3c0,-3.7,-2.9,-6.6,-6.6,-6.6v1c1.6,0,2.9,.7,3.9,1.7c1,1,1.6,2.3,1.6,3.9v24.9H152.6V106.7h19.2Z" class="gi_188"/>
<path d="M152.1,131.7v6h25.8c0,-3.3,-2.7,-6,-6.1,-6Z" class="g1_188"/>
<path d="M152.1,131.7h-.5v6c0,.1,0,.3,.1,.4c.1,.1,.3,.1,.4,.1h25.8c.1,0,.2,0,.3,-.1c.1,-.1,.2,-.3,.2,-.4c0,-3.6,-3,-6.6,-6.6,-6.6H152.1c-.1,0,-.3,.1,-.4,.2c-.1,.1,-.1,.2,-.1,.4h.5v.5h19.7c1.6,0,2.9,.6,3.9,1.6c1,1,1.6,2.4,1.6,3.9h.6v-.5H152.6v-5.5h-.5v.5Z" class="gi_188"/>
<path d="M155.6,110.9h17.2m-17.2,2.8h17.2m-17.2,2.9h17.2m-17.2,2.9h17.2m-17.2,2.8h17.2m-17.2,2.9h17.2M155.6,128h17.2" class="gj_188"/>
<path d="M171.8,132.2H152.6v5h24.7c-.1,-1.3,-.7,-2.5,-1.6,-3.4c-1,-1,-2.3,-1.6,-3.9,-1.6Z" class="gk_188"/>
<path d="M152.6,132.2h19.2c1.6,0,2.9,.6,3.9,1.6c.9,.9,1.5,2.1,1.6,3.4H152.6Zm19.2,-.5H152.1v6h25.2v-2.5c-.9,-2.1,-3,-3.5,-5.5,-3.5Z" class="gl_188"/>
<path d="M183.9,106.2h19.7v31.5H177.9V112.3c0,-3.4,2.7,-6.1,6,-6.1Z" class="g1_188"/>
<path d="M183.9,106.2v.5h19.2v30.5H178.4V112.3c0,-1.6,.6,-2.9,1.6,-3.9c1,-1,2.4,-1.7,3.9,-1.7v-1c-3.6,0,-6.6,2.9,-6.6,6.6v25.4c0,.1,.1,.3,.2,.4c.1,.1,.2,.1,.4,.1h25.7c.2,0,.3,0,.4,-.1c.1,-.1,.1,-.3,.1,-.4V106.2c0,-.1,0,-.2,-.1,-.3c-.1,-.1,-.2,-.2,-.4,-.2H183.9Z" class="gi_188"/>
<path d="M203.6,131.7v6H177.9c0,-3.3,2.7,-6,6,-6Z" class="g1_188"/>
<path d="M203.6,131.7h-.5v5.5H177.9v.5h.5c0,-1.5,.6,-2.9,1.6,-3.9c1,-1,2.4,-1.6,3.9,-1.6h19.7v-.5h-.5h.5v-.6H183.9c-3.6,0,-6.6,3,-6.6,6.6c0,.1,.1,.3,.2,.4c.1,.1,.2,.1,.4,.1h25.7c.2,0,.3,0,.4,-.1c.1,-.1,.1,-.3,.1,-.4v-6c0,-.2,0,-.3,-.1,-.4c-.1,-.1,-.2,-.2,-.4,-.2Z" class="gi_188"/>
<path d="M200.1,110.9H182.9m17.2,2.8H182.9m17.2,2.9H182.9m17.2,2.9H182.9m17.2,2.8H182.9m17.2,2.9H182.9m17.2,2.8H182.9" class="gj_188"/>
<path clip-path="url(#c7_188)" d="M178.4,137.2h24.7v-5H178.4v5Z" class="gk_188"/>
<path clip-path="url(#c8_188)" d="M178.4,137.2c.1,-1.3,.7,-2.5,1.6,-3.4c1,-1,2.4,-1.6,3.9,-1.6h19.2v5Zm25.2,-5.5H183.9c-3.3,0,-6,2.7,-6,6h25.7v-6h-.5h.5Z" class="gl_188"/>
<path d="M177.9,108.8v34.3" class="gj_188"/>
<path d="M195.5,145.5h3.3V134.7h-3.3v10.8Z" class="gm_188"/>
<path d="M32.1,45.1H9.2m958.3,0h22.9M32.1,1331.3H9.2m958.3,0h22.9M45.1,32.1V9.2m0,1335.1v22.9M954.5,32.1V9.2m0,1335.1v22.9" class="gn_188"/>
<path d="M32.1,45.1H9.2m958.3,0h22.9M32.1,1331.3H9.2m958.3,0h22.9M45.1,32.1V9.2m0,1335.1v22.9M954.5,32.1V9.2m0,1335.1v22.9" class="go_188"/>
<path d="M27.5,32.1H0m972.1,0h27.5M27.5,1344.3H0m972.1,0h27.5M32.1,27.5V0m0,1348.9v27.5M967.5,27.5V0m0,1348.9v27.5" class="gn_188"/>
<path d="M27.5,32.1H0m972.1,0h27.5M27.5,1344.3H0m972.1,0h27.5M32.1,27.5V0m0,1348.9v27.5M967.5,27.5V0m0,1348.9v27.5" class="go_188"/>
</svg>