<?xml version="1.0" encoding="UTF-8" standalone="no"?>
<!DOCTYPE svg PUBLIC "-//W3C//DTD SVG 1.1//EN"
"http://www.w3.org/Graphics/SVG/1.1/DTD/svg11.dtd">
<svg viewBox="0 0 999 1376" version="1.1" xmlns="http://www.w3.org/2000/svg" xmlns:xlink="http://www.w3.org/1999/xlink">
<defs>
<clipPath id="c0_51"><path d="M32.1,1344.3V32.1H967.5V1344.3Z"/></clipPath>
<clipPath id="c1_51"><path d="M151.6,1040.4V215.9H875.4v824.5Z"/></clipPath>
<clipPath id="c2_51"><path d="M275.5,361.8V288.2h77.8v73.6Z"/></clipPath>
<clipPath id="c3_51"><path d="M275.5,476.5V402.9h77.8v73.6Z"/></clipPath>
<clipPath id="c4_51"><path d="M508.5,361.8V288.2h77.9v73.6Z"/></clipPath>
<clipPath id="c5_51"><path d="M510.6,476.5V402.9h74.8v73.6Z"/></clipPath>
<clipPath id="c6_51"><path d="M722.3,361.8V288.2h77.8v73.6Z"/></clipPath>
<clipPath id="c7_51"><path d="M720.8,476.5V402.9h77.9v73.6Z"/></clipPath>
<clipPath id="c8_51"><path d="M203,1127.3l-6.5,-2l-14,-11.2v-60.9h62.7v74.1Z"/></clipPath>
<style type="text/css"><![CDATA[
.g0_51{
fill: #FFFDEA;
}
.g1_51{
fill: #BCE4EA;
}
.g2_51{
fill: #BCBEC0;
}
.g3_51{
fill: #00AABD;
}
.g4_51{
fill: #FCE9F1;
}
.g5_51{
fill: #FFF;
}
.g6_51{
fill: none;
stroke: #6D6F71;
stroke-width: 0.305;
stroke-miterlimit: 10;
}
.g7_51{
fill: none;
stroke: #976EAF;
stroke-width: 3.819;
}
.g8_51{
fill: none;
stroke: #CDBCDB;
stroke-width: 3.819;
stroke-linecap: round;
stroke-linejoin: round;
stroke-dasharray: 0,14;
}
.g9_51{
fill: none;
stroke: #CDBCDB;
stroke-width: 3.819;
stroke-linecap: round;
stroke-linejoin: round;
stroke-dasharray: 0,12;
}
.ga_51{
fill: none;
stroke: #CDBCDB;
stroke-width: 3.819;
stroke-linecap: round;
stroke-linejoin: round;
}
.gb_51{
fill: #FCDCBA;
}
.gc_51{
fill: #B092C4;
}
.gd_51{
fill: none;
stroke: #976EAF;
stroke-width: 0.381;
stroke-dasharray: 2,1;
}
.ge_51{
fill: none;
stroke: #976EAF;
stroke-width: 0.381;
}
.gf_51{
fill: none;
stroke: #FFF;
stroke-width: 1.909;
stroke-miterlimit: 10;
}
.gg_51{
fill: none;
stroke: #000;
stroke-width: 0.381;
stroke-miterlimit: 10;
}
]]></style>
</defs>
<g clip-path="url(#c0_51)">
<path d="M-877.3,1344.3H967.5V32.1H-877.3V1344.3Z" class="g0_51"/>
<path d="M-877.3,179.3H967.5V32.1H-877.3V179.3Z" class="g1_51"/>
<path d="M967.5,177.2H-877.3v-5.4h736.6c43.1,0,53.1,-37.9,115.3,-37.9H967.5Z" class="g2_51"/>
<path d="M967.5,183.7H-877.3v-9.8h736.6c43.1,0,53.1,-33.6,115.3,-33.6H967.5Z" class="g3_51"/>
</g>
<image clip-path="url(#c1_51)" preserveAspectRatio="none" x="151" y="216" width="724" height="825" xlink:href="img/1.png"/>
<path d="M172.6,219.5c0,0,-17.3,0,-17.3,17.4v776.5c0,0,0,17.4,17.3,17.4H848.7c0,0,17.3,0,17.3,-17.4V236.9c0,0,0,-17.4,-17.3,-17.4Z" class="g4_51"/>
<path d="M200.8,688.5H326.4V606.2H200.8v82.3Z" class="g5_51"/>
<path d="M326.4,606.2H452v82.3H326.4V606.2Zm210,0H662v82.3H536.4V606.2Zm125.6,0H787.6v82.3H662V606.2Z" class="g5_51"/>
<path d="M200.7,606.2H326.4M200.8,688.4v-82m125.6,-.2H452.1M326.4,688.4v-82m125.6,82v-82m84.3,-.2H662M536.4,688.4v-82M662,606.2H787.8M662,688.4v-82m125.6,82v-82M200.7,688.5H326.4m0,0H452.1m84.2,0H662m0,0H787.8" class="g6_51"/>
<path d="M200.8,835.4H326.4V753.1H200.8v82.3Z" class="g5_51"/>
<path d="M326.4,753.1H452v82.3H326.4V753.1Zm210,0H662v82.3H536.4V753.1Zm125.6,0H787.6v82.3H662V753.1Z" class="g5_51"/>
<path d="M200.7,753.1H326.4M200.8,835.3v-82m125.6,-.2H452.1M326.4,835.3v-82m125.6,82v-82m84.3,-.2H662M536.4,835.3v-82M662,753.1H787.8M662,835.3v-82m125.6,82v-82M200.7,835.4H326.4m0,0H452.1m84.2,0H662m0,0H787.8" class="g6_51"/>
<path d="M200.8,982.3H326.4V900.1H200.8v82.2Z" class="g5_51"/>
<path d="M326.4,900.1H452v82.2H326.4V900.1Zm210,0H662v82.2H536.4V900.1Zm125.6,0H787.6v82.2H662V900.1Z" class="g5_51"/>
<path d="M200.7,900.1H326.4M200.8,982.2v-82m125.6,-.1H452.1M326.4,982.2v-82m125.6,82v-82m84.3,-.1H662M536.4,982.2v-82M662,900.1H787.8M662,982.2v-82m125.6,82v-82M200.7,982.3H326.4m0,0H452.1m84.2,0H662m0,0H787.8" class="g6_51"/>
<path d="M172.6,219.5c0,0,-17.3,0,-17.3,17.4v776.5c0,0,0,17.4,17.3,17.4H848.7c0,0,17.3,0,17.3,-17.4V236.9c0,0,0,-17.4,-17.3,-17.4H172.6Z" class="g7_51"/>
<path d="M160,224.4c-1.5,1.4,-2.8,3.3,-3.7,5.7" class="g8_51"/>
<path d="M155.3,248.3v759.4" class="g9_51"/>
<path d="M160.1,1026c1.4,1.5,3.3,2.8,5.7,3.7" class="g8_51"/>
<path d="M184,1030.8H843" class="g9_51"/>
<path d="M861.2,1025.9c1.5,-1.4,2.9,-3.3,3.7,-5.7" class="g8_51"/>
<path d="M866,1002V242.6" class="g9_51"/>
<path d="M861.1,224.3c-1.4,-1.5,-3.3,-2.8,-5.7,-3.7" class="g8_51"/>
<path d="M837.2,219.5H178.3" class="g9_51"/>
<path d="M155.3,236.9v0m0,776.5v0m17.3,17.4v0m676.1,0v0M866,1013.4v0m0,-776.5v0M848.7,219.5v0m-676.1,0v0" class="ga_51"/>
<path d="M275.5,361.8h77.8V288.2H275.5v73.6Z" class="g5_51"/>
<image clip-path="url(#c2_51)" preserveAspectRatio="none" x="275" y="286" width="78" height="77" xlink:href="img/2.jpg"/>
<path d="M275.5,476.5h77.8V402.9H275.5v73.6Z" class="g5_51"/>
<image clip-path="url(#c3_51)" preserveAspectRatio="none" x="275" y="401" width="78" height="77" xlink:href="img/3.jpg"/>
<path d="M508.5,361.8h77.9V288.2H508.5v73.6Z" class="g5_51"/>
<image clip-path="url(#c4_51)" preserveAspectRatio="none" x="509" y="286" width="77" height="77" xlink:href="img/4.jpg"/>
<path d="M510.6,476.5h77.9V402.9H510.6v73.6Z" class="g5_51"/>
<image clip-path="url(#c5_51)" preserveAspectRatio="none" x="509" y="401" width="76" height="77" xlink:href="img/5.jpg"/>
<path d="M722.3,361.8h77.8V288.2H722.3v73.6Z" class="g5_51"/>
<image clip-path="url(#c6_51)" preserveAspectRatio="none" x="721" y="286" width="81" height="77" xlink:href="img/6.jpg"/>
<path d="M720.8,476.5h77.9V402.9H720.8v73.6Z" class="g5_51"/>
<image clip-path="url(#c7_51)" preserveAspectRatio="none" x="721" y="401" width="79" height="77" xlink:href="img/7.jpg"/>
<path d="M235.6,1082.3c0,0,-13,0,-13,13V1117c0,0,0,13,13,13H854.7c0,0,13,0,13,-13v-21.7c0,0,0,-13,-13,-13Z" class="gb_51"/>
<image clip-path="url(#c8_51)" preserveAspectRatio="none" x="182" y="1052" width="63" height="77" xlink:href="img/8.png"/>
<path d="M230.4,1122.6c0,0,-26.8,11.3,-51.1,-12.8c0,0,15.2,25.4,49.3,24c0,0,24.8,.3,20.3,-10.1c0,0,1.2,-4.5,-18.5,-1.1Z" class="gb_51"/>
<path d="M468.8,1174.8c0,0,-4.3,0,-4.3,4.3v10.8c0,0,0,4.4,4.3,4.4h30.3c0,0,4.3,0,4.3,-4.4v-10.8c0,0,0,-4.3,-4.3,-4.3Z" class="gc_51"/>
<path d="M455.6,1167.3v76.2m1.3,1H866.8m.9,-1.3v-76.3m-1.3,-1H456.6" class="gd_51"/>
<path d="M455.6,1243.9v.6h.6m410.9,0h.6v-.6m0,-77.4v-.6h-.6m-410.9,0h-.6v.6" class="ge_51"/>
<path d="M32.1,45.1H9.2m958.3,0h22.9M32.1,1331.3H9.2m958.3,0h22.9M45.1,32.1V9.2m0,1335.1v22.9M954.5,32.1V9.2m0,1335.1v22.9" class="gf_51"/>
<path d="M32.1,45.1H9.2m958.3,0h22.9M32.1,1331.3H9.2m958.3,0h22.9M45.1,32.1V9.2m0,1335.1v22.9M954.5,32.1V9.2m0,1335.1v22.9" class="gg_51"/>
<path d="M27.5,32.1H0m972.1,0h27.5M27.5,1344.3H0m972.1,0h27.5M32.1,27.5V0m0,1348.9v27.5M967.5,27.5V0m0,1348.9v27.5" class="gf_51"/>
<path d="M27.5,32.1H0m972.1,0h27.5M27.5,1344.3H0m972.1,0h27.5M32.1,27.5V0m0,1348.9v27.5M967.5,27.5V0m0,1348.9v27.5" class="gg_51"/>
</svg>