<?xml version="1.0" encoding="UTF-8" standalone="no"?>
<!DOCTYPE svg PUBLIC "-//W3C//DTD SVG 1.1//EN"
"http://www.w3.org/Graphics/SVG/1.1/DTD/svg11.dtd">
<svg viewBox="0 0 999 1376" version="1.1" xmlns="http://www.w3.org/2000/svg" xmlns:xlink="http://www.w3.org/1999/xlink">
<defs>
<clipPath id="c0_152"><path d="M32.1,1344.3V32.1H967.5V1344.3Z"/></clipPath>
<clipPath id="c1_152"><path d="M257.8,639.3V571.8h66.8v67.5Z"/></clipPath>
<clipPath id="c2_152"><path d="M261.3,639.2v-68h63.4v68Z"/></clipPath>
<clipPath id="c3_152"><path d="M210.6,724V666.7h57.3V724Z"/></clipPath>
<clipPath id="c4_152"><path d="M210.6,792.8V735.5h57.3v57.3Z"/></clipPath>
<clipPath id="c5_152"><path d="M210.6,861.5V802.9h63.7v58.6Z"/></clipPath>
<clipPath id="c6_152"><path d="M210.6,930.3V868.4h59.7v61.9Z"/></clipPath>
<clipPath id="c7_152"><path d="M176.6,455.3l-6.5,-2.1L153.7,439.3V382.2h72v73.1Z"/></clipPath>
<clipPath id="c8_152"><path d="M178.4,137.2c.1,-1.3,.7,-2.5,1.6,-3.4c1,-1,2.4,-1.6,3.9,-1.6h19.2v5Z"/></clipPath>
<clipPath id="c9_152"><path d="M177.9,137.7v-6h25.7v6Z"/></clipPath>
<style type="text/css"><![CDATA[
.g0_152{
fill: #FEFCF4;
}
.g1_152{
fill: #FFF;
}
.g2_152{
fill: none;
stroke: #6381B7;
stroke-width: 0.763;
}
.g3_152{
fill: #DCE9F3;
}
.g4_152{
fill: #48484A;
}
.g5_152{
fill: #E1E0ED;
}
.g6_152{
fill: none;
stroke: #231F20;
stroke-width: 0.305;
stroke-miterlimit: 10;
}
.g7_152{
fill: #E7D6B2;
}
.g8_152{
fill: #766FA6;
}
.g9_152{
fill: #6381B7;
}
.ga_152{
fill: none;
stroke: #6381B7;
stroke-width: 0.381;
stroke-dasharray: 2,1;
}
.gb_152{
fill: none;
stroke: #6381B7;
stroke-width: 0.381;
}
.gc_152{
fill: #FCE8B0;
}
.gd_152{
fill: #25408F;
}
.ge_152{
fill: none;
stroke: #231F20;
stroke-width: 1.527;
}
.gf_152{
fill: #39B4D1;
stroke: #2D2A4A;
stroke-width: 1.038;
stroke-linecap: round;
stroke-linejoin: round;
}
.gg_152{
fill: #2D2A4A;
}
.gh_152{
fill: none;
stroke: #2D2A4A;
stroke-width: 1.038;
stroke-linecap: round;
stroke-linejoin: round;
}
.gi_152{
fill: #DEDAD3;
}
.gj_152{
fill: #29263F;
}
.gk_152{
fill: #E15F46;
stroke: #2D2A4A;
stroke-width: 1.038;
stroke-linecap: round;
stroke-linejoin: round;
}
.gl_152{
fill: #F0F5FA;
}
.gm_152{
fill: none;
stroke: #7CA7D8;
stroke-width: 1.527;
stroke-linecap: round;
stroke-linejoin: round;
stroke-dasharray: 0,5;
}
.gn_152{
fill: none;
stroke: #7CA7D8;
stroke-width: 1.527;
stroke-linecap: round;
stroke-linejoin: round;
}
.go_152{
fill: #7CA7D8;
}
.gp_152{
fill: #BFD62F;
}
.gq_152{
fill: #3D3B39;
}
.gr_152{
fill: #F5CA58;
}
.gs_152{
fill: none;
stroke: #FFF;
stroke-width: 1.909;
stroke-miterlimit: 10;
}
.gt_152{
fill: none;
stroke: #000;
stroke-width: 0.381;
stroke-miterlimit: 10;
}
]]></style>
</defs>
<path clip-path="url(#c0_152)" d="M954.5,1344.3H1877V32.1H954.5V1344.3Z" class="g0_152"/>
<path d="M145.1,474.2c0,0,-13,0,-13,13V938.1c0,0,0,13,13,13H832.9c0,0,13,0,13,-13V487.2c0,0,0,-13,-13,-13Z" class="g1_152"/>
<path d="M145.1,474.2c0,0,-13,0,-13,13V938.1c0,0,0,13,13,13H832.9c0,0,13,0,13,-13V487.2c0,0,0,-13,-13,-13H145.1Z" class="g2_152"/>
<path d="M149.2,162c0,0,-17.3,0,-17.3,17.3V309.2c0,0,0,17.4,17.3,17.4H828.8c0,0,17.3,0,17.3,-17.4V179.3c0,0,0,-17.3,-17.3,-17.3Z" class="g3_152"/>
<path d="M165.2,578.1c0,0,-4.3,0,-4.3,4.4v14.7c0,0,0,4.4,4.1,5.8l50.7,18.5c0,0,4,1.5,4,-2.8V582.5c0,0,0,-4.4,-4.3,-4.4Z" class="g4_152"/>
<path d="M186,565.2c0,0,-13,0,-13,13v56.3c0,0,0,13,13,13H815.3c0,0,13,0,13,-13V578.2c0,0,0,-13,-13,-13Z" class="g5_152"/>
<path d="M363.8,627.1H474.5" class="g6_152"/>
<path clip-path="url(#c1_152)" d="M200.1,563.3c0,0,-5.4,0,-5.4,5.4V639c0,0,0,5.5,5.4,5.5H725.2c0,0,5.4,0,5.4,-5.5V568.7c0,0,0,-5.4,-5.4,-5.4H200.1Z" class="g7_152"/>
<image clip-path="url(#c2_152)" preserveAspectRatio="none" x="262" y="571" width="68" height="68" xlink:href="img/1.jpg"/>
<path d="M165.2,576c0,0,-4.3,0,-4.3,4.3v17.3c0,0,0,4.4,4.3,4.4h36c0,0,4.3,0,4.3,-4.4V580.3c0,0,0,-4.3,-4.3,-4.3Z" class="g8_152"/>
<path d="M323.6,719.3H559.9M323.6,787.7H559.9M323.6,856.1H559.9M323.6,924.5H559.9" class="g6_152"/>
<image clip-path="url(#c3_152)" preserveAspectRatio="none" x="211" y="667" width="57" height="57" xlink:href="img/2.jpg"/>
<image clip-path="url(#c4_152)" preserveAspectRatio="none" x="211" y="735" width="57" height="58" xlink:href="img/3.jpg"/>
<image clip-path="url(#c5_152)" preserveAspectRatio="none" x="211" y="801" width="64" height="61" xlink:href="img/4.jpg"/>
<image clip-path="url(#c6_152)" preserveAspectRatio="none" x="211" y="867" width="60" height="63" xlink:href="img/5.jpg"/>
<path d="M179.8,552.3H838.5V522.1H179.8v30.2Z" class="g1_152"/>
<path d="M331.2,968.5c0,0,-4.3,0,-4.3,4.4v10.8c0,0,0,4.3,4.3,4.3h30.3c0,0,4.3,0,4.3,-4.3V972.9c0,0,0,-4.4,-4.3,-4.4Z" class="g9_152"/>
<path d="M318,961v36.8m1.3,1H845.1m1,-1.4V960.6m-1.4,-.9H319" class="ga_152"/>
<path d="M318,998.2v.6h.6m526.9,0h.6v-.6m0,-37.9v-.6h-.6m-526.9,0H318v.6" class="gb_152"/>
<path d="M209.2,410.4c0,0,-13,0,-13,12.9V445c0,0,0,13,13,13H830.8c0,0,13,0,13,-13V423.3c0,0,0,-12.9,-13,-12.9Z" class="gc_152"/>
<image clip-path="url(#c7_152)" preserveAspectRatio="none" x="152" y="381" width="75" height="76" xlink:href="img/6.png"/>
<path d="M204,450.6c0,0,-26.8,11.3,-51.1,-12.7c0,0,15.2,25.3,49.3,23.9c0,0,24.8,.4,20.3,-10.1c0,0,1.2,-4.4,-18.5,-1.1Z" class="gc_152"/>
<path d="M131.7,109.5v39l11.7,10.2V136.5Z" class="gd_152"/>
<path d="M131.7,109.5v39H829.5c0,0,16.8,0,16.8,-16.8v-5.4c0,0,0,-16.8,-16.8,-16.8Z" class="g9_152"/>
<path d="M768.8,131c0,0,-.5,-10,8.6,-9.4c0,0,6.7,-.3,6.6,9.5m-15.3,-1.5v6.5c0,0,-3.3,.3,-3.9,-3c0,0,-.1,-3.8,3.9,-3.5Zm15.4,0v6.5c0,0,3.3,.3,3.9,-3c0,0,.1,-3.8,-3.9,-3.5Z" class="ge_152"/>
<path d="M147.4,140.8h61v-32h-61v32Z" class="gf_152"/>
<path d="M147.4,143.1h61v-2.3h-61v2.3Z" class="gf_152"/>
<path d="M171.8,106.2H152.1v31.5h25.8V112.3c0,-3.4,-2.7,-6.1,-6.1,-6.1Z" class="g1_152"/>
<path d="M171.8,106.2v-.5H152.1c-.1,0,-.3,.1,-.4,.2c-.1,.1,-.1,.2,-.1,.3v31.5c0,.1,0,.3,.1,.4c.1,.1,.3,.1,.4,.1h25.8c.1,0,.2,0,.3,-.1c.1,-.1,.2,-.3,.2,-.4V112.3c0,-3.7,-2.9,-6.6,-6.6,-6.6v1c1.6,0,2.9,.7,3.9,1.7c1,1,1.6,2.3,1.6,3.9v24.9H152.6V106.7h19.2Z" class="gg_152"/>
<path d="M152.1,131.7v6h25.8c0,-3.3,-2.7,-6,-6.1,-6Z" class="g1_152"/>
<path d="M152.1,131.7h-.5v6c0,.1,0,.3,.1,.4c.1,.1,.3,.1,.4,.1h25.8c.1,0,.2,0,.3,-.1c.1,-.1,.2,-.3,.2,-.4c0,-3.6,-3,-6.6,-6.6,-6.6H152.1c-.1,0,-.3,.1,-.4,.2c-.1,.1,-.1,.2,-.1,.4h.5v.5h19.7c1.6,0,2.9,.6,3.9,1.6c1,1,1.6,2.4,1.6,3.9h.6v-.5H152.6v-5.5h-.5v.5Z" class="gg_152"/>
<path d="M155.6,110.9h17.2m-17.2,2.8h17.2m-17.2,2.9h17.2m-17.2,2.9h17.2m-17.2,2.8h17.2m-17.2,2.9h17.2M155.6,128h17.2" class="gh_152"/>
<path d="M171.8,132.2H152.6v5h24.7c-.1,-1.3,-.7,-2.5,-1.6,-3.4c-1,-1,-2.3,-1.6,-3.9,-1.6Z" class="gi_152"/>
<path d="M152.6,132.2h19.2c1.6,0,2.9,.6,3.9,1.6c.9,.9,1.5,2.1,1.6,3.4H152.6Zm19.2,-.5H152.1v6h25.2v-2.5c-.9,-2.1,-3,-3.5,-5.5,-3.5Z" class="gj_152"/>
<path d="M183.9,106.2h19.7v31.5H177.9V112.3c0,-3.4,2.7,-6.1,6,-6.1Z" class="g1_152"/>
<path d="M183.9,106.2v.5h19.2v30.5H178.4V112.3c0,-1.6,.6,-2.9,1.6,-3.9c1,-1,2.4,-1.7,3.9,-1.7v-1c-3.6,0,-6.6,2.9,-6.6,6.6v25.4c0,.1,.1,.3,.2,.4c.1,.1,.2,.1,.4,.1h25.7c.2,0,.3,0,.4,-.1c.1,-.1,.1,-.3,.1,-.4V106.2c0,-.1,0,-.2,-.1,-.3c-.1,-.1,-.2,-.2,-.4,-.2H183.9Z" class="gg_152"/>
<path d="M203.6,131.7v6H177.9c0,-3.3,2.7,-6,6,-6Z" class="g1_152"/>
<path d="M203.6,131.7h-.5v5.5H177.9v.5h.5c0,-1.5,.6,-2.9,1.6,-3.9c1,-1,2.4,-1.6,3.9,-1.6h19.7v-.5h-.5h.5v-.6H183.9c-3.6,0,-6.6,3,-6.6,6.6c0,.1,.1,.3,.2,.4c.1,.1,.2,.1,.4,.1h25.7c.2,0,.3,0,.4,-.1c.1,-.1,.1,-.3,.1,-.4v-6c0,-.2,0,-.3,-.1,-.4c-.1,-.1,-.2,-.2,-.4,-.2Z" class="gg_152"/>
<path d="M200.1,110.9H182.9m17.2,2.8H182.9m17.2,2.9H182.9m17.2,2.9H182.9m17.2,2.8H182.9m17.2,2.9H182.9m17.2,2.8H182.9" class="gh_152"/>
<path clip-path="url(#c8_152)" d="M178.4,137.2h24.7v-5H178.4v5Z" class="gi_152"/>
<path clip-path="url(#c9_152)" d="M178.4,137.2c.1,-1.3,.7,-2.5,1.6,-3.4c1,-1,2.4,-1.6,3.9,-1.6h19.2v5Zm25.2,-5.5H183.9c-3.3,0,-6,2.7,-6,6h25.7v-6h-.5h.5Z" class="gj_152"/>
<path d="M177.9,108.8v34.3" class="gh_152"/>
<path d="M195.5,145.5h3.3V134.7h-3.3v10.8Z" class="gk_152"/>
<path d="M132.5,1245.6h713V1122.7h-713v122.9Z" class="gl_152"/>
<path d="M132.5,1127.3v116m4.5,2.3H843.2m2.3,-4.5V1125m-4.6,-2.3H134.7" class="gm_152"/>
<path d="M132.5,1245.6v0m713,0v0m0,-122.9v0m-713,0v0" class="gn_152"/>
<path d="M131.7,1126v-28.7c0,0,0,-8.6,8.6,-8.6H837.6c0,0,8.7,0,8.7,8.6v29.2Z" class="go_152"/>
<path d="M173.8,1092.7c3.4,0,6.1,-2.7,6.1,-6.1c0,-3.3,-2.7,-6,-6.1,-6c-3.3,0,-6,2.7,-6,6c0,3.4,2.7,6.1,6,6.1Z" class="gp_152"/>
<path d="M173.8,1094.7c4.5,0,8.1,-3.6,8.1,-8.1c0,-4.4,-3.6,-8,-8.1,-8c-4.4,0,-8,3.6,-8,8c0,4.5,3.6,8.1,8,8.1m0,-14.2c3.4,0,6.1,2.8,6.1,6.1c0,3.4,-2.7,6.1,-6.1,6.1c-3.3,0,-6,-2.7,-6,-6.1c0,-3.3,2.7,-6.1,6,-6.1Z" class="gq_152"/>
<path d="M159.2,1108.8h29.3V1105c0,-4.4,-3.6,-8,-8,-8H167.2c-4.4,0,-8,3.6,-8,8Z" class="gp_152"/>
<path d="M150.9,1114.1h45.9v-3.4H150.9v3.4Z" class="g1_152"/>
<path d="M197.7,1108.8h-2.6v-11.6c0,-.2,-.1,-.5,-.3,-.7l-2.6,-2.5c.3,-.6,.5,-1.2,.5,-1.8c0,-2,-1.6,-3.6,-3.6,-3.6c-2,0,-3.7,1.6,-3.7,3.6c0,2,1.7,3.6,3.7,3.6c.6,0,1.2,-.2,1.7,-.5l2.4,2.3v11.2h-2.8V1105c0,-5.5,-4.4,-9.9,-9.9,-9.9H167.2c-5.5,0,-9.9,4.4,-9.9,9.9v3.8H150c-.6,0,-1,.4,-1,.9v5.4c0,.5,.4,.9,1,.9h2.6v11.3c0,.5,.5,1,1,1h40.5c.5,0,1,-.5,1,-1V1116h2.6c.6,0,1,-.4,1,-.9v-5.4c0,-.5,-.4,-.9,-1,-.9m-8.6,-14.9c-1,0,-1.7,-.8,-1.7,-1.7c0,-.9,.7,-1.7,1.7,-1.7c.9,0,1.6,.8,1.6,1.7c0,.9,-.7,1.7,-1.6,1.7m7.7,20.2H150.9v-3.4h45.9Zm-3.7,12.2H154.6V1116h38.5v10.3ZM167.2,1097h13.3c4.4,0,8,3.6,8,8v3.8H159.2V1105c0,-4.4,3.6,-8,8,-8Z" class="gq_152"/>
<path d="M154.6,1126.3h38.5V1116H154.6v10.3Zm2.8,-7.5c0,-.2,.2,-.5,.4,-.5h32.1c.2,0,.4,.3,.4,.5v4.7c0,.3,-.2,.5,-.4,.5H157.8c-.2,0,-.4,-.2,-.4,-.5Z" class="g1_152"/>
<path d="M158.3,1123.1h31.1v-3.8H158.3v3.8Z" class="gr_152"/>
<path d="M157.8,1124h32.1c.2,0,.4,-.2,.4,-.5v-4.7c0,-.2,-.2,-.5,-.4,-.5H157.8c-.2,0,-.4,.3,-.4,.5v4.7c0,.3,.2,.5,.4,.5m.5,-4.7h31.1v3.8H158.3Z" class="gq_152"/>
<path d="M190.7,1092.2c0,-.9,-.7,-1.7,-1.6,-1.7c-1,0,-1.7,.8,-1.7,1.7c0,.9,.7,1.7,1.7,1.7c.9,0,1.6,-.8,1.6,-1.7Z" class="g1_152"/>
<path d="M32.1,45.1H9.2m958.3,0h22.9M32.1,1331.3H9.2m958.3,0h22.9M45.1,32.1V9.2m0,1335.1v22.9M954.5,32.1V9.2m0,1335.1v22.9" class="gs_152"/>
<path d="M32.1,45.1H9.2m958.3,0h22.9M32.1,1331.3H9.2m958.3,0h22.9M45.1,32.1V9.2m0,1335.1v22.9M954.5,32.1V9.2m0,1335.1v22.9" class="gt_152"/>
<path d="M27.5,32.1H0m972.1,0h27.5M27.5,1344.3H0m972.1,0h27.5M32.1,27.5V0m0,1348.9v27.5M967.5,27.5V0m0,1348.9v27.5" class="gs_152"/>
<path d="M27.5,32.1H0m972.1,0h27.5M27.5,1344.3H0m972.1,0h27.5M32.1,27.5V0m0,1348.9v27.5M967.5,27.5V0m0,1348.9v27.5" class="gt_152"/>
</svg>