<?xml version="1.0" encoding="UTF-8" standalone="no"?>
<!DOCTYPE svg PUBLIC "-//W3C//DTD SVG 1.1//EN"
"http://www.w3.org/Graphics/SVG/1.1/DTD/svg11.dtd">
<svg viewBox="0 0 999 1376" version="1.1" xmlns="http://www.w3.org/2000/svg" xmlns:xlink="http://www.w3.org/1999/xlink">
<defs>
<clipPath id="c0_221"><path d="M32.1,1344.3V32.1H967.5V1344.3Z"/></clipPath>
<clipPath id="c1_221"><path d="M215,737.3V610.8H831.1V737.3Z"/></clipPath>
<clipPath id="c2_221"><path d="M215,880.2V775.7H831.1V880.2Z"/></clipPath>
<clipPath id="c3_221"><path d="M215,1045.4V918.9H831.1v126.5Z"/></clipPath>
<clipPath id="c4_221"><path d="M223.9,428.3c-7.8,0,-7.8,-7.8,-7.8,-7.8V358.2c0,-7.8,7.8,-7.8,7.8,-7.8h86.8c7.8,0,7.8,7.8,7.8,7.8v62.3c0,7.8,-7.8,7.8,-7.8,7.8Z"/></clipPath>
<clipPath id="c5_221"><path d="M223.9,521.5v-78h86.8c7.8,0,7.8,7.8,7.8,7.8v62.4c0,7.8,-7.8,7.8,-7.8,7.8Z"/></clipPath>
<clipPath id="c6_221"><path d="M223.9,521.5c-7.8,0,-7.8,-7.8,-7.8,-7.8V451.3c0,-7.8,7.8,-7.8,7.8,-7.8h86.8c7.8,0,7.8,7.8,7.8,7.8v62.4c0,7.8,-7.8,7.8,-7.8,7.8Z"/></clipPath>
<clipPath id="c7_221"><path d="M682.7,178.5V64.7H865.1V178.5Z"/></clipPath>
<style type="text/css"><![CDATA[
.g0_221{
fill: #FEFCF4;
}
.g1_221{
fill: #F16865;
}
.g2_221{
fill: #FEF8F8;
}
.g3_221{
fill: none;
stroke: #A164A9;
stroke-width: 1.527;
stroke-linecap: round;
stroke-linejoin: round;
stroke-dasharray: 0,5;
}
.g4_221{
fill: none;
stroke: #A164A9;
stroke-width: 1.527;
stroke-linecap: round;
stroke-linejoin: round;
}
.g5_221{
fill: #A164A9;
}
.g6_221{
fill: #FFF;
}
.g7_221{
fill: none;
stroke: #231F20;
stroke-width: 0.305;
stroke-miterlimit: 10;
}
.g8_221{
fill: none;
stroke: #949698;
stroke-width: 1.141;
}
.g9_221{
fill: #6381B7;
}
.ga_221{
fill: none;
stroke: #6381B7;
stroke-width: 0.381;
stroke-dasharray: 2,1;
}
.gb_221{
fill: none;
stroke: #6381B7;
stroke-width: 0.381;
}
.gc_221{
fill: none;
stroke: #FFF;
stroke-width: 1.909;
stroke-miterlimit: 10;
}
.gd_221{
fill: none;
stroke: #000;
stroke-width: 0.381;
stroke-miterlimit: 10;
}
]]></style>
</defs>
<path clip-path="url(#c0_221)" d="M-877.3,1344.3H45.1V32.1H-877.3V1344.3Z" class="g0_221"/>
<path d="M45.1,1344.3H967.5V32.1H45.1V1344.3Z" class="g0_221"/>
<path clip-path="url(#c0_221)" d="M867.9,166.7c0,0,30.3,0,30.3,-30.3v-4.3c0,0,0,-30.3,-30.3,-30.3H-735.4c0,0,-30.4,0,-30.4,30.3v4.3c0,0,0,30.3,30.4,30.3Z" class="g1_221"/>
<path d="M154.1,1094.9h713V251h-713v843.9Z" class="g2_221"/>
<path d="M154.1,255.6v837m4.6,2.3H864.9m2.2,-4.5V253.3M862.6,251H156.4" class="g3_221"/>
<path d="M154.1,1094.9v0m713.1,0v0m0,-843.9v0m-713.1,0v0" class="g4_221"/>
<path d="M153.3,265.3V227c0,0,0,-8.7,8.7,-8.7H859.3c0,0,8.6,0,8.6,8.7v38.9Z" class="g5_221"/>
<image clip-path="url(#c1_221)" preserveAspectRatio="none" x="215" y="611" width="615" height="127" xlink:href="img/1.png"/>
<path d="M218.3,731H824.6V614H218.3V731Z" class="g6_221"/>
<path d="M265.5,643.8h68.9" class="g7_221"/>
<image clip-path="url(#c2_221)" preserveAspectRatio="none" x="215" y="776" width="615" height="105" xlink:href="img/2.png"/>
<path d="M218.3,874.2H824.6V778.9H218.3v95.3Z" class="g6_221"/>
<path d="M231.3,831.6h70.9" class="g7_221"/>
<image clip-path="url(#c3_221)" preserveAspectRatio="none" x="215" y="920" width="615" height="126" xlink:href="img/3.png"/>
<path d="M218.3,1039H824.6V922.1H218.3V1039Z" class="g6_221"/>
<path d="M231.3,974.8h80.4" class="g7_221"/>
<path d="M223.9,350.4c0,0,-7.8,0,-7.8,7.8v62.3c0,0,0,7.8,7.8,7.8h86.8c0,0,7.8,0,7.8,-7.8V358.2c0,0,0,-7.8,-7.8,-7.8Z" class="g6_221"/>
<image clip-path="url(#c4_221)" preserveAspectRatio="none" x="215" y="349" width="105" height="81" xlink:href="img/4.jpg"/>
<path d="M223.9,443.5c0,0,-7.8,0,-7.8,7.8v62.4c0,0,0,7.8,7.8,7.8h86.8c0,0,7.8,0,7.8,-7.8V451.3c0,0,0,-7.8,-7.8,-7.8Z" class="g6_221"/>
<image clip-path="url(#c5_221)" preserveAspectRatio="none" x="224" y="412" width="120" height="115" xlink:href="img/5.jpg"/>
<path clip-path="url(#c6_221)" d="M201.8,525.6H346.3v-112H201.8v112Z" class="g8_221"/>
<path d="M630.3,1113.9c0,0,-4.3,0,-4.3,4.3V1129c0,0,0,4.4,4.3,4.4h30.3c0,0,4.3,0,4.3,-4.4v-10.8c0,0,0,-4.3,-4.3,-4.3Z" class="g9_221"/>
<path d="M617.1,1105v37.6m1.4,.9H867m.9,-1.3v-37.6m-1.3,-.9H618.1" class="ga_221"/>
<path d="M617.1,1143v.5h.6m249.6,0h.6v-.5m0,-38.7v-.6h-.6m-249.6,0h-.6v.6" class="gb_221"/>
<image clip-path="url(#c7_221)" preserveAspectRatio="none" x="683" y="65" width="182" height="113" xlink:href="img/6.png"/>
<path d="M32.1,45.1H9.2m958.3,0h22.9M32.1,1331.3H9.2m958.3,0h22.9M45.1,32.1V9.2m0,1335.1v22.9M954.5,32.1V9.2m0,1335.1v22.9" class="gc_221"/>
<path d="M32.1,45.1H9.2m958.3,0h22.9M32.1,1331.3H9.2m958.3,0h22.9M45.1,32.1V9.2m0,1335.1v22.9M954.5,32.1V9.2m0,1335.1v22.9" class="gd_221"/>
<path d="M27.5,32.1H0m972.1,0h27.5M27.5,1344.3H0m972.1,0h27.5M32.1,27.5V0m0,1348.9v27.5M967.5,27.5V0m0,1348.9v27.5" class="gc_221"/>
<path d="M27.5,32.1H0m972.1,0h27.5M27.5,1344.3H0m972.1,0h27.5M32.1,27.5V0m0,1348.9v27.5M967.5,27.5V0m0,1348.9v27.5" class="gd_221"/>
</svg>