<?xml version="1.0" encoding="UTF-8" standalone="no"?>
<!DOCTYPE svg PUBLIC "-//W3C//DTD SVG 1.1//EN"
"http://www.w3.org/Graphics/SVG/1.1/DTD/svg11.dtd">
<svg viewBox="0 0 999 1376" version="1.1" xmlns="http://www.w3.org/2000/svg" xmlns:xlink="http://www.w3.org/1999/xlink">
<defs>
<clipPath id="c0_248"><path d="M32.1,1344.3V32.1H967.5V1344.3Z"/></clipPath>
<clipPath id="c1_248"><path d="M179.3,822l-6.5,-2.2L156.4,805.9V748.8h72V822Z"/></clipPath>
<clipPath id="c2_248"><path d="M178.4,137.2c.1,-1.3,.7,-2.5,1.6,-3.4c1,-1,2.4,-1.6,3.9,-1.6h19.2v5Z"/></clipPath>
<clipPath id="c3_248"><path d="M177.9,137.7v-6h25.7v6Z"/></clipPath>
<style type="text/css"><![CDATA[
.g0_248{
fill: #FEFCF4;
}
.g1_248{
fill: #DCE9F3;
}
.g2_248{
fill: #9BD1EA;
}
.g3_248{
fill: #FFF;
}
.g4_248{
fill: none;
stroke: #58595B;
stroke-width: 0.381;
stroke-miterlimit: 10;
}
.g5_248{
fill: #FCE8B0;
}
.g6_248{
fill: none;
stroke: #6381B7;
stroke-width: 0.763;
}
.g7_248{
fill: none;
stroke: #231F20;
stroke-width: 0.305;
stroke-miterlimit: 10;
}
.g8_248{
fill: #48484A;
}
.g9_248{
fill: #F0E8F3;
}
.ga_248{
fill: #766FA6;
}
.gb_248{
fill: #6381B7;
}
.gc_248{
fill: none;
stroke: #6381B7;
stroke-width: 0.381;
stroke-dasharray: 2,1;
}
.gd_248{
fill: none;
stroke: #6381B7;
stroke-width: 0.381;
}
.ge_248{
fill: #25408F;
}
.gf_248{
fill: none;
stroke: #231F20;
stroke-width: 1.527;
}
.gg_248{
fill: #39B4D1;
stroke: #2D2A4A;
stroke-width: 1.038;
stroke-linecap: round;
stroke-linejoin: round;
}
.gh_248{
fill: #2D2A4A;
}
.gi_248{
fill: none;
stroke: #2D2A4A;
stroke-width: 1.038;
stroke-linecap: round;
stroke-linejoin: round;
}
.gj_248{
fill: #DEDAD3;
}
.gk_248{
fill: #29263F;
}
.gl_248{
fill: #E15F46;
stroke: #2D2A4A;
stroke-width: 1.038;
stroke-linecap: round;
stroke-linejoin: round;
}
.gm_248{
fill: none;
stroke: #FFF;
stroke-width: 1.909;
stroke-miterlimit: 10;
}
.gn_248{
fill: none;
stroke: #000;
stroke-width: 0.381;
stroke-miterlimit: 10;
}
]]></style>
</defs>
<path clip-path="url(#c0_248)" d="M954.5,1344.3H1877V32.1H954.5V1344.3Z" class="g0_248"/>
<path d="M149,166.3c0,0,-17.3,0,-17.3,17.4V562.6c0,0,0,17.3,17.3,17.3H828.9c0,0,17.4,0,17.4,-17.3V183.7c0,0,0,-17.4,-17.4,-17.4Z" class="g1_248"/>
<path d="M177.5,236.7h141v28.1h-141V236.7Zm141,0H666.7v28.1H318.5V236.7Zm348.2,0H807.3v28.1H666.7V236.7ZM177.5,264.8h141V293h-141V264.8Zm141,0H487.4V293H318.5V264.8Zm168.9,0H666.7V293H487.4V264.8Zm179.3,0H807.3V293H666.7V264.8Z" class="g2_248"/>
<path d="M177.5,293h141v48.2h-141V293Zm141,0H487.4v48.2H318.5V293Zm168.9,0H666.7v48.2H487.4V293Zm179.3,0H807.3v48.2H666.7V293Z" class="g3_248"/>
<path d="M177.5,236.7h141m0,0H487.4M318.5,264.6V236.9m168.9,-.2H666.7m0,0H807.3M666.7,264.6V236.9M177.5,264.8h141m0,0H487.4m-168.9,28V265m168.9,-.2H666.7m-179.3,28V265m179.3,-.2H807.3m-140.6,28V265M177.5,293h141m0,0H487.4M318.5,341V293.2M487.4,293H666.7M487.4,341V293.2M666.7,293H807.3M666.7,341V293.2m-489.2,48h141m0,0H487.4m0,0H666.7m0,0H807.3" class="g4_248"/>
<path d="M211.9,751c0,0,-13,0,-13,13v47.6c0,0,0,13,13,13H833.5c0,0,13,0,13,-13V764c0,0,0,-13,-13,-13Z" class="g5_248"/>
<image clip-path="url(#c1_248)" preserveAspectRatio="none" x="155" y="747" width="75" height="77" xlink:href="img/1.png"/>
<path d="M206.7,817.2c0,0,-26.9,11.3,-51.1,-12.7c0,0,15.2,25.3,49.3,23.9c0,0,24.7,.4,20.2,-10.1c0,0,1.3,-4.4,-18.4,-1.1Z" class="g5_248"/>
<path d="M145.1,840.1c0,0,-13,0,-13,13v332.7c0,0,0,13,13,13H832.9c0,0,13,0,13,-13V853.1c0,0,0,-13,-13,-13Z" class="g3_248"/>
<path d="M145.1,840.1c0,0,-13,0,-13,13v332.7c0,0,0,13,13,13H832.9c0,0,13,0,13,-13V853.1c0,0,0,-13,-13,-13H145.1Z" class="g6_248"/>
<path d="M180.3,921.2H802.9V884.4H180.3v36.8Z" class="g3_248"/>
<path d="M305.7,997.7H426m-98.6,42.7H447.7M279.8,1180.5H400.2" class="g7_248"/>
<path d="M698.1,974c0,0,-4.3,0,-4.3,4.3v14.8c0,0,0,4.3,4.1,5.8l52.5,18.5c0,0,4,1.4,4,-2.9V978.3c0,0,0,-4.3,-4.3,-4.3Z" class="g8_248"/>
<path d="M719.3,961c0,0,-13,0,-13,13v120.4c0,0,0,13,13,13h83.6c0,0,13,0,13,-13V974c0,0,0,-13,-13,-13Z" class="g9_248"/>
<path d="M698.1,971.8c0,0,-4.3,0,-4.3,4.4v17.3c0,0,0,4.3,4.3,4.3h37.3c0,0,4.4,0,4.4,-4.3V976.2c0,0,0,-4.4,-4.4,-4.4Z" class="ga_248"/>
<path d="M614.6,1214.8c0,0,-4.3,0,-4.3,4.4V1230c0,0,0,4.3,4.3,4.3h30.3c0,0,4.3,0,4.3,-4.3v-10.8c0,0,0,-4.4,-4.3,-4.4Z" class="gb_248"/>
<path d="M601.4,1206v37.5m1.3,1H845.1m1,-1.3v-37.6m-1.4,-1H602.4" class="gc_248"/>
<path d="M601.4,1243.9v.6h.6m243.5,0h.6v-.6m0,-38.7v-.6h-.6m-243.5,0h-.6v.6" class="gd_248"/>
<path d="M131.7,109.5v39l11.7,10.2V136.5Z" class="ge_248"/>
<path d="M131.7,109.5v39H829.5c0,0,16.8,0,16.8,-16.8v-5.4c0,0,0,-16.8,-16.8,-16.8Z" class="gb_248"/>
<path d="M768.8,131c0,0,-.5,-10,8.6,-9.4c0,0,6.7,-.3,6.6,9.5m-15.3,-1.5v6.5c0,0,-3.3,.3,-3.9,-3c0,0,-.1,-3.8,3.9,-3.5Zm15.4,0v6.5c0,0,3.3,.3,3.9,-3c0,0,.1,-3.8,-3.9,-3.5Z" class="gf_248"/>
<path d="M147.4,140.8h61v-32h-61v32Z" class="gg_248"/>
<path d="M147.4,143.1h61v-2.3h-61v2.3Z" class="gg_248"/>
<path d="M171.8,106.2H152.1v31.5h25.8V112.3c0,-3.4,-2.7,-6.1,-6.1,-6.1Z" class="g3_248"/>
<path d="M171.8,106.2v-.5H152.1c-.1,0,-.3,.1,-.4,.2c-.1,.1,-.1,.2,-.1,.3v31.5c0,.1,0,.3,.1,.4c.1,.1,.3,.1,.4,.1h25.8c.1,0,.2,0,.3,-.1c.1,-.1,.2,-.3,.2,-.4V112.3c0,-3.7,-2.9,-6.6,-6.6,-6.6v1c1.6,0,2.9,.7,3.9,1.7c1,1,1.6,2.3,1.6,3.9v24.9H152.6V106.7h19.2Z" class="gh_248"/>
<path d="M152.1,131.7v6h25.8c0,-3.3,-2.7,-6,-6.1,-6Z" class="g3_248"/>
<path d="M152.1,131.7h-.5v6c0,.1,0,.3,.1,.4c.1,.1,.3,.1,.4,.1h25.8c.1,0,.2,0,.3,-.1c.1,-.1,.2,-.3,.2,-.4c0,-3.6,-3,-6.6,-6.6,-6.6H152.1c-.1,0,-.3,.1,-.4,.2c-.1,.1,-.1,.2,-.1,.4h.5v.5h19.7c1.6,0,2.9,.6,3.9,1.6c1,1,1.6,2.4,1.6,3.9h.6v-.5H152.6v-5.5h-.5v.5Z" class="gh_248"/>
<path d="M155.6,110.9h17.2m-17.2,2.8h17.2m-17.2,2.9h17.2m-17.2,2.9h17.2m-17.2,2.8h17.2m-17.2,2.9h17.2M155.6,128h17.2" class="gi_248"/>
<path d="M171.8,132.2H152.6v5h24.7c-.1,-1.3,-.7,-2.5,-1.6,-3.4c-1,-1,-2.3,-1.6,-3.9,-1.6Z" class="gj_248"/>
<path d="M152.6,132.2h19.2c1.6,0,2.9,.6,3.9,1.6c.9,.9,1.5,2.1,1.6,3.4H152.6Zm19.2,-.5H152.1v6h25.2v-2.5c-.9,-2.1,-3,-3.5,-5.5,-3.5Z" class="gk_248"/>
<path d="M183.9,106.2h19.7v31.5H177.9V112.3c0,-3.4,2.7,-6.1,6,-6.1Z" class="g3_248"/>
<path d="M183.9,106.2v.5h19.2v30.5H178.4V112.3c0,-1.6,.6,-2.9,1.6,-3.9c1,-1,2.4,-1.7,3.9,-1.7v-1c-3.6,0,-6.6,2.9,-6.6,6.6v25.4c0,.1,.1,.3,.2,.4c.1,.1,.2,.1,.4,.1h25.7c.2,0,.3,0,.4,-.1c.1,-.1,.1,-.3,.1,-.4V106.2c0,-.1,0,-.2,-.1,-.3c-.1,-.1,-.2,-.2,-.4,-.2H183.9Z" class="gh_248"/>
<path d="M203.6,131.7v6H177.9c0,-3.3,2.7,-6,6,-6Z" class="g3_248"/>
<path d="M203.6,131.7h-.5v5.5H177.9v.5h.5c0,-1.5,.6,-2.9,1.6,-3.9c1,-1,2.4,-1.6,3.9,-1.6h19.7v-.5h-.5h.5v-.6H183.9c-3.6,0,-6.6,3,-6.6,6.6c0,.1,.1,.3,.2,.4c.1,.1,.2,.1,.4,.1h25.7c.2,0,.3,0,.4,-.1c.1,-.1,.1,-.3,.1,-.4v-6c0,-.2,0,-.3,-.1,-.4c-.1,-.1,-.2,-.2,-.4,-.2Z" class="gh_248"/>
<path d="M200.1,110.9H182.9m17.2,2.8H182.9m17.2,2.9H182.9m17.2,2.9H182.9m17.2,2.8H182.9m17.2,2.9H182.9m17.2,2.8H182.9" class="gi_248"/>
<path clip-path="url(#c2_248)" d="M178.4,137.2h24.7v-5H178.4v5Z" class="gj_248"/>
<path clip-path="url(#c3_248)" d="M178.4,137.2c.1,-1.3,.7,-2.5,1.6,-3.4c1,-1,2.4,-1.6,3.9,-1.6h19.2v5Zm25.2,-5.5H183.9c-3.3,0,-6,2.7,-6,6h25.7v-6h-.5h.5Z" class="gk_248"/>
<path d="M177.9,108.8v34.3" class="gi_248"/>
<path d="M195.5,145.5h3.3V134.7h-3.3v10.8Z" class="gl_248"/>
<path d="M32.1,45.1H9.2m958.3,0h22.9M32.1,1331.3H9.2m958.3,0h22.9M45.1,32.1V9.2m0,1335.1v22.9M954.5,32.1V9.2m0,1335.1v22.9" class="gm_248"/>
<path d="M32.1,45.1H9.2m958.3,0h22.9M32.1,1331.3H9.2m958.3,0h22.9M45.1,32.1V9.2m0,1335.1v22.9M954.5,32.1V9.2m0,1335.1v22.9" class="gn_248"/>
<path d="M27.5,32.1H0m972.1,0h27.5M27.5,1344.3H0m972.1,0h27.5M32.1,27.5V0m0,1348.9v27.5M967.5,27.5V0m0,1348.9v27.5" class="gm_248"/>
<path d="M27.5,32.1H0m972.1,0h27.5M27.5,1344.3H0m972.1,0h27.5M32.1,27.5V0m0,1348.9v27.5M967.5,27.5V0m0,1348.9v27.5" class="gn_248"/>
</svg>