<?xml version="1.0" encoding="UTF-8" standalone="no"?>
<!DOCTYPE svg PUBLIC "-//W3C//DTD SVG 1.1//EN"
"http://www.w3.org/Graphics/SVG/1.1/DTD/svg11.dtd">
<svg viewBox="0 0 999 1376" version="1.1" xmlns="http://www.w3.org/2000/svg" xmlns:xlink="http://www.w3.org/1999/xlink">
<defs>
<clipPath id="c0_114"><path d="M32.1,1344.3V32.1H967.5V1344.3Z"/></clipPath>
<clipPath id="c1_114"><path d="M176.6,528.8l-6.5,-2.1L153.7,512.8V455.7h72v73.1Z"/></clipPath>
<clipPath id="c2_114"><path d="M176.6,908.5l-6.5,-2.1l-16.4,-14v-57h72v73.1Z"/></clipPath>
<clipPath id="c3_114"><path d="M764.8,417.6V405.1h14.5v12.5Z"/></clipPath>
<clipPath id="c4_114"><path d="M58.2,781.9V567.4H274.4V781.9Z"/></clipPath>
<clipPath id="c5_114"><path d="M56.7,786V562.2H273.9V786Z"/></clipPath>
<clipPath id="c6_114"><path d="M56.4,785.7V561.9H273.6V785.7Z"/></clipPath>
<clipPath id="c7_114"><path d="M152.8,585.9c-.3,-.1,3.5,-8.2,3.5,-8.2l.8,.5c0,0,-4,7.7,-4.3,7.7Z"/></clipPath>
<clipPath id="c8_114"><path d="M160.3,578.2c0,0,-6.9,-1.1,-7.6,-5.3c-.6,-3.6,1.5,-3.8,2.1,-3.8q.1,0,.1,0l8.3,-12.7l-1.4,-3.1c0,0,-.6,-1.1,.1,-2.1c.1,0,.2,-.1,.3,-.1c2.1,0,13,5.6,13,5.6v.1c-.3,.5,-.7,1.2,-1.4,1.7c-.6,.5,-5,1.1,-5,1.1l-8.5,18.6Z"/></clipPath>
<clipPath id="c9_114"><path d="M159.9,577.8c.2,-.4,.2,-1.8,0,-2.3v-1.3c-1.5,-.6,-2.9,-1.3,-3.7,-2.5c-1,.5,-2.1,1.2,-3.1,1.8c1.6,2.2,3.8,3.6,6.8,4.3Zm0,-3.9c2.2,-4.5,4,-9.5,6.1,-14.1c-.8,-.3,-1.8,-1.3,-2.6,-1.3c-2.3,4.3,-4.6,8.6,-7,12.8c.7,1.3,2.1,2,3.5,2.6ZM152.6,586c1,-2.9,2.4,-5.5,3.5,-8.3c-2,-1.6,-3.9,-3.1,-4.4,-6.2V570c0,-2.7,2,-3.4,4.6,-3.4q.1,0,.2,0c1.9,-3.3,4.2,-6.3,6.2,-9.7c-.6,-.8,-1.2,-2.3,-.9,-3.6c.5,1.2,1.6,1.9,2.4,2.9c-.2,.6,-.3,1.1,-.4,1.8c.6,.6,1.3,1.1,2.4,1.3c.4,-.4,.5,-1.2,1.1,-1.5c.9,.4,1.8,.8,3.1,.8c.2,.1,.5,.1,.9,.1c.3,0,.6,0,.8,-.1c.1,0,.2,0,.3,0c.2,0,.4,0,.6,-.1c.2,-.1,.4,-.1,.5,-.1c.1,0,.2,0,.3,.1c-1.3,.6,-2.2,1.7,-4.1,1.7c-.1,0,-.3,0,-.4,0c-.9,3.8,-1.8,7.4,-2.6,11.2c.5,1.1,1.5,1.7,1.2,3.1c-.4,2.8,-3.8,4.4,-7.2,4.4c-1.2,0,-2.5,-.2,-3.6,-.7c-1,2.1,-2,4.1,-3.2,6c-.1,-.3,.2,-.4,.2,-.7c1,-1.8,1.9,-3.6,2.6,-5.7c-1,1.7,-1.8,3.7,-2.7,5.5c-.2,.5,-.4,.9,-.6,1.3c-.3,.4,-.3,1.1,-.8,1.4Z"/></clipPath>
<clipPath id="ca_114"><path d="M170.3,558.2c-4.8,0,-13.1,-7.3,-5.5,-8.8H166c.2,.1,.5,.1,.7,.1c.1,0,.2,0,.3,0c.2,0,.5,0,.8,0c3.1,.7,8.2,3.8,7.5,7.1c-.2,1.1,-1.5,1.6,-3.1,1.6h-1.9Z"/></clipPath>
<clipPath id="cb_114"><path d="M677.9,783.6V563.1H918.3V783.6Z"/></clipPath>
<clipPath id="cc_114"><path d="M674.9,783.3V561.1H921.3V783.3Z"/></clipPath>
<clipPath id="cd_114"><path d="M674.6,783V560.8H921V783Z"/></clipPath>
<clipPath id="ce_114"><path d="M817.4,592.5c-.3,0,3.6,-8.2,3.6,-8.2l.7,.5c0,0,-4,7.7,-4.3,7.7Z"/></clipPath>
<clipPath id="cf_114"><path d="M824.9,584.8c0,0,-6.9,-1.1,-7.6,-5.2c-.6,-3.6,1.6,-3.8,2.1,-3.8q.1,0,.1,0L827.8,563l-1.4,-3c0,0,-.6,-1.2,.1,-2.1c.1,-.1,.2,-.1,.3,-.1c2.1,0,13,5.5,13,5.5v.2c-.3,.5,-.7,1.1,-1.4,1.6c-.6,.5,-5,1.2,-5,1.2l-8.5,18.5Z"/></clipPath>
<clipPath id="cg_114"><path d="M824.5,584.5c.2,-.5,.2,-1.8,0,-2.3v-1.4c-1.5,-.5,-2.9,-1.2,-3.6,-2.5c-1.1,.6,-2.2,1.2,-3.2,1.9c1.6,2.1,3.8,3.5,6.8,4.3Zm0,-3.9c2.2,-4.6,4,-9.5,6.2,-14.1c-.9,-.4,-1.9,-1.3,-2.7,-1.4c-2.3,4.3,-4.6,8.6,-7,12.8c.7,1.4,2.1,2,3.5,2.7Zm-7.3,12c1,-2.9,2.4,-5.4,3.5,-8.3c-2,-1.5,-3.9,-3.1,-4.4,-6.1v-1.5c0,-2.7,1.9,-3.4,4.6,-3.4q.1,0,.2,0c1.9,-3.4,4.2,-6.4,6.2,-9.7c-.6,-.9,-1.2,-2.4,-.9,-3.6c.5,1.2,1.6,1.8,2.4,2.8c-.1,.6,-.3,1.2,-.4,1.8c.6,.7,1.3,1.2,2.4,1.4c.4,-.4,.5,-1.3,1.1,-1.5c1,.3,1.9,.7,3.2,.7c.1,.1,.4,.2,.8,.2c.3,0,.7,-.1,.8,-.2c.1,.1,.2,.1,.3,.1c.2,0,.4,-.1,.6,-.2c.2,0,.4,-.1,.5,-.1c.1,0,.2,0,.3,.1c-1.3,.7,-2.2,1.8,-4.1,1.8c-.1,0,-.3,0,-.4,0c-.8,3.7,-1.8,7.3,-2.6,11.2c.5,1,1.5,1.6,1.2,3.1c-.4,2.7,-3.8,4.4,-7.2,4.4c-1.2,0,-2.5,-.3,-3.6,-.8c-1,2.1,-2,4.2,-3.2,6.1c-.1,-.4,.3,-.4,.2,-.8c1,-1.8,2,-3.6,2.7,-5.6c-1.1,1.7,-1.9,3.7,-2.8,5.5c-.2,.4,-.4,.8,-.6,1.2c-.3,.5,-.3,1.2,-.8,1.4Z"/></clipPath>
<clipPath id="ch_114"><path d="M834.9,564.9c-4.8,0,-13,-7.4,-5.5,-8.8h1.3c.1,0,.3,0,.5,0c0,0,.1,0,.1,0c.4,0,.7,0,1.1,.1c3.1,.6,8.2,3.8,7.5,7c-.2,1.2,-1.5,1.6,-3.1,1.7h-1.7q-.1,0,-.2,0Z"/></clipPath>
<clipPath id="ci_114"><path d="M125.6,384.3v-181H858.8v181Z"/></clipPath>
<style type="text/css"><![CDATA[
.g0_114{
fill: #FEFCF4;
}
.g1_114{
fill: #FFF;
}
.g2_114{
fill: none;
stroke: #6381B7;
stroke-width: 0.763;
}
.g3_114{
fill: #6381B7;
}
.g4_114{
fill: none;
stroke: #6381B7;
stroke-width: 0.381;
stroke-dasharray: 2,1;
}
.g5_114{
fill: none;
stroke: #6381B7;
stroke-width: 0.381;
}
.g6_114{
fill: #FCE8B0;
}
.g7_114{
fill: #2E6E51;
}
.g8_114{
fill: none;
stroke: #FFF;
stroke-width: 0.152;
stroke-miterlimit: 1;
}
.g9_114{
fill: #BCBEC0;
}
.ga_114{
fill: #EE314A;
}
.gb_114{
fill: #25408F;
}
.gc_114{
fill: #A8AAAD;
}
.gd_114{
fill: none;
stroke: #949698;
stroke-width: 0.549;
}
.ge_114{
fill: none;
stroke: #BCBEC0;
stroke-width: 2.566;
}
.gf_114{
fill: #231F20;
}
.gg_114{
fill: #363637;
}
.gh_114{
fill: #5CC4BE;
}
.gi_114{
fill: #F0D73F;
}
.gj_114{
fill: #F7C2D9;
}
.gk_114{
fill: #FDF4F3;
}
.gl_114{
fill: #EC008C;
}
.gm_114{
fill: none;
stroke: #818385;
stroke-width: 0.305;
stroke-dasharray: 4,4;
}
.gn_114{
fill: none;
stroke: #818385;
stroke-width: 0.305;
}
.go_114{
fill: #6D6F71;
}
.gp_114{
fill: none;
stroke: #818385;
stroke-width: 0.305;
stroke-dasharray: 3,3;
}
.gq_114{
fill: none;
stroke: #949698;
stroke-width: 0.305;
stroke-dasharray: 4,4;
}
.gr_114{
fill: none;
stroke: #949698;
stroke-width: 0.305;
stroke-dasharray: 3,3;
}
.gs_114{
fill: none;
stroke: #949698;
stroke-width: 0.305;
}
.gt_114{
fill: #D2D3D5;
}
.gu_114{
fill: none;
stroke: #231F20;
stroke-width: 0.305;
stroke-miterlimit: 10;
}
.gv_114{
fill: none;
stroke: #00ABE5;
stroke-width: 2.291;
}
.gw_114{
fill: #3D3B39;
}
.gx_114{
fill: #E5E9B7;
}
.gy_114{
fill: #61C7CB;
}
.gz_114{
fill: none;
stroke: #00ABE5;
stroke-width: 1.527;
stroke-linecap: round;
stroke-linejoin: round;
stroke-dasharray: 0,5;
}
.g10_114{
fill: none;
stroke: #00ABE5;
stroke-width: 1.527;
stroke-linecap: round;
stroke-linejoin: round;
}
.g11_114{
fill: #CEEDFB;
}
.g12_114{
fill: #27639D;
}
.g13_114{
fill: none;
stroke: #C3E7F1;
stroke-width: 1.527;
}
.g14_114{
fill: none;
stroke: #FFF;
stroke-width: 1.909;
stroke-miterlimit: 10;
}
.g15_114{
fill: none;
stroke: #000;
stroke-width: 0.381;
stroke-miterlimit: 10;
}
]]></style>
</defs>
<path clip-path="url(#c0_114)" d="M954.5,1344.3H1877V32.1H954.5V1344.3Z" class="g0_114"/>
<path d="M32.1,1344.3H954.5V32.1H32.1V1344.3Z" class="g0_114"/>
<path d="M150.8,419.3c0,0,-18.3,0,-18.3,18.4v360c0,0,0,18.3,18.3,18.3H827.9c0,0,18.4,0,18.4,-18.3V419.3Z" class="g1_114"/>
<path d="M150.8,419.3c0,0,-18.3,0,-18.3,18.4v360c0,0,0,18.3,18.3,18.3H827.9c0,0,18.4,0,18.4,-18.3V419.3H150.8Z" class="g2_114"/>
<path d="M145.1,823.4c0,0,-13,0,-13,13V974.2c0,0,0,13,13,13H832.9c0,0,13,0,13,-13V836.4c0,0,0,-13,-13,-13Z" class="g1_114"/>
<path d="M145.1,823.4c0,0,-13,0,-13,13V974.2c0,0,0,13,13,13H832.9c0,0,13,0,13,-13V836.4c0,0,0,-13,-13,-13H145.1Z" class="g2_114"/>
<path d="M521.2,1001.8c0,0,-4.3,0,-4.3,4.3v10.8c0,0,0,4.4,4.3,4.4h30.3c0,0,4.3,0,4.3,-4.4v-10.8c0,0,0,-4.3,-4.3,-4.3Z" class="g3_114"/>
<path d="M508,992.9v37.6m1.3,.9H845.1m1,-1.3V992.6m-1.4,-1H509" class="g4_114"/>
<path d="M508,1030.9v.5h.6m336.9,0h.6v-.5m0,-38.7v-.6h-.6m-336.9,0H508v.6" class="g5_114"/>
<path d="M209.2,483.8c0,0,-13,0,-13,13v21.6c0,0,0,13,13,13h602c0,0,13,0,13,-13V496.8c0,0,0,-13,-13,-13Z" class="g6_114"/>
<image clip-path="url(#c1_114)" preserveAspectRatio="none" x="152" y="454" width="75" height="76" xlink:href="img/1.png"/>
<path d="M204,524.1c0,0,-26.8,11.3,-51.1,-12.8c0,0,15.2,25.3,49.3,24c0,0,24.8,.3,20.3,-10.1c0,0,1.2,-4.5,-18.5,-1.1Z" class="g6_114"/>
<path d="M209.2,864.4c0,0,-13,0,-13,13V899c0,0,0,13,13,13h602c0,0,13,0,13,-13V877.4c0,0,0,-13,-13,-13Z" class="g6_114"/>
<image clip-path="url(#c2_114)" preserveAspectRatio="none" x="152" y="834" width="75" height="76" xlink:href="img/2.png"/>
<path d="M204,903.8c0,0,-26.8,11.3,-51.1,-12.8c0,0,15.2,25.3,49.3,24c0,0,24.8,.3,20.3,-10.1c0,0,1.2,-4.5,-18.5,-1.1Z" class="g6_114"/>
<path d="M32.1,179.3H967.5V32.1H32.1V179.3Z" class="g7_114"/>
<path d="M259.7,134c-.2,0,-.3,0,-.4,0c-.7,0,-1.1,-.4,-1.1,-1.3c0,-.1,.1,-.2,.1,-.3l-.7,-.7c0,.5,0,1,0,1.5c.1,.6,.1,1.2,.1,1.9l.2,3.5c-.6,-1.6,-1.1,-2.6,-1.6,-3.2c-.7,-.8,-1.7,-1.3,-2.9,-1.3c-.5,0,-1,.1,-1.5,.2c-.5,.2,-.9,.4,-1.3,.7c-.9,.6,-1.4,1.4,-1.4,2.4c0,.4,.2,.8,.4,1.1c.3,.4,.7,.6,1,.6c.1,0,.3,0,.5,-.1c.2,-.1,.4,-.2,.7,-.4c.6,-.3,1,-.5,1.2,-.5c.5,0,.7,.2,.7,.6c0,.1,-.1,.3,-.3,.6c-.2,.2,-.5,.5,-.8,.9c-.3,.3,-.6,.6,-.8,.9c-.3,.2,-.5,.4,-.7,.6l1.4,1.5c.8,-.8,1.4,-1.6,1.8,-2.3c.5,-.7,.7,-1.2,.7,-1.7c0,-.3,-.1,-.6,-.2,-.9c-.2,-.3,-.3,-.5,-.6,-.7c-.2,-.1,-.4,-.3,-.7,-.4c-.3,-.1,-.6,-.1,-1,-.1c-.4,0,-.9,.1,-1.5,.4c.5,-1.3,1.5,-1.9,2.8,-1.9c1,0,1.8,.5,2.6,1.5c.3,.5,.5,.9,.7,1.4c.2,.5,.3,1,.3,1.5c0,.4,0,.9,0,1.6c0,1,-.1,2.6,-.1,4.8l1.4,1.6V135.2h2.2L259.7,134Zm13.7,0H259.1l1.3,1.2h14.2L273.4,134Zm-.6,5.6c-.2,-.6,-.5,-1.2,-.9,-1.7c-.5,-.5,-1,-.9,-1.5,-1.1c-.6,-.3,-1.2,-.5,-1.8,-.5c-.8,0,-1.5,.3,-2,.7c-.6,.5,-.9,1.1,-.9,1.9c0,.6,.2,1.2,.5,1.6c.4,.5,.9,.7,1.5,.7c1.3,0,1.9,-.6,1.9,-1.7c0,-.5,-.1,-1,-.5,-1.4c.4,-.1,.7,-.2,.9,-.2c.6,0,1.1,.3,1.6,.9c.3,.6,.5,1.1,.5,1.8c0,.8,-.3,1.6,-1,2.3c-.8,.6,-1.6,1,-2.5,1c-1.7,0,-3.2,-.9,-4.5,-2.8c-.2,-.3,-.6,-1,-1,-1.8c-.4,-.9,-.9,-1.9,-1.4,-3.1L261,136c1.8,6.5,4.3,9.8,7.6,9.8c1.1,0,2.2,-.5,3.1,-1.3c.5,-.4,.8,-.8,1.1,-1.4c.2,-.5,.3,-1,.3,-1.6c0,-.7,-.1,-1.3,-.3,-1.9Zm24.1,-4.4L295.7,134H280.6l1.2,1.2h7.8v1c-2.6,.8,-5,2.1,-7,3.7l1.7,2.1c1.3,.1,2.5,.7,3.6,1.8c.5,.5,.9,1,1.3,1.6c.4,.7,.8,1.3,1,2q.1,.1,.2,.2c.1,0,.2,.1,.3,.1v-10c1.2,0,2.1,.3,2.7,1c.7,.7,1,1.4,1,2.2l-.1,.3c-.1,-.2,-.3,-.3,-.5,-.4c-.2,-.2,-.4,-.2,-.6,-.2c-.4,0,-.8,.1,-1.1,.4c-.2,.2,-.4,.5,-.4,.9c0,.2,.1,.4,.2,.6c.1,.2,.2,.3,.3,.5c.2,.1,.4,.2,.5,.3c.2,.1,.4,.1,.6,.1c.3,0,.6,-.1,.8,-.2c.3,-.1,.5,-.3,.6,-.5c.2,-.2,.3,-.4,.4,-.7c.1,-.3,.2,-.5,.2,-.8c0,-1.3,-.4,-2.4,-1.2,-3.4c-.9,-1.2,-2,-1.7,-3.4,-1.7v-.9h6.2Zm-7.4,9.1c-1,-1.8,-2.5,-3.1,-4.5,-4c.8,-.5,1.6,-1,2.3,-1.4c.7,-.4,1.5,-.8,2.2,-1.1v6.5Zm12.1,-9.1L300.4,134h-1.1c-.3,-.4,-.6,-1,-.7,-1.9l-.5,-.3c0,.2,0,.5,.1,.9c0,.3,0,.7,0,1.2c.1,.5,.1,.9,.1,1.3c0,.3,0,.6,0,.9c-.2,-.8,-.5,-1.3,-.9,-1.6c-.4,-.3,-1,-.5,-1.7,-.5h-1.4l1.2,1.2c.3,0,.7,.1,1,.2c.3,.1,.6,.3,.9,.5c.2,.2,.4,.4,.5,.7c.2,.3,.3,.7,.3,1v8.9l1.1,1.2V135.2h2.3Zm12.5,0L312.9,134H299.7l1.2,1.2h9.8v3.3c-.5,-1.3,-1.2,-2,-2.2,-2c-.3,0,-.7,.2,-1,.5c-.3,.3,-.5,.6,-.5,1c-.8,-1,-1.7,-1.6,-2.7,-1.6c-.8,0,-1.5,.4,-2,1.2c-.5,.7,-.7,1.4,-.7,2.3c0,.5,.1,1,.3,1.4c.1,.4,.4,.8,.7,1.1c.3,.3,.6,.5,1.1,.7c.4,.1,.9,.2,1.4,.2c.6,-.1,1.1,-.2,1.4,-.5c.3,-.3,.5,-.7,.5,-1.2c0,-1.1,-.5,-1.7,-1.6,-1.7c-.4,0,-.7,.1,-.9,.3c-.3,.3,-.5,.6,-.5,1c0,.2,.2,.6,.4,1c-1.1,-.2,-1.7,-.8,-1.7,-1.7c0,-.3,.1,-.6,.2,-.9c.1,-.3,.3,-.5,.5,-.7c.2,-.2,.4,-.4,.7,-.5c.3,-.1,.5,-.2,.8,-.2c.7,0,1.3,.2,1.8,.6c.6,.4,.9,1,1,1.6l.5,-.2c-.1,-.3,-.1,-.5,-.1,-.7c0,-.9,.3,-1.3,1,-1.3c.4,0,.8,.2,1.1,.5c.3,.3,.5,.7,.5,1.1v6.9l1.2,1.1V135.2h2.2Zm20.4,0L333.3,134H320l1.3,1.2h9.8v3.3c-.5,-1.3,-1.3,-2,-2.3,-2c-.3,0,-.6,.2,-.9,.5c-.4,.3,-.5,.6,-.5,1c-.8,-1,-1.8,-1.6,-2.8,-1.6c-.8,0,-1.4,.4,-2,1.2c-.4,.7,-.6,1.4,-.6,2.3c0,.5,0,1,.2,1.4c.2,.4,.4,.8,.7,1.1c.3,.3,.7,.5,1.1,.7c.5,.1,.9,.2,1.4,.2c.7,-.1,1.2,-.2,1.5,-.5c.3,-.3,.5,-.7,.5,-1.2c0,-1.1,-.6,-1.7,-1.7,-1.7c-.3,0,-.6,.1,-.9,.3c-.3,.3,-.4,.6,-.4,1c0,.2,.1,.6,.4,1c-1.2,-.2,-1.7,-.8,-1.7,-1.7c0,-.3,0,-.6,.1,-.9c.2,-.3,.3,-.5,.5,-.7c.2,-.2,.5,-.4,.7,-.5c.3,-.1,.6,-.2,.9,-.2c.7,0,1.3,.2,1.8,.6c.5,.4,.8,1,1,1.6l.4,-.2c0,-.3,-.1,-.5,-.1,-.7c0,-.9,.4,-1.3,1.1,-1.3c.4,0,.8,.2,1.1,.5c.3,.3,.4,.7,.4,1.1v6.9l1.3,1.1V135.2h2.2Zm4.4,0L337.7,134h-1c-.4,-.4,-.6,-1,-.8,-1.9l-.4,-.3c0,.2,0,.5,0,.9c0,.3,.1,.7,.1,1.2c0,.5,.1,.9,.1,1.3c0,.3,0,.6,0,.9c-.3,-.8,-.6,-1.3,-1,-1.6c-.4,-.3,-.9,-.5,-1.7,-.5h-1.3l1.2,1.2c.3,0,.6,.1,1,.2c.3,.1,.6,.3,.8,.5c.3,.2,.5,.4,.6,.7c.1,.3,.2,.7,.2,1v8.9l1.2,1.2V135.2h2.2Zm10,-1.2h-1c.1,-1.1,-.3,-2,-1,-2.5c-.8,-.6,-1.9,-.9,-3.4,-.9c-.9,.1,-1.6,.1,-2.1,.2c-.5,0,-.9,0,-1,0c-.5,0,-.9,-.1,-1.2,-.3c-.4,-.3,-.6,-.6,-.6,-1c0,-.4,.1,-.8,.5,-1q-.1,0,-.2,0q-.1,0,-.2,0c-.1,-.1,-.3,.1,-.5,.5c-.2,.3,-.3,.6,-.3,.8c0,.8,.4,1.5,1.3,2c.8,.4,1.6,.7,2.5,.7c.2,0,.4,-.1,.7,-.1c.3,0,.7,0,1.1,0c.4,-.1,.7,-.1,1,-.1c.3,0,.5,0,.7,0c.2,0,.4,0,.6,0c.2,0,.4,.1,.5,.1c.5,.2,.8,.4,.8,.7c0,.3,-.2,.5,-.7,.7c-.1,.1,-.3,.1,-.5,.1c-.2,.1,-.4,.1,-.5,.1h-8.1l1.2,1.2h3.8c.5,.4,.8,.7,.8,1c-.7,0,-1.4,.3,-1.9,.8c-.6,.5,-.9,1.1,-.9,1.8c0,.4,.2,.7,.5,.9c.3,.2,.6,.3,.9,.3c.6,0,1.1,-.2,1.6,-.7c.5,-.5,.8,-1,.8,-1.6c.1,0,.2,0,.3,-.1c.1,0,.2,0,.3,0c.2,0,.5,.1,.7,.2c.2,.1,.3,.2,.5,.4c.1,.2,.2,.4,.3,.7c.1,.2,.1,.5,.1,.7c.1,.8,-.4,1.5,-1.4,2c-.7,.3,-1.5,.5,-2.4,.4c-1.3,-.1,-2.4,-.4,-3.4,-1l1.4,3c.9,.2,1.8,.5,2.7,.9c.8,.3,1.7,.7,2.5,1.2c.8,.5,1.6,1,2.3,1.5c.7,.6,1.3,1.2,1.9,1.9l-.3,-1.3c-1.1,-1.1,-2.1,-2,-3,-2.8c-.9,-.8,-1.8,-1.4,-2.6,-1.9c1.2,-.3,2.1,-.7,2.7,-1.2c.8,-.6,1.2,-1.5,1.2,-2.4c0,-1,-.4,-1.8,-1,-2.5c-.4,-.5,-1.2,-.9,-2.4,-1.3c-.2,-.2,-.3,-.3,-.4,-.5c-.1,-.1,-.2,-.2,-.3,-.4h6.3L348.9,134Zm7.5,0h-8l1.2,1.2h4c-1.7,2,-2.5,4,-2.5,6.1c0,1.5,.3,2.8,.9,3.9c.8,1.4,1.8,2.1,3.2,2.1c.3,0,.6,0,.8,-.1c.3,-.1,.5,-.2,.7,-.4c.2,-.2,.4,-.4,.5,-.7c.1,-.2,.2,-.5,.2,-.8c0,-.4,-.2,-.9,-.4,-1.2c-.3,-.3,-.7,-.5,-1.1,-.5c-.3,0,-.7,.2,-1,.4c-.3,.3,-.4,.6,-.4,1c0,.2,0,.4,.1,.7c.2,.2,.3,.4,.6,.6c-.7,.2,-1.5,-.2,-2.2,-1.3c-.5,-.7,-.7,-1.5,-.7,-2.3c0,-1,.1,-1.9,.3,-2.7c.2,-.7,.5,-1.4,1,-2.1c.4,-.7,1,-1.3,1.6,-1.7c.7,-.5,1.5,-.8,2.4,-1L356.4,134Zm8.6,13.1c-.8,-1,-1.9,-1.7,-3.5,-1.8c-.4,0,-.7,-.1,-1.1,-.1c-.4,-.1,-.8,-.1,-1.2,-.1c-1.2,-.3,-1.8,-1,-1.8,-2.3c0,-.4,0,-.7,.1,-.8l-.5,-.5c-.1,.5,-.2,.9,-.3,1.3c-.1,.3,-.1,.6,-.1,.8c0,1.5,.6,2.4,1.9,2.9c.4,.3,1.3,.5,2.7,.5h2.2c.3,0,.6,.1,.9,.2c.2,.2,.5,.4,.7,.6c.3,.4,.5,.7,.7,.9c.2,.2,.3,.3,.4,.4V135.2h2.2L367.2,134H355.8l1.1,1.2h8v.9c-2.5,.8,-5,2.1,-7.3,3.7c.2,.4,.5,.8,.8,1.2c.2,.3,.5,.7,.7,1.1c1.7,.1,3.1,.7,4.1,1.6c.3,.3,.6,.7,.9,1.1c.3,.4,.6,.8,.9,1.3v1Zm-.1,-2.5c-1.1,-1.8,-2.7,-3.2,-4.8,-4.1c.8,-.6,1.7,-1.1,2.5,-1.5c.8,-.4,1.5,-.7,2.3,-1v6.6Zm15.5,-12.7c-2.3,-2.4,-4.7,-3.6,-7.3,-3.6c-1,0,-2,.4,-3,1.2c-1.1,.9,-1.7,1.8,-1.7,2.7c0,.4,.2,.7,.5,1l.8,.8h-3.1l1.1,1.2h1.8v11.3l1.3,1.2V135.2h2.1L371.6,134h-1.3l-.4,-1.1c0,-.9,.6,-1.6,1.6,-2.3c1,-.7,1.9,-1,2.8,-1c.6,0,1.2,.1,1.8,.2c.5,.2,1.1,.4,1.6,.7c.6,.4,1.2,.7,1.6,1c.5,.4,.9,.7,1.3,1l-.2,-.6Zm3.7,3.3L382.9,134H371.1l1.2,1.2h8.2v.9c-2.6,.8,-5,2.1,-7.4,3.7l1.6,2.3c1.7,.1,3,.7,4,1.6c.3,.3,.6,.6,1,1c.3,.4,.5,.8,.7,1c.1,.3,.3,.7,.6,1.3l.6,.8V135.2h2.5Zm-3.6,9.4c-1.1,-1.8,-2.7,-3.2,-4.9,-4.1c.9,-.6,1.7,-1.1,2.5,-1.5c.8,-.4,1.6,-.7,2.4,-1v6.6Zm-4.7,1.7c.2,.3,.5,.4,.8,.4c.4,0,.7,-.1,.9,-.4c.2,-.2,.4,-.5,.4,-.8c0,-.4,-.2,-.7,-.4,-.9c-.2,-.3,-.5,-.4,-.9,-.4c-.3,0,-.6,.1,-.8,.4c-.3,.2,-.4,.5,-.4,.9c0,.3,.1,.6,.4,.8ZM390,134h-8l1.2,1.2h4c-1.7,2,-2.5,4,-2.5,6.1c0,1.5,.3,2.8,.9,3.9c.8,1.4,1.8,2.1,3.2,2.1c.3,0,.6,0,.8,-.1c.3,-.1,.5,-.2,.7,-.4c.2,-.2,.4,-.4,.5,-.7c.1,-.2,.2,-.5,.2,-.8c0,-.4,-.2,-.9,-.4,-1.2c-.3,-.3,-.7,-.5,-1.1,-.5c-.3,0,-.7,.2,-1,.4c-.3,.3,-.5,.6,-.5,1c0,.2,.1,.4,.2,.7c.2,.2,.4,.4,.6,.6c-.7,.2,-1.5,-.2,-2.2,-1.3c-.5,-.7,-.7,-1.5,-.7,-2.3c0,-1,.1,-1.9,.3,-2.7c.2,-.7,.5,-1.4,1,-2.1c.4,-.7,1,-1.3,1.6,-1.7c.7,-.5,1.5,-.8,2.4,-1L390,134Zm13.5,0H389.2l1.3,1.2h14.3L403.5,134Zm-.6,5.6c-.2,-.6,-.5,-1.2,-.9,-1.7c-.4,-.5,-.9,-.9,-1.5,-1.1c-.6,-.3,-1.2,-.5,-1.8,-.5c-.8,0,-1.4,.3,-2,.7c-.6,.5,-.9,1.1,-.9,1.9c0,.6,.2,1.2,.5,1.6c.4,.5,.9,.7,1.5,.7c1.3,0,1.9,-.6,1.9,-1.7c0,-.5,-.1,-1,-.4,-1.4c.3,-.1,.6,-.2,.8,-.2c.6,0,1.2,.3,1.6,.9c.4,.6,.6,1.1,.6,1.8c0,.8,-.4,1.6,-1.1,2.3c-.8,.6,-1.6,1,-2.5,1c-1.7,0,-3.2,-.9,-4.4,-2.8c-.3,-.3,-.6,-1,-1.1,-1.8c-.4,-.9,-.8,-1.9,-1.3,-3.1l-.7,-.2c1.8,6.5,4.3,9.8,7.5,9.8c1.2,0,2.2,-.5,3.2,-1.3c.4,-.4,.7,-.8,1,-1.4c.2,-.5,.4,-1,.4,-1.6c0,-.7,-.1,-1.3,-.4,-1.9ZM418.1,134c-.5,0,-1,.2,-1.5,.4c-.5,.3,-.9,.5,-1.3,.8c-.7,.8,-1.3,1.8,-1.8,2.8c-.4,1,-.6,2.1,-.7,3.3c0,1.5,.3,2.8,1,3.9c.7,1.4,1.8,2.1,3.1,2.1c.3,0,.6,0,.9,-.1c.3,-.1,.5,-.2,.7,-.4c.2,-.2,.3,-.4,.5,-.7c.1,-.2,.1,-.5,.1,-.8c0,-.4,-.1,-.9,-.4,-1.2c-.3,-.3,-.6,-.5,-1,-.5c-.2,0,-.4,.1,-.6,.1c-.2,.1,-.3,.2,-.4,.3c-.2,.2,-.3,.3,-.4,.4c-.1,.2,-.1,.4,-.1,.6c0,.2,.1,.4,.2,.7c.1,.2,.3,.4,.5,.6c0,0,-.1,.1,-.2,.1h-.1c-.7,0,-1.4,-.5,-1.9,-1.4c-.4,-.7,-.7,-1.5,-.7,-2.3c0,-1,.1,-1.9,.4,-2.7c.2,-.7,.5,-1.4,.9,-2.1c.5,-.7,1,-1.3,1.7,-1.7c.6,-.5,1.4,-.8,2.3,-1L418.1,134Zm15.6,1.2L432.5,134H417.3l1.2,1.2h7.8v1c-2.6,.8,-4.9,2.1,-6.9,3.7l1.7,2.1c1.3,.1,2.5,.7,3.6,1.8c.5,.5,.9,1,1.3,1.6c.4,.7,.7,1.3,1,2c0,.1,.1,.1,.2,.2c.1,0,.1,.1,.2,.1v-10c1.2,0,2.2,.3,2.8,1c.7,.7,1,1.4,1,2.2l-.1,.3c-.2,-.2,-.3,-.3,-.5,-.4c-.2,-.2,-.5,-.2,-.7,-.2c-.4,0,-.7,.1,-1,.4c-.3,.2,-.4,.5,-.4,.9c0,.2,0,.4,.1,.6c.1,.2,.2,.3,.4,.5c.1,.1,.3,.2,.5,.3c.2,.1,.4,.1,.6,.1c.3,0,.5,-.1,.8,-.2c.2,-.1,.4,-.3,.6,-.5c.2,-.2,.3,-.4,.4,-.7c.1,-.3,.1,-.5,.1,-.8c0,-1.3,-.4,-2.4,-1.2,-3.4c-.8,-1.2,-2,-1.7,-3.4,-1.7v-.9h6.3Zm-7.4,9.1h-.1c-1,-1.8,-2.4,-3.1,-4.4,-4c.8,-.5,1.5,-1,2.3,-1.4c.7,-.4,1.4,-.8,2.2,-1.1v6.5Zm12,-9.1L437.1,134h-1c-.4,-.4,-.6,-1,-.8,-1.9l-.4,-.3c0,.2,0,.5,0,.9c0,.3,0,.7,.1,1.2c0,.5,.1,.9,.1,1.3c0,.3,0,.6,0,.9c-.3,-.8,-.6,-1.3,-1,-1.6c-.4,-.3,-.9,-.5,-1.7,-.5h-1.3l1.2,1.2c.3,0,.6,.1,1,.2c.3,.1,.6,.3,.8,.5c.3,.2,.5,.4,.6,.7c.1,.3,.2,.7,.2,1v8.9l1.2,1.2V135.2h2.2Zm11.9,-3.3c-2.3,-2.4,-4.8,-3.6,-7.3,-3.6c-1,0,-2,.4,-3,1.2c-1.1,.9,-1.7,1.8,-1.7,2.7c0,.4,.2,.7,.5,1l.8,.8h-3.2l1.2,1.2h1.8v11.3l1.3,1.2V135.2h2.1L441.4,134h-1.3l-.4,-1.1c0,-.9,.6,-1.6,1.6,-2.3c.9,-.7,1.9,-1,2.8,-1c.6,0,1.2,.1,1.8,.2c.5,.2,1.1,.4,1.6,.7c.6,.4,1.2,.7,1.6,1c.5,.4,.9,.7,1.3,1l-.2,-.6Zm3.7,3.3L452.7,134H440.9l1.2,1.2h8.1v.9c-2.5,.8,-4.9,2.1,-7.3,3.7l1.6,2.3c1.7,.1,3,.7,4,1.6c.3,.3,.6,.6,1,1c.3,.4,.5,.8,.7,1c.1,.3,.3,.7,.5,1.3l.7,.8V135.2h2.5Zm-3.7,9.4c-1,-1.8,-2.6,-3.2,-4.8,-4.1c.9,-.6,1.7,-1.1,2.5,-1.5c.8,-.4,1.6,-.7,2.3,-1v6.6Zm-4.7,1.7c.3,.3,.6,.4,.9,.4c.4,0,.7,-.1,.9,-.4c.2,-.2,.4,-.5,.4,-.8c0,-.4,-.2,-.7,-.4,-.9c-.2,-.3,-.5,-.4,-.9,-.4c-.3,0,-.6,.1,-.9,.4c-.2,.2,-.3,.5,-.3,.9c0,.3,.1,.6,.3,.8Zm19,-11.1L463.3,134H452.2c.6,1,1.7,1.7,3.3,2.2c.7,.2,1.2,.4,1.6,.6c.4,.2,.7,.4,.9,.6c-.6,.4,-1.1,.8,-1.8,1.4c-.6,.5,-1.2,1.1,-1.8,1.7l1.6,2.1c1.4,.1,2.6,.5,3.5,1.2c.6,.5,1.1,1.2,1.7,2.3c.6,1,1,1.6,1.4,1.8V135.2h1.9Zm-3.1,9.5h-.1c-1,-1.7,-2.5,-2.9,-4.4,-3.6c.5,-.5,.9,-1.1,1.4,-1.6c.5,-.5,1,-.9,1.5,-1.4c-.6,-.7,-1.2,-1.3,-1.7,-1.8c-.5,-.5,-.9,-.9,-1.3,-1.1h4.6v9.5Zm-4.7,2c.3,.2,.6,.3,.9,.3c.3,0,.6,-.1,.9,-.3c.2,-.3,.3,-.6,.3,-.9c0,-.3,-.1,-.6,-.3,-.9c-.3,-.2,-.6,-.3,-.9,-.3c-.3,0,-.6,.1,-.9,.3c-.2,.3,-.3,.6,-.3,.9c0,.3,.1,.6,.3,.9Zm12.5,-11.5L468.1,134H467c-.4,-.4,-.6,-1,-.8,-1.9l-.4,-.3c0,.2,0,.5,0,.9c.1,.3,.1,.7,.1,1.2c0,.5,.1,.9,.1,1.3c0,.3,0,.6,0,.9c-.2,-.8,-.6,-1.3,-1,-1.6c-.3,-.3,-.9,-.5,-1.6,-.5H462l1.2,1.2c.3,0,.7,.1,1,.2c.3,.1,.6,.3,.8,.5c.3,.2,.5,.4,.6,.7c.2,.3,.2,.7,.2,1v8.9l1.2,1.2V135.2h2.2Zm11.2,0L479.1,134H467.5l1.2,1.2h8.4v6.6H477c-1.2,-2.6,-2.7,-4,-4.4,-4c-.8,0,-1.5,.3,-2.1,.9c-.6,.5,-.9,1.2,-.9,2c0,1.5,.8,2.2,2.4,2.2c.5,0,.9,-.2,1.2,-.5c.3,-.4,.4,-.8,.4,-1.3c0,-.3,-.3,-.8,-.8,-1.5c.1,-.1,.2,-.1,.4,-.1c1.2,0,2.3,.8,3.3,2.5c.6,1.4,.9,2.9,.9,4.2l-.1,1.3l1,.6V135.2h2.1Zm20.8,0L500,134H486.6l1.2,1.2h13.4Zm-1.7,2.9c-.3,-.5,-.5,-.9,-.9,-1.1c-.2,-.3,-.5,-.5,-.8,-.5c-.2,.3,-.4,.6,-.6,.9c-.1,.3,-.4,.6,-.6,.8c-.6,.7,-1.2,1,-1.7,.9c.3,-.4,.5,-.9,.5,-1.2c0,-.4,-.2,-.8,-.5,-1.1c-.3,-.2,-.6,-.4,-1,-.4c-1.4,0,-2,.7,-2,1.9c0,.8,.3,1.4,.9,1.9c.5,.4,1.1,.6,1.9,.6c1.5,0,2.8,-.6,3.8,-1.9c.4,0,.6,.6,.6,1.7c0,.9,-.3,1.7,-1,2.3c-.6,.7,-1.4,1,-2.3,1c-.8,0,-1.7,-.2,-2.4,-.7c-.8,-.4,-1.5,-1,-2.1,-1.7c-.5,-.6,-.9,-1.4,-1.3,-2.2c-.4,-.8,-.8,-1.7,-1.1,-2.7l-.7,-.2c.5,1.4,.9,2.7,1.3,3.7c.4,1,.8,1.8,1.1,2.3c1.4,2.3,3,3.5,5,3.5c1.4,0,2.6,-.6,3.4,-1.6c.4,-.5,.8,-1.1,1,-1.7c.2,-.6,.3,-1.3,.3,-2c0,-.7,-.3,-1.5,-.8,-2.5Zm6.4,-2.9L504.7,134h-1c-.4,-.4,-.6,-1,-.8,-1.9l-.4,-.3c0,.2,0,.5,0,.9c0,.3,.1,.7,.1,1.2c0,.5,.1,.9,.1,1.3c0,.3,0,.6,0,.9c-.3,-.8,-.6,-1.3,-1,-1.6c-.4,-.3,-.9,-.5,-1.7,-.5h-1.3l1.2,1.2c.3,0,.6,.1,1,.2c.3,.1,.6,.3,.8,.5c.3,.2,.5,.4,.6,.7c.1,.3,.2,.7,.2,1v8.9l1.2,1.2V135.2h2.2Zm10.7,0L515.4,134H504.3c.6,.6,1,1.1,1.4,1.5c.4,.3,.7,.6,.9,.7c.3,.1,.6,.2,.9,.2c.2,.1,.5,.1,.7,.2c.7,.1,1.4,.4,1.8,.8l-3.5,3c.3,.4,.5,.7,.8,1.1c.3,.4,.6,.7,.8,1c.7,.1,1.3,.2,1.9,.3c.5,.1,1,.3,1.3,.6c.3,.1,.5,.4,.9,.8c.3,.4,.7,1,1.1,1.7c.2,.3,.4,.6,.7,.9c.2,.3,.5,.6,.8,.9V135.2h1.8Zm-3,4c-1.4,-1.3,-3,-2.6,-4.9,-4h4.9v4Zm0,5.4c-1.3,-1.8,-2.8,-3,-4.5,-3.6c.5,-.6,1,-1.1,1.4,-1.4c.4,-.4,.7,-.7,1,-.9c.3,.2,.6,.4,.9,.7c.4,.3,.7,.6,1.2,1v4.2Zm7.8,-9.4L520.2,134h-1.1c-.3,-.4,-.6,-1,-.7,-1.9l-.5,-.3c0,.2,0,.5,.1,.9c0,.3,0,.7,0,1.2c.1,.5,.1,.9,.1,1.3c0,.3,0,.6,0,.9c-.2,-.8,-.5,-1.3,-.9,-1.6c-.4,-.3,-1,-.5,-1.7,-.5h-1.4l1.2,1.2c.4,0,.7,.1,1,.2c.3,.1,.6,.3,.9,.5c.2,.2,.4,.4,.5,.7c.2,.3,.3,.7,.3,1v8.9l1.1,1.2V135.2h2.3Zm20.7,0L540.9,134c-.1,0,-.3,0,-.4,0c-.4,0,-.7,-.2,-.9,-.6c0,-.2,-.1,-.6,-.2,-1.2l-.5,-.5c0,1.1,.1,2.2,.1,3.2c.1,1.1,.1,2.1,.2,3.2h-.1c-1.5,-2.6,-3.1,-3.9,-4.9,-3.9c-.4,0,-.9,.1,-1.4,.3c-.5,.1,-1,.4,-1.6,.7c-.5,.4,-.9,.8,-1.2,1.2c-.4,.4,-.5,.9,-.5,1.3c0,.2,.1,.5,.3,.7c.2,.2,.4,.3,.6,.3c.2,0,.5,-.1,.9,-.3c.2,-.1,.4,-.1,.5,-.2c.1,0,.2,0,.3,0c.5,0,.8,.4,.8,1.2c0,.5,-.4,1.1,-1.3,1.9l1.7,.6l4.3,-4.2c.1,.1,.2,.2,.4,.4c.2,.2,.3,.4,.5,.6c.1,.3,.3,.5,.3,.7c.1,.3,.2,.5,.2,.6l-.2,6.4l1.3,1.3V135.2h2Zm-8.5,4.2c0,-.7,-.1,-1.2,-.4,-1.6c-.2,-.5,-.7,-.7,-1.4,-.7c.6,-1.1,1.5,-1.6,2.8,-1.6c.7,0,1.4,.3,1.9,.9l-2.9,3ZM548.2,134h-7.9l1.1,1.2h4c-1.7,2,-2.5,4,-2.5,6.1c0,1.5,.3,2.8,.9,3.9c.8,1.4,1.8,2.1,3.2,2.1c.3,0,.6,0,.9,-.1c.2,-.1,.5,-.2,.7,-.4c.1,-.2,.3,-.4,.4,-.7c.1,-.2,.2,-.5,.2,-.8c0,-.4,-.2,-.9,-.4,-1.2c-.3,-.3,-.7,-.5,-1.1,-.5c-.3,0,-.7,.2,-1,.4c-.3,.3,-.4,.6,-.4,1c0,.2,0,.4,.1,.7c.2,.2,.4,.4,.6,.6c-.7,.2,-1.4,-.2,-2.2,-1.3c-.5,-.7,-.7,-1.5,-.7,-2.3c0,-1,.1,-1.9,.3,-2.7c.2,-.7,.5,-1.4,1,-2.1c.4,-.7,1,-1.3,1.6,-1.7c.7,-.5,1.5,-.8,2.4,-1L548.2,134Zm6.7,16.1c.3,.3,.7,.4,1,.4c.5,0,.8,-.1,1.1,-.4c.2,-.3,.4,-.6,.4,-1c0,-.4,-.2,-.8,-.4,-1c-.3,-.3,-.6,-.5,-1.1,-.5c-.3,0,-.7,.2,-1,.5c-.2,.2,-.4,.6,-.4,1c0,.4,.2,.7,.4,1Zm6.8,-14.9L560.6,134H547.5l1.2,1.2h5.1v4.1c0,1.7,.5,2.6,1.6,2.6c.4,-.1,.7,-.2,1.1,-.3c.3,-.2,.6,-.3,1,-.6c.3,-.2,.5,-.4,.8,-.7c.2,-.3,.4,-.6,.5,-.9c.5,.5,.7,1,.7,1.6c0,.5,-.2,1.1,-.5,1.5c-.4,.5,-.8,.9,-1.4,1.2c-.5,.3,-1.1,.4,-1.8,.4c-1.7,0,-3,-.9,-4,-2.7c-.3,-.7,-.6,-1.5,-.9,-2.3c-.2,-.9,-.3,-1.8,-.4,-2.7l-.8,-.4c.6,6.8,2.7,10.3,6.3,10.3c1.4,0,2.4,-.5,3.2,-1.4c.8,-.9,1.2,-2,1.2,-3.4c0,-.4,-.1,-.8,-.2,-1.2c-.1,-.4,-.2,-.8,-.4,-1.1c-.2,-.4,-.4,-.7,-.7,-1c-.3,-.3,-.6,-.6,-.9,-.8c-.3,.2,-.5,.5,-.7,.8c-.3,.4,-.5,.7,-.7,1c-.3,.3,-.5,.5,-.8,.7c-.3,.1,-.7,.2,-1.1,.1v-4.8h6.8Zm12.2,-3.3c-2.4,-2.4,-4.8,-3.6,-7.3,-3.6c-1,0,-2,.4,-3.1,1.2c-1.1,.9,-1.6,1.8,-1.6,2.7c0,.4,.2,.7,.5,1l.8,.8H560l1.2,1.2H563v11.3l1.2,1.2V135.2h2.1L565.1,134h-1.3l-.5,-1.1c.1,-.9,.6,-1.6,1.7,-2.3c.9,-.7,1.8,-1,2.7,-1c.6,0,1.2,.1,1.8,.2c.6,.2,1.2,.4,1.7,.7c.6,.4,1.1,.7,1.6,1c.5,.4,.9,.7,1.3,1l-.2,-.6Zm3.9,16.8c-.4,-.5,-.9,-1,-1.3,-1.4c-.4,-.4,-.8,-.8,-1.1,-1c-.3,-.2,-.7,-.5,-1.2,-.8c-.5,-.3,-1.1,-.6,-1.8,-1c.6,-.3,1.1,-.6,1.5,-.8c.4,-.3,.8,-.5,1,-.8c.9,-.7,1.3,-1.5,1.3,-2.5c0,-.9,-.2,-1.7,-.7,-2.4c-.6,-.7,-1.4,-1.1,-2.4,-1.1c-.3,0,-.6,0,-.8,.1c-.3,0,-.6,.1,-.8,.1c-1.4,0,-2.4,-.7,-2.9,-1.9h8.7L576.1,134H564.7l1.2,1.2h1.6v5.2c0,.2,0,.5,.1,.6c.1,.2,.3,.4,.4,.5c.2,.2,.4,.3,.6,.4c.2,.1,.5,.1,.7,.1c.4,0,.7,-.1,1.2,-.3c.4,-.2,.8,-.4,1.2,-.7c1,-.8,1.5,-1.7,1.3,-2.6c1.3,-.2,2,.2,2.1,1.2c0,1.2,-.7,2.2,-2.1,2.9c-.5,.2,-1.1,.4,-1.7,.6c-.6,.1,-1.2,.2,-1.9,.2c-.2,0,-.5,-.1,-.8,-.1c-.3,-.1,-.6,-.1,-.9,-.2l1.1,2.2c1.8,.2,3.5,.6,5,1.3c1.5,.8,2.9,1.8,4.2,3.1l-.2,-.9Zm-6.6,-9.5c-.1,.3,-.3,.6,-.6,.8c-.2,.3,-.5,.5,-.7,.7c-.3,.1,-.6,.2,-.8,.2c-.3,0,-.5,-.2,-.5,-.7v-3.6c.7,.9,1.7,1.5,2.8,1.8c0,.3,0,.5,-.2,.8Z" class="g8_114"/>
<g clip-path="url(#c0_114)">
<path d="M1877,177.2H32.1v-5.4H768.7c43.1,0,53,-37.9,115.3,-37.9h993Z" class="g9_114"/>
<path d="M1877,183.7H32.1v-9.8H768.7c43.1,0,53,-33.6,115.3,-33.6h993Z" class="ga_114"/>
</g>
<path d="M131.7,397v38.9l11.7,10.3V402Z" class="gb_114"/>
<path d="M131.7,397v38.9H829.5c0,0,16.8,0,16.8,-16.8v-5.3c0,0,0,-16.8,-16.8,-16.8Z" class="g3_114"/>
<path d="M781,430.6c8.2,0,14.8,-6.5,14.8,-14.5c0,-8,-6.6,-14.5,-14.8,-14.5c-8.3,0,-14.9,6.5,-14.9,14.5c0,8,6.6,14.5,14.9,14.5Z" class="gc_114"/>
<path d="M781,430.6c8.2,0,14.8,-6.5,14.8,-14.5c0,-8,-6.6,-14.5,-14.8,-14.5c-8.3,0,-14.9,6.5,-14.9,14.5c0,8,6.6,14.5,14.9,14.5Z" class="gd_114"/>
<path d="M781,421.4c3,0,5.4,-2.4,5.4,-5.3c0,-3,-2.4,-5.4,-5.4,-5.4c-3.1,0,-5.5,2.4,-5.5,5.4c0,2.9,2.4,5.3,5.5,5.3Z" class="g1_114"/>
<path d="M781,421.4c3,0,5.4,-2.4,5.4,-5.3c0,-3,-2.4,-5.4,-5.4,-5.4c-3.1,0,-5.5,2.4,-5.5,5.4c0,2.9,2.4,5.3,5.5,5.3Z" class="ge_114"/>
<g clip-path="url(#c3_114)" opacity="0.3">
<path d="M766.4,415.3c0,0,-.1,-4.8,3.6,-8.6l7.8,6.7c0,0,-1,.9,-1.1,2.6Z" class="g1_114"/>
</g>
<path d="M785.6,416c0,0,-3.5,0,-3.5,3.4v8.7c0,0,0,3.5,3.5,3.5H829c0,0,3.5,0,3.5,-3.5v-8.7c0,0,0,-3.4,-3.5,-3.4Z" class="gf_114"/>
<path d="M169.5,407c0,-8.3,-6.7,-15,-15,-15c-8.4,0,-15.1,6.7,-15.1,15c0,8.4,6.8,15.1,15.1,15.1c.8,0,1.6,-.1,2.4,-.2l4.5,5.2v-6.7c4.8,-2.5,8.1,-7.5,8.1,-13.4Z" class="g1_114"/>
<path d="M161.8,428.4l-5.1,-6c-.7,.1,-1.5,.2,-2.2,.2c-8.6,0,-15.6,-7,-15.6,-15.6c0,-8.5,7,-15.5,15.6,-15.5c8.5,0,15.5,7,15.5,15.5c0,5.8,-3.1,11,-8.2,13.7Zm-4.7,-7l3.8,4.5v-5.8l.3,-.1c4.8,-2.5,7.9,-7.5,7.9,-13c0,-8,-6.6,-14.5,-14.6,-14.5c-8.1,0,-14.6,6.5,-14.6,14.5c0,8.1,6.5,14.6,14.6,14.6c.7,0,1.5,0,2.3,-.2Z" class="gg_114"/>
<path d="M147.4,406.6c.8,0,1.5,.7,1.5,1.5c0,.7,-.7,1.4,-1.5,1.4c-.7,0,-1.4,-.7,-1.4,-1.4c0,-.8,.7,-1.5,1.4,-1.5Z" class="gh_114"/>
<path d="M147.4,409.9c-1,0,-1.8,-.8,-1.8,-1.8c0,-1.1,.8,-2,1.8,-2c1.1,0,1.9,.9,1.9,2c0,1,-.8,1.8,-1.9,1.8m0,-2.8c-.5,0,-.9,.4,-.9,1c0,.5,.4,.9,.9,.9c.6,0,1,-.4,1,-.9c0,-.6,-.4,-1,-1,-1Z" class="gg_114"/>
<path d="M154.5,406.6c.8,0,1.4,.7,1.4,1.5c0,.7,-.6,1.4,-1.4,1.4c-.8,0,-1.5,-.7,-1.5,-1.4c0,-.8,.7,-1.5,1.5,-1.5Z" class="gh_114"/>
<path d="M154.5,409.9c-1.1,0,-1.9,-.8,-1.9,-1.8c0,-1.1,.8,-2,1.9,-2c1,0,1.9,.9,1.9,2c0,1,-.9,1.8,-1.9,1.8m0,-2.8c-.6,0,-1,.4,-1,1c0,.5,.4,.9,1,.9c.5,0,.9,-.4,.9,-.9c0,-.6,-.4,-1,-.9,-1Z" class="gg_114"/>
<path d="M161.5,406.6c.8,0,1.4,.7,1.4,1.5c0,.7,-.6,1.4,-1.4,1.4c-.8,0,-1.5,-.7,-1.5,-1.4c0,-.8,.7,-1.5,1.5,-1.5Z" class="gh_114"/>
<path d="M161.5,409.9c-1.1,0,-1.9,-.8,-1.9,-1.8c0,-1.1,.8,-2,1.9,-2c1,0,1.9,.9,1.9,2c0,1,-.9,1.8,-1.9,1.8m0,-2.8c-.6,0,-1,.4,-1,1c0,.5,.4,.9,1,.9c.5,0,1,-.4,1,-.9c0,-.6,-.5,-1,-1,-1Z" class="gg_114"/>
<path d="M163.4,421.3c0,-9.7,7.9,-17.6,17.6,-17.6c9.7,0,17.6,7.9,17.6,17.6c0,9.7,-7.9,17.6,-17.6,17.6c-.9,0,-1.9,-.1,-2.8,-.2l-5.3,6.1v-7.9c-5.6,-2.9,-9.5,-8.8,-9.5,-15.6Z" class="gi_114"/>
<path d="M172.9,445.2c0,0,-.1,0,-.1,0c-.2,-.1,-.3,-.2,-.3,-.4v-7.6c-5.9,-3.1,-9.6,-9.2,-9.6,-15.9c0,-10,8.2,-18.1,18.1,-18.1c10,0,18.1,8.1,18.1,18.1c0,9.9,-8.1,18.1,-18.1,18.1c-.8,0,-1.7,-.1,-2.6,-.2l-5.1,5.9c-.1,.1,-.2,.1,-.4,.1M181,404.1c-9.4,0,-17.1,7.7,-17.1,17.2c0,6.4,3.5,12.3,9.2,15.2c.2,.1,.3,.3,.3,.4v6.6l4.4,-5.1c.1,-.1,.3,-.2,.5,-.2c.9,.2,1.8,.2,2.7,.2c9.5,0,17.2,-7.7,17.2,-17.1c0,-9.5,-7.7,-17.2,-17.2,-17.2Z" class="gg_114"/>
<path d="M189.2,420.8c.9,0,1.7,.7,1.7,1.7c0,.9,-.8,1.6,-1.7,1.6c-.9,0,-1.7,-.7,-1.7,-1.6c0,-1,.8,-1.7,1.7,-1.7Z" class="g1_114"/>
<path d="M189.2,424.6c-1.2,0,-2.1,-1,-2.1,-2.1c0,-1.2,.9,-2.2,2.1,-2.2c1.2,0,2.1,1,2.1,2.2c0,1.1,-.9,2.1,-2.1,2.1m0,-3.3c-.7,0,-1.2,.5,-1.2,1.2c0,.6,.5,1.2,1.2,1.2c.7,0,1.2,-.6,1.2,-1.2c0,-.7,-.5,-1.2,-1.2,-1.2Z" class="gg_114"/>
<path d="M181,420.8c.9,0,1.7,.7,1.7,1.7c0,.9,-.8,1.6,-1.7,1.6c-.9,0,-1.7,-.7,-1.7,-1.6c0,-1,.8,-1.7,1.7,-1.7Z" class="g1_114"/>
<path d="M181,424.6c-1.2,0,-2.1,-1,-2.1,-2.1c0,-1.2,.9,-2.2,2.1,-2.2c1.2,0,2.1,1,2.1,2.2c0,1.1,-.9,2.1,-2.1,2.1m0,-3.3c-.7,0,-1.2,.5,-1.2,1.2c0,.6,.5,1.2,1.2,1.2c.7,0,1.2,-.6,1.2,-1.2c0,-.7,-.5,-1.2,-1.2,-1.2Z" class="gg_114"/>
<path d="M172.8,420.8c.9,0,1.7,.7,1.7,1.7c0,.9,-.8,1.6,-1.7,1.6c-.9,0,-1.7,-.7,-1.7,-1.6c0,-1,.8,-1.7,1.7,-1.7Z" class="g1_114"/>
<path d="M172.8,424.6c-1.2,0,-2.1,-1,-2.1,-2.1c0,-1.2,.9,-2.2,2.1,-2.2c1.2,0,2.1,1,2.1,2.2c0,1.1,-.9,2.1,-2.1,2.1m0,-3.3c-.7,0,-1.2,.5,-1.2,1.2c0,.6,.5,1.2,1.2,1.2c.7,0,1.2,-.6,1.2,-1.2c0,-.7,-.5,-1.2,-1.2,-1.2Z" class="gg_114"/>
<image clip-path="url(#c4_114)" preserveAspectRatio="none" x="58" y="568" width="216" height="214" xlink:href="img/3.png"/>
<path d="M65.9,572.7L63.3,771.1l202,4.8l2.6,-198.4Z" class="gj_114"/>
<image clip-path="url(#c5_114)" preserveAspectRatio="none" x="57" y="563" width="216" height="224" xlink:href="img/4.png"/>
<image clip-path="url(#c6_114)" preserveAspectRatio="none" x="56" y="562" width="217" height="224" xlink:href="img/5.png"/>
<path d="M61.6,577.1l9.2,202.5L236.9,769.4l30.5,-15.7L259.9,566.9Z" class="gk_114"/>
<path d="M236.9,769.8l30.3,-16L253.4,742.5Z" class="gl_114"/>
<path d="M440.8,648.2c22.3,-.8,40.3,-7.2,43.9,-15.5m-.8,-7.5C479,617.4,461,611.5,439.2,611m-7.7,0c-22.4,.8,-40.4,7.3,-43.9,15.6m.7,7.4c5,7.9,22.9,13.8,44.7,14.3" class="gm_114"/>
<path d="M485.2,631.2c.1,-.5,.1,-1,.1,-1.6c0,-.5,0,-1,-.1,-1.5M437.7,611c-.5,-.1,-1.1,-.1,-1.6,-.1c-.5,0,-1,0,-1.5,.1m-47.5,17.1c-.1,.5,-.2,1,-.2,1.5c0,.6,.1,1.1,.2,1.6m47.5,17.1c.5,0,1,0,1.5,0c.5,0,1.1,0,1.6,0" class="gn_114"/>
<path d="M449.1,607.6c-10,-5.6,-41.7,-19,-126.5,-24.9m-8.2,-.1c-2.5,.6,-.8,2.1,1.4,3m3.8,-3.1c-3.4,-5.7,-21.2,-13.7,-89.2,1.4" class="gm_114"/>
<path d="M452.9,610.2c0,0,-.3,-.3,-1.2,-.9M321.1,582.6c-.6,0,-1.1,-.1,-1.6,-.1c-.6,0,-1.2,-.1,-1.7,-.1m-.4,3.8c.7,.2,1.2,.3,1.7,.3c.4,0,.9,-.4,1,-1m-91.2,-1.3c-.5,.1,-1,.3,-1.5,.4" class="gn_114"/>
<path d="M232.8,588.8l-5.7,-8.9l-5.8,10.7Z" class="go_114"/>
<image clip-path="url(#c7_114)" x="152" y="577" width="6" height="9" xlink:href="shade/1.png"/>
<image clip-path="url(#c8_114)" x="151" y="551" width="25" height="28" xlink:href="shade/2.png"/>
<image clip-path="url(#c9_114)" x="151" y="553" width="23" height="33" xlink:href="shade/3.png"/>
<image clip-path="url(#ca_114)" x="157" y="549" width="20" height="10" xlink:href="shade/4.png"/>
<path d="M468.2,575.1c11.8,-1.1,21.1,-6.8,23.1,-13.9m-.5,-7.3C487.9,547.1,478.4,542,466.7,541.2m-7.5,.1c-11.7,1.2,-21,6.8,-23.1,14m.5,7.3c3,6.8,12.5,11.9,24.1,12.7" class="gp_114"/>
<path d="M491.6,559.7c.1,-.5,.1,-1,.1,-1.5c0,-.5,0,-1,-.1,-1.5M465.2,541.1c-.5,0,-1,0,-1.5,0c-.5,0,-1,0,-1.5,0m-26.4,15.6c0,.5,-.1,1,-.1,1.5c0,.5,.1,1,.1,1.5m26.4,15.6c.5,.1,1,.1,1.5,.1c.5,0,1,0,1.5,-.1" class="gn_114"/>
<image clip-path="url(#cb_114)" preserveAspectRatio="none" x="678" y="564" width="240" height="220" xlink:href="img/6.png"/>
<path d="M912.4,579.5L695,568L682.7,768.1l217,9.2Z" class="gj_114"/>
<image clip-path="url(#cc_114)" preserveAspectRatio="none" x="675" y="561" width="246" height="223" xlink:href="img/7.png"/>
<image clip-path="url(#cd_114)" preserveAspectRatio="none" x="675" y="561" width="245" height="223" xlink:href="img/8.png"/>
<path d="M699.9,565.7l-20.5,194l183.5,17.4l34.8,-22.3L915.1,587Z" class="gk_114"/>
<path d="M862.8,777.2l35,-22.5L880.9,745Z" class="gl_114"/>
<path d="M493.4,569.9c16.7,4.1,77.6,17.4,118.3,7.2" class="gq_114"/>
<path d="M616.9,572.9c.3,-1.2,0,-2.5,-1.6,-3.6M609,567.4c-1.2,.1,-2.4,.6,-3.3,2" class="gr_114"/>
<path d="M607.6,575.7c4.1,4.2,12.7,9.8,28.8,6.2" class="gq_114"/>
<path d="M643.9,580.4c8.9,-.9,30.3,-.5,53.1,18.2" class="gr_114"/>
<path d="M489,568.8c0,0,.5,.1,1.4,.4m122.8,7.6c.5,-.2,1,-.3,1.5,-.4c0,0,.4,-.4,.9,-1m-1.5,-6.7c-.4,-.2,-.8,-.4,-1.3,-.5c0,0,-.5,-.3,-1.2,-.5m-6.5,2.9c-.1,.4,-.3,.8,-.4,1.3c0,0,.3,.5,.9,1.3m32.4,8.3c.5,-.2,1,-.3,1.5,-.4c0,0,.5,-.2,1.5,-.3m57.1,18.7c.4,.3,.8,.7,1.1,1" class="gs_114"/>
<path d="M698.6,595.4l-5,7.3l11.9,2.7Z" class="go_114"/>
<image clip-path="url(#ce_114)" x="817" y="584" width="5" height="9" xlink:href="shade/5.png"/>
<image clip-path="url(#cf_114)" x="816" y="557" width="24" height="28" xlink:href="shade/6.png"/>
<image clip-path="url(#cg_114)" x="816" y="559" width="23" height="34" xlink:href="shade/7.png"/>
<image clip-path="url(#ch_114)" x="821" y="556" width="20" height="9" xlink:href="shade/8.png"/>
<path d="M153.5,1136.3h52v-44.8h-52v44.8Z" class="gt_114"/>
<path d="M153.3,1091.5h52.2m-52,22.4v-22.3m0,44.5v-22.2m-.2,22.4h52.2m0,-44.8h50.6m-50.6,22.2v-22.1m50.6,-.1h50.6m-50.6,22.2v-22.1m50.6,-.1h50.6m-50.6,22.2v-22.1m50.6,-.1h50.6m-50.6,22.2v-22.1m50.6,-.1h50.6m-50.6,22.2v-22.1m50.6,-.1h50.6m-50.6,22.2v-22.1m50.6,-.1h50.6m-50.6,22.2v-22.1m50.6,-.1h50.6m-50.6,22.2v-22.1m50.6,-.1h50.6m-50.6,22.2v-22.1m50.6,-.1h50.6m-50.6,22.2v-22.1m50.6,-.1h50.6m-50.6,22.2v-22.1m50.6,-.1h50.8m-50.8,22.2v-22.1m50.6,22.1v-22.1m-607.4,22.3h50.8m-50.6,22.2V1114m50.6,-.1h50.6m-50.6,22.2V1114m50.6,-.1h50.6m-50.6,22.2V1114m50.6,-.1h50.6m-50.6,22.2V1114m50.6,-.1h50.6m-50.6,22.2V1114m50.6,-.1h50.6m-50.6,22.2V1114m50.6,-.1h50.6m-50.6,22.2V1114m50.6,-.1h50.6m-50.6,22.2V1114m50.6,-.1h50.6m-50.6,22.2V1114m50.6,-.1h50.6m-50.6,22.2V1114m50.6,-.1h50.6m-50.6,22.2V1114m50.6,-.1h50.8m-50.8,22.2V1114m50.6,22.1V1114m-607.2,22.3h50.6m0,0h50.6m0,0h50.6m0,0h50.6m0,0h50.6m0,0h50.6m0,0h50.6m0,0h50.6m0,0h50.6m0,0h50.6m0,0h50.6m0,0h50.8" class="gu_114"/>
<path d="M153.5,1231.2h52v-90.3h-52v90.3Z" class="gt_114"/>
<path d="M153.3,1140.9h52.2m-52,22.4v-22.2m0,44.7v-22.5m0,46.3v-23.8m0,45.3v-21.5m-.2,21.6h52.2m0,-90.3h55.2m-55.2,22.3v-22.1m55.2,-.2H316m-55.3,22.3v-22.1m55.3,-.2h55.3M316,1163.2v-22.1m55.3,-.2h55.2m-55.2,22.3v-22.1m55.2,-.2h55.3m-55.3,22.3v-22.1m55.3,-.2H537m-55.2,22.3v-22.1m55.2,-.2h55.3M537,1163.2v-22.1m55.3,-.2h55.3m-55.3,22.3v-22.1m55.3,-.2h55.2m-55.2,22.3v-22.1m55.2,-.2h55.3m-55.3,22.3v-22.1m55.3,-.2h55.4m-55.4,22.3v-22.1m55.3,22.2v-22.2m-608.1,22.2h55.4m-55.2,22.3v-22.1m55.2,-.2H316m-55.3,22.3v-22.1m55.3,-.2h55.3M316,1185.6v-22.1m55.3,-.2h55.2m-55.2,22.3v-22.1m55.2,-.2h55.3m-55.3,22.3v-22.1m55.3,-.2H537m-55.2,22.3v-22.1m55.2,-.2h55.3M537,1185.6v-22.1m55.3,-.2h55.3m-55.3,22.3v-22.1m55.3,-.2h55.2m-55.2,22.3v-22.1m55.2,-.2h55.4m-55.4,22.3v-22.1m55.3,22.1v-22.1m55.3,22.1v-22.3m-608.1,22.5h55.4m-55.2,23.6v-23.5m55.2,-.1H316m-55.3,23.6v-23.5m55.3,-.1h55.3M316,1209.4v-23.5m55.3,-.1h55.2m-55.2,23.6v-23.5m55.2,-.1h55.3m-55.3,23.6v-23.5m55.3,-.1H537m-55.2,23.6v-23.5m55.2,-.1h55.3M537,1209.4v-23.5m55.3,-.1h55.3m-55.3,23.6v-23.5m55.3,-.1h55.2m-55.2,23.6v-23.5m55.2,-.1h55.3m-55.3,23.6v-23.5m55.3,-.1h55.4m-55.4,23.6v-23.5m55.3,23.5v-23.5m-608.1,23.7h55.4m-55.2,21.5v-21.3m55.2,-.2H316m-55.3,21.5v-21.3m55.3,-.2h55.3M316,1231.1v-21.3m55.3,-.2h55.2m-55.2,21.5v-21.3m55.2,-.2h55.3m-55.3,21.5v-21.3m55.3,-.2H537m-55.2,21.5v-21.3m55.2,-.2h55.3M537,1231.1v-21.3m55.3,-.2h55.3m-55.3,21.5v-21.3m55.3,-.2h55.2m-55.2,21.5v-21.3m55.2,-.2h55.3m-55.3,21.5v-21.3m55.3,-.2h55.4m-55.4,21.5v-21.3m55.3,21.3v-21.3m-607.9,21.4h55.2m0,0H316m0,0h55.3m0,0h55.2m0,0h55.3m0,0H537m0,0h55.3m0,0h55.3m0,0h55.2m0,0h55.3m0,0h55.4" class="gu_114"/>
<path d="M132.8,1071.7V1043c0,0,0,-4.3,4.4,-4.3H840.8c0,0,4.3,0,4.3,4.3v29.2" class="gv_114"/>
<path d="M178.4,1039.3c2.7,0,4.8,-2.2,4.8,-4.8c0,-2.7,-2.1,-4.8,-4.8,-4.8c-2.6,0,-4.8,2.1,-4.8,4.8c0,2.6,2.2,4.8,4.8,4.8Z" class="g1_114"/>
<path d="M178.4,1041.1c3.7,0,6.7,-3,6.7,-6.6c0,-3.7,-3,-6.7,-6.7,-6.7c-3.7,0,-6.7,3,-6.7,6.7c0,3.6,3,6.6,6.7,6.6m0,-11.5c2.7,0,4.8,2.2,4.8,4.9c0,2.6,-2.1,4.8,-4.8,4.8c-2.6,0,-4.8,-2.2,-4.8,-4.8c0,-2.7,2.2,-4.9,4.8,-4.9Z" class="gw_114"/>
<path d="M183.8,1043.1H173c-.2,0,-.3,0,-.5,0c2.8,1,5,3.3,5.9,6.2c1.3,-.5,2.8,-.8,4.3,-.8c2.8,0,5.4,1,7.4,2.6v-1.7c0,-3.5,-2.8,-6.3,-6.3,-6.3Z" class="g1_114"/>
<path d="M162.3,1040.1c3.4,0,6.2,-2.8,6.2,-6.2c0,-3.3,-2.8,-6.1,-6.2,-6.1c-3.3,0,-6.1,2.8,-6.1,6.1c0,3.4,2.8,6.2,6.1,6.2Z" class="gx_114"/>
<path d="M162.3,1042c4.5,0,8.1,-3.6,8.1,-8.1c0,-4.4,-3.6,-8,-8.1,-8c-4.4,0,-8,3.6,-8,8c0,4.5,3.6,8.1,8,8.1m0,-14.2c3.4,0,6.2,2.8,6.2,6.1c0,3.4,-2.8,6.2,-6.2,6.2c-3.3,0,-6.1,-2.8,-6.1,-6.2c0,-3.3,2.8,-6.1,6.1,-6.1Z" class="gw_114"/>
<path d="M176.7,1050.1c-1,-3.3,-4,-5.8,-7.7,-5.8H155.7c-4.5,0,-8,3.6,-8,8v4.3h23.7c.9,-2.7,2.8,-5,5.3,-6.5Z" class="gx_114"/>
<path d="M182.7,1050.4c-5.5,0,-10,4.4,-10,9.9c0,5.5,4.5,10,10,10c5.5,0,10,-4.5,10,-10c0,-5.5,-4.5,-9.9,-10,-9.9m6.6,11.6c0,.3,-.2,.5,-.4,.5h-4.1v4c0,.3,-.2,.5,-.4,.5H181c-.3,0,-.5,-.2,-.5,-.5v-4h-4c-.3,0,-.5,-.2,-.5,-.5v-3.3c0,-.3,.2,-.5,.5,-.5h4v-4.1c0,-.2,.2,-.4,.5,-.4h3.4c.2,0,.4,.2,.4,.4v4.1h4.1c.2,0,.4,.2,.4,.5Z" class="gy_114"/>
<path d="M192,1053.1v-3.7c0,-4.5,-3.6,-8.2,-8.2,-8.2H173c-1.6,0,-3.1,.4,-4.4,1.2H155.7c-5.5,0,-9.9,4.5,-9.9,9.9v5.3c0,.5,.4,.9,.9,.9H171c-.1,.6,-.2,1.2,-.2,1.8c0,6.6,5.3,11.9,11.9,11.9c6.5,0,11.8,-5.3,11.8,-11.9c0,-2.7,-.9,-5.2,-2.5,-7.2m-9.3,17.2c-5.5,0,-10,-4.5,-10,-10c0,-5.5,4.5,-9.9,10,-9.9c5.5,0,10,4.4,10,9.9c0,5.5,-4.5,10,-10,10m-35,-18c0,-4.4,3.5,-8,8,-8H169c3.7,0,6.7,2.5,7.7,5.8c-2.5,1.5,-4.4,3.8,-5.3,6.5H147.7Zm42.4,-1.2c-2,-1.6,-4.6,-2.6,-7.4,-2.6c-1.5,0,-3,.3,-4.3,.8c-.9,-2.9,-3.1,-5.2,-5.9,-6.2c.2,0,.3,0,.5,0h10.8c3.5,0,6.3,2.8,6.3,6.3Z" class="gw_114"/>
<path d="M183.9,1058.7v-4.1h-2.4v4.1c0,.2,-.2,.4,-.5,.4h-4v2.4h4c.3,0,.5,.3,.5,.5v4.1h2.4V1062c0,-.2,.2,-.5,.5,-.5h4v-2.4h-4c-.3,0,-.5,-.2,-.5,-.4Z" class="g1_114"/>
<path d="M188.9,1058.2h-4.1v-4.1c0,-.2,-.2,-.4,-.4,-.4H181c-.3,0,-.5,.2,-.5,.4v4.1h-4c-.3,0,-.5,.2,-.5,.5v3.3c0,.3,.2,.5,.5,.5h4v4c0,.3,.2,.5,.5,.5h3.4c.2,0,.4,-.2,.4,-.5v-4h4.1c.2,0,.4,-.2,.4,-.5v-3.3c0,-.3,-.2,-.5,-.4,-.5m-.5,3.3h-4c-.3,0,-.5,.3,-.5,.5v4.1h-2.4V1062c0,-.2,-.2,-.5,-.5,-.5h-4v-2.4h4c.3,0,.5,-.2,.5,-.4v-4.1h2.4v4.1c0,.2,.2,.4,.5,.4h4Z" class="gw_114"/>
<path d="M132.5,1081.9v161.9m4.5,2.3H843.2m2.3,-4.6V1079.6m-4.6,-2.3H134.7" class="gz_114"/>
<path d="M132.5,1246.1v0m713,0v0m0,-168.8v0m-713,0v0" class="g10_114"/>
<image clip-path="url(#ci_114)" preserveAspectRatio="none" x="125" y="204" width="734" height="181" xlink:href="img/9.png"/>
<path d="M144.7,228.9c0,0,-13,0,-13,13V358.8c0,0,0,13,13,13H833.3c0,0,13,0,13,-13V228.9Z" class="g11_114"/>
<path d="M147.8,291.7l54.1,40.8L256,291.7V227.6h8.8V209.4H156v.1c-6.5,.3,-7.8,3.9,-8.2,8.3h-.1Z" class="g12_114"/>
<path d="M274.2,217.8c-.4,-4.7,-4.3,-8.4,-9.1,-8.4c-4.8,0,-8.7,3.7,-9,8.4H256v9.8h18.2v-9.8Z" class="gf_114"/>
<path d="M256,228.1H846.3" class="g13_114"/>
<path d="M32.1,45.1H9.2m958.3,0h22.9M32.1,1331.3H9.2m958.3,0h22.9M45.1,32.1V9.2m0,1335.1v22.9M954.5,32.1V9.2m0,1335.1v22.9" class="g14_114"/>
<path d="M32.1,45.1H9.2m958.3,0h22.9M32.1,1331.3H9.2m958.3,0h22.9M45.1,32.1V9.2m0,1335.1v22.9M954.5,32.1V9.2m0,1335.1v22.9" class="g15_114"/>
<path d="M27.5,32.1H0m972.1,0h27.5M27.5,1344.3H0m972.1,0h27.5M32.1,27.5V0m0,1348.9v27.5M967.5,27.5V0m0,1348.9v27.5" class="g14_114"/>
<path d="M27.5,32.1H0m972.1,0h27.5M27.5,1344.3H0m972.1,0h27.5M32.1,27.5V0m0,1348.9v27.5M967.5,27.5V0m0,1348.9v27.5" class="g15_114"/>
</svg>