<?xml version="1.0" encoding="UTF-8" standalone="no"?>
<!DOCTYPE svg PUBLIC "-//W3C//DTD SVG 1.1//EN"
"http://www.w3.org/Graphics/SVG/1.1/DTD/svg11.dtd">
<svg viewBox="0 0 999 1376" version="1.1" xmlns="http://www.w3.org/2000/svg" xmlns:xlink="http://www.w3.org/1999/xlink">
<defs>
<clipPath id="c0_139"><path d="M32.1,1344.3V32.1H967.5V1344.3Z"/></clipPath>
<clipPath id="c1_139"><path d="M209.4,595.1V497.3h97.8v97.8Z"/></clipPath>
<clipPath id="c2_139"><path d="M375.5,595.1V497.3h97.9v97.8Z"/></clipPath>
<clipPath id="c3_139"><path d="M541.7,595.1V497.3h97.9v97.8Z"/></clipPath>
<clipPath id="c4_139"><path d="M707.9,595.1V497.3h97.9v97.8Z"/></clipPath>
<clipPath id="c5_139"><path d="M207.7,751.4V653.5H321.9v97.9Z"/></clipPath>
<clipPath id="c6_139"><path d="M372.3,751.4V653.5H486.5v97.9Z"/></clipPath>
<clipPath id="c7_139"><path d="M209.4,438.9V341h97.8v97.9Z"/></clipPath>
<clipPath id="c8_139"><path d="M375.5,438.9V341h97.9v97.9Z"/></clipPath>
<clipPath id="c9_139"><path d="M541.7,438.9V341h97.9v97.9Z"/></clipPath>
<clipPath id="ca_139"><path d="M707.9,438.9V341h97.9v97.9Z"/></clipPath>
<clipPath id="cb_139"><path d="M240.3,1050.2V983.1h67v67.1Z"/></clipPath>
<clipPath id="cc_139"><path d="M404.9,1048.7V982.2h67.9v66.5Z"/></clipPath>
<clipPath id="cd_139"><path d="M568.3,1049.8v-67h67.1v67Z"/></clipPath>
<clipPath id="ce_139"><path d="M734.1,1051.7v-67h67.1v67Z"/></clipPath>
<clipPath id="cf_139"><path d="M198.6,321.8l-6.5,-2.2L175.7,305.7V248.6h72v73.2Z"/></clipPath>
<clipPath id="cg_139"><path d="M200.7,905.1L194.2,903L177.8,889.1V832h72v73.1Z"/></clipPath>
<clipPath id="ch_139"><path d="M658.6,177V59h200V177Z"/></clipPath>
<style type="text/css"><![CDATA[
.g0_139{
fill: #FEFCF4;
}
.g1_139{
fill: #FFF;
}
.g2_139{
fill: none;
stroke: #6381B7;
stroke-width: 0.763;
}
.g3_139{
fill: none;
stroke: #949698;
stroke-width: 1.344;
}
.g4_139{
fill: #FCE8B0;
}
.g5_139{
fill: none;
stroke: #231F20;
stroke-width: 1.527;
}
.g6_139{
fill: #ABB2C9;
}
.g7_139{
fill: #EFE9CC;
}
.g8_139{
fill: #6381B7;
}
.g9_139{
fill: none;
stroke: #6381B7;
stroke-width: 0.381;
stroke-dasharray: 2,1;
}
.ga_139{
fill: none;
stroke: #6381B7;
stroke-width: 0.381;
}
.gb_139{
fill: #2E6E51;
}
.gc_139{
fill: #BCBEC0;
}
.gd_139{
fill: #EE314A;
}
.ge_139{
fill: #25408F;
}
.gf_139{
fill: #00BAF1;
}
.gg_139{
fill: #332D2C;
}
.gh_139{
fill: #D9DFF0;
}
.gi_139{
fill: #F27C85;
}
.gj_139{
fill: #7DD3F6;
}
.gk_139{
fill: none;
stroke: #FFF;
stroke-width: 1.909;
stroke-miterlimit: 10;
}
.gl_139{
fill: none;
stroke: #000;
stroke-width: 0.381;
stroke-miterlimit: 10;
}
]]></style>
</defs>
<path d="M45.1,1344.3H967.5V32.1H45.1V1344.3Z" class="g0_139"/>
<path clip-path="url(#c0_139)" d="M-877.3,1344.3H45.1V32.1H-877.3V1344.3Z" class="g0_139"/>
<path d="M173.1,224.6c0,0,-18.4,0,-18.4,18.4V807.2c0,0,0,18.3,18.4,18.3H849.2c0,0,18.3,0,18.3,-18.3V224.6Z" class="g1_139"/>
<path d="M173.1,224.6c0,0,-18.4,0,-18.4,18.4V807.2c0,0,0,18.3,18.4,18.3H849.2c0,0,18.3,0,18.3,-18.3V224.6H173.1Z" class="g2_139"/>
<image clip-path="url(#c1_139)" preserveAspectRatio="none" x="209" y="497" width="98" height="98" xlink:href="img/1.jpg"/>
<path d="M184,595.1H332.6V497.3H184v97.8Z" class="g3_139"/>
<image clip-path="url(#c2_139)" preserveAspectRatio="none" x="376" y="497" width="97" height="98" xlink:href="img/2.jpg"/>
<path d="M350.2,595.1H498.8V497.3H350.2v97.8Z" class="g3_139"/>
<image clip-path="url(#c3_139)" preserveAspectRatio="none" x="542" y="497" width="98" height="98" xlink:href="img/3.jpg"/>
<path d="M516.3,595.1H665V497.3H516.3v97.8Z" class="g3_139"/>
<image clip-path="url(#c4_139)" preserveAspectRatio="none" x="708" y="497" width="98" height="98" xlink:href="img/4.jpg"/>
<path d="M682.5,595.1H831.2V497.3H682.5v97.8Z" class="g3_139"/>
<image clip-path="url(#c5_139)" preserveAspectRatio="none" x="208" y="652" width="114" height="99" xlink:href="img/5.jpg"/>
<path d="M184,751.4H332.6V653.5H184v97.9Z" class="g3_139"/>
<image clip-path="url(#c6_139)" preserveAspectRatio="none" x="372" y="652" width="115" height="99" xlink:href="img/6.jpg"/>
<path d="M350.2,751.4H498.8V653.5H350.2v97.9Z" class="g3_139"/>
<image clip-path="url(#c7_139)" preserveAspectRatio="none" x="209" y="341" width="98" height="98" xlink:href="img/7.jpg"/>
<path d="M184,438.9H332.6V341H184v97.9Z" class="g3_139"/>
<image clip-path="url(#c8_139)" preserveAspectRatio="none" x="376" y="341" width="97" height="98" xlink:href="img/8.jpg"/>
<path d="M350.2,438.9H498.8V341H350.2v97.9Z" class="g3_139"/>
<image clip-path="url(#c9_139)" preserveAspectRatio="none" x="542" y="341" width="98" height="98" xlink:href="img/9.jpg"/>
<path d="M516.3,438.9H665V341H516.3v97.9Z" class="g3_139"/>
<image clip-path="url(#ca_139)" preserveAspectRatio="none" x="708" y="341" width="98" height="98" xlink:href="img/10.jpg"/>
<path d="M682.5,438.9H831.2V341H682.5v97.9Z" class="g3_139"/>
<path d="M185.8,493.7H831.6V446.1H185.8v47.6Z" class="g1_139"/>
<path d="M185.8,648.3H831.6V600.7H185.8v47.6Z" class="g1_139"/>
<path d="M185.8,805.1H502V757.5H185.8v47.6Z" class="g1_139"/>
<path d="M529.6,650.4c0,0,-8.6,0,-8.6,8.7V802c0,0,0,8.6,8.6,8.6H845.8c0,0,8.6,0,8.6,-8.6V659.1c0,0,0,-8.7,-8.6,-8.7Z" class="g4_139"/>
<path d="M531.9,674.4c-.3,0,-.5,.1,-.7,.3c-.3,.2,-.4,.5,-.4,.8c0,.3,.1,.6,.4,.8c.2,.2,.4,.3,.7,.3c.3,0,.6,-.1,.8,-.3c.2,-.2,.3,-.5,.3,-.8c0,-.3,-.1,-.6,-.3,-.8c-.2,-.2,-.5,-.3,-.8,-.3Zm0,44.3c-.3,0,-.5,.1,-.7,.3c-.3,.2,-.4,.5,-.4,.8c0,.3,.1,.6,.4,.8c.2,.2,.4,.3,.7,.3c.3,0,.6,-.1,.8,-.3c.2,-.2,.3,-.5,.3,-.8c0,-.3,-.1,-.6,-.3,-.8c-.2,-.2,-.5,-.3,-.8,-.3Zm0,24.4c-.3,0,-.5,.1,-.7,.3c-.3,.3,-.4,.5,-.4,.8c0,.3,.1,.6,.4,.8c.2,.2,.4,.3,.7,.3c.3,0,.6,-.1,.8,-.3c.2,-.2,.3,-.5,.3,-.8c0,-.3,-.1,-.5,-.3,-.8c-.2,-.2,-.5,-.3,-.8,-.3Zm0,25.7c-.3,0,-.5,.1,-.7,.4c-.3,.2,-.4,.4,-.4,.7c0,.4,.1,.6,.4,.8c.2,.3,.4,.4,.7,.4c.3,0,.6,-.1,.8,-.4c.2,-.2,.3,-.4,.3,-.8c0,-.3,-.1,-.5,-.3,-.7c-.2,-.3,-.5,-.4,-.8,-.4Z" class="g5_139"/>
<path d="M166.5,920.3c0,0,-13,0,-13,13v248.2c0,0,0,13,13,13h688c0,0,13,0,13,-13V933.3c0,0,0,-13,-13,-13Z" class="g1_139"/>
<path d="M166.5,920.3c0,0,-13,0,-13,13v248.2c0,0,0,13,13,13h688c0,0,13,0,13,-13V933.3c0,0,0,-13,-13,-13h-688Z" class="g2_139"/>
<path d="M235.6,1053.4h75.6V977.6H235.6v75.8Z" class="g1_139"/>
<image clip-path="url(#cb_139)" preserveAspectRatio="none" x="240" y="983" width="67" height="67" xlink:href="img/11.jpg"/>
<path d="M401.9,1053.4h75V982.7h-75v70.7Z" class="g1_139"/>
<image clip-path="url(#cc_139)" preserveAspectRatio="none" x="405" y="982" width="67" height="67" xlink:href="img/12.jpg"/>
<path d="M563.9,1053.4H640V977.6H563.9v75.8Z" class="g1_139"/>
<image clip-path="url(#cd_139)" preserveAspectRatio="none" x="568" y="983" width="67" height="67" xlink:href="img/13.jpg"/>
<path d="M730.2,1053.4h72V982.7h-72v70.7Z" class="g1_139"/>
<image clip-path="url(#ce_139)" preserveAspectRatio="none" x="734" y="985" width="67" height="67" xlink:href="img/14.jpg"/>
<path d="M273.7,1069.2c2,0,3.6,-1.6,3.6,-3.6c0,-2,-1.6,-3.6,-3.6,-3.6c-2,0,-3.6,1.6,-3.6,3.6c0,2,1.6,3.6,3.6,3.6Z" class="g6_139"/>
<path d="M589.9,1069.2c2,0,3.6,-1.6,3.6,-3.6c0,-2,-1.6,-3.6,-3.6,-3.6c-2,0,-3.6,1.6,-3.6,3.6c0,2,1.6,3.6,3.6,3.6Z" class="g6_139"/>
<path d="M425.7,1069.2c1.9,0,3.6,-1.6,3.6,-3.6c0,-2,-1.7,-3.6,-3.6,-3.6c-2,0,-3.7,1.6,-3.7,3.6c0,2,1.7,3.6,3.7,3.6Z" class="g6_139"/>
<path d="M753,1069.2c2,0,3.6,-1.6,3.6,-3.6c0,-2,-1.6,-3.6,-3.6,-3.6c-2,0,-3.6,1.6,-3.6,3.6c0,2,1.6,3.6,3.6,3.6Z" class="g6_139"/>
<path d="M273.7,1138.5c2,0,3.6,-1.6,3.6,-3.6c0,-2,-1.6,-3.6,-3.6,-3.6c-2,0,-3.6,1.6,-3.6,3.6c0,2,1.6,3.6,3.6,3.6Z" class="g6_139"/>
<path d="M589.9,1138.5c2,0,3.6,-1.6,3.6,-3.6c0,-2,-1.6,-3.6,-3.6,-3.6c-2,0,-3.6,1.6,-3.6,3.6c0,2,1.6,3.6,3.6,3.6Z" class="g6_139"/>
<path d="M425.7,1138.5c1.9,0,3.6,-1.6,3.6,-3.6c0,-2,-1.7,-3.6,-3.6,-3.6c-2,0,-3.7,1.6,-3.7,3.6c0,2,1.7,3.6,3.7,3.6Z" class="g6_139"/>
<path d="M753,1138.5c2,0,3.6,-1.6,3.6,-3.6c0,-2,-1.6,-3.6,-3.6,-3.6c-2,0,-3.6,1.6,-3.6,3.6c0,2,1.6,3.6,3.6,3.6Z" class="g6_139"/>
<path d="M232.6,1147.9c0,0,-8.7,0,-8.7,8.7v15.1c0,0,0,8.7,8.7,8.7h69.3c0,0,8.6,0,8.6,-8.7v-15.1c0,0,0,-8.7,-8.6,-8.7Z" class="g7_139"/>
<path d="M565.3,1147.9c0,0,-8.6,0,-8.6,8.7v15.1c0,0,0,8.7,8.6,8.7h69.3c0,0,8.7,0,8.7,-8.7v-15.1c0,0,0,-8.7,-8.7,-8.7Z" class="g7_139"/>
<path d="M398.9,1147.9c0,0,-8.6,0,-8.6,8.7v15.1c0,0,0,8.7,8.6,8.7h69.3c0,0,8.7,0,8.7,-8.7v-15.1c0,0,0,-8.7,-8.7,-8.7Z" class="g7_139"/>
<path d="M730.6,1147.9c0,0,-8.7,0,-8.7,8.7v15.1c0,0,0,8.7,8.7,8.7h69.3c0,0,8.7,0,8.7,-8.7v-15.1c0,0,0,-8.7,-8.7,-8.7Z" class="g7_139"/>
<path d="M660.4,1214.8c0,0,-4.3,0,-4.3,4.4V1230c0,0,0,4.3,4.3,4.3h30.3c0,0,4.4,0,4.4,-4.3v-10.8c0,0,0,-4.4,-4.4,-4.4Z" class="g8_139"/>
<path d="M647.2,1206v37.5m1.4,1H866.8m.9,-1.3v-37.6m-1.3,-1H648.2" class="g9_139"/>
<path d="M647.2,1243.9v.6h.6m219.3,0h.6v-.6m0,-38.7v-.6h-.6m-219.3,0h-.6v.6" class="ga_139"/>
<path d="M231.2,276.8c0,0,-12.9,0,-12.9,13v21.6c0,0,0,13,12.9,13H833.3c0,0,13,0,13,-13V289.8c0,0,0,-13,-13,-13Z" class="g4_139"/>
<image clip-path="url(#cf_139)" preserveAspectRatio="none" x="174" y="247" width="75" height="76" xlink:href="img/15.png"/>
<path d="M226,317c0,0,-26.8,11.3,-51.1,-12.7c0,0,15.2,25.3,49.3,23.9c0,0,24.8,.4,20.3,-10.1c0,0,1.2,-4.4,-18.5,-1.1Z" class="g4_139"/>
<path d="M233.3,860.2c0,0,-13,0,-13,12.9v21.7c0,0,0,13,13,13H854.9c0,0,13,0,13,-13V873.1c0,0,0,-12.9,-13,-12.9Z" class="g4_139"/>
<image clip-path="url(#cg_139)" preserveAspectRatio="none" x="176" y="830" width="75" height="77" xlink:href="img/16.png"/>
<path d="M228.1,900.4c0,0,-26.8,11.3,-51.1,-12.7c0,0,15.2,25.3,49.3,23.9c0,0,24.8,.4,20.3,-10.1c0,0,1.2,-4.4,-18.5,-1.1Z" class="g4_139"/>
<path d="M32.1,179.3H967.5V32.1H32.1V179.3Z" class="gb_139"/>
<g clip-path="url(#c0_139)">
<path d="M967.5,177.2H-877.3v-5.4h736.6c43.1,0,53.1,-37.9,115.3,-37.9H967.5Z" class="gc_139"/>
<path d="M967.5,183.7H-877.3v-9.8h736.6c43.1,0,53.1,-33.6,115.3,-33.6H967.5Z" class="gd_139"/>
</g>
<path d="M153.3,217.5v22.2L165,250V227.8Z" class="ge_139"/>
<path d="M153.3,200.7v39H851.1c0,0,16.8,0,16.8,-16.8v-5.4c0,0,0,-16.8,-16.8,-16.8Z" class="g8_139"/>
<path d="M211.3,212.1l-6.5,-6.4l-21.2,21.2l6.5,6.4Z" class="gf_139"/>
<path d="M190.1,233.9c.1,0,.3,-.1,.4,-.2l21.2,-21.2c.1,-.1,.1,-.2,.1,-.4c0,-.1,0,-.2,-.1,-.3l-6.5,-6.5c-.2,-.2,-.6,-.2,-.8,0l-21.2,21.2c-.1,.1,-.1,.2,-.1,.4c0,.1,0,.2,.1,.3l6.5,6.5c.1,.1,.3,.2,.4,.2m20.5,-21.8l-20.5,20.5l-5.8,-5.7l20.5,-20.5Z" class="gg_139"/>
<path d="M211.3,212.1l-6.5,-6.4l2.1,-2.2l6.5,6.5Z" class="gh_139"/>
<path d="M211.3,212.7c.1,0,.3,-.1,.4,-.2l2.1,-2.1c.1,-.1,.2,-.2,.2,-.4c0,-.1,-.1,-.3,-.2,-.4l-6.5,-6.4c-.2,-.3,-.5,-.3,-.7,0l-2.2,2.1c-.1,.1,-.1,.2,-.1,.4c0,.1,0,.2,.1,.3l6.5,6.5c.1,.1,.3,.2,.4,.2m1.4,-2.7l-1.4,1.4l-5.7,-5.7l1.3,-1.4Z" class="gg_139"/>
<path d="M217,206.4l-6.4,-6.5l-3.7,3.6l6.5,6.5Z" class="gi_139"/>
<path d="M213.4,210.5c.2,0,.3,0,.4,-.1l3.6,-3.6c.2,-.2,.2,-.6,0,-.8l-6.5,-6.5c-.2,-.2,-.5,-.2,-.7,0l-3.6,3.7c-.2,.2,-.2,.5,0,.7l6.5,6.5c.1,.1,.2,.1,.3,.1m2.9,-4.1l-2.9,2.9l-5.7,-5.8l2.9,-2.8Z" class="gg_139"/>
<path d="M179,238l4.6,-11.1l6.5,6.4Z" class="g1_139"/>
<path d="M179,238.5c0,0,.1,0,.2,0l11.1,-4.7c.2,0,.3,-.2,.3,-.4c0,-.1,0,-.3,-.1,-.4L184,226.5c-.1,-.1,-.3,-.2,-.5,-.1c-.2,0,-.3,.1,-.4,.3l-4.6,11.1c-.1,.2,0,.4,.1,.6c.1,.1,.2,.1,.4,.1m10.2,-5.3l-9.3,3.8l3.9,-9.2Z" class="gg_139"/>
<path d="M179,238l2.2,-5.4l3.1,3.1Z" class="gg_139"/>
<path d="M179,238.5c0,0,.1,0,.2,0l5.3,-2.3c.2,0,.3,-.2,.4,-.4c0,-.1,-.1,-.3,-.2,-.4l-3.1,-3.2c-.1,-.1,-.3,-.1,-.5,-.1c-.2,0,-.3,.2,-.4,.3l-2.2,5.4c-.1,.2,0,.4,.1,.6c.1,.1,.2,.1,.4,.1m4.4,-2.9l-3.5,1.4l1.5,-3.5Z" class="gg_139"/>
<path d="M209.5,210.4l-2.9,-3l-21.2,21.2l2.9,3Z" class="gj_139"/>
<path d="M188.3,232.1c.2,0,.3,0,.4,-.1l21.2,-21.2c.1,-.1,.2,-.3,.2,-.4c0,-.2,-.1,-.3,-.2,-.4l-3,-3c-.2,-.2,-.5,-.2,-.7,0L185,228.3c-.1,.1,-.2,.2,-.2,.3c0,.2,.1,.3,.2,.4l3,3c.1,.1,.2,.1,.3,.1m20.5,-21.7l-20.5,20.4l-2.2,-2.2l20.5,-20.4Z" class="gg_139"/>
<image clip-path="url(#ch_139)" preserveAspectRatio="none" x="659" y="59" width="200" height="118" xlink:href="img/17.png"/>
<path d="M32.1,45.1H9.2m958.3,0h22.9M32.1,1331.3H9.2m958.3,0h22.9M45.1,32.1V9.2m0,1335.1v22.9M954.5,32.1V9.2m0,1335.1v22.9" class="gk_139"/>
<path d="M32.1,45.1H9.2m958.3,0h22.9M32.1,1331.3H9.2m958.3,0h22.9M45.1,32.1V9.2m0,1335.1v22.9M954.5,32.1V9.2m0,1335.1v22.9" class="gl_139"/>
<path d="M27.5,32.1H0m972.1,0h27.5M27.5,1344.3H0m972.1,0h27.5M32.1,27.5V0m0,1348.9v27.5M967.5,27.5V0m0,1348.9v27.5" class="gk_139"/>
<path d="M27.5,32.1H0m972.1,0h27.5M27.5,1344.3H0m972.1,0h27.5M32.1,27.5V0m0,1348.9v27.5M967.5,27.5V0m0,1348.9v27.5" class="gl_139"/>
</svg>