<?xml version="1.0" encoding="UTF-8" standalone="no"?>
<!DOCTYPE svg PUBLIC "-//W3C//DTD SVG 1.1//EN"
"http://www.w3.org/Graphics/SVG/1.1/DTD/svg11.dtd">
<svg viewBox="0 0 999 1376" version="1.1" xmlns="http://www.w3.org/2000/svg" xmlns:xlink="http://www.w3.org/1999/xlink">
<defs>
<clipPath id="c0_269"><path d="M32.1,1344.3V32.1H967.5V1344.3Z"/></clipPath>
<clipPath id="c1_269"><path d="M215,705.6V583.5H831.1V705.6Z"/></clipPath>
<clipPath id="c2_269"><path d="M215,889.1V767H831.1V889.1Z"/></clipPath>
<clipPath id="c3_269"><path d="M227.5,402.5c-9.2,0,-9.2,-9.2,-9.2,-9.2V328.9c0,-9.3,9.2,-9.3,9.2,-9.3h66.7c9.2,0,9.2,9.3,9.2,9.3v64.4c0,9.2,-9.2,9.2,-9.2,9.2Z"/></clipPath>
<clipPath id="c4_269"><path d="M225.8,493.3c-6.3,0,-6.3,-6.8,-6.3,-6.8V422.7c0,-6.8,6.3,-6.8,6.3,-6.8h70.6c6.3,0,6.3,6.8,6.3,6.8v63.8c0,6.8,-6.3,6.8,-6.3,6.8Z"/></clipPath>
<style type="text/css"><![CDATA[
.g0_269{
fill: #FEFCF4;
}
.g1_269{
fill: #F16865;
}
.g2_269{
fill: #6381B7;
}
.g3_269{
fill: none;
stroke: #6381B7;
stroke-width: 0.381;
stroke-dasharray: 2,1;
}
.g4_269{
fill: none;
stroke: #6381B7;
stroke-width: 0.381;
}
.g5_269{
fill: #FEF9F9;
}
.g6_269{
fill: none;
stroke: #A164A9;
stroke-width: 1.527;
stroke-linecap: round;
stroke-linejoin: round;
stroke-dasharray: 0,5;
}
.g7_269{
fill: none;
stroke: #A164A9;
stroke-width: 1.527;
stroke-linecap: round;
stroke-linejoin: round;
}
.g8_269{
fill: #A164A9;
}
.g9_269{
fill: #FFF;
}
.ga_269{
fill: none;
stroke: #949698;
stroke-width: 0.852;
}
.gb_269{
fill: none;
stroke: #8CC63E;
stroke-width: 1.527;
stroke-linecap: round;
stroke-linejoin: round;
stroke-dasharray: 0,5;
}
.gc_269{
fill: none;
stroke: #8CC63E;
stroke-width: 1.527;
stroke-linecap: round;
stroke-linejoin: round;
}
.gd_269{
fill: #8CC63E;
}
.ge_269{
fill: #6CCFF6;
}
.gf_269{
fill: none;
stroke: #231F20;
stroke-width: 1.375;
stroke-miterlimit: 10;
}
.gg_269{
fill: #485E75;
}
.gh_269{
fill: #EAD646;
}
.gi_269{
fill: none;
stroke: #231F20;
stroke-width: 1.527;
}
.gj_269{
fill: none;
stroke: #FFF;
stroke-width: 1.909;
stroke-miterlimit: 10;
}
.gk_269{
fill: none;
stroke: #000;
stroke-width: 0.381;
stroke-miterlimit: 10;
}
]]></style>
</defs>
<path clip-path="url(#c0_269)" d="M-877.3,1344.3H45.1V32.1H-877.3V1344.3Z" class="g0_269"/>
<path d="M45.1,1344.3H967.5V32.1H45.1V1344.3Z" class="g0_269"/>
<path clip-path="url(#c0_269)" d="M867.9,166.7c0,0,30.3,0,30.3,-30.3v-4.3c0,0,0,-30.3,-30.3,-30.3H-735.4c0,0,-30.4,0,-30.4,30.3v4.3c0,0,0,30.3,30.4,30.3Z" class="g1_269"/>
<path d="M675.9,970.3c0,0,-4.3,0,-4.3,4.4v10.8c0,0,0,4.3,4.3,4.3h30.3c0,0,4.3,0,4.3,-4.3V974.7c0,0,0,-4.4,-4.3,-4.4Z" class="g2_269"/>
<path d="M662.7,961.5v37.6m1.3,.9H866.8m.9,-1.3V961.1m-1.3,-.9H663.7" class="g3_269"/>
<path d="M662.7,999.4v.6h.6m203.8,0h.6v-.6m0,-38.7v-.5h-.6m-203.8,0h-.6v.5" class="g4_269"/>
<image preserveAspectRatio="none" x="690" y="65" width="167" height="118" xlink:href="img/1.png"/>
<path d="M154.1,952h713V251h-713V952Z" class="g5_269"/>
<path d="M154.1,255.6V949.7m4.6,2.3H864.9m2.2,-4.6V253.3M862.6,251H156.4" class="g6_269"/>
<path d="M154.1,952v0m713.1,0v0m0,-701v0m-713.1,0v0" class="g7_269"/>
<path d="M153.3,265.3V227c0,0,0,-8.7,8.7,-8.7H859.3c0,0,8.6,0,8.6,8.7v38.9Z" class="g8_269"/>
<image clip-path="url(#c1_269)" preserveAspectRatio="none" x="215" y="584" width="615" height="122" xlink:href="img/2.png"/>
<path d="M218.3,699.4H824.6V586.8H218.3V699.4Z" class="g9_269"/>
<image clip-path="url(#c2_269)" preserveAspectRatio="none" x="215" y="768" width="615" height="122" xlink:href="img/3.png"/>
<path d="M218.3,882.8H824.6V770.2H218.3V882.8Z" class="g9_269"/>
<image clip-path="url(#c3_269)" preserveAspectRatio="none" x="217" y="318" width="88" height="86" xlink:href="img/4.png"/>
<g clip-path="url(#c4_269)">
<image preserveAspectRatio="none" x="216" y="410" width="91" height="88" xlink:href="img/5.jpg"/>
<path d="M213.8,497.7H308V411.5H213.8v86.2Z" class="ga_269"/>
</g>
<path d="M154.1,1243.9h713V1045.4h-713v198.5Z" class="g9_269"/>
<path d="M154.1,1050v191.6m4.6,2.3H864.9m2.2,-4.6V1047.7m-4.5,-2.3H156.4" class="gb_269"/>
<path d="M154.1,1243.9v0m713.1,0v0m0,-198.5v0m-713.1,0v0" class="gc_269"/>
<path d="M153.3,1050v-28.6c0,0,0,-8.7,8.7,-8.7H859.3c0,0,8.6,0,8.6,8.7v29.1Z" class="gd_269"/>
<path d="M187.2,1026.5v-6.4c0,-4.8,-3.9,-8.7,-8.7,-8.7c-4.8,0,-8.6,3.9,-8.6,8.7v6.4Z" class="ge_269"/>
<path d="M187.2,1026.5v-6.4c0,-4.8,-3.9,-8.7,-8.7,-8.7c-4.8,0,-8.6,3.9,-8.6,8.7v6.4h17.3Z" class="gf_269"/>
<path d="M169.9,1028.3v5.3c0,4.8,3.8,8.7,8.6,8.7c4.8,0,8.7,-3.9,8.7,-8.7v-5.3Z" class="ge_269"/>
<path d="M169.9,1028.3v5.3c0,4.8,3.8,8.7,8.6,8.7c4.8,0,8.7,-3.9,8.7,-8.7v-5.3H169.9Z" class="gf_269"/>
<path d="M178.4,1047.1c-7.1,0,-13,-5.9,-13,-13.2h2.4c0,6,4.8,10.8,10.6,10.8c5.8,0,10.6,-4.8,10.6,-10.8h2.4c0,7.3,-5.8,13.2,-13,13.2Z" class="gg_269"/>
<path d="M178.4,1047.1c-7.1,0,-13,-5.9,-13,-13.2h2.4c0,6,4.8,10.8,10.6,10.8c5.8,0,10.6,-4.8,10.6,-10.8h2.4c0,7.3,-5.8,13.2,-13,13.2Z" class="gf_269"/>
<path d="M177.5,1054.3h2.4v-8.1h-2.4v8.1Z" class="gg_269"/>
<path d="M177.5,1054.3h2.4v-8.1h-2.4v8.1Z" class="gf_269"/>
<path d="M178.6,1050.7c-3.6,0,-6.6,2.2,-6.7,4.8h13.4c-.1,-2.6,-3.1,-4.8,-6.7,-4.8Z" class="gg_269"/>
<path d="M178.6,1050.7c-3.6,0,-6.6,2.2,-6.7,4.8h13.4c-.1,-2.6,-3.1,-4.8,-6.7,-4.8Z" class="gf_269"/>
<path d="M201.3,1006.2c-6.5,0,-11.9,5.3,-11.9,11.9c0,2.7,.9,5.2,2.4,7.2l-1.5,5.3l5.5,-1.9c1.7,.9,3.5,1.4,5.5,1.4c6.6,0,12,-5.4,12,-12c0,-6.6,-5.4,-11.9,-12,-11.9Z" class="gh_269"/>
<path d="M201.3,1006.2c-6.5,0,-11.9,5.3,-11.9,11.9c0,2.7,.9,5.2,2.4,7.2l-1.5,5.3l5.5,-1.9c1.7,.9,3.5,1.4,5.5,1.4c6.6,0,12,-5.4,12,-12c0,-6.6,-5.4,-11.9,-12,-11.9Z" class="gf_269"/>
<path d="M196.9,1017.9c0,.8,-.7,1.4,-1.4,1.4c-.8,0,-1.4,-.6,-1.4,-1.4c0,-.7,.6,-1.4,1.4,-1.4c.7,0,1.4,.7,1.4,1.4Z" class="g9_269"/>
<path d="M196.9,1017.9c0,.8,-.7,1.4,-1.4,1.4c-.8,0,-1.4,-.6,-1.4,-1.4c0,-.7,.6,-1.4,1.4,-1.4c.7,0,1.4,.7,1.4,1.4Z" class="gf_269"/>
<path d="M203,1018c0,.7,-.6,1.4,-1.4,1.4c-.8,0,-1.4,-.7,-1.4,-1.4c0,-.8,.6,-1.4,1.4,-1.4c.8,0,1.4,.6,1.4,1.4Z" class="g9_269"/>
<path d="M203,1018c0,.7,-.6,1.4,-1.4,1.4c-.8,0,-1.4,-.7,-1.4,-1.4c0,-.8,.6,-1.4,1.4,-1.4c.8,0,1.4,.6,1.4,1.4Z" class="gf_269"/>
<path d="M209.1,1018c0,.7,-.6,1.4,-1.4,1.4c-.8,0,-1.4,-.7,-1.4,-1.4c0,-.8,.6,-1.4,1.4,-1.4c.8,0,1.4,.6,1.4,1.4Z" class="g9_269"/>
<path d="M209.1,1018c0,.7,-.6,1.4,-1.4,1.4c-.8,0,-1.4,-.7,-1.4,-1.4c0,-.8,.6,-1.4,1.4,-1.4c.8,0,1.4,.6,1.4,1.4Z" class="gf_269"/>
<path d="M785.7,1032.4c0,0,-.5,-9.9,8.6,-9.3c0,0,6.8,-.4,6.7,9.5M785.7,1031v6.5c0,0,-3.4,.4,-4,-3c0,0,0,-3.7,4,-3.5Zm15.3,0v6.5c0,0,3.4,.4,3.9,-3c0,0,.1,-3.7,-3.9,-3.5Z" class="gi_269"/>
<path d="M32.1,45.1H9.2m958.3,0h22.9M32.1,1331.3H9.2m958.3,0h22.9M45.1,32.1V9.2m0,1335.1v22.9M954.5,32.1V9.2m0,1335.1v22.9" class="gj_269"/>
<path d="M32.1,45.1H9.2m958.3,0h22.9M32.1,1331.3H9.2m958.3,0h22.9M45.1,32.1V9.2m0,1335.1v22.9M954.5,32.1V9.2m0,1335.1v22.9" class="gk_269"/>
<path d="M27.5,32.1H0m972.1,0h27.5M27.5,1344.3H0m972.1,0h27.5M32.1,27.5V0m0,1348.9v27.5M967.5,27.5V0m0,1348.9v27.5" class="gj_269"/>
<path d="M27.5,32.1H0m972.1,0h27.5M27.5,1344.3H0m972.1,0h27.5M32.1,27.5V0m0,1348.9v27.5M967.5,27.5V0m0,1348.9v27.5" class="gk_269"/>
</svg>