<?xml version="1.0" encoding="UTF-8" standalone="no"?>
<!DOCTYPE svg PUBLIC "-//W3C//DTD SVG 1.1//EN"
"http://www.w3.org/Graphics/SVG/1.1/DTD/svg11.dtd">
<svg viewBox="0 0 999 1376" version="1.1" xmlns="http://www.w3.org/2000/svg" xmlns:xlink="http://www.w3.org/1999/xlink">
<defs>
<clipPath id="c0_128"><path d="M32.1,1344.3V32.1H967.5V1344.3Z"/></clipPath>
<clipPath id="c1_128"><path d="M262.2,654.9c-6.5,0,-6.5,-6.5,-6.5,-6.5V605.1c0,-6.5,6.5,-6.5,6.5,-6.5h69.3c6.5,0,6.5,6.5,6.5,6.5v43.3c0,6.5,-6.5,6.5,-6.5,6.5Z"/></clipPath>
<clipPath id="c2_128"><path d="M219.8,729.3V694.1h35.7v35.2Z"/></clipPath>
<clipPath id="c3_128"><path d="M260,729.3V694.1h35.7v35.2Z"/></clipPath>
<clipPath id="c4_128"><path d="M219.8,791.7V755.8h40.5v35.9Z"/></clipPath>
<clipPath id="c5_128"><path d="M219.8,866V834.8h35V866Z"/></clipPath>
<clipPath id="c6_128"><path d="M234.1,836.7V805.5h35v31.2Z"/></clipPath>
<clipPath id="c7_128"><path d="M257.4,866V834.8h35.1V866Z"/></clipPath>
<clipPath id="c8_128"><path d="M271.7,836.7V805.5h35.1v31.2Z"/></clipPath>
<clipPath id="c9_128"><path d="M261.3,791.7V755.8h40.6v35.9Z"/></clipPath>
<clipPath id="ca_128"><path d="M227.6,945.7V889.6h57.3v56.1Z"/></clipPath>
<clipPath id="cb_128"><path d="M186,493.3l-6.5,-2.2L163.1,477.2V420.1H235v73.2Z"/></clipPath>
<clipPath id="cc_128"><path d="M178.4,137.2c.1,-1.3,.7,-2.5,1.6,-3.4c1,-1,2.4,-1.6,3.9,-1.6h19.2v5Z"/></clipPath>
<clipPath id="cd_128"><path d="M177.9,137.7v-6h25.7v6Z"/></clipPath>
<style type="text/css"><![CDATA[
.g0_128{
fill: #FEFCF4;
}
.g1_128{
fill: #FFF;
}
.g2_128{
fill: none;
stroke: #6381B7;
stroke-width: 0.763;
}
.g3_128{
fill: #48484A;
}
.g4_128{
fill: #EFEAF4;
}
.g5_128{
fill: #766FA6;
}
.g6_128{
fill: none;
stroke: #231F20;
stroke-width: 0.305;
stroke-miterlimit: 10;
}
.g7_128{
fill: #FCE8B0;
}
.g8_128{
fill: #6381B7;
}
.g9_128{
fill: none;
stroke: #6381B7;
stroke-width: 0.381;
stroke-dasharray: 2,1;
}
.ga_128{
fill: none;
stroke: #6381B7;
stroke-width: 0.381;
}
.gb_128{
fill: #25408F;
}
.gc_128{
fill: none;
stroke: #231F20;
stroke-width: 1.527;
}
.gd_128{
fill: #39B4D1;
stroke: #2D2A4A;
stroke-width: 1.038;
stroke-linecap: round;
stroke-linejoin: round;
}
.ge_128{
fill: #2D2A4A;
}
.gf_128{
fill: none;
stroke: #2D2A4A;
stroke-width: 1.038;
stroke-linecap: round;
stroke-linejoin: round;
}
.gg_128{
fill: #DEDAD3;
}
.gh_128{
fill: #29263F;
}
.gi_128{
fill: #E15F46;
stroke: #2D2A4A;
stroke-width: 1.038;
stroke-linecap: round;
stroke-linejoin: round;
}
.gj_128{
fill: #DCE9F3;
}
.gk_128{
fill: #F0F5FA;
}
.gl_128{
fill: none;
stroke: #7CA7D8;
stroke-width: 1.527;
stroke-linecap: round;
stroke-linejoin: round;
stroke-dasharray: 0,5;
}
.gm_128{
fill: none;
stroke: #7CA7D8;
stroke-width: 1.527;
stroke-linecap: round;
stroke-linejoin: round;
}
.gn_128{
fill: #7CA7D8;
}
.go_128{
fill: #BFD62F;
}
.gp_128{
fill: #3D3B39;
}
.gq_128{
fill: #F5CA58;
}
.gr_128{
fill: none;
stroke: #FFF;
stroke-width: 1.909;
stroke-miterlimit: 10;
}
.gs_128{
fill: none;
stroke: #000;
stroke-width: 0.381;
stroke-miterlimit: 10;
}
]]></style>
</defs>
<path clip-path="url(#c0_128)" d="M954.5,1344.3H1877V32.1H954.5V1344.3Z" class="g0_128"/>
<path d="M145.1,508.8c0,0,-13,0,-13,13V949.6c0,0,0,13,13,13H832.9c0,0,13,0,13,-13V521.8c0,0,0,-13,-13,-13Z" class="g1_128"/>
<path d="M145.1,508.8c0,0,-13,0,-13,13V949.6c0,0,0,13,13,13H832.9c0,0,13,0,13,-13V521.8c0,0,0,-13,-13,-13H145.1Z" class="g2_128"/>
<path d="M169.2,599.4c0,0,-4.3,0,-4.3,4.3v14.8c0,0,0,4.3,4.1,5.8l52.4,18.5c0,0,4.1,1.4,4.1,-2.9V603.7c0,0,0,-4.3,-4.3,-4.3Z" class="g3_128"/>
<path d="M190.4,586.4c0,0,-13,0,-13,13v51.5c0,0,0,13,13,13H795.7c0,0,13,0,13,-13V599.4c0,0,0,-13,-13,-13Z" class="g4_128"/>
<path d="M169.2,597.2c0,0,-4.3,0,-4.3,4.4v17.3c0,0,0,4.3,4.3,4.3h37.3c0,0,4.3,0,4.3,-4.3V601.6c0,0,0,-4.4,-4.3,-4.4Z" class="g5_128"/>
<path d="M380.7,645.7H493.3" class="g6_128"/>
<image clip-path="url(#c1_128)" preserveAspectRatio="none" x="254" y="597" width="86" height="59" xlink:href="img/1.jpg"/>
<path d="M357.1,734.4H593.5M357.1,802.8H593.5M357.1,871.2H593.5M357.1,939.6H593.5" class="g6_128"/>
<image clip-path="url(#c2_128)" preserveAspectRatio="none" x="220" y="694" width="36" height="36" xlink:href="img/2.jpg"/>
<image clip-path="url(#c3_128)" preserveAspectRatio="none" x="260" y="694" width="36" height="36" xlink:href="img/3.jpg"/>
<image clip-path="url(#c4_128)" preserveAspectRatio="none" x="218" y="755" width="43" height="38" xlink:href="img/4.jpg"/>
<image clip-path="url(#c5_128)" preserveAspectRatio="none" x="220" y="834" width="36" height="33" xlink:href="img/5.jpg"/>
<image clip-path="url(#c6_128)" preserveAspectRatio="none" x="234" y="804" width="36" height="34" xlink:href="img/6.jpg"/>
<image clip-path="url(#c7_128)" preserveAspectRatio="none" x="257" y="834" width="36" height="33" xlink:href="img/7.jpg"/>
<image clip-path="url(#c8_128)" preserveAspectRatio="none" x="272" y="804" width="36" height="34" xlink:href="img/8.jpg"/>
<image clip-path="url(#c9_128)" preserveAspectRatio="none" x="260" y="755" width="42" height="38" xlink:href="img/9.jpg"/>
<image clip-path="url(#ca_128)" preserveAspectRatio="none" x="228" y="888" width="57" height="58" xlink:href="img/10.jpg"/>
<path d="M218.6,448.3c0,0,-13,0,-13,13v21.6c0,0,0,13,13,13H833.3c0,0,13,0,13,-13V461.3c0,0,0,-13,-13,-13Z" class="g7_128"/>
<image clip-path="url(#cb_128)" preserveAspectRatio="none" x="161" y="419" width="75" height="76" xlink:href="img/11.png"/>
<path d="M213.4,488.5c0,0,-26.9,11.3,-51.1,-12.7c0,0,15.1,25.3,49.3,23.9c0,0,24.7,.4,20.2,-10.1c0,0,1.2,-4.4,-18.4,-1.1Z" class="g7_128"/>
<path d="M315.7,980.9c0,0,-4.3,0,-4.3,4.4v10.8c0,0,0,4.3,4.3,4.3H346c0,0,4.3,0,4.3,-4.3V985.3c0,0,0,-4.4,-4.3,-4.4Z" class="g8_128"/>
<path d="M302.5,972.1v37.6m1.3,.9H845.1m1,-1.3V971.7m-1.4,-.9H303.5" class="g9_128"/>
<path d="M302.5,1010v.6h.6m542.4,0h.6v-.6m0,-38.7v-.5h-.6m-542.4,0h-.6v.5" class="ga_128"/>
<path d="M131.7,109.5v39l11.7,10.2V136.5Z" class="gb_128"/>
<path d="M131.7,109.5v39H829.5c0,0,16.8,0,16.8,-16.8v-5.4c0,0,0,-16.8,-16.8,-16.8Z" class="g8_128"/>
<path d="M768.8,131c0,0,-.5,-10,8.6,-9.4c0,0,6.7,-.3,6.6,9.5m-15.3,-1.5v6.5c0,0,-3.3,.3,-3.9,-3c0,0,-.1,-3.8,3.9,-3.5Zm15.4,0v6.5c0,0,3.3,.3,3.9,-3c0,0,.1,-3.8,-3.9,-3.5Z" class="gc_128"/>
<path d="M147.4,140.8h61v-32h-61v32Z" class="gd_128"/>
<path d="M147.4,143.1h61v-2.3h-61v2.3Z" class="gd_128"/>
<path d="M171.8,106.2H152.1v31.5h25.8V112.3c0,-3.4,-2.7,-6.1,-6.1,-6.1Z" class="g1_128"/>
<path d="M171.8,106.2v-.5H152.1c-.1,0,-.3,.1,-.4,.2c-.1,.1,-.1,.2,-.1,.3v31.5c0,.1,0,.3,.1,.4c.1,.1,.3,.1,.4,.1h25.8c.1,0,.2,0,.3,-.1c.1,-.1,.2,-.3,.2,-.4V112.3c0,-3.7,-2.9,-6.6,-6.6,-6.6v1c1.6,0,2.9,.7,3.9,1.7c1,1,1.6,2.3,1.6,3.9v24.9H152.6V106.7h19.2Z" class="ge_128"/>
<path d="M152.1,131.7v6h25.8c0,-3.3,-2.7,-6,-6.1,-6Z" class="g1_128"/>
<path d="M152.1,131.7h-.5v6c0,.1,0,.3,.1,.4c.1,.1,.3,.1,.4,.1h25.8c.1,0,.2,0,.3,-.1c.1,-.1,.2,-.3,.2,-.4c0,-3.6,-3,-6.6,-6.6,-6.6H152.1c-.1,0,-.3,.1,-.4,.2c-.1,.1,-.1,.2,-.1,.4h.5v.5h19.7c1.6,0,2.9,.6,3.9,1.6c1,1,1.6,2.4,1.6,3.9h.6v-.5H152.6v-5.5h-.5v.5Z" class="ge_128"/>
<path d="M155.6,110.9h17.2m-17.2,2.8h17.2m-17.2,2.9h17.2m-17.2,2.9h17.2m-17.2,2.8h17.2m-17.2,2.9h17.2M155.6,128h17.2" class="gf_128"/>
<path d="M171.8,132.2H152.6v5h24.7c-.1,-1.3,-.7,-2.5,-1.6,-3.4c-1,-1,-2.3,-1.6,-3.9,-1.6Z" class="gg_128"/>
<path d="M152.6,132.2h19.2c1.6,0,2.9,.6,3.9,1.6c.9,.9,1.5,2.1,1.6,3.4H152.6Zm19.2,-.5H152.1v6h25.2v-2.5c-.9,-2.1,-3,-3.5,-5.5,-3.5Z" class="gh_128"/>
<path d="M183.9,106.2h19.7v31.5H177.9V112.3c0,-3.4,2.7,-6.1,6,-6.1Z" class="g1_128"/>
<path d="M183.9,106.2v.5h19.2v30.5H178.4V112.3c0,-1.6,.6,-2.9,1.6,-3.9c1,-1,2.4,-1.7,3.9,-1.7v-1c-3.6,0,-6.6,2.9,-6.6,6.6v25.4c0,.1,.1,.3,.2,.4c.1,.1,.2,.1,.4,.1h25.7c.2,0,.3,0,.4,-.1c.1,-.1,.1,-.3,.1,-.4V106.2c0,-.1,0,-.2,-.1,-.3c-.1,-.1,-.2,-.2,-.4,-.2H183.9Z" class="ge_128"/>
<path d="M203.6,131.7v6H177.9c0,-3.3,2.7,-6,6,-6Z" class="g1_128"/>
<path d="M203.6,131.7h-.5v5.5H177.9v.5h.5c0,-1.5,.6,-2.9,1.6,-3.9c1,-1,2.4,-1.6,3.9,-1.6h19.7v-.5h-.5h.5v-.6H183.9c-3.6,0,-6.6,3,-6.6,6.6c0,.1,.1,.3,.2,.4c.1,.1,.2,.1,.4,.1h25.7c.2,0,.3,0,.4,-.1c.1,-.1,.1,-.3,.1,-.4v-6c0,-.2,0,-.3,-.1,-.4c-.1,-.1,-.2,-.2,-.4,-.2Z" class="ge_128"/>
<path d="M200.1,110.9H182.9m17.2,2.8H182.9m17.2,2.9H182.9m17.2,2.9H182.9m17.2,2.8H182.9m17.2,2.9H182.9m17.2,2.8H182.9" class="gf_128"/>
<path clip-path="url(#cc_128)" d="M178.4,137.2h24.7v-5H178.4v5Z" class="gg_128"/>
<path clip-path="url(#cd_128)" d="M178.4,137.2c.1,-1.3,.7,-2.5,1.6,-3.4c1,-1,2.4,-1.6,3.9,-1.6h19.2v5Zm25.2,-5.5H183.9c-3.3,0,-6,2.7,-6,6h25.7v-6h-.5h.5Z" class="gh_128"/>
<path d="M177.9,108.8v34.3" class="gf_128"/>
<path d="M195.5,145.5h3.3V134.7h-3.3v10.8Z" class="gi_128"/>
<path d="M149,166.3c0,0,-17.3,0,-17.3,17.4V358.2c0,0,0,17.3,17.3,17.3H828.9c0,0,17.4,0,17.4,-17.3V183.7c0,0,0,-17.4,-17.4,-17.4Z" class="gj_128"/>
<path d="M132.5,1243.9h713V1121h-713v122.9Z" class="gk_128"/>
<path d="M132.5,1125.6v116m4.5,2.3H843.2m2.3,-4.5V1123.3m-4.6,-2.3H134.7" class="gl_128"/>
<path d="M132.5,1243.9v0m713,0v0m0,-122.9v0m-713,0v0" class="gm_128"/>
<path d="M131.7,1124.3v-28.7c0,0,0,-8.6,8.6,-8.6H837.6c0,0,8.7,0,8.7,8.6v29.2Z" class="gn_128"/>
<path d="M173.8,1091.1c3.4,0,6.1,-2.8,6.1,-6.1c0,-3.4,-2.7,-6.1,-6.1,-6.1c-3.3,0,-6,2.7,-6,6.1c0,3.3,2.7,6.1,6,6.1Z" class="go_128"/>
<path d="M173.8,1093c4.5,0,8.1,-3.6,8.1,-8c0,-4.5,-3.6,-8.1,-8.1,-8.1c-4.4,0,-8,3.6,-8,8.1c0,4.4,3.6,8,8,8m0,-14.1c3.4,0,6.1,2.7,6.1,6.1c0,3.3,-2.7,6.1,-6.1,6.1c-3.3,0,-6,-2.8,-6,-6.1c0,-3.4,2.7,-6.1,6,-6.1Z" class="gp_128"/>
<path d="M159.2,1107.1h29.3v-3.8c0,-4.4,-3.6,-8,-8,-8H167.2c-4.4,0,-8,3.6,-8,8Z" class="go_128"/>
<path d="M150.9,1112.4h45.9V1109H150.9v3.4Z" class="g1_128"/>
<path d="M197.7,1107.1h-2.6v-11.6c0,-.2,-.1,-.5,-.3,-.6l-2.6,-2.6c.3,-.6,.5,-1.2,.5,-1.8c0,-2,-1.6,-3.6,-3.6,-3.6c-2,0,-3.7,1.6,-3.7,3.6c0,2,1.7,3.6,3.7,3.6c.6,0,1.2,-.2,1.7,-.5l2.4,2.3v11.2h-2.8v-3.8c0,-5.5,-4.4,-9.9,-9.9,-9.9H167.2c-5.5,0,-9.9,4.4,-9.9,9.9v3.8H150c-.6,0,-1,.4,-1,.9v5.4c0,.5,.4,.9,1,.9h2.6v11.3c0,.6,.5,1,1,1h40.5c.5,0,1,-.4,1,-1v-11.3h2.6c.6,0,1,-.4,1,-.9V1108c0,-.5,-.4,-.9,-1,-.9m-8.6,-14.9c-1,0,-1.7,-.8,-1.7,-1.7c0,-.9,.7,-1.7,1.7,-1.7c.9,0,1.6,.8,1.6,1.7c0,.9,-.7,1.7,-1.6,1.7m7.7,20.2H150.9V1109h45.9Zm-3.7,12.3H154.6v-10.4h38.5v10.4Zm-25.9,-29.4h13.3c4.4,0,8,3.6,8,8v3.8H159.2v-3.8c0,-4.4,3.6,-8,8,-8Z" class="gp_128"/>
<path d="M154.6,1124.7h38.5v-10.4H154.6v10.4Zm2.8,-7.6c0,-.2,.2,-.4,.4,-.4h32.1c.2,0,.4,.2,.4,.4v4.8c0,.2,-.2,.4,-.4,.4H157.8c-.2,0,-.4,-.2,-.4,-.4Z" class="g1_128"/>
<path d="M158.3,1121.4h31.1v-3.8H158.3v3.8Z" class="gq_128"/>
<path d="M157.8,1122.3h32.1c.2,0,.4,-.2,.4,-.4v-4.8c0,-.2,-.2,-.4,-.4,-.4H157.8c-.2,0,-.4,.2,-.4,.4v4.8c0,.2,.2,.4,.4,.4m.5,-4.7h31.1v3.8H158.3Z" class="gp_128"/>
<path d="M190.7,1090.5c0,-.9,-.7,-1.7,-1.6,-1.7c-1,0,-1.7,.8,-1.7,1.7c0,.9,.7,1.7,1.7,1.7c.9,0,1.6,-.8,1.6,-1.7Z" class="g1_128"/>
<path d="M32.1,45.1H9.2m958.3,0h22.9M32.1,1331.3H9.2m958.3,0h22.9M45.1,32.1V9.2m0,1335.1v22.9M954.5,32.1V9.2m0,1335.1v22.9" class="gr_128"/>
<path d="M32.1,45.1H9.2m958.3,0h22.9M32.1,1331.3H9.2m958.3,0h22.9M45.1,32.1V9.2m0,1335.1v22.9M954.5,32.1V9.2m0,1335.1v22.9" class="gs_128"/>
<path d="M27.5,32.1H0m972.1,0h27.5M27.5,1344.3H0m972.1,0h27.5M32.1,27.5V0m0,1348.9v27.5M967.5,27.5V0m0,1348.9v27.5" class="gr_128"/>
<path d="M27.5,32.1H0m972.1,0h27.5M27.5,1344.3H0m972.1,0h27.5M32.1,27.5V0m0,1348.9v27.5M967.5,27.5V0m0,1348.9v27.5" class="gs_128"/>
</svg>