<?xml version="1.0" encoding="UTF-8" standalone="no"?>
<!DOCTYPE svg PUBLIC "-//W3C//DTD SVG 1.1//EN"
"http://www.w3.org/Graphics/SVG/1.1/DTD/svg11.dtd">
<svg viewBox="0 0 999 1376" version="1.1" xmlns="http://www.w3.org/2000/svg" xmlns:xlink="http://www.w3.org/1999/xlink">
<defs>
<clipPath id="c0_103"><path d="M32.1,1344.3V32.1H967.5V1344.3Z"/></clipPath>
<clipPath id="c1_103"><path d="M209.5,1194.5c-6.4,0,-6.4,-6.4,-6.4,-6.4V1017.9c0,-6.4,6.4,-6.4,6.4,-6.4H435.7c6.4,0,6.4,6.4,6.4,6.4v170.2c0,6.4,-6.4,6.4,-6.4,6.4Z"/></clipPath>
<clipPath id="c2_103"><path d="M199.2,334.7l-6.5,-2.1L176.3,318.7V261.6h72v73.1Z"/></clipPath>
<clipPath id="c3_103"><path d="M198.2,948.4l-6.5,-2.1L175.3,932.4V875.3h72v73.1Z"/></clipPath>
<clipPath id="c4_103"><path d="M217.9,414.9v-60h74.6v60Z"/></clipPath>
<clipPath id="c5_103"><path d="M315.1,414.9v-60h74.6v60Z"/></clipPath>
<clipPath id="c6_103"><path d="M217,481.3v-60h72.5v60Z"/></clipPath>
<clipPath id="c7_103"><path d="M308.7,481.3v-60H388v60Z"/></clipPath>
<clipPath id="c8_103"><path d="M352.6,695V589.1H802.4V695Z"/></clipPath>
<clipPath id="c9_103"><path d="M352.6,830.8V702.2H802.4V830.8Z"/></clipPath>
<clipPath id="ca_103"><path d="M511.1,588.3V538h103v50.3Z"/></clipPath>
<clipPath id="cb_103"><path d="M565.6,537.7V498.2h36.5v39.5Z"/></clipPath>
<clipPath id="cc_103"><path d="M510.2,538.5v-39h31.2v39Z"/></clipPath>
<clipPath id="cd_103"><path d="M658.6,177V59h200V177Z"/></clipPath>
<style type="text/css"><![CDATA[
.g0_103{
fill: #FEFCF4;
}
.g1_103{
fill: #FFF;
}
.g2_103{
fill: none;
stroke: #6381B7;
stroke-width: 0.763;
}
.g3_103{
fill: #48484A;
}
.g4_103{
fill: #E1E0ED;
}
.g5_103{
fill: #766FA6;
}
.g6_103{
fill: none;
stroke: #231F20;
stroke-width: 0.305;
stroke-miterlimit: 10;
}
.g7_103{
fill: #6381B7;
}
.g8_103{
fill: none;
stroke: #6381B7;
stroke-width: 0.381;
stroke-dasharray: 2,1;
}
.g9_103{
fill: none;
stroke: #6381B7;
stroke-width: 0.381;
}
.ga_103{
fill: #FCE8B0;
}
.gb_103{
fill: none;
stroke: #231F20;
stroke-width: 1.527;
stroke-miterlimit: 3;
}
.gc_103{
fill: none;
stroke: #949698;
stroke-width: 0.296;
}
.gd_103{
fill: #2E6E51;
}
.ge_103{
fill: #BCBEC0;
}
.gf_103{
fill: #EE314A;
}
.gg_103{
fill: none;
stroke: #BCBEC0;
stroke-width: 0.432;
}
.gh_103{
fill: #25408F;
}
.gi_103{
fill: #00BAF1;
}
.gj_103{
fill: #332D2C;
}
.gk_103{
fill: #D9DFF0;
}
.gl_103{
fill: #F27C85;
}
.gm_103{
fill: #7DD3F6;
}
.gn_103{
fill: #EDF1CE;
}
.go_103{
fill: #DCE09B;
}
.gp_103{
fill: #F9E5EF;
}
.gq_103{
fill: #F2CEE1;
}
.gr_103{
fill: none;
stroke: #FFF;
stroke-width: 1.909;
stroke-miterlimit: 10;
}
.gs_103{
fill: none;
stroke: #000;
stroke-width: 0.381;
stroke-miterlimit: 10;
}
]]></style>
</defs>
<path d="M45.1,1344.3H967.5V32.1H45.1V1344.3Z" class="g0_103"/>
<path clip-path="url(#c0_103)" d="M-877.3,1344.3H45.1V32.1H-877.3V1344.3Z" class="g0_103"/>
<path d="M172.6,224.6c0,0,-18.4,0,-18.4,18.4V827.5c0,0,0,18.4,18.4,18.4H849.7c0,0,18.3,0,18.3,-18.4V224.6Z" class="g1_103"/>
<path d="M172.6,224.6c0,0,-18.4,0,-18.4,18.4V827.5c0,0,0,18.4,18.4,18.4H849.7c0,0,18.3,0,18.3,-18.4V224.6H172.6Z" class="g2_103"/>
<path d="M166.7,859.6c0,0,-13,0,-13,13v314.3c0,0,0,13,13,13H854.5c0,0,13,0,13,-13V872.6c0,0,0,-13,-13,-13Z" class="g1_103"/>
<path d="M166.7,859.6c0,0,-13,0,-13,13v314.3c0,0,0,13,13,13H854.5c0,0,13,0,13,-13V872.6c0,0,0,-13,-13,-13H166.7Z" class="g2_103"/>
<path d="M466.5,1072.2c0,0,-4.3,0,-4.3,4.3v14.4c0,0,0,4.3,4,5.8l52.5,18.2c0,0,4.1,1.4,4.1,-2.9v-35.5c0,0,0,-4.3,-4.3,-4.3Z" class="g3_103"/>
<path d="M487.6,1044.2c0,0,-13,0,-13,13v53.2c0,0,0,13,13,13H801.2c0,0,13,0,13,-13v-53.2c0,0,0,-13,-13,-13Z" class="g4_103"/>
<path d="M466.5,1070.1c0,0,-4.3,0,-4.3,4.3v16.9c0,0,0,4.4,4.3,4.4h37.3c0,0,4.3,0,4.3,-4.4v-16.9c0,0,0,-4.3,-4.3,-4.3Z" class="g5_103"/>
<path d="M209.5,1011.5c0,0,-6.4,0,-6.4,6.4v170.2c0,0,0,6.4,6.4,6.4H435.7c0,0,6.4,0,6.4,-6.4V1017.9c0,0,0,-6.4,-6.4,-6.4Z" class="g1_103"/>
<image clip-path="url(#c1_103)" preserveAspectRatio="none" x="202" y="1010" width="242" height="186" xlink:href="img/1.png"/>
<path d="M206.4,1087h83.4v-24.2H206.4V1087Z" class="g1_103"/>
<path d="M225.4,1075.8h51.1" class="g6_103"/>
<path d="M259.4,1147.7h83.4v-24.3H259.4v24.3Z" class="g1_103"/>
<path d="M278.4,1136.4h51.2" class="g6_103"/>
<path d="M356.9,1196h22.7v-14.7H356.9V1196Z" class="g1_103"/>
<path d="M323.3,1080.1h73.6v-17.3H323.3v17.3Z" class="g1_103"/>
<path d="M342.3,1075.8h51" class="g6_103"/>
<path d="M376.4,1140.7H450v-17.3H376.4v17.3Z" class="g1_103"/>
<path d="M395.4,1136.4h51" class="g6_103"/>
<path d="M566,1214.8c0,0,-4.3,0,-4.3,4.4V1230c0,0,0,4.3,4.3,4.3h30.3c0,0,4.3,0,4.3,-4.3v-10.8c0,0,0,-4.4,-4.3,-4.4Z" class="g7_103"/>
<path d="M552.8,1206v37.5m1.3,1H866.8m.9,-1.3v-37.6m-1.3,-1H553.8" class="g8_103"/>
<path d="M552.8,1243.9v.6h.6m313.8,0h.5v-.6m0,-38.7v-.6h-.5m-313.8,0h-.6v.6" class="g9_103"/>
<path d="M231.8,263.8c0,0,-13,0,-13,13v47.6c0,0,0,13,13,13h602c0,0,13,0,13,-13V276.8c0,0,0,-13,-13,-13Z" class="ga_103"/>
<image clip-path="url(#c2_103)" preserveAspectRatio="none" x="175" y="260" width="75" height="76" xlink:href="img/2.png"/>
<path d="M226.6,330c0,0,-26.9,11.3,-51.1,-12.7c0,0,15.1,25.3,49.3,23.9c0,0,24.7,.4,20.2,-10.1c0,0,1.2,-4.4,-18.4,-1.1Z" class="ga_103"/>
<path d="M230.9,904.3c0,0,-13,0,-13,13v21.6c0,0,0,13,13,13H832.8c0,0,13,0,13,-13V917.3c0,0,0,-13,-13,-13Z" class="ga_103"/>
<image clip-path="url(#c3_103)" preserveAspectRatio="none" x="174" y="874" width="75" height="76" xlink:href="img/3.png"/>
<path d="M225.7,943.7c0,0,-26.9,11.3,-51.1,-12.8c0,0,15.1,25.4,49.2,24c0,0,24.8,.3,20.3,-10.1c0,0,1.2,-4.5,-18.4,-1.1Z" class="ga_103"/>
<path d="M543.7,362c-.4,0,-.6,.2,-.9,.4c-.2,.2,-.3,.5,-.3,.8c0,.4,.1,.7,.3,.9c.3,.2,.5,.3,.9,.3c.3,0,.5,-.1,.8,-.3c.2,-.2,.3,-.5,.3,-.9c0,-.3,-.1,-.6,-.3,-.8c-.3,-.2,-.5,-.4,-.8,-.4Zm0,19.6c-.4,0,-.6,.1,-.9,.4c-.2,.2,-.3,.5,-.3,.8c0,.3,.1,.6,.3,.8c.3,.3,.5,.4,.9,.4c.3,0,.5,-.1,.8,-.4c.2,-.2,.3,-.5,.3,-.8c0,-.3,-.1,-.6,-.3,-.8c-.3,-.3,-.5,-.4,-.8,-.4Z" class="gb_103"/>
<path d="M205.5,414.9h93.2v-60H205.5v60Z" class="g1_103"/>
<image clip-path="url(#c4_103)" preserveAspectRatio="none" x="218" y="353" width="74" height="63" xlink:href="img/4.jpg"/>
<path d="M205.5,414.9h93.2v-60H205.5v60Z" class="gc_103"/>
<path d="M302.7,414.9h93.2v-60H302.7v60Z" class="g1_103"/>
<image clip-path="url(#c5_103)" preserveAspectRatio="none" x="315" y="353" width="75" height="63" xlink:href="img/5.jpg"/>
<path d="M302.7,414.9h93.2v-60H302.7v60Z" class="gc_103"/>
<path d="M205.5,481.3h93.2v-60H205.5v60Z" class="g1_103"/>
<image clip-path="url(#c6_103)" preserveAspectRatio="none" x="217" y="420" width="72" height="63" xlink:href="img/6.jpg"/>
<path d="M205.5,481.3h93.2v-60H205.5v60Z" class="gc_103"/>
<path d="M302.7,481.3h93.2v-60H302.7v60Z" class="g1_103"/>
<image clip-path="url(#c7_103)" preserveAspectRatio="none" x="309" y="420" width="79" height="63" xlink:href="img/7.jpg"/>
<path d="M302.7,481.3h93.2v-60H302.7v60Z" class="gc_103"/>
<path d="M543.7,428.8c-.4,0,-.6,.1,-.9,.4c-.2,.2,-.3,.5,-.3,.8c0,.3,.1,.6,.3,.8c.3,.3,.5,.4,.9,.4c.3,0,.5,-.1,.8,-.4c.2,-.2,.3,-.5,.3,-.8c0,-.3,-.1,-.6,-.3,-.8c-.3,-.3,-.5,-.4,-.8,-.4Zm0,19.6c-.4,0,-.6,.1,-.9,.3c-.2,.3,-.3,.5,-.3,.9c0,.3,.1,.6,.3,.8c.3,.2,.5,.4,.9,.4c.3,0,.5,-.2,.8,-.4c.2,-.2,.3,-.5,.3,-.8c0,-.4,-.1,-.6,-.3,-.9c-.3,-.2,-.5,-.3,-.8,-.3Z" class="gb_103"/>
<path d="M32.1,179.3H967.5V32.1H32.1V179.3Z" class="gd_103"/>
<g clip-path="url(#c0_103)">
<path d="M967.5,177.2H-877.3v-5.4h736.6c43.1,0,53.1,-37.9,115.3,-37.9H967.5Z" class="ge_103"/>
<path d="M967.5,183.7H-877.3v-9.8h736.6c43.1,0,53.1,-33.6,115.3,-33.6H967.5Z" class="gf_103"/>
<path d="M967.5,183.7H-877.3v-9.8h736.6c43.1,0,53.1,-33.6,115.3,-33.6H967.5v43.4Z" class="gg_103"/>
</g>
<path d="M153.3,217.5v22.2L165,250V227.8Z" class="gh_103"/>
<path d="M153.3,200.7v39H851.1c0,0,16.8,0,16.8,-16.8v-5.4c0,0,0,-16.8,-16.8,-16.8Z" class="g7_103"/>
<path d="M211.3,212.1l-6.5,-6.4l-21.2,21.2l6.5,6.4Z" class="gi_103"/>
<path d="M190.1,233.9c.1,0,.3,-.1,.4,-.2l21.2,-21.2c.1,-.1,.1,-.2,.1,-.4c0,-.1,0,-.2,-.1,-.3l-6.5,-6.5c-.2,-.2,-.6,-.2,-.8,0l-21.2,21.2c-.1,.1,-.1,.2,-.1,.4c0,.1,0,.2,.1,.3l6.5,6.5c.1,.1,.3,.2,.4,.2m20.5,-21.8l-20.5,20.5l-5.8,-5.7l20.5,-20.5Z" class="gj_103"/>
<path d="M211.3,212.1l-6.5,-6.4l2.1,-2.2l6.5,6.5Z" class="gk_103"/>
<path d="M211.3,212.7c.1,0,.3,-.1,.4,-.2l2.1,-2.1c.1,-.1,.2,-.2,.2,-.4c0,-.1,-.1,-.3,-.2,-.4l-6.5,-6.4c-.2,-.3,-.5,-.3,-.7,0l-2.2,2.1c-.1,.1,-.1,.2,-.1,.4c0,.1,0,.2,.1,.3l6.5,6.5c.1,.1,.3,.2,.4,.2m1.4,-2.7l-1.4,1.4l-5.7,-5.7l1.3,-1.4Z" class="gj_103"/>
<path d="M217,206.4l-6.4,-6.5l-3.7,3.6l6.5,6.5Z" class="gl_103"/>
<path d="M213.4,210.5c.2,0,.3,0,.4,-.1l3.6,-3.6c.2,-.2,.2,-.6,0,-.8l-6.5,-6.5c-.2,-.2,-.5,-.2,-.7,0l-3.6,3.7c-.2,.2,-.2,.5,0,.7l6.5,6.5c.1,.1,.2,.1,.3,.1m2.9,-4.1l-2.9,2.9l-5.7,-5.8l2.9,-2.8Z" class="gj_103"/>
<path d="M179,238l4.6,-11.1l6.5,6.4Z" class="g1_103"/>
<path d="M179,238.5c0,0,.1,0,.2,0l11.1,-4.7c.2,0,.3,-.2,.3,-.4c0,-.1,0,-.3,-.1,-.4L184,226.5c-.1,-.1,-.3,-.2,-.5,-.1c-.2,0,-.3,.1,-.4,.3l-4.6,11.1c-.1,.2,0,.4,.1,.6c.1,.1,.2,.1,.4,.1m10.2,-5.3l-9.3,3.8l3.9,-9.2Z" class="gj_103"/>
<path d="M179,238l2.2,-5.4l3.1,3.1Z" class="gj_103"/>
<path d="M179,238.5c0,0,.1,0,.2,0l5.3,-2.3c.2,0,.3,-.2,.4,-.4c0,-.1,-.1,-.3,-.2,-.4l-3.1,-3.2c-.1,-.1,-.3,-.1,-.5,-.1c-.2,0,-.3,.2,-.4,.3l-2.2,5.4c-.1,.2,0,.4,.1,.6c.1,.1,.2,.1,.4,.1m4.4,-2.9l-3.5,1.4l1.5,-3.5Z" class="gj_103"/>
<path d="M209.5,210.4l-2.9,-3l-21.2,21.2l2.9,3Z" class="gm_103"/>
<path d="M188.3,232.1c.2,0,.3,0,.4,-.1l21.2,-21.2c.1,-.1,.2,-.3,.2,-.4c0,-.2,-.1,-.3,-.2,-.4l-3,-3c-.2,-.2,-.5,-.2,-.7,0L185,228.3c-.1,.1,-.2,.2,-.2,.3c0,.2,.1,.3,.2,.4l3,3c.1,.1,.2,.1,.3,.1m20.5,-21.7l-20.5,20.4l-2.2,-2.2l20.5,-20.4Z" class="gj_103"/>
<path d="M342,605.4c0,0,-4.2,0,-4.2,4.1v82.7c0,0,0,4.1,4.2,4.1H810.1c0,0,4.1,0,4.1,-4.1V609.5c0,0,0,-4.1,-4.1,-4.1Z" class="gn_103"/>
<image clip-path="url(#c8_103)" preserveAspectRatio="none" x="351" y="587" width="453" height="110" xlink:href="img/8.png"/>
<path d="M209.5,605.4c0,0,-4.2,0,-4.2,4.1v82.7c0,0,0,4.1,4.2,4.1h121c0,0,4.2,0,4.2,-4.1V609.5c0,0,0,-4.1,-4.2,-4.1Z" class="go_103"/>
<path d="M342,699.6c0,0,-4.2,0,-4.2,4.1v90c0,0,0,4.2,4.2,4.2H810.1c0,0,4.1,0,4.1,-4.2v-90c0,0,0,-4.1,-4.1,-4.1Z" class="gp_103"/>
<image clip-path="url(#c9_103)" preserveAspectRatio="none" x="351" y="700" width="453" height="132" xlink:href="img/9.png"/>
<path d="M209.5,699.6c0,0,-4.2,0,-4.2,4.1v90c0,0,0,4.2,4.2,4.2h121c0,0,4.2,0,4.2,-4.2v-90c0,0,0,-4.1,-4.2,-4.1Z" class="gq_103"/>
<image clip-path="url(#ca_103)" preserveAspectRatio="none" x="509" y="536" width="107" height="54" xlink:href="img/10.png"/>
<path d="M565.6,537.7h36.5V498.2H565.6v39.5Z" class="g1_103"/>
<image clip-path="url(#cb_103)" preserveAspectRatio="none" x="564" y="497" width="40" height="42" xlink:href="img/11.png"/>
<image clip-path="url(#cc_103)" preserveAspectRatio="none" x="509" y="498" width="34" height="42" xlink:href="img/12.png"/>
<image clip-path="url(#cd_103)" preserveAspectRatio="none" x="659" y="59" width="200" height="118" xlink:href="img/13.png"/>
<path d="M32.1,45.1H9.2m958.3,0h22.9M32.1,1331.3H9.2m958.3,0h22.9M45.1,32.1V9.2m0,1335.1v22.9M954.5,32.1V9.2m0,1335.1v22.9" class="gr_103"/>
<path d="M32.1,45.1H9.2m958.3,0h22.9M32.1,1331.3H9.2m958.3,0h22.9M45.1,32.1V9.2m0,1335.1v22.9M954.5,32.1V9.2m0,1335.1v22.9" class="gs_103"/>
<path d="M27.5,32.1H0m972.1,0h27.5M27.5,1344.3H0m972.1,0h27.5M32.1,27.5V0m0,1348.9v27.5M967.5,27.5V0m0,1348.9v27.5" class="gr_103"/>
<path d="M27.5,32.1H0m972.1,0h27.5M27.5,1344.3H0m972.1,0h27.5M32.1,27.5V0m0,1348.9v27.5M967.5,27.5V0m0,1348.9v27.5" class="gs_103"/>
</svg>