<?xml version="1.0" encoding="UTF-8" standalone="no"?>
<!DOCTYPE svg PUBLIC "-//W3C//DTD SVG 1.1//EN"
"http://www.w3.org/Graphics/SVG/1.1/DTD/svg11.dtd">
<svg viewBox="0 0 999 1376" version="1.1" xmlns="http://www.w3.org/2000/svg" xmlns:xlink="http://www.w3.org/1999/xlink">
<defs>
<clipPath id="c0_322"><path d="M196.7,625.4V530.5h94.8v94.9Z"/></clipPath>
<clipPath id="c1_322"><path d="M360.3,625.4V530.5h94.8v94.9Z"/></clipPath>
<clipPath id="c2_322"><path d="M523.9,625.4V530.5h94.9v94.9Z"/></clipPath>
<clipPath id="c3_322"><path d="M687.5,625.4V530.5h94.9v94.9Z"/></clipPath>
<clipPath id="c4_322"><path d="M188.5,943.4V843.8H305v.8l-15.2,77.6v21.2Z"/></clipPath>
<clipPath id="c5_322"><path d="M170.7,972.5V840.4H305.8l-16,81.8v50.3Z"/></clipPath>
<clipPath id="c6_322"><path d="M414.8,943.2v-100h98.5v100Z"/></clipPath>
<clipPath id="c7_322"><path d="M395.9,972.5V840.4H512.8V972.5Z"/></clipPath>
<clipPath id="c8_322"><path d="M634.6,943.4V843.8H744.3v99.6Z"/></clipPath>
<clipPath id="c9_322"><path d="M616.7,972.5V840.4h130V972.5Z"/></clipPath>
<clipPath id="ca_322"><path d="M187.9,1086.1V986h94v100.1Z"/></clipPath>
<clipPath id="cb_322"><path d="M170.7,1113.9V981.8H281.5v132.1Z"/></clipPath>
<clipPath id="cc_322"><path d="M413.3,1085V986H516v99Z"/></clipPath>
<clipPath id="cd_322"><path d="M395.9,1113.9V981.8H517.1v132.1Z"/></clipPath>
<clipPath id="ce_322"><path d="M634,1078.7V986.5H736.4v92.2Z"/></clipPath>
<clipPath id="cf_322"><path d="M616.7,1113.9V981.8h123v132.1Z"/></clipPath>
<clipPath id="cg_322"><path d="M176.6,227.7l-6.5,-2.2L153.7,211.6V154.5h72v73.2Z"/></clipPath>
<clipPath id="ch_322"><path d="M176.6,762.4l-6.5,-2.1l-16.4,-14V689.2h72v73.2Z"/></clipPath>
<style type="text/css"><![CDATA[
.g0_322{
fill: #FEFCF4;
}
.g1_322{
fill: #FFF;
}
.g2_322{
fill: none;
stroke: #6381B7;
stroke-width: 0.763;
}
.g3_322{
fill: none;
stroke: #949698;
stroke-width: 0.381;
}
.g4_322{
fill: #48484A;
}
.g5_322{
fill: #F0E8F3;
}
.g6_322{
fill: #766FA6;
}
.g7_322{
fill: none;
stroke: #949698;
stroke-width: 0.496;
}
.g8_322{
fill: none;
stroke: #231F20;
stroke-width: 0.458;
}
.g9_322{
fill: #6381B7;
}
.ga_322{
fill: none;
stroke: #6381B7;
stroke-width: 0.381;
stroke-dasharray: 2,1;
}
.gb_322{
fill: none;
stroke: #6381B7;
stroke-width: 0.381;
}
.gc_322{
fill: #FCE8B0;
}
.gd_322{
fill: #25408F;
}
.ge_322{
fill: #00BAF1;
}
.gf_322{
fill: #332D2C;
}
.gg_322{
fill: #D9DFF0;
}
.gh_322{
fill: #F27C85;
}
.gi_322{
fill: #7DD3F6;
}
.gj_322{
fill: none;
stroke: #FFF;
stroke-width: 1.909;
stroke-miterlimit: 10;
}
.gk_322{
fill: none;
stroke: #000;
stroke-width: 0.381;
stroke-miterlimit: 10;
}
]]></style>
</defs>
<path d="M32.1,1344.3H954.5V32.1H32.1V1344.3Z" class="g0_322"/>
<path d="M145.1,774.3c0,0,-13,0,-13,13v385.5c0,0,0,13,13,13H832.9c0,0,13,0,13,-13V787.3c0,0,0,-13,-13,-13Z" class="g1_322"/>
<path d="M145.1,774.3c0,0,-13,0,-13,13v385.5c0,0,0,13,13,13H832.9c0,0,13,0,13,-13V787.3c0,0,0,-13,-13,-13H145.1Z" class="g2_322"/>
<path d="M150.4,133.2c0,0,-18.3,0,-18.3,18.4v509c0,0,0,18.3,18.3,18.3H827.5c0,0,18.4,0,18.4,-18.3V133.2Z" class="g1_322"/>
<path d="M150.4,133.2c0,0,-18.3,0,-18.3,18.4v509c0,0,0,18.3,18.3,18.3H827.5c0,0,18.4,0,18.4,-18.3V133.2H150.4Z" class="g2_322"/>
<path d="M183.8,334H304.3V239.1H183.8V334Z" class="g1_322"/>
<image preserveAspectRatio="none" x="197" y="239" width="95" height="95" xlink:href="img/1.jpg"/>
<path d="M183.8,334H304.3V239.1H183.8V334Z" class="g3_322"/>
<path d="M511.1,334H631.6V239.1H511.1V334Z" class="g1_322"/>
<image preserveAspectRatio="none" x="524" y="239" width="95" height="95" xlink:href="img/2.jpg"/>
<path d="M511.1,334H631.6V239.1H511.1V334Z" class="g3_322"/>
<path d="M347.5,334H467.9V239.1H347.5V334Z" class="g1_322"/>
<image preserveAspectRatio="none" x="357" y="239" width="101" height="95" xlink:href="img/3.jpg"/>
<path d="M347.5,334H467.9V239.1H347.5V334Z" class="g3_322"/>
<path d="M674.7,334H795.2V239.1H674.7V334Z" class="g1_322"/>
<image preserveAspectRatio="none" x="687" y="239" width="95" height="95" xlink:href="img/4.jpg"/>
<path d="M674.7,334H795.2V239.1H674.7V334Z" class="g3_322"/>
<path d="M183.8,480.1H304.3V385.2H183.8v94.9Z" class="g1_322"/>
<image preserveAspectRatio="none" x="189" y="385" width="110" height="95" xlink:href="img/5.jpg"/>
<path d="M183.8,480.1H304.3V385.2H183.8v94.9Z" class="g3_322"/>
<path d="M511.1,480.1H631.6V385.2H511.1v94.9Z" class="g1_322"/>
<image preserveAspectRatio="none" x="524" y="385" width="95" height="95" xlink:href="img/6.jpg"/>
<path d="M511.1,480.1H631.6V385.2H511.1v94.9Z" class="g3_322"/>
<path d="M347.5,480.1H467.9V385.2H347.5v94.9Z" class="g1_322"/>
<image preserveAspectRatio="none" x="352" y="385" width="111" height="95" xlink:href="img/7.jpg"/>
<path d="M347.5,480.1H467.9V385.2H347.5v94.9Z" class="g3_322"/>
<path d="M674.7,480.1H795.2V385.2H674.7v94.9Z" class="g1_322"/>
<image preserveAspectRatio="none" x="687" y="385" width="95" height="95" xlink:href="img/8.jpg"/>
<path d="M674.7,480.1H795.2V385.2H674.7v94.9Z" class="g3_322"/>
<path d="M183.8,625.4H304.3V530.5H183.8v94.9Z" class="g1_322"/>
<image clip-path="url(#c0_322)" preserveAspectRatio="none" x="197" y="531" width="95" height="94" xlink:href="img/9.jpg"/>
<path d="M183.8,625.4H304.3V530.5H183.8v94.9Z" class="g3_322"/>
<path d="M347.5,625.4H467.9V530.5H347.5v94.9Z" class="g1_322"/>
<image clip-path="url(#c1_322)" preserveAspectRatio="none" x="360" y="531" width="95" height="94" xlink:href="img/10.jpg"/>
<path d="M347.5,625.4H467.9V530.5H347.5v94.9Z" class="g3_322"/>
<path d="M511.1,625.4H631.6V530.5H511.1v94.9Z" class="g1_322"/>
<image clip-path="url(#c2_322)" preserveAspectRatio="none" x="524" y="531" width="95" height="94" xlink:href="img/11.jpg"/>
<path d="M511.1,625.4H631.6V530.5H511.1v94.9Z" class="g3_322"/>
<path d="M674.7,625.4H795.2V530.5H674.7v94.9Z" class="g1_322"/>
<image clip-path="url(#c3_322)" preserveAspectRatio="none" x="687" y="531" width="95" height="94" xlink:href="img/12.jpg"/>
<path d="M674.7,625.4H795.2V530.5H674.7v94.9Z" class="g3_322"/>
<path d="M174.3,1133.8c0,0,-4.4,0,-4.4,4.3v14.7c0,0,0,4.4,4.2,5.7l35,11.2c0,0,4.2,1.4,4.2,-3v-28.6c0,0,0,-4.3,-4.4,-4.3Z" class="g4_322"/>
<path d="M195.4,1120.8c0,0,-13,0,-13,13v25.9c0,0,0,13,13,13H800.8c0,0,13,0,13,-13v-25.9c0,0,0,-13,-13,-13Z" class="g5_322"/>
<path d="M174.3,1131.6c0,0,-4.4,0,-4.4,4.3v17.3c0,0,0,4.4,4.4,4.4h37.3c0,0,4.3,0,4.3,-4.4v-17.3c0,0,0,-4.3,-4.3,-4.3Z" class="g6_322"/>
<image clip-path="url(#c4_322)" preserveAspectRatio="none" x="187" y="843" width="118" height="101" xlink:href="img/13.jpg"/>
<g clip-path="url(#c5_322)">
<path d="M188.5,968.7H309V941.1H188.5v27.6Z" class="g1_322"/>
<path d="M188.5,968.7H309V941.1H188.5v27.6Z" class="g7_322"/>
</g>
<image clip-path="url(#c6_322)" preserveAspectRatio="none" x="415" y="843" width="103" height="100" xlink:href="img/14.jpg"/>
<g clip-path="url(#c7_322)">
<path d="M414.1,968.7H534.6V941.1H414.1v27.6Z" class="g1_322"/>
<path d="M414.1,968.7H534.6V941.1H414.1v27.6Z" class="g7_322"/>
</g>
<image clip-path="url(#c8_322)" preserveAspectRatio="none" x="635" y="843" width="109" height="101" xlink:href="img/15.jpg"/>
<g clip-path="url(#c9_322)">
<path d="M634.4,968.7H754.9V941.1H634.4v27.6Z" class="g1_322"/>
<path d="M634.4,968.7H754.9V941.1H634.4v27.6Z" class="g7_322"/>
</g>
<image clip-path="url(#ca_322)" preserveAspectRatio="none" x="187" y="985" width="101" height="102" xlink:href="img/16.jpg"/>
<g clip-path="url(#cb_322)">
<path d="M188.5,1111.3H309v-27.6H188.5v27.6Z" class="g1_322"/>
<path d="M188.5,1111.3H309v-27.6H188.5v27.6Z" class="g7_322"/>
</g>
<image clip-path="url(#cc_322)" preserveAspectRatio="none" x="413" y="985" width="103" height="100" xlink:href="img/17.jpg"/>
<g clip-path="url(#cd_322)">
<path d="M412.4,1111H532.9v-27.7H412.4V1111Z" class="g1_322"/>
<path d="M412.4,1111H532.9v-27.7H412.4V1111Z" class="g7_322"/>
</g>
<image clip-path="url(#ce_322)" preserveAspectRatio="none" x="634" y="985" width="102" height="94" xlink:href="img/18.jpg"/>
<g clip-path="url(#cf_322)">
<path d="M634,1111.5H754.5v-27.7H634v27.7Z" class="g1_322"/>
<path d="M634,1111.5H754.5v-27.7H634v27.7Z" class="g7_322"/>
</g>
<path d="M176.3,971H300.6V939.8H176.3V971Z" class="g1_322"/>
<path d="M176.3,971H300.6V939.8H176.3V971Z" class="g8_322"/>
<path d="M400.4,971H524.7V939.8H400.4V971Z" class="g1_322"/>
<path d="M400.4,971H524.7V939.8H400.4V971Z" class="g8_322"/>
<path d="M626.5,971H750.8V939.8H626.5V971Z" class="g1_322"/>
<path d="M626.5,971H750.8V939.8H626.5V971Z" class="g8_322"/>
<path d="M176.3,1113H300.6v-31.2H176.3V1113Z" class="g1_322"/>
<path d="M176.3,1113H300.6v-31.2H176.3V1113Z" class="g8_322"/>
<path d="M400.4,1113H524.7v-31.2H400.4V1113Z" class="g1_322"/>
<path d="M400.4,1113H524.7v-31.2H400.4V1113Z" class="g8_322"/>
<path d="M626.5,1113H750.8v-31.2H626.5V1113Z" class="g1_322"/>
<path d="M626.5,1113H750.8v-31.2H626.5V1113Z" class="g8_322"/>
<path d="M279.3,1201.8c0,0,-4.3,0,-4.3,4.4V1217c0,0,0,4.3,4.3,4.3h30.3c0,0,4.4,0,4.4,-4.3v-10.8c0,0,0,-4.4,-4.4,-4.4Z" class="g9_322"/>
<path d="M266.1,1193v37.5m1.4,1H845.1m1,-1.3v-37.6m-1.4,-.9H267.1" class="ga_322"/>
<path d="M266.1,1230.9v.6h.6m578.8,0h.6v-.6m0,-38.7v-.5h-.6m-578.8,0h-.6v.5" class="gb_322"/>
<path d="M209.2,182.7c0,0,-13,0,-13,13v21.6c0,0,0,13,13,13h602c0,0,13,0,13,-13V195.7c0,0,0,-13,-13,-13Z" class="gc_322"/>
<image clip-path="url(#cg_322)" preserveAspectRatio="none" x="152" y="153" width="75" height="76" xlink:href="img/19.png"/>
<path d="M204,222.9c0,0,-26.8,11.4,-51.1,-12.7c0,0,15.2,25.3,49.3,24c0,0,24.8,.3,20.3,-10.2c0,0,1.2,-4.4,-18.5,-1.1Z" class="gc_322"/>
<path d="M209.2,717.4c0,0,-13,0,-13,13V752c0,0,0,13,13,13H830.8c0,0,13,0,13,-13V730.4c0,0,0,-13,-13,-13Z" class="gc_322"/>
<image clip-path="url(#ch_322)" preserveAspectRatio="none" x="152" y="688" width="75" height="76" xlink:href="img/20.png"/>
<path d="M204,757.7c0,0,-26.8,11.3,-51.1,-12.8c0,0,15.2,25.3,49.3,24c0,0,24.8,.3,20.3,-10.2c0,0,1.2,-4.4,-18.5,-1Z" class="gc_322"/>
<path d="M132.7,126.7v22.2l11.7,10.3V137Z" class="gd_322"/>
<path d="M132.7,109.9v39H830.4c0,0,16.9,0,16.9,-16.8v-5.4c0,0,0,-16.8,-16.9,-16.8Z" class="g9_322"/>
<path d="M190.6,121.3l-6.4,-6.5L162.9,136l6.5,6.5Z" class="ge_322"/>
<path d="M169.4,143c.2,0,.3,0,.4,-.1L191,121.7c.1,-.1,.2,-.3,.2,-.4c0,-.1,-.1,-.3,-.2,-.4l-6.5,-6.4c-.2,-.2,-.5,-.2,-.7,0l-21.2,21.2c-.1,.1,-.2,.2,-.2,.3c0,.2,.1,.3,.2,.4l6.5,6.5c.1,.1,.2,.1,.3,.1m20.5,-21.7l-20.5,20.5L163.7,136l20.5,-20.4Z" class="gf_322"/>
<path d="M190.6,121.3l-6.4,-6.5l2.1,-2.1l6.5,6.5Z" class="gg_322"/>
<path d="M190.6,121.8c.2,0,.3,0,.4,-.1l2.1,-2.1c.1,-.1,.2,-.3,.2,-.4c0,-.2,-.1,-.3,-.2,-.4l-6.4,-6.5c-.2,-.2,-.6,-.2,-.8,0l-2.1,2.2c-.1,0,-.2,.2,-.2,.3c0,.2,.1,.3,.2,.4l6.5,6.5c.1,.1,.2,.1,.3,.1m1.4,-2.6l-1.4,1.4l-5.7,-5.8l1.4,-1.4Z" class="gf_322"/>
<path d="M196.4,115.6l-6.5,-6.5l-3.6,3.6l6.5,6.5Z" class="gh_322"/>
<path d="M192.8,119.7c.1,0,.2,0,.3,-.1l3.6,-3.7c.3,-.2,.3,-.5,0,-.7l-6.4,-6.5c-.2,-.2,-.6,-.2,-.8,0l-3.6,3.6c-.2,.2,-.2,.6,0,.8l6.5,6.5c.1,.1,.2,.1,.4,.1m2.8,-4.1l-2.8,2.8L187,112.7l2.9,-2.9Z" class="gf_322"/>
<path d="M158.3,147.2L162.9,136l6.5,6.5Z" class="g1_322"/>
<path d="M158.3,147.7c.1,0,.2,0,.2,-.1L169.6,143c.2,-.1,.3,-.2,.3,-.4c.1,-.2,0,-.3,-.1,-.5l-6.5,-6.4c-.1,-.2,-.3,-.2,-.5,-.2c-.1,.1,-.3,.2,-.3,.3l-4.7,11.1c-.1,.2,0,.5,.1,.6c.1,.1,.3,.2,.4,.2m10.2,-5.4l-9.2,3.9l3.8,-9.2Z" class="gf_322"/>
<path d="M158.3,147.2l2.2,-5.4l3.2,3.1Z" class="gf_322"/>
<path d="M158.3,147.7c.1,0,.2,0,.2,-.1l5.4,-2.2c.1,-.1,.3,-.2,.3,-.4c0,-.2,0,-.3,-.2,-.5l-3.1,-3.1c-.1,-.1,-.3,-.2,-.5,-.1c-.1,0,-.3,.1,-.3,.3l-2.3,5.3c-.1,.2,0,.5,.1,.6c.1,.1,.3,.2,.4,.2m4.4,-3l-3.4,1.5l1.4,-3.5Z" class="gf_322"/>
<path d="M188.9,119.5l-3,-2.9l-21.2,21.2l3,3Z" class="gi_322"/>
<path d="M167.7,141.3c.1,0,.2,-.1,.3,-.2l21.3,-21.2c0,-.1,.1,-.2,.1,-.4c0,-.1,-.1,-.2,-.1,-.3l-3,-3c-.2,-.2,-.6,-.2,-.8,0l-21.2,21.2c-.1,.1,-.1,.3,-.1,.4c0,.1,0,.3,.1,.4l3,2.9c.1,.1,.2,.2,.4,.2m20.4,-21.8L167.7,140l-2.3,-2.2l20.5,-20.5Z" class="gf_322"/>
<path d="M32.1,45.1H9.2m958.3,0h22.9M32.1,1331.3H9.2m958.3,0h22.9M45.1,32.1V9.2m0,1335.1v22.9M954.5,32.1V9.2m0,1335.1v22.9" class="gj_322"/>
<path d="M32.1,45.1H9.2m958.3,0h22.9M32.1,1331.3H9.2m958.3,0h22.9M45.1,32.1V9.2m0,1335.1v22.9M954.5,32.1V9.2m0,1335.1v22.9" class="gk_322"/>
<path d="M27.5,32.1H0m972.1,0h27.5M27.5,1344.3H0m972.1,0h27.5M32.1,27.5V0m0,1348.9v27.5M967.5,27.5V0m0,1348.9v27.5" class="gj_322"/>
<path d="M27.5,32.1H0m972.1,0h27.5M27.5,1344.3H0m972.1,0h27.5M32.1,27.5V0m0,1348.9v27.5M967.5,27.5V0m0,1348.9v27.5" class="gk_322"/>
</svg>