<?xml version="1.0" encoding="UTF-8" standalone="no"?>
<!DOCTYPE svg PUBLIC "-//W3C//DTD SVG 1.1//EN"
"http://www.w3.org/Graphics/SVG/1.1/DTD/svg11.dtd">
<svg viewBox="0 0 999 1376" version="1.1" xmlns="http://www.w3.org/2000/svg" xmlns:xlink="http://www.w3.org/1999/xlink">
<defs>
<clipPath id="c0_325"><path d="M153.3,1244.7V131.7H867.9v1113Z"/></clipPath>
<style type="text/css"><![CDATA[
.g0_325{
fill: #FFF;
}
.g1_325{
fill: none;
stroke: #231F20;
stroke-width: 0.756;
stroke-miterlimit: 3;
}
.g2_325{
fill: #DED1C4;
}
.g3_325{
fill: none;
stroke: #231F20;
stroke-width: 0.763;
stroke-miterlimit: 10;
}
.g4_325{
fill: none;
stroke: #231F20;
stroke-width: 0.458;
stroke-miterlimit: 10;
}
.g5_325{
fill: #25408F;
}
.g6_325{
fill: #6381B7;
}
.g7_325{
fill: #FFDE2C;
}
.g8_325{
fill: none;
stroke: #231F20;
stroke-width: 1.451;
stroke-miterlimit: 10;
}
.g9_325{
fill: #D2D3D5;
}
.ga_325{
fill: #A8AAAD;
}
.gb_325{
fill: none;
stroke: #231F20;
stroke-width: 0.828;
stroke-miterlimit: 10;
}
.gc_325{
fill: #6CCFF6;
}
.gd_325{
fill: none;
stroke: #231F20;
stroke-width: 0.828;
stroke-linecap: round;
stroke-linejoin: round;
}
.ge_325{
fill: none;
stroke: #231F20;
stroke-width: 1.451;
stroke-linecap: round;
stroke-linejoin: round;
}
.gf_325{
fill: none;
stroke: #FFF;
stroke-width: 1.909;
stroke-miterlimit: 10;
}
.gg_325{
fill: none;
stroke: #000;
stroke-width: 0.381;
stroke-miterlimit: 10;
}
]]></style>
</defs>
<path d="M153.3,1244.7H867.9V131.7H153.3v1113Z" class="g0_325"/>
<image clip-path="url(#c0_325)" preserveAspectRatio="none" x="151" y="130" width="719" height="1117" xlink:href="img/1.jpg"/>
<path d="M373.7,210.6h-2.2v-5.7c-1.2,.6,-2.4,1.1,-3.6,1.5c-1.3,.3,-2.8,.5,-4.5,.5h-9.8V205h6.7v-4.2c-1.7,-.2,-3,-.9,-4.1,-2c-1,-1.1,-1.5,-2.5,-1.5,-4.3c0,-.9,.2,-1.7,.5,-2.5c.3,-.8,.8,-1.4,1.4,-2c.5,-.5,1.2,-.9,2,-1.3c.8,-.3,1.7,-.4,2.7,-.4c.9,0,1.8,.1,2.6,.4c.8,.4,1.5,.8,2.1,1.3c.6,.6,1,1.2,1.4,2c.3,.8,.5,1.6,.5,2.5c0,1.7,-.5,3.1,-1.5,4.2c-1,1.1,-2.3,1.8,-3.8,2V205h.8c1.4,0,2.8,-.1,4.1,-.4c1.3,-.3,2.7,-.8,4,-1.7V188h2.2v22.6Zm-9.3,-19.3c-.8,-.8,-1.9,-1.2,-3.1,-1.2c-1.3,0,-2.3,.4,-3.1,1.2c-.8,.8,-1.2,1.9,-1.2,3.2c0,1.5,.4,2.6,1.2,3.4c.8,.7,1.8,1.1,3.1,1.1c1.2,0,2.3,-.4,3.1,-1.1c.8,-.8,1.2,-1.9,1.2,-3.4c0,-1.3,-.4,-2.4,-1.2,-3.2Zm33.5,7.8h-10v4.2h4.8c.9,0,1.4,.2,1.7,.6c.3,.4,.4,1,.4,1.7l-.3,6.8h-1.9v-6.5c0,-.3,-.1,-.4,-.2,-.6c-.1,-.1,-.3,-.2,-.6,-.2H379.1v-1.8h6.5v-4.2h-9v-1.8h15.2c.2,-1.1,.4,-2.3,.5,-3.6c.2,-1.2,.2,-2.4,.2,-3.5c0,-.3,0,-.4,-.1,-.6c-.2,-.1,-.4,-.1,-.6,-.1H379.5v-1.8h12.9c.8,0,1.4,.1,1.8,.5c.3,.3,.5,.8,.6,1.5c0,1.1,-.1,2.3,-.3,3.7c-.1,1.4,-.4,2.6,-.6,3.9h4v1.8Zm21.7,5.5h-2.3V187.7h2.3v16.9Zm-12.9,7.6c-.8,0,-1.5,-.2,-1.8,-.6c-.4,-.4,-.6,-.9,-.6,-1.6v-6.6h2.2v6.2c0,.2,.1,.4,.2,.6c.1,.1,.3,.2,.7,.2h7.1c1,0,2,-.1,2.8,-.2c.9,-.1,1.8,-.4,2.7,-.7l.5,1.8c-1.1,.3,-2.1,.5,-3,.7c-.9,.1,-1.9,.2,-2.9,.2h-7.9Zm5.5,-15.7c-.4,.7,-.8,1.4,-1.4,1.9c-.6,.6,-1.2,1,-2,1.3c-.8,.3,-1.6,.5,-2.5,.5c-1,0,-1.8,-.2,-2.6,-.5c-.8,-.4,-1.5,-.8,-2,-1.4c-.6,-.5,-1,-1.1,-1.3,-1.9c-.3,-.7,-.5,-1.5,-.5,-2.3c0,-.9,.2,-1.6,.5,-2.4c.3,-.7,.8,-1.4,1.4,-1.9c.5,-.6,1.2,-1,2,-1.3c.7,-.3,1.6,-.5,2.5,-.5c.9,0,1.8,.2,2.6,.5c.7,.4,1.4,.8,2,1.3c.5,.6,1,1.2,1.3,2c.3,.7,.5,1.5,.5,2.3c0,.8,-.2,1.7,-.5,2.4Zm-2.9,-5.4c-.7,-.8,-1.7,-1.3,-3,-1.3c-1.3,0,-2.3,.5,-3,1.3c-.7,.8,-1.1,1.8,-1.1,3c0,1.1,.4,2.1,1.1,3c.7,.8,1.7,1.2,3,1.2c1.3,0,2.3,-.4,3,-1.2c.7,-.9,1.1,-1.9,1.1,-3c0,-1.2,-.4,-2.2,-1.1,-3Zm41.7,9H429.7v-1.8h15.1c.1,-.5,.2,-1.1,.3,-1.8c.1,-.7,.2,-1.4,.3,-2.1c.1,-.7,.1,-1.4,.2,-2c0,-.7,0,-1.3,0,-1.9c0,-.3,0,-.5,-.1,-.6c-.1,-.1,-.3,-.1,-.6,-.1H432.6V188h12.9c.8,0,1.4,.1,1.8,.4c.4,.4,.6,.9,.6,1.6c0,.5,0,1.2,-.1,1.9c0,.7,-.1,1.4,-.2,2.1c-.1,.8,-.2,1.5,-.3,2.3c-.1,.7,-.2,1.4,-.4,2H451v1.8Zm-16.2,12.1c-.8,0,-1.4,-.2,-1.8,-.6c-.4,-.4,-.6,-.9,-.6,-1.6v-6.4h2.3v6c0,.2,0,.4,.1,.6c.1,.1,.4,.2,.7,.2h7.2c1,0,1.9,-.1,2.8,-.2c.9,-.1,1.7,-.4,2.7,-.7l.5,1.8c-1.1,.3,-2.1,.5,-3,.7c-1,.1,-1.9,.2,-3,.2h-7.9Zm22.9,-13.5c0,.4,.1,.6,.2,.7c.1,.2,.3,.3,.6,.3H464c1.1,0,2.3,-.1,3.4,-.2c1.2,0,2.4,-.3,3.7,-.6l.4,1.8c-.7,.1,-1.4,.3,-1.9,.4c-.6,.1,-1.2,.2,-1.7,.3c-.6,0,-1.2,.1,-1.7,.1c-.6,0,-1.2,0,-1.9,0v4.3H474v1.8H452.6v-1.8h9.5v-4.3h-3.7c-1,0,-1.7,-.2,-2.2,-.6c-.5,-.4,-.7,-1,-.7,-1.9v-4.8h12.8v-3.6H455.5v-1.8h15v6.6c-.6,.2,-1.3,.4,-1.8,.5c-.6,.1,-1.3,.1,-1.9,.1h-9.1v2.7Zm17.8,4.9c1.2,-.8,2.3,-1.7,3.4,-2.6c1.1,-1,2,-2,2.9,-3.1c.8,-1,1.5,-2.1,2,-3.2c.6,-1.1,.9,-2.2,1.1,-3.2c0,-.2,0,-.4,-.1,-.5c-.1,-.1,-.3,-.1,-.5,-.1h-8V189h9.1c.9,0,1.4,.3,1.6,.8c.2,.5,.3,1.1,.2,1.8c-.2,1,-.5,2,-.9,3c-.5,1.1,-1,2.1,-1.7,3.1c.5,.2,1,.4,1.4,.7c.3,.2,.7,.6,1,1c.5,.7,1.1,1.5,1.6,2.4c.6,.9,1.1,1.7,1.6,2.4l-1.7,1.3c-.6,-.9,-1.1,-1.8,-1.7,-2.7c-.6,-.9,-1,-1.6,-1.4,-2.2c-.3,-.2,-.5,-.5,-.8,-.7c-.3,-.3,-.7,-.5,-1.2,-.7c-.9,1.2,-1.9,2.3,-3.1,3.3c-1.1,1.1,-2.3,2.1,-3.6,3l-1.2,-1.9Zm23.9,-4.9h-4.3v11.9h-2.3V188h2.3v8.9h4.3v1.8Zm14.8,-10.8c.2,.5,.3,1.1,.4,1.6c0,.5,.1,1,.1,1.5c0,.5,0,1.1,-.1,1.6c0,.4,-.1,.9,-.2,1.4c.9,.2,1.5,.4,1.9,.8c.4,.4,.8,.8,1,1.2c.4,.7,.8,1.4,1.3,2.2c.4,.8,.8,1.6,1.1,2.3l-1.7,1c-.5,-.9,-.9,-1.7,-1.2,-2.4c-.4,-.6,-.7,-1.2,-1.1,-1.9c-.2,-.3,-.5,-.6,-.7,-.9c-.3,-.2,-.6,-.5,-1.1,-.6c-.4,1.1,-1,2.2,-1.9,3.2c-.8,1,-1.8,2,-3,2.9l-1.3,-1.7c1,-.7,1.7,-1.4,2.4,-2c.6,-.7,1.1,-1.4,1.5,-2.1c.3,-.8,.6,-1.5,.7,-2.3c.2,-.7,.3,-1.6,.3,-2.5c0,-.3,-.1,-.8,-.1,-1.2c-.1,-.5,-.2,-.9,-.4,-1.4l2.1,-.7Zm1.7,24.2c-.8,0,-1.4,-.2,-1.8,-.5c-.4,-.4,-.6,-.9,-.6,-1.6v-6.4h2.3v5.9c0,.3,0,.5,.1,.6c.1,.2,.4,.2,.7,.2H524c1,0,2,0,2.8,-.1c.9,-.2,1.8,-.4,2.7,-.7l.5,1.7c-1.1,.4,-2.1,.6,-3,.7c-.9,.2,-1.9,.2,-3,.2h-8.1Zm2.3,-18.7h4v-5.7h2.2v16.1h-2.2v-8.5h-4v-1.9Zm11.3,10.7h-2.2V187.7h2.2v16.4Zm18.3,0c-1.4,.4,-2.8,.7,-4.2,.9c-1.4,.2,-2.7,.3,-3.8,.3h-3.1c-.9,0,-1.7,-.2,-2.2,-.6c-.5,-.4,-.8,-1.1,-.8,-2V189h11.7v1.9H536V196h8.2v1.8H536v4.9c0,.3,.1,.5,.2,.6c.1,.1,.3,.2,.6,.2h3c1.1,0,2.3,-.1,3.6,-.3c1.4,-.1,2.7,-.4,4,-.8l.4,1.7Zm-2,-8.2h4.8V188h2.3v22.6h-2.3V197.7h-4.8v-1.8Zm18.4,-7.5h8.6c.4,0,.7,.1,.9,.3c.2,.1,.4,.3,.5,.5c.1,.2,.2,.4,.2,.7c0,.2,-.1,.4,-.1,.6c-.2,1,-.4,1.9,-.8,2.7c-.3,.8,-.8,1.6,-1.3,2.4c.6,.2,1.1,.4,1.5,.7c.4,.3,.7,.6,1,.9c.4,.5,.9,1.1,1.4,1.7c.5,.7,1,1.3,1.4,1.8L576,202c-.2,-.2,-.5,-.5,-.7,-.8c-.2,-.3,-.5,-.6,-.7,-.9c-.2,-.3,-.5,-.6,-.7,-.9c-.2,-.3,-.5,-.6,-.7,-.8c-.3,-.3,-.6,-.6,-.9,-.9c-.3,-.2,-.7,-.5,-1.2,-.6c-.9,1,-1.9,1.9,-3.1,2.7c-1.1,.8,-2.4,1.5,-3.7,2.1l-.9,-1.8c2.3,-1.1,4.1,-2.3,5.5,-3.7c1.3,-1.4,2.3,-3.2,3,-5.4c.1,-.3,.1,-.5,0,-.6c-.1,-.1,-.2,-.2,-.5,-.2h-7.2v-1.8Zm5.6,23.8c-.8,0,-1.4,-.2,-1.8,-.6c-.4,-.4,-.6,-.9,-.6,-1.6v-6.4h2.3v6c0,.2,0,.4,.1,.6c.1,.1,.4,.2,.7,.2h7.1c1.1,0,2,-.1,2.9,-.2c.8,-.1,1.7,-.4,2.6,-.7l.5,1.8c-1,.3,-2,.5,-2.9,.7c-1,.1,-2,.2,-3,.2h-7.9Zm12.9,-7.6h-2.2V187.7h2.2v16.9Zm8.9,1.2v-4.3c-.9,0,-1.6,-.2,-2.1,-.6c-.5,-.4,-.8,-1,-.8,-1.9v-4.8h12.8v-3.6H588.7v-1.8h15v6.6c-.6,.2,-1.2,.4,-1.8,.5c-.6,.1,-1.2,.1,-1.9,.1h-9v2.7c0,.4,0,.6,.1,.7c.2,.2,.4,.3,.7,.3h5.4c1.2,0,2.3,-.1,3.5,-.2c1.1,0,2.3,-.3,3.7,-.6l.3,1.8c-.7,.1,-1.3,.3,-1.9,.4c-.5,.1,-1.1,.2,-1.6,.2v4.5h6v1.8H585.9v-1.8h5.7Zm2.2,-4.3v4.3H599v-4.3c-.3,0,-.6,0,-.9,0h-4.3Zm46,-4.7h-4.3v7.8h-2.3V187.7h2.3v7.2h4.3v1.9Zm-17.1,15.4c-.8,0,-1.4,-.2,-1.8,-.6c-.4,-.4,-.6,-.9,-.6,-1.6v-6.6h2.3v6.2c0,.2,0,.4,.2,.6c.1,.1,.3,.2,.6,.2h7.2c1,0,1.9,-.1,2.8,-.2c.8,-.1,1.7,-.4,2.7,-.7l.5,1.8c-1.1,.3,-2.1,.5,-3,.7c-1,.1,-1.9,.2,-3,.2h-7.9Zm6,-15.8c-.3,.7,-.8,1.4,-1.3,1.9c-.6,.6,-1.3,1,-2.1,1.3c-.7,.3,-1.6,.4,-2.5,.4c-.9,0,-1.8,-.1,-2.6,-.5c-.8,-.3,-1.4,-.7,-2,-1.3c-.5,-.5,-1,-1.2,-1.3,-1.9c-.3,-.7,-.4,-1.5,-.4,-2.3c0,-.8,.1,-1.6,.5,-2.4c.3,-.7,.7,-1.3,1.3,-1.9c.6,-.5,1.2,-.9,2,-1.3c.8,-.3,1.6,-.4,2.5,-.4c1,0,1.8,.1,2.6,.5c.8,.3,1.5,.7,2,1.3c.6,.5,1,1.2,1.3,1.9c.4,.7,.5,1.5,.5,2.3c0,.9,-.1,1.7,-.5,2.4ZM625.8,191c-.7,-.8,-1.7,-1.2,-3,-1.2c-1.2,0,-2.2,.4,-3,1.2c-.7,.9,-1.1,1.8,-1.1,3c0,1.1,.4,2.1,1.1,3c.8,.8,1.8,1.2,3,1.2c1.3,0,2.3,-.4,3,-1.2c.8,-.9,1.1,-1.9,1.1,-3c0,-1.2,-.3,-2.1,-1.1,-3Zm18.7,-2v12.9c0,.3,0,.6,.2,.7c.1,.2,.3,.3,.6,.3h2c1.1,0,2.3,-.1,3.5,-.4c1.2,-.2,2.4,-.6,3.5,-1.2V188h2.2v8.3h4V188h2.2v22.6h-2.2V198.3h-4V210h-2.2v-6.7c-1.1,.4,-2.3,.8,-3.6,1.1c-1.3,.2,-2.4,.4,-3.3,.4h-2.5c-.8,0,-1.5,-.2,-1.9,-.7c-.5,-.4,-.8,-1.1,-.8,-2V189h2.3Z" class="g1_325"/>
<path d="M181.5,447.1h90.9v46.1H181.5V447.1Zm90.9,0H398v46.1H272.4V447.1Zm125.6,0h99.6v46.1H398V447.1Zm99.6,0H727.2v46.1H497.6V447.1Zm229.6,0h99.6v46.1H727.2V447.1Z" class="g2_325"/>
<path d="M181.5,493.2h90.9v47.1H181.5V493.2Zm90.9,0H398v47.1H272.4V493.2Zm125.6,0h99.6v47.1H398V493.2Zm99.6,0H727.2v47.1H497.6V493.2Zm229.6,0h99.6v47.1H727.2V493.2ZM181.5,540.3h90.9v47H181.5v-47Zm90.9,0H398v47H272.4v-47Zm125.6,0h99.6v47H398v-47Zm99.6,0H727.2v47H497.6v-47Zm229.6,0h99.6v47H727.2v-47Zm-545.7,47h90.9v47H181.5v-47Zm90.9,0H398v47H272.4v-47Zm125.6,0h99.6v47H398v-47Zm99.6,0H727.2v47H497.6v-47Zm229.6,0h99.6v47H727.2v-47Zm-545.7,47h90.9v47H181.5v-47Zm90.9,0H398v47H272.4v-47Zm125.6,0h99.6v47H398v-47Zm99.6,0H727.2v47H497.6v-47Zm229.6,0h99.6v47H727.2v-47Zm-545.7,47h90.9v47.1H181.5V681.3Zm90.9,0H398v47.1H272.4V681.3Zm125.6,0h99.6v47.1H398V681.3Zm99.6,0H727.2v47.1H497.6V681.3Zm229.6,0h99.6v47.1H727.2V681.3ZM181.5,728.4h90.9v47H181.5v-47Zm90.9,0H398v47H272.4v-47Zm125.6,0h99.6v47H398v-47Zm99.6,0H727.2v47H497.6v-47Zm229.6,0h99.6v47H727.2v-47Zm-545.7,47h90.9v47H181.5v-47Zm90.9,0H398v47H272.4v-47Zm125.6,0h99.6v47H398v-47Zm99.6,0H727.2v47H497.6v-47Zm229.6,0h99.6v47H727.2v-47Z" class="g0_325"/>
<path d="M181.5,447.1h90.9m0,0H398m0,0h99.6m0,0H727.2m0,0h99.6M181.5,822.4h90.9m0,0H398m0,0h99.6m0,0H727.2m0,0h99.6" class="g3_325"/>
<path d="M272.4,493V447.5M398,493V447.5M497.6,493V447.5M727.2,493V447.5M181.5,493.2h90.9m0,0H398M272.4,540V493.5M398,493.2h99.6M398,540V493.5m99.6,-.3H727.2M497.6,540V493.5m229.6,-.3h99.6M727.2,540V493.5M181.5,540.3h90.9m0,0H398M272.4,587.1V540.5M398,540.3h99.6M398,587.1V540.5m99.6,-.2H727.2M497.6,587.1V540.5m229.6,-.2h99.6m-99.6,46.8V540.5M181.5,587.3h90.9m0,0H398M272.4,634.1V587.5M398,587.3h99.6M398,634.1V587.5m99.6,-.2H727.2M497.6,634.1V587.5m229.6,-.2h99.6m-99.6,46.8V587.5M181.5,634.3h90.9m0,0H398M272.4,681.1V634.5M398,634.3h99.6M398,681.1V634.5m99.6,-.2H727.2M497.6,681.1V634.5m229.6,-.2h99.6m-99.6,46.8V634.5M181.5,681.3h90.9m0,0H398M272.4,728.1V681.6M398,681.3h99.6M398,728.1V681.6m99.6,-.3H727.2M497.6,728.1V681.6m229.6,-.3h99.6m-99.6,46.8V681.6M181.5,728.4h90.9m0,0H398M272.4,775.2V728.6M398,728.4h99.6M398,775.2V728.6m99.6,-.2H727.2M497.6,775.2V728.6m229.6,-.2h99.6m-99.6,46.8V728.6M181.5,775.4h90.9m0,0H398M272.4,822V775.6M398,775.4h99.6M398,822V775.6m99.6,-.2H727.2M497.6,822V775.6m229.6,-.2h99.6M727.2,822V775.6" class="g4_325"/>
<path d="M153.3,126.3v22.2L165,158.7V136.5Z" class="g5_325"/>
<path d="M153.3,109.5v39H851.1c0,0,16.8,0,16.8,-16.8v-5.4c0,0,0,-16.8,-16.8,-16.8Z" class="g6_325"/>
<path d="M207.2,115.7c0,-9.1,-7.9,-16.6,-17.7,-16.6c-9.8,0,-17.7,7.5,-17.7,16.6c0,2.7,.6,5.2,1.8,7.4c1.2,2.4,2.9,4.6,5,6.2c1.2,1,1.6,1.7,1.7,4.3v.6c0,3.3,2.7,5.9,5.9,5.9h6.6c3.2,0,5.8,-2.6,5.8,-5.9v-.6c.2,-2.6,.6,-3.3,1.8,-4.3c2.1,-1.6,3.8,-3.8,5,-6.2c1.2,-2.2,1.8,-4.7,1.8,-7.4Z" class="g7_325"/>
<path d="M207.2,115.7c0,-9.1,-7.9,-16.6,-17.7,-16.6c-9.8,0,-17.7,7.5,-17.7,16.6c0,2.7,.6,5.2,1.8,7.4c1.2,2.4,2.9,4.6,5,6.2c1.2,1,1.6,1.7,1.7,4.3v.6c0,3.3,2.7,5.9,5.9,5.9h6.6c3.2,0,5.8,-2.6,5.8,-5.9v-.6c.2,-2.6,.6,-3.3,1.8,-4.3c2.1,-1.6,3.8,-3.8,5,-6.2c1.2,-2.2,1.8,-4.7,1.8,-7.4Z" class="g8_325"/>
<path d="M194.6,147.4c0,2.8,-2.3,5.1,-5.1,5.1c-2.8,0,-5.1,-2.3,-5.1,-5.1c0,-2.8,2.3,-5.1,5.1,-5.1c2.8,0,5.1,2.3,5.1,5.1Z" class="g0_325"/>
<path d="M194.6,147.4c0,2.8,-2.3,5.1,-5.1,5.1c-2.8,0,-5.1,-2.3,-5.1,-5.1c0,-2.8,2.3,-5.1,5.1,-5.1c2.8,0,5.1,2.3,5.1,5.1Z" class="g8_325"/>
<path d="M182.1,140.2c0,1,.8,1.8,1.8,1.8h11.2c1,0,1.8,-.8,1.8,-1.8v-1.3H182.1Z" class="g0_325"/>
<path d="M182.1,140.2c0,1,.8,1.8,1.8,1.8h11.2c1,0,1.8,-.8,1.8,-1.8v-1.3H182.1v1.3Z" class="g8_325"/>
<path d="M196.9,143.2c0,.8,-.6,1.3,-1.3,1.3H183.4c-.8,0,-1.3,-.5,-1.3,-1.3c0,-.7,.5,-1.3,1.3,-1.3h12.2c.7,0,1.3,.6,1.3,1.3Z" class="g0_325"/>
<path d="M196.9,143.2c0,.8,-.6,1.3,-1.3,1.3H183.4c-.8,0,-1.3,-.5,-1.3,-1.3c0,-.7,.5,-1.3,1.3,-1.3h12.2c.7,0,1.3,.6,1.3,1.3Z" class="g8_325"/>
<path d="M196.9,145.8c0,.7,-.6,1.3,-1.3,1.3H183.4c-.8,0,-1.3,-.6,-1.3,-1.3c0,-.7,.5,-1.3,1.3,-1.3h12.2c.7,0,1.3,.6,1.3,1.3Z" class="g0_325"/>
<path d="M196.9,145.8c0,.7,-.6,1.3,-1.3,1.3H183.4c-.8,0,-1.3,-.6,-1.3,-1.3c0,-.7,.5,-1.3,1.3,-1.3h12.2c.7,0,1.3,.6,1.3,1.3Z" class="g8_325"/>
<path d="M215.5,128.7l8.3,10.4c.6,.7,1.8,.6,2.7,-.2c.9,-.7,1.2,-1.9,.7,-2.6l-8.9,-10.2Z" class="g9_325"/>
<path d="M215.5,128.7l8.3,10.4c.6,.7,1.8,.6,2.7,-.2c.9,-.7,1.2,-1.9,.7,-2.6l-8.9,-10.2l-2.8,2.6Z" class="g8_325"/>
<path d="M217.5,125.1c.5,.6,.3,1.8,-.7,2.6c-.9,.7,-2.1,.8,-2.6,.2c-.6,-.7,-.3,-1.9,.6,-2.6c.9,-.8,2.1,-.9,2.7,-.2Z" class="ga_325"/>
<path d="M217.5,125.1c.5,.6,.3,1.8,-.7,2.6c-.9,.7,-2.1,.8,-2.6,.2c-.6,-.7,-.3,-1.9,.6,-2.6c.9,-.8,2.1,-.9,2.7,-.2Z" class="g8_325"/>
<path d="M212.7,124.7l1.7,2c.3,.3,1,.3,1.5,-.1c.5,-.5,.7,-1.1,.4,-1.5l-1.7,-2Z" class="g0_325"/>
<path d="M212.7,124.7l1.7,2c.3,.3,1,.3,1.5,-.1c.5,-.5,.7,-1.1,.4,-1.5l-1.7,-2l-1.9,1.6Z" class="gb_325"/>
<path d="M214.8,122.9c.4,.5,.2,1.3,-.5,1.8c-.6,.5,-1.4,.6,-1.8,.1c-.4,-.4,-.2,-1.2,.5,-1.7c.6,-.6,1.4,-.6,1.8,-.2Z" class="g0_325"/>
<path d="M214.8,122.9c.4,.5,.2,1.3,-.5,1.8c-.6,.5,-1.4,.6,-1.8,.1c-.4,-.4,-.2,-1.2,.5,-1.7c.6,-.6,1.4,-.6,1.8,-.2Z" class="gb_325"/>
<path d="M216.4,105.4c4.8,5.7,4.1,14.2,-1.7,19c-5.7,4.8,-14.2,4,-19,-1.7c-4.8,-5.7,-4,-14.2,1.7,-19c5.7,-4.8,14.2,-4.1,19,1.7Z" class="g0_325"/>
<path d="M216.4,105.4c4.8,5.7,4.1,14.2,-1.7,19c-5.7,4.8,-14.2,4,-19,-1.7c-4.8,-5.7,-4,-14.2,1.7,-19c5.7,-4.8,14.2,-4.1,19,1.7Z" class="g8_325"/>
<path d="M214,107.4c3.5,4.2,3,10.5,-1.3,14.1c-4.2,3.5,-10.5,2.9,-14,-1.3c-3.5,-4.2,-3,-10.5,1.2,-14c4.2,-3.6,10.5,-3,14.1,1.2Z" class="gc_325"/>
<path d="M214,107.4c3.5,4.2,3,10.5,-1.3,14.1c-4.2,3.5,-10.5,2.9,-14,-1.3c-3.5,-4.2,-3,-10.5,1.2,-14c4.2,-3.6,10.5,-3,14.1,1.2Z" class="g8_325"/>
<path d="M213,110.6l-3.1,3m3.1,-.4l-3.1,3" class="gd_325"/>
<path d="M172.1,99l3.1,3.3m1.1,-5.9l1.2,3.9m-8.1,3l3.7,1.2" class="ge_325"/>
<path d="M185.8,106.1c1.2,1.2,.2,4.3,-2.2,6.7c-2.5,2.5,-5.5,3.5,-6.8,2.3c-1.2,-1.3,-.3,-4.3,2.2,-6.8c2.5,-2.5,5.5,-3.5,6.8,-2.2Z" class="g0_325"/>
<path d="M203.7,107.6c.6,.6,.1,1.9,-.9,3c-1.1,1,-2.4,1.5,-3,.9c-.5,-.5,-.1,-1.8,1,-2.9c1.1,-1.1,2.4,-1.5,2.9,-1Z" class="g0_325"/>
<path d="M32.1,45.1H9.2m958.3,0h22.9M32.1,1331.3H9.2m958.3,0h22.9M45.1,32.1V9.2m0,1335.1v22.9M954.5,32.1V9.2m0,1335.1v22.9" class="gf_325"/>
<path d="M32.1,45.1H9.2m958.3,0h22.9M32.1,1331.3H9.2m958.3,0h22.9M45.1,32.1V9.2m0,1335.1v22.9M954.5,32.1V9.2m0,1335.1v22.9" class="gg_325"/>
<path d="M27.5,32.1H0m972.1,0h27.5M27.5,1344.3H0m972.1,0h27.5M32.1,27.5V0m0,1348.9v27.5M967.5,27.5V0m0,1348.9v27.5" class="gf_325"/>
<path d="M27.5,32.1H0m972.1,0h27.5M27.5,1344.3H0m972.1,0h27.5M32.1,27.5V0m0,1348.9v27.5M967.5,27.5V0m0,1348.9v27.5" class="gg_325"/>
</svg>