<?xml version="1.0" encoding="UTF-8" standalone="no"?>
<!DOCTYPE svg PUBLIC "-//W3C//DTD SVG 1.1//EN"
"http://www.w3.org/Graphics/SVG/1.1/DTD/svg11.dtd">
<svg viewBox="0 0 999 1376" version="1.1" xmlns="http://www.w3.org/2000/svg" xmlns:xlink="http://www.w3.org/1999/xlink">
<defs>
<clipPath id="c0_233"><path d="M32.1,1344.3V32.1H967.5V1344.3Z"/></clipPath>
<clipPath id="c1_233"><path d="M215,477.9V347H831.1V477.9Z"/></clipPath>
<clipPath id="c2_233"><path d="M215,609.1V530.4H831.1v78.7Z"/></clipPath>
<clipPath id="c3_233"><path d="M215,766.4V661.9H831.1V766.4Z"/></clipPath>
<clipPath id="c4_233"><path d="M700.2,193.8V68.1H847.6V193.8Z"/></clipPath>
<style type="text/css"><![CDATA[
.g0_233{
fill: #FEFCF4;
}
.g1_233{
fill: #F16865;
}
.g2_233{
fill: #6381B7;
}
.g3_233{
fill: none;
stroke: #6381B7;
stroke-width: 0.381;
stroke-dasharray: 2,1;
}
.g4_233{
fill: none;
stroke: #6381B7;
stroke-width: 0.381;
}
.g5_233{
fill: #FEF8F8;
}
.g6_233{
fill: none;
stroke: #A164A9;
stroke-width: 1.527;
stroke-linecap: round;
stroke-linejoin: round;
stroke-dasharray: 0,5;
}
.g7_233{
fill: none;
stroke: #A164A9;
stroke-width: 1.527;
stroke-linecap: round;
stroke-linejoin: round;
}
.g8_233{
fill: #A164A9;
}
.g9_233{
fill: #FFF;
}
.ga_233{
fill: none;
stroke: #231F20;
stroke-width: 0.305;
stroke-miterlimit: 10;
}
.gb_233{
fill: none;
stroke: #8CC63E;
stroke-width: 1.527;
stroke-linecap: round;
stroke-linejoin: round;
stroke-dasharray: 0,5;
}
.gc_233{
fill: none;
stroke: #8CC63E;
stroke-width: 1.527;
stroke-linecap: round;
stroke-linejoin: round;
}
.gd_233{
fill: #8CC63E;
}
.ge_233{
fill: #6CCFF6;
}
.gf_233{
fill: none;
stroke: #231F20;
stroke-width: 1.375;
stroke-miterlimit: 10;
}
.gg_233{
fill: #485E75;
}
.gh_233{
fill: #EAD646;
}
.gi_233{
fill: none;
stroke: #231F20;
stroke-width: 1.527;
}
.gj_233{
fill: none;
stroke: #FFF;
stroke-width: 1.909;
stroke-miterlimit: 10;
}
.gk_233{
fill: none;
stroke: #000;
stroke-width: 0.381;
stroke-miterlimit: 10;
}
]]></style>
</defs>
<path clip-path="url(#c0_233)" d="M-877.3,1344.3H45.1V32.1H-877.3V1344.3Z" class="g0_233"/>
<path d="M45.1,1344.3H967.5V32.1H45.1V1344.3Z" class="g0_233"/>
<path clip-path="url(#c0_233)" d="M867.9,166.7c0,0,30.3,0,30.3,-30.3v-4.3c0,0,0,-30.3,-30.3,-30.3H-735.4c0,0,-30.4,0,-30.4,30.3v4.3c0,0,0,30.3,30.4,30.3Z" class="g1_233"/>
<path d="M702,831.1c0,0,-4.3,0,-4.3,4.3v10.9c0,0,0,4.3,4.3,4.3h30.3c0,0,4.3,0,4.3,-4.3V835.4c0,0,0,-4.3,-4.3,-4.3Z" class="g2_233"/>
<path d="M688.8,822.3v37.5m1.3,1H866.8m.9,-1.4V821.9m-1.3,-1H689.8" class="g3_233"/>
<path d="M688.8,860.2v.6h.6m177.8,0h.5v-.6m0,-38.7v-.6h-.5m-177.8,0h-.6v.6" class="g4_233"/>
<path d="M154.1,813.4h713V251h-713V813.4Z" class="g5_233"/>
<path d="M154.1,255.5V811.2m4.6,2.2H864.9m2.2,-4.5V253.3M862.6,251H156.4" class="g6_233"/>
<path d="M154.1,813.4v0m713.1,0v0m0,-562.4v0m-713.1,0v0" class="g7_233"/>
<path d="M153.3,265.3V227c0,0,0,-8.7,8.7,-8.7H859.3c0,0,8.6,0,8.6,8.7v38.9Z" class="g8_233"/>
<image clip-path="url(#c1_233)" preserveAspectRatio="none" x="215" y="347" width="615" height="131" xlink:href="img/1.png"/>
<path d="M218.3,471.5H824.6V350.2H218.3V471.5Z" class="g9_233"/>
<path d="M278.4,380h71.2" class="ga_233"/>
<image clip-path="url(#c2_233)" preserveAspectRatio="none" x="215" y="531" width="615" height="78" xlink:href="img/2.png"/>
<path d="M218.3,603H824.6V533.7H218.3V603Z" class="g9_233"/>
<path d="M596.1,563.5h56.7" class="ga_233"/>
<image clip-path="url(#c3_233)" preserveAspectRatio="none" x="215" y="662" width="615" height="105" xlink:href="img/3.png"/>
<path d="M218.3,760.4H824.6V665.2H218.3v95.2Z" class="g9_233"/>
<path d="M664.9,695h84.9" class="ga_233"/>
<image clip-path="url(#c4_233)" preserveAspectRatio="none" x="700" y="68" width="148" height="126" xlink:href="img/4.png"/>
<path d="M154.1,1243.9h713V1044.5h-713v199.4Z" class="g9_233"/>
<path d="M154.1,1049v192.7m4.6,2.2H864.9m2.2,-4.5V1046.8m-4.5,-2.3H156.4" class="gb_233"/>
<path d="M154.1,1243.9v0m713.1,0v0m0,-199.4v0m-713.1,0v0" class="gc_233"/>
<path d="M153.3,1049.1v-28.6c0,0,0,-8.7,8.7,-8.7H859.3c0,0,8.6,0,8.6,8.7v29.2Z" class="gd_233"/>
<path d="M187.2,1025.6v-6.4c0,-4.8,-3.9,-8.7,-8.7,-8.7c-4.8,0,-8.6,3.9,-8.6,8.7v6.4Z" class="ge_233"/>
<path d="M187.2,1025.6v-6.4c0,-4.8,-3.9,-8.7,-8.7,-8.7c-4.8,0,-8.6,3.9,-8.6,8.7v6.4h17.3Z" class="gf_233"/>
<path d="M169.9,1027.4v5.3c0,4.8,3.8,8.7,8.6,8.7c4.8,0,8.7,-3.9,8.7,-8.7v-5.3Z" class="ge_233"/>
<path d="M169.9,1027.4v5.3c0,4.8,3.8,8.7,8.6,8.7c4.8,0,8.7,-3.9,8.7,-8.7v-5.3H169.9Z" class="gf_233"/>
<path d="M178.4,1046.3c-7.1,0,-13,-6,-13,-13.2h2.4c0,5.9,4.8,10.8,10.6,10.8c5.8,0,10.6,-4.9,10.6,-10.8h2.4c0,7.2,-5.8,13.2,-13,13.2Z" class="gg_233"/>
<path d="M178.4,1046.3c-7.1,0,-13,-6,-13,-13.2h2.4c0,5.9,4.8,10.8,10.6,10.8c5.8,0,10.6,-4.9,10.6,-10.8h2.4c0,7.2,-5.8,13.2,-13,13.2Z" class="gf_233"/>
<path d="M177.5,1053.4h2.4v-8h-2.4v8Z" class="gg_233"/>
<path d="M177.5,1053.4h2.4v-8h-2.4v8Z" class="gf_233"/>
<path d="M178.6,1049.8c-3.6,0,-6.6,2.2,-6.7,4.9h13.4c-.1,-2.7,-3.1,-4.9,-6.7,-4.9Z" class="gg_233"/>
<path d="M178.6,1049.8c-3.6,0,-6.6,2.2,-6.7,4.9h13.4c-.1,-2.7,-3.1,-4.9,-6.7,-4.9Z" class="gf_233"/>
<path d="M201.3,1005.3c-6.5,0,-11.9,5.4,-11.9,12c0,2.7,.9,5.1,2.4,7.1l-1.5,5.4l5.5,-2c1.7,.9,3.5,1.4,5.5,1.4c6.6,0,12,-5.3,12,-11.9c0,-6.6,-5.4,-12,-12,-12Z" class="gh_233"/>
<path d="M201.3,1005.3c-6.5,0,-11.9,5.4,-11.9,12c0,2.7,.9,5.1,2.4,7.1l-1.5,5.4l5.5,-2c1.7,.9,3.5,1.4,5.5,1.4c6.6,0,12,-5.3,12,-11.9c0,-6.6,-5.4,-12,-12,-12Z" class="gf_233"/>
<path d="M196.9,1017.1c0,.7,-.7,1.4,-1.4,1.4c-.8,0,-1.4,-.7,-1.4,-1.4c0,-.8,.6,-1.4,1.4,-1.4c.7,0,1.4,.6,1.4,1.4Z" class="g9_233"/>
<path d="M196.9,1017.1c0,.7,-.7,1.4,-1.4,1.4c-.8,0,-1.4,-.7,-1.4,-1.4c0,-.8,.6,-1.4,1.4,-1.4c.7,0,1.4,.6,1.4,1.4Z" class="gf_233"/>
<path d="M203,1017.1c0,.8,-.6,1.4,-1.4,1.4c-.8,0,-1.4,-.6,-1.4,-1.4c0,-.8,.6,-1.4,1.4,-1.4c.8,0,1.4,.6,1.4,1.4Z" class="g9_233"/>
<path d="M203,1017.1c0,.8,-.6,1.4,-1.4,1.4c-.8,0,-1.4,-.6,-1.4,-1.4c0,-.8,.6,-1.4,1.4,-1.4c.8,0,1.4,.6,1.4,1.4Z" class="gf_233"/>
<path d="M209.1,1017.1c0,.8,-.6,1.4,-1.4,1.4c-.8,0,-1.4,-.6,-1.4,-1.4c0,-.8,.6,-1.4,1.4,-1.4c.8,0,1.4,.6,1.4,1.4Z" class="g9_233"/>
<path d="M209.1,1017.1c0,.8,-.6,1.4,-1.4,1.4c-.8,0,-1.4,-.6,-1.4,-1.4c0,-.8,.6,-1.4,1.4,-1.4c.8,0,1.4,.6,1.4,1.4Z" class="gf_233"/>
<path d="M785.7,1031.5c0,0,-.5,-9.9,8.6,-9.3c0,0,6.8,-.4,6.7,9.5m-15.3,-1.5v6.5c0,0,-3.4,.3,-4,-3c0,0,0,-3.8,4,-3.5Zm15.3,0v6.5c0,0,3.4,.3,3.9,-3c0,0,.1,-3.8,-3.9,-3.5Z" class="gi_233"/>
<path d="M32.1,45.1H9.2m958.3,0h22.9M32.1,1331.3H9.2m958.3,0h22.9M45.1,32.1V9.2m0,1335.1v22.9M954.5,32.1V9.2m0,1335.1v22.9" class="gj_233"/>
<path d="M32.1,45.1H9.2m958.3,0h22.9M32.1,1331.3H9.2m958.3,0h22.9M45.1,32.1V9.2m0,1335.1v22.9M954.5,32.1V9.2m0,1335.1v22.9" class="gk_233"/>
<path d="M27.5,32.1H0m972.1,0h27.5M27.5,1344.3H0m972.1,0h27.5M32.1,27.5V0m0,1348.9v27.5M967.5,27.5V0m0,1348.9v27.5" class="gj_233"/>
<path d="M27.5,32.1H0m972.1,0h27.5M27.5,1344.3H0m972.1,0h27.5M32.1,27.5V0m0,1348.9v27.5M967.5,27.5V0m0,1348.9v27.5" class="gk_233"/>
</svg>