<?xml version="1.0" encoding="UTF-8" standalone="no"?>
<!DOCTYPE svg PUBLIC "-//W3C//DTD SVG 1.1//EN"
"http://www.w3.org/Graphics/SVG/1.1/DTD/svg11.dtd">
<svg viewBox="0 0 999 1376" version="1.1" xmlns="http://www.w3.org/2000/svg" xmlns:xlink="http://www.w3.org/1999/xlink">
<defs>
<clipPath id="c0_148"><path d="M32.1,1344.3V32.1H967.5V1344.3Z"/></clipPath>
<clipPath id="c1_148"><path d="M186,291.4l-6.5,-2.1L163.1,275.4V218.3H235v73.1Z"/></clipPath>
<clipPath id="c2_148"><path d="M186,757.9l-6.5,-2.1l-16.4,-14v-57H235v73.1Z"/></clipPath>
<clipPath id="c3_148"><path d="M217.7,991.4V863H344.5V991.4Z"/></clipPath>
<clipPath id="c4_148"><path d="M218.3,1149.4V1025.7H343.8v123.7Z"/></clipPath>
<style type="text/css"><![CDATA[
.g0_148{
fill: #FEFCF4;
}
.g1_148{
fill: #F16865;
}
.g2_148{
fill: #FAC3B8;
}
.g3_148{
fill: #EE314A;
}
.g4_148{
fill: #26292E;
}
.g5_148{
fill: #C5CACC;
}
.g6_148{
fill: #FFF;
}
.g7_148{
fill: #F1EBEB;
}
.g8_148{
fill: #F7943B;
}
.g9_148{
fill: #ACB5B9;
}
.ga_148{
fill: #CFD3D5;
}
.gb_148{
fill: none;
stroke: #6381B7;
stroke-width: 0.763;
}
.gc_148{
fill: none;
stroke: #231F20;
stroke-width: 0.407;
}
.gd_148{
fill: #1B5B94;
}
.ge_148{
fill: #6381B7;
}
.gf_148{
fill: none;
stroke: #6381B7;
stroke-width: 0.381;
stroke-dasharray: 2,1;
}
.gg_148{
fill: none;
stroke: #6381B7;
stroke-width: 0.381;
}
.gh_148{
fill: #FCE8B0;
}
.gi_148{
fill: #E3E7F2;
}
.gj_148{
fill: none;
stroke: #231F20;
stroke-width: 0.458;
stroke-miterlimit: 10;
}
.gk_148{
fill: none;
stroke: #FFF;
stroke-width: 1.909;
stroke-miterlimit: 10;
}
.gl_148{
fill: none;
stroke: #000;
stroke-width: 0.381;
stroke-miterlimit: 10;
}
]]></style>
</defs>
<path clip-path="url(#c0_148)" d="M954.5,1344.3H1877V32.1H954.5V1344.3Z" class="g0_148"/>
<path d="M32.1,1344.3H954.5V32.1H32.1V1344.3Z" class="g0_148"/>
<path clip-path="url(#c0_148)" d="M1777.4,167.1c0,0,30.3,0,30.3,-30.3v-4.4c0,0,0,-30.3,-30.3,-30.3H173.9c0,0,-30.3,0,-30.3,30.3v4.4c0,0,0,30.3,30.3,30.3Z" class="g1_148"/>
<path d="M186.5,132.4c0,27.1,-22,49.1,-49.1,49.1c-27,0,-49,-22,-49,-49.1c0,-27.1,22,-49,49,-49c27.1,0,49.1,21.9,49.1,49Z" class="g2_148"/>
<path d="M178.1,105c15.2,22.5,9.2,52.9,-13.2,68.1c-22.5,15.1,-53,9.2,-68.1,-13.2Z" class="g3_148"/>
<path d="M96.8,159.9h81.3V105H96.8v54.9Z" class="g4_148"/>
<path d="M137.7,157.2h16.8V136.9H137.7v20.3Z" class="g5_148"/>
<path d="M143.1,157.2h33.7V103H143.1v54.2Z" class="g5_148"/>
<path d="M141.6,103.4v49.9c.5,-.2,1,-.4,1.5,-.4h33.7V103H143.1c-.5,0,-1,.1,-1.5,.4Z" class="g6_148"/>
<path d="M137.7,109.4v47.8c0,0,2.5,-3.1,3.9,-3.9V103.4c-2.2,1.1,-3.9,4.2,-3.9,6Z" class="g7_148"/>
<path d="M143.5,112.7h29.1v-1.5H143.5v1.5Z" class="g5_148"/>
<path d="M143.5,115.9h29.1v-1.5H143.5v1.5Z" class="g5_148"/>
<path d="M143.5,119.1h29.1v-1.4H143.5v1.4Z" class="g5_148"/>
<path d="M143.5,122.3h29.1v-1.4H143.5v1.4Z" class="g5_148"/>
<path d="M143.5,125.5h29.1v-1.4H143.5v1.4Z" class="g5_148"/>
<path d="M143.5,128.7h29.1v-1.4H143.5v1.4Z" class="g5_148"/>
<path d="M143.5,131.9h29.1v-1.4H143.5v1.4Z" class="g5_148"/>
<path d="M143.5,135.1h29.1v-1.4H143.5v1.4Z" class="g5_148"/>
<path d="M143.5,138.3h29.1v-1.4H143.5v1.4Z" class="g5_148"/>
<path d="M143.5,141.6h29.1v-1.5H143.5v1.5Z" class="g5_148"/>
<path d="M143.5,144.8h29.1v-1.5H143.5v1.5Z" class="g5_148"/>
<path d="M143.5,148h29.1v-1.5H143.5V148Z" class="g5_148"/>
<path d="M159.7,151.2l1,-.8l1,.8V102.3h-2Z" class="g8_148"/>
<path d="M120.9,157.2h16.8V136.9H120.9v20.3Z" class="g9_148"/>
<path d="M98.6,157.2h33.6V103H98.6v54.2Z" class="g9_148"/>
<path d="M98.6,103v49.9h33.6c.6,0,1.1,.2,1.6,.4V103.4c-.5,-.3,-1,-.4,-1.6,-.4Z" class="g6_148"/>
<path d="M133.8,103.4v49.9c1.4,.8,3.9,3.9,3.9,3.9V109.4c0,-1.8,-1.7,-4.9,-3.9,-6Z" class="ga_148"/>
<path d="M109.7,112.7h14.5v-1.5H109.7v1.5Z" class="g5_148"/>
<path d="M102.8,119.1h29.1v-1.4H102.8v1.4Z" class="g5_148"/>
<path d="M102.8,122.3h29.1v-1.4H102.8v1.4Z" class="g5_148"/>
<path d="M102.8,125.5h29.1v-1.4H102.8v1.4Z" class="g5_148"/>
<path d="M102.8,128.7h29.1v-1.4H102.8v1.4Z" class="g5_148"/>
<path d="M102.8,131.9h29.1v-1.4H102.8v1.4Z" class="g5_148"/>
<path d="M102.8,135.1h29.1v-1.4H102.8v1.4Z" class="g5_148"/>
<path d="M102.8,138.3h29.1v-1.4H102.8v1.4Z" class="g5_148"/>
<path d="M102.8,141.6h29.1v-1.5H102.8v1.5Z" class="g5_148"/>
<path d="M102.8,144.8h29.1v-1.5H102.8v1.5Z" class="g5_148"/>
<path d="M102.8,148h29.1v-1.5H102.8V148Z" class="g5_148"/>
<path d="M144.8,305.3c0,0,-13,0,-13,13V632.7c0,0,0,13,13,13H833.1c0,0,13,0,13,-13V318.3c0,0,0,-13,-13,-13Z" class="g6_148"/>
<path d="M144.8,305.3c0,0,-13,0,-13,13V632.7c0,0,0,13,13,13H833.1c0,0,13,0,13,-13V318.3c0,0,0,-13,-13,-13H144.8Z" class="gb_148"/>
<path d="M257.5,386.6c-14.9,0,-27,12,-27,26.9c0,14.9,12.1,27,27,27c14.9,0,26.9,-12.1,26.9,-27c0,-14.9,-12,-26.9,-26.9,-26.9Z" class="g6_148"/>
<path d="M257.5,386.6c-14.9,0,-27,12,-27,26.9c0,14.9,12.1,27,27,27c14.9,0,26.9,-12.1,26.9,-27c0,-14.9,-12,-26.9,-26.9,-26.9Z" class="gc_148"/>
<path d="M257.5,388C243.4,388,232,399.4,232,413.5c0,14.1,11.4,25.5,25.5,25.5c14.1,0,25.5,-11.4,25.5,-25.5C283,399.4,271.6,388,257.5,388Z" class="gd_148"/>
<path d="M260,407.3c0,0,5.9,1.3,6.1,1.3c.6,0,1,-.5,1,-1c0,-.3,-.2,-.6,-.2,-.6l-8.7,-12.4c-.2,-.2,-.4,-.4,-.7,-.4c-.3,0,-.6,.2,-.7,.4L248,407c-.1,.1,-.1,.3,-.1,.6c0,.5,.4,1,1,1c.1,0,6.2,-1.3,6.2,-1.3v25.5H260Z" class="g6_148"/>
<path d="M257.5,474.2c-14.9,0,-27,12.1,-27,27c0,14.9,12.1,26.9,27,26.9c14.9,0,26.9,-12,26.9,-26.9c0,-14.9,-12,-27,-26.9,-27Z" class="g6_148"/>
<path d="M257.5,474.2c-14.9,0,-27,12.1,-27,27c0,14.9,12.1,26.9,27,26.9c14.9,0,26.9,-12,26.9,-26.9c0,-14.9,-12,-27,-26.9,-27Z" class="gc_148"/>
<path d="M257.5,475.7c-14.1,0,-25.5,11.4,-25.5,25.5c0,14.1,11.4,25.5,25.5,25.5c14.1,0,25.5,-11.4,25.5,-25.5c0,-14.1,-11.4,-25.5,-25.5,-25.5Z" class="gd_148"/>
<path d="M263.1,495.2c0,0,-1.2,6,-1.2,6.1c0,.6,.4,1,1,1c.2,0,.5,-.2,.5,-.2l12.3,-8.6c.2,-.1,.3,-.4,.3,-.7c0,-.3,-.1,-.5,-.3,-.7l-12.3,-8.6c-.1,-.1,-.3,-.2,-.5,-.2c-.6,0,-1,.4,-1,1c0,.1,1.2,6.1,1.2,6.1H257c-5.1,0,-9.2,4.1,-9.2,9.2v20.1h4.8V499.6c0,-2.5,2,-4.4,4.4,-4.4Z" class="g6_148"/>
<path d="M257.5,565.4c-14.9,0,-27,12.1,-27,27c0,14.9,12.1,26.9,27,26.9c14.9,0,26.9,-12,26.9,-26.9c0,-14.9,-12,-27,-26.9,-27Z" class="g6_148"/>
<path d="M257.5,565.4c-14.9,0,-27,12.1,-27,27c0,14.9,12.1,26.9,27,26.9c14.9,0,26.9,-12,26.9,-26.9c0,-14.9,-12,-27,-26.9,-27Z" class="gc_148"/>
<path d="M257.5,566.9c-14.1,0,-25.5,11.4,-25.5,25.5c0,14.1,11.4,25.5,25.5,25.5c14.1,0,25.5,-11.4,25.5,-25.5c0,-14.1,-11.4,-25.5,-25.5,-25.5Z" class="gd_148"/>
<path d="M239.7,604h6.4v-6.5h6.6V591h6.5v-6.6h6.5v-6.5h9.6V581h-6.5v6.5h-6.5V594h-6.6v6.6h-6.5v6.5h-9.5Z" class="g6_148"/>
<path d="M262.3,602.5c0,0,3.9,-3.8,5.6,-5.6c.4,-.4,1.2,-.4,1.6,0c.5,.5,.5,1.2,0,1.7c-1.4,1.4,-5.5,5.5,-5.5,5.5c0,0,.6,0,3.1,0c.6,0,1.1,.6,1.1,1.2c0,.6,-.5,1.2,-1.1,1.2h-5.9c-.7,0,-1.2,-.6,-1.2,-1.2v-5.9c0,-.6,.5,-1.1,1.2,-1.1c.6,0,1.1,.5,1.1,1.1Z" class="g6_148"/>
<path d="M145.1,775.4c0,0,-13,0,-13,13v379.7c0,0,0,13,13,13H832.9c0,0,13,0,13,-13V788.4c0,0,0,-13,-13,-13Z" class="g6_148"/>
<path d="M145.1,775.4c0,0,-13,0,-13,13v379.7c0,0,0,13,13,13H832.9c0,0,13,0,13,-13V788.4c0,0,0,-13,-13,-13H145.1Z" class="gb_148"/>
<path d="M608.6,1197.8c0,0,-4.3,0,-4.3,4.3V1213c0,0,0,4.3,4.3,4.3H639c0,0,4.3,0,4.3,-4.3v-10.9c0,0,0,-4.3,-4.3,-4.3Z" class="ge_148"/>
<path d="M595.5,1189v37.5m1.3,1H845.3m1,-1.4v-37.5m-1.4,-1H596.4" class="gf_148"/>
<path d="M595.5,1226.9v.6h.5m249.7,0h.6v-.6m0,-38.7v-.6h-.6m-249.7,0h-.5v.6" class="gg_148"/>
<path d="M218.6,220.5c0,0,-13,0,-13,13v47.6c0,0,0,13,13,13H833.3c0,0,13,0,13,-13V233.5c0,0,0,-13,-13,-13Z" class="gh_148"/>
<image clip-path="url(#c1_148)" preserveAspectRatio="none" x="161" y="217" width="75" height="76" xlink:href="img/1.png"/>
<path d="M213.4,286.7c0,0,-26.9,11.3,-51.1,-12.7c0,0,15.1,25.3,49.3,23.9c0,0,24.7,.4,20.2,-10.1c0,0,1.2,-4.4,-18.4,-1.1Z" class="gh_148"/>
<path d="M218.6,686.9c0,0,-13,0,-13,13v47.6c0,0,0,13,13,13H833.3c0,0,13,0,13,-13V699.9c0,0,0,-13,-13,-13Z" class="gh_148"/>
<image clip-path="url(#c2_148)" preserveAspectRatio="none" x="161" y="683" width="75" height="76" xlink:href="img/2.png"/>
<path d="M213.4,753.2c0,0,-26.9,11.3,-51.1,-12.8c0,0,15.1,25.3,49.3,24c0,0,24.7,.3,20.2,-10.1c0,0,1.2,-4.5,-18.4,-1.1Z" class="gh_148"/>
<path d="M356.9,928.5H790V863.6H356.9v64.9Z" class="gi_148"/>
<path d="M392.5,915.7H556.4" class="gj_148"/>
<path d="M356.9,1091.3H790v-65H356.9v65Z" class="gi_148"/>
<path d="M392.5,1078.4H556.4" class="gj_148"/>
<path d="M218.3,990.8H343.8V863.6H218.3V990.8Z" class="g6_148"/>
<image clip-path="url(#c3_148)" preserveAspectRatio="none" x="217" y="864" width="128" height="127" xlink:href="img/3.jpg"/>
<path d="M218.3,1149.4H343.8V1025.7H218.3v123.7Z" class="g6_148"/>
<image clip-path="url(#c4_148)" preserveAspectRatio="none" x="217" y="1024" width="128" height="127" xlink:href="img/4.jpg"/>
<path d="M32.1,45.1H9.2m958.3,0h22.9M32.1,1331.3H9.2m958.3,0h22.9M45.1,32.1V9.2m0,1335.1v22.9M954.5,32.1V9.2m0,1335.1v22.9" class="gk_148"/>
<path d="M32.1,45.1H9.2m958.3,0h22.9M32.1,1331.3H9.2m958.3,0h22.9M45.1,32.1V9.2m0,1335.1v22.9M954.5,32.1V9.2m0,1335.1v22.9" class="gl_148"/>
<path d="M27.5,32.1H0m972.1,0h27.5M27.5,1344.3H0m972.1,0h27.5M32.1,27.5V0m0,1348.9v27.5M967.5,27.5V0m0,1348.9v27.5" class="gk_148"/>
<path d="M27.5,32.1H0m972.1,0h27.5M27.5,1344.3H0m972.1,0h27.5M32.1,27.5V0m0,1348.9v27.5M967.5,27.5V0m0,1348.9v27.5" class="gl_148"/>
</svg>