<?xml version="1.0" encoding="UTF-8" standalone="no"?>
<!DOCTYPE svg PUBLIC "-//W3C//DTD SVG 1.1//EN"
"http://www.w3.org/Graphics/SVG/1.1/DTD/svg11.dtd">
<svg viewBox="0 0 999 1376" version="1.1" xmlns="http://www.w3.org/2000/svg" xmlns:xlink="http://www.w3.org/1999/xlink">
<defs>
<clipPath id="c0_28"><path d="M32.1,1344.3V32.1H967.5V1344.3Z"/></clipPath>
<clipPath id="c1_28"><path d="M181.3,486.3l-6.4,-2L160.8,473.1V412.2h62.7v74.1Z"/></clipPath>
<style type="text/css"><![CDATA[
.g0_28{
fill: #FFFDEA;
}
.g1_28{
fill: #BCE4EA;
}
.g2_28{
fill: #BCBEC0;
}
.g3_28{
fill: #00AABD;
}
.g4_28{
fill: #D2D3D5;
}
.g5_28{
fill: #949698;
}
.g6_28{
fill: none;
stroke: #6D6F71;
stroke-width: 0.305;
stroke-miterlimit: 10;
}
.g7_28{
fill: #FCDCBA;
}
.g8_28{
fill: #DED3E8;
}
.g9_28{
fill: #FFF;
}
.ga_28{
fill: none;
stroke: #FFF;
stroke-width: 1.909;
stroke-miterlimit: 10;
}
.gb_28{
fill: none;
stroke: #000;
stroke-width: 0.381;
stroke-miterlimit: 10;
}
]]></style>
</defs>
<g clip-path="url(#c0_28)">
<path d="M32.1,1344.3H1877V32.1H32.1V1344.3Z" class="g0_28"/>
<path d="M32.1,179.3H1877V32.1H32.1V179.3Z" class="g1_28"/>
<path d="M1877,177.2H32.1v-5.4H768.7c43.1,0,53,-37.9,115.3,-37.9h993Z" class="g2_28"/>
<path d="M1877,183.7H32.1v-9.8H768.7c43.1,0,53,-33.6,115.3,-33.6h993Z" class="g3_28"/>
</g>
<path d="M277.6,276.4h56.3v104H277.6v-104Zm268.4,0H652.8v52H546v-52Z" class="g4_28"/>
<path d="M333.9,276.4h56.3v104H333.9v-104Zm212.1,52H652.8v52H546v-52Z" class="g5_28"/>
<path d="M277.5,276.4h56.4m-56.3,52V276.6m56.3,-.2h56.3m-56.3,52V276.6m56.3,-.2h79.4m-79.4,52V276.6m79.3,51.8V276.6m76.3,-.2h107M546,328.2V276.6m106.8,-.2h86.6m-86.6,51.8V276.6m86.5,51.8V276.6M277.6,380.2V328.4m56.3,51.8V328.4m56.3,51.8V328.4m79.3,51.8V328.4m76.3,0H653M546,380.2V328.5m106.8,51.7V328.5m86.5,51.7V328.4m-461.8,52h56.4m0,0h56.3m0,0h79.4m76.2,0h107m0,0h86.6" class="g6_28"/>
<path d="M214,441.3c0,0,-13,0,-13,13V476c0,0,0,13,13,13H833c0,0,13,0,13,-13V454.3c0,0,0,-13,-13,-13Z" class="g7_28"/>
<image clip-path="url(#c1_28)" preserveAspectRatio="none" x="161" y="411" width="63" height="77" xlink:href="img/1.png"/>
<path d="M208.8,481.6c0,0,-26.9,11.3,-51.1,-12.7c0,0,15.1,25.3,49.3,23.9c0,0,24.7,.4,20.2,-10.1c0,0,1.2,-4.4,-18.4,-1.1Z" class="g7_28"/>
<path d="M170.8,514h69.3v43.3H170.8V514Zm69.3,0H357v43.3H240.1V514ZM357,514H843.9v43.3H357V514Z" class="g8_28"/>
<path d="M170.8,557.3h69.3v57.2H170.8V557.3Zm69.3,0H357v57.2H240.1V557.3Zm116.9,0h81.2v57.2H357V557.3Zm81.2,0h81.1v57.2H438.2V557.3Zm81.1,0h81.2v57.2H519.3V557.3Zm81.2,0h81.1v57.2H600.5V557.3Zm81.1,0h81.2v57.2H681.6V557.3Zm81.2,0h81.1v57.2H762.8V557.3Zm-592,57.2h69.3v57.2H170.8V614.5Zm69.3,0H357v57.2H240.1V614.5Zm116.9,0h81.2v57.2H357V614.5Zm81.2,0h81.1v57.2H438.2V614.5Zm81.1,0h81.2v57.2H519.3V614.5Zm81.2,0h81.1v57.2H600.5V614.5Zm81.1,0h81.2v57.2H681.6V614.5Zm81.2,0h81.1v57.2H762.8V614.5Zm-592,57.2h69.3v57.1H170.8V671.7Zm69.3,0H357v57.1H240.1V671.7Zm116.9,0h81.2v57.1H357V671.7Zm81.2,0h81.1v57.1H438.2V671.7Zm81.1,0h81.2v57.1H519.3V671.7Zm81.2,0h81.1v57.1H600.5V671.7Zm81.1,0h81.2v57.1H681.6V671.7Zm81.2,0h81.1v57.1H762.8V671.7Zm-592,57.1h69.3V786H170.8V728.8Zm69.3,0H357V786H240.1V728.8Zm116.9,0h81.2V786H357V728.8Zm81.2,0h81.1V786H438.2V728.8Zm81.1,0h81.2V786H519.3V728.8Zm81.2,0h81.1V786H600.5V728.8Zm81.1,0h81.2V786H681.6V728.8Zm81.2,0h81.1V786H762.8V728.8ZM170.8,786h69.3v57.1H170.8V786Zm69.3,0H357v57.1H240.1V786ZM357,786h81.2v57.1H357V786Zm81.2,0h81.1v57.1H438.2V786Zm81.1,0h81.2v57.1H519.3V786Zm81.2,0h81.1v57.1H600.5V786Zm81.1,0h81.2v57.1H681.6V786Zm81.2,0h81.1v57.1H762.8V786Zm-592,57.1h69.3v57.2H170.8V843.1Zm69.3,0H357v57.2H240.1V843.1Zm116.9,0h81.2v57.2H357V843.1Zm81.2,0h81.1v57.2H438.2V843.1Zm81.1,0h81.2v57.2H519.3V843.1Zm81.2,0h81.1v57.2H600.5V843.1Zm81.1,0h81.2v57.2H681.6V843.1Zm81.2,0h81.1v57.2H762.8V843.1Zm-592,57.2h69.3v57.2H170.8V900.3Zm69.3,0H357v57.2H240.1V900.3Zm116.9,0h81.2v57.2H357V900.3Zm81.2,0h81.1v57.2H438.2V900.3Zm81.1,0h81.2v57.2H519.3V900.3Zm81.2,0h81.1v57.2H600.5V900.3Zm81.1,0h81.2v57.2H681.6V900.3Zm81.2,0h81.1v57.2H762.8V900.3Zm-592,57.2h69.3v57.1H170.8V957.5Zm69.3,0H357v57.1H240.1V957.5Zm116.9,0h81.2v57.1H357V957.5Zm81.2,0h81.1v57.1H438.2V957.5Zm81.1,0h81.2v57.1H519.3V957.5Zm81.2,0h81.1v57.1H600.5V957.5Zm81.1,0h81.2v57.1H681.6V957.5Zm81.2,0h81.1v57.1H762.8V957.5Zm-592,57.1h69.3v57.2H170.8v-57.2Zm69.3,0H357v57.2H240.1v-57.2Zm116.9,0h81.2v57.2H357v-57.2Zm81.2,0h81.1v57.2H438.2v-57.2Zm81.1,0h81.2v57.2H519.3v-57.2Zm81.2,0h81.1v57.2H600.5v-57.2Zm81.1,0h81.2v57.2H681.6v-57.2Zm81.2,0h81.1v57.2H762.8v-57.2Zm-592,57.2h69.3V1129H170.8v-57.2Zm69.3,0H357V1129H240.1v-57.2Zm116.9,0h81.2V1129H357v-57.2Zm81.2,0h81.1V1129H438.2v-57.2Zm81.1,0h81.2V1129H519.3v-57.2Zm81.2,0h81.1V1129H600.5v-57.2Zm81.1,0h81.2V1129H681.6v-57.2Zm81.2,0h81.1V1129H762.8v-57.2Z" class="g9_28"/>
<path d="M170.8,614.3V557.5m69.3,56.8V557.5M357,614.3V557.5m81.2,56.8V557.5m81.1,56.8V557.5m81.2,56.8V557.5m81.1,56.8V557.5m81.2,56.8V557.5m81.1,56.8V557.5m-673.2,57h69.4m-69.3,57V614.6m69.3,-.1H357m-116.9,57V614.6M357,614.5h81.2m-81.2,57V614.6m81.2,-.1h81.1m-81.1,57V614.6m81.1,-.1h81.2m-81.2,57V614.6m81.2,-.1h81.1m-81.1,57V614.6m81.1,-.1h81.2m-81.2,57V614.6m81.2,-.1h81.3m-81.3,57V614.6m81.1,56.9V614.6M170.7,671.7h69.4m-69.3,57V671.8m69.3,-.1H357m-116.9,57V671.8M357,671.7h81.2m-81.2,57V671.8m81.2,-.1h81.1m-81.1,57V671.8m81.1,-.1h81.2m-81.2,57V671.8m81.2,-.1h81.1m-81.1,57V671.8m81.1,-.1h81.2m-81.2,57V671.8m81.2,-.1h81.3m-81.3,57V671.8m81.1,56.9V671.8m-673.2,57h69.4m-69.3,57V729m69.3,-.2H357m-116.9,57V729M357,728.8h81.2m-81.2,57V729m81.2,-.2h81.1m-81.1,57V729m81.1,-.2h81.2m-81.2,57V729m81.2,-.2h81.1m-81.1,57V729m81.1,-.2h81.2m-81.2,57V729m81.2,-.2h81.3m-81.3,57V729m81.1,56.8V729M170.7,786h69.4m-69.3,57V786.1m69.3,-.1H357M240.1,843V786.1M357,786h81.2M357,843V786.1m81.2,-.1h81.1m-81.1,57V786.1m81.1,-.1h81.2m-81.2,57V786.1m81.2,-.1h81.1m-81.1,57V786.1m81.1,-.1h81.2m-81.2,57V786.1m81.2,-.1h81.3m-81.3,57V786.1M843.9,843V786.1m-673.2,57h69.4m-69.3,57.1V843.3m69.3,-.2H357M240.1,900.2V843.3M357,843.1h81.2M357,900.2V843.3m81.2,-.2h81.1m-81.1,57.1V843.3m81.1,-.2h81.2m-81.2,57.1V843.3m81.2,-.2h81.1m-81.1,57.1V843.3m81.1,-.2h81.2m-81.2,57.1V843.3m81.2,-.2h81.3m-81.3,57.1V843.3m81.1,56.9V843.3m-673.2,57h69.4m-69.3,57V900.5m69.3,-.2H357m-116.9,57V900.5M357,900.3h81.2m-81.2,57V900.5m81.2,-.2h81.1m-81.1,57V900.5m81.1,-.2h81.2m-81.2,57V900.5m81.2,-.2h81.1m-81.1,57V900.5m81.1,-.2h81.2m-81.2,57V900.5m81.2,-.2h81.3m-81.3,57V900.5m81.1,56.8V900.5m-673.2,57h69.4m-69.3,57V957.6m69.3,-.1H357m-116.9,57V957.6M357,957.5h81.2m-81.2,57V957.6m81.2,-.1h81.1m-81.1,57V957.6m81.1,-.1h81.2m-81.2,57V957.6m81.2,-.1h81.1m-81.1,57V957.6m81.1,-.1h81.2m-81.2,57V957.6m81.2,-.1h81.3m-81.3,57V957.6m81.1,56.9V957.6m-673.2,57h69.4m-69.3,57.1v-56.9m69.3,-.2H357m-116.9,57.1v-56.9m116.9,-.2h81.2M357,1071.7v-56.9m81.2,-.2h81.1m-81.1,57.1v-56.9m81.1,-.2h81.2m-81.2,57.1v-56.9m81.2,-.2h81.1m-81.1,57.1v-56.9m81.1,-.2h81.2m-81.2,57.1v-56.9m81.2,-.2h81.3m-81.3,57.1v-56.9m81.1,56.9v-56.9m-673.2,57h69.4m-69.3,57V1072m69.3,-.2H357m-116.9,57V1072m116.9,-.2h81.2m-81.2,57V1072m81.2,-.2h81.1m-81.1,57V1072m81.1,-.2h81.2m-81.2,57V1072m81.2,-.2h81.1m-81.1,57V1072m81.1,-.2h81.2m-81.2,57V1072m81.2,-.2h81.3m-81.3,57V1072m81.1,56.8V1072m-673.2,57h69.4m0,0H357m0,0h81.2m0,0h81.1m0,0h81.2m0,0h81.1m0,0h81.2m0,0h81.3M170.7,514h69.4m-69.3,43.2v-43m-.1,43.1h69.4m0,-43.3H357M240.1,557.2v-43m0,43.1H357M357,514h81.2M357,557.2v-43m81.2,-.2h81.1m0,0h81.2m0,0h81.1m0,0h81.2m0,0h81.3m-.2,43.2v-43M357,557.3h81.2m0,0h81.1m0,0h81.2m0,0h81.1m0,0h81.2m0,0h81.3" class="g6_28"/>
<path d="M32.1,45.1H9.2m958.3,0h22.9M32.1,1331.3H9.2m958.3,0h22.9M45.1,32.1V9.2m0,1335.1v22.9M954.5,32.1V9.2m0,1335.1v22.9" class="ga_28"/>
<path d="M32.1,45.1H9.2m958.3,0h22.9M32.1,1331.3H9.2m958.3,0h22.9M45.1,32.1V9.2m0,1335.1v22.9M954.5,32.1V9.2m0,1335.1v22.9" class="gb_28"/>
<path d="M27.5,32.1H0m972.1,0h27.5M27.5,1344.3H0m972.1,0h27.5M32.1,27.5V0m0,1348.9v27.5M967.5,27.5V0m0,1348.9v27.5" class="ga_28"/>
<path d="M27.5,32.1H0m972.1,0h27.5M27.5,1344.3H0m972.1,0h27.5M32.1,27.5V0m0,1348.9v27.5M967.5,27.5V0m0,1348.9v27.5" class="gb_28"/>
</svg>