<?xml version="1.0" encoding="UTF-8" standalone="no"?>
<!DOCTYPE svg PUBLIC "-//W3C//DTD SVG 1.1//EN"
"http://www.w3.org/Graphics/SVG/1.1/DTD/svg11.dtd">
<svg viewBox="0 0 999 1376" version="1.1" xmlns="http://www.w3.org/2000/svg" xmlns:xlink="http://www.w3.org/1999/xlink">
<defs>
<clipPath id="c0_301"><path d="M154.8,1244.6V131.6H869.3v1113Z"/></clipPath>
<clipPath id="c1_301"><path d="M178.2,478.8V261.6H421.8V478.8Z"/></clipPath>
<clipPath id="c2_301"><path d="M178.2,726.4V509.2H421.8V726.4Z"/></clipPath>
<clipPath id="c3_301"><path d="M178.2,968.8V756.9H421.8V968.8Z"/></clipPath>
<clipPath id="c4_301"><path d="M178.2,1214.1V999.3H421.8v214.8Z"/></clipPath>
<style type="text/css"><![CDATA[
.g0_301{
fill: #FFF;
}
.g1_301{
fill: none;
stroke: #231F20;
stroke-width: 0.756;
stroke-miterlimit: 3;
}
.g2_301{
fill: #25408F;
}
.g3_301{
fill: #6381B7;
}
.g4_301{
fill: #FFDE2C;
}
.g5_301{
fill: none;
stroke: #231F20;
stroke-width: 1.451;
stroke-miterlimit: 10;
}
.g6_301{
fill: #D2D3D5;
}
.g7_301{
fill: #A8AAAD;
}
.g8_301{
fill: none;
stroke: #231F20;
stroke-width: 0.828;
stroke-miterlimit: 10;
}
.g9_301{
fill: #6CCFF6;
}
.ga_301{
fill: none;
stroke: #231F20;
stroke-width: 0.828;
stroke-linecap: round;
stroke-linejoin: round;
}
.gb_301{
fill: none;
stroke: #231F20;
stroke-width: 1.451;
stroke-linecap: round;
stroke-linejoin: round;
}
.gc_301{
fill: none;
stroke: #FFF;
stroke-width: 1.909;
stroke-miterlimit: 10;
}
.gd_301{
fill: none;
stroke: #000;
stroke-width: 0.381;
stroke-miterlimit: 10;
}
]]></style>
</defs>
<path d="M154.8,1244.6H869.3V131.6H154.8v1113Z" class="g0_301"/>
<image clip-path="url(#c0_301)" preserveAspectRatio="none" x="152" y="129" width="719" height="1118" xlink:href="img/1.jpg"/>
<path d="M440.7,213.3c-.3,.7,-.8,1.3,-1.4,1.7c-.6,.5,-1.3,.9,-2.1,1.1c-.8,.3,-1.6,.4,-2.6,.4c-.9,0,-1.8,-.1,-2.6,-.4c-.8,-.2,-1.5,-.6,-2.1,-1.1c-.6,-.4,-1.1,-1,-1.4,-1.7c-.3,-.6,-.5,-1.4,-.5,-2.2c0,-.8,.2,-1.5,.5,-2.2c.3,-.6,.8,-1.2,1.4,-1.7c.6,-.4,1.3,-.8,2.1,-1c.8,-.3,1.7,-.4,2.6,-.4c1,0,1.9,.1,2.7,.4c.8,.2,1.5,.6,2,1c.6,.5,1.1,1.1,1.4,1.7c.4,.7,.5,1.4,.5,2.2c0,.8,-.1,1.6,-.5,2.2Zm-.8,-22.2c.3,0,.6,.1,.8,.3c.1,.1,.2,.3,.3,.5c0,.2,0,.4,0,.6c0,.2,-.1,.3,-.2,.4c-.4,.6,-.8,1.1,-1.4,1.6c-.5,.5,-1.1,1,-1.8,1.4c.3,.1,.7,.2,1,.3c.3,.1,.6,.2,.9,.3c.4,.3,.9,.6,1.6,.9c.6,.4,1.2,.8,1.8,1.2l-1.1,1.6c-.5,-.4,-1.1,-.7,-1.7,-1.1c-.6,-.4,-1.2,-.8,-1.8,-1.1c-.3,-.2,-.7,-.3,-1.2,-.5c-.6,-.2,-1.1,-.3,-1.8,-.4c-1.3,.6,-2.7,1.2,-4.3,1.6c-1.5,.5,-3.2,.9,-4.8,1.2l-.5,-1.9c2.7,-.5,5,-1.1,7,-1.8c2.1,-.8,3.9,-1.9,5.6,-3.3H427.2v-1.8h12.7Zm-2.1,17.5c-.8,-.7,-1.9,-1,-3.2,-1c-1.2,0,-2.3,.3,-3.1,1c-.8,.6,-1.2,1.5,-1.2,2.5c0,1.1,.4,2,1.2,2.6c.8,.7,1.9,1,3.1,1c1.3,0,2.4,-.3,3.2,-1c.8,-.6,1.2,-1.5,1.2,-2.6c0,-1,-.4,-1.9,-1.2,-2.5Zm7.6,-4.4H424.1v-1.8h9.3v-3.3h2.2v3.3h9.8v1.8Zm6.2,5v-7.6h2.2v7.6h3.7v-7.6h2.3v7.6h8.5v1.9H447v-1.9h4.6Zm10.2,-3.1c.3,-1.5,.6,-3.2,.8,-5c.3,-1.8,.4,-3.8,.4,-5.9c0,-.4,-.1,-.6,-.2,-.8c-.2,-.1,-.4,-.2,-.8,-.2H449.4v-1.8h13.3c1,0,1.6,.2,2,.6c.3,.5,.5,1.1,.5,1.9c0,1.9,-.2,3.9,-.4,6c-.3,2,-.6,3.9,-1,5.6l-2,-.4Zm35.4,7.1c-.4,.6,-.8,1.3,-1.4,1.8c-.6,.5,-1.3,.8,-2,1.1c-.8,.3,-1.6,.4,-2.5,.4c-.8,0,-1.7,-.1,-2.4,-.4c-.8,-.3,-1.5,-.6,-2.1,-1.1c-.6,-.5,-1,-1.2,-1.4,-1.8c-.3,-.7,-.5,-1.5,-.5,-2.4c0,-.8,.2,-1.6,.5,-2.3c.4,-.7,.8,-1.3,1.4,-1.8c.6,-.5,1.3,-.9,2.1,-1.2c.7,-.3,1.6,-.4,2.4,-.4c.9,0,1.7,.1,2.5,.4c.8,.3,1.5,.7,2,1.2c.6,.5,1.1,1.1,1.4,1.8c.3,.7,.5,1.5,.5,2.3c0,.9,-.2,1.7,-.5,2.4Zm-9,-12.5c-.3,.6,-.7,1.2,-1.2,1.6c-.5,.5,-1.1,.8,-1.7,1c-.6,.3,-1.3,.4,-1.9,.4c-.7,0,-1.4,-.1,-2.1,-.4c-.6,-.2,-1.2,-.6,-1.6,-1c-.5,-.5,-.9,-1,-1.2,-1.6c-.3,-.7,-.4,-1.4,-.4,-2.2c0,-.6,.1,-1.3,.3,-1.9c.3,-.6,.6,-1.1,1.1,-1.6h-2.6v-1.7h5c.2,-.3,.4,-.6,.4,-.9c.1,-.3,.1,-.7,.1,-1c0,0,0,-.1,0,-.2c0,-.1,0,-.2,0,-.3q-.1,-.1,-.1,-.2c0,-.1,0,-.2,-.1,-.3l2.1,-.7c.1,.3,.1,.5,.2,.8c0,.3,0,.6,0,.8c0,.4,-.1,.8,-.1,1.1c-.1,.3,-.3,.6,-.5,.9h5.9V195h-2.6c.4,.5,.8,1,1,1.6c.3,.6,.4,1.3,.4,1.9c0,.8,-.1,1.6,-.4,2.2Zm5.4,-4.1h3.1v-5.4h2.2v14.1h-2.2v-6.9h-3.1v5.5h-2.2V191.2h2.2v5.4Zm.7,11.4c-.8,-.8,-1.7,-1.1,-3,-1.1c-1.2,0,-2.2,.3,-3,1.1c-.8,.7,-1.1,1.7,-1.1,2.8c0,1.2,.3,2.2,1.1,2.9c.8,.7,1.8,1,3,1c1.3,0,2.2,-.3,3,-1c.8,-.7,1.2,-1.7,1.2,-2.9c0,-1.1,-.4,-2.1,-1.2,-2.8Zm-8.7,-11.9c-.6,-.6,-1.3,-.9,-2.2,-.9c-1,0,-1.7,.3,-2.3,.9c-.6,.6,-.9,1.4,-.9,2.4c0,1.1,.3,1.9,.9,2.5c.6,.6,1.3,.9,2.3,.9c.9,0,1.6,-.3,2.2,-.9c.6,-.6,.9,-1.4,.9,-2.5c0,-1,-.3,-1.8,-.9,-2.4ZM509.5,192c.2,.5,.3,1,.5,1.5c.1,.6,.1,1.2,.1,1.9c0,1,0,1.9,-.1,2.7c-.1,.8,-.2,1.6,-.4,2.3c.6,.2,1.2,.4,1.7,.7c.5,.3,.9,.7,1.2,1.1c.4,.6,1,1.3,1.6,2.2c.6,.9,1.2,2,2,3.2l-1.7,1.2c-.6,-1,-1.2,-1.9,-1.8,-2.9c-.6,-.9,-1.2,-1.7,-1.6,-2.3c-.3,-.3,-.6,-.6,-.9,-.8c-.3,-.2,-.7,-.5,-1.2,-.6c-.1,.2,-.3,.5,-.4,.8c-.2,.3,-.3,.5,-.5,.8c-.7,1,-1.4,1.9,-2.3,2.8c-.8,.9,-1.8,1.7,-2.8,2.5l-1.3,-1.7c1,-.7,1.8,-1.5,2.6,-2.3c.8,-.8,1.5,-1.6,2,-2.4c.7,-1,1.1,-2.1,1.3,-3.3c.2,-1.3,.3,-2.5,.3,-3.9c0,-.6,0,-1.1,-.1,-1.6c-.1,-.4,-.3,-.8,-.4,-1.2l2.2,-.7Zm16.2,10.2h-4.4V214h-2.2V191.5h2.2v8.9h4.4v1.8Z" class="g1_301"/>
<image clip-path="url(#c1_301)" preserveAspectRatio="none" x="177" y="260" width="246" height="221" xlink:href="img/2.png"/>
<image clip-path="url(#c2_301)" preserveAspectRatio="none" x="177" y="508" width="246" height="220" xlink:href="img/3.png"/>
<image clip-path="url(#c3_301)" preserveAspectRatio="none" x="177" y="755" width="246" height="216" xlink:href="img/4.png"/>
<image clip-path="url(#c4_301)" preserveAspectRatio="none" x="177" y="997" width="246" height="219" xlink:href="img/5.png"/>
<path d="M153.3,126.3v22.2L165,158.7V136.5Z" class="g2_301"/>
<path d="M153.3,109.5v39H851.1c0,0,16.8,0,16.8,-16.8v-5.4c0,0,0,-16.8,-16.8,-16.8Z" class="g3_301"/>
<path d="M207.2,115.7c0,-9.1,-7.9,-16.6,-17.7,-16.6c-9.8,0,-17.7,7.5,-17.7,16.6c0,2.7,.6,5.2,1.8,7.4c1.2,2.4,2.9,4.6,5,6.2c1.2,1,1.6,1.7,1.7,4.3v.6c0,3.3,2.7,5.9,5.9,5.9h6.6c3.2,0,5.8,-2.6,5.8,-5.9v-.6c.2,-2.6,.6,-3.3,1.8,-4.3c2.1,-1.6,3.8,-3.8,5,-6.2c1.2,-2.2,1.8,-4.7,1.8,-7.4Z" class="g4_301"/>
<path d="M207.2,115.7c0,-9.1,-7.9,-16.6,-17.7,-16.6c-9.8,0,-17.7,7.5,-17.7,16.6c0,2.7,.6,5.2,1.8,7.4c1.2,2.4,2.9,4.6,5,6.2c1.2,1,1.6,1.7,1.7,4.3v.6c0,3.3,2.7,5.9,5.9,5.9h6.6c3.2,0,5.8,-2.6,5.8,-5.9v-.6c.2,-2.6,.6,-3.3,1.8,-4.3c2.1,-1.6,3.8,-3.8,5,-6.2c1.2,-2.2,1.8,-4.7,1.8,-7.4Z" class="g5_301"/>
<path d="M194.6,147.4c0,2.8,-2.3,5.1,-5.1,5.1c-2.8,0,-5.1,-2.3,-5.1,-5.1c0,-2.8,2.3,-5.1,5.1,-5.1c2.8,0,5.1,2.3,5.1,5.1Z" class="g0_301"/>
<path d="M194.6,147.4c0,2.8,-2.3,5.1,-5.1,5.1c-2.8,0,-5.1,-2.3,-5.1,-5.1c0,-2.8,2.3,-5.1,5.1,-5.1c2.8,0,5.1,2.3,5.1,5.1Z" class="g5_301"/>
<path d="M182.1,140.2c0,1,.8,1.8,1.8,1.8h11.2c1,0,1.8,-.8,1.8,-1.8v-1.3H182.1Z" class="g0_301"/>
<path d="M182.1,140.2c0,1,.8,1.8,1.8,1.8h11.2c1,0,1.8,-.8,1.8,-1.8v-1.3H182.1v1.3Z" class="g5_301"/>
<path d="M196.9,143.2c0,.8,-.6,1.3,-1.3,1.3H183.4c-.8,0,-1.3,-.5,-1.3,-1.3c0,-.7,.5,-1.3,1.3,-1.3h12.2c.7,0,1.3,.6,1.3,1.3Z" class="g0_301"/>
<path d="M196.9,143.2c0,.8,-.6,1.3,-1.3,1.3H183.4c-.8,0,-1.3,-.5,-1.3,-1.3c0,-.7,.5,-1.3,1.3,-1.3h12.2c.7,0,1.3,.6,1.3,1.3Z" class="g5_301"/>
<path d="M196.9,145.8c0,.7,-.6,1.3,-1.3,1.3H183.4c-.8,0,-1.3,-.6,-1.3,-1.3c0,-.7,.5,-1.3,1.3,-1.3h12.2c.7,0,1.3,.6,1.3,1.3Z" class="g0_301"/>
<path d="M196.9,145.8c0,.7,-.6,1.3,-1.3,1.3H183.4c-.8,0,-1.3,-.6,-1.3,-1.3c0,-.7,.5,-1.3,1.3,-1.3h12.2c.7,0,1.3,.6,1.3,1.3Z" class="g5_301"/>
<path d="M215.5,128.7l8.3,10.4c.6,.7,1.8,.6,2.7,-.2c.9,-.7,1.2,-1.9,.7,-2.6l-8.9,-10.2Z" class="g6_301"/>
<path d="M215.5,128.7l8.3,10.4c.6,.7,1.8,.6,2.7,-.2c.9,-.7,1.2,-1.9,.7,-2.6l-8.9,-10.2l-2.8,2.6Z" class="g5_301"/>
<path d="M217.5,125.1c.5,.6,.3,1.8,-.7,2.6c-.9,.7,-2.1,.8,-2.6,.2c-.6,-.7,-.3,-1.9,.6,-2.6c.9,-.8,2.1,-.9,2.7,-.2Z" class="g7_301"/>
<path d="M217.5,125.1c.5,.6,.3,1.8,-.7,2.6c-.9,.7,-2.1,.8,-2.6,.2c-.6,-.7,-.3,-1.9,.6,-2.6c.9,-.8,2.1,-.9,2.7,-.2Z" class="g5_301"/>
<path d="M212.7,124.7l1.7,2c.3,.3,1,.3,1.5,-.1c.5,-.5,.7,-1.1,.4,-1.5l-1.7,-2Z" class="g0_301"/>
<path d="M212.7,124.7l1.7,2c.3,.3,1,.3,1.5,-.1c.5,-.5,.7,-1.1,.4,-1.5l-1.7,-2l-1.9,1.6Z" class="g8_301"/>
<path d="M214.8,122.9c.4,.5,.2,1.3,-.5,1.8c-.6,.5,-1.4,.6,-1.8,.1c-.4,-.4,-.2,-1.2,.5,-1.7c.6,-.6,1.4,-.6,1.8,-.2Z" class="g0_301"/>
<path d="M214.8,122.9c.4,.5,.2,1.3,-.5,1.8c-.6,.5,-1.4,.6,-1.8,.1c-.4,-.4,-.2,-1.2,.5,-1.7c.6,-.6,1.4,-.6,1.8,-.2Z" class="g8_301"/>
<path d="M216.4,105.4c4.8,5.7,4.1,14.2,-1.7,19c-5.7,4.8,-14.2,4,-19,-1.7c-4.8,-5.7,-4,-14.2,1.7,-19c5.7,-4.8,14.2,-4.1,19,1.7Z" class="g0_301"/>
<path d="M216.4,105.4c4.8,5.7,4.1,14.2,-1.7,19c-5.7,4.8,-14.2,4,-19,-1.7c-4.8,-5.7,-4,-14.2,1.7,-19c5.7,-4.8,14.2,-4.1,19,1.7Z" class="g5_301"/>
<path d="M214,107.4c3.5,4.2,3,10.5,-1.3,14.1c-4.2,3.5,-10.5,2.9,-14,-1.3c-3.5,-4.2,-3,-10.5,1.2,-14c4.2,-3.6,10.5,-3,14.1,1.2Z" class="g9_301"/>
<path d="M214,107.4c3.5,4.2,3,10.5,-1.3,14.1c-4.2,3.5,-10.5,2.9,-14,-1.3c-3.5,-4.2,-3,-10.5,1.2,-14c4.2,-3.6,10.5,-3,14.1,1.2Z" class="g5_301"/>
<path d="M213,110.6l-3.1,3m3.1,-.4l-3.1,3" class="ga_301"/>
<path d="M172.1,99l3.1,3.3m1.1,-5.9l1.2,3.9m-8.1,3l3.7,1.2" class="gb_301"/>
<path d="M185.8,106.1c1.2,1.2,.2,4.3,-2.2,6.7c-2.5,2.5,-5.5,3.5,-6.8,2.3c-1.2,-1.3,-.3,-4.3,2.2,-6.8c2.5,-2.5,5.5,-3.5,6.8,-2.2Z" class="g0_301"/>
<path d="M203.7,107.6c.6,.6,.1,1.9,-.9,3c-1.1,1,-2.4,1.5,-3,.9c-.5,-.5,-.1,-1.8,1,-2.9c1.1,-1.1,2.4,-1.5,2.9,-1Z" class="g0_301"/>
<path d="M32.1,45.1H9.2m958.3,0h22.9M32.1,1331.3H9.2m958.3,0h22.9M45.1,32.1V9.2m0,1335.1v22.9M954.5,32.1V9.2m0,1335.1v22.9" class="gc_301"/>
<path d="M32.1,45.1H9.2m958.3,0h22.9M32.1,1331.3H9.2m958.3,0h22.9M45.1,32.1V9.2m0,1335.1v22.9M954.5,32.1V9.2m0,1335.1v22.9" class="gd_301"/>
<path d="M27.5,32.1H0m972.1,0h27.5M27.5,1344.3H0m972.1,0h27.5M32.1,27.5V0m0,1348.9v27.5M967.5,27.5V0m0,1348.9v27.5" class="gc_301"/>
<path d="M27.5,32.1H0m972.1,0h27.5M27.5,1344.3H0m972.1,0h27.5M32.1,27.5V0m0,1348.9v27.5M967.5,27.5V0m0,1348.9v27.5" class="gd_301"/>
</svg>