<?xml version="1.0" encoding="UTF-8" standalone="no"?>
<!DOCTYPE svg PUBLIC "-//W3C//DTD SVG 1.1//EN"
"http://www.w3.org/Graphics/SVG/1.1/DTD/svg11.dtd">
<svg viewBox="0 0 999 1376" version="1.1" xmlns="http://www.w3.org/2000/svg" xmlns:xlink="http://www.w3.org/1999/xlink">
<defs>
<clipPath id="c0_342"><path d="M32.1,1344.3V32.1H967.5V1344.3Z"/></clipPath>
<clipPath id="c1_342"><path d="M65.2,926.8V567.7H295.1V926.8Z"/></clipPath>
<clipPath id="c2_342"><path d="M70.4,925V572.5H291.5V925Z"/></clipPath>
<clipPath id="c3_342"><path d="M70.1,924.7V572.2H291.2V924.7Z"/></clipPath>
<clipPath id="c4_342"><path d="M176.6,537.3l-6.5,-2.1L153.7,521.3V464.2h72v73.1Z"/></clipPath>
<clipPath id="c5_342"><path d="M176.6,1106.2l-6.5,-2.1l-16.4,-13.9v-57.1h72v73.1Z"/></clipPath>
<clipPath id="c6_342"><path d="M172.9,583.9c-.2,-.1,3.6,-8.2,3.6,-8.2l.8,.5c0,0,-4.1,7.7,-4.4,7.7Z"/></clipPath>
<clipPath id="c7_342"><path d="M180.5,576.2c0,0,-6.9,-1.1,-7.6,-5.2c-.7,-3.6,1.5,-3.9,2.1,-3.9c0,0,.1,0,.1,0l8.3,-12.7l-1.5,-3.1c0,0,-.6,-1.1,.2,-2.1c0,0,.1,-.1,.3,-.1c2.1,0,12.9,5.6,12.9,5.6l.1,.1c-.4,.6,-.7,1.2,-1.4,1.7c-.7,.5,-5.1,1.1,-5.1,1.1l-8.4,18.6Z"/></clipPath>
<clipPath id="c8_342"><path d="M180,575.8c.3,-.4,.3,-1.8,0,-2.2v-1.4c-1.5,-.5,-2.8,-1.2,-3.6,-2.5c-1.1,.6,-2.1,1.2,-3.1,1.9c1.5,2.1,3.8,3.5,6.7,4.2Zm0,-3.9c2.2,-4.5,4,-9.5,6.2,-14c-.9,-.4,-1.8,-1.3,-2.6,-1.4c-2.3,4.3,-4.6,8.6,-7.1,12.8c.8,1.3,2.1,2,3.5,2.6ZM172.8,584c1,-2.9,2.4,-5.5,3.5,-8.3c-2,-1.5,-3.9,-3.1,-4.4,-6.1V568c-.1,-2.6,1.9,-3.3,4.5,-3.3c.1,0,.2,0,.3,0c1.9,-3.4,4.2,-6.4,6.1,-9.7c-.6,-.9,-1.1,-2.4,-.9,-3.7c.5,1.3,1.7,1.9,2.4,2.9c-.1,.6,-.3,1.2,-.4,1.8c.6,.7,1.4,1.2,2.4,1.4c.5,-.5,.5,-1.3,1.2,-1.5c.9,.3,1.8,.7,3.1,.7c.1,.1,.5,.2,.8,.2c.4,0,.7,-.1,.8,-.2c.1,0,.2,.1,.3,.1c.3,0,.5,-.1,.7,-.2c.1,0,.3,-.1,.5,-.1c.1,0,.2,0,.3,.1c-1.3,.6,-2.2,1.8,-4.2,1.8c-.1,0,-.2,0,-.3,-.1c-.9,3.8,-1.9,7.4,-2.7,11.2c.6,1.1,1.5,1.7,1.3,3.2c-.5,2.7,-3.9,4.4,-7.2,4.4c-1.3,0,-2.5,-.3,-3.6,-.8c-1,2.1,-2.1,4.1,-3.3,6c0,-.3,.3,-.3,.3,-.7c.9,-1.8,1.9,-3.6,2.6,-5.7c-1,1.8,-1.8,3.7,-2.8,5.6c-.2,.4,-.4,.8,-.6,1.2c-.3,.4,-.3,1.2,-.7,1.4Z"/></clipPath>
<clipPath id="c9_342"><path d="M190.5,556.2c-4.8,0,-13.1,-7.3,-5.6,-8.8h1.3c.2,.1,.3,.1,.5,.1q.1,0,.2,0c.3,0,.7,0,1.1,.1c3,.6,8.2,3.8,7.5,7c-.2,1.1,-1.5,1.6,-3.1,1.6h-1.8c0,0,-.1,0,-.1,0Z"/></clipPath>
<clipPath id="ca_342"><path d="M674.4,805.1V559.8H877.3V805.1Z"/></clipPath>
<clipPath id="cb_342"><path d="M681.3,798.3V563.4H872.2V798.3Z"/></clipPath>
<clipPath id="cc_342"><path d="M681,798V563.1H871.9V798Z"/></clipPath>
<clipPath id="cd_342"><path d="M780.3,575.2c-.2,-.1,3.6,-8.3,3.6,-8.3l.8,.6c0,0,-4.1,7.7,-4.4,7.7Z"/></clipPath>
<clipPath id="ce_342"><path d="M787.8,567.4c0,0,-6.8,-1.1,-7.5,-5.2c-.7,-3.6,1.5,-3.8,2,-3.8c.1,0,.2,0,.2,0l8.3,-12.8l-1.5,-3c0,0,-.6,-1.2,.1,-2.1c.1,-.1,.2,-.1,.4,-.1c2.1,0,12.9,5.5,12.9,5.5l.1,.2c-.4,.5,-.8,1.1,-1.4,1.6c-.7,.5,-5.1,1.2,-5.1,1.2l-8.5,18.5Z"/></clipPath>
<clipPath id="cf_342"><path d="M787.4,567.1c.2,-.5,.2,-1.8,0,-2.3v-1.4c-1.5,-.5,-2.8,-1.2,-3.6,-2.5c-1.1,.6,-2.1,1.3,-3.2,1.9c1.6,2.1,3.9,3.6,6.8,4.3Zm0,-3.9c2.2,-4.6,4,-9.5,6.2,-14.1c-.9,-.4,-1.9,-1.3,-2.7,-1.4c-2.2,4.4,-4.6,8.7,-7,12.8c.7,1.4,2.1,2.1,3.5,2.7Zm-7.3,12.1c1.1,-3,2.4,-5.5,3.6,-8.3c-2,-1.6,-4,-3.2,-4.4,-6.2v-1.5c-.1,-2.7,1.9,-3.4,4.5,-3.4c.1,0,.2,0,.2,0c2,-3.3,4.3,-6.3,6.2,-9.7c-.6,-.8,-1.2,-2.3,-.9,-3.6c.5,1.2,1.6,1.9,2.4,2.9c-.1,.6,-.3,1.1,-.4,1.7c.6,.7,1.4,1.2,2.4,1.4c.5,-.4,.5,-1.2,1.1,-1.5c1,.4,1.9,.8,3.2,.8c.1,.1,.5,.1,.8,.1c.3,0,.7,0,.8,-.1c.1,0,.2,0,.3,0c.3,0,.5,-.1,.6,-.1c.2,-.1,.4,-.2,.6,-.2c.1,0,.2,.1,.3,.1c-1.3,.7,-2.2,1.8,-4.2,1.8c-.1,0,-.2,0,-.3,0c-.9,3.7,-1.9,7.3,-2.7,11.2c.6,1,1.5,1.7,1.3,3.1c-.5,2.7,-3.9,4.4,-7.2,4.4c-1.3,0,-2.5,-.2,-3.6,-.7c-1,2.1,-2.1,4.1,-3.3,6c0,-.4,.3,-.4,.2,-.8c1,-1.8,2,-3.6,2.7,-5.6c-1.1,1.7,-1.8,3.7,-2.8,5.5c-.2,.4,-.4,.8,-.6,1.3c-.3,.4,-.3,1.1,-.8,1.4Z"/></clipPath>
<clipPath id="cg_342"><path d="M797.9,547.5c-4.8,0,-13.1,-7.3,-5.6,-8.8h1.3c.2,0,.4,0,.7,0c0,0,.1,0,.1,0c.3,0,.6,0,.9,.1c3.1,.6,8.3,3.8,7.6,7c-.3,1.2,-1.6,1.6,-3.2,1.7H798c0,0,-.1,0,-.1,0Z"/></clipPath>
<clipPath id="ch_342"><path d="M125.5,386.7V205.8H858.6V386.7Z"/></clipPath>
<clipPath id="ci_342"><path d="M764.8,435.3V422.9h14.5v12.4Z"/></clipPath>
<style type="text/css"><![CDATA[
.g0_342{
fill: #FEFCF4;
}
.g1_342{
fill: #FFF;
}
.g2_342{
fill: none;
stroke: #6381B7;
stroke-width: 0.763;
}
.g3_342{
fill: #F7C2D9;
}
.g4_342{
fill: #FEF6F5;
}
.g5_342{
fill: #EC008C;
}
.g6_342{
fill: none;
stroke: #818385;
stroke-width: 0.305;
stroke-dasharray: 4,4;
}
.g7_342{
fill: none;
stroke: #818385;
stroke-width: 0.305;
}
.g8_342{
fill: none;
stroke: #949698;
stroke-width: 0.305;
stroke-dasharray: 4,4;
}
.g9_342{
fill: #6D6F71;
}
.ga_342{
fill: #6381B7;
}
.gb_342{
fill: none;
stroke: #6381B7;
stroke-width: 0.381;
stroke-dasharray: 2,1;
}
.gc_342{
fill: none;
stroke: #6381B7;
stroke-width: 0.381;
}
.gd_342{
fill: #FCE8B0;
}
.ge_342{
fill: none;
stroke: #949698;
stroke-width: 0.305;
stroke-dasharray: 3,3;
}
.gf_342{
fill: none;
stroke: #949698;
stroke-width: 0.305;
}
.gg_342{
fill: #2E6E51;
}
.gh_342{
fill: none;
stroke: #FFF;
stroke-width: 0.152;
stroke-miterlimit: 1;
}
.gi_342{
fill: #BCBEC0;
}
.gj_342{
fill: #EE314A;
}
.gk_342{
fill: #CEEDFB;
}
.gl_342{
fill: #27639D;
}
.gm_342{
fill: #231F20;
}
.gn_342{
fill: none;
stroke: #204A78;
stroke-width: 1.527;
}
.go_342{
fill: #25408F;
}
.gp_342{
fill: #A8AAAD;
}
.gq_342{
fill: none;
stroke: #949698;
stroke-width: 0.549;
}
.gr_342{
fill: none;
stroke: #BCBEC0;
stroke-width: 2.566;
}
.gs_342{
fill: #363637;
}
.gt_342{
fill: #5CC4BE;
}
.gu_342{
fill: #EAD646;
}
.gv_342{
fill: none;
stroke: #FFF;
stroke-width: 1.909;
stroke-miterlimit: 10;
}
.gw_342{
fill: none;
stroke: #000;
stroke-width: 0.381;
stroke-miterlimit: 10;
}
]]></style>
</defs>
<path d="M32.1,1344.3H954.5V32.1H32.1V1344.3Z" class="g0_342"/>
<path clip-path="url(#c0_342)" d="M954.5,1344.3H1877V32.1H954.5V1344.3Z" class="g0_342"/>
<path d="M150,440.5c0,0,-18.3,0,-18.3,18.3V985.6c0,0,0,18.4,18.3,18.4H827.1c0,0,18.4,0,18.4,-18.4V440.5Z" class="g1_342"/>
<path d="M150,440.5c0,0,-18.3,0,-18.3,18.3V985.6c0,0,0,18.4,18.3,18.4H827.1c0,0,18.4,0,18.4,-18.4V440.5H150Z" class="g2_342"/>
<image clip-path="url(#c1_342)" preserveAspectRatio="none" x="65" y="568" width="230" height="359" xlink:href="img/1.png"/>
<path d="M85.7,572.4L70.2,912.3l202.3,8.5L288.8,582.9Z" class="g3_342"/>
<image clip-path="url(#c2_342)" preserveAspectRatio="none" x="70" y="573" width="221" height="353" xlink:href="img/2.png"/>
<image clip-path="url(#c3_342)" preserveAspectRatio="none" x="70" y="573" width="221" height="352" xlink:href="img/3.png"/>
<path d="M79.4,577.4L75.3,916.7l172.2,1.5l33.2,-18.3l4,-320.6Z" class="g4_342"/>
<path d="M247.8,918.3L281,899.8L263.5,889.1Z" class="g5_342"/>
<path d="M503.3,589c44.2,-.4,80.4,-6.5,87.2,-14.4m-1.1,-6.5C580.3,560.6,544.7,555,501.7,554.8m-7.5,0c-44.3,.4,-80.4,6.5,-87.3,14.4m1.1,6.5c9.1,7.4,44.7,13.1,87.7,13.3" class="g6_342"/>
<path d="M591.3,573.4c.3,-.5,.4,-1,.4,-1.5c0,-.5,-.1,-1,-.4,-1.5M500.2,554.8c-.5,0,-1,0,-1.5,0c-.5,0,-1,0,-1.5,0m-91.1,15.6c-.2,.5,-.3,1,-.3,1.5c0,.5,.1,1,.3,1.5M497.2,589c.5,0,1,0,1.5,0c.5,0,1,0,1.5,0" class="g7_342"/>
<path d="M457,556.8c0,0,-280.9,-27.2,-313.9,17.2" class="g8_342"/>
<path d="M147.3,574.2l-7.2,-5.1l-2.8,11.8Z" class="g9_342"/>
<path d="M384.1,1214.8c0,0,-4.3,0,-4.3,4.4V1230c0,0,0,4.3,4.3,4.3h30.3c0,0,4.4,0,4.4,-4.3v-10.8c0,0,0,-4.4,-4.4,-4.4Z" class="ga_342"/>
<path d="M370.9,1206v37.5m1.4,1H844.7m1,-1.3v-37.6m-1.4,-1H371.9" class="gb_342"/>
<path d="M370.9,1243.9v.6h.6m473.6,0h.6v-.6m0,-38.7v-.6h-.6m-473.6,0h-.6v.6" class="gc_342"/>
<path d="M145.1,1017.7c0,0,-13,0,-13,13v150.8c0,0,0,13,13,13H832.9c0,0,13,0,13,-13V1030.7c0,0,0,-13,-13,-13Z" class="g1_342"/>
<path d="M145.1,1017.7c0,0,-13,0,-13,13v150.8c0,0,0,13,13,13H832.9c0,0,13,0,13,-13V1030.7c0,0,0,-13,-13,-13H145.1Z" class="g2_342"/>
<path d="M209.2,492.4c0,0,-13,0,-13,12.9V527c0,0,0,13,13,13h602c0,0,13,0,13,-13V505.3c0,0,0,-12.9,-13,-12.9Z" class="gd_342"/>
<image clip-path="url(#c4_342)" preserveAspectRatio="none" x="152" y="463" width="75" height="76" xlink:href="img/4.png"/>
<path d="M204,532.6c0,0,-26.8,11.3,-51.1,-12.7c0,0,15.2,25.3,49.3,23.9c0,0,24.8,.4,20.3,-10.1c0,0,1.2,-4.4,-18.5,-1.1Z" class="gd_342"/>
<path d="M209.2,1061.2c0,0,-13,0,-13,13v21.7c0,0,0,13,13,13h602c0,0,13,0,13,-13v-21.7c0,0,0,-13,-13,-13Z" class="gd_342"/>
<image clip-path="url(#c5_342)" preserveAspectRatio="none" x="152" y="1031" width="75" height="77" xlink:href="img/5.png"/>
<path d="M204,1101.5c0,0,-26.8,11.3,-51.1,-12.7c0,0,15.2,25.3,49.3,23.9c0,0,24.8,.4,20.3,-10.1c0,0,1.2,-4.5,-18.5,-1.1Z" class="gd_342"/>
<image clip-path="url(#c6_342)" x="172" y="575" width="6" height="9" xlink:href="shade/1.png"/>
<image clip-path="url(#c7_342)" x="172" y="549" width="24" height="28" xlink:href="shade/2.png"/>
<image clip-path="url(#c8_342)" x="171" y="551" width="23" height="33" xlink:href="shade/3.png"/>
<image clip-path="url(#c9_342)" x="177" y="547" width="20" height="10" xlink:href="shade/4.png"/>
<image clip-path="url(#ca_342)" preserveAspectRatio="none" x="674" y="560" width="203" height="246" xlink:href="img/6.png"/>
<path d="M697.8,564.8L679.1,784.6l173.7,14.3l1.6,-21.7L871,576.9Z" class="g3_342"/>
<image clip-path="url(#cb_342)" preserveAspectRatio="none" x="681" y="564" width="191" height="235" xlink:href="img/7.png"/>
<image clip-path="url(#cc_342)" preserveAspectRatio="none" x="681" y="564" width="191" height="234" xlink:href="img/8.png"/>
<path d="M692,568l-5.8,218.8l140.9,4.8l33.7,-22.5l5.1,-195.4Z" class="g4_342"/>
<path d="M827.3,791.6L861,770l-19.6,-9.2Z" class="g5_342"/>
<path d="M569.5,798.9c26,-.7,47.2,-6.5,51.6,-14.1m-.9,-7.3c-6.1,-7.1,-27,-12.4,-52.3,-12.8m-7.9,0c-26,.7,-47.2,6.5,-51.6,14.1m.9,7.2c6,7.2,27,12.5,52.3,12.9" class="g6_342"/>
<path d="M621.8,783.3c.1,-.5,.2,-1,.2,-1.5c0,-.5,-.1,-1,-.2,-1.5M566.3,764.7c-.5,0,-1,0,-1.6,0c-.5,0,-1,0,-1.5,0m-55.5,15.6c-.1,.5,-.2,1,-.2,1.5c0,.5,.1,1,.2,1.5m55.5,15.6c.5,0,1,0,1.5,0c.6,0,1.1,0,1.6,0" class="g7_342"/>
<path d="M550.9,760c5.3,-17.3,25.5,-79.9,42.4,-85.4" class="g8_342"/>
<path d="M600.1,675.6c2.4,2.3,-.4,6.4,-3.6,7" class="ge_342"/>
<path d="M593.6,677.8c2.5,-19.2,31.3,-93.3,92.9,-84.7" class="g8_342"/>
<path d="M549.6,764.5c0,0,.2,-.5,.4,-1.5m44.8,-88.7c.6,-.1,1.1,-.1,1.6,-.1c.5,.1,.9,.2,1.3,.3m-2.5,8.1c-.4,0,-.9,-.2,-1.3,-.4c-.3,-.2,-.4,-.6,-.5,-1.4M688,593.3c.5,.1,1,.2,1.5,.3" class="gf_342"/>
<path d="M685.7,587.9l-1.2,8.7l11.8,-2.9Z" class="g9_342"/>
<image clip-path="url(#cd_342)" x="780" y="566" width="5" height="10" xlink:href="shade/5.png"/>
<image clip-path="url(#ce_342)" x="779" y="540" width="24" height="28" xlink:href="shade/6.png"/>
<image clip-path="url(#cf_342)" x="779" y="542" width="23" height="34" xlink:href="shade/7.png"/>
<image clip-path="url(#cg_342)" x="784" y="538" width="20" height="10" xlink:href="shade/8.png"/>
<path d="M32.1,179.3H967.5V32.1H32.1V179.3Z" class="gg_342"/>
<path d="M260.9,131.9c-2.3,-2.4,-4.7,-3.6,-7.3,-3.6c-.9,0,-2,.4,-3,1.2c-1.1,.9,-1.6,1.8,-1.6,2.7c0,.4,.1,.7,.4,1l.9,.8h-3.2l1.2,1.2h1.8v11.3l1.2,1.2V135.2h2.1L252.2,134h-1.3l-.5,-1.1c.1,-.9,.6,-1.6,1.6,-2.3c1,-.7,1.9,-1,2.8,-1c.6,0,1.2,.1,1.8,.2c.6,.2,1.1,.4,1.7,.7c.6,.4,1.1,.7,1.6,1c.4,.4,.9,.7,1.3,1l-.3,-.6Zm6.7,3.3L266.4,134H251.7c.8,.9,1.5,1.5,2.2,1.8c.1,.1,.3,.2,.7,.3c.3,.1,.7,.2,1.2,.4c.4,.1,.7,.2,1,.4c.3,.2,.6,.4,.9,.6c-.7,.6,-1.4,1.2,-2,1.7c-.6,.5,-1.1,1,-1.5,1.4l1.4,2.1c.8,0,1.5,.1,2.2,.3c.6,.2,1.2,.5,1.7,.9c1.2,1.3,1.9,2.3,2,3l.7,.8v-9.8h.5c2,0,3,.7,3,2l-.1,.3c-.3,-.3,-.7,-.5,-1.2,-.5c-.4,0,-.7,.1,-.9,.3c-.3,.3,-.4,.6,-.4,.9c0,.4,.1,.7,.4,1c.3,.3,.6,.4,1,.4c1.4,0,2.1,-.7,2.1,-2.1c0,-1.3,-.5,-2.4,-1.4,-3.1c-.8,-.7,-1.8,-1,-2.9,-1q-.1,0,-.2,0c-.1,0,-.3,0,-.4,0c-.1,0,-.2,.1,-.4,.1c-.1,0,-.2,0,-.2,0v8.4c-1,-1.7,-2.5,-2.9,-4.4,-3.5l3,-2.5c-.4,-.6,-.9,-1.2,-1.5,-1.8c-.5,-.6,-1.1,-1.1,-1.8,-1.6h11.2Zm12.1,-3.3c-2.4,-2.4,-4.8,-3.6,-7.3,-3.6c-1,0,-2,.4,-3.1,1.2c-1.1,.9,-1.6,1.8,-1.6,2.7c0,.4,.2,.7,.5,1l.8,.8h-3.2l1.2,1.2h1.8v11.3l1.2,1.2V135.2h2.1L270.9,134h-1.3l-.5,-1.1c.1,-.9,.6,-1.6,1.7,-2.3c.9,-.7,1.8,-1,2.7,-1c.6,0,1.2,.1,1.8,.2c.6,.2,1.2,.4,1.7,.7c.6,.4,1.1,.7,1.6,1c.5,.4,.9,.7,1.3,1l-.2,-.6Zm5.1,3.3L283.6,134H270.3l1.3,1.2h9.8v3.3c-.5,-1.3,-1.3,-2,-2.3,-2c-.3,0,-.6,.2,-.9,.5c-.4,.3,-.5,.6,-.5,1c-.8,-1,-1.8,-1.6,-2.8,-1.6c-.8,0,-1.4,.4,-2,1.2c-.4,.7,-.6,1.4,-.6,2.3c0,.5,0,1,.2,1.4c.2,.4,.4,.8,.7,1.1c.3,.3,.7,.5,1.1,.7c.5,.1,.9,.2,1.4,.2c.7,-.1,1.1,-.2,1.5,-.5c.3,-.3,.5,-.7,.5,-1.2c0,-1.1,-.6,-1.7,-1.7,-1.7c-.3,0,-.6,.1,-.9,.3c-.3,.3,-.4,.6,-.4,1c0,.2,.1,.6,.4,1c-1.2,-.2,-1.8,-.8,-1.8,-1.7c0,-.3,.1,-.6,.2,-.9c.1,-.3,.3,-.5,.5,-.7c.2,-.2,.5,-.4,.7,-.5c.3,-.1,.6,-.2,.9,-.2c.7,0,1.3,.2,1.8,.6c.5,.4,.8,1,.9,1.6l.5,-.2c0,-.3,-.1,-.5,-.1,-.7c0,-.9,.4,-1.3,1.1,-1.3c.4,0,.8,.2,1.1,.5c.3,.3,.4,.7,.4,1.1v6.9l1.3,1.1V135.2h2.2Zm14.1,0L297.7,134H283c.8,.9,1.5,1.5,2.2,1.8c.1,.1,.4,.2,.7,.3c.4,.1,.8,.2,1.2,.4c.4,.1,.7,.2,1,.4c.3,.2,.6,.4,.9,.6c-.7,.6,-1.4,1.2,-2,1.7c-.5,.5,-1,1,-1.4,1.4l1.3,2.1c.8,0,1.5,.1,2.2,.3c.6,.2,1.2,.5,1.7,.9c1.2,1.3,1.9,2.3,2,3l.8,.8v-9.8h.4c2,0,3,.7,3,2l-.1,.3c-.3,-.3,-.7,-.5,-1.2,-.5c-.3,0,-.6,.1,-.9,.3c-.3,.3,-.4,.6,-.4,.9c0,.4,.2,.7,.4,1c.3,.3,.6,.4,1,.4c1.4,0,2.1,-.7,2.1,-2.1c0,-1.3,-.5,-2.4,-1.4,-3.1c-.8,-.7,-1.8,-1,-2.9,-1c0,0,-.1,0,-.2,0c-.1,0,-.3,0,-.4,0c-.1,0,-.2,.1,-.4,.1c-.1,0,-.2,0,-.2,0v8.4c-1,-1.7,-2.5,-2.9,-4.4,-3.5l3.1,-2.5c-.5,-.6,-1,-1.2,-1.5,-1.8c-.6,-.6,-1.2,-1.1,-1.9,-1.6h11.2Zm4.6,0L302.3,134h-1c-.4,-.4,-.6,-1,-.8,-1.9l-.4,-.3c0,.2,0,.5,0,.9c0,.3,.1,.7,.1,1.2c0,.5,.1,.9,.1,1.3c0,.3,0,.6,0,.9c-.2,-.8,-.6,-1.3,-1,-1.6c-.4,-.3,-.9,-.5,-1.7,-.5h-1.3l1.2,1.2c.3,0,.6,.1,1,.2c.3,.1,.6,.3,.8,.5c.3,.2,.5,.4,.6,.7c.2,.3,.2,.7,.2,1v8.9l1.2,1.2V135.2h2.2Zm10,-1.2h-1c.1,-1.1,-.3,-2,-1,-2.5c-.8,-.6,-1.9,-.9,-3.4,-.9c-.9,.1,-1.6,.1,-2.1,.2c-.5,0,-.9,0,-1,0c-.5,0,-.9,-.1,-1.2,-.3c-.4,-.3,-.6,-.6,-.6,-1c0,-.4,.1,-.8,.5,-1q-.1,0,-.2,0q-.1,0,-.1,0c-.2,-.1,-.4,.1,-.6,.5c-.2,.3,-.3,.6,-.3,.8c0,.8,.4,1.5,1.3,2c.8,.4,1.6,.7,2.5,.7c.2,0,.4,-.1,.7,-.1c.3,0,.7,0,1.1,0c.4,-.1,.7,-.1,1,-.1c.3,0,.5,0,.7,0c.2,0,.4,0,.6,0c.2,0,.4,.1,.5,.1c.5,.2,.8,.4,.8,.7c0,.3,-.2,.5,-.7,.7c-.1,.1,-.3,.1,-.5,.1c-.2,.1,-.4,.1,-.5,.1h-8.1l1.2,1.2h3.8c.5,.4,.8,.7,.8,1c-.7,0,-1.4,.3,-1.9,.8c-.6,.5,-.9,1.1,-.9,1.8c0,.4,.2,.7,.5,.9c.3,.2,.6,.3,.9,.3c.6,0,1.1,-.2,1.6,-.7c.5,-.5,.8,-1,.8,-1.6c.1,0,.2,0,.3,-.1c.1,0,.2,0,.3,0c.2,0,.5,.1,.7,.2c.2,.1,.3,.2,.5,.4c.1,.2,.3,.4,.3,.7c.1,.2,.1,.5,.1,.7c.1,.8,-.4,1.5,-1.4,2c-.7,.3,-1.5,.5,-2.4,.4c-1.3,-.1,-2.4,-.4,-3.4,-1l1.4,3c.9,.2,1.8,.5,2.7,.9c.8,.3,1.7,.7,2.5,1.2c.8,.5,1.6,1,2.3,1.5c.7,.6,1.3,1.2,1.9,1.9l-.3,-1.3c-1.1,-1.1,-2.1,-2,-3,-2.8c-.9,-.8,-1.8,-1.4,-2.6,-1.9c1.2,-.3,2.1,-.7,2.7,-1.2c.8,-.6,1.2,-1.5,1.2,-2.4c0,-1,-.4,-1.8,-1,-2.5c-.4,-.5,-1.2,-.9,-2.4,-1.3c-.2,-.2,-.3,-.3,-.4,-.5c-.1,-.1,-.2,-.2,-.3,-.4h6.3L313.5,134Zm7.5,0h-8l1.2,1.2h4c-1.7,2,-2.5,4,-2.5,6.1c0,1.5,.3,2.8,.9,3.9c.8,1.4,1.8,2.1,3.2,2.1c.3,0,.6,0,.8,-.1c.3,-.1,.5,-.2,.7,-.4c.2,-.2,.4,-.4,.5,-.7c.1,-.2,.2,-.5,.2,-.8c0,-.4,-.2,-.9,-.4,-1.2c-.3,-.3,-.7,-.5,-1.1,-.5c-.3,0,-.7,.2,-1,.4c-.3,.3,-.4,.6,-.4,1c0,.2,0,.4,.1,.7c.2,.2,.4,.4,.6,.6c-.7,.2,-1.5,-.2,-2.2,-1.3c-.5,-.7,-.7,-1.5,-.7,-2.3c0,-1,.1,-1.9,.3,-2.7c.2,-.7,.5,-1.4,1,-2.1c.4,-.7,1,-1.3,1.6,-1.7c.7,-.5,1.5,-.8,2.4,-1L321,134Zm12.1,1.2L331.9,134H320.2l1.2,1.2h8.5v6.6h-.1c-1.3,-2.6,-2.8,-4,-4.4,-4c-.8,0,-1.5,.3,-2.1,.9c-.6,.5,-.9,1.2,-.9,2c0,1.5,.8,2.2,2.3,2.2c.5,0,.9,-.2,1.2,-.5c.3,-.4,.5,-.8,.5,-1.3c0,-.3,-.3,-.8,-.8,-1.5c0,-.1,.2,-.1,.3,-.1c1.3,0,2.4,.8,3.4,2.5c.6,1.4,.9,2.9,.9,4.2l-.1,1.3l1,.6V135.2h2ZM346.6,134c-.6,0,-1.1,.2,-1.6,.4c-.4,.3,-.9,.5,-1.2,.8c-.8,.8,-1.4,1.8,-1.8,2.8c-.5,1,-.7,2.1,-.7,3.3c0,1.5,.3,2.8,.9,3.9c.7,1.4,1.8,2.1,3.2,2.1c.3,0,.6,0,.8,-.1c.3,-.1,.5,-.2,.7,-.4c.2,-.2,.4,-.4,.5,-.7c.1,-.2,.2,-.5,.2,-.8c0,-.4,-.2,-.9,-.5,-1.2c-.3,-.3,-.6,-.5,-1,-.5c-.2,0,-.4,.1,-.5,.1c-.2,.1,-.4,.2,-.5,.3c-.1,.2,-.3,.3,-.3,.4c-.1,.2,-.2,.4,-.2,.6c0,.2,.1,.4,.2,.7c.1,.2,.3,.4,.6,.6c-.1,0,-.1,.1,-.3,.1c-.8,0,-1.4,-.5,-2,-1.4c-.4,-.7,-.6,-1.5,-.6,-2.3c0,-1,.1,-1.9,.3,-2.7c.2,-.7,.5,-1.4,.9,-2.1c.5,-.7,1,-1.3,1.7,-1.7c.7,-.5,1.4,-.8,2.3,-1L346.6,134Zm14.1,1.2L359.5,134c-.1,0,-.3,0,-.4,0c-.4,0,-.7,-.2,-.9,-.6c-.1,-.2,-.1,-.6,-.2,-1.2l-.5,-.5c0,1.1,.1,2.2,.1,3.2c.1,1.1,.1,2.1,.2,3.2h-.1c-1.5,-2.6,-3.1,-3.9,-4.9,-3.9c-.4,0,-.9,.1,-1.4,.3c-.5,.1,-1.1,.4,-1.6,.7c-.5,.4,-1,.8,-1.3,1.2c-.3,.4,-.4,.9,-.4,1.3c0,.2,.1,.5,.3,.7c.2,.2,.4,.3,.6,.3c.2,0,.5,-.1,.9,-.3c.2,-.1,.3,-.1,.5,-.2c.1,0,.2,0,.3,0c.5,0,.8,.4,.8,1.2c0,.5,-.5,1.1,-1.3,1.9l1.7,.6l4.2,-4.2c.2,.1,.3,.2,.5,.4c.1,.2,.3,.4,.5,.6c.1,.3,.2,.5,.3,.7c.1,.3,.2,.5,.2,.6l-.2,6.4l1.3,1.3V135.2h2Zm-8.5,4.2c0,-.7,-.1,-1.2,-.4,-1.6c-.3,-.5,-.7,-.7,-1.4,-.7c.6,-1.1,1.5,-1.6,2.8,-1.6c.7,0,1.4,.3,1.9,.9l-2.9,3Zm13,-4.2L364.1,134H363c-.4,-.4,-.6,-1,-.7,-1.9l-.5,-.3c0,.2,0,.5,.1,.9c0,.3,0,.7,0,1.2c.1,.5,.1,.9,.1,1.3c0,.3,0,.6,0,.9c-.2,-.8,-.5,-1.3,-.9,-1.6c-.4,-.3,-1,-.5,-1.7,-.5H358l1.2,1.2c.3,0,.7,.1,1,.2c.3,.1,.6,.3,.8,.5c.3,.2,.5,.4,.6,.7c.2,.3,.3,.7,.3,1v8.9l1.1,1.2V135.2h2.2Zm13.7,3c-.3,.3,-.4,.7,-.4,1.2c0,.4,.2,.7,.5,.9c.3,.3,.7,.4,1.1,.4h.4c-.1,.5,-.3,.9,-.5,1.4c-.3,.4,-.7,.8,-1.1,1.1c-.3,.4,-.7,.7,-1.1,.9c-.4,.2,-.7,.3,-1,.3c-.6,0,-.9,-.3,-.9,-.9v-8.3h8.3L382.8,134h-.9c0,-.7,-.1,-1.3,-.3,-1.8c-.2,-.4,-.6,-.8,-1.2,-1.2c-.3,-.2,-.6,-.3,-1,-.4c-.4,0,-.8,-.1,-1.3,-.1c-.5,0,-1.1,.1,-1.7,.1c-.5,.1,-1.1,.1,-1.6,.1c-.4,0,-.8,0,-1.1,-.1c-.3,-.1,-.6,-.3,-.8,-.5c-.3,-.2,-.4,-.5,-.4,-.8c0,-.1,.1,-.2,.1,-.3c.1,-.1,.2,-.2,.2,-.3v-.4c-.1,0,-.2,0,-.3,.1c-.1,0,-.1,.1,-.2,.1c-.2,.3,-.4,.7,-.4,1.2c0,.3,.1,.6,.3,.9c.1,.3,.3,.5,.6,.8c.4,.3,.7,.5,1.1,.7c.4,.2,.9,.3,1.5,.3c.5,0,1,0,1.4,-.1c.4,0,.8,0,1.1,0c.2,0,.5,0,.6,-.1c.2,0,.4,0,.6,0c.2,0,.4,.1,.6,.1c.2,0,.3,0,.5,.1c.2,.1,.4,.3,.5,.4c.2,.2,.2,.4,.2,.7c0,.1,0,.3,-.1,.5H363.4l1.6,1.7c.4,.2,.8,.4,1.3,.5c.1,0,.2,0,.3,0c.1,0,.3,0,.4,0c.1,0,.3,0,.4,.1c.1,0,.2,0,.3,0c1,0,1.7,.5,2.1,1.5c0,.3,.1,.7,.2,1.3l-1,1.3c-.2,.3,-.5,.6,-.7,.8c-.3,.3,-.5,.4,-.6,.4c-.2,0,-.3,-.1,-.4,-.2c-.1,-.1,-.2,-.2,-.3,-.4c-.1,-.1,-.2,-.3,-.3,-.4c0,-.2,-.1,-.4,-.1,-.5l-.1,-.2l-.8,.8c.1,.3,.3,.6,.5,.9c.2,.3,.4,.6,.6,.9c.2,.3,.5,.5,.8,.7c.2,.2,.6,.2,.9,.2c.1,0,.2,0,.3,0c.1,0,.1,-.1,.2,-.1c.2,-.1,.5,-.4,.9,-.9c.4,-.5,.9,-1.2,1.6,-2.2c.4,-.6,.8,-.9,1.3,-.9c.3,0,.5,.1,.7,.2c.2,.2,.4,.3,.5,.5c.2,.2,.3,.4,.4,.7c.1,.2,.1,.4,.2,.7v2.8c0,.2,.1,.5,.3,.7c.2,.2,.4,.4,.6,.5c.3,.2,.6,.3,.8,.4c.3,.1,.6,.1,.8,.1c.4,0,.7,0,1,-.2c.4,-.1,.7,-.3,1,-.5c.3,-.2,.6,-.5,.9,-.7c.3,-.3,.6,-.6,.8,-.8c.5,-.6,.8,-1.1,1.1,-1.7c.2,-.5,.3,-1.1,.3,-1.8c0,-.3,0,-.6,-.1,-.9c-.1,-.3,-.2,-.6,-.4,-.8c-.2,-.3,-.4,-.4,-.7,-.6c-.3,-.1,-.6,-.2,-.9,-.2c-.5,0,-.8,.2,-1.2,.5Zm-4.3,1.5c-.2,-.2,-.3,-.4,-.5,-.7c-.2,-.2,-.4,-.5,-.6,-.7c-.2,-.2,-.4,-.4,-.6,-.5c-.3,-.2,-.6,-.3,-.9,-.3c-.2,.1,-.4,.1,-.7,.3c-.2,.2,-.4,.3,-.5,.5q-.1,.1,-.2,.1c0,.1,-.1,.1,-.1,.1v-.6c0,-.4,0,-.8,-.2,-1.2c-.1,-.3,-.4,-.6,-.6,-.9l-.8,-.6h5.7v4.5Zm31.6,-4.5L405,134H389.8l1.2,1.2h7.8v1c-2.6,.8,-4.9,2.1,-6.9,3.7l1.7,2.1c1.3,.1,2.5,.7,3.6,1.8c.5,.5,.9,1,1.3,1.6c.4,.7,.7,1.3,1,2c0,.1,.1,.1,.2,.2c.1,0,.2,.1,.2,.1v-10c1.3,0,2.2,.3,2.8,1c.7,.7,1,1.4,1,2.2l-.1,.3c-.2,-.2,-.3,-.3,-.5,-.4c-.2,-.2,-.4,-.2,-.7,-.2c-.4,0,-.7,.1,-1,.4c-.3,.2,-.4,.5,-.4,.9c0,.2,.1,.4,.2,.6c0,.2,.2,.3,.3,.5c.2,.1,.3,.2,.5,.3c.2,.1,.4,.1,.6,.1c.3,0,.5,-.1,.8,-.2c.2,-.1,.4,-.3,.6,-.5c.2,-.2,.3,-.4,.4,-.7c.1,-.3,.2,-.5,.2,-.8c0,-1.3,-.4,-2.4,-1.3,-3.4c-.8,-1.2,-1.9,-1.7,-3.3,-1.7v-.9h6.2Zm-7.4,9.1h-.1c-.9,-1.8,-2.4,-3.1,-4.4,-4c.8,-.5,1.6,-1,2.3,-1.4c.7,-.4,1.4,-.8,2.2,-1.1v6.5Zm12,-9.1L409.7,134h-1.1c-.4,-.4,-.6,-1,-.8,-1.9l-.4,-.3c0,.2,0,.5,0,.9c0,.3,.1,.7,.1,1.2c0,.5,.1,.9,.1,1.3c0,.3,0,.6,0,.9c-.2,-.8,-.6,-1.3,-1,-1.6c-.4,-.3,-.9,-.5,-1.7,-.5h-1.3l1.2,1.2c.3,0,.6,.1,1,.2c.3,.1,.6,.3,.8,.5c.3,.2,.5,.4,.6,.7c.2,.3,.2,.7,.2,1v8.9l1.2,1.2V135.2h2.2Zm12.5,0L422.2,134H409.1l1.2,1.2h5.1v4.1c0,1.7,.5,2.6,1.7,2.6c.3,-.1,.6,-.2,1,-.3c.3,-.2,.7,-.3,1,-.6c.3,-.2,.6,-.4,.8,-.7c.2,-.3,.4,-.6,.5,-.9c.5,.5,.7,1,.7,1.6c0,.5,-.2,1.1,-.5,1.5c-.3,.5,-.8,.9,-1.4,1.2c-.5,.3,-1.1,.4,-1.7,.4c-1.8,0,-3.1,-.9,-4.1,-2.7c-.3,-.7,-.6,-1.5,-.8,-2.3c-.3,-.9,-.4,-1.8,-.5,-2.7l-.8,-.4c.6,6.8,2.7,10.3,6.3,10.3c1.4,0,2.5,-.5,3.2,-1.4c.8,-.9,1.2,-2,1.2,-3.4c0,-.4,-.1,-.8,-.2,-1.2c-.1,-.4,-.2,-.8,-.4,-1.1c-.2,-.4,-.4,-.7,-.7,-1c-.2,-.3,-.6,-.6,-.9,-.8c-.3,.2,-.5,.5,-.7,.8c-.2,.4,-.5,.7,-.7,1c-.3,.3,-.5,.5,-.8,.7c-.3,.1,-.7,.2,-1.1,.1v-4.8h6.8Zm2.3,-7.3h-1.1l-7,5h2.9l5.2,-5Zm18.8,7.3L443.2,134c-.1,0,-.3,0,-.4,0c-.4,0,-.7,-.2,-.9,-.6c0,-.2,-.1,-.6,-.2,-1.2l-.5,-.5c0,1.1,.1,2.2,.1,3.2c.1,1.1,.1,2.1,.2,3.2h-.1c-1.5,-2.6,-3.1,-3.9,-4.9,-3.9c-.4,0,-.9,.1,-1.4,.3c-.5,.1,-1,.4,-1.6,.7c-.5,.4,-.9,.8,-1.2,1.2c-.4,.4,-.5,.9,-.5,1.3c0,.2,.1,.5,.3,.7c.2,.2,.4,.3,.6,.3c.2,0,.5,-.1,.9,-.3c.2,-.1,.4,-.1,.5,-.2c.1,0,.2,0,.3,0c.5,0,.8,.4,.8,1.2c0,.5,-.4,1.1,-1.3,1.9l1.7,.6l4.3,-4.2c.1,.1,.2,.2,.4,.4c.2,.2,.3,.4,.5,.6c.1,.3,.3,.5,.3,.7c.1,.3,.2,.5,.2,.6l-.2,6.4l1.3,1.3V135.2h2Zm-8.5,4.2c0,-.7,-.1,-1.2,-.4,-1.6c-.2,-.5,-.7,-.7,-1.4,-.7c.6,-1.1,1.5,-1.6,2.8,-1.6c.7,0,1.4,.3,1.9,.9l-2.9,3ZM449,135.2L447.8,134h-1.1c-.3,-.4,-.6,-1,-.7,-1.9l-.5,-.3c0,.2,.1,.5,.1,.9c0,.3,0,.7,0,1.2c.1,.5,.1,.9,.1,1.3c0,.3,0,.6,0,.9c-.2,-.8,-.5,-1.3,-.9,-1.6c-.4,-.3,-1,-.5,-1.7,-.5h-1.4l1.2,1.2c.4,0,.7,.1,1,.2c.3,.1,.6,.3,.9,.5c.2,.2,.4,.4,.6,.7c.1,.3,.2,.7,.2,1v8.9l1.1,1.2V135.2H449Zm8.3,-1.2h-3.5c-.3,-.3,-.6,-.6,-.8,-.9c-.3,-.4,-.5,-.7,-.8,-1.1c-.6,-1,-.9,-1.8,-.9,-2.5c0,-.3,.1,-.7,.4,-1c.3,-.3,.7,-.6,1.3,-.8l-1.4,-1.2c-.9,.7,-1.3,1.6,-1.3,2.6c0,.3,.1,.7,.2,1.1c.1,.4,.3,.9,.6,1.4l1.4,2.4h-5.4l1.3,1.2H453c.1,.4,.2,.7,.2,1c.1,.3,.1,.5,.1,.8c0,.5,-.1,1,-.3,1.4c-.2,.5,-.6,1,-1,1.5c-.3,.4,-.8,.7,-1.2,1c-.5,.3,-1,.6,-1.5,.7c-.1,.4,-.1,.8,-.1,1.2c0,1.1,.3,2.1,1,2.8c.7,.8,1.7,1.1,2.8,1.1c1.2,0,2.3,-.6,3.1,-1.7c.7,-1,1.1,-2.2,1.1,-3.5c0,-.5,-.1,-1,-.2,-1.6c-.1,-.5,-.3,-1.1,-.6,-1.7c-.5,-1.2,-1.1,-2.2,-1.9,-3h4L457.3,134Zm-2.8,2.7c1.1,1.3,1.6,2.7,1.6,4.4c0,1.1,-.3,2.1,-1,3c-.7,1.1,-1.6,1.6,-2.6,1.6c-1.2,0,-1.8,-.7,-1.8,-1.9c0,-.3,.3,-.7,1,-1.2c.9,-.7,1.5,-1.2,1.9,-1.7c.3,-.4,.5,-.9,.7,-1.4c.2,-.6,.3,-1.1,.3,-1.7c0,-.2,0,-.3,0,-.5c0,-.2,-.1,-.4,-.1,-.5v-.1Zm8.7,-1.5L462,134h-1c-.4,-.4,-.6,-1,-.8,-1.9l-.4,-.3c0,.2,0,.5,0,.9c0,.3,0,.7,.1,1.2c0,.5,0,.9,.1,1.3c0,.3,0,.6,0,.9c-.3,-.8,-.6,-1.3,-1,-1.6c-.4,-.3,-.9,-.5,-1.7,-.5H456l1.2,1.2c.3,0,.6,.1,1,.2c.3,.1,.6,.3,.8,.5c.3,.2,.5,.4,.6,.7c.1,.3,.2,.7,.2,1v8.9l1.2,1.2V135.2h2.2Zm6,-1.2h-8l1.2,1.2h4c-1.7,2,-2.5,4,-2.5,6.1c0,1.5,.3,2.8,.9,3.9c.7,1.4,1.8,2.1,3.2,2.1c.3,0,.6,0,.8,-.1c.3,-.1,.5,-.2,.7,-.4c.2,-.2,.4,-.4,.5,-.7c.1,-.2,.2,-.5,.2,-.8c0,-.4,-.2,-.9,-.5,-1.2c-.3,-.3,-.6,-.5,-1,-.5c-.4,0,-.7,.2,-1,.4c-.3,.3,-.5,.6,-.5,1c0,.2,.1,.4,.2,.7c.1,.2,.3,.4,.6,.6c-.7,.2,-1.5,-.2,-2.2,-1.3c-.5,-.7,-.7,-1.5,-.7,-2.3c0,-1,.1,-1.9,.3,-2.7c.2,-.7,.5,-1.4,.9,-2.1c.5,-.7,1,-1.3,1.7,-1.7c.7,-.5,1.4,-.8,2.3,-1L469.2,134Zm13.5,0H468.4l1.3,1.2h14.2L482.7,134Zm-.6,5.6c-.2,-.6,-.5,-1.2,-.9,-1.7c-.5,-.5,-1,-.9,-1.5,-1.1c-.6,-.3,-1.2,-.5,-1.8,-.5c-.8,0,-1.5,.3,-2,.7c-.6,.5,-.9,1.1,-.9,1.9c0,.6,.2,1.2,.5,1.6c.4,.5,.9,.7,1.5,.7c1.3,0,1.9,-.6,1.9,-1.7c0,-.5,-.1,-1,-.5,-1.4c.4,-.1,.7,-.2,.9,-.2c.6,0,1.1,.3,1.6,.9c.3,.6,.5,1.1,.5,1.8c0,.8,-.3,1.6,-1,2.3c-.8,.6,-1.6,1,-2.5,1c-1.7,0,-3.2,-.9,-4.4,-2.8c-.3,-.3,-.7,-1,-1.1,-1.8c-.4,-.9,-.9,-1.9,-1.4,-3.1l-.6,-.2c1.7,6.5,4.3,9.8,7.5,9.8c1.1,0,2.2,-.5,3.1,-1.3c.5,-.4,.8,-.8,1.1,-1.4c.2,-.5,.3,-1,.3,-1.6c0,-.7,-.1,-1.3,-.3,-1.9ZM500.5,134H490.2l1.2,1.2h1.8v9.1c0,.4,.2,.9,.7,1.5c.4,.5,.9,.7,1.3,.7c1.2,0,2.4,-.7,3.5,-2.2c1.1,-1.4,1.7,-2.7,1.7,-3.9c0,-1,-1,-1.8,-3,-2.5c-2.1,-.6,-3.2,-1.5,-3.1,-2.7h7.4L500.5,134Zm-2,6.8c0,.7,-.4,1.5,-1.3,2.6c-.9,1,-1.6,1.5,-2.3,1.5c-.3,0,-.5,-.2,-.5,-.7v-7c.8,1.5,2.2,2.5,4.1,3.1c0,0,0,.2,0,.5Zm7.8,-5.6L505.1,134H504c-.3,-.4,-.6,-1,-.7,-1.9l-.4,-.3c0,.2,0,.5,0,.9c0,.3,0,.7,0,1.2c.1,.5,.1,.9,.1,1.3c0,.3,.1,.6,.1,.9c-.3,-.8,-.6,-1.3,-1,-1.6c-.4,-.3,-1,-.5,-1.7,-.5H499l1.2,1.2c.4,0,.7,.1,1,.2c.3,.1,.6,.3,.9,.5c.2,.2,.4,.4,.6,.7c.1,.3,.2,.7,.2,1v8.9l1.1,1.2V135.2h2.3Zm10,-1.2h-1c.1,-1.1,-.3,-2,-1.1,-2.5c-.7,-.6,-1.9,-.9,-3.4,-.9c-.8,.1,-1.5,.1,-2,.2c-.5,0,-.9,0,-1.1,0c-.4,0,-.8,-.1,-1.1,-.3c-.5,-.3,-.7,-.6,-.7,-1c0,-.4,.2,-.8,.5,-1c0,0,-.1,0,-.1,0q-.1,0,-.2,0c-.2,-.1,-.3,.1,-.5,.5c-.2,.3,-.3,.6,-.3,.8c0,.8,.4,1.5,1.3,2c.7,.4,1.5,.7,2.4,.7c.2,0,.5,-.1,.8,-.1c.3,0,.6,0,1,0c.4,-.1,.8,-.1,1.1,-.1c.2,0,.5,0,.7,0c.2,0,.4,0,.6,0c.2,0,.3,.1,.5,.1c.5,.2,.7,.4,.7,.7c0,.3,-.2,.5,-.6,.7c-.2,.1,-.4,.1,-.5,.1c-.2,.1,-.4,.1,-.6,.1h-8.1l1.2,1.2h3.9c.5,.4,.8,.7,.8,1c-.8,0,-1.4,.3,-2,.8c-.5,.5,-.8,1.1,-.8,1.8c0,.4,.1,.7,.4,.9c.3,.2,.7,.3,1,.3c.6,0,1.1,-.2,1.6,-.7c.5,-.5,.7,-1,.7,-1.6c.1,0,.2,0,.3,-.1c.1,0,.2,0,.3,0c.3,0,.5,.1,.7,.2c.2,.1,.4,.2,.5,.4c.2,.2,.3,.4,.4,.7c.1,.2,.1,.5,.1,.7c.1,.8,-.4,1.5,-1.4,2c-.7,.3,-1.5,.5,-2.5,.4c-1.2,-.1,-2.3,-.4,-3.3,-1l1.4,3c.9,.2,1.8,.5,2.6,.9c.9,.3,1.7,.7,2.5,1.2c.9,.5,1.7,1,2.4,1.5c.6,.6,1.3,1.2,1.8,1.9l-.2,-1.3c-1.1,-1.1,-2.1,-2,-3,-2.8c-.9,-.8,-1.8,-1.4,-2.6,-1.9c1.2,-.3,2.1,-.7,2.6,-1.2c.8,-.6,1.2,-1.5,1.2,-2.4c0,-1,-.3,-1.8,-.9,-2.5c-.5,-.5,-1.3,-.9,-2.5,-1.3c-.1,-.2,-.2,-.3,-.3,-.5c-.1,-.1,-.2,-.2,-.3,-.4h6.3L516.3,134Z" class="gh_342"/>
<g clip-path="url(#c0_342)">
<path d="M1877,177.2H32.1v-5.4H768.7c43.1,0,53,-37.9,115.3,-37.9h993Z" class="gi_342"/>
<path d="M1877,183.7H32.1v-9.8H768.7c43.1,0,53,-33.6,115.3,-33.6h993Z" class="gj_342"/>
</g>
<image clip-path="url(#ch_342)" preserveAspectRatio="none" x="125" y="206" width="734" height="181" xlink:href="img/9.png"/>
<path d="M144.6,231.3c0,0,-13,0,-13,13v117c0,0,0,13,13,13H833.1c0,0,13,0,13,-13v-130Z" class="gk_342"/>
<path d="M147.7,294.1l54.1,40.8l54.1,-40.8V230h8.7V211.9H155.8c-6.5,.4,-7.7,3.9,-8.2,8.4Z" class="gl_342"/>
<path d="M274,220.3c-.3,-4.7,-4.2,-8.4,-9,-8.4c-4.8,0,-8.7,3.7,-9,8.4h-.1V230h18.2v-9.7Z" class="gm_342"/>
<path d="M255.9,230.6H846.1" class="gn_342"/>
<path d="M131.7,414.7v39L143.4,464V419.8Z" class="go_342"/>
<path d="M131.7,414.7v39H829.5c0,0,16.8,0,16.8,-16.8v-5.4c0,0,0,-16.8,-16.8,-16.8Z" class="ga_342"/>
<path d="M781,448.3c8.2,0,14.8,-6.5,14.8,-14.5c0,-8,-6.6,-14.5,-14.8,-14.5c-8.3,0,-14.9,6.5,-14.9,14.5c0,8,6.6,14.5,14.9,14.5Z" class="gp_342"/>
<path d="M781,448.3c8.2,0,14.8,-6.5,14.8,-14.5c0,-8,-6.6,-14.5,-14.8,-14.5c-8.3,0,-14.9,6.5,-14.9,14.5c0,8,6.6,14.5,14.9,14.5Z" class="gq_342"/>
<path d="M781,439.2c3,0,5.4,-2.4,5.4,-5.4c0,-2.9,-2.4,-5.3,-5.4,-5.3c-3.1,0,-5.5,2.4,-5.5,5.3c0,3,2.4,5.4,5.5,5.4Z" class="g1_342"/>
<path d="M781,439.2c3,0,5.4,-2.4,5.4,-5.4c0,-2.9,-2.4,-5.3,-5.4,-5.3c-3.1,0,-5.5,2.4,-5.5,5.3c0,3,2.4,5.4,5.5,5.4Z" class="gr_342"/>
<g clip-path="url(#ci_342)" opacity="0.3">
<path d="M766.4,433.1v0c0,0,-.1,-4.9,3.6,-8.7l7.8,6.7c0,0,-1,1,-1.1,2.7Z" class="g1_342"/>
</g>
<path d="M785.6,433.7c0,0,-3.5,0,-3.5,3.5v8.7c0,0,0,3.5,3.5,3.5H829c0,0,3.5,0,3.5,-3.5v-8.7c0,0,0,-3.5,-3.5,-3.5Z" class="gm_342"/>
<path d="M169.5,424.8c0,-8.3,-6.7,-15.1,-15,-15.1c-8.4,0,-15.1,6.8,-15.1,15.1c0,8.3,6.8,15.1,15.1,15.1c.8,0,1.6,-.1,2.4,-.2l4.5,5.2v-6.7c4.8,-2.5,8.1,-7.6,8.1,-13.4Z" class="g1_342"/>
<path d="M161.8,446.1l-5.1,-6c-.7,.2,-1.5,.2,-2.2,.2c-8.6,0,-15.6,-6.9,-15.6,-15.5c0,-8.6,7,-15.5,15.6,-15.5c8.5,0,15.5,6.9,15.5,15.5c0,5.7,-3.1,10.9,-8.2,13.6Zm-4.7,-6.9l3.8,4.4v-5.7l.3,-.1c4.8,-2.6,7.9,-7.5,7.9,-13c0,-8,-6.6,-14.6,-14.6,-14.6c-8.1,0,-14.6,6.6,-14.6,14.6c0,8,6.5,14.6,14.6,14.6c.7,0,1.5,-.1,2.3,-.2Z" class="gs_342"/>
<path d="M147.4,424.4c.8,0,1.5,.6,1.5,1.4c0,.8,-.7,1.4,-1.5,1.4c-.7,0,-1.4,-.6,-1.4,-1.4c0,-.8,.7,-1.4,1.4,-1.4Z" class="gt_342"/>
<path d="M147.4,427.7c-1,0,-1.8,-.8,-1.8,-1.9c0,-1,.8,-1.9,1.8,-1.9c1.1,0,1.9,.9,1.9,1.9c0,1.1,-.8,1.9,-1.9,1.9m0,-2.9c-.5,0,-.9,.5,-.9,1c0,.5,.4,1,.9,1c.6,0,1,-.5,1,-1c0,-.5,-.4,-1,-1,-1Z" class="gs_342"/>
<path d="M154.5,424.4c.8,0,1.4,.6,1.4,1.4c0,.8,-.6,1.4,-1.4,1.4c-.8,0,-1.5,-.6,-1.5,-1.4c0,-.8,.7,-1.4,1.5,-1.4Z" class="gt_342"/>
<path d="M154.5,427.7c-1.1,0,-1.9,-.8,-1.9,-1.9c0,-1,.8,-1.9,1.9,-1.9c1,0,1.9,.9,1.9,1.9c0,1.1,-.9,1.9,-1.9,1.9m0,-2.9c-.6,0,-1,.5,-1,1c0,.5,.4,1,1,1c.5,0,.9,-.5,.9,-1c0,-.5,-.4,-1,-.9,-1Z" class="gs_342"/>
<path d="M161.5,424.4c.8,0,1.4,.6,1.4,1.4c0,.8,-.6,1.4,-1.4,1.4c-.8,0,-1.5,-.6,-1.5,-1.4c0,-.8,.7,-1.4,1.5,-1.4Z" class="gt_342"/>
<path d="M161.5,427.7c-1.1,0,-1.9,-.8,-1.9,-1.9c0,-1,.8,-1.9,1.9,-1.9c1,0,1.9,.9,1.9,1.9c0,1.1,-.9,1.9,-1.9,1.9m0,-2.9c-.6,0,-1,.5,-1,1c0,.5,.4,1,1,1c.5,0,1,-.5,1,-1c0,-.5,-.5,-1,-1,-1Z" class="gs_342"/>
<path d="M163.4,439c0,-9.7,7.9,-17.6,17.6,-17.6c9.7,0,17.6,7.9,17.6,17.6c0,9.8,-7.9,17.6,-17.6,17.6c-.9,0,-1.9,0,-2.8,-.2l-5.3,6.1v-7.8c-5.6,-2.9,-9.5,-8.9,-9.5,-15.7Z" class="gu_342"/>
<path d="M172.9,463c0,0,-.1,0,-.1,0c-.2,-.1,-.3,-.3,-.3,-.5V455c-5.9,-3.2,-9.6,-9.3,-9.6,-16c0,-9.9,8.2,-18,18.1,-18c10,0,18.1,8.1,18.1,18c0,10,-8.1,18.1,-18.1,18.1c-.8,0,-1.7,-.1,-2.6,-.2l-5.1,5.9c-.1,.1,-.2,.2,-.4,.2M181,421.9c-9.4,0,-17.1,7.7,-17.1,17.1c0,6.5,3.5,12.3,9.2,15.3c.2,.1,.3,.2,.3,.4v6.6l4.4,-5.2c.1,-.1,.3,-.1,.5,-.1c.9,.1,1.8,.2,2.7,.2c9.5,0,17.2,-7.7,17.2,-17.2c0,-9.4,-7.7,-17.1,-17.2,-17.1Z" class="gs_342"/>
<path d="M189.2,438.5c.9,0,1.7,.8,1.7,1.7c0,.9,-.8,1.7,-1.7,1.7c-.9,0,-1.7,-.8,-1.7,-1.7c0,-.9,.8,-1.7,1.7,-1.7Z" class="g1_342"/>
<path d="M189.2,442.3c-1.2,0,-2.1,-.9,-2.1,-2.1c0,-1.2,.9,-2.1,2.1,-2.1c1.2,0,2.1,.9,2.1,2.1c0,1.2,-.9,2.1,-2.1,2.1m0,-3.3c-.7,0,-1.2,.5,-1.2,1.2c0,.7,.5,1.2,1.2,1.2c.7,0,1.2,-.5,1.2,-1.2c0,-.7,-.5,-1.2,-1.2,-1.2Z" class="gs_342"/>
<path d="M181,438.5c.9,0,1.7,.8,1.7,1.7c0,.9,-.8,1.7,-1.7,1.7c-.9,0,-1.7,-.8,-1.7,-1.7c0,-.9,.8,-1.7,1.7,-1.7Z" class="g1_342"/>
<path d="M181,442.3c-1.2,0,-2.1,-.9,-2.1,-2.1c0,-1.2,.9,-2.1,2.1,-2.1c1.2,0,2.1,.9,2.1,2.1c0,1.2,-.9,2.1,-2.1,2.1m0,-3.3c-.7,0,-1.2,.5,-1.2,1.2c0,.7,.5,1.2,1.2,1.2c.7,0,1.2,-.5,1.2,-1.2c0,-.7,-.5,-1.2,-1.2,-1.2Z" class="gs_342"/>
<path d="M172.8,438.5c.9,0,1.7,.8,1.7,1.7c0,.9,-.8,1.7,-1.7,1.7c-.9,0,-1.7,-.8,-1.7,-1.7c0,-.9,.8,-1.7,1.7,-1.7Z" class="g1_342"/>
<path d="M172.8,442.3c-1.2,0,-2.1,-.9,-2.1,-2.1c0,-1.2,.9,-2.1,2.1,-2.1c1.2,0,2.1,.9,2.1,2.1c0,1.2,-.9,2.1,-2.1,2.1m0,-3.3c-.7,0,-1.2,.5,-1.2,1.2c0,.7,.5,1.2,1.2,1.2c.7,0,1.2,-.5,1.2,-1.2c0,-.7,-.5,-1.2,-1.2,-1.2Z" class="gs_342"/>
<path d="M32.1,45.1H9.2m958.3,0h22.9M32.1,1331.3H9.2m958.3,0h22.9M45.1,32.1V9.2m0,1335.1v22.9M954.5,32.1V9.2m0,1335.1v22.9" class="gv_342"/>
<path d="M32.1,45.1H9.2m958.3,0h22.9M32.1,1331.3H9.2m958.3,0h22.9M45.1,32.1V9.2m0,1335.1v22.9M954.5,32.1V9.2m0,1335.1v22.9" class="gw_342"/>
<path d="M27.5,32.1H0m972.1,0h27.5M27.5,1344.3H0m972.1,0h27.5M32.1,27.5V0m0,1348.9v27.5M967.5,27.5V0m0,1348.9v27.5" class="gv_342"/>
<path d="M27.5,32.1H0m972.1,0h27.5M27.5,1344.3H0m972.1,0h27.5M32.1,27.5V0m0,1348.9v27.5M967.5,27.5V0m0,1348.9v27.5" class="gw_342"/>
</svg>