<?xml version="1.0" encoding="UTF-8" standalone="no"?>
<!DOCTYPE svg PUBLIC "-//W3C//DTD SVG 1.1//EN"
"http://www.w3.org/Graphics/SVG/1.1/DTD/svg11.dtd">
<svg viewBox="0 0 999 1376" version="1.1" xmlns="http://www.w3.org/2000/svg" xmlns:xlink="http://www.w3.org/1999/xlink">
<defs>
<clipPath id="c0_157"><path d="M153.3,1244.7V131.7H867.9v1113Z"/></clipPath>
<clipPath id="c1_157"><path d="M174.5,668.6V264.3H848.2V668.6Z"/></clipPath>
<clipPath id="c2_157"><path d="M180.8,656.2V270.6H835.9V656.2Z"/></clipPath>
<clipPath id="c3_157"><path d="M180.3,654.5V272.6H836.5V654.5Z"/></clipPath>
<style type="text/css"><![CDATA[
.g0_157{
fill: #FFF;
}
.g1_157{
fill: #C3E7EF;
}
.g2_157{
fill: none;
stroke: #005695;
stroke-width: 0.469;
}
.g3_157{
fill: none;
stroke: #FFF;
stroke-width: 9.166;
}
.g4_157{
fill: none;
stroke: #231F20;
stroke-width: 0.756;
stroke-miterlimit: 3;
}
.g5_157{
fill: #25408F;
}
.g6_157{
fill: #6381B7;
}
.g7_157{
fill: #61C7CB;
}
.g8_157{
fill: #F5CA58;
}
.g9_157{
fill: #3D3B39;
}
.ga_157{
fill: none;
stroke: #FFF;
stroke-width: 1.909;
stroke-miterlimit: 10;
}
.gb_157{
fill: none;
stroke: #000;
stroke-width: 0.381;
stroke-miterlimit: 10;
}
]]></style>
</defs>
<path d="M153.3,1244.7H867.9V131.7H153.3v1113Z" class="g0_157"/>
<image clip-path="url(#c0_157)" preserveAspectRatio="none" x="151" y="130" width="719" height="1117" xlink:href="img/1.jpg"/>
<image clip-path="url(#c1_157)" preserveAspectRatio="none" x="174" y="265" width="674" height="404" xlink:href="img/2.png"/>
<g clip-path="url(#c2_157)">
<path d="M112.2,229.3c0,0,-11.8,0,-11.8,12.1v1139c0,0,0,12.1,11.8,12.1H888.9c0,0,11.7,0,11.7,-12.1V241.4c0,0,0,-12.1,-11.7,-12.1H112.2Z" class="g1_157"/>
<path d="M154.8,654.1H855.7v-381H154.8v381Z" class="g0_157"/>
</g>
<image clip-path="url(#c3_157)" preserveAspectRatio="none" x="155" y="273" width="701" height="381" xlink:href="img/3.jpg"/>
<path clip-path="url(#c2_157)" d="M855.7,273.1H154.8v381H855.7Z" class="g2_157"/>
<path d="M180.8,656.2H835.9V270.6H180.8V656.2Z" class="g3_157"/>
<path d="M352.4,195.9c-.4,.6,-.8,1.1,-1.3,1.5c-.5,.5,-1.2,.8,-1.9,1c-.7,.3,-1.4,.4,-2.2,.4c-.8,0,-1.6,-.1,-2.3,-.3c-.7,-.3,-1.3,-.6,-1.8,-1c-.6,-.5,-1,-1,-1.3,-1.6c-.3,-.6,-.5,-1.3,-.5,-2c0,-.7,.2,-1.4,.5,-2c.3,-.6,.7,-1.1,1.2,-1.6c.6,-.4,1.2,-.7,1.9,-1c.7,-.2,1.5,-.3,2.3,-.3c.8,0,1.6,.1,2.3,.3c.7,.3,1.3,.6,1.9,1.1c.5,.4,.9,.9,1.2,1.5c.3,.6,.4,1.3,.4,2c0,.7,-.1,1.4,-.4,2Zm11.4,-2.5h-4.2v8h-2.3V183.9h2.3v7.6h4.2v1.9Zm-17,14.9c-.8,0,-1.4,-.2,-1.8,-.5c-.4,-.4,-.6,-.9,-.6,-1.6v-5.3h2.3v4.9c0,.2,0,.4,.2,.5c.1,.2,.3,.2,.6,.2h7.1c1.1,0,2,0,2.9,-.1c.8,-.2,1.7,-.4,2.7,-.7l.5,1.7c-1.1,.4,-2.1,.6,-3,.7c-1,.2,-2,.2,-3,.2h-7.9Zm2.7,-16.7c-.7,-.6,-1.5,-.9,-2.5,-.9c-1,0,-1.8,.3,-2.5,.9c-.7,.5,-1.1,1.3,-1.1,2.3c0,1,.4,1.8,1.1,2.3c.7,.6,1.5,.8,2.5,.8c1,0,1.8,-.2,2.5,-.8c.7,-.5,1.1,-1.3,1.1,-2.3c0,-1,-.4,-1.8,-1.1,-2.3Zm4.7,-3.5H339.8v-1.7h5.4c.3,-.4,.4,-.8,.5,-1.1c.1,-.3,.1,-.7,.1,-1c0,-.1,0,-.3,0,-.4c-.1,-.1,-.1,-.2,-.1,-.3c0,-.1,0,-.2,-.1,-.3c0,-.1,-.1,-.2,-.1,-.3l2.2,-.6c.1,.3,.2,.6,.2,.8c0,.3,.1,.6,.1,1c-.1,.4,-.1,.7,-.2,1.1c-.1,.4,-.3,.7,-.4,1.1h6.8v1.7Zm32,7.1H376.1v4.3H381c.8,0,1.4,.2,1.7,.6c.2,.4,.4,.9,.4,1.6l-.3,6.9h-2v-6.5c0,-.3,-.1,-.5,-.2,-.6c-.1,-.1,-.3,-.2,-.5,-.2H367.3v-1.8h6.5v-4.3h-8.9v-1.8H380c.2,-1.1,.4,-2.2,.6,-3.5c.1,-1.2,.2,-2.4,.2,-3.5c0,-.3,-.1,-.5,-.2,-.6c-.1,-.1,-.3,-.1,-.6,-.1H367.7v-1.8h12.9c.8,0,1.4,.1,1.8,.4c.4,.3,.6,.8,.6,1.6c0,1.1,-.1,2.3,-.2,3.7c-.2,1.3,-.4,2.6,-.7,3.8h4.1v1.8Zm16.2,-10.5c.2,.5,.3,1,.4,1.5c.2,.6,.2,1.2,.2,1.9c0,1,0,1.9,-.1,2.7c-.1,.9,-.3,1.6,-.4,2.3c.6,.2,1.2,.4,1.7,.7c.4,.3,.9,.7,1.2,1.1c.4,.6,1,1.3,1.6,2.2c.6,1,1.2,2,2,3.2l-1.7,1.2c-.6,-1,-1.3,-1.9,-1.9,-2.9c-.6,-.9,-1.1,-1.6,-1.6,-2.3c-.2,-.3,-.5,-.5,-.8,-.8c-.3,-.2,-.7,-.4,-1.2,-.6c-.1,.3,-.3,.5,-.4,.8c-.2,.3,-.3,.5,-.5,.8c-.7,1,-1.4,1.9,-2.3,2.8c-.8,.9,-1.8,1.7,-2.8,2.5l-1.3,-1.7c1,-.7,1.8,-1.5,2.6,-2.3c.8,-.8,1.4,-1.6,2,-2.4c.7,-1,1.1,-2.1,1.3,-3.3c.2,-1.2,.3,-2.5,.3,-3.9c0,-.6,0,-1.1,-.1,-1.6c-.1,-.4,-.3,-.8,-.4,-1.2l2.2,-.7Zm16.2,10.2h-4.4v11.8H412V184.2h2.2v8.9h4.4v1.8Zm4.5,1.4c-.8,0,-1.4,-.2,-1.9,-.5c-.4,-.3,-.7,-.9,-.7,-1.7v-4.8H429v-3.2h-8.5v-1.8h10.7v6.1c-.5,.3,-1.1,.4,-1.6,.5c-.6,.2,-1.2,.2,-1.8,.2h-5v2.8c0,.2,0,.4,.1,.5c.1,.1,.3,.1,.5,.1h4.8c1.3,0,2.7,-.1,4.2,-.4c1.6,-.3,2.9,-.9,4.2,-1.8v-8.4h2.2V190h4.4v1.8h-4.4v3.6c0,.9,-.1,1.6,-.5,2.3c-.3,.6,-.7,1.1,-1.1,1.5h.1c.5,0,.9,.1,1.1,.4c.3,.3,.4,.8,.3,1.5l-.5,7c0,.2,0,.3,-.2,.4c-.1,.1,-.3,.1,-.5,.1H425.9c-.9,0,-1.6,-.2,-1.9,-.6c-.4,-.4,-.6,-1,-.6,-1.8v-7h11.9c.4,-.6,.7,-1.2,.9,-1.8c.2,-.6,.4,-1.2,.4,-2v-1.1c-1.2,.7,-2.6,1.2,-4.1,1.5c-1.5,.3,-3,.5,-4.3,.5h-5.1Zm13.3,10.6v-6H425.7v5c0,.4,0,.6,.1,.7c.1,.2,.4,.3,.8,.3h9.8Zm12.7,1.7c-.7,0,-1.1,-.1,-1.4,-.4c-.2,-.3,-.3,-.7,-.3,-1.2v-4.4h13.3v-2.4H447.4v-1.7h14c.7,0,1.1,.1,1.3,.4c.3,.3,.3,.7,.3,1.2l-.3,3.5c-.1,.3,-.2,.5,-.3,.6c-.2,.1,-.5,.2,-.8,.2h-12v2.5h7.8c.8,0,1.8,-.1,2.8,-.2c1,-.1,2.1,-.3,3,-.6l.5,1.7c-1,.3,-2,.5,-3,.6c-1,.2,-2.1,.2,-3.1,.2h-8.5ZM466,195.9H444.7v-1.8H466v1.8Zm-16,-6.5c0,.3,0,.5,.1,.6c.1,.1,.3,.2,.6,.2H456c1.2,0,2.4,-.1,3.5,-.2c1.1,-.1,2.2,-.3,3.3,-.7l.4,1.8c-1.1,.3,-2.3,.5,-3.6,.7c-1.2,.1,-2.4,.2,-3.6,.2h-5.6c-.9,0,-1.6,-.2,-2,-.6c-.5,-.4,-.7,-1,-.7,-1.9v-5.6h14.8v1.7H450v3.8Zm38.3,17.3H486V184.2h2.3v22.5Zm-7.1,-11.1c-.3,.9,-.7,1.6,-1.3,2.3c-.6,.6,-1.4,1.2,-2.2,1.5c-.8,.4,-1.8,.6,-2.8,.6c-1.1,0,-2,-.2,-2.9,-.6c-.8,-.3,-1.5,-.9,-2.1,-1.5c-.6,-.7,-1,-1.4,-1.3,-2.3c-.4,-.9,-.5,-1.9,-.5,-2.9c0,-1,.1,-1.9,.5,-2.8c.3,-.9,.7,-1.7,1.3,-2.4c.6,-.6,1.3,-1.1,2.1,-1.5c.9,-.4,1.8,-.6,2.9,-.6c1,0,2,.2,2.8,.6c.8,.4,1.6,.9,2.2,1.5c.6,.7,1,1.5,1.3,2.4c.3,.9,.5,1.8,.5,2.8c0,1,-.2,2,-.5,2.9Zm-2.1,-4.9c-.2,-.7,-.5,-1.3,-.9,-1.8c-.4,-.4,-.8,-.8,-1.4,-1.1c-.6,-.3,-1.2,-.5,-1.9,-.5c-.8,0,-1.4,.2,-2,.5c-.5,.3,-1,.7,-1.4,1.1c-.4,.5,-.6,1.1,-.8,1.8c-.2,.6,-.3,1.3,-.3,2c0,.8,.1,1.4,.3,2.1c.2,.6,.4,1.2,.8,1.7c.4,.5,.9,.9,1.4,1.1c.6,.3,1.2,.5,2,.5c.7,0,1.3,-.2,1.9,-.5c.6,-.2,1,-.6,1.4,-1.1c.4,-.5,.7,-1.1,.9,-1.7c.2,-.7,.3,-1.3,.3,-2.1c0,-.7,-.1,-1.4,-.3,-2Zm38.8,10.1h-2.3V183.9h2.3v16.9Zm-13,7.5c-.8,0,-1.4,-.2,-1.8,-.5c-.4,-.4,-.6,-.9,-.6,-1.6v-6.7h2.3v6.3c0,.2,.1,.4,.2,.5c.1,.2,.3,.2,.6,.2h7.2c1,0,2,0,2.8,-.1c.9,-.2,1.7,-.4,2.7,-.7l.5,1.7c-1.1,.4,-2.1,.6,-3,.7c-1,.2,-1.9,.2,-3,.2h-7.9Zm5.5,-15.6c-.3,.7,-.7,1.3,-1.3,1.9c-.6,.5,-1.3,1,-2.1,1.3c-.7,.3,-1.6,.4,-2.5,.4c-.9,0,-1.8,-.1,-2.6,-.4c-.7,-.4,-1.4,-.8,-2,-1.4c-.5,-.5,-1,-1.2,-1.3,-1.9c-.3,-.8,-.4,-1.5,-.4,-2.3c0,-.9,.1,-1.7,.5,-2.4c.3,-.8,.7,-1.4,1.3,-1.9c.6,-.6,1.2,-1,2,-1.3c.8,-.4,1.6,-.5,2.5,-.5c1,0,1.8,.2,2.6,.5c.8,.3,1.5,.8,2,1.3c.6,.6,1,1.2,1.4,2c.3,.7,.4,1.4,.4,2.3c0,.8,-.1,1.6,-.5,2.4Zm-2.8,-5.4c-.8,-.9,-1.8,-1.3,-3.1,-1.3c-1.2,0,-2.2,.4,-3,1.3c-.7,.8,-1.1,1.8,-1.1,3c0,1.1,.4,2.1,1.1,3c.8,.8,1.8,1.2,3,1.2c1.3,0,2.3,-.4,3.1,-1.2c.7,-.9,1.1,-1.9,1.1,-3c0,-1.2,-.4,-2.2,-1.1,-3Zm21,-2.6c.2,.5,.4,1,.5,1.5c.1,.6,.2,1.2,.2,1.9c0,1,-.1,1.9,-.2,2.7c0,.9,-.2,1.6,-.4,2.3c.7,.2,1.3,.4,1.7,.7c.5,.3,.9,.7,1.3,1.1c.4,.6,.9,1.3,1.5,2.2c.6,1,1.3,2,2,3.2l-1.7,1.2c-.6,-1,-1.2,-1.9,-1.8,-2.9c-.6,-.9,-1.1,-1.6,-1.6,-2.3c-.2,-.3,-.5,-.5,-.8,-.8c-.3,-.2,-.7,-.4,-1.2,-.6c-.2,.3,-.3,.5,-.5,.8c-.1,.3,-.3,.5,-.4,.8c-.7,1,-1.5,1.9,-2.3,2.8c-.9,.9,-1.8,1.7,-2.8,2.5l-1.4,-1.7c1,-.7,1.9,-1.5,2.7,-2.3c.8,-.8,1.4,-1.6,2,-2.4c.6,-1,1.1,-2.1,1.3,-3.3c.2,-1.2,.3,-2.5,.3,-3.9c0,-.6,0,-1.1,-.2,-1.6c-.1,-.4,-.2,-.8,-.3,-1.2l2.1,-.7Zm16.2,10.2h-4.3v11.8h-2.3V184.2h2.3v8.9h4.3v1.8Zm6.2,0c0,.3,.1,.6,.2,.7c.2,.2,.4,.3,.7,.3h5.4c1.2,0,2.3,-.1,3.4,-.2c1.2,-.1,2.4,-.3,3.8,-.6l.3,1.7c-.7,.2,-1.3,.3,-1.9,.5c-.6,.1,-1.2,.2,-1.7,.2c-.6,.1,-1.2,.1,-1.7,.2c-.6,0,-1.2,0,-1.9,0v4.2h9.7v1.9H546v-1.9h9.4v-4.2h-3.7c-.9,0,-1.7,-.2,-2.2,-.6c-.4,-.4,-.7,-1,-.7,-1.9v-4.8h12.8v-3.6H548.8v-1.9h15v6.6c-.6,.3,-1.2,.4,-1.8,.5c-.6,.1,-1.2,.2,-1.9,.2H551v2.7Zm37.9,3.9c-.3,.7,-.7,1.4,-1.3,1.9c-.5,.6,-1.2,1,-2,1.3c-.8,.3,-1.6,.4,-2.5,.4c-.9,0,-1.8,-.1,-2.5,-.4c-.8,-.3,-1.5,-.7,-2,-1.3c-.6,-.5,-1.1,-1.2,-1.4,-1.9c-.3,-.7,-.4,-1.5,-.4,-2.4c0,-.9,.1,-1.7,.5,-2.5c.3,-.7,.7,-1.3,1.3,-1.9c.6,-.5,1.3,-.9,2,-1.2c.8,-.3,1.6,-.4,2.5,-.4c.9,0,1.8,.2,2.6,.5c.8,.3,1.4,.7,2,1.3c.5,.6,1,1.2,1.3,1.9c.3,.7,.4,1.5,.4,2.3c0,.9,-.1,1.7,-.5,2.4ZM600,195.4h-4.3v11.4h-2.3V184.2h2.3v9.4H600v1.8Zm-13.9,-2c-.7,-.8,-1.7,-1.1,-3,-1.1c-1.3,0,-2.3,.3,-3,1.1c-.7,.8,-1,1.8,-1,3c0,1.2,.3,2.2,1,3c.7,.8,1.7,1.2,3,1.2c1.3,0,2.3,-.4,3,-1.2c.7,-.8,1,-1.8,1,-3c0,-1.2,-.4,-2.2,-1,-3Zm-4.8,-6.2c.3,-.3,.4,-.7,.5,-1c.1,-.3,.1,-.7,.1,-1.1c0,-.2,0,-.4,0,-.7c-.1,-.3,-.2,-.7,-.3,-1l2.4,-.7c.1,.4,.1,.8,.2,1c0,.2,0,.5,0,.8c0,.7,0,1.2,-.2,1.6c-.1,.5,-.3,.8,-.4,1.1h6.8V189H575.6v-1.8h5.7Zm40.9,10.6H600.9V196h21.3v1.8Zm-16.3,10.5c-.8,0,-1.4,-.2,-1.8,-.5c-.4,-.4,-.6,-.9,-.6,-1.6v-5.5h2.3v5.1c0,.2,0,.4,.1,.5c.2,.2,.4,.2,.7,.2h7.2c1,0,2,0,2.8,-.1c.9,-.2,1.8,-.4,2.7,-.7l.5,1.7c-1.1,.4,-2.1,.6,-3,.7c-.9,.2,-1.9,.2,-3,.2h-7.9Zm.1,-24.1v6.2c0,.2,0,.4,.1,.5c.1,.2,.3,.2,.6,.2h5.5c1.2,0,2.4,0,3.5,-.2c1.1,-.1,2.2,-.3,3.3,-.6l.4,1.7c-1.2,.4,-2.4,.6,-3.6,.7c-1.2,.2,-2.4,.2,-3.6,.2h-5.9c-.9,0,-1.6,-.2,-2,-.6c-.4,-.4,-.6,-1,-.6,-1.8v-6.3H606Zm37.6,8c-.3,.8,-.8,1.4,-1.4,1.9c-.5,.5,-1.2,.9,-1.9,1.2c-.8,.2,-1.6,.4,-2.5,.4c-.9,0,-1.7,-.1,-2.4,-.4c-.8,-.3,-1.5,-.6,-2,-1.1c-.6,-.5,-1.1,-1.1,-1.4,-1.9c-.3,-.7,-.5,-1.6,-.5,-2.5c0,-.9,.2,-1.7,.5,-2.5c.3,-.7,.7,-1.3,1.3,-1.8c.6,-.5,1.2,-.9,2,-1.2c.8,-.3,1.6,-.4,2.5,-.4c.9,0,1.7,.1,2.5,.4c.7,.3,1.4,.7,1.9,1.2c.6,.5,1.1,1.1,1.4,1.8c.3,.8,.4,1.6,.4,2.5c0,.9,-.1,1.7,-.4,2.4Zm6.8,-8.3v3.2h4.3v1.8h-4.3v3.8h4.3v1.8h-4.3v1.1c0,1,-.1,1.7,-.5,2.3c-.4,.5,-.7,1,-1.1,1.3c.5,.1,.9,.3,1.1,.7c.2,.3,.3,.8,.3,1.4l-.3,7.3h-2v-6.9c0,-.2,0,-.4,-.1,-.5c-.1,-.2,-.3,-.3,-.6,-.3H634.5v-1.7h12.4c.4,-.5,.7,-1,.9,-1.6c.2,-.6,.4,-1.2,.4,-1.8V183.9h2.2Zm-9.6,3c-.7,-.8,-1.7,-1.2,-3,-1.2c-1.3,0,-2.3,.4,-3,1.2c-.7,.8,-1.1,1.8,-1.1,2.9c0,1.1,.4,2,1.1,2.8c.7,.8,1.7,1.2,3,1.2c1.3,0,2.3,-.4,3,-1.2c.7,-.8,1,-1.7,1,-2.8c0,-1.1,-.3,-2.1,-1,-2.9ZM667,185.5c-.1,.4,-.2,.7,-.3,1c.8,.1,1.5,.3,2.1,.5c.6,.2,1.2,.4,1.7,.8c.6,.4,1.4,.9,2.2,1.5c.8,.5,1.6,1.1,2.4,1.7l-1.2,1.7c-.9,-.6,-1.7,-1.2,-2.5,-1.8c-.7,-.5,-1.4,-1,-2.1,-1.4c-.4,-.3,-.9,-.5,-1.4,-.7c-.5,-.2,-1.2,-.4,-2.1,-.5c-.3,.4,-.6,.7,-.9,1c-.3,.4,-.7,.6,-1.1,.9c-.7,.6,-1.6,1.1,-2.6,1.5c-1,.4,-2,.8,-3.1,1.1l-.6,-1.9c1.1,-.3,2.1,-.6,2.9,-1c.9,-.4,1.6,-.8,2.1,-1.3c.8,-.5,1.4,-1.2,1.7,-1.8c.4,-.7,.5,-1.4,.5,-2.2c0,-.2,0,-.4,0,-.6c0,-.3,-.1,-.5,-.2,-.7l2.3,-.6c.1,.3,.2,.7,.2,1c.1,.3,.1,.6,.1,.9c0,.3,0,.6,-.1,.9Zm10,11.8H655.7v-1.8h9.5v-4h2.2v4H677v1.8Zm-3.1,11.3h-2v-6c0,-.3,0,-.5,-.1,-.6c-.2,-.1,-.4,-.1,-.6,-.1h-13v-1.8h13.9c.8,0,1.4,.2,1.7,.5c.3,.4,.4,.8,.4,1.4l-.3,6.6Z" class="g4_157"/>
<path d="M153.3,126.3v22.2L165,158.7V136.5Z" class="g5_157"/>
<path d="M153.3,109.5v39H851.1c0,0,16.8,0,16.8,-16.8v-5.4c0,0,0,-16.8,-16.8,-16.8Z" class="g6_157"/>
<path d="M187.9,117.2l-3.2,3.2c.6,3.1,2.1,6.1,4.3,8.5l4.2,-4.2c-2.3,-2.3,-4.1,-4.9,-5.3,-7.5Z" class="g7_157"/>
<path d="M216,121c.3,1.3,.5,2.5,.5,3.6c1.1,-2.2,1.6,-4.7,1.6,-7.2c0,-.6,0,-1.1,-.1,-1.7l-2.8,2.9c.3,.8,.6,1.6,.8,2.4Z" class="g7_157"/>
<path d="M186.6,113.7c-.3,-1.2,-.5,-2.4,-.5,-3.6c-1.1,2.3,-1.6,4.7,-1.6,7.3c0,.5,0,1.1,0,1.6l2.9,-2.9c-.3,-.8,-.6,-1.6,-.8,-2.4Z" class="g7_157"/>
<path d="M208.6,109.3l4.2,-4.2c-2.4,-2.3,-5.3,-3.7,-8.5,-4.3l-3.2,3.2c2.6,1.2,5.2,3,7.5,5.3Z" class="g7_157"/>
<path d="M214.7,117.5l3.1,-3.1c-.5,-3.2,-2,-6.1,-4.2,-8.5l-4.2,4.2c2.2,2.3,4.1,4.8,5.3,7.4Z" class="g7_157"/>
<path d="M214.9,121.3c-.2,-.6,-.4,-1.2,-.6,-1.8l-5.1,5l4.4,4.4c.5,-.6,1,-1.2,1.5,-1.9c.4,-1.6,.4,-3.5,-.2,-5.7Z" class="g7_157"/>
<path d="M194,102.2c1.9,0,4,.5,6,1.3l2.9,-2.9c-.5,0,-1.1,-.1,-1.6,-.1c-2.6,0,-5,.6,-7.3,1.7Z" class="g7_157"/>
<path d="M208.5,132.6c-1.8,0,-3.9,-.5,-5.9,-1.4l-2.9,2.9c.5,.1,1,.1,1.6,.1c2.5,0,5,-.6,7.2,-1.6Z" class="g7_157"/>
<path d="M187.7,113.4c.1,.7,.3,1.3,.6,1.9l5,-5.1L189,105.9c-.5,.6,-1.1,1.2,-1.5,1.8c-.5,1.6,-.4,3.6,.2,5.7Z" class="g7_157"/>
<path d="M201.5,130.8c-2.6,-1.3,-5.2,-3.1,-7.5,-5.3l-4.2,4.2c2.4,2.2,5.3,3.7,8.5,4.2Z" class="g7_157"/>
<path d="M194.7,124.7c2.4,2.3,5,4.1,7.6,5.2l5.4,-5.4l-6.4,-6.4Z" class="g7_157"/>
<path d="M189.8,105.1l4.3,4.3l5.1,-5c-1.8,-.7,-3.6,-1.1,-5.2,-1.1c-.9,0,-1.6,.1,-2.4,.3c-.6,.4,-1.2,.9,-1.8,1.5Z" class="g7_157"/>
<path d="M202.1,117.4l6.4,6.4l5.4,-5.4c-1.2,-2.6,-3,-5.2,-5.3,-7.6Z" class="g7_157"/>
<path d="M188.7,116.4c1.2,2.6,3,5.2,5.3,7.5l6.5,-6.5L194.1,111Z" class="g7_157"/>
<path d="M194.9,110.2l6.4,6.4l6.5,-6.5c-2.3,-2.3,-4.9,-4.1,-7.5,-5.3Z" class="g7_157"/>
<path d="M212.8,129.7l-4.3,-4.4l-5.1,5.1c1.8,.7,3.6,1.1,5.2,1.1c.8,0,1.6,-.1,2.3,-.3c.7,-.5,1.3,-1,1.9,-1.5Z" class="g7_157"/>
<path d="M206.4,144.2c.2,0,.4,0,.6,.1V141c0,-.5,.3,-1,.8,-1.1c3.8,-1.1,7.3,-3.1,10.1,-5.9l.3,-.3l-.6,-.6l-.3,.3c-4.3,4.2,-10,6.6,-16,6.6c-6.1,0,-11.7,-2.4,-16,-6.6c-4.3,-4.3,-6.6,-10,-6.6,-16c0,-6.1,2.3,-11.7,6.6,-16l.3,-.3l-.6,-.6l-.3,.3c-4.4,4.4,-6.9,10.3,-6.9,16.6c0,6.2,2.5,12.1,6.9,16.6c4.4,4.4,10.3,6.8,16.6,6.8c1.1,0,2.2,-.1,3.2,-.2c.4,0,.7,0,.9,.3c.3,.2,.4,.5,.4,.8v2.6c.2,-.1,.4,-.1,.6,-.1Z" class="g0_157"/>
<path d="M215.2,152.4c-1.4,-3.6,-4.9,-6,-8.8,-6c-3.9,0,-7.4,2.4,-8.8,6Z" class="g8_157"/>
<path d="M221.5,152.4h-4c-1.2,-3.9,-4.4,-6.9,-8.3,-7.8v-2.8c3.8,-1.3,7.4,-3.4,10.2,-6.3l1.1,-1.1c.2,-.2,.3,-.5,.3,-.7c0,-.3,-.1,-.6,-.3,-.8l-2.1,-2.2c-.5,-.4,-1.2,-.4,-1.6,0l-.3,.3l-1,-1c3.1,-3.5,4.8,-7.9,4.8,-12.6c0,-5.1,-2,-9.9,-5.6,-13.5c-3.6,-3.6,-8.3,-5.6,-13.4,-5.6c-4.7,0,-9.2,1.8,-12.7,4.9l-1,-1l.3,-.3c.3,-.2,.4,-.5,.4,-.8c0,-.3,-.1,-.6,-.4,-.8l-2.1,-2.2c-.4,-.4,-1.2,-.4,-1.6,0l-1.1,1.1c-4.8,4.9,-7.5,11.3,-7.5,18.2c0,6.8,2.7,13.3,7.5,18.1c4.9,4.9,11.3,7.5,18.2,7.5c.8,0,1.5,0,2.3,-.1v1.7c-3.9,.9,-7.1,3.9,-8.3,7.8h-4c-.6,0,-1.1,.5,-1.1,1.1c0,.6,.5,1.1,1.1,1.1h30.2c.6,0,1.1,-.5,1.1,-1.1c0,-.6,-.5,-1.1,-1.1,-1.1m-15.1,-6c3.9,0,7.4,2.4,8.8,6H197.6c1.4,-3.6,4.9,-6,8.8,-6m-1,-5.5c-.2,-.3,-.5,-.3,-.9,-.3c-1,.1,-2.1,.2,-3.2,.2c-6.3,0,-12.2,-2.4,-16.6,-6.8c-4.4,-4.5,-6.9,-10.4,-6.9,-16.6c0,-6.3,2.5,-12.2,6.9,-16.6l.3,-.3l.6,.6l-.3,.3c-4.3,4.3,-6.6,9.9,-6.6,16c0,6,2.3,11.7,6.6,16c4.3,4.2,9.9,6.6,16,6.6c6,0,11.7,-2.4,16,-6.6l.3,-.3l.6,.6l-.3,.3c-2.8,2.8,-6.3,4.8,-10.1,5.9c-.5,.1,-.8,.6,-.8,1.1v3.3c-.2,-.1,-.4,-.1,-.6,-.1c-.2,0,-.4,0,-.6,.1v-2.6c0,-.3,-.1,-.6,-.4,-.8M194,103.3c1.6,0,3.4,.3,5.2,1.1l-5.1,5l-4.3,-4.3c.6,-.6,1.2,-1.1,1.8,-1.5c.8,-.2,1.5,-.3,2.4,-.3m18.8,1.8l-4.2,4.2c-2.3,-2.3,-4.9,-4.1,-7.5,-5.3l3.2,-3.2c3.2,.6,6.1,2,8.5,4.3m5,9.3l-3.1,3.1c-1.2,-2.6,-3.1,-5.1,-5.3,-7.4l4.2,-4.2c2.2,2.4,3.7,5.3,4.2,8.5m.3,3c0,2.5,-.5,5,-1.6,7.2c0,-1.1,-.2,-2.3,-.5,-3.6c-.2,-.8,-.5,-1.6,-.8,-2.4l2.8,-2.9c.1,.6,.1,1.1,.1,1.7m-33.4,3l3.2,-3.2c1.2,2.6,3,5.2,5.3,7.5l-4.2,4.2c-2.2,-2.4,-3.7,-5.4,-4.3,-8.5m-.2,-3c0,-2.6,.5,-5,1.6,-7.3c0,1.2,.2,2.4,.5,3.6c.2,.8,.5,1.6,.8,2.4l-2.9,2.9c0,-.5,0,-1.1,0,-1.6M189,105.9l4.3,4.3l-5,5.1c-.3,-.6,-.5,-1.2,-.6,-1.9c-.6,-2.1,-.7,-4.1,-.2,-5.7c.4,-.6,1,-1.2,1.5,-1.8m19.6,4.9c2.3,2.4,4.1,5,5.3,7.6l-5.4,5.4l-6.4,-6.4Zm-.9,13.7l-5.4,5.4c-2.6,-1.1,-5.2,-2.9,-7.6,-5.2l6.6,-6.6ZM194,123.9c-2.3,-2.3,-4.1,-4.9,-5.3,-7.5l5.4,-5.4l6.4,6.4Zm0,1.6c2.3,2.2,4.9,4,7.5,5.3l-3.2,3.1c-3.2,-.5,-6.1,-2,-8.5,-4.2Zm8.6,5.7c2,.9,4.1,1.4,5.9,1.4c-2.2,1,-4.7,1.6,-7.2,1.6c-.6,0,-1.1,0,-1.6,-.1Zm6,.3v0c-1.6,0,-3.4,-.4,-5.2,-1.1l5.1,-5.1l4.3,4.4c-.6,.5,-1.2,1,-1.9,1.5c-.7,.2,-1.5,.3,-2.3,.3m5,-2.6l-4.4,-4.4l5.1,-5c.2,.6,.4,1.2,.6,1.8c.6,2.2,.6,4.1,.2,5.7c-.5,.7,-1,1.3,-1.5,1.9m-5.8,-18.8l-6.5,6.5l-6.4,-6.4l5.4,-5.4c2.6,1.2,5.2,3,7.5,5.3M200,103.5c-2,-.8,-4.1,-1.3,-6,-1.3c2.3,-1.1,4.7,-1.7,7.3,-1.7c.5,0,1.1,.1,1.6,.1Zm-17.7,13.9c0,5.1,1.9,9.8,5.5,13.4c3.6,3.6,8.4,5.6,13.5,5.6c4.7,0,9.2,-1.7,12.6,-4.8l1,1c-3.7,3.3,-8.5,5.2,-13.6,5.2c-5.5,0,-10.6,-2.2,-14.4,-6c-3.9,-3.9,-6,-9,-6,-14.4c0,-5.1,1.8,-9.9,5.2,-13.7l1,1c-3.1,3.5,-4.8,8,-4.8,12.7Z" class="g9_157"/>
<path d="M32.1,45.1H9.2m958.3,0h22.9M32.1,1331.3H9.2m958.3,0h22.9M45.1,32.1V9.2m0,1335.1v22.9M954.5,32.1V9.2m0,1335.1v22.9" class="ga_157"/>
<path d="M32.1,45.1H9.2m958.3,0h22.9M32.1,1331.3H9.2m958.3,0h22.9M45.1,32.1V9.2m0,1335.1v22.9M954.5,32.1V9.2m0,1335.1v22.9" class="gb_157"/>
<path d="M27.5,32.1H0m972.1,0h27.5M27.5,1344.3H0m972.1,0h27.5M32.1,27.5V0m0,1348.9v27.5M967.5,27.5V0m0,1348.9v27.5" class="ga_157"/>
<path d="M27.5,32.1H0m972.1,0h27.5M27.5,1344.3H0m972.1,0h27.5M32.1,27.5V0m0,1348.9v27.5M967.5,27.5V0m0,1348.9v27.5" class="gb_157"/>
</svg>