<?xml version="1.0" encoding="UTF-8" standalone="no"?>
<!DOCTYPE svg PUBLIC "-//W3C//DTD SVG 1.1//EN"
"http://www.w3.org/Graphics/SVG/1.1/DTD/svg11.dtd">
<svg viewBox="0 0 999 1376" version="1.1" xmlns="http://www.w3.org/2000/svg" xmlns:xlink="http://www.w3.org/1999/xlink">
<defs>
<clipPath id="c0_23"><path d="M32.1,1344.3V32.1H967.5V1344.3Z"/></clipPath>
<style type="text/css"><![CDATA[
.g0_23{
fill: #FFFDEA;
}
.g1_23{
fill: #BCE4EA;
}
.g2_23{
fill: #BCBEC0;
}
.g3_23{
fill: #00AABD;
}
.g4_23{
fill: #FFF;
}
.g5_23{
fill: none;
stroke: #6D6F71;
stroke-width: 0.305;
stroke-miterlimit: 10;
}
.g6_23{
fill: #F1EDF5;
}
.g7_23{
fill: none;
stroke: #976EAF;
stroke-width: 0.763;
stroke-dasharray: 3,3;
}
.g8_23{
fill: none;
stroke: #976EAF;
stroke-width: 0.763;
}
.g9_23{
fill: none;
stroke: #FFF;
stroke-width: 1.909;
stroke-miterlimit: 10;
}
.ga_23{
fill: none;
stroke: #000;
stroke-width: 0.381;
stroke-miterlimit: 10;
}
]]></style>
</defs>
<g clip-path="url(#c0_23)">
<path d="M-877.3,1344.3H967.5V32.1H-877.3V1344.3Z" class="g0_23"/>
<path d="M-877.3,179.3H967.5V32.1H-877.3V179.3Z" class="g1_23"/>
<path d="M967.5,177.2H-877.3v-5.4h736.6c43.1,0,53.1,-37.9,115.3,-37.9H967.5Z" class="g2_23"/>
<path d="M967.5,183.7H-877.3v-9.8h736.6c43.1,0,53.1,-33.6,115.3,-33.6H967.5Z" class="g3_23"/>
</g>
<path d="M201.1,214.1h99.6v39H201.1v-39Zm99.6,0h117v39h-117v-39Zm117,0H867.8V409H417.7V214.1Zm-216.6,39h99.6v39H201.1v-39Zm99.6,0h117v39h-117v-39Zm-99.6,39h99.6v39H201.1v-39Zm99.6,0h117v39h-117v-39Zm-99.6,39h99.6V370H201.1V331.1Zm99.6,0h117V370h-117V331.1ZM201.1,370h99.6v39H201.1V370Zm99.6,0h117v39h-117V370Z" class="g4_23"/>
<path d="M201,214.1h99.7M201.1,253V214.3m99.6,-.2h117M300.7,253V214.3m117,-.2H867.9M417.7,253V214.3m450.1,38.8V214.3M201,253.1h99.7m-99.6,38.8V253.3m99.6,-.2H417.8M300.7,291.9V253.3m117,38.6V253.3m450.1,38.8v-39M201,292.1h99.7m-99.6,38.8V292.2m99.6,-.1H417.8M300.7,330.9V292.2m117,38.7V292.2m450.1,38.9v-39M201,331.1h99.7m-99.6,38.8V331.2m99.6,-.1H417.8M300.7,369.9V331.2m117,38.7V331.2M867.8,370V331.1M201,370h99.7m-99.6,38.9V370.2m99.6,-.2H417.8M300.7,408.9V370.2m117,38.7V370.2m450.1,38.7V370M201,409h99.7m0,0h117m0,0H867.9" class="g5_23"/>
<path d="M201.1,581h43.3V702.3H201.1V581Zm0,121.3h43.3V823.6H201.1V702.3Zm0,121.3h43.3v190.5H201.1V823.6Zm0,190.5h43.3v190.6H201.1V1014.1Z" class="g6_23"/>
<path d="M244.4,581H660.2v43.4H244.4V581Zm415.8,0H764.1v43.4H660.2V581Zm103.9,0h104v43.4h-104V581ZM244.4,624.4H660.2v77.9H244.4V624.4Zm415.8,0H764.1v77.9H660.2V624.4Zm103.9,0h104v77.9h-104V624.4ZM244.4,702.3H660.2v43.3H244.4V702.3Zm415.8,0H764.1v43.3H660.2V702.3Zm103.9,0h104v43.3h-104V702.3ZM244.4,745.6H660.2v78H244.4v-78Zm415.8,0H764.1v78H660.2v-78Zm103.9,0h104v78h-104v-78Zm-519.7,78H660.2v77.9H244.4V823.6Zm415.8,0H764.1v77.9H660.2V823.6Zm103.9,0h104v77.9h-104V823.6ZM244.4,901.5H660.2v112.6H244.4V901.5Zm415.8,0H764.1v112.6H660.2V901.5Zm103.9,0h104v112.6h-104V901.5ZM244.4,1014.1H660.2v78H244.4v-78Zm415.8,0H764.1v78H660.2v-78Zm103.9,0h104v78h-104v-78Zm-519.7,78H660.2v112.6H244.4V1092.1Zm415.8,0H764.1v112.6H660.2V1092.1Zm103.9,0h104v112.6h-104V1092.1Z" class="g4_23"/>
<path d="M201,581h43.4m-43.3,43.4V581.2m43.3,-.2H660.2M244.4,624.2v-43M660.2,581H764.1M660.2,624.2v-43M764.1,581H868.2M764.1,624.2v-43m104,43v-43m-667,121V624.4m43.2,0H660.2M244.4,702.2V624.5m415.8,-.1H764.1M660.2,702.2V624.5m103.9,-.1H868.2M764.1,702.2V624.5m104,77.7V624.5M201,702.3h43.4m-43.3,43.3V702.5m43.3,-.2H660.2M244.4,745.5v-43m415.8,-.2H764.1M660.2,745.5v-43m103.9,-.2H868.2M764.1,745.5v-43m104,43v-43m-667,120.9V745.6m43.2,0H660.2M244.4,823.4V745.8m415.8,-.2H764.1M660.2,823.4V745.8m103.9,-.2H868.2M764.1,823.4V745.8m104,77.6V745.8M201,823.6h43.4m-43.3,77.9V823.7m43.3,-.1H660.2M244.4,901.4V823.7m415.8,-.1H764.1M660.2,901.4V823.7m103.9,-.1H868.2M764.1,901.4V823.7m104,77.7V823.7M201.1,1014V901.5m43.2,0H660.2M244.4,1014V901.7m415.8,-.2H764.1M660.2,1014V901.7m103.9,-.2H868.2M764.1,1014V901.7m104,112.3V901.7M201,1014.1h43.4m-43.3,78v-77.8m43.3,-.2H660.2m-415.8,77.8v-77.6m415.8,-.2H764.1m-103.9,77.8v-77.6m103.9,-.2H868.2m-104.1,77.8v-77.6m104,77.6v-77.6m-667,190.2V1092.1m43.2,0H660.2M244.4,1204.5V1092.2m415.8,-.1H764.1M660.2,1204.5V1092.2m103.9,-.1H868.2M764.1,1204.5V1092.2m104,112.3V1092.2M201,1204.7h43.4m0,0H660.2m0,0H764.1m0,0H868.2" class="g5_23"/>
<path d="M706.2,737c4.8,-1.4,8.5,-5.4,9.5,-10.4m-.3,-6.7c-1.5,-4.8,-5.5,-8.4,-10.5,-9.4m-6.6,.3c-4.8,1.5,-8.5,5.5,-9.5,10.4m.4,6.7c1.4,4.8,5.4,8.5,10.4,9.4" class="g7_23"/>
<path d="M715.9,725.3c0,-.5,.1,-.9,.1,-1.4c0,-.4,-.1,-.9,-.1,-1.3M703.6,710.3c-.4,-.1,-.9,-.1,-1.3,-.1c-.5,0,-.9,0,-1.4,.1m-12.3,12.3c0,.4,0,.9,0,1.3c0,.5,0,.9,0,1.4m12.3,12.2c.5,.1,.9,.1,1.4,.1c.4,0,.9,0,1.3,-.1" class="g8_23"/>
<path d="M716,781.4c4.8,-1.4,8.5,-5.4,9.4,-10.4m-.3,-6.7c-1.4,-4.8,-5.4,-8.4,-10.4,-9.4m-6.7,.3c-4.8,1.4,-8.4,5.5,-9.4,10.4m.3,6.7c1.4,4.8,5.5,8.5,10.4,9.4" class="g7_23"/>
<path d="M725.6,769.6c.1,-.4,.1,-.8,.1,-1.3c0,-.4,0,-.9,-.1,-1.3M713.3,754.7c-.4,-.1,-.8,-.1,-1.3,-.1c-.4,0,-.9,0,-1.3,.1M698.4,767c-.1,.4,-.1,.9,-.1,1.3c0,.5,0,.9,.1,1.3m12.3,12.3c.4,.1,.9,.1,1.3,.1c.5,0,.9,0,1.3,-.1" class="g8_23"/>
<path d="M706.2,1054c4.8,-1.4,8.5,-5.4,9.5,-10.4m-.3,-6.7c-1.5,-4.7,-5.5,-8.4,-10.5,-9.4m-6.6,.3c-4.8,1.5,-8.5,5.5,-9.5,10.4m.4,6.7c1.4,4.8,5.4,8.5,10.4,9.5" class="g7_23"/>
<path d="M715.9,1042.3c0,-.5,.1,-.9,.1,-1.4c0,-.4,-.1,-.9,-.1,-1.3m-12.3,-12.3c-.4,0,-.9,-.1,-1.3,-.1c-.5,0,-.9,.1,-1.4,.1m-12.3,12.3c0,.4,0,.9,0,1.3c0,.5,0,.9,0,1.4m12.3,12.3c.5,0,.9,0,1.4,0c.4,0,.9,0,1.3,0" class="g8_23"/>
<path d="M716,1131.1c4.8,-1.4,8.5,-5.4,9.4,-10.4m-.3,-6.7c-1.4,-4.8,-5.4,-8.4,-10.4,-9.4m-6.7,.3c-4.8,1.5,-8.4,5.5,-9.4,10.4m.3,6.7c1.4,4.8,5.5,8.5,10.4,9.4" class="g7_23"/>
<path d="M725.6,1119.4c.1,-.5,.1,-.9,.1,-1.4c0,-.4,0,-.9,-.1,-1.3m-12.3,-12.3c-.4,-.1,-.8,-.1,-1.3,-.1c-.4,0,-.9,0,-1.3,.1m-12.3,12.3c-.1,.4,-.1,.9,-.1,1.3c0,.5,0,.9,.1,1.4m12.3,12.2c.4,.1,.9,.1,1.3,.1c.5,0,.9,0,1.3,-.1" class="g8_23"/>
<path d="M32.1,45.1H9.2m958.3,0h22.9M32.1,1331.3H9.2m958.3,0h22.9M45.1,32.1V9.2m0,1335.1v22.9M954.5,32.1V9.2m0,1335.1v22.9" class="g9_23"/>
<path d="M32.1,45.1H9.2m958.3,0h22.9M32.1,1331.3H9.2m958.3,0h22.9M45.1,32.1V9.2m0,1335.1v22.9M954.5,32.1V9.2m0,1335.1v22.9" class="ga_23"/>
<path d="M27.5,32.1H0m972.1,0h27.5M27.5,1344.3H0m972.1,0h27.5M32.1,27.5V0m0,1348.9v27.5M967.5,27.5V0m0,1348.9v27.5" class="g9_23"/>
<path d="M27.5,32.1H0m972.1,0h27.5M27.5,1344.3H0m972.1,0h27.5M32.1,27.5V0m0,1348.9v27.5M967.5,27.5V0m0,1348.9v27.5" class="ga_23"/>
</svg>