<?xml version="1.0" encoding="UTF-8" standalone="no"?>
<!DOCTYPE svg PUBLIC "-//W3C//DTD SVG 1.1//EN"
"http://www.w3.org/Graphics/SVG/1.1/DTD/svg11.dtd">
<svg viewBox="0 0 999 1376" version="1.1" xmlns="http://www.w3.org/2000/svg" xmlns:xlink="http://www.w3.org/1999/xlink">
<defs>
<clipPath id="c0_200"><path d="M211.8,1085.3v-84.1h86.6v84.1Z"/></clipPath>
<clipPath id="c1_200"><path d="M213.5,1081.6V1015H290v66.6Z"/></clipPath>
<clipPath id="c2_200"><path d="M561.4,1077.1v-66.5H628v66.5Z"/></clipPath>
<clipPath id="c3_200"><path d="M557.6,1148v-61.9h61.2V1148Z"/></clipPath>
<clipPath id="c4_200"><path d="M261.6,984.7V911.1H365.5v73.6Z"/></clipPath>
<clipPath id="c5_200"><path d="M233,1158.7v-67.3h36.7v67.3Z"/></clipPath>
<clipPath id="c6_200"><path d="M176.6,809l-6.5,-2.1L153.7,793V735.9h72V809Z"/></clipPath>
<clipPath id="c7_200"><path d="M178.4,137.2c.1,-1.3,.7,-2.5,1.6,-3.4c1,-1,2.4,-1.6,3.9,-1.6h19.2v5Z"/></clipPath>
<clipPath id="c8_200"><path d="M177.9,137.7v-6h25.7v6Z"/></clipPath>
<style type="text/css"><![CDATA[
.g0_200{
fill: #DEF1F3;
}
.g1_200{
fill: #9BD1EA;
}
.g2_200{
fill: #FFF;
}
.g3_200{
fill: none;
stroke: #58595B;
stroke-width: 0.381;
stroke-miterlimit: 10;
}
.g4_200{
fill: none;
stroke: #6381B7;
stroke-width: 0.763;
}
.g5_200{
fill: #48484A;
}
.g6_200{
fill: none;
stroke: #FCE8B0;
stroke-width: 0.152;
}
.g7_200{
fill: #F0E8F3;
}
.g8_200{
fill: #766FA6;
}
.g9_200{
fill: #E7D6B2;
}
.ga_200{
fill: none;
stroke: #231F20;
stroke-width: 0.458;
stroke-miterlimit: 10;
}
.gb_200{
fill: none;
stroke: #231F20;
stroke-width: 0.42;
stroke-miterlimit: 10;
}
.gc_200{
fill: #6381B7;
}
.gd_200{
fill: none;
stroke: #6381B7;
stroke-width: 0.152;
stroke-dasharray: 1,1;
}
.ge_200{
fill: none;
stroke: #6381B7;
stroke-width: 0.152;
}
.gf_200{
fill: #FCE8B0;
}
.gg_200{
fill: #25408F;
}
.gh_200{
fill: none;
stroke: #231F20;
stroke-width: 1.527;
}
.gi_200{
fill: #39B4D1;
stroke: #2D2A4A;
stroke-width: 1.038;
stroke-linecap: round;
stroke-linejoin: round;
}
.gj_200{
fill: #2D2A4A;
}
.gk_200{
fill: none;
stroke: #2D2A4A;
stroke-width: 1.038;
stroke-linecap: round;
stroke-linejoin: round;
}
.gl_200{
fill: #DEDAD3;
}
.gm_200{
fill: #29263F;
}
.gn_200{
fill: #E15F46;
stroke: #2D2A4A;
stroke-width: 1.038;
stroke-linecap: round;
stroke-linejoin: round;
}
.go_200{
fill: #FDF9EC;
}
.gp_200{
fill: none;
stroke: #F89C47;
stroke-width: 1.527;
stroke-linecap: round;
stroke-linejoin: round;
stroke-dasharray: 0,5;
}
.gq_200{
fill: none;
stroke: #F89C47;
stroke-width: 1.527;
stroke-linecap: round;
stroke-linejoin: round;
}
.gr_200{
fill: none;
stroke: #F89C47;
stroke-width: 7.638;
stroke-linecap: round;
stroke-linejoin: round;
}
.gs_200{
fill: none;
stroke: #FFF;
stroke-width: 1.909;
stroke-miterlimit: 10;
}
.gt_200{
fill: none;
stroke: #000;
stroke-width: 0.381;
stroke-miterlimit: 10;
}
]]></style>
</defs>
<path d="M149,166.3c0,0,-17.3,0,-17.3,17.4V452.2c0,0,0,17.3,17.3,17.3H828.9c0,0,17.4,0,17.4,-17.3V183.7c0,0,0,-17.4,-17.4,-17.4Z" class="g0_200"/>
<path d="M172.8,262.4H389.3v26H172.8v-26Zm216.5,0H631.9v26H389.3v-26Zm242.6,0H805.1v26H631.9v-26Z" class="g1_200"/>
<path d="M172.8,288.4H389.3v53.5H172.8V288.4Zm216.5,0H631.9v53.5H389.3V288.4Zm242.6,0H805.1v53.5H631.9V288.4Z" class="g2_200"/>
<path d="M172.8,262.4H389.3m0,0H631.9M389.3,288.2V262.6m242.6,-.2H805.1M631.9,288.2V262.6M172.8,288.4H389.3m0,0H631.9M389.3,341.7V288.6m242.6,-.2H805.1M631.9,341.7V288.6M172.8,341.9H389.3m0,0H631.9m0,0H805.1" class="g3_200"/>
<path d="M145.1,823.3c0,0,-13,0,-13,12.9v327.1c0,0,0,12.9,13,12.9H834.5c0,0,13,0,13,-12.9V836.2c0,0,0,-12.9,-13,-12.9Z" class="g2_200"/>
<path d="M145.1,823.3c0,0,-13,0,-13,12.9v327.1c0,0,0,12.9,13,12.9H834.5c0,0,13,0,13,-12.9V836.2c0,0,0,-12.9,-13,-12.9H145.1Z" class="g4_200"/>
<path d="M173.6,914.2c0,0,-4.4,0,-4.4,4.3v14.8c0,0,0,4.3,4.1,5.7l52.5,18.6c0,0,4.1,1.4,4.1,-2.9V918.5c0,0,0,-4.3,-4.4,-4.3Z" class="g5_200"/>
<path d="M173.6,914.2c0,0,-4.4,0,-4.4,4.3v14.8c0,0,0,4.3,4.1,5.7l52.5,18.6c0,0,4.1,1.4,4.1,-2.9V918.5c0,0,0,-4.3,-4.4,-4.3H173.6Z" class="g6_200"/>
<path d="M194.7,901.2c0,0,-13,0,-13,13V979c0,0,0,13,13,13H800.1c0,0,13,0,13,-13V914.2c0,0,0,-13,-13,-13Z" class="g7_200"/>
<path d="M194.7,901.2c0,0,-13,0,-13,13V979c0,0,0,13,13,13H800.1c0,0,13,0,13,-13V914.2c0,0,0,-13,-13,-13H194.7Z" class="g6_200"/>
<path d="M173.6,911.2c0,0,-4.4,0,-4.4,4.3v17.4c0,0,0,4.3,4.4,4.3h37.2c0,0,4.4,0,4.4,-4.3V915.5c0,0,0,-4.3,-4.4,-4.3Z" class="g8_200"/>
<path d="M173.6,911.2c0,0,-4.4,0,-4.4,4.3v17.4c0,0,0,4.3,4.4,4.3h37.2c0,0,4.4,0,4.4,-4.3V915.5c0,0,0,-4.3,-4.4,-4.3H173.6Z" class="g6_200"/>
<path d="M211.8,1085.3h86.6v-84.1H211.8v84.1Z" class="g2_200"/>
<path clip-path="url(#c0_200)" d="M202.7,918.3c0,0,-5.2,0,-5.2,5.3v71.9c0,0,0,5.2,5.2,5.2H715.3c0,0,5.3,0,5.3,-5.2V923.6c0,0,0,-5.3,-5.3,-5.3H202.7Z" class="g9_200"/>
<image clip-path="url(#c1_200)" preserveAspectRatio="none" x="213" y="1014" width="77" height="69" xlink:href="img/1.jpg"/>
<path d="M558.3,1077.6H631v-67.5H558.3v67.5Z" class="g2_200"/>
<image clip-path="url(#c2_200)" preserveAspectRatio="none" x="561" y="1011" width="67" height="66" xlink:href="img/2.jpg"/>
<path d="M558.3,1147.3h62.8v-62H558.3v62Z" class="g2_200"/>
<image clip-path="url(#c3_200)" preserveAspectRatio="none" x="552" y="1086" width="67" height="67" xlink:href="img/3.jpg"/>
<path d="M177.2,889H826.8V864H177.2v25Z" class="g2_200"/>
<path d="M446.8,954.8h13.1" class="ga_200"/>
<path d="M371.9,1054.3H508.3M357.2,1131H493.7m198.2,-76.7H813.7M677.3,1131H813.7" class="gb_200"/>
<image clip-path="url(#c4_200)" preserveAspectRatio="none" x="260" y="909" width="107" height="78" xlink:href="img/4.jpg"/>
<path d="M418.6,1198.8c0,0,-4.3,0,-4.3,4.4V1214c0,0,0,4.3,4.3,4.3h30.3c0,0,4.4,0,4.4,-4.3v-10.8c0,0,0,-4.4,-4.4,-4.4Z" class="gc_200"/>
<path d="M405.6,1188.9v39.4m.3,.2h440m.2,-.3v-39.4m-.3,-.1h-440" class="gd_200"/>
<path d="M405.6,1228.4v.1h.1m440.3,0h.1v-.1m0,-39.6v-.1H846m-440.3,0h-.1v.1" class="ge_200"/>
<path d="M233.2,1163.3h36.4v-73.6H233.2v73.6Z" class="g2_200"/>
<image clip-path="url(#c5_200)" preserveAspectRatio="none" x="215" y="1090" width="79" height="69" xlink:href="img/5.jpg"/>
<path d="M209.2,764.1c0,0,-13,0,-13,12.9v21.7c0,0,0,13,13,13H830.8c0,0,13,0,13,-13V777c0,0,0,-12.9,-13,-12.9Z" class="gf_200"/>
<image clip-path="url(#c6_200)" preserveAspectRatio="none" x="152" y="734" width="75" height="77" xlink:href="img/6.png"/>
<path d="M204,804.3c0,0,-26.8,11.3,-51.1,-12.7c0,0,15.2,25.3,49.3,23.9c0,0,24.8,.4,20.3,-10.1c0,0,1.2,-4.4,-18.5,-1.1Z" class="gf_200"/>
<path d="M131.7,109.5v39l11.7,10.2V136.5Z" class="gg_200"/>
<path d="M131.7,109.5v39H829.5c0,0,16.8,0,16.8,-16.8v-5.4c0,0,0,-16.8,-16.8,-16.8Z" class="gc_200"/>
<path d="M768.8,131c0,0,-.5,-10,8.6,-9.4c0,0,6.7,-.3,6.6,9.5m-15.3,-1.5v6.5c0,0,-3.3,.3,-3.9,-3c0,0,-.1,-3.8,3.9,-3.5Zm15.4,0v6.5c0,0,3.3,.3,3.9,-3c0,0,.1,-3.8,-3.9,-3.5Z" class="gh_200"/>
<path d="M147.4,140.8h61v-32h-61v32Z" class="gi_200"/>
<path d="M147.4,143.1h61v-2.3h-61v2.3Z" class="gi_200"/>
<path d="M171.8,106.2H152.1v31.5h25.8V112.3c0,-3.4,-2.7,-6.1,-6.1,-6.1Z" class="g2_200"/>
<path d="M171.8,106.2v-.5H152.1c-.1,0,-.3,.1,-.4,.2c-.1,.1,-.1,.2,-.1,.3v31.5c0,.1,0,.3,.1,.4c.1,.1,.3,.1,.4,.1h25.8c.1,0,.2,0,.3,-.1c.1,-.1,.2,-.3,.2,-.4V112.3c0,-3.7,-2.9,-6.6,-6.6,-6.6v1c1.6,0,2.9,.7,3.9,1.7c1,1,1.6,2.3,1.6,3.9v24.9H152.6V106.7h19.2Z" class="gj_200"/>
<path d="M152.1,131.7v6h25.8c0,-3.3,-2.7,-6,-6.1,-6Z" class="g2_200"/>
<path d="M152.1,131.7h-.5v6c0,.1,0,.3,.1,.4c.1,.1,.3,.1,.4,.1h25.8c.1,0,.2,0,.3,-.1c.1,-.1,.2,-.3,.2,-.4c0,-3.6,-3,-6.6,-6.6,-6.6H152.1c-.1,0,-.3,.1,-.4,.2c-.1,.1,-.1,.2,-.1,.4h.5v.5h19.7c1.6,0,2.9,.6,3.9,1.6c1,1,1.6,2.4,1.6,3.9h.6v-.5H152.6v-5.5h-.5v.5Z" class="gj_200"/>
<path d="M155.6,110.9h17.2m-17.2,2.8h17.2m-17.2,2.9h17.2m-17.2,2.9h17.2m-17.2,2.8h17.2m-17.2,2.9h17.2M155.6,128h17.2" class="gk_200"/>
<path d="M171.8,132.2H152.6v5h24.7c-.1,-1.3,-.7,-2.5,-1.6,-3.4c-1,-1,-2.3,-1.6,-3.9,-1.6Z" class="gl_200"/>
<path d="M152.6,132.2h19.2c1.6,0,2.9,.6,3.9,1.6c.9,.9,1.5,2.1,1.6,3.4H152.6Zm19.2,-.5H152.1v6h25.2v-2.5c-.9,-2.1,-3,-3.5,-5.5,-3.5Z" class="gm_200"/>
<path d="M183.9,106.2h19.7v31.5H177.9V112.3c0,-3.4,2.7,-6.1,6,-6.1Z" class="g2_200"/>
<path d="M183.9,106.2v.5h19.2v30.5H178.4V112.3c0,-1.6,.6,-2.9,1.6,-3.9c1,-1,2.4,-1.7,3.9,-1.7v-1c-3.6,0,-6.6,2.9,-6.6,6.6v25.4c0,.1,.1,.3,.2,.4c.1,.1,.2,.1,.4,.1h25.7c.2,0,.3,0,.4,-.1c.1,-.1,.1,-.3,.1,-.4V106.2c0,-.1,0,-.2,-.1,-.3c-.1,-.1,-.2,-.2,-.4,-.2H183.9Z" class="gj_200"/>
<path d="M203.6,131.7v6H177.9c0,-3.3,2.7,-6,6,-6Z" class="g2_200"/>
<path d="M203.6,131.7h-.5v5.5H177.9v.5h.5c0,-1.5,.6,-2.9,1.6,-3.9c1,-1,2.4,-1.6,3.9,-1.6h19.7v-.5h-.5h.5v-.6H183.9c-3.6,0,-6.6,3,-6.6,6.6c0,.1,.1,.3,.2,.4c.1,.1,.2,.1,.4,.1h25.7c.2,0,.3,0,.4,-.1c.1,-.1,.1,-.3,.1,-.4v-6c0,-.2,0,-.3,-.1,-.4c-.1,-.1,-.2,-.2,-.4,-.2Z" class="gj_200"/>
<path d="M200.1,110.9H182.9m17.2,2.8H182.9m17.2,2.9H182.9m17.2,2.9H182.9m17.2,2.8H182.9m17.2,2.9H182.9m17.2,2.8H182.9" class="gk_200"/>
<path clip-path="url(#c7_200)" d="M178.4,137.2h24.7v-5H178.4v5Z" class="gl_200"/>
<path clip-path="url(#c8_200)" d="M178.4,137.2c.1,-1.3,.7,-2.5,1.6,-3.4c1,-1,2.4,-1.6,3.9,-1.6h19.2v5Zm25.2,-5.5H183.9c-3.3,0,-6,2.7,-6,6h25.7v-6h-.5h.5Z" class="gm_200"/>
<path d="M177.9,108.8v34.3" class="gk_200"/>
<path d="M195.5,145.5h3.3V134.7h-3.3v10.8Z" class="gn_200"/>
<path d="M149.8,476.9c0,0,-17.3,0,-17.3,17.3V683.5c0,0,0,17.3,17.3,17.3H828.2c0,0,17.3,0,17.3,-17.3V494.2c0,0,0,-17.3,-17.3,-17.3Z" class="go_200"/>
<path d="M145.3,477.5c-4.8,1.2,-11.8,4.7,-12.7,14.4m-.1,6.9V681.2m.6,6.8c1.2,4.8,4.6,11.8,14.4,12.7m6.9,.1H825.9m6.8,-.6c4.8,-1.2,11.7,-4.6,12.7,-14.4m.1,-6.9V496.5m-.7,-6.8c-1.2,-4.8,-4.6,-11.8,-14.3,-12.7m-6.9,-.1H152.1" class="gp_200"/>
<path d="M132.5,494.2v0m0,189.3v0m17.3,17.3v0m678.4,0v0m17.3,-17.3v0m0,-189.3v0M828.2,476.9v0m-678.4,0v0" class="gq_200"/>
<path d="M166.4,464.6V483M179,464.6V483M798.6,464.6V483m12.6,-18.4V483" class="gr_200"/>
<path d="M32.1,45.1H9.2m958.3,0h22.9M32.1,1331.3H9.2m958.3,0h22.9M45.1,32.1V9.2m0,1335.1v22.9M954.5,32.1V9.2m0,1335.1v22.9" class="gs_200"/>
<path d="M32.1,45.1H9.2m958.3,0h22.9M32.1,1331.3H9.2m958.3,0h22.9M45.1,32.1V9.2m0,1335.1v22.9M954.5,32.1V9.2m0,1335.1v22.9" class="gt_200"/>
<path d="M27.5,32.1H0m972.1,0h27.5M27.5,1344.3H0m972.1,0h27.5M32.1,27.5V0m0,1348.9v27.5M967.5,27.5V0m0,1348.9v27.5" class="gs_200"/>
<path d="M27.5,32.1H0m972.1,0h27.5M27.5,1344.3H0m972.1,0h27.5M32.1,27.5V0m0,1348.9v27.5M967.5,27.5V0m0,1348.9v27.5" class="gt_200"/>
</svg>