<?xml version="1.0" encoding="UTF-8" standalone="no"?>
<!DOCTYPE svg PUBLIC "-//W3C//DTD SVG 1.1//EN"
"http://www.w3.org/Graphics/SVG/1.1/DTD/svg11.dtd">
<svg viewBox="0 0 999 1376" version="1.1" xmlns="http://www.w3.org/2000/svg" xmlns:xlink="http://www.w3.org/1999/xlink">
<defs>
<clipPath id="c0_190"><path d="M168.2,367.6V242.2H303.3V367.6Z"/></clipPath>
<clipPath id="c1_190"><path d="M346.1,365.9V242.2H472.4V365.9Z"/></clipPath>
<clipPath id="c2_190"><path d="M511,367.6V242.2H637.2V367.6Z"/></clipPath>
<clipPath id="c3_190"><path d="M674,367.6V242.2H813.5V367.6Z"/></clipPath>
<clipPath id="c4_190"><path d="M168.6,557.7V435.1H308.1V557.7Z"/></clipPath>
<clipPath id="c5_190"><path d="M336.2,557.7V432.3H475.6V557.7Z"/></clipPath>
<clipPath id="c6_190"><path d="M500.1,557.7V432.3H648.7V557.7Z"/></clipPath>
<clipPath id="c7_190"><path d="M671,557.7V432.3H810.4V557.7Z"/></clipPath>
<clipPath id="c8_190"><path d="M179.6,747.7V622.4H312.3V747.7Z"/></clipPath>
<clipPath id="c9_190"><path d="M345.7,745.6V622.4H471.1V745.6Z"/></clipPath>
<clipPath id="ca_190"><path d="M504.4,747.7V622.4H643.9V747.7Z"/></clipPath>
<clipPath id="cb_190"><path d="M238.1,1029.4V964.5h64.4v64.9Z"/></clipPath>
<clipPath id="cc_190"><path d="M388.8,1029.8V966.1h65v63.7Z"/></clipPath>
<clipPath id="cd_190"><path d="M560.1,1040.9V968.2h54.5v72.7Z"/></clipPath>
<clipPath id="ce_190"><path d="M714.2,1038V970.7H799V1038Z"/></clipPath>
<clipPath id="cf_190"><path d="M176.6,227l-6.5,-2.1l-16.4,-14v-57h72V227Z"/></clipPath>
<clipPath id="cg_190"><path d="M176.6,889.1L170.1,887L153.7,873.1V816h72v73.1Z"/></clipPath>
<style type="text/css"><![CDATA[
.g0_190{
fill: #FEFCF4;
}
.g1_190{
fill: #FFF;
}
.g2_190{
fill: none;
stroke: #6381B7;
stroke-width: 0.763;
}
.g3_190{
fill: none;
stroke: #949698;
stroke-width: 1.344;
}
.g4_190{
fill: #ABB2C9;
}
.g5_190{
fill: #EFE9CC;
}
.g6_190{
fill: #6381B7;
}
.g7_190{
fill: none;
stroke: #6381B7;
stroke-width: 0.381;
stroke-dasharray: 2,1;
}
.g8_190{
fill: none;
stroke: #6381B7;
stroke-width: 0.381;
}
.g9_190{
fill: #FCE8B0;
}
.ga_190{
fill: #25408F;
}
.gb_190{
fill: #00BAF1;
}
.gc_190{
fill: #332D2C;
}
.gd_190{
fill: #D9DFF0;
}
.ge_190{
fill: #F27C85;
}
.gf_190{
fill: #7DD3F6;
}
.gg_190{
fill: none;
stroke: #FFF;
stroke-width: 1.909;
stroke-miterlimit: 10;
}
.gh_190{
fill: none;
stroke: #000;
stroke-width: 0.381;
stroke-miterlimit: 10;
}
]]></style>
</defs>
<path d="M32.1,1344.3H954.5V32.1H32.1V1344.3Z" class="g0_190"/>
<path d="M150.4,134.2c0,0,-18.3,0,-18.3,18.3V786.2c0,0,0,18.3,18.3,18.3H827.5c0,0,18.4,0,18.4,-18.3v-652Z" class="g1_190"/>
<path d="M150.4,134.2c0,0,-18.3,0,-18.3,18.3V786.2c0,0,0,18.3,18.3,18.3H827.5c0,0,18.4,0,18.4,-18.3v-652H150.4Z" class="g2_190"/>
<image clip-path="url(#c0_190)" preserveAspectRatio="none" x="168" y="242" width="136" height="126" xlink:href="img/1.jpg"/>
<path d="M168.2,367.6H316.8V242.2H168.2V367.6Z" class="g3_190"/>
<image clip-path="url(#c1_190)" preserveAspectRatio="none" x="346" y="241" width="126" height="125" xlink:href="img/2.jpg"/>
<path d="M334.2,367.6H482.8V242.2H334.2V367.6Z" class="g3_190"/>
<image clip-path="url(#c2_190)" preserveAspectRatio="none" x="511" y="242" width="126" height="126" xlink:href="img/3.jpg"/>
<path d="M500.1,367.6H648.7V242.2H500.1V367.6Z" class="g3_190"/>
<image clip-path="url(#c3_190)" preserveAspectRatio="none" x="674" y="241" width="139" height="128" xlink:href="img/4.jpg"/>
<path d="M666.1,367.6H814.7V242.2H666.1V367.6Z" class="g3_190"/>
<image clip-path="url(#c4_190)" preserveAspectRatio="none" x="169" y="435" width="139" height="124" xlink:href="img/5.jpg"/>
<path d="M168.2,557.7H316.8V432.3H168.2V557.7Z" class="g3_190"/>
<image clip-path="url(#c5_190)" preserveAspectRatio="none" x="336" y="431" width="140" height="127" xlink:href="img/6.jpg"/>
<path d="M334.2,557.7H482.8V432.3H334.2V557.7Z" class="g3_190"/>
<image clip-path="url(#c6_190)" preserveAspectRatio="none" x="499" y="431" width="151" height="128" xlink:href="img/7.jpg"/>
<path d="M500.1,557.7H648.7V432.3H500.1V557.7Z" class="g3_190"/>
<image clip-path="url(#c7_190)" preserveAspectRatio="none" x="671" y="431" width="139" height="128" xlink:href="img/8.jpg"/>
<path d="M666.1,557.7H814.7V432.3H666.1V557.7Z" class="g3_190"/>
<image clip-path="url(#c8_190)" preserveAspectRatio="none" x="180" y="621" width="132" height="127" xlink:href="img/9.jpg"/>
<path d="M168.2,747.7H316.8V622.4H168.2V747.7Z" class="g3_190"/>
<image clip-path="url(#c9_190)" preserveAspectRatio="none" x="346" y="621" width="125" height="125" xlink:href="img/10.jpg"/>
<path d="M334.2,747.7H482.8V622.4H334.2V747.7Z" class="g3_190"/>
<image clip-path="url(#ca_190)" preserveAspectRatio="none" x="504" y="621" width="140" height="128" xlink:href="img/11.jpg"/>
<path d="M500.1,747.7H648.7V622.4H500.1V747.7Z" class="g3_190"/>
<path d="M168.5,411.6H818.1v-39H168.5v39Z" class="g1_190"/>
<path d="M168.5,602.1H818.1v-39H168.5v39Z" class="g1_190"/>
<path d="M181.5,792.1H669.8v-39H181.5v39Z" class="g1_190"/>
<path d="M144.8,900.8c0,0,-13,0,-13,13v267.7c0,0,0,13,13,13H834c0,0,13,0,13,-13V913.8c0,0,0,-13,-13,-13Z" class="g1_190"/>
<path d="M144.8,900.8c0,0,-13,0,-13,13v267.7c0,0,0,13,13,13H834c0,0,13,0,13,-13V913.8c0,0,0,-13,-13,-13H144.8Z" class="g2_190"/>
<path d="M238.1,1032.2h73.6V956.5H238.1v75.7Z" class="g1_190"/>
<image clip-path="url(#cb_190)" preserveAspectRatio="none" x="233" y="964" width="70" height="66" xlink:href="img/12.jpg"/>
<path d="M387.2,1032.5h86.6V961.6H387.2v70.9Z" class="g1_190"/>
<image clip-path="url(#cc_190)" preserveAspectRatio="none" x="389" y="965" width="65" height="65" xlink:href="img/13.jpg"/>
<path d="M553.5,1042.9h78v-81h-78v81Z" class="g1_190"/>
<image clip-path="url(#cd_190)" preserveAspectRatio="none" x="559" y="967" width="57" height="75" xlink:href="img/14.jpg"/>
<path d="M714.7,1037.6h86.6V971.4H714.7v66.2Z" class="g1_190"/>
<image clip-path="url(#ce_190)" preserveAspectRatio="none" x="714" y="970" width="84" height="76" xlink:href="img/15.jpg"/>
<path d="M274.2,1060c2,0,3.6,-1.6,3.6,-3.6c0,-2,-1.6,-3.6,-3.6,-3.6c-2,0,-3.6,1.6,-3.6,3.6c0,2,1.6,3.6,3.6,3.6Z" class="g4_190"/>
<path d="M592.5,1060c2,0,3.7,-1.6,3.7,-3.6c0,-2,-1.7,-3.6,-3.7,-3.6c-1.9,0,-3.6,1.6,-3.6,3.6c0,2,1.7,3.6,3.6,3.6Z" class="g4_190"/>
<path d="M429.4,1060c2,0,3.6,-1.6,3.6,-3.6c0,-2,-1.6,-3.6,-3.6,-3.6c-2,0,-3.6,1.6,-3.6,3.6c0,2,1.6,3.6,3.6,3.6Z" class="g4_190"/>
<path d="M757.8,1060c2,0,3.6,-1.6,3.6,-3.6c0,-2,-1.6,-3.6,-3.6,-3.6c-2,0,-3.6,1.6,-3.6,3.6c0,2,1.6,3.6,3.6,3.6Z" class="g4_190"/>
<path d="M274.2,1136.9c2,0,3.6,-1.6,3.6,-3.6c0,-2,-1.6,-3.6,-3.6,-3.6c-2,0,-3.6,1.6,-3.6,3.6c0,2,1.6,3.6,3.6,3.6Z" class="g4_190"/>
<path d="M592.5,1136.9c2,0,3.7,-1.6,3.7,-3.6c0,-2,-1.7,-3.6,-3.7,-3.6c-1.9,0,-3.6,1.6,-3.6,3.6c0,2,1.7,3.6,3.6,3.6Z" class="g4_190"/>
<path d="M429.4,1136.9c2,0,3.6,-1.6,3.6,-3.6c0,-2,-1.6,-3.6,-3.6,-3.6c-2,0,-3.6,1.6,-3.6,3.6c0,2,1.6,3.6,3.6,3.6Z" class="g4_190"/>
<path d="M757.8,1136.9c2,0,3.6,-1.6,3.6,-3.6c0,-2,-1.6,-3.6,-3.6,-3.6c-2,0,-3.6,1.6,-3.6,3.6c0,2,1.6,3.6,3.6,3.6Z" class="g4_190"/>
<path d="M233.1,1146.3c0,0,-8.7,0,-8.7,8.7v15.1c0,0,0,8.7,8.7,8.7h69.3c0,0,8.7,0,8.7,-8.7V1155c0,0,0,-8.7,-8.7,-8.7Z" class="g5_190"/>
<path d="M558.5,1146.3c0,0,-8.6,0,-8.6,8.7v15.1c0,0,0,8.7,8.6,8.7h69.3c0,0,8.7,0,8.7,-8.7V1155c0,0,0,-8.7,-8.7,-8.7Z" class="g5_190"/>
<path d="M395.8,1146.3c0,0,-8.6,0,-8.6,8.7v15.1c0,0,0,8.7,8.6,8.7h69.3c0,0,8.7,0,8.7,-8.7V1155c0,0,0,-8.7,-8.7,-8.7Z" class="g5_190"/>
<path d="M721.2,1146.3c0,0,-8.6,0,-8.6,8.7v15.1c0,0,0,8.7,8.6,8.7h69.3c0,0,8.7,0,8.7,-8.7V1155c0,0,0,-8.7,-8.7,-8.7Z" class="g5_190"/>
<path d="M638.8,1212.7c0,0,-4.4,0,-4.4,4.3v10.8c0,0,0,4.3,4.4,4.3h30.3c0,0,4.3,0,4.3,-4.3V1217c0,0,0,-4.3,-4.3,-4.3Z" class="g6_190"/>
<path d="M625.6,1203.8v37.6m1.3,.9H845.1m1,-1.3v-37.6m-1.4,-.9H626.5" class="g7_190"/>
<path d="M625.6,1241.8v.5h.6m219.3,0h.6v-.5m0,-38.7v-.6h-.6m-219.3,0h-.6v.6" class="g8_190"/>
<path d="M209.2,182c0,0,-13,0,-13,13v21.6c0,0,0,13,13,13h602c0,0,13,0,13,-13V195c0,0,0,-13,-13,-13Z" class="g9_190"/>
<image clip-path="url(#cf_190)" preserveAspectRatio="none" x="152" y="152" width="75" height="77" xlink:href="img/16.png"/>
<path d="M204,222.3c0,0,-26.8,11.3,-51.1,-12.8c0,0,15.2,25.3,49.3,24c0,0,24.8,.3,20.3,-10.1c0,0,1.2,-4.5,-18.5,-1.1Z" class="g9_190"/>
<path d="M209.2,844.1c0,0,-13,0,-13,13v21.7c0,0,0,13,13,13H833.3c0,0,13,0,13,-13V857.1c0,0,0,-13,-13,-13Z" class="g9_190"/>
<image clip-path="url(#cg_190)" preserveAspectRatio="none" x="152" y="814" width="75" height="77" xlink:href="img/17.png"/>
<path d="M204,884.4c0,0,-26.8,11.3,-51.1,-12.8c0,0,15.2,25.4,49.3,24c0,0,24.8,.4,20.3,-10.1c0,0,1.2,-4.5,-18.5,-1.1Z" class="g9_190"/>
<path d="M131.7,126.7v22.2l11.7,10.3V137Z" class="ga_190"/>
<path d="M131.7,109.9v39H829.4c0,0,16.9,0,16.9,-16.8v-5.4c0,0,0,-16.8,-16.9,-16.8Z" class="g6_190"/>
<path d="M189.6,121.3l-6.4,-6.5L162,136l6.4,6.5Z" class="gb_190"/>
<path d="M168.4,143c.2,0,.3,0,.4,-.1L190,121.7c.1,-.1,.2,-.3,.2,-.4c0,-.1,-.1,-.3,-.2,-.4l-6.5,-6.4c-.2,-.2,-.5,-.2,-.7,0l-21.2,21.2c-.1,.1,-.2,.2,-.2,.3c0,.2,.1,.3,.2,.4l6.5,6.5c.1,.1,.2,.1,.3,.1m20.5,-21.7l-20.5,20.5L162.7,136l20.5,-20.4Z" class="gc_190"/>
<path d="M189.6,121.3l-6.4,-6.5l2.1,-2.1l6.5,6.5Z" class="gd_190"/>
<path d="M189.6,121.8c.2,0,.3,0,.4,-.1l2.1,-2.1c.1,-.1,.2,-.3,.2,-.4c0,-.2,-.1,-.3,-.2,-.4l-6.4,-6.5c-.2,-.2,-.6,-.2,-.8,0l-2.1,2.2c-.1,0,-.2,.2,-.2,.3c0,.2,.1,.3,.2,.4l6.5,6.5c.1,.1,.2,.1,.3,.1m1.4,-2.6l-1.4,1.4l-5.7,-5.8l1.4,-1.4Z" class="gc_190"/>
<path d="M195.4,115.6l-6.5,-6.5l-3.6,3.6l6.5,6.5Z" class="ge_190"/>
<path d="M191.8,119.7c.1,0,.2,0,.3,-.1l3.7,-3.7c.2,-.2,.2,-.5,0,-.7l-6.5,-6.5c-.2,-.2,-.6,-.2,-.8,0l-3.6,3.6c-.2,.2,-.2,.6,0,.8l6.5,6.5c.1,.1,.2,.1,.4,.1m2.8,-4.1l-2.8,2.8L186,112.7l2.9,-2.9Z" class="gc_190"/>
<path d="M157.3,147.2L162,136l6.4,6.5Z" class="g1_190"/>
<path d="M157.3,147.7c.1,0,.2,0,.2,-.1L168.6,143c.2,-.1,.3,-.2,.4,-.4c0,-.2,-.1,-.3,-.2,-.5l-6.5,-6.4c-.1,-.2,-.3,-.2,-.5,-.2c-.1,.1,-.3,.2,-.3,.3l-4.7,11.1c0,.2,0,.5,.1,.6c.1,.1,.3,.2,.4,.2m10.2,-5.4l-9.2,3.9l3.8,-9.2Z" class="gc_190"/>
<path d="M157.3,147.2l2.3,-5.4l3.1,3.1Z" class="gc_190"/>
<path d="M157.3,147.7c.1,0,.2,0,.2,-.1l5.4,-2.2c.1,-.1,.3,-.2,.3,-.4c0,-.2,0,-.3,-.1,-.5l-3.2,-3.1c-.1,-.1,-.3,-.2,-.4,-.1c-.2,0,-.4,.1,-.4,.3l-2.3,5.3c0,.2,0,.5,.1,.6c.1,.1,.3,.2,.4,.2m4.5,-3l-3.5,1.5l1.4,-3.5Z" class="gc_190"/>
<path d="M187.9,119.5l-3,-2.9l-21.2,21.2l3,3Z" class="gf_190"/>
<path d="M166.7,141.3c.1,0,.2,-.1,.3,-.2l21.3,-21.2c.1,-.1,.1,-.2,.1,-.4c0,-.1,0,-.2,-.1,-.3l-3,-3c-.2,-.2,-.5,-.2,-.8,0l-21.2,21.2c-.1,.1,-.1,.3,-.1,.4c0,.1,0,.3,.1,.4l3,2.9c.1,.1,.2,.2,.4,.2m20.4,-21.8L166.7,140l-2.2,-2.2l20.4,-20.5Z" class="gc_190"/>
<path d="M32.1,45.1H9.2m958.3,0h22.9M32.1,1331.3H9.2m958.3,0h22.9M45.1,32.1V9.2m0,1335.1v22.9M954.5,32.1V9.2m0,1335.1v22.9" class="gg_190"/>
<path d="M32.1,45.1H9.2m958.3,0h22.9M32.1,1331.3H9.2m958.3,0h22.9M45.1,32.1V9.2m0,1335.1v22.9M954.5,32.1V9.2m0,1335.1v22.9" class="gh_190"/>
<path d="M27.5,32.1H0m972.1,0h27.5M27.5,1344.3H0m972.1,0h27.5M32.1,27.5V0m0,1348.9v27.5M967.5,27.5V0m0,1348.9v27.5" class="gg_190"/>
<path d="M27.5,32.1H0m972.1,0h27.5M27.5,1344.3H0m972.1,0h27.5M32.1,27.5V0m0,1348.9v27.5M967.5,27.5V0m0,1348.9v27.5" class="gh_190"/>
</svg>