<?xml version="1.0" encoding="UTF-8" standalone="no"?>
<!DOCTYPE svg PUBLIC "-//W3C//DTD SVG 1.1//EN"
"http://www.w3.org/Graphics/SVG/1.1/DTD/svg11.dtd">
<svg viewBox="0 0 999 1376" version="1.1" xmlns="http://www.w3.org/2000/svg" xmlns:xlink="http://www.w3.org/1999/xlink">
<defs>
<clipPath id="c0_179"><path d="M32.1,1344.3V32.1H967.5V1344.3Z"/></clipPath>
<clipPath id="c1_179"><path d="M261,721.3V644.6h76.3v76.7Z"/></clipPath>
<clipPath id="c2_179"><path d="M262.2,721V646.7h74.3V721Z"/></clipPath>
<clipPath id="c3_179"><path d="M236.8,811.9V750h61.9v61.9Z"/></clipPath>
<clipPath id="c4_179"><path d="M236.8,886.1V824.2h61.9v61.9Z"/></clipPath>
<clipPath id="c5_179"><path d="M236.8,960.4V898.5h61.9v61.9Z"/></clipPath>
<clipPath id="c6_179"><path d="M237.4,1034.6V972.7h61.9v61.9Z"/></clipPath>
<clipPath id="c7_179"><path d="M200.7,549.1L194.2,547L177.8,533.1V476h72v73.1Z"/></clipPath>
<clipPath id="c8_179"><path d="M200.1,137.2c.1,-1.3,.7,-2.5,1.6,-3.4c1,-1,2.3,-1.6,3.9,-1.6h19.2v5Z"/></clipPath>
<clipPath id="c9_179"><path d="M199.5,137.7v-6h25.8v6Z"/></clipPath>
<style type="text/css"><![CDATA[
.g0_179{
fill: #FEFCF4;
}
.g1_179{
fill: #FFF;
}
.g2_179{
fill: none;
stroke: #6381B7;
stroke-width: 0.763;
}
.g3_179{
fill: #48484A;
}
.g4_179{
fill: #EFEAF4;
}
.g5_179{
fill: #AE8EC2;
}
.g6_179{
fill: none;
stroke: #231F20;
stroke-width: 0.305;
stroke-miterlimit: 10;
}
.g7_179{
fill: #E7D6B2;
}
.g8_179{
fill: #6381B7;
}
.g9_179{
fill: none;
stroke: #6381B7;
stroke-width: 0.381;
stroke-dasharray: 2,1;
}
.ga_179{
fill: none;
stroke: #6381B7;
stroke-width: 0.381;
}
.gb_179{
fill: #DCE9F3;
}
.gc_179{
fill: #BEE4E8;
}
.gd_179{
fill: none;
stroke: #58595B;
stroke-width: 0.381;
stroke-miterlimit: 10;
}
.ge_179{
fill: #FCE8B0;
}
.gf_179{
fill: #25408F;
}
.gg_179{
fill: none;
stroke: #231F20;
stroke-width: 1.527;
}
.gh_179{
fill: #39B4D1;
stroke: #2D2A4A;
stroke-width: 1.038;
stroke-linecap: round;
stroke-linejoin: round;
}
.gi_179{
fill: #2D2A4A;
}
.gj_179{
fill: none;
stroke: #2D2A4A;
stroke-width: 1.038;
stroke-linecap: round;
stroke-linejoin: round;
}
.gk_179{
fill: #DEDAD3;
}
.gl_179{
fill: #29263F;
}
.gm_179{
fill: #E15F46;
stroke: #2D2A4A;
stroke-width: 1.038;
stroke-linecap: round;
stroke-linejoin: round;
}
.gn_179{
fill: none;
stroke: #FFF;
stroke-width: 1.909;
stroke-miterlimit: 10;
}
.go_179{
fill: none;
stroke: #000;
stroke-width: 0.381;
stroke-miterlimit: 10;
}
]]></style>
</defs>
<path clip-path="url(#c0_179)" d="M-877.3,1344.3H45.1V32.1H-877.3V1344.3Z" class="g0_179"/>
<path d="M166.7,561.4c0,0,-13,0,-13,13v460.2c0,0,0,13,13,13H854.5c0,0,13,0,13,-13V574.4c0,0,0,-13,-13,-13Z" class="g1_179"/>
<path d="M166.7,561.4c0,0,-13,0,-13,13v460.2c0,0,0,13,13,13H854.5c0,0,13,0,13,-13V574.4c0,0,0,-13,-13,-13H166.7Z" class="g2_179"/>
<path d="M182.4,648.3c0,0,-4.4,0,-4.4,4.3v14.8c0,0,0,4.3,4.1,5.8l52.5,18.5c0,0,4.1,1.4,4.1,-2.9V652.6c0,0,0,-4.3,-4.4,-4.3Z" class="g3_179"/>
<path d="M203.5,635.3c0,0,-13,0,-13,13v69.3c0,0,0,13,13,13H808.9c0,0,13,0,13,-13V648.3c0,0,0,-13,-13,-13Z" class="g4_179"/>
<path d="M182.4,646.2c0,0,-4.4,0,-4.4,4.3v17.3c0,0,0,4.3,4.4,4.3h37.2c0,0,4.4,0,4.4,-4.3V650.5c0,0,0,-4.3,-4.4,-4.3Z" class="g5_179"/>
<path d="M431.8,696h51.3" class="g6_179"/>
<path clip-path="url(#c1_179)" d="M198.6,638.6c0,0,-5.9,0,-5.9,5.9v76c0,0,0,5.8,5.9,5.8H765.7c0,0,5.8,0,5.8,-5.8v-76c0,0,0,-5.9,-5.8,-5.9H198.6Z" class="g7_179"/>
<image clip-path="url(#c2_179)" preserveAspectRatio="none" x="262" y="647" width="75" height="74" xlink:href="img/1.jpg"/>
<path d="M377.2,796.2H514.8M364.3,870.9H501.8M377.2,945.6H514.8m-150.5,74.7H501.8" class="g6_179"/>
<image clip-path="url(#c3_179)" preserveAspectRatio="none" x="237" y="750" width="62" height="62" xlink:href="img/2.jpg"/>
<image clip-path="url(#c4_179)" preserveAspectRatio="none" x="237" y="824" width="62" height="62" xlink:href="img/3.jpg"/>
<image clip-path="url(#c5_179)" preserveAspectRatio="none" x="237" y="898" width="62" height="62" xlink:href="img/4.jpg"/>
<image clip-path="url(#c6_179)" preserveAspectRatio="none" x="237" y="973" width="62" height="62" xlink:href="img/5.jpg"/>
<path d="M599.8,1065.4c0,0,-4.3,0,-4.3,4.3v10.9c0,0,0,4.3,4.3,4.3h30.3c0,0,4.3,0,4.3,-4.3v-10.9c0,0,0,-4.3,-4.3,-4.3Z" class="g8_179"/>
<path d="M586.6,1056.6v37.5m1.3,1H866.8m.9,-1.4v-37.5m-1.3,-1H587.6" class="g9_179"/>
<path d="M586.6,1094.5v.6h.6m279.9,0h.6v-.6m0,-38.7v-.6h-.6m-279.9,0h-.6v.6" class="ga_179"/>
<path d="M170.9,162c0,0,-17.4,0,-17.4,17.3V415.7c0,0,0,17.3,17.4,17.3H850.4c0,0,17.3,0,17.3,-17.3V179.3c0,0,0,-17.3,-17.3,-17.3Z" class="gb_179"/>
<path d="M202.5,233.6H384.4v21.7H202.5V233.6Zm181.9,0H644.3v21.7H384.4V233.6Zm259.9,0H826.2v21.7H644.3V233.6Z" class="gc_179"/>
<path d="M202.5,255.3H384.4v51.9H202.5V255.3Zm181.9,0H644.3v51.9H384.4V255.3Zm259.9,0H826.2v51.9H644.3V255.3Z" class="g1_179"/>
<path d="M202.5,233.6H384.4m0,0H644.3M384.4,255.1V233.8m259.9,-.2H826.2M644.3,255.1V233.8M202.5,255.3H384.4m0,0H644.3M384.4,307V255.5m259.9,-.2H826.2M644.3,307V255.5M202.5,307.2H384.4m0,0H644.3m0,0H826.2" class="gd_179"/>
<path d="M233.3,504.1c0,0,-13,0,-13,13v21.7c0,0,0,13,13,13H854.9c0,0,13,0,13,-13V517.1c0,0,0,-13,-13,-13Z" class="ge_179"/>
<image clip-path="url(#c7_179)" preserveAspectRatio="none" x="176" y="474" width="75" height="77" xlink:href="img/6.png"/>
<path d="M228.1,544.4c0,0,-26.8,11.3,-51.1,-12.8c0,0,15.2,25.4,49.3,24c0,0,24.8,.4,20.3,-10.1c0,0,1.2,-4.5,-18.5,-1.1Z" class="ge_179"/>
<path d="M153.3,109.5v39L165,158.7V136.5Z" class="gf_179"/>
<path d="M153.3,109.5v39H851.1c0,0,16.8,0,16.8,-16.8v-5.4c0,0,0,-16.8,-16.8,-16.8Z" class="g8_179"/>
<path d="M790.4,131c0,0,-.5,-10,8.6,-9.4c0,0,6.8,-.3,6.7,9.5m-15.3,-1.5v6.5c0,0,-3.4,.3,-3.9,-3c0,0,-.1,-3.8,3.9,-3.5Zm15.3,0v6.5c0,0,3.4,.3,4,-3c0,0,0,-3.8,-4,-3.5Z" class="gg_179"/>
<path d="M169,140.8h61v-32H169v32Z" class="gh_179"/>
<path d="M169,143.1h61v-2.3H169v2.3Z" class="gh_179"/>
<path d="M193.5,106.2H173.8v31.5h25.7V112.3c0,-3.4,-2.7,-6.1,-6,-6.1Z" class="g1_179"/>
<path d="M193.5,106.2v-.5H173.8c-.2,0,-.3,.1,-.4,.2c-.1,.1,-.2,.2,-.2,.3v31.5c0,.1,.1,.3,.2,.4c.1,.1,.2,.1,.4,.1h25.7c.2,0,.3,0,.4,-.1c.1,-.1,.1,-.3,.1,-.4V112.3c0,-3.7,-2.9,-6.6,-6.5,-6.6v1c1.5,0,2.9,.7,3.9,1.7c1,1,1.6,2.3,1.6,3.9v24.9H174.3V106.7h19.2Z" class="gi_179"/>
<path d="M173.8,131.7v6h25.7c0,-3.3,-2.7,-6,-6,-6Z" class="g1_179"/>
<path d="M173.8,131.7h-.6v6c0,.1,.1,.3,.2,.4c.1,.1,.2,.1,.4,.1h25.7c.2,0,.3,0,.4,-.1c.1,-.1,.1,-.3,.1,-.4c0,-3.6,-2.9,-6.6,-6.5,-6.6H173.8c-.2,0,-.3,.1,-.4,.2c-.1,.1,-.2,.2,-.2,.4h.6v.5h19.7c1.5,0,2.9,.6,3.9,1.6c1,1,1.6,2.4,1.6,3.9h.5v-.5H174.3v-5.5h-.5v.5Z" class="gi_179"/>
<path d="M177.3,110.9h17.2m-17.2,2.8h17.2m-17.2,2.9h17.2m-17.2,2.9h17.2m-17.2,2.8h17.2m-17.2,2.9h17.2M177.3,128h17.2" class="gj_179"/>
<path d="M193.5,132.2H174.3v5H199c-.1,-1.3,-.7,-2.5,-1.6,-3.4c-1,-1,-2.4,-1.6,-3.9,-1.6Z" class="gk_179"/>
<path d="M174.3,132.2h19.2c1.5,0,2.9,.6,3.9,1.6c.9,.9,1.5,2.1,1.6,3.4H174.3Zm19.2,-.5H173.8v6H199v-2.5c-.9,-2.1,-3.1,-3.5,-5.5,-3.5Z" class="gl_179"/>
<path d="M205.6,106.2h19.7v31.5H199.5V112.3c0,-3.4,2.7,-6.1,6.1,-6.1Z" class="g1_179"/>
<path d="M205.6,106.2v.5h19.2v30.5H200V112.3c0,-1.6,.7,-2.9,1.7,-3.9c1,-1,2.3,-1.7,3.9,-1.7v-1c-3.7,0,-6.6,2.9,-6.6,6.6v25.4c0,.1,.1,.3,.2,.4c0,.1,.2,.1,.3,.1h25.8c.1,0,.2,0,.3,-.1c.1,-.1,.2,-.3,.2,-.4V106.2c0,-.1,-.1,-.2,-.2,-.3c-.1,-.1,-.2,-.2,-.3,-.2H205.6Z" class="gi_179"/>
<path d="M225.3,131.7v6H199.5c0,-3.3,2.7,-6,6.1,-6Z" class="g1_179"/>
<path d="M225.3,131.7h-.5v5.5H199.5v.5h.5c0,-1.5,.7,-2.9,1.7,-3.9c1,-1,2.3,-1.6,3.9,-1.6h19.7v-.5h-.5h.5v-.6H205.6c-3.7,0,-6.6,3,-6.6,6.6c0,.1,.1,.3,.2,.4c0,.1,.2,.1,.3,.1h25.8c.1,0,.2,0,.3,-.1c.1,-.1,.2,-.3,.2,-.4v-6c0,-.2,-.1,-.3,-.2,-.4c-.1,-.1,-.2,-.2,-.3,-.2Z" class="gi_179"/>
<path d="M221.8,110.9H204.6m17.2,2.8H204.6m17.2,2.9H204.6m17.2,2.9H204.6m17.2,2.8H204.6m17.2,2.9H204.6m17.2,2.8H204.6" class="gj_179"/>
<path clip-path="url(#c8_179)" d="M200.1,137.2h24.7v-5H200.1v5Z" class="gk_179"/>
<path clip-path="url(#c9_179)" d="M200.1,137.2c.1,-1.3,.7,-2.5,1.6,-3.4c1,-1,2.3,-1.6,3.9,-1.6h19.2v5Zm25.2,-5.5H205.6c-3.4,0,-6.1,2.7,-6.1,6h25.8v-6h-.5h.5Z" class="gl_179"/>
<path d="M199.5,108.8v34.3" class="gj_179"/>
<path d="M217.2,145.5h3.3V134.7h-3.3v10.8Z" class="gm_179"/>
<path d="M32.1,45.1H9.2m958.3,0h22.9M32.1,1331.3H9.2m958.3,0h22.9M45.1,32.1V9.2m0,1335.1v22.9M954.5,32.1V9.2m0,1335.1v22.9" class="gn_179"/>
<path d="M32.1,45.1H9.2m958.3,0h22.9M32.1,1331.3H9.2m958.3,0h22.9M45.1,32.1V9.2m0,1335.1v22.9M954.5,32.1V9.2m0,1335.1v22.9" class="go_179"/>
<path d="M27.5,32.1H0m972.1,0h27.5M27.5,1344.3H0m972.1,0h27.5M32.1,27.5V0m0,1348.9v27.5M967.5,27.5V0m0,1348.9v27.5" class="gn_179"/>
<path d="M27.5,32.1H0m972.1,0h27.5M27.5,1344.3H0m972.1,0h27.5M32.1,27.5V0m0,1348.9v27.5M967.5,27.5V0m0,1348.9v27.5" class="go_179"/>
</svg>