<?xml version="1.0" encoding="UTF-8" standalone="no"?>
<!DOCTYPE svg PUBLIC "-//W3C//DTD SVG 1.1//EN"
"http://www.w3.org/Graphics/SVG/1.1/DTD/svg11.dtd">
<svg viewBox="0 0 999 1376" version="1.1" xmlns="http://www.w3.org/2000/svg" xmlns:xlink="http://www.w3.org/1999/xlink">
<defs>
<clipPath id="c0_264"><path d="M412.2,329.2V255.5H551.4v73.7Z"/></clipPath>
<clipPath id="c1_264"><path d="M294.5,330.9v-101H397.6v101Z"/></clipPath>
<clipPath id="c2_264"><path d="M294.9,331.4V229.8H397.2V331.4Z"/></clipPath>
<clipPath id="c3_264"><path d="M198.6,511.6v-113H353.7v113Z"/></clipPath>
<clipPath id="c4_264"><path d="M533.2,517.8V398.6H660.8V517.8Z"/></clipPath>
<clipPath id="c5_264"><path d="M359.9,491.4V415.2H451v76.2Z"/></clipPath>
<clipPath id="c6_264"><path d="M681.6,491.4V415.2h91.2v76.2Z"/></clipPath>
<clipPath id="c7_264"><path d="M350.4,488.5V383.9H498.3V488.5Z"/></clipPath>
<clipPath id="c8_264"><path d="M669.8,488.5V383.9H817.7V488.5Z"/></clipPath>
<clipPath id="c9_264"><path d="M408.4,489.2V489h30.3v.2Z"/></clipPath>
<clipPath id="ca_264"><path d="M728.9,489.2V489h30.3v.2Z"/></clipPath>
<clipPath id="cb_264"><path d="M210.1,711.4V583.3H344.3V711.4Z"/></clipPath>
<clipPath id="cc_264"><path d="M526.1,711.4V583.3H670.5V711.4Z"/></clipPath>
<clipPath id="cd_264"><path d="M359.9,677.4V615.6H451v61.8Z"/></clipPath>
<clipPath id="ce_264"><path d="M359.9,615.6V601.2H451v14.4Z"/></clipPath>
<clipPath id="cf_264"><path d="M681.6,677.4V601.2h91.2v76.2Z"/></clipPath>
<clipPath id="cg_264"><path d="M350.4,675.8V579.5H498.3v96.3Z"/></clipPath>
<clipPath id="ch_264"><path d="M669.8,675.8V579.5H817.7v96.3Z"/></clipPath>
<clipPath id="ci_264"><path d="M408.4,677v-.3h30.3v.3Z"/></clipPath>
<clipPath id="cj_264"><path d="M728.9,677v-.3h30.3v.3Z"/></clipPath>
<style type="text/css"><![CDATA[
.g0_264{
fill: none;
stroke: #6381B7;
stroke-width: 0.763;
}
.g1_264{
fill: #48484A;
}
.g2_264{
fill: #F0E8F3;
}
.g3_264{
fill: #F4EDDD;
}
.g4_264{
fill: #E7D6B2;
}
.g5_264{
fill: #6381B7;
}
.g6_264{
fill: none;
stroke: #6381B7;
stroke-width: 0.381;
stroke-dasharray: 2,1;
}
.g7_264{
fill: none;
stroke: #6381B7;
stroke-width: 0.381;
}
.g8_264{
fill: #766FA6;
}
.g9_264{
fill: #F1E6CF;
}
.ga_264{
fill: none;
stroke: #D1232A;
stroke-width: 2.557;
}
.gb_264{
fill: #FFF;
}
.gc_264{
fill: #25408F;
}
.gd_264{
fill: #F37553;
}
.ge_264{
fill: #363637;
}
.gf_264{
fill: #EAD646;
}
.gg_264{
fill: #506CB4;
}
.gh_264{
fill: #5CC4BE;
}
.gi_264{
fill: #FCFBEC;
}
.gj_264{
fill: none;
stroke: #EAD646;
stroke-width: 1.527;
stroke-linecap: round;
stroke-linejoin: round;
stroke-dasharray: 0,5;
}
.gk_264{
fill: none;
stroke: #EAD646;
stroke-width: 1.527;
stroke-linecap: round;
stroke-linejoin: round;
}
.gl_264{
fill: #61C7CB;
}
.gm_264{
fill: #F5CA58;
}
.gn_264{
fill: #3D3B39;
}
.go_264{
fill: #FBD89A;
}
.gp_264{
fill: none;
stroke: #FFF;
stroke-width: 1.909;
stroke-miterlimit: 10;
}
.gq_264{
fill: none;
stroke: #000;
stroke-width: 0.381;
stroke-miterlimit: 10;
}
]]></style>
</defs>
<path d="M145.1,167.9c0,0,-13,0,-13,13V743.1c0,0,0,13,13,13H832.9c0,0,13,0,13,-13V180.9c0,0,0,-13,-13,-13H145.1Z" class="g0_264"/>
<path d="M183.7,222.8c0,0,-4.4,0,-4.4,4.3v14.4c0,0,0,4.3,4.1,5.8l52.5,18.2c0,0,4.1,1.4,4.1,-2.9V227.1c0,0,0,-4.3,-4.4,-4.3Z" class="g1_264"/>
<path d="M204.8,210c0,0,-13,0,-13,13V352.6c0,0,0,12.9,13,12.9H802.4c0,0,13,0,13,-12.9V223c0,0,0,-13,-13,-13Z" class="g2_264"/>
<image clip-path="url(#c0_264)" preserveAspectRatio="none" x="412" y="256" width="139" height="74" xlink:href="img/1.png"/>
<path d="M424.2,258.8c0,0,-8.7,0,-8.7,8.7v46.7c0,0,0,8.7,8.7,8.7H536.8c0,0,8.6,0,8.6,-8.7V267.5c0,0,0,-8.7,-8.6,-8.7Z" class="g3_264"/>
<path clip-path="url(#c1_264)" d="M223.9,218.1c0,0,-6,0,-6,6.1V357.1c0,0,0,6.1,6,6.1H810c0,0,6.1,0,6.1,-6.1V224.2c0,0,0,-6.1,-6.1,-6.1H223.9Z" class="g4_264"/>
<image clip-path="url(#c2_264)" preserveAspectRatio="none" x="295" y="230" width="102" height="102" xlink:href="img/2.jpg"/>
<path d="M287.1,774.8c0,0,-4.3,0,-4.3,4.4V790c0,0,0,4.3,4.3,4.3h30.3c0,0,4.4,0,4.4,-4.3V779.2c0,0,0,-4.4,-4.4,-4.4Z" class="g5_264"/>
<path d="M273.9,765.5V875.4m1.4,1H845.1m1,-1.4V765.1m-1.4,-.9H274.9" class="g6_264"/>
<path d="M273.9,875.8v.6h.6m571,0h.6v-.6m0,-111.1v-.5h-.6m-571,0h-.6v.5" class="g7_264"/>
<path d="M617.1,1202.9c0,0,-4.3,0,-4.3,4.3v10.9c0,0,0,4.3,4.3,4.3h30.3c0,0,4.4,0,4.4,-4.3v-10.9c0,0,0,-4.3,-4.4,-4.3Z" class="g5_264"/>
<path d="M603.9,1194.1v37.5m1.4,1H845.1m1,-1.3v-37.6m-1.4,-1H604.9" class="g6_264"/>
<path d="M603.9,1232v.6h.6m241,0h.6v-.6m0,-38.7v-.6h-.6m-241,0h-.6v.6" class="g7_264"/>
<path d="M183.7,220.7c0,0,-4.4,0,-4.4,4.3v16.9c0,0,0,4.4,4.4,4.4h32.4c0,0,4.4,0,4.4,-4.4V225c0,0,0,-4.3,-4.4,-4.3Z" class="g8_264"/>
<image clip-path="url(#c3_264)" preserveAspectRatio="none" x="195" y="387" width="158" height="124" xlink:href="img/3.jpg"/>
<image clip-path="url(#c4_264)" preserveAspectRatio="none" x="533" y="391" width="127" height="127" xlink:href="img/4.jpg"/>
<image clip-path="url(#c5_264)" preserveAspectRatio="none" x="360" y="415" width="91" height="77" xlink:href="img/5.jpg"/>
<path d="M366.6,416.6c0,0,-5.4,0,-5.4,5.5v57.4c0,0,0,5.4,5.4,5.4h72.5c0,0,5.5,0,5.5,-5.4V422.1c0,0,0,-5.5,-5.5,-5.5H366.6Z" class="g9_264"/>
<path d="M391.9,494.6l19.5,17.7m0,-17.7l-19.5,17.7" class="ga_264"/>
<image clip-path="url(#c6_264)" preserveAspectRatio="none" x="681" y="415" width="92" height="77" xlink:href="img/6.jpg"/>
<path d="M688.4,416.6c0,0,-5.5,0,-5.5,5.5v57.4c0,0,0,5.4,5.5,5.4h72.5c0,0,5.4,0,5.4,-5.4V422.1c0,0,0,-5.5,-5.4,-5.5H688.4Z" class="g9_264"/>
<path d="M713.7,494.6l19.5,17.7m0,-17.7l-19.5,17.7" class="ga_264"/>
<path d="M359.5,376.6c0,0,-4.3,0,-4.3,4.3V486.8c0,0,0,4.3,4.3,4.3H523.2c0,0,4.3,0,4.3,-4.3V380.9c0,0,0,-4.3,-4.3,-4.3Z" class="gb_264"/>
<path d="M678.2,377.5c0,0,-4.3,0,-4.3,4.3V485.7c0,0,0,4.4,4.3,4.4H806.4c0,0,4.3,0,4.3,-4.4V381.8c0,0,0,-4.3,-4.3,-4.3Z" class="gb_264"/>
<image clip-path="url(#c7_264)" preserveAspectRatio="none" x="350" y="384" width="148" height="105" xlink:href="img/7.png"/>
<path d="M362.3,387.2c0,0,-8.7,0,-8.7,8.7v77.9c0,0,0,8.7,8.7,8.7H483.6c0,0,8.6,0,8.6,-8.7V395.9c0,0,0,-8.7,-8.6,-8.7Z" class="g3_264"/>
<image clip-path="url(#c8_264)" preserveAspectRatio="none" x="669" y="384" width="148" height="105" xlink:href="img/8.png"/>
<path d="M681.7,387.2c0,0,-8.7,0,-8.7,8.7v77.9c0,0,0,8.7,8.7,8.7H802.9c0,0,8.7,0,8.7,-8.7V395.9c0,0,0,-8.7,-8.7,-8.7Z" class="g3_264"/>
<path d="M220,558.5H346.5V524.9H220v33.6Z" class="gb_264"/>
<path d="M534.5,546.5h116V524.9h-116v21.6Z" class="gb_264"/>
<path d="M354.3,517.1H492.9V487.7H354.3v29.4Z" class="gb_264"/>
<path d="M674.8,517.1H813.3V487.7H674.8v29.4Z" class="gb_264"/>
<image clip-path="url(#c9_264)" preserveAspectRatio="none" x="381" y="413" width="92" height="76" xlink:href="img/9.jpg"/>
<path d="M413.7,492.4l19.5,17.7m0,-17.7l-19.5,17.7" class="ga_264"/>
<image clip-path="url(#ca_264)" preserveAspectRatio="none" x="702" y="413" width="92" height="76" xlink:href="img/10.jpg"/>
<path d="M734.2,492.4l19.5,17.7m0,-17.7l-19.5,17.7" class="ga_264"/>
<path d="M132.2,126.3v22.2l11.7,10.2V136.5Z" class="gc_264"/>
<path d="M132.2,109.5v39H829.9c0,0,16.9,0,16.9,-16.8v-5.4c0,0,0,-16.8,-16.9,-16.8Z" class="g5_264"/>
<path d="M166,111.6c.7,-.6,1.7,-.8,2.5,-.6l1.3,-1.3l-6.2,-6.1l-6.1,6.1l-1.3,-1.3c.2,-.8,0,-1.8,-.6,-2.4c-1,-1,-2.6,-1,-3.6,0c-1,1,-1,2.6,0,3.6c.6,.6,1.6,.9,2.4,.6l1.3,1.3l-6.1,6.1l6.1,6.2l-1.3,1.3c-.8,-.3,-1.8,-.1,-2.4,.6c-1,1,-1,2.6,0,3.6c1,1,2.6,1,3.6,0c.6,-.7,.9,-1.6,.6,-2.4l1.3,-1.3l6.1,6.1l6.2,-6.1l-1.3,-1.3c-.9,.2,-1.8,0,-2.5,-.7c-1,-1,-1,-2.6,0,-3.6c1,-1,2.6,-1,3.6,0c.7,.7,.9,1.6,.7,2.5l1.3,1.3l6.1,-6.2l-6.1,-6.1l-1.3,1.3c.2,.8,0,1.8,-.7,2.4c-1,1,-2.6,1,-3.6,0c-1,-.9,-1,-2.6,0,-3.6Z" class="gd_264"/>
<path d="M163.6,132.3l-6.1,-6.2l-.8,.9c.1,.9,-.2,1.9,-.8,2.6c-1.2,1.1,-3.1,1.1,-4.2,0c-1.2,-1.2,-1.2,-3,0,-4.2c.7,-.7,1.6,-1,2.6,-.8l.8,-.8L149,117.6l6.1,-6.1l-.8,-.8c-1,.1,-1.9,-.2,-2.6,-.8c-.6,-.6,-.9,-1.3,-.9,-2.1c0,-.8,.3,-1.5,.9,-2.1c1.1,-1.1,3,-1.1,4.1,0c.7,.7,1,1.7,.9,2.6l.8,.8l6.1,-6.1l6.7,6.7l-1.7,1.7h-.2c-.7,-.2,-1.5,0,-2.1,.5c-.8,.9,-.8,2.2,0,3.1c.9,.8,2.2,.8,3.1,0c.5,-.6,.7,-1.4,.5,-2.1v-.2l1.7,-1.7l6.7,6.6l-6.7,6.7l-1.8,-1.7l.1,-.2c.2,-.8,0,-1.5,-.6,-2.1c-.4,-.4,-.9,-.6,-1.5,-.6c-.5,0,-1.1,.2,-1.5,.6c-.8,.8,-.8,2.2,0,3c.5,.6,1.3,.8,2.1,.6l.2,-.1l1.7,1.8ZM157.5,125l6.1,6.1l5.6,-5.5l-.8,-.9c-1,.2,-2,-.1,-2.7,-.8c-.5,-.5,-.8,-1.3,-.8,-2.1c0,-.7,.3,-1.5,.8,-2c.6,-.6,1.3,-.9,2.1,-.9c.8,0,1.6,.3,2.1,.9c.7,.6,1,1.6,.8,2.6l.9,.8l5.5,-5.6l-5.5,-5.5l-.9,.8c.2,1,-.1,1.9,-.8,2.6c-1.1,1.2,-3,1.2,-4.1,0c-1.2,-1.1,-1.2,-3,0,-4.1c.6,-.7,1.6,-1,2.6,-.8l.8,-.9l-5.6,-5.6l-6.1,6.2l-1.7,-1.7v-.3c.2,-.7,0,-1.5,-.5,-2c-.9,-.9,-2.2,-.9,-3.1,0c-.4,.4,-.6,.9,-.6,1.5c0,.6,.2,1.1,.6,1.5c.6,.5,1.4,.8,2.1,.6l.2,-.1l1.8,1.7l-6.2,6.1l6.2,6.2l-1.8,1.7l-.2,-.1c-.7,-.2,-1.5,.1,-2,.6c-.9,.8,-.9,2.2,0,3c.8,.9,2.2,.9,3,0c.5,-.5,.7,-1.3,.5,-2v-.3Z" class="ge_264"/>
<path d="M196.6,122.1c.9,0,1.8,.5,2.2,1.3h1.8v-8.7h-8.7v-1.8c.8,-.4,1.3,-1.2,1.3,-2.2c0,-1.4,-1.1,-2.5,-2.5,-2.5c-1.5,0,-2.6,1.1,-2.6,2.5c0,1,.5,1.8,1.3,2.2v1.8h-8.7v8.7h-1.8c-.4,-.8,-1.2,-1.3,-2.2,-1.3c-1.4,0,-2.5,1.2,-2.5,2.6c0,1.4,1.1,2.5,2.5,2.5c1,0,1.8,-.5,2.2,-1.2h1.8v8.6h8.7v-1.8c-.8,-.4,-1.3,-1.2,-1.3,-2.2c0,-1.4,1.2,-2.5,2.6,-2.5c1.4,0,2.5,1.1,2.5,2.5c0,1,-.5,1.8,-1.3,2.2v1.8h8.7V126h-1.8c-.4,.7,-1.2,1.2,-2.2,1.2c-1.4,0,-2.5,-1.1,-2.5,-2.5c0,-1.4,1.1,-2.6,2.5,-2.6Z" class="gf_264"/>
<path d="M201,135h-9.5v-2.4l.2,-.1c.7,-.4,1.1,-1.1,1.1,-1.9c0,-1.2,-1,-2.1,-2.1,-2.1c-1.2,0,-2.2,.9,-2.2,2.1c0,.8,.4,1.5,1.1,1.9l.2,.1V135h-9.5v-8.6h-1.2c-.5,.7,-1.4,1.2,-2.4,1.2c-1.6,0,-2.9,-1.3,-2.9,-2.9c0,-1.6,1.3,-3,2.9,-3c1,0,1.9,.5,2.4,1.3h1.2v-8.7H189v-1.1c-.8,-.6,-1.3,-1.5,-1.3,-2.5c0,-1.6,1.3,-2.9,3,-2.9c1.6,0,2.9,1.3,2.9,2.9c0,1,-.5,1.9,-1.3,2.5v1.1H201v9.5h-2.4l-.1,-.2c-.4,-.6,-1.1,-1.1,-1.9,-1.1c-.6,0,-1.1,.3,-1.5,.7c-.4,.4,-.6,.9,-.6,1.5c0,1.2,.9,2.1,2.1,2.1c.8,0,1.5,-.4,1.9,-1l.1,-.2H201Zm-8.7,-.8h7.9v-7.8H199c-.5,.7,-1.4,1.2,-2.4,1.2c-1.6,0,-2.9,-1.3,-2.9,-2.9c0,-.8,.3,-1.5,.8,-2.1c.6,-.5,1.3,-.9,2.1,-.9c1,0,1.9,.5,2.4,1.3h1.2v-7.9h-8.7v-2.4l.2,-.1c.7,-.4,1.1,-1.1,1.1,-1.9c0,-1.2,-1,-2.1,-2.1,-2.1c-1.2,0,-2.2,.9,-2.2,2.1c0,.8,.4,1.5,1.1,1.9l.2,.1v2.4h-8.7v8.7h-2.4l-.1,-.2c-.4,-.6,-1.1,-1.1,-1.9,-1.1c-1.2,0,-2.1,1,-2.1,2.2c0,1.2,.9,2.1,2.1,2.1c.8,0,1.5,-.4,1.9,-1l.1,-.2h2.4v8.6H189V133c-.8,-.5,-1.3,-1.4,-1.3,-2.4c0,-1.6,1.3,-2.9,3,-2.9c1.6,0,2.9,1.3,2.9,2.9c0,1,-.5,1.9,-1.3,2.4Z" class="ge_264"/>
<path d="M176.7,142c1,0,1.8,.5,2.2,1.3h1.8v-8.7H172v-1.8c.8,-.4,1.3,-1.2,1.3,-2.2c0,-1.4,-1.1,-2.5,-2.5,-2.5c-1.4,0,-2.6,1.1,-2.6,2.5c0,1,.5,1.8,1.3,2.2v1.8h-8.7v8.7H159c-.4,-.8,-1.2,-1.3,-2.2,-1.3c-1.4,0,-2.5,1.2,-2.5,2.6c0,1.4,1.1,2.5,2.5,2.5c1,0,1.8,-.5,2.2,-1.2h1.8v8.6h8.7v-1.8c-.8,-.4,-1.3,-1.2,-1.3,-2.2c0,-1.4,1.2,-2.5,2.6,-2.5c1.4,0,2.5,1.1,2.5,2.5c0,1,-.5,1.8,-1.3,2.2v1.8h8.7v-8.7h-1.8c-.4,.8,-1.2,1.3,-2.2,1.3c-1.4,0,-2.5,-1.1,-2.5,-2.5c0,-1.4,1.1,-2.6,2.5,-2.6Z" class="gg_264"/>
<path d="M181.1,154.9h-9.5v-2.4l.2,-.1c.7,-.4,1.1,-1.1,1.1,-1.9c0,-1.2,-1,-2.1,-2.1,-2.1c-1.2,0,-2.2,.9,-2.2,2.1c0,.8,.4,1.5,1.1,1.9l.2,.1v2.4h-9.5v-8.6h-1.2c-.5,.7,-1.4,1.2,-2.4,1.2c-1.6,0,-2.9,-1.3,-2.9,-2.9c0,-1.6,1.3,-3,2.9,-3c1,0,1.9,.5,2.4,1.3h1.2v-8.7h8.7V133c-.8,-.5,-1.3,-1.4,-1.3,-2.4c0,-1.6,1.3,-2.9,3,-2.9c1.6,0,2.9,1.3,2.9,2.9c0,1,-.5,1.9,-1.3,2.4v1.2h8.7v9.5h-2.4l-.1,-.2c-.4,-.7,-1.1,-1.1,-1.9,-1.1c-1.2,0,-2.1,1,-2.1,2.2c0,1.1,.9,2.1,2.1,2.1c.8,0,1.5,-.4,1.9,-1.1l.1,-.2h2.4Zm-8.7,-.8h7.9v-7.9h-1.2c-.5,.8,-1.4,1.3,-2.4,1.3c-1.6,0,-2.9,-1.3,-2.9,-2.9c0,-1.6,1.3,-3,2.9,-3c1,0,1.9,.5,2.4,1.3h1.2V135h-8.7v-2.4l.2,-.1c.7,-.4,1.1,-1.1,1.1,-1.9c0,-1.2,-1,-2.1,-2.1,-2.1c-1.2,0,-2.2,.9,-2.2,2.1c0,.8,.4,1.5,1.1,1.9l.2,.1V135h-8.7v8.7h-2.4l-.1,-.2c-.4,-.7,-1.1,-1.1,-1.9,-1.1c-1.2,0,-2.1,1,-2.1,2.2c0,1.2,.9,2.1,2.1,2.1c.8,0,1.5,-.4,1.9,-1l.1,-.2h2.4v8.6h7.9v-1.2c-.8,-.5,-1.3,-1.4,-1.3,-2.4c0,-1.6,1.3,-2.9,3,-2.9c1.6,0,2.9,1.3,2.9,2.9c0,1,-.5,1.9,-1.3,2.4Z" class="ge_264"/>
<path d="M196.6,142c.9,0,1.8,.5,2.2,1.3h1.8v-8.7h-8.7v-1.8c.8,-.4,1.3,-1.2,1.3,-2.2c0,-1.4,-1.1,-2.5,-2.5,-2.5c-1.5,0,-2.6,1.1,-2.6,2.5c0,1,.5,1.8,1.3,2.2v1.8h-8.7v8.7h-1.8c-.4,-.8,-1.2,-1.3,-2.2,-1.3c-1.4,0,-2.5,1.2,-2.5,2.6c0,1.4,1.1,2.5,2.5,2.5c1,0,1.8,-.5,2.2,-1.2h1.8v8.6h8.7v-1.8c-.8,-.4,-1.3,-1.2,-1.3,-2.2c0,-1.4,1.2,-2.5,2.6,-2.5c1.4,0,2.5,1.1,2.5,2.5c0,1,-.5,1.8,-1.3,2.2v1.8h8.7v-8.7h-1.8c-.4,.8,-1.2,1.3,-2.2,1.3c-1.4,0,-2.5,-1.1,-2.5,-2.5c0,-1.4,1.1,-2.6,2.5,-2.6Z" class="gh_264"/>
<path d="M201,154.9h-9.5v-2.4l.2,-.1c.7,-.4,1.1,-1.1,1.1,-1.9c0,-1.2,-1,-2.1,-2.1,-2.1c-1.2,0,-2.2,.9,-2.2,2.1c0,.8,.4,1.5,1.1,1.9l.2,.1v2.4h-9.5v-8.6h-1.2c-.5,.7,-1.4,1.2,-2.4,1.2c-1.6,0,-2.9,-1.3,-2.9,-2.9c0,-1.6,1.3,-3,2.9,-3c1,0,1.9,.5,2.4,1.3h1.2v-8.7H189V133c-.8,-.5,-1.3,-1.4,-1.3,-2.4c0,-1.6,1.3,-2.9,3,-2.9c1.6,0,2.9,1.3,2.9,2.9c0,1,-.5,1.9,-1.3,2.4v1.2H201v9.5h-2.4l-.1,-.2c-.4,-.7,-1.1,-1.1,-1.9,-1.1c-.6,0,-1.1,.3,-1.5,.7c-.4,.4,-.6,.9,-.6,1.5c0,1.1,.9,2.1,2.1,2.1c.8,0,1.5,-.4,1.9,-1.1l.1,-.2H201Zm-8.7,-.8h7.9v-7.9H199c-.5,.8,-1.4,1.3,-2.4,1.3c-1.6,0,-2.9,-1.3,-2.9,-2.9c0,-.8,.3,-1.5,.8,-2.1c.6,-.6,1.3,-.9,2.1,-.9c1,0,1.9,.5,2.4,1.3h1.2V135h-8.7v-2.4l.2,-.1c.7,-.4,1.1,-1.1,1.1,-1.9c0,-1.2,-1,-2.1,-2.1,-2.1c-1.2,0,-2.2,.9,-2.2,2.1c0,.8,.4,1.5,1.1,1.9l.2,.1V135h-8.7v8.7h-2.4l-.1,-.2c-.4,-.7,-1.1,-1.1,-1.9,-1.1c-1.2,0,-2.1,1,-2.1,2.2c0,1.2,.9,2.1,2.1,2.1c.8,0,1.5,-.4,1.9,-1l.1,-.2h2.4v8.6H189v-1.2c-.8,-.5,-1.3,-1.4,-1.3,-2.4c0,-1.6,1.3,-2.9,3,-2.9c1.6,0,2.9,1.3,2.9,2.9c0,1,-.5,1.9,-1.3,2.4Z" class="ge_264"/>
<image clip-path="url(#cb_264)" preserveAspectRatio="none" x="210" y="582" width="134" height="129" xlink:href="img/11.jpg"/>
<image clip-path="url(#cc_264)" preserveAspectRatio="none" x="526" y="582" width="145" height="129" xlink:href="img/12.jpg"/>
<image clip-path="url(#cd_264)" preserveAspectRatio="none" x="360" y="615" width="91" height="63" xlink:href="img/13.jpg"/>
<image clip-path="url(#ce_264)" preserveAspectRatio="none" x="360" y="601" width="91" height="15" xlink:href="img/14.jpg"/>
<path d="M366.6,602.6c0,0,-5.4,0,-5.4,5.5v57.4c0,0,0,5.4,5.4,5.4h72.5c0,0,5.5,0,5.5,-5.4V608.1c0,0,0,-5.5,-5.5,-5.5H366.6Z" class="g9_264"/>
<path d="M391.9,680.6l19.5,17.7m0,-17.7l-19.5,17.7" class="ga_264"/>
<image clip-path="url(#cf_264)" preserveAspectRatio="none" x="681" y="601" width="92" height="77" xlink:href="img/15.jpg"/>
<path d="M688.4,602.6c0,0,-5.5,0,-5.5,5.5v57.4c0,0,0,5.4,5.5,5.4h72.5c0,0,5.4,0,5.4,-5.4V608.1c0,0,0,-5.5,-5.4,-5.5H688.4Z" class="g9_264"/>
<path d="M713.7,680.6l19.5,17.7m0,-17.7l-19.5,17.7" class="ga_264"/>
<path d="M359.5,563.9c0,0,-4.3,0,-4.3,4.4V672.2c0,0,0,4.3,4.3,4.3H523.2c0,0,4.3,0,4.3,-4.3V568.3c0,0,0,-4.4,-4.3,-4.4Z" class="gb_264"/>
<path d="M680.8,563.9c0,0,-4.3,0,-4.3,4.4V672.2c0,0,0,4.3,4.3,4.3H822c0,0,4.3,0,4.3,-4.3V568.3c0,0,0,-4.4,-4.3,-4.4Z" class="gb_264"/>
<image clip-path="url(#cg_264)" preserveAspectRatio="none" x="350" y="580" width="148" height="96" xlink:href="img/16.png"/>
<path d="M362.3,582.8c0,0,-8.7,0,-8.7,8.6v69.3c0,0,0,8.7,8.7,8.7H483.6c0,0,8.6,0,8.6,-8.7V591.4c0,0,0,-8.6,-8.6,-8.6Z" class="g3_264"/>
<image clip-path="url(#ch_264)" preserveAspectRatio="none" x="669" y="580" width="148" height="96" xlink:href="img/17.png"/>
<path d="M681.7,582.8c0,0,-8.7,0,-8.7,8.6v69.3c0,0,0,8.7,8.7,8.7H802.9c0,0,8.7,0,8.7,-8.7V591.4c0,0,0,-8.6,-8.7,-8.6Z" class="g3_264"/>
<path d="M548.3,733.7H669.6V721.6H548.3v12.1Z" class="gb_264"/>
<path d="M354.3,704.5H492.9V675H354.3v29.5Z" class="gb_264"/>
<path d="M674.8,704.5H813.3V675H674.8v29.5Z" class="gb_264"/>
<image clip-path="url(#ci_264)" preserveAspectRatio="none" x="381" y="600" width="92" height="77" xlink:href="img/18.jpg"/>
<path d="M413.7,680.2l19.5,17.7m0,-17.7l-19.5,17.7" class="ga_264"/>
<image clip-path="url(#cj_264)" preserveAspectRatio="none" x="702" y="600" width="92" height="77" xlink:href="img/19.jpg"/>
<path d="M734.2,680.2l19.5,17.7m0,-17.7l-19.5,17.7" class="ga_264"/>
<path d="M230.7,732.7H341V721.6H230.7v11.1Z" class="gb_264"/>
<path d="M132.5,1183.2h713V973.9h-713v209.3Z" class="gi_264"/>
<path d="M132.5,978.5v202.4m4.5,2.3H843.2m2.3,-4.6V976.2m-4.6,-2.3H134.7" class="gj_264"/>
<path d="M132.5,1183.2v0m713,0v0m0,-209.3v0m-713,0v0" class="gk_264"/>
<path d="M131.7,977.2V948.5c0,0,0,-8.6,8.6,-8.6H837.6c0,0,8.7,0,8.7,8.6v29.2Z" class="gf_264"/>
<path d="M160.4,965.8H155c.1,3,1.1,5.8,2.7,8.2h4.1c-.8,-2.4,-1.4,-5.2,-1.4,-8.2Z" class="gl_264"/>
<path d="M160.4,964.9c0,-3,.6,-5.8,1.4,-8.2h-4.1c-1.6,2.3,-2.6,5.1,-2.7,8.2Z" class="gl_264"/>
<path d="M170.6,955.5v.2h6.6c-.2,-.4,-.4,-.7,-.6,-1.1c-1.9,.4,-3.9,.8,-6,.9Z" class="gl_264"/>
<path d="M177.5,954.4c.2,.4,.4,.9,.6,1.3h2.3c.1,-.4,.3,-.7,.6,-1.1c-.3,-.2,-.6,-.5,-.9,-.8c-.1,0,-.2,.1,-.3,.1c-.8,.1,-1.5,.3,-2.3,.5Z" class="gl_264"/>
<path d="M179.9,965.8c0,3,-.5,5.8,-1.4,8.2h4.1c1.7,-2.4,2.7,-5.2,2.7,-8.2Z" class="gl_264"/>
<path d="M179,964.9c0,-3.1,-.6,-5.9,-1.5,-8.2h-6.9v8.2Z" class="gl_264"/>
<path d="M169.7,974.9h-6.5c1.1,2.5,2.6,4.4,4.4,5.4c.7,.1,1.4,.2,2.1,.2Z" class="gl_264"/>
<path d="M180.3,960.1v-3.4h-1.8c.9,2.4,1.4,5.2,1.4,8.2h5.4c0,-.9,-.1,-1.8,-.3,-2.7c-.5,.5,-1.1,.7,-1.8,.7c-1.6,0,-2.9,-1.3,-2.9,-2.8Z" class="gl_264"/>
<path d="M170.6,974.9v5.6c.7,0,1.5,-.1,2.2,-.2c1.7,-1,3.3,-2.9,4.4,-5.4Z" class="gl_264"/>
<path d="M178.1,974.9c-.8,2,-1.9,3.6,-3.1,4.8c2.7,-.9,5.2,-2.6,6.9,-4.8Z" class="gl_264"/>
<path d="M170.6,965.8V974h6.9c.9,-2.4,1.5,-5.2,1.5,-8.2Z" class="gl_264"/>
<path d="M162.2,955.7c.2,-.4,.4,-.9,.6,-1.3c-.8,-.2,-1.5,-.4,-2.3,-.5c-.1,0,-.1,-.1,-.2,-.1c-.7,.6,-1.4,1.2,-1.9,1.9Z" class="gl_264"/>
<path d="M169.7,955.5c-2.1,-.1,-4,-.5,-6,-.9c-.2,.4,-.4,.7,-.5,1.1h6.5Z" class="gl_264"/>
<path d="M165.3,979.7c-1.2,-1.2,-2.3,-2.8,-3.1,-4.8h-3.8c1.8,2.2,4.2,3.9,6.9,4.8Z" class="gl_264"/>
<path d="M169.7,964.9v-8.2h-6.9c-.9,2.3,-1.4,5.1,-1.5,8.2Z" class="gl_264"/>
<path d="M169.7,965.8h-8.4c.1,3,.6,5.8,1.5,8.2h6.9Z" class="gl_264"/>
<path d="M161.6,952.3c.6,.1,1.1,.2,1.7,.3c2.2,.5,4.5,1,6.9,1c2.3,0,4.6,-.5,6.9,-1c.5,-.1,1,-.2,1.6,-.3v-5.2l-8.2,3.5c-.1,.1,-.2,.1,-.3,.1c-.2,0,-.3,0,-.4,-.1l-8.2,-3.5Z" class="gb_264"/>
<path d="M170.2,948.8l13.7,-5.9L170.2,937l-13.8,5.9Z" class="gm_264"/>
<path d="M182.1,960.1c0,.5,.5,1,1.1,1c.5,0,1,-.5,1,-1v-.5h-2.1Z" class="gb_264"/>
<path d="M183.2,955.5c-.6,0,-1.1,.4,-1.1,1v2.1h2.1v-2.1c0,-.6,-.5,-1,-1,-1Z" class="gb_264"/>
<path d="M186,956.5c0,-1.3,-.8,-2.3,-1.9,-2.7v-9l2.5,-1.1c.4,-.1,.6,-.5,.6,-.8c0,-.4,-.2,-.7,-.6,-.9l-16.1,-6.9c-.2,-.1,-.5,-.1,-.7,0L153.7,942c-.3,.2,-.6,.5,-.6,.9c0,.3,.3,.7,.6,.8l6.1,2.6v5.5c-4,3.1,-6.7,8,-6.7,13.5c0,9.4,7.7,17,17.1,17c9.4,0,17,-7.6,17,-17c0,-2.2,-.4,-4.3,-1.2,-6.2ZM170.2,937l13.7,5.9l-13.7,5.9l-13.8,-5.9Zm15.1,27.9h-5.4c0,-3,-.5,-5.8,-1.4,-8.2h1.8v3.4c0,1.5,1.3,2.8,2.9,2.8c.7,0,1.3,-.2,1.8,-.7c.2,.9,.3,1.8,.3,2.7m-2.7,9.1h-4.1c.9,-2.4,1.4,-5.2,1.4,-8.2h5.4c0,3,-1,5.8,-2.7,8.2m-9.8,6.3c-.7,.1,-1.5,.2,-2.2,.2v-5.6h6.6c-1.1,2.5,-2.7,4.4,-4.4,5.4m-9.6,-5.4h6.5v5.6c-.7,0,-1.4,-.1,-2.1,-.2c-1.8,-1,-3.3,-2.9,-4.4,-5.4M155,965.8h5.4c0,3,.6,5.8,1.4,8.2h-4.1c-1.6,-2.4,-2.6,-5.2,-2.7,-8.2m2.7,-9.1h4.1c-.8,2.4,-1.4,5.2,-1.4,8.2H155c.1,-3.1,1.1,-5.9,2.7,-8.2M181,954.6c-.3,.4,-.5,.7,-.6,1.1h-2.3c-.2,-.4,-.4,-.9,-.6,-1.3c.8,-.2,1.5,-.4,2.3,-.5c.1,0,.2,-.1,.3,-.1c.3,.3,.6,.6,.9,.8m3.2,5v.5c0,.5,-.5,1,-1,1c-.6,0,-1.1,-.5,-1.1,-1v-.5Zm-13.6,-3.9v-.2c2.1,-.1,4.1,-.5,6,-.9c.2,.4,.4,.7,.6,1.1Zm6.9,1c.9,2.3,1.5,5.1,1.5,8.2h-8.4v-8.2Zm-13.8,-2.1c2,.4,3.9,.8,6,.9v.2h-6.5c.1,-.4,.3,-.7,.5,-1.1m6,2.1v8.2h-8.4c.1,-3.1,.6,-5.9,1.5,-8.2Zm-8.4,9.1h8.4V974h-6.9c-.9,-2.4,-1.4,-5.2,-1.5,-8.2m9.3,8.2v-8.2H179c0,3,-.6,5.8,-1.5,8.2Zm13.6,-15.4h-2.1v-2.1c0,-.6,.5,-1,1.1,-1c.5,0,1,.4,1,1Zm-14.4,-8c.1,.1,.2,.1,.4,.1c.1,0,.2,0,.3,-.1l8.2,-3.5v5.2c-.6,.1,-1.1,.2,-1.6,.3c-2.3,.5,-4.6,1,-6.9,1c-2.4,0,-4.7,-.5,-6.9,-1c-.6,-.1,-1.1,-.2,-1.7,-.3v-5.2Zm-9.5,3.2c.1,0,.1,.1,.2,.1c.8,.1,1.5,.3,2.3,.5c-.2,.4,-.4,.9,-.6,1.3h-3.8c.5,-.7,1.2,-1.3,1.9,-1.9m1.9,21.1c.8,2,1.9,3.6,3.1,4.8c-2.7,-.9,-5.1,-2.6,-6.9,-4.8Zm12.8,4.8c1.2,-1.2,2.3,-2.8,3.1,-4.8H182c-1.9,2.2,-4.3,3.9,-7,4.8m7.2,-26.4c-.5,-.5,-1.1,-1,-1.7,-1.5v-5.5l1.7,-.7Z" class="gn_264"/>
<path d="M279.8,1043.3c0,0,-2.2,0,-2.2,2.1v17.4c0,0,0,2.1,2.2,2.1H298c0,0,2.2,0,2.2,-2.1v-17.4c0,0,0,-2.1,-2.2,-2.1Z" class="go_264"/>
<path d="M307.1,1043.3c0,0,-2.2,0,-2.2,2.1v17.4c0,0,0,2.1,2.2,2.1h18.1c0,0,2.2,0,2.2,-2.1v-17.4c0,0,0,-2.1,-2.2,-2.1Z" class="go_264"/>
<path d="M334.3,1043.3c0,0,-2.2,0,-2.2,2.1v17.4c0,0,0,2.1,2.2,2.1h18.2c0,0,2.2,0,2.2,-2.1v-17.4c0,0,0,-2.1,-2.2,-2.1Z" class="go_264"/>
<path d="M204,1086.8c0,0,-2.2,0,-2.2,2.2v17.3c0,0,0,2.2,2.2,2.2h18.2c0,0,2.2,0,2.2,-2.2V1089c0,0,0,-2.2,-2.2,-2.2Z" class="go_264"/>
<path d="M231.3,1086.8c0,0,-2.2,0,-2.2,2.2v17.3c0,0,0,2.2,2.2,2.2h18.1c0,0,2.2,0,2.2,-2.2V1089c0,0,0,-2.2,-2.2,-2.2Z" class="go_264"/>
<path d="M258.5,1086.8c0,0,-2.2,0,-2.2,2.2v17.3c0,0,0,2.2,2.2,2.2h18.2c0,0,2.2,0,2.2,-2.2V1089c0,0,0,-2.2,-2.2,-2.2Z" class="go_264"/>
<path d="M265.6,1130.4c0,0,-2.2,0,-2.2,2.1v17.4c0,0,0,2.1,2.2,2.1h18.2c0,0,2.2,0,2.2,-2.1v-17.4c0,0,0,-2.1,-2.2,-2.1Z" class="go_264"/>
<path d="M292.8,1130.4c0,0,-2.1,0,-2.1,2.1v17.4c0,0,0,2.1,2.1,2.1H311c0,0,2.2,0,2.2,-2.1v-17.4c0,0,0,-2.1,-2.2,-2.1Z" class="go_264"/>
<path d="M32.1,45.1H9.2m958.3,0h22.9M32.1,1331.3H9.2m958.3,0h22.9M45.1,32.1V9.2m0,1335.1v22.9M954.5,32.1V9.2m0,1335.1v22.9" class="gp_264"/>
<path d="M32.1,45.1H9.2m958.3,0h22.9M32.1,1331.3H9.2m958.3,0h22.9M45.1,32.1V9.2m0,1335.1v22.9M954.5,32.1V9.2m0,1335.1v22.9" class="gq_264"/>
<path d="M27.5,32.1H0m972.1,0h27.5M27.5,1344.3H0m972.1,0h27.5M32.1,27.5V0m0,1348.9v27.5M967.5,27.5V0m0,1348.9v27.5" class="gp_264"/>
<path d="M27.5,32.1H0m972.1,0h27.5M27.5,1344.3H0m972.1,0h27.5M32.1,27.5V0m0,1348.9v27.5M967.5,27.5V0m0,1348.9v27.5" class="gq_264"/>
</svg>