<?xml version="1.0" encoding="UTF-8" standalone="no"?>
<!DOCTYPE svg PUBLIC "-//W3C//DTD SVG 1.1//EN"
"http://www.w3.org/Graphics/SVG/1.1/DTD/svg11.dtd">
<svg viewBox="0 0 999 1376" version="1.1" xmlns="http://www.w3.org/2000/svg" xmlns:xlink="http://www.w3.org/1999/xlink">
<defs>
<clipPath id="c0_343"><path d="M32.1,1344.3V32.1H967.5V1344.3Z"/></clipPath>
<clipPath id="c1_343"><path d="M217.7,444.3V345H317v99.3Z"/></clipPath>
<clipPath id="c2_343"><path d="M378.3,444.3V345h99.2v99.3Z"/></clipPath>
<clipPath id="c3_343"><path d="M538.9,444.3V345h99.2v99.3Z"/></clipPath>
<clipPath id="c4_343"><path d="M699.5,444.3V345h99.2v99.3Z"/></clipPath>
<clipPath id="c5_343"><path d="M751.9,992.8V930.3h64.7v62.5Z"/></clipPath>
<clipPath id="c6_343"><path d="M623.3,1003.6v-2.3H689v2.3Z"/></clipPath>
<clipPath id="c7_343"><path d="M620.1,990.4V926.8h68v63.6Z"/></clipPath>
<clipPath id="c8_343"><path d="M495.5,989.9V926h64.7v63.9Z"/></clipPath>
<clipPath id="c9_343"><path d="M493.5,1003.6v-3.8h66.4v3.8Z"/></clipPath>
<clipPath id="ca_343"><path d="M363.1,988.4V924.8h64.7v63.6Z"/></clipPath>
<clipPath id="cb_343"><path d="M363.6,1003.6V999h65.7v4.6Z"/></clipPath>
<clipPath id="cc_343"><path d="M232,983.7V921.1h64.7v62.6Z"/></clipPath>
<clipPath id="cd_343"><path d="M229.2,1004.4v-7.7h64.9v7.7Z"/></clipPath>
<clipPath id="ce_343"><path d="M198.6,326.6l-6.5,-2.1L175.7,310.6V253.5h72v73.1Z"/></clipPath>
<clipPath id="cf_343"><path d="M200.7,835.5l-6.5,-2.1l-16.4,-14V762.3h72v73.2Z"/></clipPath>
<clipPath id="cg_343"><path d="M658.6,177V59h200V177Z"/></clipPath>
<style type="text/css"><![CDATA[
.g0_343{
fill: #FEFCF4;
}
.g1_343{
fill: #FFF;
}
.g2_343{
fill: none;
stroke: #6381B7;
stroke-width: 0.763;
}
.g3_343{
fill: none;
stroke: #949698;
stroke-width: 0.381;
}
.g4_343{
fill: none;
stroke: #231F20;
stroke-width: 1.527;
}
.g5_343{
fill: #93BEDA;
}
.g6_343{
fill: #EFE9CC;
}
.g7_343{
fill: #6381B7;
}
.g8_343{
fill: none;
stroke: #6381B7;
stroke-width: 0.381;
stroke-dasharray: 2,1;
}
.g9_343{
fill: none;
stroke: #6381B7;
stroke-width: 0.381;
}
.ga_343{
fill: #FCE8B0;
}
.gb_343{
fill: #2E6E51;
}
.gc_343{
fill: #BCBEC0;
}
.gd_343{
fill: #EE314A;
}
.ge_343{
fill: #25408F;
}
.gf_343{
fill: #00BAF1;
}
.gg_343{
fill: #332D2C;
}
.gh_343{
fill: #D9DFF0;
}
.gi_343{
fill: #F27C85;
}
.gj_343{
fill: #7DD3F6;
}
.gk_343{
fill: none;
stroke: #FFF;
stroke-width: 1.909;
stroke-miterlimit: 10;
}
.gl_343{
fill: none;
stroke: #000;
stroke-width: 0.381;
stroke-miterlimit: 10;
}
]]></style>
</defs>
<path clip-path="url(#c0_343)" d="M-877.3,1344.3H45.1V32.1H-877.3V1344.3Z" class="g0_343"/>
<path d="M45.1,1344.3H967.5V32.1H45.1V1344.3Z" class="g0_343"/>
<path d="M172.6,216.5c0,0,-18.4,0,-18.4,18.4v493c0,0,0,18.4,18.4,18.4H849.7c0,0,18.3,0,18.3,-18.4V216.5Z" class="g1_343"/>
<path d="M172.6,216.5c0,0,-18.4,0,-18.4,18.4v493c0,0,0,18.4,18.4,18.4H849.7c0,0,18.3,0,18.3,-18.4V216.5H172.6Z" class="g2_343"/>
<path d="M202.6,444.3H332.1V345H202.6v99.3Z" class="g1_343"/>
<image clip-path="url(#c1_343)" preserveAspectRatio="none" x="218" y="345" width="99" height="99" xlink:href="img/1.jpg"/>
<path d="M202.6,444.3H332.1V345H202.6v99.3Z" class="g3_343"/>
<path d="M202.6,595.1H332.1V495.8H202.6v99.3Z" class="g1_343"/>
<image preserveAspectRatio="none" x="218" y="496" width="99" height="99" xlink:href="img/2.jpg"/>
<path d="M202.6,595.1H332.1V495.8H202.6v99.3Z" class="g3_343"/>
<path d="M363.2,444.3H492.7V345H363.2v99.3Z" class="g1_343"/>
<image clip-path="url(#c2_343)" preserveAspectRatio="none" x="378" y="345" width="100" height="99" xlink:href="img/3.jpg"/>
<path d="M363.2,444.3H492.7V345H363.2v99.3Z" class="g3_343"/>
<path d="M363.2,595.1H492.7V495.8H363.2v99.3Z" class="g1_343"/>
<image preserveAspectRatio="none" x="378" y="496" width="100" height="99" xlink:href="img/4.jpg"/>
<path d="M363.2,595.1H492.7V495.8H363.2v99.3Z" class="g3_343"/>
<path d="M523.8,444.3H653.3V345H523.8v99.3Z" class="g1_343"/>
<image clip-path="url(#c3_343)" preserveAspectRatio="none" x="539" y="345" width="99" height="99" xlink:href="img/5.jpg"/>
<path d="M523.8,444.3H653.3V345H523.8v99.3Z" class="g3_343"/>
<path d="M523.8,595.1H653.3V495.8H523.8v99.3Z" class="g1_343"/>
<image preserveAspectRatio="none" x="539" y="496" width="99" height="99" xlink:href="img/6.jpg"/>
<path d="M523.8,595.1H653.3V495.8H523.8v99.3Z" class="g3_343"/>
<path d="M684.3,444.3H813.9V345H684.3v99.3Z" class="g1_343"/>
<image clip-path="url(#c4_343)" preserveAspectRatio="none" x="700" y="345" width="99" height="99" xlink:href="img/7.jpg"/>
<path d="M684.3,444.3H813.9V345H684.3v99.3Z" class="g3_343"/>
<path d="M210.1,683.5c-.3,0,-.5,.1,-.6,.3c-.2,.2,-.3,.4,-.3,.7c0,.2,.1,.5,.3,.6c.1,.2,.3,.3,.6,.3c.3,0,.5,-.1,.7,-.3c.1,-.1,.2,-.4,.2,-.6c0,-.3,-.1,-.5,-.2,-.7c-.2,-.2,-.4,-.3,-.7,-.3Zm0,33.1c-.3,0,-.5,.1,-.6,.3c-.2,.2,-.3,.4,-.3,.7c0,.2,.1,.5,.3,.6c.1,.2,.3,.3,.6,.3c.3,0,.5,-.1,.7,-.3c.1,-.1,.2,-.4,.2,-.6c0,-.3,-.1,-.5,-.2,-.7c-.2,-.2,-.4,-.3,-.7,-.3Z" class="g4_343"/>
<path d="M166.7,848.7c0,0,-13,0,-13,13v304.6c0,0,0,13,13,13H854.5c0,0,13,0,13,-13V861.7c0,0,0,-13,-13,-13Z" class="g1_343"/>
<path d="M166.7,848.7c0,0,-13,0,-13,13v304.6c0,0,0,13,13,13H854.5c0,0,13,0,13,-13V861.7c0,0,0,-13,-13,-13H166.7Z" class="g2_343"/>
<image clip-path="url(#c5_343)" preserveAspectRatio="none" x="752" y="930" width="65" height="64" xlink:href="img/8.jpg"/>
<image clip-path="url(#c6_343)" preserveAspectRatio="none" x="624" y="1002" width="65" height="63" xlink:href="img/9.jpg"/>
<image clip-path="url(#c7_343)" preserveAspectRatio="none" x="620" y="926" width="68" height="64" xlink:href="img/10.jpg"/>
<image clip-path="url(#c8_343)" preserveAspectRatio="none" x="495" y="926" width="65" height="65" xlink:href="img/11.jpg"/>
<image clip-path="url(#c9_343)" preserveAspectRatio="none" x="491" y="999" width="68" height="65" xlink:href="img/12.jpg"/>
<image clip-path="url(#ca_343)" preserveAspectRatio="none" x="363" y="925" width="65" height="64" xlink:href="img/13.jpg"/>
<image clip-path="url(#cb_343)" preserveAspectRatio="none" x="364" y="1000" width="65" height="64" xlink:href="img/14.jpg"/>
<image clip-path="url(#cc_343)" preserveAspectRatio="none" x="232" y="920" width="65" height="64" xlink:href="img/15.jpg"/>
<image clip-path="url(#cd_343)" preserveAspectRatio="none" x="229" y="997" width="65" height="65" xlink:href="img/16.jpg"/>
<path d="M655,1104.8c2,0,3.6,-1.6,3.6,-3.6c0,-2,-1.6,-3.6,-3.6,-3.6c-2,0,-3.6,1.6,-3.6,3.6c0,2,1.6,3.6,3.6,3.6Z" class="g5_343"/>
<path d="M655,1021.7c2,0,3.6,-1.7,3.6,-3.6c0,-2,-1.6,-3.7,-3.6,-3.7c-2,0,-3.6,1.7,-3.6,3.7c0,1.9,1.6,3.6,3.6,3.6Z" class="g5_343"/>
<path d="M525.1,1104.8c2,0,3.6,-1.6,3.6,-3.6c0,-2,-1.6,-3.6,-3.6,-3.6c-2,0,-3.6,1.6,-3.6,3.6c0,2,1.6,3.6,3.6,3.6Z" class="g5_343"/>
<path d="M525.1,1021.7c2,0,3.6,-1.7,3.6,-3.6c0,-2,-1.6,-3.7,-3.6,-3.7c-2,0,-3.6,1.7,-3.6,3.7c0,1.9,1.6,3.6,3.6,3.6Z" class="g5_343"/>
<path d="M395.2,1104.8c2,0,3.6,-1.6,3.6,-3.6c0,-2,-1.6,-3.6,-3.6,-3.6c-2,0,-3.6,1.6,-3.6,3.6c0,2,1.6,3.6,3.6,3.6Z" class="g5_343"/>
<path d="M395.2,1021.7c2,0,3.6,-1.7,3.6,-3.6c0,-2,-1.6,-3.7,-3.6,-3.7c-2,0,-3.6,1.7,-3.6,3.7c0,1.9,1.6,3.6,3.6,3.6Z" class="g5_343"/>
<path d="M784.9,1104.8c2,0,3.6,-1.6,3.6,-3.6c0,-2,-1.6,-3.6,-3.6,-3.6c-2,0,-3.6,1.6,-3.6,3.6c0,2,1.6,3.6,3.6,3.6Z" class="g5_343"/>
<path d="M784.9,1021.7c2,0,3.6,-1.7,3.6,-3.6c0,-2,-1.6,-3.7,-3.6,-3.7c-2,0,-3.6,1.7,-3.6,3.7c0,1.9,1.6,3.6,3.6,3.6Z" class="g5_343"/>
<path d="M265.3,1104.8c2,0,3.6,-1.6,3.6,-3.6c0,-2,-1.6,-3.6,-3.6,-3.6c-2,0,-3.6,1.6,-3.6,3.6c0,2,1.6,3.6,3.6,3.6Z" class="g5_343"/>
<path d="M265.3,1021.7c2,0,3.6,-1.7,3.6,-3.6c0,-2,-1.6,-3.7,-3.6,-3.7c-2,0,-3.6,1.7,-3.6,3.7c0,1.9,1.6,3.6,3.6,3.6Z" class="g5_343"/>
<path d="M230.6,1129.6c0,0,-8.7,0,-8.7,8.6v15.2c0,0,0,8.6,8.7,8.6h60.6c0,0,8.7,0,8.7,-8.6v-15.2c0,0,0,-8.6,-8.7,-8.6Z" class="g6_343"/>
<path d="M363.9,1129.6c0,0,-8.6,0,-8.6,8.6v15.2c0,0,0,8.6,8.6,8.6h60.7c0,0,8.6,0,8.6,-8.6v-15.2c0,0,0,-8.6,-8.6,-8.6Z" class="g6_343"/>
<path d="M497.3,1129.6c0,0,-8.7,0,-8.7,8.6v15.2c0,0,0,8.6,8.7,8.6h60.6c0,0,8.7,0,8.7,-8.6v-15.2c0,0,0,-8.6,-8.7,-8.6Z" class="g6_343"/>
<path d="M630.6,1129.6c0,0,-8.6,0,-8.6,8.6v15.2c0,0,0,8.6,8.6,8.6h60.7c0,0,8.6,0,8.6,-8.6v-15.2c0,0,0,-8.6,-8.6,-8.6Z" class="g6_343"/>
<path d="M764,1129.4c0,0,-8.7,0,-8.7,8.6v15.2c0,0,0,8.6,8.7,8.6h60.6c0,0,8.7,0,8.7,-8.6V1138c0,0,0,-8.6,-8.7,-8.6Z" class="g6_343"/>
<path d="M620.9,1195.3c0,0,-4.4,0,-4.4,4.4v10.8c0,0,0,4.3,4.4,4.3h30.3c0,0,4.3,0,4.3,-4.3v-10.8c0,0,0,-4.4,-4.3,-4.4Z" class="g7_343"/>
<path d="M607.7,1186.5v37.6m1.3,.9H866.2m1,-1.3v-37.6m-1.4,-.9H608.7" class="g8_343"/>
<path d="M607.7,1224.4v.6h.6m258.3,0h.6v-.6m0,-38.7v-.5h-.6m-258.3,0h-.6v.5" class="g9_343"/>
<path d="M231.2,281.7c0,0,-12.9,0,-12.9,12.9v21.7c0,0,0,13,12.9,13H833.3c0,0,13,0,13,-13V294.6c0,0,0,-12.9,-13,-12.9Z" class="ga_343"/>
<image clip-path="url(#ce_343)" preserveAspectRatio="none" x="174" y="252" width="75" height="76" xlink:href="img/17.png"/>
<path d="M226,321.9c0,0,-26.8,11.3,-51.1,-12.7c0,0,15.2,25.3,49.3,23.9c0,0,24.8,.4,20.3,-10.1c0,0,1.2,-4.4,-18.5,-1.1Z" class="ga_343"/>
<path d="M233.3,790.5c0,0,-13,0,-13,13v21.6c0,0,0,13,13,13H854.9c0,0,13,0,13,-13V803.5c0,0,0,-13,-13,-13Z" class="ga_343"/>
<image clip-path="url(#cf_343)" preserveAspectRatio="none" x="176" y="761" width="75" height="76" xlink:href="img/18.png"/>
<path d="M228.1,830.8c0,0,-26.8,11.3,-51.1,-12.8c0,0,15.2,25.3,49.3,24c0,0,24.8,.3,20.3,-10.1c0,0,1.2,-4.5,-18.5,-1.1Z" class="ga_343"/>
<path d="M32.1,179.3H967.5V32.1H32.1V179.3Z" class="gb_343"/>
<g clip-path="url(#c0_343)">
<path d="M967.5,177.2H-877.3v-5.4h736.6c43.1,0,53.1,-37.9,115.3,-37.9H967.5Z" class="gc_343"/>
<path d="M967.5,183.7H-877.3v-9.8h736.6c43.1,0,53.1,-33.6,115.3,-33.6H967.5Z" class="gd_343"/>
</g>
<image clip-path="url(#cg_343)" preserveAspectRatio="none" x="659" y="59" width="200" height="118" xlink:href="img/19.png"/>
<path d="M153.3,217.5v22.2L165,250V227.8Z" class="ge_343"/>
<path d="M153.3,200.7v39H851.1c0,0,16.8,0,16.8,-16.8v-5.4c0,0,0,-16.8,-16.8,-16.8Z" class="g7_343"/>
<path d="M211.3,212.1l-6.5,-6.4l-21.2,21.2l6.5,6.4Z" class="gf_343"/>
<path d="M190.1,233.9c.1,0,.3,-.1,.4,-.2l21.2,-21.2c.1,-.1,.1,-.2,.1,-.4c0,-.1,0,-.2,-.1,-.3l-6.5,-6.5c-.2,-.2,-.6,-.2,-.8,0l-21.2,21.2c-.1,.1,-.1,.2,-.1,.4c0,.1,0,.2,.1,.3l6.5,6.5c.1,.1,.3,.2,.4,.2m20.5,-21.8l-20.5,20.5l-5.8,-5.7l20.5,-20.5Z" class="gg_343"/>
<path d="M211.3,212.1l-6.5,-6.4l2.1,-2.2l6.5,6.5Z" class="gh_343"/>
<path d="M211.3,212.7c.1,0,.3,-.1,.4,-.2l2.1,-2.1c.1,-.1,.2,-.2,.2,-.4c0,-.1,-.1,-.3,-.2,-.4l-6.5,-6.4c-.2,-.3,-.5,-.3,-.7,0l-2.2,2.1c-.1,.1,-.1,.2,-.1,.4c0,.1,0,.2,.1,.3l6.5,6.5c.1,.1,.3,.2,.4,.2m1.4,-2.7l-1.4,1.4l-5.7,-5.7l1.3,-1.4Z" class="gg_343"/>
<path d="M217,206.4l-6.4,-6.5l-3.7,3.6l6.5,6.5Z" class="gi_343"/>
<path d="M213.4,210.5c.2,0,.3,0,.4,-.1l3.6,-3.6c.2,-.2,.2,-.6,0,-.8l-6.5,-6.5c-.2,-.2,-.5,-.2,-.7,0l-3.6,3.7c-.2,.2,-.2,.5,0,.7l6.5,6.5c.1,.1,.2,.1,.3,.1m2.9,-4.1l-2.9,2.9l-5.7,-5.8l2.9,-2.8Z" class="gg_343"/>
<path d="M179,238l4.6,-11.1l6.5,6.4Z" class="g1_343"/>
<path d="M179,238.5c0,0,.1,0,.2,0l11.1,-4.7c.2,0,.3,-.2,.3,-.4c0,-.1,0,-.3,-.1,-.4L184,226.5c-.1,-.1,-.3,-.2,-.5,-.1c-.2,0,-.3,.1,-.4,.3l-4.6,11.1c-.1,.2,0,.4,.1,.6c.1,.1,.2,.1,.4,.1m10.2,-5.3l-9.3,3.8l3.9,-9.2Z" class="gg_343"/>
<path d="M179,238l2.2,-5.4l3.1,3.1Z" class="gg_343"/>
<path d="M179,238.5c0,0,.1,0,.2,0l5.3,-2.3c.2,0,.3,-.2,.4,-.4c0,-.1,-.1,-.3,-.2,-.4l-3.1,-3.2c-.1,-.1,-.3,-.1,-.5,-.1c-.2,0,-.3,.2,-.4,.3l-2.2,5.4c-.1,.2,0,.4,.1,.6c.1,.1,.2,.1,.4,.1m4.4,-2.9l-3.5,1.4l1.5,-3.5Z" class="gg_343"/>
<path d="M209.5,210.4l-2.9,-3l-21.2,21.2l2.9,3Z" class="gj_343"/>
<path d="M188.3,232.1c.2,0,.3,0,.4,-.1l21.2,-21.2c.1,-.1,.2,-.3,.2,-.4c0,-.2,-.1,-.3,-.2,-.4l-3,-3c-.2,-.2,-.5,-.2,-.7,0L185,228.3c-.1,.1,-.2,.2,-.2,.3c0,.2,.1,.3,.2,.4l3,3c.1,.1,.2,.1,.3,.1m20.5,-21.7l-20.5,20.4l-2.2,-2.2l20.5,-20.4Z" class="gg_343"/>
<path d="M32.1,45.1H9.2m958.3,0h22.9M32.1,1331.3H9.2m958.3,0h22.9M45.1,32.1V9.2m0,1335.1v22.9M954.5,32.1V9.2m0,1335.1v22.9" class="gk_343"/>
<path d="M32.1,45.1H9.2m958.3,0h22.9M32.1,1331.3H9.2m958.3,0h22.9M45.1,32.1V9.2m0,1335.1v22.9M954.5,32.1V9.2m0,1335.1v22.9" class="gl_343"/>
<path d="M27.5,32.1H0m972.1,0h27.5M27.5,1344.3H0m972.1,0h27.5M32.1,27.5V0m0,1348.9v27.5M967.5,27.5V0m0,1348.9v27.5" class="gk_343"/>
<path d="M27.5,32.1H0m972.1,0h27.5M27.5,1344.3H0m972.1,0h27.5M32.1,27.5V0m0,1348.9v27.5M967.5,27.5V0m0,1348.9v27.5" class="gl_343"/>
</svg>