<?xml version="1.0" encoding="UTF-8" standalone="no"?>
<!DOCTYPE svg PUBLIC "-//W3C//DTD SVG 1.1//EN"
"http://www.w3.org/Graphics/SVG/1.1/DTD/svg11.dtd">
<svg viewBox="0 0 999 1376" version="1.1" xmlns="http://www.w3.org/2000/svg" xmlns:xlink="http://www.w3.org/1999/xlink">
<defs>
<clipPath id="c0_39"><path d="M32.1,1344.3V32.1H967.5V1344.3Z"/></clipPath>
<clipPath id="c1_39"><path d="M203.3,296.1l-6.5,-2L182.7,282.9V222h62.7v74.1Z"/></clipPath>
<style type="text/css"><![CDATA[
.g0_39{
fill: #FFFDEA;
}
.g1_39{
fill: #BCE4EA;
}
.g2_39{
fill: #BCBEC0;
}
.g3_39{
fill: #00AABD;
}
.g4_39{
fill: #FCDCBA;
}
.g5_39{
fill: #DED3E8;
}
.g6_39{
fill: #FFF;
}
.g7_39{
fill: none;
stroke: #6D6F71;
stroke-width: 0.305;
stroke-miterlimit: 10;
}
.g8_39{
fill: none;
stroke: #D1232A;
stroke-width: 0.763;
}
.g9_39{
fill: none;
stroke: #FFF;
stroke-width: 1.909;
stroke-miterlimit: 10;
}
.ga_39{
fill: none;
stroke: #000;
stroke-width: 0.381;
stroke-miterlimit: 10;
}
]]></style>
</defs>
<g clip-path="url(#c0_39)">
<path d="M-877.3,1344.3H967.5V32.1H-877.3V1344.3Z" class="g0_39"/>
<path d="M-877.3,179.3H967.5V32.1H-877.3V179.3Z" class="g1_39"/>
<path d="M967.5,177.2H-877.3v-5.4h736.6c43.1,0,53.1,-37.9,115.3,-37.9H967.5Z" class="g2_39"/>
<path d="M967.5,183.7H-877.3v-9.8h736.6c43.1,0,53.1,-33.6,115.3,-33.6H967.5Z" class="g3_39"/>
</g>
<path d="M235.9,251.1c0,0,-13,0,-13,13v21.7c0,0,0,13,13,13h619c0,0,13,0,13,-13V264.1c0,0,0,-13,-13,-13Z" class="g4_39"/>
<image clip-path="url(#c1_39)" preserveAspectRatio="none" x="183" y="221" width="62" height="77" xlink:href="img/1.png"/>
<path d="M230.7,291.4c0,0,-26.9,11.3,-51.1,-12.8c0,0,15.1,25.4,49.3,24c0,0,24.7,.4,20.2,-10.1c0,0,1.2,-4.5,-18.4,-1.1Z" class="g4_39"/>
<path d="M179.5,332.8H287.7v43.3H179.5V332.8Zm108.2,0H396v43.3H287.7V332.8Zm108.3,0H867.8v43.3H396V332.8Z" class="g5_39"/>
<path d="M179.5,376.1H287.7v65H179.5v-65Zm108.2,0H396v65H287.7v-65Zm108.3,0h78.6v65H396v-65Zm78.6,0h78.7v65H474.6v-65Zm78.7,0h78.6v65H553.3v-65Zm78.6,0h78.6v65H631.9v-65Zm78.6,0h78.6v65H710.5v-65Zm78.6,0h78.7v65H789.1v-65Zm-609.6,65H287.7V506H179.5V441.1Zm108.2,0H396V506H287.7V441.1Zm108.3,0h78.6V506H396V441.1Zm78.6,0h78.7V506H474.6V441.1Zm78.7,0h78.6V506H553.3V441.1Zm78.6,0h78.6V506H631.9V441.1Zm78.6,0h78.6V506H710.5V441.1Zm78.6,0h78.7V506H789.1V441.1ZM179.5,506H287.7v65H179.5V506Zm108.2,0H396v65H287.7V506ZM396,506h78.6v65H396V506Zm78.6,0h78.7v65H474.6V506Zm78.7,0h78.6v65H553.3V506Zm78.6,0h78.6v65H631.9V506Zm78.6,0h78.6v65H710.5V506Zm78.6,0h78.7v65H789.1V506ZM179.5,571H287.7v65H179.5V571Zm108.2,0H396v65H287.7V571ZM396,571h78.6v65H396V571Zm78.6,0h78.7v65H474.6V571Zm78.7,0h78.6v65H553.3V571Zm78.6,0h78.6v65H631.9V571Zm78.6,0h78.6v65H710.5V571Zm78.6,0h78.7v65H789.1V571ZM179.5,636H287.7v64.9H179.5V636Zm108.2,0H396v64.9H287.7V636ZM396,636h78.6v64.9H396V636Zm78.6,0h78.7v64.9H474.6V636Zm78.7,0h78.6v64.9H553.3V636Zm78.6,0h78.6v64.9H631.9V636Zm78.6,0h78.6v64.9H710.5V636Zm78.6,0h78.7v64.9H789.1V636ZM179.5,700.9H287.7v65H179.5v-65Zm108.2,0H396v65H287.7v-65Zm108.3,0h78.6v65H396v-65Zm78.6,0h78.7v65H474.6v-65Zm78.7,0h78.6v65H553.3v-65Zm78.6,0h78.6v65H631.9v-65Zm78.6,0h78.6v65H710.5v-65Zm78.6,0h78.7v65H789.1v-65Zm-609.6,65H287.7v64.9H179.5V765.9Zm108.2,0H396v64.9H287.7V765.9Zm108.3,0h78.6v64.9H396V765.9Zm78.6,0h78.7v64.9H474.6V765.9Zm78.7,0h78.6v64.9H553.3V765.9Zm78.6,0h78.6v64.9H631.9V765.9Zm78.6,0h78.6v64.9H710.5V765.9Zm78.6,0h78.7v64.9H789.1V765.9ZM179.5,830.8H287.7v65H179.5v-65Zm108.2,0H396v65H287.7v-65Zm108.3,0h78.6v65H396v-65Zm78.6,0h78.7v65H474.6v-65Zm78.7,0h78.6v65H553.3v-65Zm78.6,0h78.6v65H631.9v-65Zm78.6,0h78.6v65H710.5v-65Zm78.6,0h78.7v65H789.1v-65Zm-609.6,65H287.7v65H179.5v-65Zm108.2,0H396v65H287.7v-65Zm108.3,0h78.6v65H396v-65Zm78.6,0h78.7v65H474.6v-65Zm78.7,0h78.6v65H553.3v-65Zm78.6,0h78.6v65H631.9v-65Zm78.6,0h78.6v65H710.5v-65Zm78.6,0h78.7v65H789.1v-65Zm-609.6,65H287.7v64.9H179.5V960.8Zm108.2,0H396v64.9H287.7V960.8Zm108.3,0h78.6v64.9H396V960.8Zm78.6,0h78.7v64.9H474.6V960.8Zm78.7,0h78.6v64.9H553.3V960.8Zm78.6,0h78.6v64.9H631.9V960.8Zm78.6,0h78.6v64.9H710.5V960.8Zm78.6,0h78.7v64.9H789.1V960.8Z" class="g6_39"/>
<path d="M179.5,440.9V376.3m108.2,64.6V376.3M396,440.9V376.3m78.6,64.6V376.3m78.7,64.6V376.3m78.6,64.6V376.3m78.6,64.6V376.3m78.6,64.6V376.3m78.7,64.6V376.3M179.3,441.1H287.7M179.5,505.9V441.2m108.2,-.1H396M287.7,505.9V441.2M396,441.1h78.6M396,505.9V441.2m78.6,-.1h78.7m-78.7,64.8V441.2m78.7,-.1h78.6m-78.6,64.8V441.2m78.6,-.1h78.6m-78.6,64.8V441.2m78.6,-.1h78.6m-78.6,64.8V441.2m78.6,-.1h78.8m-78.8,64.8V441.2m78.7,64.7V441.2M179.3,506H287.7M179.5,570.9V506.2M287.7,506H396M287.7,570.9V506.2M396,506h78.6M396,570.9V506.2m78.6,-.2h78.7m-78.7,64.9V506.2m78.7,-.2h78.6m-78.6,64.9V506.2m78.6,-.2h78.6m-78.6,64.9V506.2m78.6,-.2h78.6m-78.6,64.9V506.2m78.6,-.2h78.8m-78.8,64.9V506.2m78.7,64.7V506.2M179.3,571H287.7M179.5,635.8V571.2M287.7,571H396M287.7,635.8V571.2M396,571h78.6M396,635.8V571.2m78.6,-.2h78.7m-78.7,64.8V571.2m78.7,-.2h78.6m-78.6,64.8V571.2m78.6,-.2h78.6m-78.6,64.8V571.2m78.6,-.2h78.6m-78.6,64.8V571.2m78.6,-.2h78.8m-78.8,64.8V571.2m78.7,64.6V571.2M179.3,636H287.7M179.5,700.8V636.1M287.7,636H396M287.7,700.8V636.1M396,636h78.6M396,700.8V636.1m78.6,-.1h78.7m-78.7,64.8V636.1m78.7,-.1h78.6m-78.6,64.8V636.1m78.6,-.1h78.6m-78.6,64.8V636.1m78.6,-.1h78.6m-78.6,64.8V636.1m78.6,-.1h78.8m-78.8,64.8V636.1m78.7,64.7V636.1M179.3,700.9H287.7M179.5,765.7V701.1m108.2,-.2H396M287.7,765.7V701.1M396,700.9h78.6M396,765.7V701.1m78.6,-.2h78.7m-78.7,64.8V701.1m78.7,-.2h78.6m-78.6,64.8V701.1m78.6,-.2h78.6m-78.6,64.8V701.1m78.6,-.2h78.6m-78.6,64.8V701.1m78.6,-.2h78.8m-78.8,64.8V701.1m78.7,64.6V701.1M179.3,765.9H287.7M179.5,830.7V766m108.2,-.1H396M287.7,830.7V766M396,765.9h78.6M396,830.7V766m78.6,-.1h78.7m-78.7,64.8V766m78.7,-.1h78.6m-78.6,64.8V766m78.6,-.1h78.6m-78.6,64.8V766m78.6,-.1h78.6m-78.6,64.8V766m78.6,-.1h78.8m-78.8,64.8V766m78.7,64.7V766M179.3,830.8H287.7M179.5,895.7V831m108.2,-.2H396M287.7,895.7V831M396,830.8h78.6M396,895.7V831m78.6,-.2h78.7m-78.7,64.9V831m78.7,-.2h78.6m-78.6,64.9V831m78.6,-.2h78.6m-78.6,64.9V831m78.6,-.2h78.6m-78.6,64.9V831m78.6,-.2h78.8m-78.8,64.9V831m78.7,64.7V831M179.3,895.8H287.7M179.5,960.6V896m108.2,-.2H396M287.7,960.6V896M396,895.8h78.6M396,960.6V896m78.6,-.2h78.7m-78.7,64.8V896m78.7,-.2h78.6m-78.6,64.8V896m78.6,-.2h78.6m-78.6,64.8V896m78.6,-.2h78.6m-78.6,64.8V896m78.6,-.2h78.8m-78.8,64.8V896m78.7,64.6V896M179.3,960.8H287.7m-108.2,64.8V960.9m108.2,-.1H396m-108.3,64.8V960.9M396,960.8h78.6M396,1025.6V960.9m78.6,-.1h78.7m-78.7,64.8V960.9m78.7,-.1h78.6m-78.6,64.8V960.9m78.6,-.1h78.6m-78.6,64.8V960.9m78.6,-.1h78.6m-78.6,64.8V960.9m78.6,-.1h78.8m-78.8,64.8V960.9m78.7,64.7V960.9m-688.5,64.8H287.7m0,0H396m0,0h78.6m0,0h78.7m0,0h78.6m0,0h78.6m0,0h78.6m0,0h78.8M179.3,332.8H287.7M179.5,376V333m-.2,43.1H287.7m0,-43.3H396M287.7,376V333m0,43.1H396m0,-43.3h78.6M396,376V333m78.6,-.2h78.7m0,0h78.6m0,0h78.6m0,0h78.6m0,0h78.8m-.1,43.2V333M396,376.1h78.6m0,0h78.7m0,0h78.6m0,0h78.6m0,0h78.6m0,0h78.8" class="g7_39"/>
<path d="M334.4,397.6h21.4v16.8m-2.5,-4.6l2.5,4.8l2.6,-4.7M333.3,592.5h21.5V605m-2.5,-4.7l2.4,4.9l2.7,-4.8M331.8,602v11.1h19m-4.7,-2.5L351,613l-4.8,2.7M334,600.1h14.1m-4.6,-2.5l4.8,2.4l-4.7,2.7m-9.4,55.2h21.4v15.5m-2.5,-4.7l2.4,4.9l2.7,-4.8m-23,9.6h15.5M346,676l4.9,2.4l-4.8,2.7m-15,-20.2V675m2.4,-4.6l-2.4,4.8l-2.7,-4.7m2.5,-204v17.1h20.7m-4.7,-2.5l4.9,2.4l-4.8,2.7m-16.1,45.9v17.1h20.7m-4.7,-2.4l4.9,2.4l-4.8,2.7M330.9,526h20.7m-4.7,-2.5l4.9,2.4l-4.8,2.7M333.2,923.4H340c0,0,2.6,0,.3,1.3l-9.4,5.2m4.4,.3l-5.4,.2l3,-4.6m13.5,-.3l10,5.6m-5.3,-.2l5.4,.3l-2.8,-4.7M339.8,789.8l-8.7,11.1m4.8,-2.2l-4.9,2.4l.8,-5.4m14.9,-5.9l8.7,11.1m-4.8,-2.2l4.9,2.4l-.8,-5.4m-19,-66.6h14.1m-4.7,-2.5l4.9,2.5l-4.8,2.6m-9.5,9.5h14.1m-4.7,-2.4l4.9,2.4l-4.8,2.7M331.1,724.8v14.1m2.4,-4.7l-2.4,4.9l-2.7,-4.8m26.5,-9.5v14.1m2.5,-4.7l-2.5,4.9l-2.7,-4.8M356.3,855l-4.9,-2.4l.8,5.5m-13.3,-7.5c-4.7,1.7,-8,6.3,-8,11.6c0,6.8,5.5,12.3,12.2,12.3c6.8,0,12.3,-5.5,12.3,-12.3c0,-3.4,-1.4,-6.5,-3.6,-8.7M338.3,980.7h10.6m-4.6,-2.5l4.8,2.5l-4.7,2.7m-10,3.8h18.9m-4.7,-2.5l4.9,2.5l-4.8,2.7m5,3L348.8,991l.8,4.5m-9.2,-5.1c-3.3,.7,-5.7,2.6,-5.7,4.8c0,2.8,3.9,5.1,8.6,5.1c4.7,0,8.5,-2.3,8.5,-5.1c0,-1.4,-1,-2.7,-2.5,-3.6" class="g8_39"/>
<path d="M32.1,45.1H9.2m958.3,0h22.9M32.1,1331.3H9.2m958.3,0h22.9M45.1,32.1V9.2m0,1335.1v22.9M954.5,32.1V9.2m0,1335.1v22.9" class="g9_39"/>
<path d="M32.1,45.1H9.2m958.3,0h22.9M32.1,1331.3H9.2m958.3,0h22.9M45.1,32.1V9.2m0,1335.1v22.9M954.5,32.1V9.2m0,1335.1v22.9" class="ga_39"/>
<path d="M27.5,32.1H0m972.1,0h27.5M27.5,1344.3H0m972.1,0h27.5M32.1,27.5V0m0,1348.9v27.5M967.5,27.5V0m0,1348.9v27.5" class="g9_39"/>
<path d="M27.5,32.1H0m972.1,0h27.5M27.5,1344.3H0m972.1,0h27.5M32.1,27.5V0m0,1348.9v27.5M967.5,27.5V0m0,1348.9v27.5" class="ga_39"/>
</svg>