<?xml version="1.0" encoding="UTF-8" standalone="no"?>
<!DOCTYPE svg PUBLIC "-//W3C//DTD SVG 1.1//EN"
"http://www.w3.org/Graphics/SVG/1.1/DTD/svg11.dtd">
<svg viewBox="0 0 999 1376" version="1.1" xmlns="http://www.w3.org/2000/svg" xmlns:xlink="http://www.w3.org/1999/xlink">
<defs>
<clipPath id="c0_214"><path d="M197.2,383.1v-132H351.6v132Z"/></clipPath>
<clipPath id="c1_214"><path d="M410.7,383.1v-132H580.9v132Z"/></clipPath>
<clipPath id="c2_214"><path d="M639.4,383.1v-132H809.5v132Z"/></clipPath>
<clipPath id="c3_214"><path d="M195.7,568.6V436.5H342.6V568.6Z"/></clipPath>
<clipPath id="c4_214"><path d="M410.7,568.6V436.5H580.9V568.6Z"/></clipPath>
<clipPath id="c5_214"><path d="M642.5,568.6V436.5H804.8V568.6Z"/></clipPath>
<clipPath id="c6_214"><path d="M208,759.4v-132H349.1v132Z"/></clipPath>
<clipPath id="c7_214"><path d="M411.9,759.4v-132H580.3v132Z"/></clipPath>
<clipPath id="c8_214"><path d="M639.4,759.4v-132H809.5v132Z"/></clipPath>
<clipPath id="c9_214"><path d="M637.9,1080V991.6h99.3V1080Z"/></clipPath>
<clipPath id="ca_214"><path d="M507.2,1080V991.6h98.5V1080Z"/></clipPath>
<clipPath id="cb_214"><path d="M366.1,1080V991.6h92.7V1080Z"/></clipPath>
<clipPath id="cc_214"><path d="M227,1080V991.6h95.2V1080Z"/></clipPath>
<clipPath id="cd_214"><path d="M176.6,230.8l-6.5,-2.1L153.7,214.8V157.7h72v73.1Z"/></clipPath>
<clipPath id="ce_214"><path d="M176.6,908.3l-6.5,-2.1L153.7,892.3V835.2h72v73.1Z"/></clipPath>
<style type="text/css"><![CDATA[
.g0_214{
fill: #FEFCF4;
}
.g1_214{
fill: #FFF;
}
.g2_214{
fill: none;
stroke: #6381B7;
stroke-width: 0.763;
}
.g3_214{
fill: none;
stroke: #949698;
stroke-width: 1.344;
}
.g4_214{
fill: #6381B7;
}
.g5_214{
fill: none;
stroke: #6381B7;
stroke-width: 0.381;
stroke-dasharray: 2,1;
}
.g6_214{
fill: none;
stroke: #6381B7;
stroke-width: 0.381;
}
.g7_214{
fill: none;
stroke: #949698;
stroke-width: 0.458;
}
.g8_214{
fill: #48484A;
}
.g9_214{
fill: #F0E8F3;
}
.ga_214{
fill: #766FA6;
}
.gb_214{
fill: #FCE8B0;
}
.gc_214{
fill: #25408F;
}
.gd_214{
fill: #00BAF1;
}
.ge_214{
fill: #332D2C;
}
.gf_214{
fill: #D9DFF0;
}
.gg_214{
fill: #F27C85;
}
.gh_214{
fill: #7DD3F6;
}
.gi_214{
fill: none;
stroke: #FFF;
stroke-width: 1.909;
stroke-miterlimit: 10;
}
.gj_214{
fill: none;
stroke: #000;
stroke-width: 0.381;
stroke-miterlimit: 10;
}
]]></style>
</defs>
<path d="M32.1,1344.3H954.5V32.1H32.1V1344.3Z" class="g0_214"/>
<path d="M150.9,133.7c0,0,-18.3,0,-18.3,18.3V798.8c0,0,0,18.4,18.3,18.4H828c0,0,18.4,0,18.4,-18.4V133.7Z" class="g1_214"/>
<path d="M150.9,133.7c0,0,-18.3,0,-18.3,18.3V798.8c0,0,0,18.4,18.3,18.4H828c0,0,18.4,0,18.4,-18.4V133.7H150.9Z" class="g2_214"/>
<image clip-path="url(#c0_214)" preserveAspectRatio="none" x="197" y="249" width="155" height="135" xlink:href="img/1.jpg"/>
<path d="M182,383.1H352.2v-132H182v132Z" class="g3_214"/>
<image clip-path="url(#c1_214)" preserveAspectRatio="none" x="409" y="250" width="173" height="134" xlink:href="img/2.jpg"/>
<path d="M410.7,383.1H580.9v-132H410.7v132Z" class="g3_214"/>
<image clip-path="url(#c2_214)" preserveAspectRatio="none" x="638" y="250" width="173" height="134" xlink:href="img/3.jpg"/>
<path d="M639.4,383.1H809.5v-132H639.4v132Z" class="g3_214"/>
<path d="M165.2,574.5H823.6V429.4H165.2V574.5Z" class="g1_214"/>
<image clip-path="url(#c3_214)" preserveAspectRatio="none" x="196" y="435" width="147" height="135" xlink:href="img/4.jpg"/>
<path d="M182,568.6H352.2V436.5H182V568.6Z" class="g3_214"/>
<image clip-path="url(#c4_214)" preserveAspectRatio="none" x="409" y="435" width="172" height="135" xlink:href="img/5.jpg"/>
<path d="M410.7,568.6H580.9V436.5H410.7V568.6Z" class="g3_214"/>
<image clip-path="url(#c5_214)" preserveAspectRatio="none" x="642" y="435" width="163" height="134" xlink:href="img/6.jpg"/>
<path d="M639.4,568.6H809.5V436.5H639.4V568.6Z" class="g3_214"/>
<path d="M165.2,762.9H823.6V615.6H165.2V762.9Z" class="g1_214"/>
<image clip-path="url(#c6_214)" preserveAspectRatio="none" x="208" y="626" width="141" height="135" xlink:href="img/7.jpg"/>
<path d="M182,759.4H352.2v-132H182v132Z" class="g3_214"/>
<image clip-path="url(#c7_214)" preserveAspectRatio="none" x="412" y="626" width="168" height="135" xlink:href="img/8.jpg"/>
<path d="M410.7,759.4H580.9v-132H410.7v132Z" class="g3_214"/>
<image clip-path="url(#c8_214)" preserveAspectRatio="none" x="638" y="626" width="173" height="135" xlink:href="img/9.jpg"/>
<path d="M639.4,759.4H809.5v-132H639.4v132Z" class="g3_214"/>
<path d="M570.3,1214.8c0,0,-4.3,0,-4.3,4.4V1230c0,0,0,4.3,4.3,4.3h30.4c0,0,4.3,0,4.3,-4.3v-10.8c0,0,0,-4.4,-4.3,-4.4Z" class="g4_214"/>
<path d="M557.2,1206v37.5m1.3,1H845.1m1,-1.3v-37.6m-1.4,-1H558.1" class="g5_214"/>
<path d="M557.2,1243.9v.6h.5m287.8,0h.6v-.6m0,-38.7v-.6h-.6m-287.8,0h-.5v.6" class="g6_214"/>
<path d="M145.1,923.3c0,0,-13,0,-13,13v244.5c0,0,0,13,13,13H832.9c0,0,13,0,13,-13V936.3c0,0,0,-13,-13,-13Z" class="g1_214"/>
<path d="M145.1,923.3c0,0,-13,0,-13,13v244.5c0,0,0,13,13,13H832.9c0,0,13,0,13,-13V936.3c0,0,0,-13,-13,-13H145.1Z" class="g2_214"/>
<image clip-path="url(#c9_214)" preserveAspectRatio="none" x="637" y="991" width="100" height="90" xlink:href="img/10.jpg"/>
<path d="M637.9,1110H738.3v-30.7H637.9V1110Z" class="g1_214"/>
<path d="M637.9,1110H738.3v-30.7H637.9V1110Z" class="g7_214"/>
<image clip-path="url(#ca_214)" preserveAspectRatio="none" x="507" y="990" width="99" height="91" xlink:href="img/11.jpg"/>
<path d="M505.3,1110H605.7v-30.7H505.3V1110Z" class="g1_214"/>
<path d="M505.3,1110H605.7v-30.7H505.3V1110Z" class="g7_214"/>
<image clip-path="url(#cb_214)" preserveAspectRatio="none" x="365" y="990" width="94" height="91" xlink:href="img/12.jpg"/>
<path d="M366.1,1110H466.5v-30.7H366.1V1110Z" class="g1_214"/>
<path d="M366.1,1110H466.5v-30.7H366.1V1110Z" class="g7_214"/>
<image clip-path="url(#cc_214)" preserveAspectRatio="none" x="226" y="990" width="96" height="91" xlink:href="img/13.jpg"/>
<path d="M227,1110H327.4v-30.7H227V1110Z" class="g1_214"/>
<path d="M227,1110H327.4v-30.7H227V1110Z" class="g7_214"/>
<path d="M171.4,1135.8c0,0,-4.3,0,-4.3,4.3v14.7c0,0,0,4.4,4,5.8l52.5,18.5c0,0,4.1,1.5,4.1,-2.8v-36.2c0,0,0,-4.3,-4.3,-4.3Z" class="g8_214"/>
<path d="M192.5,1122.8c0,0,-13,0,-13,13v30.6c0,0,0,13,13,13H797.9c0,0,13,0,13,-13v-30.6c0,0,0,-13,-13,-13Z" class="g9_214"/>
<path d="M171.4,1133.6c0,0,-4.3,0,-4.3,4.3v17.3c0,0,0,4.4,4.3,4.4h37.3c0,0,4.3,0,4.3,-4.4v-17.3c0,0,0,-4.3,-4.3,-4.3Z" class="ga_214"/>
<path d="M230.2,1105.7h13V1084h-13v21.7Z" class="g1_214"/>
<path d="M369.7,1105.7h13V1084h-13v21.7Z" class="g1_214"/>
<path d="M508.7,1105.7h13V1084h-13v21.7Z" class="g1_214"/>
<path d="M641.2,1105.7h13V1084h-13v21.7Z" class="g1_214"/>
<path d="M186.8,984.3H709.1V962.9H186.8v21.4Z" class="g1_214"/>
<path d="M209.2,185.8c0,0,-13,0,-13,13v21.7c0,0,0,13,13,13h602c0,0,13,0,13,-13V198.8c0,0,0,-13,-13,-13Z" class="gb_214"/>
<image clip-path="url(#cd_214)" preserveAspectRatio="none" x="152" y="156" width="75" height="76" xlink:href="img/14.png"/>
<path d="M204,226.1c0,0,-26.8,11.3,-51.1,-12.8c0,0,15.2,25.4,49.3,24c0,0,24.8,.4,20.3,-10.1c0,0,1.2,-4.5,-18.5,-1.1Z" class="gb_214"/>
<path d="M209.2,863.3c0,0,-13,0,-13,13V898c0,0,0,12.9,13,12.9H830.8c0,0,13,0,13,-12.9V876.3c0,0,0,-13,-13,-13Z" class="gb_214"/>
<image clip-path="url(#ce_214)" preserveAspectRatio="none" x="152" y="834" width="75" height="76" xlink:href="img/15.png"/>
<path d="M204,903.6c0,0,-26.8,11.3,-51.1,-12.8c0,0,15.2,25.3,49.3,24c0,0,24.8,.3,20.3,-10.1c0,0,1.2,-4.5,-18.5,-1.1Z" class="gb_214"/>
<path d="M131.7,126.7v22.2l11.7,10.3V137Z" class="gc_214"/>
<path d="M131.7,109.9v39H829.4c0,0,16.9,0,16.9,-16.8v-5.4c0,0,0,-16.8,-16.9,-16.8Z" class="g4_214"/>
<path d="M189.6,121.3l-6.4,-6.5L162,136l6.4,6.5Z" class="gd_214"/>
<path d="M168.4,143c.2,0,.3,0,.4,-.1L190,121.7c.1,-.1,.2,-.3,.2,-.4c0,-.1,-.1,-.3,-.2,-.4l-6.5,-6.4c-.2,-.2,-.5,-.2,-.7,0l-21.2,21.2c-.1,.1,-.2,.2,-.2,.3c0,.2,.1,.3,.2,.4l6.5,6.5c.1,.1,.2,.1,.3,.1m20.5,-21.7l-20.5,20.5L162.7,136l20.5,-20.4Z" class="ge_214"/>
<path d="M189.6,121.3l-6.4,-6.5l2.1,-2.1l6.5,6.5Z" class="gf_214"/>
<path d="M189.6,121.8c.2,0,.3,0,.4,-.1l2.1,-2.1c.1,-.1,.2,-.3,.2,-.4c0,-.2,-.1,-.3,-.2,-.4l-6.4,-6.5c-.2,-.2,-.6,-.2,-.8,0l-2.1,2.2c-.1,0,-.2,.2,-.2,.3c0,.2,.1,.3,.2,.4l6.5,6.5c.1,.1,.2,.1,.3,.1m1.4,-2.6l-1.4,1.4l-5.7,-5.8l1.4,-1.4Z" class="ge_214"/>
<path d="M195.4,115.6l-6.5,-6.5l-3.6,3.6l6.5,6.5Z" class="gg_214"/>
<path d="M191.8,119.7c.1,0,.2,0,.3,-.1l3.7,-3.7c.2,-.2,.2,-.5,0,-.7l-6.5,-6.5c-.2,-.2,-.6,-.2,-.8,0l-3.6,3.6c-.2,.2,-.2,.6,0,.8l6.5,6.5c.1,.1,.2,.1,.4,.1m2.8,-4.1l-2.8,2.8L186,112.7l2.9,-2.9Z" class="ge_214"/>
<path d="M157.3,147.2L162,136l6.4,6.5Z" class="g1_214"/>
<path d="M157.3,147.7c.1,0,.2,0,.2,-.1L168.6,143c.2,-.1,.3,-.2,.4,-.4c0,-.2,-.1,-.3,-.2,-.5l-6.5,-6.4c-.1,-.2,-.3,-.2,-.5,-.2c-.1,.1,-.3,.2,-.3,.3l-4.7,11.1c0,.2,0,.5,.1,.6c.1,.1,.3,.2,.4,.2m10.2,-5.4l-9.2,3.9l3.8,-9.2Z" class="ge_214"/>
<path d="M157.3,147.2l2.3,-5.4l3.1,3.1Z" class="ge_214"/>
<path d="M157.3,147.7c.1,0,.2,0,.2,-.1l5.4,-2.2c.1,-.1,.3,-.2,.3,-.4c0,-.2,0,-.3,-.1,-.5l-3.2,-3.1c-.1,-.1,-.3,-.2,-.4,-.1c-.2,0,-.4,.1,-.4,.3l-2.3,5.3c0,.2,0,.5,.1,.6c.1,.1,.3,.2,.4,.2m4.5,-3l-3.5,1.5l1.4,-3.5Z" class="ge_214"/>
<path d="M187.9,119.5l-3,-2.9l-21.2,21.2l3,3Z" class="gh_214"/>
<path d="M166.7,141.3c.1,0,.2,-.1,.3,-.2l21.3,-21.2c.1,-.1,.1,-.2,.1,-.4c0,-.1,0,-.2,-.1,-.3l-3,-3c-.2,-.2,-.5,-.2,-.8,0l-21.2,21.2c-.1,.1,-.1,.3,-.1,.4c0,.1,0,.3,.1,.4l3,2.9c.1,.1,.2,.2,.4,.2m20.4,-21.8L166.7,140l-2.2,-2.2l20.4,-20.5Z" class="ge_214"/>
<path d="M32.1,45.1H9.2m958.3,0h22.9M32.1,1331.3H9.2m958.3,0h22.9M45.1,32.1V9.2m0,1335.1v22.9M954.5,32.1V9.2m0,1335.1v22.9" class="gi_214"/>
<path d="M32.1,45.1H9.2m958.3,0h22.9M32.1,1331.3H9.2m958.3,0h22.9M45.1,32.1V9.2m0,1335.1v22.9M954.5,32.1V9.2m0,1335.1v22.9" class="gj_214"/>
<path d="M27.5,32.1H0m972.1,0h27.5M27.5,1344.3H0m972.1,0h27.5M32.1,27.5V0m0,1348.9v27.5M967.5,27.5V0m0,1348.9v27.5" class="gi_214"/>
<path d="M27.5,32.1H0m972.1,0h27.5M27.5,1344.3H0m972.1,0h27.5M32.1,27.5V0m0,1348.9v27.5M967.5,27.5V0m0,1348.9v27.5" class="gj_214"/>
</svg>