<?xml version="1.0" encoding="UTF-8" standalone="no"?>
<!DOCTYPE svg PUBLIC "-//W3C//DTD SVG 1.1//EN"
"http://www.w3.org/Graphics/SVG/1.1/DTD/svg11.dtd">
<svg viewBox="0 0 999 1376" version="1.1" xmlns="http://www.w3.org/2000/svg" xmlns:xlink="http://www.w3.org/1999/xlink">
<defs>
<clipPath id="c0_260"><path d="M32.1,1344.3V32.1H967.5V1344.3Z"/></clipPath>
<clipPath id="c1_260"><path d="M179.3,1091.8l-6.5,-2.1l-16.4,-13.9v-57.1h72v73.1Z"/></clipPath>
<clipPath id="c2_260"><path d="M179.3,520.8l-6.5,-2.1L156.4,504.8V447.7h72v73.1Z"/></clipPath>
<clipPath id="c3_260"><path d="M183.7,1182.2v-67.4H251v67.4Z"/></clipPath>
<clipPath id="c4_260"><path d="M528.4,1180.6v-67.3h67.4v67.3Z"/></clipPath>
<clipPath id="c5_260"><path d="M216.2,847.8V778.2h73.3v69.6Z"/></clipPath>
<clipPath id="c6_260"><path d="M213.9,685.8V613.2h80.2v72.6Z"/></clipPath>
<clipPath id="c7_260"><path d="M213.9,770.6V696.5h80.2v74.1Z"/></clipPath>
<clipPath id="c8_260"><path d="M178.4,137.2c.1,-1.3,.7,-2.5,1.6,-3.4c1,-1,2.4,-1.6,3.9,-1.6h19.2v5Z"/></clipPath>
<clipPath id="c9_260"><path d="M177.9,137.7v-6h25.7v6Z"/></clipPath>
<style type="text/css"><![CDATA[
.g0_260{
fill: #FEFCF4;
}
.g1_260{
fill: none;
stroke: #231F20;
stroke-width: 0.42;
stroke-miterlimit: 10;
}
.g2_260{
fill: none;
stroke: #6381B7;
stroke-width: 0.763;
}
.g3_260{
fill: #FCE8B0;
}
.g4_260{
fill: #DCE9F3;
}
.g5_260{
fill: #9BD1EA;
}
.g6_260{
fill: #FFF;
}
.g7_260{
fill: none;
stroke: #58595B;
stroke-width: 0.381;
stroke-miterlimit: 10;
}
.g8_260{
fill: #6381B7;
}
.g9_260{
fill: none;
stroke: #6381B7;
stroke-width: 0.381;
stroke-dasharray: 2,1;
}
.ga_260{
fill: none;
stroke: #6381B7;
stroke-width: 0.381;
}
.gb_260{
fill: #48484A;
}
.gc_260{
fill: #F0E8F3;
}
.gd_260{
fill: #766FA6;
}
.ge_260{
fill: none;
stroke: #231F20;
stroke-width: 0.305;
stroke-miterlimit: 10;
}
.gf_260{
fill: #25408F;
}
.gg_260{
fill: none;
stroke: #231F20;
stroke-width: 1.527;
}
.gh_260{
fill: #39B4D1;
stroke: #2D2A4A;
stroke-width: 1.038;
stroke-linecap: round;
stroke-linejoin: round;
}
.gi_260{
fill: #2D2A4A;
}
.gj_260{
fill: none;
stroke: #2D2A4A;
stroke-width: 1.038;
stroke-linecap: round;
stroke-linejoin: round;
}
.gk_260{
fill: #DEDAD3;
}
.gl_260{
fill: #29263F;
}
.gm_260{
fill: #E15F46;
stroke: #2D2A4A;
stroke-width: 1.038;
stroke-linecap: round;
stroke-linejoin: round;
}
.gn_260{
fill: none;
stroke: #FFF;
stroke-width: 1.909;
stroke-miterlimit: 10;
}
.go_260{
fill: none;
stroke: #000;
stroke-width: 0.381;
stroke-miterlimit: 10;
}
]]></style>
</defs>
<path clip-path="url(#c0_260)" d="M954.5,1344.3H1877V32.1H954.5V1344.3Z" class="g0_260"/>
<path d="M144.7,994.4c0,0,-13,0,-13,13v177.9c0,0,0,13,13,13H833.3c0,0,13,0,13,-13V1007.4c0,0,0,-13,-13,-13Z" class="g0_260"/>
<path d="M327.2,1147.8H463.7m193.5,0H793.6" class="g1_260"/>
<path d="M144.7,994.4c0,0,-13,0,-13,13v177.9c0,0,0,13,13,13H833.3c0,0,13,0,13,-13V1007.4c0,0,0,-13,-13,-13H144.7Z" class="g2_260"/>
<path d="M211.9,1020.8c0,0,-13,0,-13,13v47.7c0,0,0,12.9,13,12.9h602c0,0,13,0,13,-12.9v-47.7c0,0,0,-13,-13,-13Z" class="g3_260"/>
<image clip-path="url(#c1_260)" preserveAspectRatio="none" x="155" y="1017" width="75" height="76" xlink:href="img/1.png"/>
<path d="M206.7,1087.1c0,0,-26.9,11.3,-51.1,-12.8c0,0,15.2,25.3,49.3,24c0,0,24.7,.3,20.2,-10.1c0,0,1.3,-4.5,-18.4,-1.1Z" class="g3_260"/>
<path d="M211.9,449.8c0,0,-13,0,-13,13v47.7c0,0,0,13,13,13H833.5c0,0,13,0,13,-13V462.8c0,0,0,-13,-13,-13Z" class="g3_260"/>
<image clip-path="url(#c2_260)" preserveAspectRatio="none" x="155" y="446" width="75" height="76" xlink:href="img/2.png"/>
<path d="M206.7,516.1c0,0,-26.9,11.3,-51.1,-12.8c0,0,15.2,25.4,49.3,24c0,0,24.7,.4,20.2,-10.1c0,0,1.3,-4.5,-18.4,-1.1Z" class="g3_260"/>
<path d="M149,166.3c0,0,-17.3,0,-17.3,17.4V400.2c0,0,0,17.3,17.3,17.3H828.9c0,0,17.4,0,17.4,-17.3V183.7c0,0,0,-17.4,-17.4,-17.4Z" class="g4_260"/>
<path d="M203.7,213.5H451.8v30.1H203.7V213.5Zm248.1,0H774.2v30.1H451.8V213.5Z" class="g5_260"/>
<path d="M203.7,243.6H451.8v53.5H203.7V243.6Zm248.1,0H774.2v53.5H451.8V243.6Z" class="g6_260"/>
<path d="M203.7,213.5H451.8m0,0H774.2M451.8,243.4V213.7M203.7,243.6H451.8m0,0H774.2M451.8,297V243.8M203.7,297.1H451.8m0,0H774.2" class="g7_260"/>
<path d="M186.7,1110c0,0,-8.7,0,-8.7,8.7v58.5c0,0,0,8.6,8.7,8.6h61.4c0,0,8.7,0,8.7,-8.6v-58.5c0,0,0,-8.7,-8.7,-8.7Z" class="g6_260"/>
<image clip-path="url(#c3_260)" preserveAspectRatio="none" x="184" y="1115" width="67" height="67" xlink:href="img/3.jpg"/>
<path d="M531.4,1110c0,0,-8.6,0,-8.6,8.7v58.5c0,0,0,8.6,8.6,8.6h61.4c0,0,8.7,0,8.7,-8.6v-58.5c0,0,0,-8.7,-8.7,-8.7Z" class="g6_260"/>
<image clip-path="url(#c4_260)" preserveAspectRatio="none" x="527" y="1112" width="70" height="70" xlink:href="img/4.jpg"/>
<path d="M527.6,1214.8c0,0,-4.3,0,-4.3,4.4V1230c0,0,0,4.3,4.3,4.3h30.3c0,0,4.4,0,4.4,-4.3v-10.8c0,0,0,-4.4,-4.4,-4.4Z" class="g8_260"/>
<path d="M514.4,1206v37.5m1.4,1H845.1m1,-1.3v-37.6m-1.4,-1H515.4" class="g9_260"/>
<path d="M514.4,1243.9v.6h.6m330.5,0h.6v-.6m0,-38.7v-.6h-.6m-330.5,0h-.6v.6" class="ga_260"/>
<path d="M394.8,949.9c0,0,-4.3,0,-4.3,4.3v10.9c0,0,0,4.3,4.3,4.3h30.3c0,0,4.3,0,4.3,-4.3V954.2c0,0,0,-4.3,-4.3,-4.3Z" class="g8_260"/>
<path d="M381.6,941.1v37.5m1.4,1H845.1m1,-1.3V940.7m-1.4,-1H382.6" class="g9_260"/>
<path d="M381.6,979v.6h.6m463.3,0h.6V979m0,-38.7v-.6h-.6m-463.3,0h-.6v.6" class="ga_260"/>
<path d="M145.1,541.5c0,0,-13,0,-13,13V918.6c0,0,0,13,13,13H833.3c0,0,13,0,13,-13V554.5c0,0,0,-13,-13,-13Z" class="g6_260"/>
<path d="M145.1,541.5c0,0,-13,0,-13,13V918.6c0,0,0,13,13,13H833.3c0,0,13,0,13,-13V554.5c0,0,0,-13,-13,-13H145.1Z" class="g2_260"/>
<path d="M183.6,619.3H840.4V582.7H183.6v36.6Z" class="g6_260"/>
<path d="M172.8,869.7c0,0,-4.3,0,-4.3,4.3v14.8c0,0,0,4.3,4.1,5.7L225,913.1c0,0,4.1,1.4,4.1,-2.9V874c0,0,0,-4.3,-4.3,-4.3Z" class="gb_260"/>
<path d="M194,859.6c0,0,-13,0,-13,13v28.8c0,0,0,13,13,13H799.3c0,0,13,0,13,-13V872.6c0,0,0,-13,-13,-13Z" class="gc_260"/>
<path d="M172.8,867.5c0,0,-4.3,0,-4.3,4.3v17.4c0,0,0,4.3,4.3,4.3h37.3c0,0,4.3,0,4.3,-4.3V871.8c0,0,0,-4.3,-4.3,-4.3Z" class="gd_260"/>
<path d="M385.2,660.6H664.5M393.2,741.9H664M380.3,823.1H663.9" class="ge_260"/>
<image clip-path="url(#c5_260)" preserveAspectRatio="none" x="216" y="779" width="73" height="72" xlink:href="img/5.jpg"/>
<image clip-path="url(#c6_260)" preserveAspectRatio="none" x="214" y="611" width="80" height="76" xlink:href="img/6.jpg"/>
<image clip-path="url(#c7_260)" preserveAspectRatio="none" x="213" y="696" width="80" height="74" xlink:href="img/7.jpg"/>
<path d="M131.7,109.5v39l11.7,10.2V136.5Z" class="gf_260"/>
<path d="M131.7,109.5v39H829.5c0,0,16.8,0,16.8,-16.8v-5.4c0,0,0,-16.8,-16.8,-16.8Z" class="g8_260"/>
<path d="M768.8,131c0,0,-.5,-10,8.6,-9.4c0,0,6.7,-.3,6.6,9.5m-15.3,-1.5v6.5c0,0,-3.3,.3,-3.9,-3c0,0,-.1,-3.8,3.9,-3.5Zm15.4,0v6.5c0,0,3.3,.3,3.9,-3c0,0,.1,-3.8,-3.9,-3.5Z" class="gg_260"/>
<path d="M147.4,140.8h61v-32h-61v32Z" class="gh_260"/>
<path d="M147.4,143.1h61v-2.3h-61v2.3Z" class="gh_260"/>
<path d="M171.8,106.2H152.1v31.5h25.8V112.3c0,-3.4,-2.7,-6.1,-6.1,-6.1Z" class="g6_260"/>
<path d="M171.8,106.2v-.5H152.1c-.1,0,-.3,.1,-.4,.2c-.1,.1,-.1,.2,-.1,.3v31.5c0,.1,0,.3,.1,.4c.1,.1,.3,.1,.4,.1h25.8c.1,0,.2,0,.3,-.1c.1,-.1,.2,-.3,.2,-.4V112.3c0,-3.7,-2.9,-6.6,-6.6,-6.6v1c1.6,0,2.9,.7,3.9,1.7c1,1,1.6,2.3,1.6,3.9v24.9H152.6V106.7h19.2Z" class="gi_260"/>
<path d="M152.1,131.7v6h25.8c0,-3.3,-2.7,-6,-6.1,-6Z" class="g6_260"/>
<path d="M152.1,131.7h-.5v6c0,.1,0,.3,.1,.4c.1,.1,.3,.1,.4,.1h25.8c.1,0,.2,0,.3,-.1c.1,-.1,.2,-.3,.2,-.4c0,-3.6,-3,-6.6,-6.6,-6.6H152.1c-.1,0,-.3,.1,-.4,.2c-.1,.1,-.1,.2,-.1,.4h.5v.5h19.7c1.6,0,2.9,.6,3.9,1.6c1,1,1.6,2.4,1.6,3.9h.6v-.5H152.6v-5.5h-.5v.5Z" class="gi_260"/>
<path d="M155.6,110.9h17.2m-17.2,2.8h17.2m-17.2,2.9h17.2m-17.2,2.9h17.2m-17.2,2.8h17.2m-17.2,2.9h17.2M155.6,128h17.2" class="gj_260"/>
<path d="M171.8,132.2H152.6v5h24.7c-.1,-1.3,-.7,-2.5,-1.6,-3.4c-1,-1,-2.3,-1.6,-3.9,-1.6Z" class="gk_260"/>
<path d="M152.6,132.2h19.2c1.6,0,2.9,.6,3.9,1.6c.9,.9,1.5,2.1,1.6,3.4H152.6Zm19.2,-.5H152.1v6h25.2v-2.5c-.9,-2.1,-3,-3.5,-5.5,-3.5Z" class="gl_260"/>
<path d="M183.9,106.2h19.7v31.5H177.9V112.3c0,-3.4,2.7,-6.1,6,-6.1Z" class="g6_260"/>
<path d="M183.9,106.2v.5h19.2v30.5H178.4V112.3c0,-1.6,.6,-2.9,1.6,-3.9c1,-1,2.4,-1.7,3.9,-1.7v-1c-3.6,0,-6.6,2.9,-6.6,6.6v25.4c0,.1,.1,.3,.2,.4c.1,.1,.2,.1,.4,.1h25.7c.2,0,.3,0,.4,-.1c.1,-.1,.1,-.3,.1,-.4V106.2c0,-.1,0,-.2,-.1,-.3c-.1,-.1,-.2,-.2,-.4,-.2H183.9Z" class="gi_260"/>
<path d="M203.6,131.7v6H177.9c0,-3.3,2.7,-6,6,-6Z" class="g6_260"/>
<path d="M203.6,131.7h-.5v5.5H177.9v.5h.5c0,-1.5,.6,-2.9,1.6,-3.9c1,-1,2.4,-1.6,3.9,-1.6h19.7v-.5h-.5h.5v-.6H183.9c-3.6,0,-6.6,3,-6.6,6.6c0,.1,.1,.3,.2,.4c.1,.1,.2,.1,.4,.1h25.7c.2,0,.3,0,.4,-.1c.1,-.1,.1,-.3,.1,-.4v-6c0,-.2,0,-.3,-.1,-.4c-.1,-.1,-.2,-.2,-.4,-.2Z" class="gi_260"/>
<path d="M200.1,110.9H182.9m17.2,2.8H182.9m17.2,2.9H182.9m17.2,2.9H182.9m17.2,2.8H182.9m17.2,2.9H182.9m17.2,2.8H182.9" class="gj_260"/>
<path clip-path="url(#c8_260)" d="M178.4,137.2h24.7v-5H178.4v5Z" class="gk_260"/>
<path clip-path="url(#c9_260)" d="M178.4,137.2c.1,-1.3,.7,-2.5,1.6,-3.4c1,-1,2.4,-1.6,3.9,-1.6h19.2v5Zm25.2,-5.5H183.9c-3.3,0,-6,2.7,-6,6h25.7v-6h-.5h.5Z" class="gl_260"/>
<path d="M177.9,108.8v34.3" class="gj_260"/>
<path d="M195.5,145.5h3.3V134.7h-3.3v10.8Z" class="gm_260"/>
<path d="M32.1,45.1H9.2m958.3,0h22.9M32.1,1331.3H9.2m958.3,0h22.9M45.1,32.1V9.2m0,1335.1v22.9M954.5,32.1V9.2m0,1335.1v22.9" class="gn_260"/>
<path d="M32.1,45.1H9.2m958.3,0h22.9M32.1,1331.3H9.2m958.3,0h22.9M45.1,32.1V9.2m0,1335.1v22.9M954.5,32.1V9.2m0,1335.1v22.9" class="go_260"/>
<path d="M27.5,32.1H0m972.1,0h27.5M27.5,1344.3H0m972.1,0h27.5M32.1,27.5V0m0,1348.9v27.5M967.5,27.5V0m0,1348.9v27.5" class="gn_260"/>
<path d="M27.5,32.1H0m972.1,0h27.5M27.5,1344.3H0m972.1,0h27.5M32.1,27.5V0m0,1348.9v27.5M967.5,27.5V0m0,1348.9v27.5" class="go_260"/>
</svg>