<?xml version="1.0" encoding="UTF-8" standalone="no"?>
<!DOCTYPE svg PUBLIC "-//W3C//DTD SVG 1.1//EN"
"http://www.w3.org/Graphics/SVG/1.1/DTD/svg11.dtd">
<svg viewBox="0 0 999 1376" version="1.1" xmlns="http://www.w3.org/2000/svg" xmlns:xlink="http://www.w3.org/1999/xlink">
<defs>
<clipPath id="c0_97"><path d="M153.3,784.8V131.7H867.9V784.8Z"/></clipPath>
<clipPath id="c1_97"><path d="M278.6,627.1v-220H713.8v220Z"/></clipPath>
<style type="text/css"><![CDATA[
.g0_97{
fill: #FFF;
}
.g1_97{
fill: #6381B7;
}
.g2_97{
fill: none;
stroke: #6381B7;
stroke-width: 0.381;
stroke-dasharray: 2,1;
}
.g3_97{
fill: none;
stroke: #6381B7;
stroke-width: 0.381;
}
.g4_97{
fill: #25408F;
}
.g5_97{
fill: #54E1E3;
}
.g6_97{
fill: #FFD645;
}
.g7_97{
fill: #3D3B38;
}
.g8_97{
fill: none;
stroke: #231F20;
stroke-width: 0.756;
stroke-miterlimit: 3;
}
.g9_97{
fill: #FEF9EC;
}
.ga_97{
fill: none;
stroke: #FECD4E;
stroke-width: 1.527;
stroke-linecap: round;
stroke-linejoin: round;
stroke-dasharray: 0,5;
}
.gb_97{
fill: none;
stroke: #FECD4E;
stroke-width: 1.527;
stroke-linecap: round;
stroke-linejoin: round;
}
.gc_97{
fill: #FECD4E;
}
.gd_97{
fill: #FFE3A6;
}
.ge_97{
fill: #F37B69;
}
.gf_97{
fill: #FFDE2C;
}
.gg_97{
fill: #3D3B39;
}
.gh_97{
fill: none;
stroke: #FFF;
stroke-width: 1.909;
stroke-miterlimit: 10;
}
.gi_97{
fill: none;
stroke: #000;
stroke-width: 0.381;
stroke-miterlimit: 10;
}
]]></style>
</defs>
<path d="M153.3,784.8H867.9V131.7H153.3V784.8Z" class="g0_97"/>
<image clip-path="url(#c0_97)" preserveAspectRatio="none" x="151" y="130" width="719" height="656" xlink:href="img/1.jpg"/>
<image clip-path="url(#c1_97)" preserveAspectRatio="none" x="277" y="406" width="439" height="223" xlink:href="img/2.jpg"/>
<path d="M665.6,1205.2c0,0,-4.3,0,-4.3,4.4v10.8c0,0,0,4.3,4.3,4.3H696c0,0,4.3,0,4.3,-4.3v-10.8c0,0,0,-4.4,-4.3,-4.4Z" class="g1_97"/>
<path d="M652.5,1196.4V1234m1.3,.9h213m.9,-1.3V1196m-1.3,-.9h-213" class="g2_97"/>
<path d="M652.5,1234.3v.6h.5m214.2,0h.5v-.6m0,-38.7v-.5h-.5m-214.2,0h-.5v.5" class="g3_97"/>
<path d="M153.3,126.3v22.2L165,158.7V136.5Z" class="g4_97"/>
<path d="M153.3,109.5v39H851.1c0,0,16.8,0,16.8,-16.8v-5.4c0,0,0,-16.8,-16.8,-16.8Z" class="g1_97"/>
<path d="M187.9,117.2l-3.2,3.2c.6,3.1,2.1,6.1,4.3,8.5l4.2,-4.2c-2.3,-2.3,-4.1,-4.9,-5.3,-7.5Z" class="g5_97"/>
<path d="M216,121c.3,1.3,.5,2.5,.5,3.6c1.1,-2.2,1.6,-4.7,1.6,-7.2c0,-.6,0,-1.1,-.1,-1.7l-2.8,2.9c.3,.8,.6,1.6,.8,2.4Z" class="g5_97"/>
<path d="M186.6,113.7c-.3,-1.2,-.5,-2.4,-.5,-3.6c-1.1,2.3,-1.6,4.7,-1.6,7.3c0,.5,0,1.1,0,1.6l2.9,-2.9c-.3,-.8,-.6,-1.6,-.8,-2.4Z" class="g5_97"/>
<path d="M208.6,109.3l4.2,-4.2c-2.4,-2.3,-5.3,-3.7,-8.5,-4.3l-3.2,3.2c2.6,1.2,5.2,3,7.5,5.3Z" class="g5_97"/>
<path d="M214.7,117.5l3.1,-3.1c-.5,-3.2,-2,-6.1,-4.2,-8.5l-4.2,4.2c2.2,2.3,4.1,4.8,5.3,7.4Z" class="g5_97"/>
<path d="M214.9,121.3c-.2,-.6,-.4,-1.2,-.6,-1.8l-5.1,5l4.4,4.4c.5,-.6,1,-1.2,1.5,-1.9c.4,-1.6,.4,-3.5,-.2,-5.7Z" class="g5_97"/>
<path d="M194,102.2c1.9,0,4,.5,6,1.3l2.9,-2.9c-.5,0,-1.1,-.1,-1.6,-.1c-2.6,0,-5,.6,-7.3,1.7Z" class="g5_97"/>
<path d="M208.5,132.6c-1.8,0,-3.9,-.5,-5.9,-1.4l-2.9,2.9c.5,.1,1,.1,1.6,.1c2.5,0,5,-.6,7.2,-1.6Z" class="g5_97"/>
<path d="M187.7,113.4c.1,.7,.3,1.3,.6,1.9l5,-5.1L189,105.9c-.5,.6,-1.1,1.2,-1.5,1.8c-.5,1.6,-.4,3.6,.2,5.7Z" class="g5_97"/>
<path d="M201.5,130.8c-2.6,-1.3,-5.2,-3.1,-7.5,-5.3l-4.2,4.2c2.4,2.2,5.3,3.7,8.5,4.2Z" class="g5_97"/>
<path d="M194.7,124.7c2.4,2.3,5,4.1,7.6,5.2l5.4,-5.4l-6.4,-6.4Z" class="g5_97"/>
<path d="M189.8,105.1l4.3,4.3l5.1,-5c-1.8,-.7,-3.6,-1.1,-5.2,-1.1c-.9,0,-1.6,.1,-2.4,.3c-.6,.4,-1.2,.9,-1.8,1.5Z" class="g5_97"/>
<path d="M202.1,117.4l6.4,6.4l5.4,-5.4c-1.2,-2.6,-3,-5.2,-5.3,-7.6Z" class="g5_97"/>
<path d="M188.7,116.4c1.2,2.6,3,5.2,5.3,7.5l6.5,-6.5L194.1,111Z" class="g5_97"/>
<path d="M194.9,110.2l6.4,6.4l6.5,-6.5c-2.3,-2.3,-4.9,-4.1,-7.5,-5.3Z" class="g5_97"/>
<path d="M212.8,129.7l-4.3,-4.4l-5.1,5.1c1.8,.7,3.6,1.1,5.2,1.1c.8,0,1.6,-.1,2.3,-.3c.7,-.5,1.3,-1,1.9,-1.5Z" class="g5_97"/>
<path d="M206.4,144.2c.2,0,.4,0,.6,.1V141c0,-.5,.3,-1,.8,-1.1c3.8,-1.1,7.3,-3.1,10.1,-5.9l.3,-.3l-.6,-.6l-.3,.3c-4.3,4.2,-10,6.6,-16,6.6c-6.1,0,-11.7,-2.4,-16,-6.6c-4.3,-4.3,-6.6,-10,-6.6,-16c0,-6.1,2.3,-11.7,6.6,-16l.3,-.3l-.6,-.6l-.3,.3c-4.4,4.4,-6.9,10.3,-6.9,16.6c0,6.2,2.5,12.1,6.9,16.6c4.4,4.4,10.3,6.8,16.6,6.8c1.1,0,2.2,-.1,3.2,-.2c.4,0,.7,0,.9,.3c.3,.2,.4,.5,.4,.8v2.6c.2,-.1,.4,-.1,.6,-.1Z" class="g0_97"/>
<path d="M215.2,152.4c-1.4,-3.6,-4.9,-6,-8.8,-6c-3.9,0,-7.4,2.4,-8.8,6Z" class="g6_97"/>
<path d="M221.5,152.4h-4c-1.2,-3.9,-4.4,-6.9,-8.3,-7.8v-2.8c3.8,-1.3,7.4,-3.4,10.2,-6.3l1.1,-1.1c.2,-.2,.3,-.5,.3,-.7c0,-.3,-.1,-.6,-.3,-.8l-2.1,-2.2c-.5,-.4,-1.2,-.4,-1.6,0l-.3,.3l-1,-1c3.1,-3.5,4.8,-7.9,4.8,-12.6c0,-5.1,-2,-9.9,-5.6,-13.5c-3.6,-3.6,-8.3,-5.6,-13.4,-5.6c-4.7,0,-9.2,1.8,-12.7,4.9l-1,-1l.3,-.3c.3,-.2,.4,-.5,.4,-.8c0,-.3,-.1,-.6,-.4,-.8l-2.1,-2.2c-.4,-.4,-1.2,-.4,-1.6,0l-1.1,1.1c-4.8,4.9,-7.5,11.3,-7.5,18.2c0,6.8,2.7,13.3,7.5,18.1c4.9,4.9,11.3,7.5,18.2,7.5c.8,0,1.5,0,2.3,-.1v1.7c-3.9,.9,-7.1,3.9,-8.3,7.8h-4c-.6,0,-1.1,.5,-1.1,1.1c0,.6,.5,1.1,1.1,1.1h30.2c.6,0,1.1,-.5,1.1,-1.1c0,-.6,-.5,-1.1,-1.1,-1.1m-15.1,-6c3.9,0,7.4,2.4,8.8,6H197.6c1.4,-3.6,4.9,-6,8.8,-6m-1,-5.5c-.2,-.3,-.5,-.3,-.9,-.3c-1,.1,-2.1,.2,-3.2,.2c-6.3,0,-12.2,-2.4,-16.6,-6.8c-4.4,-4.5,-6.9,-10.4,-6.9,-16.6c0,-6.3,2.5,-12.2,6.9,-16.6l.3,-.3l.6,.6l-.3,.3c-4.3,4.3,-6.6,9.9,-6.6,16c0,6,2.3,11.7,6.6,16c4.3,4.2,9.9,6.6,16,6.6c6,0,11.7,-2.4,16,-6.6l.3,-.3l.6,.6l-.3,.3c-2.8,2.8,-6.3,4.8,-10.1,5.9c-.5,.1,-.8,.6,-.8,1.1v3.3c-.2,-.1,-.4,-.1,-.6,-.1c-.2,0,-.4,0,-.6,.1v-2.6c0,-.3,-.1,-.6,-.4,-.8M194,103.3c1.6,0,3.4,.3,5.2,1.1l-5.1,5l-4.3,-4.3c.6,-.6,1.2,-1.1,1.8,-1.5c.8,-.2,1.5,-.3,2.4,-.3m18.8,1.8l-4.2,4.2c-2.3,-2.3,-4.9,-4.1,-7.5,-5.3l3.2,-3.2c3.2,.6,6.1,2,8.5,4.3m5,9.3l-3.1,3.1c-1.2,-2.6,-3.1,-5.1,-5.3,-7.4l4.2,-4.2c2.2,2.4,3.7,5.3,4.2,8.5m.3,3c0,2.5,-.5,5,-1.6,7.2c0,-1.1,-.2,-2.3,-.5,-3.6c-.2,-.8,-.5,-1.6,-.8,-2.4l2.8,-2.9c.1,.6,.1,1.1,.1,1.7m-33.4,3l3.2,-3.2c1.2,2.6,3,5.2,5.3,7.5l-4.2,4.2c-2.2,-2.4,-3.7,-5.4,-4.3,-8.5m-.2,-3c0,-2.6,.5,-5,1.6,-7.3c0,1.2,.2,2.4,.5,3.6c.2,.8,.5,1.6,.8,2.4l-2.9,2.9c0,-.5,0,-1.1,0,-1.6M189,105.9l4.3,4.3l-5,5.1c-.3,-.6,-.5,-1.2,-.6,-1.9c-.6,-2.1,-.7,-4.1,-.2,-5.7c.4,-.6,1,-1.2,1.5,-1.8m19.6,4.9c2.3,2.4,4.1,5,5.3,7.6l-5.4,5.4l-6.4,-6.4Zm-.9,13.7l-5.4,5.4c-2.6,-1.1,-5.2,-2.9,-7.6,-5.2l6.6,-6.6ZM194,123.9c-2.3,-2.3,-4.1,-4.9,-5.3,-7.5l5.4,-5.4l6.4,6.4Zm0,1.6c2.3,2.2,4.9,4,7.5,5.3l-3.2,3.1c-3.2,-.5,-6.1,-2,-8.5,-4.2Zm8.6,5.7c2,.9,4.1,1.4,5.9,1.4c-2.2,1,-4.7,1.6,-7.2,1.6c-.6,0,-1.1,0,-1.6,-.1Zm6,.3c-1.6,0,-3.4,-.4,-5.2,-1.1l5.1,-5.1l4.3,4.4c-.6,.5,-1.2,1,-1.9,1.5c-.7,.2,-1.5,.3,-2.3,.3m5,-2.6l-4.4,-4.4l5.1,-5c.2,.6,.4,1.2,.6,1.8c.6,2.2,.6,4.1,.2,5.7c-.5,.7,-1,1.3,-1.5,1.9m-5.8,-18.8l-6.5,6.5l-6.4,-6.4l5.4,-5.4c2.6,1.2,5.2,3,7.5,5.3M200,103.5c-2,-.8,-4.1,-1.3,-6,-1.3c2.3,-1.1,4.7,-1.7,7.3,-1.7c.5,0,1.1,.1,1.6,.1Zm-17.7,13.9c0,5.1,1.9,9.8,5.5,13.4c3.6,3.6,8.4,5.6,13.5,5.6c4.7,0,9.2,-1.7,12.6,-4.8l1,1c-3.7,3.3,-8.5,5.2,-13.6,5.2c-5.5,0,-10.6,-2.2,-14.4,-6c-3.9,-3.9,-6,-9,-6,-14.4c0,-5.1,1.8,-9.9,5.2,-13.7l1,1c-3.1,3.5,-4.8,8,-4.8,12.7Z" class="g7_97"/>
<path d="M403.3,208.1c-.7,0,-1.1,-.2,-1.4,-.4c-.2,-.3,-.3,-.7,-.3,-1.2v-4.2H415v-2H401.6v-1.8h6.5v-2.3h-9.4v-1.8H420v1.8h-9.5v2.3h5.1c.7,0,1.1,.2,1.4,.4c.2,.3,.3,.8,.2,1.3l-.3,3.1c-.1,.3,-.2,.5,-.3,.7c-.2,.1,-.4,.1,-.7,.1H403.8v2.2h7.8c.9,0,1.8,0,2.8,-.1c1.1,-.1,2.1,-.3,3,-.7l.5,1.7c-1,.4,-2,.6,-3,.7c-1,.1,-2.1,.2,-3.1,.2h-8.5Zm4,-23.5c.1,-.3,.2,-.5,.2,-.8c.1,-.2,.1,-.5,.1,-.7c0,-.3,0,-.5,-.1,-.7c0,-.2,-.1,-.4,-.2,-.5l2.3,-.6c0,.2,.1,.4,.1,.7c.1,.3,.1,.5,.1,.7c0,.4,-.1,.8,-.2,1.1c0,.3,-.1,.5,-.3,.8h5.4c.4,0,.7,.1,.8,.2c.2,.1,.3,.3,.4,.5c0,.2,0,.4,0,.6c-.1,.2,-.1,.4,-.2,.5c-.4,.5,-.8,1,-1.3,1.5c-.5,.4,-1,.8,-1.5,1.2c.3,.1,.5,.1,.8,.2c.2,.1,.4,.2,.7,.3c.4,.2,.9,.5,1.6,.9c.6,.4,1.2,.8,1.8,1.2l-1,1.6c-.6,-.4,-1.2,-.7,-1.8,-1.1c-.7,-.4,-1.3,-.7,-1.8,-1.1c-.3,-.1,-.7,-.3,-1,-.4c-.4,-.1,-.9,-.2,-1.5,-.3c-1.2,.6,-2.7,1.2,-4.3,1.6c-1.6,.5,-3.4,.9,-5.4,1.2l-.4,-1.9c1.3,-.2,2.6,-.5,3.7,-.7c1.2,-.3,2.3,-.6,3.3,-1c1,-.4,2,-.8,2.9,-1.3c.9,-.6,1.8,-1.2,2.6,-2h-11v-1.7h5.2Zm35.6,11.2H421.6V194h15.1c.1,-.6,.2,-1.2,.3,-1.9c.1,-.7,.2,-1.3,.3,-2c.1,-.7,.1,-1.4,.1,-2.1c.1,-.7,.1,-1.3,.1,-1.9c0,-.2,-.1,-.4,-.2,-.5c-.1,-.1,-.3,-.2,-.5,-.2H424.4v-1.8h13c.8,0,1.4,.2,1.7,.5c.4,.3,.6,.8,.6,1.5c0,.6,0,1.2,0,1.9c-.1,.7,-.1,1.4,-.2,2.2c-.1,.7,-.2,1.5,-.3,2.2c-.2,.7,-.3,1.4,-.4,2.1h4.1v1.8Zm-16.2,12c-.9,0,-1.5,-.2,-1.8,-.6c-.4,-.3,-.6,-.9,-.6,-1.5v-6.4h2.2v5.9c0,.3,.1,.5,.2,.6c.1,.1,.3,.2,.7,.2h7.1c1.1,0,2,-.1,2.9,-.2c.8,-.1,1.7,-.3,2.6,-.6l.5,1.7c-1,.3,-2,.6,-3,.7c-.9,.1,-1.9,.2,-2.9,.2h-7.9Zm32.7,-23.6c.3,.7,.5,1.4,.6,2.2c.2,.8,.2,1.6,.2,2.4c0,.7,0,1.4,-.1,2c-.1,.7,-.3,1.3,-.5,1.9c.8,.1,1.4,.3,1.8,.6c.4,.3,.8,.6,1.1,1.1c.6,.7,1.1,1.6,1.8,2.6c.7,1,1.3,2.1,2.1,3.2l-1.8,1.3c-.3,-.5,-.7,-1.1,-1,-1.6c-.4,-.6,-.7,-1.1,-1,-1.6c-.4,-.5,-.7,-1,-1,-1.5c-.3,-.4,-.6,-.8,-.8,-1.1c-.2,-.2,-.5,-.4,-.7,-.7c-.3,-.2,-.7,-.4,-1.1,-.5c-.7,1.2,-1.5,2.4,-2.5,3.6c-1,1.2,-2.3,2.3,-3.7,3.3l-1.4,-1.8c2.3,-1.5,4,-3.2,5,-5.1c1,-1.9,1.5,-3.7,1.5,-5.7c0,-.6,-.1,-1.2,-.2,-1.9c-.1,-.7,-.3,-1.4,-.5,-2l2.2,-.7Zm10.3,-.5H472v22.5h-2.3V183.7ZM497.8,192.3h-4.3v8h-2.2V183.4h2.2v7.1h4.3v1.8Zm-17,15.5c-.8,0,-1.5,-.2,-1.8,-.6c-.4,-.3,-.6,-.9,-.6,-1.5v-6.4h2.2v5.9c0,.3,.1,.5,.2,.6c.1,.1,.3,.2,.7,.2h7.1c1,0,2,-.1,2.8,-.2c.9,-.1,1.8,-.3,2.7,-.6l.5,1.7c-1.1,.3,-2.1,.6,-3,.7c-.9,.1,-1.9,.2,-2.9,.2h-7.9Zm-5.3,-23.7h9.3c.8,0,1.4,.2,1.6,.6c.2,.5,.3,1.1,.3,1.8c-.2,1.3,-.6,2.6,-1.3,3.7c-.7,1.2,-1.5,2.2,-2.4,3.1c-1,1,-2.1,1.8,-3.2,2.6c-1.2,.7,-2.3,1.3,-3.5,1.9l-.9,-1.9c1.1,-.4,2.2,-1,3.2,-1.6c1,-.7,2,-1.4,2.8,-2.2c.8,-.8,1.5,-1.6,2,-2.6c.5,-.9,.9,-1.8,1,-2.9c.1,-.2,0,-.4,-.1,-.5c-.1,-.2,-.2,-.2,-.5,-.2h-8.3v-1.8Zm40.6,5.4c-.3,.7,-.8,1.2,-1.3,1.6c-.6,.4,-1.3,.8,-2.1,1c-.8,.2,-1.7,.3,-2.6,.3c-.9,0,-1.8,-.1,-2.6,-.3c-.8,-.2,-1.5,-.6,-2.1,-1c-.6,-.4,-1.1,-.9,-1.4,-1.6c-.3,-.6,-.5,-1.3,-.5,-2c0,-.8,.2,-1.5,.5,-2.1c.3,-.6,.8,-1.1,1.4,-1.6c.6,-.4,1.3,-.7,2.1,-.9c.8,-.3,1.7,-.4,2.6,-.4c1.9,0,3.5,.5,4.7,1.3c1.2,.9,1.8,2.2,1.8,3.7c0,.7,-.1,1.4,-.5,2Zm-3,-4.4c-.8,-.5,-1.8,-.8,-3,-.8c-1.2,0,-2.2,.3,-3.1,.8c-.8,.6,-1.2,1.4,-1.2,2.4c0,1,.4,1.8,1.2,2.3c.9,.6,1.9,.9,3.1,.9c1.2,0,2.2,-.3,3,-.9c.8,-.5,1.2,-1.3,1.2,-2.3c0,-1,-.4,-1.8,-1.2,-2.4Zm-8.7,23c-.7,0,-1.1,-.2,-1.4,-.4c-.2,-.3,-.4,-.7,-.4,-1.2v-4.3H516V200H502.6v-1.8h14.1c.7,0,1.1,.2,1.3,.5c.3,.2,.3,.7,.3,1.2l-.4,3.3c0,.3,-.1,.5,-.3,.6c-.1,.1,-.4,.2,-.7,.2h-12v2.3h7.8c.8,0,1.8,0,2.8,-.1c1,-.1,2,-.3,3,-.7l.5,1.7c-1,.4,-2,.6,-3,.7c-1.1,.1,-2.1,.2,-3.1,.2h-8.5ZM521,195.9H499.7v-1.8H521v1.8Zm8.8,3.4c1.2,-.9,2.3,-1.7,3.4,-2.7c1,-1,2,-2,2.8,-3.1c.9,-1,1.6,-2.1,2.1,-3.2c.6,-1.1,.9,-2.1,1.1,-3.2c0,-.2,0,-.4,-.1,-.5c-.1,-.1,-.3,-.1,-.5,-.1h-8v-1.8h9.1c.8,0,1.4,.2,1.6,.7c.2,.6,.2,1.2,.2,1.8c-.2,1,-.5,2.1,-1,3.1c-.4,1,-1,2.1,-1.7,3.1c.6,.1,1.1,.3,1.5,.6c.5,.3,.8,.6,1.2,1c.5,.7,1.1,1.5,1.7,2.3c.6,.9,1.2,1.7,1.7,2.4l-1.7,1.3c-.6,-.9,-1.2,-1.8,-1.9,-2.6c-.6,-.9,-1.1,-1.5,-1.5,-2.1c-.3,-.2,-.6,-.5,-.9,-.8c-.3,-.2,-.7,-.4,-1.2,-.6c-.9,1.1,-1.9,2.2,-3.1,3.2c-1.1,1.1,-2.3,2,-3.6,2.9l-1.2,-1.7Zm17.9,-15.6H550v22.5h-2.3V183.7ZM573,197.9v9.5c0,.2,0,.4,-.2,.5c-.1,.1,-.2,.2,-.5,.2H560.5c-.9,0,-1.6,-.2,-2,-.5c-.5,-.3,-.7,-.9,-.7,-1.9v-7.8h2.3V201h10.7v-3.1H573ZM554.2,183.8h9.6c.8,0,1.3,.2,1.6,.7c.2,.4,.3,1,.2,1.7c-.2,1.4,-.6,2.7,-1.2,3.8c-.6,1.1,-1.4,2.1,-2.3,2.9c-.9,.9,-2,1.6,-3.2,2.3c-1.2,.7,-2.5,1.3,-4,1.8l-.7,-1.9c1.7,-.5,3.3,-1.2,4.6,-2c1.3,-.8,2.3,-1.8,3.1,-2.9h-7.7v-1.8h8.6c.2,-.3,.3,-.6,.4,-1c0,-.3,.1,-.7,.2,-1.1c0,-.2,0,-.4,-.1,-.5c-.1,-.2,-.3,-.2,-.5,-.2h-8.6v-1.8Zm16.6,22.5v-3.6H560.1v2.9c0,.3,0,.4,.1,.6c.1,.1,.3,.1,.6,.1h10Zm2.2,-9.8h-2.3V183.4H573v13.1Zm10.9,-12.3c.3,.7,.5,1.4,.6,2.2c.2,.8,.3,1.6,.3,2.4c0,.7,-.1,1.4,-.2,2c-.1,.7,-.3,1.3,-.4,1.9c.7,.1,1.3,.3,1.7,.6c.5,.3,.8,.6,1.2,1.1c.5,.7,1.1,1.6,1.7,2.6c.7,1,1.4,2.1,2.1,3.2l-1.8,1.3c-.3,-.5,-.7,-1.1,-1,-1.6c-.3,-.6,-.7,-1.1,-1,-1.6c-.4,-.5,-.7,-1,-1,-1.5c-.3,-.4,-.6,-.8,-.8,-1.1c-.2,-.2,-.4,-.4,-.7,-.7c-.3,-.2,-.6,-.4,-1.1,-.5c-.6,1.2,-1.5,2.4,-2.5,3.6c-1,1.2,-2.2,2.3,-3.7,3.3L576,199.6c2.2,-1.5,3.9,-3.2,4.9,-5.1c1,-1.9,1.5,-3.7,1.5,-5.7c0,-.6,0,-1.2,-.1,-1.9c-.2,-.7,-.4,-1.4,-.6,-2l2.2,-.7Zm10.4,-.5h2.2v22.5h-2.2V183.7ZM622.8,194h-4.4v12.2h-2.2v-7.7c-1.3,.7,-2.6,1.2,-4.1,1.5c-1.5,.4,-3,.5,-4.5,.5h-4.1c-.9,0,-1.7,-.2,-2.2,-.6c-.6,-.4,-.8,-1.2,-.8,-2.3V184.7h11.6v1.8h-9.4v10.8c0,.5,.1,.8,.3,1c.1,.3,.5,.4,1,.4h3.6c1.4,0,2.8,-.2,4.3,-.5c1.5,-.4,2.9,-1,4.3,-1.9V183.7h2.2v8.4h4.4V194Z" class="g8_97"/>
<path d="M154.1,1188.1h713v-228h-713v228Z" class="g9_97"/>
<path d="M154.1,964.6v221.2m4.6,2.3H864.9m2.2,-4.6V962.3m-4.5,-2.2H156.4" class="ga_97"/>
<path d="M154.1,1188.1v0m713.1,0v0m0,-228v0m-713.1,0v0" class="gb_97"/>
<path d="M153.3,963.3V934.7c0,0,0,-8.7,8.7,-8.7H859.3c0,0,8.6,0,8.6,8.7v29.2Z" class="gc_97"/>
<path d="M364.2,1018.8c0,0,-2.2,0,-2.2,2.2v17.3c0,0,0,2.2,2.2,2.2h18.2c0,0,2.2,0,2.2,-2.2V1021c0,0,0,-2.2,-2.2,-2.2Z" class="gd_97"/>
<path d="M391.4,1018.8c0,0,-2.1,0,-2.1,2.2v17.3c0,0,0,2.2,2.1,2.2h18.2c0,0,2.2,0,2.2,-2.2V1021c0,0,0,-2.2,-2.2,-2.2Z" class="gd_97"/>
<path d="M487.4,1073.3c0,0,-2.2,0,-2.2,2.2v17.3c0,0,0,2.2,2.2,2.2h18.2c0,0,2.1,0,2.1,-2.2v-17.3c0,0,0,-2.2,-2.1,-2.2Z" class="gd_97"/>
<path d="M514.6,1073.3c0,0,-2.1,0,-2.1,2.2v17.3c0,0,0,2.2,2.1,2.2h18.2c0,0,2.2,0,2.2,-2.2v-17.3c0,0,0,-2.2,-2.2,-2.2Z" class="gd_97"/>
<path d="M392.6,1127.8c0,0,-2.1,0,-2.1,2.2v17.3c0,0,0,2.2,2.1,2.2h18.2c0,0,2.2,0,2.2,-2.2V1130c0,0,0,-2.2,-2.2,-2.2Z" class="gd_97"/>
<path d="M419.9,1127.8c0,0,-2.2,0,-2.2,2.2v17.3c0,0,0,2.2,2.2,2.2h18.2c0,0,2.1,0,2.1,-2.2V1130c0,0,0,-2.2,-2.1,-2.2Z" class="gd_97"/>
<path d="M199.6,943.8c-.1,.1,-.2,.1,-.3,.1c-.2,0,-.3,0,-.4,-.1l-12.4,-5.3v12.6c.9,.2,1.8,.4,2.7,.6c3.3,.7,6.6,1.5,10.1,1.5c3.4,0,6.8,-.8,10,-1.5c.9,-.2,1.8,-.4,2.7,-.6V938.5Z" class="ge_97"/>
<path d="M178.3,933l21,9l20.9,-9l-20.9,-9Z" class="gf_97"/>
<path d="M223,932.1l-23.4,-10c-.2,-.1,-.5,-.1,-.7,0l-23.3,10c-.4,.2,-.6,.5,-.6,.9c0,.4,.2,.7,.6,.8l9,3.9v14.2c0,.5,.4,.8,.8,.9c1.1,.2,2.2,.5,3.4,.8c3.3,.7,6.8,1.5,10.5,1.5c3.6,0,7.1,-.8,10.5,-1.5c1.1,-.3,2.2,-.6,3.3,-.8c.5,-.1,.8,-.4,.8,-.9V937.7l3.2,-1.4v17c-1.6,.4,-2.8,1.9,-2.8,3.7v5.1c0,2.1,1.7,3.8,3.8,3.8c2,0,3.7,-1.7,3.7,-3.8V957c0,-1.8,-1.2,-3.3,-2.8,-3.7V935.5l4,-1.7c.3,-.1,.5,-.4,.5,-.8c0,-.4,-.2,-.7,-.5,-.9M220,957v3.3q-.1,0,-.2,0h-3.6V957c0,-1.1,.8,-1.9,1.9,-1.9c1,0,1.9,.8,1.9,1.9m-1.9,7c-1.1,0,-1.9,-.8,-1.9,-1.9v-.9h3.6q.1,0,.2,0v.9c0,1.1,-.9,1.9,-1.9,1.9M199.3,942l-21,-9l21,-9l20.9,9Zm10,9.7c-3.2,.7,-6.6,1.5,-10,1.5c-3.5,0,-6.8,-.8,-10.1,-1.5c-.9,-.2,-1.8,-.4,-2.7,-.6V938.5l12.4,5.3c.1,.1,.2,.1,.4,.1c.1,0,.2,0,.3,-.1L212,938.5v12.6c-.9,.2,-1.8,.4,-2.7,.6Z" class="gg_97"/>
<path d="M219.8,961.2h-3.6v.9c0,1.1,.8,1.9,1.9,1.9c1,0,1.9,-.8,1.9,-1.9v-.9q-.1,0,-.2,0Z" class="g0_97"/>
<path d="M218.1,955.1c-1.1,0,-1.9,.8,-1.9,1.9v3.3h3.6q.1,0,.2,0V957c0,-1.1,-.9,-1.9,-1.9,-1.9Z" class="g0_97"/>
<path d="M32.1,45.1H9.2m958.3,0h22.9M32.1,1331.3H9.2m958.3,0h22.9M45.1,32.1V9.2m0,1335.1v22.9M954.5,32.1V9.2m0,1335.1v22.9" class="gh_97"/>
<path d="M32.1,45.1H9.2m958.3,0h22.9M32.1,1331.3H9.2m958.3,0h22.9M45.1,32.1V9.2m0,1335.1v22.9M954.5,32.1V9.2m0,1335.1v22.9" class="gi_97"/>
<path d="M27.5,32.1H0m972.1,0h27.5M27.5,1344.3H0m972.1,0h27.5M32.1,27.5V0m0,1348.9v27.5M967.5,27.5V0m0,1348.9v27.5" class="gh_97"/>
<path d="M27.5,32.1H0m972.1,0h27.5M27.5,1344.3H0m972.1,0h27.5M32.1,27.5V0m0,1348.9v27.5M967.5,27.5V0m0,1348.9v27.5" class="gi_97"/>
</svg>