<?xml version="1.0" encoding="UTF-8" standalone="no"?>
<!DOCTYPE svg PUBLIC "-//W3C//DTD SVG 1.1//EN"
"http://www.w3.org/Graphics/SVG/1.1/DTD/svg11.dtd">
<svg viewBox="0 0 999 1376" version="1.1" xmlns="http://www.w3.org/2000/svg" xmlns:xlink="http://www.w3.org/1999/xlink">
<defs>
<clipPath id="c0_49"><path d="M32.1,1344.3V32.1H967.5V1344.3Z"/></clipPath>
<clipPath id="c1_49"><path d="M203.1,287.5l-6.5,-2.1l-14,-11.2V213.3h62.7v74.2Z"/></clipPath>
<clipPath id="c2_49"><path d="M203.1,800.2l-6.5,-2L182.6,787V726.1h62.7v74.1Z"/></clipPath>
<clipPath id="c3_49"><path d="M203.1,906.6l-6.5,-2l-14,-11.3V832.4h62.7v74.2Z"/></clipPath>
<style type="text/css"><![CDATA[
.g0_49{
fill: #FFFDEA;
}
.g1_49{
fill: #BCE4EA;
}
.g2_49{
fill: #BCBEC0;
}
.g3_49{
fill: #00AABD;
}
.g4_49{
fill: #FCDCBA;
}
.g5_49{
fill: #DED3E8;
}
.g6_49{
fill: #FFF;
}
.g7_49{
fill: none;
stroke: #6D6F71;
stroke-width: 0.305;
stroke-miterlimit: 10;
}
.g8_49{
fill: none;
stroke: #D1232A;
stroke-width: 0.763;
}
.g9_49{
fill: #231F20;
}
.ga_49{
fill: none;
stroke: #FFF;
stroke-width: 1.909;
stroke-miterlimit: 10;
}
.gb_49{
fill: none;
stroke: #000;
stroke-width: 0.381;
stroke-miterlimit: 10;
}
]]></style>
</defs>
<g clip-path="url(#c0_49)">
<path d="M-877.3,1344.3H967.5V32.1H-877.3V1344.3Z" class="g0_49"/>
<path d="M-877.3,179.3H967.5V32.1H-877.3V179.3Z" class="g1_49"/>
<path d="M967.5,177.2H-877.3v-5.4h736.6c43.1,0,53.1,-37.9,115.3,-37.9H967.5Z" class="g2_49"/>
<path d="M967.5,183.7H-877.3v-9.8h736.6c43.1,0,53.1,-33.6,115.3,-33.6H967.5Z" class="g3_49"/>
</g>
<path d="M235.8,242.5c0,0,-13,0,-13,13v21.6c0,0,0,13,13,13h619c0,0,13,0,13,-13V255.5c0,0,0,-13,-13,-13Z" class="g4_49"/>
<image clip-path="url(#c1_49)" preserveAspectRatio="none" x="183" y="212" width="62" height="77" xlink:href="img/1.png"/>
<path d="M230.6,282.7c0,0,-26.9,11.3,-51.1,-12.7c0,0,15.1,25.3,49.2,24c0,0,24.8,.3,20.3,-10.2c0,0,1.2,-4.4,-18.4,-1.1Z" class="g4_49"/>
<path d="M192.5,324.2H300.7v43.3H192.5V324.2Zm108.2,0H409v43.3H300.7V324.2Zm108.3,0H867.8v43.3H409V324.2Z" class="g5_49"/>
<path d="M192.5,367.5H300.7v64.9H192.5V367.5Zm108.2,0H409v64.9H300.7V367.5Zm108.3,0h76.5v64.9H409V367.5Zm76.5,0h76.4v64.9H485.5V367.5Zm76.4,0h76.5v64.9H561.9V367.5Zm76.5,0h76.4v64.9H638.4V367.5Zm76.4,0h76.5v64.9H714.8V367.5Zm76.5,0h76.5v64.9H791.3V367.5ZM192.5,432.4H300.7v65H192.5v-65Zm108.2,0H409v65H300.7v-65Zm108.3,0h76.5v65H409v-65Zm76.5,0h76.4v65H485.5v-65Zm76.4,0h76.5v65H561.9v-65Zm76.5,0h76.4v65H638.4v-65Zm76.4,0h76.5v65H714.8v-65Zm76.5,0h76.5v65H791.3v-65Zm-598.8,65H300.7v64.9H192.5V497.4Zm108.2,0H409v64.9H300.7V497.4Zm108.3,0h76.5v64.9H409V497.4Zm76.5,0h76.4v64.9H485.5V497.4Zm76.4,0h76.5v64.9H561.9V497.4Zm76.5,0h76.4v64.9H638.4V497.4Zm76.4,0h76.5v64.9H714.8V497.4Zm76.5,0h76.5v64.9H791.3V497.4ZM192.5,562.3H300.7v65H192.5v-65Zm108.2,0H409v65H300.7v-65Zm108.3,0h76.5v65H409v-65Zm76.5,0h76.4v65H485.5v-65Zm76.4,0h76.5v65H561.9v-65Zm76.5,0h76.4v65H638.4v-65Zm76.4,0h76.5v65H714.8v-65Zm76.5,0h76.5v65H791.3v-65Zm-598.8,65H300.7v65H192.5v-65Zm108.2,0H409v65H300.7v-65Zm108.3,0h76.5v65H409v-65Zm76.5,0h76.4v65H485.5v-65Zm76.4,0h76.5v65H561.9v-65Zm76.5,0h76.4v65H638.4v-65Zm76.4,0h76.5v65H714.8v-65Zm76.5,0h76.5v65H791.3v-65Z" class="g6_49"/>
<path d="M192.5,432.3V367.6m108.2,64.7V367.6M409,432.3V367.6m76.5,64.7V367.6m76.4,64.7V367.6m76.5,64.7V367.6m76.4,64.7V367.6m76.5,64.7V367.6m76.5,64.7V367.6M192.3,432.4H300.7M192.5,497.2V432.6m108.2,-.2H409M300.7,497.2V432.6M409,432.4h76.5M409,497.2V432.6m76.5,-.2h76.4m-76.4,64.8V432.6m76.4,-.2h76.5m-76.5,64.8V432.6m76.5,-.2h76.4m-76.4,64.8V432.6m76.4,-.2h76.5m-76.5,64.8V432.6m76.5,-.2h76.6m-76.6,64.8V432.6m76.5,64.6V432.6M192.3,497.4H300.7M192.5,562.2V497.5m108.2,-.1H409M300.7,562.2V497.5M409,497.4h76.5M409,562.2V497.5m76.5,-.1h76.4m-76.4,64.8V497.5m76.4,-.1h76.5m-76.5,64.8V497.5m76.5,-.1h76.4m-76.4,64.8V497.5m76.4,-.1h76.5m-76.5,64.8V497.5m76.5,-.1h76.6m-76.6,64.8V497.5m76.5,64.7V497.5M192.3,562.3H300.7M192.5,627.2V562.5m108.2,-.2H409M300.7,627.2V562.5M409,562.3h76.5M409,627.2V562.5m76.5,-.2h76.4m-76.4,64.9V562.5m76.4,-.2h76.5m-76.5,64.9V562.5m76.5,-.2h76.4m-76.4,64.9V562.5m76.4,-.2h76.5m-76.5,64.9V562.5m76.5,-.2h76.6m-76.6,64.9V562.5m76.5,64.7V562.5M192.3,627.3H300.7M192.5,692.1V627.5m108.2,-.2H409M300.7,692.1V627.5M409,627.3h76.5M409,692.1V627.5m76.5,-.2h76.4m-76.4,64.8V627.5m76.4,-.2h76.5m-76.5,64.8V627.5m76.5,-.2h76.4m-76.4,64.8V627.5m76.4,-.2h76.5m-76.5,64.8V627.5m76.5,-.2h76.6m-76.6,64.8V627.5m76.5,64.6V627.5M192.3,692.3H300.7m0,0H409m0,0h76.5m0,0h76.4m0,0h76.5m0,0h76.4m0,0h76.5m0,0h76.6M192.3,324.2H300.7m0,0H409m0,0h76.5m0,0h76.4m0,0h76.5m0,0h76.4m0,0h76.5m0,0h76.6M192.3,367.5H300.7m0,0H409m0,0h76.5m0,0h76.4m0,0h76.5m0,0h76.4m0,0h76.5m0,0h76.6m-675.4,-.2v-43m108.2,43v-43m108.3,43v-43m458.8,43v-43" class="g7_49"/>
<path d="M235.8,755.2c0,0,-13,0,-13,13v21.7c0,0,0,13,13,13h619c0,0,13,0,13,-13V768.2c0,0,0,-13,-13,-13Z" class="g4_49"/>
<image clip-path="url(#c2_49)" preserveAspectRatio="none" x="183" y="725" width="62" height="77" xlink:href="img/2.png"/>
<path d="M230.6,795.5c0,0,-26.9,11.3,-51.1,-12.7c0,0,15.1,25.3,49.2,23.9c0,0,24.8,.4,20.3,-10.1c0,0,1.2,-4.5,-18.4,-1.1Z" class="g4_49"/>
<path d="M235.8,861.6c0,0,-13,0,-13,13v21.7c0,0,0,12.9,13,12.9h619c0,0,13,0,13,-12.9V874.6c0,0,0,-13,-13,-13Z" class="g4_49"/>
<image clip-path="url(#c3_49)" preserveAspectRatio="none" x="183" y="832" width="62" height="76" xlink:href="img/3.png"/>
<path d="M230.6,901.9c0,0,-26.9,11.3,-51.1,-12.8c0,0,15.1,25.3,49.2,24c0,0,24.8,.3,20.3,-10.1c0,0,1.2,-4.5,-18.4,-1.1Z" class="g4_49"/>
<path d="M244.3,943.3h52v58.5h-52V943.3Zm86.6,0h52v292.3h-52V943.3Zm103.9,0h78v58.5h-78V943.3Zm177.6,0h52v58.5h-52V943.3Zm86.6,0h52v292.3H699V943.3Zm103.9,0h78v58.5h-78V943.3Zm-558.6,58.5h52v58.4h-52v-58.4Zm190.5,0h78v58.4h-78v-58.4Zm177.6,0h52v58.4h-52v-58.4Zm190.5,0h78v58.4h-78v-58.4Zm-558.6,58.4h52v58.5h-52v-58.5Zm190.5,0h78v58.5h-78v-58.5Zm177.6,0h52v58.5h-52v-58.5Zm190.5,0h78v58.5h-78v-58.5Zm-558.6,58.5h52v58.4h-52v-58.4Zm190.5,0h78v58.4h-78v-58.4Zm177.6,0h52v58.4h-52v-58.4Zm190.5,0h78v58.4h-78v-58.4Zm-558.6,58.4h52v58.5h-52v-58.5Zm190.5,0h78v58.5h-78v-58.5Zm177.6,0h52v58.5h-52v-58.5Zm190.5,0h78v58.5h-78v-58.5Z" class="g6_49"/>
<path d="M296.3,1001.6V943.4m216.5,58.2V943.4m151.6,58.2V943.4m34.5,-.1h52.2m-.1,58.5V943.4m129.9,58.2V943.4M296.3,1060.1v-58.2m138.5,58.2v-58.2m78,58.2v-58.2m151.6,58.2v-58.2m34.6,58.3v-58.4m52,58.4v-58.4m51.9,58.3v-58.2m78,58.2v-58.2M296.3,1118.5v-58.1m138.5,58.1v-58.1m78,58.1v-58.1m151.6,58.1v-58.1m34.6,58.3v-58.5m52,58.5v-58.5m51.9,58.3v-58.1m78,58.1v-58.1M296.3,1177v-58.2M434.8,1177v-58.2m78,58.2v-58.2M664.4,1177v-58.2m34.6,58.3v-58.4m52,58.4v-58.4m51.9,58.3v-58.2m78,58.2v-58.2M296.3,1235.5v-58.2m138.5,58.2v-58.2m78,58.2v-58.2m151.6,58.2v-58.2m34.6,58.2v-58.4m52,58.4v-58.4m51.9,58.4v-58.2m78,58.2v-58.2m-182,58.3h52.2M244.1,943.3h52.3m-52.1,58.3V943.4m190.4,-.1h78.2m99.3,0h52.3m-52.1,58.3V943.4m190.4,-.1h78.3m-637,58.5h52.3m-52.1,58.3v-58.2m190.4,-.1h78.2m99.3,0h52.3m-52.1,58.3v-58.2m190.4,-.1h78.3m-637,58.4h52.3m-52.1,58.3v-58.1m190.4,-.2h78.2m99.3,0h52.3m-52.1,58.3v-58.1m190.4,-.2h78.3m-637,58.5h52.3M244.3,1177v-58.2m190.4,-.1h78.2m99.3,0h52.3M612.4,1177v-58.2m190.4,-.1h78.3m-637,58.4h52.3m-52.1,58.4v-58.2m190.4,-.2h78.2m99.3,0h52.3m-52.1,58.4v-58.2m190.4,-.2h78.3m-637,58.5h52.3m138.3,0h78.2m99.3,0h52.3m138.3,0h78.3m-446.3,-234V943.4M699,1001.8V943.4m103.9,58.2V943.4m-472.2,-.1H383m-52.1,58.5V943.4m52,58.4V943.4m-52,116.8v-58.4m52,58.4v-58.4m-52,116.9v-58.5m52,58.5v-58.5m-52,116.9v-58.4m52,58.4v-58.4m-52,116.8v-58.4m52,58.4v-58.4m-52.2,58.5H383" class="g7_49"/>
<path d="M348.3,391.8h8.3v14.6m-2.5,-4.6l2.4,4.8l2.7,-4.8m-.3,-10h8.3v14.6m-2.5,-4.6l2.4,4.8l2.7,-4.8m-25.2,56.4v15.2h9.3m-4.6,-2.5l4.8,2.4l-4.8,2.7m6.5,-17.8v15.2h9.3m-4.6,-2.5l4.8,2.4l-4.8,2.7M345.2,456h8.3m-4.6,-2.5l4.8,2.4l-4.8,2.7m7.5,-2.6h8.3m-4.6,-2.5l4.8,2.4l-4.7,2.7M347.3,529h5.1m-2.8,-2.5l3,2.5l-2.9,2.6m9,-2.6h5.2m-3,-2.5l3.2,2.5l-3.1,2.6m-13.5,6.7h5.1M350,535.8l2.8,2.4l-2.7,2.7m8.6,-2.6h5m-2.8,-2.5l3.1,2.4l-3,2.7M345.6,523.4v13.4m2.5,-3.5l-2.4,3.7L343,533.4m14.5,-10v13.4m2.5,-3.5l-2.4,3.7l-2.7,-3.6m-.9,-10v13.4m2.5,-3.5l-2.4,3.7l-2.7,-3.6m14.3,-10v13.4m2.5,-3.5l-2.4,3.7l-2.7,-3.6m-15,56.8l-.5,6.3l-4.2,5.6m4.7,-2.5l-4.7,2.7l.4,-5.5M359,590.2l-.4,6.3l-4.2,5.6m4.6,-2.5l-4.7,2.7l.4,-5.5m-5.3,3.4l4.2,5.6m-4.7,-2.4l4.8,2.7l-.5,-5.5m8.9,-2.6l4.1,5.7m-4.6,-2.5l4.7,2.7l-.4,-5.5M354,659.3l3.3,4m.1,-3.8l.1,3.9l-4,-.6M366.1,660l3.4,3.9m0,-3.7l.1,3.9l-3.9,-.6m-18,-11h7.2l-8.7,12.7m.6,-5.3l-.7,5.4l4.9,-2.4m9.3,-10.3h7.3l-8.7,12.7m.5,-5.3l-.7,5.4l4.9,-2.4" class="g8_49"/>
<path d="M300.2,1236h25.9V943.3H300.2V1236Z" class="g0_49"/>
<path d="M312.2,1088.7h-5.3v1.8h5.3v5.4h1.9v-5.4h5.3v-1.8h-5.3v-5.3h-1.9Z" class="g9_49"/>
<path d="M668.1,1236h26V943.3h-26V1236Z" class="g0_49"/>
<path d="M679,1088.7h-5.3v1.8H679v5.4h2v-5.4h5.2v-1.8H681v-5.3h-2Z" class="g9_49"/>
<path d="M32.1,45.1H9.2m958.3,0h22.9M32.1,1331.3H9.2m958.3,0h22.9M45.1,32.1V9.2m0,1335.1v22.9M954.5,32.1V9.2m0,1335.1v22.9" class="ga_49"/>
<path d="M32.1,45.1H9.2m958.3,0h22.9M32.1,1331.3H9.2m958.3,0h22.9M45.1,32.1V9.2m0,1335.1v22.9M954.5,32.1V9.2m0,1335.1v22.9" class="gb_49"/>
<path d="M27.5,32.1H0m972.1,0h27.5M27.5,1344.3H0m972.1,0h27.5M32.1,27.5V0m0,1348.9v27.5M967.5,27.5V0m0,1348.9v27.5" class="ga_49"/>
<path d="M27.5,32.1H0m972.1,0h27.5M27.5,1344.3H0m972.1,0h27.5M32.1,27.5V0m0,1348.9v27.5M967.5,27.5V0m0,1348.9v27.5" class="gb_49"/>
</svg>