<?xml version="1.0" encoding="UTF-8" standalone="no"?>
<!DOCTYPE svg PUBLIC "-//W3C//DTD SVG 1.1//EN"
"http://www.w3.org/Graphics/SVG/1.1/DTD/svg11.dtd">
<svg viewBox="0 0 999 1376" version="1.1" xmlns="http://www.w3.org/2000/svg" xmlns:xlink="http://www.w3.org/1999/xlink">
<defs>
<clipPath id="c0_118"><path d="M381.9,332.3V254.7h77.6v77.6Z"/></clipPath>
<clipPath id="c1_118"><path d="M381.9,602V524.4h77.6V602Z"/></clipPath>
<clipPath id="c2_118"><path d="M446.9,771V693.4h77.7V771Z"/></clipPath>
<clipPath id="c3_118"><path d="M482.8,602V524.4h77.6V602Z"/></clipPath>
<clipPath id="c4_118"><path d="M720.8,771V693.4h77.6V771Z"/></clipPath>
<clipPath id="c5_118"><path d="M278,332.3V254.7h77.6v77.6Z"/></clipPath>
<clipPath id="c6_118"><path d="M310,771V693.4h77.6V771Z"/></clipPath>
<clipPath id="c7_118"><path d="M583.9,771V693.4h77.6V771Z"/></clipPath>
<clipPath id="c8_118"><path d="M482.8,467.1V389.5h77.6v77.6Z"/></clipPath>
<clipPath id="c9_118"><path d="M482.8,332.3V254.7h77.6v77.6Z"/></clipPath>
<clipPath id="ca_118"><path d="M184.1,332.3c-8.7,0,-8.7,-8.6,-8.7,-8.6V263.4c0,-8.7,8.7,-8.7,8.7,-8.7h56.3c8.6,0,8.6,8.7,8.6,8.7v60.3c0,8.6,-8.6,8.6,-8.6,8.6Z"/></clipPath>
<clipPath id="cb_118"><path d="M184.1,602c-8.7,0,-8.7,-8.7,-8.7,-8.7V533c0,-8.6,8.7,-8.6,8.7,-8.6h56.3c8.6,0,8.6,8.6,8.6,8.6v60.3c0,8.7,-8.6,8.7,-8.6,8.7Z"/></clipPath>
<clipPath id="cc_118"><path d="M175.4,771c-2.4,0,-4.1,-.7,-5.4,-1.6V695.1c2.5,-1.7,5.4,-1.7,5.4,-1.7H249c2.4,0,4.1,.6,5.4,1.6v74.3C251.9,771,249,771,249,771Z"/></clipPath>
<clipPath id="cd_118"><path d="M381.9,467.1V389.5h77.6v77.6Z"/></clipPath>
<clipPath id="ce_118"><path d="M192.5,1071.9c-.8,0,-1.6,-.1,-2.3,-.3V988.5c1.4,-.3,2.3,-.3,2.3,-.3h79.8c.9,0,1.6,0,2.3,.2v83.1c-1.3,.4,-2.3,.4,-2.3,.4Z"/></clipPath>
<clipPath id="cf_118"><path d="M372,1071.9c-.9,0,-1.7,-.1,-2.3,-.3V988.5c1.3,-.3,2.3,-.3,2.3,-.3h79.7c.9,0,1.6,0,2.3,.2v83.1c-1.3,.4,-2.3,.4,-2.3,.4Z"/></clipPath>
<clipPath id="cg_118"><path d="M551.4,1071.9c-.8,0,-1.6,-.1,-2.3,-.3V988.5c1.3,-.3,2.3,-.3,2.3,-.3h79.8c.9,0,1.6,0,2.3,.2v83.1c-1.3,.4,-2.3,.4,-2.3,.4Z"/></clipPath>
<clipPath id="ch_118"><path d="M722.4,1071.9V988.2h84.3v83.7Z"/></clipPath>
<clipPath id="ci_118"><path d="M176.6,229.2l-6.5,-2.1L153.7,213.2V156.1h72v73.1Z"/></clipPath>
<clipPath id="cj_118"><path d="M176.6,921.2L170.1,919L153.7,905.1V848h72v73.2Z"/></clipPath>
<style type="text/css"><![CDATA[
.g0_118{
fill: #FEFCF4;
}
.g1_118{
fill: #FFF;
}
.g2_118{
fill: none;
stroke: #6381B7;
stroke-width: 0.763;
}
.g3_118{
fill: #F6E2CF;
}
.g4_118{
fill: #EFE9CC;
}
.g5_118{
fill: #EDF8FB;
}
.g6_118{
fill: #6381B7;
}
.g7_118{
fill: none;
stroke: #6381B7;
stroke-width: 0.381;
stroke-dasharray: 2,1;
}
.g8_118{
fill: none;
stroke: #6381B7;
stroke-width: 0.381;
}
.g9_118{
fill: #FCE8B0;
}
.ga_118{
fill: #25408F;
}
.gb_118{
fill: #00BAF1;
}
.gc_118{
fill: #332D2C;
}
.gd_118{
fill: #D9DFF0;
}
.ge_118{
fill: #F27C85;
}
.gf_118{
fill: #7DD3F6;
}
.gg_118{
fill: #FEF6DC;
}
.gh_118{
fill: none;
stroke: #231F20;
stroke-width: 1.527;
}
.gi_118{
fill: none;
stroke: #FFF;
stroke-width: 1.909;
stroke-miterlimit: 10;
}
.gj_118{
fill: none;
stroke: #000;
stroke-width: 0.381;
stroke-miterlimit: 10;
}
]]></style>
</defs>
<path d="M32.1,1344.3H954.5V32.1H32.1V1344.3Z" class="g0_118"/>
<path d="M150.9,134.2c0,0,-18.3,0,-18.3,18.4V812.4c0,0,0,18.3,18.3,18.3H828c0,0,18.4,0,18.4,-18.3V134.2Z" class="g1_118"/>
<path d="M150.9,134.2c0,0,-18.3,0,-18.3,18.4V812.4c0,0,0,18.3,18.3,18.3H828c0,0,18.4,0,18.4,-18.3V134.2H150.9Z" class="g2_118"/>
<path d="M658.5,135.7h.1l-.1,-.7Z" class="g3_118"/>
<image preserveAspectRatio="none" x="278" y="389" width="78" height="78" xlink:href="img/1.jpg"/>
<image clip-path="url(#c0_118)" preserveAspectRatio="none" x="382" y="255" width="77" height="77" xlink:href="img/2.jpg"/>
<image clip-path="url(#c1_118)" preserveAspectRatio="none" x="382" y="524" width="77" height="78" xlink:href="img/3.jpg"/>
<image clip-path="url(#c2_118)" preserveAspectRatio="none" x="447" y="693" width="78" height="78" xlink:href="img/4.jpg"/>
<image clip-path="url(#c3_118)" preserveAspectRatio="none" x="483" y="524" width="77" height="78" xlink:href="img/5.jpg"/>
<image clip-path="url(#c4_118)" preserveAspectRatio="none" x="721" y="693" width="77" height="78" xlink:href="img/6.jpg"/>
<image preserveAspectRatio="none" x="174" y="389" width="78" height="78" xlink:href="img/7.jpg"/>
<image clip-path="url(#c5_118)" preserveAspectRatio="none" x="278" y="255" width="78" height="77" xlink:href="img/8.jpg"/>
<image preserveAspectRatio="none" x="279" y="524" width="78" height="78" xlink:href="img/9.jpg"/>
<image clip-path="url(#c6_118)" preserveAspectRatio="none" x="310" y="693" width="78" height="78" xlink:href="img/10.jpg"/>
<image clip-path="url(#c7_118)" preserveAspectRatio="none" x="584" y="693" width="77" height="78" xlink:href="img/11.jpg"/>
<image clip-path="url(#c8_118)" preserveAspectRatio="none" x="483" y="389" width="77" height="78" xlink:href="img/12.jpg"/>
<image clip-path="url(#c9_118)" preserveAspectRatio="none" x="483" y="255" width="77" height="77" xlink:href="img/13.jpg"/>
<image clip-path="url(#ca_118)" preserveAspectRatio="none" x="174" y="255" width="77" height="77" xlink:href="img/14.jpg"/>
<image clip-path="url(#cb_118)" preserveAspectRatio="none" x="174" y="524" width="77" height="78" xlink:href="img/15.jpg"/>
<image clip-path="url(#cc_118)" preserveAspectRatio="none" x="170" y="692" width="84" height="81" xlink:href="img/16.jpg"/>
<image clip-path="url(#cd_118)" preserveAspectRatio="none" x="382" y="389" width="77" height="78" xlink:href="img/17.jpg"/>
<path d="M144.3,932.6c0,0,-13,0,-13,13V1193c0,0,0,13,13,13H833.1c0,0,13,0,13,-13V945.6c0,0,0,-13,-13,-13Z" class="g1_118"/>
<path d="M144.3,932.6c0,0,-13,0,-13,13V1193c0,0,0,13,13,13H833.1c0,0,13,0,13,-13V945.6c0,0,0,-13,-13,-13H144.3Z" class="g2_118"/>
<path d="M192.5,988.2c0,0,-8.4,0,-8.4,8.4v66.8c0,0,0,8.5,8.4,8.5h79.8c0,0,8.5,0,8.5,-8.5V996.6c0,0,0,-8.4,-8.5,-8.4Z" class="g1_118"/>
<image clip-path="url(#ce_118)" preserveAspectRatio="none" x="190" y="988" width="85" height="84" xlink:href="img/18.jpg"/>
<path d="M372,988.2c0,0,-8.5,0,-8.5,8.4v66.8c0,0,0,8.5,8.5,8.5h79.7c0,0,8.5,0,8.5,-8.5V996.6c0,0,0,-8.4,-8.5,-8.4Z" class="g1_118"/>
<image clip-path="url(#cf_118)" preserveAspectRatio="none" x="370" y="988" width="84" height="84" xlink:href="img/19.jpg"/>
<path d="M551.4,988.2c0,0,-8.4,0,-8.4,8.4v66.8c0,0,0,8.5,8.4,8.5h79.8c0,0,8.5,0,8.5,-8.5V996.6c0,0,0,-8.4,-8.5,-8.4Z" class="g1_118"/>
<image clip-path="url(#cg_118)" preserveAspectRatio="none" x="549" y="988" width="84" height="84" xlink:href="img/20.jpg"/>
<path d="M721,988.2c0,0,-8.4,0,-8.4,8.4v66.8c0,0,0,8.5,8.4,8.5h87c0,0,8.5,0,8.5,-8.5V996.6c0,0,0,-8.4,-8.5,-8.4Z" class="g1_118"/>
<image clip-path="url(#ch_118)" preserveAspectRatio="none" x="722" y="988" width="85" height="84" xlink:href="img/21.jpg"/>
<path d="M199.2,1159.9c0,0,-8.6,0,-8.6,8.7v15.2c0,0,0,8.6,8.6,8.6h69.3c0,0,8.7,0,8.7,-8.6v-15.2c0,0,0,-8.7,-8.7,-8.7Z" class="g4_118"/>
<path d="M558.8,1159.9c0,0,-8.7,0,-8.7,8.7v15.2c0,0,0,8.6,8.7,8.6h69.3c0,0,8.6,0,8.6,-8.6v-15.2c0,0,0,-8.7,-8.6,-8.7Z" class="g4_118"/>
<path d="M379,1159.9c0,0,-8.7,0,-8.7,8.7v15.2c0,0,0,8.6,8.7,8.6h69.3c0,0,8.7,0,8.7,-8.6v-15.2c0,0,0,-8.7,-8.7,-8.7Z" class="g4_118"/>
<path d="M738.6,1159.9c0,0,-8.7,0,-8.7,8.7v15.2c0,0,0,8.6,8.7,8.6h69.3c0,0,8.6,0,8.6,-8.6v-15.2c0,0,0,-8.7,-8.6,-8.7Z" class="g4_118"/>
<path d="M232.8,1154.9c2,0,3.6,-1.6,3.6,-3.6c0,-2,-1.6,-3.6,-3.6,-3.6c-2,0,-3.6,1.6,-3.6,3.6c0,2,1.6,3.6,3.6,3.6Z" class="g5_118"/>
<path d="M591.3,1154.9c2,0,3.6,-1.6,3.6,-3.6c0,-2,-1.6,-3.6,-3.6,-3.6c-2,0,-3.6,1.6,-3.6,3.6c0,2,1.6,3.6,3.6,3.6Z" class="g5_118"/>
<path d="M412,1154.9c2,0,3.6,-1.6,3.6,-3.6c0,-2,-1.6,-3.6,-3.6,-3.6c-2,0,-3.6,1.6,-3.6,3.6c0,2,1.6,3.6,3.6,3.6Z" class="g5_118"/>
<path d="M770.5,1154.9c2,0,3.6,-1.6,3.6,-3.6c0,-2,-1.6,-3.6,-3.6,-3.6c-2,0,-3.6,1.6,-3.6,3.6c0,2,1.6,3.6,3.6,3.6Z" class="g5_118"/>
<path d="M232.8,1083.5c2,0,3.6,-1.6,3.6,-3.6c0,-2,-1.6,-3.6,-3.6,-3.6c-2,0,-3.6,1.6,-3.6,3.6c0,2,1.6,3.6,3.6,3.6Z" class="g5_118"/>
<path d="M591.3,1083.5c2,0,3.6,-1.6,3.6,-3.6c0,-2,-1.6,-3.6,-3.6,-3.6c-2,0,-3.6,1.6,-3.6,3.6c0,2,1.6,3.6,3.6,3.6Z" class="g5_118"/>
<path d="M412,1083.5c2,0,3.6,-1.6,3.6,-3.6c0,-2,-1.6,-3.6,-3.6,-3.6c-2,0,-3.6,1.6,-3.6,3.6c0,2,1.6,3.6,3.6,3.6Z" class="g5_118"/>
<path d="M770.5,1083.5c2,0,3.6,-1.6,3.6,-3.6c0,-2,-1.6,-3.6,-3.6,-3.6c-2,0,-3.6,1.6,-3.6,3.6c0,2,1.6,3.6,3.6,3.6Z" class="g5_118"/>
<path d="M643.3,1221.3c0,0,-4.3,0,-4.3,4.4v10.8c0,0,0,4.3,4.3,4.3h30.3c0,0,4.4,0,4.4,-4.3v-10.8c0,0,0,-4.4,-4.4,-4.4Z" class="g6_118"/>
<path d="M630.1,1212.5V1250m1.4,1H845.3m1,-1.3v-37.6m-1.3,-1H631.1" class="g7_118"/>
<path d="M630.1,1250.4v.6h.6m215,0h.6v-.6m0,-38.7v-.6h-.6m-215,0h-.6v.6" class="g8_118"/>
<path d="M209.2,184.2c0,0,-13,0,-13,13v21.7c0,0,0,13,13,13h602c0,0,13,0,13,-13V197.2c0,0,0,-13,-13,-13Z" class="g9_118"/>
<image clip-path="url(#ci_118)" preserveAspectRatio="none" x="152" y="154" width="75" height="77" xlink:href="img/22.png"/>
<path d="M204,224.5c0,0,-26.8,11.3,-51.1,-12.8c0,0,15.2,25.4,49.3,24c0,0,24.8,.3,20.3,-10.1c0,0,1.2,-4.5,-18.5,-1.1Z" class="g9_118"/>
<path d="M209.2,876.2c0,0,-13,0,-13,13v21.6c0,0,0,13,13,13H833.3c0,0,13,0,13,-13V889.2c0,0,0,-13,-13,-13Z" class="g9_118"/>
<image clip-path="url(#cj_118)" preserveAspectRatio="none" x="152" y="846" width="75" height="77" xlink:href="img/23.png"/>
<path d="M204,916.4c0,0,-26.8,11.4,-51.1,-12.7c0,0,15.2,25.3,49.3,24c0,0,24.8,.3,20.3,-10.2c0,0,1.2,-4.4,-18.5,-1.1Z" class="g9_118"/>
<path d="M131.7,126.7v22.2l11.7,10.3V137Z" class="ga_118"/>
<path d="M131.7,109.9v39H829.4c0,0,16.9,0,16.9,-16.8v-5.4c0,0,0,-16.8,-16.9,-16.8Z" class="g6_118"/>
<path d="M189.6,121.3l-6.4,-6.5L162,136l6.4,6.5Z" class="gb_118"/>
<path d="M168.4,143c.2,0,.3,0,.4,-.1L190,121.7c.1,-.1,.2,-.3,.2,-.4c0,-.1,-.1,-.3,-.2,-.4l-6.5,-6.4c-.2,-.2,-.5,-.2,-.7,0l-21.2,21.2c-.1,.1,-.2,.2,-.2,.3c0,.2,.1,.3,.2,.4l6.5,6.5c.1,.1,.2,.1,.3,.1m20.5,-21.7l-20.5,20.5L162.7,136l20.5,-20.4Z" class="gc_118"/>
<path d="M189.6,121.3l-6.4,-6.5l2.1,-2.1l6.5,6.5Z" class="gd_118"/>
<path d="M189.6,121.8c.2,0,.3,0,.4,-.1l2.1,-2.1c.1,-.1,.2,-.3,.2,-.4c0,-.2,-.1,-.3,-.2,-.4l-6.4,-6.5c-.2,-.2,-.6,-.2,-.8,0l-2.1,2.2c-.1,0,-.2,.2,-.2,.3c0,.2,.1,.3,.2,.4l6.5,6.5c.1,.1,.2,.1,.3,.1m1.4,-2.6l-1.4,1.4l-5.7,-5.8l1.4,-1.4Z" class="gc_118"/>
<path d="M195.4,115.6l-6.5,-6.5l-3.6,3.6l6.5,6.5Z" class="ge_118"/>
<path d="M191.8,119.7c.1,0,.2,0,.3,-.1l3.7,-3.7c.2,-.2,.2,-.5,0,-.7l-6.5,-6.5c-.2,-.2,-.6,-.2,-.8,0l-3.6,3.6c-.2,.2,-.2,.6,0,.8l6.5,6.5c.1,.1,.2,.1,.4,.1m2.8,-4.1l-2.8,2.8L186,112.7l2.9,-2.9Z" class="gc_118"/>
<path d="M157.3,147.2L162,136l6.4,6.5Z" class="g1_118"/>
<path d="M157.3,147.7c.1,0,.2,0,.2,-.1L168.6,143c.2,-.1,.3,-.2,.4,-.4c0,-.2,-.1,-.3,-.2,-.5l-6.5,-6.4c-.1,-.2,-.3,-.2,-.5,-.2c-.1,.1,-.3,.2,-.3,.3l-4.7,11.1c0,.2,0,.5,.1,.6c.1,.1,.3,.2,.4,.2m10.2,-5.4l-9.2,3.9l3.8,-9.2Z" class="gc_118"/>
<path d="M157.3,147.2l2.3,-5.4l3.1,3.1Z" class="gc_118"/>
<path d="M157.3,147.7c.1,0,.2,0,.2,-.1l5.4,-2.2c.1,-.1,.3,-.2,.3,-.4c0,-.2,0,-.3,-.1,-.5l-3.2,-3.1c-.1,-.1,-.3,-.2,-.4,-.1c-.2,0,-.4,.1,-.4,.3l-2.3,5.3c0,.2,0,.5,.1,.6c.1,.1,.3,.2,.4,.2m4.5,-3l-3.5,1.5l1.4,-3.5Z" class="gc_118"/>
<path d="M187.9,119.5l-3,-2.9l-21.2,21.2l3,3Z" class="gf_118"/>
<path d="M166.7,141.3c.1,0,.2,-.1,.3,-.2l21.3,-21.2c.1,-.1,.1,-.2,.1,-.4c0,-.1,0,-.2,-.1,-.3l-3,-3c-.2,-.2,-.5,-.2,-.8,0l-21.2,21.2c-.1,.1,-.1,.3,-.1,.4c0,.1,0,.3,.1,.4l3,2.9c.1,.1,.2,.2,.4,.2m20.4,-21.8L166.7,140l-2.2,-2.2l20.4,-20.5Z" class="gc_118"/>
<path d="M577.9,246.9c0,0,-8.6,0,-8.6,8.6V658.3c0,0,0,8.6,8.6,8.6H828.2c0,0,8.7,0,8.7,-8.6V255.5c0,0,0,-8.6,-8.7,-8.6Z" class="gg_118"/>
<path d="M580.7,263.8c-.3,0,-.6,.1,-.8,.4c-.2,.2,-.3,.5,-.3,.8c0,.3,.1,.6,.3,.8c.2,.2,.5,.4,.8,.4c.4,0,.6,-.2,.9,-.4c.2,-.2,.3,-.5,.3,-.8c0,-.3,-.1,-.6,-.3,-.8c-.3,-.3,-.5,-.4,-.9,-.4Zm0,41.1c-.3,0,-.6,.1,-.8,.4c-.2,.2,-.3,.5,-.3,.8c0,.3,.1,.6,.3,.8c.2,.3,.5,.4,.8,.4c.4,0,.6,-.1,.9,-.4c.2,-.2,.3,-.5,.3,-.8c0,-.3,-.1,-.6,-.3,-.8c-.3,-.3,-.5,-.4,-.9,-.4Zm0,60.3c-.3,0,-.6,.1,-.8,.3c-.2,.2,-.3,.5,-.3,.8c0,.4,.1,.6,.3,.9c.2,.2,.5,.3,.8,.3c.4,0,.6,-.1,.9,-.3c.2,-.3,.3,-.5,.3,-.9c0,-.3,-.1,-.6,-.3,-.8c-.3,-.2,-.5,-.3,-.9,-.3Zm0,41.1c-.3,0,-.6,.1,-.8,.3c-.2,.3,-.3,.5,-.3,.8c0,.4,.1,.7,.3,.9c.2,.2,.5,.3,.8,.3c.4,0,.6,-.1,.9,-.3c.2,-.2,.3,-.5,.3,-.9c0,-.3,-.1,-.5,-.3,-.8c-.3,-.2,-.5,-.3,-.9,-.3Zm0,60.2c-.3,0,-.6,.1,-.8,.3c-.2,.3,-.3,.6,-.3,.9c0,.3,.1,.6,.3,.8c.2,.2,.5,.3,.8,.3c.4,0,.6,-.1,.9,-.3c.2,-.2,.3,-.5,.3,-.8c0,-.3,-.1,-.6,-.3,-.9c-.3,-.2,-.5,-.3,-.9,-.3Zm0,41.1c-.3,0,-.6,.1,-.8,.4c-.2,.2,-.3,.5,-.3,.8c0,.3,.1,.6,.3,.8c.2,.3,.5,.4,.8,.4c.4,0,.6,-.1,.9,-.4c.2,-.2,.3,-.5,.3,-.8c0,-.3,-.1,-.6,-.3,-.8c-.3,-.3,-.5,-.4,-.9,-.4Zm0,41.1c-.3,0,-.6,.2,-.8,.4c-.2,.2,-.3,.5,-.3,.8c0,.3,.1,.6,.3,.9c.2,.2,.5,.3,.8,.3c.4,0,.6,-.1,.9,-.3c.2,-.3,.3,-.6,.3,-.9c0,-.3,-.1,-.6,-.3,-.8c-.3,-.2,-.5,-.4,-.9,-.4Zm0,41.2c-.3,0,-.6,.1,-.8,.3c-.2,.2,-.3,.5,-.3,.8c0,.4,.1,.7,.3,.9c.2,.2,.5,.3,.8,.3c.4,0,.6,-.1,.9,-.3c.2,-.2,.3,-.5,.3,-.9c0,-.3,-.1,-.6,-.3,-.8c-.3,-.2,-.5,-.3,-.9,-.3Zm0,41.1c-.3,0,-.6,.1,-.8,.3c-.2,.3,-.3,.5,-.3,.9c0,.3,.1,.6,.3,.8c.2,.2,.5,.3,.8,.3c.4,0,.6,-.1,.9,-.3c.2,-.2,.3,-.5,.3,-.8c0,-.4,-.1,-.6,-.3,-.9c-.3,-.2,-.5,-.3,-.9,-.3Z" class="gh_118"/>
<path d="M32.1,45.1H9.2m958.3,0h22.9M32.1,1331.3H9.2m958.3,0h22.9M45.1,32.1V9.2m0,1335.1v22.9M954.5,32.1V9.2m0,1335.1v22.9" class="gi_118"/>
<path d="M32.1,45.1H9.2m958.3,0h22.9M32.1,1331.3H9.2m958.3,0h22.9M45.1,32.1V9.2m0,1335.1v22.9M954.5,32.1V9.2m0,1335.1v22.9" class="gj_118"/>
<path d="M27.5,32.1H0m972.1,0h27.5M27.5,1344.3H0m972.1,0h27.5M32.1,27.5V0m0,1348.9v27.5M967.5,27.5V0m0,1348.9v27.5" class="gi_118"/>
<path d="M27.5,32.1H0m972.1,0h27.5M27.5,1344.3H0m972.1,0h27.5M32.1,27.5V0m0,1348.9v27.5M967.5,27.5V0m0,1348.9v27.5" class="gj_118"/>
</svg>