<?xml version="1.0" encoding="UTF-8" standalone="no"?>
<!DOCTYPE svg PUBLIC "-//W3C//DTD SVG 1.1//EN"
"http://www.w3.org/Graphics/SVG/1.1/DTD/svg11.dtd">
<svg viewBox="0 0 999 1376" version="1.1" xmlns="http://www.w3.org/2000/svg" xmlns:xlink="http://www.w3.org/1999/xlink">
<defs>
<clipPath id="c0_234"><path d="M32.1,1344.3V32.1H967.5V1344.3Z"/></clipPath>
<clipPath id="c1_234"><path d="M678.7,828.3V633.1H907V828.3Z"/></clipPath>
<clipPath id="c2_234"><path d="M680.6,824.6V634.3H907.2V824.6Z"/></clipPath>
<clipPath id="c3_234"><path d="M680.3,824.3V634H906.9V824.3Z"/></clipPath>
<clipPath id="c4_234"><path d="M176.6,544l-6.5,-2.1l-16.4,-14V470.8h72V544Z"/></clipPath>
<clipPath id="c5_234"><path d="M176.6,1102.6l-6.5,-2.1l-16.4,-13.9v-57.1h72v73.1Z"/></clipPath>
<clipPath id="c6_234"><path d="M794.5,653.2c-.3,-.1,3.5,-8.2,3.5,-8.2l.8,.5c0,0,-4,7.7,-4.3,7.7Z"/></clipPath>
<clipPath id="c7_234"><path d="M802,645.5c0,0,-6.9,-1.1,-7.6,-5.2c-.6,-3.6,1.5,-3.9,2.1,-3.9q.1,0,.1,0l8.3,-12.7l-1.4,-3.1c0,0,-.6,-1.1,.1,-2.1c.1,0,.2,-.1,.3,-.1c2.1,0,13,5.6,13,5.6v.1c-.3,.6,-.7,1.2,-1.4,1.7c-.6,.5,-5,1.1,-5,1.1L802,645.5Z"/></clipPath>
<clipPath id="c8_234"><path d="M801.6,645.1c.2,-.4,.2,-1.8,0,-2.2v-1.4c-1.5,-.5,-2.9,-1.2,-3.6,-2.5c-1.1,.6,-2.2,1.2,-3.2,1.9c1.6,2.1,3.8,3.5,6.8,4.2Zm0,-3.9c2.2,-4.5,4,-9.5,6.2,-14c-.9,-.4,-1.9,-1.4,-2.7,-1.4c-2.3,4.3,-4.6,8.6,-7,12.8c.7,1.3,2.1,2,3.5,2.6Zm-7.3,12.1c1,-2.9,2.4,-5.5,3.5,-8.3c-2,-1.5,-3.9,-3.1,-4.4,-6.2v-1.5c0,-2.7,1.9,-3.4,4.6,-3.4q.1,0,.2,0c1.9,-3.3,4.2,-6.3,6.2,-9.6c-.6,-.9,-1.2,-2.4,-.9,-3.7c.5,1.3,1.6,1.9,2.4,2.9c-.1,.6,-.3,1.2,-.4,1.8c.6,.6,1.3,1.2,2.4,1.4c.4,-.5,.5,-1.3,1.1,-1.6c1,.4,1.9,.8,3.2,.8c.1,.1,.4,.2,.8,.2c.3,0,.7,-.1,.8,-.2c.1,0,.2,0,.3,0c.2,0,.4,0,.6,-.1c.2,-.1,.4,-.1,.5,-.1c.1,0,.2,0,.3,.1c-1.3,.6,-2.1,1.7,-4.1,1.7c-.1,0,-.3,0,-.4,0c-.8,3.8,-1.8,7.4,-2.6,11.2c.5,1.1,1.5,1.7,1.2,3.2c-.4,2.7,-3.8,4.4,-7.2,4.4c-1.2,0,-2.5,-.3,-3.6,-.8c-1,2.1,-2,4.1,-3.2,6c-.1,-.3,.2,-.3,.2,-.7c1,-1.8,2,-3.6,2.6,-5.7c-1,1.7,-1.8,3.7,-2.7,5.6c-.2,.4,-.4,.8,-.6,1.2c-.3,.4,-.3,1.1,-.8,1.4Z"/></clipPath>
<clipPath id="c9_234"><path d="M812,625.5c-4.8,0,-13.1,-7.3,-5.5,-8.8h1.3c.1,.1,.3,.1,.5,.1c0,0,.1,0,.1,0q.1,0,.2,0c.3,0,.6,0,.9,.1c3.1,.6,8.2,3.8,7.5,7c-.2,1.1,-1.5,1.6,-3.1,1.6h-1.7q-.1,0,-.2,0Z"/></clipPath>
<clipPath id="ca_234"><path d="M61.9,909.6V618.1H312.7V909.6Z"/></clipPath>
<clipPath id="cb_234"><path d="M63.5,906.3V618.7H313.2V906.3Z"/></clipPath>
<clipPath id="cc_234"><path d="M181.7,639.4c-.3,-.1,3.6,-8.3,3.6,-8.3l.7,.5c0,0,-4,7.8,-4.3,7.8Z"/></clipPath>
<clipPath id="cd_234"><path d="M189.2,631.6c0,0,-6.8,-1.1,-7.6,-5.2c-.6,-3.6,1.5,-3.8,2.1,-3.8q.1,0,.1,0l8.3,-12.8l-1.4,-3c0,0,-.6,-1.2,.1,-2.1c.1,-.1,.2,-.1,.3,-.1c2.1,0,13,5.5,13,5.5v.2c-.3,.5,-.7,1.1,-1.4,1.6c-.6,.5,-5,1.2,-5,1.2l-8.5,18.5Z"/></clipPath>
<clipPath id="ce_234"><path d="M188.8,631.3c.2,-.5,.2,-1.8,0,-2.3v-1.4c-1.5,-.5,-2.9,-1.2,-3.6,-2.5c-1.1,.6,-2.2,1.2,-3.2,1.9c1.6,2.1,3.8,3.5,6.8,4.3Zm0,-3.9c2.2,-4.6,4,-9.5,6.2,-14.1c-.9,-.4,-1.9,-1.3,-2.7,-1.4c-2.3,4.3,-4.6,8.7,-7,12.8c.7,1.4,2.1,2,3.5,2.7Zm-7.3,12c1.1,-2.9,2.4,-5.4,3.5,-8.3c-2,-1.5,-3.9,-3.1,-4.4,-6.1v-1.5c0,-2.7,1.9,-3.4,4.6,-3.4q.1,0,.2,0c1.9,-3.3,4.2,-6.3,6.2,-9.7c-.6,-.9,-1.2,-2.3,-.9,-3.6c.5,1.2,1.6,1.9,2.4,2.9c-.1,.6,-.3,1.1,-.4,1.7c.6,.7,1.3,1.2,2.4,1.4c.4,-.4,.5,-1.2,1.1,-1.5c1,.3,1.9,.7,3.2,.7c.1,.2,.4,.2,.8,.2c.3,0,.7,0,.8,-.2c.1,.1,.2,.1,.3,.1c.2,0,.4,-.1,.6,-.2c.2,0,.4,-.1,.5,-.1c.1,0,.2,0,.3,.1c-1.3,.7,-2.1,1.8,-4.1,1.8c-.1,0,-.3,0,-.4,0c-.8,3.7,-1.8,7.3,-2.6,11.2c.5,1,1.5,1.6,1.2,3.1c-.4,2.7,-3.8,4.4,-7.2,4.4c-1.2,0,-2.5,-.2,-3.6,-.8c-1,2.1,-2,4.2,-3.2,6.1c-.1,-.4,.2,-.4,.2,-.8c1,-1.8,2,-3.6,2.7,-5.6c-1.1,1.7,-1.9,3.7,-2.8,5.5c-.2,.4,-.4,.8,-.6,1.3c-.3,.4,-.3,1.1,-.8,1.3Z"/></clipPath>
<clipPath id="cf_234"><path d="M199.2,611.7c-4.8,0,-13,-7.3,-5.5,-8.8H195c.1,0,.4,0,.6,0q.1,0,.2,0c.3,0,.6,0,.9,.1c3.1,.6,8.2,3.8,7.6,7c-.3,1.2,-1.6,1.6,-3.2,1.7h-1.7q-.1,0,-.2,0Z"/></clipPath>
<clipPath id="cg_234"><path d="M764.8,434.8V422.4h14.5v12.4Z"/></clipPath>
<clipPath id="ch_234"><path d="M125.5,386.7V205.8H858.6V386.7Z"/></clipPath>
<style type="text/css"><![CDATA[
.g0_234{
fill: #FEFCF4;
}
.g1_234{
fill: #FFF;
}
.g2_234{
fill: none;
stroke: #6381B7;
stroke-width: 0.763;
}
.g3_234{
fill: none;
stroke: #818385;
stroke-width: 0.305;
stroke-dasharray: 3,3;
}
.g4_234{
fill: none;
stroke: #818385;
stroke-width: 0.305;
}
.g5_234{
fill: #F7C2D9;
}
.g6_234{
fill: #FDF4F3;
}
.g7_234{
fill: #EC008C;
}
.g8_234{
fill: none;
stroke: #949698;
stroke-width: 0.305;
stroke-dasharray: 4,4;
}
.g9_234{
fill: none;
stroke: #949698;
stroke-width: 0.305;
stroke-dasharray: 3,3;
}
.ga_234{
fill: none;
stroke: #949698;
stroke-width: 0.305;
}
.gb_234{
fill: #6D6F71;
}
.gc_234{
fill: #6381B7;
}
.gd_234{
fill: none;
stroke: #6381B7;
stroke-width: 0.381;
stroke-dasharray: 2,1;
}
.ge_234{
fill: none;
stroke: #6381B7;
stroke-width: 0.381;
}
.gf_234{
fill: #FCE8B0;
}
.gg_234{
fill: none;
stroke: #818385;
stroke-width: 0.305;
stroke-dasharray: 4,4;
}
.gh_234{
fill: #2E6E51;
}
.gi_234{
fill: none;
stroke: #FFF;
stroke-width: 0.152;
stroke-miterlimit: 1;
}
.gj_234{
fill: #BCBEC0;
}
.gk_234{
fill: #EE314A;
}
.gl_234{
fill: #25408F;
}
.gm_234{
fill: #A8AAAD;
}
.gn_234{
fill: none;
stroke: #949698;
stroke-width: 0.549;
}
.go_234{
fill: none;
stroke: #BCBEC0;
stroke-width: 2.566;
}
.gp_234{
fill: #231F20;
}
.gq_234{
fill: #363637;
}
.gr_234{
fill: #5CC4BE;
}
.gs_234{
fill: #EAD646;
}
.gt_234{
fill: #CEEDFB;
}
.gu_234{
fill: #27639D;
}
.gv_234{
fill: none;
stroke: #204A78;
stroke-width: 1.527;
}
.gw_234{
fill: none;
stroke: #FFF;
stroke-width: 1.909;
stroke-miterlimit: 10;
}
.gx_234{
fill: none;
stroke: #000;
stroke-width: 0.381;
stroke-miterlimit: 10;
}
]]></style>
</defs>
<path d="M32.1,1344.3H954.5V32.1H32.1V1344.3Z" class="g0_234"/>
<path clip-path="url(#c0_234)" d="M954.5,1344.3H1877V32.1H954.5V1344.3Z" class="g0_234"/>
<path d="M150.4,440.5c0,0,-18.3,0,-18.3,18.3V985.6c0,0,0,18.3,18.3,18.3H827.5c0,0,18.4,0,18.4,-18.3V440.5Z" class="g1_234"/>
<path d="M150.4,440.5c0,0,-18.3,0,-18.3,18.3V985.6c0,0,0,18.3,18.3,18.3H827.5c0,0,18.4,0,18.4,-18.3V440.5H150.4Z" class="g2_234"/>
<path d="M591.6,599.5c10.6,-1.2,19,-6.9,20.7,-14.2m-.4,-6.8c-2.5,-6.9,-11.1,-12.2,-21.7,-13m-7,.2c-10.7,1.2,-19.1,6.9,-20.8,14.1m.4,6.9c2.5,6.9,11.1,12.1,21.7,12.9" class="g3_234"/>
<path d="M612.6,584c.1,-.5,.1,-1,.1,-1.4c0,-.5,0,-1,-.1,-1.4M588.8,565.5c-.5,0,-1,-.1,-1.4,-.1c-.5,0,-1,.1,-1.4,.1m-23.9,15.7c0,.4,-.1,.9,-.1,1.4c0,.4,.1,.9,.1,1.4M586,599.7c.4,0,.9,0,1.4,0c.4,0,.9,0,1.4,0" class="g4_234"/>
<image clip-path="url(#c1_234)" preserveAspectRatio="none" x="678" y="633" width="229" height="196" xlink:href="img/1.png"/>
<path d="M683.5,643.3L688.8,822l212.1,-6.2l-5.1,-178Z" class="g5_234"/>
<image clip-path="url(#c2_234)" preserveAspectRatio="none" x="680" y="635" width="227" height="190" xlink:href="img/2.png"/>
<image clip-path="url(#c3_234)" preserveAspectRatio="none" x="680" y="635" width="227" height="190" xlink:href="img/3.png"/>
<path d="M688.3,639.2l-3.1,175.2l175.9,3.9l37,-19.7l2.5,-154.7Z" class="g6_234"/>
<path d="M861.1,818.3l37,-19.6l-18.8,-9.4Z" class="g7_234"/>
<path d="M581.8,564.3c15.5,-4.6,67,-17.9,89.6,-1.6m2.9,6.5c-.3,3.7,-2.8,7.7,-13.4,3.6" class="g8_234"/>
<path d="M657.3,568.1c0,-1,.3,-2.2,1.2,-3.3" class="g9_234"/>
<path d="M664.8,562.1c8.3,-1.2,28.4,-.3,59.7,24.1" class="g8_234"/>
<path d="M730.4,591c8.2,6.9,29.1,25.9,40.5,49.3" class="g9_234"/>
<path d="M577.3,565.6c0,0,.6,-.1,1.5,-.4m93.9,-1.5c.4,.3,.8,.6,1.2,1c0,0,.1,.6,.3,1.5m-14.7,6c-.4,-.1,-.9,-.3,-1.4,-.6c0,0,-.2,-.4,-.4,-1.1m1.7,-6.6c.2,-.2,.6,-.5,.9,-.7c0,0,.5,-.2,1.5,-.5m63.9,24.5c.4,.3,.8,.6,1.2,.9c0,0,.4,.4,1.1,1m43.6,52.6c.2,.4,.4,.9,.6,1.3" class="ga_234"/>
<path d="M766.4,642.4l8.4,-3.2l1.1,14.4Z" class="gb_234"/>
<path d="M145.1,1016.8c0,0,-13,0,-13,13v152.6c0,0,0,13,13,13H832.9c0,0,13,0,13,-13V1029.8c0,0,0,-13,-13,-13Z" class="g1_234"/>
<path d="M145.1,1016.8c0,0,-13,0,-13,13v152.6c0,0,0,13,13,13H832.9c0,0,13,0,13,-13V1029.8c0,0,0,-13,-13,-13H145.1Z" class="g2_234"/>
<path d="M586.8,1214.8c0,0,-4.3,0,-4.3,4.4V1230c0,0,0,4.3,4.3,4.3h30.3c0,0,4.3,0,4.3,-4.3v-10.8c0,0,0,-4.4,-4.3,-4.4Z" class="gc_234"/>
<path d="M573.6,1206v37.5m1.3,1H845.1m1,-1.3v-37.6m-1.4,-1H574.6" class="gd_234"/>
<path d="M573.6,1243.9v.6h.6m271.3,0h.6v-.6m0,-38.7v-.6h-.6m-271.3,0h-.6v.6" class="ge_234"/>
<path d="M209.2,499c0,0,-13,0,-13,13v21.6c0,0,0,13,13,13h602c0,0,13,0,13,-13V512c0,0,0,-13,-13,-13Z" class="gf_234"/>
<image clip-path="url(#c4_234)" preserveAspectRatio="none" x="152" y="469" width="75" height="77" xlink:href="img/4.png"/>
<path d="M204,539.3c0,0,-26.8,11.3,-51.1,-12.8c0,0,15.2,25.3,49.3,24c0,0,24.8,.3,20.3,-10.2c0,0,1.2,-4.4,-18.5,-1Z" class="gf_234"/>
<path d="M209.2,1057.6c0,0,-13,0,-13,13v21.7c0,0,0,13,13,13h602c0,0,13,0,13,-13v-21.7c0,0,0,-13,-13,-13Z" class="gf_234"/>
<image clip-path="url(#c5_234)" preserveAspectRatio="none" x="152" y="1028" width="75" height="76" xlink:href="img/5.png"/>
<path d="M204,1097.9c0,0,-26.8,11.3,-51.1,-12.7c0,0,15.2,25.3,49.3,23.9c0,0,24.8,.4,20.3,-10.1c0,0,1.2,-4.5,-18.5,-1.1Z" class="gf_234"/>
<image clip-path="url(#c6_234)" x="794" y="644" width="5" height="10" xlink:href="shade/1.png"/>
<image clip-path="url(#c7_234)" x="793" y="618" width="24" height="28" xlink:href="shade/2.png"/>
<image clip-path="url(#c8_234)" x="793" y="620" width="23" height="34" xlink:href="shade/3.png"/>
<image clip-path="url(#c9_234)" x="798" y="616" width="20" height="10" xlink:href="shade/4.png"/>
<path d="M420.7,818c15.6,-.9,28.1,-6.6,30.9,-13.9m-.7,-7.5c-3.8,-6.8,-16.4,-12,-31.8,-12.6m-7.7,.1c-15.6,.9,-28.1,6.6,-30.9,13.9m.7,7.5c3.8,6.8,16.4,12,31.8,12.6" class="gg_234"/>
<path d="M452,802.6c.1,-.5,.1,-1,.1,-1.5c0,-.6,0,-1.1,-.1,-1.6M417.6,783.9c-.5,0,-1,0,-1.5,0c-.6,0,-1.1,0,-1.6,0m-34.4,15.6c-.1,.5,-.1,1,-.1,1.6c0,.5,0,1,.1,1.5m34.4,15.6c.5,0,1,0,1.6,0c.5,0,1,0,1.5,0" class="g4_234"/>
<image clip-path="url(#ca_234)" preserveAspectRatio="none" x="62" y="619" width="250" height="291" xlink:href="img/6.png"/>
<path d="M66.7,629.3L74,903.5l232.6,-6.4l-1,-45.2L299.5,622.8Z" class="g5_234"/>
<image clip-path="url(#cb_234)" preserveAspectRatio="none" x="63" y="619" width="250" height="288" xlink:href="img/7.png"/>
<path d="M72.5,623.8l-3.9,273l202.1,3.1l32.9,-30.7l3.1,-241.9Z" class="g6_234"/>
<path d="M270.7,900l32.9,-30.8L286.3,858Z" class="g7_234"/>
<path d="M414,822.5c-8.5,17.6,-43.5,85.6,-78,84.8m-6.2,-4c-3.4,-4.8,-6.5,-13.3,7.9,-18.2m6.9,2.8c.8,1.4,1.4,3,1.6,5.1" class="g8_234"/>
<path d="M344,900.6c-5.3,8.5,-22.9,27.8,-73.7,25.4" class="g9_234"/>
<path d="M262.9,925.5C250.5,924.5,215,920,184.7,900.2" class="g8_234"/>
<path d="M415.9,818.4c0,0,-.2,.5,-.6,1.4m-80.8,87.4c-.5,-.1,-1,-.1,-1.5,-.2c0,0,-.5,-.4,-1.2,-1.2m7.4,-21.2c.5,-.2,1.1,-.3,1.6,-.5c0,0,.6,.4,1.5,1.1m3.9,9.6c0,.6,-.1,1.2,-.2,1.8c0,0,-.2,.5,-.6,1.4m-76.5,27.9c-.5,0,-1,0,-1.5,-.1c0,0,-.5,0,-1.5,0M183.4,899.4c-.4,-.3,-.8,-.6,-1.2,-.8" class="ga_234"/>
<path d="M194.2,897.8l-10.1,8.9L178,892.6Z" class="gb_234"/>
<image clip-path="url(#cc_234)" x="181" y="631" width="6" height="9" xlink:href="shade/5.png"/>
<image clip-path="url(#cd_234)" x="180" y="604" width="25" height="28" xlink:href="shade/6.png"/>
<image clip-path="url(#ce_234)" x="180" y="606" width="23" height="34" xlink:href="shade/7.png"/>
<image clip-path="url(#cf_234)" x="186" y="602" width="19" height="10" xlink:href="shade/8.png"/>
<path d="M32.1,179.3H967.5V32.1H32.1V179.3Z" class="gh_234"/>
<path d="M262.3,134H247.1l1.2,1.2h11.8v8.2L258.5,142c.2,-.6,.3,-1.3,.3,-1.9c0,-.8,-.2,-1.6,-.6,-2.2c-.3,-.5,-.6,-.9,-1,-1.2c-.5,-.3,-.9,-.6,-1.4,-.7c-.3,-.1,-.6,-.2,-.9,-.2c-.7,0,-1.3,.2,-2,.7c-.3,.2,-.5,.5,-.7,.8c-.1,.3,-.2,.6,-.2,.9c0,.4,0,.7,.2,.9c.3,.5,.7,.7,1.2,.8c.6,.1,1.1,0,1.5,-.3c.2,-.2,.4,-.4,.6,-.6c.1,-.3,.2,-.5,.2,-.8c0,-.3,-.1,-.6,-.4,-1c.3,-.1,.5,-.1,.7,0c.2,0,.5,.1,.8,.3c.1,.2,.3,.4,.5,.7c.2,.3,.3,.6,.4,.9c.1,.3,.1,.5,.1,.7c0,.6,-.2,1.1,-.5,1.7c-.4,.8,-1.4,1.3,-2.8,1.3c-.5,0,-1.1,-.2,-1.6,-.5c-.6,-.3,-1.1,-.8,-1.5,-1.4c-.5,-.5,-.9,-1.2,-1.2,-2c-.4,-.8,-.7,-1.7,-.9,-2.7l-.7,-.3c.1,1,.3,2,.6,2.9c.2,.9,.5,1.7,.9,2.3c.3,.5,.7,1,1,1.5c.4,.4,.8,.8,1.2,1.1c.4,.3,.8,.6,1.2,.7c.5,.2,.9,.3,1.3,.3c.7,0,1.3,-.2,1.9,-.4c.5,-.3,1,-.7,1.3,-1.2c1.4,.9,2.4,2.4,2.9,4.5v-.1l.4,.3V135.2h2.2L262.3,134Zm5.5,1.2L266.7,134h-1.1c-.4,-.4,-.6,-1,-.7,-1.9l-.5,-.3c0,.2,0,.5,0,.9c.1,.3,.1,.7,.1,1.2c.1,.5,.1,.9,.1,1.3c0,.3,0,.6,0,.9c-.2,-.8,-.5,-1.3,-.9,-1.6c-.4,-.3,-1,-.5,-1.7,-.5h-1.4l1.2,1.2c.3,0,.7,.1,1,.2c.3,.1,.6,.3,.8,.5c.3,.2,.5,.4,.6,.7c.2,.3,.2,.7,.2,1v8.9l1.2,1.2V135.2h2.2Zm12.1,-3.3c-2.3,-2.4,-4.7,-3.6,-7.2,-3.6c-1,0,-2,.4,-3.1,1.2c-1.1,.9,-1.6,1.8,-1.6,2.7c0,.4,.1,.7,.4,1l.9,.8h-3.2l1.2,1.2h1.8v11.3l1.2,1.2V135.2h2.1L271.2,134h-1.3l-.5,-1.1c.1,-.9,.6,-1.6,1.7,-2.3c.9,-.7,1.8,-1,2.7,-1c.6,0,1.2,.1,1.8,.2c.6,.2,1.1,.4,1.7,.7c.6,.4,1.1,.7,1.6,1c.5,.4,.9,.7,1.3,1l-.3,-.6Zm2.8,2.1H270.6l1.3,1.2c.4,.6,.8,1,1.1,1.2c.2,.2,.5,.3,.8,.4c.3,.2,.6,.3,1.1,.4c.8,.3,1.3,.5,1.6,.8c.5,.4,.7,1.1,.7,2.2c-.3,-.2,-.6,-.3,-1,-.3c-.7,0,-1.3,.2,-1.7,.5c-.5,.4,-.8,1,-.8,1.6c0,.6,.2,1.1,.6,1.5c.4,.4,.9,.5,1.5,.5c.3,0,.6,0,1,-.2c.4,-.1,.7,-.5,1.1,-.9c1.6,.5,2.7,2,3.3,4.4l.5,.5V135.2h2.2L282.7,134Zm-2.2,9.8c-.2,-.4,-.5,-.8,-.9,-1.2c-.3,-.4,-.7,-.8,-1.2,-1.2c0,-.1,.1,-.2,.1,-.3v-.3c0,-1.1,-.4,-2.1,-1.2,-3.1c-.4,-.7,-1.3,-1.5,-2.5,-2.5h5.8v8.6h-.1Zm22.4,-8.6L301.8,134H290l1.1,1.2h8.2v.9c-2.5,.8,-4.9,2.1,-7.3,3.7l1.5,2.3c1.7,.1,3.1,.7,4.1,1.6c.3,.3,.6,.6,.9,1c.4,.4,.6,.8,.8,1.2c.2,.3,.3,.5,.4,.7c0,.1,.1,.2,.1,.4l.7,.8V135.2h2.4Zm-3.6,9.4c-1,-1.8,-2.7,-3.2,-4.8,-4.1c.9,-.6,1.7,-1.1,2.5,-1.5c.8,-.4,1.6,-.7,2.3,-1v6.6Zm7.9,-9.4L306,134h-1c-.4,-.4,-.6,-1,-.8,-1.9l-.4,-.3c0,.2,0,.5,0,.9c0,.3,0,.7,.1,1.2c0,.5,0,.9,0,1.3c.1,.3,.1,.6,.1,.9c-.3,-.8,-.6,-1.3,-1,-1.6c-.4,-.3,-1,-.5,-1.7,-.5H300l1.1,1.2c.4,0,.7,.1,1,.2c.4,.1,.7,.3,.9,.5c.2,.2,.4,.4,.6,.7c.1,.3,.2,.7,.2,1v8.9l1.2,1.2V135.2h2.2Zm12.5,0L318.5,134H305.6c.4,.4,.7,.7,.9,.9c.3,.2,.4,.4,.6,.5c.3,.2,.6,.4,.9,.6c.3,.1,.5,.2,.8,.3c.5,.1,.9,.2,1.3,.3c.3,.1,.6,.2,.8,.4c.2,.2,.4,.4,.5,.7c.1,.4,.2,.8,.3,1.4c-.4,.5,-.7,.9,-1,1.3c-.2,.3,-.5,.5,-.6,.7c-.2,.2,-.3,.3,-.4,.4c-.1,0,-.2,0,-.3,0c-.1,0,-.3,0,-.4,-.1c-.2,-.1,-.3,-.3,-.4,-.4c-.1,-.2,-.2,-.4,-.2,-.6c-.1,-.2,-.2,-.3,-.2,-.5l-.8,.8c.2,.2,.3,.5,.5,.8c.2,.3,.4,.6,.6,.9c.2,.3,.5,.5,.8,.7c.3,.1,.6,.2,1,.2c.1,0,.2,0,.4,-.1c.1,0,.3,-.1,.5,-.3c.2,-.2,.5,-.5,.8,-.9c.3,-.4,.6,-.9,1,-1.6c.5,-.6,.9,-1,1.3,-1.1c.4,0,.8,.1,1.1,.4c.3,.4,.5,.9,.7,1.6c.2,.7,.3,1.6,.3,2.5v.4c0,.1,0,.3,0,.5c0,.1,0,.4,0,.7c-.1,.3,-.1,.6,-.1,1.1c.2,.2,.4,.4,.6,.6c.2,.3,.4,.5,.6,.7V135.2h2.2Zm-3.4,4.1c-.3,-.4,-.6,-.8,-.9,-1.1c-.3,-.4,-.6,-.6,-.9,-.7c-.3,-.1,-.7,-.1,-1,.1c-.3,.1,-.7,.4,-1.1,.8c0,-.6,-.1,-1.1,-.4,-1.6c-.2,-.5,-.7,-1,-1.3,-1.6h5.6v4.1ZM331,135.2L329.7,134H318.1l1.2,1.2h8.4v6.6h-.1c-1.2,-2.6,-2.7,-4,-4.4,-4c-.8,0,-1.5,.3,-2.1,.9c-.6,.5,-.9,1.2,-.9,2c0,1.5,.8,2.2,2.4,2.2c.5,0,.9,-.2,1.2,-.5c.3,-.4,.4,-.8,.4,-1.3c0,-.3,-.3,-.8,-.8,-1.5c.1,-.1,.2,-.1,.4,-.1c1.2,0,2.3,.8,3.3,2.5c.6,1.4,.9,2.9,.9,4.2l-.1,1.3l1,.6V135.2H331Zm6.3,6.9l-.3,-.3h-5.3c-.1,.2,-.1,.3,-.2,.5c-.1,.1,-.1,.3,-.1,.5l.2,.2H337c0,-.1,.1,-.2,.1,-.4c.1,-.2,.2,-.4,.2,-.5Zm6.5,-8.1c-.5,0,-1,.2,-1.5,.4c-.5,.3,-.9,.5,-1.3,.8c-.8,.8,-1.4,1.8,-1.8,2.8c-.4,1,-.6,2.1,-.7,3.3c0,1.5,.3,2.8,1,3.9c.7,1.4,1.8,2.1,3.1,2.1c.3,0,.6,0,.9,-.1c.3,-.1,.5,-.2,.7,-.4c.2,-.2,.3,-.4,.5,-.7c.1,-.2,.1,-.5,.1,-.8c0,-.4,-.1,-.9,-.4,-1.2c-.3,-.3,-.6,-.5,-1,-.5c-.2,0,-.4,.1,-.6,.1c-.2,.1,-.3,.2,-.4,.3c-.2,.2,-.3,.3,-.4,.4c-.1,.2,-.1,.4,-.1,.6c0,.2,.1,.4,.2,.7c.1,.2,.3,.4,.5,.6c0,0,-.1,.1,-.2,.1h-.1c-.7,0,-1.4,-.5,-1.9,-1.4c-.4,-.7,-.7,-1.5,-.7,-2.3c0,-1,.1,-1.9,.4,-2.7c.2,-.7,.5,-1.4,.9,-2.1c.5,-.7,1,-1.3,1.7,-1.7c.6,-.5,1.4,-.8,2.3,-1L343.8,134Zm15.6,1.2L358.2,134H343l1.2,1.2H352v1c-2.6,.8,-4.9,2.1,-6.9,3.7l1.6,2.1c1.4,.1,2.6,.7,3.7,1.8c.5,.5,.9,1,1.3,1.6c.4,.7,.7,1.3,1,2c0,.1,.1,.1,.2,.2c.1,0,.1,.1,.2,.1v-10c1.2,0,2.2,.3,2.8,1c.7,.7,1,1.4,1,2.2l-.1,.3c-.2,-.2,-.4,-.3,-.5,-.4c-.2,-.2,-.5,-.2,-.7,-.2c-.4,0,-.7,.1,-1,.4c-.3,.2,-.4,.5,-.4,.9c0,.2,0,.4,.1,.6c.1,.2,.2,.3,.4,.5c.1,.1,.3,.2,.5,.3c.2,.1,.4,.1,.6,.1c.3,0,.5,-.1,.8,-.2c.2,-.1,.4,-.3,.6,-.5c.2,-.2,.3,-.4,.4,-.7c.1,-.3,.1,-.5,.1,-.8c0,-1.3,-.4,-2.4,-1.2,-3.4c-.8,-1.2,-2,-1.7,-3.4,-1.7v-.9h6.3Zm-7.5,9.1c-1,-1.8,-2.4,-3.1,-4.4,-4c.8,-.5,1.5,-1,2.3,-1.4c.7,-.4,1.4,-.8,2.1,-1.1v6.5ZM364,135.2L362.8,134h-1c-.4,-.4,-.6,-1,-.8,-1.9l-.4,-.3c0,.2,0,.5,0,.9c0,.3,0,.7,.1,1.2c0,.5,0,.9,.1,1.3c0,.3,0,.6,0,.9c-.3,-.8,-.6,-1.3,-1,-1.6c-.4,-.3,-.9,-.5,-1.7,-.5h-1.3l1.2,1.2c.3,0,.6,.1,.9,.2c.4,.1,.7,.3,.9,.5c.3,.2,.5,.4,.6,.7c.1,.3,.2,.7,.2,1v8.9l1.2,1.2V135.2H364Zm12.5,0L375.3,134H362.4c.4,.4,.7,.7,.9,.9c.3,.2,.4,.4,.6,.5c.3,.2,.6,.4,.9,.6c.3,.1,.6,.2,.8,.3c.5,.1,1,.2,1.3,.3c.3,.1,.6,.2,.8,.4c.2,.2,.4,.4,.5,.7c.2,.4,.3,.8,.3,1.4c-.4,.5,-.7,.9,-1,1.3c-.2,.3,-.5,.5,-.6,.7c-.2,.2,-.3,.3,-.4,.4c-.1,0,-.2,0,-.3,0c-.1,0,-.3,0,-.4,-.1c-.2,-.1,-.3,-.3,-.4,-.4c-.1,-.2,-.2,-.4,-.2,-.6c-.1,-.2,-.1,-.3,-.2,-.5l-.8,.8c.2,.2,.3,.5,.5,.8c.2,.3,.4,.6,.6,.9c.2,.3,.5,.5,.8,.7c.3,.1,.6,.2,1,.2c.1,0,.2,0,.4,-.1c.1,0,.3,-.1,.5,-.3c.2,-.2,.5,-.5,.8,-.9c.3,-.4,.6,-.9,1,-1.6c.5,-.6,.9,-1,1.3,-1.1c.4,0,.8,.1,1.1,.4c.3,.4,.5,.9,.7,1.6c.2,.7,.3,1.6,.3,2.5v.4c0,.1,0,.3,0,.5c0,.1,0,.4,0,.7c0,.3,-.1,.6,-.1,1.1c.2,.2,.4,.4,.6,.6c.2,.3,.4,.5,.6,.7V135.2h2.2Zm-3.4,4.1c-.3,-.4,-.6,-.8,-.9,-1.1c-.3,-.4,-.6,-.6,-.9,-.7c-.3,-.1,-.7,-.1,-1,.1c-.3,.1,-.7,.4,-1.1,.8c0,-.6,-.1,-1.1,-.4,-1.6c-.2,-.5,-.7,-1,-1.3,-1.6h5.6v4.1Zm14.7,-4.1L386.6,134H374.9l1.2,1.2h8.4v6.6c-1.3,-2.6,-2.8,-4,-4.5,-4c-.8,0,-1.5,.3,-2.1,.9c-.6,.5,-.8,1.2,-.8,2c0,1.5,.7,2.2,2.3,2.2c.5,0,.9,-.2,1.2,-.5c.3,-.4,.4,-.8,.4,-1.3c0,-.3,-.3,-.8,-.8,-1.5c.1,-.1,.2,-.1,.4,-.1c1.2,0,2.3,.8,3.3,2.5c.6,1.4,1,2.9,.9,4.2v1.3l.9,.6V135.2h2.1Zm19,0L405.6,134h-2.2v1.6c-2,1.3,-3.1,1.9,-3.3,1.9c-.6,0,-1,-.1,-1.3,-.4c-.4,-.2,-.5,-.5,-.5,-.9c0,-.3,0,-.5,.2,-.7c.1,.1,.3,.2,.4,.3c.2,0,.3,.1,.5,.1c.3,0,.5,-.1,.7,-.3c.2,-.2,.3,-.4,.3,-.8c-.1,-.6,-.6,-1,-1.5,-1c-.6,0,-1.1,.2,-1.5,.6c-.4,.4,-.6,.8,-.6,1.4c0,.4,.1,.7,.3,.9c.1,.3,.3,.5,.5,.7c.5,.4,1.1,.6,1.9,.6l-3.2,2.3l1.5,2c.6,0,1.2,.2,1.8,.3c.5,.2,1,.4,1.4,.7c.6,.5,1.3,1.2,1.9,2.1c.2,.3,.4,.6,.5,.9c.2,.3,.4,.6,.5,.8l.7,1V135.2h2.2Zm-3.4,9.5c-1,-1.7,-2.5,-3.1,-4.5,-4c.8,-.7,1.5,-1.3,2.3,-1.7c.7,-.5,1.5,-.9,2.2,-1.2v6.9Zm3.9,7c-.1,-.2,-.2,-.3,-.3,-.5c-.1,-.2,-.3,-.4,-.5,-.7c-.3,-.3,-.6,-.6,-1,-1c-.3,-.3,-.6,-.6,-.9,-.9c0,-.3,0,-.7,0,-1.2c0,-.4,-.1,-.8,-.3,-1.2l-1,-.6c.1,.5,.2,1,.2,1.4c0,.4,0,.8,-.1,1c-.8,-.5,-1.3,-.7,-1.8,-.7c-.3,0,-.5,.1,-.8,.2c-.3,.1,-.5,.2,-.7,.4c-.2,.1,-.4,.3,-.5,.6c-.1,.2,-.2,.5,-.2,.8c0,.5,.3,1,.7,1.3c.5,.3,1,.5,1.6,.5c1,-.1,1.8,-.5,2.5,-1.4c.2,.1,.5,.3,.8,.5c.2,.2,.5,.5,.8,.7c.3,.3,.5,.6,.8,.9c.3,.3,.5,.6,.7,.8v-.9Zm-4.8,-3.1c.2,.1,.3,.2,.5,.4c-.2,.2,-.4,.5,-.7,.7c-.4,.1,-.7,.2,-1.1,.2c-.4,-.1,-.6,-.3,-.6,-.7c.1,-.5,.5,-.7,1.3,-.7c.2,0,.4,.1,.6,.1ZM412.8,134h-7.9l1.2,1.2H410c-1.7,2,-2.5,4,-2.5,6.1c0,1.5,.3,2.8,.9,3.9c.8,1.4,1.8,2.1,3.2,2.1c.3,0,.6,0,.9,-.1c.2,-.1,.5,-.2,.7,-.4c.2,-.2,.3,-.4,.4,-.7c.1,-.2,.2,-.5,.2,-.8c0,-.4,-.1,-.9,-.4,-1.2c-.3,-.3,-.7,-.5,-1.1,-.5c-.3,0,-.7,.2,-1,.4c-.3,.3,-.4,.6,-.4,1c0,.2,0,.4,.2,.7c.1,.2,.3,.4,.5,.6c-.7,.2,-1.4,-.2,-2.2,-1.3c-.4,-.7,-.7,-1.5,-.7,-2.3c0,-1,.1,-1.9,.3,-2.7c.2,-.7,.6,-1.4,1,-2.1c.4,-.7,1,-1.3,1.6,-1.7c.7,-.5,1.5,-.8,2.4,-1L412.8,134Zm12.1,1.2L423.8,134H412l1.1,1.2h8.2v.9c-2.5,.8,-4.9,2.1,-7.3,3.7l1.5,2.3c1.7,.1,3.1,.7,4.1,1.6c.3,.3,.6,.6,.9,1c.4,.4,.6,.8,.8,1.2c.2,.3,.3,.5,.4,.7c0,.1,.1,.2,.1,.4l.7,.8V135.2h2.4Zm-3.6,9.4c-1,-1.8,-2.6,-3.2,-4.8,-4.1c.9,-.6,1.7,-1.1,2.5,-1.5c.8,-.4,1.6,-.7,2.3,-1v6.6Zm7.9,-9.4L428,134h-1c-.4,-.4,-.7,-1,-.8,-1.9l-.4,-.3c0,.2,0,.5,0,.9c0,.3,0,.7,.1,1.2c0,.5,0,.9,.1,1.3c0,.3,0,.6,0,.9c-.3,-.8,-.6,-1.3,-1,-1.6c-.4,-.3,-1,-.5,-1.7,-.5H422l1.1,1.2c.4,0,.7,.1,1,.2c.4,.1,.6,.3,.9,.5c.2,.2,.4,.4,.6,.7c.1,.3,.2,.7,.2,1v8.9l1.2,1.2V135.2h2.2Z" class="gi_234"/>
<g clip-path="url(#c0_234)">
<path d="M1877,177.2H32.1v-5.4H768.7c43.1,0,53,-37.9,115.3,-37.9h993Z" class="gj_234"/>
<path d="M1877,183.7H32.1v-9.8H768.7c43.1,0,53,-33.6,115.3,-33.6h993Z" class="gk_234"/>
</g>
<path d="M131.7,414.2v39l11.7,10.3V419.2Z" class="gl_234"/>
<path d="M131.7,414.2v39H829.5c0,0,16.8,0,16.8,-16.8V431c0,0,0,-16.8,-16.8,-16.8Z" class="gc_234"/>
<path d="M781,447.8c8.2,0,14.8,-6.5,14.8,-14.5c0,-8,-6.6,-14.5,-14.8,-14.5c-8.3,0,-14.9,6.5,-14.9,14.5c0,8,6.6,14.5,14.9,14.5Z" class="gm_234"/>
<path d="M781,447.8c8.2,0,14.8,-6.5,14.8,-14.5c0,-8,-6.6,-14.5,-14.8,-14.5c-8.3,0,-14.9,6.5,-14.9,14.5c0,8,6.6,14.5,14.9,14.5Z" class="gn_234"/>
<path d="M781,438.7c3,0,5.4,-2.4,5.4,-5.4c0,-3,-2.4,-5.3,-5.4,-5.3c-3.1,0,-5.5,2.3,-5.5,5.3c0,3,2.4,5.4,5.5,5.4Z" class="g1_234"/>
<path d="M781,438.7c3,0,5.4,-2.4,5.4,-5.4c0,-3,-2.4,-5.3,-5.4,-5.3c-3.1,0,-5.5,2.3,-5.5,5.3c0,3,2.4,5.4,5.5,5.4Z" class="go_234"/>
<g clip-path="url(#cg_234)" opacity="0.3">
<path d="M766.4,432.5c0,0,-.1,-4.8,3.6,-8.6l7.8,6.7c0,0,-1,.9,-1.1,2.7Z" class="g1_234"/>
</g>
<path d="M785.6,433.2c0,0,-3.5,0,-3.5,3.5v8.7c0,0,0,3.4,3.5,3.4H829c0,0,3.5,0,3.5,-3.4v-8.7c0,0,0,-3.5,-3.5,-3.5Z" class="gp_234"/>
<path d="M169.5,424.3c0,-8.4,-6.7,-15.1,-15,-15.1c-8.4,0,-15.1,6.7,-15.1,15.1c0,8.3,6.8,15,15.1,15c.8,0,1.6,-.1,2.4,-.2l4.5,5.2v-6.7c4.8,-2.5,8.1,-7.5,8.1,-13.3Z" class="g1_234"/>
<path d="M161.8,445.6l-5.1,-6c-.7,.1,-1.5,.2,-2.2,.2c-8.6,0,-15.6,-7,-15.6,-15.5c0,-8.6,7,-15.5,15.6,-15.5c8.5,0,15.5,6.9,15.5,15.5c0,5.7,-3.1,10.9,-8.2,13.6Zm-4.7,-7l3.8,4.5v-5.7l.3,-.2c4.8,-2.5,7.9,-7.5,7.9,-12.9c0,-8.1,-6.6,-14.6,-14.6,-14.6c-8.1,0,-14.6,6.5,-14.6,14.6c0,8,6.5,14.6,14.6,14.6c.7,0,1.5,-.1,2.3,-.2Z" class="gq_234"/>
<path d="M147.4,423.8c.8,0,1.5,.7,1.5,1.5c0,.8,-.7,1.4,-1.5,1.4c-.7,0,-1.4,-.6,-1.4,-1.4c0,-.8,.7,-1.5,1.4,-1.5Z" class="gr_234"/>
<path d="M147.4,427.2c-1,0,-1.8,-.9,-1.8,-1.9c0,-1.1,.8,-1.9,1.8,-1.9c1.1,0,1.9,.8,1.9,1.9c0,1,-.8,1.9,-1.9,1.9m0,-2.9c-.5,0,-.9,.4,-.9,1c0,.5,.4,1,.9,1c.6,0,1,-.5,1,-1c0,-.6,-.4,-1,-1,-1Z" class="gq_234"/>
<path d="M154.5,423.8c.8,0,1.4,.7,1.4,1.5c0,.8,-.6,1.4,-1.4,1.4c-.8,0,-1.5,-.6,-1.5,-1.4c0,-.8,.7,-1.5,1.5,-1.5Z" class="gr_234"/>
<path d="M154.5,427.2c-1.1,0,-1.9,-.9,-1.9,-1.9c0,-1.1,.8,-1.9,1.9,-1.9c1,0,1.9,.8,1.9,1.9c0,1,-.9,1.9,-1.9,1.9m0,-2.9c-.6,0,-1,.4,-1,1c0,.5,.4,1,1,1c.5,0,.9,-.5,.9,-1c0,-.6,-.4,-1,-.9,-1Z" class="gq_234"/>
<path d="M161.5,423.8c.8,0,1.4,.7,1.4,1.5c0,.8,-.6,1.4,-1.4,1.4c-.8,0,-1.5,-.6,-1.5,-1.4c0,-.8,.7,-1.5,1.5,-1.5Z" class="gr_234"/>
<path d="M161.5,427.2c-1.1,0,-1.9,-.9,-1.9,-1.9c0,-1.1,.8,-1.9,1.9,-1.9c1,0,1.9,.8,1.9,1.9c0,1,-.9,1.9,-1.9,1.9m0,-2.9c-.6,0,-1,.4,-1,1c0,.5,.4,1,1,1c.5,0,1,-.5,1,-1c0,-.6,-.5,-1,-1,-1Z" class="gq_234"/>
<path d="M163.4,438.5c0,-9.7,7.9,-17.6,17.6,-17.6c9.7,0,17.6,7.9,17.6,17.6c0,9.7,-7.9,17.6,-17.6,17.6c-.9,0,-1.9,-.1,-2.8,-.2l-5.3,6.1v-7.8c-5.6,-3,-9.5,-8.9,-9.5,-15.7Z" class="gs_234"/>
<path d="M172.9,462.5c0,0,-.1,-.1,-.1,-.1c-.2,0,-.3,-.2,-.3,-.4v-7.6c-5.9,-3.1,-9.6,-9.2,-9.6,-15.9c0,-10,8.2,-18.1,18.1,-18.1c10,0,18.1,8.1,18.1,18.1c0,10,-8.1,18.1,-18.1,18.1c-.8,0,-1.7,-.1,-2.6,-.2l-5.1,5.9c-.1,.1,-.2,.2,-.4,.2M181,421.4c-9.4,0,-17.1,7.6,-17.1,17.1c0,6.5,3.5,12.3,9.2,15.2c.2,.1,.3,.3,.3,.5v6.6l4.4,-5.2c.1,-.1,.3,-.2,.5,-.2c.9,.2,1.8,.3,2.7,.3c9.5,0,17.2,-7.7,17.2,-17.2c0,-9.5,-7.7,-17.1,-17.2,-17.1Z" class="gq_234"/>
<path d="M189.2,438c.9,0,1.7,.8,1.7,1.7c0,.9,-.8,1.7,-1.7,1.7c-.9,0,-1.7,-.8,-1.7,-1.7c0,-.9,.8,-1.7,1.7,-1.7Z" class="g1_234"/>
<path d="M189.2,441.8c-1.2,0,-2.1,-.9,-2.1,-2.1c0,-1.2,.9,-2.1,2.1,-2.1c1.2,0,2.1,.9,2.1,2.1c0,1.2,-.9,2.1,-2.1,2.1m0,-3.3c-.7,0,-1.2,.5,-1.2,1.2c0,.6,.5,1.2,1.2,1.2c.7,0,1.2,-.6,1.2,-1.2c0,-.7,-.5,-1.2,-1.2,-1.2Z" class="gq_234"/>
<path d="M181,438c.9,0,1.7,.8,1.7,1.7c0,.9,-.8,1.7,-1.7,1.7c-.9,0,-1.7,-.8,-1.7,-1.7c0,-.9,.8,-1.7,1.7,-1.7Z" class="g1_234"/>
<path d="M181,441.8c-1.2,0,-2.1,-.9,-2.1,-2.1c0,-1.2,.9,-2.1,2.1,-2.1c1.2,0,2.1,.9,2.1,2.1c0,1.2,-.9,2.1,-2.1,2.1m0,-3.3c-.7,0,-1.2,.5,-1.2,1.2c0,.6,.5,1.2,1.2,1.2c.7,0,1.2,-.6,1.2,-1.2c0,-.7,-.5,-1.2,-1.2,-1.2Z" class="gq_234"/>
<path d="M172.8,438c.9,0,1.7,.8,1.7,1.7c0,.9,-.8,1.7,-1.7,1.7c-.9,0,-1.7,-.8,-1.7,-1.7c0,-.9,.8,-1.7,1.7,-1.7Z" class="g1_234"/>
<path d="M172.8,441.8c-1.2,0,-2.1,-.9,-2.1,-2.1c0,-1.2,.9,-2.1,2.1,-2.1c1.2,0,2.1,.9,2.1,2.1c0,1.2,-.9,2.1,-2.1,2.1m0,-3.3c-.7,0,-1.2,.5,-1.2,1.2c0,.6,.5,1.2,1.2,1.2c.7,0,1.2,-.6,1.2,-1.2c0,-.7,-.5,-1.2,-1.2,-1.2Z" class="gq_234"/>
<image clip-path="url(#ch_234)" preserveAspectRatio="none" x="125" y="206" width="734" height="181" xlink:href="img/8.png"/>
<path d="M144.6,231.3c0,0,-13,0,-13,13v117c0,0,0,13,13,13H833.1c0,0,13,0,13,-13v-130Z" class="gt_234"/>
<path d="M147.7,294.1l54.1,40.8l54.1,-40.8V230h8.7V211.9H155.8c-6.5,.4,-7.7,3.9,-8.2,8.4Z" class="gu_234"/>
<path d="M274,220.3c-.3,-4.7,-4.2,-8.4,-9,-8.4c-4.8,0,-8.7,3.7,-9,8.4h-.1V230h18.2v-9.7Z" class="gp_234"/>
<path d="M255.9,230.6H846.1" class="gv_234"/>
<path d="M32.1,45.1H9.2m958.3,0h22.9M32.1,1331.3H9.2m958.3,0h22.9M45.1,32.1V9.2m0,1335.1v22.9M954.5,32.1V9.2m0,1335.1v22.9" class="gw_234"/>
<path d="M32.1,45.1H9.2m958.3,0h22.9M32.1,1331.3H9.2m958.3,0h22.9M45.1,32.1V9.2m0,1335.1v22.9M954.5,32.1V9.2m0,1335.1v22.9" class="gx_234"/>
<path d="M27.5,32.1H0m972.1,0h27.5M27.5,1344.3H0m972.1,0h27.5M32.1,27.5V0m0,1348.9v27.5M967.5,27.5V0m0,1348.9v27.5" class="gw_234"/>
<path d="M27.5,32.1H0m972.1,0h27.5M27.5,1344.3H0m972.1,0h27.5M32.1,27.5V0m0,1348.9v27.5M967.5,27.5V0m0,1348.9v27.5" class="gx_234"/>
</svg>