<?xml version="1.0" encoding="UTF-8" standalone="no"?>
<!DOCTYPE svg PUBLIC "-//W3C//DTD SVG 1.1//EN"
"http://www.w3.org/Graphics/SVG/1.1/DTD/svg11.dtd">
<svg viewBox="0 0 999 1376" version="1.1" xmlns="http://www.w3.org/2000/svg" xmlns:xlink="http://www.w3.org/1999/xlink">
<defs>
<clipPath id="c0_310"><path d="M198.1,360.4V261.2h99.2v99.2Z"/></clipPath>
<clipPath id="c1_310"><path d="M525.3,360.4V261.2H632.5v99.2Z"/></clipPath>
<clipPath id="c2_310"><path d="M678.2,360.4V261.2h117v99.2Z"/></clipPath>
<clipPath id="c3_310"><path d="M198.1,517.5V418.2h99.2v99.3Z"/></clipPath>
<clipPath id="c4_310"><path d="M525.3,517.5V418.2H632.5v99.3Z"/></clipPath>
<clipPath id="c5_310"><path d="M678.2,517.5V418.2h117v99.3Z"/></clipPath>
<clipPath id="c6_310"><path d="M198.1,684.8V585.6h99.2v99.2Z"/></clipPath>
<clipPath id="c7_310"><path d="M525.3,684.8V585.6H632.5v99.2Z"/></clipPath>
<clipPath id="c8_310"><path d="M684.5,684.8V585.6H798.7v99.2Z"/></clipPath>
<clipPath id="c9_310"><path d="M219.2,979.1V916.5h65v62.6Z"/></clipPath>
<clipPath id="ca_310"><path d="M733.3,980.7V919.6h65v61.1Z"/></clipPath>
<clipPath id="cb_310"><path d="M608.8,979.9V915h61.9v64.9Z"/></clipPath>
<clipPath id="cc_310"><path d="M476.7,979.9V918.8h65.7v61.1Z"/></clipPath>
<clipPath id="cd_310"><path d="M351.4,981.4V920.3h61.1v61.1Z"/></clipPath>
<clipPath id="ce_310"><path d="M176.6,235.2l-6.5,-2.1l-16.4,-14V162h72v73.2Z"/></clipPath>
<clipPath id="cf_310"><path d="M176.6,850.5l-6.5,-2.1L153.7,834.5V777.4h72v73.1Z"/></clipPath>
<style type="text/css"><![CDATA[
.g0_310{
fill: #FEFCF4;
}
.g1_310{
fill: #FFF;
}
.g2_310{
fill: none;
stroke: #6381B7;
stroke-width: 0.763;
}
.g3_310{
fill: none;
stroke: #949698;
stroke-width: 0.381;
}
.g4_310{
fill: #93BEDA;
}
.g5_310{
fill: #EFE9CC;
}
.g6_310{
fill: #6381B7;
}
.g7_310{
fill: none;
stroke: #6381B7;
stroke-width: 0.381;
stroke-dasharray: 2,1;
}
.g8_310{
fill: none;
stroke: #6381B7;
stroke-width: 0.381;
}
.g9_310{
fill: #FCE8B0;
}
.ga_310{
fill: #25408F;
}
.gb_310{
fill: #00BAF1;
}
.gc_310{
fill: #332D2C;
}
.gd_310{
fill: #D9DFF0;
}
.ge_310{
fill: #F27C85;
}
.gf_310{
fill: #7DD3F6;
}
.gg_310{
fill: none;
stroke: #FFF;
stroke-width: 1.909;
stroke-miterlimit: 10;
}
.gh_310{
fill: none;
stroke: #000;
stroke-width: 0.381;
stroke-miterlimit: 10;
}
]]></style>
</defs>
<path d="M32.1,1344.3H954.5V32.1H32.1V1344.3Z" class="g0_310"/>
<path d="M150.4,133.7c0,0,-18.3,0,-18.3,18.3V729.5c0,0,0,18.4,18.3,18.4H827.5c0,0,18.4,0,18.4,-18.4V133.7Z" class="g1_310"/>
<path d="M150.4,133.7c0,0,-18.3,0,-18.3,18.3V729.5c0,0,0,18.4,18.3,18.4H827.5c0,0,18.4,0,18.4,-18.4V133.7H150.4Z" class="g2_310"/>
<path d="M145.1,861.8c0,0,-13,0,-13,13V1162c0,0,0,13,13,13H832.9c0,0,13,0,13,-13V874.8c0,0,0,-13,-13,-13Z" class="g1_310"/>
<path d="M145.1,861.8c0,0,-13,0,-13,13V1162c0,0,0,13,13,13H832.9c0,0,13,0,13,-13V874.8c0,0,0,-13,-13,-13H145.1Z" class="g2_310"/>
<path d="M187.4,360.4H307.9V261.2H187.4v99.2Z" class="g1_310"/>
<image clip-path="url(#c0_310)" preserveAspectRatio="none" x="198" y="261" width="99" height="99" xlink:href="img/1.jpg"/>
<path d="M187.4,360.4H307.9V261.2H187.4v99.2Z" class="g3_310"/>
<path d="M351,360.4H471.5V261.2H351v99.2Z" class="g1_310"/>
<image preserveAspectRatio="none" x="362" y="261" width="99" height="99" xlink:href="img/2.png"/>
<path d="M351,360.4H471.5V261.2H351v99.2Z" class="g3_310"/>
<path d="M514.6,360.4H635.1V261.2H514.6v99.2Z" class="g1_310"/>
<image clip-path="url(#c1_310)" preserveAspectRatio="none" x="525" y="259" width="108" height="101" xlink:href="img/3.jpg"/>
<path d="M514.6,360.4H635.1V261.2H514.6v99.2Z" class="g3_310"/>
<path d="M678.2,360.4H798.7V261.2H678.2v99.2Z" class="g1_310"/>
<image clip-path="url(#c2_310)" preserveAspectRatio="none" x="677" y="259" width="118" height="101" xlink:href="img/4.jpg"/>
<path d="M678.2,360.4H798.7V261.2H678.2v99.2Z" class="g3_310"/>
<path d="M187.4,517.5H307.9V418.2H187.4v99.3Z" class="g1_310"/>
<image clip-path="url(#c3_310)" preserveAspectRatio="none" x="198" y="418" width="99" height="99" xlink:href="img/5.jpg"/>
<path d="M187.4,517.5H307.9V418.2H187.4v99.3Z" class="g3_310"/>
<path d="M351,517.5H471.5V418.2H351v99.3Z" class="g1_310"/>
<image preserveAspectRatio="none" x="362" y="418" width="99" height="99" xlink:href="img/6.jpg"/>
<path d="M351,517.5H471.5V418.2H351v99.3Z" class="g3_310"/>
<path d="M514.6,517.5H635.1V418.2H514.6v99.3Z" class="g1_310"/>
<image clip-path="url(#c4_310)" preserveAspectRatio="none" x="525" y="417" width="108" height="100" xlink:href="img/7.jpg"/>
<path d="M514.6,517.5H635.1V418.2H514.6v99.3Z" class="g3_310"/>
<path d="M678.2,517.5H798.7V418.2H678.2v99.3Z" class="g1_310"/>
<image clip-path="url(#c5_310)" preserveAspectRatio="none" x="677" y="416" width="118" height="101" xlink:href="img/8.jpg"/>
<path d="M678.2,517.5H798.7V418.2H678.2v99.3Z" class="g3_310"/>
<path d="M187.4,684.8H307.9V585.6H187.4v99.2Z" class="g1_310"/>
<image clip-path="url(#c6_310)" preserveAspectRatio="none" x="198" y="584" width="99" height="103" xlink:href="img/9.jpg"/>
<path d="M187.4,684.8H307.9V585.6H187.4v99.2Z" class="g3_310"/>
<path d="M351,684.8H471.5V585.6H351v99.2Z" class="g1_310"/>
<image preserveAspectRatio="none" x="362" y="586" width="99" height="99" xlink:href="img/10.jpg"/>
<path d="M351,684.8H471.5V585.6H351v99.2Z" class="g3_310"/>
<path d="M514.6,684.8H635.1V585.6H514.6v99.2Z" class="g1_310"/>
<image clip-path="url(#c7_310)" preserveAspectRatio="none" x="525" y="584" width="108" height="102" xlink:href="img/11.jpg"/>
<path d="M514.6,684.8H635.1V585.6H514.6v99.2Z" class="g3_310"/>
<path d="M678.2,684.8H798.7V585.6H678.2v99.2Z" class="g1_310"/>
<image clip-path="url(#c8_310)" preserveAspectRatio="none" x="685" y="584" width="115" height="101" xlink:href="img/12.jpg"/>
<path d="M678.2,684.8H798.7V585.6H678.2v99.2Z" class="g3_310"/>
<image clip-path="url(#c9_310)" preserveAspectRatio="none" x="220" y="916" width="64" height="64" xlink:href="img/13.jpg"/>
<image clip-path="url(#ca_310)" preserveAspectRatio="none" x="734" y="916" width="64" height="64" xlink:href="img/14.jpg"/>
<image clip-path="url(#cb_310)" preserveAspectRatio="none" x="604" y="914" width="67" height="66" xlink:href="img/15.jpg"/>
<image clip-path="url(#cc_310)" preserveAspectRatio="none" x="477" y="916" width="66" height="65" xlink:href="img/16.jpg"/>
<image clip-path="url(#cd_310)" preserveAspectRatio="none" x="348" y="917" width="64" height="64" xlink:href="img/17.jpg"/>
<path d="M639.2,1117.6c2,0,3.6,-1.6,3.6,-3.6c0,-2,-1.6,-3.6,-3.6,-3.6c-2,0,-3.6,1.6,-3.6,3.6c0,2,1.6,3.6,3.6,3.6Z" class="g4_310"/>
<path d="M639.2,996.4c2,0,3.6,-1.6,3.6,-3.6c0,-2,-1.6,-3.6,-3.6,-3.6c-2,0,-3.6,1.6,-3.6,3.6c0,2,1.6,3.6,3.6,3.6Z" class="g4_310"/>
<path d="M508.5,1117.6c2,0,3.6,-1.6,3.6,-3.6c0,-2,-1.6,-3.6,-3.6,-3.6c-2,0,-3.6,1.6,-3.6,3.6c0,2,1.6,3.6,3.6,3.6Z" class="g4_310"/>
<path d="M508.5,996.4c2,0,3.6,-1.6,3.6,-3.6c0,-2,-1.6,-3.6,-3.6,-3.6c-2,0,-3.6,1.6,-3.6,3.6c0,2,1.6,3.6,3.6,3.6Z" class="g4_310"/>
<path d="M377.7,1117.6c2,0,3.6,-1.6,3.6,-3.6c0,-2,-1.6,-3.6,-3.6,-3.6c-2,0,-3.6,1.6,-3.6,3.6c0,2,1.6,3.6,3.6,3.6Z" class="g4_310"/>
<path d="M377.7,996.4c2,0,3.6,-1.6,3.6,-3.6c0,-2,-1.6,-3.6,-3.6,-3.6c-2,0,-3.6,1.6,-3.6,3.6c0,2,1.6,3.6,3.6,3.6Z" class="g4_310"/>
<path d="M769.9,1117.6c2,0,3.6,-1.6,3.6,-3.6c0,-2,-1.6,-3.6,-3.6,-3.6c-2,0,-3.6,1.6,-3.6,3.6c0,2,1.6,3.6,3.6,3.6Z" class="g4_310"/>
<path d="M769.9,996.4c2,0,3.6,-1.6,3.6,-3.6c0,-2,-1.6,-3.6,-3.6,-3.6c-2,0,-3.6,1.6,-3.6,3.6c0,2,1.6,3.6,3.6,3.6Z" class="g4_310"/>
<path d="M247,1117.6c2,0,3.6,-1.6,3.6,-3.6c0,-2,-1.6,-3.6,-3.6,-3.6c-2,0,-3.6,1.6,-3.6,3.6c0,2,1.6,3.6,3.6,3.6Z" class="g4_310"/>
<path d="M247,996.4c2,0,3.6,-1.6,3.6,-3.6c0,-2,-1.6,-3.6,-3.6,-3.6c-2,0,-3.6,1.6,-3.6,3.6c0,2,1.6,3.6,3.6,3.6Z" class="g4_310"/>
<path d="M205.3,1128.6c0,0,-8.6,0,-8.6,8.7v15.1c0,0,0,8.7,8.6,8.7h91c0,0,8.6,0,8.6,-8.7v-15.1c0,0,0,-8.7,-8.6,-8.7Z" class="g5_310"/>
<path d="M346.4,1128.6c0,0,-8.6,0,-8.6,8.7v15.1c0,0,0,8.7,8.6,8.7h69.3c0,0,8.7,0,8.7,-8.7v-15.1c0,0,0,-8.7,-8.7,-8.7Z" class="g5_310"/>
<path d="M476.7,1128.6c0,0,-8.7,0,-8.7,8.7v15.1c0,0,0,8.7,8.7,8.7h73.6c0,0,8.7,0,8.7,-8.7v-15.1c0,0,0,-8.7,-8.7,-8.7Z" class="g5_310"/>
<path d="M609.2,1128.6c0,0,-8.7,0,-8.7,8.7v15.1c0,0,0,8.7,8.7,8.7h69.2c0,0,8.7,0,8.7,-8.7v-15.1c0,0,0,-8.7,-8.7,-8.7Z" class="g5_310"/>
<path d="M737.3,1128.6c0,0,-8.7,0,-8.7,8.7v15.1c0,0,0,8.7,8.7,8.7h73.6c0,0,8.7,0,8.7,-8.7v-15.1c0,0,0,-8.7,-8.7,-8.7Z" class="g5_310"/>
<path d="M599.8,1191c0,0,-4.3,0,-4.3,4.3v10.9c0,0,0,4.3,4.3,4.3h30.3c0,0,4.3,0,4.3,-4.3v-10.9c0,0,0,-4.3,-4.3,-4.3Z" class="g6_310"/>
<path d="M586.6,1182.2v37.5m1.3,1H845.1m1,-1.4v-37.5m-1.4,-1H587.6" class="g7_310"/>
<path d="M586.6,1220.1v.6h.6m258.3,0h.6v-.6m0,-38.7v-.6h-.6m-258.3,0h-.6v.6" class="g8_310"/>
<path d="M209.2,190.2c0,0,-13,0,-13,13v21.6c0,0,0,13,13,13h602c0,0,13,0,13,-13V203.2c0,0,0,-13,-13,-13Z" class="g9_310"/>
<image clip-path="url(#ce_310)" preserveAspectRatio="none" x="152" y="160" width="75" height="77" xlink:href="img/18.png"/>
<path d="M204,230.5c0,0,-26.8,11.3,-51.1,-12.8c0,0,15.2,25.3,49.3,24c0,0,24.8,.3,20.3,-10.1c0,0,1.2,-4.5,-18.5,-1.1Z" class="g9_310"/>
<path d="M209.2,805.5c0,0,-13,0,-13,13v21.7c0,0,0,13,13,13H830.8c0,0,13,0,13,-13V818.5c0,0,0,-13,-13,-13Z" class="g9_310"/>
<image clip-path="url(#cf_310)" preserveAspectRatio="none" x="152" y="776" width="75" height="76" xlink:href="img/19.png"/>
<path d="M204,845.8c0,0,-26.8,11.3,-51.1,-12.7c0,0,15.2,25.3,49.3,23.9c0,0,24.8,.4,20.3,-10.1c0,0,1.2,-4.4,-18.5,-1.1Z" class="g9_310"/>
<path d="M132.7,126.7v22.2l11.7,10.3V137Z" class="ga_310"/>
<path d="M132.7,109.9v39H830.4c0,0,16.9,0,16.9,-16.8v-5.4c0,0,0,-16.8,-16.9,-16.8Z" class="g6_310"/>
<path d="M190.6,121.3l-6.4,-6.5L162.9,136l6.5,6.5Z" class="gb_310"/>
<path d="M169.4,143c.2,0,.3,0,.4,-.1L191,121.7c.1,-.1,.2,-.3,.2,-.4c0,-.1,-.1,-.3,-.2,-.4l-6.5,-6.4c-.2,-.2,-.5,-.2,-.7,0l-21.2,21.2c-.1,.1,-.2,.2,-.2,.3c0,.2,.1,.3,.2,.4l6.5,6.5c.1,.1,.2,.1,.3,.1m20.5,-21.7l-20.5,20.5L163.7,136l20.5,-20.4Z" class="gc_310"/>
<path d="M190.6,121.3l-6.4,-6.5l2.1,-2.1l6.5,6.5Z" class="gd_310"/>
<path d="M190.6,121.8c.2,0,.3,0,.4,-.1l2.1,-2.1c.1,-.1,.2,-.3,.2,-.4c0,-.2,-.1,-.3,-.2,-.4l-6.4,-6.5c-.2,-.2,-.6,-.2,-.8,0l-2.1,2.2c-.1,0,-.2,.2,-.2,.3c0,.2,.1,.3,.2,.4l6.5,6.5c.1,.1,.2,.1,.3,.1m1.4,-2.6l-1.4,1.4l-5.7,-5.8l1.4,-1.4Z" class="gc_310"/>
<path d="M196.4,115.6l-6.5,-6.5l-3.6,3.6l6.5,6.5Z" class="ge_310"/>
<path d="M192.8,119.7c.1,0,.2,0,.3,-.1l3.6,-3.7c.3,-.2,.3,-.5,0,-.7l-6.4,-6.5c-.2,-.2,-.6,-.2,-.8,0l-3.6,3.6c-.2,.2,-.2,.6,0,.8l6.5,6.5c.1,.1,.2,.1,.4,.1m2.8,-4.1l-2.8,2.8L187,112.7l2.9,-2.9Z" class="gc_310"/>
<path d="M158.3,147.2L162.9,136l6.5,6.5Z" class="g1_310"/>
<path d="M158.3,147.7c.1,0,.2,0,.2,-.1L169.6,143c.2,-.1,.3,-.2,.3,-.4c.1,-.2,0,-.3,-.1,-.5l-6.5,-6.4c-.1,-.2,-.3,-.2,-.5,-.2c-.1,.1,-.3,.2,-.3,.3l-4.7,11.1c-.1,.2,0,.5,.1,.6c.1,.1,.3,.2,.4,.2m10.2,-5.4l-9.2,3.9l3.8,-9.2Z" class="gc_310"/>
<path d="M158.3,147.2l2.2,-5.4l3.2,3.1Z" class="gc_310"/>
<path d="M158.3,147.7c.1,0,.2,0,.2,-.1l5.4,-2.2c.1,-.1,.3,-.2,.3,-.4c0,-.2,0,-.3,-.2,-.5l-3.1,-3.1c-.1,-.1,-.3,-.2,-.5,-.1c-.1,0,-.3,.1,-.3,.3l-2.3,5.3c-.1,.2,0,.5,.1,.6c.1,.1,.3,.2,.4,.2m4.4,-3l-3.4,1.5l1.4,-3.5Z" class="gc_310"/>
<path d="M188.9,119.5l-3,-2.9l-21.2,21.2l3,3Z" class="gf_310"/>
<path d="M167.7,141.3c.1,0,.2,-.1,.3,-.2l21.3,-21.2c0,-.1,.1,-.2,.1,-.4c0,-.1,-.1,-.2,-.1,-.3l-3,-3c-.2,-.2,-.6,-.2,-.8,0l-21.2,21.2c-.1,.1,-.1,.3,-.1,.4c0,.1,0,.3,.1,.4l3,2.9c.1,.1,.2,.2,.4,.2m20.4,-21.8L167.7,140l-2.3,-2.2l20.5,-20.5Z" class="gc_310"/>
<path d="M32.1,45.1H9.2m958.3,0h22.9M32.1,1331.3H9.2m958.3,0h22.9M45.1,32.1V9.2m0,1335.1v22.9M954.5,32.1V9.2m0,1335.1v22.9" class="gg_310"/>
<path d="M32.1,45.1H9.2m958.3,0h22.9M32.1,1331.3H9.2m958.3,0h22.9M45.1,32.1V9.2m0,1335.1v22.9M954.5,32.1V9.2m0,1335.1v22.9" class="gh_310"/>
<path d="M27.5,32.1H0m972.1,0h27.5M27.5,1344.3H0m972.1,0h27.5M32.1,27.5V0m0,1348.9v27.5M967.5,27.5V0m0,1348.9v27.5" class="gg_310"/>
<path d="M27.5,32.1H0m972.1,0h27.5M27.5,1344.3H0m972.1,0h27.5M32.1,27.5V0m0,1348.9v27.5M967.5,27.5V0m0,1348.9v27.5" class="gh_310"/>
</svg>