<?xml version="1.0" encoding="UTF-8" standalone="no"?>
<!DOCTYPE svg PUBLIC "-//W3C//DTD SVG 1.1//EN"
"http://www.w3.org/Graphics/SVG/1.1/DTD/svg11.dtd">
<svg viewBox="0 0 999 1376" version="1.1" xmlns="http://www.w3.org/2000/svg" xmlns:xlink="http://www.w3.org/1999/xlink">
<defs>
<clipPath id="c0_113"><path d="M32.1,1344.3V32.1H967.5V1344.3Z"/></clipPath>
<clipPath id="c1_113"><path d="M215,695.4V616.7H831.1v78.7Z"/></clipPath>
<clipPath id="c2_113"><path d="M215,896.3V769.8H831.1V896.3Z"/></clipPath>
<clipPath id="c3_113"><path d="M304.9,520.8v-.9h-3.4v-2.6h.8v-1.7h-1.7V513h-.9v-1.8h-.8v2.6H298v2.6h.9v.9H298v.9h-7.8v-2.6h.9v-.9h1.7v-.9h-.9v-2.6h-.8v-6h.8v-2.6h.9V500h.9v-.9h.8v-6.9h-1.7v.8h-6.9v-.8H285v-.9h-1.7v-.8h-.9V513h.9v2.6h-.9v1.7h-1.7v-.9h-1.8V489.6h-.8v-3.5h.8v-.8h9.6v-3.5h-4.4v-.9h-2.6v-.8h-.8v-.9h-.9v-.9h-.9v-.8h-.8v-1.8h-.9v-6.9h.9v-2.6h.8v-.9h.9v-1.7h.9v-.9h.8v-.8h.9V461h1.7v-.9h1.8v-.8h3.4v-.9h1.8v-.9h2.6v-.8H298v.8h1.7v2.6h.9v.9h.9v.9h.8v1.7h.9v5.2h-.9v.9h-.8v1.7h-.9v4.3h1.7v.9h2.6v.9h1.8v.8h.8v.9h.9v.9h.8v.8H311v1.8h.8v5.2H311v.8h-.9v.9h.9v1.7h.8V500H311v2.6h-.9v1.7h-.9v2.6h-.8v3.5h-.9V513h.9v6.9h-1.7v.9Zm-68.4,-.9V513h-.9v2.6h-3.4v-5.2H227v6.9h-.9v.9h-2.6v-7.8h-.9v-.9h-.8v-.9h-.9v-.8H220v-2.6h.9v-2.6h1.7v-.9h1.8v-.9H227V500h3.4V485.3h.9v-3.5h.9v-1.7h.8v-.9h.9v-.9h1.7v-.8h2.6v-.9h.9v-.9h.9v.9h2.6v-.9h1.7v-.8H246V474h.9v-.9h.9v-.8h.8v-2.6h.9v-1.8h-.9v-.8h-.8v-.9h-2.6v-.9h-2.6v-.8h-.9v-1.8h-.9v-3.4h.9v-3.5h.9v-2.6h.8v-2.6h.9v-1.7h.9v-1.8h.8v-.8h.9v-.9h.9v-.9h1.7v-.8h2.6v-.9h4.3v.9h3.5v.8h.8v.9h1.8v.9h1.7v.8h2.6v.9h1.7v1.7h.9v4.4h-.9v.8h-.8v1.8h-.9v.8h-.9V461h-.8v2.6h-.9v.9h-.9v1.7h-.8v.9h-.9v.8h.9v1.8h.8v2.6h.9V474h.9v1.7h.8v1.8h.9v.8h.9v.9h.8v.9h.9v1.7h.9v.9h.8v.8h.9v1.8h.9V493H272v4.4h-.9V500h-.8v1.7h-.9v6.1h-.9v7.8h-.8v2.6h-.9v.8h-5.2v-.8h-5.2v-3.5h.9v-.9h.8v-1.7h.9v-8.7h-.9v-2.6h-.8V500h-.9v-9.5h-.9v-7h-.8v.9h-.9v.9h-1.7v11.2h-.9v5.2h-.9v2.6h-.8v6.9h.8v3.5h-.8v.9h-1.7v-1.8h-.9v-3.4H246v-2.6h-2.6v.8h-2.6v.9H240v10.4Z"/></clipPath>
<clipPath id="c4_113"><path d="M242.6,426.1v-.7h-6.1v-.7h-.7V411.9h-.6v-3.4h-.7V399h-.7v.7h-1.4V399h-.6v-1.3h-.7v-3.4h-.7v-.7h.7v-8.1h.7v-3.4h.6v-2.7h.7v-2h.7v-2h.7v-2.1h.7v-2h.6v-.7h2.1v-.7h-3.4v-.6h-1.4v-.7h-.7v-.7h-.6v-1.3h.6v-.7h.7v-2.7h.7v-6.1h.7v-1.4h.7v-.6h.6v-.7h.7v-.7h.7V353h1.3v-.6h2.1v-.7h1.3v.7h2v.6h.7v.7h.7v.7h.7v6.7h.7v2.8H246v1.3h1.3v1.4h-.6v1.3H246v.7h-.7v.7h-4.1v.6h2.7v.7h.7v.7h.7v.7h.7v.7h1.3v.6h.7v.7h.7v.7h.7v.7h.6v.6h.7v.7h.7v.7h.7v.7h.6v.6h.7v1.4h.7v1.3h.7v1.4h-.7v1.3h-.7v1.4h-.7v.7h-.6v.7h-.7v1.3h-.7v1.4H250v1.3h-.6v1.4h-.7v.6H248v-.6h-1.3v16.2h-1.4v.7h.7V418h.7v4h.6v3.4H246v.7Z"/></clipPath>
<clipPath id="c5_113"><path d="M281.8,422.7V422h-.7v-1.3h.7V420h2v-2.7h-.7v-4.1h-.7v.7h-.6v-.7h-.7v-.6h-.7v-1.4h-.7v-4.7h.7v-2.7h.7v-2.1h.7v-1.3h.6V399h-.6v-1.3h-1.4v.7h-1.3v-.7h-.7V397h-.7v-2h.7v-.7h.7v-.7h.6v-.7h-.6v-6.7h.6v-.7h.7v-.7h.7v-.7h1.3v-.6h1.4v-.7h2v.7h.7v-1.4h.7v-.7h.7v-.6h1.3v-.7h2.7v.7h.7v2.7h-.7v1.3h-.7v.7h2.7v.7H296v.7h.6v.6h.7v.7h.7v2.7h.7v1.4H298V395h-.7v1.3h-.7v.7H296v.7h-.7v.7h-.7v1.3h.7v1.4h.7v.6h.6v2.1h.7v2h.7v2h.7v2.1H298v2h-.7v.7H296v.6h.6v2.7H296v.7h-1.4v2.7h2.7v.7h.7v2h-.7v.7h-6.1v-4h-.6v-2.1h-1.4v.7h-1.3v2h.6V422h-.6v.7Z"/></clipPath>
<style type="text/css"><![CDATA[
.g0_113{
fill: #FEFCF4;
}
.g1_113{
fill: #F16865;
}
.g2_113{
fill: #6381B7;
}
.g3_113{
fill: none;
stroke: #6381B7;
stroke-width: 0.381;
stroke-dasharray: 2,1;
}
.g4_113{
fill: none;
stroke: #6381B7;
stroke-width: 0.381;
}
.g5_113{
fill: #FEF9F9;
}
.g6_113{
fill: none;
stroke: #A164A9;
stroke-width: 1.527;
stroke-linecap: round;
stroke-linejoin: round;
stroke-dasharray: 0,5;
}
.g7_113{
fill: none;
stroke: #A164A9;
stroke-width: 1.527;
stroke-linecap: round;
stroke-linejoin: round;
}
.g8_113{
fill: #A164A9;
}
.g9_113{
fill: #FFF;
}
.ga_113{
fill: none;
stroke: #231F20;
stroke-width: 0.305;
stroke-miterlimit: 10;
}
.gb_113{
fill: none;
stroke: #BCBEC0;
stroke-width: 1.527;
}
.gc_113{
fill: none;
stroke: #8CC63E;
stroke-width: 1.527;
stroke-linecap: round;
stroke-linejoin: round;
stroke-dasharray: 0,5;
}
.gd_113{
fill: none;
stroke: #8CC63E;
stroke-width: 1.527;
stroke-linecap: round;
stroke-linejoin: round;
}
.ge_113{
fill: #8CC63E;
}
.gf_113{
fill: #6CCFF6;
}
.gg_113{
fill: none;
stroke: #231F20;
stroke-width: 1.375;
stroke-miterlimit: 10;
}
.gh_113{
fill: #485E75;
}
.gi_113{
fill: #EAD646;
}
.gj_113{
fill: none;
stroke: #231F20;
stroke-width: 1.527;
}
.gk_113{
fill: none;
stroke: #FFF;
stroke-width: 1.909;
stroke-miterlimit: 10;
}
.gl_113{
fill: none;
stroke: #000;
stroke-width: 0.381;
stroke-miterlimit: 10;
}
]]></style>
</defs>
<path d="M45.1,1344.3H967.5V32.1H45.1V1344.3Z" class="g0_113"/>
<g clip-path="url(#c0_113)">
<path d="M-877.3,1344.3H45.1V32.1H-877.3V1344.3Z" class="g0_113"/>
<path d="M867.9,166.7c0,0,30.3,0,30.3,-30.3v-4.3c0,0,0,-30.3,-30.3,-30.3H-735.4c0,0,-30.4,0,-30.4,30.3v4.3c0,0,0,30.3,30.4,30.3Z" class="g1_113"/>
</g>
<path d="M669.1,962.3c0,0,-4.4,0,-4.4,4.3v10.9c0,0,0,4.3,4.4,4.3h30.3c0,0,4.3,0,4.3,-4.3V966.6c0,0,0,-4.3,-4.3,-4.3Z" class="g2_113"/>
<path d="M655.9,953.4V991m1.3,1H866.8m.9,-1.4V953.1m-1.3,-1H656.8" class="g3_113"/>
<path d="M655.9,991.4v.6h.6m210.7,0h.5v-.6m0,-38.7v-.6h-.5m-210.7,0h-.6v.6" class="g4_113"/>
<image preserveAspectRatio="none" x="714" y="55" width="120" height="139" xlink:href="img/1.png"/>
<path d="M154.1,942.4h713V251h-713V942.4Z" class="g5_113"/>
<path d="M154.1,255.6V940.1m4.6,2.3H864.9m2.2,-4.6V253.3M862.6,251H156.4" class="g6_113"/>
<path d="M154.1,942.4v0m713.1,0v0m0,-691.4v0m-713.1,0v0" class="g7_113"/>
<path d="M153.3,265.3V227c0,0,0,-8.7,8.7,-8.7H859.3c0,0,8.6,0,8.6,8.7v38.9Z" class="g8_113"/>
<image clip-path="url(#c1_113)" preserveAspectRatio="none" x="215" y="617" width="615" height="79" xlink:href="img/2.png"/>
<path d="M218.3,689.3H824.6V620H218.3v69.3Z" class="g9_113"/>
<path d="M369.1,649.8H534.5" class="ga_113"/>
<image clip-path="url(#c2_113)" preserveAspectRatio="none" x="215" y="770" width="615" height="127" xlink:href="img/3.png"/>
<path d="M218.3,890H824.6V773.1H218.3V890Z" class="g9_113"/>
<path d="M330.5,802.9h93" class="ga_113"/>
<image clip-path="url(#c3_113)" preserveAspectRatio="none" x="217" y="441" width="97" height="81" xlink:href="img/4.jpg"/>
<image clip-path="url(#c4_113)" preserveAspectRatio="none" x="224" y="350" width="36" height="77" xlink:href="img/5.jpg"/>
<image clip-path="url(#c5_113)" preserveAspectRatio="none" x="273" y="350" width="33" height="77" xlink:href="img/6.jpg"/>
<path d="M288.2,426.4c9.2,0,16.6,-11.3,16.6,-25.3c0,-13.9,-7.4,-25.2,-16.6,-25.2c-9.1,0,-16.5,11.3,-16.5,25.2c0,14,7.4,25.3,16.5,25.3Z" class="gb_113"/>
<path d="M154.1,1243.9h713V1057.5h-713v186.4Z" class="g9_113"/>
<path d="M154.1,1062v179.6m4.6,2.3H864.9m2.2,-4.5V1059.8m-4.5,-2.3H156.4" class="gc_113"/>
<path d="M154.1,1243.9v0m713.1,0v0m0,-186.4v0m-713.1,0v0" class="gd_113"/>
<path d="M153.3,1062.1v-28.6c0,0,0,-8.7,8.7,-8.7H859.3c0,0,8.6,0,8.6,8.7v29.2Z" class="ge_113"/>
<path d="M187.2,1038.6v-6.4c0,-4.8,-3.9,-8.7,-8.7,-8.7c-4.8,0,-8.6,3.9,-8.6,8.7v6.4Z" class="gf_113"/>
<path d="M187.2,1038.6v-6.4c0,-4.8,-3.9,-8.7,-8.7,-8.7c-4.8,0,-8.6,3.9,-8.6,8.7v6.4h17.3Z" class="gg_113"/>
<path d="M169.9,1040.4v5.3c0,4.8,3.8,8.7,8.6,8.7c4.8,0,8.7,-3.9,8.7,-8.7v-5.3Z" class="gf_113"/>
<path d="M169.9,1040.4v5.3c0,4.8,3.8,8.7,8.6,8.7c4.8,0,8.7,-3.9,8.7,-8.7v-5.3H169.9Z" class="gg_113"/>
<path d="M178.4,1059.3c-7.1,0,-13,-6,-13,-13.3h2.4c0,6,4.8,10.9,10.6,10.9c5.8,0,10.6,-4.9,10.6,-10.9h2.4c0,7.3,-5.8,13.3,-13,13.3Z" class="gh_113"/>
<path d="M178.4,1059.3c-7.1,0,-13,-6,-13,-13.3h2.4c0,6,4.8,10.9,10.6,10.9c5.8,0,10.6,-4.9,10.6,-10.9h2.4c0,7.3,-5.8,13.3,-13,13.3Z" class="gg_113"/>
<path d="M177.5,1066.4h2.4v-8h-2.4v8Z" class="gh_113"/>
<path d="M177.5,1066.4h2.4v-8h-2.4v8Z" class="gg_113"/>
<path d="M178.6,1062.8c-3.6,0,-6.6,2.2,-6.7,4.9h13.4c-.1,-2.7,-3.1,-4.9,-6.7,-4.9Z" class="gh_113"/>
<path d="M178.6,1062.8c-3.6,0,-6.6,2.2,-6.7,4.9h13.4c-.1,-2.7,-3.1,-4.9,-6.7,-4.9Z" class="gg_113"/>
<path d="M201.3,1018.3c-6.5,0,-11.9,5.4,-11.9,12c0,2.7,.9,5.1,2.4,7.1l-1.5,5.4l5.5,-2c1.7,.9,3.5,1.4,5.5,1.4c6.6,0,12,-5.4,12,-11.9c0,-6.6,-5.4,-12,-12,-12Z" class="gi_113"/>
<path d="M201.3,1018.3c-6.5,0,-11.9,5.4,-11.9,12c0,2.7,.9,5.1,2.4,7.1l-1.5,5.4l5.5,-2c1.7,.9,3.5,1.4,5.5,1.4c6.6,0,12,-5.4,12,-11.9c0,-6.6,-5.4,-12,-12,-12Z" class="gg_113"/>
<path d="M196.9,1030.1c0,.7,-.7,1.4,-1.4,1.4c-.8,0,-1.4,-.7,-1.4,-1.4c0,-.8,.6,-1.4,1.4,-1.4c.7,0,1.4,.6,1.4,1.4Z" class="g9_113"/>
<path d="M196.9,1030.1c0,.7,-.7,1.4,-1.4,1.4c-.8,0,-1.4,-.7,-1.4,-1.4c0,-.8,.6,-1.4,1.4,-1.4c.7,0,1.4,.6,1.4,1.4Z" class="gg_113"/>
<path d="M203,1030.1c0,.8,-.6,1.4,-1.4,1.4c-.8,0,-1.4,-.6,-1.4,-1.4c0,-.8,.6,-1.4,1.4,-1.4c.8,0,1.4,.6,1.4,1.4Z" class="g9_113"/>
<path d="M203,1030.1c0,.8,-.6,1.4,-1.4,1.4c-.8,0,-1.4,-.6,-1.4,-1.4c0,-.8,.6,-1.4,1.4,-1.4c.8,0,1.4,.6,1.4,1.4Z" class="gg_113"/>
<path d="M209.1,1030.1c0,.8,-.6,1.4,-1.4,1.4c-.8,0,-1.4,-.6,-1.4,-1.4c0,-.8,.6,-1.4,1.4,-1.4c.8,0,1.4,.6,1.4,1.4Z" class="g9_113"/>
<path d="M209.1,1030.1c0,.8,-.6,1.4,-1.4,1.4c-.8,0,-1.4,-.6,-1.4,-1.4c0,-.8,.6,-1.4,1.4,-1.4c.8,0,1.4,.6,1.4,1.4Z" class="gg_113"/>
<path d="M785.7,1044.5c0,0,-.5,-9.9,8.6,-9.3c0,0,6.8,-.4,6.7,9.5m-15.3,-1.6v6.6c0,0,-3.4,.3,-4,-3c0,0,0,-3.8,4,-3.6Zm15.3,0v6.6c0,0,3.4,.3,3.9,-3c0,0,.1,-3.8,-3.9,-3.6Z" class="gj_113"/>
<path d="M32.1,45.1H9.2m958.3,0h22.9M32.1,1331.3H9.2m958.3,0h22.9M45.1,32.1V9.2m0,1335.1v22.9M954.5,32.1V9.2m0,1335.1v22.9" class="gk_113"/>
<path d="M32.1,45.1H9.2m958.3,0h22.9M32.1,1331.3H9.2m958.3,0h22.9M45.1,32.1V9.2m0,1335.1v22.9M954.5,32.1V9.2m0,1335.1v22.9" class="gl_113"/>
<path d="M27.5,32.1H0m972.1,0h27.5M27.5,1344.3H0m972.1,0h27.5M32.1,27.5V0m0,1348.9v27.5M967.5,27.5V0m0,1348.9v27.5" class="gk_113"/>
<path d="M27.5,32.1H0m972.1,0h27.5M27.5,1344.3H0m972.1,0h27.5M32.1,27.5V0m0,1348.9v27.5M967.5,27.5V0m0,1348.9v27.5" class="gl_113"/>
</svg>