<?xml version="1.0" encoding="UTF-8" standalone="no"?>
<!DOCTYPE svg PUBLIC "-//W3C//DTD SVG 1.1//EN"
"http://www.w3.org/Graphics/SVG/1.1/DTD/svg11.dtd">
<svg viewBox="0 0 999 1376" version="1.1" xmlns="http://www.w3.org/2000/svg" xmlns:xlink="http://www.w3.org/1999/xlink">
<defs>
<clipPath id="c0_131"><path d="M32.1,1344.3V32.1H967.5V1344.3Z"/></clipPath>
<clipPath id="c1_131"><path d="M198.2,576.9l-6.5,-2.1l-16.3,-14V503.7h71.9v73.2Z"/></clipPath>
<clipPath id="c2_131"><path d="M200.1,137.2c.1,-1.3,.7,-2.5,1.6,-3.4c1,-1,2.3,-1.6,3.9,-1.6h19.2v5Z"/></clipPath>
<clipPath id="c3_131"><path d="M199.5,137.7v-6h25.8v6Z"/></clipPath>
<style type="text/css"><![CDATA[
.g0_131{
fill: #FEFCF4;
}
.g1_131{
fill: #FFF;
}
.g2_131{
fill: none;
stroke: #6381B7;
stroke-width: 0.763;
}
.g3_131{
fill: #48484A;
}
.g4_131{
fill: #F0E8F3;
}
.g5_131{
fill: #766FA6;
}
.g6_131{
fill: none;
stroke: #231F20;
stroke-width: 0.305;
stroke-miterlimit: 10;
}
.g7_131{
fill: none;
stroke: #58595B;
stroke-width: 0.305;
stroke-miterlimit: 10;
}
.g8_131{
fill: none;
stroke: #231F20;
stroke-width: 0.381;
stroke-miterlimit: 10;
}
.g9_131{
fill: #6381B7;
}
.ga_131{
fill: none;
stroke: #6381B7;
stroke-width: 0.381;
stroke-dasharray: 2,1;
}
.gb_131{
fill: none;
stroke: #6381B7;
stroke-width: 0.381;
}
.gc_131{
fill: #FCE8B0;
}
.gd_131{
fill: #DCE9F3;
}
.ge_131{
fill: #9BD1EA;
}
.gf_131{
fill: none;
stroke: #58595B;
stroke-width: 0.381;
stroke-miterlimit: 10;
}
.gg_131{
fill: #25408F;
}
.gh_131{
fill: none;
stroke: #231F20;
stroke-width: 1.527;
}
.gi_131{
fill: #39B4D1;
stroke: #2D2A4A;
stroke-width: 1.038;
stroke-linecap: round;
stroke-linejoin: round;
}
.gj_131{
fill: #2D2A4A;
}
.gk_131{
fill: none;
stroke: #2D2A4A;
stroke-width: 1.038;
stroke-linecap: round;
stroke-linejoin: round;
}
.gl_131{
fill: #DEDAD3;
}
.gm_131{
fill: #29263F;
}
.gn_131{
fill: #E15F46;
stroke: #2D2A4A;
stroke-width: 1.038;
stroke-linecap: round;
stroke-linejoin: round;
}
.go_131{
fill: none;
stroke: #FFF;
stroke-width: 1.909;
stroke-miterlimit: 10;
}
.gp_131{
fill: none;
stroke: #000;
stroke-width: 0.381;
stroke-miterlimit: 10;
}
]]></style>
</defs>
<path clip-path="url(#c0_131)" d="M-877.3,1344.3H45.1V32.1H-877.3V1344.3Z" class="g0_131"/>
<path d="M166.7,593.1c0,0,-13,0,-13,13v324c0,0,0,13,13,13H854.5c0,0,13,0,13,-13v-324c0,0,0,-13,-13,-13Z" class="g1_131"/>
<path d="M166.7,593.1c0,0,-13,0,-13,13v324c0,0,0,13,13,13H854.5c0,0,13,0,13,-13v-324c0,0,0,-13,-13,-13H166.7Z" class="g2_131"/>
<path d="M198.2,681.8c0,0,-4.3,0,-4.3,4.3v14.8c0,0,0,4.3,4.1,5.7l52.5,18.6c0,0,4,1.4,4,-2.9V686.1c0,0,0,-4.3,-4.3,-4.3Z" class="g3_131"/>
<path d="M219.4,668.8c0,0,-13,0,-13,13v51.5c0,0,0,13,13,13H824.7c0,0,13,0,13,-13V681.8c0,0,0,-13,-13,-13Z" class="g4_131"/>
<path d="M198.2,679.6c0,0,-4.3,0,-4.3,4.4v17.3c0,0,0,4.3,4.3,4.3h37.3c0,0,4.4,0,4.4,-4.3V684c0,0,0,-4.4,-4.4,-4.4Z" class="g5_131"/>
<path d="M197.7,654.3H844.1V634.7H197.7v19.6Z" class="g1_131"/>
<path d="M451.1,698.6h84.6" class="g6_131"/>
<path d="M494.9,730.7H630.7" class="g7_131"/>
<path d="M452.4,782.3H666.6M456.8,817.8H667.4M470.1,853.4H668.4M452.4,889H667.2" class="g6_131"/>
<path d="M452.4,924.6H673.9" class="g8_131"/>
<path d="M346.8,959.7c0,0,-4.3,0,-4.3,4.3v10.9c0,0,0,4.3,4.3,4.3h30.4c0,0,4.3,0,4.3,-4.3V964c0,0,0,-4.3,-4.3,-4.3Z" class="g9_131"/>
<path d="M333.7,950.8v37.6m1.3,1H866.8m.9,-1.4V950.5m-1.3,-1H334.6" class="ga_131"/>
<path d="M333.7,988.8v.6h.5m532.9,0h.6v-.6m0,-38.7v-.6h-.6m-532.9,0h-.5v.6" class="gb_131"/>
<path d="M230.9,505.9c0,0,-13,0,-13,13v47.6c0,0,0,13,13,13H854.2c0,0,13,0,13,-13V518.9c0,0,0,-13,-13,-13Z" class="gc_131"/>
<image clip-path="url(#c1_131)" preserveAspectRatio="none" x="174" y="502" width="75" height="76" xlink:href="img/1.png"/>
<path d="M225.7,572.2c0,0,-26.9,11.3,-51.1,-12.8c0,0,15.1,25.3,49.3,24c0,0,24.7,.3,20.2,-10.2c0,0,1.2,-4.4,-18.4,-1Z" class="gc_131"/>
<path d="M170.7,166.1c0,0,-17.4,0,-17.4,17.3v246c0,0,0,17.3,17.4,17.3H850.6c0,0,17.3,0,17.3,-17.3v-246c0,0,0,-17.3,-17.3,-17.3Z" class="gd_131"/>
<path d="M229.1,213.2H402.4v26H229.1v-26Zm173.3,0H618.9v26H402.4v-26Zm216.5,0H792.1v26H618.9v-26Z" class="ge_131"/>
<path d="M229.1,239.2H402.4v26H229.1v-26Zm173.3,0H618.9v26H402.4v-26Zm216.5,0H792.1v26H618.9v-26Z" class="g1_131"/>
<path d="M229.1,213.2H402.4m0,0H618.9M402.4,239V213.4m216.5,-.2H792.1M618.9,239V213.4M229.1,239.2H402.4m0,0H618.9M402.4,265V239.4m216.5,-.2H792.1M618.9,265V239.4M229.1,265.2H402.4m0,0H618.9m0,0H792.1" class="gf_131"/>
<path d="M153.3,109.5v39L165,158.7V136.5Z" class="gg_131"/>
<path d="M153.3,109.5v39H851.1c0,0,16.8,0,16.8,-16.8v-5.4c0,0,0,-16.8,-16.8,-16.8Z" class="g9_131"/>
<path d="M790.4,131c0,0,-.5,-10,8.6,-9.4c0,0,6.8,-.3,6.7,9.5m-15.3,-1.5v6.5c0,0,-3.4,.3,-3.9,-3c0,0,-.1,-3.8,3.9,-3.5Zm15.3,0v6.5c0,0,3.4,.3,4,-3c0,0,0,-3.8,-4,-3.5Z" class="gh_131"/>
<path d="M169,140.8h61v-32H169v32Z" class="gi_131"/>
<path d="M169,143.1h61v-2.3H169v2.3Z" class="gi_131"/>
<path d="M193.5,106.2H173.8v31.5h25.7V112.3c0,-3.4,-2.7,-6.1,-6,-6.1Z" class="g1_131"/>
<path d="M193.5,106.2v-.5H173.8c-.2,0,-.3,.1,-.4,.2c-.1,.1,-.2,.2,-.2,.3v31.5c0,.1,.1,.3,.2,.4c.1,.1,.2,.1,.4,.1h25.7c.2,0,.3,0,.4,-.1c.1,-.1,.1,-.3,.1,-.4V112.3c0,-3.7,-2.9,-6.6,-6.5,-6.6v1c1.5,0,2.9,.7,3.9,1.7c1,1,1.6,2.3,1.6,3.9v24.9H174.3V106.7h19.2Z" class="gj_131"/>
<path d="M173.8,131.7v6h25.7c0,-3.3,-2.7,-6,-6,-6Z" class="g1_131"/>
<path d="M173.8,131.7h-.6v6c0,.1,.1,.3,.2,.4c.1,.1,.2,.1,.4,.1h25.7c.2,0,.3,0,.4,-.1c.1,-.1,.1,-.3,.1,-.4c0,-3.6,-2.9,-6.6,-6.5,-6.6H173.8c-.2,0,-.3,.1,-.4,.2c-.1,.1,-.2,.2,-.2,.4h.6v.5h19.7c1.5,0,2.9,.6,3.9,1.6c1,1,1.6,2.4,1.6,3.9h.5v-.5H174.3v-5.5h-.5v.5Z" class="gj_131"/>
<path d="M177.3,110.9h17.2m-17.2,2.8h17.2m-17.2,2.9h17.2m-17.2,2.9h17.2m-17.2,2.8h17.2m-17.2,2.9h17.2M177.3,128h17.2" class="gk_131"/>
<path d="M193.5,132.2H174.3v5H199c-.1,-1.3,-.7,-2.5,-1.6,-3.4c-1,-1,-2.4,-1.6,-3.9,-1.6Z" class="gl_131"/>
<path d="M174.3,132.2h19.2c1.5,0,2.9,.6,3.9,1.6c.9,.9,1.5,2.1,1.6,3.4H174.3Zm19.2,-.5H173.8v6H199v-2.5c-.9,-2.1,-3.1,-3.5,-5.5,-3.5Z" class="gm_131"/>
<path d="M205.6,106.2h19.7v31.5H199.5V112.3c0,-3.4,2.7,-6.1,6.1,-6.1Z" class="g1_131"/>
<path d="M205.6,106.2v.5h19.2v30.5H200V112.3c0,-1.6,.7,-2.9,1.7,-3.9c1,-1,2.3,-1.7,3.9,-1.7v-1c-3.7,0,-6.6,2.9,-6.6,6.6v25.4c0,.1,.1,.3,.2,.4c0,.1,.2,.1,.3,.1h25.8c.1,0,.2,0,.3,-.1c.1,-.1,.2,-.3,.2,-.4V106.2c0,-.1,-.1,-.2,-.2,-.3c-.1,-.1,-.2,-.2,-.3,-.2H205.6Z" class="gj_131"/>
<path d="M225.3,131.7v6H199.5c0,-3.3,2.7,-6,6.1,-6Z" class="g1_131"/>
<path d="M225.3,131.7h-.5v5.5H199.5v.5h.5c0,-1.5,.7,-2.9,1.7,-3.9c1,-1,2.3,-1.6,3.9,-1.6h19.7v-.5h-.5h.5v-.6H205.6c-3.7,0,-6.6,3,-6.6,6.6c0,.1,.1,.3,.2,.4c0,.1,.2,.1,.3,.1h25.8c.1,0,.2,0,.3,-.1c.1,-.1,.2,-.3,.2,-.4v-6c0,-.2,-.1,-.3,-.2,-.4c-.1,-.1,-.2,-.2,-.3,-.2Z" class="gj_131"/>
<path d="M221.8,110.9H204.6m17.2,2.8H204.6m17.2,2.9H204.6m17.2,2.9H204.6m17.2,2.8H204.6m17.2,2.9H204.6m17.2,2.8H204.6" class="gk_131"/>
<path clip-path="url(#c2_131)" d="M200.1,137.2h24.7v-5H200.1v5Z" class="gl_131"/>
<path clip-path="url(#c3_131)" d="M200.1,137.2c.1,-1.3,.7,-2.5,1.6,-3.4c1,-1,2.3,-1.6,3.9,-1.6h19.2v5Zm25.2,-5.5H205.6c-3.4,0,-6.1,2.7,-6.1,6h25.8v-6h-.5h.5Z" class="gm_131"/>
<path d="M199.5,108.8v34.3" class="gk_131"/>
<path d="M217.2,145.5h3.3V134.7h-3.3v10.8Z" class="gn_131"/>
<path d="M32.1,45.1H9.2m958.3,0h22.9M32.1,1331.3H9.2m958.3,0h22.9M45.1,32.1V9.2m0,1335.1v22.9M954.5,32.1V9.2m0,1335.1v22.9" class="go_131"/>
<path d="M32.1,45.1H9.2m958.3,0h22.9M32.1,1331.3H9.2m958.3,0h22.9M45.1,32.1V9.2m0,1335.1v22.9M954.5,32.1V9.2m0,1335.1v22.9" class="gp_131"/>
<path d="M27.5,32.1H0m972.1,0h27.5M27.5,1344.3H0m972.1,0h27.5M32.1,27.5V0m0,1348.9v27.5M967.5,27.5V0m0,1348.9v27.5" class="go_131"/>
<path d="M27.5,32.1H0m972.1,0h27.5M27.5,1344.3H0m972.1,0h27.5M32.1,27.5V0m0,1348.9v27.5M967.5,27.5V0m0,1348.9v27.5" class="gp_131"/>
</svg>