<?xml version="1.0" encoding="UTF-8" standalone="no"?>
<!DOCTYPE svg PUBLIC "-//W3C//DTD SVG 1.1//EN"
"http://www.w3.org/Graphics/SVG/1.1/DTD/svg11.dtd">
<svg viewBox="0 0 999 1376" version="1.1" xmlns="http://www.w3.org/2000/svg" xmlns:xlink="http://www.w3.org/1999/xlink">
<defs>
<clipPath id="c0_78"><path d="M32.1,1344.3V32.1H967.5V1344.3Z"/></clipPath>
<clipPath id="c1_78"><path d="M77.4,816.8V671.6H268.3V816.8Z"/></clipPath>
<clipPath id="c2_78"><path d="M74.7,820.6v-154H271.1v154Z"/></clipPath>
<clipPath id="c3_78"><path d="M176.6,573.6l-6.5,-2.1L153.7,557.6V500.5h72v73.1Z"/></clipPath>
<clipPath id="c4_78"><path d="M176.6,1074.6l-6.5,-2.1l-16.4,-14v-57.1h72v73.2Z"/></clipPath>
<clipPath id="c5_78"><path d="M125.5,395.5V205.8H858.6V395.5Z"/></clipPath>
<clipPath id="c6_78"><path d="M764.8,447.9V435.5h14.5v12.4Z"/></clipPath>
<clipPath id="c7_78"><path d="M703.2,808.3V663.1H894.1V808.3Z"/></clipPath>
<clipPath id="c8_78"><path d="M700.5,814.4v-154H894.7v154Z"/></clipPath>
<clipPath id="c9_78"><path d="M785,680.1c-.3,-.1,3.5,-8.3,3.5,-8.3l.8,.6c0,0,-4,7.7,-4.3,7.7Z"/></clipPath>
<clipPath id="ca_78"><path d="M792.5,672.3c0,0,-6.9,-1.1,-7.6,-5.2c-.7,-3.6,1.5,-3.8,2.1,-3.8c0,0,.1,0,.1,0l8.3,-12.8l-1.5,-3c0,0,-.5,-1.2,.2,-2.1c0,-.1,.1,-.1,.3,-.1c2.1,0,12.9,5.5,12.9,5.5l.1,.2c-.4,.5,-.7,1.1,-1.4,1.6c-.6,.5,-5.1,1.2,-5.1,1.2l-8.4,18.5Z"/></clipPath>
<clipPath id="cb_78"><path d="M792.1,672c.2,-.5,.2,-1.8,0,-2.3v-1.4c-1.6,-.5,-2.9,-1.2,-3.7,-2.5c-1.1,.6,-2.1,1.2,-3.1,1.9c1.5,2.1,3.8,3.6,6.8,4.3Zm0,-3.9c2.2,-4.6,3.9,-9.5,6.1,-14.1c-.9,-.4,-1.8,-1.3,-2.6,-1.4c-2.3,4.4,-4.6,8.7,-7.1,12.8c.8,1.4,2.1,2.1,3.6,2.7Zm-7.3,12v0c1,-2.8,2.4,-5.4,3.5,-8.2c-2,-1.6,-3.9,-3.2,-4.4,-6.2v-1.5c0,-2.7,1.9,-3.4,4.6,-3.4c0,0,.1,0,.2,0c1.9,-3.3,4.2,-6.3,6.1,-9.7c-.5,-.8,-1.1,-2.3,-.9,-3.6c.6,1.2,1.7,1.9,2.4,2.9c-.1,.6,-.2,1.1,-.3,1.7c.6,.7,1.3,1.2,2.3,1.4c.5,-.4,.6,-1.2,1.2,-1.5c.9,.4,1.8,.8,3.1,.8c.1,.1,.5,.1,.8,.1c.4,0,.7,0,.9,-.1c.1,0,.2,0,.3,0c.2,0,.4,-.1,.6,-.1c.2,-.1,.3,-.2,.5,-.2c.1,0,.2,.1,.3,.1c-1.3,.7,-2.2,1.8,-4.2,1.8c-.1,0,-.2,0,-.3,0c-.9,3.7,-1.9,7.3,-2.6,11.2c.5,1,1.4,1.7,1.2,3.1c-.5,2.7,-3.9,4.4,-7.2,4.4c-1.3,0,-2.5,-.2,-3.6,-.7c-1,2.1,-2.1,4.1,-3.3,6c0,-.4,.3,-.4,.3,-.8c.9,-1.8,1.9,-3.6,2.6,-5.6c-1,1.7,-1.8,3.7,-2.7,5.5c-.2,.4,-.5,.8,-.7,1.3c-.3,.4,-.3,1.1,-.7,1.3Z"/></clipPath>
<clipPath id="cc_78"><path d="M802.5,652.4c-4.8,0,-13.1,-7.3,-5.5,-8.8h1.2c.2,0,.3,0,.6,0c0,0,.1,0,.1,0c0,0,.1,0,.1,0c.3,0,.6,0,1,.1c3.1,.6,8.2,3.8,7.5,7c-.2,1.2,-1.5,1.6,-3.1,1.7h-1.8c0,0,-.1,0,-.1,0Z"/></clipPath>
<clipPath id="cd_78"><path d="M153.5,690c-.2,-.1,3.6,-8.2,3.6,-8.2l.8,.5c0,0,-4.1,7.7,-4.4,7.7Z"/></clipPath>
<clipPath id="ce_78"><path d="M161,682.3c0,0,-6.8,-1.1,-7.5,-5.2c-.7,-3.6,1.5,-3.9,2,-3.9c.1,0,.2,0,.2,0L164,660.5l-1.5,-3.1c0,0,-.6,-1.1,.2,-2c0,-.1,.1,-.1,.3,-.1c2.1,0,12.9,5.5,12.9,5.5l.1,.1c-.4,.6,-.7,1.2,-1.4,1.7c-.7,.5,-5.1,1.1,-5.1,1.1L161,682.3Z"/></clipPath>
<clipPath id="cf_78"><path d="M160.6,681.9c.3,-.4,.3,-1.8,0,-2.2v-1.4c-1.5,-.5,-2.8,-1.2,-3.6,-2.5c-1.1,.6,-2.1,1.2,-3.1,1.9c1.5,2.1,3.8,3.5,6.7,4.2Zm0,-3.9c2.2,-4.5,4,-9.5,6.2,-14c-.9,-.4,-1.8,-1.3,-2.6,-1.4c-2.3,4.3,-4.6,8.6,-7.1,12.8c.8,1.3,2.1,2,3.5,2.6Zm-7.2,12.1v0c1,-2.9,2.4,-5.5,3.5,-8.3c-2,-1.5,-3.9,-3.1,-4.4,-6.1v-1.6c-.1,-2.7,1.9,-3.3,4.6,-3.3c0,0,.1,0,.2,0c1.9,-3.4,4.2,-6.4,6.1,-9.7c-.6,-.9,-1.2,-2.4,-.9,-3.7c.5,1.3,1.7,1.9,2.4,2.9c-.1,.6,-.3,1.2,-.4,1.8c.6,.7,1.4,1.2,2.4,1.4c.5,-.5,.5,-1.3,1.2,-1.5c.9,.3,1.8,.7,3.1,.7c.1,.1,.5,.2,.8,.2c.4,0,.7,-.1,.8,-.2c.1,0,.2,.1,.3,.1c.3,0,.5,-.1,.7,-.2c.1,0,.3,-.1,.5,-.1c.1,0,.2,0,.3,.1c-1.3,.6,-2.2,1.8,-4.2,1.8c-.1,0,-.2,0,-.3,-.1c-.9,3.8,-1.9,7.4,-2.7,11.2c.6,1.1,1.5,1.7,1.3,3.2c-.5,2.7,-3.9,4.4,-7.2,4.4c-1.3,0,-2.5,-.3,-3.6,-.8c-1,2.1,-2.1,4.1,-3.3,6c0,-.3,.3,-.3,.3,-.7c.9,-1.8,1.9,-3.6,2.6,-5.7c-1,1.8,-1.8,3.7,-2.8,5.6c-.2,.4,-.4,.8,-.6,1.2c-.3,.4,-.3,1.2,-.7,1.4Z"/></clipPath>
<clipPath id="cg_78"><path d="M171.1,662.3c-4.8,0,-13.1,-7.3,-5.6,-8.8h1.3c.2,.1,.3,.1,.5,.1q.1,0,.2,0h.1c.3,0,.6,0,1,.1c3,.6,8.2,3.8,7.5,7c-.2,1.2,-1.5,1.6,-3.1,1.6h-1.8c0,0,-.1,0,-.1,0Z"/></clipPath>
<style type="text/css"><![CDATA[
.g0_78{
fill: #FEFCF4;
}
.g1_78{
fill: #FFF;
}
.g2_78{
fill: none;
stroke: #6381B7;
stroke-width: 0.763;
}
.g3_78{
fill: #6381B7;
}
.g4_78{
fill: none;
stroke: #6381B7;
stroke-width: 0.381;
stroke-dasharray: 2,1;
}
.g5_78{
fill: none;
stroke: #6381B7;
stroke-width: 0.381;
}
.g6_78{
fill: none;
stroke: #818385;
stroke-width: 0.305;
stroke-dasharray: 3,3;
}
.g7_78{
fill: none;
stroke: #818385;
stroke-width: 0.305;
}
.g8_78{
fill: #F7C2D9;
}
.g9_78{
fill: #FDF4F3;
}
.ga_78{
fill: #EC008C;
}
.gb_78{
fill: none;
stroke: #949698;
stroke-width: 0.305;
stroke-dasharray: 4,4;
}
.gc_78{
fill: none;
stroke: #949698;
stroke-width: 0.305;
stroke-dasharray: 3,3;
}
.gd_78{
fill: none;
stroke: #949698;
stroke-width: 0.305;
}
.ge_78{
fill: #6D6F71;
}
.gf_78{
fill: none;
stroke: #58595B;
stroke-width: 0.152;
}
.gg_78{
fill: #FCE8B0;
}
.gh_78{
fill: #2E6E51;
}
.gi_78{
fill: none;
stroke: #FFF;
stroke-width: 0.152;
stroke-miterlimit: 1;
}
.gj_78{
fill: #BCBEC0;
}
.gk_78{
fill: #EE314A;
}
.gl_78{
fill: #CEEDFB;
}
.gm_78{
fill: #27639D;
}
.gn_78{
fill: #231F20;
}
.go_78{
fill: none;
stroke: #C3E7F1;
stroke-width: 1.527;
}
.gp_78{
fill: #25408F;
}
.gq_78{
fill: #A8AAAD;
}
.gr_78{
fill: none;
stroke: #949698;
stroke-width: 0.549;
}
.gs_78{
fill: none;
stroke: #BCBEC0;
stroke-width: 2.566;
}
.gt_78{
fill: #363637;
}
.gu_78{
fill: #5CC4BE;
}
.gv_78{
fill: #EAD646;
}
.gw_78{
fill: none;
stroke: #818385;
stroke-width: 0.305;
stroke-dasharray: 4,4;
}
.gx_78{
fill: none;
stroke: #FFF;
stroke-width: 1.909;
stroke-miterlimit: 10;
}
.gy_78{
fill: none;
stroke: #000;
stroke-width: 0.381;
stroke-miterlimit: 10;
}
]]></style>
</defs>
<path clip-path="url(#c0_78)" d="M954.5,1344.3H1877V32.1H954.5V1344.3Z" class="g0_78"/>
<path d="M32.1,1344.3H954.5V32.1H32.1V1344.3Z" class="g0_78"/>
<path d="M150.4,454.2c0,0,-18.3,0,-18.3,18.3V920.1c0,0,0,18.3,18.3,18.3H827.5c0,0,18.4,0,18.4,-18.3V454.2Z" class="g1_78"/>
<path d="M150.4,454.2c0,0,-18.3,0,-18.3,18.3V920.1c0,0,0,18.3,18.3,18.3H827.5c0,0,18.4,0,18.4,-18.3V454.2H150.4Z" class="g2_78"/>
<path d="M504.8,1186.7c0,0,-4.3,0,-4.3,4.3v10.8c0,0,0,4.4,4.3,4.4h30.3c0,0,4.4,0,4.4,-4.4V1191c0,0,0,-4.3,-4.4,-4.3Z" class="g3_78"/>
<path d="M491.6,1177.8v37.6m1.4,.9H845.1m1,-1.3v-37.6m-1.4,-.9H492.6" class="g4_78"/>
<path d="M491.6,1215.8v.5h.6m353.3,0h.6v-.5m0,-38.7v-.6h-.6m-353.3,0h-.6v.6" class="g5_78"/>
<path d="M145.1,983.9c0,0,-13,0,-13,13v159.5c0,0,0,13,13,13H832.9c0,0,13,0,13,-13V996.9c0,0,0,-13,-13,-13Z" class="g1_78"/>
<path d="M145.1,983.9c0,0,-13,0,-13,13v159.5c0,0,0,13,13,13H832.9c0,0,13,0,13,-13V996.9c0,0,0,-13,-13,-13H145.1Z" class="g2_78"/>
<path d="M421.2,642.7c11.1,-1.2,19.9,-6.9,21.8,-14.1m-.5,-7c-2.6,-6.9,-11.6,-12.1,-22.7,-12.8m-7.2,.1c-11.1,1.2,-19.9,6.8,-21.7,14m.4,7.1c2.7,6.8,11.7,12,22.7,12.8" class="g6_78"/>
<path d="M443.3,627.2c0,-.5,0,-.9,0,-1.4c0,-.5,0,-1,0,-1.5M418.4,608.7c-.5,0,-1,0,-1.5,0c-.5,0,-.9,0,-1.4,0m-24.9,15.6c-.1,.5,-.1,1,-.1,1.5c0,.5,0,.9,.1,1.4m24.9,15.7c.5,0,.9,0,1.4,0c.5,0,1,0,1.5,0" class="g7_78"/>
<image clip-path="url(#c1_78)" preserveAspectRatio="none" x="77" y="672" width="191" height="145" xlink:href="img/1.png"/>
<path d="M82.6,683.4l4,127.3L262.4,804l-4,-127.4Z" class="g8_78"/>
<image clip-path="url(#c2_78)" preserveAspectRatio="none" x="74" y="667" width="196" height="154" xlink:href="img/2.png"/>
<path d="M79.7,687.3l12,127.2l116.5,-9.9l56.9,-17.9l-12.6,-115Z" class="g9_78"/>
<path d="M265.3,789.1l-52.7,15.1l34.1,-29.1Z" class="ga_78"/>
<path d="M384.9,624.8c-12,9.3,-52.5,37,-96.9,28.6" class="gb_78"/>
<path d="M282.7,649.1c-.2,-1.2,.2,-2.5,2,-3.6m6.7,-2.3c1.3,0,2.7,.4,3.6,1.8" class="gc_78"/>
<path d="M293.2,651.2c-4.4,4.5,-14.3,11.5,-32.4,8.3" class="gb_78"/>
<path d="M253.3,658.4c-9.5,-.4,-33,.9,-58.9,21.8" class="gc_78"/>
<path d="M388.5,621.9c0,0,-.4,.3,-1.1,1M286.5,653.1c-.5,-.1,-1,-.2,-1.5,-.3c0,0,-.5,-.4,-1,-1.1m2,-6.9c.4,-.2,.9,-.4,1.4,-.6c0,0,.5,-.3,1.3,-.5m6.9,2.5c.2,.4,.3,.9,.4,1.4c0,0,-.3,.5,-.9,1.3m-35.8,10.3c-.5,-.1,-1,-.2,-1.5,-.3c0,0,-.5,-.1,-1.5,-.2m-63.1,22.4c-.4,.3,-.7,.7,-1.1,1" class="gd_78"/>
<path d="M194.9,675.1l5,7.3L188,685.1Z" class="ge_78"/>
<path d="M272.3,444.7v5.9c0,1.4,-1,2.2,-2.9,2.2c-1.1,0,-1.8,-.2,-2.3,-.5c-.5,-.4,-.8,-.8,-.8,-1.4c0,-.5,.1,-.9,.3,-1.4c.2,-.4,.4,-.8,.7,-1.2c.5,-.9,.7,-1.7,.7,-2.5c0,-.9,-.4,-1.4,-1.3,-1.4c-.4,0,-.8,.1,-1.1,.4c-.2,.2,-.4,.5,-.4,1c0,.5,.2,.8,.4,1.1c.3,.2,.7,.3,1.1,.3c-.1,.1,-.2,.3,-.2,.4c-.1,.1,-.2,.3,-.3,.4c-.1,.2,-.2,.4,-.4,.6c-.1,.2,-.2,.4,-.3,.6c-.1,.2,-.1,.5,-.2,.7c0,.2,-.1,.5,-.1,.8v.3c0,1,.4,1.7,1,2.1c.7,.4,1.8,.7,3.1,.7c2.8,0,4.1,-1.1,4.1,-3.2v-5.9c0,-.2,-.1,-.3,-.5,-.3c-.4,0,-.6,.1,-.6,.3Zm-6.1,1.4c-.1,-.1,-.1,-.2,-.1,-.3c0,-.2,0,-.3,.1,-.4c.1,-.1,.3,-.1,.4,-.1c.2,0,.3,0,.4,.1c.1,.1,.1,.2,.1,.4c0,.1,0,.2,-.1,.3c-.1,.1,-.2,.2,-.4,.2c-.1,0,-.3,-.1,-.4,-.2Zm2,-4.3c-.2,0,-.3,.1,-.4,.1c-.2,0,-.3,-.1,-.4,-.2c-.1,-.1,-.1,-.2,-.1,-.3c0,0,0,-.1,0,-.1c0,-.1,.1,-.1,.1,-.2c.1,0,.1,-.1,.2,-.1q.1,-.1,.2,-.1c.1,0,.3,.1,.4,.2c.1,.1,.1,.2,.1,.3c0,.2,0,.3,-.1,.4Zm5,.9c.1,0,.2,0,.2,0c0,0,0,-.1,0,-.1c0,-.5,-.1,-.9,-.3,-1.3c-.2,-.3,-.4,-.6,-.7,-.8c-.2,-.2,-.5,-.4,-.8,-.5c-.3,-.1,-.6,-.1,-1,-.2c-.3,0,-.6,0,-.9,0c-.4,0,-.7,0,-1,0c-.2,0,-.4,.1,-.6,.1c-.3,0,-.5,.1,-.7,.1c-.2,.1,-.3,.2,-.5,.3c-.2,.1,-.3,.3,-.4,.4c-.2,.2,-.3,.5,-.3,.8c.1,.3,.1,.4,.2,.6c.1,.2,.2,.3,.4,.4c.1,.1,.3,.2,.4,.2c.2,.1,.3,.1,.5,.1c0,0,.1,0,.2,0c.1,0,.3,-.1,.4,-.1c.1,0,.2,0,.3,-.1c0,0,.1,-.1,.2,-.1q.1,-.1,.2,-.2c.1,0,.1,-.1,.1,-.1c.1,-.1,.1,-.2,.2,-.3c0,-.1,0,-.2,.1,-.3c0,-.1,0,-.3,-.1,-.4c0,-.1,0,-.2,-.2,-.3c0,0,.4,0,1.2,0c.2,0,.4,0,.6,0c.2,0,.4,.1,.6,.2c.2,.1,.3,.3,.5,.5c.2,.2,.3,.6,.4,1c0,0,0,.1,0,.1q.1,0,.2,0c.1,0,.2,.1,.3,.1c.2,0,.3,-.1,.3,-.1Zm9.3,2.6c-.3,-.2,-.6,-.4,-1,-.5c-.3,-.2,-.7,-.3,-1.1,-.3c-.4,-.1,-.7,-.1,-1.1,-.1c-.6,0,-1.2,.1,-1.7,.2c-.5,.1,-.9,.3,-1.3,.5c-.4,.3,-.6,.6,-.9,1c-.2,.5,-.3,1,-.3,1.6v4.6c0,.2,.1,.4,.1,.6c.1,.2,.2,.3,.3,.4c.2,.2,.3,.3,.5,.3c.2,.1,.4,.2,.6,.2c.2,0,.4,-.1,.5,-.2c.2,0,.4,-.1,.5,-.3c.1,-.1,.2,-.3,.3,-.4c.1,-.2,.1,-.4,.1,-.6c0,-.3,0,-.5,-.1,-.7c-.2,-.2,-.3,-.4,-.5,-.5c-.2,-.1,-.4,-.2,-.6,-.2c-.2,-.1,-.5,-.1,-.7,0v-3.1c0,-.3,.1,-.7,.2,-1c.2,-.3,.4,-.6,.7,-.8c.2,-.2,.6,-.4,1,-.5c.3,-.1,.8,-.2,1.3,-.2c1,0,1.8,.2,2.3,.7c.5,.4,.8,1,.8,1.8v5.7q0,.1,.1,.2c.1,0,.2,.1,.4,.1c.2,0,.3,-.1,.4,-.1q.1,-.1,.1,-.2v-5.7c0,-.6,-.1,-1.1,-.3,-1.5c-.1,-.4,-.3,-.7,-.6,-1Zm-6.3,7.3c0,-.1,-.1,-.2,-.1,-.3c0,-.1,.1,-.2,.1,-.3c.1,-.1,.2,-.2,.4,-.2c.1,0,.2,.1,.3,.2c.1,.1,.1,.2,.1,.3c0,.1,0,.2,-.1,.3c-.1,.1,-.2,.1,-.3,.1c-.2,0,-.3,0,-.4,-.1Zm16.9,-8.3c0,-.1,-.1,-.2,-.5,-.3h-.1c-.1,0,-.1,-.1,-.2,-.1q-.1,0,-.2,.1l-.4,1c-.7,-.4,-1.8,-.6,-3.2,-.6c-1.1,0,-2,.2,-2.6,.5c-.6,.3,-.9,.8,-.9,1.4c0,.6,.3,1.1,.9,1.4c.5,.3,1.3,.5,2.3,.5c1.6,0,2.8,-.5,3.8,-1.5c.1,.2,.1,.4,.1,.6v4.9c0,.3,-.3,.5,-.7,.5c-.1,0,-.2,0,-.3,-.1c-.1,-.1,-.2,-.2,-.3,-.4c-.1,-.1,-.2,-.3,-.3,-.4c-.1,-.2,-.2,-.4,-.3,-.5c-.1,-.3,-.3,-.6,-.5,-.8c-.2,-.3,-.4,-.4,-.6,-.6c-.3,-.1,-.5,-.2,-.8,-.3c-.3,-.1,-.5,-.1,-.8,-.1c-.3,0,-.7,.1,-1,.2c-.3,.2,-.5,.4,-.8,.6c-.2,.2,-.3,.5,-.5,.8c-.1,.3,-.2,.6,-.2,.9c.1,.6,.2,1,.6,1.3c.3,.3,.7,.5,1.2,.5c.2,-.1,.4,-.1,.6,-.2c.2,0,.3,-.1,.5,-.3c.1,-.1,.2,-.2,.3,-.4c0,-.2,.1,-.4,.1,-.6c0,-.2,-.1,-.3,-.1,-.5c-.1,-.2,-.2,-.3,-.3,-.5c-.1,-.1,-.3,-.2,-.4,-.3c-.2,-.1,-.4,-.1,-.6,-.1q-.1,0,-.2,0q-.1,.1,-.2,.1c.2,-.2,.5,-.4,.8,-.5c.3,0,.5,0,.8,.1c.3,.1,.5,.3,.7,.5c.3,.3,.5,.5,.6,.9c.1,.2,.2,.4,.3,.6c.2,.2,.3,.4,.5,.6c.2,.1,.4,.3,.6,.4c.2,.1,.4,.2,.6,.2c1.2,0,1.7,-.6,1.7,-1.6v-4.9c0,-.7,-.1,-1.2,-.5,-1.6l.5,-1.4Zm-6.4,2.6c-.4,-.1,-.5,-.3,-.5,-.6c0,-.3,.2,-.5,.6,-.6c.4,-.1,.9,-.2,1.7,-.2c1.2,0,2,.1,2.6,.4c-.7,.8,-1.7,1.2,-2.9,1.2c-.7,0,-1.2,0,-1.5,-.2Zm.4,5c.1,.1,.2,.3,.2,.4c0,.2,-.1,.3,-.2,.4c-.1,.1,-.2,.2,-.4,.2c-.1,0,-.2,-.1,-.4,-.2c-.1,-.1,-.1,-.2,-.1,-.4c0,-.1,0,-.3,.1,-.4c.2,-.1,.3,-.1,.4,-.1c.2,0,.3,0,.4,.1Zm.8,-10.1c-.1,0,-.3,.1,-.4,.1c-.1,0,-.3,-.1,-.4,-.2c-.1,-.1,-.1,-.2,-.1,-.3c0,0,0,-.1,0,-.1c0,-.1,.1,-.1,.1,-.2c.1,0,.1,-.1,.2,-.1q.1,-.1,.2,-.1c.2,0,.3,.1,.4,.2c.1,.1,.1,.2,.1,.3c0,.2,0,.3,-.1,.4Zm5,.9c.1,0,.2,0,.2,0c0,0,.1,-.1,.1,-.1c-.1,-.5,-.2,-.9,-.4,-1.3c-.2,-.3,-.4,-.6,-.7,-.8c-.2,-.2,-.5,-.4,-.8,-.5c-.3,-.1,-.6,-.1,-1,-.2c-.3,0,-.6,0,-.9,0c-.4,0,-.7,0,-1,0c-.2,0,-.4,.1,-.6,.1c-.2,0,-.5,.1,-.6,.1c-.2,.1,-.4,.2,-.6,.3c-.2,.1,-.3,.3,-.4,.4c-.2,.2,-.2,.5,-.2,.8c0,.3,0,.4,.1,.6c.1,.2,.3,.3,.4,.4c.1,.1,.3,.2,.4,.2c.2,.1,.3,.1,.5,.1c0,0,.1,0,.2,0c.1,0,.3,-.1,.4,-.1c.1,0,.2,0,.3,-.1c0,0,.1,-.1,.2,-.1q.1,-.1,.2,-.2c.1,0,.1,-.1,.1,-.1c.1,-.1,.2,-.2,.2,-.3c0,-.1,.1,-.2,.1,-.3c0,-.1,0,-.3,-.1,-.4c0,-.1,0,-.2,-.1,-.3c0,0,.3,0,1.1,0c.2,0,.4,0,.6,0c.2,0,.4,.1,.6,.2c.2,.1,.4,.3,.5,.5c.2,.2,.3,.6,.4,1c0,0,0,.1,.1,.1h.1c.1,0,.2,.1,.3,.1c.2,0,.3,-.1,.3,-.1Zm9.3,2v6.7c0,.4,-.1,.8,-.4,1c-.3,.2,-.7,.4,-1.2,.4c-.6,0,-1.2,-.3,-1.7,-.7c-.1,-.1,-.3,-.2,-.4,-.3c-.2,-.1,-.4,-.1,-.6,-.2c0,0,0,-.1,.1,-.3c0,-.2,0,-.3,0,-.6c0,-.2,0,-.4,0,-.7v-.7c0,-.6,0,-1.2,0,-1.9c0,-.6,-.1,-1.1,-.2,-1.4c-.1,-.4,-.2,-.7,-.4,-.9c-.1,-.2,-.3,-.4,-.5,-.5c-.2,-.1,-.4,-.2,-.7,-.2c-.2,0,-.4,.1,-.5,.1c-.2,.1,-.4,.2,-.5,.3c-.1,.2,-.2,.3,-.3,.5c-.1,.2,-.1,.4,-.1,.6c0,.2,0,.3,.1,.5c.1,.2,.2,.3,.3,.5c.1,.1,.3,.2,.5,.3c.1,.1,.3,.1,.5,.1c.3,0,.5,-.1,.7,-.2V451c0,.3,-.1,.5,-.1,.7c0,.2,-.1,.4,-.1,.6c-.1,.3,-.3,.5,-.6,.5c-.3,0,-.5,.1,-.6,.1c-.1,0,-.1,.1,-.1,.4c0,.3,.1,.5,.2,.5c1,0,1.7,-.4,2.1,-1.2c.1,0,.3,.1,.4,.2c.2,.1,.3,.2,.5,.3c.5,.4,1.1,.7,2,.7c.9,0,1.6,-.2,2,-.6c.4,-.4,.7,-1,.7,-1.8v-6.7c0,-.2,-.2,-.3,-.5,-.3c-.4,0,-.6,.1,-.6,.3Zm-6.3,1.5c-.1,-.1,-.1,-.2,-.1,-.3c0,-.2,0,-.3,.1,-.4c.1,0,.2,-.1,.3,-.1c.2,0,.3,.1,.4,.1c0,.1,.1,.2,.1,.4c0,.1,-.1,.2,-.1,.3c-.1,.1,-.2,.1,-.4,.1c-.1,0,-.2,0,-.3,-.1Zm13.5,1.1v3.6c-.1,1.2,-.6,1.8,-1.7,1.8c-1.1,0,-1.6,-.6,-1.7,-1.7v-.1c0,-.4,.1,-.9,.3,-1.4c.2,-.4,.4,-.9,.7,-1.3c.2,-.4,.4,-.8,.6,-1.2c.1,-.4,.1,-.8,.1,-1.2c0,-.9,-.4,-1.4,-1.3,-1.4c-.4,0,-.8,.1,-1.1,.4c-.2,.2,-.4,.5,-.4,1c0,.5,.2,.8,.4,1c.3,.3,.7,.4,1.1,.4c-.1,.1,-.1,.3,-.2,.4c-.1,.1,-.2,.3,-.3,.4c-.3,.4,-.5,.8,-.7,1.3c-.2,.5,-.3,1,-.3,1.6v.1c0,1.8,1,2.8,2.8,2.8c1.9,0,2.8,-1,2.8,-2.9v-3.6c0,-1.2,.5,-1.8,1.5,-1.8c1,0,1.5,.6,1.6,1.8v6.2c0,.2,.2,.3,.5,.3c.4,0,.6,-.1,.6,-.3v-6.2c0,-1.9,-.9,-2.9,-2.8,-2.9c-1.7,0,-2.6,1,-2.5,2.9ZM306,446.1c-.1,-.1,-.2,-.2,-.2,-.3c0,-.2,.1,-.3,.2,-.4c0,-.1,.2,-.1,.3,-.1c.2,0,.3,0,.4,.1c.1,.1,.1,.2,.1,.4c0,.1,0,.2,-.1,.3c-.1,.1,-.2,.2,-.4,.2c-.1,0,-.3,-.1,-.3,-.2Zm10.6,.4c.1,.1,.3,.2,.4,.2c.2,0,.3,-.1,.4,-.2c.1,-.1,.2,-.2,.2,-.3c0,-.2,-.1,-.3,-.2,-.4c-.1,-.1,-.2,-.2,-.4,-.2c-.2,0,-.3,.1,-.4,.2c-.1,.1,-.1,.2,-.1,.4c0,.1,0,.2,.1,.3Zm-.6,.6c-.3,-.4,-.4,-.7,-.4,-1V446c0,-.3,.2,-.6,.4,-.8c.2,-.2,.5,-.4,.7,-.4c.1,0,.2,0,.2,0c.2,0,.4,0,.6,.1c.2,.1,.4,.2,.5,.4c.2,.1,.3,.3,.3,.4c.1,.2,.1,.3,.1,.5c0,.2,-.1,.3,-.1,.5c-.1,.2,-.2,.3,-.4,.5c.3,.1,.6,.1,1.1,.1c.5,0,1,-.2,1.4,-.5c.5,-.4,.9,-1,1,-1.9h1.1c-.2,1.1,-.6,1.9,-1.2,2.4c-.6,.6,-1.4,.8,-2.4,.8c-.4,0,-.9,0,-1.5,-.2c-.6,-.2,-1.1,-.4,-1.4,-.8Zm.6,4.7c.1,.1,.3,.2,.4,.2c.2,0,.3,-.1,.4,-.2c.1,-.1,.2,-.2,.2,-.4c0,-.1,-.1,-.2,-.2,-.3c-.1,-.1,-.2,-.2,-.4,-.2c-.2,0,-.3,.1,-.4,.2c-.1,.1,-.1,.2,-.1,.3c0,.2,0,.3,.1,.4Zm-.6,.6c-.3,-.4,-.4,-.7,-.4,-1v-.1c0,-.3,.2,-.6,.4,-.8c.2,-.3,.5,-.4,.7,-.4c.1,0,.2,0,.2,0c.2,0,.4,0,.6,.1c.2,.1,.4,.2,.5,.3c.2,.2,.3,.4,.3,.5c.1,.2,.1,.3,.1,.5c0,.2,-.1,.3,-.1,.5c-.1,.1,-.2,.3,-.4,.4c.3,.2,.6,.2,1.1,.2c.5,0,1,-.2,1.4,-.5c.5,-.4,.9,-1,1,-1.9h1.1c-.2,1,-.6,1.9,-1.2,2.4c-.6,.6,-1.4,.8,-2.4,.8c-.4,0,-.9,-.1,-1.5,-.2c-.6,-.2,-1.1,-.5,-1.4,-.8Zm14.4,-7.7v6.7c0,.4,-.1,.8,-.4,1c-.3,.2,-.7,.4,-1.3,.4c-.6,0,-1.1,-.3,-1.6,-.7c-.2,-.1,-.3,-.2,-.5,-.3c-.1,-.1,-.3,-.1,-.5,-.2c0,0,0,-.1,0,-.3c0,-.2,0,-.3,.1,-.6c0,-.2,0,-.4,0,-.7v-.7c0,-.6,-.1,-1.2,-.1,-1.9c0,-.6,0,-1.1,-.1,-1.4c-.1,-.4,-.2,-.7,-.4,-.9c-.1,-.2,-.3,-.4,-.5,-.5c-.2,-.1,-.5,-.2,-.7,-.2c-.2,0,-.4,.1,-.6,.1c-.1,.1,-.3,.2,-.4,.3c-.2,.2,-.3,.3,-.3,.5c-.1,.2,-.1,.4,-.1,.6c0,.2,0,.3,.1,.5c0,.2,.1,.3,.3,.5c.1,.1,.3,.2,.4,.3c.2,.1,.4,.1,.6,.1c.2,0,.5,-.1,.7,-.2L325,451c0,.3,0,.5,0,.7c-.1,.2,-.1,.4,-.2,.6c-.1,.3,-.3,.5,-.6,.5c-.3,0,-.5,.1,-.5,.1c-.1,0,-.1,.1,-.1,.4c0,.3,0,.5,.2,.5c1,0,1.6,-.4,2,-1.2c.2,0,.3,.1,.5,.2c.1,.1,.3,.2,.5,.3c.4,.4,1.1,.7,1.9,.7c.9,0,1.6,-.2,2.1,-.6c.4,-.4,.6,-1,.6,-1.8v-6.7c0,-.2,-.1,-.3,-.5,-.3c-.3,0,-.5,.1,-.5,.3Zm-6.3,1.5c-.1,-.1,-.2,-.2,-.2,-.3c0,-.2,.1,-.3,.2,-.4c.1,0,.2,-.1,.3,-.1c.1,0,.2,.1,.3,.1c.1,.1,.1,.2,.1,.4c0,.1,0,.2,-.1,.3c-.1,.1,-.2,.1,-.3,.1c-.1,0,-.2,0,-.3,-.1Zm9,.1c0,.2,0,.4,.1,.6c0,.2,.1,.4,.3,.5c.1,.2,.3,.3,.5,.4c.2,.1,.4,.1,.6,.1c.2,0,.4,0,.6,-.1c.1,-.1,.3,-.2,.4,-.3c.1,-.1,.2,-.3,.3,-.4c0,-.2,.1,-.4,.1,-.6q0,-.1,-.1,-.2c0,-.1,0,-.2,0,-.3q-.1,-.1,-.2,-.2c0,-.1,-.1,-.2,-.1,-.2c.1,0,.3,.1,.4,.1c.1,.1,.2,.2,.3,.3c.1,.1,.2,.3,.3,.4c0,.2,0,.4,0,.6l.1,6.5c0,0,0,.1,.1,.2c.1,0,.2,0,.4,0c.2,0,.3,0,.4,0c.1,-.1,.1,-.2,.1,-.2l.1,-6.5c0,-.4,-.1,-.8,-.2,-1.1c-.1,-.4,-.3,-.6,-.5,-.8c-.3,-.3,-.5,-.4,-.9,-.5c-.3,-.1,-.6,-.2,-1,-.2c-1.3,0,-2,.6,-2.1,1.9Zm1.1,.6c-.1,-.1,-.1,-.2,-.1,-.4c0,-.1,0,-.2,.1,-.3c.1,-.1,.2,-.2,.3,-.2c.2,0,.3,.1,.4,.2c.1,.1,.1,.2,.1,.3c0,.2,0,.3,-.1,.4c-.1,.1,-.2,.1,-.4,.1c-.1,0,-.2,0,-.3,-.1Zm17.4,5.6v-.4c-.4,0,-.8,-.1,-1,-.2c-.3,0,-.5,-.1,-.7,-.2c-.1,0,-.2,-.1,-.3,-.2c0,0,-.1,-.1,-.1,-.1v-8.8l-.3,-.3c-.1,.1,-.4,.2,-.7,.4c-.3,.1,-.6,.2,-.9,.4c-.3,.1,-.6,.2,-1,.3c-.3,.2,-.5,.2,-.8,.3l.2,.4c.7,-.1,1.2,-.2,1.6,-.2c.3,0,.5,.1,.6,.1c0,.1,.1,.2,.1,.3c0,.1,0,.3,0,.5v6.6c0,0,0,.1,-.1,.1c-.1,.1,-.2,.2,-.4,.3c-.1,0,-.4,.1,-.6,.1c-.3,.1,-.7,.2,-1.1,.2v.4h5.5Z" class="gf_78"/>
<path d="M209.2,502.7c0,0,-13,0,-13,13v47.6c0,0,0,13,13,13h602c0,0,13,0,13,-13V515.7c0,0,0,-13,-13,-13Z" class="gg_78"/>
<image clip-path="url(#c3_78)" preserveAspectRatio="none" x="152" y="499" width="75" height="76" xlink:href="img/3.png"/>
<path d="M204,568.9c0,0,-26.8,11.3,-51.1,-12.7c0,0,15.2,25.3,49.3,23.9c0,0,24.8,.4,20.3,-10.1c0,0,1.2,-4.4,-18.5,-1.1Z" class="gg_78"/>
<path d="M209.2,1029.6c0,0,-13,0,-13,13v21.6c0,0,0,13,13,13h602c0,0,13,0,13,-13v-21.6c0,0,0,-13,-13,-13Z" class="gg_78"/>
<image clip-path="url(#c4_78)" preserveAspectRatio="none" x="152" y="1000" width="75" height="76" xlink:href="img/4.png"/>
<path d="M204,1069.9c0,0,-26.8,11.3,-51.1,-12.8c0,0,15.2,25.3,49.3,24c0,0,24.8,.3,20.3,-10.1c0,0,1.2,-4.5,-18.5,-1.1Z" class="gg_78"/>
<path d="M32.1,179.3H967.5V32.1H32.1V179.3Z" class="gh_78"/>
<path d="M260.9,147.8v-12c0,-.4,-.3,-.8,-.8,-1.2c-.5,-.5,-1,-.7,-1.4,-.7c-.6,0,-1.2,.1,-1.8,.5c-.6,.3,-1.2,.7,-1.7,1.2c-1.1,1.2,-1.6,2.4,-1.6,3.7c0,.6,.2,1.1,.5,1.5c.4,.4,.9,.6,1.5,.6c.5,0,.9,-.2,1.2,-.4c.3,-.3,.5,-.6,.5,-1.1c0,-.9,-.3,-1.3,-.9,-1.3c-.3,0,-.5,0,-.9,0c.1,-.4,.3,-.8,.5,-1.1c.2,-.4,.4,-.8,.7,-1.2c.4,-.4,.7,-.7,1.1,-.9c.3,-.2,.7,-.3,1,-.3c.6,0,.9,.1,.9,.3v9.1c-1.2,-.9,-2.3,-1.4,-3.6,-1.4H255c-.2,0,-.5,0,-.7,0h-.5c-.5,0,-.9,0,-1.3,-.1c-.4,-.1,-.7,-.2,-1,-.3c-.3,-.2,-.5,-.5,-.7,-.9c-.2,-.4,-.3,-.8,-.3,-1.3c0,-.6,.1,-1.1,.2,-1.5c.1,-.4,.3,-.8,.5,-1.2l-.4,-.4c-.4,.4,-.6,.8,-.8,1.3c-.2,.6,-.3,1.2,-.3,1.8c0,3,1.5,4.5,4.4,4.5c.2,0,.5,0,.8,0c.3,0,.6,-.1,1.1,-.1c.8,-.1,1.4,-.2,1.8,-.2c.7,0,1.3,.3,1.8,.8c.1,.2,.2,.4,.3,.6c.1,.3,.2,.6,.4,.9c.1,.4,.2,.7,.4,.8h.2Zm12.8,-12.6L272.5,134h-.7c0,-1.1,-.2,-2,-.6,-2.6c-.5,-.6,-1.3,-.9,-2.4,-.9c-.4,0,-.8,.1,-1.5,.1c-.3,.1,-.6,.1,-.9,.1c-.2,0,-.4,0,-.6,0c-.5,0,-.9,-.1,-1.3,-.3c-.4,-.2,-.6,-.6,-.6,-1.1c0,-.2,.1,-.4,.3,-.6c0,-.1,0,-.2,-.1,-.2c0,-.1,0,-.2,0,-.2c-.6,0,-.9,.5,-.9,1.4c0,.9,.5,1.6,1.3,2c.8,.5,1.6,.7,2.5,.7c.2,0,.3,0,.5,0c.2,-.1,.4,-.1,.6,-.1c.5,-.1,.9,-.1,1.1,-.1c1,0,1.5,.3,1.5,1c0,.2,0,.3,0,.4c0,.2,0,.3,0,.4h-9.1l1.1,1.2h1.9v8c.2,.9,.5,1.6,.9,2c.5,.5,1.1,.7,1.8,.7c1.2,0,2.3,-.6,3.3,-1.8c1,-1.2,1.5,-2.3,1.5,-3.5c0,-.4,-.1,-.7,-.2,-1.1c-.1,-.3,-.2,-.6,-.4,-.9c-.4,-.7,-1,-1,-1.6,-1c-.5,0,-.9,.2,-1.1,.5c-.3,.3,-.5,.7,-.5,1.1c0,.4,.2,.8,.5,1c.3,.3,.7,.4,1.1,.4h.4c-.1,.8,-.5,1.6,-1.2,2.5c-.7,.8,-1.5,1.3,-2.2,1.3c-.5,0,-.9,-.3,-1.1,-.8v-8.4h7.9Zm4.6,0L277.2,134h-1.1c-.4,-.4,-.6,-1,-.7,-1.9l-.5,-.3c0,.2,0,.5,0,.9c.1,.3,.1,.7,.1,1.2c.1,.5,.1,.9,.1,1.3c0,.3,0,.6,0,.9c-.2,-.8,-.5,-1.3,-.9,-1.6c-.4,-.3,-1,-.5,-1.7,-.5h-1.4l1.2,1.2c.3,0,.7,.1,1,.2c.3,.1,.6,.3,.8,.5c.3,.2,.5,.4,.6,.7c.2,.3,.2,.7,.2,1v8.9l1.2,1.2V135.2h2.2ZM299.4,134H284.2l1.2,1.2h11.8v8.2L295.6,142c.2,-.6,.3,-1.3,.3,-1.9c0,-.8,-.2,-1.6,-.6,-2.2c-.3,-.5,-.6,-.9,-1,-1.2c-.5,-.3,-.9,-.6,-1.4,-.7c-.3,-.1,-.6,-.2,-.9,-.2c-.7,0,-1.4,.2,-2,.7c-.3,.2,-.5,.5,-.7,.8c-.2,.3,-.2,.6,-.2,.9c0,.4,0,.7,.2,.9c.3,.5,.7,.7,1.2,.8c.6,.1,1.1,0,1.5,-.3c.2,-.2,.4,-.4,.6,-.6c.1,-.3,.2,-.5,.2,-.8c0,-.3,-.1,-.6,-.4,-1c.2,-.1,.5,-.1,.7,0c.2,0,.5,.1,.8,.3c.1,.2,.3,.4,.5,.7c.2,.3,.3,.6,.4,.9c.1,.3,.1,.5,.1,.7c0,.6,-.2,1.1,-.5,1.7c-.5,.8,-1.4,1.3,-2.8,1.3c-.6,0,-1.1,-.2,-1.7,-.5c-.5,-.3,-1,-.8,-1.5,-1.4c-.4,-.5,-.8,-1.2,-1.2,-2c-.3,-.8,-.6,-1.7,-.8,-2.7l-.7,-.3c.1,1,.3,2,.5,2.9c.3,.9,.6,1.7,1,2.3c.3,.5,.7,1,1,1.5c.4,.4,.8,.8,1.2,1.1c.4,.3,.8,.6,1.2,.7c.4,.2,.8,.3,1.2,.3c.8,0,1.4,-.2,2,-.4c.5,-.3,.9,-.7,1.3,-1.2c1.4,.9,2.3,2.4,2.9,4.5v-.1l.4,.3V135.2h2.2L299.4,134Zm13.2,-2.1c-2.3,-2.4,-4.7,-3.6,-7.2,-3.6c-1,0,-2,.4,-3.1,1.2c-1.1,.9,-1.6,1.8,-1.6,2.7c0,.4,.1,.7,.4,1l.9,.8h-3.2l1.2,1.2h1.8v11.3l1.2,1.2V135.2h2.1L303.9,134h-1.3l-.5,-1.1c.1,-.9,.6,-1.6,1.7,-2.3c.9,-.7,1.8,-1,2.7,-1c.6,0,1.2,.1,1.8,.2c.6,.2,1.1,.4,1.7,.7c.6,.4,1.1,.7,1.6,1c.5,.4,.9,.7,1.3,1l-.3,-.6Zm6.7,3.3L318.1,134H303.4c.8,.9,1.5,1.5,2.2,1.8c.1,.1,.4,.2,.7,.3c.4,.1,.8,.2,1.2,.4c.4,.1,.7,.2,1,.4c.3,.2,.6,.4,.9,.6c-.7,.6,-1.4,1.2,-2,1.7c-.5,.5,-1,1,-1.4,1.4l1.4,2.1c.7,0,1.4,.1,2.1,.3c.6,.2,1.2,.5,1.7,.9c1.2,1.3,1.9,2.3,2,3l.8,.8v-9.8h.5c1.9,0,2.9,.7,2.9,2l-.1,.3c-.3,-.3,-.7,-.5,-1.2,-.5c-.3,0,-.6,.1,-.9,.3c-.3,.3,-.4,.6,-.4,.9c0,.4,.2,.7,.4,1c.3,.3,.6,.4,1,.4c1.4,0,2.1,-.7,2.1,-2.1c0,-1.3,-.5,-2.4,-1.4,-3.1c-.8,-.7,-1.8,-1,-2.9,-1c0,0,-.1,0,-.2,0c-.1,0,-.2,0,-.4,0c-.1,0,-.2,.1,-.3,.1c-.2,0,-.3,0,-.3,0v8.4c-1,-1.7,-2.5,-2.9,-4.4,-3.5l3.1,-2.5c-.5,-.6,-1,-1.2,-1.5,-1.8c-.6,-.6,-1.2,-1.1,-1.9,-1.6h11.2Zm12.7,0L330.8,134H317.9c.4,.4,.7,.7,.9,.9c.3,.2,.4,.4,.6,.5c.3,.2,.6,.4,.9,.6c.3,.1,.5,.2,.8,.3c.5,.1,.9,.2,1.3,.3c.3,.1,.6,.2,.8,.4c.2,.2,.4,.4,.5,.7c.1,.4,.2,.8,.3,1.4c-.4,.5,-.7,.9,-1,1.3c-.2,.3,-.5,.5,-.6,.7c-.2,.2,-.3,.3,-.4,.4c-.1,0,-.2,0,-.3,0c-.1,0,-.3,0,-.4,-.1c-.2,-.1,-.3,-.3,-.4,-.4c-.1,-.2,-.2,-.4,-.2,-.6c-.1,-.2,-.2,-.3,-.2,-.5l-.8,.8c.2,.2,.3,.5,.5,.8c.2,.3,.4,.6,.6,.9c.2,.3,.5,.5,.8,.7c.3,.1,.6,.2,1,.2c.1,0,.2,0,.4,-.1c.1,0,.3,-.1,.5,-.3c.2,-.2,.5,-.5,.8,-.9c.3,-.4,.6,-.9,1,-1.6c.5,-.6,.9,-1,1.3,-1.1c.4,0,.8,.1,1.1,.4c.3,.4,.5,.9,.7,1.6c.2,.7,.3,1.6,.3,2.5v.4c0,.1,0,.3,0,.5c0,.1,0,.4,0,.7c-.1,.3,-.1,.6,-.1,1.1c.2,.2,.4,.4,.6,.6c.2,.3,.4,.5,.6,.7V135.2H332Zm-3.4,4.1c-.3,-.4,-.7,-.8,-1,-1.1c-.2,-.4,-.5,-.6,-.8,-.7c-.3,-.1,-.7,-.1,-1,.1c-.3,.1,-.7,.4,-1.1,.8c0,-.6,-.1,-1.1,-.4,-1.6c-.2,-.5,-.7,-1,-1.3,-1.6h5.6v4.1Z" class="gi_78"/>
<g clip-path="url(#c0_78)">
<path d="M1877,177.2H32.1v-5.4H768.7c43.1,0,53,-37.9,115.3,-37.9h993Z" class="gj_78"/>
<path d="M1877,183.7H32.1v-9.8H768.7c43.1,0,53,-33.6,115.3,-33.6h993Z" class="gk_78"/>
</g>
<image clip-path="url(#c5_78)" preserveAspectRatio="none" x="125" y="206" width="734" height="190" xlink:href="img/5.png"/>
<path d="M144.6,231.3c0,0,-13,0,-13,13V369.9c0,0,0,13,13,13H833.1c0,0,13,0,13,-13V231.3Z" class="gl_78"/>
<path d="M147.7,294.1l54.1,40.8l54.1,-40.8V230h8.7V211.9H155.8c-6.5,.4,-7.7,3.9,-8.2,8.4Z" class="gm_78"/>
<path d="M274,220.3c-.3,-4.7,-4.2,-8.4,-9,-8.4c-4.8,0,-8.7,3.7,-9,8.4h-.1V230h18.2v-9.7Z" class="gn_78"/>
<path d="M255.9,230.6H846.1" class="go_78"/>
<path d="M131.7,427.3v39l11.7,10.2V432.3Z" class="gp_78"/>
<path d="M131.7,427.3v39H829.5c0,0,16.8,0,16.8,-16.8v-5.4c0,0,0,-16.8,-16.8,-16.8Z" class="g3_78"/>
<path d="M781,460.9c8.2,0,14.8,-6.5,14.8,-14.5c0,-8,-6.6,-14.5,-14.8,-14.5c-8.3,0,-14.9,6.5,-14.9,14.5c0,8,6.6,14.5,14.9,14.5Z" class="gq_78"/>
<path d="M781,460.9c8.2,0,14.8,-6.5,14.8,-14.5c0,-8,-6.6,-14.5,-14.8,-14.5c-8.3,0,-14.9,6.5,-14.9,14.5c0,8,6.6,14.5,14.9,14.5Z" class="gr_78"/>
<path d="M781,451.8c3,0,5.4,-2.4,5.4,-5.4c0,-3,-2.4,-5.4,-5.4,-5.4c-3.1,0,-5.5,2.4,-5.5,5.4c0,3,2.4,5.4,5.5,5.4Z" class="g1_78"/>
<path d="M781,451.8c3,0,5.4,-2.4,5.4,-5.4c0,-3,-2.4,-5.4,-5.4,-5.4c-3.1,0,-5.5,2.4,-5.5,5.4c0,3,2.4,5.4,5.5,5.4Z" class="gs_78"/>
<g clip-path="url(#c6_78)" opacity="0.3">
<path d="M766.4,445.6v0c0,0,-.1,-4.8,3.6,-8.6l7.8,6.7c0,0,-1,.9,-1.1,2.6Z" class="g1_78"/>
</g>
<path d="M785.6,446.3c0,0,-3.5,0,-3.5,3.5v8.7c0,0,0,3.4,3.5,3.4H829c0,0,3.5,0,3.5,-3.4v-8.7c0,0,0,-3.5,-3.5,-3.5Z" class="gn_78"/>
<path d="M169.5,437.4c0,-8.4,-6.7,-15.1,-15,-15.1c-8.4,0,-15.1,6.7,-15.1,15.1c0,8.3,6.8,15,15.1,15c.8,0,1.6,-.1,2.4,-.2l4.5,5.2v-6.7c4.8,-2.5,8.1,-7.5,8.1,-13.3Z" class="g1_78"/>
<path d="M161.8,458.7l-5.1,-6c-.7,.1,-1.5,.2,-2.2,.2c-8.6,0,-15.6,-7,-15.6,-15.5c0,-8.6,7,-15.6,15.6,-15.6c8.5,0,15.5,7,15.5,15.6c0,5.7,-3.1,10.9,-8.2,13.6Zm-4.7,-7l3.8,4.5v-5.7l.3,-.2c4.8,-2.5,7.9,-7.5,7.9,-12.9c0,-8.1,-6.6,-14.6,-14.6,-14.6c-8.1,0,-14.6,6.5,-14.6,14.6c0,8,6.5,14.6,14.6,14.6c.7,0,1.5,-.1,2.3,-.2Z" class="gt_78"/>
<path d="M147.4,436.9c.8,0,1.5,.7,1.5,1.5c0,.8,-.7,1.4,-1.5,1.4c-.7,0,-1.4,-.6,-1.4,-1.4c0,-.8,.7,-1.5,1.4,-1.5Z" class="gu_78"/>
<path d="M147.4,440.3c-1,0,-1.8,-.9,-1.8,-1.9c0,-1.1,.8,-1.9,1.8,-1.9c1.1,0,1.9,.8,1.9,1.9c0,1,-.8,1.9,-1.9,1.9m0,-2.9c-.5,0,-.9,.4,-.9,1c0,.5,.4,.9,.9,.9c.6,0,1,-.4,1,-.9c0,-.6,-.4,-1,-1,-1Z" class="gt_78"/>
<path d="M154.5,436.9c.8,0,1.4,.7,1.4,1.5c0,.8,-.6,1.4,-1.4,1.4c-.8,0,-1.5,-.6,-1.5,-1.4c0,-.8,.7,-1.5,1.5,-1.5Z" class="gu_78"/>
<path d="M154.5,440.3c-1.1,0,-1.9,-.9,-1.9,-1.9c0,-1.1,.8,-1.9,1.9,-1.9c1,0,1.9,.8,1.9,1.9c0,1,-.9,1.9,-1.9,1.9m0,-2.9c-.6,0,-1,.4,-1,1c0,.5,.4,.9,1,.9c.5,0,.9,-.4,.9,-.9c0,-.6,-.4,-1,-.9,-1Z" class="gt_78"/>
<path d="M161.5,436.9c.8,0,1.4,.7,1.4,1.5c0,.8,-.6,1.4,-1.4,1.4c-.8,0,-1.5,-.6,-1.5,-1.4c0,-.8,.7,-1.5,1.5,-1.5Z" class="gu_78"/>
<path d="M161.5,440.3c-1.1,0,-1.9,-.9,-1.9,-1.9c0,-1.1,.8,-1.9,1.9,-1.9c1,0,1.9,.8,1.9,1.9c0,1,-.9,1.9,-1.9,1.9m0,-2.9c-.6,0,-1,.4,-1,1c0,.5,.4,.9,1,.9c.5,0,1,-.4,1,-.9c0,-.6,-.5,-1,-1,-1Z" class="gt_78"/>
<path d="M163.4,451.6c0,-9.7,7.9,-17.6,17.6,-17.6c9.7,0,17.6,7.9,17.6,17.6c0,9.7,-7.9,17.6,-17.6,17.6c-.9,0,-1.9,-.1,-2.8,-.2l-5.3,6.1v-7.9c-5.6,-2.9,-9.5,-8.8,-9.5,-15.6Z" class="gv_78"/>
<path d="M172.9,475.5c0,0,-.1,0,-.1,0c-.2,-.1,-.3,-.2,-.3,-.4v-7.6c-5.9,-3.1,-9.6,-9.2,-9.6,-15.9c0,-10,8.2,-18.1,18.1,-18.1c10,0,18.1,8.1,18.1,18.1c0,10,-8.1,18.1,-18.1,18.1c-.8,0,-1.7,-.1,-2.6,-.2l-5.1,5.9c-.1,.1,-.2,.1,-.4,.1M181,434.4c-9.4,0,-17.1,7.7,-17.1,17.2c0,6.4,3.5,12.3,9.2,15.2c.2,.1,.3,.3,.3,.4v6.7l4.4,-5.2c.1,-.1,.3,-.2,.5,-.2c.9,.2,1.8,.2,2.7,.2c9.5,0,17.2,-7.6,17.2,-17.1c0,-9.5,-7.7,-17.2,-17.2,-17.2Z" class="gt_78"/>
<path d="M189.2,451.1c.9,0,1.7,.8,1.7,1.7c0,.9,-.8,1.6,-1.7,1.6c-.9,0,-1.7,-.7,-1.7,-1.6c0,-.9,.8,-1.7,1.7,-1.7Z" class="g1_78"/>
<path d="M189.2,454.9c-1.2,0,-2.1,-1,-2.1,-2.1c0,-1.2,.9,-2.2,2.1,-2.2c1.2,0,2.1,1,2.1,2.2c0,1.1,-.9,2.1,-2.1,2.1m0,-3.3c-.7,0,-1.2,.5,-1.2,1.2c0,.6,.5,1.2,1.2,1.2c.7,0,1.2,-.6,1.2,-1.2c0,-.7,-.5,-1.2,-1.2,-1.2Z" class="gt_78"/>
<path d="M181,451.1c.9,0,1.7,.8,1.7,1.7c0,.9,-.8,1.6,-1.7,1.6c-.9,0,-1.7,-.7,-1.7,-1.6c0,-.9,.8,-1.7,1.7,-1.7Z" class="g1_78"/>
<path d="M181,454.9c-1.2,0,-2.1,-1,-2.1,-2.1c0,-1.2,.9,-2.2,2.1,-2.2c1.2,0,2.1,1,2.1,2.2c0,1.1,-.9,2.1,-2.1,2.1m0,-3.3c-.7,0,-1.2,.5,-1.2,1.2c0,.6,.5,1.2,1.2,1.2c.7,0,1.2,-.6,1.2,-1.2c0,-.7,-.5,-1.2,-1.2,-1.2Z" class="gt_78"/>
<path d="M172.8,451.1c.9,0,1.7,.8,1.7,1.7c0,.9,-.8,1.6,-1.7,1.6c-.9,0,-1.7,-.7,-1.7,-1.6c0,-.9,.8,-1.7,1.7,-1.7Z" class="g1_78"/>
<path d="M172.8,454.9c-1.2,0,-2.1,-1,-2.1,-2.1c0,-1.2,.9,-2.2,2.1,-2.2c1.2,0,2.1,1,2.1,2.2c0,1.1,-.9,2.1,-2.1,2.1m0,-3.3c-.7,0,-1.2,.5,-1.2,1.2c0,.6,.5,1.2,1.2,1.2c.7,0,1.2,-.6,1.2,-1.2c0,-.7,-.5,-1.2,-1.2,-1.2Z" class="gt_78"/>
<path d="M515,778.6c9.5,-1.4,17,-6.8,18.9,-13.6m-.6,-8c-2.6,-6.4,-10.4,-11.3,-19.9,-12.2m-8.2,.2c-9.6,1.4,-17.1,6.8,-18.9,13.5m.5,8.1c2.7,6.4,10.5,11.2,20,12.2" class="gw_78"/>
<path d="M534.2,763.4c.1,-.5,.1,-1.1,.1,-1.6c0,-.6,0,-1.1,-.1,-1.7M511.7,744.7c-.5,0,-1.1,-.1,-1.6,-.1c-.6,0,-1.1,.1,-1.6,.1M486,760.1c-.1,.6,-.1,1.1,-.1,1.7c0,.5,0,1.1,.1,1.6m22.5,15.5c.5,0,1,0,1.6,0c.5,0,1.1,0,1.6,0" class="g7_78"/>
<image clip-path="url(#c7_78)" preserveAspectRatio="none" x="703" y="664" width="191" height="145" xlink:href="img/6.png"/>
<path d="M708.4,674.9l4,127.3l175.7,-6.7l-4,-127.3Z" class="g8_78"/>
<image clip-path="url(#c8_78)" preserveAspectRatio="none" x="700" y="661" width="195" height="154" xlink:href="img/7.png"/>
<path d="M705.5,681l12,127.2L839.8,798l48.9,-17.6l-10.4,-115Z" class="g9_78"/>
<path d="M888.6,780.4L839.8,798l32.3,-31.6Z" class="ga_78"/>
<path d="M519,741.5c13.6,-7.1,32.1,-9.8,39.3,-10.6m7.6,.5c10.9,1.6,38.4,4.2,51.9,-7.1" class="gb_78"/>
<path d="M619.8,718.3c-.6,-2.6,-2.3,-5.1,-6.9,-2m-2.6,5.7c.2,4.7,3.7,10.4,22.6,1.2" class="gc_78"/>
<path d="M639.2,719.3C648.3,713,672.8,698,701,697.1" class="gb_78"/>
<path d="M515.1,743.8c.4,-.2,.8,-.5,1.3,-.8m43.4,-12.2c1,-.1,1.5,-.2,1.5,-.2c0,0,.6,.2,1.5,.3M619,723.3c.3,-.4,.7,-.7,1,-1.1c0,0,.1,-.6,.1,-1.3M611.8,717c-.3,.3,-.7,.5,-1,.8c0,0,-.2,.6,-.3,1.4m23.7,3.4c.4,-.2,.8,-.4,1.2,-.6c0,0,.5,-.4,1.3,-1m65.8,-23.9c.6,0,1.1,0,1.6,0" class="gd_78"/>
<path d="M705.9,692.7l-1.5,8.7l11.9,-2.6Z" class="ge_78"/>
<image clip-path="url(#c9_78)" x="784" y="671" width="6" height="10" xlink:href="shade/1.png"/>
<image clip-path="url(#ca_78)" x="784" y="645" width="24" height="28" xlink:href="shade/2.png"/>
<image clip-path="url(#cb_78)" x="783" y="647" width="23" height="34" xlink:href="shade/3.png"/>
<image clip-path="url(#cc_78)" x="789" y="643" width="20" height="10" xlink:href="shade/4.png"/>
<image clip-path="url(#cd_78)" x="153" y="681" width="5" height="10" xlink:href="shade/5.png"/>
<image clip-path="url(#ce_78)" x="152" y="655" width="24" height="28" xlink:href="shade/6.png"/>
<image clip-path="url(#cf_78)" x="152" y="657" width="23" height="34" xlink:href="shade/7.png"/>
<image clip-path="url(#cg_78)" x="157" y="653" width="20" height="10" xlink:href="shade/8.png"/>
<path d="M32.1,45.1H9.2m958.3,0h22.9M32.1,1331.3H9.2m958.3,0h22.9M45.1,32.1V9.2m0,1335.1v22.9M954.5,32.1V9.2m0,1335.1v22.9" class="gx_78"/>
<path d="M32.1,45.1H9.2m958.3,0h22.9M32.1,1331.3H9.2m958.3,0h22.9M45.1,32.1V9.2m0,1335.1v22.9M954.5,32.1V9.2m0,1335.1v22.9" class="gy_78"/>
<path d="M27.5,32.1H0m972.1,0h27.5M27.5,1344.3H0m972.1,0h27.5M32.1,27.5V0m0,1348.9v27.5M967.5,27.5V0m0,1348.9v27.5" class="gx_78"/>
<path d="M27.5,32.1H0m972.1,0h27.5M27.5,1344.3H0m972.1,0h27.5M32.1,27.5V0m0,1348.9v27.5M967.5,27.5V0m0,1348.9v27.5" class="gy_78"/>
</svg>