<?xml version="1.0" encoding="UTF-8" standalone="no"?>
<!DOCTYPE svg PUBLIC "-//W3C//DTD SVG 1.1//EN"
"http://www.w3.org/Graphics/SVG/1.1/DTD/svg11.dtd">
<svg viewBox="0 0 999 1376" version="1.1" xmlns="http://www.w3.org/2000/svg" xmlns:xlink="http://www.w3.org/1999/xlink">
<defs>
<clipPath id="c0_41"><path d="M32.1,1344.3V32.1H967.5V1344.3Z"/></clipPath>
<clipPath id="c1_41"><path d="M203.3,293.5l-6.5,-2.1L182.7,280.2V219.3h62.7v74.2Z"/></clipPath>
<clipPath id="c2_41"><path d="M203,983.4l-6.5,-2l-14,-11.2V909.3h62.7v74.1Z"/></clipPath>
<clipPath id="c3_41"><path d="M203,1072.1l-6.5,-2l-14,-11.2V998h62.7v74.1Z"/></clipPath>
<style type="text/css"><![CDATA[
.g0_41{
fill: #FFFDEA;
}
.g1_41{
fill: #BCE4EA;
}
.g2_41{
fill: #BCBEC0;
}
.g3_41{
fill: #00AABD;
}
.g4_41{
fill: #FCDCBA;
}
.g5_41{
fill: #DED3E8;
}
.g6_41{
fill: #FFF;
}
.g7_41{
fill: none;
stroke: #6D6F71;
stroke-width: 0.305;
stroke-miterlimit: 10;
}
.g8_41{
fill: #231F20;
}
.g9_41{
fill: #49A161;
}
.ga_41{
fill: none;
stroke: #6D6F71;
stroke-width: 0.305;
}
.gb_41{
fill: none;
stroke: #FFF;
stroke-width: 1.909;
stroke-miterlimit: 10;
}
.gc_41{
fill: none;
stroke: #000;
stroke-width: 0.381;
stroke-miterlimit: 10;
}
]]></style>
</defs>
<g clip-path="url(#c0_41)">
<path d="M-877.3,1344.3H967.5V32.1H-877.3V1344.3Z" class="g0_41"/>
<path d="M-877.3,179.3H967.5V32.1H-877.3V179.3Z" class="g1_41"/>
<path d="M967.5,177.2H-877.3v-5.4h736.6c43.1,0,53.1,-37.9,115.3,-37.9H967.5Z" class="g2_41"/>
<path d="M967.5,183.7H-877.3v-9.8h736.6c43.1,0,53.1,-33.6,115.3,-33.6H967.5Z" class="g3_41"/>
</g>
<path d="M235.9,222.5c0,0,-13,0,-13,13v47.6c0,0,0,13,13,13h619c0,0,13,0,13,-13V235.5c0,0,0,-13,-13,-13Z" class="g4_41"/>
<image clip-path="url(#c1_41)" preserveAspectRatio="none" x="183" y="218" width="62" height="77" xlink:href="img/1.png"/>
<path d="M230.7,288.8c0,0,-26.9,11.3,-51.1,-12.8c0,0,15.1,25.3,49.3,24c0,0,24.7,.3,20.2,-10.2c0,0,1.2,-4.4,-18.4,-1Z" class="g4_41"/>
<path d="M192.5,328.5h63.6v52H192.5v-52Zm63.6,0h61.2v52H256.1v-52Zm61.2,0h61.2v52H317.3v-52Zm61.2,0h61.1v52H378.5v-52Zm61.1,0h61.2v52H439.6v-52Zm61.2,0h61.1v52H500.8v-52Zm61.1,0h61.2v52H561.9v-52Zm61.2,0h61.2v52H623.1v-52Zm61.2,0h61.1v52H684.3v-52Zm61.1,0h61.2v52H745.4v-52Zm61.2,0h61.2v52H806.6v-52Z" class="g5_41"/>
<path d="M192.5,380.5h63.6v49.8H192.5V380.5Zm63.6,0h61.2v49.8H256.1V380.5Zm61.2,0h61.2v49.8H317.3V380.5Zm61.2,0h61.1v49.8H378.5V380.5Zm61.1,0h61.2v49.8H439.6V380.5Zm61.2,0h61.1v49.8H500.8V380.5Zm61.1,0h61.2v49.8H561.9V380.5Zm61.2,0h61.2v49.8H623.1V380.5Zm61.2,0h61.1v49.8H684.3V380.5Zm61.1,0h61.2v49.8H745.4V380.5Zm61.2,0h61.2v49.8H806.6V380.5ZM192.5,430.3h63.6v49.8H192.5V430.3Zm63.6,0h61.2v49.8H256.1V430.3Zm61.2,0h61.2v49.8H317.3V430.3Zm61.2,0h61.1v49.8H378.5V430.3Zm61.1,0h61.2v49.8H439.6V430.3Zm61.2,0h61.1v49.8H500.8V430.3Zm61.1,0h61.2v49.8H561.9V430.3Zm61.2,0h61.2v49.8H623.1V430.3Zm61.2,0h61.1v49.8H684.3V430.3Zm61.1,0h61.2v49.8H745.4V430.3Zm61.2,0h61.2v49.8H806.6V430.3ZM192.5,480.1h63.6v49.8H192.5V480.1Zm63.6,0h61.2v49.8H256.1V480.1Zm61.2,0h61.2v49.8H317.3V480.1Zm61.2,0h61.1v49.8H378.5V480.1Zm61.1,0h61.2v49.8H439.6V480.1Zm61.2,0h61.1v49.8H500.8V480.1Zm61.1,0h61.2v49.8H561.9V480.1Zm61.2,0h61.2v49.8H623.1V480.1Zm61.2,0h61.1v49.8H684.3V480.1Zm61.1,0h61.2v49.8H745.4V480.1Zm61.2,0h61.2v49.8H806.6V480.1ZM192.5,529.9h63.6v49.8H192.5V529.9Zm63.6,0h61.2v49.8H256.1V529.9Zm61.2,0h61.2v49.8H317.3V529.9Zm61.2,0h61.1v49.8H378.5V529.9Zm61.1,0h61.2v49.8H439.6V529.9Zm61.2,0h61.1v49.8H500.8V529.9Zm61.1,0h61.2v49.8H561.9V529.9Zm61.2,0h61.2v49.8H623.1V529.9Zm61.2,0h61.1v49.8H684.3V529.9Zm61.1,0h61.2v49.8H745.4V529.9Zm61.2,0h61.2v49.8H806.6V529.9ZM192.5,579.7h63.6v49.8H192.5V579.7Zm63.6,0h61.2v49.8H256.1V579.7Zm61.2,0h61.2v49.8H317.3V579.7Zm61.2,0h61.1v49.8H378.5V579.7Zm61.1,0h61.2v49.8H439.6V579.7Zm61.2,0h61.1v49.8H500.8V579.7Zm61.1,0h61.2v49.8H561.9V579.7Zm61.2,0h61.2v49.8H623.1V579.7Zm61.2,0h61.1v49.8H684.3V579.7Zm61.1,0h61.2v49.8H745.4V579.7Zm61.2,0h61.2v49.8H806.6V579.7ZM192.5,629.5h63.6v49.8H192.5V629.5Zm63.6,0h61.2v49.8H256.1V629.5Zm61.2,0h61.2v49.8H317.3V629.5Zm61.2,0h61.1v49.8H378.5V629.5Zm61.1,0h61.2v49.8H439.6V629.5Zm61.2,0h61.1v49.8H500.8V629.5Zm61.1,0h61.2v49.8H561.9V629.5Zm61.2,0h61.2v49.8H623.1V629.5Zm61.2,0h61.1v49.8H684.3V629.5Zm61.1,0h61.2v49.8H745.4V629.5Zm61.2,0h61.2v49.8H806.6V629.5ZM192.5,679.3h63.6v49.8H192.5V679.3Zm63.6,0h61.2v49.8H256.1V679.3Zm61.2,0h61.2v49.8H317.3V679.3Zm61.2,0h61.1v49.8H378.5V679.3Zm61.1,0h61.2v49.8H439.6V679.3Zm61.2,0h61.1v49.8H500.8V679.3Zm61.1,0h61.2v49.8H561.9V679.3Zm61.2,0h61.2v49.8H623.1V679.3Zm61.2,0h61.1v49.8H684.3V679.3Zm61.1,0h61.2v49.8H745.4V679.3Zm61.2,0h61.2v49.8H806.6V679.3ZM192.5,729.1h63.6v49.8H192.5V729.1Zm63.6,0h61.2v49.8H256.1V729.1Zm61.2,0h61.2v49.8H317.3V729.1Zm61.2,0h61.1v49.8H378.5V729.1Zm61.1,0h61.2v49.8H439.6V729.1Zm61.2,0h61.1v49.8H500.8V729.1Zm61.1,0h61.2v49.8H561.9V729.1Zm61.2,0h61.2v49.8H623.1V729.1Zm61.2,0h61.1v49.8H684.3V729.1Zm61.1,0h61.2v49.8H745.4V729.1Zm61.2,0h61.2v49.8H806.6V729.1ZM192.5,778.9h63.6v49.8H192.5V778.9Zm63.6,0h61.2v49.8H256.1V778.9Zm61.2,0h61.2v49.8H317.3V778.9Zm61.2,0h61.1v49.8H378.5V778.9Zm61.1,0h61.2v49.8H439.6V778.9Zm61.2,0h61.1v49.8H500.8V778.9Zm61.1,0h61.2v49.8H561.9V778.9Zm61.2,0h61.2v49.8H623.1V778.9Zm61.2,0h61.1v49.8H684.3V778.9Zm61.1,0h61.2v49.8H745.4V778.9Zm61.2,0h61.2v49.8H806.6V778.9ZM192.5,828.7h63.6v49.8H192.5V828.7Zm63.6,0h61.2v49.8H256.1V828.7Zm61.2,0h61.2v49.8H317.3V828.7Zm61.2,0h61.1v49.8H378.5V828.7Zm61.1,0h61.2v49.8H439.6V828.7Zm61.2,0h61.1v49.8H500.8V828.7Zm61.1,0h61.2v49.8H561.9V828.7Zm61.2,0h61.2v49.8H623.1V828.7Zm61.2,0h61.1v49.8H684.3V828.7Zm61.1,0h61.2v49.8H745.4V828.7Zm61.2,0h61.2v49.8H806.6V828.7Z" class="g6_41"/>
<path d="M192.5,430.1V380.6m63.6,49.5V380.6m61.2,49.5V380.6m61.2,49.5V380.6m61.1,49.5V380.6m61.2,49.5V380.6m61.1,49.5V380.6m61.2,49.5V380.6m61.2,49.5V380.6m61.1,49.5V380.6m61.2,49.5V380.6m61.2,49.5V380.6M192.3,430.3h63.8m-63.6,49.6V430.4m63.6,-.1h61.2m-61.2,49.6V430.4m61.2,-.1h61.2m-61.2,49.6V430.4m61.2,-.1h61.1m-61.1,49.6V430.4m61.1,-.1h61.2m-61.2,49.6V430.4m61.2,-.1h61.1m-61.1,49.6V430.4m61.1,-.1h61.2m-61.2,49.6V430.4m61.2,-.1h61.2m-61.2,49.6V430.4m61.2,-.1h61.1m-61.1,49.6V430.4m61.1,-.1h61.2m-61.2,49.6V430.4m61.2,-.1h61.3m-61.3,49.6V430.4m61.2,49.5V430.4M192.3,480.1h63.8m-63.6,49.6V480.2m63.6,-.1h61.2m-61.2,49.6V480.2m61.2,-.1h61.2m-61.2,49.6V480.2m61.2,-.1h61.1m-61.1,49.6V480.2m61.1,-.1h61.2m-61.2,49.6V480.2m61.2,-.1h61.1m-61.1,49.6V480.2m61.1,-.1h61.2m-61.2,49.6V480.2m61.2,-.1h61.2m-61.2,49.6V480.2m61.2,-.1h61.1m-61.1,49.6V480.2m61.1,-.1h61.2m-61.2,49.6V480.2m61.2,-.1h61.3m-61.3,49.6V480.2m61.2,49.5V480.2M192.3,529.9h63.8m-63.6,49.6V530m63.6,-.1h61.2m-61.2,49.6V530m61.2,-.1h61.2m-61.2,49.6V530m61.2,-.1h61.1m-61.1,49.6V530m61.1,-.1h61.2m-61.2,49.6V530m61.2,-.1h61.1m-61.1,49.6V530m61.1,-.1h61.2m-61.2,49.6V530m61.2,-.1h61.2m-61.2,49.6V530m61.2,-.1h61.1m-61.1,49.6V530m61.1,-.1h61.2m-61.2,49.6V530m61.2,-.1h61.3m-61.3,49.6V530m61.2,49.5V530M192.3,579.7h63.8m-63.6,49.6V579.8m63.6,-.1h61.2m-61.2,49.6V579.8m61.2,-.1h61.2m-61.2,49.6V579.8m61.2,-.1h61.1m-61.1,49.6V579.8m61.1,-.1h61.2m-61.2,49.6V579.8m61.2,-.1h61.1m-61.1,49.6V579.8m61.1,-.1h61.2m-61.2,49.6V579.8m61.2,-.1h61.2m-61.2,49.6V579.8m61.2,-.1h61.1m-61.1,49.6V579.8m61.1,-.1h61.2m-61.2,49.6V579.8m61.2,-.1h61.3m-61.3,49.6V579.8m61.2,49.5V579.8M192.3,629.5h63.8m-63.6,49.6V629.6m63.6,-.1h61.2m-61.2,49.6V629.6m61.2,-.1h61.2m-61.2,49.6V629.6m61.2,-.1h61.1m-61.1,49.6V629.6m61.1,-.1h61.2m-61.2,49.6V629.6m61.2,-.1h61.1m-61.1,49.6V629.6m61.1,-.1h61.2m-61.2,49.6V629.6m61.2,-.1h61.2m-61.2,49.6V629.6m61.2,-.1h61.1m-61.1,49.6V629.6m61.1,-.1h61.2m-61.2,49.6V629.6m61.2,-.1h61.3m-61.3,49.6V629.6m61.2,49.5V629.6M192.3,679.3h63.8m-63.6,49.6V679.4m63.6,-.1h61.2m-61.2,49.6V679.4m61.2,-.1h61.2m-61.2,49.6V679.4m61.2,-.1h61.1m-61.1,49.6V679.4m61.1,-.1h61.2m-61.2,49.6V679.4m61.2,-.1h61.1m-61.1,49.6V679.4m61.1,-.1h61.2m-61.2,49.6V679.4m61.2,-.1h61.2m-61.2,49.6V679.4m61.2,-.1h61.1m-61.1,49.6V679.4m61.1,-.1h61.2m-61.2,49.6V679.4m61.2,-.1h61.3m-61.3,49.6V679.4m61.2,49.5V679.4M192.3,729.1h63.8m-63.6,49.6V729.2m63.6,-.1h61.2m-61.2,49.6V729.2m61.2,-.1h61.2m-61.2,49.6V729.2m61.2,-.1h61.1m-61.1,49.6V729.2m61.1,-.1h61.2m-61.2,49.6V729.2m61.2,-.1h61.1m-61.1,49.6V729.2m61.1,-.1h61.2m-61.2,49.6V729.2m61.2,-.1h61.2m-61.2,49.6V729.2m61.2,-.1h61.1m-61.1,49.6V729.2m61.1,-.1h61.2m-61.2,49.6V729.2m61.2,-.1h61.3m-61.3,49.6V729.2m61.2,49.5V729.2M192.3,778.9h63.8m-63.6,49.6V779m63.6,-.1h61.2m-61.2,49.6V779m61.2,-.1h61.2m-61.2,49.6V779m61.2,-.1h61.1m-61.1,49.6V779m61.1,-.1h61.2m-61.2,49.6V779m61.2,-.1h61.1m-61.1,49.6V779m61.1,-.1h61.2m-61.2,49.6V779m61.2,-.1h61.2m-61.2,49.6V779m61.2,-.1h61.1m-61.1,49.6V779m61.1,-.1h61.2m-61.2,49.6V779m61.2,-.1h61.3m-61.3,49.6V779m61.2,49.5V779M192.3,828.7h63.8m-63.6,49.6V828.8m63.6,-.1h61.2m-61.2,49.6V828.8m61.2,-.1h61.2m-61.2,49.6V828.8m61.2,-.1h61.1m-61.1,49.6V828.8m61.1,-.1h61.2m-61.2,49.6V828.8m61.2,-.1h61.1m-61.1,49.6V828.8m61.1,-.1h61.2m-61.2,49.6V828.8m61.2,-.1h61.2m-61.2,49.6V828.8m61.2,-.1h61.1m-61.1,49.6V828.8m61.1,-.1h61.2m-61.2,49.6V828.8m61.2,-.1h61.3m-61.3,49.6V828.8m61.2,49.5V828.8M192.3,878.5h63.8m0,0h61.2m0,0h61.2m0,0h61.1m0,0h61.2m0,0h61.1m0,0h61.2m0,0h61.2m0,0h61.1m0,0h61.2m0,0h61.3M192.3,328.5h63.8m-63.6,51.8V328.6m-.2,51.9h63.8m0,-52h61.2m-61.2,51.8V328.6m0,51.9h61.2m0,-52h61.2m-61.2,51.8V328.6m0,51.9h61.2m0,-52h61.1m-61.1,51.8V328.6m0,51.9h61.1m0,-52h61.2m-61.2,51.8V328.6m0,51.9h61.2m0,-52h61.1m-61.1,51.8V328.6m0,51.9h61.1m0,-52h61.2m-61.2,51.8V328.6m0,51.9h61.2m0,-52h61.2m-61.2,51.8V328.6m0,51.9h61.2m0,-52h61.1m-61.1,51.8V328.6m0,51.9h61.1m0,-52h61.2m-61.2,51.8V328.6m0,51.9h61.2m0,-52h61.3m-61.3,51.8V328.6m61.2,51.7V328.6m-61.2,51.9h61.3" class="g7_41"/>
<path d="M235.6,912.5c0,0,-13,0,-13,13v47.6c0,0,0,13,13,13H854.7c0,0,13,0,13,-13V925.5c0,0,0,-13,-13,-13Z" class="g4_41"/>
<image clip-path="url(#c2_41)" preserveAspectRatio="none" x="182" y="908" width="63" height="77" xlink:href="img/2.png"/>
<path d="M230.4,978.7c0,0,-26.8,11.3,-51.1,-12.7c0,0,15.2,25.3,49.3,23.9c0,0,24.8,.4,20.3,-10.1c0,0,1.2,-4.4,-18.5,-1.1Z" class="g4_41"/>
<path d="M235.6,1027.2c0,0,-13,0,-13,12.9v21.7c0,0,0,13,13,13H854.7c0,0,13,0,13,-13v-21.7c0,0,0,-12.9,-13,-12.9Z" class="g4_41"/>
<image clip-path="url(#c3_41)" preserveAspectRatio="none" x="182" y="997" width="63" height="77" xlink:href="img/3.png"/>
<path d="M230.4,1067.4c0,0,-26.8,11.3,-51.1,-12.7c0,0,15.2,25.3,49.3,23.9c0,0,24.8,.4,20.3,-10.1c0,0,1.2,-4.4,-18.5,-1.1Z" class="g4_41"/>
<path d="M341.2,1098.3H507.9v77.9H341.2v-77.9Zm240.3,0H748.3v77.9H581.5v-77.9Z" class="g6_41"/>
<path d="M431.5,1122.8h3.9v12.9h4.5v3.7h-4.5v16.2h-3.9Z" class="g8_41"/>
<path d="M411,1124.8h15.5c0,4.8,-1.1,9.3,-3.2,13.4c-2.3,4.5,-5.9,8.4,-10.8,11.3c-.7,-.7,-2.4,-2,-3.4,-2.6c4.5,-2.3,7.8,-5.4,10,-8.9c1.8,-2.9,2.8,-6.2,3,-9.7H411Z" class="g9_41"/>
<path d="M680.2,1153.4H649.6V1150h10.5v-12.2h4V1150h16.1Z" class="g8_41"/>
<path d="M652.8,1126.1h23.8c-.3,5.7,-1.2,13.9,-2.2,19.5h-4c1,-5.1,1.7,-10.9,1.9,-16.1H652.8Z" class="g9_41"/>
<path d="M192.4,328.4l63.5,51.8" class="ga_41"/>
<path d="M32.1,45.1H9.2m958.3,0h22.9M32.1,1331.3H9.2m958.3,0h22.9M45.1,32.1V9.2m0,1335.1v22.9M954.5,32.1V9.2m0,1335.1v22.9" class="gb_41"/>
<path d="M32.1,45.1H9.2m958.3,0h22.9M32.1,1331.3H9.2m958.3,0h22.9M45.1,32.1V9.2m0,1335.1v22.9M954.5,32.1V9.2m0,1335.1v22.9" class="gc_41"/>
<path d="M27.5,32.1H0m972.1,0h27.5M27.5,1344.3H0m972.1,0h27.5M32.1,27.5V0m0,1348.9v27.5M967.5,27.5V0m0,1348.9v27.5" class="gb_41"/>
<path d="M27.5,32.1H0m972.1,0h27.5M27.5,1344.3H0m972.1,0h27.5M32.1,27.5V0m0,1348.9v27.5M967.5,27.5V0m0,1348.9v27.5" class="gc_41"/>
</svg>