<?xml version="1.0" encoding="UTF-8" standalone="no"?>
<!DOCTYPE svg PUBLIC "-//W3C//DTD SVG 1.1//EN"
"http://www.w3.org/Graphics/SVG/1.1/DTD/svg11.dtd">
<svg viewBox="0 0 999 1376" version="1.1" xmlns="http://www.w3.org/2000/svg" xmlns:xlink="http://www.w3.org/1999/xlink">
<defs>
<clipPath id="c0_137"><path d="M32.1,1344.3V32.1H967.5V1344.3Z"/></clipPath>
<clipPath id="c1_137"><path d="M215,788.7V705.6H831.1v83.1Z"/></clipPath>
<clipPath id="c2_137"><path d="M215,946.1v-83H831.1v83Z"/></clipPath>
<clipPath id="c3_137"><path d="M215,1103.6v-83.1H831.1v83.1Z"/></clipPath>
<clipPath id="c4_137"><path d="M227,520c-8.7,0,-8.7,-8.6,-8.7,-8.6V450.7c0,-8.6,8.7,-8.6,8.7,-8.6h77.9c8.7,0,8.7,8.6,8.7,8.6v60.7c0,8.6,-8.7,8.6,-8.7,8.6Z"/></clipPath>
<clipPath id="c5_137"><path d="M227,428.3c-8.7,0,-8.7,-8.6,-8.7,-8.6V359c0,-8.6,8.7,-8.6,8.7,-8.6h77.9c8.7,0,8.7,8.6,8.7,8.6v60.7c0,8.6,-8.7,8.6,-8.7,8.6Z"/></clipPath>
<clipPath id="c6_137"><path d="M234.1,606.9V538.5h63.7v68.4Z"/></clipPath>
<style type="text/css"><![CDATA[
.g0_137{
fill: #FEFCF4;
}
.g1_137{
fill: #F16865;
}
.g2_137{
fill: #6381B7;
}
.g3_137{
fill: none;
stroke: #6381B7;
stroke-width: 0.381;
stroke-dasharray: 2,1;
}
.g4_137{
fill: none;
stroke: #6381B7;
stroke-width: 0.381;
}
.g5_137{
fill: #FEF8F8;
}
.g6_137{
fill: none;
stroke: #A164A9;
stroke-width: 1.527;
stroke-linecap: round;
stroke-linejoin: round;
stroke-dasharray: 0,5;
}
.g7_137{
fill: none;
stroke: #A164A9;
stroke-width: 1.527;
stroke-linecap: round;
stroke-linejoin: round;
}
.g8_137{
fill: #A164A9;
}
.g9_137{
fill: #FFF;
}
.ga_137{
fill: none;
stroke: #231F20;
stroke-width: 0.305;
stroke-miterlimit: 10;
}
.gb_137{
fill: none;
stroke: #FFF;
stroke-width: 1.909;
stroke-miterlimit: 10;
}
.gc_137{
fill: none;
stroke: #000;
stroke-width: 0.381;
stroke-miterlimit: 10;
}
]]></style>
</defs>
<path d="M45.1,1344.3H967.5V32.1H45.1V1344.3Z" class="g0_137"/>
<g clip-path="url(#c0_137)">
<path d="M-877.3,1344.3H45.1V32.1H-877.3V1344.3Z" class="g0_137"/>
<path d="M867.9,166.7c0,0,30.3,0,30.3,-30.3v-4.3c0,0,0,-30.3,-30.3,-30.3H-735.4c0,0,-30.4,0,-30.4,30.3v4.3c0,0,0,30.3,30.4,30.3Z" class="g1_137"/>
</g>
<path d="M589.7,1199.4c0,0,-4.3,0,-4.3,4.4v10.8c0,0,0,4.3,4.3,4.3H620c0,0,4.3,0,4.3,-4.3v-10.8c0,0,0,-4.4,-4.3,-4.4Z" class="g2_137"/>
<path d="M576.5,1190.6v37.5m1.3,1h289m.9,-1.3v-37.6m-1.3,-1H577.5" class="g3_137"/>
<path d="M576.5,1228.5v.6h.6m290,0h.6v-.6m0,-38.7v-.6h-.6m-290,0h-.6v.6" class="g4_137"/>
<image preserveAspectRatio="none" x="700" y="71" width="148" height="122" xlink:href="img/1.png"/>
<path d="M154.1,1181.6h713V251h-713v930.6Z" class="g5_137"/>
<path d="M154.1,255.6v923.7m4.6,2.3H864.9m2.2,-4.6V253.3M862.6,251H156.4" class="g6_137"/>
<path d="M154.1,1181.6v0m713.1,0v0m0,-930.6v0m-713.1,0v0" class="g7_137"/>
<path d="M153.3,265.3V227c0,0,0,-8.7,8.7,-8.7H859.3c0,0,8.6,0,8.6,8.7v38.9Z" class="g8_137"/>
<image clip-path="url(#c1_137)" preserveAspectRatio="none" x="215" y="706" width="615" height="83" xlink:href="img/2.png"/>
<path d="M218.3,782.5H824.6V708.9H218.3v73.6Z" class="g9_137"/>
<path d="M255.4,764.6H444.5" class="ga_137"/>
<image clip-path="url(#c2_137)" preserveAspectRatio="none" x="215" y="864" width="615" height="82" xlink:href="img/3.png"/>
<path d="M218.3,940H824.6V866.3H218.3V940Z" class="g9_137"/>
<path d="M255.4,922.1H444.5" class="ga_137"/>
<image clip-path="url(#c3_137)" preserveAspectRatio="none" x="215" y="1021" width="615" height="83" xlink:href="img/4.png"/>
<path d="M218.3,1097.4H824.6v-73.6H218.3v73.6Z" class="g9_137"/>
<path d="M255.4,1079.6H444.5" class="ga_137"/>
<path d="M227,442.1c0,0,-8.7,0,-8.7,8.6v60.7c0,0,0,8.6,8.7,8.6h77.9c0,0,8.7,0,8.7,-8.6V450.7c0,0,0,-8.6,-8.7,-8.6Z" class="g9_137"/>
<image clip-path="url(#c4_137)" preserveAspectRatio="none" x="217" y="440" width="98" height="82" xlink:href="img/5.jpg"/>
<path d="M227,533.7c0,0,-8.7,0,-8.7,8.7V603c0,0,0,8.7,8.7,8.7h77.9c0,0,8.7,0,8.7,-8.7V542.4c0,0,0,-8.7,-8.7,-8.7Z" class="g9_137"/>
<path d="M227,350.4c0,0,-8.7,0,-8.7,8.6v60.7c0,0,0,8.6,8.7,8.6h77.9c0,0,8.7,0,8.7,-8.6V359c0,0,0,-8.6,-8.7,-8.6Z" class="g9_137"/>
<image clip-path="url(#c5_137)" preserveAspectRatio="none" x="217" y="349" width="98" height="81" xlink:href="img/6.jpg"/>
<image clip-path="url(#c6_137)" preserveAspectRatio="none" x="232" y="537" width="67" height="72" xlink:href="img/7.jpg"/>
<path d="M32.1,45.1H9.2m958.3,0h22.9M32.1,1331.3H9.2m958.3,0h22.9M45.1,32.1V9.2m0,1335.1v22.9M954.5,32.1V9.2m0,1335.1v22.9" class="gb_137"/>
<path d="M32.1,45.1H9.2m958.3,0h22.9M32.1,1331.3H9.2m958.3,0h22.9M45.1,32.1V9.2m0,1335.1v22.9M954.5,32.1V9.2m0,1335.1v22.9" class="gc_137"/>
<path d="M27.5,32.1H0m972.1,0h27.5M27.5,1344.3H0m972.1,0h27.5M32.1,27.5V0m0,1348.9v27.5M967.5,27.5V0m0,1348.9v27.5" class="gb_137"/>
<path d="M27.5,32.1H0m972.1,0h27.5M27.5,1344.3H0m972.1,0h27.5M32.1,27.5V0m0,1348.9v27.5M967.5,27.5V0m0,1348.9v27.5" class="gc_137"/>
</svg>