<?xml version="1.0" encoding="UTF-8" standalone="no"?>
<!DOCTYPE svg PUBLIC "-//W3C//DTD SVG 1.1//EN"
"http://www.w3.org/Graphics/SVG/1.1/DTD/svg11.dtd">
<svg viewBox="0 0 999 1376" version="1.1" xmlns="http://www.w3.org/2000/svg" xmlns:xlink="http://www.w3.org/1999/xlink">
<defs>
<clipPath id="c0_208"><path d="M32.1,1344.3V32.1H967.5V1344.3Z"/></clipPath>
<clipPath id="c1_208"><path d="M207.4,483.9V387.8h95.4v96.1Z"/></clipPath>
<clipPath id="c2_208"><path d="M209,600V504.5h95.6V600Z"/></clipPath>
<clipPath id="c3_208"><path d="M176.6,291.4l-6.5,-2.1L153.7,275.4V218.3h72v73.1Z"/></clipPath>
<clipPath id="c4_208"><path d="M176.6,715.9l-6.5,-2.2L153.7,699.8V642.7h72v73.2Z"/></clipPath>
<style type="text/css"><![CDATA[
.g0_208{
fill: #FEFCF4;
}
.g1_208{
fill: #FFF;
}
.g2_208{
fill: none;
stroke: #6381B7;
stroke-width: 0.763;
}
.g3_208{
fill: #6381B7;
}
.g4_208{
fill: none;
stroke: #6381B7;
stroke-width: 0.381;
stroke-dasharray: 2,1;
}
.g5_208{
fill: none;
stroke: #6381B7;
stroke-width: 0.381;
}
.g6_208{
fill: #FCE8B0;
}
.g7_208{
fill: #E3E7F2;
}
.g8_208{
fill: none;
stroke: #231F20;
stroke-width: 0.458;
stroke-miterlimit: 10;
}
.g9_208{
fill: #F16865;
}
.ga_208{
fill: #FAC3B8;
}
.gb_208{
fill: #EE314A;
}
.gc_208{
fill: #26292E;
}
.gd_208{
fill: #C5CACC;
}
.ge_208{
fill: #F1EBEB;
}
.gf_208{
fill: #F7943B;
}
.gg_208{
fill: #ACB5B9;
}
.gh_208{
fill: #CFD3D5;
}
.gi_208{
fill: none;
stroke: #FFF;
stroke-width: 1.909;
stroke-miterlimit: 10;
}
.gj_208{
fill: none;
stroke: #000;
stroke-width: 0.381;
stroke-miterlimit: 10;
}
]]></style>
</defs>
<path d="M32.1,1344.3H954.5V32.1H32.1V1344.3Z" class="g0_208"/>
<path clip-path="url(#c0_208)" d="M954.5,1344.3H1877V32.1H954.5V1344.3Z" class="g0_208"/>
<path d="M145.1,307c0,0,-13,0,-13,13V597.3c0,0,0,13,13,13H832.3c0,0,13,0,13,-13V320c0,0,0,-13,-13,-13Z" class="g1_208"/>
<path d="M145.1,307c0,0,-13,0,-13,13V597.3c0,0,0,13,13,13H832.3c0,0,13,0,13,-13V320c0,0,0,-13,-13,-13H145.1Z" class="g2_208"/>
<path d="M145.1,733.2c0,0,-13,0,-13,13v453.9c0,0,0,13,13,13H832.9c0,0,13,0,13,-13V746.2c0,0,0,-13,-13,-13Z" class="g1_208"/>
<path d="M145.1,733.2c0,0,-13,0,-13,13v453.9c0,0,0,13,13,13H832.9c0,0,13,0,13,-13V746.2c0,0,0,-13,-13,-13H145.1Z" class="g2_208"/>
<image clip-path="url(#c1_208)" preserveAspectRatio="none" x="207" y="388" width="97" height="96" xlink:href="img/1.jpg"/>
<image clip-path="url(#c2_208)" preserveAspectRatio="none" x="209" y="504" width="96" height="96" xlink:href="img/2.jpg"/>
<path d="M611,1234.9c0,0,-4.3,0,-4.3,4.4v10.8c0,0,0,4.3,4.3,4.3h30.4c0,0,4.3,0,4.3,-4.3v-10.8c0,0,0,-4.4,-4.3,-4.4Z" class="g3_208"/>
<path d="M597.9,1226.1v37.6m1.3,.9H845.1m1,-1.3v-37.6m-1.4,-.9H598.8" class="g4_208"/>
<path d="M597.9,1264v.6h.5m247.1,0h.6v-.6m0,-38.7v-.5h-.6m-247.1,0h-.5v.5" class="g5_208"/>
<path d="M209.2,246.5c0,0,-13,0,-13,12.9v21.7c0,0,0,13,13,13H830.8c0,0,13,0,13,-13V259.4c0,0,0,-12.9,-13,-12.9Z" class="g6_208"/>
<image clip-path="url(#c3_208)" preserveAspectRatio="none" x="152" y="217" width="75" height="76" xlink:href="img/3.png"/>
<path d="M204,286.7c0,0,-26.8,11.3,-51.1,-12.7c0,0,15.2,25.3,49.3,23.9c0,0,24.8,.4,20.3,-10.1c0,0,1.2,-4.4,-18.5,-1.1Z" class="g6_208"/>
<path d="M209.2,644.9c0,0,-13,0,-13,13v47.6c0,0,0,13,13,13H830.8c0,0,13,0,13,-13V657.9c0,0,0,-13,-13,-13Z" class="g6_208"/>
<image clip-path="url(#c4_208)" preserveAspectRatio="none" x="152" y="641" width="75" height="76" xlink:href="img/4.png"/>
<path d="M204,711.1c0,0,-26.8,11.3,-51.1,-12.7c0,0,15.2,25.3,49.3,23.9c0,0,24.8,.4,20.3,-10.1c0,0,1.2,-4.4,-18.5,-1.1Z" class="g6_208"/>
<path d="M201,872.6H807.3V811.9H201v60.7Z" class="g7_208"/>
<path d="M706.5,840.8h87.1" class="g8_208"/>
<path d="M201,1018.7H807.3V949.4H201v69.3Z" class="g7_208"/>
<path d="M317.5,978.3H424.7" class="g8_208"/>
<path d="M201,1157.7H807.3v-86.6H201v86.6Z" class="g7_208"/>
<path d="M632.7,1098.7H759.6" class="g8_208"/>
<path clip-path="url(#c0_208)" d="M1777.4,166.7c0,0,30.3,0,30.3,-30.3v-4.3c0,0,0,-30.3,-30.3,-30.3H173.9c0,0,-30.3,0,-30.3,30.3v4.3c0,0,0,30.3,30.3,30.3Z" class="g9_208"/>
<path d="M186.5,132.1c0,27.1,-22,49,-49.1,49c-27,0,-49,-21.9,-49,-49c0,-27.1,22,-49.1,49,-49.1c27.1,0,49.1,22,49.1,49.1Z" class="ga_208"/>
<path d="M178.1,104.6c15.2,22.5,9.2,53,-13.2,68.1c-22.5,15.2,-53,9.3,-68.1,-13.2Z" class="gb_208"/>
<path d="M96.8,159.5h81.3V104.7H96.8v54.8Z" class="gc_208"/>
<path d="M137.7,156.8h16.8V136.6H137.7v20.2Z" class="gd_208"/>
<path d="M143.1,156.8h33.7V102.6H143.1v54.2Z" class="gd_208"/>
<path d="M141.6,103v50c.5,-.3,1,-.4,1.5,-.4h33.7v-50H143.1c-.5,0,-1,.2,-1.5,.4Z" class="g1_208"/>
<path d="M137.7,109v47.8c0,0,2.5,-3.1,3.9,-3.8V103c-2.2,1.1,-3.9,4.3,-3.9,6Z" class="ge_208"/>
<path d="M143.5,112.3h29.1v-1.4H143.5v1.4Z" class="gd_208"/>
<path d="M143.5,115.5h29.1v-1.4H143.5v1.4Z" class="gd_208"/>
<path d="M143.5,118.8h29.1v-1.5H143.5v1.5Z" class="gd_208"/>
<path d="M143.5,122h29.1v-1.5H143.5V122Z" class="gd_208"/>
<path d="M143.5,125.2h29.1v-1.5H143.5v1.5Z" class="gd_208"/>
<path d="M143.5,128.4h29.1v-1.5H143.5v1.5Z" class="gd_208"/>
<path d="M143.5,131.6h29.1v-1.5H143.5v1.5Z" class="gd_208"/>
<path d="M143.5,134.8h29.1v-1.5H143.5v1.5Z" class="gd_208"/>
<path d="M143.5,138h29.1v-1.4H143.5V138Z" class="gd_208"/>
<path d="M143.5,141.2h29.1v-1.4H143.5v1.4Z" class="gd_208"/>
<path d="M143.5,144.4h29.1V143H143.5v1.4Z" class="gd_208"/>
<path d="M143.5,147.6h29.1v-1.4H143.5v1.4Z" class="gd_208"/>
<path d="M159.7,150.9l1,-.9l1,.9v-49h-2Z" class="gf_208"/>
<path d="M120.9,156.8h16.8V136.6H120.9v20.2Z" class="gg_208"/>
<path d="M98.6,156.8h33.6V102.6H98.6v54.2Z" class="gg_208"/>
<path d="M98.6,102.6v50h33.6c.6,0,1.1,.1,1.6,.4V103c-.5,-.2,-1,-.4,-1.6,-.4Z" class="g1_208"/>
<path d="M133.8,103v50c1.4,.7,3.9,3.8,3.9,3.8V109c0,-1.7,-1.7,-4.9,-3.9,-6Z" class="gh_208"/>
<path d="M109.7,112.3h14.5v-1.4H109.7v1.4Z" class="gd_208"/>
<path d="M102.8,118.8h29.1v-1.5H102.8v1.5Z" class="gd_208"/>
<path d="M102.8,122h29.1v-1.5H102.8V122Z" class="gd_208"/>
<path d="M102.8,125.2h29.1v-1.5H102.8v1.5Z" class="gd_208"/>
<path d="M102.8,128.4h29.1v-1.5H102.8v1.5Z" class="gd_208"/>
<path d="M102.8,131.6h29.1v-1.5H102.8v1.5Z" class="gd_208"/>
<path d="M102.8,134.8h29.1v-1.5H102.8v1.5Z" class="gd_208"/>
<path d="M102.8,138h29.1v-1.4H102.8V138Z" class="gd_208"/>
<path d="M102.8,141.2h29.1v-1.4H102.8v1.4Z" class="gd_208"/>
<path d="M102.8,144.4h29.1V143H102.8v1.4Z" class="gd_208"/>
<path d="M102.8,147.6h29.1v-1.4H102.8v1.4Z" class="gd_208"/>
<path d="M32.1,45.1H9.2m958.3,0h22.9M32.1,1331.3H9.2m958.3,0h22.9M45.1,32.1V9.2m0,1335.1v22.9M954.5,32.1V9.2m0,1335.1v22.9" class="gi_208"/>
<path d="M32.1,45.1H9.2m958.3,0h22.9M32.1,1331.3H9.2m958.3,0h22.9M45.1,32.1V9.2m0,1335.1v22.9M954.5,32.1V9.2m0,1335.1v22.9" class="gj_208"/>
<path d="M27.5,32.1H0m972.1,0h27.5M27.5,1344.3H0m972.1,0h27.5M32.1,27.5V0m0,1348.9v27.5M967.5,27.5V0m0,1348.9v27.5" class="gi_208"/>
<path d="M27.5,32.1H0m972.1,0h27.5M27.5,1344.3H0m972.1,0h27.5M32.1,27.5V0m0,1348.9v27.5M967.5,27.5V0m0,1348.9v27.5" class="gj_208"/>
</svg>