<?xml version="1.0" encoding="UTF-8" standalone="no"?>
<!DOCTYPE svg PUBLIC "-//W3C//DTD SVG 1.1//EN"
"http://www.w3.org/Graphics/SVG/1.1/DTD/svg11.dtd">
<svg viewBox="0 0 999 1376" version="1.1" xmlns="http://www.w3.org/2000/svg" xmlns:xlink="http://www.w3.org/1999/xlink">
<defs>
<clipPath id="c0_43"><path d="M32.1,1344.3V32.1H967.5V1344.3Z"/></clipPath>
<clipPath id="c1_43"><path d="M151.6,708.4V212.3H875.4V708.4Z"/></clipPath>
<clipPath id="c2_43"><path d="M203.3,781.8l-6.5,-2L182.7,768.6V707.7h62.7v74.1Z"/></clipPath>
<clipPath id="c3_43"><path d="M203.3,881.4l-6.5,-2L182.7,868.2V807.3h62.7v74.1Z"/></clipPath>
<style type="text/css"><![CDATA[
.g0_43{
fill: #FFFDEA;
}
.g1_43{
fill: #BCE4EA;
}
.g2_43{
fill: #BCBEC0;
}
.g3_43{
fill: #00AABD;
}
.g4_43{
fill: #FCE9F1;
}
.g5_43{
fill: #FFF;
}
.g6_43{
fill: none;
stroke: #6D6F71;
stroke-width: 0.305;
stroke-miterlimit: 10;
}
.g7_43{
fill: none;
stroke: #976EAF;
stroke-width: 3.819;
}
.g8_43{
fill: none;
stroke: #CDBCDB;
stroke-width: 3.819;
stroke-linecap: round;
stroke-linejoin: round;
stroke-dasharray: 0,14;
}
.g9_43{
fill: none;
stroke: #CDBCDB;
stroke-width: 3.819;
stroke-linecap: round;
stroke-linejoin: round;
stroke-dasharray: 0,12;
}
.ga_43{
fill: none;
stroke: #CDBCDB;
stroke-width: 3.819;
stroke-linecap: round;
stroke-linejoin: round;
}
.gb_43{
fill: #FCDCBA;
}
.gc_43{
fill: #B092C4;
}
.gd_43{
fill: none;
stroke: #976EAF;
stroke-width: 0.381;
stroke-dasharray: 2,1;
}
.ge_43{
fill: none;
stroke: #976EAF;
stroke-width: 0.381;
}
.gf_43{
fill: none;
stroke: #FFF;
stroke-width: 1.909;
stroke-miterlimit: 10;
}
.gg_43{
fill: none;
stroke: #000;
stroke-width: 0.381;
stroke-miterlimit: 10;
}
]]></style>
</defs>
<g clip-path="url(#c0_43)">
<path d="M-877.3,1344.3H967.5V32.1H-877.3V1344.3Z" class="g0_43"/>
<path d="M-877.3,179.3H967.5V32.1H-877.3V179.3Z" class="g1_43"/>
<path d="M967.5,177.2H-877.3v-5.4h736.6c43.1,0,53.1,-37.9,115.3,-37.9H967.5Z" class="g2_43"/>
<path d="M967.5,183.7H-877.3v-9.8h736.6c43.1,0,53.1,-33.6,115.3,-33.6H967.5Z" class="g3_43"/>
</g>
<image clip-path="url(#c1_43)" preserveAspectRatio="none" x="151" y="213" width="724" height="496" xlink:href="img/1.png"/>
<path d="M172.6,215.9c0,0,-17.3,0,-17.3,17.3v448c0,0,0,17.3,17.3,17.3H848.7c0,0,17.3,0,17.3,-17.3v-448c0,0,0,-17.3,-17.3,-17.3Z" class="g4_43"/>
<path d="M193.7,393.6H319.3V311.3H193.7v82.3Z" class="g5_43"/>
<path d="M319.3,311.3H444.9v82.3H319.3V311.3Zm220.8,0H665.7v82.3H540.1V311.3Zm125.6,0H791.3v82.3H665.7V311.3Z" class="g5_43"/>
<path d="M193.5,311.3H319.3M193.7,393.4V311.5m125.6,-.2H445M319.3,393.4V311.5m125.6,81.9V311.5m95.1,-.2H665.7M540.1,393.4V311.5m125.6,-.2H791.5M665.7,393.4V311.5m125.6,81.9V311.5M193.5,393.6H319.3m0,0H445m95,0H665.7m0,0H791.5" class="g6_43"/>
<path d="M193.7,533.2H319.3V450.9H193.7v82.3Z" class="g5_43"/>
<path d="M319.3,450.9H444.9v82.3H319.3V450.9Zm220.8,0H665.7v82.3H540.1V450.9Zm125.6,0H791.3v82.3H665.7V450.9Z" class="g5_43"/>
<path d="M193.5,450.9H319.3M193.7,533.1v-82m125.6,-.2H445M319.3,533.1v-82m125.6,82v-82m95.1,-.2H665.7M540.1,533.1v-82m125.6,-.2H791.5M665.7,533.1v-82m125.6,82v-82M193.5,533.2H319.3m0,0H445m95,0H665.7m0,0H791.5" class="g6_43"/>
<path d="M193.7,672.9H319.3V590.6H193.7v82.3Z" class="g5_43"/>
<path d="M319.3,590.6H444.9v82.3H319.3V590.6Zm220.8,0H665.7v82.3H540.1V590.6Zm125.6,0H791.3v82.3H665.7V590.6Z" class="g5_43"/>
<path d="M193.5,590.6H319.3M193.7,672.7v-82m125.6,-.1H445M319.3,672.7v-82m125.6,82v-82m95.1,-.1H665.7M540.1,672.7v-82m125.6,-.1H791.5M665.7,672.7v-82m125.6,82v-82M193.5,672.9H319.3m0,0H445m95,0H665.7m0,0H791.5" class="g6_43"/>
<path d="M172.6,215.9c0,0,-17.3,0,-17.3,17.3v448c0,0,0,17.3,17.3,17.3H848.7c0,0,17.3,0,17.3,-17.3v-448c0,0,0,-17.3,-17.3,-17.3H172.6Z" class="g7_43"/>
<path d="M160,220.7c-1.5,1.5,-2.8,3.3,-3.7,5.8" class="g8_43"/>
<path d="M155.3,244.7V675.4" class="g9_43"/>
<path d="M160.1,693.7c1.4,1.5,3.3,2.9,5.7,3.7" class="g8_43"/>
<path d="M184,698.5H843" class="g9_43"/>
<path d="M861.2,693.6c1.5,-1.4,2.9,-3.3,3.7,-5.7" class="g8_43"/>
<path d="M866,669.7V238.9" class="g9_43"/>
<path d="M861.1,220.7c-1.4,-1.6,-3.3,-2.9,-5.7,-3.7" class="g8_43"/>
<path d="M837.2,215.9H178.3" class="g9_43"/>
<path d="M155.3,233.2v0m0,448v0m17.3,17.3v0m676.1,0v0M866,681.2v0m0,-448v0M848.7,215.9v0m-676.1,0v0" class="ga_43"/>
<path d="M235.9,736.8c0,0,-13,0,-13,13v21.7c0,0,0,13,13,13h619c0,0,13,0,13,-13V749.8c0,0,0,-13,-13,-13Z" class="gb_43"/>
<image clip-path="url(#c2_43)" preserveAspectRatio="none" x="183" y="707" width="62" height="76" xlink:href="img/2.png"/>
<path d="M230.7,777.1c0,0,-26.9,11.3,-51.1,-12.7c0,0,15.1,25.3,49.3,23.9c0,0,24.7,.4,20.2,-10.1c0,0,1.2,-4.5,-18.4,-1.1Z" class="gb_43"/>
<path d="M235.9,836.4c0,0,-13,0,-13,13v21.7c0,0,0,13,13,13h619c0,0,13,0,13,-13V849.4c0,0,0,-13,-13,-13Z" class="gb_43"/>
<image clip-path="url(#c3_43)" preserveAspectRatio="none" x="183" y="806" width="62" height="77" xlink:href="img/3.png"/>
<path d="M230.7,876.7c0,0,-26.9,11.3,-51.1,-12.7c0,0,15.1,25.3,49.3,23.9c0,0,24.7,.4,20.2,-10.1c0,0,1.2,-4.5,-18.4,-1.1Z" class="gb_43"/>
<path d="M495.9,1171.9c0,0,-4.4,0,-4.4,4.3V1187c0,0,0,4.4,4.4,4.4h30.3c0,0,4.3,0,4.3,-4.4v-10.8c0,0,0,-4.3,-4.3,-4.3Z" class="gc_43"/>
<path d="M482.7,1164.4v78.4m1.3,1H866.8m.9,-1.4V1164m-1.3,-1H483.6" class="gd_43"/>
<path d="M482.7,1243.2v.6h.5m384,0h.5v-.6m0,-79.6v-.6h-.5m-384,0h-.5v.6" class="ge_43"/>
<path d="M32.1,45.1H9.2m958.3,0h22.9M32.1,1331.3H9.2m958.3,0h22.9M45.1,32.1V9.2m0,1335.1v22.9M954.5,32.1V9.2m0,1335.1v22.9" class="gf_43"/>
<path d="M32.1,45.1H9.2m958.3,0h22.9M32.1,1331.3H9.2m958.3,0h22.9M45.1,32.1V9.2m0,1335.1v22.9M954.5,32.1V9.2m0,1335.1v22.9" class="gg_43"/>
<path d="M27.5,32.1H0m972.1,0h27.5M27.5,1344.3H0m972.1,0h27.5M32.1,27.5V0m0,1348.9v27.5M967.5,27.5V0m0,1348.9v27.5" class="gf_43"/>
<path d="M27.5,32.1H0m972.1,0h27.5M27.5,1344.3H0m972.1,0h27.5M32.1,27.5V0m0,1348.9v27.5M967.5,27.5V0m0,1348.9v27.5" class="gg_43"/>
</svg>