<?xml version="1.0" encoding="UTF-8" standalone="no"?>
<!DOCTYPE svg PUBLIC "-//W3C//DTD SVG 1.1//EN"
"http://www.w3.org/Graphics/SVG/1.1/DTD/svg11.dtd">
<svg viewBox="0 0 999 1376" version="1.1" xmlns="http://www.w3.org/2000/svg" xmlns:xlink="http://www.w3.org/1999/xlink">
<defs>
<clipPath id="c0_341"><path d="M32.1,1344.3V32.1H967.5V1344.3Z"/></clipPath>
<clipPath id="c1_341"><path d="M215,455V324.1H831.1V455Z"/></clipPath>
<clipPath id="c2_341"><path d="M215,576.3v-83H822.2v83Z"/></clipPath>
<clipPath id="c3_341"><path d="M215,719.3V614.8H831.1V719.3Z"/></clipPath>
<clipPath id="c4_341"><path d="M215,888.9V758H831.1V888.9Z"/></clipPath>
<style type="text/css"><![CDATA[
.g0_341{
fill: #FEFCF4;
}
.g1_341{
fill: #F16865;
}
.g2_341{
fill: #FEF9F9;
}
.g3_341{
fill: none;
stroke: #A164A9;
stroke-width: 1.527;
stroke-linecap: round;
stroke-linejoin: round;
stroke-dasharray: 0,5;
}
.g4_341{
fill: none;
stroke: #A164A9;
stroke-width: 1.527;
stroke-linecap: round;
stroke-linejoin: round;
}
.g5_341{
fill: #6381B7;
}
.g6_341{
fill: none;
stroke: #6381B7;
stroke-width: 0.381;
stroke-dasharray: 2,1;
}
.g7_341{
fill: none;
stroke: #6381B7;
stroke-width: 0.381;
}
.g8_341{
fill: #A164A9;
}
.g9_341{
fill: #FFF;
}
.ga_341{
fill: none;
stroke: #231F20;
stroke-width: 0.305;
stroke-miterlimit: 10;
}
.gb_341{
fill: none;
stroke: #8CC63E;
stroke-width: 1.527;
stroke-linecap: round;
stroke-linejoin: round;
stroke-dasharray: 0,5;
}
.gc_341{
fill: none;
stroke: #8CC63E;
stroke-width: 1.527;
stroke-linecap: round;
stroke-linejoin: round;
}
.gd_341{
fill: #8CC63E;
}
.ge_341{
fill: #6CCFF6;
}
.gf_341{
fill: none;
stroke: #231F20;
stroke-width: 1.375;
stroke-miterlimit: 10;
}
.gg_341{
fill: #485E75;
}
.gh_341{
fill: #EAD646;
}
.gi_341{
fill: none;
stroke: #231F20;
stroke-width: 1.527;
}
.gj_341{
fill: none;
stroke: #FFF;
stroke-width: 1.909;
stroke-miterlimit: 10;
}
.gk_341{
fill: none;
stroke: #000;
stroke-width: 0.381;
stroke-miterlimit: 10;
}
]]></style>
</defs>
<path clip-path="url(#c0_341)" d="M-877.3,1344.3H45.1V32.1H-877.3V1344.3Z" class="g0_341"/>
<path d="M45.1,1344.3H967.5V32.1H45.1V1344.3Z" class="g0_341"/>
<path clip-path="url(#c0_341)" d="M867.9,166.7c0,0,30.3,0,30.3,-30.3v-4.3c0,0,0,-30.3,-30.3,-30.3H-735.4c0,0,-30.4,0,-30.4,30.3v4.3c0,0,0,30.3,30.4,30.3Z" class="g1_341"/>
<path d="M154.1,959.7h713V251h-713V959.7Z" class="g2_341"/>
<path d="M154.1,255.5V957.4m4.6,2.3H864.9m2.2,-4.6V253.3M862.6,251H156.4" class="g3_341"/>
<path d="M154.1,959.7v0m713.1,0v0m0,-708.7v0m-713.1,0v0" class="g4_341"/>
<path d="M669.1,974.4c0,0,-4.4,0,-4.4,4.3v10.9c0,0,0,4.3,4.4,4.3h30.3c0,0,4.3,0,4.3,-4.3V978.7c0,0,0,-4.3,-4.3,-4.3Z" class="g5_341"/>
<path d="M655.9,966.9v34.9m1.3,.9H866.8m.9,-1.3V966.5m-1.3,-1H656.8" class="g6_341"/>
<path d="M655.9,1002.2v.5h.6m210.7,0h.5v-.5m0,-36.1v-.6h-.5m-210.7,0h-.6v.6" class="g7_341"/>
<image preserveAspectRatio="none" x="700" y="71" width="148" height="122" xlink:href="img/1.png"/>
<path d="M153.3,265.3V227c0,0,0,-8.7,8.7,-8.7H859.3c0,0,8.6,0,8.6,8.7v38.9Z" class="g8_341"/>
<image clip-path="url(#c1_341)" preserveAspectRatio="none" x="215" y="324" width="615" height="131" xlink:href="img/2.png"/>
<path d="M218.3,448.6H824.6V327.3H218.3V448.6Z" class="g9_341"/>
<path d="M387.6,357.1h70.8" class="ga_341"/>
<image clip-path="url(#c2_341)" preserveAspectRatio="none" x="215" y="493" width="607" height="84" xlink:href="img/3.png"/>
<path d="M218.3,570.1H815.9V496.5H218.3v73.6Z" class="g9_341"/>
<path d="M515.5,526.3h70.9" class="ga_341"/>
<image clip-path="url(#c3_341)" preserveAspectRatio="none" x="215" y="616" width="615" height="103" xlink:href="img/4.png"/>
<path d="M218.3,713.3H824.6V618.1H218.3v95.2Z" class="g9_341"/>
<path d="M311.6,647.9h69.6" class="ga_341"/>
<image clip-path="url(#c4_341)" preserveAspectRatio="none" x="215" y="758" width="615" height="131" xlink:href="img/5.png"/>
<path d="M218.3,882.9H824.6V761.3H218.3V882.9Z" class="g9_341"/>
<path d="M278.7,817h70.9" class="ga_341"/>
<path d="M154.1,1243.9h713v-175h-713v175Z" class="g9_341"/>
<path d="M154.1,1073.5v168.1m4.6,2.3H864.9m2.2,-4.6V1071.2m-4.5,-2.3H156.4" class="gb_341"/>
<path d="M154.1,1243.9v0m713.1,0v0m0,-175v0m-713.1,0v0" class="gc_341"/>
<path d="M153.3,1073.5v-28.6c0,0,0,-8.7,8.7,-8.7H859.3c0,0,8.6,0,8.6,8.7V1074Z" class="gd_341"/>
<path d="M187.2,1050v-6.4c0,-4.8,-3.9,-8.7,-8.7,-8.7c-4.8,0,-8.6,3.9,-8.6,8.7v6.4Z" class="ge_341"/>
<path d="M187.2,1050v-6.4c0,-4.8,-3.9,-8.7,-8.7,-8.7c-4.8,0,-8.6,3.9,-8.6,8.7v6.4h17.3Z" class="gf_341"/>
<path d="M169.9,1051.8v5.3c0,4.8,3.8,8.7,8.6,8.7c4.8,0,8.7,-3.9,8.7,-8.7v-5.3Z" class="ge_341"/>
<path d="M169.9,1051.8v5.3c0,4.8,3.8,8.7,8.6,8.7c4.8,0,8.7,-3.9,8.7,-8.7v-5.3H169.9Z" class="gf_341"/>
<path d="M178.4,1070.7c-7.1,0,-13,-6,-13,-13.3h2.4c0,6,4.8,10.8,10.6,10.8c5.8,0,10.6,-4.8,10.6,-10.8h2.4c0,7.3,-5.8,13.3,-13,13.3Z" class="gg_341"/>
<path d="M178.4,1070.7c-7.1,0,-13,-6,-13,-13.3h2.4c0,6,4.8,10.8,10.6,10.8c5.8,0,10.6,-4.8,10.6,-10.8h2.4c0,7.3,-5.8,13.3,-13,13.3Z" class="gf_341"/>
<path d="M177.5,1077.8h2.4v-8h-2.4v8Z" class="gg_341"/>
<path d="M177.5,1077.8h2.4v-8h-2.4v8Z" class="gf_341"/>
<path d="M178.6,1074.2c-3.6,0,-6.6,2.2,-6.7,4.9h13.4c-.1,-2.7,-3.1,-4.9,-6.7,-4.9Z" class="gg_341"/>
<path d="M178.6,1074.2c-3.6,0,-6.6,2.2,-6.7,4.9h13.4c-.1,-2.7,-3.1,-4.9,-6.7,-4.9Z" class="gf_341"/>
<path d="M201.3,1029.7c-6.5,0,-11.9,5.4,-11.9,11.9c0,2.7,.9,5.2,2.4,7.2l-1.5,5.3l5.5,-1.9c1.7,.9,3.5,1.4,5.5,1.4c6.6,0,12,-5.4,12,-12c0,-6.5,-5.4,-11.9,-12,-11.9Z" class="gh_341"/>
<path d="M201.3,1029.7c-6.5,0,-11.9,5.4,-11.9,11.9c0,2.7,.9,5.2,2.4,7.2l-1.5,5.3l5.5,-1.9c1.7,.9,3.5,1.4,5.5,1.4c6.6,0,12,-5.4,12,-12c0,-6.5,-5.4,-11.9,-12,-11.9Z" class="gf_341"/>
<path d="M196.9,1041.5c0,.7,-.7,1.3,-1.4,1.3c-.8,0,-1.4,-.6,-1.4,-1.3c0,-.8,.6,-1.4,1.4,-1.4c.7,0,1.4,.6,1.4,1.4Z" class="g9_341"/>
<path d="M196.9,1041.5c0,.7,-.7,1.3,-1.4,1.3c-.8,0,-1.4,-.6,-1.4,-1.3c0,-.8,.6,-1.4,1.4,-1.4c.7,0,1.4,.6,1.4,1.4Z" class="gf_341"/>
<path d="M203,1041.5c0,.8,-.6,1.4,-1.4,1.4c-.8,0,-1.4,-.6,-1.4,-1.4c0,-.8,.6,-1.4,1.4,-1.4c.8,0,1.4,.6,1.4,1.4Z" class="g9_341"/>
<path d="M203,1041.5c0,.8,-.6,1.4,-1.4,1.4c-.8,0,-1.4,-.6,-1.4,-1.4c0,-.8,.6,-1.4,1.4,-1.4c.8,0,1.4,.6,1.4,1.4Z" class="gf_341"/>
<path d="M209.1,1041.5c0,.8,-.6,1.4,-1.4,1.4c-.8,0,-1.4,-.6,-1.4,-1.4c0,-.8,.6,-1.4,1.4,-1.4c.8,0,1.4,.6,1.4,1.4Z" class="g9_341"/>
<path d="M209.1,1041.5c0,.8,-.6,1.4,-1.4,1.4c-.8,0,-1.4,-.6,-1.4,-1.4c0,-.8,.6,-1.4,1.4,-1.4c.8,0,1.4,.6,1.4,1.4Z" class="gf_341"/>
<path d="M785.7,1055.9c0,0,-.5,-9.9,8.6,-9.3c0,0,6.8,-.4,6.7,9.5m-15.3,-1.6v6.6c0,0,-3.4,.3,-4,-3c0,0,0,-3.8,4,-3.6Zm15.3,0v6.6c0,0,3.4,.3,3.9,-3c0,0,.1,-3.8,-3.9,-3.6Z" class="gi_341"/>
<path d="M32.1,45.1H9.2m958.3,0h22.9M32.1,1331.3H9.2m958.3,0h22.9M45.1,32.1V9.2m0,1335.1v22.9M954.5,32.1V9.2m0,1335.1v22.9" class="gj_341"/>
<path d="M32.1,45.1H9.2m958.3,0h22.9M32.1,1331.3H9.2m958.3,0h22.9M45.1,32.1V9.2m0,1335.1v22.9M954.5,32.1V9.2m0,1335.1v22.9" class="gk_341"/>
<path d="M27.5,32.1H0m972.1,0h27.5M27.5,1344.3H0m972.1,0h27.5M32.1,27.5V0m0,1348.9v27.5M967.5,27.5V0m0,1348.9v27.5" class="gj_341"/>
<path d="M27.5,32.1H0m972.1,0h27.5M27.5,1344.3H0m972.1,0h27.5M32.1,27.5V0m0,1348.9v27.5M967.5,27.5V0m0,1348.9v27.5" class="gk_341"/>
</svg>