<?xml version="1.0" encoding="UTF-8" standalone="no"?>
<!DOCTYPE svg PUBLIC "-//W3C//DTD SVG 1.1//EN"
"http://www.w3.org/Graphics/SVG/1.1/DTD/svg11.dtd">
<svg viewBox="0 0 999 1376" version="1.1" xmlns="http://www.w3.org/2000/svg" xmlns:xlink="http://www.w3.org/1999/xlink">
<defs>
<clipPath id="c0_292"><path d="M32.1,1344.3V32.1H967.5V1344.3Z"/></clipPath>
<clipPath id="c1_292"><path d="M179.3,291.4l-6.5,-2.1L156.4,275.4V218.3h72v73.1Z"/></clipPath>
<clipPath id="c2_292"><path d="M179.3,815.9l-6.5,-2.1L156.4,799.9V742.8h72v73.1Z"/></clipPath>
<style type="text/css"><![CDATA[
.g0_292{
fill: #FEFCF4;
}
.g1_292{
fill: #F16865;
}
.g2_292{
fill: #FAC3B8;
}
.g3_292{
fill: #EE314A;
}
.g4_292{
fill: #26292E;
}
.g5_292{
fill: #C5CACC;
}
.g6_292{
fill: #FFF;
}
.g7_292{
fill: #F1EBEB;
}
.g8_292{
fill: #F7943B;
}
.g9_292{
fill: #ACB5B9;
}
.ga_292{
fill: #CFD3D5;
}
.gb_292{
fill: #FCE8B0;
}
.gc_292{
fill: none;
stroke: #6381B7;
stroke-width: 0.763;
}
.gd_292{
fill: #6381B7;
}
.ge_292{
fill: none;
stroke: #6381B7;
stroke-width: 0.381;
stroke-dasharray: 2,1;
}
.gf_292{
fill: none;
stroke: #6381B7;
stroke-width: 0.381;
}
.gg_292{
fill: #DCE4F1;
}
.gh_292{
fill: none;
stroke: #25408F;
stroke-width: 1.145;
stroke-miterlimit: 10;
}
.gi_292{
fill: none;
stroke: #25408F;
stroke-width: 0.763;
stroke-miterlimit: 10;
}
.gj_292{
fill: #E3E7F2;
}
.gk_292{
fill: none;
stroke: #231F20;
stroke-width: 0.458;
stroke-miterlimit: 10;
}
.gl_292{
fill: none;
stroke: #FFF;
stroke-width: 1.909;
stroke-miterlimit: 10;
}
.gm_292{
fill: none;
stroke: #000;
stroke-width: 0.381;
stroke-miterlimit: 10;
}
]]></style>
</defs>
<path d="M32.1,1344.3H954.5V32.1H32.1V1344.3Z" class="g0_292"/>
<g clip-path="url(#c0_292)">
<path d="M954.5,1344.3H1877V32.1H954.5V1344.3Z" class="g0_292"/>
<path d="M1777.4,166.7c0,0,30.3,0,30.3,-30.3v-4.3c0,0,0,-30.3,-30.3,-30.3H173.9c0,0,-30.3,0,-30.3,30.3v4.3c0,0,0,30.3,30.3,30.3Z" class="g1_292"/>
</g>
<path d="M186.5,132.1c0,27.1,-22,49,-49.1,49c-27,0,-49,-21.9,-49,-49c0,-27.1,22,-49.1,49,-49.1c27.1,0,49.1,22,49.1,49.1Z" class="g2_292"/>
<path d="M178.1,104.6c15.2,22.5,9.2,53,-13.2,68.1c-22.5,15.2,-53,9.3,-68.1,-13.2Z" class="g3_292"/>
<path d="M96.8,159.5h81.3V104.7H96.8v54.8Z" class="g4_292"/>
<path d="M137.7,156.8h16.8V136.6H137.7v20.2Z" class="g5_292"/>
<path d="M143.1,156.8h33.7V102.6H143.1v54.2Z" class="g5_292"/>
<path d="M141.6,103v50c.5,-.3,1,-.4,1.5,-.4h33.7v-50H143.1c-.5,0,-1,.2,-1.5,.4Z" class="g6_292"/>
<path d="M137.7,109v47.8c0,0,2.5,-3.1,3.9,-3.8V103c-2.2,1.1,-3.9,4.3,-3.9,6Z" class="g7_292"/>
<path d="M143.5,112.3h29.1v-1.4H143.5v1.4Z" class="g5_292"/>
<path d="M143.5,115.5h29.1v-1.4H143.5v1.4Z" class="g5_292"/>
<path d="M143.5,118.8h29.1v-1.5H143.5v1.5Z" class="g5_292"/>
<path d="M143.5,122h29.1v-1.5H143.5V122Z" class="g5_292"/>
<path d="M143.5,125.2h29.1v-1.5H143.5v1.5Z" class="g5_292"/>
<path d="M143.5,128.4h29.1v-1.5H143.5v1.5Z" class="g5_292"/>
<path d="M143.5,131.6h29.1v-1.5H143.5v1.5Z" class="g5_292"/>
<path d="M143.5,134.8h29.1v-1.5H143.5v1.5Z" class="g5_292"/>
<path d="M143.5,138h29.1v-1.4H143.5V138Z" class="g5_292"/>
<path d="M143.5,141.2h29.1v-1.4H143.5v1.4Z" class="g5_292"/>
<path d="M143.5,144.4h29.1V143H143.5v1.4Z" class="g5_292"/>
<path d="M143.5,147.6h29.1v-1.4H143.5v1.4Z" class="g5_292"/>
<path d="M159.7,150.9l1,-.9l1,.9v-49h-2Z" class="g8_292"/>
<path d="M120.9,156.8h16.8V136.6H120.9v20.2Z" class="g9_292"/>
<path d="M98.6,156.8h33.6V102.6H98.6v54.2Z" class="g9_292"/>
<path d="M98.6,102.6v50h33.6c.6,0,1.1,.1,1.6,.4V103c-.5,-.2,-1,-.4,-1.6,-.4Z" class="g6_292"/>
<path d="M133.8,103v50c1.4,.7,3.9,3.8,3.9,3.8V109c0,-1.7,-1.7,-4.9,-3.9,-6Z" class="ga_292"/>
<path d="M109.7,112.3h14.5v-1.4H109.7v1.4Z" class="g5_292"/>
<path d="M102.8,118.8h29.1v-1.5H102.8v1.5Z" class="g5_292"/>
<path d="M102.8,122h29.1v-1.5H102.8V122Z" class="g5_292"/>
<path d="M102.8,125.2h29.1v-1.5H102.8v1.5Z" class="g5_292"/>
<path d="M102.8,128.4h29.1v-1.5H102.8v1.5Z" class="g5_292"/>
<path d="M102.8,131.6h29.1v-1.5H102.8v1.5Z" class="g5_292"/>
<path d="M102.8,134.8h29.1v-1.5H102.8v1.5Z" class="g5_292"/>
<path d="M102.8,138h29.1v-1.4H102.8V138Z" class="g5_292"/>
<path d="M102.8,141.2h29.1v-1.4H102.8v1.4Z" class="g5_292"/>
<path d="M102.8,144.4h29.1V143H102.8v1.4Z" class="g5_292"/>
<path d="M102.8,147.6h29.1v-1.4H102.8v1.4Z" class="g5_292"/>
<path d="M211.9,220.5c0,0,-13,0,-13,13v47.6c0,0,0,13,13,13H833.5c0,0,13,0,13,-13V233.5c0,0,0,-13,-13,-13Z" class="gb_292"/>
<image clip-path="url(#c1_292)" preserveAspectRatio="none" x="155" y="217" width="75" height="76" xlink:href="img/1.png"/>
<path d="M206.7,286.7c0,0,-26.9,11.3,-51.1,-12.7c0,0,15.2,25.3,49.3,23.9c0,0,24.7,.4,20.2,-10.1c0,0,1.3,-4.4,-18.4,-1.1Z" class="gb_292"/>
<path d="M211.9,744.9c0,0,-13,0,-13,13v47.6c0,0,0,13,13,13H833.5c0,0,13,0,13,-13V757.9c0,0,0,-13,-13,-13Z" class="gb_292"/>
<image clip-path="url(#c2_292)" preserveAspectRatio="none" x="155" y="741" width="75" height="76" xlink:href="img/2.png"/>
<path d="M206.7,811.2c0,0,-26.9,11.3,-51.1,-12.8c0,0,15.2,25.3,49.3,24c0,0,24.7,.3,20.2,-10.1c0,0,1.3,-4.5,-18.4,-1.1Z" class="gb_292"/>
<path d="M145.1,829.3c0,0,-13,0,-13,13v389c0,0,0,13,13,13H832.6c0,0,12.9,0,12.9,-13v-389c0,0,0,-13,-12.9,-13Z" class="g6_292"/>
<path d="M145.1,829.3c0,0,-13,0,-13,13v389c0,0,0,13,13,13H832.6c0,0,12.9,0,12.9,-13v-389c0,0,0,-13,-12.9,-13H145.1Z" class="gc_292"/>
<path d="M145.1,307.8c0,0,-13,0,-13,13V705.6c0,0,0,13,13,13H832.9c0,0,13,0,13,-13V320.8c0,0,0,-13,-13,-13Z" class="g6_292"/>
<path d="M145.1,307.8c0,0,-13,0,-13,13V705.6c0,0,0,13,13,13H832.9c0,0,13,0,13,-13V320.8c0,0,0,-13,-13,-13H145.1Z" class="gc_292"/>
<path d="M616.6,1206.2c0,0,-4.3,0,-4.3,4.3v10.8c0,0,0,4.4,4.3,4.4h30.3c0,0,4.3,0,4.3,-4.4v-10.8c0,0,0,-4.3,-4.3,-4.3Z" class="gd_292"/>
<path d="M603.4,1197.3v37.6m1.3,.9H835.9m1,-1.3v-37.6m-1.4,-.9H604.4" class="ge_292"/>
<path d="M603.4,1235.3v.5h.6m232.3,0h.6v-.5m0,-38.7v-.6h-.6M604,1196h-.6v.6" class="gf_292"/>
<path d="M203.8,885.4c0,0,-4.3,0,-4.3,4.3v186.2c0,0,0,4.4,4.3,4.4H776.1c0,0,4.3,0,4.3,-4.4V889.7c0,0,0,-4.3,-4.3,-4.3Z" class="gg_292"/>
<path d="M238,922.7H428.5v26H238v-26Zm190.5,0H580v26H428.5v-26Zm151.5,0H741.9v26H580v-26Zm-342,26H428.5v33.2H238V948.7Zm190.5,0H580v33.2H428.5V948.7Zm151.5,0H741.9v33.2H580V948.7ZM238,981.9H428.5v26H238v-26Zm190.5,0H580v26H428.5v-26Zm151.5,0H741.9v26H580v-26Z" class="g6_292"/>
<path d="M428.5,948.1v-25m151.5,25v-25M238.3,948.7H428.5m0,0H580M428.5,981.3V949.2M580,948.7H741.5M580,981.3V949.2M238.3,981.9H428.5m0,0H580m-151.5,25.6v-25M580,981.9H741.5M580,1007.5v-25" class="gh_292"/>
<path d="M237.6,922.7H428.5M238,948.7V923.1m190.5,-.4H580m0,0H742.3m-.4,26V923.1M238,981.9V948.7m503.9,33.2V948.7M238,1007.5V981.9m503.9,25.6V981.9m-504.3,26H428.5m0,0H580m0,0H742.3" class="gi_292"/>
<path d="M201,427.5H807.3v-65H201v65Z" class="gj_292"/>
<path d="M232.2,389.9h84.2" class="gk_292"/>
<path d="M201,531.2H807.3v-65H201v65Z" class="gj_292"/>
<path d="M263.3,493.5h84.2" class="gk_292"/>
<path d="M201,678.2H807.3V565.6H201V678.2Z" class="gj_292"/>
<path d="M240.7,617.6h79.8" class="gk_292"/>
<path d="M32.1,45.1H9.2m958.3,0h22.9M32.1,1331.3H9.2m958.3,0h22.9M45.1,32.1V9.2m0,1335.1v22.9M954.5,32.1V9.2m0,1335.1v22.9" class="gl_292"/>
<path d="M32.1,45.1H9.2m958.3,0h22.9M32.1,1331.3H9.2m958.3,0h22.9M45.1,32.1V9.2m0,1335.1v22.9M954.5,32.1V9.2m0,1335.1v22.9" class="gm_292"/>
<path d="M27.5,32.1H0m972.1,0h27.5M27.5,1344.3H0m972.1,0h27.5M32.1,27.5V0m0,1348.9v27.5M967.5,27.5V0m0,1348.9v27.5" class="gl_292"/>
<path d="M27.5,32.1H0m972.1,0h27.5M27.5,1344.3H0m972.1,0h27.5M32.1,27.5V0m0,1348.9v27.5M967.5,27.5V0m0,1348.9v27.5" class="gm_292"/>
</svg>