<?xml version="1.0" encoding="UTF-8" standalone="no"?>
<!DOCTYPE svg PUBLIC "-//W3C//DTD SVG 1.1//EN"
"http://www.w3.org/Graphics/SVG/1.1/DTD/svg11.dtd">
<svg viewBox="0 0 999 1376" version="1.1" xmlns="http://www.w3.org/2000/svg" xmlns:xlink="http://www.w3.org/1999/xlink">
<defs>
<clipPath id="c0_321"><path d="M198.6,241.6l-6.5,-2.1L175.7,225.6V168.5h72v73.1Z"/></clipPath>
<clipPath id="c1_321"><path d="M199.2,1003.5l-6.5,-2.1L176.3,987.5V930.4h72v73.1Z"/></clipPath>
<clipPath id="c2_321"><path d="M786.5,132.5V120.1H801v12.4Z"/></clipPath>
<clipPath id="c3_321"><path d="M86.5,659.5V370.8H298.2V659.5Z"/></clipPath>
<clipPath id="c4_321"><path d="M96.2,655.3V377H290.3V655.3Z"/></clipPath>
<clipPath id="c5_321"><path d="M95.9,655V376.7H290V655Z"/></clipPath>
<clipPath id="c6_321"><path d="M180.4,399.9c-.3,-.1,3.6,-8.3,3.6,-8.3l.7,.6c0,0,-4,7.7,-4.3,7.7Z"/></clipPath>
<clipPath id="c7_321"><path d="M187.9,392.1c0,0,-6.8,-1.1,-7.6,-5.2c-.6,-3.6,1.5,-3.8,2.1,-3.8q.1,0,.1,0l8.3,-12.8l-1.4,-3c0,0,-.6,-1.1,.1,-2.1c.1,-.1,.2,-.1,.3,-.1c2.1,0,13,5.5,13,5.5v.2c-.3,.5,-.7,1.1,-1.4,1.6c-.6,.5,-5,1.2,-5,1.2l-8.5,18.5Z"/></clipPath>
<clipPath id="c8_321"><path d="M187.5,391.8c.2,-.5,.2,-1.8,0,-2.3v-1.4c-1.5,-.5,-2.9,-1.2,-3.6,-2.5c-1.1,.6,-2.2,1.2,-3.2,1.9c1.6,2.1,3.8,3.6,6.8,4.3Zm0,-3.9c2.2,-4.6,4,-9.5,6.2,-14.1c-.9,-.4,-1.9,-1.3,-2.7,-1.4c-2.3,4.4,-4.6,8.7,-7,12.8c.7,1.4,2.1,2.1,3.5,2.7ZM180.2,400c1.1,-2.9,2.4,-5.5,3.5,-8.3c-2,-1.6,-3.9,-3.2,-4.4,-6.2V384c0,-2.7,2,-3.4,4.6,-3.4q.1,0,.2,0c1.9,-3.3,4.2,-6.3,6.2,-9.7c-.6,-.8,-1.2,-2.3,-.9,-3.6c.5,1.2,1.6,1.9,2.4,2.9c-.1,.6,-.3,1.1,-.4,1.7c.6,.7,1.3,1.2,2.4,1.4c.4,-.4,.5,-1.2,1.1,-1.5c1,.4,1.9,.8,3.2,.8c.1,.1,.4,.1,.8,.1c.3,0,.7,0,.8,-.1c.1,0,.2,0,.3,0c.2,0,.4,-.1,.6,-.1c.2,-.1,.4,-.2,.5,-.2c.1,0,.2,.1,.3,.1c-1.3,.7,-2.1,1.8,-4.1,1.8c-.1,0,-.3,0,-.4,0c-.8,3.7,-1.8,7.4,-2.6,11.2c.5,1,1.5,1.7,1.2,3.1c-.4,2.7,-3.8,4.4,-7.2,4.4c-1.2,0,-2.5,-.2,-3.6,-.7c-1,2.1,-2,4.1,-3.2,6c-.1,-.4,.2,-.4,.2,-.8c1,-1.8,2,-3.5,2.7,-5.6c-1.1,1.7,-1.9,3.7,-2.8,5.5c-.2,.4,-.4,.8,-.6,1.3c-.3,.4,-.3,1.1,-.8,1.4Z"/></clipPath>
<clipPath id="c9_321"><path d="M197.9,372.2c-4.8,0,-13,-7.3,-5.5,-8.8h1.3c.1,0,.4,0,.7,0c0,0,.1,0,.2,0c.2,0,.5,0,.8,.1c3.1,.7,8.2,3.8,7.6,7c-.3,1.2,-1.6,1.6,-3.2,1.7h-1.7q-.1,0,-.2,0Z"/></clipPath>
<clipPath id="ca_321"><path d="M698.2,798.9V466.2H949V798.9Z"/></clipPath>
<clipPath id="cb_321"><path d="M698.3,798.5V465.8H949.7V798.5Z"/></clipPath>
<clipPath id="cc_321"><path d="M698,798.2V465.5H949.4V798.2Z"/></clipPath>
<clipPath id="cd_321"><path d="M830.9,486.9c-.3,-.1,3.5,-8.2,3.5,-8.2l.8,.5c0,0,-4,7.7,-4.3,7.7Z"/></clipPath>
<clipPath id="ce_321"><path d="M838.4,479.2c0,0,-6.9,-1.1,-7.6,-5.2c-.7,-3.6,1.5,-3.9,2.1,-3.9q.1,0,.1,0l8.3,-12.7l-1.4,-3.1c0,0,-.6,-1.1,.1,-2.1c0,0,.2,-.1,.3,-.1c2.1,0,12.9,5.6,12.9,5.6l.1,.1c-.3,.6,-.7,1.2,-1.4,1.7c-.6,.5,-5.1,1.1,-5.1,1.1l-8.4,18.6Z"/></clipPath>
<clipPath id="cf_321"><path d="M838,478.8c.2,-.4,.2,-1.8,0,-2.2v-1.4c-1.6,-.5,-2.9,-1.2,-3.7,-2.5c-1.1,.6,-2.1,1.2,-3.1,1.9c1.5,2.1,3.8,3.5,6.8,4.2Zm0,-3.9c2.2,-4.5,4,-9.5,6.1,-14c-.9,-.4,-1.8,-1.4,-2.6,-1.4c-2.3,4.3,-4.6,8.6,-7.1,12.8c.8,1.3,2.2,2,3.6,2.6ZM830.7,487c1,-2.9,2.4,-5.5,3.5,-8.3c-2,-1.5,-3.9,-3.1,-4.4,-6.2V471c0,-2.7,1.9,-3.4,4.6,-3.4q.1,0,.2,0c1.9,-3.3,4.2,-6.3,6.1,-9.6c-.5,-.9,-1.1,-2.4,-.8,-3.7c.5,1.3,1.6,1.9,2.3,2.9c-.1,.6,-.2,1.2,-.3,1.8c.6,.6,1.3,1.2,2.3,1.4c.5,-.5,.6,-1.3,1.2,-1.6c.9,.4,1.8,.8,3.1,.8c.2,.1,.5,.2,.8,.2c.4,0,.7,-.1,.9,-.2c.1,0,.2,0,.3,0c.2,0,.4,0,.6,-.1c.2,-.1,.3,-.1,.5,-.1c.1,0,.2,0,.3,.1c-1.3,.6,-2.2,1.7,-4.1,1.7c-.2,0,-.3,0,-.4,0c-.9,3.8,-1.9,7.4,-2.6,11.2c.5,1.1,1.5,1.7,1.2,3.2c-.4,2.7,-3.8,4.4,-7.2,4.4c-1.3,0,-2.5,-.3,-3.6,-.8c-1,2.1,-2.1,4.1,-3.3,6c0,-.3,.3,-.3,.3,-.7c.9,-1.8,1.9,-3.6,2.6,-5.7c-1,1.7,-1.8,3.7,-2.7,5.6c-.2,.4,-.5,.8,-.7,1.2c-.3,.4,-.3,1.1,-.7,1.4Z"/></clipPath>
<clipPath id="cg_321"><path d="M848.4,459.2c-4.8,0,-13.1,-7.3,-5.5,-8.8h1.2c.2,.1,.3,.1,.5,.1q.1,0,.2,0q.1,0,.2,0c.2,0,.5,0,.9,.1c3.1,.6,8.2,3.8,7.5,7c-.2,1.1,-1.5,1.6,-3.1,1.6h-1.8c0,0,-.1,0,-.1,0Z"/></clipPath>
<style type="text/css"><![CDATA[
.g0_321{
fill: #FEFCF4;
}
.g1_321{
fill: #FFF;
}
.g2_321{
fill: none;
stroke: #6381B7;
stroke-width: 0.763;
}
.g3_321{
fill: #6381B7;
}
.g4_321{
fill: none;
stroke: #6381B7;
stroke-width: 0.381;
stroke-dasharray: 2,1;
}
.g5_321{
fill: none;
stroke: #6381B7;
stroke-width: 0.381;
}
.g6_321{
fill: #FCE8B0;
}
.g7_321{
fill: #25408F;
}
.g8_321{
fill: #A8AAAD;
}
.g9_321{
fill: none;
stroke: #949698;
stroke-width: 0.549;
}
.ga_321{
fill: none;
stroke: #BCBEC0;
stroke-width: 2.566;
}
.gb_321{
fill: #231F20;
}
.gc_321{
fill: #363637;
}
.gd_321{
fill: #5CC4BE;
}
.ge_321{
fill: #EAD646;
}
.gf_321{
fill: none;
stroke: #949698;
stroke-width: 0.305;
stroke-dasharray: 4,4;
}
.gg_321{
fill: none;
stroke: #949698;
stroke-width: 0.305;
}
.gh_321{
fill: #F7C2D9;
}
.gi_321{
fill: #FEF6F5;
}
.gj_321{
fill: #EC008C;
}
.gk_321{
fill: none;
stroke: #949698;
stroke-width: 0.305;
stroke-dasharray: 3,3;
}
.gl_321{
fill: #818385;
}
.gm_321{
fill: #6D6F71;
}
.gn_321{
fill: none;
stroke: #FFF;
stroke-width: 1.909;
stroke-miterlimit: 10;
}
.go_321{
fill: none;
stroke: #000;
stroke-width: 0.381;
stroke-miterlimit: 10;
}
]]></style>
</defs>
<path d="M45.1,1344.3H967.5V32.1H45.1V1344.3Z" class="g0_321"/>
<path d="M171.7,131.7c0,0,-18.4,0,-18.4,18.3V855.9c0,0,0,18.3,18.4,18.3H848.8c0,0,18.4,0,18.4,-18.3V131.7Z" class="g1_321"/>
<path d="M171.7,131.7c0,0,-18.4,0,-18.4,18.3V855.9c0,0,0,18.3,18.4,18.3H848.8c0,0,18.4,0,18.4,-18.3V131.7H171.7Z" class="g2_321"/>
<path d="M166.7,916.3c0,0,-13,0,-13,13v146.8c0,0,0,13,13,13H854.5c0,0,13,0,13,-13V929.3c0,0,0,-13,-13,-13Z" class="g1_321"/>
<path d="M166.7,916.3c0,0,-13,0,-13,13v146.8c0,0,0,13,13,13H854.5c0,0,13,0,13,-13V929.3c0,0,0,-13,-13,-13H166.7Z" class="g2_321"/>
<path d="M598.7,1113.9c0,0,-4.3,0,-4.3,4.3v10.9c0,0,0,4.3,4.3,4.3H629c0,0,4.4,0,4.4,-4.3v-10.9c0,0,0,-4.3,-4.4,-4.3Z" class="g3_321"/>
<path d="M585.5,1105.4v56.9m1.4,.9H866.8m.9,-1.3V1105m-1.3,-.9H586.5" class="g4_321"/>
<path d="M585.5,1162.7v.5h.6m281.1,0h.5v-.5m0,-58.1v-.5h-.5m-281.1,0h-.6v.5" class="g5_321"/>
<path d="M231.2,196.6c0,0,-12.9,0,-12.9,13v21.7c0,0,0,13,12.9,13H833.3c0,0,13,0,13,-13V209.6c0,0,0,-13,-13,-13Z" class="g6_321"/>
<image clip-path="url(#c0_321)" preserveAspectRatio="none" x="174" y="167" width="75" height="76" xlink:href="img/1.png"/>
<path d="M226,236.9c0,0,-26.8,11.3,-51.1,-12.7c0,0,15.2,25.3,49.3,23.9c0,0,24.8,.4,20.3,-10.1c0,0,1.2,-4.4,-18.5,-1.1Z" class="g6_321"/>
<path d="M231.8,932.5c0,0,-13,0,-13,13v47.7c0,0,0,13,13,13h602c0,0,13,0,13,-13V945.5c0,0,0,-13,-13,-13Z" class="g6_321"/>
<image clip-path="url(#c1_321)" preserveAspectRatio="none" x="175" y="929" width="75" height="76" xlink:href="img/2.png"/>
<path d="M226.6,998.8c0,0,-26.9,11.3,-51.1,-12.8c0,0,15.1,25.3,49.3,24c0,0,24.7,.3,20.2,-10.1c0,0,1.2,-4.5,-18.4,-1.1Z" class="g6_321"/>
<path d="M153.3,111.9v39L165,161.2V117Z" class="g7_321"/>
<path d="M153.3,111.9v39H851.1c0,0,16.8,0,16.8,-16.8v-5.3c0,0,0,-16.9,-16.8,-16.9Z" class="g3_321"/>
<path d="M802.6,145.6c8.2,0,14.9,-6.5,14.9,-14.5c0,-8.1,-6.7,-14.5,-14.9,-14.5c-8.2,0,-14.9,6.4,-14.9,14.5c0,8,6.7,14.5,14.9,14.5Z" class="g8_321"/>
<path d="M802.6,145.6c8.2,0,14.9,-6.5,14.9,-14.5c0,-8.1,-6.7,-14.5,-14.9,-14.5c-8.2,0,-14.9,6.4,-14.9,14.5c0,8,6.7,14.5,14.9,14.5Z" class="g9_321"/>
<path d="M802.6,136.4c3,0,5.5,-2.4,5.5,-5.3c0,-3,-2.5,-5.4,-5.5,-5.4c-3,0,-5.5,2.4,-5.5,5.4c0,2.9,2.5,5.3,5.5,5.3Z" class="g1_321"/>
<path d="M802.6,136.4c3,0,5.5,-2.4,5.5,-5.3c0,-3,-2.5,-5.4,-5.5,-5.4c-3,0,-5.5,2.4,-5.5,5.4c0,2.9,2.5,5.3,5.5,5.3Z" class="ga_321"/>
<g clip-path="url(#c2_321)" opacity="0.3">
<path d="M788,130.3c0,0,0,-4.8,3.7,-8.7l7.7,6.8c0,0,-1,.9,-1,2.6Z" class="g1_321"/>
</g>
<path d="M807.2,131c0,0,-3.5,0,-3.5,3.4v8.7c0,0,0,3.5,3.5,3.5h43.5c0,0,3.5,0,3.5,-3.5v-8.7c0,0,0,-3.4,-3.5,-3.4Z" class="gb_321"/>
<path d="M191.2,122c0,-8.3,-6.8,-15,-15.1,-15c-8.3,0,-15,6.7,-15,15c0,8.3,6.7,15.1,15,15.1c.8,0,1.7,-.1,2.4,-.2l4.5,5.2v-6.7c4.9,-2.5,8.2,-7.6,8.2,-13.4Z" class="g1_321"/>
<path d="M183.5,143.3l-5.1,-5.9c-.8,.1,-1.5,.1,-2.3,.1c-8.5,0,-15.5,-6.9,-15.5,-15.5c0,-8.5,7,-15.5,15.5,-15.5c8.6,0,15.5,7,15.5,15.5c0,5.7,-3.1,11,-8.1,13.7Zm-4.8,-6.9l3.9,4.5v-5.8l.2,-.1c4.9,-2.5,7.9,-7.5,7.9,-13c0,-8,-6.5,-14.6,-14.6,-14.6c-8,0,-14.6,6.6,-14.6,14.6c0,8.1,6.6,14.6,14.6,14.6c.8,0,1.6,-.1,2.4,-.2Z" class="gc_321"/>
<path d="M169.1,121.6c.8,0,1.4,.6,1.4,1.4c0,.8,-.6,1.5,-1.4,1.5c-.8,0,-1.4,-.7,-1.4,-1.5c0,-.8,.6,-1.4,1.4,-1.4Z" class="gd_321"/>
<path d="M169.1,124.9c-1,0,-1.9,-.8,-1.9,-1.9c0,-1,.9,-1.9,1.9,-1.9c1,0,1.9,.9,1.9,1.9c0,1.1,-.9,1.9,-1.9,1.9m0,-2.9c-.5,0,-1,.5,-1,1c0,.6,.5,1,1,1c.5,0,1,-.4,1,-1c0,-.5,-.5,-1,-1,-1Z" class="gc_321"/>
<path d="M176.1,121.6c.8,0,1.5,.6,1.5,1.4c0,.8,-.7,1.5,-1.5,1.5c-.8,0,-1.4,-.7,-1.4,-1.5c0,-.8,.6,-1.4,1.4,-1.4Z" class="gd_321"/>
<path d="M176.1,124.9c-1,0,-1.9,-.8,-1.9,-1.9c0,-1,.9,-1.9,1.9,-1.9c1.1,0,1.9,.9,1.9,1.9c0,1.1,-.8,1.9,-1.9,1.9m0,-2.9c-.5,0,-1,.5,-1,1c0,.6,.5,1,1,1c.6,0,1,-.4,1,-1c0,-.5,-.4,-1,-1,-1Z" class="gc_321"/>
<path d="M183.1,121.6c.8,0,1.5,.6,1.5,1.4c0,.8,-.7,1.5,-1.5,1.5c-.8,0,-1.4,-.7,-1.4,-1.5c0,-.8,.6,-1.4,1.4,-1.4Z" class="gd_321"/>
<path d="M183.1,124.9c-1,0,-1.9,-.8,-1.9,-1.9c0,-1,.9,-1.9,1.9,-1.9c1.1,0,1.9,.9,1.9,1.9c0,1.1,-.8,1.9,-1.9,1.9m0,-2.9c-.5,0,-1,.5,-1,1c0,.6,.5,1,1,1c.6,0,1,-.4,1,-1c0,-.5,-.4,-1,-1,-1Z" class="gc_321"/>
<path d="M185.1,136.3c0,-9.8,7.8,-17.7,17.6,-17.7c9.7,0,17.6,7.9,17.6,17.7c0,9.7,-7.9,17.6,-17.6,17.6c-1,0,-1.9,-.1,-2.9,-.3l-5.2,6.1v-7.8c-5.7,-2.9,-9.5,-8.8,-9.5,-15.6Z" class="ge_321"/>
<path d="M194.6,160.2q-.1,0,-.2,0c-.2,-.1,-.3,-.3,-.3,-.5v-7.5c-5.9,-3.2,-9.5,-9.2,-9.5,-15.9c0,-10,8.1,-18.1,18.1,-18.1c9.9,0,18,8.1,18,18.1c0,9.9,-8.1,18,-18,18c-.9,0,-1.8,0,-2.7,-.2l-5.1,5.9c-.1,.1,-.2,.2,-.3,.2m8.1,-41.1c-9.5,0,-17.2,7.7,-17.2,17.2c0,6.4,3.6,12.2,9.3,15.2c.1,.1,.2,.2,.2,.4v6.6l4.5,-5.2c.1,-.1,.3,-.1,.4,-.1c1,.1,1.9,.2,2.8,.2c9.4,0,17.1,-7.7,17.1,-17.1c0,-9.5,-7.7,-17.2,-17.1,-17.2Z" class="gc_321"/>
<path d="M210.9,135.8c.9,0,1.6,.7,1.6,1.6c0,1,-.7,1.7,-1.6,1.7c-1,0,-1.7,-.7,-1.7,-1.7c0,-.9,.7,-1.6,1.7,-1.6Z" class="g1_321"/>
<path d="M210.9,139.6c-1.2,0,-2.2,-1,-2.2,-2.2c0,-1.1,1,-2.1,2.2,-2.1c1.1,0,2.1,1,2.1,2.1c0,1.2,-1,2.2,-2.1,2.2m0,-3.4c-.7,0,-1.3,.6,-1.3,1.2c0,.7,.6,1.3,1.3,1.3c.6,0,1.2,-.6,1.2,-1.3c0,-.6,-.6,-1.2,-1.2,-1.2Z" class="gc_321"/>
<path d="M202.7,135.8c.9,0,1.6,.7,1.6,1.6c0,1,-.7,1.7,-1.6,1.7c-1,0,-1.7,-.7,-1.7,-1.7c0,-.9,.7,-1.6,1.7,-1.6Z" class="g1_321"/>
<path d="M202.7,139.6c-1.2,0,-2.2,-1,-2.2,-2.2c0,-1.1,1,-2.1,2.2,-2.1c1.1,0,2.1,1,2.1,2.1c0,1.2,-1,2.2,-2.1,2.2m0,-3.4c-.7,0,-1.3,.6,-1.3,1.2c0,.7,.6,1.3,1.3,1.3c.6,0,1.2,-.6,1.2,-1.3c0,-.6,-.6,-1.2,-1.2,-1.2Z" class="gc_321"/>
<path d="M194.5,135.8c.9,0,1.6,.7,1.6,1.6c0,1,-.7,1.7,-1.6,1.7c-1,0,-1.7,-.7,-1.7,-1.7c0,-.9,.7,-1.6,1.7,-1.6Z" class="g1_321"/>
<path d="M194.5,139.6c-1.2,0,-2.2,-1,-2.2,-2.2c0,-1.1,1,-2.1,2.2,-2.1c1.1,0,2.1,1,2.1,2.1c0,1.2,-1,2.2,-2.1,2.2m0,-3.4c-.7,0,-1.2,.6,-1.2,1.2c0,.7,.5,1.3,1.2,1.3c.6,0,1.2,-.6,1.2,-1.3c0,-.6,-.6,-1.2,-1.2,-1.2Z" class="gc_321"/>
<path d="M413.9,434.6c28.7,-.7,52,-7.3,56.4,-15.9m-.8,-7.2c-6.1,-8,-29.2,-14.1,-57.2,-14.6m-7.7,.1c-28.8,.6,-52,7.3,-56.5,15.8m.9,7.3c6.1,8,29.2,14.1,57.1,14.5" class="gf_321"/>
<path d="M470.9,417.3c.1,-.5,.2,-1,.2,-1.5c0,-.5,-.1,-1,-.2,-1.5M410.8,396.9c-.5,0,-1.1,0,-1.6,0c-.5,0,-1,0,-1.5,0m-60.1,17.4c-.2,.5,-.2,1,-.2,1.5c0,.5,0,1,.2,1.5m60.1,17.3c.5,0,1,0,1.5,0c.5,0,1.1,0,1.6,0" class="gg_321"/>
<image clip-path="url(#c3_321)" preserveAspectRatio="none" x="86" y="371" width="212" height="289" xlink:href="img/3.png"/>
<path d="M91.5,395.1l27.2,258.3L292.3,634.3L264.9,375.5Z" class="gh_321"/>
<image clip-path="url(#c4_321)" preserveAspectRatio="none" x="95" y="377" width="195" height="279" xlink:href="img/4.png"/>
<image clip-path="url(#c5_321)" preserveAspectRatio="none" x="95" y="377" width="195" height="278" xlink:href="img/5.png"/>
<path d="M100.7,388.9l9.5,259.9l140,-6.3l33.4,-29.7L275.1,381.4Z" class="gi_321"/>
<path d="M250.3,642.8l33.4,-29.7l-19.9,-4.9Z" class="gj_321"/>
<path d="M410.9,396C398.3,384.6,349.2,346.6,262.8,352.4" class="gf_321"/>
<path d="M255.4,353.3c-5.9,1.5,-2.1,4.6,1.5,5.8" class="gk_321"/>
<path d="M262.7,356.2c.7,-3.2,-1.6,-7.8,-12.4,-8.9m-7.8,-.4C224,346.5,179.6,349,130.6,388" class="gf_321"/>
<path d="M414.3,399.2c0,0,-.4,-.4,-1.1,-1.1m-152,-45.6c-.5,.1,-1,.1,-1.5,.2c-.5,0,-1,.1,-1.4,.1m0,6.6c.5,.1,1,.1,1.4,.1c.5,-.1,1,-.3,1.4,-.7M248.7,347.1c-.5,0,-1,0,-1.5,-.1c-.5,0,-1,0,-1.6,0M129.4,388.9c-.4,.4,-.8,.7,-1.2,1" class="gg_321"/>
<path d="M136.3,389l-7.2,-5l-2.8,11.8Z" class="gl_321"/>
<image clip-path="url(#c6_321)" x="180" y="391" width="5" height="9" xlink:href="shade/1.png"/>
<image clip-path="url(#c7_321)" x="179" y="365" width="24" height="28" xlink:href="shade/2.png"/>
<image clip-path="url(#c8_321)" x="179" y="367" width="23" height="33" xlink:href="shade/3.png"/>
<image clip-path="url(#c9_321)" x="184" y="363" width="20" height="10" xlink:href="shade/4.png"/>
<image clip-path="url(#ca_321)" preserveAspectRatio="none" x="697" y="467" width="252" height="333" xlink:href="img/6.png"/>
<path d="M702.9,476.8l8.6,316.1l230.9,-6.4V768.7L938.5,471.2Z" class="gh_321"/>
<image clip-path="url(#cb_321)" preserveAspectRatio="none" x="698" y="466" width="252" height="333" xlink:href="img/7.png"/>
<image clip-path="url(#cc_321)" preserveAspectRatio="none" x="697" y="466" width="252" height="333" xlink:href="img/8.png"/>
<path d="M709.5,470.3l-6.7,315.3L903.6,792l33.5,-25.6l6.3,-289.1Z" class="gi_321"/>
<path d="M904.5,792.7l33.6,-26.4l-17.5,-9.4Z" class="gj_321"/>
<image clip-path="url(#cd_321)" x="830" y="478" width="6" height="9" xlink:href="shade/5.png"/>
<image clip-path="url(#ce_321)" x="830" y="452" width="24" height="28" xlink:href="shade/6.png"/>
<image clip-path="url(#cf_321)" x="829" y="454" width="23" height="33" xlink:href="shade/7.png"/>
<image clip-path="url(#cg_321)" x="835" y="450" width="20" height="10" xlink:href="shade/8.png"/>
<path d="M590.5,600c15.9,-1,28.6,-6.8,31.4,-14.2m-.8,-7.6c-.7,-1.3,-1.7,-2.5,-3,-3.7m-6.6,-4.1c-6,-2.8,-13.9,-4.6,-22.6,-5m-7.8,.1c-15.9,1,-28.6,6.8,-31.4,14.2m.6,7.5c3.9,7,16.8,12.2,32.3,12.9" class="gf_321"/>
<path d="M622.3,584.3c.1,-.5,.1,-1,.1,-1.6c0,-.5,0,-1,-.1,-1.5m-5.5,-7.7c-.4,-.3,-.8,-.6,-1.3,-.9c-.4,-.3,-.8,-.5,-1.3,-.8m-26.9,-6.4c-.5,0,-1,0,-1.5,0c-.6,0,-1.1,0,-1.6,0m-34.9,15.8c-.1,.5,-.2,1,-.2,1.5c0,.6,.1,1.1,.2,1.6m34.9,15.8c.5,0,1,0,1.6,0c.5,0,1,0,1.5,0" class="gg_321"/>
<path d="M585.8,565.2c0,0,4.1,-63.9,117,-62.3" class="gf_321"/>
<path d="M702.8,498.6l.8,8.7l10.9,-5.4Z" class="gm_321"/>
<path d="M32.1,45.1H9.2m958.3,0h22.9M32.1,1331.3H9.2m958.3,0h22.9M45.1,32.1V9.2m0,1335.1v22.9M954.5,32.1V9.2m0,1335.1v22.9" class="gn_321"/>
<path d="M32.1,45.1H9.2m958.3,0h22.9M32.1,1331.3H9.2m958.3,0h22.9M45.1,32.1V9.2m0,1335.1v22.9M954.5,32.1V9.2m0,1335.1v22.9" class="go_321"/>
<path d="M27.5,32.1H0m972.1,0h27.5M27.5,1344.3H0m972.1,0h27.5M32.1,27.5V0m0,1348.9v27.5M967.5,27.5V0m0,1348.9v27.5" class="gn_321"/>
<path d="M27.5,32.1H0m972.1,0h27.5M27.5,1344.3H0m972.1,0h27.5M32.1,27.5V0m0,1348.9v27.5M967.5,27.5V0m0,1348.9v27.5" class="go_321"/>
</svg>