<?xml version="1.0" encoding="UTF-8" standalone="no"?>
<!DOCTYPE svg PUBLIC "-//W3C//DTD SVG 1.1//EN"
"http://www.w3.org/Graphics/SVG/1.1/DTD/svg11.dtd">
<svg viewBox="0 0 999 1376" version="1.1" xmlns="http://www.w3.org/2000/svg" xmlns:xlink="http://www.w3.org/1999/xlink">
<defs>
<clipPath id="c0_340"><path d="M32.1,1344.3V32.1H967.5V1344.3Z"/></clipPath>
<clipPath id="c1_340"><path d="M208.6,452.4V437.9h114v14.5Zm0,-28.7V410.9h114v12.8Zm0,-27V379.2h114v17.5Z"/></clipPath>
<clipPath id="c2_340"><path d="M208.6,410.9V396.7h114v14.2Z"/></clipPath>
<clipPath id="c3_340"><path d="M208.6,437.9V423.7h114v14.2Z"/></clipPath>
<clipPath id="c4_340"><path d="M208.6,582.9V466.3h114V582.9Z"/></clipPath>
<clipPath id="c5_340"><path d="M179.3,291.4l-6.5,-2.1L156.4,275.4V218.3h72v73.1Z"/></clipPath>
<clipPath id="c6_340"><path d="M179.3,696l-6.5,-2.2L156.4,679.9V622.8h72V696Z"/></clipPath>
<style type="text/css"><![CDATA[
.g0_340{
fill: #FEFCF4;
}
.g1_340{
fill: #F16865;
}
.g2_340{
fill: #FAC3B8;
}
.g3_340{
fill: #EE314A;
}
.g4_340{
fill: #26292E;
}
.g5_340{
fill: #C5CACC;
}
.g6_340{
fill: #FFF;
}
.g7_340{
fill: #F1EBEB;
}
.g8_340{
fill: #F7943B;
}
.g9_340{
fill: #ACB5B9;
}
.ga_340{
fill: #CFD3D5;
}
.gb_340{
fill: none;
stroke: #6381B7;
stroke-width: 0.763;
}
.gc_340{
fill: #6381B7;
}
.gd_340{
fill: none;
stroke: #6381B7;
stroke-width: 0.381;
stroke-dasharray: 2,1;
}
.ge_340{
fill: none;
stroke: #6381B7;
stroke-width: 0.381;
}
.gf_340{
fill: #FCE8B0;
}
.gg_340{
fill: #E3E7F2;
}
.gh_340{
fill: none;
stroke: #231F20;
stroke-width: 0.458;
stroke-miterlimit: 10;
}
.gi_340{
fill: none;
stroke: #FFF;
stroke-width: 1.909;
stroke-miterlimit: 10;
}
.gj_340{
fill: none;
stroke: #000;
stroke-width: 0.381;
stroke-miterlimit: 10;
}
]]></style>
</defs>
<path d="M32.1,1344.3H954.5V32.1H32.1V1344.3Z" class="g0_340"/>
<g clip-path="url(#c0_340)">
<path d="M954.5,1344.3H1877V32.1H954.5V1344.3Z" class="g0_340"/>
<path d="M1777.4,166.7c0,0,30.3,0,30.3,-30.3v-4.3c0,0,0,-30.3,-30.3,-30.3H173.9c0,0,-30.3,0,-30.3,30.3v4.3c0,0,0,30.3,30.3,30.3Z" class="g1_340"/>
</g>
<path d="M186.5,132.1c0,27.1,-22,49,-49.1,49c-27,0,-49,-21.9,-49,-49c0,-27.1,22,-49.1,49,-49.1c27.1,0,49.1,22,49.1,49.1Z" class="g2_340"/>
<path d="M178.1,104.6c15.2,22.5,9.2,53,-13.2,68.1c-22.5,15.2,-53,9.3,-68.1,-13.2Z" class="g3_340"/>
<path d="M96.8,159.5h81.3V104.7H96.8v54.8Z" class="g4_340"/>
<path d="M137.7,156.8h16.8V136.6H137.7v20.2Z" class="g5_340"/>
<path d="M143.1,156.8h33.7V102.6H143.1v54.2Z" class="g5_340"/>
<path d="M141.6,103v50c.5,-.3,1,-.4,1.5,-.4h33.7v-50H143.1c-.5,0,-1,.2,-1.5,.4Z" class="g6_340"/>
<path d="M137.7,109v47.8c0,0,2.5,-3.1,3.9,-3.8V103c-2.2,1.1,-3.9,4.3,-3.9,6Z" class="g7_340"/>
<path d="M143.5,112.3h29.1v-1.4H143.5v1.4Z" class="g5_340"/>
<path d="M143.5,115.5h29.1v-1.4H143.5v1.4Z" class="g5_340"/>
<path d="M143.5,118.8h29.1v-1.5H143.5v1.5Z" class="g5_340"/>
<path d="M143.5,122h29.1v-1.5H143.5V122Z" class="g5_340"/>
<path d="M143.5,125.2h29.1v-1.5H143.5v1.5Z" class="g5_340"/>
<path d="M143.5,128.4h29.1v-1.5H143.5v1.5Z" class="g5_340"/>
<path d="M143.5,131.6h29.1v-1.5H143.5v1.5Z" class="g5_340"/>
<path d="M143.5,134.8h29.1v-1.5H143.5v1.5Z" class="g5_340"/>
<path d="M143.5,138h29.1v-1.4H143.5V138Z" class="g5_340"/>
<path d="M143.5,141.2h29.1v-1.4H143.5v1.4Z" class="g5_340"/>
<path d="M143.5,144.4h29.1V143H143.5v1.4Z" class="g5_340"/>
<path d="M143.5,147.6h29.1v-1.4H143.5v1.4Z" class="g5_340"/>
<path d="M159.7,150.9l1,-.9l1,.9v-49h-2Z" class="g8_340"/>
<path d="M120.9,156.8h16.8V136.6H120.9v20.2Z" class="g9_340"/>
<path d="M98.6,156.8h33.6V102.6H98.6v54.2Z" class="g9_340"/>
<path d="M98.6,102.6v50h33.6c.6,0,1.1,.1,1.6,.4V103c-.5,-.2,-1,-.4,-1.6,-.4Z" class="g6_340"/>
<path d="M133.8,103v50c1.4,.7,3.9,3.8,3.9,3.8V109c0,-1.7,-1.7,-4.9,-3.9,-6Z" class="ga_340"/>
<path d="M109.7,112.3h14.5v-1.4H109.7v1.4Z" class="g5_340"/>
<path d="M102.8,118.8h29.1v-1.5H102.8v1.5Z" class="g5_340"/>
<path d="M102.8,122h29.1v-1.5H102.8V122Z" class="g5_340"/>
<path d="M102.8,125.2h29.1v-1.5H102.8v1.5Z" class="g5_340"/>
<path d="M102.8,128.4h29.1v-1.5H102.8v1.5Z" class="g5_340"/>
<path d="M102.8,131.6h29.1v-1.5H102.8v1.5Z" class="g5_340"/>
<path d="M102.8,134.8h29.1v-1.5H102.8v1.5Z" class="g5_340"/>
<path d="M102.8,138h29.1v-1.4H102.8V138Z" class="g5_340"/>
<path d="M102.8,141.2h29.1v-1.4H102.8v1.4Z" class="g5_340"/>
<path d="M102.8,144.4h29.1V143H102.8v1.4Z" class="g5_340"/>
<path d="M102.8,147.6h29.1v-1.4H102.8v1.4Z" class="g5_340"/>
<path d="M145.1,312.6c0,0,-13,0,-13,13V585.2c0,0,0,13,13,13H832.9c0,0,13,0,13,-13V325.6c0,0,0,-13,-13,-13Z" class="g6_340"/>
<path d="M145.1,312.6c0,0,-13,0,-13,13V585.2c0,0,0,13,13,13H832.9c0,0,13,0,13,-13V325.6c0,0,0,-13,-13,-13H145.1Z" class="gb_340"/>
<image clip-path="url(#c1_340)" preserveAspectRatio="none" x="208" y="379" width="115" height="74" xlink:href="img/1.jpg"/>
<image clip-path="url(#c2_340)" preserveAspectRatio="none" x="208" y="396" width="115" height="15" xlink:href="img/2.jpg"/>
<image clip-path="url(#c3_340)" preserveAspectRatio="none" x="208" y="424" width="115" height="14" xlink:href="img/3.jpg"/>
<image clip-path="url(#c4_340)" preserveAspectRatio="none" x="207" y="465" width="117" height="119" xlink:href="img/4.jpg"/>
<path d="M145.1,711.7c0,0,-13,0,-13,13v446c0,0,0,13,13,13H832.9c0,0,13,0,13,-13v-446c0,0,0,-13,-13,-13Z" class="g6_340"/>
<path d="M145.1,711.7c0,0,-13,0,-13,13v446c0,0,0,13,13,13H832.9c0,0,13,0,13,-13v-446c0,0,0,-13,-13,-13H145.1Z" class="gb_340"/>
<path d="M608.4,1203.1c0,0,-4.3,0,-4.3,4.3v10.8c0,0,0,4.4,4.3,4.4h30.4c0,0,4.3,0,4.3,-4.4v-10.8c0,0,0,-4.3,-4.3,-4.3Z" class="gc_340"/>
<path d="M595.3,1194.2v37.6m1.3,.9H845.1m1,-1.3v-37.5m-1.4,-1H596.2" class="gd_340"/>
<path d="M595.3,1232.2v.5h.5m249.7,0h.6v-.5m0,-38.7v-.6h-.6m-249.7,0h-.5v.6" class="ge_340"/>
<path d="M211.9,220.5c0,0,-13,0,-13,13v47.6c0,0,0,13,13,13H833.5c0,0,13,0,13,-13V233.5c0,0,0,-13,-13,-13Z" class="gf_340"/>
<image clip-path="url(#c5_340)" preserveAspectRatio="none" x="155" y="217" width="75" height="76" xlink:href="img/5.png"/>
<path d="M206.7,286.7c0,0,-26.9,11.3,-51.1,-12.7c0,0,15.2,25.3,49.3,23.9c0,0,24.7,.4,20.2,-10.1c0,0,1.3,-4.4,-18.4,-1.1Z" class="gf_340"/>
<path d="M211.9,651c0,0,-13,0,-13,13v21.6c0,0,0,13,13,13H833.5c0,0,13,0,13,-13V664c0,0,0,-13,-13,-13Z" class="gf_340"/>
<image clip-path="url(#c6_340)" preserveAspectRatio="none" x="155" y="621" width="75" height="77" xlink:href="img/6.png"/>
<path d="M206.7,691.2c0,0,-26.9,11.4,-51.1,-12.7c0,0,15.2,25.3,49.3,24c0,0,24.7,.3,20.2,-10.2c0,0,1.3,-4.4,-18.4,-1.1Z" class="gf_340"/>
<path d="M201,850.8H807.3V785.9H201v64.9Z" class="gg_340"/>
<path d="M276.6,813.2H400.7" class="gh_340"/>
<path d="M201,967.5H807.3v-65H201v65Z" class="gg_340"/>
<path d="M329.5,928.6H466.9" class="gh_340"/>
<path d="M201,1136.1H807.3V1019.2H201v116.9Z" class="gg_340"/>
<path d="M232.2,1072.5h79.5" class="gh_340"/>
<path d="M32.1,45.1H9.2m958.3,0h22.9M32.1,1331.3H9.2m958.3,0h22.9M45.1,32.1V9.2m0,1335.1v22.9M954.5,32.1V9.2m0,1335.1v22.9" class="gi_340"/>
<path d="M32.1,45.1H9.2m958.3,0h22.9M32.1,1331.3H9.2m958.3,0h22.9M45.1,32.1V9.2m0,1335.1v22.9M954.5,32.1V9.2m0,1335.1v22.9" class="gj_340"/>
<path d="M27.5,32.1H0m972.1,0h27.5M27.5,1344.3H0m972.1,0h27.5M32.1,27.5V0m0,1348.9v27.5M967.5,27.5V0m0,1348.9v27.5" class="gi_340"/>
<path d="M27.5,32.1H0m972.1,0h27.5M27.5,1344.3H0m972.1,0h27.5M32.1,27.5V0m0,1348.9v27.5M967.5,27.5V0m0,1348.9v27.5" class="gj_340"/>
</svg>