<?xml version="1.0" encoding="UTF-8" standalone="no"?>
<!DOCTYPE svg PUBLIC "-//W3C//DTD SVG 1.1//EN"
"http://www.w3.org/Graphics/SVG/1.1/DTD/svg11.dtd">
<svg viewBox="0 0 999 1376" version="1.1" xmlns="http://www.w3.org/2000/svg" xmlns:xlink="http://www.w3.org/1999/xlink">
<defs>
<clipPath id="c0_77"><path d="M32.1,1344.3V32.1H967.5V1344.3Z"/></clipPath>
<clipPath id="c1_77"><path d="M682.7,172.8V59H865.1V172.8Z"/></clipPath>
<clipPath id="c2_77"><path d="M215,683.9V605.3H831.1v78.6Z"/></clipPath>
<clipPath id="c3_77"><path d="M215,832.7V754.1H831.1v78.6Z"/></clipPath>
<clipPath id="c4_77"><path d="M323.3,413V352.7H369V413Z"/></clipPath>
<clipPath id="c5_77"><path d="M218.4,413.7V351.2h97v62.5Z"/></clipPath>
<style type="text/css"><![CDATA[
.g0_77{
fill: #FEFCF4;
}
.g1_77{
fill: #6381B7;
}
.g2_77{
fill: none;
stroke: #6381B7;
stroke-width: 0.381;
stroke-dasharray: 2,1;
}
.g3_77{
fill: none;
stroke: #6381B7;
stroke-width: 0.381;
}
.g4_77{
fill: #F16865;
}
.g5_77{
fill: #FEF8F8;
}
.g6_77{
fill: none;
stroke: #A164A9;
stroke-width: 1.527;
stroke-linecap: round;
stroke-linejoin: round;
stroke-dasharray: 0,5;
}
.g7_77{
fill: none;
stroke: #A164A9;
stroke-width: 1.527;
stroke-linecap: round;
stroke-linejoin: round;
}
.g8_77{
fill: #A164A9;
}
.g9_77{
fill: #FFF;
}
.ga_77{
fill: none;
stroke: #231F20;
stroke-width: 0.305;
stroke-miterlimit: 10;
}
.gb_77{
fill: #8C78B7;
}
.gc_77{
fill: #6B4042;
}
.gd_77{
fill: none;
stroke: #949698;
stroke-width: 0.152;
}
.ge_77{
fill: none;
stroke: #8CC63E;
stroke-width: 1.527;
stroke-linecap: round;
stroke-linejoin: round;
stroke-dasharray: 0,5;
}
.gf_77{
fill: none;
stroke: #8CC63E;
stroke-width: 1.527;
stroke-linecap: round;
stroke-linejoin: round;
}
.gg_77{
fill: #8CC63E;
}
.gh_77{
fill: #6CCFF6;
}
.gi_77{
fill: none;
stroke: #231F20;
stroke-width: 1.375;
stroke-miterlimit: 10;
}
.gj_77{
fill: #485E75;
}
.gk_77{
fill: #EAD646;
}
.gl_77{
fill: none;
stroke: #231F20;
stroke-width: 1.527;
}
.gm_77{
fill: #4B6B5A;
}
.gn_77{
fill: none;
stroke: #231F20;
stroke-width: 0.152;
}
.go_77{
fill: #EE1D23;
}
.gp_77{
fill: none;
stroke: #949698;
stroke-width: 0.221;
}
.gq_77{
fill: none;
stroke: #FFF;
stroke-width: 1.909;
stroke-miterlimit: 10;
}
.gr_77{
fill: none;
stroke: #000;
stroke-width: 0.381;
stroke-miterlimit: 10;
}
]]></style>
</defs>
<path d="M45.1,1344.3H967.5V32.1H45.1V1344.3Z" class="g0_77"/>
<path clip-path="url(#c0_77)" d="M-877.3,1344.3H45.1V32.1H-877.3V1344.3Z" class="g0_77"/>
<path d="M669.1,917.5c0,0,-4.4,0,-4.4,4.3v10.8c0,0,0,4.4,4.4,4.4h30.3c0,0,4.3,0,4.3,-4.4V921.8c0,0,0,-4.3,-4.3,-4.3Z" class="g1_77"/>
<path d="M655.9,908.4v38m1.3,1H866.8m.9,-1.4V908m-1.3,-.9H656.8" class="g2_77"/>
<path d="M655.9,946.8v.6h.6m210.7,0h.5v-.6m0,-39.1v-.6h-.5m-210.7,0h-.6v.6" class="g3_77"/>
<path clip-path="url(#c0_77)" d="M867.9,164.6c0,0,30.3,0,30.3,-30.4v-4.3c0,0,0,-30.3,-30.3,-30.3H-735.4c0,0,-30.4,0,-30.4,30.3v4.3c0,0,0,30.4,30.4,30.4Z" class="g4_77"/>
<image clip-path="url(#c1_77)" preserveAspectRatio="none" x="683" y="59" width="182" height="114" xlink:href="img/1.png"/>
<path d="M154.1,901.8h713V251h-713V901.8Z" class="g5_77"/>
<path d="M154.1,255.6V899.5m4.6,2.3H864.9m2.2,-4.6V253.3M862.6,251H156.4" class="g6_77"/>
<path d="M154.1,901.8v0m713.1,0v0m0,-650.8v0m-713.1,0v0" class="g7_77"/>
<path d="M153.3,265.3V227c0,0,0,-8.7,8.7,-8.7H859.3c0,0,8.6,0,8.6,8.7v38.9Z" class="g8_77"/>
<image clip-path="url(#c2_77)" preserveAspectRatio="none" x="215" y="606" width="615" height="78" xlink:href="img/2.png"/>
<path d="M218.3,677.8H824.6V608.5H218.3v69.3Z" class="g9_77"/>
<path d="M255.4,638.3H420.8" class="ga_77"/>
<image clip-path="url(#c3_77)" preserveAspectRatio="none" x="215" y="755" width="615" height="78" xlink:href="img/3.png"/>
<path d="M218.3,826.6H824.6V757.3H218.3v69.3Z" class="g9_77"/>
<path d="M255.4,813.1H420.8" class="ga_77"/>
<path d="M222.6,442.8c0,0,-4.3,0,-4.3,4.3v60.6c0,0,0,4.4,4.3,4.4h80.2c0,0,4.3,0,4.3,-4.4V447.1c0,0,0,-4.3,-4.3,-4.3Z" class="g9_77"/>
<path d="M237.4,492.9c0,1.5,.5,3.1,1.6,4.4c2.7,3.3,6.7,3.9,11.4,1.6L241.6,486c-2.1,1.5,-4.2,4.7,-4.2,6.9Z" class="gb_77"/>
<path d="M237,492.9c.2,3.1,1.8,5.5,4.5,6.9c2.9,1.6,6.3,.7,9.1,-.6c.2,-.1,.3,-.4,.2,-.5c-3,-4.3,-5.9,-8.6,-8.8,-12.9c-.1,-.2,-.4,-.3,-.6,-.1c-2.3,1.7,-4.2,4.3,-4.4,7.2c0,.5,.7,.5,.8,0c.1,-1.3,.6,-2.4,1.2,-3.6c.2,-.3,2.6,-2.7,2.3,-3.1c.3,.4,.6,.9,.9,1.3c1.5,2.2,3,4.4,4.5,6.6c1.1,1.6,2.2,3.2,3.3,4.8c.1,.2,-5.5,1,-6.3,.9c-3.3,-.5,-5.7,-3.7,-5.9,-6.9c-.1,-.5,-.8,-.5,-.8,0Z" class="gc_77"/>
<path d="M257.6,453.4h17.5v-5.2H257.6v5.2Z" class="gb_77"/>
<path d="M275.1,447.8H257.6c-.2,0,-.3,.2,-.3,.4v5.2c0,.2,.1,.3,.3,.3h17.5c.2,0,.4,-.1,.4,-.3v-5.2c0,-.5,-.8,-.5,-.8,0v4c0,1,-.2,.8,.4,.8H257.7c.5,0,.3,.5,.3,-.3v-3.3c0,-1.1,.2,-.8,-.3,-.8h17.4c.5,0,.5,-.8,0,-.8Z" class="gc_77"/>
<path d="M268,489.4c3.7,-2.5,7.1,-5.8,7.1,-9.9c-2.9,.3,-9,1.9,-7.1,9.9Z" class="gb_77"/>
<path d="M268.2,489.7c3.5,-2.5,7.1,-5.6,7.3,-10.2c0,-.2,-.2,-.4,-.4,-.4c-2.1,.2,-4.1,.9,-5.7,2.3c-2.3,2,-2.3,5.3,-1.8,8.1c.1,.4,.9,.2,.8,-.2c-.9,-4.1,.3,-7.6,4.5,-9c.5,-.1,1,-.3,1.6,-.4c.6,-.1,.2,.3,0,1.2c-.1,.7,-.4,1.4,-.8,2c-1.2,2.5,-3.6,4.4,-5.9,5.9c-.4,.3,0,1,.4,.7Z" class="gc_77"/>
<path d="M275.1,453.4H257.6v22.7q0,.1,-.1,.2c-.6,.4,-15.8,9.6,-15.8,9.6c0,.1,-.1,.1,-.1,.1l8.8,12.9l17.2,-9.3c.1,0,.3,-.1,.4,-.2c-1.9,-8,4.2,-9.6,7.1,-9.9c0,0,0,-.1,0,-.1Z" class="g9_77"/>
<path d="M275.1,453H257.6c-.2,0,-.3,.1,-.3,.4v22c0,1,-.3,.8,-1.2,1.4c-2,1.1,-3.9,2.3,-5.8,3.5c-2.9,1.7,-6.2,3.3,-8.9,5.4c-.1,.1,-.2,.3,-.1,.5c2.9,4.3,5.9,8.6,8.8,12.9c.1,.2,.3,.2,.5,.1c3,-1.4,5.8,-3.1,8.6,-4.6c3,-1.6,6.2,-3,9,-4.9c.2,-.1,.2,-.3,.2,-.4c-1.1,-5.3,1.5,-8.8,6.7,-9.4c.2,-.1,.4,-.2,.4,-.4c.6,-8.7,0,-17.5,0,-26.1c0,-.5,-.8,-.5,-.8,0v25.9c0,-.5,-2.9,.6,-3.6,.9c-1.6,.8,-2.7,2.1,-3.4,3.7c-.6,1.4,.4,5,-.7,5.6c-3.6,1.9,-7.2,3.9,-10.8,5.8c-1.7,.9,-3.3,1.8,-5,2.7c-.3,.2,-.6,.4,-.9,.5c.4,-.2,.5,.2,-.1,-.7c-2.5,-3.6,-5,-7.2,-7.5,-10.9c-.2,-.3,-.5,-.7,-.7,-1.1c.2,.4,-.4,.6,.4,.1c1.7,-1,3.4,-2,5.1,-3c2.6,-1.6,5.3,-3.2,7.9,-4.8c.5,-.4,2.6,-1.2,2.6,-2V454.3c0,-1.1,.1,-.6,-.3,-.6h17.4c.5,0,.5,-.7,0,-.7Z" class="gc_77"/>
<path d="M246.8,483.5c.8,.5,1.3,1.8,1.9,2.6c.7,1.2,1.6,2.3,2.4,3.5c1.5,2.2,2.8,4.6,4.4,6.7c.2,-.1,.4,-.3,.6,-.4q-.1,-.1,-.1,-.1c-.4,-.4,-.9,.2,-.6,.5q.1,.1,.1,.1c.3,.3,.9,-.1,.6,-.4c-1.7,-2.4,-3.1,-5.1,-4.8,-7.5c-.9,-1.3,-1.9,-2.7,-2.8,-4c-.4,-.6,-.7,-1.3,-1.4,-1.6c-.4,-.3,-.8,.4,-.3,.6Z" class="gc_77"/>
<path d="M251.7,479.9c3.1,4.5,4.7,10.1,8.5,14.1c.2,-.2,.4,-.4,.5,-.6l-.1,-.1c-.3,-.3,-.9,.2,-.5,.6c0,0,.1,0,.1,.1c.4,.3,.9,-.2,.5,-.6c-3.7,-3.8,-5.3,-9.5,-8.3,-13.8c-.3,-.5,-1,-.1,-.7,.3Z" class="gc_77"/>
<path d="M256.4,477.3c3.4,4.3,6.6,8.8,9.4,13.4c.2,-.2,.4,-.4,.6,-.5c0,0,0,-.1,-.1,-.1c-.3,-.4,-.9,.2,-.5,.5q0,.1,.1,.1c.3,.3,.8,0,.6,-.4c-2.9,-4.7,-6.1,-9.2,-9.5,-13.5c-.3,-.4,-.9,.2,-.6,.5Z" class="gc_77"/>
<path d="M257.6,474.1c1.1,.3,2.6,1.7,3.4,2.4c1,.8,1.9,1.5,2.8,2.4c1.4,1.3,2.7,2.9,4.2,4c.1,-.3,.1,-.5,.2,-.7h-.1c-.5,0,-.5,.7,0,.7h.1c.4,0,.5,-.5,.2,-.7c-1.8,-1.4,-3.2,-3.4,-5,-4.8c-1.7,-1.3,-3.4,-3.5,-5.6,-4.1c-.4,-.1,-.6,.7,-.2,.8Z" class="gc_77"/>
<path d="M257.9,471.3c5.3,2,10.9,3.2,16.4,4.5c.5,.1,.7,-.7,.3,-.8c-5.6,-1.2,-11.2,-2.5,-16.5,-4.4c-.5,-.2,-.7,.5,-.2,.7Z" class="gc_77"/>
<path d="M257.8,467.8c2.2,.6,4.9,.3,7.2,.4c3.3,.1,6.6,.2,9.9,.2v-.8h-.1c-.5,0,-.5,.8,0,.8h.1c.5,0,.5,-.8,0,-.8c-2.7,0,-5.4,-.2,-8.1,-.2c-2.8,0,-6.1,.4,-8.8,-.3c-.5,-.1,-.7,.6,-.2,.7Z" class="gc_77"/>
<path d="M257.8,462.6c1.7,.8,4.3,.3,6.2,.4c3.6,.2,7.3,.3,11,.3c.5,0,.5,-.8,0,-.8h-.2c-.5,0,-.5,.8,0,.8h.2v-.8c-2.9,0,-5.9,-.2,-8.8,-.1c-1.5,0,-2.9,-.2,-4.4,-.2c-1,0,-2.7,.2,-3.6,-.3c-.5,-.2,-.9,.4,-.4,.7Z" class="gc_77"/>
<path d="M257.5,457.4c5.8,.1,11.8,.4,17.6,0c.4,-.1,.5,-.5,.2,-.8c-.2,-.1,-.3,-.1,-.5,-.1c-.5,0,-.5,.7,0,.8c0,0,.1,0,.1,0c.1,-.2,.2,-.5,.2,-.7c-5.8,.4,-11.8,.1,-17.6,0c-.5,0,-.5,.8,0,.8Z" class="gc_77"/>
<path d="M256.5,500c.4,1.4,1.3,2.8,2.7,3.8c3.5,2.5,7.5,2.1,11.5,-1.5l-12,-10.1c-1.7,2,-2.8,5.6,-2.2,7.8Z" class="gb_77"/>
<path d="M256.1,500.1c1,2.8,3.1,4.6,5.9,5.4c3.3,1,6.5,-.9,9,-2.9c.1,-.1,.1,-.4,0,-.5c-4,-3.4,-8,-6.8,-12,-10.2c-.2,-.1,-.4,-.1,-.6,0c-1.7,2.3,-2.9,5.3,-2.3,8.2c.1,.5,.8,.3,.8,-.2c-.3,-1.2,-.2,-2.3,.1,-3.4c.1,-.4,1.8,-3.7,1.5,-4c.4,.4,.9,.8,1.3,1.2c2,1.6,3.9,3.3,5.9,4.9c1.5,1.3,3,2.6,4.5,3.9c.2,.1,-4.9,2.3,-5.8,2.5c-3.4,.4,-6.5,-2.1,-7.5,-5.1c-.2,-.5,-1,-.3,-.8,.2Z" class="gc_77"/>
<path d="M280.8,447.1L264,451.6l1.4,5L282.2,452Z" class="gb_77"/>
<path d="M280.7,446.7c-5.6,1.5,-11.2,3,-16.8,4.5c-.2,.1,-.3,.3,-.3,.5c.5,1.7,.9,3.3,1.4,5c.1,.2,.3,.3,.5,.2c5.6,-1.5,11.2,-3,16.8,-4.5c.2,-.1,.4,-.3,.3,-.5c-.5,-1.6,-.9,-3.3,-1.4,-4.9c-.1,-.5,-.9,-.3,-.7,.2c.2,.7,.4,1.4,.6,2.2c.1,.5,.3,1.1,.4,1.6c.3,1,.1,.8,.6,.7c-1.6,.4,-3.1,.8,-4.7,1.2c-4,1.1,-8.1,2.2,-12.1,3.3c.5,-.1,.5,.4,.3,-.4c-.2,-.5,-.3,-1,-.5,-1.5c-.1,-.6,-.3,-1.1,-.4,-1.7c-.3,-1,-.1,-.8,-.6,-.6c1.6,-.5,3.1,-.9,4.7,-1.3c4.1,-1.1,8.1,-2.2,12.1,-3.3c.5,-.1,.3,-.8,-.2,-.7Z" class="gc_77"/>
<path d="M285.1,488.6c2.8,-3.4,5.2,-7.4,4.2,-11.4c-2.7,1.1,-8.2,4.2,-4.2,11.4Z" class="gb_77"/>
<path d="M285.3,488.9c2.8,-3.4,5.3,-7.3,4.3,-11.8c0,-.2,-.3,-.3,-.4,-.3c-2,.8,-3.7,1.9,-4.9,3.6c-1.8,2.6,-.9,5.8,.4,8.4c.3,.4,.9,0,.7,-.4c-1.9,-3.7,-1.8,-7.3,1.9,-9.8c.4,-.2,.8,-.5,1.3,-.7c.9,-.4,.3,3,.2,3.4c-.5,2.6,-2.3,5,-4,7c-.3,.4,.2,.9,.5,.6Z" class="gc_77"/>
<path d="M282.2,452l-16.8,4.6l6.1,21.9c0,.1,0,.2,0,.2c-.5,.6,-12.7,13.4,-12.7,13.4c-.1,0,-.1,.1,-.1,.1l12,10.1l14,-13.3c.1,-.1,.3,-.3,.4,-.4c-4,-7.2,1.5,-10.3,4.2,-11.4h-.1Z" class="g9_77"/>
<path d="M282.1,451.7c-5.6,1.5,-11.2,3,-16.8,4.5c-.2,.1,-.4,.3,-.3,.5c2,7.1,4,14.2,5.9,21.2c.3,.9,0,.8,-.7,1.6c-1.6,1.7,-3.1,3.3,-4.7,5c-2.3,2.4,-5,4.8,-7.1,7.4c-.1,.2,-.1,.4,0,.6c4,3.4,8,6.7,12,10.1c.1,.1,.3,.2,.5,.1c2.5,-1.8,4.6,-4.4,6.9,-6.5c2.5,-2.4,5.3,-4.7,7.5,-7.3c.2,-.2,.2,-.3,.1,-.5c-2.4,-4.8,-.9,-8.8,4,-10.8c.2,-.1,.3,-.3,.2,-.5c-1.7,-8.5,-4.7,-16.8,-7,-25.2c-.1,-.5,-.9,-.3,-.7,.2c2,7.4,4.1,14.7,6.1,22.1c.3,1,.6,2,.9,3c-.2,-.6,-3.2,1.7,-3.8,2.2c-1.5,1.5,-1.9,3.6,-1.7,5.6c.2,2,1.7,3.1,.2,4.5c-3.3,3.1,-6.5,6.2,-9.8,9.4c-1.1,1,-2.2,2,-3.2,3c-.2,.2,.6,.4,0,-.1c-.7,-.6,-1.3,-1.1,-2,-1.7c-3.1,-2.7,-6.3,-5.3,-9.4,-8c-.4,-.3,-.3,.5,0,.1c.4,-.4,.8,-.8,1.2,-1.2c1.6,-1.7,3.2,-3.4,4.8,-5.1c1.8,-1.9,3.7,-3.9,5.5,-5.8c.6,-.6,1.3,-1.1,1.1,-2c-1.4,-4.9,-2.8,-9.8,-4.1,-14.7c-.6,-2.1,-1.2,-4.2,-1.8,-6.2c-.2,-1,-.3,-.3,-.2,-.3c.8,-.3,1.7,-.5,2.5,-.7c4.7,-1.3,9.4,-2.5,14.1,-3.8c.5,-.1,.3,-.9,-.2,-.7Z" class="gc_77"/>
<path d="M263,488.5c1,.3,1.8,1.3,2.5,2c1.1,.9,2.3,1.8,3.4,2.7c2,1.8,3.9,3.8,6,5.4c.1,-.2,.3,-.4,.4,-.6c0,0,-.1,-.1,-.1,-.1c-.5,-.2,-.8,.4,-.4,.7c0,0,.1,0,.1,.1c.4,.2,.9,-.4,.5,-.7c-1.1,-.8,-1.9,-1.9,-2.9,-2.8c-1.2,-1,-2.5,-2,-3.7,-3.1C267.5,491,266.2,490,265,488.9c-.6,-.4,-1.1,-.9,-1.8,-1.1c-.5,-.2,-.7,.6,-.2,.7Z" class="gc_77"/>
<path d="M266.9,483.8c4.4,3.2,7.1,8.4,11.9,11.3c.1,-.2,.2,-.5,.4,-.7q-.1,0,-.2,-.1c-.4,-.2,-.8,.5,-.4,.7c.1,0,.1,.1,.2,.1c.4,.2,.8,-.4,.4,-.7c-4.8,-2.8,-7.5,-8.1,-11.9,-11.3c-.4,-.3,-.8,.4,-.4,.7Z" class="gc_77"/>
<path d="M270.7,480c4.3,3.2,8.6,6.8,12.6,10.4c.2,-.2,.3,-.4,.5,-.6q-.1,0,-.2,-.1c-.4,-.2,-.8,.5,-.4,.7c.1,0,.1,.1,.2,.1c.4,.2,.8,-.3,.4,-.6c-4,-3.7,-8.3,-7.3,-12.7,-10.6c-.4,-.3,-.8,.4,-.4,.7Z" class="gc_77"/>
<path d="M271,476.6c2,0,5.2,1.9,6.9,2.8c1.8,1,3.6,2.2,5.4,2.9v-.7c0,0,-.1,0,-.1,0c-.5,.2,-.3,.9,.2,.8c0,0,.1,0,.1,-.1c.4,-.1,.4,-.6,0,-.7c-1.3,-.5,-2.3,-1.4,-3.6,-2.1c-1.3,-.6,-2.7,-1.2,-4,-1.9c-1.5,-.7,-3.3,-1.8,-4.9,-1.8c-.6,0,-.5,.8,0,.8Z" class="gc_77"/>
<path d="M270.4,473.8c5.7,.5,11.4,.3,17.1,.1c.5,-.1,.5,-.8,0,-.8c-5.7,.2,-11.4,.4,-17.1,-.1c-.5,0,-.5,.8,0,.8Z" class="gc_77"/>
<path d="M269.4,470.5c2.3,0,4.8,-1,7.1,-1.5c3.2,-.8,6.4,-1.6,9.6,-2.4c-.1,-.2,-.2,-.5,-.2,-.7q-.1,0,-.1,0c-.5,.1,-.3,.9,.2,.7h.1c.5,-.1,.3,-.9,-.2,-.7c-2.7,.6,-5.3,1.2,-8,1.9c-2.6,.7,-5.8,1.9,-8.5,1.9c-.5,.1,-.5,.8,0,.8Z" class="gc_77"/>
<path d="M268,465.4c2.1,.4,5,-.9,7.1,-1.4c3.3,-.6,6.5,-1.5,9.7,-2.4c.5,-.1,.3,-.8,-.2,-.7q-.1,0,-.2,0c-.5,.2,-.3,.9,.2,.8q.1,0,.2,-.1c-.1,-.2,-.1,-.5,-.2,-.7c-2.5,.7,-5.2,1.2,-7.7,1.9c-1.3,.4,-2.7,.6,-4.1,.9c-1.3,.3,-3.2,1.2,-4.6,1c-.5,-.1,-.7,.6,-.2,.7Z" class="gc_77"/>
<path d="M266.3,460.5c5.7,-1.4,11.5,-2.7,17,-4.6c.4,-.1,.4,-.6,0,-.7c-.2,-.1,-.3,-.1,-.5,-.1c-.5,.1,-.3,.9,.2,.8c0,0,.1,0,.1,0v-.7c-5.5,1.9,-11.3,3.1,-17,4.5c-.5,.1,-.3,.9,.2,.8Z" class="gc_77"/>
<path d="M319.1,413h54.1V351.2H319.1V413Z" class="g9_77"/>
<image clip-path="url(#c4_77)" preserveAspectRatio="none" x="323" y="353" width="46" height="62" xlink:href="img/4.png"/>
<path d="M319.1,413h54.1V351.2H319.1V413Z" class="gd_77"/>
<path d="M154.1,1243.9h713V1065.3h-713v178.6Z" class="g9_77"/>
<path d="M154.1,1069.9v171.7m4.6,2.3H864.9m2.2,-4.6V1067.6m-4.5,-2.3H156.4" class="ge_77"/>
<path d="M154.1,1243.9v0m713.1,0v0m0,-178.6v0m-713.1,0v0" class="gf_77"/>
<path d="M153.3,1069.9v-28.6c0,0,0,-8.7,8.7,-8.7H859.3c0,0,8.6,0,8.6,8.7v29.2Z" class="gg_77"/>
<path d="M187.2,1046.5V1040c0,-4.8,-3.9,-8.6,-8.7,-8.6c-4.8,0,-8.6,3.8,-8.6,8.6v6.5Z" class="gh_77"/>
<path d="M187.2,1046.5V1040c0,-4.8,-3.9,-8.6,-8.7,-8.6c-4.8,0,-8.6,3.8,-8.6,8.6v6.5h17.3Z" class="gi_77"/>
<path d="M169.9,1048.2v5.4c0,4.7,3.8,8.6,8.6,8.6c4.8,0,8.7,-3.9,8.7,-8.6v-5.4Z" class="gh_77"/>
<path d="M169.9,1048.2v5.4c0,4.7,3.8,8.6,8.6,8.6c4.8,0,8.7,-3.9,8.7,-8.6v-5.4H169.9Z" class="gi_77"/>
<path d="M178.4,1067.1c-7.1,0,-13,-5.9,-13,-13.2h2.4c0,5.9,4.8,10.8,10.6,10.8c5.8,0,10.6,-4.9,10.6,-10.8h2.4c0,7.3,-5.8,13.2,-13,13.2Z" class="gj_77"/>
<path d="M178.4,1067.1c-7.1,0,-13,-5.9,-13,-13.2h2.4c0,5.9,4.8,10.8,10.6,10.8c5.8,0,10.6,-4.9,10.6,-10.8h2.4c0,7.3,-5.8,13.2,-13,13.2Z" class="gi_77"/>
<path d="M177.5,1074.3h2.4v-8.1h-2.4v8.1Z" class="gj_77"/>
<path d="M177.5,1074.3h2.4v-8.1h-2.4v8.1Z" class="gi_77"/>
<path d="M178.6,1070.7c-3.6,0,-6.6,2.1,-6.7,4.8h13.4c-.1,-2.7,-3.1,-4.8,-6.7,-4.8Z" class="gj_77"/>
<path d="M178.6,1070.7c-3.6,0,-6.6,2.1,-6.7,4.8h13.4c-.1,-2.7,-3.1,-4.8,-6.7,-4.8Z" class="gi_77"/>
<path d="M201.3,1026.1c-6.5,0,-11.9,5.4,-11.9,12c0,2.7,.9,5.2,2.4,7.2l-1.5,5.3l5.5,-1.9c1.7,.8,3.5,1.3,5.5,1.3c6.6,0,12,-5.3,12,-11.9c0,-6.6,-5.4,-12,-12,-12Z" class="gk_77"/>
<path d="M201.3,1026.1c-6.5,0,-11.9,5.4,-11.9,12c0,2.7,.9,5.2,2.4,7.2l-1.5,5.3l5.5,-1.9c1.7,.8,3.5,1.3,5.5,1.3c6.6,0,12,-5.3,12,-11.9c0,-6.6,-5.4,-12,-12,-12Z" class="gi_77"/>
<path d="M196.9,1037.9c0,.8,-.7,1.4,-1.4,1.4c-.8,0,-1.4,-.6,-1.4,-1.4c0,-.8,.6,-1.4,1.4,-1.4c.7,0,1.4,.6,1.4,1.4Z" class="g9_77"/>
<path d="M196.9,1037.9c0,.8,-.7,1.4,-1.4,1.4c-.8,0,-1.4,-.6,-1.4,-1.4c0,-.8,.6,-1.4,1.4,-1.4c.7,0,1.4,.6,1.4,1.4Z" class="gi_77"/>
<path d="M203,1037.9c0,.8,-.6,1.4,-1.4,1.4c-.8,0,-1.4,-.6,-1.4,-1.4c0,-.8,.6,-1.4,1.4,-1.4c.8,0,1.4,.6,1.4,1.4Z" class="g9_77"/>
<path d="M203,1037.9c0,.8,-.6,1.4,-1.4,1.4c-.8,0,-1.4,-.6,-1.4,-1.4c0,-.8,.6,-1.4,1.4,-1.4c.8,0,1.4,.6,1.4,1.4Z" class="gi_77"/>
<path d="M209.1,1037.9c0,.8,-.6,1.4,-1.4,1.4c-.8,0,-1.4,-.6,-1.4,-1.4c0,-.8,.6,-1.4,1.4,-1.4c.8,0,1.4,.6,1.4,1.4Z" class="g9_77"/>
<path d="M209.1,1037.9c0,.8,-.6,1.4,-1.4,1.4c-.8,0,-1.4,-.6,-1.4,-1.4c0,-.8,.6,-1.4,1.4,-1.4c.8,0,1.4,.6,1.4,1.4Z" class="gi_77"/>
<path d="M785.7,1052.3c0,0,-.5,-9.9,8.6,-9.3c0,0,6.8,-.4,6.7,9.5M785.7,1051v6.5c0,0,-3.4,.3,-4,-3c0,0,0,-3.8,4,-3.5Zm15.3,0v6.5c0,0,3.4,.3,3.9,-3c0,0,.1,-3.8,-3.9,-3.5Z" class="gl_77"/>
<path d="M218.4,413.7h97V351.2h-97v62.5Z" class="g9_77"/>
<path d="M218.4,413.7h97V351.2h-97v62.5Z" class="gm_77"/>
<path clip-path="url(#c5_77)" d="M215,414.6H318.1V350.2H215v64.4Z" class="gn_77"/>
<path d="M266.6,358.7l2.4,.1l2.3,.3l2.3,.6l2.2,.8l2.1,1l1.9,1.2l1.8,1.3l1.7,1.6l1.5,1.7l1.4,1.8l1.2,1.9l1,2.2l.8,2.1l.6,2.3l.4,2.4l.1,2.4l-.1,2.4l-.4,2.4l-.6,2.3l-.8,2.2l-1,2l-1.2,2l-1.4,1.8l-1.5,1.7l-1.7,1.5l-1.8,1.4l-1.9,1.1l-2.1,1.1l-2.2,.7l-2.3,.6L269,406l-2.4,.2l-2.4,-.2l-2.4,-.4l-2.2,-.6l-2.2,-.7l-2.1,-1.1l-1.9,-1.1l-1.8,-1.4l-1.8,-1.5l-1.5,-1.7L247,395.7l-1.2,-2l-1,-2l-.8,-2.2l-.6,-2.3l-.4,-2.4l-.2,-2.4L243,380l.4,-2.4l.5,-2.3l.8,-2.1l1.1,-2.1l1.1,-2l1.4,-1.8l1.5,-1.7l1.8,-1.5l1.8,-1.4l1.9,-1.2l2.1,-1l2.2,-.8l2.2,-.5l2.4,-.4Z" class="go_77"/>
<path d="M218.4,413.7h97V351.2h-97v62.5Z" class="gp_77"/>
<path d="M32.1,45.1H9.2m958.3,0h22.9M32.1,1331.3H9.2m958.3,0h22.9M45.1,32.1V9.2m0,1335.1v22.9M954.5,32.1V9.2m0,1335.1v22.9" class="gq_77"/>
<path d="M32.1,45.1H9.2m958.3,0h22.9M32.1,1331.3H9.2m958.3,0h22.9M45.1,32.1V9.2m0,1335.1v22.9M954.5,32.1V9.2m0,1335.1v22.9" class="gr_77"/>
<path d="M27.5,32.1H0m972.1,0h27.5M27.5,1344.3H0m972.1,0h27.5M32.1,27.5V0m0,1348.9v27.5M967.5,27.5V0m0,1348.9v27.5" class="gq_77"/>
<path d="M27.5,32.1H0m972.1,0h27.5M27.5,1344.3H0m972.1,0h27.5M32.1,27.5V0m0,1348.9v27.5M967.5,27.5V0m0,1348.9v27.5" class="gr_77"/>
</svg>