<?xml version="1.0" encoding="UTF-8" standalone="no"?>
<!DOCTYPE svg PUBLIC "-//W3C//DTD SVG 1.1//EN"
"http://www.w3.org/Graphics/SVG/1.1/DTD/svg11.dtd">
<svg viewBox="0 0 999 1376" version="1.1" xmlns="http://www.w3.org/2000/svg" xmlns:xlink="http://www.w3.org/1999/xlink">
<defs>
<clipPath id="c0_247"><path d="M32.1,1344.3V32.1H967.5V1344.3Z"/></clipPath>
<clipPath id="c1_247"><path d="M686.2,1087.6V995.7h94.4v91.9Z"/></clipPath>
<clipPath id="c2_247"><path d="M533.9,1087.6V995.7h96.7v91.9Z"/></clipPath>
<clipPath id="c3_247"><path d="M382.9,1089.6v-92H483.4v92Z"/></clipPath>
<clipPath id="c4_247"><path d="M231.7,1089.6v-92H332.1v92Z"/></clipPath>
<clipPath id="c5_247"><path d="M194.9,470.3V335H335.1V470.3Z"/></clipPath>
<clipPath id="c6_247"><path d="M509,470.3V335H649.2V470.3Z"/></clipPath>
<clipPath id="c7_247"><path d="M352,470.3V335H492.2V470.3Z"/></clipPath>
<clipPath id="c8_247"><path d="M666.1,470.3V335H806.3V470.3Z"/></clipPath>
<clipPath id="c9_247"><path d="M194.9,664.9V529.6H335.1V664.9Z"/></clipPath>
<clipPath id="ca_247"><path d="M509,664.9V529.6H644.3V664.9Z"/></clipPath>
<clipPath id="cb_247"><path d="M352,664.9V529.6H487.3V664.9Z"/></clipPath>
<clipPath id="cc_247"><path d="M666.1,664.9V529.6H806.3V664.9Z"/></clipPath>
<clipPath id="cd_247"><path d="M200.7,920.2L194.2,918L177.8,904.1V847h72v73.2Z"/></clipPath>
<clipPath id="ce_247"><path d="M199.2,320.2L192.7,318L176.3,304.1V247h72v73.2Z"/></clipPath>
<clipPath id="cf_247"><path d="M658.6,177V59h200V177Z"/></clipPath>
<style type="text/css"><![CDATA[
.g0_247{
fill: #FEFCF4;
}
.g1_247{
fill: #FFF;
}
.g2_247{
fill: none;
stroke: #6381B7;
stroke-width: 0.763;
}
.g3_247{
fill: none;
stroke: #949698;
stroke-width: 0.458;
}
.g4_247{
fill: none;
stroke: #949698;
stroke-width: 1.268;
}
.g5_247{
fill: #48484A;
}
.g6_247{
fill: #F0E8F3;
}
.g7_247{
fill: #766FA6;
}
.g8_247{
fill: #6381B7;
}
.g9_247{
fill: none;
stroke: #6381B7;
stroke-width: 0.381;
stroke-dasharray: 2,1;
}
.ga_247{
fill: none;
stroke: #6381B7;
stroke-width: 0.381;
}
.gb_247{
fill: #FCE8B0;
}
.gc_247{
fill: none;
stroke: #231F20;
stroke-width: 1.527;
}
.gd_247{
fill: #2E6E51;
}
.ge_247{
fill: #BCBEC0;
}
.gf_247{
fill: #EE314A;
}
.gg_247{
fill: #25408F;
}
.gh_247{
fill: #00BAF1;
}
.gi_247{
fill: #332D2C;
}
.gj_247{
fill: #D9DFF0;
}
.gk_247{
fill: #F27C85;
}
.gl_247{
fill: #7DD3F6;
}
.gm_247{
fill: none;
stroke: #FFF;
stroke-width: 1.909;
stroke-miterlimit: 10;
}
.gn_247{
fill: none;
stroke: #000;
stroke-width: 0.381;
stroke-miterlimit: 10;
}
]]></style>
</defs>
<path clip-path="url(#c0_247)" d="M-877.3,1344.3H45.1V32.1H-877.3V1344.3Z" class="g0_247"/>
<path d="M45.1,1344.3H967.5V32.1H45.1V1344.3Z" class="g0_247"/>
<path d="M166.7,932.5c0,0,-13,0,-13,13v239.3c0,0,0,12.9,13,12.9H854.5c0,0,13,0,13,-12.9V945.5c0,0,0,-13,-13,-13Z" class="g1_247"/>
<path d="M166.7,932.5c0,0,-13,0,-13,13v239.3c0,0,0,12.9,13,12.9H854.5c0,0,13,0,13,-12.9V945.5c0,0,0,-13,-13,-13H166.7Z" class="g2_247"/>
<path d="M172.1,225.2c0,0,-18.4,0,-18.4,18.3V823.2c0,0,0,18.3,18.4,18.3H849.2c0,0,18.3,0,18.3,-18.3v-598Z" class="g1_247"/>
<path d="M172.1,225.2c0,0,-18.4,0,-18.4,18.3V823.2c0,0,0,18.3,18.4,18.3H849.2c0,0,18.3,0,18.3,-18.3v-598H172.1Z" class="g2_247"/>
<image clip-path="url(#c1_247)" preserveAspectRatio="none" x="685" y="994" width="96" height="94" xlink:href="img/1.jpg"/>
<path d="M686.1,1120.5H786.6v-30.7H686.1v30.7Z" class="g3_247"/>
<image clip-path="url(#c2_247)" preserveAspectRatio="none" x="534" y="996" width="97" height="93" xlink:href="img/2.jpg"/>
<path d="M533.9,1120.5H634.3v-30.7H533.9v30.7Z" class="g3_247"/>
<image clip-path="url(#c3_247)" preserveAspectRatio="none" x="383" y="996" width="101" height="94" xlink:href="img/3.jpg"/>
<path d="M382.9,1120.5H483.4v-30.7H382.9v30.7Z" class="g3_247"/>
<image clip-path="url(#c4_247)" preserveAspectRatio="none" x="232" y="998" width="101" height="92" xlink:href="img/4.jpg"/>
<path d="M231.7,1120.5H332.1v-30.7H231.7v30.7Z" class="g3_247"/>
<image clip-path="url(#c5_247)" preserveAspectRatio="none" x="195" y="335" width="141" height="136" xlink:href="img/5.jpg"/>
<path d="M194.9,470.3H335.1V335H194.9V470.3Z" class="g4_247"/>
<image clip-path="url(#c6_247)" preserveAspectRatio="none" x="507" y="334" width="143" height="137" xlink:href="img/6.jpg"/>
<path d="M509,470.3H649.2V335H509V470.3Z" class="g4_247"/>
<image clip-path="url(#c7_247)" preserveAspectRatio="none" x="352" y="335" width="141" height="136" xlink:href="img/7.jpg"/>
<path d="M352,470.3H492.2V335H352V470.3Z" class="g4_247"/>
<image clip-path="url(#c8_247)" preserveAspectRatio="none" x="664" y="334" width="143" height="137" xlink:href="img/8.jpg"/>
<path d="M666.1,470.3H806.3V335H666.1V470.3Z" class="g4_247"/>
<path d="M184.5,514.1H821.1v-39H184.5v39Z" class="g1_247"/>
<path d="M189.1,709.8H825.5V523.6H189.1V709.8Z" class="g1_247"/>
<image clip-path="url(#c9_247)" preserveAspectRatio="none" x="193" y="528" width="143" height="138" xlink:href="img/9.jpg"/>
<path d="M194.9,664.9H335.1V529.6H194.9V664.9Z" class="g4_247"/>
<image clip-path="url(#ca_247)" preserveAspectRatio="none" x="509" y="530" width="135" height="135" xlink:href="img/10.jpg"/>
<path d="M509,664.9H649.2V529.6H509V664.9Z" class="g4_247"/>
<image clip-path="url(#cb_247)" preserveAspectRatio="none" x="352" y="530" width="135" height="135" xlink:href="img/11.jpg"/>
<path d="M352,664.9H492.2V529.6H352V664.9Z" class="g4_247"/>
<image clip-path="url(#cc_247)" preserveAspectRatio="none" x="664" y="528" width="143" height="138" xlink:href="img/12.jpg"/>
<path d="M666.1,664.9H806.3V529.6H666.1V664.9Z" class="g4_247"/>
<path d="M184.5,707H821.1V668H184.5v39Z" class="g1_247"/>
<path d="M218.4,1138.6c0,0,-4.3,0,-4.3,4.3v14.8c0,0,0,4.3,4.1,5.7l52.5,18.6c0,0,4,1.4,4,-2.9v-36.2c0,0,0,-4.3,-4.3,-4.3Z" class="g5_247"/>
<path d="M239.6,1125.6c0,0,-13,0,-13,13v30.3c0,0,0,13,13,13H794.1c0,0,13,0,13,-13v-30.3c0,0,0,-13,-13,-13Z" class="g6_247"/>
<path d="M218.4,1136.4c0,0,-4.3,0,-4.3,4.3v17.4c0,0,0,4.3,4.3,4.3h37.3c0,0,4.4,0,4.4,-4.3v-17.4c0,0,0,-4.3,-4.4,-4.3Z" class="g7_247"/>
<path d="M487.9,1214.8c0,0,-4.3,0,-4.3,4.4V1230c0,0,0,4.3,4.3,4.3h30.3c0,0,4.4,0,4.4,-4.3v-10.8c0,0,0,-4.4,-4.4,-4.4Z" class="g8_247"/>
<path d="M474.8,1206v37.5m1.3,1H866.8m.9,-1.3v-37.6m-1.3,-1H475.7" class="g9_247"/>
<path d="M474.8,1243.9v.6h.5m391.9,0h.5v-.6m0,-38.7v-.6h-.5m-391.9,0h-.5v.6" class="ga_247"/>
<path d="M233.3,875.2c0,0,-13,0,-13,13v21.6c0,0,0,13,13,13H854.9c0,0,13,0,13,-13V888.2c0,0,0,-13,-13,-13Z" class="gb_247"/>
<image clip-path="url(#cd_247)" preserveAspectRatio="none" x="176" y="845" width="75" height="77" xlink:href="img/13.png"/>
<path d="M228.1,915.4c0,0,-26.8,11.3,-51.1,-12.7c0,0,15.2,25.3,49.3,24c0,0,24.8,.3,20.3,-10.2c0,0,1.2,-4.4,-18.5,-1.1Z" class="gb_247"/>
<path d="M231.8,249.2c0,0,-13,0,-13,13v47.6c0,0,0,13,13,13h602c0,0,13,0,13,-13V262.2c0,0,0,-13,-13,-13Z" class="gb_247"/>
<image clip-path="url(#ce_247)" preserveAspectRatio="none" x="175" y="245" width="75" height="77" xlink:href="img/14.png"/>
<path d="M226.6,315.4c0,0,-26.9,11.3,-51.1,-12.7c0,0,15.1,25.3,49.3,23.9c0,0,24.7,.4,20.2,-10.1c0,0,1.2,-4.4,-18.4,-1.1Z" class="gb_247"/>
<path d="M194.4,731.1c-.3,0,-.4,.1,-.6,.2c-.1,.2,-.2,.4,-.2,.6c0,.3,.1,.5,.2,.6c.2,.2,.3,.3,.6,.3c.2,0,.4,-.1,.5,-.3c.2,-.1,.3,-.3,.3,-.6c0,-.2,-.1,-.4,-.3,-.6c-.1,-.1,-.3,-.2,-.5,-.2Zm-.2,42.5c-.2,0,-.4,.1,-.6,.3c-.1,.1,-.2,.3,-.2,.5c0,.3,.1,.5,.2,.6c.2,.2,.4,.3,.6,.3c.2,0,.4,-.1,.5,-.3c.2,-.1,.2,-.3,.2,-.6c0,-.2,0,-.4,-.2,-.5c-.1,-.2,-.3,-.3,-.5,-.3Zm0,22c-.2,0,-.4,.1,-.6,.3c-.1,.1,-.2,.3,-.2,.6c0,.2,.1,.4,.2,.6c.2,.1,.4,.2,.6,.2c.2,0,.4,-.1,.5,-.2c.2,-.2,.2,-.4,.2,-.6c0,-.3,0,-.5,-.2,-.6c-.1,-.2,-.3,-.3,-.5,-.3Zm0,22.1c-.2,0,-.4,.1,-.6,.2c-.1,.2,-.2,.4,-.2,.6c0,.2,.1,.4,.2,.6c.2,.1,.4,.2,.6,.2c.2,0,.4,-.1,.5,-.2c.2,-.2,.2,-.4,.2,-.6c0,-.2,0,-.4,-.2,-.6c-.1,-.1,-.3,-.2,-.5,-.2Z" class="gc_247"/>
<path d="M32.1,179.3H967.5V32.1H32.1V179.3Z" class="gd_247"/>
<g clip-path="url(#c0_247)">
<path d="M967.5,177.2H-877.3v-5.4h736.6c43.1,0,53.1,-37.9,115.3,-37.9H967.5Z" class="ge_247"/>
<path d="M967.5,183.7H-877.3v-9.8h736.6c43.1,0,53.1,-33.6,115.3,-33.6H967.5Z" class="gf_247"/>
</g>
<image clip-path="url(#cf_247)" preserveAspectRatio="none" x="659" y="59" width="200" height="118" xlink:href="img/15.png"/>
<path d="M153.3,217.5v22.2L165,250V227.8Z" class="gg_247"/>
<path d="M153.3,200.7v39H851.1c0,0,16.8,0,16.8,-16.8v-5.4c0,0,0,-16.8,-16.8,-16.8Z" class="g8_247"/>
<path d="M211.3,212.1l-6.5,-6.4l-21.2,21.2l6.5,6.4Z" class="gh_247"/>
<path d="M190.1,233.9c.1,0,.3,-.1,.4,-.2l21.2,-21.2c.1,-.1,.1,-.2,.1,-.4c0,-.1,0,-.2,-.1,-.3l-6.5,-6.5c-.2,-.2,-.6,-.2,-.8,0l-21.2,21.2c-.1,.1,-.1,.2,-.1,.4c0,.1,0,.2,.1,.3l6.5,6.5c.1,.1,.3,.2,.4,.2m20.5,-21.8l-20.5,20.5l-5.8,-5.7l20.5,-20.5Z" class="gi_247"/>
<path d="M211.3,212.1l-6.5,-6.4l2.1,-2.2l6.5,6.5Z" class="gj_247"/>
<path d="M211.3,212.7c.1,0,.3,-.1,.4,-.2l2.1,-2.1c.1,-.1,.2,-.2,.2,-.4c0,-.1,-.1,-.3,-.2,-.4l-6.5,-6.4c-.2,-.3,-.5,-.3,-.7,0l-2.2,2.1c-.1,.1,-.1,.2,-.1,.4c0,.1,0,.2,.1,.3l6.5,6.5c.1,.1,.3,.2,.4,.2m1.4,-2.7l-1.4,1.4l-5.7,-5.7l1.3,-1.4Z" class="gi_247"/>
<path d="M217,206.4l-6.4,-6.5l-3.7,3.6l6.5,6.5Z" class="gk_247"/>
<path d="M213.4,210.5c.2,0,.3,0,.4,-.1l3.6,-3.6c.2,-.2,.2,-.6,0,-.8l-6.5,-6.5c-.2,-.2,-.5,-.2,-.7,0l-3.6,3.7c-.2,.2,-.2,.5,0,.7l6.5,6.5c.1,.1,.2,.1,.3,.1m2.9,-4.1l-2.9,2.9l-5.7,-5.8l2.9,-2.8Z" class="gi_247"/>
<path d="M179,238l4.6,-11.1l6.5,6.4Z" class="g1_247"/>
<path d="M179,238.5c0,0,.1,0,.2,0l11.1,-4.7c.2,0,.3,-.2,.3,-.4c0,-.1,0,-.3,-.1,-.4L184,226.5c-.1,-.1,-.3,-.2,-.5,-.1c-.2,0,-.3,.1,-.4,.3l-4.6,11.1c-.1,.2,0,.4,.1,.6c.1,.1,.2,.1,.4,.1m10.2,-5.3l-9.3,3.8l3.9,-9.2Z" class="gi_247"/>
<path d="M179,238l2.2,-5.4l3.1,3.1Z" class="gi_247"/>
<path d="M179,238.5c0,0,.1,0,.2,0l5.3,-2.3c.2,0,.3,-.2,.4,-.4c0,-.1,-.1,-.3,-.2,-.4l-3.1,-3.2c-.1,-.1,-.3,-.1,-.5,-.1c-.2,0,-.3,.2,-.4,.3l-2.2,5.4c-.1,.2,0,.4,.1,.6c.1,.1,.2,.1,.4,.1m4.4,-2.9l-3.5,1.4l1.5,-3.5Z" class="gi_247"/>
<path d="M209.5,210.4l-2.9,-3l-21.2,21.2l2.9,3Z" class="gl_247"/>
<path d="M188.3,232.1c.2,0,.3,0,.4,-.1l21.2,-21.2c.1,-.1,.2,-.3,.2,-.4c0,-.2,-.1,-.3,-.2,-.4l-3,-3c-.2,-.2,-.5,-.2,-.7,0L185,228.3c-.1,.1,-.2,.2,-.2,.3c0,.2,.1,.3,.2,.4l3,3c.1,.1,.2,.1,.3,.1m20.5,-21.7l-20.5,20.4l-2.2,-2.2l20.5,-20.4Z" class="gi_247"/>
<path d="M32.1,45.1H9.2m958.3,0h22.9M32.1,1331.3H9.2m958.3,0h22.9M45.1,32.1V9.2m0,1335.1v22.9M954.5,32.1V9.2m0,1335.1v22.9" class="gm_247"/>
<path d="M32.1,45.1H9.2m958.3,0h22.9M32.1,1331.3H9.2m958.3,0h22.9M45.1,32.1V9.2m0,1335.1v22.9M954.5,32.1V9.2m0,1335.1v22.9" class="gn_247"/>
<path d="M27.5,32.1H0m972.1,0h27.5M27.5,1344.3H0m972.1,0h27.5M32.1,27.5V0m0,1348.9v27.5M967.5,27.5V0m0,1348.9v27.5" class="gm_247"/>
<path d="M27.5,32.1H0m972.1,0h27.5M27.5,1344.3H0m972.1,0h27.5M32.1,27.5V0m0,1348.9v27.5M967.5,27.5V0m0,1348.9v27.5" class="gn_247"/>
</svg>