<?xml version="1.0" encoding="UTF-8" standalone="no"?>
<!DOCTYPE svg PUBLIC "-//W3C//DTD SVG 1.1//EN"
"http://www.w3.org/Graphics/SVG/1.1/DTD/svg11.dtd">
<svg viewBox="0 0 999 1376" version="1.1" xmlns="http://www.w3.org/2000/svg" xmlns:xlink="http://www.w3.org/1999/xlink">
<defs>
<clipPath id="c0_258"><path d="M32.1,1344.3V32.1H967.5V1344.3Z"/></clipPath>
<clipPath id="c1_258"><path d="M66.1,920.3V642.6H298.2V920.3Z"/></clipPath>
<clipPath id="c2_258"><path d="M73,915.5V647.6H294.7V915.5Z"/></clipPath>
<clipPath id="c3_258"><path d="M72.7,915.1V647.3H294.4V915.1Z"/></clipPath>
<clipPath id="c4_258"><path d="M176.6,517.3l-6.5,-2.1L153.7,501.3V444.2h72v73.1Z"/></clipPath>
<clipPath id="c5_258"><path d="M661.8,822.2v-242H888.4v242Z"/></clipPath>
<clipPath id="c6_258"><path d="M667.9,816V585H884.6V816Z"/></clipPath>
<clipPath id="c7_258"><path d="M667.6,815.7v-231H884.3v231Z"/></clipPath>
<clipPath id="c8_258"><path d="M176.6,1130.3l-6.5,-2.1l-16.4,-14v-57.1h72v73.2Z"/></clipPath>
<clipPath id="c9_258"><path d="M776.7,601.2c-.2,0,3.6,-8.2,3.6,-8.2l.8,.5c0,0,-4.1,7.7,-4.4,7.7Z"/></clipPath>
<clipPath id="ca_258"><path d="M784.2,593.5c0,0,-6.8,-1.1,-7.5,-5.2c-.7,-3.6,1.5,-3.8,2,-3.8c.1,0,.2,0,.2,0l8.3,-12.8l-1.5,-3c0,0,-.6,-1.2,.2,-2.1c0,-.1,.1,-.1,.3,-.1c2.1,0,12.9,5.5,12.9,5.5l.1,.2c-.4,.5,-.8,1.1,-1.4,1.6c-.7,.5,-5.1,1.2,-5.1,1.2l-8.5,18.5Z"/></clipPath>
<clipPath id="cb_258"><path d="M783.8,593.2c.2,-.5,.2,-1.8,0,-2.3v-1.4c-1.5,-.5,-2.8,-1.2,-3.6,-2.5c-1.1,.6,-2.1,1.2,-3.1,1.9c1.5,2.1,3.8,3.5,6.7,4.3Zm0,-3.9c2.2,-4.6,4,-9.5,6.2,-14.1c-.9,-.4,-1.9,-1.3,-2.6,-1.4c-2.3,4.3,-4.7,8.6,-7.1,12.8c.7,1.4,2.1,2,3.5,2.7Zm-7.3,12c1.1,-2.9,2.4,-5.4,3.6,-8.3c-2,-1.5,-4,-3.1,-4.4,-6.1v-1.5c-.1,-2.7,1.9,-3.4,4.6,-3.4c0,0,.1,0,.1,0c2,-3.4,4.3,-6.4,6.2,-9.7c-.6,-.9,-1.2,-2.4,-.9,-3.6c.5,1.2,1.6,1.9,2.4,2.8c-.1,.6,-.3,1.2,-.4,1.8c.6,.7,1.4,1.2,2.4,1.4c.5,-.4,.5,-1.3,1.2,-1.5c.9,.3,1.8,.7,3.1,.7c.1,.1,.5,.2,.8,.2c.4,0,.7,-.1,.8,-.2c.1,.1,.2,.1,.3,.1c.3,0,.5,-.1,.7,-.2c.1,0,.3,-.1,.5,-.1c.1,0,.2,0,.3,.1c-1.3,.7,-2.2,1.8,-4.2,1.8c-.1,0,-.2,0,-.3,0c-.9,3.7,-1.9,7.3,-2.7,11.2c.6,1,1.5,1.6,1.3,3.1c-.5,2.7,-3.9,4.4,-7.2,4.4c-1.3,0,-2.5,-.3,-3.6,-.8c-1,2.1,-2.1,4.2,-3.3,6.1c0,-.4,.3,-.4,.3,-.8c.9,-1.8,1.9,-3.6,2.6,-5.6c-1.1,1.7,-1.8,3.7,-2.8,5.5c-.2,.4,-.4,.8,-.6,1.2c-.3,.5,-.3,1.2,-.8,1.4Z"/></clipPath>
<clipPath id="cc_258"><path d="M794.3,573.6c-4.8,0,-13.1,-7.4,-5.6,-8.8H790c.1,0,.3,0,.5,0q.1,0,.2,0c0,0,.1,0,.1,0c.3,0,.6,0,.9,.1c3.1,.6,8.3,3.8,7.6,7c-.2,1.2,-1.6,1.6,-3.2,1.7h-1.7c0,0,-.1,0,-.1,0Z"/></clipPath>
<clipPath id="cd_258"><path d="M173.5,665.8c-.3,-.1,3.5,-8.3,3.5,-8.3l.8,.6c0,0,-4,7.7,-4.3,7.7Z"/></clipPath>
<clipPath id="ce_258"><path d="M181,658c0,0,-6.9,-1.1,-7.6,-5.2c-.7,-3.6,1.5,-3.8,2.1,-3.8c0,0,.1,0,.1,0l8.3,-12.7l-1.4,-3.1c0,0,-.6,-1.1,.1,-2.1c0,-.1,.2,-.1,.3,-.1c2.1,0,12.9,5.5,12.9,5.5l.1,.2c-.4,.5,-.7,1.1,-1.4,1.6c-.6,.5,-5.1,1.2,-5.1,1.2L181,658Z"/></clipPath>
<clipPath id="cf_258"><path d="M180.6,657.7c.2,-.5,.2,-1.8,0,-2.3V654c-1.6,-.5,-2.9,-1.2,-3.7,-2.5c-1.1,.6,-2.1,1.3,-3.1,1.9c1.5,2.1,3.8,3.6,6.8,4.3Zm0,-3.9c2.2,-4.6,4,-9.5,6.1,-14.1c-.9,-.4,-1.8,-1.3,-2.6,-1.4c-2.3,4.4,-4.6,8.7,-7.1,12.9c.8,1.3,2.1,2,3.6,2.6Zm-7.3,12.1c1,-2.9,2.4,-5.5,3.5,-8.3c-2,-1.6,-3.9,-3.2,-4.4,-6.2v-1.5c0,-2.7,1.9,-3.4,4.6,-3.4c0,0,.1,0,.2,0c1.9,-3.3,4.2,-6.3,6.1,-9.7c-.5,-.8,-1.1,-2.3,-.8,-3.6c.5,1.2,1.6,1.9,2.3,2.9c-.1,.6,-.2,1.1,-.3,1.7c.6,.7,1.3,1.2,2.4,1.4c.4,-.4,.5,-1.2,1.1,-1.5c.9,.4,1.8,.8,3.1,.8c.2,.1,.5,.1,.8,.1c.4,0,.7,0,.9,-.1c.1,0,.2,0,.3,0c.2,0,.4,-.1,.6,-.1c.2,-.1,.3,-.2,.5,-.2c.1,0,.2,.1,.3,.1c-1.3,.7,-2.2,1.8,-4.2,1.8c-.1,0,-.2,0,-.3,0c-.9,3.7,-1.9,7.4,-2.6,11.2c.5,1,1.5,1.7,1.2,3.1c-.5,2.7,-3.8,4.4,-7.2,4.4c-1.3,0,-2.5,-.2,-3.6,-.7c-1,2.1,-2.1,4.1,-3.3,6c0,-.4,.3,-.4,.3,-.8c.9,-1.8,1.9,-3.5,2.6,-5.6c-1,1.7,-1.8,3.7,-2.7,5.5c-.2,.4,-.5,.9,-.7,1.3c-.3,.4,-.3,1.1,-.7,1.4Z"/></clipPath>
<clipPath id="cg_258"><path d="M191,638.1c-4.8,0,-13.1,-7.3,-5.5,-8.8h1.2c.2,0,.3,0,.5,0c.1,0,.2,0,.2,0q.1,0,.2,0c.3,0,.6,0,.9,.1c3.1,.7,8.2,3.8,7.5,7.1c-.2,1.1,-1.5,1.5,-3.1,1.6h-1.8c0,0,-.1,0,-.1,0Z"/></clipPath>
<clipPath id="ch_258"><path d="M125.5,386.7V205.8H858.6V386.7Z"/></clipPath>
<clipPath id="ci_258"><path d="M764.8,413.7V401.2h14.5v12.5Z"/></clipPath>
<style type="text/css"><![CDATA[
.g0_258{
fill: #FEFCF4;
}
.g1_258{
fill: #FFF;
}
.g2_258{
fill: none;
stroke: #6381B7;
stroke-width: 0.763;
}
.g3_258{
fill: #6381B7;
}
.g4_258{
fill: none;
stroke: #6381B7;
stroke-width: 0.381;
stroke-dasharray: 2,1;
}
.g5_258{
fill: none;
stroke: #6381B7;
stroke-width: 0.381;
}
.g6_258{
fill: none;
stroke: #818385;
stroke-width: 0.305;
stroke-dasharray: 4,4;
}
.g7_258{
fill: none;
stroke: #818385;
stroke-width: 0.305;
}
.g8_258{
fill: #F7C2D9;
}
.g9_258{
fill: #FEF6F5;
}
.ga_258{
fill: #EC008C;
}
.gb_258{
fill: none;
stroke: #949698;
stroke-width: 0.305;
stroke-dasharray: 4,4;
}
.gc_258{
fill: none;
stroke: #949698;
stroke-width: 0.305;
stroke-dasharray: 3,3;
}
.gd_258{
fill: none;
stroke: #949698;
stroke-width: 0.305;
}
.ge_258{
fill: #6D6F71;
}
.gf_258{
fill: #FCE8B0;
}
.gg_258{
fill: #2E6E51;
}
.gh_258{
fill: none;
stroke: #FFF;
stroke-width: 0.152;
stroke-miterlimit: 1;
}
.gi_258{
fill: #BCBEC0;
}
.gj_258{
fill: #EE314A;
}
.gk_258{
fill: #CEEDFB;
}
.gl_258{
fill: #27639D;
}
.gm_258{
fill: #231F20;
}
.gn_258{
fill: none;
stroke: #204A78;
stroke-width: 1.527;
}
.go_258{
fill: #25408F;
}
.gp_258{
fill: #A8AAAD;
}
.gq_258{
fill: none;
stroke: #949698;
stroke-width: 0.549;
}
.gr_258{
fill: none;
stroke: #BCBEC0;
stroke-width: 2.566;
}
.gs_258{
fill: #363637;
}
.gt_258{
fill: #5CC4BE;
}
.gu_258{
fill: #EAD646;
}
.gv_258{
fill: none;
stroke: #FFF;
stroke-width: 1.909;
stroke-miterlimit: 10;
}
.gw_258{
fill: none;
stroke: #000;
stroke-width: 0.381;
stroke-miterlimit: 10;
}
]]></style>
</defs>
<path d="M32.1,1344.3H954.5V32.1H32.1V1344.3Z" class="g0_258"/>
<path clip-path="url(#c0_258)" d="M954.5,1344.3H1877V32.1H954.5V1344.3Z" class="g0_258"/>
<path d="M150.4,418.8c0,0,-18.3,0,-18.3,18.3v589.8c0,0,0,18.3,18.3,18.3H827.5c0,0,18.4,0,18.4,-18.3V418.8Z" class="g1_258"/>
<path d="M150.4,418.8c0,0,-18.3,0,-18.3,18.3v589.8c0,0,0,18.3,18.3,18.3H827.5c0,0,18.4,0,18.4,-18.3V418.8H150.4Z" class="g2_258"/>
<path d="M145.1,1053.4c0,0,-13,0,-13,13v123.5c0,0,0,13,13,13H832.9c0,0,13,0,13,-13V1066.4c0,0,0,-13,-13,-13Z" class="g1_258"/>
<path d="M145.1,1053.4c0,0,-13,0,-13,13v123.5c0,0,0,13,13,13H832.9c0,0,13,0,13,-13V1066.4c0,0,0,-13,-13,-13H145.1Z" class="g2_258"/>
<path d="M424.3,1216.9c0,0,-4.4,0,-4.4,4.3V1232c0,0,0,4.3,4.4,4.3h30.3c0,0,4.3,0,4.3,-4.3v-10.8c0,0,0,-4.3,-4.3,-4.3Z" class="g3_258"/>
<path d="M411.1,1208v37.6m1.3,.9H845.1m1,-1.3v-37.6m-1.4,-.9H412" class="g4_258"/>
<path d="M411.1,1246v.5h.5m433.9,0h.6v-.5m0,-38.7v-.6h-.6m-433.9,0h-.5v.6" class="g5_258"/>
<path d="M406.7,879.8c13.5,-.9,24.4,-5.5,27.2,-11.4m-.8,-7.6c-3.9,-5.5,-14.8,-9.5,-28.1,-10.1m-8,.1c-13.6,.9,-24.4,5.5,-27.3,11.4m.8,7.6c4,5.4,14.9,9.5,28.1,10.1" class="g6_258"/>
<path d="M434.5,866.9c.1,-.5,.2,-1.1,.2,-1.6c0,-.5,-.1,-1.1,-.2,-1.6m-31.1,-13c-.5,-.1,-1,-.1,-1.6,-.1c-.5,0,-1.1,0,-1.6,.1m-31.1,13c-.1,.5,-.2,1.1,-.2,1.6c0,.5,.1,1.1,.2,1.6m31.1,13c.5,0,1.1,0,1.6,0c.6,0,1.1,0,1.6,0" class="g7_258"/>
<image clip-path="url(#c1_258)" preserveAspectRatio="none" x="66" y="643" width="232" height="278" xlink:href="img/1.png"/>
<path d="M70.8,661.5L88.5,914.1L291.9,900.9L273.4,647.4Z" class="g8_258"/>
<image clip-path="url(#c2_258)" preserveAspectRatio="none" x="73" y="648" width="221" height="268" xlink:href="img/2.png"/>
<image clip-path="url(#c3_258)" preserveAspectRatio="none" x="73" y="648" width="221" height="268" xlink:href="img/3.png"/>
<path d="M77.8,656.9l4.7,252l173.8,-3.7l32,-37.7l-4,-214.9Z" class="g9_258"/>
<path d="M257.4,904.3l30.2,-34.7L261.2,867Z" class="ga_258"/>
<path d="M388.5,881.3c-9.8,7.7,-38,28,-58.6,27" class="gb_258"/>
<path d="M324.5,904.6c-.3,-1.7,1,-3.7,7.7,-4.6" class="gc_258"/>
<path d="M332.8,907.3c-6,3.1,-19.9,7.6,-47.5,5" class="gb_258"/>
<path d="M277.8,911.5c-8.7,-1.2,-28.4,-4.5,-44.1,-12.4" class="gc_258"/>
<path d="M392.1,878.5c0,0,-.4,.3,-1.2,.9m-62.5,28.8c-.5,-.1,-1,-.2,-1.5,-.2c0,0,-.5,-.4,-1,-1m7.7,-7.2c.4,0,.9,0,1.4,-.1c0,0,.7,.3,1.3,.9m1,2.7c-.1,.4,-.3,.9,-.7,1.4c0,0,-.3,.3,-1.2,.9m-51.6,6.6c-.5,-.1,-1.1,-.2,-1.6,-.2c0,0,-.5,-.1,-1.5,-.2M232.4,898.4c-.4,-.2,-.9,-.4,-1.3,-.7" class="gd_258"/>
<path d="M236.4,898.1l-8.9,3.8l-2.3,-12.4Z" class="ge_258"/>
<path d="M209.2,446.3c0,0,-13,0,-13,13V507c0,0,0,13,13,13h602c0,0,13,0,13,-13V459.3c0,0,0,-13,-13,-13Z" class="gf_258"/>
<image clip-path="url(#c4_258)" preserveAspectRatio="none" x="152" y="443" width="75" height="76" xlink:href="img/4.png"/>
<path d="M204,512.6c0,0,-26.8,11.3,-51.1,-12.8c0,0,15.2,25.4,49.3,24c0,0,24.8,.3,20.3,-10.1c0,0,1.2,-4.5,-18.5,-1.1Z" class="gf_258"/>
<path d="M406.6,768c13.6,-.9,24.5,-5.4,27.3,-11.3m-.8,-7.6c-3.9,-5.4,-14.9,-9.5,-28.1,-10m-8,.1c-13.6,.8,-24.4,5.4,-27.3,11.3m.8,7.6c4,5.4,14.9,9.4,28.1,10" class="g6_258"/>
<path d="M434.5,755.2c.1,-.6,.2,-1.1,.2,-1.6c0,-.6,-.1,-1.1,-.2,-1.6M403.4,739c-.5,0,-1,0,-1.6,0c-.5,0,-1.1,0,-1.6,0m-31.1,13c-.1,.5,-.2,1,-.2,1.6c0,.5,.1,1,.2,1.6m31.1,12.9c.5,0,1.1,.1,1.6,.1c.6,0,1.1,-.1,1.6,-.1" class="g7_258"/>
<image clip-path="url(#c5_258)" preserveAspectRatio="none" x="662" y="580" width="226" height="243" xlink:href="img/5.png"/>
<path d="M679.6,585.1L666.6,805L871,815.9L882,594.2Z" class="g8_258"/>
<image clip-path="url(#c6_258)" preserveAspectRatio="none" x="668" y="586" width="217" height="230" xlink:href="img/6.png"/>
<image clip-path="url(#c7_258)" preserveAspectRatio="none" x="667" y="585" width="217" height="231" xlink:href="img/7.png"/>
<path d="M672.9,591.7l1.4,217.5l170.9,-1.6l32.6,-25.4L876.4,590Z" class="g9_258"/>
<path d="M844,808.1l33.9,-26.2l-19.5,-6.5Z" class="ga_258"/>
<path d="M437.1,765.4c15.4,8.3,71.7,36.5,103.5,24.7" class="gb_258"/>
<path d="M545.1,785.1c1.2,-4.1,.3,-10,-15.1,-8.2m-4.9,3.8c-.3,1.2,-.3,2.5,.4,4" class="gc_258"/>
<path d="M531.1,789c10.7,5.2,42.2,16.7,87,-.9" class="gb_258"/>
<path d="M625,785.2c11.8,-5.2,45.2,-21.3,57.9,-39.4" class="gc_258"/>
<path d="M433,763.2c0,0,.5,.2,1.4,.7M542,789.6c.5,-.2,.9,-.4,1.4,-.6c0,0,.3,-.5,.7,-1.3M528.6,777.1c-.5,.1,-.9,.1,-1.4,.2c0,0,-.4,.4,-.9,1m-.1,7.5c.3,.3,.6,.7,.9,1c0,0,.5,.3,1.3,.8m91.1,0c.5,-.2,.9,-.4,1.4,-.6c0,0,.5,-.2,1.4,-.6m61.4,-41.9c.3,-.4,.5,-.8,.8,-1.3" class="gd_258"/>
<path d="M675.5,746.9l8.4,3.3l2.2,-10.5Z" class="ge_258"/>
<path d="M209.2,1085.3c0,0,-13,0,-13,13v21.6c0,0,0,13,13,13h602c0,0,13,0,13,-13v-21.6c0,0,0,-13,-13,-13Z" class="gf_258"/>
<image clip-path="url(#c8_258)" preserveAspectRatio="none" x="152" y="1056" width="75" height="76" xlink:href="img/8.png"/>
<path d="M204,1125.6c0,0,-26.8,11.3,-51.1,-12.8c0,0,15.2,25.3,49.3,24c0,0,24.8,.3,20.3,-10.1c0,0,1.2,-4.5,-18.5,-1.1Z" class="gf_258"/>
<image clip-path="url(#c9_258)" x="776" y="593" width="6" height="9" xlink:href="shade/1.png"/>
<image clip-path="url(#ca_258)" x="775" y="566" width="25" height="28" xlink:href="shade/2.png"/>
<image clip-path="url(#cb_258)" x="775" y="568" width="23" height="34" xlink:href="shade/3.png"/>
<image clip-path="url(#cc_258)" x="781" y="564" width="19" height="10" xlink:href="shade/4.png"/>
<image clip-path="url(#cd_258)" x="173" y="657" width="5" height="9" xlink:href="shade/5.png"/>
<image clip-path="url(#ce_258)" x="172" y="631" width="24" height="28" xlink:href="shade/6.png"/>
<image clip-path="url(#cf_258)" x="172" y="633" width="23" height="33" xlink:href="shade/7.png"/>
<image clip-path="url(#cg_258)" x="177" y="629" width="20" height="10" xlink:href="shade/8.png"/>
<path d="M32.1,179.3H967.5V32.1H32.1V179.3Z" class="gg_258"/>
<path d="M259.1,134h-1c0,-1.1,-.3,-2,-1.1,-2.5c-.8,-.6,-1.9,-.9,-3.4,-.9c-.9,.1,-1.5,.1,-2.1,.2c-.5,0,-.8,0,-1,0c-.4,0,-.8,-.1,-1.2,-.3c-.4,-.3,-.6,-.6,-.6,-1c0,-.4,.2,-.8,.5,-1q-.1,0,-.2,0c0,0,-.1,0,-.1,0c-.2,-.1,-.4,.1,-.6,.5c-.2,.3,-.3,.6,-.3,.8c0,.8,.5,1.5,1.3,2c.8,.4,1.6,.7,2.5,.7c.2,0,.5,-.1,.7,-.1c.3,0,.7,0,1.1,0c.4,-.1,.7,-.1,1,-.1c.3,0,.6,0,.8,0c.2,0,.3,0,.5,0c.2,0,.4,.1,.5,.1c.5,.2,.8,.4,.8,.7c0,.3,-.2,.5,-.7,.7c-.1,.1,-.3,.1,-.5,.1c-.2,.1,-.3,.1,-.5,.1h-8.1l1.2,1.2h3.8c.6,.4,.8,.7,.8,1c-.7,0,-1.4,.3,-1.9,.8c-.6,.5,-.9,1.1,-.9,1.8c0,.4,.2,.7,.5,.9c.3,.2,.6,.3,1,.3c.5,0,1.1,-.2,1.6,-.7c.4,-.5,.7,-1,.7,-1.6c.1,0,.2,0,.3,-.1c.1,0,.2,0,.3,0c.3,0,.5,.1,.7,.2c.2,.1,.4,.2,.5,.4c.2,.2,.3,.4,.4,.7c0,.2,.1,.5,.1,.7c0,.8,-.5,1.5,-1.4,2c-.8,.3,-1.6,.5,-2.5,.4c-1.2,-.1,-2.3,-.4,-3.4,-1l1.5,3c.8,.2,1.7,.5,2.6,.9c.9,.3,1.7,.7,2.5,1.2c.9,.5,1.6,1,2.3,1.5c.7,.6,1.3,1.2,1.9,1.9l-.3,-1.3c-1,-1.1,-2,-2,-3,-2.8c-.9,-.8,-1.7,-1.4,-2.6,-1.9c1.2,-.3,2.1,-.7,2.7,-1.2c.8,-.6,1.2,-1.5,1.2,-2.4c0,-1,-.3,-1.8,-1,-2.5c-.4,-.5,-1.2,-.9,-2.4,-1.3c-.1,-.2,-.2,-.3,-.4,-.5c-.1,-.1,-.2,-.2,-.3,-.4h6.4L259.1,134Zm19.1,14.7c-.5,-.5,-1,-1,-1.4,-1.4c-.4,-.4,-.8,-.8,-1.1,-1c-.6,-.5,-1.6,-1,-3,-1.8c1.2,-.6,2,-1.1,2.6,-1.6c.8,-.7,1.3,-1.5,1.3,-2.5c.1,-.9,-.2,-1.7,-.8,-2.4c-.5,-.7,-1.4,-1.1,-2.4,-1.1c-.1,0,-.3,0,-.4,0c-.1,0,-.3,.1,-.4,.1c-.2,0,-.3,0,-.5,.1c-.1,0,-.2,0,-.3,0c-1.4,0,-2.3,-.7,-2.9,-1.9h8.7L276.4,134H258.9l1.2,1.2h1.8v8.2c0,.4,.2,.8,.6,1.4c.4,.6,.9,.9,1.4,.9c.7,0,1.5,-.3,2.3,-1c.8,-.7,1.6,-1.7,2.4,-3c.1,.1,.3,.2,.5,.2c.2,.1,.3,.1,.5,.1c.4,0,.8,-.1,1.2,-.3c.4,-.2,.8,-.4,1.2,-.7c.9,-.8,1.4,-1.5,1.4,-2.2l-.1,-.4l.4,-.1c1.1,0,1.7,.4,1.7,1.3c0,.6,-.2,1.2,-.5,1.6c-.4,.5,-.9,.9,-1.6,1.3c-.5,.2,-1,.4,-1.6,.6c-.6,.1,-1.3,.2,-2,.2c-.2,0,-.5,-.1,-.8,-.1c-.3,-.1,-.6,-.1,-.9,-.2l1.2,2.2c1.8,.2,3.4,.6,4.9,1.3c1.5,.8,2.9,1.8,4.2,3.1l-.1,-.9Zm-11.4,-8.2c.1,.1,.1,.2,.1,.3c0,.2,-.1,.4,-.2,.6c0,.2,-.2,.4,-.3,.6c-.6,.6,-1.1,1.2,-1.6,1.5c-.5,.4,-.9,.6,-1.2,.6c-.3,0,-.5,-.3,-.5,-.7v-6.2c.3,.5,.5,.8,.9,1.2c.3,.3,.7,.7,1.4,1c.1,.1,.2,.2,.3,.3c.1,0,.2,0,.2,.1c.4,.2,.7,.4,.8,.5q.1,.1,.1,.2Zm1,-1.7q-.1,0,-.2,0q0,-.1,-.1,-.1h.1l-.8,-.3c-.5,-.2,-.9,-.4,-1.3,-.6c-.5,-.2,-.7,-.3,-.9,-.4c-.3,-.2,-.5,-.4,-.7,-.6c-.2,-.2,-.4,-.3,-.5,-.5c-.1,-.1,-.1,-.2,-.2,-.4c-.1,-.3,-.1,-.5,-.1,-.7h4.7v3.6Zm4,-.4c0,.3,-.1,.5,-.2,.8c-.2,.3,-.4,.6,-.6,.8c-.3,.3,-.5,.5,-.8,.7c-.3,.1,-.5,.2,-.8,.2c-.3,0,-.4,-.2,-.4,-.7v-3.6c.7,.9,1.6,1.5,2.7,1.8h.1Zm10.5,-3.2L281.1,134H280c-.3,-.4,-.6,-1,-.7,-1.9l-.5,-.3c0,.2,0,.5,.1,.9c0,.3,0,.7,0,1.2c.1,.5,.1,.9,.1,1.3c0,.3,0,.6,0,.9c-.2,-.8,-.5,-1.3,-.9,-1.6c-.4,-.3,-1,-.5,-1.7,-.5H275l1.2,1.2c.4,0,.7,.1,1,.2c.3,.1,.6,.3,.9,.5c.2,.2,.4,.4,.5,.7c.2,.3,.3,.7,.3,1v8.9l1.1,1.2V135.2h2.3ZM292.4,134h-12l1.3,1.2c.4,.6,.8,1,1.1,1.2c.2,.2,.4,.3,.7,.4c.3,.2,.7,.3,1.1,.4c.8,.3,1.4,.5,1.7,.8c.4,.4,.6,1.1,.6,2.2c-.2,-.2,-.5,-.3,-.9,-.3c-.7,0,-1.3,.2,-1.7,.5c-.5,.4,-.8,1,-.8,1.6c0,.6,.2,1.1,.6,1.5c.4,.4,.9,.5,1.5,.5c.3,0,.6,0,1,-.2c.4,-.1,.7,-.5,1.1,-.9c1.6,.5,2.7,2,3.3,4.4l.5,.5V135.2h2.1L292.4,134Zm-2.1,9.8c-.2,-.4,-.5,-.8,-.9,-1.2c-.3,-.4,-.7,-.8,-1.2,-1.2c0,-.1,0,-.2,0,-.3v-.3c0,-1.1,-.3,-2.1,-1.1,-3.1c-.5,-.7,-1.3,-1.5,-2.6,-2.5h5.8v8.6Zm7.9,-8.6L297.1,134H296c-.4,-.4,-.6,-1,-.8,-1.9l-.4,-.3c0,.2,0,.5,0,.9c.1,.3,.1,.7,.1,1.2c0,.5,.1,.9,.1,1.3c0,.3,0,.6,0,.9c-.2,-.8,-.6,-1.3,-1,-1.6c-.4,-.3,-.9,-.5,-1.6,-.5H291l1.2,1.2c.3,0,.7,.1,1,.2c.3,.1,.6,.3,.8,.5c.3,.2,.5,.4,.6,.7c.2,.3,.2,.7,.2,1v8.9l1.2,1.2V135.2h2.2Zm11.9,-3.3c-2.3,-2.4,-4.7,-3.6,-7.3,-3.6c-.9,0,-2,.4,-3,1.2c-1.1,.9,-1.6,1.8,-1.6,2.7c0,.4,.1,.7,.4,1l.9,.8h-3.2l1.1,1.2h1.9v11.3l1.2,1.2V135.2h2.1L301.4,134h-1.3l-.5,-1.1c0,-.9,.6,-1.6,1.6,-2.3c1,-.7,1.9,-1,2.8,-1c.6,0,1.2,.1,1.8,.2c.6,.2,1.1,.4,1.7,.7c.6,.4,1.1,.7,1.6,1c.4,.4,.9,.7,1.2,1l-.2,-.6Zm6.7,3.3L315.6,134H300.9c.8,.9,1.5,1.5,2.2,1.8c.1,.1,.3,.2,.7,.3c.3,.1,.7,.2,1.2,.4c.4,.1,.7,.2,1,.4c.3,.2,.6,.4,.9,.6c-.7,.6,-1.4,1.2,-2,1.7c-.6,.5,-1.1,1,-1.5,1.4l1.4,2.1c.8,0,1.5,.1,2.2,.3c.6,.2,1.2,.5,1.7,.9c1.2,1.3,1.9,2.3,2,3l.7,.8v-9.8h.5c2,0,3,.7,3,2l-.1,.3c-.3,-.3,-.7,-.5,-1.2,-.5c-.4,0,-.7,.1,-.9,.3c-.3,.3,-.4,.6,-.4,.9c0,.4,.1,.7,.4,1c.3,.3,.6,.4,1,.4c1.4,0,2.1,-.7,2.1,-2.1c0,-1.3,-.5,-2.4,-1.4,-3.1c-.9,-.7,-1.8,-1,-2.9,-1q-.1,0,-.2,0c-.2,0,-.3,0,-.4,0c-.1,0,-.3,.1,-.4,.1c-.1,0,-.2,0,-.2,0v8.4c-1.1,-1.7,-2.5,-2.9,-4.4,-3.5l3,-2.5c-.4,-.6,-.9,-1.2,-1.5,-1.8c-.5,-.6,-1.1,-1.1,-1.8,-1.6h11.2Zm14.6,0L330.1,134H315l1.2,1.2H324v1c-2.6,.8,-4.9,2.1,-7,3.7l1.7,2.1c1.4,.1,2.6,.7,3.7,1.8c.4,.5,.9,1,1.3,1.6c.4,.7,.7,1.3,1,2c0,.1,.1,.1,.1,.2c.1,0,.2,.1,.3,.1v-10c1.2,0,2.1,.3,2.8,1c.6,.7,1,1.4,1,2.2l-.1,.3c-.2,-.2,-.4,-.3,-.6,-.4c-.2,-.2,-.4,-.2,-.6,-.2c-.4,0,-.8,.1,-1,.4c-.3,.2,-.4,.5,-.4,.9c0,.2,0,.4,.1,.6c.1,.2,.2,.3,.4,.5c.1,.1,.3,.2,.5,.3c.2,.1,.4,.1,.6,.1c.2,0,.5,-.1,.7,-.2c.3,-.1,.5,-.3,.7,-.5c.1,-.2,.3,-.4,.4,-.7c.1,-.3,.1,-.5,.1,-.8c0,-1.3,-.4,-2.4,-1.2,-3.4c-.9,-1.2,-2,-1.7,-3.4,-1.7v-.9h6.3Zm-7.5,9.1c-1,-1.8,-2.5,-3.1,-4.5,-4c.8,-.5,1.6,-1,2.3,-1.4c.8,-.4,1.5,-.8,2.2,-1.1v6.5Zm26.6,-9.1L349.3,134H337.5l1.2,1.2h8.2v.9c-2.6,.8,-5,2.1,-7.4,3.7l1.6,2.3c1.7,.1,3,.7,4,1.6c.3,.3,.6,.6,1,1c.3,.4,.5,.8,.7,1c.1,.3,.3,.7,.5,1.3l.7,.8V135.2h2.5Zm-3.6,9.4c-1.1,-1.8,-2.7,-3.2,-4.9,-4.1c.9,-.6,1.7,-1.1,2.5,-1.5c.8,-.4,1.6,-.7,2.4,-1v6.6Zm-4.7,1.7c.2,.3,.5,.4,.8,.4c.4,0,.7,-.1,.9,-.4c.2,-.2,.4,-.5,.4,-.8c0,-.4,-.2,-.7,-.4,-.9c-.2,-.3,-.5,-.4,-.9,-.4c-.3,0,-.6,.1,-.8,.4c-.3,.2,-.4,.5,-.4,.9c0,.3,.1,.6,.4,.8Zm12.7,-11.1L353.7,134h-1.1c-.3,-.4,-.6,-1,-.7,-1.9l-.5,-.3c0,.2,0,.5,.1,.9c0,.3,0,.7,0,1.2c.1,.5,.1,.9,.1,1.3c0,.3,0,.6,0,.9c-.2,-.8,-.5,-1.3,-.9,-1.6c-.4,-.3,-1,-.5,-1.7,-.5h-1.4l1.2,1.2c.3,0,.7,.1,1,.2c.3,.1,.6,.3,.9,.5c.2,.2,.4,.4,.5,.7c.2,.3,.3,.7,.3,1v8.9l1.1,1.2V135.2h2.3Zm12.7,0L366.4,134H353.2l1.2,1.2H359c-.1,1.7,-.6,2.5,-1.5,2.6c-.2,-.2,-.4,-.3,-.6,-.4c-.2,-.2,-.3,-.3,-.5,-.4c-.1,.1,-.1,.3,-.2,.4c0,.2,-.1,.3,-.1,.5c.3,.5,.7,.9,1.1,1.1c.3,.3,.6,.4,.9,.4c.3,0,.5,-.1,.8,-.3c.2,-.2,.5,-.5,.7,-.8c.2,-.3,.3,-.6,.4,-.9c.2,-.4,.3,-.7,.3,-1h.1c0,1.2,.8,2.2,2.3,2.8c-1.6,.4,-2.3,1.2,-2.3,2.4c0,.5,.1,1,.5,1.4c.3,.4,.8,.6,1.4,.6c.4,0,.9,-.2,1.2,-.5c.4,-.3,.5,-.7,.5,-1.2c0,-.5,-.2,-1,-.5,-1.4h.3c.5,0,.9,.2,1.2,.6c.4,.3,.6,.8,.6,1.3c0,.8,-.4,1.4,-1.1,1.9c-.7,.5,-1.4,.7,-2.2,.7c-1.8,0,-3.4,-1,-4.8,-3.1c-.6,-.9,-1.6,-2.7,-2.8,-5.6v.1c-.1,-.1,-.2,-.1,-.3,-.2q-.1,-.1,-.2,-.2c.2,1.2,.5,2.4,.9,3.6c.5,1.2,1,2.3,1.6,3.3c.7,1.3,1.6,2.3,2.5,3c.9,.7,1.9,1,2.9,1c.6,0,1.2,-.1,1.8,-.3c.5,-.2,1,-.4,1.4,-.8c.4,-.3,.7,-.8,.9,-1.3c.2,-.5,.3,-1.1,.4,-1.7c-.1,-1.7,-.8,-2.9,-2.4,-3.4c.6,-.2,1,-.5,1.3,-1c.3,-.6,.4,-1.1,.4,-1.7c0,-.6,-.2,-1.1,-.5,-1.5h2.2Zm-4.3,2.5c-.7,0,-1.2,-.3,-1.7,-.7c-.4,-.5,-.7,-1.1,-.7,-1.7h3.2c.3,0,.5,.1,.6,.4c.1,.3,.2,.5,.2,.8c0,.8,-.6,1.2,-1.6,1.2Zm9.1,-2.5L371.2,134h-1.1c-.3,-.4,-.6,-1,-.7,-1.9l-.5,-.3c0,.2,.1,.5,.1,.9c0,.3,0,.7,0,1.2c.1,.5,.1,.9,.1,1.3c0,.3,0,.6,0,.9c-.2,-.8,-.5,-1.3,-.9,-1.6c-.4,-.3,-1,-.5,-1.7,-.5h-1.4l1.2,1.2c.4,0,.7,.1,1,.2c.3,.1,.6,.3,.9,.5c.2,.2,.4,.4,.6,.7c.1,.3,.2,.7,.2,1v8.9l1.1,1.2V135.2h2.3Zm20.7,0L391.9,134c-.1,0,-.2,0,-.4,0c-.4,0,-.7,-.2,-.9,-.6c0,-.2,-.1,-.6,-.2,-1.2l-.5,-.5c0,1.1,.1,2.2,.1,3.2c.1,1.1,.1,2.1,.2,3.2h-.1c-1.5,-2.6,-3.1,-3.9,-4.9,-3.9c-.4,0,-.9,.1,-1.4,.3c-.5,.1,-1,.4,-1.5,.7c-.6,.4,-1,.8,-1.3,1.2c-.3,.4,-.5,.9,-.5,1.3c0,.2,.1,.5,.3,.7c.2,.2,.4,.3,.6,.3c.3,0,.5,-.1,.9,-.3c.2,-.1,.4,-.1,.5,-.2c.1,0,.2,0,.4,0c.4,0,.7,.4,.7,1.2c0,.5,-.4,1.1,-1.3,1.9l1.7,.6l4.3,-4.2c.1,.1,.3,.2,.4,.4c.2,.2,.3,.4,.5,.6c.1,.3,.3,.5,.3,.7c.1,.3,.2,.5,.2,.6l-.2,6.4l1.3,1.3V135.2h2Zm-8.5,4.2c.1,-.7,-.1,-1.2,-.3,-1.6c-.3,-.5,-.8,-.7,-1.4,-.7c.5,-1.1,1.4,-1.6,2.8,-1.6c.7,0,1.3,.3,1.8,.9l-2.9,3Zm13.1,-4.2L396.5,134h-1.1c-.3,-.4,-.6,-1,-.7,-1.9l-.4,-.3c0,.2,0,.5,0,.9c0,.3,0,.7,0,1.2c.1,.5,.1,.9,.1,1.3c0,.3,0,.6,0,.9c-.2,-.8,-.5,-1.3,-.9,-1.6c-.4,-.3,-1,-.5,-1.7,-.5h-1.4l1.2,1.2c.4,0,.7,.1,1,.2c.3,.1,.6,.3,.9,.5c.2,.2,.4,.4,.6,.7c.1,.3,.2,.7,.2,1v8.9l1.1,1.2V135.2h2.3Zm11.1,0L407.6,134H395.8l1.2,1.2h8.2v.9c-2.5,.8,-5,2.1,-7.4,3.7l1.6,2.3c1.7,.1,3,.7,4.1,1.6c.3,.3,.6,.6,.9,1c.3,.4,.6,.8,.7,1c.2,.3,.3,.7,.6,1.3l.6,.8V135.2h2.5Zm-3.6,9.4c-1.1,-1.8,-2.7,-3.2,-4.9,-4.1c.9,-.6,1.8,-1.1,2.5,-1.5c.8,-.4,1.6,-.7,2.4,-1v6.6Zm-4.7,1.7c.2,.3,.5,.4,.9,.4c.3,0,.6,-.1,.8,-.4c.3,-.2,.4,-.5,.4,-.8c0,-.4,-.1,-.7,-.4,-.9c-.2,-.3,-.5,-.4,-.8,-.4c-.4,0,-.7,.1,-.9,.4c-.3,.2,-.4,.5,-.4,.9c0,.3,.1,.6,.4,.8Zm26,-12.3H414.4l1.2,1.2h4.3c.6,.4,.8,.7,.8,1c-.7,0,-1.4,.3,-1.9,.8c-.6,.5,-.9,1.1,-.9,1.8c0,.4,.2,.7,.5,.9c.3,.2,.6,.3,1,.3c.5,0,1,-.2,1.5,-.7c.5,-.5,.8,-1,.8,-1.6c.1,0,.2,-.1,.3,-.1c.1,0,.3,0,.4,0c.2,0,.4,.1,.6,.2c.2,.1,.4,.2,.5,.4c.2,.2,.3,.4,.3,.7c.1,.2,.2,.5,.2,.7c0,.8,-.5,1.5,-1.5,2c-.7,.3,-1.5,.5,-2.4,.4c-1.3,-.1,-2.4,-.4,-3.4,-1l1.5,3c.8,.2,1.7,.5,2.6,.9c.8,.3,1.7,.7,2.5,1.2c.9,.5,1.6,1,2.3,1.5c.7,.6,1.3,1.2,1.9,1.9l-.3,-1.3c-1.1,-1.1,-2.1,-2,-3,-2.8c-.9,-.8,-1.8,-1.4,-2.6,-1.9c1.2,-.3,2.1,-.7,2.7,-1.2c.8,-.6,1.2,-1.4,1.2,-2.4c0,-1,-.3,-1.8,-1,-2.5c-.4,-.5,-1.2,-.9,-2.4,-1.3c-.1,-.2,-.2,-.3,-.3,-.5c-.2,-.1,-.3,-.2,-.4,-.4h6.3L426.5,134Zm6.8,0h-8l1.2,1.2h4c-1.7,2,-2.5,4,-2.5,6.1c0,1.5,.3,2.8,.9,3.9c.7,1.4,1.8,2.1,3.2,2.1c.3,0,.6,0,.8,-.1c.3,-.1,.5,-.2,.7,-.4c.2,-.2,.4,-.4,.5,-.7c.1,-.2,.2,-.5,.2,-.8c0,-.4,-.2,-.9,-.5,-1.2c-.2,-.3,-.6,-.5,-1,-.5c-.4,0,-.7,.2,-1,.4c-.3,.3,-.5,.6,-.5,1c0,.2,.1,.4,.2,.7c.1,.2,.3,.4,.6,.6c-.7,.2,-1.5,-.2,-2.2,-1.3c-.5,-.7,-.7,-1.5,-.7,-2.3c0,-1,.1,-1.9,.3,-2.7c.2,-.7,.5,-1.4,.9,-2.1c.5,-.7,1.1,-1.3,1.7,-1.7c.7,-.5,1.4,-.8,2.3,-1L433.3,134Zm13.6,1.2L445.6,134H432.4l1.3,1.2h9.7v3.3c-.4,-1.3,-1.2,-2,-2.2,-2c-.3,0,-.6,.2,-1,.5c-.3,.3,-.5,.6,-.5,1c-.8,-1,-1.7,-1.6,-2.7,-1.6c-.8,0,-1.5,.4,-2,1.2c-.4,.7,-.7,1.4,-.7,2.3c0,.5,.1,1,.3,1.4c.2,.4,.4,.8,.7,1.1c.3,.3,.7,.5,1.1,.7c.4,.1,.9,.2,1.4,.2c.6,-.1,1.1,-.2,1.5,-.5c.3,-.3,.5,-.7,.5,-1.2c0,-1.1,-.6,-1.7,-1.7,-1.7c-.3,0,-.6,.1,-.9,.3c-.3,.3,-.4,.6,-.4,1c0,.2,.1,.6,.4,1c-1.2,-.2,-1.8,-.8,-1.8,-1.7c0,-.3,.1,-.6,.2,-.9c.1,-.3,.3,-.5,.5,-.7c.2,-.2,.4,-.4,.7,-.5c.3,-.1,.6,-.2,.9,-.2c.7,0,1.3,.2,1.8,.6c.5,.4,.8,1,.9,1.6l.5,-.2c0,-.3,-.1,-.5,-.1,-.7c0,-.9,.4,-1.3,1,-1.3c.5,0,.8,.2,1.1,.5c.4,.3,.5,.7,.5,1.1v6.9l1.2,1.1V135.2h2.3ZM463.3,134H453l1.2,1.2H456v9.1c0,.4,.2,.9,.7,1.5c.4,.5,.9,.7,1.3,.7c1.2,0,2.4,-.7,3.5,-2.2c1.1,-1.4,1.7,-2.7,1.7,-3.9c0,-1,-1,-1.8,-3,-2.5c-2.1,-.6,-3.1,-1.5,-3.1,-2.7h7.4L463.3,134Zm-2,6.8c0,.7,-.4,1.5,-1.3,2.6c-.8,1,-1.6,1.5,-2.3,1.5c-.3,0,-.5,-.2,-.5,-.7v-7c.8,1.5,2.2,2.5,4.1,3.1c0,0,0,.2,0,.5Zm15.9,-5.6L476,134H462.8l1.2,1.2h9.8v3.3c-.5,-1.3,-1.2,-2,-2.2,-2c-.3,0,-.7,.2,-1,.5c-.3,.3,-.5,.6,-.5,1c-.8,-1,-1.7,-1.6,-2.7,-1.6c-.8,0,-1.5,.4,-2,1.2c-.5,.7,-.7,1.4,-.7,2.3c0,.5,.1,1,.3,1.4c.1,.4,.4,.8,.7,1.1c.3,.3,.7,.5,1.1,.7c.4,.1,.9,.2,1.4,.2c.6,-.1,1.1,-.2,1.4,-.5c.4,-.3,.5,-.7,.5,-1.2c0,-1.1,-.5,-1.7,-1.6,-1.7c-.3,0,-.7,.1,-.9,.3c-.3,.3,-.5,.6,-.5,1c0,.2,.2,.6,.4,1c-1.1,-.2,-1.7,-.8,-1.7,-1.7c0,-.3,.1,-.6,.2,-.9c.1,-.3,.3,-.5,.5,-.7c.2,-.2,.4,-.4,.7,-.5c.3,-.1,.5,-.2,.8,-.2c.7,0,1.3,.2,1.8,.6c.6,.4,.9,1,1,1.6l.5,-.2c-.1,-.3,-.1,-.5,-.1,-.7c0,-.9,.3,-1.3,1,-1.3c.4,0,.8,.2,1.1,.5c.3,.3,.5,.7,.5,1.1v6.9l1.2,1.1V135.2h2.2Zm6,-1.2h-7.9l1.1,1.2h4c-1.7,2,-2.5,4,-2.5,6.1c0,1.5,.3,2.8,.9,3.9c.8,1.4,1.8,2.1,3.2,2.1c.3,0,.6,0,.9,-.1c.2,-.1,.5,-.2,.7,-.4c.2,-.2,.3,-.4,.4,-.7c.1,-.2,.2,-.5,.2,-.8c0,-.4,-.2,-.9,-.4,-1.2c-.3,-.3,-.7,-.5,-1.1,-.5c-.3,0,-.7,.2,-1,.4c-.3,.3,-.4,.6,-.4,1c0,.2,0,.4,.1,.7c.2,.2,.4,.4,.6,.6c-.7,.2,-1.4,-.2,-2.2,-1.3c-.5,-.7,-.7,-1.5,-.7,-2.3c0,-1,.1,-1.9,.3,-2.7c.2,-.7,.5,-1.4,1,-2.1c.4,-.7,1,-1.3,1.6,-1.7c.7,-.5,1.5,-.8,2.4,-1L483.2,134Zm12.1,1.2L494.2,134H482.4l1.1,1.2h8.2v.9c-2.5,.8,-4.9,2.1,-7.3,3.7l1.5,2.3c1.7,.1,3.1,.7,4.1,1.6c.3,.3,.6,.6,.9,1c.4,.4,.6,.8,.8,1.2c.2,.3,.3,.5,.4,.7c0,.1,.1,.2,.1,.4l.7,.8V135.2h2.4Zm-3.6,9.4c-1,-1.8,-2.7,-3.2,-4.8,-4.1c.9,-.6,1.7,-1.1,2.5,-1.5c.8,-.4,1.6,-.7,2.3,-1v6.6Zm22.4,-9.4L512.9,134H501.2l1.2,1.2h8.4v6.6c-1.3,-2.6,-2.8,-4,-4.5,-4c-.8,0,-1.5,.3,-2.1,.9c-.6,.5,-.8,1.2,-.8,2c0,1.5,.7,2.2,2.3,2.2c.5,0,.9,-.2,1.2,-.5c.3,-.4,.4,-.8,.4,-1.3c0,-.3,-.3,-.8,-.8,-1.5c.1,-.1,.2,-.1,.4,-.1c1.2,0,2.3,.8,3.3,2.5c.6,1.4,1,2.9,.9,4.2v1.3l.9,.6V135.2h2.1Zm4.6,0L517.5,134h-1.1c-.3,-.4,-.6,-1,-.7,-1.9l-.4,-.3c0,.2,0,.5,0,.9c0,.3,0,.7,.1,1.2c0,.5,0,.9,0,1.3c.1,.3,.1,.6,.1,.9c-.3,-.8,-.6,-1.3,-1,-1.6c-.4,-.3,-1,-.5,-1.7,-.5h-1.4l1.2,1.2c.4,0,.7,.1,1,.2c.4,.1,.6,.3,.9,.5c.2,.2,.4,.4,.6,.7c.1,.3,.2,.7,.2,1v8.9l1.1,1.2V135.2h2.3Z" class="gh_258"/>
<g clip-path="url(#c0_258)">
<path d="M1877,177.2H32.1v-5.4H768.7c43.1,0,53,-37.9,115.3,-37.9h993Z" class="gi_258"/>
<path d="M1877,183.7H32.1v-9.8H768.7c43.1,0,53,-33.6,115.3,-33.6h993Z" class="gj_258"/>
</g>
<image clip-path="url(#ch_258)" preserveAspectRatio="none" x="125" y="206" width="734" height="181" xlink:href="img/9.png"/>
<path d="M144.6,231.3c0,0,-13,0,-13,13v117c0,0,0,13,13,13H833.1c0,0,13,0,13,-13v-130Z" class="gk_258"/>
<path d="M147.7,294.1l54.1,40.8l54.1,-40.8V230h8.7V211.9H155.8c-6.5,.4,-7.7,3.9,-8.2,8.4Z" class="gl_258"/>
<path d="M274,220.3c-.3,-4.7,-4.2,-8.4,-9,-8.4c-4.8,0,-8.7,3.7,-9,8.4h-.1V230h18.2v-9.7Z" class="gm_258"/>
<path d="M255.9,230.6H846.1" class="gn_258"/>
<path d="M131.7,393.1V432l11.7,10.3V398.1Z" class="go_258"/>
<path d="M131.7,393.1V432H829.5c0,0,16.8,0,16.8,-16.8v-5.3c0,0,0,-16.8,-16.8,-16.8Z" class="g3_258"/>
<path d="M781,426.7c8.2,0,14.8,-6.5,14.8,-14.5c0,-8,-6.6,-14.5,-14.8,-14.5c-8.3,0,-14.9,6.5,-14.9,14.5c0,8,6.6,14.5,14.9,14.5Z" class="gp_258"/>
<path d="M781,426.7c8.2,0,14.8,-6.5,14.8,-14.5c0,-8,-6.6,-14.5,-14.8,-14.5c-8.3,0,-14.9,6.5,-14.9,14.5c0,8,6.6,14.5,14.9,14.5Z" class="gq_258"/>
<path d="M781,417.5c3,0,5.4,-2.4,5.4,-5.3c0,-3,-2.4,-5.4,-5.4,-5.4c-3.1,0,-5.5,2.4,-5.5,5.4c0,2.9,2.4,5.3,5.5,5.3Z" class="g1_258"/>
<path d="M781,417.5c3,0,5.4,-2.4,5.4,-5.3c0,-3,-2.4,-5.4,-5.4,-5.4c-3.1,0,-5.5,2.4,-5.5,5.4c0,2.9,2.4,5.3,5.5,5.3Z" class="gr_258"/>
<g clip-path="url(#ci_258)" opacity="0.3">
<path d="M766.4,411.4v0c0,0,-.1,-4.8,3.6,-8.6l7.8,6.7c0,0,-1,.9,-1.1,2.6Z" class="g1_258"/>
</g>
<path d="M785.6,412.1c0,0,-3.5,0,-3.5,3.4v8.8c0,0,0,3.4,3.5,3.4H829c0,0,3.5,0,3.5,-3.4v-8.8c0,0,0,-3.4,-3.5,-3.4Z" class="gm_258"/>
<path d="M169.5,403.1c0,-8.3,-6.7,-15,-15,-15c-8.4,0,-15.1,6.7,-15.1,15c0,8.4,6.8,15.1,15.1,15.1c.8,0,1.6,-.1,2.4,-.2l4.5,5.2v-6.7c4.8,-2.5,8.1,-7.5,8.1,-13.4Z" class="g1_258"/>
<path d="M161.8,424.5l-5.1,-6c-.7,.1,-1.5,.2,-2.2,.2c-8.6,0,-15.6,-7,-15.6,-15.6c0,-8.5,7,-15.5,15.6,-15.5c8.5,0,15.5,7,15.5,15.5c0,5.8,-3.1,11,-8.2,13.7Zm-4.7,-7l3.8,4.5v-5.8l.3,-.1c4.8,-2.5,7.9,-7.5,7.9,-13c0,-8,-6.6,-14.6,-14.6,-14.6c-8.1,0,-14.6,6.6,-14.6,14.6c0,8.1,6.5,14.6,14.6,14.6c.7,0,1.5,0,2.3,-.2Z" class="gs_258"/>
<path d="M147.4,402.7c.8,0,1.5,.7,1.5,1.5c0,.7,-.7,1.4,-1.5,1.4c-.7,0,-1.4,-.7,-1.4,-1.4c0,-.8,.7,-1.5,1.4,-1.5Z" class="gt_258"/>
<path d="M147.4,406c-1,0,-1.8,-.8,-1.8,-1.8c0,-1.1,.8,-1.9,1.8,-1.9c1.1,0,1.9,.8,1.9,1.9c0,1,-.8,1.8,-1.9,1.8m0,-2.8c-.5,0,-.9,.4,-.9,1c0,.5,.4,.9,.9,.9c.6,0,1,-.4,1,-.9c0,-.6,-.4,-1,-1,-1Z" class="gs_258"/>
<path d="M154.5,402.7c.8,0,1.4,.7,1.4,1.5c0,.7,-.6,1.4,-1.4,1.4c-.8,0,-1.5,-.7,-1.5,-1.4c0,-.8,.7,-1.5,1.5,-1.5Z" class="gt_258"/>
<path d="M154.5,406c-1.1,0,-1.9,-.8,-1.9,-1.8c0,-1.1,.8,-1.9,1.9,-1.9c1,0,1.9,.8,1.9,1.9c0,1,-.9,1.8,-1.9,1.8m0,-2.8c-.6,0,-1,.4,-1,1c0,.5,.4,.9,1,.9c.5,0,.9,-.4,.9,-.9c0,-.6,-.4,-1,-.9,-1Z" class="gs_258"/>
<path d="M161.5,402.7c.8,0,1.4,.7,1.4,1.5c0,.7,-.6,1.4,-1.4,1.4c-.8,0,-1.5,-.7,-1.5,-1.4c0,-.8,.7,-1.5,1.5,-1.5Z" class="gt_258"/>
<path d="M161.5,406c-1.1,0,-1.9,-.8,-1.9,-1.8c0,-1.1,.8,-1.9,1.9,-1.9c1,0,1.9,.8,1.9,1.9c0,1,-.9,1.8,-1.9,1.8m0,-2.8c-.6,0,-1,.4,-1,1c0,.5,.4,.9,1,.9c.5,0,1,-.4,1,-.9c0,-.6,-.5,-1,-1,-1Z" class="gs_258"/>
<path d="M163.4,417.4c0,-9.7,7.9,-17.6,17.6,-17.6c9.7,0,17.6,7.9,17.6,17.6c0,9.7,-7.9,17.6,-17.6,17.6c-.9,0,-1.9,-.1,-2.8,-.2l-5.3,6.1V433c-5.6,-2.9,-9.5,-8.8,-9.5,-15.6Z" class="gu_258"/>
<path d="M172.9,441.3c0,0,-.1,0,-.1,0c-.2,-.1,-.3,-.2,-.3,-.4v-7.6c-5.9,-3.1,-9.6,-9.2,-9.6,-15.9c0,-10,8.2,-18.1,18.1,-18.1c10,0,18.1,8.1,18.1,18.1c0,9.9,-8.1,18.1,-18.1,18.1c-.8,0,-1.7,-.1,-2.6,-.2l-5.1,5.9c-.1,.1,-.2,.1,-.4,.1M181,400.2c-9.4,0,-17.1,7.7,-17.1,17.2c0,6.4,3.5,12.3,9.2,15.2c.2,.1,.3,.3,.3,.4v6.6l4.4,-5.1c.1,-.1,.3,-.2,.5,-.2c.9,.2,1.8,.2,2.7,.2c9.5,0,17.2,-7.7,17.2,-17.1c0,-9.5,-7.7,-17.2,-17.2,-17.2Z" class="gs_258"/>
<path d="M189.2,416.9c.9,0,1.7,.7,1.7,1.7c0,.9,-.8,1.6,-1.7,1.6c-.9,0,-1.7,-.7,-1.7,-1.6c0,-1,.8,-1.7,1.7,-1.7Z" class="g1_258"/>
<path d="M189.2,420.7c-1.2,0,-2.1,-1,-2.1,-2.1c0,-1.2,.9,-2.2,2.1,-2.2c1.2,0,2.1,1,2.1,2.2c0,1.1,-.9,2.1,-2.1,2.1m0,-3.4c-.7,0,-1.2,.6,-1.2,1.3c0,.6,.5,1.2,1.2,1.2c.7,0,1.2,-.6,1.2,-1.2c0,-.7,-.5,-1.3,-1.2,-1.3Z" class="gs_258"/>
<path d="M181,416.9c.9,0,1.7,.7,1.7,1.7c0,.9,-.8,1.6,-1.7,1.6c-.9,0,-1.7,-.7,-1.7,-1.6c0,-1,.8,-1.7,1.7,-1.7Z" class="g1_258"/>
<path d="M181,420.7c-1.2,0,-2.1,-1,-2.1,-2.1c0,-1.2,.9,-2.2,2.1,-2.2c1.2,0,2.1,1,2.1,2.2c0,1.1,-.9,2.1,-2.1,2.1m0,-3.4c-.7,0,-1.2,.6,-1.2,1.3c0,.6,.5,1.2,1.2,1.2c.7,0,1.2,-.6,1.2,-1.2c0,-.7,-.5,-1.3,-1.2,-1.3Z" class="gs_258"/>
<path d="M172.8,416.9c.9,0,1.7,.7,1.7,1.7c0,.9,-.8,1.6,-1.7,1.6c-.9,0,-1.7,-.7,-1.7,-1.6c0,-1,.8,-1.7,1.7,-1.7Z" class="g1_258"/>
<path d="M172.8,420.7c-1.2,0,-2.1,-1,-2.1,-2.1c0,-1.2,.9,-2.2,2.1,-2.2c1.2,0,2.1,1,2.1,2.2c0,1.1,-.9,2.1,-2.1,2.1m0,-3.4c-.7,0,-1.2,.6,-1.2,1.3c0,.6,.5,1.2,1.2,1.2c.7,0,1.2,-.6,1.2,-1.2c0,-.7,-.5,-1.3,-1.2,-1.3Z" class="gs_258"/>
<path d="M32.1,45.1H9.2m958.3,0h22.9M32.1,1331.3H9.2m958.3,0h22.9M45.1,32.1V9.2m0,1335.1v22.9M954.5,32.1V9.2m0,1335.1v22.9" class="gv_258"/>
<path d="M32.1,45.1H9.2m958.3,0h22.9M32.1,1331.3H9.2m958.3,0h22.9M45.1,32.1V9.2m0,1335.1v22.9M954.5,32.1V9.2m0,1335.1v22.9" class="gw_258"/>
<path d="M27.5,32.1H0m972.1,0h27.5M27.5,1344.3H0m972.1,0h27.5M32.1,27.5V0m0,1348.9v27.5M967.5,27.5V0m0,1348.9v27.5" class="gv_258"/>
<path d="M27.5,32.1H0m972.1,0h27.5M27.5,1344.3H0m972.1,0h27.5M32.1,27.5V0m0,1348.9v27.5M967.5,27.5V0m0,1348.9v27.5" class="gw_258"/>
</svg>