<?xml version="1.0" encoding="UTF-8" standalone="no"?>
<!DOCTYPE svg PUBLIC "-//W3C//DTD SVG 1.1//EN"
"http://www.w3.org/Graphics/SVG/1.1/DTD/svg11.dtd">
<svg viewBox="0 0 999 1376" version="1.1" xmlns="http://www.w3.org/2000/svg" xmlns:xlink="http://www.w3.org/1999/xlink">
<defs>
<clipPath id="c0_185"><path d="M32.1,1344.3V32.1H967.5V1344.3Z"/></clipPath>
<clipPath id="c1_185"><path d="M215,757.1V674H831.1v83.1Z"/></clipPath>
<clipPath id="c2_185"><path d="M215,908.8V804.3H831.1V908.8Z"/></clipPath>
<clipPath id="c3_185"><path d="M215,1062.1V979H831.1v83.1Z"/></clipPath>
<clipPath id="c4_185"><path d="M227,495.1c-8.7,0,-8.7,-8.7,-8.7,-8.7V425.8c0,-8.6,8.7,-8.6,8.7,-8.6h77.9c8.7,0,8.7,8.6,8.7,8.6v60.6c0,8.7,-8.7,8.7,-8.7,8.7Z"/></clipPath>
<clipPath id="c5_185"><path d="M227,586.8c-.6,0,-1.1,-.1,-1.6,-.1V509c.9,-.2,1.6,-.2,1.6,-.2h77.9c5.5,0,7.5,3.4,8.2,6v66.4c-1.7,5.6,-8.2,5.6,-8.2,5.6Z"/></clipPath>
<clipPath id="c6_185"><path d="M227,586.8c-8.7,0,-8.7,-8.7,-8.7,-8.7V517.5c0,-8.7,8.7,-8.7,8.7,-8.7h77.9c8.7,0,8.7,8.7,8.7,8.7v60.6c0,8.7,-8.7,8.7,-8.7,8.7Z"/></clipPath>
<clipPath id="c7_185"><path d="M227,403.4c-8.7,0,-8.7,-8.6,-8.7,-8.6V334.2c0,-8.7,8.7,-8.7,8.7,-8.7h77.9c8.7,0,8.7,8.7,8.7,8.7v60.6c0,8.6,-8.7,8.6,-8.7,8.6Z"/></clipPath>
<style type="text/css"><![CDATA[
.g0_185{
fill: #FEFCF4;
}
.g1_185{
fill: #F16865;
}
.g2_185{
fill: #6381B7;
}
.g3_185{
fill: none;
stroke: #6381B7;
stroke-width: 0.381;
stroke-dasharray: 2,1;
}
.g4_185{
fill: none;
stroke: #6381B7;
stroke-width: 0.381;
}
.g5_185{
fill: #FEF8F8;
}
.g6_185{
fill: none;
stroke: #A164A9;
stroke-width: 1.527;
stroke-linecap: round;
stroke-linejoin: round;
stroke-dasharray: 0,5;
}
.g7_185{
fill: none;
stroke: #A164A9;
stroke-width: 1.527;
stroke-linecap: round;
stroke-linejoin: round;
}
.g8_185{
fill: #A164A9;
}
.g9_185{
fill: #FFF;
}
.ga_185{
fill: none;
stroke: #231F20;
stroke-width: 0.305;
stroke-miterlimit: 10;
}
.gb_185{
fill: none;
stroke: #949698;
stroke-width: 1.205;
}
.gc_185{
fill: none;
stroke: #FFF;
stroke-width: 1.909;
stroke-miterlimit: 10;
}
.gd_185{
fill: none;
stroke: #000;
stroke-width: 0.381;
stroke-miterlimit: 10;
}
]]></style>
</defs>
<path d="M45.1,1344.3H967.5V32.1H45.1V1344.3Z" class="g0_185"/>
<g clip-path="url(#c0_185)">
<path d="M-877.3,1344.3H45.1V32.1H-877.3V1344.3Z" class="g0_185"/>
<path d="M867.9,166.7c0,0,30.3,0,30.3,-30.3v-4.3c0,0,0,-30.3,-30.3,-30.3H-735.4c0,0,-30.4,0,-30.4,30.3v4.3c0,0,0,30.3,30.4,30.3Z" class="g1_185"/>
</g>
<path d="M589,1129c0,0,-4.4,0,-4.4,4.3v10.9c0,0,0,4.3,4.4,4.3h30.3c0,0,4.3,0,4.3,-4.3v-10.9c0,0,0,-4.3,-4.3,-4.3Z" class="g2_185"/>
<path d="M575.8,1121.5v38m1.3,.9H866.8m.9,-1.3v-38m-1.3,-1H576.7" class="g3_185"/>
<path d="M575.8,1159.8v.6h.6m290.8,0h.5v-.6m0,-39.1v-.6h-.5m-290.8,0h-.6v.6" class="g4_185"/>
<image preserveAspectRatio="none" x="714" y="55" width="120" height="139" xlink:href="img/1.png"/>
<path d="M154.1,1110.5h713V251h-713v859.5Z" class="g5_185"/>
<path d="M154.1,255.5v852.7m4.6,2.3H864.9m2.2,-4.5V253.3M862.6,251H156.4" class="g6_185"/>
<path d="M154.1,1110.5v0m713.1,0v0m0,-859.5v0m-713.1,0v0" class="g7_185"/>
<path d="M153.3,265.3V227c0,0,0,-8.7,8.7,-8.7H859.3c0,0,8.6,0,8.6,8.7v38.9Z" class="g8_185"/>
<image clip-path="url(#c1_185)" preserveAspectRatio="none" x="215" y="674" width="615" height="84" xlink:href="img/2.png"/>
<path d="M218.3,750.9H824.6V677.3H218.3v73.6Z" class="g9_185"/>
<path d="M278.4,707.1h44.9" class="ga_185"/>
<image clip-path="url(#c2_185)" preserveAspectRatio="none" x="215" y="805" width="615" height="104" xlink:href="img/3.png"/>
<path d="M218.3,902.8H824.6V807.5H218.3v95.3Z" class="g9_185"/>
<path d="M556.6,837.3h67" class="ga_185"/>
<image clip-path="url(#c3_185)" preserveAspectRatio="none" x="215" y="979" width="615" height="83" xlink:href="img/4.png"/>
<path d="M218.3,1055.9H824.6V982.3H218.3v73.6Z" class="g9_185"/>
<path d="M278.7,1012.1h52" class="ga_185"/>
<path d="M227,417.2c0,0,-8.7,0,-8.7,8.6v60.6c0,0,0,8.7,8.7,8.7h77.9c0,0,8.7,0,8.7,-8.7V425.8c0,0,0,-8.6,-8.7,-8.6Z" class="g9_185"/>
<image clip-path="url(#c4_185)" preserveAspectRatio="none" x="-98" y="236" width="912" height="1280" xlink:href="img/5.jpg"/>
<path d="M227,508.8c0,0,-8.7,0,-8.7,8.7v60.6c0,0,0,8.7,8.7,8.7h77.9c0,0,8.7,0,8.7,-8.7V517.5c0,0,0,-8.7,-8.7,-8.7Z" class="g9_185"/>
<image clip-path="url(#c5_185)" preserveAspectRatio="none" x="225" y="505" width="88" height="88" xlink:href="img/6.jpg"/>
<path clip-path="url(#c6_185)" d="M202.6,592.6H335.9V504.8H202.6v87.8Z" class="gb_185"/>
<path d="M227,325.5c0,0,-8.7,0,-8.7,8.7v60.6c0,0,0,8.6,8.7,8.6h77.9c0,0,8.7,0,8.7,-8.6V334.2c0,0,0,-8.7,-8.7,-8.7Z" class="g9_185"/>
<image clip-path="url(#c7_185)" preserveAspectRatio="none" x="-416" y="-281" width="850" height="1193" xlink:href="img/7.jpg"/>
<path d="M32.1,45.1H9.2m958.3,0h22.9M32.1,1331.3H9.2m958.3,0h22.9M45.1,32.1V9.2m0,1335.1v22.9M954.5,32.1V9.2m0,1335.1v22.9" class="gc_185"/>
<path d="M32.1,45.1H9.2m958.3,0h22.9M32.1,1331.3H9.2m958.3,0h22.9M45.1,32.1V9.2m0,1335.1v22.9M954.5,32.1V9.2m0,1335.1v22.9" class="gd_185"/>
<path d="M27.5,32.1H0m972.1,0h27.5M27.5,1344.3H0m972.1,0h27.5M32.1,27.5V0m0,1348.9v27.5M967.5,27.5V0m0,1348.9v27.5" class="gc_185"/>
<path d="M27.5,32.1H0m972.1,0h27.5M27.5,1344.3H0m972.1,0h27.5M32.1,27.5V0m0,1348.9v27.5M967.5,27.5V0m0,1348.9v27.5" class="gd_185"/>
</svg>