<?xml version="1.0" encoding="UTF-8" standalone="no"?>
<!DOCTYPE svg PUBLIC "-//W3C//DTD SVG 1.1//EN"
"http://www.w3.org/Graphics/SVG/1.1/DTD/svg11.dtd">
<svg viewBox="0 0 999 1376" version="1.1" xmlns="http://www.w3.org/2000/svg" xmlns:xlink="http://www.w3.org/1999/xlink">
<defs>
<clipPath id="c0_22"><path d="M32.1,1344.3V32.1H967.5V1344.3Z"/></clipPath>
<clipPath id="c1_22"><path d="M130,266.1V208.9h55.5v57.2Z"/></clipPath>
<clipPath id="c2_22"><path d="M155.9,408.4V289.6h698V408.4Z"/></clipPath>
<clipPath id="c3_22"><path d="M291.8,699.4c-65,0,-65,-64.9,-65,-64.9V553.1c0,-65,65,-65,65,-65h69.9c64.9,0,64.9,65,64.9,65v81.4c0,64.9,-64.9,64.9,-64.9,64.9Z"/></clipPath>
<clipPath id="c4_22"><path d="M248.1,975.2V893.7h79.3v81.5Z"/></clipPath>
<style type="text/css"><![CDATA[
.g0_22{
fill: #FFFDEA;
}
.g1_22{
fill: #BCE4EA;
}
.g2_22{
fill: #BCBEC0;
}
.g3_22{
fill: #00AABD;
}
.g4_22{
fill: #FEF0DB;
}
.g5_22{
fill: #FDD095;
}
.g6_22{
fill: #F47A43;
}
.g7_22{
fill: #FFF;
}
.g8_22{
fill: none;
stroke: #231F20;
stroke-width: 1.527;
}
.g9_22{
fill: none;
stroke: #976EAF;
stroke-width: 1.145;
stroke-linecap: round;
stroke-linejoin: round;
stroke-dasharray: 4,2;
}
.ga_22{
fill: none;
stroke: #976EAF;
stroke-width: 1.145;
stroke-linecap: round;
stroke-linejoin: round;
stroke-dasharray: 4,3;
}
.gb_22{
fill: none;
stroke: #976EAF;
stroke-width: 1.145;
stroke-linecap: round;
stroke-linejoin: round;
}
.gc_22{
fill: #E3F0D5;
}
.gd_22{
fill: none;
stroke: #6D6F71;
stroke-width: 0.305;
stroke-miterlimit: 10;
}
.ge_22{
fill: none;
stroke: #85C443;
stroke-width: 1.145;
stroke-miterlimit: 10;
stroke-dasharray: 4,3;
}
.gf_22{
fill: none;
stroke: #85C443;
stroke-width: 1.145;
stroke-miterlimit: 10;
}
.gg_22{
fill: none;
stroke: #231F20;
stroke-width: 3.055;
}
.gh_22{
fill: none;
stroke: #6D6F71;
stroke-width: 0.305;
}
.gi_22{
fill: none;
stroke: #231F20;
stroke-width: 0.305;
stroke-dasharray: 4,4;
}
.gj_22{
fill: none;
stroke: #231F20;
stroke-width: 0.305;
stroke-dasharray: 3,3;
}
.gk_22{
fill: none;
stroke: #231F20;
stroke-width: 0.305;
}
.gl_22{
fill: #6D6F71;
}
.gm_22{
fill: none;
stroke: #FFF;
stroke-width: 1.909;
stroke-miterlimit: 10;
}
.gn_22{
fill: none;
stroke: #000;
stroke-width: 0.381;
stroke-miterlimit: 10;
}
]]></style>
</defs>
<g clip-path="url(#c0_22)">
<path d="M32.1,1344.3H1877V32.1H32.1V1344.3Z" class="g0_22"/>
<path d="M32.1,179.3H1877V32.1H32.1V179.3Z" class="g1_22"/>
<path d="M1877,177.2H32.1v-5.4H768.7c43.1,0,53,-37.9,115.3,-37.9h993Z" class="g2_22"/>
<path d="M1877,183.7H32.1v-9.8H768.7c43.1,0,53,-33.6,115.3,-33.6h993Z" class="g3_22"/>
</g>
<path d="M480.7,217.7c0,0,-8.6,0,-8.6,8.7v30.3c0,0,0,8.6,8.6,8.6H833c0,0,8.7,0,8.7,-8.6V226.4c0,0,0,-8.7,-8.7,-8.7Z" class="g4_22"/>
<path d="M160.5,217.7c0,0,-8.6,0,-8.6,8.7v30.3c0,0,0,8.6,8.6,8.6H731.6c0,0,8.6,0,8.6,-8.6V226.4c0,0,0,-8.7,-8.6,-8.7Z" class="g5_22"/>
<image clip-path="url(#c1_22)" preserveAspectRatio="none" x="130" y="209" width="55" height="57" xlink:href="img/1.png"/>
<path d="M154.8,210.7c12.7,0,23,10.6,23,23.7c0,13.2,-10.3,23.8,-23,23.8c-12.8,0,-23.1,-10.6,-23.1,-23.8c0,-13.1,10.3,-23.7,23.1,-23.7Z" class="g6_22"/>
<path d="M172,234.4c0,-9.8,-7.7,-17.7,-17.2,-17.7c-9.6,0,-17.3,7.9,-17.3,17.7c0,9.8,7.7,17.8,17.3,17.8c3.6,0,7,-1.2,9.7,-3.2l6.4,1.8l-1.7,-6.7c1.8,-2.8,2.8,-6.1,2.8,-9.7Z" class="g7_22"/>
<path d="M770.8,240.8c0,0,-.5,-9.9,8.3,-9.3c0,0,6.6,-.4,6.5,9.5m-14.9,-1.6v6.5c0,0,-3.2,.4,-3.8,-3c0,0,0,-3.7,3.8,-3.5Zm15,0v6.5c0,0,3.2,.4,3.7,-3c0,0,.1,-3.7,-3.7,-3.5Z" class="g8_22"/>
<image clip-path="url(#c2_22)" preserveAspectRatio="none" x="156" y="290" width="697" height="119" xlink:href="img/2.png"/>
<path d="M171.2,291.7c0,0,-13,0,-13,13v82.4c0,0,0,13,13,13H832.7c0,0,13,0,13,-13V304.7c0,0,0,-13,-13,-13Z" class="g7_22"/>
<path d="M167.7,292.2c-3.4,.9,-8.3,3.3,-9.3,9.9" class="g9_22"/>
<path d="M158.2,308.8v75.3" class="ga_22"/>
<path d="M158.8,390.6c.9,3.4,3.3,8.3,9.9,9.3" class="g9_22"/>
<path d="M175.3,400.1H829.8" class="ga_22"/>
<path d="M836.2,399.5c3.5,-.9,8.3,-3.3,9.3,-9.9" class="g9_22"/>
<path d="M845.7,382.9V307.6" class="ga_22"/>
<path d="M845.2,301.1c-.9,-3.4,-3.4,-8.3,-9.9,-9.3" class="g9_22"/>
<path d="M828.7,291.7H174.1" class="ga_22"/>
<path d="M158.3,303.1c0,.5,-.1,1,-.1,1.5v1.8m0,78.9v1.8c0,0,0,.6,.2,1.5M169.7,400c.5,0,1,.1,1.5,.1H173m658,0h1.7c0,0,.6,0,1.6,-.2m11.3,-11.3c.1,-.5,.1,-1,.1,-1.5v-1.8m0,-78.9v-1.8c0,0,0,-.6,-.2,-1.5M834.3,291.7c-.5,0,-1.1,0,-1.6,0H831m-658,0h-1.8c0,0,-.6,0,-1.5,.1" class="gb_22"/>
<path d="M175.1,476.8H474V710.7H175.1V476.8Zm359.5,0h86.6v78H534.6v-78Zm0,78h86.6v77.9H534.6V554.8Zm0,77.9h86.6v78H534.6v-78Z" class="g7_22"/>
<path d="M474,476.8h60.6v78H474v-78Zm0,78h60.6v77.9H474V554.8Zm0,77.9h60.6v78H474v-78Z" class="gc_22"/>
<path d="M175,476.8H473.4m-298.3,78V477m360.1,-.2h86.2m-.2,77.8V477M175.1,632.7V554.8m299.4,0H534m1.2,0h86.2m-.2,77.8V554.9M175.1,710.5V632.7m299.4,0H534m1.2,0h86.2m-.2,77.8V632.9M175,710.7H473.4m61.8,0h86.2" class="gd_22"/>
<path d="M474,550.9V479.6m3.8,-2.8h54" class="ge_22"/>
<path d="M474,554.8v-1.7m0,-74.6v-1.7h1.6m57.3,0h1.7v.6" class="gf_22"/>
<path d="M534.6,550.9V479.6" class="ge_22"/>
<path d="M534.6,554.8v-1.7m0,-74.6v-1.7" class="gf_22"/>
<path d="M474,628.9V557.6" class="ge_22"/>
<path d="M474,632.7v-1.6m0,-74.6v-1.7" class="gf_22"/>
<path d="M534.6,628.9V557.6" class="ge_22"/>
<path d="M534.6,632.7v-1.6m0,-74.6v-1.7" class="gf_22"/>
<path d="M474,706.8V635.5" class="ge_22"/>
<path d="M474.5,710.7H474V709m0,-74.6v-1.7" class="gf_22"/>
<path d="M477.8,710.7h54" class="ge_22"/>
<path d="M474,710.7h1.6m57.3,0h1.7v-.6" class="gf_22"/>
<path d="M534.6,706.8V635.5" class="ge_22"/>
<path d="M534.6,710.7V709m0,-74.6v-1.7" class="gf_22"/>
<image clip-path="url(#c3_22)" preserveAspectRatio="none" x="225" y="486" width="203" height="213" xlink:href="img/3.jpg"/>
<path d="M504.1,512.5c-.9,0,-1.7,.3,-2.4,1c-.6,.6,-.9,1.4,-.9,2.3c0,1,.3,1.8,.9,2.4c.7,.6,1.5,1,2.4,1c.9,0,1.7,-.4,2.3,-1c.7,-.6,1,-1.4,1,-2.4c0,-.9,-.3,-1.7,-1,-2.3c-.6,-.7,-1.4,-1,-2.3,-1Z" class="gg_22"/>
<path d="M179.5,880.3H396V988.6H179.5V880.3Zm216.5,0H846.4V988.6H396V880.3Z" class="g7_22"/>
<path d="M179.3,880.3H396M179.5,988.4V880.5M396,880.3H846.6M396,988.4V880.5M846.4,988.4V880.5M179.3,988.6H396m0,0H846.6" class="gh_22"/>
<image clip-path="url(#c4_22)" preserveAspectRatio="none" x="-1" y="862" width="360" height="281" xlink:href="img/4.jpg"/>
<path d="M179.5,993.2h99.6v39H179.5v-39Zm99.6,0H396v39H279.1v-39Zm116.9,0H846.4v155.9H396V993.2Zm-216.5,39h99.6v39H179.5v-39Zm99.6,0H396v39H279.1v-39Zm-99.6,39h99.6v38.9H179.5v-38.9Zm99.6,0H396v38.9H279.1v-38.9Zm-99.6,38.9h99.6v39H179.5v-39Zm99.6,0H396v39H279.1v-39Z" class="g7_22"/>
<path d="M179.3,993.2h99.8M179.5,1032V993.4m99.6,-.2H396M279.1,1032V993.4M396,993.2H846.6M396,1032V993.4m450.4,38.8V993.4m-667.1,38.8h99.8M179.5,1071v-38.7m99.6,-.1H396.2M279.1,1071v-38.7M396,1071v-38.7m450.4,38.9v-39m-667.1,39h99.8M179.5,1110v-38.7m99.6,-.1H396.2M279.1,1110v-38.7M396,1110v-38.7m450.4,38.8v-38.9m-667.1,38.9h99.8M179.5,1149v-38.7m99.6,-.2H396.2M279.1,1149v-38.7M396,1149v-38.7M846.4,1149v-38.9m-667.1,39h99.8m0,0H396m0,0H846.6" class="gh_22"/>
<path d="M629.2,476.8H738.6v57.7H629.2V476.8Zm109.4,0h60v57.7h-60V476.8ZM629.2,534.5H738.6v57.6H629.2V534.5Zm109.4,0h60v57.6h-60V534.5ZM629.2,592.1H738.6v57.6H629.2V592.1Zm109.4,0h60v57.6h-60V592.1ZM629.2,649.7H738.6v61H629.2v-61Zm109.4,0h60v61h-60v-61Z" class="g7_22"/>
<path d="M629,476.8H738.6M629.2,534.3V477m109.4,-.2h60.2m-60.2,57.5V477m60,57.3V477M629,534.5H738.6M629.2,591.9V534.6m109.4,-.1h60.2m-60.2,57.4V534.6m60,57.3V534.6M629,592.1H738.6M629.2,649.6V592.3m109.4,-.2h60.2m-60.2,57.5V592.3m60,57.3V592.3M629,649.7H738.6M629.2,710.5V649.9m109.4,-.2h60.2m-60.2,60.8V649.9m60,60.6V649.9M629,710.7H738.6m0,0h60.2" class="gd_22"/>
<path d="M396.6,527.4c5.7,-7.1,19.2,-22.2,33.3,-25.3m7.3,2.4c.5,1.1,.1,2.5,-2.4,4.1" class="gi_22"/>
<path d="M429.5,503.6c2.5,-2.8,7.8,-6.5,19,-8.4" class="gj_22"/>
<path d="M456.2,494.4c6.3,-.3,18.1,-.1,30.5,3.7" class="gi_22"/>
<path d="M393.7,531.2c0,0,.3,-.5,1,-1.3m36.8,-28.1c.5,-.1,1,-.1,1.5,-.2c0,0,.8,.2,1.6,.7m-1.3,7.2c-.4,.2,-1,.5,-1.5,.7c0,0,-.7,.2,-1.6,.1m-2.6,-1.5c-.2,-.5,-.3,-1,-.2,-1.6c0,0,.1,-.5,.5,-1.3m22,-10.9c.5,-.1,.9,-.2,1.4,-.2c0,0,.6,-.1,1.6,-.2m35.4,3.9c.5,.2,1,.4,1.5,.6" class="gk_22"/>
<path d="M487.9,502.1l1.6,-6.1l6.5,6.3Z" class="gl_22"/>
<path d="M379.4,636.4c5.7,-8.4,20.6,-28.6,37.3,-35m6.5,0c1.9,1,2.9,2.9,-2.4,6.8" class="gj_22"/>
<path d="M415.7,603.2c2.7,-3.5,8.5,-8.5,20.9,-13m7.7,-2.3c7,-1.8,21.2,-4.7,36.3,-3.6" class="gi_22"/>
<path d="M376.9,640.1c0,0,.3,-.4,.8,-1.2m40.4,-38c.4,-.2,.9,-.3,1.4,-.4c0,0,.5,0,1.2,.1m-.9,8.3c-.4,.3,-.7,.5,-1.1,.8c0,0,-.8,.2,-1.7,.3m-3.2,-.8c-.2,-.4,-.4,-.9,-.4,-1.6c0,0,.1,-.6,.6,-1.6m24.2,-16.3c.5,-.2,1,-.4,1.5,-.6c0,0,.6,-.1,1.6,-.4m40.9,-4.2c.6,0,1.1,.1,1.6,.1" class="gk_22"/>
<path d="M482.3,587.9l.7,-6.2l7.4,5.3Z" class="gl_22"/>
<path d="M337.5,634.5c9.9,9.9,41,39.5,63.3,41.5" class="gi_22"/>
<path d="M407.5,673.9c1.6,-1.5,1.6,-3.7,-5.7,-5.7" class="gj_22"/>
<path d="M402.4,676.5c3.6,1.8,10.8,3.8,24.7,4m8.1,-.1c8,-.4,25.1,-2.1,41.6,-8.1" class="gi_22"/>
<path d="M334.4,631.2c0,0,.3,.4,1,1.1m66.9,43.8c.5,0,1,0,1.5,0c0,0,.6,-.3,1.3,-.6m-4.7,-7.7c-.4,-.1,-.9,-.2,-1.4,-.3c0,0,-.5,.4,-.8,1.3m-.1,3c.1,.5,.3,1,.5,1.5c0,0,.2,.6,1,1.4m29.2,5.9c.5,0,1.1,0,1.6,0c0,0,.6,0,1.6,-.1m46.2,-8.8c.5,-.2,1,-.4,1.5,-.5" class="gk_22"/>
<path d="M477.2,668.6l2.8,5.6l5,-7.5Z" class="gl_22"/>
<path d="M32.1,45.1H9.2m958.3,0h22.9M32.1,1331.3H9.2m958.3,0h22.9M45.1,32.1V9.2m0,1335.1v22.9M954.5,32.1V9.2m0,1335.1v22.9" class="gm_22"/>
<path d="M32.1,45.1H9.2m958.3,0h22.9M32.1,1331.3H9.2m958.3,0h22.9M45.1,32.1V9.2m0,1335.1v22.9M954.5,32.1V9.2m0,1335.1v22.9" class="gn_22"/>
<path d="M27.5,32.1H0m972.1,0h27.5M27.5,1344.3H0m972.1,0h27.5M32.1,27.5V0m0,1348.9v27.5M967.5,27.5V0m0,1348.9v27.5" class="gm_22"/>
<path d="M27.5,32.1H0m972.1,0h27.5M27.5,1344.3H0m972.1,0h27.5M32.1,27.5V0m0,1348.9v27.5M967.5,27.5V0m0,1348.9v27.5" class="gn_22"/>
</svg>