<?xml version="1.0" encoding="UTF-8" standalone="no"?>
<!DOCTYPE svg PUBLIC "-//W3C//DTD SVG 1.1//EN"
"http://www.w3.org/Graphics/SVG/1.1/DTD/svg11.dtd">
<svg viewBox="0 0 999 1376" version="1.1" xmlns="http://www.w3.org/2000/svg" xmlns:xlink="http://www.w3.org/1999/xlink">
<defs>
<clipPath id="c0_305"><path d="M32.1,1344.3V32.1H967.5V1344.3Z"/></clipPath>
<clipPath id="c1_305"><path d="M700.2,193.8V68.1H847.6V193.8Z"/></clipPath>
<clipPath id="c2_305"><path d="M215,407.1v-83H831.1v83Z"/></clipPath>
<clipPath id="c3_305"><path d="M215,587.3V482.8H831.1V587.3Z"/></clipPath>
<clipPath id="c4_305"><path d="M215,791.3V663.2H831.1V791.3Z"/></clipPath>
<style type="text/css"><![CDATA[
.g0_305{
fill: #FEFCF4;
}
.g1_305{
fill: #F16865;
}
.g2_305{
fill: #6381B7;
}
.g3_305{
fill: none;
stroke: #6381B7;
stroke-width: 0.381;
stroke-dasharray: 2,1;
}
.g4_305{
fill: none;
stroke: #6381B7;
stroke-width: 0.381;
}
.g5_305{
fill: #FEF9F9;
}
.g6_305{
fill: none;
stroke: #A164A9;
stroke-width: 1.527;
stroke-linecap: round;
stroke-linejoin: round;
stroke-dasharray: 0,5;
}
.g7_305{
fill: none;
stroke: #A164A9;
stroke-width: 1.527;
stroke-linecap: round;
stroke-linejoin: round;
}
.g8_305{
fill: #A164A9;
}
.g9_305{
fill: #FFF;
}
.ga_305{
fill: none;
stroke: #231F20;
stroke-width: 0.305;
stroke-miterlimit: 10;
}
.gb_305{
fill: none;
stroke: #8CC63E;
stroke-width: 1.527;
stroke-linecap: round;
stroke-linejoin: round;
stroke-dasharray: 0,5;
}
.gc_305{
fill: none;
stroke: #8CC63E;
stroke-width: 1.527;
stroke-linecap: round;
stroke-linejoin: round;
}
.gd_305{
fill: #8CC63E;
}
.ge_305{
fill: #6CCFF6;
}
.gf_305{
fill: none;
stroke: #231F20;
stroke-width: 1.375;
stroke-miterlimit: 10;
}
.gg_305{
fill: #485E75;
}
.gh_305{
fill: #EAD646;
}
.gi_305{
fill: none;
stroke: #231F20;
stroke-width: 1.527;
}
.gj_305{
fill: none;
stroke: #FFF;
stroke-width: 1.909;
stroke-miterlimit: 10;
}
.gk_305{
fill: none;
stroke: #000;
stroke-width: 0.381;
stroke-miterlimit: 10;
}
]]></style>
</defs>
<path clip-path="url(#c0_305)" d="M-877.3,1344.3H45.1V32.1H-877.3V1344.3Z" class="g0_305"/>
<path d="M45.1,1344.3H967.5V32.1H45.1V1344.3Z" class="g0_305"/>
<path clip-path="url(#c0_305)" d="M867.9,166.7c0,0,30.3,0,30.3,-30.3v-4.3c0,0,0,-30.3,-30.3,-30.3H-735.4c0,0,-30.4,0,-30.4,30.3v4.3c0,0,0,30.3,30.4,30.3Z" class="g1_305"/>
<path d="M706.3,878.2c0,0,-4.3,0,-4.3,4.3v10.9c0,0,0,4.3,4.3,4.3h30.3c0,0,4.4,0,4.4,-4.3V882.5c0,0,0,-4.3,-4.4,-4.3Z" class="g2_305"/>
<path d="M693.1,870.7v34.9m1.4,.9H866.8m.9,-1.3V870.3m-1.3,-.9H694.1" class="g3_305"/>
<path d="M693.1,906v.5h.6m173.4,0h.6V906m0,-36.1v-.5h-.6m-173.4,0h-.6v.5" class="g4_305"/>
<image clip-path="url(#c1_305)" preserveAspectRatio="none" x="700" y="68" width="148" height="126" xlink:href="img/1.png"/>
<path d="M154.1,862.8h713V249.4h-713V862.8Z" class="g5_305"/>
<path d="M154.1,254V860.5m4.6,2.3H864.9m2.2,-4.6V251.7m-4.5,-2.3H156.4" class="g6_305"/>
<path d="M154.1,862.8v0m713.1,0v0m0,-613.4v0m-713.1,0v0" class="g7_305"/>
<path d="M153.3,265.3V227c0,0,0,-8.7,8.7,-8.7H859.3c0,0,8.6,0,8.6,8.7v38.9Z" class="g8_305"/>
<image clip-path="url(#c2_305)" preserveAspectRatio="none" x="215" y="324" width="615" height="84" xlink:href="img/2.png"/>
<path d="M218.3,400.9H824.6V327.3H218.3v73.6Z" class="g9_305"/>
<path d="M473,357.1h52" class="ga_305"/>
<image clip-path="url(#c3_305)" preserveAspectRatio="none" x="215" y="483" width="615" height="105" xlink:href="img/3.png"/>
<path d="M218.3,581.3H824.6V486H218.3v95.3Z" class="g9_305"/>
<path d="M742.6,515.8h64.7m-576,26h99.3" class="ga_305"/>
<image clip-path="url(#c4_305)" preserveAspectRatio="none" x="215" y="664" width="615" height="128" xlink:href="img/4.png"/>
<path d="M218.3,785H824.6V666.4H218.3V785Z" class="g9_305"/>
<path d="M439.4,696.2h93.1" class="ga_305"/>
<path d="M154.1,1243.9h713V1040.2h-713v203.7Z" class="g9_305"/>
<path d="M154.1,1044.8v196.8m4.6,2.3H864.9m2.2,-4.6V1042.5m-4.5,-2.3H156.4" class="gb_305"/>
<path d="M154.1,1243.9v0m713.1,0v0m0,-203.7v0m-713.1,0v0" class="gc_305"/>
<path d="M153.3,1044.8v-28.6c0,0,0,-8.7,8.7,-8.7H859.3c0,0,8.6,0,8.6,8.7v29.2Z" class="gd_305"/>
<path d="M187.2,1021.3v-6.4c0,-4.8,-3.9,-8.7,-8.7,-8.7c-4.8,0,-8.6,3.9,-8.6,8.7v6.4Z" class="ge_305"/>
<path d="M187.2,1021.3v-6.4c0,-4.8,-3.9,-8.7,-8.7,-8.7c-4.8,0,-8.6,3.9,-8.6,8.7v6.4h17.3Z" class="gf_305"/>
<path d="M169.9,1023.1v5.3c0,4.8,3.8,8.7,8.6,8.7c4.8,0,8.7,-3.9,8.7,-8.7v-5.3Z" class="ge_305"/>
<path d="M169.9,1023.1v5.3c0,4.8,3.8,8.7,8.6,8.7c4.8,0,8.7,-3.9,8.7,-8.7v-5.3H169.9Z" class="gf_305"/>
<path d="M178.4,1042c-7.1,0,-13,-6,-13,-13.3h2.4c0,6,4.8,10.9,10.6,10.9c5.8,0,10.6,-4.9,10.6,-10.9h2.4c0,7.3,-5.8,13.3,-13,13.3Z" class="gg_305"/>
<path d="M178.4,1042c-7.1,0,-13,-6,-13,-13.3h2.4c0,6,4.8,10.9,10.6,10.9c5.8,0,10.6,-4.9,10.6,-10.9h2.4c0,7.3,-5.8,13.3,-13,13.3Z" class="gf_305"/>
<path d="M177.5,1049.1h2.4v-8h-2.4v8Z" class="gg_305"/>
<path d="M177.5,1049.1h2.4v-8h-2.4v8Z" class="gf_305"/>
<path d="M178.6,1045.5c-3.6,0,-6.6,2.2,-6.7,4.9h13.4c-.1,-2.7,-3.1,-4.9,-6.7,-4.9Z" class="gg_305"/>
<path d="M178.6,1045.5c-3.6,0,-6.6,2.2,-6.7,4.9h13.4c-.1,-2.7,-3.1,-4.9,-6.7,-4.9Z" class="gf_305"/>
<path d="M201.3,1001c-6.5,0,-11.9,5.4,-11.9,12c0,2.7,.9,5.1,2.4,7.1l-1.5,5.4l5.5,-2c1.7,.9,3.5,1.4,5.5,1.4c6.6,0,12,-5.4,12,-11.9c0,-6.6,-5.4,-12,-12,-12Z" class="gh_305"/>
<path d="M201.3,1001c-6.5,0,-11.9,5.4,-11.9,12c0,2.7,.9,5.1,2.4,7.1l-1.5,5.4l5.5,-2c1.7,.9,3.5,1.4,5.5,1.4c6.6,0,12,-5.4,12,-11.9c0,-6.6,-5.4,-12,-12,-12Z" class="gf_305"/>
<path d="M196.9,1012.8c0,.7,-.7,1.4,-1.4,1.4c-.8,0,-1.4,-.7,-1.4,-1.4c0,-.8,.6,-1.4,1.4,-1.4c.7,0,1.4,.6,1.4,1.4Z" class="g9_305"/>
<path d="M196.9,1012.8c0,.7,-.7,1.4,-1.4,1.4c-.8,0,-1.4,-.7,-1.4,-1.4c0,-.8,.6,-1.4,1.4,-1.4c.7,0,1.4,.6,1.4,1.4Z" class="gf_305"/>
<path d="M203,1012.8c0,.8,-.6,1.4,-1.4,1.4c-.8,0,-1.4,-.6,-1.4,-1.4c0,-.8,.6,-1.4,1.4,-1.4c.8,0,1.4,.6,1.4,1.4Z" class="g9_305"/>
<path d="M203,1012.8c0,.8,-.6,1.4,-1.4,1.4c-.8,0,-1.4,-.6,-1.4,-1.4c0,-.8,.6,-1.4,1.4,-1.4c.8,0,1.4,.6,1.4,1.4Z" class="gf_305"/>
<path d="M209.1,1012.8c0,.8,-.6,1.4,-1.4,1.4c-.8,0,-1.4,-.6,-1.4,-1.4c0,-.8,.6,-1.4,1.4,-1.4c.8,0,1.4,.6,1.4,1.4Z" class="g9_305"/>
<path d="M209.1,1012.8c0,.8,-.6,1.4,-1.4,1.4c-.8,0,-1.4,-.6,-1.4,-1.4c0,-.8,.6,-1.4,1.4,-1.4c.8,0,1.4,.6,1.4,1.4Z" class="gf_305"/>
<path d="M785.7,1027.2c0,0,-.5,-9.9,8.6,-9.3c0,0,6.8,-.4,6.7,9.5m-15.3,-1.5v6.5c0,0,-3.4,.3,-4,-3c0,0,0,-3.8,4,-3.5Zm15.3,0v6.5c0,0,3.4,.3,3.9,-3c0,0,.1,-3.8,-3.9,-3.5Z" class="gi_305"/>
<path d="M32.1,45.1H9.2m958.3,0h22.9M32.1,1331.3H9.2m958.3,0h22.9M45.1,32.1V9.2m0,1335.1v22.9M954.5,32.1V9.2m0,1335.1v22.9" class="gj_305"/>
<path d="M32.1,45.1H9.2m958.3,0h22.9M32.1,1331.3H9.2m958.3,0h22.9M45.1,32.1V9.2m0,1335.1v22.9M954.5,32.1V9.2m0,1335.1v22.9" class="gk_305"/>
<path d="M27.5,32.1H0m972.1,0h27.5M27.5,1344.3H0m972.1,0h27.5M32.1,27.5V0m0,1348.9v27.5M967.5,27.5V0m0,1348.9v27.5" class="gj_305"/>
<path d="M27.5,32.1H0m972.1,0h27.5M27.5,1344.3H0m972.1,0h27.5M32.1,27.5V0m0,1348.9v27.5M967.5,27.5V0m0,1348.9v27.5" class="gk_305"/>
</svg>