<?xml version="1.0" encoding="UTF-8" standalone="no"?>
<!DOCTYPE svg PUBLIC "-//W3C//DTD SVG 1.1//EN"
"http://www.w3.org/Graphics/SVG/1.1/DTD/svg11.dtd">
<svg viewBox="0 0 999 1376" version="1.1" xmlns="http://www.w3.org/2000/svg" xmlns:xlink="http://www.w3.org/1999/xlink">
<defs>
<clipPath id="c0_286"><path d="M233.2,355V249.4H338.8V355Z"/></clipPath>
<clipPath id="c1_286"><path d="M367.7,355V249.4H485.2V355Z"/></clipPath>
<clipPath id="c2_286"><path d="M505.9,353.4v-104H623.3v104Z"/></clipPath>
<clipPath id="c3_286"><path d="M655.7,352V249.4H762.1V352Z"/></clipPath>
<clipPath id="c4_286"><path d="M231.5,514.7V408.5H343.8V514.7Z"/></clipPath>
<clipPath id="c5_286"><path d="M368.2,514.7V408.5H486.6V514.7Z"/></clipPath>
<clipPath id="c6_286"><path d="M501.9,514.7V408.5h126V514.7Z"/></clipPath>
<clipPath id="c7_286"><path d="M644,514.7V408.5H761.6V514.7Z"/></clipPath>
<clipPath id="c8_286"><path d="M323.7,684.3V573.1H447.3V684.3Z"/></clipPath>
<clipPath id="c9_286"><path d="M524.2,684.3V573.1H647.8V684.3Z"/></clipPath>
<clipPath id="ca_286"><path d="M172.6,1150.3v-64.2h74.1v64.2Z"/></clipPath>
<clipPath id="cb_286"><path d="M175,1062.3V998.4h62.2v63.9Z"/></clipPath>
<clipPath id="cc_286"><path d="M530.1,1063.2v-65h80.2v65Z"/></clipPath>
<clipPath id="cd_286"><path d="M176.6,235.2l-6.5,-2.1l-16.4,-14V162h72v73.2Z"/></clipPath>
<clipPath id="ce_286"><path d="M176.6,816.5l-6.5,-2.1L153.7,800.5V743.4h72v73.1Z"/></clipPath>
<clipPath id="cf_286"><path d="M172.6,978.4V916.5h71.8v61.9Z"/></clipPath>
<clipPath id="cg_286"><path d="M529.4,984.5V918h71.8v66.5Z"/></clipPath>
<style type="text/css"><![CDATA[
.g0_286{
fill: #FEFCF4;
}
.g1_286{
fill: #FFF;
}
.g2_286{
fill: none;
stroke: #6381B7;
stroke-width: 0.763;
}
.g3_286{
fill: #48484A;
}
.g4_286{
fill: #F0E8F3;
}
.g5_286{
fill: #766FA6;
}
.g6_286{
fill: none;
stroke: #949698;
stroke-width: 1.132;
}
.g7_286{
fill: none;
stroke: #949698;
stroke-width: 1.191;
}
.g8_286{
fill: #6381B7;
}
.g9_286{
fill: none;
stroke: #6381B7;
stroke-width: 0.381;
stroke-dasharray: 2,1;
}
.ga_286{
fill: none;
stroke: #6381B7;
stroke-width: 0.381;
}
.gb_286{
fill: none;
stroke: #231F20;
stroke-width: 0.305;
stroke-miterlimit: 10;
}
.gc_286{
fill: #FCE8B0;
}
.gd_286{
fill: #25408F;
}
.ge_286{
fill: #00BAF1;
}
.gf_286{
fill: #332D2C;
}
.gg_286{
fill: #D9DFF0;
}
.gh_286{
fill: #F27C85;
}
.gi_286{
fill: #7DD3F6;
}
.gj_286{
fill: none;
stroke: #FFF;
stroke-width: 1.909;
stroke-miterlimit: 10;
}
.gk_286{
fill: none;
stroke: #000;
stroke-width: 0.381;
stroke-miterlimit: 10;
}
]]></style>
</defs>
<path d="M32.1,1344.3H954.5V32.1H32.1V1344.3Z" class="g0_286"/>
<path d="M144.8,832.6c0,0,-13,0,-13,13v362.8c0,0,0,12.9,13,12.9H832.9c0,0,13,0,13,-12.9V845.6c0,0,0,-13,-13,-13Z" class="g1_286"/>
<path d="M144.8,832.6c0,0,-13,0,-13,13v362.8c0,0,0,12.9,13,12.9H832.9c0,0,13,0,13,-12.9V845.6c0,0,0,-13,-13,-13H144.8Z" class="g2_286"/>
<path d="M194.6,1169.4c0,0,-4.3,0,-4.3,4.3v14.7c0,0,0,4.4,4.1,5.8l28,9.5c0,0,4.1,1.4,6.6,-2.2l19.4,-28.6c0,0,2.5,-3.5,-1.8,-3.5Z" class="g3_286"/>
<path d="M215.7,1156.4c0,0,-13,0,-13,13v26.1c0,0,0,13,13,13H821.1c0,0,13,0,13,-13v-26.1c0,0,0,-13,-13,-13Z" class="g4_286"/>
<path d="M194.6,1167.2c0,0,-4.3,0,-4.3,4.3v17.4c0,0,0,4.3,4.3,4.3h37.3c0,0,4.3,0,4.3,-4.3v-17.4c0,0,0,-4.3,-4.3,-4.3Z" class="g5_286"/>
<path d="M150.4,133.7c0,0,-18.3,0,-18.3,18.3V716c0,0,0,18.4,18.3,18.4H827.5c0,0,18.4,0,18.4,-18.4V133.7Z" class="g1_286"/>
<path d="M150.4,133.7c0,0,-18.3,0,-18.3,18.3V716c0,0,0,18.4,18.3,18.4H827.5c0,0,18.4,0,18.4,-18.4V133.7H150.4Z" class="g2_286"/>
<image clip-path="url(#c0_286)" preserveAspectRatio="none" x="233" y="249" width="106" height="106" xlink:href="img/1.jpg"/>
<path d="M222.8,355H347.9V249.4H222.8V355Z" class="g6_286"/>
<image clip-path="url(#c1_286)" preserveAspectRatio="none" x="368" y="248" width="117" height="108" xlink:href="img/2.jpg"/>
<path d="M362.5,355H487.7V249.4H362.5V355Z" class="g6_286"/>
<image clip-path="url(#c2_286)" preserveAspectRatio="none" x="506" y="248" width="117" height="106" xlink:href="img/3.jpg"/>
<path d="M502.3,355H627.4V249.4H502.3V355Z" class="g6_286"/>
<image clip-path="url(#c3_286)" preserveAspectRatio="none" x="656" y="248" width="106" height="104" xlink:href="img/4.jpg"/>
<path d="M642,355H767.2V249.4H642V355Z" class="g6_286"/>
<image clip-path="url(#c4_286)" preserveAspectRatio="none" x="231" y="408" width="112" height="108" xlink:href="img/5.jpg"/>
<path d="M222.8,514.7H347.9V409.1H222.8V514.7Z" class="g6_286"/>
<image clip-path="url(#c5_286)" preserveAspectRatio="none" x="369" y="408" width="117" height="108" xlink:href="img/6.jpg"/>
<path d="M362.5,514.7H487.7V409.1H362.5V514.7Z" class="g6_286"/>
<image clip-path="url(#c6_286)" preserveAspectRatio="none" x="501" y="408" width="127" height="108" xlink:href="img/7.jpg"/>
<path d="M502.3,514.7H627.4V409.1H502.3V514.7Z" class="g6_286"/>
<image clip-path="url(#c7_286)" preserveAspectRatio="none" x="644" y="408" width="117" height="108" xlink:href="img/8.jpg"/>
<path d="M642,514.7H767.2V409.1H642V514.7Z" class="g6_286"/>
<path d="M181.6,396.4H818.2v-39H181.6v39Z" class="g1_286"/>
<path d="M181.5,561H818.1V522H181.5v39Z" class="g1_286"/>
<image clip-path="url(#c8_286)" preserveAspectRatio="none" x="324" y="572" width="123" height="113" xlink:href="img/9.jpg"/>
<path d="M322.4,684.3H454.2V573.1H322.4V684.3Z" class="g7_286"/>
<image clip-path="url(#c9_286)" preserveAspectRatio="none" x="524" y="572" width="124" height="113" xlink:href="img/10.jpg"/>
<path d="M521.9,684.3H653.7V573.1H521.9V684.3Z" class="g7_286"/>
<path d="M545.7,1235.7c0,0,-4.4,0,-4.4,4.3v10.8c0,0,0,4.4,4.4,4.4H576c0,0,4.3,0,4.3,-4.4V1240c0,0,0,-4.3,-4.3,-4.3Z" class="g8_286"/>
<path d="M532.5,1226.8v37.6m1.3,1H845.1m1,-1.4v-37.5m-1.4,-1H533.4" class="g9_286"/>
<path d="M532.5,1264.8v.6h.5m312.5,0h.6v-.6m0,-38.7v-.6h-.6m-312.5,0h-.5v.6" class="ga_286"/>
<path d="M306.2,1109.2h72.5" class="gb_286"/>
<path d="M172.8,1150.2h77.4v-63.9H172.8v63.9Z" class="g1_286"/>
<image clip-path="url(#ca_286)" preserveAspectRatio="none" x="172" y="1082" width="75" height="70" xlink:href="img/11.jpg"/>
<path d="M306.2,1014.8h72.5" class="gb_286"/>
<path d="M175,1062.3h62.2V998.4H175v63.9Z" class="g1_286"/>
<image clip-path="url(#cb_286)" preserveAspectRatio="none" x="172" y="995" width="71" height="69" xlink:href="img/12.jpg"/>
<path d="M643,1013.7h72.4" class="gb_286"/>
<path d="M525.6,1067.1h88.7V998.4H525.6v68.7Z" class="g1_286"/>
<image clip-path="url(#cc_286)" preserveAspectRatio="none" x="529" y="996" width="82" height="68" xlink:href="img/13.jpg"/>
<path d="M209.2,190.2c0,0,-13,0,-13,13v21.6c0,0,0,13,13,13h602c0,0,13,0,13,-13V203.2c0,0,0,-13,-13,-13Z" class="gc_286"/>
<image clip-path="url(#cd_286)" preserveAspectRatio="none" x="152" y="160" width="75" height="77" xlink:href="img/14.png"/>
<path d="M204,230.5c0,0,-26.8,11.3,-51.1,-12.8c0,0,15.2,25.3,49.3,24c0,0,24.8,.3,20.3,-10.1c0,0,1.2,-4.5,-18.5,-1.1Z" class="gc_286"/>
<path d="M209.2,745.6c0,0,-13,0,-13,13v47.6c0,0,0,13,13,13H833.3c0,0,13,0,13,-13V758.6c0,0,0,-13,-13,-13Z" class="gc_286"/>
<image clip-path="url(#ce_286)" preserveAspectRatio="none" x="152" y="742" width="75" height="76" xlink:href="img/15.png"/>
<path d="M204,811.8c0,0,-26.8,11.3,-51.1,-12.7c0,0,15.2,25.3,49.3,23.9c0,0,24.8,.4,20.3,-10.1c0,0,1.2,-4.4,-18.5,-1.1Z" class="gc_286"/>
<path d="M630,962.5h72.4" class="gb_286"/>
<path d="M170.5,981.2h77.7v-64H170.5v64Z" class="g1_286"/>
<image clip-path="url(#cf_286)" preserveAspectRatio="none" x="173" y="913" width="71" height="65" xlink:href="img/16.jpg"/>
<path d="M530.1,986h71V917.7h-71V986Z" class="g1_286"/>
<image clip-path="url(#cg_286)" preserveAspectRatio="none" x="530" y="917" width="72" height="68" xlink:href="img/17.jpg"/>
<path d="M316.6,962.5h72.5" class="gb_286"/>
<path d="M169.6,907.7H820.3V874.8H169.6v32.9Z" class="g1_286"/>
<path d="M131.7,126.7v22.2l11.7,10.3V137Z" class="gd_286"/>
<path d="M131.7,109.9v39H829.4c0,0,16.9,0,16.9,-16.8v-5.4c0,0,0,-16.8,-16.9,-16.8Z" class="g8_286"/>
<path d="M189.6,121.3l-6.4,-6.5L162,136l6.4,6.5Z" class="ge_286"/>
<path d="M168.4,143c.2,0,.3,0,.4,-.1L190,121.7c.1,-.1,.2,-.3,.2,-.4c0,-.1,-.1,-.3,-.2,-.4l-6.5,-6.4c-.2,-.2,-.5,-.2,-.7,0l-21.2,21.2c-.1,.1,-.2,.2,-.2,.3c0,.2,.1,.3,.2,.4l6.5,6.5c.1,.1,.2,.1,.3,.1m20.5,-21.7l-20.5,20.5L162.7,136l20.5,-20.4Z" class="gf_286"/>
<path d="M189.6,121.3l-6.4,-6.5l2.1,-2.1l6.5,6.5Z" class="gg_286"/>
<path d="M189.6,121.8c.2,0,.3,0,.4,-.1l2.1,-2.1c.1,-.1,.2,-.3,.2,-.4c0,-.2,-.1,-.3,-.2,-.4l-6.4,-6.5c-.2,-.2,-.6,-.2,-.8,0l-2.1,2.2c-.1,0,-.2,.2,-.2,.3c0,.2,.1,.3,.2,.4l6.5,6.5c.1,.1,.2,.1,.3,.1m1.4,-2.6l-1.4,1.4l-5.7,-5.8l1.4,-1.4Z" class="gf_286"/>
<path d="M195.4,115.6l-6.5,-6.5l-3.6,3.6l6.5,6.5Z" class="gh_286"/>
<path d="M191.8,119.7c.1,0,.2,0,.3,-.1l3.7,-3.7c.2,-.2,.2,-.5,0,-.7l-6.5,-6.5c-.2,-.2,-.6,-.2,-.8,0l-3.6,3.6c-.2,.2,-.2,.6,0,.8l6.5,6.5c.1,.1,.2,.1,.4,.1m2.8,-4.1l-2.8,2.8L186,112.7l2.9,-2.9Z" class="gf_286"/>
<path d="M157.3,147.2L162,136l6.4,6.5Z" class="g1_286"/>
<path d="M157.3,147.7c.1,0,.2,0,.2,-.1L168.6,143c.2,-.1,.3,-.2,.4,-.4c0,-.2,-.1,-.3,-.2,-.5l-6.5,-6.4c-.1,-.2,-.3,-.2,-.5,-.2c-.1,.1,-.3,.2,-.3,.3l-4.7,11.1c0,.2,0,.5,.1,.6c.1,.1,.3,.2,.4,.2m10.2,-5.4l-9.2,3.9l3.8,-9.2Z" class="gf_286"/>
<path d="M157.3,147.2l2.3,-5.4l3.1,3.1Z" class="gf_286"/>
<path d="M157.3,147.7c.1,0,.2,0,.2,-.1l5.4,-2.2c.1,-.1,.3,-.2,.3,-.4c0,-.2,0,-.3,-.1,-.5l-3.2,-3.1c-.1,-.1,-.3,-.2,-.4,-.1c-.2,0,-.4,.1,-.4,.3l-2.3,5.3c0,.2,0,.5,.1,.6c.1,.1,.3,.2,.4,.2m4.5,-3l-3.5,1.5l1.4,-3.5Z" class="gf_286"/>
<path d="M187.9,119.5l-3,-2.9l-21.2,21.2l3,3Z" class="gi_286"/>
<path d="M166.7,141.3c.1,0,.2,-.1,.3,-.2l21.3,-21.2c.1,-.1,.1,-.2,.1,-.4c0,-.1,0,-.2,-.1,-.3l-3,-3c-.2,-.2,-.5,-.2,-.8,0l-21.2,21.2c-.1,.1,-.1,.3,-.1,.4c0,.1,0,.3,.1,.4l3,2.9c.1,.1,.2,.2,.4,.2m20.4,-21.8L166.7,140l-2.2,-2.2l20.4,-20.5Z" class="gf_286"/>
<path d="M32.1,45.1H9.2m958.3,0h22.9M32.1,1331.3H9.2m958.3,0h22.9M45.1,32.1V9.2m0,1335.1v22.9M954.5,32.1V9.2m0,1335.1v22.9" class="gj_286"/>
<path d="M32.1,45.1H9.2m958.3,0h22.9M32.1,1331.3H9.2m958.3,0h22.9M45.1,32.1V9.2m0,1335.1v22.9M954.5,32.1V9.2m0,1335.1v22.9" class="gk_286"/>
<path d="M27.5,32.1H0m972.1,0h27.5M27.5,1344.3H0m972.1,0h27.5M32.1,27.5V0m0,1348.9v27.5M967.5,27.5V0m0,1348.9v27.5" class="gj_286"/>
<path d="M27.5,32.1H0m972.1,0h27.5M27.5,1344.3H0m972.1,0h27.5M32.1,27.5V0m0,1348.9v27.5M967.5,27.5V0m0,1348.9v27.5" class="gk_286"/>
</svg>