<?xml version="1.0" encoding="UTF-8" standalone="no"?>
<!DOCTYPE svg PUBLIC "-//W3C//DTD SVG 1.1//EN"
"http://www.w3.org/Graphics/SVG/1.1/DTD/svg11.dtd">
<svg viewBox="0 0 999 1376" version="1.1" xmlns="http://www.w3.org/2000/svg" xmlns:xlink="http://www.w3.org/1999/xlink">
<defs>
<clipPath id="c0_126"><path d="M32.1,1344.3V32.1H967.5V1344.3Z"/></clipPath>
<clipPath id="c1_126"><path d="M176.6,522.5l-6.5,-2.1L153.7,506.5V449.4h72v73.1Z"/></clipPath>
<clipPath id="c2_126"><path d="M176.6,884l-6.5,-2.1L153.7,868V810.9h72V884Z"/></clipPath>
<clipPath id="c3_126"><path d="M764.8,417.6V405.1h14.5v12.5Z"/></clipPath>
<clipPath id="c4_126"><path d="M557.7,812.1V653.7H820.1V812.1Z"/></clipPath>
<clipPath id="c5_126"><path d="M560.1,805.4V661.3H820.3V805.4Z"/></clipPath>
<clipPath id="c6_126"><path d="M559.8,805.1V661H820V805.1Z"/></clipPath>
<clipPath id="c7_126"><path d="M679.7,683.9c-.2,-.1,3.6,-8.3,3.6,-8.3l.8,.6c0,0,-4.1,7.7,-4.4,7.7Z"/></clipPath>
<clipPath id="c8_126"><path d="M687.2,676.1c0,0,-6.8,-1.1,-7.6,-5.2c-.6,-3.6,1.6,-3.8,2.1,-3.8c.1,0,.2,0,.2,0l8.3,-12.7l-1.5,-3.1c0,0,-.6,-1.1,.2,-2.1c0,-.1,.1,-.1,.3,-.1c2.1,0,12.9,5.5,12.9,5.5l.1,.2c-.4,.5,-.8,1.1,-1.4,1.6c-.7,.5,-5.1,1.2,-5.1,1.2l-8.5,18.5Z"/></clipPath>
<clipPath id="c9_126"><path d="M686.8,675.8c.2,-.5,.2,-1.8,0,-2.3v-1.4c-1.5,-.5,-2.8,-1.2,-3.6,-2.5c-1.1,.6,-2.1,1.3,-3.2,1.9c1.6,2.1,3.9,3.6,6.8,4.3Zm0,-3.9c2.2,-4.6,4,-9.5,6.2,-14.1c-.9,-.4,-1.9,-1.3,-2.7,-1.4c-2.2,4.4,-4.6,8.7,-7,12.9c.7,1.3,2.1,2,3.5,2.6ZM679.5,684c1.1,-2.9,2.4,-5.5,3.6,-8.3c-2,-1.6,-4,-3.2,-4.4,-6.2V668c-.1,-2.7,1.9,-3.4,4.5,-3.4c.1,0,.2,0,.2,0c2,-3.3,4.3,-6.3,6.2,-9.7c-.6,-.8,-1.2,-2.3,-.9,-3.6c.5,1.2,1.6,1.9,2.4,2.9c-.1,.6,-.3,1.1,-.4,1.7c.6,.7,1.4,1.2,2.4,1.4c.5,-.4,.5,-1.2,1.1,-1.5c1,.4,1.9,.8,3.2,.8c.1,.1,.5,.1,.8,.1c.3,0,.7,0,.8,-.1c.1,0,.2,0,.3,0c.2,0,.5,-.1,.6,-.1c.2,-.1,.4,-.2,.6,-.2c.1,0,.2,.1,.3,.1c-1.3,.7,-2.2,1.8,-4.2,1.8c-.1,0,-.2,0,-.3,0c-.9,3.7,-1.9,7.4,-2.7,11.2c.6,1,1.5,1.7,1.3,3.1c-.5,2.7,-3.9,4.4,-7.2,4.4c-1.3,0,-2.5,-.2,-3.6,-.7c-1,2.1,-2.1,4.1,-3.3,6c0,-.4,.3,-.4,.2,-.8c1,-1.8,2,-3.5,2.7,-5.6c-1.1,1.7,-1.8,3.7,-2.8,5.5c-.2,.4,-.4,.9,-.6,1.3c-.3,.4,-.3,1.1,-.8,1.4Z"/></clipPath>
<clipPath id="ca_126"><path d="M697.3,656.2c-4.8,0,-13.1,-7.3,-5.6,-8.8H693c.2,0,.4,0,.6,0c0,0,.1,0,.1,0c0,0,.1,0,.2,0c.2,0,.5,0,.8,.1c3.1,.7,8.3,3.8,7.6,7c-.3,1.2,-1.6,1.6,-3.2,1.7h-1.7q-.1,0,-.1,0Z"/></clipPath>
<clipPath id="cb_126"><path d="M631.6,644.4V531.7H795V644.4Z"/></clipPath>
<clipPath id="cc_126"><path d="M636,638.2v-99H791.1v99Z"/></clipPath>
<clipPath id="cd_126"><path d="M635.7,637.9v-99H790.8v99Z"/></clipPath>
<clipPath id="ce_126"><path d="M703,553.6c-.3,-.1,3.6,-8.2,3.6,-8.2l.7,.5c0,0,-4,7.7,-4.3,7.7Z"/></clipPath>
<clipPath id="cf_126"><path d="M710.5,545.9c0,0,-6.8,-1.1,-7.6,-5.2c-.6,-3.6,1.6,-3.9,2.1,-3.9q.1,0,.1,0l8.4,-12.7L712,521c0,0,-.6,-1.1,.1,-2.1c.1,0,.2,-.1,.3,-.1c2.1,0,13,5.6,13,5.6l.1,.1c-.4,.5,-.8,1.2,-1.4,1.7c-.7,.5,-5.1,1.1,-5.1,1.1l-8.5,18.6Z"/></clipPath>
<clipPath id="cg_126"><path d="M710.1,545.5c.2,-.4,.2,-1.8,0,-2.2v-1.4c-1.5,-.5,-2.9,-1.3,-3.6,-2.5c-1.1,.6,-2.2,1.2,-3.2,1.9c1.6,2.1,3.8,3.5,6.8,4.2Zm0,-3.9c2.2,-4.5,4,-9.5,6.2,-14c-.9,-.4,-1.9,-1.4,-2.7,-1.4c-2.3,4.3,-4.6,8.6,-7,12.8c.7,1.3,2.1,2,3.5,2.6Zm-7.3,12.1c1.1,-2.9,2.4,-5.5,3.5,-8.3c-1.9,-1.5,-3.9,-3.1,-4.4,-6.2v-1.5c0,-2.7,2,-3.4,4.6,-3.4c.1,0,.2,0,.2,0c2,-3.3,4.2,-6.3,6.2,-9.6c-.6,-.9,-1.2,-2.4,-.9,-3.7c.5,1.3,1.6,1.9,2.4,2.9c-.1,.6,-.3,1.1,-.4,1.8c.6,.6,1.3,1.2,2.4,1.3c.4,-.4,.5,-1.2,1.1,-1.5c1,.4,1.9,.8,3.2,.8c.1,.1,.4,.2,.8,.2c.3,0,.7,-.1,.8,-.2c.1,0,.2,0,.3,0c.2,0,.4,0,.6,-.1c.2,-.1,.4,-.1,.5,-.1c.1,0,.3,0,.4,.1c-1.4,.6,-2.2,1.7,-4.2,1.7c-.1,0,-.2,0,-.4,0c-.8,3.8,-1.8,7.4,-2.6,11.2c.5,1.1,1.5,1.7,1.2,3.2c-.4,2.7,-3.8,4.4,-7.2,4.4c-1.2,0,-2.5,-.3,-3.6,-.8c-1,2.1,-2,4.1,-3.2,6c-.1,-.3,.3,-.4,.2,-.7c1,-1.8,2,-3.6,2.7,-5.7c-1.1,1.7,-1.9,3.7,-2.8,5.6c-.2,.4,-.4,.8,-.6,1.2c-.3,.4,-.3,1.1,-.8,1.4Z"/></clipPath>
<clipPath id="ch_126"><path d="M720.5,525.9c-4.7,0,-13,-7.3,-5.5,-8.8h1.3c.2,.1,.4,.1,.7,.1c0,0,.1,0,.2,0c.2,0,.5,0,.8,0c3.1,.7,8.2,3.8,7.6,7.1c-.3,1.1,-1.6,1.6,-3.2,1.6h-1.7q-.1,0,-.2,0Z"/></clipPath>
<clipPath id="ci_126"><path d="M125.6,386.7V205.8H858.8V386.7Z"/></clipPath>
<style type="text/css"><![CDATA[
.g0_126{
fill: #FEFCF4;
}
.g1_126{
fill: #FFF;
}
.g2_126{
fill: none;
stroke: #6381B7;
stroke-width: 0.763;
}
.g3_126{
fill: #6381B7;
}
.g4_126{
fill: none;
stroke: #6381B7;
stroke-width: 0.381;
stroke-dasharray: 2,1;
}
.g5_126{
fill: none;
stroke: #6381B7;
stroke-width: 0.381;
}
.g6_126{
fill: #FCE8B0;
}
.g7_126{
fill: #2E6E51;
}
.g8_126{
fill: none;
stroke: #FFF;
stroke-width: 0.152;
stroke-miterlimit: 1;
}
.g9_126{
fill: #BCBEC0;
}
.ga_126{
fill: #EE314A;
}
.gb_126{
fill: #25408F;
}
.gc_126{
fill: #A8AAAD;
}
.gd_126{
fill: none;
stroke: #949698;
stroke-width: 0.549;
}
.ge_126{
fill: none;
stroke: #BCBEC0;
stroke-width: 2.566;
}
.gf_126{
fill: #231F20;
}
.gg_126{
fill: #363637;
}
.gh_126{
fill: #5CC4BE;
}
.gi_126{
fill: #F0D73F;
}
.gj_126{
fill: #F7C2D9;
}
.gk_126{
fill: #FDF4F3;
}
.gl_126{
fill: #EC008C;
}
.gm_126{
fill: none;
stroke: #818385;
stroke-width: 0.305;
stroke-dasharray: 4,4;
}
.gn_126{
fill: none;
stroke: #818385;
stroke-width: 0.305;
}
.go_126{
fill: none;
stroke: #949698;
stroke-width: 0.305;
stroke-dasharray: 4,4;
}
.gp_126{
fill: none;
stroke: #949698;
stroke-width: 0.305;
stroke-dasharray: 3,3;
}
.gq_126{
fill: none;
stroke: #949698;
stroke-width: 0.305;
}
.gr_126{
fill: #6D6F71;
}
.gs_126{
fill: none;
stroke: #818385;
stroke-width: 0.305;
stroke-dasharray: 3,3;
}
.gt_126{
fill: none;
stroke: #00ABE5;
stroke-width: 2.291;
}
.gu_126{
fill: #3D3B39;
}
.gv_126{
fill: #E5E9B7;
}
.gw_126{
fill: #61C7CB;
}
.gx_126{
fill: none;
stroke: #00ABE5;
stroke-width: 1.527;
stroke-linecap: round;
stroke-linejoin: round;
stroke-dasharray: 0,5;
}
.gy_126{
fill: none;
stroke: #00ABE5;
stroke-width: 1.527;
stroke-linecap: round;
stroke-linejoin: round;
}
.gz_126{
fill: #CEEDFB;
}
.g10_126{
fill: #27639D;
}
.g11_126{
fill: none;
stroke: #204A78;
stroke-width: 1.527;
}
.g12_126{
fill: none;
stroke: #FFF;
stroke-width: 1.909;
stroke-miterlimit: 10;
}
.g13_126{
fill: none;
stroke: #000;
stroke-width: 0.381;
stroke-miterlimit: 10;
}
]]></style>
</defs>
<path clip-path="url(#c0_126)" d="M954.5,1344.3H1877V32.1H954.5V1344.3Z" class="g0_126"/>
<path d="M32.1,1344.3H954.5V32.1H32.1V1344.3Z" class="g0_126"/>
<path d="M150.3,424.3c0,0,-18.3,0,-18.3,18.3V774.5c0,0,0,18.4,18.3,18.4H827.4c0,0,18.4,0,18.4,-18.4V424.3Z" class="g1_126"/>
<path d="M150.3,424.3c0,0,-18.3,0,-18.3,18.3V774.5c0,0,0,18.4,18.3,18.4H827.4c0,0,18.4,0,18.4,-18.4V424.3H150.3Z" class="g2_126"/>
<path d="M145.3,801.3c0,0,-13,0,-13,13V943.4c0,0,0,13,13,13H833.2c0,0,12.9,0,12.9,-13V814.3c0,0,0,-13,-12.9,-13Z" class="g1_126"/>
<path d="M145.3,801.3c0,0,-13,0,-13,13V943.4c0,0,0,13,13,13H833.2c0,0,12.9,0,12.9,-13V814.3c0,0,0,-13,-12.9,-13H145.3Z" class="g2_126"/>
<path d="M594.4,970.1c0,0,-4.4,0,-4.4,4.4v10.8c0,0,0,4.3,4.4,4.3h30.3c0,0,4.3,0,4.3,-4.3V974.5c0,0,0,-4.4,-4.3,-4.4Z" class="g3_126"/>
<path d="M581.2,961.3v37.6m1.3,.9H845m1,-1.3V960.9m-1.4,-.9H582.1" class="g4_126"/>
<path d="M581.2,999.2v.6h.6m263.6,0h.6v-.6m0,-38.7V960h-.6m-263.6,0h-.6v.5" class="g5_126"/>
<path d="M209.2,451.5c0,0,-13,0,-13,13v47.7c0,0,0,13,13,13h602c0,0,13,0,13,-13V464.5c0,0,0,-13,-13,-13Z" class="g6_126"/>
<image clip-path="url(#c1_126)" preserveAspectRatio="none" x="152" y="448" width="75" height="76" xlink:href="img/1.png"/>
<path d="M204,517.8c0,0,-26.8,11.3,-51.1,-12.8c0,0,15.2,25.4,49.3,24c0,0,24.8,.4,20.3,-10.1c0,0,1.2,-4.5,-18.5,-1.1Z" class="g6_126"/>
<path d="M209.2,839.1c0,0,-13,0,-13,12.9v21.7c0,0,0,13,13,13h602c0,0,13,0,13,-13V852c0,0,0,-12.9,-13,-12.9Z" class="g6_126"/>
<image clip-path="url(#c2_126)" preserveAspectRatio="none" x="152" y="809" width="75" height="77" xlink:href="img/2.png"/>
<path d="M204,879.3c0,0,-26.8,11.3,-51.1,-12.7c0,0,15.2,25.3,49.3,23.9c0,0,24.8,.4,20.3,-10.1c0,0,1.2,-4.4,-18.5,-1.1Z" class="g6_126"/>
<path d="M32.1,179.3H967.5V32.1H32.1V179.3Z" class="g7_126"/>
<path d="M262,135.2L260.8,134c-.1,0,-.3,0,-.4,0c-.4,0,-.7,-.2,-.9,-.6c0,-.2,-.1,-.6,-.2,-1.2l-.5,-.5c0,1.1,.1,2.2,.1,3.2c.1,1.1,.1,2.1,.2,3.2H259c-1.5,-2.6,-3.1,-3.9,-4.9,-3.9c-.4,0,-.9,.1,-1.4,.3c-.5,.1,-1,.4,-1.6,.7c-.5,.4,-.9,.8,-1.3,1.2c-.3,.4,-.4,.9,-.4,1.3c0,.2,.1,.5,.3,.7c.2,.2,.4,.3,.6,.3c.2,0,.5,-.1,.9,-.3c.2,-.1,.3,-.1,.5,-.2c.1,0,.2,0,.3,0c.5,0,.8,.4,.8,1.2c0,.5,-.4,1.1,-1.3,1.9l1.7,.6l4.3,-4.2c.1,.1,.2,.2,.4,.4c.2,.2,.3,.4,.5,.6c.1,.3,.3,.5,.3,.7c.1,.3,.2,.5,.2,.6l-.2,6.4l1.3,1.3V135.2h2Zm-8.5,4.2c0,-.7,-.1,-1.2,-.4,-1.6c-.2,-.5,-.7,-.7,-1.4,-.7c.6,-1.1,1.5,-1.6,2.8,-1.6c.7,0,1.4,.3,1.9,.9l-2.9,3Zm13.1,-4.2L265.4,134h-1.1c-.3,-.4,-.6,-1,-.7,-1.9l-.5,-.3c0,.2,.1,.5,.1,.9c0,.3,0,.7,0,1.2c.1,.5,.1,.9,.1,1.3c0,.3,0,.6,0,.9c-.2,-.8,-.5,-1.3,-.9,-1.6c-.4,-.3,-1,-.5,-1.7,-.5h-1.4l1.2,1.2c.4,0,.7,.1,1,.2c.3,.1,.6,.3,.9,.5c.2,.2,.4,.4,.6,.7c.1,.3,.2,.7,.2,1v8.9l1.1,1.2V135.2h2.3Zm-1.5,-6.6c-.3,.6,-.5,1.2,-.9,1.5c-.4,.4,-.7,.6,-1.2,.6c-1,0,-1.9,-.8,-2.7,-2.3l-.6,-.1c.4,1.2,.9,2.1,1.5,2.7c.5,.7,1.2,1,1.8,1c.7,0,1.3,-.3,1.8,-.9c.5,-.5,.7,-1.2,.7,-1.9c0,-.4,-.1,-.6,-.4,-.6Zm-2.7,.9c.2,.1,.4,.2,.6,.2c.2,0,.4,-.1,.6,-.2c.1,-.2,.2,-.4,.2,-.6c0,-.3,-.1,-.4,-.2,-.6c-.2,-.2,-.4,-.3,-.6,-.3c-.2,0,-.4,.1,-.6,.3c-.2,.2,-.3,.3,-.3,.6c0,.2,.1,.4,.3,.6Zm12.8,4.5H264.9l1.2,1.2h1.8v9.1c0,.4,.2,.9,.7,1.5c.4,.5,.9,.7,1.3,.7c1.2,0,2.4,-.7,3.5,-2.2c1.1,-1.4,1.7,-2.7,1.7,-3.9c.1,-1,-1,-1.8,-3,-2.5c-2.1,-.6,-3.1,-1.5,-3.1,-2.7h7.4L275.2,134Zm-1.9,6.8c0,.7,-.5,1.5,-1.4,2.6c-.8,1,-1.6,1.5,-2.3,1.5c-.3,0,-.5,-.2,-.5,-.7v-7c.8,1.5,2.2,2.5,4.1,3.1c0,0,.1,.2,.1,.5Zm15.1,-8.9c-2.3,-2.4,-4.7,-3.6,-7.2,-3.6c-1,0,-2,.4,-3.1,1.2c-1.1,.9,-1.6,1.8,-1.6,2.7c0,.4,.1,.7,.5,1l.8,.8h-3.2l1.2,1.2h1.8v11.3l1.2,1.2V135.2h2.1L279.7,134h-1.3l-.5,-1.1c.1,-.9,.6,-1.6,1.7,-2.3c.9,-.7,1.8,-1,2.7,-1c.6,0,1.2,.1,1.8,.2c.6,.2,1.1,.4,1.7,.7c.6,.4,1.1,.7,1.6,1c.5,.4,.9,.7,1.3,1l-.3,-.6Zm2.9,3.3L290.1,134h-.6c0,-1.1,-.2,-2,-.7,-2.6c-.5,-.6,-1.3,-.9,-2.4,-.9c-.3,0,-.8,.1,-1.5,.1c-.3,.1,-.6,.1,-.8,.1c-.3,0,-.5,0,-.7,0c-.5,0,-.9,-.1,-1.3,-.3c-.4,-.2,-.6,-.6,-.6,-1.1c0,-.2,.1,-.4,.3,-.6c0,-.1,0,-.2,0,-.2c0,-.1,-.1,-.2,-.1,-.2c-.5,0,-.8,.5,-.8,1.4c0,.9,.4,1.6,1.2,2c.8,.5,1.6,.7,2.6,.7c.1,0,.2,0,.4,0c.2,-.1,.4,-.1,.6,-.1c.5,-.1,.9,-.1,1.1,-.1c1.1,0,1.6,.3,1.5,1c0,.2,0,.3,0,.4c0,.2,0,.3,0,.4h-9.1l1.1,1.2h1.9v8c.2,.9,.5,1.6,.9,2c.5,.5,1.1,.7,1.9,.7c1.1,0,2.2,-.6,3.2,-1.8c1,-1.2,1.5,-2.3,1.5,-3.5c0,-.4,-.1,-.7,-.2,-1.1c0,-.3,-.2,-.6,-.3,-.9c-.5,-.7,-1,-1,-1.7,-1c-.5,0,-.8,.2,-1.1,.5c-.3,.3,-.4,.7,-.4,1.1c0,.4,.1,.8,.4,1c.4,.3,.7,.4,1.1,.4h.4c-.1,.8,-.5,1.6,-1.1,2.5c-.8,.8,-1.5,1.3,-2.2,1.3c-.5,0,-.9,-.3,-1.2,-.8v-8.4h7.9ZM312.6,134H297.4l1.2,1.2h11.8v8.2L308.8,142c.2,-.6,.3,-1.3,.3,-1.9c0,-.8,-.2,-1.6,-.6,-2.2c-.3,-.5,-.6,-.9,-1.1,-1.2c-.4,-.3,-.8,-.6,-1.3,-.7c-.3,-.1,-.6,-.2,-.9,-.2c-.7,0,-1.4,.2,-2,.7c-.3,.2,-.5,.5,-.7,.8c-.2,.3,-.2,.6,-.2,.9c0,.4,0,.7,.2,.9c.3,.5,.7,.7,1.2,.8c.6,.1,1,0,1.4,-.3c.3,-.2,.5,-.4,.7,-.6c.1,-.3,.2,-.5,.2,-.8c0,-.3,-.1,-.6,-.4,-1c.2,-.1,.5,-.1,.7,0c.2,0,.5,.1,.8,.3c.1,.2,.3,.4,.5,.7c.2,.3,.3,.6,.4,.9c.1,.3,.1,.5,.1,.7c0,.6,-.2,1.1,-.5,1.7c-.5,.8,-1.4,1.3,-2.8,1.3c-.6,0,-1.1,-.2,-1.7,-.5c-.5,-.3,-1,-.8,-1.5,-1.4c-.4,-.5,-.8,-1.2,-1.2,-2c-.3,-.8,-.6,-1.7,-.8,-2.7l-.7,-.3c.1,1,.3,2,.5,2.9c.3,.9,.6,1.7,1,2.3c.3,.5,.7,1,1,1.5c.4,.4,.8,.8,1.2,1.1c.4,.3,.8,.6,1.2,.7c.4,.2,.8,.3,1.2,.3c.8,0,1.4,-.2,2,-.4c.5,-.3,.9,-.7,1.2,-1.2c1.5,.9,2.4,2.4,3,4.5v-.1l.4,.3V135.2h2.2L312.6,134Zm5.5,1.2L317,134h-1.1c-.4,-.4,-.6,-1,-.8,-1.9l-.4,-.3c0,.2,0,.5,0,.9c0,.3,.1,.7,.1,1.2c0,.5,.1,.9,.1,1.3c0,.3,0,.6,0,.9c-.2,-.8,-.6,-1.3,-1,-1.6c-.4,-.3,-.9,-.5,-1.7,-.5h-1.3l1.2,1.2c.3,0,.7,.1,1,.2c.3,.1,.6,.3,.8,.5c.3,.2,.5,.4,.6,.7c.2,.3,.2,.7,.2,1v8.9l1.2,1.2V135.2h2.2Zm6.2,-1.2h-7.9l1.2,1.2h3.9c-1.7,2,-2.5,4,-2.5,6.1c0,1.5,.3,2.8,.9,3.9c.8,1.4,1.8,2.1,3.2,2.1c.3,0,.6,0,.9,-.1c.2,-.1,.5,-.2,.7,-.4c.2,-.2,.3,-.4,.4,-.7c.1,-.2,.2,-.5,.2,-.8c0,-.4,-.1,-.9,-.4,-1.2c-.3,-.3,-.7,-.5,-1.1,-.5c-.3,0,-.7,.2,-1,.4c-.3,.3,-.4,.6,-.4,1c0,.2,0,.4,.1,.7c.2,.2,.4,.4,.6,.6c-.7,.2,-1.4,-.2,-2.2,-1.3c-.5,-.7,-.7,-1.5,-.7,-2.3c0,-1,.1,-1.9,.3,-2.7c.2,-.7,.6,-1.4,1,-2.1c.4,-.7,1,-1.3,1.6,-1.7c.7,-.5,1.5,-.8,2.4,-1L324.3,134Zm14,1.2L337.1,134c-.2,0,-.3,0,-.4,0c-.4,0,-.8,-.2,-.9,-.6c-.1,-.2,-.1,-.6,-.2,-1.2l-.6,-.5c.1,1.1,.1,2.2,.2,3.2c.1,1.1,.1,2.1,.2,3.2h-.1c-1.5,-2.6,-3.1,-3.9,-4.9,-3.9c-.4,0,-.9,.1,-1.4,.3c-.6,.1,-1.1,.4,-1.6,.7c-.5,.4,-1,.8,-1.3,1.2c-.3,.4,-.4,.9,-.4,1.3c0,.2,.1,.5,.2,.7c.2,.2,.5,.3,.7,.3c.2,0,.5,-.1,.9,-.3c.2,-.1,.3,-.1,.4,-.2c.2,0,.3,0,.4,0c.5,0,.7,.4,.7,1.2c0,.5,-.4,1.1,-1.2,1.9l1.7,.6l4.2,-4.2c.2,.1,.3,.2,.5,.4c.1,.2,.3,.4,.4,.6c.2,.3,.3,.5,.4,.7c.1,.3,.1,.5,.1,.6l-.1,6.4l1.2,1.3V135.2h2.1Zm-8.6,4.2c.1,-.7,0,-1.2,-.3,-1.6c-.3,-.5,-.7,-.7,-1.4,-.7c.6,-1.1,1.5,-1.6,2.8,-1.6c.7,0,1.3,.3,1.9,.9l-3,3ZM351,135.2L349.8,134H336.5l1.3,1.2h9.8v3.3c-.5,-1.3,-1.3,-2,-2.3,-2c-.3,0,-.6,.2,-.9,.5c-.4,.3,-.5,.6,-.5,1c-.9,-1,-1.8,-1.6,-2.8,-1.6c-.8,0,-1.5,.4,-2,1.2c-.4,.7,-.6,1.4,-.6,2.3c0,.5,0,1,.2,1.4c.2,.4,.4,.8,.7,1.1c.3,.3,.7,.5,1.1,.7c.5,.1,.9,.2,1.4,.2c.7,-.1,1.1,-.2,1.5,-.5c.3,-.3,.5,-.7,.5,-1.2c0,-1.1,-.6,-1.7,-1.7,-1.7c-.3,0,-.6,.1,-.9,.3c-.3,.3,-.4,.6,-.4,1c0,.2,.1,.6,.4,1c-1.2,-.2,-1.8,-.8,-1.8,-1.7c0,-.3,.1,-.6,.2,-.9c.1,-.3,.3,-.5,.5,-.7c.2,-.2,.5,-.4,.7,-.5c.3,-.1,.6,-.2,.9,-.2c.7,0,1.3,.2,1.8,.6c.5,.4,.8,1,.9,1.6l.5,-.2c0,-.3,-.1,-.5,-.1,-.7c0,-.9,.4,-1.3,1.1,-1.3c.4,0,.8,.2,1.1,.5c.3,.3,.4,.7,.4,1.1v6.9l1.3,1.1V135.2H351Zm19.6,-3.3c-2.3,-2.4,-4.7,-3.6,-7.2,-3.6c-1,0,-2,.4,-3.1,1.2c-1.1,.9,-1.6,1.8,-1.6,2.7c0,.4,.1,.7,.5,1l.8,.8h-3.2l1.2,1.2h1.8v11.3l1.2,1.2V135.2h2.1L361.9,134h-1.3l-.5,-1.1c.1,-.9,.6,-1.6,1.7,-2.3c.9,-.7,1.8,-1,2.7,-1c.6,0,1.2,.1,1.8,.2c.6,.2,1.1,.4,1.7,.7c.6,.4,1.1,.7,1.6,1c.5,.4,.9,.7,1.3,1l-.3,-.6Zm4,3.3L373.4,134H361.6l1.2,1.2h1.3v7.1l1.6,1.7c.5,-1.1,1.2,-2.1,2.1,-2.9c.8,-.9,1.8,-1.5,2.9,-1.9c-.3,1,-.4,2.1,-.4,3.1c0,.6,0,1.3,.2,2.2c.1,.8,.3,1.8,.5,3l.8,.4c-.3,-1.6,-.4,-2.8,-.4,-3.7c0,-.9,.1,-1.8,.4,-2.8c.3,-1,.7,-2,1.2,-3l-1.9,-1.5c-.4,.1,-.9,.3,-1.4,.6c-.4,.2,-.9,.5,-1.5,.8c-.5,.4,-1,.7,-1.5,1.2c-.5,.4,-.9,.8,-1.3,1.3v-5.6h9.2Zm11.1,0L384.5,134H372.8l1.2,1.2h8.4v6.6c-1.3,-2.6,-2.8,-4,-4.5,-4c-.8,0,-1.4,.3,-2.1,.9c-.5,.5,-.8,1.2,-.8,2c0,1.5,.8,2.2,2.3,2.2c.5,0,.9,-.2,1.2,-.5c.3,-.4,.4,-.8,.4,-1.3c0,-.3,-.2,-.8,-.8,-1.5c.1,-.1,.2,-.1,.4,-.1c1.3,0,2.4,.8,3.3,2.5c.7,1.4,1,2.9,1,4.2l-.1,1.3l.9,.6V135.2h2.1Z" class="g8_126"/>
<g clip-path="url(#c0_126)">
<path d="M1877,177.2H32.1v-5.4H768.7c43.1,0,53,-37.9,115.3,-37.9h993Z" class="g9_126"/>
<path d="M1877,183.7H32.1v-9.8H768.7c43.1,0,53,-33.6,115.3,-33.6h993Z" class="ga_126"/>
</g>
<path d="M131.7,397v38.9l11.7,10.3V402Z" class="gb_126"/>
<path d="M131.7,397v38.9H829.5c0,0,16.8,0,16.8,-16.8v-5.3c0,0,0,-16.8,-16.8,-16.8Z" class="g3_126"/>
<path d="M781,430.6c8.2,0,14.8,-6.5,14.8,-14.5c0,-8,-6.6,-14.5,-14.8,-14.5c-8.3,0,-14.9,6.5,-14.9,14.5c0,8,6.6,14.5,14.9,14.5Z" class="gc_126"/>
<path d="M781,430.6c8.2,0,14.8,-6.5,14.8,-14.5c0,-8,-6.6,-14.5,-14.8,-14.5c-8.3,0,-14.9,6.5,-14.9,14.5c0,8,6.6,14.5,14.9,14.5Z" class="gd_126"/>
<path d="M781,421.4c3,0,5.4,-2.4,5.4,-5.3c0,-3,-2.4,-5.4,-5.4,-5.4c-3.1,0,-5.5,2.4,-5.5,5.4c0,2.9,2.4,5.3,5.5,5.3Z" class="g1_126"/>
<path d="M781,421.4c3,0,5.4,-2.4,5.4,-5.3c0,-3,-2.4,-5.4,-5.4,-5.4c-3.1,0,-5.5,2.4,-5.5,5.4c0,2.9,2.4,5.3,5.5,5.3Z" class="ge_126"/>
<g clip-path="url(#c3_126)" opacity="0.3">
<path d="M766.4,415.3c0,0,-.1,-4.8,3.6,-8.6l7.8,6.7c0,0,-1,.9,-1.1,2.6Z" class="g1_126"/>
</g>
<path d="M785.6,416c0,0,-3.5,0,-3.5,3.4v8.7c0,0,0,3.5,3.5,3.5H829c0,0,3.5,0,3.5,-3.5v-8.7c0,0,0,-3.4,-3.5,-3.4Z" class="gf_126"/>
<path d="M169.5,407c0,-8.3,-6.7,-15,-15,-15c-8.4,0,-15.1,6.7,-15.1,15c0,8.4,6.8,15.1,15.1,15.1c.8,0,1.6,-.1,2.4,-.2l4.5,5.2v-6.7c4.8,-2.5,8.1,-7.5,8.1,-13.4Z" class="g1_126"/>
<path d="M161.8,428.4l-5.1,-6c-.7,.1,-1.5,.2,-2.2,.2c-8.6,0,-15.6,-7,-15.6,-15.6c0,-8.5,7,-15.5,15.6,-15.5c8.5,0,15.5,7,15.5,15.5c0,5.8,-3.1,11,-8.2,13.7Zm-4.7,-7l3.8,4.5v-5.8l.3,-.1c4.8,-2.5,7.9,-7.5,7.9,-13c0,-8,-6.6,-14.5,-14.6,-14.5c-8.1,0,-14.6,6.5,-14.6,14.5c0,8.1,6.5,14.6,14.6,14.6c.7,0,1.5,0,2.3,-.2Z" class="gg_126"/>
<path d="M147.4,406.6c.8,0,1.5,.7,1.5,1.5c0,.7,-.7,1.4,-1.5,1.4c-.7,0,-1.4,-.7,-1.4,-1.4c0,-.8,.7,-1.5,1.4,-1.5Z" class="gh_126"/>
<path d="M147.4,409.9c-1,0,-1.8,-.8,-1.8,-1.8c0,-1.1,.8,-2,1.8,-2c1.1,0,1.9,.9,1.9,2c0,1,-.8,1.8,-1.9,1.8m0,-2.8c-.5,0,-.9,.4,-.9,1c0,.5,.4,.9,.9,.9c.6,0,1,-.4,1,-.9c0,-.6,-.4,-1,-1,-1Z" class="gg_126"/>
<path d="M154.5,406.6c.8,0,1.4,.7,1.4,1.5c0,.7,-.6,1.4,-1.4,1.4c-.8,0,-1.5,-.7,-1.5,-1.4c0,-.8,.7,-1.5,1.5,-1.5Z" class="gh_126"/>
<path d="M154.5,409.9c-1.1,0,-1.9,-.8,-1.9,-1.8c0,-1.1,.8,-2,1.9,-2c1,0,1.9,.9,1.9,2c0,1,-.9,1.8,-1.9,1.8m0,-2.8c-.6,0,-1,.4,-1,1c0,.5,.4,.9,1,.9c.5,0,.9,-.4,.9,-.9c0,-.6,-.4,-1,-.9,-1Z" class="gg_126"/>
<path d="M161.5,406.6c.8,0,1.4,.7,1.4,1.5c0,.7,-.6,1.4,-1.4,1.4c-.8,0,-1.5,-.7,-1.5,-1.4c0,-.8,.7,-1.5,1.5,-1.5Z" class="gh_126"/>
<path d="M161.5,409.9c-1.1,0,-1.9,-.8,-1.9,-1.8c0,-1.1,.8,-2,1.9,-2c1,0,1.9,.9,1.9,2c0,1,-.9,1.8,-1.9,1.8m0,-2.8c-.6,0,-1,.4,-1,1c0,.5,.4,.9,1,.9c.5,0,1,-.4,1,-.9c0,-.6,-.5,-1,-1,-1Z" class="gg_126"/>
<path d="M163.4,421.3c0,-9.7,7.9,-17.6,17.6,-17.6c9.7,0,17.6,7.9,17.6,17.6c0,9.7,-7.9,17.6,-17.6,17.6c-.9,0,-1.9,-.1,-2.8,-.2l-5.3,6.1v-7.9c-5.6,-2.9,-9.5,-8.8,-9.5,-15.6Z" class="gi_126"/>
<path d="M172.9,445.2c0,0,-.1,0,-.1,0c-.2,-.1,-.3,-.2,-.3,-.4v-7.6c-5.9,-3.1,-9.6,-9.2,-9.6,-15.9c0,-10,8.2,-18.1,18.1,-18.1c10,0,18.1,8.1,18.1,18.1c0,9.9,-8.1,18.1,-18.1,18.1c-.8,0,-1.7,-.1,-2.6,-.2l-5.1,5.9c-.1,.1,-.2,.1,-.4,.1M181,404.1c-9.4,0,-17.1,7.7,-17.1,17.2c0,6.4,3.5,12.3,9.2,15.2c.2,.1,.3,.3,.3,.4v6.6l4.4,-5.1c.1,-.1,.3,-.2,.5,-.2c.9,.2,1.8,.2,2.7,.2c9.5,0,17.2,-7.7,17.2,-17.1c0,-9.5,-7.7,-17.2,-17.2,-17.2Z" class="gg_126"/>
<path d="M189.2,420.8c.9,0,1.7,.7,1.7,1.7c0,.9,-.8,1.6,-1.7,1.6c-.9,0,-1.7,-.7,-1.7,-1.6c0,-1,.8,-1.7,1.7,-1.7Z" class="g1_126"/>
<path d="M189.2,424.6c-1.2,0,-2.1,-1,-2.1,-2.1c0,-1.2,.9,-2.2,2.1,-2.2c1.2,0,2.1,1,2.1,2.2c0,1.1,-.9,2.1,-2.1,2.1m0,-3.3c-.7,0,-1.2,.5,-1.2,1.2c0,.6,.5,1.2,1.2,1.2c.7,0,1.2,-.6,1.2,-1.2c0,-.7,-.5,-1.2,-1.2,-1.2Z" class="gg_126"/>
<path d="M181,420.8c.9,0,1.7,.7,1.7,1.7c0,.9,-.8,1.6,-1.7,1.6c-.9,0,-1.7,-.7,-1.7,-1.6c0,-1,.8,-1.7,1.7,-1.7Z" class="g1_126"/>
<path d="M181,424.6c-1.2,0,-2.1,-1,-2.1,-2.1c0,-1.2,.9,-2.2,2.1,-2.2c1.2,0,2.1,1,2.1,2.2c0,1.1,-.9,2.1,-2.1,2.1m0,-3.3c-.7,0,-1.2,.5,-1.2,1.2c0,.6,.5,1.2,1.2,1.2c.7,0,1.2,-.6,1.2,-1.2c0,-.7,-.5,-1.2,-1.2,-1.2Z" class="gg_126"/>
<path d="M172.8,420.8c.9,0,1.7,.7,1.7,1.7c0,.9,-.8,1.6,-1.7,1.6c-.9,0,-1.7,-.7,-1.7,-1.6c0,-1,.8,-1.7,1.7,-1.7Z" class="g1_126"/>
<path d="M172.8,424.6c-1.2,0,-2.1,-1,-2.1,-2.1c0,-1.2,.9,-2.2,2.1,-2.2c1.2,0,2.1,1,2.1,2.2c0,1.1,-.9,2.1,-2.1,2.1m0,-3.3c-.7,0,-1.2,.5,-1.2,1.2c0,.6,.5,1.2,1.2,1.2c.7,0,1.2,-.6,1.2,-1.2c0,-.7,-.5,-1.2,-1.2,-1.2Z" class="gg_126"/>
<image clip-path="url(#c4_126)" preserveAspectRatio="none" x="558" y="654" width="262" height="159" xlink:href="img/3.png"/>
<path d="M562.5,676.6l10.4,129.3l240.9,-18L804.3,658.4Z" class="gj_126"/>
<image clip-path="url(#c5_126)" preserveAspectRatio="none" x="560" y="661" width="260" height="145" xlink:href="img/4.png"/>
<image clip-path="url(#c6_126)" preserveAspectRatio="none" x="559" y="661" width="261" height="145" xlink:href="img/5.png"/>
<path d="M565.1,670.6L567.3,799l209.4,-3.7l37,-20.3L811.8,666.3Z" class="gk_126"/>
<path d="M776.8,795.3L813.7,775l-13.5,-9.5Z" class="gl_126"/>
<image clip-path="url(#c7_126)" x="679" y="675" width="6" height="9" xlink:href="shade/1.png"/>
<image clip-path="url(#c8_126)" x="678" y="649" width="25" height="28" xlink:href="shade/2.png"/>
<image clip-path="url(#c9_126)" x="678" y="651" width="23" height="33" xlink:href="shade/3.png"/>
<image clip-path="url(#ca_126)" x="684" y="647" width="19" height="10" xlink:href="shade/4.png"/>
<path d="M380.6,570.2c29.5,-.5,53.4,-6,58.6,-13.1m-1,-7c-7,-6.6,-30.6,-11.6,-59.1,-11.9m-7.9,0c-29.4,.6,-53.4,6,-58.6,13.1m1.1,7c6.9,6.6,30.6,11.6,59.1,11.9" class="gm_126"/>
<path d="M440,555.7c.2,-.5,.3,-1,.3,-1.5c0,-.5,-.1,-1,-.3,-1.5M377.5,538.2c-.5,0,-1.1,0,-1.6,0c-.5,0,-1,0,-1.5,0m-62.5,14.5c-.2,.5,-.3,1,-.3,1.5c0,.5,.1,1,.3,1.5m62.5,14.5c.5,0,1,0,1.5,0c.5,0,1.1,0,1.6,0" class="gn_126"/>
<image clip-path="url(#cb_126)" preserveAspectRatio="none" x="631" y="532" width="163" height="113" xlink:href="img/6.png"/>
<path d="M636.4,554.6l10.9,83.8l141.8,-18l-10.3,-84Z" class="gj_126"/>
<image clip-path="url(#cc_126)" preserveAspectRatio="none" x="636" y="540" width="155" height="98" xlink:href="img/7.png"/>
<image clip-path="url(#cd_126)" preserveAspectRatio="none" x="636" y="539" width="155" height="99" xlink:href="img/8.png"/>
<path d="M640.6,547.7l2.9,84.1l118.2,-3.4l23.2,-14.6l-2.5,-70.2Z" class="gk_126"/>
<path d="M761.4,628.8l23.9,-15.2l-13.7,-4.9Z" class="gl_126"/>
<path d="M443.1,551.4c14.8,-3.8,33.5,-2.2,40.7,-1.3m7.3,2.2c10.2,4,36.4,12.9,52.2,5" class="go_126"/>
<path d="M546.5,551.9c.1,-2.7,-1,-5.5,-6.2,-3.6m-3.9,5.1c-.8,4.5,1.2,10.9,21.8,6.3" class="gp_126"/>
<path d="M565.2,557.3c10.3,-4.1,37.6,-13,65.2,-7.4" class="go_126"/>
<path d="M438.8,552.7c.4,-.1,.9,-.3,1.4,-.4m45.1,-2c1,.1,1.5,.2,1.5,.2c0,0,.5,.2,1.4,.6m56.4,5.4c.4,-.2,.9,-.5,1.3,-.8c0,0,.2,-.5,.3,-1.2m-7.1,-5.7c-.4,.2,-.8,.4,-1.2,.6c0,0,-.3,.5,-.7,1.2m22.3,8.8c.5,-.1,.9,-.2,1.4,-.3c0,0,.5,-.3,1.4,-.7m69.6,-8.2c.5,.1,1,.2,1.6,.3" class="gq_126"/>
<path d="M636.2,546.7l-3.4,8.2l12.2,.2Z" class="gr_126"/>
<image clip-path="url(#ce_126)" x="702" y="545" width="6" height="9" xlink:href="shade/5.png"/>
<image clip-path="url(#cf_126)" x="702" y="518" width="24" height="28" xlink:href="shade/6.png"/>
<image clip-path="url(#cg_126)" x="701" y="521" width="24" height="33" xlink:href="shade/7.png"/>
<image clip-path="url(#ch_126)" x="707" y="517" width="20" height="10" xlink:href="shade/8.png"/>
<path d="M382.3,694.1c5.2,-1.6,9.2,-6,10.2,-11.5m-.3,-7.3c-1.6,-5.3,-5.9,-9.4,-11.4,-10.5m-7.3,.4c-5.2,1.6,-9.2,6,-10.2,11.5m.3,7.3c1.6,5.3,6,9.4,11.4,10.5" class="gs_126"/>
<path d="M392.7,681.1c.1,-.5,.1,-1,.1,-1.5c0,-.5,0,-.9,-.1,-1.4M379.4,664.6c-.5,-.1,-1,-.1,-1.5,-.1c-.5,0,-1,0,-1.5,.1m-13.3,13.6c-.1,.5,-.1,.9,-.1,1.4c0,.5,0,1,.1,1.5m13.3,13.6c.5,.1,1,.1,1.5,.1c.5,0,1,0,1.5,-.1" class="gn_126"/>
<path d="M389.3,664.2c12,-2.6,46.4,-9.3,69.1,-5.5m4.8,3.4c-.9,.6,-3.5,1,-9.3,.5" class="gp_126"/>
<path d="M454.6,658.8c7.1,-.8,23.2,-1.2,53.8,4.4m7.7,1.5c9.3,1.9,30.7,6.6,47.1,13.1" class="go_126"/>
<path d="M385,665.1c0,0,.5,-.1,1.4,-.3M459.9,659c.5,0,.9,.1,1.4,.2c0,0,.6,.4,1.1,.8m-9.9,2.5c-.4,0,-.8,0,-1.3,-.1c0,0,-.5,-.2,-1,-.5m-1.1,-1.7c.2,-.2,.5,-.4,1,-.7c0,0,.4,-.1,1.5,-.3m58.3,4.3c.5,.1,1,.2,1.5,.3c0,0,.6,.1,1.6,.3m51.6,14.3c.5,.2,1,.4,1.5,.6" class="gq_126"/>
<path d="M560.9,680.7l7.9,-5.7l5,11.6Z" class="gr_126"/>
<path d="M132.8,1045.8v-28.7c0,0,0,-4.3,4.4,-4.3H840.8c0,0,4.3,0,4.3,4.3v29.2" class="gt_126"/>
<path d="M178.4,1013.3c2.7,0,4.8,-2.1,4.8,-4.8c0,-2.6,-2.1,-4.8,-4.8,-4.8c-2.6,0,-4.8,2.2,-4.8,4.8c0,2.7,2.2,4.8,4.8,4.8Z" class="g1_126"/>
<path d="M178.4,1015.2c3.7,0,6.7,-3,6.7,-6.7c0,-3.7,-3,-6.7,-6.7,-6.7c-3.7,0,-6.7,3,-6.7,6.7c0,3.7,3,6.7,6.7,6.7m0,-11.5c2.7,0,4.8,2.2,4.8,4.8c0,2.7,-2.1,4.8,-4.8,4.8c-2.6,0,-4.8,-2.1,-4.8,-4.8c0,-2.6,2.2,-4.8,4.8,-4.8Z" class="gu_126"/>
<path d="M183.8,1017.1H173c-.2,0,-.3,0,-.5,.1c2.8,1,5,3.3,5.9,6.1c1.3,-.5,2.8,-.7,4.3,-.7c2.8,0,5.4,.9,7.4,2.6v-1.7c0,-3.5,-2.8,-6.4,-6.3,-6.4Z" class="g1_126"/>
<path d="M162.3,1014.2c3.4,0,6.2,-2.8,6.2,-6.2c0,-3.4,-2.8,-6.1,-6.2,-6.1c-3.3,0,-6.1,2.7,-6.1,6.1c0,3.4,2.8,6.2,6.1,6.2Z" class="gv_126"/>
<path d="M162.3,1016c4.5,0,8.1,-3.6,8.1,-8c0,-4.4,-3.6,-8,-8.1,-8c-4.4,0,-8,3.6,-8,8c0,4.4,3.6,8,8,8m0,-14.1c3.4,0,6.2,2.7,6.2,6.1c0,3.4,-2.8,6.2,-6.2,6.2c-3.3,0,-6.1,-2.8,-6.1,-6.2c0,-3.4,2.8,-6.1,6.1,-6.1Z" class="gu_126"/>
<path d="M176.7,1024.2c-1,-3.4,-4,-5.8,-7.7,-5.8H155.7c-4.5,0,-8,3.6,-8,8v4.3h23.7c.9,-2.8,2.8,-5.1,5.3,-6.5Z" class="gv_126"/>
<path d="M182.7,1024.4c-5.5,0,-10,4.5,-10,10c0,5.5,4.5,10,10,10c5.5,0,10,-4.5,10,-10c0,-5.5,-4.5,-10,-10,-10m6.6,11.7c0,.3,-.2,.5,-.4,.5h-4.1v4c0,.3,-.2,.5,-.4,.5H181c-.3,0,-.5,-.2,-.5,-.5v-4h-4c-.3,0,-.5,-.2,-.5,-.5v-3.4c0,-.2,.2,-.4,.5,-.4h4v-4.1c0,-.2,.2,-.5,.5,-.5h3.4c.2,0,.4,.3,.4,.5v4.1h4.1c.2,0,.4,.2,.4,.4Z" class="gw_126"/>
<path d="M192,1027.1v-3.6c0,-4.6,-3.6,-8.3,-8.2,-8.3H173c-1.6,0,-3.1,.5,-4.4,1.3H155.7c-5.5,0,-9.9,4.4,-9.9,9.9v5.3c0,.5,.4,.9,.9,.9H171c-.1,.6,-.2,1.2,-.2,1.8c0,6.6,5.3,11.9,11.9,11.9c6.5,0,11.8,-5.3,11.8,-11.9c0,-2.7,-.9,-5.3,-2.5,-7.3m-9.3,17.3c-5.5,0,-10,-4.5,-10,-10c0,-5.5,4.5,-10,10,-10c5.5,0,10,4.5,10,10c0,5.5,-4.5,10,-10,10m-35,-18c0,-4.4,3.5,-8,8,-8H169c3.7,0,6.7,2.4,7.7,5.8c-2.5,1.4,-4.4,3.7,-5.3,6.5H147.7Zm42.4,-1.2c-2,-1.7,-4.6,-2.6,-7.4,-2.6c-1.5,0,-3,.2,-4.3,.7c-.9,-2.8,-3.1,-5.1,-5.9,-6.1c.2,-.1,.3,-.1,.5,-.1h10.8c3.5,0,6.3,2.9,6.3,6.4Z" class="gu_126"/>
<path d="M183.9,1032.7v-4h-2.4v4c0,.3,-.2,.5,-.5,.5h-4v2.4h4c.3,0,.5,.2,.5,.5v4h2.4v-4c0,-.3,.2,-.5,.5,-.5h4v-2.4h-4c-.3,0,-.5,-.2,-.5,-.5Z" class="g1_126"/>
<path d="M188.9,1032.3h-4.1v-4.1c0,-.2,-.2,-.5,-.4,-.5H181c-.3,0,-.5,.3,-.5,.5v4.1h-4c-.3,0,-.5,.2,-.5,.4v3.4c0,.3,.2,.5,.5,.5h4v4c0,.3,.2,.5,.5,.5h3.4c.2,0,.4,-.2,.4,-.5v-4h4.1c.2,0,.4,-.2,.4,-.5v-3.4c0,-.2,-.2,-.4,-.4,-.4m-.5,3.3h-4c-.3,0,-.5,.2,-.5,.5v4h-2.4v-4c0,-.3,-.2,-.5,-.5,-.5h-4v-2.4h4c.3,0,.5,-.2,.5,-.5v-4h2.4v4c0,.3,.2,.5,.5,.5h4Z" class="gu_126"/>
<path d="M132.5,1055.9V1249m4.5,2.3H843.2m2.3,-4.6V1053.6m-4.6,-2.2H134.7" class="gx_126"/>
<path d="M132.5,1251.3v0m713,0v0m0,-199.9v0m-713,0v0" class="gy_126"/>
<image clip-path="url(#ci_126)" preserveAspectRatio="none" x="125" y="206" width="734" height="181" xlink:href="img/9.png"/>
<path d="M144.7,231.3c0,0,-13,0,-13,13v117c0,0,0,13,13,13H833.3c0,0,13,0,13,-13v-130Z" class="gz_126"/>
<path d="M147.8,294.1l54.1,40.8L256,294.1V230h8.8V211.9H156c-6.5,.4,-7.8,3.9,-8.2,8.4h-.1Z" class="g10_126"/>
<path d="M274.2,220.3c-.4,-4.7,-4.3,-8.4,-9.1,-8.4c-4.8,0,-8.7,3.7,-9,8.4H256V230h18.2v-9.7Z" class="gf_126"/>
<path d="M256,230.6H846.3" class="g11_126"/>
<path d="M32.1,45.1H9.2m958.3,0h22.9M32.1,1331.3H9.2m958.3,0h22.9M45.1,32.1V9.2m0,1335.1v22.9M954.5,32.1V9.2m0,1335.1v22.9" class="g12_126"/>
<path d="M32.1,45.1H9.2m958.3,0h22.9M32.1,1331.3H9.2m958.3,0h22.9M45.1,32.1V9.2m0,1335.1v22.9M954.5,32.1V9.2m0,1335.1v22.9" class="g13_126"/>
<path d="M27.5,32.1H0m972.1,0h27.5M27.5,1344.3H0m972.1,0h27.5M32.1,27.5V0m0,1348.9v27.5M967.5,27.5V0m0,1348.9v27.5" class="g12_126"/>
<path d="M27.5,32.1H0m972.1,0h27.5M27.5,1344.3H0m972.1,0h27.5M32.1,27.5V0m0,1348.9v27.5M967.5,27.5V0m0,1348.9v27.5" class="g13_126"/>
</svg>