<?xml version="1.0" encoding="UTF-8" standalone="no"?>
<!DOCTYPE svg PUBLIC "-//W3C//DTD SVG 1.1//EN"
"http://www.w3.org/Graphics/SVG/1.1/DTD/svg11.dtd">
<svg viewBox="0 0 999 1376" version="1.1" xmlns="http://www.w3.org/2000/svg" xmlns:xlink="http://www.w3.org/1999/xlink">
<defs>
<clipPath id="c0_59"><path d="M32.1,1344.3V32.1H967.5V1344.3Z"/></clipPath>
<clipPath id="c1_59"><path d="M202.6,292.5l-6.5,-2.1l-14,-11.2V218.3h62.6v74.2Z"/></clipPath>
<style type="text/css"><![CDATA[
.g0_59{
fill: #FFFDEA;
}
.g1_59{
fill: #BCE4EA;
}
.g2_59{
fill: #BCBEC0;
}
.g3_59{
fill: #00AABD;
}
.g4_59{
fill: #FCDCBA;
}
.g5_59{
fill: #DED3E8;
}
.g6_59{
fill: #FFF;
}
.g7_59{
fill: none;
stroke: #6D6F71;
stroke-width: 0.305;
stroke-miterlimit: 10;
}
.g8_59{
fill: #D1232A;
}
.g9_59{
fill: #231F20;
}
.ga_59{
fill: none;
stroke: #6D6F71;
stroke-width: 0.305;
}
.gb_59{
fill: none;
stroke: #FFF;
stroke-width: 1.909;
stroke-miterlimit: 10;
}
.gc_59{
fill: none;
stroke: #000;
stroke-width: 0.381;
stroke-miterlimit: 10;
}
]]></style>
</defs>
<g clip-path="url(#c0_59)">
<path d="M-877.3,1344.3H967.5V32.1H-877.3V1344.3Z" class="g0_59"/>
<path d="M-877.3,179.3H967.5V32.1H-877.3V179.3Z" class="g1_59"/>
<path d="M967.5,177.2H-877.3v-5.4h736.6c43.1,0,53.1,-37.9,115.3,-37.9H967.5Z" class="g2_59"/>
<path d="M967.5,183.7H-877.3v-9.8h736.6c43.1,0,53.1,-33.6,115.3,-33.6H967.5Z" class="g3_59"/>
</g>
<path d="M235.2,247.5c0,0,-13,0,-13,13v21.6c0,0,0,13,13,13h619c0,0,13,0,13,-13V260.5c0,0,0,-13,-13,-13Z" class="g4_59"/>
<image clip-path="url(#c1_59)" preserveAspectRatio="none" x="182" y="217" width="63" height="77" xlink:href="img/1.png"/>
<path d="M230,287.7c0,0,-26.8,11.3,-51.1,-12.7c0,0,15.2,25.3,49.3,23.9c0,0,24.7,.4,20.2,-10.1c0,0,1.3,-4.4,-18.4,-1.1Z" class="g4_59"/>
<path d="M179.5,315.4h77.9V355H179.5V315.4Zm77.9,0h76.3V355H257.4V315.4Zm76.3,0H410V355H333.7V315.4Zm76.3,0h76.3V355H410V315.4Zm76.3,0h76.3V355H486.3V315.4Zm76.3,0h76.3V355H562.6V315.4Zm76.3,0h76.3V355H638.9V315.4Zm76.3,0h76.3V355H715.2V315.4Zm76.3,0h76.3V355H791.5V315.4Z" class="g5_59"/>
<path d="M179.5,355h77.9v46.3H179.5V355Zm77.9,0h76.3v46.3H257.4V355Zm76.3,0H410v46.3H333.7V355Zm76.3,0h76.3v46.3H410V355Zm76.3,0h76.3v46.3H486.3V355Zm76.3,0h76.3v46.3H562.6V355Zm76.3,0h76.3v46.3H638.9V355Zm76.3,0h76.3v46.3H715.2V355Zm76.3,0h76.3v46.3H791.5V355Zm-612,46.3h77.9v46.3H179.5V401.3Zm77.9,0h76.3v46.3H257.4V401.3Zm76.3,0H410v46.3H333.7V401.3Zm76.3,0h76.3v46.3H410V401.3Zm76.3,0h76.3v46.3H486.3V401.3Zm76.3,0h76.3v46.3H562.6V401.3Zm76.3,0h76.3v46.3H638.9V401.3Zm76.3,0h76.3v46.3H715.2V401.3Zm76.3,0h76.3v46.3H791.5V401.3Zm-612,46.3h77.9V494H179.5V447.6Zm77.9,0h76.3V494H257.4V447.6Zm76.3,0H410V494H333.7V447.6Zm76.3,0h76.3V494H410V447.6Zm76.3,0h76.3V494H486.3V447.6Zm76.3,0h76.3V494H562.6V447.6Zm76.3,0h76.3V494H638.9V447.6Zm76.3,0h76.3V494H715.2V447.6Zm76.3,0h76.3V494H791.5V447.6ZM179.5,494h77.9v46.3H179.5V494Zm77.9,0h76.3v46.3H257.4V494Zm76.3,0H410v46.3H333.7V494Zm76.3,0h76.3v46.3H410V494Zm76.3,0h76.3v46.3H486.3V494Zm76.3,0h76.3v46.3H562.6V494Zm76.3,0h76.3v46.3H638.9V494Zm76.3,0h76.3v46.3H715.2V494Zm76.3,0h76.3v46.3H791.5V494Zm-612,46.3h77.9v46.4H179.5V540.3Zm77.9,0h76.3v46.4H257.4V540.3Zm76.3,0H410v46.4H333.7V540.3Zm76.3,0h76.3v46.4H410V540.3Zm76.3,0h76.3v46.4H486.3V540.3Zm76.3,0h76.3v46.4H562.6V540.3Zm76.3,0h76.3v46.4H638.9V540.3Zm76.3,0h76.3v46.4H715.2V540.3Zm76.3,0h76.3v46.4H791.5V540.3Zm-612,46.4h77.9V633H179.5V586.7Zm77.9,0h76.3V633H257.4V586.7Zm76.3,0H410V633H333.7V586.7Zm76.3,0h76.3V633H410V586.7Zm76.3,0h76.3V633H486.3V586.7Zm76.3,0h76.3V633H562.6V586.7Zm76.3,0h76.3V633H638.9V586.7Zm76.3,0h76.3V633H715.2V586.7Zm76.3,0h76.3V633H791.5V586.7ZM179.5,633h77.9v46.3H179.5V633Zm77.9,0h76.3v46.3H257.4V633Zm76.3,0H410v46.3H333.7V633Zm76.3,0h76.3v46.3H410V633Zm76.3,0h76.3v46.3H486.3V633Zm76.3,0h76.3v46.3H562.6V633Zm76.3,0h76.3v46.3H638.9V633Zm76.3,0h76.3v46.3H715.2V633Zm76.3,0h76.3v46.3H791.5V633Zm-612,46.3h77.9v46.4H179.5V679.3Zm77.9,0h76.3v46.4H257.4V679.3Zm76.3,0H410v46.4H333.7V679.3Zm76.3,0h76.3v46.4H410V679.3Zm76.3,0h76.3v46.4H486.3V679.3Zm76.3,0h76.3v46.4H562.6V679.3Zm76.3,0h76.3v46.4H638.9V679.3Zm76.3,0h76.3v46.4H715.2V679.3Zm76.3,0h76.3v46.4H791.5V679.3Zm-612,46.4h77.9V772H179.5V725.7Zm77.9,0h76.3V772H257.4V725.7Zm76.3,0H410V772H333.7V725.7Zm76.3,0h76.3V772H410V725.7Zm76.3,0h76.3V772H486.3V725.7Zm76.3,0h76.3V772H562.6V725.7Zm76.3,0h76.3V772H638.9V725.7Zm76.3,0h76.3V772H715.2V725.7Zm76.3,0h76.3V772H791.5V725.7ZM179.5,772h77.9v46.4H179.5V772Zm77.9,0h76.3v46.4H257.4V772Zm76.3,0H410v46.4H333.7V772Zm76.3,0h76.3v46.4H410V772Zm76.3,0h76.3v46.4H486.3V772Zm76.3,0h76.3v46.4H562.6V772Zm76.3,0h76.3v46.4H638.9V772Zm76.3,0h76.3v46.4H715.2V772Zm76.3,0h76.3v46.4H791.5V772Zm-612,46.4h77.9v46.3H179.5V818.4Zm77.9,0h76.3v46.3H257.4V818.4Zm76.3,0H410v46.3H333.7V818.4Zm76.3,0h76.3v46.3H410V818.4Zm76.3,0h76.3v46.3H486.3V818.4Zm76.3,0h76.3v46.3H562.6V818.4Zm76.3,0h76.3v46.3H638.9V818.4Zm76.3,0h76.3v46.3H715.2V818.4Zm76.3,0h76.3v46.3H791.5V818.4Zm-612,46.3h77.9V911H179.5V864.7Zm77.9,0h76.3V911H257.4V864.7Zm76.3,0H410V911H333.7V864.7Zm76.3,0h76.3V911H410V864.7Zm76.3,0h76.3V911H486.3V864.7Zm76.3,0h76.3V911H562.6V864.7Zm76.3,0h76.3V911H638.9V864.7Zm76.3,0h76.3V911H715.2V864.7Zm76.3,0h76.3V911H791.5V864.7ZM179.5,911h77.9v46.4H179.5V911Zm77.9,0h76.3v46.4H257.4V911Zm76.3,0H410v46.4H333.7V911Zm76.3,0h76.3v46.4H410V911Zm76.3,0h76.3v46.4H486.3V911Zm76.3,0h76.3v46.4H562.6V911Zm76.3,0h76.3v46.4H638.9V911Zm76.3,0h76.3v46.4H715.2V911Zm76.3,0h76.3v46.4H791.5V911Zm-612,46.4h77.9v46.3H179.5V957.4Zm77.9,0h76.3v46.3H257.4V957.4Zm76.3,0H410v46.3H333.7V957.4Zm76.3,0h76.3v46.3H410V957.4Zm76.3,0h76.3v46.3H486.3V957.4Zm76.3,0h76.3v46.3H562.6V957.4Zm76.3,0h76.3v46.3H638.9V957.4Zm76.3,0h76.3v46.3H715.2V957.4Zm76.3,0h76.3v46.3H791.5V957.4Zm-612,46.3h77.9v46.4H179.5v-46.4Zm77.9,0h76.3v46.4H257.4v-46.4Zm76.3,0H410v46.4H333.7v-46.4Zm76.3,0h76.3v46.4H410v-46.4Zm76.3,0h76.3v46.4H486.3v-46.4Zm76.3,0h76.3v46.4H562.6v-46.4Zm76.3,0h76.3v46.4H638.9v-46.4Zm76.3,0h76.3v46.4H715.2v-46.4Zm76.3,0h76.3v46.4H791.5v-46.4Zm-612,46.3h77.9v46.4H179.5V1050Zm77.9,0h76.3v46.4H257.4V1050Zm76.3,0H410v46.4H333.7V1050Zm76.3,0h76.3v46.4H410V1050Zm76.3,0h76.3v46.4H486.3V1050Zm76.3,0h76.3v46.4H562.6V1050Zm76.3,0h76.3v46.4H638.9V1050Zm76.3,0h76.3v46.4H715.2V1050Zm76.3,0h76.3v46.4H791.5V1050Zm-612,46.4h77.9v46.3H179.5v-46.3Zm77.9,0h76.3v46.3H257.4v-46.3Zm76.3,0H410v46.3H333.7v-46.3Zm76.3,0h76.3v46.3H410v-46.3Zm76.3,0h76.3v46.3H486.3v-46.3Zm76.3,0h76.3v46.3H562.6v-46.3Zm76.3,0h76.3v46.3H638.9v-46.3Zm76.3,0h76.3v46.3H715.2v-46.3Zm76.3,0h76.3v46.3H791.5v-46.3Zm-612,46.3h77.9v46.4H179.5v-46.4Zm77.9,0h76.3v46.4H257.4v-46.4Zm76.3,0H410v46.4H333.7v-46.4Zm76.3,0h76.3v46.4H410v-46.4Zm76.3,0h76.3v46.4H486.3v-46.4Zm76.3,0h76.3v46.4H562.6v-46.4Zm76.3,0h76.3v46.4H638.9v-46.4Zm76.3,0h76.3v46.4H715.2v-46.4Zm76.3,0h76.3v46.4H791.5v-46.4Zm-612,46.4h77.9v46.3H179.5v-46.3Zm77.9,0h76.3v46.3H257.4v-46.3Zm76.3,0H410v46.3H333.7v-46.3Zm76.3,0h76.3v46.3H410v-46.3Zm76.3,0h76.3v46.3H486.3v-46.3Zm76.3,0h76.3v46.3H562.6v-46.3Zm76.3,0h76.3v46.3H638.9v-46.3Zm76.3,0h76.3v46.3H715.2v-46.3Zm76.3,0h76.3v46.3H791.5v-46.3Z" class="g6_59"/>
<path d="M179.5,401.2V355.1m77.9,46.1V355.1m76.3,46.1V355.1M410,401.2V355.1m76.3,46.1V355.1m76.3,46.1V355.1m76.3,46.1V355.1m76.3,46.1V355.1m76.3,46.1V355.1m76.3,46.1V355.1M179.3,401.3h78.1m-77.9,46.2v-46m77.9,-.2h76.3m-76.3,46.2v-46m76.3,-.2H410m-76.3,46.2v-46m76.3,-.2h76.3M410,447.5v-46m76.3,-.2h76.3m-76.3,46.2v-46m76.3,-.2h76.3m-76.3,46.2v-46m76.3,-.2h76.3m-76.3,46.2v-46m76.3,-.2h76.3m-76.3,46.2v-46m76.3,-.2h76.4m-76.4,46.2v-46m76.3,46v-46M179.3,447.6h78.1m-77.9,46.2v-46m77.9,-.2h76.3m-76.3,46.2v-46m76.3,-.2H410m-76.3,46.2v-46m76.3,-.2h76.3M410,493.8v-46m76.3,-.2h76.3m-76.3,46.2v-46m76.3,-.2h76.3m-76.3,46.2v-46m76.3,-.2h76.3m-76.3,46.2v-46m76.3,-.2h76.3m-76.3,46.2v-46m76.3,-.2h76.4m-76.4,46.2v-46m76.3,46v-46M179.3,494h78.1m-77.9,46.2V494.1m77.9,-.1h76.3m-76.3,46.2V494.1m76.3,-.1H410m-76.3,46.2V494.1M410,494h76.3M410,540.2V494.1m76.3,-.1h76.3m-76.3,46.2V494.1m76.3,-.1h76.3m-76.3,46.2V494.1m76.3,-.1h76.3m-76.3,46.2V494.1m76.3,-.1h76.3m-76.3,46.2V494.1m76.3,-.1h76.4m-76.4,46.2V494.1m76.3,46.1V494.1M179.3,540.3h78.1m-77.9,46.2v-46m77.9,-.2h76.3m-76.3,46.2v-46m76.3,-.2H410m-76.3,46.2v-46m76.3,-.2h76.3M410,586.5v-46m76.3,-.2h76.3m-76.3,46.2v-46m76.3,-.2h76.3m-76.3,46.2v-46m76.3,-.2h76.3m-76.3,46.2v-46m76.3,-.2h76.3m-76.3,46.2v-46m76.3,-.2h76.4m-76.4,46.2v-46m76.3,46v-46M179.3,586.7h78.1m-77.9,46.1v-46m77.9,-.1h76.3m-76.3,46.1v-46m76.3,-.1H410m-76.3,46.1v-46m76.3,-.1h76.3M410,632.8v-46m76.3,-.1h76.3m-76.3,46.1v-46m76.3,-.1h76.3m-76.3,46.1v-46m76.3,-.1h76.3m-76.3,46.1v-46m76.3,-.1h76.3m-76.3,46.1v-46m76.3,-.1h76.4m-76.4,46.1v-46m76.3,46v-46M179.3,633h78.1m-77.9,46.2v-46m77.9,-.2h76.3m-76.3,46.2v-46m76.3,-.2H410m-76.3,46.2v-46M410,633h76.3M410,679.2v-46m76.3,-.2h76.3m-76.3,46.2v-46m76.3,-.2h76.3m-76.3,46.2v-46m76.3,-.2h76.3m-76.3,46.2v-46m76.3,-.2h76.3m-76.3,46.2v-46m76.3,-.2h76.4m-76.4,46.2v-46m76.3,46v-46M179.3,679.3h78.1m-77.9,46.2v-46m77.9,-.2h76.3m-76.3,46.2v-46m76.3,-.2H410m-76.3,46.2v-46m76.3,-.2h76.3M410,725.5v-46m76.3,-.2h76.3m-76.3,46.2v-46m76.3,-.2h76.3m-76.3,46.2v-46m76.3,-.2h76.3m-76.3,46.2v-46m76.3,-.2h76.3m-76.3,46.2v-46m76.3,-.2h76.4m-76.4,46.2v-46m76.3,46v-46M179.3,725.7h78.1m-77.9,46.2V725.8m77.9,-.1h76.3m-76.3,46.2V725.8m76.3,-.1H410m-76.3,46.2V725.8m76.3,-.1h76.3M410,771.9V725.8m76.3,-.1h76.3m-76.3,46.2V725.8m76.3,-.1h76.3m-76.3,46.2V725.8m76.3,-.1h76.3m-76.3,46.2V725.8m76.3,-.1h76.3m-76.3,46.2V725.8m76.3,-.1h76.4m-76.4,46.2V725.8m76.3,46.1V725.8M179.3,772h78.1m-77.9,46.2v-46m77.9,-.2h76.3m-76.3,46.2v-46m76.3,-.2H410m-76.3,46.2v-46M410,772h76.3M410,818.2v-46m76.3,-.2h76.3m-76.3,46.2v-46m76.3,-.2h76.3m-76.3,46.2v-46m76.3,-.2h76.3m-76.3,46.2v-46m76.3,-.2h76.3m-76.3,46.2v-46m76.3,-.2h76.4m-76.4,46.2v-46m76.3,46v-46M179.3,818.4h78.1m-77.9,46.1v-46m77.9,-.1h76.3m-76.3,46.1v-46m76.3,-.1H410m-76.3,46.1v-46m76.3,-.1h76.3M410,864.5v-46m76.3,-.1h76.3m-76.3,46.1v-46m76.3,-.1h76.3m-76.3,46.1v-46m76.3,-.1h76.3m-76.3,46.1v-46m76.3,-.1h76.3m-76.3,46.1v-46m76.3,-.1h76.4m-76.4,46.1v-46m76.3,46v-46M179.3,864.7h78.1m-77.9,46.2V864.8m77.9,-.1h76.3m-76.3,46.2V864.8m76.3,-.1H410m-76.3,46.2V864.8m76.3,-.1h76.3M410,910.9V864.8m76.3,-.1h76.3m-76.3,46.2V864.8m76.3,-.1h76.3m-76.3,46.2V864.8m76.3,-.1h76.3m-76.3,46.2V864.8m76.3,-.1h76.3m-76.3,46.2V864.8m76.3,-.1h76.4m-76.4,46.2V864.8m76.3,46.1V864.8M179.3,911h78.1m-77.9,46.2v-46m77.9,-.2h76.3m-76.3,46.2v-46m76.3,-.2H410m-76.3,46.2v-46M410,911h76.3M410,957.2v-46m76.3,-.2h76.3m-76.3,46.2v-46m76.3,-.2h76.3m-76.3,46.2v-46m76.3,-.2h76.3m-76.3,46.2v-46m76.3,-.2h76.3m-76.3,46.2v-46m76.3,-.2h76.4m-76.4,46.2v-46m76.3,46v-46M179.3,957.4h78.1m-77.9,46.2V957.5m77.9,-.1h76.3m-76.3,46.2V957.5m76.3,-.1H410m-76.3,46.2V957.5m76.3,-.1h76.3M410,1003.6V957.5m76.3,-.1h76.3m-76.3,46.2V957.5m76.3,-.1h76.3m-76.3,46.2V957.5m76.3,-.1h76.3m-76.3,46.2V957.5m76.3,-.1h76.3m-76.3,46.2V957.5m76.3,-.1h76.4m-76.4,46.2V957.5m76.3,46.1V957.5m-688.5,46.2h78.1m-77.9,46.2v-46m77.9,-.2h76.3m-76.3,46.2v-46m76.3,-.2H410m-76.3,46.2v-46m76.3,-.2h76.3M410,1049.9v-46m76.3,-.2h76.3m-76.3,46.2v-46m76.3,-.2h76.3m-76.3,46.2v-46m76.3,-.2h76.3m-76.3,46.2v-46m76.3,-.2h76.3m-76.3,46.2v-46m76.3,-.2h76.4m-76.4,46.2v-46m76.3,46v-46M179.3,1050h78.1m-77.9,46.2v-46m77.9,-.2h76.3m-76.3,46.2v-46m76.3,-.2H410m-76.3,46.2v-46M410,1050h76.3M410,1096.2v-46m76.3,-.2h76.3m-76.3,46.2v-46m76.3,-.2h76.3m-76.3,46.2v-46m76.3,-.2h76.3m-76.3,46.2v-46m76.3,-.2h76.3m-76.3,46.2v-46m76.3,-.2h76.4m-76.4,46.2v-46m76.3,46v-46m-688.5,46.2h78.1m-77.9,46.2v-46.1m77.9,-.1h76.3m-76.3,46.2v-46.1m76.3,-.1H410m-76.3,46.2v-46.1m76.3,-.1h76.3M410,1142.6v-46.1m76.3,-.1h76.3m-76.3,46.2v-46.1m76.3,-.1h76.3m-76.3,46.2v-46.1m76.3,-.1h76.3m-76.3,46.2v-46.1m76.3,-.1h76.3m-76.3,46.2v-46.1m76.3,-.1h76.4m-76.4,46.2v-46.1m76.3,46.1v-46.1m-688.5,46.2h78.1m-77.9,46.2v-46m77.9,-.2h76.3m-76.3,46.2v-46m76.3,-.2H410m-76.3,46.2v-46m76.3,-.2h76.3M410,1188.9v-46m76.3,-.2h76.3m-76.3,46.2v-46m76.3,-.2h76.3m-76.3,46.2v-46m76.3,-.2h76.3m-76.3,46.2v-46m76.3,-.2h76.3m-76.3,46.2v-46m76.3,-.2h76.4m-76.4,46.2v-46m76.3,46v-46m-688.5,46.2h78.1m-77.9,46.2v-46.1m77.9,-.1h76.3m-76.3,46.2v-46.1m76.3,-.1H410m-76.3,46.2v-46.1m76.3,-.1h76.3M410,1235.3v-46.1m76.3,-.1h76.3m-76.3,46.2v-46.1m76.3,-.1h76.3m-76.3,46.2v-46.1m76.3,-.1h76.3m-76.3,46.2v-46.1m76.3,-.1h76.3m-76.3,46.2v-46.1m76.3,-.1h76.4m-76.4,46.2v-46.1m76.3,46.1v-46.1m-688.5,46.2h78.1m0,0h76.3m0,0H410m0,0h76.3m0,0h76.3m0,0h76.3m0,0h76.3m0,0h76.3m0,0h76.4M486.3,315.4h76.3m0,0h76.3m0,0h76.3m0,0h76.3m0,0h76.4M486.3,355h76.3m0,0h76.3m0,0h76.3m0,0h76.3m0,0h76.4m-610.5,-.2V315.6m76.3,39.2V315.6M410,354.8V315.6m152.6,39.2V315.6m76.3,39.2V315.6m76.3,39.2V315.6m76.3,39.2V315.6m76.3,39.2V315.6m-688.5,-.2h78.1m-77.9,39.4V315.6m77.9,-.2h76.3m0,0H410m0,0h76.3m0,39.4V315.6M179.3,355h78.1m0,0h76.3m0,0H410m0,0h76.3" class="g7_59"/>
<path d="M829.5,708.4c4.6,0,7.7,-2.6,7.7,-6c0,-3.3,-3.1,-6,-7.7,-6c-4.6,0,-7.8,2.7,-7.8,6c0,3.4,3.2,6,7.8,6m0,-1.7c-3.2,0,-5.6,-1.7,-5.6,-4.3c0,-2.6,2.4,-4.3,5.6,-4.3c3.1,0,5.6,1.7,5.6,4.3c0,2.6,-2.5,4.3,-5.6,4.3Z" class="g8_59"/>
<path d="M819.4,714.7h20.4V713H819.4v1.7Z" class="g9_59"/>
<path d="M179.8,315.5l77.5,39.2" class="ga_59"/>
<path d="M32.1,45.1H9.2m958.3,0h22.9M32.1,1331.3H9.2m958.3,0h22.9M45.1,32.1V9.2m0,1335.1v22.9M954.5,32.1V9.2m0,1335.1v22.9" class="gb_59"/>
<path d="M32.1,45.1H9.2m958.3,0h22.9M32.1,1331.3H9.2m958.3,0h22.9M45.1,32.1V9.2m0,1335.1v22.9M954.5,32.1V9.2m0,1335.1v22.9" class="gc_59"/>
<path d="M27.5,32.1H0m972.1,0h27.5M27.5,1344.3H0m972.1,0h27.5M32.1,27.5V0m0,1348.9v27.5M967.5,27.5V0m0,1348.9v27.5" class="gb_59"/>
<path d="M27.5,32.1H0m972.1,0h27.5M27.5,1344.3H0m972.1,0h27.5M32.1,27.5V0m0,1348.9v27.5M967.5,27.5V0m0,1348.9v27.5" class="gc_59"/>
</svg>