<?xml version="1.0" encoding="UTF-8" standalone="no"?>
<!DOCTYPE svg PUBLIC "-//W3C//DTD SVG 1.1//EN"
"http://www.w3.org/Graphics/SVG/1.1/DTD/svg11.dtd">
<svg viewBox="0 0 999 1376" version="1.1" xmlns="http://www.w3.org/2000/svg" xmlns:xlink="http://www.w3.org/1999/xlink">
<defs>
<clipPath id="c0_285"><path d="M681.4,742.9V486H919V742.9Z"/></clipPath>
<clipPath id="c1_285"><path d="M684.8,738.8v-248H914.7v248Z"/></clipPath>
<clipPath id="c2_285"><path d="M684.5,738.5v-248H914.4v248Z"/></clipPath>
<clipPath id="c3_285"><path d="M199.2,1010.9l-6.5,-2.1l-16.4,-14v-57h72v73.1Z"/></clipPath>
<clipPath id="c4_285"><path d="M98.9,559.7V273.2H337.6V559.7Z"/></clipPath>
<clipPath id="c5_285"><path d="M106.3,552.7V279.3H330.1V552.7Z"/></clipPath>
<clipPath id="c6_285"><path d="M106,552.4V279H329.8V552.4Z"/></clipPath>
<clipPath id="c7_285"><path d="M199.2,238.6l-6.5,-2.2L176.3,222.5V165.4h72v73.2Z"/></clipPath>
<clipPath id="c8_285"><path d="M213.7,294.2c-.2,-.1,3.6,-8.2,3.6,-8.2l.8,.5c0,0,-4.1,7.7,-4.4,7.7Z"/></clipPath>
<clipPath id="c9_285"><path d="M221.2,286.5c0,0,-6.8,-1.1,-7.5,-5.3c-.7,-3.6,1.5,-3.8,2,-3.8c.1,0,.2,0,.2,0l8.3,-12.7l-1.5,-3.1c0,0,-.6,-1.1,.2,-2.1c0,0,.1,-.1,.3,-.1c2.1,0,12.9,5.6,12.9,5.6l.1,.1c-.4,.5,-.7,1.2,-1.4,1.7c-.7,.5,-5.1,1.1,-5.1,1.1l-8.5,18.6Z"/></clipPath>
<clipPath id="ca_285"><path d="M220.8,286.1c.3,-.5,.3,-1.8,0,-2.2v-1.4c-1.5,-.6,-2.8,-1.3,-3.6,-2.5c-1.1,.5,-2.1,1.2,-3.1,1.8c1.5,2.2,3.8,3.6,6.7,4.3Zm0,-3.9c2.2,-4.5,4,-9.5,6.2,-14.1c-.9,-.3,-1.8,-1.3,-2.6,-1.3c-2.3,4.3,-4.6,8.6,-7.1,12.8c.7,1.3,2.1,2,3.5,2.6Zm-7.2,12.1c1,-2.9,2.4,-5.5,3.5,-8.3c-2,-1.6,-4,-3.1,-4.4,-6.2v-1.5c-.1,-2.7,1.9,-3.4,4.6,-3.4c0,0,.1,0,.1,0c2,-3.3,4.3,-6.3,6.2,-9.6c-.6,-.9,-1.2,-2.4,-.9,-3.7c.5,1.3,1.7,1.9,2.4,2.9c-.1,.6,-.3,1.1,-.4,1.8c.6,.6,1.4,1.1,2.4,1.3c.5,-.4,.5,-1.2,1.2,-1.5c.9,.4,1.8,.8,3.1,.8c.1,.1,.5,.1,.8,.1c.4,0,.7,0,.8,-.1c.1,0,.2,0,.3,0c.3,0,.5,0,.7,-.1c.1,-.1,.3,-.1,.5,-.1c.1,0,.2,0,.3,.1c-1.3,.6,-2.2,1.7,-4.2,1.7c-.1,0,-.2,0,-.3,0c-.9,3.8,-1.9,7.4,-2.7,11.2c.6,1.1,1.5,1.7,1.3,3.1c-.5,2.8,-3.9,4.4,-7.2,4.4c-1.3,0,-2.5,-.2,-3.6,-.7c-1,2.1,-2.1,4.1,-3.3,6c0,-.3,.3,-.4,.3,-.7c.9,-1.8,1.9,-3.6,2.6,-5.7c-1.1,1.7,-1.8,3.7,-2.8,5.5c-.2,.5,-.4,.9,-.6,1.3c-.3,.4,-.3,1.1,-.7,1.4Z"/></clipPath>
<clipPath id="cb_285"><path d="M231.3,266.5c-4.8,0,-13.1,-7.3,-5.6,-8.8H227c.2,.1,.4,.1,.7,.1c0,0,.1,0,.1,0c.3,0,.6,0,1,0c3,.7,8.2,3.8,7.5,7.1c-.2,1.1,-1.6,1.6,-3.1,1.6h-1.8c0,0,-.1,0,-.1,0Z"/></clipPath>
<clipPath id="cc_285"><path d="M798.4,506c-.3,-.1,3.5,-8.3,3.5,-8.3l.8,.6c0,0,-4,7.7,-4.3,7.7Z"/></clipPath>
<clipPath id="cd_285"><path d="M805.9,498.2c0,0,-6.9,-1.1,-7.6,-5.2c-.6,-3.6,1.5,-3.8,2.1,-3.8q.1,0,.1,0l8.3,-12.8l-1.4,-3c0,0,-.6,-1.1,.1,-2.1c.1,-.1,.2,-.1,.3,-.1c2.1,0,13,5.5,13,5.5v.2c-.3,.5,-.7,1.1,-1.4,1.6c-.6,.5,-5,1.2,-5,1.2l-8.5,18.5Z"/></clipPath>
<clipPath id="ce_285"><path d="M805.5,497.9c.2,-.5,.2,-1.8,0,-2.3v-1.4c-1.5,-.5,-2.9,-1.2,-3.7,-2.5c-1,.6,-2.1,1.2,-3.1,1.9c1.6,2.1,3.8,3.6,6.8,4.3Zm0,-3.9c2.2,-4.6,4,-9.5,6.1,-14.1c-.8,-.4,-1.8,-1.3,-2.6,-1.4c-2.3,4.4,-4.6,8.7,-7,12.9c.7,1.3,2.1,2,3.5,2.6Zm-7.3,12.1c1,-2.9,2.4,-5.5,3.5,-8.3c-2,-1.6,-3.9,-3.2,-4.4,-6.2v-1.5c0,-2.7,2,-3.4,4.6,-3.4q.1,0,.2,0c1.9,-3.3,4.2,-6.3,6.1,-9.7c-.5,-.8,-1.1,-2.3,-.8,-3.6c.5,1.2,1.6,1.9,2.4,2.9c-.2,.6,-.3,1.1,-.4,1.7c.6,.7,1.3,1.2,2.4,1.4c.4,-.4,.5,-1.2,1.1,-1.5c.9,.4,1.8,.8,3.1,.8c.2,.1,.5,.1,.9,.1c.3,0,.6,0,.8,-.1c.1,0,.2,0,.3,0c.2,0,.4,-.1,.6,-.1c.2,-.1,.4,-.2,.5,-.2c.1,0,.2,.1,.3,.1c-1.3,.7,-2.2,1.8,-4.1,1.8c-.1,0,-.3,0,-.4,0c-.9,3.7,-1.8,7.4,-2.6,11.2c.5,1,1.5,1.7,1.2,3.1c-.4,2.7,-3.8,4.4,-7.2,4.4c-1.2,0,-2.5,-.2,-3.6,-.7c-1,2.1,-2,4.1,-3.2,6c-.1,-.4,.2,-.4,.2,-.8c1,-1.8,1.9,-3.5,2.6,-5.6c-1,1.7,-1.8,3.7,-2.7,5.5c-.2,.4,-.4,.9,-.6,1.3c-.3,.4,-.3,1.1,-.8,1.4Z"/></clipPath>
<clipPath id="cf_285"><path d="M815.9,478.3c-4.8,0,-13.1,-7.3,-5.5,-8.8h1.2c.2,0,.5,0,.7,0c.1,0,.2,0,.3,0c.2,0,.5,0,.8,.1c3.1,.7,8.2,3.8,7.5,7c-.2,1.2,-1.5,1.6,-3.1,1.7h-1.9Z"/></clipPath>
<clipPath id="cg_285"><path d="M786.5,132.5V120.1H801v12.4Z"/></clipPath>
<style type="text/css"><![CDATA[
.g0_285{
fill: #FEFCF4;
}
.g1_285{
fill: #FFF;
}
.g2_285{
fill: none;
stroke: #6381B7;
stroke-width: 0.763;
}
.g3_285{
fill: #F7C2D9;
}
.g4_285{
fill: #FEF6F5;
}
.g5_285{
fill: #EC008C;
}
.g6_285{
fill: none;
stroke: #949698;
stroke-width: 0.305;
stroke-dasharray: 3,3;
}
.g7_285{
fill: none;
stroke: #949698;
stroke-width: 0.305;
}
.g8_285{
fill: none;
stroke: #949698;
stroke-width: 0.305;
stroke-dasharray: 4,4;
}
.g9_285{
fill: #6D6F71;
}
.ga_285{
fill: #FCE8B0;
}
.gb_285{
fill: #6381B7;
}
.gc_285{
fill: none;
stroke: #6381B7;
stroke-width: 0.381;
stroke-dasharray: 2,1;
}
.gd_285{
fill: none;
stroke: #6381B7;
stroke-width: 0.381;
}
.ge_285{
fill: #25408F;
}
.gf_285{
fill: #A8AAAD;
}
.gg_285{
fill: none;
stroke: #949698;
stroke-width: 0.549;
}
.gh_285{
fill: none;
stroke: #BCBEC0;
stroke-width: 2.566;
}
.gi_285{
fill: #231F20;
}
.gj_285{
fill: #363637;
}
.gk_285{
fill: #5CC4BE;
}
.gl_285{
fill: #EAD646;
}
.gm_285{
fill: none;
stroke: #FFF;
stroke-width: 1.909;
stroke-miterlimit: 10;
}
.gn_285{
fill: none;
stroke: #000;
stroke-width: 0.381;
stroke-miterlimit: 10;
}
]]></style>
</defs>
<path d="M45.1,1344.3H967.5V32.1H45.1V1344.3Z" class="g0_285"/>
<path d="M172.1,137.3c0,0,-18.4,0,-18.4,18.4V866.5c0,0,0,18.4,18.4,18.4H849.2c0,0,18.3,0,18.3,-18.4V137.3Z" class="g1_285"/>
<path d="M172.1,137.3c0,0,-18.4,0,-18.4,18.4V866.5c0,0,0,18.4,18.4,18.4H849.2c0,0,18.3,0,18.3,-18.4V137.3H172.1Z" class="g2_285"/>
<image clip-path="url(#c0_285)" preserveAspectRatio="none" x="681" y="486" width="238" height="257" xlink:href="img/1.png"/>
<path d="M695.5,491.1L686.3,729l217.6,7.8l8.7,-238.3Z" class="g3_285"/>
<image clip-path="url(#c1_285)" preserveAspectRatio="none" x="684" y="491" width="230" height="248" xlink:href="img/2.png"/>
<image clip-path="url(#c2_285)" preserveAspectRatio="none" x="684" y="491" width="230" height="248" xlink:href="img/3.png"/>
<path d="M689.3,498.9l4,233.4l186.8,-3.1l28.2,-41L905,495.3Z" class="g4_285"/>
<path d="M880.1,729.1l28.3,-41l-20.7,-4.2Z" class="g5_285"/>
<path d="M580.1,799.3c30.8,-.7,55.8,-8,60.1,-17.5m-.8,-7.1c-6,-9,-30.7,-15.8,-60.8,-16.2m-7.5,0c-30.9,.7,-55.8,8,-60.1,17.5m.7,7.1c6,9,30.8,15.8,60.9,16.2" class="g6_285"/>
<path d="M640.7,780.4c.1,-.5,.1,-1,.1,-1.5c0,-.5,0,-1,-.1,-1.5M577.1,758.5c-.5,0,-1,0,-1.5,0c-.5,0,-1,0,-1.5,0m-63.6,18.9c-.1,.5,-.2,1,-.2,1.5c0,.5,.1,1,.2,1.5m63.6,18.9c.5,0,1,0,1.5,0c.5,0,1,0,1.5,0" class="g7_285"/>
<path d="M614.6,800.7c16.9,6.7,80.3,29.6,103.6,8.5" class="g8_285"/>
<path d="M720.4,802.6c-.6,-5.2,-3.5,-12.7,-16.4,-7.2" class="g6_285"/>
<path d="M701,801.5c.2,1.3,.8,2.9,1.9,4.3m6.7,3.9c9.2,2.3,32.4,3.4,65.1,-28" class="g8_285"/>
<path d="M780.1,776.4c8.1,-8.4,29.6,-32.7,38.9,-63.9" class="g6_285"/>
<path d="M610.3,799c0,0,.5,.2,1.4,.6m107.6,8.6c.4,-.4,.7,-.8,1.1,-1.2c0,0,0,-.5,.1,-1.4M702.7,796c-.5,.2,-.9,.5,-1.3,.7c0,0,-.3,.6,-.4,1.6m3,8.7c.3,.4,.8,.7,1.2,1.1c0,0,.5,.3,1.4,.6m69.3,-28.1c.3,-.3,.7,-.7,1.1,-1.1c0,0,.3,-.3,1,-1M819.4,711c.1,-.4,.3,-.9,.4,-1.4" class="g7_285"/>
<path d="M814.9,713.2l7.4,1.1l-.7,-9.7Z" class="g9_285"/>
<path d="M166.7,918.5c0,0,-13,0,-13,13v161.7c0,0,0,12.9,13,12.9H854.5c0,0,13,0,13,-12.9V931.5c0,0,0,-13,-13,-13Z" class="g1_285"/>
<path d="M166.7,918.5c0,0,-13,0,-13,13v161.7c0,0,0,12.9,13,12.9H854.5c0,0,13,0,13,-12.9V931.5c0,0,0,-13,-13,-13H166.7Z" class="g2_285"/>
<path d="M231.8,939.9c0,0,-13,0,-13,13v47.6c0,0,0,13,13,13h602c0,0,13,0,13,-13V952.9c0,0,0,-13,-13,-13Z" class="ga_285"/>
<image clip-path="url(#c3_285)" preserveAspectRatio="none" x="175" y="936" width="75" height="76" xlink:href="img/4.png"/>
<path d="M226.6,1006.2c0,0,-26.9,11.3,-51.1,-12.8c0,0,15.1,25.3,49.3,24c0,0,24.7,.3,20.2,-10.1c0,0,1.2,-4.5,-18.4,-1.1Z" class="ga_285"/>
<path d="M491.5,1128.2c0,0,-4.3,0,-4.3,4.3v10.9c0,0,0,4.3,4.3,4.3h30.3c0,0,4.4,0,4.4,-4.3v-10.9c0,0,0,-4.3,-4.4,-4.3Z" class="gb_285"/>
<path d="M478.3,1119.4v37.5m1.4,1H866.8m.9,-1.3V1119m-1.3,-1H479.3" class="gc_285"/>
<path d="M478.3,1157.3v.6h.6m388.2,0h.6v-.6m0,-38.7v-.6h-.6m-388.2,0h-.6v.6" class="gd_285"/>
<image clip-path="url(#c4_285)" preserveAspectRatio="none" x="99" y="273" width="238" height="287" xlink:href="img/5.png"/>
<path d="M103.9,290.9l14.9,262.8L331.6,541.1L316.3,277.9Z" class="g3_285"/>
<image clip-path="url(#c5_285)" preserveAspectRatio="none" x="106" y="279" width="224" height="274" xlink:href="img/6.png"/>
<image clip-path="url(#c6_285)" preserveAspectRatio="none" x="105" y="279" width="224" height="274" xlink:href="img/7.png"/>
<path d="M111.2,284.3l-.3,260.9l180.6,.8l32,-27.4l-.2,-233.5Z" class="g4_285"/>
<path d="M291.9,546L324,518.6l-16.1,-9.9Z" class="g5_285"/>
<path d="M528,420.5c31.9,-.5,57.8,-6.5,63,-14.2m-.9,-6.9C583,392.1,557.4,386.6,526.4,386.3m-7.6,0c-31.9,.5,-57.9,6.5,-63.1,14.2m1,6.9c7,7.3,32.7,12.8,63.6,13.1" class="g8_285"/>
<path d="M591.7,404.9c.2,-.5,.3,-1,.3,-1.5c0,-.5,-.1,-1,-.3,-1.5M524.9,386.3c-.5,0,-1,0,-1.5,0c-.5,0,-1,0,-1.6,0M455,401.9c-.2,.5,-.2,1,-.2,1.5c0,.5,0,1,.2,1.5m66.8,15.6c.6,0,1.1,0,1.6,0c.5,0,1,0,1.5,0" class="g7_285"/>
<path d="M503.3,428c-8.7,18.8,-46.8,95.7,-87.7,98.3m-6.4,-2.8c-4.4,-4.6,-9.5,-13.7,8.6,-20.9" class="g6_285"/>
<path d="M425.1,505c1.1,1.3,2,3,2.2,5.2m-2,7.9c-5.6,9.4,-25.1,32.1,-85.4,35.7m-7.6,.4c-13.8,.4,-56.5,.2,-93.7,-17.1" class="g8_285"/>
<path d="M505.2,423.9c0,0,-.2,.5,-.6,1.4M414.1,526.4c-.5,0,-1,0,-1.5,0c0,0,-.5,-.3,-1.2,-.9m7.8,-23.4c.5,-.2,.9,-.4,1.4,-.5c0,0,.7,.2,1.7,.9m5.1,9.6c0,.6,0,1.2,-.1,1.9c0,0,-.2,.5,-.6,1.4m-88.3,38.5c-.6,0,-1.1,0,-1.6,.1c0,0,-.5,0,-1.5,.1M237.2,536.4c-.4,-.2,-.9,-.4,-1.3,-.6" class="g7_285"/>
<path d="M239.4,533.5l-4.3,6.1l-5.6,-6.9Z" class="g9_285"/>
<path d="M231.8,167.6c0,0,-13,0,-13,13v47.6c0,0,0,13,13,13h602c0,0,13,0,13,-13V180.6c0,0,0,-13,-13,-13Z" class="ga_285"/>
<image clip-path="url(#c7_285)" preserveAspectRatio="none" x="175" y="164" width="75" height="76" xlink:href="img/8.png"/>
<path d="M226.6,233.8c0,0,-26.9,11.3,-51.1,-12.7c0,0,15.1,25.3,49.3,23.9c0,0,24.7,.4,20.2,-10.1c0,0,1.2,-4.4,-18.4,-1.1Z" class="ga_285"/>
<image clip-path="url(#c8_285)" x="213" y="285" width="6" height="10" xlink:href="shade/1.png"/>
<image clip-path="url(#c9_285)" x="212" y="259" width="25" height="28" xlink:href="shade/2.png"/>
<image clip-path="url(#ca_285)" x="212" y="261" width="23" height="34" xlink:href="shade/3.png"/>
<image clip-path="url(#cb_285)" x="218" y="257" width="19" height="10" xlink:href="shade/4.png"/>
<image clip-path="url(#cc_285)" x="798" y="497" width="5" height="10" xlink:href="shade/5.png"/>
<image clip-path="url(#cd_285)" x="797" y="471" width="24" height="28" xlink:href="shade/6.png"/>
<image clip-path="url(#ce_285)" x="797" y="473" width="23" height="34" xlink:href="shade/7.png"/>
<image clip-path="url(#cf_285)" x="802" y="469" width="20" height="10" xlink:href="shade/8.png"/>
<path d="M153.3,111.9v39L165,161.2V117Z" class="ge_285"/>
<path d="M153.3,111.9v39H851.1c0,0,16.8,0,16.8,-16.8v-5.3c0,0,0,-16.9,-16.8,-16.9Z" class="gb_285"/>
<path d="M802.6,145.6c8.2,0,14.9,-6.5,14.9,-14.5c0,-8.1,-6.7,-14.5,-14.9,-14.5c-8.2,0,-14.9,6.4,-14.9,14.5c0,8,6.7,14.5,14.9,14.5Z" class="gf_285"/>
<path d="M802.6,145.6c8.2,0,14.9,-6.5,14.9,-14.5c0,-8.1,-6.7,-14.5,-14.9,-14.5c-8.2,0,-14.9,6.4,-14.9,14.5c0,8,6.7,14.5,14.9,14.5Z" class="gg_285"/>
<path d="M802.6,136.4c3,0,5.5,-2.4,5.5,-5.3c0,-3,-2.5,-5.4,-5.5,-5.4c-3,0,-5.5,2.4,-5.5,5.4c0,2.9,2.5,5.3,5.5,5.3Z" class="g1_285"/>
<path d="M802.6,136.4c3,0,5.5,-2.4,5.5,-5.3c0,-3,-2.5,-5.4,-5.5,-5.4c-3,0,-5.5,2.4,-5.5,5.4c0,2.9,2.5,5.3,5.5,5.3Z" class="gh_285"/>
<g clip-path="url(#cg_285)" opacity="0.3">
<path d="M788,130.3c0,0,0,-4.8,3.7,-8.7l7.7,6.8c0,0,-1,.9,-1,2.6Z" class="g1_285"/>
</g>
<path d="M807.2,131c0,0,-3.5,0,-3.5,3.4v8.7c0,0,0,3.5,3.5,3.5h43.5c0,0,3.5,0,3.5,-3.5v-8.7c0,0,0,-3.4,-3.5,-3.4Z" class="gi_285"/>
<path d="M191.2,122c0,-8.3,-6.8,-15,-15.1,-15c-8.3,0,-15,6.7,-15,15c0,8.3,6.7,15.1,15,15.1c.8,0,1.7,-.1,2.4,-.2l4.5,5.2v-6.7c4.9,-2.5,8.2,-7.6,8.2,-13.4Z" class="g1_285"/>
<path d="M183.5,143.3l-5.1,-5.9c-.8,.1,-1.5,.1,-2.3,.1c-8.5,0,-15.5,-6.9,-15.5,-15.5c0,-8.5,7,-15.5,15.5,-15.5c8.6,0,15.5,7,15.5,15.5c0,5.7,-3.1,11,-8.1,13.7Zm-4.8,-6.9l3.9,4.5v-5.8l.2,-.1c4.9,-2.5,7.9,-7.5,7.9,-13c0,-8,-6.5,-14.6,-14.6,-14.6c-8,0,-14.6,6.6,-14.6,14.6c0,8.1,6.6,14.6,14.6,14.6c.8,0,1.6,-.1,2.4,-.2Z" class="gj_285"/>
<path d="M169.1,121.6c.8,0,1.4,.6,1.4,1.4c0,.8,-.6,1.5,-1.4,1.5c-.8,0,-1.4,-.7,-1.4,-1.5c0,-.8,.6,-1.4,1.4,-1.4Z" class="gk_285"/>
<path d="M169.1,124.9c-1,0,-1.9,-.8,-1.9,-1.9c0,-1,.9,-1.9,1.9,-1.9c1,0,1.9,.9,1.9,1.9c0,1.1,-.9,1.9,-1.9,1.9m0,-2.9c-.5,0,-1,.5,-1,1c0,.6,.5,1,1,1c.5,0,1,-.4,1,-1c0,-.5,-.5,-1,-1,-1Z" class="gj_285"/>
<path d="M176.1,121.6c.8,0,1.5,.6,1.5,1.4c0,.8,-.7,1.5,-1.5,1.5c-.8,0,-1.4,-.7,-1.4,-1.5c0,-.8,.6,-1.4,1.4,-1.4Z" class="gk_285"/>
<path d="M176.1,124.9c-1,0,-1.9,-.8,-1.9,-1.9c0,-1,.9,-1.9,1.9,-1.9c1.1,0,1.9,.9,1.9,1.9c0,1.1,-.8,1.9,-1.9,1.9m0,-2.9c-.5,0,-1,.5,-1,1c0,.6,.5,1,1,1c.6,0,1,-.4,1,-1c0,-.5,-.4,-1,-1,-1Z" class="gj_285"/>
<path d="M183.1,121.6c.8,0,1.5,.6,1.5,1.4c0,.8,-.7,1.5,-1.5,1.5c-.8,0,-1.4,-.7,-1.4,-1.5c0,-.8,.6,-1.4,1.4,-1.4Z" class="gk_285"/>
<path d="M183.1,124.9c-1,0,-1.9,-.8,-1.9,-1.9c0,-1,.9,-1.9,1.9,-1.9c1.1,0,1.9,.9,1.9,1.9c0,1.1,-.8,1.9,-1.9,1.9m0,-2.9c-.5,0,-1,.5,-1,1c0,.6,.5,1,1,1c.6,0,1,-.4,1,-1c0,-.5,-.4,-1,-1,-1Z" class="gj_285"/>
<path d="M185.1,136.3c0,-9.8,7.8,-17.7,17.6,-17.7c9.7,0,17.6,7.9,17.6,17.7c0,9.7,-7.9,17.6,-17.6,17.6c-1,0,-1.9,-.1,-2.9,-.3l-5.2,6.1v-7.8c-5.7,-2.9,-9.5,-8.8,-9.5,-15.6Z" class="gl_285"/>
<path d="M194.6,160.2q-.1,0,-.2,0c-.2,-.1,-.3,-.3,-.3,-.5v-7.5c-5.9,-3.2,-9.5,-9.2,-9.5,-15.9c0,-10,8.1,-18.1,18.1,-18.1c9.9,0,18,8.1,18,18.1c0,9.9,-8.1,18,-18,18c-.9,0,-1.8,0,-2.7,-.2l-5.1,5.9c-.1,.1,-.2,.2,-.3,.2m8.1,-41.1c-9.5,0,-17.2,7.7,-17.2,17.2c0,6.4,3.6,12.2,9.3,15.2c.1,.1,.2,.2,.2,.4v6.6l4.5,-5.2c.1,-.1,.3,-.1,.4,-.1c1,.1,1.9,.2,2.8,.2c9.4,0,17.1,-7.7,17.1,-17.1c0,-9.5,-7.7,-17.2,-17.1,-17.2Z" class="gj_285"/>
<path d="M210.9,135.8c.9,0,1.6,.7,1.6,1.6c0,1,-.7,1.7,-1.6,1.7c-1,0,-1.7,-.7,-1.7,-1.7c0,-.9,.7,-1.6,1.7,-1.6Z" class="g1_285"/>
<path d="M210.9,139.6c-1.2,0,-2.2,-1,-2.2,-2.2c0,-1.1,1,-2.1,2.2,-2.1c1.1,0,2.1,1,2.1,2.1c0,1.2,-1,2.2,-2.1,2.2m0,-3.4c-.7,0,-1.3,.6,-1.3,1.2c0,.7,.6,1.3,1.3,1.3c.6,0,1.2,-.6,1.2,-1.3c0,-.6,-.6,-1.2,-1.2,-1.2Z" class="gj_285"/>
<path d="M202.7,135.8c.9,0,1.6,.7,1.6,1.6c0,1,-.7,1.7,-1.6,1.7c-1,0,-1.7,-.7,-1.7,-1.7c0,-.9,.7,-1.6,1.7,-1.6Z" class="g1_285"/>
<path d="M202.7,139.6c-1.2,0,-2.2,-1,-2.2,-2.2c0,-1.1,1,-2.1,2.2,-2.1c1.1,0,2.1,1,2.1,2.1c0,1.2,-1,2.2,-2.1,2.2m0,-3.4c-.7,0,-1.3,.6,-1.3,1.2c0,.7,.6,1.3,1.3,1.3c.6,0,1.2,-.6,1.2,-1.3c0,-.6,-.6,-1.2,-1.2,-1.2Z" class="gj_285"/>
<path d="M194.5,135.8c.9,0,1.6,.7,1.6,1.6c0,1,-.7,1.7,-1.6,1.7c-1,0,-1.7,-.7,-1.7,-1.7c0,-.9,.7,-1.6,1.7,-1.6Z" class="g1_285"/>
<path d="M194.5,139.6c-1.2,0,-2.2,-1,-2.2,-2.2c0,-1.1,1,-2.1,2.2,-2.1c1.1,0,2.1,1,2.1,2.1c0,1.2,-1,2.2,-2.1,2.2m0,-3.4c-.7,0,-1.2,.6,-1.2,1.2c0,.7,.5,1.3,1.2,1.3c.6,0,1.2,-.6,1.2,-1.3c0,-.6,-.6,-1.2,-1.2,-1.2Z" class="gj_285"/>
<path d="M32.1,45.1H9.2m958.3,0h22.9M32.1,1331.3H9.2m958.3,0h22.9M45.1,32.1V9.2m0,1335.1v22.9M954.5,32.1V9.2m0,1335.1v22.9" class="gm_285"/>
<path d="M32.1,45.1H9.2m958.3,0h22.9M32.1,1331.3H9.2m958.3,0h22.9M45.1,32.1V9.2m0,1335.1v22.9M954.5,32.1V9.2m0,1335.1v22.9" class="gn_285"/>
<path d="M27.5,32.1H0m972.1,0h27.5M27.5,1344.3H0m972.1,0h27.5M32.1,27.5V0m0,1348.9v27.5M967.5,27.5V0m0,1348.9v27.5" class="gm_285"/>
<path d="M27.5,32.1H0m972.1,0h27.5M27.5,1344.3H0m972.1,0h27.5M32.1,27.5V0m0,1348.9v27.5M967.5,27.5V0m0,1348.9v27.5" class="gn_285"/>
</svg>