<?xml version="1.0" encoding="UTF-8" standalone="no"?>
<!DOCTYPE svg PUBLIC "-//W3C//DTD SVG 1.1//EN"
"http://www.w3.org/Graphics/SVG/1.1/DTD/svg11.dtd">
<svg viewBox="0 0 999 1376" version="1.1" xmlns="http://www.w3.org/2000/svg" xmlns:xlink="http://www.w3.org/1999/xlink">
<defs>
<clipPath id="c0_29"><path d="M32.1,1344.3V32.1H967.5V1344.3Z"/></clipPath>
<clipPath id="c1_29"><path d="M151.6,1156.3V240H873.2v916.3Z"/></clipPath>
<clipPath id="c2_29"><path d="M194.4,1051V656.1H834.6V1051Z"/></clipPath>
<clipPath id="c3_29"><path d="M212.5,228.7V216.1H225v12.6Z"/></clipPath>
<clipPath id="c4_29"><path d="M523.8,228.7V216.1h12.6v12.6Z"/></clipPath>
<clipPath id="c5_29"><path d="M523.9,263.6V251h12.5v12.6Z"/></clipPath>
<clipPath id="c6_29"><path d="M212.4,263.6V251H225v12.6Z"/></clipPath>
<style type="text/css"><![CDATA[
.g0_29{
fill: #FFFDEA;
}
.g1_29{
fill: #BCE4EA;
}
.g2_29{
fill: #BCBEC0;
}
.g3_29{
fill: #00AABD;
}
.g4_29{
fill: #B092C4;
}
.g5_29{
fill: none;
stroke: #976EAF;
stroke-width: 0.381;
stroke-dasharray: 2,1;
}
.g6_29{
fill: none;
stroke: #976EAF;
stroke-width: 0.381;
}
.g7_29{
fill: #FCE9F1;
}
.g8_29{
fill: #FFF;
}
.g9_29{
fill: none;
stroke: #976EAF;
stroke-width: 3.819;
}
.ga_29{
fill: none;
stroke: #CDBCDB;
stroke-width: 3.819;
stroke-linecap: round;
stroke-linejoin: round;
stroke-dasharray: 0,14;
}
.gb_29{
fill: none;
stroke: #CDBCDB;
stroke-width: 3.819;
stroke-linecap: round;
stroke-linejoin: round;
stroke-dasharray: 0,12;
}
.gc_29{
fill: none;
stroke: #CDBCDB;
stroke-width: 3.819;
stroke-linecap: round;
stroke-linejoin: round;
}
.gd_29{
fill: #976EAF;
}
.ge_29{
fill: #67C0E1;
}
.gf_29{
fill: #233D4A;
}
.gg_29{
fill: #F5C44D;
}
.gh_29{
fill: #FCDCBA;
}
.gi_29{
fill: none;
stroke: #FFF;
stroke-width: 1.909;
stroke-miterlimit: 10;
}
.gj_29{
fill: none;
stroke: #000;
stroke-width: 0.381;
stroke-miterlimit: 10;
}
]]></style>
</defs>
<g clip-path="url(#c0_29)">
<path d="M-877.3,1344.3H967.5V32.1H-877.3V1344.3Z" class="g0_29"/>
<path d="M-877.3,179.3H967.5V32.1H-877.3V179.3Z" class="g1_29"/>
<path d="M967.5,177.2H-877.3v-5.4h736.6c43.1,0,53.1,-37.9,115.3,-37.9H967.5Z" class="g2_29"/>
<path d="M967.5,183.7H-877.3v-9.8h736.6c43.1,0,53.1,-33.6,115.3,-33.6H967.5Z" class="g3_29"/>
</g>
<path d="M536.2,1167.8c0,0,-4.3,0,-4.3,4.4V1183c0,0,0,4.3,4.3,4.3h30.3c0,0,4.4,0,4.4,-4.3v-10.8c0,0,0,-4.4,-4.4,-4.4Z" class="g4_29"/>
<path d="M523,1160.4v34.8m1.4,1H866.8m.9,-1.4V1160m-1.3,-1H524" class="g5_29"/>
<path d="M523,1195.6v.6h.6m343.5,0h.6v-.6m0,-36v-.6h-.6m-343.5,0H523v.6" class="g6_29"/>
<image clip-path="url(#c1_29)" preserveAspectRatio="none" x="151" y="240" width="722" height="916" xlink:href="img/1.png"/>
<path d="M172.6,243.6c0,0,-17.3,0,-17.3,17.3v868.4c0,0,0,17.3,17.3,17.3H846.4c0,0,17.3,0,17.3,-17.3V260.9c0,0,0,-17.3,-17.3,-17.3Z" class="g7_29"/>
<image clip-path="url(#c2_29)" preserveAspectRatio="none" x="194" y="657" width="640" height="395" xlink:href="img/2.png"/>
<path d="M206.1,659.3c0,0,-8.5,0,-8.5,15.2v355.1c0,0,0,15.2,8.5,15.2H819.6c0,0,8.6,0,8.6,-15.2V674.5c0,0,0,-15.2,-8.6,-15.2Z" class="g8_29"/>
<path d="M172.6,243.6c0,0,-17.3,0,-17.3,17.3v868.4c0,0,0,17.3,17.3,17.3H846.4c0,0,17.3,0,17.3,-17.3V260.9c0,0,0,-17.3,-17.3,-17.3H172.6Z" class="g9_29"/>
<path d="M160,248.5c-1.5,1.4,-2.8,3.3,-3.7,5.7" class="ga_29"/>
<path d="M155.3,272.3v851.3" class="gb_29"/>
<path d="M160.1,1141.9c1.4,1.5,3.3,2.8,5.7,3.7" class="ga_29"/>
<path d="M184,1146.6H840.7" class="gb_29"/>
<path d="M858.9,1141.8c1.6,-1.5,2.9,-3.3,3.7,-5.7" class="ga_29"/>
<path d="M863.7,1117.9V266.6" class="gb_29"/>
<path d="M858.8,248.4c-1.4,-1.5,-3.2,-2.9,-5.7,-3.7" class="ga_29"/>
<path d="M835,243.6H178.3" class="gb_29"/>
<path d="M155.3,260.9v0m0,868.4v0m17.3,17.3v0m673.8,0v0m17.3,-17.3v0m0,-868.4v0M846.4,243.6v0m-673.8,0v0" class="gc_29"/>
<path d="M223.4,217.6l-9.4,9.5v25.5l9.4,9.5H525.5l9.4,-9.5V227.1l-9.4,-9.5Z" class="g4_29"/>
<path d="M223.5,252.6H525.4V227.1H223.5v25.5Z" class="g8_29"/>
<g clip-path="url(#c3_29)" style="mix-blend-mode: multiply;">
<path d="M214,227.2h9.5v-9.6Z" class="gd_29"/>
</g>
<g clip-path="url(#c4_29)" style="mix-blend-mode: multiply;">
<path d="M525.4,217.7v9.5h9.5Z" class="gd_29"/>
</g>
<g clip-path="url(#c5_29)" style="mix-blend-mode: multiply;">
<path d="M534.9,252.5h-9.5v9.6Z" class="gd_29"/>
</g>
<g clip-path="url(#c6_29)" style="mix-blend-mode: multiply;">
<path d="M223.5,262.1v-9.5H214Z" class="gd_29"/>
</g>
<path d="M198.4,251.5c.1,.3,.1,.6,.1,.9c.1,1.8,-1.3,3.4,-3.1,3.5c-1.8,0,-3.3,-1.4,-3.3,-3.3c-.1,-.3,0,-.6,0,-.8Z" class="ge_29"/>
<path d="M195.4,256.6c-2.1,.1,-4,-1.7,-4.1,-4c0,-.3,0,-.7,.1,-1c.1,-.4,.5,-.6,.9,-.6c.4,.1,.6,.5,.6,.9c-.1,.2,-.1,.5,-.1,.7c0,1.4,1.2,2.6,2.6,2.5c1.4,0,2.5,-1.2,2.4,-2.7c0,-.2,0,-.4,-.1,-.7c-.1,-.3,.1,-.8,.5,-.9c.4,-.1,.8,.1,.9,.5c.1,.4,.2,.7,.2,1.1c.1,2.2,-1.7,4.1,-3.9,4.2Z" class="gf_29"/>
<path d="M192.8,227c-.1,-.3,-.2,-.5,-.2,-.8v-.1c0,-1.1,.8,-2.1,1.9,-2.1c1.1,0,2,.8,2.1,2v.1c0,.2,-.1,.5,-.2,.8Z" class="ge_29"/>
<path d="M192.8,227.7c-.2,0,-.5,-.1,-.7,-.4c-.1,-.4,-.2,-.7,-.2,-1.1v-.1c-.1,-1.5,1.1,-2.8,2.6,-2.8c1.5,-.1,2.8,1.1,2.8,2.6v.1c0,.4,0,.8,-.2,1.1c-.1,.4,-.5,.6,-.9,.5c-.4,-.2,-.6,-.6,-.4,-1c0,-.2,.1,-.3,0,-.5V226c0,-.7,-.6,-1.3,-1.2,-1.3c-.7,.1,-1.3,.7,-1.2,1.4v.1c0,.2,0,.3,.1,.5c.1,.4,0,.8,-.4,1c-.1,0,-.2,0,-.3,0Z" class="gf_29"/>
<path d="M207.3,246.4l-.8,-7.1c-.2,-7,-5.6,-12.4,-11.9,-12.2c-6.4,.2,-11.3,6,-11.1,13l-.2,6.9Z" class="gg_29"/>
<path d="M207.3,247.1c-.4,0,-.7,-.3,-.7,-.6l-.8,-7.1c-.2,-6.6,-5.2,-11.8,-11.2,-11.6c-5.9,.2,-10.6,5.7,-10.3,12.3l-.2,6.9c0,.4,-.4,.7,-.8,.7c-.4,0,-.7,-.4,-.7,-.8l.2,-6.8c-.2,-7.3,5,-13.5,11.8,-13.7c6.7,-.3,12.4,5.5,12.6,12.9l.8,7c.1,.4,-.2,.7,-.6,.8Z" class="gf_29"/>
<path d="M209.5,237.8q-.1,0,-.2,0c-.4,-.2,-.6,-.6,-.5,-1c.8,-2.3,-.8,-3.6,-.8,-3.6c-.3,-.3,-.3,-.8,-.1,-1.1c.3,-.3,.7,-.3,1,-.1c.1,.1,2.4,2,1.3,5.3c-.1,.3,-.4,.5,-.7,.5Z" class="gf_29"/>
<path d="M212.1,238.7c-.1,0,-.2,0,-.3,0c-.4,-.2,-.6,-.6,-.4,-1c1.4,-4.3,-1.4,-6.7,-1.6,-6.8c-.3,-.2,-.3,-.7,-.1,-1c.3,-.3,.8,-.3,1.1,-.1c.1,.1,3.7,3.1,1.9,8.4c0,.3,-.3,.5,-.6,.5Z" class="gf_29"/>
<path d="M208.8,248.7c0,1.2,-.9,2.2,-2,2.2l-23,.8c-1.1,.1,-2.1,-.9,-2.1,-2l-.1,-.4c0,-1.2,.9,-2.2,2,-2.2l23,-.8c1.1,-.1,2.1,.9,2.1,2Z" class="gg_29"/>
<path d="M206.8,251.7l-23,.8c-1.5,0,-2.8,-1.2,-2.9,-2.8v-.4c0,-1.6,1.2,-2.9,2.7,-3l23,-.8c1.5,0,2.8,1.2,2.9,2.8v.4c0,1.6,-1.2,2.9,-2.7,3m-23.1,-3.9c-.8,0,-1.3,.7,-1.3,1.5v.3c0,.8,.6,1.4,1.4,1.4l22.9,-.8c.8,0,1.4,-.7,1.3,-1.5v-.3c0,-.8,-.6,-1.4,-1.4,-1.4Z" class="gf_29"/>
<path d="M197.8,230.5c-.4,0,-.7,.3,-.8,.6c-.1,.5,.1,1,.6,1.1c0,0,3.9,1.3,4.1,6.4c0,.5,.4,.8,.9,.8c.5,0,.8,-.4,.8,-.9c-.2,-6.2,-5.1,-7.9,-5.3,-7.9c-.1,-.1,-.2,-.1,-.3,-.1Z" class="gh_29"/>
<path d="M32.1,45.1H9.2m958.3,0h22.9M32.1,1331.3H9.2m958.3,0h22.9M45.1,32.1V9.2m0,1335.1v22.9M954.5,32.1V9.2m0,1335.1v22.9" class="gi_29"/>
<path d="M32.1,45.1H9.2m958.3,0h22.9M32.1,1331.3H9.2m958.3,0h22.9M45.1,32.1V9.2m0,1335.1v22.9M954.5,32.1V9.2m0,1335.1v22.9" class="gj_29"/>
<path d="M27.5,32.1H0m972.1,0h27.5M27.5,1344.3H0m972.1,0h27.5M32.1,27.5V0m0,1348.9v27.5M967.5,27.5V0m0,1348.9v27.5" class="gi_29"/>
<path d="M27.5,32.1H0m972.1,0h27.5M27.5,1344.3H0m972.1,0h27.5M32.1,27.5V0m0,1348.9v27.5M967.5,27.5V0m0,1348.9v27.5" class="gj_29"/>
</svg>