<?xml version="1.0" encoding="UTF-8" standalone="no"?>
<!DOCTYPE svg PUBLIC "-//W3C//DTD SVG 1.1//EN"
"http://www.w3.org/Graphics/SVG/1.1/DTD/svg11.dtd">
<svg viewBox="0 0 999 1376" version="1.1" xmlns="http://www.w3.org/2000/svg" xmlns:xlink="http://www.w3.org/1999/xlink">
<defs>
<clipPath id="c0_36"><path d="M32.1,1344.3V32.1H967.5V1344.3Z"/></clipPath>
<clipPath id="c1_36"><path d="M130,1127.8V236.3H853.8v891.5Z"/></clipPath>
<clipPath id="c2_36"><path d="M168.6,1022V655.2H808.8V1022Z"/></clipPath>
<clipPath id="c3_36"><path d="M190.8,225V212.4h12.6V225Z"/></clipPath>
<clipPath id="c4_36"><path d="M502.2,225V212.5h12.6V225Z"/></clipPath>
<clipPath id="c5_36"><path d="M502.2,259.9V247.4h12.6v12.5Z"/></clipPath>
<clipPath id="c6_36"><path d="M190.8,259.9V247.4h12.6v12.5Z"/></clipPath>
<style type="text/css"><![CDATA[
.g0_36{
fill: #FFFDEA;
}
.g1_36{
fill: #BCE4EA;
}
.g2_36{
fill: #BCBEC0;
}
.g3_36{
fill: #00AABD;
}
.g4_36{
fill: #FCE9F1;
}
.g5_36{
fill: #FFF;
}
.g6_36{
fill: none;
stroke: #976EAF;
stroke-width: 3.819;
}
.g7_36{
fill: none;
stroke: #CDBCDB;
stroke-width: 3.819;
stroke-linecap: round;
stroke-linejoin: round;
stroke-dasharray: 0,14;
}
.g8_36{
fill: none;
stroke: #CDBCDB;
stroke-width: 3.819;
stroke-linecap: round;
stroke-linejoin: round;
stroke-dasharray: 0,12;
}
.g9_36{
fill: none;
stroke: #CDBCDB;
stroke-width: 3.819;
stroke-linecap: round;
stroke-linejoin: round;
}
.ga_36{
fill: #B092C4;
}
.gb_36{
fill: #976EAF;
}
.gc_36{
fill: #67C0E1;
}
.gd_36{
fill: #233D4A;
}
.ge_36{
fill: #F5C44D;
}
.gf_36{
fill: #FCDCBA;
}
.gg_36{
fill: none;
stroke: #976EAF;
stroke-width: 0.381;
stroke-dasharray: 2,1;
}
.gh_36{
fill: none;
stroke: #976EAF;
stroke-width: 0.381;
}
.gi_36{
fill: none;
stroke: #FFF;
stroke-width: 1.909;
stroke-miterlimit: 10;
}
.gj_36{
fill: none;
stroke: #000;
stroke-width: 0.381;
stroke-miterlimit: 10;
}
]]></style>
</defs>
<g clip-path="url(#c0_36)">
<path d="M32.1,1344.3H1877V32.1H32.1V1344.3Z" class="g0_36"/>
<path d="M32.1,179.3H1877V32.1H32.1V179.3Z" class="g1_36"/>
<path d="M1877,177.2H32.1v-5.4H768.7c43.1,0,53,-37.9,115.3,-37.9h993Z" class="g2_36"/>
<path d="M1877,183.7H32.1v-9.8H768.7c43.1,0,53,-33.6,115.3,-33.6h993Z" class="g3_36"/>
</g>
<image clip-path="url(#c1_36)" preserveAspectRatio="none" x="130" y="237" width="723" height="891" xlink:href="img/1.png"/>
<path d="M150.9,239.9c0,0,-17.3,0,-17.3,17.4v843.4c0,0,0,17.3,17.3,17.3H827c0,0,17.3,0,17.3,-17.3V257.3c0,0,0,-17.4,-17.3,-17.4Z" class="g4_36"/>
<image clip-path="url(#c2_36)" preserveAspectRatio="none" x="168" y="655" width="640" height="368" xlink:href="img/2.png"/>
<path d="M180.4,658.5c0,0,-8.5,-2.1,-8.5,11.9v333.5c0,0,0,11.9,8.5,11.9H793.9c0,0,8.5,2.1,8.5,-11.9V670.4c0,0,0,-11.9,-8.5,-11.9Z" class="g5_36"/>
<path d="M284.6,728.3c2,0,3.5,-1.6,3.5,-3.5c0,-1.9,-1.5,-3.5,-3.5,-3.5c-1.9,0,-3.4,1.6,-3.4,3.5c0,1.9,1.5,3.5,3.4,3.5Z" class="g5_36"/>
<path d="M703.6,728.3c2,0,3.5,-1.6,3.5,-3.5c0,-1.9,-1.5,-3.5,-3.5,-3.5c-1.9,0,-3.4,1.6,-3.4,3.5c0,1.9,1.5,3.5,3.4,3.5Z" class="g5_36"/>
<path d="M384.7,813.1c1.9,0,3.5,-1.5,3.5,-3.4c0,-1.9,-1.6,-3.5,-3.5,-3.5c-1.9,0,-3.5,1.6,-3.5,3.5c0,1.9,1.6,3.4,3.5,3.4Z" class="g5_36"/>
<path d="M592.6,813.1c1.9,0,3.4,-1.5,3.4,-3.4c0,-1.9,-1.5,-3.5,-3.4,-3.5c-2,0,-3.5,1.6,-3.5,3.5c0,1.9,1.5,3.4,3.5,3.4Z" class="g5_36"/>
<path d="M304.1,898.9c1.9,0,3.5,-1.6,3.5,-3.5c0,-1.9,-1.6,-3.4,-3.5,-3.4c-1.9,0,-3.4,1.5,-3.4,3.4c0,1.9,1.5,3.5,3.4,3.5Z" class="g5_36"/>
<path d="M244.4,984.2c1.9,0,3.4,-1.6,3.4,-3.5c0,-1.9,-1.5,-3.4,-3.4,-3.4c-1.9,0,-3.5,1.5,-3.5,3.4c0,1.9,1.6,3.5,3.5,3.5Z" class="g5_36"/>
<path d="M479.1,984.2c1.9,0,3.5,-1.6,3.5,-3.5c0,-1.9,-1.6,-3.4,-3.5,-3.4c-1.9,0,-3.5,1.5,-3.5,3.4c0,1.9,1.6,3.5,3.5,3.5Z" class="g5_36"/>
<path d="M720.3,984.2c1.9,0,3.5,-1.6,3.5,-3.5c0,-1.9,-1.6,-3.4,-3.5,-3.4c-1.9,0,-3.4,1.5,-3.4,3.4c0,1.9,1.5,3.5,3.4,3.5Z" class="g5_36"/>
<path d="M512.9,898.9c1.9,0,3.4,-1.6,3.4,-3.5c0,-1.9,-1.5,-3.4,-3.4,-3.4c-1.9,0,-3.5,1.5,-3.5,3.4c0,1.9,1.6,3.5,3.5,3.5Z" class="g5_36"/>
<path d="M711.7,898.9c1.9,0,3.4,-1.6,3.4,-3.5c0,-1.9,-1.5,-3.4,-3.4,-3.4c-2,0,-3.5,1.5,-3.5,3.4c0,1.9,1.5,3.5,3.5,3.5Z" class="g5_36"/>
<path d="M150.9,239.9c0,0,-17.3,0,-17.3,17.4v843.4c0,0,0,17.3,17.3,17.3H827c0,0,17.3,0,17.3,-17.3V257.3c0,0,0,-17.4,-17.3,-17.4H150.9Z" class="g6_36"/>
<path d="M138.4,244.8c-1.5,1.4,-2.9,3.3,-3.7,5.7" class="g7_36"/>
<path d="M133.6,268.6V1095" class="g8_36"/>
<path d="M138.5,1113.3c1.4,1.5,3.3,2.8,5.7,3.7" class="g7_36"/>
<path d="M162.4,1118H821.3" class="g8_36"/>
<path d="M839.6,1113.2c1.5,-1.4,2.8,-3.3,3.7,-5.7" class="g7_36"/>
<path d="M844.3,1089.3V263" class="g8_36"/>
<path d="M839.5,244.7c-1.4,-1.5,-3.3,-2.8,-5.7,-3.7" class="g7_36"/>
<path d="M815.6,239.9H156.7" class="g8_36"/>
<path d="M133.6,257.3v0m0,843.4v0m17.3,17.3v0m676.1,0v0m17.3,-17.3v0m0,-843.4v0M827,239.9v0m-676.1,0v0" class="g9_36"/>
<path d="M201.8,214l-9.5,9.4v25.5l9.5,9.5h302l9.4,-9.5V223.4L503.8,214Z" class="ga_36"/>
<path d="M201.8,248.9H503.7V223.5H201.8v25.4Z" class="g5_36"/>
<g clip-path="url(#c3_36)" style="mix-blend-mode: multiply;">
<path d="M192.3,223.5h9.5V214Z" class="gb_36"/>
</g>
<g clip-path="url(#c4_36)" style="mix-blend-mode: multiply;">
<path d="M503.7,214v9.5h9.5Z" class="gb_36"/>
</g>
<g clip-path="url(#c5_36)" style="mix-blend-mode: multiply;">
<path d="M513.2,248.9h-9.5v9.5Z" class="gb_36"/>
</g>
<g clip-path="url(#c6_36)" style="mix-blend-mode: multiply;">
<path d="M201.9,258.4v-9.5h-9.6Z" class="gb_36"/>
</g>
<path d="M176.8,247.9c0,.2,.1,.5,.1,.8c.1,1.9,-1.3,3.4,-3.1,3.5c-1.8,.1,-3.3,-1.4,-3.4,-3.2c0,-.3,0,-.6,.1,-.9Z" class="gc_36"/>
<path d="M173.8,252.9c-2.2,.1,-4,-1.7,-4.1,-3.9c0,-.4,0,-.7,.1,-1.1c.1,-.4,.4,-.6,.8,-.5c.4,.1,.7,.4,.6,.8c0,.3,-.1,.5,-.1,.7c.1,1.5,1.3,2.6,2.6,2.6c1.4,-.1,2.5,-1.3,2.5,-2.8c0,-.2,-.1,-.4,-.1,-.6c-.2,-.4,.1,-.8,.5,-.9c.4,-.1,.8,.1,.9,.5c.1,.3,.1,.7,.1,1c.1,2.3,-1.6,4.2,-3.8,4.2Z" class="gd_36"/>
<path d="M171.2,223.3c-.1,-.2,-.2,-.5,-.2,-.8v-.1c-.1,-1.1,.8,-2,1.9,-2.1c1.1,0,2,.9,2,2v.1c0,.3,0,.5,-.1,.8Z" class="gc_36"/>
<path d="M171.2,224.1c-.3,0,-.6,-.2,-.7,-.5c-.2,-.3,-.2,-.7,-.3,-1v-.1c0,-1.6,1.2,-2.8,2.7,-2.9c1.4,-.1,2.7,1.2,2.7,2.7l.1,.1c0,.3,-.1,.7,-.2,1c-.2,.4,-.6,.6,-1,.5c-.3,-.2,-.5,-.6,-.4,-1c.1,-.1,.1,-.3,.1,-.5v-.1c0,-.7,-.6,-1.3,-1.3,-1.2c-.7,0,-1.2,.6,-1.2,1.3v.1c0,.2,.1,.4,.1,.5c.2,.4,0,.8,-.3,1c-.1,0,-.2,.1,-.3,.1Z" class="gd_36"/>
<path d="M185.6,242.7l-.7,-7.1c-.3,-6.9,-5.6,-12.4,-12,-12.2c-6.3,.2,-11.2,6.1,-11,13l-.2,6.9Z" class="ge_36"/>
<path d="M185.7,243.4c-.4,0,-.7,-.2,-.8,-.6l-.8,-7.1c-.2,-6.6,-5.2,-11.8,-11.1,-11.5c-6,.2,-10.6,5.7,-10.4,12.2l-.2,6.9c0,.4,-.3,.7,-.7,.7c-.4,0,-.8,-.3,-.7,-.7l.2,-6.9c-.3,-7.3,5,-13.5,11.7,-13.7c6.8,-.2,12.4,5.5,12.7,12.9l.8,7c0,.4,-.3,.8,-.7,.8Z" class="gd_36"/>
<path d="M187.9,234.1c-.1,0,-.2,0,-.3,0c-.4,-.1,-.6,-.5,-.4,-.9c.7,-2.4,-.8,-3.7,-.8,-3.7c-.3,-.3,-.4,-.7,-.1,-1c.2,-.4,.7,-.4,1,-.1c.1,0,2.4,1.9,1.2,5.2c-.1,.3,-.3,.5,-.6,.5Z" class="gd_36"/>
<path d="M190.4,235q-.1,0,-.2,0c-.4,-.1,-.6,-.6,-.5,-.9c1.4,-4.3,-1.4,-6.7,-1.5,-6.8c-.3,-.3,-.4,-.7,-.1,-1.1c.2,-.3,.7,-.3,1,-.1c.2,.2,3.8,3.2,2,8.4c-.1,.3,-.4,.5,-.7,.5Z" class="gd_36"/>
<path d="M187.1,245.1c0,1.1,-.8,2.1,-2,2.2l-23,.8c-1.1,0,-2,-.9,-2.1,-2.1v-.4c0,-1.2,.8,-2.2,2,-2.2l22.9,-.8c1.2,0,2.1,.9,2.2,2.1Z" class="ge_36"/>
<path d="M185.1,248l-22.9,.8c-1.6,0,-2.9,-1.2,-2.9,-2.8v-.4c-.1,-1.5,1.1,-2.9,2.7,-2.9l22.9,-.8c1.6,-.1,2.9,1.2,2.9,2.7v.4c.1,1.6,-1.1,2.9,-2.7,3M162,244.1c-.7,.1,-1.3,.7,-1.3,1.5v.4c.1,.7,.7,1.4,1.4,1.3l23,-.8c.7,0,1.3,-.6,1.3,-1.4v-.4c-.1,-.8,-.7,-1.4,-1.4,-1.4Z" class="gd_36"/>
<path d="M176.2,226.8c-.4,.1,-.7,.3,-.9,.7c-.1,.4,.2,.9,.6,1.1c.1,0,3.9,1.3,4.1,6.3c0,.5,.4,.9,.9,.8c.5,0,.9,-.4,.9,-.9c-.2,-6.2,-5.1,-7.8,-5.4,-7.9c0,0,-.2,-.1,-.2,-.1Z" class="gf_36"/>
<path d="M519.1,1144.5c0,0,-4.3,0,-4.3,4.3v10.8c0,0,0,4.4,4.3,4.4h30.4c0,0,4.3,0,4.3,-4.4v-10.8c0,0,0,-4.3,-4.3,-4.3Z" class="ga_36"/>
<path d="M506,1137v76.2m1.3,1H845.1m1,-1.4v-76.2m-1.4,-1H506.9" class="gg_36"/>
<path d="M506,1213.6v.6h.5m339,0h.6v-.6m0,-77.4v-.6h-.6m-339,0H506v.6" class="gh_36"/>
<path d="M32.1,45.1H9.2m958.3,0h22.9M32.1,1331.3H9.2m958.3,0h22.9M45.1,32.1V9.2m0,1335.1v22.9M954.5,32.1V9.2m0,1335.1v22.9" class="gi_36"/>
<path d="M32.1,45.1H9.2m958.3,0h22.9M32.1,1331.3H9.2m958.3,0h22.9M45.1,32.1V9.2m0,1335.1v22.9M954.5,32.1V9.2m0,1335.1v22.9" class="gj_36"/>
<path d="M27.5,32.1H0m972.1,0h27.5M27.5,1344.3H0m972.1,0h27.5M32.1,27.5V0m0,1348.9v27.5M967.5,27.5V0m0,1348.9v27.5" class="gi_36"/>
<path d="M27.5,32.1H0m972.1,0h27.5M27.5,1344.3H0m972.1,0h27.5M32.1,27.5V0m0,1348.9v27.5M967.5,27.5V0m0,1348.9v27.5" class="gj_36"/>
</svg>