<?xml version="1.0" encoding="UTF-8" standalone="no"?>
<!DOCTYPE svg PUBLIC "-//W3C//DTD SVG 1.1//EN"
"http://www.w3.org/Graphics/SVG/1.1/DTD/svg11.dtd">
<svg viewBox="0 0 999 1376" version="1.1" xmlns="http://www.w3.org/2000/svg" xmlns:xlink="http://www.w3.org/1999/xlink">
<defs>
<clipPath id="c0_189"><path d="M198.6,850.5l-6.5,-2.1L175.7,834.5V777.4h72v73.1Z"/></clipPath>
<clipPath id="c1_189"><path d="M199.2,245.5l-6.5,-2.1L176.3,229.5V172.4h72v73.1Z"/></clipPath>
<clipPath id="c2_189"><path d="M632.5,642.4V418.6H904.2V642.4Z"/></clipPath>
<clipPath id="c3_189"><path d="M639.4,642.1V424.3H898.5V642.1Z"/></clipPath>
<clipPath id="c4_189"><path d="M639.1,641.8V424H898.2V641.8Z"/></clipPath>
<clipPath id="c5_189"><path d="M769.7,440.8c0,0,-.1,0,-.1,0c-.2,0,3.6,-8.2,3.6,-8.2l.8,.5c0,0,-4,7.7,-4.3,7.7Z"/></clipPath>
<clipPath id="c6_189"><path d="M777.2,433.1c0,0,-6.9,-1.1,-7.6,-5.2c-.7,-3.6,1.5,-3.8,2.1,-3.8c0,0,.1,0,.1,0l8.3,-12.8l-1.5,-3.1c0,0,-.6,-1.1,.2,-2c0,-.1,.1,-.1,.3,-.1c2.1,0,12.9,5.5,12.9,5.5l.1,.2c-.4,.5,-.7,1.1,-1.4,1.6c-.7,.5,-5.1,1.2,-5.1,1.2l-8.4,18.5Z"/></clipPath>
<clipPath id="c7_189"><path d="M776.8,432.8c.2,-.5,.2,-1.8,0,-2.3v-1.4c-1.6,-.5,-2.9,-1.2,-3.7,-2.5c-1.1,.6,-2.1,1.2,-3.1,1.9c1.5,2.1,3.8,3.5,6.8,4.3Zm0,-3.9c2.1,-4.6,3.9,-9.5,6.1,-14.1c-.9,-.4,-1.8,-1.3,-2.6,-1.4c-2.3,4.3,-4.6,8.6,-7.1,12.8c.8,1.4,2.1,2,3.6,2.7Zm-7.3,12c1,-2.9,2.4,-5.4,3.5,-8.3c-2,-1.5,-3.9,-3.1,-4.4,-6.1V425c-.1,-2.7,1.9,-3.4,4.6,-3.4c0,0,.1,0,.2,0c1.9,-3.4,4.2,-6.4,6.1,-9.7c-.6,-.9,-1.1,-2.4,-.9,-3.7c.6,1.3,1.7,1.9,2.4,2.9c-.1,.6,-.3,1.2,-.4,1.8c.6,.7,1.4,1.2,2.4,1.4c.5,-.4,.6,-1.3,1.2,-1.5c.9,.3,1.8,.7,3.1,.7c.1,.1,.5,.2,.8,.2c.4,0,.7,-.1,.8,-.2c.1,.1,.2,.1,.3,.1c.3,0,.5,-.1,.7,-.2c.2,0,.3,-.1,.5,-.1c.1,0,.2,0,.3,.1c-1.3,.7,-2.2,1.8,-4.2,1.8c-.1,0,-.2,0,-.3,0c-.9,3.7,-1.9,7.3,-2.7,11.2c.6,1,1.5,1.6,1.3,3.1c-.5,2.7,-3.9,4.4,-7.2,4.4c-1.3,0,-2.5,-.3,-3.6,-.8c-1,2.1,-2.1,4.2,-3.3,6.1c0,-.4,.3,-.4,.3,-.8c.9,-1.8,1.9,-3.6,2.6,-5.6c-1,1.7,-1.8,3.7,-2.8,5.5c-.2,.4,-.4,.8,-.6,1.2c-.3,.5,-.3,1.2,-.7,1.4Z"/></clipPath>
<clipPath id="c8_189"><path d="M787.2,413.2c-4.8,0,-13.1,-7.4,-5.5,-8.8h1.2c.2,0,.3,0,.5,0q.1,0,.2,0c.3,0,.7,0,1.1,.1c3.1,.6,8.2,3.8,7.5,7c-.2,1.2,-1.5,1.6,-3.1,1.7h-1.8c0,0,-.1,0,-.1,0Z"/></clipPath>
<clipPath id="c9_189"><path d="M786.5,132.5V120.1H801v12.4Z"/></clipPath>
<clipPath id="ca_189"><path d="M176.2,1185.4v-93.1H307.1v93.1Z"/></clipPath>
<clipPath id="cb_189"><path d="M352.6,1185.4v-93.1h132v93.1Z"/></clipPath>
<clipPath id="cc_189"><path d="M530.1,1185.4v-93.1H662.2v93.1Z"/></clipPath>
<clipPath id="cd_189"><path d="M707.7,1185.4v-93.1H837.2v93.1Z"/></clipPath>
<style type="text/css"><![CDATA[
.g0_189{
fill: #FEFCF4;
}
.g1_189{
fill: #FFF;
}
.g2_189{
fill: none;
stroke: #6381B7;
stroke-width: 0.763;
}
.g3_189{
fill: #6381B7;
}
.g4_189{
fill: none;
stroke: #6381B7;
stroke-width: 0.381;
stroke-dasharray: 2,1;
}
.g5_189{
fill: none;
stroke: #6381B7;
stroke-width: 0.381;
}
.g6_189{
fill: #FCE8B0;
}
.g7_189{
fill: #F7C2D9;
}
.g8_189{
fill: #FDF4F3;
}
.g9_189{
fill: #EC008C;
}
.ga_189{
fill: none;
stroke: #949698;
stroke-width: 0.305;
stroke-dasharray: 3,3;
}
.gb_189{
fill: none;
stroke: #949698;
stroke-width: 0.305;
}
.gc_189{
fill: none;
stroke: #949698;
stroke-width: 0.305;
stroke-dasharray: 4,4;
}
.gd_189{
fill: #6D6F71;
}
.ge_189{
fill: none;
stroke: #00ABE5;
stroke-width: 2.291;
}
.gf_189{
fill: #3D3B39;
}
.gg_189{
fill: #E5E9B7;
}
.gh_189{
fill: #61C7CB;
}
.gi_189{
fill: none;
stroke: #00ABE5;
stroke-width: 1.527;
stroke-linecap: round;
stroke-linejoin: round;
stroke-dasharray: 0,5;
}
.gj_189{
fill: none;
stroke: #00ABE5;
stroke-width: 1.527;
stroke-linecap: round;
stroke-linejoin: round;
}
.gk_189{
fill: #25408F;
}
.gl_189{
fill: #A8AAAD;
}
.gm_189{
fill: none;
stroke: #949698;
stroke-width: 0.549;
}
.gn_189{
fill: none;
stroke: #BCBEC0;
stroke-width: 2.566;
}
.go_189{
fill: #231F20;
}
.gp_189{
fill: #363637;
}
.gq_189{
fill: #5CC4BE;
}
.gr_189{
fill: #F0D73F;
}
.gs_189{
fill: none;
stroke: #FFF;
stroke-width: 1.909;
stroke-miterlimit: 10;
}
.gt_189{
fill: none;
stroke: #000;
stroke-width: 0.381;
stroke-miterlimit: 10;
}
]]></style>
</defs>
<path d="M45.1,1344.3H967.5V32.1H45.1V1344.3Z" class="g0_189"/>
<path d="M172.1,137.3c0,0,-18.4,0,-18.4,18.4V734c0,0,0,18.3,18.4,18.3H850.4c0,0,18.4,0,18.4,-18.3V137.3Z" class="g1_189"/>
<path d="M172.1,137.3c0,0,-18.4,0,-18.4,18.4V734c0,0,0,18.3,18.4,18.3H850.4c0,0,18.4,0,18.4,-18.3V137.3H172.1Z" class="g2_189"/>
<path d="M166.7,764c0,0,-13,0,-13,13V915.7c0,0,0,13,13,13H854.5c0,0,13,0,13,-13V777c0,0,0,-13,-13,-13Z" class="g1_189"/>
<path d="M166.7,764c0,0,-13,0,-13,13V915.7c0,0,0,13,13,13H854.5c0,0,13,0,13,-13V777c0,0,0,-13,-13,-13H166.7Z" class="g2_189"/>
<path d="M619.7,945c0,0,-4.3,0,-4.3,4.4v10.8c0,0,0,4.3,4.3,4.3H650c0,0,4.4,0,4.4,-4.3V949.4c0,0,0,-4.4,-4.4,-4.4Z" class="g3_189"/>
<path d="M606.5,936.2v37.6m1.4,.9H866.8m.9,-1.3V935.8m-1.3,-.9H607.5" class="g4_189"/>
<path d="M606.5,974.1v.6h.6m260.1,0h.5v-.6m0,-38.7v-.5h-.5m-260.1,0h-.6v.5" class="g5_189"/>
<path d="M231.2,805.5c0,0,-12.9,0,-12.9,13v21.7c0,0,0,13,12.9,13H833.3c0,0,13,0,13,-13V818.5c0,0,0,-13,-13,-13Z" class="g6_189"/>
<image clip-path="url(#c0_189)" preserveAspectRatio="none" x="174" y="776" width="75" height="76" xlink:href="img/1.png"/>
<path d="M226,845.8c0,0,-26.8,11.3,-51.1,-12.7c0,0,15.2,25.3,49.3,23.9c0,0,24.8,.4,20.3,-10.1c0,0,1.2,-4.5,-18.5,-1.1Z" class="g6_189"/>
<path d="M231.8,174.6c0,0,-13,0,-13,13v47.6c0,0,0,13,13,13h602c0,0,13,0,13,-13V187.6c0,0,0,-13,-13,-13Z" class="g6_189"/>
<image clip-path="url(#c1_189)" preserveAspectRatio="none" x="175" y="171" width="75" height="76" xlink:href="img/2.png"/>
<path d="M226.6,240.8c0,0,-26.9,11.3,-51.1,-12.7c0,0,15.1,25.3,49.3,23.9c0,0,24.7,.4,20.2,-10.1c0,0,1.2,-4.4,-18.4,-1.1Z" class="g6_189"/>
<image clip-path="url(#c2_189)" preserveAspectRatio="none" x="633" y="419" width="271" height="224" xlink:href="img/3.png"/>
<path d="M652.5,423.3L637.2,617.7l246.2,18.8L898.1,442.6Z" class="g7_189"/>
<image clip-path="url(#c3_189)" preserveAspectRatio="none" x="639" y="425" width="259" height="217" xlink:href="img/4.png"/>
<image clip-path="url(#c4_189)" preserveAspectRatio="none" x="639" y="425" width="259" height="217" xlink:href="img/5.png"/>
<path d="M648.6,429.2l-4.6,203l186,3.1l57.9,-32.8l3.8,-167.6Z" class="g8_189"/>
<path d="M829.7,635.7l59.6,-31.9L868.5,591.4Z" class="g9_189"/>
<path d="M575.9,541.7c8.8,-1.1,15.7,-5.6,17.5,-11.3m-.6,-7.1c-2.5,-5.4,-9.6,-9.4,-18.3,-10.1m-7.3,.1c-8.8,1.1,-15.7,5.6,-17.4,11.4m.5,7.1c2.5,5.3,9.6,9.4,18.3,10.1" class="ga_189"/>
<path d="M593.7,529c.1,-.5,.1,-1,.1,-1.5c0,-.5,0,-.9,-.1,-1.4M573,513.1c-.5,-.1,-1,-.1,-1.4,-.1c-.5,0,-1,0,-1.5,.1m-20.7,13c0,.5,-.1,.9,-.1,1.4c0,.5,.1,1,.1,1.5m20.7,13c.5,0,1,0,1.5,0c.4,0,.9,0,1.4,0" class="gb_189"/>
<path d="M371.1,571.5c9.6,-1.1,17.2,-5.5,19.3,-11.2m-.7,-7.5c-2.8,-5.3,-10.6,-9.2,-20.1,-9.9m-7.7,.1c-9.6,1.1,-17.2,5.6,-19.3,11.2m.7,7.5c2.8,5.3,10.6,9.2,20.1,9.9" class="gc_189"/>
<path d="M390.8,558.8c0,-.5,.1,-1,.1,-1.5c0,-.6,-.1,-1.1,-.1,-1.6M368,542.8c-.5,0,-1,0,-1.5,0c-.5,0,-1,0,-1.6,0m-22.7,12.9c-.1,.5,-.1,1,-.1,1.6c0,.5,0,1,.1,1.5m22.7,12.9c.6,0,1.1,.1,1.6,.1c.5,0,1,-.1,1.5,-.1" class="gb_189"/>
<path d="M561.4,489.2c0,0,26.8,-33.1,83,-37.8" class="gc_189"/>
<path d="M637.2,448.2l-1.3,9.9l14.9,-7.5Z" class="gd_189"/>
<path d="M362.3,540.4c0,0,233.3,-87.7,209.5,-31.3" class="gc_189"/>
<image clip-path="url(#c5_189)" x="769" y="432" width="5" height="9" xlink:href="shade/1.png"/>
<image clip-path="url(#c6_189)" x="768" y="406" width="25" height="28" xlink:href="shade/2.png"/>
<image clip-path="url(#c7_189)" x="768" y="408" width="23" height="33" xlink:href="shade/3.png"/>
<image clip-path="url(#c8_189)" x="774" y="404" width="19" height="10" xlink:href="shade/4.png"/>
<path d="M154.5,1016.3V987.6c0,0,0,-4.3,4.3,-4.3H862.4c0,0,4.4,0,4.4,4.3v29.2" class="ge_189"/>
<path d="M200.1,983.9c2.6,0,4.8,-2.2,4.8,-4.8c0,-2.7,-2.2,-4.9,-4.8,-4.9c-2.7,0,-4.8,2.2,-4.8,4.9c0,2.6,2.1,4.8,4.8,4.8Z" class="g1_189"/>
<path d="M200.1,985.7c3.6,0,6.6,-3,6.6,-6.6c0,-3.7,-3,-6.7,-6.6,-6.7c-3.7,0,-6.7,3,-6.7,6.7c0,3.6,3,6.6,6.7,6.6m0,-11.5c2.6,0,4.8,2.2,4.8,4.9c0,2.6,-2.2,4.8,-4.8,4.8c-2.7,0,-4.8,-2.2,-4.8,-4.8c0,-2.7,2.1,-4.9,4.8,-4.9Z" class="gf_189"/>
<path d="M205.5,987.7H194.6c-.1,0,-.3,0,-.4,0c2.7,1,4.9,3.3,5.9,6.2c1.3,-.5,2.7,-.8,4.2,-.8c2.9,0,5.5,1,7.5,2.6V994c0,-3.5,-2.8,-6.3,-6.3,-6.3Z" class="g1_189"/>
<path d="M184,984.7c3.4,0,6.1,-2.8,6.1,-6.2c0,-3.3,-2.7,-6.1,-6.1,-6.1c-3.4,0,-6.1,2.8,-6.1,6.1c0,3.4,2.7,6.2,6.1,6.2Z" class="gg_189"/>
<path d="M184,986.6c4.4,0,8,-3.6,8,-8.1c0,-4.4,-3.6,-8,-8,-8c-4.4,0,-8,3.6,-8,8c0,4.5,3.6,8.1,8,8.1m0,-14.2c3.4,0,6.1,2.8,6.1,6.1c0,3.4,-2.7,6.2,-6.1,6.2c-3.4,0,-6.1,-2.8,-6.1,-6.2c0,-3.3,2.7,-6.1,6.1,-6.1Z" class="gf_189"/>
<path d="M198.4,994.7c-1,-3.3,-4.1,-5.8,-7.7,-5.8H177.3c-4.4,0,-8,3.6,-8,8v4.3h23.8c.9,-2.7,2.8,-5.1,5.3,-6.5Z" class="gg_189"/>
<path d="M204.3,995c-5.5,0,-9.9,4.4,-9.9,9.9c0,5.5,4.4,10,9.9,10c5.5,0,10,-4.5,10,-10c0,-5.5,-4.5,-9.9,-10,-9.9m6.7,11.6c0,.3,-.2,.5,-.5,.5h-4v4c0,.3,-.2,.5,-.5,.5h-3.3c-.3,0,-.5,-.2,-.5,-.5v-4h-4.1c-.2,0,-.4,-.2,-.4,-.5v-3.3c0,-.3,.2,-.5,.4,-.5h4.1v-4.1c0,-.2,.2,-.4,.5,-.4H206c.3,0,.5,.2,.5,.4v4.1h4c.3,0,.5,.2,.5,.5Z" class="gh_189"/>
<path d="M213.7,997.6V994c0,-4.6,-3.7,-8.2,-8.2,-8.2H194.6c-1.6,0,-3.1,.4,-4.3,1.2h-13c-5.4,0,-9.9,4.5,-9.9,9.9v5.3c0,.5,.4,.9,1,.9h24.2c-.1,.6,-.1,1.2,-.1,1.8c0,6.6,5.3,11.9,11.8,11.9c6.6,0,11.9,-5.3,11.9,-11.9c0,-2.7,-.9,-5.2,-2.5,-7.3m-9.4,17.3c-5.5,0,-9.9,-4.5,-9.9,-10c0,-5.5,4.4,-9.9,9.9,-9.9c5.5,0,10,4.4,10,9.9c0,5.5,-4.5,10,-10,10m-35,-18c0,-4.4,3.6,-8,8,-8h13.4c3.6,0,6.7,2.5,7.7,5.8c-2.5,1.4,-4.4,3.8,-5.3,6.5H169.3Zm42.5,-1.2c-2,-1.6,-4.6,-2.6,-7.5,-2.6c-1.5,0,-2.9,.3,-4.2,.8c-1,-2.9,-3.2,-5.2,-5.9,-6.2c.1,0,.3,0,.4,0h10.9c3.5,0,6.3,2.8,6.3,6.3Z" class="gf_189"/>
<path d="M205.5,1003.3v-4.1h-2.4v4.1c0,.2,-.2,.4,-.4,.4h-4.1v2.4h4.1c.2,0,.4,.3,.4,.5v4.1h2.4v-4.1c0,-.2,.3,-.5,.5,-.5h4.1v-2.4H206c-.2,0,-.5,-.2,-.5,-.4Z" class="g1_189"/>
<path d="M210.5,1002.8h-4v-4.1c0,-.2,-.2,-.4,-.5,-.4h-3.3c-.3,0,-.5,.2,-.5,.4v4.1h-4.1c-.2,0,-.4,.2,-.4,.5v3.3c0,.3,.2,.5,.4,.5h4.1v4c0,.3,.2,.5,.5,.5H206c.3,0,.5,-.2,.5,-.5v-4h4c.3,0,.5,-.2,.5,-.5v-3.3c0,-.3,-.2,-.5,-.5,-.5m-.4,3.3H206c-.2,0,-.5,.3,-.5,.5v4.1h-2.4v-4.1c0,-.2,-.2,-.5,-.4,-.5h-4.1v-2.4h4.1c.2,0,.4,-.2,.4,-.4v-4.1h2.4v4.1c0,.2,.3,.4,.5,.4h4.1Z" class="gf_189"/>
<path d="M154.1,1026.4v215.9m4.6,2.3H864.9m2.2,-4.6V1024.2m-4.5,-2.3H156.4" class="gi_189"/>
<path d="M154.1,1244.6v0m713.1,0v0m0,-222.7v0m-713.1,0v0" class="gj_189"/>
<path d="M153.3,111.9v39L165,161.2V117Z" class="gk_189"/>
<path d="M153.3,111.9v39H851.1c0,0,16.8,0,16.8,-16.8v-5.3c0,0,0,-16.9,-16.8,-16.9Z" class="g3_189"/>
<path d="M802.6,145.6c8.2,0,14.9,-6.5,14.9,-14.5c0,-8.1,-6.7,-14.5,-14.9,-14.5c-8.2,0,-14.9,6.4,-14.9,14.5c0,8,6.7,14.5,14.9,14.5Z" class="gl_189"/>
<path d="M802.6,145.6c8.2,0,14.9,-6.5,14.9,-14.5c0,-8.1,-6.7,-14.5,-14.9,-14.5c-8.2,0,-14.9,6.4,-14.9,14.5c0,8,6.7,14.5,14.9,14.5Z" class="gm_189"/>
<path d="M802.6,136.4c3,0,5.5,-2.4,5.5,-5.3c0,-3,-2.5,-5.4,-5.5,-5.4c-3,0,-5.5,2.4,-5.5,5.4c0,2.9,2.5,5.3,5.5,5.3Z" class="g1_189"/>
<path d="M802.6,136.4c3,0,5.5,-2.4,5.5,-5.3c0,-3,-2.5,-5.4,-5.5,-5.4c-3,0,-5.5,2.4,-5.5,5.4c0,2.9,2.5,5.3,5.5,5.3Z" class="gn_189"/>
<g clip-path="url(#c9_189)" opacity="0.3">
<path d="M788,130.3v0c0,0,0,-4.8,3.7,-8.7l7.7,6.8c0,0,-1,.9,-1,2.6Z" class="g1_189"/>
</g>
<path d="M807.2,131c0,0,-3.5,0,-3.5,3.4v8.7c0,0,0,3.5,3.5,3.5h43.5c0,0,3.5,0,3.5,-3.5v-8.7c0,0,0,-3.4,-3.5,-3.4Z" class="go_189"/>
<path d="M191.2,122c0,-8.3,-6.8,-15,-15.1,-15c-8.3,0,-15,6.7,-15,15c0,8.3,6.7,15.1,15,15.1c.8,0,1.7,-.1,2.4,-.2l4.5,5.2v-6.7c4.9,-2.5,8.2,-7.6,8.2,-13.4Z" class="g1_189"/>
<path d="M183.5,143.3l-5.1,-5.9c-.8,.1,-1.5,.1,-2.3,.1c-8.5,0,-15.5,-6.9,-15.5,-15.5c0,-8.5,7,-15.5,15.5,-15.5c8.6,0,15.5,7,15.5,15.5c0,5.7,-3.1,11,-8.1,13.7Zm-4.8,-6.9l3.9,4.5v-5.8l.2,-.1c4.9,-2.5,7.9,-7.5,7.9,-13c0,-8,-6.5,-14.6,-14.6,-14.6c-8,0,-14.6,6.6,-14.6,14.6c0,8.1,6.6,14.6,14.6,14.6c.8,0,1.6,-.1,2.4,-.2Z" class="gp_189"/>
<path d="M169.1,121.6c.8,0,1.4,.6,1.4,1.4c0,.8,-.6,1.5,-1.4,1.5c-.8,0,-1.4,-.7,-1.4,-1.5c0,-.8,.6,-1.4,1.4,-1.4Z" class="gq_189"/>
<path d="M169.1,124.9c-1,0,-1.9,-.8,-1.9,-1.9c0,-1,.9,-1.9,1.9,-1.9c1,0,1.9,.9,1.9,1.9c0,1.1,-.9,1.9,-1.9,1.9m0,-2.9c-.5,0,-1,.5,-1,1c0,.6,.5,1,1,1c.5,0,1,-.4,1,-1c0,-.5,-.5,-1,-1,-1Z" class="gp_189"/>
<path d="M176.1,121.6c.8,0,1.5,.6,1.5,1.4c0,.8,-.7,1.5,-1.5,1.5c-.8,0,-1.4,-.7,-1.4,-1.5c0,-.8,.6,-1.4,1.4,-1.4Z" class="gq_189"/>
<path d="M176.1,124.9c-1,0,-1.9,-.8,-1.9,-1.9c0,-1,.9,-1.9,1.9,-1.9c1.1,0,1.9,.9,1.9,1.9c0,1.1,-.8,1.9,-1.9,1.9m0,-2.9c-.5,0,-1,.5,-1,1c0,.6,.5,1,1,1c.6,0,1,-.4,1,-1c0,-.5,-.4,-1,-1,-1Z" class="gp_189"/>
<path d="M183.1,121.6c.8,0,1.5,.6,1.5,1.4c0,.8,-.7,1.5,-1.5,1.5c-.8,0,-1.4,-.7,-1.4,-1.5c0,-.8,.6,-1.4,1.4,-1.4Z" class="gq_189"/>
<path d="M183.1,124.9c-1,0,-1.9,-.8,-1.9,-1.9c0,-1,.9,-1.9,1.9,-1.9c1.1,0,1.9,.9,1.9,1.9c0,1.1,-.8,1.9,-1.9,1.9m0,-2.9c-.5,0,-1,.5,-1,1c0,.6,.5,1,1,1c.6,0,1,-.4,1,-1c0,-.5,-.4,-1,-1,-1Z" class="gp_189"/>
<path d="M185.1,136.3c0,-9.8,7.8,-17.7,17.6,-17.7c9.7,0,17.6,7.9,17.6,17.7c0,9.7,-7.9,17.6,-17.6,17.6c-1,0,-1.9,-.1,-2.9,-.3l-5.2,6.1v-7.8c-5.7,-2.9,-9.5,-8.8,-9.5,-15.6Z" class="gr_189"/>
<path d="M194.6,160.2q-.1,0,-.2,0c-.2,-.1,-.3,-.3,-.3,-.5v-7.5c-5.9,-3.2,-9.5,-9.2,-9.5,-15.9c0,-10,8.1,-18.1,18.1,-18.1c9.9,0,18,8.1,18,18.1c0,9.9,-8.1,18,-18,18c-.9,0,-1.8,0,-2.7,-.2l-5.1,5.9c-.1,.1,-.2,.2,-.3,.2m8.1,-41.1c-9.5,0,-17.2,7.7,-17.2,17.2c0,6.4,3.6,12.2,9.3,15.2c.1,.1,.2,.2,.2,.4v6.6l4.5,-5.2c.1,-.1,.3,-.1,.4,-.1c1,.1,1.9,.2,2.8,.2c9.4,0,17.1,-7.7,17.1,-17.1c0,-9.5,-7.7,-17.2,-17.1,-17.2Z" class="gp_189"/>
<path d="M210.9,135.8c.9,0,1.6,.7,1.6,1.6c0,1,-.7,1.7,-1.6,1.7c-1,0,-1.7,-.7,-1.7,-1.7c0,-.9,.7,-1.6,1.7,-1.6Z" class="g1_189"/>
<path d="M210.9,139.6c-1.2,0,-2.2,-1,-2.2,-2.2c0,-1.1,1,-2.1,2.2,-2.1c1.1,0,2.1,1,2.1,2.1c0,1.2,-1,2.2,-2.1,2.2m0,-3.4c-.7,0,-1.3,.6,-1.3,1.2c0,.7,.6,1.3,1.3,1.3c.6,0,1.2,-.6,1.2,-1.3c0,-.6,-.6,-1.2,-1.2,-1.2Z" class="gp_189"/>
<path d="M202.7,135.8c.9,0,1.6,.7,1.6,1.6c0,1,-.7,1.7,-1.6,1.7c-1,0,-1.7,-.7,-1.7,-1.7c0,-.9,.7,-1.6,1.7,-1.6Z" class="g1_189"/>
<path d="M202.7,139.6c-1.2,0,-2.2,-1,-2.2,-2.2c0,-1.1,1,-2.1,2.2,-2.1c1.1,0,2.1,1,2.1,2.1c0,1.2,-1,2.2,-2.1,2.2m0,-3.4c-.7,0,-1.3,.6,-1.3,1.2c0,.7,.6,1.3,1.3,1.3c.6,0,1.2,-.6,1.2,-1.3c0,-.6,-.6,-1.2,-1.2,-1.2Z" class="gp_189"/>
<path d="M194.5,135.8c.9,0,1.6,.7,1.6,1.6c0,1,-.7,1.7,-1.6,1.7c-1,0,-1.7,-.7,-1.7,-1.7c0,-.9,.7,-1.6,1.7,-1.6Z" class="g1_189"/>
<path d="M194.5,139.6c-1.2,0,-2.2,-1,-2.2,-2.2c0,-1.1,1,-2.1,2.2,-2.1c1.1,0,2.1,1,2.1,2.1c0,1.2,-1,2.2,-2.1,2.2m0,-3.4c-.7,0,-1.2,.6,-1.2,1.2c0,.7,.5,1.3,1.2,1.3c.6,0,1.2,-.6,1.2,-1.3c0,-.6,-.6,-1.2,-1.2,-1.2Z" class="gp_189"/>
<image clip-path="url(#ca_189)" preserveAspectRatio="none" x="176" y="1092" width="133" height="93" xlink:href="img/6.png"/>
<image clip-path="url(#cb_189)" preserveAspectRatio="none" x="351" y="1092" width="135" height="93" xlink:href="img/7.png"/>
<image clip-path="url(#cc_189)" preserveAspectRatio="none" x="528" y="1092" width="136" height="93" xlink:href="img/8.png"/>
<image clip-path="url(#cd_189)" preserveAspectRatio="none" x="706" y="1092" width="131" height="93" xlink:href="img/9.png"/>
<path d="M32.1,45.1H9.2m958.3,0h22.9M32.1,1331.3H9.2m958.3,0h22.9M45.1,32.1V9.2m0,1335.1v22.9M954.5,32.1V9.2m0,1335.1v22.9" class="gs_189"/>
<path d="M32.1,45.1H9.2m958.3,0h22.9M32.1,1331.3H9.2m958.3,0h22.9M45.1,32.1V9.2m0,1335.1v22.9M954.5,32.1V9.2m0,1335.1v22.9" class="gt_189"/>
<path d="M27.5,32.1H0m972.1,0h27.5M27.5,1344.3H0m972.1,0h27.5M32.1,27.5V0m0,1348.9v27.5M967.5,27.5V0m0,1348.9v27.5" class="gs_189"/>
<path d="M27.5,32.1H0m972.1,0h27.5M27.5,1344.3H0m972.1,0h27.5M32.1,27.5V0m0,1348.9v27.5M967.5,27.5V0m0,1348.9v27.5" class="gt_189"/>
</svg>