<?xml version="1.0" encoding="UTF-8" standalone="no"?>
<!DOCTYPE svg PUBLIC "-//W3C//DTD SVG 1.1//EN"
"http://www.w3.org/Graphics/SVG/1.1/DTD/svg11.dtd">
<svg viewBox="0 0 999 1376" version="1.1" xmlns="http://www.w3.org/2000/svg" xmlns:xlink="http://www.w3.org/1999/xlink">
<defs>
<clipPath id="c0_24"><path d="M32.1,1344.3V32.1H967.5V1344.3Z"/></clipPath>
<clipPath id="c1_24"><path d="M130,266.1V208.9h55.5v57.2Z"/></clipPath>
<clipPath id="c2_24"><path d="M155.9,397.3v-104h698v104Z"/></clipPath>
<clipPath id="c3_24"><path d="M181.3,596.3l-6.4,-2L160.8,583.1V522.2h62.7v74.1Z"/></clipPath>
<clipPath id="c4_24"><path d="M324,730.4V692.6h98.6v37.8Z"/></clipPath>
<clipPath id="c5_24"><path d="M667.4,729.5v-36H767.9v36Z"/></clipPath>
<clipPath id="c6_24"><path d="M335.2,830.8V774.1h76.2v56.7Z"/></clipPath>
<clipPath id="c7_24"><path d="M681.1,831.3V773.6h73v57.7Z"/></clipPath>
<clipPath id="c8_24"><path d="M300.3,895.3V868.8h69v26.5Z"/></clipPath>
<clipPath id="c9_24"><path d="M393,901.9V862.2h53.3v39.7Z"/></clipPath>
<clipPath id="ca_24"><path d="M644.6,895.3V868.8h69v26.5Z"/></clipPath>
<clipPath id="cb_24"><path d="M737.3,901.9V862.2h50.5v39.7Z"/></clipPath>
<clipPath id="cc_24"><path d="M334.3,1015.5V953.2h78.1v62.3Z"/></clipPath>
<clipPath id="cd_24"><path d="M300.3,1080.1v-26.5h69v26.5Z"/></clipPath>
<clipPath id="ce_24"><path d="M393,1087.3v-42.5h53.3v42.5Z"/></clipPath>
<clipPath id="cf_24"><path d="M644.6,1077.2v-26.5h69v26.5Z"/></clipPath>
<style type="text/css"><![CDATA[
.g0_24{
fill: #FFFDEA;
}
.g1_24{
fill: #BCE4EA;
}
.g2_24{
fill: #BCBEC0;
}
.g3_24{
fill: #00AABD;
}
.g4_24{
fill: #FEF0DB;
}
.g5_24{
fill: #FDD095;
}
.g6_24{
fill: #F47A43;
}
.g7_24{
fill: #FFF;
}
.g8_24{
fill: none;
stroke: #231F20;
stroke-width: 1.527;
}
.g9_24{
fill: none;
stroke: #976EAF;
stroke-width: 1.145;
stroke-linecap: round;
stroke-linejoin: round;
stroke-dasharray: 4,2;
}
.ga_24{
fill: none;
stroke: #976EAF;
stroke-width: 1.145;
stroke-linecap: round;
stroke-linejoin: round;
stroke-dasharray: 4,3;
}
.gb_24{
fill: none;
stroke: #976EAF;
stroke-width: 1.145;
stroke-linecap: round;
stroke-linejoin: round;
}
.gc_24{
fill: #FCDCBA;
}
.gd_24{
fill: #FCEAC9;
}
.ge_24{
fill: #F1EDF5;
}
.gf_24{
fill: none;
stroke: #231F20;
stroke-width: 0.381;
stroke-miterlimit: 10;
}
.gg_24{
fill: #86888B;
}
.gh_24{
fill: none;
stroke: #231F20;
stroke-width: 0.276;
}
.gi_24{
fill: #B6B8BA;
}
.gj_24{
fill: none;
stroke: #231F20;
stroke-width: 0.259;
}
.gk_24{
fill: none;
stroke: #231F20;
stroke-width: 0.213;
}
.gl_24{
fill: none;
stroke: #231F20;
stroke-width: 0.293;
}
.gm_24{
fill: none;
stroke: #231F20;
stroke-width: 0.152;
}
.gn_24{
fill: none;
stroke: #231F20;
stroke-width: 0.311;
}
.go_24{
fill: none;
stroke: #231F20;
stroke-width: 0.389;
stroke-linecap: round;
stroke-linejoin: round;
}
.gp_24{
fill: none;
stroke: #231F20;
stroke-width: 0.194;
}
.gq_24{
fill: none;
stroke: #231F20;
stroke-width: 0.201;
}
.gr_24{
fill: none;
stroke: #231F20;
stroke-width: 0.215;
}
.gs_24{
fill: none;
stroke: #231F20;
stroke-width: 0.268;
stroke-linecap: round;
stroke-linejoin: round;
}
.gt_24{
fill: none;
stroke: #231F20;
stroke-width: 0.242;
}
.gu_24{
fill: none;
stroke: #231F20;
stroke-width: 0.271;
}
.gv_24{
fill: none;
stroke: #231F20;
stroke-width: 0.294;
}
.gw_24{
fill: none;
stroke: #231F20;
stroke-width: 0.368;
stroke-linecap: round;
stroke-linejoin: round;
}
.gx_24{
fill: none;
stroke: #231F20;
stroke-width: 0.165;
}
.gy_24{
fill: none;
stroke: #231F20;
stroke-width: 0.178;
}
.gz_24{
fill: none;
stroke: #231F20;
stroke-width: 0.195;
}
.g10_24{
fill: none;
stroke: #231F20;
stroke-width: 0.242;
stroke-linecap: round;
stroke-linejoin: round;
}
.g11_24{
fill: none;
stroke: #FFF;
stroke-width: 1.909;
stroke-miterlimit: 10;
}
.g12_24{
fill: none;
stroke: #000;
stroke-width: 0.381;
stroke-miterlimit: 10;
}
]]></style>
</defs>
<g clip-path="url(#c0_24)">
<path d="M32.1,1344.3H1877V32.1H32.1V1344.3Z" class="g0_24"/>
<path d="M32.1,179.3H1877V32.1H32.1V179.3Z" class="g1_24"/>
<path d="M1877,177.2H32.1v-5.4H768.7c43.1,0,53,-37.9,115.3,-37.9h993Z" class="g2_24"/>
<path d="M1877,183.7H32.1v-9.8H768.7c43.1,0,53,-33.6,115.3,-33.6h993Z" class="g3_24"/>
</g>
<path d="M480.7,217.7c0,0,-8.6,0,-8.6,8.7v30.3c0,0,0,8.6,8.6,8.6H833c0,0,8.7,0,8.7,-8.6V226.4c0,0,0,-8.7,-8.7,-8.7Z" class="g4_24"/>
<path d="M160.5,217.7c0,0,-8.6,0,-8.6,8.7v30.3c0,0,0,8.6,8.6,8.6H731.6c0,0,8.6,0,8.6,-8.6V226.4c0,0,0,-8.7,-8.6,-8.7Z" class="g5_24"/>
<image clip-path="url(#c1_24)" preserveAspectRatio="none" x="130" y="209" width="55" height="57" xlink:href="img/1.png"/>
<path d="M154.8,210.7c12.7,0,23,10.6,23,23.7c0,13.2,-10.3,23.8,-23,23.8c-12.8,0,-23.1,-10.6,-23.1,-23.8c0,-13.1,10.3,-23.7,23.1,-23.7Z" class="g6_24"/>
<path d="M172,234.4c0,-9.8,-7.7,-17.7,-17.2,-17.7c-9.6,0,-17.3,7.9,-17.3,17.7c0,9.8,7.7,17.8,17.3,17.8c3.6,0,7,-1.2,9.7,-3.2l6.4,1.8l-1.7,-6.7c1.8,-2.8,2.8,-6.1,2.8,-9.7Z" class="g7_24"/>
<path d="M770.8,240.8c0,0,-.5,-9.9,8.3,-9.3c0,0,6.6,-.4,6.5,9.5m-14.9,-1.6v6.5c0,0,-3.2,.4,-3.8,-3c0,0,0,-3.7,3.8,-3.5Zm15,0v6.5c0,0,3.2,.4,3.7,-3c0,0,.1,-3.7,-3.7,-3.5Z" class="g8_24"/>
<image clip-path="url(#c2_24)" preserveAspectRatio="none" x="156" y="294" width="697" height="104" xlink:href="img/2.png"/>
<path d="M171.2,295.3c0,0,-13,0,-13,13v67.8c0,0,0,13,13,13H832.7c0,0,13,0,13,-13V308.3c0,0,0,-13,-13,-13Z" class="g7_24"/>
<path d="M167.7,295.8c-3.4,.9,-8.3,3.4,-9.3,9.9" class="g9_24"/>
<path d="M158.2,312.3v61" class="ga_24"/>
<path d="M158.8,379.6c.9,3.5,3.3,8.3,9.9,9.3" class="g9_24"/>
<path d="M175.3,389.1H829.8" class="ga_24"/>
<path d="M836.2,388.6c3.5,-.9,8.3,-3.4,9.3,-9.9" class="g9_24"/>
<path d="M845.7,372.1v-61" class="ga_24"/>
<path d="M845.2,304.8c-.9,-3.4,-3.4,-8.3,-9.9,-9.3" class="g9_24"/>
<path d="M828.7,295.3H174.1" class="ga_24"/>
<path d="M158.3,306.7c0,.5,-.1,1.1,-.1,1.6V310m0,64.4v1.7c0,0,0,.6,.2,1.6M169.7,389c.5,.1,1,.1,1.5,.1H173m658,0h1.7c0,0,.6,0,1.6,-.1m11.3,-11.3c.1,-.5,.1,-1.1,.1,-1.6v-1.7m0,-64.4v-1.7c0,0,0,-.6,-.2,-1.6M834.3,295.4c-.5,-.1,-1.1,-.1,-1.6,-.1H831m-658,0h-1.8c0,0,-.6,0,-1.5,.2" class="gb_24"/>
<path d="M214,507.5c0,0,-13,0,-13,13v69.2c0,0,0,13,13,13H833.3c0,0,13,0,13,-13V520.5c0,0,0,-13,-13,-13Z" class="gc_24"/>
<image clip-path="url(#c3_24)" preserveAspectRatio="none" x="161" y="521" width="63" height="77" xlink:href="img/3.png"/>
<path d="M208.8,591.6c0,0,-26.9,11.3,-51.1,-12.7c0,0,15.1,25.3,49.3,23.9c0,0,24.7,.4,20.2,-10.1c0,0,1.2,-4.4,-18.4,-1.1Z" class="gc_24"/>
<path d="M157.9,631.4H502.2V666H157.9V631.4Zm344.3,0H846.4V666H502.2V631.4Z" class="gd_24"/>
<path d="M157.9,666h86.6v91H157.9V666Zm344.3,0h86.6v91H502.2V666ZM157.9,757h86.6v90.9H157.9V757Zm344.3,0h86.6v90.9H502.2V757ZM157.9,847.9h86.6v91H157.9v-91Zm344.3,0h86.6v91H502.2v-91Zm-344.3,91h86.6v90.9H157.9V938.9Zm344.3,0h86.6v90.9H502.2V938.9Zm-344.3,90.9h86.6v91H157.9v-91Zm344.3,0h86.6v91H502.2v-91Z" class="ge_24"/>
<path d="M244.5,666H502.2v91H244.5V666Zm344.3,0H846.4v91H588.8V666ZM244.5,757H502.2v90.9H244.5V757Zm344.3,0H846.4v90.9H588.8V757ZM244.5,847.9H502.2v91H244.5v-91Zm344.3,0H846.4v91H588.8v-91Zm-344.3,91H502.2v90.9H244.5V938.9Zm344.3,0H846.4v90.9H588.8V938.9Zm-344.3,90.9H502.2v91H244.5v-91Zm344.3,0H846.4v91H588.8v-91Z" class="g7_24"/>
<path d="M157.7,631.4h86.8m-86.6,34.5V631.6m86.6,-.2H502.2m0,0h86.6m-86.6,34.5V631.6m86.6,-.2H846.6m-.2,34.5V631.6M157.7,666h86.8m-86.6,90.8V666.2m86.6,-.2H502.2M244.5,756.8V666.2M502.2,666h86.6m-86.6,90.8V666.2m86.6,-.2H846.6M588.8,756.8V666.2m257.6,90.6V666.2M157.7,757h86.8m-86.6,90.7V757.2m86.6,-.2H502.2M244.5,847.7V757.2M502.2,757h86.6m-86.6,90.7V757.2m86.6,-.2H846.6M588.8,847.7V757.2m257.6,90.5V757.2M157.7,847.9h86.8m-86.6,90.8V848.1m-.2,90.8h86.8m-86.6,90.7V939.1m86.6,90.5V939.1m257.7,90.5V939.1m86.6,90.5V939.1m257.6,90.5V939.1m-688.7,90.7h86.8m-86.6,90.8V1030m-.2,90.8h86.8m0,-272.9H502.2m0,0h86.6m0,0H846.6M244.5,938.7V848.1m257.7,90.6V848.1m86.6,90.6V848.1m257.6,90.6V848.1M244.5,938.9H502.2m0,0h86.6m0,0H846.6m-602.1,90.9H502.2m0,0h86.6m0,0H846.6m-602.1,90.8V1030m257.7,90.6V1030m86.6,90.6V1030m257.6,90.6V1030m-601.9,90.8H502.2m0,0h86.6m0,0H846.6" class="gf_24"/>
<path d="M405,697.9c-7.9,-1.7,-15.1,-4.5,-19.6,-4.4c-5.1,-.1,-6.9,2.2,-12.1,2c-2.9,0,-6.7,-2,-13.2,-2c-3.9,0,-10.3,1.4,-16.9,3.9c-7.6,2.9,-16.7,2.3,-18.9,3.8c0,.9,.4,2.8,6,7.3c2.3,1.9,3.7,2.1,11.8,9.7c9.8,9.3,21.7,10.3,31.3,10.3c11.3,0,22,-.5,29.9,-7.5c5,-4.3,8,-6.8,15.5,-13.5c2.8,-2.5,2.8,-4.2,3.1,-5.7c.3,-2,-9,-2.3,-16.9,-3.9Z" class="gg_24"/>
<path d="M332.2,707.7c.1,-.9,.7,-1.5,1.5,-1.6c2.4,-.8,3.2,-.2,3.6,.4c.4,.6,.4,.7,.9,1.3c.4,.6,.6,1.1,-1.6,4.6c-.5,.9,-4.5,-1.5,-5.1,-2.7c-.4,-.6,.3,.5,.7,-2Z" class="g7_24"/>
<path d="M332.2,707.7c.1,-.9,.7,-1.5,1.5,-1.6c2.4,-.8,3.2,-.2,3.6,.4c.4,.6,.4,.7,.9,1.3c.4,.6,.6,1.1,-1.6,4.6c-.5,.9,-4.5,-1.5,-5.1,-2.7c-.4,-.6,.3,.5,.7,-2Z" class="gh_24"/>
<path d="M341.3,707.8c-.5,-1.3,-3.3,-.6,-4,-.5c-.7,.2,-1.9,2.5,-1.5,4.5c.4,2.1,3.3,3.2,4.6,3.9c1.3,.8,1.6,-4,1.8,-5.3c.1,-1.2,.4,-1.8,-.9,-2.6Z" class="g7_24"/>
<path d="M341.3,707.8c-.5,-1.3,-3.3,-.6,-4,-.5c-.7,.2,-1.9,2.5,-1.5,4.5c.4,2.1,3.3,3.2,4.6,3.9c1.3,.8,1.6,-4,1.8,-5.3c.1,-1.2,.4,-1.8,-.9,-2.6Z" class="gh_24"/>
<path d="M415.8,707.2c-.1,-.9,-.7,-1.5,-1.5,-1.7c-2.4,-.8,-3.2,-.1,-3.6,.5c-.4,.6,-.4,.7,-.9,1.3c-.5,.6,1.8,11.1,2.4,7c.2,-1.4,4,-4.6,3.6,-7.1Z" class="g7_24"/>
<path d="M415.8,707.2c-.1,-.9,-.7,-1.5,-1.5,-1.7c-2.4,-.8,-3.2,-.1,-3.6,.5c-.4,.6,-.4,.7,-.9,1.3c-.5,.6,1.8,11.1,2.4,7c.2,-1.4,4,-4.6,3.6,-7.1Z" class="gh_24"/>
<path d="M411.2,708.6c-.1,-.8,-.9,-2.3,-1.7,-2.5c-2.4,-.8,-3,.7,-3.4,1.3c-.3,.6,-.9,1.1,-1.3,1.7c-.5,.6,.2,3.8,2.3,7.4c.6,.8,3.8,-2.2,4.5,-3.4c.4,-.7,0,-2,-.4,-4.5Z" class="g7_24"/>
<path d="M411.2,708.6c-.1,-.8,-.9,-2.3,-1.7,-2.5c-2.4,-.8,-3,.7,-3.4,1.3c-.3,.6,-.9,1.1,-1.3,1.7c-.5,.6,.2,3.8,2.3,7.4c.6,.8,3.8,-2.2,4.5,-3.4c.4,-.7,0,-2,-.4,-4.5Z" class="gh_24"/>
<path d="M348.9,711.8c-.4,-1.4,-.3,-2.2,-1.6,-3.1c-1,-.8,-4.3,.5,-5,.6c-.8,.2,-1.4,3.6,-1.9,5.7c-.4,2.1,5.5,5.7,6.8,6.4c1.3,.8,1.6,-4.1,1.7,-5.3c.2,-1.2,1.3,-3.6,0,-4.3Z" class="g7_24"/>
<path d="M348.9,711.8c-.4,-1.4,-.3,-2.2,-1.6,-3.1c-1,-.8,-4.3,.5,-5,.6c-.8,.2,-1.4,3.6,-1.9,5.7c-.4,2.1,5.5,5.7,6.8,6.4c1.3,.8,1.6,-4.1,1.7,-5.3c.2,-1.2,1.3,-3.6,0,-4.3Z" class="gh_24"/>
<path d="M355.7,717.5c-.4,-2,.9,-4,.3,-5c-.5,-1,-5.1,-2.9,-7.3,-1.5c-.7,.5,-1.8,4.3,-1.5,6.5c.3,1.8,.8,.5,2.1,1.3c2.4,1.5,6.3,1.5,6.4,-1.3Z" class="g7_24"/>
<path d="M355.7,717.5c-.4,-2,.9,-4,.3,-5c-.5,-1,-5.1,-2.9,-7.3,-1.5c-.7,.5,-1.8,4.3,-1.5,6.5c.3,1.8,.8,.5,2.1,1.3c2.4,1.5,6.3,1.5,6.4,-1.3Z" class="gh_24"/>
<path d="M405.1,710.9c-.1,-.9,-.9,-2.4,-1.7,-2.6c-2.4,-.8,-3,.7,-3.4,1.3c-.3,.7,-.8,1.2,-1.3,1.8c-.5,.6,.2,3.8,2.3,7.3c.6,.9,4.6,-1,5.3,-2.2c.4,-.7,0,-3.2,-1.2,-5.6Z" class="g7_24"/>
<path d="M405.1,710.9c-.1,-.9,-.9,-2.4,-1.7,-2.6c-2.4,-.8,-3,.7,-3.4,1.3c-.3,.7,-.8,1.2,-1.3,1.8c-.5,.6,.2,3.8,2.3,7.3c.6,.9,4.6,-1,5.3,-2.2c.4,-.7,0,-3.2,-1.2,-5.6Z" class="gh_24"/>
<path d="M397.6,710.5c-2.4,-.8,-2.8,.1,-3.2,.7c-.4,.6,-1.1,1.6,-1.6,2.3c-.5,.6,-.8,3.3,1.4,6.9c.5,.8,5.6,-1.4,6.3,-2.6c.7,-1.2,-.9,-7,-2.9,-7.3Z" class="g7_24"/>
<path d="M397.6,710.5c-2.4,-.8,-2.8,.1,-3.2,.7c-.4,.6,-1.1,1.6,-1.6,2.3c-.5,.6,-.8,3.3,1.4,6.9c.5,.8,5.6,-1.4,6.3,-2.6c.7,-1.2,-.9,-7,-2.9,-7.3Z" class="gh_24"/>
<path d="M383.9,718.1c1.9,0,9.8,1.9,10,0c.1,-2.2,-.6,-5.8,-2.1,-6.1c-1.4,-.3,-5.2,.7,-6.7,1c-1.6,.3,-1.5,1.2,-1.5,2.5c-.1,1.2,.3,2.6,.3,2.6Z" class="g7_24"/>
<path d="M383.9,718.1c1.9,0,9.8,1.9,10,0c.1,-2.2,-.6,-5.8,-2.1,-6.1c-1.4,-.3,-5.2,.7,-6.7,1c-1.6,.3,-1.5,1.2,-1.5,2.5c-.1,1.2,.3,2.6,.3,2.6Z" class="gh_24"/>
<path d="M354.9,718c.3,-2.3,.4,-6.1,2.3,-6.1c1.9,0,2.2,.4,3.3,.5c1.2,.2,3.9,.4,3.6,2.2c-.3,1.8,-.4,4.1,-.4,4.1c0,0,-9.4,3.3,-8.8,-.7Z" class="g7_24"/>
<path d="M354.9,718c.3,-2.3,.4,-6.1,2.3,-6.1c1.9,0,2.2,.4,3.3,.5c1.2,.2,3.9,.4,3.6,2.2c-.3,1.8,-.4,4.1,-.4,4.1c0,0,-9.4,3.3,-8.8,-.7Z" class="gh_24"/>
<path d="M363.8,718.2c-.2,-.4,-.2,-3.6,.4,-4.7c.3,-.5,1.2,-.9,2.6,-.6c2.9,.6,5.4,-.1,6.4,.7c.4,.3,.6,4.4,.2,5.5c-.3,.7,-9.6,-.9,-9.6,-.9Z" class="g7_24"/>
<path d="M363.8,718.2c-.2,-.4,-.2,-3.6,.4,-4.7c.3,-.5,1.2,-.9,2.6,-.6c2.9,.6,5.4,-.1,6.4,.7c.4,.3,.6,4.4,.2,5.5c-.3,.7,-9.6,-.9,-9.6,-.9Z" class="gh_24"/>
<path d="M373.6,714.4c0,-.6,.2,-.9,1,-1.2c.9,-.3,2.3,0,4,-.2c1.7,-.2,3.1,-.1,3.9,.1c1.1,.3,1.6,1.4,1.6,1.4c0,.7,.3,4.5,.3,4.5c0,0,-10.3,.4,-10.7,.3c-.3,-.1,-.2,-3.8,-.1,-4.9Z" class="g7_24"/>
<path d="M373.6,714.4c0,-.6,.2,-.9,1,-1.2c.9,-.3,2.3,0,4,-.2c1.7,-.2,3.1,-.1,3.9,.1c1.1,.3,1.6,1.4,1.6,1.4c0,.7,.3,4.5,.3,4.5c0,0,-10.3,.4,-10.7,.3c-.3,-.1,-.2,-3.8,-.1,-4.9Z" class="gh_24"/>
<path d="M406.9,703.2c.6,1.4,.8,1.2,2.6,1.5c1.7,.3,2.9,-1,3.3,-2.1c.1,-.6,-4,-3.6,-6.2,-2.7c-2.1,.9,.3,3.3,.3,3.3Z" class="g7_24"/>
<path d="M406.9,703.2c.6,1.4,.8,1.2,2.6,1.5c1.7,.3,2.9,-1,3.3,-2.1c.1,-.6,-4,-3.6,-6.2,-2.7c-2.1,.9,.3,3.3,.3,3.3Z" class="gh_24"/>
<path d="M334.1,703.9c.7,.4,1.9,1.8,3.6,2.1c1.8,.3,2.1,-.6,2.5,-1.1c.3,-.6,1.7,-2.9,1.7,-2.9c0,0,-4.4,-1.1,-6.5,-.2c-2.1,.9,-1.3,2.1,-1.3,2.1Z" class="g7_24"/>
<path d="M334.1,703.9c.7,.4,1.9,1.8,3.6,2.1c1.8,.3,2.1,-.6,2.5,-1.1c.3,-.6,1.7,-2.9,1.7,-2.9c0,0,-4.4,-1.1,-6.5,-.2c-2.1,.9,-1.3,2.1,-1.3,2.1Z" class="gh_24"/>
<path d="M337.8,700.6c.5,4.1,2.7,5.1,3.3,5.8c.5,.7,2.3,.9,5.1,-.9c2.8,-1.8,.7,-7.7,.7,-7.7Z" class="g7_24"/>
<path d="M337.8,700.6c.5,4.1,2.7,5.1,3.3,5.8c.5,.7,2.3,.9,5.1,-.9c2.8,-1.8,.7,-7.7,.7,-7.7l-9.1,2.8Z" class="gh_24"/>
<path d="M407.1,701.1c-.4,1,.9,1.2,-.1,3.3c-.8,1.8,-1.5,2.3,-2.5,2.4c-1.7,.2,-4,-.1,-4.9,-2.1c-1,-2,.7,-6,.7,-6c0,0,6.7,.5,6.8,2.4Z" class="g7_24"/>
<path d="M407.1,701.1c-.4,1,.9,1.2,-.1,3.3c-.8,1.8,-1.5,2.3,-2.5,2.4c-1.7,.2,-4,-.1,-4.9,-2.1c-1,-2,.7,-6,.7,-6c0,0,6.7,.5,6.8,2.4Z" class="gh_24"/>
<path d="M388.6,708.4c.3,.8,.7,1.4,1.1,1.7c.3,.2,2.2,.3,4.8,-.3c1.7,-.4,3.6,-1.2,4.7,-2c.7,-.5,.8,-1.2,.8,-2c.1,-.8,.6,-5,-.3,-7.7c-1,-2.8,-11.7,-.9,-12.1,.7c-.4,1.6,1,9.6,1,9.6Z" class="g7_24"/>
<path d="M388.6,708.4c.3,.8,.7,1.4,1.1,1.7c.3,.2,2.2,.3,4.8,-.3c1.7,-.4,3.6,-1.2,4.7,-2c.7,-.5,.8,-1.2,.8,-2c.1,-.8,.6,-5,-.3,-7.7c-1,-2.8,-11.7,-.9,-12.1,.7c-.4,1.6,1,9.6,1,9.6Z" class="gh_24"/>
<path d="M357.1,708.3c-.3,.8,-.6,1.2,-1,1.5c-.2,.2,-2.6,1.1,-5,.5c-1.6,-.4,-3.7,-.6,-4.7,-1.4c-.7,-.5,-.7,-1.2,-.8,-2c-.1,-.8,-.7,-6,.2,-8.7c.9,-2.7,11.8,-.9,12.2,.7c.3,1.6,-.9,9.4,-.9,9.4Z" class="g7_24"/>
<path d="M357.1,708.3c-.3,.8,-.6,1.2,-1,1.5c-.2,.2,-2.6,1.1,-5,.5c-1.6,-.4,-3.7,-.6,-4.7,-1.4c-.7,-.5,-.7,-1.2,-.8,-2c-.1,-.8,-.7,-6,.2,-8.7c.9,-2.7,11.8,-.9,12.2,.7c.3,1.6,-.9,9.4,-.9,9.4Z" class="gh_24"/>
<path d="M372.8,701.6c.1,.5,.3,1.4,.3,2.2c.2,2.2,.2,7.1,.2,7.1c0,0,-.3,.7,-.7,1c-3.2,1.3,-13,1.3,-14.5,-.9c-1.5,-2.4,-1.1,-8.1,-.6,-9.8l.4,-3.3c.6,-.9,14,1.4,14.9,3.7Z" class="g7_24"/>
<path d="M372.8,701.6c.1,.5,.3,1.4,.3,2.2c.2,2.2,.2,7.1,.2,7.1c0,0,-.3,.7,-.7,1c-3.2,1.3,-13,1.3,-14.5,-.9c-1.5,-2.4,-1.1,-8.1,-.6,-9.8l.4,-3.3c.6,-.9,14,1.4,14.9,3.7Z" class="gh_24"/>
<path d="M387.6,699c.7,1,1.1,5.6,1.1,6.9c0,1.4,-.1,3.5,-1,4.9c-1.7,.9,-4.9,1.4,-7.2,1.7c-3,.4,-5.4,-.3,-5.8,-.5c-.7,-.3,-1.4,-.7,-1.4,-1.7c0,-1.5,-.1,-4.7,-.1,-6.7c.1,-1.3,.2,-2.3,.3,-2.6c.4,-1.2,12.8,-4.1,14.1,-2Z" class="g7_24"/>
<path d="M387.6,699c.7,1,1.1,5.6,1.1,6.9c0,1.4,-.1,3.5,-1,4.9c-1.7,.9,-4.9,1.4,-7.2,1.7c-3,.4,-5.4,-.3,-5.8,-.5c-.7,-.3,-1.4,-.7,-1.4,-1.7c0,-1.5,-.1,-4.7,-.1,-6.7c.1,-1.3,.2,-2.3,.3,-2.6c.4,-1.2,12.8,-4.1,14.1,-2Z" class="gh_24"/>
<g clip-path="url(#c4_24)">
<path d="M413,707.7c-2.1,1.4,-6.1,4.5,-13.5,5.9c-8.3,1.6,-15.7,1.5,-24.9,1.5c-11.6,0,-22.5,.6,-31.5,-2.8c-6.6,-2.4,-8.6,-4.6,-13.6,-6.9c-2.8,-1.3,-4,-2.3,-3.3,-3.4c.8,-1.2,10.8,1.2,15.7,.9c4.9,-.3,8,-.6,11.5,-.6c6.9,.1,13.3,1.9,19.8,1.9c6.9,.1,11.9,-1.8,18.7,-1.9c3.8,-.2,6.4,-.3,12,.1c4.8,.3,9.2,-.9,12.2,-.7c2.5,.1,4,-.1,4.8,1.1c.1,2.2,-3.2,1.8,-7.9,4.9m-7.4,-10.4c-7.1,-1.9,-13.9,-4.8,-20.2,-4.6c-5.1,-.1,-5.8,1.8,-12,1.9c-4.4,0,-5.3,-1.8,-11.8,-1.8c-4,0,-10.2,.4,-18.6,3.2c-7.8,2.5,-18.4,3.3,-18.7,5.9c-.4,2,.3,3.2,5.9,8.1c2.4,2.1,6.2,5.1,11.9,10.5c10.3,9.6,21.7,9.8,31.3,9.8c11.3,0,23,-.1,31,-7.7c8,-7.6,9.6,-9.8,14.1,-14.1c2.8,-2.7,4.2,-4.1,3.9,-5.8c-.4,-3.6,-9.1,-3.3,-16.8,-5.4Z" class="gi_24"/>
<path d="M413,707.7c-2.1,1.4,-6.1,4.5,-13.5,5.9c-8.3,1.6,-15.7,1.5,-24.9,1.5c-11.6,0,-22.5,.6,-31.5,-2.8c-6.6,-2.4,-8.6,-4.6,-13.6,-6.9c-2.8,-1.3,-4,-2.3,-3.3,-3.4c.8,-1.2,10.8,1.2,15.7,.9c4.9,-.3,8,-.6,11.5,-.6c6.9,.1,13.3,1.9,19.8,1.9c6.9,.1,11.9,-1.8,18.7,-1.9c3.8,-.2,6.4,-.3,12,.1c4.8,.3,9.2,-.9,12.2,-.7c2.5,.1,4,-.1,4.8,1.1c.1,2.2,-3.2,1.8,-7.9,4.9Zm-7.4,-10.4c-7.1,-1.9,-13.9,-4.8,-20.2,-4.6c-5.1,-.1,-5.8,1.8,-12,1.9c-4.4,0,-5.3,-1.8,-11.8,-1.8c-4,0,-10.2,.4,-18.6,3.2c-7.8,2.5,-18.4,3.3,-18.7,5.9c-.4,2,.3,3.2,5.9,8.1c2.4,2.1,6.2,5.1,11.9,10.5c10.3,9.6,21.7,9.8,31.3,9.8c11.3,0,23,-.1,31,-7.7c8,-7.6,9.6,-9.8,14.1,-14.1c2.8,-2.7,4.2,-4.1,3.9,-5.8c-.4,-3.6,-9.1,-3.3,-16.8,-5.4Z" class="gh_24"/>
</g>
<path clip-path="url(#c5_24)" d="M750.2,698.8c-7.2,-1.6,-14.1,-4.2,-20.6,-3.9c-5.2,-.2,-5.8,1.5,-12.2,1.6c-4.5,0,-5.5,-1.6,-12.1,-1.6c-4,0,-10.3,.4,-18.9,2.8c-8,2.2,-18.3,5.1,-18.7,7.4c-.4,1.7,.6,1.9,6.3,6.2c2.4,1.8,3.2,1.9,11.5,9.2c10,8.7,22.1,7.5,31.9,7.5c11.5,0,23.5,-.5,31.6,-7.1c8.1,-6.6,9.8,-6.6,14.4,-10.4c2.9,-2.4,4.3,-3.1,4,-4.6c-.5,-3.1,-9.3,-5.2,-17.2,-7.1Z" class="gg_24"/>
<path d="M678.4,711.6c.1,-.9,.7,-1.4,1.4,-1.6c2.3,-.8,3,-.2,3.4,.4c.4,.6,.4,.7,.8,1.3c.5,.6,-.2,3.2,-2.2,6.6c-.5,.8,-3.2,-1.3,-3.8,-2.5c-.4,-.6,0,-1.9,.4,-4.2Z" class="g7_24"/>
<path d="M678.4,711.6c.1,-.9,.7,-1.4,1.4,-1.6c2.3,-.8,3,-.2,3.4,.4c.4,.6,.4,.7,.8,1.3c.5,.6,-.2,3.2,-2.2,6.6c-.5,.8,-3.2,-1.3,-3.8,-2.5c-.4,-.6,0,-1.9,.4,-4.2Z" class="gj_24"/>
<path d="M687,711.2c-.4,-1.3,-3.1,-.6,-3.8,-.4c-.7,.1,-1.8,2.3,-1.4,4.2c.4,2,3.1,3,4.4,3.7c1.2,.7,1.5,-3.9,1.6,-5c.2,-1.1,.4,-1.8,-.8,-2.5Z" class="g7_24"/>
<path d="M687,711.2c-.4,-1.3,-3.1,-.6,-3.8,-.4c-.7,.1,-1.8,2.3,-1.4,4.2c.4,2,3.1,3,4.4,3.7c1.2,.7,1.5,-3.9,1.6,-5c.2,-1.1,.4,-1.8,-.8,-2.5Z" class="gj_24"/>
<path d="M757.5,711.1c-.1,-.9,-.7,-1.5,-1.4,-1.6c-2.3,-.8,-3,-.2,-3.4,.4c-.4,.6,-.4,.7,-.8,1.3c-.5,.5,.2,3.2,2.2,6.6c.5,.8,3.2,-1.4,3.8,-2.5c.4,-.6,0,-1.9,-.4,-4.2Z" class="g7_24"/>
<path d="M757.5,711.1c-.1,-.9,-.7,-1.5,-1.4,-1.6c-2.3,-.8,-3,-.2,-3.4,.4c-.4,.6,-.4,.7,-.8,1.3c-.5,.5,.2,3.2,2.2,6.6c.5,.8,3.2,-1.4,3.8,-2.5c.4,-.6,0,-1.9,-.4,-4.2Z" class="gj_24"/>
<path d="M753.2,712c-.1,-.8,-.9,-2.3,-1.7,-2.4c-2.2,-.8,-2.7,.7,-3.1,1.2c-.4,.6,-.8,1.1,-1.3,1.7c-.5,.5,.2,3.5,2.2,6.9c.5,.8,3.6,-2,4.3,-3.2c.3,-.6,0,-1.9,-.4,-4.2Z" class="g7_24"/>
<path d="M753.2,712c-.1,-.8,-.9,-2.3,-1.7,-2.4c-2.2,-.8,-2.7,.7,-3.1,1.2c-.4,.6,-.8,1.1,-1.3,1.7c-.5,.5,.2,3.5,2.2,6.9c.5,.8,3.6,-2,4.3,-3.2c.3,-.6,0,-1.9,-.4,-4.2Z" class="gj_24"/>
<path d="M694.2,714.5c-.4,-1.3,-.3,-2.1,-1.5,-2.9c-1,-.7,-4.1,.4,-4.8,.6c-.7,.1,-1.3,3.3,-1.7,5.3c-.4,2,5.1,5.4,6.4,6.1c1.2,.7,1.5,-3.8,1.6,-5c.2,-1.1,1.2,-3.4,0,-4.1Z" class="g7_24"/>
<path d="M694.2,714.5c-.4,-1.3,-.3,-2.1,-1.5,-2.9c-1,-.7,-4.1,.4,-4.8,.6c-.7,.1,-1.3,3.3,-1.7,5.3c-.4,2,5.1,5.4,6.4,6.1c1.2,.7,1.5,-3.8,1.6,-5c.2,-1.1,1.2,-3.4,0,-4.1Z" class="gj_24"/>
<path d="M700.6,718.5c-.4,-1.8,.9,-3.7,.3,-4.7c-.4,-.9,-4.8,-2.7,-6.9,-1.4c-.7,.4,-1.7,4.1,-1.4,6.1c.3,1.8,.7,.5,1.9,1.3c2.4,1.4,6,1.4,6.1,-1.3Z" class="g7_24"/>
<path d="M700.6,718.5c-.4,-1.8,.9,-3.7,.3,-4.7c-.4,-.9,-4.8,-2.7,-6.9,-1.4c-.7,.4,-1.7,4.1,-1.4,6.1c.3,1.8,.7,.5,1.9,1.3c2.4,1.4,6,1.4,6.1,-1.3Z" class="gj_24"/>
<path d="M747.4,713.2c-.1,-.8,-.9,-2.3,-1.6,-2.4c-2.3,-.8,-2.8,.7,-3.2,1.2c-.4,.6,-.8,1.1,-1.3,1.7c-.4,.5,.2,3.5,2.3,6.9c.5,.8,4.3,-1,4.9,-2.1c.4,-.7,0,-3,-1.1,-5.3Z" class="g7_24"/>
<path d="M747.4,713.2c-.1,-.8,-.9,-2.3,-1.6,-2.4c-2.3,-.8,-2.8,.7,-3.2,1.2c-.4,.6,-.8,1.1,-1.3,1.7c-.4,.5,.2,3.5,2.3,6.9c.5,.8,4.3,-1,4.9,-2.1c.4,-.7,0,-3,-1.1,-5.3Z" class="gj_24"/>
<path d="M740.3,711.9c-2.3,-.8,-2.7,.1,-3,.7c-.4,.6,-1.1,1.5,-1.6,2.1c-.4,.6,-.7,3.2,1.4,6.6c.5,.8,5.3,-1.3,5.9,-2.5c.7,-1.1,-.8,-6.6,-2.7,-6.9Z" class="g7_24"/>
<path d="M740.3,711.9c-2.3,-.8,-2.7,.1,-3,.7c-.4,.6,-1.1,1.5,-1.6,2.1c-.4,.6,-.7,3.2,1.4,6.6c.5,.8,5.3,-1.3,5.9,-2.5c.7,-1.1,-.8,-6.6,-2.7,-6.9Z" class="gj_24"/>
<path d="M727.3,718.2c1.8,0,9.3,1.8,9.5,0c.1,-2.1,-.6,-5.5,-2,-5.8c-1.3,-.3,-4.9,.7,-6.4,1c-1.4,.3,-1.3,1.1,-1.4,2.4c-.1,1.1,.3,2.4,.3,2.4Z" class="g7_24"/>
<path d="M727.3,718.2c1.8,0,9.3,1.8,9.5,0c.1,-2.1,-.6,-5.5,-2,-5.8c-1.3,-.3,-4.9,.7,-6.4,1c-1.4,.3,-1.3,1.1,-1.4,2.4c-.1,1.1,.3,2.4,.3,2.4Z" class="gj_24"/>
<path d="M699.8,718.1c.3,-2.2,.5,-5.8,2.2,-5.8c1.8,0,2.1,.4,3.2,.5c1.1,.2,3.7,.4,3.4,2.1c-.3,1.7,-.4,3.9,-.4,3.9c0,0,-8.9,3.1,-8.4,-.7Z" class="g7_24"/>
<path d="M699.8,718.1c.3,-2.2,.5,-5.8,2.2,-5.8c1.8,0,2.1,.4,3.2,.5c1.1,.2,3.7,.4,3.4,2.1c-.3,1.7,-.4,3.9,-.4,3.9c0,0,-8.9,3.1,-8.4,-.7Z" class="gj_24"/>
<path d="M708.3,718.3c-.2,-.4,-.2,-3.4,.4,-4.4c.3,-.5,1.2,-.9,2.4,-.6c2.8,.5,5.2,-.1,6.1,.7c.4,.3,.5,4.1,.2,5.1c-.3,.7,-9.1,-.8,-9.1,-.8Z" class="g7_24"/>
<path d="M708.3,718.3c-.2,-.4,-.2,-3.4,.4,-4.4c.3,-.5,1.2,-.9,2.4,-.6c2.8,.5,5.2,-.1,6.1,.7c.4,.3,.5,4.1,.2,5.1c-.3,.7,-9.1,-.8,-9.1,-.8Z" class="gj_24"/>
<path d="M717.5,714.7c.1,-.6,.2,-.9,1.1,-1.2c.8,-.3,2.1,0,3.7,-.2c1.7,-.2,3,-.1,3.7,.1c1.1,.3,1.5,1.4,1.5,1.4c0,.6,.3,4.2,.3,4.2c0,0,-9.7,.4,-10.1,.3c-.4,-.1,-.3,-3.6,-.2,-4.6Z" class="g7_24"/>
<path d="M717.5,714.7c.1,-.6,.2,-.9,1.1,-1.2c.8,-.3,2.1,0,3.7,-.2c1.7,-.2,3,-.1,3.7,.1c1.1,.3,1.5,1.4,1.5,1.4c0,.6,.3,4.2,.3,4.2c0,0,-9.7,.4,-10.1,.3c-.4,-.1,-.3,-3.6,-.2,-4.6Z" class="gj_24"/>
<path d="M682.1,702.1c-.6,.4,-1.5,1.3,-3.1,1.7c-1.6,.4,-2.6,-2.9,-3,-3.4c-.1,-.1,1.1,-1,3.2,-1.2c2.6,-.2,1.7,-1.4,3,-.9c2,.7,-.1,3.8,-.1,3.8Z" class="g7_24"/>
<path d="M682.1,702.1c-.6,.4,-1.5,1.3,-3.1,1.7c-1.6,.4,-2.6,-2.9,-3,-3.4c-.1,-.1,1.1,-1,3.2,-1.2c2.6,-.2,1.7,-1.4,3,-.9c2,.7,-.1,3.8,-.1,3.8Z" class="gj_24"/>
<path d="M749.4,703.6c.6,.4,.7,1,2.2,1.4c1.6,.4,2.9,-.4,3.3,-.9c.1,-.1,1.4,-3,.7,-3.8c-1.3,-1.7,-5.5,-2.6,-6.8,-2.1c-2,.7,.6,5.4,.6,5.4Z" class="g7_24"/>
<path d="M749.4,703.6c.6,.4,.7,1,2.2,1.4c1.6,.4,2.9,-.4,3.3,-.9c.1,-.1,1.4,-3,.7,-3.8c-1.3,-1.7,-5.5,-2.6,-6.8,-2.1c-2,.7,.6,5.4,.6,5.4Z" class="gj_24"/>
<path d="M681.3,703.3c.7,.4,1.8,1.6,3.4,1.9c1.6,.3,1.9,-.6,2.2,-1.1c.4,-.4,1.6,-2.6,1.6,-2.6c0,0,-.2,-1.9,-.7,-2.1c-1.5,-.6,-4.7,0,-6.2,.6c-1.9,.9,-.3,3.3,-.3,3.3Z" class="g7_24"/>
<path d="M681.3,703.3c.7,.4,1.8,1.6,3.4,1.9c1.6,.3,1.9,-.6,2.2,-1.1c.4,-.4,1.6,-2.6,1.6,-2.6c0,0,-.2,-1.9,-.7,-2.1c-1.5,-.6,-4.7,0,-6.2,.6c-1.9,.9,-.3,3.3,-.3,3.3Z" class="gj_24"/>
<path d="M684.7,698.8c.5,4.9,2.5,6.4,3.1,7.1c.5,.7,2.1,.8,4.7,-.8c2.6,-1.7,.7,-8.9,.7,-8.9Z" class="g7_24"/>
<path d="M684.7,698.8c.5,4.9,2.5,6.4,3.1,7.1c.5,.7,2.1,.8,4.7,-.8c2.6,-1.7,.7,-8.9,.7,-8.9l-8.5,2.6Z" class="gj_24"/>
<path d="M750,699.6c-.4,.9,-.4,3.7,-1.3,5.7c-.7,1.6,-1.4,2,-2.3,2.1c-1.6,.1,-3.7,-.3,-4.6,-2.3c-.8,-2,.6,-9.1,.6,-9.1c0,0,7.5,1.7,7.6,3.6Z" class="g7_24"/>
<path d="M750,699.6c-.4,.9,-.4,3.7,-1.3,5.7c-.7,1.6,-1.4,2,-2.3,2.1c-1.6,.1,-3.7,-.3,-4.6,-2.3c-.8,-2,.6,-9.1,.6,-9.1c0,0,7.5,1.7,7.6,3.6Z" class="gj_24"/>
<path d="M731.7,706.7c.3,.8,.8,1.4,1.1,1.7c.2,.2,2,.4,4.3,0c1.7,-.3,3.4,-.9,4.4,-1.6c.6,-.4,.7,-1.1,.8,-1.9c.1,-.7,.5,-4.7,-.3,-7.3c-.9,-2.6,-10.8,-1.5,-11.1,-.1c-.4,1.5,.8,9.2,.8,9.2Z" class="g7_24"/>
<path d="M731.7,706.7c.3,.8,.8,1.4,1.1,1.7c.2,.2,2,.4,4.3,0c1.7,-.3,3.4,-.9,4.4,-1.6c.6,-.4,.7,-1.1,.8,-1.9c.1,-.7,.5,-4.7,-.3,-7.3c-.9,-2.6,-10.8,-1.5,-11.1,-.1c-.4,1.5,.8,9.2,.8,9.2Z" class="gj_24"/>
<path d="M702.7,706.4c-.3,.8,-.6,1.2,-.9,1.4c-.2,.2,-2.5,1,-4.7,.5c-1.5,-.4,-3.5,-.6,-4.4,-1.3c-.6,-.5,-.7,-1.1,-.7,-1.9c-.1,-.7,-.7,-5.6,.1,-8.1c.9,-2.5,11.1,-.8,11.4,.7c.3,1.5,-.8,8.7,-.8,8.7Z" class="g7_24"/>
<path d="M702.7,706.4c-.3,.8,-.6,1.2,-.9,1.4c-.2,.2,-2.5,1,-4.7,.5c-1.5,-.4,-3.5,-.6,-4.4,-1.3c-.6,-.5,-.7,-1.1,-.7,-1.9c-.1,-.7,-.7,-5.6,.1,-8.1c.9,-2.5,11.1,-.8,11.4,.7c.3,1.5,-.8,8.7,-.8,8.7Z" class="gj_24"/>
<path d="M717.2,699.4c.2,.5,.3,1.3,.4,2.1c.2,2,.1,6.6,.1,6.6c0,0,-.2,.7,-.6,.9c-3,1.3,-12.1,1.2,-13.5,-.8c-1.4,-2.3,-1,-7.6,-.6,-9.2l.4,-3c.6,-.8,13,1.3,13.8,3.4Z" class="g7_24"/>
<path d="M717.2,699.4c.2,.5,.3,1.3,.4,2.1c.2,2,.1,6.6,.1,6.6c0,0,-.2,.7,-.6,.9c-3,1.3,-12.1,1.2,-13.5,-.8c-1.4,-2.3,-1,-7.6,-.6,-9.2l.4,-3c.6,-.8,13,1.3,13.8,3.4Z" class="gj_24"/>
<path d="M730.9,697.8c.6,1,.9,5.3,.9,6.5c0,1.3,-.1,3.1,-.9,4.3c-1.6,.7,-4,.9,-6.1,1.1c-2.7,.1,-5.4,-.2,-5.8,-.4c-.6,-.4,-1.3,-.8,-1.3,-1.8c0,-1.4,-.1,-4.4,0,-6.3c.1,-1.2,.2,-2.1,.3,-2.4c.3,-1.1,11.7,-3.1,12.9,-1Z" class="g7_24"/>
<path d="M730.9,697.8c.6,1,.9,5.3,.9,6.5c0,1.3,-.1,3.1,-.9,4.3c-1.6,.7,-4,.9,-6.1,1.1c-2.7,.1,-5.4,-.2,-5.8,-.4c-.6,-.4,-1.3,-.8,-1.3,-1.8c0,-1.4,-.1,-4.4,0,-6.3c.1,-1.2,.2,-2.1,.3,-2.4c.3,-1.1,11.7,-3.1,12.9,-1Z" class="gj_24"/>
<g clip-path="url(#c5_24)">
<path d="M757.2,709.1c-2.3,1,-5,3.3,-13.3,4.2c-8.8,1,-16.8,2.1,-26.4,2.1c-11.9,0,-22.4,-.4,-30,-2.8c-7,-2.1,-7.9,-4,-14.2,-5.6c-3.2,-.8,-4.1,-.8,-4.2,-2.2c-.1,-2.3,8.7,-1.5,15.7,-2.4c5.1,-.6,8.3,-.6,11.9,-.6c7.2,.1,13.8,1.9,20.4,1.9c7.2,.1,12.4,-1.7,19.5,-1.9c3.8,-.2,3.2,-.6,9,.1c6.3,.7,12.9,1.8,15.9,2c2.6,.1,3.9,.2,4.8,1.4c0,2.3,-3.5,1.3,-9.1,3.8m-4.6,-10.7c-7.3,-1.9,-16.3,-4.9,-22.8,-4.6c-5.3,-.2,-6.1,1.9,-12.4,1.8c-4.7,-.1,-5.5,-1.8,-12.3,-1.8c-4,0,-5.7,-1.1,-18.3,2.6c-9.4,2.7,-19,5.1,-19.3,8c-.2,2.6,-.1,3.2,6.1,8.4c4.6,3.9,6.1,6,11.8,9.9c10.8,7.4,22.1,6.7,32,6.7c11.7,0,22.4,-.1,31.7,-6.2c7.1,-4.7,10.9,-8.6,14.9,-11.8c3.1,-2.5,3.4,-3.5,3.7,-5.2c.7,-3.4,-7.1,-5.7,-15.1,-7.8Z" class="gi_24"/>
<path d="M757.2,709.1c-2.3,1,-5,3.3,-13.3,4.2c-8.8,1,-16.8,2.1,-26.4,2.1c-11.9,0,-22.4,-.4,-30,-2.8c-7,-2.1,-7.9,-4,-14.2,-5.6c-3.2,-.8,-4.1,-.8,-4.2,-2.2c-.1,-2.3,8.7,-1.5,15.7,-2.4c5.1,-.6,8.3,-.6,11.9,-.6c7.2,.1,13.8,1.9,20.4,1.9c7.2,.1,12.4,-1.7,19.5,-1.9c3.8,-.2,3.2,-.6,9,.1c6.3,.7,12.9,1.8,15.9,2c2.6,.1,3.9,.2,4.8,1.4c0,2.3,-3.5,1.3,-9.1,3.8Zm-4.6,-10.7c-7.3,-1.9,-16.3,-4.9,-22.8,-4.6c-5.3,-.2,-6.1,1.9,-12.4,1.8c-4.7,-.1,-5.5,-1.8,-12.3,-1.8c-4,0,-5.7,-1.1,-18.3,2.6c-9.4,2.7,-19,5.1,-19.3,8c-.2,2.6,-.1,3.2,6.1,8.4c4.6,3.9,6.1,6,11.8,9.9c10.8,7.4,22.1,6.7,32,6.7c11.7,0,22.4,-.1,31.7,-6.2c7.1,-4.7,10.9,-8.6,14.9,-11.8c3.1,-2.5,3.4,-3.5,3.7,-5.2c.7,-3.4,-7.1,-5.7,-15.1,-7.8Z" class="gj_24"/>
</g>
<path clip-path="url(#c6_24)" d="M406.8,785.4c-3.3,-2.5,-6.7,-4.1,-9.6,-5.5c-5.4,-2.8,-10.4,-4.5,-13.8,-4.4c-3.8,-.1,-6,1.7,-9.9,1.5c-2.2,0,-5.6,-1.7,-10.5,-1.7c-2.9,0,-7.4,1.6,-12.4,3.8c-5.7,2.5,-13.4,6.4,-15,9.3c-.7,3.4,1.1,7,3.5,11.9c2.4,4.8,4.8,14.1,10.9,20.6c7.3,8,16,8.7,23.2,8.7c8.4,0,17.9,-.9,23.8,-6.9c6,-6,9.5,-20.2,12,-24.8c1.2,-2.4,1.9,-5.1,1.9,-7.2c0,-1.7,-1.3,-3.1,-4.1,-5.3Z" class="gg_24"/>
<path d="M343.4,781.3c0,0,1.1,2.4,2,3.2c.5,.5,2.1,-.2,2.4,-.5c.3,-.4,-.6,-4.4,-.6,-4.4Z" class="g7_24"/>
<path d="M399.1,783.7c.5,.3,1.3,1,2.6,1.2c1.3,.2,1.7,-.7,2,-1.1c.3,-.4,-3.4,-4.6,-5,-3.9c-1.6,.7,.4,3.8,.4,3.8Z" class="g7_24"/>
<path d="M399.1,783.7c.5,.3,1.3,1,2.6,1.2c1.3,.2,1.7,-.7,2,-1.1c.3,-.4,-3.4,-4.6,-5,-3.9c-1.6,.7,.4,3.8,.4,3.8Z" class="gk_24"/>
<path d="M343.6,783.9c.5,.4,1.4,1.3,2.7,1.6c1.3,.2,1.5,-.5,1.8,-.9c.3,-.3,1.3,-2.1,1.3,-2.1c0,0,-3.2,-.9,-4.8,-.2c-1.7,.7,-1,1.6,-1,1.6Z" class="g7_24"/>
<path d="M343.6,783.9c.5,.4,1.4,1.3,2.7,1.6c1.3,.2,1.5,-.5,1.8,-.9c.3,-.3,1.3,-2.1,1.3,-2.1c0,0,-3.2,-.9,-4.8,-.2c-1.7,.7,-1,1.6,-1,1.6Z" class="gk_24"/>
<path d="M346.4,780c.4,4,2,5.3,2.4,5.8c.5,.5,1.8,.7,3.9,-.7c2.1,-1.3,.5,-7.2,.5,-7.2Z" class="g7_24"/>
<path d="M346.4,780c.4,4,2,5.3,2.4,5.8c.5,.5,1.8,.7,3.9,-.7c2.1,-1.3,.5,-7.2,.5,-7.2l-6.8,2.1Z" class="gk_24"/>
<path d="M399.7,781.9c-.4,.8,-.2,1,-1,2.7c-.6,1.3,-1.1,1.7,-1.9,1.7c-1.3,.2,-3,0,-3.7,-1.6c-.8,-1.5,.4,-7.2,.4,-7.2c0,0,6.1,3,6.2,4.4Z" class="g7_24"/>
<path d="M399.7,781.9c-.4,.8,-.2,1,-1,2.7c-.6,1.3,-1.1,1.7,-1.9,1.7c-1.3,.2,-3,0,-3.7,-1.6c-.8,-1.5,.4,-7.2,.4,-7.2c0,0,6.1,3,6.2,4.4Z" class="gk_24"/>
<path d="M384.8,786.6c.2,.6,.5,1,.8,1.3c.2,.1,1.7,.2,3.6,-.3c1.3,-.3,2.8,-.9,3.6,-1.5c.5,-.4,.6,-.9,.6,-1.5c.1,-.6,.5,-3.8,-.3,-5.9c-.7,-2,-8.8,-.6,-9.1,.6c-.3,1.2,.8,7.3,.8,7.3Z" class="g7_24"/>
<path d="M384.8,786.6c.2,.6,.5,1,.8,1.3c.2,.1,1.7,.2,3.6,-.3c1.3,-.3,2.8,-.9,3.6,-1.5c.5,-.4,.6,-.9,.6,-1.5c.1,-.6,.5,-3.8,-.3,-5.9c-.7,-2,-8.8,-.6,-9.1,.6c-.3,1.2,.8,7.3,.8,7.3Z" class="gk_24"/>
<path d="M361,786.5c-.3,.6,-.5,.9,-.8,1.1c-.1,.2,-2,.8,-3.8,.4c-1.2,-.3,-2.8,-.4,-3.6,-1.1c-.4,-.3,-.5,-.9,-.6,-1.5c0,-.6,-.5,-4.5,.2,-6.6c.7,-2,8.9,-.7,9.2,.6c.3,1.2,-.6,7.1,-.6,7.1Z" class="g7_24"/>
<path d="M361,786.5c-.3,.6,-.5,.9,-.8,1.1c-.1,.2,-2,.8,-3.8,.4c-1.2,-.3,-2.8,-.4,-3.6,-1.1c-.4,-.3,-.5,-.9,-.6,-1.5c0,-.6,-.5,-4.5,.2,-6.6c.7,-2,8.9,-.7,9.2,.6c.3,1.2,-.6,7.1,-.6,7.1Z" class="gk_24"/>
<path d="M372.8,781.4c.1,.4,.2,1.1,.3,1.7c.1,1.7,.1,5.4,.1,5.4c0,0,-.2,.5,-.5,.7c-2.5,1,-9.8,1,-11,-.7c-1.1,-1.8,-.8,-6.1,-.5,-7.4l.3,-2.5c.5,-.6,10.6,1.1,11.3,2.8Z" class="g7_24"/>
<path d="M372.8,781.4c.1,.4,.2,1.1,.3,1.7c.1,1.7,.1,5.4,.1,5.4c0,0,-.2,.5,-.5,.7c-2.5,1,-9.8,1,-11,-.7c-1.1,-1.8,-.8,-6.1,-.5,-7.4l.3,-2.5c.5,-.6,10.6,1.1,11.3,2.8Z" class="gk_24"/>
<path d="M384.1,779.4c.4,.8,.7,4.3,.7,5.3c0,1,-.1,2.4,-.7,3.4c-1.4,.7,-3.3,1,-5,1.2c-2.3,.3,-4.5,.1,-4.8,0c-.6,-.2,-1.1,-.5,-1.1,-1.3c0,-1.1,-.1,-3.6,0,-5.1c0,-.9,.1,-1.7,.2,-1.9c.3,-1,9.7,-3.2,10.7,-1.6Z" class="g7_24"/>
<path d="M384.1,779.4c.4,.8,.7,4.3,.7,5.3c0,1,-.1,2.4,-.7,3.4c-1.4,.7,-3.3,1,-5,1.2c-2.3,.3,-4.5,.1,-4.8,0c-.6,-.2,-1.1,-.5,-1.1,-1.3c0,-1.1,-.1,-3.6,0,-5.1c0,-.9,.1,-1.7,.2,-1.9c.3,-1,9.7,-3.2,10.7,-1.6Z" class="gk_24"/>
<path d="M354.4,814.3c-.3,-1.1,-.1,-2,-1.1,-2.6c-.8,-.6,-2.7,.2,-3.2,.3c-.6,.1,-1.9,2.4,-2.2,4c-.4,1.6,4.2,5,5.2,5.6c1,.5,1.2,-3.1,1.3,-4c.1,-.9,1,-2.8,0,-3.3Z" class="g7_24"/>
<path d="M354.4,814.3c-.3,-1.1,-.1,-2,-1.1,-2.6c-.8,-.6,-2.7,.2,-3.2,.3c-.6,.1,-1.9,2.4,-2.2,4c-.4,1.6,4.2,5,5.2,5.6c1,.5,1.2,-3.1,1.3,-4c.1,-.9,1,-2.8,0,-3.3Z" class="gk_24"/>
<path d="M359.4,816.4c-.3,-1.4,-1.3,-1.8,-1.7,-2.6c-.3,-.7,-1.2,-1.5,-2.8,-.5c-.6,.4,-1.9,3.1,-2.1,4.3c-.2,1.4,.9,1.4,1.9,2c1.8,1.1,4.6,-1,4.7,-3.2Z" class="g7_24"/>
<path d="M359.4,816.4c-.3,-1.4,-1.3,-1.8,-1.7,-2.6c-.3,-.7,-1.2,-1.5,-2.8,-.5c-.6,.4,-1.9,3.1,-2.1,4.3c-.2,1.4,.9,1.4,1.9,2c1.8,1.1,4.6,-1,4.7,-3.2Z" class="gk_24"/>
<path d="M397.9,812.9c-.7,-.5,-1.3,-1.1,-1.9,-1.2c-1.9,-.6,-2.6,.5,-2.9,1c-.3,.4,-.9,1.5,-1.3,2c-.3,.4,-.5,2.2,1.2,4.9c.4,.6,5.8,-4.3,6.4,-5.2c.2,-.5,-.7,-.8,-1.5,-1.5Z" class="g7_24"/>
<path d="M397.9,812.9c-.7,-.5,-1.3,-1.1,-1.9,-1.2c-1.9,-.6,-2.6,.5,-2.9,1c-.3,.4,-.9,1.5,-1.3,2c-.3,.4,-.5,2.2,1.2,4.9c.4,.6,5.8,-4.3,6.4,-5.2c.2,-.5,-.7,-.8,-1.5,-1.5Z" class="gk_24"/>
<path d="M391.6,813.3c-1.8,-.6,-2.2,.1,-2.4,.5c-.3,.5,-.9,1.3,-1.3,1.7c-.3,.5,-.5,2.6,1.1,5.3c.4,.6,4.1,-2.5,4.6,-3.4c.6,-.9,-.5,-3.8,-2,-4.1Z" class="g7_24"/>
<path d="M391.6,813.3c-1.8,-.6,-2.2,.1,-2.4,.5c-.3,.5,-.9,1.3,-1.3,1.7c-.3,.5,-.5,2.6,1.1,5.3c.4,.6,4.1,-2.5,4.6,-3.4c.6,-.9,-.5,-3.8,-2,-4.1Z" class="gk_24"/>
<path d="M381.8,818.5c1.5,.1,6.7,-.9,6.8,-2.3c.2,-1.7,-.9,-1.6,-2,-1.8c-1,-.3,-3.3,.6,-4.5,.8c-1.2,.2,-1.1,.9,-1.1,1.9c-.1,.9,.8,1.4,.8,1.4Z" class="g7_24"/>
<path d="M381.8,818.5c1.5,.1,6.7,-.9,6.8,-2.3c.2,-1.7,-.9,-1.6,-2,-1.8c-1,-.3,-3.3,.6,-4.5,.8c-1.2,.2,-1.1,.9,-1.1,1.9c-.1,.9,.8,1.4,.8,1.4Z" class="gk_24"/>
<path d="M357.7,818c.5,-1.6,1.5,-3.6,2.9,-3.6c1.5,0,1.7,.2,2.6,.4c.9,.1,2.9,.3,2.7,1.6c-.2,1.4,-.3,3.1,-.3,3.1c0,0,-8.8,1.4,-7.9,-1.5Z" class="g7_24"/>
<path d="M357.7,818c.5,-1.6,1.5,-3.6,2.9,-3.6c1.5,0,1.7,.2,2.6,.4c.9,.1,2.9,.3,2.7,1.6c-.2,1.4,-.3,3.1,-.3,3.1c0,0,-8.8,1.4,-7.9,-1.5Z" class="gk_24"/>
<path d="M366,819.1c-.1,-.3,-.1,-2.7,.3,-3.5c.3,-.4,1,-.7,2,-.5c2.2,.4,4.1,-.1,4.8,.6c.3,.2,.5,1.1,.2,2c-.2,.5,-7.3,1.4,-7.3,1.4Z" class="g7_24"/>
<path d="M366,819.1c-.1,-.3,-.1,-2.7,.3,-3.5c.3,-.4,1,-.7,2,-.5c2.2,.4,4.1,-.1,4.8,.6c.3,.2,.5,1.1,.2,2c-.2,.5,-7.3,1.4,-7.3,1.4Z" class="gk_24"/>
<path d="M373.5,816.2c.1,-.4,.1,-.7,.7,-.9c.7,-.2,1.7,0,3,-.1c1.3,-.2,2.4,-.1,2.9,0c.9,.3,.9,1,.9,1v2.3c0,0,-7.3,0,-7.6,-.1c-.3,0,-.1,-1.4,.1,-2.2Z" class="g7_24"/>
<path d="M373.5,816.2c.1,-.4,.1,-.7,.7,-.9c.7,-.2,1.7,0,3,-.1c1.3,-.2,2.4,-.1,2.9,0c.9,.3,.9,1,.9,1v2.3c0,0,-7.3,0,-7.6,-.1c-.3,0,-.1,-1.4,.1,-2.2Z" class="gk_24"/>
<g clip-path="url(#c6_24)">
<path d="M404.3,803c-3,3.9,-5.9,8.2,-11.5,10.9c-5.6,2.7,-11.6,2.4,-18.6,2.4c-8.8,0,-17.9,.5,-24.1,-5.9c-5.1,-5.2,-9,-10.2,-10.9,-12.2c-1.8,-2.1,-5.2,-8.9,-2.1,-11.2c3.2,-2.4,7.5,-2.3,11.2,-3c3.8,-.7,7.2,-1.7,9.9,-1.6c2.6,.2,7.4,2,14.6,2c5.3,.2,9.4,-1.6,14.5,-2c2.8,-.4,4.8,-.5,9.1,.2c3.6,.7,6.1,1.5,8.3,2.3c4.1,1.6,5.9,4.4,5.9,5.2c.4,2.5,-2.2,7.6,-6.3,12.9m2.8,-18.3c-3.3,-2.6,-6.8,-4.3,-9.6,-5.8c-5.5,-2.8,-11.4,-4.8,-14.9,-4.7c-3.8,-.1,-5.2,1.9,-9.1,1.8c-2.2,0,-5,-1.8,-10,-1.8c-2.9,0,-8.1,1.7,-13.1,3.9c-5.8,2.6,-13.3,7.2,-14.9,10.2c-.7,3.5,.9,6.8,3.3,11.9c2.4,5.1,4.8,14.7,10.9,21.5c7.4,8.3,16.2,9,23.5,9c8.5,0,18,-1,24.1,-7.2c6,-6.2,9.3,-19.6,12,-25.8c1.1,-2.5,2,-5.3,2,-7.5c0,-1.7,-1.3,-3.2,-4.2,-5.5Z" class="gi_24"/>
<path d="M404.3,803c-3,3.9,-5.9,8.2,-11.5,10.9c-5.6,2.7,-11.6,2.4,-18.6,2.4c-8.8,0,-17.9,.5,-24.1,-5.9c-5.1,-5.2,-9,-10.2,-10.9,-12.2c-1.8,-2.1,-5.2,-8.9,-2.1,-11.2c3.2,-2.4,7.5,-2.3,11.2,-3c3.8,-.7,7.2,-1.7,9.9,-1.6c2.6,.2,7.4,2,14.6,2c5.3,.2,9.4,-1.6,14.5,-2c2.8,-.4,4.8,-.5,9.1,.2c3.6,.7,6.1,1.5,8.3,2.3c4.1,1.6,5.9,4.4,5.9,5.2c.4,2.5,-2.2,7.6,-6.3,12.9Zm2.8,-18.3c-3.3,-2.6,-6.8,-4.3,-9.6,-5.8c-5.5,-2.8,-11.4,-4.8,-14.9,-4.7c-3.8,-.1,-5.2,1.9,-9.1,1.8c-2.2,0,-5,-1.8,-10,-1.8c-2.9,0,-8.1,1.7,-13.1,3.9c-5.8,2.6,-13.3,7.2,-14.9,10.2c-.7,3.5,.9,6.8,3.3,11.9c2.4,5.1,4.8,14.7,10.9,21.5c7.4,8.3,16.2,9,23.5,9c8.5,0,18,-1,24.1,-7.2c6,-6.2,9.3,-19.6,12,-25.8c1.1,-2.5,2,-5.3,2,-7.5c0,-1.7,-1.3,-3.2,-4.2,-5.5Z" class="gk_24"/>
</g>
<g clip-path="url(#c7_24)">
<path d="M753.9,804.8c-1,-2,-2.4,-5,-2.4,-5.1c-1.7,-3.8,-2.2,-4.6,-5.5,-9.8c-2.7,-4.5,-6.9,-8.2,-10.1,-10.9c-4.1,-3.5,-6.2,-5.4,-10.8,-5.2c-2.9,0,-3.6,1.6,-7.2,1.6c-3,0,-3.8,-1.6,-7.7,-1.6c-4.1,0,-9.4,4.3,-12.7,7.4c-2.4,2.2,-8,8.3,-11.2,14.3c-3,5.3,-5.1,8.5,-5.1,10c0,1.1,5,6.2,5,6.5c.5,2,3.3,5.3,5.6,7.6c10.1,9.9,14.9,11.5,24.8,11.5c6.5,0,11,-.2,15.1,-1.8c3.3,-1.2,6.3,-2.6,10,-6c3,-2.7,5.9,-6.6,7.8,-10.5c0,-.1,.1,-.1,.1,-.2c1.5,-3.3,4.9,-6.5,4.3,-7.8Z" class="gi_24"/>
<path d="M753.9,804.8c-1,-2,-2.4,-5,-2.4,-5.1c-1.7,-3.8,-2.2,-4.6,-5.5,-9.8c-2.7,-4.5,-6.9,-8.2,-10.1,-10.9c-4.1,-3.5,-6.2,-5.4,-10.8,-5.2c-2.9,0,-3.6,1.6,-7.2,1.6c-3,0,-3.8,-1.6,-7.7,-1.6c-4.1,0,-9.4,4.3,-12.7,7.4c-2.4,2.2,-8,8.3,-11.2,14.3c-3,5.3,-5.1,8.5,-5.1,10c0,1.1,5,6.2,5,6.5c.5,2,3.3,5.3,5.6,7.6c10.1,9.9,14.9,11.5,24.8,11.5c6.5,0,11,-.2,15.1,-1.8c3.3,-1.2,6.3,-2.6,10,-6c3,-2.7,5.9,-6.6,7.8,-10.5c0,-.1,.1,-.1,.1,-.2c1.5,-3.3,4.9,-6.5,4.3,-7.8Z" class="gl_24"/>
</g>
<path d="M705.8,814.2c-3.6,5.6,-3.6,7.9,-3.8,9.5m30.9,-11c3.9,5.3,4.2,7.6,4.5,9.2M733.8,810c5.1,4.1,5.9,6.3,6.6,7.8m-25.9,-3.3c-.3,1.4,-1,9,-.8,13m11.7,-35.8c1,-.8,2.3,-1.7,3.2,-2.4c.9,-.7,4.2,-4.3,4.8,-7.1m-3.2,14.6c2.5,.5,5,-1.2,7.2,-1.7c2.3,-.4,5.1,-2.2,5.8,-3.4m-46.1,-4.9c.1,.5,1.7,3.9,3.7,5.2c1.6,.9,4.8,3.2,6.2,3.5m-15,-2.8c.3,1.1,4.5,3.8,5.9,4.1c1.3,.3,4.6,1.1,6.5,.8" class="gm_24"/>
<path d="M730.1,798.1c1.3,1.2,2.8,2.9,3.7,3.3c6.1,2.6,7.5,2.5,3.9,2.7c-2,.1,-3,.7,-4.8,1.4c-1.9,.8,-4,1.8,-4.9,2.1c-4.9,1.8,-8.2,2.3,-10.8,2.1c-5.1,-.2,-11,-3.3,-12.2,-3.7c-1.4,-.4,-3.2,-1.2,-4.6,-1.5c-2.2,-.6,-3.8,-.8,-3.8,-.8c3.3,-.7,5,-2.7,9.2,-6.2c5.2,-4.4,7.4,-3.7,11.8,-3.7c3.5,0,5.9,0,9.3,1.7c0,0,1.5,1.1,3.2,2.6Z" class="gg_24"/>
<path d="M682.6,805.1c2.6,-.4,8.4,-.4,13.2,-1.1c3.9,-.6,5.8,-3,10,-6.5c5.2,-4.4,7.4,-3.7,11.8,-3.7c3.5,0,5.9,0,9.3,1.7c0,0,1,.7,2.4,1.9c1.5,1.3,3.5,3.3,4.5,4c7,4.5,19.9,2.8,19.7,4.2M740.9,804c-3,-.3,-5.9,.3,-8,1.5c-1.8,1,-3.7,1.8,-4.6,2.2c-5.1,2.1,-8.4,1.8,-11,1.7c-5.6,-.2,-11.1,-3,-12.3,-3.4c-3.3,-1.1,-5.2,-2.9,-12,-1.5l-5.7,.2" class="gn_24"/>
<path d="M739.6,803.7c6.6,1.6,14,.9,13.9,1.9m-70.9,-.5c2.6,-.4,8.9,-.4,13.6,-1.1" class="go_24"/>
<path d="M357,872.5c-5.5,-1.2,-10.6,-3.1,-13.8,-3c-3.5,-.1,-4.8,1.5,-8.4,1.4c-2,0,-4.7,-1.4,-9.2,-1.4c-2.8,0,-7.2,.9,-11.9,2.7c-5.3,2,-11.7,1.6,-13.2,2.7c0,.6,.3,1.9,4.2,5.1c1.6,1.3,2.6,1.4,8.3,6.8c6.8,6.5,15.2,7.2,21.9,7.2c7.9,0,15.3,-.4,20.9,-5.3c3.5,-3,5.6,-4.8,10.8,-9.4c2,-1.8,2,-3,2.2,-4c.3,-1.4,-6.3,-1.6,-11.8,-2.8Z" class="gg_24"/>
<path d="M306,879.4c.1,-.6,.5,-1,1.1,-1.1c1.7,-.6,2.2,-.2,2.5,.3c.3,.4,.3,.5,.6,.9c.3,.4,.4,.7,-1.1,3.2c-.3,.6,-3.1,-1,-3.6,-1.9c-.2,-.4,.3,.4,.5,-1.4Z" class="g7_24"/>
<path d="M306,879.4c.1,-.6,.5,-1,1.1,-1.1c1.7,-.6,2.2,-.2,2.5,.3c.3,.4,.3,.5,.6,.9c.3,.4,.4,.7,-1.1,3.2c-.3,.6,-3.1,-1,-3.6,-1.9c-.2,-.4,.3,.4,.5,-1.4Z" class="gp_24"/>
<path d="M312.4,879.5c-.3,-.9,-2.3,-.5,-2.8,-.3c-.5,.1,-1.3,1.7,-1.1,3.1c.3,1.5,2.4,2.2,3.3,2.7c.9,.5,1.1,-2.8,1.2,-3.7c.1,-.8,.3,-1.3,-.6,-1.8Z" class="g7_24"/>
<path d="M312.4,879.5c-.3,-.9,-2.3,-.5,-2.8,-.3c-.5,.1,-1.3,1.7,-1.1,3.1c.3,1.5,2.4,2.2,3.3,2.7c.9,.5,1.1,-2.8,1.2,-3.7c.1,-.8,.3,-1.3,-.6,-1.8Z" class="gp_24"/>
<path d="M364.6,879c-.1,-.6,-.6,-1,-1.1,-1.1c-1.7,-.6,-2.2,-.1,-2.5,.3c-.3,.4,-.3,.5,-.6,.9c-.4,.4,1.2,7.8,1.6,4.9c.2,-1,2.8,-3.2,2.6,-5Z" class="g7_24"/>
<path d="M364.6,879c-.1,-.6,-.6,-1,-1.1,-1.1c-1.7,-.6,-2.2,-.1,-2.5,.3c-.3,.4,-.3,.5,-.6,.9c-.4,.4,1.2,7.8,1.6,4.9c.2,-1,2.8,-3.2,2.6,-5Z" class="gp_24"/>
<path d="M361.4,880.1c-.1,-.7,-.7,-1.7,-1.3,-1.8c-1.7,-.6,-2,.5,-2.3,.9c-.3,.4,-.6,.8,-1,1.2c-.3,.4,.2,2.7,1.7,5.1c.4,.6,2.6,-1.5,3.1,-2.3c.3,-.5,0,-1.4,-.2,-3.1Z" class="g7_24"/>
<path d="M361.4,880.1c-.1,-.7,-.7,-1.7,-1.3,-1.8c-1.7,-.6,-2,.5,-2.3,.9c-.3,.4,-.6,.8,-1,1.2c-.3,.4,.2,2.7,1.7,5.1c.4,.6,2.6,-1.5,3.1,-2.3c.3,-.5,0,-1.4,-.2,-3.1Z" class="gp_24"/>
<path d="M317.7,882.3c-.3,-1,-.2,-1.6,-1.1,-2.2c-.7,-.5,-3,.3,-3.5,.4c-.5,.2,-1,2.5,-1.3,4c-.3,1.5,3.8,4,4.7,4.5c.9,.5,1.1,-2.8,1.2,-3.7c.1,-.8,1,-2.5,0,-3Z" class="g7_24"/>
<path d="M317.7,882.3c-.3,-1,-.2,-1.6,-1.1,-2.2c-.7,-.5,-3,.3,-3.5,.4c-.5,.2,-1,2.5,-1.3,4c-.3,1.5,3.8,4,4.7,4.5c.9,.5,1.1,-2.8,1.2,-3.7c.1,-.8,1,-2.5,0,-3Z" class="gp_24"/>
<path d="M322.5,886.2c-.3,-1.3,.6,-2.7,.2,-3.4c-.3,-.7,-3.6,-2,-5.1,-1.1c-.5,.3,-1.3,3,-1,4.5c.2,1.3,.5,.4,1.4,1c1.7,1,4.4,1,4.5,-1Z" class="g7_24"/>
<path d="M322.5,886.2c-.3,-1.3,.6,-2.7,.2,-3.4c-.3,-.7,-3.6,-2,-5.1,-1.1c-.5,.3,-1.3,3,-1,4.5c.2,1.3,.5,.4,1.4,1c1.7,1,4.4,1,4.5,-1Z" class="gp_24"/>
<path d="M357.1,881.6c-.1,-.6,-.7,-1.6,-1.2,-1.7c-1.7,-.6,-2.1,.4,-2.4,.9c-.2,.4,-.6,.7,-.9,1.2c-.4,.4,.1,2.6,1.6,5.1c.4,.6,3.2,-.7,3.7,-1.6c.3,-.4,0,-2.2,-.8,-3.9Z" class="g7_24"/>
<path d="M357.1,881.6c-.1,-.6,-.7,-1.6,-1.2,-1.7c-1.7,-.6,-2.1,.4,-2.4,.9c-.2,.4,-.6,.7,-.9,1.2c-.4,.4,.1,2.6,1.6,5.1c.4,.6,3.2,-.7,3.7,-1.6c.3,-.4,0,-2.2,-.8,-3.9Z" class="gp_24"/>
<path d="M351.8,881.3c-1.7,-.5,-2,.1,-2.2,.6c-.3,.4,-.8,1.1,-1.2,1.5c-.3,.5,-.5,2.4,1,4.9c.4,.6,4,-1,4.4,-1.8c.5,-.9,-.6,-4.9,-2,-5.2Z" class="g7_24"/>
<path d="M351.8,881.3c-1.7,-.5,-2,.1,-2.2,.6c-.3,.4,-.8,1.1,-1.2,1.5c-.3,.5,-.5,2.4,1,4.9c.4,.6,4,-1,4.4,-1.8c.5,-.9,-.6,-4.9,-2,-5.2Z" class="gp_24"/>
<path d="M342.2,886.7c1.3,0,6.9,1.3,7,0c.1,-1.6,-.4,-4.1,-1.4,-4.3c-1,-.2,-3.7,.5,-4.8,.7c-1.1,.2,-1,.9,-1,1.8c-.1,.8,.2,1.8,.2,1.8Z" class="g7_24"/>
<path d="M342.2,886.7c1.3,0,6.9,1.3,7,0c.1,-1.6,-.4,-4.1,-1.4,-4.3c-1,-.2,-3.7,.5,-4.8,.7c-1.1,.2,-1,.9,-1,1.8c-.1,.8,.2,1.8,.2,1.8Z" class="gp_24"/>
<path d="M321.9,886.6c.2,-1.6,.3,-4.2,1.6,-4.2c1.3,0,1.6,.2,2.4,.3c.8,.1,2.7,.3,2.5,1.6c-.2,1.2,-.3,2.8,-.3,2.8c0,0,-6.6,2.3,-6.2,-.5Z" class="g7_24"/>
<path d="M321.9,886.6c.2,-1.6,.3,-4.2,1.6,-4.2c1.3,0,1.6,.2,2.4,.3c.8,.1,2.7,.3,2.5,1.6c-.2,1.2,-.3,2.8,-.3,2.8c0,0,-6.6,2.3,-6.2,-.5Z" class="gp_24"/>
<path d="M328.1,886.8c-.1,-.3,-.1,-2.6,.3,-3.3c.2,-.4,.9,-.6,1.8,-.5c2.1,.4,3.8,0,4.5,.6c.3,.2,.4,3,.2,3.8c-.2,.5,-6.8,-.6,-6.8,-.6Z" class="g7_24"/>
<path d="M328.1,886.8c-.1,-.3,-.1,-2.6,.3,-3.3c.2,-.4,.9,-.6,1.8,-.5c2.1,.4,3.8,0,4.5,.6c.3,.2,.4,3,.2,3.8c-.2,.5,-6.8,-.6,-6.8,-.6Z" class="gp_24"/>
<path d="M335,884.1c0,-.5,.1,-.7,.7,-.9c.7,-.2,1.6,0,2.8,-.1c1.2,-.2,2.2,-.1,2.7,.1c.8,.2,1.1,.9,1.1,.9c0,.5,.3,3.2,.3,3.2c0,0,-7.2,.3,-7.5,.2c-.3,-.1,-.2,-2.6,-.1,-3.4Z" class="g7_24"/>
<path d="M335,884.1c0,-.5,.1,-.7,.7,-.9c.7,-.2,1.6,0,2.8,-.1c1.2,-.2,2.2,-.1,2.7,.1c.8,.2,1.1,.9,1.1,.9c0,.5,.3,3.2,.3,3.2c0,0,-7.2,.3,-7.5,.2c-.3,-.1,-.2,-2.6,-.1,-3.4Z" class="gp_24"/>
<path d="M358.3,876.3c.4,.9,.6,.8,1.8,1c1.2,.2,2.1,-.7,2.3,-1.5c.2,-.4,-2.8,-2.5,-4.3,-1.9c-1.5,.7,.2,2.4,.2,2.4Z" class="g7_24"/>
<path d="M358.3,876.3c.4,.9,.6,.8,1.8,1c1.2,.2,2.1,-.7,2.3,-1.5c.2,-.4,-2.8,-2.5,-4.3,-1.9c-1.5,.7,.2,2.4,.2,2.4Z" class="gp_24"/>
<path d="M307.4,876.8c.5,.3,1.3,1.2,2.5,1.4c1.2,.2,1.4,-.4,1.7,-.8c.3,-.3,1.2,-2,1.2,-2c0,0,-3,-.8,-4.5,-.2c-1.5,.7,-.9,1.6,-.9,1.6Z" class="g7_24"/>
<path d="M307.4,876.8c.5,.3,1.3,1.2,2.5,1.4c1.2,.2,1.4,-.4,1.7,-.8c.3,-.3,1.2,-2,1.2,-2c0,0,-3,-.8,-4.5,-.2c-1.5,.7,-.9,1.6,-.9,1.6Z" class="gp_24"/>
<path d="M309.9,874.4c.4,2.9,1.9,3.6,2.3,4.1c.4,.5,1.7,.6,3.6,-.6c2,-1.3,.5,-5.5,.5,-5.5Z" class="g7_24"/>
<path d="M309.9,874.4c.4,2.9,1.9,3.6,2.3,4.1c.4,.5,1.7,.6,3.6,-.6c2,-1.3,.5,-5.5,.5,-5.5l-6.4,2Z" class="gp_24"/>
<path d="M358.5,874.8c-.3,.7,.6,.8,-.1,2.3c-.5,1.2,-1.1,1.6,-1.8,1.7c-1.2,.1,-2.7,-.1,-3.4,-1.5c-.7,-1.4,.5,-4.2,.5,-4.2c0,0,4.7,.3,4.8,1.7Z" class="g7_24"/>
<path d="M358.5,874.8c-.3,.7,.6,.8,-.1,2.3c-.5,1.2,-1.1,1.6,-1.8,1.7c-1.2,.1,-2.7,-.1,-3.4,-1.5c-.7,-1.4,.5,-4.2,.5,-4.2c0,0,4.7,.3,4.8,1.7Z" class="gp_24"/>
<path d="M345.5,879.9c.2,.6,.5,1,.8,1.2c.2,.1,1.5,.2,3.3,-.2c1.2,-.3,2.6,-.9,3.3,-1.4c.5,-.4,.6,-.9,.6,-1.4c.1,-.6,.4,-3.5,-.2,-5.4c-.7,-1.9,-8.2,-.7,-8.5,.4c-.3,1.2,.7,6.8,.7,6.8Z" class="g7_24"/>
<path d="M345.5,879.9c.2,.6,.5,1,.8,1.2c.2,.1,1.5,.2,3.3,-.2c1.2,-.3,2.6,-.9,3.3,-1.4c.5,-.4,.6,-.9,.6,-1.4c.1,-.6,.4,-3.5,-.2,-5.4c-.7,-1.9,-8.2,-.7,-8.5,.4c-.3,1.2,.7,6.8,.7,6.8Z" class="gp_24"/>
<path d="M323.5,879.8c-.2,.6,-.5,.9,-.7,1.1c-.2,.1,-1.9,.7,-3.5,.3c-1.2,-.2,-2.6,-.4,-3.3,-1c-.5,-.3,-.5,-.8,-.6,-1.4c-.1,-.5,-.5,-4.2,.1,-6.1c.7,-1.9,8.3,-.6,8.6,.5c.2,1.1,-.6,6.6,-.6,6.6Z" class="g7_24"/>
<path d="M323.5,879.8c-.2,.6,-.5,.9,-.7,1.1c-.2,.1,-1.9,.7,-3.5,.3c-1.2,-.2,-2.6,-.4,-3.3,-1c-.5,-.3,-.5,-.8,-.6,-1.4c-.1,-.5,-.5,-4.2,.1,-6.1c.7,-1.9,8.3,-.6,8.6,.5c.2,1.1,-.6,6.6,-.6,6.6Z" class="gp_24"/>
<path d="M334.4,875.1c.2,.4,.2,1,.3,1.6c.1,1.5,.1,4.9,.1,4.9c0,0,-.2,.6,-.5,.8c-2.2,.9,-9.1,.9,-10.2,-.7c-1,-1.7,-.7,-5.7,-.4,-6.9l.3,-2.3c.5,-.6,9.8,1,10.4,2.6Z" class="g7_24"/>
<path d="M334.4,875.1c.2,.4,.2,1,.3,1.6c.1,1.5,.1,4.9,.1,4.9c0,0,-.2,.6,-.5,.8c-2.2,.9,-9.1,.9,-10.2,-.7c-1,-1.7,-.7,-5.7,-.4,-6.9l.3,-2.3c.5,-.6,9.8,1,10.4,2.6Z" class="gp_24"/>
<path d="M344.8,873.3c.5,.7,.8,3.9,.8,4.8c0,1,-.1,2.5,-.7,3.5c-1.2,.6,-3.5,1,-5.1,1.2c-2.1,.3,-3.7,-.2,-4,-.4c-.5,-.2,-1,-.5,-1,-1.2c0,-1,-.1,-3.3,0,-4.7c0,-.8,.1,-1.6,.2,-1.8c.2,-.8,8.9,-2.9,9.8,-1.4Z" class="g7_24"/>
<path d="M344.8,873.3c.5,.7,.8,3.9,.8,4.8c0,1,-.1,2.5,-.7,3.5c-1.2,.6,-3.5,1,-5.1,1.2c-2.1,.3,-3.7,-.2,-4,-.4c-.5,-.2,-1,-.5,-1,-1.2c0,-1,-.1,-3.3,0,-4.7c0,-.8,.1,-1.6,.2,-1.8c.2,-.8,8.9,-2.9,9.8,-1.4Z" class="gp_24"/>
<g clip-path="url(#c8_24)">
<path d="M362.6,879.4c-1.4,1,-4.3,3.2,-9.4,4.2c-5.9,1.1,-11,1,-17.5,1c-8.1,0,-15.7,.4,-22.1,-2c-4.6,-1.7,-6,-3.2,-9.5,-4.8c-1.9,-.9,-2.8,-1.6,-2.2,-2.4c.5,-.8,7.5,.8,10.9,.6c3.5,-.2,5.7,-.4,8.1,-.4c4.8,.1,9.3,1.3,13.8,1.3c4.9,.1,8.4,-1.2,13.1,-1.3c2.7,-.1,4.5,-.2,8.4,.1c3.4,.2,6.5,-.6,8.6,-.5c1.7,.1,2.8,-.1,3.4,.8c0,1.5,-2.3,1.2,-5.6,3.4m-5.2,-7.3c-4.9,-1.3,-9.7,-3.4,-14.2,-3.2c-3.5,-.1,-4,1.3,-8.3,1.3c-3.1,0,-3.8,-1.2,-8.3,-1.2c-2.8,0,-7.1,.3,-13,2.2c-5.5,1.8,-12.9,2.3,-13.1,4.2c-.3,1.3,.2,2.2,4.2,5.6c1.6,1.5,4.3,3.6,8.3,7.3c7.2,6.8,15.2,6.9,21.9,6.9c7.9,0,16.1,0,21.7,-5.4c5.5,-5.3,6.7,-6.8,9.8,-9.8c2,-1.9,3,-2.9,2.8,-4.1c-.3,-2.5,-6.4,-2.3,-11.8,-3.8Z" class="gi_24"/>
<path d="M362.6,879.4c-1.4,1,-4.3,3.2,-9.4,4.2c-5.9,1.1,-11,1,-17.5,1c-8.1,0,-15.7,.4,-22.1,-2c-4.6,-1.7,-6,-3.2,-9.5,-4.8c-1.9,-.9,-2.8,-1.6,-2.2,-2.4c.5,-.8,7.5,.8,10.9,.6c3.5,-.2,5.7,-.4,8.1,-.4c4.8,.1,9.3,1.3,13.8,1.3c4.9,.1,8.4,-1.2,13.1,-1.3c2.7,-.1,4.5,-.2,8.4,.1c3.4,.2,6.5,-.6,8.6,-.5c1.7,.1,2.8,-.1,3.4,.8c0,1.5,-2.3,1.2,-5.6,3.4Zm-5.2,-7.3c-4.9,-1.3,-9.7,-3.4,-14.2,-3.2c-3.5,-.1,-4,1.3,-8.3,1.3c-3.1,0,-3.8,-1.2,-8.3,-1.2c-2.8,0,-7.1,.3,-13,2.2c-5.5,1.8,-12.9,2.3,-13.1,4.2c-.3,1.3,.2,2.2,4.2,5.6c1.6,1.5,4.3,3.6,8.3,7.3c7.2,6.8,15.2,6.9,21.9,6.9c7.9,0,16.1,0,21.7,-5.4c5.5,-5.3,6.7,-6.8,9.8,-9.8c2,-1.9,3,-2.9,2.8,-4.1c-.3,-2.5,-6.4,-2.3,-11.8,-3.8Z" class="gp_24"/>
</g>
<path clip-path="url(#c9_24)" d="M443.1,870.1c-2.3,-1.7,-4.7,-2.9,-6.7,-3.8c-3.8,-2,-7.3,-3.2,-9.7,-3.1c-2.7,-.1,-4.2,1.2,-6.9,1.1c-1.5,0,-4,-1.2,-7.4,-1.2c-2,0,-5.1,1.1,-8.6,2.6c-4,1.8,-9.4,4.5,-10.6,6.6c-.4,2.3,.9,4.8,2.5,8.3c1.7,3.4,3.4,9.8,7.6,14.4c5.1,5.5,11.2,6.1,16.3,6.1c5.9,0,12.5,-.7,16.7,-4.9c4.1,-4.2,6.6,-14.1,8.3,-17.3c.9,-1.7,1.4,-3.6,1.4,-5c0,-1.2,-.9,-2.2,-2.9,-3.8Z" class="gg_24"/>
<path d="M398.7,867.3c0,0,.8,1.7,1.4,2.2c.4,.3,1.5,-.1,1.7,-.4c.2,-.2,-.5,-3.1,-.5,-3.1Z" class="g7_24"/>
<path d="M437.7,868.9c.4,.2,.9,.7,1.8,.9c.9,.1,1.2,-.5,1.4,-.8c.2,-.3,-2.3,-3.2,-3.5,-2.7c-1.1,.5,.3,2.6,.3,2.6Z" class="g7_24"/>
<path d="M437.7,868.9c.4,.2,.9,.7,1.8,.9c.9,.1,1.2,-.5,1.4,-.8c.2,-.3,-2.3,-3.2,-3.5,-2.7c-1.1,.5,.3,2.6,.3,2.6Z" class="gm_24"/>
<path d="M398.9,869.1c.3,.2,.9,.9,1.9,1.1c.9,.1,1,-.3,1.2,-.6c.2,-.3,.9,-1.5,.9,-1.5c0,0,-2.2,-.6,-3.4,-.1c-1.1,.4,-.6,1.1,-.6,1.1Z" class="g7_24"/>
<path d="M398.9,869.1c.3,.2,.9,.9,1.9,1.1c.9,.1,1,-.3,1.2,-.6c.2,-.3,.9,-1.5,.9,-1.5c0,0,-2.2,-.6,-3.4,-.1c-1.1,.4,-.6,1.1,-.6,1.1Z" class="gm_24"/>
<path d="M400.8,866.4c.3,2.7,1.4,3.6,1.7,4c.3,.4,1.3,.5,2.7,-.5c1.5,-.9,.4,-5,.4,-5Z" class="g7_24"/>
<path d="M400.8,866.4c.3,2.7,1.4,3.6,1.7,4c.3,.4,1.3,.5,2.7,-.5c1.5,-.9,.4,-5,.4,-5l-4.8,1.5Z" class="gm_24"/>
<path d="M438.1,867.7c-.2,.5,-.1,.7,-.7,1.8c-.4,1,-.8,1.2,-1.3,1.3c-.9,.1,-2.1,-.1,-2.6,-1.1c-.5,-1.1,.3,-5.1,.3,-5.1c0,0,4.2,2.1,4.3,3.1Z" class="g7_24"/>
<path d="M438.1,867.7c-.2,.5,-.1,.7,-.7,1.8c-.4,1,-.8,1.2,-1.3,1.3c-.9,.1,-2.1,-.1,-2.6,-1.1c-.5,-1.1,.3,-5.1,.3,-5.1c0,0,4.2,2.1,4.3,3.1Z" class="gm_24"/>
<path d="M427.7,870.9c.1,.5,.4,.8,.6,1c.1,0,1.1,.1,2.5,-.2c.9,-.2,1.9,-.6,2.5,-1.1c.3,-.2,.4,-.6,.5,-1c0,-.5,.3,-2.7,-.3,-4.1c-.5,-1.5,-6.1,-.5,-6.3,.3c-.2,.9,.5,5.1,.5,5.1Z" class="g7_24"/>
<path d="M427.7,870.9c.1,.5,.4,.8,.6,1c.1,0,1.1,.1,2.5,-.2c.9,-.2,1.9,-.6,2.5,-1.1c.3,-.2,.4,-.6,.5,-1c0,-.5,.3,-2.7,-.3,-4.1c-.5,-1.5,-6.1,-.5,-6.3,.3c-.2,.9,.5,5.1,.5,5.1Z" class="gm_24"/>
<path d="M411,870.9c-.1,.4,-.3,.6,-.5,.8c-.1,.1,-1.4,.6,-2.7,.3c-.8,-.2,-1.9,-.4,-2.5,-.8c-.3,-.3,-.3,-.6,-.4,-1c0,-.5,-.4,-3.2,.1,-4.7c.5,-1.4,6.3,-.5,6.5,.4c.2,.9,-.5,5,-.5,5Z" class="g7_24"/>
<path d="M411,870.9c-.1,.4,-.3,.6,-.5,.8c-.1,.1,-1.4,.6,-2.7,.3c-.8,-.2,-1.9,-.4,-2.5,-.8c-.3,-.3,-.3,-.6,-.4,-1c0,-.5,-.4,-3.2,.1,-4.7c.5,-1.4,6.3,-.5,6.5,.4c.2,.9,-.5,5,-.5,5Z" class="gm_24"/>
<path d="M419.3,867.3c.1,.3,.2,.8,.2,1.2c.1,1.2,.1,3.8,.1,3.8c0,0,-.2,.4,-.4,.5c-1.7,.7,-6.9,.7,-7.7,-.5c-.7,-1.3,-.5,-4.3,-.3,-5.2l.2,-1.7c.4,-.5,7.4,.7,7.9,1.9Z" class="g7_24"/>
<path d="M419.3,867.3c.1,.3,.2,.8,.2,1.2c.1,1.2,.1,3.8,.1,3.8c0,0,-.2,.4,-.4,.5c-1.7,.7,-6.9,.7,-7.7,-.5c-.7,-1.3,-.5,-4.3,-.3,-5.2l.2,-1.7c.4,-.5,7.4,.7,7.9,1.9Z" class="gm_24"/>
<path d="M427.2,866c.3,.5,.5,2.9,.5,3.6c0,.7,-.1,1.7,-.5,2.4c-.9,.5,-2.3,.7,-3.5,.9c-1.6,.2,-3.1,.1,-3.4,0c-.4,-.2,-.7,-.4,-.7,-1c0,-.7,-.1,-2.4,0,-3.5c0,-.7,.1,-1.2,.1,-1.4c.2,-.6,6.8,-2.2,7.5,-1Z" class="g7_24"/>
<path d="M427.2,866c.3,.5,.5,2.9,.5,3.6c0,.7,-.1,1.7,-.5,2.4c-.9,.5,-2.3,.7,-3.5,.9c-1.6,.2,-3.1,.1,-3.4,0c-.4,-.2,-.7,-.4,-.7,-1c0,-.7,-.1,-2.4,0,-3.5c0,-.7,.1,-1.2,.1,-1.4c.2,-.6,6.8,-2.2,7.5,-1Z" class="gm_24"/>
<path d="M406.4,890.3c-.2,-.7,-.1,-1.3,-.7,-1.8c-.6,-.4,-1.9,.2,-2.3,.3c-.4,0,-1.3,1.6,-1.6,2.7c-.2,1.2,3,3.5,3.7,3.9c.7,.4,.8,-2.1,.9,-2.7c.1,-.7,.7,-2,0,-2.4Z" class="g7_24"/>
<path d="M406.4,890.3c-.2,-.7,-.1,-1.3,-.7,-1.8c-.6,-.4,-1.9,.2,-2.3,.3c-.4,0,-1.3,1.6,-1.6,2.7c-.2,1.2,3,3.5,3.7,3.9c.7,.4,.8,-2.1,.9,-2.7c.1,-.7,.7,-2,0,-2.4Z" class="gm_24"/>
<path d="M409.9,891.9c-.2,-1.1,-.9,-1.3,-1.2,-1.9c-.2,-.5,-.8,-1,-1.9,-.3c-.4,.2,-1.4,2.1,-1.5,3c-.1,1,.6,1,1.3,1.4c1.3,.8,3.3,-.7,3.3,-2.2Z" class="g7_24"/>
<path d="M409.9,891.9c-.2,-1.1,-.9,-1.3,-1.2,-1.9c-.2,-.5,-.8,-1,-1.9,-.3c-.4,.2,-1.4,2.1,-1.5,3c-.1,1,.6,1,1.3,1.4c1.3,.8,3.3,-.7,3.3,-2.2Z" class="gm_24"/>
<path d="M436.9,889.4c-.5,-.4,-1,-.8,-1.4,-.9c-1.3,-.4,-1.8,.4,-2,.7c-.2,.3,-.6,1.1,-.9,1.4c-.2,.3,-.3,1.6,.8,3.5c.3,.4,4.1,-3.1,4.5,-3.7c.2,-.4,-.5,-.5,-1,-1Z" class="g7_24"/>
<path d="M436.9,889.4c-.5,-.4,-1,-.8,-1.4,-.9c-1.3,-.4,-1.8,.4,-2,.7c-.2,.3,-.6,1.1,-.9,1.4c-.2,.3,-.3,1.6,.8,3.5c.3,.4,4.1,-3.1,4.5,-3.7c.2,-.4,-.5,-.5,-1,-1Z" class="gm_24"/>
<path d="M432.5,889.6c-1.3,-.4,-1.5,.1,-1.7,.4c-.3,.4,-.7,.9,-.9,1.2c-.3,.3,-.4,1.8,.8,3.7c.2,.4,2.8,-1.7,3.2,-2.4c.4,-.6,-.4,-2.7,-1.4,-2.9Z" class="g7_24"/>
<path d="M432.5,889.6c-1.3,-.4,-1.5,.1,-1.7,.4c-.3,.4,-.7,.9,-.9,1.2c-.3,.3,-.4,1.8,.8,3.7c.2,.4,2.8,-1.7,3.2,-2.4c.4,-.6,-.4,-2.7,-1.4,-2.9Z" class="gm_24"/>
<path d="M425.6,893.3c1,0,4.7,-.6,4.8,-1.6c.1,-1.2,-.7,-1.1,-1.4,-1.3c-.8,-.1,-2.3,.4,-3.2,.6c-.8,.2,-.7,.6,-.8,1.3c0,.7,.6,1,.6,1Z" class="g7_24"/>
<path d="M425.6,893.3c1,0,4.7,-.6,4.8,-1.6c.1,-1.2,-.7,-1.1,-1.4,-1.3c-.8,-.1,-2.3,.4,-3.2,.6c-.8,.2,-.7,.6,-.8,1.3c0,.7,.6,1,.6,1Z" class="gm_24"/>
<path d="M408.7,893c.4,-1.2,1.1,-2.6,2.1,-2.6c1,0,1.2,.2,1.8,.3c.6,.1,2,.2,1.9,1.2c-.2,.9,-.3,2.1,-.3,2.1c0,0,-6.1,1,-5.5,-1Z" class="g7_24"/>
<path d="M408.7,893c.4,-1.2,1.1,-2.6,2.1,-2.6c1,0,1.2,.2,1.8,.3c.6,.1,2,.2,1.9,1.2c-.2,.9,-.3,2.1,-.3,2.1c0,0,-6.1,1,-5.5,-1Z" class="gm_24"/>
<path d="M414.5,893.8c-.1,-.3,0,-2,.3,-2.5c.1,-.3,.6,-.5,1.3,-.4c1.6,.3,2.9,0,3.4,.4c.2,.2,.3,.8,.1,1.4c-.1,.4,-5.1,1.1,-5.1,1.1Z" class="g7_24"/>
<path d="M414.5,893.8c-.1,-.3,0,-2,.3,-2.5c.1,-.3,.6,-.5,1.3,-.4c1.6,.3,2.9,0,3.4,.4c.2,.2,.3,.8,.1,1.4c-.1,.4,-5.1,1.1,-5.1,1.1Z" class="gm_24"/>
<path d="M419.8,891.7c.1,-.3,0,-.5,.5,-.6c.5,-.2,1.2,0,2.1,-.1c.9,-.1,1.6,-.1,2,0c.7,.2,.7,.7,.7,.7v1.6c0,0,-5.2,0,-5.4,0c-.2,-.1,-.1,-1.1,.1,-1.6Z" class="g7_24"/>
<path d="M419.8,891.7c.1,-.3,0,-.5,.5,-.6c.5,-.2,1.2,0,2.1,-.1c.9,-.1,1.6,-.1,2,0c.7,.2,.7,.7,.7,.7v1.6c0,0,-5.2,0,-5.4,0c-.2,-.1,-.1,-1.1,.1,-1.6Z" class="gm_24"/>
<g clip-path="url(#c9_24)">
<path d="M441.3,882.5c-2.1,2.7,-4.1,5.7,-8,7.6c-3.9,1.9,-8.1,1.6,-13,1.6c-6.2,0,-12.5,.4,-16.9,-4.1c-3.5,-3.6,-6.3,-7.1,-7.6,-8.5c-1.3,-1.5,-3.7,-6.2,-1.5,-7.9c2.3,-1.6,5.3,-1.6,7.9,-2.1c2.6,-.4,5,-1.1,6.9,-1c1.8,0,5.2,1.3,10.2,1.3c3.7,.2,6.6,-1.1,10.2,-1.3c1.9,-.4,3.3,-.4,6.3,.1c2.5,.5,4.3,1,5.8,1.6c2.9,1.1,4.1,3.1,4.2,3.6c.2,1.8,-1.6,5.4,-4.5,9.1m2,-12.9c-2.3,-1.8,-4.7,-3,-6.7,-4c-3.9,-2,-8,-3.4,-10.4,-3.3c-2.7,-.1,-3.6,1.3,-6.4,1.2c-1.5,0,-3.5,-1.2,-7,-1.2c-2,0,-5.7,1.2,-9.2,2.7c-4,1.9,-9.3,5,-10.4,7.2c-.5,2.4,.6,4.7,2.3,8.3c1.7,3.5,3.4,10.3,7.7,15c5.1,5.8,11.3,6.4,16.4,6.4c5.9,0,12.6,-.7,16.8,-5.1c4.2,-4.3,6.5,-13.7,8.5,-18c.8,-1.8,1.3,-3.8,1.3,-5.3c0,-1.2,-.9,-2.3,-2.9,-3.9Z" class="gi_24"/>
<path d="M441.3,882.5c-2.1,2.7,-4.1,5.7,-8,7.6c-3.9,1.9,-8.1,1.6,-13,1.6c-6.2,0,-12.5,.4,-16.9,-4.1c-3.5,-3.6,-6.3,-7.1,-7.6,-8.5c-1.3,-1.5,-3.7,-6.2,-1.5,-7.9c2.3,-1.6,5.3,-1.6,7.9,-2.1c2.6,-.4,5,-1.1,6.9,-1c1.8,0,5.2,1.3,10.2,1.3c3.7,.2,6.6,-1.1,10.2,-1.3c1.9,-.4,3.3,-.4,6.3,.1c2.5,.5,4.3,1,5.8,1.6c2.9,1.1,4.1,3.1,4.2,3.6c.2,1.8,-1.6,5.4,-4.5,9.1Zm2,-12.9c-2.3,-1.8,-4.7,-3,-6.7,-4c-3.9,-2,-8,-3.4,-10.4,-3.3c-2.7,-.1,-3.6,1.3,-6.4,1.2c-1.5,0,-3.5,-1.2,-7,-1.2c-2,0,-5.7,1.2,-9.2,2.7c-4,1.9,-9.3,5,-10.4,7.2c-.5,2.4,.6,4.7,2.3,8.3c1.7,3.5,3.4,10.3,7.7,15c5.1,5.8,11.3,6.4,16.4,6.4c5.9,0,12.6,-.7,16.8,-5.1c4.2,-4.3,6.5,-13.7,8.5,-18c.8,-1.8,1.3,-3.8,1.3,-5.3c0,-1.2,-.9,-2.3,-2.9,-3.9Z" class="gm_24"/>
</g>
<path d="M701.3,872.5c-5.6,-1.2,-10.6,-3.1,-13.8,-3c-3.5,-.1,-4.8,1.5,-8.4,1.4c-2,0,-4.7,-1.4,-9.2,-1.4c-2.8,0,-7.2,.9,-11.9,2.7c-5.3,2,-11.7,1.6,-13.2,2.7c0,.6,.3,1.9,4.2,5.1c1.6,1.3,2.6,1.4,8.2,6.8c6.9,6.5,15.3,7.2,22,7.2c7.9,0,15.3,-.4,20.9,-5.3c3.5,-3,5.6,-4.8,10.8,-9.4c2,-1.8,2,-3,2.2,-4c.3,-1.4,-6.3,-1.6,-11.8,-2.8Z" class="gg_24"/>
<path d="M650.3,879.4c.1,-.6,.5,-1,1.1,-1.1c1.7,-.6,2.2,-.2,2.5,.3c.3,.4,.3,.5,.6,.9c.3,.4,.4,.7,-1.1,3.2c-.3,.6,-3.1,-1,-3.6,-1.9c-.2,-.4,.2,.4,.5,-1.4Z" class="g7_24"/>
<path d="M650.3,879.4c.1,-.6,.5,-1,1.1,-1.1c1.7,-.6,2.2,-.2,2.5,.3c.3,.4,.3,.5,.6,.9c.3,.4,.4,.7,-1.1,3.2c-.3,.6,-3.1,-1,-3.6,-1.9c-.2,-.4,.2,.4,.5,-1.4Z" class="gp_24"/>
<path d="M656.7,879.5c-.3,-.9,-2.3,-.5,-2.8,-.3c-.5,.1,-1.3,1.7,-1.1,3.1c.3,1.5,2.4,2.2,3.3,2.7c.9,.5,1.1,-2.8,1.2,-3.7c.1,-.8,.3,-1.3,-.6,-1.8Z" class="g7_24"/>
<path d="M656.7,879.5c-.3,-.9,-2.3,-.5,-2.8,-.3c-.5,.1,-1.3,1.7,-1.1,3.1c.3,1.5,2.4,2.2,3.3,2.7c.9,.5,1.1,-2.8,1.2,-3.7c.1,-.8,.3,-1.3,-.6,-1.8Z" class="gp_24"/>
<path d="M708.8,879c0,-.6,-.5,-1,-1,-1.1c-1.7,-.6,-2.3,-.1,-2.5,.3c-.3,.4,-.3,.5,-.6,.9c-.4,.4,1.2,7.8,1.6,4.9c.2,-1,2.8,-3.2,2.5,-5Z" class="g7_24"/>
<path d="M708.8,879c0,-.6,-.5,-1,-1,-1.1c-1.7,-.6,-2.3,-.1,-2.5,.3c-.3,.4,-.3,.5,-.6,.9c-.4,.4,1.2,7.8,1.6,4.9c.2,-1,2.8,-3.2,2.5,-5Z" class="gp_24"/>
<path d="M705.7,880.1c-.1,-.7,-.7,-1.7,-1.3,-1.8c-1.7,-.6,-2,.5,-2.3,.9c-.3,.4,-.6,.8,-1,1.2c-.3,.4,.2,2.7,1.7,5.1c.3,.6,2.6,-1.5,3.1,-2.3c.3,-.5,0,-1.4,-.2,-3.1Z" class="g7_24"/>
<path d="M705.7,880.1c-.1,-.7,-.7,-1.7,-1.3,-1.8c-1.7,-.6,-2,.5,-2.3,.9c-.3,.4,-.6,.8,-1,1.2c-.3,.4,.2,2.7,1.7,5.1c.3,.6,2.6,-1.5,3.1,-2.3c.3,-.5,0,-1.4,-.2,-3.1Z" class="gp_24"/>
<path d="M662,882.3c-.3,-1,-.2,-1.6,-1.1,-2.2c-.7,-.5,-3,.3,-3.5,.4c-.5,.2,-1,2.5,-1.3,4c-.3,1.5,3.8,4,4.7,4.5c.9,.5,1.1,-2.8,1.2,-3.7c.1,-.8,.9,-2.5,0,-3Z" class="g7_24"/>
<path d="M662,882.3c-.3,-1,-.2,-1.6,-1.1,-2.2c-.7,-.5,-3,.3,-3.5,.4c-.5,.2,-1,2.5,-1.3,4c-.3,1.5,3.8,4,4.7,4.5c.9,.5,1.1,-2.8,1.2,-3.7c.1,-.8,.9,-2.5,0,-3Z" class="gp_24"/>
<path d="M666.8,886.2c-.3,-1.3,.6,-2.7,.2,-3.4c-.3,-.7,-3.6,-2,-5.1,-1.1c-.5,.3,-1.3,3,-1,4.5c.1,1.3,.5,.4,1.4,1c1.7,1,4.4,1,4.5,-1Z" class="g7_24"/>
<path d="M666.8,886.2c-.3,-1.3,.6,-2.7,.2,-3.4c-.3,-.7,-3.6,-2,-5.1,-1.1c-.5,.3,-1.3,3,-1,4.5c.1,1.3,.5,.4,1.4,1c1.7,1,4.4,1,4.5,-1Z" class="gp_24"/>
<path d="M701.4,881.6c-.1,-.6,-.7,-1.6,-1.3,-1.7c-1.6,-.6,-2,.4,-2.3,.9c-.3,.4,-.6,.7,-.9,1.2c-.4,.4,.1,2.6,1.6,5.1c.4,.6,3.2,-.7,3.7,-1.6c.3,-.4,0,-2.2,-.8,-3.9Z" class="g7_24"/>
<path d="M701.4,881.6c-.1,-.6,-.7,-1.6,-1.3,-1.7c-1.6,-.6,-2,.4,-2.3,.9c-.3,.4,-.6,.7,-.9,1.2c-.4,.4,.1,2.6,1.6,5.1c.4,.6,3.2,-.7,3.7,-1.6c.3,-.4,0,-2.2,-.8,-3.9Z" class="gp_24"/>
<path d="M696.1,881.3c-1.7,-.5,-2,.1,-2.2,.6c-.3,.4,-.8,1.1,-1.2,1.5c-.3,.5,-.5,2.4,1,4.9c.4,.6,4,-1,4.4,-1.8c.5,-.9,-.6,-4.9,-2,-5.2Z" class="g7_24"/>
<path d="M696.1,881.3c-1.7,-.5,-2,.1,-2.2,.6c-.3,.4,-.8,1.1,-1.2,1.5c-.3,.5,-.5,2.4,1,4.9c.4,.6,4,-1,4.4,-1.8c.5,-.9,-.6,-4.9,-2,-5.2Z" class="gp_24"/>
<path d="M686.5,886.7c1.3,0,6.9,1.3,7,0c.1,-1.6,-.4,-4.1,-1.4,-4.3c-1,-.2,-3.7,.5,-4.8,.7c-1.1,.2,-1,.9,-1,1.8c-.1,.8,.2,1.8,.2,1.8Z" class="g7_24"/>
<path d="M686.5,886.7c1.3,0,6.9,1.3,7,0c.1,-1.6,-.4,-4.1,-1.4,-4.3c-1,-.2,-3.7,.5,-4.8,.7c-1.1,.2,-1,.9,-1,1.8c-.1,.8,.2,1.8,.2,1.8Z" class="gp_24"/>
<path d="M666.2,886.6c.2,-1.6,.3,-4.2,1.6,-4.2c1.3,0,1.6,.2,2.4,.3c.8,.1,2.7,.3,2.5,1.6c-.2,1.2,-.3,2.8,-.3,2.8c0,0,-6.6,2.3,-6.2,-.5Z" class="g7_24"/>
<path d="M666.2,886.6c.2,-1.6,.3,-4.2,1.6,-4.2c1.3,0,1.6,.2,2.4,.3c.8,.1,2.7,.3,2.5,1.6c-.2,1.2,-.3,2.8,-.3,2.8c0,0,-6.6,2.3,-6.2,-.5Z" class="gp_24"/>
<path d="M672.4,886.8c-.1,-.3,-.1,-2.6,.3,-3.3c.2,-.4,.9,-.6,1.8,-.5c2.1,.4,3.8,0,4.5,.6c.3,.2,.4,3,.2,3.8c-.2,.5,-6.8,-.6,-6.8,-.6Z" class="g7_24"/>
<path d="M672.4,886.8c-.1,-.3,-.1,-2.6,.3,-3.3c.2,-.4,.9,-.6,1.8,-.5c2.1,.4,3.8,0,4.5,.6c.3,.2,.4,3,.2,3.8c-.2,.5,-6.8,-.6,-6.8,-.6Z" class="gp_24"/>
<path d="M679.3,884.1c0,-.5,.1,-.7,.7,-.9c.6,-.2,1.6,0,2.8,-.1c1.2,-.2,2.2,-.1,2.7,.1c.8,.2,1.1,.9,1.1,.9c0,.5,.3,3.2,.3,3.2c0,0,-7.2,.3,-7.5,.2c-.3,-.1,-.2,-2.6,-.1,-3.4Z" class="g7_24"/>
<path d="M679.3,884.1c0,-.5,.1,-.7,.7,-.9c.6,-.2,1.6,0,2.8,-.1c1.2,-.2,2.2,-.1,2.7,.1c.8,.2,1.1,.9,1.1,.9c0,.5,.3,3.2,.3,3.2c0,0,-7.2,.3,-7.5,.2c-.3,-.1,-.2,-2.6,-.1,-3.4Z" class="gp_24"/>
<path d="M702.6,876.3c.4,.9,.6,.8,1.8,1c1.2,.2,2.1,-.7,2.3,-1.5c.1,-.4,-2.8,-2.5,-4.3,-1.9c-1.5,.7,.2,2.4,.2,2.4Z" class="g7_24"/>
<path d="M702.6,876.3c.4,.9,.6,.8,1.8,1c1.2,.2,2.1,-.7,2.3,-1.5c.1,-.4,-2.8,-2.5,-4.3,-1.9c-1.5,.7,.2,2.4,.2,2.4Z" class="gp_24"/>
<path d="M651.7,876.8c.5,.3,1.3,1.2,2.5,1.4c1.2,.2,1.4,-.4,1.7,-.8c.3,-.3,1.2,-2,1.2,-2c0,0,-3,-.8,-4.5,-.2c-1.5,.7,-.9,1.6,-.9,1.6Z" class="g7_24"/>
<path d="M651.7,876.8c.5,.3,1.3,1.2,2.5,1.4c1.2,.2,1.4,-.4,1.7,-.8c.3,-.3,1.2,-2,1.2,-2c0,0,-3,-.8,-4.5,-.2c-1.5,.7,-.9,1.6,-.9,1.6Z" class="gp_24"/>
<path d="M654.2,874.4c.4,2.9,1.9,3.6,2.3,4.1c.4,.5,1.7,.6,3.6,-.6c2,-1.3,.5,-5.5,.5,-5.5Z" class="g7_24"/>
<path d="M654.2,874.4c.4,2.9,1.9,3.6,2.3,4.1c.4,.5,1.7,.6,3.6,-.6c2,-1.3,.5,-5.5,.5,-5.5l-6.4,2Z" class="gp_24"/>
<path d="M702.8,874.8c-.3,.7,.6,.8,-.1,2.3c-.6,1.2,-1.1,1.6,-1.8,1.7c-1.2,.1,-2.7,-.1,-3.4,-1.5c-.7,-1.4,.5,-4.2,.5,-4.2c0,0,4.7,.3,4.8,1.7Z" class="g7_24"/>
<path d="M702.8,874.8c-.3,.7,.6,.8,-.1,2.3c-.6,1.2,-1.1,1.6,-1.8,1.7c-1.2,.1,-2.7,-.1,-3.4,-1.5c-.7,-1.4,.5,-4.2,.5,-4.2c0,0,4.7,.3,4.8,1.7Z" class="gp_24"/>
<path d="M689.8,879.9c.2,.6,.5,1,.8,1.2c.2,.1,1.5,.2,3.3,-.2c1.2,-.3,2.6,-.9,3.3,-1.4c.5,-.4,.6,-.9,.6,-1.4c.1,-.6,.4,-3.5,-.3,-5.4c-.6,-1.9,-8.1,-.7,-8.4,.4c-.3,1.2,.7,6.8,.7,6.8Z" class="g7_24"/>
<path d="M689.8,879.9c.2,.6,.5,1,.8,1.2c.2,.1,1.5,.2,3.3,-.2c1.2,-.3,2.6,-.9,3.3,-1.4c.5,-.4,.6,-.9,.6,-1.4c.1,-.6,.4,-3.5,-.3,-5.4c-.6,-1.9,-8.1,-.7,-8.4,.4c-.3,1.2,.7,6.8,.7,6.8Z" class="gp_24"/>
<path d="M667.8,879.8c-.2,.6,-.5,.9,-.7,1.1c-.2,.1,-1.9,.7,-3.5,.3c-1.2,-.2,-2.7,-.4,-3.4,-1c-.4,-.3,-.5,-.8,-.5,-1.4c-.1,-.5,-.5,-4.2,.1,-6.1c.6,-1.9,8.3,-.6,8.6,.5c.2,1.1,-.6,6.6,-.6,6.6Z" class="g7_24"/>
<path d="M667.8,879.8c-.2,.6,-.5,.9,-.7,1.1c-.2,.1,-1.9,.7,-3.5,.3c-1.2,-.2,-2.7,-.4,-3.4,-1c-.4,-.3,-.5,-.8,-.5,-1.4c-.1,-.5,-.5,-4.2,.1,-6.1c.6,-1.9,8.3,-.6,8.6,.5c.2,1.1,-.6,6.6,-.6,6.6Z" class="gp_24"/>
<path d="M678.7,875.1c.1,.4,.2,1,.3,1.6c.1,1.5,.1,4.9,.1,4.9c0,0,-.2,.6,-.5,.8c-2.2,.9,-9.1,.9,-10.2,-.7c-1,-1.7,-.7,-5.7,-.4,-6.9l.3,-2.3c.5,-.6,9.8,1,10.4,2.6Z" class="g7_24"/>
<path d="M678.7,875.1c.1,.4,.2,1,.3,1.6c.1,1.5,.1,4.9,.1,4.9c0,0,-.2,.6,-.5,.8c-2.2,.9,-9.1,.9,-10.2,-.7c-1,-1.7,-.7,-5.7,-.4,-6.9l.3,-2.3c.5,-.6,9.8,1,10.4,2.6Z" class="gp_24"/>
<path d="M689.1,873.3c.5,.7,.7,3.9,.7,4.8c0,1,0,2.5,-.6,3.5c-1.2,.6,-3.5,1,-5.1,1.2c-2.1,.3,-3.7,-.2,-4,-.4c-.5,-.2,-1,-.5,-1,-1.2c0,-1,-.1,-3.3,0,-4.7c0,-.8,.1,-1.6,.2,-1.8c.2,-.8,8.9,-2.9,9.8,-1.4Z" class="g7_24"/>
<path d="M689.1,873.3c.5,.7,.7,3.9,.7,4.8c0,1,0,2.5,-.6,3.5c-1.2,.6,-3.5,1,-5.1,1.2c-2.1,.3,-3.7,-.2,-4,-.4c-.5,-.2,-1,-.5,-1,-1.2c0,-1,-.1,-3.3,0,-4.7c0,-.8,.1,-1.6,.2,-1.8c.2,-.8,8.9,-2.9,9.8,-1.4Z" class="gp_24"/>
<g clip-path="url(#ca_24)">
<path d="M706.9,879.4c-1.5,1,-4.3,3.2,-9.4,4.2c-5.9,1.1,-11,1,-17.5,1c-8.1,0,-15.7,.4,-22.1,-2c-4.6,-1.7,-6,-3.2,-9.5,-4.8c-1.9,-.9,-2.8,-1.6,-2.2,-2.4c.5,-.8,7.5,.8,10.9,.6c3.5,-.2,5.6,-.4,8.1,-.4c4.8,.1,9.3,1.3,13.8,1.3c4.9,.1,8.4,-1.2,13.1,-1.3c2.7,-.1,4.5,-.2,8.4,.1c3.3,.2,6.5,-.6,8.6,-.5c1.7,.1,2.7,-.1,3.3,.8c.1,1.5,-2.2,1.2,-5.5,3.4m-5.2,-7.3c-4.9,-1.3,-9.7,-3.4,-14.2,-3.2c-3.5,-.1,-4,1.3,-8.3,1.3c-3.1,0,-3.8,-1.2,-8.3,-1.2c-2.8,0,-7.1,.3,-13,2.2c-5.5,1.8,-12.9,2.3,-13.1,4.2c-.3,1.3,.2,2.2,4.1,5.6c1.7,1.5,4.3,3.6,8.4,7.3c7.2,6.8,15.2,6.9,21.9,6.9c7.9,0,16.1,0,21.7,-5.4c5.5,-5.3,6.7,-6.8,9.8,-9.8c2,-1.9,3,-2.9,2.8,-4.1c-.3,-2.5,-6.4,-2.3,-11.8,-3.8Z" class="gi_24"/>
<path d="M706.9,879.4c-1.5,1,-4.3,3.2,-9.4,4.2c-5.9,1.1,-11,1,-17.5,1c-8.1,0,-15.7,.4,-22.1,-2c-4.6,-1.7,-6,-3.2,-9.5,-4.8c-1.9,-.9,-2.8,-1.6,-2.2,-2.4c.5,-.8,7.5,.8,10.9,.6c3.5,-.2,5.6,-.4,8.1,-.4c4.8,.1,9.3,1.3,13.8,1.3c4.9,.1,8.4,-1.2,13.1,-1.3c2.7,-.1,4.5,-.2,8.4,.1c3.3,.2,6.5,-.6,8.6,-.5c1.7,.1,2.7,-.1,3.3,.8c.1,1.5,-2.2,1.2,-5.5,3.4Zm-5.2,-7.3c-4.9,-1.3,-9.7,-3.4,-14.2,-3.2c-3.5,-.1,-4,1.3,-8.3,1.3c-3.1,0,-3.8,-1.2,-8.3,-1.2c-2.8,0,-7.1,.3,-13,2.2c-5.5,1.8,-12.9,2.3,-13.1,4.2c-.3,1.3,.2,2.2,4.1,5.6c1.7,1.5,4.3,3.6,8.4,7.3c7.2,6.8,15.2,6.9,21.9,6.9c7.9,0,16.1,0,21.7,-5.4c5.5,-5.3,6.7,-6.8,9.8,-9.8c2,-1.9,3,-2.9,2.8,-4.1c-.3,-2.5,-6.4,-2.3,-11.8,-3.8Z" class="gp_24"/>
</g>
<g clip-path="url(#cb_24)">
<path d="M787.7,883.8c-.7,-1.4,-1.7,-3.5,-1.7,-3.6c-1.1,-2.6,-1.5,-3.2,-3.8,-6.8c-1.9,-3,-4.8,-5.6,-7,-7.5c-2.8,-2.4,-4.2,-3.7,-7.5,-3.6c-2,0,-2.5,1.1,-5,1.1c-2,0,-2.6,-1.1,-5.3,-1.1c-2.8,0,-6.4,3,-8.8,5.1c-1.6,1.6,-5.5,5.8,-7.7,9.9c-2.1,3.7,-3.5,5.9,-3.5,7c0,.7,3.4,4.3,3.5,4.5c.3,1.3,2.2,3.6,3.8,5.2c7,6.9,10.3,8,17.2,8c4.5,0,7.6,-.2,10.4,-1.3c2.3,-.8,4.4,-1.8,6.9,-4.1c2.1,-1.9,4.1,-4.6,5.4,-7.3c.1,0,.1,-.1,.1,-.1c1,-2.3,3.4,-4.6,3,-5.4Z" class="gi_24"/>
<path d="M787.7,883.8c-.7,-1.4,-1.7,-3.5,-1.7,-3.6c-1.1,-2.6,-1.5,-3.2,-3.8,-6.8c-1.9,-3,-4.8,-5.6,-7,-7.5c-2.8,-2.4,-4.2,-3.7,-7.5,-3.6c-2,0,-2.5,1.1,-5,1.1c-2,0,-2.6,-1.1,-5.3,-1.1c-2.8,0,-6.4,3,-8.8,5.1c-1.6,1.6,-5.5,5.8,-7.7,9.9c-2.1,3.7,-3.5,5.9,-3.5,7c0,.7,3.4,4.3,3.5,4.5c.3,1.3,2.2,3.6,3.8,5.2c7,6.9,10.3,8,17.2,8c4.5,0,7.6,-.2,10.4,-1.3c2.3,-.8,4.4,-1.8,6.9,-4.1c2.1,-1.9,4.1,-4.6,5.4,-7.3c.1,0,.1,-.1,.1,-.1c1,-2.3,3.4,-4.6,3,-5.4Z" class="gq_24"/>
</g>
<path d="M754.4,890.3c-2.5,3.8,-2.5,5.4,-2.6,6.5m21.3,-7.6c2.8,3.7,2.9,5.3,3.2,6.4m-2.5,-8.2c3.5,2.8,4.1,4.3,4.5,5.3m-17.9,-2.2c-.2,1,-.6,6.2,-.5,9M768,874.7c.6,-.6,1.5,-1.2,2.2,-1.7c.6,-.4,2.9,-2.9,3.3,-4.9m-2.2,10.1c1.7,.4,3.4,-.8,5,-1.1c1.6,-.4,3.5,-1.5,4,-2.4m-31.9,-3.4c0,.4,1.1,2.7,2.6,3.6c1,.7,3.3,2.3,4.2,2.4m-10.4,-1.9c.3,.8,3.2,2.6,4.1,2.8c1,.3,3.2,.8,4.5,.6" class="gm_24"/>
<path d="M771.2,879.2c.9,.8,1.9,1.9,2.6,2.2c4.1,1.8,5.2,1.7,2.6,1.9c-1.3,.1,-2,.5,-3.3,1c-1.3,.5,-2.7,1.2,-3.4,1.4c-3.3,1.2,-5.6,1.6,-7.4,1.5c-3.5,-.2,-7.6,-2.4,-8.5,-2.6c-.9,-.3,-2.2,-.8,-3.2,-1.1c-1.5,-.4,-2.6,-.5,-2.6,-.5c2.3,-.5,3.5,-1.9,6.4,-4.3c3.6,-3,5.2,-2.5,8.1,-2.5c2.5,0,4.1,0,6.5,1.2c0,0,1,.7,2.2,1.8Z" class="gg_24"/>
<path d="M738.4,883.9c1.7,-.2,5.8,-.2,9.1,-.7c2.7,-.4,4,-2.1,6.9,-4.5c3.6,-3,5.2,-2.5,8.1,-2.5c2.5,0,4.1,0,6.5,1.2c0,0,.7,.4,1.6,1.3c1.1,.9,2.4,2.2,3.2,2.7c4.8,3.1,13.7,2,13.6,2.9m-8.7,-1.1c-2.1,-.2,-4.1,.2,-5.6,1.1c-1.2,.7,-2.5,1.2,-3.2,1.5c-3.5,1.4,-5.7,1.2,-7.5,1.2c-3.9,-.2,-7.7,-2.2,-8.6,-2.4c-2.3,-.7,-3.5,-2,-8.3,-1.1l-3.9,.2" class="gr_24"/>
<path d="M777.8,883c4.5,1.1,9.7,.6,9.6,1.3m-49,-.4c1.7,-.2,6.1,-.2,9.4,-.7" class="gs_24"/>
<path d="M406.7,972.9c-2.9,-3.3,-7.6,-9.4,-10.1,-11.6c-5.4,-4.7,-10.8,-7.5,-14.4,-7.4c-3.9,-.1,-5.4,1.9,-9.4,1.8c-2.3,0,-5.3,-1.8,-10.4,-1.8c-3.1,0,-8.6,3,-13.6,8.2c-4.8,4.9,-12.1,17.8,-13.7,20.6c-.7,3.5,-.7,6.6,2.9,11c2.9,3.7,6.8,8.3,10.7,12.8c7.4,8.5,16.3,8.2,23.9,8.2c8.8,0,19.2,-.7,25.4,-6.9c6.3,-6.1,9.2,-13.2,13.1,-17.7c.5,-.6,1.2,-3.9,.8,-5.9c-.4,-1.8,-2.3,-7.9,-5.2,-11.3Z" class="gg_24"/>
<path d="M386.9,972.2c.2,.8,.7,1.3,1,1.6c.2,.2,2,.4,4.4,0c1.6,-.2,3.4,-.8,4.4,-1.5c.6,-.4,.7,-1,.8,-1.7c.1,-.7,.5,-4.5,-.4,-7c-.8,-2.5,-10.7,-1.5,-11.1,-.1c-.4,1.5,.9,8.7,.9,8.7Z" class="g7_24"/>
<path d="M386.9,972.2c.2,.8,.7,1.3,1,1.6c.2,.2,2,.4,4.4,0c1.6,-.2,3.4,-.8,4.4,-1.5c.6,-.4,.7,-1,.8,-1.7c.1,-.7,.5,-4.5,-.4,-7c-.8,-2.5,-10.7,-1.5,-11.1,-.1c-.4,1.5,.9,8.7,.9,8.7Z" class="gt_24"/>
<path d="M359.2,971.3c-.3,.7,-.6,1,-.9,1.3c-.2,.1,-2.3,.9,-4.4,.4c-1.5,-.3,-3.3,-.5,-4.2,-1.2c-.6,-.5,-.7,-1.1,-.7,-1.8c-.1,-.7,-.7,-5.3,.1,-7.7c.8,-2.4,10.5,-.8,10.8,.6c.4,1.4,-.7,8.4,-.7,8.4Z" class="g7_24"/>
<path d="M359.2,971.3c-.3,.7,-.6,1,-.9,1.3c-.2,.1,-2.3,.9,-4.4,.4c-1.5,-.3,-3.3,-.5,-4.2,-1.2c-.6,-.5,-.7,-1.1,-.7,-1.8c-.1,-.7,-.7,-5.3,.1,-7.7c.8,-2.4,10.5,-.8,10.8,.6c.4,1.4,-.7,8.4,-.7,8.4Z" class="gt_24"/>
<path d="M373,965.3c.2,.5,.3,1.3,.4,2c.1,1.9,.1,6.2,.1,6.2c0,0,-.3,.7,-.6,1c-2.9,1.1,-11.5,1.1,-12.9,-.9c-1.3,-2.1,-.9,-7.2,-.5,-8.7l.3,-2.8c.6,-.8,12.5,1.2,13.2,3.2Z" class="g7_24"/>
<path d="M373,965.3c.2,.5,.3,1.3,.4,2c.1,1.9,.1,6.2,.1,6.2c0,0,-.3,.7,-.6,1c-2.9,1.1,-11.5,1.1,-12.9,-.9c-1.3,-2.1,-.9,-7.2,-.5,-8.7l.3,-2.8c.6,-.8,12.5,1.2,13.2,3.2Z" class="gt_24"/>
<path d="M386,963.7c.6,1,.9,5.1,.9,6.3c0,1.2,-.1,2.9,-.9,4c-1.5,.7,-3.8,.9,-5.8,1.1c-2.6,.1,-5.1,-.2,-5.5,-.4c-.6,-.3,-1.2,-.7,-1.2,-1.7c0,-1.3,-.1,-4.2,0,-6c0,-1.1,.1,-2,.2,-2.3c.4,-1.1,11.2,-2.9,12.3,-1Z" class="g7_24"/>
<path d="M386,963.7c.6,1,.9,5.1,.9,6.3c0,1.2,-.1,2.9,-.9,4c-1.5,.7,-3.8,.9,-5.8,1.1c-2.6,.1,-5.1,-.2,-5.5,-.4c-.6,-.3,-1.2,-.7,-1.2,-1.7c0,-1.3,-.1,-4.2,0,-6c0,-1.1,.1,-2,.2,-2.3c.4,-1.1,11.2,-2.9,12.3,-1Z" class="gt_24"/>
<g clip-path="url(#cc_24)">
<path d="M406.2,992.9c-3.4,4.6,-8,6.6,-14.1,8.4c-6.2,1.8,-11.5,.7,-18.9,1.1c-9.2,.4,-14.4,1.2,-22,-1.8c-3.9,-1.5,-8.4,-5.3,-10.9,-7.9c-3.6,-3.9,-3.9,-6.6,-3,-8c1.1,-1.5,4.9,-6.1,7.9,-9.1c4.7,-4.7,9.5,-10.4,14.7,-10.4c2.8,0,5.8,1.3,12.2,1.3c4.9,.2,7.2,-.6,13.5,-1c3,-.5,7.5,.7,10.9,3.9c1.4,1.2,5,4.9,7.8,7.8c3.2,3.2,5.5,5.7,5.7,8.5c.3,2.5,-1.2,3.7,-3.8,7.2m-.9,-22.6c-3,-3.5,-4.6,-6.3,-7,-8.9c-3.9,-4.2,-9.7,-8.3,-14.4,-8c-4.1,-.1,-6.1,1.7,-10.3,1.6c-2.4,0,-7.9,-1.5,-12.7,-1.3c-1.6,.1,-7.9,2.8,-13.1,8.4c-4.9,5.2,-11.4,18.3,-13,21.3c-1.1,2.6,.2,7.6,3.8,12.3c3.1,3.9,4.9,7.9,9.4,12.5c8.3,8.3,18,7.1,25.8,7.1c9.1,0,15.1,.2,22.2,-3.9c2.4,-1.4,5.3,-4.3,7.2,-6.9c3.4,-4.6,6.3,-10.2,7.9,-14.4c.9,-2.1,1.1,-4,1.1,-5.5c0,-2.8,-3.9,-10.6,-6.9,-14.3Z" class="gi_24"/>
<path d="M406.2,992.9c-3.4,4.6,-8,6.6,-14.1,8.4c-6.2,1.8,-11.5,.7,-18.9,1.1c-9.2,.4,-14.4,1.2,-22,-1.8c-3.9,-1.5,-8.4,-5.3,-10.9,-7.9c-3.6,-3.9,-3.9,-6.6,-3,-8c1.1,-1.5,4.9,-6.1,7.9,-9.1c4.7,-4.7,9.5,-10.4,14.7,-10.4c2.8,0,5.8,1.3,12.2,1.3c4.9,.2,7.2,-.6,13.5,-1c3,-.5,7.5,.7,10.9,3.9c1.4,1.2,5,4.9,7.8,7.8c3.2,3.2,5.5,5.7,5.7,8.5c.3,2.5,-1.2,3.7,-3.8,7.2Zm-.9,-22.6c-3,-3.5,-4.6,-6.3,-7,-8.9c-3.9,-4.2,-9.7,-8.3,-14.4,-8c-4.1,-.1,-6.1,1.7,-10.3,1.6c-2.4,0,-7.9,-1.5,-12.7,-1.3c-1.6,.1,-7.9,2.8,-13.1,8.4c-4.9,5.2,-11.4,18.3,-13,21.3c-1.1,2.6,.2,7.6,3.8,12.3c3.1,3.9,4.9,7.9,9.4,12.5c8.3,8.3,18,7.1,25.8,7.1c9.1,0,15.1,.2,22.2,-3.9c2.4,-1.4,5.3,-4.3,7.2,-6.9c3.4,-4.6,6.3,-10.2,7.9,-14.4c.9,-2.1,1.1,-4,1.1,-5.5c0,-2.8,-3.9,-10.6,-6.9,-14.3Z" class="gt_24"/>
</g>
<path d="M749.1,973.1c-4.3,-4.6,-8,-7.7,-11.7,-10.3c-4.8,-3.3,-8.2,-5.2,-13.6,-5c-3.4,0,-4.2,1.4,-8.4,1.4c-3.4,0,-4.3,-1.4,-8.9,-1.4c-4.7,0,-10.1,4,-14,6.9c-2.8,2.1,-7.5,7.9,-9.5,10.5c-1.2,1.9,-5.6,5.9,-5.6,7.8c0,0,1.6,4,2.5,5.6c1.1,1.6,3.9,7.7,6,10.4c8.1,10.1,16.6,12.4,28.1,12.4c7.5,0,12.3,.2,17.1,-1c5.2,-1.4,9,-3.5,12.8,-7c4.2,-3.9,7.5,-11.9,9.3,-15.1c1.5,-2.5,2.6,-4.9,2.6,-4.9c0,-2.3,-2.5,-5.8,-6.7,-10.3Z" class="gi_24"/>
<path d="M749.1,973.1c-4.3,-4.6,-8,-7.7,-11.7,-10.3c-4.8,-3.3,-8.2,-5.2,-13.6,-5c-3.4,0,-4.2,1.4,-8.4,1.4c-3.4,0,-4.3,-1.4,-8.9,-1.4c-4.7,0,-10.1,4,-14,6.9c-2.8,2.1,-7.5,7.9,-9.5,10.5c-1.2,1.9,-5.6,5.9,-5.6,7.8c0,0,1.6,4,2.5,5.6c1.1,1.6,3.9,7.7,6,10.4c8.1,10.1,16.6,12.4,28.1,12.4c7.5,0,12.3,.2,17.1,-1c5.2,-1.4,9,-3.5,12.8,-7c4.2,-3.9,7.5,-11.9,9.3,-15.1c1.5,-2.5,2.6,-4.9,2.6,-4.9c0,-2.3,-2.5,-5.8,-6.7,-10.3Z" class="gu_24"/>
<path d="M734.6,982.5c0,0,-1.7,.9,-3.3,1.8c-1.8,.9,-4,1.5,-4.9,1.8c-1.9,.8,-5.6,1.6,-8.2,1.6c-5.1,.2,-8.1,-.8,-10.4,-1.4c-1,-.3,-2.6,-.8,-3.6,-1.6c-2.6,-1.8,-5.1,-2.8,-5.1,-2.8c2.3,-1.1,3.5,-1.8,5.6,-2.6c2.2,-.9,3.7,-1.7,4.9,-2.1c4.1,-1.2,4.1,-.2,7.4,-.2c3.5,0,5,-1.1,9,1.3l3.6,2c.2,.6,5,2.2,5,2.2Z" class="gg_24"/>
<path d="M679.3,982.8c3.2,.9,10.1,1.4,15.2,.5c3.8,-.8,13.9,-5.8,15.1,-6.1c3.1,-.9,3,-.2,7.4,-.2c3.5,0,5.5,-1.3,9.6,1.7c0,0,6.2,3.5,8.5,4.2c4.9,1.5,14.2,-.6,17.1,-.1c3.1,.5,2.2,.1,2.1,.2m-19.8,-.2c-2.5,.7,-6.8,2.9,-8.1,3.3c-2,.7,-4.9,1.5,-8.2,1.6c-5.1,.2,-7.2,-.7,-9.5,-1.2c-3.8,-.8,-8.2,-4.3,-9.4,-4.6" class="gv_24"/>
<path d="M708.6,991.8c-.9,.8,-.7,2.3,-1.4,6.2c-1.2,6.3,-.2,8.4,.3,9.9m16.2,-17.4c.8,.7,2.2,3.6,2.9,7.5c1.1,6.3,.2,8.4,-.4,9.9m9.4,-21.1c0,0,4.4,2,6.1,4.2c1.7,2.2,2.4,5,2.4,5m-29.9,-3.7c-.4,1.4,-1.1,8.7,-.9,12.6M700,985.8c-1.5,.5,-4.1,3.7,-6,5.2c-1.8,1.6,-3.3,5.6,-3.3,5.6M723,974.9c1,-.9,3.4,-3.6,5,-5.4c0,0,2.4,-3.2,3.1,-5.8m-23.6,10.7c-1,-.8,-3.2,-2.6,-4.7,-4c-1.6,-1.5,-3.2,-4,-4.3,-6.4m34.1,14.2c2.7,.7,4.9,-1.4,7.5,-1.7c2.5,-.4,5,-2,5.9,-3.2m-52.3,-2.5c.2,.5,1.7,1.8,4.1,2.9c1.9,.7,4.6,2.8,6.2,2.8" class="gm_24"/>
<path d="M734.5,982.8c4.9,1.5,14.8,-.5,17.7,0c3.1,.5,2.2,.1,2.1,.2m-75,-.2c3.2,.9,12.8,1.9,19.9,-.9" class="gw_24"/>
<path d="M357,1057.3c-5.5,-1.2,-10.6,-3.2,-13.8,-3c-3.5,-.1,-4.8,1.4,-8.4,1.4c-2,0,-4.7,-1.4,-9.2,-1.4c-2.8,0,-7.2,.9,-11.9,2.7c-5.3,2,-11.7,1.5,-13.2,2.7c0,.5,.3,1.9,4.2,5c1.6,1.4,2.6,1.5,8.3,6.8c6.8,6.5,15.2,7.2,21.9,7.2c7.9,0,15.3,-.3,20.9,-5.2c3.5,-3.1,5.6,-4.8,10.8,-9.5c2,-1.7,2,-2.9,2.2,-4c.3,-1.4,-6.3,-1.6,-11.8,-2.7Z" class="gg_24"/>
<path d="M306,1064.2c.1,-.6,.5,-1.1,1.1,-1.2c1.7,-.5,2.2,-.1,2.5,.3q.3,.5,.6,1c.3,.4,.4,.7,-1.1,3.2c-.3,.6,-3.1,-1.1,-3.6,-1.9c-.2,-.5,.3,.3,.5,-1.4Z" class="g7_24"/>
<path d="M306,1064.2c.1,-.6,.5,-1.1,1.1,-1.2c1.7,-.5,2.2,-.1,2.5,.3q.3,.5,.6,1c.3,.4,.4,.7,-1.1,3.2c-.3,.6,-3.1,-1.1,-3.6,-1.9c-.2,-.5,.3,.3,.5,-1.4Z" class="gp_24"/>
<path d="M312.4,1064.3c-.3,-1,-2.3,-.5,-2.8,-.4c-.5,.1,-1.3,1.8,-1.1,3.2c.3,1.4,2.4,2.2,3.3,2.7c.9,.5,1.1,-2.9,1.2,-3.7c.1,-.8,.3,-1.3,-.6,-1.8Z" class="g7_24"/>
<path d="M312.4,1064.3c-.3,-1,-2.3,-.5,-2.8,-.4c-.5,.1,-1.3,1.8,-1.1,3.2c.3,1.4,2.4,2.2,3.3,2.7c.9,.5,1.1,-2.9,1.2,-3.7c.1,-.8,.3,-1.3,-.6,-1.8Z" class="gp_24"/>
<path d="M364.6,1063.8c-.1,-.6,-.6,-1,-1.1,-1.2c-1.7,-.5,-2.2,-.1,-2.5,.4c-.3,.4,-.3,.5,-.6,.9c-.4,.4,1.2,7.7,1.6,4.9c.2,-1,2.8,-3.3,2.6,-5Z" class="g7_24"/>
<path d="M364.6,1063.8c-.1,-.6,-.6,-1,-1.1,-1.2c-1.7,-.5,-2.2,-.1,-2.5,.4c-.3,.4,-.3,.5,-.6,.9c-.4,.4,1.2,7.7,1.6,4.9c.2,-1,2.8,-3.3,2.6,-5Z" class="gp_24"/>
<path d="M361.4,1064.8c-.1,-.6,-.7,-1.6,-1.3,-1.7c-1.7,-.6,-2,.4,-2.3,.9c-.3,.4,-.6,.8,-1,1.2c-.3,.4,.2,2.6,1.7,5.1c.4,.6,2.6,-1.5,3.1,-2.3c.3,-.5,0,-1.4,-.2,-3.2Z" class="g7_24"/>
<path d="M361.4,1064.8c-.1,-.6,-.7,-1.6,-1.3,-1.7c-1.7,-.6,-2,.4,-2.3,.9c-.3,.4,-.6,.8,-1,1.2c-.3,.4,.2,2.6,1.7,5.1c.4,.6,2.6,-1.5,3.1,-2.3c.3,-.5,0,-1.4,-.2,-3.2Z" class="gp_24"/>
<path d="M317.7,1067c-.3,-.9,-.2,-1.5,-1.1,-2.1c-.7,-.6,-3,.3,-3.5,.4c-.5,.1,-1,2.5,-1.3,4c-.3,1.4,3.8,3.9,4.7,4.5c.9,.5,1.1,-2.9,1.2,-3.7c.1,-.9,1,-2.5,0,-3.1Z" class="g7_24"/>
<path d="M317.7,1067c-.3,-.9,-.2,-1.5,-1.1,-2.1c-.7,-.6,-3,.3,-3.5,.4c-.5,.1,-1,2.5,-1.3,4c-.3,1.4,3.8,3.9,4.7,4.5c.9,.5,1.1,-2.9,1.2,-3.7c.1,-.9,1,-2.5,0,-3.1Z" class="gp_24"/>
<path d="M322.5,1071c-.3,-1.4,.6,-2.7,.2,-3.5c-.3,-.6,-3.6,-2,-5.1,-1c-.5,.3,-1.3,3,-1,4.5c.2,1.3,.5,.4,1.4,1c1.7,1,4.4,1,4.5,-1Z" class="g7_24"/>
<path d="M322.5,1071c-.3,-1.4,.6,-2.7,.2,-3.5c-.3,-.6,-3.6,-2,-5.1,-1c-.5,.3,-1.3,3,-1,4.5c.2,1.3,.5,.4,1.4,1c1.7,1,4.4,1,4.5,-1Z" class="gp_24"/>
<path d="M357.1,1066.4c-.1,-.6,-.7,-1.7,-1.2,-1.8c-1.7,-.5,-2.1,.5,-2.4,.9c-.2,.5,-.6,.8,-.9,1.2c-.4,.5,.1,2.7,1.6,5.2c.4,.6,3.2,-.7,3.7,-1.6c.3,-.5,0,-2.2,-.8,-3.9Z" class="g7_24"/>
<path d="M357.1,1066.4c-.1,-.6,-.7,-1.7,-1.2,-1.8c-1.7,-.5,-2.1,.5,-2.4,.9c-.2,.5,-.6,.8,-.9,1.2c-.4,.5,.1,2.7,1.6,5.2c.4,.6,3.2,-.7,3.7,-1.6c.3,-.5,0,-2.2,-.8,-3.9Z" class="gp_24"/>
<path d="M351.8,1066.1c-1.7,-.6,-2,.1,-2.2,.5c-.3,.5,-.8,1.2,-1.2,1.6c-.3,.4,-.5,2.4,1,4.8c.4,.6,4,-.9,4.4,-1.8c.5,-.8,-.6,-4.8,-2,-5.1Z" class="g7_24"/>
<path d="M351.8,1066.1c-1.7,-.6,-2,.1,-2.2,.5c-.3,.5,-.8,1.2,-1.2,1.6c-.3,.4,-.5,2.4,1,4.8c.4,.6,4,-.9,4.4,-1.8c.5,-.8,-.6,-4.8,-2,-5.1Z" class="gp_24"/>
<path d="M342.2,1071.4c1.3,.1,6.9,1.4,7,.1c.1,-1.6,-.4,-4.1,-1.4,-4.3c-1,-.2,-3.7,.5,-4.8,.7c-1.1,.2,-1,.9,-1,1.8c-.1,.8,.2,1.7,.2,1.7Z" class="g7_24"/>
<path d="M342.2,1071.4c1.3,.1,6.9,1.4,7,.1c.1,-1.6,-.4,-4.1,-1.4,-4.3c-1,-.2,-3.7,.5,-4.8,.7c-1.1,.2,-1,.9,-1,1.8c-.1,.8,.2,1.7,.2,1.7Z" class="gp_24"/>
<path d="M321.9,1071.4c.2,-1.6,.3,-4.3,1.6,-4.3c1.3,0,1.6,.3,2.4,.4c.8,.1,2.7,.3,2.5,1.5c-.2,1.3,-.3,2.9,-.3,2.9c0,0,-6.6,2.3,-6.2,-.5Z" class="g7_24"/>
<path d="M321.9,1071.4c.2,-1.6,.3,-4.3,1.6,-4.3c1.3,0,1.6,.3,2.4,.4c.8,.1,2.7,.3,2.5,1.5c-.2,1.3,-.3,2.9,-.3,2.9c0,0,-6.6,2.3,-6.2,-.5Z" class="gp_24"/>
<path d="M328.1,1071.5c-.1,-.3,-.1,-2.5,.3,-3.3c.2,-.3,.9,-.6,1.8,-.4c2.1,.4,3.8,-.1,4.5,.5c.3,.2,.4,3.1,.2,3.8c-.2,.6,-6.8,-.6,-6.8,-.6Z" class="g7_24"/>
<path d="M328.1,1071.5c-.1,-.3,-.1,-2.5,.3,-3.3c.2,-.3,.9,-.6,1.8,-.4c2.1,.4,3.8,-.1,4.5,.5c.3,.2,.4,3.1,.2,3.8c-.2,.6,-6.8,-.6,-6.8,-.6Z" class="gp_24"/>
<path d="M335,1068.8c0,-.4,.1,-.6,.7,-.8c.7,-.2,1.6,0,2.8,-.1c1.2,-.2,2.2,-.1,2.7,0c.8,.2,1.1,1,1.1,1c0,.5,.3,3.2,.3,3.2c0,0,-7.2,.2,-7.5,.2c-.3,-.1,-.2,-2.7,-.1,-3.5Z" class="g7_24"/>
<path d="M335,1068.8c0,-.4,.1,-.6,.7,-.8c.7,-.2,1.6,0,2.8,-.1c1.2,-.2,2.2,-.1,2.7,0c.8,.2,1.1,1,1.1,1c0,.5,.3,3.2,.3,3.2c0,0,-7.2,.2,-7.5,.2c-.3,-.1,-.2,-2.7,-.1,-3.5Z" class="gp_24"/>
<path d="M358.3,1061c.4,1,.6,.9,1.8,1.1c1.2,.2,2.1,-.7,2.3,-1.5c.2,-.4,-2.8,-2.5,-4.3,-1.9c-1.5,.7,.2,2.3,.2,2.3Z" class="g7_24"/>
<path d="M358.3,1061c.4,1,.6,.9,1.8,1.1c1.2,.2,2.1,-.7,2.3,-1.5c.2,-.4,-2.8,-2.5,-4.3,-1.9c-1.5,.7,.2,2.3,.2,2.3Z" class="gp_24"/>
<path d="M307.4,1061.5c.5,.3,1.3,1.2,2.5,1.5c1.2,.2,1.4,-.5,1.7,-.8c.3,-.4,1.2,-2,1.2,-2c0,0,-3,-.8,-4.5,-.2c-1.5,.7,-.9,1.5,-.9,1.5Z" class="g7_24"/>
<path d="M307.4,1061.5c.5,.3,1.3,1.2,2.5,1.5c1.2,.2,1.4,-.5,1.7,-.8c.3,-.4,1.2,-2,1.2,-2c0,0,-3,-.8,-4.5,-.2c-1.5,.7,-.9,1.5,-.9,1.5Z" class="gp_24"/>
<path d="M309.9,1059.2c.4,2.9,1.9,3.6,2.3,4.1c.4,.5,1.7,.6,3.6,-.7c2,-1.2,.5,-5.4,.5,-5.4Z" class="g7_24"/>
<path d="M309.9,1059.2c.4,2.9,1.9,3.6,2.3,4.1c.4,.5,1.7,.6,3.6,-.7c2,-1.2,.5,-5.4,.5,-5.4l-6.4,2Z" class="gp_24"/>
<path d="M358.5,1059.5c-.3,.7,.6,.9,-.1,2.4c-.5,1.2,-1.1,1.5,-1.8,1.6c-1.2,.2,-2.7,0,-3.4,-1.4c-.7,-1.5,.5,-4.2,.5,-4.2c0,0,4.7,.3,4.8,1.6Z" class="g7_24"/>
<path d="M358.5,1059.5c-.3,.7,.6,.9,-.1,2.4c-.5,1.2,-1.1,1.5,-1.8,1.6c-1.2,.2,-2.7,0,-3.4,-1.4c-.7,-1.5,.5,-4.2,.5,-4.2c0,0,4.7,.3,4.8,1.6Z" class="gp_24"/>
<path d="M345.5,1064.7c.2,.5,.5,1,.8,1.2c.2,.1,1.5,.1,3.3,-.2c1.2,-.3,2.6,-.9,3.3,-1.5c.5,-.3,.6,-.8,.6,-1.4c.1,-.5,.4,-3.5,-.2,-5.4c-.7,-1.9,-8.2,-.6,-8.5,.5c-.3,1.1,.7,6.8,.7,6.8Z" class="g7_24"/>
<path d="M345.5,1064.7c.2,.5,.5,1,.8,1.2c.2,.1,1.5,.1,3.3,-.2c1.2,-.3,2.6,-.9,3.3,-1.5c.5,-.3,.6,-.8,.6,-1.4c.1,-.5,.4,-3.5,-.2,-5.4c-.7,-1.9,-8.2,-.6,-8.5,.5c-.3,1.1,.7,6.8,.7,6.8Z" class="gp_24"/>
<path d="M323.5,1064.6c-.2,.6,-.5,.8,-.7,1.1c-.2,.1,-1.9,.7,-3.5,.3c-1.2,-.3,-2.6,-.4,-3.3,-1c-.5,-.3,-.5,-.8,-.6,-1.4c-.1,-.6,-.5,-4.2,.1,-6.1c.7,-1.9,8.3,-.6,8.6,.5c.2,1.1,-.6,6.6,-.6,6.6Z" class="g7_24"/>
<path d="M323.5,1064.6c-.2,.6,-.5,.8,-.7,1.1c-.2,.1,-1.9,.7,-3.5,.3c-1.2,-.3,-2.6,-.4,-3.3,-1c-.5,-.3,-.5,-.8,-.6,-1.4c-.1,-.6,-.5,-4.2,.1,-6.1c.7,-1.9,8.3,-.6,8.6,.5c.2,1.1,-.6,6.6,-.6,6.6Z" class="gp_24"/>
<path d="M334.4,1059.9c.2,.3,.2,1,.3,1.6c.1,1.5,.1,4.9,.1,4.9c0,0,-.2,.5,-.5,.7c-2.2,1,-9.1,.9,-10.2,-.6c-1,-1.7,-.7,-5.7,-.4,-6.9l.3,-2.3c.5,-.6,9.8,1,10.4,2.6Z" class="g7_24"/>
<path d="M334.4,1059.9c.2,.3,.2,1,.3,1.6c.1,1.5,.1,4.9,.1,4.9c0,0,-.2,.5,-.5,.7c-2.2,1,-9.1,.9,-10.2,-.6c-1,-1.7,-.7,-5.7,-.4,-6.9l.3,-2.3c.5,-.6,9.8,1,10.4,2.6Z" class="gp_24"/>
<path d="M344.8,1058.1c.5,.7,.8,3.9,.8,4.8c0,1,-.1,2.5,-.7,3.4c-1.2,.7,-3.5,1,-5.1,1.2c-2.1,.3,-3.7,-.2,-4,-.3c-.5,-.2,-1,-.5,-1,-1.2c0,-1.1,-.1,-3.3,0,-4.7c0,-.9,.1,-1.6,.2,-1.8c.2,-.9,8.9,-2.9,9.8,-1.4Z" class="g7_24"/>
<path d="M344.8,1058.1c.5,.7,.8,3.9,.8,4.8c0,1,-.1,2.5,-.7,3.4c-1.2,.7,-3.5,1,-5.1,1.2c-2.1,.3,-3.7,-.2,-4,-.3c-.5,-.2,-1,-.5,-1,-1.2c0,-1.1,-.1,-3.3,0,-4.7c0,-.9,.1,-1.6,.2,-1.8c.2,-.9,8.9,-2.9,9.8,-1.4Z" class="gp_24"/>
<g clip-path="url(#cd_24)">
<path d="M362.6,1064.2c-1.4,.9,-4.3,3.1,-9.4,4.1c-5.9,1.2,-11,1.1,-17.5,1.1c-8.1,0,-15.7,.4,-22.1,-2c-4.6,-1.7,-6,-3.2,-9.5,-4.8c-1.9,-.9,-2.8,-1.6,-2.2,-2.4c.5,-.9,7.5,.8,10.9,.6c3.5,-.2,5.7,-.4,8.1,-.4c4.8,.1,9.3,1.3,13.8,1.3c4.9,.1,8.4,-1.2,13.1,-1.3c2.7,-.1,4.5,-.2,8.4,.1c3.4,.2,6.5,-.6,8.6,-.5c1.7,.1,2.8,-.1,3.4,.7c0,1.6,-2.3,1.3,-5.6,3.5m-5.2,-7.3c-4.9,-1.3,-9.7,-3.4,-14.2,-3.2c-3.5,-.1,-4,1.3,-8.3,1.3c-3.1,0,-3.8,-1.3,-8.3,-1.3c-2.8,0,-7.1,.3,-13,2.3c-5.5,1.8,-12.9,2.3,-13.1,4.1c-.3,1.4,.2,2.2,4.2,5.7c1.6,1.5,4.3,3.6,8.3,7.3c7.2,6.7,15.2,6.9,21.9,6.9c7.9,0,16.1,-.1,21.7,-5.4c5.5,-5.3,6.7,-6.8,9.8,-9.8c2,-2,3,-2.9,2.8,-4.1c-.3,-2.5,-6.4,-2.3,-11.8,-3.8Z" class="gi_24"/>
<path d="M362.6,1064.2c-1.4,.9,-4.3,3.1,-9.4,4.1c-5.9,1.2,-11,1.1,-17.5,1.1c-8.1,0,-15.7,.4,-22.1,-2c-4.6,-1.7,-6,-3.2,-9.5,-4.8c-1.9,-.9,-2.8,-1.6,-2.2,-2.4c.5,-.9,7.5,.8,10.9,.6c3.5,-.2,5.7,-.4,8.1,-.4c4.8,.1,9.3,1.3,13.8,1.3c4.9,.1,8.4,-1.2,13.1,-1.3c2.7,-.1,4.5,-.2,8.4,.1c3.4,.2,6.5,-.6,8.6,-.5c1.7,.1,2.8,-.1,3.4,.7c0,1.6,-2.3,1.3,-5.6,3.5Zm-5.2,-7.3c-4.9,-1.3,-9.7,-3.4,-14.2,-3.2c-3.5,-.1,-4,1.3,-8.3,1.3c-3.1,0,-3.8,-1.3,-8.3,-1.3c-2.8,0,-7.1,.3,-13,2.3c-5.5,1.8,-12.9,2.3,-13.1,4.1c-.3,1.4,.2,2.2,4.2,5.7c1.6,1.5,4.3,3.6,8.3,7.3c7.2,6.7,15.2,6.9,21.9,6.9c7.9,0,16.1,-.1,21.7,-5.4c5.5,-5.3,6.7,-6.8,9.8,-9.8c2,-2,3,-2.9,2.8,-4.1c-.3,-2.5,-6.4,-2.3,-11.8,-3.8Z" class="gp_24"/>
</g>
<path d="M442.4,1058.2c-1.9,-2.2,-5.2,-6.4,-6.9,-7.8c-3.7,-3.3,-7.3,-5.2,-9.7,-5.1c-2.8,-.1,-3.7,1.3,-6.5,1.2c-1.6,0,-3.6,-1.2,-7.1,-1.2c-2.1,0,-5.8,2,-9.3,5.6c-3.3,3.3,-8.2,12.2,-9.3,14.1c-.5,2.3,-.5,4.5,1.9,7.5c2.1,2.5,4.7,5.6,7.4,8.7c5,5.8,11.1,5.6,16.3,5.6c6,0,13.1,-.5,17.3,-4.7c4.3,-4.2,6.3,-9,9,-12.1c.3,-.4,.8,-2.7,.5,-4.1c-.2,-1.1,-1.5,-5.3,-3.6,-7.7Z" class="gg_24"/>
<path d="M428.9,1057.8c.2,.5,.5,.9,.7,1.1c.2,.1,1.4,.2,3,0c1.1,-.2,2.3,-.6,3,-1c.4,-.3,.5,-.8,.6,-1.2c0,-.5,.3,-3.1,-.3,-4.8c-.6,-1.7,-7.3,-1,-7.6,0c-.2,.9,.6,5.9,.6,5.9Z" class="g7_24"/>
<path d="M428.9,1057.8c.2,.5,.5,.9,.7,1.1c.2,.1,1.4,.2,3,0c1.1,-.2,2.3,-.6,3,-1c.4,-.3,.5,-.8,.6,-1.2c0,-.5,.3,-3.1,-.3,-4.8c-.6,-1.7,-7.3,-1,-7.6,0c-.2,.9,.6,5.9,.6,5.9Z" class="gx_24"/>
<path d="M410,1057.1c-.2,.5,-.4,.8,-.6,.9c-.1,.1,-1.6,.7,-3,.3c-1,-.2,-2.3,-.3,-2.9,-.8c-.4,-.3,-.4,-.7,-.5,-1.2c0,-.5,-.4,-3.7,.2,-5.3c.5,-1.6,7.1,-.5,7.3,.4c.2,1,-.5,5.7,-.5,5.7Z" class="g7_24"/>
<path d="M410,1057.1c-.2,.5,-.4,.8,-.6,.9c-.1,.1,-1.6,.7,-3,.3c-1,-.2,-2.3,-.3,-2.9,-.8c-.4,-.3,-.4,-.7,-.5,-1.2c0,-.5,-.4,-3.7,.2,-5.3c.5,-1.6,7.1,-.5,7.3,.4c.2,1,-.5,5.7,-.5,5.7Z" class="gx_24"/>
<path d="M419.5,1053.1c.1,.3,.2,.8,.2,1.3c.1,1.4,.1,4.3,.1,4.3c0,0,-.2,.4,-.5,.6c-1.9,.8,-7.8,.8,-8.7,-.5c-.9,-1.5,-.6,-5,-.4,-6l.3,-2c.4,-.5,8.4,.9,9,2.3Z" class="g7_24"/>
<path d="M419.5,1053.1c.1,.3,.2,.8,.2,1.3c.1,1.4,.1,4.3,.1,4.3c0,0,-.2,.4,-.5,.6c-1.9,.8,-7.8,.8,-8.7,-.5c-.9,-1.5,-.6,-5,-.4,-6l.3,-2c.4,-.5,8.4,.9,9,2.3Z" class="gx_24"/>
<path d="M428.4,1052c.3,.6,.5,3.4,.5,4.3c0,.8,-.1,1.9,-.6,2.7c-1,.5,-2.6,.6,-3.9,.7c-1.8,.1,-3.5,-.1,-3.8,-.2c-.4,-.2,-.8,-.5,-.8,-1.2c0,-.9,-.1,-2.8,0,-4.1c0,-.7,.1,-1.4,.1,-1.5c.3,-.8,7.7,-2.1,8.5,-.7Z" class="g7_24"/>
<path d="M428.4,1052c.3,.6,.5,3.4,.5,4.3c0,.8,-.1,1.9,-.6,2.7c-1,.5,-2.6,.6,-3.9,.7c-1.8,.1,-3.5,-.1,-3.8,-.2c-.4,-.2,-.8,-.5,-.8,-1.2c0,-.9,-.1,-2.8,0,-4.1c0,-.7,.1,-1.4,.1,-1.5c.3,-.8,7.7,-2.1,8.5,-.7Z" class="gx_24"/>
<g clip-path="url(#ce_24)">
<path d="M442.1,1071.9c-2.3,3.1,-5.4,4.5,-9.6,5.7c-4.2,1.3,-7.8,.5,-12.9,.8c-6.3,.2,-9.9,.8,-15,-1.2c-2.7,-1,-5.8,-3.7,-7.5,-5.5c-2.4,-2.6,-2.7,-4.5,-2,-5.4c.7,-1,3.3,-4.2,5.4,-6.2c3.2,-3.2,6.4,-7.1,10,-7.1c1.9,0,3.9,.9,8.4,.9c3.3,.1,4.8,-.5,9.1,-.7c2.1,-.4,5.1,.5,7.5,2.7c.9,.8,3.4,3.3,5.3,5.3c2.2,2.2,3.8,3.9,3.9,5.8c.2,1.7,-.8,2.5,-2.6,4.9m-.6,-15.4c-2,-2.4,-3.1,-4.3,-4.8,-6.1c-2.6,-2.9,-6.6,-5.7,-9.8,-5.5c-2.8,-.1,-4.2,1.2,-7.1,1.1c-1.6,0,-5.3,-1,-8.6,-.9c-1.1,.1,-5.4,2,-9,5.8c-3.3,3.5,-7.8,12.5,-8.9,14.5c-.7,1.8,.2,5.2,2.7,8.4c2,2.7,3.3,5.4,6.4,8.5c5.6,5.7,12.3,4.9,17.6,4.9c6.2,0,10.3,.1,15.1,-2.7c1.7,-.9,3.7,-2.9,5,-4.7c2.3,-3.1,4.3,-7,5.4,-9.8c.5,-1.5,.7,-2.7,.7,-3.8c0,-1.9,-2.6,-7.2,-4.7,-9.7Z" class="gi_24"/>
<path d="M442.1,1071.9c-2.3,3.1,-5.4,4.5,-9.6,5.7c-4.2,1.3,-7.8,.5,-12.9,.8c-6.3,.2,-9.9,.8,-15,-1.2c-2.7,-1,-5.8,-3.7,-7.5,-5.5c-2.4,-2.6,-2.7,-4.5,-2,-5.4c.7,-1,3.3,-4.2,5.4,-6.2c3.2,-3.2,6.4,-7.1,10,-7.1c1.9,0,3.9,.9,8.4,.9c3.3,.1,4.8,-.5,9.1,-.7c2.1,-.4,5.1,.5,7.5,2.7c.9,.8,3.4,3.3,5.3,5.3c2.2,2.2,3.8,3.9,3.9,5.8c.2,1.7,-.8,2.5,-2.6,4.9Zm-.6,-15.4c-2,-2.4,-3.1,-4.3,-4.8,-6.1c-2.6,-2.9,-6.6,-5.7,-9.8,-5.5c-2.8,-.1,-4.2,1.2,-7.1,1.1c-1.6,0,-5.3,-1,-8.6,-.9c-1.1,.1,-5.4,2,-9,5.8c-3.3,3.5,-7.8,12.5,-8.9,14.5c-.7,1.8,.2,5.2,2.7,8.4c2,2.7,3.3,5.4,6.4,8.5c5.6,5.7,12.3,4.9,17.6,4.9c6.2,0,10.3,.1,15.1,-2.7c1.7,-.9,3.7,-2.9,5,-4.7c2.3,-3.1,4.3,-7,5.4,-9.8c.5,-1.5,.7,-2.7,.7,-3.8c0,-1.9,-2.6,-7.2,-4.7,-9.7Z" class="gx_24"/>
</g>
<path d="M701.3,1054.4c-5.6,-1.2,-10.6,-3.1,-13.8,-3c-3.5,-.1,-4.8,1.5,-8.4,1.4c-2,0,-4.7,-1.4,-9.2,-1.4c-2.8,0,-7.2,.9,-11.9,2.7c-5.3,2,-11.7,1.6,-13.2,2.7c0,.6,.3,1.9,4.2,5.1c1.6,1.3,2.6,1.4,8.2,6.8c6.9,6.4,15.3,7.1,22,7.1c7.9,0,15.3,-.3,20.9,-5.2c3.5,-3,5.6,-4.8,10.8,-9.4c2,-1.8,2,-3,2.2,-4.1c.3,-1.3,-6.3,-1.5,-11.8,-2.7Z" class="gg_24"/>
<path d="M650.3,1061.3c.1,-.6,.5,-1,1.1,-1.2c1.7,-.5,2.2,-.1,2.5,.4c.3,.4,.3,.5,.6,.9c.3,.4,.4,.7,-1.1,3.2c-.3,.6,-3.1,-1,-3.6,-1.9c-.2,-.5,.2,.3,.5,-1.4Z" class="g7_24"/>
<path d="M650.3,1061.3c.1,-.6,.5,-1,1.1,-1.2c1.7,-.5,2.2,-.1,2.5,.4c.3,.4,.3,.5,.6,.9c.3,.4,.4,.7,-1.1,3.2c-.3,.6,-3.1,-1,-3.6,-1.9c-.2,-.5,.2,.3,.5,-1.4Z" class="gp_24"/>
<path d="M656.7,1061.4c-.3,-1,-2.3,-.5,-2.8,-.4c-.5,.1,-1.3,1.8,-1.1,3.2c.3,1.5,2.4,2.2,3.3,2.7c.9,.5,1.1,-2.8,1.2,-3.7c.1,-.8,.3,-1.3,-.6,-1.8Z" class="g7_24"/>
<path d="M656.7,1061.4c-.3,-1,-2.3,-.5,-2.8,-.4c-.5,.1,-1.3,1.8,-1.1,3.2c.3,1.5,2.4,2.2,3.3,2.7c.9,.5,1.1,-2.8,1.2,-3.7c.1,-.8,.3,-1.3,-.6,-1.8Z" class="gp_24"/>
<path d="M708.8,1060.9c0,-.6,-.5,-1,-1,-1.1c-1.7,-.6,-2.3,-.1,-2.5,.3c-.3,.4,-.3,.5,-.6,.9c-.4,.4,1.2,7.8,1.6,4.9c.2,-1,2.8,-3.2,2.5,-5Z" class="g7_24"/>
<path d="M708.8,1060.9c0,-.6,-.5,-1,-1,-1.1c-1.7,-.6,-2.3,-.1,-2.5,.3c-.3,.4,-.3,.5,-.6,.9c-.4,.4,1.2,7.8,1.6,4.9c.2,-1,2.8,-3.2,2.5,-5Z" class="gp_24"/>
<path d="M705.7,1061.9c-.1,-.6,-.7,-1.6,-1.3,-1.7c-1.7,-.6,-2,.5,-2.3,.9c-.3,.4,-.6,.8,-1,1.2c-.3,.4,.2,2.6,1.7,5.1c.3,.6,2.6,-1.5,3.1,-2.3c.3,-.5,0,-1.4,-.2,-3.2Z" class="g7_24"/>
<path d="M705.7,1061.9c-.1,-.6,-.7,-1.6,-1.3,-1.7c-1.7,-.6,-2,.5,-2.3,.9c-.3,.4,-.6,.8,-1,1.2c-.3,.4,.2,2.6,1.7,5.1c.3,.6,2.6,-1.5,3.1,-2.3c.3,-.5,0,-1.4,-.2,-3.2Z" class="gp_24"/>
<path d="M662,1064.1c-.3,-.9,-.2,-1.5,-1.1,-2.1c-.7,-.5,-3,.3,-3.5,.4c-.5,.1,-1,2.5,-1.3,4c-.3,1.5,3.8,4,4.7,4.5c.9,.5,1.1,-2.9,1.2,-3.7c.1,-.8,.9,-2.5,0,-3.1Z" class="g7_24"/>
<path d="M662,1064.1c-.3,-.9,-.2,-1.5,-1.1,-2.1c-.7,-.5,-3,.3,-3.5,.4c-.5,.1,-1,2.5,-1.3,4c-.3,1.5,3.8,4,4.7,4.5c.9,.5,1.1,-2.9,1.2,-3.7c.1,-.8,.9,-2.5,0,-3.1Z" class="gp_24"/>
<path d="M666.8,1068.1c-.3,-1.3,.6,-2.7,.2,-3.5c-.3,-.6,-3.6,-2,-5.1,-1c-.5,.3,-1.3,3,-1,4.5c.1,1.3,.5,.4,1.4,1c1.7,1,4.4,1,4.5,-1Z" class="g7_24"/>
<path d="M666.8,1068.1c-.3,-1.3,.6,-2.7,.2,-3.5c-.3,-.6,-3.6,-2,-5.1,-1c-.5,.3,-1.3,3,-1,4.5c.1,1.3,.5,.4,1.4,1c1.7,1,4.4,1,4.5,-1Z" class="gp_24"/>
<path d="M701.4,1063.5c-.1,-.6,-.7,-1.6,-1.3,-1.8c-1.6,-.5,-2,.5,-2.3,1c-.3,.4,-.6,.7,-.9,1.2c-.4,.4,.1,2.6,1.6,5.1c.4,.6,3.2,-.7,3.7,-1.6c.3,-.4,0,-2.2,-.8,-3.9Z" class="g7_24"/>
<path d="M701.4,1063.5c-.1,-.6,-.7,-1.6,-1.3,-1.8c-1.6,-.5,-2,.5,-2.3,1c-.3,.4,-.6,.7,-.9,1.2c-.4,.4,.1,2.6,1.6,5.1c.4,.6,3.2,-.7,3.7,-1.6c.3,-.4,0,-2.2,-.8,-3.9Z" class="gp_24"/>
<path d="M696.1,1063.2c-1.7,-.5,-2,.1,-2.2,.5c-.3,.5,-.8,1.2,-1.2,1.6c-.3,.4,-.5,2.4,1,4.9c.4,.6,4,-1,4.4,-1.8c.5,-.9,-.6,-4.9,-2,-5.2Z" class="g7_24"/>
<path d="M696.1,1063.2c-1.7,-.5,-2,.1,-2.2,.5c-.3,.5,-.8,1.2,-1.2,1.6c-.3,.4,-.5,2.4,1,4.9c.4,.6,4,-1,4.4,-1.8c.5,-.9,-.6,-4.9,-2,-5.2Z" class="gp_24"/>
<path d="M686.5,1068.6c1.3,0,6.9,1.3,7,0c.1,-1.6,-.4,-4.1,-1.4,-4.3c-1,-.2,-3.7,.5,-4.8,.7c-1.1,.2,-1,.9,-1,1.8c-.1,.8,.2,1.8,.2,1.8Z" class="g7_24"/>
<path d="M686.5,1068.6c1.3,0,6.9,1.3,7,0c.1,-1.6,-.4,-4.1,-1.4,-4.3c-1,-.2,-3.7,.5,-4.8,.7c-1.1,.2,-1,.9,-1,1.8c-.1,.8,.2,1.8,.2,1.8Z" class="gp_24"/>
<path d="M666.2,1068.5c.2,-1.6,.3,-4.3,1.6,-4.3c1.3,0,1.6,.3,2.4,.4c.8,.1,2.7,.3,2.5,1.5c-.2,1.3,-.3,2.9,-.3,2.9c0,0,-6.6,2.3,-6.2,-.5Z" class="g7_24"/>
<path d="M666.2,1068.5c.2,-1.6,.3,-4.3,1.6,-4.3c1.3,0,1.6,.3,2.4,.4c.8,.1,2.7,.3,2.5,1.5c-.2,1.3,-.3,2.9,-.3,2.9c0,0,-6.6,2.3,-6.2,-.5Z" class="gp_24"/>
<path d="M672.4,1068.7c-.1,-.3,-.1,-2.6,.3,-3.3c.2,-.4,.9,-.6,1.8,-.5c2.1,.4,3.8,0,4.5,.6c.3,.2,.4,3,.2,3.7c-.2,.6,-6.8,-.5,-6.8,-.5Z" class="g7_24"/>
<path d="M672.4,1068.7c-.1,-.3,-.1,-2.6,.3,-3.3c.2,-.4,.9,-.6,1.8,-.5c2.1,.4,3.8,0,4.5,.6c.3,.2,.4,3,.2,3.7c-.2,.6,-6.8,-.5,-6.8,-.5Z" class="gp_24"/>
<path d="M679.3,1066c0,-.5,.1,-.7,.7,-.9c.6,-.2,1.6,0,2.8,-.1c1.2,-.2,2.2,-.1,2.7,0c.8,.3,1.1,1,1.1,1c0,.5,.3,3.2,.3,3.2c0,0,-7.2,.2,-7.5,.2c-.3,-.1,-.2,-2.6,-.1,-3.4Z" class="g7_24"/>
<path d="M679.3,1066c0,-.5,.1,-.7,.7,-.9c.6,-.2,1.6,0,2.8,-.1c1.2,-.2,2.2,-.1,2.7,0c.8,.3,1.1,1,1.1,1c0,.5,.3,3.2,.3,3.2c0,0,-7.2,.2,-7.5,.2c-.3,-.1,-.2,-2.6,-.1,-3.4Z" class="gp_24"/>
<path d="M702.6,1058.2c.4,.9,.6,.8,1.8,1c1.2,.2,2.1,-.7,2.3,-1.5c.1,-.4,-2.8,-2.5,-4.3,-1.9c-1.5,.7,.2,2.4,.2,2.4Z" class="g7_24"/>
<path d="M702.6,1058.2c.4,.9,.6,.8,1.8,1c1.2,.2,2.1,-.7,2.3,-1.5c.1,-.4,-2.8,-2.5,-4.3,-1.9c-1.5,.7,.2,2.4,.2,2.4Z" class="gp_24"/>
<path d="M651.7,1058.7c.5,.2,1.3,1.2,2.5,1.4c1.2,.2,1.4,-.4,1.7,-.8c.3,-.4,1.2,-2,1.2,-2c0,0,-3,-.8,-4.5,-.2c-1.5,.7,-.9,1.6,-.9,1.6Z" class="g7_24"/>
<path d="M651.7,1058.7c.5,.2,1.3,1.2,2.5,1.4c1.2,.2,1.4,-.4,1.7,-.8c.3,-.4,1.2,-2,1.2,-2c0,0,-3,-.8,-4.5,-.2c-1.5,.7,-.9,1.6,-.9,1.6Z" class="gp_24"/>
<path d="M654.2,1056.3c.4,2.9,1.9,3.6,2.3,4.1c.4,.5,1.7,.6,3.6,-.6c2,-1.3,.5,-5.5,.5,-5.5Z" class="g7_24"/>
<path d="M654.2,1056.3c.4,2.9,1.9,3.6,2.3,4.1c.4,.5,1.7,.6,3.6,-.6c2,-1.3,.5,-5.5,.5,-5.5l-6.4,2Z" class="gp_24"/>
<path d="M702.8,1056.7c-.3,.7,.6,.8,-.1,2.3c-.6,1.2,-1.1,1.6,-1.8,1.6c-1.2,.2,-2.7,0,-3.4,-1.4c-.7,-1.4,.5,-4.2,.5,-4.2c0,0,4.7,.3,4.8,1.7Z" class="g7_24"/>
<path d="M702.8,1056.7c-.3,.7,.6,.8,-.1,2.3c-.6,1.2,-1.1,1.6,-1.8,1.6c-1.2,.2,-2.7,0,-3.4,-1.4c-.7,-1.4,.5,-4.2,.5,-4.2c0,0,4.7,.3,4.8,1.7Z" class="gp_24"/>
<path d="M689.8,1061.8c.2,.5,.5,1,.8,1.2c.2,.1,1.5,.2,3.3,-.2c1.2,-.3,2.6,-.9,3.3,-1.4c.5,-.4,.6,-.9,.6,-1.4c.1,-.6,.4,-3.6,-.3,-5.5c-.6,-1.9,-8.1,-.6,-8.4,.5c-.3,1.2,.7,6.8,.7,6.8Z" class="g7_24"/>
<path d="M689.8,1061.8c.2,.5,.5,1,.8,1.2c.2,.1,1.5,.2,3.3,-.2c1.2,-.3,2.6,-.9,3.3,-1.4c.5,-.4,.6,-.9,.6,-1.4c.1,-.6,.4,-3.6,-.3,-5.5c-.6,-1.9,-8.1,-.6,-8.4,.5c-.3,1.2,.7,6.8,.7,6.8Z" class="gp_24"/>
<path d="M667.8,1061.7c-.2,.6,-.5,.9,-.7,1.1c-.2,.1,-1.9,.7,-3.5,.3c-1.2,-.3,-2.7,-.4,-3.4,-1c-.4,-.3,-.5,-.8,-.5,-1.4c-.1,-.5,-.5,-4.2,.1,-6.1c.6,-1.9,8.3,-.6,8.6,.5c.2,1.1,-.6,6.6,-.6,6.6Z" class="g7_24"/>
<path d="M667.8,1061.7c-.2,.6,-.5,.9,-.7,1.1c-.2,.1,-1.9,.7,-3.5,.3c-1.2,-.3,-2.7,-.4,-3.4,-1c-.4,-.3,-.5,-.8,-.5,-1.4c-.1,-.5,-.5,-4.2,.1,-6.1c.6,-1.9,8.3,-.6,8.6,.5c.2,1.1,-.6,6.6,-.6,6.6Z" class="gp_24"/>
<path d="M678.7,1057c.1,.4,.2,1,.3,1.6c.1,1.5,.1,4.9,.1,4.9c0,0,-.2,.6,-.5,.8c-2.2,.9,-9.1,.9,-10.2,-.7c-1,-1.7,-.7,-5.7,-.4,-6.9l.3,-2.3c.5,-.6,9.8,1,10.4,2.6Z" class="g7_24"/>
<path d="M678.7,1057c.1,.4,.2,1,.3,1.6c.1,1.5,.1,4.9,.1,4.9c0,0,-.2,.6,-.5,.8c-2.2,.9,-9.1,.9,-10.2,-.7c-1,-1.7,-.7,-5.7,-.4,-6.9l.3,-2.3c.5,-.6,9.8,1,10.4,2.6Z" class="gp_24"/>
<path d="M689.1,1055.2c.5,.7,.7,3.9,.7,4.8c0,1,0,2.5,-.6,3.4c-1.2,.7,-3.5,1.1,-5.1,1.3c-2.1,.2,-3.7,-.2,-4,-.4c-.5,-.2,-1,-.5,-1,-1.2c0,-1,-.1,-3.3,0,-4.7c0,-.9,.1,-1.6,.2,-1.8c.2,-.8,8.9,-2.9,9.8,-1.4Z" class="g7_24"/>
<path d="M689.1,1055.2c.5,.7,.7,3.9,.7,4.8c0,1,0,2.5,-.6,3.4c-1.2,.7,-3.5,1.1,-5.1,1.3c-2.1,.2,-3.7,-.2,-4,-.4c-.5,-.2,-1,-.5,-1,-1.2c0,-1,-.1,-3.3,0,-4.7c0,-.9,.1,-1.6,.2,-1.8c.2,-.8,8.9,-2.9,9.8,-1.4Z" class="gp_24"/>
<g clip-path="url(#cf_24)">
<path d="M706.9,1061.3c-1.5,1,-4.3,3.1,-9.4,4.1c-5.9,1.2,-11,1.1,-17.5,1.1c-8.1,0,-15.7,.4,-22.1,-2c-4.6,-1.7,-6,-3.2,-9.5,-4.8c-1.9,-.9,-2.8,-1.6,-2.2,-2.4c.5,-.8,7.5,.8,10.9,.6c3.5,-.2,5.6,-.4,8.1,-.4c4.8,.1,9.3,1.3,13.8,1.3c4.9,.1,8.4,-1.2,13.1,-1.3c2.7,-.1,4.5,-.2,8.4,.1c3.3,.2,6.5,-.6,8.6,-.5c1.7,.1,2.7,-.1,3.3,.7c.1,1.6,-2.2,1.3,-5.5,3.5m-5.2,-7.3c-4.9,-1.3,-9.7,-3.4,-14.2,-3.2c-3.5,-.1,-4,1.3,-8.3,1.3c-3.1,0,-3.8,-1.3,-8.3,-1.3c-2.8,0,-7.1,.4,-13,2.3c-5.5,1.8,-12.9,2.3,-13.1,4.1c-.3,1.4,.2,2.3,4.1,5.7c1.7,1.5,4.3,3.6,8.4,7.3c7.2,6.8,15.2,6.9,21.9,6.9c7.9,0,16.1,0,21.7,-5.4c5.5,-5.3,6.7,-6.8,9.8,-9.8c2,-2,3,-2.9,2.8,-4.1c-.3,-2.5,-6.4,-2.3,-11.8,-3.8Z" class="gi_24"/>
<path d="M706.9,1061.3c-1.5,1,-4.3,3.1,-9.4,4.1c-5.9,1.2,-11,1.1,-17.5,1.1c-8.1,0,-15.7,.4,-22.1,-2c-4.6,-1.7,-6,-3.2,-9.5,-4.8c-1.9,-.9,-2.8,-1.6,-2.2,-2.4c.5,-.8,7.5,.8,10.9,.6c3.5,-.2,5.6,-.4,8.1,-.4c4.8,.1,9.3,1.3,13.8,1.3c4.9,.1,8.4,-1.2,13.1,-1.3c2.7,-.1,4.5,-.2,8.4,.1c3.3,.2,6.5,-.6,8.6,-.5c1.7,.1,2.7,-.1,3.3,.7c.1,1.6,-2.2,1.3,-5.5,3.5Zm-5.2,-7.3c-4.9,-1.3,-9.7,-3.4,-14.2,-3.2c-3.5,-.1,-4,1.3,-8.3,1.3c-3.1,0,-3.8,-1.3,-8.3,-1.3c-2.8,0,-7.1,.4,-13,2.3c-5.5,1.8,-12.9,2.3,-13.1,4.1c-.3,1.4,.2,2.3,4.1,5.7c1.7,1.5,4.3,3.6,8.4,7.3c7.2,6.8,15.2,6.9,21.9,6.9c7.9,0,16.1,0,21.7,-5.4c5.5,-5.3,6.7,-6.8,9.8,-9.8c2,-2,3,-2.9,2.8,-4.1c-.3,-2.5,-6.4,-2.3,-11.8,-3.8Z" class="gp_24"/>
</g>
<path d="M785.6,1056.8c-2.8,-3,-5.2,-5,-7.7,-6.8c-3.2,-2.2,-5.4,-3.4,-9,-3.3c-2.2,0,-2.8,.9,-5.5,.9c-2.3,0,-2.9,-.9,-6,-.9c-3.1,0,-6.7,2.6,-9.2,4.6c-1.9,1.3,-5,5.2,-6.3,6.9c-.8,1.3,-3.7,3.9,-3.7,5.2c0,0,1.1,2.7,1.7,3.6c.7,1.2,2.5,5.2,3.9,6.9c5.4,6.7,11,8.3,18.6,8.3c5,0,8.2,.1,11.4,-.7c3.4,-.9,5.9,-2.3,8.4,-4.7c2.7,-2.5,4.9,-7.8,6.2,-9.9c.9,-1.7,1.6,-3.3,1.6,-3.3c0,-1.5,-1.6,-3.8,-4.4,-6.8Z" class="gi_24"/>
<path d="M785.6,1056.8c-2.8,-3,-5.2,-5,-7.7,-6.8c-3.2,-2.2,-5.4,-3.4,-9,-3.3c-2.2,0,-2.8,.9,-5.5,.9c-2.3,0,-2.9,-.9,-6,-.9c-3.1,0,-6.7,2.6,-9.2,4.6c-1.9,1.3,-5,5.2,-6.3,6.9c-.8,1.3,-3.7,3.9,-3.7,5.2c0,0,1.1,2.7,1.7,3.6c.7,1.2,2.5,5.2,3.9,6.9c5.4,6.7,11,8.3,18.6,8.3c5,0,8.2,.1,11.4,-.7c3.4,-.9,5.9,-2.3,8.4,-4.7c2.7,-2.5,4.9,-7.8,6.2,-9.9c.9,-1.7,1.6,-3.3,1.6,-3.3c0,-1.5,-1.6,-3.8,-4.4,-6.8Z" class="gy_24"/>
<path d="M776,1063.1c0,0,-1.1,.5,-2.2,1.1c-1.1,.6,-2.6,1,-3.2,1.3c-1.3,.4,-3.7,1,-5.4,1c-3.4,.1,-5.4,-.6,-6.9,-1c-.7,-.1,-1.7,-.5,-2.4,-1c-1.7,-1.2,-3.4,-1.9,-3.4,-1.9c1.6,-.7,2.4,-1.2,3.8,-1.7c1.4,-.6,2.4,-1.1,3.2,-1.4c2.7,-.8,2.7,-.1,4.9,-.1c2.3,0,3.3,-.7,5.9,.9l2.4,1.3c.2,.4,3.3,1.5,3.3,1.5Z" class="gg_24"/>
<path d="M739.4,1063.3c2.2,.5,6.7,.9,10.1,.2c2.5,-.4,9.2,-3.7,10,-4c2,-.5,2,-.1,4.9,-.1c2.3,0,3.6,-.9,6.3,1.2c0,0,4.2,2.2,5.7,2.7c3.2,1,9.4,-.4,11.3,-.1c2.1,.4,1.4,.1,1.4,.2m-13.1,-.2c-1.7,.5,-4.6,2,-5.4,2.3c-1.3,.4,-3.2,.9,-5.4,1c-3.4,.1,-4.7,-.5,-6.3,-.8c-2.5,-.6,-5.4,-2.9,-6.2,-3.1" class="gz_24"/>
<path d="M758.8,1069.2c-.6,.5,-.4,1.5,-.9,4.1c-.8,4.1,-.1,5.5,.2,6.5m10.7,-11.5c.6,.5,1.5,2.4,1.9,5c.8,4.1,.1,5.5,-.2,6.5m6.2,-13.9c0,0,2.9,1.3,4,2.8c1.1,1.4,1.6,3.3,1.6,3.3m-19.8,-2.5c-.2,.9,-.7,5.8,-.5,8.3m-8.9,-12.6c-1,.4,-2.7,2.4,-3.9,3.5c-1.2,1,-2.2,3.7,-2.2,3.7M768.3,1058c.7,-.6,2.3,-2.4,3.4,-3.5c0,0,1.6,-2.2,2,-3.9m-15.6,7.1c-.6,-.5,-2.1,-1.7,-3.1,-2.7c-1,-1,-2.1,-2.6,-2.8,-4.2m22.5,9.4c1.8,.5,3.3,-.9,5,-1.2c1.7,-.2,3.3,-1.2,3.9,-2M749,1055.3c.1,.3,1.1,1.2,2.7,1.9c1.2,.5,3,1.9,4.1,1.9" class="gm_24"/>
<path d="M776,1063.2c3.2,1,9.8,-.3,11.7,0c2.1,.4,1.4,.1,1.4,.2m-49.7,-.1c2.2,.5,8.5,1.2,13.2,-.7" class="g10_24"/>
<path d="M32.1,45.1H9.2m958.3,0h22.9M32.1,1331.3H9.2m958.3,0h22.9M45.1,32.1V9.2m0,1335.1v22.9M954.5,32.1V9.2m0,1335.1v22.9" class="g11_24"/>
<path d="M32.1,45.1H9.2m958.3,0h22.9M32.1,1331.3H9.2m958.3,0h22.9M45.1,32.1V9.2m0,1335.1v22.9M954.5,32.1V9.2m0,1335.1v22.9" class="g12_24"/>
<path d="M27.5,32.1H0m972.1,0h27.5M27.5,1344.3H0m972.1,0h27.5M32.1,27.5V0m0,1348.9v27.5M967.5,27.5V0m0,1348.9v27.5" class="g11_24"/>
<path d="M27.5,32.1H0m972.1,0h27.5M27.5,1344.3H0m972.1,0h27.5M32.1,27.5V0m0,1348.9v27.5M967.5,27.5V0m0,1348.9v27.5" class="g12_24"/>
</svg>