<?xml version="1.0" encoding="UTF-8" standalone="no"?>
<!DOCTYPE svg PUBLIC "-//W3C//DTD SVG 1.1//EN"
"http://www.w3.org/Graphics/SVG/1.1/DTD/svg11.dtd">
<svg viewBox="0 0 999 1376" version="1.1" xmlns="http://www.w3.org/2000/svg" xmlns:xlink="http://www.w3.org/1999/xlink">
<defs>
<clipPath id="c0_27"><path d="M32.1,1344.3V32.1H967.5V1344.3Z"/></clipPath>
<clipPath id="c1_27"><path d="M203.3,326.2l-6.5,-2.1L182.7,312.9V252h62.7v74.2Z"/></clipPath>
<clipPath id="c2_27"><path d="M202.2,1191.7l-6.5,-2l-14.1,-11.2v-60.9h62.7v74.1Z"/></clipPath>
<style type="text/css"><![CDATA[
.g0_27{
fill: #FFFDEA;
}
.g1_27{
fill: #BCE4EA;
}
.g2_27{
fill: #BCBEC0;
}
.g3_27{
fill: #00AABD;
}
.g4_27{
fill: #FCDCBA;
}
.g5_27{
fill: #DED3E8;
}
.g6_27{
fill: #FFF;
}
.g7_27{
fill: none;
stroke: #FFF;
stroke-width: 0.305;
stroke-miterlimit: 10;
}
.g8_27{
fill: none;
stroke: #6D6F71;
stroke-width: 0.305;
stroke-miterlimit: 10;
}
.g9_27{
fill: none;
stroke: #6D6F71;
stroke-width: 0.152;
stroke-miterlimit: 10;
}
.ga_27{
fill: none;
stroke: #D1232A;
stroke-width: 0.763;
}
.gb_27{
fill: none;
stroke: #FFF;
stroke-width: 1.909;
stroke-miterlimit: 10;
}
.gc_27{
fill: none;
stroke: #000;
stroke-width: 0.381;
stroke-miterlimit: 10;
}
]]></style>
</defs>
<g clip-path="url(#c0_27)">
<path d="M-877.3,1344.3H967.5V32.1H-877.3V1344.3Z" class="g0_27"/>
<path d="M-877.3,179.3H967.5V32.1H-877.3V179.3Z" class="g1_27"/>
<path d="M967.5,177.2H-877.3v-5.4h736.6c43.1,0,53.1,-37.9,115.3,-37.9H967.5Z" class="g2_27"/>
<path d="M967.5,183.7H-877.3v-9.8h736.6c43.1,0,53.1,-33.6,115.3,-33.6H967.5Z" class="g3_27"/>
</g>
<path d="M235.9,215.7c0,0,-13,0,-13,12.9v91c0,0,0,13,13,13H855.2c0,0,13,0,13,-13v-91c0,0,0,-12.9,-13,-12.9Z" class="g4_27"/>
<image clip-path="url(#c1_27)" preserveAspectRatio="none" x="183" y="251" width="62" height="77" xlink:href="img/1.png"/>
<path d="M230.7,321.5c0,0,-26.9,11.3,-51.1,-12.8c0,0,15.1,25.3,49.3,24c0,0,24.7,.3,20.2,-10.1c0,0,1.2,-4.5,-18.4,-1.1Z" class="g4_27"/>
<path d="M179.5,357.5H287.7v39H179.5v-39Zm108.2,0H396v39H287.7v-39Zm108.3,0H867.8v39H396v-39Z" class="g5_27"/>
<path d="M179.5,396.5H287.7v69.3H179.5V396.5Zm108.2,0H396v69.3H287.7V396.5Zm108.3,0h78.6v69.3H396V396.5Zm78.6,0h78.7v69.3H474.6V396.5Zm78.7,0h78.6v69.3H553.3V396.5Zm78.6,0h78.6v69.3H631.9V396.5Zm78.6,0h78.6v69.3H710.5V396.5Zm78.6,0h78.7v69.3H789.1V396.5ZM179.5,465.8H287.7v69.3H179.5V465.8Zm108.2,0H396v69.3H287.7V465.8Zm108.3,0h78.6v69.3H396V465.8Zm78.6,0h78.7v69.3H474.6V465.8Zm78.7,0h78.6v69.3H553.3V465.8Zm78.6,0h78.6v69.3H631.9V465.8Zm78.6,0h78.6v69.3H710.5V465.8Zm78.6,0h78.7v69.3H789.1V465.8ZM179.5,535.1H287.7v69.3H179.5V535.1Zm108.2,0H396v69.3H287.7V535.1Zm108.3,0h78.6v69.3H396V535.1Zm78.6,0h78.7v69.3H474.6V535.1Zm78.7,0h78.6v69.3H553.3V535.1Zm78.6,0h78.6v69.3H631.9V535.1Zm78.6,0h78.6v69.3H710.5V535.1Zm78.6,0h78.7v69.3H789.1V535.1ZM179.5,604.4H287.7v69.3H179.5V604.4Zm108.2,0H396v69.3H287.7V604.4Zm108.3,0h78.6v69.3H396V604.4Zm78.6,0h78.7v69.3H474.6V604.4Zm78.7,0h78.6v69.3H553.3V604.4Zm78.6,0h78.6v69.3H631.9V604.4Zm78.6,0h78.6v69.3H710.5V604.4Zm78.6,0h78.7v69.3H789.1V604.4ZM179.5,673.7H287.7V743H179.5V673.7Zm108.2,0H396V743H287.7V673.7Zm108.3,0h78.6V743H396V673.7Zm78.6,0h78.7V743H474.6V673.7Zm78.7,0h78.6V743H553.3V673.7Zm78.6,0h78.6V743H631.9V673.7Zm78.6,0h78.6V743H710.5V673.7Zm78.6,0h78.7V743H789.1V673.7ZM179.5,743H287.7v69.3H179.5V743Zm108.2,0H396v69.3H287.7V743ZM396,743h78.6v69.3H396V743Zm78.6,0h78.7v69.3H474.6V743Zm78.7,0h78.6v69.3H553.3V743Zm78.6,0h78.6v69.3H631.9V743Zm78.6,0h78.6v69.3H710.5V743Zm78.6,0h78.7v69.3H789.1V743ZM179.5,812.3H287.7v69.3H179.5V812.3Zm108.2,0H396v69.3H287.7V812.3Zm108.3,0h78.6v69.3H396V812.3Zm78.6,0h78.7v69.3H474.6V812.3Zm78.7,0h78.6v69.3H553.3V812.3Zm78.6,0h78.6v69.3H631.9V812.3Zm78.6,0h78.6v69.3H710.5V812.3Zm78.6,0h78.7v69.3H789.1V812.3ZM179.5,881.6H287.7v69.2H179.5V881.6Zm108.2,0H396v69.2H287.7V881.6Zm108.3,0h78.6v69.2H396V881.6Zm78.6,0h78.7v69.2H474.6V881.6Zm78.7,0h78.6v69.2H553.3V881.6Zm78.6,0h78.6v69.2H631.9V881.6Zm78.6,0h78.6v69.2H710.5V881.6Zm78.6,0h78.7v69.2H789.1V881.6ZM179.5,950.8H287.7v69.3H179.5V950.8Zm108.2,0H396v69.3H287.7V950.8Zm108.3,0h78.6v69.3H396V950.8Zm78.6,0h78.7v69.3H474.6V950.8Zm78.7,0h78.6v69.3H553.3V950.8Zm78.6,0h78.6v69.3H631.9V950.8Zm78.6,0h78.6v69.3H710.5V950.8Zm78.6,0h78.7v69.3H789.1V950.8Zm-609.6,69.3H287.7v69.3H179.5v-69.3Zm108.2,0H396v69.3H287.7v-69.3Zm108.3,0h78.6v69.3H396v-69.3Zm78.6,0h78.7v69.3H474.6v-69.3Zm78.7,0h78.6v69.3H553.3v-69.3Zm78.6,0h78.6v69.3H631.9v-69.3Zm78.6,0h78.6v69.3H710.5v-69.3Zm78.6,0h78.7v69.3H789.1v-69.3Z" class="g6_27"/>
<path d="M396,396.4V357.7" class="g7_27"/>
<path d="M179.3,357.5H287.7M179.5,396.4V357.7m108.2,-.2H396M287.7,396.4V357.7M396,357.5h78.6m0,0h78.7m0,0h78.6m0,0h78.6m0,0h78.6m0,0h78.8m-.1,38.9V357.7M179.3,396.5H287.7M179.5,465.6V396.7m108.2,-.2H396M287.7,465.6V396.7M396,396.5h78.6M396,465.6V396.7m78.6,-.2h78.7m-78.7,69.1V396.7m78.7,-.2h78.6m-78.6,69.1V396.7m78.6,-.2h78.6m-78.6,69.1V396.7m78.6,-.2h78.6m-78.6,69.1V396.7m78.6,-.2h78.8m-78.8,69.1V396.7m78.7,68.9V396.7M179.3,465.8H287.7M179.5,534.9V466m108.2,-.2H396M287.7,534.9V466M396,465.8h78.6M396,534.9V466m78.6,-.2h78.7m-78.7,69.1V466m78.7,-.2h78.6m-78.6,69.1V466m78.6,-.2h78.6m-78.6,69.1V466m78.6,-.2h78.6m-78.6,69.1V466m78.6,-.2h78.8m-78.8,69.1V466m78.7,68.9V466M179.3,535.1H287.7M179.5,604.2v-69m108.2,-.1H396M287.7,604.2v-69M396,535.1h78.6M396,604.2v-69m78.6,-.1h78.7m-78.7,69.1v-69m78.7,-.1h78.6m-78.6,69.1v-69m78.6,-.1h78.6m-78.6,69.1v-69m78.6,-.1h78.6m-78.6,69.1v-69m78.6,-.1h78.8m-78.8,69.1v-69m78.7,69v-69M179.3,604.4H287.7M179.5,673.5v-69m108.2,-.1H396M287.7,673.5v-69M396,604.4h78.6M396,673.5v-69m78.6,-.1h78.7m-78.7,69.1v-69m78.7,-.1h78.6m-78.6,69.1v-69m78.6,-.1h78.6m-78.6,69.1v-69m78.6,-.1h78.6m-78.6,69.1v-69m78.6,-.1h78.8m-78.8,69.1v-69m78.7,69v-69M179.3,673.7H287.7M179.5,742.8v-69m108.2,-.1H396M287.7,742.8v-69M396,673.7h78.6M396,742.8v-69m78.6,-.1h78.7m-78.7,69.1v-69m78.7,-.1h78.6m-78.6,69.1v-69m78.6,-.1h78.6m-78.6,69.1v-69m78.6,-.1h78.6m-78.6,69.1v-69m78.6,-.1h78.8m-78.8,69.1v-69m78.7,69v-69M179.3,743H287.7M179.5,812.1v-69M287.7,743H396M287.7,812.1v-69M396,743h78.6M396,812.1v-69m78.6,-.1h78.7m-78.7,69.1v-69m78.7,-.1h78.6m-78.6,69.1v-69m78.6,-.1h78.6m-78.6,69.1v-69m78.6,-.1h78.6m-78.6,69.1v-69m78.6,-.1h78.8m-78.8,69.1v-69m78.7,69v-69M179.3,812.3H287.7M179.5,881.4v-69m108.2,-.1H396M287.7,881.4v-69M396,812.3h78.6M396,881.4v-69m78.6,-.1h78.7m-78.7,69.1v-69m78.7,-.1h78.6m-78.6,69.1v-69m78.6,-.1h78.6m-78.6,69.1v-69m78.6,-.1h78.6m-78.6,69.1v-69m78.6,-.1h78.8m-78.8,69.1v-69m78.7,69v-69M179.3,881.6H287.7M179.5,950.7v-69m108.2,-.1H396M287.7,950.7v-69M396,881.6h78.6M396,950.7v-69m78.6,-.1h78.7m-78.7,69.1v-69m78.7,-.1h78.6m-78.6,69.1v-69m78.6,-.1h78.6m-78.6,69.1v-69m78.6,-.1h78.6m-78.6,69.1v-69m78.6,-.1h78.8m-78.8,69.1v-69m78.7,69v-69M179.3,950.8H287.7M179.5,1020V951m108.2,-.2H396M287.7,1020V951M396,950.8h78.6M396,1020V951m78.6,-.2h78.7M474.6,1020V951m78.7,-.2h78.6M553.3,1020V951m78.6,-.2h78.6M631.9,1020V951m78.6,-.2h78.6M710.5,1020V951m78.6,-.2h78.8M789.1,1020V951m78.7,69V951m-688.5,69.1H287.7m-108.2,69.2v-69m108.2,-.2H396m-108.3,69.2v-69m108.3,-.2h78.6M396,1089.3v-69m78.6,-.2h78.7m-78.7,69.2v-69m78.7,-.2h78.6m-78.6,69.2v-69m78.6,-.2h78.6m-78.6,69.2v-69m78.6,-.2h78.6m-78.6,69.2v-69m78.6,-.2h78.8m-78.8,69.2v-69m78.7,69v-69m-688.5,69.1H287.7m0,0H396m0,0h78.6m0,0h78.7m0,0h78.6m0,0h78.6m0,0h78.6m0,0h78.8" class="g8_27"/>
<path d="M395.9,396.4V357.7m.2,38.7V357.7" class="g9_27"/>
<path d="M234.8,1146.7c0,0,-13,0,-13,13v21.7c0,0,0,13,13,13h619c0,0,13,0,13,-13v-21.7c0,0,0,-13,-13,-13Z" class="g4_27"/>
<image clip-path="url(#c2_27)" preserveAspectRatio="none" x="182" y="1117" width="62" height="76" xlink:href="img/2.png"/>
<path d="M229.6,1187c0,0,-26.9,11.3,-51.1,-12.7c0,0,15.1,25.3,49.3,23.9c0,0,24.7,.4,20.2,-10.1c0,0,1.2,-4.4,-18.4,-1.1Z" class="g4_27"/>
<path d="M350.2,418.8v23.8M347.7,438l2.4,4.9l2.7,-4.8m-19,50v23.8m-2.5,-4.6l2.4,4.8l2.7,-4.7m6.4,-2.3h9.5m-4.6,2.5l4.9,-2.4l-4.8,-2.7m2,123.8v23.8m-2.5,-4.7l2.5,4.9l2.7,-4.8M330.9,631.9h9.5m-4.6,2.5l4.8,-2.4l-4.8,-2.7m-6.4,145.8h23.8m-4.6,2.5l4.8,-2.4l-4.8,-2.7m-19,84.5h23.8m-4.6,2.5l4.8,-2.4l-4.7,-2.7m-1.5,-16.8v11.3M345,844.2l2.4,4.9l2.7,-4.8m-20.3,82h23.8m-4.6,2.5l4.9,-2.5l-4.8,-2.6M332.9,906.9v11.2m-2.4,-4.6l2.4,4.9l2.7,-4.8m16.2,-6.7v11.2m-2.5,-4.6l2.4,4.9l2.7,-4.8m-24.6,135.7h23.8m-4.6,2.5l4.9,-2.5l-4.8,-2.7m-16.6,11v11.3m-2.5,-4.7l2.4,4.9l2.7,-4.8m16.2,-6.7v11.3m-2.4,-4.7l2.4,4.9l2.7,-4.8M329.6,980.2h23.8m-4.6,2.5l4.8,-2.4l-4.7,-2.7M347,988.1v11.2m-2.5,-4.6l2.5,4.9l2.6,-4.8M350.7,696v23.8m-2.5,-4.7l2.4,4.9l2.7,-4.8M331.8,699.5h9.5m-4.7,2.4l4.9,-2.4l-4.8,-2.7m-4.9,20.8h9.5m-4.7,2.5l4.9,-2.4L336.7,715m-2,-158v23.8m-2.5,-4.7l2.4,4.9l2.7,-4.8m6.4,-15h9.5m-4.6,2.5l4.8,-2.4l-4.8,-2.7m-4.9,18.2h9.5m-4.6,2.5l4.8,-2.4l-4.8,-2.7" class="ga_27"/>
<path d="M32.1,45.1H9.2m958.3,0h22.9M32.1,1331.3H9.2m958.3,0h22.9M45.1,32.1V9.2m0,1335.1v22.9M954.5,32.1V9.2m0,1335.1v22.9" class="gb_27"/>
<path d="M32.1,45.1H9.2m958.3,0h22.9M32.1,1331.3H9.2m958.3,0h22.9M45.1,32.1V9.2m0,1335.1v22.9M954.5,32.1V9.2m0,1335.1v22.9" class="gc_27"/>
<path d="M27.5,32.1H0m972.1,0h27.5M27.5,1344.3H0m972.1,0h27.5M32.1,27.5V0m0,1348.9v27.5M967.5,27.5V0m0,1348.9v27.5" class="gb_27"/>
<path d="M27.5,32.1H0m972.1,0h27.5M27.5,1344.3H0m972.1,0h27.5M32.1,27.5V0m0,1348.9v27.5M967.5,27.5V0m0,1348.9v27.5" class="gc_27"/>
</svg>