<?xml version="1.0" encoding="UTF-8" standalone="no"?>
<!DOCTYPE svg PUBLIC "-//W3C//DTD SVG 1.1//EN"
"http://www.w3.org/Graphics/SVG/1.1/DTD/svg11.dtd">
<svg viewBox="0 0 999 1376" version="1.1" xmlns="http://www.w3.org/2000/svg" xmlns:xlink="http://www.w3.org/1999/xlink">
<defs>
<clipPath id="c0_56"><path d="M32.1,1344.3V32.1H967.5V1344.3Z"/></clipPath>
<clipPath id="c1_56"><path d="M132.3,1227.9V236.3H853.9v991.6Z"/></clipPath>
<clipPath id="c2_56"><path d="M193.1,225V212.4h12.6V225Z"/></clipPath>
<clipPath id="c3_56"><path d="M504.5,225V212.5h12.6V225Z"/></clipPath>
<clipPath id="c4_56"><path d="M504.5,259.9V247.4H517v12.5Z"/></clipPath>
<clipPath id="c5_56"><path d="M193.1,259.9V247.4h12.6v12.5Z"/></clipPath>
<clipPath id="c6_56"><path d="M206.4,979V920.7h64.7V979Z"/></clipPath>
<clipPath id="c7_56"><path d="M203,1111.1V1052h76.6v59.1Z"/></clipPath>
<clipPath id="c8_56"><path d="M237.7,1094.2c-7.7,-2.3,-13.9,-6.2,-13.9,-6.2c.9,-2.1,.5,-6.7,.5,-6.7c3.8,2.1,13.5,6.1,13.5,6.1c.7,2.7,-.1,6.8,-.1,6.8Z"/></clipPath>
<clipPath id="c9_56"><path d="M224.5,1088.2l-.5,-.2c0,0,.8,-2.6,.5,-6.5l.4,.2c0,0,.6,4.5,-.4,6.5Z"/></clipPath>
<clipPath id="ca_56"><path d="M228.1,1090.2l-.4,-.2c0,0,1,-4.6,.8,-6.3l.6,.3c0,0,-.2,5,-1,6.2Z"/></clipPath>
<clipPath id="cb_56"><path d="M233.8,1092.7l-.9,-.3c.6,-1.7,.6,-6.7,.6,-6.7l.6,.3c.5,2.1,-.3,6.7,-.3,6.7Z"/></clipPath>
<clipPath id="cc_56"><path d="M248.3,1080.3c0,0,-.5,-2.2,-.4,-3.9c0,0,2.3,-1.9,4.9,-2.6c0,0,.3,3.2,.5,3.9c0,0,-3.6,1.4,-5,2.6Z"/></clipPath>
<clipPath id="cd_56"><path d="M252.6,1077.7c-.1,-.4,-.3,-3,-.6,-3c-.2,0,-4,2.1,-4,2.1c0,0,0,-.3,.1,-.4c.1,-.1,1,-.7,1.8,-1.2c.9,-.5,2.6,-1.1,2.7,-1.1c.2,0,.5,3.4,.5,3.4l-.5,.2Z"/></clipPath>
<clipPath id="ce_56"><path d="M250.5,1087.5c-.7,0,-1.4,-.3,-1.7,-.8c-.3,-.8,-.3,-2.2,1.3,-3c.3,-.1,.7,-.2,1,-.2c.7,0,1.4,.3,1.6,1.1c.3,1.5,-.4,2.4,-1.4,2.7c-.2,.2,-.5,.2,-.8,.2Z"/></clipPath>
<clipPath id="cf_56"><path d="M240,1088.1l-21.1,-9.4l-.2,-1.9c8.4,-2.9,11.2,-16.3,11.2,-16.3c3.1,-.7,3.1,-1.5,3.1,-1.5c0,0,6.1,2.7,9,3.8c2.9,1.2,9.1,3.4,9.1,3.4c3.3,7.1,7.9,7.8,9.7,7.8c.4,0,.7,-.1,.7,-.1l-.4,1.4c-.2,0,-.5,0,-.7,0c-6.4,0,-10.1,-8.1,-10.1,-8.1l-1.5,.7c.8,11.7,-8.8,20.2,-8.8,20.2Z"/></clipPath>
<clipPath id="cg_56"><path d="M248.4,1067.8c-5,-.7,-18.2,-7,-18.2,-7c2,-.1,2.9,-1.4,2.9,-1.4c5.1,2.5,17.7,7.1,17.7,7.1l-2.4,1.3Z"/></clipPath>
<clipPath id="ch_56"><path d="M240,1088.9l-21.2,-9.8l-.1,-2.3c0,0,16.8,8.7,20.9,9.5c0,0,8.8,-7.7,8.5,-18.6c0,0,.9,-1.5,1.9,-1.5c.3,0,.5,.1,.8,.3c0,0,3.2,8,9.8,8c.2,0,.5,0,.7,0l-.3,1.6c0,0,-.3,0,-.6,0c-1.8,0,-7.4,-.6,-10.3,-7.6c0,0,-1.5,15.6,-10.1,20.4Z"/></clipPath>
<clipPath id="ci_56"><path d="M245.4,1072.6c-.1,0,-.2,0,-.3,-.1c-2.4,-.2,-2.4,-2.1,-2.8,-2.1v.1c-.4,.2,-.8,.9,-1.9,.9c-.2,0,-.5,-.1,-.8,-.2c-1.8,-.4,-1.2,-2.1,-1.6,-2.1q-.1,0,-.1,0c-.3,.2,-1,.5,-1.9,.5c-.5,0,-1,-.1,-1.5,-.4c-1.4,-.7,-1,-1.8,-1.4,-1.8q-.1,0,-.3,.1c-.1,.1,-.3,.1,-.6,.1c-1.1,0,-2.9,-.8,-2.8,-3.1c0,-.7,.4,-1.5,.8,-1.5c.1,0,.3,.2,.5,.6c.4,1.2,.6,2.4,1.4,2.4q.1,0,.1,0c.8,-.1,1.5,-1,1.9,-1c.1,0,.2,.1,.3,.1c.5,.6,.2,2.7,1.6,3.2c.1,0,.2,0,.3,0c.5,0,.9,-.4,1.2,-.8c.4,-.4,.7,-.8,1,-.8q.1,0,.2,0c.9,.4,.5,3.4,1.9,3.5h.1c.6,0,.8,-.5,.9,-1.1c.2,-.5,.3,-1,.9,-1q.1,0,.1,0c1.3,.1,1.3,3.2,2.5,3.2c1.2,0,1.6,-2.1,2.2,-2.1c.6,.1,.5,3.4,-1.9,3.4Z"/></clipPath>
<clipPath id="cj_56"><path d="M243.7,1076.7c-.1,0,-.2,0,-.3,0c-2.5,-.2,-2.5,-2.1,-2.8,-2.1c0,0,-.1,0,-.1,0c-.3,.3,-.7,.9,-1.8,.9c-.3,0,-.6,0,-.9,-.1c-1.7,-.4,-1.2,-2.1,-1.6,-2.1c-.4,.1,-1.1,.5,-1.9,.5c-.5,0,-1,-.1,-1.5,-.4c-1.4,-.7,-1.1,-1.8,-1.5,-1.8c0,0,-.1,0,-.2,.1c-.2,.1,-.4,.1,-.7,.1c-1.1,0,-2.9,-.8,-2.8,-3.1c0,-.8,.4,-1.5,.8,-1.5c.2,0,.4,.1,.5,.6c.4,1.2,.6,2.4,1.5,2.4c0,0,.1,0,.1,0c.8,-.1,1.4,-1,1.9,-1c.1,0,.2,0,.3,.1c.5,.5,.1,2.7,1.5,3.2c.2,0,.3,0,.4,0c.5,0,.9,-.4,1.2,-.8c.3,-.4,.6,-.8,1,-.8c0,0,.1,0,.1,0c.9,.3,.6,3.4,2,3.5c.7,0,.8,-.5,1,-1.1c.1,-.5,.3,-1,.9,-1h.1c1.3,.1,1.3,3.2,2.5,3.2c1.2,0,1.5,-2.1,2.1,-2.1h.1c.6,.1,.4,3.3,-1.9,3.3Z"/></clipPath>
<clipPath id="ck_56"><path d="M241.3,1081.4c-.2,0,-.3,0,-.5,-.1c-2.4,-.4,-2.3,-2.3,-2.6,-2.3c0,0,-.1,0,-.1,0c-.3,.2,-.7,.8,-1.7,.8c-.3,0,-.6,-.1,-1,-.2c-1.8,-.6,-1.1,-2.2,-1.5,-2.2c-.4,.1,-1,.3,-1.7,.3c-.5,0,-1.1,-.1,-1.7,-.5c-1.3,-.9,-.9,-1.9,-1.3,-1.9q-.1,0,-.2,0c-.2,.1,-.3,.1,-.5,.1c-1.1,0,-3,-.9,-2.8,-3.3c.1,-.8,.6,-1.5,.9,-1.5c.2,0,.4,.2,.5,.6c.3,1.4,.4,2.6,1.4,2.6c.8,0,1.4,-.8,1.9,-.8c.1,0,.2,0,.3,.1c.5,.6,0,2.7,1.3,3.3c.2,0,.3,0,.4,0c.5,0,.9,-.3,1.3,-.7c.3,-.4,.6,-.7,.9,-.7c.1,0,.2,0,.2,0c.9,.4,.3,3.4,1.7,3.6c0,0,.1,0,.1,0c.6,0,.8,-.4,1,-.9c.2,-.5,.4,-1,.9,-1c0,0,.1,0,.1,0c1.3,.2,1.1,3.3,2.3,3.4c0,0,.1,0,.1,0c.5,0,1,-.5,1.3,-.9c.3,-.5,.6,-1,.9,-1c.6,.1,.2,3.2,-1.9,3.2Z"/></clipPath>
<clipPath id="cl_56"><path d="M238.5,1084.9c-.1,0,-.3,0,-.4,0c-2.5,-.5,-2.3,-2.4,-2.7,-2.4v.1c-.4,.1,-.8,.7,-1.7,.7c-.3,0,-.7,0,-1.1,-.2c-1.7,-.5,-1,-2.2,-1.4,-2.2c0,0,-.1,0,-.1,0c-.3,.1,-.9,.4,-1.7,.4c-.5,0,-1.1,-.2,-1.7,-.6c-1.3,-.9,-.8,-1.9,-1.2,-1.9c-.1,0,-.2,0,-.3,.1c-.1,0,-.3,0,-.5,0c-1.1,0,-3,-.9,-2.7,-3.3c.1,-.7,.5,-1.5,.9,-1.5c.2,0,.4,.2,.5,.7c.3,1.3,.4,2.5,1.3,2.5c.8,0,1.5,-.8,2,-.8c.1,0,.2,0,.3,.1c.5,.6,-.1,2.7,1.3,3.3c.1,0,.3,.1,.4,.1c.5,0,.9,-.4,1.2,-.8c.4,-.3,.7,-.7,1,-.7q.1,0,.2,0c.8,.5,.3,3.5,1.6,3.7q.1,0,.2,0c.6,0,.8,-.5,1,-1c.1,-.5,.3,-1,.9,-1h.1c1.3,.2,1,3.4,2.3,3.5c.6,0,1,-.5,1.4,-1c.3,-.5,.6,-1,.8,-1q.1,0,.1,0c.6,.2,.2,3.2,-2,3.2Z"/></clipPath>
<clipPath id="cm_56"><path d="M250.7,1165.8q-.1,0,-.1,0c-4.1,0,-7.1,-1.2,-7.9,-1.6c-.2,0,-.3,-.1,-.3,-.1c-.6,.5,-2,.9,-3.6,1.1c-3.5,.5,-8,.5,-8,.5c-6.6,-.5,-11.5,-2.9,-15,-5.8c-.9,-.7,-1.7,-1.5,-2.5,-2.3c-.9,-.9,-1.7,-1.9,-2.4,-2.9c-2.8,-3.8,-3.8,-7.1,-3.8,-7.1c.6,0,1.1,0,1.7,.1c1.9,.4,4.3,.5,6.7,.5c4.3,0,8.8,-.4,12.4,-.9c3.5,-.4,6,-.9,6,-.9c3,2,6.1,2.7,8.8,2.7c.9,0,1.8,-.1,2.6,-.2c3.2,-.5,5.3,-1.7,5.3,-1.7c4.5,.7,8.6,1,12,1.1c1.3,0,2.4,0,3.5,0c5.2,0,8.4,-.4,8.4,-.4c-.6,4.4,-3.3,7.8,-6,10.3c-.7,.6,-1.4,1.2,-2,1.7c-.6,.4,-1.1,.8,-1.6,1.1c-1.9,1.2,-3.3,1.9,-3.3,1.9c-4,2.2,-7.8,2.9,-10.9,2.9Z"/></clipPath>
<clipPath id="cn_56"><path d="M242.6,1149.8c-1.9,-.1,-4,-.6,-5.7,-1.2c-1.9,-.6,-3.3,-1.3,-3.3,-1.3c-.4,.1,-.7,.2,-1.1,.3c-5.3,1.3,-10,1.7,-13.9,1.7c-.8,0,-1.6,0,-2.3,0c-1.9,-.1,-3.6,-.3,-5,-.5c-4,-.7,-6.1,-1.7,-6.1,-1.7c.3,.1,.6,.1,.9,.1c3.2,0,7,-2.1,9.3,-3.7c1.2,-.8,2.1,-1.5,2.1,-1.5c1.9,-2.1,3.6,-3.8,5.1,-5.1c.5,-.5,1,-1,1.6,-1.4c.7,-.6,1.3,-1.1,1.9,-1.6c2.7,-2,4.1,-2.4,4.1,-2.4c2,-1,3.8,-1.4,5.4,-1.4c1.5,0,2.8,.3,3.8,.8c.8,.3,1.4,.7,1.9,1c.9,.6,1.3,1.1,1.3,1.1c2.4,-2,4.7,-2.8,6.9,-2.8c.2,0,.4,0,.6,0c.8,.1,1.5,.2,2.2,.4c1.1,.3,2.2,.8,3.1,1.3c4.1,2.3,6.9,6.2,6.9,6.2c1.6,1.8,3.6,3.4,5.6,4.7c.4,.2,.8,.5,1.3,.8c.2,.2,.5,.3,.8,.5c2.1,1.2,3.9,2,5.2,2.6c1,.4,1.6,.6,1.6,.6c-2.6,1.6,-6.7,2.2,-10.9,2.2c-7.9,0,-16.3,-1.9,-16.3,-1.9c-1.6,.9,-3.2,1.3,-4.3,1.7c-1.7,.5,-2.7,.5,-2.7,.5Z"/></clipPath>
<style type="text/css"><![CDATA[
.g0_56{
fill: #FFFDEA;
}
.g1_56{
fill: #BCE4EA;
}
.g2_56{
fill: #BCBEC0;
}
.g3_56{
fill: #00AABD;
}
.g4_56{
fill: #FCE9F1;
}
.g5_56{
fill: none;
stroke: #976EAF;
stroke-width: 3.819;
}
.g6_56{
fill: none;
stroke: #CDBCDB;
stroke-width: 3.819;
stroke-linecap: round;
stroke-linejoin: round;
stroke-dasharray: 0,14;
}
.g7_56{
fill: none;
stroke: #CDBCDB;
stroke-width: 3.819;
stroke-linecap: round;
stroke-linejoin: round;
stroke-dasharray: 0,12;
}
.g8_56{
fill: none;
stroke: #CDBCDB;
stroke-width: 3.819;
stroke-linecap: round;
stroke-linejoin: round;
}
.g9_56{
fill: #B092C4;
}
.ga_56{
fill: #976EAF;
}
.gb_56{
fill: #FFF;
}
.gc_56{
fill: #67C0E1;
}
.gd_56{
fill: #233D4A;
}
.ge_56{
fill: #F5C44D;
}
.gf_56{
fill: #FCDCBA;
}
.gg_56{
fill: none;
stroke: #FFF;
stroke-width: 0.305;
stroke-miterlimit: 10;
}
.gh_56{
fill: none;
stroke: #6D6F71;
stroke-width: 0.305;
stroke-miterlimit: 10;
}
.gi_56{
fill: none;
stroke: #6D6F71;
stroke-width: 0.305;
stroke-miterlimit: 10;
stroke-dasharray: 2,2;
}
.gj_56{
fill: none;
stroke: #6D6F71;
stroke-width: 0.152;
stroke-miterlimit: 10;
}
.gk_56{
fill: #C1D66E;
}
.gl_56{
fill: #A2CE58;
}
.gm_56{
fill: none;
stroke: #5F361F;
stroke-width: 0.152;
}
.gn_56{
fill: #83B752;
}
.go_56{
fill: #A3764F;
}
.gp_56{
fill: #DAA97E;
}
.gq_56{
fill: #BE5E57;
}
.gr_56{
fill: #D76860;
}
.gs_56{
fill: #78BE4D;
}
.gt_56{
fill: #6A9E42;
}
.gu_56{
fill: #D09062;
}
.gv_56{
fill: none;
stroke: #9D9EA1;
stroke-width: 0.152;
}
.gw_56{
fill: #F6D3AE;
}
.gx_56{
fill: #D9AD7F;
}
.gy_56{
fill: #EDC696;
}
.gz_56{
fill: none;
stroke: #BC947C;
stroke-width: 0.152;
}
.g10_56{
fill: #B9D76E;
}
.g11_56{
fill: #D3A174;
}
.g12_56{
fill: #BE926C;
}
.g13_56{
fill: #EDCA6C;
}
.g14_56{
fill: #F1E3B8;
}
.g15_56{
fill: #B7BE42;
}
.g16_56{
fill: #9E7D5D;
}
.g17_56{
fill: #96A754;
}
.g18_56{
fill: #D9466B;
}
.g19_56{
fill: #F07D99;
}
.g1a_56{
fill: #AB7151;
}
.g1b_56{
fill: #C97F5C;
}
.g1c_56{
fill: none;
stroke: #862334;
stroke-width: 0.152;
}
.g1d_56{
fill: #E0E1E2;
}
.g1e_56{
fill: #AFB2B4;
}
.g1f_56{
fill: #E0E1E2;
stroke: #5F361F;
stroke-width: 0.152;
}
.g1g_56{
fill: #FFF;
stroke: #5F361F;
stroke-width: 0.152;
}
.g1h_56{
fill: none;
stroke: #FFF;
stroke-width: 1.909;
stroke-miterlimit: 10;
}
.g1i_56{
fill: none;
stroke: #000;
stroke-width: 0.381;
stroke-miterlimit: 10;
}
]]></style>
</defs>
<g clip-path="url(#c0_56)">
<path d="M32.1,1344.3H1877V32.1H32.1V1344.3Z" class="g0_56"/>
<path d="M32.1,179.3H1877V32.1H32.1V179.3Z" class="g1_56"/>
<path d="M1877,177.2H32.1v-5.4H768.7c43.1,0,53,-37.9,115.3,-37.9h993Z" class="g2_56"/>
<path d="M1877,183.7H32.1v-9.8H768.7c43.1,0,53,-33.6,115.3,-33.6h993Z" class="g3_56"/>
</g>
<image clip-path="url(#c1_56)" preserveAspectRatio="none" x="132" y="237" width="721" height="991" xlink:href="img/1.png"/>
<path d="M153.2,239.9c0,0,-17.3,0,-17.3,17.4v943.6c0,0,0,17.3,17.3,17.3H827c0,0,17.3,0,17.3,-17.3V257.3c0,0,0,-17.4,-17.3,-17.4Z" class="g4_56"/>
<path d="M153.2,239.9c0,0,-17.3,0,-17.3,17.4v943.6c0,0,0,17.3,17.3,17.3H827c0,0,17.3,0,17.3,-17.3V257.3c0,0,0,-17.4,-17.3,-17.4H153.2Z" class="g5_56"/>
<path d="M140.7,244.8c-1.6,1.4,-2.9,3.3,-3.7,5.7" class="g6_56"/>
<path d="M135.9,268.8v926.4" class="g7_56"/>
<path d="M140.7,1213.5c1.5,1.5,3.3,2.8,5.8,3.7" class="g6_56"/>
<path d="M164.6,1218.2H821.3" class="g7_56"/>
<path d="M839.6,1213.4c1.5,-1.5,2.8,-3.3,3.7,-5.7" class="g6_56"/>
<path d="M844.3,1189.4V263" class="g7_56"/>
<path d="M839.5,244.7c-1.4,-1.5,-3.3,-2.8,-5.7,-3.7" class="g6_56"/>
<path d="M815.6,239.9H158.9" class="g7_56"/>
<path d="M135.9,257.3v0m0,943.6v0m17.3,17.3v0m673.8,0v0m17.3,-17.3v0m0,-943.6v0M827,239.9v0m-673.8,0v0" class="g8_56"/>
<path d="M204.1,214l-9.5,9.4v25.5l9.5,9.5h302l9.4,-9.5V223.4L506.1,214Z" class="g9_56"/>
<path d="M204.1,248.9H506V223.5H204.1v25.4Z" class="gb_56"/>
<g clip-path="url(#c2_56)" style="mix-blend-mode: multiply;">
<path d="M194.6,223.5h9.5V214Z" class="ga_56"/>
</g>
<g clip-path="url(#c3_56)" style="mix-blend-mode: multiply;">
<path d="M506,214v9.5h9.5Z" class="ga_56"/>
</g>
<g clip-path="url(#c4_56)" style="mix-blend-mode: multiply;">
<path d="M515.5,248.9H506v9.5Z" class="ga_56"/>
</g>
<g clip-path="url(#c5_56)" style="mix-blend-mode: multiply;">
<path d="M204.1,258.4v-9.5h-9.5Z" class="ga_56"/>
</g>
<path d="M179.1,247.9c0,.2,.1,.5,.1,.8c.1,1.9,-1.3,3.4,-3.1,3.5c-1.8,.1,-3.3,-1.4,-3.4,-3.2c0,-.3,0,-.6,.1,-.9Z" class="gc_56"/>
<path d="M176.1,252.9C173.9,253,172,251.2,172,249c0,-.4,0,-.7,.1,-1.1c0,-.4,.4,-.6,.8,-.5c.4,.1,.7,.4,.6,.8c-.1,.3,-.1,.5,-.1,.7c.1,1.5,1.3,2.6,2.6,2.6c1.4,-.1,2.5,-1.3,2.5,-2.8c-.1,-.2,-.1,-.4,-.1,-.6c-.2,-.4,.1,-.8,.5,-.9c.3,-.1,.7,.1,.9,.5c.1,.3,.1,.7,.1,1c.1,2.3,-1.6,4.2,-3.8,4.2Z" class="gd_56"/>
<path d="M173.5,223.3c-.2,-.2,-.2,-.5,-.2,-.8v-.1c-.1,-1.1,.8,-2,1.9,-2.1c1.1,0,2,.9,2,2v.1c0,.3,0,.5,-.1,.8Z" class="gc_56"/>
<path d="M173.5,224.1c-.3,0,-.6,-.2,-.7,-.5c-.2,-.3,-.3,-.7,-.3,-1v-.1c0,-1.6,1.2,-2.8,2.6,-2.9c1.5,-.1,2.8,1.2,2.8,2.7v.1c.1,.3,0,.7,-.1,1c-.2,.4,-.6,.6,-1,.5c-.3,-.2,-.5,-.6,-.4,-1c.1,-.1,.1,-.3,.1,-.5v-.1c0,-.7,-.6,-1.3,-1.3,-1.2c-.7,0,-1.2,.6,-1.2,1.3v.1c0,.2,0,.4,.1,.5c.2,.4,0,.8,-.4,1c0,0,-.1,.1,-.2,.1Z" class="gd_56"/>
<path d="M187.9,242.7l-.7,-7.1c-.3,-6.9,-5.6,-12.4,-12,-12.2c-6.3,.2,-11.3,6.1,-11,13l-.2,6.9Z" class="ge_56"/>
<path d="M188,243.4c-.4,0,-.7,-.2,-.8,-.6l-.8,-7.1c-.2,-6.6,-5.2,-11.8,-11.1,-11.5c-6,.2,-10.6,5.7,-10.4,12.2l-.2,6.9c0,.4,-.3,.7,-.7,.7c-.4,0,-.8,-.3,-.7,-.7l.2,-6.9c-.3,-7.3,5,-13.5,11.7,-13.7c6.7,-.2,12.4,5.5,12.7,12.9l.8,7c0,.4,-.3,.8,-.7,.8Z" class="gd_56"/>
<path d="M190.2,234.1c-.1,0,-.2,0,-.3,0c-.4,-.1,-.6,-.5,-.4,-.9c.7,-2.4,-.8,-3.7,-.8,-3.7c-.4,-.3,-.4,-.7,-.2,-1c.3,-.4,.8,-.4,1.1,-.1c.1,0,2.3,1.9,1.2,5.2c-.1,.3,-.3,.5,-.6,.5Z" class="gd_56"/>
<path d="M192.7,235c-.1,0,-.2,0,-.2,0c-.4,-.1,-.6,-.6,-.5,-.9c1.4,-4.3,-1.4,-6.7,-1.5,-6.8c-.3,-.3,-.4,-.7,-.1,-1.1c.2,-.3,.7,-.3,1,-.1c.2,.2,3.7,3.2,2,8.4c-.1,.3,-.4,.5,-.7,.5Z" class="gd_56"/>
<path d="M189.4,245.1c0,1.1,-.9,2.1,-2,2.2l-23,.8c-1.1,0,-2.1,-.9,-2.1,-2.1v-.4c-.1,-1.2,.8,-2.2,2,-2.2l22.9,-.8c1.2,0,2.1,.9,2.2,2.1Z" class="ge_56"/>
<path d="M187.4,248l-22.9,.8c-1.6,0,-2.9,-1.2,-2.9,-2.8v-.4c-.1,-1.5,1.1,-2.9,2.7,-2.9l22.9,-.8c1.6,-.1,2.9,1.2,2.9,2.7v.4c.1,1.6,-1.1,2.9,-2.7,3m-23.1,-3.9c-.7,.1,-1.3,.7,-1.3,1.5v.4c.1,.7,.7,1.4,1.4,1.3l23,-.8c.7,0,1.3,-.6,1.3,-1.4l-.1,-.4c0,-.8,-.6,-1.4,-1.3,-1.4Z" class="gd_56"/>
<path d="M178.4,226.8c-.3,.1,-.6,.3,-.8,.7c-.1,.4,.1,.9,.6,1.1c0,0,3.9,1.3,4.1,6.3c0,.5,.4,.9,.9,.8c.5,0,.9,-.4,.9,-.9c-.3,-6.2,-5.1,-7.8,-5.4,-7.9c-.1,0,-.2,-.1,-.3,-.1Z" class="gf_56"/>
<path d="M208,758.7h81.5V693.8H208v64.9Z" class="gb_56"/>
<path d="M207.9,758.7h81.7" class="gg_56"/>
<path d="M207.9,693.8h81.7M208,758.6V693.9m81.5,64.7V693.9" class="gh_56"/>
<path d="M209.7,758.7h78.7" class="gi_56"/>
<path d="M207.9,758.7h.6m80.5,0h.6" class="gh_56"/>
<path d="M208,835.2h81.5V770.3H208v64.9Z" class="gb_56"/>
<path d="M207.9,835.2h81.7" class="gg_56"/>
<path d="M207.9,770.3h81.7M208,835.1V770.4m81.5,64.7V770.4" class="gh_56"/>
<path d="M209.7,835.2h78.7" class="gi_56"/>
<path d="M207.9,835.2h.6m80.5,0h.6" class="gh_56"/>
<path d="M418.1,758.7h81.4V693.8H418.1v64.9Z" class="gb_56"/>
<path d="M417.9,758.7h81.7" class="gg_56"/>
<path d="M417.9,693.8h81.7m-81.5,64.8V693.9m81.4,64.7V693.9" class="gh_56"/>
<path d="M419.8,758.7h78.6" class="gi_56"/>
<path d="M417.9,758.7h.6m80.5,0h.6" class="gh_56"/>
<path d="M417.4,835.2h81.4V770.3H417.4v64.9Z" class="gb_56"/>
<path d="M417.2,835.2h81.7" class="gg_56"/>
<path d="M417.2,770.3h81.7m-81.5,64.8V770.4m81.4,64.7V770.4" class="gh_56"/>
<path d="M419.1,835.2h78.6" class="gi_56"/>
<path d="M417.2,835.2h.6m80.5,0h.6" class="gh_56"/>
<path d="M626.3,758.7h81.4V693.8H626.3v64.9Z" class="gb_56"/>
<path d="M626.2,758.7h81.7" class="gg_56"/>
<path d="M626.2,693.8h81.7m-81.6,64.8V693.9m81.4,64.7V693.9" class="gh_56"/>
<path d="M628,758.7h78.6" class="gi_56"/>
<path d="M626.2,758.7h.6m80.5,0h.6" class="gh_56"/>
<path d="M626.7,835.2h81.4V770.3H626.7v64.9Z" class="gb_56"/>
<path d="M626.5,835.2h81.7" class="gg_56"/>
<path d="M626.5,770.3h81.7m-81.5,64.8V770.4m81.4,64.7V770.4" class="gh_56"/>
<path d="M628.4,835.2H707" class="gi_56"/>
<path d="M626.5,835.2h.6m80.5,0h.6" class="gh_56"/>
<path d="M159.7,914.8H298.3V982H159.7V914.8Zm0,67.2H298.3v67.1H159.7V982Zm0,67.1H298.3v67.1H159.7v-67.1Zm0,67.1H298.3v67.1H159.7v-67.1Z" class="gb_56"/>
<path d="M298.3,914.8H428.2V982H298.3V914.8Zm129.9,0H558.1V982H428.2V914.8Zm129.9,0H688V982H558.1V914.8Zm129.9,0H818V982H688V914.8ZM298.3,982H428.2v67.1H298.3V982Zm129.9,0H558.1v67.1H428.2V982Zm129.9,0H688v67.1H558.1V982ZM688,982H818v67.1H688V982Zm-389.7,67.1H428.2v67.1H298.3v-67.1Zm129.9,0H558.1v67.1H428.2v-67.1Zm129.9,0H688v67.1H558.1v-67.1Zm129.9,0H818v67.1H688v-67.1Zm-389.7,67.1H428.2v67.1H298.3v-67.1Zm129.9,0H558.1v67.1H428.2v-67.1Zm129.9,0H688v67.1H558.1v-67.1Zm129.9,0H818v67.1H688v-67.1Z" class="gb_56"/>
<path d="M558.1,981.8V915" class="gg_56"/>
<path d="M159.5,914.8H298.3m-138.6,67V915m138.6,-.2H428.2m-129.9,67V915m129.9,-.2H558.1m-129.9,67V915m129.9,-.2H688m0,0H818.1M688,981.8V915m130,66.8V915M159.5,982H298.3m-138.6,66.9V982.1M298.3,982H428.2m-129.9,66.9V982.1M428.2,982H558.1m-129.9,66.9V982.1M558.1,982H688m-129.9,66.9V982.1M688,982H818.1M688,1048.9V982.1m130,66.8V982.1m-658.5,67H298.3m-138.6,67v-66.9m138.6,-.1H428.2m-129.9,67v-66.9m129.9,-.1H558.1m-129.9,67v-66.9m129.9,-.1H688m-129.9,67v-66.9m129.9,-.1H818.1m-130.1,67v-66.9m130,66.9v-66.9m-658.5,67H298.3m-138.6,67v-66.8m138.6,-.2H428.2m-129.9,67v-66.8m129.9,-.2H558.1m-129.9,67v-66.8m129.9,-.2H688m-129.9,67v-66.8m129.9,-.2H818.1m-130.1,67v-66.8m130,66.8v-66.8m-658.5,66.9H298.3m0,0H428.2m0,0H558.1m0,0H688m0,0H818.1" class="gh_56"/>
<path d="M558,981.8V915m.2,66.8V915" class="gj_56"/>
<path d="M204.2,979h69V917.3h-69V979Z" class="gb_56"/>
<image clip-path="url(#c6_56)" preserveAspectRatio="none" x="206" y="921" width="65" height="58" xlink:href="img/2.jpg"/>
<path d="M204.8,1047.2h67.1v-62H204.8v62Z" class="gb_56"/>
<image preserveAspectRatio="none" x="206" y="988" width="63" height="56" xlink:href="img/3.jpg"/>
<path d="M202,1112.5h78.2v-61.2H202v61.2Z" class="gb_56"/>
<path clip-path="url(#c7_56)" d="M211.2,1087.3c2.5,-3.3,22.5,-17.1,35,-18.1c12.5,-.9,15.3,2.5,14.8,5.8c-.5,3.3,-1.2,7,3.4,5.9c4.6,-1.2,15.9,.3,8.4,8.2c-7.6,7.9,-22.3,18,-34,20c-11.6,2,-11.2,-4.6,-16.9,-7.3c-5,-2.5,-21.5,-.1,-10.7,-14.5Z" class="gk_56"/>
<path d="M252.8,1072.5c-.7,-1.4,-2.5,-5.3,-2.3,-7.2c.3,-1.9,1.9,-.2,1.9,-.2c0,0,-1.3,-4.2,-.3,-6.3c.6,-1.3,1.7,.9,1.7,.9c0,0,.1,-3.3,1.3,-3.9c1.3,-.5,2.1,3.7,2.1,3.7c0,0,.4,-2.1,1.1,-1.9c1.5,.5,.7,7.1,.7,7.1c0,0,.7,-1.7,1.6,-1c.9,.7,0,7.4,-1.7,9.5c-1.4,1.8,-4.3,2.7,-6.1,-.7Z" class="gl_56"/>
<path d="M252.8,1072.5c-.7,-1.4,-2.5,-5.3,-2.3,-7.2c.3,-1.9,1.9,-.2,1.9,-.2c0,0,-1.3,-4.2,-.3,-6.3c.6,-1.3,1.7,.9,1.7,.9c0,0,.1,-3.3,1.3,-3.9c1.3,-.5,2.1,3.7,2.1,3.7c0,0,.4,-2.1,1.1,-1.9c1.5,.5,.7,7.1,.7,7.1c0,0,.7,-1.7,1.6,-1c.9,.7,0,7.4,-1.7,9.5c-1.4,1.8,-4.3,2.7,-6.1,-.7Z" class="gm_56"/>
<path d="M252,1069.8c.4,1.8,1.9,5,4,4.6c2.1,-.4,3.5,-1.7,4,-4.8c.5,-3,-1.5,-1.4,-1.9,-.5c0,0,1.2,-2.8,.3,-3.4c-.9,-.6,-1.3,.8,-1.3,.8c0,0,-.5,-2.7,-1.5,-3c-1,-.3,-.8,3.3,-.8,3.3c0,0,-.8,-1.6,-1.3,-1.1c-.5,.5,.2,3,.2,3c0,0,-1.5,-1.2,-1.8,-.7c-.3,.5,-.1,.9,.1,1.8Z" class="gn_56"/>
<path d="M254.8,1078.9c0,0,.9,-1.2,.9,-4.4c0,-3.3,-1.9,-6.7,-1.9,-6.7l1.6,1.3l.1,-4.7l1,3.9c0,0,1.1,-.8,1.8,-1.2c0,0,-1.5,1.4,-1.5,3.5c0,5.7,.9,7.1,1.8,8l-1.6,-.9l-.6,1.3l-.5,-1.2Z" class="go_56"/>
<path d="M254.8,1078.9c0,0,.9,-1.2,.9,-4.4c0,-3.3,-1.9,-6.7,-1.9,-6.7l1.6,1.3l.1,-4.7l1,3.9c0,0,1.1,-.8,1.8,-1.2c0,0,-1.5,1.4,-1.5,3.5c0,5.7,.9,7.1,1.8,8l-1.6,-.9l-.6,1.3l-.5,-1.2l-1.1,1.1Z" class="gm_56"/>
<path d="M253.1,1092.4c1.5,-.7,3.7,-2.4,5.4,-2c1.6,.4,4.1,.9,5.7,1.3c1.7,.4,4.3,1.1,4.3,1.4c-.1,.3,-6.4,5.7,-11.6,8.4c-.3,.2,-8.7,-3.9,-9.4,-5.4c-.7,-1.5,4.1,-3.1,5.6,-3.7Z" class="gp_56"/>
<path d="M257,1091.6c0,0,3.1,1.4,5.9,1.2c0,0,-5,5.1,-7.9,6c0,0,-3.7,-.5,-5.1,-2.3c0,0,5.8,-3.2,7.1,-4.9Z" class="gq_56"/>
<path d="M257,1091.6c0,0,3.1,1.4,5.9,1.2c0,0,-5,5.1,-7.9,6c0,0,-3.7,-.5,-5.1,-2.3c0,0,5.8,-3.2,7.1,-4.9Z" class="gm_56"/>
<path d="M257.2,1092.1c0,0,2.1,1.3,4.4,1.2c0,0,-4.2,4.2,-6.6,4.9c0,0,-3,-.3,-4.2,-1.8c0,0,4.7,-2.2,6.4,-4.3Z" class="gr_56"/>
<path d="M253.7,1095.2c0,0,-.7,1.8,-.2,2.4c0,0,-1.5,-.3,-2.2,-1.2c0,0,1.9,-.8,2.4,-1.2Z" class="gq_56"/>
<path d="M223.7,1075.4c-.7,-1.4,-2.5,-5.3,-2.2,-7.2c.2,-2,1.8,-.2,1.8,-.2c0,0,-1.3,-4.2,-.3,-6.3c.7,-1.4,1.7,.9,1.7,.9c0,0,.1,-3.4,1.4,-3.9c1.2,-.6,2,3.7,2,3.7c0,0,.5,-2.1,1.1,-1.9c1.5,.5,.8,7,.8,7c0,0,.7,-1.6,1.6,-.9c.9,.7,0,7.4,-1.7,9.5c-1.4,1.8,-4.4,2.7,-6.2,-.7Z" class="gs_56"/>
<path d="M223.7,1075.4c-.7,-1.4,-2.5,-5.3,-2.2,-7.2c.2,-2,1.8,-.2,1.8,-.2c0,0,-1.3,-4.2,-.3,-6.3c.7,-1.4,1.7,.9,1.7,.9c0,0,.1,-3.4,1.4,-3.9c1.2,-.6,2,3.7,2,3.7c0,0,.5,-2.1,1.1,-1.9c1.5,.5,.8,7,.8,7c0,0,.7,-1.6,1.6,-.9c.9,.7,0,7.4,-1.7,9.5c-1.4,1.8,-4.4,2.7,-6.2,-.7Z" class="gm_56"/>
<path d="M222.9,1072.7c.4,1.8,1.9,4.9,4,4.5c2.2,-.4,3.6,-1.7,4.1,-4.7c.5,-3,-1.5,-1.4,-1.9,-.5c0,0,1.2,-2.8,.3,-3.4c-.9,-.6,-1.3,.8,-1.3,.8c0,0,-.6,-2.7,-1.6,-3c-1,-.3,-.8,3.3,-.8,3.3c0,0,-.8,-1.6,-1.3,-1.1c-.5,.5,.2,3,.2,3c0,0,-1.5,-1.2,-1.8,-.7c-.3,.5,-.1,.9,.1,1.8Z" class="gt_56"/>
<path d="M225.7,1081.7c0,0,.9,-1.2,.9,-4.4c0,-3.3,-1.9,-6.6,-1.9,-6.6l1.6,1.3l.1,-4.7l1,3.9c0,0,1.1,-.8,1.8,-1.2c0,0,-1.5,1.4,-1.5,3.4c0,5.7,1,7.1,1.9,8l-1.7,-.9l-.6,1.3l-.5,-1.2Z" class="gu_56"/>
<path d="M225.7,1081.7c0,0,.9,-1.2,.9,-4.4c0,-3.3,-1.9,-6.6,-1.9,-6.6l1.6,1.3l.1,-4.7l1,3.9c0,0,1.1,-.8,1.8,-1.2c0,0,-1.5,1.4,-1.5,3.4c0,5.7,1,7.1,1.9,8l-1.7,-.9l-.6,1.3l-.5,-1.2l-1.1,1.1Z" class="gm_56"/>
<path d="M215.5,1080.8c-.7,-1.3,-2.4,-5.2,-2.2,-7.1c.2,-2,1.8,-.3,1.8,-.3c0,0,-1.3,-4.1,-.3,-6.3c.7,-1.3,1.7,1,1.7,1c0,0,.1,-3.4,1.4,-3.9c1.3,-.6,2.1,3.7,2.1,3.7c0,0,.4,-2.1,1.1,-1.9c1.4,.5,.7,7,.7,7c0,0,.7,-1.6,1.6,-.9c.9,.6,0,7.4,-1.7,9.5c-1.4,1.7,-4.4,2.6,-6.2,-.8Z" class="gl_56"/>
<path d="M215.5,1080.8c-.7,-1.3,-2.4,-5.2,-2.2,-7.1c.2,-2,1.8,-.3,1.8,-.3c0,0,-1.3,-4.1,-.3,-6.3c.7,-1.3,1.7,1,1.7,1c0,0,.1,-3.4,1.4,-3.9c1.3,-.6,2.1,3.7,2.1,3.7c0,0,.4,-2.1,1.1,-1.9c1.4,.5,.7,7,.7,7c0,0,.7,-1.6,1.6,-.9c.9,.6,0,7.4,-1.7,9.5c-1.4,1.7,-4.4,2.6,-6.2,-.8Z" class="gm_56"/>
<path d="M214.8,1078.2c.4,1.8,1.9,4.9,4,4.5c2.1,-.4,3.5,-1.7,4,-4.7c.5,-3,-1.5,-1.4,-1.9,-.5c0,0,1.2,-2.8,.3,-3.4c-.9,-.6,-1.3,.8,-1.3,.8c0,0,-.5,-2.7,-1.5,-3c-1,-.3,-.8,3.3,-.8,3.3c0,0,-.8,-1.6,-1.3,-1.1c-.5,.5,.2,3,.2,3c0,0,-1.5,-1.2,-1.8,-.7c-.3,.5,-.1,.9,.1,1.8Z" class="gn_56"/>
<path d="M217.6,1087.2c0,0,.9,-1.2,.9,-4.4c0,-3.3,-1.9,-6.6,-1.9,-6.6l1.6,1.3l.1,-4.7l1,3.9c0,0,1.1,-.8,1.8,-1.2c0,0,-1.5,1.4,-1.5,3.4c0,5.7,.9,7.1,1.8,8l-1.6,-.9l-.6,1.3l-.5,-1.2Z" class="go_56"/>
<path d="M217.6,1087.2c0,0,.9,-1.2,.9,-4.4c0,-3.3,-1.9,-6.6,-1.9,-6.6l1.6,1.3l.1,-4.7l1,3.9c0,0,1.1,-.8,1.8,-1.2c0,0,-1.5,1.4,-1.5,3.4c0,5.7,.9,7.1,1.8,8l-1.6,-.9l-.6,1.3l-.5,-1.2l-1.1,1.1Z" class="gm_56"/>
<path d="M209.6,1087.2c-.7,-1.4,-2.5,-5.3,-2.2,-7.2c.2,-2,1.8,-.2,1.8,-.2c0,0,-1.3,-4.2,-.3,-6.3c.6,-1.4,1.7,.9,1.7,.9c0,0,.1,-3.4,1.3,-3.9c1.3,-.6,2.1,3.7,2.1,3.7c0,0,.4,-2.1,1.1,-1.9c1.5,.5,.7,7,.7,7c0,0,.8,-1.6,1.7,-.9c.9,.7,-.1,7.4,-1.8,9.5c-1.3,1.7,-4.3,2.6,-6.1,-.7Z" class="gs_56"/>
<path d="M209.6,1087.2c-.7,-1.4,-2.5,-5.3,-2.2,-7.2c.2,-2,1.8,-.2,1.8,-.2c0,0,-1.3,-4.2,-.3,-6.3c.6,-1.4,1.7,.9,1.7,.9c0,0,.1,-3.4,1.3,-3.9c1.3,-.6,2.1,3.7,2.1,3.7c0,0,.4,-2.1,1.1,-1.9c1.5,.5,.7,7,.7,7c0,0,.8,-1.6,1.7,-.9c.9,.7,-.1,7.4,-1.8,9.5c-1.3,1.7,-4.3,2.6,-6.1,-.7Z" class="gm_56"/>
<path d="M208.8,1084.5c.4,1.8,1.9,4.9,4,4.5c2.1,-.4,3.5,-1.7,4,-4.7c.5,-3,-1.5,-1.4,-1.9,-.5c0,0,1.2,-2.8,.3,-3.4c-.9,-.6,-1.3,.8,-1.3,.8c0,0,-.5,-2.7,-1.5,-3c-1,-.3,-.8,3.3,-.8,3.3c0,0,-.8,-1.6,-1.3,-1.1c-.5,.5,.2,3,.2,3c0,0,-1.5,-1.2,-1.8,-.7c-.3,.5,-.1,.9,.1,1.8Z" class="gt_56"/>
<path d="M211.6,1093.5c0,0,.9,-1.2,.9,-4.4c0,-3.3,-1.9,-6.6,-1.9,-6.6l1.6,1.3l.1,-4.7l1,3.9c0,0,1.1,-.8,1.8,-1.2c0,0,-1.5,1.4,-1.5,3.4c0,5.7,.9,7.1,1.8,8l-1.6,-.9l-.6,1.3l-.5,-1.2Z" class="gu_56"/>
<path d="M211.6,1093.5c0,0,.9,-1.2,.9,-4.4c0,-3.3,-1.9,-6.6,-1.9,-6.6l1.6,1.3l.1,-4.7l1,3.9c0,0,1.1,-.8,1.8,-1.2c0,0,-1.5,1.4,-1.5,3.4c0,5.7,.9,7.1,1.8,8l-1.6,-.9l-.6,1.3l-.5,-1.2l-1.1,1.1Z" class="gm_56"/>
<path d="M260.6,1078.5c-.7,-1.4,-2.5,-5.3,-2.3,-7.2c.3,-2,1.9,-.2,1.9,-.2c0,0,-1.3,-4.2,-.3,-6.3c.6,-1.4,1.7,.9,1.7,.9c0,0,.1,-3.4,1.3,-3.9c1.3,-.6,2.1,3.7,2.1,3.7c0,0,.4,-2.1,1.1,-1.9c1.5,.5,.7,7,.7,7c0,0,.7,-1.6,1.6,-.9c1,.7,0,7.4,-1.7,9.5c-1.4,1.7,-4.3,2.6,-6.1,-.7Z" class="gs_56"/>
<path d="M260.6,1078.5c-.7,-1.4,-2.5,-5.3,-2.3,-7.2c.3,-2,1.9,-.2,1.9,-.2c0,0,-1.3,-4.2,-.3,-6.3c.6,-1.4,1.7,.9,1.7,.9c0,0,.1,-3.4,1.3,-3.9c1.3,-.6,2.1,3.7,2.1,3.7c0,0,.4,-2.1,1.1,-1.9c1.5,.5,.7,7,.7,7c0,0,.7,-1.6,1.6,-.9c1,.7,0,7.4,-1.7,9.5c-1.4,1.7,-4.3,2.6,-6.1,-.7Z" class="gm_56"/>
<path d="M259.8,1075.8c.4,1.8,1.9,4.9,4,4.5c2.1,-.4,3.5,-1.7,4,-4.7c.5,-3,-1.5,-1.4,-1.9,-.5c0,0,1.2,-2.8,.3,-3.4c-.9,-.6,-1.3,.8,-1.3,.8c0,0,-.5,-2.7,-1.5,-3c-1,-.3,-.8,3.3,-.8,3.3c0,0,-.8,-1.6,-1.3,-1.1c-.5,.5,.2,3,.2,3c0,0,-1.5,-1.2,-1.8,-.7c-.3,.5,-.1,.9,.1,1.8Z" class="gt_56"/>
<path d="M262.6,1084.8c0,0,.9,-1.2,.9,-4.4c0,-3.3,-1.9,-6.6,-1.9,-6.6l1.6,1.3l.1,-4.7l1,3.9c0,0,1.1,-.8,1.8,-1.2c0,0,-1.5,1.4,-1.5,3.4c0,5.7,.9,7.1,1.8,8l-1.6,-.9l-.6,1.3l-.5,-1.2Z" class="gu_56"/>
<path d="M262.6,1084.8c0,0,.9,-1.2,.9,-4.4c0,-3.3,-1.9,-6.6,-1.9,-6.6l1.6,1.3l.1,-4.7l1,3.9c0,0,1.1,-.8,1.8,-1.2c0,0,-1.5,1.4,-1.5,3.4c0,5.7,.9,7.1,1.8,8l-1.6,-.9l-.6,1.3l-.5,-1.2l-1.1,1.1Z" class="gm_56"/>
<path d="M230.5,1053.4c3.6,-1,5.8,1.4,3.8,3.1c-2,1.6,-5.1,2.1,-6.5,.3c-1.3,-1.8,.5,-2.9,2.7,-3.4Z" class="gb_56"/>
<path d="M230.5,1053.4c3.6,-1,5.8,1.4,3.8,3.1c-2,1.6,-5.1,2.1,-6.5,.3c-1.3,-1.8,.5,-2.9,2.7,-3.4Z" class="gv_56"/>
<path d="M231.3,1054.8c1.2,-.6,1.7,.4,.7,.9c-1,.5,-2.3,0,-.7,-.9Z" class="gb_56"/>
<path d="M231.3,1054.8c1.2,-.6,1.7,.4,.7,.9c-1,.5,-2.3,0,-.7,-.9Z" class="gv_56"/>
<path d="M238.2,1053.9c2.8,-.8,4.5,1.1,2.9,2.4c-1.5,1.3,-3.9,1.7,-5,.3c-1,-1.4,.4,-2.3,2.1,-2.7Z" class="gb_56"/>
<path d="M238.2,1053.9c2.8,-.8,4.5,1.1,2.9,2.4c-1.5,1.3,-3.9,1.7,-5,.3c-1,-1.4,.4,-2.3,2.1,-2.7Z" class="gv_56"/>
<path d="M238.8,1055c1,-.4,1.3,.3,.5,.7c-.7,.3,-1.8,0,-.5,-.7Z" class="gb_56"/>
<path d="M238.8,1055c1,-.4,1.3,.3,.5,.7c-.7,.3,-1.8,0,-.5,-.7Z" class="gv_56"/>
<path d="M220.3,1053.7c4.9,-1.3,7.8,2,5.1,4.2c-2.6,2.2,-6.8,2.9,-8.6,.5c-1.8,-2.5,.6,-3.9,3.5,-4.7Z" class="gb_56"/>
<path d="M220.3,1053.7c4.9,-1.3,7.8,2,5.1,4.2c-2.6,2.2,-6.8,2.9,-8.6,.5c-1.8,-2.5,.6,-3.9,3.5,-4.7Z" class="gv_56"/>
<path d="M221.4,1055.7c1.6,-.8,2.2,.5,.9,1.1c-1.3,.7,-3.1,0,-.9,-1.1Z" class="gb_56"/>
<path d="M221.4,1055.7c1.6,-.8,2.2,.5,.9,1.1c-1.3,.7,-3.1,0,-.9,-1.1Z" class="gv_56"/>
<path d="M259.3,1075.1c0,0,-.7,8.9,2.4,11.9c0,0,-7.8,8.4,-21.1,12.6c0,0,-9.2,-3.9,-20,-9.7c0,0,2,-5.8,.3,-11.2l11,-15.2l18.4,3.7c0,0,3.4,6.6,9,7.9Z" class="gw_56"/>
<path d="M259.3,1075.1c0,0,-.7,8.9,2.4,11.9c0,0,-7.8,8.4,-21.1,12.6c0,0,-9.2,-3.9,-20,-9.7c0,0,2,-5.8,.3,-11.2l11,-15.2l18.4,3.7c0,0,3.4,6.6,9,7.9Z" class="gm_56"/>
<path d="M248.4,1096.2c0,0,-2.4,-7.9,-2.3,-11.9c0,0,3.5,-3.7,8.3,-5.1c0,0,.1,5.7,2.6,11.7c0,0,-4.4,3.2,-8.6,5.3Z" class="gx_56"/>
<path d="M240.5,1086c0,0,1,9.2,-.3,13.1c0,0,-10.5,-5.1,-19.1,-9.4c0,0,1.6,-5,.4,-10.3Z" class="gy_56"/>
<path d="M260.5,1085.8c0,0,-11.9,9.4,-19.9,11.5c0,0,-8.9,-4.1,-19.3,-8.9m38.4,-4.8c0,0,-10.7,8.4,-18.8,10.6c0,0,-11.3,-5.2,-19.3,-7.9m37.5,-5.7c0,0,-8.4,7.8,-18.1,11.1c0,0,-11.7,-5.8,-19.1,-7.9m37,-6.3c0,0,-8.9,8.5,-18,11.9c0,0,-14.4,-6.7,-19.1,-7.9" class="gz_56"/>
<path d="M223.6,1080.3c0,0,.5,5.6,-.4,7.9c0,0,6.6,4.2,15,6.6c0,0,.9,-4.9,.2,-7.8c0,0,-12.2,-5.1,-14.8,-6.7Z" class="g10_56"/>
<path d="M223.6,1080.3c0,0,.5,5.6,-.4,7.9c0,0,6.6,4.2,15,6.6c0,0,.9,-4.9,.2,-7.8c0,0,-12.2,-5.1,-14.8,-6.7Z" class="gm_56"/>
<image clip-path="url(#c8_56)" x="223" y="1081" width="16" height="14" xlink:href="shade/1.png"/>
<path d="M224.3,1081.3c0,0,.4,4.5,-.5,6.7c0,0,6.2,3.9,13.9,6.2c0,0,.8,-4.1,.1,-6.8c0,0,-9.7,-4,-13.5,-6.1Z" class="gm_56"/>
<path d="M225.6,1082.2c0,0,.8,6.1,.7,6.9c0,0,1.6,.9,2.2,1.2c0,0,-.7,-3.6,-1,-4.9c-.3,-1.4,1.6,1.9,2.1,3.6c.5,1.7,1.1,2.4,1.1,2.4l1.9,.7c0,0,-2.9,-7.9,-3.2,-8.1c-.2,-.2,-3.8,-1.8,-3.8,-1.8Z" class="gb_56"/>
<image clip-path="url(#c9_56)" x="224" y="1081" width="2" height="8" xlink:href="shade/2.png"/>
<image clip-path="url(#ca_56)" x="227" y="1083" width="3" height="8" xlink:href="shade/3.png"/>
<image clip-path="url(#cb_56)" x="232" y="1085" width="3" height="8" xlink:href="shade/4.png"/>
<path d="M228,1083.3c0,0,-.3,5.4,-1,6.5l.7,.4c0,0,1,-3.3,1,-6.7Z" class="g10_56"/>
<path d="M228,1083.3c0,0,-.3,5.4,-1,6.5l.7,.4c0,0,1,-3.3,1,-6.7l-.7,-.2Z" class="gm_56"/>
<path d="M233.1,1085.5c0,0,0,5.4,-.8,6.7c0,0,.6,.3,.8,.4c0,0,1,-4.2,.7,-6.8Z" class="g10_56"/>
<path d="M233.1,1085.5c0,0,0,5.4,-.8,6.7c0,0,.6,.3,.8,.4c0,0,1,-4.2,.7,-6.8l-.7,-.3Z" class="gm_56"/>
<path d="M243.8,1065.2l-1.5,-6.5l4.1,-1.7l3.6,2l-1.4,7.2Z" class="g11_56"/>
<path d="M243.8,1065.2l-1.5,-6.5l4.1,-1.7l3.6,2l-1.4,7.2l-4.8,-1Z" class="gm_56"/>
<path d="M246.6,1061.1v4.2l1.8,.5l1.3,-6.5Z" class="g12_56"/>
<path d="M244.1,1061.7l1.5,.6l.2,.9l-1.4,-.5Z" class="g13_56"/>
<path d="M243.1,1060.8l1.5,.6l.2,.8l-1.4,-.5Z" class="g14_56"/>
<path d="M249,1061.4l-1.5,.7v.9l1.3,-.6Z" class="g15_56"/>
<path d="M241.7,1058.6v-.8l4.6,-2.2l4.5,2.6l-.1,.7l-4,1.9Z" class="g12_56"/>
<path d="M241.7,1058.6v-.8l4.6,-2.2l4.5,2.6l-.1,.7l-4,1.9l-5,-2.2Z" class="gm_56"/>
<path d="M242.3,1058.7l3.9,-2l3.7,2l-3,1.9Z" class="g16_56"/>
<path d="M242.3,1058.7l3.9,-2l3.7,2l-3,1.9l-4.6,-1.9Zm4,-3.1l-.1,1.1" class="gm_56"/>
<path d="M241.6,1059.9l5.1,1.6l4.3,-1.6l-.2,-1.7l-4.1,2l-5,-2.4Z" class="g11_56"/>
<path d="M241.6,1059.9l5.1,1.6l4.3,-1.6l-.2,-1.7l-4.1,2l-5,-2.4l-.1,2.1Z" class="gm_56"/>
<path d="M242.4,1058.4c.6,.3,4.1,2.1,4.3,2.1c.2,.1,3.8,-2.1,3.8,-1.6c0,.4,-3.2,1.9,-3.8,1.9c-.6,0,-2.6,-1.1,-4,-1.9c-.5,-.2,-1,-.8,-.3,-.5Z" class="gb_56"/>
<path d="M246.7,1060.2v1.3" class="gm_56"/>
<path d="M259.1,1075.7c0,0,-.1,1.2,-.1,1.8c0,0,-5.2,-.3,-8.4,-5.4c0,0,-2.7,10,-5.2,13c-2.6,3.1,-4.6,3.9,-4.6,3.9c0,0,-.1,-1.1,-.2,-1.7c0,0,4.4,-4.7,5.9,-8.7c1.5,-3.9,2.6,-10.3,3.5,-10.6c.9,-.4,2.4,3.7,3.7,4.9c1.3,1.1,5.4,2.8,5.4,2.8Z" class="gy_56"/>
<path d="M252.7,1071.5c0,0,-2.5,2.2,-4.9,3.3m7.6,-.7c0,0,-5.2,4.2,-9.5,6.3m12.5,-5.4c0,0,-10.7,7.8,-18.1,11.5" class="gz_56"/>
<path d="M247.1,1076.1c0,0,3,-2.2,6.4,-3.1c0,0,.4,4.2,.6,5.1c0,0,-3.6,1.3,-6.3,3.3c0,0,-.8,-3,-.7,-5.3Z" class="g10_56"/>
<path d="M247.1,1076.1c0,0,3,-2.2,6.4,-3.1c0,0,.4,4.2,.6,5.1c0,0,-3.6,1.3,-6.3,3.3c0,0,-.8,-3,-.7,-5.3Z" class="gm_56"/>
<image clip-path="url(#cc_56)" x="247" y="1073" width="7" height="8" xlink:href="shade/5.png"/>
<path d="M247.9,1076.4c0,0,2.3,-1.9,4.9,-2.6c0,0,.3,3.2,.5,3.9c0,0,-3.6,1.4,-5,2.6c0,0,-.5,-2.2,-.4,-3.9Z" class="gm_56"/>
<image clip-path="url(#cd_56)" x="247" y="1074" width="7" height="4" xlink:href="shade/6.png"/>
<path d="M249.9,1075.1c0,0,.4,3.1,.6,3.8l.6,-.3c0,0,-.2,-.6,-.6,-3.8c0,0,-.4,.1,-.6,.3Z" class="g10_56"/>
<path d="M249.9,1075.1c0,0,.4,3.1,.6,3.8l.6,-.3c0,0,-.2,-.6,-.6,-3.8c0,0,-.4,.1,-.6,.3Z" class="gm_56"/>
<path d="M250.2,1075.1c.2,.1,.6,3.1,.7,3.5h-.1c0,0,-.6,-3.4,-.6,-3.6v.1Z" class="gb_56"/>
<path d="M256.7,1091.3c0,0,-2.3,-5.7,-2.7,-11.3c0,0,-5.4,2.4,-7.4,4.8c0,0,.7,6.7,2.4,11.3c0,0,7.3,-4,7.7,-4.8Z" class="g17_56"/>
<path d="M256.7,1091.3c0,0,-2.3,-5.7,-2.7,-11.3c0,0,-5.4,2.4,-7.4,4.8c0,0,.7,6.7,2.4,11.3c0,0,7.3,-4,7.7,-4.8Z" class="gm_56"/>
<path d="M249.4,1095.8c0,0,-1.5,-3,-2.3,-11c0,0,2.6,-2.5,6.5,-4.3c0,0,.8,6.8,2.8,11c0,0,-3.5,2.6,-7,4.3Z" class="g10_56"/>
<path d="M249.4,1095.8c0,0,-1.5,-3,-2.3,-11c0,0,2.6,-2.5,6.5,-4.3c0,0,.8,6.8,2.8,11c0,0,-3.5,2.6,-7,4.3Z" class="gm_56"/>
<path d="M248.4,1089.6c-.1,.3,.1,1.2,.4,1.9c.2,.6,.8,.3,.9,-.8c.1,-.4,.1,-.7,-.2,-.9c-.3,-.3,-1,-.4,-1.1,-.2Z" class="g17_56"/>
<path d="M248.7,1089c.5,-.4,1.3,-.3,1.5,.3c.1,.8,-.6,1.5,-1.4,1.1c-.7,-.3,-.4,-1.1,-.1,-1.4Z" class="g18_56"/>
<path d="M248.7,1089c.5,-.4,1.3,-.3,1.5,.3c.1,.8,-.6,1.5,-1.4,1.1c-.7,-.3,-.4,-1.1,-.1,-1.4Z" class="gm_56"/>
<path d="M249.1,1089.4c.4,-.1,.5,-.1,.6,.2c.1,.3,.3,0,.1,-.3c-.1,-.2,-.4,-.4,-.7,-.2c-.3,.1,-.4,.4,0,.3Z" class="g19_56"/>
<path d="M248.7,1084.4c-.2,.2,-.7,1,-.6,2.1c.1,1.1,.8,1.9,1.9,1.9c1.1,0,2.2,-.2,2.8,-1.2c.7,-1,.5,-3.2,-.4,-3.6c-1,-.5,-3.1,0,-3.7,.8Z" class="g17_56"/>
<path d="M249.9,1083.3c1.1,-.6,2.8,-.4,3.2,1.1c.5,1.8,-.5,3,-1.6,3.4c-1.1,.4,-2.6,.1,-3.1,-.9c-.4,-.9,-.5,-2.7,1.5,-3.6Z" class="gb_56"/>
<path d="M249.9,1083.3c1.1,-.6,2.8,-.4,3.2,1.1c.5,1.8,-.5,3,-1.6,3.4c-1.1,.4,-2.6,.1,-3.1,-.9c-.4,-.9,-.5,-2.7,1.5,-3.6Z" class="gm_56"/>
<image clip-path="url(#ce_56)" x="248" y="1083" width="6" height="5" xlink:href="shade/7.png"/>
<path d="M250.1,1083.7c1,-.5,2.3,-.3,2.6,.9c.3,1.5,-.4,2.4,-1.4,2.8c-.9,.3,-2.1,0,-2.5,-.7c-.3,-.8,-.3,-2.2,1.3,-3Z" class="gm_56"/>
<path d="M249.8,1083.9c0,0,.8,2.8,1.3,3.5c0,0,.3,-.1,.6,-.2c0,0,-.9,-1.5,-1.2,-3.6c0,0,-.5,.1,-.7,.3Z" class="gb_56"/>
<path d="M249.8,1083.9c0,0,.8,2.8,1.3,3.5c0,0,.3,-.1,.6,-.2c0,0,-.9,-1.5,-1.2,-3.6c0,0,-.5,.1,-.7,.3Z" class="gm_56"/>
<path d="M252.6,1084.4c0,0,-2.2,.7,-3.9,1.8c0,0,.1,.4,.2,.6c0,0,2.1,-1.4,3.8,-1.9c0,0,0,-.3,-.1,-.5Z" class="gb_56"/>
<path d="M252.6,1084.4c0,0,-2.2,.7,-3.9,1.8c0,0,.1,.4,.2,.6c0,0,2.1,-1.4,3.8,-1.9c0,0,0,-.3,-.1,-.5Z" class="gm_56"/>
<path d="M254.1,1090.4l-.2,-.2c0,0,-2.3,1.8,-3.4,2.1c0,0,0,1.4,.7,2c0,0,2.2,-.8,3.9,-2.3c0,0,-.8,0,-1,-1.6Z" class="g17_56"/>
<path d="M250.9,1092.5c.4,-.1,3,-1.9,3.3,-2.1c0,0,.4,1.1,.9,1.3c0,0,-2.4,1.9,-3.6,2.1c0,0,-.3,-.1,-.4,-.4c-.1,-.4,-.2,-.9,-.2,-.9Z" class="g1a_56"/>
<path d="M250.9,1092.5c.4,-.1,3,-1.9,3.3,-2.1c0,0,.4,1.1,.9,1.3c0,0,-2.4,1.9,-3.6,2.1c0,0,-.3,-.1,-.4,-.4c-.1,-.4,-.2,-.9,-.2,-.9Z" class="gm_56"/>
<path d="M254.2,1090.8c0,-.2,-1.1,1.1,-1.3,1.4c-.3,.3,.2,.1,.6,-.2c.4,-.2,1.2,-.4,1.2,-.4c0,0,-.4,-.5,-.5,-.8Z" class="g1b_56"/>
<image clip-path="url(#cf_56)" x="218" y="1059" width="44" height="30" xlink:href="shade/8.png"/>
<path d="M251.1,1066.2c4.2,8.9,10.4,7.7,10.4,7.7l-.4,1.4c-6.8,.7,-10.8,-8.1,-10.8,-8.1l-1.5,.7c.8,11.7,-8.8,20.2,-8.8,20.2l-21.1,-9.4l-.2,-1.9c8.4,-2.9,11.2,-16.3,11.2,-16.3c3.1,-.7,3.1,-1.5,3.1,-1.5c0,0,6.1,2.7,9,3.8c2.9,1.2,9.1,3.4,9.1,3.4Z" class="gm_56"/>
<image clip-path="url(#cg_56)" x="230" y="1059" width="21" height="9" xlink:href="shade/9.png"/>
<image clip-path="url(#ch_56)" x="218" y="1066" width="44" height="23" xlink:href="shade/10.png"/>
<path d="M218.7,1076.8c0,0,16.8,8.7,20.9,9.5c0,0,8.8,-7.7,8.5,-18.6c0,0,1.3,-2.2,2.7,-1.2c0,0,3.5,8.6,10.5,8l-.3,1.6c0,0,-7.4,.9,-10.9,-7.6c0,0,-1.5,15.6,-10.1,20.4l-21.2,-9.8l-.1,-2.3Z" class="gm_56"/>
<path d="M230.1,1061.5c-.2,.5,-2.7,8.1,-4.7,10.4c-2.1,2.4,-4.3,4.6,-5.3,4.8c-.9,.2,.7,1.3,3.2,-1.2c2.4,-2.4,6.6,-8.9,6.9,-11c.4,-2.1,.4,-4.3,-.1,-3Z" class="gb_56"/>
<image clip-path="url(#ci_56)" x="229" y="1062" width="19" height="11" xlink:href="shade/11.png"/>
<image clip-path="url(#cj_56)" x="227" y="1067" width="20" height="10" xlink:href="shade/12.png"/>
<image clip-path="url(#ck_56)" x="225" y="1070" width="19" height="12" xlink:href="shade/13.png"/>
<image clip-path="url(#cl_56)" x="222" y="1074" width="20" height="12" xlink:href="shade/14.png"/>
<path d="M230.2,1062.6c0,0,-1,3,1,4.2c1.9,1.2,3.1,-2.1,3.1,-2.1c0,0,-1.5,3.1,.9,4.2c2.4,1.1,3.7,-2.3,3.7,-2.3c0,0,-1.1,2.6,.6,3.9c1.6,1.3,2.9,-.7,3.3,-2.5c0,0,-.2,3.9,2,4.3c2.2,.3,2.9,-3.3,2.9,-3.3m-19,-2.4c0,0,-1.3,3,.7,4.2c1.9,1.2,3.3,-2.1,3.3,-2.1c0,0,-1.5,3.1,.9,4.2c2.4,1.1,3.7,-2.3,3.7,-2.3c0,0,-1.1,2.6,.6,3.9c1.7,1.3,2.9,-.7,3.3,-2.5c0,0,-.2,3.9,2,4.3c2.3,.3,3,-3.3,3,-3.3m-19.5,-2.9c0,0,-1.7,2.8,.1,4.1c1.9,1.3,3.9,-1.8,3.9,-1.8c0,0,-1.6,3,.7,4.2c2.3,1.3,3.8,-2,3.8,-2c0,0,-1.2,2.4,.4,3.8c1.6,1.4,2.9,-.5,3.4,-2.3c0,0,-.4,4,1.8,4.4c2.2,.5,3.1,-3.1,3.1,-3.1m-19.7,-3.6c0,0,-1.6,3.1,.2,4.4c1.8,1.4,3.7,-2,3.7,-2c0,0,-1.7,2.9,.7,4.2c2.3,1.3,3.8,-2,3.8,-2c0,0,-1.3,2.4,.3,3.9c1.6,1.4,3,-.6,3.5,-2.3c0,0,-.5,3.9,1.7,4.4c2.2,.5,3.3,-2.8,3.3,-2.8" class="g1c_56"/>
<path d="M239.6,1086.3l.4,2.6" class="gm_56"/>
<path d="M248.5,1068c-.2,.5,.1,5.9,-2.7,10.7c-2.9,4.7,-5.3,7.2,-5.9,7.6c-.3,.3,.2,.2,.8,-.2c.6,-.4,3.6,-3.4,6.3,-9.1c2.4,-5.2,1.8,-8.4,2,-9.2c.3,-.7,1.2,-.9,1.3,-.6c.1,.3,2.3,4,4.1,5.4c1.8,1.5,3.4,2.4,6.4,2.5l.2,-.4c0,0,-2.4,.3,-5.1,-1.4c-2.7,-1.8,-4.4,-4.7,-5.3,-6.6c0,0,-.5,-.5,-1.3,.1c-.9,.7,-.7,1,-.8,1.2Z" class="gb_56"/>
<path d="M219.2,1077.4c0,0,7,3.5,11.1,5.4c4.1,1.9,8.4,3.9,9,3.9c.6,0,-.1,.4,-1.1,0c-.9,-.3,-15.2,-6.7,-16.7,-7.6c-1.5,-.9,-3.1,-1.9,-2.3,-1.7Z" class="gb_56"/>
<path d="M258.3,1089c.6,-.6,2.4,-.7,3,.6c.3,.5,.7,1.9,-.2,2c-.9,.1,-5.2,.1,-2.8,-2.6Z" class="g1d_56"/>
<path d="M258.3,1089c.6,-.6,2.4,-.7,3,.6c.3,.5,.7,1.9,-.2,2c-.9,.1,-5.2,.1,-2.8,-2.6Z" class="gm_56"/>
<path d="M259.1,1088.9c.4,-.1,1,0,1.3,.3c.2,.4,-.3,.2,-.8,.3c-.5,.1,-.7,.5,-.9,.3c-.3,-.1,-.2,-.9,.4,-.9Z" class="gb_56"/>
<path d="M258.4,1090.4c.2,.2,1.3,.6,1.6,.6c.4,0,1,-1.1,1.1,-1.1c.1,0,.5,.6,.4,1.1c-.2,.4,-.4,.5,-1.6,.5c-1.2,-.1,-1.9,-.6,-2.1,-1c-.3,-.5,0,-.6,.6,-.1Z" class="g1e_56"/>
<path d="M261.3,1091.2c0,-.5,.6,-1.3,1.1,-1.5c.5,-.2,2.4,-.4,2.8,.4c.5,.8,.1,2.3,-.4,2.4c-.5,.1,-2.7,-.2,-3,-.4c-.3,-.1,-.5,-.4,-.5,-.9Z" class="g1d_56"/>
<path d="M261.3,1091.2c0,-.5,.6,-1.3,1.1,-1.5c.5,-.2,2.4,-.4,2.8,.4c.5,.8,.1,2.3,-.4,2.4c-.5,.1,-2.7,-.2,-3,-.4c-.3,-.1,-.5,-.4,-.5,-.9Z" class="gm_56"/>
<path d="M263.4,1089.8c.3,-.1,.9,0,1.1,.4c.3,.3,-.6,.3,-.9,.3c-.3,0,-.5,.2,-.8,-.1c-.2,-.3,.2,-.6,.6,-.6Z" class="gb_56"/>
<path d="M261.7,1090.7c.1,.3,1.2,.8,1.5,.9c.3,.1,1.7,-.2,1.7,-.4c.1,-.1,.3,-.6,.4,-.3c0,.4,-.1,1.4,-.6,1.4c-.5,.1,-2,0,-2.6,-.2c-.5,-.2,-.7,-.5,-.7,-.7c0,-.3,.2,-1,.3,-.7Z" class="g1e_56"/>
<path d="M264.9,1091.9c.4,-.5,1,-.9,1.5,-1.1c.6,-.2,2,.3,2.2,.9c.2,.7,0,1.7,-.4,1.9c-.5,.2,-1.7,.2,-2.3,0c-.6,-.2,-1.4,-1.2,-1,-1.7Z" class="g1d_56"/>
<path d="M264.9,1091.9c.4,-.5,1,-.9,1.5,-1.1c.6,-.2,2,.3,2.2,.9c.2,.7,0,1.7,-.4,1.9c-.5,.2,-1.7,.2,-2.3,0c-.6,-.2,-1.4,-1.2,-1,-1.7Z" class="gm_56"/>
<path d="M265.2,1091.9c.1,.3,.8,.8,1.2,.9c.3,0,1.8,-.1,1.9,-.2c.1,-.2,.1,-.8,.2,-.5c.1,.3,0,1.1,-.2,1.3c-.3,.2,-1.5,.2,-2,.1c-.5,-.1,-1.2,-.5,-1.3,-1.1c-.2,-.5,.2,-.7,.2,-.5Z" class="g1e_56"/>
<path d="M266.7,1091c.3,-.1,.9,0,1,.3c.2,.2,-.7,.3,-.9,.3c-.2,-.1,-.5,-.5,-.1,-.6Z" class="gb_56"/>
<path d="M246.6,1097.3c.2,-.5,2,-1.3,2.4,-1.3c.3,0,2,.7,2.2,1.4c.2,.7,.1,1.6,-.3,1.9c-.4,.3,-2.6,.3,-3.1,.2c-.6,-.1,-1.6,-1.4,-1.2,-2.2Z" class="g1d_56"/>
<path d="M246.6,1097.3c.2,-.5,2,-1.3,2.4,-1.3c.3,0,2,.7,2.2,1.4c.2,.7,.1,1.6,-.3,1.9c-.4,.3,-2.6,.3,-3.1,.2c-.6,-.1,-1.6,-1.4,-1.2,-2.2Z" class="gm_56"/>
<path d="M249.1,1096.3c.3,0,1.1,.4,1.1,.6c0,.2,-.7,.2,-.9,.1c-.3,0,-.5,-.7,-.2,-.7Z" class="gb_56"/>
<path d="M247.1,1097.1c.2,0,.9,.9,1.4,1c.4,.1,1.3,-.1,1.7,0c.4,0,.9,-.7,1,-.4c0,.2,-.1,1.2,-.5,1.4c-.4,.2,-2.9,.4,-3.1,.2c-.3,-.3,-.8,-.9,-.9,-1.5c0,-.6,.2,-.8,.4,-.7Z" class="g1e_56"/>
<path d="M250.3,1098.6c.3,-.2,2,-.9,2.8,-.5c.7,.4,1.3,1.2,1.3,1.9c0,.7,-.7,1.4,-1.7,1.5c-.9,.1,-2.3,-.4,-2.6,-.8c-.3,-.5,-.6,-1.7,.2,-2.1Z" class="g1d_56"/>
<path d="M250.3,1098.6c.3,-.2,2,-.9,2.8,-.5c.7,.4,1.3,1.2,1.3,1.9c0,.7,-.7,1.4,-1.7,1.5c-.9,.1,-2.3,-.4,-2.6,-.8c-.3,-.5,-.6,-1.7,.2,-2.1Z" class="gm_56"/>
<path d="M254.4,1100.2c.5,-.4,1.5,-.8,2.1,-.6c.6,.2,1.4,1.1,1.2,1.6c-.2,.5,-.9,1.2,-1.5,1.2c-.6,.1,-1.3,0,-1.7,-.2c-.3,-.3,-1,-1.1,-.1,-2Z" class="g1d_56"/>
<path d="M254.4,1100.2c.5,-.4,1.5,-.8,2.1,-.6c.6,.2,1.4,1.1,1.2,1.6c-.2,.5,-.9,1.2,-1.5,1.2c-.6,.1,-1.3,0,-1.7,-.2c-.3,-.3,-1,-1.1,-.1,-2Z" class="gm_56"/>
<path d="M252.4,1098.2c.2,0,.6,-.1,.8,.3c.2,.3,.1,.4,-.4,.3c-.5,0,-1.2,-.3,-.4,-.6Z" class="gb_56"/>
<path d="M250.3,1098.8c.2,.1,.7,1.1,.9,1.1c.2,.1,1.5,.5,1.8,.4c.3,-.1,1,-.6,1,-.8c0,-.2,.2,.1,.2,.5c0,.5,-.6,1,-1.2,1.2c-.6,.3,-2.3,-.3,-2.7,-.6c-.4,-.2,-.5,-1.9,0,-1.8Z" class="g1e_56"/>
<path d="M256.1,1099.7c.3,.1,.9,.4,.7,.5c-.1,.2,-.6,.2,-.8,.1c-.2,0,-.3,-.6,.1,-.6Z" class="gb_56"/>
<path d="M254.2,1100.8c.2,.3,1.3,.8,1.6,.8c.3,0,1.2,-.3,1.3,-.5c.1,-.2,0,-.8,.2,-.6c.3,.2,.3,.5,.1,.9c-.2,.3,-.8,.9,-1.1,.9c-.3,0,-1.4,0,-1.6,-.2c-.3,-.2,-.5,-.4,-.6,-.7c0,-.3,-.1,-.7,.1,-.6Z" class="g1e_56"/>
<path d="M212.4,1098.1c.6,-1.8,0,-6.8,0,-6.8c-.5,-1.2,-3.2,-1.5,-3.2,-1.5l-1,.6l.6,1.2l2.3,6.1" class="g1f_56"/>
<path d="M213.8,1095.3c-.6,-.5,-1.9,-.9,-1.9,-.9c0,-.2,-.1,-1,-.1,-1l.4,-.2c0,0,1.4,.3,2.2,1.2" class="g1g_56"/>
<path d="M214.6,1094.1c-.5,-.6,-2,-1.1,-2,-1.1c-.4,0,-.8,.4,-.8,.4c0,0,1.8,.8,2.2,1.2" class="g1f_56"/>
<path d="M216.1,1098.8c.6,-.7,1.6,-5.9,1.6,-5.9c-.7,-1.1,-3.5,-1.8,-3.5,-1.8c-.6,-.1,-1,.5,-1,.5l.3,.6l1.7,6.4" class="g1f_56"/>
<path d="M213.4,1098.1c0,0,.8,-3.8,-.2,-6.5c0,0,2.2,.4,3.6,1.5c0,0,-.8,4.7,-1.4,5.8" class="g1g_56"/>
<path d="M218.7,1097.1c-.6,-.5,-2.1,-1,-2.1,-1c0,-.2,-.1,-1,-.1,-1l.4,-.2c0,0,1.7,.4,2.5,1.3" class="g1g_56"/>
<path d="M219.7,1095.9c-.5,-.6,-2.2,-1.2,-2.2,-1.2c-.5,0,-1,.4,-1,.4c0,0,1.7,.4,2.5,1.3" class="g1f_56"/>
<path d="M221.5,1100.4c1.1,-2.1,1.4,-5.6,1.4,-5.6c-.7,-.8,-3.3,-1.8,-3.3,-1.8c-.6,.1,-1.2,.5,-1.2,.5l.1,.5l1.8,6" class="g1f_56"/>
<path d="M223.8,1098.8c-.6,-.6,-2.1,-1.1,-2.1,-1.1c.1,-.2,0,-1.1,0,-1.1l.5,-.2c0,0,1.6,.5,2.4,1.5" class="g1g_56"/>
<path d="M224.9,1097.6c-.5,-.6,-2.2,-1.3,-2.2,-1.3c-.4,0,-1,.3,-1,.3c0,0,1.6,.5,2.4,1.5" class="g1f_56"/>
<path d="M226.4,1102.1c1.6,-2.3,1.7,-5.7,1.7,-5.7c-.7,-.8,-3.4,-1.8,-3.4,-1.8c-.5,.1,-1.1,.4,-1.1,.4l.1,.6l1.8,6" class="g1f_56"/>
<path d="M228.7,1100.8c-.5,-.6,-1.9,-1.3,-1.9,-1.3c0,-.2,.1,-1.1,.1,-1.1l.5,-.1c0,0,1.5,.7,2.1,1.8" class="g1g_56"/>
<path d="M229.9,1099.8c-.4,-.6,-2,-1.6,-2,-1.6c-.4,0,-1,.2,-1,.2c0,0,1.7,.9,2.2,1.8" class="g1f_56"/>
<path d="M230.9,1104.6c1.4,-2,2.3,-5.5,2.3,-5.5c-.5,-.9,-2.9,-2.2,-2.9,-2.2c-.5,-.1,-1.3,.2,-1.3,.2v.6l.8,6.4" class="g1f_56"/>
<path d="M234,1103.5c-.7,-1.2,-2.4,-1.8,-2.4,-1.8c0,-.2,-.1,-1,-.1,-1l.5,-.2c0,0,1.6,.5,2.4,1.5" class="g1g_56"/>
<path d="M234.7,1101.7c-.5,-.5,-2.1,-1.3,-2.1,-1.3c-.5,0,-1.1,.3,-1.1,.3c0,0,2,1,2.4,1.5" class="g1f_56"/>
<path d="M236.2,1106.4c1.2,-2.2,1.7,-5.8,1.7,-5.8c-.6,-.8,-3.1,-1.9,-3.1,-1.9c-.6,.1,-1.3,.4,-1.3,.4v.6l1.6,6.2" class="g1f_56"/>
<path d="M209.7,1097.7c0,0,-.5,-5.3,-1.5,-7.3c0,0,2.7,.2,3.3,1.1c0,0,.6,5.5,.1,6.4" class="g1g_56"/>
<path d="M218.4,1099.5c.5,-2,0,-6,0,-6c0,0,2.1,.4,3.3,1.4c0,0,0,3.8,-1.3,5.3" class="g1g_56"/>
<path d="M223.6,1101.1c.5,-2,0,-6.1,0,-6.1c0,0,2.1,.5,3.2,1.5c0,0,0,3.8,-1.2,5.3" class="g1g_56"/>
<path d="M228.1,1103.2c.8,-2,.9,-6.1,.9,-6.1c0,0,1.8,1,2.8,2.2c0,0,-.5,3.6,-2,4.9" class="g1g_56"/>
<path d="M233.4,1105.2c.5,-2,.1,-6.1,.1,-6.1c0,0,2,.5,3.2,1.6c0,0,-.2,3.9,-1.5,5.4" class="g1g_56"/>
<path d="M202.1,1172.8h78.1v-49.4H202.1v49.4Z" class="gb_56"/>
<image clip-path="url(#cm_56)" x="207" y="1146" width="68" height="20" xlink:href="shade/15.png"/>
<image clip-path="url(#cn_56)" x="205" y="1130" width="72" height="22" xlink:href="shade/16.png"/>
<path d="M32.1,45.1H9.2m958.3,0h22.9M32.1,1331.3H9.2m958.3,0h22.9M45.1,32.1V9.2m0,1335.1v22.9M954.5,32.1V9.2m0,1335.1v22.9" class="g1h_56"/>
<path d="M32.1,45.1H9.2m958.3,0h22.9M32.1,1331.3H9.2m958.3,0h22.9M45.1,32.1V9.2m0,1335.1v22.9M954.5,32.1V9.2m0,1335.1v22.9" class="g1i_56"/>
<path d="M27.5,32.1H0m972.1,0h27.5M27.5,1344.3H0m972.1,0h27.5M32.1,27.5V0m0,1348.9v27.5M967.5,27.5V0m0,1348.9v27.5" class="g1h_56"/>
<path d="M27.5,32.1H0m972.1,0h27.5M27.5,1344.3H0m972.1,0h27.5M32.1,27.5V0m0,1348.9v27.5M967.5,27.5V0m0,1348.9v27.5" class="g1i_56"/>
</svg>