<?xml version="1.0" encoding="UTF-8" standalone="no"?>
<!DOCTYPE svg PUBLIC "-//W3C//DTD SVG 1.1//EN"
"http://www.w3.org/Graphics/SVG/1.1/DTD/svg11.dtd">
<svg viewBox="0 0 999 1376" version="1.1" xmlns="http://www.w3.org/2000/svg" xmlns:xlink="http://www.w3.org/1999/xlink">
<defs>
<clipPath id="c0_353"><path d="M32.1,1344.3V32.1H967.5V1344.3Z"/></clipPath>
<clipPath id="c1_353"><path d="M682.7,178.5V64.7H865.1V178.5Z"/></clipPath>
<clipPath id="c2_353"><path d="M215,430V347H831.1v83Z"/></clipPath>
<clipPath id="c3_353"><path d="M215,613.6V487.1H831.1V613.6Z"/></clipPath>
<clipPath id="c4_353"><path d="M191.6,824.3V697.8H850.5V824.3Z"/></clipPath>
<style type="text/css"><![CDATA[
.g0_353{
fill: #FEFCF4;
}
.g1_353{
fill: #F16865;
}
.g2_353{
fill: #6381B7;
}
.g3_353{
fill: none;
stroke: #6381B7;
stroke-width: 0.381;
stroke-dasharray: 2,1;
}
.g4_353{
fill: none;
stroke: #6381B7;
stroke-width: 0.381;
}
.g5_353{
fill: #FEF9F9;
}
.g6_353{
fill: none;
stroke: #A164A9;
stroke-width: 1.527;
stroke-linecap: round;
stroke-linejoin: round;
stroke-dasharray: 0,5;
}
.g7_353{
fill: none;
stroke: #A164A9;
stroke-width: 1.527;
stroke-linecap: round;
stroke-linejoin: round;
}
.g8_353{
fill: #A164A9;
}
.g9_353{
fill: #FFF;
}
.ga_353{
fill: none;
stroke: #231F20;
stroke-width: 0.305;
stroke-miterlimit: 10;
}
.gb_353{
fill: none;
stroke: #58595B;
stroke-width: 0.763;
stroke-miterlimit: 10;
stroke-dasharray: 4,4;
}
.gc_353{
fill: none;
stroke: #58595B;
stroke-width: 0.763;
}
.gd_353{
fill: none;
stroke: #FFF;
stroke-width: 1.909;
stroke-miterlimit: 10;
}
.ge_353{
fill: none;
stroke: #000;
stroke-width: 0.381;
stroke-miterlimit: 10;
}
]]></style>
</defs>
<path clip-path="url(#c0_353)" d="M-877.3,1344.3H45.1V32.1H-877.3V1344.3Z" class="g0_353"/>
<path d="M45.1,1344.3H967.5V32.1H45.1V1344.3Z" class="g0_353"/>
<path clip-path="url(#c0_353)" d="M867.9,166.7c0,0,30.3,0,30.3,-30.3v-4.3c0,0,0,-30.3,-30.3,-30.3H-735.4c0,0,-30.4,0,-30.4,30.3v4.3c0,0,0,30.3,30.4,30.3Z" class="g1_353"/>
<path d="M669.1,1192.2c0,0,-4.4,0,-4.4,4.4v10.8c0,0,0,4.3,4.4,4.3h30.3c0,0,4.3,0,4.3,-4.3v-10.8c0,0,0,-4.4,-4.3,-4.4Z" class="g2_353"/>
<path d="M655.9,1184.7v34.9m1.3,1H866.8m.9,-1.4v-34.8m-1.3,-1H656.8" class="g3_353"/>
<path d="M655.9,1220v.6h.6m210.7,0h.5v-.6m0,-36v-.6h-.5m-210.7,0h-.6v.6" class="g4_353"/>
<image clip-path="url(#c1_353)" preserveAspectRatio="none" x="683" y="65" width="182" height="113" xlink:href="img/1.png"/>
<path d="M154.1,1171.2h713V251h-713v920.2Z" class="g5_353"/>
<path d="M154.1,255.6v913.3m4.6,2.3H864.9m2.2,-4.6V253.3M862.6,251H156.4" class="g6_353"/>
<path d="M154.1,1171.2v0m713.1,0v0m0,-920.2v0m-713.1,0v0" class="g7_353"/>
<path d="M153.3,265.3V227c0,0,0,-8.7,8.7,-8.7H859.3c0,0,8.6,0,8.6,8.7v38.9Z" class="g8_353"/>
<image clip-path="url(#c2_353)" preserveAspectRatio="none" x="215" y="347" width="615" height="84" xlink:href="img/2.png"/>
<path d="M218.3,423.9H824.6V350.2H218.3v73.7Z" class="g9_353"/>
<path d="M567.6,380h70.9" class="ga_353"/>
<image clip-path="url(#c3_353)" preserveAspectRatio="none" x="215" y="487" width="615" height="127" xlink:href="img/3.png"/>
<path d="M218.3,607.3H824.6V490.4H218.3V607.3Z" class="g9_353"/>
<path d="M687.2,520.2h67.9" class="ga_353"/>
<image clip-path="url(#c4_353)" preserveAspectRatio="none" x="191" y="698" width="659" height="127" xlink:href="img/4.png"/>
<path d="M194.9,818H844.5V701.1H194.9V818Z" class="g9_353"/>
<path d="M195.3,1144.7h337V920.3h-337v224.4Z" class="g9_353"/>
<path d="M213,950H514.6M213,1028H514.6M213,1061.1H514.6" class="gb_353"/>
<path d="M195.3,1144.7h337V920.3h-337v224.4Z" class="gc_353"/>
<path d="M32.1,45.1H9.2m958.3,0h22.9M32.1,1331.3H9.2m958.3,0h22.9M45.1,32.1V9.2m0,1335.1v22.9M954.5,32.1V9.2m0,1335.1v22.9" class="gd_353"/>
<path d="M32.1,45.1H9.2m958.3,0h22.9M32.1,1331.3H9.2m958.3,0h22.9M45.1,32.1V9.2m0,1335.1v22.9M954.5,32.1V9.2m0,1335.1v22.9" class="ge_353"/>
<path d="M27.5,32.1H0m972.1,0h27.5M27.5,1344.3H0m972.1,0h27.5M32.1,27.5V0m0,1348.9v27.5M967.5,27.5V0m0,1348.9v27.5" class="gd_353"/>
<path d="M27.5,32.1H0m972.1,0h27.5M27.5,1344.3H0m972.1,0h27.5M32.1,27.5V0m0,1348.9v27.5M967.5,27.5V0m0,1348.9v27.5" class="ge_353"/>
</svg>