<?xml version="1.0" encoding="UTF-8" standalone="no"?>
<!DOCTYPE svg PUBLIC "-//W3C//DTD SVG 1.1//EN"
"http://www.w3.org/Graphics/SVG/1.1/DTD/svg11.dtd">
<svg viewBox="0 0 999 1376" version="1.1" xmlns="http://www.w3.org/2000/svg" xmlns:xlink="http://www.w3.org/1999/xlink">
<defs>
<clipPath id="c0_181"><path d="M153.3,976.2V131.7H867.9V976.2Z"/></clipPath>
<clipPath id="c1_181"><path d="M177.2,750.7v-527H827.9v527Z"/></clipPath>
<style type="text/css"><![CDATA[
.g0_181{
fill: #FEF9EC;
}
.g1_181{
fill: none;
stroke: #FECD4E;
stroke-width: 1.527;
stroke-linecap: round;
stroke-linejoin: round;
stroke-dasharray: 0,5;
}
.g2_181{
fill: none;
stroke: #FECD4E;
stroke-width: 1.527;
stroke-linecap: round;
stroke-linejoin: round;
}
.g3_181{
fill: #FECD4E;
}
.g4_181{
fill: #FFE3A6;
}
.g5_181{
fill: #F37B69;
}
.g6_181{
fill: #FFDE2C;
}
.g7_181{
fill: #3D3B39;
}
.g8_181{
fill: #FFF;
}
.g9_181{
fill: none;
stroke: #231F20;
stroke-width: 0.756;
stroke-miterlimit: 3;
}
.ga_181{
fill: #F5C44D;
}
.gb_181{
fill: none;
stroke: #F9E5AF;
stroke-width: 1.083;
stroke-miterlimit: 10;
}
.gc_181{
fill: #25408F;
}
.gd_181{
fill: #6381B7;
}
.ge_181{
fill: none;
stroke: #231F20;
stroke-width: 1.451;
stroke-miterlimit: 10;
}
.gf_181{
fill: #D2D3D5;
}
.gg_181{
fill: #A8AAAD;
}
.gh_181{
fill: none;
stroke: #231F20;
stroke-width: 0.828;
stroke-miterlimit: 10;
}
.gi_181{
fill: #6CCFF6;
}
.gj_181{
fill: none;
stroke: #231F20;
stroke-width: 0.828;
stroke-linecap: round;
stroke-linejoin: round;
}
.gk_181{
fill: none;
stroke: #231F20;
stroke-width: 1.451;
stroke-linecap: round;
stroke-linejoin: round;
}
.gl_181{
fill: none;
stroke: #6381B7;
stroke-width: 0.381;
stroke-dasharray: 2,1;
}
.gm_181{
fill: none;
stroke: #6381B7;
stroke-width: 0.381;
}
.gn_181{
fill: none;
stroke: #FFF;
stroke-width: 1.909;
stroke-miterlimit: 10;
}
.go_181{
fill: none;
stroke: #000;
stroke-width: 0.381;
stroke-miterlimit: 10;
}
]]></style>
</defs>
<path d="M154.1,1194.5h713V1028.7h-713v165.8Z" class="g0_181"/>
<path d="M154.1,1033.3v158.9m4.6,2.3H864.9m2.2,-4.6V1031m-4.5,-2.3H156.4" class="g1_181"/>
<path d="M154.1,1194.5v0m713.1,0v0m0,-165.8v0m-713.1,0v0" class="g2_181"/>
<path d="M153.3,1032v-28.7c0,0,0,-8.6,8.7,-8.6H859.3c0,0,8.6,0,8.6,8.6v29.2Z" class="g3_181"/>
<path d="M344.4,1089c0,0,-2.2,0,-2.2,2.2v17.3c0,0,0,2.2,2.2,2.2h18.2c0,0,2.1,0,2.1,-2.2v-17.3c0,0,0,-2.2,-2.1,-2.2Z" class="g4_181"/>
<path d="M371.6,1089c0,0,-2.2,0,-2.2,2.2v17.3c0,0,0,2.2,2.2,2.2h18.2c0,0,2.2,0,2.2,-2.2v-17.3c0,0,0,-2.2,-2.2,-2.2Z" class="g4_181"/>
<path d="M269.5,1122.1c0,0,-2.2,0,-2.2,2.2v17.3c0,0,0,2.2,2.2,2.2h18.1c0,0,2.2,0,2.2,-2.2v-17.3c0,0,0,-2.2,-2.2,-2.2Z" class="g4_181"/>
<path d="M302.6,1155.2c0,0,-2.1,0,-2.1,2.2v17.3c0,0,0,2.2,2.1,2.2h18.2c0,0,2.2,0,2.2,-2.2v-17.3c0,0,0,-2.2,-2.2,-2.2Z" class="g4_181"/>
<path d="M329.9,1155.2c0,0,-2.2,0,-2.2,2.2v17.3c0,0,0,2.2,2.2,2.2h18.2c0,0,2.1,0,2.1,-2.2v-17.3c0,0,0,-2.2,-2.1,-2.2Z" class="g4_181"/>
<path d="M357.1,1155.2c0,0,-2.2,0,-2.2,2.2v17.3c0,0,0,2.2,2.2,2.2h18.2c0,0,2.2,0,2.2,-2.2v-17.3c0,0,0,-2.2,-2.2,-2.2Z" class="g4_181"/>
<path d="M384.4,1155.2c0,0,-2.2,0,-2.2,2.2v17.3c0,0,0,2.2,2.2,2.2h18.1c0,0,2.2,0,2.2,-2.2v-17.3c0,0,0,-2.2,-2.2,-2.2Z" class="g4_181"/>
<path d="M199.6,1012.5c-.1,.1,-.2,.1,-.3,.1c-.2,0,-.3,0,-.4,-.1l-12.4,-5.3v12.6c.9,.2,1.8,.4,2.7,.6c3.3,.7,6.6,1.5,10.1,1.5c3.4,0,6.8,-.8,10,-1.5c.9,-.2,1.8,-.4,2.7,-.6v-12.6Z" class="g5_181"/>
<path d="M178.3,1001.6l21,9l20.9,-9l-20.9,-8.9Z" class="g6_181"/>
<path d="M223,1000.8l-23.4,-10c-.2,-.1,-.5,-.1,-.7,0l-23.3,10c-.4,.1,-.6,.5,-.6,.8c0,.4,.2,.8,.6,.9l9,3.9v14.2c0,.4,.4,.8,.8,.9c1.1,.2,2.2,.5,3.4,.7c3.3,.8,6.8,1.6,10.5,1.6c3.6,0,7.1,-.8,10.5,-1.6c1.1,-.2,2.2,-.5,3.3,-.7c.5,-.1,.8,-.5,.8,-.9v-14.2l3.2,-1.4v17c-1.6,.4,-2.8,1.9,-2.8,3.6v5.2c0,2.1,1.7,3.8,3.8,3.8c2,0,3.7,-1.7,3.7,-3.8v-5.2c0,-1.7,-1.2,-3.2,-2.8,-3.6v-17.8l4,-1.7c.3,-.1,.5,-.5,.5,-.9c0,-.3,-.2,-.7,-.5,-.8m-3,24.8v3.3q-.1,0,-.2,0h-3.6v-3.3c0,-1,.8,-1.8,1.9,-1.8c1,0,1.9,.8,1.9,1.8m-1.9,7.1c-1.1,0,-1.9,-.9,-1.9,-1.9v-.9h3.6c.1,0,.1,-.1,.2,-.1v1c0,1,-.9,1.9,-1.9,1.9m-18.8,-22.1l-21,-9l21,-8.9l20.9,8.9Zm10,9.8c-3.2,.7,-6.6,1.5,-10,1.5c-3.5,0,-6.8,-.8,-10.1,-1.5c-.9,-.2,-1.8,-.4,-2.7,-.6v-12.6l12.4,5.3c.1,.1,.2,.1,.4,.1c.1,0,.2,0,.3,-.1l12.4,-5.3v12.6c-.9,.2,-1.8,.4,-2.7,.6Z" class="g7_181"/>
<path d="M219.8,1029.9h-3.6v.9c0,1,.8,1.9,1.9,1.9c1,0,1.9,-.9,1.9,-1.9v-1c-.1,0,-.1,.1,-.2,.1Z" class="g8_181"/>
<path d="M218.1,1023.8c-1.1,0,-1.9,.8,-1.9,1.8v3.3h3.6q.1,0,.2,0v-3.3c0,-1,-.9,-1.8,-1.9,-1.8Z" class="g8_181"/>
<path d="M153.3,976.2H867.9V131.7H153.3V976.2Z" class="g8_181"/>
<image clip-path="url(#c0_181)" preserveAspectRatio="none" x="151" y="130" width="720" height="848" xlink:href="img/1.jpg"/>
<path d="M380,189.8c-.3,.6,-.7,1.2,-1.3,1.6c-.5,.4,-1.1,.8,-1.8,1c-.7,.2,-1.5,.4,-2.3,.4c-.8,0,-1.5,-.2,-2.2,-.4c-.7,-.2,-1.3,-.5,-1.9,-1c-.5,-.4,-.9,-.9,-1.2,-1.5c-.3,-.6,-.5,-1.3,-.5,-2.1c0,-.7,.2,-1.3,.5,-1.9c.3,-.6,.7,-1.2,1.2,-1.6c.5,-.4,1.2,-.8,1.9,-1c.7,-.3,1.4,-.4,2.2,-.4c.9,0,1.7,.1,2.4,.4c.7,.2,1.3,.6,1.8,1c.5,.4,1,1,1.3,1.6c.3,.6,.4,1.2,.4,1.9c0,.8,-.2,1.4,-.5,2Zm11.5,-2.4h-4.3v7.9H385V177.9h2.2v7.6h4.3v1.9Zm-17,14.9c-.8,0,-1.4,-.2,-1.8,-.6c-.4,-.3,-.6,-.9,-.6,-1.6v-5.2h2.3v4.8c0,.3,0,.5,.1,.6c.1,.1,.3,.2,.7,.2h7.1c1.1,0,2,-.1,2.9,-.2c.8,-.1,1.7,-.3,2.6,-.7l.5,1.8c-1,.3,-2,.5,-3,.7c-.9,.1,-1.9,.2,-2.9,.2h-7.9Zm2.7,-16.8c-.7,-.5,-1.6,-.8,-2.6,-.8c-.9,0,-1.8,.3,-2.5,.8c-.7,.6,-1,1.3,-1,2.3c0,1.1,.3,1.9,1,2.4c.7,.5,1.6,.8,2.5,.8c1,0,1.9,-.3,2.6,-.8c.7,-.5,1,-1.3,1,-2.4c0,-1,-.3,-1.7,-1,-2.3Zm4.7,-3.4H367.4v-1.8h5.5c.2,-.4,.4,-.8,.5,-1.1c0,-.3,.1,-.6,.1,-.9c0,-.2,-.1,-.3,-.1,-.4c0,-.1,0,-.2,0,-.3c-.1,-.1,-.1,-.2,-.1,-.3c-.1,-.1,-.1,-.2,-.1,-.3l2.1,-.7c.2,.3,.2,.6,.3,.9c0,.3,0,.6,0,.9c0,.4,-.1,.8,-.2,1.2c-.1,.3,-.2,.7,-.4,1h6.9v1.8Zm31.9,7.1h-10v4.3h4.8c.9,0,1.4,.2,1.7,.5c.3,.4,.4,1,.4,1.7l-.3,6.9h-1.9V196c0,-.2,-.1,-.4,-.2,-.5c-.1,-.2,-.3,-.2,-.6,-.2H395v-1.8h6.5v-4.3h-9v-1.8h15.2c.2,-1.1,.4,-2.3,.5,-3.5c.2,-1.3,.3,-2.5,.2,-3.6c0,-.2,0,-.4,-.1,-.5c-.2,-.1,-.4,-.2,-.6,-.2H395.4v-1.8h12.9c.8,0,1.4,.2,1.8,.5c.3,.3,.5,.8,.6,1.5c0,1.1,-.1,2.4,-.3,3.7c-.1,1.4,-.4,2.7,-.6,3.9h4v1.8Zm15.9,-2c-.4,.8,-.8,1.5,-1.4,2c-.6,.6,-1.3,1,-2.1,1.3c-.8,.3,-1.7,.4,-2.6,.4c-1,0,-1.9,-.1,-2.7,-.4c-.8,-.3,-1.5,-.7,-2.1,-1.3c-.6,-.5,-1,-1.2,-1.3,-2c-.3,-.7,-.5,-1.6,-.5,-2.5c0,-1,.2,-1.8,.5,-2.6c.3,-.7,.8,-1.4,1.4,-1.9c.5,-.6,1.2,-1,2,-1.3c.8,-.3,1.7,-.5,2.7,-.5c.9,0,1.8,.2,2.6,.5c.8,.3,1.5,.7,2.1,1.3c.6,.5,1,1.2,1.4,1.9c.3,.8,.4,1.6,.4,2.6c0,.9,-.1,1.8,-.4,2.5Zm6.4,13.5h-2.3v-5.6c-1.1,.7,-2.3,1.2,-3.6,1.5c-1.3,.3,-2.7,.4,-4.4,.4h-9.9v-1.8h9.8c1.5,0,2.9,-.2,4.2,-.5c1.3,-.3,2.6,-.9,3.9,-1.7V178.2h2.3v22.5Zm-9.4,-19.3c-.8,-.7,-1.9,-1.1,-3.1,-1.1c-1.3,0,-2.3,.4,-3.1,1.1c-.8,.8,-1.2,1.9,-1.2,3.3c0,1.4,.4,2.5,1.2,3.3c.8,.7,1.8,1.1,3.1,1.1c1.2,0,2.3,-.4,3.1,-1.1c.8,-.8,1.2,-1.9,1.2,-3.3c0,-1.4,-.4,-2.5,-1.2,-3.3Zm27.1,-2.8c.2,.5,.4,1.1,.5,1.6c.1,.5,.2,1.2,.2,1.9c0,.9,-.1,1.9,-.2,2.7c0,.8,-.2,1.6,-.4,2.3c.7,.2,1.2,.4,1.7,.7c.5,.3,.9,.7,1.3,1.1c.4,.5,.9,1.3,1.5,2.2c.6,.9,1.3,2,2,3.1l-1.7,1.3c-.6,-1,-1.2,-2,-1.8,-2.9c-.6,-.9,-1.1,-1.7,-1.6,-2.3c-.2,-.3,-.5,-.6,-.8,-.8c-.3,-.3,-.7,-.5,-1.2,-.7c-.2,.3,-.3,.6,-.5,.9c-.1,.2,-.3,.5,-.4,.8c-.7,.9,-1.5,1.9,-2.3,2.7c-.9,.9,-1.8,1.8,-2.8,2.6l-1.4,-1.7c1,-.8,1.9,-1.5,2.7,-2.3c.7,-.8,1.4,-1.6,2,-2.4c.6,-1,1.1,-2.2,1.3,-3.4c.2,-1.2,.3,-2.5,.3,-3.8c0,-.6,-.1,-1.1,-.2,-1.6c-.1,-.5,-.2,-.9,-.3,-1.2l2.1,-.8ZM470,188.9h-4.3v11.8h-2.3V178.2h2.3v8.9H470v1.8Zm1.8,5.2c1.1,-.8,2.1,-1.6,3,-2.5c.9,-.8,1.8,-1.8,2.5,-2.8c.7,-1,1.2,-2.1,1.7,-3.3c.4,-1.1,.7,-2.4,.8,-3.7c0,-.3,-.1,-.5,-.1,-.6c-.1,-.2,-.3,-.2,-.5,-.2h-7.1v-1.8h7.8c.8,0,1.4,.2,1.7,.6c.3,.4,.5,1,.4,1.6c0,.3,-.1,.7,-.1,1c0,.3,-.1,.6,-.1,.9h3.5v-5.1h2.2v21.9h-2.2v-8h-4.8v-1.8h4.8v-5.2h-3.9c-.7,2.3,-1.8,4.3,-3.3,6.1c-1.4,1.7,-3.1,3.3,-4.9,4.7l-1.4,-1.8Zm19.1,-15.9h2.2v22.5h-2.2V178.2ZM509.4,182.4h4.5v-4.5h2.3v9.2c0,.4,0,.7,-.1,1.2c-.1,.4,-.2,.8,-.4,1.2c-.2,.5,-.4,.9,-.7,1.2c-.3,.4,-.6,.7,-1,.9h.6c.7,0,1.1,.1,1.3,.4c.2,.3,.3,.7,.3,1.3l-.4,3.9c0,.3,-.1,.5,-.3,.6c-.1,.1,-.4,.2,-.7,.2H503.2v2.8h7.7c.8,0,1.7,0,2.6,-.1c1,-.1,1.9,-.3,2.9,-.7l.5,1.7c-.8,.3,-1.7,.5,-2.7,.7c-1.1,.1,-2.1,.2,-3.1,.2h-8.4c-.7,0,-1.1,-.2,-1.4,-.5c-.2,-.2,-.4,-.6,-.4,-1.1v-4.8h13v-2.8h-13v-1.8h11.2c.7,-.6,1.2,-1.3,1.5,-2.1c.2,-.8,.3,-1.7,.3,-2.4v-2.9h-4.5v-1.8Zm-12,-4.1h8.5c.4,0,.8,.1,1,.2c.2,.1,.4,.3,.5,.5c.1,.3,.2,.5,.2,.7c0,.3,-.1,.5,-.1,.7c-.2,.7,-.4,1.3,-.7,2c-.4,.6,-.7,1.2,-1.2,1.8c.5,.2,1,.3,1.3,.5c.4,.3,.7,.5,1,.8c.4,.4,.9,.9,1.4,1.4c.5,.5,.9,1,1.3,1.5l-1.4,1.4c-.2,-.2,-.5,-.5,-.7,-.7c-.2,-.3,-.4,-.5,-.6,-.7c-.2,-.3,-.5,-.5,-.7,-.8c-.2,-.2,-.4,-.4,-.7,-.7c-.3,-.3,-.6,-.5,-.9,-.7c-.4,-.2,-.8,-.4,-1.3,-.5c-.9,.9,-1.9,1.7,-3,2.5c-1.2,.7,-2.5,1.4,-3.8,2l-.9,-1.8c2.2,-1,4.1,-2.1,5.4,-3.4c1.4,-1.2,2.4,-2.6,3.1,-4.2c.1,-.2,.1,-.4,0,-.6c-.1,-.1,-.3,-.1,-.6,-.1h-7.1v-1.8Z" class="g9_181"/>
<image clip-path="url(#c1_181)" preserveAspectRatio="none" x="175" y="222" width="655" height="530" xlink:href="img/2.png"/>
<path d="M196.1,751.3h47.6v49.8H196.1V751.3Zm155.9,0h47.7v49.8H352V751.3Zm155.9,0h47.7v49.8H507.9V751.3Zm155.9,0h47.7v49.8H663.8V751.3ZM196.1,801.1h47.6v49.8H196.1V801.1Zm155.9,0h47.7v49.8H352V801.1Zm155.9,0h47.7v49.8H507.9V801.1Zm155.9,0h47.7v49.8H663.8V801.1ZM196.1,850.9h47.6v49.8H196.1V850.9Zm155.9,0h47.7v49.8H352V850.9Zm155.9,0h47.7v49.8H507.9V850.9Zm155.9,0h47.7v49.8H663.8V850.9ZM196.1,900.7h47.6v49.8H196.1V900.7Zm155.9,0h47.7v49.8H352V900.7Zm155.9,0h47.7v49.8H507.9V900.7Zm155.9,0h47.7v49.8H663.8V900.7Z" class="ga_181"/>
<path d="M243.7,751.3H352v49.8H243.7V751.3Zm0,49.8H352v49.8H243.7V801.1Zm0,49.8H352v49.8H243.7V850.9Zm0,49.8H352v49.8H243.7V900.7Z" class="g8_181"/>
<path d="M399.7,751.3H507.9v49.8H399.7V751.3Zm0,49.8H507.9v49.8H399.7V801.1Zm0,49.8H507.9v49.8H399.7V850.9Zm0,49.8H507.9v49.8H399.7V900.7Z" class="g8_181"/>
<path d="M555.6,751.3H663.8v49.8H555.6V751.3Zm0,49.8H663.8v49.8H555.6V801.1Zm0,49.8H663.8v49.8H555.6V850.9Zm0,49.8H663.8v49.8H555.6V900.7Z" class="g8_181"/>
<path d="M711.5,751.3H819.7v49.8H711.5V751.3Zm0,49.8H819.7v49.8H711.5V801.1Zm0,49.8H819.7v49.8H711.5V850.9Zm0,49.8H819.7v49.8H711.5V900.7Z" class="g8_181"/>
<path d="M195.6,751.3h48.1m-47.6,49.3V751.8m47.6,-.5H352M243.7,800.6V751.8M352,751.3h47.7M352,800.6V751.8m47.7,-.5H507.9M399.7,800.6V751.8m108.2,-.5h47.7m-47.7,49.3V751.8m47.7,-.5H663.8M555.6,800.6V751.8m108.2,-.5h47.7m-47.7,49.3V751.8m47.7,-.5H820.3M711.5,800.6V751.8m108.2,48.8V751.8M195.6,801.1h48.1m-47.6,49.3V801.7m47.6,-.6H352M243.7,850.4V801.7M352,801.1h47.7M352,850.4V801.7m47.7,-.6H507.9M399.7,850.4V801.7m108.2,-.6h47.7m-47.7,49.3V801.7m47.7,-.6H663.8M555.6,850.4V801.7m108.2,-.6h47.7m-47.7,49.3V801.7m47.7,-.6H820.3M711.5,850.4V801.7m108.2,48.7V801.7M195.6,850.9h48.1m-47.6,49.3V851.5m47.6,-.6H352M243.7,900.2V851.5M352,850.9h47.7M352,900.2V851.5m47.7,-.6H507.9M399.7,900.2V851.5m108.2,-.6h47.7m-47.7,49.3V851.5m47.7,-.6H663.8M555.6,900.2V851.5m108.2,-.6h47.7m-47.7,49.3V851.5m47.7,-.6H820.3M711.5,900.2V851.5m108.2,48.7V851.5M195.6,900.7h48.1M196.1,950V901.3m47.6,-.6H352M243.7,950V901.3M352,900.7h47.7M352,950V901.3m47.7,-.6H507.9M399.7,950V901.3m108.2,-.6h47.7M507.9,950V901.3m47.7,-.6H663.8M555.6,950V901.3m108.2,-.6h47.7M663.8,950V901.3m47.7,-.6H820.3M711.5,950V901.3M819.7,950V901.3M195.6,950.5h48.1m0,0H352m0,0h47.7m0,0H507.9m0,0h47.7m0,0H663.8m0,0h47.7m0,0H820.3" class="gb_181"/>
<path d="M153.3,126.3v22.2L165,158.7V136.5Z" class="gc_181"/>
<path d="M153.3,109.5v39H851.1c0,0,16.8,0,16.8,-16.8v-5.4c0,0,0,-16.8,-16.8,-16.8Z" class="gd_181"/>
<path d="M207.2,115.7c0,-9.1,-7.9,-16.6,-17.7,-16.6c-9.8,0,-17.7,7.5,-17.7,16.6c0,2.7,.6,5.2,1.8,7.4c1.2,2.4,2.9,4.6,5,6.2c1.2,1,1.6,1.7,1.7,4.3v.6c0,3.3,2.7,5.9,5.9,5.9h6.6c3.2,0,5.8,-2.6,5.8,-5.9v-.6c.2,-2.6,.6,-3.3,1.8,-4.3c2.1,-1.6,3.8,-3.8,5,-6.2c1.2,-2.2,1.8,-4.7,1.8,-7.4Z" class="g6_181"/>
<path d="M207.2,115.7c0,-9.1,-7.9,-16.6,-17.7,-16.6c-9.8,0,-17.7,7.5,-17.7,16.6c0,2.7,.6,5.2,1.8,7.4c1.2,2.4,2.9,4.6,5,6.2c1.2,1,1.6,1.7,1.7,4.3v.6c0,3.3,2.7,5.9,5.9,5.9h6.6c3.2,0,5.8,-2.6,5.8,-5.9v-.6c.2,-2.6,.6,-3.3,1.8,-4.3c2.1,-1.6,3.8,-3.8,5,-6.2c1.2,-2.2,1.8,-4.7,1.8,-7.4Z" class="ge_181"/>
<path d="M194.6,147.4c0,2.8,-2.3,5.1,-5.1,5.1c-2.8,0,-5.1,-2.3,-5.1,-5.1c0,-2.8,2.3,-5.1,5.1,-5.1c2.8,0,5.1,2.3,5.1,5.1Z" class="g8_181"/>
<path d="M194.6,147.4c0,2.8,-2.3,5.1,-5.1,5.1c-2.8,0,-5.1,-2.3,-5.1,-5.1c0,-2.8,2.3,-5.1,5.1,-5.1c2.8,0,5.1,2.3,5.1,5.1Z" class="ge_181"/>
<path d="M182.1,140.2c0,1,.8,1.8,1.8,1.8h11.2c1,0,1.8,-.8,1.8,-1.8v-1.3H182.1Z" class="g8_181"/>
<path d="M182.1,140.2c0,1,.8,1.8,1.8,1.8h11.2c1,0,1.8,-.8,1.8,-1.8v-1.3H182.1v1.3Z" class="ge_181"/>
<path d="M196.9,143.2c0,.8,-.6,1.3,-1.3,1.3H183.4c-.8,0,-1.3,-.5,-1.3,-1.3c0,-.7,.5,-1.3,1.3,-1.3h12.2c.7,0,1.3,.6,1.3,1.3Z" class="g8_181"/>
<path d="M196.9,143.2c0,.8,-.6,1.3,-1.3,1.3H183.4c-.8,0,-1.3,-.5,-1.3,-1.3c0,-.7,.5,-1.3,1.3,-1.3h12.2c.7,0,1.3,.6,1.3,1.3Z" class="ge_181"/>
<path d="M196.9,145.8c0,.7,-.6,1.3,-1.3,1.3H183.4c-.8,0,-1.3,-.6,-1.3,-1.3c0,-.7,.5,-1.3,1.3,-1.3h12.2c.7,0,1.3,.6,1.3,1.3Z" class="g8_181"/>
<path d="M196.9,145.8c0,.7,-.6,1.3,-1.3,1.3H183.4c-.8,0,-1.3,-.6,-1.3,-1.3c0,-.7,.5,-1.3,1.3,-1.3h12.2c.7,0,1.3,.6,1.3,1.3Z" class="ge_181"/>
<path d="M215.5,128.7l8.3,10.4c.6,.7,1.8,.6,2.7,-.2c.9,-.7,1.2,-1.9,.7,-2.6l-8.9,-10.2Z" class="gf_181"/>
<path d="M215.5,128.7l8.3,10.4c.6,.7,1.8,.6,2.7,-.2c.9,-.7,1.2,-1.9,.7,-2.6l-8.9,-10.2l-2.8,2.6Z" class="ge_181"/>
<path d="M217.5,125.1c.5,.6,.3,1.8,-.7,2.6c-.9,.7,-2.1,.8,-2.6,.2c-.6,-.7,-.3,-1.9,.6,-2.6c.9,-.8,2.1,-.9,2.7,-.2Z" class="gg_181"/>
<path d="M217.5,125.1c.5,.6,.3,1.8,-.7,2.6c-.9,.7,-2.1,.8,-2.6,.2c-.6,-.7,-.3,-1.9,.6,-2.6c.9,-.8,2.1,-.9,2.7,-.2Z" class="ge_181"/>
<path d="M212.7,124.7l1.7,2c.3,.3,1,.3,1.5,-.1c.5,-.5,.7,-1.1,.4,-1.5l-1.7,-2Z" class="g8_181"/>
<path d="M212.7,124.7l1.7,2c.3,.3,1,.3,1.5,-.1c.5,-.5,.7,-1.1,.4,-1.5l-1.7,-2l-1.9,1.6Z" class="gh_181"/>
<path d="M214.8,122.9c.4,.5,.2,1.3,-.5,1.8c-.6,.5,-1.4,.6,-1.8,.1c-.4,-.4,-.2,-1.2,.5,-1.7c.6,-.6,1.4,-.6,1.8,-.2Z" class="g8_181"/>
<path d="M214.8,122.9c.4,.5,.2,1.3,-.5,1.8c-.6,.5,-1.4,.6,-1.8,.1c-.4,-.4,-.2,-1.2,.5,-1.7c.6,-.6,1.4,-.6,1.8,-.2Z" class="gh_181"/>
<path d="M216.4,105.4c4.8,5.7,4.1,14.2,-1.7,19c-5.7,4.8,-14.2,4,-19,-1.7c-4.8,-5.7,-4,-14.2,1.7,-19c5.7,-4.8,14.2,-4.1,19,1.7Z" class="g8_181"/>
<path d="M216.4,105.4c4.8,5.7,4.1,14.2,-1.7,19c-5.7,4.8,-14.2,4,-19,-1.7c-4.8,-5.7,-4,-14.2,1.7,-19c5.7,-4.8,14.2,-4.1,19,1.7Z" class="ge_181"/>
<path d="M214,107.4c3.5,4.2,3,10.5,-1.3,14.1c-4.2,3.5,-10.5,2.9,-14,-1.3c-3.5,-4.2,-3,-10.5,1.2,-14c4.2,-3.6,10.5,-3,14.1,1.2Z" class="gi_181"/>
<path d="M214,107.4c3.5,4.2,3,10.5,-1.3,14.1c-4.2,3.5,-10.5,2.9,-14,-1.3c-3.5,-4.2,-3,-10.5,1.2,-14c4.2,-3.6,10.5,-3,14.1,1.2Z" class="ge_181"/>
<path d="M213,110.6l-3.1,3m3.1,-.4l-3.1,3" class="gj_181"/>
<path d="M172.1,99l3.1,3.3m1.1,-5.9l1.2,3.9m-8.1,3l3.7,1.2" class="gk_181"/>
<path d="M185.8,106.1c1.2,1.2,.2,4.3,-2.2,6.7c-2.5,2.5,-5.5,3.5,-6.8,2.3c-1.2,-1.3,-.3,-4.3,2.2,-6.8c2.5,-2.5,5.5,-3.5,6.8,-2.2Z" class="g8_181"/>
<path d="M203.7,107.6c.6,.6,.1,1.9,-.9,3c-1.1,1,-2.4,1.5,-3,.9c-.5,-.5,-.1,-1.8,1,-2.9c1.1,-1.1,2.4,-1.5,2.9,-1Z" class="g8_181"/>
<path d="M647.4,1214.8c0,0,-4.3,0,-4.3,4.4V1230c0,0,0,4.3,4.3,4.3h30.3c0,0,4.4,0,4.4,-4.3v-10.8c0,0,0,-4.4,-4.4,-4.4Z" class="gd_181"/>
<path d="M634.2,1206v37.5m1.4,1H866.8m.9,-1.3v-37.6m-1.3,-1H635.2" class="gl_181"/>
<path d="M634.2,1243.9v.6h.6m232.3,0h.6v-.6m0,-38.7v-.6h-.6m-232.3,0h-.6v.6" class="gm_181"/>
<path d="M32.1,45.1H9.2m958.3,0h22.9M32.1,1331.3H9.2m958.3,0h22.9M45.1,32.1V9.2m0,1335.1v22.9M954.5,32.1V9.2m0,1335.1v22.9" class="gn_181"/>
<path d="M32.1,45.1H9.2m958.3,0h22.9M32.1,1331.3H9.2m958.3,0h22.9M45.1,32.1V9.2m0,1335.1v22.9M954.5,32.1V9.2m0,1335.1v22.9" class="go_181"/>
<path d="M27.5,32.1H0m972.1,0h27.5M27.5,1344.3H0m972.1,0h27.5M32.1,27.5V0m0,1348.9v27.5M967.5,27.5V0m0,1348.9v27.5" class="gn_181"/>
<path d="M27.5,32.1H0m972.1,0h27.5M27.5,1344.3H0m972.1,0h27.5M32.1,27.5V0m0,1348.9v27.5M967.5,27.5V0m0,1348.9v27.5" class="go_181"/>
</svg>