<?xml version="1.0" encoding="UTF-8" standalone="no"?>
<!DOCTYPE svg PUBLIC "-//W3C//DTD SVG 1.1//EN"
"http://www.w3.org/Graphics/SVG/1.1/DTD/svg11.dtd">
<svg viewBox="0 0 999 1376" version="1.1" xmlns="http://www.w3.org/2000/svg" xmlns:xlink="http://www.w3.org/1999/xlink">
<defs>
<clipPath id="c0_73"><path d="M153.3,911.2V131.7H867.9V911.2Z"/></clipPath>
<clipPath id="c1_73"><path d="M574.5,898.2V742.3H843V898.2Z"/></clipPath>
<clipPath id="c2_73"><path d="M574.5,392.6V240H843V392.6Z"/></clipPath>
<clipPath id="c3_73"><path d="M574.5,560.8V404.9H843V560.8Z"/></clipPath>
<clipPath id="c4_73"><path d="M574.5,730V573.1H843V730Z"/></clipPath>
<style type="text/css"><![CDATA[
.g0_73{
fill: #FFF;
}
.g1_73{
fill: none;
stroke: #231F20;
stroke-width: 0.756;
stroke-miterlimit: 3;
}
.g2_73{
fill: #6381B7;
}
.g3_73{
fill: none;
stroke: #6381B7;
stroke-width: 0.381;
stroke-dasharray: 2,1;
}
.g4_73{
fill: none;
stroke: #6381B7;
stroke-width: 0.381;
}
.g5_73{
fill: #25408F;
}
.g6_73{
fill: #61C7CB;
}
.g7_73{
fill: #F5CA58;
}
.g8_73{
fill: #3D3B39;
}
.g9_73{
fill: #FEF9EC;
}
.ga_73{
fill: none;
stroke: #FECD4E;
stroke-width: 1.527;
stroke-linecap: round;
stroke-linejoin: round;
stroke-dasharray: 0,5;
}
.gb_73{
fill: none;
stroke: #FECD4E;
stroke-width: 1.527;
stroke-linecap: round;
stroke-linejoin: round;
}
.gc_73{
fill: #FECD4E;
}
.gd_73{
fill: #FFE3A6;
}
.ge_73{
fill: #F37B69;
}
.gf_73{
fill: #FFDE2C;
}
.gg_73{
fill: none;
stroke: #FFF;
stroke-width: 1.909;
stroke-miterlimit: 10;
}
.gh_73{
fill: none;
stroke: #000;
stroke-width: 0.381;
stroke-miterlimit: 10;
}
]]></style>
</defs>
<path d="M153.3,911.2H867.9V131.7H153.3V911.2Z" class="g0_73"/>
<image clip-path="url(#c0_73)" preserveAspectRatio="none" x="151" y="130" width="719" height="783" xlink:href="img/1.jpg"/>
<path d="M395.2,198.7h-2.3V181.8h2.3v16.9Zm-12.9,7.5c-.9,0,-1.5,-.1,-1.9,-.5c-.4,-.4,-.5,-.9,-.5,-1.6v-6.7h2.2v6.2c0,.3,.1,.5,.2,.7c.1,.1,.3,.1,.7,.1h7.1c1,0,2,0,2.8,-.1c.9,-.2,1.8,-.4,2.7,-.7l.5,1.7c-1.1,.4,-2.1,.6,-3,.7c-.9,.2,-1.9,.2,-3,.2h-7.8Zm5.5,-15.6c-.4,.7,-.8,1.3,-1.4,1.9c-.6,.5,-1.3,1,-2,1.3c-.8,.3,-1.6,.4,-2.5,.4c-1,0,-1.9,-.1,-2.6,-.4c-.8,-.4,-1.5,-.8,-2.1,-1.4c-.5,-.5,-.9,-1.2,-1.2,-1.9c-.3,-.8,-.5,-1.5,-.5,-2.3c0,-.9,.2,-1.7,.5,-2.4c.3,-.8,.8,-1.4,1.3,-1.9c.6,-.6,1.3,-1,2,-1.3c.8,-.4,1.7,-.5,2.6,-.5c.9,0,1.7,.2,2.5,.5c.8,.3,1.5,.8,2,1.3c.6,.6,1,1.2,1.4,2c.3,.7,.4,1.5,.4,2.3c0,.8,-.1,1.6,-.4,2.4Zm-2.9,-5.4c-.8,-.9,-1.8,-1.3,-3,-1.3c-1.3,0,-2.3,.4,-3,1.3c-.8,.8,-1.1,1.8,-1.1,3c0,1.1,.3,2.1,1.1,3c.7,.8,1.7,1.2,3,1.2c1.2,0,2.2,-.4,3,-1.2c.7,-.9,1.1,-1.9,1.1,-3c0,-1.2,-.4,-2.2,-1.1,-3ZM406,182.6c.2,.5,.3,1,.4,1.5c.1,.6,.2,1.2,.2,1.9c0,1,-.1,1.9,-.1,2.7c-.1,.9,-.3,1.6,-.5,2.4c.7,.1,1.3,.3,1.8,.6c.4,.3,.9,.7,1.2,1.1c.4,.6,.9,1.3,1.5,2.2c.6,1,1.3,2,2,3.2l-1.6,1.2c-.7,-1,-1.3,-1.9,-1.9,-2.8c-.6,-1,-1.1,-1.7,-1.6,-2.4c-.2,-.3,-.5,-.5,-.8,-.8c-.3,-.2,-.7,-.4,-1.2,-.6c-.1,.3,-.3,.5,-.4,.8c-.2,.3,-.4,.6,-.5,.8c-.7,1,-1.4,1.9,-2.3,2.8c-.8,.9,-1.8,1.7,-2.8,2.5L398.1,198c.9,-.7,1.8,-1.5,2.6,-2.3c.8,-.8,1.4,-1.6,2,-2.4c.6,-1,1.1,-2.1,1.3,-3.3c.2,-1.2,.3,-2.5,.3,-3.9c0,-.5,0,-1.1,-.1,-1.5c-.2,-.5,-.3,-.9,-.4,-1.3l2.2,-.7Zm16.2,10.3h-4.4v11.7h-2.2V182.1h2.2V191h4.4v1.9Zm23,11.2v-8.7h-4.6c-.5,.8,-1.1,1.4,-1.9,1.9c-.7,.4,-1.6,.6,-2.6,.6c-1.8,0,-3.2,-.7,-4.2,-2c-.9,-1.4,-1.4,-3.1,-1.4,-5.3c0,-2.1,.5,-3.9,1.5,-5.2c.9,-1.4,2.3,-2.1,4.1,-2.1c1,0,1.9,.2,2.7,.7c.8,.5,1.4,1.2,1.9,2h4.5v-3.9h2.2v22h-2.2Zm-5.7,-15.5c-.2,-.6,-.4,-1.2,-.7,-1.7c-.2,-.5,-.6,-.9,-1.1,-1.2c-.4,-.4,-.9,-.5,-1.6,-.5c-.6,0,-1.2,.1,-1.6,.5c-.5,.3,-.9,.7,-1.1,1.2c-.3,.5,-.5,1.1,-.6,1.7c-.1,.7,-.2,1.3,-.2,2c0,.7,.1,1.4,.2,2c.1,.7,.3,1.3,.6,1.8c.2,.5,.6,.9,1.1,1.2c.4,.3,1,.4,1.6,.4c.7,0,1.2,-.1,1.6,-.4c.5,-.3,.9,-.7,1.1,-1.2c.3,-.5,.5,-1.1,.7,-1.8c.1,-.6,.2,-1.3,.2,-2c0,-.7,-.1,-1.3,-.2,-2Zm10.8,-6.5h2.2v22.6h-2.2V182.1Zm-8.6,10.1c-.1,.5,-.2,.9,-.3,1.4h3.8v-5.7h-3.8c.1,.4,.2,.8,.3,1.3c0,.5,.1,.9,.1,1.4c0,.6,-.1,1.1,-.1,1.6Zm26.8,-5.8H473v-4.6h2.3v9.3c0,.3,0,.7,-.1,1.1c-.1,.4,-.2,.9,-.4,1.3c-.2,.4,-.4,.8,-.7,1.2c-.3,.3,-.6,.6,-1,.9h.6c.7,0,1.1,.1,1.3,.4c.2,.3,.3,.7,.3,1.2l-.4,3.9c0,.3,-.1,.5,-.3,.7c-.1,.1,-.4,.1,-.7,.1H462.3v2.9H470c.8,0,1.7,-.1,2.6,-.2c1,-.1,1.9,-.3,2.9,-.6l.4,1.7c-.8,.2,-1.7,.5,-2.7,.6c-1,.2,-2,.2,-3,.2h-8.5c-.6,0,-1,-.1,-1.3,-.4c-.2,-.3,-.4,-.7,-.4,-1.2v-4.8h13v-2.8H460v-1.7h11.2c.7,-.6,1.2,-1.3,1.4,-2.2c.3,-.8,.4,-1.6,.4,-2.4v-2.8h-4.5v-1.8Zm-12,-4.2H465c.4,0,.7,.1,1,.3c.2,.1,.4,.3,.5,.5c.1,.2,.1,.4,.1,.7c0,.2,0,.4,0,.6c-.2,.7,-.4,1.4,-.7,2c-.4,.7,-.8,1.3,-1.2,1.9c.5,.1,.9,.3,1.3,.5c.4,.2,.7,.5,1,.7c.4,.5,.9,.9,1.4,1.5c.4,.5,.9,1,1.3,1.4l-1.4,1.5c-.2,-.3,-.5,-.5,-.7,-.8c-.2,-.2,-.4,-.5,-.6,-.7c-.2,-.2,-.5,-.5,-.7,-.7c-.2,-.2,-.4,-.5,-.7,-.7c-.3,-.3,-.6,-.6,-1,-.8c-.3,-.2,-.7,-.4,-1.2,-.5c-.9,.9,-1.9,1.7,-3,2.5c-1.2,.8,-2.5,1.5,-3.9,2.1l-.9,-1.9c2.3,-1,4.2,-2.1,5.5,-3.3c1.4,-1.2,2.4,-2.6,3.1,-4.2c.1,-.3,.1,-.5,0,-.6c-.1,-.1,-.3,-.2,-.6,-.2h-7.1v-1.8Z" class="g1_73"/>
<image clip-path="url(#c1_73)" preserveAspectRatio="none" x="573" y="741" width="272" height="159" xlink:href="img/2.png"/>
<path d="M190.2,803.7c0,0,-4.4,0,-4.4,4.3v39c0,0,0,4.3,4.4,4.3H549.6c0,0,4.3,0,4.3,-4.3V808c0,0,0,-4.3,-4.3,-4.3Z" class="g0_73"/>
<path d="M190.2,300.2c0,0,-4.4,0,-4.4,4.4v38.9c0,0,0,4.4,4.4,4.4H549.6c0,0,4.3,0,4.3,-4.4V304.6c0,0,0,-4.4,-4.3,-4.4Z" class="g0_73"/>
<image clip-path="url(#c2_73)" preserveAspectRatio="none" x="573" y="238" width="272" height="156" xlink:href="img/3.png"/>
<path d="M190.2,444.6c0,0,-4.4,0,-4.4,4.3v39c0,0,0,4.3,4.4,4.3H549.6c0,0,4.3,0,4.3,-4.3v-39c0,0,0,-4.3,-4.3,-4.3Z" class="g0_73"/>
<image clip-path="url(#c3_73)" preserveAspectRatio="none" x="573" y="403" width="272" height="160" xlink:href="img/4.png"/>
<path d="M190.2,613.8c0,0,-4.4,0,-4.4,4.4v38.9c0,0,0,4.4,4.4,4.4H549.6c0,0,4.3,0,4.3,-4.4V618.2c0,0,0,-4.4,-4.3,-4.4Z" class="g0_73"/>
<image clip-path="url(#c4_73)" preserveAspectRatio="none" x="573" y="572" width="272" height="160" xlink:href="img/5.png"/>
<path d="M534.8,1214.8c0,0,-4.3,0,-4.3,4.4V1230c0,0,0,4.3,4.3,4.3h30.3c0,0,4.4,0,4.4,-4.3v-10.8c0,0,0,-4.4,-4.4,-4.4Z" class="g2_73"/>
<path d="M521.6,1206v37.5m1.4,1H866.8m.9,-1.3v-37.6m-1.3,-1H522.6" class="g3_73"/>
<path d="M521.6,1243.9v.6h.6m344.9,0h.6v-.6m0,-38.7v-.6h-.6m-344.9,0h-.6v.6" class="g4_73"/>
<path d="M153.3,126.3v22.2L165,158.7V136.5Z" class="g5_73"/>
<path d="M153.3,109.5v39H851.1c0,0,16.8,0,16.8,-16.8v-5.4c0,0,0,-16.8,-16.8,-16.8Z" class="g2_73"/>
<path d="M187.9,117.2l-3.2,3.2c.6,3.1,2.1,6.1,4.3,8.5l4.2,-4.2c-2.3,-2.3,-4.1,-4.9,-5.3,-7.5Z" class="g6_73"/>
<path d="M216,121c.3,1.3,.5,2.5,.5,3.6c1.1,-2.2,1.6,-4.7,1.6,-7.2c0,-.6,0,-1.1,-.1,-1.7l-2.8,2.9c.3,.8,.6,1.6,.8,2.4Z" class="g6_73"/>
<path d="M186.6,113.7c-.3,-1.2,-.5,-2.4,-.5,-3.6c-1.1,2.3,-1.6,4.7,-1.6,7.3c0,.5,0,1.1,0,1.6l2.9,-2.9c-.3,-.8,-.6,-1.6,-.8,-2.4Z" class="g6_73"/>
<path d="M208.6,109.3l4.2,-4.2c-2.4,-2.3,-5.3,-3.7,-8.5,-4.3l-3.2,3.2c2.6,1.2,5.2,3,7.5,5.3Z" class="g6_73"/>
<path d="M214.7,117.5l3.1,-3.1c-.5,-3.2,-2,-6.1,-4.2,-8.5l-4.2,4.2c2.2,2.3,4.1,4.8,5.3,7.4Z" class="g6_73"/>
<path d="M214.9,121.3c-.2,-.6,-.4,-1.2,-.6,-1.8l-5.1,5l4.4,4.4c.5,-.6,1,-1.2,1.5,-1.9c.4,-1.6,.4,-3.5,-.2,-5.7Z" class="g6_73"/>
<path d="M194,102.2c1.9,0,4,.5,6,1.3l2.9,-2.9c-.5,0,-1.1,-.1,-1.6,-.1c-2.6,0,-5,.6,-7.3,1.7Z" class="g6_73"/>
<path d="M208.5,132.6c-1.8,0,-3.9,-.5,-5.9,-1.4l-2.9,2.9c.5,.1,1,.1,1.6,.1c2.5,0,5,-.6,7.2,-1.6Z" class="g6_73"/>
<path d="M187.7,113.4c.1,.7,.3,1.3,.6,1.9l5,-5.1L189,105.9c-.5,.6,-1.1,1.2,-1.5,1.8c-.5,1.6,-.4,3.6,.2,5.7Z" class="g6_73"/>
<path d="M201.5,130.8c-2.6,-1.3,-5.2,-3.1,-7.5,-5.3l-4.2,4.2c2.4,2.2,5.3,3.7,8.5,4.2Z" class="g6_73"/>
<path d="M194.7,124.7c2.4,2.3,5,4.1,7.6,5.2l5.4,-5.4l-6.4,-6.4Z" class="g6_73"/>
<path d="M189.8,105.1l4.3,4.3l5.1,-5c-1.8,-.7,-3.6,-1.1,-5.2,-1.1c-.9,0,-1.6,.1,-2.4,.3c-.6,.4,-1.2,.9,-1.8,1.5Z" class="g6_73"/>
<path d="M202.1,117.4l6.4,6.4l5.4,-5.4c-1.2,-2.6,-3,-5.2,-5.3,-7.6Z" class="g6_73"/>
<path d="M188.7,116.4c1.2,2.6,3,5.2,5.3,7.5l6.5,-6.5L194.1,111Z" class="g6_73"/>
<path d="M194.9,110.2l6.4,6.4l6.5,-6.5c-2.3,-2.3,-4.9,-4.1,-7.5,-5.3Z" class="g6_73"/>
<path d="M212.8,129.7l-4.3,-4.4l-5.1,5.1c1.8,.7,3.6,1.1,5.2,1.1c.8,0,1.6,-.1,2.3,-.3c.7,-.5,1.3,-1,1.9,-1.5Z" class="g6_73"/>
<path d="M206.4,144.2c.2,0,.4,0,.6,.1V141c0,-.5,.3,-1,.8,-1.1c3.8,-1.1,7.3,-3.1,10.1,-5.9l.3,-.3l-.6,-.6l-.3,.3c-4.3,4.2,-10,6.6,-16,6.6c-6.1,0,-11.7,-2.4,-16,-6.6c-4.3,-4.3,-6.6,-10,-6.6,-16c0,-6.1,2.3,-11.7,6.6,-16l.3,-.3l-.6,-.6l-.3,.3c-4.4,4.4,-6.9,10.3,-6.9,16.6c0,6.2,2.5,12.1,6.9,16.6c4.4,4.4,10.3,6.8,16.6,6.8c1.1,0,2.2,-.1,3.2,-.2c.4,0,.7,0,.9,.3c.3,.2,.4,.5,.4,.8v2.6c.2,-.1,.4,-.1,.6,-.1Z" class="g0_73"/>
<path d="M215.2,152.4c-1.4,-3.6,-4.9,-6,-8.8,-6c-3.9,0,-7.4,2.4,-8.8,6Z" class="g7_73"/>
<path d="M221.5,152.4h-4c-1.2,-3.9,-4.4,-6.9,-8.3,-7.8v-2.8c3.8,-1.3,7.4,-3.4,10.2,-6.3l1.1,-1.1c.2,-.2,.3,-.5,.3,-.7c0,-.3,-.1,-.6,-.3,-.8l-2.1,-2.2c-.5,-.4,-1.2,-.4,-1.6,0l-.3,.3l-1,-1c3.1,-3.5,4.8,-7.9,4.8,-12.6c0,-5.1,-2,-9.9,-5.6,-13.5c-3.6,-3.6,-8.3,-5.6,-13.4,-5.6c-4.7,0,-9.2,1.8,-12.7,4.9l-1,-1l.3,-.3c.3,-.2,.4,-.5,.4,-.8c0,-.3,-.1,-.6,-.4,-.8l-2.1,-2.2c-.4,-.4,-1.2,-.4,-1.6,0l-1.1,1.1c-4.8,4.9,-7.5,11.3,-7.5,18.2c0,6.8,2.7,13.3,7.5,18.1c4.9,4.9,11.3,7.5,18.2,7.5c.8,0,1.5,0,2.3,-.1v1.7c-3.9,.9,-7.1,3.9,-8.3,7.8h-4c-.6,0,-1.1,.5,-1.1,1.1c0,.6,.5,1.1,1.1,1.1h30.2c.6,0,1.1,-.5,1.1,-1.1c0,-.6,-.5,-1.1,-1.1,-1.1m-15.1,-6c3.9,0,7.4,2.4,8.8,6H197.6c1.4,-3.6,4.9,-6,8.8,-6m-1,-5.5c-.2,-.3,-.5,-.3,-.9,-.3c-1,.1,-2.1,.2,-3.2,.2c-6.3,0,-12.2,-2.4,-16.6,-6.8c-4.4,-4.5,-6.9,-10.4,-6.9,-16.6c0,-6.3,2.5,-12.2,6.9,-16.6l.3,-.3l.6,.6l-.3,.3c-4.3,4.3,-6.6,9.9,-6.6,16c0,6,2.3,11.7,6.6,16c4.3,4.2,9.9,6.6,16,6.6c6,0,11.7,-2.4,16,-6.6l.3,-.3l.6,.6l-.3,.3c-2.8,2.8,-6.3,4.8,-10.1,5.9c-.5,.1,-.8,.6,-.8,1.1v3.3c-.2,-.1,-.4,-.1,-.6,-.1c-.2,0,-.4,0,-.6,.1v-2.6c0,-.3,-.1,-.6,-.4,-.8M194,103.3c1.6,0,3.4,.3,5.2,1.1l-5.1,5l-4.3,-4.3c.6,-.6,1.2,-1.1,1.8,-1.5c.8,-.2,1.5,-.3,2.4,-.3m18.8,1.8l-4.2,4.2c-2.3,-2.3,-4.9,-4.1,-7.5,-5.3l3.2,-3.2c3.2,.6,6.1,2,8.5,4.3m5,9.3l-3.1,3.1c-1.2,-2.6,-3.1,-5.1,-5.3,-7.4l4.2,-4.2c2.2,2.4,3.7,5.3,4.2,8.5m.3,3c0,2.5,-.5,5,-1.6,7.2c0,-1.1,-.2,-2.3,-.5,-3.6c-.2,-.8,-.5,-1.6,-.8,-2.4l2.8,-2.9c.1,.6,.1,1.1,.1,1.7m-33.4,3l3.2,-3.2c1.2,2.6,3,5.2,5.3,7.5l-4.2,4.2c-2.2,-2.4,-3.7,-5.4,-4.3,-8.5m-.2,-3c0,-2.6,.5,-5,1.6,-7.3c0,1.2,.2,2.4,.5,3.6c.2,.8,.5,1.6,.8,2.4l-2.9,2.9c0,-.5,0,-1.1,0,-1.6M189,105.9l4.3,4.3l-5,5.1c-.3,-.6,-.5,-1.2,-.6,-1.9c-.6,-2.1,-.7,-4.1,-.2,-5.7c.4,-.6,1,-1.2,1.5,-1.8m19.6,4.9c2.3,2.4,4.1,5,5.3,7.6l-5.4,5.4l-6.4,-6.4Zm-.9,13.7l-5.4,5.4c-2.6,-1.1,-5.2,-2.9,-7.6,-5.2l6.6,-6.6ZM194,123.9c-2.3,-2.3,-4.1,-4.9,-5.3,-7.5l5.4,-5.4l6.4,6.4Zm0,1.6c2.3,2.2,4.9,4,7.5,5.3l-3.2,3.1c-3.2,-.5,-6.1,-2,-8.5,-4.2Zm8.6,5.7c2,.9,4.1,1.4,5.9,1.4c-2.2,1,-4.7,1.6,-7.2,1.6c-.6,0,-1.1,0,-1.6,-.1Zm6,.3c-1.6,0,-3.4,-.4,-5.2,-1.1l5.1,-5.1l4.3,4.4c-.6,.5,-1.2,1,-1.9,1.5c-.7,.2,-1.5,.3,-2.3,.3m5,-2.6l-4.4,-4.4l5.1,-5c.2,.6,.4,1.2,.6,1.8c.6,2.2,.6,4.1,.2,5.7c-.5,.7,-1,1.3,-1.5,1.9m-5.8,-18.8l-6.5,6.5l-6.4,-6.4l5.4,-5.4c2.6,1.2,5.2,3,7.5,5.3M200,103.5c-2,-.8,-4.1,-1.3,-6,-1.3c2.3,-1.1,4.7,-1.7,7.3,-1.7c.5,0,1.1,.1,1.6,.1Zm-17.7,13.9c0,5.1,1.9,9.8,5.5,13.4c3.6,3.6,8.4,5.6,13.5,5.6c4.7,0,9.2,-1.7,12.6,-4.8l1,1c-3.7,3.3,-8.5,5.2,-13.6,5.2c-5.5,0,-10.6,-2.2,-14.4,-6c-3.9,-3.9,-6,-9,-6,-14.4c0,-5.1,1.8,-9.9,5.2,-13.7l1,1c-3.1,3.5,-4.8,8,-4.8,12.7Z" class="g8_73"/>
<path d="M154.1,1197.1h713V969.2h-713v227.9Z" class="g9_73"/>
<path d="M154.1,973.7v221.2m4.6,2.2H864.9m2.2,-4.5V971.4m-4.5,-2.2H156.4" class="ga_73"/>
<path d="M154.1,1197.1v0m713.1,0v0m0,-227.9v0m-713.1,0v0" class="gb_73"/>
<path d="M153.3,972.4V943.8c0,0,0,-8.7,8.7,-8.7H859.3c0,0,8.6,0,8.6,8.7v29.1Z" class="gc_73"/>
<path d="M302.6,1027.9c0,0,-2.1,0,-2.1,2.2v17.3c0,0,0,2.2,2.1,2.2h18.2c0,0,2.2,0,2.2,-2.2v-17.3c0,0,0,-2.2,-2.2,-2.2Z" class="gd_73"/>
<path d="M329.9,1027.9c0,0,-2.2,0,-2.2,2.2v17.3c0,0,0,2.2,2.2,2.2h18.2c0,0,2.1,0,2.1,-2.2v-17.3c0,0,0,-2.2,-2.1,-2.2Z" class="gd_73"/>
<path d="M357.1,1027.9c0,0,-2.2,0,-2.2,2.2v17.3c0,0,0,2.2,2.2,2.2h18.2c0,0,2.2,0,2.2,-2.2v-17.3c0,0,0,-2.2,-2.2,-2.2Z" class="gd_73"/>
<path d="M384.4,1027.9c0,0,-2.2,0,-2.2,2.2v17.3c0,0,0,2.2,2.2,2.2h18.1c0,0,2.2,0,2.2,-2.2v-17.3c0,0,0,-2.2,-2.2,-2.2Z" class="gd_73"/>
<path d="M411.6,1027.9c0,0,-2.2,0,-2.2,2.2v17.3c0,0,0,2.2,2.2,2.2h18.2c0,0,2.2,0,2.2,-2.2v-17.3c0,0,0,-2.2,-2.2,-2.2Z" class="gd_73"/>
<path d="M359.9,1054.6c0,0,-2.2,0,-2.2,2.1v13c0,0,0,2.2,2.2,2.2h13c0,0,2.1,0,2.1,-2.2v-13c0,0,0,-2.1,-2.1,-2.1Z" class="gd_73"/>
<path d="M381.9,1054.6c0,0,-2.2,0,-2.2,2.1v13c0,0,0,2.2,2.2,2.2h13c0,0,2.2,0,2.2,-2.2v-13c0,0,0,-2.1,-2.2,-2.1Z" class="gd_73"/>
<path d="M404,1054.6c0,0,-2.2,0,-2.2,2.1v13c0,0,0,2.2,2.2,2.2h13c0,0,2.1,0,2.1,-2.2v-13c0,0,0,-2.1,-2.1,-2.1Z" class="gd_73"/>
<path d="M426,1054.6c0,0,-2.2,0,-2.2,2.1v13c0,0,0,2.2,2.2,2.2h13c0,0,2.2,0,2.2,-2.2v-13c0,0,0,-2.1,-2.2,-2.1Z" class="gd_73"/>
<path d="M448.1,1054.6c0,0,-2.2,0,-2.2,2.1v13c0,0,0,2.2,2.2,2.2h13c0,0,2.1,0,2.1,-2.2v-13c0,0,0,-2.1,-2.1,-2.1Z" class="gd_73"/>
<path d="M364.2,1082.4c0,0,-2.2,0,-2.2,2.2v17.3c0,0,0,2.2,2.2,2.2h18.2c0,0,2.2,0,2.2,-2.2v-17.3c0,0,0,-2.2,-2.2,-2.2Z" class="gd_73"/>
<path d="M391.4,1082.4c0,0,-2.1,0,-2.1,2.2v17.3c0,0,0,2.2,2.1,2.2h18.2c0,0,2.2,0,2.2,-2.2v-17.3c0,0,0,-2.2,-2.2,-2.2Z" class="gd_73"/>
<path d="M418.7,1082.4c0,0,-2.2,0,-2.2,2.2v17.3c0,0,0,2.2,2.2,2.2h18.2c0,0,2.2,0,2.2,-2.2v-17.3c0,0,0,-2.2,-2.2,-2.2Z" class="gd_73"/>
<path d="M450.7,1082.4c0,0,-2.2,0,-2.2,2.2v17.3c0,0,0,2.2,2.2,2.2h18.2c0,0,2.1,0,2.1,-2.2v-17.3c0,0,0,-2.2,-2.1,-2.2Z" class="gd_73"/>
<path d="M477.9,1082.4c0,0,-2.1,0,-2.1,2.2v17.3c0,0,0,2.2,2.1,2.2h18.2c0,0,2.2,0,2.2,-2.2v-17.3c0,0,0,-2.2,-2.2,-2.2Z" class="gd_73"/>
<path d="M505.2,1082.4c0,0,-2.2,0,-2.2,2.2v17.3c0,0,0,2.2,2.2,2.2h18.2c0,0,2.1,0,2.1,-2.2v-17.3c0,0,0,-2.2,-2.1,-2.2Z" class="gd_73"/>
<path d="M532.4,1082.4c0,0,-2.2,0,-2.2,2.2v17.3c0,0,0,2.2,2.2,2.2h18.2c0,0,2.2,0,2.2,-2.2v-17.3c0,0,0,-2.2,-2.2,-2.2Z" class="gd_73"/>
<path d="M559.7,1082.4c0,0,-2.2,0,-2.2,2.2v17.3c0,0,0,2.2,2.2,2.2h18.1c0,0,2.2,0,2.2,-2.2v-17.3c0,0,0,-2.2,-2.2,-2.2Z" class="gd_73"/>
<path d="M469.7,1109.1c0,0,-2.1,0,-2.1,2.1v13c0,0,0,2.2,2.1,2.2h13c0,0,2.2,0,2.2,-2.2v-13c0,0,0,-2.1,-2.2,-2.1Z" class="gd_73"/>
<path d="M491.8,1109.1c0,0,-2.2,0,-2.2,2.1v13c0,0,0,2.2,2.2,2.2h13c0,0,2.2,0,2.2,-2.2v-13c0,0,0,-2.1,-2.2,-2.1Z" class="gd_73"/>
<path d="M513.8,1109.1c0,0,-2.1,0,-2.1,2.1v13c0,0,0,2.2,2.1,2.2h13c0,0,2.2,0,2.2,-2.2v-13c0,0,0,-2.1,-2.2,-2.1Z" class="gd_73"/>
<path d="M540.6,1109.1c0,0,-2.1,0,-2.1,2.1v13c0,0,0,2.2,2.1,2.2h13c0,0,2.2,0,2.2,-2.2v-13c0,0,0,-2.1,-2.2,-2.1Z" class="gd_73"/>
<path d="M562.7,1109.1c0,0,-2.2,0,-2.2,2.1v13c0,0,0,2.2,2.2,2.2h13c0,0,2.1,0,2.1,-2.2v-13c0,0,0,-2.1,-2.1,-2.1Z" class="gd_73"/>
<path d="M584.7,1109.1c0,0,-2.1,0,-2.1,2.1v13c0,0,0,2.2,2.1,2.2h13c0,0,2.2,0,2.2,-2.2v-13c0,0,0,-2.1,-2.2,-2.1Z" class="gd_73"/>
<path d="M606.8,1109.1c0,0,-2.2,0,-2.2,2.1v13c0,0,0,2.2,2.2,2.2h13c0,0,2.1,0,2.1,-2.2v-13c0,0,0,-2.1,-2.1,-2.1Z" class="gd_73"/>
<path d="M628.8,1109.1c0,0,-2.1,0,-2.1,2.1v13c0,0,0,2.2,2.1,2.2h13c0,0,2.2,0,2.2,-2.2v-13c0,0,0,-2.1,-2.2,-2.1Z" class="gd_73"/>
<path d="M302.6,1136.9c0,0,-2.1,0,-2.1,2.2v17.3c0,0,0,2.2,2.1,2.2h18.2c0,0,2.2,0,2.2,-2.2v-17.3c0,0,0,-2.2,-2.2,-2.2Z" class="gd_73"/>
<path d="M329.9,1136.9c0,0,-2.2,0,-2.2,2.2v17.3c0,0,0,2.2,2.2,2.2h18.2c0,0,2.1,0,2.1,-2.2v-17.3c0,0,0,-2.2,-2.1,-2.2Z" class="gd_73"/>
<path d="M324.3,1163.6c0,0,-2.2,0,-2.2,2.1v13c0,0,0,2.2,2.2,2.2h13c0,0,2.2,0,2.2,-2.2v-13c0,0,0,-2.1,-2.2,-2.1Z" class="gd_73"/>
<path d="M346.3,1163.6c0,0,-2.1,0,-2.1,2.1v13c0,0,0,2.2,2.1,2.2h13c0,0,2.2,0,2.2,-2.2v-13c0,0,0,-2.1,-2.2,-2.1Z" class="gd_73"/>
<path d="M199.6,952.9c-.1,.1,-.2,.1,-.3,.1c-.2,0,-.3,0,-.4,-.1l-12.4,-5.3v12.6c.9,.2,1.8,.4,2.7,.6c3.3,.7,6.6,1.5,10.1,1.5c3.4,0,6.8,-.8,10,-1.5c.9,-.2,1.8,-.4,2.7,-.6V947.6Z" class="ge_73"/>
<path d="M178.3,942.1l21,9l20.9,-9l-20.9,-9Z" class="gf_73"/>
<path d="M223,941.2l-23.4,-10c-.2,-.1,-.5,-.1,-.7,0l-23.3,10c-.4,.2,-.6,.5,-.6,.9c0,.4,.2,.7,.6,.8l9,3.9V961c0,.5,.4,.8,.8,.9c1.1,.2,2.2,.5,3.4,.7c3.3,.8,6.8,1.6,10.5,1.6c3.6,0,7.1,-.8,10.5,-1.6c1.1,-.2,2.2,-.5,3.3,-.7c.5,-.1,.8,-.4,.8,-.9V946.8l3.2,-1.4v17c-1.6,.4,-2.8,1.9,-2.8,3.7v5.1c0,2.1,1.7,3.8,3.8,3.8c2,0,3.7,-1.7,3.7,-3.8v-5.1c0,-1.8,-1.2,-3.3,-2.8,-3.7V944.6l4,-1.7c.3,-.1,.5,-.4,.5,-.8c0,-.4,-.2,-.7,-.5,-.9m-3,24.9v3.3q-.1,0,-.2,0h-3.6v-3.3c0,-1.1,.8,-1.9,1.9,-1.9c1,0,1.9,.8,1.9,1.9m-1.9,7c-1.1,0,-1.9,-.8,-1.9,-1.9v-.9h3.6q.1,0,.2,0v.9c0,1.1,-.9,1.9,-1.9,1.9m-18.8,-22l-21,-9l21,-9l20.9,9Zm10,9.7c-3.2,.7,-6.6,1.5,-10,1.5c-3.5,0,-6.8,-.8,-10.1,-1.5c-.9,-.2,-1.8,-.4,-2.7,-.6V947.6l12.4,5.3c.1,.1,.2,.1,.4,.1c.1,0,.2,0,.3,-.1L212,947.6v12.6c-.9,.2,-1.8,.4,-2.7,.6Z" class="g8_73"/>
<path d="M219.8,970.3h-3.6v.9c0,1.1,.8,1.9,1.9,1.9c1,0,1.9,-.8,1.9,-1.9v-.9q-.1,0,-.2,0Z" class="g0_73"/>
<path d="M218.1,964.2c-1.1,0,-1.9,.8,-1.9,1.9v3.3h3.6q.1,0,.2,0v-3.3c0,-1.1,-.9,-1.9,-1.9,-1.9Z" class="g0_73"/>
<path d="M32.1,45.1H9.2m958.3,0h22.9M32.1,1331.3H9.2m958.3,0h22.9M45.1,32.1V9.2m0,1335.1v22.9M954.5,32.1V9.2m0,1335.1v22.9" class="gg_73"/>
<path d="M32.1,45.1H9.2m958.3,0h22.9M32.1,1331.3H9.2m958.3,0h22.9M45.1,32.1V9.2m0,1335.1v22.9M954.5,32.1V9.2m0,1335.1v22.9" class="gh_73"/>
<path d="M27.5,32.1H0m972.1,0h27.5M27.5,1344.3H0m972.1,0h27.5M32.1,27.5V0m0,1348.9v27.5M967.5,27.5V0m0,1348.9v27.5" class="gg_73"/>
<path d="M27.5,32.1H0m972.1,0h27.5M27.5,1344.3H0m972.1,0h27.5M32.1,27.5V0m0,1348.9v27.5M967.5,27.5V0m0,1348.9v27.5" class="gh_73"/>
</svg>