<?xml version="1.0" encoding="UTF-8" standalone="no"?>
<!DOCTYPE svg PUBLIC "-//W3C//DTD SVG 1.1//EN"
"http://www.w3.org/Graphics/SVG/1.1/DTD/svg11.dtd">
<svg viewBox="0 0 999 1376" version="1.1" xmlns="http://www.w3.org/2000/svg" xmlns:xlink="http://www.w3.org/1999/xlink">
<defs>
<clipPath id="c0_46"><path d="M32.1,1344.3V32.1H967.5V1344.3Z"/></clipPath>
<clipPath id="c1_46"><path d="M181.6,291.8l-6.5,-2l-14,-11.3V217.6h62.7v74.2Z"/></clipPath>
<clipPath id="c2_46"><path d="M181.3,686.1L174.9,684L160.8,672.8V611.9h62.7v74.2Z"/></clipPath>
<clipPath id="c3_46"><path d="M181.3,768.7l-6.4,-2L160.8,755.5V694.6h62.7v74.1Z"/></clipPath>
<clipPath id="c4_46"><path d="M130,1188.9V828.6H851.6v360.3Z"/></clipPath>
<clipPath id="c5_46"><path d="M190.8,817.4V804.8h12.6v12.6Z"/></clipPath>
<clipPath id="c6_46"><path d="M502.2,817.3V804.8h12.6v12.5Z"/></clipPath>
<clipPath id="c7_46"><path d="M502.2,852.3V839.7h12.5v12.6Z"/></clipPath>
<clipPath id="c8_46"><path d="M190.8,852.2V839.7h12.6v12.5Z"/></clipPath>
<style type="text/css"><![CDATA[
.g0_46{
fill: #FFFDEA;
}
.g1_46{
fill: #BCE4EA;
}
.g2_46{
fill: #BCBEC0;
}
.g3_46{
fill: #00AABD;
}
.g4_46{
fill: #FCDCBA;
}
.g5_46{
fill: #DED3E8;
}
.g6_46{
fill: #FFF;
}
.g7_46{
fill: none;
stroke: #6D6F71;
stroke-width: 0.305;
stroke-miterlimit: 10;
}
.g8_46{
fill: #FCE9F1;
}
.g9_46{
fill: none;
stroke: #976EAF;
stroke-width: 3.819;
}
.ga_46{
fill: none;
stroke: #CDBCDB;
stroke-width: 3.819;
stroke-linecap: round;
stroke-linejoin: round;
stroke-dasharray: 0,14;
}
.gb_46{
fill: none;
stroke: #CDBCDB;
stroke-width: 3.819;
stroke-linecap: round;
stroke-linejoin: round;
stroke-dasharray: 0,12;
}
.gc_46{
fill: none;
stroke: #CDBCDB;
stroke-width: 3.819;
stroke-linecap: round;
stroke-linejoin: round;
}
.gd_46{
fill: #B092C4;
}
.ge_46{
fill: #976EAF;
}
.gf_46{
fill: #67C0E1;
}
.gg_46{
fill: #233D4A;
}
.gh_46{
fill: #F5C44D;
}
.gi_46{
fill: none;
stroke: #6D6F71;
stroke-width: 0.305;
}
.gj_46{
fill: none;
stroke: #FFF;
stroke-width: 1.909;
stroke-miterlimit: 10;
}
.gk_46{
fill: none;
stroke: #000;
stroke-width: 0.381;
stroke-miterlimit: 10;
}
]]></style>
</defs>
<g clip-path="url(#c0_46)">
<path d="M32.1,1344.3H1877V32.1H32.1V1344.3Z" class="g0_46"/>
<path d="M32.1,179.3H1877V32.1H32.1V179.3Z" class="g1_46"/>
<path d="M1877,177.2H32.1v-5.4H768.7c43.1,0,53,-37.9,115.3,-37.9h993Z" class="g2_46"/>
<path d="M1877,183.7H32.1v-9.8H768.7c43.1,0,53,-33.6,115.3,-33.6h993Z" class="g3_46"/>
</g>
<path d="M214.2,220.8c0,0,-13,0,-13,13v47.6c0,0,0,13,13,13H833.3c0,0,13,0,13,-13V233.8c0,0,0,-13,-13,-13Z" class="g4_46"/>
<image clip-path="url(#c1_46)" preserveAspectRatio="none" x="161" y="217" width="63" height="76" xlink:href="img/1.png"/>
<path d="M209,287.1c0,0,-26.8,11.3,-51.1,-12.8c0,0,15.2,25.3,49.3,24c0,0,24.8,.3,20.3,-10.1c0,0,1.2,-4.5,-18.5,-1.1Z" class="g4_46"/>
<path d="M170.8,316.6h76v51.9h-76V316.6Zm76,0h74.9v51.9H246.8V316.6Zm74.9,0h74.9v51.9H321.7V316.6Zm74.9,0h75v51.9h-75V316.6Zm75,0h74.9v51.9H471.6V316.6Zm74.9,0h74.9v51.9H546.5V316.6Zm74.9,0h74.9v51.9H621.4V316.6Zm74.9,0h74.9v51.9H696.3V316.6Zm74.9,0h74.9v51.9H771.2V316.6Z" class="g5_46"/>
<path d="M170.8,368.5h76v52h-76v-52Zm76,0h74.9v52H246.8v-52Zm74.9,0h74.9v52H321.7v-52Zm74.9,0h75v52h-75v-52Zm75,0h74.9v52H471.6v-52Zm74.9,0h74.9v52H546.5v-52Zm74.9,0h74.9v52H621.4v-52Zm74.9,0h74.9v52H696.3v-52Zm74.9,0h74.9v52H771.2v-52Zm-600.4,52h76v52h-76v-52Zm76,0h74.9v52H246.8v-52Zm74.9,0h74.9v52H321.7v-52Zm74.9,0h75v52h-75v-52Zm75,0h74.9v52H471.6v-52Zm74.9,0h74.9v52H546.5v-52Zm74.9,0h74.9v52H621.4v-52Zm74.9,0h74.9v52H696.3v-52Zm74.9,0h74.9v52H771.2v-52Zm-600.4,52h76v51.9h-76V472.5Zm76,0h74.9v51.9H246.8V472.5Zm74.9,0h74.9v51.9H321.7V472.5Zm74.9,0h75v51.9h-75V472.5Zm75,0h74.9v51.9H471.6V472.5Zm74.9,0h74.9v51.9H546.5V472.5Zm74.9,0h74.9v51.9H621.4V472.5Zm74.9,0h74.9v51.9H696.3V472.5Zm74.9,0h74.9v51.9H771.2V472.5ZM170.8,524.4h76v52h-76v-52Zm76,0h74.9v52H246.8v-52Zm74.9,0h74.9v52H321.7v-52Zm74.9,0h75v52h-75v-52Zm75,0h74.9v52H471.6v-52Zm74.9,0h74.9v52H546.5v-52Zm74.9,0h74.9v52H621.4v-52Zm74.9,0h74.9v52H696.3v-52Zm74.9,0h74.9v52H771.2v-52Z" class="g6_46"/>
<path d="M170.8,420.3V368.7m76,51.6V368.7m74.9,51.6V368.7m74.9,51.6V368.7m75,51.6V368.7m74.9,51.6V368.7m74.9,51.6V368.7m74.9,51.6V368.7m74.9,51.6V368.7m74.9,51.6V368.7M170.7,420.5h76.1m-76,51.8V420.7m76,-.2h74.9m-74.9,51.8V420.7m74.9,-.2h74.9m-74.9,51.8V420.7m74.9,-.2h75m-75,51.8V420.7m75,-.2h74.9m-74.9,51.8V420.7m74.9,-.2h74.9m-74.9,51.8V420.7m74.9,-.2h74.9m-74.9,51.8V420.7m74.9,-.2h74.9m-74.9,51.8V420.7m74.9,-.2h75.1m-75.1,51.8V420.7m74.9,51.6V420.7M170.7,472.5h76.1m-76,51.8V472.6m76,-.1h74.9m-74.9,51.8V472.6m74.9,-.1h74.9m-74.9,51.8V472.6m74.9,-.1h75m-75,51.8V472.6m75,-.1h74.9m-74.9,51.8V472.6m74.9,-.1h74.9m-74.9,51.8V472.6m74.9,-.1h74.9m-74.9,51.8V472.6m74.9,-.1h74.9m-74.9,51.8V472.6m74.9,-.1h75.1m-75.1,51.8V472.6m74.9,51.7V472.6M170.7,524.4h76.1m-76,51.9V524.6m76,-.2h74.9m-74.9,51.9V524.6m74.9,-.2h74.9m-74.9,51.9V524.6m74.9,-.2h75m-75,51.9V524.6m75,-.2h74.9m-74.9,51.9V524.6m74.9,-.2h74.9m-74.9,51.9V524.6m74.9,-.2h74.9m-74.9,51.9V524.6m74.9,-.2h74.9m-74.9,51.9V524.6m74.9,-.2h75.1m-75.1,51.9V524.6m74.9,51.7V524.6M170.7,576.4h76.1m0,0h74.9m0,0h74.9m0,0h75m0,0h74.9m0,0h74.9m0,0h74.9m0,0h74.9m0,0h75.1M170.8,368.4V316.7m-.1,-.1h76.1m0,0h74.9m0,0h74.9m0,0h75m0,0h74.9m0,0h74.9m0,0h74.9m0,0h74.9m0,0h75.1M170.7,368.5h76.1m0,0h74.9m0,0h74.9m0,0h75m0,0h74.9m0,0h74.9m0,0h74.9m0,0h74.9m0,0h75.1m-599.5,-.1V316.7m74.9,51.7V316.7m74.9,51.7V316.7m75,51.7V316.7m74.9,51.7V316.7m74.9,51.7V316.7m74.9,51.7V316.7m74.9,51.7V316.7m74.9,51.7V316.7" class="g7_46"/>
<path d="M214,615.1c0,0,-13,0,-13,13v47.6c0,0,0,13,13,13H833c0,0,13,0,13,-13V628.1c0,0,0,-13,-13,-13Z" class="g4_46"/>
<image clip-path="url(#c2_46)" preserveAspectRatio="none" x="161" y="611" width="63" height="77" xlink:href="img/2.png"/>
<path d="M208.8,681.3c0,0,-26.9,11.3,-51.1,-12.7c0,0,15.1,25.3,49.3,24c0,0,24.7,.3,20.2,-10.2c0,0,1.2,-4.4,-18.4,-1.1Z" class="g4_46"/>
<path d="M214,723.8c0,0,-13,0,-13,12.9v21.7c0,0,0,13,13,13H833c0,0,13,0,13,-13V736.7c0,0,0,-12.9,-13,-12.9Z" class="g4_46"/>
<image clip-path="url(#c3_46)" preserveAspectRatio="none" x="161" y="694" width="63" height="76" xlink:href="img/3.png"/>
<path d="M208.8,764c0,0,-26.9,11.3,-51.1,-12.7c0,0,15.1,25.3,49.3,23.9c0,0,24.7,.4,20.2,-10.1c0,0,1.2,-4.4,-18.4,-1.1Z" class="g4_46"/>
<image clip-path="url(#c4_46)" preserveAspectRatio="none" x="130" y="829" width="721" height="360" xlink:href="img/4.png"/>
<path d="M150.9,832.3c0,0,-17.3,0,-17.3,17.3v312.3c0,0,0,17.3,17.3,17.3H824.7c0,0,17.4,0,17.4,-17.3V849.6c0,0,0,-17.3,-17.4,-17.3Z" class="g8_46"/>
<path d="M150.9,832.3c0,0,-17.3,0,-17.3,17.3v312.3c0,0,0,17.3,17.3,17.3H824.7c0,0,17.4,0,17.4,-17.3V849.6c0,0,0,-17.3,-17.4,-17.3H150.9Z" class="g9_46"/>
<path d="M138.4,837.1c-1.5,1.4,-2.9,3.3,-3.7,5.7" class="ga_46"/>
<path d="M133.6,861.1v295" class="gb_46"/>
<path d="M138.5,1174.4c1.4,1.6,3.3,2.9,5.7,3.7" class="ga_46"/>
<path d="M162.3,1179.2H819" class="gb_46"/>
<path d="M837.3,1174.4c1.5,-1.5,2.8,-3.3,3.7,-5.8" class="ga_46"/>
<path d="M842.1,1150.3V855.4" class="gb_46"/>
<path d="M837.2,837c-1.4,-1.5,-3.3,-2.8,-5.7,-3.7" class="ga_46"/>
<path d="M813.3,832.3H156.6" class="gb_46"/>
<path d="M133.6,849.6v0m0,312.3v0m17.3,17.3v0m673.8,0v0m17.4,-17.3v0m0,-312.3v0M824.7,832.3v0m-673.8,0v0" class="gc_46"/>
<path d="M201.8,806.3l-9.5,9.4v25.6l9.5,9.4h302l9.4,-9.4V815.7l-9.4,-9.4Z" class="gd_46"/>
<path d="M201.8,841.2H503.7V815.8H201.8v25.4Z" class="g6_46"/>
<g clip-path="url(#c5_46)" style="mix-blend-mode: multiply;">
<path d="M192.3,815.8h9.5v-9.5Z" class="ge_46"/>
</g>
<g clip-path="url(#c6_46)" style="mix-blend-mode: multiply;">
<path d="M503.7,806.3v9.5h9.5Z" class="ge_46"/>
</g>
<g clip-path="url(#c7_46)" style="mix-blend-mode: multiply;">
<path d="M513.2,841.2h-9.5v9.5Z" class="ge_46"/>
</g>
<g clip-path="url(#c8_46)" style="mix-blend-mode: multiply;">
<path d="M201.9,850.7v-9.5h-9.6Z" class="ge_46"/>
</g>
<path d="M176.8,840.2c0,.3,.1,.6,.1,.9c.1,1.8,-1.3,3.4,-3.1,3.4c-1.8,.1,-3.3,-1.4,-3.4,-3.2c0,-.3,0,-.6,.1,-.9Z" class="gf_46"/>
<path d="M173.8,845.3c-2.2,0,-4,-1.7,-4.1,-4c0,-.4,0,-.7,.1,-1c.1,-.4,.4,-.7,.8,-.6c.4,.1,.7,.5,.6,.9c0,.2,-.1,.4,-.1,.7c.1,1.4,1.3,2.5,2.6,2.5c1.4,-.1,2.5,-1.3,2.5,-2.7c0,-.3,-.1,-.5,-.1,-.7c-.2,-.4,.1,-.8,.5,-.9c.4,-.1,.8,.1,.9,.5c.1,.3,.1,.7,.1,1c.1,2.3,-1.6,4.2,-3.8,4.3Z" class="gg_46"/>
<path d="M171.2,815.6c-.1,-.2,-.2,-.5,-.2,-.7v-.1c-.1,-1.2,.8,-2.1,1.9,-2.1c1.1,-.1,2,.8,2,1.9v.1c0,.3,0,.6,-.1,.8Z" class="gf_46"/>
<path d="M171.2,816.4c-.3,0,-.6,-.2,-.7,-.5c-.2,-.3,-.2,-.7,-.3,-1v-.1c0,-1.5,1.2,-2.8,2.7,-2.9c1.4,0,2.7,1.2,2.7,2.7l.1,.1c0,.4,-.1,.7,-.2,1.1c-.2,.4,-.6,.5,-1,.4c-.3,-.1,-.5,-.6,-.4,-.9c.1,-.2,.1,-.4,.1,-.6c0,-.8,-.6,-1.3,-1.3,-1.3c-.7,0,-1.2,.6,-1.2,1.3v.1c0,.2,.1,.4,.1,.5c.2,.4,0,.9,-.3,1c-.1,.1,-.2,.1,-.3,.1Z" class="gg_46"/>
<path d="M185.6,835l-.7,-7c-.3,-7,-5.6,-12.5,-12,-12.3c-6.3,.3,-11.2,6.1,-11,13.1l-.2,6.8Z" class="gh_46"/>
<path d="M185.7,835.8c-.4,0,-.7,-.3,-.8,-.7l-.8,-7.1c-.2,-6.6,-5.2,-11.7,-11.1,-11.5c-6,.2,-10.6,5.7,-10.4,12.2l-.2,6.9c0,.4,-.3,.7,-.7,.7c-.4,0,-.8,-.3,-.7,-.7l.2,-6.9c-.3,-7.3,5,-13.5,11.7,-13.7c6.8,-.2,12.4,5.6,12.7,12.9l.8,7c0,.4,-.3,.8,-.7,.9Z" class="gg_46"/>
<path d="M187.9,826.5c-.1,0,-.2,0,-.3,-.1c-.4,-.1,-.6,-.5,-.4,-.9c.7,-2.4,-.8,-3.7,-.8,-3.7c-.4,-.2,-.4,-.7,-.1,-1c.2,-.3,.7,-.4,1,-.1c.1,.1,2.4,2,1.2,5.3c-.1,.3,-.3,.5,-.6,.5Z" class="gg_46"/>
<path d="M190.4,827.4c-.1,0,-.1,-.1,-.2,-.1c-.4,-.1,-.6,-.5,-.5,-.9c1.4,-4.3,-1.4,-6.7,-1.5,-6.8c-.3,-.3,-.4,-.7,-.1,-1c.2,-.3,.7,-.4,1,-.1c.2,.1,3.8,3.1,2,8.4c-.1,.3,-.4,.4,-.7,.5Z" class="gg_46"/>
<path d="M187.1,837.4c0,1.2,-.8,2.1,-2,2.2l-23,.8c-1.1,0,-2,-.9,-2.1,-2.1v-.4c0,-1.1,.8,-2.1,2,-2.2l22.9,-.8c1.2,0,2.1,.9,2.2,2.1Z" class="gh_46"/>
<path d="M185.1,840.3l-22.9,.8c-1.6,.1,-2.9,-1.2,-2.9,-2.8V838c-.1,-1.6,1.1,-2.9,2.7,-3l22.9,-.8c1.6,-.1,2.9,1.2,2.9,2.8v.3c.1,1.6,-1.1,3,-2.7,3M162,836.5c-.7,0,-1.3,.6,-1.3,1.4v.4c.1,.8,.7,1.4,1.4,1.4l23,-.8c.7,-.1,1.3,-.7,1.3,-1.5V837c-.1,-.8,-.7,-1.4,-1.4,-1.3Z" class="gg_46"/>
<path d="M176.2,819.2c-.4,0,-.7,.2,-.9,.6c-.1,.4,.2,.9,.6,1.1c.1,0,3.9,1.3,4.1,6.3c0,.5,.4,.9,.9,.9c.5,0,.9,-.4,.9,-.9c-.2,-6.3,-5.1,-7.9,-5.4,-8c0,0,-.2,0,-.2,0Z" class="g4_46"/>
<path d="M171.1,316.8l75.4,51.7" class="gi_46"/>
<path d="M32.1,45.1H9.2m958.3,0h22.9M32.1,1331.3H9.2m958.3,0h22.9M45.1,32.1V9.2m0,1335.1v22.9M954.5,32.1V9.2m0,1335.1v22.9" class="gj_46"/>
<path d="M32.1,45.1H9.2m958.3,0h22.9M32.1,1331.3H9.2m958.3,0h22.9M45.1,32.1V9.2m0,1335.1v22.9M954.5,32.1V9.2m0,1335.1v22.9" class="gk_46"/>
<path d="M27.5,32.1H0m972.1,0h27.5M27.5,1344.3H0m972.1,0h27.5M32.1,27.5V0m0,1348.9v27.5M967.5,27.5V0m0,1348.9v27.5" class="gj_46"/>
<path d="M27.5,32.1H0m972.1,0h27.5M27.5,1344.3H0m972.1,0h27.5M32.1,27.5V0m0,1348.9v27.5M967.5,27.5V0m0,1348.9v27.5" class="gk_46"/>
</svg>