<?xml version="1.0" encoding="UTF-8" standalone="no"?>
<!DOCTYPE svg PUBLIC "-//W3C//DTD SVG 1.1//EN"
"http://www.w3.org/Graphics/SVG/1.1/DTD/svg11.dtd">
<svg viewBox="0 0 999 1376" version="1.1" xmlns="http://www.w3.org/2000/svg" xmlns:xlink="http://www.w3.org/1999/xlink">
<defs>
<clipPath id="c0_90"><path d="M32.1,1344.3V32.1H967.5V1344.3Z"/></clipPath>
<clipPath id="c1_90"><path d="M642.1,897.1V606.7H881.4V897.1Z"/></clipPath>
<clipPath id="c2_90"><path d="M638.1,901.2V602H885.6V901.2Z"/></clipPath>
<clipPath id="c3_90"><path d="M176.6,554.4l-6.5,-2.2L153.7,538.3V481.2h72v73.2Z"/></clipPath>
<clipPath id="c4_90"><path d="M176.6,1072.6l-6.5,-2.1l-16.4,-13.9V999.5h72v73.1Z"/></clipPath>
<clipPath id="c5_90"><path d="M125.5,386.7V205.8H858.6V386.7Z"/></clipPath>
<clipPath id="c6_90"><path d="M764.8,434.8V422.4h14.5v12.4Z"/></clipPath>
<clipPath id="c7_90"><path d="M68.5,848.3V599.7H306.7V848.3Z"/></clipPath>
<clipPath id="c8_90"><path d="M65.2,852.4V595.6H311V852.4Z"/></clipPath>
<clipPath id="c9_90"><path d="M167,617.9c-.3,0,3.6,-8.2,3.6,-8.2l.7,.5c0,0,-4,7.7,-4.3,7.7Z"/></clipPath>
<clipPath id="ca_90"><path d="M174.5,610.2c0,0,-6.9,-1.1,-7.6,-5.2c-.6,-3.6,1.5,-3.8,2.1,-3.8q.1,0,.1,0l8.3,-12.8l-1.4,-3c0,0,-.6,-1.2,.1,-2.1c.1,-.1,.2,-.1,.3,-.1c2.1,0,13,5.5,13,5.5v.2c-.3,.5,-.7,1.1,-1.4,1.6c-.6,.5,-5,1.2,-5,1.2l-8.5,18.5Z"/></clipPath>
<clipPath id="cb_90"><path d="M174.1,609.9c.2,-.5,.2,-1.8,0,-2.3v-1.4c-1.5,-.5,-2.9,-1.2,-3.7,-2.5c-1,.6,-2.1,1.2,-3.1,1.9c1.6,2.1,3.8,3.5,6.8,4.3Zm0,-3.9c2.2,-4.6,4,-9.5,6.2,-14.1c-.9,-.4,-1.9,-1.3,-2.7,-1.4c-2.3,4.3,-4.6,8.6,-7,12.8c.7,1.4,2.1,2,3.5,2.7Zm-7.3,12v0c1,-2.9,2.4,-5.4,3.5,-8.3c-2,-1.5,-3.9,-3.1,-4.4,-6.1v-1.5c0,-2.7,1.9,-3.4,4.6,-3.4q.1,0,.2,0c1.9,-3.4,4.2,-6.4,6.2,-9.7c-.6,-.9,-1.2,-2.4,-.9,-3.6c.5,1.2,1.6,1.8,2.4,2.8c-.1,.6,-.3,1.2,-.4,1.8c.6,.7,1.3,1.2,2.4,1.4c.4,-.4,.5,-1.3,1.1,-1.5c1,.3,1.9,.7,3.1,.7c.2,.1,.5,.2,.9,.2c.3,0,.7,-.1,.8,-.2c.1,.1,.2,.1,.3,.1c.2,0,.4,-.1,.6,-.2c.2,0,.4,-.1,.5,-.1c.1,0,.2,0,.3,.1c-1.3,.7,-2.2,1.8,-4.1,1.8c-.1,0,-.3,0,-.4,0c-.8,3.7,-1.8,7.3,-2.6,11.2c.5,1,1.5,1.6,1.2,3.1c-.4,2.7,-3.8,4.4,-7.2,4.4c-1.2,0,-2.5,-.3,-3.6,-.8c-1,2.1,-2,4.2,-3.2,6.1c-.1,-.4,.2,-.4,.2,-.8c1,-1.8,2,-3.6,2.6,-5.6c-1,1.7,-1.8,3.7,-2.7,5.5c-.2,.4,-.4,.8,-.6,1.2c-.3,.5,-.3,1.2,-.8,1.4Z"/></clipPath>
<clipPath id="cc_90"><path d="M184.5,590.3c-4.8,0,-13.1,-7.4,-5.5,-8.8h1.3c.1,0,.4,0,.6,0c.4,0,.7,0,1.1,.1c3.1,.6,8.2,3.8,7.6,7c-.3,1.2,-1.6,1.6,-3.2,1.7h-1.9Z"/></clipPath>
<clipPath id="cd_90"><path d="M753.6,628.3c-.3,-.1,3.5,-8.2,3.5,-8.2l.8,.5c0,0,-4,7.7,-4.3,7.7Z"/></clipPath>
<clipPath id="ce_90"><path d="M761.1,620.6c0,0,-6.9,-1.1,-7.6,-5.2c-.7,-3.7,1.5,-3.9,2.1,-3.9c0,0,.1,0,.1,0L764,598.8l-1.5,-3.1c0,0,-.6,-1.1,.2,-2.1c0,0,.1,-.1,.3,-.1c2.1,0,12.9,5.6,12.9,5.6l.1,.1c-.4,.5,-.7,1.2,-1.4,1.7c-.7,.5,-5.1,1.1,-5.1,1.1l-8.4,18.6Z"/></clipPath>
<clipPath id="cf_90"><path d="M760.7,620.2c.2,-.4,.2,-1.8,0,-2.2v-1.4c-1.6,-.5,-2.9,-1.2,-3.7,-2.5c-1.1,.6,-2.1,1.2,-3.1,1.9c1.5,2.1,3.8,3.5,6.8,4.2Zm0,-3.9c2.2,-4.5,3.9,-9.5,6.1,-14c-.9,-.4,-1.8,-1.4,-2.6,-1.4c-2.3,4.3,-4.6,8.6,-7.1,12.8c.8,1.3,2.1,2,3.6,2.6Zm-7.3,12.1v0c1,-2.9,2.4,-5.5,3.5,-8.3c-2,-1.5,-3.9,-3.1,-4.4,-6.2v-1.5c-.1,-2.7,1.9,-3.4,4.5,-3.4c.1,0,.2,0,.3,0c1.9,-3.3,4.2,-6.3,6.1,-9.6c-.5,-.9,-1.1,-2.4,-.9,-3.7c.6,1.3,1.7,1.9,2.4,2.9c-.1,.6,-.3,1.1,-.3,1.8c.5,.6,1.3,1.2,2.3,1.4c.5,-.5,.6,-1.3,1.2,-1.6c.9,.4,1.8,.8,3.1,.8c.1,.1,.5,.2,.8,.2c.4,0,.7,-.1,.8,-.2c.2,0,.3,0,.4,0c.2,0,.4,0,.6,-.1c.2,-.1,.3,-.1,.5,-.1c.1,0,.2,0,.3,.1c-1.3,.6,-2.2,1.7,-4.2,1.7c-.1,0,-.2,0,-.3,0c-.9,3.8,-1.9,7.4,-2.7,11.2c.6,1.1,1.5,1.7,1.3,3.2c-.5,2.7,-3.9,4.4,-7.2,4.4c-1.3,0,-2.5,-.3,-3.6,-.8c-1,2.1,-2.1,4.1,-3.3,6c0,-.3,.3,-.3,.3,-.7c.9,-1.8,1.9,-3.6,2.6,-5.7c-1,1.7,-1.8,3.7,-2.7,5.6c-.3,.4,-.5,.8,-.7,1.2c-.3,.4,-.3,1.1,-.7,1.4Z"/></clipPath>
<clipPath id="cg_90"><path d="M771.1,600.6c-4.8,0,-13.1,-7.3,-5.5,-8.8h1.2c.2,.1,.3,.1,.5,.1q.1,0,.2,0c.3,0,.7,0,1.1,0c3.1,.7,8.2,3.9,7.5,7.1c-.2,1.1,-1.5,1.6,-3.1,1.6h-1.8c0,0,-.1,0,-.1,0Z"/></clipPath>
<style type="text/css"><![CDATA[
.g0_90{
fill: #FEFCF4;
}
.g1_90{
fill: #FFF;
}
.g2_90{
fill: none;
stroke: #6381B7;
stroke-width: 0.763;
}
.g3_90{
fill: #F7C2D9;
}
.g4_90{
fill: #FDF4F3;
}
.g5_90{
fill: #EC008C;
}
.g6_90{
fill: #6381B7;
}
.g7_90{
fill: none;
stroke: #6381B7;
stroke-width: 0.381;
stroke-dasharray: 2,1;
}
.g8_90{
fill: none;
stroke: #6381B7;
stroke-width: 0.381;
}
.g9_90{
fill: none;
stroke: #818385;
stroke-width: 0.305;
stroke-dasharray: 3,3;
}
.ga_90{
fill: none;
stroke: #818385;
stroke-width: 0.305;
}
.gb_90{
fill: none;
stroke: #949698;
stroke-width: 0.305;
stroke-dasharray: 4,4;
}
.gc_90{
fill: none;
stroke: #949698;
stroke-width: 0.305;
stroke-dasharray: 3,3;
}
.gd_90{
fill: none;
stroke: #949698;
stroke-width: 0.305;
}
.ge_90{
fill: #6D6F71;
}
.gf_90{
fill: #FCE8B0;
}
.gg_90{
fill: #2E6E51;
}
.gh_90{
fill: none;
stroke: #FFF;
stroke-width: 0.152;
stroke-miterlimit: 1;
}
.gi_90{
fill: #BCBEC0;
}
.gj_90{
fill: #EE314A;
}
.gk_90{
fill: #CEEDFB;
}
.gl_90{
fill: #27639D;
}
.gm_90{
fill: #231F20;
}
.gn_90{
fill: none;
stroke: #C3E7F1;
stroke-width: 1.527;
}
.go_90{
fill: #25408F;
}
.gp_90{
fill: #A8AAAD;
}
.gq_90{
fill: none;
stroke: #949698;
stroke-width: 0.549;
}
.gr_90{
fill: none;
stroke: #BCBEC0;
stroke-width: 2.566;
}
.gs_90{
fill: #363637;
}
.gt_90{
fill: #5CC4BE;
}
.gu_90{
fill: #F0D73F;
}
.gv_90{
fill: none;
stroke: #818385;
stroke-width: 0.305;
stroke-dasharray: 4,4;
}
.gw_90{
fill: none;
stroke: #FFF;
stroke-width: 1.909;
stroke-miterlimit: 10;
}
.gx_90{
fill: none;
stroke: #000;
stroke-width: 0.381;
stroke-miterlimit: 10;
}
]]></style>
</defs>
<path clip-path="url(#c0_90)" d="M954.5,1344.3H1877V32.1H954.5V1344.3Z" class="g0_90"/>
<path d="M32.1,1344.3H954.5V32.1H32.1V1344.3Z" class="g0_90"/>
<path d="M150.4,440.5c0,0,-18.3,0,-18.3,18.3V893.4c0,0,0,18.4,18.3,18.4H827.5c0,0,18.4,0,18.4,-18.4V440.5Z" class="g1_90"/>
<path d="M150.4,440.5c0,0,-18.3,0,-18.3,18.3V893.4c0,0,0,18.4,18.3,18.4H827.5c0,0,18.4,0,18.4,-18.4V440.5H150.4Z" class="g2_90"/>
<image clip-path="url(#c1_90)" preserveAspectRatio="none" x="642" y="607" width="239" height="290" xlink:href="img/1.png"/>
<path d="M647.1,616.4l8.1,274.5l219.9,-4.8L867,611.6Z" class="g3_90"/>
<image clip-path="url(#c2_90)" preserveAspectRatio="none" x="638" y="603" width="247" height="298" xlink:href="img/2.png"/>
<path d="M642.8,621.5l18.9,273.7L826.8,883.8l52.7,-13.5L861.5,607Z" class="g4_90"/>
<path d="M879.4,870.2l-53,14l34.7,-28.4Z" class="g5_90"/>
<path d="M145.5,983.1c0,0,-13,0,-13,12.9v161.7c0,0,0,13,13,13H833.3c0,0,13,0,13,-13V996c0,0,0,-12.9,-13,-12.9Z" class="g1_90"/>
<path d="M145.5,983.1c0,0,-13,0,-13,12.9v161.7c0,0,0,13,13,13H833.3c0,0,13,0,13,-13V996c0,0,0,-12.9,-13,-12.9H145.5Z" class="g2_90"/>
<path d="M608.9,1190.5c0,0,-4.3,0,-4.3,4.4v10.8c0,0,0,4.3,4.3,4.3h30.3c0,0,4.4,0,4.4,-4.3v-10.8c0,0,0,-4.4,-4.4,-4.4Z" class="g6_90"/>
<path d="M595.7,1181.7v37.6m1.4,.9h248m1,-1.3v-37.6m-1.4,-.9h-248" class="g7_90"/>
<path d="M595.7,1219.6v.6h.6m249.2,0h.6v-.6m0,-38.7v-.5h-.6m-249.2,0h-.6v.5" class="g8_90"/>
<path d="M496.8,716.2c4.8,-1.7,8.4,-6.3,9.4,-12m-.3,-7.2c-1.4,-5.6,-5.4,-9.9,-10.5,-11.1m-7.1,.5c-4.8,1.7,-8.4,6.3,-9.3,12m.3,7.2c1.4,5.5,5.4,9.8,10.4,11" class="g9_90"/>
<path d="M506.3,702.7c.1,-.4,.1,-.9,.1,-1.4c0,-.5,0,-1,-.1,-1.5M494,685.7c-.5,-.1,-.9,-.1,-1.4,-.1c-.5,0,-1,0,-1.5,.1m-12.3,14.1c0,.5,-.1,1,-.1,1.5c0,.5,.1,1,.1,1.4m12.3,14.2c.5,0,1,.1,1.5,.1c.5,0,.9,-.1,1.4,-.1" class="ga_90"/>
<path d="M504.2,689.1c9.6,1.6,32.2,4,44.9,-7.1" class="gb_90"/>
<path d="M551,676c-.6,-2.6,-2.3,-5,-6.9,-2m-2.6,5.8c.2,4.6,3.7,10.3,22.6,1.2" class="gc_90"/>
<path d="M570.4,677c9.1,-6.3,33.6,-21.2,61.8,-22.1" class="gb_90"/>
<path d="M499.8,688.2c0,0,.5,.1,1.5,.3M550.2,681c.4,-.3,.7,-.7,1.1,-1.1c0,0,0,-.5,0,-1.3M543,674.8c-.3,.2,-.6,.5,-1,.8c0,0,-.2,.5,-.3,1.4m23.7,3.4c.4,-.2,.8,-.4,1.2,-.7c0,0,.5,-.3,1.3,-.9m65.9,-24c.5,0,1,0,1.5,0" class="gd_90"/>
<path d="M637.1,650.5l-1.4,8.7l11.8,-2.6Z" class="ge_90"/>
<path d="M209.2,483.4c0,0,-13,0,-13,13V544c0,0,0,13,13,13h602c0,0,13,0,13,-13V496.4c0,0,0,-13,-13,-13Z" class="gf_90"/>
<image clip-path="url(#c3_90)" preserveAspectRatio="none" x="152" y="480" width="75" height="76" xlink:href="img/3.png"/>
<path d="M204,549.6c0,0,-26.8,11.4,-51.1,-12.7c0,0,15.2,25.3,49.3,24c0,0,24.8,.3,20.3,-10.2c0,0,1.2,-4.4,-18.5,-1.1Z" class="gf_90"/>
<path d="M209.2,1001.7c0,0,-13,0,-13,13v47.6c0,0,0,13,13,13h602c0,0,13,0,13,-13v-47.6c0,0,0,-13,-13,-13Z" class="gf_90"/>
<image clip-path="url(#c4_90)" preserveAspectRatio="none" x="152" y="998" width="75" height="76" xlink:href="img/4.png"/>
<path d="M204,1067.9c0,0,-26.8,11.3,-51.1,-12.7c0,0,15.2,25.3,49.3,23.9c0,0,24.8,.4,20.3,-10.1c0,0,1.2,-4.4,-18.5,-1.1Z" class="gf_90"/>
<path d="M32.1,179.3H967.5V32.1H32.1V179.3Z" class="gg_90"/>
<path d="M255.3,139.2c-.3,-.4,-.7,-.9,-1.2,-1.4c-.5,-.5,-1.1,-1.1,-1.8,-1.8c.1,-.1,.1,-.2,.1,-.3v-.3c0,-1.1,-.4,-1.7,-1.2,-1.7c-.4,0,-.8,.2,-1.1,.5c-.3,.3,-.4,.7,-.4,1.1c0,.3,.1,.6,.4,1.1c.3,.5,.7,.9,1.1,1.3c.5,.4,.9,.8,1.4,1.3c.5,.4,1,.8,1.4,1.3c1,1,1.5,1.8,1.5,2.5c0,.4,-.1,.7,-.2,1c-.1,.3,-.3,.6,-.6,.8c-.5,-.6,-1.3,-.9,-2.5,-.9c-.6,0,-1.2,.3,-1.8,.7c-.5,.5,-.8,1,-.8,1.6c0,.5,.3,1,.8,1.3c.4,.4,.9,.5,1.5,.5c1.2,0,2.4,-.4,3.4,-1.4c1,-1,1.5,-2.1,1.5,-3.3c0,-1.2,-.5,-2.5,-1.5,-3.9Zm14.2,9c-1,-1,-2,-1.8,-2.9,-2.5c-.9,-.7,-1.7,-1.3,-2.5,-1.7c2.3,-.7,3.4,-2,3.4,-4c0,-1.1,-.4,-2,-1.3,-2.9c-.7,-.6,-1.6,-1.2,-2.9,-1.9c-.1,-.8,-.5,-1.3,-1.3,-1.3c-.4,0,-.7,.2,-1,.5c-.2,.2,-.3,.6,-.3,.9c0,.5,.5,1.1,1.5,1.6c.4,.2,.9,.5,1.4,.7c.5,.3,.9,.5,1.4,.8c1,.7,1.5,1.4,1.5,2.2c0,.5,-.3,.9,-.9,1.2c-.5,.3,-1.1,.5,-1.6,.5c-.4,0,-.8,-.1,-1.3,-.2c-.5,-.1,-1,-.3,-1.6,-.6c-1.2,-.4,-1.9,-.9,-2.2,-1.4L260,144c.9,.2,1.8,.5,2.7,.8c.9,.4,1.8,.8,2.6,1.4c.9,.5,1.7,1,2.4,1.6c.7,.6,1.4,1.2,2.1,1.9l-.3,-1.5Zm10.6,-13L278.9,134h-.6c0,-1.1,-.2,-2,-.7,-2.6c-.5,-.6,-1.3,-.9,-2.4,-.9c-.3,0,-.8,.1,-1.5,.1c-.3,.1,-.6,.1,-.8,.1c-.3,0,-.5,0,-.6,0c-.5,0,-1,-.1,-1.4,-.3c-.4,-.2,-.6,-.6,-.6,-1.1c0,-.2,.1,-.4,.3,-.6c0,-.1,0,-.2,0,-.2c0,-.1,0,-.2,0,-.2c-.6,0,-.9,.5,-.9,1.4c0,.9,.4,1.6,1.2,2c.8,.5,1.7,.7,2.6,.7c.1,0,.2,0,.4,0c.2,-.1,.4,-.1,.6,-.1c.6,-.1,.9,-.1,1.2,-.1c1,0,1.5,.3,1.5,1c0,.2,-.1,.3,-.1,.4c0,.2,0,.3,0,.4H268l1.1,1.2h2v8c.1,.9,.4,1.6,.9,2c.4,.5,1,.7,1.8,.7c1.1,0,2.2,-.6,3.2,-1.8c1,-1.2,1.5,-2.3,1.5,-3.5c0,-.4,0,-.7,-.1,-1.1c-.1,-.3,-.3,-.6,-.4,-.9c-.5,-.7,-1,-1,-1.7,-1c-.5,0,-.8,.2,-1.1,.5c-.3,.3,-.4,.7,-.4,1.1c0,.4,.1,.8,.5,1c.3,.3,.6,.4,1,.4h.4c-.1,.8,-.4,1.6,-1.1,2.5c-.8,.8,-1.5,1.3,-2.2,1.3c-.5,0,-.9,-.3,-1.2,-.8v-8.4h7.9Zm4.7,0L283.6,134h-1.1c-.3,-.4,-.6,-1,-.7,-1.9l-.4,-.3c0,.2,0,.5,0,.9c0,.3,0,.7,.1,1.2c0,.5,0,.9,0,1.3c0,.3,.1,.6,.1,.9c-.3,-.8,-.6,-1.3,-1,-1.6c-.4,-.3,-1,-.5,-1.7,-.5h-1.4l1.2,1.2c.4,0,.7,.1,1,.2c.3,.1,.6,.3,.9,.5c.2,.2,.4,.4,.6,.7c.1,.3,.2,.7,.2,1v8.9l1.1,1.2V135.2h2.3Zm17.9,2.1c-1.1,-1.4,-2.2,-2.1,-3.4,-2.2c-2.1,0,-3.2,.9,-3.3,2.8c0,.7,.2,1.3,.6,1.8c.4,.5,.9,.8,1.5,.8c.6,0,1.1,-.2,1.6,-.6c.4,-.4,.6,-.9,.6,-1.5c.1,-.4,-.1,-.8,-.3,-1.3c1.8,.6,2.7,2,2.7,4.1c-.1,.6,-.2,1,-.4,1.5c-.2,.4,-.5,.7,-.9,1c-.3,.3,-.7,.5,-1.2,.6c-.5,.2,-1,.3,-1.5,.3c-.9,0,-1.6,-.3,-2.2,-.8c-.7,-.5,-1.2,-1.1,-1.6,-1.9c-.4,-.7,-.8,-1.5,-1,-2.4c-.2,-.8,-.4,-1.6,-.5,-2.3l-1,-.5c.1,.6,.2,1.3,.3,2c.2,.8,.4,1.5,.6,2.3c.2,.7,.5,1.5,.8,2.2c.4,.7,.8,1.3,1.2,1.8c.5,.6,1,1,1.7,1.3c.6,.4,1.3,.5,2.1,.5c.7,0,1.3,-.1,1.9,-.4c.6,-.3,1.1,-.7,1.5,-1.1c.4,-.5,.7,-1.1,1,-1.8c.2,-.7,.3,-1.4,.3,-2.2c.1,-1.4,-.3,-2.7,-1.1,-4Zm11.1,.8c-.9,-.9,-2.1,-1.4,-3.4,-1.4c-1.3,0,-2.5,.4,-3.4,1.2c-.9,.9,-1.4,1.9,-1.5,3.2c-.1,1.5,.4,2.7,1.3,3.7c.9,.9,2.1,1.4,3.5,1.4c1.3,0,2.5,-.4,3.4,-1.3c1,-1,1.5,-2.1,1.5,-3.4c0,-1.3,-.5,-2.5,-1.4,-3.4Zm-1.6,5.4c-.8,.8,-1.8,1.3,-2.9,1.3c-.3,0,-.6,-.1,-.9,-.2c-.2,-.1,-.5,-.3,-.7,-.5c-.2,-.2,-.3,-.4,-.4,-.7c-.2,-.3,-.2,-.6,-.2,-.9c0,-1.1,.4,-2.1,1.3,-3c.8,-.9,1.7,-1.4,2.8,-1.4c.7,0,1.3,.2,1.7,.7c.4,.4,.7,1,.7,1.7c-.1,1.2,-.5,2.1,-1.4,3Zm16.6,-11.6c-2.3,-2.4,-4.8,-3.6,-7.3,-3.6c-1,0,-2,.4,-3.1,1.2c-1.1,.9,-1.6,1.8,-1.6,2.7c0,.4,.2,.7,.5,1l.8,.8h-3.2l1.2,1.2h1.8v11.3l1.2,1.2V135.2h2.1L320,134h-1.3l-.5,-1.1c.1,-.9,.6,-1.6,1.7,-2.3c.9,-.7,1.8,-1,2.7,-1c.7,0,1.3,.1,1.8,.2c.6,.2,1.2,.4,1.7,.7c.6,.4,1.1,.7,1.6,1c.5,.4,.9,.7,1.3,1l-.2,-.6Zm2.7,2.1h-12l1.2,1.2c.5,.6,.8,1,1.1,1.2c.2,.2,.5,.3,.8,.4c.3,.2,.7,.3,1.1,.4c.8,.3,1.4,.5,1.6,.8c.5,.4,.7,1.1,.7,2.2c-.2,-.2,-.6,-.3,-.9,-.3c-.8,0,-1.3,.2,-1.8,.5c-.5,.4,-.7,1,-.7,1.6c0,.6,.2,1.1,.6,1.5c.4,.4,.8,.5,1.4,.5c.3,0,.7,0,1,-.2c.4,-.1,.8,-.5,1.1,-.9c1.6,.5,2.7,2,3.4,4.4l.4,.5V135.2h2.2L331.5,134Zm-2.1,9.8c-.3,-.4,-.6,-.8,-.9,-1.2c-.4,-.4,-.8,-.8,-1.2,-1.2c0,-.1,0,-.2,0,-.3v-.3c0,-1.1,-.4,-2.1,-1.1,-3.1c-.5,-.7,-1.4,-1.5,-2.6,-2.5h5.8v8.6Zm15.3,-11.9c-2.3,-2.4,-4.7,-3.6,-7.2,-3.6c-1,0,-2,.4,-3.1,1.2c-1.1,.9,-1.6,1.8,-1.6,2.7c0,.4,.1,.7,.5,1l.8,.8h-3.2l1.2,1.2h1.8v11.3l1.2,1.2V135.2h2.1L336,134h-1.3l-.5,-1.1c.1,-.9,.6,-1.6,1.7,-2.3c.9,-.7,1.8,-1,2.7,-1c.6,0,1.2,.1,1.8,.2c.6,.2,1.1,.4,1.7,.7c.6,.4,1.1,.7,1.6,1c.5,.4,.9,.7,1.3,1l-.3,-.6Zm3.7,3.3L347.2,134H335.5l1.2,1.2h8.4v6.6c-1.3,-2.6,-2.8,-4,-4.4,-4c-.8,0,-1.5,.3,-2.1,.9c-.6,.5,-.9,1.2,-.9,2c0,1.5,.8,2.2,2.3,2.2c.5,0,.9,-.2,1.2,-.5c.3,-.4,.5,-.8,.5,-1.3c0,-.3,-.3,-.8,-.8,-1.5c0,-.1,.2,-.1,.3,-.1c1.3,0,2.4,.8,3.3,2.5c.7,1.4,1,2.9,1,4.2l-.1,1.3l.9,.6V135.2h2.1Zm6.2,-1.2h-8l1.2,1.2h4c-1.7,2,-2.5,4,-2.5,6.1c0,1.5,.3,2.8,.9,3.9c.7,1.4,1.8,2.1,3.2,2.1c.3,0,.6,0,.8,-.1c.3,-.1,.5,-.2,.7,-.4c.2,-.2,.4,-.4,.5,-.7c.1,-.2,.2,-.5,.2,-.8c0,-.4,-.2,-.9,-.5,-1.2c-.3,-.3,-.6,-.5,-1,-.5c-.4,0,-.7,.2,-1,.4c-.3,.3,-.5,.6,-.5,1c0,.2,.1,.4,.2,.7c.1,.2,.3,.4,.6,.6c-.7,.2,-1.5,-.2,-2.2,-1.3c-.5,-.7,-.7,-1.5,-.7,-2.3c0,-1,.1,-1.9,.3,-2.7c.2,-.7,.5,-1.4,.9,-2.1c.5,-.7,1,-1.3,1.7,-1.7c.7,-.5,1.4,-.8,2.3,-1L354.6,134Zm11.3,1.2L364.7,134h-.6c0,-1.1,-.3,-2,-.7,-2.6c-.5,-.6,-1.3,-.9,-2.4,-.9c-.3,0,-.8,.1,-1.5,.1c-.3,.1,-.6,.1,-.8,.1c-.3,0,-.5,0,-.7,0c-.5,0,-.9,-.1,-1.3,-.3c-.4,-.2,-.6,-.6,-.6,-1.1c0,-.2,.1,-.4,.3,-.6c0,-.1,0,-.2,0,-.2c-.1,-.1,-.1,-.2,-.1,-.2c-.6,0,-.8,.5,-.8,1.4c0,.9,.4,1.6,1.2,2c.8,.5,1.6,.7,2.5,.7c.2,0,.3,0,.5,0c.2,-.1,.4,-.1,.6,-.1c.5,-.1,.9,-.1,1.1,-.1c1,0,1.5,.3,1.5,1c0,.2,0,.3,0,.4c0,.2,0,.3,0,.4h-9.1l1.1,1.2h1.9v8c.2,.9,.5,1.6,.9,2c.5,.5,1.1,.7,1.8,.7c1.2,0,2.3,-.6,3.3,-1.8c1,-1.2,1.5,-2.3,1.5,-3.5c0,-.4,-.1,-.7,-.2,-1.1c-.1,-.3,-.2,-.6,-.3,-.9c-.5,-.7,-1.1,-1,-1.7,-1c-.5,0,-.9,.2,-1.1,.5c-.3,.3,-.5,.7,-.5,1.1c0,.4,.2,.8,.5,1c.3,.3,.7,.4,1.1,.4h.4c-.1,.8,-.5,1.6,-1.2,2.5c-.7,.8,-1.5,1.3,-2.2,1.3c-.5,0,-.9,-.3,-1.1,-.8v-8.4h7.9ZM384.1,134h-12l1.2,1.2c.5,.6,.8,1,1.1,1.2c.2,.2,.5,.3,.8,.4c.3,.2,.7,.3,1.1,.4c.8,.3,1.3,.5,1.6,.8c.5,.4,.7,1.1,.7,2.2c-.2,-.2,-.6,-.3,-.9,-.3c-.8,0,-1.4,.2,-1.8,.5c-.5,.4,-.7,1,-.7,1.6c0,.6,.2,1.1,.6,1.5c.4,.4,.8,.5,1.4,.5c.3,0,.7,0,1,-.2c.4,-.1,.8,-.5,1.1,-.9c1.6,.5,2.7,2,3.4,4.4l.4,.5V135.2h2.2L384.1,134Zm-2.1,9.8c-.3,-.4,-.6,-.8,-.9,-1.2c-.4,-.4,-.8,-.8,-1.2,-1.2c0,-.1,0,-.2,0,-.3v-.3c0,-1.1,-.4,-2.1,-1.2,-3.1c-.4,-.7,-1.3,-1.5,-2.5,-2.5H382v8.6Zm14.5,-8.6L395.3,134h-2.2v1.6c-2,1.3,-3.1,1.9,-3.3,1.9c-.5,0,-1,-.1,-1.3,-.4c-.4,-.2,-.5,-.5,-.5,-.9c0,-.3,0,-.5,.2,-.7c.2,.1,.3,.2,.5,.3c.1,0,.3,.1,.4,.1c.3,0,.5,-.1,.7,-.3c.2,-.2,.3,-.4,.3,-.8c0,-.6,-.5,-1,-1.5,-1c-.6,0,-1.1,.2,-1.5,.6c-.4,.4,-.5,.8,-.5,1.4c0,.4,0,.7,.2,.9c.1,.3,.3,.5,.5,.7c.5,.4,1.1,.6,1.9,.6l-3.2,2.3l1.5,2c.6,0,1.2,.2,1.8,.3c.5,.2,1,.4,1.4,.7c.6,.5,1.3,1.2,1.9,2.1c.2,.3,.4,.6,.6,.9c.1,.3,.3,.6,.4,.8l.7,1V135.2h2.2Zm-3.4,9.5c-1,-1.7,-2.5,-3.1,-4.5,-4c.8,-.7,1.6,-1.3,2.3,-1.7c.8,-.5,1.5,-.9,2.2,-1.2v6.9Zm8.2,-9.5L400.1,134h-6l1.2,1.2h3.5c-1.4,1.2,-2,2.6,-1.9,4.2c0,.5,.2,1.4,.5,2.4c.1,.5,.3,1,.3,1.4c.1,.4,.1,.8,.1,1c0,.9,-.1,1.6,-.5,2c-.2,.3,-.5,.6,-.9,.8c-.4,.2,-.7,.4,-1.1,.5l.6,.5c.5,-.1,.9,-.3,1.3,-.5c.4,-.2,.7,-.5,1.1,-.8c.3,-.4,.6,-.8,.8,-1.3c.2,-.4,.3,-.9,.3,-1.3c0,-.4,0,-.8,-.1,-1.4c-.1,-.5,-.2,-1.2,-.3,-1.9c-.2,-1.1,-.3,-2.2,-.3,-3.3c.1,-1.5,.7,-2.3,1.8,-2.3h.8Zm4.1,0L404.2,134h-1c-.4,-.4,-.7,-1,-.8,-1.9l-.4,-.3c0,.2,0,.5,0,.9c0,.3,0,.7,.1,1.2c0,.5,0,.9,0,1.3c.1,.3,.1,.6,.1,.9c-.3,-.8,-.6,-1.3,-1,-1.6c-.4,-.3,-1,-.5,-1.7,-.5h-1.4l1.2,1.2c.4,0,.7,.1,1,.2c.4,.1,.6,.3,.9,.5c.2,.2,.4,.4,.6,.7c.1,.3,.2,.7,.2,1v8.9l1.2,1.2V135.2h2.2ZM418.6,134H403.7l1.2,1.2h3.9c.5,.4,.8,.7,.8,1c-.8,0,-1.4,.3,-2,.8c-.5,.5,-.8,1.1,-.8,1.8c0,.4,.1,.7,.4,.9c.3,.2,.7,.3,1,.3c.6,0,1.1,-.2,1.6,-.7c.5,-.5,.7,-1,.7,-1.6c.1,0,.2,0,.3,-.1c.1,0,.2,0,.4,0c.2,0,.4,.1,.6,.2c.2,.1,.4,.2,.6,.4c.1,.2,.2,.4,.3,.7c.1,.2,.1,.5,.1,.7c.1,.8,-.4,1.5,-1.4,2c-.7,.3,-1.5,.5,-2.5,.4c-1.2,-.1,-2.3,-.4,-3.3,-1l1.4,3c.9,.2,1.8,.5,2.6,.9c.9,.3,1.7,.7,2.6,1.2c.8,.5,1.6,1,2.3,1.5c.6,.6,1.3,1.2,1.8,1.9l-.2,-1.3c-1.1,-1.1,-2.1,-2,-3,-2.8c-.9,-.8,-1.8,-1.4,-2.6,-1.9c1.2,-.3,2.1,-.7,2.7,-1.2c.7,-.6,1.1,-1.4,1.1,-2.4v-.1c0,0,.1,-.1,.1,-.1c.1,-.2,.2,-.3,.4,-.4c.1,-.2,.3,-.3,.5,-.4c.2,-.1,.4,-.2,.6,-.2c.3,-.1,.5,-.1,.6,-.1c.4,0,.7,.1,.9,.2c.3,.1,.5,.4,.6,.9c0,.4,-.3,.8,-.8,1.2c-.1,-.6,-.5,-.9,-1.1,-.9c-.5,.1,-.8,.4,-1,1c-.1,.5,0,.9,.4,1.4c.3,.3,.7,.5,1.1,.4c.3,0,.6,-.1,.9,-.2c.3,-.2,.6,-.5,.8,-.8c.2,-.3,.3,-.6,.4,-1c.1,-.3,.2,-.6,.2,-.9c0,-.4,-.1,-.7,-.2,-1c-.1,-.3,-.2,-.6,-.4,-.8c-.2,-.2,-.4,-.4,-.7,-.5c-.2,-.2,-.5,-.2,-.9,-.2c-.4,0,-.9,.1,-1.5,.4c-.4,.2,-.8,.5,-1.1,.8c-.1,-.4,-.4,-.8,-.7,-1.2c-.4,-.5,-1.3,-.9,-2.5,-1.3c-.1,-.2,-.2,-.3,-.3,-.5c-.1,-.1,-.2,-.2,-.3,-.4h9.5L418.6,134Zm7.4,0h-7.9l1.2,1.2h4c-1.7,2,-2.6,4,-2.6,6.1c0,1.5,.3,2.8,1,3.9c.7,1.4,1.8,2.1,3.2,2.1c.2,0,.5,0,.8,-.1c.2,-.1,.5,-.2,.7,-.4c.2,-.2,.3,-.4,.4,-.7c.2,-.2,.2,-.5,.2,-.8c0,-.4,-.1,-.9,-.4,-1.2c-.3,-.3,-.6,-.5,-1,-.5c-.4,0,-.7,.2,-1.1,.4c-.3,.3,-.4,.6,-.4,1c0,.2,.1,.4,.2,.7c.1,.2,.3,.4,.6,.6c-.8,.2,-1.5,-.2,-2.3,-1.3c-.4,-.7,-.7,-1.5,-.7,-2.3c0,-1,.1,-1.9,.4,-2.7c.2,-.7,.5,-1.4,.9,-2.1c.4,-.7,1,-1.3,1.7,-1.7c.6,-.5,1.4,-.8,2.3,-1L426,134Zm13.9,1.2L438.7,134H425.3l1.2,1.2h13.4Zm-1.7,2.9c-.3,-.5,-.5,-.9,-.8,-1.1c-.3,-.3,-.6,-.5,-.9,-.5c-.2,.3,-.4,.6,-.6,.9c-.1,.3,-.4,.6,-.6,.8c-.6,.7,-1.2,1,-1.7,.9c.3,-.4,.5,-.9,.5,-1.2c0,-.4,-.2,-.8,-.5,-1.1c-.3,-.2,-.6,-.4,-1,-.4c-1.4,0,-2,.7,-2,1.9c0,.8,.3,1.4,.9,1.9c.5,.4,1.1,.6,1.9,.6c1.5,0,2.8,-.6,3.8,-1.9c.4,0,.6,.6,.6,1.7c0,.9,-.3,1.7,-1,2.3c-.6,.7,-1.4,1,-2.3,1c-.8,0,-1.7,-.2,-2.4,-.7c-.8,-.4,-1.5,-1,-2.1,-1.7c-.5,-.6,-.9,-1.4,-1.3,-2.2c-.4,-.8,-.8,-1.7,-1.1,-2.7l-.7,-.2c.5,1.4,.9,2.7,1.3,3.7c.4,1,.8,1.8,1.1,2.3c1.4,2.3,3,3.5,5,3.5c1.4,0,2.6,-.6,3.4,-1.6c.4,-.5,.8,-1.1,1,-1.7c.2,-.6,.3,-1.3,.3,-2c0,-.7,-.3,-1.5,-.8,-2.5Zm6.4,-2.9L443.4,134h-1c-.4,-.4,-.6,-1,-.8,-1.9l-.4,-.3c0,.2,0,.5,0,.9c0,.3,.1,.7,.1,1.2c0,.5,.1,.9,.1,1.3c0,.3,0,.6,0,.9c-.3,-.8,-.6,-1.3,-1,-1.6c-.4,-.3,-.9,-.5,-1.7,-.5h-1.3l1.2,1.2c.3,0,.6,.1,1,.2c.3,.1,.6,.3,.8,.5c.3,.2,.5,.4,.6,.7c.1,.3,.2,.7,.2,1v8.9l1.2,1.2V135.2h2.2ZM458,134H442.7l1.2,1.2h5.2c-.4,.3,-.8,.8,-1.2,1.5c-.4,.6,-.6,1.2,-.6,1.7c0,.8,.3,1.5,.8,2.1c.6,.7,1.2,1,2,1c.4,0,.8,-.1,1.3,-.3c.6,-.2,.9,-.3,1,-.3c.2,0,.4,.1,.5,.4c.1,.2,.2,.4,.2,.6c0,.6,-.4,1,-1.2,1.3c-.6,.3,-1.2,.5,-1.8,.5c-.6,0,-1.3,-.2,-1.8,-.6c-.6,-.4,-1,-1,-1.5,-1.7c-.6,-.9,-.9,-2.1,-1.1,-3.5c0,-.5,0,-.9,0,-1.3l-.6,-.3c0,1.2,.1,2.3,.2,3.3c.2,1,.4,1.9,.8,2.7c.9,2.2,2.4,3.4,4.4,3.4c1,0,1.7,-.4,2.4,-1c.7,-.7,1,-1.5,1,-2.4c0,-.3,-.1,-.6,-.2,-.9c-.1,-.4,-.2,-.7,-.4,-1.1c-.4,-.7,-.9,-1.2,-1.4,-1.4l-1.3,.7c-.3,.1,-.6,.2,-.8,.3c-.2,.1,-.4,.1,-.6,.1c-.6,0,-.9,-.3,-.9,-.9c0,-.4,.2,-1,.7,-1.7c.2,-.4,.5,-.7,.7,-.9c.2,-.2,.4,-.3,.6,-.3l.1,.1c.7,.9,1.5,1.6,2.4,1.9c.7,.3,1.8,.5,3,.5c-.5,1.2,-.7,2.5,-.7,3.6c0,.9,.1,1.8,.2,2.6c.2,.8,.4,1.6,.7,2.4l1.2,.3c-.6,-1.3,-.9,-2.5,-.9,-3.4c0,-1.2,.2,-2.3,.5,-3.3c.3,-.9,.8,-1.7,1.5,-2.3l-1.8,-1.9c-.4,.2,-.8,.3,-1.3,.4c-.5,.1,-1.1,.1,-1.8,.1c-.1,0,-.3,0,-.5,-.1c-.2,-.1,-.5,-.1,-.7,-.3c-.2,-.1,-.4,-.2,-.6,-.3c-.2,-.2,-.2,-.3,-.2,-.5c0,-.2,.1,-.4,.3,-.5c.2,-.2,.4,-.3,.6,-.3h6.9L458,134Zm23.5,1.2L480.2,134H465.1l1.2,1.2h7.8v1c-2.6,.8,-4.9,2.1,-7,3.7l1.7,2.1c1.4,.1,2.6,.7,3.7,1.8c.4,.5,.9,1,1.3,1.6c.4,.7,.7,1.3,1,2c0,.1,.1,.1,.2,.2c0,0,.1,.1,.2,.1v-10c1.2,0,2.1,.3,2.8,1c.6,.7,1,1.4,1,2.2l-.1,.3c-.2,-.2,-.4,-.3,-.6,-.4c-.2,-.2,-.4,-.2,-.6,-.2c-.4,0,-.7,.1,-1,.4c-.3,.2,-.4,.5,-.4,.9c0,.2,0,.4,.1,.6c.1,.2,.2,.3,.4,.5c.1,.1,.3,.2,.5,.3c.2,.1,.4,.1,.6,.1c.2,0,.5,-.1,.8,-.2c.2,-.1,.4,-.3,.6,-.5c.1,-.2,.3,-.4,.4,-.7c.1,-.3,.1,-.5,.1,-.8c0,-1.3,-.4,-2.4,-1.2,-3.4c-.8,-1.2,-2,-1.7,-3.4,-1.7v-.9h6.3Zm-7.5,9.1c-1,-1.8,-2.5,-3.1,-4.5,-4c.9,-.5,1.6,-1,2.4,-1.4c.7,-.4,1.4,-.8,2.1,-1.1v6.5Zm19.5,-12.4c-2.3,-2.4,-4.7,-3.6,-7.2,-3.6c-1,0,-2,.4,-3.1,1.2c-1.1,.9,-1.6,1.8,-1.6,2.7c0,.4,.1,.7,.5,1l.8,.8h-3.2l1.2,1.2h1.8v11.3l1.2,1.2V135.2H486L484.8,134h-1.3l-.5,-1.1c.1,-.9,.6,-1.6,1.7,-2.3c.9,-.7,1.8,-1,2.7,-1c.6,0,1.2,.1,1.8,.2c.6,.2,1.1,.4,1.7,.7c.6,.4,1.1,.7,1.6,1c.5,.4,.9,.7,1.3,1l-.3,-.6Zm3.7,3.3L496,134H484.2l1.2,1.2h8.2v.9c-2.5,.8,-5,2.1,-7.4,3.7l1.6,2.3c1.7,.1,3.1,.7,4.1,1.6c.3,.3,.6,.6,.9,1c.3,.4,.6,.8,.7,1c.2,.3,.4,.7,.6,1.3l.7,.8V135.2h2.4Zm-3.6,9.4c-1.1,-1.8,-2.7,-3.2,-4.8,-4.1c.8,-.6,1.7,-1.1,2.5,-1.5c.8,-.4,1.5,-.7,2.3,-1v6.6Zm-4.7,1.7c.2,.3,.5,.4,.9,.4c.3,0,.6,-.1,.8,-.4c.3,-.2,.4,-.5,.4,-.8c0,-.4,-.1,-.7,-.4,-.9c-.2,-.3,-.5,-.4,-.8,-.4c-.4,0,-.7,.1,-.9,.4c-.2,.2,-.4,.5,-.4,.9c0,.3,.2,.6,.4,.8Z" class="gh_90"/>
<g clip-path="url(#c0_90)">
<path d="M1877,177.2H32.1v-5.4H768.7c43.1,0,53,-37.9,115.3,-37.9h993Z" class="gi_90"/>
<path d="M1877,183.7H32.1v-9.8H768.7c43.1,0,53,-33.6,115.3,-33.6h993Z" class="gj_90"/>
</g>
<image clip-path="url(#c5_90)" preserveAspectRatio="none" x="125" y="206" width="734" height="181" xlink:href="img/5.png"/>
<path d="M144.6,231.3c0,0,-13,0,-13,13v117c0,0,0,13,13,13H833.1c0,0,13,0,13,-13v-130Z" class="gk_90"/>
<path d="M147.7,294.1l54.1,40.8l54.1,-40.8V230h8.7V211.9H155.8c-6.5,.4,-7.7,3.9,-8.2,8.4Z" class="gl_90"/>
<path d="M274,220.3c-.3,-4.7,-4.2,-8.4,-9,-8.4c-4.8,0,-8.7,3.7,-9,8.4h-.1V230h18.2v-9.7Z" class="gm_90"/>
<path d="M255.9,230.6H846.1" class="gn_90"/>
<path d="M131.7,414.2v39l11.7,10.3V419.2Z" class="go_90"/>
<path d="M131.7,414.2v39H829.5c0,0,16.8,0,16.8,-16.8V431c0,0,0,-16.8,-16.8,-16.8Z" class="g6_90"/>
<path d="M781,447.8c8.2,0,14.8,-6.5,14.8,-14.5c0,-8,-6.6,-14.5,-14.8,-14.5c-8.3,0,-14.9,6.5,-14.9,14.5c0,8,6.6,14.5,14.9,14.5Z" class="gp_90"/>
<path d="M781,447.8c8.2,0,14.8,-6.5,14.8,-14.5c0,-8,-6.6,-14.5,-14.8,-14.5c-8.3,0,-14.9,6.5,-14.9,14.5c0,8,6.6,14.5,14.9,14.5Z" class="gq_90"/>
<path d="M781,438.7c3,0,5.4,-2.4,5.4,-5.4c0,-3,-2.4,-5.3,-5.4,-5.3c-3.1,0,-5.5,2.3,-5.5,5.3c0,3,2.4,5.4,5.5,5.4Z" class="g1_90"/>
<path d="M781,438.7c3,0,5.4,-2.4,5.4,-5.4c0,-3,-2.4,-5.3,-5.4,-5.3c-3.1,0,-5.5,2.3,-5.5,5.3c0,3,2.4,5.4,5.5,5.4Z" class="gr_90"/>
<g clip-path="url(#c6_90)" opacity="0.3">
<path d="M766.4,432.5v0c0,0,-.1,-4.8,3.6,-8.6l7.8,6.7c0,0,-1,.9,-1.1,2.7Z" class="g1_90"/>
</g>
<path d="M785.6,433.2c0,0,-3.5,0,-3.5,3.5v8.7c0,0,0,3.4,3.5,3.4H829c0,0,3.5,0,3.5,-3.4v-8.7c0,0,0,-3.5,-3.5,-3.5Z" class="gm_90"/>
<path d="M169.5,424.3c0,-8.4,-6.7,-15.1,-15,-15.1c-8.4,0,-15.1,6.7,-15.1,15.1c0,8.3,6.8,15,15.1,15c.8,0,1.6,-.1,2.4,-.2l4.5,5.2v-6.7c4.8,-2.5,8.1,-7.5,8.1,-13.3Z" class="g1_90"/>
<path d="M161.8,445.6l-5.1,-6c-.7,.1,-1.5,.2,-2.2,.2c-8.6,0,-15.6,-7,-15.6,-15.5c0,-8.6,7,-15.5,15.6,-15.5c8.5,0,15.5,6.9,15.5,15.5c0,5.7,-3.1,10.9,-8.2,13.6Zm-4.7,-7l3.8,4.5v-5.7l.3,-.2c4.8,-2.5,7.9,-7.5,7.9,-12.9c0,-8.1,-6.6,-14.6,-14.6,-14.6c-8.1,0,-14.6,6.5,-14.6,14.6c0,8,6.5,14.6,14.6,14.6c.7,0,1.5,-.1,2.3,-.2Z" class="gs_90"/>
<path d="M147.4,423.8c.8,0,1.5,.7,1.5,1.5c0,.8,-.7,1.4,-1.5,1.4c-.7,0,-1.4,-.6,-1.4,-1.4c0,-.8,.7,-1.5,1.4,-1.5Z" class="gt_90"/>
<path d="M147.4,427.2c-1,0,-1.8,-.9,-1.8,-1.9c0,-1.1,.8,-1.9,1.8,-1.9c1.1,0,1.9,.8,1.9,1.9c0,1,-.8,1.9,-1.9,1.9m0,-2.9c-.5,0,-.9,.4,-.9,1c0,.5,.4,1,.9,1c.6,0,1,-.5,1,-1c0,-.6,-.4,-1,-1,-1Z" class="gs_90"/>
<path d="M154.5,423.8c.8,0,1.4,.7,1.4,1.5c0,.8,-.6,1.4,-1.4,1.4c-.8,0,-1.5,-.6,-1.5,-1.4c0,-.8,.7,-1.5,1.5,-1.5Z" class="gt_90"/>
<path d="M154.5,427.2c-1.1,0,-1.9,-.9,-1.9,-1.9c0,-1.1,.8,-1.9,1.9,-1.9c1,0,1.9,.8,1.9,1.9c0,1,-.9,1.9,-1.9,1.9m0,-2.9c-.6,0,-1,.4,-1,1c0,.5,.4,1,1,1c.5,0,.9,-.5,.9,-1c0,-.6,-.4,-1,-.9,-1Z" class="gs_90"/>
<path d="M161.5,423.8c.8,0,1.4,.7,1.4,1.5c0,.8,-.6,1.4,-1.4,1.4c-.8,0,-1.5,-.6,-1.5,-1.4c0,-.8,.7,-1.5,1.5,-1.5Z" class="gt_90"/>
<path d="M161.5,427.2c-1.1,0,-1.9,-.9,-1.9,-1.9c0,-1.1,.8,-1.9,1.9,-1.9c1,0,1.9,.8,1.9,1.9c0,1,-.9,1.9,-1.9,1.9m0,-2.9c-.6,0,-1,.4,-1,1c0,.5,.4,1,1,1c.5,0,1,-.5,1,-1c0,-.6,-.5,-1,-1,-1Z" class="gs_90"/>
<path d="M163.4,438.5c0,-9.7,7.9,-17.6,17.6,-17.6c9.7,0,17.6,7.9,17.6,17.6c0,9.7,-7.9,17.6,-17.6,17.6c-.9,0,-1.9,-.1,-2.8,-.2l-5.3,6.1v-7.8c-5.6,-3,-9.5,-8.9,-9.5,-15.7Z" class="gu_90"/>
<path d="M172.9,462.5c0,0,-.1,-.1,-.1,-.1c-.2,0,-.3,-.2,-.3,-.4v-7.6c-5.9,-3.1,-9.6,-9.2,-9.6,-15.9c0,-10,8.2,-18.1,18.1,-18.1c10,0,18.1,8.1,18.1,18.1c0,10,-8.1,18.1,-18.1,18.1c-.8,0,-1.7,-.1,-2.6,-.2l-5.1,5.9c-.1,.1,-.2,.2,-.4,.2M181,421.4c-9.4,0,-17.1,7.6,-17.1,17.1c0,6.5,3.5,12.3,9.2,15.2c.2,.1,.3,.3,.3,.5v6.6l4.4,-5.2c.1,-.1,.3,-.2,.5,-.2c.9,.2,1.8,.3,2.7,.3c9.5,0,17.2,-7.7,17.2,-17.2c0,-9.5,-7.7,-17.1,-17.2,-17.1Z" class="gs_90"/>
<path d="M189.2,438c.9,0,1.7,.8,1.7,1.7c0,.9,-.8,1.7,-1.7,1.7c-.9,0,-1.7,-.8,-1.7,-1.7c0,-.9,.8,-1.7,1.7,-1.7Z" class="g1_90"/>
<path d="M189.2,441.8c-1.2,0,-2.1,-.9,-2.1,-2.1c0,-1.2,.9,-2.1,2.1,-2.1c1.2,0,2.1,.9,2.1,2.1c0,1.2,-.9,2.1,-2.1,2.1m0,-3.3c-.7,0,-1.2,.5,-1.2,1.2c0,.6,.5,1.2,1.2,1.2c.7,0,1.2,-.6,1.2,-1.2c0,-.7,-.5,-1.2,-1.2,-1.2Z" class="gs_90"/>
<path d="M181,438c.9,0,1.7,.8,1.7,1.7c0,.9,-.8,1.7,-1.7,1.7c-.9,0,-1.7,-.8,-1.7,-1.7c0,-.9,.8,-1.7,1.7,-1.7Z" class="g1_90"/>
<path d="M181,441.8c-1.2,0,-2.1,-.9,-2.1,-2.1c0,-1.2,.9,-2.1,2.1,-2.1c1.2,0,2.1,.9,2.1,2.1c0,1.2,-.9,2.1,-2.1,2.1m0,-3.3c-.7,0,-1.2,.5,-1.2,1.2c0,.6,.5,1.2,1.2,1.2c.7,0,1.2,-.6,1.2,-1.2c0,-.7,-.5,-1.2,-1.2,-1.2Z" class="gs_90"/>
<path d="M172.8,438c.9,0,1.7,.8,1.7,1.7c0,.9,-.8,1.7,-1.7,1.7c-.9,0,-1.7,-.8,-1.7,-1.7c0,-.9,.8,-1.7,1.7,-1.7Z" class="g1_90"/>
<path d="M172.8,441.8c-1.2,0,-2.1,-.9,-2.1,-2.1c0,-1.2,.9,-2.1,2.1,-2.1c1.2,0,2.1,.9,2.1,2.1c0,1.2,-.9,2.1,-2.1,2.1m0,-3.3c-.7,0,-1.2,.5,-1.2,1.2c0,.6,.5,1.2,1.2,1.2c.7,0,1.2,-.6,1.2,-1.2c0,-.7,-.5,-1.2,-1.2,-1.2Z" class="gs_90"/>
<image clip-path="url(#c7_90)" preserveAspectRatio="none" x="68" y="600" width="238" height="249" xlink:href="img/6.png"/>
<path d="M73.7,610.4l7.1,231.8l219.8,-5.7L293.5,604.7Z" class="g3_90"/>
<image clip-path="url(#c8_90)" preserveAspectRatio="none" x="65" y="596" width="246" height="257" xlink:href="img/7.png"/>
<path d="M70.3,616.1l17,230.4l165,-12.1l52.6,-13.8l-16,-220Z" class="g4_90"/>
<path d="M304.9,820.6l-53.1,14.2l34.7,-28.6Z" class="g5_90"/>
<path d="M462.2,628.2c6,-1.8,10.6,-6.8,11.9,-13m-.5,-8.4c-1.8,-6,-6.8,-10.6,-13,-11.8m-8.4,.4c-6,1.8,-10.6,6.8,-11.8,13.1m.4,8.3c1.8,6,6.8,10.6,13.1,11.8" class="gv_90"/>
<path d="M474.3,613.5c.1,-.6,.1,-1.1,.1,-1.7c0,-.6,0,-1.1,-.1,-1.7M458.9,594.8c-.6,-.1,-1.1,-.1,-1.7,-.1c-.6,0,-1.1,0,-1.7,.1m-15.4,15.3c0,.6,-.1,1.1,-.1,1.7c0,.6,.1,1.1,.1,1.7m15.4,15.4c.6,0,1.1,0,1.7,0c.6,0,1.1,0,1.7,0" class="ga_90"/>
<path d="M441,599C425.9,594.8,372.9,582.4,296.9,587.6" class="gb_90"/>
<path d="M291.9,584c-.1,-1.2,.5,-2.5,2.4,-3.5m6.8,-1.7c1.3,.2,2.6,.7,3.4,2.2" class="gc_90"/>
<path d="M302.2,587c-4.8,4.1,-15.2,10.2,-33.1,5.4" class="gb_90"/>
<path d="M261.8,590.7c-9.4,-1.3,-32.9,-2,-60.6,16.6" class="gc_90"/>
<path d="M445.4,600.3c0,0,-.5,-.2,-1.5,-.5M295.4,587.7c-.5,.1,-1,.1,-1.5,.1c0,0,-.5,-.4,-1,-1.1m2.7,-6.7c.4,-.2,.9,-.3,1.4,-.5c0,0,.6,-.2,1.4,-.4m6.6,3.2c.1,.4,.2,.8,.3,1.3c0,0,-.4,.5,-1,1.2M267.7,592c-.5,-.1,-1,-.3,-1.5,-.4c0,0,-.5,-.2,-1.4,-.4M200,608.1c-.4,.3,-.8,.6,-1.2,.8" class="gd_90"/>
<path d="M200.5,602.3l5,7.2l-11.9,2.7Z" class="ge_90"/>
<image clip-path="url(#c9_90)" x="166" y="609" width="6" height="10" xlink:href="shade/1.png"/>
<image clip-path="url(#ca_90)" x="166" y="583" width="24" height="28" xlink:href="shade/2.png"/>
<image clip-path="url(#cb_90)" x="165" y="585" width="24" height="34" xlink:href="shade/3.png"/>
<image clip-path="url(#cc_90)" x="171" y="581" width="20" height="10" xlink:href="shade/4.png"/>
<image clip-path="url(#cd_90)" x="753" y="620" width="5" height="9" xlink:href="shade/5.png"/>
<image clip-path="url(#ce_90)" x="752" y="593" width="25" height="28" xlink:href="shade/6.png"/>
<image clip-path="url(#cf_90)" x="752" y="595" width="23" height="34" xlink:href="shade/7.png"/>
<image clip-path="url(#cg_90)" x="757" y="591" width="20" height="10" xlink:href="shade/8.png"/>
<path d="M32.1,45.1H9.2m958.3,0h22.9M32.1,1331.3H9.2m958.3,0h22.9M45.1,32.1V9.2m0,1335.1v22.9M954.5,32.1V9.2m0,1335.1v22.9" class="gw_90"/>
<path d="M32.1,45.1H9.2m958.3,0h22.9M32.1,1331.3H9.2m958.3,0h22.9M45.1,32.1V9.2m0,1335.1v22.9M954.5,32.1V9.2m0,1335.1v22.9" class="gx_90"/>
<path d="M27.5,32.1H0m972.1,0h27.5M27.5,1344.3H0m972.1,0h27.5M32.1,27.5V0m0,1348.9v27.5M967.5,27.5V0m0,1348.9v27.5" class="gw_90"/>
<path d="M27.5,32.1H0m972.1,0h27.5M27.5,1344.3H0m972.1,0h27.5M32.1,27.5V0m0,1348.9v27.5M967.5,27.5V0m0,1348.9v27.5" class="gx_90"/>
</svg>