<?xml version="1.0" encoding="UTF-8" standalone="no"?>
<!DOCTYPE svg PUBLIC "-//W3C//DTD SVG 1.1//EN"
"http://www.w3.org/Graphics/SVG/1.1/DTD/svg11.dtd">
<svg viewBox="0 0 999 1376" version="1.1" xmlns="http://www.w3.org/2000/svg" xmlns:xlink="http://www.w3.org/1999/xlink">
<defs>
<clipPath id="c0_346"><path d="M202.5,365.2V266h99.2v99.2Z"/></clipPath>
<clipPath id="c1_346"><path d="M523.8,365.2V266H623v99.2Z"/></clipPath>
<clipPath id="c2_346"><path d="M363.2,365.2V266h99.2v99.2Z"/></clipPath>
<clipPath id="c3_346"><path d="M202.5,588.4V489.2h99.2v99.2Z"/></clipPath>
<clipPath id="c4_346"><path d="M684.3,588.4V489.2h99.3v99.2Z"/></clipPath>
<clipPath id="c5_346"><path d="M523.8,588.4V489.2H623v99.2Z"/></clipPath>
<clipPath id="c6_346"><path d="M363.2,588.4V489.2h99.2v99.2Z"/></clipPath>
<clipPath id="c7_346"><path d="M189.4,1034.9V935.6H298.7v99.3Z"/></clipPath>
<clipPath id="c8_346"><path d="M357.5,1034.9V935.6H466v99.3Z"/></clipPath>
<clipPath id="c9_346"><path d="M524.8,1036.4V935.6H633.3v100.8Z"/></clipPath>
<clipPath id="ca_346"><path d="M679.1,1018.1V941H787.6v77.1Z"/></clipPath>
<clipPath id="cb_346"><path d="M176.6,242l-6.5,-2.1L153.7,226V168.9h72V242Z"/></clipPath>
<clipPath id="cc_346"><path d="M176.6,832l-6.5,-2.1L153.7,816V758.9h72V832Z"/></clipPath>
<style type="text/css"><![CDATA[
.g0_346{
fill: #FEFCF4;
}
.g1_346{
fill: #FFF;
}
.g2_346{
fill: none;
stroke: #6381B7;
stroke-width: 0.763;
}
.g3_346{
fill: none;
stroke: #949698;
stroke-width: 0.381;
}
.g4_346{
fill: none;
stroke: #231F20;
stroke-width: 1.527;
}
.g5_346{
fill: #48484A;
}
.g6_346{
fill: #F0E8F3;
}
.g7_346{
fill: #766FA6;
}
.g8_346{
fill: none;
stroke: #949698;
stroke-width: 0.549;
}
.g9_346{
fill: #6381B7;
}
.ga_346{
fill: none;
stroke: #6381B7;
stroke-width: 0.381;
stroke-dasharray: 2,1;
}
.gb_346{
fill: none;
stroke: #6381B7;
stroke-width: 0.381;
}
.gc_346{
fill: #FCE8B0;
}
.gd_346{
fill: #25408F;
}
.ge_346{
fill: #00BAF1;
}
.gf_346{
fill: #332D2C;
}
.gg_346{
fill: #D9DFF0;
}
.gh_346{
fill: #F27C85;
}
.gi_346{
fill: #7DD3F6;
}
.gj_346{
fill: none;
stroke: #FFF;
stroke-width: 1.909;
stroke-miterlimit: 10;
}
.gk_346{
fill: none;
stroke: #000;
stroke-width: 0.381;
stroke-miterlimit: 10;
}
]]></style>
</defs>
<path d="M32.1,1344.3H954.5V32.1H32.1V1344.3Z" class="g0_346"/>
<path d="M145.1,849.2c0,0,-13,0,-13,13v298.4c0,0,0,12.9,13,12.9H832.9c0,0,13,0,13,-12.9V862.2c0,0,0,-13,-13,-13Z" class="g1_346"/>
<path d="M145.1,849.2c0,0,-13,0,-13,13v298.4c0,0,0,12.9,13,12.9H832.9c0,0,13,0,13,-12.9V862.2c0,0,0,-13,-13,-13H145.1Z" class="g2_346"/>
<path d="M148.7,134c0,0,-18.3,0,-18.3,18.4v550c0,0,0,18.3,18.3,18.3H825.9c0,0,18.3,0,18.3,-18.3V134Z" class="g1_346"/>
<path d="M148.7,134c0,0,-18.3,0,-18.3,18.4v550c0,0,0,18.3,18.3,18.3H825.9c0,0,18.3,0,18.3,-18.3V134H148.7Z" class="g2_346"/>
<path d="M187.4,365.2H316.9V266H187.4v99.2Z" class="g1_346"/>
<image clip-path="url(#c0_346)" preserveAspectRatio="none" x="203" y="266" width="99" height="99" xlink:href="img/1.jpg"/>
<path d="M187.4,365.2H316.9V266H187.4v99.2Z" class="g3_346"/>
<path d="M669.2,365.2H798.7V266H669.2v99.2Z" class="g1_346"/>
<image preserveAspectRatio="none" x="684" y="266" width="100" height="85" xlink:href="img/2.jpg"/>
<path d="M669.2,365.2H798.7V266H669.2v99.2Z" class="g3_346"/>
<path d="M508.6,365.2H638.1V266H508.6v99.2Z" class="g1_346"/>
<image clip-path="url(#c1_346)" preserveAspectRatio="none" x="524" y="266" width="99" height="99" xlink:href="img/3.jpg"/>
<path d="M508.6,365.2H638.1V266H508.6v99.2Z" class="g3_346"/>
<path d="M348,365.2H477.5V266H348v99.2Z" class="g1_346"/>
<image clip-path="url(#c2_346)" preserveAspectRatio="none" x="363" y="266" width="99" height="99" xlink:href="img/4.jpg"/>
<path d="M348,365.2H477.5V266H348v99.2Z" class="g3_346"/>
<path d="M187.4,588.4H316.9V489.2H187.4v99.2Z" class="g1_346"/>
<image clip-path="url(#c3_346)" preserveAspectRatio="none" x="203" y="489" width="99" height="99" xlink:href="img/5.jpg"/>
<path d="M187.4,588.4H316.9V489.2H187.4v99.2Z" class="g3_346"/>
<path d="M669.2,588.4H798.7V489.2H669.2v99.2Z" class="g1_346"/>
<image clip-path="url(#c4_346)" preserveAspectRatio="none" x="684" y="489" width="100" height="99" xlink:href="img/6.jpg"/>
<path d="M669.2,588.4H798.7V489.2H669.2v99.2Z" class="g3_346"/>
<path d="M508.6,588.4H638.1V489.2H508.6v99.2Z" class="g1_346"/>
<image clip-path="url(#c5_346)" preserveAspectRatio="none" x="524" y="489" width="99" height="99" xlink:href="img/7.jpg"/>
<path d="M508.6,588.4H638.1V489.2H508.6v99.2Z" class="g3_346"/>
<path d="M348,588.4H477.5V489.2H348v99.2Z" class="g1_346"/>
<image clip-path="url(#c6_346)" preserveAspectRatio="none" x="363" y="489" width="99" height="99" xlink:href="img/8.jpg"/>
<path d="M348,588.4H477.5V489.2H348v99.2Z" class="g3_346"/>
<path d="M194.9,433.5c-.3,0,-.5,.1,-.7,.2c-.1,.2,-.2,.5,-.2,.7c0,.3,.1,.5,.2,.7c.2,.2,.4,.3,.7,.3c.3,0,.5,-.1,.7,-.3c.1,-.2,.2,-.4,.2,-.7c0,-.2,-.1,-.5,-.2,-.7c-.2,-.1,-.4,-.2,-.7,-.2Zm0,24.4c-.3,0,-.5,.1,-.7,.3c-.1,.2,-.2,.4,-.2,.7c0,.2,.1,.5,.2,.6c.2,.2,.4,.3,.7,.3c.3,0,.5,-.1,.7,-.3c.1,-.1,.2,-.4,.2,-.6c0,-.3,-.1,-.5,-.2,-.7c-.2,-.2,-.4,-.3,-.7,-.3Zm0,198.8c-.3,0,-.5,0,-.7,.2c-.1,.2,-.2,.4,-.2,.7c0,.3,.1,.5,.2,.7c.2,.2,.4,.3,.7,.3c.3,0,.5,-.1,.7,-.3c.1,-.2,.2,-.4,.2,-.7c0,-.3,-.1,-.5,-.2,-.7c-.2,-.2,-.4,-.2,-.7,-.2Zm0,28.7c-.3,0,-.5,.1,-.7,.3c-.1,.2,-.2,.4,-.2,.7c0,.3,.1,.5,.2,.7c.2,.2,.4,.2,.7,.2c.3,0,.5,0,.7,-.2c.1,-.2,.2,-.4,.2,-.7c0,-.3,-.1,-.5,-.2,-.7c-.2,-.2,-.4,-.3,-.7,-.3Z" class="g4_346"/>
<path d="M186.7,1111.2c0,0,-4.3,0,-4.3,4.3v14.8c0,0,0,4.3,4,5.7l52.5,18.6c0,0,4.1,1.4,4.1,-2.9v-36.2c0,0,0,-4.3,-4.3,-4.3Z" class="g5_346"/>
<path d="M207.8,1098.2c0,0,-13,0,-13,13v30.6c0,0,0,13,13,13H813.2c0,0,13,0,13,-13v-30.6c0,0,0,-13,-13,-13Z" class="g6_346"/>
<path d="M186.7,1109c0,0,-4.3,0,-4.3,4.4v17.3c0,0,0,4.3,4.3,4.3H224c0,0,4.3,0,4.3,-4.3v-17.3c0,0,0,-4.4,-4.3,-4.4Z" class="g7_346"/>
<image clip-path="url(#c7_346)" preserveAspectRatio="none" x="189" y="924" width="110" height="110" xlink:href="img/9.jpg"/>
<path d="M190.1,1085.5H310.6v-36.8H190.1v36.8Z" class="g1_346"/>
<path d="M190.1,1085.5H310.6v-36.8H190.1v36.8Z" class="g8_346"/>
<image clip-path="url(#c8_346)" preserveAspectRatio="none" x="356" y="924" width="111" height="110" xlink:href="img/10.jpg"/>
<path d="M353.5,1085.5H474v-36.8H353.5v36.8Z" class="g1_346"/>
<path d="M353.5,1085.5H474v-36.8H353.5v36.8Z" class="g8_346"/>
<image clip-path="url(#c9_346)" preserveAspectRatio="none" x="524" y="924" width="110" height="112" xlink:href="img/11.jpg"/>
<path d="M517,1085.5H637.5v-36.8H517v36.8Z" class="g1_346"/>
<path d="M517,1085.5H637.5v-36.8H517v36.8Z" class="g8_346"/>
<image clip-path="url(#ca_346)" preserveAspectRatio="none" x="679" y="925" width="108" height="93" xlink:href="img/12.jpg"/>
<path d="M678.3,1085.5H798.8v-36.8H678.3v36.8Z" class="g1_346"/>
<path d="M678.3,1085.5H798.8v-36.8H678.3v36.8Z" class="g8_346"/>
<path d="M301,989.5h19.9V970.4H301v19.1Z" class="g1_346"/>
<path d="M194.1,1079.6h63.8v-24.3H194.1v24.3Z" class="g1_346"/>
<path d="M358,1079.6h63.8v-24.3H358v24.3Z" class="g1_346"/>
<path d="M522.8,1079.6h63.8v-24.3H522.8v24.3Z" class="g1_346"/>
<path d="M684.3,1079.6h63.9v-24.3H684.3v24.3Z" class="g1_346"/>
<path d="M417.9,1190.9c0,0,-4.3,0,-4.3,4.3V1206c0,0,0,4.4,4.3,4.4h30.3c0,0,4.3,0,4.3,-4.4v-10.8c0,0,0,-4.3,-4.3,-4.3Z" class="g9_346"/>
<path d="M404.7,1183.4v34.8m1.4,1h439m1,-1.4V1183m-1.4,-1h-439" class="ga_346"/>
<path d="M404.7,1218.6v.6h.6m440.2,0h.6v-.6m0,-36v-.6h-.6m-440.2,0h-.6v.6" class="gb_346"/>
<path d="M209.2,197c0,0,-13,0,-13,13v21.7c0,0,0,13,13,13h602c0,0,13,0,13,-13V210c0,0,0,-13,-13,-13Z" class="gc_346"/>
<image clip-path="url(#cb_346)" preserveAspectRatio="none" x="152" y="167" width="75" height="77" xlink:href="img/13.png"/>
<path d="M204,237.3c0,0,-26.8,11.3,-51.1,-12.8c0,0,15.2,25.3,49.3,24c0,0,24.8,.3,20.3,-10.1c0,0,1.2,-4.5,-18.5,-1.1Z" class="gc_346"/>
<path d="M209.2,787c0,0,-13,0,-13,13v21.7c0,0,0,13,13,13H830.8c0,0,13,0,13,-13V800c0,0,0,-13,-13,-13Z" class="gc_346"/>
<image clip-path="url(#cc_346)" preserveAspectRatio="none" x="152" y="757" width="75" height="77" xlink:href="img/14.png"/>
<path d="M204,827.3c0,0,-26.8,11.3,-51.1,-12.8c0,0,15.2,25.4,49.3,24c0,0,24.8,.3,20.3,-10.1c0,0,1.2,-4.5,-18.5,-1.1Z" class="gc_346"/>
<path d="M130,126.7v22.2l11.7,10.3V137Z" class="gd_346"/>
<path d="M130,109.9v39H827.8c0,0,16.8,0,16.8,-16.8v-5.4c0,0,0,-16.8,-16.8,-16.8Z" class="g9_346"/>
<path d="M188,121.3l-6.5,-6.5L160.3,136l6.5,6.5Z" class="ge_346"/>
<path d="M166.8,143c.1,0,.2,0,.3,-.1l21.2,-21.2c.1,-.1,.2,-.3,.2,-.4c0,-.1,-.1,-.3,-.2,-.4l-6.4,-6.4c-.2,-.2,-.6,-.2,-.8,0l-21.2,21.2c-.1,.1,-.1,.2,-.1,.3c0,.2,0,.3,.1,.4l6.5,6.5c.1,.1,.2,.1,.4,.1m20.4,-21.7l-20.4,20.5L161,136l20.5,-20.4Z" class="gf_346"/>
<path d="M188,121.3l-6.5,-6.5l2.1,-2.1l6.5,6.5Z" class="gg_346"/>
<path d="M188,121.8c.1,0,.2,0,.3,-.1l2.2,-2.1c.1,-.1,.1,-.3,.1,-.4c0,-.2,0,-.3,-.1,-.4L184,112.3c-.2,-.2,-.5,-.2,-.7,0l-2.2,2.2c-.1,0,-.1,.2,-.1,.3c0,.2,0,.3,.1,.4l6.5,6.5c.1,.1,.2,.1,.4,.1m1.4,-2.6l-1.4,1.4l-5.8,-5.8l1.4,-1.4Z" class="gf_346"/>
<path d="M193.7,115.6l-6.5,-6.5l-3.6,3.6l6.5,6.5Z" class="gh_346"/>
<path d="M190.1,119.7c.1,0,.3,0,.4,-.1l3.6,-3.7c.2,-.2,.2,-.5,0,-.7l-6.5,-6.5c-.2,-.2,-.5,-.2,-.7,0l-3.6,3.6c-.3,.2,-.3,.6,0,.8l6.4,6.5c.1,.1,.3,.1,.4,.1m2.9,-4.1l-2.9,2.8l-5.7,-5.7l2.8,-2.9Z" class="gf_346"/>
<path d="M155.7,147.2L160.3,136l6.5,6.5Z" class="g1_346"/>
<path d="M155.7,147.7c0,0,.1,0,.2,-.1L167,143c.1,-.1,.2,-.2,.3,-.4c0,-.2,0,-.3,-.2,-.5l-6.4,-6.4c-.2,-.2,-.3,-.2,-.5,-.2c-.2,.1,-.3,.2,-.4,.3l-4.6,11.1c-.1,.2,-.1,.5,.1,.6c.1,.1,.2,.2,.4,.2m10.1,-5.4l-9.2,3.9l3.9,-9.2Z" class="gf_346"/>
<path d="M155.7,147.2l2.2,-5.4l3.1,3.1Z" class="gf_346"/>
<path d="M155.7,147.7c0,0,.1,0,.2,-.1l5.3,-2.2c.2,-.1,.3,-.2,.3,-.4c.1,-.2,0,-.3,-.1,-.5l-3.1,-3.1c-.2,-.1,-.3,-.2,-.5,-.1c-.2,0,-.3,.1,-.4,.3l-2.2,5.3c-.1,.2,-.1,.5,.1,.6c.1,.1,.2,.2,.4,.2m4.4,-3l-3.5,1.5l1.5,-3.5Z" class="gf_346"/>
<path d="M186.2,119.5l-2.9,-2.9L162,137.8l3,3Z" class="gi_346"/>
<path d="M165,141.3c.1,0,.3,-.1,.4,-.2l21.2,-21.2c.1,-.1,.1,-.2,.1,-.4c0,-.1,0,-.2,-.1,-.3l-3,-3c-.2,-.2,-.5,-.2,-.7,0l-21.2,21.2c-.1,.1,-.2,.3,-.2,.4c0,.1,.1,.3,.2,.4l2.9,2.9c.1,.1,.3,.2,.4,.2m20.5,-21.8L165,140l-2.2,-2.2l20.5,-20.5Z" class="gf_346"/>
<path d="M32.1,45.1H9.2m958.3,0h22.9M32.1,1331.3H9.2m958.3,0h22.9M45.1,32.1V9.2m0,1335.1v22.9M954.5,32.1V9.2m0,1335.1v22.9" class="gj_346"/>
<path d="M32.1,45.1H9.2m958.3,0h22.9M32.1,1331.3H9.2m958.3,0h22.9M45.1,32.1V9.2m0,1335.1v22.9M954.5,32.1V9.2m0,1335.1v22.9" class="gk_346"/>
<path d="M27.5,32.1H0m972.1,0h27.5M27.5,1344.3H0m972.1,0h27.5M32.1,27.5V0m0,1348.9v27.5M967.5,27.5V0m0,1348.9v27.5" class="gj_346"/>
<path d="M27.5,32.1H0m972.1,0h27.5M27.5,1344.3H0m972.1,0h27.5M32.1,27.5V0m0,1348.9v27.5M967.5,27.5V0m0,1348.9v27.5" class="gk_346"/>
</svg>