<?xml version="1.0" encoding="UTF-8" standalone="no"?>
<!DOCTYPE svg PUBLIC "-//W3C//DTD SVG 1.1//EN"
"http://www.w3.org/Graphics/SVG/1.1/DTD/svg11.dtd">
<svg viewBox="0 0 999 1376" version="1.1" xmlns="http://www.w3.org/2000/svg" xmlns:xlink="http://www.w3.org/1999/xlink">
<defs>
<clipPath id="c0_55"><path d="M32.1,1344.3V32.1H967.5V1344.3Z"/></clipPath>
<clipPath id="c1_55"><path d="M203,294.8l-6.5,-2.1l-14,-11.2V220.6h62.7v74.2Z"/></clipPath>
<clipPath id="c2_55"><path d="M203.1,759.8l-6.5,-2l-14,-11.2V685.7h62.7v74.1Z"/></clipPath>
<clipPath id="c3_55"><path d="M203,1005.3l-6.5,-2.1L182.5,992V931.1h62.7v74.2Z"/></clipPath>
<clipPath id="c4_55"><path d="M203.3,1246.8l-6.5,-2l-14.1,-11.2v-60.9h62.7v74.1Z"/></clipPath>
<style type="text/css"><![CDATA[
.g0_55{
fill: #FFFDEA;
}
.g1_55{
fill: #BCE4EA;
}
.g2_55{
fill: #BCBEC0;
}
.g3_55{
fill: #00AABD;
}
.g4_55{
fill: #FCDCBA;
}
.g5_55{
fill: #D8CCE4;
}
.g6_55{
fill: #FFF;
}
.g7_55{
fill: none;
stroke: #FFF;
stroke-width: 0.305;
stroke-miterlimit: 10;
}
.g8_55{
fill: none;
stroke: #6D6F71;
stroke-width: 0.305;
stroke-miterlimit: 10;
}
.g9_55{
fill: none;
stroke: #6D6F71;
stroke-width: 0.305;
stroke-miterlimit: 10;
stroke-dasharray: 2,2;
}
.ga_55{
fill: #DED3E8;
}
.gb_55{
fill: none;
stroke: #6D6F71;
stroke-width: 0.152;
stroke-miterlimit: 10;
}
.gc_55{
fill: none;
stroke: #D1232A;
stroke-width: 0.432;
}
.gd_55{
fill: none;
stroke: #FFF;
stroke-width: 1.909;
stroke-miterlimit: 10;
}
.ge_55{
fill: none;
stroke: #000;
stroke-width: 0.381;
stroke-miterlimit: 10;
}
]]></style>
</defs>
<g clip-path="url(#c0_55)">
<path d="M-877.3,1344.3H967.5V32.1H-877.3V1344.3Z" class="g0_55"/>
<path d="M-877.3,179.3H967.5V32.1H-877.3V179.3Z" class="g1_55"/>
<path d="M967.5,177.2H-877.3v-5.4h736.6c43.1,0,53.1,-37.9,115.3,-37.9H967.5Z" class="g2_55"/>
<path d="M967.5,183.7H-877.3v-9.8h736.6c43.1,0,53.1,-33.6,115.3,-33.6H967.5Z" class="g3_55"/>
</g>
<path d="M235.6,223.8c0,0,-13,0,-13,13v47.6c0,0,0,13,13,13H854.7c0,0,13,0,13,-13V236.8c0,0,0,-13,-13,-13Z" class="g4_55"/>
<image clip-path="url(#c1_55)" preserveAspectRatio="none" x="182" y="220" width="63" height="76" xlink:href="img/1.png"/>
<path d="M230.4,290.1c0,0,-26.8,11.3,-51.1,-12.8c0,0,15.2,25.3,49.3,24c0,0,24.8,.3,20.3,-10.2c0,0,1.2,-4.4,-18.5,-1Z" class="g4_55"/>
<path d="M335.2,442.7H460.8V312.8H335.2V442.7Z" class="g5_55"/>
<path d="M460.8,312.8H586.4v43.3H460.8V312.8Zm125.6,0H712v43.3H586.4V312.8Z" class="g6_55"/>
<path d="M460.8,356.1H586.4v43.3H460.8V356.1Zm125.6,0H712v43.3H586.4V356.1ZM460.8,399.4H586.4v43.3H460.8V399.4Zm125.6,0H712v43.3H586.4V399.4Z" class="g6_55"/>
<path d="M461,356.1H586.4m0,0H711.9" class="g7_55"/>
<path d="M335.1,312.8H460.8M335.2,356.1V312.9m125.6,-.1H586.4M460.8,356.1V312.9m125.6,-.1H712.2M586.4,355.9v-43M712,356.1V312.9M335.2,399.4V356.1m125.6,43.1V356.1m125.6,43.1v-43m125.6,43V356.1M335.2,442.5V399.4m125.5,0H586.4M460.8,442.5v-43m125.6,-.1H712.2M586.4,442.5v-43m125.6,43v-43M335.1,442.7H460.8m0,0H586.4m0,0H712.2" class="g8_55"/>
<path d="M462.8,356.1H585.2" class="g9_55"/>
<path d="M461,356.1h.6m124.2,0h.6" class="g8_55"/>
<path d="M588.3,356.1H710.6" class="g9_55"/>
<path d="M586.4,356.1h.6m124.2,0h.7" class="g8_55"/>
<path d="M192.5,456H357v43.3H192.5V456Zm0,43.3H357v43.3H192.5V499.3Zm0,43.3H357v43.3H192.5V542.6Zm0,43.3H357v43.3H192.5V585.9Zm0,43.3H357v43.3H192.5V629.2Z" class="ga_55"/>
<path d="M357,456h73v43.3H357V456Zm73,0h73v43.3H430V456Zm73,0h72.9v43.3H503V456Zm72.9,0h73v43.3h-73V456Zm73,0h72.9v43.3H648.9V456Zm72.9,0h73v43.3h-73V456Zm73,0h73v43.3h-73V456ZM357,499.3h73v43.3H357V499.3Zm73,0h73v43.3H430V499.3Zm73,0h72.9v43.3H503V499.3Zm72.9,0h73v43.3h-73V499.3Zm73,0h72.9v43.3H648.9V499.3Zm72.9,0h73v43.3h-73V499.3Zm73,0h73v43.3h-73V499.3ZM357,542.6h73v43.3H357V542.6Zm73,0h73v43.3H430V542.6Zm73,0h72.9v43.3H503V542.6Zm72.9,0h73v43.3h-73V542.6Zm73,0h72.9v43.3H648.9V542.6Zm72.9,0h73v43.3h-73V542.6Zm73,0h73v43.3h-73V542.6ZM357,585.9h73v43.3H357V585.9Zm73,0h73v43.3H430V585.9Zm73,0h72.9v43.3H503V585.9Zm72.9,0h73v43.3h-73V585.9Zm73,0h72.9v43.3H648.9V585.9Zm72.9,0h73v43.3h-73V585.9Zm73,0h73v43.3h-73V585.9ZM357,629.2h73v43.3H357V629.2Zm73,0h73v43.3H430V629.2Zm73,0h72.9v43.3H503V629.2Zm72.9,0h73v43.3h-73V629.2Zm73,0h72.9v43.3H648.9V629.2Zm72.9,0h73v43.3h-73V629.2Zm73,0h73v43.3h-73V629.2Z" class="g6_55"/>
<path d="M503,499.2v-43" class="g7_55"/>
<path d="M357,456h73m0,0h73m-73,43.2v-43m73,-.2h72.9m0,0h73m-73,43.2v-43m73,-.2h72.9m-72.9,43.2v-43m72.9,-.2h73m-73,43.2v-43m73,-.2h73.1m-73.1,43.2v-43m73,43v-43M357,499.3h73m0,0h73m-73,43.2v-43m73,-.2h72.9M503,542.5v-43m72.9,-.2h73m-73,43.2v-43m73,-.2h72.9m-72.9,43.2v-43m72.9,-.2h73m-73,43.2v-43m73,-.2h73.1m-73.1,43.2v-43m73,43v-43M357,542.6h73m0,0h73m-73,43.2v-43m73,-.2h72.9M503,585.8v-43m72.9,-.2h73m-73,43.2v-43m73,-.2h72.9m-72.9,43.2v-43m72.9,-.2h73m-73,43.2v-43m73,-.2h73.1m-73.1,43.2v-43m73,43v-43M357,585.9h73m0,0h73m-73,43.2v-43m73,-.2h72.9M503,629.1v-43m72.9,-.2h73m-73,43.2v-43m73,-.2h72.9m-72.9,43.2v-43m72.9,-.2h73m-73,43.2v-43m73,-.2h73.1m-73.1,43.2v-43m73,43v-43M357,629.2h73m0,0h73m-73,43.2v-43m73,-.2h72.9M503,672.4v-43m72.9,-.2h73m-73,43.2v-43m73,-.2h72.9m-72.9,43.2v-43m72.9,-.2h73m-73,43.2v-43m73,-.2h73.1m-73.1,43.2v-43m73,43v-43M357,672.5h73m0,0h73m0,0h72.9m0,0h73m0,0h72.9m0,0h73m0,0h73.1" class="g8_55"/>
<path d="M502.8,499.2v-43m.3,43v-43" class="gb_55"/>
<path d="M192.3,456H357M192.5,499.2v-43m164.5,43v-43M192.3,499.3H357M192.5,542.5v-43m164.5,43v-43M192.3,542.6H357M192.5,585.8v-43m164.5,43v-43M192.3,585.9H357M192.5,629.1v-43m164.5,43v-43M192.3,629.2H357M192.5,672.4v-43m164.5,43v-43M192.3,672.5H357" class="g8_55"/>
<path d="M235.8,714.8c0,0,-13,0,-13,13v21.7c0,0,0,13,13,13h619c0,0,13,0,13,-13V727.8c0,0,0,-13,-13,-13Z" class="g4_55"/>
<image clip-path="url(#c2_55)" preserveAspectRatio="none" x="183" y="685" width="62" height="76" xlink:href="img/2.png"/>
<path d="M230.6,755.1c0,0,-26.9,11.3,-51.1,-12.7c0,0,15.1,25.3,49.2,23.9c0,0,24.8,.4,20.3,-10.1c0,0,1.2,-4.5,-18.4,-1.1Z" class="g4_55"/>
<path d="M461.9,931.2H628.6V835.9H461.9v95.3Z" class="g6_55"/>
<path d="M235.6,960.3c0,0,-13,0,-13,13v21.6c0,0,0,13,13,13H854.7c0,0,13,0,13,-13V973.3c0,0,0,-13,-13,-13Z" class="g4_55"/>
<image clip-path="url(#c3_55)" preserveAspectRatio="none" x="182" y="930" width="63" height="77" xlink:href="img/3.png"/>
<path d="M230.4,1000.6c0,0,-26.8,11.3,-51.1,-12.8c0,0,15.2,25.3,49.3,24c0,0,24.8,.3,20.3,-10.2c0,0,1.2,-4.4,-18.5,-1Z" class="g4_55"/>
<path d="M361.2,1029.4H473.8v69.3H361.2v-69.3Zm112.6,0H586.4v69.3H473.8v-69.3Zm112.6,0H699v69.3H586.4v-69.3Z" class="g6_55"/>
<path d="M361.1,1098.7H473.8m0,0H586.4m0,0H699.2" class="g7_55"/>
<path d="M361.1,1029.4H473.8m-112.6,69.1v-69m112.6,-.1H586.4m-112.6,69.1v-69m112.6,-.1H699.2m-112.8,69.1v-69m112.6,69v-69" class="g8_55"/>
<path d="M362.9,1098.7H472.6" class="g9_55"/>
<path d="M361.1,1098.7h.6m111.5,0h.6" class="g8_55"/>
<path d="M475.7,1098.7H585.2" class="g9_55"/>
<path d="M473.8,1098.7h.6m111.4,0h.6" class="g8_55"/>
<path d="M588.3,1098.7H697.9" class="g9_55"/>
<path d="M586.4,1098.7h.6m111.6,0h.6" class="g8_55"/>
<path d="M248.6,1103.3H361.2v69.3H248.6v-69.3Zm112.6,0H473.8v69.3H361.2v-69.3Zm112.6,0H586.4v69.3H473.8v-69.3Zm112.6,0H699v69.3H586.4v-69.3Zm112.6,0H811.6v69.3H699v-69.3Z" class="g6_55"/>
<path d="M248.5,1172.6H361.2m0,0H473.8m0,0H586.4m0,0H699m0,0H811.8" class="g7_55"/>
<path d="M248.5,1103.3H361.2m-112.6,69.2v-69m112.6,-.2H473.8m-112.6,69.2v-69m112.6,-.2H586.4m-112.6,69.2v-69m112.6,-.2H699m-112.6,69.2v-69m112.6,-.2H811.8M699,1172.5v-69m112.6,69v-69" class="g8_55"/>
<path d="M250.3,1172.6H360" class="g9_55"/>
<path d="M248.5,1172.6h.6m111.5,0h.6" class="g8_55"/>
<path d="M363.1,1172.6H472.6" class="g9_55"/>
<path d="M361.2,1172.6h.6m111.4,0h.6" class="g8_55"/>
<path d="M475.7,1172.6H585.2" class="g9_55"/>
<path d="M473.8,1172.6h.6m111.4,0h.6" class="g8_55"/>
<path d="M588.3,1172.6H697.8" class="g9_55"/>
<path d="M586.4,1172.6h.6m111.4,0h.6" class="g8_55"/>
<path d="M700.9,1172.6H810.5" class="g9_55"/>
<path d="M699,1172.6h.6m111.6,0h.6" class="g8_55"/>
<path d="M235.9,1201.8c0,0,-13,0,-13,13v21.7c0,0,0,13,13,13h619c0,0,13,0,13,-13v-21.7c0,0,0,-13,-13,-13Z" class="g4_55"/>
<image clip-path="url(#c4_55)" preserveAspectRatio="none" x="183" y="1172" width="62" height="76" xlink:href="img/4.png"/>
<path d="M230.7,1242.1c0,0,-26.9,11.3,-51.1,-12.8c0,0,15.1,25.4,49.3,24c0,0,24.7,.4,20.2,-10.1c0,0,1.2,-4.5,-18.4,-1.1Z" class="g4_55"/>
<path d="M553.1,916.2c2.7,0,4.9,-3.9,4.9,-8.7c0,-4.8,-2.2,-8.6,-4.9,-8.6c-2.7,0,-4.9,3.8,-4.9,8.6c0,4.8,2.2,8.7,4.9,8.7Z" class="gc_55"/>
<path d="M32.1,45.1H9.2m958.3,0h22.9M32.1,1331.3H9.2m958.3,0h22.9M45.1,32.1V9.2m0,1335.1v22.9M954.5,32.1V9.2m0,1335.1v22.9" class="gd_55"/>
<path d="M32.1,45.1H9.2m958.3,0h22.9M32.1,1331.3H9.2m958.3,0h22.9M45.1,32.1V9.2m0,1335.1v22.9M954.5,32.1V9.2m0,1335.1v22.9" class="ge_55"/>
<path d="M27.5,32.1H0m972.1,0h27.5M27.5,1344.3H0m972.1,0h27.5M32.1,27.5V0m0,1348.9v27.5M967.5,27.5V0m0,1348.9v27.5" class="gd_55"/>
<path d="M27.5,32.1H0m972.1,0h27.5M27.5,1344.3H0m972.1,0h27.5M32.1,27.5V0m0,1348.9v27.5M967.5,27.5V0m0,1348.9v27.5" class="ge_55"/>
</svg>