<?xml version="1.0" encoding="UTF-8" standalone="no"?>
<!DOCTYPE svg PUBLIC "-//W3C//DTD SVG 1.1//EN"
"http://www.w3.org/Graphics/SVG/1.1/DTD/svg11.dtd">
<svg viewBox="0 0 999 1376" version="1.1" xmlns="http://www.w3.org/2000/svg" xmlns:xlink="http://www.w3.org/1999/xlink">
<defs>
<clipPath id="c0_115"><path d="M32.1,1344.3V32.1H967.5V1344.3Z"/></clipPath>
<clipPath id="c1_115"><path d="M239.9,502.5V331.3H787V502.5Z"/></clipPath>
<clipPath id="c2_115"><path d="M198.2,323.9l-6.5,-2.1L175.3,307.9V250.8h72v73.1Z"/></clipPath>
<clipPath id="c3_115"><path d="M171.1,1035.7V902.8h191v132.9Z"/></clipPath>
<clipPath id="c4_115"><path d="M208.1,823.7l-6.5,-2.1L185.2,807.7V750.6h72v73.1Z"/></clipPath>
<clipPath id="c5_115"><path d="M658.6,177V59h200V177Z"/></clipPath>
<style type="text/css"><![CDATA[
.g0_115{
fill: #FEFCF4;
}
.g1_115{
fill: #FFF;
}
.g2_115{
fill: none;
stroke: #6381B7;
stroke-width: 0.763;
}
.g3_115{
fill: #F6E2CF;
}
.g4_115{
fill: #FCE8B0;
}
.g5_115{
fill: #48484A;
}
.g6_115{
fill: #E1E0ED;
}
.g7_115{
fill: #766FA6;
}
.g8_115{
fill: none;
stroke: #231F20;
stroke-width: 0.305;
stroke-miterlimit: 10;
}
.g9_115{
fill: #6381B7;
}
.ga_115{
fill: none;
stroke: #6381B7;
stroke-width: 0.381;
stroke-dasharray: 2,1;
}
.gb_115{
fill: none;
stroke: #6381B7;
stroke-width: 0.381;
}
.gc_115{
fill: #2E6E51;
}
.gd_115{
fill: #BCBEC0;
}
.ge_115{
fill: #EE314A;
}
.gf_115{
fill: #25408F;
}
.gg_115{
fill: #00BAF1;
}
.gh_115{
fill: #332D2C;
}
.gi_115{
fill: #D9DFF0;
}
.gj_115{
fill: #F27C85;
}
.gk_115{
fill: #7DD3F6;
}
.gl_115{
fill: none;
stroke: #00ABE5;
stroke-width: 2.291;
}
.gm_115{
fill: #3D3B39;
}
.gn_115{
fill: #E5E9B7;
}
.go_115{
fill: #61C7CB;
}
.gp_115{
fill: none;
stroke: #00ABE5;
stroke-width: 1.527;
stroke-linecap: round;
stroke-linejoin: round;
stroke-dasharray: 0,5;
}
.gq_115{
fill: none;
stroke: #00ABE5;
stroke-width: 1.527;
stroke-linecap: round;
stroke-linejoin: round;
}
.gr_115{
fill: none;
stroke: #FFF;
stroke-width: 1.909;
stroke-miterlimit: 10;
}
.gs_115{
fill: none;
stroke: #000;
stroke-width: 0.381;
stroke-miterlimit: 10;
}
]]></style>
</defs>
<path d="M45.1,1344.3H967.5V32.1H45.1V1344.3Z" class="g0_115"/>
<path clip-path="url(#c0_115)" d="M-877.3,1344.3H45.1V32.1H-877.3V1344.3Z" class="g0_115"/>
<path d="M172.6,224.6c0,0,-18.4,0,-18.4,18.4V716.2c0,0,0,18.4,18.4,18.4H849.7c0,0,18.3,0,18.3,-18.4V224.6Z" class="g1_115"/>
<path d="M172.6,224.6c0,0,-18.4,0,-18.4,18.4V716.2c0,0,0,18.4,18.4,18.4H849.7c0,0,18.3,0,18.3,-18.4V224.6H172.6Z" class="g2_115"/>
<path d="M520.6,218.6h.1l-.1,-.7Z" class="g3_115"/>
<image clip-path="url(#c1_115)" preserveAspectRatio="none" x="238" y="330" width="551" height="174" xlink:href="img/1.png"/>
<image preserveAspectRatio="none" x="236" y="613" width="566" height="86" xlink:href="img/2.png"/>
<path d="M513.5,353.4h36.1V333.9H513.5v19.5Z" class="g1_115"/>
<path d="M261.5,421.8h22.2V411.5H261.5v10.3Z" class="g1_115"/>
<path d="M692.9,422.1h22.2V411.7H692.9v10.4Z" class="g1_115"/>
<path d="M230.9,279.8c0,0,-13,0,-13,13v21.6c0,0,0,13,13,13H832.8c0,0,13,0,13,-13V292.8c0,0,0,-13,-13,-13Z" class="g4_115"/>
<image clip-path="url(#c2_115)" preserveAspectRatio="none" x="174" y="249" width="75" height="77" xlink:href="img/3.png"/>
<path d="M225.7,319.2c0,0,-26.9,11.3,-51.1,-12.8c0,0,15.1,25.4,49.2,24c0,0,24.8,.4,20.3,-10.1c0,0,1.2,-4.5,-18.4,-1.1Z" class="g4_115"/>
<path d="M167.2,834.9c0,0,-13,0,-13,13V1065c0,0,0,13,13,13H855c0,0,13,0,13,-13V847.9c0,0,0,-13,-13,-13Z" class="g1_115"/>
<path d="M167.2,834.9c0,0,-13,0,-13,13V1065c0,0,0,13,13,13H855c0,0,13,0,13,-13V847.9c0,0,0,-13,-13,-13H167.2Z" class="g2_115"/>
<path d="M374.8,912.6c0,0,-4.4,0,-4.4,4.3v14.7c0,0,0,4.4,4.1,5.8L427,955.9c0,0,4,1.5,4,-2.8V916.9c0,0,0,-4.3,-4.3,-4.3Z" class="g5_115"/>
<path d="M395.9,899.6c0,0,-13,0,-13,13V949c0,0,0,13,13,13H791c0,0,13,0,13,-13V912.6c0,0,0,-13,-13,-13Z" class="g6_115"/>
<path d="M374.8,910.4c0,0,-4.4,0,-4.4,4.3v17.4c0,0,0,4.3,4.4,4.3H412c0,0,4.4,0,4.4,-4.3V914.7c0,0,0,-4.3,-4.4,-4.3Z" class="g7_115"/>
<image clip-path="url(#c3_115)" preserveAspectRatio="none" x="171" y="902" width="191" height="159" xlink:href="img/4.jpg"/>
<path d="M180.2,927h53.2V913.5H180.2V927Z" class="g1_115"/>
<path d="M468.9,953.7h80.2m-137.3,54.2H579.4m-167.6,51.4H579.4m64.1,-51.4H811.1m-167.6,51.4H811.1" class="g8_115"/>
<path d="M393.6,1094.9c0,0,-4.3,0,-4.3,4.4v10.8c0,0,0,4.3,4.3,4.3H424c0,0,4.3,0,4.3,-4.3v-10.8c0,0,0,-4.4,-4.3,-4.4Z" class="g9_115"/>
<path d="M380.5,1086.1v37.5m1.3,1h485m.9,-1.3v-37.6m-1.3,-1h-485" class="ga_115"/>
<path d="M380.5,1124v.6h.5m486.1,0h.6v-.6m0,-38.7v-.6h-.6m-486.1,0h-.5v.6" class="gb_115"/>
<path d="M240.7,778.7c0,0,-13,0,-13,13v21.7c0,0,0,12.9,13,12.9H854.2c0,0,12.9,0,12.9,-12.9V791.7c0,0,0,-13,-12.9,-13Z" class="g4_115"/>
<image clip-path="url(#c4_115)" preserveAspectRatio="none" x="184" y="749" width="75" height="76" xlink:href="img/5.png"/>
<path d="M235.5,819c0,0,-26.8,11.3,-51.1,-12.8c0,0,15.2,25.3,49.3,24c0,0,24.8,.3,20.3,-10.1c0,0,1.2,-4.5,-18.5,-1.1Z" class="g4_115"/>
<path d="M32.1,179.3H967.5V32.1H32.1V179.3Z" class="gc_115"/>
<g clip-path="url(#c0_115)">
<path d="M967.5,177.2H-877.3v-5.4h736.6c43.1,0,53.1,-37.9,115.3,-37.9H967.5Z" class="gd_115"/>
<path d="M967.5,183.7H-877.3v-9.8h736.6c43.1,0,53.1,-33.6,115.3,-33.6H967.5Z" class="ge_115"/>
</g>
<path d="M153.3,217.5v22.2L165,250V227.8Z" class="gf_115"/>
<path d="M153.3,200.7v39H851.1c0,0,16.8,0,16.8,-16.8v-5.4c0,0,0,-16.8,-16.8,-16.8Z" class="g9_115"/>
<path d="M211.3,212.1l-6.5,-6.4l-21.2,21.2l6.5,6.4Z" class="gg_115"/>
<path d="M190.1,233.9c.1,0,.3,-.1,.4,-.2l21.2,-21.2c.1,-.1,.1,-.2,.1,-.4c0,-.1,0,-.2,-.1,-.3l-6.5,-6.5c-.2,-.2,-.6,-.2,-.8,0l-21.2,21.2c-.1,.1,-.1,.2,-.1,.4c0,.1,0,.2,.1,.3l6.5,6.5c.1,.1,.3,.2,.4,.2m20.5,-21.8l-20.5,20.5l-5.8,-5.7l20.5,-20.5Z" class="gh_115"/>
<path d="M211.3,212.1l-6.5,-6.4l2.1,-2.2l6.5,6.5Z" class="gi_115"/>
<path d="M211.3,212.7c.1,0,.3,-.1,.4,-.2l2.1,-2.1c.1,-.1,.2,-.2,.2,-.4c0,-.1,-.1,-.3,-.2,-.4l-6.5,-6.4c-.2,-.3,-.5,-.3,-.7,0l-2.2,2.1c-.1,.1,-.1,.2,-.1,.4c0,.1,0,.2,.1,.3l6.5,6.5c.1,.1,.3,.2,.4,.2m1.4,-2.7l-1.4,1.4l-5.7,-5.7l1.3,-1.4Z" class="gh_115"/>
<path d="M217,206.4l-6.4,-6.5l-3.7,3.6l6.5,6.5Z" class="gj_115"/>
<path d="M213.4,210.5c.2,0,.3,0,.4,-.1l3.6,-3.6c.2,-.2,.2,-.6,0,-.8l-6.5,-6.5c-.2,-.2,-.5,-.2,-.7,0l-3.6,3.7c-.2,.2,-.2,.5,0,.7l6.5,6.5c.1,.1,.2,.1,.3,.1m2.9,-4.1l-2.9,2.9l-5.7,-5.8l2.9,-2.8Z" class="gh_115"/>
<path d="M179,238l4.6,-11.1l6.5,6.4Z" class="g1_115"/>
<path d="M179,238.5c0,0,.1,0,.2,0l11.1,-4.7c.2,0,.3,-.2,.3,-.4c0,-.1,0,-.3,-.1,-.4L184,226.5c-.1,-.1,-.3,-.2,-.5,-.1c-.2,0,-.3,.1,-.4,.3l-4.6,11.1c-.1,.2,0,.4,.1,.6c.1,.1,.2,.1,.4,.1m10.2,-5.3l-9.3,3.8l3.9,-9.2Z" class="gh_115"/>
<path d="M179,238l2.2,-5.4l3.1,3.1Z" class="gh_115"/>
<path d="M179,238.5c0,0,.1,0,.2,0l5.3,-2.3c.2,0,.3,-.2,.4,-.4c0,-.1,-.1,-.3,-.2,-.4l-3.1,-3.2c-.1,-.1,-.3,-.1,-.5,-.1c-.2,0,-.3,.2,-.4,.3l-2.2,5.4c-.1,.2,0,.4,.1,.6c.1,.1,.2,.1,.4,.1m4.4,-2.9l-3.5,1.4l1.5,-3.5Z" class="gh_115"/>
<path d="M209.5,210.4l-2.9,-3l-21.2,21.2l2.9,3Z" class="gk_115"/>
<path d="M188.3,232.1c.2,0,.3,0,.4,-.1l21.2,-21.2c.1,-.1,.2,-.3,.2,-.4c0,-.2,-.1,-.3,-.2,-.4l-3,-3c-.2,-.2,-.5,-.2,-.7,0L185,228.3c-.1,.1,-.2,.2,-.2,.3c0,.2,.1,.3,.2,.4l3,3c.1,.1,.2,.1,.3,.1m20.5,-21.7l-20.5,20.4l-2.2,-2.2l20.5,-20.4Z" class="gh_115"/>
<path d="M154.5,1183.6v-28.7c0,0,0,-4.3,4.3,-4.3H862.4c0,0,4.4,0,4.4,4.3v29.2" class="gl_115"/>
<path d="M200.1,1151.1c2.6,0,4.8,-2.2,4.8,-4.8c0,-2.6,-2.2,-4.8,-4.8,-4.8c-2.7,0,-4.8,2.2,-4.8,4.8c0,2.6,2.1,4.8,4.8,4.8Z" class="g1_115"/>
<path d="M200.1,1153c3.6,0,6.6,-3,6.6,-6.7c0,-3.7,-3,-6.7,-6.6,-6.7c-3.7,0,-6.7,3,-6.7,6.7c0,3.7,3,6.7,6.7,6.7m0,-11.5c2.6,0,4.8,2.2,4.8,4.8c0,2.6,-2.2,4.8,-4.8,4.8c-2.7,0,-4.8,-2.2,-4.8,-4.8c0,-2.6,2.1,-4.8,4.8,-4.8Z" class="gm_115"/>
<path d="M205.5,1154.9H194.6c-.1,0,-.3,0,-.4,0c2.7,1.1,4.9,3.4,5.9,6.2c1.3,-.5,2.7,-.8,4.2,-.8c2.9,0,5.5,1,7.5,2.7v-1.8c0,-3.5,-2.8,-6.3,-6.3,-6.3Z" class="g1_115"/>
<path d="M184,1151.9c3.4,0,6.1,-2.7,6.1,-6.1c0,-3.4,-2.7,-6.1,-6.1,-6.1c-3.4,0,-6.1,2.7,-6.1,6.1c0,3.4,2.7,6.1,6.1,6.1Z" class="gn_115"/>
<path d="M184,1153.8c4.4,0,8,-3.6,8,-8c0,-4.4,-3.6,-8,-8,-8c-4.4,0,-8,3.6,-8,8c0,4.4,3.6,8,8,8m0,-14.1c3.4,0,6.1,2.7,6.1,6.1c0,3.4,-2.7,6.1,-6.1,6.1c-3.4,0,-6.1,-2.7,-6.1,-6.1c0,-3.4,2.7,-6.1,6.1,-6.1Z" class="gm_115"/>
<path d="M198.4,1161.9c-1,-3.3,-4.1,-5.7,-7.7,-5.7H177.3c-4.4,0,-8,3.6,-8,8v4.3h23.8c.9,-2.8,2.8,-5.1,5.3,-6.6Z" class="gn_115"/>
<path d="M204.3,1162.2c-5.5,0,-9.9,4.5,-9.9,10c0,5.5,4.4,10,9.9,10c5.5,0,10,-4.5,10,-10c0,-5.5,-4.5,-10,-10,-10m6.7,11.7c0,.2,-.2,.4,-.5,.4h-4v4.1c0,.2,-.2,.5,-.5,.5h-3.3c-.3,0,-.5,-.3,-.5,-.5v-4.1h-4.1c-.2,0,-.4,-.2,-.4,-.4v-3.4c0,-.3,.2,-.5,.4,-.5h4.1v-4c0,-.3,.2,-.5,.5,-.5H206c.3,0,.5,.2,.5,.5v4h4c.3,0,.5,.2,.5,.5Z" class="go_115"/>
<path d="M213.7,1164.9v-3.7c0,-4.5,-3.7,-8.2,-8.2,-8.2H194.6c-1.6,0,-3.1,.5,-4.3,1.3h-13c-5.4,0,-9.9,4.4,-9.9,9.9v5.2c0,.6,.4,1,1,1h24.2c-.1,.6,-.1,1.2,-.1,1.8c0,6.5,5.3,11.9,11.8,11.9c6.6,0,11.9,-5.4,11.9,-11.9c0,-2.8,-.9,-5.3,-2.5,-7.3m-9.4,17.3c-5.5,0,-9.9,-4.5,-9.9,-10c0,-5.5,4.4,-10,9.9,-10c5.5,0,10,4.5,10,10c0,5.5,-4.5,10,-10,10m-35,-18c0,-4.4,3.6,-8,8,-8h13.4c3.6,0,6.7,2.4,7.7,5.7c-2.5,1.5,-4.4,3.8,-5.3,6.6H169.3Zm42.5,-1.2c-2,-1.7,-4.6,-2.7,-7.5,-2.7c-1.5,0,-2.9,.3,-4.2,.8c-1,-2.8,-3.2,-5.1,-5.9,-6.2c.1,0,.3,0,.4,0h10.9c3.5,0,6.3,2.8,6.3,6.3Z" class="gm_115"/>
<path d="M205.5,1170.5v-4h-2.4v4c0,.3,-.2,.5,-.4,.5h-4.1v2.4h4.1c.2,0,.4,.2,.4,.5v4h2.4v-4c0,-.3,.3,-.5,.5,-.5h4.1V1171H206c-.2,0,-.5,-.2,-.5,-.5Z" class="g1_115"/>
<path d="M210.5,1170h-4v-4c0,-.3,-.2,-.5,-.5,-.5h-3.3c-.3,0,-.5,.2,-.5,.5v4h-4.1c-.2,0,-.4,.2,-.4,.5v3.4c0,.2,.2,.4,.4,.4h4.1v4.1c0,.2,.2,.5,.5,.5H206c.3,0,.5,-.3,.5,-.5v-4.1h4c.3,0,.5,-.2,.5,-.4v-3.4c0,-.3,-.2,-.5,-.5,-.5m-.4,3.4H206c-.2,0,-.5,.2,-.5,.5v4h-2.4v-4c0,-.3,-.2,-.5,-.4,-.5h-4.1V1171h4.1c.2,0,.4,-.2,.4,-.5v-4h2.4v4c0,.3,.3,.5,.5,.5h4.1Z" class="gm_115"/>
<path d="M154.1,1193.7v47.9m4.6,2.3H864.9m2.2,-4.5v-48m-4.5,-2.3H156.4" class="gp_115"/>
<path d="M154.1,1243.9v0m713.1,0v0m0,-54.8v0m-713.1,0v0" class="gq_115"/>
<image clip-path="url(#c5_115)" preserveAspectRatio="none" x="659" y="59" width="200" height="118" xlink:href="img/6.png"/>
<path d="M377.7,359.5h65.8V340H377.7v19.5Z" class="g1_115"/>
<path d="M310.3,638.3h40.5V622.2H310.3v16.1Z" class="g1_115"/>
<path d="M692.9,638.3h40.5V622.2H692.9v16.1Z" class="g1_115"/>
<path d="M513.5,624.1h-2.9l-2.1,4.4l2,4.7c0,0,.6,1.4,2.1,1.4l7.6,.1l11.6,.2l4.4,.2l3.4,-3.2l.2,-6.1l-2.5,-1.7c0,0,-2.4,-1.8,-11.1,-1.1Z" class="g1_115"/>
<path d="M32.1,45.1H9.2m958.3,0h22.9M32.1,1331.3H9.2m958.3,0h22.9M45.1,32.1V9.2m0,1335.1v22.9M954.5,32.1V9.2m0,1335.1v22.9" class="gr_115"/>
<path d="M32.1,45.1H9.2m958.3,0h22.9M32.1,1331.3H9.2m958.3,0h22.9M45.1,32.1V9.2m0,1335.1v22.9M954.5,32.1V9.2m0,1335.1v22.9" class="gs_115"/>
<path d="M27.5,32.1H0m972.1,0h27.5M27.5,1344.3H0m972.1,0h27.5M32.1,27.5V0m0,1348.9v27.5M967.5,27.5V0m0,1348.9v27.5" class="gr_115"/>
<path d="M27.5,32.1H0m972.1,0h27.5M27.5,1344.3H0m972.1,0h27.5M32.1,27.5V0m0,1348.9v27.5M967.5,27.5V0m0,1348.9v27.5" class="gs_115"/>
</svg>