<?xml version="1.0" encoding="UTF-8" standalone="no"?>
<!DOCTYPE svg PUBLIC "-//W3C//DTD SVG 1.1//EN"
"http://www.w3.org/Graphics/SVG/1.1/DTD/svg11.dtd">
<svg viewBox="0 0 999 1376" version="1.1" xmlns="http://www.w3.org/2000/svg" xmlns:xlink="http://www.w3.org/1999/xlink">
<defs>
<clipPath id="c0_263"><path d="M32.1,1344.3V32.1H967.5V1344.3Z"/></clipPath>
<clipPath id="c1_263"><path d="M200.7,738.9l-6.5,-2.1L177.8,722.9V665.8h72v73.1Z"/></clipPath>
<clipPath id="c2_263"><path d="M200.1,137.2c.1,-1.3,.7,-2.5,1.6,-3.4c1,-1,2.3,-1.6,3.9,-1.6h19.2v5Z"/></clipPath>
<clipPath id="c3_263"><path d="M199.5,137.7v-6h25.8v6Z"/></clipPath>
<style type="text/css"><![CDATA[
.g0_263{
fill: #FEFCF4;
}
.g1_263{
fill: #DCE9F3;
}
.g2_263{
fill: #FCE8B0;
}
.g3_263{
fill: #FFF;
}
.g4_263{
fill: none;
stroke: #6381B7;
stroke-width: 0.763;
}
.g5_263{
fill: #ABB2C9;
}
.g6_263{
fill: #6381B7;
}
.g7_263{
fill: none;
stroke: #6381B7;
stroke-width: 0.381;
stroke-dasharray: 2,1;
}
.g8_263{
fill: none;
stroke: #6381B7;
stroke-width: 0.381;
}
.g9_263{
fill: #25408F;
}
.ga_263{
fill: none;
stroke: #231F20;
stroke-width: 1.527;
}
.gb_263{
fill: #39B4D1;
stroke: #2D2A4A;
stroke-width: 1.038;
stroke-linecap: round;
stroke-linejoin: round;
}
.gc_263{
fill: #2D2A4A;
}
.gd_263{
fill: none;
stroke: #2D2A4A;
stroke-width: 1.038;
stroke-linecap: round;
stroke-linejoin: round;
}
.ge_263{
fill: #DEDAD3;
}
.gf_263{
fill: #29263F;
}
.gg_263{
fill: #E15F46;
stroke: #2D2A4A;
stroke-width: 1.038;
stroke-linecap: round;
stroke-linejoin: round;
}
.gh_263{
fill: #F7F8E9;
}
.gi_263{
fill: none;
stroke: #BFD62F;
stroke-width: 1.527;
stroke-linecap: round;
stroke-linejoin: round;
stroke-dasharray: 0,5;
}
.gj_263{
fill: none;
stroke: #BFD62F;
stroke-width: 1.527;
stroke-linecap: round;
stroke-linejoin: round;
}
.gk_263{
fill: #BFD62F;
}
.gl_263{
fill: #D1232A;
}
.gm_263{
fill: #233D4A;
}
.gn_263{
fill: #FFE293;
}
.go_263{
fill: #F89C47;
}
.gp_263{
fill: #F0F5FA;
}
.gq_263{
fill: none;
stroke: #7CA7D8;
stroke-width: 1.527;
stroke-linecap: round;
stroke-linejoin: round;
stroke-dasharray: 0,5;
}
.gr_263{
fill: none;
stroke: #7CA7D8;
stroke-width: 1.527;
stroke-linecap: round;
stroke-linejoin: round;
}
.gs_263{
fill: #7CA7D8;
}
.gt_263{
fill: #3D3B39;
}
.gu_263{
fill: #F5CA58;
}
.gv_263{
fill: none;
stroke: #FFF;
stroke-width: 1.909;
stroke-miterlimit: 10;
}
.gw_263{
fill: none;
stroke: #000;
stroke-width: 0.381;
stroke-miterlimit: 10;
}
]]></style>
</defs>
<path clip-path="url(#c0_263)" d="M-877.3,1344.3H45.1V32.1H-877.3V1344.3Z" class="g0_263"/>
<path d="M170.7,166.3c0,0,-17.4,0,-17.4,17.4V304.9c0,0,0,17.3,17.4,17.3H850.6c0,0,17.3,0,17.3,-17.3V183.7c0,0,0,-17.4,-17.3,-17.4Z" class="g1_263"/>
<path d="M233.3,667.9c0,0,-13,0,-13,13v47.7c0,0,0,13,13,13H854.9c0,0,13,0,13,-13V680.9c0,0,0,-13,-13,-13Z" class="g2_263"/>
<image clip-path="url(#c1_263)" preserveAspectRatio="none" x="176" y="664" width="75" height="77" xlink:href="img/1.png"/>
<path d="M228.1,734.2c0,0,-26.8,11.3,-51.1,-12.8c0,0,15.2,25.4,49.3,24c0,0,24.8,.4,20.3,-10.1c0,0,1.2,-4.5,-18.5,-1.1Z" class="g2_263"/>
<path d="M166.7,757.8c0,0,-13,0,-13,13V982.3c0,0,0,13,13,13H854.5c0,0,13,0,13,-13V770.8c0,0,0,-13,-13,-13Z" class="g3_263"/>
<path d="M166.7,757.8c0,0,-13,0,-13,13V982.3c0,0,0,13,13,13H854.5c0,0,13,0,13,-13V770.8c0,0,0,-13,-13,-13H166.7Z" class="g4_263"/>
<path d="M463.6,833.6c2,0,3.6,-1.7,3.6,-3.6c0,-2,-1.6,-3.7,-3.6,-3.7c-2,0,-3.6,1.7,-3.6,3.7c0,1.9,1.6,3.6,3.6,3.6Z" class="g5_263"/>
<path d="M567.6,833.6c2,0,3.7,-1.7,3.7,-3.6c0,-2,-1.7,-3.7,-3.7,-3.7c-1.9,0,-3.6,1.7,-3.6,3.7c0,1.9,1.7,3.6,3.6,3.6Z" class="g5_263"/>
<path d="M463.6,902.2c2,0,3.6,-1.6,3.6,-3.6c0,-2,-1.6,-3.6,-3.6,-3.6c-2,0,-3.6,1.6,-3.6,3.6c0,2,1.6,3.6,3.6,3.6Z" class="g5_263"/>
<path d="M567.6,902.2c2,0,3.7,-1.6,3.7,-3.6c0,-2,-1.7,-3.6,-3.7,-3.6c-1.9,0,-3.6,1.6,-3.6,3.6c0,2,1.7,3.6,3.6,3.6Z" class="g5_263"/>
<path d="M463.6,971.5c2,0,3.6,-1.6,3.6,-3.6c0,-2,-1.6,-3.6,-3.6,-3.6c-2,0,-3.6,1.6,-3.6,3.6c0,2,1.6,3.6,3.6,3.6Z" class="g5_263"/>
<path d="M567.6,971.5c2,0,3.7,-1.6,3.7,-3.6c0,-2,-1.7,-3.6,-3.7,-3.6c-1.9,0,-3.6,1.6,-3.6,3.6c0,2,1.7,3.6,3.6,3.6Z" class="g5_263"/>
<path d="M696.5,1013.7c0,0,-4.3,0,-4.3,4.3v10.8c0,0,0,4.4,4.3,4.4h30.3c0,0,4.4,0,4.4,-4.4V1018c0,0,0,-4.3,-4.4,-4.3Z" class="g6_263"/>
<path d="M683.3,1004.8v37.6m1.4,.9H866.8m.9,-1.3v-37.6m-1.3,-.9H684.3" class="g7_263"/>
<path d="M683.3,1042.8v.5h.6m183.3,0h.5v-.5m0,-38.7v-.6h-.5m-183.3,0h-.6v.6" class="g8_263"/>
<path d="M153.3,109.5v39L165,158.7V136.5Z" class="g9_263"/>
<path d="M153.3,109.5v39H851.1c0,0,16.8,0,16.8,-16.8v-5.4c0,0,0,-16.8,-16.8,-16.8Z" class="g6_263"/>
<path d="M790.4,131c0,0,-.5,-10,8.6,-9.4c0,0,6.8,-.3,6.7,9.5m-15.3,-1.5v6.5c0,0,-3.4,.3,-3.9,-3c0,0,-.1,-3.8,3.9,-3.5Zm15.3,0v6.5c0,0,3.4,.3,4,-3c0,0,0,-3.8,-4,-3.5Z" class="ga_263"/>
<path d="M169,140.8h61v-32H169v32Z" class="gb_263"/>
<path d="M169,143.1h61v-2.3H169v2.3Z" class="gb_263"/>
<path d="M193.5,106.2H173.8v31.5h25.7V112.3c0,-3.4,-2.7,-6.1,-6,-6.1Z" class="g3_263"/>
<path d="M193.5,106.2v-.5H173.8c-.2,0,-.3,.1,-.4,.2c-.1,.1,-.2,.2,-.2,.3v31.5c0,.1,.1,.3,.2,.4c.1,.1,.2,.1,.4,.1h25.7c.2,0,.3,0,.4,-.1c.1,-.1,.1,-.3,.1,-.4V112.3c0,-3.7,-2.9,-6.6,-6.5,-6.6v1c1.5,0,2.9,.7,3.9,1.7c1,1,1.6,2.3,1.6,3.9v24.9H174.3V106.7h19.2Z" class="gc_263"/>
<path d="M173.8,131.7v6h25.7c0,-3.3,-2.7,-6,-6,-6Z" class="g3_263"/>
<path d="M173.8,131.7h-.6v6c0,.1,.1,.3,.2,.4c.1,.1,.2,.1,.4,.1h25.7c.2,0,.3,0,.4,-.1c.1,-.1,.1,-.3,.1,-.4c0,-3.6,-2.9,-6.6,-6.5,-6.6H173.8c-.2,0,-.3,.1,-.4,.2c-.1,.1,-.2,.2,-.2,.4h.6v.5h19.7c1.5,0,2.9,.6,3.9,1.6c1,1,1.6,2.4,1.6,3.9h.5v-.5H174.3v-5.5h-.5v.5Z" class="gc_263"/>
<path d="M177.3,110.9h17.2m-17.2,2.8h17.2m-17.2,2.9h17.2m-17.2,2.9h17.2m-17.2,2.8h17.2m-17.2,2.9h17.2M177.3,128h17.2" class="gd_263"/>
<path d="M193.5,132.2H174.3v5H199c-.1,-1.3,-.7,-2.5,-1.6,-3.4c-1,-1,-2.4,-1.6,-3.9,-1.6Z" class="ge_263"/>
<path d="M174.3,132.2h19.2c1.5,0,2.9,.6,3.9,1.6c.9,.9,1.5,2.1,1.6,3.4H174.3Zm19.2,-.5H173.8v6H199v-2.5c-.9,-2.1,-3.1,-3.5,-5.5,-3.5Z" class="gf_263"/>
<path d="M205.6,106.2h19.7v31.5H199.5V112.3c0,-3.4,2.7,-6.1,6.1,-6.1Z" class="g3_263"/>
<path d="M205.6,106.2v.5h19.2v30.5H200V112.3c0,-1.6,.7,-2.9,1.7,-3.9c1,-1,2.3,-1.7,3.9,-1.7v-1c-3.7,0,-6.6,2.9,-6.6,6.6v25.4c0,.1,.1,.3,.2,.4c0,.1,.2,.1,.3,.1h25.8c.1,0,.2,0,.3,-.1c.1,-.1,.2,-.3,.2,-.4V106.2c0,-.1,-.1,-.2,-.2,-.3c-.1,-.1,-.2,-.2,-.3,-.2H205.6Z" class="gc_263"/>
<path d="M225.3,131.7v6H199.5c0,-3.3,2.7,-6,6.1,-6Z" class="g3_263"/>
<path d="M225.3,131.7h-.5v5.5H199.5v.5h.5c0,-1.5,.7,-2.9,1.7,-3.9c1,-1,2.3,-1.6,3.9,-1.6h19.7v-.5h-.5h.5v-.6H205.6c-3.7,0,-6.6,3,-6.6,6.6c0,.1,.1,.3,.2,.4c0,.1,.2,.1,.3,.1h25.8c.1,0,.2,0,.3,-.1c.1,-.1,.2,-.3,.2,-.4v-6c0,-.2,-.1,-.3,-.2,-.4c-.1,-.1,-.2,-.2,-.3,-.2Z" class="gc_263"/>
<path d="M221.8,110.9H204.6m17.2,2.8H204.6m17.2,2.9H204.6m17.2,2.9H204.6m17.2,2.8H204.6m17.2,2.9H204.6m17.2,2.8H204.6" class="gd_263"/>
<path clip-path="url(#c2_263)" d="M200.1,137.2h24.7v-5H200.1v5Z" class="ge_263"/>
<path clip-path="url(#c3_263)" d="M200.1,137.2c.1,-1.3,.7,-2.5,1.6,-3.4c1,-1,2.3,-1.6,3.9,-1.6h19.2v5Zm25.2,-5.5H205.6c-3.4,0,-6.1,2.7,-6.1,6h25.8v-6h-.5h.5Z" class="gf_263"/>
<path d="M199.5,108.8v34.3" class="gd_263"/>
<path d="M217.2,145.5h3.3V134.7h-3.3v10.8Z" class="gg_263"/>
<path d="M154.1,580h713V382.3h-713V580Z" class="gh_263"/>
<path d="M154.1,386.9V577.7m4.6,2.3H864.9m2.2,-4.6V384.6m-4.5,-2.3H156.4" class="gi_263"/>
<path d="M154.1,580v0m713.1,0v0m0,-197.7v0m-713.1,0v0" class="gj_263"/>
<path d="M153.3,385.6V357c0,0,0,-8.7,8.7,-8.7H859.3c0,0,8.6,0,8.6,8.7v29.1Z" class="gk_263"/>
<path d="M175,409c0,0,4.8,5.6,6.1,12.4c0,0,6.6,-11.4,11.7,-14c0,0,-9.3,4.9,-11.2,8.2c0,0,-1.8,-4.3,-6.6,-6.6Z" class="gl_263"/>
<path d="M183.4,377.2l3,3l8.1,-8.2l-2.9,-2.9Z" class="g3_263"/>
<path d="M186.4,381.1v0c.3,0,.5,-.1,.7,-.2l8.1,-8.2c.2,-.2,.3,-.4,.3,-.7c0,-.2,-.1,-.5,-.3,-.7l-2.9,-2.9c-.4,-.4,-1,-.4,-1.4,0l-8.2,8.1c-.4,.4,-.4,1,0,1.4l3,3c.2,.1,.4,.2,.7,.2m6.7,-9.1l-6.7,6.8l-1.6,-1.6l6.8,-6.7Z" class="gm_263"/>
<path d="M190,350.2c-6.5,6.6,-6.5,17.2,0,23.7c6.5,6.5,17.1,6.5,23.7,0c6.5,-6.5,6.5,-17.1,0,-23.7c-6.6,-6.5,-17.2,-6.5,-23.7,0Z" class="gn_263"/>
<path d="M201.8,379.8c4.8,0,9.2,-1.9,12.6,-5.2c6.9,-6.9,6.9,-18.2,0,-25.1c-3.4,-3.3,-7.8,-5.2,-12.6,-5.2c-4.7,0,-9.2,1.9,-12.5,5.2c-6.9,6.9,-6.9,18.2,0,25.1c3.3,3.3,7.8,5.2,12.5,5.2m0,-33.5c4.2,0,8.2,1.6,11.2,4.6c6.1,6.2,6.1,16.2,0,22.3c-3,3,-7,4.6,-11.2,4.6c-4.2,0,-8.1,-1.6,-11.1,-4.6c-6.2,-6.1,-6.2,-16.1,0,-22.3c3,-3,6.9,-4.6,11.1,-4.6Z" class="gm_263"/>
<path d="M176,382.4l5.2,5.2l8.2,-8.2l-5.2,-5.2Z" class="go_263"/>
<path d="M181.2,388.6c.3,0,.5,-.1,.7,-.3l8.2,-8.2c.2,-.2,.3,-.4,.3,-.7c0,-.2,-.1,-.5,-.3,-.7l-5.2,-5.2c-.4,-.4,-1,-.4,-1.4,0l-8.2,8.2c-.4,.4,-.4,1,0,1.4l5.2,5.2c.2,.2,.5,.3,.7,.3m6.8,-9.2l-6.8,6.8l-3.8,-3.8l6.8,-6.8Z" class="gm_263"/>
<path d="M189.8,362.2c0,6.5,5.3,11.9,11.9,11.9c6.6,0,12,-5.4,12,-11.9c0,-6.6,-5.4,-12,-12,-12c-6.6,0,-11.9,5.4,-11.9,12Z" class="g3_263"/>
<path d="M201.7,374.9c7,0,12.8,-5.7,12.8,-12.7c0,-7.1,-5.8,-12.8,-12.8,-12.8c-7,0,-12.7,5.7,-12.7,12.8c0,7,5.7,12.7,12.7,12.7m0,-23.9c6.2,0,11.2,5,11.2,11.2c0,6.1,-5,11.1,-11.2,11.1c-6.1,0,-11.1,-5,-11.1,-11.1c0,-6.2,5,-11.2,11.1,-11.2Z" class="gm_263"/>
<path d="M154.1,1243.9h713V1121h-713v122.9Z" class="gp_263"/>
<path d="M154.1,1125.6v116m4.6,2.3H864.9m2.2,-4.5V1123.3m-4.5,-2.3H156.4" class="gq_263"/>
<path d="M154.1,1243.9v0m713.1,0v0m0,-122.9v0m-713.1,0v0" class="gr_263"/>
<path d="M153.3,1124.3v-28.7c0,0,0,-8.6,8.7,-8.6H859.3c0,0,8.6,0,8.6,8.6v29.2Z" class="gs_263"/>
<path d="M195.5,1091.1c3.4,0,6.1,-2.8,6.1,-6.1c0,-3.4,-2.7,-6.1,-6.1,-6.1c-3.4,0,-6.1,2.7,-6.1,6.1c0,3.3,2.7,6.1,6.1,6.1Z" class="gk_263"/>
<path d="M195.5,1093c4.4,0,8,-3.6,8,-8c0,-4.5,-3.6,-8.1,-8,-8.1c-4.4,0,-8,3.6,-8,8.1c0,4.4,3.6,8,8,8m0,-14.1c3.4,0,6.1,2.7,6.1,6.1c0,3.3,-2.7,6.1,-6.1,6.1c-3.4,0,-6.1,-2.8,-6.1,-6.1c0,-3.4,2.7,-6.1,6.1,-6.1Z" class="gt_263"/>
<path d="M180.9,1107.1h29.2v-3.8c0,-4.4,-3.5,-8,-7.9,-8H188.8c-4.3,0,-7.9,3.6,-7.9,8Z" class="gk_263"/>
<path d="M172.6,1112.4h45.8V1109H172.6v3.4Z" class="g3_263"/>
<path d="M219.4,1107.1h-2.7v-11.6c0,-.2,-.1,-.5,-.3,-.6l-2.6,-2.6c.3,-.6,.5,-1.2,.5,-1.8c0,-2,-1.6,-3.6,-3.6,-3.6c-2,0,-3.6,1.6,-3.6,3.6c0,2,1.6,3.6,3.6,3.6c.7,0,1.3,-.2,1.8,-.5l2.3,2.3v11.2H212v-3.8c0,-5.5,-4.4,-9.9,-9.8,-9.9H188.8c-5.4,0,-9.8,4.4,-9.8,9.9v3.8h-7.4c-.5,0,-.9,.4,-.9,.9v5.4c0,.5,.4,.9,.9,.9h2.7v11.3c0,.6,.4,1,.9,1h40.6c.5,0,.9,-.4,.9,-1v-11.3h2.7c.5,0,.9,-.4,.9,-.9V1108c0,-.5,-.4,-.9,-.9,-.9m-8.7,-14.9c-.9,0,-1.7,-.8,-1.7,-1.7c0,-.9,.8,-1.7,1.7,-1.7c.9,0,1.7,.8,1.7,1.7c0,.9,-.8,1.7,-1.7,1.7m7.7,20.2H172.6V1109h45.8Zm-3.6,12.3H176.2v-10.4h38.6v10.4Zm-26,-29.4h13.4c4.4,0,7.9,3.6,7.9,8v3.8H180.9v-3.8c0,-4.4,3.6,-8,7.9,-8Z" class="gt_263"/>
<path d="M176.2,1124.7h38.6v-10.4H176.2v10.4Zm2.8,-7.6c0,-.2,.2,-.4,.5,-.4h32c.3,0,.5,.2,.5,.4v4.8c0,.2,-.2,.4,-.5,.4h-32c-.3,0,-.5,-.2,-.5,-.4Z" class="g3_263"/>
<path d="M180,1121.4h31v-3.8H180v3.8Z" class="gu_263"/>
<path d="M179.5,1122.3h32c.3,0,.5,-.2,.5,-.4v-4.8c0,-.2,-.2,-.4,-.5,-.4h-32c-.3,0,-.5,.2,-.5,.4v4.8c0,.2,.2,.4,.5,.4m.5,-4.7h31v3.8H180Z" class="gt_263"/>
<path d="M212.4,1090.5c0,-.9,-.8,-1.7,-1.7,-1.7c-.9,0,-1.7,.8,-1.7,1.7c0,.9,.8,1.7,1.7,1.7c.9,0,1.7,-.8,1.7,-1.7Z" class="g3_263"/>
<path d="M32.1,45.1H9.2m958.3,0h22.9M32.1,1331.3H9.2m958.3,0h22.9M45.1,32.1V9.2m0,1335.1v22.9M954.5,32.1V9.2m0,1335.1v22.9" class="gv_263"/>
<path d="M32.1,45.1H9.2m958.3,0h22.9M32.1,1331.3H9.2m958.3,0h22.9M45.1,32.1V9.2m0,1335.1v22.9M954.5,32.1V9.2m0,1335.1v22.9" class="gw_263"/>
<path d="M27.5,32.1H0m972.1,0h27.5M27.5,1344.3H0m972.1,0h27.5M32.1,27.5V0m0,1348.9v27.5M967.5,27.5V0m0,1348.9v27.5" class="gv_263"/>
<path d="M27.5,32.1H0m972.1,0h27.5M27.5,1344.3H0m972.1,0h27.5M32.1,27.5V0m0,1348.9v27.5M967.5,27.5V0m0,1348.9v27.5" class="gw_263"/>
</svg>