<?xml version="1.0" encoding="UTF-8" standalone="no"?>
<!DOCTYPE svg PUBLIC "-//W3C//DTD SVG 1.1//EN"
"http://www.w3.org/Graphics/SVG/1.1/DTD/svg11.dtd">
<svg viewBox="0 0 999 1376" version="1.1" xmlns="http://www.w3.org/2000/svg" xmlns:xlink="http://www.w3.org/1999/xlink">
<defs>
<clipPath id="c0_33"><path d="M32.1,1344.3V32.1H967.5V1344.3Z"/></clipPath>
<clipPath id="c1_33"><path d="M202.2,281.5l-6.5,-2L181.6,268.2V207.3h62.7v74.2Z"/></clipPath>
<clipPath id="c2_33"><path d="M202.2,1173l-6.5,-2l-14.1,-11.2v-60.9h62.7V1173Z"/></clipPath>
<style type="text/css"><![CDATA[
.g0_33{
fill: #FFFDEA;
}
.g1_33{
fill: #BCE4EA;
}
.g2_33{
fill: #BCBEC0;
}
.g3_33{
fill: #00AABD;
}
.g4_33{
fill: #FCDCBA;
}
.g5_33{
fill: #DED3E8;
}
.g6_33{
fill: #FFF;
}
.g7_33{
fill: none;
stroke: #6D6F71;
stroke-width: 0.305;
stroke-miterlimit: 10;
}
.g8_33{
fill: none;
stroke: #D1232A;
stroke-width: 0.763;
}
.g9_33{
fill: none;
stroke: #FFF;
stroke-width: 1.909;
stroke-miterlimit: 10;
}
.ga_33{
fill: none;
stroke: #000;
stroke-width: 0.381;
stroke-miterlimit: 10;
}
]]></style>
</defs>
<g clip-path="url(#c0_33)">
<path d="M-877.3,1344.3H967.5V32.1H-877.3V1344.3Z" class="g0_33"/>
<path d="M-877.3,179.3H967.5V32.1H-877.3V179.3Z" class="g1_33"/>
<path d="M967.5,177.2H-877.3v-5.4h736.6c43.1,0,53.1,-37.9,115.3,-37.9H967.5Z" class="g2_33"/>
<path d="M967.5,183.7H-877.3v-9.8h736.6c43.1,0,53.1,-33.6,115.3,-33.6H967.5Z" class="g3_33"/>
</g>
<path d="M234.8,236.5c0,0,-13,0,-13,13v21.6c0,0,0,13,13,13h619c0,0,13,0,13,-13V249.5c0,0,0,-13,-13,-13Z" class="g4_33"/>
<image clip-path="url(#c1_33)" preserveAspectRatio="none" x="182" y="207" width="62" height="76" xlink:href="img/1.png"/>
<path d="M229.6,276.8c0,0,-26.9,11.3,-51.1,-12.8c0,0,15.1,25.3,49.3,24c0,0,24.7,.3,20.2,-10.1c0,0,1.2,-4.5,-18.4,-1.1Z" class="g4_33"/>
<path d="M179.5,312.8h86.6v43.3H179.5V312.8Zm86.6,0h86.6v43.3H266.1V312.8Zm86.6,0H867.8v43.3H352.7V312.8Z" class="g5_33"/>
<path d="M179.5,356.1h86.6v65H179.5v-65Zm86.6,0h86.6v65H266.1v-65Zm86.6,0h85.9v65H352.7v-65Zm85.9,0h85.8v65H438.6v-65Zm85.8,0h85.8v65H524.4v-65Zm85.8,0h85.9v65H610.2v-65Zm85.9,0h85.8v65H696.1v-65Zm85.8,0h85.9v65H781.9v-65Zm-602.4,65h86.6v65H179.5v-65Zm86.6,0h86.6v65H266.1v-65Zm86.6,0h85.9v65H352.7v-65Zm85.9,0h85.8v65H438.6v-65Zm85.8,0h85.8v65H524.4v-65Zm85.8,0h85.9v65H610.2v-65Zm85.9,0h85.8v65H696.1v-65Zm85.8,0h85.9v65H781.9v-65Zm-602.4,65h86.6V551H179.5V486.1Zm86.6,0h86.6V551H266.1V486.1Zm86.6,0h85.9V551H352.7V486.1Zm85.9,0h85.8V551H438.6V486.1Zm85.8,0h85.8V551H524.4V486.1Zm85.8,0h85.9V551H610.2V486.1Zm85.9,0h85.8V551H696.1V486.1Zm85.8,0h85.9V551H781.9V486.1ZM179.5,551h86.6v65H179.5V551Zm86.6,0h86.6v65H266.1V551Zm86.6,0h85.9v65H352.7V551Zm85.9,0h85.8v65H438.6V551Zm85.8,0h85.8v65H524.4V551Zm85.8,0h85.9v65H610.2V551Zm85.9,0h85.8v65H696.1V551Zm85.8,0h85.9v65H781.9V551ZM179.5,616h86.6v64.9H179.5V616Zm86.6,0h86.6v64.9H266.1V616Zm86.6,0h85.9v64.9H352.7V616Zm85.9,0h85.8v64.9H438.6V616Zm85.8,0h85.8v64.9H524.4V616Zm85.8,0h85.9v64.9H610.2V616Zm85.9,0h85.8v64.9H696.1V616Zm85.8,0h85.9v64.9H781.9V616ZM179.5,680.9h86.6v65H179.5v-65Zm86.6,0h86.6v65H266.1v-65Zm86.6,0h85.9v65H352.7v-65Zm85.9,0h85.8v65H438.6v-65Zm85.8,0h85.8v65H524.4v-65Zm85.8,0h85.9v65H610.2v-65Zm85.9,0h85.8v65H696.1v-65Zm85.8,0h85.9v65H781.9v-65Zm-602.4,65h86.6v65H179.5v-65Zm86.6,0h86.6v65H266.1v-65Zm86.6,0h85.9v65H352.7v-65Zm85.9,0h85.8v65H438.6v-65Zm85.8,0h85.8v65H524.4v-65Zm85.8,0h85.9v65H610.2v-65Zm85.9,0h85.8v65H696.1v-65Zm85.8,0h85.9v65H781.9v-65Zm-602.4,65h86.6v64.9H179.5V810.9Zm86.6,0h86.6v64.9H266.1V810.9Zm86.6,0h85.9v64.9H352.7V810.9Zm85.9,0h85.8v64.9H438.6V810.9Zm85.8,0h85.8v64.9H524.4V810.9Zm85.8,0h85.9v64.9H610.2V810.9Zm85.9,0h85.8v64.9H696.1V810.9Zm85.8,0h85.9v64.9H781.9V810.9ZM179.5,875.8h86.6v65H179.5v-65Zm86.6,0h86.6v65H266.1v-65Zm86.6,0h85.9v65H352.7v-65Zm85.9,0h85.8v65H438.6v-65Zm85.8,0h85.8v65H524.4v-65Zm85.8,0h85.9v65H610.2v-65Zm85.9,0h85.8v65H696.1v-65Zm85.8,0h85.9v65H781.9v-65Zm-602.4,65h86.6v65H179.5v-65Zm86.6,0h86.6v65H266.1v-65Zm86.6,0h85.9v65H352.7v-65Zm85.9,0h85.8v65H438.6v-65Zm85.8,0h85.8v65H524.4v-65Zm85.8,0h85.9v65H610.2v-65Zm85.9,0h85.8v65H696.1v-65Zm85.8,0h85.9v65H781.9v-65Zm-602.4,64.9h86.6v65H179.5v-65Zm86.6,0h86.6v65H266.1v-65Zm86.6,0h85.9v65H352.7v-65Zm85.9,0h85.8v65H438.6v-65Zm85.8,0h85.8v65H524.4v-65Zm85.8,0h85.9v65H610.2v-65Zm85.9,0h85.8v65H696.1v-65Zm85.8,0h85.9v65H781.9v-65Z" class="g6_33"/>
<path d="M179.5,421V356.3M266.1,421V356.3M352.7,421V356.3M438.6,421V356.3M524.4,421V356.3M610.2,421V356.3M696.1,421V356.3M781.9,421V356.3M867.8,421V356.3M179.3,421.1h86.8m-86.6,64.8V421.3m86.6,-.2h86.6m-86.6,64.8V421.3m86.6,-.2h85.9m-85.9,64.8V421.3m85.9,-.2h85.8m-85.8,64.8V421.3m85.8,-.2h85.8m-85.8,64.8V421.3m85.8,-.2h85.9m-85.9,64.8V421.3m85.9,-.2h85.8m-85.8,64.8V421.3m85.8,-.2h86m-86,64.8V421.3m85.9,64.6V421.3M179.3,486.1h86.8m-86.6,64.8V486.2m86.6,-.1h86.6m-86.6,64.8V486.2m86.6,-.1h85.9m-85.9,64.8V486.2m85.9,-.1h85.8m-85.8,64.8V486.2m85.8,-.1h85.8m-85.8,64.8V486.2m85.8,-.1h85.9m-85.9,64.8V486.2m85.9,-.1h85.8m-85.8,64.8V486.2m85.8,-.1h86m-86,64.8V486.2m85.9,64.7V486.2M179.3,551h86.8m-86.6,64.8V551.2m86.6,-.2h86.6m-86.6,64.8V551.2m86.6,-.2h85.9m-85.9,64.8V551.2m85.9,-.2h85.8m-85.8,64.8V551.2m85.8,-.2h85.8m-85.8,64.8V551.2m85.8,-.2h85.9m-85.9,64.8V551.2m85.9,-.2h85.8m-85.8,64.8V551.2m85.8,-.2h86m-86,64.8V551.2m85.9,64.6V551.2M179.3,616h86.8m-86.6,64.8V616.1m86.6,-.1h86.6m-86.6,64.8V616.1m86.6,-.1h85.9m-85.9,64.8V616.1m85.9,-.1h85.8m-85.8,64.8V616.1m85.8,-.1h85.8m-85.8,64.8V616.1m85.8,-.1h85.9m-85.9,64.8V616.1m85.9,-.1h85.8m-85.8,64.8V616.1m85.8,-.1h86m-86,64.8V616.1m85.9,64.7V616.1M179.3,680.9h86.8m-86.6,64.9V681.1m86.6,-.2h86.6m-86.6,64.9V681.1m86.6,-.2h85.9m-85.9,64.9V681.1m85.9,-.2h85.8m-85.8,64.9V681.1m85.8,-.2h85.8m-85.8,64.9V681.1m85.8,-.2h85.9m-85.9,64.9V681.1m85.9,-.2h85.8m-85.8,64.9V681.1m85.8,-.2h86m-86,64.9V681.1m85.9,64.7V681.1M179.3,745.9h86.8m-86.6,64.8V746.1m86.6,-.2h86.6m-86.6,64.8V746.1m86.6,-.2h85.9m-85.9,64.8V746.1m85.9,-.2h85.8m-85.8,64.8V746.1m85.8,-.2h85.8m-85.8,64.8V746.1m85.8,-.2h85.9m-85.9,64.8V746.1m85.9,-.2h85.8m-85.8,64.8V746.1m85.8,-.2h86m-86,64.8V746.1m85.9,64.6V746.1M179.3,810.9h86.8m-86.6,64.8V811m86.6,-.1h86.6m-86.6,64.8V811m86.6,-.1h85.9m-85.9,64.8V811m85.9,-.1h85.8m-85.8,64.8V811m85.8,-.1h85.8m-85.8,64.8V811m85.8,-.1h85.9m-85.9,64.8V811m85.9,-.1h85.8m-85.8,64.8V811m85.8,-.1h86m-86,64.8V811m85.9,64.7V811M179.3,875.8h86.8m-86.6,64.8V876m86.6,-.2h86.6m-86.6,64.8V876m86.6,-.2h85.9m-85.9,64.8V876m85.9,-.2h85.8m-85.8,64.8V876m85.8,-.2h85.8m-85.8,64.8V876m85.8,-.2h85.9m-85.9,64.8V876m85.9,-.2h85.8m-85.8,64.8V876m85.8,-.2h86m-86,64.8V876m85.9,64.6V876M179.3,940.8h86.8m-86.6,64.8V940.9m86.6,-.1h86.6m-86.6,64.8V940.9m86.6,-.1h85.9m-85.9,64.8V940.9m85.9,-.1h85.8m-85.8,64.8V940.9m85.8,-.1h85.8m-85.8,64.8V940.9m85.8,-.1h85.9m-85.9,64.8V940.9m85.9,-.1h85.8m-85.8,64.8V940.9m85.8,-.1h86m-86,64.8V940.9m85.9,64.7V940.9m-688.5,64.9h86.8m-86.6,64.8v-64.7m86.6,-.1h86.6m-86.6,64.8v-64.7m86.6,-.1h85.9m-85.9,64.8v-64.7m85.9,-.1h85.8m-85.8,64.8v-64.7m85.8,-.1h85.8m-85.8,64.8v-64.7m85.8,-.1h85.9m-85.9,64.8v-64.7m85.9,-.1h85.8m-85.8,64.8v-64.7m85.8,-.1h86m-86,64.8v-64.7m85.9,64.7v-64.7m-688.5,64.8h86.8m0,0h86.6m0,0h85.9m0,0h85.8m0,0h85.8m0,0h85.9m0,0h85.8m0,0h86M179.3,312.8h86.8M179.5,356V313m-.2,43.1h86.8m0,-43.3h86.6M266.1,356V313m0,43.1h86.6m0,-43.3h85.9M352.7,356V313m85.9,-.2h85.8m0,0h85.8m0,0h85.9m0,0h85.8m0,0h86m-.1,43.2V313M352.7,356.1h85.9m0,0h85.8m0,0h85.8m0,0h85.9m0,0h85.8m0,0h86" class="g7_33"/>
<path d="M234.8,1128c0,0,-13,0,-13,13v21.7c0,0,0,13,13,13h619c0,0,13,0,13,-13V1141c0,0,0,-13,-13,-13Z" class="g4_33"/>
<image clip-path="url(#c2_33)" preserveAspectRatio="none" x="182" y="1098" width="62" height="77" xlink:href="img/2.png"/>
<path d="M229.6,1168.3c0,0,-26.9,11.3,-51.1,-12.7c0,0,15.1,25.3,49.3,23.9c0,0,24.7,.4,20.2,-10.1c0,0,1.2,-4.5,-18.4,-1.1Z" class="g4_33"/>
<path d="M295.9,852.5h16.7m-4.7,2.5l4.9,-2.5L308,849.8m11.7,-18v23.8m-2.5,-4.7l2.4,4.9l2.7,-4.8M310.7,835v9.5m-2.5,-4.6l2.4,4.9l2.7,-4.8M296.4,708.7h16.7m-4.7,2.5l4.9,-2.4l-4.8,-2.7M323,701.8v23.9M320.5,721l2.5,4.9l2.6,-4.8m-18,0h9.5m-4.7,2.5l4.9,-2.4l-4.8,-2.7m-11.8,-3.2v9.5m-2.5,-4.7l2.5,4.9l2.6,-4.8M292.9,968.6h16.7m-4.7,2.5l4.9,-2.5L305,965.9m9.6,-4v23.8m-2.5,-4.6l2.4,4.9l2.7,-4.8m3.2,-19.3v23.8m-2.5,-4.6l2.4,4.9l2.7,-4.8m-18.5,-.7h9.6m-4.7,2.5l4.9,-2.5l-4.8,-2.7m-10.8,-2.7v9.6M296.2,980l2.5,4.9l2.6,-4.8M298.4,773h16.7m-4.6,2.5l4.9,-2.4l-4.8,-2.7M322,767.9v23.8M319.6,787l2.4,4.9l2.7,-4.8m-22.6,-5.8v9.5m-2.5,-4.6l2.5,4.9l2.6,-4.8M298.1,1046h16.7m-4.7,2.5l4.9,-2.4l-4.8,-2.7m11.5,-7.9v23.8m-2.5,-4.7l2.4,4.9l2.7,-4.8M295.8,658.2h16.7m-4.7,2.5l4.9,-2.4l-4.8,-2.7m10.2,-18.2v23.8m-2.5,-4.6l2.4,4.8l2.7,-4.7M319,643.6h9.6m-4.7,2.5l4.9,-2.4L324,641m-14.6,-.3v9.5m-2.5,-4.7l2.5,4.9l2.6,-4.8M290.2,916.7h16.7m-4.6,2.5l4.8,-2.4l-4.8,-2.7m14.8,-17.3v23.9M314.6,916l2.4,4.9l2.7,-4.8m-7.8,-19.3v23.9M309.4,916l2.4,4.9l2.7,-4.8m-3.1,-12.2h9.5m-4.6,2.5l4.9,-2.4l-4.8,-2.7M305,900.1v9.5M302.5,905l2.4,4.8l2.7,-4.8M297.5,376.4v23.8m-2.4,-4.7l2.4,4.9l2.7,-4.8m18.9,-19.2v23.8m-2.5,-4.7l2.4,4.9l2.7,-4.8M303,391h9.5m-4.7,2.5l4.9,-2.4l-4.8,-2.7M297.5,507.5v23.8m-2.4,-4.6l2.4,4.8l2.7,-4.8m18.9,-19.2v23.8m-2.5,-4.6l2.4,4.8l2.7,-4.8M303,513h9.5m-4.7,2.5l4.9,-2.4l-4.8,-2.7M303,525.6h9.5m-4.7,2.5l4.9,-2.5L307.9,523m1.4,-80.8V466m-2.4,-4.6l2.4,4.8l2.7,-4.7m5,-19.3V466m-2.5,-4.6l2.5,4.8l2.7,-4.7m-24.9,-13h9.6m-4.7,2.5l4.9,-2.4l-4.8,-2.7M310,574.3v23.8m-2.5,-4.6l2.4,4.8l2.7,-4.8m5.1,-19.2v23.8m-2.5,-4.6l2.4,4.8l2.7,-4.8M295.5,578H305m-4.6,2.5l4.8,-2.4l-4.7,-2.7m-5,18.2H305m-4.6,2.5l4.8,-2.5L300.5,591" class="g8_33"/>
<path d="M32.1,45.1H9.2m958.3,0h22.9M32.1,1331.3H9.2m958.3,0h22.9M45.1,32.1V9.2m0,1335.1v22.9M954.5,32.1V9.2m0,1335.1v22.9" class="g9_33"/>
<path d="M32.1,45.1H9.2m958.3,0h22.9M32.1,1331.3H9.2m958.3,0h22.9M45.1,32.1V9.2m0,1335.1v22.9M954.5,32.1V9.2m0,1335.1v22.9" class="ga_33"/>
<path d="M27.5,32.1H0m972.1,0h27.5M27.5,1344.3H0m972.1,0h27.5M32.1,27.5V0m0,1348.9v27.5M967.5,27.5V0m0,1348.9v27.5" class="g9_33"/>
<path d="M27.5,32.1H0m972.1,0h27.5M27.5,1344.3H0m972.1,0h27.5M32.1,27.5V0m0,1348.9v27.5M967.5,27.5V0m0,1348.9v27.5" class="ga_33"/>
</svg>