<?xml version="1.0" encoding="UTF-8" standalone="no"?>
<!DOCTYPE svg PUBLIC "-//W3C//DTD SVG 1.1//EN"
"http://www.w3.org/Graphics/SVG/1.1/DTD/svg11.dtd">
<svg viewBox="0 0 999 1376" version="1.1" xmlns="http://www.w3.org/2000/svg" xmlns:xlink="http://www.w3.org/1999/xlink">
<defs>
<clipPath id="c0_246"><path d="M32.1,1344.3V32.1H967.5V1344.3Z"/></clipPath>
<clipPath id="c1_246"><path d="M666.4,877.1V687.9H878.2V877.1Z"/></clipPath>
<clipPath id="c2_246"><path d="M664.8,881.9V686.1H880.4V881.9Z"/></clipPath>
<clipPath id="c3_246"><path d="M176.6,1127.4l-6.5,-2.1l-16.4,-13.9v-57.1h72v73.1Z"/></clipPath>
<clipPath id="c4_246"><path d="M176.6,540.3l-6.5,-2.1l-16.4,-14V467.1h72v73.2Z"/></clipPath>
<clipPath id="c5_246"><path d="M759.8,704.7c-.2,0,3.6,-8.2,3.6,-8.2l.8,.5c0,0,-4.1,7.7,-4.4,7.7Z"/></clipPath>
<clipPath id="c6_246"><path d="M767.3,697c0,0,-6.8,-1.1,-7.5,-5.2c-.7,-3.6,1.5,-3.8,2.1,-3.8c0,0,.1,0,.1,0l8.3,-12.8l-1.5,-3c0,0,-.6,-1.2,.2,-2.1c0,-.1,.1,-.1,.3,-.1c2.1,0,12.9,5.5,12.9,5.5l.1,.2c-.4,.5,-.7,1.1,-1.4,1.6c-.7,.5,-5.1,1.2,-5.1,1.2L767.3,697Z"/></clipPath>
<clipPath id="c7_246"><path d="M766.9,696.7c.3,-.5,.3,-1.8,0,-2.3V693c-1.5,-.5,-2.8,-1.2,-3.6,-2.5c-1.1,.6,-2.1,1.2,-3.1,1.9c1.5,2.1,3.8,3.5,6.7,4.3Zm0,-3.9c2.2,-4.6,4,-9.5,6.2,-14.1c-.9,-.4,-1.8,-1.3,-2.6,-1.4c-2.3,4.3,-4.6,8.6,-7.1,12.8c.7,1.4,2.1,2,3.5,2.7Zm-7.2,12c1,-2.9,2.4,-5.4,3.5,-8.3c-2,-1.5,-3.9,-3.1,-4.4,-6.1v-1.5c-.1,-2.7,1.9,-3.4,4.5,-3.4c.1,0,.2,0,.3,0c1.9,-3.4,4.2,-6.4,6.1,-9.7c-.6,-.9,-1.2,-2.4,-.9,-3.6c.5,1.2,1.7,1.9,2.4,2.9c-.1,.5,-.3,1.1,-.4,1.7c.6,.7,1.4,1.2,2.4,1.4c.5,-.4,.5,-1.2,1.2,-1.5c.9,.3,1.8,.7,3.1,.7c.1,.1,.5,.2,.8,.2c.4,0,.7,-.1,.8,-.2c.1,.1,.2,.1,.3,.1c.3,0,.5,-.1,.7,-.2c.1,0,.3,-.1,.5,-.1c.1,0,.2,0,.3,.1c-1.3,.7,-2.2,1.8,-4.2,1.8c-.1,0,-.2,0,-.3,0c-.9,3.7,-1.9,7.3,-2.7,11.2c.6,1,1.5,1.6,1.3,3.1c-.5,2.7,-3.9,4.4,-7.2,4.4c-1.3,0,-2.5,-.2,-3.6,-.8c-1,2.1,-2.1,4.2,-3.3,6.1c0,-.4,.3,-.4,.3,-.8c.9,-1.8,1.9,-3.6,2.6,-5.6c-1.1,1.7,-1.8,3.7,-2.8,5.5c-.2,.4,-.4,.8,-.6,1.3c-.3,.4,-.3,1.1,-.7,1.3Z"/></clipPath>
<clipPath id="c8_246"><path d="M777.4,677.1c-4.8,0,-13.1,-7.3,-5.6,-8.8h1.3c.2,0,.3,0,.5,0q.1,0,.2,0q.1,0,.2,0c.2,0,.5,0,.9,.1c3,.6,8.2,3.8,7.5,7c-.2,1.2,-1.6,1.6,-3.1,1.7h-1.8c0,0,-.1,0,-.1,0Z"/></clipPath>
<clipPath id="c9_246"><path d="M59.2,913.9v-269h258v269Z"/></clipPath>
<clipPath id="ca_246"><path d="M65.1,905.8V654.5H308.7V905.8Z"/></clipPath>
<clipPath id="cb_246"><path d="M64.7,905.5V654.2H308.4V905.5Z"/></clipPath>
<clipPath id="cc_246"><path d="M172.4,677.3c-.3,0,3.1,-8.4,3.1,-8.4l.8,.5c0,0,-3.6,7.9,-3.9,7.9Z"/></clipPath>
<clipPath id="cd_246"><path d="M179.5,669.2c-.2,0,-6.9,-.8,-7.8,-4.8c-.9,-3.8,1.6,-3.9,1.9,-3.9c0,0,.1,0,.1,0l7.6,-13.2l-1.6,-3c0,0,-.7,-1.1,0,-2.1c.1,-.1,.2,-.1,.4,-.1c2.3,0,13.1,4.9,13.1,4.9l.1,.1c-.3,.6,-.7,1.2,-1.3,1.7c-.6,.6,-5,1.5,-5,1.5l-7.5,18.9Z"/></clipPath>
<clipPath id="ce_246"><path d="M179.1,668.9c.2,-.5,.1,-1.8,-.1,-2.3c-.1,-.4,-.1,-.9,-.1,-1.4c-1.6,-.4,-2.9,-1,-3.8,-2.3c-1,.7,-2,1.4,-3,2.1c1.6,2,4,3.3,7,3.9Zm-.2,-3.9c1.9,-4.7,3.5,-9.7,5.4,-14.4c-.9,-.3,-1.9,-1.2,-2.7,-1.2c-2.1,4.4,-4.2,8.8,-6.4,13.1c.8,1.3,2.2,1.9,3.7,2.5Zm-6.7,12.4c.9,-2.9,2.1,-5.6,3.1,-8.4c-2.1,-1.5,-4.1,-2.9,-4.7,-6c0,-.5,-.1,-1,-.1,-1.5c-.2,-2.7,1.8,-3.5,4.6,-3.6c1.8,-3.4,3.9,-6.6,5.6,-10c-.6,-.8,-1.2,-2.3,-1,-3.6c.6,1.2,1.7,1.8,2.5,2.8c-.1,.6,-.2,1.1,-.3,1.8c.7,.6,1.4,1.1,2.5,1.2c.4,-.4,.4,-1.3,1,-1.6c.9,.3,1.8,.6,2.9,.6c.1,0,.2,0,.3,0c.1,.1,.4,.1,.7,.1c.4,0,.8,0,.9,-.2c.1,.1,.2,.1,.3,.1c.2,0,.5,-.1,.7,-.2c.2,-.1,.3,-.2,.5,-.2c.1,0,.2,.1,.3,.1c-1.4,.8,-2.2,2,-4.4,2c-.7,3.8,-1.5,7.5,-2.1,11.3c.6,1.1,1.6,1.6,1.4,3.1c-.3,2.9,-3.9,4.8,-7.4,4.8c-1.1,0,-2.2,-.2,-3.2,-.6c-.9,2.2,-1.8,4.2,-2.9,6.2c-.1,-.4,.3,-.4,.2,-.8c.9,-1.8,1.8,-3.6,2.3,-5.8c-.9,1.8,-1.6,3.8,-2.4,5.7c-.2,.4,-.4,.9,-.6,1.3c-.3,.4,-.2,1.1,-.7,1.4Z"/></clipPath>
<clipPath id="cf_246"><path d="M188.2,648.8c-4.8,0,-13,-6.7,-5.7,-8.5c.4,-.1,.8,-.1,1.2,-.1c.1,0,.2,0,.3,0c.2,0,.3,0,.5,0c.1,0,.3,0,.4,0c.2,0,.4,0,.6,0c3.1,.5,8.4,3.4,7.9,6.7c-.2,1.1,-1.5,1.6,-3.1,1.8c-.5,0,-1.1,0,-1.7,.1c-.1,0,-.3,0,-.4,0Z"/></clipPath>
<clipPath id="cg_246"><path d="M125.5,386.7V205.8H858.6V386.7Z"/></clipPath>
<clipPath id="ch_246"><path d="M764.8,417.6V405.1h14.5v12.5Z"/></clipPath>
<style type="text/css"><![CDATA[
.g0_246{
fill: #FEFCF4;
}
.g1_246{
fill: #FFF;
}
.g2_246{
fill: none;
stroke: #6381B7;
stroke-width: 0.763;
}
.g3_246{
fill: #F7C2D9;
}
.g4_246{
fill: #FEF6F5;
}
.g5_246{
fill: #EC008C;
}
.g6_246{
fill: none;
stroke: #818385;
stroke-width: 0.305;
stroke-dasharray: 4,4;
}
.g7_246{
fill: none;
stroke: #818385;
stroke-width: 0.305;
}
.g8_246{
fill: none;
stroke: #949698;
stroke-width: 0.305;
stroke-dasharray: 3,3;
}
.g9_246{
fill: none;
stroke: #949698;
stroke-width: 0.305;
stroke-dasharray: 4,4;
}
.ga_246{
fill: none;
stroke: #949698;
stroke-width: 0.305;
}
.gb_246{
fill: #6D6F71;
}
.gc_246{
fill: #6381B7;
}
.gd_246{
fill: none;
stroke: #6381B7;
stroke-width: 0.381;
stroke-dasharray: 2,1;
}
.ge_246{
fill: none;
stroke: #6381B7;
stroke-width: 0.381;
}
.gf_246{
fill: #FCE8B0;
}
.gg_246{
fill: #2E6E51;
}
.gh_246{
fill: none;
stroke: #FFF;
stroke-width: 0.152;
stroke-miterlimit: 1;
}
.gi_246{
fill: #BCBEC0;
}
.gj_246{
fill: #EE314A;
}
.gk_246{
fill: #CEEDFB;
}
.gl_246{
fill: #27639D;
}
.gm_246{
fill: #231F20;
}
.gn_246{
fill: none;
stroke: #204A78;
stroke-width: 1.527;
}
.go_246{
fill: #25408F;
}
.gp_246{
fill: #A8AAAD;
}
.gq_246{
fill: none;
stroke: #949698;
stroke-width: 0.549;
}
.gr_246{
fill: none;
stroke: #BCBEC0;
stroke-width: 2.566;
}
.gs_246{
fill: #363637;
}
.gt_246{
fill: #5CC4BE;
}
.gu_246{
fill: #EAD646;
}
.gv_246{
fill: none;
stroke: #FFF;
stroke-width: 1.909;
stroke-miterlimit: 10;
}
.gw_246{
fill: none;
stroke: #000;
stroke-width: 0.381;
stroke-miterlimit: 10;
}
]]></style>
</defs>
<path d="M32.1,1344.3H954.5V32.1H32.1V1344.3Z" class="g0_246"/>
<path clip-path="url(#c0_246)" d="M954.5,1344.3H1877V32.1H954.5V1344.3Z" class="g0_246"/>
<path d="M150.4,423.2c0,0,-18.3,0,-18.3,18.4v576.9c0,0,0,18.4,18.3,18.4H827.5c0,0,18.4,0,18.4,-18.4V423.2Z" class="g1_246"/>
<path d="M150.4,423.2c0,0,-18.3,0,-18.3,18.4v576.9c0,0,0,18.4,18.3,18.4H827.5c0,0,18.4,0,18.4,-18.4V423.2H150.4Z" class="g2_246"/>
<image clip-path="url(#c1_246)" preserveAspectRatio="none" x="666" y="688" width="212" height="190" xlink:href="img/1.png"/>
<path d="M671.7,695.8l1.5,174l198.4,.7l-.7,-177.3Z" class="g3_246"/>
<g clip-path="url(#c2_246)">
<image preserveAspectRatio="none" x="665" y="687" width="215" height="195" xlink:href="img/2.png"/>
<image preserveAspectRatio="none" x="665" y="687" width="215" height="195" xlink:href="img/3.png"/>
</g>
<path d="M669.6,701.5l9.1,174.3l164.2,-9l31.3,-28.5L866.4,690.8Z" class="g4_246"/>
<path d="M842.7,867.1L874,839.9l-19.4,-7.3Z" class="g5_246"/>
<path d="M615.1,622c31.4,-.6,56.8,-7.5,61.4,-16.5m-.8,-7.1C669.3,590,644.1,583.6,613.6,583.2m-7.6,0c-31.3,.6,-56.8,7.6,-61.3,16.5m.8,7.1c6.3,8.5,31.5,14.9,62,15.3" class="g6_246"/>
<path d="M677,604.1c.1,-.5,.2,-1,.2,-1.5c0,-.5,-.1,-1,-.2,-1.5M612.1,583.2c-.5,0,-1,0,-1.5,0c-.6,0,-1.1,0,-1.6,0m-64.9,17.9c-.1,.5,-.2,1,-.2,1.5c0,.5,.1,1,.2,1.5m64.9,18c.5,0,1,0,1.6,0c.5,0,1,0,1.5,0" class="g7_246"/>
<path d="M628.4,582.9c15.7,-.3,68.5,.3,90.4,20.6m2.4,6.6c-.6,3.1,-3.4,5.7,-13.8,-.5m4.5,-8.5c8.5,1,28.7,6.8,59.3,36.3" class="g8_246"/>
<path d="M776.6,642.7c8,8.1,28.3,30.1,38.9,53.8" class="g9_246"/>
<path d="M623.9,583c0,0,.5,0,1.5,-.1m94.5,21.7c.4,.3,.7,.7,1.1,1.1c0,0,.1,.6,.2,1.4m-15.1,1.7c-.4,-.2,-.8,-.5,-1.2,-.8c0,0,-.5,-.9,-.7,-2m1.3,-4c.5,-.3,1.1,-.7,1.9,-1c0,0,.5,0,1.5,0m63.3,37.4c.4,.4,.7,.7,1.1,1.1c0,0,.4,.3,1.1,1m41.7,57.4c.2,.5,.4,.9,.6,1.4" class="ga_246"/>
<path d="M810.6,696.2l9.6,-1.3l-1.1,12.5Z" class="gb_246"/>
<path d="M145.1,1045.4c0,0,-13,0,-13,13v129.2c0,0,0,13,13,13H832.9c0,0,13,0,13,-13V1058.4c0,0,0,-13,-13,-13Z" class="g1_246"/>
<path d="M145.1,1045.4c0,0,-13,0,-13,13v129.2c0,0,0,13,13,13H832.9c0,0,13,0,13,-13V1058.4c0,0,0,-13,-13,-13H145.1Z" class="g2_246"/>
<path d="M360.2,1214.8c0,0,-4.4,0,-4.4,4.4V1230c0,0,0,4.3,4.4,4.3h30.3c0,0,4.3,0,4.3,-4.3v-10.8c0,0,0,-4.4,-4.3,-4.4Z" class="gc_246"/>
<path d="M347,1206v37.5m1.3,1H845.1m1,-1.3v-37.6m-1.4,-1H348" class="gd_246"/>
<path d="M347,1243.9v.6h.6m497.9,0h.6v-.6m0,-38.7v-.6h-.6m-497.9,0H347v.6" class="ge_246"/>
<path d="M209.2,1082.4c0,0,-13,0,-13,13v21.7c0,0,0,13,13,13h602c0,0,13,0,13,-13v-21.7c0,0,0,-13,-13,-13Z" class="gf_246"/>
<image clip-path="url(#c3_246)" preserveAspectRatio="none" x="152" y="1053" width="75" height="76" xlink:href="img/4.png"/>
<path d="M204,1122.7c0,0,-26.8,11.3,-51.1,-12.8c0,0,15.2,25.4,49.3,24c0,0,24.8,.4,20.3,-10.1c0,0,1.2,-4.5,-18.5,-1.1Z" class="gf_246"/>
<path d="M209.2,452.2c0,0,-13,0,-13,13v64.9c0,0,0,13,13,13h602c0,0,13,0,13,-13V465.2c0,0,0,-13,-13,-13Z" class="gf_246"/>
<image clip-path="url(#c4_246)" preserveAspectRatio="none" x="152" y="466" width="75" height="76" xlink:href="img/5.png"/>
<path d="M204,535.6c0,0,-26.8,11.3,-51.1,-12.8c0,0,15.2,25.3,49.3,24c0,0,24.8,.3,20.3,-10.2c0,0,1.2,-4.4,-18.5,-1Z" class="gf_246"/>
<image clip-path="url(#c5_246)" x="759" y="696" width="6" height="9" xlink:href="shade/1.png"/>
<image clip-path="url(#c6_246)" x="759" y="669" width="24" height="29" xlink:href="shade/2.png"/>
<image clip-path="url(#c7_246)" x="758" y="672" width="23" height="33" xlink:href="shade/3.png"/>
<image clip-path="url(#c8_246)" x="764" y="668" width="20" height="10" xlink:href="shade/4.png"/>
<path d="M468.4,942.4c19.6,-.8,35.3,-6.6,38.8,-14.1m-.8,-7.5c-4.8,-6.9,-20.5,-12.2,-39.6,-12.7m-7.9,.1c-19.6,.8,-35.4,6.6,-38.8,14m.8,7.5c4.8,7,20.5,12.2,39.6,12.7" class="g6_246"/>
<path d="M507.7,926.9c.1,-.6,.2,-1.1,.2,-1.6c0,-.5,-.1,-1.1,-.2,-1.6M465.2,908.1c-.5,0,-1,0,-1.6,0c-.5,0,-1,0,-1.5,0m-42.5,15.6c-.1,.5,-.2,1.1,-.2,1.6c0,.5,.1,1,.2,1.6m42.5,15.6c.5,0,1,0,1.5,0c.6,0,1.1,0,1.6,0" class="g7_246"/>
<image clip-path="url(#c9_246)" preserveAspectRatio="none" x="59" y="645" width="258" height="269" xlink:href="img/6.png"/>
<path d="M63.9,678.3L94.2,908.1L311.3,879.4l-4.2,-35.3L281.5,649.7Z" class="g3_246"/>
<image clip-path="url(#ca_246)" preserveAspectRatio="none" x="65" y="654" width="244" height="253" xlink:href="img/7.png"/>
<image clip-path="url(#cb_246)" preserveAspectRatio="none" x="64" y="654" width="244" height="252" xlink:href="img/8.png"/>
<path d="M69.5,674.3L85.2,899.6l187.1,-13l30.2,-36.9L289.1,658.9Z" class="g4_246"/>
<path d="M272.3,886.6l30.2,-36.8l-19.9,-3.1Z" class="g5_246"/>
<image clip-path="url(#cc_246)" x="172" y="668" width="5" height="10" xlink:href="shade/5.png"/>
<image clip-path="url(#cd_246)" x="170" y="642" width="24" height="28" xlink:href="shade/6.png"/>
<image clip-path="url(#ce_246)" x="170" y="644" width="22" height="34" xlink:href="shade/7.png"/>
<image clip-path="url(#cf_246)" x="174" y="640" width="20" height="10" xlink:href="shade/8.png"/>
<path d="M32.1,179.3H967.5V32.1H32.1V179.3Z" class="gg_246"/>
<path d="M255,150.6c-.6,-.5,-1,-1,-1.4,-1.7c-.5,-.7,-.8,-1.4,-1.1,-2.3c-.3,-.8,-.5,-1.7,-.6,-2.7c-.2,-.9,-.2,-1.9,-.2,-2.9c0,-1.1,0,-2.2,.2,-3.2c.2,-1,.4,-1.9,.7,-2.7c.3,-.8,.7,-1.5,1.1,-2.1c.4,-.6,.8,-1.1,1.3,-1.5l-.4,-.4c-.7,.3,-1.3,.9,-1.9,1.5c-.6,.7,-1.1,1.5,-1.5,2.4c-.4,.9,-.7,1.9,-1,2.9c-.2,1.1,-.3,2.2,-.3,3.4c0,1.1,.1,2.1,.3,3.2c.2,1,.5,1.9,.9,2.8c.4,.8,.9,1.6,1.5,2.2c.6,.7,1.3,1.2,2,1.6l.4,-.5ZM266.2,134c-.5,-.1,-.8,-.2,-1,-.6c0,-.1,0,-.2,0,-.5c-.1,-.2,-.1,-.5,-.1,-.7l-.7,-.4v12.3c-.8,-1.4,-2,-2.5,-3.8,-3.4c.7,-.2,1.4,-.6,1.9,-1.2c.6,-.6,.9,-1.3,.9,-2c0,-.7,-.3,-1.3,-.9,-1.9c-.1,-.1,-.2,-.2,-.5,-.5c-.3,-.3,-.7,-.6,-1.1,-1c-.3,.3,-.5,.5,-.8,.8c-.2,.2,-.4,.3,-.4,.4c-.2,.2,-.5,.3,-.7,.5c-.3,.1,-.5,.2,-.8,.2c0,-.7,-.4,-1.1,-1.1,-1.1c-.4,0,-.7,.2,-.9,.4c-.3,.3,-.4,.6,-.4,.9c0,.5,.2,.9,.5,1.2c.4,.3,.8,.5,1.3,.5c1.3,0,2.6,-.7,3.9,-2c.4,.4,.6,.8,.6,1.3c0,.4,-.1,.7,-.4,1c-.3,.2,-.8,.5,-1.3,.8c-.5,.2,-.9,.3,-1.4,.4c-.4,.1,-.9,.2,-1.2,.2c-.2,0,-.4,0,-.6,-.1c-.1,0,-.3,0,-.4,0l2,2.5c1.2,.1,2.2,.4,3.2,1h-.1c.6,.3,1,.6,1.4,1c.4,.4,.8,.9,1.1,1.3c0,.1,.1,.3,.2,.5c.1,.2,.2,.5,.3,.8c0,.2,.1,.3,.3,.5c.1,.2,.2,.4,.4,.5V135.2h1.9L266.2,134Zm5.8,1.2L270.9,134h-1.1c-.4,-.4,-.6,-1,-.8,-1.9l-.4,-.3c0,.2,0,.5,0,.9c.1,.3,.1,.7,.1,1.2c0,.5,.1,.9,.1,1.3c0,.3,0,.6,0,.9c-.2,-.8,-.6,-1.3,-1,-1.6c-.4,-.3,-.9,-.5,-1.6,-.5h-1.4l1.2,1.2c.3,0,.7,.1,1,.2c.3,.1,.6,.3,.8,.5c.3,.2,.5,.4,.6,.7c.2,.3,.2,.7,.2,1v8.9l1.2,1.2V135.2H272Zm10.7,5.1c.7,-.7,1,-1.8,1,-3.2c0,-.4,-.1,-.7,-.2,-1c-.2,-.4,-.4,-.6,-.7,-.9c-.3,-.2,-.6,-.4,-1,-.5c-.3,-.1,-.7,-.2,-1.1,-.2c-1.2,0,-2.3,.4,-3.3,1c-.6,.4,-1,.8,-1.3,1.3c-.4,.5,-.5,1,-.5,1.5c0,1.2,.6,1.8,1.7,1.8c.8,0,1.2,-.4,1.2,-1.4c0,-.4,-.2,-.8,-.7,-1.1c.3,-.6,.8,-1.1,1.5,-1.4c.3,-.2,.7,-.3,1,-.4c.3,0,.7,-.1,1,-.1c1.1,0,1.6,.5,1.6,1.5c0,.7,-.3,1.2,-.9,1.5c-.4,-.2,-.7,-.3,-1,-.3c-.5,0,-.8,.2,-1.1,.5c-.2,.3,-.4,.7,-.4,1.1c0,.4,.2,.8,.5,1c.3,.3,.6,.5,1,.5c.5,0,.8,-.2,1.2,-.6c.5,.4,.7,.8,.7,1.3c0,.3,0,.6,-.2,.9c-.1,.3,-.4,.5,-.6,.7c-.3,.2,-.6,.4,-.9,.5c-.3,.1,-.7,.1,-1,.1c-.9,0,-1.7,-.2,-2.5,-.8c-.8,-.5,-1.5,-1.2,-2.1,-2.2c-.4,-.5,-.7,-1.2,-1.2,-2.1c-.4,-1,-.8,-2,-1.2,-3.3l-.9,-.3c1.9,7.1,4.6,10.6,7.9,10.6c1.1,0,2,-.3,2.7,-.9c.6,-.6,.9,-1.5,.9,-2.6c0,-.8,-.3,-1.6,-1.1,-2.5Zm13.4,-5.1L294.8,134H283.7c.6,1,1.7,1.7,3.3,2.2c.7,.2,1.3,.4,1.7,.6c.4,.2,.7,.4,.8,.6c-.5,.4,-1.1,.8,-1.7,1.4c-.6,.5,-1.3,1.1,-1.9,1.7l1.6,2.1c1.5,.1,2.6,.5,3.6,1.2c.5,.5,1.1,1.2,1.7,2.3c.5,1,1,1.6,1.3,1.8V135.2h2Zm-3.2,9.5c-1,-1.7,-2.5,-2.9,-4.5,-3.6c.5,-.5,1,-1.1,1.5,-1.6c.5,-.5,.9,-.9,1.4,-1.4c-.6,-.7,-1.1,-1.3,-1.6,-1.8c-.6,-.5,-1,-.9,-1.4,-1.1h4.6v9.5Zm-4.6,2c.2,.2,.5,.3,.8,.3c.4,0,.7,-.1,.9,-.3c.3,-.3,.4,-.6,.4,-.9c0,-.3,-.1,-.6,-.4,-.9c-.2,-.2,-.5,-.3,-.9,-.3c-.3,0,-.6,.1,-.8,.3c-.2,.3,-.4,.6,-.4,.9c0,.3,.2,.6,.4,.9Zm12.5,-11.5L299.6,134h-1.1c-.3,-.4,-.6,-1,-.7,-1.9l-.4,-.3c0,.2,0,.5,0,.9c0,.3,0,.7,0,1.2c.1,.5,.1,.9,.1,1.3c0,.3,.1,.6,.1,.9c-.3,-.8,-.6,-1.3,-1,-1.6c-.4,-.3,-1,-.5,-1.7,-.5h-1.4l1.2,1.2c.4,0,.7,.1,1,.2c.3,.1,.6,.3,.9,.5c.2,.2,.4,.4,.6,.7c.1,.3,.2,.7,.2,1v8.9l1.1,1.2V135.2h2.3Zm11.1,0L310.7,134H298.9l1.2,1.2h8.2v.9c-2.5,.8,-5,2.1,-7.4,3.7l1.6,2.3c1.7,.1,3.1,.7,4.1,1.6c.3,.3,.6,.6,.9,1c.3,.4,.6,.8,.7,1c.2,.3,.4,.7,.6,1.3l.6,.8V135.2h2.5Zm-3.6,9.4c-1.1,-1.8,-2.7,-3.2,-4.8,-4.1c.8,-.6,1.7,-1.1,2.4,-1.5c.8,-.4,1.6,-.7,2.4,-1v6.6Zm-4.7,1.7c.2,.3,.5,.4,.9,.4c.3,0,.6,-.1,.8,-.4c.3,-.2,.4,-.5,.4,-.8c0,-.4,-.1,-.7,-.4,-.9c-.2,-.3,-.5,-.4,-.8,-.4c-.4,0,-.7,.1,-.9,.4c-.3,.2,-.4,.5,-.4,.9c0,.3,.1,.6,.4,.8Zm13.1,-8.7c-.2,-1,-.5,-1.9,-.9,-2.8c-.4,-.8,-.9,-1.6,-1.5,-2.2c-.6,-.7,-1.3,-1.2,-2.1,-1.5l-.3,.4c.5,.5,1,1,1.4,1.7c.4,.7,.8,1.4,1,2.3c.3,.8,.5,1.7,.7,2.7c.1,.9,.2,1.9,.2,2.9c0,1.1,-.1,2.2,-.3,3.2c-.1,1,-.4,1.9,-.7,2.7c-.3,.8,-.7,1.5,-1.1,2.1c-.4,.6,-.8,1.1,-1.2,1.5l.3,.5c.7,-.4,1.3,-.9,1.9,-1.6c.6,-.7,1.1,-1.5,1.6,-2.4c.4,-.9,.7,-1.9,.9,-2.9c.3,-1.1,.4,-2.2,.4,-3.4c0,-1.1,-.1,-2.1,-.3,-3.2Zm7.4,-3.6c-.5,0,-1,.2,-1.5,.4c-.5,.3,-.9,.5,-1.3,.8c-.8,.8,-1.4,1.8,-1.8,2.8c-.4,1,-.7,2.1,-.7,3.3c0,1.5,.3,2.8,.9,3.9c.8,1.4,1.8,2.1,3.2,2.1c.3,0,.6,0,.9,-.1c.2,-.1,.5,-.2,.7,-.4c.2,-.2,.3,-.4,.4,-.7c.1,-.2,.2,-.5,.2,-.8c0,-.4,-.1,-.9,-.4,-1.2c-.3,-.3,-.7,-.5,-1,-.5c-.2,0,-.4,.1,-.6,.1c-.2,.1,-.3,.2,-.5,.3c-.1,.2,-.2,.3,-.3,.4c-.1,.2,-.1,.4,-.1,.6c0,.2,0,.4,.2,.7c.1,.2,.3,.4,.5,.6c0,0,-.1,.1,-.2,.1h-.1c-.8,0,-1.4,-.5,-1.9,-1.4c-.5,-.7,-.7,-1.5,-.7,-2.3c0,-1,.1,-1.9,.3,-2.7c.2,-.7,.6,-1.4,1,-2.1c.4,-.7,1,-1.3,1.6,-1.7c.7,-.5,1.5,-.8,2.4,-1L324.1,134Zm11.5,1.2L334.4,134h-.7c0,-1.1,-.2,-2,-.6,-2.6c-.5,-.6,-1.3,-.9,-2.4,-.9c-.4,0,-.8,.1,-1.5,.1c-.3,.1,-.6,.1,-.9,.1c-.2,0,-.4,0,-.6,0c-.5,0,-.9,-.1,-1.3,-.3c-.4,-.2,-.6,-.6,-.6,-1.1c0,-.2,.1,-.4,.3,-.6c0,-.1,0,-.2,-.1,-.2c0,-.1,0,-.2,0,-.2c-.6,0,-.9,.5,-.9,1.4c0,.9,.5,1.6,1.3,2c.8,.5,1.6,.7,2.5,.7c.2,0,.3,0,.5,0c.2,-.1,.4,-.1,.6,-.1c.5,-.1,.9,-.1,1.1,-.1c1,0,1.5,.3,1.5,1c0,.2,0,.3,0,.4c0,.2,0,.3,0,.4h-9.1l1.1,1.2h1.9v8c.2,.9,.5,1.6,.9,2c.5,.5,1.1,.7,1.8,.7c1.2,0,2.3,-.6,3.3,-1.8c1,-1.2,1.5,-2.3,1.5,-3.5c0,-.4,-.1,-.7,-.2,-1.1c-.1,-.3,-.2,-.6,-.4,-.9c-.4,-.7,-1,-1,-1.6,-1c-.5,0,-.9,.2,-1.1,.5c-.3,.3,-.5,.7,-.5,1.1c0,.4,.2,.8,.5,1c.3,.3,.7,.4,1.1,.4h.4c-.1,.8,-.5,1.6,-1.2,2.5c-.7,.8,-1.5,1.3,-2.2,1.3c-.5,0,-.9,-.3,-1.1,-.8v-8.4h7.9Zm12.1,-3.3c-2.3,-2.4,-4.7,-3.6,-7.3,-3.6c-1,0,-2,.4,-3,1.2c-1.1,.9,-1.7,1.8,-1.7,2.7c0,.4,.2,.7,.5,1l.8,.8h-3.1l1.1,1.2h1.8v11.3l1.3,1.2V135.2h2.1L338.9,134h-1.3l-.4,-1.1c0,-.9,.6,-1.6,1.6,-2.3c1,-.7,1.9,-1,2.8,-1c.6,0,1.2,.1,1.8,.2c.5,.2,1.1,.4,1.6,.7c.6,.4,1.2,.7,1.6,1c.5,.4,.9,.7,1.3,1l-.2,-.6Zm3.7,3.3L350.2,134H338.4l1.2,1.2h8.2v.9c-2.6,.8,-5,2.1,-7.4,3.7l1.6,2.3c1.7,.1,3,.7,4,1.6c.3,.3,.6,.6,1,1c.3,.4,.5,.8,.7,1.2c.2,.3,.3,.5,.4,.7c0,.1,.1,.2,.1,.4l.7,.8V135.2h2.5Zm-3.6,9.4c-1.1,-1.8,-2.7,-3.2,-4.9,-4.1c.9,-.6,1.7,-1.1,2.5,-1.5c.8,-.4,1.6,-.7,2.4,-1v6.6Zm16,-9.4L362.6,134H349.3l1.3,1.2h9.8v3.3c-.5,-1.3,-1.3,-2,-2.3,-2c-.3,0,-.6,.2,-1,.5c-.3,.3,-.4,.6,-.4,1c-.9,-1,-1.8,-1.6,-2.8,-1.6c-.8,0,-1.5,.4,-2,1.2c-.4,.7,-.7,1.4,-.7,2.3c0,.5,.1,1,.3,1.4c.2,.4,.4,.8,.7,1.1c.3,.3,.7,.5,1.1,.7c.4,.1,.9,.2,1.4,.2c.7,-.1,1.1,-.2,1.5,-.5c.3,-.3,.5,-.7,.5,-1.2c0,-1.1,-.6,-1.7,-1.7,-1.7c-.3,0,-.6,.1,-.9,.3c-.3,.3,-.4,.6,-.4,1c0,.2,.1,.6,.4,1c-1.2,-.2,-1.8,-.8,-1.8,-1.7c0,-.3,.1,-.6,.2,-.9c.1,-.3,.3,-.5,.5,-.7c.2,-.2,.5,-.4,.7,-.5c.3,-.1,.6,-.2,.9,-.2c.7,0,1.3,.2,1.8,.6c.5,.4,.8,1,.9,1.6l.5,-.2c0,-.3,-.1,-.5,-.1,-.7c0,-.9,.4,-1.3,1,-1.3c.5,0,.8,.2,1.1,.5c.4,.3,.5,.7,.5,1.1v6.9l1.2,1.1V135.2h2.3Zm20.2,0L382.9,134H370c.3,.4,.6,.7,.9,.9c.2,.2,.4,.4,.5,.5c.3,.2,.6,.4,.9,.6c.3,.1,.6,.2,.9,.3c.5,.1,.9,.2,1.2,.3c.4,.1,.6,.2,.9,.4c.2,.2,.4,.4,.5,.7c.1,.4,.2,.8,.3,1.4c-.4,.5,-.8,.9,-1,1.3c-.3,.3,-.5,.5,-.7,.7c-.1,.2,-.3,.3,-.4,.4q-.1,0,-.2,0c-.2,0,-.3,0,-.5,-.1c-.1,-.1,-.2,-.3,-.3,-.4c-.1,-.2,-.2,-.4,-.3,-.6c0,-.2,-.1,-.3,-.1,-.5l-.8,.8c.1,.2,.3,.5,.4,.8c.2,.3,.4,.6,.6,.9c.3,.3,.5,.5,.8,.7c.3,.1,.6,.2,1,.2c.1,0,.3,0,.4,-.1c.2,0,.4,-.1,.6,-.3c.2,-.2,.4,-.5,.7,-.9c.3,-.4,.7,-.9,1.1,-1.6c.4,-.6,.8,-1,1.3,-1.1c.4,0,.7,.1,1,.4c.3,.4,.6,.9,.8,1.6c.2,.7,.3,1.6,.3,2.5v.4c0,.1,0,.3,-.1,.5c0,.1,0,.4,0,.7c0,.3,0,.6,0,1.1c.2,.2,.3,.4,.5,.6c.2,.3,.4,.5,.6,.7V135.2H384Zm-3.3,4.1c-.4,-.4,-.7,-.8,-1,-1.1c-.3,-.4,-.6,-.6,-.9,-.7c-.3,-.1,-.6,-.1,-.9,.1c-.4,.1,-.7,.4,-1.1,.8c-.1,-.6,-.2,-1.1,-.4,-1.6c-.3,-.5,-.7,-1,-1.4,-1.6h5.7v4.1Zm7.9,-4.1L387.4,134h-1c-.4,-.4,-.6,-1,-.8,-1.9l-.4,-.3c0,.2,0,.5,0,.9c0,.3,.1,.7,.1,1.2c0,.5,.1,.9,.1,1.3c0,.3,0,.6,0,.9c-.2,-.8,-.6,-1.3,-1,-1.6c-.4,-.3,-.9,-.5,-1.7,-.5h-1.3l1.2,1.2c.3,0,.6,.1,1,.2c.3,.1,.6,.3,.8,.5c.3,.2,.5,.4,.6,.7c.2,.3,.2,.7,.2,1v8.9l1.2,1.2V135.2h2.2ZM402,134H386.7l1.2,1.2h5.2c-.4,.3,-.8,.8,-1.2,1.5c-.4,.6,-.6,1.2,-.6,1.7c0,.8,.3,1.5,.8,2.1c.6,.7,1.2,1,2,1c.4,0,.8,-.1,1.3,-.3c.6,-.2,.9,-.3,1,-.3c.2,0,.4,.1,.5,.4c.1,.2,.2,.4,.2,.6c0,.6,-.4,1,-1.2,1.3c-.6,.3,-1.2,.5,-1.8,.5c-.6,0,-1.3,-.2,-1.8,-.6c-.6,-.4,-1,-1,-1.5,-1.7c-.6,-.9,-.9,-2.1,-1.1,-3.5c0,-.5,0,-.9,0,-1.3l-.6,-.3c0,1.2,.1,2.3,.2,3.3c.2,1,.5,1.9,.8,2.7c.9,2.2,2.4,3.4,4.5,3.4c.9,0,1.6,-.4,2.3,-1c.7,-.7,1,-1.5,1,-2.4c0,-.3,0,-.6,-.2,-.9c-.1,-.4,-.2,-.7,-.4,-1.1c-.4,-.7,-.9,-1.2,-1.4,-1.4l-1.3,.7c-.3,.1,-.6,.2,-.8,.3c-.2,.1,-.4,.1,-.6,.1c-.6,0,-.9,-.3,-.9,-.9c0,-.4,.2,-1,.7,-1.7c.2,-.4,.5,-.7,.7,-.9c.2,-.2,.4,-.3,.6,-.3l.1,.1c.7,.9,1.5,1.6,2.4,1.9c.7,.3,1.8,.5,3,.5c-.5,1.2,-.7,2.5,-.7,3.6c0,.9,.1,1.8,.2,2.6c.2,.8,.4,1.6,.7,2.4l1.2,.3c-.6,-1.3,-.9,-2.5,-.9,-3.4c0,-1.2,.2,-2.3,.5,-3.3c.3,-.9,.8,-1.7,1.5,-2.3l-1.8,-1.9c-.4,.2,-.8,.3,-1.3,.4c-.5,.1,-1.1,.1,-1.8,.1c-.1,0,-.3,0,-.5,-.1c-.2,-.1,-.5,-.1,-.7,-.3c-.2,-.1,-.4,-.2,-.6,-.3c-.2,-.2,-.2,-.3,-.2,-.5c0,-.2,.1,-.4,.3,-.5c.2,-.2,.4,-.3,.6,-.3h6.9L402,134Zm5.7,1.2L406.6,134h-1.1c-.4,-.4,-.6,-1,-.8,-1.9l-.4,-.3c0,.2,0,.5,0,.9c0,.3,.1,.7,.1,1.2c0,.5,.1,.9,.1,1.3c0,.3,0,.6,0,.9c-.2,-.8,-.6,-1.3,-1,-1.6c-.4,-.3,-.9,-.5,-1.7,-.5h-1.3l1.2,1.2c.3,0,.6,.1,1,.2c.3,.1,.6,.3,.8,.5c.3,.2,.5,.4,.6,.7c.2,.3,.2,.7,.2,1v8.9l1.2,1.2V135.2h2.2Zm6,-1.2h-8l1.2,1.2h4c-1.7,2,-2.5,4,-2.5,6.1c0,1.5,.3,2.8,.9,3.9c.8,1.4,1.8,2.1,3.2,2.1c.3,0,.6,0,.8,-.1c.3,-.1,.5,-.2,.7,-.4c.2,-.2,.4,-.4,.5,-.7c.1,-.2,.2,-.5,.2,-.8c0,-.4,-.2,-.9,-.4,-1.2c-.3,-.3,-.7,-.5,-1.1,-.5c-.3,0,-.7,.2,-1,.4c-.3,.3,-.5,.6,-.5,1c0,.2,.1,.4,.2,.7c.1,.2,.3,.4,.6,.6c-.7,.2,-1.5,-.2,-2.2,-1.3c-.5,-.7,-.7,-1.5,-.7,-2.3c0,-1,.1,-1.9,.3,-2.7c.2,-.7,.5,-1.4,1,-2.1c.4,-.7,1,-1.3,1.6,-1.7c.7,-.5,1.4,-.8,2.3,-1L413.7,134Zm13.5,0H412.9l1.3,1.2h14.3L427.2,134Zm-.6,5.6c-.2,-.6,-.5,-1.2,-.9,-1.7c-.4,-.5,-.9,-.9,-1.5,-1.1c-.6,-.3,-1.2,-.5,-1.8,-.5c-.8,0,-1.4,.3,-2,.7c-.6,.5,-.9,1.1,-.9,1.9c0,.6,.2,1.2,.5,1.6c.4,.5,.9,.7,1.5,.7c1.3,0,1.9,-.6,1.9,-1.7c0,-.5,-.1,-1,-.4,-1.4c.3,-.1,.6,-.2,.8,-.2c.6,0,1.2,.3,1.6,.9c.4,.6,.5,1.1,.5,1.8c0,.8,-.3,1.6,-1,2.3c-.8,.6,-1.6,1,-2.5,1c-1.7,0,-3.2,-.9,-4.4,-2.8c-.3,-.3,-.6,-1,-1.1,-1.8c-.4,-.9,-.8,-1.9,-1.3,-3.1l-.7,-.2c1.8,6.5,4.3,9.8,7.5,9.8c1.2,0,2.2,-.5,3.2,-1.3c.4,-.4,.7,-.8,1,-1.4c.2,-.5,.4,-1,.4,-1.6c0,-.7,-.2,-1.3,-.4,-1.9Zm22.2,-4.4L447.7,134H434.8c.3,.4,.6,.7,.9,.9c.2,.2,.4,.4,.5,.5c.3,.2,.6,.4,.9,.6c.3,.1,.6,.2,.9,.3c.5,.1,.9,.2,1.2,.3c.4,.1,.7,.2,.9,.4c.2,.2,.4,.4,.5,.7c.1,.4,.2,.8,.3,1.4c-.4,.5,-.8,.9,-1,1.3c-.3,.3,-.5,.5,-.7,.7c-.1,.2,-.3,.3,-.4,.4q-.1,0,-.2,0c-.2,0,-.3,0,-.5,-.1c-.1,-.1,-.2,-.3,-.3,-.4c-.1,-.2,-.2,-.4,-.3,-.6c0,-.2,-.1,-.3,-.1,-.5l-.8,.8c.1,.2,.3,.5,.5,.8c.1,.3,.3,.6,.5,.9c.3,.3,.5,.5,.8,.7c.3,.1,.7,.2,1,.2c.2,0,.3,0,.4,-.1c.2,0,.4,-.1,.6,-.3c.2,-.2,.5,-.5,.7,-.9c.3,-.4,.7,-.9,1.1,-1.6c.4,-.6,.9,-1,1.3,-1.1c.4,0,.7,.1,1,.4c.4,.4,.6,.9,.8,1.6c.2,.7,.3,1.6,.3,2.5v.4c0,.1,0,.3,0,.5c-.1,.1,-.1,.4,-.1,.7c0,.3,0,.6,0,1.1c.2,.2,.4,.4,.5,.6c.2,.3,.4,.5,.6,.7V135.2h2.2Zm-3.3,4.1c-.4,-.4,-.7,-.8,-1,-1.1c-.3,-.4,-.6,-.6,-.9,-.7c-.3,-.1,-.6,-.1,-.9,.1c-.4,.1,-.7,.4,-1.1,.8c-.1,-.6,-.2,-1.1,-.4,-1.6c-.3,-.5,-.7,-1,-1.4,-1.6h5.7v4.1Zm7.9,-4.1L452.3,134h-1.1c-.4,-.4,-.6,-1,-.8,-1.9l-.4,-.3c0,.2,0,.5,0,.9c0,.3,.1,.7,.1,1.2c0,.5,.1,.9,.1,1.3c0,.3,0,.6,0,.9c-.2,-.8,-.6,-1.3,-1,-1.6c-.4,-.3,-.9,-.5,-1.6,-.5h-1.4l1.2,1.2c.3,0,.7,.1,1,.2c.3,.1,.6,.3,.8,.5c.3,.2,.5,.4,.6,.7c.2,.3,.2,.7,.2,1v8.9l1.2,1.2V135.2h2.2Zm10,-1.2H451.3l1.2,1.2h4.3c.6,.4,.8,.7,.8,1c-.7,0,-1.4,.3,-1.9,.8c-.6,.5,-.9,1.1,-.9,1.8c0,.4,.2,.7,.5,.9c.3,.2,.6,.3,1,.3c.5,0,1,-.2,1.5,-.7c.5,-.5,.8,-1,.8,-1.6c.1,0,.2,-.1,.3,-.1c.1,0,.3,0,.4,0c.2,0,.4,.1,.6,.2c.2,.1,.3,.2,.5,.4c.1,.2,.3,.4,.3,.7c.1,.2,.2,.5,.2,.7c0,.8,-.5,1.5,-1.5,2c-.7,.3,-1.5,.5,-2.4,.4c-1.3,-.1,-2.4,-.4,-3.4,-1l1.5,3c.8,.2,1.7,.5,2.6,.9c.8,.3,1.7,.7,2.5,1.2c.8,.5,1.6,1,2.3,1.5c.7,.6,1.3,1.2,1.9,1.9l-.3,-1.3c-1.1,-1.1,-2.1,-2,-3,-2.8c-.9,-.8,-1.8,-1.4,-2.6,-1.9c1.2,-.3,2.1,-.7,2.7,-1.2c.8,-.6,1.2,-1.4,1.2,-2.4c0,-1,-.3,-1.8,-1,-2.5c-.4,-.5,-1.2,-.9,-2.4,-1.3c-.1,-.2,-.2,-.3,-.3,-.5c-.2,-.1,-.3,-.2,-.4,-.4h6.3L463.4,134Zm5.2,1.2L467.5,134h-1.1c-.4,-.4,-.6,-1,-.8,-1.9l-.4,-.3c0,.2,0,.5,0,.9c.1,.3,.1,.7,.1,1.2c0,.5,.1,.9,.1,1.3c0,.3,0,.6,0,.9c-.2,-.8,-.6,-1.3,-.9,-1.6c-.4,-.3,-1,-.5,-1.7,-.5h-1.4l1.2,1.2c.3,0,.7,.1,1,.2c.3,.1,.6,.3,.8,.5c.3,.2,.5,.4,.6,.7c.2,.3,.2,.7,.2,1v8.9l1.2,1.2V135.2h2.2Zm10.7,0L478.1,134H467c.4,.4,.7,.7,1,.9c.3,.3,.6,.5,.8,.7c.3,.2,.6,.4,1,.5c.4,.2,.7,.4,1.1,.5c.9,.4,1.5,.7,1.9,1c-.7,.4,-1.3,.9,-2,1.4c-.6,.5,-1.2,1.1,-1.7,1.6l1.6,2c1.7,.1,3,.5,3.9,1.2c.5,.4,.9,.9,1.2,1.5c.4,.6,.6,1.1,.8,1.6l.8,.9V135.2h1.9Zm-3.1,9.4c-1.1,-1.7,-2.6,-2.9,-4.6,-3.6c.6,-.5,1.1,-1.1,1.6,-1.6c.5,-.5,.9,-.9,1.4,-1.3c-1.3,-1.5,-2.4,-2.5,-3.2,-2.9h4.8v9.4Zm8,-9.4L483,134h-6l1.2,1.2h3.4c-1.3,1.2,-1.9,2.6,-1.8,4.2c0,.5,.1,1.4,.5,2.4c.1,.5,.2,1,.3,1.4c.1,.4,.1,.8,.1,1c0,.9,-.1,1.6,-.5,2c-.2,.3,-.5,.6,-.9,.8c-.4,.2,-.8,.4,-1.2,.5l.7,.5c.4,-.1,.8,-.3,1.3,-.5c.4,-.2,.7,-.5,1.1,-.8c.3,-.4,.6,-.8,.8,-1.3c.2,-.4,.3,-.9,.3,-1.3c0,-.4,0,-.8,-.1,-1.4c-.1,-.5,-.2,-1.2,-.3,-1.9c-.2,-1.1,-.4,-2.2,-.3,-3.3c.1,-1.5,.7,-2.3,1.8,-2.3h.8Zm21.8,0L504.8,134H489.6l1.3,1.2h7.7v1c-2.5,.8,-4.9,2.1,-6.9,3.7l1.7,2.1c1.3,.1,2.5,.7,3.6,1.8c.5,.5,.9,1,1.3,1.6c.4,.7,.7,1.3,1,2q.1,.1,.2,.2c.1,0,.2,.1,.3,.1v-10c1.2,0,2.1,.3,2.7,1c.7,.7,1,1.4,1,2.2l-.1,.3c-.1,-.2,-.3,-.3,-.5,-.4c-.2,-.2,-.4,-.2,-.7,-.2c-.4,0,-.7,.1,-1,.4c-.2,.2,-.4,.5,-.4,.9c0,.2,.1,.4,.2,.6c.1,.2,.2,.3,.3,.5c.2,.1,.4,.2,.5,.3c.2,.1,.4,.1,.6,.1c.3,0,.6,-.1,.8,-.2c.2,-.1,.5,-.3,.6,-.5c.2,-.2,.3,-.4,.4,-.7c.1,-.3,.2,-.5,.2,-.8c0,-1.3,-.4,-2.4,-1.2,-3.4c-.9,-1.2,-2,-1.7,-3.4,-1.7v-.9H506Zm-7.4,9.1h-.1c-.9,-1.8,-2.4,-3.1,-4.4,-4c.8,-.5,1.6,-1,2.3,-1.4c.7,-.4,1.5,-.8,2.2,-1.1v6.5Zm18.7,-9.1L516.1,134H504.4l1.1,1.2h8.2v.9c-2.5,.8,-4.9,2.1,-7.3,3.7l1.6,2.3h-.1c1.7,.1,3.1,.7,4.1,1.6c.3,.3,.6,.6,.9,1c.4,.4,.6,.8,.8,1c.1,.3,.3,.7,.5,1.3l.7,.8V135.2h2.4Zm-3.6,9.4c-1,-1.8,-2.7,-3.2,-4.8,-4.1c.9,-.6,1.7,-1.1,2.5,-1.5c.8,-.4,1.6,-.7,2.3,-1v6.6Zm-4.7,1.7c.3,.3,.6,.4,.9,.4c.3,0,.6,-.1,.9,-.4c.2,-.2,.3,-.5,.3,-.8c0,-.4,-.1,-.7,-.3,-.9c-.3,-.3,-.6,-.4,-.9,-.4c-.3,0,-.6,.1,-.9,.4c-.2,.2,-.3,.5,-.3,.9c0,.3,.1,.6,.3,.8ZM523.2,134h-7.9l1.2,1.2h4c-1.7,2,-2.6,4,-2.6,6.1c0,1.5,.4,2.8,1,3.9c.7,1.4,1.8,2.1,3.2,2.1c.3,0,.5,0,.8,-.1c.3,-.1,.5,-.2,.7,-.4c.2,-.2,.4,-.4,.5,-.7c.1,-.2,.2,-.5,.2,-.8c0,-.4,-.2,-.9,-.5,-1.2c-.3,-.3,-.6,-.5,-1,-.5c-.4,0,-.7,.2,-1,.4c-.3,.3,-.5,.6,-.5,1c0,.2,.1,.4,.2,.7c.1,.2,.3,.4,.6,.6c-.7,.2,-1.5,-.2,-2.3,-1.3c-.4,-.7,-.6,-1.5,-.6,-2.3c0,-1,.1,-1.9,.3,-2.7c.2,-.7,.5,-1.4,.9,-2.1c.5,-.7,1,-1.3,1.7,-1.7c.6,-.5,1.4,-.8,2.3,-1L523.2,134Zm12.2,1.2L534.2,134H522.4l1.2,1.2h8.2v.9c-2.5,.8,-5,2.1,-7.4,3.7l1.6,2.3c1.7,.1,3,.7,4.1,1.6c.3,.3,.6,.6,.9,1c.3,.4,.6,.8,.7,1.2c.2,.3,.3,.5,.4,.7c.1,.1,.1,.2,.2,.4l.6,.8V135.2h2.5Zm-3.6,9.4c-1.1,-1.8,-2.7,-3.2,-4.9,-4.1c.9,-.6,1.7,-1.1,2.5,-1.5c.8,-.4,1.6,-.7,2.4,-1v6.6Zm7.9,-9.4L538.5,134h-1.1c-.4,-.4,-.6,-1,-.7,-1.9l-.5,-.3c0,.2,0,.5,.1,.9c0,.3,0,.7,0,1.2c.1,.5,.1,.9,.1,1.3c0,.3,0,.6,0,.9c-.2,-.8,-.5,-1.3,-.9,-1.6c-.4,-.3,-1,-.5,-1.7,-.5h-1.4l1.2,1.2c.3,0,.7,.1,1,.2c.3,.1,.6,.3,.8,.5c.3,.2,.5,.4,.6,.7c.2,.3,.3,.7,.3,1v8.9l1.1,1.2V135.2h2.3Zm7.1,-.5c-.5,-.6,-1.3,-.9,-2.3,-.9c-.6,0,-1.2,.1,-1.7,.3c-.5,.1,-1,.4,-1.4,.7c-.4,.3,-.7,.6,-1,1.1c-.2,.4,-.3,.8,-.3,1.3v.2q0,.1,0,.2l.3,.3c.3,0,.5,-.1,.8,-.2c.2,0,.5,-.1,.7,-.2c0,-.1,-.1,-.2,-.1,-.3c0,-.1,0,-.2,0,-.3c0,-.3,0,-.5,.1,-.8c.1,-.3,.3,-.5,.4,-.7c.2,-.2,.4,-.3,.6,-.4c.3,-.1,.5,-.2,.8,-.2c.7,0,1.2,.3,1.6,.7c.4,.5,.6,1.2,.6,2.1c0,.3,-.1,.6,-.2,.9c-.1,.2,-.3,.5,-.5,.7c-.2,.3,-.5,.5,-.7,.8c-.3,.2,-.5,.5,-.7,.8c-.2,.2,-.4,.5,-.5,.8c-.1,.3,-.2,.7,-.2,1.1l.1,1.2l.3,.2c.2,0,.3,-.1,.3,-.2c0,0,.1,-.1,.3,-.2v-1c.1,-.5,.2,-.9,.4,-1.2c.1,-.4,.4,-.6,.6,-.9c.3,-.2,.6,-.4,.9,-.6c.3,-.2,.5,-.5,.8,-.7c.2,-.3,.4,-.6,.6,-.9c.2,-.3,.3,-.8,.3,-1.3c0,-1,-.3,-1.8,-.9,-2.4Zm-3,10.6c-.4,0,-.7,.2,-1,.5c-.3,.3,-.4,.7,-.4,1.2c0,.4,.1,.7,.2,.9c.2,.2,.4,.3,.8,.3c.4,0,.8,-.2,1,-.5c.3,-.3,.4,-.7,.4,-1.2c0,-.8,-.3,-1.2,-1,-1.2Z" class="gh_246"/>
<g clip-path="url(#c0_246)">
<path d="M1877,177.2H32.1v-5.4H768.7c43.1,0,53,-37.9,115.3,-37.9h993Z" class="gi_246"/>
<path d="M1877,183.7H32.1v-9.8H768.7c43.1,0,53,-33.6,115.3,-33.6h993Z" class="gj_246"/>
</g>
<image clip-path="url(#cg_246)" preserveAspectRatio="none" x="125" y="206" width="734" height="181" xlink:href="img/9.png"/>
<path d="M144.6,231.3c0,0,-13,0,-13,13v117c0,0,0,13,13,13H833.1c0,0,13,0,13,-13v-130Z" class="gk_246"/>
<path d="M147.7,294.1l54.1,40.8l54.1,-40.8V230h8.7V211.9H155.8c-6.5,.4,-7.7,3.9,-8.2,8.4Z" class="gl_246"/>
<path d="M274,220.3c-.3,-4.7,-4.2,-8.4,-9,-8.4c-4.8,0,-8.7,3.7,-9,8.4h-.1V230h18.2v-9.7Z" class="gm_246"/>
<path d="M255.9,230.6H846.1" class="gn_246"/>
<path d="M131.7,397v38.9l11.7,10.3V402Z" class="go_246"/>
<path d="M131.7,397v38.9H829.5c0,0,16.8,0,16.8,-16.8v-5.3c0,0,0,-16.8,-16.8,-16.8Z" class="gc_246"/>
<path d="M781,430.6c8.2,0,14.8,-6.5,14.8,-14.5c0,-8,-6.6,-14.5,-14.8,-14.5c-8.3,0,-14.9,6.5,-14.9,14.5c0,8,6.6,14.5,14.9,14.5Z" class="gp_246"/>
<path d="M781,430.6c8.2,0,14.8,-6.5,14.8,-14.5c0,-8,-6.6,-14.5,-14.8,-14.5c-8.3,0,-14.9,6.5,-14.9,14.5c0,8,6.6,14.5,14.9,14.5Z" class="gq_246"/>
<path d="M781,421.4c3,0,5.4,-2.4,5.4,-5.3c0,-3,-2.4,-5.4,-5.4,-5.4c-3.1,0,-5.5,2.4,-5.5,5.4c0,2.9,2.4,5.3,5.5,5.3Z" class="g1_246"/>
<path d="M781,421.4c3,0,5.4,-2.4,5.4,-5.3c0,-3,-2.4,-5.4,-5.4,-5.4c-3.1,0,-5.5,2.4,-5.5,5.4c0,2.9,2.4,5.3,5.5,5.3Z" class="gr_246"/>
<g clip-path="url(#ch_246)" opacity="0.3">
<path d="M766.4,415.3v0c0,0,-.1,-4.8,3.6,-8.6l7.8,6.7c0,0,-1,.9,-1.1,2.6Z" class="g1_246"/>
</g>
<path d="M785.6,416c0,0,-3.5,0,-3.5,3.4v8.7c0,0,0,3.5,3.5,3.5H829c0,0,3.5,0,3.5,-3.5v-8.7c0,0,0,-3.4,-3.5,-3.4Z" class="gm_246"/>
<path d="M169.5,407c0,-8.3,-6.7,-15,-15,-15c-8.4,0,-15.1,6.7,-15.1,15c0,8.4,6.8,15.1,15.1,15.1c.8,0,1.6,-.1,2.4,-.2l4.5,5.2v-6.7c4.8,-2.5,8.1,-7.5,8.1,-13.4Z" class="g1_246"/>
<path d="M161.8,428.4l-5.1,-6c-.7,.1,-1.5,.2,-2.2,.2c-8.6,0,-15.6,-7,-15.6,-15.6c0,-8.5,7,-15.5,15.6,-15.5c8.5,0,15.5,7,15.5,15.5c0,5.8,-3.1,11,-8.2,13.7Zm-4.7,-7l3.8,4.5v-5.8l.3,-.1c4.8,-2.5,7.9,-7.5,7.9,-13c0,-8,-6.6,-14.5,-14.6,-14.5c-8.1,0,-14.6,6.5,-14.6,14.5c0,8.1,6.5,14.6,14.6,14.6c.7,0,1.5,0,2.3,-.2Z" class="gs_246"/>
<path d="M147.4,406.6c.8,0,1.5,.7,1.5,1.5c0,.7,-.7,1.4,-1.5,1.4c-.7,0,-1.4,-.7,-1.4,-1.4c0,-.8,.7,-1.5,1.4,-1.5Z" class="gt_246"/>
<path d="M147.4,409.9c-1,0,-1.8,-.8,-1.8,-1.8c0,-1.1,.8,-2,1.8,-2c1.1,0,1.9,.9,1.9,2c0,1,-.8,1.8,-1.9,1.8m0,-2.8c-.5,0,-.9,.4,-.9,1c0,.5,.4,.9,.9,.9c.6,0,1,-.4,1,-.9c0,-.6,-.4,-1,-1,-1Z" class="gs_246"/>
<path d="M154.5,406.6c.8,0,1.4,.7,1.4,1.5c0,.7,-.6,1.4,-1.4,1.4c-.8,0,-1.5,-.7,-1.5,-1.4c0,-.8,.7,-1.5,1.5,-1.5Z" class="gt_246"/>
<path d="M154.5,409.9c-1.1,0,-1.9,-.8,-1.9,-1.8c0,-1.1,.8,-2,1.9,-2c1,0,1.9,.9,1.9,2c0,1,-.9,1.8,-1.9,1.8m0,-2.8c-.6,0,-1,.4,-1,1c0,.5,.4,.9,1,.9c.5,0,.9,-.4,.9,-.9c0,-.6,-.4,-1,-.9,-1Z" class="gs_246"/>
<path d="M161.5,406.6c.8,0,1.4,.7,1.4,1.5c0,.7,-.6,1.4,-1.4,1.4c-.8,0,-1.5,-.7,-1.5,-1.4c0,-.8,.7,-1.5,1.5,-1.5Z" class="gt_246"/>
<path d="M161.5,409.9c-1.1,0,-1.9,-.8,-1.9,-1.8c0,-1.1,.8,-2,1.9,-2c1,0,1.9,.9,1.9,2c0,1,-.9,1.8,-1.9,1.8m0,-2.8c-.6,0,-1,.4,-1,1c0,.5,.4,.9,1,.9c.5,0,1,-.4,1,-.9c0,-.6,-.5,-1,-1,-1Z" class="gs_246"/>
<path d="M163.4,421.3c0,-9.7,7.9,-17.6,17.6,-17.6c9.7,0,17.6,7.9,17.6,17.6c0,9.7,-7.9,17.6,-17.6,17.6c-.9,0,-1.9,-.1,-2.8,-.2l-5.3,6.1v-7.9c-5.6,-2.9,-9.5,-8.8,-9.5,-15.6Z" class="gu_246"/>
<path d="M172.9,445.2c0,0,-.1,0,-.1,0c-.2,-.1,-.3,-.2,-.3,-.4v-7.6c-5.9,-3.1,-9.6,-9.2,-9.6,-15.9c0,-10,8.2,-18.1,18.1,-18.1c10,0,18.1,8.1,18.1,18.1c0,9.9,-8.1,18.1,-18.1,18.1c-.8,0,-1.7,-.1,-2.6,-.2l-5.1,5.9c-.1,.1,-.2,.1,-.4,.1M181,404.1c-9.4,0,-17.1,7.7,-17.1,17.2c0,6.4,3.5,12.3,9.2,15.2c.2,.1,.3,.3,.3,.4v6.6l4.4,-5.1c.1,-.1,.3,-.2,.5,-.2c.9,.2,1.8,.2,2.7,.2c9.5,0,17.2,-7.7,17.2,-17.1c0,-9.5,-7.7,-17.2,-17.2,-17.2Z" class="gs_246"/>
<path d="M189.2,420.8c.9,0,1.7,.7,1.7,1.7c0,.9,-.8,1.6,-1.7,1.6c-.9,0,-1.7,-.7,-1.7,-1.6c0,-1,.8,-1.7,1.7,-1.7Z" class="g1_246"/>
<path d="M189.2,424.6c-1.2,0,-2.1,-1,-2.1,-2.1c0,-1.2,.9,-2.2,2.1,-2.2c1.2,0,2.1,1,2.1,2.2c0,1.1,-.9,2.1,-2.1,2.1m0,-3.3c-.7,0,-1.2,.5,-1.2,1.2c0,.6,.5,1.2,1.2,1.2c.7,0,1.2,-.6,1.2,-1.2c0,-.7,-.5,-1.2,-1.2,-1.2Z" class="gs_246"/>
<path d="M181,420.8c.9,0,1.7,.7,1.7,1.7c0,.9,-.8,1.6,-1.7,1.6c-.9,0,-1.7,-.7,-1.7,-1.6c0,-1,.8,-1.7,1.7,-1.7Z" class="g1_246"/>
<path d="M181,424.6c-1.2,0,-2.1,-1,-2.1,-2.1c0,-1.2,.9,-2.2,2.1,-2.2c1.2,0,2.1,1,2.1,2.2c0,1.1,-.9,2.1,-2.1,2.1m0,-3.3c-.7,0,-1.2,.5,-1.2,1.2c0,.6,.5,1.2,1.2,1.2c.7,0,1.2,-.6,1.2,-1.2c0,-.7,-.5,-1.2,-1.2,-1.2Z" class="gs_246"/>
<path d="M172.8,420.8c.9,0,1.7,.7,1.7,1.7c0,.9,-.8,1.6,-1.7,1.6c-.9,0,-1.7,-.7,-1.7,-1.6c0,-1,.8,-1.7,1.7,-1.7Z" class="g1_246"/>
<path d="M172.8,424.6c-1.2,0,-2.1,-1,-2.1,-2.1c0,-1.2,.9,-2.2,2.1,-2.2c1.2,0,2.1,1,2.1,2.2c0,1.1,-.9,2.1,-2.1,2.1m0,-3.3c-.7,0,-1.2,.5,-1.2,1.2c0,.6,.5,1.2,1.2,1.2c.7,0,1.2,-.6,1.2,-1.2c0,-.7,-.5,-1.2,-1.2,-1.2Z" class="gs_246"/>
<path d="M428.6,940.3c-12.4,8.8,-54,35.6,-82.5,21.8" class="g9_246"/>
<path d="M342,956.5c-1.1,-4.9,-.3,-12.1,14.4,-10.1" class="g8_246"/>
<path d="M361.1,951c.3,1.3,.2,2.9,-.5,4.5m-5.5,5c-8.5,4.2,-31.5,10.8,-74.5,-10.1M273.8,947c-10.7,-5.6,-40.1,-22.6,-59.3,-48.6" class="g9_246"/>
<path d="M432.2,937.6c0,0,-.4,.4,-1.2,.9m-86.3,22.9c-.4,-.2,-.8,-.5,-1.3,-.7c0,0,-.2,-.5,-.6,-1.4m15,-12.7c.5,.1,1,.2,1.5,.3c0,0,.4,.4,.8,1.2m-.2,8.7c-.3,.4,-.6,.9,-.9,1.3c0,0,-.4,.3,-1.2,.9m-78.6,-9.3c-.5,-.2,-.9,-.4,-1.4,-.7c0,0,-.4,-.2,-1.3,-.6M213.7,897.1c-.3,-.4,-.6,-.8,-.9,-1.2" class="ga_246"/>
<path d="M219,896.5l-8.9,3.7l-2.3,-12.4Z" class="gb_246"/>
<path d="M32.1,45.1H9.2m958.3,0h22.9M32.1,1331.3H9.2m958.3,0h22.9M45.1,32.1V9.2m0,1335.1v22.9M954.5,32.1V9.2m0,1335.1v22.9" class="gv_246"/>
<path d="M32.1,45.1H9.2m958.3,0h22.9M32.1,1331.3H9.2m958.3,0h22.9M45.1,32.1V9.2m0,1335.1v22.9M954.5,32.1V9.2m0,1335.1v22.9" class="gw_246"/>
<path d="M27.5,32.1H0m972.1,0h27.5M27.5,1344.3H0m972.1,0h27.5M32.1,27.5V0m0,1348.9v27.5M967.5,27.5V0m0,1348.9v27.5" class="gv_246"/>
<path d="M27.5,32.1H0m972.1,0h27.5M27.5,1344.3H0m972.1,0h27.5M32.1,27.5V0m0,1348.9v27.5M967.5,27.5V0m0,1348.9v27.5" class="gw_246"/>
</svg>