<?xml version="1.0" encoding="UTF-8" standalone="no"?>
<!DOCTYPE svg PUBLIC "-//W3C//DTD SVG 1.1//EN"
"http://www.w3.org/Graphics/SVG/1.1/DTD/svg11.dtd">
<svg viewBox="0 0 999 1376" version="1.1" xmlns="http://www.w3.org/2000/svg" xmlns:xlink="http://www.w3.org/1999/xlink">
<defs>
<clipPath id="c0_30"><path d="M32.1,1344.3V32.1H967.5V1344.3Z"/></clipPath>
<clipPath id="c1_30"><path d="M130,839.5V220.2H851.6V839.5Z"/></clipPath>
<clipPath id="c2_30"><path d="M203.8,528V464.3h38.1V528Z"/></clipPath>
<clipPath id="c3_30"><path d="M193.2,773.5V709.4h59.2v64.1Z"/></clipPath>
<clipPath id="c4_30"><path d="M198.5,688.1V633.7h48.6v54.4Z"/></clipPath>
<clipPath id="c5_30"><path d="M195.9,605.2V548.1h53.8v57.1Z"/></clipPath>
<clipPath id="c6_30"><path d="M202.9,352.6V308.4h39.8v44.2Z"/></clipPath>
<clipPath id="c7_30"><path d="M202.9,432.2V388.1h39.8v44.1Z"/></clipPath>
<clipPath id="c8_30"><path d="M181.6,941.9l-6.5,-2l-14,-11.3V867.8h62.7v74.1Z"/></clipPath>
<style type="text/css"><![CDATA[
.g0_30{
fill: #FFFDEA;
}
.g1_30{
fill: #BCE4EA;
}
.g2_30{
fill: #BCBEC0;
}
.g3_30{
fill: #00AABD;
}
.g4_30{
fill: #FCE9F1;
}
.g5_30{
fill: #FFF;
}
.g6_30{
fill: none;
stroke: #6D6F71;
stroke-width: 0.305;
stroke-miterlimit: 10;
}
.g7_30{
fill: none;
stroke: #976EAF;
stroke-width: 3.819;
}
.g8_30{
fill: none;
stroke: #CDBCDB;
stroke-width: 3.819;
stroke-linecap: round;
stroke-linejoin: round;
stroke-dasharray: 0,14;
}
.g9_30{
fill: none;
stroke: #CDBCDB;
stroke-width: 3.819;
stroke-linecap: round;
stroke-linejoin: round;
stroke-dasharray: 0,12;
}
.ga_30{
fill: none;
stroke: #CDBCDB;
stroke-width: 3.819;
stroke-linecap: round;
stroke-linejoin: round;
}
.gb_30{
fill: #B092C4;
}
.gc_30{
fill: none;
stroke: #976EAF;
stroke-width: 0.381;
stroke-dasharray: 2,1;
}
.gd_30{
fill: none;
stroke: #976EAF;
stroke-width: 0.381;
}
.ge_30{
fill: #FCDCBA;
}
.gf_30{
fill: none;
stroke: #FFF;
stroke-width: 1.909;
stroke-miterlimit: 10;
}
.gg_30{
fill: none;
stroke: #000;
stroke-width: 0.381;
stroke-miterlimit: 10;
}
]]></style>
</defs>
<g clip-path="url(#c0_30)">
<path d="M32.1,1344.3H1877V32.1H32.1V1344.3Z" class="g0_30"/>
<path d="M32.1,179.3H1877V32.1H32.1V179.3Z" class="g1_30"/>
<path d="M1877,177.2H32.1v-5.4H768.7c43.1,0,53,-37.9,115.3,-37.9h993Z" class="g2_30"/>
<path d="M1877,183.7H32.1v-9.8H768.7c43.1,0,53,-33.6,115.3,-33.6h993Z" class="g3_30"/>
</g>
<image clip-path="url(#c1_30)" preserveAspectRatio="none" x="130" y="221" width="721" height="619" xlink:href="img/1.png"/>
<path d="M150.9,223.9c0,0,-17.3,0,-17.3,17.3V812.6c0,0,0,17.4,17.3,17.4H824.7c0,0,17.4,0,17.4,-17.4V241.2c0,0,0,-17.3,-17.4,-17.3Z" class="g4_30"/>
<path d="M154.7,283.4H280.3v82.3H154.7V283.4Zm0,82.3H280.3V448H154.7V365.7Zm0,82.3H280.3v82.2H154.7V448Zm0,82.2H280.3v82.3H154.7V530.2Zm0,82.3H280.3v82.3H154.7V612.5Zm0,82.3H280.3v82.3H154.7V694.8Z" class="g5_30"/>
<path d="M154.6,283.4H280.3M154.7,365.5v-82m125.6,-.1H405.9M280.3,365.5v-82m125.6,-.1H531.5M405.9,365.5v-82m125.6,-.1H657.1M531.5,365.5v-82m125.6,-.1H782.8M657.1,365.5v-82m125.6,82v-82M154.6,365.7H280.3M154.7,447.8v-82m125.6,-.1H405.9M280.3,447.8v-82m125.6,-.1H531.5M405.9,447.8v-82m125.6,-.1H657.1M531.5,447.8v-82m125.6,-.1H782.8M657.1,447.8v-82m125.6,82v-82M154.6,448H280.3M154.7,530.1v-82M280.3,448H405.9M280.3,530.1v-82M405.9,448H531.5M405.9,530.1v-82M531.5,448H657.1M531.5,530.1v-82M657.1,448H782.8M657.1,530.1v-82m125.6,82v-82M154.6,530.2H280.3M154.7,612.4v-82m125.6,-.2H405.9M280.3,612.4v-82m125.6,-.2H531.5M405.9,612.4v-82m125.6,-.2H657.1M531.5,612.4v-82m125.6,-.2H782.8M657.1,612.4v-82m125.6,82v-82M154.6,612.5H280.3M154.7,694.7v-82m125.6,-.2H405.9M280.3,694.7v-82m125.6,-.2H531.5M405.9,694.7v-82m125.6,-.2H657.1M531.5,694.7v-82m125.6,-.2H782.8M657.1,694.7v-82m125.6,82v-82M154.6,694.8H280.3M154.7,776.9V695m125.6,-.2H405.9M280.3,776.9V695m125.6,-.2H531.5M405.9,776.9V695m125.6,-.2H657.1M531.5,776.9V695m125.6,-.2H782.8M657.1,776.9V695m125.6,81.9V695M154.6,777.1H280.3m0,0H405.9m0,0H531.5m0,0H657.1m0,0H782.8" class="g6_30"/>
<path d="M150.9,223.9c0,0,-17.3,0,-17.3,17.3V812.6c0,0,0,17.4,17.3,17.4H824.7c0,0,17.4,0,17.4,-17.4V241.2c0,0,0,-17.3,-17.4,-17.3H150.9Z" class="g7_30"/>
<path d="M138.4,228.7c-1.5,1.5,-2.9,3.3,-3.7,5.7" class="g8_30"/>
<path d="M133.6,252.6V806.9" class="g9_30"/>
<path d="M138.5,825.2c1.4,1.5,3.3,2.8,5.7,3.7" class="g8_30"/>
<path d="M162.3,830H819" class="g9_30"/>
<path d="M837.3,825.1c1.5,-1.4,2.8,-3.3,3.7,-5.7" class="g8_30"/>
<path d="M842.1,801.2V246.9" class="g9_30"/>
<path d="M837.2,228.7c-1.4,-1.6,-3.3,-2.9,-5.7,-3.7" class="g8_30"/>
<path d="M813.3,223.9H156.6" class="g9_30"/>
<path d="M133.6,241.2v0m0,571.4v0M150.9,830v0m673.8,0v0m17.4,-17.4v0m0,-571.4v0M824.7,223.9v0m-673.8,0v0" class="ga_30"/>
<path d="M523.3,1216.9c0,0,-4.4,0,-4.4,4.3v10.9c0,0,0,4.3,4.4,4.3h30.3c0,0,4.3,0,4.3,-4.3v-10.9c0,0,0,-4.3,-4.3,-4.3Z" class="gb_30"/>
<path d="M510.1,1209.4v34.9m1.3,1H845.8m1,-1.4V1209m-1.4,-.9H511.1" class="gc_30"/>
<path d="M510.1,1244.7v.6h.6m335.5,0h.6v-.6m0,-36.1v-.5h-.6m-335.5,0h-.6v.5" class="gd_30"/>
<image clip-path="url(#c2_30)" preserveAspectRatio="none" x="202" y="462" width="41" height="67" xlink:href="img/2.jpg"/>
<image clip-path="url(#c3_30)" preserveAspectRatio="none" x="191" y="708" width="63" height="67" xlink:href="img/3.jpg"/>
<image clip-path="url(#c4_30)" preserveAspectRatio="none" x="197" y="632" width="52" height="58" xlink:href="img/4.jpg"/>
<image clip-path="url(#c5_30)" preserveAspectRatio="none" x="194" y="547" width="57" height="60" xlink:href="img/5.jpg"/>
<image clip-path="url(#c6_30)" preserveAspectRatio="none" x="201" y="307" width="43" height="47" xlink:href="img/6.jpg"/>
<image clip-path="url(#c7_30)" preserveAspectRatio="none" x="201" y="386" width="43" height="48" xlink:href="img/7.jpg"/>
<path d="M214.2,896.9c0,0,-13,0,-13,13v21.7c0,0,0,13,13,13H833.3c0,0,13,0,13,-13V909.9c0,0,0,-13,-13,-13Z" class="ge_30"/>
<image clip-path="url(#c8_30)" preserveAspectRatio="none" x="161" y="867" width="63" height="77" xlink:href="img/8.png"/>
<path d="M209,937.2c0,0,-26.8,11.3,-51.1,-12.8c0,0,15.2,25.3,49.3,24c0,0,24.8,.3,20.3,-10.1c0,0,1.2,-4.5,-18.5,-1.1Z" class="ge_30"/>
<path d="M32.1,45.1H9.2m958.3,0h22.9M32.1,1331.3H9.2m958.3,0h22.9M45.1,32.1V9.2m0,1335.1v22.9M954.5,32.1V9.2m0,1335.1v22.9" class="gf_30"/>
<path d="M32.1,45.1H9.2m958.3,0h22.9M32.1,1331.3H9.2m958.3,0h22.9M45.1,32.1V9.2m0,1335.1v22.9M954.5,32.1V9.2m0,1335.1v22.9" class="gg_30"/>
<path d="M27.5,32.1H0m972.1,0h27.5M27.5,1344.3H0m972.1,0h27.5M32.1,27.5V0m0,1348.9v27.5M967.5,27.5V0m0,1348.9v27.5" class="gf_30"/>
<path d="M27.5,32.1H0m972.1,0h27.5M27.5,1344.3H0m972.1,0h27.5M32.1,27.5V0m0,1348.9v27.5M967.5,27.5V0m0,1348.9v27.5" class="gg_30"/>
</svg>