<?xml version="1.0" encoding="UTF-8" standalone="no"?>
<!DOCTYPE svg PUBLIC "-//W3C//DTD SVG 1.1//EN"
"http://www.w3.org/Graphics/SVG/1.1/DTD/svg11.dtd">
<svg viewBox="0 0 999 1376" version="1.1" xmlns="http://www.w3.org/2000/svg" xmlns:xlink="http://www.w3.org/1999/xlink">
<defs>
<clipPath id="c0_335"><path d="M32.1,1344.3V32.1H967.5V1344.3Z"/></clipPath>
<clipPath id="c1_335"><path d="M200.7,535.4l-6.5,-2.1L177.8,519.4V462.3h72v73.1Z"/></clipPath>
<clipPath id="c2_335"><path d="M198.6,980.8l-6.5,-2.1l-16.4,-14V907.6h72v73.2Z"/></clipPath>
<clipPath id="c3_335"><path d="M200.1,137.2c.1,-1.3,.7,-2.5,1.6,-3.4c1,-1,2.3,-1.6,3.9,-1.6h19.2v5Z"/></clipPath>
<clipPath id="c4_335"><path d="M199.5,137.7v-6h25.8v6Z"/></clipPath>
<style type="text/css"><![CDATA[
.g0_335{
fill: #FEFCF4;
}
.g1_335{
fill: #FFF;
}
.g2_335{
fill: none;
stroke: #6381B7;
stroke-width: 0.763;
}
.g3_335{
fill: #93BEDA;
}
.g4_335{
fill: #D8F1FB;
}
.g5_335{
fill: none;
stroke: #231F20;
stroke-width: 0.458;
stroke-miterlimit: 10;
}
.g6_335{
fill: #DCE9F3;
}
.g7_335{
fill: #9BD1EA;
}
.g8_335{
fill: none;
stroke: #58595B;
stroke-width: 0.381;
stroke-miterlimit: 10;
}
.g9_335{
fill: #6381B7;
}
.ga_335{
fill: none;
stroke: #6381B7;
stroke-width: 0.381;
stroke-dasharray: 2,1;
}
.gb_335{
fill: none;
stroke: #6381B7;
stroke-width: 0.381;
}
.gc_335{
fill: #FCE8B0;
}
.gd_335{
fill: #25408F;
}
.ge_335{
fill: none;
stroke: #231F20;
stroke-width: 1.527;
}
.gf_335{
fill: #39B4D1;
stroke: #2D2A4A;
stroke-width: 1.038;
stroke-linecap: round;
stroke-linejoin: round;
}
.gg_335{
fill: #2D2A4A;
}
.gh_335{
fill: none;
stroke: #2D2A4A;
stroke-width: 1.038;
stroke-linecap: round;
stroke-linejoin: round;
}
.gi_335{
fill: #DEDAD3;
}
.gj_335{
fill: #29263F;
}
.gk_335{
fill: #E15F46;
stroke: #2D2A4A;
stroke-width: 1.038;
stroke-linecap: round;
stroke-linejoin: round;
}
.gl_335{
fill: none;
stroke: #FFF;
stroke-width: 1.909;
stroke-miterlimit: 10;
}
.gm_335{
fill: none;
stroke: #000;
stroke-width: 0.381;
stroke-miterlimit: 10;
}
]]></style>
</defs>
<path clip-path="url(#c0_335)" d="M-877.3,1344.3H45.1V32.1H-877.3V1344.3Z" class="g0_335"/>
<path d="M166.5,547.6c0,0,-13,0,-13,13v229c0,0,0,13,13,13H854.8c0,0,13,0,13,-13v-229c0,0,0,-13,-13,-13Z" class="g1_335"/>
<path d="M166.5,547.6c0,0,-13,0,-13,13v229c0,0,0,13,13,13H854.8c0,0,13,0,13,-13v-229c0,0,0,-13,-13,-13H166.5Z" class="g2_335"/>
<path d="M391,616.8c2,0,3.6,-1.6,3.6,-3.6c0,-2,-1.6,-3.6,-3.6,-3.6c-2,0,-3.6,1.6,-3.6,3.6c0,2,1.6,3.6,3.6,3.6Z" class="g3_335"/>
<path d="M566.6,616.8c2,0,3.6,-1.6,3.6,-3.6c0,-2,-1.6,-3.6,-3.6,-3.6c-2,0,-3.6,1.6,-3.6,3.6c0,2,1.6,3.6,3.6,3.6Z" class="g3_335"/>
<path d="M391,670.3c2,0,3.6,-1.6,3.6,-3.6c0,-2,-1.6,-3.6,-3.6,-3.6c-2,0,-3.6,1.6,-3.6,3.6c0,2,1.6,3.6,3.6,3.6Z" class="g3_335"/>
<path d="M566.6,670.3c2,0,3.6,-1.6,3.6,-3.6c0,-2,-1.6,-3.6,-3.6,-3.6c-2,0,-3.6,1.6,-3.6,3.6c0,2,1.6,3.6,3.6,3.6Z" class="g3_335"/>
<path d="M391,723.8c2,0,3.6,-1.6,3.6,-3.6c0,-2,-1.6,-3.6,-3.6,-3.6c-2,0,-3.6,1.6,-3.6,3.6c0,2,1.6,3.6,3.6,3.6Z" class="g3_335"/>
<path d="M566.6,723.8c2,0,3.6,-1.6,3.6,-3.6c0,-2,-1.6,-3.6,-3.6,-3.6c-2,0,-3.6,1.6,-3.6,3.6c0,2,1.6,3.6,3.6,3.6Z" class="g3_335"/>
<path d="M391,777.3c2,0,3.6,-1.6,3.6,-3.6c0,-2,-1.6,-3.7,-3.6,-3.7c-2,0,-3.6,1.7,-3.6,3.7c0,2,1.6,3.6,3.6,3.6Z" class="g3_335"/>
<path d="M566.6,777.3c2,0,3.6,-1.6,3.6,-3.6c0,-2,-1.6,-3.7,-3.6,-3.7c-2,0,-3.6,1.7,-3.6,3.7c0,2,1.6,3.6,3.6,3.6Z" class="g3_335"/>
<path d="M166.7,885.6c0,0,-13,0,-13,13V1149c0,0,0,13,13,13H854.5c0,0,13,0,13,-13V898.6c0,0,0,-13,-13,-13Z" class="g0_335"/>
<path d="M166.7,885.6c0,0,-13,0,-13,13V1149c0,0,0,13,13,13H854.5c0,0,13,0,13,-13V898.6c0,0,0,-13,-13,-13H166.7Z" class="g2_335"/>
<path d="M257,996.9c0,0,-8.4,0,-8.4,8.7v21.6c0,0,0,8.7,8.4,8.7H803.3c0,0,8.3,0,8.3,-8.7v-21.6c0,0,0,-8.7,-8.3,-8.7Z" class="g4_335"/>
<path d="M393.1,1073.2H560.6m-200.1,31.6H528m-167.5,31.6H528" class="g5_335"/>
<path d="M170.7,166.3c0,0,-17.4,0,-17.4,17.4V404.5c0,0,0,17.3,17.4,17.3H850.6c0,0,17.3,0,17.3,-17.3V183.7c0,0,0,-17.4,-17.3,-17.4Z" class="g6_335"/>
<path d="M239.9,213.5H456.5v30.1H239.9V213.5Zm216.6,0H781.3v30.1H456.5V213.5Z" class="g7_335"/>
<path d="M239.9,243.6H456.5v53.5H239.9V243.6Zm216.6,0H781.3v53.5H456.5V243.6Z" class="g1_335"/>
<path d="M239.9,213.5H456.5m0,0H781.3M456.5,243.4V213.7M239.9,243.6H456.5m0,0H781.3M456.5,297V243.8M239.9,297.1H456.5m0,0H781.3" class="g8_335"/>
<path d="M660.4,820.7c0,0,-4.3,0,-4.3,4.4v10.8c0,0,0,4.3,4.3,4.3h30.3c0,0,4.4,0,4.4,-4.3V825.1c0,0,0,-4.4,-4.4,-4.4Z" class="g9_335"/>
<path d="M647.2,811.9v37.5m1.4,1H866.8m.9,-1.3V811.5m-1.3,-.9H648.2" class="ga_335"/>
<path d="M647.2,849.8v.6h.6m219.3,0h.6v-.6m0,-38.7v-.5h-.6m-219.3,0h-.6v.5" class="gb_335"/>
<path d="M420.8,1183.1c0,0,-4.3,0,-4.3,4.3v10.8c0,0,0,4.4,4.3,4.4h30.3c0,0,4.3,0,4.3,-4.4v-10.8c0,0,0,-4.3,-4.3,-4.3Z" class="g9_335"/>
<path d="M407.6,1173.7v38.6m1.3,1H866.8m.9,-1.4v-38.6m-1.3,-1H408.6" class="ga_335"/>
<path d="M407.6,1212.7v.6h.6m458.9,0h.6v-.6m0,-39.8v-.6h-.6m-458.9,0h-.6v.6" class="gb_335"/>
<path d="M233.3,464.4c0,0,-13,0,-13,13v47.7c0,0,0,13,13,13H854.9c0,0,13,0,13,-13V477.4c0,0,0,-13,-13,-13Z" class="gc_335"/>
<image clip-path="url(#c1_335)" preserveAspectRatio="none" x="176" y="461" width="75" height="76" xlink:href="img/1.png"/>
<path d="M228.1,530.7c0,0,-26.8,11.3,-51.1,-12.7c0,0,15.2,25.3,49.3,23.9c0,0,24.8,.4,20.3,-10.1c0,0,1.2,-4.5,-18.5,-1.1Z" class="gc_335"/>
<path d="M231.2,909.8c0,0,-12.9,0,-12.9,13v47.6c0,0,0,13,12.9,13H833.3c0,0,13,0,13,-13V922.8c0,0,0,-13,-13,-13Z" class="gc_335"/>
<image clip-path="url(#c2_335)" preserveAspectRatio="none" x="174" y="906" width="75" height="76" xlink:href="img/2.png"/>
<path d="M226,976.1c0,0,-26.8,11.3,-51.1,-12.8c0,0,15.2,25.3,49.3,24c0,0,24.8,.3,20.3,-10.2c0,0,1.2,-4.4,-18.5,-1Z" class="gc_335"/>
<path d="M153.3,109.5v39L165,158.7V136.5Z" class="gd_335"/>
<path d="M153.3,109.5v39H851.1c0,0,16.8,0,16.8,-16.8v-5.4c0,0,0,-16.8,-16.8,-16.8Z" class="g9_335"/>
<path d="M790.4,131c0,0,-.5,-10,8.6,-9.4c0,0,6.8,-.3,6.7,9.5m-15.3,-1.5v6.5c0,0,-3.4,.3,-3.9,-3c0,0,-.1,-3.8,3.9,-3.5Zm15.3,0v6.5c0,0,3.4,.3,4,-3c0,0,0,-3.8,-4,-3.5Z" class="ge_335"/>
<path d="M169,140.8h61v-32H169v32Z" class="gf_335"/>
<path d="M169,143.1h61v-2.3H169v2.3Z" class="gf_335"/>
<path d="M193.5,106.2H173.8v31.5h25.7V112.3c0,-3.4,-2.7,-6.1,-6,-6.1Z" class="g1_335"/>
<path d="M193.5,106.2v-.5H173.8c-.2,0,-.3,.1,-.4,.2c-.1,.1,-.2,.2,-.2,.3v31.5c0,.1,.1,.3,.2,.4c.1,.1,.2,.1,.4,.1h25.7c.2,0,.3,0,.4,-.1c.1,-.1,.1,-.3,.1,-.4V112.3c0,-3.7,-2.9,-6.6,-6.5,-6.6v1c1.5,0,2.9,.7,3.9,1.7c1,1,1.6,2.3,1.6,3.9v24.9H174.3V106.7h19.2Z" class="gg_335"/>
<path d="M173.8,131.7v6h25.7c0,-3.3,-2.7,-6,-6,-6Z" class="g1_335"/>
<path d="M173.8,131.7h-.6v6c0,.1,.1,.3,.2,.4c.1,.1,.2,.1,.4,.1h25.7c.2,0,.3,0,.4,-.1c.1,-.1,.1,-.3,.1,-.4c0,-3.6,-2.9,-6.6,-6.5,-6.6H173.8c-.2,0,-.3,.1,-.4,.2c-.1,.1,-.2,.2,-.2,.4h.6v.5h19.7c1.5,0,2.9,.6,3.9,1.6c1,1,1.6,2.4,1.6,3.9h.5v-.5H174.3v-5.5h-.5v.5Z" class="gg_335"/>
<path d="M177.3,110.9h17.2m-17.2,2.8h17.2m-17.2,2.9h17.2m-17.2,2.9h17.2m-17.2,2.8h17.2m-17.2,2.9h17.2M177.3,128h17.2" class="gh_335"/>
<path d="M193.5,132.2H174.3v5H199c-.1,-1.3,-.7,-2.5,-1.6,-3.4c-1,-1,-2.4,-1.6,-3.9,-1.6Z" class="gi_335"/>
<path d="M174.3,132.2h19.2c1.5,0,2.9,.6,3.9,1.6c.9,.9,1.5,2.1,1.6,3.4H174.3Zm19.2,-.5H173.8v6H199v-2.5c-.9,-2.1,-3.1,-3.5,-5.5,-3.5Z" class="gj_335"/>
<path d="M205.6,106.2h19.7v31.5H199.5V112.3c0,-3.4,2.7,-6.1,6.1,-6.1Z" class="g1_335"/>
<path d="M205.6,106.2v.5h19.2v30.5H200V112.3c0,-1.6,.7,-2.9,1.7,-3.9c1,-1,2.3,-1.7,3.9,-1.7v-1c-3.7,0,-6.6,2.9,-6.6,6.6v25.4c0,.1,.1,.3,.2,.4c0,.1,.2,.1,.3,.1h25.8c.1,0,.2,0,.3,-.1c.1,-.1,.2,-.3,.2,-.4V106.2c0,-.1,-.1,-.2,-.2,-.3c-.1,-.1,-.2,-.2,-.3,-.2H205.6Z" class="gg_335"/>
<path d="M225.3,131.7v6H199.5c0,-3.3,2.7,-6,6.1,-6Z" class="g1_335"/>
<path d="M225.3,131.7h-.5v5.5H199.5v.5h.5c0,-1.5,.7,-2.9,1.7,-3.9c1,-1,2.3,-1.6,3.9,-1.6h19.7v-.5h-.5h.5v-.6H205.6c-3.7,0,-6.6,3,-6.6,6.6c0,.1,.1,.3,.2,.4c0,.1,.2,.1,.3,.1h25.8c.1,0,.2,0,.3,-.1c.1,-.1,.2,-.3,.2,-.4v-6c0,-.2,-.1,-.3,-.2,-.4c-.1,-.1,-.2,-.2,-.3,-.2Z" class="gg_335"/>
<path d="M221.8,110.9H204.6m17.2,2.8H204.6m17.2,2.9H204.6m17.2,2.9H204.6m17.2,2.8H204.6m17.2,2.9H204.6m17.2,2.8H204.6" class="gh_335"/>
<path clip-path="url(#c3_335)" d="M200.1,137.2h24.7v-5H200.1v5Z" class="gi_335"/>
<path clip-path="url(#c4_335)" d="M200.1,137.2c.1,-1.3,.7,-2.5,1.6,-3.4c1,-1,2.3,-1.6,3.9,-1.6h19.2v5Zm25.2,-5.5H205.6c-3.4,0,-6.1,2.7,-6.1,6h25.8v-6h-.5h.5Z" class="gj_335"/>
<path d="M199.5,108.8v34.3" class="gh_335"/>
<path d="M217.2,145.5h3.3V134.7h-3.3v10.8Z" class="gk_335"/>
<path d="M32.1,45.1H9.2m958.3,0h22.9M32.1,1331.3H9.2m958.3,0h22.9M45.1,32.1V9.2m0,1335.1v22.9M954.5,32.1V9.2m0,1335.1v22.9" class="gl_335"/>
<path d="M32.1,45.1H9.2m958.3,0h22.9M32.1,1331.3H9.2m958.3,0h22.9M45.1,32.1V9.2m0,1335.1v22.9M954.5,32.1V9.2m0,1335.1v22.9" class="gm_335"/>
<path d="M27.5,32.1H0m972.1,0h27.5M27.5,1344.3H0m972.1,0h27.5M32.1,27.5V0m0,1348.9v27.5M967.5,27.5V0m0,1348.9v27.5" class="gl_335"/>
<path d="M27.5,32.1H0m972.1,0h27.5M27.5,1344.3H0m972.1,0h27.5M32.1,27.5V0m0,1348.9v27.5M967.5,27.5V0m0,1348.9v27.5" class="gm_335"/>
</svg>