<?xml version="1.0" encoding="UTF-8" standalone="no"?>
<!DOCTYPE svg PUBLIC "-//W3C//DTD SVG 1.1//EN"
"http://www.w3.org/Graphics/SVG/1.1/DTD/svg11.dtd">
<svg viewBox="0 0 999 1376" version="1.1" xmlns="http://www.w3.org/2000/svg" xmlns:xlink="http://www.w3.org/1999/xlink">
<defs>
<clipPath id="c0_100"><path d="M32.1,1344.3V32.1H967.5V1344.3Z"/></clipPath>
<clipPath id="c1_100"><path d="M220.5,483.6V390.5H354.7v93.1Z"/></clipPath>
<clipPath id="c2_100"><path d="M220.5,597.6V504.5H354.7v93.1Z"/></clipPath>
<clipPath id="c3_100"><path d="M220.5,715.7V613.2H354.7V715.7Z"/></clipPath>
<clipPath id="c4_100"><path d="M176.6,291.4l-6.5,-2.1L153.7,275.4V218.3h72v73.1Z"/></clipPath>
<clipPath id="c5_100"><path d="M179,841.6l-6.5,-2.1L156.2,825.6V768.5h71.9v73.1Z"/></clipPath>
<style type="text/css"><![CDATA[
.g0_100{
fill: #FEFCF4;
}
.g1_100{
fill: #F16865;
}
.g2_100{
fill: #FAC3B8;
}
.g3_100{
fill: #EE314A;
}
.g4_100{
fill: #26292E;
}
.g5_100{
fill: #C5CACC;
}
.g6_100{
fill: #FFF;
}
.g7_100{
fill: #F1EBEB;
}
.g8_100{
fill: #F7943B;
}
.g9_100{
fill: #ACB5B9;
}
.ga_100{
fill: #CFD3D5;
}
.gb_100{
fill: none;
stroke: #6381B7;
stroke-width: 0.763;
}
.gc_100{
fill: #6381B7;
}
.gd_100{
fill: none;
stroke: #6381B7;
stroke-width: 0.381;
stroke-dasharray: 2,1;
}
.ge_100{
fill: none;
stroke: #6381B7;
stroke-width: 0.381;
}
.gf_100{
fill: #FCE8B0;
}
.gg_100{
fill: #E3E7F2;
}
.gh_100{
fill: none;
stroke: #231F20;
stroke-width: 0.458;
stroke-miterlimit: 10;
}
.gi_100{
fill: none;
stroke: #FFF;
stroke-width: 1.909;
stroke-miterlimit: 10;
}
.gj_100{
fill: none;
stroke: #000;
stroke-width: 0.381;
stroke-miterlimit: 10;
}
]]></style>
</defs>
<path clip-path="url(#c0_100)" d="M954.5,1344.3H1877V32.1H954.5V1344.3Z" class="g0_100"/>
<path d="M32.1,1344.3H954.5V32.1H32.1V1344.3Z" class="g0_100"/>
<path clip-path="url(#c0_100)" d="M1777.4,166.7c0,0,30.3,0,30.3,-30.3v-4.3c0,0,0,-30.3,-30.3,-30.3H173.9c0,0,-30.3,0,-30.3,30.3v4.3c0,0,0,30.3,30.3,30.3Z" class="g1_100"/>
<path d="M186.5,132.1c0,27.1,-22,49,-49.1,49c-27,0,-49,-21.9,-49,-49c0,-27.1,22,-49.1,49,-49.1c27.1,0,49.1,22,49.1,49.1Z" class="g2_100"/>
<path d="M178.1,104.6c15.2,22.5,9.2,53,-13.2,68.1c-22.5,15.2,-53,9.3,-68.1,-13.2Z" class="g3_100"/>
<path d="M96.8,159.5h81.3V104.7H96.8v54.8Z" class="g4_100"/>
<path d="M137.7,156.8h16.8V136.6H137.7v20.2Z" class="g5_100"/>
<path d="M143.1,156.8h33.7V102.6H143.1v54.2Z" class="g5_100"/>
<path d="M141.6,103v50c.5,-.3,1,-.4,1.5,-.4h33.7v-50H143.1c-.5,0,-1,.2,-1.5,.4Z" class="g6_100"/>
<path d="M137.7,109v47.8c0,0,2.5,-3.1,3.9,-3.8V103c-2.2,1.1,-3.9,4.3,-3.9,6Z" class="g7_100"/>
<path d="M143.5,112.3h29.1v-1.4H143.5v1.4Z" class="g5_100"/>
<path d="M143.5,115.5h29.1v-1.4H143.5v1.4Z" class="g5_100"/>
<path d="M143.5,118.8h29.1v-1.5H143.5v1.5Z" class="g5_100"/>
<path d="M143.5,122h29.1v-1.5H143.5V122Z" class="g5_100"/>
<path d="M143.5,125.2h29.1v-1.5H143.5v1.5Z" class="g5_100"/>
<path d="M143.5,128.4h29.1v-1.5H143.5v1.5Z" class="g5_100"/>
<path d="M143.5,131.6h29.1v-1.5H143.5v1.5Z" class="g5_100"/>
<path d="M143.5,134.8h29.1v-1.5H143.5v1.5Z" class="g5_100"/>
<path d="M143.5,138h29.1v-1.4H143.5V138Z" class="g5_100"/>
<path d="M143.5,141.2h29.1v-1.4H143.5v1.4Z" class="g5_100"/>
<path d="M143.5,144.4h29.1V143H143.5v1.4Z" class="g5_100"/>
<path d="M143.5,147.6h29.1v-1.4H143.5v1.4Z" class="g5_100"/>
<path d="M159.7,150.9l1,-.9l1,.9v-49h-2Z" class="g8_100"/>
<path d="M120.9,156.8h16.8V136.6H120.9v20.2Z" class="g9_100"/>
<path d="M98.6,156.8h33.6V102.6H98.6v54.2Z" class="g9_100"/>
<path d="M98.6,102.6v50h33.6c.6,0,1.1,.1,1.6,.4V103c-.5,-.2,-1,-.4,-1.6,-.4Z" class="g6_100"/>
<path d="M133.8,103v50c1.4,.7,3.9,3.8,3.9,3.8V109c0,-1.7,-1.7,-4.9,-3.9,-6Z" class="ga_100"/>
<path d="M109.7,112.3h14.5v-1.4H109.7v1.4Z" class="g5_100"/>
<path d="M102.8,118.8h29.1v-1.5H102.8v1.5Z" class="g5_100"/>
<path d="M102.8,122h29.1v-1.5H102.8V122Z" class="g5_100"/>
<path d="M102.8,125.2h29.1v-1.5H102.8v1.5Z" class="g5_100"/>
<path d="M102.8,128.4h29.1v-1.5H102.8v1.5Z" class="g5_100"/>
<path d="M102.8,131.6h29.1v-1.5H102.8v1.5Z" class="g5_100"/>
<path d="M102.8,134.8h29.1v-1.5H102.8v1.5Z" class="g5_100"/>
<path d="M102.8,138h29.1v-1.4H102.8V138Z" class="g5_100"/>
<path d="M102.8,141.2h29.1v-1.4H102.8v1.4Z" class="g5_100"/>
<path d="M102.8,144.4h29.1V143H102.8v1.4Z" class="g5_100"/>
<path d="M102.8,147.6h29.1v-1.4H102.8v1.4Z" class="g5_100"/>
<path d="M145.1,861.8c0,0,-13,0,-13,13v293.7c0,0,0,13,13,13H832.9c0,0,13,0,13,-13V874.8c0,0,0,-13,-13,-13Z" class="g6_100"/>
<path d="M145.1,861.8c0,0,-13,0,-13,13v293.7c0,0,0,13,13,13H832.9c0,0,13,0,13,-13V874.8c0,0,0,-13,-13,-13H145.1Z" class="gb_100"/>
<path d="M145.1,307.5c0,0,-13,0,-13,13V712.7c0,0,0,13,13,13H832.9c0,0,13,0,13,-13V320.5c0,0,0,-13,-13,-13Z" class="g6_100"/>
<path d="M145.1,307.5c0,0,-13,0,-13,13V712.7c0,0,0,13,13,13H832.9c0,0,13,0,13,-13V320.5c0,0,0,-13,-13,-13H145.1Z" class="gb_100"/>
<image clip-path="url(#c1_100)" preserveAspectRatio="none" x="219" y="389" width="137" height="96" xlink:href="img/1.png"/>
<image clip-path="url(#c2_100)" preserveAspectRatio="none" x="219" y="503" width="137" height="96" xlink:href="img/2.png"/>
<image clip-path="url(#c3_100)" preserveAspectRatio="none" x="219" y="612" width="137" height="105" xlink:href="img/3.png"/>
<path d="M608,1198.8c0,0,-4.3,0,-4.3,4.3v10.8c0,0,0,4.3,4.3,4.3h30.3c0,0,4.4,0,4.4,-4.3v-10.8c0,0,0,-4.3,-4.4,-4.3Z" class="gc_100"/>
<path d="M594.8,1189.9v37.6m1.4,.9H844.7m.9,-1.3v-37.6m-1.3,-.9H595.8" class="gd_100"/>
<path d="M594.8,1227.8v.6h.6m249.7,0h.5v-.6m0,-38.7v-.5h-.5m-249.7,0h-.6v.5" class="ge_100"/>
<path d="M211.7,220.5c0,0,-13,0,-13,13v47.6c0,0,0,13,13,13H833.3c0,0,13,0,13,-13V233.5c0,0,0,-13,-13,-13Z" class="gf_100"/>
<image clip-path="url(#c4_100)" preserveAspectRatio="none" x="152" y="217" width="75" height="76" xlink:href="img/4.png"/>
<path d="M204,286.7c0,0,-26.8,11.3,-51.1,-12.7c0,0,15.2,25.3,49.3,23.9c0,0,24.8,.4,20.3,-10.1c0,0,1.2,-4.4,-18.5,-1.1Z" class="gf_100"/>
<path d="M211.7,796.6c0,0,-13,0,-13,13v21.7c0,0,0,13,13,13H833.3c0,0,13,0,13,-13V809.6c0,0,0,-13,-13,-13Z" class="gf_100"/>
<image clip-path="url(#c5_100)" preserveAspectRatio="none" x="155" y="767" width="75" height="76" xlink:href="img/5.png"/>
<path d="M206.5,836.9c0,0,-26.9,11.3,-51.1,-12.7c0,0,15.1,25.3,49.3,23.9c0,0,24.7,.4,20.2,-10.1c0,0,1.2,-4.4,-18.4,-1.1Z" class="gf_100"/>
<path d="M201,1008.7H807.3V939.4H201v69.3Z" class="gg_100"/>
<path d="M268.7,968.2H385.6" class="gh_100"/>
<path d="M201,1130.3H807.3V1061H201v69.3Z" class="gg_100"/>
<path d="M234.5,1089.9H351.4" class="gh_100"/>
<path d="M32.1,45.1H9.2m958.3,0h22.9M32.1,1331.3H9.2m958.3,0h22.9M45.1,32.1V9.2m0,1335.1v22.9M954.5,32.1V9.2m0,1335.1v22.9" class="gi_100"/>
<path d="M32.1,45.1H9.2m958.3,0h22.9M32.1,1331.3H9.2m958.3,0h22.9M45.1,32.1V9.2m0,1335.1v22.9M954.5,32.1V9.2m0,1335.1v22.9" class="gj_100"/>
<path d="M27.5,32.1H0m972.1,0h27.5M27.5,1344.3H0m972.1,0h27.5M32.1,27.5V0m0,1348.9v27.5M967.5,27.5V0m0,1348.9v27.5" class="gi_100"/>
<path d="M27.5,32.1H0m972.1,0h27.5M27.5,1344.3H0m972.1,0h27.5M32.1,27.5V0m0,1348.9v27.5M967.5,27.5V0m0,1348.9v27.5" class="gj_100"/>
</svg>