<?xml version="1.0" encoding="UTF-8" standalone="no"?>
<!DOCTYPE svg PUBLIC "-//W3C//DTD SVG 1.1//EN"
"http://www.w3.org/Graphics/SVG/1.1/DTD/svg11.dtd">
<svg viewBox="0 0 999 1376" version="1.1" xmlns="http://www.w3.org/2000/svg" xmlns:xlink="http://www.w3.org/1999/xlink">
<defs>
<clipPath id="c0_289"><path d="M153.3,1244.7V131.7H867.9v1113Z"/></clipPath>
<clipPath id="c1_289"><path d="M233,1218V1006.5H883.7V1218Z"/></clipPath>
<style type="text/css"><![CDATA[
.g0_289{
fill: #FFF;
}
.g1_289{
fill: none;
stroke: #231F20;
stroke-width: 0.756;
stroke-miterlimit: 3;
}
.g2_289{
fill: #25408F;
}
.g3_289{
fill: #6381B7;
}
.g4_289{
fill: #FFDE2C;
}
.g5_289{
fill: none;
stroke: #231F20;
stroke-width: 1.451;
stroke-miterlimit: 10;
}
.g6_289{
fill: #D2D3D5;
}
.g7_289{
fill: #A8AAAD;
}
.g8_289{
fill: none;
stroke: #231F20;
stroke-width: 0.828;
stroke-miterlimit: 10;
}
.g9_289{
fill: #6CCFF6;
}
.ga_289{
fill: none;
stroke: #231F20;
stroke-width: 0.828;
stroke-linecap: round;
stroke-linejoin: round;
}
.gb_289{
fill: none;
stroke: #231F20;
stroke-width: 1.451;
stroke-linecap: round;
stroke-linejoin: round;
}
.gc_289{
fill: none;
stroke: #FFF;
stroke-width: 1.909;
stroke-miterlimit: 10;
}
.gd_289{
fill: none;
stroke: #000;
stroke-width: 0.381;
stroke-miterlimit: 10;
}
]]></style>
</defs>
<path d="M153.3,1244.7H867.9V131.7H153.3v1113Z" class="g0_289"/>
<image clip-path="url(#c0_289)" preserveAspectRatio="none" x="151" y="130" width="719" height="1117" xlink:href="img/1.jpg"/>
<path d="M379.6,192h-2.3v-5.6c-1.2,.6,-2.4,1,-3.6,1.4c-1.3,.4,-2.8,.5,-4.5,.5h-9.8v-1.8h6.7v-4.3c-1.7,-.2,-3,-.8,-4.1,-2c-1,-1.1,-1.5,-2.5,-1.5,-4.2c0,-.9,.2,-1.8,.5,-2.6c.3,-.7,.8,-1.4,1.4,-1.9c.5,-.6,1.2,-1,2,-1.3c.8,-.3,1.7,-.5,2.7,-.5c.9,0,1.8,.2,2.6,.5c.8,.3,1.5,.7,2.1,1.3c.6,.5,1,1.2,1.4,1.9c.3,.8,.5,1.7,.5,2.6c0,1.7,-.5,3.1,-1.5,4.2c-1,1.1,-2.3,1.7,-3.8,2v4.3h.8c1.4,0,2.8,-.1,4.1,-.4c1.4,-.3,2.7,-.9,4,-1.8V169.5h2.3V192Zm-9.4,-19.2c-.8,-.8,-1.8,-1.2,-3.1,-1.2c-1.3,0,-2.3,.4,-3.1,1.2c-.8,.8,-1.2,1.8,-1.2,3.2c0,1.5,.4,2.6,1.2,3.3c.8,.7,1.8,1.1,3.1,1.1c1.3,0,2.3,-.4,3.1,-1.1c.8,-.7,1.2,-1.8,1.2,-3.3c0,-1.4,-.4,-2.4,-1.2,-3.2Zm33.5,7.7h-10v4.3h4.8c.9,0,1.4,.2,1.7,.6c.3,.4,.4,.9,.4,1.6l-.3,6.9h-1.9v-6.5c0,-.3,-.1,-.5,-.2,-.6c-.1,-.2,-.3,-.2,-.6,-.2H384.9v-1.8h6.5v-4.3h-9v-1.8h15.2c.2,-1.1,.4,-2.3,.5,-3.5c.2,-1.3,.3,-2.4,.2,-3.5c0,-.3,0,-.5,-.1,-.6c-.2,-.1,-.4,-.2,-.6,-.2H385.3v-1.8h12.9c.8,0,1.4,.2,1.8,.5c.3,.3,.5,.8,.6,1.5c0,1.1,-.1,2.4,-.3,3.7c-.1,1.4,-.4,2.7,-.6,3.9h4v1.8Zm21.7,5.6h-2.3V169.2h2.3v16.9Zm-12.9,7.5c-.8,0,-1.4,-.2,-1.8,-.5c-.4,-.4,-.6,-.9,-.6,-1.6v-6.7h2.3V191c0,.3,0,.5,.1,.6c.1,.1,.3,.2,.7,.2h7.1c1.1,0,2,-.1,2.8,-.2c.9,-.1,1.8,-.3,2.7,-.6l.5,1.7c-1,.3,-2,.6,-3,.7c-.9,.1,-1.9,.2,-2.9,.2h-7.9ZM418,177.9c-.3,.8,-.8,1.4,-1.4,2c-.6,.5,-1.2,.9,-2,1.3c-.8,.3,-1.6,.4,-2.5,.4c-1,0,-1.8,-.1,-2.6,-.5c-.8,-.3,-1.5,-.7,-2,-1.3c-.6,-.5,-1,-1.2,-1.3,-1.9c-.3,-.8,-.5,-1.6,-.5,-2.4c0,-.8,.2,-1.6,.5,-2.3c.3,-.8,.8,-1.4,1.4,-2c.5,-.5,1.2,-.9,2,-1.3c.7,-.3,1.6,-.4,2.5,-.4c.9,0,1.8,.1,2.6,.5c.7,.3,1.4,.7,2,1.3c.5,.5,1,1.2,1.3,1.9c.3,.8,.5,1.5,.5,2.3c0,.9,-.2,1.7,-.5,2.4Zm-2.9,-5.4c-.7,-.8,-1.7,-1.2,-3,-1.2c-1.3,0,-2.3,.4,-3,1.2c-.7,.9,-1.1,1.9,-1.1,3c0,1.2,.4,2.2,1.1,3c.7,.9,1.7,1.3,3,1.3c1.3,0,2.3,-.4,3,-1.3c.7,-.8,1.1,-1.8,1.1,-3c0,-1.1,-.4,-2.1,-1.1,-3Zm41.8,9.1H435.5v-1.8h15.1c.1,-.6,.2,-1.2,.3,-1.9c.1,-.6,.2,-1.3,.3,-2c.1,-.7,.2,-1.4,.2,-2.1c0,-.6,.1,-1.3,.1,-1.9c0,-.2,-.1,-.4,-.2,-.5c-.1,-.1,-.3,-.2,-.6,-.2H438.4v-1.8h12.9c.8,0,1.4,.2,1.8,.5c.4,.3,.6,.8,.6,1.5c0,.6,0,1.2,-.1,1.9c0,.7,-.1,1.5,-.2,2.2c-.1,.7,-.2,1.5,-.3,2.2c-.1,.8,-.2,1.5,-.4,2.1h4.2v1.8Zm-16.3,12c-.8,0,-1.4,-.2,-1.8,-.5c-.4,-.4,-.6,-.9,-.6,-1.6v-6.4h2.3V191c0,.3,0,.5,.1,.6c.1,.1,.4,.2,.7,.2h7.2c1,0,2,-.1,2.8,-.2c.9,-.1,1.7,-.3,2.7,-.6l.5,1.7c-1.1,.3,-2.1,.6,-3,.7c-.9,.1,-1.9,.2,-3,.2h-7.9Zm22.9,-13.4c0,.3,.1,.5,.2,.7c.1,.1,.3,.2,.6,.2h5.5c1.1,0,2.3,0,3.4,-.1c1.2,-.1,2.4,-.3,3.7,-.7l.4,1.8c-.7,.2,-1.3,.3,-1.9,.4c-.6,.1,-1.2,.2,-1.7,.3c-.6,.1,-1.2,.1,-1.7,.1c-.6,0,-1.2,.1,-1.9,.1v4.2h9.7V189H458.4v-1.8h9.5V183h-3.7c-1,0,-1.7,-.2,-2.2,-.6c-.5,-.4,-.7,-1.1,-.7,-1.9v-4.9h12.8V172H461.3v-1.8h15v6.6c-.6,.2,-1.3,.4,-1.8,.5c-.6,.1,-1.3,.2,-1.9,.2h-9.1v2.7Zm17.8,4.9c1.2,-.8,2.3,-1.7,3.4,-2.7c1.1,-1,2,-2,2.9,-3c.8,-1.1,1.5,-2.2,2,-3.3c.6,-1.1,.9,-2.1,1.1,-3.2c0,-.2,0,-.4,-.1,-.5c-.1,-.1,-.3,-.1,-.5,-.1h-8v-1.8h9.1c.9,0,1.4,.2,1.6,.8c.2,.5,.3,1.1,.2,1.7c-.2,1,-.5,2,-.9,3.1c-.5,1,-1,2,-1.7,3c.5,.2,1,.4,1.4,.7c.3,.3,.7,.6,1,1c.5,.8,1.1,1.6,1.6,2.4c.6,.9,1.1,1.7,1.6,2.5l-1.7,1.2c-.6,-.9,-1.1,-1.8,-1.7,-2.7c-.6,-.9,-1,-1.6,-1.4,-2.1c-.3,-.3,-.5,-.5,-.8,-.8c-.3,-.2,-.7,-.4,-1.2,-.6c-.9,1.1,-1.9,2.2,-3,3.3c-1.2,1,-2.4,2,-3.7,2.9l-1.2,-1.8Zm23.9,-4.9h-4.3V192h-2.3V169.5h2.3v8.9h4.3v1.8Zm12.7,7v-7.6h2.2v7.6h3.8v-7.6h2.2v7.6h8.5V189H513.3v-1.8h4.6Zm10.2,-3.1c.3,-1.5,.6,-3.2,.9,-5c.2,-1.8,.3,-3.8,.3,-6c0,-.3,0,-.6,-.2,-.7c-.2,-.1,-.4,-.2,-.8,-.2H515.7v-1.8H529c1,0,1.6,.2,2,.6c.4,.5,.5,1.1,.5,1.8c0,2,-.1,4,-.4,6c-.2,2.1,-.6,4,-1,5.7l-2,-.4Zm24.6,-8.2c-.4,.7,-.9,1.2,-1.5,1.7c-.6,.4,-1.3,.8,-2.1,1c-.7,.3,-1.6,.4,-2.4,.4c-.9,0,-1.7,-.1,-2.5,-.4c-.8,-.2,-1.5,-.6,-2.1,-1c-.6,-.5,-1.1,-1,-1.5,-1.7c-.4,-.7,-.5,-1.4,-.5,-2.2c0,-.9,.1,-1.6,.5,-2.3c.4,-.6,.9,-1.2,1.5,-1.7c.6,-.4,1.3,-.7,2.1,-1c.8,-.3,1.6,-.4,2.5,-.4c.9,0,1.7,.1,2.5,.4c.8,.3,1.4,.6,2,1c.6,.5,1.1,1.1,1.5,1.7c.3,.7,.5,1.4,.5,2.3c0,.8,-.2,1.5,-.5,2.2Zm4.9,6.6h-6v3.2h1c.9,0,1.5,.1,1.8,.5c.2,.3,.4,.8,.4,1.4l-.3,6.3h-2v-5.8c0,-.2,-.1,-.4,-.2,-.5c-.1,-.1,-.3,-.2,-.6,-.2h-13v-1.7h3.1v-3.2h-5.5v-1.8h21.3v1.8ZM549.7,171c-.8,-.6,-1.8,-.9,-3,-.9c-1.2,0,-2.3,.3,-3.1,.9c-.8,.7,-1.3,1.5,-1.3,2.7c0,1.1,.5,2,1.3,2.6c.8,.6,1.9,.9,3.1,.9c1.2,0,2.2,-.3,3,-.9c.8,-.6,1.2,-1.5,1.2,-2.6c0,-1.2,-.4,-2,-1.2,-2.7Zm-5.6,14.7h5.2v-3.2h-5.2v3.2Zm43.4,3.1H566.1v-1.9h21.4v1.9ZM568.4,170.2h16.5V172H568.4v-1.8Zm13.7,3.2v3.7c0,.6,-.1,1.2,-.2,1.7c-.1,.6,-.3,1.2,-.6,1.8h3.8v1.8H568.2v-1.8H572c-.3,-.5,-.5,-1.1,-.6,-1.7c-.1,-.6,-.2,-1.2,-.2,-1.7v-3.8h2.2v3.9c0,.6,0,1.2,.2,1.7c.1,.6,.3,1.1,.5,1.6h5.1c.3,-.5,.4,-1.1,.5,-1.7c.1,-.5,.2,-1.1,.2,-1.7v-3.8h2.2Zm12.1,6.8c0,.3,0,.5,.1,.7c.2,.1,.4,.2,.7,.2h5.4c1.2,0,2.3,0,3.4,-.1c1.2,-.1,2.4,-.3,3.8,-.7l.3,1.8c-.7,.2,-1.3,.3,-1.9,.4c-.6,.1,-1.2,.2,-1.7,.3c-.6,.1,-1.1,.1,-1.7,.1c-.6,0,-1.2,.1,-1.9,.1v4.2h9.7V189H589.1v-1.8h9.4V183h-3.7c-.9,0,-1.7,-.2,-2.1,-.6c-.5,-.4,-.8,-1.1,-.8,-1.9v-4.9h12.8V172H591.9v-1.8h15v6.6c-.6,.2,-1.2,.4,-1.8,.5c-.6,.1,-1.2,.2,-1.9,.2h-9v2.7Zm39.1,8.3H612v-1.9h21.3v1.9Zm-6.6,-4.7c.3,-1.5,.6,-3.1,.9,-4.9c.3,-1.7,.4,-3.6,.4,-5.8c0,-.3,0,-.5,-.2,-.7c-.1,-.1,-.4,-.2,-.7,-.2H614.4v-1.8h13.3c1,0,1.6,.2,2,.6c.4,.5,.5,1.1,.5,1.9c0,1.9,-.2,3.9,-.4,5.8c-.3,2,-.7,3.8,-1.1,5.5l-2,-.4Zm29.4,9.6c-.1,.2,-.1,.3,-.3,.4c-.1,.1,-.2,.1,-.5,.1H643.1c-.9,0,-1.5,-.2,-1.9,-.6c-.3,-.4,-.5,-1,-.5,-1.8v-6.8h14.4c.5,0,.9,.2,1.1,.5c.3,.3,.4,.8,.3,1.5l-.4,6.7Zm-5.2,-18.3h3.6v-5.9h2.1v14h-2.1V177h-3.6v6.2h-2.1V180c-1.1,.5,-2.3,.8,-3.4,1.1c-1.2,.3,-2.3,.4,-3.4,.4h-2.9c-1,0,-1.7,-.2,-2.2,-.6c-.5,-.3,-.7,-1,-.7,-1.9v-4.4h7.1v-3.2h-7.1v-1.8h9.2v6.2c-.6,.2,-1.2,.3,-1.8,.4c-.6,.1,-1.2,.2,-1.9,.2h-3.4v2.5c0,.3,.1,.5,.2,.7c.1,.1,.3,.1,.6,.1h3c1,0,2.1,-.1,3.3,-.4c1.2,-.2,2.3,-.7,3.4,-1.2v-8.9h2.1v5.9Zm3.3,17v-5.6H642.9v4.7c0,.3,.1,.6,.2,.7c.1,.2,.3,.2,.7,.2h10.4Z" class="g1_289"/>
<image clip-path="url(#c1_289)" preserveAspectRatio="none" x="231" y="1005" width="654" height="215" xlink:href="img/2.png"/>
<path d="M153.3,126.3v22.2L165,158.7V136.5Z" class="g2_289"/>
<path d="M153.3,109.5v39H851.1c0,0,16.8,0,16.8,-16.8v-5.4c0,0,0,-16.8,-16.8,-16.8Z" class="g3_289"/>
<path d="M207.2,115.7c0,-9.1,-7.9,-16.6,-17.7,-16.6c-9.8,0,-17.7,7.5,-17.7,16.6c0,2.7,.6,5.2,1.8,7.4c1.2,2.4,2.9,4.6,5,6.2c1.2,1,1.6,1.7,1.7,4.3v.6c0,3.3,2.7,5.9,5.9,5.9h6.6c3.2,0,5.8,-2.6,5.8,-5.9v-.6c.2,-2.6,.6,-3.3,1.8,-4.3c2.1,-1.6,3.8,-3.8,5,-6.2c1.2,-2.2,1.8,-4.7,1.8,-7.4Z" class="g4_289"/>
<path d="M207.2,115.7c0,-9.1,-7.9,-16.6,-17.7,-16.6c-9.8,0,-17.7,7.5,-17.7,16.6c0,2.7,.6,5.2,1.8,7.4c1.2,2.4,2.9,4.6,5,6.2c1.2,1,1.6,1.7,1.7,4.3v.6c0,3.3,2.7,5.9,5.9,5.9h6.6c3.2,0,5.8,-2.6,5.8,-5.9v-.6c.2,-2.6,.6,-3.3,1.8,-4.3c2.1,-1.6,3.8,-3.8,5,-6.2c1.2,-2.2,1.8,-4.7,1.8,-7.4Z" class="g5_289"/>
<path d="M194.6,147.4c0,2.8,-2.3,5.1,-5.1,5.1c-2.8,0,-5.1,-2.3,-5.1,-5.1c0,-2.8,2.3,-5.1,5.1,-5.1c2.8,0,5.1,2.3,5.1,5.1Z" class="g0_289"/>
<path d="M194.6,147.4c0,2.8,-2.3,5.1,-5.1,5.1c-2.8,0,-5.1,-2.3,-5.1,-5.1c0,-2.8,2.3,-5.1,5.1,-5.1c2.8,0,5.1,2.3,5.1,5.1Z" class="g5_289"/>
<path d="M182.1,140.2c0,1,.8,1.8,1.8,1.8h11.2c1,0,1.8,-.8,1.8,-1.8v-1.3H182.1Z" class="g0_289"/>
<path d="M182.1,140.2c0,1,.8,1.8,1.8,1.8h11.2c1,0,1.8,-.8,1.8,-1.8v-1.3H182.1v1.3Z" class="g5_289"/>
<path d="M196.9,143.2c0,.8,-.6,1.3,-1.3,1.3H183.4c-.8,0,-1.3,-.5,-1.3,-1.3c0,-.7,.5,-1.3,1.3,-1.3h12.2c.7,0,1.3,.6,1.3,1.3Z" class="g0_289"/>
<path d="M196.9,143.2c0,.8,-.6,1.3,-1.3,1.3H183.4c-.8,0,-1.3,-.5,-1.3,-1.3c0,-.7,.5,-1.3,1.3,-1.3h12.2c.7,0,1.3,.6,1.3,1.3Z" class="g5_289"/>
<path d="M196.9,145.8c0,.7,-.6,1.3,-1.3,1.3H183.4c-.8,0,-1.3,-.6,-1.3,-1.3c0,-.7,.5,-1.3,1.3,-1.3h12.2c.7,0,1.3,.6,1.3,1.3Z" class="g0_289"/>
<path d="M196.9,145.8c0,.7,-.6,1.3,-1.3,1.3H183.4c-.8,0,-1.3,-.6,-1.3,-1.3c0,-.7,.5,-1.3,1.3,-1.3h12.2c.7,0,1.3,.6,1.3,1.3Z" class="g5_289"/>
<path d="M215.5,128.7l8.3,10.4c.6,.7,1.8,.6,2.7,-.2c.9,-.7,1.2,-1.9,.7,-2.6l-8.9,-10.2Z" class="g6_289"/>
<path d="M215.5,128.7l8.3,10.4c.6,.7,1.8,.6,2.7,-.2c.9,-.7,1.2,-1.9,.7,-2.6l-8.9,-10.2l-2.8,2.6Z" class="g5_289"/>
<path d="M217.5,125.1c.5,.6,.3,1.8,-.7,2.6c-.9,.7,-2.1,.8,-2.6,.2c-.6,-.7,-.3,-1.9,.6,-2.6c.9,-.8,2.1,-.9,2.7,-.2Z" class="g7_289"/>
<path d="M217.5,125.1c.5,.6,.3,1.8,-.7,2.6c-.9,.7,-2.1,.8,-2.6,.2c-.6,-.7,-.3,-1.9,.6,-2.6c.9,-.8,2.1,-.9,2.7,-.2Z" class="g5_289"/>
<path d="M212.7,124.7l1.7,2c.3,.3,1,.3,1.5,-.1c.5,-.5,.7,-1.1,.4,-1.5l-1.7,-2Z" class="g0_289"/>
<path d="M212.7,124.7l1.7,2c.3,.3,1,.3,1.5,-.1c.5,-.5,.7,-1.1,.4,-1.5l-1.7,-2l-1.9,1.6Z" class="g8_289"/>
<path d="M214.8,122.9c.4,.5,.2,1.3,-.5,1.8c-.6,.5,-1.4,.6,-1.8,.1c-.4,-.4,-.2,-1.2,.5,-1.7c.6,-.6,1.4,-.6,1.8,-.2Z" class="g0_289"/>
<path d="M214.8,122.9c.4,.5,.2,1.3,-.5,1.8c-.6,.5,-1.4,.6,-1.8,.1c-.4,-.4,-.2,-1.2,.5,-1.7c.6,-.6,1.4,-.6,1.8,-.2Z" class="g8_289"/>
<path d="M216.4,105.4c4.8,5.7,4.1,14.2,-1.7,19c-5.7,4.8,-14.2,4,-19,-1.7c-4.8,-5.7,-4,-14.2,1.7,-19c5.7,-4.8,14.2,-4.1,19,1.7Z" class="g0_289"/>
<path d="M216.4,105.4c4.8,5.7,4.1,14.2,-1.7,19c-5.7,4.8,-14.2,4,-19,-1.7c-4.8,-5.7,-4,-14.2,1.7,-19c5.7,-4.8,14.2,-4.1,19,1.7Z" class="g5_289"/>
<path d="M214,107.4c3.5,4.2,3,10.5,-1.3,14.1c-4.2,3.5,-10.5,2.9,-14,-1.3c-3.5,-4.2,-3,-10.5,1.2,-14c4.2,-3.6,10.5,-3,14.1,1.2Z" class="g9_289"/>
<path d="M214,107.4c3.5,4.2,3,10.5,-1.3,14.1c-4.2,3.5,-10.5,2.9,-14,-1.3c-3.5,-4.2,-3,-10.5,1.2,-14c4.2,-3.6,10.5,-3,14.1,1.2Z" class="g5_289"/>
<path d="M213,110.6l-3.1,3m3.1,-.4l-3.1,3" class="ga_289"/>
<path d="M172.1,99l3.1,3.3m1.1,-5.9l1.2,3.9m-8.1,3l3.7,1.2" class="gb_289"/>
<path d="M185.8,106.1c1.2,1.2,.2,4.3,-2.2,6.7c-2.5,2.5,-5.5,3.5,-6.8,2.3c-1.2,-1.3,-.3,-4.3,2.2,-6.8c2.5,-2.5,5.5,-3.5,6.8,-2.2Z" class="g0_289"/>
<path d="M203.7,107.6c.6,.6,.1,1.9,-.9,3c-1.1,1,-2.4,1.5,-3,.9c-.5,-.5,-.1,-1.8,1,-2.9c1.1,-1.1,2.4,-1.5,2.9,-1Z" class="g0_289"/>
<path d="M32.1,45.1H9.2m958.3,0h22.9M32.1,1331.3H9.2m958.3,0h22.9M45.1,32.1V9.2m0,1335.1v22.9M954.5,32.1V9.2m0,1335.1v22.9" class="gc_289"/>
<path d="M32.1,45.1H9.2m958.3,0h22.9M32.1,1331.3H9.2m958.3,0h22.9M45.1,32.1V9.2m0,1335.1v22.9M954.5,32.1V9.2m0,1335.1v22.9" class="gd_289"/>
<path d="M27.5,32.1H0m972.1,0h27.5M27.5,1344.3H0m972.1,0h27.5M32.1,27.5V0m0,1348.9v27.5M967.5,27.5V0m0,1348.9v27.5" class="gc_289"/>
<path d="M27.5,32.1H0m972.1,0h27.5M27.5,1344.3H0m972.1,0h27.5M32.1,27.5V0m0,1348.9v27.5M967.5,27.5V0m0,1348.9v27.5" class="gd_289"/>
</svg>