<?xml version="1.0" encoding="UTF-8" standalone="no"?>
<!DOCTYPE svg PUBLIC "-//W3C//DTD SVG 1.1//EN"
"http://www.w3.org/Graphics/SVG/1.1/DTD/svg11.dtd">
<svg viewBox="0 0 999 1376" version="1.1" xmlns="http://www.w3.org/2000/svg" xmlns:xlink="http://www.w3.org/1999/xlink">
<defs>
<clipPath id="c0_68"><path d="M32.1,1344.3V32.1H967.5V1344.3Z"/></clipPath>
<clipPath id="c1_68"><path d="M201.8,906.3V827.1h64.4v79.2Z"/></clipPath>
<clipPath id="c2_68"><path d="M524.2,905.8V826.6h83v79.2Z"/></clipPath>
<clipPath id="c3_68"><path d="M277,796.5V743h51.9v53.5Z"/></clipPath>
<clipPath id="c4_68"><path d="M209.2,1166.8v-97.6h57v97.6Z"/></clipPath>
<clipPath id="c5_68"><path d="M529.9,1165V1063.4H603V1165Z"/></clipPath>
<clipPath id="c6_68"><path d="M277,1045.7V983.4h37.6v62.3Z"/></clipPath>
<clipPath id="c7_68"><path d="M176.6,668.7l-6.5,-2.2L153.7,652.6V595.5h72v73.2Z"/></clipPath>
<clipPath id="c8_68"><path d="M178.4,137.2c.1,-1.3,.7,-2.5,1.6,-3.4c1,-1,2.4,-1.6,3.9,-1.6h19.2v5Z"/></clipPath>
<clipPath id="c9_68"><path d="M177.9,137.7v-6h25.7v6Z"/></clipPath>
<style type="text/css"><![CDATA[
.g0_68{
fill: #FEFCF4;
}
.g1_68{
fill: #DEF1F3;
}
.g2_68{
fill: #FFF;
}
.g3_68{
fill: none;
stroke: #6381B7;
stroke-width: 0.763;
}
.g4_68{
fill: none;
stroke: #6D6F71;
stroke-width: 0.369;
}
.g5_68{
fill: #48484A;
}
.g6_68{
fill: #E1E0ED;
}
.g7_68{
fill: none;
stroke: #231F20;
stroke-width: 0.305;
stroke-miterlimit: 10;
}
.g8_68{
fill: #7A74A9;
}
.g9_68{
fill: #766FA6;
}
.ga_68{
fill: #6381B7;
}
.gb_68{
fill: none;
stroke: #6381B7;
stroke-width: 0.381;
stroke-dasharray: 2,1;
}
.gc_68{
fill: none;
stroke: #6381B7;
stroke-width: 0.381;
}
.gd_68{
fill: #FCE8B0;
}
.ge_68{
fill: #25408F;
}
.gf_68{
fill: none;
stroke: #231F20;
stroke-width: 1.527;
}
.gg_68{
fill: #39B4D1;
stroke: #2D2A4A;
stroke-width: 1.038;
stroke-linecap: round;
stroke-linejoin: round;
}
.gh_68{
fill: #2D2A4A;
}
.gi_68{
fill: none;
stroke: #2D2A4A;
stroke-width: 1.038;
stroke-linecap: round;
stroke-linejoin: round;
}
.gj_68{
fill: #DEDAD3;
}
.gk_68{
fill: #29263F;
}
.gl_68{
fill: #E15F46;
stroke: #2D2A4A;
stroke-width: 1.038;
stroke-linecap: round;
stroke-linejoin: round;
}
.gm_68{
fill: #F7F8E9;
}
.gn_68{
fill: none;
stroke: #BFD62F;
stroke-width: 1.527;
stroke-linecap: round;
stroke-linejoin: round;
stroke-dasharray: 0,5;
}
.go_68{
fill: none;
stroke: #BFD62F;
stroke-width: 1.527;
stroke-linecap: round;
stroke-linejoin: round;
}
.gp_68{
fill: #BFD62F;
}
.gq_68{
fill: #D1232A;
}
.gr_68{
fill: #233D4A;
}
.gs_68{
fill: #FFE293;
}
.gt_68{
fill: #F89C47;
}
.gu_68{
fill: none;
stroke: #FFF;
stroke-width: 1.909;
stroke-miterlimit: 10;
}
.gv_68{
fill: none;
stroke: #000;
stroke-width: 0.381;
stroke-miterlimit: 10;
}
]]></style>
</defs>
<path clip-path="url(#c0_68)" d="M954.5,1344.3H1877V32.1H954.5V1344.3Z" class="g0_68"/>
<path d="M149,166.3c0,0,-17.3,0,-17.3,17.4v73.6c0,0,0,17.3,17.3,17.3H828.9c0,0,17.4,0,17.4,-17.3V183.7c0,0,0,-17.4,-17.4,-17.4Z" class="g1_68"/>
<path d="M145.1,683.1c0,0,-13,0,-13,12.9v488.6c0,0,0,13,13,13H832.9c0,0,13,0,13,-13V696c0,0,0,-12.9,-13,-12.9Z" class="g2_68"/>
<path d="M145.1,683.1c0,0,-13,0,-13,12.9v488.6c0,0,0,13,13,13H832.9c0,0,13,0,13,-13V696c0,0,0,-12.9,-13,-12.9H145.1Z" class="g3_68"/>
<path d="M201.8,906.3h64.4V827.1H201.8v79.2Z" class="g2_68"/>
<image clip-path="url(#c1_68)" preserveAspectRatio="none" x="200" y="825" width="68" height="83" xlink:href="img/1.png"/>
<path d="M254.3,892.2H466.5" class="g4_68"/>
<path d="M524.2,905.8h83V826.6h-83v79.2Z" class="g2_68"/>
<image clip-path="url(#c2_68)" preserveAspectRatio="none" x="522" y="825" width="87" height="83" xlink:href="img/2.png"/>
<path d="M597,892.2H809.2" class="g4_68"/>
<path d="M182.2,746.9c0,0,-4.3,0,-4.3,4.3V766c0,0,0,4.3,4.1,5.8l52.5,18.5c0,0,4,1.4,4,-2.9V751.2c0,0,0,-4.3,-4.3,-4.3Z" class="g5_68"/>
<path d="M203.4,733.9c0,0,-13,0,-13,13v56.3c0,0,0,13,13,13h602c0,0,12.9,0,12.9,-13V746.9c0,0,0,-13,-12.9,-13Z" class="g6_68"/>
<path d="M364.3,785.8h93.4" class="g7_68"/>
<path d="M182.2,744.7c0,0,-4.3,0,-4.3,4.4v17.3c0,0,0,4.3,4.3,4.3h37.3c0,0,4.4,0,4.4,-4.3V749.1c0,0,0,-4.4,-4.4,-4.4Z" class="g8_68"/>
<image clip-path="url(#c3_68)" preserveAspectRatio="none" x="275" y="741" width="56" height="57" xlink:href="img/3.png"/>
<path d="M209.2,1166.8h57v-97.6h-57v97.6Z" class="g2_68"/>
<image clip-path="url(#c4_68)" preserveAspectRatio="none" x="208" y="1067" width="60" height="102" xlink:href="img/4.png"/>
<path d="M257.5,1150.3H469.7" class="g4_68"/>
<path d="M529.9,1165H603V1063.4H529.9V1165Z" class="g2_68"/>
<image clip-path="url(#c5_68)" preserveAspectRatio="none" x="528" y="1062" width="77" height="105" xlink:href="img/5.png"/>
<path d="M597,1150.3H809.2" class="g4_68"/>
<path d="M182.2,991.6c0,0,-4.3,0,-4.3,4.3v14.8c0,0,0,4.3,4.1,5.7l52.5,18.6c0,0,4,1.4,4,-2.9V995.9c0,0,0,-4.3,-4.3,-4.3Z" class="g5_68"/>
<path d="M203.4,978.6c0,0,-13,0,-13,13v56.3c0,0,0,13,13,13h602c0,0,12.9,0,12.9,-13V991.6c0,0,0,-13,-12.9,-13Z" class="g6_68"/>
<path d="M364.3,1030.5h137" class="g7_68"/>
<path d="M182.2,989.4c0,0,-4.3,0,-4.3,4.4v17.3c0,0,0,4.3,4.3,4.3h37.3c0,0,4.4,0,4.4,-4.3V993.8c0,0,0,-4.4,-4.4,-4.4Z" class="g9_68"/>
<image clip-path="url(#c6_68)" preserveAspectRatio="none" x="275" y="982" width="41" height="66" xlink:href="img/6.png"/>
<path d="M208.6,1214.2c0,0,-4.3,0,-4.3,4.4v10.8c0,0,0,4.3,4.3,4.3h30.3c0,0,4.3,0,4.3,-4.3v-10.8c0,0,0,-4.4,-4.3,-4.4Z" class="ga_68"/>
<path d="M195.4,1206.8v36.7m1.3,1H845.1m1,-1.4v-36.7m-1.4,-1H196.4" class="gb_68"/>
<path d="M195.4,1243.9v.6h.6m649.5,0h.6v-.6m0,-37.9v-.6h-.6m-649.5,0h-.6v.6" class="gc_68"/>
<path d="M209.2,623.7c0,0,-13,0,-13,13v21.6c0,0,0,13,13,13H830.8c0,0,13,0,13,-13V636.7c0,0,0,-13,-13,-13Z" class="gd_68"/>
<image clip-path="url(#c7_68)" preserveAspectRatio="none" x="152" y="594" width="75" height="76" xlink:href="img/7.png"/>
<path d="M204,663.9c0,0,-26.8,11.3,-51.1,-12.7c0,0,15.2,25.3,49.3,23.9c0,0,24.8,.4,20.3,-10.1c0,0,1.2,-4.4,-18.5,-1.1Z" class="gd_68"/>
<path d="M131.7,109.5v39l11.7,10.2V136.5Z" class="ge_68"/>
<path d="M131.7,109.5v39H829.5c0,0,16.8,0,16.8,-16.8v-5.4c0,0,0,-16.8,-16.8,-16.8Z" class="ga_68"/>
<path d="M768.8,131c0,0,-.5,-10,8.6,-9.4c0,0,6.7,-.3,6.6,9.5m-15.3,-1.5v6.5c0,0,-3.3,.3,-3.9,-3c0,0,-.1,-3.8,3.9,-3.5Zm15.4,0v6.5c0,0,3.3,.3,3.9,-3c0,0,.1,-3.8,-3.9,-3.5Z" class="gf_68"/>
<path d="M147.4,140.8h61v-32h-61v32Z" class="gg_68"/>
<path d="M147.4,143.1h61v-2.3h-61v2.3Z" class="gg_68"/>
<path d="M171.8,106.2H152.1v31.5h25.8V112.3c0,-3.4,-2.7,-6.1,-6.1,-6.1Z" class="g2_68"/>
<path d="M171.8,106.2v-.5H152.1c-.1,0,-.3,.1,-.4,.2c-.1,.1,-.1,.2,-.1,.3v31.5c0,.1,0,.3,.1,.4c.1,.1,.3,.1,.4,.1h25.8c.1,0,.2,0,.3,-.1c.1,-.1,.2,-.3,.2,-.4V112.3c0,-3.7,-2.9,-6.6,-6.6,-6.6v1c1.6,0,2.9,.7,3.9,1.7c1,1,1.6,2.3,1.6,3.9v24.9H152.6V106.7h19.2Z" class="gh_68"/>
<path d="M152.1,131.7v6h25.8c0,-3.3,-2.7,-6,-6.1,-6Z" class="g2_68"/>
<path d="M152.1,131.7h-.5v6c0,.1,0,.3,.1,.4c.1,.1,.3,.1,.4,.1h25.8c.1,0,.2,0,.3,-.1c.1,-.1,.2,-.3,.2,-.4c0,-3.6,-3,-6.6,-6.6,-6.6H152.1c-.1,0,-.3,.1,-.4,.2c-.1,.1,-.1,.2,-.1,.4h.5v.5h19.7c1.6,0,2.9,.6,3.9,1.6c1,1,1.6,2.4,1.6,3.9h.6v-.5H152.6v-5.5h-.5v.5Z" class="gh_68"/>
<path d="M155.6,110.9h17.2m-17.2,2.8h17.2m-17.2,2.9h17.2m-17.2,2.9h17.2m-17.2,2.8h17.2m-17.2,2.9h17.2M155.6,128h17.2" class="gi_68"/>
<path d="M171.8,132.2H152.6v5h24.7c-.1,-1.3,-.7,-2.5,-1.6,-3.4c-1,-1,-2.3,-1.6,-3.9,-1.6Z" class="gj_68"/>
<path d="M152.6,132.2h19.2c1.6,0,2.9,.6,3.9,1.6c.9,.9,1.5,2.1,1.6,3.4H152.6Zm19.2,-.5H152.1v6h25.2v-2.5c-.9,-2.1,-3,-3.5,-5.5,-3.5Z" class="gk_68"/>
<path d="M183.9,106.2h19.7v31.5H177.9V112.3c0,-3.4,2.7,-6.1,6,-6.1Z" class="g2_68"/>
<path d="M183.9,106.2v.5h19.2v30.5H178.4V112.3c0,-1.6,.6,-2.9,1.6,-3.9c1,-1,2.4,-1.7,3.9,-1.7v-1c-3.6,0,-6.6,2.9,-6.6,6.6v25.4c0,.1,.1,.3,.2,.4c.1,.1,.2,.1,.4,.1h25.7c.2,0,.3,0,.4,-.1c.1,-.1,.1,-.3,.1,-.4V106.2c0,-.1,0,-.2,-.1,-.3c-.1,-.1,-.2,-.2,-.4,-.2H183.9Z" class="gh_68"/>
<path d="M203.6,131.7v6H177.9c0,-3.3,2.7,-6,6,-6Z" class="g2_68"/>
<path d="M203.6,131.7h-.5v5.5H177.9v.5h.5c0,-1.5,.6,-2.9,1.6,-3.9c1,-1,2.4,-1.6,3.9,-1.6h19.7v-.5h-.5h.5v-.6H183.9c-3.6,0,-6.6,3,-6.6,6.6c0,.1,.1,.3,.2,.4c.1,.1,.2,.1,.4,.1h25.7c.2,0,.3,0,.4,-.1c.1,-.1,.1,-.3,.1,-.4v-6c0,-.2,0,-.3,-.1,-.4c-.1,-.1,-.2,-.2,-.4,-.2Z" class="gh_68"/>
<path d="M200.1,110.9H182.9m17.2,2.8H182.9m17.2,2.9H182.9m17.2,2.9H182.9m17.2,2.8H182.9m17.2,2.9H182.9m17.2,2.8H182.9" class="gi_68"/>
<path clip-path="url(#c8_68)" d="M178.4,137.2h24.7v-5H178.4v5Z" class="gj_68"/>
<path clip-path="url(#c9_68)" d="M178.4,137.2c.1,-1.3,.7,-2.5,1.6,-3.4c1,-1,2.4,-1.6,3.9,-1.6h19.2v5Zm25.2,-5.5H183.9c-3.3,0,-6,2.7,-6,6h25.7v-6h-.5h.5Z" class="gk_68"/>
<path d="M177.9,108.8v34.3" class="gi_68"/>
<path d="M195.5,145.5h3.3V134.7h-3.3v10.8Z" class="gl_68"/>
<path d="M132.5,555.3h713V329.1h-713V555.3Z" class="gm_68"/>
<path d="M132.5,333.7V553m4.5,2.3H843.2m2.3,-4.6V331.4m-4.6,-2.3H134.7" class="gn_68"/>
<path d="M132.5,555.3v0m713,0v0m0,-226.2v0m-713,0v0" class="go_68"/>
<path d="M131.7,332.3V303.7c0,0,0,-8.7,8.6,-8.7H837.6c0,0,8.7,0,8.7,8.7v29.2Z" class="gp_68"/>
<path d="M153.3,355.8c0,0,4.8,5.5,6.1,12.3c0,0,6.7,-11.4,11.7,-13.9c0,0,-9.3,4.9,-11.1,8.1c0,0,-1.9,-4.3,-6.7,-6.5Z" class="gq_68"/>
<path d="M161.8,323.9l2.9,3l8.2,-8.1l-3,-3Z" class="g2_68"/>
<path d="M164.7,327.9v0c.3,0,.6,-.1,.7,-.3l8.2,-8.2c.2,-.1,.3,-.4,.3,-.6c0,-.3,-.1,-.6,-.3,-.8l-3,-2.9c-.4,-.4,-1,-.4,-1.4,0l-8.1,8.1c-.4,.4,-.4,1,0,1.4l2.9,3c.2,.2,.5,.3,.7,.3m6.8,-9.1l-6.8,6.7l-1.5,-1.6l6.7,-6.7Z" class="gr_68"/>
<path d="M168.3,297c-6.5,6.5,-6.5,17.1,0,23.6c6.6,6.6,17.2,6.6,23.7,0c6.5,-6.5,6.5,-17.1,0,-23.6c-6.5,-6.6,-17.1,-6.6,-23.7,0Z" class="gs_68"/>
<path d="M180.2,326.5c4.7,0,9.2,-1.8,12.5,-5.2c6.9,-6.9,6.9,-18.1,0,-25.1c-3.3,-3.3,-7.8,-5.1,-12.5,-5.1c-4.8,0,-9.2,1.8,-12.6,5.1c-6.9,7,-6.9,18.2,0,25.1c3.4,3.4,7.8,5.2,12.6,5.2m0,-33.5c4.2,0,8.1,1.7,11.1,4.7c6.2,6.1,6.2,16.1,0,22.2c-3,3,-6.9,4.6,-11.1,4.6c-4.2,0,-8.2,-1.6,-11.2,-4.6c-6.1,-6.1,-6.1,-16.1,0,-22.2c3,-3,7,-4.7,11.2,-4.7Z" class="gr_68"/>
<path d="M154.3,329.1l5.3,5.2l8.1,-8.2l-5.2,-5.2Z" class="gt_68"/>
<path d="M159.6,335.3c.2,0,.5,-.1,.7,-.3l8.1,-8.2c.2,-.1,.3,-.4,.3,-.7c0,-.2,-.1,-.5,-.3,-.6l-5.2,-5.3c-.4,-.4,-1,-.4,-1.4,0l-8.2,8.2c-.4,.4,-.4,1,0,1.4l5.3,5.2c.2,.2,.4,.3,.7,.3m6.7,-9.2l-6.7,6.8l-3.9,-3.8l6.8,-6.8Z" class="gr_68"/>
<path d="M168.1,308.9c0,6.6,5.4,11.9,12,11.9c6.6,0,11.9,-5.3,11.9,-11.9c0,-6.6,-5.3,-12,-11.9,-12c-6.6,0,-12,5.4,-12,12Z" class="g2_68"/>
<path d="M180.1,321.6c7,0,12.7,-5.7,12.7,-12.7c0,-7,-5.7,-12.8,-12.7,-12.8c-7.1,0,-12.8,5.8,-12.8,12.8c0,7,5.7,12.7,12.8,12.7m0,-23.9c6.1,0,11.1,5,11.1,11.2c0,6.1,-5,11.1,-11.1,11.1c-6.2,0,-11.2,-5,-11.2,-11.1c0,-6.2,5,-11.2,11.2,-11.2Z" class="gr_68"/>
<path d="M32.1,45.1H9.2m958.3,0h22.9M32.1,1331.3H9.2m958.3,0h22.9M45.1,32.1V9.2m0,1335.1v22.9M954.5,32.1V9.2m0,1335.1v22.9" class="gu_68"/>
<path d="M32.1,45.1H9.2m958.3,0h22.9M32.1,1331.3H9.2m958.3,0h22.9M45.1,32.1V9.2m0,1335.1v22.9M954.5,32.1V9.2m0,1335.1v22.9" class="gv_68"/>
<path d="M27.5,32.1H0m972.1,0h27.5M27.5,1344.3H0m972.1,0h27.5M32.1,27.5V0m0,1348.9v27.5M967.5,27.5V0m0,1348.9v27.5" class="gu_68"/>
<path d="M27.5,32.1H0m972.1,0h27.5M27.5,1344.3H0m972.1,0h27.5M32.1,27.5V0m0,1348.9v27.5M967.5,27.5V0m0,1348.9v27.5" class="gv_68"/>
</svg>