<?xml version="1.0" encoding="UTF-8" standalone="no"?>
<!DOCTYPE svg PUBLIC "-//W3C//DTD SVG 1.1//EN"
"http://www.w3.org/Graphics/SVG/1.1/DTD/svg11.dtd">
<svg viewBox="0 0 999 1376" version="1.1" xmlns="http://www.w3.org/2000/svg" xmlns:xlink="http://www.w3.org/1999/xlink">
<defs>
<clipPath id="c0_91"><path d="M32.1,1344.3V32.1H967.5V1344.3Z"/></clipPath>
<clipPath id="c1_91"><path d="M217.1,418.2V340.6H326v77.6Z"/></clipPath>
<clipPath id="c2_91"><path d="M555.3,418.2V340.6h87.2v77.6Z"/></clipPath>
<clipPath id="c3_91"><path d="M390.3,418.2V340.6h90.2v77.6Z"/></clipPath>
<clipPath id="c4_91"><path d="M718.7,418.2V340.6h92.8v77.6Z"/></clipPath>
<clipPath id="c5_91"><path d="M228.1,672.8V595.2h90.8v77.6Z"/></clipPath>
<clipPath id="c6_91"><path d="M556,672.8V595.2h89.5v77.6Z"/></clipPath>
<clipPath id="c7_91"><path d="M386.6,672.8V595.2h90.5v77.6Z"/></clipPath>
<clipPath id="c8_91"><path d="M549.6,799.8V722.2h91v77.6Z"/></clipPath>
<clipPath id="c9_91"><path d="M217.1,800.1V722.5H331.3v77.6Z"/></clipPath>
<clipPath id="ca_91"><path d="M376.2,800.1V722.5H493.1v77.6Z"/></clipPath>
<clipPath id="cb_91"><path d="M234.3,1095.1v-85.8h85.8v85.8Z"/></clipPath>
<clipPath id="cc_91"><path d="M383.9,1095.1v-85.8h85.9v85.8Z"/></clipPath>
<clipPath id="cd_91"><path d="M703.2,1095.1v-83.7H796v83.7Z"/></clipPath>
<clipPath id="ce_91"><path d="M520.6,1089.4v-82.3H639v82.3Z"/></clipPath>
<clipPath id="cf_91"><path d="M199.2,326l-6.5,-2.1L176.3,310V252.9h72V326Z"/></clipPath>
<clipPath id="cg_91"><path d="M198.5,938L192,935.8L175.6,921.9V864.8h72V938Z"/></clipPath>
<clipPath id="ch_91"><path d="M658.6,177V59h200V177Z"/></clipPath>
<clipPath id="ci_91"><path d="M232.3,545.5V467.9h86.3v77.6Z"/></clipPath>
<clipPath id="cj_91"><path d="M398,545.5V467.9h91.9v77.6Z"/></clipPath>
<clipPath id="ck_91"><path d="M560.3,545.5V467.9h92.4v77.6Z"/></clipPath>
<clipPath id="cl_91"><path d="M707.2,545.5V467.9H809.9v77.6Z"/></clipPath>
<style type="text/css"><![CDATA[
.g0_91{
fill: #FEFCF4;
}
.g1_91{
fill: #FFF;
}
.g2_91{
fill: none;
stroke: #6381B7;
stroke-width: 0.763;
}
.g3_91{
fill: none;
stroke: #949698;
stroke-width: 0.381;
}
.g4_91{
fill: #EDF8FB;
}
.g5_91{
fill: #EEDEBF;
}
.g6_91{
fill: #6381B7;
}
.g7_91{
fill: none;
stroke: #6381B7;
stroke-width: 0.381;
stroke-dasharray: 2,1;
}
.g8_91{
fill: none;
stroke: #6381B7;
stroke-width: 0.381;
}
.g9_91{
fill: #FCE8B0;
}
.ga_91{
fill: #2E6E51;
}
.gb_91{
fill: #BCBEC0;
}
.gc_91{
fill: #EE314A;
}
.gd_91{
fill: #25408F;
}
.ge_91{
fill: #00BAF1;
}
.gf_91{
fill: #332D2C;
}
.gg_91{
fill: #D9DFF0;
}
.gh_91{
fill: #F27C85;
}
.gi_91{
fill: #7DD3F6;
}
.gj_91{
fill: none;
stroke: #FFF;
stroke-width: 1.909;
stroke-miterlimit: 10;
}
.gk_91{
fill: none;
stroke: #000;
stroke-width: 0.381;
stroke-miterlimit: 10;
}
]]></style>
</defs>
<path d="M45.1,1344.3H967.5V32.1H45.1V1344.3Z" class="g0_91"/>
<path clip-path="url(#c0_91)" d="M-877.3,1344.3H45.1V32.1H-877.3V1344.3Z" class="g0_91"/>
<path d="M172.1,224.6c0,0,-18.4,0,-18.4,18.4V838.4c0,0,0,18.3,18.4,18.3H849.2c0,0,18.3,0,18.3,-18.3V224.6Z" class="g1_91"/>
<path d="M172.1,224.6c0,0,-18.4,0,-18.4,18.4V838.4c0,0,0,18.3,18.4,18.3H849.2c0,0,18.3,0,18.3,-18.3V224.6H172.1Z" class="g2_91"/>
<path d="M210.8,418.2H331.3V340.6H210.8v77.6Z" class="g1_91"/>
<image clip-path="url(#c1_91)" preserveAspectRatio="none" x="217" y="339" width="109" height="81" xlink:href="img/1.jpg"/>
<path d="M210.8,418.2H331.3V340.6H210.8v77.6Z" class="g3_91"/>
<path d="M538,418.2H658.5V340.6H538v77.6Z" class="g1_91"/>
<image clip-path="url(#c2_91)" preserveAspectRatio="none" x="555" y="339" width="87" height="81" xlink:href="img/2.jpg"/>
<path d="M538,418.2H658.5V340.6H538v77.6Z" class="g3_91"/>
<path d="M374.4,418.2H494.9V340.6H374.4v77.6Z" class="g1_91"/>
<image clip-path="url(#c3_91)" preserveAspectRatio="none" x="390" y="339" width="91" height="81" xlink:href="img/3.jpg"/>
<path d="M374.4,418.2H494.9V340.6H374.4v77.6Z" class="g3_91"/>
<path d="M701.6,418.2H822.1V340.6H701.6v77.6Z" class="g1_91"/>
<image clip-path="url(#c4_91)" preserveAspectRatio="none" x="719" y="339" width="92" height="81" xlink:href="img/4.jpg"/>
<path d="M701.6,418.2H822.1V340.6H701.6v77.6Z" class="g3_91"/>
<path d="M210.8,672.8H331.3V595.2H210.8v77.6Z" class="g1_91"/>
<image clip-path="url(#c5_91)" preserveAspectRatio="none" x="228" y="594" width="91" height="80" xlink:href="img/5.jpg"/>
<path d="M210.8,672.8H331.3V595.2H210.8v77.6Z" class="g3_91"/>
<path d="M538,672.8H658.5V595.2H538v77.6Z" class="g1_91"/>
<image clip-path="url(#c6_91)" preserveAspectRatio="none" x="556" y="594" width="89" height="81" xlink:href="img/6.jpg"/>
<path d="M538,672.8H658.5V595.2H538v77.6Z" class="g3_91"/>
<path d="M374.4,672.8H494.9V595.2H374.4v77.6Z" class="g1_91"/>
<image clip-path="url(#c7_91)" preserveAspectRatio="none" x="387" y="594" width="90" height="80" xlink:href="img/7.jpg"/>
<path d="M374.4,672.8H494.9V595.2H374.4v77.6Z" class="g3_91"/>
<path d="M536.4,799.8H656.9V722.2H536.4v77.6Z" class="g1_91"/>
<image clip-path="url(#c8_91)" preserveAspectRatio="none" x="550" y="721" width="91" height="80" xlink:href="img/8.jpg"/>
<path d="M536.4,799.8H656.9V722.2H536.4v77.6Z" class="g3_91"/>
<path d="M210.8,800.1H331.3V722.5H210.8v77.6Z" class="g1_91"/>
<image clip-path="url(#c9_91)" preserveAspectRatio="none" x="217" y="721" width="116" height="81" xlink:href="img/9.jpg"/>
<path d="M210.8,800.1H331.3V722.5H210.8v77.6Z" class="g3_91"/>
<path d="M374.4,800.1H494.9V722.5H374.4v77.6Z" class="g1_91"/>
<image clip-path="url(#ca_91)" preserveAspectRatio="none" x="376" y="721" width="117" height="81" xlink:href="img/10.jpg"/>
<path d="M374.4,800.1H494.9V722.5H374.4v77.6Z" class="g3_91"/>
<path d="M166.7,951.7c0,0,-13,0,-13,13v223.7c0,0,0,13,13,13H854.2c0,0,13,0,13,-13V964.7c0,0,0,-13,-13,-13Z" class="g1_91"/>
<path d="M166.7,951.7c0,0,-13,0,-13,13v223.7c0,0,0,13,13,13H854.2c0,0,13,0,13,-13V964.7c0,0,0,-13,-13,-13H166.7Z" class="g2_91"/>
<image clip-path="url(#cb_91)" preserveAspectRatio="none" x="233" y="1008" width="89" height="89" xlink:href="img/11.jpg"/>
<path d="M265.2,1100.2c2,0,3.6,-1.6,3.6,-3.6c0,-2,-1.6,-3.6,-3.6,-3.6c-2,0,-3.6,1.6,-3.6,3.6c0,2,1.6,3.6,3.6,3.6Z" class="g4_91"/>
<path d="M265.2,1142.1c2,0,3.6,-1.7,3.6,-3.6c0,-2,-1.6,-3.7,-3.6,-3.7c-2,0,-3.6,1.7,-3.6,3.7c0,1.9,1.6,3.6,3.6,3.6Z" class="g4_91"/>
<path d="M237.8,1156.5c0,0,-8.7,0,-8.7,8.7v15.1c0,0,0,8.7,8.7,8.7h69.3c0,0,8.6,0,8.6,-8.7v-15.1c0,0,0,-8.7,-8.6,-8.7Z" class="g5_91"/>
<image clip-path="url(#cc_91)" preserveAspectRatio="none" x="382" y="1008" width="89" height="89" xlink:href="img/12.jpg"/>
<path d="M425.5,1100.2c2,0,3.6,-1.6,3.6,-3.6c0,-2,-1.6,-3.6,-3.6,-3.6c-2,0,-3.6,1.6,-3.6,3.6c0,2,1.6,3.6,3.6,3.6Z" class="g4_91"/>
<path d="M425.5,1142.1c2,0,3.6,-1.7,3.6,-3.6c0,-2,-1.6,-3.7,-3.6,-3.7c-2,0,-3.6,1.7,-3.6,3.7c0,1.9,1.6,3.6,3.6,3.6Z" class="g4_91"/>
<path d="M391.2,1156.5c0,0,-8.7,0,-8.7,8.7v15.1c0,0,0,8.7,8.7,8.7h69.3c0,0,8.6,0,8.6,-8.7v-15.1c0,0,0,-8.7,-8.6,-8.7Z" class="g5_91"/>
<image clip-path="url(#cd_91)" preserveAspectRatio="none" x="703" y="1011" width="93" height="86" xlink:href="img/13.jpg"/>
<path d="M744,1100.2c2,0,3.6,-1.6,3.6,-3.6c0,-2,-1.6,-3.6,-3.6,-3.6c-2,0,-3.6,1.6,-3.6,3.6c0,2,1.6,3.6,3.6,3.6Z" class="g4_91"/>
<path d="M744,1142.1c2,0,3.6,-1.7,3.6,-3.6c0,-2,-1.6,-3.7,-3.6,-3.7c-2,0,-3.6,1.7,-3.6,3.7c0,1.9,1.6,3.6,3.6,3.6Z" class="g4_91"/>
<path d="M716.2,1156.5c0,0,-8.7,0,-8.7,8.7v15.1c0,0,0,8.7,8.7,8.7h86.6c0,0,8.6,0,8.6,-8.7v-15.1c0,0,0,-8.7,-8.6,-8.7Z" class="g5_91"/>
<path d="M660.9,1216.5c0,0,-4.3,0,-4.3,4.4v10.8c0,0,0,4.3,4.3,4.3h30.3c0,0,4.3,0,4.3,-4.3v-10.8c0,0,0,-4.4,-4.3,-4.4Z" class="g6_91"/>
<path d="M647.7,1207.7v37.5m1.3,1H867.2m1,-1.3v-37.6m-1.4,-.9H648.7" class="g7_91"/>
<path d="M647.7,1245.6v.6h.6m219.3,0h.6v-.6m0,-38.7v-.5h-.6m-219.3,0h-.6v.5" class="g8_91"/>
<image clip-path="url(#ce_91)" preserveAspectRatio="none" x="519" y="1005" width="122" height="86" xlink:href="img/14.jpg"/>
<path d="M574.7,1100.2c2,0,3.6,-1.6,3.6,-3.6c0,-2,-1.6,-3.6,-3.6,-3.6c-2,0,-3.6,1.6,-3.6,3.6c0,2,1.6,3.6,3.6,3.6Z" class="g4_91"/>
<path d="M574.7,1142.1c2,0,3.6,-1.7,3.6,-3.6c0,-2,-1.6,-3.7,-3.6,-3.7c-2,0,-3.6,1.7,-3.6,3.7c0,1.9,1.6,3.6,3.6,3.6Z" class="g4_91"/>
<path d="M543.7,1156.5c0,0,-8.7,0,-8.7,8.7v15.1c0,0,0,8.7,8.7,8.7H613c0,0,8.7,0,8.7,-8.7v-15.1c0,0,0,-8.7,-8.7,-8.7Z" class="g5_91"/>
<path d="M231.8,255c0,0,-13,0,-13,13v47.7c0,0,0,12.9,13,12.9h602c0,0,13,0,13,-12.9V268c0,0,0,-13,-13,-13Z" class="g9_91"/>
<image clip-path="url(#cf_91)" preserveAspectRatio="none" x="175" y="251" width="75" height="77" xlink:href="img/15.png"/>
<path d="M226.6,321.3c0,0,-26.9,11.3,-51.1,-12.8c0,0,15.1,25.3,49.3,24c0,0,24.7,.3,20.2,-10.1c0,0,1.2,-4.5,-18.4,-1.1Z" class="g9_91"/>
<path d="M32.1,179.3H967.5V32.1H32.1V179.3Z" class="ga_91"/>
<g clip-path="url(#c0_91)">
<path d="M967.5,177.2H-877.3v-5.4h736.6c43.1,0,53.1,-37.9,115.3,-37.9H967.5Z" class="gb_91"/>
<path d="M967.5,183.7H-877.3v-9.8h736.6c43.1,0,53.1,-33.6,115.3,-33.6H967.5Z" class="gc_91"/>
</g>
<path d="M153.3,217.5v22.2L165,250V227.8Z" class="gd_91"/>
<path d="M153.3,200.7v39H851.1c0,0,16.8,0,16.8,-16.8v-5.4c0,0,0,-16.8,-16.8,-16.8Z" class="g6_91"/>
<path d="M211.3,212.1l-6.5,-6.4l-21.2,21.2l6.5,6.4Z" class="ge_91"/>
<path d="M190.1,233.9c.1,0,.3,-.1,.4,-.2l21.2,-21.2c.1,-.1,.1,-.2,.1,-.4c0,-.1,0,-.2,-.1,-.3l-6.5,-6.5c-.2,-.2,-.6,-.2,-.8,0l-21.2,21.2c-.1,.1,-.1,.2,-.1,.4c0,.1,0,.2,.1,.3l6.5,6.5c.1,.1,.3,.2,.4,.2m20.5,-21.8l-20.5,20.5l-5.8,-5.7l20.5,-20.5Z" class="gf_91"/>
<path d="M211.3,212.1l-6.5,-6.4l2.1,-2.2l6.5,6.5Z" class="gg_91"/>
<path d="M211.3,212.7c.1,0,.3,-.1,.4,-.2l2.1,-2.1c.1,-.1,.2,-.2,.2,-.4c0,-.1,-.1,-.3,-.2,-.4l-6.5,-6.4c-.2,-.3,-.5,-.3,-.7,0l-2.2,2.1c-.1,.1,-.1,.2,-.1,.4c0,.1,0,.2,.1,.3l6.5,6.5c.1,.1,.3,.2,.4,.2m1.4,-2.7l-1.4,1.4l-5.7,-5.7l1.3,-1.4Z" class="gf_91"/>
<path d="M217,206.4l-6.4,-6.5l-3.7,3.6l6.5,6.5Z" class="gh_91"/>
<path d="M213.4,210.5c.2,0,.3,0,.4,-.1l3.6,-3.6c.2,-.2,.2,-.6,0,-.8l-6.5,-6.5c-.2,-.2,-.5,-.2,-.7,0l-3.6,3.7c-.2,.2,-.2,.5,0,.7l6.5,6.5c.1,.1,.2,.1,.3,.1m2.9,-4.1l-2.9,2.9l-5.7,-5.8l2.9,-2.8Z" class="gf_91"/>
<path d="M179,238l4.6,-11.1l6.5,6.4Z" class="g1_91"/>
<path d="M179,238.5c0,0,.1,0,.2,0l11.1,-4.7c.2,0,.3,-.2,.3,-.4c0,-.1,0,-.3,-.1,-.4L184,226.5c-.1,-.1,-.3,-.2,-.5,-.1c-.2,0,-.3,.1,-.4,.3l-4.6,11.1c-.1,.2,0,.4,.1,.6c.1,.1,.2,.1,.4,.1m10.2,-5.3l-9.3,3.8l3.9,-9.2Z" class="gf_91"/>
<path d="M179,238l2.2,-5.4l3.1,3.1Z" class="gf_91"/>
<path d="M179,238.5c0,0,.1,0,.2,0l5.3,-2.3c.2,0,.3,-.2,.4,-.4c0,-.1,-.1,-.3,-.2,-.4l-3.1,-3.2c-.1,-.1,-.3,-.1,-.5,-.1c-.2,0,-.3,.2,-.4,.3l-2.2,5.4c-.1,.2,0,.4,.1,.6c.1,.1,.2,.1,.4,.1m4.4,-2.9l-3.5,1.4l1.5,-3.5Z" class="gf_91"/>
<path d="M209.5,210.4l-2.9,-3l-21.2,21.2l2.9,3Z" class="gi_91"/>
<path d="M188.3,232.1c.2,0,.3,0,.4,-.1l21.2,-21.2c.1,-.1,.2,-.3,.2,-.4c0,-.2,-.1,-.3,-.2,-.4l-3,-3c-.2,-.2,-.5,-.2,-.7,0L185,228.3c-.1,.1,-.2,.2,-.2,.3c0,.2,.1,.3,.2,.4l3,3c.1,.1,.2,.1,.3,.1m20.5,-21.7l-20.5,20.4l-2.2,-2.2l20.5,-20.4Z" class="gf_91"/>
<path d="M231.1,893c0,0,-13,0,-13,13v21.6c0,0,0,13,13,13h602c0,0,13,0,13,-13V906c0,0,0,-13,-13,-13Z" class="g9_91"/>
<image clip-path="url(#cg_91)" preserveAspectRatio="none" x="174" y="863" width="75" height="77" xlink:href="img/16.png"/>
<path d="M225.9,933.3c0,0,-26.8,11.3,-51.1,-12.8c0,0,15.2,25.3,49.3,24c0,0,24.7,.3,20.2,-10.2c0,0,1.3,-4.4,-18.4,-1Z" class="g9_91"/>
<path d="M201.8,998.6H788.6V986.3H201.8v12.3Z" class="g1_91"/>
<image clip-path="url(#ch_91)" preserveAspectRatio="none" x="659" y="59" width="200" height="118" xlink:href="img/17.png"/>
<path d="M210.8,545.5H331.3V467.9H210.8v77.6Z" class="g1_91"/>
<image clip-path="url(#ci_91)" preserveAspectRatio="none" x="232" y="466" width="87" height="81" xlink:href="img/18.jpg"/>
<path d="M210.8,545.5H331.3V467.9H210.8v77.6Z" class="g3_91"/>
<path d="M374.4,545.5H494.9V467.9H374.4v77.6Z" class="g1_91"/>
<image clip-path="url(#cj_91)" preserveAspectRatio="none" x="398" y="466" width="92" height="81" xlink:href="img/19.jpg"/>
<path d="M374.4,545.5H494.9V467.9H374.4v77.6Z" class="g3_91"/>
<path d="M538,545.5H658.5V467.9H538v77.6Z" class="g1_91"/>
<image clip-path="url(#ck_91)" preserveAspectRatio="none" x="560" y="466" width="93" height="81" xlink:href="img/20.jpg"/>
<path d="M538,545.5H658.5V467.9H538v77.6Z" class="g3_91"/>
<path d="M701.6,545.5H822.1V467.9H701.6v77.6Z" class="g1_91"/>
<image clip-path="url(#cl_91)" preserveAspectRatio="none" x="707" y="466" width="103" height="81" xlink:href="img/21.jpg"/>
<path d="M701.6,545.5H822.1V467.9H701.6v77.6Z" class="g3_91"/>
<path d="M32.1,45.1H9.2m958.3,0h22.9M32.1,1331.3H9.2m958.3,0h22.9M45.1,32.1V9.2m0,1335.1v22.9M954.5,32.1V9.2m0,1335.1v22.9" class="gj_91"/>
<path d="M32.1,45.1H9.2m958.3,0h22.9M32.1,1331.3H9.2m958.3,0h22.9M45.1,32.1V9.2m0,1335.1v22.9M954.5,32.1V9.2m0,1335.1v22.9" class="gk_91"/>
<path d="M27.5,32.1H0m972.1,0h27.5M27.5,1344.3H0m972.1,0h27.5M32.1,27.5V0m0,1348.9v27.5M967.5,27.5V0m0,1348.9v27.5" class="gj_91"/>
<path d="M27.5,32.1H0m972.1,0h27.5M27.5,1344.3H0m972.1,0h27.5M32.1,27.5V0m0,1348.9v27.5M967.5,27.5V0m0,1348.9v27.5" class="gk_91"/>
</svg>