<?xml version="1.0" encoding="UTF-8" standalone="no"?>
<!DOCTYPE svg PUBLIC "-//W3C//DTD SVG 1.1//EN"
"http://www.w3.org/Graphics/SVG/1.1/DTD/svg11.dtd">
<svg viewBox="0 0 999 1376" version="1.1" xmlns="http://www.w3.org/2000/svg" xmlns:xlink="http://www.w3.org/1999/xlink">
<defs>
<clipPath id="c0_311"><path d="M32.1,1344.3V32.1H967.5V1344.3Z"/></clipPath>
<clipPath id="c1_311"><path d="M198.2,459.7l-6.5,-2.1L175.4,443.7V386.6h71.9v73.1Z"/></clipPath>
<clipPath id="c2_311"><path d="M198.6,1000.3l-6.5,-2.1L175.7,984.3V927.2h72v73.1Z"/></clipPath>
<clipPath id="c3_311"><path d="M200.1,137.2c.1,-1.3,.7,-2.5,1.6,-3.4c1,-1,2.3,-1.6,3.9,-1.6h19.2v5Z"/></clipPath>
<clipPath id="c4_311"><path d="M199.5,137.7v-6h25.8v6Z"/></clipPath>
<style type="text/css"><![CDATA[
.g0_311{
fill: #FEFCF4;
}
.g1_311{
fill: #DCE9F3;
}
.g2_311{
fill: none;
stroke: #231F20;
stroke-width: 0.458;
stroke-miterlimit: 10;
}
.g3_311{
fill: none;
stroke: #6381B7;
stroke-width: 0.763;
}
.g4_311{
fill: #6381B7;
}
.g5_311{
fill: none;
stroke: #6381B7;
stroke-width: 0.381;
stroke-dasharray: 2,1;
}
.g6_311{
fill: none;
stroke: #6381B7;
stroke-width: 0.381;
}
.g7_311{
fill: #FFF;
}
.g8_311{
fill: #F0E8F3;
}
.g9_311{
fill: none;
stroke: #231F20;
stroke-width: 0.305;
stroke-miterlimit: 10;
}
.ga_311{
fill: #FCE8B0;
}
.gb_311{
fill: #25408F;
}
.gc_311{
fill: none;
stroke: #231F20;
stroke-width: 1.527;
}
.gd_311{
fill: #39B4D1;
stroke: #2D2A4A;
stroke-width: 1.038;
stroke-linecap: round;
stroke-linejoin: round;
}
.ge_311{
fill: #2D2A4A;
}
.gf_311{
fill: none;
stroke: #2D2A4A;
stroke-width: 1.038;
stroke-linecap: round;
stroke-linejoin: round;
}
.gg_311{
fill: #DEDAD3;
}
.gh_311{
fill: #29263F;
}
.gi_311{
fill: #E15F46;
stroke: #2D2A4A;
stroke-width: 1.038;
stroke-linecap: round;
stroke-linejoin: round;
}
.gj_311{
fill: none;
stroke: #FFF;
stroke-width: 1.909;
stroke-miterlimit: 10;
}
.gk_311{
fill: none;
stroke: #000;
stroke-width: 0.381;
stroke-miterlimit: 10;
}
]]></style>
</defs>
<path clip-path="url(#c0_311)" d="M-877.3,1344.3H45.1V32.1H-877.3V1344.3Z" class="g0_311"/>
<path d="M170.7,166.3c0,0,-17.4,0,-17.4,17.4V309.2c0,0,0,17.4,17.4,17.4H850.6c0,0,17.3,0,17.3,-17.4V183.7c0,0,0,-17.4,-17.3,-17.4Z" class="g1_311"/>
<path d="M166.7,907.3c0,0,-13,0,-13,13v224.4c0,0,0,13,13,13H854.5c0,0,13,0,13,-13V920.3c0,0,0,-13,-13,-13Z" class="g0_311"/>
<path d="M560.4,1073.4H755.3m-234,66.3h195" class="g2_311"/>
<path d="M166.7,907.3c0,0,-13,0,-13,13v224.4c0,0,0,13,13,13H854.5c0,0,13,0,13,-13V920.3c0,0,0,-13,-13,-13H166.7Z" class="g3_311"/>
<path d="M634.7,1175.8c0,0,-4.3,0,-4.3,4.4V1191c0,0,0,4.3,4.3,4.3h30.4c0,0,4.3,0,4.3,-4.3v-10.8c0,0,0,-4.4,-4.3,-4.4Z" class="g4_311"/>
<path d="M621.6,1167v37.6m1.3,.9H866.8m.9,-1.3v-37.6m-1.3,-.9H622.5" class="g5_311"/>
<path d="M621.6,1204.9v.6h.5m245,0h.6v-.6m0,-38.7v-.5h-.6m-245,0h-.5v.5" class="g6_311"/>
<path d="M166.7,475.1c0,0,-13,0,-13,13V767.9c0,0,0,13,13,13H854.5c0,0,13,0,13,-13V488.1c0,0,0,-13,-13,-13Z" class="g7_311"/>
<path d="M166.7,475.1c0,0,-13,0,-13,13V767.9c0,0,0,13,13,13H854.5c0,0,13,0,13,-13V488.1c0,0,0,-13,-13,-13H166.7Z" class="g3_311"/>
<path d="M220.9,541.7c0,0,-4.3,0,-4.3,4.3v56.3c0,0,0,4.4,4.3,4.4H831.5c0,0,4.4,0,4.4,-4.4V546c0,0,0,-4.3,-4.4,-4.3Z" class="g8_311"/>
<path d="M247.4,594.7H469.8" class="g9_311"/>
<path d="M220.9,664.9c0,0,-4.3,0,-4.3,4.3v56.3c0,0,0,4.4,4.3,4.4H831.5c0,0,4.4,0,4.4,-4.4V669.2c0,0,0,-4.3,-4.4,-4.3Z" class="g8_311"/>
<path d="M247.4,717.9H469.8" class="g9_311"/>
<path d="M747,801.6c0,0,-4.3,0,-4.3,4.4v10.8c0,0,0,4.3,4.3,4.3h30.3c0,0,4.4,0,4.4,-4.3V806c0,0,0,-4.4,-4.4,-4.4Z" class="g4_311"/>
<path d="M733.8,792.8v37.5m1.4,1H866.8m.9,-1.3V792.4m-1.3,-1H734.8" class="g5_311"/>
<path d="M733.8,830.7v.6h.6m132.7,0h.6v-.6m0,-38.7v-.6h-.6m-132.7,0h-.6v.6" class="g6_311"/>
<path d="M230.9,414.8c0,0,-13,0,-13,12.9v21.7c0,0,0,13,13,13H854.2c0,0,13,0,13,-13V427.7c0,0,0,-12.9,-13,-12.9Z" class="ga_311"/>
<image clip-path="url(#c1_311)" preserveAspectRatio="none" x="174" y="385" width="75" height="76" xlink:href="img/1.png"/>
<path d="M225.7,455c0,0,-26.9,11.3,-51.1,-12.7c0,0,15.1,25.3,49.3,23.9c0,0,24.7,.4,20.2,-10.1c0,0,1.2,-4.4,-18.4,-1.1Z" class="ga_311"/>
<path d="M231.2,955.3c0,0,-12.9,0,-12.9,13V990c0,0,0,13,12.9,13H833.3c0,0,13,0,13,-13V968.3c0,0,0,-13,-13,-13Z" class="ga_311"/>
<image clip-path="url(#c2_311)" preserveAspectRatio="none" x="174" y="926" width="75" height="76" xlink:href="img/2.png"/>
<path d="M226,995.6c0,0,-26.8,11.3,-51.1,-12.8c0,0,15.2,25.4,49.3,24c0,0,24.8,.4,20.3,-10.1c0,0,1.2,-4.5,-18.5,-1.1Z" class="ga_311"/>
<path d="M153.3,109.5v39L165,158.7V136.5Z" class="gb_311"/>
<path d="M153.3,109.5v39H851.1c0,0,16.8,0,16.8,-16.8v-5.4c0,0,0,-16.8,-16.8,-16.8Z" class="g4_311"/>
<path d="M790.4,131c0,0,-.5,-10,8.6,-9.4c0,0,6.8,-.3,6.7,9.5m-15.3,-1.5v6.5c0,0,-3.4,.3,-3.9,-3c0,0,-.1,-3.8,3.9,-3.5Zm15.3,0v6.5c0,0,3.4,.3,4,-3c0,0,0,-3.8,-4,-3.5Z" class="gc_311"/>
<path d="M169,140.8h61v-32H169v32Z" class="gd_311"/>
<path d="M169,143.1h61v-2.3H169v2.3Z" class="gd_311"/>
<path d="M193.5,106.2H173.8v31.5h25.7V112.3c0,-3.4,-2.7,-6.1,-6,-6.1Z" class="g7_311"/>
<path d="M193.5,106.2v-.5H173.8c-.2,0,-.3,.1,-.4,.2c-.1,.1,-.2,.2,-.2,.3v31.5c0,.1,.1,.3,.2,.4c.1,.1,.2,.1,.4,.1h25.7c.2,0,.3,0,.4,-.1c.1,-.1,.1,-.3,.1,-.4V112.3c0,-3.7,-2.9,-6.6,-6.5,-6.6v1c1.5,0,2.9,.7,3.9,1.7c1,1,1.6,2.3,1.6,3.9v24.9H174.3V106.7h19.2Z" class="ge_311"/>
<path d="M173.8,131.7v6h25.7c0,-3.3,-2.7,-6,-6,-6Z" class="g7_311"/>
<path d="M173.8,131.7h-.6v6c0,.1,.1,.3,.2,.4c.1,.1,.2,.1,.4,.1h25.7c.2,0,.3,0,.4,-.1c.1,-.1,.1,-.3,.1,-.4c0,-3.6,-2.9,-6.6,-6.5,-6.6H173.8c-.2,0,-.3,.1,-.4,.2c-.1,.1,-.2,.2,-.2,.4h.6v.5h19.7c1.5,0,2.9,.6,3.9,1.6c1,1,1.6,2.4,1.6,3.9h.5v-.5H174.3v-5.5h-.5v.5Z" class="ge_311"/>
<path d="M177.3,110.9h17.2m-17.2,2.8h17.2m-17.2,2.9h17.2m-17.2,2.9h17.2m-17.2,2.8h17.2m-17.2,2.9h17.2M177.3,128h17.2" class="gf_311"/>
<path d="M193.5,132.2H174.3v5H199c-.1,-1.3,-.7,-2.5,-1.6,-3.4c-1,-1,-2.4,-1.6,-3.9,-1.6Z" class="gg_311"/>
<path d="M174.3,132.2h19.2c1.5,0,2.9,.6,3.9,1.6c.9,.9,1.5,2.1,1.6,3.4H174.3Zm19.2,-.5H173.8v6H199v-2.5c-.9,-2.1,-3.1,-3.5,-5.5,-3.5Z" class="gh_311"/>
<path d="M205.6,106.2h19.7v31.5H199.5V112.3c0,-3.4,2.7,-6.1,6.1,-6.1Z" class="g7_311"/>
<path d="M205.6,106.2v.5h19.2v30.5H200V112.3c0,-1.6,.7,-2.9,1.7,-3.9c1,-1,2.3,-1.7,3.9,-1.7v-1c-3.7,0,-6.6,2.9,-6.6,6.6v25.4c0,.1,.1,.3,.2,.4c0,.1,.2,.1,.3,.1h25.8c.1,0,.2,0,.3,-.1c.1,-.1,.2,-.3,.2,-.4V106.2c0,-.1,-.1,-.2,-.2,-.3c-.1,-.1,-.2,-.2,-.3,-.2H205.6Z" class="ge_311"/>
<path d="M225.3,131.7v6H199.5c0,-3.3,2.7,-6,6.1,-6Z" class="g7_311"/>
<path d="M225.3,131.7h-.5v5.5H199.5v.5h.5c0,-1.5,.7,-2.9,1.7,-3.9c1,-1,2.3,-1.6,3.9,-1.6h19.7v-.5h-.5h.5v-.6H205.6c-3.7,0,-6.6,3,-6.6,6.6c0,.1,.1,.3,.2,.4c0,.1,.2,.1,.3,.1h25.8c.1,0,.2,0,.3,-.1c.1,-.1,.2,-.3,.2,-.4v-6c0,-.2,-.1,-.3,-.2,-.4c-.1,-.1,-.2,-.2,-.3,-.2Z" class="ge_311"/>
<path d="M221.8,110.9H204.6m17.2,2.8H204.6m17.2,2.9H204.6m17.2,2.9H204.6m17.2,2.8H204.6m17.2,2.9H204.6m17.2,2.8H204.6" class="gf_311"/>
<path clip-path="url(#c3_311)" d="M200.1,137.2h24.7v-5H200.1v5Z" class="gg_311"/>
<path clip-path="url(#c4_311)" d="M200.1,137.2c.1,-1.3,.7,-2.5,1.6,-3.4c1,-1,2.3,-1.6,3.9,-1.6h19.2v5Zm25.2,-5.5H205.6c-3.4,0,-6.1,2.7,-6.1,6h25.8v-6h-.5h.5Z" class="gh_311"/>
<path d="M199.5,108.8v34.3" class="gf_311"/>
<path d="M217.2,145.5h3.3V134.7h-3.3v10.8Z" class="gi_311"/>
<path d="M32.1,45.1H9.2m958.3,0h22.9M32.1,1331.3H9.2m958.3,0h22.9M45.1,32.1V9.2m0,1335.1v22.9M954.5,32.1V9.2m0,1335.1v22.9" class="gj_311"/>
<path d="M32.1,45.1H9.2m958.3,0h22.9M32.1,1331.3H9.2m958.3,0h22.9M45.1,32.1V9.2m0,1335.1v22.9M954.5,32.1V9.2m0,1335.1v22.9" class="gk_311"/>
<path d="M27.5,32.1H0m972.1,0h27.5M27.5,1344.3H0m972.1,0h27.5M32.1,27.5V0m0,1348.9v27.5M967.5,27.5V0m0,1348.9v27.5" class="gj_311"/>
<path d="M27.5,32.1H0m972.1,0h27.5M27.5,1344.3H0m972.1,0h27.5M32.1,27.5V0m0,1348.9v27.5M967.5,27.5V0m0,1348.9v27.5" class="gk_311"/>
</svg>