<?xml version="1.0" encoding="UTF-8" standalone="no"?>
<!DOCTYPE svg PUBLIC "-//W3C//DTD SVG 1.1//EN"
"http://www.w3.org/Graphics/SVG/1.1/DTD/svg11.dtd">
<svg viewBox="0 0 999 1376" version="1.1" xmlns="http://www.w3.org/2000/svg" xmlns:xlink="http://www.w3.org/1999/xlink">
<defs>
<clipPath id="c0_120"><path d="M164.2,604.7c-8.7,0,-8.7,-8.7,-8.7,-8.7V245.4c0,-8.7,8.7,-8.7,8.7,-8.7H832c8.7,0,8.7,8.7,8.7,8.7V596c0,8.7,-8.7,8.7,-8.7,8.7Z"/></clipPath>
<clipPath id="c1_120"><path d="M237.6,586.1V254.3H762.9V586.1Z"/></clipPath>
<clipPath id="c2_120"><path d="M244.3,574.3V287.5H743.2V574.3Z"/></clipPath>
<clipPath id="c3_120"><path d="M176.6,699l-6.5,-2.1l-16.4,-14V625.8h72V699Z"/></clipPath>
<style type="text/css"><![CDATA[
.g0_120{
fill: #231F20;
}
.g1_120{
fill: #58595B;
}
.g2_120{
fill: none;
stroke: #231F20;
stroke-width: 0.763;
}
.g3_120{
fill: none;
stroke: #8D9EC4;
stroke-width: 0.763;
}
.g4_120{
fill: none;
stroke: #27639D;
stroke-width: 0.763;
}
.g5_120{
fill: #6381B7;
}
.g6_120{
fill: none;
stroke: #6381B7;
stroke-width: 0.381;
stroke-dasharray: 2,1;
}
.g7_120{
fill: none;
stroke: #6381B7;
stroke-width: 0.381;
}
.g8_120{
fill: #BCBEC0;
}
.g9_120{
fill: #FFF;
}
.ga_120{
fill: none;
stroke: #000;
stroke-width: 0.67;
}
.gb_120{
fill: #818385;
}
.gc_120{
fill: #A8AAAD;
}
.gd_120{
fill: none;
stroke: #A8AAAD;
stroke-width: 1.338;
}
.ge_120{
fill: #FCE8B0;
}
.gf_120{
fill: #25408F;
}
.gg_120{
fill: #F37553;
}
.gh_120{
fill: #363637;
}
.gi_120{
fill: #EAD646;
}
.gj_120{
fill: #506CB4;
}
.gk_120{
fill: #5CC4BE;
}
.gl_120{
fill: #FCFBEC;
}
.gm_120{
fill: none;
stroke: #EAD646;
stroke-width: 1.527;
stroke-linecap: round;
stroke-linejoin: round;
stroke-dasharray: 0,5;
}
.gn_120{
fill: none;
stroke: #EAD646;
stroke-width: 1.527;
stroke-linecap: round;
stroke-linejoin: round;
}
.go_120{
fill: #61C7CB;
}
.gp_120{
fill: #F5CA58;
}
.gq_120{
fill: #3D3B39;
}
.gr_120{
fill: none;
stroke: #231F20;
stroke-width: 0.763;
stroke-miterlimit: 10;
}
.gs_120{
fill: none;
stroke: #FFF;
stroke-width: 1.909;
stroke-miterlimit: 10;
}
.gt_120{
fill: none;
stroke: #000;
stroke-width: 0.381;
stroke-miterlimit: 10;
}
]]></style>
</defs>
<path d="M263.1,739.2c0,0,4.1,5.5,5.2,12.3c0,0,5.7,-11.3,10,-13.9c0,0,-7.9,4.9,-9.5,8.2c0,0,-1.6,-4.3,-5.7,-6.6Z" class="g0_120"/>
<path d="M404.2,738.9c0,0,3.5,4.7,4.5,10.5c0,0,4.9,-9.7,8.5,-11.9c0,0,-6.8,4.2,-8.1,7c0,0,-1.4,-3.7,-4.9,-5.6Z" class="g1_120"/>
<path d="M687.2,789.5h15.4V774H687.2v15.5Zm54.9,0h15.4V774H742.1v15.5Zm-54.9,31.8h15.4V805.9H687.2v15.4Zm54.9,0h15.4V805.9H742.1v15.4Zm-54.9,31.8h15.4V837.7H687.2v15.4Zm54.9,0h15.4V837.7H742.1v15.4ZM687.2,885h15.4V869.5H687.2V885Zm54.9,0h15.4V869.5H742.1V885Z" class="g2_120"/>
<path d="M145.1,721.5c0,0,-13,0,-13,13V894c0,0,0,12.9,13,12.9H833c0,0,13,0,13,-12.9V734.5c0,0,0,-13,-13,-13H145.1Z" class="g3_120"/>
<path d="M145.2,167.5c0,0,-13,0,-13,13V599c0,0,0,13,13,13H833c0,0,13,0,13,-13V180.5c0,0,0,-13,-13,-13H145.2Z" class="g4_120"/>
<path d="M599.8,923.1c0,0,-4.3,0,-4.3,4.4v10.8c0,0,0,4.3,4.3,4.3h30.3c0,0,4.3,0,4.3,-4.3V927.5c0,0,0,-4.4,-4.3,-4.4Z" class="g5_120"/>
<path d="M586.6,914.3v37.5m1.3,1H843.8m1,-1.3V913.9m-1.4,-.9H587.6" class="g6_120"/>
<path d="M586.6,952.2v.6h.6m257,0h.6v-.6m0,-38.7V913h-.6m-257,0h-.6v.5" class="g7_120"/>
<g clip-path="url(#c0_120)">
<path d="M243.3,586.1H762.9V275.5H243.3V586.1Z" class="g8_120"/>
<path d="M385.5,580.8H757.6V270.2H385.5V580.8Z" class="g9_120"/>
<path d="M385.5,580.8H757.6V270.2H385.5V580.8Z" class="ga_120"/>
<path d="M732.9,279.6c0,2.5,2.1,4.6,4.7,4.6c2.6,0,4.7,-2.1,4.7,-4.6c0,-2.6,-2.1,-4.7,-4.7,-4.7c-2.6,0,-4.7,2.1,-4.7,4.7Z" class="gb_120"/>
</g>
<g clip-path="url(#c1_120)">
<path d="M752.9,269.5c0,0,-9.4,-39.7,-17.1,9.2c-.2,1.5,2.9,.2,2.9,.2c0,0,5.7,-41.5,11.4,-9.3Z" class="gc_120"/>
<path d="M752.9,269.5c0,0,-9.4,-39.7,-17.1,9.2c-.2,1.5,2.9,.2,2.9,.2c0,0,5.7,-41.5,11.4,-9.3l2.8,-.1Z" class="gd_120"/>
</g>
<g clip-path="url(#c0_120)">
<path d="M735,279.2c0,.7,.9,1.3,2.1,1.4c1.2,0,2.2,-.5,2.2,-1.1c.1,-.7,-.9,-1.4,-2,-1.4c-1.2,-.1,-2.2,.4,-2.3,1.1Z" class="gc_120"/>
<path d="M708.8,279.6c0,2.5,2.1,4.6,4.7,4.6c2.6,0,4.7,-2.1,4.7,-4.6c0,-2.6,-2.1,-4.7,-4.7,-4.7c-2.6,0,-4.7,2.1,-4.7,4.7Z" class="gb_120"/>
</g>
<g clip-path="url(#c1_120)">
<path d="M728.8,269.5c0,0,-9.4,-39.7,-17.1,9.2c-.2,1.5,2.9,.2,2.9,.2c0,0,5.7,-41.5,11.4,-9.3Z" class="gc_120"/>
<path d="M728.8,269.5c0,0,-9.4,-39.7,-17.1,9.2c-.2,1.5,2.9,.2,2.9,.2c0,0,5.7,-41.5,11.4,-9.3l2.8,-.1Z" class="gd_120"/>
</g>
<g clip-path="url(#c0_120)">
<path d="M710.9,279.2c0,.7,.9,1.3,2.1,1.4c1.2,0,2.2,-.5,2.2,-1.1c.1,-.7,-.9,-1.4,-2.1,-1.4c-1.1,-.1,-2.1,.4,-2.2,1.1Z" class="gc_120"/>
<path d="M684.7,279.6c0,2.5,2.1,4.6,4.7,4.6c2.6,0,4.7,-2.1,4.7,-4.6c0,-2.6,-2.1,-4.7,-4.7,-4.7c-2.6,0,-4.7,2.1,-4.7,4.7Z" class="gb_120"/>
</g>
<g clip-path="url(#c1_120)">
<path d="M704.7,269.5c0,0,-9.4,-39.7,-17.1,9.2c-.2,1.5,2.9,.2,2.9,.2c0,0,5.7,-41.5,11.3,-9.3Z" class="gc_120"/>
<path d="M704.7,269.5c0,0,-9.4,-39.7,-17.1,9.2c-.2,1.5,2.9,.2,2.9,.2c0,0,5.7,-41.5,11.3,-9.3l2.9,-.1Z" class="gd_120"/>
</g>
<g clip-path="url(#c0_120)">
<path d="M686.8,279.2c0,.7,.9,1.3,2.1,1.4c1.2,0,2.2,-.5,2.2,-1.1c.1,-.7,-.9,-1.4,-2.1,-1.4c-1.1,-.1,-2.1,.4,-2.2,1.1Z" class="gc_120"/>
<path d="M660.6,279.6c0,2.5,2.1,4.6,4.7,4.6c2.6,0,4.7,-2.1,4.7,-4.6c0,-2.6,-2.1,-4.7,-4.7,-4.7c-2.6,0,-4.7,2.1,-4.7,4.7Z" class="gb_120"/>
</g>
<g clip-path="url(#c1_120)">
<path d="M680.6,269.5c0,0,-9.4,-39.7,-17.1,9.2c-.2,1.5,2.9,.2,2.9,.2c0,0,5.7,-41.5,11.3,-9.3Z" class="gc_120"/>
<path d="M680.6,269.5c0,0,-9.4,-39.7,-17.1,9.2c-.2,1.5,2.9,.2,2.9,.2c0,0,5.7,-41.5,11.3,-9.3l2.9,-.1Z" class="gd_120"/>
</g>
<g clip-path="url(#c0_120)">
<path d="M662.7,279.2c0,.7,.9,1.3,2.1,1.4c1.2,0,2.2,-.5,2.2,-1.1c.1,-.7,-.9,-1.4,-2.1,-1.4c-1.1,-.1,-2.1,.4,-2.2,1.1Z" class="gc_120"/>
<path d="M636.5,279.6c0,2.5,2.1,4.6,4.7,4.6c2.6,0,4.7,-2.1,4.7,-4.6c0,-2.6,-2.1,-4.7,-4.7,-4.7c-2.6,0,-4.7,2.1,-4.7,4.7Z" class="gb_120"/>
</g>
<g clip-path="url(#c1_120)">
<path d="M656.5,269.5c0,0,-9.4,-39.7,-17.1,9.2c-.2,1.5,2.9,.2,2.9,.2c0,0,5.6,-41.5,11.3,-9.3Z" class="gc_120"/>
<path d="M656.5,269.5c0,0,-9.4,-39.7,-17.1,9.2c-.2,1.5,2.9,.2,2.9,.2c0,0,5.6,-41.5,11.3,-9.3l2.9,-.1Z" class="gd_120"/>
</g>
<g clip-path="url(#c0_120)">
<path d="M638.6,279.2c0,.7,.9,1.3,2.1,1.4c1.2,0,2.2,-.5,2.2,-1.1c0,-.7,-.9,-1.4,-2.1,-1.4c-1.1,-.1,-2.1,.4,-2.2,1.1Z" class="gc_120"/>
<path d="M612.4,279.6c0,2.5,2.1,4.6,4.7,4.6c2.6,0,4.7,-2.1,4.7,-4.6c0,-2.6,-2.1,-4.7,-4.7,-4.7c-2.6,0,-4.7,2.1,-4.7,4.7Z" class="gb_120"/>
</g>
<g clip-path="url(#c1_120)">
<path d="M632.4,269.5c0,0,-9.4,-39.7,-17.1,9.2c-.2,1.5,2.9,.2,2.9,.2c0,0,5.6,-41.5,11.3,-9.3Z" class="gc_120"/>
<path d="M632.4,269.5c0,0,-9.4,-39.7,-17.1,9.2c-.2,1.5,2.9,.2,2.9,.2c0,0,5.6,-41.5,11.3,-9.3l2.9,-.1Z" class="gd_120"/>
</g>
<g clip-path="url(#c0_120)">
<path d="M614.5,279.2c0,.7,.9,1.3,2.1,1.4c1.2,0,2.2,-.5,2.2,-1.1c0,-.7,-.9,-1.4,-2.1,-1.4c-1.2,-.1,-2.1,.4,-2.2,1.1Z" class="gc_120"/>
<path d="M588.3,279.6c0,2.5,2.1,4.6,4.7,4.6c2.6,0,4.7,-2.1,4.7,-4.6c0,-2.6,-2.1,-4.7,-4.7,-4.7c-2.6,0,-4.7,2.1,-4.7,4.7Z" class="gb_120"/>
</g>
<g clip-path="url(#c1_120)">
<path d="M608.3,269.5c0,0,-9.4,-39.7,-17.1,9.2c-.2,1.5,2.8,.2,2.8,.2c0,0,5.7,-41.5,11.4,-9.3Z" class="gc_120"/>
<path d="M608.3,269.5c0,0,-9.4,-39.7,-17.1,9.2c-.2,1.5,2.8,.2,2.8,.2c0,0,5.7,-41.5,11.4,-9.3l2.9,-.1Z" class="gd_120"/>
</g>
<g clip-path="url(#c0_120)">
<path d="M590.4,279.2c0,.7,.9,1.3,2.1,1.4c1.2,0,2.2,-.5,2.2,-1.1c0,-.7,-.9,-1.4,-2.1,-1.4c-1.2,-.1,-2.2,.4,-2.2,1.1Z" class="gc_120"/>
<path d="M564.2,279.6c0,2.5,2.1,4.6,4.7,4.6c2.6,0,4.6,-2.1,4.6,-4.6c0,-2.6,-2,-4.7,-4.6,-4.7c-2.6,0,-4.7,2.1,-4.7,4.7Z" class="gb_120"/>
</g>
<g clip-path="url(#c1_120)">
<path d="M584.2,269.5c0,0,-9.4,-39.7,-17.1,9.2c-.2,1.5,2.8,.2,2.8,.2c0,0,5.7,-41.5,11.4,-9.3Z" class="gc_120"/>
<path d="M584.2,269.5c0,0,-9.4,-39.7,-17.1,9.2c-.2,1.5,2.8,.2,2.8,.2c0,0,5.7,-41.5,11.4,-9.3l2.9,-.1Z" class="gd_120"/>
</g>
<g clip-path="url(#c0_120)">
<path d="M566.3,279.2c0,.7,.9,1.3,2.1,1.4c1.2,0,2.1,-.5,2.2,-1.1c0,-.7,-.9,-1.4,-2.1,-1.4c-1.2,-.1,-2.2,.4,-2.2,1.1Z" class="gc_120"/>
<path d="M540.1,279.6c0,2.5,2.1,4.6,4.7,4.6c2.5,0,4.6,-2.1,4.6,-4.6c0,-2.6,-2.1,-4.7,-4.6,-4.7c-2.6,0,-4.7,2.1,-4.7,4.7Z" class="gb_120"/>
</g>
<g clip-path="url(#c1_120)">
<path d="M560.1,269.5c0,0,-9.4,-39.7,-17.1,9.2c-.2,1.5,2.8,.2,2.8,.2c0,0,5.7,-41.5,11.4,-9.3Z" class="gc_120"/>
<path d="M560.1,269.5c0,0,-9.4,-39.7,-17.1,9.2c-.2,1.5,2.8,.2,2.8,.2c0,0,5.7,-41.5,11.4,-9.3l2.9,-.1Z" class="gd_120"/>
</g>
<g clip-path="url(#c0_120)">
<path d="M542.2,279.2c0,.7,.9,1.3,2.1,1.4c1.1,0,2.1,-.5,2.2,-1.1c0,-.7,-.9,-1.4,-2.1,-1.4c-1.2,-.1,-2.2,.4,-2.2,1.1Z" class="gc_120"/>
<path d="M516,279.6c0,2.5,2.1,4.6,4.7,4.6c2.5,0,4.6,-2.1,4.6,-4.6c0,-2.6,-2.1,-4.7,-4.6,-4.7c-2.6,0,-4.7,2.1,-4.7,4.7Z" class="gb_120"/>
</g>
<g clip-path="url(#c1_120)">
<path d="M536,269.5c0,0,-9.4,-39.7,-17.1,9.2c-.2,1.5,2.8,.2,2.8,.2c0,0,5.7,-41.5,11.4,-9.3Z" class="gc_120"/>
<path d="M536,269.5c0,0,-9.4,-39.7,-17.1,9.2c-.2,1.5,2.8,.2,2.8,.2c0,0,5.7,-41.5,11.4,-9.3l2.9,-.1Z" class="gd_120"/>
</g>
<g clip-path="url(#c0_120)">
<path d="M518.1,279.2c-.1,.7,.9,1.3,2.1,1.4c1.1,0,2.1,-.5,2.2,-1.1c0,-.7,-.9,-1.4,-2.1,-1.4c-1.2,-.1,-2.2,.4,-2.2,1.1Z" class="gc_120"/>
<path d="M491.9,279.6c0,2.5,2.1,4.6,4.6,4.6c2.6,0,4.7,-2.1,4.7,-4.6c0,-2.6,-2.1,-4.7,-4.7,-4.7c-2.5,0,-4.6,2.1,-4.6,4.7Z" class="gb_120"/>
</g>
<g clip-path="url(#c1_120)">
<path d="M511.9,269.5c0,0,-9.4,-39.7,-17.1,9.2c-.2,1.5,2.8,.2,2.8,.2c0,0,5.7,-41.5,11.4,-9.3Z" class="gc_120"/>
<path d="M511.9,269.5c0,0,-9.4,-39.7,-17.1,9.2c-.2,1.5,2.8,.2,2.8,.2c0,0,5.7,-41.5,11.4,-9.3l2.9,-.1Z" class="gd_120"/>
</g>
<g clip-path="url(#c0_120)">
<path d="M494,279.2c-.1,.7,.9,1.3,2.1,1.4c1.1,0,2.1,-.5,2.2,-1.1c0,-.7,-.9,-1.4,-2.1,-1.4c-1.2,-.1,-2.2,.4,-2.2,1.1Z" class="gc_120"/>
<path d="M467.8,279.6c0,2.5,2.1,4.6,4.6,4.6c2.6,0,4.7,-2.1,4.7,-4.6c0,-2.6,-2.1,-4.7,-4.7,-4.7c-2.5,0,-4.6,2.1,-4.6,4.7Z" class="gb_120"/>
</g>
<g clip-path="url(#c1_120)">
<path d="M487.7,269.5c0,0,-9.3,-39.7,-17,9.2c-.3,1.5,2.8,.2,2.8,.2c0,0,5.7,-41.5,11.4,-9.3Z" class="gc_120"/>
<path d="M487.7,269.5c0,0,-9.3,-39.7,-17,9.2c-.3,1.5,2.8,.2,2.8,.2c0,0,5.7,-41.5,11.4,-9.3l2.8,-.1Z" class="gd_120"/>
</g>
<g clip-path="url(#c0_120)">
<path d="M469.9,279.2c-.1,.7,.9,1.3,2,1.4c1.2,0,2.2,-.5,2.3,-1.1c0,-.7,-.9,-1.4,-2.1,-1.4c-1.2,-.1,-2.2,.4,-2.2,1.1Z" class="gc_120"/>
<path d="M443.7,279.6c0,2.5,2.1,4.6,4.6,4.6c2.6,0,4.7,-2.1,4.7,-4.6c0,-2.6,-2.1,-4.7,-4.7,-4.7c-2.5,0,-4.6,2.1,-4.6,4.7Z" class="gb_120"/>
</g>
<g clip-path="url(#c1_120)">
<path d="M463.6,269.5c0,0,-9.3,-39.7,-17,9.2c-.3,1.5,2.8,.2,2.8,.2c0,0,5.7,-41.5,11.4,-9.3Z" class="gc_120"/>
<path d="M463.6,269.5c0,0,-9.3,-39.7,-17,9.2c-.3,1.5,2.8,.2,2.8,.2c0,0,5.7,-41.5,11.4,-9.3l2.8,-.1Z" class="gd_120"/>
</g>
<g clip-path="url(#c0_120)">
<path d="M445.8,279.2c-.1,.7,.9,1.3,2,1.4c1.2,0,2.2,-.5,2.3,-1.1c0,-.7,-.9,-1.4,-2.1,-1.4c-1.2,-.1,-2.2,.4,-2.2,1.1Z" class="gc_120"/>
<path d="M419.5,279.6c0,2.5,2.1,4.6,4.7,4.6c2.6,0,4.7,-2.1,4.7,-4.6c0,-2.6,-2.1,-4.7,-4.7,-4.7c-2.6,0,-4.7,2.1,-4.7,4.7Z" class="gb_120"/>
</g>
<g clip-path="url(#c1_120)">
<path d="M439.5,269.5c0,0,-9.3,-39.7,-17,9.2c-.3,1.5,2.8,.2,2.8,.2c0,0,5.7,-41.5,11.4,-9.3Z" class="gc_120"/>
<path d="M439.5,269.5c0,0,-9.3,-39.7,-17,9.2c-.3,1.5,2.8,.2,2.8,.2c0,0,5.7,-41.5,11.4,-9.3l2.8,-.1Z" class="gd_120"/>
</g>
<g clip-path="url(#c0_120)">
<path d="M421.7,279.2c-.1,.7,.9,1.3,2,1.4c1.2,0,2.2,-.5,2.3,-1.1c0,-.7,-.9,-1.4,-2.1,-1.4c-1.2,-.1,-2.2,.4,-2.2,1.1Z" class="gc_120"/>
<path d="M395.4,279.6c0,2.5,2.1,4.6,4.7,4.6c2.6,0,4.7,-2.1,4.7,-4.6c0,-2.6,-2.1,-4.7,-4.7,-4.7c-2.6,0,-4.7,2.1,-4.7,4.7Z" class="gb_120"/>
</g>
<g clip-path="url(#c1_120)">
<path d="M415.4,269.5c0,0,-9.3,-39.7,-17,9.2c-.3,1.5,2.8,.2,2.8,.2c0,0,5.7,-41.5,11.4,-9.3Z" class="gc_120"/>
<path d="M415.4,269.5c0,0,-9.3,-39.7,-17,9.2c-.3,1.5,2.8,.2,2.8,.2c0,0,5.7,-41.5,11.4,-9.3l2.8,-.1Z" class="gd_120"/>
</g>
<g clip-path="url(#c0_120)">
<path d="M397.6,279.2c-.1,.7,.8,1.3,2,1.4c1.2,0,2.2,-.5,2.3,-1.1c0,-.7,-.9,-1.4,-2.1,-1.4c-1.2,-.1,-2.2,.4,-2.2,1.1Z" class="gc_120"/>
<path d="M240.2,580.8h372V270.2h-372V580.8Z" class="g9_120"/>
<path d="M612.2,270.2h-372V580.8h372" class="ga_120"/>
<path d="M587.6,279.6c0,2.5,2.1,4.6,4.7,4.6c2.6,0,4.7,-2.1,4.7,-4.6c0,-2.6,-2.1,-4.7,-4.7,-4.7c-2.6,0,-4.7,2.1,-4.7,4.7Z" class="gb_120"/>
</g>
<g clip-path="url(#c1_120)">
<path d="M607.6,269.5c0,0,-9.4,-39.7,-17.1,9.2c-.2,1.5,2.9,.2,2.9,.2c0,0,5.7,-41.5,11.3,-9.3Z" class="gc_120"/>
<path d="M607.6,269.5c0,0,-9.4,-39.7,-17.1,9.2c-.2,1.5,2.9,.2,2.9,.2c0,0,5.7,-41.5,11.3,-9.3l2.9,-.1Z" class="gd_120"/>
</g>
<g clip-path="url(#c0_120)">
<path d="M589.7,279.2c0,.7,.9,1.3,2.1,1.4c1.2,0,2.2,-.5,2.2,-1.1c.1,-.7,-.9,-1.4,-2.1,-1.4c-1.1,-.1,-2.1,.4,-2.2,1.1Z" class="gc_120"/>
<path d="M563.5,279.6c0,2.5,2.1,4.6,4.7,4.6c2.6,0,4.7,-2.1,4.7,-4.6c0,-2.6,-2.1,-4.7,-4.7,-4.7c-2.6,0,-4.7,2.1,-4.7,4.7Z" class="gb_120"/>
</g>
<g clip-path="url(#c1_120)">
<path d="M583.5,269.5c0,0,-9.4,-39.7,-17.1,9.2c-.2,1.5,2.9,.2,2.9,.2c0,0,5.6,-41.5,11.3,-9.3Z" class="gc_120"/>
<path d="M583.5,269.5c0,0,-9.4,-39.7,-17.1,9.2c-.2,1.5,2.9,.2,2.9,.2c0,0,5.6,-41.5,11.3,-9.3l2.9,-.1Z" class="gd_120"/>
</g>
<g clip-path="url(#c0_120)">
<path d="M565.6,279.2c0,.7,.9,1.3,2.1,1.4c1.2,0,2.2,-.5,2.2,-1.1c.1,-.7,-.9,-1.4,-2.1,-1.4c-1.1,-.1,-2.1,.4,-2.2,1.1Z" class="gc_120"/>
<path d="M539.4,279.6c0,2.5,2.1,4.6,4.7,4.6c2.6,0,4.7,-2.1,4.7,-4.6c0,-2.6,-2.1,-4.7,-4.7,-4.7c-2.6,0,-4.7,2.1,-4.7,4.7Z" class="gb_120"/>
</g>
<g clip-path="url(#c1_120)">
<path d="M559.4,269.5c0,0,-9.4,-39.7,-17.1,9.2c-.2,1.5,2.9,.2,2.9,.2c0,0,5.6,-41.5,11.3,-9.3Z" class="gc_120"/>
<path d="M559.4,269.5c0,0,-9.4,-39.7,-17.1,9.2c-.2,1.5,2.9,.2,2.9,.2c0,0,5.6,-41.5,11.3,-9.3l2.9,-.1Z" class="gd_120"/>
</g>
<g clip-path="url(#c0_120)">
<path d="M541.5,279.2c0,.7,.9,1.3,2.1,1.4c1.2,0,2.2,-.5,2.2,-1.1c0,-.7,-.9,-1.4,-2.1,-1.4c-1.2,-.1,-2.1,.4,-2.2,1.1Z" class="gc_120"/>
<path d="M515.3,279.6c0,2.5,2.1,4.6,4.7,4.6c2.6,0,4.7,-2.1,4.7,-4.6c0,-2.6,-2.1,-4.7,-4.7,-4.7c-2.6,0,-4.7,2.1,-4.7,4.7Z" class="gb_120"/>
</g>
<g clip-path="url(#c1_120)">
<path d="M535.3,269.5c0,0,-9.4,-39.7,-17.1,9.2c-.2,1.5,2.8,.2,2.8,.2c0,0,5.7,-41.5,11.4,-9.3Z" class="gc_120"/>
<path d="M535.3,269.5c0,0,-9.4,-39.7,-17.1,9.2c-.2,1.5,2.8,.2,2.8,.2c0,0,5.7,-41.5,11.4,-9.3l2.9,-.1Z" class="gd_120"/>
</g>
<g clip-path="url(#c0_120)">
<path d="M517.4,279.2c0,.7,.9,1.3,2.1,1.4c1.2,0,2.2,-.5,2.2,-1.1c0,-.7,-.9,-1.4,-2.1,-1.4c-1.2,-.1,-2.1,.4,-2.2,1.1Z" class="gc_120"/>
<path d="M491.2,279.6c0,2.5,2.1,4.6,4.7,4.6c2.6,0,4.7,-2.1,4.7,-4.6c0,-2.6,-2.1,-4.7,-4.7,-4.7c-2.6,0,-4.7,2.1,-4.7,4.7Z" class="gb_120"/>
</g>
<g clip-path="url(#c1_120)">
<path d="M511.2,269.5c0,0,-9.4,-39.7,-17.1,9.2c-.2,1.5,2.8,.2,2.8,.2c0,0,5.7,-41.5,11.4,-9.3Z" class="gc_120"/>
<path d="M511.2,269.5c0,0,-9.4,-39.7,-17.1,9.2c-.2,1.5,2.8,.2,2.8,.2c0,0,5.7,-41.5,11.4,-9.3l2.9,-.1Z" class="gd_120"/>
</g>
<g clip-path="url(#c0_120)">
<path d="M493.3,279.2c0,.7,.9,1.3,2.1,1.4c1.2,0,2.1,-.5,2.2,-1.1c0,-.7,-.9,-1.4,-2.1,-1.4c-1.2,-.1,-2.2,.4,-2.2,1.1Z" class="gc_120"/>
<path d="M467.1,279.6c0,2.5,2.1,4.6,4.7,4.6c2.6,0,4.7,-2.1,4.7,-4.6c0,-2.6,-2.1,-4.7,-4.7,-4.7c-2.6,0,-4.7,2.1,-4.7,4.7Z" class="gb_120"/>
</g>
<g clip-path="url(#c1_120)">
<path d="M487.1,269.5c0,0,-9.4,-39.7,-17.1,9.2c-.2,1.5,2.8,.2,2.8,.2c0,0,5.7,-41.5,11.4,-9.3Z" class="gc_120"/>
<path d="M487.1,269.5c0,0,-9.4,-39.7,-17.1,9.2c-.2,1.5,2.8,.2,2.8,.2c0,0,5.7,-41.5,11.4,-9.3l2.9,-.1Z" class="gd_120"/>
</g>
<g clip-path="url(#c0_120)">
<path d="M469.2,279.2c0,.7,.9,1.3,2.1,1.4c1.1,0,2.1,-.5,2.2,-1.1c0,-.7,-.9,-1.4,-2.1,-1.4c-1.2,-.1,-2.2,.4,-2.2,1.1Z" class="gc_120"/>
<path d="M443,279.6c0,2.5,2.1,4.6,4.7,4.6c2.5,0,4.6,-2.1,4.6,-4.6c0,-2.6,-2.1,-4.7,-4.6,-4.7c-2.6,0,-4.7,2.1,-4.7,4.7Z" class="gb_120"/>
</g>
<g clip-path="url(#c1_120)">
<path d="M463,269.5c0,0,-9.4,-39.7,-17.1,9.2c-.2,1.5,2.8,.2,2.8,.2c0,0,5.7,-41.5,11.4,-9.3Z" class="gc_120"/>
<path d="M463,269.5c0,0,-9.4,-39.7,-17.1,9.2c-.2,1.5,2.8,.2,2.8,.2c0,0,5.7,-41.5,11.4,-9.3l2.9,-.1Z" class="gd_120"/>
</g>
<g clip-path="url(#c0_120)">
<path d="M445.1,279.2c0,.7,.9,1.3,2.1,1.4c1.1,0,2.1,-.5,2.2,-1.1c0,-.7,-.9,-1.4,-2.1,-1.4c-1.2,-.1,-2.2,.4,-2.2,1.1Z" class="gc_120"/>
<path d="M418.9,279.6c0,2.5,2.1,4.6,4.7,4.6c2.5,0,4.6,-2.1,4.6,-4.6c0,-2.6,-2.1,-4.7,-4.6,-4.7c-2.6,0,-4.7,2.1,-4.7,4.7Z" class="gb_120"/>
</g>
<g clip-path="url(#c1_120)">
<path d="M438.9,269.5c0,0,-9.4,-39.7,-17.1,9.2c-.2,1.5,2.8,.2,2.8,.2c0,0,5.7,-41.5,11.4,-9.3Z" class="gc_120"/>
<path d="M438.9,269.5c0,0,-9.4,-39.7,-17.1,9.2c-.2,1.5,2.8,.2,2.8,.2c0,0,5.7,-41.5,11.4,-9.3l2.9,-.1Z" class="gd_120"/>
</g>
<g clip-path="url(#c0_120)">
<path d="M421,279.2c-.1,.7,.9,1.3,2.1,1.4c1.1,0,2.1,-.5,2.2,-1.1c0,-.7,-.9,-1.4,-2.1,-1.4c-1.2,-.1,-2.2,.4,-2.2,1.1Z" class="gc_120"/>
<path d="M394.8,279.6c0,2.5,2.1,4.6,4.6,4.6c2.6,0,4.7,-2.1,4.7,-4.6c0,-2.6,-2.1,-4.7,-4.7,-4.7c-2.5,0,-4.6,2.1,-4.6,4.7Z" class="gb_120"/>
</g>
<g clip-path="url(#c1_120)">
<path d="M414.8,269.5c0,0,-9.4,-39.7,-17.1,9.2c-.2,1.5,2.8,.2,2.8,.2c0,0,5.7,-41.5,11.4,-9.3Z" class="gc_120"/>
<path d="M414.8,269.5c0,0,-9.4,-39.7,-17.1,9.2c-.2,1.5,2.8,.2,2.8,.2c0,0,5.7,-41.5,11.4,-9.3l2.9,-.1Z" class="gd_120"/>
</g>
<g clip-path="url(#c0_120)">
<path d="M396.9,279.2c-.1,.7,.9,1.3,2.1,1.4c1.1,0,2.1,-.5,2.2,-1.1c0,-.7,-.9,-1.4,-2.1,-1.4c-1.2,-.1,-2.2,.4,-2.2,1.1Z" class="gc_120"/>
<path d="M370.7,279.6c0,2.5,2.1,4.6,4.6,4.6c2.6,0,4.7,-2.1,4.7,-4.6c0,-2.6,-2.1,-4.7,-4.7,-4.7c-2.5,0,-4.6,2.1,-4.6,4.7Z" class="gb_120"/>
</g>
<g clip-path="url(#c1_120)">
<path d="M390.6,269.5c0,0,-9.3,-39.7,-17,9.2c-.3,1.5,2.8,.2,2.8,.2c0,0,5.7,-41.5,11.4,-9.3Z" class="gc_120"/>
<path d="M390.6,269.5c0,0,-9.3,-39.7,-17,9.2c-.3,1.5,2.8,.2,2.8,.2c0,0,5.7,-41.5,11.4,-9.3l2.8,-.1Z" class="gd_120"/>
</g>
<g clip-path="url(#c0_120)">
<path d="M372.8,279.2c-.1,.7,.9,1.3,2,1.4c1.2,0,2.2,-.5,2.3,-1.1c0,-.7,-.9,-1.4,-2.1,-1.4c-1.2,-.1,-2.2,.4,-2.2,1.1Z" class="gc_120"/>
<path d="M346.6,279.6c0,2.5,2.1,4.6,4.6,4.6c2.6,0,4.7,-2.1,4.7,-4.6c0,-2.6,-2.1,-4.7,-4.7,-4.7c-2.5,0,-4.6,2.1,-4.6,4.7Z" class="gb_120"/>
</g>
<g clip-path="url(#c1_120)">
<path d="M366.5,269.5c0,0,-9.3,-39.7,-17,9.2c-.3,1.5,2.8,.2,2.8,.2c0,0,5.7,-41.5,11.4,-9.3Z" class="gc_120"/>
<path d="M366.5,269.5c0,0,-9.3,-39.7,-17,9.2c-.3,1.5,2.8,.2,2.8,.2c0,0,5.7,-41.5,11.4,-9.3l2.8,-.1Z" class="gd_120"/>
</g>
<g clip-path="url(#c0_120)">
<path d="M348.7,279.2c-.1,.7,.9,1.3,2,1.4c1.2,0,2.2,-.5,2.3,-1.1c0,-.7,-.9,-1.4,-2.1,-1.4c-1.2,-.1,-2.2,.4,-2.2,1.1Z" class="gc_120"/>
<path d="M322.4,279.6c0,2.5,2.1,4.6,4.7,4.6c2.6,0,4.7,-2.1,4.7,-4.6c0,-2.6,-2.1,-4.7,-4.7,-4.7c-2.6,0,-4.7,2.1,-4.7,4.7Z" class="gb_120"/>
</g>
<g clip-path="url(#c1_120)">
<path d="M342.4,269.5c0,0,-9.3,-39.7,-17,9.2c-.3,1.5,2.8,.2,2.8,.2c0,0,5.7,-41.5,11.4,-9.3Z" class="gc_120"/>
<path d="M342.4,269.5c0,0,-9.3,-39.7,-17,9.2c-.3,1.5,2.8,.2,2.8,.2c0,0,5.7,-41.5,11.4,-9.3l2.8,-.1Z" class="gd_120"/>
</g>
<g clip-path="url(#c0_120)">
<path d="M324.6,279.2c-.1,.7,.9,1.3,2,1.4c1.2,0,2.2,-.5,2.3,-1.1c0,-.7,-.9,-1.4,-2.1,-1.4c-1.2,-.1,-2.2,.4,-2.2,1.1Z" class="gc_120"/>
<path d="M298.3,279.6c0,2.5,2.1,4.6,4.7,4.6c2.6,0,4.7,-2.1,4.7,-4.6c0,-2.6,-2.1,-4.7,-4.7,-4.7c-2.6,0,-4.7,2.1,-4.7,4.7Z" class="gb_120"/>
</g>
<g clip-path="url(#c1_120)">
<path d="M318.3,269.5c0,0,-9.3,-39.7,-17,9.2c-.3,1.5,2.8,.2,2.8,.2c0,0,5.7,-41.5,11.4,-9.3Z" class="gc_120"/>
<path d="M318.3,269.5c0,0,-9.3,-39.7,-17,9.2c-.3,1.5,2.8,.2,2.8,.2c0,0,5.7,-41.5,11.4,-9.3l2.8,-.1Z" class="gd_120"/>
</g>
<g clip-path="url(#c0_120)">
<path d="M300.5,279.2c-.1,.7,.8,1.3,2,1.4c1.2,0,2.2,-.5,2.3,-1.1c0,-.7,-.9,-1.4,-2.1,-1.4c-1.2,-.1,-2.2,.4,-2.2,1.1Z" class="gc_120"/>
<path d="M274.2,279.6c0,2.5,2.1,4.6,4.7,4.6c2.6,0,4.7,-2.1,4.7,-4.6c0,-2.6,-2.1,-4.7,-4.7,-4.7c-2.6,0,-4.7,2.1,-4.7,4.7Z" class="gb_120"/>
</g>
<g clip-path="url(#c1_120)">
<path d="M294.2,269.5c0,0,-9.3,-39.7,-17,9.2c-.3,1.5,2.8,.2,2.8,.2c0,0,5.7,-41.5,11.4,-9.3Z" class="gc_120"/>
<path d="M294.2,269.5c0,0,-9.3,-39.7,-17,9.2c-.3,1.5,2.8,.2,2.8,.2c0,0,5.7,-41.5,11.4,-9.3l2.8,-.1Z" class="gd_120"/>
</g>
<g clip-path="url(#c0_120)">
<path d="M276.4,279.2c-.1,.7,.8,1.3,2,1.4c1.2,0,2.2,-.5,2.2,-1.1c.1,-.7,-.8,-1.4,-2,-1.4c-1.2,-.1,-2.2,.4,-2.2,1.1Z" class="gc_120"/>
<path d="M250.1,279.6c0,2.5,2.1,4.6,4.7,4.6c2.6,0,4.7,-2.1,4.7,-4.6c0,-2.6,-2.1,-4.7,-4.7,-4.7c-2.6,0,-4.7,2.1,-4.7,4.7Z" class="gb_120"/>
</g>
<g clip-path="url(#c1_120)">
<path d="M270.1,269.5c0,0,-9.3,-39.7,-17,9.2c-.3,1.5,2.8,.2,2.8,.2c0,0,5.7,-41.5,11.4,-9.3Z" class="gc_120"/>
<path d="M270.1,269.5c0,0,-9.3,-39.7,-17,9.2c-.3,1.5,2.8,.2,2.8,.2c0,0,5.7,-41.5,11.4,-9.3l2.8,-.1Z" class="gd_120"/>
</g>
<path clip-path="url(#c0_120)" d="M252.3,279.2c-.1,.7,.8,1.3,2,1.4c1.2,0,2.2,-.5,2.2,-1.1c.1,-.7,-.8,-1.4,-2,-1.4c-1.2,-.1,-2.2,.4,-2.2,1.1Z" class="gc_120"/>
<image clip-path="url(#c2_120)" preserveAspectRatio="none" x="242" y="285" width="502" height="291" xlink:href="img/1.jpg"/>
<path d="M496.3,330h79.3V300.2H496.3V330Z" class="g9_120"/>
<path d="M255.2,339.1h79v-26h-79v26Z" class="g9_120"/>
<path d="M755.1,1214.8c0,0,-4.3,0,-4.3,4.4V1230c0,0,0,4.3,4.3,4.3h30.3c0,0,4.4,0,4.4,-4.3v-10.8c0,0,0,-4.4,-4.4,-4.4Z" class="g5_120"/>
<path d="M741.9,1206v37.5m1.4,1h102m1,-1.3v-37.6m-1.4,-1h-102" class="g6_120"/>
<path d="M741.9,1243.9v.6h.6m103.2,0h.6v-.6m0,-38.7v-.6h-.6m-103.2,0h-.6v.6" class="g7_120"/>
<path d="M209.2,654c0,0,-13,0,-13,13v21.6c0,0,0,13,13,13H833.3c0,0,13,0,13,-13V667c0,0,0,-13,-13,-13Z" class="ge_120"/>
<image clip-path="url(#c3_120)" preserveAspectRatio="none" x="152" y="624" width="75" height="77" xlink:href="img/2.png"/>
<path d="M204,694.3c0,0,-26.8,11.3,-51.1,-12.8c0,0,15.2,25.3,49.3,24c0,0,24.8,.3,20.3,-10.2c0,0,1.2,-4.4,-18.5,-1Z" class="ge_120"/>
<path d="M132.2,126.3v22.2l11.7,10.2V136.5Z" class="gf_120"/>
<path d="M132.2,109.5v39H829.9c0,0,16.9,0,16.9,-16.8v-5.4c0,0,0,-16.8,-16.9,-16.8Z" class="g5_120"/>
<path d="M166,111.6c.7,-.6,1.7,-.8,2.5,-.6l1.3,-1.3l-6.2,-6.1l-6.1,6.1l-1.3,-1.3c.2,-.8,0,-1.8,-.6,-2.4c-1,-1,-2.6,-1,-3.6,0c-1,1,-1,2.6,0,3.6c.6,.6,1.6,.9,2.4,.6l1.3,1.3l-6.1,6.1l6.1,6.2l-1.3,1.3c-.8,-.3,-1.8,-.1,-2.4,.6c-1,1,-1,2.6,0,3.6c1,1,2.6,1,3.6,0c.6,-.7,.9,-1.6,.6,-2.4l1.3,-1.3l6.1,6.1l6.2,-6.1l-1.3,-1.3c-.9,.2,-1.8,0,-2.5,-.7c-1,-1,-1,-2.6,0,-3.6c1,-1,2.6,-1,3.6,0c.7,.7,.9,1.6,.7,2.5l1.3,1.3l6.1,-6.2l-6.1,-6.1l-1.3,1.3c.2,.8,0,1.8,-.7,2.4c-1,1,-2.6,1,-3.6,0c-1,-.9,-1,-2.6,0,-3.6Z" class="gg_120"/>
<path d="M163.6,132.3l-6.1,-6.2l-.8,.9c.1,.9,-.2,1.9,-.8,2.6c-1.2,1.1,-3.1,1.1,-4.2,0c-1.2,-1.2,-1.2,-3,0,-4.2c.7,-.7,1.6,-1,2.6,-.8l.8,-.8L149,117.6l6.1,-6.1l-.8,-.8c-1,.1,-1.9,-.2,-2.6,-.8c-.6,-.6,-.9,-1.3,-.9,-2.1c0,-.8,.3,-1.5,.9,-2.1c1.1,-1.1,3,-1.1,4.1,0c.7,.7,1,1.7,.9,2.6l.8,.8l6.1,-6.1l6.7,6.7l-1.7,1.7h-.2c-.7,-.2,-1.5,0,-2.1,.5c-.8,.9,-.8,2.2,0,3.1c.9,.8,2.2,.8,3.1,0c.5,-.6,.7,-1.4,.5,-2.1v-.2l1.7,-1.7l6.7,6.6l-6.7,6.7l-1.8,-1.7l.1,-.2c.2,-.8,0,-1.5,-.6,-2.1c-.4,-.4,-.9,-.6,-1.5,-.6c-.5,0,-1.1,.2,-1.5,.6c-.8,.8,-.8,2.2,0,3c.5,.6,1.3,.8,2.1,.6l.2,-.1l1.7,1.8ZM157.5,125l6.1,6.1l5.6,-5.5l-.8,-.9c-1,.2,-2,-.1,-2.7,-.8c-.5,-.5,-.8,-1.3,-.8,-2.1c0,-.7,.3,-1.5,.8,-2c.6,-.6,1.3,-.9,2.1,-.9c.8,0,1.6,.3,2.1,.9c.7,.6,1,1.6,.8,2.6l.9,.8l5.5,-5.6l-5.5,-5.5l-.9,.8c.2,1,-.1,1.9,-.8,2.6c-1.1,1.2,-3,1.2,-4.1,0c-1.2,-1.1,-1.2,-3,0,-4.1c.6,-.7,1.6,-1,2.6,-.8l.8,-.9l-5.6,-5.6l-6.1,6.2l-1.7,-1.7v-.3c.2,-.7,0,-1.5,-.5,-2c-.9,-.9,-2.2,-.9,-3.1,0c-.4,.4,-.6,.9,-.6,1.5c0,.6,.2,1.1,.6,1.5c.6,.5,1.4,.8,2.1,.6l.2,-.1l1.8,1.7l-6.2,6.1l6.2,6.2l-1.8,1.7l-.2,-.1c-.7,-.2,-1.5,.1,-2,.6c-.9,.8,-.9,2.2,0,3c.8,.9,2.2,.9,3,0c.5,-.5,.7,-1.3,.5,-2v-.3Z" class="gh_120"/>
<path d="M196.6,122.1c.9,0,1.8,.5,2.2,1.3h1.8v-8.7h-8.7v-1.8c.8,-.4,1.3,-1.2,1.3,-2.2c0,-1.4,-1.1,-2.5,-2.5,-2.5c-1.5,0,-2.6,1.1,-2.6,2.5c0,1,.5,1.8,1.3,2.2v1.8h-8.7v8.7h-1.8c-.4,-.8,-1.2,-1.3,-2.2,-1.3c-1.4,0,-2.5,1.2,-2.5,2.6c0,1.4,1.1,2.5,2.5,2.5c1,0,1.8,-.5,2.2,-1.2h1.8v8.6h8.7v-1.8c-.8,-.4,-1.3,-1.2,-1.3,-2.2c0,-1.4,1.2,-2.5,2.6,-2.5c1.4,0,2.5,1.1,2.5,2.5c0,1,-.5,1.8,-1.3,2.2v1.8h8.7V126h-1.8c-.4,.7,-1.2,1.2,-2.2,1.2c-1.4,0,-2.5,-1.1,-2.5,-2.5c0,-1.4,1.1,-2.6,2.5,-2.6Z" class="gi_120"/>
<path d="M201,135h-9.5v-2.4l.2,-.1c.7,-.4,1.1,-1.1,1.1,-1.9c0,-1.2,-1,-2.1,-2.1,-2.1c-1.2,0,-2.2,.9,-2.2,2.1c0,.8,.4,1.5,1.1,1.9l.2,.1V135h-9.5v-8.6h-1.2c-.5,.7,-1.4,1.2,-2.4,1.2c-1.6,0,-2.9,-1.3,-2.9,-2.9c0,-1.6,1.3,-3,2.9,-3c1,0,1.9,.5,2.4,1.3h1.2v-8.7H189v-1.1c-.8,-.6,-1.3,-1.5,-1.3,-2.5c0,-1.6,1.3,-2.9,3,-2.9c1.6,0,2.9,1.3,2.9,2.9c0,1,-.5,1.9,-1.3,2.5v1.1H201v9.5h-2.4l-.1,-.2c-.4,-.6,-1.1,-1.1,-1.9,-1.1c-.6,0,-1.1,.3,-1.5,.7c-.4,.4,-.6,.9,-.6,1.5c0,1.2,.9,2.1,2.1,2.1c.8,0,1.5,-.4,1.9,-1l.1,-.2H201Zm-8.7,-.8h7.9v-7.8H199c-.5,.7,-1.4,1.2,-2.4,1.2c-1.6,0,-2.9,-1.3,-2.9,-2.9c0,-.8,.3,-1.5,.8,-2.1c.6,-.5,1.3,-.9,2.1,-.9c1,0,1.9,.5,2.4,1.3h1.2v-7.9h-8.7v-2.4l.2,-.1c.7,-.4,1.1,-1.1,1.1,-1.9c0,-1.2,-1,-2.1,-2.1,-2.1c-1.2,0,-2.2,.9,-2.2,2.1c0,.8,.4,1.5,1.1,1.9l.2,.1v2.4h-8.7v8.7h-2.4l-.1,-.2c-.4,-.6,-1.1,-1.1,-1.9,-1.1c-1.2,0,-2.1,1,-2.1,2.2c0,1.2,.9,2.1,2.1,2.1c.8,0,1.5,-.4,1.9,-1l.1,-.2h2.4v8.6H189V133c-.8,-.5,-1.3,-1.4,-1.3,-2.4c0,-1.6,1.3,-2.9,3,-2.9c1.6,0,2.9,1.3,2.9,2.9c0,1,-.5,1.9,-1.3,2.4Z" class="gh_120"/>
<path d="M176.7,142c1,0,1.8,.5,2.2,1.3h1.8v-8.7H172v-1.8c.8,-.4,1.3,-1.2,1.3,-2.2c0,-1.4,-1.1,-2.5,-2.5,-2.5c-1.4,0,-2.6,1.1,-2.6,2.5c0,1,.5,1.8,1.3,2.2v1.8h-8.7v8.7H159c-.4,-.8,-1.2,-1.3,-2.2,-1.3c-1.4,0,-2.5,1.2,-2.5,2.6c0,1.4,1.1,2.5,2.5,2.5c1,0,1.8,-.5,2.2,-1.2h1.8v8.6h8.7v-1.8c-.8,-.4,-1.3,-1.2,-1.3,-2.2c0,-1.4,1.2,-2.5,2.6,-2.5c1.4,0,2.5,1.1,2.5,2.5c0,1,-.5,1.8,-1.3,2.2v1.8h8.7v-8.7h-1.8c-.4,.8,-1.2,1.3,-2.2,1.3c-1.4,0,-2.5,-1.1,-2.5,-2.5c0,-1.4,1.1,-2.6,2.5,-2.6Z" class="gj_120"/>
<path d="M181.1,154.9h-9.5v-2.4l.2,-.1c.7,-.4,1.1,-1.1,1.1,-1.9c0,-1.2,-1,-2.1,-2.1,-2.1c-1.2,0,-2.2,.9,-2.2,2.1c0,.8,.4,1.5,1.1,1.9l.2,.1v2.4h-9.5v-8.6h-1.2c-.5,.7,-1.4,1.2,-2.4,1.2c-1.6,0,-2.9,-1.3,-2.9,-2.9c0,-1.6,1.3,-3,2.9,-3c1,0,1.9,.5,2.4,1.3h1.2v-8.7h8.7V133c-.8,-.5,-1.3,-1.4,-1.3,-2.4c0,-1.6,1.3,-2.9,3,-2.9c1.6,0,2.9,1.3,2.9,2.9c0,1,-.5,1.9,-1.3,2.4v1.2h8.7v9.5h-2.4l-.1,-.2c-.4,-.7,-1.1,-1.1,-1.9,-1.1c-1.2,0,-2.1,1,-2.1,2.2c0,1.1,.9,2.1,2.1,2.1c.8,0,1.5,-.4,1.9,-1.1l.1,-.2h2.4Zm-8.7,-.8h7.9v-7.9h-1.2c-.5,.8,-1.4,1.3,-2.4,1.3c-1.6,0,-2.9,-1.3,-2.9,-2.9c0,-1.6,1.3,-3,2.9,-3c1,0,1.9,.5,2.4,1.3h1.2V135h-8.7v-2.4l.2,-.1c.7,-.4,1.1,-1.1,1.1,-1.9c0,-1.2,-1,-2.1,-2.1,-2.1c-1.2,0,-2.2,.9,-2.2,2.1c0,.8,.4,1.5,1.1,1.9l.2,.1V135h-8.7v8.7h-2.4l-.1,-.2c-.4,-.7,-1.1,-1.1,-1.9,-1.1c-1.2,0,-2.1,1,-2.1,2.2c0,1.2,.9,2.1,2.1,2.1c.8,0,1.5,-.4,1.9,-1l.1,-.2h2.4v8.6h7.9v-1.2c-.8,-.5,-1.3,-1.4,-1.3,-2.4c0,-1.6,1.3,-2.9,3,-2.9c1.6,0,2.9,1.3,2.9,2.9c0,1,-.5,1.9,-1.3,2.4Z" class="gh_120"/>
<path d="M196.6,142c.9,0,1.8,.5,2.2,1.3h1.8v-8.7h-8.7v-1.8c.8,-.4,1.3,-1.2,1.3,-2.2c0,-1.4,-1.1,-2.5,-2.5,-2.5c-1.5,0,-2.6,1.1,-2.6,2.5c0,1,.5,1.8,1.3,2.2v1.8h-8.7v8.7h-1.8c-.4,-.8,-1.2,-1.3,-2.2,-1.3c-1.4,0,-2.5,1.2,-2.5,2.6c0,1.4,1.1,2.5,2.5,2.5c1,0,1.8,-.5,2.2,-1.2h1.8v8.6h8.7v-1.8c-.8,-.4,-1.3,-1.2,-1.3,-2.2c0,-1.4,1.2,-2.5,2.6,-2.5c1.4,0,2.5,1.1,2.5,2.5c0,1,-.5,1.8,-1.3,2.2v1.8h8.7v-8.7h-1.8c-.4,.8,-1.2,1.3,-2.2,1.3c-1.4,0,-2.5,-1.1,-2.5,-2.5c0,-1.4,1.1,-2.6,2.5,-2.6Z" class="gk_120"/>
<path d="M201,154.9h-9.5v-2.4l.2,-.1c.7,-.4,1.1,-1.1,1.1,-1.9c0,-1.2,-1,-2.1,-2.1,-2.1c-1.2,0,-2.2,.9,-2.2,2.1c0,.8,.4,1.5,1.1,1.9l.2,.1v2.4h-9.5v-8.6h-1.2c-.5,.7,-1.4,1.2,-2.4,1.2c-1.6,0,-2.9,-1.3,-2.9,-2.9c0,-1.6,1.3,-3,2.9,-3c1,0,1.9,.5,2.4,1.3h1.2v-8.7H189V133c-.8,-.5,-1.3,-1.4,-1.3,-2.4c0,-1.6,1.3,-2.9,3,-2.9c1.6,0,2.9,1.3,2.9,2.9c0,1,-.5,1.9,-1.3,2.4v1.2H201v9.5h-2.4l-.1,-.2c-.4,-.7,-1.1,-1.1,-1.9,-1.1c-.6,0,-1.1,.3,-1.5,.7c-.4,.4,-.6,.9,-.6,1.5c0,1.1,.9,2.1,2.1,2.1c.8,0,1.5,-.4,1.9,-1.1l.1,-.2H201Zm-8.7,-.8h7.9v-7.9H199c-.5,.8,-1.4,1.3,-2.4,1.3c-1.6,0,-2.9,-1.3,-2.9,-2.9c0,-.8,.3,-1.5,.8,-2.1c.6,-.6,1.3,-.9,2.1,-.9c1,0,1.9,.5,2.4,1.3h1.2V135h-8.7v-2.4l.2,-.1c.7,-.4,1.1,-1.1,1.1,-1.9c0,-1.2,-1,-2.1,-2.1,-2.1c-1.2,0,-2.2,.9,-2.2,2.1c0,.8,.4,1.5,1.1,1.9l.2,.1V135h-8.7v8.7h-2.4l-.1,-.2c-.4,-.7,-1.1,-1.1,-1.9,-1.1c-1.2,0,-2.1,1,-2.1,2.2c0,1.2,.9,2.1,2.1,2.1c.8,0,1.5,-.4,1.9,-1l.1,-.2h2.4v8.6H189v-1.2c-.8,-.5,-1.3,-1.4,-1.3,-2.4c0,-1.6,1.3,-2.9,3,-2.9c1.6,0,2.9,1.3,2.9,2.9c0,1,-.5,1.9,-1.3,2.4Z" class="gh_120"/>
<path d="M132.5,1197.2h713V1048.5h-713v148.7Z" class="gl_120"/>
<path d="M132.5,1053.2v141.7m4.5,2.3H843.2m2.3,-4.6V1050.8m-4.6,-2.3H134.7" class="gm_120"/>
<path d="M132.5,1197.2v0m713,0v0m0,-148.7v0m-713,0v0" class="gn_120"/>
<path d="M131.7,1051.8v-28.7c0,0,0,-8.6,8.6,-8.6H837.6c0,0,8.7,0,8.7,8.6v29.2Z" class="gi_120"/>
<path d="M160.4,1040.4H155c.1,3,1.1,5.8,2.7,8.2h4.1c-.8,-2.4,-1.4,-5.2,-1.4,-8.2Z" class="go_120"/>
<path d="M160.4,1039.4c0,-2.9,.6,-5.7,1.4,-8.1h-4.1c-1.6,2.3,-2.6,5.1,-2.7,8.1Z" class="go_120"/>
<path d="M170.6,1030v.3h6.6c-.2,-.4,-.4,-.8,-.6,-1.1c-1.9,.4,-3.9,.8,-6,.8Z" class="go_120"/>
<path d="M177.5,1029c.2,.4,.4,.9,.6,1.3h2.3c.1,-.4,.3,-.7,.6,-1.1c-.3,-.3,-.6,-.5,-.9,-.8c-.1,0,-.2,.1,-.3,.1c-.8,.1,-1.5,.3,-2.3,.5Z" class="go_120"/>
<path d="M179.9,1040.4c0,3,-.5,5.8,-1.4,8.2h4.1c1.7,-2.4,2.7,-5.2,2.7,-8.2Z" class="go_120"/>
<path d="M179,1039.4c0,-3,-.6,-5.8,-1.5,-8.1h-6.9v8.1Z" class="go_120"/>
<path d="M169.7,1049.5h-6.5c1.1,2.5,2.6,4.4,4.4,5.4c.7,.1,1.4,.2,2.1,.2Z" class="go_120"/>
<path d="M180.3,1034.7v-3.4h-1.8c.9,2.4,1.4,5.2,1.4,8.1h5.4c0,-.9,-.1,-1.7,-.3,-2.6c-.5,.5,-1.1,.7,-1.8,.7c-1.6,0,-2.9,-1.3,-2.9,-2.8Z" class="go_120"/>
<path d="M170.6,1049.5v5.6c.7,0,1.5,-.1,2.2,-.2c1.7,-1,3.3,-2.9,4.4,-5.4Z" class="go_120"/>
<path d="M178.1,1049.5c-.8,2,-1.9,3.6,-3.1,4.8c2.7,-.9,5.2,-2.6,6.9,-4.8Z" class="go_120"/>
<path d="M170.6,1040.4v8.2h6.9c.9,-2.4,1.5,-5.2,1.5,-8.2Z" class="go_120"/>
<path d="M162.2,1030.3c.2,-.4,.4,-.9,.6,-1.3c-.8,-.2,-1.5,-.4,-2.3,-.5c-.1,0,-.1,-.1,-.2,-.1c-.7,.6,-1.4,1.2,-1.9,1.9Z" class="go_120"/>
<path d="M169.7,1030c-2.1,0,-4,-.4,-6,-.8c-.2,.3,-.4,.7,-.5,1.1h6.5Z" class="go_120"/>
<path d="M165.3,1054.3c-1.2,-1.2,-2.3,-2.8,-3.1,-4.8h-3.8c1.8,2.2,4.2,3.9,6.9,4.8Z" class="go_120"/>
<path d="M169.7,1039.4v-8.1h-6.9c-.9,2.3,-1.4,5.1,-1.5,8.1Z" class="go_120"/>
<path d="M169.7,1040.4h-8.4c.1,3,.6,5.8,1.5,8.2h6.9Z" class="go_120"/>
<path d="M161.6,1026.8c.6,.2,1.1,.3,1.7,.4c2.2,.5,4.5,1,6.9,1c2.3,0,4.6,-.5,6.9,-1c.5,-.1,1,-.2,1.6,-.4v-5.1l-8.2,3.5c-.1,0,-.2,.1,-.3,.1c-.2,0,-.3,-.1,-.4,-.1l-8.2,-3.5Z" class="g9_120"/>
<path d="M170.2,1023.4l13.7,-6l-13.7,-5.9l-13.8,5.9Z" class="gp_120"/>
<path d="M182.1,1034.7c0,.5,.5,1,1.1,1c.5,0,1,-.5,1,-1v-.6h-2.1Z" class="g9_120"/>
<path d="M183.2,1030.1c-.6,0,-1.1,.4,-1.1,1v2.1h2.1v-2.1c0,-.6,-.5,-1,-1,-1Z" class="g9_120"/>
<path d="M186,1031.1c0,-1.3,-.8,-2.3,-1.9,-2.7v-9l2.5,-1.1c.4,-.2,.6,-.5,.6,-.9c0,-.3,-.2,-.6,-.6,-.8l-16.1,-6.9c-.2,-.1,-.5,-.1,-.7,0l-16.1,6.9c-.3,.2,-.6,.5,-.6,.8c0,.4,.3,.7,.6,.9l6.1,2.6v5.5c-4,3.1,-6.7,8,-6.7,13.5c0,9.4,7.7,17,17.1,17c9.4,0,17,-7.6,17,-17c0,-2.2,-.4,-4.3,-1.2,-6.2Zm-15.8,-19.6l13.7,5.9l-13.7,6l-13.8,-6Zm15.1,27.9h-5.4c0,-2.9,-.5,-5.7,-1.4,-8.1h1.8v3.4c0,1.5,1.3,2.8,2.9,2.8c.7,0,1.3,-.2,1.8,-.7c.2,.9,.3,1.7,.3,2.6m-2.7,9.2h-4.1c.9,-2.4,1.4,-5.2,1.4,-8.2h5.4c0,3,-1,5.8,-2.7,8.2m-9.8,6.3c-.7,.1,-1.5,.2,-2.2,.2v-5.6h6.6c-1.1,2.5,-2.7,4.4,-4.4,5.4m-9.6,-5.4h6.5v5.6c-.7,0,-1.4,-.1,-2.1,-.2c-1.8,-1,-3.3,-2.9,-4.4,-5.4m-8.2,-9.1h5.4c0,3,.6,5.8,1.4,8.2h-4.1c-1.6,-2.4,-2.6,-5.2,-2.7,-8.2m2.7,-9.1h4.1c-.8,2.4,-1.4,5.2,-1.4,8.1H155c.1,-3,1.1,-5.8,2.7,-8.1m23.3,-2.1c-.3,.4,-.5,.7,-.6,1.1h-2.3c-.2,-.4,-.4,-.9,-.6,-1.3c.8,-.2,1.5,-.4,2.3,-.5c.1,0,.2,-.1,.3,-.1c.3,.3,.6,.5,.9,.8m3.2,4.9v.6c0,.5,-.5,1,-1,1c-.6,0,-1.1,-.5,-1.1,-1v-.6Zm-13.6,-3.8v-.3c2.1,0,4.1,-.4,6,-.8c.2,.3,.4,.7,.6,1.1Zm6.9,1c.9,2.3,1.5,5.1,1.5,8.1h-8.4v-8.1Zm-13.8,-2.1c2,.4,3.9,.8,6,.8v.3h-6.5c.1,-.4,.3,-.8,.5,-1.1m6,2.1v8.1h-8.4c.1,-3,.6,-5.8,1.5,-8.1Zm-8.4,9.1h8.4v8.2h-6.9c-.9,-2.4,-1.4,-5.2,-1.5,-8.2m9.3,8.2v-8.2H179c0,3,-.6,5.8,-1.5,8.2Zm13.6,-15.4h-2.1v-2.1c0,-.6,.5,-1,1.1,-1c.5,0,1,.4,1,1Zm-14.4,-8c.1,0,.2,.1,.4,.1c.1,0,.2,-.1,.3,-.1l8.2,-3.5v5.1c-.6,.2,-1.1,.3,-1.6,.4c-2.3,.5,-4.6,1,-6.9,1c-2.4,0,-4.7,-.5,-6.9,-1c-.6,-.1,-1.1,-.2,-1.7,-.4v-5.1Zm-9.5,3.2c.1,0,.1,.1,.2,.1c.8,.1,1.5,.3,2.3,.5c-.2,.4,-.4,.9,-.6,1.3h-3.8c.5,-.7,1.2,-1.3,1.9,-1.9m1.9,21.1c.8,2,1.9,3.6,3.1,4.8c-2.7,-.9,-5.1,-2.6,-6.9,-4.8Zm12.8,4.8c1.2,-1.2,2.3,-2.8,3.1,-4.8H182c-1.9,2.2,-4.3,3.9,-7,4.8m7.2,-26.4c-.5,-.5,-1.1,-1,-1.7,-1.5v-5.5l1.7,-.7Z" class="gq_120"/>
<path d="M177.1,1133.4h72.6v42.3H177.1v-42.3Zm94.3,0H344v42.3H271.4v-42.3Zm94.3,0h72.6v42.3H365.7v-42.3Zm94.3,0h72.6v42.3H460v-42.3Zm94.3,0h72.6v42.3H554.3v-42.3Z" class="g9_120"/>
<path d="M176.7,1133.4h73.4m-73,21.1v-20.7m72.6,20.3v-20.3m21.3,-.4h73.4m-73,20.7v-20.3m72.6,20.3v-20.3m21.3,-.4h73.4m-73,20.7v-20.3m72.6,20.3v-20.3m21.3,-.4H533m-73,20.7v-20.3m72.6,20.3v-20.3m21.3,-.4h73.4m-73,20.7v-20.3m72.6,20.7v-20.7m-449.8,41.5v-20.8m72.3,0h22.4m-22.1,20.8v-20.4m21.7,20.4v-20.4m72.3,-.4h22.4M344,1175.3v-20.4m21.7,20.4v-20.4m72.2,-.4h22.5m-22.1,20.8v-20.4m21.7,20.4v-20.4m72.2,-.4h22.4m-22,20.8v-20.4m21.7,20.4v-20.4m72.6,20.4v-20.8m-450.2,21.2h73.4m20.9,0h73.4m20.9,0h73.4m20.9,0H533m20.9,0h73.4" class="gr_120"/>
<path d="M32.1,45.1H9.2m958.3,0h22.9M32.1,1331.3H9.2m958.3,0h22.9M45.1,32.1V9.2m0,1335.1v22.9M954.5,32.1V9.2m0,1335.1v22.9" class="gs_120"/>
<path d="M32.1,45.1H9.2m958.3,0h22.9M32.1,1331.3H9.2m958.3,0h22.9M45.1,32.1V9.2m0,1335.1v22.9M954.5,32.1V9.2m0,1335.1v22.9" class="gt_120"/>
<path d="M27.5,32.1H0m972.1,0h27.5M27.5,1344.3H0m972.1,0h27.5M32.1,27.5V0m0,1348.9v27.5M967.5,27.5V0m0,1348.9v27.5" class="gs_120"/>
<path d="M27.5,32.1H0m972.1,0h27.5M27.5,1344.3H0m972.1,0h27.5M32.1,27.5V0m0,1348.9v27.5M967.5,27.5V0m0,1348.9v27.5" class="gt_120"/>
</svg>