<?xml version="1.0" encoding="UTF-8" standalone="no"?>
<!DOCTYPE svg PUBLIC "-//W3C//DTD SVG 1.1//EN"
"http://www.w3.org/Graphics/SVG/1.1/DTD/svg11.dtd">
<svg viewBox="0 0 999 1376" version="1.1" xmlns="http://www.w3.org/2000/svg" xmlns:xlink="http://www.w3.org/1999/xlink">
<defs>
<clipPath id="c0_197"><path d="M32.1,1344.3V32.1H967.5V1344.3Z"/></clipPath>
<clipPath id="c1_197"><path d="M215,726.9V648.3H831.1v78.6Z"/></clipPath>
<clipPath id="c2_197"><path d="M215,844.1V765.5H831.1v78.6Z"/></clipPath>
<clipPath id="c3_197"><path d="M227,440.3c-8.7,0,-8.7,-8.6,-8.7,-8.6V350.5c0,-8.6,8.7,-8.6,8.7,-8.6h96.3c3.7,0,5.8,1.5,7,3.4v91.8c-2.5,3.2,-7,3.2,-7,3.2Z"/></clipPath>
<clipPath id="c4_197"><path d="M227,440.3c-8.7,0,-8.7,-8.6,-8.7,-8.6V350.5c0,-8.6,8.7,-8.6,8.7,-8.6h96.3c8.7,0,8.7,8.6,8.7,8.6v81.2c0,8.6,-8.7,8.6,-8.7,8.6Z"/></clipPath>
<clipPath id="c5_197"><path d="M227,554.9c-4.5,0,-6.6,-2.2,-7.7,-4.4V460.7c2.3,-4.2,7.7,-4.2,7.7,-4.2h96.3c8.7,0,8.7,8.7,8.7,8.7v81.1c0,8.6,-8.7,8.6,-8.7,8.6Z"/></clipPath>
<clipPath id="c6_197"><path d="M227,554.9c-8.7,0,-8.7,-8.6,-8.7,-8.6V465.2c0,-8.7,8.7,-8.7,8.7,-8.7h96.3c8.7,0,8.7,8.7,8.7,8.7v81.1c0,8.6,-8.7,8.6,-8.7,8.6Z"/></clipPath>
<style type="text/css"><![CDATA[
.g0_197{
fill: #FEFCF4;
}
.g1_197{
fill: #F16865;
}
.g2_197{
fill: #6381B7;
}
.g3_197{
fill: none;
stroke: #6381B7;
stroke-width: 0.381;
stroke-dasharray: 2,1;
}
.g4_197{
fill: none;
stroke: #6381B7;
stroke-width: 0.381;
}
.g5_197{
fill: #FEF8F8;
}
.g6_197{
fill: none;
stroke: #A164A9;
stroke-width: 1.527;
stroke-linecap: round;
stroke-linejoin: round;
stroke-dasharray: 0,5;
}
.g7_197{
fill: none;
stroke: #A164A9;
stroke-width: 1.527;
stroke-linecap: round;
stroke-linejoin: round;
}
.g8_197{
fill: #A164A9;
}
.g9_197{
fill: #FFF;
}
.ga_197{
fill: none;
stroke: #231F20;
stroke-width: 0.305;
stroke-miterlimit: 10;
}
.gb_197{
fill: none;
stroke: #949698;
stroke-width: 1.145;
}
.gc_197{
fill: none;
stroke: #8CC63E;
stroke-width: 1.527;
stroke-linecap: round;
stroke-linejoin: round;
stroke-dasharray: 0,5;
}
.gd_197{
fill: none;
stroke: #8CC63E;
stroke-width: 1.527;
stroke-linecap: round;
stroke-linejoin: round;
}
.ge_197{
fill: #8CC63E;
}
.gf_197{
fill: #6CCFF6;
}
.gg_197{
fill: none;
stroke: #231F20;
stroke-width: 1.375;
stroke-miterlimit: 10;
}
.gh_197{
fill: #485E75;
}
.gi_197{
fill: #EAD646;
}
.gj_197{
fill: none;
stroke: #231F20;
stroke-width: 1.527;
}
.gk_197{
fill: none;
stroke: #FFF;
stroke-width: 1.909;
stroke-miterlimit: 10;
}
.gl_197{
fill: none;
stroke: #000;
stroke-width: 0.381;
stroke-miterlimit: 10;
}
]]></style>
</defs>
<path clip-path="url(#c0_197)" d="M-877.3,1344.3H45.1V32.1H-877.3V1344.3Z" class="g0_197"/>
<path d="M45.1,1344.3H967.5V32.1H45.1V1344.3Z" class="g0_197"/>
<path clip-path="url(#c0_197)" d="M867.9,166.7c0,0,30.3,0,30.3,-30.3v-4.3c0,0,0,-30.3,-30.3,-30.3H-735.4c0,0,-30.4,0,-30.4,30.3v4.3c0,0,0,30.3,30.4,30.3Z" class="g1_197"/>
<path d="M669.1,907.9c0,0,-4.4,0,-4.4,4.4v10.8c0,0,0,4.3,4.4,4.3h30.3c0,0,4.3,0,4.3,-4.3V912.3c0,0,0,-4.4,-4.3,-4.4Z" class="g2_197"/>
<path d="M655.9,898.9v38m1.3,.9H866.8m.9,-1.3v-38m-1.3,-.9H656.8" class="g3_197"/>
<path d="M655.9,937.3v.5h.6m210.7,0h.5v-.5m0,-39.2v-.5h-.5m-210.7,0h-.6v.5" class="g4_197"/>
<image preserveAspectRatio="none" x="690" y="65" width="167" height="118" xlink:href="img/1.png"/>
<path d="M154.1,889.7h713V251h-713V889.7Z" class="g5_197"/>
<path d="M154.1,255.6V887.4m4.6,2.3H864.9m2.2,-4.6V253.3M862.6,251H156.4" class="g6_197"/>
<path d="M154.1,889.7v0m713.1,0v0m0,-638.7v0m-713.1,0v0" class="g7_197"/>
<path d="M153.3,265.3V227c0,0,0,-8.7,8.7,-8.7H859.3c0,0,8.6,0,8.6,8.7v38.9Z" class="g8_197"/>
<image clip-path="url(#c1_197)" preserveAspectRatio="none" x="215" y="648" width="615" height="79" xlink:href="img/2.png"/>
<path d="M218.3,720.8H824.6V651.5H218.3v69.3Z" class="g9_197"/>
<path d="M615.2,681.3h52" class="ga_197"/>
<image clip-path="url(#c2_197)" preserveAspectRatio="none" x="215" y="766" width="615" height="79" xlink:href="img/3.png"/>
<path d="M218.3,838H824.6V768.7H218.3V838Z" class="g9_197"/>
<path d="M310.1,798.5H370" class="ga_197"/>
<path d="M227,341.9c0,0,-8.7,0,-8.7,8.6v81.2c0,0,0,8.6,8.7,8.6h96.3c0,0,8.7,0,8.7,-8.6V350.5c0,0,0,-8.6,-8.7,-8.6Z" class="g9_197"/>
<image clip-path="url(#c3_197)" preserveAspectRatio="none" x="211" y="337" width="119" height="110" xlink:href="img/4.jpg"/>
<path clip-path="url(#c4_197)" d="M207.3,445.6H334V338.7H207.3V445.6Z" class="gb_197"/>
<path d="M227,456.5c0,0,-8.7,0,-8.7,8.7v81.1c0,0,0,8.6,8.7,8.6h96.3c0,0,8.7,0,8.7,-8.6V465.2c0,0,0,-8.7,-8.7,-8.7Z" class="g9_197"/>
<image clip-path="url(#c5_197)" preserveAspectRatio="none" x="219" y="454" width="113" height="108" xlink:href="img/5.jpg"/>
<path clip-path="url(#c6_197)" d="M209.6,562H336.2V455.1H209.6V562Z" class="gb_197"/>
<path d="M154.1,1243.9h713V1062.7h-713v181.2Z" class="g9_197"/>
<path d="M154.1,1067.2v174.5m4.6,2.2H864.9m2.2,-4.5V1065m-4.5,-2.3H156.4" class="gc_197"/>
<path d="M154.1,1243.9v0m713.1,0v0m0,-181.2v0m-713.1,0v0" class="gd_197"/>
<path d="M153.3,1067.3v-28.6c0,0,0,-8.7,8.7,-8.7H859.3c0,0,8.6,0,8.6,8.7v29.2Z" class="ge_197"/>
<path d="M187.2,1043.8v-6.4c0,-4.8,-3.9,-8.7,-8.7,-8.7c-4.8,0,-8.6,3.9,-8.6,8.7v6.4Z" class="gf_197"/>
<path d="M187.2,1043.8v-6.4c0,-4.8,-3.9,-8.7,-8.7,-8.7c-4.8,0,-8.6,3.9,-8.6,8.7v6.4h17.3Z" class="gg_197"/>
<path d="M169.9,1045.6v5.3c0,4.8,3.8,8.7,8.6,8.7c4.8,0,8.7,-3.9,8.7,-8.7v-5.3Z" class="gf_197"/>
<path d="M169.9,1045.6v5.3c0,4.8,3.8,8.7,8.6,8.7c4.8,0,8.7,-3.9,8.7,-8.7v-5.3H169.9Z" class="gg_197"/>
<path d="M178.4,1064.5c-7.1,0,-13,-6,-13,-13.3h2.4c0,6,4.8,10.9,10.6,10.9c5.8,0,10.6,-4.9,10.6,-10.9h2.4c0,7.3,-5.8,13.3,-13,13.3Z" class="gh_197"/>
<path d="M178.4,1064.5c-7.1,0,-13,-6,-13,-13.3h2.4c0,6,4.8,10.9,10.6,10.9c5.8,0,10.6,-4.9,10.6,-10.9h2.4c0,7.3,-5.8,13.3,-13,13.3Z" class="gg_197"/>
<path d="M177.5,1071.6h2.4v-8h-2.4v8Z" class="gh_197"/>
<path d="M177.5,1071.6h2.4v-8h-2.4v8Z" class="gg_197"/>
<path d="M178.6,1068c-3.6,0,-6.6,2.2,-6.7,4.9h13.4c-.1,-2.7,-3.1,-4.9,-6.7,-4.9Z" class="gh_197"/>
<path d="M178.6,1068c-3.6,0,-6.6,2.2,-6.7,4.9h13.4c-.1,-2.7,-3.1,-4.9,-6.7,-4.9Z" class="gg_197"/>
<path d="M201.3,1023.5c-6.5,0,-11.9,5.4,-11.9,12c0,2.7,.9,5.1,2.4,7.1l-1.5,5.4l5.5,-2c1.7,.9,3.5,1.4,5.5,1.4c6.6,0,12,-5.4,12,-11.9c0,-6.6,-5.4,-12,-12,-12Z" class="gi_197"/>
<path d="M201.3,1023.5c-6.5,0,-11.9,5.4,-11.9,12c0,2.7,.9,5.1,2.4,7.1l-1.5,5.4l5.5,-2c1.7,.9,3.5,1.4,5.5,1.4c6.6,0,12,-5.4,12,-11.9c0,-6.6,-5.4,-12,-12,-12Z" class="gg_197"/>
<path d="M196.9,1035.3c0,.7,-.7,1.3,-1.4,1.3c-.8,0,-1.4,-.6,-1.4,-1.3c0,-.8,.6,-1.4,1.4,-1.4c.7,0,1.4,.6,1.4,1.4Z" class="g9_197"/>
<path d="M196.9,1035.3c0,.7,-.7,1.3,-1.4,1.3c-.8,0,-1.4,-.6,-1.4,-1.3c0,-.8,.6,-1.4,1.4,-1.4c.7,0,1.4,.6,1.4,1.4Z" class="gg_197"/>
<path d="M203,1035.3c0,.8,-.6,1.4,-1.4,1.4c-.8,0,-1.4,-.6,-1.4,-1.4c0,-.8,.6,-1.4,1.4,-1.4c.8,0,1.4,.6,1.4,1.4Z" class="g9_197"/>
<path d="M203,1035.3c0,.8,-.6,1.4,-1.4,1.4c-.8,0,-1.4,-.6,-1.4,-1.4c0,-.8,.6,-1.4,1.4,-1.4c.8,0,1.4,.6,1.4,1.4Z" class="gg_197"/>
<path d="M209.1,1035.3c0,.8,-.6,1.4,-1.4,1.4c-.8,0,-1.4,-.6,-1.4,-1.4c0,-.8,.6,-1.4,1.4,-1.4c.8,0,1.4,.6,1.4,1.4Z" class="g9_197"/>
<path d="M209.1,1035.3c0,.8,-.6,1.4,-1.4,1.4c-.8,0,-1.4,-.6,-1.4,-1.4c0,-.8,.6,-1.4,1.4,-1.4c.8,0,1.4,.6,1.4,1.4Z" class="gg_197"/>
<path d="M785.7,1049.7c0,0,-.5,-9.9,8.6,-9.3c0,0,6.8,-.4,6.7,9.5m-15.3,-1.6v6.6c0,0,-3.4,.3,-4,-3c0,0,0,-3.8,4,-3.6Zm15.3,0v6.6c0,0,3.4,.3,3.9,-3c0,0,.1,-3.8,-3.9,-3.6Z" class="gj_197"/>
<path d="M32.1,45.1H9.2m958.3,0h22.9M32.1,1331.3H9.2m958.3,0h22.9M45.1,32.1V9.2m0,1335.1v22.9M954.5,32.1V9.2m0,1335.1v22.9" class="gk_197"/>
<path d="M32.1,45.1H9.2m958.3,0h22.9M32.1,1331.3H9.2m958.3,0h22.9M45.1,32.1V9.2m0,1335.1v22.9M954.5,32.1V9.2m0,1335.1v22.9" class="gl_197"/>
<path d="M27.5,32.1H0m972.1,0h27.5M27.5,1344.3H0m972.1,0h27.5M32.1,27.5V0m0,1348.9v27.5M967.5,27.5V0m0,1348.9v27.5" class="gk_197"/>
<path d="M27.5,32.1H0m972.1,0h27.5M27.5,1344.3H0m972.1,0h27.5M32.1,27.5V0m0,1348.9v27.5M967.5,27.5V0m0,1348.9v27.5" class="gl_197"/>
</svg>