<?xml version="1.0" encoding="UTF-8" standalone="no"?>
<!DOCTYPE svg PUBLIC "-//W3C//DTD SVG 1.1//EN"
"http://www.w3.org/Graphics/SVG/1.1/DTD/svg11.dtd">
<svg viewBox="0 0 999 1376" version="1.1" xmlns="http://www.w3.org/2000/svg" xmlns:xlink="http://www.w3.org/1999/xlink">
<defs>
<clipPath id="c0_295"><path d="M32.1,1344.3V32.1H967.5V1344.3Z"/></clipPath>
<clipPath id="c1_295"><path d="M204.3,461.4v-121h139v121Z"/></clipPath>
<clipPath id="c2_295"><path d="M517.2,461.4v-121H657.4v121Z"/></clipPath>
<clipPath id="c3_295"><path d="M360.1,461.4v-121H500.3v121Z"/></clipPath>
<clipPath id="c4_295"><path d="M674.2,461.4v-121H814.4v121Z"/></clipPath>
<clipPath id="c5_295"><path d="M399.2,1099.2v-64.9h44.9v64.9Z"/></clipPath>
<clipPath id="c6_295"><path d="M721,1099.2v-64.9h40.7v64.9Z"/></clipPath>
<clipPath id="c7_295"><path d="M399.2,1177.1v-64.9h44.9v64.9Z"/></clipPath>
<clipPath id="c8_295"><path d="M717,1177.1v-64.9h48.7v64.9Z"/></clipPath>
<clipPath id="c9_295"><path d="M203.1,633.3V512.4H343.3V633.3Z"/></clipPath>
<clipPath id="ca_295"><path d="M518.8,633.3V512.4H657.4V633.3Z"/></clipPath>
<clipPath id="cb_295"><path d="M364.2,633.3V512.4h128V633.3Z"/></clipPath>
<clipPath id="cc_295"><path d="M674.2,633.3V512.4H814.4V633.3Z"/></clipPath>
<clipPath id="cd_295"><path d="M203.1,811.7v-121H333.5v121Z"/></clipPath>
<clipPath id="ce_295"><path d="M364.2,811.7V691.9H498.8V811.7Z"/></clipPath>
<clipPath id="cf_295"><path d="M522.4,811.7V691H656.3V811.7Z"/></clipPath>
<clipPath id="cg_295"><path d="M684.4,811.7V690.8H805.3V811.7Z"/></clipPath>
<clipPath id="ch_295"><path d="M199.2,322.3l-6.5,-2.1l-16.4,-14v-57h72v73.1Z"/></clipPath>
<clipPath id="ci_295"><path d="M200.7,951l-6.5,-2.1l-16.4,-14V877.8h72V951Z"/></clipPath>
<clipPath id="cj_295"><path d="M658.6,177V59h200V177Z"/></clipPath>
<style type="text/css"><![CDATA[
.g0_295{
fill: #FEFCF4;
}
.g1_295{
fill: #FFF;
}
.g2_295{
fill: none;
stroke: #6381B7;
stroke-width: 0.763;
}
.g3_295{
fill: none;
stroke: #949698;
stroke-width: 1.268;
}
.g4_295{
fill: #F7F1E0;
}
.g5_295{
fill: none;
stroke: #A7802D;
stroke-width: 1.083;
stroke-miterlimit: 10;
}
.g6_295{
fill: #6381B7;
}
.g7_295{
fill: none;
stroke: #6381B7;
stroke-width: 0.381;
stroke-dasharray: 2,1;
}
.g8_295{
fill: none;
stroke: #6381B7;
stroke-width: 0.381;
}
.g9_295{
fill: #FCE8B0;
}
.ga_295{
fill: #2E6E51;
}
.gb_295{
fill: #BCBEC0;
}
.gc_295{
fill: #EE314A;
}
.gd_295{
fill: #25408F;
}
.ge_295{
fill: #00BAF1;
}
.gf_295{
fill: #332D2C;
}
.gg_295{
fill: #D9DFF0;
}
.gh_295{
fill: #F27C85;
}
.gi_295{
fill: #7DD3F6;
}
.gj_295{
fill: none;
stroke: #FFF;
stroke-width: 1.909;
stroke-miterlimit: 10;
}
.gk_295{
fill: none;
stroke: #000;
stroke-width: 0.381;
stroke-miterlimit: 10;
}
]]></style>
</defs>
<path clip-path="url(#c0_295)" d="M-877.3,1344.3H45.1V32.1H-877.3V1344.3Z" class="g0_295"/>
<path d="M45.1,1344.3H967.5V32.1H45.1V1344.3Z" class="g0_295"/>
<path d="M171.8,225.1c0,0,-18.3,0,-18.3,18.3V850.5c0,0,0,18.3,18.3,18.3H848.9c0,0,18.4,0,18.4,-18.3V225.1Z" class="g1_295"/>
<path d="M171.8,225.1c0,0,-18.3,0,-18.3,18.3V850.5c0,0,0,18.3,18.3,18.3H848.9c0,0,18.4,0,18.4,-18.3V225.1H171.8Z" class="g2_295"/>
<image clip-path="url(#c1_295)" preserveAspectRatio="none" x="204" y="339" width="141" height="123" xlink:href="img/1.jpg"/>
<path d="M203.1,461.4H343.3v-121H203.1v121Z" class="g3_295"/>
<image clip-path="url(#c2_295)" preserveAspectRatio="none" x="517" y="339" width="141" height="123" xlink:href="img/2.jpg"/>
<path d="M517.2,461.4H657.4v-121H517.2v121Z" class="g3_295"/>
<image clip-path="url(#c3_295)" preserveAspectRatio="none" x="360" y="339" width="141" height="124" xlink:href="img/3.jpg"/>
<path d="M360.1,461.4H500.3v-121H360.1v121Z" class="g3_295"/>
<image clip-path="url(#c4_295)" preserveAspectRatio="none" x="674" y="339" width="141" height="124" xlink:href="img/4.jpg"/>
<path d="M674.2,461.4H814.4v-121H674.2v121Z" class="g3_295"/>
<path d="M167.2,964.6c0,0,-13,0,-13,13V1188c0,0,0,13,13,13H854.3c0,0,13,0,13,-13V977.6c0,0,0,-13,-13,-13Z" class="g1_295"/>
<path d="M167.2,964.6c0,0,-13,0,-13,13V1188c0,0,0,13,13,13H854.3c0,0,13,0,13,-13V977.6c0,0,0,-13,-13,-13H167.2Z" class="g2_295"/>
<path d="M187.8,1028.2h64.9v77.9H187.8v-77.9Zm0,77.9h64.9v78H187.8v-78Z" class="g4_295"/>
<path d="M512.6,1028.2h64.9v77.9H512.6v-77.9Zm0,77.9h64.9v78H512.6v-78Z" class="g4_295"/>
<path d="M391.3,1184.1H452m125.5,0h72.9M391.3,1028.2H452m125.5,0h72.9m-463.2,77.9h65.5m0,0h78m0,0h60.6m0,0H452m0,0h60.6m0,0h64.9m0,0h72.9m0,0H711m0,0h60.7m0,0h61.1M187.2,1028.2h65.5m-64.9,77.4v-76.9m0,154.8v-76.9m-.6,77.5h65.5m0,-155.9h78m-78,77.4v-76.9m0,154.8v-76.9m0,77.5h78M452,1028.2h60.6M452,1105.6v-76.9m0,154.8v-76.9m0,77.5h60.6M650.4,1028.2H711m-60.6,77.4v-76.9m121.3,-.5h61.1m-.5,77.4v-76.9M650.4,1183.5v-76.9m181.9,76.9v-76.9m-181.9,77.5H711m60.7,0h61.1M711,1028.2h60.7M711,1105.6v-76.9m60.7,76.9v-76.9M711,1183.5v-76.9m60.7,76.9v-76.9M711,1184.1h60.7m-441,-155.9h60.6m-60.6,77.4v-76.9m60.6,76.9v-76.9m-60.6,154.8v-76.9m60.6,76.9v-76.9m-60.6,77.5h60.6M512.6,1028.2h64.9m-64.9,77.4v-76.9m64.9,76.9v-76.9m-64.9,154.8v-76.9m64.9,76.9v-76.9m-64.9,77.5h64.9" class="g5_295"/>
<image preserveAspectRatio="none" x="259" y="1034" width="65" height="65" xlink:href="img/5.jpg"/>
<image clip-path="url(#c5_295)" preserveAspectRatio="none" x="398" y="1034" width="48" height="65" xlink:href="img/6.jpg"/>
<image preserveAspectRatio="none" x="579" y="1034" width="65" height="65" xlink:href="img/7.jpg"/>
<image clip-path="url(#c6_295)" preserveAspectRatio="none" x="719" y="1034" width="44" height="65" xlink:href="img/8.jpg"/>
<image preserveAspectRatio="none" x="261" y="1112" width="65" height="65" xlink:href="img/9.jpg"/>
<image clip-path="url(#c7_295)" preserveAspectRatio="none" x="398" y="1112" width="48" height="65" xlink:href="img/10.jpg"/>
<image preserveAspectRatio="none" x="583" y="1112" width="65" height="65" xlink:href="img/11.png"/>
<image clip-path="url(#c8_295)" preserveAspectRatio="none" x="715" y="1112" width="52" height="65" xlink:href="img/12.png"/>
<path d="M193.2,506.1H829.8v-39H193.2v39Z" class="g1_295"/>
<image clip-path="url(#c9_295)" preserveAspectRatio="none" x="203" y="511" width="141" height="123" xlink:href="img/13.jpg"/>
<path d="M203.1,633.3H343.3V512.4H203.1V633.3Z" class="g3_295"/>
<image clip-path="url(#ca_295)" preserveAspectRatio="none" x="519" y="511" width="140" height="124" xlink:href="img/14.jpg"/>
<path d="M517.2,633.3H657.4V512.4H517.2V633.3Z" class="g3_295"/>
<image clip-path="url(#cb_295)" preserveAspectRatio="none" x="364" y="511" width="128" height="123" xlink:href="img/15.jpg"/>
<path d="M360.1,633.3H500.3V512.4H360.1V633.3Z" class="g3_295"/>
<image clip-path="url(#cc_295)" preserveAspectRatio="none" x="674" y="512" width="141" height="122" xlink:href="img/16.jpg"/>
<path d="M674.2,633.3H814.4V512.4H674.2V633.3Z" class="g3_295"/>
<image clip-path="url(#cd_295)" preserveAspectRatio="none" x="202" y="689" width="132" height="124" xlink:href="img/17.jpg"/>
<path d="M203.1,811.7H343.3V690.8H203.1V811.7Z" class="g3_295"/>
<image clip-path="url(#ce_295)" preserveAspectRatio="none" x="364" y="692" width="135" height="121" xlink:href="img/18.jpg"/>
<path d="M359.6,811.7H499.8V690.8H359.6V811.7Z" class="g3_295"/>
<image clip-path="url(#cf_295)" preserveAspectRatio="none" x="522" y="691" width="135" height="122" xlink:href="img/19.jpg"/>
<path d="M516.2,811.7H656.3V690.8H516.2V811.7Z" class="g3_295"/>
<image clip-path="url(#cg_295)" preserveAspectRatio="none" x="684" y="690" width="122" height="122" xlink:href="img/20.jpg"/>
<path d="M672.7,811.7H812.9V690.8H672.7V811.7Z" class="g3_295"/>
<path d="M193.2,675.1H829.8v-39H193.2v39Z" class="g1_295"/>
<path d="M193.2,855H829.8V816H193.2v39Z" class="g1_295"/>
<path d="M526.6,1214.8c0,0,-4.3,0,-4.3,4.4V1230c0,0,0,4.3,4.3,4.3h30.3c0,0,4.3,0,4.3,-4.3v-10.8c0,0,0,-4.4,-4.3,-4.4Z" class="g6_295"/>
<path d="M513.4,1206v37.5m1.3,1H866.8m.9,-1.3v-37.6m-1.3,-1h-352" class="g7_295"/>
<path d="M513.4,1243.9v.6h.6m353.2,0h.5v-.6m0,-38.7v-.6h-.5m-353.2,0h-.6v.6" class="g8_295"/>
<path d="M231.8,255.6c0,0,-13,0,-13,13v43.3c0,0,0,13,13,13h602c0,0,13,0,13,-13V268.6c0,0,0,-13,-13,-13Z" class="g9_295"/>
<image clip-path="url(#ch_295)" preserveAspectRatio="none" x="175" y="248" width="75" height="76" xlink:href="img/21.png"/>
<path d="M226.6,317.6c0,0,-26.9,11.3,-51.1,-12.8c0,0,15.1,25.3,49.3,24c0,0,24.7,.3,20.2,-10.1c0,0,1.2,-4.5,-18.4,-1.1Z" class="g9_295"/>
<path d="M233.3,906c0,0,-13,0,-13,13v21.6c0,0,0,13,13,13H854.9c0,0,13,0,13,-13V919c0,0,0,-13,-13,-13Z" class="g9_295"/>
<image clip-path="url(#ci_295)" preserveAspectRatio="none" x="176" y="876" width="75" height="77" xlink:href="img/22.png"/>
<path d="M228.1,946.3c0,0,-26.8,11.3,-51.1,-12.8c0,0,15.2,25.3,49.3,24c0,0,24.8,.3,20.3,-10.2c0,0,1.2,-4.4,-18.5,-1Z" class="g9_295"/>
<path d="M32.1,179.3H967.5V32.1H32.1V179.3Z" class="ga_295"/>
<g clip-path="url(#c0_295)">
<path d="M967.5,177.2H-877.3v-5.4h736.6c43.1,0,53.1,-37.9,115.3,-37.9H967.5Z" class="gb_295"/>
<path d="M967.5,183.7H-877.3v-9.8h736.6c43.1,0,53.1,-33.6,115.3,-33.6H967.5Z" class="gc_295"/>
</g>
<image clip-path="url(#cj_295)" preserveAspectRatio="none" x="659" y="59" width="200" height="118" xlink:href="img/23.png"/>
<path d="M153.3,217.5v22.2L165,250V227.8Z" class="gd_295"/>
<path d="M153.3,200.7v39H851.1c0,0,16.8,0,16.8,-16.8v-5.4c0,0,0,-16.8,-16.8,-16.8Z" class="g6_295"/>
<path d="M211.3,212.1l-6.5,-6.4l-21.2,21.2l6.5,6.4Z" class="ge_295"/>
<path d="M190.1,233.9c.1,0,.3,-.1,.4,-.2l21.2,-21.2c.1,-.1,.1,-.2,.1,-.4c0,-.1,0,-.2,-.1,-.3l-6.5,-6.5c-.2,-.2,-.6,-.2,-.8,0l-21.2,21.2c-.1,.1,-.1,.2,-.1,.4c0,.1,0,.2,.1,.3l6.5,6.5c.1,.1,.3,.2,.4,.2m20.5,-21.8l-20.5,20.5l-5.8,-5.7l20.5,-20.5Z" class="gf_295"/>
<path d="M211.3,212.1l-6.5,-6.4l2.1,-2.2l6.5,6.5Z" class="gg_295"/>
<path d="M211.3,212.7c.1,0,.3,-.1,.4,-.2l2.1,-2.1c.1,-.1,.2,-.2,.2,-.4c0,-.1,-.1,-.3,-.2,-.4l-6.5,-6.4c-.2,-.3,-.5,-.3,-.7,0l-2.2,2.1c-.1,.1,-.1,.2,-.1,.4c0,.1,0,.2,.1,.3l6.5,6.5c.1,.1,.3,.2,.4,.2m1.4,-2.7l-1.4,1.4l-5.7,-5.7l1.3,-1.4Z" class="gf_295"/>
<path d="M217,206.4l-6.4,-6.5l-3.7,3.6l6.5,6.5Z" class="gh_295"/>
<path d="M213.4,210.5c.2,0,.3,0,.4,-.1l3.6,-3.6c.2,-.2,.2,-.6,0,-.8l-6.5,-6.5c-.2,-.2,-.5,-.2,-.7,0l-3.6,3.7c-.2,.2,-.2,.5,0,.7l6.5,6.5c.1,.1,.2,.1,.3,.1m2.9,-4.1l-2.9,2.9l-5.7,-5.8l2.9,-2.8Z" class="gf_295"/>
<path d="M179,238l4.6,-11.1l6.5,6.4Z" class="g1_295"/>
<path d="M179,238.5c0,0,.1,0,.2,0l11.1,-4.7c.2,0,.3,-.2,.3,-.4c0,-.1,0,-.3,-.1,-.4L184,226.5c-.1,-.1,-.3,-.2,-.5,-.1c-.2,0,-.3,.1,-.4,.3l-4.6,11.1c-.1,.2,0,.4,.1,.6c.1,.1,.2,.1,.4,.1m10.2,-5.3l-9.3,3.8l3.9,-9.2Z" class="gf_295"/>
<path d="M179,238l2.2,-5.4l3.1,3.1Z" class="gf_295"/>
<path d="M179,238.5c0,0,.1,0,.2,0l5.3,-2.3c.2,0,.3,-.2,.4,-.4c0,-.1,-.1,-.3,-.2,-.4l-3.1,-3.2c-.1,-.1,-.3,-.1,-.5,-.1c-.2,0,-.3,.2,-.4,.3l-2.2,5.4c-.1,.2,0,.4,.1,.6c.1,.1,.2,.1,.4,.1m4.4,-2.9l-3.5,1.4l1.5,-3.5Z" class="gf_295"/>
<path d="M209.5,210.4l-2.9,-3l-21.2,21.2l2.9,3Z" class="gi_295"/>
<path d="M188.3,232.1c.2,0,.3,0,.4,-.1l21.2,-21.2c.1,-.1,.2,-.3,.2,-.4c0,-.2,-.1,-.3,-.2,-.4l-3,-3c-.2,-.2,-.5,-.2,-.7,0L185,228.3c-.1,.1,-.2,.2,-.2,.3c0,.2,.1,.3,.2,.4l3,3c.1,.1,.2,.1,.3,.1m20.5,-21.7l-20.5,20.4l-2.2,-2.2l20.5,-20.4Z" class="gf_295"/>
<path d="M32.1,45.1H9.2m958.3,0h22.9M32.1,1331.3H9.2m958.3,0h22.9M45.1,32.1V9.2m0,1335.1v22.9M954.5,32.1V9.2m0,1335.1v22.9" class="gj_295"/>
<path d="M32.1,45.1H9.2m958.3,0h22.9M32.1,1331.3H9.2m958.3,0h22.9M45.1,32.1V9.2m0,1335.1v22.9M954.5,32.1V9.2m0,1335.1v22.9" class="gk_295"/>
<path d="M27.5,32.1H0m972.1,0h27.5M27.5,1344.3H0m972.1,0h27.5M32.1,27.5V0m0,1348.9v27.5M967.5,27.5V0m0,1348.9v27.5" class="gj_295"/>
<path d="M27.5,32.1H0m972.1,0h27.5M27.5,1344.3H0m972.1,0h27.5M32.1,27.5V0m0,1348.9v27.5M967.5,27.5V0m0,1348.9v27.5" class="gk_295"/>
</svg>