<?xml version="1.0" encoding="UTF-8" standalone="no"?>
<!DOCTYPE svg PUBLIC "-//W3C//DTD SVG 1.1//EN"
"http://www.w3.org/Graphics/SVG/1.1/DTD/svg11.dtd">
<svg viewBox="0 0 999 1376" version="1.1" xmlns="http://www.w3.org/2000/svg" xmlns:xlink="http://www.w3.org/1999/xlink">
<defs>
<clipPath id="c0_291"><path d="M32.1,1344.3V32.1H967.5V1344.3Z"/></clipPath>
<clipPath id="c1_291"><path d="M146.8,494V168.4H878.3V494Z"/></clipPath>
<clipPath id="c2_291"><path d="M682.7,178.5V64.7H865.1V178.5Z"/></clipPath>
<clipPath id="c3_291"><path d="M146.9,920.3V779.5H878.4V920.3Z"/></clipPath>
<style type="text/css"><![CDATA[
.g0_291{
fill: #FEFCF4;
}
.g1_291{
fill: #59816A;
}
.g2_291{
fill: #6381B7;
}
.g3_291{
fill: none;
stroke: #6381B7;
stroke-width: 0.381;
stroke-dasharray: 2,1;
}
.g4_291{
fill: none;
stroke: #6381B7;
stroke-width: 0.381;
}
.g5_291{
fill: #FFF;
}
.g6_291{
fill: none;
stroke: #FFF;
stroke-width: 2.381;
}
.g7_291{
fill: none;
stroke: #231F20;
stroke-width: 1.527;
}
.g8_291{
fill: none;
stroke: #6381B7;
stroke-width: 0.763;
}
.g9_291{
fill: #FEF9F9;
}
.ga_291{
fill: none;
stroke: #A164A9;
stroke-width: 1.527;
stroke-linecap: round;
stroke-linejoin: round;
stroke-dasharray: 0,5;
}
.gb_291{
fill: none;
stroke: #A164A9;
stroke-width: 1.527;
stroke-linecap: round;
stroke-linejoin: round;
}
.gc_291{
fill: #A164A9;
}
.gd_291{
fill: none;
stroke: #FFF79A;
stroke-width: 1.527;
}
.ge_291{
fill: none;
stroke: #8CC63E;
stroke-width: 1.527;
stroke-linecap: round;
stroke-linejoin: round;
stroke-dasharray: 0,5;
}
.gf_291{
fill: none;
stroke: #8CC63E;
stroke-width: 1.527;
stroke-linecap: round;
stroke-linejoin: round;
}
.gg_291{
fill: #8CC63E;
}
.gh_291{
fill: #6CCFF6;
}
.gi_291{
fill: none;
stroke: #231F20;
stroke-width: 1.375;
stroke-miterlimit: 10;
}
.gj_291{
fill: #485E75;
}
.gk_291{
fill: #EAD646;
}
.gl_291{
fill: none;
stroke: #FFF;
stroke-width: 1.909;
stroke-miterlimit: 10;
}
.gm_291{
fill: none;
stroke: #000;
stroke-width: 0.381;
stroke-miterlimit: 10;
}
]]></style>
</defs>
<path clip-path="url(#c0_291)" d="M-877.3,1344.3H45.1V32.1H-877.3V1344.3Z" class="g0_291"/>
<path d="M45.1,1344.3H967.5V32.1H45.1V1344.3Z" class="g0_291"/>
<path clip-path="url(#c0_291)" d="M867.9,163c0,0,30.3,0,30.3,-30.3v-4.4c0,0,0,-30.3,-30.3,-30.3H-746.6c0,0,-30.3,0,-30.3,30.3v4.4c0,0,0,30.3,30.3,30.3Z" class="g1_291"/>
<path d="M622.9,499.3c0,0,-4.3,0,-4.3,4.4v10.8c0,0,0,4.3,4.3,4.3h30.3c0,0,4.3,0,4.3,-4.3V503.7c0,0,0,-4.4,-4.3,-4.4Z" class="g2_291"/>
<path d="M609.7,490.5v37.6m1.3,.9H866.8m.9,-1.3V490.1m-1.3,-.9H610.7" class="g3_291"/>
<path d="M609.7,528.4v.6h.6m256.8,0h.6v-.6m0,-38.7v-.5h-.6m-256.8,0h-.6v.5" class="g4_291"/>
<image clip-path="url(#c1_291)" preserveAspectRatio="none" x="147" y="169" width="731" height="325" xlink:href="img/1.png"/>
<path d="M170.7,175c0,0,-17.4,0,-17.4,17.3V466.2c0,0,0,17.4,17.4,17.4H850.6c0,0,17.3,0,17.3,-17.4V192.3c0,0,0,-17.3,-17.3,-17.3Z" class="g5_291"/>
<path d="M303.3,194.7c-1.6,-1.7,-3.3,-2.5,-5.1,-2.5c-.6,0,-1.3,.3,-2.1,.8c-.7,.7,-1.1,1.3,-1.1,2c0,.2,.1,.5,.3,.7l.6,.5h-2.2l.8,.9h1.3v8.1l.8,.8v-8.9h1.5l-.9,-.9h-.9l-.3,-.8c0,-.6,.4,-1.1,1.1,-1.6c.7,-.4,1.3,-.7,1.9,-.7c.5,0,.9,.1,1.3,.2c.4,.1,.8,.2,1.1,.5c.5,.2,.8,.4,1.2,.7c.3,.2,.6,.5,.8,.7l-.1,-.5Zm3.5,2.4l-.8,-.9h-9.2l.9,.9h6.8v2.3c-.4,-.9,-.9,-1.4,-1.6,-1.4c-.2,0,-.4,.1,-.7,.4c-.2,.2,-.3,.5,-.3,.7c-.6,-.7,-1.2,-1.1,-1.9,-1.1c-.6,0,-1,.3,-1.4,.8c-.3,.5,-.4,1.1,-.4,1.6c0,.4,0,.7,.1,1c.1,.3,.3,.6,.5,.8c.2,.2,.5,.4,.8,.5c.3,.1,.6,.2,1,.2c.4,0,.7,-.2,1,-.4c.2,-.2,.3,-.5,.3,-.8c0,-.8,-.4,-1.2,-1.1,-1.3c-.3,0,-.5,.1,-.7,.3c-.2,.2,-.3,.4,-.3,.7c0,.2,.1,.4,.3,.7c-.8,-.1,-1.2,-.6,-1.2,-1.2c0,-.3,0,-.5,.1,-.7c.1,-.2,.2,-.3,.4,-.5c.1,-.1,.3,-.2,.5,-.3c.2,-.1,.4,-.1,.6,-.1c.4,0,.9,.1,1.2,.4c.4,.3,.6,.7,.7,1.1l.3,-.1c0,-.2,-.1,-.4,-.1,-.5c0,-.6,.3,-.9,.8,-.9c.2,0,.5,.1,.7,.3c.2,.2,.3,.5,.3,.8v4.9l.9,.8v-9h1.5Zm4.2,-.9h-5.5l.8,.9H309c-1.1,1.4,-1.7,2.9,-1.7,4.4c0,1,.2,2,.6,2.8c.5,1,1.3,1.5,2.3,1.5c.2,0,.3,-.1,.5,-.1c.2,-.1,.4,-.2,.5,-.3c.1,-.2,.3,-.3,.3,-.5c.1,-.2,.2,-.3,.2,-.5c0,-.4,-.1,-.7,-.3,-.9c-.2,-.2,-.5,-.4,-.8,-.4c-.2,0,-.4,.1,-.7,.3c-.2,.2,-.3,.4,-.3,.7c0,.2,.1,.3,.1,.5c.1,.1,.3,.3,.5,.4c-.6,.2,-1.1,-.1,-1.6,-.9c-.3,-.5,-.5,-1,-.5,-1.6c0,-.7,.1,-1.4,.2,-1.9c.2,-.6,.4,-1.1,.7,-1.6c.3,-.5,.7,-.9,1.2,-1.2c.4,-.3,.9,-.5,1.6,-.7l-.8,-.9Zm9.3,.9l-.8,-.9h-8.9c.2,.3,.4,.5,.6,.7c.2,.1,.3,.3,.4,.3c.2,.2,.4,.3,.6,.4c.2,.1,.4,.2,.6,.3c.3,.1,.6,.1,.9,.2c.2,.1,.4,.2,.5,.3c.2,.1,.3,.3,.4,.5c.1,.3,.1,.6,.2,1c-.3,.4,-.5,.7,-.7,.9c-.2,.2,-.3,.4,-.4,.5c-.2,.1,-.2,.2,-.3,.3q-.1,0,-.2,0c-.1,0,-.2,0,-.3,-.1c-.1,-.1,-.2,-.2,-.3,-.3c0,-.1,-.1,-.2,-.1,-.4c-.1,-.1,-.1,-.2,-.1,-.3l-.6,.5c.1,.2,.2,.4,.3,.6c.2,.2,.3,.5,.5,.6c.1,.2,.3,.4,.5,.5c.2,.1,.4,.2,.7,.2c.1,0,.2,0,.3,-.1c.1,0,.2,-.1,.4,-.2c.1,-.2,.3,-.4,.5,-.7c.2,-.2,.4,-.6,.7,-1.1c.3,-.4,.6,-.7,.9,-.7c.3,-.1,.5,0,.7,.2c.2,.3,.4,.7,.5,1.2c.2,.5,.2,1.1,.2,1.8v.2c0,.1,0,.2,0,.4c0,.1,0,.3,0,.5c0,.2,0,.4,0,.8c.1,.1,.2,.3,.4,.4c.1,.2,.2,.3,.4,.5v-9h1.5ZM318,200c-.3,-.3,-.5,-.6,-.7,-.8c-.2,-.2,-.4,-.4,-.6,-.4c-.2,-.1,-.4,-.1,-.7,0c-.2,.1,-.5,.3,-.7,.6c0,-.4,-.1,-.8,-.3,-1.2c-.2,-.3,-.5,-.7,-.9,-1.1H318V200Zm10.6,-5.3c-1.6,-1.7,-3.2,-2.5,-5,-2.5c-.7,0,-1.4,.3,-2.1,.8c-.8,.7,-1.1,1.3,-1.1,2c0,.2,.1,.5,.3,.7l.6,.5h-2.2l.8,.9h1.2v8.1l.9,.8v-8.9h1.4l-.8,-.9h-.9l-.3,-.8c0,-.6,.4,-1.1,1.1,-1.6c.7,-.4,1.3,-.7,1.9,-.7c.4,0,.8,.1,1.2,.2c.4,.1,.8,.2,1.2,.5c.4,.2,.8,.4,1.1,.7c.3,.2,.6,.5,.9,.7l-.2,-.5Zm2.6,2.4l-.8,-.9h-8.1l.8,.9h5.8v4.7C328,199.9,327,199,325.8,199c-.5,0,-1,.2,-1.4,.6c-.4,.4,-.6,.8,-.6,1.4c0,1.1,.5,1.6,1.6,1.6c.3,0,.6,-.1,.8,-.4c.2,-.2,.3,-.5,.3,-.9c0,-.2,-.2,-.6,-.5,-1.1c0,0,.1,0,.2,0c.9,0,1.7,.5,2.3,1.7c.5,1.1,.7,2.1,.7,3.1l-.1,.9l.7,.4v-9.2h1.4Zm3.6,-.1c-.3,-.4,-.8,-.6,-1.3,-.6c-.5,0,-.9,.2,-1.3,.6c-.2,.3,-.3,.5,-.4,.7c-.1,.2,-.2,.5,-.2,.7c0,.6,.2,1.1,.6,1.5c.4,.4,.8,.6,1.4,.6c.5,0,.9,-.2,1.2,-.6c.4,-.4,.6,-.9,.6,-1.4c0,-.6,-.2,-1,-.6,-1.5Zm-.7,2.2c-.3,.3,-.7,.4,-1.1,.4c-.3,0,-.5,-.2,-.5,-.6c0,-.2,0,-.4,.1,-.6c.1,-.2,.2,-.4,.3,-.6c.3,-.3,.7,-.5,1.1,-.5c.4,0,.6,.2,.6,.7c0,.5,-.2,.8,-.5,1.2Zm1.9,6.2c-.5,-.7,-1.2,-1.5,-2,-2.4c-.8,-.9,-1.5,-1.6,-2.2,-2.1v1.9c.3,.2,.7,.4,1,.7c.4,.2,.7,.5,1.1,.8c.4,.3,.7,.5,1.1,.9c.3,.3,.7,.6,1,.9v-.7Zm14.1,-10.7c-1.6,-1.7,-3.3,-2.5,-5,-2.5c-.7,0,-1.4,.3,-2.1,.8c-.8,.7,-1.2,1.3,-1.2,2c0,.2,.1,.5,.4,.7l.5,.5h-2.2l.8,.9h1.3v8.1l.8,.8v-8.9h1.5l-.9,-.9h-.9l-.3,-.8c.1,-.6,.4,-1.1,1.2,-1.6c.6,-.4,1.2,-.7,1.9,-.7c.4,0,.8,.1,1.2,.2c.4,.1,.8,.2,1.2,.5c.4,.2,.8,.4,1.1,.7c.3,.2,.6,.5,.9,.7l-.2,-.5Zm2.9,6.8c0,-.6,-.1,-1.1,-.2,-1.4c-.2,-.3,-.4,-.5,-.7,-.6c.3,-.3,.4,-.8,.4,-1.3c0,-.5,-.1,-.9,-.4,-1.1h4.6l-.9,-.9H343.7l.8,.9h3.2c0,.4,-.1,.8,-.3,1.2c-.3,.5,-.6,.8,-.9,.8l-.8,-.6l-.4,.6l.7,.7c.2,.2,.3,.3,.5,.3c.1,.1,.3,.2,.4,.2c.4,0,.8,-.3,1.1,-.9c.2,-.3,.3,-.5,.4,-.7c.1,-.3,.2,-.5,.3,-.7c0,.2,.1,.5,.3,.8c.2,.3,.4,.6,.8,.9c0,0,.1,.1,.1,.1q.1,0,.1,0c.1,.1,.2,.1,.2,.1c-.1,.1,-.3,.2,-.4,.4c-.1,.1,-.2,.2,-.3,.3c-.1,.2,-.2,.4,-.3,.5c0,.2,-.1,.3,-.1,.5c-.1,.2,-.1,.4,-.1,.6c0,.2,0,.3,.1,.5c.1,.1,.2,.3,.3,.4c.1,.1,.3,.2,.4,.3c.2,.1,.4,.1,.5,.1c.3,0,.5,-.1,.7,-.3c.2,-.2,.3,-.4,.3,-.7c0,-.2,-.1,-.4,-.2,-.5c-.2,-.1,-.4,-.2,-.6,-.2h-.1c0,0,-.1,0,-.2,0c.3,-1,.7,-1.5,1.4,-1.5c.4,0,.5,.1,.5,.4v4.2c-.2,-.2,-.5,-.3,-.7,-.4c-.3,-.2,-.6,-.2,-1,-.2h-1.2c-.8,0,-1.3,-.2,-1.6,-.5c-.3,-.3,-.5,-.7,-.5,-1.2c0,-.1,0,-.2,0,-.3c0,-.1,0,-.2,0,-.2c0,-.1,.1,-.2,.1,-.3c0,-.1,0,-.2,.1,-.3l-.4,-.4c-.1,.3,-.2,.7,-.3,1c0,.3,0,.5,0,.8c0,.3,0,.6,.1,.9c.1,.3,.2,.6,.4,.9c.2,.3,.5,.5,.7,.6c.3,.2,.6,.2,.9,.2c.2,0,.3,0,.5,0c.3,0,.5,0,.8,-.1c.3,0,.5,0,.7,-.1c.3,0,.4,0,.6,0c.4,0,.7,.2,.9,.4c.1,.2,.3,.5,.5,1l.3,.2v-4c.2,-1.1,.7,-1.6,1.4,-1.6c.2,0,.5,.2,.7,.6q-.1,0,-.2,0c0,0,-.1,0,-.1,0c-.7,0,-1,.3,-1.1,.8c0,.3,.1,.5,.3,.6c.2,.2,.4,.2,.6,.2c.9,0,1.3,-.5,1.3,-1.5c0,-.2,0,-.4,-.1,-.6c-.1,-.1,-.2,-.3,-.3,-.4c-.1,-.2,-.2,-.3,-.4,-.4c-.1,-.1,-.3,-.1,-.5,-.1c-.7,0,-1.2,.3,-1.6,1Zm-3.9,-4.4h2.1l.3,.1c.2,.3,.3,.5,.3,.8c0,.6,-.4,.9,-1.2,.9c-.4,0,-.8,-.2,-1.1,-.6c-.3,-.3,-.4,-.7,-.4,-1.2Zm18.7,-.9h-1.3c.1,-.8,-.1,-1.4,-.7,-1.8c-.4,-.4,-1.1,-.6,-1.9,-.6c-.2,0,-.7,0,-1.3,0c-.2,.1,-.5,.1,-.7,.1c-.2,0,-.4,0,-.5,0c-.4,0,-.7,-.1,-.9,-.2c-.3,-.2,-.5,-.4,-.5,-.7c0,-.1,0,-.2,.1,-.3c0,-.1,.1,-.2,.1,-.2v-.3c-.2,0,-.4,.1,-.5,.3c-.1,.2,-.1,.4,-.1,.7c0,.6,.3,1.1,.9,1.4c.5,.3,1.1,.5,1.7,.5c.1,0,.3,0,.5,0c.2,0,.5,0,.7,-.1c.3,0,.5,0,.7,0c.2,0,.4,0,.5,0c.2,0,.3,0,.5,0c.1,.1,.3,.1,.4,.2c.2,.1,.4,.3,.4,.6c0,.1,-.1,.2,-.1,.4h-3.7V199c-.1,-.3,-.3,-.5,-.5,-.7c-.1,-.3,-.3,-.5,-.5,-.7c-.6,-.6,-1.2,-.9,-1.8,-.9c-.3,0,-.6,.1,-.9,.2c-.3,.1,-.6,.2,-.9,.4c-.7,.4,-1,.9,-1,1.4c0,.2,0,.3,.1,.5c.2,.1,.3,.2,.4,.2c.2,0,.4,-.1,.7,-.2c.2,-.1,.4,-.2,.6,-.2c.3,0,.5,.2,.5,.6c0,.1,-.2,.4,-.5,.7l-.6,.6l1.2,.4c.4,-.4,.8,-.8,1.2,-1.2c.5,-.5,.9,-.9,1.3,-1.3c.1,.3,.3,.5,.4,.6c.1,.2,.2,.4,.3,.5v2.2c0,2.1,.6,3.1,1.6,3c.4,0,.7,-.1,1.1,-.4c.4,-.3,.8,-.7,1.1,-1.1c.4,-.5,.6,-.9,.8,-1.4c.2,-.5,.3,-.9,.3,-1.3c0,-.5,-.2,-.8,-.4,-1.2c-.3,-.3,-.6,-.5,-1,-.5c-.4,0,-.7,.1,-.9,.3c-.2,.3,-.3,.5,-.3,.9c0,.3,.1,.5,.3,.7c.3,.1,.5,.2,.8,.3l.3,-.1c-.1,.5,-.4,1.1,-.9,1.7c-.6,.7,-1.1,1,-1.5,1c-.3,0,-.5,-.2,-.5,-.6v-6.3h5.7l-.8,-.9Zm-8.6,3.3c0,-.1,0,-.3,-.1,-.4c0,-.2,-.1,-.3,-.2,-.4c-.1,-.2,-.2,-.2,-.4,-.3c-.1,-.1,-.3,-.1,-.5,-.1c.3,-.5,.8,-.7,1.6,-.7q.1,0,.2,0c.1,0,.3,.1,.4,.1c.2,.1,.4,.2,.5,.3l-1.5,1.5Z" class="g6_291"/>
<path d="M197,202.7c0,0,-.5,-9.9,8.7,-9.3c0,0,6.7,-.4,6.7,9.5M197,201.4v6.5c0,0,-3.4,.3,-3.9,-3c0,0,-.1,-3.8,3.9,-3.5Zm15.4,0v6.5c0,0,3.4,.3,3.9,-3c0,0,.1,-3.8,-3.9,-3.5Z" class="g7_291"/>
<path d="M185.8,218H835.4" class="g8_291"/>
<image clip-path="url(#c2_291)" preserveAspectRatio="none" x="683" y="65" width="182" height="113" xlink:href="img/2.png"/>
<path d="M739.2,922.9c0,0,-4.3,0,-4.3,4.3v10.9c0,0,0,4.3,4.3,4.3h30.3c0,0,4.4,0,4.4,-4.3V927.2c0,0,0,-4.3,-4.4,-4.3Z" class="g2_291"/>
<path d="M726.1,914.1v37.5m1.3,1H866.8m.9,-1.3V913.7m-1.3,-1H727" class="g3_291"/>
<path d="M726.1,952v.6h.5m140.5,0h.6V952m0,-38.7v-.6h-.6m-140.5,0h-.5v.6" class="g4_291"/>
<image clip-path="url(#c3_291)" preserveAspectRatio="none" x="147" y="780" width="731" height="140" xlink:href="img/3.png"/>
<path d="M170.8,786.1c0,0,-17.4,0,-17.4,17.3v89.2c0,0,0,17.3,17.4,17.3H850.7c0,0,17.3,0,17.3,-17.3V803.4c0,0,0,-17.3,-17.3,-17.3Z" class="g5_291"/>
<path d="M369.1,809.7l-.8,-.8h-8.2l.8,.8h5.7v.6c-1.8,.6,-3.5,1.5,-5.1,2.7l1.1,1.6c1.1,.1,2.1,.5,2.8,1.2c.2,.2,.4,.5,.6,.7c.2,.3,.4,.6,.5,.8c.2,.3,.3,.5,.3,.6c0,.1,.1,.1,.1,.2l.5,.6v-9h1.7Zm-2.5,6.8c-.8,-1.4,-1.9,-2.3,-3.4,-3c.6,-.4,1.2,-.7,1.7,-1c.6,-.3,1.1,-.6,1.7,-.8v4.8Zm10.6,-9.1c-1.6,-1.7,-3.3,-2.6,-5.1,-2.6c-.6,0,-1.3,.3,-2.1,.9c-.7,.6,-1.1,1.2,-1.1,1.9c0,.2,.1,.5,.3,.7l.6,.6h-2.2l.8,.8h1.3v8.1l.8,.9v-9H372l-.9,-.8h-.9l-.3,-.8c0,-.6,.4,-1.2,1.1,-1.7c.7,-.4,1.3,-.6,1.9,-.6c.5,0,.9,0,1.3,.1c.4,.1,.8,.3,1.1,.5c.5,.2,.8,.5,1.2,.7c.3,.2,.6,.5,.8,.7l-.1,-.4Zm2.5,2.3l-.8,-.8h-1.6V810c-1.4,.9,-2.2,1.4,-2.3,1.4c-.3,0,-.7,-.1,-.9,-.3c-.2,-.2,-.3,-.4,-.3,-.7c0,-.2,0,-.3,.1,-.5c.1,.1,.2,.2,.3,.3c.1,0,.2,0,.3,0c.3,0,.4,-.1,.5,-.2c.2,-.1,.2,-.3,.2,-.5c0,-.5,-.3,-.7,-1,-.7c-.4,0,-.7,.1,-1,.4c-.3,.2,-.4,.6,-.4,1c0,.2,0,.4,.1,.6c.1,.2,.3,.4,.4,.5c.4,.3,.8,.4,1.3,.4l-2.2,1.7l1,1.4c.5,0,.9,.1,1.3,.2c.3,.2,.7,.3,1,.5c.4,.4,.8,.9,1.3,1.5c.1,.2,.2,.4,.4,.7c.1,.2,.2,.4,.3,.5l.5,.7v-9.2h1.5Zm-2.4,6.8c-.7,-1.2,-1.7,-2.2,-3.1,-2.9c.6,-.4,1.1,-.9,1.6,-1.2c.5,-.3,1,-.6,1.5,-.8v4.9Zm3.7,-12h-.7l-4.8,3.6h1.9l3.6,-3.6Zm7.4,4.4h-9.9l.9,.8h9.8l-.8,-.8Zm-.4,4c-.2,-.5,-.4,-.9,-.7,-1.2c-.3,-.4,-.6,-.7,-1,-.9c-.4,-.2,-.8,-.3,-1.3,-.3c-.5,0,-1,.2,-1.3,.5c-.5,.4,-.7,.8,-.7,1.4c0,.4,.2,.8,.4,1.1c.3,.4,.6,.5,1.1,.5c.8,0,1.3,-.4,1.3,-1.2c0,-.4,-.1,-.7,-.4,-1c.3,-.1,.5,-.1,.6,-.1c.5,0,.8,.2,1.1,.6c.3,.4,.4,.8,.4,1.3c0,.6,-.2,1.1,-.7,1.6c-.6,.5,-1.1,.7,-1.7,.7c-1.2,0,-2.3,-.6,-3.1,-1.9c-.2,-.3,-.4,-.7,-.7,-1.4c-.3,-.6,-.6,-1.3,-1,-2.1l-.5,-.2c1.3,4.6,3,7,5.2,7c.9,0,1.6,-.3,2.2,-.9c.3,-.3,.6,-.6,.7,-1c.2,-.4,.3,-.8,.3,-1.2c0,-.4,-.1,-.9,-.2,-1.3Zm15.9,-4H393.4l.8,.8h8.2v5.9l-1.1,-1c.1,-.5,.2,-.9,.2,-1.3c0,-.6,-.1,-1.2,-.4,-1.7c-.2,-.3,-.5,-.6,-.8,-.8c-.2,-.2,-.5,-.4,-.9,-.5c-.2,-.1,-.4,-.1,-.6,-.1c-.5,0,-.9,.1,-1.4,.5c-.2,.1,-.3,.3,-.5,.5c-.1,.2,-.1,.5,-.1,.7c0,.2,0,.4,.1,.6c.2,.3,.5,.5,.9,.6c.4,.1,.7,0,1,-.2c.1,-.2,.3,-.3,.4,-.5c.1,-.2,.1,-.3,.1,-.5c0,-.2,-.1,-.5,-.2,-.7c.1,-.1,.3,-.1,.5,-.1c.1,.1,.3,.1,.5,.3c.1,.1,.2,.3,.3,.5c.2,.2,.3,.4,.3,.6c.1,.2,.1,.4,.1,.5c0,.4,-.1,.8,-.3,1.2c-.4,.6,-1,.9,-2,.9c-.4,0,-.8,-.1,-1.1,-.3c-.4,-.2,-.8,-.6,-1.1,-1c-.3,-.4,-.6,-.9,-.8,-1.4c-.2,-.6,-.4,-1.3,-.6,-2l-.5,-.2c.1,.8,.2,1.4,.4,2.1c.2,.6,.4,1.2,.7,1.7c.2,.3,.4,.7,.7,1c.2,.3,.5,.6,.8,.8c.3,.2,.6,.4,.8,.5c.3,.1,.6,.2,.9,.2c.5,0,.9,-.1,1.3,-.3c.4,-.2,.7,-.5,.9,-.9c1,.7,1.7,1.8,2,3.3l.3,.1v-9h1.6l-.9,-.8Zm8.7,.8l-.9,-.8h-8.1l.9,.8h5.8v4.8c-.9,-1.9,-1.9,-2.9,-3.1,-2.9c-.6,0,-1,.2,-1.5,.6c-.4,.4,-.6,.9,-.6,1.4c0,1.1,.6,1.6,1.6,1.6c.4,0,.7,-.1,.9,-.3c.2,-.3,.3,-.6,.3,-1c0,-.2,-.2,-.5,-.6,-1c.1,-.1,.2,-.1,.3,-.1c.9,0,1.6,.6,2.3,1.8c.4,1,.6,2,.6,3v.9l.6,.4v-9.2h1.5Zm.3,12c0,-.1,-.1,-.2,-.2,-.3c-.1,-.1,-.2,-.3,-.3,-.5c-.2,-.2,-.5,-.5,-.7,-.7c-.2,-.2,-.4,-.5,-.7,-.7c.1,-.2,.1,-.5,.1,-.8c-.1,-.3,-.1,-.6,-.2,-.9l-.7,-.4c0,.3,.1,.7,.1,1c0,.3,0,.5,-.1,.7c-.5,-.3,-.9,-.5,-1.2,-.5c-.2,0,-.4,.1,-.6,.1c-.2,.1,-.3,.2,-.5,.3c-.1,.1,-.2,.3,-.3,.4c-.1,.2,-.1,.4,-.1,.6c0,.4,.1,.7,.5,1c.3,.2,.7,.3,1.1,.3c.7,0,1.2,-.4,1.7,-1c.1,.1,.3,.2,.5,.4c.2,.1,.4,.3,.6,.5c.2,.2,.4,.4,.5,.6c.2,.2,.4,.4,.5,.6v-.7Zm-3.3,-2.1c.1,0,.2,.1,.3,.2c0,.2,-.2,.3,-.4,.5c-.3,.1,-.5,.2,-.8,.1c-.2,0,-.4,-.2,-.4,-.4c0,-.4,.3,-.6,.9,-.6c.1,.1,.3,.1,.4,.2Zm11.9,-9.9l-.9,-.8c-.4,-.1,-.7,-.4,-.8,-1.1l-.5,-.5l.1,3.8c-.1,-.3,-.4,-.8,-.9,-1.3c-.5,-.6,-.9,-1,-1.2,-1c-.8,0,-1.5,.6,-2,1.8c-.1,-.5,-.4,-.9,-.8,-1.2c-.3,-.4,-.8,-.5,-1.2,-.5h-1.8l.9,.8c.1,0,.4,0,.9,0c.5,0,1,.4,1.4,1.1c-.2,.1,-.4,.2,-.6,.3c-.1,.1,-.3,.3,-.4,.5c-.2,.1,-.3,.3,-.3,.5c-.1,.2,-.1,.4,-.1,.6c0,.3,0,.6,.2,.9c.2,.2,.5,.4,.8,.4c.6,0,1.1,-.4,1.3,-1.1c.1,.3,.3,.6,.5,.8c.3,.1,.5,.2,.8,.2c.4,0,.6,-.2,.8,-.4c.2,-.3,.3,-.6,.3,-.9c0,-.4,-.4,-1,-1.3,-1.6c0,-.2,.1,-.4,.3,-.5c.2,-.2,.4,-.2,.7,-.2c.3,0,.6,.2,1,.7c.4,.6,.6,1,.6,1.4l-.1,5.5l.9,.8v-9h1.4Zm3.3,0l-.8,-.8h-.8c-.8,-3,-2.6,-4.5,-5.3,-4.5c-.3,0,-.6,0,-.9,.1c-.4,.1,-.7,.1,-1,.3c-.4,.1,-.7,.3,-.9,.5c-.2,.3,-.3,.5,-.3,.8c0,.3,.1,.6,.3,.8c.3,.2,.6,.4,.9,.5c.1,0,.4,.1,.8,.1c.3,.1,.9,.1,1.5,.2c.8,.1,1.3,.3,1.3,.6c0,.3,-.2,.5,-.4,.7h.8c.1,-.3,.1,-.5,.1,-.6c0,-.4,-.1,-.7,-.3,-1c-.2,-.2,-.6,-.4,-1,-.6c-.4,-.1,-1.2,-.2,-2.3,-.2c-.8,-.1,-1.3,-.2,-1.3,-.5c0,-.3,.4,-.5,1,-.7c.3,0,.5,-.1,.7,-.1c.3,0,.5,-.1,.7,-.1c2.8,0,4.4,1.3,4.8,3.7h-2.2l.9,.8h1.3v8.1l.8,.9v-9h1.6Zm8.6,0l-.8,-.8h-9.2l.8,.8H431v2.4c-.3,-1,-.8,-1.4,-1.5,-1.4c-.2,0,-.5,.1,-.7,.3c-.2,.2,-.3,.5,-.3,.7c-.6,-.7,-1.2,-1.1,-1.9,-1.1c-.6,0,-1.1,.3,-1.4,.8c-.3,.5,-.5,1.1,-.5,1.7c0,.3,.1,.7,.2,1c.1,.3,.3,.5,.5,.7c.2,.3,.5,.4,.8,.5c.3,.2,.6,.2,.9,.2c.5,0,.8,-.1,1,-.4c.3,-.2,.4,-.4,.4,-.8c0,-.8,-.4,-1.2,-1.2,-1.2c-.2,0,-.4,0,-.6,.2c-.2,.2,-.3,.4,-.3,.7c0,.2,.1,.4,.3,.7c-.8,-.1,-1.2,-.5,-1.2,-1.2c0,-.2,0,-.4,.1,-.6c.1,-.2,.2,-.4,.3,-.5c.2,-.2,.4,-.3,.5,-.4c.2,-.1,.4,-.1,.6,-.1c.5,0,.9,.1,1.3,.4c.3,.3,.6,.7,.6,1.2l.4,-.2c-.1,-.2,-.1,-.4,-.1,-.5c0,-.6,.2,-.9,.7,-.9c.3,0,.6,.1,.8,.3c.2,.3,.3,.5,.3,.8v4.9l.9,.9v-9.1h1.5Zm4.1,-.8H432l.9,.8h2.7c-1.2,1.4,-1.8,2.9,-1.8,4.4c0,1,.3,2,.7,2.8c.5,1,1.3,1.5,2.2,1.5c.2,0,.4,0,.6,-.1c.2,-.1,.3,-.2,.5,-.3c.1,-.1,.2,-.3,.3,-.5c.1,-.1,.1,-.3,.1,-.5c0,-.4,-.1,-.7,-.3,-.9c-.2,-.2,-.4,-.3,-.7,-.3c-.2,0,-.5,0,-.7,.2c-.2,.2,-.3,.4,-.3,.7c0,.2,0,.3,.1,.5c.1,.2,.2,.3,.4,.4c-.5,.2,-1,-.1,-1.5,-.9c-.3,-.5,-.5,-1,-.5,-1.6c0,-.7,.1,-1.3,.2,-1.9c.2,-.6,.4,-1.1,.7,-1.5c.3,-.5,.7,-.9,1.1,-1.3c.5,-.3,1,-.5,1.6,-.7l-.8,-.8Zm8.5,.8l-.9,-.8H437l.8,.8h5.9v4.8h-.1c-.8,-1.9,-1.9,-2.9,-3,-2.9c-.6,0,-1.1,.2,-1.5,.6c-.4,.4,-.6,.9,-.6,1.4c0,1.1,.6,1.6,1.6,1.6c.4,0,.6,-.1,.8,-.3c.3,-.3,.4,-.6,.4,-1c0,-.2,-.2,-.5,-.6,-1q.1,-.1,.2,-.1c.9,0,1.7,.6,2.4,1.8c.4,1,.6,2,.6,3v.9l.6,.4v-9.2H446Zm7.8,0l-.8,-.8h-8.2l.8,.8h5.7v.6c-1.8,.6,-3.5,1.5,-5.1,2.7l1.1,1.6c1.1,.1,2.1,.5,2.8,1.2c.2,.2,.4,.5,.6,.7c.3,.3,.4,.6,.5,.8c.1,.1,.3,.4,.4,.9v-.1l.5,.6v-9h1.7Zm-2.5,6.8c-.8,-1.4,-1.9,-2.3,-3.4,-3c.6,-.4,1.2,-.7,1.8,-1c.5,-.3,1,-.6,1.6,-.8v4.8Zm-3.3,1.2c.2,.2,.4,.2,.6,.2c.3,0,.5,0,.6,-.2c.2,-.2,.3,-.4,.3,-.6c0,-.3,-.1,-.5,-.3,-.7c-.1,-.1,-.3,-.2,-.6,-.2c-.2,0,-.4,.1,-.6,.2c-.2,.2,-.2,.4,-.2,.7c0,.2,0,.4,.2,.6Zm19.4,-10.3c-1.6,-1.7,-3.3,-2.6,-5.1,-2.6c-.7,0,-1.4,.3,-2.1,.9c-.7,.6,-1.1,1.2,-1.1,1.9c0,.2,.1,.5,.3,.7l.6,.6h-2.2l.8,.8h1.3v8.1l.8,.9v-9h1.5l-.9,-.8h-.9l-.3,-.8c0,-.6,.4,-1.2,1.1,-1.7c.7,-.4,1.3,-.6,1.9,-.6c.5,0,.9,0,1.3,.1c.4,.1,.8,.3,1.1,.5c.4,.2,.8,.5,1.1,.7c.4,.2,.7,.5,.9,.7l-.1,-.4Zm3.5,2.3l-.8,-.8h-9.2l.9,.8h6.8v2.4c-.4,-1,-.9,-1.4,-1.6,-1.4c-.2,0,-.4,.1,-.7,.3c-.2,.2,-.3,.5,-.3,.7c-.6,-.7,-1.2,-1.1,-1.9,-1.1c-.6,0,-1,.3,-1.4,.8c-.3,.5,-.5,1.1,-.5,1.7c0,.3,.1,.7,.2,1c.1,.3,.3,.5,.5,.7c.2,.3,.5,.4,.8,.5c.3,.2,.6,.2,1,.2c.4,0,.7,-.1,.9,-.4c.3,-.2,.4,-.4,.4,-.8c0,-.8,-.4,-1.2,-1.1,-1.2c-.3,0,-.5,0,-.7,.2c-.2,.2,-.3,.4,-.3,.7c0,.2,.1,.4,.3,.7c-.8,-.1,-1.2,-.5,-1.2,-1.2c0,-.2,0,-.4,.1,-.6c.1,-.2,.2,-.4,.4,-.5c.1,-.2,.3,-.3,.5,-.4c.1,-.1,.3,-.1,.6,-.1c.4,0,.8,.1,1.2,.4c.4,.3,.6,.7,.7,1.2l.3,-.2c0,-.2,-.1,-.4,-.1,-.5c0,-.6,.3,-.9,.7,-.9c.3,0,.6,.1,.8,.3c.2,.3,.3,.5,.3,.8v4.9l.9,.9v-9.1h1.5Zm4.1,-.8h-5.5l.9,.8h2.7c-1.1,1.4,-1.7,2.9,-1.7,4.4c0,1,.2,2,.6,2.8c.5,1,1.3,1.5,2.2,1.5c.2,0,.4,0,.6,-.1c.2,-.1,.4,-.2,.5,-.3c.1,-.1,.2,-.3,.3,-.5c.1,-.1,.1,-.3,.1,-.5c0,-.4,-.1,-.7,-.3,-.9c-.2,-.2,-.4,-.3,-.7,-.3c-.2,0,-.5,0,-.7,.2c-.2,.2,-.3,.4,-.3,.7c0,.2,.1,.3,.1,.5c.1,.2,.3,.3,.4,.4c-.5,.2,-1,-.1,-1.5,-.9c-.3,-.5,-.5,-1,-.5,-1.6c0,-.7,.1,-1.3,.2,-1.9c.2,-.6,.4,-1.1,.7,-1.5c.3,-.5,.7,-.9,1.1,-1.3c.5,-.3,1,-.5,1.7,-.7l-.9,-.8Zm9.4,.8l-.8,-.8h-9c.3,.2,.5,.4,.7,.6c.2,.2,.3,.3,.4,.3c.2,.2,.4,.4,.6,.5c.2,.1,.4,.1,.6,.2c.3,.1,.6,.2,.8,.2c.3,.1,.5,.2,.6,.3c.2,.1,.3,.3,.4,.5c.1,.3,.1,.6,.2,1c-.3,.4,-.5,.7,-.7,.9c-.2,.2,-.3,.4,-.5,.5c-.1,.2,-.2,.3,-.2,.3c-.1,0,-.2,.1,-.2,.1c-.1,0,-.2,-.1,-.3,-.2c-.1,0,-.2,-.1,-.3,-.3c0,-.1,-.1,-.2,-.1,-.3c-.1,-.2,-.1,-.3,-.1,-.4l-.6,.5c.1,.2,.2,.4,.3,.7c.2,.2,.3,.4,.4,.6c.2,.2,.4,.3,.6,.4c.2,.2,.4,.2,.7,.2c.1,0,.2,0,.3,0c.1,-.1,.2,-.2,.3,-.3c.2,-.1,.4,-.3,.6,-.6c.2,-.3,.4,-.7,.7,-1.2c.3,-.4,.6,-.7,.9,-.7c.3,-.1,.5,0,.7,.3c.2,.2,.4,.6,.5,1.1c.2,.5,.2,1.1,.2,1.8v.2c0,.1,0,.2,0,.4c0,.1,0,.3,0,.5c0,.2,0,.5,0,.8c.1,.1,.2,.3,.4,.5c.1,.1,.2,.3,.4,.4v-9h1.5Zm-2.3,3c-.3,-.4,-.5,-.6,-.7,-.9c-.2,-.2,-.4,-.3,-.6,-.4c-.2,-.1,-.4,-.1,-.7,0c-.2,.1,-.5,.3,-.7,.6c-.1,-.4,-.1,-.8,-.3,-1.1c-.2,-.4,-.5,-.8,-.9,-1.2h3.9v3Zm10.6,-5.3c-1.6,-1.7,-3.2,-2.6,-5,-2.6c-.7,0,-1.4,.3,-2.1,.9c-.8,.6,-1.1,1.2,-1.1,1.9c0,.2,.1,.5,.3,.7l.6,.6h-2.2l.8,.8h1.2v8.1l.9,.9v-9h1.4l-.8,-.8h-.9l-.4,-.8c.1,-.6,.5,-1.2,1.2,-1.7c.6,-.4,1.3,-.6,1.9,-.6c.4,0,.8,0,1.2,.1c.4,.1,.8,.3,1.2,.5c.4,.2,.8,.5,1.1,.7c.3,.2,.6,.5,.9,.7l-.2,-.4Zm2.6,2.3l-.9,-.8h-8l.8,.8H493v4.8c-.9,-1.9,-1.9,-2.9,-3.1,-2.9c-.5,0,-1,.2,-1.4,.6c-.4,.4,-.6,.9,-.6,1.4c0,1.1,.5,1.6,1.6,1.6c.3,0,.6,-.1,.8,-.3c.2,-.3,.3,-.6,.3,-1c0,-.2,-.2,-.5,-.5,-1c0,-.1,.1,-.1,.2,-.1c.9,0,1.6,.6,2.3,1.8c.5,1,.7,2,.7,3l-.1,.9l.7,.4v-9.2h1.4Zm3.6,0c-.4,-.4,-.8,-.6,-1.3,-.6c-.5,0,-.9,.2,-1.3,.6c-.2,.2,-.4,.4,-.4,.6c-.1,.3,-.2,.5,-.2,.8c0,.5,.2,1,.6,1.4c.4,.4,.8,.6,1.4,.6c.5,0,.9,-.2,1.2,-.6c.4,-.4,.6,-.9,.6,-1.4c0,-.5,-.2,-1,-.6,-1.4Zm-.7,2.1c-.3,.3,-.7,.5,-1.1,.5c-.3,0,-.5,-.3,-.5,-.7c0,-.2,0,-.4,.1,-.6c.1,-.2,.2,-.4,.3,-.6c.3,-.3,.7,-.5,1.1,-.5c.4,0,.6,.3,.6,.8c0,.4,-.2,.8,-.5,1.1Zm1.9,6.2c-.5,-.7,-1.2,-1.5,-2,-2.4c-.8,-.8,-1.5,-1.6,-2.2,-2.1v2c.3,.1,.7,.4,1,.6c.4,.2,.7,.5,1.1,.8c.4,.3,.7,.6,1.1,.9c.3,.3,.7,.6,1,.9V818Zm14.1,-10.6c-1.6,-1.7,-3.3,-2.6,-5,-2.6c-.7,0,-1.4,.3,-2.2,.9c-.7,.6,-1.1,1.2,-1.1,1.9c0,.2,.1,.5,.3,.7l.6,.6h-2.2l.8,.8h1.3v8.1l.8,.9v-9H509l-.9,-.8h-.9l-.3,-.8c0,-.6,.4,-1.2,1.1,-1.7c.7,-.4,1.3,-.6,2,-.6c.4,0,.8,0,1.2,.1c.4,.1,.8,.3,1.2,.5c.4,.2,.7,.5,1.1,.7c.3,.2,.6,.5,.9,.7l-.2,-.4Zm2.9,6.7c0,-.6,-.1,-1,-.2,-1.4c-.2,-.3,-.4,-.5,-.7,-.6c.3,-.3,.4,-.8,.4,-1.3c0,-.5,-.2,-.9,-.4,-1.1h4.5l-.8,-.8H507.8l.8,.8h3.2c0,.4,-.1,.8,-.3,1.3c-.3,.4,-.6,.7,-.9,.7l-.8,-.6l-.4,.7l.7,.7c.1,.1,.3,.2,.5,.3c.1,0,.3,.1,.4,.1c.4,0,.8,-.3,1.1,-.9c.2,-.2,.3,-.5,.4,-.7c.1,-.2,.2,-.5,.2,-.7c.1,.3,.2,.6,.3,.8c.2,.3,.5,.6,.9,.9c0,.1,.1,.1,.1,.1c0,0,.1,0,.1,.1q.1,0,.2,0c-.1,.1,-.3,.2,-.4,.4c-.1,.1,-.2,.2,-.3,.4c-.1,.1,-.2,.3,-.3,.4c0,.2,-.1,.3,-.1,.5c-.1,.2,-.1,.4,-.1,.6c0,.2,0,.3,.1,.5c.1,.2,.2,.3,.3,.4c.1,.1,.2,.2,.4,.3c.2,.1,.3,.1,.5,.1c.3,0,.5,-.1,.7,-.3c.2,-.2,.3,-.4,.3,-.7c0,-.2,-.1,-.3,-.2,-.5c-.2,-.1,-.4,-.2,-.6,-.2h-.1c0,0,-.1,0,-.2,0c.3,-1,.7,-1.5,1.4,-1.5c.3,0,.5,.2,.5,.4v4.2c-.2,-.1,-.5,-.3,-.8,-.4c-.3,-.1,-.6,-.2,-.9,-.2h-1.2c-.8,0,-1.3,-.2,-1.6,-.4c-.4,-.3,-.5,-.8,-.5,-1.3c0,-.1,0,-.2,0,-.3q0,-.1,0,-.2c0,-.1,.1,-.2,.1,-.3c0,-.1,0,-.2,.1,-.3l-.4,-.4c-.2,.4,-.2,.7,-.3,1c0,.3,-.1,.5,-.1,.8c0,.3,.1,.7,.2,1c.1,.3,.2,.6,.4,.8c.2,.3,.5,.5,.7,.6c.3,.2,.6,.3,.9,.3c.2,0,.3,-.1,.5,-.1c.2,0,.5,0,.8,-.1c.3,0,.5,0,.7,0c.2,-.1,.4,-.1,.6,-.1c.4,0,.7,.2,.9,.5c.1,.1,.3,.4,.5,.9l.3,.2v-4c.2,-1.1,.6,-1.6,1.4,-1.6c.2,0,.5,.2,.7,.6q-.1,0,-.2,0c0,0,-.1,0,-.1,0c-.7,0,-1,.3,-1.1,.8c0,.3,.1,.5,.3,.6c.1,.2,.4,.3,.6,.3c.8,-.1,1.3,-.6,1.3,-1.6c0,-.2,-.1,-.4,-.1,-.5c-.1,-.2,-.2,-.4,-.3,-.5c-.1,-.2,-.2,-.3,-.4,-.3c-.1,-.1,-.3,-.2,-.5,-.2c-.7,0,-1.2,.3,-1.6,1Zm-4,-4.4h2.2l.3,.1c.2,.3,.3,.6,.3,.9c0,.5,-.4,.8,-1.2,.8c-.4,0,-.8,-.2,-1.1,-.5c-.3,-.4,-.5,-.8,-.5,-1.3Zm18.7,-.8h-1.2c.1,-.8,-.2,-1.5,-.7,-1.9c-.5,-.4,-1.1,-.6,-1.9,-.6c-.3,0,-.7,0,-1.3,.1c-.3,0,-.5,0,-.7,0c-.2,0,-.4,0,-.5,0c-.4,0,-.7,0,-.9,-.2c-.3,-.2,-.5,-.4,-.5,-.7c0,-.1,0,-.2,.1,-.3c0,-.1,.1,-.1,.1,-.2v-.3c-.2,0,-.4,.1,-.5,.3c-.1,.2,-.1,.5,-.1,.7c0,.6,.3,1.1,.9,1.4c.5,.4,1.1,.5,1.7,.5c.1,0,.3,0,.5,0c.2,0,.5,0,.7,0c.3,-.1,.5,-.1,.7,-.1c.2,0,.4,0,.5,0c.2,0,.3,0,.5,0c.1,.1,.2,.1,.4,.2c.2,.1,.4,.4,.4,.7c0,0,-.1,.2,-.2,.4h-3.6v2.7c-.1,-.3,-.3,-.5,-.5,-.7c-.2,-.2,-.3,-.5,-.5,-.7c-.7,-.6,-1.2,-.8,-1.8,-.8c-.3,0,-.6,0,-.9,.1c-.3,.1,-.6,.2,-.9,.4c-.7,.4,-1,.9,-1,1.4c0,.2,0,.3,.1,.5c.2,.1,.3,.2,.4,.2c.2,0,.4,0,.7,-.2c.2,-.1,.4,-.1,.5,-.1c.4,0,.6,.1,.6,.5c0,.2,-.2,.4,-.5,.7l-.6,.6l1.2,.4c.4,-.4,.8,-.8,1.2,-1.2c.5,-.5,.9,-.9,1.3,-1.3c.1,.3,.3,.5,.4,.7c.1,.2,.2,.3,.3,.5v2.1c0,2.1,.5,3.1,1.6,3c.4,0,.7,-.1,1.1,-.4c.4,-.3,.8,-.7,1.1,-1.1c.3,-.5,.6,-.9,.8,-1.4c.2,-.4,.3,-.9,.3,-1.3c0,-.4,-.2,-.8,-.4,-1.2c-.3,-.3,-.6,-.5,-1.1,-.5c-.3,0,-.6,.1,-.8,.4c-.2,.2,-.3,.5,-.3,.8c0,.3,.1,.5,.3,.7c.3,.2,.5,.2,.8,.3l.2,-.1c0,.5,-.3,1.1,-.8,1.7c-.6,.7,-1.1,1.1,-1.5,1.1c-.3,0,-.5,-.2,-.5,-.7v-6.3h5.7l-.9,-.8Zm-8.5,3.3c0,-.2,0,-.4,-.1,-.5c0,-.2,-.1,-.3,-.2,-.4c-.1,-.1,-.2,-.2,-.4,-.3c-.1,-.1,-.3,-.1,-.5,-.1c.3,-.5,.8,-.7,1.6,-.7c0,0,.1,0,.2,0c.1,0,.2,.1,.4,.1c.2,.1,.4,.2,.4,.3l-1.4,1.6Z" class="g6_291"/>
<path d="M197,813.8c0,0,-.5,-9.9,8.7,-9.3c0,0,6.7,-.4,6.7,9.5M197,812.5V819c0,0,-3.4,.3,-3.9,-3c0,0,-.1,-3.8,3.9,-3.5Zm15.4,0V819c0,0,3.4,.3,3.9,-3c0,0,.1,-3.8,-3.9,-3.5Z" class="g7_291"/>
<path d="M185.8,829.1H835.4" class="g8_291"/>
<path d="M153.2,779.7H866.3v-210H153.2v210Z" class="g9_291"/>
<path d="M153.2,574.3V777.4m4.6,2.3H864m2.3,-4.6V572m-4.6,-2.3H155.5" class="ga_291"/>
<path d="M153.2,779.7v0m713.1,0v0m0,-210v0m-713.1,0v0" class="gb_291"/>
<path d="M152.5,584V545.7c0,0,0,-8.7,8.6,-8.7H858.4c0,0,8.6,0,8.6,8.7v39Z" class="gc_291"/>
<path d="M793.1,562.1c0,0,-.5,-9.9,8.6,-9.3c0,0,6.8,-.4,6.7,9.5m-15.3,-1.6v6.5c0,0,-3.4,.4,-4,-3c0,0,0,-3.7,4,-3.5Zm15.3,0v6.5c0,0,3.4,.4,4,-3c0,0,0,-3.7,-4,-3.5Z" class="gd_291"/>
<path d="M154.1,1243.9h713V1015.1h-713v228.8Z" class="g5_291"/>
<path d="M154.1,1019.7v221.9m4.6,2.3H864.9m2.2,-4.6V1017.4m-4.5,-2.3H156.4" class="ge_291"/>
<path d="M154.1,1243.9v0m713.1,0v0m0,-228.8v0m-713.1,0v0" class="gf_291"/>
<path d="M153.3,1019.7V991.1c0,0,0,-8.7,8.7,-8.7H859.3c0,0,8.6,0,8.6,8.7v29.1Z" class="gg_291"/>
<path d="M187.2,996.2v-6.4c0,-4.8,-3.9,-8.7,-8.7,-8.7c-4.8,0,-8.6,3.9,-8.6,8.7v6.4Z" class="gh_291"/>
<path d="M187.2,996.2v-6.4c0,-4.8,-3.9,-8.7,-8.7,-8.7c-4.8,0,-8.6,3.9,-8.6,8.7v6.4h17.3Z" class="gi_291"/>
<path d="M169.9,998v5.3c0,4.8,3.8,8.7,8.6,8.7c4.8,0,8.7,-3.9,8.7,-8.7V998Z" class="gh_291"/>
<path d="M169.9,998v5.3c0,4.8,3.8,8.7,8.6,8.7c4.8,0,8.7,-3.9,8.7,-8.7V998H169.9Z" class="gi_291"/>
<path d="M178.4,1016.9c-7.1,0,-13,-6,-13,-13.3h2.4c0,6,4.8,10.8,10.6,10.8c5.8,0,10.6,-4.8,10.6,-10.8h2.4c0,7.3,-5.8,13.3,-13,13.3Z" class="gj_291"/>
<path d="M178.4,1016.9c-7.1,0,-13,-6,-13,-13.3h2.4c0,6,4.8,10.8,10.6,10.8c5.8,0,10.6,-4.8,10.6,-10.8h2.4c0,7.3,-5.8,13.3,-13,13.3Z" class="gi_291"/>
<path d="M177.5,1024h2.4v-8h-2.4v8Z" class="gj_291"/>
<path d="M177.5,1024h2.4v-8h-2.4v8Z" class="gi_291"/>
<path d="M178.6,1020.4c-3.6,0,-6.6,2.2,-6.7,4.9h13.4c-.1,-2.7,-3.1,-4.9,-6.7,-4.9Z" class="gj_291"/>
<path d="M178.6,1020.4c-3.6,0,-6.6,2.2,-6.7,4.9h13.4c-.1,-2.7,-3.1,-4.9,-6.7,-4.9Z" class="gi_291"/>
<path d="M201.3,975.9c-6.5,0,-11.9,5.3,-11.9,11.9c0,2.7,.9,5.2,2.4,7.2l-1.5,5.3l5.5,-1.9c1.7,.9,3.5,1.4,5.5,1.4c6.6,0,12,-5.4,12,-12c0,-6.6,-5.4,-11.9,-12,-11.9Z" class="gk_291"/>
<path d="M201.3,975.9c-6.5,0,-11.9,5.3,-11.9,11.9c0,2.7,.9,5.2,2.4,7.2l-1.5,5.3l5.5,-1.9c1.7,.9,3.5,1.4,5.5,1.4c6.6,0,12,-5.4,12,-12c0,-6.6,-5.4,-11.9,-12,-11.9Z" class="gi_291"/>
<path d="M196.9,987.6c0,.8,-.7,1.4,-1.4,1.4c-.8,0,-1.4,-.6,-1.4,-1.4c0,-.7,.6,-1.3,1.4,-1.3c.7,0,1.4,.6,1.4,1.3Z" class="g5_291"/>
<path d="M196.9,987.6c0,.8,-.7,1.4,-1.4,1.4c-.8,0,-1.4,-.6,-1.4,-1.4c0,-.7,.6,-1.3,1.4,-1.3c.7,0,1.4,.6,1.4,1.3Z" class="gi_291"/>
<path d="M203,987.7c0,.8,-.6,1.4,-1.4,1.4c-.8,0,-1.4,-.6,-1.4,-1.4c0,-.8,.6,-1.4,1.4,-1.4c.8,0,1.4,.6,1.4,1.4Z" class="g5_291"/>
<path d="M203,987.7c0,.8,-.6,1.4,-1.4,1.4c-.8,0,-1.4,-.6,-1.4,-1.4c0,-.8,.6,-1.4,1.4,-1.4c.8,0,1.4,.6,1.4,1.4Z" class="gi_291"/>
<path d="M209.1,987.7c0,.8,-.6,1.4,-1.4,1.4c-.8,0,-1.4,-.6,-1.4,-1.4c0,-.8,.6,-1.4,1.4,-1.4c.8,0,1.4,.6,1.4,1.4Z" class="g5_291"/>
<path d="M209.1,987.7c0,.8,-.6,1.4,-1.4,1.4c-.8,0,-1.4,-.6,-1.4,-1.4c0,-.8,.6,-1.4,1.4,-1.4c.8,0,1.4,.6,1.4,1.4Z" class="gi_291"/>
<path d="M785.7,1002.1c0,0,-.5,-9.9,8.6,-9.3c0,0,6.8,-.4,6.7,9.5m-15.3,-1.6v6.6c0,0,-3.4,.3,-4,-3c0,0,0,-3.8,4,-3.6Zm15.3,0v6.6c0,0,3.4,.3,3.9,-3c0,0,.1,-3.8,-3.9,-3.6Z" class="g7_291"/>
<path d="M32.1,45.1H9.2m958.3,0h22.9M32.1,1331.3H9.2m958.3,0h22.9M45.1,32.1V9.2m0,1335.1v22.9M954.5,32.1V9.2m0,1335.1v22.9" class="gl_291"/>
<path d="M32.1,45.1H9.2m958.3,0h22.9M32.1,1331.3H9.2m958.3,0h22.9M45.1,32.1V9.2m0,1335.1v22.9M954.5,32.1V9.2m0,1335.1v22.9" class="gm_291"/>
<path d="M27.5,32.1H0m972.1,0h27.5M27.5,1344.3H0m972.1,0h27.5M32.1,27.5V0m0,1348.9v27.5M967.5,27.5V0m0,1348.9v27.5" class="gl_291"/>
<path d="M27.5,32.1H0m972.1,0h27.5M27.5,1344.3H0m972.1,0h27.5M32.1,27.5V0m0,1348.9v27.5M967.5,27.5V0m0,1348.9v27.5" class="gm_291"/>
</svg>