<?xml version="1.0" encoding="UTF-8" standalone="no"?>
<!DOCTYPE svg PUBLIC "-//W3C//DTD SVG 1.1//EN"
"http://www.w3.org/Graphics/SVG/1.1/DTD/svg11.dtd">
<svg viewBox="0 0 999 1376" version="1.1" xmlns="http://www.w3.org/2000/svg" xmlns:xlink="http://www.w3.org/1999/xlink">
<defs>
<clipPath id="c0_273"><path d="M199.2,246.4l-6.5,-2.1L176.3,230.4V173.3h72v73.1Z"/></clipPath>
<clipPath id="c1_273"><path d="M199.2,985.3l-6.5,-2.1L176.3,969.3V912.2h72v73.1Z"/></clipPath>
<clipPath id="c2_273"><path d="M103.8,676.1V430.3H323.2V676.1Z"/></clipPath>
<clipPath id="c3_273"><path d="M106.8,674.6V433.7H322.4V674.6Z"/></clipPath>
<clipPath id="c4_273"><path d="M106.5,674.3V433.4H322.1V674.3Z"/></clipPath>
<clipPath id="c5_273"><path d="M211.6,451.8c-.3,0,3.5,-8.2,3.5,-8.2l.8,.5c0,0,-4,7.7,-4.3,7.7Z"/></clipPath>
<clipPath id="c6_273"><path d="M219.1,444.1c0,0,-6.9,-1.1,-7.6,-5.2c-.6,-3.6,1.5,-3.9,2.1,-3.9c.1,0,.1,.1,.1,.1L222,422.3l-1.4,-3.1c0,0,-.6,-1.1,.1,-2c.1,-.1,.2,-.1,.3,-.1c2.1,0,13,5.5,13,5.5v.2c-.3,.5,-.7,1.1,-1.4,1.6c-.6,.5,-5.1,1.2,-5.1,1.2l-8.4,18.5Z"/></clipPath>
<clipPath id="c7_273"><path d="M218.7,443.8c.2,-.5,.2,-1.8,0,-2.3v-1.4c-1.5,-.5,-2.9,-1.2,-3.7,-2.5c-1.1,.6,-2.1,1.2,-3.1,1.9c1.5,2.1,3.8,3.5,6.8,4.3Zm0,-3.9c2.2,-4.6,4,-9.6,6.1,-14.1c-.8,-.4,-1.8,-1.3,-2.6,-1.4c-2.3,4.3,-4.6,8.6,-7,12.8c.7,1.3,2.1,2,3.5,2.7Zm-7.3,12c1,-2.9,2.4,-5.5,3.5,-8.3c-2,-1.5,-3.9,-3.1,-4.4,-6.1V436c0,-2.7,1.9,-3.4,4.6,-3.4q.1,0,.2,0c1.9,-3.4,4.2,-6.4,6.1,-9.7c-.5,-.9,-1.1,-2.4,-.8,-3.7c.5,1.3,1.6,1.9,2.3,2.9c-.1,.6,-.2,1.2,-.3,1.8c.6,.7,1.3,1.2,2.4,1.4c.4,-.4,.5,-1.3,1.1,-1.5c.9,.3,1.8,.7,3.1,.7c.2,.1,.5,.2,.9,.2c.3,0,.6,-.1,.8,-.2c.1,.1,.2,.1,.3,.1c.2,0,.4,-.1,.6,-.2c.2,0,.3,-.1,.5,-.1c.1,0,.2,0,.3,.1c-1.3,.7,-2.2,1.8,-4.1,1.8c-.1,0,-.3,0,-.4,0c-.9,3.7,-1.9,7.3,-2.6,11.1c.5,1.1,1.5,1.7,1.2,3.2c-.4,2.7,-3.8,4.4,-7.2,4.4c-1.2,0,-2.5,-.3,-3.6,-.8c-1,2.1,-2.1,4.2,-3.3,6.1c0,-.4,.3,-.4,.3,-.8c1,-1.8,1.9,-3.6,2.6,-5.6c-1,1.7,-1.8,3.7,-2.7,5.5c-.2,.4,-.5,.8,-.7,1.2c-.3,.5,-.3,1.2,-.7,1.4Z"/></clipPath>
<clipPath id="c8_273"><path d="M229.1,424.1c-4.8,0,-13.1,-7.3,-5.5,-8.7h1.2c.2,0,.4,0,.6,0c0,0,.1,0,.1,0q.1,0,.2,0c.3,0,.6,0,.9,.1c3.1,.6,8.2,3.8,7.5,7c-.2,1.2,-1.5,1.6,-3.1,1.6h-1.9Z"/></clipPath>
<clipPath id="c9_273"><path d="M732.8,810V549.9H934.6V810Z"/></clipPath>
<clipPath id="ca_273"><path d="M738.4,806.7V557H927.6V806.7Z"/></clipPath>
<clipPath id="cb_273"><path d="M738.1,806.4V556.7H927.3V806.4Z"/></clipPath>
<clipPath id="cc_273"><path d="M829.1,570.9c-.2,-.1,3.6,-8.2,3.6,-8.2l.8,.5c0,0,-4.1,7.7,-4.4,7.7Z"/></clipPath>
<clipPath id="cd_273"><path d="M836.6,563.2c0,0,-6.8,-1.1,-7.5,-5.2c-.7,-3.6,1.5,-3.9,2,-3.9c.1,0,.2,0,.2,0l8.3,-12.7l-1.5,-3.1c0,0,-.6,-1.1,.2,-2c0,-.1,.1,-.1,.3,-.1c2.1,0,12.9,5.5,12.9,5.5l.1,.2c-.4,.5,-.8,1.1,-1.4,1.6c-.7,.5,-5.1,1.1,-5.1,1.1l-8.5,18.6Z"/></clipPath>
<clipPath id="ce_273"><path d="M836.2,562.8c.2,-.4,.2,-1.7,0,-2.2v-1.4c-1.5,-.5,-2.8,-1.2,-3.6,-2.5c-1.1,.6,-2.1,1.2,-3.2,1.9c1.6,2.1,3.9,3.5,6.8,4.2Zm0,-3.9c2.2,-4.5,4,-9.5,6.2,-14c-.9,-.4,-1.9,-1.3,-2.6,-1.4c-2.3,4.3,-4.6,8.6,-7.1,12.8c.7,1.3,2.1,2,3.5,2.6ZM828.9,571c1.1,-2.9,2.4,-5.5,3.6,-8.3c-2,-1.5,-4,-3.1,-4.4,-6.1v-1.5c-.1,-2.7,1.9,-3.4,4.5,-3.4c.1,0,.2,0,.2,0c2,-3.4,4.3,-6.4,6.2,-9.7c-.6,-.9,-1.2,-2.4,-.9,-3.7c.5,1.3,1.6,1.9,2.4,2.9c-.1,.6,-.3,1.2,-.4,1.8c.6,.7,1.4,1.2,2.4,1.4c.5,-.4,.5,-1.3,1.2,-1.5c.9,.3,1.8,.7,3.1,.7c.1,.1,.5,.2,.8,.2c.4,0,.7,-.1,.8,-.2c.1,0,.2,.1,.3,.1c.3,0,.5,-.1,.7,-.2c.1,0,.3,-.1,.5,-.1c.1,0,.2,0,.3,.1c-1.3,.7,-2.2,1.8,-4.2,1.8c-.1,0,-.2,0,-.3,0c-.9,3.7,-1.9,7.3,-2.7,11.1c.6,1.1,1.5,1.7,1.3,3.2c-.5,2.7,-3.9,4.4,-7.2,4.4c-1.3,0,-2.5,-.3,-3.6,-.8c-1,2.1,-2.1,4.2,-3.3,6.1c0,-.4,.3,-.4,.3,-.8c.9,-1.8,1.9,-3.6,2.6,-5.7c-1.1,1.8,-1.8,3.8,-2.8,5.6c-.2,.4,-.4,.8,-.6,1.2c-.3,.4,-.3,1.2,-.8,1.4Z"/></clipPath>
<clipPath id="cf_273"><path d="M846.7,543.2c-4.8,0,-13.1,-7.3,-5.6,-8.8h1.3c.2,.1,.4,.1,.7,.1q.1,0,.2,0c.3,0,.5,0,.9,.1c3,.6,8.2,3.8,7.5,7c-.2,1.2,-1.6,1.6,-3.1,1.6h-1.8c0,0,-.1,0,-.1,0Z"/></clipPath>
<clipPath id="cg_273"><path d="M786.5,132.5V120.1H801v12.4Z"/></clipPath>
<style type="text/css"><![CDATA[
.g0_273{
fill: #FEFCF4;
}
.g1_273{
fill: #FFF;
}
.g2_273{
fill: none;
stroke: #6381B7;
stroke-width: 0.763;
}
.g3_273{
fill: #6381B7;
}
.g4_273{
fill: none;
stroke: #6381B7;
stroke-width: 0.381;
stroke-dasharray: 2,1;
}
.g5_273{
fill: none;
stroke: #6381B7;
stroke-width: 0.381;
}
.g6_273{
fill: #FCE8B0;
}
.g7_273{
fill: #F7C2D9;
}
.g8_273{
fill: #FEF6F5;
}
.g9_273{
fill: #EC008C;
}
.ga_273{
fill: none;
stroke: #949698;
stroke-width: 0.305;
stroke-dasharray: 3,3;
}
.gb_273{
fill: none;
stroke: #949698;
stroke-width: 0.305;
stroke-dasharray: 4,4;
}
.gc_273{
fill: none;
stroke: #949698;
stroke-width: 0.305;
}
.gd_273{
fill: #6D6F71;
}
.ge_273{
fill: #25408F;
}
.gf_273{
fill: #A8AAAD;
}
.gg_273{
fill: none;
stroke: #949698;
stroke-width: 0.549;
}
.gh_273{
fill: none;
stroke: #BCBEC0;
stroke-width: 2.566;
}
.gi_273{
fill: #231F20;
}
.gj_273{
fill: #363637;
}
.gk_273{
fill: #5CC4BE;
}
.gl_273{
fill: #EAD646;
}
.gm_273{
fill: none;
stroke: #FFF;
stroke-width: 1.909;
stroke-miterlimit: 10;
}
.gn_273{
fill: none;
stroke: #000;
stroke-width: 0.381;
stroke-miterlimit: 10;
}
]]></style>
</defs>
<path d="M45.1,1344.3H967.5V32.1H45.1V1344.3Z" class="g0_273"/>
<path d="M172.1,128.6c0,0,-18.4,0,-18.4,18.3V818c0,0,0,18.3,18.4,18.3H849.2c0,0,18.3,0,18.3,-18.3V128.6Z" class="g1_273"/>
<path d="M172.1,128.6c0,0,-18.4,0,-18.4,18.3V818c0,0,0,18.3,18.4,18.3H849.2c0,0,18.3,0,18.3,-18.3V128.6H172.1Z" class="g2_273"/>
<path d="M166.7,890.3c0,0,-13,0,-13,13v166c0,0,0,13,13,13H854.5c0,0,13,0,13,-13v-166c0,0,0,-13,-13,-13Z" class="g1_273"/>
<path d="M166.7,890.3c0,0,-13,0,-13,13v166c0,0,0,13,13,13H854.5c0,0,13,0,13,-13v-166c0,0,0,-13,-13,-13H166.7Z" class="g2_273"/>
<path d="M394.8,1100.4c0,0,-4.3,0,-4.3,4.3v10.9c0,0,0,4.3,4.3,4.3h30.3c0,0,4.3,0,4.3,-4.3v-10.9c0,0,0,-4.3,-4.3,-4.3Z" class="g3_273"/>
<path d="M381.6,1092.9v50.6m1.4,.9H866.8m.9,-1.3v-50.6m-1.3,-.9H382.6" class="g4_273"/>
<path d="M381.6,1143.8v.6h.6m485,0h.5v-.6m0,-51.7v-.5h-.5m-485,0h-.6v.5" class="g5_273"/>
<path d="M231.8,175.4c0,0,-13,0,-13,13v47.7c0,0,0,13,13,13h602c0,0,13,0,13,-13V188.4c0,0,0,-13,-13,-13Z" class="g6_273"/>
<image clip-path="url(#c0_273)" preserveAspectRatio="none" x="175" y="172" width="75" height="76" xlink:href="img/1.png"/>
<path d="M226.6,241.7c0,0,-26.9,11.3,-51.1,-12.8c0,0,15.1,25.3,49.3,24c0,0,24.7,.3,20.2,-10.1c0,0,1.2,-4.5,-18.4,-1.1Z" class="g6_273"/>
<path d="M231.8,914.3c0,0,-13,0,-13,13V975c0,0,0,12.9,13,12.9h602c0,0,13,0,13,-12.9V927.3c0,0,0,-13,-13,-13Z" class="g6_273"/>
<image clip-path="url(#c1_273)" preserveAspectRatio="none" x="175" y="911" width="75" height="76" xlink:href="img/2.png"/>
<path d="M226.6,980.6c0,0,-26.9,11.3,-51.1,-12.8c0,0,15.1,25.3,49.3,24c0,0,24.7,.3,20.2,-10.1c0,0,1.2,-4.5,-18.4,-1.1Z" class="g6_273"/>
<image clip-path="url(#c2_273)" preserveAspectRatio="none" x="103" y="431" width="220" height="246" xlink:href="img/3.png"/>
<path d="M108.7,443.2l6.6,226.6l201.9,-7.6l-1.1,-29.3L310.3,435Z" class="g7_273"/>
<image clip-path="url(#c3_273)" preserveAspectRatio="none" x="106" y="434" width="216" height="241" xlink:href="img/4.png"/>
<image clip-path="url(#c4_273)" preserveAspectRatio="none" x="106" y="434" width="216" height="240" xlink:href="img/5.png"/>
<path d="M116.3,438.6L111.7,664l167.4,4.3L312,640l3.8,-195.8Z" class="g8_273"/>
<path d="M279.8,667.8l32.6,-27.3l-20.5,-5.9Z" class="g9_273"/>
<path d="M448.8,628.1c-15.2,14,-79.8,70.5,-118.6,57.3m-4.8,-5.1c-2.4,-6,-3.6,-16.3,15.9,-16" class="ga_273"/>
<path d="M347.2,669.3c.4,1.6,.6,3.5,0,5.7" class="gb_273"/>
<path d="M341.3,679.3c-11.5,1.9,-45.6,4.3,-103.6,-16.1" class="ga_273"/>
<path d="M452.1,625c0,0,-.4,.4,-1.1,1.1M328.8,684.9c-.5,-.2,-1,-.4,-1.4,-.6c0,0,-.3,-.5,-.8,-1.3m16.2,-18.7c.5,.1,1,.1,1.5,.1c0,0,.5,.5,1.2,1.5m1.1,10.8c-.3,.6,-.6,1.2,-.9,1.7c0,0,-.5,.2,-1.5,.4M236.3,662.7c-.4,-.1,-.9,-.3,-1.4,-.5" class="gc_273"/>
<path d="M241,661.9l-6.3,3.9l-2.5,-8.4Z" class="gd_273"/>
<path d="M451.3,625.1c14.7,-1,26.4,-6.8,28.8,-14.1m-.5,-7.1c-3.5,-7,-15.3,-12.2,-29.7,-12.9m-7.3,.1c-14.7,1,-26.3,6.8,-28.8,14.1m.6,7.1c3.4,7,15.2,12.2,29.6,12.9" class="ga_273"/>
<path d="M480.5,609.6c.1,-.5,.1,-1,.1,-1.5c0,-.5,0,-1,-.1,-1.5M448.4,591c-.5,0,-.9,0,-1.4,0c-.5,0,-1,0,-1.5,0m-32,15.6c-.1,.5,-.2,1,-.2,1.5c0,.5,.1,1,.2,1.5m32,15.6c.5,0,1,0,1.5,0c.5,0,.9,0,1.4,0" class="gc_273"/>
<image clip-path="url(#c5_273)" x="211" y="443" width="5" height="9" xlink:href="shade/1.png"/>
<image clip-path="url(#c6_273)" x="210" y="417" width="25" height="28" xlink:href="shade/2.png"/>
<image clip-path="url(#c7_273)" x="210" y="419" width="23" height="33" xlink:href="shade/3.png"/>
<image clip-path="url(#c8_273)" x="215" y="415" width="20" height="10" xlink:href="shade/4.png"/>
<image clip-path="url(#c9_273)" preserveAspectRatio="none" x="733" y="551" width="201" height="259" xlink:href="img/6.png"/>
<path d="M737.8,568.5l13.7,235.7l176.8,-12L913.9,554.9Z" class="g7_273"/>
<image clip-path="url(#ca_273)" preserveAspectRatio="none" x="738" y="557" width="189" height="250" xlink:href="img/7.png"/>
<image clip-path="url(#cb_273)" preserveAspectRatio="none" x="738" y="557" width="189" height="250" xlink:href="img/8.png"/>
<path d="M742.9,564.5L747,800.1l150.4,-2.3l23.8,-28.2L917.5,561.5Z" class="g8_273"/>
<path d="M897.8,798.2l23.5,-28.9l-14,-4.5Z" class="g9_273"/>
<path d="M658.7,766.9c27.7,-.6,50.2,-6.6,54.6,-14.5m-.9,-6.9c-6,-7.4,-28.3,-12.9,-55.2,-13.3m-7.4,0c-27.8,.6,-50.2,6.7,-54.7,14.5m.9,6.9c6,7.4,28.3,13,55.2,13.4" class="ga_273"/>
<path d="M713.8,751c.2,-.4,.3,-.9,.3,-1.4c0,-.5,-.1,-1,-.3,-1.5M655.7,732.2c-.5,0,-1,0,-1.5,0c-.5,0,-1,0,-1.5,0m-58.1,15.9c-.2,.5,-.2,1,-.2,1.5c0,.5,0,1,.2,1.4m58.1,16c.5,0,1,0,1.5,0c.5,0,1,0,1.5,0" class="gc_273"/>
<path d="M653.1,770.9c6.8,7.7,23.7,24.8,40.8,25.6" class="gb_273"/>
<path d="M699.6,793.4c.7,-1.8,-.1,-4,-6,-5.7" class="ga_273"/>
<path d="M692.3,795.4c5,3.8,16.6,9.6,40.7,9.6m7.7,-.2c8,-.4,25.4,-2,40,-8.5" class="gb_273"/>
<path d="M650.1,767.2c0,0,.3,.5,1,1.3m44.4,28c.5,0,1,0,1.6,-.1c0,0,.4,-.3,1,-.8m-5.8,-8.2c-.4,-.1,-.8,-.2,-1.3,-.3c0,0,-.6,.2,-1.3,.8m-1.2,2.7c.1,.4,.2,.9,.4,1.5c0,0,.3,.4,1,1.2M734.5,805c.6,-.1,1.1,-.1,1.6,-.1c0,0,.5,0,1.5,0M782,795.7c.5,-.2,1,-.4,1.4,-.6" class="gc_273"/>
<path d="M775.8,794.9l6.2,4.2l3.6,-9Z" class="gd_273"/>
<image clip-path="url(#cc_273)" x="828" y="562" width="6" height="10" xlink:href="shade/5.png"/>
<image clip-path="url(#cd_273)" x="828" y="536" width="24" height="28" xlink:href="shade/6.png"/>
<image clip-path="url(#ce_273)" x="828" y="538" width="23" height="34" xlink:href="shade/7.png"/>
<image clip-path="url(#cf_273)" x="833" y="534" width="20" height="10" xlink:href="shade/8.png"/>
<path d="M153.3,111.9v39L165,161.2V117Z" class="ge_273"/>
<path d="M153.3,111.9v39H851.1c0,0,16.8,0,16.8,-16.8v-5.3c0,0,0,-16.9,-16.8,-16.9Z" class="g3_273"/>
<path d="M802.6,145.6c8.2,0,14.9,-6.5,14.9,-14.5c0,-8.1,-6.7,-14.5,-14.9,-14.5c-8.2,0,-14.9,6.4,-14.9,14.5c0,8,6.7,14.5,14.9,14.5Z" class="gf_273"/>
<path d="M802.6,145.6c8.2,0,14.9,-6.5,14.9,-14.5c0,-8.1,-6.7,-14.5,-14.9,-14.5c-8.2,0,-14.9,6.4,-14.9,14.5c0,8,6.7,14.5,14.9,14.5Z" class="gg_273"/>
<path d="M802.6,136.4c3,0,5.5,-2.4,5.5,-5.3c0,-3,-2.5,-5.4,-5.5,-5.4c-3,0,-5.5,2.4,-5.5,5.4c0,2.9,2.5,5.3,5.5,5.3Z" class="g1_273"/>
<path d="M802.6,136.4c3,0,5.5,-2.4,5.5,-5.3c0,-3,-2.5,-5.4,-5.5,-5.4c-3,0,-5.5,2.4,-5.5,5.4c0,2.9,2.5,5.3,5.5,5.3Z" class="gh_273"/>
<g clip-path="url(#cg_273)" opacity="0.3">
<path d="M788,130.3c0,0,0,-4.8,3.7,-8.7l7.7,6.8c0,0,-1,.9,-1,2.6Z" class="g1_273"/>
</g>
<path d="M807.2,131c0,0,-3.5,0,-3.5,3.4v8.7c0,0,0,3.5,3.5,3.5h43.5c0,0,3.5,0,3.5,-3.5v-8.7c0,0,0,-3.4,-3.5,-3.4Z" class="gi_273"/>
<path d="M191.2,122c0,-8.3,-6.8,-15,-15.1,-15c-8.3,0,-15,6.7,-15,15c0,8.3,6.7,15.1,15,15.1c.8,0,1.7,-.1,2.4,-.2l4.5,5.2v-6.7c4.9,-2.5,8.2,-7.6,8.2,-13.4Z" class="g1_273"/>
<path d="M183.5,143.3l-5.1,-5.9c-.8,.1,-1.5,.1,-2.3,.1c-8.5,0,-15.5,-6.9,-15.5,-15.5c0,-8.5,7,-15.5,15.5,-15.5c8.6,0,15.5,7,15.5,15.5c0,5.7,-3.1,11,-8.1,13.7Zm-4.8,-6.9l3.9,4.5v-5.8l.2,-.1c4.9,-2.5,7.9,-7.5,7.9,-13c0,-8,-6.5,-14.6,-14.6,-14.6c-8,0,-14.6,6.6,-14.6,14.6c0,8.1,6.6,14.6,14.6,14.6c.8,0,1.6,-.1,2.4,-.2Z" class="gj_273"/>
<path d="M169.1,121.6c.8,0,1.4,.6,1.4,1.4c0,.8,-.6,1.5,-1.4,1.5c-.8,0,-1.4,-.7,-1.4,-1.5c0,-.8,.6,-1.4,1.4,-1.4Z" class="gk_273"/>
<path d="M169.1,124.9c-1,0,-1.9,-.8,-1.9,-1.9c0,-1,.9,-1.9,1.9,-1.9c1,0,1.9,.9,1.9,1.9c0,1.1,-.9,1.9,-1.9,1.9m0,-2.9c-.5,0,-1,.5,-1,1c0,.6,.5,1,1,1c.5,0,1,-.4,1,-1c0,-.5,-.5,-1,-1,-1Z" class="gj_273"/>
<path d="M176.1,121.6c.8,0,1.5,.6,1.5,1.4c0,.8,-.7,1.5,-1.5,1.5c-.8,0,-1.4,-.7,-1.4,-1.5c0,-.8,.6,-1.4,1.4,-1.4Z" class="gk_273"/>
<path d="M176.1,124.9c-1,0,-1.9,-.8,-1.9,-1.9c0,-1,.9,-1.9,1.9,-1.9c1.1,0,1.9,.9,1.9,1.9c0,1.1,-.8,1.9,-1.9,1.9m0,-2.9c-.5,0,-1,.5,-1,1c0,.6,.5,1,1,1c.6,0,1,-.4,1,-1c0,-.5,-.4,-1,-1,-1Z" class="gj_273"/>
<path d="M183.1,121.6c.8,0,1.5,.6,1.5,1.4c0,.8,-.7,1.5,-1.5,1.5c-.8,0,-1.4,-.7,-1.4,-1.5c0,-.8,.6,-1.4,1.4,-1.4Z" class="gk_273"/>
<path d="M183.1,124.9c-1,0,-1.9,-.8,-1.9,-1.9c0,-1,.9,-1.9,1.9,-1.9c1.1,0,1.9,.9,1.9,1.9c0,1.1,-.8,1.9,-1.9,1.9m0,-2.9c-.5,0,-1,.5,-1,1c0,.6,.5,1,1,1c.6,0,1,-.4,1,-1c0,-.5,-.4,-1,-1,-1Z" class="gj_273"/>
<path d="M185.1,136.3c0,-9.8,7.8,-17.7,17.6,-17.7c9.7,0,17.6,7.9,17.6,17.7c0,9.7,-7.9,17.6,-17.6,17.6c-1,0,-1.9,-.1,-2.9,-.3l-5.2,6.1v-7.8c-5.7,-2.9,-9.5,-8.8,-9.5,-15.6Z" class="gl_273"/>
<path d="M194.6,160.2q-.1,0,-.2,0c-.2,-.1,-.3,-.3,-.3,-.5v-7.5c-5.9,-3.2,-9.5,-9.2,-9.5,-15.9c0,-10,8.1,-18.1,18.1,-18.1c9.9,0,18,8.1,18,18.1c0,9.9,-8.1,18,-18,18c-.9,0,-1.8,0,-2.7,-.2l-5.1,5.9c-.1,.1,-.2,.2,-.3,.2m8.1,-41.1c-9.5,0,-17.2,7.7,-17.2,17.2c0,6.4,3.6,12.2,9.3,15.2c.1,.1,.2,.2,.2,.4v6.6l4.5,-5.2c.1,-.1,.3,-.1,.4,-.1c1,.1,1.9,.2,2.8,.2c9.4,0,17.1,-7.7,17.1,-17.1c0,-9.5,-7.7,-17.2,-17.1,-17.2Z" class="gj_273"/>
<path d="M210.9,135.8c.9,0,1.6,.7,1.6,1.6c0,1,-.7,1.7,-1.6,1.7c-1,0,-1.7,-.7,-1.7,-1.7c0,-.9,.7,-1.6,1.7,-1.6Z" class="g1_273"/>
<path d="M210.9,139.6c-1.2,0,-2.2,-1,-2.2,-2.2c0,-1.1,1,-2.1,2.2,-2.1c1.1,0,2.1,1,2.1,2.1c0,1.2,-1,2.2,-2.1,2.2m0,-3.4c-.7,0,-1.3,.6,-1.3,1.2c0,.7,.6,1.3,1.3,1.3c.6,0,1.2,-.6,1.2,-1.3c0,-.6,-.6,-1.2,-1.2,-1.2Z" class="gj_273"/>
<path d="M202.7,135.8c.9,0,1.6,.7,1.6,1.6c0,1,-.7,1.7,-1.6,1.7c-1,0,-1.7,-.7,-1.7,-1.7c0,-.9,.7,-1.6,1.7,-1.6Z" class="g1_273"/>
<path d="M202.7,139.6c-1.2,0,-2.2,-1,-2.2,-2.2c0,-1.1,1,-2.1,2.2,-2.1c1.1,0,2.1,1,2.1,2.1c0,1.2,-1,2.2,-2.1,2.2m0,-3.4c-.7,0,-1.3,.6,-1.3,1.2c0,.7,.6,1.3,1.3,1.3c.6,0,1.2,-.6,1.2,-1.3c0,-.6,-.6,-1.2,-1.2,-1.2Z" class="gj_273"/>
<path d="M194.5,135.8c.9,0,1.6,.7,1.6,1.6c0,1,-.7,1.7,-1.6,1.7c-1,0,-1.7,-.7,-1.7,-1.7c0,-.9,.7,-1.6,1.7,-1.6Z" class="g1_273"/>
<path d="M194.5,139.6c-1.2,0,-2.2,-1,-2.2,-2.2c0,-1.1,1,-2.1,2.2,-2.1c1.1,0,2.1,1,2.1,2.1c0,1.2,-1,2.2,-2.1,2.2m0,-3.4c-.7,0,-1.2,.6,-1.2,1.2c0,.7,.5,1.3,1.2,1.3c.6,0,1.2,-.6,1.2,-1.3c0,-.6,-.6,-1.2,-1.2,-1.2Z" class="gj_273"/>
<path d="M32.1,45.1H9.2m958.3,0h22.9M32.1,1331.3H9.2m958.3,0h22.9M45.1,32.1V9.2m0,1335.1v22.9M954.5,32.1V9.2m0,1335.1v22.9" class="gm_273"/>
<path d="M32.1,45.1H9.2m958.3,0h22.9M32.1,1331.3H9.2m958.3,0h22.9M45.1,32.1V9.2m0,1335.1v22.9M954.5,32.1V9.2m0,1335.1v22.9" class="gn_273"/>
<path d="M27.5,32.1H0m972.1,0h27.5M27.5,1344.3H0m972.1,0h27.5M32.1,27.5V0m0,1348.9v27.5M967.5,27.5V0m0,1348.9v27.5" class="gm_273"/>
<path d="M27.5,32.1H0m972.1,0h27.5M27.5,1344.3H0m972.1,0h27.5M32.1,27.5V0m0,1348.9v27.5M967.5,27.5V0m0,1348.9v27.5" class="gn_273"/>
</svg>