<?xml version="1.0" encoding="UTF-8" standalone="no"?>
<!DOCTYPE svg PUBLIC "-//W3C//DTD SVG 1.1//EN"
"http://www.w3.org/Graphics/SVG/1.1/DTD/svg11.dtd">
<svg viewBox="0 0 999 1376" version="1.1" xmlns="http://www.w3.org/2000/svg" xmlns:xlink="http://www.w3.org/1999/xlink">
<defs>
<clipPath id="c0_95"><path d="M32.1,1344.3V32.1H967.5V1344.3Z"/></clipPath>
<clipPath id="c1_95"><path d="M282.4,869.8V807h63.2v62.8Z"/></clipPath>
<clipPath id="c2_95"><path d="M241.7,1191.1V888.8h77.9v302.3Z"/></clipPath>
<clipPath id="c3_95"><path d="M208.1,712.2l-6.5,-2.1L185.2,696.2V639.1h72v73.1Z"/></clipPath>
<clipPath id="c4_95"><path d="M200.1,137.2c.1,-1.3,.7,-2.5,1.6,-3.4c1,-1,2.3,-1.6,3.9,-1.6h19.2v5Z"/></clipPath>
<clipPath id="c5_95"><path d="M199.5,137.7v-6h25.8v6Z"/></clipPath>
<style type="text/css"><![CDATA[
.g0_95{
fill: #FEFCF4;
}
.g1_95{
fill: #FFF;
}
.g2_95{
fill: none;
stroke: #27639D;
stroke-width: 0.763;
}
.g3_95{
fill: #48484A;
}
.g4_95{
fill: #E1E0ED;
}
.g5_95{
fill: #766FA6;
}
.g6_95{
fill: none;
stroke: #231F20;
stroke-width: 0.305;
stroke-miterlimit: 10;
}
.g7_95{
fill: #6381B7;
}
.g8_95{
fill: none;
stroke: #6381B7;
stroke-width: 0.381;
stroke-dasharray: 2,1;
}
.g9_95{
fill: none;
stroke: #6381B7;
stroke-width: 0.381;
}
.ga_95{
fill: #FCE8B0;
}
.gb_95{
fill: #25408F;
}
.gc_95{
fill: none;
stroke: #231F20;
stroke-width: 1.527;
}
.gd_95{
fill: #39B4D1;
stroke: #2D2A4A;
stroke-width: 1.038;
stroke-linecap: round;
stroke-linejoin: round;
}
.ge_95{
fill: #2D2A4A;
}
.gf_95{
fill: none;
stroke: #2D2A4A;
stroke-width: 1.038;
stroke-linecap: round;
stroke-linejoin: round;
}
.gg_95{
fill: #DEDAD3;
}
.gh_95{
fill: #29263F;
}
.gi_95{
fill: #E15F46;
stroke: #2D2A4A;
stroke-width: 1.038;
stroke-linecap: round;
stroke-linejoin: round;
}
.gj_95{
fill: #DCE9F3;
}
.gk_95{
fill: #FDF9EC;
}
.gl_95{
fill: none;
stroke: #F89C47;
stroke-width: 1.527;
stroke-linecap: round;
stroke-linejoin: round;
stroke-dasharray: 0,5;
}
.gm_95{
fill: none;
stroke: #F89C47;
stroke-width: 1.527;
stroke-linecap: round;
stroke-linejoin: round;
}
.gn_95{
fill: none;
stroke: #F89C47;
stroke-width: 7.638;
stroke-linecap: round;
stroke-linejoin: round;
}
.go_95{
fill: none;
stroke: #FFF;
stroke-width: 1.909;
stroke-miterlimit: 10;
}
.gp_95{
fill: none;
stroke: #000;
stroke-width: 0.381;
stroke-miterlimit: 10;
}
]]></style>
</defs>
<path clip-path="url(#c0_95)" d="M-877.3,1344.3H45.1V32.1H-877.3V1344.3Z" class="g0_95"/>
<path d="M166.7,730c0,0,-13,0,-13,13v441.6c0,0,0,13,13,13H854.5c0,0,13,0,13,-13V743c0,0,0,-13,-13,-13Z" class="g1_95"/>
<path d="M166.7,730c0,0,-13,0,-13,13v441.6c0,0,0,13,13,13H854.5c0,0,13,0,13,-13V743c0,0,0,-13,-13,-13H166.7Z" class="g2_95"/>
<path d="M186.9,810.3c0,0,-4.3,0,-4.3,4.4v14.7c0,0,0,4.3,4,5.8l50.7,18.5c0,0,4.1,1.5,4.1,-2.9V814.7c0,0,0,-4.4,-4.3,-4.4Z" class="g3_95"/>
<path d="M207.7,797.3c0,0,-13,0,-13,13v56.3c0,0,0,13,13,13H836.9c0,0,13,0,13,-13V810.3c0,0,0,-13,-13,-13Z" class="g4_95"/>
<path d="M186.9,808.2c0,0,-4.3,0,-4.3,4.3v17.3c0,0,0,4.3,4.3,4.3h35.9c0,0,4.4,0,4.4,-4.3V812.5c0,0,0,-4.3,-4.4,-4.3Z" class="g5_95"/>
<path d="M197.7,783.7H824.6V769.2H197.7v14.5Z" class="g1_95"/>
<path d="M384,860.3h94.4" class="g6_95"/>
<image clip-path="url(#c1_95)" preserveAspectRatio="none" x="281" y="805" width="66" height="66" xlink:href="img/1.jpg"/>
<path d="M241.7,1191.1h77.9V888.8H241.7v302.3Z" class="g1_95"/>
<image clip-path="url(#c2_95)" preserveAspectRatio="none" x="240" y="887" width="81" height="306" xlink:href="img/2.png"/>
<path d="M364.7,946.6H614m-249.3,75.7H614m-249.3,75.6H614m-249.3,75.6H614" class="g6_95"/>
<path d="M329.8,1214.8c0,0,-4.4,0,-4.4,4.4V1230c0,0,0,4.3,4.4,4.3h30.3c0,0,4.3,0,4.3,-4.3v-10.8c0,0,0,-4.4,-4.3,-4.4Z" class="g7_95"/>
<path d="M316.6,1206v37.5m1.3,1H866.8m.9,-1.3v-37.6m-1.3,-1H317.5" class="g8_95"/>
<path d="M316.6,1243.9v.6h.6m549.9,0h.6v-.6m0,-38.7v-.6h-.6m-549.9,0h-.6v.6" class="g9_95"/>
<path d="M247.8,1061.8h60.7v-18.5H247.8v18.5Z" class="g1_95"/>
<path d="M245.7,1140.6h64.9v-18.5H245.7v18.5Z" class="g1_95"/>
<path d="M240.7,667.2c0,0,-13,0,-13,13v21.7c0,0,0,13,13,13H854.2c0,0,12.9,0,12.9,-13V680.2c0,0,0,-13,-12.9,-13Z" class="ga_95"/>
<image clip-path="url(#c3_95)" preserveAspectRatio="none" x="184" y="637" width="75" height="77" xlink:href="img/3.png"/>
<path d="M235.5,707.5c0,0,-26.8,11.3,-51.1,-12.8c0,0,15.2,25.4,49.3,24c0,0,24.8,.3,20.3,-10.1c0,0,1.2,-4.5,-18.5,-1.1Z" class="ga_95"/>
<path d="M153.3,109.5v39L165,158.7V136.5Z" class="gb_95"/>
<path d="M153.3,109.5v39H851.1c0,0,16.8,0,16.8,-16.8v-5.4c0,0,0,-16.8,-16.8,-16.8Z" class="g7_95"/>
<path d="M790.4,131c0,0,-.5,-10,8.6,-9.4c0,0,6.8,-.3,6.7,9.5m-15.3,-1.5v6.5c0,0,-3.4,.3,-3.9,-3c0,0,-.1,-3.8,3.9,-3.5Zm15.3,0v6.5c0,0,3.4,.3,4,-3c0,0,0,-3.8,-4,-3.5Z" class="gc_95"/>
<path d="M169,140.8h61v-32H169v32Z" class="gd_95"/>
<path d="M169,143.1h61v-2.3H169v2.3Z" class="gd_95"/>
<path d="M193.5,106.2H173.8v31.5h25.7V112.3c0,-3.4,-2.7,-6.1,-6,-6.1Z" class="g1_95"/>
<path d="M193.5,106.2v-.5H173.8c-.2,0,-.3,.1,-.4,.2c-.1,.1,-.2,.2,-.2,.3v31.5c0,.1,.1,.3,.2,.4c.1,.1,.2,.1,.4,.1h25.7c.2,0,.3,0,.4,-.1c.1,-.1,.1,-.3,.1,-.4V112.3c0,-3.7,-2.9,-6.6,-6.5,-6.6v1c1.5,0,2.9,.7,3.9,1.7c1,1,1.6,2.3,1.6,3.9v24.9H174.3V106.7h19.2Z" class="ge_95"/>
<path d="M173.8,131.7v6h25.7c0,-3.3,-2.7,-6,-6,-6Z" class="g1_95"/>
<path d="M173.8,131.7h-.6v6c0,.1,.1,.3,.2,.4c.1,.1,.2,.1,.4,.1h25.7c.2,0,.3,0,.4,-.1c.1,-.1,.1,-.3,.1,-.4c0,-3.6,-2.9,-6.6,-6.5,-6.6H173.8c-.2,0,-.3,.1,-.4,.2c-.1,.1,-.2,.2,-.2,.4h.6v.5h19.7c1.5,0,2.9,.6,3.9,1.6c1,1,1.6,2.4,1.6,3.9h.5v-.5H174.3v-5.5h-.5v.5Z" class="ge_95"/>
<path d="M177.3,110.9h17.2m-17.2,2.8h17.2m-17.2,2.9h17.2m-17.2,2.9h17.2m-17.2,2.8h17.2m-17.2,2.9h17.2M177.3,128h17.2" class="gf_95"/>
<path d="M193.5,132.2H174.3v5H199c-.1,-1.3,-.7,-2.5,-1.6,-3.4c-1,-1,-2.4,-1.6,-3.9,-1.6Z" class="gg_95"/>
<path d="M174.3,132.2h19.2c1.5,0,2.9,.6,3.9,1.6c.9,.9,1.5,2.1,1.6,3.4H174.3Zm19.2,-.5H173.8v6H199v-2.5c-.9,-2.1,-3.1,-3.5,-5.5,-3.5Z" class="gh_95"/>
<path d="M205.6,106.2h19.7v31.5H199.5V112.3c0,-3.4,2.7,-6.1,6.1,-6.1Z" class="g1_95"/>
<path d="M205.6,106.2v.5h19.2v30.5H200V112.3c0,-1.6,.7,-2.9,1.7,-3.9c1,-1,2.3,-1.7,3.9,-1.7v-1c-3.7,0,-6.6,2.9,-6.6,6.6v25.4c0,.1,.1,.3,.2,.4c0,.1,.2,.1,.3,.1h25.8c.1,0,.2,0,.3,-.1c.1,-.1,.2,-.3,.2,-.4V106.2c0,-.1,-.1,-.2,-.2,-.3c-.1,-.1,-.2,-.2,-.3,-.2H205.6Z" class="ge_95"/>
<path d="M225.3,131.7v6H199.5c0,-3.3,2.7,-6,6.1,-6Z" class="g1_95"/>
<path d="M225.3,131.7h-.5v5.5H199.5v.5h.5c0,-1.5,.7,-2.9,1.7,-3.9c1,-1,2.3,-1.6,3.9,-1.6h19.7v-.5h-.5h.5v-.6H205.6c-3.7,0,-6.6,3,-6.6,6.6c0,.1,.1,.3,.2,.4c0,.1,.2,.1,.3,.1h25.8c.1,0,.2,0,.3,-.1c.1,-.1,.2,-.3,.2,-.4v-6c0,-.2,-.1,-.3,-.2,-.4c-.1,-.1,-.2,-.2,-.3,-.2Z" class="ge_95"/>
<path d="M221.8,110.9H204.6m17.2,2.8H204.6m17.2,2.9H204.6m17.2,2.9H204.6m17.2,2.8H204.6m17.2,2.9H204.6m17.2,2.8H204.6" class="gf_95"/>
<path clip-path="url(#c4_95)" d="M200.1,137.2h24.7v-5H200.1v5Z" class="gg_95"/>
<path clip-path="url(#c5_95)" d="M200.1,137.2c.1,-1.3,.7,-2.5,1.6,-3.4c1,-1,2.3,-1.6,3.9,-1.6h19.2v5Zm25.2,-5.5H205.6c-3.4,0,-6.1,2.7,-6.1,6h25.8v-6h-.5h.5Z" class="gh_95"/>
<path d="M199.5,108.8v34.3" class="gf_95"/>
<path d="M217.2,145.5h3.3V134.7h-3.3v10.8Z" class="gi_95"/>
<path d="M170.7,166.3c0,0,-17.4,0,-17.4,17.4V368.6c0,0,0,17.4,17.4,17.4H850.6c0,0,17.3,0,17.3,-17.4V183.7c0,0,0,-17.4,-17.3,-17.4Z" class="gj_95"/>
<path d="M171.4,393.3c0,0,-17.3,0,-17.3,17.3V577.4c0,0,0,17.3,17.3,17.3H849.8c0,0,17.3,0,17.3,-17.3V410.6c0,0,0,-17.3,-17.3,-17.3Z" class="gk_95"/>
<path d="M166.9,393.9c-4.8,1.2,-11.7,4.7,-12.7,14.4m-.1,7V575.1m.7,6.8c1.2,4.8,4.6,11.8,14.3,12.7m6.9,.1H847.5m6.8,-.6c4.8,-1.2,11.8,-4.6,12.7,-14.4m.1,-6.9V412.9m-.6,-6.8c-1.2,-4.8,-4.6,-11.8,-14.4,-12.7m-6.9,-.1H173.7" class="gl_95"/>
<path d="M154.1,410.6v0m0,166.8v0m17.3,17.3v0m678.4,0v0m17.4,-17.3v0m0,-166.8v0M849.8,393.3v0m-678.4,0v0" class="gm_95"/>
<path d="M188,381.1v18.3m12.6,-18.3v18.3M820.3,381.1v18.3m12.6,-18.3v18.3" class="gn_95"/>
<path d="M32.1,45.1H9.2m958.3,0h22.9M32.1,1331.3H9.2m958.3,0h22.9M45.1,32.1V9.2m0,1335.1v22.9M954.5,32.1V9.2m0,1335.1v22.9" class="go_95"/>
<path d="M32.1,45.1H9.2m958.3,0h22.9M32.1,1331.3H9.2m958.3,0h22.9M45.1,32.1V9.2m0,1335.1v22.9M954.5,32.1V9.2m0,1335.1v22.9" class="gp_95"/>
<path d="M27.5,32.1H0m972.1,0h27.5M27.5,1344.3H0m972.1,0h27.5M32.1,27.5V0m0,1348.9v27.5M967.5,27.5V0m0,1348.9v27.5" class="go_95"/>
<path d="M27.5,32.1H0m972.1,0h27.5M27.5,1344.3H0m972.1,0h27.5M32.1,27.5V0m0,1348.9v27.5M967.5,27.5V0m0,1348.9v27.5" class="gp_95"/>
</svg>