<?xml version="1.0" encoding="UTF-8" standalone="no"?>
<!DOCTYPE svg PUBLIC "-//W3C//DTD SVG 1.1//EN"
"http://www.w3.org/Graphics/SVG/1.1/DTD/svg11.dtd">
<svg viewBox="0 0 999 1376" version="1.1" xmlns="http://www.w3.org/2000/svg" xmlns:xlink="http://www.w3.org/1999/xlink">
<defs>
<clipPath id="c0_92"><path d="M32.1,1344.3V32.1H967.5V1344.3Z"/></clipPath>
<clipPath id="c1_92"><path d="M209.1,784.4V719.5H309.2v64.9Z"/></clipPath>
<clipPath id="c2_92"><path d="M219.4,880.8v-65h69.3v65Z"/></clipPath>
<clipPath id="c3_92"><path d="M562.6,784.4V719.5h55.2v64.9Z"/></clipPath>
<clipPath id="c4_92"><path d="M556.6,880.8v-65h64.5v65Z"/></clipPath>
<clipPath id="c5_92"><path d="M266.5,689.6V624.1H332v65.5Z"/></clipPath>
<clipPath id="c6_92"><path d="M191,1164.2v-77.7h83.1v77.7Z"/></clipPath>
<clipPath id="c7_92"><path d="M521.5,1164.2v-77.7h83.3v77.7Z"/></clipPath>
<clipPath id="c8_92"><path d="M176.6,529.3l-6.5,-2.2L153.7,513.2V456.1h72v73.2Z"/></clipPath>
<clipPath id="c9_92"><path d="M176.6,1070.5l-6.5,-2.2l-16.4,-13.9V997.3h72v73.2Z"/></clipPath>
<clipPath id="ca_92"><path d="M178.4,137.2c.1,-1.3,.7,-2.5,1.6,-3.4c1,-1,2.4,-1.6,3.9,-1.6h19.2v5Z"/></clipPath>
<clipPath id="cb_92"><path d="M177.9,137.7v-6h25.7v6Z"/></clipPath>
<style type="text/css"><![CDATA[
.g0_92{
fill: #FEFCF4;
}
.g1_92{
fill: #FFF;
}
.g2_92{
fill: none;
stroke: #6381B7;
stroke-width: 0.763;
}
.g3_92{
fill: none;
stroke: #231F20;
stroke-width: 0.305;
stroke-miterlimit: 10;
}
.g4_92{
fill: #48484A;
}
.g5_92{
fill: #F0E8F3;
}
.g6_92{
fill: #766FA6;
}
.g7_92{
fill: #6381B7;
}
.g8_92{
fill: none;
stroke: #6381B7;
stroke-width: 0.381;
stroke-dasharray: 2,1;
}
.g9_92{
fill: none;
stroke: #6381B7;
stroke-width: 0.381;
}
.ga_92{
fill: none;
stroke: #949698;
stroke-width: 0.305;
}
.gb_92{
fill: #FCE8B0;
}
.gc_92{
fill: #25408F;
}
.gd_92{
fill: none;
stroke: #231F20;
stroke-width: 1.527;
}
.ge_92{
fill: #39B4D1;
stroke: #2D2A4A;
stroke-width: 1.038;
stroke-linecap: round;
stroke-linejoin: round;
}
.gf_92{
fill: #2D2A4A;
}
.gg_92{
fill: none;
stroke: #2D2A4A;
stroke-width: 1.038;
stroke-linecap: round;
stroke-linejoin: round;
}
.gh_92{
fill: #DEDAD3;
}
.gi_92{
fill: #29263F;
}
.gj_92{
fill: #E15F46;
stroke: #2D2A4A;
stroke-width: 1.038;
stroke-linecap: round;
stroke-linejoin: round;
}
.gk_92{
fill: #DCE9F3;
}
.gl_92{
fill: #8FD5E3;
}
.gm_92{
fill: none;
stroke: #58595B;
stroke-width: 0.381;
stroke-miterlimit: 10;
}
.gn_92{
fill: none;
stroke: #FFF;
stroke-width: 1.909;
stroke-miterlimit: 10;
}
.go_92{
fill: none;
stroke: #000;
stroke-width: 0.381;
stroke-miterlimit: 10;
}
]]></style>
</defs>
<path clip-path="url(#c0_92)" d="M954.5,1344.3H1877V32.1H954.5V1344.3Z" class="g0_92"/>
<path d="M145.1,543.3c0,0,-13,0,-13,13V908.2c0,0,0,13,13,13H832.9c0,0,13,0,13,-13V556.3c0,0,0,-13,-13,-13Z" class="g1_92"/>
<path d="M145.1,543.3c0,0,-13,0,-13,13V908.2c0,0,0,13,13,13H832.9c0,0,13,0,13,-13V556.3c0,0,0,-13,-13,-13H145.1Z" class="g2_92"/>
<path d="M209.1,784.4H309.2V719.5H209.1v64.9Z" class="g1_92"/>
<image clip-path="url(#c1_92)" preserveAspectRatio="none" x="207" y="718" width="104" height="68" xlink:href="img/1.png"/>
<path d="M219.4,880.8h69.3v-65H219.4v65Z" class="g1_92"/>
<image clip-path="url(#c2_92)" preserveAspectRatio="none" x="218" y="814" width="72" height="69" xlink:href="img/2.png"/>
<path d="M562.6,784.4h55.2V719.5H562.6v64.9Z" class="g1_92"/>
<image clip-path="url(#c3_92)" preserveAspectRatio="none" x="561" y="718" width="59" height="68" xlink:href="img/3.png"/>
<path d="M556.6,880.8h64.5v-65H556.6v65Z" class="g1_92"/>
<image clip-path="url(#c4_92)" preserveAspectRatio="none" x="555" y="814" width="68" height="68" xlink:href="img/4.png"/>
<path d="M348.5,764.9H481.7M348.5,863.6H481.7M681.9,764.9H815.2M681.9,863.6H815.2" class="g3_92"/>
<path d="M165.2,638c0,0,-4.3,0,-4.3,4.3v14.8c0,0,0,4.3,4.1,5.8l50.7,18.5c0,0,4,1.5,4,-2.9V642.3c0,0,0,-4.3,-4.3,-4.3Z" class="g4_92"/>
<path d="M188,618.2c0,0,-13,0,-13,13v64.9c0,0,0,13,13,13H805.8c0,0,13,0,13,-13V631.2c0,0,0,-13,-13,-13Z" class="g5_92"/>
<path d="M385.7,685.6h41.7" class="g3_92"/>
<path d="M266.5,689.6H332V624.1H266.5v65.5Z" class="g1_92"/>
<image clip-path="url(#c5_92)" preserveAspectRatio="none" x="265" y="622" width="69" height="69" xlink:href="img/5.jpg"/>
<path d="M165.2,635.8c0,0,-4.3,0,-4.3,4.4v17.3c0,0,0,4.3,4.3,4.3h36c0,0,4.3,0,4.3,-4.3V640.2c0,0,0,-4.4,-4.3,-4.4Z" class="g6_92"/>
<path d="M457.1,940.3c0,0,-4.3,0,-4.3,4.3v10.9c0,0,0,4.3,4.3,4.3h30.3c0,0,4.3,0,4.3,-4.3V944.6c0,0,0,-4.3,-4.3,-4.3Z" class="g7_92"/>
<path d="M443.9,931.5V969m1.3,1H845.1m1,-1.4V931.1m-1.4,-1H444.9" class="g8_92"/>
<path d="M443.9,969.4v.6h.6m401,0h.6v-.6m0,-38.7v-.6h-.6m-401,0h-.6v.6" class="g9_92"/>
<path d="M145.1,988.3c0,0,-13,0,-13,12.9v162.7c0,0,0,13,13,13H832.9c0,0,13,0,13,-13V1001.2c0,0,0,-12.9,-13,-12.9H145.1Z" class="g2_92"/>
<path d="M310.1,1138.3H443.3" class="g3_92"/>
<path d="M191,1164.2h87v-77.7H191v77.7Z" class="g1_92"/>
<image clip-path="url(#c6_92)" preserveAspectRatio="none" x="190" y="1085" width="84" height="81" xlink:href="img/6.jpg"/>
<path d="M191,1164.2h87v-77.7H191v77.7Z" class="ga_92"/>
<path d="M637.8,1138.3H771" class="g3_92"/>
<path d="M518.7,1164.2h87v-77.7h-87v77.7Z" class="g1_92"/>
<image clip-path="url(#c7_92)" preserveAspectRatio="none" x="521" y="1085" width="84" height="81" xlink:href="img/7.jpg"/>
<path d="M518.7,1164.2h87v-77.7h-87v77.7Z" class="ga_92"/>
<path d="M657.2,1196.3c0,0,-4.3,0,-4.3,4.4v10.8c0,0,0,4.3,4.3,4.3h30.3c0,0,4.4,0,4.4,-4.3v-10.8c0,0,0,-4.4,-4.4,-4.4Z" class="g7_92"/>
<path d="M644,1187.5V1225m1.4,1H844m.9,-1.3v-37.6m-1.3,-.9H645" class="g8_92"/>
<path d="M644,1225.4v.6h.6m199.8,0h.5v-.6m0,-38.7v-.5h-.5m-199.8,0H644v.5" class="g9_92"/>
<path d="M209.2,484.3c0,0,-13,0,-13,13v21.6c0,0,0,13,13,13H833.3c0,0,13,0,13,-13V497.3c0,0,0,-13,-13,-13Z" class="gb_92"/>
<image clip-path="url(#c8_92)" preserveAspectRatio="none" x="152" y="455" width="75" height="76" xlink:href="img/8.png"/>
<path d="M204,524.5c0,0,-26.8,11.3,-51.1,-12.7c0,0,15.2,25.3,49.3,24c0,0,24.8,.3,20.3,-10.2c0,0,1.2,-4.4,-18.5,-1.1Z" class="gb_92"/>
<path d="M209.2,1025.5c0,0,-13,0,-13,13v21.6c0,0,0,13,13,13h602c0,0,13,0,13,-13v-21.6c0,0,0,-13,-13,-13Z" class="gb_92"/>
<image clip-path="url(#c9_92)" preserveAspectRatio="none" x="152" y="996" width="75" height="76" xlink:href="img/9.png"/>
<path d="M204,1065.7c0,0,-26.8,11.3,-51.1,-12.7c0,0,15.2,25.3,49.3,23.9c0,0,24.8,.4,20.3,-10.1c0,0,1.2,-4.4,-18.5,-1.1Z" class="gb_92"/>
<path d="M131.7,109.5v39l11.7,10.2V136.5Z" class="gc_92"/>
<path d="M131.7,109.5v39H829.5c0,0,16.8,0,16.8,-16.8v-5.4c0,0,0,-16.8,-16.8,-16.8Z" class="g7_92"/>
<path d="M768.8,131c0,0,-.5,-10,8.6,-9.4c0,0,6.7,-.3,6.6,9.5m-15.3,-1.5v6.5c0,0,-3.3,.3,-3.9,-3c0,0,-.1,-3.8,3.9,-3.5Zm15.4,0v6.5c0,0,3.3,.3,3.9,-3c0,0,.1,-3.8,-3.9,-3.5Z" class="gd_92"/>
<path d="M147.4,140.8h61v-32h-61v32Z" class="ge_92"/>
<path d="M147.4,143.1h61v-2.3h-61v2.3Z" class="ge_92"/>
<path d="M171.8,106.2H152.1v31.5h25.8V112.3c0,-3.4,-2.7,-6.1,-6.1,-6.1Z" class="g1_92"/>
<path d="M171.8,106.2v-.5H152.1c-.1,0,-.3,.1,-.4,.2c-.1,.1,-.1,.2,-.1,.3v31.5c0,.1,0,.3,.1,.4c.1,.1,.3,.1,.4,.1h25.8c.1,0,.2,0,.3,-.1c.1,-.1,.2,-.3,.2,-.4V112.3c0,-3.7,-2.9,-6.6,-6.6,-6.6v1c1.6,0,2.9,.7,3.9,1.7c1,1,1.6,2.3,1.6,3.9v24.9H152.6V106.7h19.2Z" class="gf_92"/>
<path d="M152.1,131.7v6h25.8c0,-3.3,-2.7,-6,-6.1,-6Z" class="g1_92"/>
<path d="M152.1,131.7h-.5v6c0,.1,0,.3,.1,.4c.1,.1,.3,.1,.4,.1h25.8c.1,0,.2,0,.3,-.1c.1,-.1,.2,-.3,.2,-.4c0,-3.6,-3,-6.6,-6.6,-6.6H152.1c-.1,0,-.3,.1,-.4,.2c-.1,.1,-.1,.2,-.1,.4h.5v.5h19.7c1.6,0,2.9,.6,3.9,1.6c1,1,1.6,2.4,1.6,3.9h.6v-.5H152.6v-5.5h-.5v.5Z" class="gf_92"/>
<path d="M155.6,110.9h17.2m-17.2,2.8h17.2m-17.2,2.9h17.2m-17.2,2.9h17.2m-17.2,2.8h17.2m-17.2,2.9h17.2M155.6,128h17.2" class="gg_92"/>
<path d="M171.8,132.2H152.6v5h24.7c-.1,-1.3,-.7,-2.5,-1.6,-3.4c-1,-1,-2.3,-1.6,-3.9,-1.6Z" class="gh_92"/>
<path d="M152.6,132.2h19.2c1.6,0,2.9,.6,3.9,1.6c.9,.9,1.5,2.1,1.6,3.4H152.6Zm19.2,-.5H152.1v6h25.2v-2.5c-.9,-2.1,-3,-3.5,-5.5,-3.5Z" class="gi_92"/>
<path d="M183.9,106.2h19.7v31.5H177.9V112.3c0,-3.4,2.7,-6.1,6,-6.1Z" class="g1_92"/>
<path d="M183.9,106.2v.5h19.2v30.5H178.4V112.3c0,-1.6,.6,-2.9,1.6,-3.9c1,-1,2.4,-1.7,3.9,-1.7v-1c-3.6,0,-6.6,2.9,-6.6,6.6v25.4c0,.1,.1,.3,.2,.4c.1,.1,.2,.1,.4,.1h25.7c.2,0,.3,0,.4,-.1c.1,-.1,.1,-.3,.1,-.4V106.2c0,-.1,0,-.2,-.1,-.3c-.1,-.1,-.2,-.2,-.4,-.2H183.9Z" class="gf_92"/>
<path d="M203.6,131.7v6H177.9c0,-3.3,2.7,-6,6,-6Z" class="g1_92"/>
<path d="M203.6,131.7h-.5v5.5H177.9v.5h.5c0,-1.5,.6,-2.9,1.6,-3.9c1,-1,2.4,-1.6,3.9,-1.6h19.7v-.5h-.5h.5v-.6H183.9c-3.6,0,-6.6,3,-6.6,6.6c0,.1,.1,.3,.2,.4c.1,.1,.2,.1,.4,.1h25.7c.2,0,.3,0,.4,-.1c.1,-.1,.1,-.3,.1,-.4v-6c0,-.2,0,-.3,-.1,-.4c-.1,-.1,-.2,-.2,-.4,-.2Z" class="gf_92"/>
<path d="M200.1,110.9H182.9m17.2,2.8H182.9m17.2,2.9H182.9m17.2,2.9H182.9m17.2,2.8H182.9m17.2,2.9H182.9m17.2,2.8H182.9" class="gg_92"/>
<path clip-path="url(#ca_92)" d="M178.4,137.2h24.7v-5H178.4v5Z" class="gh_92"/>
<path clip-path="url(#cb_92)" d="M178.4,137.2c.1,-1.3,.7,-2.5,1.6,-3.4c1,-1,2.4,-1.6,3.9,-1.6h19.2v5Zm25.2,-5.5H183.9c-3.3,0,-6,2.7,-6,6h25.7v-6h-.5h.5Z" class="gi_92"/>
<path d="M177.9,108.8v34.3" class="gg_92"/>
<path d="M195.5,145.5h3.3V134.7h-3.3v10.8Z" class="gj_92"/>
<path d="M149,166.3c0,0,-17.3,0,-17.3,17.4V418.2c0,0,0,17.3,17.3,17.3H828.9c0,0,17.4,0,17.4,-17.3V183.7c0,0,0,-17.4,-17.4,-17.4Z" class="gk_92"/>
<path d="M229.1,238H402.3v25.9H229.1V238Zm173.2,0H575.6v25.9H402.3V238Zm173.3,0H748.8v25.9H575.6V238Z" class="gl_92"/>
<path d="M229.1,263.9H402.3v52H229.1v-52Zm173.2,0H575.6v52H402.3v-52Zm173.3,0H748.8v52H575.6v-52Z" class="g1_92"/>
<path d="M229.1,238H402.3m0,0H575.6M402.3,263.7V238.1M575.6,238H748.8M575.6,263.7V238.1M229.1,263.9H402.3m0,0H575.6M402.3,315.7V264.1m173.3,-.2H748.8M575.6,315.7V264.1M229.1,315.9H402.3m0,0H575.6m0,0H748.8" class="gm_92"/>
<path d="M32.1,45.1H9.2m958.3,0h22.9M32.1,1331.3H9.2m958.3,0h22.9M45.1,32.1V9.2m0,1335.1v22.9M954.5,32.1V9.2m0,1335.1v22.9" class="gn_92"/>
<path d="M32.1,45.1H9.2m958.3,0h22.9M32.1,1331.3H9.2m958.3,0h22.9M45.1,32.1V9.2m0,1335.1v22.9M954.5,32.1V9.2m0,1335.1v22.9" class="go_92"/>
<path d="M27.5,32.1H0m972.1,0h27.5M27.5,1344.3H0m972.1,0h27.5M32.1,27.5V0m0,1348.9v27.5M967.5,27.5V0m0,1348.9v27.5" class="gn_92"/>
<path d="M27.5,32.1H0m972.1,0h27.5M27.5,1344.3H0m972.1,0h27.5M32.1,27.5V0m0,1348.9v27.5M967.5,27.5V0m0,1348.9v27.5" class="go_92"/>
</svg>