<?xml version="1.0" encoding="UTF-8" standalone="no"?>
<!DOCTYPE svg PUBLIC "-//W3C//DTD SVG 1.1//EN"
"http://www.w3.org/Graphics/SVG/1.1/DTD/svg11.dtd">
<svg viewBox="0 0 999 1376" version="1.1" xmlns="http://www.w3.org/2000/svg" xmlns:xlink="http://www.w3.org/1999/xlink">
<defs>
<clipPath id="c0_81"><path d="M678.1,573.4V395.2H886V573.4Z"/></clipPath>
<clipPath id="c1_81"><path d="M673.4,578.7V390.1H889V578.7Z"/></clipPath>
<clipPath id="c2_81"><path d="M199.2,249.1L192.7,247L176.3,233V176h72v73.1Z"/></clipPath>
<clipPath id="c3_81"><path d="M199.2,831.3l-6.5,-2.2L176.3,815.2V758.1h72v73.2Z"/></clipPath>
<clipPath id="c4_81"><path d="M786.5,132.5V120.1H801v12.4Z"/></clipPath>
<clipPath id="c5_81"><path d="M126.7,662.6V409.1H367.6V662.6Z"/></clipPath>
<clipPath id="c6_81"><path d="M121.8,667.2V404.8H372V667.2Z"/></clipPath>
<clipPath id="c7_81"><path d="M229.3,434.1c-.2,-.1,3.6,-8.2,3.6,-8.2l.8,.5c0,0,-4.1,7.7,-4.4,7.7Z"/></clipPath>
<clipPath id="c8_81"><path d="M236.8,426.4c0,0,-6.8,-1.2,-7.5,-5.3c-.7,-3.6,1.5,-3.8,2,-3.8c.1,0,.2,0,.2,0l8.3,-12.7l-1.5,-3.1c0,0,-.6,-1.1,.2,-2.1c0,-.1,.1,-.1,.3,-.1c2.1,0,12.9,5.6,12.9,5.6l.1,.1c-.4,.5,-.8,1.1,-1.4,1.6c-.7,.5,-5.1,1.2,-5.1,1.2l-8.5,18.6Z"/></clipPath>
<clipPath id="c9_81"><path d="M236.4,426c.2,-.5,.2,-1.8,0,-2.3v-1.3c-1.5,-.6,-2.8,-1.3,-3.6,-2.6c-1.1,.6,-2.1,1.3,-3.2,1.9c1.6,2.2,3.9,3.6,6.8,4.3Zm0,-3.9c2.2,-4.5,4,-9.5,6.2,-14.1c-.9,-.4,-1.9,-1.3,-2.6,-1.4c-2.3,4.4,-4.7,8.7,-7.1,12.9c.7,1.3,2.1,2,3.5,2.6Zm-7.3,12.1c1.1,-2.9,2.4,-5.5,3.6,-8.3c-2,-1.6,-4,-3.1,-4.4,-6.2v-1.5c-.1,-2.7,1.9,-3.4,4.6,-3.4c0,0,.1,0,.1,0c2,-3.3,4.3,-6.3,6.2,-9.7c-.6,-.8,-1.2,-2.3,-.9,-3.6c.5,1.2,1.6,1.9,2.4,2.9c-.1,.6,-.3,1.1,-.4,1.7c.6,.7,1.4,1.2,2.4,1.4c.5,-.4,.5,-1.2,1.1,-1.5c1,.4,1.9,.8,3.2,.8c.1,.1,.5,.1,.8,.1c.3,0,.7,0,.8,-.1c.1,0,.2,0,.3,0c.3,0,.5,-.1,.6,-.1c.2,-.1,.4,-.2,.6,-.2c.1,0,.2,.1,.3,.1c-1.3,.7,-2.2,1.8,-4.2,1.8c-.1,0,-.2,0,-.3,0c-.9,3.7,-1.9,7.4,-2.7,11.2c.6,1,1.5,1.7,1.3,3.1c-.5,2.8,-3.9,4.4,-7.2,4.4c-1.3,0,-2.5,-.2,-3.6,-.7c-1,2.1,-2.1,4.1,-3.3,6c0,-.4,.3,-.4,.3,-.8c.9,-1.8,1.9,-3.5,2.6,-5.6c-1.1,1.7,-1.8,3.7,-2.8,5.5c-.2,.4,-.4,.9,-.6,1.3c-.3,.4,-.3,1.1,-.8,1.4Z"/></clipPath>
<clipPath id="ca_81"><path d="M246.9,406.4c-4.8,0,-13.1,-7.3,-5.6,-8.8h1.3c.2,0,.4,0,.7,0q.1,0,.2,0c.3,0,.5,.1,.8,.1c3.1,.7,8.3,3.8,7.6,7.1c-.3,1.1,-1.6,1.6,-3.2,1.6H247c0,0,-.1,0,-.1,0Z"/></clipPath>
<clipPath id="cb_81"><path d="M770.7,413.6c-.3,-.1,3.5,-8.2,3.5,-8.2l.8,.5c0,0,-4,7.7,-4.3,7.7Z"/></clipPath>
<clipPath id="cc_81"><path d="M778.2,405.9c0,0,-6.9,-1.1,-7.6,-5.3c-.7,-3.6,1.5,-3.8,2.1,-3.8q.1,0,.1,0l8.3,-12.7L779.7,381c0,0,-.6,-1.1,.1,-2.1c0,0,.2,-.1,.3,-.1c2.1,0,13,5.6,13,5.6v.1c-.3,.5,-.7,1.2,-1.4,1.7c-.6,.5,-5.1,1.1,-5.1,1.1l-8.4,18.6Z"/></clipPath>
<clipPath id="cd_81"><path d="M777.8,405.5c.2,-.5,.2,-1.8,0,-2.3v-1.3c-1.6,-.6,-2.9,-1.3,-3.7,-2.5c-1.1,.5,-2.1,1.2,-3.1,1.8c1.5,2.2,3.8,3.6,6.8,4.3Zm0,-3.9c2.2,-4.5,4,-9.5,6.1,-14.1c-.9,-.3,-1.8,-1.3,-2.6,-1.3c-2.3,4.3,-4.6,8.6,-7,12.8c.7,1.3,2,2,3.5,2.6Zm-7.3,12.1c1,-2.9,2.4,-5.5,3.5,-8.3c-2,-1.6,-3.9,-3.1,-4.4,-6.2v-1.5c0,-2.7,1.9,-3.4,4.6,-3.4q.1,0,.2,0c1.9,-3.3,4.2,-6.3,6.1,-9.6c-.5,-.9,-1.1,-2.4,-.8,-3.7c.5,1.3,1.6,1.9,2.3,2.9c-.1,.6,-.2,1.1,-.3,1.8c.6,.6,1.3,1.1,2.4,1.3c.4,-.4,.5,-1.2,1.1,-1.5c.9,.4,1.8,.8,3.1,.8c.2,.1,.5,.1,.8,.1c.4,0,.7,0,.9,-.1c.1,0,.2,0,.3,0c.2,0,.4,0,.6,-.1c.2,-.1,.3,-.1,.5,-.1c.1,0,.2,0,.3,.1c-1.3,.6,-2.2,1.7,-4.2,1.7c-.1,0,-.2,0,-.3,0c-.9,3.8,-1.9,7.4,-2.6,11.2c.5,1.1,1.5,1.7,1.2,3.1c-.4,2.8,-3.8,4.4,-7.2,4.4c-1.3,0,-2.5,-.2,-3.6,-.7c-1,2.1,-2.1,4.1,-3.3,6c0,-.4,.3,-.4,.3,-.7c.9,-1.8,1.9,-3.6,2.6,-5.7c-1,1.7,-1.8,3.7,-2.7,5.5c-.2,.5,-.5,.9,-.7,1.3c-.3,.4,-.3,1.1,-.7,1.4Z"/></clipPath>
<clipPath id="ce_81"><path d="M788.2,385.9c-4.8,0,-13.1,-7.3,-5.5,-8.8h1.2c.2,.1,.4,.1,.6,.1c0,0,.1,0,.1,0q.1,0,.2,0c.2,0,.6,0,.9,0c3.1,.7,8.2,3.8,7.5,7.1c-.2,1.1,-1.5,1.6,-3.1,1.6h-1.9Z"/></clipPath>
<style type="text/css"><![CDATA[
.g0_81{
fill: #FEFCF4;
}
.g1_81{
fill: #FFF;
}
.g2_81{
fill: none;
stroke: #6381B7;
stroke-width: 0.763;
}
.g3_81{
fill: #6381B7;
}
.g4_81{
fill: none;
stroke: #6381B7;
stroke-width: 0.381;
stroke-dasharray: 2,1;
}
.g5_81{
fill: none;
stroke: #6381B7;
stroke-width: 0.381;
}
.g6_81{
fill: none;
stroke: #949698;
stroke-width: 0.305;
stroke-dasharray: 3,3;
}
.g7_81{
fill: none;
stroke: #949698;
stroke-width: 0.305;
}
.g8_81{
fill: #F7C2D9;
}
.g9_81{
fill: #FDF4F3;
}
.ga_81{
fill: #EC008C;
}
.gb_81{
fill: none;
stroke: #949698;
stroke-width: 0.305;
stroke-dasharray: 4,4;
}
.gc_81{
fill: #6D6F71;
}
.gd_81{
fill: #FCE8B0;
}
.ge_81{
fill: #25408F;
}
.gf_81{
fill: #A8AAAD;
}
.gg_81{
fill: none;
stroke: #949698;
stroke-width: 0.549;
}
.gh_81{
fill: none;
stroke: #BCBEC0;
stroke-width: 2.566;
}
.gi_81{
fill: #231F20;
}
.gj_81{
fill: #363637;
}
.gk_81{
fill: #5CC4BE;
}
.gl_81{
fill: #EAD646;
}
.gm_81{
fill: none;
stroke: #00ABE5;
stroke-width: 2.291;
}
.gn_81{
fill: #3D3B39;
}
.go_81{
fill: #E5E9B7;
}
.gp_81{
fill: #61C7CB;
}
.gq_81{
fill: none;
stroke: #00ABE5;
stroke-width: 1.527;
stroke-linecap: round;
stroke-linejoin: round;
stroke-dasharray: 0,5;
}
.gr_81{
fill: none;
stroke: #00ABE5;
stroke-width: 1.527;
stroke-linecap: round;
stroke-linejoin: round;
}
.gs_81{
fill: none;
stroke: #FFF;
stroke-width: 1.909;
stroke-miterlimit: 10;
}
.gt_81{
fill: none;
stroke: #000;
stroke-width: 0.381;
stroke-miterlimit: 10;
}
]]></style>
</defs>
<path d="M45.1,1344.3H967.5V32.1H45.1V1344.3Z" class="g0_81"/>
<path d="M172.5,126.3c0,0,-18.3,0,-18.3,18.4V626.9c0,0,0,18.4,18.3,18.4H849.6c0,0,18.3,0,18.3,-18.4V126.3Z" class="g1_81"/>
<path d="M172.5,126.3c0,0,-18.3,0,-18.3,18.4V626.9c0,0,0,18.4,18.3,18.4H849.6c0,0,18.3,0,18.3,-18.4V126.3H172.5Z" class="g2_81"/>
<path d="M172.5,740.1c0,0,-18.3,0,-18.3,18.3V911.6c0,0,0,18.3,18.3,18.3H849.6c0,0,18.3,0,18.3,-18.3V758.4c0,0,0,-18.3,-18.3,-18.3Z" class="g1_81"/>
<path d="M172.5,740.1c0,0,-18.3,0,-18.3,18.3V911.6c0,0,0,18.3,18.3,18.3H849.6c0,0,18.3,0,18.3,-18.3V758.4c0,0,0,-18.3,-18.3,-18.3H172.5Z" class="g2_81"/>
<path d="M518.4,948.5c0,0,-4.4,0,-4.4,4.3v10.8c0,0,0,4.4,4.4,4.4h30.3c0,0,4.3,0,4.3,-4.4V952.8c0,0,0,-4.3,-4.3,-4.3Z" class="g3_81"/>
<path d="M505.2,939.6v37.6m1.3,.9H866.8m.9,-1.3V939.2m-1.3,-.9H506.1" class="g4_81"/>
<path d="M505.2,977.6v.5h.6m361.4,0h.5v-.5m0,-38.7v-.6h-.5m-361.4,0h-.6v.6" class="g5_81"/>
<path d="M572.7,521.1c5.4,-1.6,9.5,-5.9,10.7,-11.2m-.4,-7.3c-1.7,-5.2,-6.2,-9.2,-11.7,-10.2m-7.3,.3c-5.4,1.6,-9.6,5.9,-10.7,11.3m.4,7.3c1.6,5.1,6.1,9.1,11.7,10.1" class="g6_81"/>
<path d="M583.6,508.4c0,-.5,.1,-1,.1,-1.5c0,-.5,-.1,-1,-.1,-1.5M569.8,492.2c-.5,0,-1,-.1,-1.5,-.1c-.5,0,-1,.1,-1.4,.1m-13.8,13.2c-.1,.5,-.1,1,-.1,1.5c0,.5,0,1,.1,1.5m13.8,13.2c.4,.1,.9,.1,1.4,.1c.5,0,1,0,1.5,-.1" class="g7_81"/>
<image clip-path="url(#c0_81)" preserveAspectRatio="none" x="678" y="396" width="207" height="178" xlink:href="img/1.png"/>
<path d="M682.8,407.1L690.5,567l189.6,-7.2L872.4,399.9Z" class="g8_81"/>
<image clip-path="url(#c1_81)" preserveAspectRatio="none" x="673" y="390" width="215" height="189" xlink:href="img/2.png"/>
<path d="M678.2,412.4L696,572.7L831.7,559.9L883,544.7l-16.6,-150Z" class="g9_81"/>
<path d="M883.1,545l-52.8,15.1L864.4,531Z" class="ga_81"/>
<path d="M573.8,488.4c3.6,-8.4,12.8,-26,27.2,-32.5m7.9,-.5c1.4,.7,2,1.9,.4,4.2m-9.7,-1.4c.9,-3.8,5.7,-9.6,23.2,-17m7.3,-2.8c7.8,-2.6,24.9,-7.6,41.1,-6.6" class="gb_81"/>
<path d="M572,492.8c0,0,.2,-.5,.5,-1.5m30,-36c.5,-.2,1,-.4,1.5,-.6c0,0,.7,0,1.7,0m2.5,6.2c-.3,.4,-.7,.8,-1.1,1.2c0,0,-.7,.5,-1.6,1m-3.5,.5c-.5,-.2,-1,-.5,-1.4,-1.1c0,0,-.5,-.4,-.8,-1.3m24.4,-20.6c.5,-.2,1,-.4,1.5,-.6c0,0,.5,-.2,1.4,-.5m45.7,-7.6c.5,.1,1,.1,1.5,.2" class="g7_81"/>
<path d="M672,436.6l1,-8.7l10.7,5.7Z" class="gc_81"/>
<path d="M231.8,178.1c0,0,-13,0,-13,13v47.6c0,0,0,13,13,13h602c0,0,13,0,13,-13V191.1c0,0,0,-13,-13,-13Z" class="gd_81"/>
<image clip-path="url(#c2_81)" preserveAspectRatio="none" x="175" y="174" width="75" height="77" xlink:href="img/3.png"/>
<path d="M226.6,244.4c0,0,-26.9,11.3,-51.1,-12.8c0,0,15.1,25.3,49.3,24c0,0,24.7,.3,20.2,-10.1c0,0,1.2,-4.5,-18.4,-1.1Z" class="gd_81"/>
<path d="M231.8,760.3c0,0,-13,0,-13,13v47.6c0,0,0,13,13,13h602c0,0,13,0,13,-13V773.3c0,0,0,-13,-13,-13Z" class="gd_81"/>
<image clip-path="url(#c3_81)" preserveAspectRatio="none" x="175" y="757" width="75" height="76" xlink:href="img/4.png"/>
<path d="M226.6,826.5c0,0,-26.9,11.3,-51.1,-12.7c0,0,15.1,25.3,49.3,24c0,0,24.7,.3,20.2,-10.2c0,0,1.2,-4.4,-18.4,-1.1Z" class="gd_81"/>
<path d="M153.3,111.9v39L165,161.2V117Z" class="ge_81"/>
<path d="M153.3,111.9v39H851.1c0,0,16.8,0,16.8,-16.8v-5.3c0,0,0,-16.9,-16.8,-16.9Z" class="g3_81"/>
<path d="M802.6,145.6c8.2,0,14.9,-6.5,14.9,-14.5c0,-8.1,-6.7,-14.5,-14.9,-14.5c-8.2,0,-14.9,6.4,-14.9,14.5c0,8,6.7,14.5,14.9,14.5Z" class="gf_81"/>
<path d="M802.6,145.6c8.2,0,14.9,-6.5,14.9,-14.5c0,-8.1,-6.7,-14.5,-14.9,-14.5c-8.2,0,-14.9,6.4,-14.9,14.5c0,8,6.7,14.5,14.9,14.5Z" class="gg_81"/>
<path d="M802.6,136.4c3,0,5.5,-2.4,5.5,-5.3c0,-3,-2.5,-5.4,-5.5,-5.4c-3,0,-5.5,2.4,-5.5,5.4c0,2.9,2.5,5.3,5.5,5.3Z" class="g1_81"/>
<path d="M802.6,136.4c3,0,5.5,-2.4,5.5,-5.3c0,-3,-2.5,-5.4,-5.5,-5.4c-3,0,-5.5,2.4,-5.5,5.4c0,2.9,2.5,5.3,5.5,5.3Z" class="gh_81"/>
<g clip-path="url(#c4_81)" opacity="0.3">
<path d="M788,130.3c0,0,0,-4.8,3.7,-8.7l7.7,6.8c0,0,-1,.9,-1,2.6Z" class="g1_81"/>
</g>
<path d="M807.2,131c0,0,-3.5,0,-3.5,3.4v8.7c0,0,0,3.5,3.5,3.5h43.5c0,0,3.5,0,3.5,-3.5v-8.7c0,0,0,-3.4,-3.5,-3.4Z" class="gi_81"/>
<path d="M191.2,122c0,-8.3,-6.8,-15,-15.1,-15c-8.3,0,-15,6.7,-15,15c0,8.3,6.7,15.1,15,15.1c.8,0,1.7,-.1,2.4,-.2l4.5,5.2v-6.7c4.9,-2.5,8.2,-7.6,8.2,-13.4Z" class="g1_81"/>
<path d="M183.5,143.3l-5.1,-5.9c-.8,.1,-1.5,.1,-2.3,.1c-8.5,0,-15.5,-6.9,-15.5,-15.5c0,-8.5,7,-15.5,15.5,-15.5c8.6,0,15.5,7,15.5,15.5c0,5.7,-3.1,11,-8.1,13.7Zm-4.8,-6.9l3.9,4.5v-5.8l.2,-.1c4.9,-2.5,7.9,-7.5,7.9,-13c0,-8,-6.5,-14.6,-14.6,-14.6c-8,0,-14.6,6.6,-14.6,14.6c0,8.1,6.6,14.6,14.6,14.6c.8,0,1.6,-.1,2.4,-.2Z" class="gj_81"/>
<path d="M169.1,121.6c.8,0,1.4,.6,1.4,1.4c0,.8,-.6,1.5,-1.4,1.5c-.8,0,-1.4,-.7,-1.4,-1.5c0,-.8,.6,-1.4,1.4,-1.4Z" class="gk_81"/>
<path d="M169.1,124.9c-1,0,-1.9,-.8,-1.9,-1.9c0,-1,.9,-1.9,1.9,-1.9c1,0,1.9,.9,1.9,1.9c0,1.1,-.9,1.9,-1.9,1.9m0,-2.9c-.5,0,-1,.5,-1,1c0,.6,.5,1,1,1c.5,0,1,-.4,1,-1c0,-.5,-.5,-1,-1,-1Z" class="gj_81"/>
<path d="M176.1,121.6c.8,0,1.5,.6,1.5,1.4c0,.8,-.7,1.5,-1.5,1.5c-.8,0,-1.4,-.7,-1.4,-1.5c0,-.8,.6,-1.4,1.4,-1.4Z" class="gk_81"/>
<path d="M176.1,124.9c-1,0,-1.9,-.8,-1.9,-1.9c0,-1,.9,-1.9,1.9,-1.9c1.1,0,1.9,.9,1.9,1.9c0,1.1,-.8,1.9,-1.9,1.9m0,-2.9c-.5,0,-1,.5,-1,1c0,.6,.5,1,1,1c.6,0,1,-.4,1,-1c0,-.5,-.4,-1,-1,-1Z" class="gj_81"/>
<path d="M183.1,121.6c.8,0,1.5,.6,1.5,1.4c0,.8,-.7,1.5,-1.5,1.5c-.8,0,-1.4,-.7,-1.4,-1.5c0,-.8,.6,-1.4,1.4,-1.4Z" class="gk_81"/>
<path d="M183.1,124.9c-1,0,-1.9,-.8,-1.9,-1.9c0,-1,.9,-1.9,1.9,-1.9c1.1,0,1.9,.9,1.9,1.9c0,1.1,-.8,1.9,-1.9,1.9m0,-2.9c-.5,0,-1,.5,-1,1c0,.6,.5,1,1,1c.6,0,1,-.4,1,-1c0,-.5,-.4,-1,-1,-1Z" class="gj_81"/>
<path d="M185.1,136.3c0,-9.8,7.8,-17.7,17.6,-17.7c9.7,0,17.6,7.9,17.6,17.7c0,9.7,-7.9,17.6,-17.6,17.6c-1,0,-1.9,-.1,-2.9,-.3l-5.2,6.1v-7.8c-5.7,-2.9,-9.5,-8.8,-9.5,-15.6Z" class="gl_81"/>
<path d="M194.6,160.2q-.1,0,-.2,0c-.2,-.1,-.3,-.3,-.3,-.5v-7.5c-5.9,-3.2,-9.5,-9.2,-9.5,-15.9c0,-10,8.1,-18.1,18.1,-18.1c9.9,0,18,8.1,18,18.1c0,9.9,-8.1,18,-18,18c-.9,0,-1.8,0,-2.7,-.2l-5.1,5.9c-.1,.1,-.2,.2,-.3,.2m8.1,-41.1c-9.5,0,-17.2,7.7,-17.2,17.2c0,6.4,3.6,12.2,9.3,15.2c.1,.1,.2,.2,.2,.4v6.6l4.5,-5.2c.1,-.1,.3,-.1,.4,-.1c1,.1,1.9,.2,2.8,.2c9.4,0,17.1,-7.7,17.1,-17.1c0,-9.5,-7.7,-17.2,-17.1,-17.2Z" class="gj_81"/>
<path d="M210.9,135.8c.9,0,1.6,.7,1.6,1.6c0,1,-.7,1.7,-1.6,1.7c-1,0,-1.7,-.7,-1.7,-1.7c0,-.9,.7,-1.6,1.7,-1.6Z" class="g1_81"/>
<path d="M210.9,139.6c-1.2,0,-2.2,-1,-2.2,-2.2c0,-1.1,1,-2.1,2.2,-2.1c1.1,0,2.1,1,2.1,2.1c0,1.2,-1,2.2,-2.1,2.2m0,-3.4c-.7,0,-1.3,.6,-1.3,1.2c0,.7,.6,1.3,1.3,1.3c.6,0,1.2,-.6,1.2,-1.3c0,-.6,-.6,-1.2,-1.2,-1.2Z" class="gj_81"/>
<path d="M202.7,135.8c.9,0,1.6,.7,1.6,1.6c0,1,-.7,1.7,-1.6,1.7c-1,0,-1.7,-.7,-1.7,-1.7c0,-.9,.7,-1.6,1.7,-1.6Z" class="g1_81"/>
<path d="M202.7,139.6c-1.2,0,-2.2,-1,-2.2,-2.2c0,-1.1,1,-2.1,2.2,-2.1c1.1,0,2.1,1,2.1,2.1c0,1.2,-1,2.2,-2.1,2.2m0,-3.4c-.7,0,-1.3,.6,-1.3,1.2c0,.7,.6,1.3,1.3,1.3c.6,0,1.2,-.6,1.2,-1.3c0,-.6,-.6,-1.2,-1.2,-1.2Z" class="gj_81"/>
<path d="M194.5,135.8c.9,0,1.6,.7,1.6,1.6c0,1,-.7,1.7,-1.6,1.7c-1,0,-1.7,-.7,-1.7,-1.7c0,-.9,.7,-1.6,1.7,-1.6Z" class="g1_81"/>
<path d="M194.5,139.6c-1.2,0,-2.2,-1,-2.2,-2.2c0,-1.1,1,-2.1,2.2,-2.1c1.1,0,2.1,1,2.1,2.1c0,1.2,-1,2.2,-2.1,2.2m0,-3.4c-.7,0,-1.2,.6,-1.2,1.2c0,.7,.5,1.3,1.2,1.3c.6,0,1.2,-.6,1.2,-1.3c0,-.6,-.6,-1.2,-1.2,-1.2Z" class="gj_81"/>
<image clip-path="url(#c5_81)" preserveAspectRatio="none" x="126" y="409" width="241" height="254" xlink:href="img/5.png"/>
<path d="M131.4,421.8l10.5,234.9L361.6,649L351.2,414.1Z" class="g8_81"/>
<image clip-path="url(#c6_81)" preserveAspectRatio="none" x="121" y="405" width="251" height="262" xlink:href="img/6.png"/>
<path d="M126.6,427.3l21.8,233.6L313.3,647.4l52.5,-14.3L345.1,409.9Z" class="g9_81"/>
<path d="M365.8,633.1l-52.9,14.7l34.4,-28.9Z" class="ga_81"/>
<image clip-path="url(#c7_81)" x="229" y="425" width="5" height="10" xlink:href="shade/1.png"/>
<image clip-path="url(#c8_81)" x="228" y="399" width="24" height="28" xlink:href="shade/2.png"/>
<image clip-path="url(#c9_81)" x="228" y="401" width="23" height="34" xlink:href="shade/3.png"/>
<image clip-path="url(#ca_81)" x="233" y="397" width="20" height="10" xlink:href="shade/4.png"/>
<image clip-path="url(#cb_81)" x="770" y="405" width="5" height="9" xlink:href="shade/5.png"/>
<image clip-path="url(#cc_81)" x="769" y="378" width="25" height="28" xlink:href="shade/6.png"/>
<image clip-path="url(#cd_81)" x="769" y="381" width="23" height="33" xlink:href="shade/7.png"/>
<image clip-path="url(#ce_81)" x="775" y="377" width="19" height="10" xlink:href="shade/8.png"/>
<path d="M154.5,1069.6v-28.7c0,0,0,-4.4,4.3,-4.4H862.4c0,0,4.4,0,4.4,4.4V1070" class="gm_81"/>
<path d="M200.1,1037.1c2.6,0,4.8,-2.2,4.8,-4.8c0,-2.7,-2.2,-4.8,-4.8,-4.8c-2.7,0,-4.8,2.1,-4.8,4.8c0,2.6,2.1,4.8,4.8,4.8Z" class="g1_81"/>
<path d="M200.1,1039c3.6,0,6.6,-3,6.6,-6.7c0,-3.7,-3,-6.7,-6.6,-6.7c-3.7,0,-6.7,3,-6.7,6.7c0,3.7,3,6.7,6.7,6.7m0,-11.5c2.6,0,4.8,2.1,4.8,4.8c0,2.6,-2.2,4.8,-4.8,4.8c-2.7,0,-4.8,-2.2,-4.8,-4.8c0,-2.7,2.1,-4.8,4.8,-4.8Z" class="gn_81"/>
<path d="M205.5,1040.9H194.6c-.1,0,-.3,0,-.4,0c2.7,1.1,4.9,3.4,5.9,6.2c1.3,-.5,2.7,-.8,4.2,-.8c2.9,0,5.5,1,7.5,2.7v-1.8c0,-3.5,-2.8,-6.3,-6.3,-6.3Z" class="g1_81"/>
<path d="M184,1037.9c3.4,0,6.1,-2.7,6.1,-6.1c0,-3.4,-2.7,-6.2,-6.1,-6.2c-3.4,0,-6.1,2.8,-6.1,6.2c0,3.4,2.7,6.1,6.1,6.1Z" class="go_81"/>
<path d="M184,1039.8c4.4,0,8,-3.6,8,-8c0,-4.4,-3.6,-8,-8,-8c-4.4,0,-8,3.6,-8,8c0,4.4,3.6,8,8,8m0,-14.2c3.4,0,6.1,2.8,6.1,6.2c0,3.4,-2.7,6.1,-6.1,6.1c-3.4,0,-6.1,-2.7,-6.1,-6.1c0,-3.4,2.7,-6.2,6.1,-6.2Z" class="gn_81"/>
<path d="M198.4,1047.9c-1,-3.3,-4.1,-5.7,-7.7,-5.7H177.3c-4.4,0,-8,3.6,-8,8v4.3h23.8c.9,-2.8,2.8,-5.1,5.3,-6.6Z" class="go_81"/>
<path d="M204.3,1048.2c-5.5,0,-9.9,4.5,-9.9,10c0,5.5,4.4,10,9.9,10c5.5,0,10,-4.5,10,-10c0,-5.5,-4.5,-10,-10,-10m6.7,11.7c0,.2,-.2,.4,-.5,.4h-4v4.1c0,.2,-.2,.4,-.5,.4h-3.3c-.3,0,-.5,-.2,-.5,-.4v-4.1h-4.1c-.2,0,-.4,-.2,-.4,-.4v-3.4c0,-.3,.2,-.5,.4,-.5h4.1v-4c0,-.3,.2,-.5,.5,-.5H206c.3,0,.5,.2,.5,.5v4h4c.3,0,.5,.2,.5,.5Z" class="gp_81"/>
<path d="M213.7,1050.9v-3.7c0,-4.5,-3.7,-8.2,-8.2,-8.2H194.6c-1.6,0,-3.1,.5,-4.3,1.3h-13c-5.4,0,-9.9,4.4,-9.9,9.9v5.2c0,.5,.4,1,1,1h24.2c-.1,.6,-.1,1.2,-.1,1.8c0,6.5,5.3,11.8,11.8,11.8c6.6,0,11.9,-5.3,11.9,-11.8c0,-2.8,-.9,-5.3,-2.5,-7.3m-9.4,17.3c-5.5,0,-9.9,-4.5,-9.9,-10c0,-5.5,4.4,-10,9.9,-10c5.5,0,10,4.5,10,10c0,5.5,-4.5,10,-10,10m-35,-18c0,-4.4,3.6,-8,8,-8h13.4c3.6,0,6.7,2.4,7.7,5.7c-2.5,1.5,-4.4,3.8,-5.3,6.6H169.3Zm42.5,-1.2c-2,-1.7,-4.6,-2.7,-7.5,-2.7c-1.5,0,-2.9,.3,-4.2,.8c-1,-2.8,-3.2,-5.1,-5.9,-6.2c.1,0,.3,0,.4,0h10.9c3.5,0,6.3,2.8,6.3,6.3Z" class="gn_81"/>
<path d="M205.5,1056.5v-4h-2.4v4c0,.3,-.2,.5,-.4,.5h-4.1v2.4h4.1c.2,0,.4,.2,.4,.5v4h2.4v-4c0,-.3,.3,-.5,.5,-.5h4.1V1057H206c-.2,0,-.5,-.2,-.5,-.5Z" class="g1_81"/>
<path d="M210.5,1056h-4v-4c0,-.3,-.2,-.5,-.5,-.5h-3.3c-.3,0,-.5,.2,-.5,.5v4h-4.1c-.2,0,-.4,.2,-.4,.5v3.4c0,.2,.2,.4,.4,.4h4.1v4.1c0,.2,.2,.4,.5,.4H206c.3,0,.5,-.2,.5,-.4v-4.1h4c.3,0,.5,-.2,.5,-.4v-3.4c0,-.3,-.2,-.5,-.5,-.5m-.4,3.4H206c-.2,0,-.5,.2,-.5,.5v4h-2.4v-4c0,-.3,-.2,-.5,-.4,-.5h-4.1V1057h4.1c.2,0,.4,-.2,.4,-.5v-4h2.4v4c0,.3,.3,.5,.5,.5h4.1Z" class="gn_81"/>
<path d="M154.1,1079.7v161.9m4.6,2.3H864.9m2.2,-4.5v-162m-4.5,-2.3H156.4" class="gq_81"/>
<path d="M154.1,1243.9v0m713.1,0v0m0,-168.8v0m-713.1,0v0" class="gr_81"/>
<path d="M472.7,523.1c16.8,-.9,30.3,-6.6,33.4,-13.8m-.7,-7.8C501,494.7,487.5,489.6,471.1,489m-8.2,.1c-16.8,.9,-30.3,6.6,-33.4,13.8m.7,7.8c4.3,6.8,17.9,11.9,34.3,12.5" class="gb_81"/>
<path d="M506.6,507.7c.1,-.5,.2,-1,.2,-1.6c0,-.5,-.1,-1.1,-.2,-1.6M469.4,489c-.5,0,-1.1,0,-1.6,0c-.6,0,-1.1,0,-1.6,0M429,504.5c-.2,.5,-.2,1.1,-.2,1.6c0,.6,0,1.1,.2,1.6m37.2,15.5c.5,0,1,0,1.6,0c.5,0,1.1,0,1.6,0" class="g7_81"/>
<path d="M288.4,435.2l-3.8,-7.9l-8.3,8.9Z" class="gc_81"/>
<path d="M469.1,485.2c-9.2,-10.5,-37.8,-40.7,-64,-44.5" class="gb_81"/>
<path d="M399.4,443.5c-.6,1.9,.1,4.5,5.6,7.1m6.1,0c1.1,-.6,2.1,-1.4,2.5,-2.5m-3.1,-5.6c-5.3,-4.3,-19.3,-11.8,-54.7,-16.3" class="g6_81"/>
<path d="M348.3,425.6C338,425.2,312,425,289.4,431" class="gb_81"/>
<path d="M472.1,488.7c0,0,-.4,-.4,-1,-1.2m-67.5,-47c-.5,-.1,-1,-.1,-1.6,-.2c0,0,-.5,.3,-1.1,.9m5.4,10c.4,.1,.8,.3,1.3,.5c0,0,.5,-.1,1.2,-.3m5,-4.5c0,-.4,-.1,-.8,-.3,-1.2c0,0,-.2,-.5,-.8,-1.2M354.3,426c-.4,0,-.9,-.1,-1.4,-.1c0,0,-.6,-.1,-1.5,-.1M288,431.4c-.5,.2,-1,.3,-1.5,.5" class="g7_81"/>
<path d="M32.1,45.1H9.2m958.3,0h22.9M32.1,1331.3H9.2m958.3,0h22.9M45.1,32.1V9.2m0,1335.1v22.9M954.5,32.1V9.2m0,1335.1v22.9" class="gs_81"/>
<path d="M32.1,45.1H9.2m958.3,0h22.9M32.1,1331.3H9.2m958.3,0h22.9M45.1,32.1V9.2m0,1335.1v22.9M954.5,32.1V9.2m0,1335.1v22.9" class="gt_81"/>
<path d="M27.5,32.1H0m972.1,0h27.5M27.5,1344.3H0m972.1,0h27.5M32.1,27.5V0m0,1348.9v27.5M967.5,27.5V0m0,1348.9v27.5" class="gs_81"/>
<path d="M27.5,32.1H0m972.1,0h27.5M27.5,1344.3H0m972.1,0h27.5M32.1,27.5V0m0,1348.9v27.5M967.5,27.5V0m0,1348.9v27.5" class="gt_81"/>
</svg>