<?xml version="1.0" encoding="UTF-8" standalone="no"?>
<!DOCTYPE svg PUBLIC "-//W3C//DTD SVG 1.1//EN"
"http://www.w3.org/Graphics/SVG/1.1/DTD/svg11.dtd">
<svg viewBox="0 0 999 1376" version="1.1" xmlns="http://www.w3.org/2000/svg" xmlns:xlink="http://www.w3.org/1999/xlink">
<defs>
<clipPath id="c0_316"><path d="M32.1,1344.3V32.1H967.5V1344.3Z"/></clipPath>
<clipPath id="c1_316"><path d="M179.3,291.4l-6.5,-2.1L156.4,275.4V218.3h72v73.1Z"/></clipPath>
<clipPath id="c2_316"><path d="M179.3,781.8l-6.5,-2.1L156.4,765.8V708.7h72v73.1Z"/></clipPath>
<style type="text/css"><![CDATA[
.g0_316{
fill: #FEFCF4;
}
.g1_316{
fill: #F16865;
}
.g2_316{
fill: #FAC3B8;
}
.g3_316{
fill: #EE314A;
}
.g4_316{
fill: #26292E;
}
.g5_316{
fill: #C5CACC;
}
.g6_316{
fill: #FFF;
}
.g7_316{
fill: #F1EBEB;
}
.g8_316{
fill: #F7943B;
}
.g9_316{
fill: #ACB5B9;
}
.ga_316{
fill: #CFD3D5;
}
.gb_316{
fill: none;
stroke: #6381B7;
stroke-width: 0.763;
}
.gc_316{
fill: #6381B7;
}
.gd_316{
fill: none;
stroke: #6381B7;
stroke-width: 0.381;
stroke-dasharray: 2,1;
}
.ge_316{
fill: none;
stroke: #6381B7;
stroke-width: 0.381;
}
.gf_316{
fill: #E3E4E5;
}
.gg_316{
fill: none;
stroke: #231F20;
stroke-width: 0.763;
stroke-miterlimit: 10;
}
.gh_316{
fill: none;
stroke: #231F20;
stroke-width: 0.458;
stroke-miterlimit: 10;
}
.gi_316{
fill: #93BEDA;
}
.gj_316{
fill: #FCE8B0;
}
.gk_316{
fill: #E3E7F2;
}
.gl_316{
fill: none;
stroke: #FFF;
stroke-width: 1.909;
stroke-miterlimit: 10;
}
.gm_316{
fill: none;
stroke: #000;
stroke-width: 0.381;
stroke-miterlimit: 10;
}
]]></style>
</defs>
<path d="M32.1,1344.3H954.5V32.1H32.1V1344.3Z" class="g0_316"/>
<g clip-path="url(#c0_316)">
<path d="M954.5,1344.3H1877V32.1H954.5V1344.3Z" class="g0_316"/>
<path d="M1777.4,166.7c0,0,30.3,0,30.3,-30.3v-4.3c0,0,0,-30.3,-30.3,-30.3H173.9c0,0,-30.3,0,-30.3,30.3v4.3c0,0,0,30.3,30.3,30.3Z" class="g1_316"/>
</g>
<path d="M186.5,132.1c0,27.1,-22,49,-49.1,49c-27,0,-49,-21.9,-49,-49c0,-27.1,22,-49.1,49,-49.1c27.1,0,49.1,22,49.1,49.1Z" class="g2_316"/>
<path d="M178.1,104.6c15.2,22.5,9.2,53,-13.2,68.1c-22.5,15.2,-53,9.3,-68.1,-13.2Z" class="g3_316"/>
<path d="M96.8,159.5h81.3V104.7H96.8v54.8Z" class="g4_316"/>
<path d="M137.7,156.8h16.8V136.6H137.7v20.2Z" class="g5_316"/>
<path d="M143.1,156.8h33.7V102.6H143.1v54.2Z" class="g5_316"/>
<path d="M141.6,103v50c.5,-.3,1,-.4,1.5,-.4h33.7v-50H143.1c-.5,0,-1,.2,-1.5,.4Z" class="g6_316"/>
<path d="M137.7,109v47.8c0,0,2.5,-3.1,3.9,-3.8V103c-2.2,1.1,-3.9,4.3,-3.9,6Z" class="g7_316"/>
<path d="M143.5,112.3h29.1v-1.4H143.5v1.4Z" class="g5_316"/>
<path d="M143.5,115.5h29.1v-1.4H143.5v1.4Z" class="g5_316"/>
<path d="M143.5,118.8h29.1v-1.5H143.5v1.5Z" class="g5_316"/>
<path d="M143.5,122h29.1v-1.5H143.5V122Z" class="g5_316"/>
<path d="M143.5,125.2h29.1v-1.5H143.5v1.5Z" class="g5_316"/>
<path d="M143.5,128.4h29.1v-1.5H143.5v1.5Z" class="g5_316"/>
<path d="M143.5,131.6h29.1v-1.5H143.5v1.5Z" class="g5_316"/>
<path d="M143.5,134.8h29.1v-1.5H143.5v1.5Z" class="g5_316"/>
<path d="M143.5,138h29.1v-1.4H143.5V138Z" class="g5_316"/>
<path d="M143.5,141.2h29.1v-1.4H143.5v1.4Z" class="g5_316"/>
<path d="M143.5,144.4h29.1V143H143.5v1.4Z" class="g5_316"/>
<path d="M143.5,147.6h29.1v-1.4H143.5v1.4Z" class="g5_316"/>
<path d="M159.7,150.9l1,-.9l1,.9v-49h-2Z" class="g8_316"/>
<path d="M120.9,156.8h16.8V136.6H120.9v20.2Z" class="g9_316"/>
<path d="M98.6,156.8h33.6V102.6H98.6v54.2Z" class="g9_316"/>
<path d="M98.6,102.6v50h33.6c.6,0,1.1,.1,1.6,.4V103c-.5,-.2,-1,-.4,-1.6,-.4Z" class="g6_316"/>
<path d="M133.8,103v50c1.4,.7,3.9,3.8,3.9,3.8V109c0,-1.7,-1.7,-4.9,-3.9,-6Z" class="ga_316"/>
<path d="M109.7,112.3h14.5v-1.4H109.7v1.4Z" class="g5_316"/>
<path d="M102.8,118.8h29.1v-1.5H102.8v1.5Z" class="g5_316"/>
<path d="M102.8,122h29.1v-1.5H102.8V122Z" class="g5_316"/>
<path d="M102.8,125.2h29.1v-1.5H102.8v1.5Z" class="g5_316"/>
<path d="M102.8,128.4h29.1v-1.5H102.8v1.5Z" class="g5_316"/>
<path d="M102.8,131.6h29.1v-1.5H102.8v1.5Z" class="g5_316"/>
<path d="M102.8,134.8h29.1v-1.5H102.8v1.5Z" class="g5_316"/>
<path d="M102.8,138h29.1v-1.4H102.8V138Z" class="g5_316"/>
<path d="M102.8,141.2h29.1v-1.4H102.8v1.4Z" class="g5_316"/>
<path d="M102.8,144.4h29.1V143H102.8v1.4Z" class="g5_316"/>
<path d="M102.8,147.6h29.1v-1.4H102.8v1.4Z" class="g5_316"/>
<path d="M145.1,793.5c0,0,-13,0,-13,13v416.1c0,0,0,13,13,13H832.9c0,0,13,0,13,-13V806.5c0,0,0,-13,-13,-13Z" class="g6_316"/>
<path d="M145.1,793.5c0,0,-13,0,-13,13v416.1c0,0,0,13,13,13H832.9c0,0,13,0,13,-13V806.5c0,0,0,-13,-13,-13H145.1Z" class="gb_316"/>
<path d="M145.1,306c0,0,-13,0,-13,13V683c0,0,0,13,13,13H832.9c0,0,13,0,13,-13V319c0,0,0,-13,-13,-13Z" class="g6_316"/>
<path d="M145.1,306c0,0,-13,0,-13,13V683c0,0,0,13,13,13H832.9c0,0,13,0,13,-13V319c0,0,0,-13,-13,-13H145.1Z" class="gb_316"/>
<path d="M608.4,1255.8c0,0,-4.3,0,-4.3,4.4V1271c0,0,0,4.3,4.3,4.3h30.4c0,0,4.3,0,4.3,-4.3v-10.8c0,0,0,-4.4,-4.3,-4.4Z" class="gc_316"/>
<path d="M595.3,1247v37.6m1.3,.9H845.1m1,-1.3v-37.6m-1.4,-.9H596.2" class="gd_316"/>
<path d="M595.3,1284.9v.6h.5m249.7,0h.6v-.6m0,-38.7v-.5h-.6m-249.7,0h-.5v.5" class="ge_316"/>
<path d="M359.4,835.9H618.5V814.5H359.4v21.4Z" class="g6_316"/>
<path d="M539.3,1047.2H826.8V800.4H539.3v246.8Z" class="gf_316"/>
<path d="M711.6,847.8h80.1" class="gg_316"/>
<path d="M647.6,896.4H809.4M647.6,947.8H809.4M647.6,994.4H809.4" class="gh_316"/>
<path d="M539.3,831.8H826.8V810.1H539.3v21.7Z" class="gi_316"/>
<path d="M211.9,220.5c0,0,-13,0,-13,13v47.6c0,0,0,13,13,13H833.5c0,0,13,0,13,-13V233.5c0,0,0,-13,-13,-13Z" class="gj_316"/>
<image clip-path="url(#c1_316)" preserveAspectRatio="none" x="155" y="217" width="75" height="76" xlink:href="img/1.png"/>
<path d="M206.7,286.7c0,0,-26.9,11.3,-51.1,-12.7c0,0,15.2,25.3,49.3,23.9c0,0,24.7,.4,20.2,-10.1c0,0,1.3,-4.4,-18.4,-1.1Z" class="gj_316"/>
<path d="M211.9,710.9c0,0,-13,0,-13,12.9v47.7c0,0,0,13,13,13H833.5c0,0,13,0,13,-13V723.8c0,0,0,-12.9,-13,-12.9Z" class="gj_316"/>
<image clip-path="url(#c2_316)" preserveAspectRatio="none" x="155" y="707" width="75" height="76" xlink:href="img/2.png"/>
<path d="M206.7,777.1c0,0,-26.9,11.3,-51.1,-12.7c0,0,15.2,25.3,49.3,23.9c0,0,24.7,.4,20.2,-10.1c0,0,1.3,-4.5,-18.4,-1.1Z" class="gj_316"/>
<path d="M201,412.8H807.3v-65H201v65Z" class="gk_316"/>
<path d="M232.2,401.1H281" class="gh_316"/>
<path d="M201,538.1H807.3V451.5H201v86.6Z" class="gk_316"/>
<path d="M433.1,478.8h59.8" class="gh_316"/>
<path d="M201,637.4H807.3V572.5H201v64.9Z" class="gk_316"/>
<path d="M232.2,599.8H506.9" class="gh_316"/>
<path d="M199.8,1081.8l-19.4,-6.2l19.4,24.2Z" class="gk_316"/>
<path d="M195.7,1172.4H828V1053H195.7v119.4Z" class="gk_316"/>
<path d="M32.1,45.1H9.2m958.3,0h22.9M32.1,1331.3H9.2m958.3,0h22.9M45.1,32.1V9.2m0,1335.1v22.9M954.5,32.1V9.2m0,1335.1v22.9" class="gl_316"/>
<path d="M32.1,45.1H9.2m958.3,0h22.9M32.1,1331.3H9.2m958.3,0h22.9M45.1,32.1V9.2m0,1335.1v22.9M954.5,32.1V9.2m0,1335.1v22.9" class="gm_316"/>
<path d="M27.5,32.1H0m972.1,0h27.5M27.5,1344.3H0m972.1,0h27.5M32.1,27.5V0m0,1348.9v27.5M967.5,27.5V0m0,1348.9v27.5" class="gl_316"/>
<path d="M27.5,32.1H0m972.1,0h27.5M27.5,1344.3H0m972.1,0h27.5M32.1,27.5V0m0,1348.9v27.5M967.5,27.5V0m0,1348.9v27.5" class="gm_316"/>
</svg>