<?xml version="1.0" encoding="UTF-8" standalone="no"?>
<!DOCTYPE svg PUBLIC "-//W3C//DTD SVG 1.1//EN"
"http://www.w3.org/Graphics/SVG/1.1/DTD/svg11.dtd">
<svg viewBox="0 0 999 1376" version="1.1" xmlns="http://www.w3.org/2000/svg" xmlns:xlink="http://www.w3.org/1999/xlink">
<defs>
<clipPath id="c0_211"><path d="M32.1,1344.3V32.1H967.5V1344.3Z"/></clipPath>
<clipPath id="c1_211"><path d="M203.6,565.5V484.1H343.8v81.4Z"/></clipPath>
<clipPath id="c2_211"><path d="M360.3,565.5V484.1H500.5v81.4Z"/></clipPath>
<clipPath id="c3_211"><path d="M517.1,565.5V484.1H657.3v81.4Z"/></clipPath>
<clipPath id="c4_211"><path d="M673.8,565.5V484.1H814v81.4Z"/></clipPath>
<clipPath id="c5_211"><path d="M203.6,699.2V617.8H343.8v81.4Z"/></clipPath>
<clipPath id="c6_211"><path d="M360.3,699.2V617.8H500.5v81.4Z"/></clipPath>
<clipPath id="c7_211"><path d="M517.1,699.2V617.8H657.3v81.4Z"/></clipPath>
<clipPath id="c8_211"><path d="M673.8,699.2V617.8H814v81.4Z"/></clipPath>
<clipPath id="c9_211"><path d="M203.6,846.9V765.5H343.8v81.4Z"/></clipPath>
<clipPath id="ca_211"><path d="M360.3,846.9V765.5H500.5v81.4Z"/></clipPath>
<clipPath id="cb_211"><path d="M517.1,846.9V765.5H657.3v81.4Z"/></clipPath>
<clipPath id="cc_211"><path d="M673.8,846.9V765.5H814v81.4Z"/></clipPath>
<clipPath id="cd_211"><path d="M458.5,1157v-91.9H559V1157Z"/></clipPath>
<clipPath id="ce_211"><path d="M577.4,1157v-91.9H677.8V1157Z"/></clipPath>
<clipPath id="cf_211"><path d="M336.2,1157v-91.9H436.6V1157Z"/></clipPath>
<clipPath id="cg_211"><path d="M216.8,1156.5v-91.4H317.3v91.4Z"/></clipPath>
<clipPath id="ch_211"><path d="M198.6,319.6l-6.5,-2.1l-16.4,-14v-57h72v73.1Z"/></clipPath>
<clipPath id="ci_211"><path d="M200.7,988.9l-6.5,-2.1L177.8,972.9V915.8h72v73.1Z"/></clipPath>
<clipPath id="cj_211"><path d="M203.6,414.2V332.8H343.8v81.4Z"/></clipPath>
<clipPath id="ck_211"><path d="M360.3,414.2V332.8H500.5v81.4Z"/></clipPath>
<clipPath id="cl_211"><path d="M517.1,414.2V332.8H657.3v81.4Z"/></clipPath>
<clipPath id="cm_211"><path d="M673.8,414.2V332.8H814v81.4Z"/></clipPath>
<clipPath id="cn_211"><path d="M658.6,177V59h200V177Z"/></clipPath>
<style type="text/css"><![CDATA[
.g0_211{
fill: #FEFCF4;
}
.g1_211{
fill: #FFF;
}
.g2_211{
fill: none;
stroke: #6381B7;
stroke-width: 0.763;
}
.g3_211{
fill: none;
stroke: #949698;
stroke-width: 1.268;
}
.g4_211{
fill: none;
stroke: #949698;
stroke-width: 0.458;
}
.g5_211{
fill: #48484A;
}
.g6_211{
fill: #F0E8F3;
}
.g7_211{
fill: #766FA6;
}
.g8_211{
fill: #6381B7;
}
.g9_211{
fill: none;
stroke: #6381B7;
stroke-width: 0.381;
stroke-dasharray: 2,1;
}
.ga_211{
fill: none;
stroke: #6381B7;
stroke-width: 0.381;
}
.gb_211{
fill: #FCE8B0;
}
.gc_211{
fill: #2E6E51;
}
.gd_211{
fill: #BCBEC0;
}
.ge_211{
fill: #EE314A;
}
.gf_211{
fill: #25408F;
}
.gg_211{
fill: #00BAF1;
}
.gh_211{
fill: #332D2C;
}
.gi_211{
fill: #D9DFF0;
}
.gj_211{
fill: #F27C85;
}
.gk_211{
fill: #7DD3F6;
}
.gl_211{
fill: none;
stroke: #FFF;
stroke-width: 1.909;
stroke-miterlimit: 10;
}
.gm_211{
fill: none;
stroke: #000;
stroke-width: 0.381;
stroke-miterlimit: 10;
}
]]></style>
</defs>
<path clip-path="url(#c0_211)" d="M-877.3,1344.3H45.1V32.1H-877.3V1344.3Z" class="g0_211"/>
<path d="M45.1,1344.3H967.5V32.1H45.1V1344.3Z" class="g0_211"/>
<path d="M172.1,224.6c0,0,-18.4,0,-18.4,18.4V883.8c0,0,0,18.4,18.4,18.4H849.2c0,0,18.3,0,18.3,-18.4V224.6Z" class="g1_211"/>
<path d="M172.1,224.6c0,0,-18.4,0,-18.4,18.4V883.8c0,0,0,18.4,18.4,18.4H849.2c0,0,18.3,0,18.3,-18.4V224.6H172.1Z" class="g2_211"/>
<path d="M193.2,568.8H846.3V480.5H193.2v88.3Z" class="g1_211"/>
<image clip-path="url(#c1_211)" preserveAspectRatio="none" x="202" y="483" width="143" height="84" xlink:href="img/1.jpg"/>
<path d="M203.6,565.5H343.8V484.1H203.6v81.4Z" class="g3_211"/>
<image clip-path="url(#c2_211)" preserveAspectRatio="none" x="359" y="483" width="143" height="84" xlink:href="img/2.jpg"/>
<path d="M360.3,565.5H500.5V484.1H360.3v81.4Z" class="g3_211"/>
<image clip-path="url(#c3_211)" preserveAspectRatio="none" x="516" y="483" width="143" height="84" xlink:href="img/3.jpg"/>
<path d="M517.1,565.5H657.3V484.1H517.1v81.4Z" class="g3_211"/>
<image clip-path="url(#c4_211)" preserveAspectRatio="none" x="673" y="483" width="143" height="84" xlink:href="img/4.jpg"/>
<path d="M673.8,565.5H814V484.1H673.8v81.4Z" class="g3_211"/>
<path d="M193.2,702.2H841.9V614.8H193.2v87.4Z" class="g1_211"/>
<image clip-path="url(#c5_211)" preserveAspectRatio="none" x="204" y="618" width="141" height="83" xlink:href="img/5.jpg"/>
<path d="M203.6,699.2H343.8V617.8H203.6v81.4Z" class="g3_211"/>
<image clip-path="url(#c6_211)" preserveAspectRatio="none" x="360" y="618" width="141" height="82" xlink:href="img/6.jpg"/>
<path d="M360.3,699.2H500.5V617.8H360.3v81.4Z" class="g3_211"/>
<image clip-path="url(#c7_211)" preserveAspectRatio="none" x="517" y="616" width="140" height="84" xlink:href="img/7.jpg"/>
<path d="M517.1,699.2H657.3V617.8H517.1v81.4Z" class="g3_211"/>
<image clip-path="url(#c8_211)" preserveAspectRatio="none" x="672" y="616" width="143" height="85" xlink:href="img/8.jpg"/>
<path d="M673.8,699.2H814V617.8H673.8v81.4Z" class="g3_211"/>
<path d="M193.2,848.4H846.3V763.9H193.2v84.5Z" class="g1_211"/>
<image clip-path="url(#c9_211)" preserveAspectRatio="none" x="204" y="764" width="141" height="84" xlink:href="img/9.jpg"/>
<path d="M203.6,846.9H343.8V765.5H203.6v81.4Z" class="g3_211"/>
<image clip-path="url(#ca_211)" preserveAspectRatio="none" x="359" y="764" width="143" height="84" xlink:href="img/10.jpg"/>
<path d="M360.3,846.9H500.5V765.5H360.3v81.4Z" class="g3_211"/>
<image clip-path="url(#cb_211)" preserveAspectRatio="none" x="516" y="764" width="143" height="84" xlink:href="img/11.jpg"/>
<path d="M517.1,846.9H657.3V765.5H517.1v81.4Z" class="g3_211"/>
<image clip-path="url(#cc_211)" preserveAspectRatio="none" x="672" y="764" width="144" height="84" xlink:href="img/12.jpg"/>
<path d="M673.8,846.9H814V765.5H673.8v81.4Z" class="g3_211"/>
<path d="M166.5,1001.1c0,0,-13,0,-13,13v171.7c0,0,0,13,13,13H854.8c0,0,13,0,13,-13V1014.1c0,0,0,-13,-13,-13Z" class="g1_211"/>
<path d="M166.5,1001.1c0,0,-13,0,-13,13v171.7c0,0,0,13,13,13H854.8c0,0,13,0,13,-13V1014.1c0,0,0,-13,-13,-13H166.5Z" class="g2_211"/>
<image clip-path="url(#cd_211)" preserveAspectRatio="none" x="459" y="1064" width="101" height="94" xlink:href="img/13.jpg"/>
<path d="M458.5,1187.4H558.9v-30.7H458.5v30.7Z" class="g4_211"/>
<image clip-path="url(#ce_211)" preserveAspectRatio="none" x="576" y="1064" width="103" height="94" xlink:href="img/14.jpg"/>
<path d="M577.4,1187.4H677.8v-30.7H577.4v30.7Z" class="g4_211"/>
<image clip-path="url(#cf_211)" preserveAspectRatio="none" x="335" y="1064" width="103" height="94" xlink:href="img/15.jpg"/>
<path d="M336.2,1187.4H436.6v-30.7H336.2v30.7Z" class="g4_211"/>
<image clip-path="url(#cg_211)" preserveAspectRatio="none" x="216" y="1064" width="102" height="93" xlink:href="img/16.jpg"/>
<path d="M216.8,1187.4H317.3v-30.7H216.8v30.7Z" class="g4_211"/>
<path d="M720.1,1058.1c0,0,-4.3,0,-4.3,4.3v14.7c0,0,0,4.4,4.1,5.8l52.4,18.6c0,0,4.1,1.4,4.1,-2.9v-36.2c0,0,0,-4.3,-4.3,-4.3Z" class="g5_211"/>
<path d="M741.3,1045.1c0,0,-13,0,-13,13v111.7c0,0,0,13,13,13h83.3c0,0,13,0,13,-13V1058.1c0,0,0,-13,-13,-13Z" class="g6_211"/>
<path d="M720.1,1055.9c0,0,-4.3,0,-4.3,4.3v17.4c0,0,0,4.3,4.3,4.3h37.3c0,0,4.3,0,4.3,-4.3v-17.4c0,0,0,-4.3,-4.3,-4.3Z" class="g7_211"/>
<path d="M587.7,1214.8c0,0,-4.3,0,-4.3,4.4V1230c0,0,0,4.3,4.3,4.3H618c0,0,4.4,0,4.4,-4.3v-10.8c0,0,0,-4.4,-4.4,-4.4Z" class="g8_211"/>
<path d="M574.5,1206v37.5m1.4,1H867.7m.9,-1.3v-37.6m-1.3,-1H575.5" class="g9_211"/>
<path d="M574.5,1243.9v.6h.6m293,0h.5v-.6m0,-38.7v-.6h-.5m-293,0h-.6v.6" class="ga_211"/>
<path d="M231.2,274.6c0,0,-12.9,0,-12.9,13v21.6c0,0,0,13,12.9,13H833.3c0,0,13,0,13,-13V287.6c0,0,0,-13,-13,-13Z" class="gb_211"/>
<image clip-path="url(#ch_211)" preserveAspectRatio="none" x="174" y="245" width="75" height="76" xlink:href="img/17.png"/>
<path d="M226,314.9c0,0,-26.8,11.3,-51.1,-12.8c0,0,15.2,25.3,49.3,24c0,0,24.8,.3,20.3,-10.1c0,0,1.2,-4.5,-18.5,-1.1Z" class="gb_211"/>
<path d="M233.3,943.9c0,0,-13,0,-13,13v21.7c0,0,0,13,13,13H854.9c0,0,13,0,13,-13V956.9c0,0,0,-13,-13,-13Z" class="gb_211"/>
<image clip-path="url(#ci_211)" preserveAspectRatio="none" x="176" y="914" width="75" height="77" xlink:href="img/18.png"/>
<path d="M228.1,984.2c0,0,-26.8,11.3,-51.1,-12.8c0,0,15.2,25.4,49.3,24c0,0,24.8,.3,20.3,-10.1c0,0,1.2,-4.5,-18.5,-1.1Z" class="gb_211"/>
<image clip-path="url(#cj_211)" preserveAspectRatio="none" x="202" y="331" width="143" height="85" xlink:href="img/19.jpg"/>
<path d="M203.6,414.2H343.8V332.8H203.6v81.4Z" class="g3_211"/>
<image clip-path="url(#ck_211)" preserveAspectRatio="none" x="359" y="331" width="143" height="84" xlink:href="img/20.jpg"/>
<path d="M360.3,414.2H500.5V332.8H360.3v81.4Z" class="g3_211"/>
<image clip-path="url(#cl_211)" preserveAspectRatio="none" x="516" y="331" width="142" height="84" xlink:href="img/21.jpg"/>
<path d="M517.1,414.2H657.3V332.8H517.1v81.4Z" class="g3_211"/>
<image clip-path="url(#cm_211)" preserveAspectRatio="none" x="672" y="331" width="143" height="84" xlink:href="img/22.jpg"/>
<path d="M673.8,414.2H814V332.8H673.8v81.4Z" class="g3_211"/>
<path d="M187.1,463.9H832.9V416.2H187.1v47.7Z" class="g1_211"/>
<path d="M32.1,179.3H967.5V32.1H32.1V179.3Z" class="gc_211"/>
<g clip-path="url(#c0_211)">
<path d="M967.5,177.2H-877.3v-5.4h736.6c43.1,0,53.1,-37.9,115.3,-37.9H967.5Z" class="gd_211"/>
<path d="M967.5,183.7H-877.3v-9.8h736.6c43.1,0,53.1,-33.6,115.3,-33.6H967.5Z" class="ge_211"/>
</g>
<image clip-path="url(#cn_211)" preserveAspectRatio="none" x="659" y="59" width="200" height="118" xlink:href="img/23.png"/>
<path d="M153.3,217.5v22.2L165,250V227.8Z" class="gf_211"/>
<path d="M153.3,200.7v39H851.1c0,0,16.8,0,16.8,-16.8v-5.4c0,0,0,-16.8,-16.8,-16.8Z" class="g8_211"/>
<path d="M211.3,212.1l-6.5,-6.4l-21.2,21.2l6.5,6.4Z" class="gg_211"/>
<path d="M190.1,233.9c.1,0,.3,-.1,.4,-.2l21.2,-21.2c.1,-.1,.1,-.2,.1,-.4c0,-.1,0,-.2,-.1,-.3l-6.5,-6.5c-.2,-.2,-.6,-.2,-.8,0l-21.2,21.2c-.1,.1,-.1,.2,-.1,.4c0,.1,0,.2,.1,.3l6.5,6.5c.1,.1,.3,.2,.4,.2m20.5,-21.8l-20.5,20.5l-5.8,-5.7l20.5,-20.5Z" class="gh_211"/>
<path d="M211.3,212.1l-6.5,-6.4l2.1,-2.2l6.5,6.5Z" class="gi_211"/>
<path d="M211.3,212.7c.1,0,.3,-.1,.4,-.2l2.1,-2.1c.1,-.1,.2,-.2,.2,-.4c0,-.1,-.1,-.3,-.2,-.4l-6.5,-6.4c-.2,-.3,-.5,-.3,-.7,0l-2.2,2.1c-.1,.1,-.1,.2,-.1,.4c0,.1,0,.2,.1,.3l6.5,6.5c.1,.1,.3,.2,.4,.2m1.4,-2.7l-1.4,1.4l-5.7,-5.7l1.3,-1.4Z" class="gh_211"/>
<path d="M217,206.4l-6.4,-6.5l-3.7,3.6l6.5,6.5Z" class="gj_211"/>
<path d="M213.4,210.5c.2,0,.3,0,.4,-.1l3.6,-3.6c.2,-.2,.2,-.6,0,-.8l-6.5,-6.5c-.2,-.2,-.5,-.2,-.7,0l-3.6,3.7c-.2,.2,-.2,.5,0,.7l6.5,6.5c.1,.1,.2,.1,.3,.1m2.9,-4.1l-2.9,2.9l-5.7,-5.8l2.9,-2.8Z" class="gh_211"/>
<path d="M179,238l4.6,-11.1l6.5,6.4Z" class="g1_211"/>
<path d="M179,238.5c0,0,.1,0,.2,0l11.1,-4.7c.2,0,.3,-.2,.3,-.4c0,-.1,0,-.3,-.1,-.4L184,226.5c-.1,-.1,-.3,-.2,-.5,-.1c-.2,0,-.3,.1,-.4,.3l-4.6,11.1c-.1,.2,0,.4,.1,.6c.1,.1,.2,.1,.4,.1m10.2,-5.3l-9.3,3.8l3.9,-9.2Z" class="gh_211"/>
<path d="M179,238l2.2,-5.4l3.1,3.1Z" class="gh_211"/>
<path d="M179,238.5c0,0,.1,0,.2,0l5.3,-2.3c.2,0,.3,-.2,.4,-.4c0,-.1,-.1,-.3,-.2,-.4l-3.1,-3.2c-.1,-.1,-.3,-.1,-.5,-.1c-.2,0,-.3,.2,-.4,.3l-2.2,5.4c-.1,.2,0,.4,.1,.6c.1,.1,.2,.1,.4,.1m4.4,-2.9l-3.5,1.4l1.5,-3.5Z" class="gh_211"/>
<path d="M209.5,210.4l-2.9,-3l-21.2,21.2l2.9,3Z" class="gk_211"/>
<path d="M188.3,232.1c.2,0,.3,0,.4,-.1l21.2,-21.2c.1,-.1,.2,-.3,.2,-.4c0,-.2,-.1,-.3,-.2,-.4l-3,-3c-.2,-.2,-.5,-.2,-.7,0L185,228.3c-.1,.1,-.2,.2,-.2,.3c0,.2,.1,.3,.2,.4l3,3c.1,.1,.2,.1,.3,.1m20.5,-21.7l-20.5,20.4l-2.2,-2.2l20.5,-20.4Z" class="gh_211"/>
<path d="M32.1,45.1H9.2m958.3,0h22.9M32.1,1331.3H9.2m958.3,0h22.9M45.1,32.1V9.2m0,1335.1v22.9M954.5,32.1V9.2m0,1335.1v22.9" class="gl_211"/>
<path d="M32.1,45.1H9.2m958.3,0h22.9M32.1,1331.3H9.2m958.3,0h22.9M45.1,32.1V9.2m0,1335.1v22.9M954.5,32.1V9.2m0,1335.1v22.9" class="gm_211"/>
<path d="M27.5,32.1H0m972.1,0h27.5M27.5,1344.3H0m972.1,0h27.5M32.1,27.5V0m0,1348.9v27.5M967.5,27.5V0m0,1348.9v27.5" class="gl_211"/>
<path d="M27.5,32.1H0m972.1,0h27.5M27.5,1344.3H0m972.1,0h27.5M32.1,27.5V0m0,1348.9v27.5M967.5,27.5V0m0,1348.9v27.5" class="gm_211"/>
</svg>