<?xml version="1.0" encoding="UTF-8" standalone="no"?>
<!DOCTYPE svg PUBLIC "-//W3C//DTD SVG 1.1//EN"
"http://www.w3.org/Graphics/SVG/1.1/DTD/svg11.dtd">
<svg viewBox="0 0 999 1376" version="1.1" xmlns="http://www.w3.org/2000/svg" xmlns:xlink="http://www.w3.org/1999/xlink">
<defs>
<clipPath id="c0_40"><path d="M32.1,1344.3V32.1H967.5V1344.3Z"/></clipPath>
<clipPath id="c1_40"><path d="M181.6,291.8l-6.5,-2l-14,-11.3V217.6h62.7v74.2Z"/></clipPath>
<clipPath id="c2_40"><path d="M181.3,646.8l-6.4,-2L160.8,633.6V572.7h62.7v74.1Z"/></clipPath>
<style type="text/css"><![CDATA[
.g0_40{
fill: #FFFDEA;
}
.g1_40{
fill: #BCE4EA;
}
.g2_40{
fill: #BCBEC0;
}
.g3_40{
fill: #00AABD;
}
.g4_40{
fill: #FCDCBA;
}
.g5_40{
fill: #D2D3D5;
}
.g6_40{
fill: #949698;
}
.g7_40{
fill: none;
stroke: #6D6F71;
stroke-width: 0.305;
stroke-miterlimit: 10;
}
.g8_40{
fill: #FFF;
}
.g9_40{
fill: none;
stroke: #FFF;
stroke-width: 1.909;
stroke-miterlimit: 10;
}
.ga_40{
fill: none;
stroke: #000;
stroke-width: 0.381;
stroke-miterlimit: 10;
}
]]></style>
</defs>
<g clip-path="url(#c0_40)">
<path d="M32.1,1344.3H1877V32.1H32.1V1344.3Z" class="g0_40"/>
<path d="M32.1,179.3H1877V32.1H32.1V179.3Z" class="g1_40"/>
<path d="M1877,177.2H32.1v-5.4H768.7c43.1,0,53,-37.9,115.3,-37.9h993Z" class="g2_40"/>
<path d="M1877,183.7H32.1v-9.8H768.7c43.1,0,53,-33.6,115.3,-33.6h993Z" class="g3_40"/>
</g>
<path d="M214.2,246.8c0,0,-13,0,-13,13v21.6c0,0,0,13,13,13H833.3c0,0,13,0,13,-13V259.8c0,0,0,-13,-13,-13Z" class="g4_40"/>
<image clip-path="url(#c1_40)" preserveAspectRatio="none" x="161" y="217" width="63" height="76" xlink:href="img/1.png"/>
<path d="M209,287.1c0,0,-26.8,11.3,-51.1,-12.8c0,0,15.2,25.3,49.3,24c0,0,24.8,.3,20.3,-10.1c0,0,1.2,-4.5,-18.5,-1.1Z" class="g4_40"/>
<path d="M359.9,413.3h56.3V517.2H359.9V413.3Zm189.2,0H655.9v52H549.1v-52Z" class="g5_40"/>
<path d="M416.2,413.3h56.3V517.2H416.2V413.3Zm132.9,52H655.9v51.9H549.1V465.3Z" class="g6_40"/>
<path d="M359.8,413.3h56.4m-56.3,52V413.4m56.3,-.1h56.5m-56.5,52V413.4m56.3,51.9V413.4m76.4,-.1H656M549.1,465.1V413.4m106.8,51.7V413.4m-296,103.7V465.3m56.3,51.8V465.3m56.3,51.8V465.3m76.4,0H656M549.1,517.1V465.4m106.8,51.7V465.4M359.8,517.2h56.4m0,0h56.5m76.2,0H656" class="g7_40"/>
<path d="M214,601.8c0,0,-13,0,-13,13v21.7c0,0,0,13,13,13H833c0,0,13,0,13,-13V614.8c0,0,0,-13,-13,-13Z" class="g4_40"/>
<image clip-path="url(#c2_40)" preserveAspectRatio="none" x="161" y="572" width="63" height="76" xlink:href="img/2.png"/>
<path d="M208.8,642.1c0,0,-26.9,11.3,-51.1,-12.7c0,0,15.1,25.3,49.3,23.9c0,0,24.7,.4,20.2,-10.1c0,0,1.2,-4.4,-18.4,-1.1Z" class="g4_40"/>
<path d="M209.6,683.5h52v65h-52v-65Zm86.7,0h51.9v324.8H296.3V683.5Zm103.9,0h77.9v65H400.2v-65Zm177.6,0h51.9v65H577.8v-65Zm86.6,0h51.9v324.8H664.4V683.5Zm103.9,0h78v65h-78v-65Zm-558.7,65h52v65h-52v-65Zm190.6,0h77.9v65H400.2v-65Zm177.6,0h51.9v65H577.8v-65Zm190.5,0h78v65h-78v-65Zm-558.7,65h52v64.9h-52V813.5Zm190.6,0h77.9v64.9H400.2V813.5Zm177.6,0h51.9v64.9H577.8V813.5Zm190.5,0h78v64.9h-78V813.5ZM209.6,878.4h52v65h-52v-65Zm190.6,0h77.9v65H400.2v-65Zm177.6,0h51.9v65H577.8v-65Zm190.5,0h78v65h-78v-65Zm-558.7,65h52v64.9h-52V943.4Zm190.6,0h77.9v64.9H400.2V943.4Zm177.6,0h51.9v64.9H577.8V943.4Zm190.5,0h78v64.9h-78V943.4Z" class="g8_40"/>
<path d="M261.6,748.3V683.7m34.5,-.2h52.3m-.2,65V683.7m129.9,64.6V683.7m151.6,64.6V683.7m34.5,-.2h52.3m-.2,65V683.7m130,64.6V683.7M261.6,813.3V748.6m34.7,64.9v-65m51.9,65v-65m52,64.8V748.6m77.9,64.7V748.6m151.6,64.7V748.6m34.7,64.9v-65m51.9,65v-65m52,64.8V748.6m78,64.7V748.6M261.6,878.3V813.6m34.7,64.8V813.5m51.9,64.9V813.5m52,64.8V813.6m77.9,64.7V813.6m151.6,64.7V813.6m34.7,64.8V813.5m51.9,64.9V813.5m52,64.8V813.6m78,64.7V813.6M261.6,943.2V878.6m34.7,64.8v-65m51.9,65v-65m52,64.8V878.6m77.9,64.6V878.6m151.6,64.6V878.6m34.7,64.8v-65m51.9,65v-65m52,64.8V878.6m78,64.6V878.6M261.6,1008.2V943.5m34.7,64.7V943.4m51.9,64.8V943.4m52,64.8V943.5m77.9,64.7V943.5m151.6,64.7V943.5m34.7,64.7V943.4m51.9,64.8V943.4m52,64.8V943.5m78,64.7V943.5m-550.2,64.8h52.3m315.8,0h52.3M209.5,683.5h52.3m-52.2,64.8V683.7M400,683.5h78.3m99.3,0h52.3m-52.1,64.8V683.7m190.4,-.2h78.2m-636.9,65h52.3m-52.2,64.8V748.6M400,748.5h78.3m99.3,0h52.3m-52.1,64.8V748.6m190.4,-.1h78.2m-636.9,65h52.3m-52.2,64.8V813.6M400,813.5h78.3m99.3,0h52.3m-52.1,64.8V813.6m190.4,-.1h78.2M209.5,878.4h52.3m-52.2,64.8V878.6M400,878.4h78.3m99.3,0h52.3m-52.1,64.8V878.6m190.4,-.2h78.2m-636.9,65h52.3m-52.2,64.8V943.5M400,943.4h78.3m99.3,0h52.3m-52.1,64.8V943.5m190.4,-.1h78.2m-636.9,64.9h52.3m138.2,0h78.3m99.3,0h52.3m138.3,0h78.2M400.2,748.3V683.7M296.3,748.5V683.7m368.1,64.8V683.7m103.9,64.6V683.7" class="g7_40"/>
<path d="M265.9,801.1h26.9V682.4H265.9V801.1Z" class="g0_40"/>
<path d="M265.9,1001.2h26.9V882.5H265.9v118.7Z" class="g0_40"/>
<path d="M633.4,810.2h26.9V691.5H633.4V810.2Z" class="g0_40"/>
<path d="M633.4,1010.2h26.9V891.6H633.4v118.6Z" class="g0_40"/>
<path d="M32.1,45.1H9.2m958.3,0h22.9M32.1,1331.3H9.2m958.3,0h22.9M45.1,32.1V9.2m0,1335.1v22.9M954.5,32.1V9.2m0,1335.1v22.9" class="g9_40"/>
<path d="M32.1,45.1H9.2m958.3,0h22.9M32.1,1331.3H9.2m958.3,0h22.9M45.1,32.1V9.2m0,1335.1v22.9M954.5,32.1V9.2m0,1335.1v22.9" class="ga_40"/>
<path d="M27.5,32.1H0m972.1,0h27.5M27.5,1344.3H0m972.1,0h27.5M32.1,27.5V0m0,1348.9v27.5M967.5,27.5V0m0,1348.9v27.5" class="g9_40"/>
<path d="M27.5,32.1H0m972.1,0h27.5M27.5,1344.3H0m972.1,0h27.5M32.1,27.5V0m0,1348.9v27.5M967.5,27.5V0m0,1348.9v27.5" class="ga_40"/>
</svg>