<?xml version="1.0" encoding="UTF-8" standalone="no"?>
<!DOCTYPE svg PUBLIC "-//W3C//DTD SVG 1.1//EN"
"http://www.w3.org/Graphics/SVG/1.1/DTD/svg11.dtd">
<svg viewBox="0 0 999 1376" version="1.1" xmlns="http://www.w3.org/2000/svg" xmlns:xlink="http://www.w3.org/1999/xlink">
<defs>
<clipPath id="c0_313"><path d="M154,1244.7V131.7H868.6v1113Z"/></clipPath>
<clipPath id="c1_313"><path d="M279.1,649.7V299.1H660.3V649.7Z"/></clipPath>
<clipPath id="c2_313"><path d="M198.4,1015.4V906.3H307.5v109.1Z"/></clipPath>
<clipPath id="c3_313"><path d="M369.1,1015.2V906.1H478.3v109.1Z"/></clipPath>
<clipPath id="c4_313"><path d="M539.9,1015.2V906.1H649.1v109.1Z"/></clipPath>
<clipPath id="c5_313"><path d="M710.3,1015.2V906.1H820.2v109.1Z"/></clipPath>
<style type="text/css"><![CDATA[
.g0_313{
fill: none;
stroke: #231F20;
stroke-width: 0.458;
stroke-dasharray: 2,1;
}
.g1_313{
fill: #FFF;
}
.g2_313{
fill: none;
stroke: #231F20;
stroke-width: 0.756;
stroke-miterlimit: 3;
}
.g3_313{
fill: #DAF0F6;
}
.g4_313{
fill: none;
stroke: #231F20;
stroke-width: 0.504;
stroke-dasharray: 2,2;
}
.g5_313{
fill: none;
stroke: #231F20;
stroke-width: 0.504;
stroke-dasharray: 2,1;
}
.g6_313{
fill: none;
stroke: #231F20;
stroke-width: 0.504;
}
.g7_313{
fill: none;
stroke: #949698;
stroke-width: 0.42;
}
.g8_313{
fill: #25408F;
}
.g9_313{
fill: #6381B7;
}
.ga_313{
fill: #FFDE2C;
}
.gb_313{
fill: none;
stroke: #231F20;
stroke-width: 1.451;
stroke-miterlimit: 10;
}
.gc_313{
fill: #D2D3D5;
}
.gd_313{
fill: #A8AAAD;
}
.ge_313{
fill: none;
stroke: #231F20;
stroke-width: 0.828;
stroke-miterlimit: 10;
}
.gf_313{
fill: #6CCFF6;
}
.gg_313{
fill: none;
stroke: #231F20;
stroke-width: 0.828;
stroke-linecap: round;
stroke-linejoin: round;
}
.gh_313{
fill: none;
stroke: #231F20;
stroke-width: 1.451;
stroke-linecap: round;
stroke-linejoin: round;
}
.gi_313{
fill: none;
stroke: #FFF;
stroke-width: 1.909;
stroke-miterlimit: 10;
}
.gj_313{
fill: none;
stroke: #000;
stroke-width: 0.381;
stroke-miterlimit: 10;
}
]]></style>
</defs>
<path d="M424.9,530.1h43.3" class="g0_313"/>
<path d="M154,1244.7H868.6V131.7H154v1113Z" class="g1_313"/>
<image clip-path="url(#c0_313)" preserveAspectRatio="none" x="152" y="130" width="718" height="1117" xlink:href="img/1.jpg"/>
<path d="M468.8,177.1h-4.4v12h-2.2V166.6h2.2v8.6h4.4v1.9Zm-22.4,5.8c2.8,-1.8,4.9,-3.8,6.5,-6c1.6,-2.2,2.5,-4.4,2.8,-6.7c0,-.3,0,-.6,-.2,-.7c-.1,-.1,-.3,-.1,-.6,-.1h-8.7v-1.8h9.7c.8,0,1.4,.2,1.7,.6c.3,.5,.4,1.1,.3,1.9c-.3,2.5,-1.3,5,-3,7.6c-1.6,2.5,-4.1,4.8,-7.2,7l-1.3,-1.8Zm37.7,-11.5h4.5v-5.1h2.2v10.8c0,1,-.1,1.8,-.4,2.6c-.4,.8,-1,1.6,-1.8,2.3c.5,.5,.8,1.1,1.1,1.7c.3,.7,.4,1.4,.4,2.1c0,.9,-.1,1.7,-.5,2.4c-.3,.7,-.8,1.3,-1.4,1.8c-.6,.5,-1.3,.9,-2,1.2c-.8,.3,-1.6,.4,-2.5,.4c-.8,0,-1.7,-.1,-2.4,-.4c-.8,-.3,-1.5,-.7,-2.1,-1.2c-.6,-.5,-1,-1.1,-1.4,-1.8c-.3,-.7,-.5,-1.5,-.5,-2.4c0,-.8,.2,-1.6,.5,-2.3c.4,-.7,.8,-1.3,1.4,-1.8c.6,-.5,1.3,-.9,2.1,-1.2c.7,-.3,1.6,-.5,2.4,-.5c.7,0,1.3,.1,1.8,.3c.6,.1,1.2,.3,1.7,.6c.6,-.6,1,-1.2,1.1,-1.8c.2,-.7,.3,-1.4,.3,-2.1v-3.8h-4.5v-1.8ZM472,166.7h8.6c.4,0,.7,.1,.9,.2c.3,.1,.4,.3,.5,.5c.1,.3,.2,.5,.2,.7c0,.3,0,.5,-.1,.7c-.1,.7,-.4,1.3,-.7,2c-.3,.7,-.7,1.4,-1.2,2c.6,.2,1.1,.4,1.4,.7c.4,.3,.7,.6,1,1c.4,.5,.7,1,1.1,1.6c.4,.5,.8,1.1,1.2,1.6l-1.6,1.2c-.2,-.3,-.4,-.5,-.6,-.8c-.2,-.3,-.4,-.5,-.6,-.8c-.1,-.2,-.3,-.5,-.5,-.8c-.2,-.2,-.4,-.5,-.6,-.8c-.3,-.3,-.5,-.6,-.8,-.8c-.3,-.3,-.7,-.5,-1.1,-.7c-.9,1,-2,1.9,-3.1,2.8c-1.2,.9,-2.5,1.6,-3.9,2.3l-1,-1.9c2.4,-1.1,4.2,-2.3,5.6,-3.7c1.4,-1.4,2.4,-2.9,3,-4.5c.1,-.2,.1,-.4,0,-.6c0,-.1,-.2,-.1,-.5,-.1H472v-1.8ZM486.7,183c-.7,-.8,-1.7,-1.2,-3,-1.2c-1.2,0,-2.2,.4,-3,1.2c-.7,.7,-1.1,1.7,-1.1,2.8c0,1.2,.4,2.2,1.1,2.9c.8,.7,1.8,1.1,3,1.1c1.3,0,2.3,-.4,3,-1.1c.8,-.7,1.2,-1.7,1.2,-2.9c0,-1.1,-.4,-2.1,-1.2,-2.8Zm27.5,-15.6V182c-.9,.4,-1.9,.8,-3,1.2c-1.2,.4,-2.3,.5,-3.3,.5h-3.3c-.8,0,-1.5,-.2,-1.9,-.6c-.4,-.3,-.6,-1,-.6,-1.8V167.4h2.2v6.3h7.6v-6.3h2.3Zm5,-.8h2.3v22.5h-2.3V166.6Zm-9.5,15c.8,-.1,1.5,-.4,2.2,-.7v-5.4h-7.6v5.6c0,.3,.1,.5,.2,.6c.1,.1,.3,.2,.6,.2h2.6c.6,0,1.2,-.1,2,-.3Zm33.9,-15.3v6h4.3v1.8h-4.3v3c0,1,-.2,1.8,-.4,2.6c-.3,.8,-.9,1.6,-1.7,2.3c.5,.5,.8,1.1,1.1,1.7c.3,.7,.4,1.4,.4,2.1c0,.9,-.1,1.7,-.5,2.4c-.3,.7,-.8,1.3,-1.4,1.8c-.6,.5,-1.2,.9,-2,1.2c-.8,.3,-1.6,.4,-2.4,.4c-.9,0,-1.7,-.1,-2.5,-.4c-.8,-.3,-1.5,-.7,-2.1,-1.2c-.6,-.5,-1,-1.1,-1.4,-1.8c-.3,-.7,-.5,-1.5,-.5,-2.4c0,-.8,.2,-1.6,.5,-2.3c.4,-.7,.8,-1.3,1.4,-1.8c.6,-.5,1.3,-.9,2.1,-1.2c.8,-.3,1.6,-.5,2.5,-.5c.6,0,1.2,.1,1.7,.3c.6,.1,1.1,.3,1.7,.6c.5,-.6,.8,-1.2,1,-1.8c.1,-.7,.2,-1.4,.2,-2.1V166.3h2.3Zm-4,16.7c-.7,-.8,-1.7,-1.2,-2.9,-1.2c-1.3,0,-2.3,.4,-3,1.2c-.8,.7,-1.2,1.7,-1.2,2.8c0,1.2,.4,2.2,1.2,2.9c.7,.7,1.7,1.1,3,1.1c1.2,0,2.2,-.4,2.9,-1.1c.8,-.7,1.2,-1.7,1.2,-2.9c0,-1.1,-.4,-2.1,-1.2,-2.8Zm-8,-16.9c.2,.5,.3,.9,.4,1.4c0,.5,.1,1,.1,1.6c0,.4,-.1,.8,-.1,1.2c-.1,.4,-.1,.7,-.2,1.1c1,.1,1.7,.4,2.2,.7c.6,.4,1,.7,1.3,1.1c.5,.6,1,1.3,1.5,2c.5,.8,1,1.5,1.5,2.1l-1.6,1.3c-.5,-.7,-1,-1.4,-1.5,-2.2c-.6,-.7,-1.1,-1.4,-1.5,-1.9c-.3,-.4,-.7,-.7,-1,-.9c-.4,-.2,-.9,-.4,-1.4,-.5c-.2,.3,-.4,.7,-.6,1c-.2,.3,-.4,.7,-.7,1c-.5,.8,-1.3,1.5,-2.2,2.3c-.8,.8,-1.7,1.4,-2.4,1.8l-1.2,-1.7c.8,-.6,1.6,-1.1,2.3,-1.8c.7,-.6,1.3,-1.2,1.9,-1.9c.5,-.8,.9,-1.6,1.1,-2.4c.1,-.7,.2,-1.5,.3,-2.3c0,-.4,-.1,-.8,-.1,-1.2c-.1,-.4,-.2,-.7,-.3,-1.1l2.2,-.7Zm30.4,8.5c-.3,.7,-.8,1.3,-1.3,1.8c-.6,.6,-1.2,1,-2,1.2c-.8,.3,-1.6,.4,-2.5,.4c-.9,0,-1.7,-.1,-2.4,-.3c-.8,-.3,-1.4,-.7,-2,-1.1c-.6,-.5,-1.1,-1.2,-1.4,-1.9c-.3,-.7,-.5,-1.6,-.5,-2.6c0,-.9,.2,-1.7,.5,-2.4c.3,-.7,.8,-1.4,1.3,-1.9c.6,-.5,1.2,-.9,2,-1.2c.8,-.2,1.6,-.4,2.5,-.4c.9,0,1.7,.2,2.5,.4c.8,.3,1.4,.7,2,1.2c.5,.6,1,1.2,1.3,1.9c.3,.7,.5,1.5,.5,2.4c0,.9,-.2,1.7,-.5,2.5Zm6.8,-8.3v3.2h4.3v1.8h-4.3v3.8h4.3v1.8h-4.3V178c0,.9,-.1,1.7,-.5,2.2c-.3,.6,-.7,1,-1.1,1.4c.5,.1,.9,.3,1.1,.6c.2,.4,.3,.8,.3,1.4l-.3,7.4h-2v-6.9c0,-.2,0,-.4,-.1,-.6c-.1,-.1,-.3,-.2,-.6,-.2H552.9v-1.8h12.4c.4,-.4,.7,-.9,.9,-1.5c.3,-.6,.4,-1.2,.4,-1.8V166.3h2.2Zm-9.6,3c-.7,-.9,-1.7,-1.3,-3,-1.3c-1.3,0,-2.3,.4,-3,1.3c-.7,.8,-1.1,1.7,-1.1,2.8c0,1.1,.4,2.1,1.1,2.9c.7,.8,1.7,1.2,3,1.2c1.3,0,2.3,-.4,3,-1.2c.7,-.8,1.1,-1.8,1.1,-2.9c0,-1.1,-.4,-2,-1.1,-2.8Z" class="g2_313"/>
<path d="M473.9,630.6c107.5,0,194.7,-38.4,194.7,-85.8c0,-47.3,-87.2,-85.7,-194.7,-85.7c-107.6,0,-194.8,38.4,-194.8,85.7c0,47.4,87.2,85.8,194.8,85.8Z" class="g3_313"/>
<image clip-path="url(#c1_313)" preserveAspectRatio="none" x="279" y="298" width="381" height="352" xlink:href="img/2.png"/>
<path d="M418.8,412.9V481" class="g4_313"/>
<path d="M568,399.5H502.9m-1.3,1.8v71.8" class="g5_313"/>
<path d="M569.7,399.5H569m-66.6,0h-.8v.8m0,73.3v.7" class="g6_313"/>
<path d="M539.8,453l38.9,-22.3m2.8,-.7h72.3" class="g5_313"/>
<path d="M538.3,453.9l.7,-.4m40.1,-23.1l.7,-.4h.7m73.8,0h.7" class="g6_313"/>
<path d="M596,487.5l34.5,-18.6" class="g5_313"/>
<path d="M633.5,468.3h20.2" class="g4_313"/>
<path d="M594.5,488.3l.7,-.3M631,468.6l.6,-.3h.8m21.8,0h.8" class="g6_313"/>
<path d="M538.2,519.4v67.1m1.7,1.2h77.7" class="g5_313"/>
<path d="M538.2,517.7v.7m0,68.6v.7h.7m79.2,0h.7" class="g6_313"/>
<path d="M489.7,525.6v95.2m1.8,1.2h22.2" class="g5_313"/>
<path d="M489.7,523.9v.7m0,96.7v.7h.8m23.7,0h.8" class="g6_313"/>
<path d="M416.8,567.2H388m-1.2,1.8v75.1" class="g5_313"/>
<path d="M418.5,567.2h-.7m-30.2,0h-.8v.8m0,76.6v.8" class="g6_313"/>
<path d="M402.7,537.7H341.4m-1.3,1.7v17.1" class="g5_313"/>
<path d="M404.4,537.7h-.7m-62.8,0h-.8v.7m0,18.5v.8" class="g6_313"/>
<path d="M377.5,514.8H313.2" class="g5_313"/>
<path d="M310.4,514L280.8,499.7" class="g4_313"/>
<path d="M379.2,514.8h-.8m-65.7,0H312l-.7,-.3m-31,-15.1l-.7,-.3" class="g6_313"/>
<path d="M181.7,1015.4H324.2V906.3H181.7v109.1Z" class="g1_313"/>
<image clip-path="url(#c2_313)" preserveAspectRatio="none" x="198" y="906" width="110" height="109" xlink:href="img/3.jpg"/>
<path d="M181.7,1015.4H324.2V906.3H181.7v109.1Z" class="g7_313"/>
<path d="M352.5,1015.2H495V906.1H352.5v109.1Z" class="g1_313"/>
<image clip-path="url(#c3_313)" preserveAspectRatio="none" x="369" y="906" width="109" height="109" xlink:href="img/4.jpg"/>
<path d="M352.5,1015.2H495V906.1H352.5v109.1Z" class="g7_313"/>
<path d="M523.2,1015.2H665.7V906.1H523.2v109.1Z" class="g1_313"/>
<image clip-path="url(#c4_313)" preserveAspectRatio="none" x="540" y="906" width="109" height="109" xlink:href="img/5.jpg"/>
<path d="M523.2,1015.2H665.7V906.1H523.2v109.1Z" class="g7_313"/>
<path d="M694,1015.2H836.5V906.1H694v109.1Z" class="g1_313"/>
<image clip-path="url(#c5_313)" preserveAspectRatio="none" x="710" y="906" width="110" height="109" xlink:href="img/6.jpg"/>
<path d="M694,1015.2H836.5V906.1H694v109.1Z" class="g7_313"/>
<path d="M153.3,126.3v22.2L165,158.7V136.5Z" class="g8_313"/>
<path d="M153.3,109.5v39H851.1c0,0,16.8,0,16.8,-16.8v-5.4c0,0,0,-16.8,-16.8,-16.8Z" class="g9_313"/>
<path d="M207.2,115.7c0,-9.1,-7.9,-16.6,-17.7,-16.6c-9.8,0,-17.7,7.5,-17.7,16.6c0,2.7,.6,5.2,1.8,7.4c1.2,2.4,2.9,4.6,5,6.2c1.2,1,1.6,1.7,1.7,4.3v.6c0,3.3,2.7,5.9,5.9,5.9h6.6c3.2,0,5.8,-2.6,5.8,-5.9v-.6c.2,-2.6,.6,-3.3,1.8,-4.3c2.1,-1.6,3.8,-3.8,5,-6.2c1.2,-2.2,1.8,-4.7,1.8,-7.4Z" class="ga_313"/>
<path d="M207.2,115.7c0,-9.1,-7.9,-16.6,-17.7,-16.6c-9.8,0,-17.7,7.5,-17.7,16.6c0,2.7,.6,5.2,1.8,7.4c1.2,2.4,2.9,4.6,5,6.2c1.2,1,1.6,1.7,1.7,4.3v.6c0,3.3,2.7,5.9,5.9,5.9h6.6c3.2,0,5.8,-2.6,5.8,-5.9v-.6c.2,-2.6,.6,-3.3,1.8,-4.3c2.1,-1.6,3.8,-3.8,5,-6.2c1.2,-2.2,1.8,-4.7,1.8,-7.4Z" class="gb_313"/>
<path d="M194.6,147.4c0,2.8,-2.3,5.1,-5.1,5.1c-2.8,0,-5.1,-2.3,-5.1,-5.1c0,-2.8,2.3,-5.1,5.1,-5.1c2.8,0,5.1,2.3,5.1,5.1Z" class="g1_313"/>
<path d="M194.6,147.4c0,2.8,-2.3,5.1,-5.1,5.1c-2.8,0,-5.1,-2.3,-5.1,-5.1c0,-2.8,2.3,-5.1,5.1,-5.1c2.8,0,5.1,2.3,5.1,5.1Z" class="gb_313"/>
<path d="M182.1,140.2c0,1,.8,1.8,1.8,1.8h11.2c1,0,1.8,-.8,1.8,-1.8v-1.3H182.1Z" class="g1_313"/>
<path d="M182.1,140.2c0,1,.8,1.8,1.8,1.8h11.2c1,0,1.8,-.8,1.8,-1.8v-1.3H182.1v1.3Z" class="gb_313"/>
<path d="M196.9,143.2c0,.8,-.6,1.3,-1.3,1.3H183.4c-.8,0,-1.3,-.5,-1.3,-1.3c0,-.7,.5,-1.3,1.3,-1.3h12.2c.7,0,1.3,.6,1.3,1.3Z" class="g1_313"/>
<path d="M196.9,143.2c0,.8,-.6,1.3,-1.3,1.3H183.4c-.8,0,-1.3,-.5,-1.3,-1.3c0,-.7,.5,-1.3,1.3,-1.3h12.2c.7,0,1.3,.6,1.3,1.3Z" class="gb_313"/>
<path d="M196.9,145.8c0,.7,-.6,1.3,-1.3,1.3H183.4c-.8,0,-1.3,-.6,-1.3,-1.3c0,-.7,.5,-1.3,1.3,-1.3h12.2c.7,0,1.3,.6,1.3,1.3Z" class="g1_313"/>
<path d="M196.9,145.8c0,.7,-.6,1.3,-1.3,1.3H183.4c-.8,0,-1.3,-.6,-1.3,-1.3c0,-.7,.5,-1.3,1.3,-1.3h12.2c.7,0,1.3,.6,1.3,1.3Z" class="gb_313"/>
<path d="M215.5,128.7l8.3,10.4c.6,.7,1.8,.6,2.7,-.2c.9,-.7,1.2,-1.9,.7,-2.6l-8.9,-10.2Z" class="gc_313"/>
<path d="M215.5,128.7l8.3,10.4c.6,.7,1.8,.6,2.7,-.2c.9,-.7,1.2,-1.9,.7,-2.6l-8.9,-10.2l-2.8,2.6Z" class="gb_313"/>
<path d="M217.5,125.1c.5,.6,.3,1.8,-.7,2.6c-.9,.7,-2.1,.8,-2.6,.2c-.6,-.7,-.3,-1.9,.6,-2.6c.9,-.8,2.1,-.9,2.7,-.2Z" class="gd_313"/>
<path d="M217.5,125.1c.5,.6,.3,1.8,-.7,2.6c-.9,.7,-2.1,.8,-2.6,.2c-.6,-.7,-.3,-1.9,.6,-2.6c.9,-.8,2.1,-.9,2.7,-.2Z" class="gb_313"/>
<path d="M212.7,124.7l1.7,2c.3,.3,1,.3,1.5,-.1c.5,-.5,.7,-1.1,.4,-1.5l-1.7,-2Z" class="g1_313"/>
<path d="M212.7,124.7l1.7,2c.3,.3,1,.3,1.5,-.1c.5,-.5,.7,-1.1,.4,-1.5l-1.7,-2l-1.9,1.6Z" class="ge_313"/>
<path d="M214.8,122.9c.4,.5,.2,1.3,-.5,1.8c-.6,.5,-1.4,.6,-1.8,.1c-.4,-.4,-.2,-1.2,.5,-1.7c.6,-.6,1.4,-.6,1.8,-.2Z" class="g1_313"/>
<path d="M214.8,122.9c.4,.5,.2,1.3,-.5,1.8c-.6,.5,-1.4,.6,-1.8,.1c-.4,-.4,-.2,-1.2,.5,-1.7c.6,-.6,1.4,-.6,1.8,-.2Z" class="ge_313"/>
<path d="M216.4,105.4c4.8,5.7,4.1,14.2,-1.7,19c-5.7,4.8,-14.2,4,-19,-1.7c-4.8,-5.7,-4,-14.2,1.7,-19c5.7,-4.8,14.2,-4.1,19,1.7Z" class="g1_313"/>
<path d="M216.4,105.4c4.8,5.7,4.1,14.2,-1.7,19c-5.7,4.8,-14.2,4,-19,-1.7c-4.8,-5.7,-4,-14.2,1.7,-19c5.7,-4.8,14.2,-4.1,19,1.7Z" class="gb_313"/>
<path d="M214,107.4c3.5,4.2,3,10.5,-1.3,14.1c-4.2,3.5,-10.5,2.9,-14,-1.3c-3.5,-4.2,-3,-10.5,1.2,-14c4.2,-3.6,10.5,-3,14.1,1.2Z" class="gf_313"/>
<path d="M214,107.4c3.5,4.2,3,10.5,-1.3,14.1c-4.2,3.5,-10.5,2.9,-14,-1.3c-3.5,-4.2,-3,-10.5,1.2,-14c4.2,-3.6,10.5,-3,14.1,1.2Z" class="gb_313"/>
<path d="M213,110.6l-3.1,3m3.1,-.4l-3.1,3" class="gg_313"/>
<path d="M172.1,99l3.1,3.3m1.1,-5.9l1.2,3.9m-8.1,3l3.7,1.2" class="gh_313"/>
<path d="M185.8,106.1c1.2,1.2,.2,4.3,-2.2,6.7c-2.5,2.5,-5.5,3.5,-6.8,2.3c-1.2,-1.3,-.3,-4.3,2.2,-6.8c2.5,-2.5,5.5,-3.5,6.8,-2.2Z" class="g1_313"/>
<path d="M203.7,107.6c.6,.6,.1,1.9,-.9,3c-1.1,1,-2.4,1.5,-3,.9c-.5,-.5,-.1,-1.8,1,-2.9c1.1,-1.1,2.4,-1.5,2.9,-1Z" class="g1_313"/>
<path d="M32.1,45.1H9.2m958.3,0h22.9M32.1,1331.3H9.2m958.3,0h22.9M45.1,32.1V9.2m0,1335.1v22.9M954.5,32.1V9.2m0,1335.1v22.9" class="gi_313"/>
<path d="M32.1,45.1H9.2m958.3,0h22.9M32.1,1331.3H9.2m958.3,0h22.9M45.1,32.1V9.2m0,1335.1v22.9M954.5,32.1V9.2m0,1335.1v22.9" class="gj_313"/>
<path d="M27.5,32.1H0m972.1,0h27.5M27.5,1344.3H0m972.1,0h27.5M32.1,27.5V0m0,1348.9v27.5M967.5,27.5V0m0,1348.9v27.5" class="gi_313"/>
<path d="M27.5,32.1H0m972.1,0h27.5M27.5,1344.3H0m972.1,0h27.5M32.1,27.5V0m0,1348.9v27.5M967.5,27.5V0m0,1348.9v27.5" class="gj_313"/>
</svg>