<?xml version="1.0" encoding="UTF-8" standalone="no"?>
<!DOCTYPE svg PUBLIC "-//W3C//DTD SVG 1.1//EN"
"http://www.w3.org/Graphics/SVG/1.1/DTD/svg11.dtd">
<svg viewBox="0 0 999 1376" version="1.1" xmlns="http://www.w3.org/2000/svg" xmlns:xlink="http://www.w3.org/1999/xlink">
<defs>
<clipPath id="c0_88"><path d="M32.1,1344.3V32.1H967.5V1344.3Z"/></clipPath>
<clipPath id="c1_88"><path d="M221.8,483.2V390.1H330.9v93.1Z"/></clipPath>
<clipPath id="c2_88"><path d="M220.9,595.1V502H331.8v93.1Z"/></clipPath>
<clipPath id="c3_88"><path d="M220.9,717.4V614.9H335.2V717.4Z"/></clipPath>
<clipPath id="c4_88"><path d="M176.6,302.3l-6.5,-2.1l-16.4,-14V229.1h72v73.2Z"/></clipPath>
<clipPath id="c5_88"><path d="M176.6,851.3l-6.5,-2.2L153.7,835.2V778.1h72v73.2Z"/></clipPath>
<style type="text/css"><![CDATA[
.g0_88{
fill: #FEFCF4;
}
.g1_88{
fill: #FFF;
}
.g2_88{
fill: none;
stroke: #6381B7;
stroke-width: 0.763;
}
.g3_88{
fill: #E3E7F2;
}
.g4_88{
fill: none;
stroke: #231F20;
stroke-width: 0.458;
stroke-miterlimit: 10;
}
.g5_88{
fill: #6381B7;
}
.g6_88{
fill: none;
stroke: #6381B7;
stroke-width: 0.381;
stroke-dasharray: 2,1;
}
.g7_88{
fill: none;
stroke: #6381B7;
stroke-width: 0.381;
}
.g8_88{
fill: #FCE8B0;
}
.g9_88{
fill: #F16865;
}
.ga_88{
fill: #FAC3B8;
}
.gb_88{
fill: #EE314A;
}
.gc_88{
fill: #26292E;
}
.gd_88{
fill: #C5CACC;
}
.ge_88{
fill: #F1EBEB;
}
.gf_88{
fill: #F7943B;
}
.gg_88{
fill: #ACB5B9;
}
.gh_88{
fill: #CFD3D5;
}
.gi_88{
fill: none;
stroke: #FFF;
stroke-width: 1.909;
stroke-miterlimit: 10;
}
.gj_88{
fill: none;
stroke: #000;
stroke-width: 0.381;
stroke-miterlimit: 10;
}
]]></style>
</defs>
<path clip-path="url(#c0_88)" d="M954.5,1344.3H1877V32.1H954.5V1344.3Z" class="g0_88"/>
<path d="M32.1,1344.3H954.5V32.1H32.1V1344.3Z" class="g0_88"/>
<path d="M145.1,318.3c0,0,-13,0,-13,13V724.6c0,0,0,13,13,13H832.9c0,0,13,0,13,-13V331.3c0,0,0,-13,-13,-13Z" class="g1_88"/>
<path d="M145.1,318.3c0,0,-13,0,-13,13V724.6c0,0,0,13,13,13H832.9c0,0,13,0,13,-13V331.3c0,0,0,-13,-13,-13H145.1Z" class="g2_88"/>
<image clip-path="url(#c1_88)" preserveAspectRatio="none" x="220" y="389" width="113" height="96" xlink:href="img/1.jpg"/>
<image clip-path="url(#c2_88)" preserveAspectRatio="none" x="219" y="500" width="115" height="97" xlink:href="img/2.jpg"/>
<image clip-path="url(#c3_88)" preserveAspectRatio="none" x="219" y="613" width="118" height="106" xlink:href="img/3.jpg"/>
<path d="M145.1,868.3c0,0,-13,0,-13,13v308.9c0,0,0,13,13,13H832.9c0,0,13,0,13,-13V881.3c0,0,0,-13,-13,-13Z" class="g1_88"/>
<path d="M145.1,868.3c0,0,-13,0,-13,13v308.9c0,0,0,13,13,13H832.9c0,0,13,0,13,-13V881.3c0,0,0,-13,-13,-13H145.1Z" class="g2_88"/>
<path d="M211.8,1016.2H818.1V946.9H211.8v69.3Z" class="g3_88"/>
<path d="M298.5,975.8H415.4" class="g4_88"/>
<path d="M211.8,1153.6H818.1v-69.3H211.8v69.3Z" class="g3_88"/>
<path d="M283.8,1113.1h117" class="g4_88"/>
<path d="M608.4,1218c0,0,-4.3,0,-4.3,4.4v10.8c0,0,0,4.3,4.3,4.3h30.4c0,0,4.3,0,4.3,-4.3v-10.8c0,0,0,-4.4,-4.3,-4.4Z" class="g5_88"/>
<path d="M595.3,1210.5v36.2m1.3,1H845.1m1,-1.3v-36.3m-1.4,-.9H596.2" class="g6_88"/>
<path d="M595.3,1247.1v.6h.5m249.7,0h.6v-.6m0,-37.4v-.5h-.6m-249.7,0h-.5v.5" class="g7_88"/>
<path d="M209.2,231.3c0,0,-13,0,-13,13v47.6c0,0,0,13,13,13H833.3c0,0,13,0,13,-13V244.3c0,0,0,-13,-13,-13Z" class="g8_88"/>
<image clip-path="url(#c4_88)" preserveAspectRatio="none" x="152" y="228" width="75" height="76" xlink:href="img/4.png"/>
<path d="M204,297.6c0,0,-26.8,11.3,-51.1,-12.8c0,0,15.2,25.3,49.3,24c0,0,24.8,.3,20.3,-10.2c0,0,1.2,-4.4,-18.5,-1Z" class="g8_88"/>
<path d="M209.2,780.3c0,0,-13,0,-13,13v47.6c0,0,0,13,13,13H833.3c0,0,13,0,13,-13V793.3c0,0,0,-13,-13,-13Z" class="g8_88"/>
<image clip-path="url(#c5_88)" preserveAspectRatio="none" x="152" y="777" width="75" height="76" xlink:href="img/5.png"/>
<path d="M204,846.5c0,0,-26.8,11.3,-51.1,-12.7c0,0,15.2,25.3,49.3,24c0,0,24.8,.3,20.3,-10.2c0,0,1.2,-4.4,-18.5,-1.1Z" class="g8_88"/>
<path clip-path="url(#c0_88)" d="M1777.4,164.6c0,0,30.3,0,30.3,-30.4v-4.3c0,0,0,-30.3,-30.3,-30.3H173.9c0,0,-30.3,0,-30.3,30.3v4.3c0,0,0,30.4,30.3,30.4Z" class="g9_88"/>
<path d="M186.5,132.1c0,27.1,-22,49,-49.1,49c-27,0,-49,-21.9,-49,-49c0,-27.1,22,-49.1,49,-49.1c27.1,0,49.1,22,49.1,49.1Z" class="ga_88"/>
<path d="M178.1,104.6c15.2,22.5,9.2,53,-13.2,68.1c-22.5,15.2,-53,9.3,-68.1,-13.2Z" class="gb_88"/>
<path d="M96.8,159.5h81.3V104.7H96.8v54.8Z" class="gc_88"/>
<path d="M137.7,156.8h16.8V136.6H137.7v20.2Z" class="gd_88"/>
<path d="M143.1,156.8h33.7V102.6H143.1v54.2Z" class="gd_88"/>
<path d="M141.6,103v50c.5,-.3,1,-.4,1.5,-.4h33.7v-50H143.1c-.5,0,-1,.2,-1.5,.4Z" class="g1_88"/>
<path d="M137.7,109v47.8c0,0,2.5,-3.1,3.9,-3.8V103c-2.2,1.1,-3.9,4.3,-3.9,6Z" class="ge_88"/>
<path d="M143.5,112.3h29.1v-1.4H143.5v1.4Z" class="gd_88"/>
<path d="M143.5,115.5h29.1v-1.4H143.5v1.4Z" class="gd_88"/>
<path d="M143.5,118.8h29.1v-1.5H143.5v1.5Z" class="gd_88"/>
<path d="M143.5,122h29.1v-1.5H143.5V122Z" class="gd_88"/>
<path d="M143.5,125.2h29.1v-1.5H143.5v1.5Z" class="gd_88"/>
<path d="M143.5,128.4h29.1v-1.5H143.5v1.5Z" class="gd_88"/>
<path d="M143.5,131.6h29.1v-1.5H143.5v1.5Z" class="gd_88"/>
<path d="M143.5,134.8h29.1v-1.5H143.5v1.5Z" class="gd_88"/>
<path d="M143.5,138h29.1v-1.4H143.5V138Z" class="gd_88"/>
<path d="M143.5,141.2h29.1v-1.4H143.5v1.4Z" class="gd_88"/>
<path d="M143.5,144.4h29.1V143H143.5v1.4Z" class="gd_88"/>
<path d="M143.5,147.6h29.1v-1.4H143.5v1.4Z" class="gd_88"/>
<path d="M159.7,150.9l1,-.9l1,.9v-49h-2Z" class="gf_88"/>
<path d="M120.9,156.8h16.8V136.6H120.9v20.2Z" class="gg_88"/>
<path d="M98.6,156.8h33.6V102.6H98.6v54.2Z" class="gg_88"/>
<path d="M98.6,102.6v50h33.6c.6,0,1.1,.1,1.6,.4V103c-.5,-.2,-1,-.4,-1.6,-.4Z" class="g1_88"/>
<path d="M133.8,103v50c1.4,.7,3.9,3.8,3.9,3.8V109c0,-1.7,-1.7,-4.9,-3.9,-6Z" class="gh_88"/>
<path d="M109.7,112.3h14.5v-1.4H109.7v1.4Z" class="gd_88"/>
<path d="M102.8,118.8h29.1v-1.5H102.8v1.5Z" class="gd_88"/>
<path d="M102.8,122h29.1v-1.5H102.8V122Z" class="gd_88"/>
<path d="M102.8,125.2h29.1v-1.5H102.8v1.5Z" class="gd_88"/>
<path d="M102.8,128.4h29.1v-1.5H102.8v1.5Z" class="gd_88"/>
<path d="M102.8,131.6h29.1v-1.5H102.8v1.5Z" class="gd_88"/>
<path d="M102.8,134.8h29.1v-1.5H102.8v1.5Z" class="gd_88"/>
<path d="M102.8,138h29.1v-1.4H102.8V138Z" class="gd_88"/>
<path d="M102.8,141.2h29.1v-1.4H102.8v1.4Z" class="gd_88"/>
<path d="M102.8,144.4h29.1V143H102.8v1.4Z" class="gd_88"/>
<path d="M102.8,147.6h29.1v-1.4H102.8v1.4Z" class="gd_88"/>
<path d="M32.1,45.1H9.2m958.3,0h22.9M32.1,1331.3H9.2m958.3,0h22.9M45.1,32.1V9.2m0,1335.1v22.9M954.5,32.1V9.2m0,1335.1v22.9" class="gi_88"/>
<path d="M32.1,45.1H9.2m958.3,0h22.9M32.1,1331.3H9.2m958.3,0h22.9M45.1,32.1V9.2m0,1335.1v22.9M954.5,32.1V9.2m0,1335.1v22.9" class="gj_88"/>
<path d="M27.5,32.1H0m972.1,0h27.5M27.5,1344.3H0m972.1,0h27.5M32.1,27.5V0m0,1348.9v27.5M967.5,27.5V0m0,1348.9v27.5" class="gi_88"/>
<path d="M27.5,32.1H0m972.1,0h27.5M27.5,1344.3H0m972.1,0h27.5M32.1,27.5V0m0,1348.9v27.5M967.5,27.5V0m0,1348.9v27.5" class="gj_88"/>
</svg>