<?xml version="1.0" encoding="UTF-8" standalone="no"?>
<!DOCTYPE svg PUBLIC "-//W3C//DTD SVG 1.1//EN"
"http://www.w3.org/Graphics/SVG/1.1/DTD/svg11.dtd">
<svg viewBox="0 0 999 1376" version="1.1" xmlns="http://www.w3.org/2000/svg" xmlns:xlink="http://www.w3.org/1999/xlink">
<defs>
<clipPath id="c0_89"><path d="M32.1,1344.3V32.1H967.5V1344.3Z"/></clipPath>
<clipPath id="c1_89"><path d="M700.2,193.8V68.1H847.6V193.8Z"/></clipPath>
<clipPath id="c2_89"><path d="M215,775.6V697H831.1v78.6Z"/></clipPath>
<clipPath id="c3_89"><path d="M215,924.4V845.8H831.1v78.6Z"/></clipPath>
<clipPath id="c4_89"><path d="M215,1073.2V994.6H831.1v78.6Z"/></clipPath>
<clipPath id="c5_89"><path d="M240.3,514.2v-.8h.8V502.8h-.8V480h-.8V459.7h-.8V445.9h-.8v-2.5h.8v-.8h48.8v.8h.8v2.5h.8v.8h.8v.8h.8v1.6h.8v1.7h.9v1.6h.8V454h.8v30.9h-.8v23.6h-.8v1.6h-.9v.8h-.8v.8h-1.6v.9h-.8v.8h-.8v.8Z"/></clipPath>
<clipPath id="c6_89"><path d="M269.2,598.1v-.7h-.7v-.7h-.7v-1.4h-.7v-2.2h-.7V591h-.8v-1.5h-.7v-1.4h-.7v-1.4H262v.7h-2.1v.7h-2.2v.7h-2.8v-.7h-.7v-1.4h-.8v-1.5h-.7v-1.4H252v-1.5h-.7v-1.4h-.7v-1.4h-.7V578h-.8v-1.4h-.7v-1.4h-.7v-.7H247V573h-.7v-1.4h-.8v-1.4h-.7V568h-.7v-1.4h-.7v-1.5h-.7v-1.4H242v-2.2h-.8v-1.4h-.7v-1.4h-.7v-1.5h-.7v-2.1h-.7v-3.6h.7v-.7h1.4v-.7h.7v-.8h1.5v-.7h1.4v-.7h2.2v-.7h1.4v-.7h1.4v-.7h1.5V545H252v-.7h1.4v-.7h1.5v-.7h1.4v-.7h2.2v-.7h1.4v-.8h1.4V540h1.5v-.7h1.4v-.7h2.2v-.7h2.8v-.7h2.2v-.8h1.4v-.7H275V535h2.1v-.7h5.8v.7h.7v.7h.7v1.5h.7v1.4h.7V540h.7v2.2h.8v2.1h.7v2.2h.7v2.1h.7v1.5h.7v2.1h.7v2.2h.8v2.1h.7v2.2h.7v2.1h.7v3.6h.7V568h.7v2.9h-.7v3.6h-.7v2.1h-.7V578h-.7v1.5h-.7v.7h-.8v1.4H290v.7h-.7v1.5h-.7v.7h-.7v.7h-.7v.7h-.8v.8h-.7v.7H285v.7h-1.4v.7h-.7v1.4h-.8v.8h-1.4v.7H280v.7h-.7v.7h-.8v.7h-.7v.7h-.7v.8h-.7v.7H275v.7h-.8v.7h-1.4v.7Z"/></clipPath>
<clipPath id="c7_89"><path d="M229.5,424.7v-9.6h-.8V395h.8V383h-.8V349.4h56.1V349h21.6v.4h.8v11.2h-.8v11.2h-.8v50.5h-3.2v.8H277.6v.8H252.7v.8Z"/></clipPath>
<style type="text/css"><![CDATA[
.g0_89{
fill: #FEFCF4;
}
.g1_89{
fill: #6381B7;
}
.g2_89{
fill: none;
stroke: #6381B7;
stroke-width: 0.381;
stroke-dasharray: 2,1;
}
.g3_89{
fill: none;
stroke: #6381B7;
stroke-width: 0.381;
}
.g4_89{
fill: #F16865;
}
.g5_89{
fill: #FEF9F9;
}
.g6_89{
fill: none;
stroke: #A164A9;
stroke-width: 1.527;
stroke-linecap: round;
stroke-linejoin: round;
stroke-dasharray: 0,5;
}
.g7_89{
fill: none;
stroke: #A164A9;
stroke-width: 1.527;
stroke-linecap: round;
stroke-linejoin: round;
}
.g8_89{
fill: #A164A9;
}
.g9_89{
fill: #FFF;
}
.ga_89{
fill: none;
stroke: #231F20;
stroke-width: 0.305;
stroke-miterlimit: 10;
}
.gb_89{
fill: none;
stroke: #FFF;
stroke-width: 1.909;
stroke-miterlimit: 10;
}
.gc_89{
fill: none;
stroke: #000;
stroke-width: 0.381;
stroke-miterlimit: 10;
}
]]></style>
</defs>
<path d="M45.1,1344.3H967.5V32.1H45.1V1344.3Z" class="g0_89"/>
<path clip-path="url(#c0_89)" d="M-877.3,1344.3H45.1V32.1H-877.3V1344.3Z" class="g0_89"/>
<path d="M593.3,1161.7c0,0,-4.3,0,-4.3,4.4v10.8c0,0,0,4.3,4.3,4.3h30.3c0,0,4.3,0,4.3,-4.3v-10.8c0,0,0,-4.4,-4.3,-4.4Z" class="g1_89"/>
<path d="M580.1,1154.2v36.3m1.3,.9H866.8m.9,-1.3v-36.3m-1.3,-.9H581.1" class="g2_89"/>
<path d="M580.1,1190.8v.6h.6m286.5,0h.5v-.6m0,-37.4v-.5h-.5m-286.5,0h-.6v.5" class="g3_89"/>
<path clip-path="url(#c0_89)" d="M867.9,164.6c0,0,30.3,0,30.3,-30.4v-4.3c0,0,0,-30.3,-30.3,-30.3H-735.4c0,0,-30.4,0,-30.4,30.3v4.3c0,0,0,30.4,30.4,30.4Z" class="g4_89"/>
<image clip-path="url(#c1_89)" preserveAspectRatio="none" x="700" y="68" width="148" height="126" xlink:href="img/1.png"/>
<path d="M154.1,1141.6h713V251h-713v890.6Z" class="g5_89"/>
<path d="M154.1,255.6v883.7m4.6,2.3H864.9m2.2,-4.6V253.3M862.6,251H156.4" class="g6_89"/>
<path d="M154.1,1141.6v0m713.1,0v0m0,-890.6v0m-713.1,0v0" class="g7_89"/>
<path d="M153.3,265.3V227c0,0,0,-8.7,8.7,-8.7H859.3c0,0,8.6,0,8.6,8.7v38.9Z" class="g8_89"/>
<image clip-path="url(#c2_89)" preserveAspectRatio="none" x="215" y="697" width="615" height="79" xlink:href="img/2.png"/>
<path d="M218.3,769.5H824.6V700.2H218.3v69.3Z" class="g9_89"/>
<path d="M255.4,730H420.8" class="ga_89"/>
<image clip-path="url(#c3_89)" preserveAspectRatio="none" x="215" y="846" width="615" height="79" xlink:href="img/3.png"/>
<path d="M218.3,918.3H824.6V849H218.3v69.3Z" class="g9_89"/>
<path d="M302.8,878.8H468.2" class="ga_89"/>
<image clip-path="url(#c4_89)" preserveAspectRatio="none" x="215" y="995" width="615" height="79" xlink:href="img/4.png"/>
<path d="M218.3,1067.1H824.6V997.8H218.3v69.3Z" class="g9_89"/>
<path d="M563.1,1027.6h85.1" class="ga_89"/>
<image clip-path="url(#c5_89)" preserveAspectRatio="none" x="226" y="439" width="89" height="81" xlink:href="img/5.jpg"/>
<image clip-path="url(#c6_89)" preserveAspectRatio="none" x="234" y="526" width="81" height="81" xlink:href="img/6.jpg"/>
<image clip-path="url(#c7_89)" preserveAspectRatio="none" x="221" y="347" width="90" height="82" xlink:href="img/7.jpg"/>
<path d="M32.1,45.1H9.2m958.3,0h22.9M32.1,1331.3H9.2m958.3,0h22.9M45.1,32.1V9.2m0,1335.1v22.9M954.5,32.1V9.2m0,1335.1v22.9" class="gb_89"/>
<path d="M32.1,45.1H9.2m958.3,0h22.9M32.1,1331.3H9.2m958.3,0h22.9M45.1,32.1V9.2m0,1335.1v22.9M954.5,32.1V9.2m0,1335.1v22.9" class="gc_89"/>
<path d="M27.5,32.1H0m972.1,0h27.5M27.5,1344.3H0m972.1,0h27.5M32.1,27.5V0m0,1348.9v27.5M967.5,27.5V0m0,1348.9v27.5" class="gb_89"/>
<path d="M27.5,32.1H0m972.1,0h27.5M27.5,1344.3H0m972.1,0h27.5M32.1,27.5V0m0,1348.9v27.5M967.5,27.5V0m0,1348.9v27.5" class="gc_89"/>
</svg>