<?xml version="1.0" encoding="UTF-8" standalone="no"?>
<!DOCTYPE svg PUBLIC "-//W3C//DTD SVG 1.1//EN"
"http://www.w3.org/Graphics/SVG/1.1/DTD/svg11.dtd">
<svg viewBox="0 0 999 1376" version="1.1" xmlns="http://www.w3.org/2000/svg" xmlns:xlink="http://www.w3.org/1999/xlink">
<defs>
<clipPath id="c0_141"><path d="M198.2,238.6l-6.5,-2.1L175.3,222.6V165.5h72v73.1Z"/></clipPath>
<clipPath id="c1_141"><path d="M198.2,718l-6.5,-2.1l-16.4,-14v-57h72V718Z"/></clipPath>
<clipPath id="c2_141"><path d="M786.5,132.5V120.1H801v12.4Z"/></clipPath>
<clipPath id="c3_141"><path d="M93.5,582V382.9H331.1V582Z"/></clipPath>
<clipPath id="c4_141"><path d="M90.2,585.8V379H335V585.8Z"/></clipPath>
<clipPath id="c5_141"><path d="M201.4,403.8c-.3,-.1,3.5,-8.3,3.5,-8.3l.8,.6c0,0,-4,7.7,-4.3,7.7Z"/></clipPath>
<clipPath id="c6_141"><path d="M208.9,396c0,0,-6.9,-1.1,-7.6,-5.2c-.7,-3.6,1.5,-3.8,2.1,-3.8c0,0,.1,0,.1,0l8.3,-12.8l-1.5,-3c0,0,-.6,-1.2,.2,-2.1c0,-.1,.1,-.1,.3,-.1c2.1,0,12.9,5.5,12.9,5.5l.1,.2c-.4,.5,-.7,1.1,-1.4,1.6c-.6,.5,-5.1,1.2,-5.1,1.2L208.9,396Z"/></clipPath>
<clipPath id="c7_141"><path d="M208.5,395.7c.2,-.5,.2,-1.8,0,-2.3V392c-1.6,-.5,-2.9,-1.2,-3.7,-2.5c-1.1,.6,-2.1,1.2,-3.1,1.9c1.5,2.1,3.8,3.6,6.8,4.3Zm0,-3.9c2.2,-4.6,3.9,-9.5,6.1,-14.1c-.9,-.4,-1.8,-1.3,-2.6,-1.4c-2.3,4.4,-4.6,8.7,-7.1,12.8c.8,1.4,2.1,2.1,3.6,2.7Zm-7.3,12c1,-2.8,2.4,-5.4,3.5,-8.2c-2,-1.6,-3.9,-3.2,-4.4,-6.2v-1.5c0,-2.7,1.9,-3.4,4.6,-3.4c0,0,.1,0,.2,0c1.9,-3.3,4.2,-6.3,6.1,-9.7c-.5,-.8,-1.1,-2.3,-.9,-3.6c.6,1.2,1.7,1.9,2.4,2.9c-.1,.6,-.2,1.1,-.3,1.7c.5,.7,1.3,1.2,2.3,1.4c.5,-.4,.6,-1.2,1.2,-1.5c.9,.4,1.8,.8,3.1,.8c.1,.1,.5,.1,.8,.1c.4,0,.7,0,.9,-.1c.1,0,.2,0,.2,0c.3,0,.5,-.1,.7,-.1c.2,-.1,.3,-.2,.5,-.2c.1,0,.2,.1,.3,.1c-1.3,.7,-2.2,1.8,-4.2,1.8c-.1,0,-.2,0,-.3,0c-.9,3.7,-1.9,7.3,-2.7,11.2c.6,1,1.5,1.7,1.3,3.1c-.5,2.7,-3.9,4.4,-7.2,4.4c-1.3,0,-2.5,-.2,-3.6,-.7c-1,2.1,-2.1,4.1,-3.3,6c0,-.4,.3,-.4,.3,-.8c.9,-1.8,1.9,-3.6,2.6,-5.6c-1,1.7,-1.8,3.7,-2.7,5.5c-.3,.4,-.5,.8,-.7,1.3c-.3,.4,-.3,1.1,-.7,1.3Z"/></clipPath>
<clipPath id="c8_141"><path d="M218.9,376.1c-4.8,0,-13.1,-7.3,-5.5,-8.8h1.2c.2,0,.4,0,.7,0q.1,0,.2,0c.2,0,.5,0,.9,.1c3.1,.7,8.2,3.8,7.5,7c-.2,1.2,-1.5,1.6,-3.1,1.7H219c0,0,-.1,0,-.1,0Z"/></clipPath>
<clipPath id="c9_141"><path d="M696.2,448.4V248.7H931V448.4Z"/></clipPath>
<clipPath id="ca_141"><path d="M700.6,440.4V252.8H928.3V440.4Z"/></clipPath>
<clipPath id="cb_141"><path d="M820.5,273.7c-.3,-.1,4.6,-7.7,4.6,-7.7l.7,.6c0,0,-5,7.1,-5.3,7.1Z"/></clipPath>
<clipPath id="cc_141"><path d="M828.9,267c-.1,0,-6.6,-2,-6.8,-6.2c-.1,-3.1,1.5,-3.5,2.3,-3.5c.2,0,.4,0,.4,0l9.9,-11.5l-1.1,-3.2c0,0,-.4,-1.2,.5,-2.1c0,0,.1,-.1,.2,-.1c1.8,0,12.2,7.2,12.2,7.2v.2c-.4,.5,-.9,1,-1.6,1.4c-.7,.5,-5.2,.5,-5.2,.5L828.9,267Z"/></clipPath>
<clipPath id="cd_141"><path d="M828.6,266.6c.2,-.4,.4,-1.7,.3,-2.2c0,-.5,.1,-.9,.1,-1.4c-1.4,-.7,-2.6,-1.6,-3.2,-3c-1.2,.5,-2.3,1,-3.4,1.5c1.3,2.3,3.3,4,6.2,5.1Zm.5,-3.9c2.8,-4.2,5.2,-8.9,7.9,-13.1c-.8,-.5,-1.6,-1.6,-2.4,-1.7c-2.8,4,-5.7,7.9,-8.7,11.8c.6,1.4,1.9,2.2,3.2,3Zm-8.8,11.1c1.4,-2.8,3.1,-5.2,4.6,-7.8c-1.8,-1.8,-3.5,-3.6,-3.6,-6.7c.1,-.5,.1,-1,.2,-1.5c.2,-2.2,1.6,-2.9,3.6,-2.9c.5,0,1,.1,1.6,.2c2.3,-3.1,5,-5.8,7.3,-8.8c-.4,-.9,-.8,-2.5,-.4,-3.7c.4,1.3,1.4,2,2,3.1c-.2,.6,-.4,1.1,-.6,1.7c.5,.8,1.2,1.4,2.2,1.7c.5,-.3,.7,-1.2,1.3,-1.3c.9,.4,1.8,1,3.1,1.1c.1,.2,.7,.3,1.1,.3c.2,0,.4,0,.5,-.1c.1,.1,.3,.1,.4,.1c.2,0,.4,0,.5,0c.2,-.1,.3,-.1,.4,-.1c.2,0,.3,0,.4,.1c-1.2,.5,-2.1,1.3,-3.7,1.3c-.3,0,-.6,0,-1,-.1c-1.3,3.6,-2.8,7.1,-4.1,10.7c.4,1.2,1.3,1.9,.9,3.3c-.7,2.3,-3.5,3.5,-6.4,3.5c-1.7,0,-3.4,-.4,-4.8,-1.3c-1.3,2,-2.6,3.9,-4,5.6c0,-.4,.3,-.4,.3,-.7c1.2,-1.7,2.4,-3.3,3.4,-5.3c-1.3,1.6,-2.3,3.4,-3.5,5.1c-.3,.4,-.5,.8,-.8,1.2c-.3,.4,-.4,1.1,-.9,1.3Z"/></clipPath>
<clipPath id="ce_141"><path d="M844.2,248.8c-.3,0,-.6,0,-.9,0c-.5,-.1,-1.1,-.2,-1.7,-.2c-4.8,-.6,-12.2,-9,-4.5,-9.5c.5,0,.9,.1,1.3,.2c.4,.1,1,.1,1.7,.3c3,1,7.7,4.8,6.6,8c-.3,.9,-1.3,1.2,-2.5,1.2Z"/></clipPath>
<clipPath id="cf_141"><path d="M171.5,1226.3V1048.5H240v177.8Z"/></clipPath>
<clipPath id="cg_141"><path d="M382.5,1226.3V1048.5h70.4v177.8Z"/></clipPath>
<clipPath id="ch_141"><path d="M613.7,1226.3V1048.5h67.6v177.8Z"/></clipPath>
<style type="text/css"><![CDATA[
.g0_141{
fill: #FEFCF4;
}
.g1_141{
fill: #FFF;
}
.g2_141{
fill: none;
stroke: #6381B7;
stroke-width: 0.763;
}
.g3_141{
fill: #6381B7;
}
.g4_141{
fill: none;
stroke: #6381B7;
stroke-width: 0.381;
stroke-dasharray: 2,1;
}
.g5_141{
fill: none;
stroke: #6381B7;
stroke-width: 0.381;
}
.g6_141{
fill: #FCE8B0;
}
.g7_141{
fill: #25408F;
}
.g8_141{
fill: #A8AAAD;
}
.g9_141{
fill: none;
stroke: #949698;
stroke-width: 0.549;
}
.ga_141{
fill: none;
stroke: #BCBEC0;
stroke-width: 2.566;
}
.gb_141{
fill: #231F20;
}
.gc_141{
fill: #363637;
}
.gd_141{
fill: #5CC4BE;
}
.ge_141{
fill: #EAD646;
}
.gf_141{
fill: #F7C2D9;
}
.gg_141{
fill: #FDF4F3;
}
.gh_141{
fill: #EC008C;
}
.gi_141{
fill: none;
stroke: #949698;
stroke-width: 0.305;
stroke-dasharray: 3,3;
}
.gj_141{
fill: none;
stroke: #949698;
stroke-width: 0.305;
}
.gk_141{
fill: #6D6F71;
}
.gl_141{
fill: none;
stroke: #949698;
stroke-width: 0.305;
stroke-dasharray: 4,4;
}
.gm_141{
fill: none;
stroke: #00ABE5;
stroke-width: 2.291;
}
.gn_141{
fill: #3D3B39;
}
.go_141{
fill: #E5E9B7;
}
.gp_141{
fill: #61C7CB;
}
.gq_141{
fill: none;
stroke: #00ABE5;
stroke-width: 1.527;
stroke-linecap: round;
stroke-linejoin: round;
stroke-dasharray: 0,5;
}
.gr_141{
fill: none;
stroke: #00ABE5;
stroke-width: 1.527;
stroke-linecap: round;
stroke-linejoin: round;
}
.gs_141{
fill: none;
stroke: #FFF;
stroke-width: 1.909;
stroke-miterlimit: 10;
}
.gt_141{
fill: none;
stroke: #000;
stroke-width: 0.381;
stroke-miterlimit: 10;
}
]]></style>
</defs>
<path d="M45.1,1344.3H967.5V32.1H45.1V1344.3Z" class="g0_141"/>
<path d="M172.1,137.3c0,0,-18.4,0,-18.4,18.4V596.3c0,0,0,18.3,18.4,18.3H849.2c0,0,18.3,0,18.3,-18.3v-459Z" class="g1_141"/>
<path d="M172.1,137.3c0,0,-18.4,0,-18.4,18.4V596.3c0,0,0,18.3,18.4,18.3H849.2c0,0,18.3,0,18.3,-18.3v-459H172.1Z" class="g2_141"/>
<path d="M610.6,830.2c0,0,-4.4,0,-4.4,4.3v10.9c0,0,0,4.3,4.4,4.3h30.3c0,0,4.3,0,4.3,-4.3V834.5c0,0,0,-4.3,-4.3,-4.3Z" class="g3_141"/>
<path d="M597.4,821.4v37.5m1.3,1H866.8m.9,-1.4V821m-1.3,-1H598.3" class="g4_141"/>
<path d="M597.4,859.3v.6h.5m269.3,0h.5v-.6m0,-38.7V820h-.5m-269.3,0h-.5v.6" class="g5_141"/>
<path d="M166.7,631.7c0,0,-13,0,-13,13V799.8c0,0,0,13,13,13H854.5c0,0,13,0,13,-13V644.7c0,0,0,-13,-13,-13Z" class="g1_141"/>
<path d="M166.7,631.7c0,0,-13,0,-13,13V799.8c0,0,0,13,13,13H854.5c0,0,13,0,13,-13V644.7c0,0,0,-13,-13,-13H166.7Z" class="g2_141"/>
<path d="M230.9,194.5c0,0,-13,0,-13,13v21.6c0,0,0,13,13,13H832.8c0,0,13,0,13,-13V207.5c0,0,0,-13,-13,-13Z" class="g6_141"/>
<image clip-path="url(#c0_141)" preserveAspectRatio="none" x="174" y="164" width="75" height="76" xlink:href="img/1.png"/>
<path d="M225.7,233.9c0,0,-26.9,11.3,-51.1,-12.7c0,0,15.1,25.3,49.2,23.9c0,0,24.8,.4,20.3,-10.1c0,0,1.2,-4.5,-18.4,-1.1Z" class="g6_141"/>
<path d="M230.9,673.9c0,0,-13,0,-13,13v21.6c0,0,0,13,13,13H832.8c0,0,13,0,13,-13V686.9c0,0,0,-13,-13,-13Z" class="g6_141"/>
<image clip-path="url(#c1_141)" preserveAspectRatio="none" x="174" y="643" width="75" height="77" xlink:href="img/2.png"/>
<path d="M225.7,713.3c0,0,-26.9,11.3,-51.1,-12.8c0,0,15.1,25.3,49.2,24c0,0,24.8,.3,20.3,-10.1c0,0,1.2,-4.5,-18.4,-1.1Z" class="g6_141"/>
<path d="M153.3,111.9v39L165,161.2V117Z" class="g7_141"/>
<path d="M153.3,111.9v39H851.1c0,0,16.8,0,16.8,-16.8v-5.3c0,0,0,-16.9,-16.8,-16.9Z" class="g3_141"/>
<path d="M802.6,145.6c8.2,0,14.9,-6.5,14.9,-14.5c0,-8.1,-6.7,-14.5,-14.9,-14.5c-8.2,0,-14.9,6.4,-14.9,14.5c0,8,6.7,14.5,14.9,14.5Z" class="g8_141"/>
<path d="M802.6,145.6c8.2,0,14.9,-6.5,14.9,-14.5c0,-8.1,-6.7,-14.5,-14.9,-14.5c-8.2,0,-14.9,6.4,-14.9,14.5c0,8,6.7,14.5,14.9,14.5Z" class="g9_141"/>
<path d="M802.6,136.4c3,0,5.5,-2.4,5.5,-5.3c0,-3,-2.5,-5.4,-5.5,-5.4c-3,0,-5.5,2.4,-5.5,5.4c0,2.9,2.5,5.3,5.5,5.3Z" class="g1_141"/>
<path d="M802.6,136.4c3,0,5.5,-2.4,5.5,-5.3c0,-3,-2.5,-5.4,-5.5,-5.4c-3,0,-5.5,2.4,-5.5,5.4c0,2.9,2.5,5.3,5.5,5.3Z" class="ga_141"/>
<g clip-path="url(#c2_141)" opacity="0.3">
<path d="M788,130.3c0,0,0,-4.8,3.7,-8.7l7.7,6.8c0,0,-1,.9,-1,2.6Z" class="g1_141"/>
</g>
<path d="M807.2,131c0,0,-3.5,0,-3.5,3.4v8.7c0,0,0,3.5,3.5,3.5h43.5c0,0,3.5,0,3.5,-3.5v-8.7c0,0,0,-3.4,-3.5,-3.4Z" class="gb_141"/>
<path d="M191.2,122c0,-8.3,-6.8,-15,-15.1,-15c-8.3,0,-15,6.7,-15,15c0,8.3,6.7,15.1,15,15.1c.8,0,1.7,-.1,2.4,-.2l4.5,5.2v-6.7c4.9,-2.5,8.2,-7.6,8.2,-13.4Z" class="g1_141"/>
<path d="M183.5,143.3l-5.1,-5.9c-.8,.1,-1.5,.1,-2.3,.1c-8.5,0,-15.5,-6.9,-15.5,-15.5c0,-8.5,7,-15.5,15.5,-15.5c8.6,0,15.5,7,15.5,15.5c0,5.7,-3.1,11,-8.1,13.7Zm-4.8,-6.9l3.9,4.5v-5.8l.2,-.1c4.9,-2.5,7.9,-7.5,7.9,-13c0,-8,-6.5,-14.6,-14.6,-14.6c-8,0,-14.6,6.6,-14.6,14.6c0,8.1,6.6,14.6,14.6,14.6c.8,0,1.6,-.1,2.4,-.2Z" class="gc_141"/>
<path d="M169.1,121.6c.8,0,1.4,.6,1.4,1.4c0,.8,-.6,1.5,-1.4,1.5c-.8,0,-1.4,-.7,-1.4,-1.5c0,-.8,.6,-1.4,1.4,-1.4Z" class="gd_141"/>
<path d="M169.1,124.9c-1,0,-1.9,-.8,-1.9,-1.9c0,-1,.9,-1.9,1.9,-1.9c1,0,1.9,.9,1.9,1.9c0,1.1,-.9,1.9,-1.9,1.9m0,-2.9c-.5,0,-1,.5,-1,1c0,.6,.5,1,1,1c.5,0,1,-.4,1,-1c0,-.5,-.5,-1,-1,-1Z" class="gc_141"/>
<path d="M176.1,121.6c.8,0,1.5,.6,1.5,1.4c0,.8,-.7,1.5,-1.5,1.5c-.8,0,-1.4,-.7,-1.4,-1.5c0,-.8,.6,-1.4,1.4,-1.4Z" class="gd_141"/>
<path d="M176.1,124.9c-1,0,-1.9,-.8,-1.9,-1.9c0,-1,.9,-1.9,1.9,-1.9c1.1,0,1.9,.9,1.9,1.9c0,1.1,-.8,1.9,-1.9,1.9m0,-2.9c-.5,0,-1,.5,-1,1c0,.6,.5,1,1,1c.6,0,1,-.4,1,-1c0,-.5,-.4,-1,-1,-1Z" class="gc_141"/>
<path d="M183.1,121.6c.8,0,1.5,.6,1.5,1.4c0,.8,-.7,1.5,-1.5,1.5c-.8,0,-1.4,-.7,-1.4,-1.5c0,-.8,.6,-1.4,1.4,-1.4Z" class="gd_141"/>
<path d="M183.1,124.9c-1,0,-1.9,-.8,-1.9,-1.9c0,-1,.9,-1.9,1.9,-1.9c1.1,0,1.9,.9,1.9,1.9c0,1.1,-.8,1.9,-1.9,1.9m0,-2.9c-.5,0,-1,.5,-1,1c0,.6,.5,1,1,1c.6,0,1,-.4,1,-1c0,-.5,-.4,-1,-1,-1Z" class="gc_141"/>
<path d="M185.1,136.3c0,-9.8,7.8,-17.7,17.6,-17.7c9.7,0,17.6,7.9,17.6,17.7c0,9.7,-7.9,17.6,-17.6,17.6c-1,0,-1.9,-.1,-2.9,-.3l-5.2,6.1v-7.8c-5.7,-2.9,-9.5,-8.8,-9.5,-15.6Z" class="ge_141"/>
<path d="M194.6,160.2q-.1,0,-.2,0c-.2,-.1,-.3,-.3,-.3,-.5v-7.5c-5.9,-3.2,-9.5,-9.2,-9.5,-15.9c0,-10,8.1,-18.1,18.1,-18.1c9.9,0,18,8.1,18,18.1c0,9.9,-8.1,18,-18,18c-.9,0,-1.8,0,-2.7,-.2l-5.1,5.9c-.1,.1,-.2,.2,-.3,.2m8.1,-41.1c-9.5,0,-17.2,7.7,-17.2,17.2c0,6.4,3.6,12.2,9.3,15.2c.1,.1,.2,.2,.2,.4v6.6l4.5,-5.2c.1,-.1,.3,-.1,.4,-.1c1,.1,1.9,.2,2.8,.2c9.4,0,17.1,-7.7,17.1,-17.1c0,-9.5,-7.7,-17.2,-17.1,-17.2Z" class="gc_141"/>
<path d="M210.9,135.8c.9,0,1.6,.7,1.6,1.6c0,1,-.7,1.7,-1.6,1.7c-1,0,-1.7,-.7,-1.7,-1.7c0,-.9,.7,-1.6,1.7,-1.6Z" class="g1_141"/>
<path d="M210.9,139.6c-1.2,0,-2.2,-1,-2.2,-2.2c0,-1.1,1,-2.1,2.2,-2.1c1.1,0,2.1,1,2.1,2.1c0,1.2,-1,2.2,-2.1,2.2m0,-3.4c-.7,0,-1.3,.6,-1.3,1.2c0,.7,.6,1.3,1.3,1.3c.6,0,1.2,-.6,1.2,-1.3c0,-.6,-.6,-1.2,-1.2,-1.2Z" class="gc_141"/>
<path d="M202.7,135.8c.9,0,1.6,.7,1.6,1.6c0,1,-.7,1.7,-1.6,1.7c-1,0,-1.7,-.7,-1.7,-1.7c0,-.9,.7,-1.6,1.7,-1.6Z" class="g1_141"/>
<path d="M202.7,139.6c-1.2,0,-2.2,-1,-2.2,-2.2c0,-1.1,1,-2.1,2.2,-2.1c1.1,0,2.1,1,2.1,2.1c0,1.2,-1,2.2,-2.1,2.2m0,-3.4c-.7,0,-1.3,.6,-1.3,1.2c0,.7,.6,1.3,1.3,1.3c.6,0,1.2,-.6,1.2,-1.3c0,-.6,-.6,-1.2,-1.2,-1.2Z" class="gc_141"/>
<path d="M194.5,135.8c.9,0,1.6,.7,1.6,1.6c0,1,-.7,1.7,-1.6,1.7c-1,0,-1.7,-.7,-1.7,-1.7c0,-.9,.7,-1.6,1.7,-1.6Z" class="g1_141"/>
<path d="M194.5,139.6c-1.2,0,-2.2,-1,-2.2,-2.2c0,-1.1,1,-2.1,2.2,-2.1c1.1,0,2.1,1,2.1,2.1c0,1.2,-1,2.2,-2.1,2.2m0,-3.4c-.7,0,-1.2,.6,-1.2,1.2c0,.7,.5,1.3,1.2,1.3c.6,0,1.2,-.6,1.2,-1.3c0,-.6,-.6,-1.2,-1.2,-1.2Z" class="gc_141"/>
<image clip-path="url(#c3_141)" preserveAspectRatio="none" x="93" y="383" width="238" height="200" xlink:href="img/3.png"/>
<path d="M98.4,395.5L105,575.6l219.8,-7.7l-6.6,-180Z" class="gf_141"/>
<image clip-path="url(#c4_141)" preserveAspectRatio="none" x="90" y="379" width="245" height="208" xlink:href="img/4.png"/>
<path d="M95.3,401.4l16.2,178.4L276.4,566.3L329,552L313.8,384Z" class="gg_141"/>
<path d="M328.9,552L276,566.6l34.4,-28.8Z" class="gh_141"/>
<image clip-path="url(#c5_141)" x="201" y="395" width="5" height="9" xlink:href="shade/1.png"/>
<image clip-path="url(#c6_141)" x="200" y="368" width="24" height="29" xlink:href="shade/2.png"/>
<image clip-path="url(#c7_141)" x="200" y="371" width="23" height="33" xlink:href="shade/3.png"/>
<image clip-path="url(#c8_141)" x="205" y="367" width="20" height="10" xlink:href="shade/4.png"/>
<path d="M442.7,572.5c15.2,-1,27.3,-6.7,29.9,-14.1m-.6,-7.2c-3.7,-7,-15.9,-12.2,-30.8,-12.8m-7.5,.1c-15.2,.9,-27.3,6.7,-29.9,14m.6,7.3c3.6,6.9,15.9,12.1,30.8,12.7" class="gi_141"/>
<path d="M473,557c0,-.5,.1,-1,.1,-1.5c0,-.5,-.1,-1,-.1,-1.5M439.7,538.4c-.5,-.1,-1,-.1,-1.5,-.1c-.5,0,-1,0,-1.5,.1M403.4,554c-.1,.5,-.1,1,-.1,1.5c0,.5,0,1,.1,1.5m33.3,15.6c.5,0,1,0,1.5,0c.5,0,1,0,1.5,0" class="gj_141"/>
<path d="M245.1,572.2l-6.5,3.6L236.5,566Z" class="gk_141"/>
<path d="M431.9,574c-12,8.9,-50.8,35.7,-76,30" class="gl_141"/>
<path d="M351,599.6c-1.1,-3.1,-.4,-7.1,10.2,-7.2" class="gi_141"/>
<path d="M361.3,602.6c-7.1,3.6,-24.6,8.9,-59.3,-.4m-7.4,-2.1c-9.8,-3,-34.1,-11.5,-52.2,-26.4" class="gl_141"/>
<path d="M435.5,571.2c0,0,-.4,.4,-1.2,1m-79.8,31.4c-.5,-.1,-1,-.3,-1.5,-.5c0,0,-.4,-.4,-.8,-1.1m10.4,-9.6c.4,0,.9,.1,1.4,.1c0,0,.8,.5,1.4,1.5m.7,4.1c-.1,.6,-.5,1.2,-.9,1.9c0,0,-.4,.4,-1.2,1m-63.5,.8c-.5,-.2,-1,-.3,-1.5,-.5c0,0,-.5,-.1,-1.5,-.4M241.2,572.7c-.4,-.3,-.8,-.6,-1.1,-1" class="gj_141"/>
<image clip-path="url(#c9_141)" preserveAspectRatio="none" x="696" y="249" width="234" height="200" xlink:href="img/5.png"/>
<path d="M717.3,253.6L700.9,422.9l207.8,19.2L925.1,272.7Z" class="gf_141"/>
<image clip-path="url(#ca_141)" preserveAspectRatio="none" x="700" y="253" width="228" height="188" xlink:href="img/6.png"/>
<path d="M712.6,257.6l-7.3,168.8L861,434.1l54,-7.3l6.9,-158.4Z" class="gg_141"/>
<path d="M914.9,426.8l-54.3,7.6l37.8,-24.1Z" class="gh_141"/>
<image clip-path="url(#cb_141)" x="820" y="266" width="6" height="8" xlink:href="shade/5.png"/>
<image clip-path="url(#cc_141)" x="821" y="240" width="26" height="28" xlink:href="shade/6.png"/>
<image clip-path="url(#cd_141)" x="820" y="242" width="25" height="32" xlink:href="shade/7.png"/>
<image clip-path="url(#ce_141)" x="829" y="239" width="19" height="10" xlink:href="shade/8.png"/>
<path d="M456.9,287.1c9.7,-1.1,17.4,-5.5,19.5,-11.2m-.7,-7.6c-2.9,-5.2,-10.8,-9.1,-20.4,-9.8m-7.8,.1c-9.8,1.1,-17.5,5.5,-19.5,11.2m.6,7.5c2.9,5.3,10.8,9.2,20.4,9.9" class="gl_141"/>
<path d="M476.8,274.4c.1,-.5,.1,-1,.1,-1.6c0,-.5,0,-1,-.1,-1.5M453.7,258.4c-.5,0,-1,-.1,-1.5,-.1c-.6,0,-1.1,.1,-1.6,.1m-23,12.9c-.1,.5,-.2,1,-.2,1.5c0,.6,.1,1.1,.2,1.6m23,12.9c.5,0,1,0,1.6,0c.5,0,1,0,1.5,0" class="gj_141"/>
<path d="M468.5,259.7c21.5,-4.3,50.7,-2,60.1,-1.1m7.5,1.7c13.7,3.9,55.5,14.6,77.3,5.9m2.9,-6c-.7,-2.5,-2.9,-4.6,-9.5,-2.8m-4.5,5.4c-.1,4.6,4.5,10.6,32.5,6.2m7.5,-1.9c12.7,-3.8,51.9,-13.6,94,-7" class="gl_141"/>
<path d="M464,260.7c.5,-.1,1,-.2,1.5,-.4m64.6,-1.5c1,.1,1.6,.2,1.6,.2c0,0,.5,.1,1.4,.4m81.7,6.2c.5,-.3,.9,-.5,1.4,-.7c0,0,.1,-.7,.3,-1.6m-11.2,-5.5c-.5,.2,-1,.4,-1.5,.6c0,0,-.4,.5,-.7,1.4m33.3,8.9c.5,-.1,1,-.2,1.6,-.3c0,0,.4,-.1,1.4,-.4m98.4,-7.7c.5,.1,1,.2,1.5,.3" class="gj_141"/>
<path d="M740.3,257.9l-3.4,8.2l16.3,.2Z" class="gk_141"/>
<path d="M154.5,1028.9v-28.7c0,0,0,-4.4,4.3,-4.4H862.4c0,0,4.4,0,4.4,4.4v29.1" class="gm_141"/>
<path d="M200.1,996.4c2.6,0,4.8,-2.2,4.8,-4.8c0,-2.7,-2.2,-4.8,-4.8,-4.8c-2.7,0,-4.8,2.1,-4.8,4.8c0,2.6,2.1,4.8,4.8,4.8Z" class="g1_141"/>
<path d="M200.1,998.3c3.6,0,6.6,-3,6.6,-6.7c0,-3.7,-3,-6.7,-6.6,-6.7c-3.7,0,-6.7,3,-6.7,6.7c0,3.7,3,6.7,6.7,6.7m0,-11.5c2.6,0,4.8,2.1,4.8,4.8c0,2.6,-2.2,4.8,-4.8,4.8c-2.7,0,-4.8,-2.2,-4.8,-4.8c0,-2.7,2.1,-4.8,4.8,-4.8Z" class="gn_141"/>
<path d="M205.5,1000.2H194.6c-.1,0,-.3,0,-.4,0c2.7,1.1,4.9,3.3,5.9,6.2c1.3,-.5,2.7,-.8,4.2,-.8c2.9,0,5.5,1,7.5,2.7v-1.8c0,-3.5,-2.8,-6.3,-6.3,-6.3Z" class="g1_141"/>
<path d="M184,997.2c3.4,0,6.1,-2.7,6.1,-6.1c0,-3.4,-2.7,-6.2,-6.1,-6.2c-3.4,0,-6.1,2.8,-6.1,6.2c0,3.4,2.7,6.1,6.1,6.1Z" class="go_141"/>
<path d="M184,999.1c4.4,0,8,-3.6,8,-8c0,-4.4,-3.6,-8.1,-8,-8.1c-4.4,0,-8,3.7,-8,8.1c0,4.4,3.6,8,8,8m0,-14.2c3.4,0,6.1,2.8,6.1,6.2c0,3.4,-2.7,6.1,-6.1,6.1c-3.4,0,-6.1,-2.7,-6.1,-6.1c0,-3.4,2.7,-6.2,6.1,-6.2Z" class="gn_141"/>
<path d="M198.4,1007.2c-1,-3.3,-4.1,-5.7,-7.7,-5.7H177.3c-4.4,0,-8,3.5,-8,8v4.3h23.8c.9,-2.8,2.8,-5.1,5.3,-6.6Z" class="go_141"/>
<path d="M204.3,1007.5c-5.5,0,-9.9,4.5,-9.9,10c0,5.5,4.4,9.9,9.9,9.9c5.5,0,10,-4.4,10,-9.9c0,-5.5,-4.5,-10,-10,-10m6.7,11.7c0,.2,-.2,.4,-.5,.4h-4v4.1c0,.2,-.2,.4,-.5,.4h-3.3c-.3,0,-.5,-.2,-.5,-.4v-4.1h-4.1c-.2,0,-.4,-.2,-.4,-.4v-3.4c0,-.3,.2,-.5,.4,-.5h4.1v-4c0,-.3,.2,-.5,.5,-.5H206c.3,0,.5,.2,.5,.5v4h4c.3,0,.5,.2,.5,.5Z" class="gp_141"/>
<path d="M213.7,1010.2v-3.7c0,-4.5,-3.7,-8.2,-8.2,-8.2H194.6c-1.6,0,-3.1,.5,-4.3,1.3h-13c-5.4,0,-9.9,4.4,-9.9,9.9v5.2c0,.5,.4,1,1,1h24.2c-.1,.6,-.1,1.2,-.1,1.8c0,6.5,5.3,11.8,11.8,11.8c6.6,0,11.9,-5.3,11.9,-11.8c0,-2.8,-.9,-5.3,-2.5,-7.3m-9.4,17.2c-5.5,0,-9.9,-4.4,-9.9,-9.9c0,-5.5,4.4,-10,9.9,-10c5.5,0,10,4.5,10,10c0,5.5,-4.5,9.9,-10,9.9m-35,-17.9c0,-4.5,3.6,-8,8,-8h13.4c3.6,0,6.7,2.4,7.7,5.7c-2.5,1.5,-4.4,3.8,-5.3,6.6H169.3Zm42.5,-1.2c-2,-1.7,-4.6,-2.7,-7.5,-2.7c-1.5,0,-2.9,.3,-4.2,.8c-1,-2.9,-3.2,-5.1,-5.9,-6.2c.1,0,.3,0,.4,0h10.9c3.5,0,6.3,2.8,6.3,6.3Z" class="gn_141"/>
<path d="M205.5,1015.8v-4.1h-2.4v4.1c0,.3,-.2,.5,-.4,.5h-4.1v2.4h4.1c.2,0,.4,.2,.4,.4v4.1h2.4v-4.1c0,-.2,.3,-.4,.5,-.4h4.1v-2.4H206c-.2,0,-.5,-.2,-.5,-.5Z" class="g1_141"/>
<path d="M210.5,1015.3h-4v-4c0,-.3,-.2,-.5,-.5,-.5h-3.3c-.3,0,-.5,.2,-.5,.5v4h-4.1c-.2,0,-.4,.2,-.4,.5v3.4c0,.2,.2,.4,.4,.4h4.1v4.1c0,.2,.2,.4,.5,.4H206c.3,0,.5,-.2,.5,-.4v-4.1h4c.3,0,.5,-.2,.5,-.4v-3.4c0,-.3,-.2,-.5,-.5,-.5m-.4,3.4H206c-.2,0,-.5,.2,-.5,.5v4h-2.4v-4c0,-.3,-.2,-.5,-.4,-.5h-4.1v-2.4h4.1c.2,0,.4,-.2,.4,-.5v-4.1h2.4v4.1c0,.3,.3,.5,.5,.5h4.1Z" class="gn_141"/>
<path d="M154.1,1039v202.6m4.6,2.3H864.9m2.2,-4.5V1036.7m-4.5,-2.3H156.4" class="gq_141"/>
<path d="M154.1,1243.9v0m713.1,0v0m0,-209.5v0m-713.1,0v0" class="gr_141"/>
<image clip-path="url(#cf_141)" preserveAspectRatio="none" x="170" y="1047" width="72" height="179" xlink:href="img/7.png"/>
<image clip-path="url(#cg_141)" preserveAspectRatio="none" x="381" y="1047" width="74" height="179" xlink:href="img/8.png"/>
<image clip-path="url(#ch_141)" preserveAspectRatio="none" x="612" y="1047" width="71" height="179" xlink:href="img/9.png"/>
<path d="M32.1,45.1H9.2m958.3,0h22.9M32.1,1331.3H9.2m958.3,0h22.9M45.1,32.1V9.2m0,1335.1v22.9M954.5,32.1V9.2m0,1335.1v22.9" class="gs_141"/>
<path d="M32.1,45.1H9.2m958.3,0h22.9M32.1,1331.3H9.2m958.3,0h22.9M45.1,32.1V9.2m0,1335.1v22.9M954.5,32.1V9.2m0,1335.1v22.9" class="gt_141"/>
<path d="M27.5,32.1H0m972.1,0h27.5M27.5,1344.3H0m972.1,0h27.5M32.1,27.5V0m0,1348.9v27.5M967.5,27.5V0m0,1348.9v27.5" class="gs_141"/>
<path d="M27.5,32.1H0m972.1,0h27.5M27.5,1344.3H0m972.1,0h27.5M32.1,27.5V0m0,1348.9v27.5M967.5,27.5V0m0,1348.9v27.5" class="gt_141"/>
</svg>