<?xml version="1.0" encoding="UTF-8" standalone="no"?>
<!DOCTYPE svg PUBLIC "-//W3C//DTD SVG 1.1//EN"
"http://www.w3.org/Graphics/SVG/1.1/DTD/svg11.dtd">
<svg viewBox="0 0 999 1376" version="1.1" xmlns="http://www.w3.org/2000/svg" xmlns:xlink="http://www.w3.org/1999/xlink">
<defs>
<clipPath id="c0_358"><path d="M202.6,372.9V273.7h99.2v99.2Z"/></clipPath>
<clipPath id="c1_358"><path d="M523.6,372.7V273.5h99.2v99.2Z"/></clipPath>
<clipPath id="c2_358"><path d="M683.7,372.7V273.5h99.9v99.2Z"/></clipPath>
<clipPath id="c3_358"><path d="M202.6,538.8V439.6h99.2v99.2Z"/></clipPath>
<clipPath id="c4_358"><path d="M523.6,538.6V439.4h99.2v99.2Z"/></clipPath>
<clipPath id="c5_358"><path d="M683.7,538.6V439.4h99.9v99.2Z"/></clipPath>
<clipPath id="c6_358"><path d="M190.1,1040.8V930.4h119v110.4Z"/></clipPath>
<clipPath id="c7_358"><path d="M349.2,1040.8V930.4H459.6v110.4Z"/></clipPath>
<clipPath id="c8_358"><path d="M508.3,1040.8V930.4H618.7v110.4Z"/></clipPath>
<clipPath id="c9_358"><path d="M671.8,1040.8V930.4H790.1v110.4Z"/></clipPath>
<clipPath id="ca_358"><path d="M176.6,826.7l-6.5,-2.1L153.7,810.7V753.6h72v73.1Z"/></clipPath>
<clipPath id="cb_358"><path d="M176.6,254.6l-6.5,-2.1L153.7,238.6V181.5h72v73.1Z"/></clipPath>
<style type="text/css"><![CDATA[
.g0_358{
fill: #FEFCF4;
}
.g1_358{
fill: #FFF;
}
.g2_358{
fill: none;
stroke: #6381B7;
stroke-width: 0.763;
}
.g3_358{
fill: none;
stroke: #949698;
stroke-width: 0.381;
}
.g4_358{
fill: none;
stroke: #231F20;
stroke-width: 1.527;
}
.g5_358{
fill: none;
stroke: #949698;
stroke-width: 0.549;
}
.g6_358{
fill: #48484A;
}
.g7_358{
fill: #F0E8F3;
}
.g8_358{
fill: #766FA6;
}
.g9_358{
fill: #6381B7;
}
.ga_358{
fill: none;
stroke: #6381B7;
stroke-width: 0.381;
stroke-dasharray: 2,1;
}
.gb_358{
fill: none;
stroke: #6381B7;
stroke-width: 0.381;
}
.gc_358{
fill: #FCE8B0;
}
.gd_358{
fill: #25408F;
}
.ge_358{
fill: #00BAF1;
}
.gf_358{
fill: #332D2C;
}
.gg_358{
fill: #D9DFF0;
}
.gh_358{
fill: #F27C85;
}
.gi_358{
fill: #7DD3F6;
}
.gj_358{
fill: none;
stroke: #FFF;
stroke-width: 1.909;
stroke-miterlimit: 10;
}
.gk_358{
fill: none;
stroke: #000;
stroke-width: 0.381;
stroke-miterlimit: 10;
}
]]></style>
</defs>
<path d="M32.1,1344.3H954.5V32.1H32.1V1344.3Z" class="g0_358"/>
<path d="M145.1,846.6c0,0,-13,0,-13,13v308c0,0,0,13,13,13H833.4c0,0,13,0,13,-13v-308c0,0,0,-13,-13,-13Z" class="g1_358"/>
<path d="M145.1,846.6c0,0,-13,0,-13,13v308c0,0,0,13,13,13H833.4c0,0,13,0,13,-13v-308c0,0,0,-13,-13,-13H145.1Z" class="g2_358"/>
<path d="M150.4,133.3c0,0,-18.3,0,-18.3,18.3v546c0,0,0,18.4,18.3,18.4H827.5c0,0,18.4,0,18.4,-18.4V133.3Z" class="g1_358"/>
<path d="M150.4,133.3c0,0,-18.3,0,-18.3,18.3v546c0,0,0,18.4,18.3,18.4H827.5c0,0,18.4,0,18.4,-18.4V133.3H150.4Z" class="g2_358"/>
<path d="M187.4,372.9H317V273.7H187.4v99.2Z" class="g1_358"/>
<image clip-path="url(#c0_358)" preserveAspectRatio="none" x="203" y="274" width="99" height="99" xlink:href="img/1.jpg"/>
<path d="M187.4,372.9H317V273.7H187.4v99.2Z" class="g3_358"/>
<path d="M347.9,372.7H477.4V273.5H347.9v99.2Z" class="g1_358"/>
<image preserveAspectRatio="none" x="363" y="273" width="99" height="100" xlink:href="img/2.jpg"/>
<path d="M347.9,372.7H477.4V273.5H347.9v99.2Z" class="g3_358"/>
<path d="M508.4,372.7H637.9V273.5H508.4v99.2Z" class="g1_358"/>
<image clip-path="url(#c1_358)" preserveAspectRatio="none" x="524" y="273" width="99" height="100" xlink:href="img/3.jpg"/>
<path d="M508.4,372.7H637.9V273.5H508.4v99.2Z" class="g3_358"/>
<path d="M668.9,372.7H798.4V273.5H668.9v99.2Z" class="g1_358"/>
<image clip-path="url(#c2_358)" preserveAspectRatio="none" x="684" y="273" width="100" height="100" xlink:href="img/4.jpg"/>
<path d="M668.9,372.7H798.4V273.5H668.9v99.2Z" class="g3_358"/>
<path d="M187.4,538.8H317V439.6H187.4v99.2Z" class="g1_358"/>
<image clip-path="url(#c3_358)" preserveAspectRatio="none" x="203" y="440" width="99" height="99" xlink:href="img/5.jpg"/>
<path d="M187.4,538.8H317V439.6H187.4v99.2Z" class="g3_358"/>
<path d="M347.9,538.6H477.4V439.4H347.9v99.2Z" class="g1_358"/>
<image preserveAspectRatio="none" x="363" y="439" width="99" height="100" xlink:href="img/6.jpg"/>
<path d="M347.9,538.6H477.4V439.4H347.9v99.2Z" class="g3_358"/>
<path d="M508.4,538.6H637.9V439.4H508.4v99.2Z" class="g1_358"/>
<image clip-path="url(#c4_358)" preserveAspectRatio="none" x="524" y="439" width="99" height="100" xlink:href="img/7.jpg"/>
<path d="M508.4,538.6H637.9V439.4H508.4v99.2Z" class="g3_358"/>
<path d="M668.9,538.6H798.4V439.4H668.9v99.2Z" class="g1_358"/>
<image clip-path="url(#c5_358)" preserveAspectRatio="none" x="684" y="439" width="100" height="100" xlink:href="img/8.jpg"/>
<path d="M668.9,538.6H798.4V439.4H668.9v99.2Z" class="g3_358"/>
<path d="M195,613.3c-.3,0,-.5,.1,-.7,.3c-.2,.2,-.3,.4,-.3,.7c0,.3,.1,.5,.3,.7c.2,.2,.4,.3,.7,.3c.2,0,.4,-.1,.6,-.3c.2,-.2,.3,-.4,.3,-.7c0,-.3,-.1,-.5,-.3,-.7c-.2,-.2,-.4,-.3,-.6,-.3Zm0,53.3c-.3,0,-.5,.1,-.7,.2c-.2,.2,-.3,.5,-.3,.7c0,.3,.1,.5,.3,.7c.2,.2,.4,.3,.7,.3c.2,0,.4,-.1,.6,-.3c.2,-.2,.3,-.4,.3,-.7c0,-.2,-.1,-.5,-.3,-.7c-.2,-.1,-.4,-.2,-.6,-.2Zm0,28.7c-.3,0,-.5,.1,-.7,.3c-.2,.2,-.3,.4,-.3,.7c0,.3,.1,.5,.3,.7c.2,.2,.4,.3,.7,.3c.2,0,.4,-.1,.6,-.3c.2,-.2,.3,-.4,.3,-.7c0,-.3,-.1,-.5,-.3,-.7c-.2,-.2,-.4,-.3,-.6,-.3Z" class="g4_358"/>
<image clip-path="url(#c6_358)" preserveAspectRatio="none" x="189" y="929" width="120" height="113" xlink:href="img/9.jpg"/>
<path d="M190.1,1076.4H310.6v-36.9H190.1v36.9Z" class="g1_358"/>
<path d="M190.1,1076.4H310.6v-36.9H190.1v36.9Z" class="g5_358"/>
<path d="M315.7,1083.6H738.9V921.2H315.7v162.4Z" class="g1_358"/>
<path d="M343.9,1083.6H475.1V925.1H343.9v158.5Z" class="g1_358"/>
<image clip-path="url(#c7_358)" preserveAspectRatio="none" x="349" y="930" width="111" height="111" xlink:href="img/10.jpg"/>
<path d="M349.2,1076.4H469.7v-36.9H349.2v36.9Z" class="g1_358"/>
<path d="M349.2,1076.4H469.7v-36.9H349.2v36.9Z" class="g5_358"/>
<image clip-path="url(#c8_358)" preserveAspectRatio="none" x="508" y="930" width="111" height="111" xlink:href="img/11.jpg"/>
<path d="M508.3,1076.4H628.8v-36.9H508.3v36.9Z" class="g1_358"/>
<path d="M508.3,1076.4H628.8v-36.9H508.3v36.9Z" class="g5_358"/>
<path d="M664.8,1083.6H796V925.1H664.8v158.5Z" class="g1_358"/>
<image clip-path="url(#c9_358)" preserveAspectRatio="none" x="672" y="929" width="119" height="112" xlink:href="img/12.jpg"/>
<path d="M669.6,1076.4H790.1v-36.9H669.6v36.9Z" class="g1_358"/>
<path d="M669.6,1076.4H790.1v-36.9H669.6v36.9Z" class="g5_358"/>
<path d="M158.7,1110.3c0,0,-4.3,0,-4.3,4.4v14.7c0,0,0,4.3,4,5.8l52.5,18.5c0,0,4.1,1.5,4.1,-2.9v-36.1c0,0,0,-4.4,-4.3,-4.4Z" class="g6_358"/>
<path d="M182,1099.5c0,0,-13,0,-13,13v31.3c0,0,0,13,13,13H787.4c0,0,12.9,0,12.9,-13v-31.3c0,0,0,-13,-12.9,-13Z" class="g7_358"/>
<path d="M158.7,1108.2c0,0,-4.3,0,-4.3,4.3v17.3c0,0,0,4.4,4.3,4.4H196c0,0,4.3,0,4.3,-4.4v-17.3c0,0,0,-4.3,-4.3,-4.3Z" class="g8_358"/>
<path d="M195.6,1070.6h63.8v-24.3H195.6v24.3Z" class="g1_358"/>
<path d="M351.5,1070.6h63.8v-24.3H351.5v24.3Z" class="g1_358"/>
<path d="M513.9,1070.6h63.9v-24.3H513.9v24.3Z" class="g1_358"/>
<path d="M674.1,1070.6H738v-24.3H674.1v24.3Z" class="g1_358"/>
<path d="M376.7,1198.8c0,0,-4.3,0,-4.3,4.4V1214c0,0,0,4.3,4.3,4.3H407c0,0,4.4,0,4.4,-4.3v-10.8c0,0,0,-4.4,-4.4,-4.4Z" class="g9_358"/>
<path d="M363.5,1191.3v34.9m1.4,1H844.7m.9,-1.4V1191m-1.3,-1H364.5" class="ga_358"/>
<path d="M363.5,1226.6v.6h.6m481,0h.5v-.6m0,-36v-.6h-.5m-481,0h-.6v.6" class="gb_358"/>
<path d="M209.2,781.7c0,0,-13,0,-13,13v21.7c0,0,0,13,13,13H830.8c0,0,13,0,13,-13V794.7c0,0,0,-13,-13,-13Z" class="gc_358"/>
<image clip-path="url(#ca_358)" preserveAspectRatio="none" x="152" y="752" width="75" height="76" xlink:href="img/13.png"/>
<path d="M204,822c0,0,-26.8,11.3,-51.1,-12.8c0,0,15.2,25.4,49.3,24c0,0,24.8,.4,20.3,-10.1c0,0,1.2,-4.5,-18.5,-1.1Z" class="gc_358"/>
<path d="M209.2,183.7c0,0,-13,0,-13,12.9v47.7c0,0,0,13,13,13h602c0,0,13,0,13,-13V196.6c0,0,0,-12.9,-13,-12.9Z" class="gc_358"/>
<image clip-path="url(#cb_358)" preserveAspectRatio="none" x="152" y="180" width="75" height="76" xlink:href="img/14.png"/>
<path d="M204,249.9c0,0,-26.8,11.3,-51.1,-12.7c0,0,15.2,25.3,49.3,23.9c0,0,24.8,.4,20.3,-10.1c0,0,1.2,-4.5,-18.5,-1.1Z" class="gc_358"/>
<path d="M131.7,126.7v22.2l11.7,10.3V137Z" class="gd_358"/>
<path d="M131.7,109.9v39H829.4c0,0,16.9,0,16.9,-16.8v-5.4c0,0,0,-16.8,-16.9,-16.8Z" class="g9_358"/>
<path d="M189.6,121.3l-6.4,-6.5L162,136l6.4,6.5Z" class="ge_358"/>
<path d="M168.4,143c.2,0,.3,0,.4,-.1L190,121.7c.1,-.1,.2,-.3,.2,-.4c0,-.1,-.1,-.3,-.2,-.4l-6.5,-6.4c-.2,-.2,-.5,-.2,-.7,0l-21.2,21.2c-.1,.1,-.2,.2,-.2,.3c0,.2,.1,.3,.2,.4l6.5,6.5c.1,.1,.2,.1,.3,.1m20.5,-21.7l-20.5,20.5L162.7,136l20.5,-20.4Z" class="gf_358"/>
<path d="M189.6,121.3l-6.4,-6.5l2.1,-2.1l6.5,6.5Z" class="gg_358"/>
<path d="M189.6,121.8c.2,0,.3,0,.4,-.1l2.1,-2.1c.1,-.1,.2,-.3,.2,-.4c0,-.2,-.1,-.3,-.2,-.4l-6.4,-6.5c-.2,-.2,-.6,-.2,-.8,0l-2.1,2.2c-.1,0,-.2,.2,-.2,.3c0,.2,.1,.3,.2,.4l6.5,6.5c.1,.1,.2,.1,.3,.1m1.4,-2.6l-1.4,1.4l-5.7,-5.8l1.4,-1.4Z" class="gf_358"/>
<path d="M195.4,115.6l-6.5,-6.5l-3.6,3.6l6.5,6.5Z" class="gh_358"/>
<path d="M191.8,119.7c.1,0,.2,0,.3,-.1l3.7,-3.7c.2,-.2,.2,-.5,0,-.7l-6.5,-6.5c-.2,-.2,-.6,-.2,-.8,0l-3.6,3.6c-.2,.2,-.2,.6,0,.8l6.5,6.5c.1,.1,.2,.1,.4,.1m2.8,-4.1l-2.8,2.8L186,112.7l2.9,-2.9Z" class="gf_358"/>
<path d="M157.3,147.2L162,136l6.4,6.5Z" class="g1_358"/>
<path d="M157.3,147.7c.1,0,.2,0,.2,-.1L168.6,143c.2,-.1,.3,-.2,.4,-.4c0,-.2,-.1,-.3,-.2,-.5l-6.5,-6.4c-.1,-.2,-.3,-.2,-.5,-.2c-.1,.1,-.3,.2,-.3,.3l-4.7,11.1c0,.2,0,.5,.1,.6c.1,.1,.3,.2,.4,.2m10.2,-5.4l-9.2,3.9l3.8,-9.2Z" class="gf_358"/>
<path d="M157.3,147.2l2.3,-5.4l3.1,3.1Z" class="gf_358"/>
<path d="M157.3,147.7c.1,0,.2,0,.2,-.1l5.4,-2.2c.1,-.1,.3,-.2,.3,-.4c0,-.2,0,-.3,-.1,-.5l-3.2,-3.1c-.1,-.1,-.3,-.2,-.4,-.1c-.2,0,-.4,.1,-.4,.3l-2.3,5.3c0,.2,0,.5,.1,.6c.1,.1,.3,.2,.4,.2m4.5,-3l-3.5,1.5l1.4,-3.5Z" class="gf_358"/>
<path d="M187.9,119.5l-3,-2.9l-21.2,21.2l3,3Z" class="gi_358"/>
<path d="M166.7,141.3c.1,0,.2,-.1,.3,-.2l21.3,-21.2c.1,-.1,.1,-.2,.1,-.4c0,-.1,0,-.2,-.1,-.3l-3,-3c-.2,-.2,-.5,-.2,-.8,0l-21.2,21.2c-.1,.1,-.1,.3,-.1,.4c0,.1,0,.3,.1,.4l3,2.9c.1,.1,.2,.2,.4,.2m20.4,-21.8L166.7,140l-2.2,-2.2l20.4,-20.5Z" class="gf_358"/>
<path d="M32.1,45.1H9.2m958.3,0h22.9M32.1,1331.3H9.2m958.3,0h22.9M45.1,32.1V9.2m0,1335.1v22.9M954.5,32.1V9.2m0,1335.1v22.9" class="gj_358"/>
<path d="M32.1,45.1H9.2m958.3,0h22.9M32.1,1331.3H9.2m958.3,0h22.9M45.1,32.1V9.2m0,1335.1v22.9M954.5,32.1V9.2m0,1335.1v22.9" class="gk_358"/>
<path d="M27.5,32.1H0m972.1,0h27.5M27.5,1344.3H0m972.1,0h27.5M32.1,27.5V0m0,1348.9v27.5M967.5,27.5V0m0,1348.9v27.5" class="gj_358"/>
<path d="M27.5,32.1H0m972.1,0h27.5M27.5,1344.3H0m972.1,0h27.5M32.1,27.5V0m0,1348.9v27.5M967.5,27.5V0m0,1348.9v27.5" class="gk_358"/>
</svg>