<?xml version="1.0" encoding="UTF-8" standalone="no"?>
<!DOCTYPE svg PUBLIC "-//W3C//DTD SVG 1.1//EN"
"http://www.w3.org/Graphics/SVG/1.1/DTD/svg11.dtd">
<svg viewBox="0 0 999 1376" version="1.1" xmlns="http://www.w3.org/2000/svg" xmlns:xlink="http://www.w3.org/1999/xlink">
<defs>
<clipPath id="c0_227"><path d="M32.1,1344.3V32.1H967.5V1344.3Z"/></clipPath>
<clipPath id="c1_227"><path d="M269.2,751.9V668.8H395.7v83.1Z"/></clipPath>
<clipPath id="c2_227"><path d="M225.9,857.4V765.6H387v91.8Z"/></clipPath>
<clipPath id="c3_227"><path d="M225.9,953.3V861.4H387v91.9Z"/></clipPath>
<clipPath id="c4_227"><path d="M225.9,1049.6V957.8H387v91.8Z"/></clipPath>
<clipPath id="c5_227"><path d="M225.9,1144.9V1053H387v91.9Z"/></clipPath>
<clipPath id="c6_227"><path d="M200.7,568l-6.5,-2.2L177.8,551.9V494.8h72V568Z"/></clipPath>
<clipPath id="c7_227"><path d="M200.1,137.2c.1,-1.3,.7,-2.5,1.6,-3.4c1,-1,2.3,-1.6,3.9,-1.6h19.2v5Z"/></clipPath>
<clipPath id="c8_227"><path d="M199.5,137.7v-6h25.8v6Z"/></clipPath>
<style type="text/css"><![CDATA[
.g0_227{
fill: #FEFCF4;
}
.g1_227{
fill: #FFF;
}
.g2_227{
fill: none;
stroke: #6381B7;
stroke-width: 0.763;
}
.g3_227{
fill: #48484A;
}
.g4_227{
fill: #F0E8F3;
}
.g5_227{
fill: #766FA6;
}
.g6_227{
fill: none;
stroke: #231F20;
stroke-width: 0.458;
stroke-miterlimit: 10;
}
.g7_227{
fill: none;
stroke: #231F20;
stroke-width: 0.42;
stroke-miterlimit: 10;
}
.g8_227{
fill: #FEF4E7;
}
.g9_227{
fill: #D1EDF5;
}
.ga_227{
fill: #F7C2D9;
}
.gb_227{
fill: #F4DBE9;
}
.gc_227{
fill: #E9F2D5;
}
.gd_227{
fill: #DEF1F3;
}
.ge_227{
fill: #9BD1EA;
}
.gf_227{
fill: none;
stroke: #58595B;
stroke-width: 0.381;
stroke-miterlimit: 10;
}
.gg_227{
fill: #6381B7;
}
.gh_227{
fill: none;
stroke: #6381B7;
stroke-width: 0.381;
stroke-dasharray: 2,1;
}
.gi_227{
fill: none;
stroke: #6381B7;
stroke-width: 0.381;
}
.gj_227{
fill: #FCE8B0;
}
.gk_227{
fill: #25408F;
}
.gl_227{
fill: none;
stroke: #231F20;
stroke-width: 1.527;
}
.gm_227{
fill: #39B4D1;
stroke: #2D2A4A;
stroke-width: 1.038;
stroke-linecap: round;
stroke-linejoin: round;
}
.gn_227{
fill: #2D2A4A;
}
.go_227{
fill: none;
stroke: #2D2A4A;
stroke-width: 1.038;
stroke-linecap: round;
stroke-linejoin: round;
}
.gp_227{
fill: #DEDAD3;
}
.gq_227{
fill: #29263F;
}
.gr_227{
fill: #E15F46;
stroke: #2D2A4A;
stroke-width: 1.038;
stroke-linecap: round;
stroke-linejoin: round;
}
.gs_227{
fill: none;
stroke: #FFF;
stroke-width: 1.909;
stroke-miterlimit: 10;
}
.gt_227{
fill: none;
stroke: #000;
stroke-width: 0.381;
stroke-miterlimit: 10;
}
]]></style>
</defs>
<path clip-path="url(#c0_227)" d="M-877.3,1344.3H45.1V32.1H-877.3V1344.3Z" class="g0_227"/>
<path d="M166.5,589.3c0,0,-13,0,-13,13v547.5c0,0,0,13,13,13H854.3c0,0,13,0,13,-13V602.3c0,0,0,-13,-13,-13Z" class="g1_227"/>
<path d="M166.5,589.3c0,0,-13,0,-13,13v547.5c0,0,0,13,13,13H854.3c0,0,13,0,13,-13V602.3c0,0,0,-13,-13,-13H166.5Z" class="g2_227"/>
<path d="M196.1,675.4c0,0,-4.4,0,-4.4,4.4v14.7c0,0,0,4.3,4.1,5.8l52.5,18.5c0,0,4.1,1.4,4.1,-2.9V679.8c0,0,0,-4.4,-4.4,-4.4Z" class="g3_227"/>
<path d="M217.2,662.4c0,0,-13,0,-13,13v66.9c0,0,0,13,13,13H822.6c0,0,13,0,13,-13V675.4c0,0,0,-13,-13,-13Z" class="g4_227"/>
<path d="M196.1,673.3c0,0,-4.4,0,-4.4,4.3v17.3c0,0,0,4.3,4.4,4.3h37.3c0,0,4.3,0,4.3,-4.3V677.6c0,0,0,-4.3,-4.3,-4.3Z" class="g5_227"/>
<path d="M196.6,646.1H853.3V629.9H196.6v16.2Z" class="g1_227"/>
<path d="M432.7,733.3H550.3" class="g6_227"/>
<path d="M425,829.7H678.5M425,923.5H678.5M425,1017.3H678.5M425,1111.1H678.5" class="g7_227"/>
<image clip-path="url(#c1_227)" preserveAspectRatio="none" x="269" y="669" width="126" height="83" xlink:href="img/1.png"/>
<path d="M272.4,745.7h117V672.1h-117v73.6Z" class="g8_227"/>
<image clip-path="url(#c2_227)" preserveAspectRatio="none" x="225" y="766" width="162" height="92" xlink:href="img/2.png"/>
<path d="M229.1,851.1H380.7V768.8H229.1v82.3Z" class="g9_227"/>
<image clip-path="url(#c3_227)" preserveAspectRatio="none" x="225" y="862" width="162" height="92" xlink:href="img/3.png"/>
<path d="M229.1,946.9H380.7V864.7H229.1v82.2Z" class="ga_227"/>
<image clip-path="url(#c4_227)" preserveAspectRatio="none" x="225" y="959" width="162" height="91" xlink:href="img/4.png"/>
<path d="M229.1,1043.3H380.7V961H229.1v82.3Z" class="gb_227"/>
<image clip-path="url(#c5_227)" preserveAspectRatio="none" x="225" y="1053" width="162" height="92" xlink:href="img/5.png"/>
<path d="M229.1,1138.6H380.7v-82.3H229.1v82.3Z" class="gc_227"/>
<path d="M170.7,165.8c0,0,-17.4,0,-17.4,17.3V441.6c0,0,0,17.3,17.4,17.3H850.6c0,0,17.3,0,17.3,-17.3V183.1c0,0,0,-17.3,-17.3,-17.3Z" class="gd_227"/>
<path d="M207,234.6H345.6V286H207V234.6Zm138.6,0H484.2V286H345.6V234.6Z" class="ge_227"/>
<path d="M207,286H345.6v53.7H207V286Zm138.6,0H484.2v53.7H345.6V286Z" class="g1_227"/>
<path d="M207,234.6H345.6m0,0H484.2M345.6,285.8v-51M207,286H345.6m0,0H484.2M345.6,339.5V286.2M207,339.7H345.6m0,0H484.2" class="gf_227"/>
<path d="M496.4,234.6H821.2v21H496.4v-21Zm0,21H669.6v30.1H496.4V255.6Zm173.2,0H821.2v30.1H669.6V255.6Z" class="ge_227"/>
<path d="M496.4,285.7H669.6v53.5H496.4V285.7Zm173.2,0H821.2v53.5H669.6V285.7Z" class="g1_227"/>
<path d="M496.4,234.6H669.6m0,0H821.2m-324.8,21H669.6m0,0H821.2M669.6,285.5V255.8M496.4,285.7H669.6m0,0H821.2M669.6,339V285.9M496.4,339.2H669.6m0,0H821.2" class="gf_227"/>
<path d="M415.7,1181.6c0,0,-4.3,0,-4.3,4.4v10.8c0,0,0,4.3,4.3,4.3H446c0,0,4.4,0,4.4,-4.3V1186c0,0,0,-4.4,-4.4,-4.4Z" class="gg_227"/>
<path d="M402.5,1174.1V1229m1.4,1H866.8m.9,-1.4v-54.9m-1.3,-.9H403.5" class="gh_227"/>
<path d="M402.5,1229.4v.6h.6m464.1,0h.5v-.6m0,-56v-.6h-.5m-464.1,0h-.6v.6" class="gi_227"/>
<path d="M233.3,523c0,0,-13,0,-13,13v21.6c0,0,0,13,13,13H854.9c0,0,13,0,13,-13V536c0,0,0,-13,-13,-13Z" class="gj_227"/>
<image clip-path="url(#c6_227)" preserveAspectRatio="none" x="176" y="493" width="75" height="77" xlink:href="img/6.png"/>
<path d="M228.1,563.3c0,0,-26.8,11.3,-51.1,-12.8c0,0,15.2,25.3,49.3,24c0,0,24.8,.3,20.3,-10.2c0,0,1.2,-4.4,-18.5,-1Z" class="gj_227"/>
<path d="M153.3,109.5v39L165,158.7V136.5Z" class="gk_227"/>
<path d="M153.3,109.5v39H851.1c0,0,16.8,0,16.8,-16.8v-5.4c0,0,0,-16.8,-16.8,-16.8Z" class="gg_227"/>
<path d="M790.4,131c0,0,-.5,-10,8.6,-9.4c0,0,6.8,-.3,6.7,9.5m-15.3,-1.5v6.5c0,0,-3.4,.3,-3.9,-3c0,0,-.1,-3.8,3.9,-3.5Zm15.3,0v6.5c0,0,3.4,.3,4,-3c0,0,0,-3.8,-4,-3.5Z" class="gl_227"/>
<path d="M169,140.8h61v-32H169v32Z" class="gm_227"/>
<path d="M169,143.1h61v-2.3H169v2.3Z" class="gm_227"/>
<path d="M193.5,106.2H173.8v31.5h25.7V112.3c0,-3.4,-2.7,-6.1,-6,-6.1Z" class="g1_227"/>
<path d="M193.5,106.2v-.5H173.8c-.2,0,-.3,.1,-.4,.2c-.1,.1,-.2,.2,-.2,.3v31.5c0,.1,.1,.3,.2,.4c.1,.1,.2,.1,.4,.1h25.7c.2,0,.3,0,.4,-.1c.1,-.1,.1,-.3,.1,-.4V112.3c0,-3.7,-2.9,-6.6,-6.5,-6.6v1c1.5,0,2.9,.7,3.9,1.7c1,1,1.6,2.3,1.6,3.9v24.9H174.3V106.7h19.2Z" class="gn_227"/>
<path d="M173.8,131.7v6h25.7c0,-3.3,-2.7,-6,-6,-6Z" class="g1_227"/>
<path d="M173.8,131.7h-.6v6c0,.1,.1,.3,.2,.4c.1,.1,.2,.1,.4,.1h25.7c.2,0,.3,0,.4,-.1c.1,-.1,.1,-.3,.1,-.4c0,-3.6,-2.9,-6.6,-6.5,-6.6H173.8c-.2,0,-.3,.1,-.4,.2c-.1,.1,-.2,.2,-.2,.4h.6v.5h19.7c1.5,0,2.9,.6,3.9,1.6c1,1,1.6,2.4,1.6,3.9h.5v-.5H174.3v-5.5h-.5v.5Z" class="gn_227"/>
<path d="M177.3,110.9h17.2m-17.2,2.8h17.2m-17.2,2.9h17.2m-17.2,2.9h17.2m-17.2,2.8h17.2m-17.2,2.9h17.2M177.3,128h17.2" class="go_227"/>
<path d="M193.5,132.2H174.3v5H199c-.1,-1.3,-.7,-2.5,-1.6,-3.4c-1,-1,-2.4,-1.6,-3.9,-1.6Z" class="gp_227"/>
<path d="M174.3,132.2h19.2c1.5,0,2.9,.6,3.9,1.6c.9,.9,1.5,2.1,1.6,3.4H174.3Zm19.2,-.5H173.8v6H199v-2.5c-.9,-2.1,-3.1,-3.5,-5.5,-3.5Z" class="gq_227"/>
<path d="M205.6,106.2h19.7v31.5H199.5V112.3c0,-3.4,2.7,-6.1,6.1,-6.1Z" class="g1_227"/>
<path d="M205.6,106.2v.5h19.2v30.5H200V112.3c0,-1.6,.7,-2.9,1.7,-3.9c1,-1,2.3,-1.7,3.9,-1.7v-1c-3.7,0,-6.6,2.9,-6.6,6.6v25.4c0,.1,.1,.3,.2,.4c0,.1,.2,.1,.3,.1h25.8c.1,0,.2,0,.3,-.1c.1,-.1,.2,-.3,.2,-.4V106.2c0,-.1,-.1,-.2,-.2,-.3c-.1,-.1,-.2,-.2,-.3,-.2H205.6Z" class="gn_227"/>
<path d="M225.3,131.7v6H199.5c0,-3.3,2.7,-6,6.1,-6Z" class="g1_227"/>
<path d="M225.3,131.7h-.5v5.5H199.5v.5h.5c0,-1.5,.7,-2.9,1.7,-3.9c1,-1,2.3,-1.6,3.9,-1.6h19.7v-.5h-.5h.5v-.6H205.6c-3.7,0,-6.6,3,-6.6,6.6c0,.1,.1,.3,.2,.4c0,.1,.2,.1,.3,.1h25.8c.1,0,.2,0,.3,-.1c.1,-.1,.2,-.3,.2,-.4v-6c0,-.2,-.1,-.3,-.2,-.4c-.1,-.1,-.2,-.2,-.3,-.2Z" class="gn_227"/>
<path d="M221.8,110.9H204.6m17.2,2.8H204.6m17.2,2.9H204.6m17.2,2.9H204.6m17.2,2.8H204.6m17.2,2.9H204.6m17.2,2.8H204.6" class="go_227"/>
<path clip-path="url(#c7_227)" d="M200.1,137.2h24.7v-5H200.1v5Z" class="gp_227"/>
<path clip-path="url(#c8_227)" d="M200.1,137.2c.1,-1.3,.7,-2.5,1.6,-3.4c1,-1,2.3,-1.6,3.9,-1.6h19.2v5Zm25.2,-5.5H205.6c-3.4,0,-6.1,2.7,-6.1,6h25.8v-6h-.5h.5Z" class="gq_227"/>
<path d="M199.5,108.8v34.3" class="go_227"/>
<path d="M217.2,145.5h3.3V134.7h-3.3v10.8Z" class="gr_227"/>
<path d="M32.1,45.1H9.2m958.3,0h22.9M32.1,1331.3H9.2m958.3,0h22.9M45.1,32.1V9.2m0,1335.1v22.9M954.5,32.1V9.2m0,1335.1v22.9" class="gs_227"/>
<path d="M32.1,45.1H9.2m958.3,0h22.9M32.1,1331.3H9.2m958.3,0h22.9M45.1,32.1V9.2m0,1335.1v22.9M954.5,32.1V9.2m0,1335.1v22.9" class="gt_227"/>
<path d="M27.5,32.1H0m972.1,0h27.5M27.5,1344.3H0m972.1,0h27.5M32.1,27.5V0m0,1348.9v27.5M967.5,27.5V0m0,1348.9v27.5" class="gs_227"/>
<path d="M27.5,32.1H0m972.1,0h27.5M27.5,1344.3H0m972.1,0h27.5M32.1,27.5V0m0,1348.9v27.5M967.5,27.5V0m0,1348.9v27.5" class="gt_227"/>
</svg>