<?xml version="1.0" encoding="UTF-8" standalone="no"?>
<!DOCTYPE svg PUBLIC "-//W3C//DTD SVG 1.1//EN"
"http://www.w3.org/Graphics/SVG/1.1/DTD/svg11.dtd">
<svg viewBox="0 0 999 1376" version="1.1" xmlns="http://www.w3.org/2000/svg" xmlns:xlink="http://www.w3.org/1999/xlink">
<defs>
<clipPath id="c0_245"><path d="M32.1,1344.3V32.1H967.5V1344.3Z"/></clipPath>
<clipPath id="c1_245"><path d="M682.7,178.5V60.3H865.1V178.5Z"/></clipPath>
<clipPath id="c2_245"><path d="M215,424.4v-83H831.1v83Z"/></clipPath>
<clipPath id="c3_245"><path d="M215,572.2V471.6H831.1V572.2Z"/></clipPath>
<clipPath id="c4_245"><path d="M215,777.3V646.4H831.1V777.3Z"/></clipPath>
<style type="text/css"><![CDATA[
.g0_245{
fill: #FEFCF4;
}
.g1_245{
fill: #F16865;
}
.g2_245{
fill: #6381B7;
}
.g3_245{
fill: none;
stroke: #6381B7;
stroke-width: 0.381;
stroke-dasharray: 2,1;
}
.g4_245{
fill: none;
stroke: #6381B7;
stroke-width: 0.381;
}
.g5_245{
fill: #FEF8F8;
}
.g6_245{
fill: none;
stroke: #A164A9;
stroke-width: 1.527;
stroke-linecap: round;
stroke-linejoin: round;
stroke-dasharray: 0,5;
}
.g7_245{
fill: none;
stroke: #A164A9;
stroke-width: 1.527;
stroke-linecap: round;
stroke-linejoin: round;
}
.g8_245{
fill: #A164A9;
}
.g9_245{
fill: #FFF;
}
.ga_245{
fill: none;
stroke: #231F20;
stroke-width: 0.305;
stroke-miterlimit: 10;
}
.gb_245{
fill: none;
stroke: #8CC63E;
stroke-width: 1.527;
stroke-linecap: round;
stroke-linejoin: round;
stroke-dasharray: 0,5;
}
.gc_245{
fill: none;
stroke: #8CC63E;
stroke-width: 1.527;
stroke-linecap: round;
stroke-linejoin: round;
}
.gd_245{
fill: #8CC63E;
}
.ge_245{
fill: #6CCFF6;
}
.gf_245{
fill: none;
stroke: #231F20;
stroke-width: 1.375;
stroke-miterlimit: 10;
}
.gg_245{
fill: #485E75;
}
.gh_245{
fill: #EAD646;
}
.gi_245{
fill: none;
stroke: #231F20;
stroke-width: 1.527;
}
.gj_245{
fill: none;
stroke: #FFF;
stroke-width: 1.909;
stroke-miterlimit: 10;
}
.gk_245{
fill: none;
stroke: #000;
stroke-width: 0.381;
stroke-miterlimit: 10;
}
]]></style>
</defs>
<path clip-path="url(#c0_245)" d="M-877.3,1344.3H45.1V32.1H-877.3V1344.3Z" class="g0_245"/>
<path d="M45.1,1344.3H967.5V32.1H45.1V1344.3Z" class="g0_245"/>
<path clip-path="url(#c0_245)" d="M867.9,166.7c0,0,30.3,0,30.3,-30.3v-4.3c0,0,0,-30.3,-30.3,-30.3H-735.4c0,0,-30.4,0,-30.4,30.3v4.3c0,0,0,30.3,30.4,30.3Z" class="g1_245"/>
<path d="M709.3,873.1c0,0,-4.3,0,-4.3,4.3v10.8c0,0,0,4.4,4.3,4.4h30.3c0,0,4.4,0,4.4,-4.4V877.4c0,0,0,-4.3,-4.4,-4.3Z" class="g2_245"/>
<path d="M696.1,864.2v37.6m1.4,.9H866.8m.9,-1.3V863.9m-1.3,-1H697.1" class="g3_245"/>
<path d="M696.1,902.2v.5h.6m170.5,0h.5v-.5m0,-38.7v-.6h-.5m-170.5,0h-.6v.6" class="g4_245"/>
<image clip-path="url(#c1_245)" preserveAspectRatio="none" x="683" y="60" width="182" height="118" xlink:href="img/1.png"/>
<path d="M154.1,855.2h713V251h-713V855.2Z" class="g5_245"/>
<path d="M154.1,255.6V852.9m4.6,2.3H864.9m2.2,-4.5V253.3M862.6,251H156.4" class="g6_245"/>
<path d="M154.1,855.2v0m713.1,0v0m0,-604.2v0m-713.1,0v0" class="g7_245"/>
<path d="M153.3,265.3V227c0,0,0,-8.7,8.7,-8.7H859.3c0,0,8.6,0,8.6,8.7v38.9Z" class="g8_245"/>
<image clip-path="url(#c2_245)" preserveAspectRatio="none" x="215" y="342" width="615" height="83" xlink:href="img/2.png"/>
<path d="M218.3,418.3H824.6V344.6H218.3v73.7Z" class="g9_245"/>
<path d="M387.6,374.4h70.9" class="ga_245"/>
<image clip-path="url(#c3_245)" preserveAspectRatio="none" x="215" y="472" width="615" height="101" xlink:href="img/3.png"/>
<path d="M218.3,565.8H824.6V474.9H218.3v90.9Z" class="g9_245"/>
<path d="M396.7,504.7h69.7" class="ga_245"/>
<image clip-path="url(#c4_245)" preserveAspectRatio="none" x="215" y="647" width="615" height="130" xlink:href="img/4.png"/>
<path d="M218.3,770.9H824.6V649.6H218.3V770.9Z" class="g9_245"/>
<path d="M231.3,705.4h70.9" class="ga_245"/>
<path d="M154.1,1243.9h713V1020.2h-713v223.7Z" class="g9_245"/>
<path d="M154.1,1024.8v216.8m4.6,2.3H864.9m2.2,-4.5V1022.5m-4.5,-2.2H156.4" class="gb_245"/>
<path d="M154.1,1243.9v0m713.1,0v0m0,-223.7v0m-713.1,0v0" class="gc_245"/>
<path d="M153.3,1024.9V996.2c0,0,0,-8.6,8.7,-8.6H859.3c0,0,8.6,0,8.6,8.6v29.2Z" class="gd_245"/>
<path d="M187.2,1001.4V995c0,-4.8,-3.9,-8.7,-8.7,-8.7c-4.8,0,-8.6,3.9,-8.6,8.7v6.4Z" class="ge_245"/>
<path d="M187.2,1001.4V995c0,-4.8,-3.9,-8.7,-8.7,-8.7c-4.8,0,-8.6,3.9,-8.6,8.7v6.4h17.3Z" class="gf_245"/>
<path d="M169.9,1003.1v5.4c0,4.8,3.8,8.7,8.6,8.7c4.8,0,8.7,-3.9,8.7,-8.7v-5.4Z" class="ge_245"/>
<path d="M169.9,1003.1v5.4c0,4.8,3.8,8.7,8.6,8.7c4.8,0,8.7,-3.9,8.7,-8.7v-5.4H169.9Z" class="gf_245"/>
<path d="M178.4,1022c-7.1,0,-13,-5.9,-13,-13.2h2.4c0,6,4.8,10.8,10.6,10.8c5.8,0,10.6,-4.8,10.6,-10.8h2.4c0,7.3,-5.8,13.2,-13,13.2Z" class="gg_245"/>
<path d="M178.4,1022c-7.1,0,-13,-5.9,-13,-13.2h2.4c0,6,4.8,10.8,10.6,10.8c5.8,0,10.6,-4.8,10.6,-10.8h2.4c0,7.3,-5.8,13.2,-13,13.2Z" class="gf_245"/>
<path d="M177.5,1029.2h2.4v-8.1h-2.4v8.1Z" class="gg_245"/>
<path d="M177.5,1029.2h2.4v-8.1h-2.4v8.1Z" class="gf_245"/>
<path d="M178.6,1025.6c-3.6,0,-6.6,2.1,-6.7,4.8h13.4c-.1,-2.7,-3.1,-4.8,-6.7,-4.8Z" class="gg_245"/>
<path d="M178.6,1025.6c-3.6,0,-6.6,2.1,-6.7,4.8h13.4c-.1,-2.7,-3.1,-4.8,-6.7,-4.8Z" class="gf_245"/>
<path d="M201.3,981.1c-6.5,0,-11.9,5.3,-11.9,11.9c0,2.7,.9,5.2,2.4,7.2l-1.5,5.3l5.5,-1.9c1.7,.9,3.5,1.3,5.5,1.3c6.6,0,12,-5.3,12,-11.9c0,-6.6,-5.4,-11.9,-12,-11.9Z" class="gh_245"/>
<path d="M201.3,981.1c-6.5,0,-11.9,5.3,-11.9,11.9c0,2.7,.9,5.2,2.4,7.2l-1.5,5.3l5.5,-1.9c1.7,.9,3.5,1.3,5.5,1.3c6.6,0,12,-5.3,12,-11.9c0,-6.6,-5.4,-11.9,-12,-11.9Z" class="gf_245"/>
<path d="M196.9,992.8c0,.8,-.7,1.4,-1.4,1.4c-.8,0,-1.4,-.6,-1.4,-1.4c0,-.8,.6,-1.4,1.4,-1.4c.7,0,1.4,.6,1.4,1.4Z" class="g9_245"/>
<path d="M196.9,992.8c0,.8,-.7,1.4,-1.4,1.4c-.8,0,-1.4,-.6,-1.4,-1.4c0,-.8,.6,-1.4,1.4,-1.4c.7,0,1.4,.6,1.4,1.4Z" class="gf_245"/>
<path d="M203,992.9c0,.7,-.6,1.3,-1.4,1.3c-.8,0,-1.4,-.6,-1.4,-1.3c0,-.8,.6,-1.4,1.4,-1.4c.8,0,1.4,.6,1.4,1.4Z" class="g9_245"/>
<path d="M203,992.9c0,.7,-.6,1.3,-1.4,1.3c-.8,0,-1.4,-.6,-1.4,-1.3c0,-.8,.6,-1.4,1.4,-1.4c.8,0,1.4,.6,1.4,1.4Z" class="gf_245"/>
<path d="M209.1,992.9c0,.7,-.6,1.3,-1.4,1.3c-.8,0,-1.4,-.6,-1.4,-1.3c0,-.8,.6,-1.4,1.4,-1.4c.8,0,1.4,.6,1.4,1.4Z" class="g9_245"/>
<path d="M209.1,992.9c0,.7,-.6,1.3,-1.4,1.3c-.8,0,-1.4,-.6,-1.4,-1.3c0,-.8,.6,-1.4,1.4,-1.4c.8,0,1.4,.6,1.4,1.4Z" class="gf_245"/>
<path d="M785.7,1007.3c0,0,-.5,-9.9,8.6,-9.3c0,0,6.8,-.4,6.7,9.4m-15.3,-1.5v6.5c0,0,-3.4,.4,-4,-3c0,0,0,-3.7,4,-3.5Zm15.3,0v6.5c0,0,3.4,.4,3.9,-3c0,0,.1,-3.7,-3.9,-3.5Z" class="gi_245"/>
<path d="M32.1,45.1H9.2m958.3,0h22.9M32.1,1331.3H9.2m958.3,0h22.9M45.1,32.1V9.2m0,1335.1v22.9M954.5,32.1V9.2m0,1335.1v22.9" class="gj_245"/>
<path d="M32.1,45.1H9.2m958.3,0h22.9M32.1,1331.3H9.2m958.3,0h22.9M45.1,32.1V9.2m0,1335.1v22.9M954.5,32.1V9.2m0,1335.1v22.9" class="gk_245"/>
<path d="M27.5,32.1H0m972.1,0h27.5M27.5,1344.3H0m972.1,0h27.5M32.1,27.5V0m0,1348.9v27.5M967.5,27.5V0m0,1348.9v27.5" class="gj_245"/>
<path d="M27.5,32.1H0m972.1,0h27.5M27.5,1344.3H0m972.1,0h27.5M32.1,27.5V0m0,1348.9v27.5M967.5,27.5V0m0,1348.9v27.5" class="gk_245"/>
</svg>