<?xml version="1.0" encoding="UTF-8" standalone="no"?>
<!DOCTYPE svg PUBLIC "-//W3C//DTD SVG 1.1//EN"
"http://www.w3.org/Graphics/SVG/1.1/DTD/svg11.dtd">
<svg viewBox="0 0 999 1376" version="1.1" xmlns="http://www.w3.org/2000/svg" xmlns:xlink="http://www.w3.org/1999/xlink">
<defs>
<clipPath id="c0_212"><path d="M209.9,727.6V645.5H292v82.1Z"/></clipPath>
<clipPath id="c1_212"><path d="M209.9,822.6V740.5H292v82.1Z"/></clipPath>
<clipPath id="c2_212"><path d="M209.9,917.6V835.4H292v82.2Z"/></clipPath>
<clipPath id="c3_212"><path d="M209.9,1012.5V930.4H292v82.1Z"/></clipPath>
<clipPath id="c4_212"><path d="M263,623.3V549.6h72.7v73.7Z"/></clipPath>
<clipPath id="c5_212"><path d="M262.8,623.2V551.4h68.7v71.8Z"/></clipPath>
<clipPath id="c6_212"><path d="M176.6,452.7l-6.5,-2.1L153.7,436.7V379.6h72v73.1Z"/></clipPath>
<clipPath id="c7_212"><path d="M178.4,137.2c.1,-1.3,.7,-2.5,1.6,-3.4c1,-1,2.4,-1.6,3.9,-1.6h19.2v5Z"/></clipPath>
<clipPath id="c8_212"><path d="M177.9,137.7v-6h25.7v6Z"/></clipPath>
<style type="text/css"><![CDATA[
.g0_212{
fill: #FFF;
}
.g1_212{
fill: none;
stroke: #6381B7;
stroke-width: 0.763;
}
.g2_212{
fill: none;
stroke: #231F20;
stroke-width: 0.381;
stroke-miterlimit: 10;
}
.g3_212{
fill: #DEF1F3;
}
.g4_212{
fill: #9BD1EA;
}
.g5_212{
fill: none;
stroke: #58595B;
stroke-width: 0.381;
stroke-miterlimit: 10;
}
.g6_212{
fill: #48484A;
}
.g7_212{
fill: #F0E8F3;
}
.g8_212{
fill: #766FA6;
}
.g9_212{
fill: none;
stroke: #231F20;
stroke-width: 0.458;
stroke-miterlimit: 10;
}
.ga_212{
fill: #E7D6B2;
}
.gb_212{
fill: #6381B7;
}
.gc_212{
fill: none;
stroke: #6381B7;
stroke-width: 0.381;
stroke-dasharray: 2,1;
}
.gd_212{
fill: none;
stroke: #6381B7;
stroke-width: 0.381;
}
.ge_212{
fill: #FCE8B0;
}
.gf_212{
fill: #25408F;
}
.gg_212{
fill: none;
stroke: #231F20;
stroke-width: 1.527;
}
.gh_212{
fill: #39B4D1;
stroke: #2D2A4A;
stroke-width: 1.038;
stroke-linecap: round;
stroke-linejoin: round;
}
.gi_212{
fill: #2D2A4A;
}
.gj_212{
fill: none;
stroke: #2D2A4A;
stroke-width: 1.038;
stroke-linecap: round;
stroke-linejoin: round;
}
.gk_212{
fill: #DEDAD3;
}
.gl_212{
fill: #29263F;
}
.gm_212{
fill: #E15F46;
stroke: #2D2A4A;
stroke-width: 1.038;
stroke-linecap: round;
stroke-linejoin: round;
}
.gn_212{
fill: #F3F8FC;
}
.go_212{
fill: none;
stroke: #8BBEE7;
stroke-width: 1.527;
stroke-linecap: round;
stroke-linejoin: round;
stroke-dasharray: 0,5;
}
.gp_212{
fill: none;
stroke: #8BBEE7;
stroke-width: 1.527;
stroke-linecap: round;
stroke-linejoin: round;
}
.gq_212{
fill: #7CA7D8;
}
.gr_212{
fill: #BFD62F;
}
.gs_212{
fill: #3D3B39;
}
.gt_212{
fill: #F5CA58;
}
.gu_212{
fill: none;
stroke: #FFF;
stroke-width: 1.909;
stroke-miterlimit: 10;
}
.gv_212{
fill: none;
stroke: #000;
stroke-width: 0.381;
stroke-miterlimit: 10;
}
]]></style>
</defs>
<path d="M145.1,467c0,0,-13,0,-13,13v533.6c0,0,0,13,13,13H832.9c0,0,13,0,13,-13V480c0,0,0,-13,-13,-13Z" class="g0_212"/>
<path d="M145.1,467c0,0,-13,0,-13,13v533.6c0,0,0,13,13,13H832.9c0,0,13,0,13,-13V480c0,0,0,-13,-13,-13H145.1Z" class="g1_212"/>
<path d="M345.7,705.1H509.6M345.7,799.8H509.6M345.7,894.6H509.6M345.7,989.3H509.6" class="g2_212"/>
<image clip-path="url(#c0_212)" preserveAspectRatio="none" x="210" y="645" width="82" height="83" xlink:href="img/1.jpg"/>
<image clip-path="url(#c1_212)" preserveAspectRatio="none" x="210" y="740" width="82" height="83" xlink:href="img/2.jpg"/>
<image clip-path="url(#c2_212)" preserveAspectRatio="none" x="210" y="835" width="82" height="83" xlink:href="img/3.jpg"/>
<image clip-path="url(#c3_212)" preserveAspectRatio="none" x="210" y="930" width="82" height="83" xlink:href="img/4.jpg"/>
<path d="M149,166.3c0,0,-17.3,0,-17.3,17.4V352.6c0,0,0,17.3,17.3,17.3H828.9c0,0,17.4,0,17.4,-17.3V183.7c0,0,0,-17.4,-17.4,-17.4Z" class="g3_212"/>
<path d="M274.6,238H491.1v25.9H274.6V238Zm216.5,0H707.6v25.9H491.1V238Z" class="g4_212"/>
<path d="M274.6,263.9H491.1v30.3H274.6V263.9Zm216.5,0H707.6v30.3H491.1V263.9Z" class="g0_212"/>
<path d="M274.6,238H491.1m0,0H707.6M491.1,263.7V238.1M274.6,263.9H491.1m0,0H707.6M491.1,294.1v-30M274.6,294.3H491.1m0,0H707.6" class="g5_212"/>
<path d="M172.8,552.8c0,0,-4.4,0,-4.4,4.3v14.7c0,0,0,4.4,4.1,5.8l52.7,18.6c0,0,4.1,1.4,4.1,-2.9V557.1c0,0,0,-4.3,-4.3,-4.3Z" class="g6_212"/>
<path d="M194,539.8c0,0,-13,0,-13,13v64.9c0,0,0,13,13,13H801.9c0,0,13,0,13,-13V552.8c0,0,0,-13,-13,-13Z" class="g7_212"/>
<path d="M172.8,550.6c0,0,-4.4,0,-4.4,4.3v17.4c0,0,0,4.3,4.4,4.3h37.5c0,0,4.3,0,4.3,-4.3V554.9c0,0,0,-4.3,-4.3,-4.3Z" class="g8_212"/>
<path d="M377.7,609.7h67.9" class="g9_212"/>
<path clip-path="url(#c4_212)" d="M193.2,545.6c0,0,-5.9,0,-5.9,5.9V624c0,0,0,5.8,5.9,5.8H760.3c0,0,5.8,0,5.8,-5.8V551.5c0,0,0,-5.9,-5.8,-5.9H193.2Z" class="ga_212"/>
<image clip-path="url(#c5_212)" preserveAspectRatio="none" x="262" y="552" width="70" height="71" xlink:href="img/5.jpg"/>
<path d="M370.3,1044.3c0,0,-4.4,0,-4.4,4.3v10.9c0,0,0,4.3,4.4,4.3h30.3c0,0,4.3,0,4.3,-4.3v-10.9c0,0,0,-4.3,-4.3,-4.3Z" class="gb_212"/>
<path d="M357.1,1035.5V1073m1.3,1H845.1m1,-1.4v-37.5m-1.4,-1H358" class="gc_212"/>
<path d="M357.1,1073.4v.6h.5m487.9,0h.6v-.6m0,-38.7v-.6h-.6m-487.9,0h-.5v.6" class="gd_212"/>
<path d="M209.2,407.7c0,0,-13,0,-13,13v21.7c0,0,0,13,13,13H830.8c0,0,13,0,13,-13V420.7c0,0,0,-13,-13,-13Z" class="ge_212"/>
<image clip-path="url(#c6_212)" preserveAspectRatio="none" x="152" y="378" width="75" height="76" xlink:href="img/6.png"/>
<path d="M204,448c0,0,-26.8,11.3,-51.1,-12.7c0,0,15.2,25.3,49.3,23.9c0,0,24.8,.4,20.3,-10.1c0,0,1.2,-4.5,-18.5,-1.1Z" class="ge_212"/>
<path d="M131.7,109.5v39l11.7,10.2V136.5Z" class="gf_212"/>
<path d="M131.7,109.5v39H829.5c0,0,16.8,0,16.8,-16.8v-5.4c0,0,0,-16.8,-16.8,-16.8Z" class="gb_212"/>
<path d="M768.8,131c0,0,-.5,-10,8.6,-9.4c0,0,6.7,-.3,6.6,9.5m-15.3,-1.5v6.5c0,0,-3.3,.3,-3.9,-3c0,0,-.1,-3.8,3.9,-3.5Zm15.4,0v6.5c0,0,3.3,.3,3.9,-3c0,0,.1,-3.8,-3.9,-3.5Z" class="gg_212"/>
<path d="M147.4,140.8h61v-32h-61v32Z" class="gh_212"/>
<path d="M147.4,143.1h61v-2.3h-61v2.3Z" class="gh_212"/>
<path d="M171.8,106.2H152.1v31.5h25.8V112.3c0,-3.4,-2.7,-6.1,-6.1,-6.1Z" class="g0_212"/>
<path d="M171.8,106.2v-.5H152.1c-.1,0,-.3,.1,-.4,.2c-.1,.1,-.1,.2,-.1,.3v31.5c0,.1,0,.3,.1,.4c.1,.1,.3,.1,.4,.1h25.8c.1,0,.2,0,.3,-.1c.1,-.1,.2,-.3,.2,-.4V112.3c0,-3.7,-2.9,-6.6,-6.6,-6.6v1c1.6,0,2.9,.7,3.9,1.7c1,1,1.6,2.3,1.6,3.9v24.9H152.6V106.7h19.2Z" class="gi_212"/>
<path d="M152.1,131.7v6h25.8c0,-3.3,-2.7,-6,-6.1,-6Z" class="g0_212"/>
<path d="M152.1,131.7h-.5v6c0,.1,0,.3,.1,.4c.1,.1,.3,.1,.4,.1h25.8c.1,0,.2,0,.3,-.1c.1,-.1,.2,-.3,.2,-.4c0,-3.6,-3,-6.6,-6.6,-6.6H152.1c-.1,0,-.3,.1,-.4,.2c-.1,.1,-.1,.2,-.1,.4h.5v.5h19.7c1.6,0,2.9,.6,3.9,1.6c1,1,1.6,2.4,1.6,3.9h.6v-.5H152.6v-5.5h-.5v.5Z" class="gi_212"/>
<path d="M155.6,110.9h17.2m-17.2,2.8h17.2m-17.2,2.9h17.2m-17.2,2.9h17.2m-17.2,2.8h17.2m-17.2,2.9h17.2M155.6,128h17.2" class="gj_212"/>
<path d="M171.8,132.2H152.6v5h24.7c-.1,-1.3,-.7,-2.5,-1.6,-3.4c-1,-1,-2.3,-1.6,-3.9,-1.6Z" class="gk_212"/>
<path d="M152.6,132.2h19.2c1.6,0,2.9,.6,3.9,1.6c.9,.9,1.5,2.1,1.6,3.4H152.6Zm19.2,-.5H152.1v6h25.2v-2.5c-.9,-2.1,-3,-3.5,-5.5,-3.5Z" class="gl_212"/>
<path d="M183.9,106.2h19.7v31.5H177.9V112.3c0,-3.4,2.7,-6.1,6,-6.1Z" class="g0_212"/>
<path d="M183.9,106.2v.5h19.2v30.5H178.4V112.3c0,-1.6,.6,-2.9,1.6,-3.9c1,-1,2.4,-1.7,3.9,-1.7v-1c-3.6,0,-6.6,2.9,-6.6,6.6v25.4c0,.1,.1,.3,.2,.4c.1,.1,.2,.1,.4,.1h25.7c.2,0,.3,0,.4,-.1c.1,-.1,.1,-.3,.1,-.4V106.2c0,-.1,0,-.2,-.1,-.3c-.1,-.1,-.2,-.2,-.4,-.2H183.9Z" class="gi_212"/>
<path d="M203.6,131.7v6H177.9c0,-3.3,2.7,-6,6,-6Z" class="g0_212"/>
<path d="M203.6,131.7h-.5v5.5H177.9v.5h.5c0,-1.5,.6,-2.9,1.6,-3.9c1,-1,2.4,-1.6,3.9,-1.6h19.7v-.5h-.5h.5v-.6H183.9c-3.6,0,-6.6,3,-6.6,6.6c0,.1,.1,.3,.2,.4c.1,.1,.2,.1,.4,.1h25.7c.2,0,.3,0,.4,-.1c.1,-.1,.1,-.3,.1,-.4v-6c0,-.2,0,-.3,-.1,-.4c-.1,-.1,-.2,-.2,-.4,-.2Z" class="gi_212"/>
<path d="M200.1,110.9H182.9m17.2,2.8H182.9m17.2,2.9H182.9m17.2,2.9H182.9m17.2,2.8H182.9m17.2,2.9H182.9m17.2,2.8H182.9" class="gj_212"/>
<path clip-path="url(#c7_212)" d="M178.4,137.2h24.7v-5H178.4v5Z" class="gk_212"/>
<path clip-path="url(#c8_212)" d="M178.4,137.2c.1,-1.3,.7,-2.5,1.6,-3.4c1,-1,2.4,-1.6,3.9,-1.6h19.2v5Zm25.2,-5.5H183.9c-3.3,0,-6,2.7,-6,6h25.7v-6h-.5h.5Z" class="gl_212"/>
<path d="M177.9,108.8v34.3" class="gj_212"/>
<path d="M195.5,145.5h3.3V134.7h-3.3v10.8Z" class="gm_212"/>
<path d="M132.5,1243.9h713V1121h-713v122.9Z" class="gn_212"/>
<path d="M132.5,1125.6v116m4.5,2.3H843.2m2.3,-4.5V1123.3m-4.6,-2.3H134.7" class="go_212"/>
<path d="M132.5,1243.9v0m713,0v0m0,-122.9v0m-713,0v0" class="gp_212"/>
<path d="M131.7,1124.3v-28.7c0,0,0,-8.6,8.6,-8.6H837.6c0,0,8.7,0,8.7,8.6v29.2Z" class="gq_212"/>
<path d="M173.8,1091.1c3.4,0,6.1,-2.8,6.1,-6.1c0,-3.4,-2.7,-6.1,-6.1,-6.1c-3.3,0,-6,2.7,-6,6.1c0,3.3,2.7,6.1,6,6.1Z" class="gr_212"/>
<path d="M173.8,1093c4.5,0,8.1,-3.6,8.1,-8c0,-4.5,-3.6,-8.1,-8.1,-8.1c-4.4,0,-8,3.6,-8,8.1c0,4.4,3.6,8,8,8m0,-14.1c3.4,0,6.1,2.7,6.1,6.1c0,3.3,-2.7,6.1,-6.1,6.1c-3.3,0,-6,-2.8,-6,-6.1c0,-3.4,2.7,-6.1,6,-6.1Z" class="gs_212"/>
<path d="M159.2,1107.1h29.3v-3.8c0,-4.4,-3.6,-8,-8,-8H167.2c-4.4,0,-8,3.6,-8,8Z" class="gr_212"/>
<path d="M150.9,1112.4h45.9V1109H150.9v3.4Z" class="g0_212"/>
<path d="M197.7,1107.1h-2.6v-11.6c0,-.2,-.1,-.5,-.3,-.6l-2.6,-2.6c.3,-.6,.5,-1.2,.5,-1.8c0,-2,-1.6,-3.6,-3.6,-3.6c-2,0,-3.7,1.6,-3.7,3.6c0,2,1.7,3.6,3.7,3.6c.6,0,1.2,-.2,1.7,-.5l2.4,2.3v11.2h-2.8v-3.8c0,-5.5,-4.4,-9.9,-9.9,-9.9H167.2c-5.5,0,-9.9,4.4,-9.9,9.9v3.8H150c-.6,0,-1,.4,-1,.9v5.4c0,.5,.4,.9,1,.9h2.6v11.3c0,.6,.5,1,1,1h40.5c.5,0,1,-.4,1,-1v-11.3h2.6c.6,0,1,-.4,1,-.9V1108c0,-.5,-.4,-.9,-1,-.9m-8.6,-14.9c-1,0,-1.7,-.8,-1.7,-1.7c0,-.9,.7,-1.7,1.7,-1.7c.9,0,1.6,.8,1.6,1.7c0,.9,-.7,1.7,-1.6,1.7m7.7,20.2H150.9V1109h45.9Zm-3.7,12.3H154.6v-10.4h38.5v10.4Zm-25.9,-29.4h13.3c4.4,0,8,3.6,8,8v3.8H159.2v-3.8c0,-4.4,3.6,-8,8,-8Z" class="gs_212"/>
<path d="M154.6,1124.7h38.5v-10.4H154.6v10.4Zm2.8,-7.6c0,-.2,.2,-.4,.4,-.4h32.1c.2,0,.4,.2,.4,.4v4.8c0,.2,-.2,.4,-.4,.4H157.8c-.2,0,-.4,-.2,-.4,-.4Z" class="g0_212"/>
<path d="M158.3,1121.4h31.1v-3.8H158.3v3.8Z" class="gt_212"/>
<path d="M157.8,1122.3h32.1c.2,0,.4,-.2,.4,-.4v-4.8c0,-.2,-.2,-.4,-.4,-.4H157.8c-.2,0,-.4,.2,-.4,.4v4.8c0,.2,.2,.4,.4,.4m.5,-4.7h31.1v3.8H158.3Z" class="gs_212"/>
<path d="M190.7,1090.5c0,-.9,-.7,-1.7,-1.6,-1.7c-1,0,-1.7,.8,-1.7,1.7c0,.9,.7,1.7,1.7,1.7c.9,0,1.6,-.8,1.6,-1.7Z" class="g0_212"/>
<path d="M32.1,45.1H9.2m958.3,0h22.9M32.1,1331.3H9.2m958.3,0h22.9M45.1,32.1V9.2m0,1335.1v22.9M954.5,32.1V9.2m0,1335.1v22.9" class="gu_212"/>
<path d="M32.1,45.1H9.2m958.3,0h22.9M32.1,1331.3H9.2m958.3,0h22.9M45.1,32.1V9.2m0,1335.1v22.9M954.5,32.1V9.2m0,1335.1v22.9" class="gv_212"/>
<path d="M27.5,32.1H0m972.1,0h27.5M27.5,1344.3H0m972.1,0h27.5M32.1,27.5V0m0,1348.9v27.5M967.5,27.5V0m0,1348.9v27.5" class="gu_212"/>
<path d="M27.5,32.1H0m972.1,0h27.5M27.5,1344.3H0m972.1,0h27.5M32.1,27.5V0m0,1348.9v27.5M967.5,27.5V0m0,1348.9v27.5" class="gv_212"/>
</svg>