<?xml version="1.0" encoding="UTF-8" standalone="no"?>
<!DOCTYPE svg PUBLIC "-//W3C//DTD SVG 1.1//EN"
"http://www.w3.org/Graphics/SVG/1.1/DTD/svg11.dtd">
<svg viewBox="0 0 999 1376" version="1.1" xmlns="http://www.w3.org/2000/svg" xmlns:xlink="http://www.w3.org/1999/xlink">
<defs>
<clipPath id="c0_241"><path d="M154,1244.1V131.1H868.6v1113Z"/></clipPath>
<clipPath id="c1_241"><path d="M172.8,1230.2V504.1H851.3v726.1Z"/></clipPath>
<clipPath id="c2_241"><path d="M376,920v-9.6h9.6V920Z"/></clipPath>
<clipPath id="c3_241"><path d="M344.7,856V842.7h36.5V856Z"/></clipPath>
<clipPath id="c4_241"><path d="M299.9,1159.7v-54.2h41.9v54.2Z"/></clipPath>
<clipPath id="c5_241"><path d="M341.7,1159.7v-54.2h42v54.2Z"/></clipPath>
<clipPath id="c6_241"><path d="M383.6,1159.7v-54.2h41.9v54.2Z"/></clipPath>
<clipPath id="c7_241"><path d="M299.9,1213.8v-54.2h41.9v54.2Z"/></clipPath>
<clipPath id="c8_241"><path d="M341.7,1213.9v-54.3h42v54.3Z"/></clipPath>
<clipPath id="c9_241"><path d="M383.6,1213.8v-54.2h41.9v54.2Z"/></clipPath>
<clipPath id="ca_241"><path d="M366.5,1007.9V954.1h69.9v53.8Z"/></clipPath>
<clipPath id="cb_241"><path d="M297.6,1010.4V954.8h72.2v55.6Z"/></clipPath>
<clipPath id="cc_241"><path d="M300.8,1085.3v-74.5H429v74.5Z"/></clipPath>
<clipPath id="cd_241"><path d="M295.2,648.3V519.4H434V648.3Z"/></clipPath>
<clipPath id="ce_241"><path d="M327.7,802.7V666.1h77.1V802.7Z"/></clipPath>
<style type="text/css"><![CDATA[
.g0_241{
fill: #FFF;
}
.g1_241{
fill: none;
stroke: #231F20;
stroke-width: 0.756;
stroke-miterlimit: 3;
}
.g2_241{
fill: #C3E7EF;
}
.g3_241{
fill: #E2F4FC;
}
.g4_241{
fill: none;
stroke: #0078B6;
stroke-width: 0.763;
stroke-miterlimit: 10;
}
.g5_241{
fill: none;
stroke: #0078B6;
stroke-width: 2.291;
stroke-miterlimit: 10;
}
.g6_241{
fill: #1B9C42;
}
.g7_241{
fill: #E6F6FC;
}
.g8_241{
fill: #25408F;
}
.g9_241{
fill: #6381B7;
}
.ga_241{
fill: #FFDE2C;
}
.gb_241{
fill: none;
stroke: #231F20;
stroke-width: 1.451;
stroke-miterlimit: 10;
}
.gc_241{
fill: #D2D3D5;
}
.gd_241{
fill: #A8AAAD;
}
.ge_241{
fill: none;
stroke: #231F20;
stroke-width: 0.828;
stroke-miterlimit: 10;
}
.gf_241{
fill: #6CCFF6;
}
.gg_241{
fill: none;
stroke: #231F20;
stroke-width: 0.828;
stroke-linecap: round;
stroke-linejoin: round;
}
.gh_241{
fill: none;
stroke: #231F20;
stroke-width: 1.451;
stroke-linecap: round;
stroke-linejoin: round;
}
.gi_241{
fill: none;
stroke: #FFF;
stroke-width: 1.909;
stroke-miterlimit: 10;
}
.gj_241{
fill: none;
stroke: #000;
stroke-width: 0.381;
stroke-miterlimit: 10;
}
]]></style>
</defs>
<path d="M154,1244.1H868.6V131.1H154v1113Z" class="g0_241"/>
<image clip-path="url(#c0_241)" preserveAspectRatio="none" x="152" y="129" width="718" height="1117" xlink:href="img/1.jpg"/>
<path d="M387.6,176.7c0,.4,0,.8,-.1,1.2c0,.3,-.1,.7,-.2,1.1c.6,.1,1,.4,1.5,.7c.4,.3,.8,.7,1.2,1.1c.5,.6,1,1.3,1.5,2c.6,.7,1.1,1.5,1.7,2.3l-1.5,1.3c-.6,-1,-1.2,-1.7,-1.7,-2.4c-.5,-.6,-1,-1.3,-1.4,-1.9c-.3,-.2,-.5,-.5,-.8,-.7c-.3,-.3,-.7,-.5,-1,-.6c-.6,1.2,-1.3,2.3,-2.2,3.3c-.9,1,-1.9,1.9,-2.9,2.7L380.3,185c.3,-.2,.6,-.5,.9,-.7c.3,-.3,.6,-.5,.8,-.8c-.3,-.3,-.6,-.6,-.8,-1c-.3,-.3,-.6,-.6,-.8,-.8c-.2,-.2,-.4,-.4,-.6,-.6c-.2,-.1,-.4,-.3,-.7,-.4c-.5,1.2,-1.2,2.2,-2.1,3.2c-.9,1,-1.9,1.8,-2.9,2.6l-1.3,-1.9c1.6,-1,2.9,-2.2,3.7,-3.4c.8,-1.3,1.2,-2.5,1.2,-3.7v-1.6c0,-.4,-.1,-.8,-.1,-1.2c0,-.4,-.1,-.8,-.2,-1.1l2.1,-.6c.1,.4,.2,.7,.2,1.1c.1,.5,.1,1,.1,1.7v1.6c0,.2,0,.5,0,.8c0,.2,-.1,.5,-.1,.8c.3,.1,.6,.2,.9,.4c.3,.1,.6,.3,.9,.6c.3,.3,.6,.7,.9,1c.4,.4,.7,.7,1,1.1c.7,-.9,1.2,-1.7,1.5,-2.6c.4,-.9,.5,-1.8,.5,-2.9v-1.3c0,-.3,0,-.7,-.1,-1c0,-.4,-.1,-.7,-.1,-1l2.1,-.6c.1,.4,.2,.8,.2,1.2c.1,.5,.1,.9,.1,1.2v1.6Zm6.1,15.1H372.4V190h21.3v1.8ZM407.6,188.7c-1,.4,-2,.7,-3.2,.8c-1.2,.2,-2.3,.3,-3.4,.3h-2.5c-.8,0,-1.4,-.2,-1.9,-.6c-.4,-.4,-.6,-1,-.6,-1.9v-6.7h6.8v-5.3H396v-1.8h9v8.3c-.7,.2,-1.3,.4,-1.9,.5c-.5,.1,-1.2,.1,-1.8,.1h-3.1v4.8c0,.3,.1,.5,.2,.6c.1,.1,.3,.1,.6,.1h2.3c1,0,2,0,3,-.2c1,-.1,1.9,-.4,2.9,-.7l.4,1.7Zm2.1,5.8V182.2H406v-1.9h3.7v-7.8h2.2v22h-2.2Zm5.1,-22H417v22.6h-2.2V172.5ZM421.2,188.8c2.7,-1.8,4.9,-3.8,6.5,-6c1.5,-2.2,2.5,-4.4,2.7,-6.6c.1,-.4,0,-.6,-.1,-.7c-.2,-.1,-.4,-.2,-.6,-.2H421v-1.8h9.6c.9,0,1.4,.2,1.7,.7c.3,.4,.4,1,.4,1.8c-.3,2.5,-1.3,5.1,-3,7.6c-1.7,2.5,-4.1,4.9,-7.3,7.1l-1.2,-1.9Zm16.4,-16.3h2.2v22.6h-2.2V172.5ZM467.1,194.4c-.3,.6,-.8,1.2,-1.4,1.6c-.6,.5,-1.3,.9,-2.1,1.2c-.8,.2,-1.6,.3,-2.6,.3c-.9,0,-1.8,-.1,-2.6,-.3c-.8,-.3,-1.5,-.7,-2.1,-1.2c-.6,-.4,-1.1,-1,-1.4,-1.6c-.3,-.7,-.5,-1.5,-.5,-2.3c0,-.8,.2,-1.5,.5,-2.2c.3,-.6,.8,-1.2,1.4,-1.7c.6,-.4,1.3,-.8,2.1,-1c.8,-.3,1.7,-.4,2.6,-.4c1,0,1.9,.1,2.7,.4c.8,.2,1.5,.6,2,1c.6,.5,1.1,1.1,1.4,1.7c.4,.7,.5,1.4,.5,2.2c0,.8,-.1,1.6,-.5,2.3Zm-.8,-22.2c.3,0,.6,0,.7,.2c.2,.1,.3,.3,.4,.5c0,.2,0,.4,0,.6c0,.2,-.1,.3,-.2,.5c-.4,.5,-.8,1,-1.4,1.5c-.5,.5,-1.1,1,-1.8,1.4c.3,.1,.7,.2,1,.3c.3,.1,.6,.2,.9,.4c.4,.2,.9,.5,1.6,.9c.6,.3,1.2,.7,1.8,1.1l-1.1,1.6c-.5,-.4,-1.1,-.7,-1.7,-1.1c-.6,-.4,-1.3,-.7,-1.8,-1.1c-.3,-.1,-.7,-.3,-1.3,-.5c-.5,-.2,-1,-.3,-1.7,-.4c-1.3,.6,-2.7,1.2,-4.3,1.6c-1.5,.5,-3.2,.9,-4.8,1.2l-.5,-1.9c2.6,-.5,5,-1.1,7,-1.8c2.1,-.8,3.9,-1.9,5.6,-3.3H453.6v-1.7h12.7Zm-2.1,17.4c-.8,-.7,-1.9,-1,-3.2,-1c-1.2,0,-2.3,.3,-3.1,1c-.8,.6,-1.2,1.5,-1.2,2.5c0,1.1,.4,2,1.2,2.6c.8,.7,1.9,1,3.1,1c1.3,0,2.4,-.3,3.2,-1c.8,-.6,1.2,-1.5,1.2,-2.6c0,-1,-.4,-1.9,-1.2,-2.5Zm7.6,-4.4H450.5v-1.8h9.3v-3.3H462v3.3h9.8v1.8Zm20.7,-13v3.2h4.3v1.8h-4.3v3.6h4.3v1.7h-4.3v.5c0,1,-.2,1.9,-.5,2.7c-.4,.9,-.9,1.6,-1.7,2.3c.5,.5,.8,1.1,1.1,1.7c.3,.7,.4,1.4,.4,2.1c0,.9,-.1,1.7,-.5,2.4c-.3,.7,-.8,1.3,-1.4,1.8c-.6,.5,-1.2,.9,-2,1.1c-.8,.3,-1.6,.4,-2.4,.4c-.9,0,-1.7,-.1,-2.5,-.4c-.8,-.2,-1.5,-.6,-2.1,-1.1c-.6,-.5,-1,-1.1,-1.4,-1.8c-.3,-.7,-.5,-1.5,-.5,-2.4c0,-.8,.2,-1.6,.5,-2.3c.4,-.7,.8,-1.3,1.4,-1.8c.6,-.5,1.3,-.9,2.1,-1.2c.8,-.3,1.6,-.4,2.5,-.4c.6,0,1.1,.1,1.7,.2c.6,.2,1.1,.4,1.6,.6c.5,-.6,.9,-1.2,1.1,-1.8c.2,-.6,.3,-1.3,.3,-2.2V182c-1.1,.7,-2.5,1.2,-4,1.5c-1.5,.3,-3,.5,-4.3,.5h-5.1c-.8,0,-1.4,-.2,-1.9,-.5c-.5,-.3,-.7,-.8,-.7,-1.6v-4.5h8.5v-3h-8.5v-1.8h10.7v5.8c-.5,.3,-1.1,.4,-1.6,.6c-.6,.1,-1.2,.1,-1.9,.1h-4.9v2.5c0,.3,0,.4,.1,.5c.1,.1,.2,.1,.4,.1h4.9c1.3,0,2.7,-.1,4.2,-.4c1.5,-.3,2.9,-.9,4.1,-1.7v-7.9h2.3ZM488.4,189c-.7,-.8,-1.7,-1.1,-2.9,-1.1c-1.3,0,-2.3,.3,-3.1,1.1c-.7,.7,-1.1,1.7,-1.1,2.8c0,1.2,.4,2.2,1.1,2.9c.8,.7,1.8,1.1,3.1,1.1c1.2,0,2.2,-.4,2.9,-1.1c.8,-.7,1.2,-1.7,1.2,-2.9c0,-1.1,-.4,-2.1,-1.2,-2.8Zm9.9,-.5c2.4,-1.9,4.2,-4,5.5,-6.1c1.4,-2.2,2.2,-4.3,2.6,-6.4c0,-.3,-.1,-.5,-.2,-.5c-.1,-.1,-.3,-.2,-.5,-.2h-6.5v-1.8h7.4c.7,0,1.2,.2,1.6,.5c.3,.3,.5,.8,.4,1.6c-.2,1.2,-.4,2.5,-.9,3.7c-.4,1.2,-1,2.3,-1.7,3.5c.6,.2,1.1,.5,1.5,.8c.3,.3,.7,.6,.9,.9c.5,.7,.9,1.4,1.4,2.1c.4,.7,.9,1.5,1.5,2.4l-1.7,1.2c-.5,-.9,-1,-1.8,-1.5,-2.5c-.5,-.7,-.9,-1.4,-1.3,-1.9c-.2,-.3,-.4,-.5,-.7,-.8c-.3,-.2,-.7,-.4,-1.1,-.6c-.8,1,-1.6,2.1,-2.5,3c-.9,1,-1.8,1.9,-2.8,2.8l-1.4,-1.7Zm14.8,6V182.4H509v-1.9h4.1v-8h2.2v22h-2.2Zm5.3,-22h2.2v22.6h-2.2V172.5ZM529.9,190v-4.8c-1.7,-.2,-3,-.8,-4.1,-1.9c-1,-1.1,-1.5,-2.6,-1.5,-4.3c0,-.9,.2,-1.8,.5,-2.5c.3,-.8,.7,-1.4,1.3,-2c.6,-.6,1.3,-1,2.1,-1.3c.8,-.3,1.7,-.4,2.7,-.4c.9,0,1.8,.1,2.6,.4c.8,.3,1.5,.7,2.1,1.3c.6,.6,1,1.2,1.3,2c.4,.7,.5,1.6,.5,2.5c0,1.7,-.4,3.1,-1.4,4.2c-1,1.1,-2.3,1.8,-3.8,2V190h1.2c1.3,0,2.6,-.2,3.8,-.4c1.2,-.2,2.4,-.7,3.6,-1.4V172.5h2.3v9.4h4.3v1.8h-4.3v11.4h-2.3v-4.9c-1,.5,-2.1,.9,-3.3,1.2c-1.2,.2,-2.5,.4,-4,.4H523.4V190h6.5ZM534,175.8c-.8,-.8,-1.9,-1.2,-3.1,-1.2c-1.3,0,-2.3,.4,-3.1,1.2c-.8,.8,-1.2,1.9,-1.2,3.2c0,1.5,.4,2.6,1.2,3.3c.8,.8,1.8,1.1,3.1,1.1c1.2,0,2.3,-.3,3.1,-1.1c.8,-.7,1.2,-1.8,1.2,-3.3c0,-1.3,-.4,-2.4,-1.2,-3.2Zm39.4,-3.6v8.1c-.7,.3,-1.7,.7,-2.9,1c-1.2,.3,-2.3,.4,-3.3,.4h-6.3c-1,0,-1.7,-.2,-2.2,-.6c-.4,-.3,-.6,-.9,-.6,-1.7v-7.2h2.3v3h10.7v-3h2.3Zm-8.3,19v-5h-9.8v-1.8h21.3v1.8h-9.2v5h-2.3Zm-4.8,5.4c-.8,0,-1.4,-.2,-1.8,-.5c-.4,-.4,-.6,-.9,-.6,-1.6V189h2.3v5c0,.3,0,.5,.2,.6c.1,.2,.3,.2,.6,.2h7.2c1,0,2,0,2.8,-.1c.9,-.2,1.8,-.4,2.7,-.7l.5,1.7c-1.1,.4,-2.1,.6,-3,.7c-.9,.2,-1.9,.2,-3,.2h-7.9Zm8.8,-16.8c.8,-.2,1.5,-.3,2,-.6V177H560.4v2.3c0,.2,0,.4,.1,.5c.1,.1,.3,.1,.5,.1h6.1c.6,0,1.3,0,2,-.1Zm11,9c-.4,-.4,-.7,-1.1,-.7,-2.1v-6.4H588V175h-8.6v-1.8h10.9v8.3c-.7,.2,-1.3,.4,-1.9,.5c-.6,.1,-1.2,.1,-1.8,.1h-4.9v4.7c0,.3,.1,.5,.2,.7c0,.1,.3,.2,.6,.2h4c.6,0,1.3,-.1,2,-.2c.8,-.1,1.6,-.2,2.5,-.4c.8,-.2,1.7,-.4,2.5,-.7c.8,-.3,1.6,-.7,2.3,-1.1V172.5h2.3v22.6h-2.3v-7.7c-1.5,.7,-3.1,1.2,-4.7,1.6c-1.6,.3,-3.1,.5,-4.6,.5h-4.3c-.9,0,-1.6,-.3,-2.1,-.7Zm30.7,7.1v-7.6h-9.4v-1.8h21.3v1.8h-9.6v7.6h-2.3Zm1.8,-20.2c0,.4,-.1,.8,-.2,1.1c.7,.1,1.4,.2,1.9,.4c.5,.2,1,.4,1.4,.7c.3,.2,.7,.5,1.2,.9c.4,.3,.9,.7,1.3,1.1c.5,.3,1,.7,1.5,1.1c.5,.5,.9,.8,1.4,1.2l-1.3,1.7c-.4,-.3,-.9,-.6,-1.3,-1c-.5,-.4,-1,-.8,-1.4,-1.2c-.5,-.4,-.9,-.8,-1.4,-1.2c-.4,-.3,-.8,-.6,-1.1,-.8c-.4,-.3,-.8,-.5,-1.3,-.7c-.4,-.1,-1,-.3,-1.7,-.4c-.3,.4,-.5,.8,-.8,1.1c-.2,.3,-.5,.6,-.9,.9c-.8,.8,-1.7,1.4,-2.9,2c-1.1,.6,-2.2,1.1,-3.5,1.5l-.7,-2c1.3,-.4,2.5,-.8,3.4,-1.3c.9,-.6,1.6,-1.1,2.3,-1.7c.6,-.6,1.1,-1.3,1.4,-2c.3,-.6,.5,-1.4,.5,-2.4c0,-.4,0,-.7,-.1,-1c-.1,-.4,-.1,-.7,-.2,-1l2.3,-.5c.1,.3,.1,.7,.2,1.1c.1,.5,.1,.9,.1,1.2c0,.4,0,.8,-.1,1.2Zm29,19.4V182.6h-5.8v-1.8h5.8v-8.3h2.3v22.6h-2.3ZM625,188.8c2.7,-1.8,4.9,-3.8,6.5,-6c1.5,-2.2,2.5,-4.4,2.7,-6.6c.1,-.4,0,-.6,-.1,-.7c-.2,-.1,-.4,-.2,-.6,-.2h-8.7v-1.8h9.6c.9,0,1.4,.2,1.7,.7c.3,.4,.4,1,.4,1.8c-.3,2.5,-1.3,5.1,-3,7.6c-1.7,2.5,-4.1,4.9,-7.3,7.1L625,188.8Z" class="g1_241"/>
<path clip-path="url(#c1_241)" d="M152.3,222.2c0,0,-10.9,0,-10.9,10.8V1252.1c0,0,0,10.9,10.9,10.9H866.8c0,0,10.9,0,10.9,-10.9V233c0,0,0,-10.8,-10.9,-10.8H152.3Z" class="g2_241"/>
<path d="M174.3,507H289.4V658.6H174.3V507Zm0,151.6H289.4V810.2H174.3V658.6Zm0,151.6H289.4V949.6H174.3V810.2Zm0,139.4H289.4v139.5H174.3V949.6Zm0,139.5H289.4v139.4H174.3V1089.1Z" class="g3_241"/>
<path d="M289.4,507H441V658.6H289.4V507ZM441,507H848.9V810.2H441V507ZM289.4,658.6H441V810.2H289.4V658.6Zm0,151.6H441V949.6H289.4V810.2Zm151.6,0H848.9V949.6H441V810.2ZM289.4,949.6H441v139.5H289.4V949.6Zm151.6,0H848.9v139.5H441V949.6ZM289.4,1089.1H441v139.4H289.4V1089.1Zm151.6,0H848.9v139.4H441V1089.1Z" class="g0_241"/>
<path d="M289.4,658.2v-150M441,658.2v-150M175.5,658.6H441.4m-152,151.2V659M441,809.8V659M175.5,810.2H441m-151.6,139V810.6M441,810.2H847.8M441,949.2V810.6m-265.5,139H441M289.4,1088.7V950M441,949.6H847.8M441,1088.7V950M175.5,1089.1H441M289.4,1227.4V1089.5m151.6,-.4H847.8M441,1227.4V1089.5" class="g4_241"/>
<path d="M173.2,507H289.4M174.3,658.6V508.2M289.4,507H850.1m-1.2,151.6V508.2m0,302V658.6M174.3,810.2V658.6m0,291V810.2M848.9,949.6V810.2M174.3,1089.1V949.6m674.6,139.5V949.6M174.3,1227.4V1089.1m674.6,138.3V1089.1M173.2,1228.5H850.1" class="g5_241"/>
<path d="M419.7,882.6c0,31.1,-25.2,56.3,-56.3,56.3c-31.1,0,-56.3,-25.2,-56.3,-56.3c0,-31,25.2,-56.2,56.3,-56.2c31.1,0,56.3,25.2,56.3,56.2Z" class="g6_241"/>
<path d="M407.8,882.6c0,24.6,-19.9,44.5,-44.4,44.5C338.9,927.1,319,907.2,319,882.6c0,-24.5,19.9,-44.4,44.4,-44.4c24.5,0,44.4,19.9,44.4,44.4Z" class="g0_241"/>
<image clip-path="url(#c2_241)" preserveAspectRatio="none" x="376" y="910" width="10" height="10" xlink:href="img/2.jpg"/>
<image clip-path="url(#c3_241)" preserveAspectRatio="none" x="345" y="843" width="37" height="13" xlink:href="img/3.jpg"/>
<image clip-path="url(#c4_241)" preserveAspectRatio="none" x="300" y="1105" width="42" height="55" xlink:href="img/4.jpg"/>
<image clip-path="url(#c5_241)" preserveAspectRatio="none" x="342" y="1105" width="42" height="55" xlink:href="img/5.jpg"/>
<image clip-path="url(#c6_241)" preserveAspectRatio="none" x="384" y="1105" width="42" height="55" xlink:href="img/6.jpg"/>
<image clip-path="url(#c7_241)" preserveAspectRatio="none" x="300" y="1159" width="42" height="55" xlink:href="img/7.jpg"/>
<image clip-path="url(#c8_241)" preserveAspectRatio="none" x="342" y="1159" width="42" height="55" xlink:href="img/8.jpg"/>
<image clip-path="url(#c9_241)" preserveAspectRatio="none" x="384" y="1159" width="42" height="55" xlink:href="img/9.jpg"/>
<image clip-path="url(#ca_241)" preserveAspectRatio="none" x="365" y="953" width="73" height="56" xlink:href="img/10.jpg"/>
<image clip-path="url(#cb_241)" preserveAspectRatio="none" x="296" y="953" width="76" height="59" xlink:href="img/11.jpg"/>
<image clip-path="url(#cc_241)" preserveAspectRatio="none" x="301" y="1009" width="128" height="78" xlink:href="img/12.jpg"/>
<image clip-path="url(#cd_241)" preserveAspectRatio="none" x="293" y="518" width="143" height="132" xlink:href="img/13.jpg"/>
<image clip-path="url(#ce_241)" preserveAspectRatio="none" x="326" y="666" width="80" height="137" xlink:href="img/14.jpg"/>
<path d="M176.3,656.1H288v-145H176.3v145Z" class="g7_241"/>
<path d="M178,808.6H286.3V661.3H178V808.6Z" class="g7_241"/>
<path d="M176.3,945.9H288V813.8H176.3V945.9Z" class="g7_241"/>
<path d="M176.3,1086.6H288v-136H176.3v136Z" class="g7_241"/>
<path d="M176.3,1224.3H288V1091.4H176.3v132.9Z" class="g7_241"/>
<path d="M445.7,947.6H843V812.5H445.7V947.6Z" class="g0_241"/>
<path d="M445.7,1085.5H843V951.9H445.7v133.6Z" class="g0_241"/>
<path d="M446.7,1221.9H846.3V1097.4H446.7v124.5Z" class="g0_241"/>
<path d="M445.7,807.9H846.3V514H445.7V807.9Z" class="g0_241"/>
<path d="M153.3,126.3v22.2L165,158.7V136.5Z" class="g8_241"/>
<path d="M153.3,109.5v39H851.1c0,0,16.8,0,16.8,-16.8v-5.4c0,0,0,-16.8,-16.8,-16.8Z" class="g9_241"/>
<path d="M207.2,115.7c0,-9.1,-7.9,-16.6,-17.7,-16.6c-9.8,0,-17.7,7.5,-17.7,16.6c0,2.7,.6,5.2,1.8,7.4c1.2,2.4,2.9,4.6,5,6.2c1.2,1,1.6,1.7,1.7,4.3v.6c0,3.3,2.7,5.9,5.9,5.9h6.6c3.2,0,5.8,-2.6,5.8,-5.9v-.6c.2,-2.6,.6,-3.3,1.8,-4.3c2.1,-1.6,3.8,-3.8,5,-6.2c1.2,-2.2,1.8,-4.7,1.8,-7.4Z" class="ga_241"/>
<path d="M207.2,115.7c0,-9.1,-7.9,-16.6,-17.7,-16.6c-9.8,0,-17.7,7.5,-17.7,16.6c0,2.7,.6,5.2,1.8,7.4c1.2,2.4,2.9,4.6,5,6.2c1.2,1,1.6,1.7,1.7,4.3v.6c0,3.3,2.7,5.9,5.9,5.9h6.6c3.2,0,5.8,-2.6,5.8,-5.9v-.6c.2,-2.6,.6,-3.3,1.8,-4.3c2.1,-1.6,3.8,-3.8,5,-6.2c1.2,-2.2,1.8,-4.7,1.8,-7.4Z" class="gb_241"/>
<path d="M194.6,147.4c0,2.8,-2.3,5.1,-5.1,5.1c-2.8,0,-5.1,-2.3,-5.1,-5.1c0,-2.8,2.3,-5.1,5.1,-5.1c2.8,0,5.1,2.3,5.1,5.1Z" class="g0_241"/>
<path d="M194.6,147.4c0,2.8,-2.3,5.1,-5.1,5.1c-2.8,0,-5.1,-2.3,-5.1,-5.1c0,-2.8,2.3,-5.1,5.1,-5.1c2.8,0,5.1,2.3,5.1,5.1Z" class="gb_241"/>
<path d="M182.1,140.2c0,1,.8,1.8,1.8,1.8h11.2c1,0,1.8,-.8,1.8,-1.8v-1.3H182.1Z" class="g0_241"/>
<path d="M182.1,140.2c0,1,.8,1.8,1.8,1.8h11.2c1,0,1.8,-.8,1.8,-1.8v-1.3H182.1v1.3Z" class="gb_241"/>
<path d="M196.9,143.2c0,.8,-.6,1.3,-1.3,1.3H183.4c-.8,0,-1.3,-.5,-1.3,-1.3c0,-.7,.5,-1.3,1.3,-1.3h12.2c.7,0,1.3,.6,1.3,1.3Z" class="g0_241"/>
<path d="M196.9,143.2c0,.8,-.6,1.3,-1.3,1.3H183.4c-.8,0,-1.3,-.5,-1.3,-1.3c0,-.7,.5,-1.3,1.3,-1.3h12.2c.7,0,1.3,.6,1.3,1.3Z" class="gb_241"/>
<path d="M196.9,145.8c0,.7,-.6,1.3,-1.3,1.3H183.4c-.8,0,-1.3,-.6,-1.3,-1.3c0,-.7,.5,-1.3,1.3,-1.3h12.2c.7,0,1.3,.6,1.3,1.3Z" class="g0_241"/>
<path d="M196.9,145.8c0,.7,-.6,1.3,-1.3,1.3H183.4c-.8,0,-1.3,-.6,-1.3,-1.3c0,-.7,.5,-1.3,1.3,-1.3h12.2c.7,0,1.3,.6,1.3,1.3Z" class="gb_241"/>
<path d="M215.5,128.7l8.3,10.4c.6,.7,1.8,.6,2.7,-.2c.9,-.7,1.2,-1.9,.7,-2.6l-8.9,-10.2Z" class="gc_241"/>
<path d="M215.5,128.7l8.3,10.4c.6,.7,1.8,.6,2.7,-.2c.9,-.7,1.2,-1.9,.7,-2.6l-8.9,-10.2l-2.8,2.6Z" class="gb_241"/>
<path d="M217.5,125.1c.5,.6,.3,1.8,-.7,2.6c-.9,.7,-2.1,.8,-2.6,.2c-.6,-.7,-.3,-1.9,.6,-2.6c.9,-.8,2.1,-.9,2.7,-.2Z" class="gd_241"/>
<path d="M217.5,125.1c.5,.6,.3,1.8,-.7,2.6c-.9,.7,-2.1,.8,-2.6,.2c-.6,-.7,-.3,-1.9,.6,-2.6c.9,-.8,2.1,-.9,2.7,-.2Z" class="gb_241"/>
<path d="M212.7,124.7l1.7,2c.3,.3,1,.3,1.5,-.1c.5,-.5,.7,-1.1,.4,-1.5l-1.7,-2Z" class="g0_241"/>
<path d="M212.7,124.7l1.7,2c.3,.3,1,.3,1.5,-.1c.5,-.5,.7,-1.1,.4,-1.5l-1.7,-2l-1.9,1.6Z" class="ge_241"/>
<path d="M214.8,122.9c.4,.5,.2,1.3,-.5,1.8c-.6,.5,-1.4,.6,-1.8,.1c-.4,-.4,-.2,-1.2,.5,-1.7c.6,-.6,1.4,-.6,1.8,-.2Z" class="g0_241"/>
<path d="M214.8,122.9c.4,.5,.2,1.3,-.5,1.8c-.6,.5,-1.4,.6,-1.8,.1c-.4,-.4,-.2,-1.2,.5,-1.7c.6,-.6,1.4,-.6,1.8,-.2Z" class="ge_241"/>
<path d="M216.4,105.4c4.8,5.7,4.1,14.2,-1.7,19c-5.7,4.8,-14.2,4,-19,-1.7c-4.8,-5.7,-4,-14.2,1.7,-19c5.7,-4.8,14.2,-4.1,19,1.7Z" class="g0_241"/>
<path d="M216.4,105.4c4.8,5.7,4.1,14.2,-1.7,19c-5.7,4.8,-14.2,4,-19,-1.7c-4.8,-5.7,-4,-14.2,1.7,-19c5.7,-4.8,14.2,-4.1,19,1.7Z" class="gb_241"/>
<path d="M214,107.4c3.5,4.2,3,10.5,-1.3,14.1c-4.2,3.5,-10.5,2.9,-14,-1.3c-3.5,-4.2,-3,-10.5,1.2,-14c4.2,-3.6,10.5,-3,14.1,1.2Z" class="gf_241"/>
<path d="M214,107.4c3.5,4.2,3,10.5,-1.3,14.1c-4.2,3.5,-10.5,2.9,-14,-1.3c-3.5,-4.2,-3,-10.5,1.2,-14c4.2,-3.6,10.5,-3,14.1,1.2Z" class="gb_241"/>
<path d="M213,110.6l-3.1,3m3.1,-.4l-3.1,3" class="gg_241"/>
<path d="M172.1,99l3.1,3.3m1.1,-5.9l1.2,3.9m-8.1,3l3.7,1.2" class="gh_241"/>
<path d="M185.8,106.1c1.2,1.2,.2,4.3,-2.2,6.7c-2.5,2.5,-5.5,3.5,-6.8,2.3c-1.2,-1.3,-.3,-4.3,2.2,-6.8c2.5,-2.5,5.5,-3.5,6.8,-2.2Z" class="g0_241"/>
<path d="M203.7,107.6c.6,.6,.1,1.9,-.9,3c-1.1,1,-2.4,1.5,-3,.9c-.5,-.5,-.1,-1.8,1,-2.9c1.1,-1.1,2.4,-1.5,2.9,-1Z" class="g0_241"/>
<path d="M32.1,45.1H9.2m958.3,0h22.9M32.1,1331.3H9.2m958.3,0h22.9M45.1,32.1V9.2m0,1335.1v22.9M954.5,32.1V9.2m0,1335.1v22.9" class="gi_241"/>
<path d="M32.1,45.1H9.2m958.3,0h22.9M32.1,1331.3H9.2m958.3,0h22.9M45.1,32.1V9.2m0,1335.1v22.9M954.5,32.1V9.2m0,1335.1v22.9" class="gj_241"/>
<path d="M27.5,32.1H0m972.1,0h27.5M27.5,1344.3H0m972.1,0h27.5M32.1,27.5V0m0,1348.9v27.5M967.5,27.5V0m0,1348.9v27.5" class="gi_241"/>
<path d="M27.5,32.1H0m972.1,0h27.5M27.5,1344.3H0m972.1,0h27.5M32.1,27.5V0m0,1348.9v27.5M967.5,27.5V0m0,1348.9v27.5" class="gj_241"/>
</svg>