<?xml version="1.0" encoding="UTF-8" standalone="no"?>
<!DOCTYPE svg PUBLIC "-//W3C//DTD SVG 1.1//EN"
"http://www.w3.org/Graphics/SVG/1.1/DTD/svg11.dtd">
<svg viewBox="0 0 999 1376" version="1.1" xmlns="http://www.w3.org/2000/svg" xmlns:xlink="http://www.w3.org/1999/xlink">
<defs>
<clipPath id="c0_94"><path d="M201.7,323.5V246.1h77.5v77.4Z"/></clipPath>
<clipPath id="c1_94"><path d="M527.3,323.7V246.1h87.1v77.6Z"/></clipPath>
<clipPath id="c2_94"><path d="M365.7,324.8V247.2H452v77.6Z"/></clipPath>
<clipPath id="c3_94"><path d="M694.7,322.8V246.1h85.7v76.7Z"/></clipPath>
<clipPath id="c4_94"><path d="M201,455.1V377.5h83.7v77.6Z"/></clipPath>
<clipPath id="c5_94"><path d="M361.3,455.1V377.5h83.6v77.6Z"/></clipPath>
<clipPath id="c6_94"><path d="M530.9,455.1V377.5h84.4v77.6Z"/></clipPath>
<clipPath id="c7_94"><path d="M693.2,455.1V377.5h80.5v77.6Z"/></clipPath>
<clipPath id="c8_94"><path d="M240.5,911.8V846H328v65.8Z"/></clipPath>
<clipPath id="c9_94"><path d="M239.1,1182.6V926.4h85.7v256.2Z"/></clipPath>
<clipPath id="ca_94"><path d="M176.6,230.2l-6.5,-2.1L153.7,214.2V157.1h72v73.1Z"/></clipPath>
<clipPath id="cb_94"><path d="M178.8,737l-6.5,-2.1L155.9,721V663.9h72V737Z"/></clipPath>
<clipPath id="cc_94"><path d="M200.1,586.5V508.9h84.6v77.6Z"/></clipPath>
<clipPath id="cd_94"><path d="M530.8,586.5V508.9h80v77.6Z"/></clipPath>
<clipPath id="ce_94"><path d="M366.3,586.5V508.9h80.8v77.6Z"/></clipPath>
<clipPath id="cf_94"><path d="M691.6,586.5V508.9H777v77.6Z"/></clipPath>
<style type="text/css"><![CDATA[
.g0_94{
fill: #FEFCF4;
}
.g1_94{
fill: #FFF;
}
.g2_94{
fill: none;
stroke: #27639D;
stroke-width: 0.763;
}
.g3_94{
fill: none;
stroke: #949698;
stroke-width: 0.381;
}
.g4_94{
fill: #48484A;
}
.g5_94{
fill: #E1E0ED;
}
.g6_94{
fill: #766FA6;
}
.g7_94{
fill: #6381B7;
}
.g8_94{
fill: none;
stroke: #27639D;
stroke-width: 0.432;
}
.g9_94{
fill: none;
stroke: #6381B7;
stroke-width: 0.381;
stroke-dasharray: 2,1;
}
.ga_94{
fill: none;
stroke: #6381B7;
stroke-width: 0.381;
}
.gb_94{
fill: #FCE8B0;
}
.gc_94{
fill: #25408F;
}
.gd_94{
fill: #00BAF1;
}
.ge_94{
fill: #332D2C;
}
.gf_94{
fill: #D9DFF0;
}
.gg_94{
fill: #F27C85;
}
.gh_94{
fill: #7DD3F6;
}
.gi_94{
fill: none;
stroke: #FFF;
stroke-width: 1.909;
stroke-miterlimit: 10;
}
.gj_94{
fill: none;
stroke: #000;
stroke-width: 0.381;
stroke-miterlimit: 10;
}
]]></style>
</defs>
<path d="M32.1,1344.3H954.5V32.1H32.1V1344.3Z" class="g0_94"/>
<path d="M145.1,751.4c0,0,-13,0,-13,13v419.3c0,0,0,13,13,13H832.9c0,0,13,0,13,-13V764.4c0,0,0,-13,-13,-13Z" class="g1_94"/>
<path d="M145.1,751.4c0,0,-13,0,-13,13v419.3c0,0,0,13,13,13H832.9c0,0,13,0,13,-13V764.4c0,0,0,-13,-13,-13H145.1Z" class="g2_94"/>
<path d="M150.4,133.7c0,0,-18.3,0,-18.3,18.3V627c0,0,0,18.4,18.3,18.4H827.5c0,0,18.4,0,18.4,-18.4V133.7Z" class="g1_94"/>
<path d="M150.4,133.7c0,0,-18.3,0,-18.3,18.3V627c0,0,0,18.4,18.3,18.4H827.5c0,0,18.4,0,18.4,-18.4V133.7H150.4Z" class="g2_94"/>
<path d="M183.8,323.7H304.3V246.1H183.8v77.6Z" class="g1_94"/>
<image clip-path="url(#c0_94)" preserveAspectRatio="none" x="202" y="246" width="77" height="78" xlink:href="img/1.jpg"/>
<path d="M183.8,323.7H304.3V246.1H183.8v77.6Z" class="g3_94"/>
<path d="M511.1,323.7H631.6V246.1H511.1v77.6Z" class="g1_94"/>
<image clip-path="url(#c1_94)" preserveAspectRatio="none" x="527" y="244" width="87" height="81" xlink:href="img/2.jpg"/>
<path d="M511.1,323.7H631.6V246.1H511.1v77.6Z" class="g3_94"/>
<path d="M347.5,324.8H467.9V247.2H347.5v77.6Z" class="g1_94"/>
<image clip-path="url(#c2_94)" preserveAspectRatio="none" x="366" y="246" width="86" height="80" xlink:href="img/3.jpg"/>
<path d="M347.5,324.8H467.9V247.2H347.5v77.6Z" class="g3_94"/>
<path d="M674.7,323.7H795.2V246.1H674.7v77.6Z" class="g1_94"/>
<image clip-path="url(#c3_94)" preserveAspectRatio="none" x="695" y="244" width="85" height="79" xlink:href="img/4.jpg"/>
<path d="M674.7,323.7H795.2V246.1H674.7v77.6Z" class="g3_94"/>
<path d="M183.8,455.1H304.3V377.5H183.8v77.6Z" class="g1_94"/>
<image clip-path="url(#c4_94)" preserveAspectRatio="none" x="201" y="376" width="84" height="81" xlink:href="img/5.jpg"/>
<path d="M183.8,455.1H304.3V377.5H183.8v77.6Z" class="g3_94"/>
<path d="M347.5,455.1H467.9V377.5H347.5v77.6Z" class="g1_94"/>
<image clip-path="url(#c5_94)" preserveAspectRatio="none" x="361" y="376" width="84" height="81" xlink:href="img/6.jpg"/>
<path d="M347.5,455.1H467.9V377.5H347.5v77.6Z" class="g3_94"/>
<path d="M511.1,455.1H631.6V377.5H511.1v77.6Z" class="g1_94"/>
<image clip-path="url(#c6_94)" preserveAspectRatio="none" x="531" y="376" width="84" height="80" xlink:href="img/7.jpg"/>
<path d="M511.1,455.1H631.6V377.5H511.1v77.6Z" class="g3_94"/>
<path d="M674.7,455.1H795.2V377.5H674.7v77.6Z" class="g1_94"/>
<image clip-path="url(#c7_94)" preserveAspectRatio="none" x="693" y="376" width="81" height="81" xlink:href="img/8.jpg"/>
<path d="M674.7,455.1H795.2V377.5H674.7v77.6Z" class="g3_94"/>
<path d="M185.8,830.5H824.2V799.2H185.8v31.3Z" class="g1_94"/>
<path d="M165.8,851.7c0,0,-4.4,0,-4.4,4.3v14.8c0,0,0,4.3,4.1,5.8L216.2,895c0,0,4.1,1.5,4.1,-2.8V856c0,0,0,-4.3,-4.3,-4.3Z" class="g4_94"/>
<path d="M186.5,838.7c0,0,-12.9,0,-12.9,13V908c0,0,0,13,12.9,13H815.8c0,0,13,0,13,-13V851.7c0,0,0,-13,-13,-13Z" class="g5_94"/>
<path d="M165.8,849.5c0,0,-4.4,0,-4.4,4.3v17.4c0,0,0,4.3,4.4,4.3h35.9c0,0,4.3,0,4.3,-4.3V853.8c0,0,0,-4.3,-4.3,-4.3Z" class="g6_94"/>
<image clip-path="url(#c8_94)" preserveAspectRatio="none" x="239" y="844" width="91" height="69" xlink:href="img/9.jpg"/>
<path d="M671.6,1214.8c0,0,-4.4,0,-4.4,4.4V1230c0,0,0,4.3,4.4,4.3h30.3c0,0,4.3,0,4.3,-4.3v-10.8c0,0,0,-4.4,-4.3,-4.4Z" class="g7_94"/>
<path d="M671.6,1214.8c0,0,-4.4,0,-4.4,4.4V1230c0,0,0,4.3,4.4,4.3h30.3c0,0,4.3,0,4.3,-4.3v-10.8c0,0,0,-4.4,-4.3,-4.4H671.6Z" class="g8_94"/>
<path d="M658.2,1206v37.5m1.3,1H845.6m1,-1.3v-37.6m-1.3,-1H659.1" class="g9_94"/>
<path d="M658.2,1243.9v.6h.5m187.3,0h.6v-.6m0,-38.7v-.6H846m-187.3,0h-.5v.6" class="ga_94"/>
<path d="M239.1,1182.6h85.7V926.4H239.1v256.2Z" class="g1_94"/>
<image clip-path="url(#c9_94)" preserveAspectRatio="none" x="237" y="925" width="90" height="259" xlink:href="img/10.png"/>
<path d="M209.2,186.1c0,0,-13,0,-13,13v21.7c0,0,0,13,13,13h602c0,0,13,0,13,-13V199.1c0,0,0,-13,-13,-13Z" class="gb_94"/>
<image clip-path="url(#ca_94)" preserveAspectRatio="none" x="152" y="156" width="75" height="76" xlink:href="img/11.png"/>
<path d="M204,225.5c0,0,-26.8,11.3,-51.1,-12.7c0,0,15.2,25.3,49.3,23.9c0,0,24.8,.4,20.3,-10.1c0,0,1.2,-4.4,-18.5,-1.1Z" class="gb_94"/>
<path d="M211.4,692c0,0,-13,0,-13,13v21.7c0,0,0,13,13,13H833c0,0,13,0,13,-13V705c0,0,0,-13,-13,-13Z" class="gb_94"/>
<image clip-path="url(#cb_94)" preserveAspectRatio="none" x="154" y="662" width="75" height="77" xlink:href="img/12.png"/>
<path d="M206.2,732.3c0,0,-26.9,11.3,-51.1,-12.7c0,0,15.2,25.3,49.3,23.9c0,0,24.7,.4,20.2,-10.1c0,0,1.3,-4.5,-18.4,-1.1Z" class="gb_94"/>
<path d="M131.7,126.7v22.2l11.7,10.3V137Z" class="gc_94"/>
<path d="M131.7,109.9v39H829.4c0,0,16.9,0,16.9,-16.8v-5.4c0,0,0,-16.8,-16.9,-16.8Z" class="g7_94"/>
<path d="M189.6,121.3l-6.4,-6.5L162,136l6.4,6.5Z" class="gd_94"/>
<path d="M168.4,143c.2,0,.3,0,.4,-.1L190,121.7c.1,-.1,.2,-.3,.2,-.4c0,-.1,-.1,-.3,-.2,-.4l-6.5,-6.4c-.2,-.2,-.5,-.2,-.7,0l-21.2,21.2c-.1,.1,-.2,.2,-.2,.3c0,.2,.1,.3,.2,.4l6.5,6.5c.1,.1,.2,.1,.3,.1m20.5,-21.7l-20.5,20.5L162.7,136l20.5,-20.4Z" class="ge_94"/>
<path d="M189.6,121.3l-6.4,-6.5l2.1,-2.1l6.5,6.5Z" class="gf_94"/>
<path d="M189.6,121.8c.2,0,.3,0,.4,-.1l2.1,-2.1c.1,-.1,.2,-.3,.2,-.4c0,-.2,-.1,-.3,-.2,-.4l-6.4,-6.5c-.2,-.2,-.6,-.2,-.8,0l-2.1,2.2c-.1,0,-.2,.2,-.2,.3c0,.2,.1,.3,.2,.4l6.5,6.5c.1,.1,.2,.1,.3,.1m1.4,-2.6l-1.4,1.4l-5.7,-5.8l1.4,-1.4Z" class="ge_94"/>
<path d="M195.4,115.6l-6.5,-6.5l-3.6,3.6l6.5,6.5Z" class="gg_94"/>
<path d="M191.8,119.7c.1,0,.2,0,.3,-.1l3.7,-3.7c.2,-.2,.2,-.5,0,-.7l-6.5,-6.5c-.2,-.2,-.6,-.2,-.8,0l-3.6,3.6c-.2,.2,-.2,.6,0,.8l6.5,6.5c.1,.1,.2,.1,.4,.1m2.8,-4.1l-2.8,2.8L186,112.7l2.9,-2.9Z" class="ge_94"/>
<path d="M157.3,147.2L162,136l6.4,6.5Z" class="g1_94"/>
<path d="M157.3,147.7c.1,0,.2,0,.2,-.1L168.6,143c.2,-.1,.3,-.2,.4,-.4c0,-.2,-.1,-.3,-.2,-.5l-6.5,-6.4c-.1,-.2,-.3,-.2,-.5,-.2c-.1,.1,-.3,.2,-.3,.3l-4.7,11.1c0,.2,0,.5,.1,.6c.1,.1,.3,.2,.4,.2m10.2,-5.4l-9.2,3.9l3.8,-9.2Z" class="ge_94"/>
<path d="M157.3,147.2l2.3,-5.4l3.1,3.1Z" class="ge_94"/>
<path d="M157.3,147.7c.1,0,.2,0,.2,-.1l5.4,-2.2c.1,-.1,.3,-.2,.3,-.4c0,-.2,0,-.3,-.1,-.5l-3.2,-3.1c-.1,-.1,-.3,-.2,-.4,-.1c-.2,0,-.4,.1,-.4,.3l-2.3,5.3c0,.2,0,.5,.1,.6c.1,.1,.3,.2,.4,.2m4.5,-3l-3.5,1.5l1.4,-3.5Z" class="ge_94"/>
<path d="M187.9,119.5l-3,-2.9l-21.2,21.2l3,3Z" class="gh_94"/>
<path d="M166.7,141.3c.1,0,.2,-.1,.3,-.2l21.3,-21.2c.1,-.1,.1,-.2,.1,-.4c0,-.1,0,-.2,-.1,-.3l-3,-3c-.2,-.2,-.5,-.2,-.8,0l-21.2,21.2c-.1,.1,-.1,.3,-.1,.4c0,.1,0,.3,.1,.4l3,2.9c.1,.1,.2,.2,.4,.2m20.4,-21.8L166.7,140l-2.2,-2.2l20.4,-20.5Z" class="ge_94"/>
<path d="M183.8,586.5H304.3V508.9H183.8v77.6Z" class="g1_94"/>
<image clip-path="url(#cc_94)" preserveAspectRatio="none" x="200" y="507" width="85" height="81" xlink:href="img/13.jpg"/>
<path d="M183.8,586.5H304.3V508.9H183.8v77.6Z" class="g3_94"/>
<path d="M511.1,586.5H631.6V508.9H511.1v77.6Z" class="g1_94"/>
<image clip-path="url(#cd_94)" preserveAspectRatio="none" x="531" y="509" width="80" height="79" xlink:href="img/14.jpg"/>
<path d="M511.1,586.5H631.6V508.9H511.1v77.6Z" class="g3_94"/>
<path d="M347.5,586.5H467.9V508.9H347.5v77.6Z" class="g1_94"/>
<image clip-path="url(#ce_94)" preserveAspectRatio="none" x="366" y="508" width="81" height="80" xlink:href="img/15.jpg"/>
<path d="M347.5,586.5H467.9V508.9H347.5v77.6Z" class="g3_94"/>
<path d="M674.7,586.5H795.2V508.9H674.7v77.6Z" class="g1_94"/>
<image clip-path="url(#cf_94)" preserveAspectRatio="none" x="692" y="507" width="85" height="81" xlink:href="img/16.jpg"/>
<path d="M674.7,586.5H795.2V508.9H674.7v77.6Z" class="g3_94"/>
<path d="M32.1,45.1H9.2m958.3,0h22.9M32.1,1331.3H9.2m958.3,0h22.9M45.1,32.1V9.2m0,1335.1v22.9M954.5,32.1V9.2m0,1335.1v22.9" class="gi_94"/>
<path d="M32.1,45.1H9.2m958.3,0h22.9M32.1,1331.3H9.2m958.3,0h22.9M45.1,32.1V9.2m0,1335.1v22.9M954.5,32.1V9.2m0,1335.1v22.9" class="gj_94"/>
<path d="M27.5,32.1H0m972.1,0h27.5M27.5,1344.3H0m972.1,0h27.5M32.1,27.5V0m0,1348.9v27.5M967.5,27.5V0m0,1348.9v27.5" class="gi_94"/>
<path d="M27.5,32.1H0m972.1,0h27.5M27.5,1344.3H0m972.1,0h27.5M32.1,27.5V0m0,1348.9v27.5M967.5,27.5V0m0,1348.9v27.5" class="gj_94"/>
</svg>