<?xml version="1.0" encoding="UTF-8" standalone="no"?>
<!DOCTYPE svg PUBLIC "-//W3C//DTD SVG 1.1//EN"
"http://www.w3.org/Graphics/SVG/1.1/DTD/svg11.dtd">
<svg viewBox="0 0 999 1376" version="1.1" xmlns="http://www.w3.org/2000/svg" xmlns:xlink="http://www.w3.org/1999/xlink">
<defs>
<clipPath id="c0_347"><path d="M32.1,1344.3V32.1H967.5V1344.3Z"/></clipPath>
<clipPath id="c1_347"><path d="M198.6,1126.6l-6.5,-2.1l-16.4,-13.9v-57.1h72v73.1Z"/></clipPath>
<clipPath id="c2_347"><path d="M198.2,734.5l-6.5,-2.1L175.4,718.5V661.4h71.9v73.1Z"/></clipPath>
<clipPath id="c3_347"><path d="M200.1,137.2c.1,-1.3,.7,-2.5,1.6,-3.4c1,-1,2.3,-1.6,3.9,-1.6h19.2v5Z"/></clipPath>
<clipPath id="c4_347"><path d="M199.5,137.7v-6h25.8v6Z"/></clipPath>
<style type="text/css"><![CDATA[
.g0_347{
fill: #FEFCF4;
}
.g1_347{
fill: #DCE9F3;
}
.g2_347{
fill: #9BD1EA;
}
.g3_347{
fill: #FFF;
}
.g4_347{
fill: none;
stroke: #58595B;
stroke-width: 0.381;
stroke-miterlimit: 10;
}
.g5_347{
fill: none;
stroke: #6381B7;
stroke-width: 0.763;
}
.g6_347{
fill: #93BEDA;
}
.g7_347{
fill: #6381B7;
}
.g8_347{
fill: none;
stroke: #6381B7;
stroke-width: 0.381;
stroke-dasharray: 2,1;
}
.g9_347{
fill: none;
stroke: #6381B7;
stroke-width: 0.381;
}
.ga_347{
fill: none;
stroke: #231F20;
stroke-width: 0.42;
stroke-miterlimit: 10;
}
.gb_347{
fill: #FCE8B0;
}
.gc_347{
fill: #25408F;
}
.gd_347{
fill: none;
stroke: #231F20;
stroke-width: 1.527;
}
.ge_347{
fill: #39B4D1;
stroke: #2D2A4A;
stroke-width: 1.038;
stroke-linecap: round;
stroke-linejoin: round;
}
.gf_347{
fill: #2D2A4A;
}
.gg_347{
fill: none;
stroke: #2D2A4A;
stroke-width: 1.038;
stroke-linecap: round;
stroke-linejoin: round;
}
.gh_347{
fill: #DEDAD3;
}
.gi_347{
fill: #29263F;
}
.gj_347{
fill: #E15F46;
stroke: #2D2A4A;
stroke-width: 1.038;
stroke-linecap: round;
stroke-linejoin: round;
}
.gk_347{
fill: #F7F8E9;
}
.gl_347{
fill: none;
stroke: #BFD62F;
stroke-width: 1.527;
stroke-linecap: round;
stroke-linejoin: round;
stroke-dasharray: 0,5;
}
.gm_347{
fill: none;
stroke: #BFD62F;
stroke-width: 1.527;
stroke-linecap: round;
stroke-linejoin: round;
}
.gn_347{
fill: #BFD62F;
}
.go_347{
fill: #D1232A;
}
.gp_347{
fill: #233D4A;
}
.gq_347{
fill: #FFE293;
}
.gr_347{
fill: #F89C47;
}
.gs_347{
fill: none;
stroke: #FFF;
stroke-width: 1.909;
stroke-miterlimit: 10;
}
.gt_347{
fill: none;
stroke: #000;
stroke-width: 0.381;
stroke-miterlimit: 10;
}
]]></style>
</defs>
<path clip-path="url(#c0_347)" d="M-877.3,1344.3H45.1V32.1H-877.3V1344.3Z" class="g0_347"/>
<path d="M170.7,166.7c0,0,-17.4,0,-17.4,17.3V426.5c0,0,0,17.4,17.4,17.4H850.6c0,0,17.3,0,17.3,-17.4V184c0,0,0,-17.3,-17.3,-17.3Z" class="g1_347"/>
<path d="M264.8,238.3H457.3v30.1H264.8V238.3Zm192.5,0H756.4v30.1H457.3V238.3Z" class="g2_347"/>
<path d="M264.8,268.4H457.3V322H264.8V268.4Zm192.5,0H756.4V322H457.3V268.4Z" class="g3_347"/>
<path d="M264.8,238.3H457.3m0,0H756.4m-299.1,30V238.5M264.8,268.4H457.3m0,0H756.4M457.3,321.8V268.6M264.8,322H457.3m0,0H756.4" class="g4_347"/>
<path d="M166.7,747c0,0,-13,0,-13,13V974.5c0,0,0,13,13,13H854.5c0,0,13,0,13,-13V760c0,0,0,-13,-13,-13Z" class="g3_347"/>
<path d="M166.7,747c0,0,-13,0,-13,13V974.5c0,0,0,13,13,13H854.5c0,0,13,0,13,-13V760c0,0,0,-13,-13,-13H166.7Z" class="g5_347"/>
<path d="M411.3,826.9c2,0,3.7,-1.6,3.7,-3.6c0,-2,-1.7,-3.6,-3.7,-3.6c-1.9,0,-3.6,1.6,-3.6,3.6c0,2,1.7,3.6,3.6,3.6Z" class="g6_347"/>
<path d="M607.3,826.9c2,0,3.7,-1.6,3.7,-3.6c0,-2,-1.7,-3.6,-3.7,-3.6c-1.9,0,-3.6,1.6,-3.6,3.6c0,2,1.7,3.6,3.6,3.6Z" class="g6_347"/>
<path d="M411.3,874.3c2,0,3.7,-1.6,3.7,-3.6c0,-2,-1.7,-3.6,-3.7,-3.6c-1.9,0,-3.6,1.6,-3.6,3.6c0,2,1.7,3.6,3.6,3.6Z" class="g6_347"/>
<path d="M607.3,874.3c2,0,3.7,-1.6,3.7,-3.6c0,-2,-1.7,-3.6,-3.7,-3.6c-1.9,0,-3.6,1.6,-3.6,3.6c0,2,1.7,3.6,3.6,3.6Z" class="g6_347"/>
<path d="M411.3,921.7c2,0,3.7,-1.7,3.7,-3.7c0,-2,-1.7,-3.6,-3.7,-3.6c-1.9,0,-3.6,1.6,-3.6,3.6c0,2,1.7,3.7,3.6,3.7Z" class="g6_347"/>
<path d="M607.3,921.7c2,0,3.7,-1.7,3.7,-3.7c0,-2,-1.7,-3.6,-3.7,-3.6c-1.9,0,-3.6,1.6,-3.6,3.6c0,2,1.7,3.7,3.6,3.7Z" class="g6_347"/>
<path d="M411.3,969c2,0,3.7,-1.6,3.7,-3.6c0,-2,-1.7,-3.6,-3.7,-3.6c-1.9,0,-3.6,1.6,-3.6,3.6c0,2,1.7,3.6,3.6,3.6Z" class="g6_347"/>
<path d="M607.3,969c2,0,3.7,-1.6,3.7,-3.6c0,-2,-1.7,-3.6,-3.7,-3.6c-1.9,0,-3.6,1.6,-3.6,3.6c0,2,1.7,3.6,3.6,3.6Z" class="g6_347"/>
<path d="M660.4,1000.7c0,0,-4.3,0,-4.3,4.3v10.9c0,0,0,4.3,4.3,4.3h30.3c0,0,4.4,0,4.4,-4.3V1005c0,0,0,-4.3,-4.4,-4.3Z" class="g7_347"/>
<path d="M647.2,993.2v34.9m1.4,.9H866.8m.9,-1.3V992.8m-1.3,-.9H648.2" class="g8_347"/>
<path d="M647.2,1028.5v.5h.6m219.3,0h.6v-.5m0,-36.1v-.5h-.6m-219.3,0h-.6v.5" class="g9_347"/>
<path d="M569.9,1216.2c0,0,-4.4,0,-4.4,4.3v10.8c0,0,0,4.3,4.4,4.3h30.3c0,0,4.3,0,4.3,-4.3v-10.8c0,0,0,-4.3,-4.3,-4.3Z" class="g7_347"/>
<path d="M556.7,1208.7v34.8m1.3,1H866.8m.9,-1.4v-34.8m-1.3,-1H557.6" class="g8_347"/>
<path d="M556.7,1243.9v.6h.5m310,0h.5v-.6m0,-36v-.6h-.5m-310,0h-.5v.6" class="g9_347"/>
<path d="M166.7,1039.4c0,0,-13,0,-13,12.9v138.1c0,0,0,13,13,13H854.5c0,0,13,0,13,-13V1052.3c0,0,0,-12.9,-13,-12.9Z" class="g3_347"/>
<path d="M518.7,1158.2h117m-146.8,27.5H634" class="ga_347"/>
<path d="M166.7,1039.4c0,0,-13,0,-13,12.9v138.1c0,0,0,13,13,13H854.5c0,0,13,0,13,-13V1052.3c0,0,0,-12.9,-13,-12.9H166.7Z" class="g5_347"/>
<path d="M231.2,1081.6c0,0,-12.9,0,-12.9,13v21.7c0,0,0,13,12.9,13H833.3c0,0,13,0,13,-13v-21.7c0,0,0,-13,-13,-13Z" class="gb_347"/>
<image clip-path="url(#c1_347)" preserveAspectRatio="none" x="174" y="1052" width="75" height="76" xlink:href="img/1.png"/>
<path d="M226,1121.9c0,0,-26.8,11.3,-51.1,-12.8c0,0,15.2,25.4,49.3,24c0,0,24.8,.3,20.3,-10.1c0,0,1.2,-4.5,-18.5,-1.1Z" class="gb_347"/>
<path d="M230.9,663.5c0,0,-13,0,-13,13v47.7c0,0,0,13,13,13H854.2c0,0,13,0,13,-13V676.5c0,0,0,-13,-13,-13Z" class="gb_347"/>
<image clip-path="url(#c2_347)" preserveAspectRatio="none" x="174" y="660" width="75" height="76" xlink:href="img/2.png"/>
<path d="M225.7,729.8c0,0,-26.9,11.3,-51.1,-12.8c0,0,15.1,25.4,49.3,24c0,0,24.7,.4,20.2,-10.1c0,0,1.2,-4.5,-18.4,-1.1Z" class="gb_347"/>
<path d="M153.3,109.5v39L165,158.7V136.5Z" class="gc_347"/>
<path d="M153.3,109.5v39H851.1c0,0,16.8,0,16.8,-16.8v-5.4c0,0,0,-16.8,-16.8,-16.8Z" class="g7_347"/>
<path d="M790.4,131c0,0,-.5,-10,8.6,-9.4c0,0,6.8,-.3,6.7,9.5m-15.3,-1.5v6.5c0,0,-3.4,.3,-3.9,-3c0,0,-.1,-3.8,3.9,-3.5Zm15.3,0v6.5c0,0,3.4,.3,4,-3c0,0,0,-3.8,-4,-3.5Z" class="gd_347"/>
<path d="M169,140.8h61v-32H169v32Z" class="ge_347"/>
<path d="M169,143.1h61v-2.3H169v2.3Z" class="ge_347"/>
<path d="M193.5,106.2H173.8v31.5h25.7V112.3c0,-3.4,-2.7,-6.1,-6,-6.1Z" class="g3_347"/>
<path d="M193.5,106.2v-.5H173.8c-.2,0,-.3,.1,-.4,.2c-.1,.1,-.2,.2,-.2,.3v31.5c0,.1,.1,.3,.2,.4c.1,.1,.2,.1,.4,.1h25.7c.2,0,.3,0,.4,-.1c.1,-.1,.1,-.3,.1,-.4V112.3c0,-3.7,-2.9,-6.6,-6.5,-6.6v1c1.5,0,2.9,.7,3.9,1.7c1,1,1.6,2.3,1.6,3.9v24.9H174.3V106.7h19.2Z" class="gf_347"/>
<path d="M173.8,131.7v6h25.7c0,-3.3,-2.7,-6,-6,-6Z" class="g3_347"/>
<path d="M173.8,131.7h-.6v6c0,.1,.1,.3,.2,.4c.1,.1,.2,.1,.4,.1h25.7c.2,0,.3,0,.4,-.1c.1,-.1,.1,-.3,.1,-.4c0,-3.6,-2.9,-6.6,-6.5,-6.6H173.8c-.2,0,-.3,.1,-.4,.2c-.1,.1,-.2,.2,-.2,.4h.6v.5h19.7c1.5,0,2.9,.6,3.9,1.6c1,1,1.6,2.4,1.6,3.9h.5v-.5H174.3v-5.5h-.5v.5Z" class="gf_347"/>
<path d="M177.3,110.9h17.2m-17.2,2.8h17.2m-17.2,2.9h17.2m-17.2,2.9h17.2m-17.2,2.8h17.2m-17.2,2.9h17.2M177.3,128h17.2" class="gg_347"/>
<path d="M193.5,132.2H174.3v5H199c-.1,-1.3,-.7,-2.5,-1.6,-3.4c-1,-1,-2.4,-1.6,-3.9,-1.6Z" class="gh_347"/>
<path d="M174.3,132.2h19.2c1.5,0,2.9,.6,3.9,1.6c.9,.9,1.5,2.1,1.6,3.4H174.3Zm19.2,-.5H173.8v6H199v-2.5c-.9,-2.1,-3.1,-3.5,-5.5,-3.5Z" class="gi_347"/>
<path d="M205.6,106.2h19.7v31.5H199.5V112.3c0,-3.4,2.7,-6.1,6.1,-6.1Z" class="g3_347"/>
<path d="M205.6,106.2v.5h19.2v30.5H200V112.3c0,-1.6,.7,-2.9,1.7,-3.9c1,-1,2.3,-1.7,3.9,-1.7v-1c-3.7,0,-6.6,2.9,-6.6,6.6v25.4c0,.1,.1,.3,.2,.4c0,.1,.2,.1,.3,.1h25.8c.1,0,.2,0,.3,-.1c.1,-.1,.2,-.3,.2,-.4V106.2c0,-.1,-.1,-.2,-.2,-.3c-.1,-.1,-.2,-.2,-.3,-.2H205.6Z" class="gf_347"/>
<path d="M225.3,131.7v6H199.5c0,-3.3,2.7,-6,6.1,-6Z" class="g3_347"/>
<path d="M225.3,131.7h-.5v5.5H199.5v.5h.5c0,-1.5,.7,-2.9,1.7,-3.9c1,-1,2.3,-1.6,3.9,-1.6h19.7v-.5h-.5h.5v-.6H205.6c-3.7,0,-6.6,3,-6.6,6.6c0,.1,.1,.3,.2,.4c0,.1,.2,.1,.3,.1h25.8c.1,0,.2,0,.3,-.1c.1,-.1,.2,-.3,.2,-.4v-6c0,-.2,-.1,-.3,-.2,-.4c-.1,-.1,-.2,-.2,-.3,-.2Z" class="gf_347"/>
<path d="M221.8,110.9H204.6m17.2,2.8H204.6m17.2,2.9H204.6m17.2,2.9H204.6m17.2,2.8H204.6m17.2,2.9H204.6m17.2,2.8H204.6" class="gg_347"/>
<path clip-path="url(#c3_347)" d="M200.1,137.2h24.7v-5H200.1v5Z" class="gh_347"/>
<path clip-path="url(#c4_347)" d="M200.1,137.2c.1,-1.3,.7,-2.5,1.6,-3.4c1,-1,2.3,-1.6,3.9,-1.6h19.2v5Zm25.2,-5.5H205.6c-3.4,0,-6.1,2.7,-6.1,6h25.8v-6h-.5h.5Z" class="gi_347"/>
<path d="M199.5,108.8v34.3" class="gg_347"/>
<path d="M217.2,145.5h3.3V134.7h-3.3v10.8Z" class="gj_347"/>
<path d="M154.1,634.6h713V496.2h-713V634.6Z" class="gk_347"/>
<path d="M154.1,500.8V632.3m4.6,2.3H864.9m2.2,-4.6V498.5m-4.5,-2.3H156.4" class="gl_347"/>
<path d="M154.1,634.6v0m713.1,0v0m0,-138.4v0m-713.1,0v0" class="gm_347"/>
<path d="M153.3,499.5V470.9c0,0,0,-8.7,8.7,-8.7H859.3c0,0,8.6,0,8.6,8.7V500Z" class="gn_347"/>
<path d="M175,523c0,0,4.8,5.5,6.1,12.3c0,0,6.6,-11.3,11.7,-13.9c0,0,-9.3,4.9,-11.2,8.1c0,0,-1.8,-4.2,-6.6,-6.5Z" class="go_347"/>
<path d="M183.4,491.1l3,2.9l8.1,-8.1L191.6,483Z" class="g3_347"/>
<path d="M186.4,495v0c.3,0,.5,-.1,.7,-.2l8.1,-8.2c.2,-.2,.3,-.4,.3,-.7c0,-.2,-.1,-.5,-.3,-.7l-2.9,-2.9c-.4,-.4,-1,-.4,-1.4,0l-8.2,8.1c-.4,.4,-.4,1,0,1.4l3,3c.2,.1,.4,.2,.7,.2m6.7,-9.1l-6.7,6.8l-1.6,-1.6l6.8,-6.7Z" class="gp_347"/>
<path d="M190,464.1c-6.5,6.6,-6.5,17.2,0,23.7c6.5,6.5,17.1,6.5,23.7,0c6.5,-6.5,6.5,-17.1,0,-23.7c-6.6,-6.5,-17.2,-6.5,-23.7,0Z" class="gq_347"/>
<path d="M201.8,493.7c4.8,0,9.2,-1.9,12.6,-5.2c6.9,-6.9,6.9,-18.2,0,-25.1c-3.4,-3.3,-7.8,-5.2,-12.6,-5.2c-4.7,0,-9.2,1.9,-12.5,5.2c-6.9,6.9,-6.9,18.2,0,25.1c3.3,3.3,7.8,5.2,12.5,5.2m0,-33.5c4.2,0,8.2,1.6,11.2,4.6c6.1,6.2,6.1,16.1,0,22.3c-3,3,-7,4.6,-11.2,4.6c-4.2,0,-8.1,-1.6,-11.1,-4.6c-6.2,-6.2,-6.2,-16.1,0,-22.3c3,-3,6.9,-4.6,11.1,-4.6Z" class="gp_347"/>
<path d="M176,496.3l5.2,5.2l8.2,-8.2l-5.2,-5.2Z" class="gr_347"/>
<path d="M181.2,502.5c.3,0,.5,-.1,.7,-.3l8.2,-8.2c.2,-.2,.3,-.4,.3,-.7c0,-.3,-.1,-.5,-.3,-.7l-5.2,-5.2c-.4,-.4,-1,-.4,-1.4,0l-8.2,8.2c-.4,.4,-.4,1,0,1.4l5.2,5.2c.2,.2,.5,.3,.7,.3m6.8,-9.2l-6.8,6.8l-3.8,-3.8l6.8,-6.8Z" class="gp_347"/>
<path d="M189.8,476.1c0,6.6,5.3,11.9,11.9,11.9c6.6,0,12,-5.3,12,-11.9c0,-6.6,-5.4,-12,-12,-12c-6.6,0,-11.9,5.4,-11.9,12Z" class="g3_347"/>
<path d="M201.7,488.8c7,0,12.8,-5.7,12.8,-12.7c0,-7.1,-5.8,-12.8,-12.8,-12.8c-7,0,-12.7,5.7,-12.7,12.8c0,7,5.7,12.7,12.7,12.7m0,-23.9c6.2,0,11.2,5,11.2,11.2c0,6.1,-5,11.1,-11.2,11.1c-6.1,0,-11.1,-5,-11.1,-11.1c0,-6.2,5,-11.2,11.1,-11.2Z" class="gp_347"/>
<path d="M32.1,45.1H9.2m958.3,0h22.9M32.1,1331.3H9.2m958.3,0h22.9M45.1,32.1V9.2m0,1335.1v22.9M954.5,32.1V9.2m0,1335.1v22.9" class="gs_347"/>
<path d="M32.1,45.1H9.2m958.3,0h22.9M32.1,1331.3H9.2m958.3,0h22.9M45.1,32.1V9.2m0,1335.1v22.9M954.5,32.1V9.2m0,1335.1v22.9" class="gt_347"/>
<path d="M27.5,32.1H0m972.1,0h27.5M27.5,1344.3H0m972.1,0h27.5M32.1,27.5V0m0,1348.9v27.5M967.5,27.5V0m0,1348.9v27.5" class="gs_347"/>
<path d="M27.5,32.1H0m972.1,0h27.5M27.5,1344.3H0m972.1,0h27.5M32.1,27.5V0m0,1348.9v27.5M967.5,27.5V0m0,1348.9v27.5" class="gt_347"/>
</svg>