<?xml version="1.0" encoding="UTF-8" standalone="no"?>
<!DOCTYPE svg PUBLIC "-//W3C//DTD SVG 1.1//EN"
"http://www.w3.org/Graphics/SVG/1.1/DTD/svg11.dtd">
<svg viewBox="0 0 999 1376" version="1.1" xmlns="http://www.w3.org/2000/svg" xmlns:xlink="http://www.w3.org/1999/xlink">
<defs>
<clipPath id="c0_127"><path d="M32.1,1344.3V32.1H967.5V1344.3Z"/></clipPath>
<clipPath id="c1_127"><path d="M207.8,603.7V505.9H316.6v97.8Z"/></clipPath>
<clipPath id="c2_127"><path d="M374,603.7V505.9H482.8v97.8Z"/></clipPath>
<clipPath id="c3_127"><path d="M540.2,603.7V505.9H649v97.8Z"/></clipPath>
<clipPath id="c4_127"><path d="M711.9,603.7V505.9h97.8v97.8Z"/></clipPath>
<clipPath id="c5_127"><path d="M213.3,760V662.1h97.8V760Z"/></clipPath>
<clipPath id="c6_127"><path d="M379.5,760V662.1h97.8V760Z"/></clipPath>
<clipPath id="c7_127"><path d="M545.7,760V662.1h97.8V760Z"/></clipPath>
<clipPath id="c8_127"><path d="M711.9,760V662.1h97.8V760Z"/></clipPath>
<clipPath id="c9_127"><path d="M213.3,447.5V349.6h97.8v97.9Z"/></clipPath>
<clipPath id="ca_127"><path d="M379.5,447.5V349.6h97.8v97.9Z"/></clipPath>
<clipPath id="cb_127"><path d="M545.7,447.5V349.6h97.8v97.9Z"/></clipPath>
<clipPath id="cc_127"><path d="M711.9,447.5V349.6h97.8v97.9Z"/></clipPath>
<clipPath id="cd_127"><path d="M243.3,1047.1c-1.7,-2.4,-1.7,-5.2,-1.7,-5.2V983c0,-1.1,.2,-2.1,.4,-2.9h60.7v67Z"/></clipPath>
<clipPath id="ce_127"><path d="M397.3,1045.6c-.8,-1.9,-.8,-3.7,-.8,-3.7V988.2c0,-8.5,8.4,-8.5,8.4,-8.5H460v65.9Z"/></clipPath>
<clipPath id="cf_127"><path d="M550.3,1044.6c-.4,-1.5,-.4,-2.7,-.4,-2.7V983c0,-2.4,.7,-4.2,1.7,-5.4h58.6v67Z"/></clipPath>
<clipPath id="cg_127"><path d="M706.8,1044.4V981.2c2.4,-1.5,5.1,-1.5,5.1,-1.5h61c.3,0,.7,0,1,0v64.7Z"/></clipPath>
<clipPath id="ch_127"><path d="M199.2,328.4l-6.5,-2.2L176.3,312.3V255.2h72v73.2Z"/></clipPath>
<clipPath id="ci_127"><path d="M208.1,907.7l-6.5,-2.1L185.2,891.7V834.6h72v73.1Z"/></clipPath>
<clipPath id="cj_127"><path d="M658.6,177V59h200V177Z"/></clipPath>
<style type="text/css"><![CDATA[
.g0_127{
fill: #FEFCF4;
}
.g1_127{
fill: #FFF;
}
.g2_127{
fill: none;
stroke: #6381B7;
stroke-width: 0.763;
}
.g3_127{
fill: none;
stroke: #949698;
stroke-width: 1.344;
}
.g4_127{
fill: #ABB2C9;
}
.g5_127{
fill: #EFE9CC;
}
.g6_127{
fill: #6381B7;
}
.g7_127{
fill: none;
stroke: #6381B7;
stroke-width: 0.381;
stroke-dasharray: 2,1;
}
.g8_127{
fill: none;
stroke: #6381B7;
stroke-width: 0.381;
}
.g9_127{
fill: #FCE8B0;
}
.ga_127{
fill: #2E6E51;
}
.gb_127{
fill: #BCBEC0;
}
.gc_127{
fill: #EE314A;
}
.gd_127{
fill: #25408F;
}
.ge_127{
fill: #00BAF1;
}
.gf_127{
fill: #332D2C;
}
.gg_127{
fill: #D9DFF0;
}
.gh_127{
fill: #F27C85;
}
.gi_127{
fill: #7DD3F6;
}
.gj_127{
fill: none;
stroke: #FFF;
stroke-width: 1.909;
stroke-miterlimit: 10;
}
.gk_127{
fill: none;
stroke: #000;
stroke-width: 0.381;
stroke-miterlimit: 10;
}
]]></style>
</defs>
<path d="M45.1,1344.3H967.5V32.1H45.1V1344.3Z" class="g0_127"/>
<path clip-path="url(#c0_127)" d="M-877.3,1344.3H45.1V32.1H-877.3V1344.3Z" class="g0_127"/>
<path d="M172.6,224.6c0,0,-18.4,0,-18.4,18.4V805.9c0,0,0,18.3,18.4,18.3H849.7c0,0,18.3,0,18.3,-18.3V224.6Z" class="g1_127"/>
<path d="M172.6,224.6c0,0,-18.4,0,-18.4,18.4V805.9c0,0,0,18.3,18.4,18.3H849.7c0,0,18.3,0,18.3,-18.3V224.6H172.6Z" class="g2_127"/>
<image clip-path="url(#c1_127)" preserveAspectRatio="none" x="208" y="504" width="109" height="101" xlink:href="img/1.jpg"/>
<path d="M187.9,603.7H336.5V505.9H187.9v97.8Z" class="g3_127"/>
<image clip-path="url(#c2_127)" preserveAspectRatio="none" x="374" y="504" width="109" height="101" xlink:href="img/2.jpg"/>
<path d="M354.1,603.7H502.7V505.9H354.1v97.8Z" class="g3_127"/>
<image clip-path="url(#c3_127)" preserveAspectRatio="none" x="540" y="504" width="109" height="101" xlink:href="img/3.jpg"/>
<path d="M520.3,603.7H668.9V505.9H520.3v97.8Z" class="g3_127"/>
<image clip-path="url(#c4_127)" preserveAspectRatio="none" x="712" y="506" width="98" height="98" xlink:href="img/4.jpg"/>
<path d="M686.5,603.7H835.1V505.9H686.5v97.8Z" class="g3_127"/>
<image clip-path="url(#c5_127)" preserveAspectRatio="none" x="213" y="662" width="98" height="98" xlink:href="img/5.jpg"/>
<path d="M187.9,760H336.5V662.1H187.9V760Z" class="g3_127"/>
<image clip-path="url(#c6_127)" preserveAspectRatio="none" x="379" y="662" width="98" height="98" xlink:href="img/6.jpg"/>
<path d="M354.1,760H502.7V662.1H354.1V760Z" class="g3_127"/>
<image clip-path="url(#c7_127)" preserveAspectRatio="none" x="546" y="662" width="98" height="98" xlink:href="img/7.jpg"/>
<path d="M520.3,760H668.9V662.1H520.3V760Z" class="g3_127"/>
<image clip-path="url(#c8_127)" preserveAspectRatio="none" x="712" y="662" width="98" height="98" xlink:href="img/8.jpg"/>
<path d="M686.5,760H835.1V662.1H686.5V760Z" class="g3_127"/>
<image clip-path="url(#c9_127)" preserveAspectRatio="none" x="213" y="350" width="98" height="98" xlink:href="img/9.jpg"/>
<path d="M187.9,447.5H336.5V349.6H187.9v97.9Z" class="g3_127"/>
<image clip-path="url(#ca_127)" preserveAspectRatio="none" x="379" y="350" width="98" height="98" xlink:href="img/10.jpg"/>
<path d="M354.1,447.5H502.7V349.6H354.1v97.9Z" class="g3_127"/>
<image clip-path="url(#cb_127)" preserveAspectRatio="none" x="546" y="350" width="98" height="98" xlink:href="img/11.jpg"/>
<path d="M520.3,447.5H668.9V349.6H520.3v97.9Z" class="g3_127"/>
<image clip-path="url(#cc_127)" preserveAspectRatio="none" x="712" y="350" width="98" height="98" xlink:href="img/12.jpg"/>
<path d="M686.5,447.5H835.1V349.6H686.5v97.9Z" class="g3_127"/>
<path d="M171.8,922.4c0,0,-18.3,0,-18.3,18.4v235c0,0,0,18.3,18.3,18.3H849.9c0,0,18.4,0,18.4,-18.3V922.4Z" class="g1_127"/>
<path d="M171.8,922.4c0,0,-18.3,0,-18.3,18.4v235c0,0,0,18.3,18.3,18.3H849.9c0,0,18.4,0,18.4,-18.3V922.4H171.8Z" class="g2_127"/>
<path d="M250.1,974.5c0,0,-8.5,0,-8.5,8.5v58.9c0,0,0,8.4,8.5,8.4h61c0,0,8.5,0,8.5,-8.4V983c0,0,0,-8.5,-8.5,-8.5Z" class="g1_127"/>
<image clip-path="url(#cd_127)" preserveAspectRatio="none" x="236" y="980" width="67" height="67" xlink:href="img/13.jpg"/>
<path d="M404.9,979.7c0,0,-8.4,0,-8.4,8.5v53.7c0,0,0,8.4,8.4,8.4H466c0,0,8.4,0,8.4,-8.4V988.2c0,0,0,-8.5,-8.4,-8.5Z" class="g1_127"/>
<image clip-path="url(#ce_127)" preserveAspectRatio="none" x="393" y="979" width="67" height="67" xlink:href="img/14.jpg"/>
<path d="M558.3,974.5c0,0,-8.4,0,-8.4,8.5v58.9c0,0,0,8.4,8.4,8.4h61c0,0,8.5,0,8.5,-8.4V983c0,0,0,-8.5,-8.5,-8.5Z" class="g1_127"/>
<image clip-path="url(#cf_127)" preserveAspectRatio="none" x="543" y="978" width="67" height="67" xlink:href="img/15.jpg"/>
<path d="M711.9,979.7c0,0,-8.5,0,-8.5,8.5v53.7c0,0,0,8.4,8.5,8.4h61c0,0,8.5,0,8.5,-8.4V988.2c0,0,0,-8.5,-8.5,-8.5Z" class="g1_127"/>
<image clip-path="url(#cg_127)" preserveAspectRatio="none" x="707" y="977" width="67" height="67" xlink:href="img/16.jpg"/>
<path d="M282.1,1057.5c2,0,3.6,-1.6,3.6,-3.6c0,-2,-1.6,-3.6,-3.6,-3.6c-2,0,-3.6,1.6,-3.6,3.6c0,2,1.6,3.6,3.6,3.6Z" class="g4_127"/>
<path d="M584.1,1057.5c2,0,3.7,-1.6,3.7,-3.6c0,-2,-1.7,-3.6,-3.7,-3.6c-2,0,-3.6,1.6,-3.6,3.6c0,2,1.6,3.6,3.6,3.6Z" class="g4_127"/>
<path d="M423.2,1057.5c2,0,3.6,-1.6,3.6,-3.6c0,-2,-1.6,-3.6,-3.6,-3.6c-2,0,-3.6,1.6,-3.6,3.6c0,2,1.6,3.6,3.6,3.6Z" class="g4_127"/>
<path d="M739.7,1057.5c2,0,3.6,-1.6,3.6,-3.6c0,-2,-1.6,-3.6,-3.6,-3.6c-2,0,-3.6,1.6,-3.6,3.6c0,2,1.6,3.6,3.6,3.6Z" class="g4_127"/>
<path d="M282.1,1135.5c2,0,3.6,-1.6,3.6,-3.6c0,-2,-1.6,-3.6,-3.6,-3.6c-2,0,-3.6,1.6,-3.6,3.6c0,2,1.6,3.6,3.6,3.6Z" class="g4_127"/>
<path d="M585.2,1135.5c2,0,3.6,-1.6,3.6,-3.6c0,-2,-1.6,-3.6,-3.6,-3.6c-2,0,-3.6,1.6,-3.6,3.6c0,2,1.6,3.6,3.6,3.6Z" class="g4_127"/>
<path d="M423.2,1135.5c2,0,3.6,-1.6,3.6,-3.6c0,-2,-1.6,-3.6,-3.6,-3.6c-2,0,-3.6,1.6,-3.6,3.6c0,2,1.6,3.6,3.6,3.6Z" class="g4_127"/>
<path d="M738.6,1135.5c2,0,3.6,-1.6,3.6,-3.6c0,-2,-1.6,-3.6,-3.6,-3.6c-2,0,-3.6,1.6,-3.6,3.6c0,2,1.6,3.6,3.6,3.6Z" class="g4_127"/>
<path d="M240.9,1144.9c0,0,-8.6,0,-8.6,8.6v15.2c0,0,0,8.7,8.6,8.7h69.3c0,0,8.7,0,8.7,-8.7v-15.2c0,0,0,-8.6,-8.7,-8.6Z" class="g5_127"/>
<path d="M549.9,1144.9c0,0,-8.7,0,-8.7,8.6v15.2c0,0,0,8.7,8.7,8.7h69.2c0,0,8.7,0,8.7,-8.7v-15.2c0,0,0,-8.6,-8.7,-8.6Z" class="g5_127"/>
<path d="M396.5,1144.9c0,0,-8.7,0,-8.7,8.6v15.2c0,0,0,8.7,8.7,8.7h69.3c0,0,8.6,0,8.6,-8.7v-15.2c0,0,0,-8.6,-8.6,-8.6Z" class="g5_127"/>
<path d="M716.2,1144.9c0,0,-8.6,0,-8.6,8.6v15.2c0,0,0,8.7,8.6,8.7h69.3c0,0,8.7,0,8.7,-8.7v-15.2c0,0,0,-8.6,-8.7,-8.6Z" class="g5_127"/>
<path d="M188.5,657.9H834.3V610.2H188.5v47.7Z" class="g1_127"/>
<path d="M188.5,812.7H834.3V765.1H188.5v47.6Z" class="g1_127"/>
<path d="M188.5,500.9H834.3V453.2H188.5v47.7Z" class="g1_127"/>
<path d="M666.2,1214.8c0,0,-4.4,0,-4.4,4.4V1230c0,0,0,4.3,4.4,4.3h30.3c0,0,4.3,0,4.3,-4.3v-10.8c0,0,0,-4.4,-4.3,-4.4Z" class="g6_127"/>
<path d="M653,1206v37.5m1.3,1H866.8m.9,-1.3v-37.6m-1.3,-1H653.9" class="g7_127"/>
<path d="M653,1243.9v.6h.6m213.5,0h.6v-.6m0,-38.7v-.6h-.6m-213.5,0H653v.6" class="g8_127"/>
<path d="M231.8,283.4c0,0,-13,0,-13,13V318c0,0,0,13,13,13h602c0,0,13,0,13,-13V296.4c0,0,0,-13,-13,-13Z" class="g9_127"/>
<image clip-path="url(#ch_127)" preserveAspectRatio="none" x="175" y="254" width="75" height="76" xlink:href="img/17.png"/>
<path d="M226.6,323.6c0,0,-26.9,11.4,-51.1,-12.7c0,0,15.1,25.3,49.3,24c0,0,24.7,.3,20.2,-10.2c0,0,1.2,-4.4,-18.4,-1.1Z" class="g9_127"/>
<path d="M240.7,862.7c0,0,-13,0,-13,13v21.7c0,0,0,12.9,13,12.9H854.2c0,0,12.9,0,12.9,-12.9V875.7c0,0,0,-13,-12.9,-13Z" class="g9_127"/>
<image clip-path="url(#ci_127)" preserveAspectRatio="none" x="184" y="833" width="75" height="76" xlink:href="img/18.png"/>
<path d="M235.5,903c0,0,-26.8,11.3,-51.1,-12.8c0,0,15.2,25.3,49.3,24c0,0,24.8,.3,20.3,-10.1c0,0,1.2,-4.5,-18.5,-1.1Z" class="g9_127"/>
<path d="M32.1,179.3H967.5V32.1H32.1V179.3Z" class="ga_127"/>
<g clip-path="url(#c0_127)">
<path d="M967.5,177.2H-877.3v-5.4h736.6c43.1,0,53.1,-37.9,115.3,-37.9H967.5Z" class="gb_127"/>
<path d="M967.5,183.7H-877.3v-9.8h736.6c43.1,0,53.1,-33.6,115.3,-33.6H967.5Z" class="gc_127"/>
</g>
<path d="M153.3,217.5v22.2L165,250V227.8Z" class="gd_127"/>
<path d="M153.3,200.7v39H851.1c0,0,16.8,0,16.8,-16.8v-5.4c0,0,0,-16.8,-16.8,-16.8Z" class="g6_127"/>
<path d="M211.3,212.1l-6.5,-6.4l-21.2,21.2l6.5,6.4Z" class="ge_127"/>
<path d="M190.1,233.9c.1,0,.3,-.1,.4,-.2l21.2,-21.2c.1,-.1,.1,-.2,.1,-.4c0,-.1,0,-.2,-.1,-.3l-6.5,-6.5c-.2,-.2,-.6,-.2,-.8,0l-21.2,21.2c-.1,.1,-.1,.2,-.1,.4c0,.1,0,.2,.1,.3l6.5,6.5c.1,.1,.3,.2,.4,.2m20.5,-21.8l-20.5,20.5l-5.8,-5.7l20.5,-20.5Z" class="gf_127"/>
<path d="M211.3,212.1l-6.5,-6.4l2.1,-2.2l6.5,6.5Z" class="gg_127"/>
<path d="M211.3,212.7c.1,0,.3,-.1,.4,-.2l2.1,-2.1c.1,-.1,.2,-.2,.2,-.4c0,-.1,-.1,-.3,-.2,-.4l-6.5,-6.4c-.2,-.3,-.5,-.3,-.7,0l-2.2,2.1c-.1,.1,-.1,.2,-.1,.4c0,.1,0,.2,.1,.3l6.5,6.5c.1,.1,.3,.2,.4,.2m1.4,-2.7l-1.4,1.4l-5.7,-5.7l1.3,-1.4Z" class="gf_127"/>
<path d="M217,206.4l-6.4,-6.5l-3.7,3.6l6.5,6.5Z" class="gh_127"/>
<path d="M213.4,210.5c.2,0,.3,0,.4,-.1l3.6,-3.6c.2,-.2,.2,-.6,0,-.8l-6.5,-6.5c-.2,-.2,-.5,-.2,-.7,0l-3.6,3.7c-.2,.2,-.2,.5,0,.7l6.5,6.5c.1,.1,.2,.1,.3,.1m2.9,-4.1l-2.9,2.9l-5.7,-5.8l2.9,-2.8Z" class="gf_127"/>
<path d="M179,238l4.6,-11.1l6.5,6.4Z" class="g1_127"/>
<path d="M179,238.5c0,0,.1,0,.2,0l11.1,-4.7c.2,0,.3,-.2,.3,-.4c0,-.1,0,-.3,-.1,-.4L184,226.5c-.1,-.1,-.3,-.2,-.5,-.1c-.2,0,-.3,.1,-.4,.3l-4.6,11.1c-.1,.2,0,.4,.1,.6c.1,.1,.2,.1,.4,.1m10.2,-5.3l-9.3,3.8l3.9,-9.2Z" class="gf_127"/>
<path d="M179,238l2.2,-5.4l3.1,3.1Z" class="gf_127"/>
<path d="M179,238.5c0,0,.1,0,.2,0l5.3,-2.3c.2,0,.3,-.2,.4,-.4c0,-.1,-.1,-.3,-.2,-.4l-3.1,-3.2c-.1,-.1,-.3,-.1,-.5,-.1c-.2,0,-.3,.2,-.4,.3l-2.2,5.4c-.1,.2,0,.4,.1,.6c.1,.1,.2,.1,.4,.1m4.4,-2.9l-3.5,1.4l1.5,-3.5Z" class="gf_127"/>
<path d="M209.5,210.4l-2.9,-3l-21.2,21.2l2.9,3Z" class="gi_127"/>
<path d="M188.3,232.1c.2,0,.3,0,.4,-.1l21.2,-21.2c.1,-.1,.2,-.3,.2,-.4c0,-.2,-.1,-.3,-.2,-.4l-3,-3c-.2,-.2,-.5,-.2,-.7,0L185,228.3c-.1,.1,-.2,.2,-.2,.3c0,.2,.1,.3,.2,.4l3,3c.1,.1,.2,.1,.3,.1m20.5,-21.7l-20.5,20.4l-2.2,-2.2l20.5,-20.4Z" class="gf_127"/>
<image clip-path="url(#cj_127)" preserveAspectRatio="none" x="659" y="59" width="200" height="118" xlink:href="img/19.png"/>
<path d="M32.1,45.1H9.2m958.3,0h22.9M32.1,1331.3H9.2m958.3,0h22.9M45.1,32.1V9.2m0,1335.1v22.9M954.5,32.1V9.2m0,1335.1v22.9" class="gj_127"/>
<path d="M32.1,45.1H9.2m958.3,0h22.9M32.1,1331.3H9.2m958.3,0h22.9M45.1,32.1V9.2m0,1335.1v22.9M954.5,32.1V9.2m0,1335.1v22.9" class="gk_127"/>
<path d="M27.5,32.1H0m972.1,0h27.5M27.5,1344.3H0m972.1,0h27.5M32.1,27.5V0m0,1348.9v27.5M967.5,27.5V0m0,1348.9v27.5" class="gj_127"/>
<path d="M27.5,32.1H0m972.1,0h27.5M27.5,1344.3H0m972.1,0h27.5M32.1,27.5V0m0,1348.9v27.5M967.5,27.5V0m0,1348.9v27.5" class="gk_127"/>
</svg>