<?xml version="1.0" encoding="UTF-8" standalone="no"?>
<!DOCTYPE svg PUBLIC "-//W3C//DTD SVG 1.1//EN"
"http://www.w3.org/Graphics/SVG/1.1/DTD/svg11.dtd">
<svg viewBox="0 0 999 1376" version="1.1" xmlns="http://www.w3.org/2000/svg" xmlns:xlink="http://www.w3.org/1999/xlink">
<defs>
<clipPath id="c0_308"><path d="M32.1,1344.3V32.1H967.5V1344.3Z"/></clipPath>
<clipPath id="c1_308"><path d="M200.1,1001.2V944H361.3v57.2Z"/></clipPath>
<clipPath id="c2_308"><path d="M200.1,1129.4v-57.2H361.3v57.2Z"/></clipPath>
<clipPath id="c3_308"><path d="M179.3,881.3l-6.5,-2.1l-16.4,-14V808.1h72v73.2Z"/></clipPath>
<clipPath id="c4_308"><path d="M178.4,137.2c.1,-1.3,.7,-2.5,1.6,-3.4c1,-1,2.4,-1.6,3.9,-1.6h19.2v5Z"/></clipPath>
<clipPath id="c5_308"><path d="M177.9,137.7v-6h25.7v6Z"/></clipPath>
<style type="text/css"><![CDATA[
.g0_308{
fill: #FEFCF4;
}
.g1_308{
fill: #DCE9F3;
}
.g2_308{
fill: #9BD1EA;
}
.g3_308{
fill: #FFF;
}
.g4_308{
fill: none;
stroke: #58595B;
stroke-width: 0.381;
stroke-miterlimit: 10;
}
.g5_308{
fill: none;
stroke: #6381B7;
stroke-width: 0.763;
}
.g6_308{
fill: #F0E8F3;
}
.g7_308{
fill: none;
stroke: #231F20;
stroke-width: 0.305;
stroke-miterlimit: 10;
}
.g8_308{
fill: #DCE09B;
}
.g9_308{
fill: #6381B7;
}
.ga_308{
fill: none;
stroke: #6381B7;
stroke-width: 0.381;
stroke-dasharray: 2,1;
}
.gb_308{
fill: none;
stroke: #6381B7;
stroke-width: 0.381;
}
.gc_308{
fill: #FCE8B0;
}
.gd_308{
fill: #25408F;
}
.ge_308{
fill: none;
stroke: #231F20;
stroke-width: 1.527;
}
.gf_308{
fill: #39B4D1;
stroke: #2D2A4A;
stroke-width: 1.038;
stroke-linecap: round;
stroke-linejoin: round;
}
.gg_308{
fill: #2D2A4A;
}
.gh_308{
fill: none;
stroke: #2D2A4A;
stroke-width: 1.038;
stroke-linecap: round;
stroke-linejoin: round;
}
.gi_308{
fill: #DEDAD3;
}
.gj_308{
fill: #29263F;
}
.gk_308{
fill: #E15F46;
stroke: #2D2A4A;
stroke-width: 1.038;
stroke-linecap: round;
stroke-linejoin: round;
}
.gl_308{
fill: none;
stroke: #FFF;
stroke-width: 1.909;
stroke-miterlimit: 10;
}
.gm_308{
fill: none;
stroke: #000;
stroke-width: 0.381;
stroke-miterlimit: 10;
}
]]></style>
</defs>
<path clip-path="url(#c0_308)" d="M954.5,1344.3H1877V32.1H954.5V1344.3Z" class="g0_308"/>
<path d="M149,166.3c0,0,-17.3,0,-17.3,17.4V580.8c0,0,0,17.3,17.3,17.3H828.9c0,0,17.4,0,17.4,-17.3V183.7c0,0,0,-17.4,-17.4,-17.4Z" class="g1_308"/>
<path d="M243.2,213.5H435.7v30.1H243.2V213.5Zm192.5,0H734.8v30.1H435.7V213.5Z" class="g2_308"/>
<path d="M243.2,243.6H435.7v53.5H243.2V243.6Zm192.5,0H734.8v53.5H435.7V243.6Z" class="g3_308"/>
<path d="M243.2,213.5H435.7m0,0H734.8M435.7,243.4V213.7M243.2,243.6H435.7m0,0H734.8M435.7,297V243.8M243.2,297.1H435.7m0,0H734.8" class="g4_308"/>
<path d="M145.1,896.9c0,0,-13,0,-13,13v277.6c0,0,0,13,13,13H832.9c0,0,13,0,13,-13V909.9c0,0,0,-13,-13,-13Z" class="g3_308"/>
<path d="M145.1,896.9c0,0,-13,0,-13,13v277.6c0,0,0,13,13,13H832.9c0,0,13,0,13,-13V909.9c0,0,0,-13,-13,-13H145.1Z" class="g5_308"/>
<path d="M378.5,945.3c0,0,-4.3,0,-4.3,4.4V1006c0,0,0,4.3,4.3,4.3H781.3c0,0,4.3,0,4.3,-4.3V949.7c0,0,0,-4.4,-4.3,-4.4Z" class="g6_308"/>
<path d="M401.7,996.8H538.6" class="g7_308"/>
<image clip-path="url(#c1_308)" preserveAspectRatio="none" x="199" y="945" width="162" height="56" xlink:href="img/1.png"/>
<path d="M210.5,945.8c0,0,-8.7,0,-8.7,8.6v30.3c0,0,0,8.7,8.7,8.7H344.8c0,0,8.6,0,8.6,-8.7V954.4c0,0,0,-8.6,-8.6,-8.6Z" class="g8_308"/>
<image clip-path="url(#c2_308)" preserveAspectRatio="none" x="199" y="1072" width="162" height="58" xlink:href="img/2.png"/>
<path d="M210.5,1074c0,0,-8.7,0,-8.7,8.6v30.3c0,0,0,8.7,8.7,8.7H344.8c0,0,8.6,0,8.6,-8.7v-30.3c0,0,0,-8.6,-8.6,-8.6Z" class="g8_308"/>
<path d="M378.5,1074.4c0,0,-4.3,0,-4.3,4.3V1135c0,0,0,4.3,4.3,4.3H781.3c0,0,4.3,0,4.3,-4.3v-56.3c0,0,0,-4.3,-4.3,-4.3Z" class="g6_308"/>
<path d="M401.7,1125.8H538.6" class="g7_308"/>
<path d="M725.4,1214.8c0,0,-4.4,0,-4.4,4.4V1230c0,0,0,4.3,4.4,4.3h30.3c0,0,4.3,0,4.3,-4.3v-10.8c0,0,0,-4.4,-4.3,-4.4Z" class="g9_308"/>
<path d="M712.2,1206v37.5m1.3,1H845.1m1,-1.3v-37.6m-1.4,-1H713.2" class="ga_308"/>
<path d="M712.2,1243.9v.6h.6m132.7,0h.6v-.6m0,-38.7v-.6h-.6m-132.7,0h-.6v.6" class="gb_308"/>
<path d="M211.9,836.3c0,0,-13,0,-13,13v21.6c0,0,0,13,13,13H833.5c0,0,13,0,13,-13V849.3c0,0,0,-13,-13,-13Z" class="gc_308"/>
<image clip-path="url(#c3_308)" preserveAspectRatio="none" x="155" y="807" width="75" height="76" xlink:href="img/3.png"/>
<path d="M206.7,876.6c0,0,-26.9,11.3,-51.1,-12.8c0,0,15.2,25.3,49.3,24c0,0,24.7,.3,20.2,-10.1c0,0,1.3,-4.5,-18.4,-1.1Z" class="gc_308"/>
<path d="M131.7,109.5v39l11.7,10.2V136.5Z" class="gd_308"/>
<path d="M131.7,109.5v39H829.5c0,0,16.8,0,16.8,-16.8v-5.4c0,0,0,-16.8,-16.8,-16.8Z" class="g9_308"/>
<path d="M768.8,131c0,0,-.5,-10,8.6,-9.4c0,0,6.7,-.3,6.6,9.5m-15.3,-1.5v6.5c0,0,-3.3,.3,-3.9,-3c0,0,-.1,-3.8,3.9,-3.5Zm15.4,0v6.5c0,0,3.3,.3,3.9,-3c0,0,.1,-3.8,-3.9,-3.5Z" class="ge_308"/>
<path d="M147.4,140.8h61v-32h-61v32Z" class="gf_308"/>
<path d="M147.4,143.1h61v-2.3h-61v2.3Z" class="gf_308"/>
<path d="M171.8,106.2H152.1v31.5h25.8V112.3c0,-3.4,-2.7,-6.1,-6.1,-6.1Z" class="g3_308"/>
<path d="M171.8,106.2v-.5H152.1c-.1,0,-.3,.1,-.4,.2c-.1,.1,-.1,.2,-.1,.3v31.5c0,.1,0,.3,.1,.4c.1,.1,.3,.1,.4,.1h25.8c.1,0,.2,0,.3,-.1c.1,-.1,.2,-.3,.2,-.4V112.3c0,-3.7,-2.9,-6.6,-6.6,-6.6v1c1.6,0,2.9,.7,3.9,1.7c1,1,1.6,2.3,1.6,3.9v24.9H152.6V106.7h19.2Z" class="gg_308"/>
<path d="M152.1,131.7v6h25.8c0,-3.3,-2.7,-6,-6.1,-6Z" class="g3_308"/>
<path d="M152.1,131.7h-.5v6c0,.1,0,.3,.1,.4c.1,.1,.3,.1,.4,.1h25.8c.1,0,.2,0,.3,-.1c.1,-.1,.2,-.3,.2,-.4c0,-3.6,-3,-6.6,-6.6,-6.6H152.1c-.1,0,-.3,.1,-.4,.2c-.1,.1,-.1,.2,-.1,.4h.5v.5h19.7c1.6,0,2.9,.6,3.9,1.6c1,1,1.6,2.4,1.6,3.9h.6v-.5H152.6v-5.5h-.5v.5Z" class="gg_308"/>
<path d="M155.6,110.9h17.2m-17.2,2.8h17.2m-17.2,2.9h17.2m-17.2,2.9h17.2m-17.2,2.8h17.2m-17.2,2.9h17.2M155.6,128h17.2" class="gh_308"/>
<path d="M171.8,132.2H152.6v5h24.7c-.1,-1.3,-.7,-2.5,-1.6,-3.4c-1,-1,-2.3,-1.6,-3.9,-1.6Z" class="gi_308"/>
<path d="M152.6,132.2h19.2c1.6,0,2.9,.6,3.9,1.6c.9,.9,1.5,2.1,1.6,3.4H152.6Zm19.2,-.5H152.1v6h25.2v-2.5c-.9,-2.1,-3,-3.5,-5.5,-3.5Z" class="gj_308"/>
<path d="M183.9,106.2h19.7v31.5H177.9V112.3c0,-3.4,2.7,-6.1,6,-6.1Z" class="g3_308"/>
<path d="M183.9,106.2v.5h19.2v30.5H178.4V112.3c0,-1.6,.6,-2.9,1.6,-3.9c1,-1,2.4,-1.7,3.9,-1.7v-1c-3.6,0,-6.6,2.9,-6.6,6.6v25.4c0,.1,.1,.3,.2,.4c.1,.1,.2,.1,.4,.1h25.7c.2,0,.3,0,.4,-.1c.1,-.1,.1,-.3,.1,-.4V106.2c0,-.1,0,-.2,-.1,-.3c-.1,-.1,-.2,-.2,-.4,-.2H183.9Z" class="gg_308"/>
<path d="M203.6,131.7v6H177.9c0,-3.3,2.7,-6,6,-6Z" class="g3_308"/>
<path d="M203.6,131.7h-.5v5.5H177.9v.5h.5c0,-1.5,.6,-2.9,1.6,-3.9c1,-1,2.4,-1.6,3.9,-1.6h19.7v-.5h-.5h.5v-.6H183.9c-3.6,0,-6.6,3,-6.6,6.6c0,.1,.1,.3,.2,.4c.1,.1,.2,.1,.4,.1h25.7c.2,0,.3,0,.4,-.1c.1,-.1,.1,-.3,.1,-.4v-6c0,-.2,0,-.3,-.1,-.4c-.1,-.1,-.2,-.2,-.4,-.2Z" class="gg_308"/>
<path d="M200.1,110.9H182.9m17.2,2.8H182.9m17.2,2.9H182.9m17.2,2.9H182.9m17.2,2.8H182.9m17.2,2.9H182.9m17.2,2.8H182.9" class="gh_308"/>
<path clip-path="url(#c4_308)" d="M178.4,137.2h24.7v-5H178.4v5Z" class="gi_308"/>
<path clip-path="url(#c5_308)" d="M178.4,137.2c.1,-1.3,.7,-2.5,1.6,-3.4c1,-1,2.4,-1.6,3.9,-1.6h19.2v5Zm25.2,-5.5H183.9c-3.3,0,-6,2.7,-6,6h25.7v-6h-.5h.5Z" class="gj_308"/>
<path d="M177.9,108.8v34.3" class="gh_308"/>
<path d="M195.5,145.5h3.3V134.7h-3.3v10.8Z" class="gk_308"/>
<path d="M32.1,45.1H9.2m958.3,0h22.9M32.1,1331.3H9.2m958.3,0h22.9M45.1,32.1V9.2m0,1335.1v22.9M954.5,32.1V9.2m0,1335.1v22.9" class="gl_308"/>
<path d="M32.1,45.1H9.2m958.3,0h22.9M32.1,1331.3H9.2m958.3,0h22.9M45.1,32.1V9.2m0,1335.1v22.9M954.5,32.1V9.2m0,1335.1v22.9" class="gm_308"/>
<path d="M27.5,32.1H0m972.1,0h27.5M27.5,1344.3H0m972.1,0h27.5M32.1,27.5V0m0,1348.9v27.5M967.5,27.5V0m0,1348.9v27.5" class="gl_308"/>
<path d="M27.5,32.1H0m972.1,0h27.5M27.5,1344.3H0m972.1,0h27.5M32.1,27.5V0m0,1348.9v27.5M967.5,27.5V0m0,1348.9v27.5" class="gm_308"/>
</svg>