<?xml version="1.0" encoding="UTF-8" standalone="no"?>
<!DOCTYPE svg PUBLIC "-//W3C//DTD SVG 1.1//EN"
"http://www.w3.org/Graphics/SVG/1.1/DTD/svg11.dtd">
<svg viewBox="0 0 999 1376" version="1.1" xmlns="http://www.w3.org/2000/svg" xmlns:xlink="http://www.w3.org/1999/xlink">
<defs>
<clipPath id="c0_60"><path d="M32.1,1344.3V32.1H967.5V1344.3Z"/></clipPath>
<clipPath id="c1_60"><path d="M181.3,533.5l-6.4,-2L160.8,520.2V459.3h62.7v74.2Z"/></clipPath>
<clipPath id="c2_60"><path d="M217.6,647.8v-82h93.7v82Z"/></clipPath>
<clipPath id="c3_60"><path d="M520,647.8v-82H633.9v82Z"/></clipPath>
<clipPath id="c4_60"><path d="M362.1,647.8v-82H476.9v82Z"/></clipPath>
<clipPath id="c5_60"><path d="M691.3,647.8v-82h96.6v82Z"/></clipPath>
<clipPath id="c6_60"><path d="M223.2,960.2V878.3H317v81.9Z"/></clipPath>
<clipPath id="c7_60"><path d="M526.4,960.2V878.3h114v81.9Z"/></clipPath>
<clipPath id="c8_60"><path d="M373.7,960.2V878.3H484.1v81.9Z"/></clipPath>
<clipPath id="c9_60"><path d="M528.2,807V725.1h98.1V807Z"/></clipPath>
<clipPath id="ca_60"><path d="M377.9,799.9V718h97.9v81.9Z"/></clipPath>
<clipPath id="cb_60"><path d="M696.7,807V725.1h97.4V807Z"/></clipPath>
<clipPath id="cc_60"><path d="M217.4,1113.3v-81.9h89.5v81.9Z"/></clipPath>
<clipPath id="cd_60"><path d="M531,1113.3v-81.9h91.6v81.9Z"/></clipPath>
<clipPath id="ce_60"><path d="M379.6,1113.3v-81.9H469v81.9Z"/></clipPath>
<clipPath id="cf_60"><path d="M695.6,1113.3v-81.9h93.8v81.9Z"/></clipPath>
<clipPath id="cg_60"><path d="M211.3,799.9V718H317.8v81.9Z"/></clipPath>
<clipPath id="ch_60"><path d="M778.6,428.7V416.3h14.5v12.4Z"/></clipPath>
<clipPath id="ci_60"><path d="M154,282.4V212.5H852v69.9Z"/></clipPath>
<style type="text/css"><![CDATA[
.g0_60{
fill: #FFFDEA;
}
.g1_60{
fill: #BCE4EA;
}
.g2_60{
fill: #BCBEC0;
}
.g3_60{
fill: #00AABD;
}
.g4_60{
fill: #FCDCBA;
}
.g5_60{
fill: #FFF;
}
.g6_60{
fill: none;
stroke: #949698;
stroke-width: 0.29;
}
.g7_60{
fill: #A8AAAD;
}
.g8_60{
fill: none;
stroke: #949698;
stroke-width: 0.549;
}
.g9_60{
fill: none;
stroke: #BCBEC0;
stroke-width: 2.566;
}
.ga_60{
fill: #231F20;
}
.gb_60{
fill: none;
stroke: #58595B;
stroke-width: 0.152;
stroke-miterlimit: 1;
}
.gc_60{
fill: none;
stroke: #976EAF;
stroke-width: 1.145;
stroke-linecap: round;
stroke-linejoin: round;
stroke-dasharray: 4,2;
}
.gd_60{
fill: none;
stroke: #976EAF;
stroke-width: 1.145;
stroke-linecap: round;
stroke-linejoin: round;
stroke-dasharray: 4,3;
}
.ge_60{
fill: none;
stroke: #976EAF;
stroke-width: 1.145;
stroke-linecap: round;
stroke-linejoin: round;
}
.gf_60{
fill: none;
stroke: #FFF;
stroke-width: 1.909;
stroke-miterlimit: 10;
}
.gg_60{
fill: none;
stroke: #000;
stroke-width: 0.381;
stroke-miterlimit: 10;
}
]]></style>
</defs>
<g clip-path="url(#c0_60)">
<path d="M32.1,1344.3H1877V32.1H32.1V1344.3Z" class="g0_60"/>
<path d="M32.1,179.3H1877V32.1H32.1V179.3Z" class="g1_60"/>
<path d="M1877,177.2H32.1v-5.4H768.7c43.1,0,53,-37.9,115.3,-37.9h993Z" class="g2_60"/>
<path d="M1877,183.7H32.1v-9.8H768.7c43.1,0,53,-33.6,115.3,-33.6h993Z" class="g3_60"/>
</g>
<path d="M214,488.5c0,0,-13,0,-13,13v21.6c0,0,0,13,13,13H833c0,0,13,0,13,-13V501.5c0,0,0,-13,-13,-13Z" class="g4_60"/>
<image clip-path="url(#c1_60)" preserveAspectRatio="none" x="161" y="458" width="63" height="77" xlink:href="img/1.png"/>
<path d="M208.8,528.8c0,0,-26.9,11.3,-51.1,-12.8c0,0,15.1,25.3,49.3,24c0,0,24.7,.3,20.2,-10.1c0,0,1.2,-4.5,-18.4,-1.1Z" class="g4_60"/>
<path d="M199.2,647.8H326.4v-82H199.2v82Z" class="g5_60"/>
<image clip-path="url(#c2_60)" preserveAspectRatio="none" x="218" y="564" width="93" height="85" xlink:href="img/2.jpg"/>
<path d="M199.2,647.8H326.4v-82H199.2v82Z" class="g6_60"/>
<path d="M517.4,647.8H644.5v-82H517.4v82Z" class="g5_60"/>
<image clip-path="url(#c3_60)" preserveAspectRatio="none" x="520" y="564" width="114" height="85" xlink:href="img/3.jpg"/>
<path d="M517.4,647.8H644.5v-82H517.4v82Z" class="g6_60"/>
<path d="M358.3,647.8H485.5v-82H358.3v82Z" class="g5_60"/>
<image clip-path="url(#c4_60)" preserveAspectRatio="none" x="362" y="564" width="115" height="85" xlink:href="img/4.jpg"/>
<path d="M358.3,647.8H485.5v-82H358.3v82Z" class="g6_60"/>
<path d="M676.5,647.8H803.6v-82H676.5v82Z" class="g5_60"/>
<image clip-path="url(#c5_60)" preserveAspectRatio="none" x="691" y="564" width="97" height="85" xlink:href="img/5.jpg"/>
<path d="M676.5,647.8H803.6v-82H676.5v82Z" class="g6_60"/>
<path d="M199.2,960.2H326.4V878.3H199.2v81.9Z" class="g5_60"/>
<image clip-path="url(#c6_60)" preserveAspectRatio="none" x="223" y="877" width="94" height="85" xlink:href="img/6.jpg"/>
<path d="M199.2,960.2H326.4V878.3H199.2v81.9Z" class="g6_60"/>
<path d="M517.4,960.2H644.5V878.3H517.4v81.9Z" class="g5_60"/>
<image clip-path="url(#c7_60)" preserveAspectRatio="none" x="526" y="876" width="114" height="86" xlink:href="img/7.jpg"/>
<path d="M517.4,960.2H644.5V878.3H517.4v81.9Z" class="g6_60"/>
<path d="M358.3,960.2H485.5V878.3H358.3v81.9Z" class="g5_60"/>
<image clip-path="url(#c8_60)" preserveAspectRatio="none" x="374" y="876" width="110" height="86" xlink:href="img/8.jpg"/>
<path d="M358.3,960.2H485.5V878.3H358.3v81.9Z" class="g6_60"/>
<path d="M676.5,960.2H803.6V878.3H676.5v81.9Z" class="g5_60"/>
<image preserveAspectRatio="none" x="706" y="878" width="81" height="81" xlink:href="img/9.jpg"/>
<path d="M676.5,960.2H803.6V878.3H676.5v81.9Z" class="g6_60"/>
<path d="M517.4,807H644.5V725.1H517.4V807Z" class="g5_60"/>
<image clip-path="url(#c9_60)" preserveAspectRatio="none" x="528" y="724" width="98" height="85" xlink:href="img/10.jpg"/>
<path d="M517.4,807H644.5V725.1H517.4V807Z" class="g6_60"/>
<path d="M360.6,799.9H487.7V718H360.6v81.9Z" class="g5_60"/>
<image clip-path="url(#ca_60)" preserveAspectRatio="none" x="378" y="716" width="98" height="86" xlink:href="img/11.jpg"/>
<path d="M360.6,799.9H487.7V718H360.6v81.9Z" class="g6_60"/>
<path d="M676.5,807H803.6V725.1H676.5V807Z" class="g5_60"/>
<image clip-path="url(#cb_60)" preserveAspectRatio="none" x="697" y="724" width="97" height="85" xlink:href="img/12.jpg"/>
<path d="M676.5,807H803.6V725.1H676.5V807Z" class="g6_60"/>
<path d="M199.2,1113.3H326.4v-81.9H199.2v81.9Z" class="g5_60"/>
<image clip-path="url(#cc_60)" preserveAspectRatio="none" x="217" y="1030" width="90" height="85" xlink:href="img/13.jpg"/>
<path d="M199.2,1113.3H326.4v-81.9H199.2v81.9Z" class="g6_60"/>
<path d="M517.4,1113.3H644.5v-81.9H517.4v81.9Z" class="g5_60"/>
<image clip-path="url(#cd_60)" preserveAspectRatio="none" x="531" y="1031" width="92" height="84" xlink:href="img/14.jpg"/>
<path d="M517.4,1113.3H644.5v-81.9H517.4v81.9Z" class="g6_60"/>
<path d="M358.3,1113.3H485.5v-81.9H358.3v81.9Z" class="g5_60"/>
<image clip-path="url(#ce_60)" preserveAspectRatio="none" x="380" y="1030" width="89" height="85" xlink:href="img/15.jpg"/>
<path d="M358.3,1113.3H485.5v-81.9H358.3v81.9Z" class="g6_60"/>
<path d="M676.5,1113.3H803.6v-81.9H676.5v81.9Z" class="g5_60"/>
<image clip-path="url(#cf_60)" preserveAspectRatio="none" x="696" y="1030" width="93" height="85" xlink:href="img/16.jpg"/>
<path d="M676.5,1113.3H803.6v-81.9H676.5v81.9Z" class="g6_60"/>
<path d="M199.2,799.9H326.4V718H199.2v81.9Z" class="g5_60"/>
<image clip-path="url(#cg_60)" preserveAspectRatio="none" x="211" y="716" width="107" height="85" xlink:href="img/17.jpg"/>
<path d="M199.2,799.9H326.4V718H199.2v81.9Z" class="g6_60"/>
<path d="M794.7,441.7c8.2,0,14.9,-6.5,14.9,-14.5c0,-8,-6.7,-14.5,-14.9,-14.5c-8.2,0,-14.9,6.5,-14.9,14.5c0,8,6.7,14.5,14.9,14.5Z" class="g7_60"/>
<path d="M794.7,441.7c8.2,0,14.9,-6.5,14.9,-14.5c0,-8,-6.7,-14.5,-14.9,-14.5c-8.2,0,-14.9,6.5,-14.9,14.5c0,8,6.7,14.5,14.9,14.5Z" class="g8_60"/>
<path d="M794.7,432.5c3,0,5.5,-2.4,5.5,-5.3c0,-2.9,-2.5,-5.3,-5.5,-5.3c-3,0,-5.5,2.4,-5.5,5.3c0,2.9,2.5,5.3,5.5,5.3Z" class="g5_60"/>
<path d="M794.7,432.5c3,0,5.5,-2.4,5.5,-5.3c0,-2.9,-2.5,-5.3,-5.5,-5.3c-3,0,-5.5,2.4,-5.5,5.3c0,2.9,2.5,5.3,5.5,5.3Z" class="g9_60"/>
<g clip-path="url(#ch_60)" opacity="0.3">
<path d="M780.1,426.4v0c0,0,0,-4.8,3.7,-8.6l7.7,6.7c0,0,-1,.9,-1,2.6Z" class="g5_60"/>
</g>
<path d="M799.3,427.1c0,0,-3.5,0,-3.5,3.5v8.6c0,0,0,3.5,3.5,3.5h43.5c0,0,3.5,0,3.5,-3.5v-8.6c0,0,0,-3.5,-3.5,-3.5Z" class="ga_60"/>
<path d="M254.5,134c-.5,0,-1,.2,-1.5,.4c-.5,.3,-.9,.5,-1.3,.8c-.8,.8,-1.4,1.8,-1.8,2.8c-.4,1,-.7,2.1,-.7,3.3c0,1.5,.3,2.8,.9,3.9c.8,1.4,1.8,2.1,3.2,2.1c.3,0,.6,0,.9,-.1c.2,-.1,.5,-.2,.7,-.4c.2,-.2,.3,-.4,.4,-.7c.1,-.2,.2,-.5,.2,-.8c0,-.4,-.1,-.9,-.4,-1.2c-.3,-.3,-.7,-.5,-1,-.5c-.2,0,-.4,.1,-.6,.1c-.2,.1,-.3,.2,-.5,.3c-.1,.2,-.2,.3,-.3,.4c-.1,.2,-.1,.4,-.1,.6c0,.2,0,.4,.2,.7c.1,.2,.3,.4,.5,.6c0,0,-.1,.1,-.2,.1H253c-.8,0,-1.4,-.5,-1.9,-1.4c-.5,-.7,-.7,-1.5,-.7,-2.3c0,-1,.1,-1.9,.3,-2.7c.2,-.7,.6,-1.4,1,-2.1c.4,-.7,1,-1.3,1.6,-1.7c.7,-.5,1.5,-.8,2.4,-1L254.5,134Zm15.6,1.2L268.8,134H253.7l1.2,1.2h7.8v1c-2.6,.8,-4.9,2.1,-7,3.7l1.7,2.1c1.4,.1,2.6,.7,3.7,1.8c.4,.5,.9,1,1.3,1.6c.4,.7,.7,1.3,1,2c0,.1,.1,.1,.1,.2c.1,0,.2,.1,.3,.1v-10c1.2,0,2.1,.3,2.8,1c.6,.7,1,1.4,1,2.2l-.1,.3c-.2,-.2,-.4,-.3,-.6,-.4c-.2,-.2,-.4,-.2,-.6,-.2c-.4,0,-.8,.1,-1,.4c-.3,.2,-.4,.5,-.4,.9c0,.2,0,.4,.1,.6c.1,.2,.2,.3,.4,.5c.1,.1,.3,.2,.5,.3c.2,.1,.4,.1,.6,.1c.2,0,.5,-.1,.7,-.2c.3,-.1,.5,-.3,.7,-.5c.1,-.2,.3,-.4,.4,-.7c.1,-.3,.1,-.5,.1,-.8c0,-1.3,-.4,-2.4,-1.2,-3.4c-.9,-1.2,-2,-1.7,-3.4,-1.7v-.9h6.3Zm-7.5,9.1c-1,-1.8,-2.5,-3.1,-4.5,-4c.8,-.5,1.6,-1,2.3,-1.4c.8,-.4,1.5,-.8,2.2,-1.1v6.5Zm12.1,-9.1L273.5,134h-1.1c-.3,-.4,-.6,-1,-.7,-1.9l-.4,-.3c0,.2,0,.5,0,.9c0,.3,0,.7,.1,1.2c0,.5,0,.9,0,1.3c.1,.3,.1,.6,.1,.9c-.3,-.8,-.6,-1.3,-1,-1.6c-.4,-.3,-1,-.5,-1.7,-.5h-1.4l1.2,1.2c.4,0,.7,.1,1,.2c.4,.1,.6,.3,.9,.5c.2,.2,.4,.4,.6,.7c.1,.3,.2,.7,.2,1v8.9l1.1,1.2V135.2h2.3Zm11.9,-3.3c-2.3,-2.4,-4.8,-3.6,-7.3,-3.6c-1,0,-2,.4,-3.1,1.2c-1.1,.9,-1.6,1.8,-1.6,2.7c0,.4,.2,.7,.5,1l.8,.8h-3.2l1.2,1.2h1.8v11.3l1.2,1.2V135.2H279L277.8,134h-1.3l-.5,-1.1c.1,-.9,.6,-1.6,1.7,-2.3c.9,-.7,1.8,-1,2.7,-1c.7,0,1.3,.1,1.8,.2c.6,.2,1.2,.4,1.7,.7c.6,.4,1.1,.7,1.6,1c.5,.4,.9,.7,1.3,1l-.2,-.6Zm3.6,3.3L289,134H277.3l1.1,1.2h8.2v.9c-2.5,.8,-4.9,2.1,-7.3,3.7l1.6,2.3h-.1c1.7,.1,3.1,.7,4.1,1.6c.3,.3,.6,.6,.9,1c.4,.4,.6,.8,.8,1c.1,.3,.3,.7,.5,1.3l.7,.8V135.2h2.4Zm-3.6,9.4c-1,-1.8,-2.7,-3.2,-4.8,-4.1c.9,-.6,1.7,-1.1,2.5,-1.5c.8,-.4,1.6,-.7,2.3,-1v6.6Zm-4.7,1.7c.3,.3,.6,.4,.9,.4c.3,0,.6,-.1,.9,-.4c.2,-.2,.3,-.5,.3,-.8c0,-.4,-.1,-.7,-.3,-.9c-.3,-.3,-.6,-.4,-.9,-.4c-.3,0,-.6,.1,-.9,.4c-.2,.2,-.3,.5,-.3,.9c0,.3,.1,.6,.3,.8Zm19,-11.1L299.7,134H288.5c.6,1,1.8,1.7,3.4,2.2c.7,.2,1.2,.4,1.6,.6c.4,.2,.7,.4,.8,.6c-.5,.4,-1.1,.8,-1.7,1.4c-.6,.5,-1.2,1.1,-1.9,1.7l1.6,2.1c1.5,.1,2.7,.5,3.6,1.2c.5,.5,1.1,1.2,1.7,2.3c.6,1,1,1.6,1.3,1.8V135.2h2Zm-3.1,9.5h-.1c-1,-1.7,-2.5,-2.9,-4.5,-3.6c.5,-.5,1,-1.1,1.5,-1.6c.5,-.5,1,-.9,1.5,-1.4c-.6,-.7,-1.2,-1.3,-1.7,-1.8c-.5,-.5,-1,-.9,-1.3,-1.1h4.6v9.5Zm-4.7,2c.3,.2,.6,.3,.9,.3c.3,0,.6,-.1,.9,-.3c.2,-.3,.3,-.6,.3,-.9c0,-.3,-.1,-.6,-.3,-.9c-.3,-.2,-.6,-.3,-.9,-.3c-.3,0,-.6,.1,-.9,.3c-.2,.3,-.3,.6,-.3,.9c0,.3,.1,.6,.3,.9Zm12.5,-11.5L304.4,134h-1c-.4,-.4,-.6,-1,-.8,-1.9l-.4,-.3c0,.2,0,.5,0,.9c0,.3,.1,.7,.1,1.2c0,.5,.1,.9,.1,1.3c0,.3,0,.6,0,.9c-.3,-.8,-.6,-1.3,-1,-1.6c-.4,-.3,-.9,-.5,-1.7,-.5h-1.3l1.2,1.2c.3,0,.6,.1,1,.2c.3,.1,.6,.3,.8,.5c.3,.2,.5,.4,.6,.7c.1,.3,.2,.7,.2,1v8.9l1.2,1.2V135.2h2.2Zm11.2,0L315.5,134H303.9l1.1,1.2h8.5v6.6h-.1c-1.3,-2.6,-2.7,-4,-4.4,-4c-.8,0,-1.5,.3,-2.1,.9c-.6,.5,-.9,1.2,-.9,2c0,1.5,.8,2.2,2.3,2.2c.5,0,.9,-.2,1.2,-.5c.3,-.4,.5,-.8,.5,-1.3c0,-.3,-.3,-.8,-.8,-1.5c.1,-.1,.2,-.1,.3,-.1c1.3,0,2.4,.8,3.4,2.5c.6,1.4,.9,2.9,.9,4.2l-.1,1.3l1,.6V135.2h2.1ZM330.2,134c-.6,0,-1.1,.2,-1.5,.4c-.5,.3,-.9,.5,-1.3,.8c-.8,.8,-1.4,1.8,-1.8,2.8c-.5,1,-.7,2.1,-.7,3.3c0,1.5,.3,2.8,.9,3.9c.8,1.4,1.8,2.1,3.2,2.1c.3,0,.6,0,.8,-.1c.3,-.1,.5,-.2,.7,-.4c.2,-.2,.4,-.4,.5,-.7c.1,-.2,.2,-.5,.2,-.8c0,-.4,-.2,-.9,-.5,-1.2c-.2,-.3,-.6,-.5,-1,-.5c-.2,0,-.3,.1,-.5,.1c-.2,.1,-.4,.2,-.5,.3c-.1,.2,-.2,.3,-.3,.4c-.1,.2,-.2,.4,-.2,.6c0,.2,.1,.4,.2,.7c.2,.2,.3,.4,.6,.6c0,0,-.1,.1,-.2,.1h-.1c-.8,0,-1.4,-.5,-1.9,-1.4c-.5,-.7,-.7,-1.5,-.7,-2.3c0,-1,.1,-1.9,.3,-2.7c.2,-.7,.5,-1.4,1,-2.1c.4,-.7,1,-1.3,1.6,-1.7c.7,-.5,1.5,-.8,2.3,-1L330.2,134Zm1.3,7.7c0,-.5,.1,-.9,.2,-1l-.5,-.5c-.1,.5,-.2,.9,-.3,1.2c0,.4,-.1,.7,-.1,.9c0,.6,.1,1,.4,1.5c.2,.4,.5,.8,.9,1.2c.4,.3,.9,.5,1.4,.7c.6,.2,1.1,.3,1.8,.3c.4,0,.9,0,1.4,0c.5,0,.9,0,1.4,.1c.5,0,1,.1,1.5,.3c.4,.1,.8,.3,1.2,.6l1.2,1.2v-13h2L342.8,134c-.7,-.1,-1.1,-.6,-1.2,-1.5l-.8,-.6l.3,5.3H341c-.2,-.5,-.6,-1.2,-1.2,-2c-.7,-.8,-1.3,-1.2,-1.8,-1.2c-1.2,0,-2.2,.8,-3,2.4c-.1,-.7,-.4,-1.2,-1,-1.7c-.6,-.5,-1.1,-.7,-1.8,-.7h-2.5l1.2,1.2c.1,0,.2,0,.3,0h.3c1.4,0,2.3,.5,2.7,1.5c-.2,.1,-.5,.2,-.8,.4c-.2,.2,-.5,.4,-.6,.7c-.2,.2,-.4,.5,-.5,.8c-.1,.2,-.2,.5,-.2,.8c0,.4,.2,.8,.5,1.2c.2,.3,.6,.5,1,.5c1,0,1.6,-.5,2,-1.5c.1,.5,.4,.9,.7,1.1c.4,.3,.7,.4,1.1,.4c.2,0,.4,-.1,.6,-.2c.2,-.1,.4,-.2,.5,-.4c.2,-.2,.3,-.4,.4,-.6c.1,-.2,.1,-.5,.1,-.7c0,-.6,-.6,-1.3,-1.9,-2.2c0,-.3,.2,-.6,.5,-.7c.3,-.2,.6,-.3,.9,-.3c.5,0,1,.3,1.5,1c.6,.8,.8,1.4,.8,1.9v7.2c-.1,-.2,-.3,-.4,-.5,-.6c-.2,-.2,-.4,-.3,-.6,-.5c-.2,-.1,-.4,-.2,-.6,-.3c-.2,-.1,-.3,-.2,-.4,-.3c-.2,0,-.5,-.1,-.8,-.2c-.4,-.1,-.7,-.1,-1.1,-.2c-.3,0,-.6,-.1,-.9,-.1c-.3,0,-.6,0,-.8,0H335c-2.3,0,-3.5,-.8,-3.5,-2.2ZM355,135.2L353.9,134c-.5,0,-.9,-.1,-1.1,-.4c-.3,-.3,-.4,-.8,-.4,-1.4l-.6,-.5v5.5h-.1c-.2,-.9,-.6,-1.6,-1.2,-2.2c-.7,-.7,-1.4,-1.1,-2.3,-1.1c-1.1,0,-2,.5,-2.8,1.3c-.3,.4,-.5,.8,-.7,1.3c-.2,.5,-.3,1,-.3,1.6c0,.9,.3,1.8,.9,2.5c.7,.6,1.5,1,2.4,1c.3,0,.5,-.1,.8,-.1c.2,-.1,.5,-.2,.7,-.4c.1,-.1,.3,-.3,.4,-.5c.1,-.2,.2,-.5,.2,-.7c0,-.4,-.1,-.7,-.4,-1c-.3,-.3,-.6,-.5,-1,-.5c-.7,.1,-1.1,.4,-1.2,1c0,.1,.1,.3,.1,.3c0,.1,0,.2,0,.3q.1,.1,.1,.2c0,0,-.1,0,-.2,0c-.4,0,-.7,-.3,-.9,-.8c-.1,-.2,-.2,-.4,-.2,-.6c-.1,-.2,-.1,-.5,-.1,-.7c0,-.7,.2,-1.2,.7,-1.7c.4,-.5,1,-.7,1.6,-.7c1,0,1.8,.4,2.4,1.2c.6,.8,.9,1.6,.9,2.6v6.8l1.3,1.4V135.2H355Zm4.8,0L358.6,134h-1.2c-1.1,-4.2,-3.7,-6.3,-7.6,-6.3c-.4,0,-.9,0,-1.4,.1c-.4,.1,-.9,.3,-1.3,.4c-.6,.3,-1,.6,-1.3,.9c-.3,.3,-.4,.6,-.4,1c0,.4,.1,.8,.4,1.1c.3,.3,.8,.6,1.3,.8c.2,0,.5,0,1.1,.1c.5,.1,1.3,.2,2.2,.3c1.2,.1,1.8,.4,1.8,.9c0,.3,-.2,.6,-.5,.8h1.2c0,-.4,.1,-.7,.1,-.7c0,-.6,-.2,-1.1,-.5,-1.4c-.3,-.4,-.8,-.7,-1.4,-.9c-.6,-.1,-1.7,-.2,-3.3,-.3c-1.2,-.1,-1.8,-.3,-1.8,-.7c0,-.4,.4,-.7,1.4,-.9c.3,-.1,.7,-.2,1,-.2c.3,-.1,.7,-.1,1,-.1c4,0,6.3,1.7,6.8,5.1h-3l1.3,1.2h1.7v11.3l1.2,1.2V135.2h2.4Zm14.2,0L372.8,134H357.6l1.2,1.2h7.8v1c-2.6,.8,-4.9,2.1,-6.9,3.7l1.7,2.1c1.3,.1,2.5,.7,3.6,1.8c.5,.5,.9,1,1.3,1.6c.4,.7,.7,1.3,1,2c0,.1,.1,.1,.2,.2c.1,0,.1,.1,.2,.1v-10c1.2,0,2.2,.3,2.8,1c.7,.7,1,1.4,1,2.2l-.1,.3c-.2,-.2,-.3,-.3,-.5,-.4c-.2,-.2,-.4,-.2,-.7,-.2c-.4,0,-.7,.1,-1,.4c-.3,.2,-.4,.5,-.4,.9c0,.2,0,.4,.1,.6c.1,.2,.3,.3,.4,.5c.2,.1,.3,.2,.5,.3c.2,.1,.4,.1,.6,.1c.3,0,.5,-.1,.8,-.2c.2,-.1,.4,-.3,.6,-.5c.2,-.2,.3,-.4,.4,-.7c.1,-.3,.2,-.5,.2,-.8c0,-1.3,-.5,-2.4,-1.3,-3.4c-.8,-1.2,-2,-1.7,-3.3,-1.7v-.9H374Zm-7.4,9.1h-.1c-1,-1.8,-2.4,-3.1,-4.4,-4c.8,-.5,1.5,-1,2.3,-1.4c.7,-.4,1.4,-.8,2.2,-1.1v6.5ZM380.1,134h-7.9l1.2,1.2h4c-1.7,2,-2.6,4,-2.6,6.1c0,1.5,.3,2.8,1,3.9c.7,1.4,1.8,2.1,3.2,2.1c.3,0,.5,0,.8,-.1c.3,-.1,.5,-.2,.7,-.4c.2,-.2,.4,-.4,.5,-.7c.1,-.2,.1,-.5,.1,-.8c0,-.4,-.1,-.9,-.4,-1.2c-.3,-.3,-.6,-.5,-1,-.5c-.4,0,-.7,.2,-1,.4c-.3,.3,-.5,.6,-.5,1c0,.2,.1,.4,.2,.7c.1,.2,.3,.4,.6,.6c-.7,.2,-1.5,-.2,-2.3,-1.3c-.4,-.7,-.6,-1.5,-.6,-2.3c0,-1,.1,-1.9,.3,-2.7c.2,-.7,.5,-1.4,.9,-2.1c.5,-.7,1,-1.3,1.7,-1.7c.6,-.5,1.4,-.8,2.3,-1L380.1,134Zm15.9,0H379.4l1.2,1.2h1.8c.1,0,.2,.1,.3,.2c.1,.1,.2,.2,.3,.3c.1,.2,.2,.3,.3,.4c0,.1,.1,.2,.1,.3l-.1,.2c-.2,0,-.4,0,-.6,.1c-.7,.3,-1.1,.8,-1.1,1.4c0,.6,.1,1.1,.5,1.4c.3,.3,.7,.4,1.2,.4c.4,0,.7,-.1,1,-.5c.3,-.3,.5,-.7,.5,-1.1c.1,-.1,.2,-.1,.3,-.2c.1,0,.2,0,.3,0c.5,0,.9,.1,1.2,.5c.4,.4,.5,.8,.5,1.3c0,.2,0,.4,-.1,.6c-.6,0,-1,.1,-1.5,.4c-.4,.3,-.6,.7,-.6,1.2c0,.4,.2,.8,.5,1.1c.3,.3,.7,.4,1.1,.4c.8,0,1.4,-.4,1.6,-1.1c.9,.4,1.6,1,2.1,1.9v-.1c.1,.2,.2,.6,.4,1c.2,.4,.4,1,.6,1.7l.6,.6v-8.8c.3,-.1,.6,-.2,1,-.2c.6,0,1.1,.1,1.5,.3c.7,.3,1,.6,1,1.1c0,.2,-.1,.5,-.2,.7c-.4,-.5,-.9,-.8,-1.4,-.7c-.3,0,-.5,.1,-.8,.3c-.2,.3,-.3,.6,-.3,.9c.1,.4,.3,.7,.7,.9c.4,.3,.8,.4,1.3,.4c.4,-.1,.8,-.3,1,-.7c.3,-.4,.4,-.9,.5,-1.5c0,-.9,-.4,-1.7,-1.1,-2.3c-.7,-.6,-1.5,-.9,-2.4,-.9c-.4,0,-.7,0,-.9,.1v-2h5.6L396,134Zm-5.8,3.4h-.3c-1.3,0,-2,-.6,-2,-1.7c0,-.3,.1,-.5,.3,-.5h2.4v2.1c-.2,0,-.3,.1,-.4,.1Zm.3,6.2c-.4,-1,-1,-1.8,-2,-2.4c0,-.5,-.1,-.9,-.3,-1.4c-.2,-.5,-.5,-.9,-.8,-1.3c-.3,-.4,-.7,-.8,-1.1,-1c-.4,-.3,-.8,-.6,-1.3,-.7c-.1,-.1,-.2,-.1,-.3,-.1c-.1,-.1,-.3,-.1,-.4,-.2c-.2,-.3,-.3,-.6,-.4,-.8c-.1,-.2,-.1,-.4,-.2,-.5h3.1c.1,.9,.5,1.8,1.2,2.5c.8,.7,1.6,1,2.6,1.1v4.8h-.1Zm25.8,-8.4L415.1,134H403.3l1.2,1.2h8.2v.9c-2.5,.8,-5,2.1,-7.4,3.7l1.6,2.3c1.7,.1,3.1,.7,4.1,1.6c.3,.3,.6,.6,.9,1c.3,.4,.6,.8,.8,1.2c.1,.3,.3,.5,.3,.7c.1,.1,.1,.2,.2,.4l.6,.8V135.2h2.5Zm-3.6,9.4c-1.1,-1.8,-2.7,-3.2,-4.8,-4.1c.8,-.6,1.7,-1.1,2.4,-1.5c.8,-.4,1.6,-.7,2.4,-1v6.6Zm8.2,-9.4L419.7,134h-6l1.2,1.2h3.4c-1.3,1.2,-1.9,2.6,-1.8,4.2c0,.5,.1,1.4,.4,2.4c.2,.5,.3,1,.4,1.4c.1,.4,.1,.8,.1,1c0,.9,-.2,1.6,-.5,2c-.2,.3,-.5,.6,-.9,.8c-.4,.2,-.8,.4,-1.2,.5l.7,.5c.4,-.1,.8,-.3,1.2,-.5c.4,-.2,.8,-.5,1.1,-.8c.4,-.4,.7,-.8,.9,-1.3c.2,-.4,.3,-.9,.3,-1.3c0,-.4,-.1,-.8,-.1,-1.4c-.1,-.5,-.2,-1.2,-.3,-1.9c-.3,-1.1,-.4,-2.2,-.4,-3.3c.2,-1.5,.8,-2.3,1.9,-2.3h.8Zm10.8,0L430.5,134H418.7l1.2,1.2H428v.9c-2.5,.8,-4.9,2.1,-7.3,3.7l1.6,2.3c1.6,.1,3,.7,4,1.6c.3,.3,.6,.6,1,1c.3,.4,.5,.8,.7,1.2c.2,.3,.3,.5,.4,.7c0,.1,.1,.2,.1,.4l.7,.8V135.2h2.5Zm-3.7,9.4c-1,-1.8,-2.6,-3.2,-4.8,-4.1c.9,-.6,1.7,-1.1,2.5,-1.5c.8,-.4,1.6,-.7,2.3,-1v6.6ZM443,134H429.8l1.2,1.2h3.9c.5,.4,.8,.7,.8,1c-.8,0,-1.4,.3,-2,.8c-.5,.5,-.8,1.1,-.8,1.8c0,.4,.1,.7,.4,.9c.3,.2,.7,.3,1,.3c.6,0,1.1,-.2,1.6,-.7c.5,-.5,.7,-1,.7,-1.6c.1,0,.2,0,.3,-.1c.1,0,.2,0,.3,0c.3,0,.5,.1,.7,.2c.2,.1,.4,.2,.6,.4c.1,.2,.2,.4,.3,.7c.1,.2,.1,.5,.1,.7c.1,.8,-.4,1.5,-1.4,2c-.7,.3,-1.5,.5,-2.5,.4c-1.2,-.1,-2.3,-.4,-3.3,-1l1.4,3c.9,.2,1.8,.5,2.6,.9c.9,.3,1.7,.7,2.5,1.2c.9,.5,1.7,1,2.4,1.5c.6,.6,1.3,1.2,1.8,1.9c0,-.2,-.1,-.5,-.1,-.7c0,-.2,-.1,-.4,-.1,-.6c-1.1,-1.1,-2.1,-2,-3,-2.8c-.9,-.8,-1.8,-1.4,-2.6,-1.9c1.2,-.3,2.1,-.7,2.7,-1.2c.5,-.4,.8,-.9,1,-1.5c.3,-.3,.7,-.5,1.1,-.5c.2,0,.3,.2,.3,.7c0,.3,0,.6,0,.8c0,.3,0,.5,0,.8c0,.2,0,.3,0,.5c0,.2,0,.4,0,.5c.1,.8,.2,1.5,.3,2c.1,.6,.3,1,.4,1.2c.2,.1,.4,.2,.5,.3c.2,.1,.3,.3,.5,.4c-.3,-.6,-.4,-1.2,-.5,-1.8c-.1,-.7,-.2,-1.5,-.2,-2.3c0,-.6,.1,-1.2,.2,-1.7c.1,-.6,.2,-1.1,.3,-1.5l-1.8,-1.7l-1.1,.3c-.2,-.5,-.4,-1,-.8,-1.4c-.4,-.5,-1.3,-.9,-2.5,-1.3c-.1,-.2,-.2,-.3,-.3,-.5c-.1,-.1,-.2,-.2,-.3,-.4h7.8L443,134Zm14.1,0H442.8l1.3,1.2h14.2L457.1,134Zm-.6,5.6c-.2,-.6,-.5,-1.2,-.9,-1.7c-.5,-.5,-1,-.9,-1.5,-1.1c-.6,-.3,-1.2,-.5,-1.8,-.5c-.8,0,-1.5,.3,-2,.7c-.6,.5,-.9,1.1,-.9,1.9c0,.6,.2,1.2,.5,1.6c.4,.5,.9,.7,1.5,.7c1.3,0,1.9,-.6,1.9,-1.7c0,-.5,-.1,-1,-.5,-1.4c.4,-.1,.7,-.2,.9,-.2c.6,0,1.1,.3,1.6,.9c.3,.6,.5,1.1,.5,1.8c0,.8,-.3,1.6,-1,2.3c-.8,.6,-1.6,1,-2.5,1c-1.7,0,-3.2,-.9,-4.4,-2.8c-.3,-.3,-.7,-1,-1.1,-1.8c-.4,-.9,-.9,-1.9,-1.4,-3.1l-.6,-.2c1.7,6.5,4.3,9.8,7.5,9.8c1.1,0,2.2,-.5,3.1,-1.3c.5,-.4,.8,-.8,1.1,-1.4c.2,-.5,.3,-1,.3,-1.6c0,-.7,-.1,-1.3,-.3,-1.9Zm23,-5.6H464.3l1.2,1.2h11.8v8.2L475.7,142c.2,-.6,.3,-1.3,.3,-1.9c0,-.8,-.2,-1.6,-.6,-2.2c-.3,-.5,-.6,-.9,-1,-1.2c-.5,-.3,-.9,-.6,-1.3,-.7c-.4,-.1,-.7,-.2,-1,-.2c-.7,0,-1.3,.2,-2,.7c-.3,.2,-.5,.5,-.7,.8c-.1,.3,-.2,.6,-.2,.9c0,.4,0,.7,.2,.9c.3,.5,.7,.7,1.2,.8c.6,.1,1.1,0,1.5,-.3c.2,-.2,.4,-.4,.6,-.6c.1,-.3,.2,-.5,.2,-.8c0,-.3,-.1,-.6,-.4,-1c.3,-.1,.5,-.1,.7,0c.2,0,.5,.1,.8,.3c.1,.2,.3,.4,.5,.7c.2,.3,.3,.6,.4,.9c.1,.3,.1,.5,.1,.7c0,.6,-.2,1.1,-.5,1.7c-.4,.8,-1.4,1.3,-2.8,1.3c-.5,0,-1.1,-.2,-1.6,-.5c-.6,-.3,-1.1,-.8,-1.5,-1.4c-.5,-.5,-.9,-1.2,-1.2,-2c-.4,-.8,-.7,-1.7,-.9,-2.7l-.7,-.3c.1,1,.3,2,.6,2.9c.2,.9,.5,1.7,.9,2.3c.3,.5,.7,1,1,1.5c.4,.4,.8,.8,1.2,1.1c.4,.3,.8,.6,1.2,.7c.5,.2,.9,.3,1.3,.3c.7,0,1.3,-.2,1.9,-.4c.5,-.3,1,-.7,1.3,-1.2c1.4,.9,2.4,2.4,2.9,4.5v-.1l.4,.3V135.2h2.2L479.5,134Zm13.2,-2.1c-2.3,-2.4,-4.7,-3.6,-7.2,-3.6c-1,0,-2,.4,-3.1,1.2c-1.1,.9,-1.6,1.8,-1.6,2.7c0,.4,.1,.7,.5,1l.8,.8h-3.2l1.2,1.2h1.8v11.3l1.2,1.2V135.2h2.1L484,134h-1.3l-.5,-1.1c.1,-.9,.6,-1.6,1.7,-2.3c.9,-.7,1.8,-1,2.7,-1c.6,0,1.2,.1,1.8,.2c.6,.2,1.2,.4,1.7,.7c.6,.4,1.1,.7,1.6,1c.5,.4,.9,.7,1.3,1l-.3,-.6Zm5.5,3.3L497,134H483.6l1.2,1.2h13.4Zm-1.7,2.9c-.3,-.5,-.6,-.9,-.9,-1.1c-.3,-.3,-.6,-.5,-.9,-.5c-.1,.3,-.3,.6,-.5,.9c-.2,.3,-.4,.6,-.6,.8c-.7,.7,-1.2,1,-1.8,.9c.4,-.4,.6,-.9,.6,-1.2c0,-.4,-.2,-.8,-.5,-1.1c-.3,-.2,-.7,-.4,-1.1,-.4c-1.3,0,-1.9,.7,-1.9,1.9c0,.8,.2,1.4,.8,1.9c.6,.4,1.2,.6,1.9,.6c1.5,0,2.8,-.6,3.9,-1.9c.4,0,.6,.6,.6,1.7c0,.9,-.4,1.7,-1,2.3c-.7,.7,-1.4,1,-2.3,1c-.9,0,-1.7,-.2,-2.5,-.7c-.7,-.4,-1.4,-1,-2.1,-1.7c-.4,-.6,-.8,-1.4,-1.2,-2.2c-.5,-.8,-.8,-1.7,-1.1,-2.7l-.7,-.2c.4,1.4,.9,2.7,1.3,3.7c.4,1,.7,1.8,1.1,2.3c1.3,2.3,3,3.5,5,3.5c1.4,0,2.5,-.6,3.4,-1.6c.4,-.5,.7,-1.1,.9,-1.7c.2,-.6,.3,-1.3,.3,-2c0,-.7,-.2,-1.5,-.7,-2.5Zm13.1,-2.9L508.4,134H496.6l1.2,1.2H506v.9c-2.5,.8,-5,2.1,-7.4,3.7l1.6,2.3c1.7,.1,3,.7,4.1,1.6c.2,.3,.5,.6,.9,1c.3,.4,.6,.8,.7,1.2c.2,.3,.3,.5,.4,.7c.1,.1,.1,.2,.2,.4l.6,.8V135.2h2.5Zm-3.6,9.4c-1.1,-1.8,-2.7,-3.2,-4.9,-4.1c.9,-.6,1.7,-1.1,2.5,-1.5c.8,-.4,1.6,-.7,2.4,-1v6.6Zm8.2,-9.4L513,134h-6.1l1.2,1.2h3.5c-1.3,1.2,-1.9,2.6,-1.8,4.2c0,.5,.1,1.4,.4,2.4c.2,.5,.3,1,.4,1.4c.1,.4,.1,.8,.1,1c0,.9,-.2,1.6,-.5,2c-.3,.3,-.6,.6,-.9,.8c-.4,.2,-.8,.4,-1.2,.5l.7,.5c.4,-.1,.8,-.3,1.2,-.5c.4,-.2,.8,-.5,1.1,-.8c.4,-.4,.7,-.8,.9,-1.3c.2,-.4,.3,-.9,.3,-1.3c0,-.4,-.1,-.8,-.2,-1.4c0,-.5,-.1,-1.2,-.3,-1.9c-.2,-1.1,-.3,-2.2,-.3,-3.3c.2,-1.5,.8,-2.3,1.9,-2.3h.8Zm4,0L517.1,134H516c-.4,-.4,-.6,-1,-.8,-1.9l-.4,-.3c0,.2,0,.5,0,.9c.1,.3,.1,.7,.1,1.2c0,.5,.1,.9,.1,1.3c0,.3,0,.6,0,.9c-.2,-.8,-.6,-1.3,-1,-1.6c-.3,-.3,-.9,-.5,-1.6,-.5H511l1.2,1.2c.3,0,.7,.1,1,.2c.3,.1,.6,.3,.8,.5c.3,.2,.5,.4,.6,.7c.2,.3,.2,.7,.2,1v8.9l1.2,1.2V135.2h2.2Zm11.9,-3.3c-2.3,-2.4,-4.7,-3.6,-7.3,-3.6c-.9,0,-2,.4,-3,1.2c-1.1,.9,-1.6,1.8,-1.6,2.7c0,.4,.1,.7,.4,1l.9,.8h-3.2l1.2,1.2h1.8v11.3l1.2,1.2V135.2h2.1L521.4,134h-1.3l-.5,-1.1c0,-.9,.6,-1.6,1.6,-2.3c1,-.7,1.9,-1,2.8,-1c.6,0,1.2,.1,1.8,.2c.6,.2,1.1,.4,1.7,.7c.6,.4,1.1,.7,1.6,1c.4,.4,.9,.7,1.2,1l-.2,-.6ZM538,134H520.7l1.2,1.2h17.2L538,134Zm-.9,4.5c-.4,-.5,-.9,-.8,-1.6,-.8c-.6,0,-1.4,.4,-2.2,1.4c0,-1.2,-.2,-2,-.6,-2.5c-.4,-.6,-1.2,-.9,-2.3,-.9c-.9,0,-1.9,.4,-2.8,1c-.9,.7,-1.4,1.6,-1.4,2.5c0,.5,.2,.9,.4,1.2c.3,.3,.7,.4,1.1,.4c.8,0,1.1,-.3,1.1,-1c0,-.6,-.2,-1,-.7,-1.2c.2,-.4,.6,-.8,1.1,-1c.5,-.3,1.1,-.4,1.6,-.4c.4,0,.8,.1,1.2,.3c.4,.3,.6,.6,.6,.9c0,.5,-.2,.8,-.6,1.1c-.4,-.2,-.8,-.3,-1.1,-.3c-.3,0,-.6,.1,-.9,.4c-.2,.3,-.4,.6,-.4,1c0,.4,.2,.7,.4,1c.3,.3,.6,.4,1.1,.4c.3,0,.6,-.2,1,-.5c.3,.4,.5,.8,.5,1.2c0,.6,-.2,1.1,-.6,1.5c-.4,.3,-.9,.5,-1.6,.5c-1.3,0,-2.4,-.5,-3.4,-1.4c-.3,-.4,-.7,-.8,-1,-1.4c-.3,-.5,-.6,-1.1,-.9,-1.9l-1.4,-3.4l-.9,-.4c1.9,6.9,4.4,10.3,7.5,10.3c.5,0,.9,-.1,1.3,-.2c.4,-.1,.7,-.4,1,-.7c.7,-.6,1,-1.3,1,-2.2c0,-.8,-.3,-1.5,-.8,-2.1l-.1,-.2c0,-.2,.1,-.5,.3,-.8c.1,-.2,.3,-.5,.6,-.7c.6,-.5,1.2,-.8,1.7,-.8c.5,0,.8,.2,1.1,.5c.3,.3,.4,.7,.4,1.2c0,.6,-.2,.9,-.4,.9h-.1c-.3,-.6,-.6,-.9,-1,-.9c-.3,0,-.6,.1,-.8,.3c-.2,.2,-.3,.5,-.3,.9c0,.1,.1,.3,.1,.5c.1,.2,.2,.4,.4,.5c.1,.1,.2,.2,.4,.2c.2,.1,.4,.1,.6,.1c.6,-.1,1.2,-.4,1.6,-.9c.3,-.6,.5,-1.2,.5,-1.8c0,-.6,-.2,-1.2,-.7,-1.8Z" class="gb_60"/>
<image clip-path="url(#ci_60)" preserveAspectRatio="none" x="154" y="213" width="698" height="69" xlink:href="img/18.png"/>
<path d="M169.3,214.6c0,0,-13,0,-13,12.9V261c0,0,0,13,13,13H830.8c0,0,13,0,13,-13V227.5c0,0,0,-12.9,-13,-12.9Z" class="g5_60"/>
<path d="M165.8,215.1c-3.4,.9,-8.3,3.3,-9.3,9.9" class="gc_60"/>
<path d="M156.3,231.4v26.8" class="gd_60"/>
<path d="M156.8,264.6c.9,3.4,3.4,8.2,10,9.2" class="gc_60"/>
<path d="M173.3,274H827.9" class="gd_60"/>
<path d="M834.3,273.5c3.4,-.9,8.3,-3.3,9.3,-9.9" class="gc_60"/>
<path d="M843.8,257.1V230.3" class="gd_60"/>
<path d="M843.2,224c-.9,-3.4,-3.3,-8.3,-9.9,-9.3" class="gc_60"/>
<path d="M826.7,214.6H172.2" class="gd_60"/>
<path d="M156.4,226c-.1,.5,-.1,1,-.1,1.5v1.7m0,30.2V261c0,0,0,.7,.2,1.6M167.7,274c.5,0,1.1,0,1.6,0H171m658,0h1.8c0,0,.6,0,1.5,-.1m11.4,-11.3c0,-.5,.1,-1,.1,-1.6v-1.6m0,-30.2v-1.7c0,0,0,-.6,-.2,-1.5M832.3,214.6c-.5,0,-1,0,-1.5,0H829m-658,0h-1.7c0,0,-.6,0,-1.5,.1" class="ge_60"/>
<path d="M32.1,45.1H9.2m958.3,0h22.9M32.1,1331.3H9.2m958.3,0h22.9M45.1,32.1V9.2m0,1335.1v22.9M954.5,32.1V9.2m0,1335.1v22.9" class="gf_60"/>
<path d="M32.1,45.1H9.2m958.3,0h22.9M32.1,1331.3H9.2m958.3,0h22.9M45.1,32.1V9.2m0,1335.1v22.9M954.5,32.1V9.2m0,1335.1v22.9" class="gg_60"/>
<path d="M27.5,32.1H0m972.1,0h27.5M27.5,1344.3H0m972.1,0h27.5M32.1,27.5V0m0,1348.9v27.5M967.5,27.5V0m0,1348.9v27.5" class="gf_60"/>
<path d="M27.5,32.1H0m972.1,0h27.5M27.5,1344.3H0m972.1,0h27.5M32.1,27.5V0m0,1348.9v27.5M967.5,27.5V0m0,1348.9v27.5" class="gg_60"/>
</svg>