<?xml version="1.0" encoding="UTF-8" standalone="no"?>
<!DOCTYPE svg PUBLIC "-//W3C//DTD SVG 1.1//EN"
"http://www.w3.org/Graphics/SVG/1.1/DTD/svg11.dtd">
<svg viewBox="0 0 999 1376" version="1.1" xmlns="http://www.w3.org/2000/svg" xmlns:xlink="http://www.w3.org/1999/xlink">
<defs>
<clipPath id="c0_66"><path d="M32.1,1344.3V32.1H967.5V1344.3Z"/></clipPath>
<clipPath id="c1_66"><path d="M125.5,386.7V205.8H858.6V386.7Z"/></clipPath>
<clipPath id="c2_66"><path d="M608.8,789.3v-231H813.9v231Z"/></clipPath>
<clipPath id="c3_66"><path d="M607.2,791.7V557.4H817.8V791.7Z"/></clipPath>
<clipPath id="c4_66"><path d="M68.1,935V712.8H327.2V935Z"/></clipPath>
<clipPath id="c5_66"><path d="M72.5,927.9V719.4H322.8V927.9Z"/></clipPath>
<clipPath id="c6_66"><path d="M176.6,544l-6.5,-2.1l-16.4,-14V470.8h72V544Z"/></clipPath>
<clipPath id="c7_66"><path d="M176.6,1067.2l-6.5,-2.1l-16.4,-13.9V994.1h72v73.1Z"/></clipPath>
<clipPath id="c8_66"><path d="M764.8,434.8V422.4h14.5v12.4Z"/></clipPath>
<clipPath id="c9_66"><path d="M701.1,585.8c-.3,-.1,3.5,-8.2,3.5,-8.2l.8,.5c0,0,-4,7.7,-4.3,7.7Z"/></clipPath>
<clipPath id="ca_66"><path d="M708.6,578.1c0,0,-6.9,-1.2,-7.6,-5.3c-.6,-3.6,1.5,-3.8,2.1,-3.8q.1,0,.1,0l8.3,-12.7l-1.4,-3.1c0,0,-.6,-1.1,.1,-2.1c.1,-.1,.2,-.1,.3,-.1c2.1,0,13,5.6,13,5.6v.1c-.3,.5,-.7,1.1,-1.4,1.6c-.6,.5,-5,1.2,-5,1.2l-8.5,18.6Z"/></clipPath>
<clipPath id="cb_66"><path d="M708.2,577.7c.2,-.5,.2,-1.8,0,-2.3v-1.3c-1.5,-.6,-2.9,-1.3,-3.7,-2.6c-1.1,.6,-2.1,1.3,-3.1,1.9c1.6,2.2,3.8,3.6,6.8,4.3Zm0,-3.9c2.2,-4.5,4,-9.5,6.1,-14.1c-.8,-.4,-1.8,-1.3,-2.6,-1.4c-2.3,4.4,-4.6,8.7,-7,12.9c.7,1.3,2.1,2,3.5,2.6Zm-7.3,12.1c1,-2.9,2.4,-5.5,3.5,-8.3c-2,-1.6,-3.9,-3.1,-4.4,-6.2v-1.5c0,-2.7,1.9,-3.4,4.6,-3.4q.1,0,.2,0c1.9,-3.3,4.2,-6.3,6.2,-9.7c-.6,-.8,-1.2,-2.3,-.9,-3.6c.5,1.2,1.6,1.9,2.4,2.9c-.2,.6,-.3,1.1,-.4,1.7c.6,.7,1.3,1.2,2.4,1.4c.4,-.4,.5,-1.2,1.1,-1.5c.9,.4,1.8,.8,3.1,.8c.2,.1,.5,.1,.9,.1c.3,0,.6,0,.8,-.1c.1,0,.2,0,.3,0c.2,0,.4,-.1,.6,-.1c.2,-.1,.4,-.2,.5,-.2c.1,0,.2,.1,.3,.1c-1.3,.7,-2.2,1.8,-4.1,1.8c-.1,0,-.3,0,-.4,0c-.9,3.7,-1.8,7.4,-2.6,11.2c.5,1,1.5,1.7,1.2,3.1c-.4,2.8,-3.8,4.4,-7.2,4.4c-1.2,0,-2.5,-.2,-3.6,-.7c-1,2.1,-2,4.1,-3.2,6c-.1,-.4,.2,-.4,.2,-.7c1,-1.9,1.9,-3.6,2.6,-5.7c-1,1.7,-1.8,3.7,-2.7,5.5c-.2,.4,-.4,.9,-.7,1.3c-.2,.4,-.2,1.1,-.7,1.4Z"/></clipPath>
<clipPath id="cc_66"><path d="M718.6,558.1c-4.8,0,-13.1,-7.3,-5.5,-8.8h1.2c.2,0,.5,0,.7,0q.1,0,.2,0c.3,0,.6,.1,.9,.1c3.1,.7,8.2,3.8,7.5,7.1c-.2,1.1,-1.5,1.6,-3.1,1.6h-1.9Z"/></clipPath>
<clipPath id="cd_66"><path d="M191.4,741.2c-.3,-.1,3.5,-8.2,3.5,-8.2l.8,.5c0,0,-4.1,7.7,-4.3,7.7Z"/></clipPath>
<clipPath id="ce_66"><path d="M198.9,733.5c0,0,-6.9,-1.1,-7.6,-5.3c-.7,-3.6,1.5,-3.8,2.1,-3.8c0,0,.1,0,.1,0l8.3,-12.7l-1.5,-3.1c0,0,-.6,-1.1,.2,-2.1c0,0,.1,-.1,.3,-.1c2.1,0,12.9,5.6,12.9,5.6l.1,.1c-.4,.5,-.7,1.2,-1.4,1.7c-.7,.5,-5.1,1.1,-5.1,1.1l-8.4,18.6Z"/></clipPath>
<clipPath id="cf_66"><path d="M198.5,733.1c.2,-.4,.2,-1.8,0,-2.2v-1.4c-1.6,-.5,-2.9,-1.3,-3.7,-2.5c-1.1,.5,-2.1,1.2,-3.1,1.8c1.5,2.2,3.8,3.6,6.8,4.3Zm0,-3.9c2.1,-4.5,3.9,-9.5,6.1,-14c-.9,-.4,-1.8,-1.4,-2.6,-1.4c-2.3,4.3,-4.6,8.6,-7.1,12.8c.8,1.3,2.1,2,3.6,2.6Zm-7.3,12.1c1,-2.9,2.4,-5.5,3.5,-8.3c-2,-1.5,-3.9,-3.1,-4.4,-6.2v-1.5c-.1,-2.7,1.9,-3.4,4.6,-3.4c0,0,.1,0,.2,0c1.9,-3.3,4.2,-6.3,6.1,-9.6c-.6,-.9,-1.1,-2.4,-.9,-3.7c.5,1.3,1.7,1.9,2.4,2.9c-.1,.6,-.3,1.1,-.3,1.8c.5,.6,1.3,1.1,2.3,1.3c.5,-.4,.6,-1.2,1.2,-1.5c.9,.4,1.8,.8,3.1,.8c.1,.1,.5,.1,.8,.1c.4,0,.7,0,.8,-.1c.1,0,.3,0,.3,0c.3,0,.5,0,.7,-.1c.2,-.1,.3,-.1,.5,-.1c.1,0,.2,0,.3,.1c-1.3,.6,-2.2,1.7,-4.2,1.7c-.1,0,-.2,0,-.3,0c-.9,3.8,-1.9,7.4,-2.7,11.2c.6,1.1,1.5,1.7,1.3,3.2c-.5,2.7,-3.9,4.3,-7.2,4.3c-1.3,0,-2.5,-.2,-3.6,-.7c-1,2.1,-2.1,4.1,-3.3,6c0,-.3,.3,-.4,.3,-.7c.9,-1.8,1.9,-3.6,2.6,-5.7c-1,1.7,-1.8,3.7,-2.8,5.6c-.2,.4,-.4,.8,-.6,1.2c-.3,.4,-.3,1.1,-.7,1.4Z"/></clipPath>
<clipPath id="cg_66"><path d="M208.9,713.5c-4.8,0,-13.1,-7.3,-5.5,-8.8h1.2c.2,.1,.3,.1,.5,.1c.1,0,.2,0,.2,0q.1,0,.2,0c.3,0,.5,0,.9,0c3.1,.7,8.2,3.8,7.5,7.1c-.2,1.1,-1.5,1.6,-3.1,1.6H209c0,0,-.1,0,-.1,0Z"/></clipPath>
<style type="text/css"><![CDATA[
.g0_66{
fill: #FEFCF4;
}
.g1_66{
fill: #CEEDFB;
}
.g2_66{
fill: #27639D;
}
.g3_66{
fill: #231F20;
}
.g4_66{
fill: none;
stroke: #C3E7F1;
stroke-width: 1.527;
}
.g5_66{
fill: #FFF;
}
.g6_66{
fill: none;
stroke: #6381B7;
stroke-width: 0.763;
}
.g7_66{
fill: #F7C2D9;
}
.g8_66{
fill: #FDF4F3;
}
.g9_66{
fill: #EC008C;
}
.ga_66{
fill: #6381B7;
}
.gb_66{
fill: none;
stroke: #6381B7;
stroke-width: 0.381;
stroke-dasharray: 2,1;
}
.gc_66{
fill: none;
stroke: #6381B7;
stroke-width: 0.381;
}
.gd_66{
fill: none;
stroke: #818385;
stroke-width: 0.305;
stroke-dasharray: 3,3;
}
.ge_66{
fill: none;
stroke: #818385;
stroke-width: 0.305;
}
.gf_66{
fill: none;
stroke: #949698;
stroke-width: 0.305;
stroke-dasharray: 3,3;
}
.gg_66{
fill: none;
stroke: #949698;
stroke-width: 0.305;
}
.gh_66{
fill: #6D6F71;
}
.gi_66{
fill: none;
stroke: #949698;
stroke-width: 0.305;
stroke-dasharray: 4,4;
}
.gj_66{
fill: #FCE8B0;
}
.gk_66{
fill: #25408F;
}
.gl_66{
fill: #A8AAAD;
}
.gm_66{
fill: none;
stroke: #949698;
stroke-width: 0.549;
}
.gn_66{
fill: none;
stroke: #BCBEC0;
stroke-width: 2.566;
}
.go_66{
fill: #363637;
}
.gp_66{
fill: #5CC4BE;
}
.gq_66{
fill: #EAD646;
}
.gr_66{
fill: #2E6E51;
}
.gs_66{
fill: none;
stroke: #FFF;
stroke-width: 0.152;
stroke-miterlimit: 1;
}
.gt_66{
fill: #BCBEC0;
}
.gu_66{
fill: #EE314A;
}
.gv_66{
fill: none;
stroke: #FFF;
stroke-width: 1.909;
stroke-miterlimit: 10;
}
.gw_66{
fill: none;
stroke: #000;
stroke-width: 0.381;
stroke-miterlimit: 10;
}
]]></style>
</defs>
<path clip-path="url(#c0_66)" d="M954.5,1344.3H1877V32.1H954.5V1344.3Z" class="g0_66"/>
<path d="M32.1,1344.3H954.5V32.1H32.1V1344.3Z" class="g0_66"/>
<image clip-path="url(#c1_66)" preserveAspectRatio="none" x="125" y="206" width="734" height="181" xlink:href="img/1.png"/>
<path d="M144.6,231.3c0,0,-13,0,-13,13v117c0,0,0,13,13,13H833.1c0,0,13,0,13,-13v-130Z" class="g1_66"/>
<path d="M147.7,294.1l54.1,40.8l54.1,-40.8V230h8.7V211.9H155.8c-6.5,.4,-7.7,3.9,-8.2,8.4Z" class="g2_66"/>
<path d="M274,220.3c-.3,-4.7,-4.2,-8.4,-9,-8.4c-4.8,0,-8.7,3.7,-9,8.4h-.1V230h18.2v-9.7Z" class="g3_66"/>
<path d="M255.9,230.6H846.1" class="g4_66"/>
<path d="M150.4,440.5c0,0,-18.3,0,-18.3,18.3V911.1c0,0,0,18.4,18.3,18.4H827.5c0,0,18.4,0,18.4,-18.4V440.5Z" class="g5_66"/>
<path d="M150.4,440.5c0,0,-18.3,0,-18.3,18.3V911.1c0,0,0,18.4,18.3,18.4H827.5c0,0,18.4,0,18.4,-18.4V440.5H150.4Z" class="g6_66"/>
<image clip-path="url(#c2_66)" preserveAspectRatio="none" x="608" y="559" width="206" height="231" xlink:href="img/2.png"/>
<path d="M618.1,563.5l-4.4,215.8L803,783.2l4.8,-215.8Z" class="g7_66"/>
<image clip-path="url(#c3_66)" preserveAspectRatio="none" x="607" y="557" width="210" height="235" xlink:href="img/3.png"/>
<path d="M612,571.1l9.6,214.3L759,782.1l52.7,-12L800.4,562.2Z" class="g8_66"/>
<path d="M811.8,770.2l-52.9,12.1l36.9,-29Z" class="g9_66"/>
<path d="M504.8,1177.4c0,0,-4.3,0,-4.3,4.4v10.8c0,0,0,4.3,4.3,4.3h30.3c0,0,4.4,0,4.4,-4.3v-10.8c0,0,0,-4.4,-4.4,-4.4Z" class="ga_66"/>
<path d="M491.6,1168.6v37.5m1.4,1H845.1m1,-1.3v-37.6m-1.4,-1H492.6" class="gb_66"/>
<path d="M491.6,1206.5v.6h.6m353.3,0h.6v-.6m0,-38.7v-.6h-.6m-353.3,0h-.6v.6" class="gc_66"/>
<path d="M452.8,752.2c27.6,-.5,50,-6.5,54.4,-14.2m-.9,-6.9c-6,-7.2,-28.2,-12.7,-54.9,-13.1m-7.4,.1c-27.6,.5,-49.9,6.5,-54.4,14.2m.9,6.9c6,7.2,28.2,12.7,55,13.1" class="gd_66"/>
<path d="M507.8,736.6c.1,-.5,.2,-1,.2,-1.4c0,-.5,-.1,-1,-.2,-1.5M449.9,718c-.5,0,-1,0,-1.5,0c-.5,0,-1,0,-1.5,0M389,733.7c-.1,.5,-.2,1,-.2,1.5c0,.4,.1,.9,.2,1.4m57.9,15.7c.5,0,1,0,1.5,0c.5,0,1,0,1.5,0" class="ge_66"/>
<image clip-path="url(#c4_66)" preserveAspectRatio="none" x="68" y="713" width="259" height="223" xlink:href="img/4.png"/>
<path d="M90.5,717.5L73.2,905.2l230.4,23.5L320.9,741Z" class="g7_66"/>
<image clip-path="url(#c5_66)" preserveAspectRatio="none" x="72" y="719" width="250" height="209" xlink:href="img/5.png"/>
<path d="M85.5,724.2L77.3,914.1l166.6,7.6L308.7,912l7.9,-177.3Z" class="g8_66"/>
<path d="M308.6,912.1l-64.3,9.5l47.8,-25.8Z" class="g9_66"/>
<path d="M458.8,716.4C443.8,712.5,391,700.5,317.4,704.3m-4.3,-3.5c0,-1.1,.4,-2.3,1.6,-3.4m6.2,-2.6c1.3,0,2.6,.5,3.5,1.8m-1.5,6.1c-3.5,2.7,-12.1,6.1,-32.7,7.7m-7.4,.4c-10.1,.8,-36,4.5,-58.9,21.2" class="gf_66"/>
<path d="M463.1,717.6c0,0,-.5,-.2,-1.4,-.4M315.9,704.3c-.5,.1,-1,.1,-1.5,.1c0,0,-.3,-.4,-.7,-1.1m2,-6.7c.4,-.3,.7,-.5,1.2,-.7c0,0,.5,-.3,1.2,-.6m7,2.6c.1,.4,.2,.8,.3,1.3c0,0,.1,.6,-.4,1.4m-36.3,9.9c-.5,0,-1,0,-1.5,.1c0,0,-.5,0,-1.4,0m-63.1,22.2c-.4,.3,-.8,.6,-1.2,.9" class="gg_66"/>
<path d="M224.3,726.8l5,7.3l-11.9,2.7Z" class="gh_66"/>
<path d="M145.1,976.6c0,0,-13,0,-13,13v155.1c0,0,0,13,13,13H832.9c0,0,13,0,13,-13V989.6c0,0,0,-13,-13,-13Z" class="g5_66"/>
<path d="M145.1,976.6c0,0,-13,0,-13,13v155.1c0,0,0,13,13,13H832.9c0,0,13,0,13,-13V989.6c0,0,0,-13,-13,-13H145.1Z" class="g6_66"/>
<path d="M423.2,630.6c12.9,-6.8,29.2,-9.2,36.1,-9.9m7.8,-.1c11.4,.2,41.1,.1,51.8,-6.7" class="gi_66"/>
<path d="M521,608.1c-.6,-2.7,-2.3,-5.1,-6.9,-2.1m-2.6,5.8c.2,4.7,3.7,10.3,22.6,1.2" class="gf_66"/>
<path d="M540.4,609c9.1,-6.2,33.6,-21.2,61.8,-22.1" class="gi_66"/>
<path d="M419,633c.4,-.3,.9,-.6,1.4,-.8m40.5,-11.7c1.1,0,1.6,-.1,1.6,-.1c0,0,.6,0,1.5,.1M520.2,613c.4,-.3,.7,-.7,1.1,-1.1c0,0,0,-.5,0,-1.3M513,606.8c-.3,.2,-.7,.5,-1,.8c0,0,-.2,.6,-.3,1.4m23.7,3.4c.4,-.2,.8,-.4,1.2,-.6c0,0,.5,-.4,1.3,-1m65.8,-23.9c.6,-.1,1.1,-.1,1.6,-.1" class="gg_66"/>
<path d="M607.1,582.5l-1.4,8.7l11.8,-2.6Z" class="gh_66"/>
<path d="M411.5,661.5c5.2,-1.6,9.3,-6,10.3,-11.4m-.3,-7.3c-1.6,-5.3,-6,-9.3,-11.4,-10.4m-7.3,.4c-5.3,1.6,-9.3,6,-10.4,11.4m.4,7.3c1.6,5.3,5.9,9.3,11.4,10.4" class="gd_66"/>
<path d="M422.1,648.6c0,-.5,0,-.9,0,-1.4c0,-.5,0,-1,0,-1.5M408.6,632.2c-.5,0,-1,0,-1.5,0c-.5,0,-1,0,-1.4,0m-13.5,13.5c-.1,.5,-.1,1,-.1,1.5c0,.5,0,.9,.1,1.4m13.5,13.5c.4,0,.9,.1,1.4,.1c.5,0,1,-.1,1.5,-.1" class="ge_66"/>
<path d="M209.2,473c0,0,-13,0,-13,13v47.6c0,0,0,13,13,13h602c0,0,13,0,13,-13V486c0,0,0,-13,-13,-13Z" class="gj_66"/>
<image clip-path="url(#c6_66)" preserveAspectRatio="none" x="152" y="469" width="75" height="77" xlink:href="img/6.png"/>
<path d="M204,539.3c0,0,-26.8,11.3,-51.1,-12.8c0,0,15.2,25.3,49.3,24c0,0,24.8,.3,20.3,-10.2c0,0,1.2,-4.4,-18.5,-1Z" class="gj_66"/>
<path d="M209.2,1022.2c0,0,-13,0,-13,13v21.7c0,0,0,13,13,13h602c0,0,13,0,13,-13v-21.7c0,0,0,-13,-13,-13Z" class="gj_66"/>
<image clip-path="url(#c7_66)" preserveAspectRatio="none" x="152" y="992" width="75" height="77" xlink:href="img/7.png"/>
<path d="M204,1062.5c0,0,-26.8,11.3,-51.1,-12.7c0,0,15.2,25.3,49.3,23.9c0,0,24.8,.4,20.3,-10.1c0,0,1.2,-4.5,-18.5,-1.1Z" class="gj_66"/>
<path d="M131.7,414.2v39l11.7,10.3V419.2Z" class="gk_66"/>
<path d="M131.7,414.2v39H829.5c0,0,16.8,0,16.8,-16.8V431c0,0,0,-16.8,-16.8,-16.8Z" class="ga_66"/>
<path d="M781,447.8c8.2,0,14.8,-6.5,14.8,-14.5c0,-8,-6.6,-14.5,-14.8,-14.5c-8.3,0,-14.9,6.5,-14.9,14.5c0,8,6.6,14.5,14.9,14.5Z" class="gl_66"/>
<path d="M781,447.8c8.2,0,14.8,-6.5,14.8,-14.5c0,-8,-6.6,-14.5,-14.8,-14.5c-8.3,0,-14.9,6.5,-14.9,14.5c0,8,6.6,14.5,14.9,14.5Z" class="gm_66"/>
<path d="M781,438.7c3,0,5.4,-2.4,5.4,-5.4c0,-3,-2.4,-5.3,-5.4,-5.3c-3.1,0,-5.5,2.3,-5.5,5.3c0,3,2.4,5.4,5.5,5.4Z" class="g5_66"/>
<path d="M781,438.7c3,0,5.4,-2.4,5.4,-5.4c0,-3,-2.4,-5.3,-5.4,-5.3c-3.1,0,-5.5,2.3,-5.5,5.3c0,3,2.4,5.4,5.5,5.4Z" class="gn_66"/>
<g clip-path="url(#c8_66)" opacity="0.3">
<path d="M766.4,432.5c0,0,-.1,-4.8,3.6,-8.6l7.8,6.7c0,0,-1,.9,-1.1,2.7Z" class="g5_66"/>
</g>
<path d="M785.6,433.2c0,0,-3.5,0,-3.5,3.5v8.7c0,0,0,3.4,3.5,3.4H829c0,0,3.5,0,3.5,-3.4v-8.7c0,0,0,-3.5,-3.5,-3.5Z" class="g3_66"/>
<path d="M169.5,424.3c0,-8.4,-6.7,-15.1,-15,-15.1c-8.4,0,-15.1,6.7,-15.1,15.1c0,8.3,6.8,15,15.1,15c.8,0,1.6,-.1,2.4,-.2l4.5,5.2v-6.7c4.8,-2.5,8.1,-7.5,8.1,-13.3Z" class="g5_66"/>
<path d="M161.8,445.6l-5.1,-6c-.7,.1,-1.5,.2,-2.2,.2c-8.6,0,-15.6,-7,-15.6,-15.5c0,-8.6,7,-15.5,15.6,-15.5c8.5,0,15.5,6.9,15.5,15.5c0,5.7,-3.1,10.9,-8.2,13.6Zm-4.7,-7l3.8,4.5v-5.7l.3,-.2c4.8,-2.5,7.9,-7.5,7.9,-12.9c0,-8.1,-6.6,-14.6,-14.6,-14.6c-8.1,0,-14.6,6.5,-14.6,14.6c0,8,6.5,14.6,14.6,14.6c.7,0,1.5,-.1,2.3,-.2Z" class="go_66"/>
<path d="M147.4,423.8c.8,0,1.5,.7,1.5,1.5c0,.8,-.7,1.4,-1.5,1.4c-.7,0,-1.4,-.6,-1.4,-1.4c0,-.8,.7,-1.5,1.4,-1.5Z" class="gp_66"/>
<path d="M147.4,427.2c-1,0,-1.8,-.9,-1.8,-1.9c0,-1.1,.8,-1.9,1.8,-1.9c1.1,0,1.9,.8,1.9,1.9c0,1,-.8,1.9,-1.9,1.9m0,-2.9c-.5,0,-.9,.4,-.9,1c0,.5,.4,1,.9,1c.6,0,1,-.5,1,-1c0,-.6,-.4,-1,-1,-1Z" class="go_66"/>
<path d="M154.5,423.8c.8,0,1.4,.7,1.4,1.5c0,.8,-.6,1.4,-1.4,1.4c-.8,0,-1.5,-.6,-1.5,-1.4c0,-.8,.7,-1.5,1.5,-1.5Z" class="gp_66"/>
<path d="M154.5,427.2c-1.1,0,-1.9,-.9,-1.9,-1.9c0,-1.1,.8,-1.9,1.9,-1.9c1,0,1.9,.8,1.9,1.9c0,1,-.9,1.9,-1.9,1.9m0,-2.9c-.6,0,-1,.4,-1,1c0,.5,.4,1,1,1c.5,0,.9,-.5,.9,-1c0,-.6,-.4,-1,-.9,-1Z" class="go_66"/>
<path d="M161.5,423.8c.8,0,1.4,.7,1.4,1.5c0,.8,-.6,1.4,-1.4,1.4c-.8,0,-1.5,-.6,-1.5,-1.4c0,-.8,.7,-1.5,1.5,-1.5Z" class="gp_66"/>
<path d="M161.5,427.2c-1.1,0,-1.9,-.9,-1.9,-1.9c0,-1.1,.8,-1.9,1.9,-1.9c1,0,1.9,.8,1.9,1.9c0,1,-.9,1.9,-1.9,1.9m0,-2.9c-.6,0,-1,.4,-1,1c0,.5,.4,1,1,1c.5,0,1,-.5,1,-1c0,-.6,-.5,-1,-1,-1Z" class="go_66"/>
<path d="M163.4,438.5c0,-9.7,7.9,-17.6,17.6,-17.6c9.7,0,17.6,7.9,17.6,17.6c0,9.7,-7.9,17.6,-17.6,17.6c-.9,0,-1.9,-.1,-2.8,-.2l-5.3,6.1v-7.8c-5.6,-3,-9.5,-8.9,-9.5,-15.7Z" class="gq_66"/>
<path d="M172.9,462.5c0,0,-.1,-.1,-.1,-.1c-.2,0,-.3,-.2,-.3,-.4v-7.6c-5.9,-3.1,-9.6,-9.2,-9.6,-15.9c0,-10,8.2,-18.1,18.1,-18.1c10,0,18.1,8.1,18.1,18.1c0,10,-8.1,18.1,-18.1,18.1c-.8,0,-1.7,-.1,-2.6,-.2l-5.1,5.9c-.1,.1,-.2,.2,-.4,.2M181,421.4c-9.4,0,-17.1,7.6,-17.1,17.1c0,6.5,3.5,12.3,9.2,15.2c.2,.1,.3,.3,.3,.5v6.6l4.4,-5.2c.1,-.1,.3,-.2,.5,-.2c.9,.2,1.8,.3,2.7,.3c9.5,0,17.2,-7.7,17.2,-17.2c0,-9.5,-7.7,-17.1,-17.2,-17.1Z" class="go_66"/>
<path d="M189.2,438c.9,0,1.7,.8,1.7,1.7c0,.9,-.8,1.7,-1.7,1.7c-.9,0,-1.7,-.8,-1.7,-1.7c0,-.9,.8,-1.7,1.7,-1.7Z" class="g5_66"/>
<path d="M189.2,441.8c-1.2,0,-2.1,-.9,-2.1,-2.1c0,-1.2,.9,-2.1,2.1,-2.1c1.2,0,2.1,.9,2.1,2.1c0,1.2,-.9,2.1,-2.1,2.1m0,-3.3c-.7,0,-1.2,.5,-1.2,1.2c0,.6,.5,1.2,1.2,1.2c.7,0,1.2,-.6,1.2,-1.2c0,-.7,-.5,-1.2,-1.2,-1.2Z" class="go_66"/>
<path d="M181,438c.9,0,1.7,.8,1.7,1.7c0,.9,-.8,1.7,-1.7,1.7c-.9,0,-1.7,-.8,-1.7,-1.7c0,-.9,.8,-1.7,1.7,-1.7Z" class="g5_66"/>
<path d="M181,441.8c-1.2,0,-2.1,-.9,-2.1,-2.1c0,-1.2,.9,-2.1,2.1,-2.1c1.2,0,2.1,.9,2.1,2.1c0,1.2,-.9,2.1,-2.1,2.1m0,-3.3c-.7,0,-1.2,.5,-1.2,1.2c0,.6,.5,1.2,1.2,1.2c.7,0,1.2,-.6,1.2,-1.2c0,-.7,-.5,-1.2,-1.2,-1.2Z" class="go_66"/>
<path d="M172.8,438c.9,0,1.7,.8,1.7,1.7c0,.9,-.8,1.7,-1.7,1.7c-.9,0,-1.7,-.8,-1.7,-1.7c0,-.9,.8,-1.7,1.7,-1.7Z" class="g5_66"/>
<path d="M172.8,441.8c-1.2,0,-2.1,-.9,-2.1,-2.1c0,-1.2,.9,-2.1,2.1,-2.1c1.2,0,2.1,.9,2.1,2.1c0,1.2,-.9,2.1,-2.1,2.1m0,-3.3c-.7,0,-1.2,.5,-1.2,1.2c0,.6,.5,1.2,1.2,1.2c.7,0,1.2,-.6,1.2,-1.2c0,-.7,-.5,-1.2,-1.2,-1.2Z" class="go_66"/>
<image clip-path="url(#c9_66)" x="700" y="577" width="6" height="9" xlink:href="shade/1.png"/>
<image clip-path="url(#ca_66)" x="700" y="551" width="24" height="28" xlink:href="shade/2.png"/>
<image clip-path="url(#cb_66)" x="699" y="553" width="24" height="33" xlink:href="shade/3.png"/>
<image clip-path="url(#cc_66)" x="705" y="549" width="20" height="10" xlink:href="shade/4.png"/>
<image clip-path="url(#cd_66)" x="191" y="732" width="5" height="10" xlink:href="shade/5.png"/>
<image clip-path="url(#ce_66)" x="190" y="706" width="24" height="28" xlink:href="shade/6.png"/>
<image clip-path="url(#cf_66)" x="190" y="708" width="23" height="34" xlink:href="shade/7.png"/>
<image clip-path="url(#cg_66)" x="195" y="704" width="20" height="10" xlink:href="shade/8.png"/>
<path d="M32.1,179.3H967.5V32.1H32.1V179.3Z" class="gr_66"/>
<path d="M262.3,134H247.1l1.2,1.2h11.8v8.2L258.5,142c.2,-.6,.3,-1.3,.3,-1.9c0,-.8,-.2,-1.6,-.6,-2.2c-.3,-.5,-.6,-.9,-1,-1.2c-.5,-.3,-.9,-.6,-1.4,-.7c-.3,-.1,-.6,-.2,-.9,-.2c-.7,0,-1.3,.2,-2,.7c-.3,.2,-.5,.5,-.7,.8c-.1,.3,-.2,.6,-.2,.9c0,.4,0,.7,.2,.9c.3,.5,.7,.7,1.2,.8c.6,.1,1.1,0,1.5,-.3c.2,-.2,.4,-.4,.6,-.6c.1,-.3,.2,-.5,.2,-.8c0,-.3,-.1,-.6,-.4,-1c.3,-.1,.5,-.1,.7,0c.2,0,.5,.1,.8,.3c.1,.2,.3,.4,.5,.7c.2,.3,.3,.6,.4,.9c.1,.3,.1,.5,.1,.7c0,.6,-.2,1.1,-.5,1.7c-.4,.8,-1.4,1.3,-2.8,1.3c-.5,0,-1.1,-.2,-1.6,-.5c-.6,-.3,-1.1,-.8,-1.5,-1.4c-.5,-.5,-.9,-1.2,-1.2,-2c-.4,-.8,-.7,-1.7,-.9,-2.7l-.7,-.3c.1,1,.3,2,.6,2.9c.2,.9,.5,1.7,.9,2.3c.3,.5,.7,1,1,1.5c.4,.4,.8,.8,1.2,1.1c.4,.3,.8,.6,1.2,.7c.5,.2,.9,.3,1.3,.3c.7,0,1.3,-.2,1.9,-.4c.5,-.3,1,-.7,1.3,-1.2c1.4,.9,2.4,2.4,2.9,4.5v-.1l.4,.3V135.2h2.2L262.3,134Zm5.5,1.2L266.7,134h-1.1c-.4,-.4,-.6,-1,-.7,-1.9l-.5,-.3c0,.2,0,.5,0,.9c.1,.3,.1,.7,.1,1.2c.1,.5,.1,.9,.1,1.3c0,.3,0,.6,0,.9c-.2,-.8,-.5,-1.3,-.9,-1.6c-.4,-.3,-1,-.5,-1.7,-.5h-1.4l1.2,1.2c.3,0,.7,.1,1,.2c.3,.1,.6,.3,.8,.5c.3,.2,.5,.4,.6,.7c.2,.3,.2,.7,.2,1v8.9l1.2,1.2V135.2h2.2ZM278.2,134h-12l1.3,1.2c.4,.6,.8,1,1.1,1.2c.2,.2,.4,.3,.7,.4c.3,.2,.7,.3,1.1,.4c.8,.3,1.4,.5,1.7,.8c.4,.4,.6,1.1,.6,2.2c-.2,-.2,-.5,-.3,-.9,-.3c-.7,0,-1.3,.2,-1.7,.5c-.5,.4,-.8,1,-.8,1.6c0,.6,.2,1.1,.6,1.5c.4,.4,.9,.5,1.5,.5c.3,0,.6,0,1,-.2c.4,-.1,.7,-.5,1.1,-.9c1.6,.5,2.7,2,3.3,4.4l.5,.5V135.2h2.1L278.2,134Zm-2.1,9.8c-.2,-.4,-.5,-.8,-.9,-1.2c-.3,-.4,-.7,-.8,-1.2,-1.2c0,-.1,0,-.2,0,-.3v-.3c0,-1.1,-.3,-2.1,-1.1,-3.1c-.5,-.7,-1.3,-1.5,-2.6,-2.5h5.8v8.6Zm7.9,-8.6L282.9,134h-1.1c-.4,-.4,-.6,-1,-.8,-1.9l-.4,-.3c0,.2,0,.5,0,.9c.1,.3,.1,.7,.1,1.2c0,.5,.1,.9,.1,1.3c0,.3,0,.6,0,.9c-.2,-.8,-.6,-1.3,-1,-1.6c-.4,-.3,-.9,-.5,-1.6,-.5h-1.4l1.2,1.2c.3,0,.7,.1,1,.2c.3,.1,.6,.3,.8,.5c.3,.2,.5,.4,.6,.7c.2,.3,.2,.7,.2,1v8.9l1.2,1.2V135.2H284Zm11.2,0L294,134H282.2l1.2,1.2h8.1v.9c-2.5,.8,-4.9,2.1,-7.3,3.7l1.6,2.3h-.1c1.7,.1,3.1,.7,4.1,1.6c.3,.3,.6,.6,1,1c.3,.4,.5,.8,.7,1c.1,.3,.3,.7,.5,1.3l.7,.8V135.2h2.5Zm-3.7,9.4c-1,-1.8,-2.6,-3.2,-4.8,-4.1c.9,-.6,1.7,-1.1,2.5,-1.5c.8,-.4,1.6,-.7,2.3,-1v6.6Zm-4.7,1.7c.3,.3,.6,.4,.9,.4c.4,0,.7,-.1,.9,-.4c.2,-.2,.4,-.5,.4,-.8c0,-.4,-.2,-.7,-.4,-.9c-.2,-.3,-.5,-.4,-.9,-.4c-.3,0,-.6,.1,-.9,.4c-.2,.2,-.3,.5,-.3,.9c0,.3,.1,.6,.3,.8ZM314,135.2L312.8,134H301.1l1.2,1.2h8.5v6.6h-.1c-1.3,-2.6,-2.8,-4,-4.4,-4c-.8,0,-1.5,.3,-2.1,.9c-.6,.5,-.9,1.2,-.9,2c0,1.5,.8,2.2,2.3,2.2c.5,0,.9,-.2,1.2,-.5c.3,-.4,.5,-.8,.5,-1.3c0,-.3,-.3,-.8,-.8,-1.5c0,-.1,.2,-.1,.3,-.1c1.3,0,2.4,.8,3.4,2.5c.6,1.4,.9,2.9,.9,4.2l-.1,1.3l1,.6V135.2h2Zm4.6,0L317.5,134h-1.1c-.4,-.4,-.6,-1,-.7,-1.9l-.5,-.3c0,.2,0,.5,0,.9c.1,.3,.1,.7,.1,1.2c.1,.5,.1,.9,.1,1.3c0,.3,0,.6,0,.9c-.2,-.8,-.5,-1.3,-.9,-1.6c-.4,-.3,-1,-.5,-1.7,-.5h-1.4l1.2,1.2c.3,0,.7,.1,1,.2c.3,.1,.6,.3,.8,.5c.3,.2,.5,.4,.6,.7c.2,.3,.2,.7,.2,1v8.9l1.2,1.2V135.2h2.2ZM328.8,134h-12l1.2,1.2c.5,.6,.9,1,1.2,1.2c.2,.2,.4,.3,.7,.4c.3,.2,.7,.3,1.1,.4c.8,.3,1.4,.5,1.7,.8c.4,.4,.6,1.1,.6,2.2c-.2,-.2,-.5,-.3,-.9,-.3c-.7,0,-1.3,.2,-1.7,.5c-.5,.4,-.8,1,-.8,1.6c0,.6,.2,1.1,.6,1.5c.4,.4,.9,.5,1.4,.5c.4,0,.7,0,1.1,-.2c.3,-.1,.7,-.5,1.1,-.9c1.5,.5,2.7,2,3.3,4.4l.5,.5V135.2H330L328.8,134Zm-2.1,9.8c-.3,-.4,-.6,-.8,-.9,-1.2c-.4,-.4,-.8,-.8,-1.2,-1.2c0,-.1,0,-.2,0,-.3v-.3c0,-1.1,-.4,-2.1,-1.1,-3.1c-.5,-.7,-1.3,-1.5,-2.6,-2.5h5.8v8.6ZM348.4,134h-.8c-.1,-.1,-.2,-.2,-.3,-.3c-.1,-.2,-.1,-.3,-.2,-.4l-.1,-.8l-.6,-.7v13.1c-.2,-.4,-.4,-.7,-.8,-1c-.3,-.4,-.6,-.7,-1,-1c-.2,-.2,-.5,-.4,-.9,-.7c-.4,-.2,-.9,-.5,-1.5,-.8c2,-1.2,3,-2.6,3,-4.1c0,-.9,-.3,-1.6,-1,-2.3c-.6,-.7,-1.3,-1,-2.2,-1c-.9,0,-1.9,.3,-2.7,.8c-1,.7,-1.4,1.5,-1.4,2.4c0,.5,.1,.9,.4,1.2c.3,.3,.7,.5,1.2,.5c.1,0,.3,0,.5,-.1c.2,-.1,.4,-.2,.5,-.3c.1,-.1,.3,-.2,.3,-.4c.1,-.1,.2,-.3,.2,-.5c0,-.3,-.2,-.7,-.7,-1.2c.2,-.2,.5,-.5,1,-.8c.4,-.2,.8,-.4,1.1,-.4c.5,0,.8,.2,1.2,.5c.3,.3,.4,.6,.4,1.1c0,.4,-.1,.8,-.4,1.2c-.4,.4,-.8,.8,-1.4,1.2c-.6,.3,-1.1,.6,-1.6,.7c-.6,.2,-1,.3,-1.3,.3c-.2,0,-.5,0,-.9,0l2,2.5c.7,0,1.5,.1,2.3,.4c.7,.2,1.4,.6,2,1.1c.2,.2,.6,.6,1,1.2c.5,.6,1.1,1.4,1.9,2.4V135.2h2.1L348.4,134Zm2,17.6c-.1,-.2,-.2,-.3,-.3,-.5c-.1,-.2,-.3,-.4,-.5,-.7c-.3,-.3,-.6,-.6,-1,-1c-.3,-.3,-.6,-.6,-1,-.9c.1,-.3,.1,-.7,.1,-1.2c-.1,-.4,-.2,-.8,-.3,-1.2l-1,-.6c.1,.5,.1,1,.2,1.4c0,.4,-.1,.8,-.1,1c-.8,-.5,-1.3,-.7,-1.8,-.7c-.3,0,-.6,.1,-.8,.2c-.3,.1,-.5,.2,-.7,.4c-.2,.1,-.4,.3,-.5,.6c-.1,.2,-.2,.5,-.2,.8c0,.5,.2,1,.7,1.3c.5,.3,1,.5,1.6,.5c1,-.1,1.8,-.6,2.5,-1.4c.2,.1,.5,.3,.7,.5c.3,.2,.6,.5,.9,.7c.3,.3,.5,.6,.8,.9c.2,.3,.5,.6,.7,.8v-.9Zm-4.8,-3c.1,0,.3,.1,.4,.3c-.1,.2,-.3,.4,-.6,.7c-.4,.1,-.7,.2,-1.1,.2c-.4,-.1,-.6,-.3,-.6,-.7c0,-.5,.5,-.7,1.3,-.7c.2,0,.4,.1,.6,.2Zm14.9,-13.4L359.3,134H348.2c.6,1,1.7,1.7,3.3,2.2c.7,.2,1.2,.4,1.6,.6c.5,.2,.7,.4,.9,.6c-.5,.4,-1.1,.8,-1.7,1.4c-.7,.5,-1.3,1.1,-1.9,1.7l1.6,2.1c1.4,.1,2.6,.5,3.5,1.2c.6,.5,1.2,1.2,1.8,2.3c.5,1,.9,1.6,1.3,1.8V135.2h1.9Zm-3.1,9.5c-1.1,-1.7,-2.6,-2.9,-4.5,-3.6c.5,-.5,1,-1.1,1.4,-1.6c.5,-.5,1,-.9,1.5,-1.4c-.6,-.7,-1.2,-1.3,-1.7,-1.8c-.5,-.5,-.9,-.9,-1.3,-1.1h4.6v9.5Zm-4.6,2c.2,.2,.5,.3,.8,.3c.4,0,.7,-.1,.9,-.3c.2,-.3,.4,-.6,.4,-.9c0,-.3,-.2,-.6,-.4,-.9c-.2,-.2,-.5,-.3,-.9,-.3c-.3,0,-.6,.1,-.8,.3c-.3,.3,-.4,.6,-.4,.9c0,.3,.1,.6,.4,.9Zm12.4,-11.5L364.1,134H363c-.4,-.4,-.6,-1,-.7,-1.9l-.5,-.3c0,.2,0,.5,.1,.9c0,.3,0,.7,0,1.2c.1,.5,.1,.9,.1,1.3c0,.3,0,.6,0,.9c-.2,-.8,-.5,-1.3,-.9,-1.6c-.4,-.3,-1,-.5,-1.7,-.5H358l1.2,1.2c.3,0,.7,.1,1,.2c.3,.1,.6,.3,.8,.5c.3,.2,.5,.4,.6,.7c.2,.3,.3,.7,.3,1v8.9l1.1,1.2V135.2h2.2Zm11.2,0L375.2,134H363.5l1.2,1.2h8.4v6.6c-1.3,-2.6,-2.8,-4,-4.5,-4c-.8,0,-1.5,.3,-2.1,.9c-.6,.5,-.8,1.2,-.8,2c0,1.5,.7,2.2,2.3,2.2c.5,0,.9,-.2,1.2,-.5c.3,-.4,.4,-.8,.4,-1.3c0,-.3,-.3,-.8,-.8,-1.5c.1,-.1,.2,-.1,.4,-.1c1.2,0,2.3,.8,3.3,2.5c.6,1.4,1,2.9,.9,4.2v1.3l.9,.6V135.2h2.1Z" class="gs_66"/>
<g clip-path="url(#c0_66)">
<path d="M1877,177.2H32.1v-5.4H768.7c43.1,0,53,-37.9,115.3,-37.9h993Z" class="gt_66"/>
<path d="M1877,183.7H32.1v-9.8H768.7c43.1,0,53,-33.6,115.3,-33.6h993Z" class="gu_66"/>
</g>
<path d="M32.1,45.1H9.2m958.3,0h22.9M32.1,1331.3H9.2m958.3,0h22.9M45.1,32.1V9.2m0,1335.1v22.9M954.5,32.1V9.2m0,1335.1v22.9" class="gv_66"/>
<path d="M32.1,45.1H9.2m958.3,0h22.9M32.1,1331.3H9.2m958.3,0h22.9M45.1,32.1V9.2m0,1335.1v22.9M954.5,32.1V9.2m0,1335.1v22.9" class="gw_66"/>
<path d="M27.5,32.1H0m972.1,0h27.5M27.5,1344.3H0m972.1,0h27.5M32.1,27.5V0m0,1348.9v27.5M967.5,27.5V0m0,1348.9v27.5" class="gv_66"/>
<path d="M27.5,32.1H0m972.1,0h27.5M27.5,1344.3H0m972.1,0h27.5M32.1,27.5V0m0,1348.9v27.5M967.5,27.5V0m0,1348.9v27.5" class="gw_66"/>
</svg>