<?xml version="1.0" encoding="UTF-8" standalone="no"?>
<!DOCTYPE svg PUBLIC "-//W3C//DTD SVG 1.1//EN"
"http://www.w3.org/Graphics/SVG/1.1/DTD/svg11.dtd">
<svg viewBox="0 0 999 1376" version="1.1" xmlns="http://www.w3.org/2000/svg" xmlns:xlink="http://www.w3.org/1999/xlink">
<defs>
<clipPath id="c0_109"><path d="M153.3,925.7V138.2H867.9V925.7Z"/></clipPath>
<clipPath id="c1_109"><path d="M281.2,380.7V285.8H420.7v94.9Z"/></clipPath>
<clipPath id="c2_109"><path d="M606.1,385.2V281.3h130V385.2Z"/></clipPath>
<clipPath id="c3_109"><path d="M281.2,486.8V391.9H420.7v94.9Z"/></clipPath>
<clipPath id="c4_109"><path d="M601.3,486.8V391.9H740.8v94.9Z"/></clipPath>
<style type="text/css"><![CDATA[
.g0_109{
fill: #FFF;
}
.g1_109{
fill: #B1CFE4;
}
.g2_109{
fill: none;
stroke: #58595B;
stroke-width: 0.381;
stroke-miterlimit: 10;
}
.g3_109{
fill: none;
stroke: #85878A;
stroke-width: 0.381;
stroke-miterlimit: 10;
}
.g4_109{
fill: #25408F;
}
.g5_109{
fill: #6381B7;
}
.g6_109{
fill: #54E1E3;
}
.g7_109{
fill: #FFD645;
}
.g8_109{
fill: #3D3B38;
}
.g9_109{
fill: none;
stroke: #231F20;
stroke-width: 0.756;
stroke-miterlimit: 3;
}
.ga_109{
fill: #FEF9EC;
}
.gb_109{
fill: none;
stroke: #FECD4E;
stroke-width: 1.527;
stroke-linecap: round;
stroke-linejoin: round;
stroke-dasharray: 0,5;
}
.gc_109{
fill: none;
stroke: #FECD4E;
stroke-width: 1.527;
stroke-linecap: round;
stroke-linejoin: round;
}
.gd_109{
fill: #FECD4E;
}
.ge_109{
fill: #FFE3A6;
}
.gf_109{
fill: none;
stroke: #0085B2;
stroke-width: 0.381;
stroke-dasharray: 2,1;
}
.gg_109{
fill: none;
stroke: #0085B2;
stroke-width: 0.381;
}
.gh_109{
fill: #F37B69;
}
.gi_109{
fill: #FFDE2C;
}
.gj_109{
fill: #3D3B39;
}
.gk_109{
fill: none;
stroke: #FFF;
stroke-width: 1.909;
stroke-miterlimit: 10;
}
.gl_109{
fill: none;
stroke: #000;
stroke-width: 0.381;
stroke-miterlimit: 10;
}
]]></style>
</defs>
<path d="M153.3,925.7H867.9V138.2H153.3V925.7Z" class="g0_109"/>
<image clip-path="url(#c0_109)" preserveAspectRatio="none" x="151" y="136" width="719" height="792" xlink:href="img/1.jpg"/>
<path d="M190.7,711.5H450.5v26H190.7v-26Zm259.8,0H710.4v26H450.5v-26Zm259.9,0H831.6v26H710.4v-26Z" class="g1_109"/>
<path d="M190.7,737.5H450.5v23.8H190.7V737.5Zm259.8,0H710.4v23.8H450.5V737.5Zm259.9,0H831.6v23.8H710.4V737.5ZM190.7,761.3H450.5v23.8H190.7V761.3Zm259.8,0H710.4v23.8H450.5V761.3Zm259.9,0H831.6v23.8H710.4V761.3ZM190.7,785.1H450.5v23.8H190.7V785.1Zm259.8,0H710.4v23.8H450.5V785.1Zm259.9,0H831.6v23.8H710.4V785.1ZM190.7,808.9H450.5v25.7H190.7V808.9Zm259.8,0H710.4v25.7H450.5V808.9Zm259.9,0H831.6v25.7H710.4V808.9ZM190.7,834.6H450.5v23.8H190.7V834.6Zm259.8,0H710.4v23.8H450.5V834.6Zm259.9,0H831.6v23.8H710.4V834.6ZM190.7,858.4H450.5v23.9H190.7V858.4Zm259.8,0H710.4v23.9H450.5V858.4Zm259.9,0H831.6v23.9H710.4V858.4ZM190.7,882.3H450.5v23.8H190.7V882.3Zm259.8,0H710.4v23.8H450.5V882.3Zm259.9,0H831.6v23.8H710.4V882.3Z" class="g0_109"/>
<path d="M190.7,711.5H450.5m0,0H710.4M450.5,737.3V711.7m259.9,-.2H831.6M710.4,737.3V711.7M190.7,737.5H450.5m0,0H710.4M450.5,761.1V737.6m259.9,-.1H831.6M710.4,761.1V737.6M190.7,761.3H450.5m0,0H710.4M450.5,784.9V761.5m259.9,-.2H831.6M710.4,784.9V761.5M190.7,785.1H450.5m0,0H710.4M450.5,808.7V785.3m259.9,-.2H831.6M710.4,808.7V785.3M190.7,808.9H450.5m0,0H710.4M450.5,834.4V809.1m259.9,-.2H831.6M710.4,834.4V809.1M190.7,834.6H450.5m0,0H710.4M450.5,858.2V834.8m259.9,-.2H831.6M710.4,858.2V834.8M190.7,858.4H450.5m0,0H710.4M450.5,882.1V858.6m259.9,-.2H831.6M710.4,882.1V858.6M190.7,882.3H450.5m0,0H710.4M450.5,905.9V882.4m259.9,-.1H831.6M710.4,905.9V882.4M190.7,906.1H450.5m0,0H710.4m0,0H831.6" class="g2_109"/>
<path d="M190.9,253.1H511v26H190.9v-26Zm320.1,0H831.1v26H511v-26Z" class="g1_109"/>
<path d="M190.9,279.1H511V387.4H190.9V279.1Zm320.1,0H831.1V387.4H511V279.1ZM190.9,387.4H511V491.3H190.9V387.4Zm320.1,0H831.1V491.3H511V387.4Z" class="g0_109"/>
<path d="M190.9,253.1H511m0,0H831.1M511,278.9V253.3M190.9,279.1H511m0,0H831.1" class="g3_109"/>
<path d="M511,387.2V279.3M190.9,387.4H511m0,0H831.1M511,491.1V387.6M190.9,491.3H511m0,0H831.1" class="g2_109"/>
<image clip-path="url(#c1_109)" preserveAspectRatio="none" x="281" y="284" width="140" height="98" xlink:href="img/2.jpg"/>
<image clip-path="url(#c2_109)" preserveAspectRatio="none" x="606" y="281" width="130" height="104" xlink:href="img/3.jpg"/>
<image clip-path="url(#c3_109)" preserveAspectRatio="none" x="281" y="390" width="141" height="99" xlink:href="img/4.jpg"/>
<image clip-path="url(#c4_109)" preserveAspectRatio="none" x="601" y="390" width="140" height="98" xlink:href="img/5.jpg"/>
<path d="M153.3,126.3v22.2L165,158.7V136.5Z" class="g4_109"/>
<path d="M153.3,109.5v39H851.1c0,0,16.8,0,16.8,-16.8v-5.4c0,0,0,-16.8,-16.8,-16.8Z" class="g5_109"/>
<path d="M187.9,117.2l-3.2,3.2c.6,3.1,2.1,6.1,4.3,8.5l4.2,-4.2c-2.3,-2.3,-4.1,-4.9,-5.3,-7.5Z" class="g6_109"/>
<path d="M216,121c.3,1.3,.5,2.5,.5,3.6c1.1,-2.2,1.6,-4.7,1.6,-7.2c0,-.6,0,-1.1,-.1,-1.7l-2.8,2.9c.3,.8,.6,1.6,.8,2.4Z" class="g6_109"/>
<path d="M186.6,113.7c-.3,-1.2,-.5,-2.4,-.5,-3.6c-1.1,2.3,-1.6,4.7,-1.6,7.3c0,.5,0,1.1,0,1.6l2.9,-2.9c-.3,-.8,-.6,-1.6,-.8,-2.4Z" class="g6_109"/>
<path d="M208.6,109.3l4.2,-4.2c-2.4,-2.3,-5.3,-3.7,-8.5,-4.3l-3.2,3.2c2.6,1.2,5.2,3,7.5,5.3Z" class="g6_109"/>
<path d="M214.7,117.5l3.1,-3.1c-.5,-3.2,-2,-6.1,-4.2,-8.5l-4.2,4.2c2.2,2.3,4.1,4.8,5.3,7.4Z" class="g6_109"/>
<path d="M214.9,121.3c-.2,-.6,-.4,-1.2,-.6,-1.8l-5.1,5l4.4,4.4c.5,-.6,1,-1.2,1.5,-1.9c.4,-1.6,.4,-3.5,-.2,-5.7Z" class="g6_109"/>
<path d="M194,102.2c1.9,0,4,.5,6,1.3l2.9,-2.9c-.5,0,-1.1,-.1,-1.6,-.1c-2.6,0,-5,.6,-7.3,1.7Z" class="g6_109"/>
<path d="M208.5,132.6c-1.8,0,-3.9,-.5,-5.9,-1.4l-2.9,2.9c.5,.1,1,.1,1.6,.1c2.5,0,5,-.6,7.2,-1.6Z" class="g6_109"/>
<path d="M187.7,113.4c.1,.7,.3,1.3,.6,1.9l5,-5.1L189,105.9c-.5,.6,-1.1,1.2,-1.5,1.8c-.5,1.6,-.4,3.6,.2,5.7Z" class="g6_109"/>
<path d="M201.5,130.8c-2.6,-1.3,-5.2,-3.1,-7.5,-5.3l-4.2,4.2c2.4,2.2,5.3,3.7,8.5,4.2Z" class="g6_109"/>
<path d="M194.7,124.7c2.4,2.3,5,4.1,7.6,5.2l5.4,-5.4l-6.4,-6.4Z" class="g6_109"/>
<path d="M189.8,105.1l4.3,4.3l5.1,-5c-1.8,-.7,-3.6,-1.1,-5.2,-1.1c-.9,0,-1.6,.1,-2.4,.3c-.6,.4,-1.2,.9,-1.8,1.5Z" class="g6_109"/>
<path d="M202.1,117.4l6.4,6.4l5.4,-5.4c-1.2,-2.6,-3,-5.2,-5.3,-7.6Z" class="g6_109"/>
<path d="M188.7,116.4c1.2,2.6,3,5.2,5.3,7.5l6.5,-6.5L194.1,111Z" class="g6_109"/>
<path d="M194.9,110.2l6.4,6.4l6.5,-6.5c-2.3,-2.3,-4.9,-4.1,-7.5,-5.3Z" class="g6_109"/>
<path d="M212.8,129.7l-4.3,-4.4l-5.1,5.1c1.8,.7,3.6,1.1,5.2,1.1c.8,0,1.6,-.1,2.3,-.3c.7,-.5,1.3,-1,1.9,-1.5Z" class="g6_109"/>
<path d="M206.4,144.2c.2,0,.4,0,.6,.1V141c0,-.5,.3,-1,.8,-1.1c3.8,-1.1,7.3,-3.1,10.1,-5.9l.3,-.3l-.6,-.6l-.3,.3c-4.3,4.2,-10,6.6,-16,6.6c-6.1,0,-11.7,-2.4,-16,-6.6c-4.3,-4.3,-6.6,-10,-6.6,-16c0,-6.1,2.3,-11.7,6.6,-16l.3,-.3l-.6,-.6l-.3,.3c-4.4,4.4,-6.9,10.3,-6.9,16.6c0,6.2,2.5,12.1,6.9,16.6c4.4,4.4,10.3,6.8,16.6,6.8c1.1,0,2.2,-.1,3.2,-.2c.4,0,.7,0,.9,.3c.3,.2,.4,.5,.4,.8v2.6c.2,-.1,.4,-.1,.6,-.1Z" class="g0_109"/>
<path d="M215.2,152.4c-1.4,-3.6,-4.9,-6,-8.8,-6c-3.9,0,-7.4,2.4,-8.8,6Z" class="g7_109"/>
<path d="M221.5,152.4h-4c-1.2,-3.9,-4.4,-6.9,-8.3,-7.8v-2.8c3.8,-1.3,7.4,-3.4,10.2,-6.3l1.1,-1.1c.2,-.2,.3,-.5,.3,-.7c0,-.3,-.1,-.6,-.3,-.8l-2.1,-2.2c-.5,-.4,-1.2,-.4,-1.6,0l-.3,.3l-1,-1c3.1,-3.5,4.8,-7.9,4.8,-12.6c0,-5.1,-2,-9.9,-5.6,-13.5c-3.6,-3.6,-8.3,-5.6,-13.4,-5.6c-4.7,0,-9.2,1.8,-12.7,4.9l-1,-1l.3,-.3c.3,-.2,.4,-.5,.4,-.8c0,-.3,-.1,-.6,-.4,-.8l-2.1,-2.2c-.4,-.4,-1.2,-.4,-1.6,0l-1.1,1.1c-4.8,4.9,-7.5,11.3,-7.5,18.2c0,6.8,2.7,13.3,7.5,18.1c4.9,4.9,11.3,7.5,18.2,7.5c.8,0,1.5,0,2.3,-.1v1.7c-3.9,.9,-7.1,3.9,-8.3,7.8h-4c-.6,0,-1.1,.5,-1.1,1.1c0,.6,.5,1.1,1.1,1.1h30.2c.6,0,1.1,-.5,1.1,-1.1c0,-.6,-.5,-1.1,-1.1,-1.1m-15.1,-6c3.9,0,7.4,2.4,8.8,6H197.6c1.4,-3.6,4.9,-6,8.8,-6m-1,-5.5c-.2,-.3,-.5,-.3,-.9,-.3c-1,.1,-2.1,.2,-3.2,.2c-6.3,0,-12.2,-2.4,-16.6,-6.8c-4.4,-4.5,-6.9,-10.4,-6.9,-16.6c0,-6.3,2.5,-12.2,6.9,-16.6l.3,-.3l.6,.6l-.3,.3c-4.3,4.3,-6.6,9.9,-6.6,16c0,6,2.3,11.7,6.6,16c4.3,4.2,9.9,6.6,16,6.6c6,0,11.7,-2.4,16,-6.6l.3,-.3l.6,.6l-.3,.3c-2.8,2.8,-6.3,4.8,-10.1,5.9c-.5,.1,-.8,.6,-.8,1.1v3.3c-.2,-.1,-.4,-.1,-.6,-.1c-.2,0,-.4,0,-.6,.1v-2.6c0,-.3,-.1,-.6,-.4,-.8M194,103.3c1.6,0,3.4,.3,5.2,1.1l-5.1,5l-4.3,-4.3c.6,-.6,1.2,-1.1,1.8,-1.5c.8,-.2,1.5,-.3,2.4,-.3m18.8,1.8l-4.2,4.2c-2.3,-2.3,-4.9,-4.1,-7.5,-5.3l3.2,-3.2c3.2,.6,6.1,2,8.5,4.3m5,9.3l-3.1,3.1c-1.2,-2.6,-3.1,-5.1,-5.3,-7.4l4.2,-4.2c2.2,2.4,3.7,5.3,4.2,8.5m.3,3c0,2.5,-.5,5,-1.6,7.2c0,-1.1,-.2,-2.3,-.5,-3.6c-.2,-.8,-.5,-1.6,-.8,-2.4l2.8,-2.9c.1,.6,.1,1.1,.1,1.7m-33.4,3l3.2,-3.2c1.2,2.6,3,5.2,5.3,7.5l-4.2,4.2c-2.2,-2.4,-3.7,-5.4,-4.3,-8.5m-.2,-3c0,-2.6,.5,-5,1.6,-7.3c0,1.2,.2,2.4,.5,3.6c.2,.8,.5,1.6,.8,2.4l-2.9,2.9c0,-.5,0,-1.1,0,-1.6M189,105.9l4.3,4.3l-5,5.1c-.3,-.6,-.5,-1.2,-.6,-1.9c-.6,-2.1,-.7,-4.1,-.2,-5.7c.4,-.6,1,-1.2,1.5,-1.8m19.6,4.9c2.3,2.4,4.1,5,5.3,7.6l-5.4,5.4l-6.4,-6.4Zm-.9,13.7l-5.4,5.4c-2.6,-1.1,-5.2,-2.9,-7.6,-5.2l6.6,-6.6ZM194,123.9c-2.3,-2.3,-4.1,-4.9,-5.3,-7.5l5.4,-5.4l6.4,6.4Zm0,1.6c2.3,2.2,4.9,4,7.5,5.3l-3.2,3.1c-3.2,-.5,-6.1,-2,-8.5,-4.2Zm8.6,5.7c2,.9,4.1,1.4,5.9,1.4c-2.2,1,-4.7,1.6,-7.2,1.6c-.6,0,-1.1,0,-1.6,-.1Zm6,.3c-1.6,0,-3.4,-.4,-5.2,-1.1l5.1,-5.1l4.3,4.4c-.6,.5,-1.2,1,-1.9,1.5c-.7,.2,-1.5,.3,-2.3,.3m5,-2.6l-4.4,-4.4l5.1,-5c.2,.6,.4,1.2,.6,1.8c.6,2.2,.6,4.1,.2,5.7c-.5,.7,-1,1.3,-1.5,1.9m-5.8,-18.8l-6.5,6.5l-6.4,-6.4l5.4,-5.4c2.6,1.2,5.2,3,7.5,5.3M200,103.5c-2,-.8,-4.1,-1.3,-6,-1.3c2.3,-1.1,4.7,-1.7,7.3,-1.7c.5,0,1.1,.1,1.6,.1Zm-17.7,13.9c0,5.1,1.9,9.8,5.5,13.4c3.6,3.6,8.4,5.6,13.5,5.6c4.7,0,9.2,-1.7,12.6,-4.8l1,1c-3.7,3.3,-8.5,5.2,-13.6,5.2c-5.5,0,-10.6,-2.2,-14.4,-6c-3.9,-3.9,-6,-9,-6,-14.4c0,-5.1,1.8,-9.9,5.2,-13.7l1,1c-3.1,3.5,-4.8,8,-4.8,12.7Z" class="g8_109"/>
<path d="M453.7,201.1h-2.9v1.7c0,.6,0,1.2,-.1,1.7c-.1,.6,-.2,1.2,-.4,1.8h3.4v1.8H437.3v-1.8h3.4c-.2,-.7,-.4,-1.3,-.4,-1.8c-.1,-.5,-.1,-1.1,-.1,-1.7v-1.7h-2.9v-1.8h16.4v1.8Zm2.6,-4.7H435v-1.8h9.2v-3.4h-3.8c-.9,0,-1.6,-.2,-2,-.6c-.4,-.3,-.6,-1,-.6,-1.8v-5.5h2.3v5.4c0,.2,0,.4,.1,.5c.1,.2,.3,.2,.6,.2h5.5c1.2,0,2.4,0,3.5,-.1c1.1,-.2,2.2,-.4,3.3,-.7l.4,1.7c-1.2,.4,-2.3,.6,-3.5,.7c-1.2,.2,-2.4,.2,-3.5,.2v3.4h9.8v1.8Zm-13.9,4.7v2.5c0,.3,0,.5,.1,.8c0,.3,0,.6,.1,.9c.1,.3,.2,.6,.3,1h5.2c.1,-.4,.2,-.7,.3,-1.1c.1,-.3,.1,-.6,.1,-.9c.1,-.3,.1,-.5,.1,-.8v-2.4h-6.2Zm35.5,-7.2c0,1.1,-.1,2,-.5,2.7c-.4,.7,-.8,1.3,-1.1,1.7h.1c.5,0,.9,.2,1.1,.5c.3,.3,.4,.8,.3,1.5l-.4,7.3c-.1,.2,-.1,.3,-.3,.4c-.1,0,-.3,.1,-.5,.1H465c-.9,0,-1.5,-.2,-1.9,-.6c-.4,-.4,-.5,-1,-.5,-1.8v-7.4h11.6c.5,-.5,.8,-1.2,1.1,-1.9c.3,-.7,.4,-1.5,.4,-2.5V183.4h2.2v10.5Zm-7.5,-2.2c-.3,.7,-.8,1.3,-1.3,1.8c-.6,.6,-1.2,1,-2,1.2c-.8,.3,-1.6,.4,-2.5,.4c-.8,0,-1.6,-.1,-2.4,-.3c-.7,-.3,-1.4,-.7,-2,-1.1c-.6,-.5,-1,-1.2,-1.4,-1.9c-.3,-.7,-.5,-1.6,-.5,-2.6c0,-.9,.2,-1.7,.5,-2.4c.3,-.7,.8,-1.4,1.3,-1.9c.6,-.5,1.3,-.9,2,-1.1c.8,-.3,1.6,-.5,2.5,-.5c.9,0,1.7,.2,2.5,.5c.8,.2,1.4,.6,2,1.1c.5,.6,1,1.2,1.3,1.9c.3,.7,.5,1.5,.5,2.4c0,.9,-.2,1.8,-.5,2.5Zm5.1,14.6v-6.2H464.8v5.3c0,.3,0,.6,.2,.7c.1,.1,.3,.2,.7,.2h9.8Zm-7.9,-19.9c-.7,-.9,-1.7,-1.3,-3,-1.3c-1.3,0,-2.3,.4,-3,1.3c-.7,.8,-1,1.8,-1,2.8c0,1.1,.3,2.1,1,2.9c.7,.8,1.7,1.2,3,1.2c1.3,0,2.3,-.4,3,-1.2c.7,-.8,1.1,-1.8,1.1,-2.9c0,-1,-.4,-2,-1.1,-2.8Zm19.6,21.7c-.6,0,-1.1,-.2,-1.3,-.4c-.3,-.3,-.4,-.7,-.4,-1.2v-4.8h13v-2.8h-13v-1.8h11.2c.7,-.6,1.2,-1.3,1.4,-2.1c.3,-.8,.4,-1.6,.4,-2.4v-9.2h2.3v5.4h4.3v1.8h-4.3v2c0,.4,-.1,.8,-.1,1.2c-.1,.4,-.3,.8,-.4,1.3c-.2,.4,-.4,.8,-.7,1.1c-.3,.4,-.6,.7,-1,.9h.6c.6,0,1.1,.2,1.3,.5c.2,.2,.3,.7,.3,1.2l-.4,3.9c0,.3,-.1,.5,-.3,.6c-.2,.1,-.4,.2,-.7,.2H487.8v2.8h7.7c.8,0,1.7,0,2.6,-.1c.9,-.1,1.9,-.3,2.9,-.7l.4,1.7c-.8,.3,-1.7,.5,-2.7,.7c-1,.1,-2,.2,-3.1,.2h-8.4Zm6.4,-15.3c-.4,.3,-.9,.5,-1.4,.7c-.5,.2,-1.1,.4,-1.6,.5c-.6,.2,-1.1,.3,-1.7,.4c-.6,.1,-1.1,.1,-1.6,.1h-2.6c-1,0,-1.6,-.2,-2.1,-.6c-.5,-.4,-.7,-1,-.7,-1.8v-8.3h11.7v9Zm-9.4,-7.2v6.2c0,.3,0,.5,.2,.7c.1,.1,.3,.2,.6,.2h2.3c.8,0,1.5,-.1,2.2,-.2c.6,-.2,1.2,-.4,1.8,-.7v-6.2h-7.1Zm27,15.2v-7.9h2.3v7.9h2.6c1.4,0,2.6,-.1,3.9,-.3c1.2,-.2,2.4,-.7,3.6,-1.4V183.7h2.2v9.1h4.4v1.8h-4.4v11.6h-2.2V201c-1.1,.6,-2.2,1,-3.4,1.2c-1.1,.3,-2.5,.5,-4,.5h-10v-1.9h5Zm5.7,-3.3c.3,-1.4,.5,-2.9,.7,-4.6c.2,-1.7,.3,-3.5,.3,-5.3c0,-.4,-.1,-.7,-.3,-.8c-.2,-.2,-.4,-.3,-.7,-.3h-9.8v-1.8h10.6c.8,0,1.4,.2,1.8,.7c.4,.5,.6,1.1,.6,2c0,1.7,-.1,3.4,-.3,5.2c-.2,1.9,-.5,3.6,-.8,5.2l-2.1,-.3Zm45,-5.2h-4.2v8h-2.3V183.4h2.3v7.1h4.2v1.8Zm-17,15.5c-.8,0,-1.4,-.2,-1.8,-.6c-.4,-.3,-.6,-.9,-.6,-1.5v-6.4h2.3v5.9c0,.3,0,.5,.2,.6c.1,.1,.3,.2,.6,.2h7.1c1.1,0,2,-.1,2.9,-.2c.8,-.1,1.7,-.3,2.7,-.6l.5,1.7c-1.1,.3,-2.1,.6,-3,.7c-1,.1,-2,.2,-3,.2h-7.9Zm5.6,-13.1c-.8,.4,-1.8,.8,-2.9,1.1c-1.1,.3,-2.2,.5,-3.1,.5h-3.3c-.8,0,-1.4,-.2,-1.8,-.6c-.4,-.4,-.6,-1,-.6,-1.7v-9.9H541v4.2h7.2v-4.2h2.3v10.6Zm-9.5,-1c0,.3,.1,.5,.2,.6c.1,.1,.3,.2,.6,.2h2.6c.6,0,1.3,-.1,1.9,-.2c.7,-.2,1.3,-.4,1.9,-.7v-3.5H541v3.6Zm28.1,14.4c-.7,0,-1.1,-.2,-1.3,-.4c-.3,-.3,-.4,-.7,-.4,-1.2v-4.8h12.9v-2.8H567.4v-1.8h11.1c.7,-.6,1.2,-1.3,1.5,-2.1c.2,-.8,.4,-1.6,.4,-2.4v-9.2h2.2v5.4h4.3v1.8h-4.3v2c0,.4,0,.8,-.1,1.2c-.1,.4,-.2,.8,-.4,1.3c-.2,.4,-.4,.8,-.7,1.1c-.2,.4,-.6,.7,-.9,.9h.5c.7,0,1.1,.2,1.4,.5c.2,.2,.3,.7,.2,1.2l-.3,3.9c-.1,.3,-.2,.5,-.3,.6c-.2,.1,-.4,.2,-.7,.2H569.6v2.8h7.8c.8,0,1.6,0,2.6,-.1c.9,-.1,1.9,-.3,2.8,-.7l.5,1.7c-.8,.3,-1.7,.5,-2.7,.7c-1,.1,-2,.2,-3.1,.2h-8.4Zm6.3,-15.3c-.4,.3,-.9,.5,-1.4,.7c-.5,.2,-1,.4,-1.6,.5c-.5,.2,-1.1,.3,-1.6,.4c-.6,.1,-1.1,.1,-1.6,.1h-2.7c-.9,0,-1.6,-.2,-2,-.6c-.5,-.4,-.7,-1,-.7,-1.8v-8.3h11.6v9ZM566,185.6v6.2c0,.3,.1,.5,.2,.7c.1,.1,.4,.2,.7,.2h2.3c.8,0,1.5,-.1,2.1,-.2c.7,-.2,1.3,-.4,1.9,-.7v-6.2H566Z" class="g9_109"/>
<path d="M154.6,1202.6H867.7v-228H154.6v228Z" class="ga_109"/>
<path d="M154.6,979.1v221.2m4.6,2.3H865.4m2.3,-4.6V976.9m-4.6,-2.3H156.9" class="gb_109"/>
<path d="M154.6,1202.6v0m713.1,0v0m0,-228v0m-713.1,0v0" class="gc_109"/>
<path d="M153.9,977.9V949.2c0,0,0,-8.6,8.6,-8.6H859.8c0,0,8.6,0,8.6,8.6v29.2Z" class="gd_109"/>
<path d="M341.1,1033.4c0,0,-2.2,0,-2.2,2.1v17.4c0,0,0,2.1,2.2,2.1h18.2c0,0,2.1,0,2.1,-2.1v-17.4c0,0,0,-2.1,-2.1,-2.1Z" class="ge_109"/>
<path d="M368.3,1033.4c0,0,-2.2,0,-2.2,2.1v17.4c0,0,0,2.1,2.2,2.1h18.2c0,0,2.2,0,2.2,-2.1v-17.4c0,0,0,-2.1,-2.2,-2.1Z" class="ge_109"/>
<path d="M319.9,1087.9c0,0,-2.2,0,-2.2,2.1v17.3c0,0,0,2.2,2.2,2.2h18.2c0,0,2.1,0,2.1,-2.2V1090c0,0,0,-2.1,-2.1,-2.1Z" class="ge_109"/>
<path d="M341,1142.4c0,0,-2.1,0,-2.1,2.1v17.3c0,0,0,2.2,2.1,2.2h18.2c0,0,2.2,0,2.2,-2.2v-17.3c0,0,0,-2.1,-2.2,-2.1Z" class="ge_109"/>
<path d="M368.3,1142.4c0,0,-2.2,0,-2.2,2.1v17.3c0,0,0,2.2,2.2,2.2h18.2c0,0,2.1,0,2.1,-2.2v-17.3c0,0,0,-2.1,-2.1,-2.1Z" class="ge_109"/>
<path d="M395.5,1142.4c0,0,-2.1,0,-2.1,2.1v17.3c0,0,0,2.2,2.1,2.2h18.2c0,0,2.2,0,2.2,-2.2v-17.3c0,0,0,-2.1,-2.2,-2.1Z" class="ge_109"/>
<path d="M422.8,1142.4c0,0,-2.2,0,-2.2,2.1v17.3c0,0,0,2.2,2.2,2.2H441c0,0,2.1,0,2.1,-2.2v-17.3c0,0,0,-2.1,-2.1,-2.1Z" class="ge_109"/>
<path d="M663.4,1219.2c0,0,-4.3,0,-4.3,4.3v10.8c0,0,0,4.3,4.3,4.3h30.3c0,0,4.3,0,4.3,-4.3v-10.8c0,0,0,-4.3,-4.3,-4.3Z" class="g5_109"/>
<path d="M650.2,1210.3v37.6m1.3,.9H867.3m1,-1.3v-37.6m-1.4,-.9H651.2" class="gf_109"/>
<path d="M650.2,1248.3v.5h.6m216.9,0h.6v-.5m0,-38.8v-.5h-.6m-216.9,0h-.6v.5" class="gg_109"/>
<path d="M204.3,957.3c-.1,0,-.2,0,-.4,0c-.1,0,-.2,0,-.3,0L191.2,952v12.6c.9,.1,1.8,.3,2.7,.5c3.2,.8,6.6,1.5,10,1.5c3.5,0,6.9,-.7,10.1,-1.5c.9,-.2,1.8,-.4,2.7,-.5V952Z" class="gh_109"/>
<path d="M183,946.4l20.9,9l21,-9l-21,-9Z" class="gi_109"/>
<path d="M227.6,945.5l-23.3,-10c-.2,-.1,-.5,-.1,-.7,0l-23.4,10c-.3,.2,-.5,.5,-.5,.9c0,.4,.2,.7,.5,.9l9.1,3.9v14.1c0,.5,.4,.9,.8,1c1.1,.2,2.2,.4,3.4,.7c3.3,.7,6.8,1.5,10.4,1.5c3.7,0,7.2,-.8,10.5,-1.5c1.2,-.3,2.3,-.5,3.4,-.7c.4,-.1,.8,-.5,.8,-1V951.2l3.2,-1.4v17c-1.6,.4,-2.8,1.8,-2.8,3.6v5.2c0,2,1.7,3.7,3.8,3.7c2,0,3.7,-1.7,3.7,-3.7v-5.2c0,-1.8,-1.2,-3.2,-2.8,-3.6V949l3.9,-1.7c.4,-.2,.6,-.5,.6,-.9c0,-.4,-.2,-.7,-.6,-.9m-3,24.9v3.3h-3.7v-3.3c0,-1,.8,-1.9,1.9,-1.9c1,0,1.8,.9,1.8,1.9m-1.8,7c-1.1,0,-1.9,-.8,-1.9,-1.8v-1h3.6q.1,0,.1,0v1c0,1,-.8,1.8,-1.8,1.8m-18.9,-22l-20.9,-9l20.9,-9l21,9Zm10.1,9.7c-3.2,.8,-6.6,1.5,-10.1,1.5c-3.4,0,-6.8,-.7,-10,-1.5c-.9,-.2,-1.8,-.4,-2.7,-.5V952l12.4,5.3c.1,0,.2,0,.3,0c.2,0,.3,0,.4,0L216.7,952v12.6c-.9,.1,-1.8,.3,-2.7,.5Z" class="gj_109"/>
<path d="M224.5,974.6h-3.6v1c0,1,.8,1.8,1.9,1.8c1,0,1.8,-.8,1.8,-1.8v-1h-.1Z" class="g0_109"/>
<path d="M222.8,968.5c-1.1,0,-1.9,.9,-1.9,1.9v3.3h3.6q.1,0,.1,0v-3.3c0,-1,-.8,-1.9,-1.8,-1.9Z" class="g0_109"/>
<path d="M32.1,45.1H9.2m958.3,0h22.9M32.1,1331.3H9.2m958.3,0h22.9M45.1,32.1V9.2m0,1335.1v22.9M954.5,32.1V9.2m0,1335.1v22.9" class="gk_109"/>
<path d="M32.1,45.1H9.2m958.3,0h22.9M32.1,1331.3H9.2m958.3,0h22.9M45.1,32.1V9.2m0,1335.1v22.9M954.5,32.1V9.2m0,1335.1v22.9" class="gl_109"/>
<path d="M27.5,32.1H0m972.1,0h27.5M27.5,1344.3H0m972.1,0h27.5M32.1,27.5V0m0,1348.9v27.5M967.5,27.5V0m0,1348.9v27.5" class="gk_109"/>
<path d="M27.5,32.1H0m972.1,0h27.5M27.5,1344.3H0m972.1,0h27.5M32.1,27.5V0m0,1348.9v27.5M967.5,27.5V0m0,1348.9v27.5" class="gl_109"/>
</svg>