<?xml version="1.0" encoding="UTF-8" standalone="no"?>
<!DOCTYPE svg PUBLIC "-//W3C//DTD SVG 1.1//EN"
"http://www.w3.org/Graphics/SVG/1.1/DTD/svg11.dtd">
<svg viewBox="0 0 999 1376" version="1.1" xmlns="http://www.w3.org/2000/svg" xmlns:xlink="http://www.w3.org/1999/xlink">
<defs>
<clipPath id="c0_162"><path d="M32.1,1344.3V32.1H967.5V1344.3Z"/></clipPath>
<clipPath id="c1_162"><path d="M125.6,386.7V205.8H858.8V386.7Z"/></clipPath>
<clipPath id="c2_162"><path d="M659.3,898.4V759.2H861.1V898.4Z"/></clipPath>
<clipPath id="c3_162"><path d="M655.9,897.9V753.8H862.7V897.9Z"/></clipPath>
<clipPath id="c4_162"><path d="M676.4,685.1V534.4H878.2V685.1Z"/></clipPath>
<clipPath id="c5_162"><path d="M669.2,689.6V528.4H879.9V689.6Z"/></clipPath>
<clipPath id="c6_162"><path d="M176.6,526.8l-6.5,-2.2L153.7,510.7V453.6h72v73.2Z"/></clipPath>
<clipPath id="c7_162"><path d="M176.6,1132.3l-6.5,-2.1l-16.4,-13.9v-57.1h72v73.1Z"/></clipPath>
<clipPath id="c8_162"><path d="M764.8,417.6V405.1h14.5v12.5Z"/></clipPath>
<clipPath id="c9_162"><path d="M771.5,549.3c-.2,-.1,3.6,-8.2,3.6,-8.2l.8,.5c0,0,-4.1,7.7,-4.4,7.7Z"/></clipPath>
<clipPath id="ca_162"><path d="M779,541.6c0,0,-6.8,-1.1,-7.5,-5.2c-.7,-3.6,1.5,-3.9,2,-3.9c.1,0,.2,0,.2,0L782,519.8l-1.5,-3.1c0,0,-.6,-1.1,.2,-2c0,-.1,.1,-.1,.3,-.1c2.1,0,12.9,5.5,12.9,5.5l.1,.2c-.4,.5,-.8,1.1,-1.4,1.6c-.7,.5,-5.1,1.1,-5.1,1.1L779,541.6Z"/></clipPath>
<clipPath id="cb_162"><path d="M778.6,541.2c.2,-.4,.2,-1.8,0,-2.2v-1.4c-1.5,-.5,-2.8,-1.2,-3.6,-2.5c-1.1,.6,-2.1,1.2,-3.1,1.9c1.5,2.1,3.8,3.5,6.7,4.2Zm0,-3.9c2.2,-4.5,4,-9.5,6.2,-14c-.9,-.4,-1.9,-1.3,-2.6,-1.4c-2.3,4.3,-4.6,8.6,-7.1,12.8c.7,1.3,2.1,2,3.5,2.6Zm-7.2,12.1c1,-2.9,2.4,-5.5,3.5,-8.3c-2,-1.5,-4,-3.1,-4.4,-6.1v-1.5c-.1,-2.7,1.9,-3.4,4.5,-3.4c.1,0,.2,0,.2,0c2,-3.4,4.3,-6.4,6.2,-9.7c-.6,-.9,-1.2,-2.4,-.9,-3.7c.5,1.3,1.6,1.9,2.4,2.9c-.1,.6,-.3,1.2,-.4,1.8c.6,.7,1.4,1.2,2.4,1.4c.5,-.4,.5,-1.3,1.2,-1.5c.9,.3,1.8,.7,3.1,.7c.1,.1,.5,.2,.8,.2c.4,0,.7,-.1,.8,-.2c.1,0,.2,.1,.3,.1c.3,0,.5,-.1,.6,-.2c.2,0,.4,-.1,.6,-.1c.1,0,.2,0,.3,.1c-1.3,.7,-2.2,1.8,-4.2,1.8c-.1,0,-.2,0,-.3,0c-.9,3.7,-1.9,7.3,-2.7,11.1c.6,1.1,1.5,1.7,1.3,3.2c-.5,2.7,-3.9,4.4,-7.2,4.4c-1.3,0,-2.5,-.3,-3.6,-.8c-1,2.1,-2.1,4.1,-3.3,6.1c0,-.4,.3,-.4,.3,-.8c.9,-1.8,1.9,-3.6,2.6,-5.7c-1.1,1.8,-1.8,3.7,-2.8,5.6c-.2,.4,-.4,.8,-.6,1.2c-.3,.4,-.3,1.2,-.7,1.4Z"/></clipPath>
<clipPath id="cc_162"><path d="M789.1,521.6c-4.8,0,-13.1,-7.3,-5.6,-8.8h1.3c.2,.1,.3,.1,.5,.1q.1,0,.2,0c.3,0,.7,0,1.1,.1c3,.6,8.2,3.8,7.5,7c-.3,1.2,-1.6,1.6,-3.1,1.6h-1.8c0,0,-.1,0,-.1,0Z"/></clipPath>
<clipPath id="cd_162"><path d="M752.6,769.1c-.3,-.1,3.5,-8.3,3.5,-8.3l.8,.6c0,0,-4,7.7,-4.3,7.7Z"/></clipPath>
<clipPath id="ce_162"><path d="M760.1,761.3c0,0,-6.9,-1.1,-7.6,-5.2c-.6,-3.6,1.5,-3.8,2.1,-3.8q.1,0,.1,0L763,739.5l-1.4,-3c0,0,-.6,-1.2,.1,-2.1c.1,-.1,.2,-.1,.3,-.1c2.1,0,13,5.5,13,5.5v.2c-.3,.5,-.7,1.1,-1.4,1.6c-.6,.5,-5,1.2,-5,1.2l-8.5,18.5Z"/></clipPath>
<clipPath id="cf_162"><path d="M759.7,761c.2,-.5,.2,-1.8,0,-2.3v-1.4c-1.5,-.5,-2.9,-1.2,-3.7,-2.5c-1.1,.6,-2.1,1.2,-3.1,1.9c1.6,2.1,3.8,3.6,6.8,4.3Zm0,-3.9c2.2,-4.6,4,-9.5,6.1,-14.1c-.8,-.4,-1.8,-1.3,-2.6,-1.4c-2.3,4.3,-4.6,8.7,-7,12.8c.7,1.4,2.1,2,3.5,2.7Zm-7.3,12c1,-2.8,2.4,-5.4,3.5,-8.2c-2,-1.6,-3.9,-3.2,-4.4,-6.2v-1.5c0,-2.7,1.9,-3.4,4.6,-3.4q.1,0,.2,0c1.9,-3.3,4.2,-6.3,6.1,-9.7c-.5,-.8,-1.1,-2.3,-.8,-3.6c.5,1.2,1.6,1.9,2.4,2.9c-.2,.6,-.3,1.1,-.4,1.7c.6,.7,1.3,1.2,2.4,1.4c.4,-.4,.5,-1.2,1.1,-1.5c.9,.4,1.8,.7,3.1,.8c.2,.1,.5,.1,.9,.1c.3,0,.6,0,.8,-.1c.1,0,.2,0,.3,0c.2,0,.4,-.1,.6,-.1c.2,-.1,.4,-.2,.5,-.2c.1,0,.2,0,.3,.1c-1.3,.7,-2.2,1.8,-4.1,1.8c-.2,0,-.3,0,-.4,0c-.9,3.7,-1.8,7.3,-2.6,11.2c.5,1,1.5,1.7,1.2,3.1c-.4,2.7,-3.8,4.4,-7.2,4.4c-1.2,0,-2.5,-.2,-3.6,-.7c-1,2,-2,4.1,-3.2,6c-.1,-.4,.2,-.4,.2,-.8c1,-1.8,1.9,-3.6,2.6,-5.6c-1,1.7,-1.8,3.7,-2.7,5.5c-.2,.4,-.4,.8,-.7,1.3c-.3,.4,-.2,1.1,-.7,1.3Z"/></clipPath>
<clipPath id="cg_162"><path d="M770.1,741.4c-4.8,0,-13.1,-7.3,-5.5,-8.8h1.2c.2,0,.4,0,.6,0q.1,0,.1,0q.1,0,.2,0c.3,0,.6,0,.9,.1c3.1,.6,8.2,3.8,7.5,7c-.2,1.2,-1.5,1.6,-3.1,1.7h-1.9Z"/></clipPath>
<style type="text/css"><![CDATA[
.g0_162{
fill: #FEFCF4;
}
.g1_162{
fill: #CEEDFB;
}
.g2_162{
fill: #27639D;
}
.g3_162{
fill: #231F20;
}
.g4_162{
fill: none;
stroke: #204A78;
stroke-width: 1.527;
}
.g5_162{
fill: #FFF;
}
.g6_162{
fill: none;
stroke: #6381B7;
stroke-width: 0.763;
}
.g7_162{
fill: #6381B7;
}
.g8_162{
fill: none;
stroke: #6381B7;
stroke-width: 0.381;
stroke-dasharray: 2,1;
}
.g9_162{
fill: none;
stroke: #6381B7;
stroke-width: 0.381;
}
.ga_162{
fill: #F7C2D9;
}
.gb_162{
fill: #FDF4F3;
}
.gc_162{
fill: #EC008C;
}
.gd_162{
fill: none;
stroke: #818385;
stroke-width: 0.305;
stroke-dasharray: 4,4;
}
.ge_162{
fill: none;
stroke: #818385;
stroke-width: 0.305;
}
.gf_162{
fill: none;
stroke: #949698;
stroke-width: 0.305;
stroke-dasharray: 3,3;
}
.gg_162{
fill: none;
stroke: #949698;
stroke-width: 0.305;
stroke-dasharray: 4,4;
}
.gh_162{
fill: none;
stroke: #949698;
stroke-width: 0.305;
}
.gi_162{
fill: #6D6F71;
}
.gj_162{
fill: none;
stroke: #818385;
stroke-width: 0.305;
stroke-dasharray: 3,3;
}
.gk_162{
fill: #FCE8B0;
}
.gl_162{
fill: #2E6E51;
}
.gm_162{
fill: none;
stroke: #FFF;
stroke-width: 0.152;
stroke-miterlimit: 1;
}
.gn_162{
fill: #BCBEC0;
}
.go_162{
fill: #EE314A;
}
.gp_162{
fill: #25408F;
}
.gq_162{
fill: #A8AAAD;
}
.gr_162{
fill: none;
stroke: #949698;
stroke-width: 0.549;
}
.gs_162{
fill: none;
stroke: #BCBEC0;
stroke-width: 2.566;
}
.gt_162{
fill: #363637;
}
.gu_162{
fill: #5CC4BE;
}
.gv_162{
fill: #F0D73F;
}
.gw_162{
fill: none;
stroke: #FFF;
stroke-width: 1.909;
stroke-miterlimit: 10;
}
.gx_162{
fill: none;
stroke: #000;
stroke-width: 0.381;
stroke-miterlimit: 10;
}
]]></style>
</defs>
<path clip-path="url(#c0_162)" d="M954.5,1344.3H1877V32.1H954.5V1344.3Z" class="g0_162"/>
<path d="M32.1,1344.3H954.5V32.1H32.1V1344.3Z" class="g0_162"/>
<image clip-path="url(#c1_162)" preserveAspectRatio="none" x="125" y="206" width="734" height="181" xlink:href="img/1.png"/>
<path d="M144.7,231.3c0,0,-13,0,-13,13v117c0,0,0,13,13,13H833.3c0,0,13,0,13,-13v-130Z" class="g1_162"/>
<path d="M147.8,294.1l54.1,40.8L256,294.1V230h8.8V211.9H156c-6.5,.4,-7.8,3.9,-8.2,8.4h-.1Z" class="g2_162"/>
<path d="M274.2,220.3c-.4,-4.7,-4.3,-8.4,-9.1,-8.4c-4.8,0,-8.7,3.7,-9,8.4H256V230h18.2v-9.7Z" class="g3_162"/>
<path d="M256,230.6H846.3" class="g4_162"/>
<path d="M150.4,423.2c0,0,-18.3,0,-18.3,18.4v570c0,0,0,18.3,18.3,18.3H827.5c0,0,18.4,0,18.4,-18.3V423.2Z" class="g5_162"/>
<path d="M150.4,423.2c0,0,-18.3,0,-18.3,18.4v570c0,0,0,18.3,18.3,18.3H827.5c0,0,18.4,0,18.4,-18.3V423.2H150.4Z" class="g6_162"/>
<path d="M145.1,1046c0,0,-13,0,-13,13v133.5c0,0,0,12.9,13,12.9H832.9c0,0,13,0,13,-12.9V1059c0,0,0,-13,-13,-13Z" class="g5_162"/>
<path d="M145.1,1046c0,0,-13,0,-13,13v133.5c0,0,0,12.9,13,12.9H832.9c0,0,13,0,13,-12.9V1059c0,0,0,-13,-13,-13H145.1Z" class="g6_162"/>
<path d="M534.8,1221.9c0,0,-4.3,0,-4.3,4.4v10.8c0,0,0,4.3,4.3,4.3h30.3c0,0,4.4,0,4.4,-4.3v-10.8c0,0,0,-4.4,-4.4,-4.4Z" class="g7_162"/>
<path d="M521.6,1213.1v37.6m1.4,.9H845.1m1,-1.3v-37.6m-1.4,-.9H522.6" class="g8_162"/>
<path d="M521.6,1251v.6h.6m323.3,0h.6v-.6m0,-38.7v-.5h-.6m-323.3,0h-.6v.5" class="g9_162"/>
<image clip-path="url(#c2_162)" preserveAspectRatio="none" x="659" y="760" width="202" height="139" xlink:href="img/2.png"/>
<path d="M665.1,764.5l-.4,124.8L854.3,892l.4,-124.8Z" class="ga_162"/>
<image clip-path="url(#c3_162)" preserveAspectRatio="none" x="655" y="754" width="207" height="144" xlink:href="img/3.png"/>
<path d="M660.7,769.6l7.8,122.3L831,884.8L856.8,871L849.7,758.6Z" class="gb_162"/>
<path d="M857.3,870.5l-25.9,14.6l15,-22.3Z" class="gc_162"/>
<path d="M401,752.9c34.9,-.5,63.3,-6.5,68.9,-14.4m-1,-6.8c-7.6,-7.3,-35.6,-12.9,-69.4,-13.2m-7.7,0c-34.9,.5,-63.3,6.6,-68.8,14.4m1,6.8c7.5,7.4,35.5,12.9,69.4,13.2" class="gd_162"/>
<path d="M470.6,737.2c.2,-.5,.2,-1,.2,-1.5c0,-.5,0,-1,-.2,-1.5M397.9,718.5c-.5,0,-1,0,-1.5,0c-.5,0,-1,0,-1.5,0m-72.7,15.7c-.1,.5,-.2,1,-.2,1.5c0,.5,.1,1,.2,1.5m72.7,15.7c.5,0,1,0,1.5,0c.5,0,1,0,1.5,0" class="ge_162"/>
<path d="M452.1,722.3c18.7,-.8,42.2,5.7,50.1,8.1" class="gf_162"/>
<path d="M509,733.6c11.1,6.1,42.8,22,62.7,17.3" class="gg_162"/>
<path d="M575.8,745.8c.2,-2.6,-1,-5.3,-7.2,-4.6" class="gf_162"/>
<path d="M563.5,746c-1.1,4.4,1.6,10.7,25.4,10.8m7.9,-.8c12.3,-1.7,46.5,-4.9,79.4,7.5" class="gg_162"/>
<path d="M447.7,722.6c.5,0,1,-.1,1.5,-.1m54.4,8.3c.9,.3,1.4,.5,1.4,.5c0,0,.5,.3,1.3,.8m66.9,18.4c.5,-.2,1,-.4,1.5,-.5c0,0,.2,-.6,.5,-1.4m-8,-7.1c-.5,0,-.9,.1,-1.4,.3c0,0,-.5,.4,-1,1.3m25.7,13.7c.6,0,1.1,-.1,1.7,-.1c0,0,.5,-.1,1.5,-.2m84,7.6c.5,.1,1,.3,1.5,.5" class="gh_162"/>
<path d="M682.8,761.4l-4.8,7.5l14.4,2.9Z" class="gi_162"/>
<path d="M497.9,569.3c5.2,-1.6,9.2,-5.8,10.3,-11.1m-.3,-7.1c-1.6,-5.1,-6,-9,-11.4,-10m-7.2,.3c-5.2,1.5,-9.2,5.8,-10.3,11.1m.4,7.1c1.6,5.1,5.9,9,11.4,10" class="gj_162"/>
<path d="M508.4,556.8c.1,-.5,.1,-1,.1,-1.4c0,-.5,0,-1,-.1,-1.5m-13.3,-13c-.5,-.1,-1,-.1,-1.5,-.1c-.5,0,-.9,0,-1.4,.1m-13.4,13c0,.5,-.1,1,-.1,1.5c0,.4,.1,.9,.1,1.4m13.4,13c.5,.1,.9,.1,1.4,.1c.5,0,1,0,1.5,-.1" class="ge_162"/>
<image clip-path="url(#c4_162)" preserveAspectRatio="none" x="676" y="535" width="202" height="151" xlink:href="img/4.png"/>
<path d="M681.1,543l4,136l186.7,-3.6l-4,-136.1Z" class="ga_162"/>
<image clip-path="url(#c5_162)" preserveAspectRatio="none" x="669" y="528" width="210" height="162" xlink:href="img/5.png"/>
<path d="M673.9,549.2l13.9,134.2L844.3,669.7L874,647.4L863.6,533.3Z" class="gb_162"/>
<path d="M874.3,647.4l-29.7,22.1L862,638.1Z" class="gc_162"/>
<path d="M503.9,540c15,-3.3,33.6,-1,40.7,.1m7.2,2.4c10.1,4.4,36,14.2,52,6.9" class="gg_162"/>
<path d="M607.2,544.1c.2,-2.7,-.8,-5.5,-6.1,-3.8m-4,4.9c-1,4.5,.8,10.9,21.5,7.1" class="gf_162"/>
<path d="M625.7,550.1c10.4,-3.7,38,-11.6,65.5,-5.1" class="gg_162"/>
<path d="M499.5,541.2c.5,-.2,1,-.3,1.5,-.5m45.1,-.4c1,.2,1.5,.3,1.5,.3c0,0,.5,.3,1.4,.7m56.2,7.4c.4,-.3,.9,-.5,1.3,-.8c0,0,.2,-.5,.4,-1.3m-7,-5.9c-.4,.2,-.8,.4,-1.2,.6c0,0,-.3,.4,-.7,1.2m22,9.5c.4,-.1,.9,-.2,1.4,-.3c0,0,.5,-.2,1.4,-.5m69.9,-5.8c.5,.1,1,.2,1.5,.4" class="gh_162"/>
<path d="M697,542.1l-3.6,8l12.1,.6Z" class="gi_162"/>
<path d="M209.2,455.8c0,0,-13,0,-13,13v47.6c0,0,0,13,13,13h602c0,0,13,0,13,-13V468.8c0,0,0,-13,-13,-13Z" class="gk_162"/>
<image clip-path="url(#c6_162)" preserveAspectRatio="none" x="152" y="452" width="75" height="76" xlink:href="img/6.png"/>
<path d="M204,522c0,0,-26.8,11.3,-51.1,-12.7c0,0,15.2,25.3,49.3,23.9c0,0,24.8,.4,20.3,-10.1c0,0,1.2,-4.4,-18.5,-1.1Z" class="gk_162"/>
<path d="M209.2,1087.3c0,0,-13,0,-13,13V1122c0,0,0,13,13,13h602c0,0,13,0,13,-13v-21.7c0,0,0,-13,-13,-13Z" class="gk_162"/>
<image clip-path="url(#c7_162)" preserveAspectRatio="none" x="152" y="1058" width="75" height="76" xlink:href="img/7.png"/>
<path d="M204,1127.6c0,0,-26.8,11.3,-51.1,-12.8c0,0,15.2,25.4,49.3,24c0,0,24.8,.3,20.3,-10.1c0,0,1.2,-4.5,-18.5,-1.1Z" class="gk_162"/>
<path d="M32.1,179.3H967.5V32.1H32.1V179.3Z" class="gl_162"/>
<path d="M262.3,134H247.1l1.2,1.2h11.8v8.2L258.5,142c.2,-.6,.3,-1.3,.3,-1.9c0,-.8,-.2,-1.6,-.6,-2.2c-.3,-.5,-.6,-.9,-1,-1.2c-.5,-.3,-.9,-.6,-1.4,-.7c-.3,-.1,-.6,-.2,-.9,-.2c-.7,0,-1.3,.2,-2,.7c-.3,.2,-.5,.5,-.7,.8c-.1,.3,-.2,.6,-.2,.9c0,.4,0,.7,.2,.9c.3,.5,.7,.7,1.2,.8c.6,.1,1.1,0,1.5,-.3c.2,-.2,.4,-.4,.6,-.6c.1,-.3,.2,-.5,.2,-.8c0,-.3,-.1,-.6,-.4,-1c.3,-.1,.5,-.1,.7,0c.2,0,.5,.1,.8,.3c.1,.2,.3,.4,.5,.7c.2,.3,.3,.6,.4,.9c.1,.3,.1,.5,.1,.7c0,.6,-.2,1.1,-.5,1.7c-.4,.8,-1.4,1.3,-2.8,1.3c-.5,0,-1.1,-.2,-1.6,-.5c-.6,-.3,-1.1,-.8,-1.5,-1.4c-.5,-.5,-.9,-1.2,-1.2,-2c-.4,-.8,-.7,-1.7,-.9,-2.7l-.7,-.3c.1,1,.3,2,.6,2.9c.2,.9,.5,1.7,.9,2.3c.3,.5,.7,1,1,1.5c.4,.4,.8,.8,1.2,1.1c.4,.3,.8,.6,1.2,.7c.5,.2,.9,.3,1.3,.3c.7,0,1.3,-.2,1.9,-.4c.5,-.3,1,-.7,1.3,-1.2c1.4,.9,2.4,2.4,2.9,4.5v-.1l.4,.3V135.2h2.2L262.3,134Zm5.5,1.2L266.7,134h-1.1c-.4,-.4,-.6,-1,-.7,-1.9l-.5,-.3c0,.2,0,.5,0,.9c.1,.3,.1,.7,.1,1.2c.1,.5,.1,.9,.1,1.3c0,.3,0,.6,0,.9c-.2,-.8,-.5,-1.3,-.9,-1.6c-.4,-.3,-1,-.5,-1.7,-.5h-1.4l1.2,1.2c.3,0,.7,.1,1,.2c.3,.1,.6,.3,.8,.5c.3,.2,.5,.4,.6,.7c.2,.3,.2,.7,.2,1v8.9l1.2,1.2V135.2h2.2Zm12.1,-3.3c-2.3,-2.4,-4.7,-3.6,-7.2,-3.6c-1,0,-2,.4,-3.1,1.2c-1.1,.9,-1.6,1.8,-1.6,2.7c0,.4,.1,.7,.4,1l.9,.8h-3.2l1.2,1.2h1.8v11.3l1.2,1.2V135.2h2.1L271.2,134h-1.3l-.5,-1.1c.1,-.9,.6,-1.6,1.7,-2.3c.9,-.7,1.8,-1,2.7,-1c.6,0,1.2,.1,1.8,.2c.6,.2,1.1,.4,1.7,.7c.6,.4,1.1,.7,1.6,1c.5,.4,.9,.7,1.3,1l-.3,-.6Zm2.8,2.1H270.6l1.3,1.2c.4,.6,.8,1,1.1,1.2c.2,.2,.5,.3,.8,.4c.3,.2,.6,.3,1.1,.4c.8,.3,1.3,.5,1.6,.8c.5,.4,.7,1.1,.7,2.2c-.3,-.2,-.6,-.3,-1,-.3c-.7,0,-1.3,.2,-1.7,.5c-.5,.4,-.8,1,-.8,1.6c0,.6,.2,1.1,.6,1.5c.4,.4,.9,.5,1.5,.5c.3,0,.6,0,1,-.2c.4,-.1,.7,-.5,1.1,-.9c1.6,.5,2.7,2,3.3,4.4l.5,.5V135.2h2.2L282.7,134Zm-2.2,9.8c-.2,-.4,-.5,-.8,-.9,-1.2c-.3,-.4,-.7,-.8,-1.2,-1.2c0,-.1,.1,-.2,.1,-.3v-.3c0,-1.1,-.4,-2.1,-1.2,-3.1c-.4,-.7,-1.3,-1.5,-2.5,-2.5h5.8v8.6h-.1ZM303,131.9c-2.3,-2.4,-4.7,-3.6,-7.2,-3.6c-1,0,-2,.4,-3.1,1.2c-1.1,.9,-1.6,1.8,-1.6,2.7c0,.4,.1,.7,.4,1l.9,.8h-3.2l1.2,1.2h1.8v11.3l1.2,1.2V135.2h2.1L294.3,134H293l-.5,-1.1c.1,-.9,.6,-1.6,1.7,-2.3c.9,-.7,1.8,-1,2.7,-1c.6,0,1.2,.1,1.8,.2c.6,.2,1.1,.4,1.7,.7c.6,.4,1.1,.7,1.6,1c.5,.4,.9,.7,1.3,1l-.3,-.6Zm3.7,3.3L305.6,134H293.7l1.2,1.2h8.2v.9c-2.5,.8,-5,2.1,-7.4,3.7l1.6,2.3c1.7,.1,3.1,.7,4.1,1.6c.3,.3,.6,.6,.9,1c.3,.4,.6,.8,.8,1.2c.1,.3,.3,.5,.3,.7c.1,.1,.1,.2,.2,.4l.7,.8V135.2h2.4Zm-3.6,9.4c-1.1,-1.8,-2.7,-3.2,-4.8,-4.1c.8,-.6,1.7,-1.1,2.5,-1.5c.7,-.4,1.5,-.7,2.3,-1v6.6Zm15.3,-12.7c-2.3,-2.4,-4.7,-3.6,-7.3,-3.6c-.9,0,-2,.4,-3,1.2c-1.1,.9,-1.6,1.8,-1.6,2.7c0,.4,.1,.7,.4,1l.9,.8h-3.2l1.1,1.2h1.9v11.3l1.2,1.2V135.2h2.1L309.7,134h-1.3l-.5,-1.1c0,-.9,.6,-1.6,1.6,-2.3c1,-.7,1.9,-1,2.8,-1c.6,0,1.2,.1,1.8,.2c.6,.2,1.1,.4,1.7,.7c.6,.4,1.1,.7,1.6,1c.4,.4,.9,.7,1.2,1l-.2,-.6Zm3.7,3.3L320.9,134H309.1l1.2,1.2h8.2v.9c-2.5,.8,-5,2.1,-7.4,3.7l1.6,2.3c1.7,.1,3,.7,4.1,1.6c.2,.3,.6,.6,.9,1c.3,.4,.6,.8,.7,1.2c.2,.3,.3,.5,.4,.7c.1,.1,.1,.2,.2,.4l.6,.8V135.2h2.5Zm-3.6,9.4c-1.1,-1.8,-2.7,-3.2,-4.9,-4.1c.9,-.6,1.7,-1.1,2.5,-1.5c.8,-.4,1.6,-.7,2.4,-1v6.6Zm24.3,-9.4L341.6,134c-.1,0,-.2,0,-.2,0q-.1,0,-.2,0c-.5,0,-.8,-.2,-.9,-.6c0,-.1,-.1,-.2,-.1,-.4c0,-.2,-.1,-.5,-.1,-.8c-.1,-.1,-.2,-.1,-.3,-.2c-.1,-.1,-.2,-.2,-.3,-.3c.1,1.1,.1,2.2,.2,3.2c.1,1.1,.1,2.1,.2,3.2h-.1c-1.5,-2.6,-3.1,-3.9,-4.9,-3.9c-.4,0,-.9,.1,-1.4,.3c-.6,.1,-1.1,.4,-1.6,.7c-.2,.1,-.3,.3,-.5,.4c-.1,.1,-.3,.2,-.4,.3c-.1,-.2,-.2,-.4,-.4,-.7c0,-.1,-.1,-.2,-.3,-.4c-.1,-.1,-.2,-.3,-.4,-.4c-.1,-.1,-.2,-.2,-.4,-.3c-.1,-.1,-.3,-.1,-.4,-.1h-8.8l1.3,1.2c.2,0,.5,0,.7,0c.3,0,.5,0,.7,.1c.2,0,.4,0,.5,0c.1,0,.2,.1,.3,.1c.2,.1,.3,.8,.5,1.9c-.1,.1,-.3,.2,-.7,.4c-.3,.1,-.6,.2,-.7,.3c-.3,.3,-.4,.6,-.4,1.1c0,.3,.1,.6,.4,.9c.2,.3,.5,.4,.9,.4c.4,0,.8,-.1,1.2,-.4c.3,-.2,.5,-.6,.4,-1v-.3c.8,.8,1.3,1.2,1.6,1.4c.6,.5,1.2,.7,1.8,.7c.7,0,1.4,-.4,1.8,-1.2v.1c.2,-.3,.4,-.7,.5,-1c.2,0,.5,-.1,.8,-.3c.4,-.1,.7,-.2,.9,-.2c.5,0,.8,.4,.8,1.2c0,.5,-.5,1.1,-1.3,1.9l1.7,.6l4.2,-4.2c.2,.1,.3,.2,.5,.4c.1,.2,.3,.4,.4,.6c.4,.5,.5,1,.5,1.3l-.1,6.4l1.3,1.3V135.2h2Zm-13,3.3c-.2,.3,-.6,.5,-1.2,.5c-.8,0,-1.4,-.2,-2,-.6c-.1,-.1,-.3,-.3,-.5,-.6c-.1,-.2,-.3,-.5,-.5,-.9l-.8,-1.7h4.3c.6,0,.9,.7,.9,2c0,.6,0,1.1,-.2,1.3Zm4.4,.9c.1,-.7,0,-1.2,-.3,-1.6c-.3,-.5,-.8,-.7,-1.4,-.7c.6,-1.1,1.5,-1.6,2.8,-1.6c.7,0,1.4,.3,1.9,.9l-3,3Zm13.2,-4.2L346.3,134h-1.1c-.4,-.4,-.6,-1,-.8,-1.9l-.4,-.3c0,.2,0,.5,0,.9c0,.3,.1,.7,.1,1.2c0,.5,.1,.9,.1,1.3c0,.3,0,.6,0,.9c-.2,-.8,-.6,-1.3,-1,-1.6c-.4,-.3,-.9,-.5,-1.6,-.5h-1.4l1.2,1.2c.3,0,.7,.1,1,.2c.3,.1,.6,.3,.8,.5c.3,.2,.5,.4,.6,.7c.2,.3,.2,.7,.2,1v8.9l1.2,1.2V135.2h2.2Zm11.2,0L357.4,134H345.6l1.1,1.2h8.2v.9c-2.5,.8,-4.9,2.1,-7.3,3.7l1.5,2.3c1.7,.1,3.1,.7,4.1,1.6c.3,.3,.6,.6,.9,1c.4,.4,.6,.8,.8,1.2c.2,.3,.3,.5,.4,.7c0,.1,.1,.2,.1,.4l.7,.8V135.2h2.5Zm-3.7,9.4c-1,-1.8,-2.6,-3.2,-4.8,-4.1c.9,-.6,1.7,-1.1,2.5,-1.5c.8,-.4,1.6,-.7,2.3,-1v6.6ZM376.6,134c-.5,-.1,-.9,-.2,-1,-.6c0,-.1,-.1,-.2,-.1,-.5c0,-.2,0,-.5,0,-.7l-.7,-.4v12.3h-.1c-.7,-1.4,-2,-2.5,-3.7,-3.4c.7,-.2,1.3,-.6,1.9,-1.2c.5,-.6,.8,-1.3,.8,-2c0,-.7,-.3,-1.3,-.8,-1.9c-.1,-.1,-.3,-.2,-.6,-.5c-.3,-.3,-.6,-.6,-1.1,-1c-.3,.3,-.5,.5,-.7,.8c-.3,.2,-.4,.3,-.4,.4c-.3,.2,-.5,.3,-.8,.5c-.2,.1,-.5,.2,-.7,.2c-.1,-.7,-.5,-1.1,-1.2,-1.1c-.3,0,-.7,.2,-.9,.4c-.2,.3,-.4,.6,-.4,.9c0,.5,.2,.9,.6,1.2c.3,.3,.7,.5,1.2,.5c1.3,0,2.6,-.7,4,-2c.4,.4,.6,.8,.6,1.3c0,.4,-.2,.7,-.5,1c-.3,.2,-.7,.5,-1.3,.8c-.4,.2,-.9,.3,-1.3,.4c-.5,.1,-.9,.2,-1.3,.2c-.2,0,-.3,0,-.5,-.1c-.2,0,-.3,0,-.5,0l2,2.5c1.2,.1,2.3,.4,3.2,1c.5,.3,1,.6,1.4,1c.4,.4,.7,.9,1,1.3c0,.1,.1,.3,.2,.5c.1,.2,.2,.5,.3,.8c.1,.2,.2,.3,.3,.5c.1,.2,.3,.4,.4,.5V135.2h1.9L376.6,134Zm5.8,1.2L381.2,134h-1.1c-.3,-.4,-.6,-1,-.7,-1.9l-.4,-.3c0,.2,0,.5,0,.9c0,.3,0,.7,0,1.2c.1,.5,.1,.9,.1,1.3c0,.3,.1,.6,.1,.9c-.3,-.8,-.6,-1.3,-1,-1.6c-.4,-.3,-1,-.5,-1.7,-.5h-1.4l1.2,1.2c.4,0,.7,.1,1,.2c.3,.1,.6,.3,.9,.5c.2,.2,.4,.4,.6,.7c.1,.3,.2,.7,.2,1v8.9l1.1,1.2V135.2h2.3Zm5.9,-1.2h-7.9l1.2,1.2h4c-1.7,2,-2.6,4,-2.6,6.1c0,1.5,.3,2.8,1,3.9c.7,1.4,1.8,2.1,3.2,2.1c.3,0,.5,0,.8,-.1c.3,-.1,.5,-.2,.7,-.4c.2,-.2,.3,-.4,.5,-.7c.1,-.2,.1,-.5,.1,-.8c0,-.4,-.1,-.9,-.4,-1.2c-.3,-.3,-.6,-.5,-1,-.5c-.4,0,-.7,.2,-1,.4c-.3,.3,-.5,.6,-.5,1c0,.2,.1,.4,.2,.7c.1,.2,.3,.4,.6,.6c-.8,.2,-1.5,-.2,-2.3,-1.3c-.4,-.7,-.6,-1.5,-.7,-2.3c0,-1,.1,-1.9,.4,-2.7c.2,-.7,.5,-1.4,.9,-2.1c.5,-.7,1,-1.3,1.7,-1.7c.6,-.5,1.4,-.8,2.3,-1L388.3,134Zm12.2,1.2L399.3,134H387.5l1.2,1.2h8.2v.9c-2.5,.8,-5,2.1,-7.4,3.7l1.6,2.3c1.7,.1,3,.7,4.1,1.6c.2,.3,.5,.6,.9,1c.3,.4,.6,.8,.7,1.2c.2,.3,.3,.5,.4,.7c.1,.1,.1,.2,.2,.4l.6,.8V135.2h2.5Zm-3.6,9.4c-1.1,-1.8,-2.7,-3.2,-4.9,-4.1c.9,-.6,1.7,-1.1,2.5,-1.5c.8,-.4,1.6,-.7,2.4,-1v6.6Zm7.8,-9.4L403.6,134h-1.1c-.4,-.4,-.6,-1,-.8,-1.9l-.4,-.3c0,.2,0,.5,0,.9c0,.3,.1,.7,.1,1.2c0,.5,.1,.9,.1,1.3c0,.3,0,.6,0,.9c-.2,-.8,-.6,-1.3,-1,-1.6c-.4,-.3,-.9,-.5,-1.6,-.5h-1.4l1.2,1.2c.3,0,.7,.1,1,.2c.3,.1,.6,.3,.8,.5c.3,.2,.5,.4,.6,.7c.2,.3,.2,.7,.2,1v8.9l1.2,1.2V135.2h2.2Z" class="gm_162"/>
<g clip-path="url(#c0_162)">
<path d="M1877,177.2H32.1v-5.4H768.7c43.1,0,53,-37.9,115.3,-37.9h993Z" class="gn_162"/>
<path d="M1877,183.7H32.1v-9.8H768.7c43.1,0,53,-33.6,115.3,-33.6h993Z" class="go_162"/>
</g>
<path d="M131.7,397v38.9l11.7,10.3V402Z" class="gp_162"/>
<path d="M131.7,397v38.9H829.5c0,0,16.8,0,16.8,-16.8v-5.3c0,0,0,-16.8,-16.8,-16.8Z" class="g7_162"/>
<path d="M781,430.6c8.2,0,14.8,-6.5,14.8,-14.5c0,-8,-6.6,-14.5,-14.8,-14.5c-8.3,0,-14.9,6.5,-14.9,14.5c0,8,6.6,14.5,14.9,14.5Z" class="gq_162"/>
<path d="M781,430.6c8.2,0,14.8,-6.5,14.8,-14.5c0,-8,-6.6,-14.5,-14.8,-14.5c-8.3,0,-14.9,6.5,-14.9,14.5c0,8,6.6,14.5,14.9,14.5Z" class="gr_162"/>
<path d="M781,421.4c3,0,5.4,-2.4,5.4,-5.3c0,-3,-2.4,-5.4,-5.4,-5.4c-3.1,0,-5.5,2.4,-5.5,5.4c0,2.9,2.4,5.3,5.5,5.3Z" class="g5_162"/>
<path d="M781,421.4c3,0,5.4,-2.4,5.4,-5.3c0,-3,-2.4,-5.4,-5.4,-5.4c-3.1,0,-5.5,2.4,-5.5,5.4c0,2.9,2.4,5.3,5.5,5.3Z" class="gs_162"/>
<g clip-path="url(#c8_162)" opacity="0.3">
<path d="M766.4,415.3c0,0,-.1,-4.8,3.6,-8.6l7.8,6.7c0,0,-1,.9,-1.1,2.6Z" class="g5_162"/>
</g>
<path d="M785.6,416c0,0,-3.5,0,-3.5,3.4v8.7c0,0,0,3.5,3.5,3.5H829c0,0,3.5,0,3.5,-3.5v-8.7c0,0,0,-3.4,-3.5,-3.4Z" class="g3_162"/>
<path d="M169.5,407c0,-8.3,-6.7,-15,-15,-15c-8.4,0,-15.1,6.7,-15.1,15c0,8.4,6.8,15.1,15.1,15.1c.8,0,1.6,-.1,2.4,-.2l4.5,5.2v-6.7c4.8,-2.5,8.1,-7.5,8.1,-13.4Z" class="g5_162"/>
<path d="M161.8,428.4l-5.1,-6c-.7,.1,-1.5,.2,-2.2,.2c-8.6,0,-15.6,-7,-15.6,-15.6c0,-8.5,7,-15.5,15.6,-15.5c8.5,0,15.5,7,15.5,15.5c0,5.8,-3.1,11,-8.2,13.7Zm-4.7,-7l3.8,4.5v-5.8l.3,-.1c4.8,-2.5,7.9,-7.5,7.9,-13c0,-8,-6.6,-14.5,-14.6,-14.5c-8.1,0,-14.6,6.5,-14.6,14.5c0,8.1,6.5,14.6,14.6,14.6c.7,0,1.5,0,2.3,-.2Z" class="gt_162"/>
<path d="M147.4,406.6c.8,0,1.5,.7,1.5,1.5c0,.7,-.7,1.4,-1.5,1.4c-.7,0,-1.4,-.7,-1.4,-1.4c0,-.8,.7,-1.5,1.4,-1.5Z" class="gu_162"/>
<path d="M147.4,409.9c-1,0,-1.8,-.8,-1.8,-1.8c0,-1.1,.8,-2,1.8,-2c1.1,0,1.9,.9,1.9,2c0,1,-.8,1.8,-1.9,1.8m0,-2.8c-.5,0,-.9,.4,-.9,1c0,.5,.4,.9,.9,.9c.6,0,1,-.4,1,-.9c0,-.6,-.4,-1,-1,-1Z" class="gt_162"/>
<path d="M154.5,406.6c.8,0,1.4,.7,1.4,1.5c0,.7,-.6,1.4,-1.4,1.4c-.8,0,-1.5,-.7,-1.5,-1.4c0,-.8,.7,-1.5,1.5,-1.5Z" class="gu_162"/>
<path d="M154.5,409.9c-1.1,0,-1.9,-.8,-1.9,-1.8c0,-1.1,.8,-2,1.9,-2c1,0,1.9,.9,1.9,2c0,1,-.9,1.8,-1.9,1.8m0,-2.8c-.6,0,-1,.4,-1,1c0,.5,.4,.9,1,.9c.5,0,.9,-.4,.9,-.9c0,-.6,-.4,-1,-.9,-1Z" class="gt_162"/>
<path d="M161.5,406.6c.8,0,1.4,.7,1.4,1.5c0,.7,-.6,1.4,-1.4,1.4c-.8,0,-1.5,-.7,-1.5,-1.4c0,-.8,.7,-1.5,1.5,-1.5Z" class="gu_162"/>
<path d="M161.5,409.9c-1.1,0,-1.9,-.8,-1.9,-1.8c0,-1.1,.8,-2,1.9,-2c1,0,1.9,.9,1.9,2c0,1,-.9,1.8,-1.9,1.8m0,-2.8c-.6,0,-1,.4,-1,1c0,.5,.4,.9,1,.9c.5,0,1,-.4,1,-.9c0,-.6,-.5,-1,-1,-1Z" class="gt_162"/>
<path d="M163.4,421.3c0,-9.7,7.9,-17.6,17.6,-17.6c9.7,0,17.6,7.9,17.6,17.6c0,9.7,-7.9,17.6,-17.6,17.6c-.9,0,-1.9,-.1,-2.8,-.2l-5.3,6.1v-7.9c-5.6,-2.9,-9.5,-8.8,-9.5,-15.6Z" class="gv_162"/>
<path d="M172.9,445.2c0,0,-.1,0,-.1,0c-.2,-.1,-.3,-.2,-.3,-.4v-7.6c-5.9,-3.1,-9.6,-9.2,-9.6,-15.9c0,-10,8.2,-18.1,18.1,-18.1c10,0,18.1,8.1,18.1,18.1c0,9.9,-8.1,18.1,-18.1,18.1c-.8,0,-1.7,-.1,-2.6,-.2l-5.1,5.9c-.1,.1,-.2,.1,-.4,.1M181,404.1c-9.4,0,-17.1,7.7,-17.1,17.2c0,6.4,3.5,12.3,9.2,15.2c.2,.1,.3,.3,.3,.4v6.6l4.4,-5.1c.1,-.1,.3,-.2,.5,-.2c.9,.2,1.8,.2,2.7,.2c9.5,0,17.2,-7.7,17.2,-17.1c0,-9.5,-7.7,-17.2,-17.2,-17.2Z" class="gt_162"/>
<path d="M189.2,420.8c.9,0,1.7,.7,1.7,1.7c0,.9,-.8,1.6,-1.7,1.6c-.9,0,-1.7,-.7,-1.7,-1.6c0,-1,.8,-1.7,1.7,-1.7Z" class="g5_162"/>
<path d="M189.2,424.6c-1.2,0,-2.1,-1,-2.1,-2.1c0,-1.2,.9,-2.2,2.1,-2.2c1.2,0,2.1,1,2.1,2.2c0,1.1,-.9,2.1,-2.1,2.1m0,-3.3c-.7,0,-1.2,.5,-1.2,1.2c0,.6,.5,1.2,1.2,1.2c.7,0,1.2,-.6,1.2,-1.2c0,-.7,-.5,-1.2,-1.2,-1.2Z" class="gt_162"/>
<path d="M181,420.8c.9,0,1.7,.7,1.7,1.7c0,.9,-.8,1.6,-1.7,1.6c-.9,0,-1.7,-.7,-1.7,-1.6c0,-1,.8,-1.7,1.7,-1.7Z" class="g5_162"/>
<path d="M181,424.6c-1.2,0,-2.1,-1,-2.1,-2.1c0,-1.2,.9,-2.2,2.1,-2.2c1.2,0,2.1,1,2.1,2.2c0,1.1,-.9,2.1,-2.1,2.1m0,-3.3c-.7,0,-1.2,.5,-1.2,1.2c0,.6,.5,1.2,1.2,1.2c.7,0,1.2,-.6,1.2,-1.2c0,-.7,-.5,-1.2,-1.2,-1.2Z" class="gt_162"/>
<path d="M172.8,420.8c.9,0,1.7,.7,1.7,1.7c0,.9,-.8,1.6,-1.7,1.6c-.9,0,-1.7,-.7,-1.7,-1.6c0,-1,.8,-1.7,1.7,-1.7Z" class="g5_162"/>
<path d="M172.8,424.6c-1.2,0,-2.1,-1,-2.1,-2.1c0,-1.2,.9,-2.2,2.1,-2.2c1.2,0,2.1,1,2.1,2.2c0,1.1,-.9,2.1,-2.1,2.1m0,-3.3c-.7,0,-1.2,.5,-1.2,1.2c0,.6,.5,1.2,1.2,1.2c.7,0,1.2,-.6,1.2,-1.2c0,-.7,-.5,-1.2,-1.2,-1.2Z" class="gt_162"/>
<image clip-path="url(#c9_162)" x="771" y="541" width="5" height="9" xlink:href="shade/1.png"/>
<image clip-path="url(#ca_162)" x="770" y="514" width="24" height="28" xlink:href="shade/2.png"/>
<image clip-path="url(#cb_162)" x="770" y="516" width="23" height="34" xlink:href="shade/3.png"/>
<image clip-path="url(#cc_162)" x="775" y="512" width="20" height="10" xlink:href="shade/4.png"/>
<image clip-path="url(#cd_162)" x="752" y="760" width="5" height="10" xlink:href="shade/5.png"/>
<image clip-path="url(#ce_162)" x="751" y="734" width="25" height="28" xlink:href="shade/6.png"/>
<image clip-path="url(#cf_162)" x="751" y="736" width="23" height="34" xlink:href="shade/7.png"/>
<image clip-path="url(#cg_162)" x="756" y="732" width="20" height="10" xlink:href="shade/8.png"/>
<path d="M32.1,45.1H9.2m958.3,0h22.9M32.1,1331.3H9.2m958.3,0h22.9M45.1,32.1V9.2m0,1335.1v22.9M954.5,32.1V9.2m0,1335.1v22.9" class="gw_162"/>
<path d="M32.1,45.1H9.2m958.3,0h22.9M32.1,1331.3H9.2m958.3,0h22.9M45.1,32.1V9.2m0,1335.1v22.9M954.5,32.1V9.2m0,1335.1v22.9" class="gx_162"/>
<path d="M27.5,32.1H0m972.1,0h27.5M27.5,1344.3H0m972.1,0h27.5M32.1,27.5V0m0,1348.9v27.5M967.5,27.5V0m0,1348.9v27.5" class="gw_162"/>
<path d="M27.5,32.1H0m972.1,0h27.5M27.5,1344.3H0m972.1,0h27.5M32.1,27.5V0m0,1348.9v27.5M967.5,27.5V0m0,1348.9v27.5" class="gx_162"/>
</svg>