<?xml version="1.0" encoding="UTF-8" standalone="no"?>
<!DOCTYPE svg PUBLIC "-//W3C//DTD SVG 1.1//EN"
"http://www.w3.org/Graphics/SVG/1.1/DTD/svg11.dtd">
<svg viewBox="0 0 999 1376" version="1.1" xmlns="http://www.w3.org/2000/svg" xmlns:xlink="http://www.w3.org/1999/xlink">
<defs>
<clipPath id="c0_63"><path d="M32.1,1344.3V32.1H967.5V1344.3Z"/></clipPath>
<clipPath id="c1_63"><path d="M203,289.8l-6.5,-2l-14,-11.3V215.7h62.7v74.1Z"/></clipPath>
<clipPath id="c2_63"><path d="M340.5,571.5V334.7H763.4V571.5Z"/></clipPath>
<clipPath id="c3_63"><path d="M203,681.7l-6.5,-2.1l-14,-11.2V607.5h62.7v74.2Z"/></clipPath>
<clipPath id="c4_63"><path d="M320.2,963.3V726.6H743.1V963.3Z"/></clipPath>
<clipPath id="c5_63"><path d="M320.2,1246.3V1009.5H743.1v236.8Z"/></clipPath>
<style type="text/css"><![CDATA[
.g0_63{
fill: #FFFDEA;
}
.g1_63{
fill: #BCE4EA;
}
.g2_63{
fill: #BCBEC0;
}
.g3_63{
fill: #00AABD;
}
.g4_63{
fill: #FCDCBA;
}
.g5_63{
fill: #FFF;
}
.g6_63{
fill: none;
stroke: #FFF;
stroke-width: 1.909;
stroke-miterlimit: 10;
}
.g7_63{
fill: none;
stroke: #000;
stroke-width: 0.381;
stroke-miterlimit: 10;
}
]]></style>
</defs>
<g clip-path="url(#c0_63)">
<path d="M-877.3,1344.3H967.5V32.1H-877.3V1344.3Z" class="g0_63"/>
<path d="M-877.3,179.3H967.5V32.1H-877.3V179.3Z" class="g1_63"/>
<path d="M967.5,177.2H-877.3v-5.4h736.6c43.1,0,53.1,-37.9,115.3,-37.9H967.5Z" class="g2_63"/>
<path d="M967.5,183.7H-877.3v-9.8h736.6c43.1,0,53.1,-33.6,115.3,-33.6H967.5Z" class="g3_63"/>
</g>
<path d="M235.6,244.8c0,0,-13,0,-13,13v21.7c0,0,0,13,13,13H854.7c0,0,13,0,13,-13V257.8c0,0,0,-13,-13,-13Z" class="g4_63"/>
<image clip-path="url(#c1_63)" preserveAspectRatio="none" x="182" y="215" width="63" height="76" xlink:href="img/1.png"/>
<path d="M230.4,285.1c0,0,-26.8,11.3,-51.1,-12.8c0,0,15.2,25.4,49.3,24c0,0,24.8,.3,20.3,-10.1c0,0,1.2,-4.5,-18.5,-1.1Z" class="g4_63"/>
<image clip-path="url(#c2_63)" preserveAspectRatio="none" x="339" y="333" width="426" height="240" xlink:href="img/2.jpg"/>
<path d="M278.9,316.7c0,0,-8,0,-8,8.6v57.8c0,0,0,8.6,8,8.6H407.4c0,0,7.9,0,7.9,-8.6V325.3c0,0,0,-8.6,-7.9,-8.6Z" class="g5_63"/>
<path d="M634,318.8c0,0,-5.9,0,-5.9,8.7v57.7c0,0,0,8.7,5.9,8.7H770.4c0,0,6,0,6,-8.7V327.5c0,0,0,-8.7,-6,-8.7Z" class="g5_63"/>
<path d="M308.7,389.6v0l47.7,33.2L334.7,382.3Z" class="g5_63"/>
<path d="M690.2,389.6v0l-47.7,33.2l21.7,-40.5Z" class="g5_63"/>
<path d="M235.6,636.7c0,0,-13,0,-13,13v21.6c0,0,0,13,13,13H854.7c0,0,13,0,13,-13V649.7c0,0,0,-13,-13,-13Z" class="g4_63"/>
<image clip-path="url(#c3_63)" preserveAspectRatio="none" x="182" y="607" width="63" height="76" xlink:href="img/3.png"/>
<path d="M230.4,677c0,0,-26.8,11.3,-51.1,-12.8c0,0,15.2,25.3,49.3,24c0,0,24.8,.3,20.3,-10.2c0,0,1.2,-4.4,-18.5,-1Z" class="g4_63"/>
<image clip-path="url(#c4_63)" preserveAspectRatio="none" x="318" y="725" width="427" height="240" xlink:href="img/4.jpg"/>
<image clip-path="url(#c5_63)" preserveAspectRatio="none" x="318" y="1008" width="427" height="240" xlink:href="img/5.jpg"/>
<path d="M283.9,743.9c0,0,-8.7,0,-8.7,8.7v51.9c0,0,0,8.7,8.7,8.7H414c0,0,8.7,0,8.7,-8.7V752.6c0,0,0,-8.7,-8.7,-8.7Z" class="g5_63"/>
<path d="M266.6,1001.6c0,0,-8.7,0,-8.7,8.6V1068c0,0,0,8.6,8.7,8.6H388c0,0,8.7,0,8.7,-8.6v-57.8c0,0,0,-8.6,-8.7,-8.6Z" class="g5_63"/>
<path d="M628.4,708.5c0,0,-8.7,0,-8.7,8.7v57.7c0,0,0,8.7,8.7,8.7H780.7c0,0,8.6,0,8.6,-8.7V717.2c0,0,0,-8.7,-8.6,-8.7Z" class="g5_63"/>
<path d="M645.4,992.2c0,0,-8.6,0,-8.6,8.7v57.7c0,0,0,8.7,8.6,8.7H750.8c0,0,8.7,0,8.7,-8.7v-57.7c0,0,0,-8.7,-8.7,-8.7Z" class="g5_63"/>
<path d="M358.8,813.6v0l47.6,33.2L384.8,806.3Z" class="g5_63"/>
<path d="M337.5,1074.5v0l47.6,33.2l-21.6,-40.4Z" class="g5_63"/>
<path d="M681.8,779.3v0l-47.7,33.2l21.7,-40.4Z" class="g5_63"/>
<path d="M685.8,1062.9v0l-47.6,33.2l21.7,-40.4Z" class="g5_63"/>
<path d="M32.1,45.1H9.2m958.3,0h22.9M32.1,1331.3H9.2m958.3,0h22.9M45.1,32.1V9.2m0,1335.1v22.9M954.5,32.1V9.2m0,1335.1v22.9" class="g6_63"/>
<path d="M32.1,45.1H9.2m958.3,0h22.9M32.1,1331.3H9.2m958.3,0h22.9M45.1,32.1V9.2m0,1335.1v22.9M954.5,32.1V9.2m0,1335.1v22.9" class="g7_63"/>
<path d="M27.5,32.1H0m972.1,0h27.5M27.5,1344.3H0m972.1,0h27.5M32.1,27.5V0m0,1348.9v27.5M967.5,27.5V0m0,1348.9v27.5" class="g6_63"/>
<path d="M27.5,32.1H0m972.1,0h27.5M27.5,1344.3H0m972.1,0h27.5M32.1,27.5V0m0,1348.9v27.5M967.5,27.5V0m0,1348.9v27.5" class="g7_63"/>
</svg>