<?xml version="1.0" encoding="UTF-8" standalone="no"?>
<!DOCTYPE svg PUBLIC "-//W3C//DTD SVG 1.1//EN"
"http://www.w3.org/Graphics/SVG/1.1/DTD/svg11.dtd">
<svg viewBox="0 0 999 1376" version="1.1" xmlns="http://www.w3.org/2000/svg" xmlns:xlink="http://www.w3.org/1999/xlink">
<defs>
<clipPath id="c0_104"><path d="M32.1,1344.3V32.1H967.5V1344.3Z"/></clipPath>
<clipPath id="c1_104"><path d="M195.8,862.6c-7.8,0,-7.8,-7.9,-7.8,-7.9V822.8c0,-7.9,7.8,-7.9,7.8,-7.9H250c7.8,0,7.8,7.9,7.8,7.9v31.9c0,7.9,-7.8,7.9,-7.8,7.9Z"/></clipPath>
<clipPath id="c2_104"><path d="M195.8,931.9C188,931.9,188,924,188,924V896.4c0,-7.8,7.8,-7.8,7.8,-7.8H250c7.8,0,7.8,7.8,7.8,7.8V924c0,7.9,-7.8,7.9,-7.8,7.9Z"/></clipPath>
<clipPath id="c3_104"><path d="M517.7,858.2c-7.8,0,-7.8,-7.8,-7.8,-7.8V822.8c0,-7.9,7.8,-7.9,7.8,-7.9h54.2c7.8,0,7.8,7.9,7.8,7.9v27.6c0,7.8,-7.8,7.8,-7.8,7.8Z"/></clipPath>
<clipPath id="c4_104"><path d="M517.7,931.9c-7.8,0,-7.8,-7.9,-7.8,-7.9V896.4c0,-7.8,7.8,-7.8,7.8,-7.8H599c7.8,0,7.8,7.8,7.8,7.8V924c0,7.9,-7.8,7.9,-7.8,7.9Z"/></clipPath>
<clipPath id="c5_104"><path d="M232.4,782.9V723.2h91.8v59.7Z"/></clipPath>
<clipPath id="c6_104"><path d="M179,655.2l-6.5,-2.1L156.2,639.2V582.1h71.9v73.1Z"/></clipPath>
<clipPath id="c7_104"><path d="M176.6,1113.5l-6.5,-2.1l-16.4,-13.9v-57.1h72v73.1Z"/></clipPath>
<clipPath id="c8_104"><path d="M178.4,137.2c.1,-1.3,.7,-2.5,1.6,-3.4c1,-1,2.4,-1.6,3.9,-1.6h19.2v5Z"/></clipPath>
<clipPath id="c9_104"><path d="M177.9,137.7v-6h25.7v6Z"/></clipPath>
<clipPath id="ca_104"><path d="M181.3,1193.6v-65.4h60.4v65.4Z"/></clipPath>
<clipPath id="cb_104"><path d="M253.4,1193.6v-65.4h55v65.4Z"/></clipPath>
<clipPath id="cc_104"><path d="M520.6,1193.6v-65.4h60.3v65.4Z"/></clipPath>
<clipPath id="cd_104"><path d="M587.3,1193.6v-65.4h60.4v65.4Z"/></clipPath>
<style type="text/css"><![CDATA[
.g0_104{
fill: #FEFCF4;
}
.g1_104{
fill: #DEF1F3;
}
.g2_104{
fill: none;
stroke: #6381B7;
stroke-width: 0.763;
}
.g3_104{
fill: #FFF;
}
.g4_104{
fill: none;
stroke: #231F20;
stroke-width: 0.458;
stroke-miterlimit: 10;
}
.g5_104{
fill: #48484A;
}
.g6_104{
fill: #E1E0ED;
}
.g7_104{
fill: #766FA6;
}
.g8_104{
fill: none;
stroke: #231F20;
stroke-width: 0.305;
stroke-miterlimit: 10;
}
.g9_104{
fill: #6381B7;
}
.ga_104{
fill: none;
stroke: #6381B7;
stroke-width: 0.381;
stroke-dasharray: 2,1;
}
.gb_104{
fill: none;
stroke: #6381B7;
stroke-width: 0.381;
}
.gc_104{
fill: #FCE8B0;
}
.gd_104{
fill: #F7F8E9;
}
.ge_104{
fill: none;
stroke: #BFD62F;
stroke-width: 1.527;
stroke-linecap: round;
stroke-linejoin: round;
stroke-dasharray: 0,5;
}
.gf_104{
fill: none;
stroke: #BFD62F;
stroke-width: 1.527;
stroke-linecap: round;
stroke-linejoin: round;
}
.gg_104{
fill: #BFD62F;
}
.gh_104{
fill: #D1232A;
}
.gi_104{
fill: #233D4A;
}
.gj_104{
fill: #FFE293;
}
.gk_104{
fill: #F89C47;
}
.gl_104{
fill: #25408F;
}
.gm_104{
fill: none;
stroke: #231F20;
stroke-width: 1.527;
}
.gn_104{
fill: #39B4D1;
stroke: #2D2A4A;
stroke-width: 1.038;
stroke-linecap: round;
stroke-linejoin: round;
}
.go_104{
fill: #2D2A4A;
}
.gp_104{
fill: none;
stroke: #2D2A4A;
stroke-width: 1.038;
stroke-linecap: round;
stroke-linejoin: round;
}
.gq_104{
fill: #DEDAD3;
}
.gr_104{
fill: #29263F;
}
.gs_104{
fill: #E15F46;
stroke: #2D2A4A;
stroke-width: 1.038;
stroke-linecap: round;
stroke-linejoin: round;
}
.gt_104{
fill: none;
stroke: #949698;
stroke-width: 0.305;
}
.gu_104{
fill: none;
stroke: #FFF;
stroke-width: 1.909;
stroke-miterlimit: 10;
}
.gv_104{
fill: none;
stroke: #000;
stroke-width: 0.381;
stroke-miterlimit: 10;
}
]]></style>
</defs>
<path clip-path="url(#c0_104)" d="M954.5,1344.3H1877V32.1H954.5V1344.3Z" class="g0_104"/>
<path d="M149,166.3c0,0,-17.3,0,-17.3,17.4V358.2c0,0,0,17.3,17.3,17.3H828.9c0,0,17.4,0,17.4,-17.3V183.7c0,0,0,-17.4,-17.4,-17.4Z" class="g1_104"/>
<path d="M145.1,667.4c0,0,-13,0,-13,13V945.5c0,0,0,13,13,13H832.9c0,0,13,0,13,-13V680.4c0,0,0,-13,-13,-13H145.1Z" class="g2_104"/>
<path d="M195.8,814.9c0,0,-7.8,0,-7.8,7.9v31.9c0,0,0,7.9,7.8,7.9H250c0,0,7.8,0,7.8,-7.9V822.8c0,0,0,-7.9,-7.8,-7.9Z" class="g3_104"/>
<image clip-path="url(#c1_104)" preserveAspectRatio="none" x="186" y="813" width="73" height="51" xlink:href="img/1.png"/>
<path d="M195.8,888.6c0,0,-7.8,0,-7.8,7.8V924c0,0,0,7.9,7.8,7.9H250c0,0,7.8,0,7.8,-7.9V896.4c0,0,0,-7.8,-7.8,-7.8Z" class="g3_104"/>
<image clip-path="url(#c2_104)" preserveAspectRatio="none" x="186" y="887" width="73" height="47" xlink:href="img/2.png"/>
<path d="M517.7,814.9c0,0,-7.8,0,-7.8,7.9v27.6c0,0,0,7.8,7.8,7.8h54.2c0,0,7.8,0,7.8,-7.8V822.8c0,0,0,-7.9,-7.8,-7.9Z" class="g3_104"/>
<image clip-path="url(#c3_104)" preserveAspectRatio="none" x="508" y="813" width="74" height="47" xlink:href="img/3.png"/>
<path d="M517.7,888.6c0,0,-7.8,0,-7.8,7.8V924c0,0,0,7.9,7.8,7.9H599c0,0,7.8,0,7.8,-7.9V896.4c0,0,0,-7.8,-7.8,-7.8Z" class="g3_104"/>
<image clip-path="url(#c4_104)" preserveAspectRatio="none" x="508" y="887" width="100" height="47" xlink:href="img/4.png"/>
<path d="M359.4,868.8H487M359.4,938H487M685.1,868.8H812.7M712.8,938h117" class="g4_104"/>
<path d="M162,722.6c0,0,-4.3,0,-4.3,4.4v14.4c0,0,0,4.3,4.1,5.7l52.4,18.3c0,0,4.1,1.4,4.1,-3V727c0,0,0,-4.4,-4.3,-4.4Z" class="g5_104"/>
<path d="M183.2,709.8c0,0,-13,0,-13,13v69.8c0,0,0,13,13,13H780.8c0,0,13,0,13,-13V722.8c0,0,0,-13,-13,-13Z" class="g6_104"/>
<path d="M162,720.5c0,0,-4.3,0,-4.3,4.3v17c0,0,0,4.3,4.3,4.3h37.3c0,0,4.3,0,4.3,-4.3v-17c0,0,0,-4.3,-4.3,-4.3Z" class="g7_104"/>
<path d="M439.3,776.1H562.7" class="g8_104"/>
<path d="M232.4,782.9h91.8V723.2H232.4v59.7Z" class="g3_104"/>
<image clip-path="url(#c5_104)" preserveAspectRatio="none" x="231" y="722" width="95" height="62" xlink:href="img/5.jpg"/>
<path d="M418.2,973.1c0,0,-4.3,0,-4.3,4.4v10.8c0,0,0,4.3,4.3,4.3h30.3c0,0,4.4,0,4.4,-4.3V977.5c0,0,0,-4.4,-4.4,-4.4Z" class="g9_104"/>
<path d="M405,965.6v54.9m1.4,1H846m.9,-1.4V965.2m-1.3,-.9H406" class="ga_104"/>
<path d="M405,1020.9v.6h.6m440.8,0h.5v-.6m0,-56v-.6h-.5m-440.8,0H405v.6" class="gb_104"/>
<path d="M145.8,1027c0,0,-13,0,-13,13v153c0,0,0,13,13,13H833.6c0,0,13,0,13,-13V1040c0,0,0,-13,-13,-13H145.8Z" class="g2_104"/>
<path d="M491.8,1223.5c0,0,-4.3,0,-4.3,4.3v10.8c0,0,0,4.4,4.3,4.4h30.3c0,0,4.4,0,4.4,-4.4v-10.8c0,0,0,-4.3,-4.4,-4.3Z" class="g9_104"/>
<path d="M478.6,1214.6v37.6m1.4,1H845.1m1,-1.4v-37.5m-1.4,-1H479.6" class="ga_104"/>
<path d="M478.6,1252.6v.6h.6m366.3,0h.6v-.6m0,-38.7v-.6h-.6m-366.3,0h-.6v.6" class="gb_104"/>
<path d="M211.7,610.2c0,0,-13,0,-13,13v21.7c0,0,0,13,13,13H833.3c0,0,13,0,13,-13V623.2c0,0,0,-13,-13,-13Z" class="gc_104"/>
<image clip-path="url(#c6_104)" preserveAspectRatio="none" x="155" y="580" width="75" height="77" xlink:href="img/6.png"/>
<path d="M206.5,650.5c0,0,-26.9,11.3,-51.1,-12.8c0,0,15.1,25.4,49.3,24c0,0,24.7,.4,20.2,-10.1c0,0,1.2,-4.5,-18.4,-1.1Z" class="gc_104"/>
<path d="M209.2,1069.4c0,0,-13,0,-13,13V1104c0,0,0,13,13,13h602c0,0,13,0,13,-13v-21.6c0,0,0,-13,-13,-13Z" class="gc_104"/>
<image clip-path="url(#c7_104)" preserveAspectRatio="none" x="152" y="1039" width="75" height="76" xlink:href="img/7.png"/>
<path d="M204,1108.8c0,0,-26.8,11.3,-51.1,-12.8c0,0,15.2,25.3,49.3,24c0,0,24.8,.3,20.3,-10.1c0,0,1.2,-4.5,-18.5,-1.1Z" class="gc_104"/>
<path d="M132.5,569.6h713V432.9h-713V569.6Z" class="gd_104"/>
<path d="M132.5,437.5V567.3m4.5,2.3H843.2m2.3,-4.6V435.2m-4.6,-2.3H134.7" class="ge_104"/>
<path d="M132.5,569.6v0m713,0v0m0,-136.7v0m-713,0v0" class="gf_104"/>
<path d="M131.7,436.2V407.5c0,0,0,-8.6,8.6,-8.6H837.6c0,0,8.7,0,8.7,8.6v29.2Z" class="gg_104"/>
<path d="M153.3,459.6c0,0,4.8,5.5,6.1,12.3c0,0,6.7,-11.3,11.7,-13.9c0,0,-9.3,4.9,-11.1,8.2c0,0,-1.9,-4.3,-6.7,-6.6Z" class="gh_104"/>
<path d="M161.8,427.8l2.9,2.9l8.2,-8.1l-3,-3Z" class="g3_104"/>
<path d="M164.7,431.7v0c.3,0,.6,-.1,.7,-.3l8.2,-8.1c.2,-.2,.3,-.4,.3,-.7c0,-.3,-.1,-.5,-.3,-.7l-3,-3c-.4,-.3,-1,-.3,-1.4,0l-8.1,8.2c-.4,.4,-.4,1,0,1.4l2.9,2.9c.2,.2,.5,.3,.7,.3m6.8,-9.1l-6.8,6.7l-1.5,-1.5l6.7,-6.8Z" class="gi_104"/>
<path d="M168.3,400.8c-6.5,6.5,-6.5,17.1,0,23.7c6.6,6.5,17.2,6.5,23.7,0c6.5,-6.6,6.5,-17.2,0,-23.7c-6.5,-6.5,-17.1,-6.5,-23.7,0Z" class="gj_104"/>
<path d="M180.2,430.4c4.7,0,9.2,-1.9,12.5,-5.2c6.9,-6.9,6.9,-18.2,0,-25.1c-3.3,-3.3,-7.8,-5.2,-12.5,-5.2c-4.8,0,-9.2,1.9,-12.6,5.2c-6.9,6.9,-6.9,18.2,0,25.1c3.4,3.3,7.8,5.2,12.6,5.2m0,-33.5c4.2,0,8.1,1.6,11.1,4.6c6.2,6.1,6.2,16.1,0,22.3c-3,3,-6.9,4.6,-11.1,4.6c-4.2,0,-8.2,-1.6,-11.2,-4.6c-6.1,-6.2,-6.1,-16.2,0,-22.3c3,-3,7,-4.6,11.2,-4.6Z" class="gi_104"/>
<path d="M154.3,433l5.3,5.2l8.1,-8.2l-5.2,-5.2Z" class="gk_104"/>
<path d="M159.6,439.2c.2,0,.5,-.1,.7,-.3l8.1,-8.2c.2,-.2,.3,-.4,.3,-.7c0,-.3,-.1,-.5,-.3,-.7l-5.2,-5.2c-.4,-.4,-1,-.4,-1.4,0l-8.2,8.2c-.4,.3,-.4,1,0,1.4l5.3,5.2c.2,.2,.4,.3,.7,.3m6.7,-9.2l-6.7,6.8L155.7,433l6.8,-6.8Z" class="gi_104"/>
<path d="M168.1,412.7c0,6.6,5.4,12,12,12c6.6,0,11.9,-5.4,11.9,-12c0,-6.6,-5.3,-11.9,-11.9,-11.9c-6.6,0,-12,5.3,-12,11.9Z" class="g3_104"/>
<path d="M180.1,425.5c7,0,12.7,-5.7,12.7,-12.8c0,-7,-5.7,-12.7,-12.7,-12.7c-7.1,0,-12.8,5.7,-12.8,12.7c0,7.1,5.7,12.8,12.8,12.8m0,-23.9c6.1,0,11.1,5,11.1,11.1c0,6.2,-5,11.2,-11.1,11.2c-6.2,0,-11.2,-5,-11.2,-11.2c0,-6.1,5,-11.1,11.2,-11.1Z" class="gi_104"/>
<path d="M131.7,109.5v39l11.7,10.2V136.5Z" class="gl_104"/>
<path d="M131.7,109.5v39H829.5c0,0,16.8,0,16.8,-16.8v-5.4c0,0,0,-16.8,-16.8,-16.8Z" class="g9_104"/>
<path d="M768.8,131c0,0,-.5,-10,8.6,-9.4c0,0,6.7,-.3,6.6,9.5m-15.3,-1.5v6.5c0,0,-3.3,.3,-3.9,-3c0,0,-.1,-3.8,3.9,-3.5Zm15.4,0v6.5c0,0,3.3,.3,3.9,-3c0,0,.1,-3.8,-3.9,-3.5Z" class="gm_104"/>
<path d="M147.4,140.8h61v-32h-61v32Z" class="gn_104"/>
<path d="M147.4,143.1h61v-2.3h-61v2.3Z" class="gn_104"/>
<path d="M171.8,106.2H152.1v31.5h25.8V112.3c0,-3.4,-2.7,-6.1,-6.1,-6.1Z" class="g3_104"/>
<path d="M171.8,106.2v-.5H152.1c-.1,0,-.3,.1,-.4,.2c-.1,.1,-.1,.2,-.1,.3v31.5c0,.1,0,.3,.1,.4c.1,.1,.3,.1,.4,.1h25.8c.1,0,.2,0,.3,-.1c.1,-.1,.2,-.3,.2,-.4V112.3c0,-3.7,-2.9,-6.6,-6.6,-6.6v1c1.6,0,2.9,.7,3.9,1.7c1,1,1.6,2.3,1.6,3.9v24.9H152.6V106.7h19.2Z" class="go_104"/>
<path d="M152.1,131.7v6h25.8c0,-3.3,-2.7,-6,-6.1,-6Z" class="g3_104"/>
<path d="M152.1,131.7h-.5v6c0,.1,0,.3,.1,.4c.1,.1,.3,.1,.4,.1h25.8c.1,0,.2,0,.3,-.1c.1,-.1,.2,-.3,.2,-.4c0,-3.6,-3,-6.6,-6.6,-6.6H152.1c-.1,0,-.3,.1,-.4,.2c-.1,.1,-.1,.2,-.1,.4h.5v.5h19.7c1.6,0,2.9,.6,3.9,1.6c1,1,1.6,2.4,1.6,3.9h.6v-.5H152.6v-5.5h-.5v.5Z" class="go_104"/>
<path d="M155.6,110.9h17.2m-17.2,2.8h17.2m-17.2,2.9h17.2m-17.2,2.9h17.2m-17.2,2.8h17.2m-17.2,2.9h17.2M155.6,128h17.2" class="gp_104"/>
<path d="M171.8,132.2H152.6v5h24.7c-.1,-1.3,-.7,-2.5,-1.6,-3.4c-1,-1,-2.3,-1.6,-3.9,-1.6Z" class="gq_104"/>
<path d="M152.6,132.2h19.2c1.6,0,2.9,.6,3.9,1.6c.9,.9,1.5,2.1,1.6,3.4H152.6Zm19.2,-.5H152.1v6h25.2v-2.5c-.9,-2.1,-3,-3.5,-5.5,-3.5Z" class="gr_104"/>
<path d="M183.9,106.2h19.7v31.5H177.9V112.3c0,-3.4,2.7,-6.1,6,-6.1Z" class="g3_104"/>
<path d="M183.9,106.2v.5h19.2v30.5H178.4V112.3c0,-1.6,.6,-2.9,1.6,-3.9c1,-1,2.4,-1.7,3.9,-1.7v-1c-3.6,0,-6.6,2.9,-6.6,6.6v25.4c0,.1,.1,.3,.2,.4c.1,.1,.2,.1,.4,.1h25.7c.2,0,.3,0,.4,-.1c.1,-.1,.1,-.3,.1,-.4V106.2c0,-.1,0,-.2,-.1,-.3c-.1,-.1,-.2,-.2,-.4,-.2H183.9Z" class="go_104"/>
<path d="M203.6,131.7v6H177.9c0,-3.3,2.7,-6,6,-6Z" class="g3_104"/>
<path d="M203.6,131.7h-.5v5.5H177.9v.5h.5c0,-1.5,.6,-2.9,1.6,-3.9c1,-1,2.4,-1.6,3.9,-1.6h19.7v-.5h-.5h.5v-.6H183.9c-3.6,0,-6.6,3,-6.6,6.6c0,.1,.1,.3,.2,.4c.1,.1,.2,.1,.4,.1h25.7c.2,0,.3,0,.4,-.1c.1,-.1,.1,-.3,.1,-.4v-6c0,-.2,0,-.3,-.1,-.4c-.1,-.1,-.2,-.2,-.4,-.2Z" class="go_104"/>
<path d="M200.1,110.9H182.9m17.2,2.8H182.9m17.2,2.9H182.9m17.2,2.9H182.9m17.2,2.8H182.9m17.2,2.9H182.9m17.2,2.8H182.9" class="gp_104"/>
<path clip-path="url(#c8_104)" d="M178.4,137.2h24.7v-5H178.4v5Z" class="gq_104"/>
<path clip-path="url(#c9_104)" d="M178.4,137.2c.1,-1.3,.7,-2.5,1.6,-3.4c1,-1,2.4,-1.6,3.9,-1.6h19.2v5Zm25.2,-5.5H183.9c-3.3,0,-6,2.7,-6,6h25.7v-6h-.5h.5Z" class="gr_104"/>
<path d="M177.9,108.8v34.3" class="gp_104"/>
<path d="M195.5,145.5h3.3V134.7h-3.3v10.8Z" class="gs_104"/>
<path d="M313.5,1179.9H459.6" class="g8_104"/>
<path d="M181.3,1193.6h60.4v-65.4H181.3v65.4Z" class="g3_104"/>
<image clip-path="url(#ca_104)" preserveAspectRatio="none" x="180" y="1127" width="63" height="68" xlink:href="img/8.jpg"/>
<path d="M181.3,1193.6h60.4v-65.4H181.3v65.4Z" class="gt_104"/>
<path d="M248.1,1193.6h60.3v-65.4H248.1v65.4Z" class="g3_104"/>
<image clip-path="url(#cb_104)" preserveAspectRatio="none" x="253" y="1128" width="57" height="67" xlink:href="img/9.jpg"/>
<path d="M248.1,1193.6h60.3v-65.4H248.1v65.4Z" class="gt_104"/>
<path d="M652.7,1179.9H798.8" class="g8_104"/>
<path d="M520.6,1193.6h60.3v-65.4H520.6v65.4Z" class="g3_104"/>
<image clip-path="url(#cc_104)" preserveAspectRatio="none" x="519" y="1127" width="64" height="68" xlink:href="img/10.png"/>
<path d="M520.6,1193.6h60.3v-65.4H520.6v65.4Z" class="gt_104"/>
<path d="M587.3,1193.6h60.4v-65.4H587.3v65.4Z" class="g3_104"/>
<image clip-path="url(#cd_104)" preserveAspectRatio="none" x="585" y="1127" width="64" height="68" xlink:href="img/11.png"/>
<path d="M587.3,1193.6h60.4v-65.4H587.3v65.4Z" class="gt_104"/>
<path d="M32.1,45.1H9.2m958.3,0h22.9M32.1,1331.3H9.2m958.3,0h22.9M45.1,32.1V9.2m0,1335.1v22.9M954.5,32.1V9.2m0,1335.1v22.9" class="gu_104"/>
<path d="M32.1,45.1H9.2m958.3,0h22.9M32.1,1331.3H9.2m958.3,0h22.9M45.1,32.1V9.2m0,1335.1v22.9M954.5,32.1V9.2m0,1335.1v22.9" class="gv_104"/>
<path d="M27.5,32.1H0m972.1,0h27.5M27.5,1344.3H0m972.1,0h27.5M32.1,27.5V0m0,1348.9v27.5M967.5,27.5V0m0,1348.9v27.5" class="gu_104"/>
<path d="M27.5,32.1H0m972.1,0h27.5M27.5,1344.3H0m972.1,0h27.5M32.1,27.5V0m0,1348.9v27.5M967.5,27.5V0m0,1348.9v27.5" class="gv_104"/>
</svg>