<?xml version="1.0" encoding="UTF-8" standalone="no"?>
<!DOCTYPE svg PUBLIC "-//W3C//DTD SVG 1.1//EN"
"http://www.w3.org/Graphics/SVG/1.1/DTD/svg11.dtd">
<svg viewBox="0 0 999 1376" version="1.1" xmlns="http://www.w3.org/2000/svg" xmlns:xlink="http://www.w3.org/1999/xlink">
<defs>
<clipPath id="c0_187"><path d="M232.6,429.5V339.4H332.8v90.1Z"/></clipPath>
<clipPath id="c1_187"><path d="M373,429.5V339.4H494.6v90.1Z"/></clipPath>
<clipPath id="c2_187"><path d="M542.2,429.5V339.4h99.4v90.1Z"/></clipPath>
<clipPath id="c3_187"><path d="M679,429.5V339.4H800.5v90.1Z"/></clipPath>
<clipPath id="c4_187"><path d="M220.1,581.5V491.4H341.6v90.1Z"/></clipPath>
<clipPath id="c5_187"><path d="M386.1,581.5V491.4h94.6v90.1Z"/></clipPath>
<clipPath id="c6_187"><path d="M526.4,581.5V491.4H641.3v90.1Z"/></clipPath>
<clipPath id="c7_187"><path d="M679,581.5V491.4H800.4v90.1Z"/></clipPath>
<clipPath id="c8_187"><path d="M220,734.7V647.6H342.2v87.1Z"/></clipPath>
<clipPath id="c9_187"><path d="M215.8,734.6V336.3h598V734.6Z"/></clipPath>
<clipPath id="ca_187"><path d="M378.9,734.7V645.3H495v89.4Z"/></clipPath>
<clipPath id="cb_187"><path d="M538.5,734.7V645.3h90.9v89.4Z"/></clipPath>
<clipPath id="cc_187"><path d="M690.6,734.7V645.3h100v89.4Z"/></clipPath>
<clipPath id="cd_187"><path d="M220.1,564.1v-90H341.6v90Z"/></clipPath>
<clipPath id="ce_187"><path d="M386.1,564.1v-90h94.6v90Z"/></clipPath>
<clipPath id="cf_187"><path d="M526.4,564.1v-90H641.3v90Z"/></clipPath>
<clipPath id="cg_187"><path d="M679,564.1v-90H800.4v90Z"/></clipPath>
<clipPath id="ch_187"><path d="M220,632.3v-2.2H342.2v2.2Z"/></clipPath>
<clipPath id="ci_187"><path d="M215.8,631.7V467.9H811.6V631.7Z"/></clipPath>
<clipPath id="cj_187"><path d="M378.9,632.3v-4.5H495v4.5Z"/></clipPath>
<clipPath id="ck_187"><path d="M538.5,632.3v-4.5h90.9v4.5Z"/></clipPath>
<clipPath id="cl_187"><path d="M690.6,632.3v-4.5h100v4.5Z"/></clipPath>
<clipPath id="cm_187"><path d="M220.1,704.1V616.3H341.6v87.8Z"/></clipPath>
<clipPath id="cn_187"><path d="M379.6,704.1V614h115v90.1Z"/></clipPath>
<clipPath id="co_187"><path d="M538.9,704.1V614H629v90.1Z"/></clipPath>
<clipPath id="cp_187"><path d="M690.6,704.1V614h99.5v90.1Z"/></clipPath>
<clipPath id="cq_187"><path d="M228.2,1063.3v-65h68.3v65Z"/></clipPath>
<clipPath id="cr_187"><path d="M381.7,1066v-64.9h78.9V1066Z"/></clipPath>
<clipPath id="cs_187"><path d="M549.8,1069.2v-65h75.4v65Z"/></clipPath>
<clipPath id="ct_187"><path d="M706.6,1070.1v-65.7h78.7v65.7Z"/></clipPath>
<clipPath id="cu_187"><path d="M199.2,320l-6.5,-2.1l-16.4,-14V246.8h72V320Z"/></clipPath>
<clipPath id="cv_187"><path d="M200.7,944.6l-6.5,-2.2L177.8,928.5V871.4h72v73.2Z"/></clipPath>
<clipPath id="cw_187"><path d="M32.1,1344.3V32.1H967.5V1344.3Z"/></clipPath>
<clipPath id="cx_187"><path d="M658.6,177V59h200V177Z"/></clipPath>
<style type="text/css"><![CDATA[
.g0_187{
fill: #FEFCF4;
}
.g1_187{
fill: #FFF;
}
.g2_187{
fill: none;
stroke: #6381B7;
stroke-width: 0.763;
}
.g3_187{
fill: none;
stroke: #949698;
stroke-width: 1.237;
}
.g4_187{
fill: #ABB2C9;
}
.g5_187{
fill: #EFE9CC;
}
.g6_187{
fill: #6381B7;
}
.g7_187{
fill: none;
stroke: #6381B7;
stroke-width: 0.381;
stroke-dasharray: 2,1;
}
.g8_187{
fill: none;
stroke: #6381B7;
stroke-width: 0.381;
}
.g9_187{
fill: none;
stroke: #C756A0;
stroke-width: 1.527;
}
.ga_187{
fill: #C756A0;
}
.gb_187{
fill: #FCE8B0;
}
.gc_187{
fill: #2E6E51;
}
.gd_187{
fill: #BCBEC0;
}
.ge_187{
fill: #EE314A;
}
.gf_187{
fill: #25408F;
}
.gg_187{
fill: #00BAF1;
}
.gh_187{
fill: #332D2C;
}
.gi_187{
fill: #D9DFF0;
}
.gj_187{
fill: #F27C85;
}
.gk_187{
fill: #7DD3F6;
}
.gl_187{
fill: none;
stroke: #FFF;
stroke-width: 1.909;
stroke-miterlimit: 10;
}
.gm_187{
fill: none;
stroke: #000;
stroke-width: 0.381;
stroke-miterlimit: 10;
}
]]></style>
</defs>
<path d="M45.1,1344.3H967.5V32.1H45.1V1344.3Z" class="g0_187"/>
<path d="M32.1,1344.3h13V32.1h-13V1344.3Z" class="g0_187"/>
<path d="M32.1,1344.3h13V32.1h-13V1344.3Z" class="g0_187"/>
<path d="M172.6,224.6c0,0,-18.4,0,-18.4,18.4V733c0,0,0,18.3,18.4,18.3H849.7c0,0,18.3,0,18.3,-18.3V224.6Z" class="g1_187"/>
<path d="M172.6,224.6c0,0,-18.4,0,-18.4,18.4V733c0,0,0,18.3,18.4,18.3H849.7c0,0,18.3,0,18.3,-18.3V224.6H172.6Z" class="g2_187"/>
<image clip-path="url(#c0_187)" preserveAspectRatio="none" x="233" y="338" width="100" height="93" xlink:href="img/1.jpg"/>
<path d="M220.1,429.5H341.6V339.4H220.1v90.1Z" class="g3_187"/>
<image clip-path="url(#c1_187)" preserveAspectRatio="none" x="372" y="338" width="124" height="93" xlink:href="img/2.jpg"/>
<path d="M373,429.5H494.6V339.4H373v90.1Z" class="g3_187"/>
<image clip-path="url(#c2_187)" preserveAspectRatio="none" x="542" y="338" width="100" height="93" xlink:href="img/3.jpg"/>
<path d="M526,429.5H647.5V339.4H526v90.1Z" class="g3_187"/>
<image clip-path="url(#c3_187)" preserveAspectRatio="none" x="678" y="338" width="124" height="93" xlink:href="img/4.jpg"/>
<path d="M679,429.5H800.5V339.4H679v90.1Z" class="g3_187"/>
<image clip-path="url(#c4_187)" preserveAspectRatio="none" x="219" y="490" width="124" height="92" xlink:href="img/5.jpg"/>
<path d="M220.1,581.5H341.6V491.4H220.1v90.1Z" class="g3_187"/>
<image clip-path="url(#c5_187)" preserveAspectRatio="none" x="386" y="491" width="95" height="92" xlink:href="img/6.jpg"/>
<path d="M373,581.5H494.6V491.4H373v90.1Z" class="g3_187"/>
<image clip-path="url(#c6_187)" preserveAspectRatio="none" x="526" y="490" width="115" height="93" xlink:href="img/7.jpg"/>
<path d="M526,581.5H647.5V491.4H526v90.1Z" class="g3_187"/>
<image clip-path="url(#c7_187)" preserveAspectRatio="none" x="679" y="490" width="121" height="93" xlink:href="img/8.jpg"/>
<path d="M679,581.5H800.5V491.4H679v90.1Z" class="g3_187"/>
<image clip-path="url(#c8_187)" preserveAspectRatio="none" x="219" y="648" width="124" height="89" xlink:href="img/9.jpg"/>
<path clip-path="url(#c9_187)" d="M220.1,735.7H341.6V645.6H220.1v90.1Z" class="g3_187"/>
<image clip-path="url(#ca_187)" preserveAspectRatio="none" x="380" y="646" width="116" height="91" xlink:href="img/10.jpg"/>
<path clip-path="url(#c9_187)" d="M373,735.7H494.6V645.6H373v90.1Z" class="g3_187"/>
<image clip-path="url(#cb_187)" preserveAspectRatio="none" x="539" y="646" width="90" height="90" xlink:href="img/11.jpg"/>
<path clip-path="url(#c9_187)" d="M526,735.7H647.5V645.6H526v90.1Z" class="g3_187"/>
<image clip-path="url(#cc_187)" preserveAspectRatio="none" x="691" y="644" width="99" height="92" xlink:href="img/12.jpg"/>
<path clip-path="url(#c9_187)" d="M679,735.7H800.5V645.6H679v90.1Z" class="g3_187"/>
<path d="M215.8,631.7H811.6V467.9H215.8V631.7Z" class="g1_187"/>
<image clip-path="url(#cd_187)" preserveAspectRatio="none" x="219" y="473" width="124" height="92" xlink:href="img/13.jpg"/>
<path d="M220.1,564.1H341.6v-90H220.1v90Z" class="g3_187"/>
<image clip-path="url(#ce_187)" preserveAspectRatio="none" x="386" y="474" width="95" height="91" xlink:href="img/14.jpg"/>
<path d="M373,564.1H494.6v-90H373v90Z" class="g3_187"/>
<image clip-path="url(#cf_187)" preserveAspectRatio="none" x="526" y="473" width="115" height="92" xlink:href="img/15.jpg"/>
<path d="M526,564.1H647.5v-90H526v90Z" class="g3_187"/>
<image clip-path="url(#cg_187)" preserveAspectRatio="none" x="679" y="473" width="121" height="92" xlink:href="img/16.jpg"/>
<path d="M679,564.1H800.5v-90H679v90Z" class="g3_187"/>
<image clip-path="url(#ch_187)" preserveAspectRatio="none" x="219" y="631" width="124" height="88" xlink:href="img/17.jpg"/>
<path clip-path="url(#ci_187)" d="M220.1,718.3H341.6v-90H220.1v90Z" class="g3_187"/>
<image clip-path="url(#cj_187)" preserveAspectRatio="none" x="380" y="628" width="116" height="92" xlink:href="img/18.jpg"/>
<path clip-path="url(#ci_187)" d="M373,718.3H494.6v-90H373v90Z" class="g3_187"/>
<image clip-path="url(#ck_187)" preserveAspectRatio="none" x="539" y="628" width="90" height="90" xlink:href="img/19.jpg"/>
<path clip-path="url(#ci_187)" d="M526,718.3H647.5v-90H526v90Z" class="g3_187"/>
<image clip-path="url(#cl_187)" preserveAspectRatio="none" x="691" y="627" width="99" height="92" xlink:href="img/20.jpg"/>
<path clip-path="url(#ci_187)" d="M679,718.3H800.5v-90H679v90Z" class="g3_187"/>
<path d="M203.1,472.6h628v-39h-628v39Z" class="g1_187"/>
<path d="M203.1,606.9h628v-39h-628v39Z" class="g1_187"/>
<path d="M215.8,740.8H811.6V609.4H215.8V740.8Z" class="g1_187"/>
<image clip-path="url(#cm_187)" preserveAspectRatio="none" x="219" y="616" width="124" height="89" xlink:href="img/21.jpg"/>
<path d="M220.1,704.1H341.6V614H220.1v90.1Z" class="g3_187"/>
<image clip-path="url(#cn_187)" preserveAspectRatio="none" x="380" y="614" width="116" height="91" xlink:href="img/22.jpg"/>
<path d="M373,704.1H494.6V614H373v90.1Z" class="g3_187"/>
<image clip-path="url(#co_187)" preserveAspectRatio="none" x="539" y="614" width="90" height="90" xlink:href="img/23.jpg"/>
<path d="M526,704.1H647.5V614H526v90.1Z" class="g3_187"/>
<image clip-path="url(#cp_187)" preserveAspectRatio="none" x="691" y="613" width="99" height="92" xlink:href="img/24.jpg"/>
<path d="M679,704.1H800.5V614H679v90.1Z" class="g3_187"/>
<path d="M203.1,745.4h628V706.5h-628v38.9Z" class="g1_187"/>
<path d="M166.7,954.9c0,0,-13,0,-13,13V1185c0,0,0,13,13,13H854.5c0,0,13,0,13,-13V967.9c0,0,0,-13,-13,-13Z" class="g1_187"/>
<path d="M166.7,954.9c0,0,-13,0,-13,13V1185c0,0,0,13,13,13H854.5c0,0,13,0,13,-13V967.9c0,0,0,-13,-13,-13H166.7Z" class="g2_187"/>
<path d="M222.9,1066.1h82.3V990.4H222.9v75.7Z" class="g1_187"/>
<image clip-path="url(#cq_187)" preserveAspectRatio="none" x="228" y="997" width="69" height="67" xlink:href="img/25.jpg"/>
<path d="M377.1,1066.4h95.3V995.5H377.1v70.9Z" class="g1_187"/>
<image clip-path="url(#cr_187)" preserveAspectRatio="none" x="380" y="1000" width="82" height="66" xlink:href="img/26.jpg"/>
<path d="M546.8,1071.5h86.6V995.7H546.8v75.8Z" class="g1_187"/>
<image clip-path="url(#cs_187)" preserveAspectRatio="none" x="550" y="1003" width="75" height="67" xlink:href="img/27.jpg"/>
<path d="M707,1071.5h86.7v-76H707v76Z" class="g1_187"/>
<image clip-path="url(#ct_187)" preserveAspectRatio="none" x="705" y="1004" width="81" height="67" xlink:href="img/28.jpg"/>
<path d="M267.7,1086.4c2,0,3.6,-1.7,3.6,-3.7c0,-1.9,-1.6,-3.6,-3.6,-3.6c-2,0,-3.6,1.7,-3.6,3.6c0,2,1.6,3.7,3.6,3.7Z" class="g4_187"/>
<path d="M587.1,1086.4c2,0,3.6,-1.7,3.6,-3.7c0,-1.9,-1.6,-3.6,-3.6,-3.6c-2,0,-3.6,1.7,-3.6,3.6c0,2,1.6,3.7,3.6,3.7Z" class="g4_187"/>
<path d="M412,1086.4c2,0,3.6,-1.7,3.6,-3.7c0,-1.9,-1.6,-3.6,-3.6,-3.6c-2,0,-3.6,1.7,-3.6,3.6c0,2,1.6,3.7,3.6,3.7Z" class="g4_187"/>
<path d="M741.5,1086.4c2,0,3.6,-1.7,3.6,-3.7c0,-1.9,-1.6,-3.6,-3.6,-3.6c-2,0,-3.6,1.7,-3.6,3.6c0,2,1.6,3.7,3.6,3.7Z" class="g4_187"/>
<path d="M267.7,1139.4c2,0,3.6,-1.6,3.6,-3.6c0,-2,-1.6,-3.6,-3.6,-3.6c-2,0,-3.6,1.6,-3.6,3.6c0,2,1.6,3.6,3.6,3.6Z" class="g4_187"/>
<path d="M587.1,1139.4c2,0,3.6,-1.6,3.6,-3.6c0,-2,-1.6,-3.6,-3.6,-3.6c-2,0,-3.6,1.6,-3.6,3.6c0,2,1.6,3.6,3.6,3.6Z" class="g4_187"/>
<path d="M412,1139.4c2,0,3.6,-1.6,3.6,-3.6c0,-2,-1.6,-3.6,-3.6,-3.6c-2,0,-3.6,1.6,-3.6,3.6c0,2,1.6,3.6,3.6,3.6Z" class="g4_187"/>
<path d="M741.5,1139.4c2,0,3.6,-1.6,3.6,-3.6c0,-2,-1.6,-3.6,-3.6,-3.6c-2,0,-3.6,1.6,-3.6,3.6c0,2,1.6,3.6,3.6,3.6Z" class="g4_187"/>
<path d="M226.5,1148.8c0,0,-8.6,0,-8.6,8.6v15.2c0,0,0,8.7,8.6,8.7h69.3c0,0,8.7,0,8.7,-8.7v-15.2c0,0,0,-8.6,-8.7,-8.6Z" class="g5_187"/>
<path d="M551.7,1148.8c0,0,-8.7,0,-8.7,8.6v15.2c0,0,0,8.7,8.7,8.7H621c0,0,8.7,0,8.7,-8.7v-15.2c0,0,0,-8.6,-8.7,-8.6Z" class="g5_187"/>
<path d="M385.3,1148.8c0,0,-8.6,0,-8.6,8.6v15.2c0,0,0,8.7,8.6,8.7h69.3c0,0,8.7,0,8.7,-8.7v-15.2c0,0,0,-8.6,-8.7,-8.6Z" class="g5_187"/>
<path d="M718.1,1148.8c0,0,-8.7,0,-8.7,8.6v15.2c0,0,0,8.7,8.7,8.7h69.3c0,0,8.6,0,8.6,-8.7v-15.2c0,0,0,-8.6,-8.6,-8.6Z" class="g5_187"/>
<path d="M663.9,1214.8c0,0,-4.3,0,-4.3,4.4V1230c0,0,0,4.3,4.3,4.3h30.3c0,0,4.3,0,4.3,-4.3v-10.8c0,0,0,-4.4,-4.3,-4.4Z" class="g6_187"/>
<path d="M650.7,1206v37.5m1.3,1H866.8m.9,-1.3v-37.6m-1.3,-1H651.7" class="g7_187"/>
<path d="M650.7,1243.9v.6h.6m215.9,0h.5v-.6m0,-38.7v-.6h-.5m-215.9,0h-.6v.6" class="g8_187"/>
<path d="M172.1,773.8c0,0,-18.4,0,-18.4,18.3v52.8c0,0,0,18.3,18.4,18.3H849.2c0,0,18.3,0,18.3,-18.3V792.1c0,0,0,-18.3,-18.3,-18.3Z" class="g1_187"/>
<path d="M172.1,773.8c0,0,-18.4,0,-18.4,18.3v52.8c0,0,0,18.3,18.4,18.3H849.2c0,0,18.3,0,18.3,-18.3V792.1c0,0,0,-18.3,-18.3,-18.3H172.1Z" class="g9_187"/>
<path d="M179.1,756.9c0,0,-6.3,0,-6.3,6.3v19.3c0,0,0,6.3,6.3,6.3h162c0,0,6.2,0,6.2,-6.3V763.2c0,0,0,-6.3,-6.2,-6.3Z" class="ga_187"/>
<path d="M231.8,275c0,0,-13,0,-13,13v21.6c0,0,0,13,13,13h602c0,0,13,0,13,-13V288c0,0,0,-13,-13,-13Z" class="gb_187"/>
<image clip-path="url(#cu_187)" preserveAspectRatio="none" x="175" y="245" width="75" height="77" xlink:href="img/29.png"/>
<path d="M226.6,315.3c0,0,-26.9,11.3,-51.1,-12.8c0,0,15.1,25.3,49.3,24c0,0,24.7,.3,20.2,-10.1c0,0,1.2,-4.5,-18.4,-1.1Z" class="gb_187"/>
<path d="M233.3,899.6c0,0,-13,0,-13,13v21.6c0,0,0,13,13,13H854.9c0,0,13,0,13,-13V912.6c0,0,0,-13,-13,-13Z" class="gb_187"/>
<image clip-path="url(#cv_187)" preserveAspectRatio="none" x="176" y="870" width="75" height="76" xlink:href="img/30.png"/>
<path d="M228.1,939.8c0,0,-26.8,11.3,-51.1,-12.7c0,0,15.2,25.3,49.3,24c0,0,24.8,.3,20.3,-10.2c0,0,1.2,-4.4,-18.5,-1.1Z" class="gb_187"/>
<path d="M32.1,179.3H967.5V32.1H32.1V179.3Z" class="gc_187"/>
<g clip-path="url(#cw_187)">
<path d="M967.5,177.2H-877.3v-5.4h736.6c43.1,0,53.1,-37.9,115.3,-37.9H967.5Z" class="gd_187"/>
<path d="M967.5,183.7H-877.3v-9.8h736.6c43.1,0,53.1,-33.6,115.3,-33.6H967.5Z" class="ge_187"/>
</g>
<image clip-path="url(#cx_187)" preserveAspectRatio="none" x="659" y="59" width="200" height="118" xlink:href="img/31.png"/>
<path d="M153.3,217.5v22.2L165,250V227.8Z" class="gf_187"/>
<path d="M153.3,200.7v39H851.1c0,0,16.8,0,16.8,-16.8v-5.4c0,0,0,-16.8,-16.8,-16.8Z" class="g6_187"/>
<path d="M211.3,212.1l-6.5,-6.4l-21.2,21.2l6.5,6.4Z" class="gg_187"/>
<path d="M190.1,233.9c.1,0,.3,-.1,.4,-.2l21.2,-21.2c.1,-.1,.1,-.2,.1,-.4c0,-.1,0,-.2,-.1,-.3l-6.5,-6.5c-.2,-.2,-.6,-.2,-.8,0l-21.2,21.2c-.1,.1,-.1,.2,-.1,.4c0,.1,0,.2,.1,.3l6.5,6.5c.1,.1,.3,.2,.4,.2m20.5,-21.8l-20.5,20.5l-5.8,-5.7l20.5,-20.5Z" class="gh_187"/>
<path d="M211.3,212.1l-6.5,-6.4l2.1,-2.2l6.5,6.5Z" class="gi_187"/>
<path d="M211.3,212.7c.1,0,.3,-.1,.4,-.2l2.1,-2.1c.1,-.1,.2,-.2,.2,-.4c0,-.1,-.1,-.3,-.2,-.4l-6.5,-6.4c-.2,-.3,-.5,-.3,-.7,0l-2.2,2.1c-.1,.1,-.1,.2,-.1,.4c0,.1,0,.2,.1,.3l6.5,6.5c.1,.1,.3,.2,.4,.2m1.4,-2.7l-1.4,1.4l-5.7,-5.7l1.3,-1.4Z" class="gh_187"/>
<path d="M217,206.4l-6.4,-6.5l-3.7,3.6l6.5,6.5Z" class="gj_187"/>
<path d="M213.4,210.5c.2,0,.3,0,.4,-.1l3.6,-3.6c.2,-.2,.2,-.6,0,-.8l-6.5,-6.5c-.2,-.2,-.5,-.2,-.7,0l-3.6,3.7c-.2,.2,-.2,.5,0,.7l6.5,6.5c.1,.1,.2,.1,.3,.1m2.9,-4.1l-2.9,2.9l-5.7,-5.8l2.9,-2.8Z" class="gh_187"/>
<path d="M179,238l4.6,-11.1l6.5,6.4Z" class="g1_187"/>
<path d="M179,238.5c0,0,.1,0,.2,0l11.1,-4.7c.2,0,.3,-.2,.3,-.4c0,-.1,0,-.3,-.1,-.4L184,226.5c-.1,-.1,-.3,-.2,-.5,-.1c-.2,0,-.3,.1,-.4,.3l-4.6,11.1c-.1,.2,0,.4,.1,.6c.1,.1,.2,.1,.4,.1m10.2,-5.3l-9.3,3.8l3.9,-9.2Z" class="gh_187"/>
<path d="M179,238l2.2,-5.4l3.1,3.1Z" class="gh_187"/>
<path d="M179,238.5c0,0,.1,0,.2,0l5.3,-2.3c.2,0,.3,-.2,.4,-.4c0,-.1,-.1,-.3,-.2,-.4l-3.1,-3.2c-.1,-.1,-.3,-.1,-.5,-.1c-.2,0,-.3,.2,-.4,.3l-2.2,5.4c-.1,.2,0,.4,.1,.6c.1,.1,.2,.1,.4,.1m4.4,-2.9l-3.5,1.4l1.5,-3.5Z" class="gh_187"/>
<path d="M209.5,210.4l-2.9,-3l-21.2,21.2l2.9,3Z" class="gk_187"/>
<path d="M188.3,232.1c.2,0,.3,0,.4,-.1l21.2,-21.2c.1,-.1,.2,-.3,.2,-.4c0,-.2,-.1,-.3,-.2,-.4l-3,-3c-.2,-.2,-.5,-.2,-.7,0L185,228.3c-.1,.1,-.2,.2,-.2,.3c0,.2,.1,.3,.2,.4l3,3c.1,.1,.2,.1,.3,.1m20.5,-21.7l-20.5,20.4l-2.2,-2.2l20.5,-20.4Z" class="gh_187"/>
<path d="M32.1,45.1H9.2m958.3,0h22.9M32.1,1331.3H9.2m958.3,0h22.9M45.1,32.1V9.2m0,1335.1v22.9M954.5,32.1V9.2m0,1335.1v22.9" class="gl_187"/>
<path d="M32.1,45.1H9.2m958.3,0h22.9M32.1,1331.3H9.2m958.3,0h22.9M45.1,32.1V9.2m0,1335.1v22.9M954.5,32.1V9.2m0,1335.1v22.9" class="gm_187"/>
<path d="M27.5,32.1H0m972.1,0h27.5M27.5,1344.3H0m972.1,0h27.5M32.1,27.5V0m0,1348.9v27.5M967.5,27.5V0m0,1348.9v27.5" class="gl_187"/>
<path d="M27.5,32.1H0m972.1,0h27.5M27.5,1344.3H0m972.1,0h27.5M32.1,27.5V0m0,1348.9v27.5M967.5,27.5V0m0,1348.9v27.5" class="gm_187"/>
</svg>