<?xml version="1.0" encoding="UTF-8" standalone="no"?>
<!DOCTYPE svg PUBLIC "-//W3C//DTD SVG 1.1//EN"
"http://www.w3.org/Graphics/SVG/1.1/DTD/svg11.dtd">
<svg viewBox="0 0 999 1376" version="1.1" xmlns="http://www.w3.org/2000/svg" xmlns:xlink="http://www.w3.org/1999/xlink">
<defs>
<clipPath id="c0_317"><path d="M32.1,1344.3V32.1H967.5V1344.3Z"/></clipPath>
<clipPath id="c1_317"><path d="M682.7,178.5V60.3H865.1V178.5Z"/></clipPath>
<clipPath id="c2_317"><path d="M215,433V324.1H831.1V433Z"/></clipPath>
<clipPath id="c3_317"><path d="M215,568.8V490.2H822.2v78.6Z"/></clipPath>
<clipPath id="c4_317"><path d="M215,704.6V626H831.1v78.6Z"/></clipPath>
<clipPath id="c5_317"><path d="M191.6,924.3V793.4H830.7V924.3Z"/></clipPath>
<style type="text/css"><![CDATA[
.g0_317{
fill: #FEFCF4;
}
.g1_317{
fill: #F16865;
}
.g2_317{
fill: #6381B7;
}
.g3_317{
fill: none;
stroke: #6381B7;
stroke-width: 0.381;
stroke-dasharray: 2,1;
}
.g4_317{
fill: none;
stroke: #6381B7;
stroke-width: 0.381;
}
.g5_317{
fill: #FEF9F9;
}
.g6_317{
fill: none;
stroke: #A164A9;
stroke-width: 1.527;
stroke-linecap: round;
stroke-linejoin: round;
stroke-dasharray: 0,5;
}
.g7_317{
fill: none;
stroke: #A164A9;
stroke-width: 1.527;
stroke-linecap: round;
stroke-linejoin: round;
}
.g8_317{
fill: #A164A9;
}
.g9_317{
fill: #FFF;
}
.ga_317{
fill: none;
stroke: #231F20;
stroke-width: 0.305;
stroke-miterlimit: 10;
}
.gb_317{
fill: none;
stroke: #FFF;
stroke-width: 1.909;
stroke-miterlimit: 10;
}
.gc_317{
fill: none;
stroke: #000;
stroke-width: 0.381;
stroke-miterlimit: 10;
}
]]></style>
</defs>
<path clip-path="url(#c0_317)" d="M-877.3,1344.3H45.1V32.1H-877.3V1344.3Z" class="g0_317"/>
<path d="M45.1,1344.3H967.5V32.1H45.1V1344.3Z" class="g0_317"/>
<path clip-path="url(#c0_317)" d="M867.9,166.7c0,0,30.3,0,30.3,-30.3v-4.3c0,0,0,-30.3,-30.3,-30.3H-735.4c0,0,-30.4,0,-30.4,30.3v4.3c0,0,0,30.3,30.4,30.3Z" class="g1_317"/>
<path d="M669.1,1014.7c0,0,-4.4,0,-4.4,4.3v10.8c0,0,0,4.4,4.4,4.4h30.3c0,0,4.3,0,4.3,-4.4V1019c0,0,0,-4.3,-4.3,-4.3Z" class="g2_317"/>
<path d="M655.9,1007.2V1042m1.3,1H866.8m.9,-1.4v-34.8m-1.3,-1H656.8" class="g3_317"/>
<path d="M655.9,1042.4v.6h.6m210.7,0h.5v-.6m0,-36v-.6h-.5m-210.7,0h-.6v.6" class="g4_317"/>
<image clip-path="url(#c1_317)" preserveAspectRatio="none" x="683" y="60" width="182" height="118" xlink:href="img/1.png"/>
<path d="M154.1,992.7h713V251h-713V992.7Z" class="g5_317"/>
<path d="M154.1,255.6V990.4m4.6,2.3H864.9m2.2,-4.5V253.3M862.6,251H156.4" class="g6_317"/>
<path d="M154.1,992.7v0m713.1,0v0m0,-741.7v0m-713.1,0v0" class="g7_317"/>
<path d="M153.3,265.3V227c0,0,0,-8.7,8.7,-8.7H859.3c0,0,8.6,0,8.6,8.7v38.9Z" class="g8_317"/>
<image clip-path="url(#c2_317)" preserveAspectRatio="none" x="215" y="324" width="615" height="109" xlink:href="img/2.png"/>
<path d="M218.3,426.9H824.6V327.3H218.3v99.6Z" class="g9_317"/>
<path d="M608,357.1h69.9" class="ga_317"/>
<image clip-path="url(#c3_317)" preserveAspectRatio="none" x="215" y="490" width="607" height="79" xlink:href="img/3.png"/>
<path d="M218.3,562.7H815.9V493.4H218.3v69.3Z" class="g9_317"/>
<path d="M358.4,523.2h62.4" class="ga_317"/>
<image clip-path="url(#c4_317)" preserveAspectRatio="none" x="215" y="626" width="615" height="79" xlink:href="img/4.png"/>
<path d="M218.3,698.5H824.6V629.2H218.3v69.3Z" class="g9_317"/>
<path d="M419.7,659h66.7" class="ga_317"/>
<image clip-path="url(#c5_317)" preserveAspectRatio="none" x="191" y="794" width="639" height="131" xlink:href="img/5.png"/>
<path d="M194.9,917.9H824.6V796.6H194.9V917.9Z" class="g9_317"/>
<path d="M32.1,45.1H9.2m958.3,0h22.9M32.1,1331.3H9.2m958.3,0h22.9M45.1,32.1V9.2m0,1335.1v22.9M954.5,32.1V9.2m0,1335.1v22.9" class="gb_317"/>
<path d="M32.1,45.1H9.2m958.3,0h22.9M32.1,1331.3H9.2m958.3,0h22.9M45.1,32.1V9.2m0,1335.1v22.9M954.5,32.1V9.2m0,1335.1v22.9" class="gc_317"/>
<path d="M27.5,32.1H0m972.1,0h27.5M27.5,1344.3H0m972.1,0h27.5M32.1,27.5V0m0,1348.9v27.5M967.5,27.5V0m0,1348.9v27.5" class="gb_317"/>
<path d="M27.5,32.1H0m972.1,0h27.5M27.5,1344.3H0m972.1,0h27.5M32.1,27.5V0m0,1348.9v27.5M967.5,27.5V0m0,1348.9v27.5" class="gc_317"/>
</svg>