<?xml version="1.0" encoding="UTF-8" standalone="no"?>
<!DOCTYPE svg PUBLIC "-//W3C//DTD SVG 1.1//EN"
"http://www.w3.org/Graphics/SVG/1.1/DTD/svg11.dtd">
<svg viewBox="0 0 999 1376" version="1.1" xmlns="http://www.w3.org/2000/svg" xmlns:xlink="http://www.w3.org/1999/xlink">
<defs>
<clipPath id="c0_79"><path d="M32.1,1344.3V32.1H967.5V1344.3Z"/></clipPath>
<clipPath id="c1_79"><path d="M227.2,424.9V347.2h88.3v77.7Z"/></clipPath>
<clipPath id="c2_79"><path d="M548.4,424.9V347.2h87.2v77.7Z"/></clipPath>
<clipPath id="c3_79"><path d="M383.4,424.9V347.2h90.3v77.7Z"/></clipPath>
<clipPath id="c4_79"><path d="M712.9,424.9V347.2H794v77.7Z"/></clipPath>
<clipPath id="c5_79"><path d="M226.4,551.6V473.9h91.9v77.7Z"/></clipPath>
<clipPath id="c6_79"><path d="M382.5,551.6V473.9h91.9v77.7Z"/></clipPath>
<clipPath id="c7_79"><path d="M542.6,551.6V473.9H635v77.7Z"/></clipPath>
<clipPath id="c8_79"><path d="M705.7,551.6V473.9h96.9v77.7Z"/></clipPath>
<clipPath id="c9_79"><path d="M218,678.3V600.7H325.5v77.6Z"/></clipPath>
<clipPath id="ca_79"><path d="M541.1,678.3V600.7H652.7v77.6Z"/></clipPath>
<clipPath id="cb_79"><path d="M380.8,678.3V600.7h90.5v77.6Z"/></clipPath>
<clipPath id="cc_79"><path d="M709,678.3V600.7H812.2v77.6Z"/></clipPath>
<clipPath id="cd_79"><path d="M219.9,805V727.4h93.5V805Z"/></clipPath>
<clipPath id="ce_79"><path d="M542.5,805V727.4h93.2V805Z"/></clipPath>
<clipPath id="cf_79"><path d="M386.2,805V727.4h88.6V805Z"/></clipPath>
<clipPath id="cg_79"><path d="M706.6,805V727.4H806.7V805Z"/></clipPath>
<clipPath id="ch_79"><path d="M670.1,1088v-85.8H756V1088Z"/></clipPath>
<clipPath id="ci_79"><path d="M524.9,1088v-85.8h85.8V1088Z"/></clipPath>
<clipPath id="cj_79"><path d="M386.2,1088v-80.2h79.2V1088Z"/></clipPath>
<clipPath id="ck_79"><path d="M233.5,1094.2v-85.9h85.8v85.9Z"/></clipPath>
<clipPath id="cl_79"><path d="M199.2,332.6l-6.5,-2.1l-16.4,-14V259.4h72v73.2Z"/></clipPath>
<clipPath id="cm_79"><path d="M208.1,936.3l-6.5,-2.1l-16.4,-14v-57h72v73.1Z"/></clipPath>
<clipPath id="cn_79"><path d="M658.6,177V59h200V177Z"/></clipPath>
<style type="text/css"><![CDATA[
.g0_79{
fill: #FEFCF4;
}
.g1_79{
fill: #FFF;
}
.g2_79{
fill: none;
stroke: #6381B7;
stroke-width: 0.763;
}
.g3_79{
fill: none;
stroke: #949698;
stroke-width: 0.381;
}
.g4_79{
fill: #7CA7D8;
}
.g5_79{
fill: #EEDEBF;
}
.g6_79{
fill: #6381B7;
}
.g7_79{
fill: none;
stroke: #6381B7;
stroke-width: 0.381;
stroke-dasharray: 2,1;
}
.g8_79{
fill: none;
stroke: #6381B7;
stroke-width: 0.381;
}
.g9_79{
fill: #FCE8B0;
}
.ga_79{
fill: #2E6E51;
}
.gb_79{
fill: #BCBEC0;
}
.gc_79{
fill: #EE314A;
}
.gd_79{
fill: #25408F;
}
.ge_79{
fill: #00BAF1;
}
.gf_79{
fill: #332D2C;
}
.gg_79{
fill: #D9DFF0;
}
.gh_79{
fill: #F27C85;
}
.gi_79{
fill: #7DD3F6;
}
.gj_79{
fill: none;
stroke: #FFF;
stroke-width: 1.909;
stroke-miterlimit: 10;
}
.gk_79{
fill: none;
stroke: #000;
stroke-width: 0.381;
stroke-miterlimit: 10;
}
]]></style>
</defs>
<path d="M45.1,1344.3H967.5V32.1H45.1V1344.3Z" class="g0_79"/>
<path clip-path="url(#c0_79)" d="M-877.3,1344.3H45.1V32.1H-877.3V1344.3Z" class="g0_79"/>
<path d="M172.1,220.3c0,0,-18.4,0,-18.4,18.3V841c0,0,0,18.3,18.4,18.3H849.2c0,0,18.3,0,18.3,-18.3V220.3Z" class="g1_79"/>
<path d="M172.1,220.3c0,0,-18.4,0,-18.4,18.3V841c0,0,0,18.3,18.4,18.3H849.2c0,0,18.3,0,18.3,-18.3V220.3H172.1Z" class="g2_79"/>
<path d="M205,424.9H325.5V347.2H205v77.7Z" class="g1_79"/>
<image clip-path="url(#c1_79)" preserveAspectRatio="none" x="227" y="345" width="89" height="82" xlink:href="img/1.jpg"/>
<path d="M205,424.9H325.5V347.2H205v77.7Z" class="g3_79"/>
<path d="M532.2,424.9H652.7V347.2H532.2v77.7Z" class="g1_79"/>
<image clip-path="url(#c2_79)" preserveAspectRatio="none" x="548" y="346" width="88" height="80" xlink:href="img/2.jpg"/>
<path d="M532.2,424.9H652.7V347.2H532.2v77.7Z" class="g3_79"/>
<path d="M368.6,424.9H489.1V347.2H368.6v77.7Z" class="g1_79"/>
<image clip-path="url(#c3_79)" preserveAspectRatio="none" x="383" y="345" width="91" height="82" xlink:href="img/3.jpg"/>
<path d="M368.6,424.9H489.1V347.2H368.6v77.7Z" class="g3_79"/>
<path d="M695.8,424.9H816.3V347.2H695.8v77.7Z" class="g1_79"/>
<image clip-path="url(#c4_79)" preserveAspectRatio="none" x="713" y="346" width="81" height="80" xlink:href="img/4.jpg"/>
<path d="M695.8,424.9H816.3V347.2H695.8v77.7Z" class="g3_79"/>
<path d="M205,551.6H325.5V473.9H205v77.7Z" class="g1_79"/>
<image clip-path="url(#c5_79)" preserveAspectRatio="none" x="226" y="472" width="92" height="81" xlink:href="img/5.jpg"/>
<path d="M205,551.6H325.5V473.9H205v77.7Z" class="g3_79"/>
<path d="M368.6,551.6H489.1V473.9H368.6v77.7Z" class="g1_79"/>
<image clip-path="url(#c6_79)" preserveAspectRatio="none" x="382" y="472" width="92" height="81" xlink:href="img/6.jpg"/>
<path d="M368.6,551.6H489.1V473.9H368.6v77.7Z" class="g3_79"/>
<path d="M532.2,551.6H652.7V473.9H532.2v77.7Z" class="g1_79"/>
<image clip-path="url(#c7_79)" preserveAspectRatio="none" x="543" y="472" width="92" height="81" xlink:href="img/7.jpg"/>
<path d="M532.2,551.6H652.7V473.9H532.2v77.7Z" class="g3_79"/>
<path d="M695.8,551.6H816.3V473.9H695.8v77.7Z" class="g1_79"/>
<image clip-path="url(#c8_79)" preserveAspectRatio="none" x="706" y="472" width="97" height="81" xlink:href="img/8.jpg"/>
<path d="M695.8,551.6H816.3V473.9H695.8v77.7Z" class="g3_79"/>
<path d="M205,678.3H325.5V600.7H205v77.6Z" class="g1_79"/>
<image clip-path="url(#c9_79)" preserveAspectRatio="none" x="218" y="599" width="108" height="81" xlink:href="img/9.jpg"/>
<path d="M205,678.3H325.5V600.7H205v77.6Z" class="g3_79"/>
<path d="M532.2,678.3H652.7V600.7H532.2v77.6Z" class="g1_79"/>
<image clip-path="url(#ca_79)" preserveAspectRatio="none" x="541" y="599" width="113" height="81" xlink:href="img/10.jpg"/>
<path d="M532.2,678.3H652.7V600.7H532.2v77.6Z" class="g3_79"/>
<path d="M368.6,678.3H489.1V600.7H368.6v77.6Z" class="g1_79"/>
<image clip-path="url(#cb_79)" preserveAspectRatio="none" x="381" y="599" width="90" height="81" xlink:href="img/11.jpg"/>
<path d="M368.6,678.3H489.1V600.7H368.6v77.6Z" class="g3_79"/>
<path d="M695.8,678.3H816.3V600.7H695.8v77.6Z" class="g1_79"/>
<image clip-path="url(#cc_79)" preserveAspectRatio="none" x="709" y="599" width="103" height="81" xlink:href="img/12.jpg"/>
<path d="M695.8,678.3H816.3V600.7H695.8v77.6Z" class="g3_79"/>
<path d="M205,805H325.5V727.4H205V805Z" class="g1_79"/>
<image clip-path="url(#cd_79)" preserveAspectRatio="none" x="220" y="726" width="93" height="81" xlink:href="img/13.jpg"/>
<path d="M205,805H325.5V727.4H205V805Z" class="g3_79"/>
<path d="M532.2,805H652.7V727.4H532.2V805Z" class="g1_79"/>
<image clip-path="url(#ce_79)" preserveAspectRatio="none" x="542" y="726" width="94" height="81" xlink:href="img/14.jpg"/>
<path d="M532.2,805H652.7V727.4H532.2V805Z" class="g3_79"/>
<path d="M368.6,805H489.1V727.4H368.6V805Z" class="g1_79"/>
<image clip-path="url(#cf_79)" preserveAspectRatio="none" x="386" y="727" width="89" height="80" xlink:href="img/15.jpg"/>
<path d="M368.6,805H489.1V727.4H368.6V805Z" class="g3_79"/>
<path d="M695.8,805H816.3V727.4H695.8V805Z" class="g1_79"/>
<image clip-path="url(#cg_79)" preserveAspectRatio="none" x="707" y="726" width="100" height="81" xlink:href="img/16.jpg"/>
<path d="M695.8,805H816.3V727.4H695.8V805Z" class="g3_79"/>
<path d="M166.7,950.6c0,0,-13,0,-13,13v220.1c0,0,0,13,13,13H854.5c0,0,13,0,13,-13V963.6c0,0,0,-13,-13,-13Z" class="g1_79"/>
<path d="M166.7,950.6c0,0,-13,0,-13,13v220.1c0,0,0,13,13,13H854.5c0,0,13,0,13,-13V963.6c0,0,0,-13,-13,-13H166.7Z" class="g2_79"/>
<image clip-path="url(#ch_79)" preserveAspectRatio="none" x="670" y="1002" width="86" height="86" xlink:href="img/17.jpg"/>
<image clip-path="url(#ci_79)" preserveAspectRatio="none" x="525" y="1002" width="86" height="86" xlink:href="img/18.jpg"/>
<image clip-path="url(#cj_79)" preserveAspectRatio="none" x="386" y="1006" width="81" height="82" xlink:href="img/19.jpg"/>
<image clip-path="url(#ck_79)" preserveAspectRatio="none" x="233" y="1008" width="86" height="86" xlink:href="img/20.jpg"/>
<path d="M265.2,1093.1c2,0,3.6,-1.6,3.6,-3.6c0,-2,-1.6,-3.6,-3.6,-3.6c-2,0,-3.6,1.6,-3.6,3.6c0,2,1.6,3.6,3.6,3.6Z" class="g4_79"/>
<path d="M566.9,1093.1c2,0,3.6,-1.6,3.6,-3.6c0,-2,-1.6,-3.6,-3.6,-3.6c-2,0,-3.6,1.6,-3.6,3.6c0,2,1.6,3.6,3.6,3.6Z" class="g4_79"/>
<path d="M421.1,1093.1c2,0,3.6,-1.6,3.6,-3.6c0,-2,-1.6,-3.6,-3.6,-3.6c-2,0,-3.6,1.6,-3.6,3.6c0,2,1.6,3.6,3.6,3.6Z" class="g4_79"/>
<path d="M712.7,1093.1c2,0,3.6,-1.6,3.6,-3.6c0,-2,-1.6,-3.6,-3.6,-3.6c-2,0,-3.6,1.6,-3.6,3.6c0,2,1.6,3.6,3.6,3.6Z" class="g4_79"/>
<path d="M265.2,1135c2,0,3.6,-1.6,3.6,-3.6c0,-2,-1.6,-3.6,-3.6,-3.6c-2,0,-3.6,1.6,-3.6,3.6c0,2,1.6,3.6,3.6,3.6Z" class="g4_79"/>
<path d="M566.9,1135c2,0,3.6,-1.6,3.6,-3.6c0,-2,-1.6,-3.6,-3.6,-3.6c-2,0,-3.6,1.6,-3.6,3.6c0,2,1.6,3.6,3.6,3.6Z" class="g4_79"/>
<path d="M421.1,1135c2,0,3.6,-1.6,3.6,-3.6c0,-2,-1.6,-3.6,-3.6,-3.6c-2,0,-3.6,1.6,-3.6,3.6c0,2,1.6,3.6,3.6,3.6Z" class="g4_79"/>
<path d="M712.7,1135c2,0,3.6,-1.6,3.6,-3.6c0,-2,-1.6,-3.6,-3.6,-3.6c-2,0,-3.6,1.6,-3.6,3.6c0,2,1.6,3.6,3.6,3.6Z" class="g4_79"/>
<path d="M237.8,1149.4c0,0,-8.7,0,-8.7,8.7v15.1c0,0,0,8.7,8.7,8.7h69.3c0,0,8.6,0,8.6,-8.7v-15.1c0,0,0,-8.7,-8.6,-8.7Z" class="g5_79"/>
<path d="M535.9,1149.4c0,0,-8.7,0,-8.7,8.7v15.1c0,0,0,8.7,8.7,8.7h69.3c0,0,8.6,0,8.6,-8.7v-15.1c0,0,0,-8.7,-8.6,-8.7Z" class="g5_79"/>
<path d="M386.8,1149.4c0,0,-8.6,0,-8.6,8.7v15.1c0,0,0,8.7,8.6,8.7h69.3c0,0,8.7,0,8.7,-8.7v-15.1c0,0,0,-8.7,-8.7,-8.7Z" class="g5_79"/>
<path d="M684.9,1149.4c0,0,-8.6,0,-8.6,8.7v15.1c0,0,0,8.7,8.6,8.7h69.3c0,0,8.7,0,8.7,-8.7v-15.1c0,0,0,-8.7,-8.7,-8.7Z" class="g5_79"/>
<path d="M664.7,1214.8c0,0,-4.3,0,-4.3,4.4V1230c0,0,0,4.3,4.3,4.3h30.4c0,0,4.3,0,4.3,-4.3v-10.8c0,0,0,-4.4,-4.3,-4.4Z" class="g6_79"/>
<path d="M651.6,1206v37.5m1.3,1H866.8m.9,-1.3v-37.6m-1.3,-1H652.5" class="g7_79"/>
<path d="M651.6,1243.9v.6h.5m215,0h.6v-.6m0,-38.7v-.6h-.6m-215,0h-.5v.6" class="g8_79"/>
<path d="M231.8,261.6c0,0,-13,0,-13,13v47.6c0,0,0,13,13,13h602c0,0,13,0,13,-13V274.6c0,0,0,-13,-13,-13Z" class="g9_79"/>
<image clip-path="url(#cl_79)" preserveAspectRatio="none" x="175" y="258" width="75" height="76" xlink:href="img/21.png"/>
<path d="M226.6,327.9c0,0,-26.9,11.3,-51.1,-12.8c0,0,15.1,25.3,49.3,24c0,0,24.7,.3,20.2,-10.1c0,0,1.2,-4.5,-18.4,-1.1Z" class="g9_79"/>
<path d="M240.7,891.3c0,0,-13,0,-13,13v21.6c0,0,0,13,13,13H854.2c0,0,12.9,0,12.9,-13V904.3c0,0,0,-13,-12.9,-13Z" class="g9_79"/>
<image clip-path="url(#cm_79)" preserveAspectRatio="none" x="184" y="862" width="75" height="76" xlink:href="img/22.png"/>
<path d="M235.5,931.6c0,0,-26.8,11.3,-51.1,-12.8c0,0,15.2,25.3,49.3,24c0,0,24.8,.3,20.3,-10.1c0,0,1.2,-4.5,-18.5,-1.1Z" class="g9_79"/>
<path d="M32.1,179.3H967.5V32.1H32.1V179.3Z" class="ga_79"/>
<g clip-path="url(#c0_79)">
<path d="M967.5,177.2H-877.3v-5.4h736.6c43.1,0,53.1,-37.9,115.3,-37.9H967.5Z" class="gb_79"/>
<path d="M967.5,183.7H-877.3v-9.8h736.6c43.1,0,53.1,-33.6,115.3,-33.6H967.5Z" class="gc_79"/>
</g>
<path d="M153.3,217.5v22.2L165,250V227.8Z" class="gd_79"/>
<path d="M153.3,200.7v39H851.1c0,0,16.8,0,16.8,-16.8v-5.4c0,0,0,-16.8,-16.8,-16.8Z" class="g6_79"/>
<path d="M211.3,212.1l-6.5,-6.4l-21.2,21.2l6.5,6.4Z" class="ge_79"/>
<path d="M190.1,233.9c.1,0,.3,-.1,.4,-.2l21.2,-21.2c.1,-.1,.1,-.2,.1,-.4c0,-.1,0,-.2,-.1,-.3l-6.5,-6.5c-.2,-.2,-.6,-.2,-.8,0l-21.2,21.2c-.1,.1,-.1,.2,-.1,.4c0,.1,0,.2,.1,.3l6.5,6.5c.1,.1,.3,.2,.4,.2m20.5,-21.8l-20.5,20.5l-5.8,-5.7l20.5,-20.5Z" class="gf_79"/>
<path d="M211.3,212.1l-6.5,-6.4l2.1,-2.2l6.5,6.5Z" class="gg_79"/>
<path d="M211.3,212.7c.1,0,.3,-.1,.4,-.2l2.1,-2.1c.1,-.1,.2,-.2,.2,-.4c0,-.1,-.1,-.3,-.2,-.4l-6.5,-6.4c-.2,-.3,-.5,-.3,-.7,0l-2.2,2.1c-.1,.1,-.1,.2,-.1,.4c0,.1,0,.2,.1,.3l6.5,6.5c.1,.1,.3,.2,.4,.2m1.4,-2.7l-1.4,1.4l-5.7,-5.7l1.3,-1.4Z" class="gf_79"/>
<path d="M217,206.4l-6.4,-6.5l-3.7,3.6l6.5,6.5Z" class="gh_79"/>
<path d="M213.4,210.5c.2,0,.3,0,.4,-.1l3.6,-3.6c.2,-.2,.2,-.6,0,-.8l-6.5,-6.5c-.2,-.2,-.5,-.2,-.7,0l-3.6,3.7c-.2,.2,-.2,.5,0,.7l6.5,6.5c.1,.1,.2,.1,.3,.1m2.9,-4.1l-2.9,2.9l-5.7,-5.8l2.9,-2.8Z" class="gf_79"/>
<path d="M179,238l4.6,-11.1l6.5,6.4Z" class="g1_79"/>
<path d="M179,238.5c0,0,.1,0,.2,0l11.1,-4.7c.2,0,.3,-.2,.3,-.4c0,-.1,0,-.3,-.1,-.4L184,226.5c-.1,-.1,-.3,-.2,-.5,-.1c-.2,0,-.3,.1,-.4,.3l-4.6,11.1c-.1,.2,0,.4,.1,.6c.1,.1,.2,.1,.4,.1m10.2,-5.3l-9.3,3.8l3.9,-9.2Z" class="gf_79"/>
<path d="M179,238l2.2,-5.4l3.1,3.1Z" class="gf_79"/>
<path d="M179,238.5c0,0,.1,0,.2,0l5.3,-2.3c.2,0,.3,-.2,.4,-.4c0,-.1,-.1,-.3,-.2,-.4l-3.1,-3.2c-.1,-.1,-.3,-.1,-.5,-.1c-.2,0,-.3,.2,-.4,.3l-2.2,5.4c-.1,.2,0,.4,.1,.6c.1,.1,.2,.1,.4,.1m4.4,-2.9l-3.5,1.4l1.5,-3.5Z" class="gf_79"/>
<path d="M209.5,210.4l-2.9,-3l-21.2,21.2l2.9,3Z" class="gi_79"/>
<path d="M188.3,232.1c.2,0,.3,0,.4,-.1l21.2,-21.2c.1,-.1,.2,-.3,.2,-.4c0,-.2,-.1,-.3,-.2,-.4l-3,-3c-.2,-.2,-.5,-.2,-.7,0L185,228.3c-.1,.1,-.2,.2,-.2,.3c0,.2,.1,.3,.2,.4l3,3c.1,.1,.2,.1,.3,.1m20.5,-21.7l-20.5,20.4l-2.2,-2.2l20.5,-20.4Z" class="gf_79"/>
<image clip-path="url(#cn_79)" preserveAspectRatio="none" x="659" y="59" width="200" height="118" xlink:href="img/23.png"/>
<path d="M32.1,45.1H9.2m958.3,0h22.9M32.1,1331.3H9.2m958.3,0h22.9M45.1,32.1V9.2m0,1335.1v22.9M954.5,32.1V9.2m0,1335.1v22.9" class="gj_79"/>
<path d="M32.1,45.1H9.2m958.3,0h22.9M32.1,1331.3H9.2m958.3,0h22.9M45.1,32.1V9.2m0,1335.1v22.9M954.5,32.1V9.2m0,1335.1v22.9" class="gk_79"/>
<path d="M27.5,32.1H0m972.1,0h27.5M27.5,1344.3H0m972.1,0h27.5M32.1,27.5V0m0,1348.9v27.5M967.5,27.5V0m0,1348.9v27.5" class="gj_79"/>
<path d="M27.5,32.1H0m972.1,0h27.5M27.5,1344.3H0m972.1,0h27.5M32.1,27.5V0m0,1348.9v27.5M967.5,27.5V0m0,1348.9v27.5" class="gk_79"/>
</svg>