<?xml version="1.0" encoding="UTF-8" standalone="no"?>
<!DOCTYPE svg PUBLIC "-//W3C//DTD SVG 1.1//EN"
"http://www.w3.org/Graphics/SVG/1.1/DTD/svg11.dtd">
<svg viewBox="0 0 999 1376" version="1.1" xmlns="http://www.w3.org/2000/svg" xmlns:xlink="http://www.w3.org/1999/xlink">
<defs>
<clipPath id="c0_225"><path d="M198.6,973.6l-6.5,-2.1l-16.4,-14V900.4h72v73.2Z"/></clipPath>
<clipPath id="c1_225"><path d="M199.2,246.7l-6.5,-2.1L176.3,230.7V173.6h72v73.1Z"/></clipPath>
<clipPath id="c2_225"><path d="M704.6,538.6V285H937.8V538.6Z"/></clipPath>
<clipPath id="c3_225"><path d="M709.5,537.4V285.5H932.8V537.4Z"/></clipPath>
<clipPath id="c4_225"><path d="M709.2,537.1V285.2H932.5V537.1Z"/></clipPath>
<clipPath id="c5_225"><path d="M815.3,309.4c-.3,-.1,3.5,-8.3,3.5,-8.3l.8,.5c0,0,-4,7.8,-4.3,7.8Z"/></clipPath>
<clipPath id="c6_225"><path d="M822.8,301.6c0,0,-6.9,-1.1,-7.6,-5.2c-.6,-3.6,1.5,-3.8,2.1,-3.8q.1,0,.1,0l8.3,-12.8l-1.4,-3c0,0,-.6,-1.2,.1,-2.1c.1,-.1,.2,-.1,.3,-.1c2.1,0,13,5.5,13,5.5v.2c-.3,.5,-.7,1.1,-1.4,1.6c-.6,.5,-5.1,1.2,-5.1,1.2l-8.4,18.5Z"/></clipPath>
<clipPath id="c7_225"><path d="M822.4,301.3c.2,-.5,.2,-1.8,0,-2.3v-1.4c-1.5,-.5,-2.9,-1.2,-3.7,-2.5c-1.1,.6,-2.1,1.2,-3.1,1.9c1.5,2.1,3.8,3.5,6.8,4.3Zm0,-3.9c2.2,-4.6,4,-9.5,6.1,-14.1c-.8,-.4,-1.8,-1.3,-2.6,-1.4c-2.3,4.3,-4.6,8.6,-7,12.8c.7,1.4,2.1,2,3.5,2.7Zm-7.3,12c1,-2.9,2.4,-5.4,3.5,-8.3c-2,-1.5,-3.9,-3.1,-4.4,-6.1v-1.5c0,-2.7,1.9,-3.4,4.6,-3.4c0,0,.1,0,.2,0c1.9,-3.3,4.2,-6.3,6.1,-9.7c-.5,-.9,-1.1,-2.3,-.8,-3.6c.5,1.2,1.6,1.9,2.4,2.9c-.2,.6,-.3,1.1,-.4,1.7c.6,.7,1.3,1.2,2.4,1.4c.4,-.4,.5,-1.2,1.1,-1.5c.9,.3,1.8,.7,3.1,.7c.2,.2,.5,.2,.9,.2c.3,0,.6,0,.8,-.2c.1,.1,.2,.1,.3,.1c.2,0,.4,-.1,.6,-.2c.2,0,.3,-.1,.5,-.1c.1,0,.2,0,.3,.1c-1.3,.7,-2.2,1.8,-4.1,1.8c-.1,0,-.3,0,-.4,0c-.9,3.7,-1.9,7.3,-2.6,11.2c.5,1,1.5,1.6,1.2,3.1c-.4,2.7,-3.8,4.4,-7.2,4.4c-1.2,0,-2.5,-.2,-3.6,-.8c-1,2.1,-2.1,4.2,-3.3,6.1c0,-.4,.3,-.4,.3,-.8c1,-1.8,1.9,-3.6,2.6,-5.6c-1,1.7,-1.8,3.7,-2.7,5.5c-.2,.4,-.4,.8,-.7,1.3c-.2,.4,-.2,1.1,-.7,1.3Z"/></clipPath>
<clipPath id="c8_225"><path d="M832.8,281.7c-4.8,0,-13.1,-7.3,-5.5,-8.8h1.2c.2,0,.5,0,.7,0q.1,0,.2,0c.3,0,.6,0,.9,.1c3.1,.6,8.2,3.8,7.5,7c-.2,1.2,-1.5,1.6,-3.1,1.7h-1.9Z"/></clipPath>
<clipPath id="c9_225"><path d="M96.1,753.6V480.2H316.6V753.6Z"/></clipPath>
<clipPath id="ca_225"><path d="M91.3,750.3V478.6H318.5V750.3Z"/></clipPath>
<clipPath id="cb_225"><path d="M91,750V478.3H317.6V750Z"/></clipPath>
<clipPath id="cc_225"><path d="M194.7,500.6c-.3,-.1,3.5,-8.2,3.5,-8.2l.8,.5c0,0,-4,7.7,-4.3,7.7Z"/></clipPath>
<clipPath id="cd_225"><path d="M202.2,492.9c0,0,-6.9,-1.1,-7.6,-5.2c-.6,-3.6,1.5,-3.9,2.1,-3.9q.1,0,.1,0l8.3,-12.7L203.7,468c0,0,-.6,-1.1,.1,-2.1c.1,0,.2,-.1,.3,-.1c2.1,0,13,5.6,13,5.6v.1c-.3,.6,-.7,1.2,-1.4,1.7c-.6,.5,-5,1.1,-5,1.1l-8.5,18.6Z"/></clipPath>
<clipPath id="ce_225"><path d="M201.8,492.5c.2,-.4,.2,-1.8,0,-2.2v-1.4c-1.5,-.5,-2.9,-1.2,-3.7,-2.5c-1,.6,-2.1,1.2,-3.1,1.9c1.6,2.1,3.8,3.5,6.8,4.2Zm0,-3.9c2.2,-4.5,4,-9.5,6.1,-14c-.8,-.4,-1.8,-1.4,-2.6,-1.4c-2.3,4.3,-4.6,8.6,-7,12.8c.7,1.3,2.1,2,3.5,2.6Zm-7.3,12.1c1,-2.9,2.4,-5.5,3.5,-8.3c-2,-1.5,-3.9,-3.1,-4.4,-6.1v-1.6c0,-2.6,1.9,-3.3,4.6,-3.3c0,0,.1,0,.2,0c1.9,-3.4,4.2,-6.4,6.2,-9.7c-.6,-.9,-1.2,-2.4,-.9,-3.7c.5,1.3,1.6,1.9,2.4,2.9c-.2,.6,-.3,1.2,-.4,1.8c.6,.6,1.3,1.2,2.4,1.4c.4,-.5,.5,-1.3,1.1,-1.5c.9,.3,1.8,.7,3.1,.7c.2,.1,.5,.2,.9,.2c.3,0,.6,-.1,.8,-.2c.1,0,.2,.1,.3,.1c.2,0,.4,-.1,.6,-.2c.2,-.1,.4,-.1,.5,-.1c.1,0,.2,0,.3,.1c-1.3,.6,-2.2,1.8,-4.1,1.8c-.2,0,-.3,0,-.4,-.1c-.9,3.8,-1.8,7.4,-2.6,11.2c.5,1.1,1.5,1.7,1.2,3.2c-.4,2.7,-3.8,4.4,-7.2,4.4c-1.2,0,-2.5,-.3,-3.6,-.8c-1,2.1,-2,4.1,-3.2,6c-.1,-.3,.2,-.3,.2,-.7c1,-1.8,1.9,-3.6,2.6,-5.7c-1,1.7,-1.8,3.7,-2.7,5.6c-.2,.4,-.4,.8,-.6,1.2c-.3,.4,-.3,1.2,-.8,1.4Z"/></clipPath>
<clipPath id="cf_225"><path d="M212.2,472.9c-4.8,0,-13.1,-7.3,-5.5,-8.8h1.2c.2,.1,.4,.1,.6,.1c0,0,.1,0,.1,0c.4,0,.7,0,1.1,.1c3.1,.6,8.2,3.8,7.5,7c-.2,1.1,-1.5,1.6,-3.1,1.6h-1.9Z"/></clipPath>
<clipPath id="cg_225"><path d="M786.5,132.5V120.1H801v12.4Z"/></clipPath>
<style type="text/css"><![CDATA[
.g0_225{
fill: #FEFCF4;
}
.g1_225{
fill: #FFF;
}
.g2_225{
fill: none;
stroke: #6381B7;
stroke-width: 0.763;
}
.g3_225{
fill: #6381B7;
}
.g4_225{
fill: none;
stroke: #6381B7;
stroke-width: 0.381;
stroke-dasharray: 2,1;
}
.g5_225{
fill: none;
stroke: #6381B7;
stroke-width: 0.381;
}
.g6_225{
fill: #FCE8B0;
}
.g7_225{
fill: #F7C2D9;
}
.g8_225{
fill: #FDF4F3;
}
.g9_225{
fill: #EC008C;
}
.ga_225{
fill: none;
stroke: #949698;
stroke-width: 0.305;
stroke-dasharray: 3,3;
}
.gb_225{
fill: none;
stroke: #949698;
stroke-width: 0.305;
}
.gc_225{
fill: none;
stroke: #949698;
stroke-width: 0.305;
stroke-dasharray: 4,4;
}
.gd_225{
fill: #6D6F71;
}
.ge_225{
fill: #25408F;
}
.gf_225{
fill: #A8AAAD;
}
.gg_225{
fill: none;
stroke: #949698;
stroke-width: 0.549;
}
.gh_225{
fill: none;
stroke: #BCBEC0;
stroke-width: 2.566;
}
.gi_225{
fill: #231F20;
}
.gj_225{
fill: #363637;
}
.gk_225{
fill: #5CC4BE;
}
.gl_225{
fill: #F0D73F;
}
.gm_225{
fill: none;
stroke: #FFF;
stroke-width: 1.909;
stroke-miterlimit: 10;
}
.gn_225{
fill: none;
stroke: #000;
stroke-width: 0.381;
stroke-miterlimit: 10;
}
]]></style>
</defs>
<path d="M45.1,1344.3H967.5V32.1H45.1V1344.3Z" class="g0_225"/>
<path d="M172.1,136.8c0,0,-18.4,0,-18.4,18.3v688c0,0,0,18.4,18.4,18.4H849.2c0,0,18.3,0,18.3,-18.4V136.8Z" class="g1_225"/>
<path d="M172.1,136.8c0,0,-18.4,0,-18.4,18.3v688c0,0,0,18.4,18.4,18.4H849.2c0,0,18.3,0,18.3,-18.4V136.8H172.1Z" class="g2_225"/>
<path d="M638.8,1108.2c0,0,-4.4,0,-4.4,4.3v10.8c0,0,0,4.4,4.4,4.4h30.3c0,0,4.3,0,4.3,-4.4v-10.8c0,0,0,-4.3,-4.3,-4.3Z" class="g3_225"/>
<path d="M625.6,1100.7v54.9m1.3,.9H866.8m.9,-1.3v-54.9m-1.3,-1H626.5" class="g4_225"/>
<path d="M625.6,1155.9v.6h.6m241,0h.5v-.6m0,-56v-.6h-.5m-241,0h-.6v.6" class="g5_225"/>
<path d="M167.2,888.2c0,0,-13,0,-13,13v177.1c0,0,0,13,13,13H855c0,0,13,0,13,-13V901.2c0,0,0,-13,-13,-13Z" class="g1_225"/>
<path d="M167.2,888.2c0,0,-13,0,-13,13v177.1c0,0,0,13,13,13H855c0,0,13,0,13,-13V901.2c0,0,0,-13,-13,-13H167.2Z" class="g2_225"/>
<path d="M231.2,928.6c0,0,-12.9,0,-12.9,13v21.6c0,0,0,13,12.9,13H833.3c0,0,13,0,13,-13V941.6c0,0,0,-13,-13,-13Z" class="g6_225"/>
<image clip-path="url(#c0_225)" preserveAspectRatio="none" x="174" y="899" width="75" height="76" xlink:href="img/1.png"/>
<path d="M226,968.9c0,0,-26.8,11.3,-51.1,-12.8c0,0,15.2,25.3,49.3,24c0,0,24.8,.3,20.3,-10.2c0,0,1.2,-4.4,-18.5,-1Z" class="g6_225"/>
<path d="M231.8,175.7c0,0,-13,0,-13,13v47.7c0,0,0,13,13,13h602c0,0,13,0,13,-13V188.7c0,0,0,-13,-13,-13Z" class="g6_225"/>
<image clip-path="url(#c1_225)" preserveAspectRatio="none" x="175" y="172" width="75" height="76" xlink:href="img/2.png"/>
<path d="M226.6,242c0,0,-26.9,11.3,-51.1,-12.8c0,0,15.1,25.4,49.3,24c0,0,24.7,.4,20.2,-10.1c0,0,1.2,-4.5,-18.4,-1.1Z" class="g6_225"/>
<image clip-path="url(#c2_225)" preserveAspectRatio="none" x="704" y="286" width="233" height="253" xlink:href="img/3.png"/>
<path d="M709.8,301l6.1,231.3L931.6,521.8L923.8,289.7Z" class="g7_225"/>
<image clip-path="url(#c3_225)" preserveAspectRatio="none" x="709" y="286" width="224" height="252" xlink:href="img/4.png"/>
<image clip-path="url(#c4_225)" preserveAspectRatio="none" x="709" y="286" width="223" height="252" xlink:href="img/5.png"/>
<path d="M713.9,293.5L718.1,531l176.5,-2.8l31.8,-37l-3.5,-201Z" class="g8_225"/>
<path d="M894.3,528.8l32.1,-37.7L904.3,482Z" class="g9_225"/>
<path d="M455.9,379.6c11.5,-1,20.6,-5.9,22.7,-12.1m-.5,-6.9c-3,-5.9,-12.3,-10.4,-23.6,-11m-7.1,.1c-11.4,1,-20.5,5.9,-22.6,12.2m.5,6.9c3,5.9,12.3,10.3,23.5,10.9" class="ga_225"/>
<path d="M479,366.1c0,-.5,.1,-1,.1,-1.4c0,-.5,-.1,-1,-.1,-1.5M453.1,349.5c-.5,0,-.9,0,-1.4,0c-.5,0,-1,0,-1.4,0m-25.9,13.7c-.1,.5,-.1,1,-.1,1.5c0,.4,0,.9,.1,1.4m25.9,13.7c.4,0,.9,0,1.4,0c.5,0,.9,0,1.4,0" class="gb_225"/>
<path d="M451.9,346.2c14.2,-10.4,67.7,-47.8,105.8,-48.8m6.3,2.4c2.4,2.5,2.6,6.6,-14.3,9.7" class="ga_225"/>
<path d="M547.6,300.9c8.4,-5,32.7,-15.7,87.7,-16.8m7.6,-.1c13.2,-.1,52.3,.5,82.4,9.6" class="gc_225"/>
<path d="M448.4,348.9c0,0,.4,-.3,1.1,-.9M559.2,297.3c.5,0,1,0,1.5,.1c0,0,.5,.2,1.2,.6m-13.6,11.8c-.5,.1,-.9,.1,-1.4,.2c0,0,-1,-.2,-2.1,-.8m-2,-3.7c.1,-.6,.5,-1.2,1,-1.9c0,0,.4,-.4,1.2,-1m91.9,-18.5c.5,0,1,0,1.5,-.1c0,0,.5,0,1.5,0m86.8,10c.5,.2,1,.3,1.5,.5" class="gb_225"/>
<path d="M723.4,297.4l3.3,-5.8l6.4,5.7Z" class="gd_225"/>
<image clip-path="url(#c5_225)" x="815" y="301" width="5" height="9" xlink:href="shade/1.png"/>
<image clip-path="url(#c6_225)" x="814" y="274" width="24" height="28" xlink:href="shade/2.png"/>
<image clip-path="url(#c7_225)" x="814" y="276" width="23" height="34" xlink:href="shade/3.png"/>
<image clip-path="url(#c8_225)" x="819" y="272" width="20" height="10" xlink:href="shade/4.png"/>
<image clip-path="url(#c9_225)" preserveAspectRatio="none" x="95" y="480" width="221" height="274" xlink:href="img/6.png"/>
<path d="M103.5,485.6l-2.6,259.8l205.4,2l4.2,-260.3Z" class="g7_225"/>
<image clip-path="url(#ca_225)" preserveAspectRatio="none" x="91" y="479" width="227" height="272" xlink:href="img/7.png"/>
<image clip-path="url(#cb_225)" preserveAspectRatio="none" x="91" y="479" width="226" height="271" xlink:href="img/8.png"/>
<path d="M95.8,490.6l10.3,253.2l175.6,-6.4l29.9,-44.1L302.7,483Z" class="g8_225"/>
<path d="M282.7,738.2l29.7,-44.1l-26.8,-2.8Z" class="g9_225"/>
<path d="M451.7,711.5c15.2,-1,27.3,-6.7,29.9,-14.1m-.6,-7.2c-3.7,-7,-15.9,-12.2,-30.8,-12.8m-7.5,.1c-15.2,.9,-27.3,6.7,-29.9,14m.6,7.3c3.6,6.9,15.9,12.1,30.8,12.7" class="ga_225"/>
<path d="M482,696c.1,-.5,.1,-1,.1,-1.5c0,-.5,0,-1,-.1,-1.5M448.7,677.4c-.5,0,-1,-.1,-1.5,-.1c-.5,0,-1,.1,-1.5,.1M412.4,693c-.1,.5,-.1,1,-.1,1.5c0,.5,0,1,.1,1.5m33.3,15.6c.5,0,1,0,1.5,0c.5,0,1,0,1.5,0" class="gb_225"/>
<path d="M163.5,742.5l-7.4,6.2l-5.9,-11.1Z" class="gd_225"/>
<path d="M454.2,713.7c-15.6,10.7,-76,49.8,-117.5,46.4m-6.4,-3.5c-2.5,-3.3,-2.7,-8.4,15.9,-10.2" class="gc_225"/>
<path d="M352.5,748.4c.8,.9,1.4,2.1,1,3.6" class="ga_225"/>
<path d="M348.3,756.8c-9.1,5,-35.9,15.3,-96.2,10m-7.7,-.7c-14,-1.5,-56.7,-6.9,-88.8,-21.5" class="gc_225"/>
<path d="M458,711.1c0,0,-.4,.3,-1.3,.8m-121.5,48c-.5,0,-1,-.1,-1.5,-.2c0,0,-.6,-.3,-1.3,-.9m15.4,-12.5c.5,-.1,1,-.1,1.5,-.1c0,0,.5,.2,1.2,.5m2.5,6.5c-.2,.4,-.5,.7,-.8,1.1c0,0,-.4,.3,-1.2,.9M250.5,766.6c-.5,0,-1,0,-1.5,-.1c0,0,-.5,0,-1.6,-.1M154.2,743.9c-.5,-.2,-1,-.4,-1.4,-.7" class="gb_225"/>
<image clip-path="url(#cc_225)" x="194" y="492" width="6" height="9" xlink:href="shade/5.png"/>
<image clip-path="url(#cd_225)" x="193" y="465" width="25" height="28" xlink:href="shade/6.png"/>
<image clip-path="url(#ce_225)" x="193" y="468" width="23" height="33" xlink:href="shade/7.png"/>
<image clip-path="url(#cf_225)" x="199" y="464" width="19" height="10" xlink:href="shade/8.png"/>
<path d="M153.3,111.9v39L165,161.2V117Z" class="ge_225"/>
<path d="M153.3,111.9v39H851.1c0,0,16.8,0,16.8,-16.8v-5.3c0,0,0,-16.9,-16.8,-16.9Z" class="g3_225"/>
<path d="M802.6,145.6c8.2,0,14.9,-6.5,14.9,-14.5c0,-8.1,-6.7,-14.5,-14.9,-14.5c-8.2,0,-14.9,6.4,-14.9,14.5c0,8,6.7,14.5,14.9,14.5Z" class="gf_225"/>
<path d="M802.6,145.6c8.2,0,14.9,-6.5,14.9,-14.5c0,-8.1,-6.7,-14.5,-14.9,-14.5c-8.2,0,-14.9,6.4,-14.9,14.5c0,8,6.7,14.5,14.9,14.5Z" class="gg_225"/>
<path d="M802.6,136.4c3,0,5.5,-2.4,5.5,-5.3c0,-3,-2.5,-5.4,-5.5,-5.4c-3,0,-5.5,2.4,-5.5,5.4c0,2.9,2.5,5.3,5.5,5.3Z" class="g1_225"/>
<path d="M802.6,136.4c3,0,5.5,-2.4,5.5,-5.3c0,-3,-2.5,-5.4,-5.5,-5.4c-3,0,-5.5,2.4,-5.5,5.4c0,2.9,2.5,5.3,5.5,5.3Z" class="gh_225"/>
<g clip-path="url(#cg_225)" opacity="0.3">
<path d="M788,130.3c0,0,0,-4.8,3.7,-8.7l7.7,6.8c0,0,-1,.9,-1,2.6Z" class="g1_225"/>
</g>
<path d="M807.2,131c0,0,-3.5,0,-3.5,3.4v8.7c0,0,0,3.5,3.5,3.5h43.5c0,0,3.5,0,3.5,-3.5v-8.7c0,0,0,-3.4,-3.5,-3.4Z" class="gi_225"/>
<path d="M191.2,122c0,-8.3,-6.8,-15,-15.1,-15c-8.3,0,-15,6.7,-15,15c0,8.3,6.7,15.1,15,15.1c.8,0,1.7,-.1,2.4,-.2l4.5,5.2v-6.7c4.9,-2.5,8.2,-7.6,8.2,-13.4Z" class="g1_225"/>
<path d="M183.5,143.3l-5.1,-5.9c-.8,.1,-1.5,.1,-2.3,.1c-8.5,0,-15.5,-6.9,-15.5,-15.5c0,-8.5,7,-15.5,15.5,-15.5c8.6,0,15.5,7,15.5,15.5c0,5.7,-3.1,11,-8.1,13.7Zm-4.8,-6.9l3.9,4.5v-5.8l.2,-.1c4.9,-2.5,7.9,-7.5,7.9,-13c0,-8,-6.5,-14.6,-14.6,-14.6c-8,0,-14.6,6.6,-14.6,14.6c0,8.1,6.6,14.6,14.6,14.6c.8,0,1.6,-.1,2.4,-.2Z" class="gj_225"/>
<path d="M169.1,121.6c.8,0,1.4,.6,1.4,1.4c0,.8,-.6,1.5,-1.4,1.5c-.8,0,-1.4,-.7,-1.4,-1.5c0,-.8,.6,-1.4,1.4,-1.4Z" class="gk_225"/>
<path d="M169.1,124.9c-1,0,-1.9,-.8,-1.9,-1.9c0,-1,.9,-1.9,1.9,-1.9c1,0,1.9,.9,1.9,1.9c0,1.1,-.9,1.9,-1.9,1.9m0,-2.9c-.5,0,-1,.5,-1,1c0,.6,.5,1,1,1c.5,0,1,-.4,1,-1c0,-.5,-.5,-1,-1,-1Z" class="gj_225"/>
<path d="M176.1,121.6c.8,0,1.5,.6,1.5,1.4c0,.8,-.7,1.5,-1.5,1.5c-.8,0,-1.4,-.7,-1.4,-1.5c0,-.8,.6,-1.4,1.4,-1.4Z" class="gk_225"/>
<path d="M176.1,124.9c-1,0,-1.9,-.8,-1.9,-1.9c0,-1,.9,-1.9,1.9,-1.9c1.1,0,1.9,.9,1.9,1.9c0,1.1,-.8,1.9,-1.9,1.9m0,-2.9c-.5,0,-1,.5,-1,1c0,.6,.5,1,1,1c.6,0,1,-.4,1,-1c0,-.5,-.4,-1,-1,-1Z" class="gj_225"/>
<path d="M183.1,121.6c.8,0,1.5,.6,1.5,1.4c0,.8,-.7,1.5,-1.5,1.5c-.8,0,-1.4,-.7,-1.4,-1.5c0,-.8,.6,-1.4,1.4,-1.4Z" class="gk_225"/>
<path d="M183.1,124.9c-1,0,-1.9,-.8,-1.9,-1.9c0,-1,.9,-1.9,1.9,-1.9c1.1,0,1.9,.9,1.9,1.9c0,1.1,-.8,1.9,-1.9,1.9m0,-2.9c-.5,0,-1,.5,-1,1c0,.6,.5,1,1,1c.6,0,1,-.4,1,-1c0,-.5,-.4,-1,-1,-1Z" class="gj_225"/>
<path d="M185.1,136.3c0,-9.8,7.8,-17.7,17.6,-17.7c9.7,0,17.6,7.9,17.6,17.7c0,9.7,-7.9,17.6,-17.6,17.6c-1,0,-1.9,-.1,-2.9,-.3l-5.2,6.1v-7.8c-5.7,-2.9,-9.5,-8.8,-9.5,-15.6Z" class="gl_225"/>
<path d="M194.6,160.2q-.1,0,-.2,0c-.2,-.1,-.3,-.3,-.3,-.5v-7.5c-5.9,-3.2,-9.5,-9.2,-9.5,-15.9c0,-10,8.1,-18.1,18.1,-18.1c9.9,0,18,8.1,18,18.1c0,9.9,-8.1,18,-18,18c-.9,0,-1.8,0,-2.7,-.2l-5.1,5.9c-.1,.1,-.2,.2,-.3,.2m8.1,-41.1c-9.5,0,-17.2,7.7,-17.2,17.2c0,6.4,3.6,12.2,9.3,15.2c.1,.1,.2,.2,.2,.4v6.6l4.5,-5.2c.1,-.1,.3,-.1,.4,-.1c1,.1,1.9,.2,2.8,.2c9.4,0,17.1,-7.7,17.1,-17.1c0,-9.5,-7.7,-17.2,-17.1,-17.2Z" class="gj_225"/>
<path d="M210.9,135.8c.9,0,1.6,.7,1.6,1.6c0,1,-.7,1.7,-1.6,1.7c-1,0,-1.7,-.7,-1.7,-1.7c0,-.9,.7,-1.6,1.7,-1.6Z" class="g1_225"/>
<path d="M210.9,139.6c-1.2,0,-2.2,-1,-2.2,-2.2c0,-1.1,1,-2.1,2.2,-2.1c1.1,0,2.1,1,2.1,2.1c0,1.2,-1,2.2,-2.1,2.2m0,-3.4c-.7,0,-1.3,.6,-1.3,1.2c0,.7,.6,1.3,1.3,1.3c.6,0,1.2,-.6,1.2,-1.3c0,-.6,-.6,-1.2,-1.2,-1.2Z" class="gj_225"/>
<path d="M202.7,135.8c.9,0,1.6,.7,1.6,1.6c0,1,-.7,1.7,-1.6,1.7c-1,0,-1.7,-.7,-1.7,-1.7c0,-.9,.7,-1.6,1.7,-1.6Z" class="g1_225"/>
<path d="M202.7,139.6c-1.2,0,-2.2,-1,-2.2,-2.2c0,-1.1,1,-2.1,2.2,-2.1c1.1,0,2.1,1,2.1,2.1c0,1.2,-1,2.2,-2.1,2.2m0,-3.4c-.7,0,-1.3,.6,-1.3,1.2c0,.7,.6,1.3,1.3,1.3c.6,0,1.2,-.6,1.2,-1.3c0,-.6,-.6,-1.2,-1.2,-1.2Z" class="gj_225"/>
<path d="M194.5,135.8c.9,0,1.6,.7,1.6,1.6c0,1,-.7,1.7,-1.6,1.7c-1,0,-1.7,-.7,-1.7,-1.7c0,-.9,.7,-1.6,1.7,-1.6Z" class="g1_225"/>
<path d="M194.5,139.6c-1.2,0,-2.2,-1,-2.2,-2.2c0,-1.1,1,-2.1,2.2,-2.1c1.1,0,2.1,1,2.1,2.1c0,1.2,-1,2.2,-2.1,2.2m0,-3.4c-.7,0,-1.2,.6,-1.2,1.2c0,.7,.5,1.3,1.2,1.3c.6,0,1.2,-.6,1.2,-1.3c0,-.6,-.6,-1.2,-1.2,-1.2Z" class="gj_225"/>
<path d="M32.1,45.1H9.2m958.3,0h22.9M32.1,1331.3H9.2m958.3,0h22.9M45.1,32.1V9.2m0,1335.1v22.9M954.5,32.1V9.2m0,1335.1v22.9" class="gm_225"/>
<path d="M32.1,45.1H9.2m958.3,0h22.9M32.1,1331.3H9.2m958.3,0h22.9M45.1,32.1V9.2m0,1335.1v22.9M954.5,32.1V9.2m0,1335.1v22.9" class="gn_225"/>
<path d="M27.5,32.1H0m972.1,0h27.5M27.5,1344.3H0m972.1,0h27.5M32.1,27.5V0m0,1348.9v27.5M967.5,27.5V0m0,1348.9v27.5" class="gm_225"/>
<path d="M27.5,32.1H0m972.1,0h27.5M27.5,1344.3H0m972.1,0h27.5M32.1,27.5V0m0,1348.9v27.5M967.5,27.5V0m0,1348.9v27.5" class="gn_225"/>
</svg>