<?xml version="1.0" encoding="UTF-8" standalone="no"?>
<!DOCTYPE svg PUBLIC "-//W3C//DTD SVG 1.1//EN"
"http://www.w3.org/Graphics/SVG/1.1/DTD/svg11.dtd">
<svg viewBox="0 0 999 1376" version="1.1" xmlns="http://www.w3.org/2000/svg" xmlns:xlink="http://www.w3.org/1999/xlink">
<defs>
<clipPath id="c0_87"><path d="M32.1,1344.3V32.1H967.5V1344.3Z"/></clipPath>
<clipPath id="c1_87"><path d="M146.8,491.3V211.9H878.3V491.3Z"/></clipPath>
<clipPath id="c2_87"><path d="M146.8,1021.5V874.6H878.3v146.9Z"/></clipPath>
<clipPath id="c3_87"><path d="M700.2,193.8V68.1H847.6V193.8Z"/></clipPath>
<clipPath id="c4_87"><path d="M213.1,848c-3.6,0,-5.7,-1.5,-6.9,-3.2V775.3c2.5,-3.1,6.9,-3.1,6.9,-3.1h68.5c8.7,0,8.7,8.7,8.7,8.7v58.4c0,8.7,-8.7,8.7,-8.7,8.7Z"/></clipPath>
<style type="text/css"><![CDATA[
.g0_87{
fill: #FEFCF4;
}
.g1_87{
fill: #6381B7;
}
.g2_87{
fill: none;
stroke: #6381B7;
stroke-width: 0.381;
stroke-dasharray: 2,1;
}
.g3_87{
fill: none;
stroke: #6381B7;
stroke-width: 0.381;
}
.g4_87{
fill: #FFF;
}
.g5_87{
fill: none;
stroke: #FFF;
stroke-width: 2.381;
}
.g6_87{
fill: none;
stroke: #231F20;
stroke-width: 1.527;
}
.g7_87{
fill: none;
stroke: #6381B7;
stroke-width: 0.763;
}
.g8_87{
fill: #59816A;
}
.g9_87{
fill: #FEF9F9;
}
.ga_87{
fill: none;
stroke: #A164A9;
stroke-width: 1.527;
stroke-linecap: round;
stroke-linejoin: round;
stroke-dasharray: 0,5;
}
.gb_87{
fill: none;
stroke: #A164A9;
stroke-width: 1.527;
stroke-linecap: round;
stroke-linejoin: round;
}
.gc_87{
fill: #A164A9;
}
.gd_87{
fill: none;
stroke: #FFF79A;
stroke-width: 1.527;
}
.ge_87{
fill: #F0F5FA;
}
.gf_87{
fill: none;
stroke: #7CA7D8;
stroke-width: 1.527;
stroke-linecap: round;
stroke-linejoin: round;
stroke-dasharray: 0,5;
}
.gg_87{
fill: none;
stroke: #7CA7D8;
stroke-width: 1.527;
stroke-linecap: round;
stroke-linejoin: round;
}
.gh_87{
fill: #7CA7D8;
}
.gi_87{
fill: #BFD62F;
}
.gj_87{
fill: #3D3B39;
}
.gk_87{
fill: #F5CA58;
}
.gl_87{
fill: none;
stroke: #FFF;
stroke-width: 1.909;
stroke-miterlimit: 10;
}
.gm_87{
fill: none;
stroke: #000;
stroke-width: 0.381;
stroke-miterlimit: 10;
}
]]></style>
</defs>
<path d="M45.1,1344.3H967.5V32.1H45.1V1344.3Z" class="g0_87"/>
<path clip-path="url(#c0_87)" d="M-877.3,1344.3H45.1V32.1H-877.3V1344.3Z" class="g0_87"/>
<path d="M625.8,503.5c0,0,-4.4,0,-4.4,4.3v10.8c0,0,0,4.4,4.4,4.4h30.3c0,0,4.3,0,4.3,-4.4V507.8c0,0,0,-4.3,-4.3,-4.3Z" class="g1_87"/>
<path d="M612.6,494.4v38m1.3,1H867m.9,-1.4V494m-1.3,-.9H613.5" class="g2_87"/>
<path d="M612.6,532.8v.6h.6m254.1,0h.6v-.6m0,-39.1v-.6h-.6m-254.1,0h-.6v.6" class="g3_87"/>
<image clip-path="url(#c1_87)" preserveAspectRatio="none" x="147" y="212" width="731" height="280" xlink:href="img/1.png"/>
<path d="M170.7,218.3c0,0,-17.4,0,-17.4,17.3V463.9c0,0,0,17.3,17.4,17.3H850.6c0,0,17.3,0,17.3,-17.3V235.6c0,0,0,-17.3,-17.3,-17.3Z" class="g4_87"/>
<path d="M307.6,238.1c-1.6,-1.8,-3.3,-2.6,-5,-2.6c-.7,0,-1.4,.3,-2.1,.8c-.8,.7,-1.2,1.3,-1.2,2c0,.2,.1,.5,.4,.7l.5,.6H298l.8,.8h1.3v8.1l.8,.8v-8.9h1.5l-.9,-.8h-.9l-.3,-.9c.1,-.6,.4,-1.1,1.2,-1.6c.6,-.4,1.2,-.7,1.9,-.7c.4,0,.8,.1,1.2,.2c.4,.1,.8,.3,1.2,.5c.4,.2,.8,.5,1.1,.7c.3,.2,.6,.5,.9,.7l-.2,-.4Zm3.6,2.3l-.9,-.8h-9.2l.9,.8h6.8v2.4c-.3,-1,-.9,-1.5,-1.5,-1.5c-.3,0,-.5,.2,-.7,.4c-.3,.2,-.4,.5,-.4,.7c-.5,-.7,-1.2,-1.1,-1.9,-1.1c-.5,0,-1,.3,-1.3,.8c-.4,.5,-.5,1.1,-.5,1.7c0,.3,0,.6,.2,1c.1,.3,.2,.5,.5,.7c.2,.2,.4,.4,.7,.5c.3,.1,.6,.2,1,.2c.4,0,.8,-.2,1,-.4c.2,-.2,.3,-.5,.3,-.8c0,-.8,-.3,-1.2,-1.1,-1.3c-.2,0,-.4,.1,-.6,.3c-.2,.2,-.3,.4,-.3,.7c0,.2,.1,.4,.2,.7c-.8,-.1,-1.2,-.5,-1.2,-1.2c0,-.2,.1,-.5,.2,-.7c0,-.2,.2,-.3,.3,-.5c.1,-.1,.3,-.2,.5,-.3c.2,-.1,.4,-.1,.6,-.1c.5,0,.9,.1,1.2,.4c.4,.3,.6,.7,.7,1.1l.3,-.1c0,-.2,0,-.4,0,-.5c0,-.6,.2,-.9,.7,-.9c.3,0,.5,.1,.7,.3c.3,.3,.4,.5,.4,.8v4.9l.8,.8v-9h1.6Zm4.1,-.8h-5.5l.8,.8h2.8c-1.2,1.4,-1.8,2.9,-1.8,4.4c0,1,.2,2,.7,2.8c.5,1,1.2,1.5,2.2,1.5c.2,0,.4,-.1,.6,-.1c.1,-.1,.3,-.2,.4,-.3c.2,-.1,.3,-.3,.4,-.5c0,-.1,.1,-.3,.1,-.5c0,-.4,-.1,-.7,-.3,-.9c-.2,-.2,-.4,-.4,-.7,-.4c-.3,0,-.5,.1,-.7,.3c-.2,.2,-.3,.4,-.3,.7c0,.2,0,.3,.1,.5c.1,.2,.2,.3,.4,.4c-.5,.2,-1,-.1,-1.6,-.9c-.3,-.5,-.4,-1,-.4,-1.6c0,-.7,0,-1.4,.2,-1.9c.1,-.6,.3,-1.1,.6,-1.6c.3,-.4,.7,-.8,1.2,-1.2c.4,-.3,1,-.5,1.6,-.7l-.8,-.8Zm9.3,.8l-.8,-.8h-8.9c.2,.2,.5,.4,.6,.6c.2,.2,.3,.3,.4,.3c.2,.2,.4,.3,.6,.5c.2,.1,.4,.1,.6,.2c.4,.1,.7,.1,.9,.2c.2,.1,.4,.2,.6,.3c.1,.1,.2,.3,.3,.5c.1,.3,.2,.6,.2,1c-.3,.4,-.5,.7,-.7,.9c-.1,.2,-.3,.4,-.4,.5c-.1,.2,-.2,.2,-.3,.3q-.1,0,-.2,0c-.1,0,-.2,0,-.3,-.1c-.1,-.1,-.2,-.2,-.2,-.3c-.1,-.1,-.2,-.2,-.2,-.3c0,-.2,-.1,-.3,-.1,-.4l-.6,.5c.1,.2,.3,.4,.4,.6c.1,.3,.2,.5,.4,.6c.1,.2,.3,.4,.5,.5c.2,.1,.5,.2,.7,.2c.1,0,.2,0,.3,0c.1,-.1,.2,-.2,.4,-.3c.1,-.2,.3,-.4,.5,-.6c.2,-.3,.5,-.7,.7,-1.2c.3,-.4,.6,-.7,.9,-.7c.3,-.1,.6,0,.8,.2c.2,.3,.3,.7,.5,1.2c.1,.5,.2,1.1,.2,1.8v.2c0,.1,0,.2,0,.4c0,.1,-.1,.3,-.1,.5c0,.2,0,.5,0,.8c.1,.1,.3,.3,.4,.4c.1,.2,.3,.4,.4,.5v-9h1.5Zm-2.3,2.9c-.2,-.3,-.4,-.5,-.7,-.8c-.2,-.2,-.4,-.4,-.6,-.4c-.2,-.1,-.4,-.1,-.6,0c-.3,.1,-.5,.3,-.8,.6c0,-.4,-.1,-.8,-.3,-1.2c-.1,-.3,-.5,-.7,-.9,-1.1h3.9v2.9ZM333,238.1c-1.6,-1.8,-3.3,-2.6,-5.1,-2.6c-.6,0,-1.3,.3,-2.1,.8c-.7,.7,-1.1,1.3,-1.1,2c0,.2,.1,.5,.3,.7l.6,.6h-2.2l.8,.8h1.3v8.1l.8,.8v-8.9h1.5l-.9,-.8H326l-.3,-.9c0,-.6,.4,-1.1,1.1,-1.6c.7,-.4,1.3,-.7,1.9,-.7c.5,0,.9,.1,1.3,.2c.4,.1,.8,.3,1.1,.5c.5,.2,.8,.5,1.2,.7c.3,.2,.6,.5,.8,.7l-.1,-.4Zm2.5,2.3l-.8,-.8h-8.1l.8,.8h5.9v4.7h-.1c-.9,-1.9,-1.9,-2.8,-3.1,-2.8c-.5,0,-1,.2,-1.4,.6c-.4,.4,-.6,.8,-.6,1.4c0,1.1,.5,1.6,1.6,1.6c.4,0,.6,-.1,.8,-.4c.2,-.2,.3,-.5,.3,-.9c0,-.2,-.1,-.6,-.5,-1.1c0,0,.1,0,.2,0c.9,0,1.7,.6,2.3,1.8c.5,1,.7,2,.7,3l-.1,.9l.7,.4v-9.2h1.4Zm3.6,0c-.3,-.5,-.8,-.7,-1.3,-.7c-.5,0,-.9,.2,-1.3,.7c-.2,.2,-.3,.4,-.4,.6c-.1,.2,-.1,.5,-.1,.7c0,.6,.2,1.1,.5,1.5c.4,.4,.9,.6,1.4,.6c.5,0,.9,-.2,1.3,-.6c.3,-.4,.5,-.9,.5,-1.4c0,-.6,-.2,-1,-.6,-1.4Zm-.7,2.1c-.3,.3,-.7,.4,-1.1,.4c-.3,0,-.5,-.2,-.5,-.6c0,-.2,.1,-.4,.1,-.6c.1,-.2,.2,-.4,.4,-.6c.3,-.3,.6,-.5,1,-.5c.4,0,.6,.3,.6,.7c0,.5,-.2,.8,-.5,1.2Zm1.9,6.2c-.5,-.7,-1.1,-1.5,-1.9,-2.4c-.9,-.9,-1.6,-1.6,-2.2,-2.1v1.9c.3,.2,.6,.4,1,.7c.3,.2,.7,.5,1,.8c.4,.3,.8,.6,1.1,.9c.4,.3,.7,.6,1,.9v-.7Zm14.1,-10.6c-1.6,-1.8,-3.2,-2.6,-5,-2.6c-.7,0,-1.4,.3,-2.1,.8c-.8,.7,-1.1,1.3,-1.1,2c0,.2,.1,.5,.3,.7l.6,.6h-2.2l.8,.8h1.2v8.1l.9,.8v-8.9h1.4l-.8,-.8h-.9l-.4,-.9c.1,-.6,.5,-1.1,1.2,-1.6c.6,-.4,1.3,-.7,1.9,-.7c.4,0,.8,.1,1.2,.2c.4,.1,.8,.3,1.2,.5c.4,.2,.8,.5,1.1,.7c.3,.2,.6,.5,.9,.7l-.2,-.4Zm3,6.7c-.1,-.6,-.2,-1.1,-.3,-1.4c-.2,-.3,-.4,-.5,-.6,-.6c.2,-.3,.3,-.8,.3,-1.3c0,-.5,-.1,-.9,-.4,-1.1H361l-.9,-.8H348l.8,.8H352c0,.4,-.1,.8,-.3,1.2c-.3,.5,-.6,.8,-.9,.8l-.7,-.6l-.4,.6l.6,.8c.2,.1,.3,.2,.5,.3c.2,0,.3,.1,.4,.1c.4,0,.8,-.3,1.2,-.9c.1,-.3,.3,-.5,.3,-.7c.1,-.3,.2,-.5,.3,-.7c0,.3,.1,.5,.3,.8c.2,.3,.5,.6,.8,.9c.1,0,.1,.1,.1,.1q.1,0,.2,.1c0,0,.1,0,.1,0c-.1,.1,-.2,.2,-.3,.4c-.2,.1,-.3,.2,-.4,.4c-.1,.1,-.2,.3,-.2,.4c-.1,.2,-.2,.3,-.2,.5c-.1,.2,-.1,.4,-.1,.6c0,.2,.1,.3,.1,.5c.1,.1,.2,.3,.3,.4c.1,.1,.3,.2,.4,.3c.2,.1,.4,.1,.6,.1c.2,0,.4,-.1,.6,-.3c.2,-.2,.3,-.4,.3,-.7c0,-.2,-.1,-.4,-.2,-.5c-.2,-.1,-.3,-.2,-.5,-.2c0,0,-.1,0,-.1,0c-.1,0,-.2,0,-.2,0c.2,-1,.7,-1.5,1.3,-1.5c.4,0,.6,.1,.6,.4v4.2c-.3,-.2,-.5,-.3,-.8,-.4c-.3,-.2,-.6,-.2,-.9,-.2h-1.3c-.7,0,-1.3,-.2,-1.6,-.5c-.3,-.3,-.5,-.7,-.5,-1.2c0,-.1,0,-.2,0,-.3c0,-.1,0,-.2,.1,-.2c0,-.1,0,-.2,0,-.3c.1,-.1,.1,-.2,.1,-.3l-.4,-.4c-.1,.4,-.2,.7,-.2,1c-.1,.3,-.1,.5,-.1,.8c0,.3,0,.6,.1,.9c.1,.4,.3,.6,.4,.9c.3,.3,.5,.5,.8,.6c.2,.2,.5,.2,.9,.2c.1,0,.3,0,.5,0c.2,0,.4,0,.7,-.1c.3,0,.6,0,.8,0c.2,-.1,.4,-.1,.5,-.1c.4,0,.7,.2,.9,.4c.2,.2,.3,.5,.5,1l.3,.2v-4c.2,-1.1,.7,-1.6,1.4,-1.6c.3,0,.5,.2,.7,.6c0,0,-.1,0,-.1,0c-.1,0,-.2,0,-.2,0c-.6,0,-1,.3,-1,.8c0,.3,0,.5,.2,.6c.2,.2,.4,.3,.6,.3c.9,-.1,1.3,-.6,1.3,-1.6c0,-.2,0,-.4,-.1,-.6c0,-.1,-.1,-.3,-.2,-.4c-.1,-.2,-.3,-.3,-.4,-.4c-.2,0,-.4,-.1,-.5,-.1c-.7,0,-1.3,.3,-1.6,1Zm-4,-4.4h2.2l.2,.1c.2,.3,.3,.5,.3,.9c0,.5,-.4,.8,-1.1,.8c-.5,0,-.8,-.2,-1.2,-.6c-.3,-.3,-.4,-.7,-.4,-1.2Zm18.7,-.8h-1.2c0,-.8,-.2,-1.5,-.7,-1.9c-.5,-.4,-1.1,-.6,-1.9,-.6c-.3,0,-.8,0,-1.3,.1c-.3,0,-.6,0,-.8,0c-.2,0,-.4,0,-.5,0c-.3,0,-.6,0,-.9,-.2c-.3,-.2,-.4,-.4,-.4,-.7c0,-.1,0,-.2,0,-.3c0,-.1,.1,-.2,.2,-.2l-.1,-.3c-.2,0,-.3,.1,-.4,.3c-.1,.2,-.2,.5,-.2,.7c0,.6,.3,1.1,.9,1.4c.5,.3,1.1,.5,1.7,.5c.2,0,.3,0,.5,0c.3,0,.5,0,.7,-.1c.3,0,.6,0,.8,0c.1,0,.3,0,.4,0c.2,0,.4,0,.5,0c.1,.1,.3,.1,.4,.2c.3,.1,.4,.3,.4,.6c0,.1,0,.3,-.1,.5h-3.6v2.7c-.2,-.3,-.4,-.5,-.5,-.7c-.2,-.3,-.4,-.5,-.6,-.7c-.6,-.6,-1.2,-.9,-1.7,-.9c-.3,0,-.6,.1,-.9,.2c-.3,.1,-.6,.2,-1,.4c-.7,.4,-1,.9,-1,1.4c0,.2,.1,.3,.2,.5c.1,.1,.2,.2,.4,.2c.1,0,.3,-.1,.6,-.2c.3,-.1,.5,-.2,.6,-.2c.3,0,.5,.2,.5,.6c0,.2,-.1,.4,-.4,.7l-.6,.6l1.2,.4c.3,-.4,.7,-.8,1.2,-1.2c.4,-.5,.8,-.9,1.2,-1.3c.2,.3,.3,.5,.4,.7c.2,.1,.3,.3,.4,.4v2.2c0,2.1,.5,3.1,1.6,3c.3,0,.7,-.1,1.1,-.4c.4,-.3,.7,-.7,1.1,-1.1c.3,-.5,.5,-.9,.7,-1.4c.2,-.5,.3,-.9,.3,-1.3c0,-.4,-.1,-.8,-.4,-1.2c-.2,-.3,-.6,-.5,-1,-.5c-.4,0,-.6,.1,-.9,.3c-.2,.3,-.3,.5,-.3,.9c0,.3,.1,.5,.4,.7c.2,.1,.4,.2,.7,.3l.3,-.1c-.1,.5,-.4,1.1,-.9,1.7c-.5,.7,-1,1,-1.5,1c-.3,0,-.4,-.2,-.4,-.6v-6.3h5.6l-.8,-.8Zm-8.6,3.2c0,-.1,0,-.3,0,-.4c-.1,-.2,-.2,-.3,-.3,-.4c-.1,-.1,-.2,-.2,-.3,-.3c-.2,-.1,-.4,-.1,-.5,-.1c.2,-.5,.7,-.7,1.5,-.7c.1,0,.2,0,.3,0c.1,0,.2,.1,.3,.1c.3,.1,.4,.2,.5,.3l-1.5,1.5Z" class="g5_87"/>
<path d="M201.4,246c0,0,-.5,-9.9,8.6,-9.3c0,0,6.8,-.4,6.7,9.5m-15.3,-1.5v6.5c0,0,-3.4,.3,-4,-3c0,0,0,-3.8,4,-3.5Zm15.3,0v6.5c0,0,3.4,.3,4,-3c0,0,0,-3.8,-4,-3.5Z" class="g6_87"/>
<path d="M196.7,261.3H824.6" class="g7_87"/>
<path d="M748.3,1031.4c0,0,-4.3,0,-4.3,4.3v9.1c0,0,0,4.4,4.3,4.4h30.3c0,0,4.4,0,4.4,-4.4v-9.1c0,0,0,-4.3,-4.4,-4.3Z" class="g1_87"/>
<path d="M735.1,1021.7v37.6m1.4,.9H866.8m.9,-1.3v-37.6m-1.3,-.9H736.1" class="g2_87"/>
<path d="M735.1,1059.6v.6h.6m131.4,0h.6v-.6m0,-38.7v-.5h-.6m-131.4,0h-.6v.5" class="g3_87"/>
<image clip-path="url(#c2_87)" preserveAspectRatio="none" x="147" y="875" width="731" height="147" xlink:href="img/2.png"/>
<path d="M170.7,881.2c0,0,-17.4,0,-17.4,17.3v95.3c0,0,0,17.3,17.4,17.3H850.6c0,0,17.3,0,17.3,-17.3V898.5c0,0,0,-17.3,-17.3,-17.3Z" class="g4_87"/>
<path d="M373.4,903.3l-.8,-.9h-8.2l.8,.9h5.7v.6c-1.7,.6,-3.4,1.5,-5.1,2.7l1.1,1.6c1.2,.1,2.1,.5,2.8,1.2c.2,.2,.4,.4,.7,.7c.2,.3,.4,.6,.5,.8c.1,.3,.2,.4,.2,.5c.1,.1,.1,.2,.1,.3l.5,.6v-9h1.7Zm-2.5,6.7c-.7,-1.3,-1.9,-2.3,-3.4,-2.9c.7,-.4,1.2,-.8,1.8,-1.1c.5,-.2,1.1,-.5,1.6,-.7V910Zm10.6,-9.1c-1.6,-1.7,-3.3,-2.5,-5,-2.5c-.7,0,-1.4,.3,-2.1,.8c-.8,.6,-1.2,1.3,-1.2,2c0,.2,.1,.4,.4,.7l.5,.5h-2.2l.8,.9H374v8.1l.8,.8v-8.9h1.5l-.8,-.9h-1l-.3,-.8c.1,-.6,.4,-1.1,1.2,-1.6c.6,-.5,1.2,-.7,1.9,-.7c.4,0,.8,.1,1.2,.2c.4,.1,.8,.2,1.2,.5c.4,.2,.8,.4,1.1,.7c.3,.2,.6,.5,.9,.7l-.2,-.5Zm2.5,2.4l-.8,-.9h-1.5v1.2c-1.5,.9,-2.2,1.3,-2.3,1.3c-.4,0,-.7,-.1,-1,-.2c-.2,-.2,-.3,-.4,-.3,-.7c0,-.2,0,-.4,.1,-.5c.2,.1,.3,.2,.4,.2c.1,.1,.2,.1,.3,.1c.2,0,.3,-.1,.5,-.2c.1,-.2,.2,-.3,.2,-.6c-.1,-.4,-.4,-.7,-1.1,-.7c-.4,0,-.7,.2,-1,.4c-.3,.3,-.4,.6,-.4,1c0,.3,.1,.5,.2,.7c.1,.2,.2,.4,.4,.5c.3,.3,.7,.4,1.2,.4l-2.1,1.7l.9,1.3c.5,.1,.9,.2,1.3,.3c.4,.1,.7,.3,1,.5c.4,.3,.9,.8,1.3,1.5c.2,.2,.3,.4,.4,.6c.1,.2,.2,.4,.3,.6l.5,.7v-9.2H384Zm-2.3,6.8c-.8,-1.3,-1.8,-2.2,-3.2,-2.9c.6,-.5,1.1,-.9,1.6,-1.2c.5,-.4,1.1,-.6,1.6,-.8v4.9Zm3.7,-12h-.8l-4.8,3.6h2l3.6,-3.6Zm7.3,4.3h-9.9l.9,.9h9.9l-.9,-.9Zm-.4,4c-.1,-.4,-.4,-.8,-.6,-1.2c-.3,-.3,-.7,-.6,-1.1,-.8c-.4,-.2,-.8,-.3,-1.2,-.3c-.6,0,-1,.2,-1.4,.5c-.4,.3,-.6,.8,-.6,1.3c0,.5,.1,.9,.3,1.2c.3,.3,.7,.5,1.1,.5c.9,0,1.3,-.4,1.3,-1.2c0,-.4,-.1,-.8,-.3,-1c.2,-.1,.4,-.2,.6,-.2c.4,0,.8,.3,1.1,.7c.2,.4,.3,.8,.3,1.3c0,.6,-.2,1.1,-.7,1.6c-.5,.4,-1.1,.7,-1.7,.7c-1.2,0,-2.2,-.7,-3.1,-2c-.2,-.2,-.4,-.7,-.7,-1.3c-.3,-.6,-.6,-1.3,-1,-2.2l-.4,-.1c1.2,4.6,2.9,6.9,5.2,6.9c.8,0,1.5,-.3,2.2,-.8c.3,-.3,.5,-.7,.7,-1c.2,-.4,.2,-.8,.2,-1.2c0,-.5,0,-.9,-.2,-1.4Zm16,-4H397.7l.8,.9h8.2v5.9l-1.1,-1c.2,-.5,.2,-1,.2,-1.4c0,-.6,-.1,-1.1,-.4,-1.6c-.2,-.3,-.4,-.6,-.7,-.9c-.3,-.2,-.6,-.3,-.9,-.5c-.3,0,-.5,-.1,-.7,-.1c-.5,0,-.9,.2,-1.4,.5c-.2,.2,-.3,.4,-.4,.6c-.2,.2,-.2,.4,-.2,.7c0,.2,0,.4,.1,.6c.2,.3,.5,.5,.9,.6c.4,0,.7,-.1,1,-.3c.2,-.1,.3,-.2,.4,-.4c.1,-.2,.2,-.4,.2,-.6c0,-.2,-.1,-.4,-.3,-.6c.2,-.1,.3,-.1,.5,-.1c.1,0,.3,.1,.5,.3c.1,.1,.2,.2,.4,.4c.1,.2,.2,.5,.3,.7c0,.2,0,.3,0,.5c0,.4,-.1,.8,-.3,1.2c-.3,.6,-1,.9,-2,.9c-.3,0,-.7,-.1,-1.1,-.3c-.4,-.3,-.7,-.6,-1,-1c-.4,-.4,-.6,-.9,-.9,-1.5c-.2,-.6,-.4,-1.2,-.5,-1.9l-.5,-.2c0,.7,.2,1.4,.3,2.1c.2,.6,.4,1.2,.7,1.6c.2,.4,.5,.7,.7,1.1c.3,.3,.5,.5,.8,.8c.3,.2,.6,.4,.9,.5c.3,.1,.5,.2,.8,.2c.5,0,1,-.1,1.3,-.3c.4,-.2,.7,-.5,.9,-.9c1,.7,1.7,1.8,2.1,3.2l.2,.2v-9h1.6l-.8,-.9Zm8.6,.9l-.8,-.9H408l.8,.9h5.8V908c-.9,-1.9,-1.9,-2.8,-3.1,-2.8c-.5,0,-1,.2,-1.4,.6c-.4,.3,-.6,.8,-.6,1.4c0,1.1,.5,1.6,1.6,1.6c.3,0,.6,-.1,.8,-.4c.2,-.2,.3,-.5,.3,-.9c0,-.2,-.2,-.6,-.5,-1.1c0,0,.1,0,.2,-.1c.9,0,1.7,.6,2.3,1.8c.5,1.1,.7,2.1,.7,3.1l-.1,.9l.7,.4v-9.2h1.4Zm.4,12c-.1,-.1,-.2,-.2,-.2,-.3c-.1,-.2,-.2,-.3,-.4,-.5c-.2,-.3,-.4,-.5,-.7,-.7c-.2,-.3,-.4,-.5,-.6,-.7c0,-.2,0,-.5,0,-.8c0,-.4,-.1,-.7,-.2,-.9l-.7,-.5c.1,.4,.1,.8,.1,1.1c0,.3,0,.5,-.1,.7c-.5,-.3,-.9,-.5,-1.2,-.5c-.2,0,-.4,0,-.5,.1c-.2,.1,-.4,.2,-.5,.3c-.2,.1,-.3,.2,-.4,.4c0,.2,-.1,.4,-.1,.6c0,.4,.2,.7,.5,.9c.3,.3,.7,.4,1.1,.4c.7,-.1,1.3,-.4,1.7,-1c.2,.1,.4,.2,.5,.4c.2,.1,.4,.3,.6,.5c.2,.2,.4,.4,.6,.6c.2,.2,.3,.4,.5,.6v-.7Zm-3.4,-2.2c.2,.1,.3,.2,.4,.3c-.1,.2,-.3,.3,-.5,.5c-.3,.1,-.5,.1,-.7,.1c-.3,0,-.5,-.2,-.5,-.5c.1,-.3,.4,-.5,.9,-.5c.2,0,.3,.1,.4,.1Zm11.9,-9.8l-.8,-.9c-.5,0,-.8,-.4,-.9,-1l-.5,-.5l.2,3.8h-.1c-.1,-.4,-.4,-.8,-.8,-1.4c-.5,-.6,-.9,-.9,-1.2,-.9c-.9,0,-1.6,.6,-2.1,1.8c-.1,-.5,-.3,-.9,-.7,-1.3c-.4,-.3,-.8,-.5,-1.3,-.5h-1.7l.8,.9c.1,0,.4,0,.9,0c.6,0,1,.4,1.4,1.1c-.2,0,-.4,.1,-.5,.3c-.2,.1,-.4,.3,-.5,.4c-.1,.2,-.2,.4,-.3,.6c-.1,.2,-.1,.4,-.1,.6c0,.3,.1,.6,.3,.9c.2,.2,.4,.3,.7,.3c.7,0,1.1,-.3,1.4,-1c.1,.3,.2,.5,.5,.7c.2,.2,.5,.3,.7,.3c.4,-.1,.7,-.2,.9,-.5c.2,-.2,.3,-.5,.3,-.9c0,-.4,-.5,-.9,-1.4,-1.5c0,-.2,.2,-.4,.4,-.6c.2,-.1,.4,-.2,.6,-.2c.3,0,.7,.3,1,.8c.4,.5,.6,1,.6,1.3v5.5l.8,.9v-9h1.4Zm3.3,0l-.8,-.9h-.8c-.8,-3,-2.5,-4.5,-5.2,-4.5c-.4,0,-.7,.1,-1,.1c-.3,.1,-.7,.2,-1,.3c-.3,.2,-.6,.4,-.8,.6c-.2,.2,-.3,.5,-.3,.8c0,.3,.1,.5,.3,.8c.2,.2,.5,.4,.9,.5c.1,0,.3,0,.7,.1c.4,0,.9,.1,1.5,.2c.9,.1,1.3,.3,1.3,.6c0,.2,-.1,.5,-.4,.6h.9c0,-.3,0,-.4,0,-.5c0,-.4,-.1,-.7,-.3,-1c-.2,-.3,-.5,-.5,-1,-.6c-.4,-.1,-1.1,-.2,-2.3,-.3c-.8,0,-1.2,-.2,-1.2,-.4c0,-.3,.3,-.6,1,-.7c.2,-.1,.4,-.1,.7,-.1c.2,-.1,.4,-.1,.6,-.1c2.8,0,4.4,1.2,4.8,3.6h-2.1l.9,.9h1.2v8.1l.8,.8v-8.9h1.6Zm8.6,0l-.8,-.9h-9.2l.9,.9h6.8v2.3c-.4,-.9,-.9,-1.4,-1.6,-1.4c-.2,0,-.4,.1,-.7,.4c-.2,.2,-.3,.4,-.3,.7c-.6,-.7,-1.2,-1.1,-1.9,-1.1c-.6,0,-1,.3,-1.4,.8c-.3,.5,-.4,1,-.4,1.6c0,.4,0,.7,.1,1c.1,.3,.3,.6,.5,.8c.2,.2,.5,.4,.8,.5c.3,.1,.6,.2,1,.2c.4,0,.7,-.2,1,-.4c.2,-.2,.3,-.5,.3,-.8c0,-.8,-.4,-1.2,-1.1,-1.3c-.3,0,-.5,.1,-.7,.3c-.2,.2,-.3,.4,-.3,.7c0,.2,.1,.4,.3,.7c-.8,-.1,-1.2,-.6,-1.2,-1.3c0,-.2,0,-.4,.1,-.6c.1,-.2,.2,-.3,.4,-.5c.1,-.1,.3,-.2,.5,-.3c.2,-.1,.4,-.2,.6,-.2c.4,0,.9,.2,1.2,.5c.4,.3,.6,.7,.7,1.1l.3,-.1c0,-.2,-.1,-.4,-.1,-.6c0,-.5,.3,-.8,.8,-.8c.2,0,.5,.1,.7,.3c.2,.2,.3,.5,.3,.8v4.9l.9,.8v-9h1.5Zm4.2,-.9h-5.5l.8,.9h2.7c-1.1,1.4,-1.7,2.9,-1.7,4.3c0,1.1,.2,2.1,.6,2.9c.5,1,1.3,1.5,2.3,1.5c.2,0,.3,-.1,.5,-.1c.2,-.1,.4,-.2,.5,-.3c.1,-.2,.3,-.3,.3,-.5c.1,-.2,.2,-.3,.2,-.6c0,-.3,-.1,-.6,-.3,-.8c-.2,-.3,-.5,-.4,-.8,-.4c-.2,0,-.4,.1,-.7,.3c-.2,.2,-.3,.4,-.3,.7c0,.1,.1,.3,.1,.5c.1,.1,.3,.3,.5,.4c-.6,.2,-1.1,-.1,-1.6,-.9c-.3,-.5,-.5,-1,-.5,-1.7c0,-.7,.1,-1.3,.2,-1.8c.2,-.6,.4,-1.1,.7,-1.6c.3,-.5,.7,-.9,1.2,-1.2c.4,-.3,.9,-.6,1.6,-.7l-.8,-.9Zm8.4,.9l-.9,-.9h-8l.8,.9H448V908c-.9,-1.9,-1.9,-2.8,-3.1,-2.8c-.6,0,-1,.2,-1.5,.6c-.4,.3,-.6,.8,-.6,1.4c0,1.1,.6,1.6,1.6,1.6c.4,0,.7,-.1,.9,-.4c.2,-.2,.3,-.5,.3,-.9c0,-.2,-.2,-.6,-.6,-1.1c.1,0,.2,0,.3,-.1c.9,0,1.6,.6,2.3,1.8c.4,1.1,.7,2.1,.6,3.1v.9l.6,.4v-9.2h1.5Zm7.8,0l-.8,-.9h-8.2l.8,.9h5.7v.6c-1.7,.6,-3.4,1.5,-5.1,2.7l1.1,1.6c1.2,.1,2.1,.5,2.8,1.2c.2,.2,.4,.4,.7,.7c.2,.3,.4,.5,.5,.7c.1,.2,.2,.5,.3,.9l.5,.6v-9h1.7Zm-2.5,6.7c-.7,-1.3,-1.8,-2.3,-3.3,-2.9c.6,-.4,1.1,-.8,1.7,-1.1c.5,-.2,1.1,-.5,1.6,-.7V910Zm-3.3,1.2c.2,.2,.4,.3,.7,.3c.2,0,.4,-.1,.6,-.3c.1,-.1,.2,-.3,.2,-.6c0,-.2,-.1,-.4,-.2,-.6c-.2,-.2,-.4,-.3,-.6,-.3c-.3,0,-.5,.1,-.7,.3c-.1,.2,-.2,.4,-.2,.6c0,.3,.1,.5,.2,.6Zm19.4,-10.3c-1.6,-1.7,-3.3,-2.5,-5,-2.5c-.7,0,-1.4,.3,-2.2,.8c-.7,.6,-1.1,1.3,-1.1,2c0,.2,.1,.4,.3,.7l.6,.5h-2.2l.8,.9h1.3v8.1l.8,.8v-8.9h1.5l-.9,-.9h-.9l-.3,-.8c0,-.6,.4,-1.1,1.1,-1.6c.7,-.5,1.3,-.7,2,-.7c.4,0,.8,.1,1.2,.2c.4,.1,.8,.2,1.2,.5c.4,.2,.7,.4,1.1,.7c.3,.2,.6,.5,.9,.7l-.2,-.5Zm3.6,2.4l-.9,-.9h-9.2l.9,.9h6.8v2.3c-.4,-.9,-.9,-1.4,-1.6,-1.4c-.2,0,-.4,.1,-.6,.4c-.3,.2,-.4,.4,-.4,.7c-.5,-.7,-1.2,-1.1,-1.9,-1.1c-.5,0,-1,.3,-1.4,.8c-.3,.5,-.4,1,-.4,1.6c0,.4,0,.7,.2,1c.1,.3,.2,.6,.4,.8c.3,.2,.5,.4,.8,.5c.3,.1,.6,.2,1,.2c.4,0,.8,-.2,1,-.4c.2,-.2,.3,-.5,.3,-.8c0,-.8,-.3,-1.2,-1.1,-1.3c-.2,0,-.5,.1,-.6,.3c-.2,.2,-.3,.4,-.3,.7c0,.2,.1,.4,.2,.7c-.8,-.1,-1.2,-.6,-1.2,-1.3c0,-.2,.1,-.4,.2,-.6c0,-.2,.2,-.3,.3,-.5c.1,-.1,.3,-.2,.5,-.3c.2,-.1,.4,-.2,.6,-.2c.5,0,.9,.2,1.2,.5c.4,.3,.6,.7,.7,1.1l.3,-.1c0,-.2,0,-.4,0,-.6c0,-.5,.2,-.8,.7,-.8c.3,0,.5,.1,.7,.3c.2,.2,.4,.5,.4,.8v4.9l.8,.8v-9h1.6Zm4.1,-.9h-5.5l.8,.9h2.8c-1.2,1.4,-1.8,2.9,-1.8,4.3c0,1.1,.2,2.1,.7,2.9c.5,1,1.2,1.5,2.2,1.5c.2,0,.4,-.1,.5,-.1c.2,-.1,.4,-.2,.5,-.3c.2,-.2,.3,-.3,.4,-.5c0,-.2,.1,-.3,.1,-.6c0,-.3,-.1,-.6,-.3,-.8c-.2,-.3,-.5,-.4,-.7,-.4c-.3,0,-.5,.1,-.7,.3c-.3,.2,-.4,.4,-.4,.7c0,.1,.1,.3,.2,.5c.1,.1,.2,.3,.4,.4c-.5,.2,-1,-.1,-1.6,-.9c-.3,-.5,-.4,-1,-.5,-1.7c0,-.7,.1,-1.3,.3,-1.8c.1,-.6,.3,-1.1,.6,-1.6c.3,-.5,.7,-.9,1.2,-1.2c.4,-.3,1,-.6,1.6,-.7l-.8,-.9Zm9.3,.9l-.8,-.9H479c.2,.3,.4,.5,.6,.7c.2,.1,.3,.3,.4,.3c.2,.2,.4,.3,.6,.4c.2,.1,.4,.2,.6,.3c.4,.1,.6,.1,.9,.2c.2,.1,.4,.2,.6,.3c.1,.1,.2,.3,.3,.5c.1,.2,.2,.6,.2,1c-.3,.3,-.5,.7,-.7,.9c-.2,.2,-.3,.4,-.4,.5c-.1,.1,-.2,.2,-.3,.3q-.1,0,-.2,0c-.1,0,-.2,0,-.3,-.1c-.1,-.1,-.2,-.2,-.2,-.3c-.1,-.1,-.2,-.2,-.2,-.4c0,-.1,-.1,-.2,-.1,-.3l-.6,.5c.1,.2,.2,.4,.4,.6c.1,.2,.2,.4,.4,.6c.1,.2,.3,.4,.5,.5c.2,.1,.5,.2,.7,.2c.1,0,.2,0,.3,-.1c.1,0,.2,-.1,.4,-.2c.1,-.2,.3,-.4,.5,-.7c.2,-.2,.4,-.6,.7,-1.1c.3,-.4,.6,-.7,.9,-.8c.3,0,.5,.1,.8,.3c.2,.3,.3,.7,.5,1.2c.1,.5,.2,1.1,.2,1.7v.3c0,.1,0,.2,0,.4c-.1,.1,-.1,.3,-.1,.5c0,.2,0,.4,0,.7c.1,.2,.3,.4,.4,.5c.1,.2,.3,.3,.4,.5v-9h1.5Zm-2.3,2.9c-.2,-.3,-.5,-.6,-.7,-.8c-.2,-.2,-.4,-.4,-.6,-.4c-.2,-.1,-.4,-.1,-.6,0c-.3,.1,-.5,.3,-.8,.6c0,-.4,-.1,-.8,-.3,-1.2c-.2,-.3,-.5,-.7,-.9,-1.1h3.9v2.9Zm10.7,-5.3c-1.6,-1.7,-3.3,-2.5,-5.1,-2.5c-.6,0,-1.4,.3,-2.1,.8c-.7,.6,-1.1,1.3,-1.1,2c0,.2,.1,.4,.3,.7l.6,.5h-2.2l.8,.9h1.3v8.1l.8,.8v-8.9h1.5l-.9,-.9h-.9l-.3,-.8c0,-.6,.4,-1.1,1.1,-1.6c.7,-.5,1.3,-.7,1.9,-.7c.5,0,.9,.1,1.3,.2c.4,.1,.8,.2,1.1,.5c.4,.2,.8,.4,1.1,.7c.4,.2,.7,.5,.9,.7l-.1,-.5Zm2.5,2.4l-.8,-.9h-8.1l.8,.9h5.9V908h-.1c-.9,-1.9,-1.9,-2.8,-3.1,-2.8c-.5,0,-1,.2,-1.4,.6c-.4,.3,-.6,.8,-.6,1.4c0,1.1,.5,1.6,1.6,1.6c.3,0,.6,-.1,.8,-.4c.2,-.2,.3,-.5,.3,-.9c0,-.2,-.1,-.6,-.5,-1.1c0,0,.1,0,.2,-.1c.9,0,1.7,.6,2.3,1.8c.5,1.1,.7,2.1,.7,3.1l-.1,.9l.7,.4v-9.2h1.4Zm3.6,-.1c-.3,-.4,-.8,-.6,-1.3,-.6c-.5,0,-.9,.2,-1.3,.6c-.2,.2,-.3,.5,-.4,.7c-.1,.2,-.2,.5,-.2,.7c0,.6,.2,1.1,.6,1.5c.4,.4,.9,.6,1.4,.6c.5,0,.9,-.2,1.3,-.6c.3,-.4,.5,-.9,.5,-1.4c0,-.6,-.2,-1,-.6,-1.5Zm-.7,2.1c-.3,.4,-.7,.5,-1.1,.5c-.3,0,-.5,-.2,-.5,-.6c0,-.2,.1,-.4,.1,-.6c.1,-.2,.2,-.4,.4,-.6c.3,-.3,.6,-.5,1,-.5c.4,0,.6,.2,.6,.7c0,.4,-.2,.8,-.5,1.1Zm1.9,6.3c-.5,-.7,-1.1,-1.5,-1.9,-2.4c-.9,-.9,-1.6,-1.6,-2.2,-2.1V909c.3,.2,.6,.4,.9,.7c.4,.2,.8,.5,1.1,.8c.4,.2,.8,.5,1.1,.9c.4,.3,.7,.6,1,.9v-.7Zm14.1,-10.7c-1.6,-1.7,-3.3,-2.5,-5,-2.5c-.7,0,-1.4,.3,-2.1,.8c-.8,.6,-1.2,1.3,-1.2,2c0,.2,.2,.4,.4,.7l.5,.5h-2.2l.9,.9H511v8.1l.9,.8v-8.9h1.4l-.8,-.9h-.9l-.4,-.8c.1,-.6,.5,-1.1,1.2,-1.6c.6,-.5,1.3,-.7,1.9,-.7c.4,0,.8,.1,1.2,.2c.4,.1,.8,.2,1.2,.5c.4,.2,.8,.4,1.1,.7c.3,.2,.6,.5,.9,.7l-.2,-.5Zm2.9,6.7c0,-.5,-.1,-1,-.2,-1.3c-.2,-.3,-.4,-.5,-.6,-.6c.2,-.3,.3,-.8,.3,-1.3c0,-.5,-.1,-.9,-.4,-1.1h4.6l-.9,-.9H512.1l.8,.9h3.2c0,.4,-.1,.8,-.3,1.2c-.3,.5,-.6,.8,-.9,.8l-.8,-.6l-.3,.6l.6,.7c.2,.2,.3,.3,.5,.3c.1,.1,.3,.2,.4,.2c.4,0,.8,-.3,1.2,-.9c.1,-.3,.2,-.5,.3,-.7c.1,-.3,.2,-.5,.3,-.7c0,.2,.1,.5,.3,.8c.2,.3,.5,.6,.8,.9q.1,0,.1,.1q.1,0,.2,0c0,.1,.1,.1,.1,.1c-.1,.1,-.2,.2,-.4,.3c-.1,.2,-.2,.3,-.3,.4c-.1,.2,-.2,.3,-.2,.5c-.1,.2,-.2,.3,-.2,.5c-.1,.2,-.1,.4,-.1,.6c0,.1,.1,.3,.1,.5c.1,.1,.2,.3,.3,.4c.1,.1,.3,.2,.4,.3c.2,0,.4,.1,.6,.1c.2,0,.4,-.1,.6,-.3c.2,-.2,.3,-.4,.3,-.7c0,-.2,-.1,-.4,-.2,-.5c-.2,-.1,-.3,-.2,-.5,-.3c-.1,0,-.1,.1,-.2,.1c0,0,-.1,0,-.2,0c.3,-1,.8,-1.5,1.4,-1.5c.4,0,.6,.1,.6,.4v4.2c-.3,-.2,-.5,-.3,-.8,-.4c-.3,-.2,-.6,-.2,-.9,-.2h-1.3c-.8,0,-1.3,-.2,-1.6,-.5c-.3,-.3,-.5,-.7,-.5,-1.2c0,-.1,0,-.2,0,-.3c0,-.1,0,-.2,.1,-.2c0,-.1,0,-.2,0,-.3c0,-.1,.1,-.2,.1,-.3l-.4,-.4c-.1,.3,-.2,.7,-.3,.9c0,.3,0,.6,0,.9c0,.3,0,.6,.1,.9c.1,.3,.3,.6,.4,.9c.2,.2,.5,.5,.8,.6c.2,.2,.5,.2,.8,.2c.2,0,.4,0,.6,0c.2,0,.4,0,.7,-.1c.3,0,.5,-.1,.8,-.1c.2,0,.4,0,.5,0c.4,0,.7,.1,.9,.4c.2,.2,.3,.5,.5,1l.3,.2v-4c.2,-1.1,.7,-1.6,1.4,-1.6c.3,0,.5,.2,.7,.6c0,0,-.1,0,-.2,0c0,0,-.1,0,-.1,0c-.6,0,-1,.3,-1.1,.8c0,.2,.1,.4,.3,.6c.2,.2,.4,.2,.6,.2c.9,0,1.3,-.5,1.3,-1.5c0,-.2,0,-.4,-.1,-.6c-.1,-.2,-.1,-.3,-.2,-.4c-.2,-.2,-.3,-.3,-.4,-.4c-.2,-.1,-.4,-.1,-.6,-.1c-.6,0,-1.2,.3,-1.6,.9Zm-3.9,-4.3h2.2l.2,.1c.2,.2,.3,.5,.3,.8c0,.6,-.4,.9,-1.1,.9c-.5,0,-.8,-.2,-1.2,-.6c-.3,-.3,-.4,-.8,-.4,-1.2Zm18.7,-.9H535c0,-.8,-.2,-1.4,-.7,-1.8c-.5,-.4,-1.2,-.7,-1.9,-.7c-.3,0,-.8,.1,-1.3,.1c-.3,.1,-.6,.1,-.8,.1c-.2,0,-.4,0,-.5,0c-.3,0,-.6,-.1,-.9,-.2c-.3,-.2,-.5,-.4,-.5,-.7c0,-.1,.1,-.2,.1,-.3c0,-.1,.1,-.2,.2,-.3l-.1,-.2c-.2,0,-.3,.1,-.5,.3c0,.2,-.1,.4,-.1,.7c0,.6,.3,1,.9,1.4c.5,.3,1.1,.5,1.7,.5c.2,0,.3,0,.5,0c.2,0,.5,-.1,.7,-.1c.3,0,.5,0,.7,0c.2,0,.4,0,.5,0c.2,0,.3,0,.5,0c.1,.1,.3,.1,.4,.2c.3,.1,.4,.3,.4,.6c0,.1,0,.2,-.1,.4h-3.7v2.8c-.1,-.3,-.3,-.5,-.5,-.7c-.1,-.3,-.3,-.5,-.5,-.7c-.6,-.6,-1.2,-.9,-1.8,-.9c-.2,0,-.5,.1,-.8,.2c-.3,0,-.6,.2,-1,.4c-.7,.4,-1,.8,-1,1.4c0,.1,0,.3,.2,.5c.1,.1,.2,.2,.4,.2c.1,0,.3,-.1,.6,-.2c.3,-.1,.4,-.2,.6,-.2c.3,0,.5,.2,.5,.6c0,.1,-.1,.4,-.4,.7l-.7,.6l1.2,.4c.4,-.4,.8,-.8,1.3,-1.3c.4,-.4,.8,-.8,1.2,-1.2c.2,.3,.3,.5,.4,.6c.2,.2,.3,.4,.3,.5v2.1c0,2.2,.6,3.2,1.6,3.1c.4,0,.8,-.1,1.2,-.4c.4,-.3,.7,-.7,1.1,-1.1c.3,-.5,.5,-1,.7,-1.4c.2,-.5,.3,-.9,.3,-1.3c0,-.5,-.1,-.9,-.4,-1.2c-.3,-.3,-.6,-.5,-1,-.5c-.4,0,-.6,.1,-.9,.3c-.2,.2,-.3,.5,-.3,.9c0,.3,.1,.5,.4,.6c.2,.2,.4,.3,.7,.3h.3c-.1,.5,-.4,1.1,-.9,1.7c-.6,.7,-1,1,-1.5,1c-.3,0,-.5,-.2,-.5,-.6v-6.3H537l-.8,-.9Zm-8.6,3.3c0,-.2,0,-.3,0,-.5c-.1,-.1,-.2,-.2,-.3,-.4c-.1,-.1,-.2,-.2,-.4,-.2c-.1,-.1,-.3,-.1,-.4,-.1c.2,-.5,.7,-.8,1.5,-.8c.1,0,.2,.1,.3,.1c.1,0,.2,0,.3,.1c.2,.1,.4,.2,.5,.3l-1.5,1.5Z" class="g5_87"/>
<path d="M201.4,908.9c0,0,-.5,-9.9,8.6,-9.3c0,0,6.8,-.4,6.7,9.5m-15.3,-1.5v6.5c0,0,-3.4,.3,-4,-3c0,0,0,-3.8,4,-3.5Zm15.3,0v6.5c0,0,3.4,.3,4,-3c0,0,0,-3.8,-4,-3.5Z" class="g6_87"/>
<path d="M196.7,924.2H824.6" class="g7_87"/>
<path clip-path="url(#c0_87)" d="M867.9,163c0,0,30.3,0,30.3,-30.3v-4.4c0,0,0,-30.3,-30.3,-30.3H-746.6c0,0,-30.3,0,-30.3,30.3v4.4c0,0,0,30.3,30.3,30.3Z" class="g8_87"/>
<image clip-path="url(#c3_87)" preserveAspectRatio="none" x="700" y="68" width="148" height="126" xlink:href="img/3.png"/>
<path d="M154.1,868.9h713V594.4h-713V868.9Z" class="g9_87"/>
<path d="M154.1,599V866.6m4.6,2.3H864.9m2.2,-4.6V596.7m-4.5,-2.3H156.4" class="ga_87"/>
<path d="M154.1,868.9v0m713.1,0v0m0,-274.5v0m-713.1,0v0" class="gb_87"/>
<path d="M153.3,608.7V570.4c0,0,0,-8.7,8.7,-8.7H859.3c0,0,8.6,0,8.6,8.7v39Z" class="gc_87"/>
<path d="M794,586.8c0,0,-.5,-9.9,8.6,-9.3c0,0,6.8,-.4,6.7,9.4m-15.4,-1.5v6.5c0,0,-3.3,.4,-3.9,-3c0,0,-.1,-3.7,3.9,-3.5Zm15.4,0v6.5c0,0,3.4,.4,4,-3c0,0,0,-3.7,-4,-3.5Z" class="gd_87"/>
<path d="M213.1,772.2c0,0,-8.7,0,-8.7,8.7v58.4c0,0,0,8.7,8.7,8.7h68.5c0,0,8.7,0,8.7,-8.7V780.9c0,0,0,-8.7,-8.7,-8.7Z" class="g4_87"/>
<image clip-path="url(#c4_87)" preserveAspectRatio="none" x="206" y="771" width="86" height="79" xlink:href="img/4.jpg"/>
<path d="M154.1,1243.9h713V1121h-713v122.9Z" class="ge_87"/>
<path d="M154.1,1125.6v116m4.6,2.3H864.9m2.2,-4.5V1123.3m-4.5,-2.3H156.4" class="gf_87"/>
<path d="M154.1,1243.9v0m713.1,0v0m0,-122.9v0m-713.1,0v0" class="gg_87"/>
<path d="M153.3,1124.3v-28.7c0,0,0,-8.6,8.7,-8.6H859.3c0,0,8.6,0,8.6,8.6v29.2Z" class="gh_87"/>
<path d="M195.5,1091.1c3.4,0,6.1,-2.8,6.1,-6.1c0,-3.4,-2.7,-6.1,-6.1,-6.1c-3.4,0,-6.1,2.7,-6.1,6.1c0,3.3,2.7,6.1,6.1,6.1Z" class="gi_87"/>
<path d="M195.5,1093c4.4,0,8,-3.6,8,-8c0,-4.5,-3.6,-8.1,-8,-8.1c-4.4,0,-8,3.6,-8,8.1c0,4.4,3.6,8,8,8m0,-14.1c3.4,0,6.1,2.7,6.1,6.1c0,3.3,-2.7,6.1,-6.1,6.1c-3.4,0,-6.1,-2.8,-6.1,-6.1c0,-3.4,2.7,-6.1,6.1,-6.1Z" class="gj_87"/>
<path d="M180.9,1107.1h29.2v-3.8c0,-4.4,-3.5,-8,-7.9,-8H188.8c-4.3,0,-7.9,3.6,-7.9,8Z" class="gi_87"/>
<path d="M172.6,1112.4h45.8V1109H172.6v3.4Z" class="g4_87"/>
<path d="M219.4,1107.1h-2.7v-11.6c0,-.2,-.1,-.5,-.3,-.6l-2.6,-2.6c.3,-.6,.5,-1.2,.5,-1.8c0,-2,-1.6,-3.6,-3.6,-3.6c-2,0,-3.6,1.6,-3.6,3.6c0,2,1.6,3.6,3.6,3.6c.7,0,1.3,-.2,1.8,-.5l2.3,2.3v11.2H212v-3.8c0,-5.5,-4.4,-9.9,-9.8,-9.9H188.8c-5.4,0,-9.8,4.4,-9.8,9.9v3.8h-7.4c-.5,0,-.9,.4,-.9,.9v5.4c0,.5,.4,.9,.9,.9h2.7v11.3c0,.6,.4,1,.9,1h40.6c.5,0,.9,-.4,.9,-1v-11.3h2.7c.5,0,.9,-.4,.9,-.9V1108c0,-.5,-.4,-.9,-.9,-.9m-8.7,-14.9c-.9,0,-1.7,-.8,-1.7,-1.7c0,-.9,.8,-1.7,1.7,-1.7c.9,0,1.7,.8,1.7,1.7c0,.9,-.8,1.7,-1.7,1.7m7.7,20.2H172.6V1109h45.8Zm-3.6,12.3H176.2v-10.4h38.6v10.4Zm-26,-29.4h13.4c4.4,0,7.9,3.6,7.9,8v3.8H180.9v-3.8c0,-4.4,3.6,-8,7.9,-8Z" class="gj_87"/>
<path d="M176.2,1124.7h38.6v-10.4H176.2v10.4Zm2.8,-7.6c0,-.2,.2,-.4,.5,-.4h32c.3,0,.5,.2,.5,.4v4.8c0,.2,-.2,.4,-.5,.4h-32c-.3,0,-.5,-.2,-.5,-.4Z" class="g4_87"/>
<path d="M180,1121.4h31v-3.8H180v3.8Z" class="gk_87"/>
<path d="M179.5,1122.3h32c.3,0,.5,-.2,.5,-.4v-4.8c0,-.2,-.2,-.4,-.5,-.4h-32c-.3,0,-.5,.2,-.5,.4v4.8c0,.2,.2,.4,.5,.4m.5,-4.7h31v3.8H180Z" class="gj_87"/>
<path d="M212.4,1090.5c0,-.9,-.8,-1.7,-1.7,-1.7c-.9,0,-1.7,.8,-1.7,1.7c0,.9,.8,1.7,1.7,1.7c.9,0,1.7,-.8,1.7,-1.7Z" class="g4_87"/>
<path d="M32.1,45.1H9.2m958.3,0h22.9M32.1,1331.3H9.2m958.3,0h22.9M45.1,32.1V9.2m0,1335.1v22.9M954.5,32.1V9.2m0,1335.1v22.9" class="gl_87"/>
<path d="M32.1,45.1H9.2m958.3,0h22.9M32.1,1331.3H9.2m958.3,0h22.9M45.1,32.1V9.2m0,1335.1v22.9M954.5,32.1V9.2m0,1335.1v22.9" class="gm_87"/>
<path d="M27.5,32.1H0m972.1,0h27.5M27.5,1344.3H0m972.1,0h27.5M32.1,27.5V0m0,1348.9v27.5M967.5,27.5V0m0,1348.9v27.5" class="gl_87"/>
<path d="M27.5,32.1H0m972.1,0h27.5M27.5,1344.3H0m972.1,0h27.5M32.1,27.5V0m0,1348.9v27.5M967.5,27.5V0m0,1348.9v27.5" class="gm_87"/>
</svg>