<?xml version="1.0" encoding="UTF-8" standalone="no"?>
<!DOCTYPE svg PUBLIC "-//W3C//DTD SVG 1.1//EN"
"http://www.w3.org/Graphics/SVG/1.1/DTD/svg11.dtd">
<svg viewBox="0 0 999 1376" version="1.1" xmlns="http://www.w3.org/2000/svg" xmlns:xlink="http://www.w3.org/1999/xlink">
<defs>
<clipPath id="c0_121"><path d="M154,1250.7V132.1H868.6V1250.7Z"/></clipPath>
<clipPath id="c1_121"><path d="M174.7,659.1V233.9H833.6V659.1Z"/></clipPath>
<clipPath id="c2_121"><path d="M211.6,368.7V241H334.9V368.7Z"/></clipPath>
<clipPath id="c3_121"><path d="M516,349.3v-105H640.3v105Z"/></clipPath>
<clipPath id="c4_121"><path d="M357.8,369.8V241H487.6V369.8Z"/></clipPath>
<clipPath id="c5_121"><path d="M663.3,366.5V241H793.1V366.5Z"/></clipPath>
<clipPath id="c6_121"><path d="M205.1,482.8V379H334.9V482.8Z"/></clipPath>
<clipPath id="c7_121"><path d="M510.5,504.5V379H640.3V504.5Z"/></clipPath>
<clipPath id="c8_121"><path d="M357.8,483.8V379H487.6V483.8Z"/></clipPath>
<clipPath id="c9_121"><path d="M663.3,504.5V379H793.1V504.5Z"/></clipPath>
<clipPath id="ca_121"><path d="M205.1,634.8V517.9H334.9V634.8Z"/></clipPath>
<clipPath id="cb_121"><path d="M510.5,632.7V516.8H640.3V632.7Z"/></clipPath>
<clipPath id="cc_121"><path d="M357.8,632.7v-117H487.6v117Z"/></clipPath>
<clipPath id="cd_121"><path d="M663.3,632.7V519H793.1V632.7Z"/></clipPath>
<style type="text/css"><![CDATA[
.g0_121{
fill: #FFF;
}
.g1_121{
fill: none;
stroke: #231F20;
stroke-width: 1.527;
}
.g2_121{
fill: #25408F;
}
.g3_121{
fill: #6381B7;
}
.g4_121{
fill: #FFDE2C;
}
.g5_121{
fill: none;
stroke: #231F20;
stroke-width: 1.451;
stroke-miterlimit: 10;
}
.g6_121{
fill: #D2D3D5;
}
.g7_121{
fill: #A8AAAD;
}
.g8_121{
fill: none;
stroke: #231F20;
stroke-width: 0.828;
stroke-miterlimit: 10;
}
.g9_121{
fill: #6CCFF6;
}
.ga_121{
fill: none;
stroke: #231F20;
stroke-width: 0.828;
stroke-linecap: round;
stroke-linejoin: round;
}
.gb_121{
fill: none;
stroke: #231F20;
stroke-width: 1.451;
stroke-linecap: round;
stroke-linejoin: round;
}
.gc_121{
fill: none;
stroke: #231F20;
stroke-width: 0.756;
stroke-miterlimit: 3;
}
.gd_121{
fill: none;
stroke: #FFF;
stroke-width: 1.909;
stroke-miterlimit: 10;
}
.ge_121{
fill: none;
stroke: #000;
stroke-width: 0.381;
stroke-miterlimit: 10;
}
]]></style>
</defs>
<path d="M154,1250.7H868.6V132.1H154V1250.7Z" class="g0_121"/>
<image clip-path="url(#c0_121)" preserveAspectRatio="none" x="152" y="130" width="718" height="1123" xlink:href="img/1.jpg"/>
<image clip-path="url(#c1_121)" preserveAspectRatio="none" x="174" y="234" width="659" height="425" xlink:href="img/2.png"/>
<path d="M189.4,235.6c0,0,-13,0,-13,13V638.4c0,0,0,13,13,13H813.1c0,0,12.9,0,12.9,-13V248.6c0,0,0,-13,-12.9,-13Z" class="g0_121"/>
<path d="M184.6,677c-.4,0,-.7,.1,-.9,.4c-.3,.2,-.4,.5,-.4,.9c0,.4,.1,.7,.4,1c.2,.2,.5,.3,.9,.3c.4,0,.7,-.1,.9,-.3c.3,-.3,.4,-.6,.4,-1c0,-.4,-.1,-.7,-.4,-.9c-.2,-.3,-.5,-.4,-.9,-.4Zm0,68.5c-.4,0,-.7,.1,-.9,.4c-.3,.2,-.4,.5,-.4,.9c0,.4,.1,.7,.4,.9c.2,.3,.5,.4,.9,.4c.4,0,.7,-.1,.9,-.4c.3,-.2,.4,-.5,.4,-.9c0,-.4,-.1,-.7,-.4,-.9c-.2,-.3,-.5,-.4,-.9,-.4Zm0,132.6c-.4,0,-.7,.2,-.9,.4c-.3,.3,-.4,.6,-.4,1c0,.3,.1,.7,.4,.9c.2,.3,.5,.4,.9,.4c.4,0,.7,-.1,.9,-.4c.3,-.2,.4,-.6,.4,-.9c0,-.4,-.1,-.7,-.4,-1c-.2,-.2,-.5,-.4,-.9,-.4Zm0,89.9c-.4,0,-.7,.1,-.9,.4c-.3,.3,-.4,.6,-.4,.9c0,.4,.1,.7,.4,1c.2,.3,.5,.4,.9,.4c.4,0,.7,-.1,.9,-.4c.3,-.3,.4,-.6,.4,-1c0,-.3,-.1,-.6,-.4,-.9c-.2,-.3,-.5,-.4,-.9,-.4Zm0,68.5c-.4,0,-.7,.1,-.9,.4c-.3,.3,-.4,.6,-.4,.9c0,.4,.1,.7,.4,1c.2,.3,.5,.4,.9,.4c.4,0,.7,-.1,.9,-.4c.3,-.3,.4,-.6,.4,-1c0,-.3,-.1,-.6,-.4,-.9c-.2,-.3,-.5,-.4,-.9,-.4Zm0,68.5c-.4,0,-.7,.1,-.9,.4c-.3,.3,-.4,.6,-.4,.9c0,.4,.1,.7,.4,1c.2,.3,.5,.4,.9,.4c.4,0,.7,-.1,.9,-.4c.3,-.3,.4,-.6,.4,-1c0,-.3,-.1,-.6,-.4,-.9c-.2,-.3,-.5,-.4,-.9,-.4Zm0,68.5c-.4,0,-.7,.1,-.9,.4c-.3,.3,-.4,.6,-.4,.9c0,.4,.1,.7,.4,1c.2,.2,.5,.4,.9,.4c.4,0,.7,-.2,.9,-.4c.3,-.3,.4,-.6,.4,-1c0,-.3,-.1,-.6,-.4,-.9c-.2,-.3,-.5,-.4,-.9,-.4ZM518.1,677c-.4,0,-.7,.1,-1,.4c-.2,.2,-.4,.5,-.4,.9c0,.4,.2,.7,.4,1c.3,.2,.6,.3,1,.3c.3,0,.6,-.1,.9,-.3c.3,-.3,.4,-.6,.4,-1c0,-.4,-.1,-.7,-.4,-.9c-.3,-.3,-.6,-.4,-.9,-.4Zm0,85.5c-.4,0,-.7,.1,-1,.4c-.2,.3,-.4,.6,-.4,1c0,.3,.2,.7,.4,.9c.3,.3,.6,.4,1,.4c.3,0,.6,-.1,.9,-.4c.3,-.2,.4,-.6,.4,-.9c0,-.4,-.1,-.7,-.4,-1c-.3,-.3,-.6,-.4,-.9,-.4Zm0,149.7c-.4,0,-.7,.2,-1,.4c-.2,.3,-.4,.6,-.4,1c0,.4,.2,.7,.4,.9c.3,.3,.6,.4,1,.4c.3,0,.6,-.1,.9,-.4c.3,-.2,.4,-.5,.4,-.9c0,-.4,-.1,-.7,-.4,-1c-.3,-.2,-.6,-.4,-.9,-.4Zm0,64.2c-.4,0,-.7,.1,-1,.4c-.2,.3,-.4,.6,-.4,.9c0,.4,.2,.7,.4,1c.3,.3,.6,.4,1,.4c.3,0,.6,-.1,.9,-.4c.3,-.3,.4,-.6,.4,-1c0,-.3,-.1,-.6,-.4,-.9c-.3,-.3,-.6,-.4,-.9,-.4Zm0,85.6c-.4,0,-.7,.1,-1,.4c-.2,.2,-.4,.5,-.4,.9c0,.4,.2,.7,.4,1c.3,.2,.6,.3,1,.3c.3,0,.6,-.1,.9,-.3c.3,-.3,.4,-.6,.4,-1c0,-.4,-.1,-.7,-.4,-.9c-.3,-.3,-.6,-.4,-.9,-.4Z" class="g1_121"/>
<image clip-path="url(#c2_121)" preserveAspectRatio="none" x="212" y="239" width="125" height="130" xlink:href="img/3.jpg"/>
<image clip-path="url(#c3_121)" preserveAspectRatio="none" x="516" y="244" width="126" height="107" xlink:href="img/4.jpg"/>
<image clip-path="url(#c4_121)" preserveAspectRatio="none" x="358" y="240" width="130" height="130" xlink:href="img/5.jpg"/>
<image clip-path="url(#c5_121)" preserveAspectRatio="none" x="663" y="239" width="130" height="128" xlink:href="img/6.jpg"/>
<image clip-path="url(#c6_121)" preserveAspectRatio="none" x="205" y="379" width="130" height="106" xlink:href="img/7.jpg"/>
<image clip-path="url(#c7_121)" preserveAspectRatio="none" x="511" y="377" width="129" height="127" xlink:href="img/8.jpg"/>
<image clip-path="url(#c8_121)" preserveAspectRatio="none" x="358" y="378" width="130" height="107" xlink:href="img/9.jpg"/>
<image clip-path="url(#c9_121)" preserveAspectRatio="none" x="663" y="377" width="130" height="127" xlink:href="img/10.jpg"/>
<path d="M365.3,506.5H480.1V478.4H365.3v28.1Z" class="g0_121"/>
<image clip-path="url(#ca_121)" preserveAspectRatio="none" x="205" y="517" width="130" height="120" xlink:href="img/11.jpg"/>
<image clip-path="url(#cb_121)" preserveAspectRatio="none" x="511" y="517" width="129" height="118" xlink:href="img/12.jpg"/>
<image clip-path="url(#cc_121)" preserveAspectRatio="none" x="358" y="516" width="130" height="119" xlink:href="img/13.jpg"/>
<image clip-path="url(#cd_121)" preserveAspectRatio="none" x="663" y="519" width="130" height="115" xlink:href="img/14.jpg"/>
<path d="M228.3,282.4h31.6V269H228.3v13.4Z" class="g0_121"/>
<path d="M381.8,286.4h31.6V273H381.8v13.4Z" class="g0_121"/>
<path d="M535.3,275.7h31.6V262.3H535.3v13.4Z" class="g0_121"/>
<path d="M686.7,279.7h31.6V266.3H686.7v13.4Z" class="g0_121"/>
<path d="M228.3,414.2h31.6V400.7H228.3v13.5Z" class="g0_121"/>
<path d="M379.4,414.2H411V400.7H379.4v13.5Z" class="g0_121"/>
<path d="M535.3,418.5h31.6V405.1H535.3v13.4Z" class="g0_121"/>
<path d="M683.9,414.2h31.6V400.7H683.9v13.5Z" class="g0_121"/>
<path d="M692.5,558.7h41.2V545.3H692.5v13.4Z" class="g0_121"/>
<path d="M539.9,558.7H581V545.3H539.9v13.4Z" class="g0_121"/>
<path d="M385,558.7h41.2V545.3H385v13.4Z" class="g0_121"/>
<path d="M230.2,563h41.2V549.6H230.2V563Z" class="g0_121"/>
<path d="M153.3,126.3v22.2L165,158.7V136.5Z" class="g2_121"/>
<path d="M153.3,109.5v39H851.1c0,0,16.8,0,16.8,-16.8v-5.4c0,0,0,-16.8,-16.8,-16.8Z" class="g3_121"/>
<path d="M207.2,115.7c0,-9.1,-7.9,-16.6,-17.7,-16.6c-9.8,0,-17.7,7.5,-17.7,16.6c0,2.7,.6,5.2,1.8,7.4c1.2,2.4,2.9,4.6,5,6.2c1.2,1,1.6,1.7,1.7,4.3v.6c0,3.3,2.7,5.9,5.9,5.9h6.6c3.2,0,5.8,-2.6,5.8,-5.9v-.6c.2,-2.6,.6,-3.3,1.8,-4.3c2.1,-1.6,3.8,-3.8,5,-6.2c1.2,-2.2,1.8,-4.7,1.8,-7.4Z" class="g4_121"/>
<path d="M207.2,115.7c0,-9.1,-7.9,-16.6,-17.7,-16.6c-9.8,0,-17.7,7.5,-17.7,16.6c0,2.7,.6,5.2,1.8,7.4c1.2,2.4,2.9,4.6,5,6.2c1.2,1,1.6,1.7,1.7,4.3v.6c0,3.3,2.7,5.9,5.9,5.9h6.6c3.2,0,5.8,-2.6,5.8,-5.9v-.6c.2,-2.6,.6,-3.3,1.8,-4.3c2.1,-1.6,3.8,-3.8,5,-6.2c1.2,-2.2,1.8,-4.7,1.8,-7.4Z" class="g5_121"/>
<path d="M194.6,147.4c0,2.8,-2.3,5.1,-5.1,5.1c-2.8,0,-5.1,-2.3,-5.1,-5.1c0,-2.8,2.3,-5.1,5.1,-5.1c2.8,0,5.1,2.3,5.1,5.1Z" class="g0_121"/>
<path d="M194.6,147.4c0,2.8,-2.3,5.1,-5.1,5.1c-2.8,0,-5.1,-2.3,-5.1,-5.1c0,-2.8,2.3,-5.1,5.1,-5.1c2.8,0,5.1,2.3,5.1,5.1Z" class="g5_121"/>
<path d="M182.1,140.2c0,1,.8,1.8,1.8,1.8h11.2c1,0,1.8,-.8,1.8,-1.8v-1.3H182.1Z" class="g0_121"/>
<path d="M182.1,140.2c0,1,.8,1.8,1.8,1.8h11.2c1,0,1.8,-.8,1.8,-1.8v-1.3H182.1v1.3Z" class="g5_121"/>
<path d="M196.9,143.2c0,.8,-.6,1.3,-1.3,1.3H183.4c-.8,0,-1.3,-.5,-1.3,-1.3c0,-.7,.5,-1.3,1.3,-1.3h12.2c.7,0,1.3,.6,1.3,1.3Z" class="g0_121"/>
<path d="M196.9,143.2c0,.8,-.6,1.3,-1.3,1.3H183.4c-.8,0,-1.3,-.5,-1.3,-1.3c0,-.7,.5,-1.3,1.3,-1.3h12.2c.7,0,1.3,.6,1.3,1.3Z" class="g5_121"/>
<path d="M196.9,145.8c0,.7,-.6,1.3,-1.3,1.3H183.4c-.8,0,-1.3,-.6,-1.3,-1.3c0,-.7,.5,-1.3,1.3,-1.3h12.2c.7,0,1.3,.6,1.3,1.3Z" class="g0_121"/>
<path d="M196.9,145.8c0,.7,-.6,1.3,-1.3,1.3H183.4c-.8,0,-1.3,-.6,-1.3,-1.3c0,-.7,.5,-1.3,1.3,-1.3h12.2c.7,0,1.3,.6,1.3,1.3Z" class="g5_121"/>
<path d="M215.5,128.7l8.3,10.4c.6,.7,1.8,.6,2.7,-.2c.9,-.7,1.2,-1.9,.7,-2.6l-8.9,-10.2Z" class="g6_121"/>
<path d="M215.5,128.7l8.3,10.4c.6,.7,1.8,.6,2.7,-.2c.9,-.7,1.2,-1.9,.7,-2.6l-8.9,-10.2l-2.8,2.6Z" class="g5_121"/>
<path d="M217.5,125.1c.5,.6,.3,1.8,-.7,2.6c-.9,.7,-2.1,.8,-2.6,.2c-.6,-.7,-.3,-1.9,.6,-2.6c.9,-.8,2.1,-.9,2.7,-.2Z" class="g7_121"/>
<path d="M217.5,125.1c.5,.6,.3,1.8,-.7,2.6c-.9,.7,-2.1,.8,-2.6,.2c-.6,-.7,-.3,-1.9,.6,-2.6c.9,-.8,2.1,-.9,2.7,-.2Z" class="g5_121"/>
<path d="M212.7,124.7l1.7,2c.3,.3,1,.3,1.5,-.1c.5,-.5,.7,-1.1,.4,-1.5l-1.7,-2Z" class="g0_121"/>
<path d="M212.7,124.7l1.7,2c.3,.3,1,.3,1.5,-.1c.5,-.5,.7,-1.1,.4,-1.5l-1.7,-2l-1.9,1.6Z" class="g8_121"/>
<path d="M214.8,122.9c.4,.5,.2,1.3,-.5,1.8c-.6,.5,-1.4,.6,-1.8,.1c-.4,-.4,-.2,-1.2,.5,-1.7c.6,-.6,1.4,-.6,1.8,-.2Z" class="g0_121"/>
<path d="M214.8,122.9c.4,.5,.2,1.3,-.5,1.8c-.6,.5,-1.4,.6,-1.8,.1c-.4,-.4,-.2,-1.2,.5,-1.7c.6,-.6,1.4,-.6,1.8,-.2Z" class="g8_121"/>
<path d="M216.4,105.4c4.8,5.7,4.1,14.2,-1.7,19c-5.7,4.8,-14.2,4,-19,-1.7c-4.8,-5.7,-4,-14.2,1.7,-19c5.7,-4.8,14.2,-4.1,19,1.7Z" class="g0_121"/>
<path d="M216.4,105.4c4.8,5.7,4.1,14.2,-1.7,19c-5.7,4.8,-14.2,4,-19,-1.7c-4.8,-5.7,-4,-14.2,1.7,-19c5.7,-4.8,14.2,-4.1,19,1.7Z" class="g5_121"/>
<path d="M214,107.4c3.5,4.2,3,10.5,-1.3,14.1c-4.2,3.5,-10.5,2.9,-14,-1.3c-3.5,-4.2,-3,-10.5,1.2,-14c4.2,-3.6,10.5,-3,14.1,1.2Z" class="g9_121"/>
<path d="M214,107.4c3.5,4.2,3,10.5,-1.3,14.1c-4.2,3.5,-10.5,2.9,-14,-1.3c-3.5,-4.2,-3,-10.5,1.2,-14c4.2,-3.6,10.5,-3,14.1,1.2Z" class="g5_121"/>
<path d="M213,110.6l-3.1,3m3.1,-.4l-3.1,3" class="ga_121"/>
<path d="M172.1,99l3.1,3.3m1.1,-5.9l1.2,3.9m-8.1,3l3.7,1.2" class="gb_121"/>
<path d="M185.8,106.1c1.2,1.2,.2,4.3,-2.2,6.7c-2.5,2.5,-5.5,3.5,-6.8,2.3c-1.2,-1.3,-.3,-4.3,2.2,-6.8c2.5,-2.5,5.5,-3.5,6.8,-2.2Z" class="g0_121"/>
<path d="M203.7,107.6c.6,.6,.1,1.9,-.9,3c-1.1,1,-2.4,1.5,-3,.9c-.5,-.5,-.1,-1.8,1,-2.9c1.1,-1.1,2.4,-1.5,2.9,-1Z" class="g0_121"/>
<path d="M372.1,189.4c-.3,.7,-.7,1.2,-1.2,1.6c-.6,.4,-1.2,.8,-1.9,1c-.7,.3,-1.5,.4,-2.2,.4c-.8,0,-1.6,-.1,-2.3,-.4c-.7,-.2,-1.3,-.5,-1.9,-1c-.5,-.4,-.9,-.9,-1.2,-1.5c-.3,-.6,-.5,-1.3,-.5,-2.1c0,-.7,.2,-1.3,.5,-1.9c.3,-.6,.7,-1.1,1.2,-1.6c.6,-.4,1.2,-.8,1.9,-1c.7,-.2,1.4,-.4,2.3,-.4c.8,0,1.6,.2,2.3,.4c.7,.2,1.3,.6,1.8,1c.6,.5,1,1,1.3,1.6c.3,.6,.4,1.2,.4,1.9c0,.8,-.1,1.5,-.5,2ZM383.6,187h-4.2v8h-2.3V177.5h2.3v7.6h4.2V187Zm-17,14.9c-.8,0,-1.4,-.2,-1.8,-.5c-.4,-.4,-.6,-.9,-.6,-1.6v-5.3h2.3v4.8c0,.3,0,.5,.1,.6c.1,.1,.4,.2,.7,.2h7.1c1.1,0,2,0,2.9,-.2c.8,-.1,1.7,-.3,2.6,-.6l.5,1.7c-1,.3,-2,.6,-3,.7c-.9,.1,-1.9,.2,-2.9,.2h-7.9Zm2.7,-16.8c-.7,-.5,-1.6,-.8,-2.5,-.8c-1,0,-1.9,.3,-2.6,.8c-.7,.6,-1,1.4,-1,2.3c0,1.1,.3,1.9,1,2.4c.7,.6,1.6,.8,2.6,.8c.9,0,1.8,-.2,2.5,-.8c.7,-.5,1.1,-1.3,1.1,-2.4c0,-.9,-.4,-1.7,-1.1,-2.3Zm4.7,-3.4H359.5v-1.8H365c.2,-.4,.4,-.7,.5,-1c0,-.4,.1,-.7,.1,-1c0,-.2,0,-.3,-.1,-.4c0,-.1,0,-.2,0,-.3c0,-.1,-.1,-.2,-.1,-.3c0,-.1,-.1,-.2,-.1,-.3l2.2,-.6c.1,.2,.2,.5,.2,.8c0,.3,0,.6,0,1c0,.3,0,.7,-.1,1.1c-.1,.3,-.3,.7,-.5,1H374v1.8Zm32,7.1H395.9v4.3h4.9c.8,0,1.3,.2,1.6,.6c.3,.3,.5,.9,.4,1.6l-.2,6.9h-2v-6.5c0,-.3,-.1,-.5,-.2,-.6c-.1,-.2,-.3,-.2,-.5,-.2H387.1v-1.8h6.5v-4.3h-9V187h15.2c.2,-1.1,.4,-2.3,.6,-3.5c.1,-1.3,.2,-2.4,.1,-3.5c0,-.3,0,-.5,-.1,-.6c-.1,-.1,-.3,-.2,-.6,-.2H387.5v-1.8h12.9c.8,0,1.4,.2,1.8,.5c.4,.3,.6,.8,.6,1.5c0,1.1,-.1,2.4,-.2,3.7c-.2,1.4,-.4,2.7,-.7,3.9H406v1.8Zm15.8,-1.9c-.4,.7,-.8,1.4,-1.4,1.9c-.6,.6,-1.3,1,-2.1,1.3c-.8,.3,-1.6,.4,-2.6,.4c-1,0,-1.9,-.1,-2.7,-.4c-.8,-.3,-1.5,-.7,-2.1,-1.3c-.5,-.5,-1,-1.2,-1.3,-1.9c-.3,-.8,-.5,-1.7,-.5,-2.6c0,-.9,.2,-1.8,.5,-2.6c.3,-.7,.8,-1.4,1.4,-1.9c.6,-.6,1.2,-1,2,-1.3c.8,-.3,1.7,-.5,2.7,-.5c1,0,1.8,.2,2.6,.5c.8,.3,1.5,.7,2.1,1.3c.6,.5,1,1.2,1.4,1.9c.3,.8,.5,1.7,.5,2.6c0,.9,-.2,1.8,-.5,2.6Zm6.4,13.4h-2.3v-5.5c-1.1,.6,-2.3,1.1,-3.6,1.4c-1.2,.3,-2.7,.5,-4.4,.5h-9.8v-1.9h9.8c1.4,0,2.8,-.1,4.1,-.4c1.3,-.4,2.6,-.9,3.9,-1.8V177.8h2.3v22.5Zm-9.4,-19.2c-.8,-.8,-1.8,-1.2,-3.1,-1.2c-1.3,0,-2.3,.4,-3.1,1.2c-.8,.8,-1.2,1.8,-1.2,3.2c0,1.5,.4,2.6,1.2,3.3c.8,.7,1.8,1.1,3.1,1.1c1.3,0,2.3,-.4,3.1,-1.1c.8,-.7,1.2,-1.8,1.2,-3.3c0,-1.4,-.4,-2.4,-1.2,-3.2Zm36.1,18.4c-.4,.7,-.8,1.3,-1.4,1.7c-.6,.5,-1.3,.9,-2.1,1.2c-.8,.3,-1.7,.4,-2.6,.4c-1,0,-1.8,-.1,-2.6,-.4c-.9,-.3,-1.6,-.7,-2.1,-1.2c-.6,-.4,-1.1,-1,-1.4,-1.7c-.4,-.7,-.5,-1.5,-.5,-2.3c0,-.8,.1,-1.5,.5,-2.2c.3,-.7,.8,-1.2,1.4,-1.7c.5,-.5,1.2,-.9,2.1,-1.2c.8,-.2,1.6,-.4,2.6,-.4c.9,0,1.8,.2,2.6,.4c.8,.3,1.5,.7,2.1,1.2c.6,.5,1,1,1.4,1.7c.3,.7,.5,1.4,.5,2.2c0,.8,-.2,1.6,-.5,2.3Zm-3,-4.9c-.8,-.8,-1.8,-1.1,-3.1,-1.1c-1.3,0,-2.3,.3,-3.2,1.1c-.8,.7,-1.2,1.6,-1.2,2.6c0,1.1,.4,2,1.2,2.7c.9,.8,1.9,1.1,3.2,1.1c1.3,0,2.3,-.3,3.1,-1.1c.8,-.7,1.3,-1.6,1.3,-2.7c0,-1,-.5,-1.9,-1.3,-2.6Zm7.7,-4.8H438.3V188h7.6v-4.9h2.2V188h11.5v1.8Zm-6,-3.5c.3,-1.2,.4,-2.3,.5,-3.4c.2,-1.1,.2,-2,.2,-2.9c0,-.3,-.1,-.5,-.2,-.6c-.1,-.1,-.3,-.2,-.6,-.2H441.2v-1.8h12.9c.8,0,1.4,.2,1.8,.5c.3,.3,.5,.8,.6,1.5c0,.8,0,1.8,-.2,3.1c-.1,1.4,-.3,2.7,-.6,4.1l-2.1,-.3Zm23.9,1c-.3,.6,-.8,1.2,-1.3,1.7c-.6,.4,-1.3,.7,-2.1,1c-.7,.2,-1.6,.4,-2.4,.4c-.9,0,-1.8,-.2,-2.5,-.4c-.8,-.3,-1.4,-.6,-2,-1.1c-.6,-.4,-1,-1,-1.4,-1.6c-.3,-.7,-.4,-1.4,-.4,-2.2c0,-.7,.1,-1.4,.3,-2c.3,-.6,.7,-1.1,1.1,-1.6h-3.6v-1.8h6.9c.2,-.3,.3,-.7,.4,-.9c0,-.3,0,-.5,0,-.8c0,-.2,0,-.4,-.1,-.7c0,-.2,-.1,-.5,-.1,-.8l2.3,-.6c0,.2,.1,.5,.1,.7c.1,.3,.1,.5,.1,.8c0,.4,0,.9,-.1,1.2c-.1,.4,-.3,.8,-.5,1.1h8v1.8h-3.7c.5,.5,.9,1,1.1,1.6c.3,.6,.4,1.3,.4,2c0,.8,-.1,1.5,-.5,2.2Zm-10.8,13.9v-6.8h-5.5v-1.8h21.4v1.8h-5.7v6.8h-2.2v-6.8H469v6.8h-2.3Zm8.1,-18.6c-.7,-.6,-1.7,-1,-3.1,-1c-1.5,0,-2.6,.4,-3.2,1.1c-.6,.7,-.9,1.5,-.9,2.4c0,.9,.3,1.7,.9,2.4c.7,.7,1.7,1,3.2,1c1.4,0,2.4,-.3,3.1,-1c.7,-.7,1,-1.5,1,-2.4c0,-1,-.3,-1.8,-1,-2.5Zm29.5,-5.1v9.2c0,.4,-.1,.8,-.2,1.2c-.1,.4,-.2,.8,-.4,1.3c-.1,.4,-.4,.8,-.6,1.1c-.3,.4,-.6,.7,-1,.9h.6c.6,0,1.1,.2,1.3,.5c.2,.2,.3,.7,.2,1.2l-.3,3.9c-.1,.3,-.2,.5,-.3,.6c-.2,.1,-.4,.2,-.7,.2H491.2v2.8H499c.8,0,1.7,0,2.6,-.1c.9,-.1,1.9,-.3,2.9,-.7l.4,1.7c-.8,.3,-1.7,.5,-2.7,.7c-1,.1,-2,.2,-3.1,.2h-8.4c-.6,0,-1.1,-.1,-1.3,-.4c-.3,-.3,-.4,-.7,-.4,-1.2v-4.8h13V193H489v-1.8h11.1c.8,-.6,1.3,-1.3,1.5,-2.1c.3,-.8,.4,-1.6,.4,-2.4v-9.2h2.3Zm-7.6,7.6c-.3,.8,-.7,1.3,-1.3,1.8c-.5,.5,-1.2,.9,-2,1.1c-.7,.3,-1.6,.4,-2.5,.4c-.8,0,-1.6,-.1,-2.4,-.3c-.7,-.2,-1.4,-.6,-2,-1.1c-.6,-.5,-1,-1,-1.3,-1.7c-.4,-.7,-.5,-1.6,-.5,-2.5c0,-.9,.1,-1.6,.5,-2.3c.3,-.7,.7,-1.3,1.3,-1.8c.5,-.5,1.2,-.9,2,-1.1c.7,-.3,1.6,-.5,2.4,-.5c.9,0,1.8,.2,2.5,.5c.8,.2,1.5,.6,2,1.1c.6,.5,1,1.1,1.3,1.8c.4,.7,.5,1.4,.5,2.3c0,.9,-.1,1.6,-.5,2.3Zm-2.8,-5c-.7,-.8,-1.7,-1.2,-3,-1.2c-1.3,0,-2.3,.4,-3,1.2c-.7,.8,-1,1.6,-1,2.7c0,1.1,.3,2,1,2.7c.7,.7,1.7,1.1,3,1.1c1.3,0,2.3,-.4,3,-1.1c.8,-.7,1.1,-1.6,1.1,-2.7c0,-1.1,-.3,-1.9,-1.1,-2.7Z" class="gc_121"/>
<path d="M32.1,45.1H9.2m958.3,0h22.9M32.1,1331.3H9.2m958.3,0h22.9M45.1,32.1V9.2m0,1335.1v22.9M954.5,32.1V9.2m0,1335.1v22.9" class="gd_121"/>
<path d="M32.1,45.1H9.2m958.3,0h22.9M32.1,1331.3H9.2m958.3,0h22.9M45.1,32.1V9.2m0,1335.1v22.9M954.5,32.1V9.2m0,1335.1v22.9" class="ge_121"/>
<path d="M27.5,32.1H0m972.1,0h27.5M27.5,1344.3H0m972.1,0h27.5M32.1,27.5V0m0,1348.9v27.5M967.5,27.5V0m0,1348.9v27.5" class="gd_121"/>
<path d="M27.5,32.1H0m972.1,0h27.5M27.5,1344.3H0m972.1,0h27.5M32.1,27.5V0m0,1348.9v27.5M967.5,27.5V0m0,1348.9v27.5" class="ge_121"/>
</svg>