<?xml version="1.0" encoding="UTF-8" standalone="no"?>
<!DOCTYPE svg PUBLIC "-//W3C//DTD SVG 1.1//EN"
"http://www.w3.org/Graphics/SVG/1.1/DTD/svg11.dtd">
<svg viewBox="0 0 999 1376" version="1.1" xmlns="http://www.w3.org/2000/svg" xmlns:xlink="http://www.w3.org/1999/xlink">
<defs>
<clipPath id="c0_69"><path d="M199.2,243l-6.5,-2.1L176.3,227V169.9h72V243Z"/></clipPath>
<clipPath id="c1_69"><path d="M199.2,876.9l-6.5,-2.1L176.3,860.9V803.8h72v73.1Z"/></clipPath>
<clipPath id="c2_69"><path d="M131,751.9V529.7H362V751.9Z"/></clipPath>
<clipPath id="c3_69"><path d="M123.8,759.2V522.1H365.2V759.2Z"/></clipPath>
<clipPath id="c4_69"><path d="M226.4,549.8c-.2,-.1,3.6,-8.2,3.6,-8.2l.7,.5c0,0,-4,7.7,-4.3,7.7Z"/></clipPath>
<clipPath id="c5_69"><path d="M233.9,542.1c0,0,-6.8,-1.1,-7.6,-5.2c-.6,-3.6,1.6,-3.9,2.1,-3.9q.1,0,.1,0l8.4,-12.7l-1.5,-3.1c0,0,-.6,-1.1,.1,-2.1c.1,0,.2,-.1,.4,-.1c2,0,12.9,5.6,12.9,5.6l.1,.1c-.4,.6,-.8,1.2,-1.4,1.7c-.7,.5,-5.1,1.1,-5.1,1.1l-8.5,18.6Z"/></clipPath>
<clipPath id="c6_69"><path d="M233.5,541.7c.2,-.4,.2,-1.8,0,-2.2v-1.4c-1.5,-.5,-2.9,-1.2,-3.6,-2.5c-1.1,.6,-2.2,1.2,-3.2,1.9c1.6,2.1,3.8,3.5,6.8,4.2Zm0,-3.9c2.2,-4.5,4,-9.5,6.2,-14c-.9,-.4,-1.9,-1.4,-2.7,-1.4c-2.3,4.3,-4.6,8.6,-7,12.8c.7,1.3,2.1,2,3.5,2.6Zm-7.3,12.1c1.1,-2.9,2.4,-5.5,3.5,-8.3c-1.9,-1.5,-3.9,-3.1,-4.4,-6.1v-1.6c0,-2.7,2,-3.4,4.6,-3.4c.1,0,.2,0,.2,0c2,-3.3,4.2,-6.3,6.2,-9.6c-.6,-.9,-1.2,-2.4,-.9,-3.7c.5,1.3,1.6,1.9,2.4,2.9c-.1,.6,-.3,1.2,-.4,1.8c.6,.7,1.3,1.2,2.4,1.4c.5,-.5,.5,-1.3,1.1,-1.5c1,.3,1.9,.7,3.2,.7c.1,.1,.4,.2,.8,.2c.3,0,.7,-.1,.8,-.2c.1,0,.2,.1,.3,.1c.2,0,.4,-.1,.6,-.2c.2,-.1,.4,-.1,.5,-.1c.2,0,.3,0,.4,.1c-1.4,.6,-2.2,1.8,-4.2,1.8c-.1,0,-.2,-.1,-.4,-.1c-.8,3.8,-1.8,7.4,-2.6,11.2c.5,1.1,1.5,1.7,1.3,3.2c-.5,2.7,-3.9,4.4,-7.2,4.4c-1.3,0,-2.6,-.3,-3.7,-.8c-1,2.1,-2,4.1,-3.2,6c-.1,-.3,.3,-.3,.2,-.7c1,-1.8,2,-3.6,2.7,-5.7c-1.1,1.7,-1.9,3.7,-2.8,5.6c-.2,.4,-.4,.8,-.6,1.2c-.3,.4,-.3,1.2,-.8,1.4Z"/></clipPath>
<clipPath id="c7_69"><path d="M244,522.1c-4.8,0,-13.1,-7.3,-5.6,-8.8h1.3c.2,.1,.4,.1,.7,.1c0,0,.1,0,.1,0c.3,0,.6,0,.9,.1c3.1,.6,8.3,3.8,7.6,7c-.3,1.1,-1.6,1.6,-3.2,1.6h-1.7q-.1,0,-.1,0Z"/></clipPath>
<clipPath id="c8_69"><path d="M651.1,486.8V284.9H880.4V486.8Z"/></clipPath>
<clipPath id="c9_69"><path d="M647.3,494V278.4h237V494Z"/></clipPath>
<clipPath id="ca_69"><path d="M756.8,303c-.3,-.1,3.5,-8.3,3.5,-8.3l.8,.6c0,0,-4,7.7,-4.3,7.7Z"/></clipPath>
<clipPath id="cb_69"><path d="M764.3,295.2c0,0,-6.9,-1.1,-7.6,-5.2c-.6,-3.6,1.5,-3.8,2.1,-3.8q.1,0,.1,0l8.3,-12.7l-1.4,-3.1c0,0,-.6,-1.1,.1,-2.1c.1,-.1,.2,-.1,.3,-.1c2.1,0,13,5.5,13,5.5v.2c-.3,.5,-.7,1.1,-1.4,1.6c-.6,.5,-5,1.2,-5,1.2l-8.5,18.5Z"/></clipPath>
<clipPath id="cc_69"><path d="M763.9,294.9c.2,-.5,.2,-1.8,0,-2.3v-1.4c-1.5,-.5,-2.9,-1.2,-3.7,-2.5c-1.1,.6,-2.1,1.3,-3.1,1.9c1.6,2.1,3.8,3.6,6.8,4.3Zm0,-3.9c2.2,-4.6,4,-9.5,6.1,-14.1c-.8,-.4,-1.8,-1.3,-2.6,-1.4c-2.3,4.4,-4.6,8.7,-7,12.8c.7,1.4,2.1,2.1,3.5,2.7Zm-7.3,12.1c1,-2.9,2.4,-5.5,3.5,-8.3c-2,-1.6,-3.9,-3.2,-4.4,-6.2v-1.5c0,-2.7,1.9,-3.4,4.6,-3.4q.1,0,.2,0c1.9,-3.3,4.2,-6.3,6.1,-9.7c-.5,-.8,-1.1,-2.3,-.8,-3.6c.5,1.2,1.6,1.9,2.4,2.9c-.2,.6,-.3,1.1,-.4,1.7c.6,.7,1.3,1.2,2.4,1.4c.4,-.4,.5,-1.2,1.1,-1.5c.9,.4,1.8,.8,3.1,.8c.2,.1,.5,.1,.9,.1c.3,0,.6,0,.8,-.1c.1,0,.2,0,.3,0c.2,0,.4,-.1,.6,-.1c.2,-.1,.4,-.2,.5,-.2c.1,0,.2,.1,.3,.1c-1.3,.7,-2.2,1.8,-4.1,1.8c-.1,0,-.3,0,-.4,0c-.9,3.7,-1.8,7.4,-2.6,11.2c.5,1,1.5,1.7,1.2,3.1c-.4,2.7,-3.8,4.4,-7.2,4.4c-1.2,0,-2.5,-.2,-3.6,-.7c-1,2.1,-2,4.1,-3.2,6c-.1,-.4,.2,-.4,.2,-.8c1,-1.8,1.9,-3.5,2.6,-5.6c-1,1.7,-1.8,3.7,-2.7,5.5c-.2,.4,-.4,.9,-.7,1.3c-.2,.4,-.2,1.1,-.7,1.4Z"/></clipPath>
<clipPath id="cd_69"><path d="M774.3,275.3c-4.8,0,-13.1,-7.3,-5.5,-8.8H770c.2,0,.5,0,.7,0q.1,0,.2,0c.3,0,.6,0,.9,.1c3.1,.7,8.2,3.8,7.5,7c-.2,1.2,-1.5,1.6,-3.1,1.7h-1.9Z"/></clipPath>
<clipPath id="ce_69"><path d="M786.5,132.5V120.1H801v12.4Z"/></clipPath>
<style type="text/css"><![CDATA[
.g0_69{
fill: #FEFCF4;
}
.g1_69{
fill: #FFF;
}
.g2_69{
fill: none;
stroke: #6381B7;
stroke-width: 0.763;
}
.g3_69{
fill: #6D6F71;
}
.g4_69{
fill: none;
stroke: #949698;
stroke-width: 0.305;
stroke-dasharray: 3,3;
}
.g5_69{
fill: none;
stroke: #949698;
stroke-width: 0.305;
}
.g6_69{
fill: none;
stroke: #949698;
stroke-width: 0.305;
stroke-dasharray: 4,4;
}
.g7_69{
fill: #FCE8B0;
}
.g8_69{
fill: #6381B7;
}
.g9_69{
fill: none;
stroke: #6381B7;
stroke-width: 0.381;
stroke-dasharray: 2,1;
}
.ga_69{
fill: none;
stroke: #6381B7;
stroke-width: 0.381;
}
.gb_69{
fill: #F7C2D9;
}
.gc_69{
fill: #FDF4F3;
}
.gd_69{
fill: #EC008C;
}
.ge_69{
fill: #25408F;
}
.gf_69{
fill: #A8AAAD;
}
.gg_69{
fill: none;
stroke: #949698;
stroke-width: 0.549;
}
.gh_69{
fill: none;
stroke: #BCBEC0;
stroke-width: 2.566;
}
.gi_69{
fill: #231F20;
}
.gj_69{
fill: #363637;
}
.gk_69{
fill: #5CC4BE;
}
.gl_69{
fill: #EAD646;
}
.gm_69{
fill: none;
stroke: #FFF;
stroke-width: 1.909;
stroke-miterlimit: 10;
}
.gn_69{
fill: none;
stroke: #000;
stroke-width: 0.381;
stroke-miterlimit: 10;
}
]]></style>
</defs>
<path d="M45.1,1344.3H967.5V32.1H45.1V1344.3Z" class="g0_69"/>
<path d="M172.1,126.3c0,0,-18.4,0,-18.4,18.4V654.3c0,0,0,18.3,18.4,18.3H849.2c0,0,18.3,0,18.3,-18.3v-528Z" class="g1_69"/>
<path d="M172.1,126.3c0,0,-18.4,0,-18.4,18.4V654.3c0,0,0,18.3,18.4,18.3H849.2c0,0,18.3,0,18.3,-18.3v-528H172.1Z" class="g2_69"/>
<path d="M643.5,309.9l-1.5,8.7L653.9,316Z" class="g3_69"/>
<path d="M454.6,394.3c10.9,-1.2,19.4,-6.9,21.2,-14.1m-.4,-7C472.8,366.4,464,361.1,453.2,360.4m-7.1,.1c-10.8,1.2,-19.4,6.9,-21.2,14.1m.5,7c2.5,6.8,11.3,12,22.2,12.8" class="g4_69"/>
<path d="M476.1,378.8c.1,-.5,.1,-.9,.1,-1.4c0,-.5,0,-1,-.1,-1.4M451.8,360.3c-.5,0,-.9,0,-1.4,0c-.5,0,-1,0,-1.4,0M424.7,376c-.1,.4,-.1,.9,-.1,1.4c0,.5,0,.9,.1,1.4M449,394.5c.4,0,.9,0,1.4,0c.5,0,.9,0,1.4,0" class="g5_69"/>
<path d="M458.8,358.1c13.5,-7.1,32.1,-9.8,39.3,-10.6m7.5,.5c10.9,1.6,38.5,4.2,52,-7.1" class="g6_69"/>
<path d="M559.5,334.9c-.5,-2.6,-2.2,-5.1,-6.9,-2m-2.5,5.7c.2,4.7,3.6,10.4,22.6,1.2" class="g4_69"/>
<path d="M578.9,335.8c9.1,-6.2,33.7,-21.2,61.9,-22.1" class="g6_69"/>
<path d="M454.8,360.4c.5,-.3,.9,-.5,1.3,-.8m43.5,-12.2c1,-.1,1.5,-.2,1.5,-.2c0,0,.5,.1,1.5,.3m56.1,-7.6c.4,-.4,.8,-.8,1.1,-1.1c0,0,.1,-.6,0,-1.3m-8.2,-3.9c-.4,.3,-.7,.5,-1,.8c0,0,-.2,.6,-.4,1.4m23.7,3.4c.4,-.2,.9,-.4,1.3,-.6c0,0,.4,-.4,1.2,-1m65.9,-23.9c.5,0,1,0,1.6,0" class="g5_69"/>
<path d="M231.8,172c0,0,-13,0,-13,13v47.7c0,0,0,13,13,13h602c0,0,13,0,13,-13V185c0,0,0,-13,-13,-13Z" class="g7_69"/>
<image clip-path="url(#c0_69)" preserveAspectRatio="none" x="175" y="168" width="75" height="77" xlink:href="img/1.png"/>
<path d="M226.6,238.3c0,0,-26.9,11.3,-51.1,-12.8c0,0,15.1,25.4,49.3,24c0,0,24.7,.3,20.2,-10.1c0,0,1.2,-4.5,-18.4,-1.1Z" class="g7_69"/>
<path d="M166.7,781.7c0,0,-13,0,-13,13V954.1c0,0,0,13,13,13H854.5c0,0,13,0,13,-13V794.7c0,0,0,-13,-13,-13Z" class="g1_69"/>
<path d="M166.7,781.7c0,0,-13,0,-13,13V954.1c0,0,0,13,13,13H854.5c0,0,13,0,13,-13V794.7c0,0,0,-13,-13,-13H166.7Z" class="g2_69"/>
<path d="M600.7,985.6c0,0,-4.3,0,-4.3,4.4v10.8c0,0,0,4.3,4.3,4.3H631c0,0,4.4,0,4.4,-4.3V990c0,0,0,-4.4,-4.4,-4.4Z" class="g8_69"/>
<path d="M587.5,975.9v38.5m1.4,.9H867.7m1,-1.3V975.5m-1.4,-.9H588.5" class="g9_69"/>
<path d="M587.5,1014.7v.6h.6m280,0h.6v-.6m0,-39.5v-.6h-.6m-280,0h-.6v.6" class="ga_69"/>
<path d="M231.8,806c0,0,-13,0,-13,13v47.6c0,0,0,13,13,13h602c0,0,13,0,13,-13V819c0,0,0,-13,-13,-13Z" class="g7_69"/>
<image clip-path="url(#c1_69)" preserveAspectRatio="none" x="175" y="802" width="75" height="77" xlink:href="img/2.png"/>
<path d="M226.6,872.2c0,0,-26.9,11.3,-51.1,-12.7c0,0,15.1,25.3,49.3,23.9c0,0,24.7,.4,20.2,-10.1c0,0,1.2,-4.5,-18.4,-1.1Z" class="g7_69"/>
<image clip-path="url(#c2_69)" preserveAspectRatio="none" x="131" y="530" width="230" height="222" xlink:href="img/3.png"/>
<path d="M135.7,540.1l4.8,205.7l215,-5.5L350.8,534.6Z" class="gb_69"/>
<image clip-path="url(#c3_69)" preserveAspectRatio="none" x="124" y="522" width="241" height="238" xlink:href="img/4.png"/>
<path d="M128.6,545.9l17.6,207.2L332.5,736.4l26.9,-14.7L342.9,526.8Z" class="gc_69"/>
<path d="M359.5,722l-26.4,14.3L346.5,712Z" class="gd_69"/>
<path d="M464.6,618.1c18,-.8,32.5,-6.7,35.4,-14.2m-.6,-7C495.2,589.8,480.8,584.5,463.2,584m-7.4,0c-18,.9,-32.4,6.7,-35.4,14.2m.7,7c4.1,7.1,18.6,12.4,36.2,12.9" class="g4_69"/>
<path d="M500.5,602.5c.1,-.5,.1,-.9,.1,-1.4c0,-.5,0,-1,-.1,-1.5M461.7,583.9c-.5,0,-1,0,-1.5,0c-.5,0,-1,0,-1.4,0M420,599.6c-.1,.5,-.1,1,-.1,1.5c0,.5,0,.9,.1,1.4m38.8,15.7c.4,0,.9,0,1.4,0c.5,0,1,0,1.5,0" class="g5_69"/>
<path d="M445.9,581.7c-8,-9.5,-31.6,-35,-52.3,-32.6m-4.8,4.5c-.5,2.5,.4,5.4,6.3,6.8m6.6,-.3c.9,-.5,1.7,-1.5,1.7,-3.1m-3.5,-5.7c-5.8,-5,-21,-14,-55.5,-13.2" class="g4_69"/>
<path d="M336.6,538.4c-10.1,.7,-34.1,3.2,-54,12.8" class="g6_69"/>
<path d="M448.7,585.1c0,0,-.3,-.4,-.9,-1.1M392.1,549.3c-.5,.1,-1,.2,-1.4,.3c0,0,-.4,.5,-.9,1.2m6.8,9.9c.4,0,.9,.1,1.4,.2c0,0,.6,0,1.3,-.1m4,-5c-.1,-.4,-.2,-.8,-.4,-1.2c0,0,-.3,-.5,-.9,-1.2M342.9,538.2c-.5,0,-1,0,-1.5,0c0,0,-.6,0,-1.6,.1M281.2,552c-.5,.2,-1,.4,-1.5,.7" class="g5_69"/>
<path d="M283.9,556.1l-4.8,-7.4l-7.1,9.9Z" class="g3_69"/>
<image clip-path="url(#c4_69)" x="226" y="541" width="5" height="9" xlink:href="shade/1.png"/>
<image clip-path="url(#c5_69)" x="225" y="515" width="24" height="28" xlink:href="shade/2.png"/>
<image clip-path="url(#c6_69)" x="225" y="517" width="23" height="33" xlink:href="shade/3.png"/>
<image clip-path="url(#c7_69)" x="230" y="513" width="20" height="10" xlink:href="shade/4.png"/>
<image clip-path="url(#c8_69)" preserveAspectRatio="none" x="651" y="286" width="229" height="201" xlink:href="img/5.png"/>
<path d="M656.4,291.5l2.8,188.8l215,-1.7L871.4,289.8Z" class="gb_69"/>
<image clip-path="url(#c9_69)" preserveAspectRatio="none" x="647" y="279" width="237" height="215" xlink:href="img/6.png"/>
<path d="M652.4,298.5l12.3,189.2L835,475.5L878.4,460L867,283.2Z" class="gc_69"/>
<path d="M878.4,460l-43.2,15.5l28.1,-29.8Z" class="gd_69"/>
<image clip-path="url(#ca_69)" x="756" y="294" width="6" height="10" xlink:href="shade/5.png"/>
<image clip-path="url(#cb_69)" x="755" y="268" width="25" height="28" xlink:href="shade/6.png"/>
<image clip-path="url(#cc_69)" x="755" y="270" width="23" height="34" xlink:href="shade/7.png"/>
<image clip-path="url(#cd_69)" x="761" y="266" width="20" height="10" xlink:href="shade/8.png"/>
<path d="M153.3,111.9v39L165,161.2V117Z" class="ge_69"/>
<path d="M153.3,111.9v39H851.1c0,0,16.8,0,16.8,-16.8v-5.3c0,0,0,-16.9,-16.8,-16.9Z" class="g8_69"/>
<path d="M802.6,145.6c8.2,0,14.9,-6.5,14.9,-14.5c0,-8.1,-6.7,-14.5,-14.9,-14.5c-8.2,0,-14.9,6.4,-14.9,14.5c0,8,6.7,14.5,14.9,14.5Z" class="gf_69"/>
<path d="M802.6,145.6c8.2,0,14.9,-6.5,14.9,-14.5c0,-8.1,-6.7,-14.5,-14.9,-14.5c-8.2,0,-14.9,6.4,-14.9,14.5c0,8,6.7,14.5,14.9,14.5Z" class="gg_69"/>
<path d="M802.6,136.4c3,0,5.5,-2.4,5.5,-5.3c0,-3,-2.5,-5.4,-5.5,-5.4c-3,0,-5.5,2.4,-5.5,5.4c0,2.9,2.5,5.3,5.5,5.3Z" class="g1_69"/>
<path d="M802.6,136.4c3,0,5.5,-2.4,5.5,-5.3c0,-3,-2.5,-5.4,-5.5,-5.4c-3,0,-5.5,2.4,-5.5,5.4c0,2.9,2.5,5.3,5.5,5.3Z" class="gh_69"/>
<g clip-path="url(#ce_69)" opacity="0.3">
<path d="M788,130.3c0,0,0,-4.8,3.7,-8.7l7.7,6.8c0,0,-1,.9,-1,2.6Z" class="g1_69"/>
</g>
<path d="M807.2,131c0,0,-3.5,0,-3.5,3.4v8.7c0,0,0,3.5,3.5,3.5h43.5c0,0,3.5,0,3.5,-3.5v-8.7c0,0,0,-3.4,-3.5,-3.4Z" class="gi_69"/>
<path d="M191.2,122c0,-8.3,-6.8,-15,-15.1,-15c-8.3,0,-15,6.7,-15,15c0,8.3,6.7,15.1,15,15.1c.8,0,1.7,-.1,2.4,-.2l4.5,5.2v-6.7c4.9,-2.5,8.2,-7.6,8.2,-13.4Z" class="g1_69"/>
<path d="M183.5,143.3l-5.1,-5.9c-.8,.1,-1.5,.1,-2.3,.1c-8.5,0,-15.5,-6.9,-15.5,-15.5c0,-8.5,7,-15.5,15.5,-15.5c8.6,0,15.5,7,15.5,15.5c0,5.7,-3.1,11,-8.1,13.7Zm-4.8,-6.9l3.9,4.5v-5.8l.2,-.1c4.9,-2.5,7.9,-7.5,7.9,-13c0,-8,-6.5,-14.6,-14.6,-14.6c-8,0,-14.6,6.6,-14.6,14.6c0,8.1,6.6,14.6,14.6,14.6c.8,0,1.6,-.1,2.4,-.2Z" class="gj_69"/>
<path d="M169.1,121.6c.8,0,1.4,.6,1.4,1.4c0,.8,-.6,1.5,-1.4,1.5c-.8,0,-1.4,-.7,-1.4,-1.5c0,-.8,.6,-1.4,1.4,-1.4Z" class="gk_69"/>
<path d="M169.1,124.9c-1,0,-1.9,-.8,-1.9,-1.9c0,-1,.9,-1.9,1.9,-1.9c1,0,1.9,.9,1.9,1.9c0,1.1,-.9,1.9,-1.9,1.9m0,-2.9c-.5,0,-1,.5,-1,1c0,.6,.5,1,1,1c.5,0,1,-.4,1,-1c0,-.5,-.5,-1,-1,-1Z" class="gj_69"/>
<path d="M176.1,121.6c.8,0,1.5,.6,1.5,1.4c0,.8,-.7,1.5,-1.5,1.5c-.8,0,-1.4,-.7,-1.4,-1.5c0,-.8,.6,-1.4,1.4,-1.4Z" class="gk_69"/>
<path d="M176.1,124.9c-1,0,-1.9,-.8,-1.9,-1.9c0,-1,.9,-1.9,1.9,-1.9c1.1,0,1.9,.9,1.9,1.9c0,1.1,-.8,1.9,-1.9,1.9m0,-2.9c-.5,0,-1,.5,-1,1c0,.6,.5,1,1,1c.6,0,1,-.4,1,-1c0,-.5,-.4,-1,-1,-1Z" class="gj_69"/>
<path d="M183.1,121.6c.8,0,1.5,.6,1.5,1.4c0,.8,-.7,1.5,-1.5,1.5c-.8,0,-1.4,-.7,-1.4,-1.5c0,-.8,.6,-1.4,1.4,-1.4Z" class="gk_69"/>
<path d="M183.1,124.9c-1,0,-1.9,-.8,-1.9,-1.9c0,-1,.9,-1.9,1.9,-1.9c1.1,0,1.9,.9,1.9,1.9c0,1.1,-.8,1.9,-1.9,1.9m0,-2.9c-.5,0,-1,.5,-1,1c0,.6,.5,1,1,1c.6,0,1,-.4,1,-1c0,-.5,-.4,-1,-1,-1Z" class="gj_69"/>
<path d="M185.1,136.3c0,-9.8,7.8,-17.7,17.6,-17.7c9.7,0,17.6,7.9,17.6,17.7c0,9.7,-7.9,17.6,-17.6,17.6c-1,0,-1.9,-.1,-2.9,-.3l-5.2,6.1v-7.8c-5.7,-2.9,-9.5,-8.8,-9.5,-15.6Z" class="gl_69"/>
<path d="M194.6,160.2q-.1,0,-.2,0c-.2,-.1,-.3,-.3,-.3,-.5v-7.5c-5.9,-3.2,-9.5,-9.2,-9.5,-15.9c0,-10,8.1,-18.1,18.1,-18.1c9.9,0,18,8.1,18,18.1c0,9.9,-8.1,18,-18,18c-.9,0,-1.8,0,-2.7,-.2l-5.1,5.9c-.1,.1,-.2,.2,-.3,.2m8.1,-41.1c-9.5,0,-17.2,7.7,-17.2,17.2c0,6.4,3.6,12.2,9.3,15.2c.1,.1,.2,.2,.2,.4v6.6l4.5,-5.2c.1,-.1,.3,-.1,.4,-.1c1,.1,1.9,.2,2.8,.2c9.4,0,17.1,-7.7,17.1,-17.1c0,-9.5,-7.7,-17.2,-17.1,-17.2Z" class="gj_69"/>
<path d="M210.9,135.8c.9,0,1.6,.7,1.6,1.6c0,1,-.7,1.7,-1.6,1.7c-1,0,-1.7,-.7,-1.7,-1.7c0,-.9,.7,-1.6,1.7,-1.6Z" class="g1_69"/>
<path d="M210.9,139.6c-1.2,0,-2.2,-1,-2.2,-2.2c0,-1.1,1,-2.1,2.2,-2.1c1.1,0,2.1,1,2.1,2.1c0,1.2,-1,2.2,-2.1,2.2m0,-3.4c-.7,0,-1.3,.6,-1.3,1.2c0,.7,.6,1.3,1.3,1.3c.6,0,1.2,-.6,1.2,-1.3c0,-.6,-.6,-1.2,-1.2,-1.2Z" class="gj_69"/>
<path d="M202.7,135.8c.9,0,1.6,.7,1.6,1.6c0,1,-.7,1.7,-1.6,1.7c-1,0,-1.7,-.7,-1.7,-1.7c0,-.9,.7,-1.6,1.7,-1.6Z" class="g1_69"/>
<path d="M202.7,139.6c-1.2,0,-2.2,-1,-2.2,-2.2c0,-1.1,1,-2.1,2.2,-2.1c1.1,0,2.1,1,2.1,2.1c0,1.2,-1,2.2,-2.1,2.2m0,-3.4c-.7,0,-1.3,.6,-1.3,1.2c0,.7,.6,1.3,1.3,1.3c.6,0,1.2,-.6,1.2,-1.3c0,-.6,-.6,-1.2,-1.2,-1.2Z" class="gj_69"/>
<path d="M194.5,135.8c.9,0,1.6,.7,1.6,1.6c0,1,-.7,1.7,-1.6,1.7c-1,0,-1.7,-.7,-1.7,-1.7c0,-.9,.7,-1.6,1.7,-1.6Z" class="g1_69"/>
<path d="M194.5,139.6c-1.2,0,-2.2,-1,-2.2,-2.2c0,-1.1,1,-2.1,2.2,-2.1c1.1,0,2.1,1,2.1,2.1c0,1.2,-1,2.2,-2.1,2.2m0,-3.4c-.7,0,-1.2,.6,-1.2,1.2c0,.7,.5,1.3,1.2,1.3c.6,0,1.2,-.6,1.2,-1.3c0,-.6,-.6,-1.2,-1.2,-1.2Z" class="gj_69"/>
<path d="M32.1,45.1H9.2m958.3,0h22.9M32.1,1331.3H9.2m958.3,0h22.9M45.1,32.1V9.2m0,1335.1v22.9M954.5,32.1V9.2m0,1335.1v22.9" class="gm_69"/>
<path d="M32.1,45.1H9.2m958.3,0h22.9M32.1,1331.3H9.2m958.3,0h22.9M45.1,32.1V9.2m0,1335.1v22.9M954.5,32.1V9.2m0,1335.1v22.9" class="gn_69"/>
<path d="M27.5,32.1H0m972.1,0h27.5M27.5,1344.3H0m972.1,0h27.5M32.1,27.5V0m0,1348.9v27.5M967.5,27.5V0m0,1348.9v27.5" class="gm_69"/>
<path d="M27.5,32.1H0m972.1,0h27.5M27.5,1344.3H0m972.1,0h27.5M32.1,27.5V0m0,1348.9v27.5M967.5,27.5V0m0,1348.9v27.5" class="gn_69"/>
</svg>