<?xml version="1.0" encoding="UTF-8" standalone="no"?>
<!DOCTYPE svg PUBLIC "-//W3C//DTD SVG 1.1//EN"
"http://www.w3.org/Graphics/SVG/1.1/DTD/svg11.dtd">
<svg viewBox="0 0 999 1376" version="1.1" xmlns="http://www.w3.org/2000/svg" xmlns:xlink="http://www.w3.org/1999/xlink">
<defs>
<clipPath id="c0_83"><path d="M32.1,1344.3V32.1H967.5V1344.3Z"/></clipPath>
<clipPath id="c1_83"><path d="M277.2,893.4V826.7H343v66.7Z"/></clipPath>
<clipPath id="c2_83"><path d="M204,967.6c-7.2,0,-7.2,-7.2,-7.2,-7.2V924.2c0,-7.2,7.2,-7.2,7.2,-7.2h33.2c7.2,0,7.2,7.2,7.2,7.2v36.2c0,7.2,-7.2,7.2,-7.2,7.2Z"/></clipPath>
<clipPath id="c3_83"><path d="M204,1040.1c-7.2,0,-7.2,-7.2,-7.2,-7.2V996.7c0,-7.2,7.2,-7.2,7.2,-7.2h32.1c7.2,0,7.2,7.2,7.2,7.2v36.2c0,7.2,-7.2,7.2,-7.2,7.2Z"/></clipPath>
<clipPath id="c4_83"><path d="M538.8,967.6c-7.2,0,-7.2,-7.2,-7.2,-7.2V924.2c0,-7.2,7.2,-7.2,7.2,-7.2h37.5c7.2,0,7.2,7.2,7.2,7.2v36.2c0,7.2,-7.2,7.2,-7.2,7.2Z"/></clipPath>
<clipPath id="c5_83"><path d="M536.6,1040.1c-7.2,0,-7.2,-7.2,-7.2,-7.2V996.7c0,-7.2,7.2,-7.2,7.2,-7.2h46.2c7.2,0,7.2,7.2,7.2,7.2v36.2c0,7.2,-7.2,7.2,-7.2,7.2Z"/></clipPath>
<clipPath id="c6_83"><path d="M208.9,737.9l-6.5,-2.1L186,721.9V664.8h72v73.1Z"/></clipPath>
<clipPath id="c7_83"><path d="M200.1,137.2c.1,-1.3,.7,-2.5,1.6,-3.4c1,-1,2.3,-1.6,3.9,-1.6h19.2v5Z"/></clipPath>
<clipPath id="c8_83"><path d="M199.5,137.7v-6h25.8v6Z"/></clipPath>
<style type="text/css"><![CDATA[
.g0_83{
fill: #FEFCF4;
}
.g1_83{
fill: #6381B7;
}
.g2_83{
fill: none;
stroke: #6381B7;
stroke-width: 0.381;
stroke-dasharray: 2,1;
}
.g3_83{
fill: none;
stroke: #6381B7;
stroke-width: 0.381;
}
.g4_83{
fill: #FFF;
}
.g5_83{
fill: none;
stroke: #6381B7;
stroke-width: 0.763;
}
.g6_83{
fill: #48484A;
}
.g7_83{
fill: #F0E8F3;
}
.g8_83{
fill: #766FA6;
}
.g9_83{
fill: none;
stroke: #231F20;
stroke-width: 0.305;
stroke-miterlimit: 10;
}
.ga_83{
fill: #FCE8B0;
}
.gb_83{
fill: #25408F;
}
.gc_83{
fill: none;
stroke: #231F20;
stroke-width: 1.527;
}
.gd_83{
fill: #39B4D1;
stroke: #2D2A4A;
stroke-width: 1.038;
stroke-linecap: round;
stroke-linejoin: round;
}
.ge_83{
fill: #2D2A4A;
}
.gf_83{
fill: none;
stroke: #2D2A4A;
stroke-width: 1.038;
stroke-linecap: round;
stroke-linejoin: round;
}
.gg_83{
fill: #DEDAD3;
}
.gh_83{
fill: #29263F;
}
.gi_83{
fill: #E15F46;
stroke: #2D2A4A;
stroke-width: 1.038;
stroke-linecap: round;
stroke-linejoin: round;
}
.gj_83{
fill: #DEF1F3;
}
.gk_83{
fill: #8FD5E3;
}
.gl_83{
fill: none;
stroke: #58595B;
stroke-width: 0.381;
stroke-miterlimit: 10;
}
.gm_83{
fill: #F7F8E9;
}
.gn_83{
fill: none;
stroke: #BFD62F;
stroke-width: 1.527;
stroke-linecap: round;
stroke-linejoin: round;
stroke-dasharray: 0,5;
}
.go_83{
fill: none;
stroke: #BFD62F;
stroke-width: 1.527;
stroke-linecap: round;
stroke-linejoin: round;
}
.gp_83{
fill: #BFD62F;
}
.gq_83{
fill: #D1232A;
}
.gr_83{
fill: #233D4A;
}
.gs_83{
fill: #FFE293;
}
.gt_83{
fill: #F89C47;
}
.gu_83{
fill: none;
stroke: #FFF;
stroke-width: 1.909;
stroke-miterlimit: 10;
}
.gv_83{
fill: none;
stroke: #000;
stroke-width: 0.381;
stroke-miterlimit: 10;
}
]]></style>
</defs>
<path clip-path="url(#c0_83)" d="M-877.3,1344.3H45.1V32.1H-877.3V1344.3Z" class="g0_83"/>
<path d="M475.6,1072.5c0,0,-4.3,0,-4.3,4.4v10.8c0,0,0,4.3,4.3,4.3H506c0,0,4.3,0,4.3,-4.3v-10.8c0,0,0,-4.4,-4.3,-4.4Z" class="g1_83"/>
<path d="M462.5,1063.7v37.6m1.3,.9h403m.9,-1.3v-37.6m-1.3,-.9h-403" class="g2_83"/>
<path d="M462.5,1101.6v.6h.5m404.1,0h.6v-.6m0,-38.7v-.5h-.6m-404.1,0h-.5v.5" class="g3_83"/>
<path d="M166.7,753c0,0,-13,0,-13,13v276.4c0,0,0,13,13,13H854.5c0,0,13,0,13,-13V766c0,0,0,-13,-13,-13Z" class="g4_83"/>
<path d="M166.7,753c0,0,-13,0,-13,13v276.4c0,0,0,13,13,13H854.5c0,0,13,0,13,-13V766c0,0,0,-13,-13,-13H166.7Z" class="g5_83"/>
<path d="M188.9,835.6c0,0,-4.4,0,-4.4,4.4v14.7c0,0,0,4.3,4.1,5.8L241.1,879c0,0,4.1,1.4,4.1,-2.9V840c0,0,0,-4.4,-4.4,-4.4Z" class="g6_83"/>
<path d="M210,822.6c0,0,-13,0,-13,13v51.5c0,0,0,13,13,13H815.4c0,0,13,0,13,-13V835.6c0,0,0,-13,-13,-13Z" class="g7_83"/>
<path d="M188.9,833.5c0,0,-4.4,0,-4.4,4.3v17.3c0,0,0,4.3,4.4,4.3h37.2c0,0,4.4,0,4.4,-4.3V837.8c0,0,0,-4.3,-4.4,-4.3Z" class="g8_83"/>
<path d="M395.2,883.5h77.3" class="g9_83"/>
<image clip-path="url(#c1_83)" preserveAspectRatio="none" x="276" y="825" width="69" height="70" xlink:href="img/1.png"/>
<path d="M204,917c0,0,-7.2,0,-7.2,7.2v36.2c0,0,0,7.2,7.2,7.2h33.2c0,0,7.2,0,7.2,-7.2V924.2c0,0,0,-7.2,-7.2,-7.2Z" class="g4_83"/>
<image clip-path="url(#c2_83)" preserveAspectRatio="none" x="195" y="915" width="51" height="54" xlink:href="img/2.png"/>
<path d="M204,989.5c0,0,-7.2,0,-7.2,7.2v36.2c0,0,0,7.2,7.2,7.2h32.1c0,0,7.2,0,7.2,-7.2V996.7c0,0,0,-7.2,-7.2,-7.2Z" class="g4_83"/>
<image clip-path="url(#c3_83)" preserveAspectRatio="none" x="195" y="988" width="50" height="54" xlink:href="img/3.png"/>
<path d="M538.8,917c0,0,-7.2,0,-7.2,7.2v36.2c0,0,0,7.2,7.2,7.2h37.5c0,0,7.2,0,7.2,-7.2V924.2c0,0,0,-7.2,-7.2,-7.2Z" class="g4_83"/>
<image clip-path="url(#c4_83)" preserveAspectRatio="none" x="530" y="915" width="55" height="54" xlink:href="img/4.png"/>
<path d="M536.6,989.5c0,0,-7.2,0,-7.2,7.2v36.2c0,0,0,7.2,7.2,7.2h46.2c0,0,7.2,0,7.2,-7.2V996.7c0,0,0,-7.2,-7.2,-7.2Z" class="g4_83"/>
<image clip-path="url(#c5_83)" preserveAspectRatio="none" x="528" y="988" width="64" height="54" xlink:href="img/5.png"/>
<path d="M273.1,954.7H481.2m-208.1,75.4H481.2M611.8,954.7h208m-208,75.4h208" class="g9_83"/>
<path d="M241.5,667c0,0,-13,0,-13,13v47.6c0,0,0,13,13,13H854.9c0,0,13,0,13,-13V680c0,0,0,-13,-13,-13Z" class="ga_83"/>
<image clip-path="url(#c6_83)" preserveAspectRatio="none" x="184" y="663" width="75" height="77" xlink:href="img/6.png"/>
<path d="M236.3,733.2c0,0,-26.9,11.3,-51.1,-12.7c0,0,15.2,25.3,49.3,23.9c0,0,24.7,.4,20.2,-10.1c0,0,1.3,-4.4,-18.4,-1.1Z" class="ga_83"/>
<path d="M153.3,109.5v39L165,158.7V136.5Z" class="gb_83"/>
<path d="M153.3,109.5v39H851.1c0,0,16.8,0,16.8,-16.8v-5.4c0,0,0,-16.8,-16.8,-16.8Z" class="g1_83"/>
<path d="M790.4,131c0,0,-.5,-10,8.6,-9.4c0,0,6.8,-.3,6.7,9.5m-15.3,-1.5v6.5c0,0,-3.4,.3,-3.9,-3c0,0,-.1,-3.8,3.9,-3.5Zm15.3,0v6.5c0,0,3.4,.3,4,-3c0,0,0,-3.8,-4,-3.5Z" class="gc_83"/>
<path d="M169,140.8h61v-32H169v32Z" class="gd_83"/>
<path d="M169,143.1h61v-2.3H169v2.3Z" class="gd_83"/>
<path d="M193.5,106.2H173.8v31.5h25.7V112.3c0,-3.4,-2.7,-6.1,-6,-6.1Z" class="g4_83"/>
<path d="M193.5,106.2v-.5H173.8c-.2,0,-.3,.1,-.4,.2c-.1,.1,-.2,.2,-.2,.3v31.5c0,.1,.1,.3,.2,.4c.1,.1,.2,.1,.4,.1h25.7c.2,0,.3,0,.4,-.1c.1,-.1,.1,-.3,.1,-.4V112.3c0,-3.7,-2.9,-6.6,-6.5,-6.6v1c1.5,0,2.9,.7,3.9,1.7c1,1,1.6,2.3,1.6,3.9v24.9H174.3V106.7h19.2Z" class="ge_83"/>
<path d="M173.8,131.7v6h25.7c0,-3.3,-2.7,-6,-6,-6Z" class="g4_83"/>
<path d="M173.8,131.7h-.6v6c0,.1,.1,.3,.2,.4c.1,.1,.2,.1,.4,.1h25.7c.2,0,.3,0,.4,-.1c.1,-.1,.1,-.3,.1,-.4c0,-3.6,-2.9,-6.6,-6.5,-6.6H173.8c-.2,0,-.3,.1,-.4,.2c-.1,.1,-.2,.2,-.2,.4h.6v.5h19.7c1.5,0,2.9,.6,3.9,1.6c1,1,1.6,2.4,1.6,3.9h.5v-.5H174.3v-5.5h-.5v.5Z" class="ge_83"/>
<path d="M177.3,110.9h17.2m-17.2,2.8h17.2m-17.2,2.9h17.2m-17.2,2.9h17.2m-17.2,2.8h17.2m-17.2,2.9h17.2M177.3,128h17.2" class="gf_83"/>
<path d="M193.5,132.2H174.3v5H199c-.1,-1.3,-.7,-2.5,-1.6,-3.4c-1,-1,-2.4,-1.6,-3.9,-1.6Z" class="gg_83"/>
<path d="M174.3,132.2h19.2c1.5,0,2.9,.6,3.9,1.6c.9,.9,1.5,2.1,1.6,3.4H174.3Zm19.2,-.5H173.8v6H199v-2.5c-.9,-2.1,-3.1,-3.5,-5.5,-3.5Z" class="gh_83"/>
<path d="M205.6,106.2h19.7v31.5H199.5V112.3c0,-3.4,2.7,-6.1,6.1,-6.1Z" class="g4_83"/>
<path d="M205.6,106.2v.5h19.2v30.5H200V112.3c0,-1.6,.7,-2.9,1.7,-3.9c1,-1,2.3,-1.7,3.9,-1.7v-1c-3.7,0,-6.6,2.9,-6.6,6.6v25.4c0,.1,.1,.3,.2,.4c0,.1,.2,.1,.3,.1h25.8c.1,0,.2,0,.3,-.1c.1,-.1,.2,-.3,.2,-.4V106.2c0,-.1,-.1,-.2,-.2,-.3c-.1,-.1,-.2,-.2,-.3,-.2H205.6Z" class="ge_83"/>
<path d="M225.3,131.7v6H199.5c0,-3.3,2.7,-6,6.1,-6Z" class="g4_83"/>
<path d="M225.3,131.7h-.5v5.5H199.5v.5h.5c0,-1.5,.7,-2.9,1.7,-3.9c1,-1,2.3,-1.6,3.9,-1.6h19.7v-.5h-.5h.5v-.6H205.6c-3.7,0,-6.6,3,-6.6,6.6c0,.1,.1,.3,.2,.4c0,.1,.2,.1,.3,.1h25.8c.1,0,.2,0,.3,-.1c.1,-.1,.2,-.3,.2,-.4v-6c0,-.2,-.1,-.3,-.2,-.4c-.1,-.1,-.2,-.2,-.3,-.2Z" class="ge_83"/>
<path d="M221.8,110.9H204.6m17.2,2.8H204.6m17.2,2.9H204.6m17.2,2.9H204.6m17.2,2.8H204.6m17.2,2.9H204.6m17.2,2.8H204.6" class="gf_83"/>
<path clip-path="url(#c7_83)" d="M200.1,137.2h24.7v-5H200.1v5Z" class="gg_83"/>
<path clip-path="url(#c8_83)" d="M200.1,137.2c.1,-1.3,.7,-2.5,1.6,-3.4c1,-1,2.3,-1.6,3.9,-1.6h19.2v5Zm25.2,-5.5H205.6c-3.4,0,-6.1,2.7,-6.1,6h25.8v-6h-.5h.5Z" class="gh_83"/>
<path d="M199.5,108.8v34.3" class="gf_83"/>
<path d="M217.2,145.5h3.3V134.7h-3.3v10.8Z" class="gi_83"/>
<path d="M170.7,166.3c0,0,-17.4,0,-17.4,17.4V348.2c0,0,0,17.3,17.4,17.3H850.6c0,0,17.3,0,17.3,-17.3V183.7c0,0,0,-17.4,-17.3,-17.4Z" class="gj_83"/>
<path d="M250.8,238H510.6v25.9H250.8V238Zm259.8,0H770.4v25.9H510.6V238Z" class="gk_83"/>
<path d="M250.8,263.9H510.6v26H250.8v-26Zm259.8,0H770.4v26H510.6v-26Z" class="g4_83"/>
<path d="M250.8,238H510.6m0,0H770.4M510.6,263.7V238.1M250.8,263.9H510.6m0,0H770.4M510.6,289.7V264.1M250.8,289.9H510.6m0,0H770.4" class="gl_83"/>
<path d="M154.1,616.4h713V438.7h-713V616.4Z" class="gm_83"/>
<path d="M154.1,443.2V614.1m4.6,2.3H864.9m2.2,-4.6V440.9m-4.5,-2.2H156.4" class="gn_83"/>
<path d="M154.1,616.4v0m713.1,0v0m0,-177.7v0m-713.1,0v0" class="go_83"/>
<path d="M153.3,441.9V413.3c0,0,0,-8.7,8.7,-8.7H859.3c0,0,8.6,0,8.6,8.7v29.1Z" class="gp_83"/>
<path d="M175,465.4c0,0,4.8,5.5,6.1,12.3c0,0,6.6,-11.4,11.7,-14c0,0,-9.3,5,-11.2,8.2c0,0,-1.8,-4.3,-6.6,-6.5Z" class="gq_83"/>
<path d="M183.4,433.5l3,3l8.1,-8.2l-2.9,-2.9Z" class="g4_83"/>
<path d="M186.4,437.5v0c.3,0,.5,-.2,.7,-.3l8.1,-8.2c.2,-.2,.3,-.4,.3,-.7c0,-.2,-.1,-.5,-.3,-.7l-2.9,-2.9c-.4,-.4,-1,-.4,-1.4,0l-8.2,8.1c-.4,.4,-.4,1,0,1.4l3,3c.2,.1,.4,.3,.7,.3m6.7,-9.2l-6.7,6.8l-1.6,-1.6l6.8,-6.7Z" class="gr_83"/>
<path d="M190,406.5c-6.5,6.6,-6.5,17.2,0,23.7c6.5,6.5,17.1,6.5,23.7,0c6.5,-6.5,6.5,-17.1,0,-23.7c-6.6,-6.5,-17.2,-6.5,-23.7,0Z" class="gs_83"/>
<path d="M201.8,436.1c4.8,0,9.2,-1.8,12.6,-5.2c6.9,-6.9,6.9,-18.2,0,-25.1c-3.4,-3.3,-7.8,-5.2,-12.6,-5.2c-4.7,0,-9.2,1.9,-12.5,5.2c-6.9,6.9,-6.9,18.2,0,25.1c3.3,3.4,7.8,5.2,12.5,5.2m0,-33.5c4.2,0,8.2,1.7,11.2,4.6c6.1,6.2,6.1,16.2,0,22.3c-3,3,-7,4.6,-11.2,4.6c-4.2,0,-8.1,-1.6,-11.1,-4.6c-6.2,-6.1,-6.2,-16.1,0,-22.3c3,-2.9,6.9,-4.6,11.1,-4.6Z" class="gr_83"/>
<path d="M176,438.7l5.2,5.2l8.2,-8.2l-5.2,-5.2Z" class="gt_83"/>
<path d="M181.2,444.9c.3,0,.5,-.1,.7,-.3l8.2,-8.2c.2,-.2,.3,-.4,.3,-.7c0,-.2,-.1,-.5,-.3,-.7l-5.2,-5.2c-.4,-.4,-1,-.4,-1.4,0l-8.2,8.2c-.4,.4,-.4,1,0,1.4l5.2,5.2c.2,.2,.5,.3,.7,.3m6.8,-9.2l-6.8,6.8l-3.8,-3.8l6.8,-6.8Z" class="gr_83"/>
<path d="M189.8,418.5c0,6.6,5.3,11.9,11.9,11.9c6.6,0,12,-5.3,12,-11.9c0,-6.6,-5.4,-12,-12,-12c-6.6,0,-11.9,5.4,-11.9,12Z" class="g4_83"/>
<path d="M201.7,431.2c7,0,12.8,-5.7,12.8,-12.7c0,-7.1,-5.8,-12.8,-12.8,-12.8c-7,0,-12.7,5.7,-12.7,12.8c0,7,5.7,12.7,12.7,12.7m0,-23.9c6.2,0,11.2,5,11.2,11.2c0,6.1,-5,11.1,-11.2,11.1c-6.1,0,-11.1,-5,-11.1,-11.1c0,-6.2,5,-11.2,11.1,-11.2Z" class="gr_83"/>
<path d="M32.1,45.1H9.2m958.3,0h22.9M32.1,1331.3H9.2m958.3,0h22.9M45.1,32.1V9.2m0,1335.1v22.9M954.5,32.1V9.2m0,1335.1v22.9" class="gu_83"/>
<path d="M32.1,45.1H9.2m958.3,0h22.9M32.1,1331.3H9.2m958.3,0h22.9M45.1,32.1V9.2m0,1335.1v22.9M954.5,32.1V9.2m0,1335.1v22.9" class="gv_83"/>
<path d="M27.5,32.1H0m972.1,0h27.5M27.5,1344.3H0m972.1,0h27.5M32.1,27.5V0m0,1348.9v27.5M967.5,27.5V0m0,1348.9v27.5" class="gu_83"/>
<path d="M27.5,32.1H0m972.1,0h27.5M27.5,1344.3H0m972.1,0h27.5M32.1,27.5V0m0,1348.9v27.5M967.5,27.5V0m0,1348.9v27.5" class="gv_83"/>
</svg>