<?xml version="1.0" encoding="UTF-8" standalone="no"?>
<!DOCTYPE svg PUBLIC "-//W3C//DTD SVG 1.1//EN"
"http://www.w3.org/Graphics/SVG/1.1/DTD/svg11.dtd">
<svg viewBox="0 0 999 1376" version="1.1" xmlns="http://www.w3.org/2000/svg" xmlns:xlink="http://www.w3.org/1999/xlink">
<defs>
<style type="text/css"><![CDATA[
.g0_192{
fill: none;
stroke: #6381B7;
stroke-width: 0.763;
}
.g1_192{
fill: #DCE9F3;
}
.g2_192{
fill: #E9EAEB;
}
.g3_192{
fill: none;
stroke: #93BEDA;
stroke-width: 0.458;
stroke-miterlimit: 10;
}
.g4_192{
fill: #766FA6;
}
.g5_192{
fill: #48484A;
}
.g6_192{
fill: #F0E8F3;
}
.g7_192{
fill: #6381B7;
}
.g8_192{
fill: none;
stroke: #6381B7;
stroke-width: 0.381;
stroke-dasharray: 2,1;
}
.g9_192{
fill: none;
stroke: #6381B7;
stroke-width: 0.381;
}
.ga_192{
fill: #FCFBEC;
}
.gb_192{
fill: none;
stroke: #EAD646;
stroke-width: 1.527;
stroke-linecap: round;
stroke-linejoin: round;
stroke-dasharray: 0,5;
}
.gc_192{
fill: none;
stroke: #EAD646;
stroke-width: 1.527;
stroke-linecap: round;
stroke-linejoin: round;
}
.gd_192{
fill: #EAD646;
}
.ge_192{
fill: #61C7CB;
}
.gf_192{
fill: #FFF;
}
.gg_192{
fill: #F5CA58;
}
.gh_192{
fill: #3D3B39;
}
.gi_192{
fill: none;
stroke: #949698;
stroke-width: 0.305;
}
.gj_192{
fill: #25408F;
}
.gk_192{
fill: #F37553;
}
.gl_192{
fill: #363637;
}
.gm_192{
fill: #F0D73F;
}
.gn_192{
fill: #506CB4;
}
.go_192{
fill: #5CC4BE;
}
.gp_192{
fill: none;
stroke: #FFF;
stroke-width: 1.909;
stroke-miterlimit: 10;
}
.gq_192{
fill: none;
stroke: #000;
stroke-width: 0.381;
stroke-miterlimit: 10;
}
]]></style>
</defs>
<path d="M145.1,166.3c0,0,-13,0,-13,13V945.5c0,0,0,13,13,13H832.9c0,0,13,0,13,-13V179.3c0,0,0,-13,-13,-13H145.1Z" class="g0_192"/>
<path d="M564.8,383.2H803.2v44H564.8v-44Zm-184.4,0H564.8v44H380.4v-44Zm-138.6,0H380.4v44H241.8v-44Zm-65,0h65v44h-65v-44Z" class="g1_192"/>
<path d="M176.8,838.6h65v82.3h-65V838.6Zm0,-82.2h65v82.2h-65V756.4Zm0,-82.3h65v82.3h-65V674.1Zm0,-82.3h65v82.3h-65V591.8Zm0,-82.3h65v82.3h-65V509.5Zm0,-82.3h65v82.3h-65V427.2Z" class="g2_192"/>
<path d="M176.8,383.2h65m0,43.8V383.4m0,-.2H380.4m0,0H564.8M380.4,427V383.4M564.8,427V383.4m0,-.2H803.2m-626.4,44h65m0,82.1V427.5m0,-.3H380.4m0,0H564.8M380.4,509.3V427.5m184.4,81.8V427.5m0,-.3H803.2M176.8,509.5h65m0,82.1V509.7m0,-.2H380.4m0,0H564.8M380.4,591.6V509.7m184.4,81.9V509.7m0,-.2H803.2M176.8,591.8h65m0,82V592m0,-.2H380.4m0,0H564.8m-184.4,82V592m184.4,81.8V592m0,-.2H803.2M176.8,674.1h65m0,82V674.3m0,-.2H380.4m0,0H564.8m-184.4,82V674.3m184.4,81.8V674.3m0,-.2H803.2M176.8,756.4h65m0,82V756.6m0,-.2H380.4m0,0H564.8m-184.4,82V756.6m184.4,81.8V756.6m0,-.2H803.2M176.8,838.6h65m-65,82.3h65m0,-.2V838.9m0,-.3H380.4m0,0H564.8M380.4,920.7V838.9m-138.6,82H380.4m0,0H564.8m0,-.2V838.9m0,-.3H803.2M564.8,920.9H803.2" class="g3_192"/>
<path d="M192.1,455.1c0,0,-4.4,0,-4.4,3.7v14.3c0,0,0,3.7,4.4,3.7h34.5c0,0,4.4,0,4.4,-3.7V458.8c0,0,0,-3.7,-4.4,-3.7Z" class="g4_192"/>
<path d="M170.7,246.9c0,0,-4.4,0,-4.4,4.4v14.3c0,0,0,4.4,4.1,5.8l52.5,18.2c0,0,4.1,1.5,4.1,-2.9V251.3c0,0,0,-4.4,-4.4,-4.4Z" class="g5_192"/>
<path d="M191.8,234.1c0,0,-13,0,-13,13v104c0,0,0,13,13,13H789.4c0,0,13,0,13,-13v-104c0,0,0,-13,-13,-13Z" class="g6_192"/>
<path d="M170.7,244.8c0,0,-4.4,0,-4.4,4.3v17c0,0,0,4.3,4.4,4.3h33.7c0,0,4.4,0,4.4,-4.3v-17c0,0,0,-4.3,-4.4,-4.3Z" class="g4_192"/>
<path d="M742.8,1214.8c0,0,-4.3,0,-4.3,4.4V1230c0,0,0,4.3,4.3,4.3h30.4c0,0,4.3,0,4.3,-4.3v-10.8c0,0,0,-4.4,-4.3,-4.4Z" class="g7_192"/>
<path d="M729.7,1206v37.5m1.3,1H845.1m1,-1.3v-37.6m-1.4,-1H730.6" class="g8_192"/>
<path d="M729.7,1243.9v.6h.5m115.3,0h.6v-.6m0,-38.7v-.6h-.6m-115.3,0h-.5v.6" class="g9_192"/>
<path d="M132.5,1198.1h713V1012.2h-713v185.9Z" class="ga_192"/>
<path d="M132.5,1016.7v179.1m4.5,2.3H843.2m2.3,-4.5V1014.5m-4.6,-2.3H134.7" class="gb_192"/>
<path d="M132.5,1198.1v0m713,0v0m0,-185.9v0m-713,0v0" class="gc_192"/>
<path d="M131.7,1015.5V986.8c0,0,0,-8.6,8.6,-8.6H837.6c0,0,8.7,0,8.7,8.6V1016Z" class="gd_192"/>
<path d="M160.4,1004.1H155c.1,3,1.1,5.8,2.7,8.2h4.1c-.8,-2.4,-1.4,-5.2,-1.4,-8.2Z" class="ge_192"/>
<path d="M160.4,1003.1c0,-2.9,.6,-5.7,1.4,-8.1h-4.1c-1.6,2.3,-2.6,5.1,-2.7,8.1Z" class="ge_192"/>
<path d="M170.6,993.7v.3h6.6c-.2,-.4,-.4,-.8,-.6,-1.1c-1.9,.4,-3.9,.8,-6,.8Z" class="ge_192"/>
<path d="M177.5,992.7c.2,.4,.4,.9,.6,1.3h2.3c.1,-.4,.3,-.7,.6,-1.1c-.3,-.3,-.6,-.5,-.9,-.8c-.1,0,-.2,.1,-.3,.1c-.8,.1,-1.5,.3,-2.3,.5Z" class="ge_192"/>
<path d="M179.9,1004.1c0,3,-.5,5.8,-1.4,8.2h4.1c1.7,-2.4,2.7,-5.2,2.7,-8.2Z" class="ge_192"/>
<path d="M179,1003.1c0,-3,-.6,-5.8,-1.5,-8.1h-6.9v8.1Z" class="ge_192"/>
<path d="M169.7,1013.2h-6.5c1.1,2.5,2.6,4.4,4.4,5.4c.7,.1,1.4,.2,2.1,.2Z" class="ge_192"/>
<path d="M180.3,998.4V995h-1.8c.9,2.3,1.4,5.2,1.4,8.1h5.4c0,-.9,-.1,-1.7,-.3,-2.6c-.5,.5,-1.1,.7,-1.8,.7c-1.6,0,-2.9,-1.3,-2.9,-2.8Z" class="ge_192"/>
<path d="M170.6,1013.2v5.6c.7,0,1.5,-.1,2.2,-.2c1.7,-1,3.3,-2.9,4.4,-5.4Z" class="ge_192"/>
<path d="M178.1,1013.2c-.8,2,-1.9,3.6,-3.1,4.8c2.7,-.9,5.2,-2.6,6.9,-4.8Z" class="ge_192"/>
<path d="M170.6,1004.1v8.2h6.9c.9,-2.4,1.5,-5.2,1.5,-8.2Z" class="ge_192"/>
<path d="M162.2,994c.2,-.4,.4,-.9,.6,-1.3c-.8,-.2,-1.5,-.4,-2.3,-.5c-.1,0,-.1,-.1,-.2,-.1c-.7,.6,-1.4,1.2,-1.9,1.9Z" class="ge_192"/>
<path d="M169.7,993.7c-2.1,0,-4,-.4,-6,-.8c-.2,.3,-.4,.7,-.5,1.1h6.5Z" class="ge_192"/>
<path d="M165.3,1018c-1.2,-1.2,-2.3,-2.8,-3.1,-4.8h-3.8c1.8,2.2,4.2,3.9,6.9,4.8Z" class="ge_192"/>
<path d="M169.7,1003.1V995h-6.9c-.9,2.3,-1.4,5.1,-1.5,8.1Z" class="ge_192"/>
<path d="M169.7,1004.1h-8.4c.1,3,.6,5.8,1.5,8.2h6.9Z" class="ge_192"/>
<path d="M161.6,990.5c.6,.2,1.1,.3,1.7,.4c2.2,.5,4.5,1,6.9,1c2.3,0,4.6,-.5,6.9,-1c.5,-.1,1,-.2,1.6,-.4v-5.1l-8.2,3.5c-.1,0,-.2,.1,-.3,.1c-.2,0,-.3,-.1,-.4,-.1l-8.2,-3.5Z" class="gf_192"/>
<path d="M170.2,987.1l13.7,-6l-13.7,-5.9l-13.8,5.9Z" class="gg_192"/>
<path d="M182.1,998.4c0,.5,.5,1,1.1,1c.5,0,1,-.5,1,-1v-.6h-2.1Z" class="gf_192"/>
<path d="M183.2,993.8c-.6,0,-1.1,.4,-1.1,1v2.1h2.1v-2.1c0,-.6,-.5,-1,-1,-1Z" class="gf_192"/>
<path d="M186,994.8c0,-1.3,-.8,-2.3,-1.9,-2.7v-9l2.5,-1.1c.4,-.2,.6,-.5,.6,-.9c0,-.3,-.2,-.6,-.6,-.8l-16.1,-6.9c-.2,-.1,-.5,-.1,-.7,0l-16.1,6.9c-.3,.2,-.6,.5,-.6,.8c0,.4,.3,.7,.6,.9l6.1,2.6v5.5c-4,3.1,-6.7,8,-6.7,13.5c0,9.4,7.7,17,17.1,17c9.4,0,17,-7.6,17,-17c0,-2.2,-.4,-4.3,-1.2,-6.2ZM170.2,975.2l13.7,5.9l-13.7,6l-13.8,-6Zm15.1,27.9h-5.4c0,-2.9,-.5,-5.7,-1.4,-8.1h1.8v3.4c0,1.5,1.3,2.8,2.9,2.8c.7,0,1.3,-.2,1.8,-.7c.2,.9,.3,1.7,.3,2.6m-2.7,9.2h-4.1c.9,-2.4,1.4,-5.2,1.4,-8.2h5.4c0,3,-1,5.8,-2.7,8.2m-9.8,6.3c-.7,.1,-1.5,.2,-2.2,.2v-5.6h6.6c-1.1,2.5,-2.7,4.4,-4.4,5.4m-9.6,-5.4h6.5v5.6c-.7,0,-1.4,-.1,-2.1,-.2c-1.8,-1,-3.3,-2.9,-4.4,-5.4m-8.2,-9.1h5.4c0,3,.6,5.8,1.4,8.2h-4.1c-1.6,-2.4,-2.6,-5.2,-2.7,-8.2m2.7,-9.1h4.1c-.8,2.4,-1.4,5.2,-1.4,8.1H155c.1,-3,1.1,-5.8,2.7,-8.1M181,992.9c-.3,.4,-.5,.7,-.6,1.1h-2.3c-.2,-.4,-.4,-.9,-.6,-1.3c.8,-.2,1.5,-.4,2.3,-.5c.1,0,.2,-.1,.3,-.1c.3,.3,.6,.5,.9,.8m3.2,4.9v.6c0,.5,-.5,1,-1,1c-.6,0,-1.1,-.5,-1.1,-1v-.6ZM170.6,994v-.3c2.1,0,4.1,-.4,6,-.8c.2,.3,.4,.7,.6,1.1Zm6.9,1c.9,2.3,1.5,5.1,1.5,8.1h-8.4V995Zm-13.8,-2.1c2,.4,3.9,.8,6,.8v.3h-6.5c.1,-.4,.3,-.8,.5,-1.1m6,2.1v8.1h-8.4c.1,-3,.6,-5.8,1.5,-8.1Zm-8.4,9.1h8.4v8.2h-6.9c-.9,-2.4,-1.4,-5.2,-1.5,-8.2m9.3,8.2v-8.2H179c0,3,-.6,5.8,-1.5,8.2Zm13.6,-15.4h-2.1v-2.1c0,-.6,.5,-1,1.1,-1c.5,0,1,.4,1,1Zm-14.4,-8c.1,0,.2,.1,.4,.1c.1,0,.2,-.1,.3,-.1l8.2,-3.5v5.1c-.6,.2,-1.1,.3,-1.6,.4c-2.3,.5,-4.6,1,-6.9,1c-2.4,0,-4.7,-.5,-6.9,-1c-.6,-.1,-1.1,-.2,-1.7,-.4v-5.1Zm-9.5,3.2c.1,0,.1,.1,.2,.1c.8,.1,1.5,.3,2.3,.5c-.2,.4,-.4,.9,-.6,1.3h-3.8c.5,-.7,1.2,-1.3,1.9,-1.9m1.9,21.1c.8,2,1.9,3.6,3.1,4.8c-2.7,-.9,-5.1,-2.6,-6.9,-4.8ZM175,1018c1.2,-1.2,2.3,-2.8,3.1,-4.8H182c-1.9,2.2,-4.3,3.9,-7,4.8m7.2,-26.4c-.5,-.5,-1.1,-1,-1.7,-1.5v-5.5l1.7,-.7Z" class="gh_192"/>
<path d="M181.2,1092.1c0,0,-4.3,0,-4.3,4.4v17c0,0,0,4.3,4.3,4.3H691.9c0,0,4.4,0,4.4,-4.3v-17c0,0,0,-4.4,-4.4,-4.4Z" class="gf_192"/>
<path d="M181.2,1092.1c0,0,-4.3,0,-4.3,4.4v17c0,0,0,4.3,4.3,4.3H691.9c0,0,4.4,0,4.4,-4.3v-17c0,0,0,-4.4,-4.4,-4.4H181.2Z" class="gi_192"/>
<path d="M181.2,1122.8c0,0,-4.3,0,-4.3,4.4v17c0,0,0,4.3,4.3,4.3H691.9c0,0,4.4,0,4.4,-4.3v-17c0,0,0,-4.4,-4.4,-4.4Z" class="gf_192"/>
<path d="M181.2,1122.8c0,0,-4.3,0,-4.3,4.4v17c0,0,0,4.3,4.3,4.3H691.9c0,0,4.4,0,4.4,-4.3v-17c0,0,0,-4.4,-4.4,-4.4H181.2Z" class="gi_192"/>
<path d="M181.2,1153.6c0,0,-4.3,0,-4.3,4.3v17c0,0,0,4.3,4.3,4.3H691.9c0,0,4.4,0,4.4,-4.3v-17c0,0,0,-4.3,-4.4,-4.3Z" class="gf_192"/>
<path d="M181.2,1153.6c0,0,-4.3,0,-4.3,4.3v17c0,0,0,4.3,4.3,4.3H691.9c0,0,4.4,0,4.4,-4.3v-17c0,0,0,-4.3,-4.4,-4.3H181.2Z" class="gi_192"/>
<path d="M132.2,126.3v22.2l11.7,10.2V136.5Z" class="gj_192"/>
<path d="M132.2,109.5v39H829.9c0,0,16.9,0,16.9,-16.8v-5.4c0,0,0,-16.8,-16.9,-16.8Z" class="g7_192"/>
<path d="M166,111.6c.7,-.6,1.7,-.8,2.5,-.6l1.3,-1.3l-6.2,-6.1l-6.1,6.1l-1.3,-1.3c.2,-.8,0,-1.8,-.6,-2.4c-1,-1,-2.6,-1,-3.6,0c-1,1,-1,2.6,0,3.6c.6,.6,1.6,.9,2.4,.6l1.3,1.3l-6.1,6.1l6.1,6.2l-1.3,1.3c-.8,-.3,-1.8,-.1,-2.4,.6c-1,1,-1,2.6,0,3.6c1,1,2.6,1,3.6,0c.6,-.7,.9,-1.6,.6,-2.4l1.3,-1.3l6.1,6.1l6.2,-6.1l-1.3,-1.3c-.9,.2,-1.8,0,-2.5,-.7c-1,-1,-1,-2.6,0,-3.6c1,-1,2.6,-1,3.6,0c.7,.7,.9,1.6,.7,2.5l1.3,1.3l6.1,-6.2l-6.1,-6.1l-1.3,1.3c.2,.8,0,1.8,-.7,2.4c-1,1,-2.6,1,-3.6,0c-1,-.9,-1,-2.6,0,-3.6Z" class="gk_192"/>
<path d="M163.6,132.3l-6.1,-6.2l-.8,.9c.1,.9,-.2,1.9,-.8,2.6c-1.2,1.1,-3.1,1.1,-4.2,0c-1.2,-1.2,-1.2,-3,0,-4.2c.7,-.7,1.6,-1,2.6,-.8l.8,-.8L149,117.6l6.1,-6.1l-.8,-.8c-1,.1,-1.9,-.2,-2.6,-.8c-.6,-.6,-.9,-1.3,-.9,-2.1c0,-.8,.3,-1.5,.9,-2.1c1.1,-1.1,3,-1.1,4.1,0c.7,.7,1,1.7,.9,2.6l.8,.8l6.1,-6.1l6.7,6.7l-1.7,1.7h-.2c-.7,-.2,-1.5,0,-2.1,.5c-.8,.9,-.8,2.2,0,3.1c.9,.8,2.2,.8,3.1,0c.5,-.6,.7,-1.4,.5,-2.1v-.2l1.7,-1.7l6.7,6.6l-6.7,6.7l-1.8,-1.7l.1,-.2c.2,-.8,0,-1.5,-.6,-2.1c-.4,-.4,-.9,-.6,-1.5,-.6c-.5,0,-1.1,.2,-1.5,.6c-.8,.8,-.8,2.2,0,3c.5,.6,1.3,.8,2.1,.6l.2,-.1l1.7,1.8ZM157.5,125l6.1,6.1l5.6,-5.5l-.8,-.9c-1,.2,-2,-.1,-2.7,-.8c-.5,-.5,-.8,-1.3,-.8,-2.1c0,-.7,.3,-1.5,.8,-2c.6,-.6,1.3,-.9,2.1,-.9c.8,0,1.6,.3,2.1,.9c.7,.6,1,1.6,.8,2.6l.9,.8l5.5,-5.6l-5.5,-5.5l-.9,.8c.2,1,-.1,1.9,-.8,2.6c-1.1,1.2,-3,1.2,-4.1,0c-1.2,-1.1,-1.2,-3,0,-4.1c.6,-.7,1.6,-1,2.6,-.8l.8,-.9l-5.6,-5.6l-6.1,6.2l-1.7,-1.7v-.3c.2,-.7,0,-1.5,-.5,-2c-.9,-.9,-2.2,-.9,-3.1,0c-.4,.4,-.6,.9,-.6,1.5c0,.6,.2,1.1,.6,1.5c.6,.5,1.4,.8,2.1,.6l.2,-.1l1.8,1.7l-6.2,6.1l6.2,6.2l-1.8,1.7l-.2,-.1c-.7,-.2,-1.5,.1,-2,.6c-.9,.8,-.9,2.2,0,3c.8,.9,2.2,.9,3,0c.5,-.5,.7,-1.3,.5,-2v-.3Z" class="gl_192"/>
<path d="M196.6,122.1c.9,0,1.8,.5,2.2,1.3h1.8v-8.7h-8.7v-1.8c.8,-.4,1.3,-1.2,1.3,-2.2c0,-1.4,-1.1,-2.5,-2.5,-2.5c-1.5,0,-2.6,1.1,-2.6,2.5c0,1,.5,1.8,1.3,2.2v1.8h-8.7v8.7h-1.8c-.4,-.8,-1.2,-1.3,-2.2,-1.3c-1.4,0,-2.5,1.2,-2.5,2.6c0,1.4,1.1,2.5,2.5,2.5c1,0,1.8,-.5,2.2,-1.2h1.8v8.6h8.7v-1.8c-.8,-.4,-1.3,-1.2,-1.3,-2.2c0,-1.4,1.2,-2.5,2.6,-2.5c1.4,0,2.5,1.1,2.5,2.5c0,1,-.5,1.8,-1.3,2.2v1.8h8.7V126h-1.8c-.4,.7,-1.2,1.2,-2.2,1.2c-1.4,0,-2.5,-1.1,-2.5,-2.5c0,-1.4,1.1,-2.6,2.5,-2.6Z" class="gm_192"/>
<path d="M201,135h-9.5v-2.4l.2,-.1c.7,-.4,1.1,-1.1,1.1,-1.9c0,-1.2,-1,-2.1,-2.1,-2.1c-1.2,0,-2.2,.9,-2.2,2.1c0,.8,.4,1.5,1.1,1.9l.2,.1V135h-9.5v-8.6h-1.2c-.5,.7,-1.4,1.2,-2.4,1.2c-1.6,0,-2.9,-1.3,-2.9,-2.9c0,-1.6,1.3,-3,2.9,-3c1,0,1.9,.5,2.4,1.3h1.2v-8.7H189v-1.1c-.8,-.6,-1.3,-1.5,-1.3,-2.5c0,-1.6,1.3,-2.9,3,-2.9c1.6,0,2.9,1.3,2.9,2.9c0,1,-.5,1.9,-1.3,2.5v1.1H201v9.5h-2.4l-.1,-.2c-.4,-.6,-1.1,-1.1,-1.9,-1.1c-.6,0,-1.1,.3,-1.5,.7c-.4,.4,-.6,.9,-.6,1.5c0,1.2,.9,2.1,2.1,2.1c.8,0,1.5,-.4,1.9,-1l.1,-.2H201Zm-8.7,-.8h7.9v-7.8H199c-.5,.7,-1.4,1.2,-2.4,1.2c-1.6,0,-2.9,-1.3,-2.9,-2.9c0,-.8,.3,-1.5,.8,-2.1c.6,-.5,1.3,-.9,2.1,-.9c1,0,1.9,.5,2.4,1.3h1.2v-7.9h-8.7v-2.4l.2,-.1c.7,-.4,1.1,-1.1,1.1,-1.9c0,-1.2,-1,-2.1,-2.1,-2.1c-1.2,0,-2.2,.9,-2.2,2.1c0,.8,.4,1.5,1.1,1.9l.2,.1v2.4h-8.7v8.7h-2.4l-.1,-.2c-.4,-.6,-1.1,-1.1,-1.9,-1.1c-1.2,0,-2.1,1,-2.1,2.2c0,1.2,.9,2.1,2.1,2.1c.8,0,1.5,-.4,1.9,-1l.1,-.2h2.4v8.6H189V133c-.8,-.5,-1.3,-1.4,-1.3,-2.4c0,-1.6,1.3,-2.9,3,-2.9c1.6,0,2.9,1.3,2.9,2.9c0,1,-.5,1.9,-1.3,2.4Z" class="gl_192"/>
<path d="M176.7,142c1,0,1.8,.5,2.2,1.3h1.8v-8.7H172v-1.8c.8,-.4,1.3,-1.2,1.3,-2.2c0,-1.4,-1.1,-2.5,-2.5,-2.5c-1.4,0,-2.6,1.1,-2.6,2.5c0,1,.5,1.8,1.3,2.2v1.8h-8.7v8.7H159c-.4,-.8,-1.2,-1.3,-2.2,-1.3c-1.4,0,-2.5,1.2,-2.5,2.6c0,1.4,1.1,2.5,2.5,2.5c1,0,1.8,-.5,2.2,-1.2h1.8v8.6h8.7v-1.8c-.8,-.4,-1.3,-1.2,-1.3,-2.2c0,-1.4,1.2,-2.5,2.6,-2.5c1.4,0,2.5,1.1,2.5,2.5c0,1,-.5,1.8,-1.3,2.2v1.8h8.7v-8.7h-1.8c-.4,.8,-1.2,1.3,-2.2,1.3c-1.4,0,-2.5,-1.1,-2.5,-2.5c0,-1.4,1.1,-2.6,2.5,-2.6Z" class="gn_192"/>
<path d="M181.1,154.9h-9.5v-2.4l.2,-.1c.7,-.4,1.1,-1.1,1.1,-1.9c0,-1.2,-1,-2.1,-2.1,-2.1c-1.2,0,-2.2,.9,-2.2,2.1c0,.8,.4,1.5,1.1,1.9l.2,.1v2.4h-9.5v-8.6h-1.2c-.5,.7,-1.4,1.2,-2.4,1.2c-1.6,0,-2.9,-1.3,-2.9,-2.9c0,-1.6,1.3,-3,2.9,-3c1,0,1.9,.5,2.4,1.3h1.2v-8.7h8.7V133c-.8,-.5,-1.3,-1.4,-1.3,-2.4c0,-1.6,1.3,-2.9,3,-2.9c1.6,0,2.9,1.3,2.9,2.9c0,1,-.5,1.9,-1.3,2.4v1.2h8.7v9.5h-2.4l-.1,-.2c-.4,-.7,-1.1,-1.1,-1.9,-1.1c-1.2,0,-2.1,1,-2.1,2.2c0,1.1,.9,2.1,2.1,2.1c.8,0,1.5,-.4,1.9,-1.1l.1,-.2h2.4Zm-8.7,-.8h7.9v-7.9h-1.2c-.5,.8,-1.4,1.3,-2.4,1.3c-1.6,0,-2.9,-1.3,-2.9,-2.9c0,-1.6,1.3,-3,2.9,-3c1,0,1.9,.5,2.4,1.3h1.2V135h-8.7v-2.4l.2,-.1c.7,-.4,1.1,-1.1,1.1,-1.9c0,-1.2,-1,-2.1,-2.1,-2.1c-1.2,0,-2.2,.9,-2.2,2.1c0,.8,.4,1.5,1.1,1.9l.2,.1V135h-8.7v8.7h-2.4l-.1,-.2c-.4,-.7,-1.1,-1.1,-1.9,-1.1c-1.2,0,-2.1,1,-2.1,2.2c0,1.2,.9,2.1,2.1,2.1c.8,0,1.5,-.4,1.9,-1l.1,-.2h2.4v8.6h7.9v-1.2c-.8,-.5,-1.3,-1.4,-1.3,-2.4c0,-1.6,1.3,-2.9,3,-2.9c1.6,0,2.9,1.3,2.9,2.9c0,1,-.5,1.9,-1.3,2.4Z" class="gl_192"/>
<path d="M196.6,142c.9,0,1.8,.5,2.2,1.3h1.8v-8.7h-8.7v-1.8c.8,-.4,1.3,-1.2,1.3,-2.2c0,-1.4,-1.1,-2.5,-2.5,-2.5c-1.5,0,-2.6,1.1,-2.6,2.5c0,1,.5,1.8,1.3,2.2v1.8h-8.7v8.7h-1.8c-.4,-.8,-1.2,-1.3,-2.2,-1.3c-1.4,0,-2.5,1.2,-2.5,2.6c0,1.4,1.1,2.5,2.5,2.5c1,0,1.8,-.5,2.2,-1.2h1.8v8.6h8.7v-1.8c-.8,-.4,-1.3,-1.2,-1.3,-2.2c0,-1.4,1.2,-2.5,2.6,-2.5c1.4,0,2.5,1.1,2.5,2.5c0,1,-.5,1.8,-1.3,2.2v1.8h8.7v-8.7h-1.8c-.4,.8,-1.2,1.3,-2.2,1.3c-1.4,0,-2.5,-1.1,-2.5,-2.5c0,-1.4,1.1,-2.6,2.5,-2.6Z" class="go_192"/>
<path d="M201,154.9h-9.5v-2.4l.2,-.1c.7,-.4,1.1,-1.1,1.1,-1.9c0,-1.2,-1,-2.1,-2.1,-2.1c-1.2,0,-2.2,.9,-2.2,2.1c0,.8,.4,1.5,1.1,1.9l.2,.1v2.4h-9.5v-8.6h-1.2c-.5,.7,-1.4,1.2,-2.4,1.2c-1.6,0,-2.9,-1.3,-2.9,-2.9c0,-1.6,1.3,-3,2.9,-3c1,0,1.9,.5,2.4,1.3h1.2v-8.7H189V133c-.8,-.5,-1.3,-1.4,-1.3,-2.4c0,-1.6,1.3,-2.9,3,-2.9c1.6,0,2.9,1.3,2.9,2.9c0,1,-.5,1.9,-1.3,2.4v1.2H201v9.5h-2.4l-.1,-.2c-.4,-.7,-1.1,-1.1,-1.9,-1.1c-.6,0,-1.1,.3,-1.5,.7c-.4,.4,-.6,.9,-.6,1.5c0,1.1,.9,2.1,2.1,2.1c.8,0,1.5,-.4,1.9,-1.1l.1,-.2H201Zm-8.7,-.8h7.9v-7.9H199c-.5,.8,-1.4,1.3,-2.4,1.3c-1.6,0,-2.9,-1.3,-2.9,-2.9c0,-.8,.3,-1.5,.8,-2.1c.6,-.6,1.3,-.9,2.1,-.9c1,0,1.9,.5,2.4,1.3h1.2V135h-8.7v-2.4l.2,-.1c.7,-.4,1.1,-1.1,1.1,-1.9c0,-1.2,-1,-2.1,-2.1,-2.1c-1.2,0,-2.2,.9,-2.2,2.1c0,.8,.4,1.5,1.1,1.9l.2,.1V135h-8.7v8.7h-2.4l-.1,-.2c-.4,-.7,-1.1,-1.1,-1.9,-1.1c-1.2,0,-2.1,1,-2.1,2.2c0,1.2,.9,2.1,2.1,2.1c.8,0,1.5,-.4,1.9,-1l.1,-.2h2.4v8.6H189v-1.2c-.8,-.5,-1.3,-1.4,-1.3,-2.4c0,-1.6,1.3,-2.9,3,-2.9c1.6,0,2.9,1.3,2.9,2.9c0,1,-.5,1.9,-1.3,2.4Z" class="gl_192"/>
<path d="M32.1,45.1H9.2m958.3,0h22.9M32.1,1331.3H9.2m958.3,0h22.9M45.1,32.1V9.2m0,1335.1v22.9M954.5,32.1V9.2m0,1335.1v22.9" class="gp_192"/>
<path d="M32.1,45.1H9.2m958.3,0h22.9M32.1,1331.3H9.2m958.3,0h22.9M45.1,32.1V9.2m0,1335.1v22.9M954.5,32.1V9.2m0,1335.1v22.9" class="gq_192"/>
<path d="M27.5,32.1H0m972.1,0h27.5M27.5,1344.3H0m972.1,0h27.5M32.1,27.5V0m0,1348.9v27.5M967.5,27.5V0m0,1348.9v27.5" class="gp_192"/>
<path d="M27.5,32.1H0m972.1,0h27.5M27.5,1344.3H0m972.1,0h27.5M32.1,27.5V0m0,1348.9v27.5M967.5,27.5V0m0,1348.9v27.5" class="gq_192"/>
</svg>