<?xml version="1.0" encoding="UTF-8" standalone="no"?>
<!DOCTYPE svg PUBLIC "-//W3C//DTD SVG 1.1//EN"
"http://www.w3.org/Graphics/SVG/1.1/DTD/svg11.dtd">
<svg viewBox="0 0 999 1376" version="1.1" xmlns="http://www.w3.org/2000/svg" xmlns:xlink="http://www.w3.org/1999/xlink">
<defs>
<clipPath id="c0_223"><path d="M32.1,1344.3V32.1H967.5V1344.3Z"/></clipPath>
<clipPath id="c1_223"><path d="M218,432.2V343.6H328.8v88.6Z"/></clipPath>
<clipPath id="c2_223"><path d="M542.4,432.2V343.6h92.5v88.6Z"/></clipPath>
<clipPath id="c3_223"><path d="M383.3,432.2V343.6H484v88.6Z"/></clipPath>
<clipPath id="c4_223"><path d="M696.9,432.2V343.6h98.5v88.6Z"/></clipPath>
<clipPath id="c5_223"><path d="M220.1,720.2V631.6h98.5v88.6Z"/></clipPath>
<clipPath id="c6_223"><path d="M544.2,719.8V631.6H645.1v88.2Z"/></clipPath>
<clipPath id="c7_223"><path d="M368.5,720.2V631.6H493v88.6Z"/></clipPath>
<clipPath id="c8_223"><path d="M700.5,720.2V631.6H807.1v88.6Z"/></clipPath>
<clipPath id="c9_223"><path d="M225.1,576V487.6h95.6V576Z"/></clipPath>
<clipPath id="ca_223"><path d="M538.8,576V487.6h98.5V576Z"/></clipPath>
<clipPath id="cb_223"><path d="M387.8,576V487.6H477V576Z"/></clipPath>
<clipPath id="cc_223"><path d="M696,575.1V487.6h98.6v87.5Z"/></clipPath>
<clipPath id="cd_223"><path d="M225.1,568.4V480h95.6v88.4Z"/></clipPath>
<clipPath id="ce_223"><path d="M538.8,568.5V480h98.5v88.5Z"/></clipPath>
<clipPath id="cf_223"><path d="M387.8,568.4V480H477v88.4Z"/></clipPath>
<clipPath id="cg_223"><path d="M696,567.6V480h98.6v87.6Z"/></clipPath>
<clipPath id="ch_223"><path d="M220.1,710.3V621.7h98.5v88.6Z"/></clipPath>
<clipPath id="ci_223"><path d="M544.2,709.9V621.7H645.1v88.2Z"/></clipPath>
<clipPath id="cj_223"><path d="M368.5,710.3V621.7H493v88.6Z"/></clipPath>
<clipPath id="ck_223"><path d="M700.5,710.3V621.7H807.1v88.6Z"/></clipPath>
<clipPath id="cl_223"><path d="M218.3,861.8V773.2H336v88.6Z"/></clipPath>
<clipPath id="cm_223"><path d="M539.8,861.8V773.2h93.4v88.6Z"/></clipPath>
<clipPath id="cn_223"><path d="M376.5,861.8V773.2H490.9v88.6Z"/></clipPath>
<clipPath id="co_223"><path d="M697.8,859.3V773.2h89.9v86.1Z"/></clipPath>
<clipPath id="cp_223"><path d="M212.9,1156v-91.8H313.4V1156Z"/></clipPath>
<clipPath id="cq_223"><path d="M431.2,1155.9V1064H531.6v91.9Z"/></clipPath>
<clipPath id="cr_223"><path d="M322.1,1156v-92H414v92Z"/></clipPath>
<clipPath id="cs_223"><path d="M540.3,1156v-92h92v92Z"/></clipPath>
<clipPath id="ct_223"><path d="M200.7,995.4l-6.5,-2.1L177.8,979.4V922.3h72v73.1Z"/></clipPath>
<clipPath id="cu_223"><path d="M199.2,322.2l-6.5,-2.1l-16.4,-14V249h72v73.2Z"/></clipPath>
<clipPath id="cv_223"><path d="M658.6,177V59h200V177Z"/></clipPath>
<style type="text/css"><![CDATA[
.g0_223{
fill: #FEFCF4;
}
.g1_223{
fill: #FFF;
}
.g2_223{
fill: none;
stroke: #6381B7;
stroke-width: 0.763;
}
.g3_223{
fill: none;
stroke: #949698;
stroke-width: 1.268;
}
.g4_223{
fill: none;
stroke: #949698;
stroke-width: 0.458;
}
.g5_223{
fill: #48484A;
}
.g6_223{
fill: #F0E8F3;
}
.g7_223{
fill: #766FA6;
}
.g8_223{
fill: #6381B7;
}
.g9_223{
fill: none;
stroke: #6381B7;
stroke-width: 0.381;
stroke-dasharray: 2,1;
}
.ga_223{
fill: none;
stroke: #6381B7;
stroke-width: 0.381;
}
.gb_223{
fill: #FCE8B0;
}
.gc_223{
fill: #2E6E51;
}
.gd_223{
fill: #BCBEC0;
}
.ge_223{
fill: #EE314A;
}
.gf_223{
fill: #25408F;
}
.gg_223{
fill: #00BAF1;
}
.gh_223{
fill: #332D2C;
}
.gi_223{
fill: #D9DFF0;
}
.gj_223{
fill: #F27C85;
}
.gk_223{
fill: #7DD3F6;
}
.gl_223{
fill: none;
stroke: #FFF;
stroke-width: 1.909;
stroke-miterlimit: 10;
}
.gm_223{
fill: none;
stroke: #000;
stroke-width: 0.381;
stroke-miterlimit: 10;
}
]]></style>
</defs>
<path clip-path="url(#c0_223)" d="M-877.3,1344.3H45.1V32.1H-877.3V1344.3Z" class="g0_223"/>
<path d="M45.1,1344.3H967.5V32.1H45.1V1344.3Z" class="g0_223"/>
<path d="M173,224c0,0,-18.3,0,-18.3,18.4v654c0,0,0,18.3,18.3,18.3H850.1c0,0,18.4,0,18.4,-18.3V224Z" class="g1_223"/>
<path d="M173,224c0,0,-18.3,0,-18.3,18.4v654c0,0,0,18.3,18.3,18.3H850.1c0,0,18.4,0,18.4,-18.3V224H173Z" class="g2_223"/>
<image clip-path="url(#c1_223)" preserveAspectRatio="none" x="218" y="342" width="111" height="91" xlink:href="img/1.jpg"/>
<path d="M211.4,432.2H336V343.6H211.4v88.6Z" class="g3_223"/>
<image clip-path="url(#c2_223)" preserveAspectRatio="none" x="542" y="342" width="93" height="91" xlink:href="img/2.jpg"/>
<path d="M525.5,432.2H650V343.6H525.5v88.6Z" class="g3_223"/>
<image clip-path="url(#c3_223)" preserveAspectRatio="none" x="383" y="342" width="101" height="91" xlink:href="img/3.jpg"/>
<path d="M368.5,432.2H493V343.6H368.5v88.6Z" class="g3_223"/>
<image clip-path="url(#c4_223)" preserveAspectRatio="none" x="697" y="342" width="98" height="91" xlink:href="img/4.jpg"/>
<path d="M682.6,432.2H807.1V343.6H682.6v88.6Z" class="g3_223"/>
<image clip-path="url(#c5_223)" preserveAspectRatio="none" x="220" y="630" width="99" height="91" xlink:href="img/5.jpg"/>
<path d="M211.4,720.2H336V631.6H211.4v88.6Z" class="g3_223"/>
<image clip-path="url(#c6_223)" preserveAspectRatio="none" x="544" y="630" width="101" height="90" xlink:href="img/6.jpg"/>
<path d="M525.5,720.2H650V631.6H525.5v88.6Z" class="g3_223"/>
<image clip-path="url(#c7_223)" preserveAspectRatio="none" x="367" y="630" width="127" height="90" xlink:href="img/7.jpg"/>
<path d="M368.5,720.2H493V631.6H368.5v88.6Z" class="g3_223"/>
<image clip-path="url(#c8_223)" preserveAspectRatio="none" x="700" y="632" width="108" height="88" xlink:href="img/8.jpg"/>
<path d="M682.6,720.2H807.1V631.6H682.6v88.6Z" class="g3_223"/>
<image clip-path="url(#c9_223)" preserveAspectRatio="none" x="225" y="486" width="96" height="90" xlink:href="img/9.jpg"/>
<path d="M211.4,576.2H336V487.6H211.4v88.6Z" class="g3_223"/>
<image clip-path="url(#ca_223)" preserveAspectRatio="none" x="539" y="486" width="98" height="90" xlink:href="img/10.jpg"/>
<path d="M525.5,576.2H650V487.6H525.5v88.6Z" class="g3_223"/>
<image clip-path="url(#cb_223)" preserveAspectRatio="none" x="388" y="487" width="89" height="89" xlink:href="img/11.jpg"/>
<path d="M368.5,576.2H493V487.6H368.5v88.6Z" class="g3_223"/>
<image clip-path="url(#cc_223)" preserveAspectRatio="none" x="696" y="486" width="99" height="89" xlink:href="img/12.jpg"/>
<path d="M682.6,576.2H807.1V487.6H682.6v88.6Z" class="g3_223"/>
<path d="M193.2,596.8H846.3V469.2H193.2V596.8Z" class="g1_223"/>
<image clip-path="url(#cd_223)" preserveAspectRatio="none" x="225" y="478" width="96" height="90" xlink:href="img/13.jpg"/>
<path d="M211.4,568.6H336V480H211.4v88.6Z" class="g3_223"/>
<image clip-path="url(#ce_223)" preserveAspectRatio="none" x="539" y="478" width="98" height="91" xlink:href="img/14.jpg"/>
<path d="M525.5,568.6H650V480H525.5v88.6Z" class="g3_223"/>
<image clip-path="url(#cf_223)" preserveAspectRatio="none" x="388" y="479" width="89" height="89" xlink:href="img/15.jpg"/>
<path d="M368.5,568.6H493V480H368.5v88.6Z" class="g3_223"/>
<image clip-path="url(#cg_223)" preserveAspectRatio="none" x="696" y="479" width="99" height="89" xlink:href="img/16.jpg"/>
<path d="M682.6,568.6H807.1V480H682.6v88.6Z" class="g3_223"/>
<path d="M193.2,746.4H841.9V610.8H193.2V746.4Z" class="g1_223"/>
<image clip-path="url(#ch_223)" preserveAspectRatio="none" x="220" y="620" width="99" height="91" xlink:href="img/17.jpg"/>
<path d="M211.4,710.3H336V621.7H211.4v88.6Z" class="g3_223"/>
<image clip-path="url(#ci_223)" preserveAspectRatio="none" x="544" y="620" width="101" height="90" xlink:href="img/18.jpg"/>
<path d="M525.5,710.3H650V621.7H525.5v88.6Z" class="g3_223"/>
<image clip-path="url(#cj_223)" preserveAspectRatio="none" x="367" y="620" width="127" height="90" xlink:href="img/19.jpg"/>
<path d="M368.5,710.3H493V621.7H368.5v88.6Z" class="g3_223"/>
<image clip-path="url(#ck_223)" preserveAspectRatio="none" x="700" y="622" width="108" height="88" xlink:href="img/20.jpg"/>
<path d="M682.6,710.3H807.1V621.7H682.6v88.6Z" class="g3_223"/>
<path d="M200.5,474.9H824.2v-39H200.5v39Z" class="g1_223"/>
<path d="M200.5,612.4H824.2v-39H200.5v39Z" class="g1_223"/>
<path d="M200.5,754.2H824.2V715.3H200.5v38.9Z" class="g1_223"/>
<path d="M193.2,898.4H846.3V765.8H193.2V898.4Z" class="g1_223"/>
<image clip-path="url(#cl_223)" preserveAspectRatio="none" x="218" y="772" width="119" height="91" xlink:href="img/21.jpg"/>
<path d="M211.4,861.8H336V773.2H211.4v88.6Z" class="g3_223"/>
<image clip-path="url(#cm_223)" preserveAspectRatio="none" x="540" y="772" width="93" height="91" xlink:href="img/22.jpg"/>
<path d="M525.5,861.8H650V773.2H525.5v88.6Z" class="g3_223"/>
<image clip-path="url(#cn_223)" preserveAspectRatio="none" x="376" y="773" width="115" height="89" xlink:href="img/23.jpg"/>
<path d="M368.5,861.8H493V773.2H368.5v88.6Z" class="g3_223"/>
<image clip-path="url(#co_223)" preserveAspectRatio="none" x="698" y="772" width="90" height="87" xlink:href="img/24.jpg"/>
<path d="M682.6,861.8H807.1V773.2H682.6v88.6Z" class="g3_223"/>
<path d="M200.5,903.1H824.2V868.5H200.5v34.6Z" class="g1_223"/>
<path d="M166.7,1006.7c0,0,-13,0,-13,13v168.1c0,0,0,13,13,13H854.5c0,0,13,0,13,-13V1019.7c0,0,0,-13,-13,-13Z" class="g1_223"/>
<path d="M166.7,1006.7c0,0,-13,0,-13,13v168.1c0,0,0,13,13,13H854.5c0,0,13,0,13,-13V1019.7c0,0,0,-13,-13,-13H166.7Z" class="g2_223"/>
<image clip-path="url(#cp_223)" preserveAspectRatio="none" x="212" y="1064" width="102" height="92" xlink:href="img/25.jpg"/>
<image clip-path="url(#cq_223)" preserveAspectRatio="none" x="431" y="1064" width="101" height="92" xlink:href="img/26.jpg"/>
<image clip-path="url(#cr_223)" preserveAspectRatio="none" x="322" y="1064" width="92" height="92" xlink:href="img/27.jpg"/>
<image clip-path="url(#cs_223)" preserveAspectRatio="none" x="540" y="1064" width="92" height="92" xlink:href="img/28.jpg"/>
<path d="M212.9,1186.9H313.4v-30.7H212.9v30.7ZM431.2,1186.9H531.6v-30.7H431.2v30.7ZM322.1,1186.9H422.5v-30.7H322.1v30.7ZM540.3,1186.9H640.8v-30.7H540.3v30.7Z" class="g4_223"/>
<path d="M663.2,1092.4c0,0,-4.3,0,-4.3,4.3v14.8c0,0,0,4.3,4.1,5.8l52.4,18.5c0,0,4.1,1.4,4.1,-2.9v-36.2c0,0,0,-4.3,-4.3,-4.3Z" class="g5_223"/>
<path d="M684.4,1079.4c0,0,-13,0,-13,13v82.4c0,0,0,13,13,13H835c0,0,13,0,13,-13v-82.4c0,0,0,-13,-13,-13Z" class="g6_223"/>
<path d="M663.2,1090.2c0,0,-4.3,0,-4.3,4.4v17.3c0,0,0,4.3,4.3,4.3h37.3c0,0,4.3,0,4.3,-4.3v-17.3c0,0,0,-4.4,-4.3,-4.4Z" class="g7_223"/>
<path d="M430.6,1215.9c0,0,-4.4,0,-4.4,4.3V1231c0,0,0,4.3,4.4,4.3h30.3c0,0,4.3,0,4.3,-4.3v-10.8c0,0,0,-4.3,-4.3,-4.3Z" class="g8_223"/>
<path d="M417.4,1207v37.6m1.3,.9H866.8m.9,-1.3v-37.6m-1.3,-.9H418.3" class="g9_223"/>
<path d="M417.4,1245v.5h.6m449.1,0h.6v-.5m0,-38.8v-.5h-.6m-449.1,0h-.6v.5" class="ga_223"/>
<path d="M233.3,950.4c0,0,-13,0,-13,13v21.7c0,0,0,12.9,13,12.9H854.9c0,0,13,0,13,-12.9V963.4c0,0,0,-13,-13,-13Z" class="gb_223"/>
<image clip-path="url(#ct_223)" preserveAspectRatio="none" x="176" y="921" width="75" height="76" xlink:href="img/29.png"/>
<path d="M228.1,990.7c0,0,-26.8,11.3,-51.1,-12.8c0,0,15.2,25.3,49.3,24c0,0,24.8,.3,20.3,-10.1c0,0,1.2,-4.5,-18.5,-1.1Z" class="gb_223"/>
<path d="M231.8,277.2c0,0,-13,0,-13,13v21.6c0,0,0,13,13,13h602c0,0,13,0,13,-13V290.2c0,0,0,-13,-13,-13Z" class="gb_223"/>
<image clip-path="url(#cu_223)" preserveAspectRatio="none" x="175" y="247" width="75" height="77" xlink:href="img/30.png"/>
<path d="M226.6,317.5c0,0,-26.9,11.3,-51.1,-12.8c0,0,15.1,25.3,49.3,24c0,0,24.7,.3,20.2,-10.1c0,0,1.2,-4.5,-18.4,-1.1Z" class="gb_223"/>
<path d="M32.1,179.3H967.5V32.1H32.1V179.3Z" class="gc_223"/>
<g clip-path="url(#c0_223)">
<path d="M967.5,177.2H-877.3v-5.4h736.6c43.1,0,53.1,-37.9,115.3,-37.9H967.5Z" class="gd_223"/>
<path d="M967.5,183.7H-877.3v-9.8h736.6c43.1,0,53.1,-33.6,115.3,-33.6H967.5Z" class="ge_223"/>
</g>
<image clip-path="url(#cv_223)" preserveAspectRatio="none" x="659" y="59" width="200" height="118" xlink:href="img/31.png"/>
<path d="M153.3,217.5v22.2L165,250V227.8Z" class="gf_223"/>
<path d="M153.3,200.7v39H851.1c0,0,16.8,0,16.8,-16.8v-5.4c0,0,0,-16.8,-16.8,-16.8Z" class="g8_223"/>
<path d="M211.3,212.1l-6.5,-6.4l-21.2,21.2l6.5,6.4Z" class="gg_223"/>
<path d="M190.1,233.9c.1,0,.3,-.1,.4,-.2l21.2,-21.2c.1,-.1,.1,-.2,.1,-.4c0,-.1,0,-.2,-.1,-.3l-6.5,-6.5c-.2,-.2,-.6,-.2,-.8,0l-21.2,21.2c-.1,.1,-.1,.2,-.1,.4c0,.1,0,.2,.1,.3l6.5,6.5c.1,.1,.3,.2,.4,.2m20.5,-21.8l-20.5,20.5l-5.8,-5.7l20.5,-20.5Z" class="gh_223"/>
<path d="M211.3,212.1l-6.5,-6.4l2.1,-2.2l6.5,6.5Z" class="gi_223"/>
<path d="M211.3,212.7c.1,0,.3,-.1,.4,-.2l2.1,-2.1c.1,-.1,.2,-.2,.2,-.4c0,-.1,-.1,-.3,-.2,-.4l-6.5,-6.4c-.2,-.3,-.5,-.3,-.7,0l-2.2,2.1c-.1,.1,-.1,.2,-.1,.4c0,.1,0,.2,.1,.3l6.5,6.5c.1,.1,.3,.2,.4,.2m1.4,-2.7l-1.4,1.4l-5.7,-5.7l1.3,-1.4Z" class="gh_223"/>
<path d="M217,206.4l-6.4,-6.5l-3.7,3.6l6.5,6.5Z" class="gj_223"/>
<path d="M213.4,210.5c.2,0,.3,0,.4,-.1l3.6,-3.6c.2,-.2,.2,-.6,0,-.8l-6.5,-6.5c-.2,-.2,-.5,-.2,-.7,0l-3.6,3.7c-.2,.2,-.2,.5,0,.7l6.5,6.5c.1,.1,.2,.1,.3,.1m2.9,-4.1l-2.9,2.9l-5.7,-5.8l2.9,-2.8Z" class="gh_223"/>
<path d="M179,238l4.6,-11.1l6.5,6.4Z" class="g1_223"/>
<path d="M179,238.5c0,0,.1,0,.2,0l11.1,-4.7c.2,0,.3,-.2,.3,-.4c0,-.1,0,-.3,-.1,-.4L184,226.5c-.1,-.1,-.3,-.2,-.5,-.1c-.2,0,-.3,.1,-.4,.3l-4.6,11.1c-.1,.2,0,.4,.1,.6c.1,.1,.2,.1,.4,.1m10.2,-5.3l-9.3,3.8l3.9,-9.2Z" class="gh_223"/>
<path d="M179,238l2.2,-5.4l3.1,3.1Z" class="gh_223"/>
<path d="M179,238.5c0,0,.1,0,.2,0l5.3,-2.3c.2,0,.3,-.2,.4,-.4c0,-.1,-.1,-.3,-.2,-.4l-3.1,-3.2c-.1,-.1,-.3,-.1,-.5,-.1c-.2,0,-.3,.2,-.4,.3l-2.2,5.4c-.1,.2,0,.4,.1,.6c.1,.1,.2,.1,.4,.1m4.4,-2.9l-3.5,1.4l1.5,-3.5Z" class="gh_223"/>
<path d="M209.5,210.4l-2.9,-3l-21.2,21.2l2.9,3Z" class="gk_223"/>
<path d="M188.3,232.1c.2,0,.3,0,.4,-.1l21.2,-21.2c.1,-.1,.2,-.3,.2,-.4c0,-.2,-.1,-.3,-.2,-.4l-3,-3c-.2,-.2,-.5,-.2,-.7,0L185,228.3c-.1,.1,-.2,.2,-.2,.3c0,.2,.1,.3,.2,.4l3,3c.1,.1,.2,.1,.3,.1m20.5,-21.7l-20.5,20.4l-2.2,-2.2l20.5,-20.4Z" class="gh_223"/>
<path d="M32.1,45.1H9.2m958.3,0h22.9M32.1,1331.3H9.2m958.3,0h22.9M45.1,32.1V9.2m0,1335.1v22.9M954.5,32.1V9.2m0,1335.1v22.9" class="gl_223"/>
<path d="M32.1,45.1H9.2m958.3,0h22.9M32.1,1331.3H9.2m958.3,0h22.9M45.1,32.1V9.2m0,1335.1v22.9M954.5,32.1V9.2m0,1335.1v22.9" class="gm_223"/>
<path d="M27.5,32.1H0m972.1,0h27.5M27.5,1344.3H0m972.1,0h27.5M32.1,27.5V0m0,1348.9v27.5M967.5,27.5V0m0,1348.9v27.5" class="gl_223"/>
<path d="M27.5,32.1H0m972.1,0h27.5M27.5,1344.3H0m972.1,0h27.5M32.1,27.5V0m0,1348.9v27.5M967.5,27.5V0m0,1348.9v27.5" class="gm_223"/>
</svg>