<?xml version="1.0" encoding="UTF-8" standalone="no"?>
<!DOCTYPE svg PUBLIC "-//W3C//DTD SVG 1.1//EN"
"http://www.w3.org/Graphics/SVG/1.1/DTD/svg11.dtd">
<svg viewBox="0 0 999 1376" version="1.1" xmlns="http://www.w3.org/2000/svg" xmlns:xlink="http://www.w3.org/1999/xlink">
<defs>
<clipPath id="c0_222"><path d="M32.1,1344.3V32.1H967.5V1344.3Z"/></clipPath>
<clipPath id="c1_222"><path d="M682.1,844.2V614.3H926.8V844.2Z"/></clipPath>
<clipPath id="c2_222"><path d="M687.8,837.6v-214H918.3v214Z"/></clipPath>
<clipPath id="c3_222"><path d="M687.5,837.3v-214H916.9v214Z"/></clipPath>
<clipPath id="c4_222"><path d="M78.1,907V654H310.2V907Z"/></clipPath>
<clipPath id="c5_222"><path d="M82.4,903.5V657.1H309.6V903.5Z"/></clipPath>
<clipPath id="c6_222"><path d="M82.1,903.2V656.8H309.3V903.2Z"/></clipPath>
<clipPath id="c7_222"><path d="M176.6,1044.3l-6.5,-2.2l-16.4,-13.9V971.1h72v73.2Z"/></clipPath>
<clipPath id="c8_222"><path d="M176.6,539.6l-6.5,-2.1L153.7,523.6V466.5h72v73.1Z"/></clipPath>
<clipPath id="c9_222"><path d="M797.7,642.4c-.3,-.1,3.5,-8.2,3.5,-8.2l.8,.5c0,0,-4.1,7.7,-4.3,7.7Z"/></clipPath>
<clipPath id="ca_222"><path d="M805.2,634.7c0,0,-6.9,-1.1,-7.6,-5.3c-.7,-3.6,1.5,-3.8,2.1,-3.8c0,0,.1,0,.1,0l8.3,-12.7l-1.5,-3.1c0,0,-.6,-1.1,.2,-2.1c0,-.1,.1,-.1,.3,-.1c2.1,0,12.9,5.6,12.9,5.6l.1,.1c-.4,.5,-.7,1.2,-1.4,1.7c-.7,.4,-5.1,1.1,-5.1,1.1l-8.4,18.6Z"/></clipPath>
<clipPath id="cb_222"><path d="M804.7,634.3c.3,-.5,.3,-1.8,0,-2.3v-1.3c-1.5,-.6,-2.8,-1.3,-3.6,-2.6c-1.1,.6,-2.1,1.3,-3.1,1.9c1.5,2.2,3.8,3.6,6.7,4.3Zm0,-3.9c2.2,-4.5,4,-9.5,6.2,-14.1c-.9,-.4,-1.8,-1.3,-2.6,-1.3c-2.3,4.3,-4.6,8.6,-7.1,12.8c.8,1.3,2.1,2,3.5,2.6Zm-7.2,12.1c1,-2.9,2.4,-5.5,3.5,-8.3c-2,-1.6,-3.9,-3.1,-4.4,-6.2v-1.5c-.1,-2.7,1.9,-3.4,4.6,-3.4c0,0,.1,0,.2,0c1.9,-3.3,4.2,-6.3,6.1,-9.7c-.6,-.8,-1.1,-2.3,-.9,-3.6c.5,1.2,1.7,1.9,2.4,2.9c-.1,.6,-.3,1.1,-.4,1.7c.6,.7,1.4,1.2,2.4,1.4c.5,-.4,.5,-1.2,1.2,-1.5c.9,.4,1.8,.8,3.1,.8c.1,.1,.5,.1,.8,.1c.4,0,.7,0,.8,-.1c.1,0,.3,0,.3,0c.3,0,.5,0,.7,-.1c.2,-.1,.3,-.2,.5,-.2c.1,0,.2,.1,.3,.2c-1.3,.6,-2.2,1.7,-4.2,1.7c-.1,0,-.2,0,-.3,0c-.9,3.8,-1.9,7.4,-2.7,11.2c.6,1.1,1.5,1.7,1.3,3.1c-.5,2.8,-3.9,4.4,-7.2,4.4c-1.3,0,-2.5,-.2,-3.6,-.7c-1,2.1,-2.1,4.1,-3.3,6c0,-.4,.3,-.4,.3,-.7c.9,-1.9,1.9,-3.6,2.6,-5.7c-1,1.7,-1.8,3.7,-2.7,5.5c-.3,.5,-.5,.9,-.7,1.3c-.3,.4,-.3,1.1,-.7,1.4Z"/></clipPath>
<clipPath id="cc_222"><path d="M815.2,614.7c-4.8,0,-13.1,-7.3,-5.5,-8.8h1.2c.2,.1,.4,.1,.7,.1c0,0,.1,0,.1,0c.3,0,.6,0,1,0c3,.7,8.2,3.8,7.5,7.1c-.2,1.1,-1.5,1.6,-3.1,1.6h-1.8c0,0,-.1,0,-.1,0Z"/></clipPath>
<clipPath id="cd_222"><path d="M196.4,675.5c-.2,-.1,3.6,-8.2,3.6,-8.2l.8,.5c0,0,-4.1,7.7,-4.4,7.7Z"/></clipPath>
<clipPath id="ce_222"><path d="M203.9,667.8c0,0,-6.8,-1.1,-7.6,-5.3c-.6,-3.6,1.6,-3.8,2.1,-3.8c.1,0,.2,0,.2,0L206.9,646l-1.5,-3.1c0,0,-.6,-1.1,.1,-2.1c.1,0,.2,-.1,.4,-.1c2.1,0,12.9,5.6,12.9,5.6l.1,.1c-.4,.5,-.8,1.2,-1.4,1.7c-.7,.5,-5.1,1.1,-5.1,1.1l-8.5,18.6Z"/></clipPath>
<clipPath id="cf_222"><path d="M203.5,667.4c.2,-.5,.2,-1.8,0,-2.3v-1.3c-1.5,-.6,-2.9,-1.3,-3.6,-2.5c-1.1,.5,-2.2,1.2,-3.2,1.8c1.6,2.2,3.9,3.6,6.8,4.3Zm0,-3.9c2.2,-4.5,4,-9.5,6.2,-14.1c-.9,-.3,-1.9,-1.3,-2.7,-1.3c-2.3,4.3,-4.6,8.6,-7,12.8c.7,1.3,2.1,2,3.5,2.6Zm-7.3,12.1c1.1,-2.9,2.4,-5.5,3.6,-8.3c-2,-1.6,-4,-3.1,-4.4,-6.2v-1.5c-.1,-2.7,1.9,-3.4,4.5,-3.4c.1,0,.2,0,.2,0c2,-3.3,4.2,-6.3,6.2,-9.6c-.6,-.9,-1.2,-2.4,-.9,-3.7c.5,1.3,1.6,1.9,2.4,2.9c-.1,.6,-.3,1.1,-.4,1.8c.6,.6,1.3,1.1,2.4,1.3c.5,-.4,.5,-1.2,1.1,-1.5c1,.4,1.9,.8,3.2,.8c.1,.1,.4,.1,.8,.1c.3,0,.7,0,.8,-.1c.1,0,.2,0,.3,0c.2,0,.4,0,.6,-.1c.2,-.1,.4,-.1,.6,-.1c.1,0,.2,0,.3,.1c-1.3,.6,-2.2,1.7,-4.2,1.7c-.1,0,-.2,0,-.4,0c-.8,3.8,-1.8,7.4,-2.6,11.2c.5,1.1,1.5,1.7,1.3,3.1c-.5,2.8,-3.9,4.4,-7.2,4.4c-1.3,0,-2.6,-.2,-3.6,-.7c-1,2.1,-2.1,4.1,-3.3,6c0,-.3,.3,-.4,.2,-.7c1,-1.8,2,-3.6,2.7,-5.7c-1.1,1.7,-1.8,3.7,-2.8,5.5c-.2,.5,-.4,.9,-.6,1.3c-.3,.4,-.3,1.1,-.8,1.4Z"/></clipPath>
<clipPath id="cg_222"><path d="M214,647.8c-4.8,0,-13.1,-7.3,-5.6,-8.8h1.3c.1,.1,.3,.1,.5,.1q.1,0,.2,0c0,0,.1,0,.2,0c.2,0,.5,0,.8,0c3.1,.7,8.3,3.8,7.6,7.1c-.3,1.1,-1.6,1.6,-3.2,1.6h-1.7q-.1,0,-.1,0Z"/></clipPath>
<clipPath id="ch_222"><path d="M764.8,434.8V422.4h14.5v12.4Z"/></clipPath>
<clipPath id="ci_222"><path d="M125.5,386.7V205.8H858.6V386.7Z"/></clipPath>
<style type="text/css"><![CDATA[
.g0_222{
fill: #FEFCF4;
}
.g1_222{
fill: #FFF;
}
.g2_222{
fill: none;
stroke: #6381B7;
stroke-width: 0.763;
}
.g3_222{
fill: none;
stroke: #818385;
stroke-width: 0.305;
stroke-dasharray: 4,4;
}
.g4_222{
fill: none;
stroke: #818385;
stroke-width: 0.305;
}
.g5_222{
fill: #F7C2D9;
}
.g6_222{
fill: #FDF4F3;
}
.g7_222{
fill: #EC008C;
}
.g8_222{
fill: none;
stroke: #949698;
stroke-width: 0.305;
stroke-dasharray: 3,3;
}
.g9_222{
fill: none;
stroke: #949698;
stroke-width: 0.305;
stroke-dasharray: 4,4;
}
.ga_222{
fill: none;
stroke: #949698;
stroke-width: 0.305;
}
.gb_222{
fill: #6D6F71;
}
.gc_222{
fill: #6381B7;
}
.gd_222{
fill: none;
stroke: #6381B7;
stroke-width: 0.381;
stroke-dasharray: 2,1;
}
.ge_222{
fill: none;
stroke: #6381B7;
stroke-width: 0.381;
}
.gf_222{
fill: #FCE8B0;
}
.gg_222{
fill: #2E6E51;
}
.gh_222{
fill: none;
stroke: #FFF;
stroke-width: 0.152;
stroke-miterlimit: 1;
}
.gi_222{
fill: #BCBEC0;
}
.gj_222{
fill: #EE314A;
}
.gk_222{
fill: #25408F;
}
.gl_222{
fill: #A8AAAD;
}
.gm_222{
fill: none;
stroke: #949698;
stroke-width: 0.549;
}
.gn_222{
fill: none;
stroke: #BCBEC0;
stroke-width: 2.566;
}
.go_222{
fill: #231F20;
}
.gp_222{
fill: #363637;
}
.gq_222{
fill: #5CC4BE;
}
.gr_222{
fill: #EAD646;
}
.gs_222{
fill: #CEEDFB;
}
.gt_222{
fill: #27639D;
}
.gu_222{
fill: none;
stroke: #204A78;
stroke-width: 1.527;
}
.gv_222{
fill: none;
stroke: #FFF;
stroke-width: 1.909;
stroke-miterlimit: 10;
}
.gw_222{
fill: none;
stroke: #000;
stroke-width: 0.381;
stroke-miterlimit: 10;
}
]]></style>
</defs>
<path d="M32.1,1344.3H954.5V32.1H32.1V1344.3Z" class="g0_222"/>
<path clip-path="url(#c0_222)" d="M954.5,1344.3H1877V32.1H954.5V1344.3Z" class="g0_222"/>
<path d="M150.4,440.5c0,0,-18.3,0,-18.3,18.3V905.7c0,0,0,18.4,18.3,18.4H827.5c0,0,18.4,0,18.4,-18.4V440.5Z" class="g1_222"/>
<path d="M150.4,440.5c0,0,-18.3,0,-18.3,18.3V905.7c0,0,0,18.4,18.3,18.4H827.5c0,0,18.4,0,18.4,-18.4V440.5H150.4Z" class="g2_222"/>
<path d="M469.6,666.3c20,-.8,36.1,-6.6,39.7,-14m-.8,-7.6c-5,-6.9,-21.1,-12,-40.6,-12.6m-8,.1c-20,.8,-36.2,6.5,-39.8,13.9m.9,7.6c4.9,6.9,21,12.1,40.5,12.6" class="g3_222"/>
<path d="M509.8,650.8c.2,-.5,.2,-1,.2,-1.6c0,-.5,0,-1,-.2,-1.6M466.3,632.1c-.5,0,-1,0,-1.6,0c-.5,0,-1.1,0,-1.6,0m-43.5,15.5c-.1,.6,-.2,1.1,-.2,1.6c0,.6,.1,1.1,.2,1.6m43.5,15.5c.5,.1,1.1,.1,1.6,.1c.6,0,1.1,0,1.6,-.1" class="g4_222"/>
<image clip-path="url(#c1_222)" preserveAspectRatio="none" x="681" y="615" width="246" height="230" xlink:href="img/1.png"/>
<path d="M686.8,644.9l24.1,193.3L920.5,813.5L897.6,619Z" class="g5_222"/>
<image clip-path="url(#c2_222)" preserveAspectRatio="none" x="688" y="624" width="230" height="214" xlink:href="img/2.png"/>
<image clip-path="url(#c3_222)" preserveAspectRatio="none" x="688" y="624" width="229" height="214" xlink:href="img/3.png"/>
<path d="M692.2,635.5l7.5,195.4l180.2,-6.3l30.9,-34.2L904.5,628.1Z" class="g6_222"/>
<path d="M881.4,824.4l31,-33.9l-16.8,-3.6Z" class="g7_222"/>
<image clip-path="url(#c4_222)" preserveAspectRatio="none" x="78" y="654" width="232" height="253" xlink:href="img/4.png"/>
<path d="M83,666.2L94.3,901.1l209.9,-10l-9,-232.3Z" class="g5_222"/>
<image clip-path="url(#c5_222)" preserveAspectRatio="none" x="82" y="658" width="227" height="246" xlink:href="img/5.png"/>
<image clip-path="url(#c6_222)" preserveAspectRatio="none" x="82" y="658" width="227" height="246" xlink:href="img/6.png"/>
<path d="M90.5,661.9L87.3,895.2l178.8,2l34.1,-28.5l2.7,-203.1Z" class="g6_222"/>
<path d="M267.7,895.9l32.8,-26.3l-11.2,-5.2Z" class="g7_222"/>
<path d="M512.3,864.3c44.1,-.4,80.1,-6.5,86.9,-14.4m-1.1,-6.5c-9,-7.5,-44.5,-13.1,-87.3,-13.3m-7.6,0c-44.1,.4,-80.1,6.5,-87,14.4m1.1,6.4c9.1,7.5,44.6,13.1,87.4,13.4" class="g3_222"/>
<path d="M600.1,848.6c.2,-.4,.3,-.9,.3,-1.4c0,-.5,-.1,-1,-.3,-1.5M509.2,830c-.5,0,-1,0,-1.5,0c-.5,0,-1,0,-1.5,0m-90.8,15.7c-.2,.5,-.3,1,-.3,1.5c0,.5,.1,1,.3,1.4m90.8,15.7c.5,0,1,0,1.5,0c.5,0,1,0,1.5,0" class="g4_222"/>
<path d="M512.9,867.7c-15,10.9,-73.2,50.9,-112.8,46.9" class="g8_222"/>
<path d="M394,911c-2.4,-3.5,-2.7,-8.8,15.2,-10.5" class="g9_222"/>
<path d="M415.3,902.7c.7,1,1.2,2.2,.8,3.7m-4.9,4.9c-8.7,5.1,-34.3,15.5,-92.2,9.4m-7.4,-1c-13.4,-2.2,-54.1,-9.6,-84.8,-25.2" class="g8_222"/>
<path d="M516.5,865.1c0,0,-.5,.3,-1.2,.9M398.6,914.4c-.5,0,-1,-.1,-1.5,-.2c0,0,-.5,-.3,-1.1,-.9m14.7,-12.9c.4,0,.9,-.1,1.5,-.1c0,0,.5,.2,1.1,.7m2.3,6.7c-.2,.3,-.4,.7,-.7,1.1c0,0,-.4,.3,-1.2,.9m-96.2,10.8c-.5,0,-1,-.1,-1.5,-.1c0,0,-.5,-.1,-1.4,-.3M225.5,893.8c-.5,-.3,-.9,-.5,-1.3,-.7" class="ga_222"/>
<path d="M233.6,890.8l-11,7.9l-6.9,-15.2Z" class="gb_222"/>
<path d="M145.5,962.5c0,0,-13,0,-13,13v150.8c0,0,0,13,13,13H833.3c0,0,13,0,13,-13V975.5c0,0,0,-13,-13,-13Z" class="g1_222"/>
<path d="M145.5,962.5c0,0,-13,0,-13,13v150.8c0,0,0,13,13,13H833.3c0,0,13,0,13,-13V975.5c0,0,0,-13,-13,-13H145.5Z" class="g2_222"/>
<path d="M553,1155.7c0,0,-4.3,0,-4.3,4.3v10.9c0,0,0,4.3,4.3,4.3h30.3c0,0,4.4,0,4.4,-4.3V1160c0,0,0,-4.3,-4.4,-4.3Z" class="gc_222"/>
<path d="M539.8,1148.2v54.9m1.4,.9H845.1m1,-1.3v-54.9m-1.4,-.9H540.8" class="gd_222"/>
<path d="M539.8,1203.5v.5h.6m305.1,0h.6v-.5m0,-56.1v-.5h-.6m-305.1,0h-.6v.5" class="ge_222"/>
<path d="M209.2,999.3c0,0,-13,0,-13,13v21.6c0,0,0,13,13,13h602c0,0,13,0,13,-13v-21.6c0,0,0,-13,-13,-13Z" class="gf_222"/>
<image clip-path="url(#c7_222)" preserveAspectRatio="none" x="152" y="970" width="75" height="76" xlink:href="img/7.png"/>
<path d="M204,1039.5c0,0,-26.8,11.3,-51.1,-12.7c0,0,15.2,25.3,49.3,23.9c0,0,24.8,.4,20.3,-10.1c0,0,1.2,-4.4,-18.5,-1.1Z" class="gf_222"/>
<path d="M209.2,468.7c0,0,-13,0,-13,13v47.6c0,0,0,13,13,13h602c0,0,13,0,13,-13V481.7c0,0,0,-13,-13,-13Z" class="gf_222"/>
<image clip-path="url(#c8_222)" preserveAspectRatio="none" x="152" y="465" width="75" height="76" xlink:href="img/8.png"/>
<path d="M204,534.9c0,0,-26.8,11.3,-51.1,-12.7c0,0,15.2,25.3,49.3,23.9c0,0,24.8,.4,20.3,-10.1c0,0,1.2,-4.4,-18.5,-1.1Z" class="gf_222"/>
<image clip-path="url(#c9_222)" x="797" y="634" width="5" height="9" xlink:href="shade/1.png"/>
<image clip-path="url(#ca_222)" x="796" y="607" width="25" height="28" xlink:href="shade/2.png"/>
<image clip-path="url(#cb_222)" x="796" y="609" width="23" height="34" xlink:href="shade/3.png"/>
<image clip-path="url(#cc_222)" x="802" y="605" width="19" height="10" xlink:href="shade/4.png"/>
<path d="M716.8,640l-12.1,-2.4l3.8,-6.5Z" class="gb_222"/>
<path d="M468.8,630c13,-6.1,54.1,-23.5,86.5,-18.7m6.1,3.9c.9,2.3,-.9,5,-14.2,5.1m-.5,-7.7c8.8,-2.9,31.9,-7.6,79.7,-.4m7.7,1.2c12.3,2.1,45.9,8.5,70.9,20.3" class="g9_222"/>
<path d="M464.7,631.9c0,0,.5,-.2,1.4,-.6m90.7,-19.7c.5,.1,1,.1,1.5,.2c0,0,.5,.4,1.2,1m-13.8,7.5c-.5,0,-1,0,-1.6,0c0,0,-.8,-.4,-1.7,-1m-1.3,-3.4c.2,-.5,.6,-1,1.3,-1.5c0,0,.4,-.2,1.4,-.7m84.1,-1.2c.6,0,1.1,.1,1.6,.2c0,0,.5,.1,1.5,.2m75.4,21.5c.5,.3,1,.5,1.4,.7" class="ga_222"/>
<image clip-path="url(#cd_222)" x="196" y="667" width="5" height="9" xlink:href="shade/5.png"/>
<image clip-path="url(#ce_222)" x="195" y="640" width="24" height="28" xlink:href="shade/6.png"/>
<image clip-path="url(#cf_222)" x="195" y="642" width="23" height="34" xlink:href="shade/7.png"/>
<image clip-path="url(#cg_222)" x="200" y="639" width="20" height="9" xlink:href="shade/8.png"/>
<path d="M32.1,179.3H967.5V32.1H32.1V179.3Z" class="gg_222"/>
<path d="M260.9,147.8v-12c0,-.4,-.3,-.8,-.8,-1.2c-.5,-.5,-1,-.7,-1.4,-.7c-.6,0,-1.2,.1,-1.8,.5c-.6,.3,-1.2,.7,-1.7,1.2c-1.1,1.2,-1.6,2.4,-1.6,3.7c0,.6,.2,1.1,.5,1.5c.4,.4,.9,.6,1.5,.6c.5,0,.9,-.2,1.2,-.4c.3,-.3,.5,-.6,.5,-1.1c0,-.9,-.3,-1.3,-.9,-1.3c-.3,0,-.5,0,-.9,0c.1,-.4,.3,-.8,.5,-1.1c.2,-.4,.4,-.8,.7,-1.2c.4,-.4,.7,-.7,1.1,-.9c.3,-.2,.7,-.3,1,-.3c.6,0,.9,.1,.9,.3v9.1c-1.2,-.9,-2.3,-1.4,-3.6,-1.4H255c-.2,0,-.5,0,-.7,0h-.5c-.5,0,-.9,0,-1.3,-.1c-.4,-.1,-.7,-.2,-1,-.3c-.3,-.2,-.5,-.5,-.7,-.9c-.2,-.4,-.3,-.8,-.3,-1.3c0,-.6,.1,-1.1,.2,-1.5c.1,-.4,.3,-.8,.5,-1.2l-.4,-.4c-.4,.4,-.6,.8,-.8,1.3c-.2,.6,-.3,1.2,-.3,1.8c0,3,1.5,4.5,4.4,4.5c.2,0,.5,0,.8,0c.3,0,.6,-.1,1.1,-.1c.8,-.1,1.4,-.2,1.8,-.2c.7,0,1.3,.3,1.8,.8c.1,.2,.2,.4,.3,.6c.1,.3,.2,.6,.4,.9c.1,.4,.2,.7,.4,.8h.2Zm12.8,-12.6L272.5,134h-.7c0,-1.1,-.2,-2,-.6,-2.6c-.5,-.6,-1.3,-.9,-2.4,-.9c-.4,0,-.8,.1,-1.5,.1c-.3,.1,-.6,.1,-.9,.1c-.2,0,-.4,0,-.6,0c-.5,0,-.9,-.1,-1.3,-.3c-.4,-.2,-.6,-.6,-.6,-1.1c0,-.2,.1,-.4,.3,-.6c0,-.1,0,-.2,-.1,-.2c0,-.1,0,-.2,0,-.2c-.6,0,-.9,.5,-.9,1.4c0,.9,.5,1.6,1.3,2c.8,.5,1.6,.7,2.5,.7c.2,0,.3,0,.5,0c.2,-.1,.4,-.1,.6,-.1c.5,-.1,.9,-.1,1.1,-.1c1,0,1.5,.3,1.5,1c0,.2,0,.3,0,.4c0,.2,0,.3,0,.4h-9.1l1.1,1.2h1.9v8c.2,.9,.5,1.6,.9,2c.5,.5,1.1,.7,1.8,.7c1.2,0,2.3,-.6,3.3,-1.8c1,-1.2,1.5,-2.3,1.5,-3.5c0,-.4,-.1,-.7,-.2,-1.1c-.1,-.3,-.2,-.6,-.4,-.9c-.4,-.7,-1,-1,-1.6,-1c-.5,0,-.9,.2,-1.1,.5c-.3,.3,-.5,.7,-.5,1.1c0,.4,.2,.8,.5,1c.3,.3,.7,.4,1.1,.4h.4c-.1,.8,-.5,1.6,-1.2,2.5c-.7,.8,-1.5,1.3,-2.2,1.3c-.5,0,-.9,-.3,-1.1,-.8v-8.4h7.9Zm4.6,0L277.2,134h-1.1c-.4,-.4,-.6,-1,-.7,-1.9l-.5,-.3c0,.2,0,.5,0,.9c.1,.3,.1,.7,.1,1.2c.1,.5,.1,.9,.1,1.3c0,.3,0,.6,0,.9c-.2,-.8,-.5,-1.3,-.9,-1.6c-.4,-.3,-1,-.5,-1.7,-.5h-1.4l1.2,1.2c.3,0,.7,.1,1,.2c.3,.1,.6,.3,.8,.5c.3,.2,.5,.4,.6,.7c.2,.3,.2,.7,.2,1v8.9l1.2,1.2V135.2h2.2ZM296.1,134H284l1.2,1.2h4.3c.6,.4,.8,.7,.8,1c-.7,0,-1.4,.3,-1.9,.8c-.6,.5,-.9,1.1,-.9,1.8c0,.4,.2,.7,.5,.9c.3,.2,.6,.3,1,.3c.5,0,1,-.2,1.5,-.7c.5,-.5,.8,-1,.8,-1.6c.1,0,.2,-.1,.3,-.1c.1,0,.3,0,.4,0c.2,0,.4,.1,.6,.2c.2,.1,.3,.2,.5,.4c.1,.2,.3,.4,.3,.7c.1,.2,.2,.5,.2,.7c0,.8,-.5,1.5,-1.5,2c-.7,.3,-1.5,.5,-2.4,.4c-1.3,-.1,-2.4,-.4,-3.4,-1l1.5,3c.8,.2,1.7,.5,2.6,.9c.8,.3,1.7,.7,2.5,1.2c.8,.5,1.6,1,2.3,1.5c.7,.6,1.3,1.2,1.9,1.9l-.3,-1.3c-1.1,-1.1,-2.1,-2,-3,-2.8c-.9,-.8,-1.8,-1.4,-2.6,-1.9c1.2,-.3,2.1,-.7,2.7,-1.2c.8,-.6,1.2,-1.4,1.2,-2.4c0,-1,-.3,-1.8,-1,-2.5c-.4,-.5,-1.2,-.9,-2.4,-1.3c-.1,-.2,-.2,-.3,-.3,-.5c-.2,-.1,-.3,-.2,-.4,-.4h6.3L296.1,134Zm5.2,1.2L300.2,134h-1.1c-.4,-.4,-.6,-1,-.8,-1.9l-.4,-.3c0,.2,0,.5,0,.9c.1,.3,.1,.7,.1,1.2c0,.5,.1,.9,.1,1.3c0,.3,0,.6,0,.9c-.2,-.8,-.6,-1.3,-1,-1.6c-.3,-.3,-.9,-.5,-1.6,-.5h-1.4l1.2,1.2c.3,0,.7,.1,1,.2c.3,.1,.6,.3,.8,.5c.3,.2,.5,.4,.6,.7c.2,.3,.2,.7,.2,1v8.9l1.2,1.2V135.2h2.2Zm11.2,0L311.2,134H299.6l1.2,1.2h8.4v6.6h-.1c-1.2,-2.6,-2.7,-4,-4.4,-4c-.8,0,-1.5,.3,-2.1,.9c-.6,.5,-.9,1.2,-.9,2c0,1.5,.8,2.2,2.4,2.2c.5,0,.9,-.2,1.2,-.5c.3,-.4,.4,-.8,.4,-1.3c0,-.3,-.3,-.8,-.8,-1.5c.1,-.1,.2,-.1,.4,-.1c1.2,0,2.3,.8,3.3,2.5c.6,1.4,.9,2.9,.9,4.2l-.1,1.3l1,.6V135.2h2.1Zm9.3,-1.2l-.9,2.7c-.1,-.3,-.3,-.6,-.5,-.9c-.2,-.3,-.5,-.6,-.7,-.8c-.3,-.2,-.6,-.4,-1,-.5c-.3,-.1,-.6,-.1,-1,-.1c-.6,0,-1.3,.3,-1.9,.8c-.6,.6,-.9,1.3,-.9,1.9c0,.7,.3,1.1,.9,1.1c.2,0,.4,-.1,.5,-.1c.2,-.1,.4,-.1,.6,-.2c.2,-.1,.4,-.1,.6,-.2c.2,0,.3,-.1,.4,-.1c.3,0,.4,.1,.4,.3c-.1,.4,-.5,.8,-1,1.3c-.1,.1,-.3,.2,-.5,.4c-.2,.2,-.5,.3,-.8,.5l1.5,1.3c1.4,-1.2,2.1,-2.2,2.1,-3.1c0,-.4,-.2,-.8,-.7,-1.2c-.4,-.3,-.8,-.4,-1.3,-.4c-.3,0,-.6,.1,-1,.2c.4,-.7,1,-1,1.9,-1c.7,0,1.2,.3,1.6,.8c.4,.5,.7,1.2,.8,2.1l1.3,-1.9c.3,.1,.6,.6,.9,1.2c.3,.7,.4,1.2,.4,1.6c0,.3,-.2,.5,-.6,.8c0,0,-.1,0,-.1,-.1c-.1,0,-.3,-.1,-.4,-.2c-.2,0,-.5,0,-.7,0c-.5,0,-.8,.1,-1.1,.4c-.2,.3,-.3,.6,-.3,1c0,.4,.2,.7,.5,1.1c.3,.3,.7,.4,1.1,.4c.3,0,.7,-.1,1,-.3c0,0,0,.1,0,.2v.2c0,.2,0,.4,-.2,.6c-.1,.2,-.2,.4,-.5,.5c-.2,.1,-.4,.2,-.6,.2c-.3,.1,-.6,.1,-.8,.1c-2,0,-3.7,-1,-5,-3c-.4,-.8,-.8,-1.6,-1.2,-2.6c-.4,-1,-.7,-2.1,-.9,-3.2l-.9,-.5c.2,1.3,.5,2.6,.8,3.8c.4,1.2,.9,2.3,1.4,3.3c.7,1.3,1.6,2.3,2.5,3c1,.8,2,1.1,3.1,1.1c1,0,1.7,-.2,2.3,-.7c.6,-.5,.8,-1.2,.8,-2.1c0,-.6,-.2,-1.2,-.6,-1.8c.9,-.6,1.4,-1.2,1.4,-1.7c0,-.9,-.9,-3,-2.7,-6.2Zm18.3,1.2L338.9,134H323.8l1.2,1.2h7.8v1c-2.6,.8,-5,2.1,-7,3.7l1.7,2.1c1.3,.1,2.6,.7,3.6,1.8c.5,.5,.9,1,1.3,1.6c.4,.7,.8,1.3,1,2q.1,.1,.2,.2c.1,0,.2,.1,.3,.1v-10c1.2,0,2.1,.3,2.8,1c.6,.7,.9,1.4,.9,2.2l-.1,.3c-.1,-.2,-.3,-.3,-.5,-.4c-.2,-.2,-.4,-.2,-.6,-.2c-.4,0,-.8,.1,-1,.4c-.3,.2,-.5,.5,-.5,.9c0,.2,.1,.4,.2,.6c.1,.2,.2,.3,.3,.5c.2,.1,.4,.2,.5,.3c.2,.1,.4,.1,.6,.1c.3,0,.6,-.1,.8,-.2c.3,-.1,.5,-.3,.6,-.5c.2,-.2,.3,-.4,.4,-.7c.1,-.3,.2,-.5,.2,-.8c0,-1.3,-.4,-2.4,-1.2,-3.4c-.9,-1.2,-2,-1.7,-3.4,-1.7v-.9h6.2Zm-7.4,9.1c-1,-1.8,-2.5,-3.1,-4.5,-4c.8,-.5,1.6,-1,2.3,-1.4c.7,-.4,1.5,-.8,2.2,-1.1v6.5ZM358.5,134c-.5,-.1,-.8,-.2,-1,-.6c0,-.1,0,-.2,-.1,-.5c0,-.2,0,-.5,0,-.7l-.7,-.4v12.3c-.8,-1.4,-2,-2.5,-3.8,-3.4c.7,-.2,1.4,-.6,1.9,-1.2c.6,-.6,.9,-1.3,.9,-2c0,-.7,-.3,-1.3,-.9,-1.9c-.1,-.1,-.2,-.2,-.5,-.5c-.3,-.3,-.7,-.6,-1.1,-1c-.3,.3,-.6,.5,-.8,.8c-.2,.2,-.4,.3,-.4,.4c-.2,.2,-.5,.3,-.7,.5c-.3,.1,-.5,.2,-.8,.2c0,-.7,-.4,-1.1,-1.1,-1.1c-.4,0,-.7,.2,-1,.4c-.2,.3,-.3,.6,-.3,.9c0,.5,.2,.9,.5,1.2c.4,.3,.8,.5,1.3,.5c1.3,0,2.6,-.7,3.9,-2c.4,.4,.6,.8,.6,1.3c0,.4,-.1,.7,-.4,1c-.3,.2,-.8,.5,-1.3,.8c-.5,.2,-.9,.3,-1.4,.4c-.4,.1,-.9,.2,-1.3,.2c-.1,0,-.3,0,-.5,-.1c-.1,0,-.3,0,-.4,0l2,2.5c1.1,.1,2.2,.4,3.2,1h-.1c.6,.3,1,.6,1.4,1c.4,.4,.8,.9,1.1,1.3c0,.1,.1,.3,.2,.5c0,.2,.2,.5,.3,.8c0,.2,.1,.3,.3,.5c.1,.2,.2,.4,.4,.5V135.2h1.9L358.5,134Zm5.8,1.2L363.2,134h-1.1c-.4,-.4,-.6,-1,-.8,-1.9l-.4,-.3c0,.2,0,.5,0,.9c0,.3,.1,.7,.1,1.2c0,.5,.1,.9,.1,1.3c0,.3,0,.6,0,.9c-.2,-.8,-.6,-1.3,-1,-1.6c-.4,-.3,-.9,-.5,-1.7,-.5h-1.3l1.2,1.2c.3,0,.7,.1,1,.2c.3,.1,.6,.3,.8,.5c.3,.2,.5,.4,.6,.7c.2,.3,.2,.7,.2,1v8.9l1.2,1.2V135.2h2.2Zm9.1,-1.2l-.9,2.7c-.1,-.3,-.2,-.6,-.4,-.9c-.2,-.3,-.5,-.6,-.8,-.8c-.3,-.2,-.6,-.4,-.9,-.5c-.3,-.1,-.7,-.1,-1,-.1c-.7,0,-1.3,.3,-1.9,.8c-.6,.6,-.9,1.3,-.9,1.9c0,.7,.3,1.1,.9,1.1c.2,0,.3,-.1,.5,-.1c.2,-.1,.4,-.1,.6,-.2c.2,-.1,.4,-.1,.6,-.2c.1,0,.3,-.1,.4,-.1c.2,0,.4,.1,.4,.3c-.2,.4,-.5,.8,-1,1.3c-.2,.1,-.3,.2,-.6,.4c-.2,.2,-.4,.3,-.7,.5l1.5,1.3c1.3,-1.2,2,-2.2,2,-3.1c0,-.4,-.2,-.8,-.6,-1.2c-.4,-.3,-.8,-.4,-1.3,-.4c-.3,0,-.6,.1,-1,.2c.4,-.7,1,-1,1.8,-1c.7,0,1.3,.3,1.7,.8c.4,.5,.7,1.2,.8,2.1l1.2,-1.9c.4,.1,.7,.6,1,1.2c.3,.7,.4,1.2,.4,1.6c0,.3,-.2,.5,-.6,.8c0,0,-.1,0,-.2,-.1c0,0,-.2,-.1,-.4,-.2c-.2,0,-.4,0,-.7,0c-.4,0,-.8,.1,-1,.4c-.2,.3,-.3,.6,-.3,1c0,.4,.2,.7,.5,1.1c.3,.3,.6,.4,1.1,.4c.3,0,.6,-.1,1,-.3c0,0,0,.1,0,.2v.2c0,.2,-.1,.4,-.2,.6c-.1,.2,-.3,.4,-.5,.5c-.2,.1,-.4,.2,-.7,.2c-.2,.1,-.5,.1,-.7,.1c-2,0,-3.7,-1,-5,-3c-.4,-.8,-.9,-1.6,-1.2,-2.6c-.4,-1,-.7,-2.1,-1,-3.2l-.8,-.5c.2,1.3,.4,2.6,.8,3.8c.4,1.2,.8,2.3,1.4,3.3c.7,1.3,1.5,2.3,2.5,3c1,.8,2,1.1,3.1,1.1c.9,0,1.7,-.2,2.3,-.7c.5,-.5,.8,-1.2,.8,-2.1c0,-.6,-.2,-1.2,-.6,-1.8c.9,-.6,1.4,-1.2,1.4,-1.7c0,-.9,-.9,-3,-2.8,-6.2Zm24.3,0H383.4l1.3,1.2H399L397.7,134Zm-.6,5.6c-.2,-.6,-.5,-1.2,-.9,-1.7c-.4,-.5,-.9,-.9,-1.5,-1.1c-.6,-.3,-1.2,-.5,-1.8,-.5c-.8,0,-1.4,.3,-2,.7c-.6,.5,-.9,1.1,-.9,1.9c0,.6,.2,1.2,.6,1.6c.3,.5,.8,.7,1.5,.7c1.2,0,1.9,-.6,1.9,-1.7c0,-.5,-.2,-1,-.5,-1.4c.3,-.1,.6,-.2,.8,-.2c.6,0,1.2,.3,1.6,.9c.4,.6,.6,1.1,.6,1.8c0,.8,-.4,1.6,-1.1,2.3c-.8,.6,-1.6,1,-2.5,1c-1.7,0,-3.2,-.9,-4.4,-2.8c-.3,-.3,-.6,-1,-1.1,-1.8c-.4,-.9,-.8,-1.9,-1.3,-3.1l-.7,-.2c1.8,6.5,4.3,9.8,7.5,9.8c1.2,0,2.2,-.5,3.2,-1.3c.4,-.4,.7,-.8,1,-1.4c.2,-.5,.4,-1,.4,-1.6c0,-.7,-.1,-1.3,-.4,-1.9Zm6.4,-4.4L402.3,134h-1c-.4,-.4,-.6,-1,-.8,-1.9l-.4,-.3c0,.2,0,.5,0,.9c0,.3,0,.7,.1,1.2c0,.5,.1,.9,.1,1.3c0,.3,0,.6,0,.9c-.3,-.8,-.6,-1.3,-1,-1.6c-.4,-.3,-.9,-.5,-1.7,-.5h-1.3l1.2,1.2c.3,0,.6,.1,1,.2c.3,.1,.6,.3,.8,.5c.3,.2,.5,.4,.6,.7c.1,.3,.2,.7,.2,1v8.9l1.2,1.2V135.2h2.2Zm10,-1.2h-1c.1,-1.1,-.3,-2,-1,-2.5c-.8,-.6,-1.9,-.9,-3.4,-.9c-.9,.1,-1.6,.1,-2.1,.2c-.5,0,-.9,0,-1,0c-.5,0,-.9,-.1,-1.2,-.3c-.4,-.3,-.6,-.6,-.6,-1c0,-.4,.1,-.8,.5,-1q-.1,0,-.2,0q-.1,0,-.2,0c-.1,-.1,-.3,.1,-.5,.5c-.2,.3,-.3,.6,-.3,.8c0,.8,.4,1.5,1.3,2c.7,.4,1.6,.7,2.5,.7c.2,0,.4,-.1,.7,-.1c.3,0,.7,0,1,0c.4,-.1,.8,-.1,1.1,-.1c.3,0,.5,0,.7,0c.2,0,.4,0,.6,0c.2,0,.4,.1,.5,.1c.5,.2,.8,.4,.8,.7c0,.3,-.3,.5,-.7,.7c-.2,.1,-.3,.1,-.5,.1c-.2,.1,-.4,.1,-.5,.1h-8.2l1.2,1.2h3.9c.5,.4,.8,.7,.8,1c-.8,0,-1.4,.3,-1.9,.8c-.6,.5,-.9,1.1,-.9,1.8c0,.4,.2,.7,.5,.9c.3,.2,.6,.3,.9,.3c.6,0,1.1,-.2,1.6,-.7c.5,-.5,.7,-1,.7,-1.6c.2,0,.3,0,.4,-.1c.1,0,.2,0,.3,0c.2,0,.5,.1,.7,.2c.2,.1,.3,.2,.5,.4c.1,.2,.2,.4,.3,.7c.1,.2,.1,.5,.1,.7c.1,.8,-.4,1.5,-1.4,2c-.7,.3,-1.5,.5,-2.4,.4c-1.3,-.1,-2.4,-.4,-3.4,-1l1.4,3c.9,.2,1.8,.5,2.6,.9c.9,.3,1.8,.7,2.6,1.2c.8,.5,1.6,1,2.3,1.5c.7,.6,1.3,1.2,1.9,1.9l-.3,-1.3c-1.1,-1.1,-2.1,-2,-3,-2.8c-.9,-.8,-1.8,-1.4,-2.6,-1.9c1.2,-.3,2.1,-.7,2.7,-1.2c.8,-.6,1.2,-1.5,1.2,-2.4c0,-1,-.4,-1.8,-1,-2.5c-.4,-.5,-1.2,-.9,-2.4,-1.3c-.2,-.2,-.3,-.3,-.4,-.5c-.1,-.1,-.2,-.2,-.3,-.4h6.3L413.5,134Zm20.5,1.2L432.7,134H421.1l1.1,1.2h8.5v6.6h-.1c-1.3,-2.6,-2.8,-4,-4.4,-4c-.8,0,-1.5,.3,-2.1,.9c-.6,.5,-.9,1.2,-.9,2c0,1.5,.8,2.2,2.3,2.2c.5,0,.9,-.2,1.2,-.5c.3,-.4,.5,-.8,.5,-1.3c0,-.3,-.3,-.8,-.8,-1.5c.1,-.1,.2,-.1,.3,-.1c1.3,0,2.4,.8,3.4,2.5c.6,1.4,.9,2.9,.9,4.2l-.1,1.3l1,.6V135.2H434Zm4.6,0L437.4,134h-1.1c-.4,-.4,-.6,-1,-.7,-1.9l-.5,-.3c0,.2,0,.5,0,.9c.1,.3,.1,.7,.1,1.2c.1,.5,.1,.9,.1,1.3c0,.3,0,.6,0,.9c-.2,-.8,-.5,-1.3,-.9,-1.6c-.4,-.3,-1,-.5,-1.7,-.5h-1.4l1.2,1.2c.3,0,.7,.1,1,.2c.3,.1,.6,.3,.8,.5c.3,.2,.5,.4,.6,.7c.2,.3,.2,.7,.2,1v8.9l1.2,1.2V135.2h2.3Zm7.1,-.5c-.5,-.6,-1.3,-.9,-2.3,-.9c-.6,0,-1.2,.1,-1.7,.3c-.5,.1,-1,.4,-1.4,.7c-.4,.3,-.7,.6,-1,1.1c-.2,.4,-.3,.8,-.3,1.3v.2q0,.1,0,.2l.3,.3c.3,0,.5,-.1,.8,-.2c.2,0,.5,-.1,.7,-.2c0,-.1,-.1,-.2,-.1,-.3c0,-.1,0,-.2,0,-.3c0,-.3,0,-.5,.1,-.8c.1,-.3,.3,-.5,.4,-.7c.2,-.2,.4,-.3,.6,-.4c.3,-.1,.5,-.2,.7,-.2c.8,0,1.3,.3,1.7,.7c.4,.5,.6,1.2,.6,2.1c0,.3,-.1,.6,-.2,.9c-.1,.2,-.3,.5,-.5,.7c-.2,.3,-.5,.5,-.7,.8c-.3,.2,-.5,.5,-.7,.8c-.2,.2,-.4,.5,-.5,.8c-.1,.3,-.2,.7,-.2,1.1l.1,1.2l.3,.2c.2,0,.3,-.1,.3,-.2c0,0,.1,-.1,.3,-.2v-1c0,-.5,.2,-.9,.4,-1.2c.1,-.4,.4,-.6,.6,-.9c.3,-.2,.6,-.4,.9,-.6c.3,-.2,.5,-.5,.8,-.7c.2,-.3,.4,-.6,.6,-.9c.2,-.3,.2,-.8,.2,-1.3c0,-1,-.2,-1.8,-.8,-2.4Zm-3,10.6c-.4,0,-.7,.2,-1,.5c-.3,.3,-.4,.7,-.4,1.2c0,.4,0,.7,.2,.9c.2,.2,.4,.3,.8,.3c.4,0,.8,-.2,1,-.5c.3,-.3,.4,-.7,.4,-1.2c0,-.8,-.3,-1.2,-1,-1.2Z" class="gh_222"/>
<g clip-path="url(#c0_222)">
<path d="M1877,177.2H32.1v-5.4H768.7c43.1,0,53,-37.9,115.3,-37.9h993Z" class="gi_222"/>
<path d="M1877,183.7H32.1v-9.8H768.7c43.1,0,53,-33.6,115.3,-33.6h993Z" class="gj_222"/>
</g>
<path d="M131.7,414.2v39l11.7,10.3V419.2Z" class="gk_222"/>
<path d="M131.7,414.2v39H829.5c0,0,16.8,0,16.8,-16.8V431c0,0,0,-16.8,-16.8,-16.8Z" class="gc_222"/>
<path d="M781,447.8c8.2,0,14.8,-6.5,14.8,-14.5c0,-8,-6.6,-14.5,-14.8,-14.5c-8.3,0,-14.9,6.5,-14.9,14.5c0,8,6.6,14.5,14.9,14.5Z" class="gl_222"/>
<path d="M781,447.8c8.2,0,14.8,-6.5,14.8,-14.5c0,-8,-6.6,-14.5,-14.8,-14.5c-8.3,0,-14.9,6.5,-14.9,14.5c0,8,6.6,14.5,14.9,14.5Z" class="gm_222"/>
<path d="M781,438.7c3,0,5.4,-2.4,5.4,-5.4c0,-3,-2.4,-5.3,-5.4,-5.3c-3.1,0,-5.5,2.3,-5.5,5.3c0,3,2.4,5.4,5.5,5.4Z" class="g1_222"/>
<path d="M781,438.7c3,0,5.4,-2.4,5.4,-5.4c0,-3,-2.4,-5.3,-5.4,-5.3c-3.1,0,-5.5,2.3,-5.5,5.3c0,3,2.4,5.4,5.5,5.4Z" class="gn_222"/>
<g clip-path="url(#ch_222)" opacity="0.3">
<path d="M766.4,432.5c0,0,-.1,-4.8,3.6,-8.6l7.8,6.7c0,0,-1,.9,-1.1,2.7Z" class="g1_222"/>
</g>
<path d="M785.6,433.2c0,0,-3.5,0,-3.5,3.5v8.7c0,0,0,3.4,3.5,3.4H829c0,0,3.5,0,3.5,-3.4v-8.7c0,0,0,-3.5,-3.5,-3.5Z" class="go_222"/>
<path d="M169.5,424.3c0,-8.4,-6.7,-15.1,-15,-15.1c-8.4,0,-15.1,6.7,-15.1,15.1c0,8.3,6.8,15,15.1,15c.8,0,1.6,-.1,2.4,-.2l4.5,5.2v-6.7c4.8,-2.5,8.1,-7.5,8.1,-13.3Z" class="g1_222"/>
<path d="M161.8,445.6l-5.1,-6c-.7,.1,-1.5,.2,-2.2,.2c-8.6,0,-15.6,-7,-15.6,-15.5c0,-8.6,7,-15.5,15.6,-15.5c8.5,0,15.5,6.9,15.5,15.5c0,5.7,-3.1,10.9,-8.2,13.6Zm-4.7,-7l3.8,4.5v-5.7l.3,-.2c4.8,-2.5,7.9,-7.5,7.9,-12.9c0,-8.1,-6.6,-14.6,-14.6,-14.6c-8.1,0,-14.6,6.5,-14.6,14.6c0,8,6.5,14.6,14.6,14.6c.7,0,1.5,-.1,2.3,-.2Z" class="gp_222"/>
<path d="M147.4,423.8c.8,0,1.5,.7,1.5,1.5c0,.8,-.7,1.4,-1.5,1.4c-.7,0,-1.4,-.6,-1.4,-1.4c0,-.8,.7,-1.5,1.4,-1.5Z" class="gq_222"/>
<path d="M147.4,427.2c-1,0,-1.8,-.9,-1.8,-1.9c0,-1.1,.8,-1.9,1.8,-1.9c1.1,0,1.9,.8,1.9,1.9c0,1,-.8,1.9,-1.9,1.9m0,-2.9c-.5,0,-.9,.4,-.9,1c0,.5,.4,1,.9,1c.6,0,1,-.5,1,-1c0,-.6,-.4,-1,-1,-1Z" class="gp_222"/>
<path d="M154.5,423.8c.8,0,1.4,.7,1.4,1.5c0,.8,-.6,1.4,-1.4,1.4c-.8,0,-1.5,-.6,-1.5,-1.4c0,-.8,.7,-1.5,1.5,-1.5Z" class="gq_222"/>
<path d="M154.5,427.2c-1.1,0,-1.9,-.9,-1.9,-1.9c0,-1.1,.8,-1.9,1.9,-1.9c1,0,1.9,.8,1.9,1.9c0,1,-.9,1.9,-1.9,1.9m0,-2.9c-.6,0,-1,.4,-1,1c0,.5,.4,1,1,1c.5,0,.9,-.5,.9,-1c0,-.6,-.4,-1,-.9,-1Z" class="gp_222"/>
<path d="M161.5,423.8c.8,0,1.4,.7,1.4,1.5c0,.8,-.6,1.4,-1.4,1.4c-.8,0,-1.5,-.6,-1.5,-1.4c0,-.8,.7,-1.5,1.5,-1.5Z" class="gq_222"/>
<path d="M161.5,427.2c-1.1,0,-1.9,-.9,-1.9,-1.9c0,-1.1,.8,-1.9,1.9,-1.9c1,0,1.9,.8,1.9,1.9c0,1,-.9,1.9,-1.9,1.9m0,-2.9c-.6,0,-1,.4,-1,1c0,.5,.4,1,1,1c.5,0,1,-.5,1,-1c0,-.6,-.5,-1,-1,-1Z" class="gp_222"/>
<path d="M163.4,438.5c0,-9.7,7.9,-17.6,17.6,-17.6c9.7,0,17.6,7.9,17.6,17.6c0,9.7,-7.9,17.6,-17.6,17.6c-.9,0,-1.9,-.1,-2.8,-.2l-5.3,6.1v-7.8c-5.6,-3,-9.5,-8.9,-9.5,-15.7Z" class="gr_222"/>
<path d="M172.9,462.5c0,0,-.1,-.1,-.1,-.1c-.2,0,-.3,-.2,-.3,-.4v-7.6c-5.9,-3.1,-9.6,-9.2,-9.6,-15.9c0,-10,8.2,-18.1,18.1,-18.1c10,0,18.1,8.1,18.1,18.1c0,10,-8.1,18.1,-18.1,18.1c-.8,0,-1.7,-.1,-2.6,-.2l-5.1,5.9c-.1,.1,-.2,.2,-.4,.2M181,421.4c-9.4,0,-17.1,7.6,-17.1,17.1c0,6.5,3.5,12.3,9.2,15.2c.2,.1,.3,.3,.3,.5v6.6l4.4,-5.2c.1,-.1,.3,-.2,.5,-.2c.9,.2,1.8,.3,2.7,.3c9.5,0,17.2,-7.7,17.2,-17.2c0,-9.5,-7.7,-17.1,-17.2,-17.1Z" class="gp_222"/>
<path d="M189.2,438c.9,0,1.7,.8,1.7,1.7c0,.9,-.8,1.7,-1.7,1.7c-.9,0,-1.7,-.8,-1.7,-1.7c0,-.9,.8,-1.7,1.7,-1.7Z" class="g1_222"/>
<path d="M189.2,441.8c-1.2,0,-2.1,-.9,-2.1,-2.1c0,-1.2,.9,-2.1,2.1,-2.1c1.2,0,2.1,.9,2.1,2.1c0,1.2,-.9,2.1,-2.1,2.1m0,-3.3c-.7,0,-1.2,.5,-1.2,1.2c0,.6,.5,1.2,1.2,1.2c.7,0,1.2,-.6,1.2,-1.2c0,-.7,-.5,-1.2,-1.2,-1.2Z" class="gp_222"/>
<path d="M181,438c.9,0,1.7,.8,1.7,1.7c0,.9,-.8,1.7,-1.7,1.7c-.9,0,-1.7,-.8,-1.7,-1.7c0,-.9,.8,-1.7,1.7,-1.7Z" class="g1_222"/>
<path d="M181,441.8c-1.2,0,-2.1,-.9,-2.1,-2.1c0,-1.2,.9,-2.1,2.1,-2.1c1.2,0,2.1,.9,2.1,2.1c0,1.2,-.9,2.1,-2.1,2.1m0,-3.3c-.7,0,-1.2,.5,-1.2,1.2c0,.6,.5,1.2,1.2,1.2c.7,0,1.2,-.6,1.2,-1.2c0,-.7,-.5,-1.2,-1.2,-1.2Z" class="gp_222"/>
<path d="M172.8,438c.9,0,1.7,.8,1.7,1.7c0,.9,-.8,1.7,-1.7,1.7c-.9,0,-1.7,-.8,-1.7,-1.7c0,-.9,.8,-1.7,1.7,-1.7Z" class="g1_222"/>
<path d="M172.8,441.8c-1.2,0,-2.1,-.9,-2.1,-2.1c0,-1.2,.9,-2.1,2.1,-2.1c1.2,0,2.1,.9,2.1,2.1c0,1.2,-.9,2.1,-2.1,2.1m0,-3.3c-.7,0,-1.2,.5,-1.2,1.2c0,.6,.5,1.2,1.2,1.2c.7,0,1.2,-.6,1.2,-1.2c0,-.7,-.5,-1.2,-1.2,-1.2Z" class="gp_222"/>
<image clip-path="url(#ci_222)" preserveAspectRatio="none" x="125" y="206" width="734" height="181" xlink:href="img/9.png"/>
<path d="M144.6,231.3c0,0,-13,0,-13,13v117c0,0,0,13,13,13H833.1c0,0,13,0,13,-13v-130Z" class="gs_222"/>
<path d="M147.7,294.1l54.1,40.8l54.1,-40.8V230h8.7V211.9H155.8c-6.5,.4,-7.7,3.9,-8.2,8.4Z" class="gt_222"/>
<path d="M274,220.3c-.3,-4.7,-4.2,-8.4,-9,-8.4c-4.8,0,-8.7,3.7,-9,8.4h-.1V230h18.2v-9.7Z" class="go_222"/>
<path d="M255.9,230.6H846.1" class="gu_222"/>
<path d="M32.1,45.1H9.2m958.3,0h22.9M32.1,1331.3H9.2m958.3,0h22.9M45.1,32.1V9.2m0,1335.1v22.9M954.5,32.1V9.2m0,1335.1v22.9" class="gv_222"/>
<path d="M32.1,45.1H9.2m958.3,0h22.9M32.1,1331.3H9.2m958.3,0h22.9M45.1,32.1V9.2m0,1335.1v22.9M954.5,32.1V9.2m0,1335.1v22.9" class="gw_222"/>
<path d="M27.5,32.1H0m972.1,0h27.5M27.5,1344.3H0m972.1,0h27.5M32.1,27.5V0m0,1348.9v27.5M967.5,27.5V0m0,1348.9v27.5" class="gv_222"/>
<path d="M27.5,32.1H0m972.1,0h27.5M27.5,1344.3H0m972.1,0h27.5M32.1,27.5V0m0,1348.9v27.5M967.5,27.5V0m0,1348.9v27.5" class="gw_222"/>
</svg>