<?xml version="1.0" encoding="UTF-8" standalone="no"?>
<!DOCTYPE svg PUBLIC "-//W3C//DTD SVG 1.1//EN"
"http://www.w3.org/Graphics/SVG/1.1/DTD/svg11.dtd">
<svg viewBox="0 0 999 1376" version="1.1" xmlns="http://www.w3.org/2000/svg" xmlns:xlink="http://www.w3.org/1999/xlink">
<defs>
<clipPath id="c0_229"><path d="M153.3,1244.1V131.1H867.9v1113Z"/></clipPath>
<clipPath id="c1_229"><path d="M187,1258.6V222.8H832.3V1258.6Z"/></clipPath>
<style type="text/css"><![CDATA[
.g0_229{
fill: #FFF;
}
.g1_229{
fill: none;
stroke: #231F20;
stroke-width: 0.756;
stroke-miterlimit: 3;
}
.g2_229{
fill: #C7EAFA;
}
.g3_229{
fill: #25408F;
}
.g4_229{
fill: #6381B7;
}
.g5_229{
fill: #FFDE2C;
}
.g6_229{
fill: none;
stroke: #231F20;
stroke-width: 1.451;
stroke-miterlimit: 10;
}
.g7_229{
fill: #D2D3D5;
}
.g8_229{
fill: #A8AAAD;
}
.g9_229{
fill: none;
stroke: #231F20;
stroke-width: 0.828;
stroke-miterlimit: 10;
}
.ga_229{
fill: #6CCFF6;
}
.gb_229{
fill: none;
stroke: #231F20;
stroke-width: 0.828;
stroke-linecap: round;
stroke-linejoin: round;
}
.gc_229{
fill: none;
stroke: #231F20;
stroke-width: 1.451;
stroke-linecap: round;
stroke-linejoin: round;
}
.gd_229{
fill: none;
stroke: #FFF;
stroke-width: 1.909;
stroke-miterlimit: 10;
}
.ge_229{
fill: none;
stroke: #000;
stroke-width: 0.381;
stroke-miterlimit: 10;
}
]]></style>
</defs>
<path d="M153.3,1244.1H867.9V131.1H153.3v1113Z" class="g0_229"/>
<image clip-path="url(#c0_229)" preserveAspectRatio="none" x="151" y="129" width="719" height="1117" xlink:href="img/1.jpg"/>
<path d="M402.4,185.4c-.3,.7,-.8,1.4,-1.4,1.9c-.5,.5,-1.2,.9,-2,1.1c-.8,.3,-1.6,.5,-2.4,.5c-.9,0,-1.7,-.2,-2.5,-.5c-.8,-.2,-1.5,-.6,-2.1,-1.1c-.5,-.5,-1,-1.1,-1.3,-1.8c-.4,-.7,-.6,-1.5,-.6,-2.4c0,-.8,.2,-1.6,.6,-2.3c.3,-.7,.8,-1.3,1.3,-1.8c.6,-.6,1.3,-1,2.1,-1.2c.8,-.3,1.6,-.5,2.5,-.5c.8,0,1.7,.2,2.4,.5c.8,.2,1.5,.6,2.1,1.2c.5,.5,1,1.1,1.3,1.8c.4,.7,.5,1.5,.5,2.3c0,.9,-.1,1.7,-.5,2.3Zm-3.9,-16.5h3.6v-5.3h2.2v14h-2.2v-6.8h-3.6V176h-2.1V163.6h2.1v5.3Zm1,11.3c-.7,-.7,-1.7,-1.1,-2.9,-1.1c-1.3,0,-2.3,.4,-3,1.1c-.8,.8,-1.2,1.8,-1.2,2.9c0,1.2,.4,2.2,1.2,2.9c.7,.7,1.7,1.1,3,1.1c1.2,0,2.2,-.4,2.9,-1.1c.8,-.7,1.2,-1.7,1.2,-2.9c0,-1.1,-.4,-2.1,-1.2,-2.9ZM388.9,163.4c.2,.5,.3,1,.4,1.5c.1,.4,.1,.9,.1,1.4c0,.5,0,1,0,1.5c0,.4,-.1,.9,-.2,1.4c.6,.1,1.2,.3,1.6,.6c.5,.3,.9,.7,1.3,1.1c.2,.3,.3,.6,.5,.8c.2,.3,.3,.5,.5,.9c.2,.2,.4,.6,.7,.9c.2,.4,.4,.8,.7,1.2l-1.6,1.2c-.2,-.4,-.4,-.7,-.6,-1c-.2,-.4,-.4,-.7,-.6,-1c-.2,-.3,-.4,-.6,-.5,-.8c-.2,-.3,-.4,-.5,-.5,-.8c-.3,-.4,-.6,-.7,-.9,-.9c-.2,-.3,-.6,-.5,-1.1,-.6c-.4,1,-1,2,-1.8,3c-.8,.9,-1.9,1.9,-3.1,2.8L382.6,175c1,-.8,1.8,-1.5,2.4,-2.2c.6,-.6,1.1,-1.3,1.4,-2c.4,-.6,.6,-1.3,.7,-2c.1,-.8,.2,-1.6,.2,-2.4c0,-.4,0,-.7,-.1,-1.1c-.1,-.4,-.2,-.8,-.3,-1.2l2,-.7Zm24.2,24.9c-.7,0,-1.1,-.2,-1.4,-.4c-.2,-.3,-.3,-.7,-.3,-1.1v-4.1h13.2v-2H411.4V179h12c.4,-.5,.7,-1,.9,-1.6c.3,-.5,.4,-1.2,.4,-1.9v-.2c-1.1,.6,-2.2,1,-3.4,1.2c-1.2,.3,-2.6,.4,-4.2,.4h-9.5v-1.8H414v-1.7c-1.2,-.1,-2.3,-.6,-3.1,-1.3c-.9,-.7,-1.3,-1.7,-1.3,-2.9c0,-.6,.1,-1.1,.3,-1.6c.2,-.4,.4,-.8,.7,-1.2H408v-1.7h5.5c.1,-.3,.2,-.5,.2,-.7c.1,-.2,.1,-.4,.1,-.7c0,-.1,0,-.3,-.1,-.5c0,-.2,0,-.4,-.1,-.6l2.3,-.6c0,.2,.1,.4,.1,.7c0,.3,0,.5,0,.7c0,.4,0,.7,-.1,1c-.1,.2,-.1,.4,-.2,.7h6.5v1.7h-2.7c.3,.4,.6,.8,.8,1.2c.1,.5,.2,1,.2,1.6c0,1.3,-.4,2.3,-1.2,2.9c-.8,.7,-1.9,1.1,-3.1,1.3v1.7h.8c1.4,0,2.7,-.1,4,-.3c1.3,-.3,2.5,-.8,3.7,-1.6v-9.6h2.2v6.5h4.3v1.8h-4.3v3.6c0,.8,-.1,1.5,-.4,2c-.2,.6,-.6,1.1,-.9,1.5c.5,0,.9,.2,1.1,.5c.2,.3,.2,.7,.2,1.2l-.4,2.9c0,.4,-.1,.6,-.3,.7c-.1,.1,-.4,.1,-.7,.1H413.6v2.1h7.7c.8,0,1.8,-.1,2.8,-.1c1,-.1,2,-.3,3,-.7l.5,1.7c-1,.3,-2,.6,-3,.7c-1,.1,-2.1,.2,-3.1,.2h-8.4Zm4.4,-21c-.5,-.4,-1.3,-.7,-2.4,-.7c-1.1,0,-1.9,.3,-2.5,.7c-.5,.5,-.8,1.1,-.8,1.9c0,.7,.3,1.4,.8,1.8c.6,.5,1.4,.7,2.5,.7c1.1,0,1.9,-.2,2.4,-.7c.6,-.4,.9,-1.1,.9,-1.8c0,-.8,-.3,-1.4,-.9,-1.9Zm29.6,18.5V173.4h-3.4c-.2,1.9,-.8,3.4,-1.8,4.5c-.9,1.2,-2.2,1.7,-3.9,1.7c-1.8,0,-3.1,-.6,-4.1,-2c-1,-1.3,-1.5,-3.1,-1.5,-5.2c0,-2.2,.5,-4,1.5,-5.3c1,-1.4,2.4,-2.1,4.1,-2.1c1.7,0,3,.6,4,1.8c.9,1.2,1.5,2.7,1.7,4.6h3.4v-7.5h2.2v21.9h-2.2Zm-5.7,-15.5c-.2,-.6,-.4,-1.2,-.6,-1.7c-.3,-.5,-.7,-.9,-1.1,-1.2c-.5,-.3,-1,-.5,-1.7,-.5c-.6,0,-1.2,.2,-1.6,.5c-.5,.3,-.8,.7,-1.1,1.2c-.3,.5,-.5,1.1,-.6,1.7c-.1,.7,-.2,1.4,-.2,2.1c0,.6,.1,1.3,.2,2c.1,.6,.3,1.2,.6,1.7c.3,.5,.6,.9,1.1,1.2c.4,.3,1,.5,1.6,.5c.7,0,1.2,-.2,1.7,-.5c.4,-.3,.8,-.7,1.1,-1.2c.2,-.5,.4,-1.1,.6,-1.7c.1,-.7,.2,-1.4,.2,-2c0,-.7,-.1,-1.4,-.2,-2.1Zm10.8,-6.4h2.2v22.5h-2.2V163.9ZM480,173.6c-1.3,1.1,-3.1,1.6,-5.4,1.6c-2.2,0,-4,-.5,-5.3,-1.6c-1.3,-1.1,-2,-2.5,-2,-4.2c0,-1.8,.7,-3.2,2,-4.3c1.3,-1.1,3.1,-1.6,5.3,-1.6c2.3,0,4.1,.5,5.4,1.6c1.3,1.1,2,2.5,2,4.3c0,1.7,-.7,3.1,-2,4.2Zm-10.4,13.7v-7.6h-5.5v-1.8h21.3v1.8h-5.6v7.6h-2.3v-7.6h-5.7v7.6h-2.2Zm8.6,-21c-1,-.6,-2.2,-1,-3.6,-1c-1.4,0,-2.5,.4,-3.5,1c-1,.7,-1.5,1.7,-1.5,3.1c0,1.3,.5,2.3,1.5,3c1,.6,2.1,1,3.5,1c1.4,0,2.6,-.4,3.6,-1c1,-.7,1.5,-1.7,1.5,-3c0,-1.4,-.5,-2.4,-1.5,-3.1Zm30.2,10.5H487.1V175h5.1v-4.2c-.4,-.4,-.7,-.9,-1,-1.4c-.2,-.5,-.3,-1.1,-.3,-1.7c0,-.8,.2,-1.5,.5,-2.1c.3,-.6,.8,-1.2,1.4,-1.6c.6,-.4,1.3,-.7,2.1,-1c.8,-.2,1.6,-.3,2.6,-.3c1.9,0,3.4,.4,4.7,1.3c1.2,.9,1.8,2.1,1.8,3.7c0,.6,-.1,1.1,-.3,1.6c-.2,.5,-.5,1,-.8,1.3V175h5.5v1.8Zm-4.7,9.1c-.3,.6,-.8,1.2,-1.4,1.6c-.6,.5,-1.3,.8,-2.1,1c-.8,.3,-1.6,.4,-2.6,.4c-.9,0,-1.8,-.1,-2.6,-.4c-.8,-.2,-1.5,-.5,-2.1,-1c-.6,-.4,-1.1,-1,-1.4,-1.6c-.3,-.7,-.5,-1.4,-.5,-2.2c0,-.8,.2,-1.5,.5,-2.2c.3,-.6,.8,-1.1,1.4,-1.6c.6,-.4,1.3,-.7,2.1,-1c.8,-.2,1.7,-.3,2.6,-.3c1.9,0,3.5,.4,4.7,1.3c1.3,.9,1.9,2.2,1.9,3.8c0,.8,-.1,1.5,-.5,2.2Zm-2.9,-4.7c-.8,-.5,-1.9,-.8,-3.2,-.8c-1.2,0,-2.3,.3,-3.1,.8c-.8,.6,-1.2,1.4,-1.2,2.5c0,1.1,.4,1.9,1.2,2.5c.8,.6,1.9,.9,3.1,.9c1.3,0,2.4,-.3,3.2,-.9c.8,-.6,1.2,-1.4,1.2,-2.5c0,-1.1,-.4,-1.9,-1.2,-2.5Zm-.3,-15.9c-.8,-.6,-1.8,-.8,-3,-.8c-1.2,0,-2.2,.2,-3.1,.8c-.8,.6,-1.2,1.3,-1.2,2.4c0,1,.4,1.8,1.2,2.3c.9,.6,1.9,.8,3.1,.8c1.2,0,2.2,-.2,3,-.8c.8,-.5,1.2,-1.3,1.2,-2.3c0,-1.1,-.4,-1.8,-1.2,-2.4Zm-4.6,7.2c-.5,-.1,-1,-.2,-1.5,-.3V175h6.2v-2.9c-.5,.2,-1,.3,-1.5,.4c-.5,.1,-1.1,.1,-1.6,.1c-.6,0,-1.1,0,-1.6,-.1Zm26.6,3c-.4,.6,-.8,1.1,-1.3,1.6c-.5,.4,-1.2,.7,-1.9,1c-.7,.2,-1.4,.3,-2.2,.3c-.8,0,-1.6,-.1,-2.3,-.3c-.7,-.2,-1.3,-.6,-1.8,-1c-.6,-.4,-1,-1,-1.3,-1.6c-.3,-.5,-.5,-1.2,-.5,-2c0,-.7,.2,-1.4,.5,-2c.3,-.6,.7,-1.1,1.2,-1.5c.6,-.5,1.2,-.8,1.9,-1c.7,-.3,1.5,-.4,2.3,-.4c.8,0,1.6,.1,2.3,.4c.7,.2,1.3,.6,1.9,1c.5,.4,.9,.9,1.2,1.5c.3,.6,.4,1.3,.4,2c0,.8,-.1,1.4,-.4,2Zm11.4,-2.4h-4.2V181h-2.3V163.6h2.3v7.6h4.2v1.9Zm-17,14.9c-.8,0,-1.4,-.2,-1.8,-.6c-.4,-.3,-.6,-.9,-.6,-1.6v-5.2h2.3v4.8c0,.3,0,.5,.2,.6c.1,.1,.3,.2,.6,.2h7.1c1.1,0,2,-.1,2.9,-.2c.8,-.1,1.7,-.3,2.7,-.7l.5,1.8c-1.1,.3,-2.1,.5,-3,.7c-1,.1,-1.9,.2,-3,.2h-7.9Zm2.7,-16.8c-.7,-.5,-1.5,-.8,-2.5,-.8c-1,0,-1.8,.3,-2.5,.8c-.7,.6,-1.1,1.3,-1.1,2.3c0,1.1,.4,1.8,1.1,2.4c.7,.5,1.5,.8,2.5,.8c1,0,1.8,-.3,2.5,-.8c.7,-.6,1.1,-1.3,1.1,-2.4c0,-1,-.4,-1.7,-1.1,-2.3Zm4.7,-3.5H509.9V166h5.4c.3,-.4,.4,-.8,.5,-1.1c.1,-.3,.1,-.6,.1,-1c0,-.1,0,-.2,0,-.3c-.1,-.2,-.1,-.3,-.1,-.4c0,-.1,0,-.2,-.1,-.2c0,-.1,0,-.2,-.1,-.3l2.2,-.7c.1,.3,.2,.6,.2,.9c.1,.3,.1,.6,.1,.9c0,.4,-.1,.8,-.2,1.1c-.1,.4,-.3,.7,-.4,1.1h6.8v1.7Zm19.1,-3.4H552c.4,0,.7,0,1,.2c.2,.1,.4,.3,.5,.5c.1,.2,.1,.4,.1,.7c0,.2,0,.5,0,.6c-.2,.9,-.5,1.8,-.8,2.6c-.4,.9,-.9,1.7,-1.4,2.5c.6,.2,1.1,.4,1.5,.7c.4,.3,.8,.6,1,.9c.5,.5,.9,1.1,1.5,1.7c.5,.7,1,1.3,1.4,1.8l-1.5,1.3c-.3,-.2,-.5,-.5,-.7,-.8c-.3,-.3,-.5,-.6,-.8,-.9c-.2,-.3,-.4,-.6,-.7,-.9c-.2,-.3,-.4,-.5,-.7,-.8c-.3,-.3,-.6,-.6,-.9,-.9c-.3,-.3,-.7,-.5,-1.2,-.7c-.9,1.1,-1.9,2,-3.1,2.9c-1.1,.8,-2.3,1.6,-3.6,2.2l-1,-1.9c2.3,-1.1,4.2,-2.4,5.7,-4.1c1.5,-1.6,2.5,-3.3,2.9,-5.1c0,-.3,0,-.5,-.1,-.6c0,-.1,-.2,-.2,-.5,-.2h-7.2v-1.7Zm11.8,5.1h4.5v-5.8H562v16.9h-2.3v-9.3h-4.5v-1.8ZM549.1,188c-.9,0,-1.5,-.2,-1.9,-.6c-.3,-.3,-.5,-.9,-.5,-1.6v-6.3h2.2v5.9c0,.3,.1,.5,.2,.6c.1,.1,.3,.2,.7,.2h7.1c1,0,2,-.1,2.8,-.2c.9,-.1,1.8,-.3,2.7,-.7l.5,1.8c-1.1,.3,-2.1,.5,-3,.7c-.9,.1,-1.9,.2,-3,.2h-7.8Zm22.6,-6.7v-4c-1.5,-.2,-2.7,-.7,-3.7,-1.8c-.9,-1,-1.4,-2.1,-1.4,-3.5c0,-.7,.2,-1.4,.4,-2c.3,-.6,.7,-1.2,1.2,-1.7H565v-1.8h6.1c.2,-.4,.3,-.7,.4,-.9c0,-.3,0,-.5,0,-.8c0,-.2,0,-.4,0,-.7c-.1,-.2,-.2,-.5,-.2,-.8l2.3,-.6c0,.2,.1,.4,.1,.7c.1,.3,.1,.5,.1,.8c0,.4,0,.9,-.1,1.2c-.1,.4,-.3,.7,-.5,1.1H580v1.8h-3.1c.5,.5,.9,1.1,1.2,1.7c.2,.6,.4,1.3,.4,2c0,1.3,-.5,2.4,-1.3,3.4c-.9,1,-1.9,1.6,-3.3,1.9v4h1c1.4,0,2.7,-.1,4,-.4c1.2,-.3,2.5,-.8,3.8,-1.6V163.9h2.2v9.4h4.3v1.9h-4.3v11.2h-2.2v-5c-1.2,.6,-2.4,1.1,-3.6,1.3c-1.2,.3,-2.6,.4,-4.2,.4h-9.7v-1.8h6.5Zm3.6,-11.8c-.7,-.7,-1.6,-1.1,-2.7,-1.1c-1.2,0,-2.1,.4,-2.8,1.1c-.6,.7,-1,1.5,-1,2.5c0,1,.4,1.9,1,2.6c.7,.6,1.6,.9,2.8,.9c1.1,0,2,-.3,2.7,-.9c.6,-.7,1,-1.6,1,-2.6c0,-1,-.4,-1.8,-1,-2.5Zm27.6,-.5h5.3v-5.4h2.3v16.9h-2.3v-9.7h-5.3v4c-.8,.5,-1.8,.9,-2.9,1.2c-1.1,.3,-2.1,.5,-3.1,.5h-3.2c-.9,0,-1.5,-.2,-1.9,-.6c-.4,-.4,-.6,-1,-.6,-1.7v-9.9h2.3v4.2h7.2v-4.2h2.2V169Zm-5.4,19c-.8,0,-1.4,-.2,-1.8,-.6c-.4,-.3,-.6,-.9,-.6,-1.6v-6.3h2.3v5.9c0,.3,.1,.5,.2,.6c.1,.1,.3,.2,.6,.2h7.2c1,0,1.9,-.1,2.8,-.2c.9,-.1,1.7,-.3,2.7,-.7l.5,1.8c-1.1,.3,-2.1,.5,-3,.7c-1,.1,-1.9,.2,-3,.2h-7.9Zm-4,-14.1c0,.2,0,.4,.2,.6c.1,.1,.3,.2,.6,.2h2.6c.6,0,1.2,-.1,1.9,-.2c.6,-.2,1.3,-.4,1.9,-.7v-3.5h-7.2v3.6Zm35.1,2c-1,.9,-2.2,1.5,-3.6,1.7v4h9.6v1.8H613.3v-1.8h9.4v-3.9c-1.5,-.2,-2.8,-.8,-3.8,-1.7c-1,-1,-1.5,-2.2,-1.5,-3.8c0,-.8,.2,-1.5,.4,-2.2c.3,-.6,.7,-1.2,1.2,-1.7h-3.7v-1.8h6.9c.2,-.4,.3,-.7,.3,-.9c.1,-.3,.1,-.5,.1,-.8c0,-.2,0,-.4,-.1,-.7c0,-.2,-.1,-.5,-.2,-.8l2.3,-.6c.1,.2,.1,.4,.2,.7c0,.3,.1,.5,.1,.8c0,.4,-.1,.9,-.2,1.2c-.1,.4,-.2,.7,-.4,1.1h7.9v1.8h-3.7c.5,.5,.9,1.1,1.2,1.7c.2,.7,.4,1.4,.4,2.2c0,1.5,-.5,2.8,-1.5,3.7Zm-1.7,-6.3c-.7,-.8,-1.8,-1.2,-3.2,-1.2c-.7,0,-1.4,.1,-1.9,.3c-.5,.3,-.9,.6,-1.2,.9c-.3,.3,-.6,.7,-.7,1.2c-.2,.5,-.2,.9,-.2,1.4c0,.4,0,.9,.2,1.3c.1,.5,.4,.9,.7,1.2c.3,.4,.7,.7,1.3,.9c.5,.2,1.1,.3,1.8,.3c.7,0,1.3,-.1,1.9,-.3c.5,-.2,.9,-.5,1.2,-.9c.4,-.3,.6,-.7,.8,-1.2c.2,-.4,.3,-.9,.3,-1.3c0,-1,-.4,-1.8,-1,-2.6Z" class="g1_229"/>
<path d="M527.5,1158.9c0,0,-8.6,0,-8.6,8.7v60.6c0,0,0,8.7,8.6,8.7H839.3c0,0,8.7,0,8.7,-8.7v-60.6c0,0,0,-8.7,-8.7,-8.7Z" class="g2_229"/>
<path d="M527.5,964.7c0,0,-8.6,0,-8.6,8.7V1034c0,0,0,8.7,8.6,8.7H839.3c0,0,8.7,0,8.7,-8.7V973.4c0,0,0,-8.7,-8.7,-8.7Z" class="g2_229"/>
<path d="M527.5,754.4c0,0,-8.6,0,-8.6,8.7v69.3c0,0,0,8.7,8.6,8.7H839.3c0,0,8.7,0,8.7,-8.7V763.1c0,0,0,-8.7,-8.7,-8.7Z" class="g2_229"/>
<path d="M527.5,566.5c0,0,-8.6,0,-8.6,8.7v51.9c0,0,0,8.7,8.6,8.7H839.3c0,0,8.7,0,8.7,-8.7V575.2c0,0,0,-8.7,-8.7,-8.7Z" class="g2_229"/>
<path d="M527.5,356.9c0,0,-8.6,0,-8.6,8.6v69.3c0,0,0,8.7,8.6,8.7H839.3c0,0,8.7,0,8.7,-8.7V365.5c0,0,0,-8.6,-8.7,-8.6Z" class="g2_229"/>
<path d="M179.3,356.9c0,0,-8.6,0,-8.6,8.6v69.3c0,0,0,8.7,8.6,8.7H469.5c0,0,8.6,0,8.6,-8.7V365.5c0,0,0,-8.6,-8.6,-8.6Z" class="g2_229"/>
<path d="M179.3,566.5c0,0,-8.6,0,-8.6,8.7v51.9c0,0,0,8.7,8.6,8.7H469.5c0,0,8.6,0,8.6,-8.7V575.2c0,0,0,-8.7,-8.6,-8.7Z" class="g2_229"/>
<path d="M179.3,754.4c0,0,-8.6,0,-8.6,8.7v69.3c0,0,0,8.7,8.6,8.7H469.5c0,0,8.6,0,8.6,-8.7V763.1c0,0,0,-8.7,-8.6,-8.7Z" class="g2_229"/>
<path d="M179.3,964.7c0,0,-8.6,0,-8.6,8.7V1034c0,0,0,8.7,8.6,8.7H469.5c0,0,8.6,0,8.6,-8.7V973.4c0,0,0,-8.7,-8.6,-8.7Z" class="g2_229"/>
<path d="M179.3,1158.9c0,0,-8.6,0,-8.6,8.7v60.6c0,0,0,8.7,8.6,8.7H469.5c0,0,8.6,0,8.6,-8.7v-60.6c0,0,0,-8.7,-8.6,-8.7Z" class="g2_229"/>
<image clip-path="url(#c1_229)" preserveAspectRatio="none" x="185" y="221" width="649" height="1039" xlink:href="img/2.png"/>
<path d="M153.3,126.3v22.2L165,158.7V136.5Z" class="g3_229"/>
<path d="M153.3,109.5v39H851.1c0,0,16.8,0,16.8,-16.8v-5.4c0,0,0,-16.8,-16.8,-16.8Z" class="g4_229"/>
<path d="M207.2,115.7c0,-9.1,-7.9,-16.6,-17.7,-16.6c-9.8,0,-17.7,7.5,-17.7,16.6c0,2.7,.6,5.2,1.8,7.4c1.2,2.4,2.9,4.6,5,6.2c1.2,1,1.6,1.7,1.7,4.3v.6c0,3.3,2.7,5.9,5.9,5.9h6.6c3.2,0,5.8,-2.6,5.8,-5.9v-.6c.2,-2.6,.6,-3.3,1.8,-4.3c2.1,-1.6,3.8,-3.8,5,-6.2c1.2,-2.2,1.8,-4.7,1.8,-7.4Z" class="g5_229"/>
<path d="M207.2,115.7c0,-9.1,-7.9,-16.6,-17.7,-16.6c-9.8,0,-17.7,7.5,-17.7,16.6c0,2.7,.6,5.2,1.8,7.4c1.2,2.4,2.9,4.6,5,6.2c1.2,1,1.6,1.7,1.7,4.3v.6c0,3.3,2.7,5.9,5.9,5.9h6.6c3.2,0,5.8,-2.6,5.8,-5.9v-.6c.2,-2.6,.6,-3.3,1.8,-4.3c2.1,-1.6,3.8,-3.8,5,-6.2c1.2,-2.2,1.8,-4.7,1.8,-7.4Z" class="g6_229"/>
<path d="M194.6,147.4c0,2.8,-2.3,5.1,-5.1,5.1c-2.8,0,-5.1,-2.3,-5.1,-5.1c0,-2.8,2.3,-5.1,5.1,-5.1c2.8,0,5.1,2.3,5.1,5.1Z" class="g0_229"/>
<path d="M194.6,147.4c0,2.8,-2.3,5.1,-5.1,5.1c-2.8,0,-5.1,-2.3,-5.1,-5.1c0,-2.8,2.3,-5.1,5.1,-5.1c2.8,0,5.1,2.3,5.1,5.1Z" class="g6_229"/>
<path d="M182.1,140.2c0,1,.8,1.8,1.8,1.8h11.2c1,0,1.8,-.8,1.8,-1.8v-1.3H182.1Z" class="g0_229"/>
<path d="M182.1,140.2c0,1,.8,1.8,1.8,1.8h11.2c1,0,1.8,-.8,1.8,-1.8v-1.3H182.1v1.3Z" class="g6_229"/>
<path d="M196.9,143.2c0,.8,-.6,1.3,-1.3,1.3H183.4c-.8,0,-1.3,-.5,-1.3,-1.3c0,-.7,.5,-1.3,1.3,-1.3h12.2c.7,0,1.3,.6,1.3,1.3Z" class="g0_229"/>
<path d="M196.9,143.2c0,.8,-.6,1.3,-1.3,1.3H183.4c-.8,0,-1.3,-.5,-1.3,-1.3c0,-.7,.5,-1.3,1.3,-1.3h12.2c.7,0,1.3,.6,1.3,1.3Z" class="g6_229"/>
<path d="M196.9,145.8c0,.7,-.6,1.3,-1.3,1.3H183.4c-.8,0,-1.3,-.6,-1.3,-1.3c0,-.7,.5,-1.3,1.3,-1.3h12.2c.7,0,1.3,.6,1.3,1.3Z" class="g0_229"/>
<path d="M196.9,145.8c0,.7,-.6,1.3,-1.3,1.3H183.4c-.8,0,-1.3,-.6,-1.3,-1.3c0,-.7,.5,-1.3,1.3,-1.3h12.2c.7,0,1.3,.6,1.3,1.3Z" class="g6_229"/>
<path d="M215.5,128.7l8.3,10.4c.6,.7,1.8,.6,2.7,-.2c.9,-.7,1.2,-1.9,.7,-2.6l-8.9,-10.2Z" class="g7_229"/>
<path d="M215.5,128.7l8.3,10.4c.6,.7,1.8,.6,2.7,-.2c.9,-.7,1.2,-1.9,.7,-2.6l-8.9,-10.2l-2.8,2.6Z" class="g6_229"/>
<path d="M217.5,125.1c.5,.6,.3,1.8,-.7,2.6c-.9,.7,-2.1,.8,-2.6,.2c-.6,-.7,-.3,-1.9,.6,-2.6c.9,-.8,2.1,-.9,2.7,-.2Z" class="g8_229"/>
<path d="M217.5,125.1c.5,.6,.3,1.8,-.7,2.6c-.9,.7,-2.1,.8,-2.6,.2c-.6,-.7,-.3,-1.9,.6,-2.6c.9,-.8,2.1,-.9,2.7,-.2Z" class="g6_229"/>
<path d="M212.7,124.7l1.7,2c.3,.3,1,.3,1.5,-.1c.5,-.5,.7,-1.1,.4,-1.5l-1.7,-2Z" class="g0_229"/>
<path d="M212.7,124.7l1.7,2c.3,.3,1,.3,1.5,-.1c.5,-.5,.7,-1.1,.4,-1.5l-1.7,-2l-1.9,1.6Z" class="g9_229"/>
<path d="M214.8,122.9c.4,.5,.2,1.3,-.5,1.8c-.6,.5,-1.4,.6,-1.8,.1c-.4,-.4,-.2,-1.2,.5,-1.7c.6,-.6,1.4,-.6,1.8,-.2Z" class="g0_229"/>
<path d="M214.8,122.9c.4,.5,.2,1.3,-.5,1.8c-.6,.5,-1.4,.6,-1.8,.1c-.4,-.4,-.2,-1.2,.5,-1.7c.6,-.6,1.4,-.6,1.8,-.2Z" class="g9_229"/>
<path d="M216.4,105.4c4.8,5.7,4.1,14.2,-1.7,19c-5.7,4.8,-14.2,4,-19,-1.7c-4.8,-5.7,-4,-14.2,1.7,-19c5.7,-4.8,14.2,-4.1,19,1.7Z" class="g0_229"/>
<path d="M216.4,105.4c4.8,5.7,4.1,14.2,-1.7,19c-5.7,4.8,-14.2,4,-19,-1.7c-4.8,-5.7,-4,-14.2,1.7,-19c5.7,-4.8,14.2,-4.1,19,1.7Z" class="g6_229"/>
<path d="M214,107.4c3.5,4.2,3,10.5,-1.3,14.1c-4.2,3.5,-10.5,2.9,-14,-1.3c-3.5,-4.2,-3,-10.5,1.2,-14c4.2,-3.6,10.5,-3,14.1,1.2Z" class="ga_229"/>
<path d="M214,107.4c3.5,4.2,3,10.5,-1.3,14.1c-4.2,3.5,-10.5,2.9,-14,-1.3c-3.5,-4.2,-3,-10.5,1.2,-14c4.2,-3.6,10.5,-3,14.1,1.2Z" class="g6_229"/>
<path d="M213,110.6l-3.1,3m3.1,-.4l-3.1,3" class="gb_229"/>
<path d="M172.1,99l3.1,3.3m1.1,-5.9l1.2,3.9m-8.1,3l3.7,1.2" class="gc_229"/>
<path d="M185.8,106.1c1.2,1.2,.2,4.3,-2.2,6.7c-2.5,2.5,-5.5,3.5,-6.8,2.3c-1.2,-1.3,-.3,-4.3,2.2,-6.8c2.5,-2.5,5.5,-3.5,6.8,-2.2Z" class="g0_229"/>
<path d="M203.7,107.6c.6,.6,.1,1.9,-.9,3c-1.1,1,-2.4,1.5,-3,.9c-.5,-.5,-.1,-1.8,1,-2.9c1.1,-1.1,2.4,-1.5,2.9,-1Z" class="g0_229"/>
<path d="M32.1,45.1H9.2m958.3,0h22.9M32.1,1331.3H9.2m958.3,0h22.9M45.1,32.1V9.2m0,1335.1v22.9M954.5,32.1V9.2m0,1335.1v22.9" class="gd_229"/>
<path d="M32.1,45.1H9.2m958.3,0h22.9M32.1,1331.3H9.2m958.3,0h22.9M45.1,32.1V9.2m0,1335.1v22.9M954.5,32.1V9.2m0,1335.1v22.9" class="ge_229"/>
<path d="M27.5,32.1H0m972.1,0h27.5M27.5,1344.3H0m972.1,0h27.5M32.1,27.5V0m0,1348.9v27.5M967.5,27.5V0m0,1348.9v27.5" class="gd_229"/>
<path d="M27.5,32.1H0m972.1,0h27.5M27.5,1344.3H0m972.1,0h27.5M32.1,27.5V0m0,1348.9v27.5M967.5,27.5V0m0,1348.9v27.5" class="ge_229"/>
</svg>