<?xml version="1.0" encoding="UTF-8" standalone="no"?>
<!DOCTYPE svg PUBLIC "-//W3C//DTD SVG 1.1//EN"
"http://www.w3.org/Graphics/SVG/1.1/DTD/svg11.dtd">
<svg viewBox="0 0 999 1376" version="1.1" xmlns="http://www.w3.org/2000/svg" xmlns:xlink="http://www.w3.org/1999/xlink">
<defs>
<clipPath id="c0_359"><path d="M32.1,1344.3V32.1H967.5V1344.3Z"/></clipPath>
<clipPath id="c1_359"><path d="M198.2,626.7l-6.5,-2.1l-16.3,-14V553.5h71.9v73.2Z"/></clipPath>
<clipPath id="c2_359"><path d="M200.1,137.2c.1,-1.3,.7,-2.5,1.6,-3.4c1,-1,2.3,-1.6,3.9,-1.6h19.2v5Z"/></clipPath>
<clipPath id="c3_359"><path d="M199.5,137.7v-6h25.8v6Z"/></clipPath>
<style type="text/css"><![CDATA[
.g0_359{
fill: #FEFCF4;
}
.g1_359{
fill: #FFF;
}
.g2_359{
fill: none;
stroke: #6381B7;
stroke-width: 0.763;
}
.g3_359{
fill: #F0E8F3;
}
.g4_359{
fill: none;
stroke: #231F20;
stroke-width: 0.305;
stroke-miterlimit: 10;
}
.g5_359{
fill: #6381B7;
}
.g6_359{
fill: none;
stroke: #6381B7;
stroke-width: 0.381;
stroke-dasharray: 2,1;
}
.g7_359{
fill: none;
stroke: #6381B7;
stroke-width: 0.381;
}
.g8_359{
fill: #DCE9F3;
}
.g9_359{
fill: #9BD1EA;
}
.ga_359{
fill: none;
stroke: #58595B;
stroke-width: 0.381;
stroke-miterlimit: 10;
}
.gb_359{
fill: #FCE8B0;
}
.gc_359{
fill: #25408F;
}
.gd_359{
fill: none;
stroke: #231F20;
stroke-width: 1.527;
}
.ge_359{
fill: #39B4D1;
stroke: #2D2A4A;
stroke-width: 1.038;
stroke-linecap: round;
stroke-linejoin: round;
}
.gf_359{
fill: #2D2A4A;
}
.gg_359{
fill: none;
stroke: #2D2A4A;
stroke-width: 1.038;
stroke-linecap: round;
stroke-linejoin: round;
}
.gh_359{
fill: #DEDAD3;
}
.gi_359{
fill: #29263F;
}
.gj_359{
fill: #E15F46;
stroke: #2D2A4A;
stroke-width: 1.038;
stroke-linecap: round;
stroke-linejoin: round;
}
.gk_359{
fill: #F3F8FC;
}
.gl_359{
fill: none;
stroke: #8BBEE7;
stroke-width: 1.527;
stroke-linecap: round;
stroke-linejoin: round;
stroke-dasharray: 0,5;
}
.gm_359{
fill: none;
stroke: #8BBEE7;
stroke-width: 1.527;
stroke-linecap: round;
stroke-linejoin: round;
}
.gn_359{
fill: #7CA7D8;
}
.go_359{
fill: #BFD62F;
}
.gp_359{
fill: #3D3B39;
}
.gq_359{
fill: #F5CA58;
}
.gr_359{
fill: none;
stroke: #FFF;
stroke-width: 1.909;
stroke-miterlimit: 10;
}
.gs_359{
fill: none;
stroke: #000;
stroke-width: 0.381;
stroke-miterlimit: 10;
}
]]></style>
</defs>
<path clip-path="url(#c0_359)" d="M-877.3,1344.3H45.1V32.1H-877.3V1344.3Z" class="g0_359"/>
<path d="M166.7,644c0,0,-13,0,-13,12.9V970.1c0,0,0,13,13,13H854.5c0,0,13,0,13,-13V656.9c0,0,0,-12.9,-13,-12.9Z" class="g1_359"/>
<path d="M166.7,644c0,0,-13,0,-13,12.9V970.1c0,0,0,13,13,13H854.5c0,0,13,0,13,-13V656.9c0,0,0,-12.9,-13,-12.9H166.7Z" class="g2_359"/>
<path d="M238.2,704.5c0,0,-8.6,0,-8.6,8.7v69.3c0,0,0,8.7,8.6,8.7h602c0,0,8.7,0,8.7,-8.7V713.2c0,0,0,-8.7,-8.7,-8.7Z" class="g3_359"/>
<path d="M262,759.3H398.9" class="g4_359"/>
<path d="M238.2,841.1c0,0,-8.6,0,-8.6,8.7v69.3c0,0,0,8.6,8.6,8.6h602c0,0,8.7,0,8.7,-8.6V849.8c0,0,0,-8.7,-8.7,-8.7Z" class="g3_359"/>
<path d="M262,895.8H398.9" class="g4_359"/>
<path d="M747,1000.3c0,0,-4.3,0,-4.3,4.3v10.8c0,0,0,4.4,4.3,4.4h30.3c0,0,4.4,0,4.4,-4.4v-10.8c0,0,0,-4.3,-4.4,-4.3Z" class="g5_359"/>
<path d="M733.8,992.8v34.8m1.4,1H866.8m.9,-1.4V992.4m-1.3,-1H734.8" class="g6_359"/>
<path d="M733.8,1028v.6h.6m132.7,0h.6v-.6m0,-36v-.6h-.6m-132.7,0h-.6v.6" class="g7_359"/>
<path d="M170.7,166.3c0,0,-17.4,0,-17.4,17.4V448.3c0,0,0,17.4,17.4,17.4H850.6c0,0,17.3,0,17.3,-17.4V183.7c0,0,0,-17.4,-17.3,-17.4Z" class="g8_359"/>
<path d="M264.8,238H457.3v30.1H264.8V238Zm192.5,0H756.4v30.1H457.3V238Z" class="g9_359"/>
<path d="M264.8,268.1H457.3v53.5H264.8V268.1Zm192.5,0H756.4v53.5H457.3V268.1Z" class="g1_359"/>
<path d="M264.8,238H457.3m0,0H756.4M457.3,267.9V238.1m-192.5,30H457.3m0,0H756.4M457.3,321.4V268.3M264.8,321.6H457.3m0,0H756.4" class="ga_359"/>
<path d="M230.9,581.7c0,0,-13,0,-13,13v21.6c0,0,0,13,13,13H854.2c0,0,13,0,13,-13V594.7c0,0,0,-13,-13,-13Z" class="gb_359"/>
<image clip-path="url(#c1_359)" preserveAspectRatio="none" x="174" y="552" width="75" height="76" xlink:href="img/1.png"/>
<path d="M225.7,622c0,0,-26.9,11.3,-51.1,-12.8c0,0,15.1,25.3,49.3,24c0,0,24.7,.3,20.2,-10.1c0,0,1.2,-4.5,-18.4,-1.1Z" class="gb_359"/>
<path d="M153.3,109.5v39L165,158.7V136.5Z" class="gc_359"/>
<path d="M153.3,109.5v39H851.1c0,0,16.8,0,16.8,-16.8v-5.4c0,0,0,-16.8,-16.8,-16.8Z" class="g5_359"/>
<path d="M790.4,131c0,0,-.5,-10,8.6,-9.4c0,0,6.8,-.3,6.7,9.5m-15.3,-1.5v6.5c0,0,-3.4,.3,-3.9,-3c0,0,-.1,-3.8,3.9,-3.5Zm15.3,0v6.5c0,0,3.4,.3,4,-3c0,0,0,-3.8,-4,-3.5Z" class="gd_359"/>
<path d="M169,140.8h61v-32H169v32Z" class="ge_359"/>
<path d="M169,143.1h61v-2.3H169v2.3Z" class="ge_359"/>
<path d="M193.5,106.2H173.8v31.5h25.7V112.3c0,-3.4,-2.7,-6.1,-6,-6.1Z" class="g1_359"/>
<path d="M193.5,106.2v-.5H173.8c-.2,0,-.3,.1,-.4,.2c-.1,.1,-.2,.2,-.2,.3v31.5c0,.1,.1,.3,.2,.4c.1,.1,.2,.1,.4,.1h25.7c.2,0,.3,0,.4,-.1c.1,-.1,.1,-.3,.1,-.4V112.3c0,-3.7,-2.9,-6.6,-6.5,-6.6v1c1.5,0,2.9,.7,3.9,1.7c1,1,1.6,2.3,1.6,3.9v24.9H174.3V106.7h19.2Z" class="gf_359"/>
<path d="M173.8,131.7v6h25.7c0,-3.3,-2.7,-6,-6,-6Z" class="g1_359"/>
<path d="M173.8,131.7h-.6v6c0,.1,.1,.3,.2,.4c.1,.1,.2,.1,.4,.1h25.7c.2,0,.3,0,.4,-.1c.1,-.1,.1,-.3,.1,-.4c0,-3.6,-2.9,-6.6,-6.5,-6.6H173.8c-.2,0,-.3,.1,-.4,.2c-.1,.1,-.2,.2,-.2,.4h.6v.5h19.7c1.5,0,2.9,.6,3.9,1.6c1,1,1.6,2.4,1.6,3.9h.5v-.5H174.3v-5.5h-.5v.5Z" class="gf_359"/>
<path d="M177.3,110.9h17.2m-17.2,2.8h17.2m-17.2,2.9h17.2m-17.2,2.9h17.2m-17.2,2.8h17.2m-17.2,2.9h17.2M177.3,128h17.2" class="gg_359"/>
<path d="M193.5,132.2H174.3v5H199c-.1,-1.3,-.7,-2.5,-1.6,-3.4c-1,-1,-2.4,-1.6,-3.9,-1.6Z" class="gh_359"/>
<path d="M174.3,132.2h19.2c1.5,0,2.9,.6,3.9,1.6c.9,.9,1.5,2.1,1.6,3.4H174.3Zm19.2,-.5H173.8v6H199v-2.5c-.9,-2.1,-3.1,-3.5,-5.5,-3.5Z" class="gi_359"/>
<path d="M205.6,106.2h19.7v31.5H199.5V112.3c0,-3.4,2.7,-6.1,6.1,-6.1Z" class="g1_359"/>
<path d="M205.6,106.2v.5h19.2v30.5H200V112.3c0,-1.6,.7,-2.9,1.7,-3.9c1,-1,2.3,-1.7,3.9,-1.7v-1c-3.7,0,-6.6,2.9,-6.6,6.6v25.4c0,.1,.1,.3,.2,.4c0,.1,.2,.1,.3,.1h25.8c.1,0,.2,0,.3,-.1c.1,-.1,.2,-.3,.2,-.4V106.2c0,-.1,-.1,-.2,-.2,-.3c-.1,-.1,-.2,-.2,-.3,-.2H205.6Z" class="gf_359"/>
<path d="M225.3,131.7v6H199.5c0,-3.3,2.7,-6,6.1,-6Z" class="g1_359"/>
<path d="M225.3,131.7h-.5v5.5H199.5v.5h.5c0,-1.5,.7,-2.9,1.7,-3.9c1,-1,2.3,-1.6,3.9,-1.6h19.7v-.5h-.5h.5v-.6H205.6c-3.7,0,-6.6,3,-6.6,6.6c0,.1,.1,.3,.2,.4c0,.1,.2,.1,.3,.1h25.8c.1,0,.2,0,.3,-.1c.1,-.1,.2,-.3,.2,-.4v-6c0,-.2,-.1,-.3,-.2,-.4c-.1,-.1,-.2,-.2,-.3,-.2Z" class="gf_359"/>
<path d="M221.8,110.9H204.6m17.2,2.8H204.6m17.2,2.9H204.6m17.2,2.9H204.6m17.2,2.8H204.6m17.2,2.9H204.6m17.2,2.8H204.6" class="gg_359"/>
<path clip-path="url(#c2_359)" d="M200.1,137.2h24.7v-5H200.1v5Z" class="gh_359"/>
<path clip-path="url(#c3_359)" d="M200.1,137.2c.1,-1.3,.7,-2.5,1.6,-3.4c1,-1,2.3,-1.6,3.9,-1.6h19.2v5Zm25.2,-5.5H205.6c-3.4,0,-6.1,2.7,-6.1,6h25.8v-6h-.5h.5Z" class="gi_359"/>
<path d="M199.5,108.8v34.3" class="gg_359"/>
<path d="M217.2,145.5h3.3V134.7h-3.3v10.8Z" class="gj_359"/>
<path d="M154.1,1243.9h713V1121h-713v122.9Z" class="gk_359"/>
<path d="M154.1,1125.6v116m4.6,2.3H864.9m2.2,-4.5V1123.3m-4.5,-2.3H156.4" class="gl_359"/>
<path d="M154.1,1243.9v0m713.1,0v0m0,-122.9v0m-713.1,0v0" class="gm_359"/>
<path d="M153.3,1124.3v-28.7c0,0,0,-8.6,8.7,-8.6H859.3c0,0,8.6,0,8.6,8.6v29.2Z" class="gn_359"/>
<path d="M195.5,1091.1c3.4,0,6.1,-2.8,6.1,-6.1c0,-3.4,-2.7,-6.1,-6.1,-6.1c-3.4,0,-6.1,2.7,-6.1,6.1c0,3.3,2.7,6.1,6.1,6.1Z" class="go_359"/>
<path d="M195.5,1093c4.4,0,8,-3.6,8,-8c0,-4.5,-3.6,-8.1,-8,-8.1c-4.4,0,-8,3.6,-8,8.1c0,4.4,3.6,8,8,8m0,-14.1c3.4,0,6.1,2.7,6.1,6.1c0,3.3,-2.7,6.1,-6.1,6.1c-3.4,0,-6.1,-2.8,-6.1,-6.1c0,-3.4,2.7,-6.1,6.1,-6.1Z" class="gp_359"/>
<path d="M180.9,1107.1h29.2v-3.8c0,-4.4,-3.5,-8,-7.9,-8H188.8c-4.3,0,-7.9,3.6,-7.9,8Z" class="go_359"/>
<path d="M172.6,1112.4h45.8V1109H172.6v3.4Z" class="g1_359"/>
<path d="M219.4,1107.1h-2.7v-11.6c0,-.2,-.1,-.5,-.3,-.6l-2.6,-2.6c.3,-.6,.5,-1.2,.5,-1.8c0,-2,-1.6,-3.6,-3.6,-3.6c-2,0,-3.6,1.6,-3.6,3.6c0,2,1.6,3.6,3.6,3.6c.7,0,1.3,-.2,1.8,-.5l2.3,2.3v11.2H212v-3.8c0,-5.5,-4.4,-9.9,-9.8,-9.9H188.8c-5.4,0,-9.8,4.4,-9.8,9.9v3.8h-7.4c-.5,0,-.9,.4,-.9,.9v5.4c0,.5,.4,.9,.9,.9h2.7v11.3c0,.6,.4,1,.9,1h40.6c.5,0,.9,-.4,.9,-1v-11.3h2.7c.5,0,.9,-.4,.9,-.9V1108c0,-.5,-.4,-.9,-.9,-.9m-8.7,-14.9c-.9,0,-1.7,-.8,-1.7,-1.7c0,-.9,.8,-1.7,1.7,-1.7c.9,0,1.7,.8,1.7,1.7c0,.9,-.8,1.7,-1.7,1.7m7.7,20.2H172.6V1109h45.8Zm-3.6,12.3H176.2v-10.4h38.6v10.4Zm-26,-29.4h13.4c4.4,0,7.9,3.6,7.9,8v3.8H180.9v-3.8c0,-4.4,3.6,-8,7.9,-8Z" class="gp_359"/>
<path d="M176.2,1124.7h38.6v-10.4H176.2v10.4Zm2.8,-7.6c0,-.2,.2,-.4,.5,-.4h32c.3,0,.5,.2,.5,.4v4.8c0,.2,-.2,.4,-.5,.4h-32c-.3,0,-.5,-.2,-.5,-.4Z" class="g1_359"/>
<path d="M180,1121.4h31v-3.8H180v3.8Z" class="gq_359"/>
<path d="M179.5,1122.3h32c.3,0,.5,-.2,.5,-.4v-4.8c0,-.2,-.2,-.4,-.5,-.4h-32c-.3,0,-.5,.2,-.5,.4v4.8c0,.2,.2,.4,.5,.4m.5,-4.7h31v3.8H180Z" class="gp_359"/>
<path d="M212.4,1090.5c0,-.9,-.8,-1.7,-1.7,-1.7c-.9,0,-1.7,.8,-1.7,1.7c0,.9,.8,1.7,1.7,1.7c.9,0,1.7,-.8,1.7,-1.7Z" class="g1_359"/>
<path d="M32.1,45.1H9.2m958.3,0h22.9M32.1,1331.3H9.2m958.3,0h22.9M45.1,32.1V9.2m0,1335.1v22.9M954.5,32.1V9.2m0,1335.1v22.9" class="gr_359"/>
<path d="M32.1,45.1H9.2m958.3,0h22.9M32.1,1331.3H9.2m958.3,0h22.9M45.1,32.1V9.2m0,1335.1v22.9M954.5,32.1V9.2m0,1335.1v22.9" class="gs_359"/>
<path d="M27.5,32.1H0m972.1,0h27.5M27.5,1344.3H0m972.1,0h27.5M32.1,27.5V0m0,1348.9v27.5M967.5,27.5V0m0,1348.9v27.5" class="gr_359"/>
<path d="M27.5,32.1H0m972.1,0h27.5M27.5,1344.3H0m972.1,0h27.5M32.1,27.5V0m0,1348.9v27.5M967.5,27.5V0m0,1348.9v27.5" class="gs_359"/>
</svg>