<?xml version="1.0" encoding="UTF-8" standalone="no"?>
<!DOCTYPE svg PUBLIC "-//W3C//DTD SVG 1.1//EN"
"http://www.w3.org/Graphics/SVG/1.1/DTD/svg11.dtd">
<svg viewBox="0 0 999 1376" version="1.1" xmlns="http://www.w3.org/2000/svg" xmlns:xlink="http://www.w3.org/1999/xlink">
<defs>
<clipPath id="c0_349"><path d="M153.3,1244.7V133H867.9V1244.7Z"/></clipPath>
<clipPath id="c1_349"><path d="M257.8,629.3c-28.7,0,-51.9,-23.3,-51.9,-52c0,-28.7,23.2,-51.9,51.9,-51.9c28.7,0,52,23.2,52,51.9c0,28.7,-23.3,52,-52,52Z"/></clipPath>
<clipPath id="c2_349"><path d="M382.5,629.3c-28.7,0,-52,-23.3,-52,-52c0,-28.7,23.3,-51.9,52,-51.9c28.7,0,51.9,23.2,51.9,51.9c0,28.7,-23.2,52,-51.9,52Z"/></clipPath>
<clipPath id="c3_349"><path d="M507.1,629.3c-28.7,0,-52,-23.3,-52,-52c0,-28.7,23.3,-51.9,52,-51.9c28.7,0,52,23.2,52,51.9c0,28.7,-23.3,52,-52,52Z"/></clipPath>
<clipPath id="c4_349"><path d="M631.7,629.3c-28.7,0,-51.9,-23.3,-51.9,-52c0,-28.7,23.2,-51.9,51.9,-51.9c28.7,0,52,23.2,52,51.9c0,28.7,-23.3,52,-52,52Z"/></clipPath>
<clipPath id="c5_349"><path d="M756.4,629.3c-28.7,0,-52,-23.3,-52,-52c0,-28.7,23.3,-51.9,52,-51.9c28.7,0,51.9,23.2,51.9,51.9c0,28.7,-23.2,52,-51.9,52Z"/></clipPath>
<clipPath id="c6_349"><path d="M257.8,859.9c-28.7,0,-51.9,-23.3,-51.9,-52c0,-28.7,23.2,-52,51.9,-52c28.7,0,52,23.3,52,52c0,28.7,-23.3,52,-52,52Z"/></clipPath>
<clipPath id="c7_349"><path d="M382.5,859.9c-28.7,0,-52,-23.3,-52,-52c0,-28.7,23.3,-52,52,-52c28.7,0,51.9,23.3,51.9,52c0,28.7,-23.2,52,-51.9,52Z"/></clipPath>
<clipPath id="c8_349"><path d="M507.1,859.9c-28.7,0,-52,-23.3,-52,-52c0,-28.7,23.3,-52,52,-52c28.7,0,52,23.3,52,52c0,28.7,-23.3,52,-52,52Z"/></clipPath>
<clipPath id="c9_349"><path d="M631.7,859.9c-28.7,0,-51.9,-23.3,-51.9,-52c0,-28.7,23.2,-52,51.9,-52c28.7,0,52,23.3,52,52c0,28.7,-23.3,52,-52,52Z"/></clipPath>
<clipPath id="ca_349"><path d="M756.4,859.9c-28.7,0,-52,-23.3,-52,-52c0,-28.7,23.3,-52,52,-52c28.7,0,51.9,23.3,51.9,52c0,28.7,-23.2,52,-51.9,52Z"/></clipPath>
<clipPath id="cb_349"><path d="M257.8,1041.8c-28.7,0,-51.9,-23.3,-51.9,-52c0,-28.7,23.2,-51.9,51.9,-51.9c28.7,0,52,23.2,52,51.9c0,28.7,-23.3,52,-52,52Z"/></clipPath>
<clipPath id="cc_349"><path d="M382.5,1041.8c-28.7,0,-52,-23.3,-52,-52c0,-28.7,23.3,-51.9,52,-51.9c28.7,0,51.9,23.2,51.9,51.9c0,28.7,-23.2,52,-51.9,52Z"/></clipPath>
<clipPath id="cd_349"><path d="M507.1,1041.8c-28.7,0,-52,-23.3,-52,-52c0,-28.7,23.3,-51.9,52,-51.9c28.7,0,52,23.2,52,51.9c0,28.7,-23.3,52,-52,52Z"/></clipPath>
<clipPath id="ce_349"><path d="M631.7,1041.8c-28.7,0,-51.9,-23.3,-51.9,-52c0,-28.7,23.2,-51.9,51.9,-51.9c28.7,0,52,23.2,52,51.9c0,28.7,-23.3,52,-52,52Z"/></clipPath>
<clipPath id="cf_349"><path d="M756.4,1041.8c-28.7,0,-52,-23.3,-52,-52c0,-28.7,23.3,-51.9,52,-51.9c28.7,0,51.9,23.2,51.9,51.9c0,28.7,-23.2,52,-51.9,52Z"/></clipPath>
<style type="text/css"><![CDATA[
.g0_349{
fill: #FFF;
}
.g1_349{
fill: none;
stroke: #231F20;
stroke-width: 0.756;
stroke-miterlimit: 3;
}
.g2_349{
fill: #25408F;
}
.g3_349{
fill: #6381B7;
}
.g4_349{
fill: #FFDE2C;
}
.g5_349{
fill: none;
stroke: #231F20;
stroke-width: 1.451;
stroke-miterlimit: 10;
}
.g6_349{
fill: #D2D3D5;
}
.g7_349{
fill: #A8AAAD;
}
.g8_349{
fill: none;
stroke: #231F20;
stroke-width: 0.828;
stroke-miterlimit: 10;
}
.g9_349{
fill: #6CCFF6;
}
.ga_349{
fill: none;
stroke: #231F20;
stroke-width: 0.828;
stroke-linecap: round;
stroke-linejoin: round;
}
.gb_349{
fill: none;
stroke: #231F20;
stroke-width: 1.451;
stroke-linecap: round;
stroke-linejoin: round;
}
.gc_349{
fill: none;
stroke: #FFF;
stroke-width: 1.909;
stroke-miterlimit: 10;
}
.gd_349{
fill: none;
stroke: #000;
stroke-width: 0.381;
stroke-miterlimit: 10;
}
]]></style>
</defs>
<path d="M153.3,1244.7H867.9V133H153.3V1244.7Z" class="g0_349"/>
<image clip-path="url(#c0_349)" preserveAspectRatio="none" x="151" y="131" width="719" height="1116" xlink:href="img/1.jpg"/>
<path d="M415.5,212.1H405.4v4.2h4.9c.8,0,1.4,.2,1.7,.6c.3,.4,.4,1,.4,1.7l-.3,6.8h-2v-6.5c0,-.3,0,-.5,-.2,-.6c-.1,-.1,-.3,-.2,-.5,-.2H396.6v-1.8h6.5v-4.2h-8.9v-1.8h15.1c.3,-1.1,.5,-2.3,.6,-3.6c.1,-1.2,.2,-2.4,.2,-3.5c0,-.3,-.1,-.5,-.2,-.6c-.1,-.1,-.3,-.1,-.6,-.1H397v-1.8h12.9c.9,0,1.4,.1,1.8,.4c.4,.4,.6,.9,.6,1.6c0,1.1,0,2.3,-.2,3.7c-.2,1.3,-.4,2.6,-.6,3.9h4v1.8Zm1.6,4.9c2.3,-1.9,4.1,-4,5.5,-6.1c1.3,-2.1,2.1,-4.3,2.5,-6.4c0,-.2,0,-.4,-.2,-.5c-.1,-.1,-.3,-.2,-.5,-.2H418V202h7.4c.6,0,1.1,.2,1.5,.5c.4,.3,.5,.9,.4,1.6c-.1,1.3,-.4,2.5,-.8,3.7c-.5,1.2,-1,2.4,-1.7,3.5c.6,.2,1.1,.5,1.4,.8c.4,.3,.7,.6,1,.9c.4,.7,.9,1.4,1.3,2.1c.5,.7,1,1.5,1.5,2.4l-1.6,1.2c-.6,-.9,-1.1,-1.7,-1.6,-2.5c-.4,-.7,-.9,-1.4,-1.2,-1.9c-.2,-.3,-.5,-.5,-.8,-.7c-.2,-.3,-.6,-.5,-1.1,-.7c-.8,1.1,-1.6,2.1,-2.5,3c-.9,1,-1.8,1.9,-2.7,2.8L417.1,217Zm14.7,6V211h-4.1v-2h4.1v-8H434v22h-2.2Zm5.3,-22h2.2v22.6h-2.2V201ZM454.3,204.6h12.4v1.7H454.3v1.8c0,.2,.1,.4,.2,.5c.1,.2,.3,.2,.7,.2h5.4c1,0,2.1,0,3.3,-.1c1.1,-.1,2.2,-.2,3.3,-.5l.4,1.8c-1.2,.2,-2.4,.4,-3.6,.5c-1.3,.1,-2.5,.1,-3.6,.1h-5.1c-1,0,-1.8,-.1,-2.4,-.4c-.5,-.3,-.8,-1,-.8,-2.1v-7.6h14.8v1.8H454.3v2.3Zm12.9,20.8h-1.9V220c0,-.3,-.1,-.5,-.2,-.6c-.1,0,-.3,-.1,-.6,-.1h-13v-1.8h13.9c.9,0,1.4,.2,1.7,.6c.3,.3,.5,.8,.4,1.3l-.3,6Zm3.1,-10.7H449v-1.8h21.3v1.8Zm20,.6v9.4c0,.2,0,.4,-.1,.6c-.1,.1,-.3,.1,-.6,.1H477.3c-.9,0,-1.6,-.1,-2.1,-.4c-.4,-.4,-.6,-1,-.6,-1.9v-7.8h2.2v2.9h11.3v-2.9h2.2Zm3,-3.2H472v-1.8h15.1c.3,-1.1,.4,-2.3,.6,-3.6c.1,-1.2,.2,-2.4,.2,-3.5c0,-.3,-.1,-.5,-.2,-.6c-.1,-.1,-.3,-.1,-.6,-.1H474.8v-1.8h12.9c.8,0,1.4,.1,1.8,.4c.4,.4,.6,.9,.6,1.6c0,1.1,0,2.3,-.2,3.7c-.2,1.3,-.4,2.6,-.7,3.9h4.1v1.8Zm-5.2,11.6V220H476.8v3c0,.2,.1,.4,.2,.5c.1,.1,.2,.2,.5,.2h10.6Zm29.6,-12.9c-1.3,1.1,-3.1,1.6,-5.3,1.6c-2.3,0,-4.1,-.5,-5.4,-1.6c-1.3,-1.1,-1.9,-2.5,-1.9,-4.3c0,-1.7,.6,-3.1,1.9,-4.2c1.3,-1.1,3.1,-1.7,5.4,-1.7c2.2,0,4,.6,5.3,1.7c1.3,1.1,2,2.5,2,4.2c0,1.8,-.7,3.2,-2,4.3ZM516,203.5c-1,-.7,-2.2,-1,-3.6,-1c-1.4,0,-2.6,.3,-3.6,1c-1,.7,-1.5,1.7,-1.5,3c0,1.4,.5,2.4,1.5,3c1,.7,2.2,1.1,3.6,1.1c1.4,0,2.6,-.4,3.6,-1.1c.9,-.6,1.4,-1.6,1.4,-3c0,-1.3,-.5,-2.3,-1.4,-3Zm-4.7,20.9v-7.3h-9.5v-1.8h21.4v1.8h-9.6v7.3h-2.3Zm29.3,-11c-.8,.2,-1.5,.4,-2.1,.4c-.6,.1,-1.3,.1,-2.1,.1H525v-1.7h3.3c-.2,-.6,-.4,-1.1,-.5,-1.5c-.1,-.5,-.2,-1,-.2,-1.6v-4.5h2.2v4.5c0,.5,.1,1,.1,1.4c.1,.5,.3,1.1,.5,1.7h3.3c.2,-.5,.4,-1,.4,-1.6c.1,-.5,.2,-1,.2,-1.5v-4.5h2.2v4.5c0,.5,-.1,1,-.2,1.5c-.1,.6,-.3,1.1,-.5,1.6h.5c.6,0,1.2,0,1.9,-.1c.7,-.1,1.4,-.2,2,-.4l.4,1.7Zm-1.7,-4.7h4v-2.6h-4v-1.7h4v-3.7h2.3v16.9h-2.3v-7.1h-4v-1.8Zm-6.7,16.5c-.8,0,-1.4,-.2,-1.8,-.6c-.4,-.4,-.6,-.9,-.6,-1.6v-6.4h2.3v6c0,.2,0,.4,.2,.6c.1,.1,.3,.2,.6,.2H540c1.1,0,2,-.1,2.9,-.2c.8,-.1,1.7,-.4,2.7,-.7l.5,1.8c-1.1,.3,-2.1,.5,-3,.6c-1,.2,-2,.3,-3,.3h-7.9Zm-6.9,-23.8h13.6v1.8H525.3v-1.8ZM567.5,208.1h5.6V201h2.3v22.6h-2.3V210h-5.6v-1.9Zm-4.8,-6.6c.2,.7,.4,1.4,.6,2.2c.1,.8,.2,1.7,.2,2.5c0,.6,-.1,1.3,-.2,2c-.1,.6,-.2,1.2,-.4,1.9c.7,.1,1.2,.3,1.7,.6c.5,.3,.9,.6,1.2,1c.5,.8,1.1,1.7,1.7,2.7c.7,1,1.4,2.1,2.1,3.2l-1.8,1.2c-.3,-.5,-.6,-1,-1,-1.6c-.3,-.5,-.7,-1,-1,-1.6c-.3,-.5,-.6,-1,-.9,-1.4c-.3,-.5,-.6,-.9,-.9,-1.2c-.2,-.2,-.4,-.4,-.7,-.6c-.2,-.2,-.6,-.4,-1.1,-.6c-.7,1.3,-1.5,2.5,-2.5,3.7c-1,1.1,-2.2,2.3,-3.7,3.3L554.7,217c2.3,-1.6,4,-3.3,5,-5.1c1,-1.9,1.5,-3.8,1.5,-5.7c0,-.6,-.1,-1.3,-.2,-2c-.1,-.7,-.3,-1.3,-.6,-1.9l2.3,-.8Zm28.7,.4v14.5c-.8,.5,-1.8,.9,-3,1.3c-1.2,.3,-2.3,.5,-3.2,.5h-3.4c-.8,0,-1.4,-.2,-1.9,-.6c-.4,-.4,-.6,-1,-.6,-1.9V201.9h2.3v6.2h7.5v-6.2h2.3Zm5,-.9h2.3v22.6h-2.3V201Zm-9.5,15.1c.8,-.2,1.5,-.4,2.2,-.8V210h-7.5v5.5c0,.3,0,.5,.1,.7c.1,.1,.3,.2,.6,.2h2.6c.6,0,1.3,-.1,2,-.3Zm25.8,-11.9c0,.5,0,.9,-.1,1.3c0,.4,-.1,.8,-.2,1.1c.8,.1,1.6,.3,2.2,.6c.6,.2,1.2,.6,1.7,1c.4,.3,.8,.6,1.2,1c.4,.4,.8,.7,1.3,1.1c.4,.5,.9,.9,1.4,1.3c.4,.4,.9,.9,1.4,1.3l-1.4,1.6c-.9,-.8,-1.8,-1.7,-2.8,-2.5c-.9,-.9,-1.7,-1.6,-2.4,-2.2c-.4,-.3,-.8,-.5,-1.3,-.8c-.5,-.2,-1.2,-.4,-2,-.6c-.3,.6,-.6,1.1,-1,1.6c-.4,.4,-.9,.9,-1.4,1.3c-.8,.7,-1.6,1.3,-2.6,1.8c-1,.5,-2.1,1,-3.3,1.4l-.7,-2c1,-.3,2,-.7,2.9,-1.2c.9,-.5,1.7,-1.1,2.3,-1.6c.9,-.8,1.5,-1.6,1.9,-2.4c.4,-.9,.6,-1.9,.6,-3.2v-.8c0,-.2,0,-.5,-.1,-.8c0,-.3,-.1,-.7,-.2,-1l2.3,-.6c.1,.3,.2,.6,.2,1c.1,.4,.1,.8,.1,1.2v1.1Zm10,16.1H601.4v-1.8h21.3v1.8Z" class="g1_349"/>
<image clip-path="url(#c1_349)" preserveAspectRatio="none" x="204" y="524" width="108" height="107" xlink:href="img/2.jpg"/>
<image clip-path="url(#c2_349)" preserveAspectRatio="none" x="329" y="524" width="107" height="107" xlink:href="img/3.jpg"/>
<image clip-path="url(#c3_349)" preserveAspectRatio="none" x="453" y="524" width="108" height="107" xlink:href="img/4.jpg"/>
<image clip-path="url(#c4_349)" preserveAspectRatio="none" x="578" y="524" width="107" height="107" xlink:href="img/5.jpg"/>
<image clip-path="url(#c5_349)" preserveAspectRatio="none" x="703" y="524" width="107" height="107" xlink:href="img/6.jpg"/>
<image clip-path="url(#c6_349)" preserveAspectRatio="none" x="204" y="754" width="107" height="108" xlink:href="img/7.jpg"/>
<image clip-path="url(#c7_349)" preserveAspectRatio="none" x="329" y="754" width="107" height="108" xlink:href="img/8.jpg"/>
<image clip-path="url(#c8_349)" preserveAspectRatio="none" x="453" y="754" width="108" height="108" xlink:href="img/9.jpg"/>
<image clip-path="url(#c9_349)" preserveAspectRatio="none" x="578" y="754" width="108" height="108" xlink:href="img/10.jpg"/>
<image clip-path="url(#ca_349)" preserveAspectRatio="none" x="703" y="754" width="107" height="108" xlink:href="img/11.jpg"/>
<image clip-path="url(#cb_349)" preserveAspectRatio="none" x="204" y="936" width="108" height="107" xlink:href="img/12.jpg"/>
<image clip-path="url(#cc_349)" preserveAspectRatio="none" x="329" y="936" width="107" height="107" xlink:href="img/13.jpg"/>
<image clip-path="url(#cd_349)" preserveAspectRatio="none" x="454" y="936" width="107" height="107" xlink:href="img/14.jpg"/>
<image clip-path="url(#ce_349)" preserveAspectRatio="none" x="578" y="936" width="108" height="107" xlink:href="img/15.jpg"/>
<image clip-path="url(#cf_349)" preserveAspectRatio="none" x="703" y="936" width="107" height="107" xlink:href="img/16.jpg"/>
<path d="M153.3,126.3v22.2L165,158.7V136.5Z" class="g2_349"/>
<path d="M153.3,109.5v39H851.1c0,0,16.8,0,16.8,-16.8v-5.4c0,0,0,-16.8,-16.8,-16.8Z" class="g3_349"/>
<path d="M207.2,115.7c0,-9.1,-7.9,-16.6,-17.7,-16.6c-9.8,0,-17.7,7.5,-17.7,16.6c0,2.7,.6,5.2,1.8,7.4c1.2,2.4,2.9,4.6,5,6.2c1.2,1,1.6,1.7,1.7,4.3v.6c0,3.3,2.7,5.9,5.9,5.9h6.6c3.2,0,5.8,-2.6,5.8,-5.9v-.6c.2,-2.6,.6,-3.3,1.8,-4.3c2.1,-1.6,3.8,-3.8,5,-6.2c1.2,-2.2,1.8,-4.7,1.8,-7.4Z" class="g4_349"/>
<path d="M207.2,115.7c0,-9.1,-7.9,-16.6,-17.7,-16.6c-9.8,0,-17.7,7.5,-17.7,16.6c0,2.7,.6,5.2,1.8,7.4c1.2,2.4,2.9,4.6,5,6.2c1.2,1,1.6,1.7,1.7,4.3v.6c0,3.3,2.7,5.9,5.9,5.9h6.6c3.2,0,5.8,-2.6,5.8,-5.9v-.6c.2,-2.6,.6,-3.3,1.8,-4.3c2.1,-1.6,3.8,-3.8,5,-6.2c1.2,-2.2,1.8,-4.7,1.8,-7.4Z" class="g5_349"/>
<path d="M194.6,147.4c0,2.8,-2.3,5.1,-5.1,5.1c-2.8,0,-5.1,-2.3,-5.1,-5.1c0,-2.8,2.3,-5.1,5.1,-5.1c2.8,0,5.1,2.3,5.1,5.1Z" class="g0_349"/>
<path d="M194.6,147.4c0,2.8,-2.3,5.1,-5.1,5.1c-2.8,0,-5.1,-2.3,-5.1,-5.1c0,-2.8,2.3,-5.1,5.1,-5.1c2.8,0,5.1,2.3,5.1,5.1Z" class="g5_349"/>
<path d="M182.1,140.2c0,1,.8,1.8,1.8,1.8h11.2c1,0,1.8,-.8,1.8,-1.8v-1.3H182.1Z" class="g0_349"/>
<path d="M182.1,140.2c0,1,.8,1.8,1.8,1.8h11.2c1,0,1.8,-.8,1.8,-1.8v-1.3H182.1v1.3Z" class="g5_349"/>
<path d="M196.9,143.2c0,.8,-.6,1.3,-1.3,1.3H183.4c-.8,0,-1.3,-.5,-1.3,-1.3c0,-.7,.5,-1.3,1.3,-1.3h12.2c.7,0,1.3,.6,1.3,1.3Z" class="g0_349"/>
<path d="M196.9,143.2c0,.8,-.6,1.3,-1.3,1.3H183.4c-.8,0,-1.3,-.5,-1.3,-1.3c0,-.7,.5,-1.3,1.3,-1.3h12.2c.7,0,1.3,.6,1.3,1.3Z" class="g5_349"/>
<path d="M196.9,145.8c0,.7,-.6,1.3,-1.3,1.3H183.4c-.8,0,-1.3,-.6,-1.3,-1.3c0,-.7,.5,-1.3,1.3,-1.3h12.2c.7,0,1.3,.6,1.3,1.3Z" class="g0_349"/>
<path d="M196.9,145.8c0,.7,-.6,1.3,-1.3,1.3H183.4c-.8,0,-1.3,-.6,-1.3,-1.3c0,-.7,.5,-1.3,1.3,-1.3h12.2c.7,0,1.3,.6,1.3,1.3Z" class="g5_349"/>
<path d="M215.5,128.7l8.3,10.4c.6,.7,1.8,.6,2.7,-.2c.9,-.7,1.2,-1.9,.7,-2.6l-8.9,-10.2Z" class="g6_349"/>
<path d="M215.5,128.7l8.3,10.4c.6,.7,1.8,.6,2.7,-.2c.9,-.7,1.2,-1.9,.7,-2.6l-8.9,-10.2l-2.8,2.6Z" class="g5_349"/>
<path d="M217.5,125.1c.5,.6,.3,1.8,-.7,2.6c-.9,.7,-2.1,.8,-2.6,.2c-.6,-.7,-.3,-1.9,.6,-2.6c.9,-.8,2.1,-.9,2.7,-.2Z" class="g7_349"/>
<path d="M217.5,125.1c.5,.6,.3,1.8,-.7,2.6c-.9,.7,-2.1,.8,-2.6,.2c-.6,-.7,-.3,-1.9,.6,-2.6c.9,-.8,2.1,-.9,2.7,-.2Z" class="g5_349"/>
<path d="M212.7,124.7l1.7,2c.3,.3,1,.3,1.5,-.1c.5,-.5,.7,-1.1,.4,-1.5l-1.7,-2Z" class="g0_349"/>
<path d="M212.7,124.7l1.7,2c.3,.3,1,.3,1.5,-.1c.5,-.5,.7,-1.1,.4,-1.5l-1.7,-2l-1.9,1.6Z" class="g8_349"/>
<path d="M214.8,122.9c.4,.5,.2,1.3,-.5,1.8c-.6,.5,-1.4,.6,-1.8,.1c-.4,-.4,-.2,-1.2,.5,-1.7c.6,-.6,1.4,-.6,1.8,-.2Z" class="g0_349"/>
<path d="M214.8,122.9c.4,.5,.2,1.3,-.5,1.8c-.6,.5,-1.4,.6,-1.8,.1c-.4,-.4,-.2,-1.2,.5,-1.7c.6,-.6,1.4,-.6,1.8,-.2Z" class="g8_349"/>
<path d="M216.4,105.4c4.8,5.7,4.1,14.2,-1.7,19c-5.7,4.8,-14.2,4,-19,-1.7c-4.8,-5.7,-4,-14.2,1.7,-19c5.7,-4.8,14.2,-4.1,19,1.7Z" class="g0_349"/>
<path d="M216.4,105.4c4.8,5.7,4.1,14.2,-1.7,19c-5.7,4.8,-14.2,4,-19,-1.7c-4.8,-5.7,-4,-14.2,1.7,-19c5.7,-4.8,14.2,-4.1,19,1.7Z" class="g5_349"/>
<path d="M214,107.4c3.5,4.2,3,10.5,-1.3,14.1c-4.2,3.5,-10.5,2.9,-14,-1.3c-3.5,-4.2,-3,-10.5,1.2,-14c4.2,-3.6,10.5,-3,14.1,1.2Z" class="g9_349"/>
<path d="M214,107.4c3.5,4.2,3,10.5,-1.3,14.1c-4.2,3.5,-10.5,2.9,-14,-1.3c-3.5,-4.2,-3,-10.5,1.2,-14c4.2,-3.6,10.5,-3,14.1,1.2Z" class="g5_349"/>
<path d="M213,110.6l-3.1,3m3.1,-.4l-3.1,3" class="ga_349"/>
<path d="M172.1,99l3.1,3.3m1.1,-5.9l1.2,3.9m-8.1,3l3.7,1.2" class="gb_349"/>
<path d="M185.8,106.1c1.2,1.2,.2,4.3,-2.2,6.7c-2.5,2.5,-5.5,3.5,-6.8,2.3c-1.2,-1.3,-.3,-4.3,2.2,-6.8c2.5,-2.5,5.5,-3.5,6.8,-2.2Z" class="g0_349"/>
<path d="M203.7,107.6c.6,.6,.1,1.9,-.9,3c-1.1,1,-2.4,1.5,-3,.9c-.5,-.5,-.1,-1.8,1,-2.9c1.1,-1.1,2.4,-1.5,2.9,-1Z" class="g0_349"/>
<path d="M32.1,45.1H9.2m958.3,0h22.9M32.1,1331.3H9.2m958.3,0h22.9M45.1,32.1V9.2m0,1335.1v22.9M954.5,32.1V9.2m0,1335.1v22.9" class="gc_349"/>
<path d="M32.1,45.1H9.2m958.3,0h22.9M32.1,1331.3H9.2m958.3,0h22.9M45.1,32.1V9.2m0,1335.1v22.9M954.5,32.1V9.2m0,1335.1v22.9" class="gd_349"/>
<path d="M27.5,32.1H0m972.1,0h27.5M27.5,1344.3H0m972.1,0h27.5M32.1,27.5V0m0,1348.9v27.5M967.5,27.5V0m0,1348.9v27.5" class="gc_349"/>
<path d="M27.5,32.1H0m972.1,0h27.5M27.5,1344.3H0m972.1,0h27.5M32.1,27.5V0m0,1348.9v27.5M967.5,27.5V0m0,1348.9v27.5" class="gd_349"/>
</svg>