<?xml version="1.0" encoding="UTF-8" standalone="no"?>
<!DOCTYPE svg PUBLIC "-//W3C//DTD SVG 1.1//EN"
"http://www.w3.org/Graphics/SVG/1.1/DTD/svg11.dtd">
<svg viewBox="0 0 999 1376" version="1.1" xmlns="http://www.w3.org/2000/svg" xmlns:xlink="http://www.w3.org/1999/xlink">
<defs>
<clipPath id="c0_35"><path d="M32.1,1344.3V32.1H967.5V1344.3Z"/></clipPath>
<clipPath id="c1_35"><path d="M203,362.9l-6.5,-2l-14,-11.3V288.7h62.7v74.2Z"/></clipPath>
<clipPath id="c2_35"><path d="M32.1,1344.3V416.2H47.4v928.1Z"/></clipPath>
<style type="text/css"><![CDATA[
.g0_35{
fill: #FFFDEA;
}
.g1_35{
fill: #BCE4EA;
}
.g2_35{
fill: #BCBEC0;
}
.g3_35{
fill: #00AABD;
}
.g4_35{
fill: #FCDCBA;
}
.g5_35{
fill: #DED3E8;
}
.g6_35{
fill: #FFF;
}
.g7_35{
fill: none;
stroke: #6D6F71;
stroke-width: 0.305;
stroke-miterlimit: 10;
}
.g8_35{
fill: none;
stroke: #FFF;
stroke-width: 1.909;
stroke-miterlimit: 10;
}
.g9_35{
fill: none;
stroke: #000;
stroke-width: 0.381;
stroke-miterlimit: 10;
}
]]></style>
</defs>
<g clip-path="url(#c0_35)">
<path d="M-877.3,1344.3H967.5V32.1H-877.3V1344.3Z" class="g0_35"/>
<path d="M-877.3,179.3H967.5V32.1H-877.3V179.3Z" class="g1_35"/>
<path d="M967.5,177.2H-877.3v-5.4h736.6c43.1,0,53.1,-37.9,115.3,-37.9H967.5Z" class="g2_35"/>
<path d="M967.5,183.7H-877.3v-9.8h736.6c43.1,0,53.1,-33.6,115.3,-33.6H967.5Z" class="g3_35"/>
</g>
<path d="M235.6,317.9c0,0,-13,0,-13,13v21.6c0,0,0,13,13,13H854.7c0,0,13,0,13,-13V330.9c0,0,0,-13,-13,-13Z" class="g4_35"/>
<image clip-path="url(#c1_35)" preserveAspectRatio="none" x="182" y="288" width="63" height="76" xlink:href="img/1.png"/>
<path d="M230.4,358.2c0,0,-26.8,11.3,-51.1,-12.8c0,0,15.2,25.3,49.3,24c0,0,24.8,.3,20.3,-10.1c0,0,1.2,-4.5,-18.5,-1.1Z" class="g4_35"/>
<path d="M179.5,399.6h75.8v43.3H179.5V399.6Zm75.8,0H367.9v43.3H255.3V399.6Zm112.6,0H867.8v43.3H367.9V399.6Z" class="g5_35"/>
<path d="M179.5,442.9h75.8v65H179.5v-65Zm75.8,0H367.9v65H255.3v-65Zm112.6,0h83.3v65H367.9v-65Zm83.3,0h83.3v65H451.2v-65Zm83.3,0h83.3v65H534.5v-65Zm83.3,0h83.3v65H617.8v-65Zm83.3,0h83.3v65H701.1v-65Zm83.3,0h83.4v65H784.4v-65Zm-604.9,65h75.8v64.9H179.5V507.9Zm75.8,0H367.9v64.9H255.3V507.9Zm112.6,0h83.3v64.9H367.9V507.9Zm83.3,0h83.3v64.9H451.2V507.9Zm83.3,0h83.3v64.9H534.5V507.9Zm83.3,0h83.3v64.9H617.8V507.9Zm83.3,0h83.3v64.9H701.1V507.9Zm83.3,0h83.4v64.9H784.4V507.9ZM179.5,572.8h75.8v65H179.5v-65Zm75.8,0H367.9v65H255.3v-65Zm112.6,0h83.3v65H367.9v-65Zm83.3,0h83.3v65H451.2v-65Zm83.3,0h83.3v65H534.5v-65Zm83.3,0h83.3v65H617.8v-65Zm83.3,0h83.3v65H701.1v-65Zm83.3,0h83.4v65H784.4v-65Zm-604.9,65h75.8v64.9H179.5V637.8Zm75.8,0H367.9v64.9H255.3V637.8Zm112.6,0h83.3v64.9H367.9V637.8Zm83.3,0h83.3v64.9H451.2V637.8Zm83.3,0h83.3v64.9H534.5V637.8Zm83.3,0h83.3v64.9H617.8V637.8Zm83.3,0h83.3v64.9H701.1V637.8Zm83.3,0h83.4v64.9H784.4V637.8ZM179.5,702.7h75.8v65H179.5v-65Zm75.8,0H367.9v65H255.3v-65Zm112.6,0h83.3v65H367.9v-65Zm83.3,0h83.3v65H451.2v-65Zm83.3,0h83.3v65H534.5v-65Zm83.3,0h83.3v65H617.8v-65Zm83.3,0h83.3v65H701.1v-65Zm83.3,0h83.4v65H784.4v-65Zm-604.9,65h75.8v65H179.5v-65Zm75.8,0H367.9v65H255.3v-65Zm112.6,0h83.3v65H367.9v-65Zm83.3,0h83.3v65H451.2v-65Zm83.3,0h83.3v65H534.5v-65Zm83.3,0h83.3v65H617.8v-65Zm83.3,0h83.3v65H701.1v-65Zm83.3,0h83.4v65H784.4v-65Zm-604.9,65h75.8v64.9H179.5V832.7Zm75.8,0H367.9v64.9H255.3V832.7Zm112.6,0h83.3v64.9H367.9V832.7Zm83.3,0h83.3v64.9H451.2V832.7Zm83.3,0h83.3v64.9H534.5V832.7Zm83.3,0h83.3v64.9H617.8V832.7Zm83.3,0h83.3v64.9H701.1V832.7Zm83.3,0h83.4v64.9H784.4V832.7ZM179.5,897.6h75.8v65H179.5v-65Zm75.8,0H367.9v65H255.3v-65Zm112.6,0h83.3v65H367.9v-65Zm83.3,0h83.3v65H451.2v-65Zm83.3,0h83.3v65H534.5v-65Zm83.3,0h83.3v65H617.8v-65Zm83.3,0h83.3v65H701.1v-65Zm83.3,0h83.4v65H784.4v-65Zm-604.9,65h75.8v64.9H179.5V962.6Zm75.8,0H367.9v64.9H255.3V962.6Zm112.6,0h83.3v64.9H367.9V962.6Zm83.3,0h83.3v64.9H451.2V962.6Zm83.3,0h83.3v64.9H534.5V962.6Zm83.3,0h83.3v64.9H617.8V962.6Zm83.3,0h83.3v64.9H701.1V962.6Zm83.3,0h83.4v64.9H784.4V962.6Zm-604.9,64.9h75.8v65H179.5v-65Zm75.8,0H367.9v65H255.3v-65Zm112.6,0h83.3v65H367.9v-65Zm83.3,0h83.3v65H451.2v-65Zm83.3,0h83.3v65H534.5v-65Zm83.3,0h83.3v65H617.8v-65Zm83.3,0h83.3v65H701.1v-65Zm83.3,0h83.4v65H784.4v-65Zm-604.9,65h75.8v65H179.5v-65Zm75.8,0H367.9v65H255.3v-65Zm112.6,0h83.3v65H367.9v-65Zm83.3,0h83.3v65H451.2v-65Zm83.3,0h83.3v65H534.5v-65Zm83.3,0h83.3v65H617.8v-65Zm83.3,0h83.3v65H701.1v-65Zm83.3,0h83.4v65H784.4v-65Z" class="g6_35"/>
<path d="M179.5,507.7V443m75.8,64.7V443m112.6,64.7V443m83.3,64.7V443m83.3,64.7V443m83.3,64.7V443m83.3,64.7V443m83.3,64.7V443m83.4,64.7V443M179.3,507.9h76m-75.8,64.8V508m75.8,-.1H367.9M255.3,572.7V508m112.6,-.1h83.3m-83.3,64.8V508m83.3,-.1h83.3m-83.3,64.8V508m83.3,-.1h83.3m-83.3,64.8V508m83.3,-.1h83.3m-83.3,64.8V508m83.3,-.1h83.3m-83.3,64.8V508m83.3,-.1h83.5m-83.5,64.8V508m83.4,64.7V508M179.3,572.8h76m-75.8,64.8V573m75.8,-.2H367.9M255.3,637.6V573m112.6,-.2h83.3m-83.3,64.8V573m83.3,-.2h83.3m-83.3,64.8V573m83.3,-.2h83.3m-83.3,64.8V573m83.3,-.2h83.3m-83.3,64.8V573m83.3,-.2h83.3m-83.3,64.8V573m83.3,-.2h83.5m-83.5,64.8V573m83.4,64.6V573M179.3,637.8h76m-75.8,64.8V637.9m75.8,-.1H367.9M255.3,702.6V637.9m112.6,-.1h83.3m-83.3,64.8V637.9m83.3,-.1h83.3m-83.3,64.8V637.9m83.3,-.1h83.3m-83.3,64.8V637.9m83.3,-.1h83.3m-83.3,64.8V637.9m83.3,-.1h83.3m-83.3,64.8V637.9m83.3,-.1h83.5m-83.5,64.8V637.9m83.4,64.7V637.9M179.3,702.7h76m-75.8,64.8V702.9m75.8,-.2H367.9M255.3,767.5V702.9m112.6,-.2h83.3m-83.3,64.8V702.9m83.3,-.2h83.3m-83.3,64.8V702.9m83.3,-.2h83.3m-83.3,64.8V702.9m83.3,-.2h83.3m-83.3,64.8V702.9m83.3,-.2h83.3m-83.3,64.8V702.9m83.3,-.2h83.5m-83.5,64.8V702.9m83.4,64.6V702.9M179.3,767.7h76m-75.8,64.8V767.8m75.8,-.1H367.9M255.3,832.5V767.8m112.6,-.1h83.3m-83.3,64.8V767.8m83.3,-.1h83.3m-83.3,64.8V767.8m83.3,-.1h83.3m-83.3,64.8V767.8m83.3,-.1h83.3m-83.3,64.8V767.8m83.3,-.1h83.3m-83.3,64.8V767.8m83.3,-.1h83.5m-83.5,64.8V767.8m83.4,64.7V767.8M179.3,832.7h76m-75.8,64.8V832.8m75.8,-.1H367.9M255.3,897.5V832.8m112.6,-.1h83.3m-83.3,64.8V832.8m83.3,-.1h83.3m-83.3,64.8V832.8m83.3,-.1h83.3m-83.3,64.8V832.8m83.3,-.1h83.3m-83.3,64.8V832.8m83.3,-.1h83.3m-83.3,64.8V832.8m83.3,-.1h83.5m-83.5,64.8V832.8m83.4,64.7V832.8M179.3,897.6h76m-75.8,64.8V897.8m75.8,-.2H367.9M255.3,962.4V897.8m112.6,-.2h83.3m-83.3,64.8V897.8m83.3,-.2h83.3m-83.3,64.8V897.8m83.3,-.2h83.3m-83.3,64.8V897.8m83.3,-.2h83.3m-83.3,64.8V897.8m83.3,-.2h83.3m-83.3,64.8V897.8m83.3,-.2h83.5m-83.5,64.8V897.8m83.4,64.6V897.8M179.3,962.6h76m-75.8,64.8V962.7m75.8,-.1H367.9m-112.6,64.8V962.7m112.6,-.1h83.3m-83.3,64.8V962.7m83.3,-.1h83.3m-83.3,64.8V962.7m83.3,-.1h83.3m-83.3,64.8V962.7m83.3,-.1h83.3m-83.3,64.8V962.7m83.3,-.1h83.3m-83.3,64.8V962.7m83.3,-.1h83.5m-83.5,64.8V962.7m83.4,64.7V962.7m-688.5,64.8h76m-75.8,64.8v-64.6m75.8,-.2H367.9m-112.6,64.8v-64.6m112.6,-.2h83.3m-83.3,64.8v-64.6m83.3,-.2h83.3m-83.3,64.8v-64.6m83.3,-.2h83.3m-83.3,64.8v-64.6m83.3,-.2h83.3m-83.3,64.8v-64.6m83.3,-.2h83.3m-83.3,64.8v-64.6m83.3,-.2h83.5m-83.5,64.8v-64.6m83.4,64.6v-64.6m-688.5,64.8h76m-75.8,64.8v-64.7m75.8,-.1H367.9m-112.6,64.8v-64.7m112.6,-.1h83.3m-83.3,64.8v-64.7m83.3,-.1h83.3m-83.3,64.8v-64.7m83.3,-.1h83.3m-83.3,64.8v-64.7m83.3,-.1h83.3m-83.3,64.8v-64.7m83.3,-.1h83.3m-83.3,64.8v-64.7m83.3,-.1h83.5m-83.5,64.8v-64.7m83.4,64.7v-64.7m-688.5,64.9h76m0,0H367.9m0,0h83.3m0,0h83.3m0,0h83.3m0,0h83.3m0,0h83.3m0,0h83.5M179.3,399.6h76m-75.8,43.1v-43m-.2,43.2h76m0,-43.3H367.9M255.3,442.7v-43m0,43.2H367.9m0,-43.3h83.3m-83.3,43.1v-43m83.3,-.1h83.3m0,0h83.3m0,0h83.3m0,0h83.3m0,0h83.5m-.1,43.1v-43M367.9,442.9h83.3m0,0h83.3m0,0h83.3m0,0h83.3m0,0h83.3m0,0h83.5" class="g7_35"/>
<image clip-path="url(#c2_35)" preserveAspectRatio="none" x="0" y="417" width="47" height="929" xlink:href="img/2.png"/>
<path d="M32.1,45.1H9.2m958.3,0h22.9M32.1,1331.3H9.2m958.3,0h22.9M45.1,32.1V9.2m0,1335.1v22.9M954.5,32.1V9.2m0,1335.1v22.9" class="g8_35"/>
<path d="M32.1,45.1H9.2m958.3,0h22.9M32.1,1331.3H9.2m958.3,0h22.9M45.1,32.1V9.2m0,1335.1v22.9M954.5,32.1V9.2m0,1335.1v22.9" class="g9_35"/>
<path d="M27.5,32.1H0m972.1,0h27.5M27.5,1344.3H0m972.1,0h27.5M32.1,27.5V0m0,1348.9v27.5M967.5,27.5V0m0,1348.9v27.5" class="g8_35"/>
<path d="M27.5,32.1H0m972.1,0h27.5M27.5,1344.3H0m972.1,0h27.5M32.1,27.5V0m0,1348.9v27.5M967.5,27.5V0m0,1348.9v27.5" class="g9_35"/>
</svg>