<?xml version="1.0" encoding="UTF-8" standalone="no"?>
<!DOCTYPE svg PUBLIC "-//W3C//DTD SVG 1.1//EN"
"http://www.w3.org/Graphics/SVG/1.1/DTD/svg11.dtd">
<svg viewBox="0 0 999 1376" version="1.1" xmlns="http://www.w3.org/2000/svg" xmlns:xlink="http://www.w3.org/1999/xlink">
<defs>
<clipPath id="c0_153"><path d="M198.2,238.6l-6.5,-2.1L175.3,222.6V165.5h72v73.1Z"/></clipPath>
<clipPath id="c1_153"><path d="M198.2,780.4l-6.5,-2.1L175.3,764.4V707.3h72v73.1Z"/></clipPath>
<clipPath id="c2_153"><path d="M660.8,462.5V244.2h236V462.5Z"/></clipPath>
<clipPath id="c3_153"><path d="M655.3,469.3V239.9H900.6V469.3Z"/></clipPath>
<clipPath id="c4_153"><path d="M677.1,680.2V456.9H933.9V680.2Z"/></clipPath>
<clipPath id="c5_153"><path d="M668.2,691.1V449.6H938.8V691.1Z"/></clipPath>
<clipPath id="c6_153"><path d="M786.5,132.5V120.1H801v12.4Z"/></clipPath>
<clipPath id="c7_153"><path d="M770.2,262.8c-.2,-.1,3.6,-8.3,3.6,-8.3l.8,.6c0,0,-4.1,7.7,-4.4,7.7Z"/></clipPath>
<clipPath id="c8_153"><path d="M777.7,255c0,0,-6.8,-1.1,-7.5,-5.2c-.7,-3.6,1.5,-3.8,2,-3.8c.1,0,.2,0,.2,0l8.3,-12.7l-1.5,-3.1c0,0,-.6,-1.2,.2,-2.1c0,-.1,.1,-.1,.3,-.1c2.1,0,12.9,5.5,12.9,5.5l.1,.2c-.4,.5,-.8,1.1,-1.4,1.6c-.7,.5,-5.1,1.2,-5.1,1.2L777.7,255Z"/></clipPath>
<clipPath id="c9_153"><path d="M777.3,254.7c.2,-.5,.2,-1.8,0,-2.3V251c-1.5,-.5,-2.8,-1.2,-3.6,-2.5c-1.1,.6,-2.1,1.3,-3.2,1.9c1.6,2.1,3.9,3.6,6.8,4.3Zm0,-3.9c2.2,-4.6,4,-9.5,6.2,-14.1c-.9,-.4,-1.9,-1.3,-2.6,-1.4c-2.3,4.4,-4.6,8.7,-7.1,12.8c.7,1.4,2.1,2.1,3.5,2.7ZM770,262.9c1.1,-2.9,2.5,-5.5,3.6,-8.3c-2,-1.6,-4,-3.2,-4.4,-6.2v-1.5c-.1,-2.7,1.9,-3.4,4.5,-3.4c.1,0,.2,0,.2,0c2,-3.3,4.3,-6.3,6.2,-9.7c-.6,-.8,-1.2,-2.3,-.9,-3.6c.5,1.2,1.6,1.9,2.4,2.9c-.1,.6,-.3,1.1,-.4,1.7c.6,.7,1.4,1.2,2.4,1.4c.5,-.4,.5,-1.2,1.2,-1.5c.9,.4,1.8,.8,3.1,.8c.1,.1,.5,.1,.8,.1c.4,0,.7,0,.8,-.1c.1,0,.2,0,.3,0c.3,0,.5,-.1,.6,-.1c.2,-.1,.4,-.2,.6,-.2c.1,0,.2,.1,.3,.1c-1.3,.7,-2.2,1.8,-4.2,1.8c-.1,0,-.2,0,-.3,0c-.9,3.7,-1.9,7.3,-2.7,11.2c.6,1,1.5,1.7,1.3,3.1c-.5,2.7,-3.9,4.4,-7.2,4.4c-1.3,0,-2.5,-.2,-3.6,-.7c-1,2.1,-2.1,4.1,-3.3,6c0,-.4,.3,-.4,.3,-.8c.9,-1.8,1.9,-3.6,2.6,-5.6c-1.1,1.7,-1.8,3.7,-2.8,5.5c-.2,.4,-.4,.8,-.6,1.3c-.3,.4,-.3,1.1,-.8,1.4Z"/></clipPath>
<clipPath id="ca_153"><path d="M787.8,235.1c-4.8,0,-13.1,-7.3,-5.6,-8.8h1.3c.2,0,.3,0,.5,0q.1,0,.2,0c.3,0,.7,0,1.1,.1c3,.7,8.2,3.8,7.5,7c-.2,1.2,-1.6,1.6,-3.1,1.7h-1.8c0,0,-.1,0,-.1,0Z"/></clipPath>
<clipPath id="cb_153"><path d="M784.2,480.3c-.2,-.1,3.6,-8.2,3.6,-8.2l.8,.5c0,0,-4.1,7.7,-4.4,7.7Z"/></clipPath>
<clipPath id="cc_153"><path d="M791.7,472.6c0,0,-6.8,-1.1,-7.5,-5.2c-.7,-3.6,1.5,-3.9,2,-3.9c.1,0,.2,0,.2,0l8.3,-12.7l-1.5,-3.1c0,0,-.6,-1.1,.2,-2c0,-.1,.1,-.1,.3,-.1c2.1,0,12.9,5.5,12.9,5.5l.1,.1c-.4,.6,-.8,1.2,-1.4,1.7c-.7,.5,-5.1,1.1,-5.1,1.1l-8.5,18.6Z"/></clipPath>
<clipPath id="cd_153"><path d="M791.3,472.2c.2,-.4,.2,-1.8,0,-2.2v-1.4c-1.5,-.5,-2.8,-1.2,-3.6,-2.5c-1.1,.6,-2.1,1.2,-3.2,1.9c1.6,2.1,3.9,3.5,6.8,4.2Zm0,-3.9c2.2,-4.5,4,-9.5,6.2,-14c-.9,-.4,-1.9,-1.3,-2.6,-1.4c-2.3,4.3,-4.6,8.6,-7.1,12.8c.7,1.3,2.1,2,3.5,2.6ZM784,480.4c1.1,-2.9,2.4,-5.5,3.6,-8.3c-2,-1.5,-4,-3.1,-4.4,-6.1v-1.6c-.1,-2.7,1.9,-3.3,4.6,-3.3c0,0,.1,0,.1,0c2,-3.4,4.3,-6.4,6.2,-9.7c-.6,-.9,-1.2,-2.4,-.9,-3.7c.5,1.3,1.6,1.9,2.4,2.9c-.1,.6,-.3,1.2,-.4,1.8c.6,.7,1.4,1.2,2.4,1.4c.5,-.5,.5,-1.3,1.1,-1.5c1,.3,1.9,.7,3.2,.7c.1,.1,.5,.2,.8,.2c.3,0,.7,-.1,.8,-.2c.1,0,.2,.1,.3,.1c.3,0,.5,-.1,.6,-.2c.2,0,.4,-.1,.6,-.1c.1,0,.2,0,.3,.1c-1.3,.6,-2.2,1.8,-4.2,1.8c-.1,0,-.2,0,-.3,-.1c-.9,3.8,-1.9,7.4,-2.7,11.2c.6,1.1,1.5,1.7,1.3,3.2c-.5,2.7,-3.9,4.4,-7.2,4.4c-1.3,0,-2.5,-.3,-3.6,-.8c-1,2.1,-2.1,4.1,-3.3,6c0,-.3,.3,-.3,.3,-.7c.9,-1.8,1.9,-3.6,2.6,-5.7c-1.1,1.8,-1.8,3.7,-2.8,5.6c-.2,.4,-.4,.8,-.6,1.2c-.3,.4,-.3,1.2,-.8,1.4Z"/></clipPath>
<clipPath id="ce_153"><path d="M801.8,452.6c-4.8,0,-13.1,-7.3,-5.6,-8.8h1.3c.2,.1,.4,.1,.7,.1q.1,0,.2,0c.3,0,.5,0,.8,.1c3.1,.6,8.3,3.8,7.6,7c-.3,1.2,-1.6,1.6,-3.2,1.6h-1.7c0,0,-.1,0,-.1,0Z"/></clipPath>
<clipPath id="cf_153"><path d="M177.9,1183.4v-77.6H281.8v77.6Z"/></clipPath>
<clipPath id="cg_153"><path d="M179.7,1180.3v-73.1H279.9v73.1Z"/></clipPath>
<clipPath id="ch_153"><path d="M177.9,1063V985.4H281.8V1063Z"/></clipPath>
<clipPath id="ci_153"><path d="M179.7,1060.9V987.7H279.9v73.2Z"/></clipPath>
<clipPath id="cj_153"><path d="M356.9,1183.4v-77.6H460.8v77.6Z"/></clipPath>
<clipPath id="ck_153"><path d="M358.6,1181.1V1108H458.8v73.1Z"/></clipPath>
<clipPath id="cl_153"><path d="M356.9,1063V985.4H460.8V1063Z"/></clipPath>
<clipPath id="cm_153"><path d="M358.6,1060.4V987.3H458.8v73.1Z"/></clipPath>
<clipPath id="cn_153"><path d="M535,1183.4v-77.6H640.7v77.6Z"/></clipPath>
<clipPath id="co_153"><path d="M537.3,1181.1V1108H637.5v73.1Z"/></clipPath>
<clipPath id="cp_153"><path d="M535,1063V985.4H640.7V1063Z"/></clipPath>
<clipPath id="cq_153"><path d="M537.8,1060.4V987.3H638v73.1Z"/></clipPath>
<clipPath id="cr_153"><path d="M714.4,1063V985.4h105V1063Z"/></clipPath>
<clipPath id="cs_153"><path d="M717.1,1060.8V987.7H817.2v73.1Z"/></clipPath>
<clipPath id="ct_153"><path d="M717.3,1180.3v-71.4h99.2v71.4Z"/></clipPath>
<style type="text/css"><![CDATA[
.g0_153{
fill: #FEFCF4;
}
.g1_153{
fill: #FFF;
}
.g2_153{
fill: none;
stroke: #6381B7;
stroke-width: 0.763;
}
.g3_153{
fill: #6381B7;
}
.g4_153{
fill: none;
stroke: #6381B7;
stroke-width: 0.381;
stroke-dasharray: 2,1;
}
.g5_153{
fill: none;
stroke: #6381B7;
stroke-width: 0.381;
}
.g6_153{
fill: #FCE8B0;
}
.g7_153{
fill: none;
stroke: #949698;
stroke-width: 0.305;
stroke-dasharray: 3,3;
}
.g8_153{
fill: none;
stroke: #949698;
stroke-width: 0.305;
}
.g9_153{
fill: #F7C2D9;
}
.ga_153{
fill: #FDF4F3;
}
.gb_153{
fill: #EC008C;
}
.gc_153{
fill: none;
stroke: #949698;
stroke-width: 0.305;
stroke-dasharray: 4,4;
}
.gd_153{
fill: #6D6F71;
}
.ge_153{
fill: none;
stroke: #949698;
stroke-width: 0.275;
stroke-dasharray: 4,4;
}
.gf_153{
fill: none;
stroke: #949698;
stroke-width: 0.275;
}
.gg_153{
fill: #25408F;
}
.gh_153{
fill: #A8AAAD;
}
.gi_153{
fill: none;
stroke: #949698;
stroke-width: 0.549;
}
.gj_153{
fill: none;
stroke: #BCBEC0;
stroke-width: 2.566;
}
.gk_153{
fill: #231F20;
}
.gl_153{
fill: #363637;
}
.gm_153{
fill: #5CC4BE;
}
.gn_153{
fill: #EAD646;
}
.go_153{
fill: #CFD1D2;
}
.gp_153{
fill: #F0F6E2;
}
.gq_153{
fill: none;
stroke: #949698;
stroke-width: 1.191;
}
.gr_153{
fill: none;
stroke: #FFF;
stroke-width: 2.383;
}
.gs_153{
fill: none;
stroke: #00ABE5;
stroke-width: 2.291;
}
.gt_153{
fill: #3D3B39;
}
.gu_153{
fill: #E5E9B7;
}
.gv_153{
fill: #61C7CB;
}
.gw_153{
fill: none;
stroke: #00ABE5;
stroke-width: 1.527;
stroke-linecap: round;
stroke-linejoin: round;
stroke-dasharray: 0,5;
}
.gx_153{
fill: none;
stroke: #00ABE5;
stroke-width: 1.527;
stroke-linecap: round;
stroke-linejoin: round;
}
.gy_153{
fill: none;
stroke: #FFF;
stroke-width: 1.909;
stroke-miterlimit: 10;
}
.gz_153{
fill: none;
stroke: #000;
stroke-width: 0.381;
stroke-miterlimit: 10;
}
]]></style>
</defs>
<path d="M45.1,1344.3H967.5V32.1H45.1V1344.3Z" class="g0_153"/>
<path d="M172.5,126.3c0,0,-18.3,0,-18.3,18.4V661.2c0,0,0,18.4,18.3,18.4H849.6c0,0,18.3,0,18.3,-18.4V126.3Z" class="g1_153"/>
<path d="M172.5,126.3c0,0,-18.3,0,-18.3,18.4V661.2c0,0,0,18.4,18.3,18.4H849.6c0,0,18.3,0,18.3,-18.4V126.3H172.5Z" class="g2_153"/>
<path d="M167.2,695.2c0,0,-13,0,-13,13V845.5c0,0,0,13,13,13H854.9c0,0,13,0,13,-13V708.2c0,0,0,-13,-13,-13Z" class="g1_153"/>
<path d="M167.2,695.2c0,0,-13,0,-13,13V845.5c0,0,0,13,13,13H854.9c0,0,13,0,13,-13V708.2c0,0,0,-13,-13,-13H167.2Z" class="g2_153"/>
<path d="M565.1,873.3c0,0,-4.3,0,-4.3,4.4v10.8c0,0,0,4.3,4.3,4.3h30.4c0,0,4.3,0,4.3,-4.3V877.7c0,0,0,-4.4,-4.3,-4.4Z" class="g3_153"/>
<path d="M552,865.9v36.7m1.3,1H866.8m.9,-1.4V865.5m-1.3,-1H552.9" class="g4_153"/>
<path d="M552,903v.6h.5m314.6,0h.6V903m0,-37.9v-.6h-.6m-314.6,0H552v.6" class="g5_153"/>
<path d="M230.9,194.5c0,0,-13,0,-13,13v21.6c0,0,0,13,13,13H832.8c0,0,13,0,13,-13V207.5c0,0,0,-13,-13,-13Z" class="g6_153"/>
<image clip-path="url(#c0_153)" preserveAspectRatio="none" x="174" y="164" width="75" height="76" xlink:href="img/1.png"/>
<path d="M225.7,233.9c0,0,-26.9,11.3,-51.1,-12.7c0,0,15.1,25.3,49.2,23.9c0,0,24.8,.4,20.3,-10.1c0,0,1.2,-4.5,-18.4,-1.1Z" class="g6_153"/>
<path d="M230.9,736.3c0,0,-13,0,-13,13v21.6c0,0,0,13,13,13H832.8c0,0,13,0,13,-13V749.3c0,0,0,-13,-13,-13Z" class="g6_153"/>
<image clip-path="url(#c1_153)" preserveAspectRatio="none" x="174" y="706" width="75" height="76" xlink:href="img/2.png"/>
<path d="M225.7,775.7c0,0,-26.9,11.3,-51.1,-12.8c0,0,15.1,25.4,49.2,24c0,0,24.8,.4,20.3,-10.1c0,0,1.2,-4.5,-18.4,-1.1Z" class="g6_153"/>
<path d="M442.3,355.4c14.8,-.8,26.6,-5.5,29.4,-11.6M471,337c-3.8,-5.7,-15.7,-9.9,-30.2,-10.4m-7.1,0c-14.8,.8,-26.7,5.5,-29.5,11.6m.7,6.8c3.9,5.7,15.8,10,30.2,10.4" class="g7_153"/>
<path d="M472.2,342.4c.1,-.4,.2,-.9,.2,-1.4c0,-.5,-.1,-.9,-.2,-1.4M439.4,326.5c-.5,0,-.9,0,-1.4,0c-.5,0,-1,0,-1.4,0m-32.8,13.1c-.2,.5,-.2,.9,-.2,1.4c0,.5,0,1,.2,1.4m32.8,13.1c.4,0,.9,0,1.4,0c.5,0,.9,0,1.4,0" class="g8_153"/>
<image clip-path="url(#c2_153)" preserveAspectRatio="none" x="661" y="244" width="235" height="219" xlink:href="img/3.png"/>
<path d="M665.7,252.3l1.1,204.1l223.7,-2.8l-1,-204.1Z" class="g9_153"/>
<image clip-path="url(#c3_153)" preserveAspectRatio="none" x="655" y="240" width="245" height="230" xlink:href="img/4.png"/>
<path d="M660.1,258.6L672.3,463l161,-11.1l61.5,-19.3l-11.4,-188Z" class="ga_153"/>
<path d="M894.8,432.5l-62,19.5l41,-40.3Z" class="gb_153"/>
<path d="M465,327.3c13.9,-8.1,26.6,-10.1,32.1,-10.6" class="g7_153"/>
<path d="M504.8,316.6c13.1,.2,49.5,-.5,65.5,-14" class="gc_153"/>
<path d="M571.6,296.1c-1.1,-2.3,-3.5,-4.1,-8.7,-.6m-2.6,6c.8,4.6,5.8,9.9,28.9,-2" class="g7_153"/>
<path d="M595.4,295.5c10.1,-7.2,40.2,-26.3,76.6,-30.8" class="gc_153"/>
<path d="M461.3,329.6c.4,-.3,.8,-.5,1.2,-.8m36.1,-12.2c.9,-.1,1.5,-.1,1.5,-.1c0,0,.5,0,1.5,.1m69.8,-15.1c.4,-.4,.8,-.8,1.2,-1.1c0,0,0,-.6,-.2,-1.5m-10.7,-2.5c-.4,.2,-.8,.5,-1.2,.9c0,0,-.1,.5,-.2,1.4m30.2,.1c.4,-.2,.8,-.4,1.3,-.6c0,0,.4,-.4,1.2,-1m80.5,-32.7c.5,0,1,-.1,1.5,-.1" class="g8_153"/>
<path d="M677.6,260.4l-1,8.9L692.3,265Z" class="gd_153"/>
<path d="M552.1,422.7c3.8,-1.5,6.7,-4.8,7.7,-8.8m-.5,-8.5c-1.6,-3.8,-4.8,-6.7,-8.9,-7.8m-8.5,.6c-3.8,1.5,-6.7,4.8,-7.7,8.8m.5,8.5c1.6,3.8,4.9,6.7,8.9,7.8" class="ge_153"/>
<path d="M560.2,412.2c.1,-.6,.1,-1.2,.1,-1.7c0,-.6,0,-1.2,-.1,-1.8M548.7,397.3c-.5,-.1,-1.1,-.1,-1.7,-.1c-.6,0,-1.2,0,-1.7,.1m-11.5,11.4c0,.6,-.1,1.2,-.1,1.8c0,.5,.1,1.1,.1,1.7m11.5,11.4c.5,.1,1.1,.1,1.7,.1c.6,0,1.2,0,1.7,-.1" class="gf_153"/>
<image clip-path="url(#c4_153)" preserveAspectRatio="none" x="677" y="457" width="256" height="223" xlink:href="img/5.png"/>
<path d="M682.2,472.1L689,674.3l238.7,-9.9L920.9,462.1Z" class="g9_153"/>
<image clip-path="url(#c5_153)" preserveAspectRatio="none" x="668" y="450" width="270" height="241" xlink:href="img/6.png"/>
<path d="M673.1,480.4l20.4,204.7L882.7,664.6l50,-16.6L913.4,454.3Z" class="ga_153"/>
<path d="M932.7,648l-50.4,16.7l36.9,-30.1Z" class="gb_153"/>
<path d="M550.3,426.9c4,10.8,16,39.5,33.3,44.8m6.3,-1.9c1.5,-1.8,1.8,-4.6,-3.4,-8" class="g7_153"/>
<path d="M582.1,469.8c3.4,5.5,12.5,14.9,36.3,20.8m7.7,1.6c8.1,1.5,25.6,3.8,42.1,.1" class="gc_153"/>
<path d="M548.8,422.7c0,0,.2,.5,.5,1.4m35.7,48c.5,.1,1,.2,1.5,.3c0,0,.5,-.3,1.2,-.7m-2.4,-10.6c-.4,-.2,-.8,-.5,-1.2,-.7c0,0,-.8,.1,-1.7,.6m-2.1,2.8c-.1,.5,-.2,1,-.2,1.7c0,0,.1,.5,.5,1.5m39.3,23.9c.5,.1,1,.3,1.5,.4c0,0,.6,.1,1.6,.3m46.8,.3c.5,-.1,1,-.2,1.5,-.4" class="g8_153"/>
<path d="M663.1,489.4l2.1,7.2l8.4,-5.6Z" class="gd_153"/>
<path d="M153.3,111.9v39L165,161.2V117Z" class="gg_153"/>
<path d="M153.3,111.9v39H851.1c0,0,16.8,0,16.8,-16.8v-5.3c0,0,0,-16.9,-16.8,-16.9Z" class="g3_153"/>
<path d="M802.6,145.6c8.2,0,14.9,-6.5,14.9,-14.5c0,-8.1,-6.7,-14.5,-14.9,-14.5c-8.2,0,-14.9,6.4,-14.9,14.5c0,8,6.7,14.5,14.9,14.5Z" class="gh_153"/>
<path d="M802.6,145.6c8.2,0,14.9,-6.5,14.9,-14.5c0,-8.1,-6.7,-14.5,-14.9,-14.5c-8.2,0,-14.9,6.4,-14.9,14.5c0,8,6.7,14.5,14.9,14.5Z" class="gi_153"/>
<path d="M802.6,136.4c3,0,5.5,-2.4,5.5,-5.3c0,-3,-2.5,-5.4,-5.5,-5.4c-3,0,-5.5,2.4,-5.5,5.4c0,2.9,2.5,5.3,5.5,5.3Z" class="g1_153"/>
<path d="M802.6,136.4c3,0,5.5,-2.4,5.5,-5.3c0,-3,-2.5,-5.4,-5.5,-5.4c-3,0,-5.5,2.4,-5.5,5.4c0,2.9,2.5,5.3,5.5,5.3Z" class="gj_153"/>
<g clip-path="url(#c6_153)" opacity="0.3">
<path d="M788,130.3c0,0,0,-4.8,3.7,-8.7l7.7,6.8c0,0,-1,.9,-1,2.6Z" class="g1_153"/>
</g>
<path d="M807.2,131c0,0,-3.5,0,-3.5,3.4v8.7c0,0,0,3.5,3.5,3.5h43.5c0,0,3.5,0,3.5,-3.5v-8.7c0,0,0,-3.4,-3.5,-3.4Z" class="gk_153"/>
<path d="M191.2,122c0,-8.3,-6.8,-15,-15.1,-15c-8.3,0,-15,6.7,-15,15c0,8.3,6.7,15.1,15,15.1c.8,0,1.7,-.1,2.4,-.2l4.5,5.2v-6.7c4.9,-2.5,8.2,-7.6,8.2,-13.4Z" class="g1_153"/>
<path d="M183.5,143.3l-5.1,-5.9c-.8,.1,-1.5,.1,-2.3,.1c-8.5,0,-15.5,-6.9,-15.5,-15.5c0,-8.5,7,-15.5,15.5,-15.5c8.6,0,15.5,7,15.5,15.5c0,5.7,-3.1,11,-8.1,13.7Zm-4.8,-6.9l3.9,4.5v-5.8l.2,-.1c4.9,-2.5,7.9,-7.5,7.9,-13c0,-8,-6.5,-14.6,-14.6,-14.6c-8,0,-14.6,6.6,-14.6,14.6c0,8.1,6.6,14.6,14.6,14.6c.8,0,1.6,-.1,2.4,-.2Z" class="gl_153"/>
<path d="M169.1,121.6c.8,0,1.4,.6,1.4,1.4c0,.8,-.6,1.5,-1.4,1.5c-.8,0,-1.4,-.7,-1.4,-1.5c0,-.8,.6,-1.4,1.4,-1.4Z" class="gm_153"/>
<path d="M169.1,124.9c-1,0,-1.9,-.8,-1.9,-1.9c0,-1,.9,-1.9,1.9,-1.9c1,0,1.9,.9,1.9,1.9c0,1.1,-.9,1.9,-1.9,1.9m0,-2.9c-.5,0,-1,.5,-1,1c0,.6,.5,1,1,1c.5,0,1,-.4,1,-1c0,-.5,-.5,-1,-1,-1Z" class="gl_153"/>
<path d="M176.1,121.6c.8,0,1.5,.6,1.5,1.4c0,.8,-.7,1.5,-1.5,1.5c-.8,0,-1.4,-.7,-1.4,-1.5c0,-.8,.6,-1.4,1.4,-1.4Z" class="gm_153"/>
<path d="M176.1,124.9c-1,0,-1.9,-.8,-1.9,-1.9c0,-1,.9,-1.9,1.9,-1.9c1.1,0,1.9,.9,1.9,1.9c0,1.1,-.8,1.9,-1.9,1.9m0,-2.9c-.5,0,-1,.5,-1,1c0,.6,.5,1,1,1c.6,0,1,-.4,1,-1c0,-.5,-.4,-1,-1,-1Z" class="gl_153"/>
<path d="M183.1,121.6c.8,0,1.5,.6,1.5,1.4c0,.8,-.7,1.5,-1.5,1.5c-.8,0,-1.4,-.7,-1.4,-1.5c0,-.8,.6,-1.4,1.4,-1.4Z" class="gm_153"/>
<path d="M183.1,124.9c-1,0,-1.9,-.8,-1.9,-1.9c0,-1,.9,-1.9,1.9,-1.9c1.1,0,1.9,.9,1.9,1.9c0,1.1,-.8,1.9,-1.9,1.9m0,-2.9c-.5,0,-1,.5,-1,1c0,.6,.5,1,1,1c.6,0,1,-.4,1,-1c0,-.5,-.4,-1,-1,-1Z" class="gl_153"/>
<path d="M185.1,136.3c0,-9.8,7.8,-17.7,17.6,-17.7c9.7,0,17.6,7.9,17.6,17.7c0,9.7,-7.9,17.6,-17.6,17.6c-1,0,-1.9,-.1,-2.9,-.3l-5.2,6.1v-7.8c-5.7,-2.9,-9.5,-8.8,-9.5,-15.6Z" class="gn_153"/>
<path d="M194.6,160.2q-.1,0,-.2,0c-.2,-.1,-.3,-.3,-.3,-.5v-7.5c-5.9,-3.2,-9.5,-9.2,-9.5,-15.9c0,-10,8.1,-18.1,18.1,-18.1c9.9,0,18,8.1,18,18.1c0,9.9,-8.1,18,-18,18c-.9,0,-1.8,0,-2.7,-.2l-5.1,5.9c-.1,.1,-.2,.2,-.3,.2m8.1,-41.1c-9.5,0,-17.2,7.7,-17.2,17.2c0,6.4,3.6,12.2,9.3,15.2c.1,.1,.2,.2,.2,.4v6.6l4.5,-5.2c.1,-.1,.3,-.1,.4,-.1c1,.1,1.9,.2,2.8,.2c9.4,0,17.1,-7.7,17.1,-17.1c0,-9.5,-7.7,-17.2,-17.1,-17.2Z" class="gl_153"/>
<path d="M210.9,135.8c.9,0,1.6,.7,1.6,1.6c0,1,-.7,1.7,-1.6,1.7c-1,0,-1.7,-.7,-1.7,-1.7c0,-.9,.7,-1.6,1.7,-1.6Z" class="g1_153"/>
<path d="M210.9,139.6c-1.2,0,-2.2,-1,-2.2,-2.2c0,-1.1,1,-2.1,2.2,-2.1c1.1,0,2.1,1,2.1,2.1c0,1.2,-1,2.2,-2.1,2.2m0,-3.4c-.7,0,-1.3,.6,-1.3,1.2c0,.7,.6,1.3,1.3,1.3c.6,0,1.2,-.6,1.2,-1.3c0,-.6,-.6,-1.2,-1.2,-1.2Z" class="gl_153"/>
<path d="M202.7,135.8c.9,0,1.6,.7,1.6,1.6c0,1,-.7,1.7,-1.6,1.7c-1,0,-1.7,-.7,-1.7,-1.7c0,-.9,.7,-1.6,1.7,-1.6Z" class="g1_153"/>
<path d="M202.7,139.6c-1.2,0,-2.2,-1,-2.2,-2.2c0,-1.1,1,-2.1,2.2,-2.1c1.1,0,2.1,1,2.1,2.1c0,1.2,-1,2.2,-2.1,2.2m0,-3.4c-.7,0,-1.3,.6,-1.3,1.2c0,.7,.6,1.3,1.3,1.3c.6,0,1.2,-.6,1.2,-1.3c0,-.6,-.6,-1.2,-1.2,-1.2Z" class="gl_153"/>
<path d="M194.5,135.8c.9,0,1.6,.7,1.6,1.6c0,1,-.7,1.7,-1.6,1.7c-1,0,-1.7,-.7,-1.7,-1.7c0,-.9,.7,-1.6,1.7,-1.6Z" class="g1_153"/>
<path d="M194.5,139.6c-1.2,0,-2.2,-1,-2.2,-2.2c0,-1.1,1,-2.1,2.2,-2.1c1.1,0,2.1,1,2.1,2.1c0,1.2,-1,2.2,-2.1,2.2m0,-3.4c-.7,0,-1.2,.6,-1.2,1.2c0,.7,.5,1.3,1.2,1.3c.6,0,1.2,-.6,1.2,-1.3c0,-.6,-.6,-1.2,-1.2,-1.2Z" class="gl_153"/>
<image clip-path="url(#c7_153)" x="769" y="254" width="6" height="9" xlink:href="shade/1.png"/>
<image clip-path="url(#c8_153)" x="769" y="228" width="24" height="28" xlink:href="shade/2.png"/>
<image clip-path="url(#c9_153)" x="769" y="230" width="23" height="33" xlink:href="shade/3.png"/>
<image clip-path="url(#ca_153)" x="774" y="226" width="20" height="10" xlink:href="shade/4.png"/>
<image clip-path="url(#cb_153)" x="783" y="472" width="6" height="9" xlink:href="shade/5.png"/>
<image clip-path="url(#cc_153)" x="783" y="445" width="24" height="28" xlink:href="shade/6.png"/>
<image clip-path="url(#cd_153)" x="783" y="447" width="23" height="34" xlink:href="shade/7.png"/>
<image clip-path="url(#ce_153)" x="788" y="443" width="20" height="10" xlink:href="shade/8.png"/>
<g clip-path="url(#cf_153)">
<path d="M127.6,960c0,0,-11.8,0,-11.8,11.8v251.3c0,0,0,11.9,11.8,11.9H653.8c0,0,11.8,0,11.8,-11.9V971.8c0,0,0,-11.8,-11.8,-11.8H127.6Z" class="go_153"/>
<path d="M134.4,963.4c0,0,-10.1,0,-10.1,10.1v247.9c0,0,0,10.2,10.1,10.2H647c0,0,10.1,0,10.1,-10.2V973.5c0,0,0,-10.1,-10.1,-10.1H134.4Z" class="g1_153"/>
</g>
<image clip-path="url(#cg_153)" preserveAspectRatio="none" x="178" y="1106" width="103" height="76" xlink:href="img/7.jpg"/>
<g clip-path="url(#ch_153)">
<path d="M127.6,962.2c0,0,-11.8,0,-11.8,11.8v251.3c0,0,0,11.8,11.8,11.8H653.8c0,0,11.8,0,11.8,-11.8V974c0,0,0,-11.8,-11.8,-11.8H127.6Z" class="go_153"/>
<path d="M134.4,965.5c0,0,-10.1,0,-10.1,10.2v247.9c0,0,0,10.1,10.1,10.1H647c0,0,10.1,0,10.1,-10.1V975.7c0,0,0,-10.2,-10.1,-10.2H134.4Z" class="g1_153"/>
</g>
<image clip-path="url(#ci_153)" preserveAspectRatio="none" x="178" y="986" width="103" height="76" xlink:href="img/8.jpg"/>
<g clip-path="url(#cj_153)">
<path d="M186.1,960.8c0,0,-11.9,0,-11.9,11.8v251.3c0,0,0,11.9,11.9,11.9H712.2c0,0,11.8,0,11.8,-11.9V972.6c0,0,0,-11.8,-11.8,-11.8H186.1Z" class="go_153"/>
<path d="M192.8,964.2c0,0,-10.1,0,-10.1,10.1v247.9c0,0,0,10.2,10.1,10.2H705.4c0,0,10.1,0,10.1,-10.2V974.3c0,0,0,-10.1,-10.1,-10.1H192.8Z" class="g1_153"/>
</g>
<image clip-path="url(#ck_153)" preserveAspectRatio="none" x="357" y="1107" width="102" height="75" xlink:href="img/9.jpg"/>
<g clip-path="url(#cl_153)">
<path d="M186.1,961.7c0,0,-11.9,0,-11.9,11.8v251.3c0,0,0,11.8,11.9,11.8H712.2c0,0,11.8,0,11.8,-11.8V973.5c0,0,0,-11.8,-11.8,-11.8H186.1Z" class="go_153"/>
<path d="M192.8,965c0,0,-10.1,0,-10.1,10.2v247.9c0,0,0,10.1,10.1,10.1H705.4c0,0,10.1,0,10.1,-10.1V975.2c0,0,0,-10.2,-10.1,-10.2H192.8Z" class="g1_153"/>
</g>
<image clip-path="url(#cm_153)" preserveAspectRatio="none" x="357" y="986" width="103" height="76" xlink:href="img/10.jpg"/>
<g clip-path="url(#cn_153)">
<path d="M244.2,960.8c0,0,-11.8,0,-11.8,11.8v251.3c0,0,0,11.9,11.8,11.9H770.4c0,0,11.8,0,11.8,-11.9V972.6c0,0,0,-11.8,-11.8,-11.8H244.2Z" class="go_153"/>
<path d="M251,964.2c0,0,-10.1,0,-10.1,10.1v247.9c0,0,0,10.2,10.1,10.2H763.6c0,0,10.1,0,10.1,-10.2V974.3c0,0,0,-10.1,-10.1,-10.1H251Z" class="g1_153"/>
</g>
<image clip-path="url(#co_153)" preserveAspectRatio="none" x="536" y="1107" width="103" height="75" xlink:href="img/11.jpg"/>
<g clip-path="url(#cp_153)">
<path d="M244.8,961.7c0,0,-11.9,0,-11.9,11.8v251.3c0,0,0,11.8,11.9,11.8H770.9c0,0,11.8,0,11.8,-11.8V973.5c0,0,0,-11.8,-11.8,-11.8H244.8Z" class="go_153"/>
<path d="M251.5,965c0,0,-10.1,0,-10.1,10.2v247.9c0,0,0,10.1,10.1,10.1H764.1c0,0,10.2,0,10.2,-10.1V975.2c0,0,0,-10.2,-10.2,-10.2H251.5Z" class="g1_153"/>
</g>
<image clip-path="url(#cq_153)" preserveAspectRatio="none" x="538" y="987" width="100" height="75" xlink:href="img/12.jpg"/>
<path d="M714.4,1063h105V985.4h-105V1063Z" class="gp_153"/>
<g clip-path="url(#cr_153)">
<path d="M303.6,962.1c0,0,-11.8,0,-11.8,11.8v251.3c0,0,0,11.9,11.8,11.9H829.7c0,0,11.8,0,11.8,-11.9V973.9c0,0,0,-11.8,-11.8,-11.8H303.6Z" class="go_153"/>
<path d="M310.3,965.5c0,0,-10.1,0,-10.1,10.1v247.9c0,0,0,10.2,10.1,10.2H822.9c0,0,10.2,0,10.2,-10.2V975.6c0,0,0,-10.1,-10.2,-10.1H310.3Z" class="g1_153"/>
</g>
<image clip-path="url(#cs_153)" preserveAspectRatio="none" x="717" y="986" width="100" height="76" xlink:href="img/13.jpg"/>
<g clip-path="url(#ct_153)">
<path d="M303.3,960.9c0,0,-11.8,0,-11.8,11.8V1224c0,0,0,11.8,11.8,11.8H829.4c0,0,11.8,0,11.8,-11.8V972.7c0,0,0,-11.8,-11.8,-11.8H303.3Z" class="go_153"/>
<path d="M310.1,964.2c0,0,-10.2,0,-10.2,10.2v247.9c0,0,0,10.1,10.2,10.1H822.7c0,0,10.1,0,10.1,-10.1V974.4c0,0,0,-10.2,-10.1,-10.2H310.1Z" class="g1_153"/>
<image preserveAspectRatio="none" x="717" y="1107" width="100" height="75" xlink:href="img/14.jpg"/>
<path d="M716.9,1181.2H817v-73.1H716.9v73.1Z" class="gq_153"/>
</g>
<path d="M716.1,1108.9v72.6H817.7v-73.8H716.1v1.2Z" class="gr_153"/>
<path d="M154.5,958.4V929.7c0,0,0,-4.3,4.3,-4.3H862.4c0,0,4.4,0,4.4,4.3v29.2" class="gs_153"/>
<path d="M200.1,925.9c2.6,0,4.8,-2.1,4.8,-4.8c0,-2.6,-2.2,-4.8,-4.8,-4.8c-2.7,0,-4.8,2.2,-4.8,4.8c0,2.7,2.1,4.8,4.8,4.8Z" class="g1_153"/>
<path d="M200.1,927.8c3.6,0,6.6,-3,6.6,-6.7c0,-3.7,-3,-6.7,-6.6,-6.7c-3.7,0,-6.7,3,-6.7,6.7c0,3.7,3,6.7,6.7,6.7m0,-11.5c2.6,0,4.8,2.2,4.8,4.8c0,2.7,-2.2,4.8,-4.8,4.8c-2.7,0,-4.8,-2.1,-4.8,-4.8c0,-2.6,2.1,-4.8,4.8,-4.8Z" class="gt_153"/>
<path d="M205.5,929.7H194.6c-.1,0,-.3,0,-.4,0c2.7,1.1,4.9,3.4,5.9,6.2c1.3,-.5,2.7,-.8,4.2,-.8c2.9,0,5.5,1,7.5,2.7V936c0,-3.5,-2.8,-6.3,-6.3,-6.3Z" class="g1_153"/>
<path d="M184,926.7c3.4,0,6.1,-2.7,6.1,-6.1c0,-3.4,-2.7,-6.1,-6.1,-6.1c-3.4,0,-6.1,2.7,-6.1,6.1c0,3.4,2.7,6.1,6.1,6.1Z" class="gu_153"/>
<path d="M184,928.6c4.4,0,8,-3.6,8,-8c0,-4.4,-3.6,-8,-8,-8c-4.4,0,-8,3.6,-8,8c0,4.4,3.6,8,8,8m0,-14.1c3.4,0,6.1,2.7,6.1,6.1c0,3.4,-2.7,6.1,-6.1,6.1c-3.4,0,-6.1,-2.7,-6.1,-6.1c0,-3.4,2.7,-6.1,6.1,-6.1Z" class="gt_153"/>
<path d="M198.4,936.7c-1,-3.3,-4.1,-5.7,-7.7,-5.7H177.3c-4.4,0,-8,3.6,-8,8v4.3h23.8c.9,-2.8,2.8,-5.1,5.3,-6.6Z" class="gu_153"/>
<path d="M204.3,937c-5.5,0,-9.9,4.5,-9.9,10c0,5.5,4.4,10,9.9,10c5.5,0,10,-4.5,10,-10c0,-5.5,-4.5,-10,-10,-10m6.7,11.7c0,.2,-.2,.4,-.5,.4h-4v4.1c0,.2,-.2,.5,-.5,.5h-3.3c-.3,0,-.5,-.3,-.5,-.5v-4.1h-4.1c-.2,0,-.4,-.2,-.4,-.4v-3.4c0,-.3,.2,-.5,.4,-.5h4.1v-4c0,-.3,.2,-.5,.5,-.5H206c.3,0,.5,.2,.5,.5v4h4c.3,0,.5,.2,.5,.5Z" class="gv_153"/>
<path d="M213.7,939.7V936c0,-4.5,-3.7,-8.2,-8.2,-8.2H194.6c-1.6,0,-3.1,.5,-4.3,1.3h-13c-5.4,0,-9.9,4.4,-9.9,9.9v5.2c0,.6,.4,1,1,1h24.2c-.1,.6,-.1,1.2,-.1,1.8c0,6.5,5.3,11.9,11.8,11.9c6.6,0,11.9,-5.4,11.9,-11.9c0,-2.8,-.9,-5.3,-2.5,-7.3M204.3,957c-5.5,0,-9.9,-4.5,-9.9,-10c0,-5.5,4.4,-10,9.9,-10c5.5,0,10,4.5,10,10c0,5.5,-4.5,10,-10,10m-35,-18c0,-4.4,3.6,-8,8,-8h13.4c3.6,0,6.7,2.4,7.7,5.8c-2.5,1.4,-4.4,3.7,-5.3,6.5H169.3Zm42.5,-1.2c-2,-1.7,-4.6,-2.7,-7.5,-2.7c-1.5,0,-2.9,.3,-4.2,.8c-1,-2.8,-3.2,-5.1,-5.9,-6.2c.1,0,.3,0,.4,0h10.9c3.5,0,6.3,2.8,6.3,6.3Z" class="gt_153"/>
<path d="M205.5,945.3v-4h-2.4v4c0,.3,-.2,.5,-.4,.5h-4.1v2.4h4.1c.2,0,.4,.2,.4,.5v4h2.4v-4c0,-.3,.3,-.5,.5,-.5h4.1v-2.4H206c-.2,0,-.5,-.2,-.5,-.5Z" class="g1_153"/>
<path d="M210.5,944.8h-4v-4c0,-.3,-.2,-.5,-.5,-.5h-3.3c-.3,0,-.5,.2,-.5,.5v4h-4.1c-.2,0,-.4,.2,-.4,.5v3.4c0,.2,.2,.4,.4,.4h4.1v4.1c0,.2,.2,.5,.5,.5H206c.3,0,.5,-.3,.5,-.5v-4.1h4c.3,0,.5,-.2,.5,-.4v-3.4c0,-.3,-.2,-.5,-.5,-.5m-.4,3.4H206c-.2,0,-.5,.2,-.5,.5v4h-2.4v-4c0,-.3,-.2,-.5,-.4,-.5h-4.1v-2.4h4.1c.2,0,.4,-.2,.4,-.5v-4h2.4v4c0,.3,.3,.5,.5,.5h4.1Z" class="gt_153"/>
<path d="M154.1,968.5v273.1m4.6,2.3H864.9m2.2,-4.6V966.2m-4.5,-2.3H156.4" class="gw_153"/>
<path d="M154.1,1243.9v0m713.1,0v0m0,-280v0m-713.1,0v0" class="gx_153"/>
<path d="M32.1,45.1H9.2m958.3,0h22.9M32.1,1331.3H9.2m958.3,0h22.9M45.1,32.1V9.2m0,1335.1v22.9M954.5,32.1V9.2m0,1335.1v22.9" class="gy_153"/>
<path d="M32.1,45.1H9.2m958.3,0h22.9M32.1,1331.3H9.2m958.3,0h22.9M45.1,32.1V9.2m0,1335.1v22.9M954.5,32.1V9.2m0,1335.1v22.9" class="gz_153"/>
<path d="M27.5,32.1H0m972.1,0h27.5M27.5,1344.3H0m972.1,0h27.5M32.1,27.5V0m0,1348.9v27.5M967.5,27.5V0m0,1348.9v27.5" class="gy_153"/>
<path d="M27.5,32.1H0m972.1,0h27.5M27.5,1344.3H0m972.1,0h27.5M32.1,27.5V0m0,1348.9v27.5M967.5,27.5V0m0,1348.9v27.5" class="gz_153"/>
</svg>