<?xml version="1.0" encoding="UTF-8" standalone="no"?>
<!DOCTYPE svg PUBLIC "-//W3C//DTD SVG 1.1//EN"
"http://www.w3.org/Graphics/SVG/1.1/DTD/svg11.dtd">
<svg viewBox="0 0 999 1376" version="1.1" xmlns="http://www.w3.org/2000/svg" xmlns:xlink="http://www.w3.org/1999/xlink">
<defs>
<clipPath id="c0_304"><path d="M32.1,1344.3V32.1H967.5V1344.3Z"/></clipPath>
<clipPath id="c1_304"><path d="M535.5,458.9V370.3H618v88.6Z"/></clipPath>
<clipPath id="c2_304"><path d="M199.4,446.9V435.3h97.4v11.6Zm0,-23.8V411.7h97.4v11.4Zm0,-23.8V387.8h97.4v11.5Zm0,-23.7v-4.1h97.4v4.1Z"/></clipPath>
<clipPath id="c3_304"><path d="M199.4,387.8V375.6h97.4v12.2Z"/></clipPath>
<clipPath id="c4_304"><path d="M199.4,411.7V399.3h97.4v12.4Z"/></clipPath>
<clipPath id="c5_304"><path d="M199.4,435.3V423.1h97.4v12.2Z"/></clipPath>
<clipPath id="c6_304"><path d="M199.4,456.5v-9.6h97.4v9.6Z"/></clipPath>
<clipPath id="c7_304"><path d="M178,297.5l-6.5,-2.1L155.1,281.5V224.4h72v73.1Z"/></clipPath>
<clipPath id="c8_304"><path d="M178,565.1L171.5,563L155.1,549.1V492h72v73.1Z"/></clipPath>
<style type="text/css"><![CDATA[
.g0_304{
fill: #FEFCF4;
}
.g1_304{
fill: #F16865;
}
.g2_304{
fill: #FAC3B8;
}
.g3_304{
fill: #EE314A;
}
.g4_304{
fill: #26292E;
}
.g5_304{
fill: #C5CACC;
}
.g6_304{
fill: #FFF;
}
.g7_304{
fill: #F1EBEB;
}
.g8_304{
fill: #F7943B;
}
.g9_304{
fill: #ACB5B9;
}
.ga_304{
fill: #CFD3D5;
}
.gb_304{
fill: none;
stroke: #6381B7;
stroke-width: 0.763;
}
.gc_304{
fill: #6381B7;
}
.gd_304{
fill: none;
stroke: #6381B7;
stroke-width: 0.381;
stroke-dasharray: 2,1;
}
.ge_304{
fill: none;
stroke: #6381B7;
stroke-width: 0.381;
}
.gf_304{
fill: #FCE8B0;
}
.gg_304{
fill: none;
stroke: #231F20;
stroke-width: 0.458;
stroke-miterlimit: 10;
}
.gh_304{
fill: #E3E7F2;
}
.gi_304{
fill: none;
stroke: #FFF;
stroke-width: 1.909;
stroke-miterlimit: 10;
}
.gj_304{
fill: none;
stroke: #000;
stroke-width: 0.381;
stroke-miterlimit: 10;
}
]]></style>
</defs>
<path d="M32.1,1344.3H954.5V32.1H32.1V1344.3Z" class="g0_304"/>
<g clip-path="url(#c0_304)">
<path d="M954.5,1344.3H1877V32.1H954.5V1344.3Z" class="g0_304"/>
<path d="M1777.4,166.7c0,0,30.3,0,30.3,-30.3v-4.3c0,0,0,-30.3,-30.3,-30.3H173.9c0,0,-30.3,0,-30.3,30.3v4.3c0,0,0,30.3,30.3,30.3Z" class="g1_304"/>
</g>
<path d="M186.5,132.1c0,27.1,-22,49,-49.1,49c-27,0,-49,-21.9,-49,-49c0,-27.1,22,-49.1,49,-49.1c27.1,0,49.1,22,49.1,49.1Z" class="g2_304"/>
<path d="M178.1,104.6c15.2,22.5,9.2,53,-13.2,68.1c-22.5,15.2,-53,9.3,-68.1,-13.2Z" class="g3_304"/>
<path d="M96.8,159.5h81.3V104.7H96.8v54.8Z" class="g4_304"/>
<path d="M137.7,156.8h16.8V136.6H137.7v20.2Z" class="g5_304"/>
<path d="M143.1,156.8h33.7V102.6H143.1v54.2Z" class="g5_304"/>
<path d="M141.6,103v50c.5,-.3,1,-.4,1.5,-.4h33.7v-50H143.1c-.5,0,-1,.2,-1.5,.4Z" class="g6_304"/>
<path d="M137.7,109v47.8c0,0,2.5,-3.1,3.9,-3.8V103c-2.2,1.1,-3.9,4.3,-3.9,6Z" class="g7_304"/>
<path d="M143.5,112.3h29.1v-1.4H143.5v1.4Z" class="g5_304"/>
<path d="M143.5,115.5h29.1v-1.4H143.5v1.4Z" class="g5_304"/>
<path d="M143.5,118.8h29.1v-1.5H143.5v1.5Z" class="g5_304"/>
<path d="M143.5,122h29.1v-1.5H143.5V122Z" class="g5_304"/>
<path d="M143.5,125.2h29.1v-1.5H143.5v1.5Z" class="g5_304"/>
<path d="M143.5,128.4h29.1v-1.5H143.5v1.5Z" class="g5_304"/>
<path d="M143.5,131.6h29.1v-1.5H143.5v1.5Z" class="g5_304"/>
<path d="M143.5,134.8h29.1v-1.5H143.5v1.5Z" class="g5_304"/>
<path d="M143.5,138h29.1v-1.4H143.5V138Z" class="g5_304"/>
<path d="M143.5,141.2h29.1v-1.4H143.5v1.4Z" class="g5_304"/>
<path d="M143.5,144.4h29.1V143H143.5v1.4Z" class="g5_304"/>
<path d="M143.5,147.6h29.1v-1.4H143.5v1.4Z" class="g5_304"/>
<path d="M159.7,150.9l1,-.9l1,.9v-49h-2Z" class="g8_304"/>
<path d="M120.9,156.8h16.8V136.6H120.9v20.2Z" class="g9_304"/>
<path d="M98.6,156.8h33.6V102.6H98.6v54.2Z" class="g9_304"/>
<path d="M98.6,102.6v50h33.6c.6,0,1.1,.1,1.6,.4V103c-.5,-.2,-1,-.4,-1.6,-.4Z" class="g6_304"/>
<path d="M133.8,103v50c1.4,.7,3.9,3.8,3.9,3.8V109c0,-1.7,-1.7,-4.9,-3.9,-6Z" class="ga_304"/>
<path d="M109.7,112.3h14.5v-1.4H109.7v1.4Z" class="g5_304"/>
<path d="M102.8,118.8h29.1v-1.5H102.8v1.5Z" class="g5_304"/>
<path d="M102.8,122h29.1v-1.5H102.8V122Z" class="g5_304"/>
<path d="M102.8,125.2h29.1v-1.5H102.8v1.5Z" class="g5_304"/>
<path d="M102.8,128.4h29.1v-1.5H102.8v1.5Z" class="g5_304"/>
<path d="M102.8,131.6h29.1v-1.5H102.8v1.5Z" class="g5_304"/>
<path d="M102.8,134.8h29.1v-1.5H102.8v1.5Z" class="g5_304"/>
<path d="M102.8,138h29.1v-1.4H102.8V138Z" class="g5_304"/>
<path d="M102.8,141.2h29.1v-1.4H102.8v1.4Z" class="g5_304"/>
<path d="M102.8,144.4h29.1V143H102.8v1.4Z" class="g5_304"/>
<path d="M102.8,147.6h29.1v-1.4H102.8v1.4Z" class="g5_304"/>
<path d="M144.8,579.9c0,0,-13,0,-13,13v614.2c0,0,0,12.9,13,12.9H833.5c0,0,13,0,13,-12.9V592.9c0,0,0,-13,-13,-13Z" class="g6_304"/>
<path d="M144.8,579.9c0,0,-13,0,-13,13v614.2c0,0,0,12.9,13,12.9H833.5c0,0,13,0,13,-12.9V592.9c0,0,0,-13,-13,-13H144.8Z" class="gb_304"/>
<path d="M144.8,314c0,0,-13,0,-13,13V458.7c0,0,0,13,13,13H834.2c0,0,13,0,13,-13V327c0,0,0,-13,-13,-13Z" class="g6_304"/>
<path d="M144.8,314c0,0,-13,0,-13,13V458.7c0,0,0,13,13,13H834.2c0,0,13,0,13,-13V327c0,0,0,-13,-13,-13H144.8Z" class="gb_304"/>
<path d="M535.9,462.3h81.9V371.1H535.9v91.2Z" class="g6_304"/>
<image clip-path="url(#c1_304)" preserveAspectRatio="none" x="532" y="364" width="94" height="95" xlink:href="img/1.jpg"/>
<path d="M199.4,456.5h97.4v-85H199.4v85Z" class="g6_304"/>
<image clip-path="url(#c2_304)" preserveAspectRatio="none" x="196" y="369" width="101" height="97" xlink:href="img/2.jpg"/>
<image clip-path="url(#c3_304)" preserveAspectRatio="none" x="196" y="375" width="101" height="13" xlink:href="img/3.jpg"/>
<image clip-path="url(#c4_304)" preserveAspectRatio="none" x="196" y="399" width="101" height="13" xlink:href="img/4.jpg"/>
<image clip-path="url(#c5_304)" preserveAspectRatio="none" x="196" y="423" width="101" height="13" xlink:href="img/5.jpg"/>
<image clip-path="url(#c6_304)" preserveAspectRatio="none" x="196" y="446" width="101" height="13" xlink:href="img/6.jpg"/>
<path d="M602.1,1234.9c0,0,-4.3,0,-4.3,4.4v10.8c0,0,0,4.3,4.3,4.3h30.3c0,0,4.3,0,4.3,-4.3v-10.8c0,0,0,-4.4,-4.3,-4.4Z" class="gc_304"/>
<path d="M588.9,1226.1v37.6m1.3,.9H845.1m1,-1.3v-37.6m-1.4,-.9H589.9" class="gd_304"/>
<path d="M588.9,1264v.6h.6m256,0h.6v-.6m0,-38.7v-.5h-.6m-256,0h-.6v.5" class="ge_304"/>
<path d="M210.7,226.6c0,0,-13,0,-13,13v47.6c0,0,0,13,13,13H832.3c0,0,12.9,0,12.9,-13V239.6c0,0,0,-13,-12.9,-13Z" class="gf_304"/>
<image clip-path="url(#c7_304)" preserveAspectRatio="none" x="154" y="223" width="75" height="76" xlink:href="img/7.png"/>
<path d="M205.5,292.8c0,0,-26.9,11.3,-51.1,-12.7c0,0,15.1,25.3,49.2,23.9c0,0,24.8,.4,20.3,-10.1c0,0,1.2,-4.4,-18.4,-1.1Z" class="gf_304"/>
<path d="M210.7,494.2c0,0,-13,0,-13,13v47.6c0,0,0,13,13,13H832.3c0,0,12.9,0,12.9,-13V507.2c0,0,0,-13,-12.9,-13Z" class="gf_304"/>
<image clip-path="url(#c8_304)" preserveAspectRatio="none" x="154" y="490" width="75" height="77" xlink:href="img/8.png"/>
<path d="M205.5,560.4c0,0,-26.9,11.3,-51.1,-12.7c0,0,15.1,25.3,49.2,23.9c0,0,24.8,.4,20.3,-10.1c0,0,1.2,-4.4,-18.4,-1.1Z" class="gf_304"/>
<path d="M325.7,824.9h25.9m17.2,181.3h25.9" class="gg_304"/>
<path d="M179.3,751.5H811.6V651.9H179.3v99.6Z" class="gh_304"/>
<path d="M179.3,936H811.6V832H179.3V936Z" class="gh_304"/>
<path d="M179.3,1161.9H811.6V1036.3H179.3v125.6Z" class="gh_304"/>
<path d="M32.1,45.1H9.2m958.3,0h22.9M32.1,1331.3H9.2m958.3,0h22.9M45.1,32.1V9.2m0,1335.1v22.9M954.5,32.1V9.2m0,1335.1v22.9" class="gi_304"/>
<path d="M32.1,45.1H9.2m958.3,0h22.9M32.1,1331.3H9.2m958.3,0h22.9M45.1,32.1V9.2m0,1335.1v22.9M954.5,32.1V9.2m0,1335.1v22.9" class="gj_304"/>
<path d="M27.5,32.1H0m972.1,0h27.5M27.5,1344.3H0m972.1,0h27.5M32.1,27.5V0m0,1348.9v27.5M967.5,27.5V0m0,1348.9v27.5" class="gi_304"/>
<path d="M27.5,32.1H0m972.1,0h27.5M27.5,1344.3H0m972.1,0h27.5M32.1,27.5V0m0,1348.9v27.5M967.5,27.5V0m0,1348.9v27.5" class="gj_304"/>
</svg>