<?xml version="1.0" encoding="UTF-8" standalone="no"?>
<!DOCTYPE svg PUBLIC "-//W3C//DTD SVG 1.1//EN"
"http://www.w3.org/Graphics/SVG/1.1/DTD/svg11.dtd">
<svg viewBox="0 0 999 1376" version="1.1" xmlns="http://www.w3.org/2000/svg" xmlns:xlink="http://www.w3.org/1999/xlink">
<defs>
<clipPath id="c0_52"><path d="M32.1,1344.3V32.1H967.5V1344.3Z"/></clipPath>
<clipPath id="c1_52"><path d="M130,267.4V210.2h55.5v57.2Z"/></clipPath>
<clipPath id="c2_52"><path d="M155.9,409.6v-115h698v115Z"/></clipPath>
<clipPath id="c3_52"><path d="M181.3,1024.9l-6.4,-2l-14.1,-11.2V950.8h62.7v74.1Z"/></clipPath>
<style type="text/css"><![CDATA[
.g0_52{
fill: #FFFDEA;
}
.g1_52{
fill: #BCE4EA;
}
.g2_52{
fill: #BCBEC0;
}
.g3_52{
fill: #00AABD;
}
.g4_52{
fill: #FEF0DB;
}
.g5_52{
fill: #FDD095;
}
.g6_52{
fill: #F47A43;
}
.g7_52{
fill: #FFF;
}
.g8_52{
fill: none;
stroke: #231F20;
stroke-width: 1.527;
}
.g9_52{
fill: none;
stroke: #976EAF;
stroke-width: 1.145;
stroke-linecap: round;
stroke-linejoin: round;
stroke-dasharray: 4,2;
}
.ga_52{
fill: none;
stroke: #976EAF;
stroke-width: 1.145;
stroke-linecap: round;
stroke-linejoin: round;
stroke-dasharray: 4,3;
}
.gb_52{
fill: none;
stroke: #976EAF;
stroke-width: 1.145;
stroke-linecap: round;
stroke-linejoin: round;
}
.gc_52{
fill: #DED3E8;
}
.gd_52{
fill: none;
stroke: #6D6F71;
stroke-width: 0.305;
stroke-miterlimit: 10;
}
.ge_52{
fill: #FCDCBA;
}
.gf_52{
fill: none;
stroke: #FFF;
stroke-width: 0.305;
stroke-miterlimit: 10;
}
.gg_52{
fill: none;
stroke: #6D6F71;
stroke-width: 0.305;
stroke-miterlimit: 10;
stroke-dasharray: 2,2;
}
.gh_52{
fill: #231F20;
}
.gi_52{
fill: none;
stroke: #976EAF;
stroke-width: 0.432;
}
.gj_52{
fill: #976EAF;
}
.gk_52{
fill: none;
stroke: #FFF;
stroke-width: 1.909;
stroke-miterlimit: 10;
}
.gl_52{
fill: none;
stroke: #000;
stroke-width: 0.381;
stroke-miterlimit: 10;
}
]]></style>
</defs>
<g clip-path="url(#c0_52)">
<path d="M32.1,1344.3H1877V32.1H32.1V1344.3Z" class="g0_52"/>
<path d="M32.1,179.3H1877V32.1H32.1V179.3Z" class="g1_52"/>
<path d="M1877,177.2H32.1v-5.4H768.7c43.1,0,53,-37.9,115.3,-37.9h993Z" class="g2_52"/>
<path d="M1877,183.7H32.1v-9.8H768.7c43.1,0,53,-33.6,115.3,-33.6h993Z" class="g3_52"/>
</g>
<path d="M480.7,219c0,0,-8.6,0,-8.6,8.7V258c0,0,0,8.6,8.6,8.6H833c0,0,8.7,0,8.7,-8.6V227.7c0,0,0,-8.7,-8.7,-8.7Z" class="g4_52"/>
<path d="M160.5,219c0,0,-8.6,0,-8.6,8.7V258c0,0,0,8.6,8.6,8.6H731.6c0,0,8.6,0,8.6,-8.6V227.7c0,0,0,-8.7,-8.6,-8.7Z" class="g5_52"/>
<image clip-path="url(#c1_52)" preserveAspectRatio="none" x="130" y="211" width="55" height="57" xlink:href="img/1.png"/>
<path d="M154.8,212c12.7,0,23,10.6,23,23.7c0,13.2,-10.3,23.8,-23,23.8c-12.8,0,-23.1,-10.6,-23.1,-23.8C131.7,222.6,142,212,154.8,212Z" class="g6_52"/>
<path d="M172,235.7C172,225.9,164.3,218,154.8,218c-9.6,0,-17.3,7.9,-17.3,17.7c0,9.8,7.7,17.8,17.3,17.8c3.6,0,7,-1.2,9.7,-3.1l6.4,1.7l-1.7,-6.7c1.8,-2.8,2.8,-6.1,2.8,-9.7Z" class="g7_52"/>
<path d="M770.8,242.1c0,0,-.5,-9.9,8.3,-9.3c0,0,6.6,-.4,6.5,9.5m-14.9,-1.6v6.5c0,0,-3.2,.4,-3.8,-3c0,0,0,-3.7,3.8,-3.5Zm15,0v6.5c0,0,3.2,.4,3.7,-3c0,0,.1,-3.7,-3.7,-3.5Z" class="g8_52"/>
<image clip-path="url(#c2_52)" preserveAspectRatio="none" x="156" y="295" width="697" height="115" xlink:href="img/2.png"/>
<path d="M171.2,296.6c0,0,-13,0,-13,13v78.8c0,0,0,13,13,13H832.7c0,0,13,0,13,-13V309.6c0,0,0,-13,-13,-13Z" class="g7_52"/>
<path d="M167.7,297.1c-3.4,.9,-8.3,3.4,-9.3,9.9" class="g9_52"/>
<path d="M158.2,313.5v72" class="ga_52"/>
<path d="M158.8,391.9c.9,3.4,3.3,8.3,9.9,9.3" class="g9_52"/>
<path d="M175.3,401.4H829.8" class="ga_52"/>
<path d="M836.2,400.8c3.5,-.9,8.3,-3.3,9.3,-9.9" class="g9_52"/>
<path d="M845.7,384.4v-72" class="ga_52"/>
<path d="M845.2,306.1c-.9,-3.5,-3.4,-8.3,-9.9,-9.3" class="g9_52"/>
<path d="M828.7,296.6H174.1" class="ga_52"/>
<path d="M158.3,308c0,.5,-.1,1.1,-.1,1.6v1.7m0,75.4v1.7c0,0,0,.6,.2,1.5m11.3,11.4c.5,0,1,.1,1.5,.1H173m658,0h1.7c0,0,.6,0,1.6,-.2m11.3,-11.3c.1,-.5,.1,-1,.1,-1.5v-1.7m0,-75.4v-1.7c0,0,0,-.6,-.2,-1.6M834.3,296.7c-.5,-.1,-1.1,-.1,-1.6,-.1H831m-658,0h-1.8c0,0,-.6,0,-1.5,.2" class="gb_52"/>
<path d="M172.8,616.1H432.7v39H172.8v-39Zm259.9,0H562.6v39H432.7v-39Zm129.9,0H844.1v39H562.6v-39Zm-129.9,39H562.6v39H432.7v-39Zm0,39H562.6v39H432.7v-39Zm0,39H562.6V772H432.7V733.1Zm0,38.9H562.6v39H432.7V772Zm0,39H562.6v39H432.7V811Zm0,39H562.6v39H432.7V850Zm0,39H562.6v38.9H432.7V889Z" class="gc_52"/>
<path d="M172.8,655.1H432.7v39H172.8v-39Zm389.8,0H844.1v39H562.6v-39Zm-389.8,39H432.7v39H172.8v-39Zm389.8,0H844.1v39H562.6v-39Zm-389.8,39H432.7V772H172.8V733.1Zm389.8,0H844.1V772H562.6V733.1ZM172.8,772H432.7v39H172.8V772Zm389.8,0H844.1v39H562.6V772ZM172.8,811H432.7v39H172.8V811Zm389.8,0H844.1v39H562.6V811ZM172.8,850H432.7v39H172.8V850Zm389.8,0H844.1v39H562.6V850ZM172.8,889H432.7v38.9H172.8V889Zm389.8,0H844.1v38.9H562.6V889Z" class="g7_52"/>
<path d="M172.8,693.9V655.3m671.3,38.6V655.3M172.7,694.1h260M172.8,732.9V694.2m389.8,-.1H844.2m-.1,38.8V694.2M172.7,733.1h260M172.8,771.9V733.2m389.8,-.1H844.2m-.1,38.8V733.2M172.7,772h260M172.8,810.9V772.2M562.6,772H844.2m-.1,38.9V772.2M172.7,811h260M172.8,849.8V811.2M562.6,811H844.2m-.1,38.8V811.2M172.7,850h260M172.8,888.8V850.1M562.6,850H844.2m-.1,38.8V850.1M172.7,889h260M172.8,927.8V889.1M562.6,889H844.2m-.1,38.8V889.1M172.7,927.9h260m129.9,0H844.2M172.7,616.1h260m0,0H562.6m0,0H844.2m-671.5,39h260m129.9,0H844.2m-411.5,0H562.6m-129.9,39H562.6m-129.9,39H562.6M432.7,772H562.6M432.7,811H562.6M432.7,850H562.6M432.7,889H562.6M432.7,927.9H562.6m0,-272.9V616.3M432.7,693.9V655.3m129.9,38.6V655.3M432.7,732.9V694.2m129.9,38.7V694.2M432.7,771.9V733.2m129.9,38.7V733.2M432.7,810.9V772.2m129.9,38.7V772.2M432.7,849.8V811.2m129.9,38.6V811.2M432.7,888.8V850.1m129.9,38.7V850.1M432.7,927.8V889.1m129.9,38.7V889.1M844.1,655V616.3M172.8,655V616.3M432.7,655V616.3" class="gd_52"/>
<path d="M214,979.9c0,0,-13,0,-13,13v21.7c0,0,0,13,13,13H833c0,0,13,0,13,-13V992.9c0,0,0,-13,-13,-13Z" class="ge_52"/>
<image clip-path="url(#c3_52)" preserveAspectRatio="none" x="161" y="950" width="63" height="77" xlink:href="img/3.png"/>
<path d="M208.8,1020.2c0,0,-26.9,11.3,-51.1,-12.8c0,0,15.1,25.4,49.3,24c0,0,24.7,.4,20.2,-10.1c0,0,1.2,-4.5,-18.4,-1.1Z" class="ge_52"/>
<path d="M170.8,1059.9h96.5v69.3H170.8v-69.3Zm96.5,0h96.5v69.3H267.3v-69.3Zm96.5,0h96.4v69.3H363.8v-69.3Zm96.4,0h96.5v69.3H460.2v-69.3Zm96.5,0h96.5v69.3H556.7v-69.3Zm96.5,0h96.4v69.3H653.2v-69.3Zm96.4,0h96.5v69.3H749.6v-69.3Z" class="g7_52"/>
<path d="M170.8,1129.2h96.5v69.3H170.8v-69.3Zm96.5,0h96.5v69.3H267.3v-69.3Zm96.5,0h96.4v69.3H363.8v-69.3Zm96.4,0h96.5v69.3H460.2v-69.3Zm96.5,0h96.5v69.3H556.7v-69.3Zm96.5,0h96.4v69.3H653.2v-69.3Zm96.4,0h96.5v69.3H749.6v-69.3Z" class="g7_52"/>
<path d="M171,1129.2h96.3m0,0h96.5m0,0h96.4m0,0h96.5m0,0h96.5m0,0h96.4m0,0H846" class="gf_52"/>
<path d="M170.7,1059.9h96.6m-96.5,69.3v-69.1m96.5,-.2h96.5m-96.5,69.2v-69m96.5,-.2h96.4m-96.4,69.2v-69m96.4,-.2h96.5m-96.5,69.2v-69m96.5,-.2h96.5m-96.5,69.2v-69m96.5,-.2h96.4m-96.4,69.2v-69m96.4,-.2h96.7m-96.7,69.2v-69m96.5,69.1v-69.1M170.8,1198.4v-69.2m96.5,69.2v-69m96.5,69v-69m96.4,69v-69m96.5,69v-69m96.5,69v-69m96.4,69v-69m96.5,69v-69.2m-675.4,69.3h96.6m0,0h96.5m0,0h96.4m0,0h96.5m0,0h96.5m0,0h96.4m0,0h96.7" class="gd_52"/>
<path d="M172.8,1129.2h93.3" class="gg_52"/>
<path d="M171,1129.2h.6m95.1,0h.6" class="gd_52"/>
<path d="M269.1,1129.2h93.4" class="gg_52"/>
<path d="M267.3,1129.2h.6m95.2,0h.7" class="gd_52"/>
<path d="M365.6,1129.2H459" class="gg_52"/>
<path d="M363.8,1129.2h.6m95.2,0h.6" class="gd_52"/>
<path d="M462.1,1129.2h93.4" class="gg_52"/>
<path d="M460.2,1129.2h.6m95.3,0h.6" class="gd_52"/>
<path d="M558.6,1129.2h93.3" class="gg_52"/>
<path d="M556.7,1129.2h.6m95.2,0h.7" class="gd_52"/>
<path d="M655,1129.2h93.4" class="gg_52"/>
<path d="M653.2,1129.2h.6m95.2,0h.6" class="gd_52"/>
<path d="M751.5,1129.2h93.2" class="gg_52"/>
<path d="M749.6,1129.2h.7m95,0h.7" class="gd_52"/>
<path d="M810.5,1171.4V1168H790.8v-4.4h19v-3.4H786.6v11.2Z" class="gh_52"/>
<path d="M785.8,1144.7c0,3.9,4.6,6.7,12,6.7c7.5,0,12.1,-2.8,12.1,-6.7c0,-3.8,-4.6,-6.8,-12.1,-6.8c-7.4,0,-12,3.1,-12,6.8m4.5,0c0,-2.1,3.1,-3.6,7.5,-3.6c4.4,0,7.5,1.5,7.5,3.6c0,2.1,-3,3.5,-7.5,3.5c-4.5,0,-7.5,-1.4,-7.5,-3.5m22.9,9.2H782.6v3.4h30.6Z" class="gh_52"/>
<path d="M461.5,488.9c16,0,28.9,-7.1,28.9,-15.9c0,-8.7,-12.9,-15.9,-28.9,-15.9c-15.9,0,-28.8,7.2,-28.8,15.9c0,8.8,12.9,15.9,28.8,15.9Zm93.7,0c15.9,0,28.8,-7.1,28.8,-15.9c0,-8.7,-12.9,-15.9,-28.8,-15.9c-16,0,-28.9,7.2,-28.9,15.9c0,8.8,12.9,15.9,28.9,15.9Zm-91.8,.1c0,0,-20.8,11.5,-50.9,12.9M556.1,489c0,0,-47.4,28.9,-139.8,23.1m5.1,-2.7l-5.6,2.6l5.3,3.1m-3.2,-15.9l-5.7,2.6l5.2,2.8" class="gi_52"/>
<path d="M335.2,489.4c0,0,-4.3,0,-4.3,4.3v17.7c0,0,0,4.4,4.3,4.4h87.1c0,0,4.3,0,4.3,-4.4V493.7c0,0,0,-4.3,-4.3,-4.3Z" class="gj_52"/>
<path d="M32.1,45.1H9.2m958.3,0h22.9M32.1,1331.3H9.2m958.3,0h22.9M45.1,32.1V9.2m0,1335.1v22.9M954.5,32.1V9.2m0,1335.1v22.9" class="gk_52"/>
<path d="M32.1,45.1H9.2m958.3,0h22.9M32.1,1331.3H9.2m958.3,0h22.9M45.1,32.1V9.2m0,1335.1v22.9M954.5,32.1V9.2m0,1335.1v22.9" class="gl_52"/>
<path d="M27.5,32.1H0m972.1,0h27.5M27.5,1344.3H0m972.1,0h27.5M32.1,27.5V0m0,1348.9v27.5M967.5,27.5V0m0,1348.9v27.5" class="gk_52"/>
<path d="M27.5,32.1H0m972.1,0h27.5M27.5,1344.3H0m972.1,0h27.5M32.1,27.5V0m0,1348.9v27.5M967.5,27.5V0m0,1348.9v27.5" class="gl_52"/>
</svg>