<?xml version="1.0" encoding="UTF-8" standalone="no"?>
<!DOCTYPE svg PUBLIC "-//W3C//DTD SVG 1.1//EN"
"http://www.w3.org/Graphics/SVG/1.1/DTD/svg11.dtd">
<svg viewBox="0 0 999 1376" version="1.1" xmlns="http://www.w3.org/2000/svg" xmlns:xlink="http://www.w3.org/1999/xlink">
<defs>
<clipPath id="c0_173"><path d="M32.1,1344.3V32.1H967.5V1344.3Z"/></clipPath>
<clipPath id="c1_173"><path d="M682.7,183.5V65.3H865.1V183.5Z"/></clipPath>
<clipPath id="c2_173"><path d="M215,761.4V682.7H831.1v78.7Z"/></clipPath>
<clipPath id="c3_173"><path d="M215,939.5V808.6H831.1V939.5Z"/></clipPath>
<clipPath id="c4_173"><path d="M215,1092.3v-78.6H831.1v78.6Z"/></clipPath>
<clipPath id="c5_173"><path d="M228.1,611.7v-78h76.8c8.7,0,8.7,8.7,8.7,8.7V603c0,8.7,-8.7,8.7,-8.7,8.7Z"/></clipPath>
<clipPath id="c6_173"><path d="M227,611.7c-8.7,0,-8.7,-8.7,-8.7,-8.7V542.4c0,-8.7,8.7,-8.7,8.7,-8.7h77.9c8.7,0,8.7,8.7,8.7,8.7V603c0,8.7,-8.7,8.7,-8.7,8.7Z"/></clipPath>
<clipPath id="c7_173"><path d="M232.7,428.3V350.4h72.2c3.4,0,5.5,1.3,6.7,2.9v72.2c-2.5,2.8,-6.7,2.8,-6.7,2.8Z"/></clipPath>
<clipPath id="c8_173"><path d="M227,428.3c-8.7,0,-8.7,-8.6,-8.7,-8.6V359c0,-8.6,8.7,-8.6,8.7,-8.6h77.9c8.7,0,8.7,8.6,8.7,8.6v60.7c0,8.6,-8.7,8.6,-8.7,8.6Z"/></clipPath>
<clipPath id="c9_173"><path d="M227,519.9v-78h77.9v78Z"/></clipPath>
<style type="text/css"><![CDATA[
.g0_173{
fill: #FEFCF4;
}
.g1_173{
fill: #F16865;
}
.g2_173{
fill: #6381B7;
}
.g3_173{
fill: none;
stroke: #6381B7;
stroke-width: 0.381;
stroke-dasharray: 2,1;
}
.g4_173{
fill: none;
stroke: #6381B7;
stroke-width: 0.381;
}
.g5_173{
fill: #FEF8F8;
}
.g6_173{
fill: none;
stroke: #A164A9;
stroke-width: 1.527;
stroke-linecap: round;
stroke-linejoin: round;
stroke-dasharray: 0,5;
}
.g7_173{
fill: none;
stroke: #A164A9;
stroke-width: 1.527;
stroke-linecap: round;
stroke-linejoin: round;
}
.g8_173{
fill: #A164A9;
}
.g9_173{
fill: #FFF;
}
.ga_173{
fill: none;
stroke: #231F20;
stroke-width: 0.305;
stroke-miterlimit: 10;
}
.gb_173{
fill: none;
stroke: #949698;
stroke-width: 1.194;
}
.gc_173{
fill: none;
stroke: #949698;
stroke-width: 1.084;
}
.gd_173{
fill: none;
stroke: #949698;
stroke-width: 1.1;
}
.ge_173{
fill: none;
stroke: #FFF;
stroke-width: 1.909;
stroke-miterlimit: 10;
}
.gf_173{
fill: none;
stroke: #000;
stroke-width: 0.381;
stroke-miterlimit: 10;
}
]]></style>
</defs>
<path d="M45.1,1344.3H967.5V32.1H45.1V1344.3Z" class="g0_173"/>
<g clip-path="url(#c0_173)">
<path d="M-877.3,1344.3H45.1V32.1H-877.3V1344.3Z" class="g0_173"/>
<path d="M867.9,166.7c0,0,30.3,0,30.3,-30.3v-4.3c0,0,0,-30.3,-30.3,-30.3H-735.4c0,0,-30.4,0,-30.4,30.3v4.3c0,0,0,30.3,30.4,30.3Z" class="g1_173"/>
</g>
<path d="M591.1,1182.7c0,0,-4.3,0,-4.3,4.4v10.8c0,0,0,4.3,4.3,4.3h30.3c0,0,4.4,0,4.4,-4.3v-10.8c0,0,0,-4.4,-4.4,-4.4Z" class="g2_173"/>
<path d="M577.9,1173.9v37.5m1.4,1H866.8m.9,-1.3v-37.6m-1.3,-.9H578.9" class="g3_173"/>
<path d="M577.9,1211.8v.6h.6m288.7,0h.5v-.6m0,-38.7v-.5h-.5m-288.7,0h-.6v.5" class="g4_173"/>
<image clip-path="url(#c1_173)" preserveAspectRatio="none" x="683" y="65" width="182" height="118" xlink:href="img/1.png"/>
<path d="M154.1,1164.2h713V251h-713v913.2Z" class="g5_173"/>
<path d="M154.1,255.6v906.3m4.6,2.3H864.9m2.2,-4.6V253.3M862.6,251H156.4" class="g6_173"/>
<path d="M154.1,1164.2v0m713.1,0v0m0,-913.2v0m-713.1,0v0" class="g7_173"/>
<path d="M153.3,265.3V227c0,0,0,-8.7,8.7,-8.7H859.3c0,0,8.6,0,8.6,8.7v38.9Z" class="g8_173"/>
<image clip-path="url(#c2_173)" preserveAspectRatio="none" x="215" y="683" width="615" height="78" xlink:href="img/2.png"/>
<path d="M218.3,755.3H824.6V686H218.3v69.3Z" class="g9_173"/>
<path d="M297.6,715.8h70.9" class="ga_173"/>
<image clip-path="url(#c3_173)" preserveAspectRatio="none" x="215" y="809" width="615" height="131" xlink:href="img/3.png"/>
<path d="M218.3,933.1H824.6V811.8H218.3V933.1Z" class="g9_173"/>
<path d="M231.3,867.6H340" class="ga_173"/>
<image clip-path="url(#c4_173)" preserveAspectRatio="none" x="215" y="1014" width="615" height="79" xlink:href="img/4.png"/>
<path d="M218.3,1086.2H824.6v-69.3H218.3v69.3Z" class="g9_173"/>
<path d="M255.4,1072.7H444.5" class="ga_173"/>
<path d="M227,442.1c0,0,-8.7,0,-8.7,8.6v60.7c0,0,0,8.6,8.7,8.6h77.9c0,0,8.7,0,8.7,-8.6V450.7c0,0,0,-8.6,-8.7,-8.6Z" class="g9_173"/>
<path d="M227,533.7c0,0,-8.7,0,-8.7,8.7V603c0,0,0,8.7,8.7,8.7h77.9c0,0,8.7,0,8.7,-8.7V542.4c0,0,0,-8.7,-8.7,-8.7Z" class="g9_173"/>
<image clip-path="url(#c5_173)" preserveAspectRatio="none" x="228" y="532" width="87" height="87" xlink:href="img/5.jpg"/>
<path clip-path="url(#c6_173)" d="M205.5,619.1H337.6v-87H205.5v87Z" class="gb_173"/>
<path d="M227,350.4c0,0,-8.7,0,-8.7,8.6v60.7c0,0,0,8.6,8.7,8.6h77.9c0,0,8.7,0,8.7,-8.6V359c0,0,0,-8.6,-8.7,-8.6Z" class="g9_173"/>
<image clip-path="url(#c7_173)" preserveAspectRatio="none" x="233" y="350" width="79" height="79" xlink:href="img/6.jpg"/>
<path clip-path="url(#c8_173)" d="M212.2,429.1H332.1v-79H212.2v79Z" class="gc_173"/>
<path d="M227,519.9h77.9v-78H227v78Z" class="g9_173"/>
<g clip-path="url(#c9_173)">
<image preserveAspectRatio="none" x="227" y="441" width="80" height="80" xlink:href="img/7.jpg"/>
<path d="M205.9,521H327.5V441H205.9v80Z" class="gd_173"/>
</g>
<path d="M32.1,45.1H9.2m958.3,0h22.9M32.1,1331.3H9.2m958.3,0h22.9M45.1,32.1V9.2m0,1335.1v22.9M954.5,32.1V9.2m0,1335.1v22.9" class="ge_173"/>
<path d="M32.1,45.1H9.2m958.3,0h22.9M32.1,1331.3H9.2m958.3,0h22.9M45.1,32.1V9.2m0,1335.1v22.9M954.5,32.1V9.2m0,1335.1v22.9" class="gf_173"/>
<path d="M27.5,32.1H0m972.1,0h27.5M27.5,1344.3H0m972.1,0h27.5M32.1,27.5V0m0,1348.9v27.5M967.5,27.5V0m0,1348.9v27.5" class="ge_173"/>
<path d="M27.5,32.1H0m972.1,0h27.5M27.5,1344.3H0m972.1,0h27.5M32.1,27.5V0m0,1348.9v27.5M967.5,27.5V0m0,1348.9v27.5" class="gf_173"/>
</svg>