<?xml version="1.0" encoding="UTF-8" standalone="no"?>
<!DOCTYPE svg PUBLIC "-//W3C//DTD SVG 1.1//EN"
"http://www.w3.org/Graphics/SVG/1.1/DTD/svg11.dtd">
<svg viewBox="0 0 999 1376" version="1.1" xmlns="http://www.w3.org/2000/svg" xmlns:xlink="http://www.w3.org/1999/xlink">
<defs>
<clipPath id="c0_58"><path d="M32.1,1344.3V32.1H967.5V1344.3Z"/></clipPath>
<clipPath id="c1_58"><path d="M130,266.1V208.9h55.5v57.2Z"/></clipPath>
<clipPath id="c2_58"><path d="M155.9,358.8V293.3h698v65.5Z"/></clipPath>
<clipPath id="c3_58"><path d="M181.3,603.5l-6.4,-2L160.8,590.2V529.4h62.7v74.1Z"/></clipPath>
<clipPath id="c4_58"><path d="M181.5,833.7l-6.5,-2L160.9,820.5V759.6h62.7v74.1Z"/></clipPath>
<clipPath id="c5_58"><path d="M130,1202.9V888.3H851.6v314.6Z"/></clipPath>
<clipPath id="c6_58"><path d="M190.8,877V864.4h12.6V877Z"/></clipPath>
<clipPath id="c7_58"><path d="M502.2,877V864.5h12.6V877Z"/></clipPath>
<clipPath id="c8_58"><path d="M502.2,911.9V899.3h12.5v12.6Z"/></clipPath>
<clipPath id="c9_58"><path d="M190.8,911.9V899.4h12.6v12.5Z"/></clipPath>
<style type="text/css"><![CDATA[
.g0_58{
fill: #FFFDEA;
}
.g1_58{
fill: #BCE4EA;
}
.g2_58{
fill: #BCBEC0;
}
.g3_58{
fill: #00AABD;
}
.g4_58{
fill: #FEF0DB;
}
.g5_58{
fill: #FDD095;
}
.g6_58{
fill: #F47A43;
}
.g7_58{
fill: #FFF;
}
.g8_58{
fill: none;
stroke: #231F20;
stroke-width: 1.527;
}
.g9_58{
fill: none;
stroke: #976EAF;
stroke-width: 1.145;
stroke-linecap: round;
stroke-linejoin: round;
stroke-dasharray: 4,2;
}
.ga_58{
fill: none;
stroke: #976EAF;
stroke-width: 1.145;
stroke-linecap: round;
stroke-linejoin: round;
stroke-dasharray: 4,3;
}
.gb_58{
fill: none;
stroke: #976EAF;
stroke-width: 1.145;
stroke-linecap: round;
stroke-linejoin: round;
}
.gc_58{
fill: #D2D3D5;
}
.gd_58{
fill: #FCDCBA;
}
.ge_58{
fill: none;
stroke: #6D6F71;
stroke-width: 0.305;
stroke-miterlimit: 10;
}
.gf_58{
fill: #FCE9F1;
}
.gg_58{
fill: none;
stroke: #976EAF;
stroke-width: 3.819;
}
.gh_58{
fill: none;
stroke: #CDBCDB;
stroke-width: 3.819;
stroke-linecap: round;
stroke-linejoin: round;
stroke-dasharray: 0,14;
}
.gi_58{
fill: none;
stroke: #CDBCDB;
stroke-width: 3.819;
stroke-linecap: round;
stroke-linejoin: round;
stroke-dasharray: 0,12;
}
.gj_58{
fill: none;
stroke: #CDBCDB;
stroke-width: 3.819;
stroke-linecap: round;
stroke-linejoin: round;
}
.gk_58{
fill: #B092C4;
}
.gl_58{
fill: #976EAF;
}
.gm_58{
fill: #67C0E1;
}
.gn_58{
fill: #233D4A;
}
.go_58{
fill: #F5C44D;
}
.gp_58{
fill: none;
stroke: #D1232A;
stroke-width: 0.432;
}
.gq_58{
fill: none;
stroke: #FFF;
stroke-width: 1.909;
stroke-miterlimit: 10;
}
.gr_58{
fill: none;
stroke: #000;
stroke-width: 0.381;
stroke-miterlimit: 10;
}
]]></style>
</defs>
<g clip-path="url(#c0_58)">
<path d="M32.1,1344.3H1877V32.1H32.1V1344.3Z" class="g0_58"/>
<path d="M32.1,179.3H1877V32.1H32.1V179.3Z" class="g1_58"/>
<path d="M1877,177.2H32.1v-5.4H768.7c43.1,0,53,-37.9,115.3,-37.9h993Z" class="g2_58"/>
<path d="M1877,183.7H32.1v-9.8H768.7c43.1,0,53,-33.6,115.3,-33.6h993Z" class="g3_58"/>
</g>
<path d="M480.7,217.7c0,0,-8.6,0,-8.6,8.7v30.3c0,0,0,8.6,8.6,8.6H833c0,0,8.7,0,8.7,-8.6V226.4c0,0,0,-8.7,-8.7,-8.7Z" class="g4_58"/>
<path d="M160.5,217.7c0,0,-8.6,0,-8.6,8.7v30.3c0,0,0,8.6,8.6,8.6H731.6c0,0,8.6,0,8.6,-8.6V226.4c0,0,0,-8.7,-8.6,-8.7Z" class="g5_58"/>
<image clip-path="url(#c1_58)" preserveAspectRatio="none" x="130" y="209" width="55" height="57" xlink:href="img/1.png"/>
<path d="M154.8,210.7c12.7,0,23,10.6,23,23.7c0,13.2,-10.3,23.8,-23,23.8c-12.8,0,-23.1,-10.6,-23.1,-23.8c0,-13.1,10.3,-23.7,23.1,-23.7Z" class="g6_58"/>
<path d="M172,234.4c0,-9.8,-7.7,-17.7,-17.2,-17.7c-9.6,0,-17.3,7.9,-17.3,17.7c0,9.8,7.7,17.8,17.3,17.8c3.6,0,7,-1.2,9.7,-3.2l6.4,1.8l-1.7,-6.7c1.8,-2.8,2.8,-6.1,2.8,-9.7Z" class="g7_58"/>
<path d="M770.8,240.8c0,0,-.5,-9.9,8.3,-9.3c0,0,6.6,-.4,6.5,9.5m-14.9,-1.6v6.5c0,0,-3.2,.4,-3.8,-3c0,0,0,-3.7,3.8,-3.5Zm15,0v6.5c0,0,3.2,.4,3.7,-3c0,0,.1,-3.7,-3.7,-3.5Z" class="g8_58"/>
<image clip-path="url(#c2_58)" preserveAspectRatio="none" x="156" y="294" width="697" height="65" xlink:href="img/2.png"/>
<path d="M171.2,295.3c0,0,-13,0,-13,13v29.2c0,0,0,13,13,13H832.7c0,0,13,0,13,-13V308.3c0,0,0,-13,-13,-13Z" class="g7_58"/>
<path d="M167.7,295.8c-3.4,.9,-8.3,3.4,-9.3,9.9" class="g9_58"/>
<path d="M158.2,312.4v22.2" class="ga_58"/>
<path d="M158.8,341c.9,3.4,3.3,8.3,9.9,9.3" class="g9_58"/>
<path d="M175.3,350.5H829.8" class="ga_58"/>
<path d="M836.2,349.9c3.5,-.8,8.3,-3.3,9.3,-9.9" class="g9_58"/>
<path d="M845.7,333.4V311.2" class="ga_58"/>
<path d="M845.2,304.8c-.9,-3.4,-3.4,-8.3,-9.9,-9.3" class="g9_58"/>
<path d="M828.7,295.3H174.1" class="ga_58"/>
<path d="M158.3,306.7c0,.5,-.1,1.1,-.1,1.6v1.8m0,25.6v1.8c0,0,0,.6,.2,1.5m11.3,11.4c.5,.1,1,.1,1.5,.1H173m658,0h1.7c0,0,.6,0,1.6,-.2m11.3,-11.2c.1,-.5,.1,-1.1,.1,-1.6v-1.8m0,-25.6v-1.8c0,0,0,-.6,-.2,-1.6M834.3,295.4c-.5,-.1,-1.1,-.1,-1.6,-.1H831m-658,0h-1.8c0,0,-.6,0,-1.5,.2" class="gb_58"/>
<path d="M325.9,483.3H583.2V388H325.9v95.3Z" class="gc_58"/>
<path d="M583.2,483.3H721.4V388H583.2v95.3Z" class="g7_58"/>
<path d="M214,514.6c0,0,-13,0,-13,13v69.3c0,0,0,13,13,13H833.3c0,0,13,0,13,-13V527.6c0,0,0,-13,-13,-13Z" class="gd_58"/>
<image clip-path="url(#c3_58)" preserveAspectRatio="none" x="161" y="529" width="63" height="76" xlink:href="img/3.png"/>
<path d="M208.8,598.8c0,0,-26.9,11.3,-51.1,-12.8c0,0,15.1,25.4,49.3,24c0,0,24.7,.4,20.2,-10.1c0,0,1.2,-4.5,-18.4,-1.1Z" class="gd_58"/>
<path d="M170.8,621.5H395.9v34.7H170.8V621.5Zm225.1,0H621v34.7H395.9V621.5Zm225.1,0H846.1v34.7H621V621.5ZM170.8,656.2H395.9v34.6H170.8V656.2Zm225.1,0H621v34.6H395.9V656.2Zm225.1,0H846.1v34.6H621V656.2ZM170.8,690.8H395.9v34.7H170.8V690.8Zm225.1,0H621v34.7H395.9V690.8Zm225.1,0H846.1v34.7H621V690.8Z" class="g7_58"/>
<path d="M170.7,621.5H395.9M170.8,656V621.7m225.1,-.2H621M395.9,656V621.7M621,621.5H846.3M621,656V621.7M846.1,656V621.7M170.7,656.2H395.9M170.8,690.7V656.3m225.1,-.1H621M395.9,690.7V656.3M621,656.2H846.3M621,690.7V656.3m225.1,34.4V656.3M170.7,690.8H395.9M170.8,725.3V691m225.1,-.2H621M395.9,725.3V691M621,690.8H846.3M621,725.3V691m225.1,34.3V691M170.7,725.5H395.9m0,0H621m0,0H846.3" class="ge_58"/>
<path d="M214.1,788.8c0,0,-13,0,-13,12.9v21.7c0,0,0,13,13,13h619c0,0,13,0,13,-13V801.7c0,0,0,-12.9,-13,-12.9Z" class="gd_58"/>
<image clip-path="url(#c4_58)" preserveAspectRatio="none" x="161" y="759" width="63" height="76" xlink:href="img/4.png"/>
<path d="M208.9,829c0,0,-26.8,11.3,-51.1,-12.7c0,0,15.2,25.3,49.3,23.9c0,0,24.7,.4,20.2,-10.1c0,0,1.3,-4.4,-18.4,-1.1Z" class="gd_58"/>
<image clip-path="url(#c5_58)" preserveAspectRatio="none" x="130" y="889" width="721" height="314" xlink:href="img/5.png"/>
<path d="M150.9,891.9c0,0,-17.3,0,-17.3,17.3v266.6c0,0,0,17.4,17.3,17.4H824.7c0,0,17.4,0,17.4,-17.4V909.2c0,0,0,-17.3,-17.4,-17.3Z" class="gf_58"/>
<path d="M150.9,891.9c0,0,-17.3,0,-17.3,17.3v266.6c0,0,0,17.4,17.3,17.4H824.7c0,0,17.4,0,17.4,-17.4V909.2c0,0,0,-17.3,-17.4,-17.3H150.9Z" class="gg_58"/>
<path d="M138.4,896.8c-1.5,1.4,-2.9,3.3,-3.7,5.7" class="gh_58"/>
<path d="M133.6,920.8V1170" class="gi_58"/>
<path d="M138.5,1188.4c1.4,1.5,3.3,2.8,5.7,3.7" class="gh_58"/>
<path d="M162.3,1193.2H819" class="gi_58"/>
<path d="M837.3,1188.3c1.5,-1.4,2.8,-3.3,3.7,-5.7" class="gh_58"/>
<path d="M842.1,1164.2V915" class="gi_58"/>
<path d="M837.2,896.7c-1.4,-1.5,-3.3,-2.9,-5.7,-3.7" class="gh_58"/>
<path d="M813.3,891.9H156.6" class="gi_58"/>
<path d="M133.6,909.2v0m0,266.6v0m17.3,17.4v0m673.8,0v0m17.4,-17.4v0m0,-266.6v0M824.7,891.9v0m-673.8,0v0" class="gj_58"/>
<path d="M201.8,866l-9.5,9.4v25.5l9.5,9.5h302l9.4,-9.5V875.4L503.8,866Z" class="gk_58"/>
<path d="M201.8,900.9H503.7V875.5H201.8v25.4Z" class="g7_58"/>
<g clip-path="url(#c6_58)" style="mix-blend-mode: multiply;">
<path d="M192.3,875.5h9.5V866Z" class="gl_58"/>
</g>
<g clip-path="url(#c7_58)" style="mix-blend-mode: multiply;">
<path d="M503.7,866v9.5h9.5Z" class="gl_58"/>
</g>
<g clip-path="url(#c8_58)" style="mix-blend-mode: multiply;">
<path d="M513.2,900.9h-9.5v9.5Z" class="gl_58"/>
</g>
<g clip-path="url(#c9_58)" style="mix-blend-mode: multiply;">
<path d="M201.9,910.4v-9.5h-9.6Z" class="gl_58"/>
</g>
<path d="M176.8,899.9c0,.2,.1,.5,.1,.8c.1,1.9,-1.3,3.4,-3.1,3.5c-1.8,0,-3.3,-1.4,-3.4,-3.3c0,-.3,0,-.6,.1,-.8Z" class="gm_58"/>
<path d="M173.8,904.9c-2.2,.1,-4,-1.7,-4.1,-3.9c0,-.4,0,-.7,.1,-1.1c.1,-.4,.4,-.6,.8,-.5c.4,0,.7,.4,.6,.8c0,.2,-.1,.5,-.1,.7c.1,1.5,1.3,2.6,2.6,2.5c1.4,0,2.5,-1.2,2.5,-2.7c0,-.2,-.1,-.4,-.1,-.6c-.2,-.4,.1,-.8,.5,-1c.4,-.1,.8,.2,.9,.6c.1,.3,.1,.6,.1,1c.1,2.2,-1.6,4.1,-3.8,4.2Z" class="gn_58"/>
<path d="M171.2,875.3c-.1,-.2,-.2,-.5,-.2,-.8v-.1c-.1,-1.1,.8,-2.1,1.9,-2.1c1.1,0,2,.9,2,2v.1c0,.3,0,.5,-.1,.8Z" class="gm_58"/>
<path d="M171.2,876c-.3,0,-.6,-.1,-.7,-.4c-.2,-.3,-.2,-.7,-.3,-1.1v-.1c0,-1.5,1.2,-2.8,2.7,-2.8c1.4,-.1,2.7,1.1,2.7,2.7l.1,.1c0,.3,-.1,.7,-.2,1c-.2,.4,-.6,.6,-1,.5c-.3,-.2,-.5,-.6,-.4,-1c.1,-.1,.1,-.3,.1,-.5v-.1c0,-.7,-.6,-1.3,-1.3,-1.3c-.7,.1,-1.2,.7,-1.2,1.4v.1c0,.2,.1,.3,.1,.5c.2,.4,0,.8,-.3,1c-.1,0,-.2,0,-.3,0Z" class="gn_58"/>
<path d="M185.6,894.7l-.7,-7.1c-.3,-7,-5.6,-12.4,-12,-12.2c-6.3,.2,-11.2,6,-11,13l-.2,6.9Z" class="go_58"/>
<path d="M185.7,895.4c-.4,0,-.7,-.3,-.8,-.6l-.8,-7.1c-.2,-6.6,-5.2,-11.8,-11.1,-11.6c-6,.2,-10.6,5.7,-10.4,12.3l-.2,6.9c0,.4,-.3,.7,-.7,.7c-.4,0,-.8,-.4,-.7,-.8l.2,-6.8c-.3,-7.3,5,-13.5,11.7,-13.7c6.8,-.3,12.4,5.5,12.7,12.9l.8,7c0,.4,-.3,.8,-.7,.8Z" class="gn_58"/>
<path d="M187.9,886.1c-.1,0,-.2,0,-.3,0c-.4,-.1,-.6,-.6,-.4,-.9c.7,-2.4,-.8,-3.7,-.8,-3.7c-.4,-.3,-.4,-.7,-.1,-1.1c.2,-.3,.7,-.3,1,-.1c.1,.1,2.4,2,1.2,5.3c-.1,.3,-.3,.5,-.6,.5Z" class="gn_58"/>
<path d="M190.4,887q-.1,0,-.2,0c-.4,-.2,-.6,-.6,-.5,-.9c1.4,-4.3,-1.4,-6.7,-1.5,-6.8c-.3,-.3,-.4,-.8,-.1,-1.1c.2,-.3,.7,-.3,1,-.1c.2,.1,3.8,3.1,2,8.4c-.1,.3,-.4,.5,-.7,.5Z" class="gn_58"/>
<path d="M187.1,897c0,1.2,-.8,2.2,-2,2.2l-23,.8c-1.1,.1,-2,-.8,-2.1,-2v-.4c0,-1.2,.8,-2.2,2,-2.2l22.9,-.8c1.2,-.1,2.1,.9,2.2,2.1Z" class="go_58"/>
<path d="M185.1,900l-22.9,.8c-1.6,0,-2.9,-1.2,-2.9,-2.8v-.4c-.1,-1.6,1.1,-2.9,2.7,-2.9l22.9,-.8c1.6,-.1,2.9,1.1,2.9,2.7v.4c.1,1.6,-1.1,2.9,-2.7,3M162,896.1c-.7,0,-1.3,.7,-1.3,1.5v.4c.1,.7,.7,1.3,1.4,1.3l23,-.8c.7,0,1.3,-.7,1.3,-1.4v-.4c-.1,-.8,-.7,-1.4,-1.4,-1.4Z" class="gn_58"/>
<path d="M176.2,878.8c-.4,0,-.7,.3,-.9,.6c-.1,.5,.2,1,.6,1.1c.1,.1,3.9,1.4,4.1,6.4c0,.5,.4,.8,.9,.8c.5,0,.9,-.4,.9,-.9c-.2,-6.2,-5.1,-7.9,-5.4,-7.9c0,-.1,-.2,-.1,-.2,-.1Z" class="gd_58"/>
<path d="M473.1,429.7c6.1,0,11.1,-3.1,11.1,-7.1c0,-3.9,-5,-7,-11.1,-7c-6.2,0,-11.2,3.1,-11.2,7c0,4,5,7.1,11.2,7.1Zm0,40.6c6.1,0,11.1,-3.1,11.1,-7.1c0,-3.9,-5,-7,-11.1,-7c-6.2,0,-11.2,3.1,-11.2,7c0,4,5,7.1,11.2,7.1Zm22.2,-68.8l4.8,2.5l.1,-5.5m-23.1,31.1c0,0,11.9,12.2,9.9,-17.3c0,0,-2.1,-26.8,13.2,-8.2m-5.8,38.2l4.8,2.5l.1,-5.5m-23.2,31.1c0,0,11.9,12.1,10,-17.3c0,0,-2.2,-26.9,13.2,-8.2" class="gp_58"/>
<path d="M32.1,45.1H9.2m958.3,0h22.9M32.1,1331.3H9.2m958.3,0h22.9M45.1,32.1V9.2m0,1335.1v22.9M954.5,32.1V9.2m0,1335.1v22.9" class="gq_58"/>
<path d="M32.1,45.1H9.2m958.3,0h22.9M32.1,1331.3H9.2m958.3,0h22.9M45.1,32.1V9.2m0,1335.1v22.9M954.5,32.1V9.2m0,1335.1v22.9" class="gr_58"/>
<path d="M27.5,32.1H0m972.1,0h27.5M27.5,1344.3H0m972.1,0h27.5M32.1,27.5V0m0,1348.9v27.5M967.5,27.5V0m0,1348.9v27.5" class="gq_58"/>
<path d="M27.5,32.1H0m972.1,0h27.5M27.5,1344.3H0m972.1,0h27.5M32.1,27.5V0m0,1348.9v27.5M967.5,27.5V0m0,1348.9v27.5" class="gr_58"/>
</svg>