<?xml version="1.0" encoding="UTF-8" standalone="no"?>
<!DOCTYPE svg PUBLIC "-//W3C//DTD SVG 1.1//EN"
"http://www.w3.org/Graphics/SVG/1.1/DTD/svg11.dtd">
<svg viewBox="0 0 999 1376" version="1.1" xmlns="http://www.w3.org/2000/svg" xmlns:xlink="http://www.w3.org/1999/xlink">
<defs>
<clipPath id="c0_25"><path d="M32.1,1344.3V32.1H967.5V1344.3Z"/></clipPath>
<clipPath id="c1_25"><path d="M203.3,262.3l-6.5,-2L182.7,249V188.1h62.7v74.2Z"/></clipPath>
<clipPath id="c2_25"><path d="M426.6,460.6V403.8h76.1v56.8Z"/></clipPath>
<clipPath id="c3_25"><path d="M748.1,463.3V401.1h78.1v62.2Z"/></clipPath>
<clipPath id="c4_25"><path d="M750.6,703.8V646.2h73.1v57.6Z"/></clipPath>
<clipPath id="c5_25"><path d="M415.4,959.7V921.8h98.5v37.9Z"/></clipPath>
<clipPath id="c6_25"><path d="M736.9,958.7v-36H837.4v36Z"/></clipPath>
<style type="text/css"><![CDATA[
.g0_25{
fill: #FFFDEA;
}
.g1_25{
fill: #BCE4EA;
}
.g2_25{
fill: #BCBEC0;
}
.g3_25{
fill: #00AABD;
}
.g4_25{
fill: #FCDCBA;
}
.g5_25{
fill: #F1EDF5;
}
.g6_25{
fill: #FFF;
}
.g7_25{
fill: none;
stroke: #6D6F71;
stroke-width: 0.305;
stroke-miterlimit: 10;
}
.g8_25{
fill: #86888B;
}
.g9_25{
fill: none;
stroke: #231F20;
stroke-width: 0.213;
}
.ga_25{
fill: #B6B8BA;
}
.gb_25{
fill: none;
stroke: #231F20;
stroke-width: 0.242;
}
.gc_25{
fill: none;
stroke: #231F20;
stroke-width: 0.271;
}
.gd_25{
fill: none;
stroke: #231F20;
stroke-width: 0.294;
}
.ge_25{
fill: none;
stroke: #231F20;
stroke-width: 0.152;
}
.gf_25{
fill: none;
stroke: #231F20;
stroke-width: 0.368;
stroke-linecap: round;
stroke-linejoin: round;
}
.gg_25{
fill: none;
stroke: #231F20;
stroke-width: 0.293;
}
.gh_25{
fill: none;
stroke: #231F20;
stroke-width: 0.311;
}
.gi_25{
fill: none;
stroke: #231F20;
stroke-width: 0.389;
stroke-linecap: round;
stroke-linejoin: round;
}
.gj_25{
fill: none;
stroke: #231F20;
stroke-width: 0.276;
}
.gk_25{
fill: none;
stroke: #231F20;
stroke-width: 0.259;
}
.gl_25{
fill: none;
stroke: #FFF;
stroke-width: 1.909;
stroke-miterlimit: 10;
}
.gm_25{
fill: none;
stroke: #000;
stroke-width: 0.381;
stroke-miterlimit: 10;
}
]]></style>
</defs>
<g clip-path="url(#c0_25)">
<path d="M-877.3,1344.3H967.5V32.1H-877.3V1344.3Z" class="g0_25"/>
<path d="M-877.3,179.3H967.5V32.1H-877.3V179.3Z" class="g1_25"/>
<path d="M967.5,177.2H-877.3v-5.4h736.6c43.1,0,53.1,-37.9,115.3,-37.9H967.5Z" class="g2_25"/>
<path d="M967.5,183.7H-877.3v-9.8h736.6c43.1,0,53.1,-33.6,115.3,-33.6H967.5Z" class="g3_25"/>
</g>
<path d="M235.9,217.3c0,0,-13,0,-13,13V252c0,0,0,12.9,13,12.9h619c0,0,13,0,13,-12.9V230.3c0,0,0,-13,-13,-13Z" class="g4_25"/>
<image clip-path="url(#c1_25)" preserveAspectRatio="none" x="183" y="187" width="62" height="77" xlink:href="img/1.png"/>
<path d="M230.7,257.6c0,0,-26.9,11.3,-51.1,-12.8c0,0,15.1,25.3,49.3,24c0,0,24.7,.3,20.2,-10.1c0,0,1.2,-4.5,-18.4,-1.1Z" class="g4_25"/>
<path d="M222.8,384.6H384v95.2H222.8V384.6Zm322.5,0H706.5v95.2H545.3V384.6Z" class="g5_25"/>
<path d="M384,384.6H545.3v95.2H384V384.6Zm322.5,0H867.8v95.2H706.5V384.6Z" class="g6_25"/>
<path d="M222.6,384.6H384M222.8,479.7v-95M384,384.6H545.3M384,479.7v-95m322.5,-.1H867.9m-.1,95.1v-95M222.6,479.8H384m0,0H545.3m161.2,0H867.9M545.3,384.6H706.5M545.3,479.7v-95m161.2,95v-95M545.3,479.8H706.5" class="g7_25"/>
<path clip-path="url(#c2_25)" d="M498.1,415.1c-3.2,-2.5,-6.7,-4.1,-9.5,-5.5c-5.5,-2.7,-10.5,-4.5,-13.9,-4.4c-3.8,-.1,-6,1.7,-9.9,1.6c-2.1,0,-5.6,-1.8,-10.5,-1.8c-2.9,0,-7.4,1.7,-12.3,3.8c-5.7,2.5,-13.5,6.4,-15.1,9.4c-.7,3.3,1.2,6.9,3.6,11.8c2.3,4.9,4.8,14.1,10.8,20.7c7.3,7.9,16,8.6,23.2,8.6c8.5,0,17.9,-.9,23.9,-6.9c5.9,-6,9.4,-20.2,11.9,-24.8c1.3,-2.3,1.9,-5.1,1.9,-7.1c0,-1.8,-1.3,-3.2,-4.1,-5.4Z" class="g8_25"/>
<path d="M434.7,411c0,0,1.2,2.5,2,3.2c.5,.5,2.2,-.1,2.4,-.5c.3,-.4,-.6,-4.4,-.6,-4.4Z" class="g6_25"/>
<path d="M490.5,413.4c.5,.3,1.2,1,2.5,1.2c1.3,.2,1.7,-.7,2,-1.1c.3,-.4,-3.4,-4.5,-5,-3.8c-1.6,.6,.5,3.7,.5,3.7Z" class="g6_25"/>
<path d="M490.5,413.4c.5,.3,1.2,1,2.5,1.2c1.3,.2,1.7,-.7,2,-1.1c.3,-.4,-3.4,-4.5,-5,-3.8c-1.6,.6,.5,3.7,.5,3.7Z" class="g9_25"/>
<path d="M434.9,413.7c.5,.3,1.4,1.3,2.8,1.5c1.3,.2,1.5,-.5,1.8,-.8c.3,-.4,1.3,-2.2,1.3,-2.2c0,0,-3.3,-.9,-4.9,-.2c-1.6,.7,-1,1.7,-1,1.7Z" class="g6_25"/>
<path d="M434.9,413.7c.5,.3,1.4,1.3,2.8,1.5c1.3,.2,1.5,-.5,1.8,-.8c.3,-.4,1.3,-2.2,1.3,-2.2c0,0,-3.3,-.9,-4.9,-.2c-1.6,.7,-1,1.7,-1,1.7Z" class="g9_25"/>
<path d="M437.7,409.8c.4,3.9,2,5.2,2.5,5.7c.4,.6,1.7,.7,3.8,-.7c2.2,-1.3,.5,-7.2,.5,-7.2Z" class="g6_25"/>
<path d="M437.7,409.8c.4,3.9,2,5.2,2.5,5.7c.4,.6,1.7,.7,3.8,-.7c2.2,-1.3,.5,-7.2,.5,-7.2l-6.8,2.2Z" class="g9_25"/>
<path d="M491,411.7c-.3,.7,-.2,.9,-.9,2.6c-.7,1.3,-1.2,1.7,-2,1.8c-1.3,.1,-3,-.1,-3.7,-1.6c-.7,-1.5,.4,-7.3,.4,-7.3c0,0,6.1,3,6.2,4.5Z" class="g6_25"/>
<path d="M491,411.7c-.3,.7,-.2,.9,-.9,2.6c-.7,1.3,-1.2,1.7,-2,1.8c-1.3,.1,-3,-.1,-3.7,-1.6c-.7,-1.5,.4,-7.3,.4,-7.3c0,0,6.1,3,6.2,4.5Z" class="g9_25"/>
<path d="M476.1,416.3c.2,.6,.6,1.1,.9,1.3c.1,.1,1.6,.2,3.5,-.2c1.4,-.3,2.8,-1,3.6,-1.6c.5,-.3,.6,-.9,.7,-1.5c0,-.6,.4,-3.8,-.3,-5.8c-.7,-2.1,-8.8,-.7,-9.1,.5c-.3,1.2,.7,7.3,.7,7.3Z" class="g6_25"/>
<path d="M476.1,416.3c.2,.6,.6,1.1,.9,1.3c.1,.1,1.6,.2,3.5,-.2c1.4,-.3,2.8,-1,3.6,-1.6c.5,-.3,.6,-.9,.7,-1.5c0,-.6,.4,-3.8,-.3,-5.8c-.7,-2.1,-8.8,-.7,-9.1,.5c-.3,1.2,.7,7.3,.7,7.3Z" class="g9_25"/>
<path d="M452.3,416.2c-.2,.6,-.5,.9,-.7,1.2c-.2,.1,-2,.8,-3.8,.3c-1.3,-.3,-2.9,-.4,-3.6,-1c-.5,-.4,-.6,-.9,-.6,-1.5c-.1,-.6,-.6,-4.6,.1,-6.7c.7,-2,9,-.6,9.2,.6c.3,1.2,-.6,7.1,-.6,7.1Z" class="g6_25"/>
<path d="M452.3,416.2c-.2,.6,-.5,.9,-.7,1.2c-.2,.1,-2,.8,-3.8,.3c-1.3,-.3,-2.9,-.4,-3.6,-1c-.5,-.4,-.6,-.9,-.6,-1.5c-.1,-.6,-.6,-4.6,.1,-6.7c.7,-2,9,-.6,9.2,.6c.3,1.2,-.6,7.1,-.6,7.1Z" class="g9_25"/>
<path d="M464.1,411.1c.2,.4,.3,1.1,.3,1.7c.2,1.7,.1,5.4,.1,5.4c0,0,-.2,.5,-.5,.8c-2.4,1,-9.8,.9,-11,-.7c-1.1,-1.9,-.7,-6.2,-.4,-7.5l.3,-2.4c.5,-.7,10.6,1,11.2,2.7Z" class="g6_25"/>
<path d="M464.1,411.1c.2,.4,.3,1.1,.3,1.7c.2,1.7,.1,5.4,.1,5.4c0,0,-.2,.5,-.5,.8c-2.4,1,-9.8,.9,-11,-.7c-1.1,-1.9,-.7,-6.2,-.4,-7.5l.3,-2.4c.5,-.7,10.6,1,11.2,2.7Z" class="g9_25"/>
<path d="M475.4,409.2c.5,.7,.8,4.2,.8,5.2c0,1,-.1,2.4,-.8,3.5c-1.3,.6,-3.3,.9,-5,1.1c-2.3,.3,-4.5,.2,-4.8,0c-.6,-.2,-1.1,-.5,-1.1,-1.3c0,-1.1,-.1,-3.5,0,-5c0,-1,.1,-1.8,.2,-2c.3,-.9,9.7,-3.1,10.7,-1.5Z" class="g6_25"/>
<path d="M475.4,409.2c.5,.7,.8,4.2,.8,5.2c0,1,-.1,2.4,-.8,3.5c-1.3,.6,-3.3,.9,-5,1.1c-2.3,.3,-4.5,.2,-4.8,0c-.6,-.2,-1.1,-.5,-1.1,-1.3c0,-1.1,-.1,-3.5,0,-5c0,-1,.1,-1.8,.2,-2c.3,-.9,9.7,-3.1,10.7,-1.5Z" class="g9_25"/>
<path d="M445.7,444c-.3,-1,-.1,-1.9,-1.1,-2.6c-.8,-.6,-2.7,.2,-3.2,.3c-.6,.2,-1.9,2.4,-2.2,4c-.3,1.6,4.2,5,5.2,5.6c1,.6,1.2,-3.1,1.3,-4c.1,-.9,1,-2.7,0,-3.3Z" class="g6_25"/>
<path d="M445.7,444c-.3,-1,-.1,-1.9,-1.1,-2.6c-.8,-.6,-2.7,.2,-3.2,.3c-.6,.2,-1.9,2.4,-2.2,4c-.3,1.6,4.2,5,5.2,5.6c1,.6,1.2,-3.1,1.3,-4c.1,-.9,1,-2.7,0,-3.3Z" class="g9_25"/>
<path d="M450.8,446.2c-.4,-1.5,-1.3,-1.9,-1.7,-2.7c-.4,-.7,-1.2,-1.5,-2.9,-.4c-.6,.3,-1.9,3,-2.1,4.3c-.2,1.4,.9,1.3,1.9,1.9c1.9,1.2,4.6,-1,4.8,-3.1Z" class="g6_25"/>
<path d="M450.8,446.2c-.4,-1.5,-1.3,-1.9,-1.7,-2.7c-.4,-.7,-1.2,-1.5,-2.9,-.4c-.6,.3,-1.9,3,-2.1,4.3c-.2,1.4,.9,1.3,1.9,1.9c1.9,1.2,4.6,-1,4.8,-3.1Z" class="g9_25"/>
<path d="M489.2,442.6c-.7,-.5,-1.3,-1.1,-1.9,-1.2c-1.8,-.6,-2.6,.5,-2.9,1c-.3,.4,-.9,1.6,-1.2,2c-.4,.5,-.5,2.2,1.1,4.9c.4,.7,5.9,-4.3,6.4,-5.2c.3,-.5,-.7,-.7,-1.5,-1.5Z" class="g6_25"/>
<path d="M489.2,442.6c-.7,-.5,-1.3,-1.1,-1.9,-1.2c-1.8,-.6,-2.6,.5,-2.9,1c-.3,.4,-.9,1.6,-1.2,2c-.4,.5,-.5,2.2,1.1,4.9c.4,.7,5.9,-4.3,6.4,-5.2c.3,-.5,-.7,-.7,-1.5,-1.5Z" class="g9_25"/>
<path d="M482.9,443c-1.8,-.6,-2.1,.1,-2.4,.6c-.3,.4,-.9,1.2,-1.2,1.7c-.4,.4,-.6,2.5,1.1,5.2c.4,.6,4.1,-2.5,4.6,-3.4c.5,-.9,-.6,-3.8,-2.1,-4.1Z" class="g6_25"/>
<path d="M482.9,443c-1.8,-.6,-2.1,.1,-2.4,.6c-.3,.4,-.9,1.2,-1.2,1.7c-.4,.4,-.6,2.5,1.1,5.2c.4,.6,4.1,-2.5,4.6,-3.4c.5,-.9,-.6,-3.8,-2.1,-4.1Z" class="g9_25"/>
<path d="M473.2,448.3c1.4,0,6.7,-.9,6.8,-2.4c.1,-1.7,-.9,-1.6,-2,-1.8c-1.1,-.2,-3.4,.6,-4.6,.8c-1.1,.3,-1,1,-1.1,1.9c-.1,1,.9,1.5,.9,1.5Z" class="g6_25"/>
<path d="M473.2,448.3c1.4,0,6.7,-.9,6.8,-2.4c.1,-1.7,-.9,-1.6,-2,-1.8c-1.1,-.2,-3.4,.6,-4.6,.8c-1.1,.3,-1,1,-1.1,1.9c-.1,1,.9,1.5,.9,1.5Z" class="g9_25"/>
<path d="M449,447.8c.5,-1.7,1.6,-3.7,3,-3.7c1.4,0,1.6,.3,2.5,.4c.9,.1,3,.3,2.7,1.7c-.2,1.3,-.3,3,-.3,3c0,0,-8.8,1.4,-7.9,-1.4Z" class="g6_25"/>
<path d="M449,447.8c.5,-1.7,1.6,-3.7,3,-3.7c1.4,0,1.6,.3,2.5,.4c.9,.1,3,.3,2.7,1.7c-.2,1.3,-.3,3,-.3,3c0,0,-8.8,1.4,-7.9,-1.4Z" class="g9_25"/>
<path d="M457.3,448.9c-.1,-.4,-.1,-2.8,.4,-3.6c.2,-.3,.9,-.6,1.9,-.5c2.2,.5,4.1,0,4.9,.6c.3,.2,.4,1.2,.1,2c-.2,.6,-7.3,1.5,-7.3,1.5Z" class="g6_25"/>
<path d="M457.3,448.9c-.1,-.4,-.1,-2.8,.4,-3.6c.2,-.3,.9,-.6,1.9,-.5c2.2,.5,4.1,0,4.9,.6c.3,.2,.4,1.2,.1,2c-.2,.6,-7.3,1.5,-7.3,1.5Z" class="g9_25"/>
<path d="M464.8,446c.2,-.5,.1,-.7,.8,-1c.6,-.2,1.6,0,3,-.1c1.3,-.2,2.3,-.1,2.9,.1c.8,.2,.8,.9,.8,.9v2.3c0,0,-7.2,0,-7.5,0c-.3,-.1,-.2,-1.5,0,-2.2Z" class="g6_25"/>
<path d="M464.8,446c.2,-.5,.1,-.7,.8,-1c.6,-.2,1.6,0,3,-.1c1.3,-.2,2.3,-.1,2.9,.1c.8,.2,.8,.9,.8,.9v2.3c0,0,-7.2,0,-7.5,0c-.3,-.1,-.2,-1.5,0,-2.2Z" class="g9_25"/>
<g clip-path="url(#c2_25)">
<path d="M495.6,432.8c-3,3.8,-5.9,8.1,-11.5,10.8c-5.6,2.7,-11.6,2.4,-18.6,2.4c-8.7,0,-17.9,.6,-24.1,-5.9c-5,-5.2,-9,-10.2,-10.8,-12.2c-1.9,-2,-5.3,-8.8,-2.1,-11.2c3.2,-2.4,7.5,-2.3,11.2,-3c3.7,-.7,7.2,-1.6,9.8,-1.5c2.6,.1,7.5,1.9,14.7,1.9c5.2,.2,9.3,-1.6,14.4,-1.9c2.9,-.5,4.9,-.6,9.1,.2c3.6,.6,6.1,1.4,8.3,2.3c4.1,1.5,5.9,4.3,6,5.2c.3,2.5,-2.2,7.5,-6.4,12.9m2.9,-18.4c-3.3,-2.6,-6.8,-4.3,-9.7,-5.7c-5.5,-2.9,-11.4,-4.9,-14.8,-4.8c-3.9,-.1,-5.2,1.9,-9.2,1.8c-2.2,0,-5,-1.8,-9.9,-1.8c-3,0,-8.1,1.7,-13.2,4c-5.7,2.5,-13.2,7.1,-14.9,10.2c-.6,3.5,.9,6.7,3.3,11.8c2.4,5.1,4.9,14.7,11,21.5c7.4,8.3,16.2,9,23.4,9c8.6,0,18.1,-.9,24.1,-7.2c6,-6.2,9.3,-19.6,12,-25.8c1.2,-2.5,2,-5.3,2,-7.4c0,-1.8,-1.3,-3.3,-4.1,-5.6Z" class="ga_25"/>
<path d="M495.6,432.8c-3,3.8,-5.9,8.1,-11.5,10.8c-5.6,2.7,-11.6,2.4,-18.6,2.4c-8.7,0,-17.9,.6,-24.1,-5.9c-5,-5.2,-9,-10.2,-10.8,-12.2c-1.9,-2,-5.3,-8.8,-2.1,-11.2c3.2,-2.4,7.5,-2.3,11.2,-3c3.7,-.7,7.2,-1.6,9.8,-1.5c2.6,.1,7.5,1.9,14.7,1.9c5.2,.2,9.3,-1.6,14.4,-1.9c2.9,-.5,4.9,-.6,9.1,.2c3.6,.6,6.1,1.4,8.3,2.3c4.1,1.5,5.9,4.3,6,5.2c.3,2.5,-2.2,7.5,-6.4,12.9Zm2.9,-18.4c-3.3,-2.6,-6.8,-4.3,-9.7,-5.7c-5.5,-2.9,-11.4,-4.9,-14.8,-4.8c-3.9,-.1,-5.2,1.9,-9.2,1.8c-2.2,0,-5,-1.8,-9.9,-1.8c-3,0,-8.1,1.7,-13.2,4c-5.7,2.5,-13.2,7.1,-14.9,10.2c-.6,3.5,.9,6.7,3.3,11.8c2.4,5.1,4.9,14.7,11,21.5c7.4,8.3,16.2,9,23.4,9c8.6,0,18.1,-.9,24.1,-7.2c6,-6.2,9.3,-19.6,12,-25.8c1.2,-2.5,2,-5.3,2,-7.4c0,-1.8,-1.3,-3.3,-4.1,-5.6Z" class="g9_25"/>
</g>
<path d="M820.5,420.7c-2.9,-3.3,-7.6,-9.3,-10.1,-11.5c-5.4,-4.7,-10.8,-7.6,-14.3,-7.4c-4,-.2,-5.4,1.8,-9.5,1.7c-2.3,0,-5.3,-1.7,-10.4,-1.7c-3,0,-8.6,3,-13.6,8.2c-4.8,4.9,-12.1,17.8,-13.7,20.6c-.6,3.4,-.6,6.6,2.9,11c2.9,3.7,6.8,8.2,10.7,12.8c7.4,8.5,16.3,8.1,23.9,8.1c8.9,0,19.2,-.7,25.5,-6.8c6.2,-6.2,9.1,-13.2,13,-17.8c.5,-.5,1.2,-3.9,.8,-5.9c-.3,-1.7,-2.3,-7.8,-5.2,-11.3Z" class="g8_25"/>
<path d="M800.7,420.1c.3,.7,.7,1.3,1,1.6c.3,.2,2,.3,4.4,0c1.7,-.3,3.4,-.9,4.4,-1.5c.6,-.4,.7,-1.1,.8,-1.8c.1,-.7,.5,-4.5,-.3,-7c-.9,-2.4,-10.8,-1.4,-11.2,0c-.3,1.4,.9,8.7,.9,8.7Z" class="g6_25"/>
<path d="M800.7,420.1c.3,.7,.7,1.3,1,1.6c.3,.2,2,.3,4.4,0c1.7,-.3,3.4,-.9,4.4,-1.5c.6,-.4,.7,-1.1,.8,-1.8c.1,-.7,.5,-4.5,-.3,-7c-.9,-2.4,-10.8,-1.4,-11.2,0c-.3,1.4,.9,8.7,.9,8.7Z" class="gb_25"/>
<path d="M773,419.1c-.3,.7,-.6,1.1,-.9,1.3c-.2,.2,-2.3,1,-4.4,.5c-1.5,-.4,-3.3,-.6,-4.2,-1.3c-.6,-.4,-.6,-1,-.7,-1.7c-.1,-.8,-.6,-5.4,.2,-7.8c.7,-2.4,10.4,-.8,10.8,.6c.3,1.5,-.8,8.4,-.8,8.4Z" class="g6_25"/>
<path d="M773,419.1c-.3,.7,-.6,1.1,-.9,1.3c-.2,.2,-2.3,1,-4.4,.5c-1.5,-.4,-3.3,-.6,-4.2,-1.3c-.6,-.4,-.6,-1,-.7,-1.7c-.1,-.8,-.6,-5.4,.2,-7.8c.7,-2.4,10.4,-.8,10.8,.6c.3,1.5,-.8,8.4,-.8,8.4Z" class="gb_25"/>
<path d="M786.8,413.2c.2,.4,.3,1.2,.4,1.9c.2,2,.1,6.3,.1,6.3c0,0,-.2,.7,-.6,.9c-2.9,1.2,-11.5,1.2,-12.9,-.8c-1.2,-2.2,-.9,-7.2,-.5,-8.7l.4,-2.9c.6,-.8,12.4,1.2,13.1,3.3Z" class="g6_25"/>
<path d="M786.8,413.2c.2,.4,.3,1.2,.4,1.9c.2,2,.1,6.3,.1,6.3c0,0,-.2,.7,-.6,.9c-2.9,1.2,-11.5,1.2,-12.9,-.8c-1.2,-2.2,-.9,-7.2,-.5,-8.7l.4,-2.9c.6,-.8,12.4,1.2,13.1,3.3Z" class="gb_25"/>
<path d="M799.9,411.6c.5,.9,.8,5,.8,6.2c0,1.3,-.1,2.9,-.9,4.1c-1.5,.7,-3.8,.8,-5.7,1c-2.7,.2,-5.2,-.2,-5.6,-.4c-.6,-.3,-1.2,-.7,-1.2,-1.6c0,-1.4,-.1,-4.3,0,-6c0,-1.2,.1,-2.1,.2,-2.4c.4,-1,11.2,-2.9,12.4,-.9Z" class="g6_25"/>
<path d="M799.9,411.6c.5,.9,.8,5,.8,6.2c0,1.3,-.1,2.9,-.9,4.1c-1.5,.7,-3.8,.8,-5.7,1c-2.7,.2,-5.2,-.2,-5.6,-.4c-.6,-.3,-1.2,-.7,-1.2,-1.6c0,-1.4,-.1,-4.3,0,-6c0,-1.2,.1,-2.1,.2,-2.4c.4,-1,11.2,-2.9,12.4,-.9Z" class="gb_25"/>
<g clip-path="url(#c3_25)">
<path d="M820,440.7c-3.4,4.6,-7.9,6.6,-14,8.4c-6.3,1.9,-11.5,.7,-19,1.1c-9.2,.4,-14.4,1.3,-22,-1.7c-3.8,-1.5,-8.4,-5.4,-10.9,-8c-3.6,-3.9,-3.9,-6.6,-3,-8c1.1,-1.5,5,-6.1,7.9,-9c4.8,-4.7,9.5,-10.5,14.7,-10.5c2.8,0,5.8,1.3,12.2,1.4c4.9,.2,7.2,-.7,13.5,-1.1c3,-.5,7.5,.8,10.9,3.9c1.4,1.3,5,4.9,7.8,7.8c3.2,3.2,5.6,5.8,5.7,8.5c.4,2.5,-1.2,3.8,-3.8,7.2m-.9,-22.5c-2.9,-3.5,-4.6,-6.3,-7,-8.9c-3.8,-4.3,-9.7,-8.4,-14.4,-8.1c-4.1,-.1,-6.1,1.7,-10.3,1.6c-2.3,0,-7.9,-1.5,-12.7,-1.3c-1.6,.1,-7.9,2.9,-13.1,8.4c-4.9,5.2,-11.4,18.4,-13,21.3c-1.1,2.6,.2,7.6,3.8,12.3c3.1,4,4.9,8,9.4,12.5c8.3,8.4,18.1,7.1,25.8,7.1c9.1,0,15.2,.2,22.2,-3.9c2.4,-1.4,5.4,-4.2,7.2,-6.9c3.4,-4.5,6.3,-10.2,7.9,-14.4c.9,-2.1,1.2,-3.9,1.2,-5.5c0,-2.8,-4,-10.6,-7,-14.2Z" class="ga_25"/>
<path d="M820,440.7c-3.4,4.6,-7.9,6.6,-14,8.4c-6.3,1.9,-11.5,.7,-19,1.1c-9.2,.4,-14.4,1.3,-22,-1.7c-3.8,-1.5,-8.4,-5.4,-10.9,-8c-3.6,-3.9,-3.9,-6.6,-3,-8c1.1,-1.5,5,-6.1,7.9,-9c4.8,-4.7,9.5,-10.5,14.7,-10.5c2.8,0,5.8,1.3,12.2,1.4c4.9,.2,7.2,-.7,13.5,-1.1c3,-.5,7.5,.8,10.9,3.9c1.4,1.3,5,4.9,7.8,7.8c3.2,3.2,5.6,5.8,5.7,8.5c.4,2.5,-1.2,3.8,-3.8,7.2Zm-.9,-22.5c-2.9,-3.5,-4.6,-6.3,-7,-8.9c-3.8,-4.3,-9.7,-8.4,-14.4,-8.1c-4.1,-.1,-6.1,1.7,-10.3,1.6c-2.3,0,-7.9,-1.5,-12.7,-1.3c-1.6,.1,-7.9,2.9,-13.1,8.4c-4.9,5.2,-11.4,18.4,-13,21.3c-1.1,2.6,.2,7.6,3.8,12.3c3.1,4,4.9,8,9.4,12.5c8.3,8.4,18.1,7.1,25.8,7.1c9.1,0,15.2,.2,22.2,-3.9c2.4,-1.4,5.4,-4.2,7.2,-6.9c3.4,-4.5,6.3,-10.2,7.9,-14.4c.9,-2.1,1.2,-3.9,1.2,-5.5c0,-2.8,-4,-10.6,-7,-14.2Z" class="gb_25"/>
</g>
<path d="M222.8,627.4H384v95.2H222.8V627.4Zm322.5,0H706.5v95.2H545.3V627.4Z" class="g5_25"/>
<path d="M384,627.4H545.3v95.2H384V627.4Zm322.5,0H867.8v95.2H706.5V627.4Z" class="g6_25"/>
<path d="M384,627.4H545.3m161.2,0H867.9m-.1,95.1v-95M384,722.6H545.3m161.2,0H867.9M222.6,627.4H384M222.8,722.5v-95m161.2,95v-95M222.6,722.6H384M545.3,627.4H706.5M545.3,722.5v-95m161.2,95v-95M545.3,722.6H706.5" class="g7_25"/>
<path d="M496.1,663.8c-4.3,-4.6,-7.9,-7.7,-11.7,-10.3c-4.7,-3.3,-8.1,-5.2,-13.6,-5.1c-3.3,0,-4.1,1.5,-8.3,1.5c-3.5,0,-4.4,-1.5,-9,-1.5c-4.7,0,-10.1,4,-14,7c-2.7,2,-7.5,7.8,-9.4,10.4c-1.3,1.9,-5.6,6,-5.6,7.9c0,0,1.6,4,2.5,5.5c1,1.7,3.8,7.8,5.9,10.4C441,699.7,449.5,702,461,702c7.6,0,12.4,.3,17.2,-1c5.1,-1.3,9,-3.5,12.7,-7c4.2,-3.9,7.5,-11.8,9.4,-15c1.5,-2.6,2.5,-4.9,2.5,-4.9c0,-2.3,-2.4,-5.8,-6.7,-10.3Z" class="ga_25"/>
<path d="M496.1,663.8c-4.3,-4.6,-7.9,-7.7,-11.7,-10.3c-4.7,-3.3,-8.1,-5.2,-13.6,-5.1c-3.3,0,-4.1,1.5,-8.3,1.5c-3.5,0,-4.4,-1.5,-9,-1.5c-4.7,0,-10.1,4,-14,7c-2.7,2,-7.5,7.8,-9.4,10.4c-1.3,1.9,-5.6,6,-5.6,7.9c0,0,1.6,4,2.5,5.5c1,1.7,3.8,7.8,5.9,10.4C441,699.7,449.5,702,461,702c7.6,0,12.4,.3,17.2,-1c5.1,-1.3,9,-3.5,12.7,-7c4.2,-3.9,7.5,-11.8,9.4,-15c1.5,-2.6,2.5,-4.9,2.5,-4.9c0,-2.3,-2.4,-5.8,-6.7,-10.3Z" class="gc_25"/>
<path d="M481.6,673.2c0,0,-1.7,.8,-3.3,1.7c-1.7,1,-3.9,1.6,-4.8,1.9c-2,.7,-5.6,1.5,-8.2,1.6c-5.2,.1,-8.2,-.9,-10.5,-1.5c-1,-.3,-2.5,-.8,-3.6,-1.5c-2.5,-1.9,-5.1,-2.9,-5.1,-2.9c2.3,-1.1,3.6,-1.8,5.7,-2.6c2.1,-.8,3.6,-1.7,4.9,-2.1c4,-1.1,4.1,-.1,7.3,-.1c3.6,0,5,-1.2,9,1.3l3.7,2c.2,.6,4.9,2.2,4.9,2.2Z" class="g8_25"/>
<path d="M426.3,673.5c3.3,.8,10.1,1.4,15.2,.4c3.9,-.7,13.9,-5.7,15.2,-6.1c3,-.8,3,-.1,7.3,-.1c3.6,0,5.5,-1.3,9.6,1.7c0,0,6.3,3.4,8.6,4.2c4.9,1.5,14.2,-.7,17,-.2c3.2,.6,2.2,.1,2.2,.3m-19.8,-.3c-2.5,.7,-6.9,3,-8.1,3.4c-2,.6,-4.9,1.5,-8.2,1.6c-5.1,.2,-7.2,-.7,-9.5,-1.2c-3.8,-.9,-8.3,-4.4,-9.5,-4.7" class="gd_25"/>
<path d="M455.6,682.5c-.9,.7,-.6,2.2,-1.4,6.2c-1.1,6.2,-.1,8.3,.4,9.8m16.1,-17.4c.9,.8,2.2,3.6,2.9,7.6c1.2,6.2,.2,8.3,-.3,9.8m9.3,-21c0,0,4.5,2,6.1,4.2c1.7,2.2,2.5,5,2.5,5m-30,-3.7c-.3,1.3,-1,8.7,-.8,12.5M447,676.5c-1.5,.5,-4,3.6,-5.9,5.2c-1.9,1.5,-3.3,5.5,-3.3,5.5M470,665.5c1,-.8,3.5,-3.6,5,-5.3c0,0,2.5,-3.2,3.1,-5.9M454.6,665c-1,-.7,-3.3,-2.5,-4.8,-4c-1.5,-1.5,-3.2,-3.9,-4.2,-6.3m34,14.2c2.7,.7,5,-1.4,7.5,-1.8c2.6,-.3,5.1,-1.9,5.9,-3.1m-52.2,-2.5c.2,.4,1.6,1.8,4.1,2.8c1.8,.7,4.5,2.8,6.1,2.9" class="ge_25"/>
<path d="M481.6,673.4c4.9,1.6,14.8,-.5,17.6,0c3.2,.6,2.2,.1,2.2,.3m-75.1,-.2c3.3,.8,12.8,1.9,19.9,-1" class="gf_25"/>
<g clip-path="url(#c4_25)">
<path d="M823.4,677.4c-1,-2.1,-2.3,-5.1,-2.4,-5.1c-1.6,-3.9,-2.2,-4.7,-5.4,-9.9c-2.8,-4.4,-7,-8.1,-10.2,-10.9c-4.1,-3.5,-6.1,-5.3,-10.8,-5.2c-2.9,0,-3.6,1.6,-7.2,1.6c-3,0,-3.8,-1.6,-7.7,-1.6c-4.1,0,-9.3,4.4,-12.7,7.5c-2.4,2.2,-8,8.3,-11.2,14.2c-3,5.4,-5,8.6,-5,10.1c0,1,4.9,6.2,5,6.5c.5,1.9,3.2,5.2,5.5,7.5c10.1,10,14.9,11.6,24.9,11.6c6.4,0,10.9,-.3,15,-1.8c3.3,-1.2,6.4,-2.7,10,-6c3.1,-2.8,5.9,-6.6,7.8,-10.6c.1,0,.1,-.1,.1,-.1c1.5,-3.4,5,-6.6,4.3,-7.8Z" class="ga_25"/>
<path d="M823.4,677.4c-1,-2.1,-2.3,-5.1,-2.4,-5.1c-1.6,-3.9,-2.2,-4.7,-5.4,-9.9c-2.8,-4.4,-7,-8.1,-10.2,-10.9c-4.1,-3.5,-6.1,-5.3,-10.8,-5.2c-2.9,0,-3.6,1.6,-7.2,1.6c-3,0,-3.8,-1.6,-7.7,-1.6c-4.1,0,-9.3,4.4,-12.7,7.5c-2.4,2.2,-8,8.3,-11.2,14.2c-3,5.4,-5,8.6,-5,10.1c0,1,4.9,6.2,5,6.5c.5,1.9,3.2,5.2,5.5,7.5c10.1,10,14.9,11.6,24.9,11.6c6.4,0,10.9,-.3,15,-1.8c3.3,-1.2,6.4,-2.7,10,-6c3.1,-2.8,5.9,-6.6,7.8,-10.6c.1,0,.1,-.1,.1,-.1c1.5,-3.4,5,-6.6,4.3,-7.8Z" class="gg_25"/>
</g>
<path d="M775.3,686.8c-3.5,5.5,-3.6,7.8,-3.8,9.5m30.9,-11.1c4,5.3,4.2,7.6,4.5,9.2m-3.6,-11.9c5.1,4.2,5.9,6.4,6.7,7.8m-26,-3.2c-.3,1.4,-.9,9,-.8,13M795,664.3c.9,-.9,2.2,-1.8,3.1,-2.5c.9,-.6,4.2,-4.3,4.9,-7m-3.3,14.5c2.5,.6,5,-1.1,7.3,-1.6c2.2,-.5,5.1,-2.2,5.7,-3.5m-46.1,-4.9c.1,.6,1.7,3.9,3.8,5.2c1.5,1,4.7,3.3,6.2,3.5m-15.1,-2.7c.4,1.1,4.6,3.7,5.9,4c1.4,.4,4.6,1.1,6.5,.9" class="ge_25"/>
<path d="M799.7,670.7c1.2,1.1,2.7,2.8,3.7,3.3c6,2.5,7.5,2.4,3.8,2.6c-2,.2,-3,.8,-4.8,1.5c-1.9,.7,-4,1.8,-4.9,2.1c-4.9,1.7,-8.2,2.2,-10.7,2.1c-5.1,-.3,-11.1,-3.4,-12.3,-3.8c-1.3,-.4,-3.2,-1.1,-4.6,-1.5c-2.2,-.6,-3.8,-.7,-3.8,-.7c3.3,-.8,5,-2.8,9.2,-6.3c5.2,-4.3,7.5,-3.7,11.8,-3.7c3.6,0,5.9,0,9.3,1.8c0,0,1.5,1,3.3,2.6Z" class="g8_25"/>
<path d="M752.2,677.6c2.5,-.3,8.4,-.4,13.1,-1.1c3.9,-.6,5.8,-3,10,-6.5c5.2,-4.3,7.5,-3.7,11.8,-3.7c3.6,0,5.9,0,9.3,1.8c0,0,1,.6,2.4,1.9c1.5,1.3,3.5,3.3,4.6,4c6.9,4.5,19.8,2.8,19.6,4.2m-12.5,-1.7c-3.1,-.2,-6,.4,-8.1,1.6c-1.8,1,-3.7,1.8,-4.6,2.2c-5.1,2,-8.4,1.7,-10.9,1.7c-5.6,-.2,-11.2,-3.1,-12.4,-3.5c-3.3,-1,-5.1,-2.9,-12,-1.5l-5.7,.2" class="gh_25"/>
<path d="M809.1,676.3c6.6,1.5,14.1,.8,13.9,1.9m-70.8,-.6c2.5,-.3,8.8,-.4,13.6,-1.1" class="gi_25"/>
<path d="M222.8,893.1H384v95.3H222.8V893.1Zm322.5,0H706.5v95.3H545.3V893.1Z" class="g5_25"/>
<path d="M384,893.1H545.3v95.3H384V893.1Zm322.5,0H867.8v95.3H706.5V893.1Z" class="g6_25"/>
<path d="M384,893.1H545.3m161.2,0H867.9m-.1,95.1V893.3M384,988.4H545.3m161.2,0H867.9M222.6,893.1H384M222.8,988.2V893.3M384,988.2V893.3M222.6,988.4H384M545.3,893.1H706.5M545.3,988.2V893.3m161.2,94.9V893.3M545.3,988.4H706.5" class="g7_25"/>
<path d="M496.3,927.1c-7.9,-1.7,-15.1,-4.5,-19.6,-4.3c-5.1,-.2,-6.9,2.1,-12.1,2c-2.9,0,-6.6,-2,-13.2,-2c-3.9,0,-10.2,1.3,-16.9,3.9c-7.6,2.9,-16.7,2.2,-18.9,3.8c.1,.8,.4,2.7,6,7.2c2.4,1.9,3.8,2.1,11.8,9.7c9.8,9.3,21.7,10.3,31.3,10.3c11.3,0,22,-.5,29.9,-7.5c5,-4.3,8,-6.8,15.5,-13.5c2.8,-2.5,2.9,-4.2,3.1,-5.7c.4,-2,-9,-2.3,-16.9,-3.9Z" class="g8_25"/>
<path d="M423.5,936.9c.1,-.8,.8,-1.5,1.5,-1.6c2.5,-.8,3.2,-.2,3.6,.4c.4,.6,.4,.8,.9,1.4c.5,.6,.6,1,-1.5,4.5c-.6,.9,-4.5,-1.4,-5.2,-2.6c-.4,-.7,.3,.4,.7,-2.1Z" class="g6_25"/>
<path d="M423.5,936.9c.1,-.8,.8,-1.5,1.5,-1.6c2.5,-.8,3.2,-.2,3.6,.4c.4,.6,.4,.8,.9,1.4c.5,.6,.6,1,-1.5,4.5c-.6,.9,-4.5,-1.4,-5.2,-2.6c-.4,-.7,.3,.4,.7,-2.1Z" class="gj_25"/>
<path d="M432.6,937.1c-.4,-1.4,-3.3,-.7,-4,-.5c-.7,.1,-1.9,2.5,-1.5,4.4c.4,2.2,3.4,3.2,4.7,3.9c1.3,.8,1.6,-4,1.7,-5.2c.1,-1.2,.4,-1.9,-.9,-2.6Z" class="g6_25"/>
<path d="M432.6,937.1c-.4,-1.4,-3.3,-.7,-4,-.5c-.7,.1,-1.9,2.5,-1.5,4.4c.4,2.2,3.4,3.2,4.7,3.9c1.3,.8,1.6,-4,1.7,-5.2c.1,-1.2,.4,-1.9,-.9,-2.6Z" class="gj_25"/>
<path d="M507.1,936.4c-.1,-.9,-.7,-1.5,-1.5,-1.7c-2.4,-.8,-3.2,-.1,-3.6,.5c-.4,.6,-.4,.7,-.8,1.3c-.5,.6,1.7,11.1,2.3,7c.2,-1.4,4,-4.6,3.6,-7.1Z" class="g6_25"/>
<path d="M507.1,936.4c-.1,-.9,-.7,-1.5,-1.5,-1.7c-2.4,-.8,-3.2,-.1,-3.6,.5c-.4,.6,-.4,.7,-.8,1.3c-.5,.6,1.7,11.1,2.3,7c.2,-1.4,4,-4.6,3.6,-7.1Z" class="gj_25"/>
<path d="M502.6,937.9c-.2,-.9,-1,-2.4,-1.8,-2.6c-2.4,-.8,-2.9,.7,-3.3,1.3c-.4,.6,-.9,1.1,-1.4,1.8c-.5,.6,.2,3.7,2.4,7.3c.5,.9,3.8,-2.2,4.4,-3.4c.4,-.6,0,-2,-.3,-4.4Z" class="g6_25"/>
<path d="M502.6,937.9c-.2,-.9,-1,-2.4,-1.8,-2.6c-2.4,-.8,-2.9,.7,-3.3,1.3c-.4,.6,-.9,1.1,-1.4,1.8c-.5,.6,.2,3.7,2.4,7.3c.5,.9,3.8,-2.2,4.4,-3.4c.4,-.6,0,-2,-.3,-4.4Z" class="gj_25"/>
<path d="M440.3,941c-.5,-1.4,-.3,-2.2,-1.6,-3.1c-1.1,-.7,-4.4,.5,-5.1,.7c-.7,.1,-1.4,3.5,-1.8,5.6c-.5,2.1,5.4,5.7,6.7,6.4c1.3,.8,1.6,-4,1.8,-5.2c.1,-1.2,1.3,-3.6,0,-4.4Z" class="g6_25"/>
<path d="M440.3,941c-.5,-1.4,-.3,-2.2,-1.6,-3.1c-1.1,-.7,-4.4,.5,-5.1,.7c-.7,.1,-1.4,3.5,-1.8,5.6c-.5,2.1,5.4,5.7,6.7,6.4c1.3,.8,1.6,-4,1.8,-5.2c.1,-1.2,1.3,-3.6,0,-4.4Z" class="gj_25"/>
<path d="M447,946.7c-.4,-2,.9,-3.9,.4,-5c-.5,-.9,-5.2,-2.8,-7.3,-1.5c-.8,.5,-1.9,4.3,-1.5,6.5c.3,1.8,.7,.6,2,1.4c2.5,1.5,6.3,1.4,6.4,-1.4Z" class="g6_25"/>
<path d="M447,946.7c-.4,-2,.9,-3.9,.4,-5c-.5,-.9,-5.2,-2.8,-7.3,-1.5c-.8,.5,-1.9,4.3,-1.5,6.5c.3,1.8,.7,.6,2,1.4c2.5,1.5,6.3,1.4,6.4,-1.4Z" class="gj_25"/>
<path d="M496.5,940.1c-.2,-.9,-1,-2.4,-1.8,-2.5c-2.4,-.8,-2.9,.7,-3.3,1.3c-.4,.6,-.9,1.1,-1.4,1.7c-.5,.6,.2,3.8,2.4,7.3c.5,.9,4.6,-1,5.2,-2.2c.4,-.7,0,-3.2,-1.1,-5.6Z" class="g6_25"/>
<path d="M496.5,940.1c-.2,-.9,-1,-2.4,-1.8,-2.5c-2.4,-.8,-2.9,.7,-3.3,1.3c-.4,.6,-.9,1.1,-1.4,1.7c-.5,.6,.2,3.8,2.4,7.3c.5,.9,4.6,-1,5.2,-2.2c.4,-.7,0,-3.2,-1.1,-5.6Z" class="gj_25"/>
<path d="M489,939.7c-2.5,-.8,-2.9,.1,-3.3,.7c-.4,.6,-1.1,1.7,-1.6,2.3c-.5,.6,-.7,3.3,1.4,6.9c.6,.9,5.7,-1.4,6.3,-2.6c.7,-1.2,-.9,-6.9,-2.8,-7.3Z" class="g6_25"/>
<path d="M489,939.7c-2.5,-.8,-2.9,.1,-3.3,.7c-.4,.6,-1.1,1.7,-1.6,2.3c-.5,.6,-.7,3.3,1.4,6.9c.6,.9,5.7,-1.4,6.3,-2.6c.7,-1.2,-.9,-6.9,-2.8,-7.3Z" class="gj_25"/>
<path d="M475.2,947.3c1.9,0,9.9,1.9,10,0c.1,-2.2,-.6,-5.8,-2,-6.1c-1.5,-.3,-5.2,.8,-6.8,1.1c-1.6,.3,-1.4,1.2,-1.5,2.5c-.1,1.2,.3,2.5,.3,2.5Z" class="g6_25"/>
<path d="M475.2,947.3c1.9,0,9.9,1.9,10,0c.1,-2.2,-.6,-5.8,-2,-6.1c-1.5,-.3,-5.2,.8,-6.8,1.1c-1.6,.3,-1.4,1.2,-1.5,2.5c-.1,1.2,.3,2.5,.3,2.5Z" class="gj_25"/>
<path d="M446.2,947.2c.3,-2.3,.4,-6.1,2.3,-6.1c1.9,0,2.2,.4,3.4,.5c1.1,.2,3.9,.5,3.6,2.3c-.3,1.8,-.5,4,-.5,4c0,0,-9.3,3.4,-8.8,-.7Z" class="g6_25"/>
<path d="M446.2,947.2c.3,-2.3,.4,-6.1,2.3,-6.1c1.9,0,2.2,.4,3.4,.5c1.1,.2,3.9,.5,3.6,2.3c-.3,1.8,-.5,4,-.5,4c0,0,-9.3,3.4,-8.8,-.7Z" class="gj_25"/>
<path d="M455.1,947.4c-.2,-.4,-.2,-3.6,.5,-4.7c.2,-.4,1.2,-.8,2.5,-.6c2.9,.6,5.4,-.1,6.4,.8c.4,.3,.6,4.3,.2,5.4c-.2,.8,-9.6,-.9,-9.6,-.9Z" class="g6_25"/>
<path d="M455.1,947.4c-.2,-.4,-.2,-3.6,.5,-4.7c.2,-.4,1.2,-.8,2.5,-.6c2.9,.6,5.4,-.1,6.4,.8c.4,.3,.6,4.3,.2,5.4c-.2,.8,-9.6,-.9,-9.6,-.9Z" class="gj_25"/>
<path d="M464.9,943.6c0,-.6,.2,-.9,1.1,-1.2c.8,-.3,2.2,0,3.9,-.2c1.8,-.2,3.1,-.1,3.9,.1c1.2,.3,1.6,1.4,1.6,1.4c0,.7,.3,4.5,.3,4.5c0,0,-10.2,.4,-10.6,.3c-.4,-.1,-.3,-3.8,-.2,-4.9Z" class="g6_25"/>
<path d="M464.9,943.6c0,-.6,.2,-.9,1.1,-1.2c.8,-.3,2.2,0,3.9,-.2c1.8,-.2,3.1,-.1,3.9,.1c1.2,.3,1.6,1.4,1.6,1.4c0,.7,.3,4.5,.3,4.5c0,0,-10.2,.4,-10.6,.3c-.4,-.1,-.3,-3.8,-.2,-4.9Z" class="gj_25"/>
<path d="M498.2,932.4c.6,1.4,.8,1.2,2.6,1.5c1.7,.3,3,-.9,3.3,-2.1c.2,-.6,-4,-3.6,-6.1,-2.7c-2.2,.9,.2,3.3,.2,3.3Z" class="g6_25"/>
<path d="M498.2,932.4c.6,1.4,.8,1.2,2.6,1.5c1.7,.3,3,-.9,3.3,-2.1c.2,-.6,-4,-3.6,-6.1,-2.7c-2.2,.9,.2,3.3,.2,3.3Z" class="gj_25"/>
<path d="M425.5,933.2c.6,.4,1.8,1.7,3.6,2c1.7,.3,2,-.6,2.4,-1.1c.4,-.5,1.7,-2.8,1.7,-2.8c0,0,-4.3,-1.2,-6.5,-.3c-2.1,.9,-1.2,2.2,-1.2,2.2Z" class="g6_25"/>
<path d="M425.5,933.2c.6,.4,1.8,1.7,3.6,2c1.7,.3,2,-.6,2.4,-1.1c.4,-.5,1.7,-2.8,1.7,-2.8c0,0,-4.3,-1.2,-6.5,-.3c-2.1,.9,-1.2,2.2,-1.2,2.2Z" class="gj_25"/>
<path d="M429.1,929.8c.5,4.1,2.7,5.1,3.3,5.8c.6,.7,2.3,.9,5.1,-.9c2.8,-1.8,.7,-7.7,.7,-7.7Z" class="g6_25"/>
<path d="M429.1,929.8c.5,4.1,2.7,5.1,3.3,5.8c.6,.7,2.3,.9,5.1,-.9c2.8,-1.8,.7,-7.7,.7,-7.7l-9.1,2.8Z" class="gj_25"/>
<path d="M498.5,930.3c-.5,1,.9,1.2,-.1,3.4c-.8,1.7,-1.6,2.2,-2.6,2.3c-1.7,.2,-3.9,-.1,-4.9,-2.1c-1,-2,.8,-5.9,.8,-5.9c0,0,6.7,.4,6.8,2.3Z" class="g6_25"/>
<path d="M498.5,930.3c-.5,1,.9,1.2,-.1,3.4c-.8,1.7,-1.6,2.2,-2.6,2.3c-1.7,.2,-3.9,-.1,-4.9,-2.1c-1,-2,.8,-5.9,.8,-5.9c0,0,6.7,.4,6.8,2.3Z" class="gj_25"/>
<path d="M479.9,937.6c.3,.8,.8,1.4,1.2,1.7c.2,.2,2.1,.3,4.7,-.3c1.8,-.4,3.6,-1.2,4.7,-2c.7,-.5,.8,-1.2,.9,-2c.1,-.8,.6,-5,-.4,-7.7c-1,-2.7,-11.7,-.9,-12.1,.7c-.4,1.6,1,9.6,1,9.6Z" class="g6_25"/>
<path d="M479.9,937.6c.3,.8,.8,1.4,1.2,1.7c.2,.2,2.1,.3,4.7,-.3c1.8,-.4,3.6,-1.2,4.7,-2c.7,-.5,.8,-1.2,.9,-2c.1,-.8,.6,-5,-.4,-7.7c-1,-2.7,-11.7,-.9,-12.1,.7c-.4,1.6,1,9.6,1,9.6Z" class="gj_25"/>
<path d="M448.4,937.5c-.2,.8,-.6,1.2,-.9,1.5c-.2,.2,-2.7,1.1,-5.1,.5c-1.6,-.3,-3.7,-.6,-4.7,-1.4c-.6,-.5,-.7,-1.2,-.8,-2c-.1,-.8,-.7,-6,.2,-8.7c.9,-2.7,11.8,-.9,12.2,.7c.4,1.6,-.9,9.4,-.9,9.4Z" class="g6_25"/>
<path d="M448.4,937.5c-.2,.8,-.6,1.2,-.9,1.5c-.2,.2,-2.7,1.1,-5.1,.5c-1.6,-.3,-3.7,-.6,-4.7,-1.4c-.6,-.5,-.7,-1.2,-.8,-2c-.1,-.8,-.7,-6,.2,-8.7c.9,-2.7,11.8,-.9,12.2,.7c.4,1.6,-.9,9.4,-.9,9.4Z" class="gj_25"/>
<path d="M464.1,930.8c.2,.5,.3,1.4,.4,2.2c.2,2.3,.1,7.1,.1,7.1c0,0,-.3,.8,-.7,1.1c-3.2,1.3,-13,1.3,-14.5,-1c-1.5,-2.4,-1,-8.1,-.6,-9.8l.4,-3.3c.7,-.9,14,1.4,14.9,3.7Z" class="g6_25"/>
<path d="M464.1,930.8c.2,.5,.3,1.4,.4,2.2c.2,2.3,.1,7.1,.1,7.1c0,0,-.3,.8,-.7,1.1c-3.2,1.3,-13,1.3,-14.5,-1c-1.5,-2.4,-1,-8.1,-.6,-9.8l.4,-3.3c.7,-.9,14,1.4,14.9,3.7Z" class="gj_25"/>
<path d="M479,928.2c.6,1,1,5.6,1,6.9c0,1.4,-.1,3.5,-.9,4.9c-1.8,.9,-5,1.4,-7.3,1.7c-3,.4,-5.3,-.3,-5.8,-.4c-.7,-.3,-1.4,-.7,-1.4,-1.8c0,-1.5,-.1,-4.7,0,-6.7c0,-1.2,.2,-2.3,.3,-2.6c.4,-1.2,12.8,-4.1,14.1,-2Z" class="g6_25"/>
<path d="M479,928.2c.6,1,1,5.6,1,6.9c0,1.4,-.1,3.5,-.9,4.9c-1.8,.9,-5,1.4,-7.3,1.7c-3,.4,-5.3,-.3,-5.8,-.4c-.7,-.3,-1.4,-.7,-1.4,-1.8c0,-1.5,-.1,-4.7,0,-6.7c0,-1.2,.2,-2.3,.3,-2.6c.4,-1.2,12.8,-4.1,14.1,-2Z" class="gj_25"/>
<g clip-path="url(#c5_25)">
<path d="M504.3,937c-2,1.3,-6.1,4.4,-13.4,5.8c-8.4,1.7,-15.7,1.5,-25,1.5c-11.5,0,-22.4,.6,-31.5,-2.8c-6.6,-2.4,-8.6,-4.5,-13.6,-6.8c-2.8,-1.3,-4,-2.4,-3.2,-3.5c.7,-1.2,10.7,1.2,15.7,.9c4.9,-.3,8,-.6,11.4,-.6c7,.1,13.3,1.9,19.8,1.9c6.9,.1,12,-1.7,18.8,-1.9c3.7,-.2,6.3,-.2,11.9,.1c4.8,.3,9.3,-.8,12.2,-.7c2.5,.2,4,-.1,4.9,1.1c0,2.2,-3.3,1.8,-8,5m-7.4,-10.5c-7,-1.9,-13.9,-4.8,-20.2,-4.5c-5.1,-.2,-5.7,1.8,-11.9,1.8c-4.4,0,-5.4,-1.8,-11.9,-1.8c-3.9,0,-10.1,.5,-18.5,3.2c-7.9,2.6,-18.4,3.3,-18.8,5.9c-.4,2,.4,3.2,6,8.2c2.3,2.1,6.1,5,11.9,10.4c10.3,9.6,21.6,9.8,31.2,9.8c11.3,0,23.1,0,31,-7.7c8,-7.6,9.6,-9.7,14.1,-14c2.8,-2.8,4.2,-4.2,4,-5.9c-.5,-3.6,-9.1,-3.2,-16.9,-5.4Z" class="ga_25"/>
<path d="M504.3,937c-2,1.3,-6.1,4.4,-13.4,5.8c-8.4,1.7,-15.7,1.5,-25,1.5c-11.5,0,-22.4,.6,-31.5,-2.8c-6.6,-2.4,-8.6,-4.5,-13.6,-6.8c-2.8,-1.3,-4,-2.4,-3.2,-3.5c.7,-1.2,10.7,1.2,15.7,.9c4.9,-.3,8,-.6,11.4,-.6c7,.1,13.3,1.9,19.8,1.9c6.9,.1,12,-1.7,18.8,-1.9c3.7,-.2,6.3,-.2,11.9,.1c4.8,.3,9.3,-.8,12.2,-.7c2.5,.2,4,-.1,4.9,1.1c0,2.2,-3.3,1.8,-8,5Zm-7.4,-10.5c-7,-1.9,-13.9,-4.8,-20.2,-4.5c-5.1,-.2,-5.7,1.8,-11.9,1.8c-4.4,0,-5.4,-1.8,-11.9,-1.8c-3.9,0,-10.1,.5,-18.5,3.2c-7.9,2.6,-18.4,3.3,-18.8,5.9c-.4,2,.4,3.2,6,8.2c2.3,2.1,6.1,5,11.9,10.4c10.3,9.6,21.6,9.8,31.2,9.8c11.3,0,23.1,0,31,-7.7c8,-7.6,9.6,-9.7,14.1,-14c2.8,-2.8,4.2,-4.2,4,-5.9c-.5,-3.6,-9.1,-3.2,-16.9,-5.4Z" class="gj_25"/>
</g>
<path clip-path="url(#c6_25)" d="M819.7,928c-7.1,-1.6,-14.1,-4.1,-20.6,-3.9c-5.2,-.1,-5.8,1.6,-12.1,1.6c-4.5,0,-5.5,-1.6,-12.2,-1.6c-4,0,-10.3,.4,-18.9,2.8c-8,2.2,-18.3,5.1,-18.7,7.4c-.4,1.7,.6,1.9,6.3,6.2c2.5,1.8,3.3,2,11.5,9.2c10,8.8,22.1,7.5,31.9,7.5c11.5,0,23.5,-.5,31.6,-7.1c8.2,-6.6,9.9,-6.6,14.4,-10.4c2.9,-2.4,4.3,-3.1,4.1,-4.6c-.5,-3.1,-9.3,-5.2,-17.3,-7.1Z" class="g8_25"/>
<path d="M747.9,940.8c.1,-.8,.7,-1.4,1.4,-1.6c2.3,-.7,3.1,-.1,3.4,.4c.4,.6,.4,.7,.8,1.3c.5,.6,-.2,3.2,-2.2,6.6c-.5,.8,-3.1,-1.3,-3.8,-2.5c-.3,-.6,0,-1.8,.4,-4.2Z" class="g6_25"/>
<path d="M747.9,940.8c.1,-.8,.7,-1.4,1.4,-1.6c2.3,-.7,3.1,-.1,3.4,.4c.4,.6,.4,.7,.8,1.3c.5,.6,-.2,3.2,-2.2,6.6c-.5,.8,-3.1,-1.3,-3.8,-2.5c-.3,-.6,0,-1.8,.4,-4.2Z" class="gk_25"/>
<path d="M756.5,940.5c-.4,-1.3,-3.1,-.7,-3.8,-.5c-.7,.1,-1.7,2.3,-1.4,4.2c.4,2,3.2,3,4.4,3.7c1.2,.7,1.5,-3.8,1.6,-5c.2,-1.1,.4,-1.7,-.8,-2.4Z" class="g6_25"/>
<path d="M756.5,940.5c-.4,-1.3,-3.1,-.7,-3.8,-.5c-.7,.1,-1.7,2.3,-1.4,4.2c.4,2,3.2,3,4.4,3.7c1.2,.7,1.5,-3.8,1.6,-5c.2,-1.1,.4,-1.7,-.8,-2.4Z" class="gk_25"/>
<path d="M827.1,940.3c-.2,-.8,-.7,-1.4,-1.5,-1.6c-2.3,-.7,-3,-.1,-3.4,.4c-.3,.6,-.3,.7,-.8,1.3c-.4,.6,.2,3.2,2.2,6.6c.6,.8,3.2,-1.3,3.8,-2.5c.4,-.6,0,-1.9,-.3,-4.2Z" class="g6_25"/>
<path d="M827.1,940.3c-.2,-.8,-.7,-1.4,-1.5,-1.6c-2.3,-.7,-3,-.1,-3.4,.4c-.3,.6,-.3,.7,-.8,1.3c-.4,.6,.2,3.2,2.2,6.6c.6,.8,3.2,-1.3,3.8,-2.5c.4,-.6,0,-1.9,-.3,-4.2Z" class="gk_25"/>
<path d="M822.7,941.2c-.1,-.8,-.9,-2.2,-1.6,-2.4c-2.3,-.8,-2.8,.7,-3.2,1.3c-.3,.5,-.8,1,-1.3,1.6c-.4,.5,.2,3.6,2.3,6.9c.5,.8,3.6,-2,4.2,-3.2c.4,-.6,0,-1.8,-.4,-4.2Z" class="g6_25"/>
<path d="M822.7,941.2c-.1,-.8,-.9,-2.2,-1.6,-2.4c-2.3,-.8,-2.8,.7,-3.2,1.3c-.3,.5,-.8,1,-1.3,1.6c-.4,.5,.2,3.6,2.3,6.9c.5,.8,3.6,-2,4.2,-3.2c.4,-.6,0,-1.8,-.4,-4.2Z" class="gk_25"/>
<path d="M763.7,943.7c-.4,-1.3,-.2,-2,-1.5,-2.9c-1,-.7,-4.1,.5,-4.8,.6c-.7,.2,-1.3,3.4,-1.7,5.4c-.4,1.9,5.2,5.3,6.4,6.1c1.2,.7,1.5,-3.9,1.6,-5c.2,-1.2,1.3,-3.5,0,-4.2Z" class="g6_25"/>
<path d="M763.7,943.7c-.4,-1.3,-.2,-2,-1.5,-2.9c-1,-.7,-4.1,.5,-4.8,.6c-.7,.2,-1.3,3.4,-1.7,5.4c-.4,1.9,5.2,5.3,6.4,6.1c1.2,.7,1.5,-3.9,1.6,-5c.2,-1.2,1.3,-3.5,0,-4.2Z" class="gk_25"/>
<path d="M770.2,947.7c-.5,-1.8,.8,-3.7,.3,-4.7c-.5,-.9,-4.9,-2.7,-6.9,-1.4c-.7,.4,-1.8,4.1,-1.5,6.1c.3,1.8,.7,.6,2,1.3c2.3,1.5,5.9,1.4,6.1,-1.3Z" class="g6_25"/>
<path d="M770.2,947.7c-.5,-1.8,.8,-3.7,.3,-4.7c-.5,-.9,-4.9,-2.7,-6.9,-1.4c-.7,.4,-1.8,4.1,-1.5,6.1c.3,1.8,.7,.6,2,1.3c2.3,1.5,5.9,1.4,6.1,-1.3Z" class="gk_25"/>
<path d="M817,942.4c-.1,-.8,-.9,-2.2,-1.7,-2.4c-2.3,-.7,-2.8,.7,-3.2,1.3c-.3,.5,-.8,1,-1.3,1.6c-.4,.6,.2,3.6,2.3,6.9c.5,.8,4.3,-.9,5,-2.1c.3,-.6,0,-3,-1.1,-5.3Z" class="g6_25"/>
<path d="M817,942.4c-.1,-.8,-.9,-2.2,-1.7,-2.4c-2.3,-.7,-2.8,.7,-3.2,1.3c-.3,.5,-.8,1,-1.3,1.6c-.4,.6,.2,3.6,2.3,6.9c.5,.8,4.3,-.9,5,-2.1c.3,-.6,0,-3,-1.1,-5.3Z" class="gk_25"/>
<path d="M809.9,941.1c-2.3,-.8,-2.7,.1,-3.1,.7c-.4,.6,-1.1,1.6,-1.5,2.1c-.5,.6,-.7,3.2,1.3,6.6c.5,.8,5.3,-1.3,6,-2.5c.6,-1.1,-.9,-6.5,-2.7,-6.9Z" class="g6_25"/>
<path d="M809.9,941.1c-2.3,-.8,-2.7,.1,-3.1,.7c-.4,.6,-1.1,1.6,-1.5,2.1c-.5,.6,-.7,3.2,1.3,6.6c.5,.8,5.3,-1.3,6,-2.5c.6,-1.1,-.9,-6.5,-2.7,-6.9Z" class="gk_25"/>
<path d="M796.8,947.4c1.9,0,9.4,1.8,9.5,0c.1,-2.1,-.6,-5.5,-1.9,-5.8c-1.4,-.2,-4.9,.7,-6.4,1c-1.5,.3,-1.4,1.2,-1.5,2.4c0,1.1,.3,2.4,.3,2.4Z" class="g6_25"/>
<path d="M796.8,947.4c1.9,0,9.4,1.8,9.5,0c.1,-2.1,-.6,-5.5,-1.9,-5.8c-1.4,-.2,-4.9,.7,-6.4,1c-1.5,.3,-1.4,1.2,-1.5,2.4c0,1.1,.3,2.4,.3,2.4Z" class="gk_25"/>
<path d="M769.4,947.3c.3,-2.1,.4,-5.7,2.2,-5.7c1.7,0,2,.3,3.1,.4c1.1,.2,3.7,.4,3.4,2.1c-.2,1.8,-.4,3.9,-.4,3.9c0,0,-8.8,3.1,-8.3,-.7Z" class="g6_25"/>
<path d="M769.4,947.3c.3,-2.1,.4,-5.7,2.2,-5.7c1.7,0,2,.3,3.1,.4c1.1,.2,3.7,.4,3.4,2.1c-.2,1.8,-.4,3.9,-.4,3.9c0,0,-8.8,3.1,-8.3,-.7Z" class="gk_25"/>
<path d="M777.8,947.5c-.2,-.4,-.2,-3.4,.4,-4.4c.3,-.5,1.2,-.8,2.4,-.6c2.8,.5,5.2,-.1,6.1,.7c.4,.3,.6,4.1,.2,5.1c-.2,.8,-9.1,-.8,-9.1,-.8Z" class="g6_25"/>
<path d="M777.8,947.5c-.2,-.4,-.2,-3.4,.4,-4.4c.3,-.5,1.2,-.8,2.4,-.6c2.8,.5,5.2,-.1,6.1,.7c.4,.3,.6,4.1,.2,5.1c-.2,.8,-9.1,-.8,-9.1,-.8Z" class="gk_25"/>
<path d="M787.1,943.9c0,-.6,.2,-.9,1,-1.2c.8,-.2,2.1,0,3.7,-.1c1.7,-.2,3,-.1,3.7,.1c1.1,.2,1.5,1.3,1.5,1.3c0,.7,.3,4.2,.3,4.2c0,0,-9.7,.4,-10.1,.3c-.3,-.1,-.2,-3.5,-.1,-4.6Z" class="g6_25"/>
<path d="M787.1,943.9c0,-.6,.2,-.9,1,-1.2c.8,-.2,2.1,0,3.7,-.1c1.7,-.2,3,-.1,3.7,.1c1.1,.2,1.5,1.3,1.5,1.3c0,.7,.3,4.2,.3,4.2c0,0,-9.7,.4,-10.1,.3c-.3,-.1,-.2,-3.5,-.1,-4.6Z" class="gk_25"/>
<path d="M751.6,931.3c-.6,.4,-1.5,1.3,-3.1,1.7c-1.6,.4,-2.6,-2.9,-2.9,-3.4c-.2,-.1,1.1,-1,3.2,-1.2c2.5,-.2,1.6,-1.3,2.9,-.9c2,.8,-.1,3.8,-.1,3.8Z" class="g6_25"/>
<path d="M751.6,931.3c-.6,.4,-1.5,1.3,-3.1,1.7c-1.6,.4,-2.6,-2.9,-2.9,-3.4c-.2,-.1,1.1,-1,3.2,-1.2c2.5,-.2,1.6,-1.3,2.9,-.9c2,.8,-.1,3.8,-.1,3.8Z" class="gk_25"/>
<path d="M818.9,932.8c.6,.5,.7,1,2.3,1.4c1.6,.4,2.8,-.4,3.2,-.8c.1,-.2,1.4,-3.1,.8,-3.9c-1.4,-1.7,-5.6,-2.6,-6.9,-2.1c-2,.7,.6,5.4,.6,5.4Z" class="g6_25"/>
<path d="M818.9,932.8c.6,.5,.7,1,2.3,1.4c1.6,.4,2.8,-.4,3.2,-.8c.1,-.2,1.4,-3.1,.8,-3.9c-1.4,-1.7,-5.6,-2.6,-6.9,-2.1c-2,.7,.6,5.4,.6,5.4Z" class="gk_25"/>
<path d="M750.9,932.5c.6,.4,1.7,1.6,3.3,1.9c1.6,.3,1.9,-.6,2.3,-1c.3,-.5,1.5,-2.6,1.5,-2.6c0,0,-.2,-2,-.7,-2.2c-1.4,-.6,-4.7,0,-6.1,.6c-2,.9,-.3,3.3,-.3,3.3Z" class="g6_25"/>
<path d="M750.9,932.5c.6,.4,1.7,1.6,3.3,1.9c1.6,.3,1.9,-.6,2.3,-1c.3,-.5,1.5,-2.6,1.5,-2.6c0,0,-.2,-2,-.7,-2.2c-1.4,-.6,-4.7,0,-6.1,.6c-2,.9,-.3,3.3,-.3,3.3Z" class="gk_25"/>
<path d="M754.2,928c.6,4.9,2.6,6.5,3.1,7.1c.5,.7,2.2,.9,4.8,-.8c2.6,-1.7,.6,-8.9,.6,-8.9Z" class="g6_25"/>
<path d="M754.2,928c.6,4.9,2.6,6.5,3.1,7.1c.5,.7,2.2,.9,4.8,-.8c2.6,-1.7,.6,-8.9,.6,-8.9l-8.5,2.6Z" class="gk_25"/>
<path d="M819.5,928.8c-.4,.9,-.4,3.8,-1.3,5.8c-.7,1.6,-1.4,2,-2.3,2c-1.6,.1,-3.6,-.3,-4.5,-2.3c-.9,-1.9,.5,-9,.5,-9c0,0,7.5,1.7,7.6,3.5Z" class="g6_25"/>
<path d="M819.5,928.8c-.4,.9,-.4,3.8,-1.3,5.8c-.7,1.6,-1.4,2,-2.3,2c-1.6,.1,-3.6,-.3,-4.5,-2.3c-.9,-1.9,.5,-9,.5,-9c0,0,7.5,1.7,7.6,3.5Z" class="gk_25"/>
<path d="M801.3,935.9c.2,.8,.7,1.4,1,1.7c.2,.2,2,.4,4.4,0c1.6,-.2,3.3,-.9,4.3,-1.6c.6,-.4,.7,-1.1,.8,-1.8c.1,-.8,.6,-4.7,-.3,-7.3c-.9,-2.7,-10.7,-1.6,-11.1,-.1c-.3,1.5,.9,9.1,.9,9.1Z" class="g6_25"/>
<path d="M801.3,935.9c.2,.8,.7,1.4,1,1.7c.2,.2,2,.4,4.4,0c1.6,-.2,3.3,-.9,4.3,-1.6c.6,-.4,.7,-1.1,.8,-1.8c.1,-.8,.6,-4.7,-.3,-7.3c-.9,-2.7,-10.7,-1.6,-11.1,-.1c-.3,1.5,.9,9.1,.9,9.1Z" class="gk_25"/>
<path d="M772.2,935.7c-.2,.7,-.6,1.1,-.9,1.4c-.2,.1,-2.4,.9,-4.7,.4c-1.5,-.3,-3.4,-.5,-4.4,-1.3c-.5,-.4,-.6,-1.1,-.7,-1.8c-.1,-.8,-.7,-5.6,.2,-8.2c.8,-2.5,11,-.8,11.3,.7c.4,1.5,-.8,8.8,-.8,8.8Z" class="g6_25"/>
<path d="M772.2,935.7c-.2,.7,-.6,1.1,-.9,1.4c-.2,.1,-2.4,.9,-4.7,.4c-1.5,-.3,-3.4,-.5,-4.4,-1.3c-.5,-.4,-.6,-1.1,-.7,-1.8c-.1,-.8,-.7,-5.6,.2,-8.2c.8,-2.5,11,-.8,11.3,.7c.4,1.5,-.8,8.8,-.8,8.8Z" class="gk_25"/>
<path d="M786.8,928.7c.1,.4,.3,1.3,.3,2c.2,2.1,.2,6.6,.2,6.6c0,0,-.3,.7,-.7,1c-3,1.2,-12.1,1.2,-13.5,-.9c-1.3,-2.3,-.9,-7.6,-.5,-9.2l.3,-3c.6,-.8,13.1,1.3,13.9,3.5Z" class="g6_25"/>
<path d="M786.8,928.7c.1,.4,.3,1.3,.3,2c.2,2.1,.2,6.6,.2,6.6c0,0,-.3,.7,-.7,1c-3,1.2,-12.1,1.2,-13.5,-.9c-1.3,-2.3,-.9,-7.6,-.5,-9.2l.3,-3c.6,-.8,13.1,1.3,13.9,3.5Z" class="gk_25"/>
<path d="M800.5,927c.5,1,.9,5.3,.9,6.6c0,1.3,-.2,3,-1,4.2c-1.6,.8,-3.9,.9,-6,1.1c-2.8,.2,-5.5,-.2,-5.9,-.4c-.6,-.3,-1.2,-.8,-1.2,-1.8c0,-1.4,-.1,-4.4,-.1,-6.3c.1,-1.1,.2,-2.1,.3,-2.4c.4,-1.1,11.8,-3.1,13,-1Z" class="g6_25"/>
<path d="M800.5,927c.5,1,.9,5.3,.9,6.6c0,1.3,-.2,3,-1,4.2c-1.6,.8,-3.9,.9,-6,1.1c-2.8,.2,-5.5,-.2,-5.9,-.4c-.6,-.3,-1.2,-.8,-1.2,-1.8c0,-1.4,-.1,-4.4,-.1,-6.3c.1,-1.1,.2,-2.1,.3,-2.4c.4,-1.1,11.8,-3.1,13,-1Z" class="gk_25"/>
<g clip-path="url(#c6_25)">
<path d="M826.7,938.3c-2.3,1,-5,3.3,-13.3,4.3c-8.8,.9,-16.8,2,-26.4,2c-11.9,0,-22.4,-.4,-30,-2.7c-6.9,-2.2,-7.9,-4,-14.2,-5.7c-3.1,-.8,-4,-.8,-4.1,-2.1c-.2,-2.3,8.6,-1.6,15.7,-2.5c5,-.6,8.2,-.6,11.8,-.6c7.2,.1,13.8,1.9,20.5,1.9c7.1,.1,12.3,-1.7,19.4,-1.9c3.9,-.2,3.2,-.5,9,.1c6.3,.7,12.9,1.8,16,2c2.6,.2,3.9,.2,4.7,1.4c.1,2.3,-3.5,1.3,-9.1,3.8m-4.6,-10.6c-7.3,-1.9,-16.3,-5,-22.8,-4.7c-5.3,-.1,-6.1,1.9,-12.3,1.8c-4.8,-.1,-5.6,-1.8,-12.3,-1.8c-4.1,0,-5.8,-1.1,-18.4,2.6c-9.4,2.7,-19,5.1,-19.2,8c-.3,2.6,-.1,3.2,6,8.4c4.6,3.9,6.1,6,11.8,9.9c10.8,7.5,22.1,6.7,32,6.7c11.7,0,22.4,0,31.7,-6.2c7.2,-4.7,10.9,-8.5,14.9,-11.8c3.1,-2.5,3.4,-3.5,3.7,-5.2c.7,-3.4,-7.1,-5.7,-15.1,-7.7Z" class="ga_25"/>
<path d="M826.7,938.3c-2.3,1,-5,3.3,-13.3,4.3c-8.8,.9,-16.8,2,-26.4,2c-11.9,0,-22.4,-.4,-30,-2.7c-6.9,-2.2,-7.9,-4,-14.2,-5.7c-3.1,-.8,-4,-.8,-4.1,-2.1c-.2,-2.3,8.6,-1.6,15.7,-2.5c5,-.6,8.2,-.6,11.8,-.6c7.2,.1,13.8,1.9,20.5,1.9c7.1,.1,12.3,-1.7,19.4,-1.9c3.9,-.2,3.2,-.5,9,.1c6.3,.7,12.9,1.8,16,2c2.6,.2,3.9,.2,4.7,1.4c.1,2.3,-3.5,1.3,-9.1,3.8Zm-4.6,-10.6c-7.3,-1.9,-16.3,-5,-22.8,-4.7c-5.3,-.1,-6.1,1.9,-12.3,1.8c-4.8,-.1,-5.6,-1.8,-12.3,-1.8c-4.1,0,-5.8,-1.1,-18.4,2.6c-9.4,2.7,-19,5.1,-19.2,8c-.3,2.6,-.1,3.2,6,8.4c4.6,3.9,6.1,6,11.8,9.9c10.8,7.5,22.1,6.7,32,6.7c11.7,0,22.4,0,31.7,-6.2c7.2,-4.7,10.9,-8.5,14.9,-11.8c3.1,-2.5,3.4,-3.5,3.7,-5.2c.7,-3.4,-7.1,-5.7,-15.1,-7.7Z" class="gk_25"/>
</g>
<path d="M32.1,45.1H9.2m958.3,0h22.9M32.1,1331.3H9.2m958.3,0h22.9M45.1,32.1V9.2m0,1335.1v22.9M954.5,32.1V9.2m0,1335.1v22.9" class="gl_25"/>
<path d="M32.1,45.1H9.2m958.3,0h22.9M32.1,1331.3H9.2m958.3,0h22.9M45.1,32.1V9.2m0,1335.1v22.9M954.5,32.1V9.2m0,1335.1v22.9" class="gm_25"/>
<path d="M27.5,32.1H0m972.1,0h27.5M27.5,1344.3H0m972.1,0h27.5M32.1,27.5V0m0,1348.9v27.5M967.5,27.5V0m0,1348.9v27.5" class="gl_25"/>
<path d="M27.5,32.1H0m972.1,0h27.5M27.5,1344.3H0m972.1,0h27.5M32.1,27.5V0m0,1348.9v27.5M967.5,27.5V0m0,1348.9v27.5" class="gm_25"/>
</svg>