<?xml version="1.0" encoding="UTF-8" standalone="no"?>
<!DOCTYPE svg PUBLIC "-//W3C//DTD SVG 1.1//EN"
"http://www.w3.org/Graphics/SVG/1.1/DTD/svg11.dtd">
<svg viewBox="0 0 999 1376" version="1.1" xmlns="http://www.w3.org/2000/svg" xmlns:xlink="http://www.w3.org/1999/xlink">
<defs>
<clipPath id="c0_379"><path d="M32.1,1344.3V32.1H967.5V1344.3Z"/></clipPath>
<style type="text/css"><![CDATA[
.g0_379{
fill: #D2D3D5;
}
.g1_379{
fill: #EDF4DC;
}
.g2_379{
fill: #E1EDC5;
}
.g3_379{
fill: #D0E5CA;
}
.g4_379{
fill: #B0D5A7;
}
.g5_379{
fill: none;
stroke: #FFF;
stroke-width: 1.451;
stroke-miterlimit: 10;
}
.g6_379{
fill: #D7E6A3;
}
.g7_379{
fill: none;
stroke: #FFF;
stroke-width: 1.909;
stroke-miterlimit: 10;
}
.g8_379{
fill: none;
stroke: #000;
stroke-width: 0.381;
stroke-miterlimit: 10;
}
]]></style>
</defs>
<path d="M763.6,198.8H865.4v34.7H763.6V198.8Zm-101.8,0H763.6v34.7H661.8V198.8Zm-101.7,0H661.8v34.7H560.1V198.8Zm-101.8,0H560.1v34.7H458.3V198.8Zm-101.8,0H458.3v34.7H356.5V198.8Zm-138.6,0H356.5v34.7H217.9V198.8Zm-64.9,0h64.9v34.7H153V198.8Z" class="g0_379"/>
<path d="M763.6,452.9H865.4v54.9H763.6V452.9Zm-101.8,0H763.6v54.9H661.8V452.9Zm-101.7,0H661.8v54.9H560.1V452.9Zm-101.8,0H560.1v54.9H458.3V452.9Zm-101.8,0H458.3v54.9H356.5V452.9Zm-203.5,0h64.9v54.9H153V452.9ZM763.6,398.1H865.4v54.8H763.6V398.1Zm-101.8,0H763.6v54.8H661.8V398.1Zm-101.7,0H661.8v54.8H560.1V398.1Zm-101.8,0H560.1v54.8H458.3V398.1Zm-101.8,0H458.3v54.8H356.5V398.1Zm-203.5,0h64.9v54.8H153V398.1ZM763.6,343.2H865.4V398H763.6V343.2Zm-101.8,0H763.6V398H661.8V343.2Zm-101.7,0H661.8V398H560.1V343.2Zm-101.8,0H560.1V398H458.3V343.2Zm-101.8,0H458.3V398H356.5V343.2Zm-203.5,0h64.9V398H153V343.2ZM763.6,288.3H865.4v54.9H763.6V288.3Zm-101.8,0H763.6v54.9H661.8V288.3Zm-101.7,0H661.8v54.9H560.1V288.3Zm-101.8,0H560.1v54.9H458.3V288.3Zm-101.8,0H458.3v54.9H356.5V288.3Zm-203.5,0h64.9v54.9H153V288.3ZM763.6,233.5H865.4v54.8H763.6V233.5Zm-101.8,0H763.6v54.8H661.8V233.5Zm-101.7,0H661.8v54.8H560.1V233.5Zm-101.8,0H560.1v54.8H458.3V233.5Zm-101.8,0H458.3v54.8H356.5V233.5Zm-203.5,0h64.9v54.8H153V233.5Z" class="g1_379"/>
<path d="M217.9,452.9H356.5v54.9H217.9V452.9Zm0,-54.8H356.5v54.8H217.9V398.1Zm0,-54.9H356.5V398H217.9V343.2Zm0,-54.9H356.5v54.9H217.9V288.3Zm0,-54.8H356.5v54.8H217.9V233.5Z" class="g2_379"/>
<path d="M763.6,672.3H865.4v54.9H763.6V672.3Zm-101.8,0H763.6v54.9H661.8V672.3Zm-101.7,0H661.8v54.9H560.1V672.3Zm-101.8,0H560.1v54.9H458.3V672.3Zm-101.8,0H458.3v54.9H356.5V672.3Zm-203.5,0h64.9v54.9H153V672.3ZM763.6,617.5H865.4v54.8H763.6V617.5Zm-101.8,0H763.6v54.8H661.8V617.5Zm-101.7,0H661.8v54.8H560.1V617.5Zm-101.8,0H560.1v54.8H458.3V617.5Zm-101.8,0H458.3v54.8H356.5V617.5Zm-203.5,0h64.9v54.8H153V617.5ZM763.6,562.6H865.4v54.9H763.6V562.6Zm-101.8,0H763.6v54.9H661.8V562.6Zm-101.7,0H661.8v54.9H560.1V562.6Zm-101.8,0H560.1v54.9H458.3V562.6Zm-101.8,0H458.3v54.9H356.5V562.6Zm-203.5,0h64.9v54.9H153V562.6ZM763.6,507.8H865.4v54.8H763.6V507.8Zm-101.8,0H763.6v54.8H661.8V507.8Zm-101.7,0H661.8v54.8H560.1V507.8Zm-101.8,0H560.1v54.8H458.3V507.8Zm-101.8,0H458.3v54.8H356.5V507.8Zm-203.5,0h64.9v54.8H153V507.8Z" class="g3_379"/>
<path d="M217.9,672.3H356.5v54.9H217.9V672.3Zm0,-54.8H356.5v54.8H217.9V617.5Zm0,-54.9H356.5v54.9H217.9V562.6Zm0,-54.8H356.5v54.8H217.9V507.8Z" class="g4_379"/>
<path d="M152.3,198.8h65.6m-64.9,34V199.6m64.9,-.8H356.5m-138.6,34V199.6m138.6,-.8H458.3m-101.8,34V199.6m101.8,-.8H560.1m-101.8,34V199.6m101.8,-.8H661.8m-101.7,34V199.6m101.7,-.8H763.6m-101.8,34V199.6m101.8,-.8H866.1m-102.5,34V199.6m101.8,33.2V199.6M152.3,233.5h65.6M153,287.6V234.2m64.9,-.7H356.5M217.9,287.6V234.2m138.6,-.7H458.3M356.5,287.6V234.2m101.8,-.7H560.1M458.3,287.6V234.2m101.8,-.7H661.8M560.1,287.6V234.2m101.7,-.7H763.6M661.8,287.6V234.2m101.8,-.7H866.1M763.6,287.6V234.2m101.8,53.4V234.2M152.3,288.3h65.6M153,342.5V289.1m64.9,-.8H356.5M217.9,342.5V289.1m138.6,-.8H458.3M356.5,342.5V289.1m101.8,-.8H560.1M458.3,342.5V289.1m101.8,-.8H661.8M560.1,342.5V289.1m101.7,-.8H763.6M661.8,342.5V289.1m101.8,-.8H866.1M763.6,342.5V289.1m101.8,53.4V289.1M152.3,343.2h65.6M153,397.3V343.9m64.9,-.7H356.5M217.9,397.3V343.9m138.6,-.7H458.3M356.5,397.3V343.9m101.8,-.7H560.1M458.3,397.3V343.9m101.8,-.7H661.8M560.1,397.3V343.9m101.7,-.7H763.6M661.8,397.3V343.9m101.8,-.7H866.1M763.6,397.3V343.9m101.8,53.4V343.9M152.3,398.1h65.6M153,452.2V398.8m64.9,-.7H356.5M217.9,452.2V398.8m138.6,-.7H458.3M356.5,452.2V398.8m101.8,-.7H560.1M458.3,452.2V398.8m101.8,-.7H661.8M560.1,452.2V398.8m101.7,-.7H763.6M661.8,452.2V398.8m101.8,-.7H866.1M763.6,452.2V398.8m101.8,53.4V398.8M152.3,452.9h65.6M153,507V453.6m64.9,-.7H356.5M217.9,507V453.6m138.6,-.7H458.3M356.5,507V453.6m101.8,-.7H560.1M458.3,507V453.6m101.8,-.7H661.8M560.1,507V453.6m101.7,-.7H763.6M661.8,507V453.6m101.8,-.7H866.1M763.6,507V453.6M865.4,507V453.6M152.3,507.8h65.6M153,561.9V508.5m64.9,-.7H356.5M217.9,561.9V508.5m138.6,-.7H458.3M356.5,561.9V508.5m101.8,-.7H560.1M458.3,561.9V508.5m101.8,-.7H661.8M560.1,561.9V508.5m101.7,-.7H763.6M661.8,561.9V508.5m101.8,-.7H866.1M763.6,561.9V508.5m101.8,53.4V508.5M152.3,562.6h65.6M153,616.7V563.3m64.9,-.7H356.5M217.9,616.7V563.3m138.6,-.7H458.3M356.5,616.7V563.3m101.8,-.7H560.1M458.3,616.7V563.3m101.8,-.7H661.8M560.1,616.7V563.3m101.7,-.7H763.6M661.8,616.7V563.3m101.8,-.7H866.1M763.6,616.7V563.3m101.8,53.4V563.3M152.3,617.5h65.6M153,671.6V618.2m64.9,-.7H356.5M217.9,671.6V618.2m138.6,-.7H458.3M356.5,671.6V618.2m101.8,-.7H560.1M458.3,671.6V618.2m101.8,-.7H661.8M560.1,671.6V618.2m101.7,-.7H763.6M661.8,671.6V618.2m101.8,-.7H866.1M763.6,671.6V618.2m101.8,53.4V618.2M152.3,672.3h65.6M153,726.5V673.1m64.9,-.8H356.5M217.9,726.5V673.1m138.6,-.8H458.3M356.5,726.5V673.1m101.8,-.8H560.1M458.3,726.5V673.1m101.8,-.8H661.8M560.1,726.5V673.1m101.7,-.8H763.6M661.8,726.5V673.1m101.8,-.8H866.1M763.6,726.5V673.1m101.8,53.4V673.1M152.3,727.2h65.6m0,0H356.5m0,0H458.3m0,0H560.1m0,0H661.8m0,0H763.6m0,0H866.1" class="g5_379"/>
<path clip-path="url(#c0_379)" d="M-613.1,32.1c0,0,-13,0,-13,13v81c0,0,0,12.9,13,12.9h1468c0,0,13,0,13,-12.9v-81c0,0,0,-13,-13,-13Z" class="g6_379"/>
<image preserveAspectRatio="none" x="752" y="60" width="107" height="91" xlink:href="img/1.png"/>
<path d="M32.1,45.1H9.2m958.3,0h22.9M32.1,1331.3H9.2m958.3,0h22.9M45.1,32.1V9.2m0,1335.1v22.9M954.5,32.1V9.2m0,1335.1v22.9" class="g7_379"/>
<path d="M32.1,45.1H9.2m958.3,0h22.9M32.1,1331.3H9.2m958.3,0h22.9M45.1,32.1V9.2m0,1335.1v22.9M954.5,32.1V9.2m0,1335.1v22.9" class="g8_379"/>
<path d="M27.5,32.1H0m972.1,0h27.5M27.5,1344.3H0m972.1,0h27.5M32.1,27.5V0m0,1348.9v27.5M967.5,27.5V0m0,1348.9v27.5" class="g7_379"/>
<path d="M27.5,32.1H0m972.1,0h27.5M27.5,1344.3H0m972.1,0h27.5M32.1,27.5V0m0,1348.9v27.5M967.5,27.5V0m0,1348.9v27.5" class="g8_379"/>
</svg>