<?xml version="1.0" encoding="UTF-8" standalone="no"?>
<!DOCTYPE svg PUBLIC "-//W3C//DTD SVG 1.1//EN"
"http://www.w3.org/Graphics/SVG/1.1/DTD/svg11.dtd">
<svg viewBox="0 0 999 1376" version="1.1" xmlns="http://www.w3.org/2000/svg" xmlns:xlink="http://www.w3.org/1999/xlink">
<defs>
<clipPath id="c0_238"><path d="M185.7,340.6V246.7H287v93.9Z"/></clipPath>
<clipPath id="c1_238"><path d="M530.6,340.6V246.7h94v93.9Z"/></clipPath>
<clipPath id="c2_238"><path d="M352.3,340.6V246.7H465.2v93.9Z"/></clipPath>
<clipPath id="c3_238"><path d="M685.3,340.6V246.7H797.2v93.9Z"/></clipPath>
<clipPath id="c4_238"><path d="M185.7,645.9V552h112v93.9Z"/></clipPath>
<clipPath id="c5_238"><path d="M518.8,645.9V552h93.9v93.9Z"/></clipPath>
<clipPath id="c6_238"><path d="M359.9,645.9V552h93.9v93.9Z"/></clipPath>
<clipPath id="c7_238"><path d="M685.3,645.9V552h93.9v93.9Z"/></clipPath>
<clipPath id="c8_238"><path d="M185.7,493.2V399.3h113v93.9Z"/></clipPath>
<clipPath id="c9_238"><path d="M526.4,493.2V399.3h93.9v93.9Z"/></clipPath>
<clipPath id="ca_238"><path d="M361.8,493.2V399.3h93.9v93.9Z"/></clipPath>
<clipPath id="cb_238"><path d="M686.9,493.2V399.3h109v93.9Z"/></clipPath>
<clipPath id="cc_238"><path d="M189.3,792.5V704.6H293.4v87.9Z"/></clipPath>
<clipPath id="cd_238"><path d="M520.3,798.6v-94H624.8v94Z"/></clipPath>
<clipPath id="ce_238"><path d="M352.3,798.6v-94h93.9v94Z"/></clipPath>
<clipPath id="cf_238"><path d="M695.8,798.6v-94h93.9v94Z"/></clipPath>
<clipPath id="cg_238"><path d="M208.9,1145.1v-91.9H309.3v91.9Z"/></clipPath>
<clipPath id="ch_238"><path d="M431.7,1138v-84.8h92V1138Z"/></clipPath>
<clipPath id="ci_238"><path d="M318,1145.1v-91.9h92v91.9Z"/></clipPath>
<clipPath id="cj_238"><path d="M536.9,1145.1v-91.9h99.8v91.9Z"/></clipPath>
<clipPath id="ck_238"><path d="M176.6,224.6l-6.5,-2.1l-16.4,-14V151.4h72v73.2Z"/></clipPath>
<clipPath id="cl_238"><path d="M179.3,965.3l-6.5,-2.1L156.4,949.3V892.2h72v73.1Z"/></clipPath>
<style type="text/css"><![CDATA[
.g0_238{
fill: #FEFCF4;
}
.g1_238{
fill: #FFF;
}
.g2_238{
fill: none;
stroke: #6381B7;
stroke-width: 0.763;
}
.g3_238{
fill: none;
stroke: #949698;
stroke-width: 1.344;
}
.g4_238{
fill: none;
stroke: #949698;
stroke-width: 0.458;
}
.g5_238{
fill: #48484A;
}
.g6_238{
fill: #F0E8F3;
}
.g7_238{
fill: #766FA6;
}
.g8_238{
fill: #6381B7;
}
.g9_238{
fill: none;
stroke: #6381B7;
stroke-width: 0.381;
stroke-dasharray: 2,1;
}
.ga_238{
fill: none;
stroke: #6381B7;
stroke-width: 0.381;
}
.gb_238{
fill: #FCE8B0;
}
.gc_238{
fill: #25408F;
}
.gd_238{
fill: #00BAF1;
}
.ge_238{
fill: #332D2C;
}
.gf_238{
fill: #D9DFF0;
}
.gg_238{
fill: #F27C85;
}
.gh_238{
fill: #7DD3F6;
}
.gi_238{
fill: none;
stroke: #FFF;
stroke-width: 1.909;
stroke-miterlimit: 10;
}
.gj_238{
fill: none;
stroke: #000;
stroke-width: 0.381;
stroke-miterlimit: 10;
}
]]></style>
</defs>
<path d="M32.1,1344.3H954.5V32.1H32.1V1344.3Z" class="g0_238"/>
<path d="M150.9,131.8c0,0,-18.3,0,-18.3,18.3V835.9c0,0,0,18.3,18.3,18.3H828c0,0,18.4,0,18.4,-18.3V131.8Z" class="g1_238"/>
<path d="M150.9,131.8c0,0,-18.3,0,-18.3,18.3V835.9c0,0,0,18.3,18.3,18.3H828c0,0,18.4,0,18.4,-18.3V131.8H150.9Z" class="g2_238"/>
<image clip-path="url(#c0_238)" preserveAspectRatio="none" x="184" y="245" width="103" height="97" xlink:href="img/1.jpg"/>
<path d="M185.7,340.6h113V246.7h-113v93.9Z" class="g3_238"/>
<image clip-path="url(#c1_238)" preserveAspectRatio="none" x="531" y="247" width="94" height="94" xlink:href="img/2.jpg"/>
<path d="M518.8,340.6H631.7V246.7H518.8v93.9Z" class="g3_238"/>
<image clip-path="url(#c2_238)" preserveAspectRatio="none" x="351" y="245" width="115" height="97" xlink:href="img/3.jpg"/>
<path d="M352.3,340.6H465.2V246.7H352.3v93.9Z" class="g3_238"/>
<image clip-path="url(#c3_238)" preserveAspectRatio="none" x="685" y="245" width="112" height="97" xlink:href="img/4.jpg"/>
<path d="M685.3,340.6h113V246.7h-113v93.9Z" class="g3_238"/>
<image clip-path="url(#c4_238)" preserveAspectRatio="none" x="186" y="550" width="112" height="97" xlink:href="img/5.jpg"/>
<path d="M185.7,645.9h113V552h-113v93.9Z" class="g3_238"/>
<image clip-path="url(#c5_238)" preserveAspectRatio="none" x="519" y="552" width="94" height="94" xlink:href="img/6.jpg"/>
<path d="M518.8,645.9H631.7V552H518.8v93.9Z" class="g3_238"/>
<image clip-path="url(#c6_238)" preserveAspectRatio="none" x="360" y="552" width="94" height="94" xlink:href="img/7.jpg"/>
<path d="M352.3,645.9H465.2V552H352.3v93.9Z" class="g3_238"/>
<image clip-path="url(#c7_238)" preserveAspectRatio="none" x="685" y="552" width="94" height="94" xlink:href="img/8.jpg"/>
<path d="M685.3,645.9h113V552h-113v93.9Z" class="g3_238"/>
<image clip-path="url(#c8_238)" preserveAspectRatio="none" x="184" y="398" width="116" height="97" xlink:href="img/9.jpg"/>
<path d="M185.7,493.2h113V399.3h-113v93.9Z" class="g3_238"/>
<image clip-path="url(#c9_238)" preserveAspectRatio="none" x="526" y="399" width="94" height="94" xlink:href="img/10.jpg"/>
<path d="M518.8,493.2H631.7V399.3H518.8v93.9Z" class="g3_238"/>
<image clip-path="url(#ca_238)" preserveAspectRatio="none" x="362" y="399" width="94" height="94" xlink:href="img/11.jpg"/>
<path d="M352.3,493.2H465.2V399.3H352.3v93.9Z" class="g3_238"/>
<image clip-path="url(#cb_238)" preserveAspectRatio="none" x="687" y="398" width="109" height="97" xlink:href="img/12.jpg"/>
<path d="M685.3,493.2h113V399.3h-113v93.9Z" class="g3_238"/>
<image clip-path="url(#cc_238)" preserveAspectRatio="none" x="189" y="703" width="104" height="89" xlink:href="img/13.jpg"/>
<path d="M185.7,798.6h113v-94h-113v94Z" class="g3_238"/>
<image clip-path="url(#cd_238)" preserveAspectRatio="none" x="520" y="703" width="105" height="97" xlink:href="img/14.jpg"/>
<path d="M518.8,798.6H631.7v-94H518.8v94Z" class="g3_238"/>
<image clip-path="url(#ce_238)" preserveAspectRatio="none" x="352" y="705" width="94" height="94" xlink:href="img/15.jpg"/>
<path d="M352.3,798.6H465.2v-94H352.3v94Z" class="g3_238"/>
<image clip-path="url(#cf_238)" preserveAspectRatio="none" x="696" y="705" width="94" height="94" xlink:href="img/16.jpg"/>
<path d="M685.3,798.6h113v-94h-113v94Z" class="g3_238"/>
<path d="M172.4,385H809V346.1H172.4V385Z" class="g1_238"/>
<path d="M172.4,534.4H809V495.5H172.4v38.9Z" class="g1_238"/>
<path d="M172.4,688.7H809v-39H172.4v39Z" class="g1_238"/>
<path d="M172.4,843.6H809v-39H172.4v39Z" class="g1_238"/>
<path d="M145.1,976.7c0,0,-13,0,-13,13V1180c0,0,0,13,13,13H832.9c0,0,13,0,13,-13V989.7c0,0,0,-13,-13,-13Z" class="g1_238"/>
<path d="M145.1,976.7c0,0,-13,0,-13,13V1180c0,0,0,13,13,13H832.9c0,0,13,0,13,-13V989.7c0,0,0,-13,-13,-13H145.1Z" class="g2_238"/>
<image clip-path="url(#cg_238)" preserveAspectRatio="none" x="208" y="1052" width="101" height="94" xlink:href="img/17.jpg"/>
<image clip-path="url(#ch_238)" preserveAspectRatio="none" x="432" y="1052" width="92" height="86" xlink:href="img/18.jpg"/>
<image clip-path="url(#ci_238)" preserveAspectRatio="none" x="318" y="1053" width="92" height="92" xlink:href="img/19.jpg"/>
<image clip-path="url(#cj_238)" preserveAspectRatio="none" x="537" y="1053" width="100" height="93" xlink:href="img/20.jpg"/>
<path d="M208.9,1175.3H309.3v-30.8H208.9v30.8Z" class="g1_238"/>
<path d="M208.9,1175.3H309.3v-30.8H208.9v30.8Z" class="g4_238"/>
<path d="M427.1,1175.3H527.6v-30.8H427.1v30.8Z" class="g1_238"/>
<path d="M427.1,1175.3H527.6v-30.8H427.1v30.8Z" class="g4_238"/>
<path d="M318,1175.3H418.4v-30.8H318v30.8Z" class="g1_238"/>
<path d="M318,1175.3H418.4v-30.8H318v30.8Z" class="g4_238"/>
<path d="M536.3,1175.3H636.7v-30.8H536.3v30.8Z" class="g1_238"/>
<path d="M536.3,1175.3H636.7v-30.8H536.3v30.8Z" class="g4_238"/>
<path d="M688.3,1030c0,0,-4.4,0,-4.4,4.3v14.8c0,0,0,4.3,4.1,5.8l52.5,18.5c0,0,4.1,1.4,4.1,-2.9v-36.2c0,0,0,-4.3,-4.4,-4.3Z" class="g5_238"/>
<path d="M709.4,1017c0,0,-13,0,-13,13v134c0,0,0,13,13,13h98c0,0,12.9,0,12.9,-13V1030c0,0,0,-13,-12.9,-13Z" class="g6_238"/>
<path d="M688.3,1027.8c0,0,-4.4,0,-4.4,4.4v17.3c0,0,0,4.3,4.4,4.3h37.3c0,0,4.3,0,4.3,-4.3v-17.3c0,0,0,-4.4,-4.3,-4.4Z" class="g7_238"/>
<path d="M428.4,1214.8c0,0,-4.3,0,-4.3,4.4V1230c0,0,0,4.3,4.3,4.3h30.4c0,0,4.3,0,4.3,-4.3v-10.8c0,0,0,-4.4,-4.3,-4.4Z" class="g8_238"/>
<path d="M415.3,1206v37.5m1.3,1H844.9m.9,-1.3v-37.6m-1.3,-1H416.2" class="g9_238"/>
<path d="M415.3,1243.9v.6h.5m429.4,0h.6v-.6m0,-38.7v-.6h-.6m-429.4,0h-.5v.6" class="ga_238"/>
<path d="M690.3,489H795.7V402.4H690.3V489Z" class="g1_238"/>
<image preserveAspectRatio="none" x="700" y="402" width="86" height="87" xlink:href="img/21.jpg"/>
<path d="M209.2,179.6c0,0,-13,0,-13,13v21.6c0,0,0,13,13,13h602c0,0,13,0,13,-13V192.6c0,0,0,-13,-13,-13Z" class="gb_238"/>
<image clip-path="url(#ck_238)" preserveAspectRatio="none" x="152" y="150" width="75" height="76" xlink:href="img/22.png"/>
<path d="M204,219.9c0,0,-26.8,11.3,-51.1,-12.8c0,0,15.2,25.3,49.3,24c0,0,24.8,.3,20.3,-10.1c0,0,1.2,-4.5,-18.5,-1.1Z" class="gb_238"/>
<path d="M211.9,894.4c0,0,-13,0,-13,13V955c0,0,0,13,13,13H833.5c0,0,13,0,13,-13V907.4c0,0,0,-13,-13,-13Z" class="gb_238"/>
<image clip-path="url(#cl_238)" preserveAspectRatio="none" x="155" y="891" width="75" height="76" xlink:href="img/23.png"/>
<path d="M206.7,960.6c0,0,-26.9,11.3,-51.1,-12.7c0,0,15.2,25.3,49.3,23.9c0,0,24.7,.4,20.2,-10.1c0,0,1.3,-4.4,-18.4,-1.1Z" class="gb_238"/>
<path d="M131.7,126.7v22.2l11.7,10.3V137Z" class="gc_238"/>
<path d="M131.7,109.9v39H829.4c0,0,16.9,0,16.9,-16.8v-5.4c0,0,0,-16.8,-16.9,-16.8Z" class="g8_238"/>
<path d="M189.6,121.3l-6.4,-6.5L162,136l6.4,6.5Z" class="gd_238"/>
<path d="M168.4,143c.2,0,.3,0,.4,-.1L190,121.7c.1,-.1,.2,-.3,.2,-.4c0,-.1,-.1,-.3,-.2,-.4l-6.5,-6.4c-.2,-.2,-.5,-.2,-.7,0l-21.2,21.2c-.1,.1,-.2,.2,-.2,.3c0,.2,.1,.3,.2,.4l6.5,6.5c.1,.1,.2,.1,.3,.1m20.5,-21.7l-20.5,20.5L162.7,136l20.5,-20.4Z" class="ge_238"/>
<path d="M189.6,121.3l-6.4,-6.5l2.1,-2.1l6.5,6.5Z" class="gf_238"/>
<path d="M189.6,121.8c.2,0,.3,0,.4,-.1l2.1,-2.1c.1,-.1,.2,-.3,.2,-.4c0,-.2,-.1,-.3,-.2,-.4l-6.4,-6.5c-.2,-.2,-.6,-.2,-.8,0l-2.1,2.2c-.1,0,-.2,.2,-.2,.3c0,.2,.1,.3,.2,.4l6.5,6.5c.1,.1,.2,.1,.3,.1m1.4,-2.6l-1.4,1.4l-5.7,-5.8l1.4,-1.4Z" class="ge_238"/>
<path d="M195.4,115.6l-6.5,-6.5l-3.6,3.6l6.5,6.5Z" class="gg_238"/>
<path d="M191.8,119.7c.1,0,.2,0,.3,-.1l3.7,-3.7c.2,-.2,.2,-.5,0,-.7l-6.5,-6.5c-.2,-.2,-.6,-.2,-.8,0l-3.6,3.6c-.2,.2,-.2,.6,0,.8l6.5,6.5c.1,.1,.2,.1,.4,.1m2.8,-4.1l-2.8,2.8L186,112.7l2.9,-2.9Z" class="ge_238"/>
<path d="M157.3,147.2L162,136l6.4,6.5Z" class="g1_238"/>
<path d="M157.3,147.7c.1,0,.2,0,.2,-.1L168.6,143c.2,-.1,.3,-.2,.4,-.4c0,-.2,-.1,-.3,-.2,-.5l-6.5,-6.4c-.1,-.2,-.3,-.2,-.5,-.2c-.1,.1,-.3,.2,-.3,.3l-4.7,11.1c0,.2,0,.5,.1,.6c.1,.1,.3,.2,.4,.2m10.2,-5.4l-9.2,3.9l3.8,-9.2Z" class="ge_238"/>
<path d="M157.3,147.2l2.3,-5.4l3.1,3.1Z" class="ge_238"/>
<path d="M157.3,147.7c.1,0,.2,0,.2,-.1l5.4,-2.2c.1,-.1,.3,-.2,.3,-.4c0,-.2,0,-.3,-.1,-.5l-3.2,-3.1c-.1,-.1,-.3,-.2,-.4,-.1c-.2,0,-.4,.1,-.4,.3l-2.3,5.3c0,.2,0,.5,.1,.6c.1,.1,.3,.2,.4,.2m4.5,-3l-3.5,1.5l1.4,-3.5Z" class="ge_238"/>
<path d="M187.9,119.5l-3,-2.9l-21.2,21.2l3,3Z" class="gh_238"/>
<path d="M166.7,141.3c.1,0,.2,-.1,.3,-.2l21.3,-21.2c.1,-.1,.1,-.2,.1,-.4c0,-.1,0,-.2,-.1,-.3l-3,-3c-.2,-.2,-.5,-.2,-.8,0l-21.2,21.2c-.1,.1,-.1,.3,-.1,.4c0,.1,0,.3,.1,.4l3,2.9c.1,.1,.2,.2,.4,.2m20.4,-21.8L166.7,140l-2.2,-2.2l20.4,-20.5Z" class="ge_238"/>
<path d="M32.1,45.1H9.2m958.3,0h22.9M32.1,1331.3H9.2m958.3,0h22.9M45.1,32.1V9.2m0,1335.1v22.9M954.5,32.1V9.2m0,1335.1v22.9" class="gi_238"/>
<path d="M32.1,45.1H9.2m958.3,0h22.9M32.1,1331.3H9.2m958.3,0h22.9M45.1,32.1V9.2m0,1335.1v22.9M954.5,32.1V9.2m0,1335.1v22.9" class="gj_238"/>
<path d="M27.5,32.1H0m972.1,0h27.5M27.5,1344.3H0m972.1,0h27.5M32.1,27.5V0m0,1348.9v27.5M967.5,27.5V0m0,1348.9v27.5" class="gi_238"/>
<path d="M27.5,32.1H0m972.1,0h27.5M27.5,1344.3H0m972.1,0h27.5M32.1,27.5V0m0,1348.9v27.5M967.5,27.5V0m0,1348.9v27.5" class="gj_238"/>
</svg>