<?xml version="1.0" encoding="UTF-8" standalone="no"?>
<!DOCTYPE svg PUBLIC "-//W3C//DTD SVG 1.1//EN"
"http://www.w3.org/Graphics/SVG/1.1/DTD/svg11.dtd">
<svg viewBox="0 0 999 1376" version="1.1" xmlns="http://www.w3.org/2000/svg" xmlns:xlink="http://www.w3.org/1999/xlink">
<defs>
<clipPath id="c0_134"><path d="M32.1,1344.3V32.1H967.5V1344.3Z"/></clipPath>
<clipPath id="c1_134"><path d="M226.1,469.7v-77l80.5,-.7v77.7Z"/></clipPath>
<clipPath id="c2_134"><path d="M392.6,469.7V391.3l80.5,-.7v79.1Z"/></clipPath>
<clipPath id="c3_134"><path d="M560.6,469.7V389.8l77,-.6h3.5v80.5Z"/></clipPath>
<clipPath id="c4_134"><path d="M724,469.7V389.2h80.4v80.5Z"/></clipPath>
<clipPath id="c5_134"><path d="M227.3,608V527.5h80.4V608Z"/></clipPath>
<clipPath id="c6_134"><path d="M392.6,608V527.5h80.5V608Z"/></clipPath>
<clipPath id="c7_134"><path d="M556.2,608V527.5h80.5V608Z"/></clipPath>
<clipPath id="c8_134"><path d="M724,608V527.5h80.4V608Z"/></clipPath>
<clipPath id="c9_134"><path d="M226.9,737V665.2h80.9V737Z"/></clipPath>
<clipPath id="ca_134"><path d="M390.4,731.3V675.7h55.5v55.6Z"/></clipPath>
<clipPath id="cb_134"><path d="M440,730.1V674.6h49.8v55.5Z"/></clipPath>
<clipPath id="cc_134"><path d="M553.8,737V690.4h55.8V737Z"/></clipPath>
<clipPath id="cd_134"><path d="M603.5,737V689.6h50.4V737Z"/></clipPath>
<clipPath id="ce_134"><path d="M573.1,704.5V674.9h55.5v29.6Z"/></clipPath>
<clipPath id="cf_134"><path d="M721.1,737V690.4h56.5V737Z"/></clipPath>
<clipPath id="cg_134"><path d="M770.8,737V689.6h46.6V737Z"/></clipPath>
<clipPath id="ch_134"><path d="M720.4,704.5V674.9h46v29.6Z"/></clipPath>
<clipPath id="ci_134"><path d="M765.6,704.5V674.9h46v29.6Z"/></clipPath>
<clipPath id="cj_134"><path d="M750,352.6V340.2h14.5v12.4Z"/></clipPath>
<clipPath id="ck_134"><path d="M186,291.4l-6.5,-2.1L163.1,275.4V218.3H235v73.1Z"/></clipPath>
<clipPath id="cl_134"><path d="M186,897.8l-6.5,-2.1l-16.4,-14v-57H235v73.1Z"/></clipPath>
<style type="text/css"><![CDATA[
.g0_134{
fill: #FEFCF4;
}
.g1_134{
fill: #59816A;
}
.g2_134{
fill: #2E6E51;
}
.g3_134{
fill: #92A696;
}
.g4_134{
fill: #F9F6DB;
}
.g5_134{
fill: #DE524C;
}
.g6_134{
fill: #030303;
}
.g7_134{
fill: #FFF;
}
.g8_134{
fill: none;
stroke: #6381B7;
stroke-width: 0.763;
}
.g9_134{
fill: #A8AAAD;
}
.ga_134{
fill: none;
stroke: #949698;
stroke-width: 0.549;
}
.gb_134{
fill: none;
stroke: #BCBEC0;
stroke-width: 2.566;
}
.gc_134{
fill: #231F20;
}
.gd_134{
fill: #FCE8B0;
}
.ge_134{
fill: none;
stroke: #FFF;
stroke-width: 1.909;
stroke-miterlimit: 10;
}
.gf_134{
fill: none;
stroke: #000;
stroke-width: 0.381;
stroke-miterlimit: 10;
}
]]></style>
</defs>
<path clip-path="url(#c0_134)" d="M954.5,1344.3H1877V32.1H954.5V1344.3Z" class="g0_134"/>
<path d="M32.1,1344.3H954.5V32.1H32.1V1344.3Z" class="g0_134"/>
<path clip-path="url(#c0_134)" d="M1777.4,163c0,0,30.3,0,30.3,-30.3v-4.4c0,0,0,-30.3,-30.3,-30.3H162.8c0,0,-30.3,0,-30.3,30.3v4.4c0,0,0,30.3,30.3,30.3Z" class="g1_134"/>
<path d="M183.7,130.5c0,26.3,-21.4,47.6,-47.7,47.6c-26.3,0,-47.6,-21.3,-47.6,-47.6c0,-26.3,21.3,-47.7,47.6,-47.7c26.3,0,47.7,21.4,47.7,47.7Z" class="g2_134"/>
<path d="M158.3,88.4c0,0,26.2,12.3,25.3,44.1c0,0,.4,18,-14.5,32.2c0,0,-12.5,13.6,-33.8,13.4L119.8,142.5L146.3,109Z" class="g3_134"/>
<path d="M138.2,95.4l-35.3,40.3c-2.2,9.2,5.7,10.6,5.7,10.6L162,135.2Z" class="g4_134"/>
<path d="M163.8,131.9c1,1.6,.6,3.7,-1,4.7c-1.6,1,-3.7,.4,-4.7,-1.2L135.8,98.9c-1,-1.6,-.5,-3.7,1.1,-4.7c1.6,-1,3.7,-.4,4.7,1.2Z" class="g5_134"/>
<path d="M112,121.2l-8.5,5.9c-7.2,4.1,-9.8,13,-5.8,19.8c4,6.9,11.5,9.1,18.7,4.9l17.1,25.4c.8,1.9,5,.3,7,-.6c1.9,-1,4.4,-3.3,3.5,-5.2L127.5,145.3l.7,-.8c.7,-.3,-15,-24,-16.2,-23.3Z" class="g6_134"/>
<path d="M168.7,102.2c.4,.5,0,1.4,-.7,1.9l-9.2,6.7c-.7,.5,-1.6,.6,-2,0c-.3,-.5,0,-1.3,.7,-1.8l9.2,-6.7c.8,-.6,1.7,-.6,2,-.1Z" class="g7_134"/>
<path d="M158.4,88.4c.5,.4,.6,1.3,.1,2.1l-5.9,9.8c-.5,.8,-1.3,1.2,-1.9,.9c-.5,-.4,-.5,-1.2,0,-2.1l5.9,-9.8c.5,-.8,1.3,-1.2,1.8,-.9Z" class="g7_134"/>
<path d="M176.2,121.9c.1,-.6,-.6,-1.2,-1.5,-1.3l-11.2,-1.4c-.9,-.1,-1.7,.4,-1.8,1c-.1,.6,.6,1.2,1.5,1.3l11.2,1.3c.9,.2,1.7,-.3,1.8,-.9Z" class="g7_134"/>
<path d="M145.1,912.3c0,0,-13,0,-13,13v245.4c0,0,0,13,13,13H836.4c0,0,13,0,13,-13V925.3c0,0,0,-13,-13,-13Z" class="g7_134"/>
<path d="M145.1,912.3c0,0,-13,0,-13,13v245.4c0,0,0,13,13,13H836.4c0,0,13,0,13,-13V925.3c0,0,0,-13,-13,-13H145.1Z" class="g8_134"/>
<path d="M197.7,982.6h397V961.2h-397v21.4Z" class="g7_134"/>
<path d="M145.1,315.2c0,0,-13,0,-13,13V754.1c0,0,0,12.9,13,12.9H832.9c0,0,13,0,13,-12.9V328.2c0,0,0,-13,-13,-13Z" class="g7_134"/>
<path d="M145.1,315.2c0,0,-13,0,-13,13V754.1c0,0,0,12.9,13,12.9H832.9c0,0,13,0,13,-12.9V328.2c0,0,0,-13,-13,-13H145.1Z" class="g8_134"/>
<path d="M197.7,379.7H743.2V358.3H197.7v21.4Z" class="g7_134"/>
<image clip-path="url(#c1_134)" preserveAspectRatio="none" x="226" y="389" width="81" height="81" xlink:href="img/1.jpg"/>
<image clip-path="url(#c2_134)" preserveAspectRatio="none" x="393" y="389" width="80" height="81" xlink:href="img/2.jpg"/>
<image clip-path="url(#c3_134)" preserveAspectRatio="none" x="561" y="389" width="80" height="81" xlink:href="img/3.jpg"/>
<image clip-path="url(#c4_134)" preserveAspectRatio="none" x="724" y="389" width="81" height="81" xlink:href="img/4.jpg"/>
<image clip-path="url(#c5_134)" preserveAspectRatio="none" x="227" y="528" width="81" height="80" xlink:href="img/5.jpg"/>
<image clip-path="url(#c6_134)" preserveAspectRatio="none" x="393" y="528" width="80" height="80" xlink:href="img/6.jpg"/>
<image clip-path="url(#c7_134)" preserveAspectRatio="none" x="556" y="528" width="81" height="80" xlink:href="img/7.jpg"/>
<image clip-path="url(#c8_134)" preserveAspectRatio="none" x="724" y="528" width="81" height="80" xlink:href="img/8.jpg"/>
<image clip-path="url(#c9_134)" preserveAspectRatio="none" x="227" y="666" width="81" height="80" xlink:href="img/9.jpg"/>
<image clip-path="url(#ca_134)" preserveAspectRatio="none" x="390" y="676" width="56" height="55" xlink:href="img/10.jpg"/>
<image clip-path="url(#cb_134)" preserveAspectRatio="none" x="438" y="675" width="52" height="55" xlink:href="img/11.jpg"/>
<image clip-path="url(#cc_134)" preserveAspectRatio="none" x="554" y="691" width="56" height="55" xlink:href="img/12.jpg"/>
<image clip-path="url(#cd_134)" preserveAspectRatio="none" x="602" y="690" width="52" height="55" xlink:href="img/13.jpg"/>
<image clip-path="url(#ce_134)" preserveAspectRatio="none" x="573" y="673" width="56" height="33" xlink:href="img/14.jpg"/>
<image clip-path="url(#cf_134)" preserveAspectRatio="none" x="722" y="691" width="55" height="55" xlink:href="img/15.jpg"/>
<image clip-path="url(#cg_134)" preserveAspectRatio="none" x="770" y="690" width="48" height="55" xlink:href="img/16.jpg"/>
<image clip-path="url(#ch_134)" preserveAspectRatio="none" x="719" y="673" width="49" height="33" xlink:href="img/17.jpg"/>
<image clip-path="url(#ci_134)" preserveAspectRatio="none" x="764" y="673" width="49" height="33" xlink:href="img/18.jpg"/>
<path d="M348.7,734.8H385V410.9H348.7V734.8Z" class="g7_134"/>
<path d="M513.2,734.8h36.4V410.9H513.2V734.8Z" class="g7_134"/>
<path d="M683,734.8h36.4V410.9H683V734.8Z" class="g7_134"/>
<path d="M766.1,365.6c8.3,0,14.9,-6.5,14.9,-14.5c0,-8,-6.6,-14.5,-14.9,-14.5c-8.2,0,-14.8,6.5,-14.8,14.5c0,8,6.6,14.5,14.8,14.5Z" class="g9_134"/>
<path d="M766.1,365.6c8.3,0,14.9,-6.5,14.9,-14.5c0,-8,-6.6,-14.5,-14.9,-14.5c-8.2,0,-14.8,6.5,-14.8,14.5c0,8,6.6,14.5,14.8,14.5Z" class="ga_134"/>
<path d="M766.1,356.5c3.1,0,5.5,-2.4,5.5,-5.4c0,-3,-2.4,-5.4,-5.5,-5.4c-3,0,-5.5,2.4,-5.5,5.4c0,3,2.5,5.4,5.5,5.4Z" class="g7_134"/>
<path d="M766.1,356.5c3.1,0,5.5,-2.4,5.5,-5.4c0,-3,-2.4,-5.4,-5.5,-5.4c-3,0,-5.5,2.4,-5.5,5.4c0,3,2.5,5.4,5.5,5.4Z" class="gb_134"/>
<g clip-path="url(#cj_134)" opacity="0.3">
<path d="M751.6,350.3v0c0,0,-.1,-4.8,3.6,-8.6l7.8,6.7c0,0,-1,.9,-1.1,2.6Z" class="g7_134"/>
</g>
<path d="M770.7,351c0,0,-3.4,0,-3.4,3.5v8.7c0,0,0,3.4,3.4,3.4h43.5c0,0,3.5,0,3.5,-3.4v-8.7c0,0,0,-3.5,-3.5,-3.5Z" class="gc_134"/>
<path d="M218.6,220.5c0,0,-13,0,-13,13v47.6c0,0,0,13,13,13H833.3c0,0,13,0,13,-13V233.5c0,0,0,-13,-13,-13Z" class="gd_134"/>
<image clip-path="url(#ck_134)" preserveAspectRatio="none" x="161" y="217" width="75" height="76" xlink:href="img/19.png"/>
<path d="M213.4,286.7c0,0,-26.9,11.3,-51.1,-12.7c0,0,15.1,25.3,49.3,23.9c0,0,24.7,.4,20.2,-10.1c0,0,1.2,-4.4,-18.4,-1.1Z" class="gd_134"/>
<path d="M218.6,826.8c0,0,-13,0,-13,13v47.6c0,0,0,13,13,13H833.3c0,0,13,0,13,-13V839.8c0,0,0,-13,-13,-13Z" class="gd_134"/>
<image clip-path="url(#cl_134)" preserveAspectRatio="none" x="161" y="823" width="75" height="76" xlink:href="img/20.png"/>
<path d="M213.4,893.1c0,0,-26.9,11.3,-51.1,-12.8c0,0,15.1,25.3,49.3,24c0,0,24.7,.3,20.2,-10.1c0,0,1.2,-4.5,-18.4,-1.1Z" class="gd_134"/>
<path d="M32.1,45.1H9.2m958.3,0h22.9M32.1,1331.3H9.2m958.3,0h22.9M45.1,32.1V9.2m0,1335.1v22.9M954.5,32.1V9.2m0,1335.1v22.9" class="ge_134"/>
<path d="M32.1,45.1H9.2m958.3,0h22.9M32.1,1331.3H9.2m958.3,0h22.9M45.1,32.1V9.2m0,1335.1v22.9M954.5,32.1V9.2m0,1335.1v22.9" class="gf_134"/>
<path d="M27.5,32.1H0m972.1,0h27.5M27.5,1344.3H0m972.1,0h27.5M32.1,27.5V0m0,1348.9v27.5M967.5,27.5V0m0,1348.9v27.5" class="ge_134"/>
<path d="M27.5,32.1H0m972.1,0h27.5M27.5,1344.3H0m972.1,0h27.5M32.1,27.5V0m0,1348.9v27.5M967.5,27.5V0m0,1348.9v27.5" class="gf_134"/>
</svg>