<?xml version="1.0" encoding="UTF-8" standalone="no"?>
<!DOCTYPE svg PUBLIC "-//W3C//DTD SVG 1.1//EN"
"http://www.w3.org/Graphics/SVG/1.1/DTD/svg11.dtd">
<svg viewBox="0 0 999 1376" version="1.1" xmlns="http://www.w3.org/2000/svg" xmlns:xlink="http://www.w3.org/1999/xlink">
<defs>
<clipPath id="c0_355"><path d="M32.1,1344.3V32.1H967.5V1344.3Z"/></clipPath>
<clipPath id="c1_355"><path d="M236,1052.5V978.4h96.3v74.1Z"/></clipPath>
<clipPath id="c2_355"><path d="M555.8,1055.4v-79H643v79Z"/></clipPath>
<clipPath id="c3_355"><path d="M395.1,1055.3v-79h87.2v79Z"/></clipPath>
<clipPath id="c4_355"><path d="M716.7,1053.1V974.2h87.2v78.9Z"/></clipPath>
<clipPath id="c5_355"><path d="M200.7,912.2l-6.5,-2.1L177.8,896.2V839.1h72v73.1Z"/></clipPath>
<clipPath id="c6_355"><path d="M198.6,325.6l-6.5,-2.1L175.7,309.6V252.5h72v73.1Z"/></clipPath>
<clipPath id="c7_355"><path d="M658.6,177V59h200V177Z"/></clipPath>
<style type="text/css"><![CDATA[
.g0_355{
fill: #FEFCF4;
}
.g1_355{
fill: #FFF;
}
.g2_355{
fill: none;
stroke: #6381B7;
stroke-width: 0.763;
}
.g3_355{
fill: none;
stroke: #949698;
stroke-width: 0.381;
}
.g4_355{
fill: #93BEDA;
}
.g5_355{
fill: #EFE9CC;
}
.g6_355{
fill: #6381B7;
}
.g7_355{
fill: none;
stroke: #6381B7;
stroke-width: 0.381;
stroke-dasharray: 2,1;
}
.g8_355{
fill: none;
stroke: #6381B7;
stroke-width: 0.381;
}
.g9_355{
fill: #FCE8B0;
}
.ga_355{
fill: #2E6E51;
}
.gb_355{
fill: #BCBEC0;
}
.gc_355{
fill: #EE314A;
}
.gd_355{
fill: #25408F;
}
.ge_355{
fill: #00BAF1;
}
.gf_355{
fill: #332D2C;
}
.gg_355{
fill: #D9DFF0;
}
.gh_355{
fill: #F27C85;
}
.gi_355{
fill: #7DD3F6;
}
.gj_355{
fill: none;
stroke: #FFF;
stroke-width: 1.909;
stroke-miterlimit: 10;
}
.gk_355{
fill: none;
stroke: #000;
stroke-width: 0.381;
stroke-miterlimit: 10;
}
]]></style>
</defs>
<path clip-path="url(#c0_355)" d="M-877.3,1344.3H45.1V32.1H-877.3V1344.3Z" class="g0_355"/>
<path d="M45.1,1344.3H967.5V32.1H45.1V1344.3Z" class="g0_355"/>
<path d="M172.1,224.1c0,0,-18.4,0,-18.4,18.3V810.2c0,0,0,18.4,18.4,18.4H849.2c0,0,18.3,0,18.3,-18.4V224.1Z" class="g1_355"/>
<path d="M172.1,224.1c0,0,-18.4,0,-18.4,18.3V810.2c0,0,0,18.4,18.4,18.4H849.2c0,0,18.3,0,18.3,-18.4V224.1H172.1Z" class="g2_355"/>
<path d="M254.3,770.3H392.5V671H254.3v99.3Z" class="g1_355"/>
<image preserveAspectRatio="none" x="274" y="671" width="99" height="99" xlink:href="img/1.jpg"/>
<path d="M254.3,770.3H392.5V671H254.3v99.3Z" class="g3_355"/>
<path d="M202.6,441.2H314.8V341.9H202.6v99.3Z" class="g1_355"/>
<image preserveAspectRatio="none" x="209" y="342" width="99" height="99" xlink:href="img/2.jpg"/>
<path d="M202.6,441.2H314.8V341.9H202.6v99.3Z" class="g3_355"/>
<path d="M347.1,441.2H459.3V341.9H347.1v99.3Z" class="g1_355"/>
<image preserveAspectRatio="none" x="354" y="342" width="99" height="99" xlink:href="img/3.jpg"/>
<path d="M347.1,441.2H459.3V341.9H347.1v99.3Z" class="g3_355"/>
<path d="M575.6,441.2H687.8V341.9H575.6v99.3Z" class="g1_355"/>
<image preserveAspectRatio="none" x="582" y="342" width="99" height="99" xlink:href="img/4.jpg"/>
<path d="M575.6,441.2H687.8V341.9H575.6v99.3Z" class="g3_355"/>
<path d="M720.1,441.2H832.4V341.9H720.1v99.3Z" class="g1_355"/>
<image preserveAspectRatio="none" x="727" y="342" width="99" height="99" xlink:href="img/5.jpg"/>
<path d="M720.1,441.2H832.4V341.9H720.1v99.3Z" class="g3_355"/>
<path d="M202.6,601.4H314.8V502.2H202.6v99.2Z" class="g1_355"/>
<image preserveAspectRatio="none" x="209" y="502" width="99" height="99" xlink:href="img/6.jpg"/>
<path d="M202.6,601.4H314.8V502.2H202.6v99.2Z" class="g3_355"/>
<path d="M347.1,601.4H459.3V502.2H347.1v99.2Z" class="g1_355"/>
<image preserveAspectRatio="none" x="354" y="502" width="99" height="99" xlink:href="img/7.jpg"/>
<path d="M347.1,601.4H459.3V502.2H347.1v99.2Z" class="g3_355"/>
<path d="M575.6,601.4H687.8V502.2H575.6v99.2Z" class="g1_355"/>
<image preserveAspectRatio="none" x="582" y="502" width="99" height="99" xlink:href="img/8.jpg"/>
<path d="M575.6,601.4H687.8V502.2H575.6v99.2Z" class="g3_355"/>
<path d="M720.1,601.4H832.4V502.2H720.1v99.2Z" class="g1_355"/>
<image preserveAspectRatio="none" x="727" y="502" width="99" height="99" xlink:href="img/9.jpg"/>
<path d="M720.1,601.4H832.4V502.2H720.1v99.2Z" class="g3_355"/>
<path d="M642.5,770.3H780.7V671H642.5v99.3Z" class="g1_355"/>
<image preserveAspectRatio="none" x="662" y="671" width="99" height="99" xlink:href="img/10.jpg"/>
<path d="M642.5,770.3H780.7V671H642.5v99.3Z" class="g3_355"/>
<path d="M166.5,925.1c0,0,-13,0,-13,13v245.8c0,0,0,13,13,13h688c0,0,13,0,13,-13V938.1c0,0,0,-13,-13,-13Z" class="g1_355"/>
<path d="M166.5,925.1c0,0,-13,0,-13,13v245.8c0,0,0,13,13,13h688c0,0,13,0,13,-13V938.1c0,0,0,-13,-13,-13h-688Z" class="g2_355"/>
<path d="M400.2,959.3h16.9V942.8H400.2v16.5Z" class="g1_355"/>
<image clip-path="url(#c1_355)" preserveAspectRatio="none" x="235" y="972" width="98" height="81" xlink:href="img/11.jpg"/>
<path d="M273.3,1139.3c2,0,3.6,-1.7,3.6,-3.6c0,-2,-1.6,-3.7,-3.6,-3.7c-2,0,-3.6,1.7,-3.6,3.7c0,1.9,1.6,3.6,3.6,3.6Z" class="g4_355"/>
<path d="M273.3,1071.7c2,0,3.6,-1.6,3.6,-3.6c0,-2,-1.6,-3.6,-3.6,-3.6c-2,0,-3.6,1.6,-3.6,3.6c0,2,1.6,3.6,3.6,3.6Z" class="g4_355"/>
<path d="M235.8,1151.6c0,0,-8.7,0,-8.7,8.6v15.2c0,0,0,8.7,8.7,8.7h86.6c0,0,8.6,0,8.6,-8.7v-15.2c0,0,0,-8.6,-8.6,-8.6Z" class="g5_355"/>
<image clip-path="url(#c2_355)" preserveAspectRatio="none" x="556" y="975" width="87" height="81" xlink:href="img/12.jpg"/>
<path d="M590.7,1071.7c2,0,3.6,-1.6,3.6,-3.6c0,-2,-1.6,-3.6,-3.6,-3.6c-2,0,-3.6,1.6,-3.6,3.6c0,2,1.6,3.6,3.6,3.6Z" class="g4_355"/>
<path d="M590.7,1139.3c2,0,3.6,-1.7,3.6,-3.6c0,-2,-1.6,-3.7,-3.6,-3.7c-2,0,-3.6,1.7,-3.6,3.7c0,1.9,1.6,3.6,3.6,3.6Z" class="g4_355"/>
<path d="M556,1151.6c0,0,-8.7,0,-8.7,8.6v15.2c0,0,0,8.7,8.7,8.7h86.6c0,0,8.6,0,8.6,-8.7v-15.2c0,0,0,-8.6,-8.6,-8.6Z" class="g5_355"/>
<image clip-path="url(#c3_355)" preserveAspectRatio="none" x="395" y="976" width="87" height="80" xlink:href="img/13.jpg"/>
<path d="M432.2,1071.7c2,0,3.6,-1.6,3.6,-3.6c0,-2,-1.6,-3.6,-3.6,-3.6c-2,0,-3.6,1.6,-3.6,3.6c0,2,1.6,3.6,3.6,3.6Z" class="g4_355"/>
<path d="M432.2,1139.3c2,0,3.6,-1.7,3.6,-3.6c0,-2,-1.6,-3.7,-3.6,-3.7c-2,0,-3.6,1.7,-3.6,3.7c0,1.9,1.6,3.6,3.6,3.6Z" class="g4_355"/>
<path d="M395.7,1151.6c0,0,-8.6,0,-8.6,8.6v15.2c0,0,0,8.7,8.6,8.7h86.6c0,0,8.7,0,8.7,-8.7v-15.2c0,0,0,-8.6,-8.7,-8.6Z" class="g5_355"/>
<image clip-path="url(#c4_355)" preserveAspectRatio="none" x="717" y="974" width="87" height="80" xlink:href="img/14.jpg"/>
<path d="M749.9,1071.7c2,0,3.6,-1.6,3.6,-3.6c0,-2,-1.6,-3.6,-3.6,-3.6c-2,0,-3.6,1.6,-3.6,3.6c0,2,1.6,3.6,3.6,3.6Z" class="g4_355"/>
<path d="M749.9,1139.3c2,0,3.6,-1.7,3.6,-3.6c0,-2,-1.6,-3.7,-3.6,-3.7c-2,0,-3.6,1.7,-3.6,3.7c0,1.9,1.6,3.6,3.6,3.6Z" class="g4_355"/>
<path d="M715.6,1151.6c0,0,-8.7,0,-8.7,8.6v15.2c0,0,0,8.7,8.7,8.7h86.6c0,0,8.7,0,8.7,-8.7v-15.2c0,0,0,-8.6,-8.7,-8.6Z" class="g5_355"/>
<path d="M660.4,1214.8c0,0,-4.3,0,-4.3,4.4V1230c0,0,0,4.3,4.3,4.3h30.3c0,0,4.4,0,4.4,-4.3v-10.8c0,0,0,-4.4,-4.4,-4.4Z" class="g6_355"/>
<path d="M647.2,1206v37.5m1.4,1H866.8m.9,-1.3v-37.6m-1.3,-1H648.2" class="g7_355"/>
<path d="M647.2,1243.9v.6h.6m219.3,0h.6v-.6m0,-38.7v-.6h-.6m-219.3,0h-.6v.6" class="g8_355"/>
<path d="M233.3,867.3c0,0,-13,0,-13,13v21.6c0,0,0,13,13,13H854.9c0,0,13,0,13,-13V880.3c0,0,0,-13,-13,-13Z" class="g9_355"/>
<image clip-path="url(#c5_355)" preserveAspectRatio="none" x="176" y="838" width="75" height="76" xlink:href="img/15.png"/>
<path d="M228.1,907.5c0,0,-26.8,11.3,-51.1,-12.7c0,0,15.2,25.3,49.3,23.9c0,0,24.8,.4,20.3,-10.1c0,0,1.2,-4.4,-18.5,-1.1Z" class="g9_355"/>
<path d="M231.2,280.6c0,0,-12.9,0,-12.9,13v21.7c0,0,0,13,12.9,13H833.3c0,0,13,0,13,-13V293.6c0,0,0,-13,-13,-13Z" class="g9_355"/>
<image clip-path="url(#c6_355)" preserveAspectRatio="none" x="174" y="251" width="75" height="76" xlink:href="img/16.png"/>
<path d="M226,320.9c0,0,-26.8,11.3,-51.1,-12.8c0,0,15.2,25.4,49.3,24c0,0,24.8,.3,20.3,-10.1c0,0,1.2,-4.5,-18.5,-1.1Z" class="g9_355"/>
<path d="M32.1,179.3H967.5V32.1H32.1V179.3Z" class="ga_355"/>
<g clip-path="url(#c0_355)">
<path d="M967.5,177.2H-877.3v-5.4h736.6c43.1,0,53.1,-37.9,115.3,-37.9H967.5Z" class="gb_355"/>
<path d="M967.5,183.7H-877.3v-9.8h736.6c43.1,0,53.1,-33.6,115.3,-33.6H967.5Z" class="gc_355"/>
</g>
<image clip-path="url(#c7_355)" preserveAspectRatio="none" x="659" y="59" width="200" height="118" xlink:href="img/17.png"/>
<path d="M153.3,217.5v22.2L165,250V227.8Z" class="gd_355"/>
<path d="M153.3,200.7v39H851.1c0,0,16.8,0,16.8,-16.8v-5.4c0,0,0,-16.8,-16.8,-16.8Z" class="g6_355"/>
<path d="M211.3,212.1l-6.5,-6.4l-21.2,21.2l6.5,6.4Z" class="ge_355"/>
<path d="M190.1,233.9c.1,0,.3,-.1,.4,-.2l21.2,-21.2c.1,-.1,.1,-.2,.1,-.4c0,-.1,0,-.2,-.1,-.3l-6.5,-6.5c-.2,-.2,-.6,-.2,-.8,0l-21.2,21.2c-.1,.1,-.1,.2,-.1,.4c0,.1,0,.2,.1,.3l6.5,6.5c.1,.1,.3,.2,.4,.2m20.5,-21.8l-20.5,20.5l-5.8,-5.7l20.5,-20.5Z" class="gf_355"/>
<path d="M211.3,212.1l-6.5,-6.4l2.1,-2.2l6.5,6.5Z" class="gg_355"/>
<path d="M211.3,212.7c.1,0,.3,-.1,.4,-.2l2.1,-2.1c.1,-.1,.2,-.2,.2,-.4c0,-.1,-.1,-.3,-.2,-.4l-6.5,-6.4c-.2,-.3,-.5,-.3,-.7,0l-2.2,2.1c-.1,.1,-.1,.2,-.1,.4c0,.1,0,.2,.1,.3l6.5,6.5c.1,.1,.3,.2,.4,.2m1.4,-2.7l-1.4,1.4l-5.7,-5.7l1.3,-1.4Z" class="gf_355"/>
<path d="M217,206.4l-6.4,-6.5l-3.7,3.6l6.5,6.5Z" class="gh_355"/>
<path d="M213.4,210.5c.2,0,.3,0,.4,-.1l3.6,-3.6c.2,-.2,.2,-.6,0,-.8l-6.5,-6.5c-.2,-.2,-.5,-.2,-.7,0l-3.6,3.7c-.2,.2,-.2,.5,0,.7l6.5,6.5c.1,.1,.2,.1,.3,.1m2.9,-4.1l-2.9,2.9l-5.7,-5.8l2.9,-2.8Z" class="gf_355"/>
<path d="M179,238l4.6,-11.1l6.5,6.4Z" class="g1_355"/>
<path d="M179,238.5c0,0,.1,0,.2,0l11.1,-4.7c.2,0,.3,-.2,.3,-.4c0,-.1,0,-.3,-.1,-.4L184,226.5c-.1,-.1,-.3,-.2,-.5,-.1c-.2,0,-.3,.1,-.4,.3l-4.6,11.1c-.1,.2,0,.4,.1,.6c.1,.1,.2,.1,.4,.1m10.2,-5.3l-9.3,3.8l3.9,-9.2Z" class="gf_355"/>
<path d="M179,238l2.2,-5.4l3.1,3.1Z" class="gf_355"/>
<path d="M179,238.5c0,0,.1,0,.2,0l5.3,-2.3c.2,0,.3,-.2,.4,-.4c0,-.1,-.1,-.3,-.2,-.4l-3.1,-3.2c-.1,-.1,-.3,-.1,-.5,-.1c-.2,0,-.3,.2,-.4,.3l-2.2,5.4c-.1,.2,0,.4,.1,.6c.1,.1,.2,.1,.4,.1m4.4,-2.9l-3.5,1.4l1.5,-3.5Z" class="gf_355"/>
<path d="M209.5,210.4l-2.9,-3l-21.2,21.2l2.9,3Z" class="gi_355"/>
<path d="M188.3,232.1c.2,0,.3,0,.4,-.1l21.2,-21.2c.1,-.1,.2,-.3,.2,-.4c0,-.2,-.1,-.3,-.2,-.4l-3,-3c-.2,-.2,-.5,-.2,-.7,0L185,228.3c-.1,.1,-.2,.2,-.2,.3c0,.2,.1,.3,.2,.4l3,3c.1,.1,.2,.1,.3,.1m20.5,-21.7l-20.5,20.4l-2.2,-2.2l20.5,-20.4Z" class="gf_355"/>
<path d="M32.1,45.1H9.2m958.3,0h22.9M32.1,1331.3H9.2m958.3,0h22.9M45.1,32.1V9.2m0,1335.1v22.9M954.5,32.1V9.2m0,1335.1v22.9" class="gj_355"/>
<path d="M32.1,45.1H9.2m958.3,0h22.9M32.1,1331.3H9.2m958.3,0h22.9M45.1,32.1V9.2m0,1335.1v22.9M954.5,32.1V9.2m0,1335.1v22.9" class="gk_355"/>
<path d="M27.5,32.1H0m972.1,0h27.5M27.5,1344.3H0m972.1,0h27.5M32.1,27.5V0m0,1348.9v27.5M967.5,27.5V0m0,1348.9v27.5" class="gj_355"/>
<path d="M27.5,32.1H0m972.1,0h27.5M27.5,1344.3H0m972.1,0h27.5M32.1,27.5V0m0,1348.9v27.5M967.5,27.5V0m0,1348.9v27.5" class="gk_355"/>
</svg>