<?xml version="1.0" encoding="UTF-8" standalone="no"?>
<!DOCTYPE svg PUBLIC "-//W3C//DTD SVG 1.1//EN"
"http://www.w3.org/Graphics/SVG/1.1/DTD/svg11.dtd">
<svg viewBox="0 0 999 1376" version="1.1" xmlns="http://www.w3.org/2000/svg" xmlns:xlink="http://www.w3.org/1999/xlink">
<defs>
<clipPath id="c0_175"><path d="M32.1,1344.3V32.1H967.5V1344.3Z"/></clipPath>
<clipPath id="c1_175"><path d="M186.9,436.1V339.6H845.8v96.5Z"/></clipPath>
<clipPath id="c2_175"><path d="M348.2,434.8V339.6H801.1v95.2Z"/></clipPath>
<clipPath id="c3_175"><path d="M667.8,434.8V339.6H828.9v95.2Z"/></clipPath>
<clipPath id="c4_175"><path d="M506.2,436.1V339.6H673.7v96.5Z"/></clipPath>
<clipPath id="c5_175"><path d="M186.9,575.2v-96H343v96Z"/></clipPath>
<clipPath id="c6_175"><path d="M355.2,575.6V479.2H749.1v96.4Z"/></clipPath>
<clipPath id="c7_175"><path d="M667.8,575.6V479.2H828.9v96.4Z"/></clipPath>
<clipPath id="c8_175"><path d="M506.2,576.5V479.2H673.7v97.3Z"/></clipPath>
<clipPath id="c9_175"><path d="M225.4,1059.4V978.8H312v80.6Z"/></clipPath>
<clipPath id="ca_175"><path d="M394.9,1059.4V984h90.9v75.4Z"/></clipPath>
<clipPath id="cb_175"><path d="M572.1,1054.6V984h82.2v70.6Z"/></clipPath>
<clipPath id="cc_175"><path d="M731.6,1059.4V984h69.3v75.4Z"/></clipPath>
<clipPath id="cd_175"><path d="M199.2,321.8l-6.5,-2.2L176.3,305.7V248.6h72v73.2Z"/></clipPath>
<clipPath id="ce_175"><path d="M219.2,912.1L212.7,910L196.3,896.1V839h72v73.1Z"/></clipPath>
<style type="text/css"><![CDATA[
.g0_175{
fill: #FEFCF4;
}
.g1_175{
fill: #FFF;
}
.g2_175{
fill: none;
stroke: #6381B7;
stroke-width: 0.763;
}
.g3_175{
fill: #FDF4F3;
}
.g4_175{
fill: none;
stroke: #C756A0;
stroke-width: 1.527;
}
.g5_175{
fill: #6381B7;
}
.g6_175{
fill: none;
stroke: #6381B7;
stroke-width: 0.381;
stroke-dasharray: 2,1;
}
.g7_175{
fill: none;
stroke: #6381B7;
stroke-width: 0.381;
}
.g8_175{
fill: #ABB2C9;
}
.g9_175{
fill: #EFE9CC;
}
.ga_175{
fill: #FCE8B0;
}
.gb_175{
fill: #2E6E51;
}
.gc_175{
fill: #BCBEC0;
}
.gd_175{
fill: #EE314A;
}
.ge_175{
fill: #AF292E;
}
.gf_175{
fill: #25408F;
}
.gg_175{
fill: #00BAF1;
}
.gh_175{
fill: #332D2C;
}
.gi_175{
fill: #D9DFF0;
}
.gj_175{
fill: #F27C85;
}
.gk_175{
fill: #7DD3F6;
}
.gl_175{
fill: none;
stroke: #FFF;
stroke-width: 1.909;
stroke-miterlimit: 10;
}
.gm_175{
fill: none;
stroke: #000;
stroke-width: 0.381;
stroke-miterlimit: 10;
}
]]></style>
</defs>
<path d="M45.1,1344.3H967.5V32.1H45.1V1344.3Z" class="g0_175"/>
<path clip-path="url(#c0_175)" d="M-877.3,1344.3H45.1V32.1H-877.3V1344.3Z" class="g0_175"/>
<path d="M172.1,220.3c0,0,-18.4,0,-18.4,18.3V665.1c0,0,0,18.4,18.4,18.4H849.2c0,0,18.3,0,18.3,-18.4V220.3Z" class="g1_175"/>
<path d="M172.1,220.3c0,0,-18.4,0,-18.4,18.3V665.1c0,0,0,18.4,18.4,18.4H849.2c0,0,18.3,0,18.3,-18.4V220.3H172.1Z" class="g2_175"/>
<path d="M171.7,697.6c0,0,-18.4,0,-18.4,18.3v91.8c0,0,0,18.3,18.4,18.3H849.6c0,0,18.3,0,18.3,-18.3V715.9c0,0,0,-18.3,-18.3,-18.3Z" class="g3_175"/>
<path d="M171.7,697.6c0,0,-18.4,0,-18.4,18.3v91.8c0,0,0,18.3,18.4,18.3H849.6c0,0,18.3,0,18.3,-18.3V715.9c0,0,0,-18.3,-18.3,-18.3H171.7Z" class="g4_175"/>
<path d="M186.9,436.1H845.8V339.6H186.9v96.5Z" class="g1_175"/>
<image clip-path="url(#c1_175)" preserveAspectRatio="none" x="111" y="-210" width="795" height="1114" xlink:href="img/1.jpg"/>
<path d="M348.2,434.8H801.1V339.6H348.2v95.2Z" class="g1_175"/>
<image clip-path="url(#c2_175)" preserveAspectRatio="none" x="272" y="-72" width="795" height="1114" xlink:href="img/2.jpg"/>
<path d="M667.8,434.8H828.9V339.6H667.8v95.2Z" class="g1_175"/>
<image clip-path="url(#c3_175)" preserveAspectRatio="none" x="433" y="-72" width="795" height="1114" xlink:href="img/3.jpg"/>
<path d="M506.2,436.1H673.7V339.6H506.2v96.5Z" class="g1_175"/>
<image clip-path="url(#c4_175)" preserveAspectRatio="none" x="272" y="-210" width="795" height="1114" xlink:href="img/4.jpg"/>
<path d="M186.9,575.2H343v-96H186.9v96Z" class="g1_175"/>
<image clip-path="url(#c5_175)" preserveAspectRatio="none" x="-208" y="-70" width="794" height="1114" xlink:href="img/5.jpg"/>
<path d="M355.2,575.6H801.1V479.2H355.2v96.4Z" class="g1_175"/>
<image clip-path="url(#c6_175)" preserveAspectRatio="none" x="-45" y="67" width="794" height="1115" xlink:href="img/6.jpg"/>
<path d="M667.8,575.6H828.9V479.2H667.8v96.4Z" class="g1_175"/>
<image clip-path="url(#c7_175)" preserveAspectRatio="none" x="111" y="67" width="795" height="1115" xlink:href="img/7.jpg"/>
<path d="M506.2,576.5H673.7V479.2H506.2v97.3Z" class="g1_175"/>
<image clip-path="url(#c8_175)" preserveAspectRatio="none" x="-48" y="-70" width="794" height="1114" xlink:href="img/8.jpg"/>
<path d="M676.3,474.2H826.8V438.5H676.3v35.7Z" class="g1_175"/>
<path d="M660.4,1210.5c0,0,-4.3,0,-4.3,4.3v10.9c0,0,0,4.3,4.3,4.3h30.3c0,0,4.4,0,4.4,-4.3v-10.9c0,0,0,-4.3,-4.4,-4.3Z" class="g5_175"/>
<path d="M647.2,1201.6v37.6m1.4,1H866.8m.9,-1.4v-37.5m-1.3,-1H648.2" class="g6_175"/>
<path d="M647.2,1239.6v.6h.6m219.3,0h.6v-.6m0,-38.7v-.6h-.6m-219.3,0h-.6v.6" class="g7_175"/>
<path d="M166.7,927.7c0,0,-13,0,-13,13v237.4c0,0,0,13,13,13H854.5c0,0,13,0,13,-13V940.7c0,0,0,-13,-13,-13Z" class="g1_175"/>
<path d="M166.7,927.7c0,0,-13,0,-13,13v237.4c0,0,0,13,13,13H854.5c0,0,13,0,13,-13V940.7c0,0,0,-13,-13,-13H166.7Z" class="g2_175"/>
<path d="M225.4,1059.4H312V978.8H225.4v80.6Z" class="g1_175"/>
<image clip-path="url(#c9_175)" preserveAspectRatio="none" x="89" y="813" width="767" height="1075" xlink:href="img/9.jpg"/>
<path d="M394.9,1059.4h90.9V984H394.9v75.4Z" class="g1_175"/>
<image clip-path="url(#ca_175)" preserveAspectRatio="none" x="258" y="729" width="766" height="1075" xlink:href="img/10.jpg"/>
<path d="M572.1,1054.6h82.2V984H572.1v70.6Z" class="g1_175"/>
<image clip-path="url(#cb_175)" preserveAspectRatio="none" x="429" y="643" width="767" height="1075" xlink:href="img/11.jpg"/>
<path d="M731.6,1059.4h69.3V984H731.6v75.4Z" class="g1_175"/>
<image clip-path="url(#cc_175)" preserveAspectRatio="none" x="589" y="558" width="766" height="1075" xlink:href="img/12.jpg"/>
<path d="M274.5,1074.8c2,0,3.6,-1.6,3.6,-3.6c0,-2,-1.6,-3.6,-3.6,-3.6c-2,0,-3.6,1.6,-3.6,3.6c0,2,1.6,3.6,3.6,3.6Z" class="g8_175"/>
<path d="M608,1074.8c2,0,3.6,-1.6,3.6,-3.6c0,-2,-1.6,-3.6,-3.6,-3.6c-2,0,-3.6,1.6,-3.6,3.6c0,2,1.6,3.6,3.6,3.6Z" class="g8_175"/>
<path d="M440,1074.8c2,0,3.6,-1.6,3.6,-3.6c0,-2,-1.6,-3.6,-3.6,-3.6c-2,0,-3.6,1.6,-3.6,3.6c0,2,1.6,3.6,3.6,3.6Z" class="g8_175"/>
<path d="M764.6,1074.8c2,0,3.6,-1.6,3.6,-3.6c0,-2,-1.6,-3.6,-3.6,-3.6c-2,0,-3.6,1.6,-3.6,3.6c0,2,1.6,3.6,3.6,3.6Z" class="g8_175"/>
<path d="M276.1,1130c2,0,3.6,-1.6,3.6,-3.6c0,-2,-1.6,-3.6,-3.6,-3.6c-2,0,-3.6,1.6,-3.6,3.6c0,2,1.6,3.6,3.6,3.6Z" class="g8_175"/>
<path d="M609.6,1130c2,0,3.6,-1.6,3.6,-3.6c0,-2,-1.6,-3.6,-3.6,-3.6c-2,0,-3.6,1.6,-3.6,3.6c0,2,1.6,3.6,3.6,3.6Z" class="g8_175"/>
<path d="M440,1130c2,0,3.6,-1.6,3.6,-3.6c0,-2,-1.6,-3.6,-3.6,-3.6c-2,0,-3.6,1.6,-3.6,3.6c0,2,1.6,3.6,3.6,3.6Z" class="g8_175"/>
<path d="M766.2,1130c2,0,3.6,-1.6,3.6,-3.6c0,-2,-1.6,-3.6,-3.6,-3.6c-2,0,-3.6,1.6,-3.6,3.6c0,2,1.6,3.6,3.6,3.6Z" class="g8_175"/>
<path d="M237.1,1139.4c0,0,-8.6,0,-8.6,8.7v15.1c0,0,0,8.7,8.6,8.7h69.3c0,0,8.7,0,8.7,-8.7v-15.1c0,0,0,-8.7,-8.7,-8.7Z" class="g9_175"/>
<path d="M576.4,1139.4c0,0,-8.7,0,-8.7,8.7v15.1c0,0,0,8.7,8.7,8.7h69.3c0,0,8.6,0,8.6,-8.7v-15.1c0,0,0,-8.7,-8.6,-8.7Z" class="g9_175"/>
<path d="M406.8,1139.4c0,0,-8.7,0,-8.7,8.7v15.1c0,0,0,8.7,8.7,8.7h69.3c0,0,8.6,0,8.6,-8.7v-15.1c0,0,0,-8.7,-8.6,-8.7Z" class="g9_175"/>
<path d="M733.6,1139.4c0,0,-8.7,0,-8.7,8.7v15.1c0,0,0,8.7,8.7,8.7h69.3c0,0,8.6,0,8.6,-8.7v-15.1c0,0,0,-8.7,-8.6,-8.7Z" class="g9_175"/>
<path d="M231.8,250.8c0,0,-13,0,-13,13v47.6c0,0,0,13,13,13h602c0,0,13,0,13,-13V263.8c0,0,0,-13,-13,-13Z" class="ga_175"/>
<image clip-path="url(#cd_175)" preserveAspectRatio="none" x="175" y="247" width="75" height="76" xlink:href="img/13.png"/>
<path d="M226.6,317c0,0,-26.9,11.3,-51.1,-12.7c0,0,15.1,25.3,49.3,23.9c0,0,24.7,.4,20.2,-10.1c0,0,1.2,-4.4,-18.4,-1.1Z" class="ga_175"/>
<path d="M251.8,867.1c0,0,-13,0,-13,13v21.7c0,0,0,13,13,13H853.9c0,0,13,0,13,-13V880.1c0,0,0,-13,-13,-13Z" class="ga_175"/>
<image clip-path="url(#ce_175)" preserveAspectRatio="none" x="195" y="837" width="75" height="77" xlink:href="img/14.png"/>
<path d="M246.6,907.4c0,0,-26.8,11.3,-51.1,-12.8c0,0,15.2,25.4,49.3,24c0,0,24.8,.4,20.2,-10.1c0,0,1.3,-4.5,-18.4,-1.1Z" class="ga_175"/>
<path d="M32.1,179.3H967.5V32.1H32.1V179.3Z" class="gb_175"/>
<g clip-path="url(#c0_175)">
<path d="M967.5,177.2H-877.3v-5.4h736.6c43.1,0,53.1,-37.9,115.3,-37.9H967.5Z" class="gc_175"/>
<path d="M967.5,183.7H-877.3v-9.8h736.6c43.1,0,53.1,-33.6,115.3,-33.6H967.5Z" class="gd_175"/>
</g>
<path d="M752.2,136.8H891.1V114.2H752.2v22.6Z" class="g1_175"/>
<path d="M891.4,137.1H752.2l-.3,-22.9l139.2,-.3Zm-.6,-22.9l-138.6,.2l.3,22.4l138.3,-.3Z" class="ge_175"/>
<path d="M752.1,136.8l-2.2,5.3H893.5l-2.3,-5.3Z" class="g1_175"/>
<path d="M893.9,142.4H749.4l2.4,-5.7l139.4,-.2Zm-143.6,-.5H893l-2,-5l-138.9,.2Z" class="ge_175"/>
<path d="M861.9,136.8l-2.8,5.3h32.7l-2.7,-5.3Z" class="g1_175"/>
<path d="M892.2,142.4H858.7l2.9,-5.7l27.5,-.2Zm-32.6,-.5h31.7l-2.5,-5l-26.9,.2Z" class="ge_175"/>
<path d="M869.7,136.8l-1.4,5.3h16.5l-1.4,-5.3Z" class="g1_175"/>
<path d="M885.1,142.4H868.3l1.1,-5.7l14,-.2Zm-1.9,-5.5l-13.5,.2l-1.1,5.1l15.9,-.3Z" class="ge_175"/>
<path d="M872.1,136.8l-.8,5.3h10.6l-.9,-5.3Z" class="g1_175"/>
<path d="M882.2,142.4H871.3l.6,-5.6l9.1,-.3Zm-1.5,-5.6l-8.6,.3l-.6,5.1l10.1,-.3Z" class="ge_175"/>
<path d="M807.4,136.8l-2.9,5.3h34.3L836,136.8Z" class="g1_175"/>
<path d="M839.3,142.4H804l3.1,-5.7l28.9,-.2Zm-34.4,-.5h33.5l-2.7,-5l-28.3,.2Z" class="ge_175"/>
<path d="M751.4,119.1H891.9v-5.3H751.4v5.3Z" class="g1_175"/>
<path d="M892.2,119.4H751.4l-.3,-5.6l140.8,-.3Zm-.6,-5.6l-140.2,.3l.3,5l139.9,-.2Z" class="ge_175"/>
<path d="M861.6,136.8h27.6V114.2H861.6v22.6Z" class="g1_175"/>
<path d="M889.4,137H861.6l-.2,-22.8l27.8,-.3Zm-.5,-22.8l-27.3,.3l.3,22.3l27,-.3Z" class="ge_175"/>
<path d="M881.3,136.8h2.8v-12h-2.8v12Z" class="g1_175"/>
<path d="M884.4,137h-3.1l-.2,-12.2l3,-.3Zm-.6,-12.2l-2.5,.3l.3,11.7l2.2,-.3Z" class="ge_175"/>
<path d="M869.2,136.8H872v-12h-2.8v12Z" class="g1_175"/>
<path d="M872.2,137h-3l-.3,-12.2l3.1,-.3Zm-.5,-12.2l-2.5,.3l.3,11.7l2.2,-.3Z" class="ge_175"/>
<path d="M814.4,136.8l-1.5,5.3h17.3l-1.4,-5.3Z" class="g1_175"/>
<path d="M830.6,142.4H812.9l1.2,-5.7l14.7,-.2Zm-2.1,-5.5l-14.1,.2l-1.2,5.1l16.6,-.3Z" class="ge_175"/>
<path d="M817.2,136.8l-.9,5.3h10.8l-.9,-5.3Z" class="g1_175"/>
<path d="M827.4,142.4H816.3l.6,-5.6l9.3,-.3Zm-1.5,-5.5l-8.7,.2l-.7,5.1l10.2,-.3Z" class="ge_175"/>
<path d="M807,136.8h29V114.2H807v22.6Z" class="g1_175"/>
<path d="M836.3,137.1H807l-.3,-22.9l29.3,-.3Zm-.6,-22.9l-28.7,.2l.3,22.4l28.4,-.3Z" class="ge_175"/>
<path d="M830.1,136.8h2.8v-12h-2.8v12Z" class="g1_175"/>
<path d="M833.2,137h-3.1l-.3,-12.2l3.1,-.3Zm-.6,-12.2l-2.5,.2l.3,11.8l2.2,-.3Z" class="ge_175"/>
<path d="M811,136.8h2.7v-12H811v12Z" class="g1_175"/>
<path d="M814,137h-3l-.3,-12.2l3,-.3Zm-.5,-12.2L811,125l.3,11.8l2.2,-.3Z" class="ge_175"/>
<path d="M814.6,136.8h14.1V108.7H814.6v28.1Z" class="g1_175"/>
<path d="M829,137.1H814.6l-.2,-28.4l14.3,-.3Zm-.6,-28.4l-13.8,.3l.3,27.8l13.5,-.3Z" class="ge_175"/>
<path d="M825.2,136.8h2.7v-12h-2.7v12Z" class="g1_175"/>
<path d="M828.2,137h-3l-.3,-12.2l3,-.3Zm-.6,-12.2l-2.4,.2l.3,11.8l2.1,-.3Z" class="ge_175"/>
<path d="M815.9,136.8h2.8v-12h-2.8v12Z" class="g1_175"/>
<path d="M819,137h-3.1l-.2,-12.2l3,-.3Zm-.6,-12.2l-2.5,.2l.3,11.8l2.2,-.3Z" class="ge_175"/>
<path d="M815.6,113.2l5.9,8.6l6.3,-8.6Z" class="g1_175"/>
<path d="M821.5,122.3L815,112.9h13.3Zm-5.4,-8.8l5.4,7.9l5.7,-7.9Z" class="ge_175"/>
<path d="M872.6,142.1h7.8v-28h-7.8v28Z" class="g1_175"/>
<path d="M880.6,142.4h-8l-.3,-28.3l8.1,-.2Zm-.5,-28.3l-7.5,.3l.2,27.7l7.3,-.2Z" class="ge_175"/>
<path d="M873.8,142.1H879v-28h-5.2v28Z" class="g1_175"/>
<path d="M879.3,142.4h-5.5l-.2,-28.3l5.4,-.2Zm-.5,-28.3l-5,.3l.3,27.7l4.7,-.2Z" class="ge_175"/>
<path d="M754,136.8l-2.8,5.3h32.7l-2.7,-5.3Z" class="g1_175"/>
<path d="M784.4,142.4H750.8l2.9,-5.7l27.5,-.2Zm-32.7,-.5h31.8l-2.6,-5l-26.9,.2Z" class="ge_175"/>
<path d="M760.5,136.8l-1.3,5.3h15.4l-1.3,-5.3Z" class="g1_175"/>
<path d="M774.9,142.4H759.2l1,-5.7l13.1,-.2ZM773,136.9l-12.5,.2l-1,5.1l14.7,-.3Z" class="ge_175"/>
<path d="M762.8,136.8l-.8,5.3h9.8l-.8,-5.3Z" class="g1_175"/>
<path d="M772.1,142.4H762l.5,-5.6l8.5,-.3Zm-1.4,-5.6l-7.9,.3l-.6,5.1l9.3,-.3Z" class="ge_175"/>
<path d="M753.8,136.8h27.3V114.2H753.8v22.6Z" class="g1_175"/>
<path d="M781.4,137.1H753.8l-.3,-22.9l27.6,-.3Zm-.6,-22.9l-27,.2l.2,22.4l26.8,-.3Z" class="ge_175"/>
<path d="M759.1,136.8h2.7v-12h-2.7v12Z" class="g1_175"/>
<path d="M762.1,137h-3l-.3,-12.2l3,-.3Zm-.5,-12.2l-2.5,.3l.3,11.7l2.2,-.3Z" class="ge_175"/>
<path d="M771.8,136.8h2.7v-12h-2.7v12Z" class="g1_175"/>
<path d="M774.8,137h-3l-.3,-12.2l3,-.3Zm-.6,-12.2l-2.4,.3l.2,11.7l2.2,-.3Z" class="ge_175"/>
<path d="M763.1,142.1h7.8v-28h-7.8v28Z" class="g1_175"/>
<path d="M771.2,142.4h-8.1l-.2,-28.3l8,-.2Zm-.5,-28.3l-7.6,.3l.3,27.7l7.3,-.2Z" class="ge_175"/>
<path d="M764.4,142.1h5.2v-28h-5.2v28Z" class="g1_175"/>
<path d="M769.9,142.4h-5.5l-.3,-28.3l5.5,-.2Zm-.6,-28.3l-4.9,.3l.3,27.7l4.6,-.2Z" class="ge_175"/>
<path d="M749.9,114.1H893.5v-5.3H749.9v5.3Z" class="g1_175"/>
<path d="M893.7,114.4H749.9l-.3,-5.6l143.9,-.3Zm-.5,-5.6l-143.3,.3l.2,5.1l143.1,-.3Z" class="ge_175"/>
<path d="M745.9,147.6h151v-6.8h-151v6.8Z" class="g1_175"/>
<path d="M897.1,147.9H745.9l-.3,-7.1l151.3,-.3Zm-.5,-7.1l-150.7,.3l.2,6.5l150.5,-.2Z" class="ge_175"/>
<path d="M743.6,149.1H899.2v-6.8H743.6v6.8Z" class="g1_175"/>
<path d="M899.4,149.4H743.6l-.3,-7.1L899.2,142Zm-.5,-7.1l-155.3,.2l.2,6.6l155.1,-.3Z" class="ge_175"/>
<path d="M739.5,153H903.8v-6.8H739.5V153Z" class="g1_175"/>
<path d="M904.1,153.3H739.5l-.2,-7.1l164.5,-.3Zm-.6,-7.1l-164,.3l.3,6.5l163.7,-.2Z" class="ge_175"/>
<path d="M733.8,157.9H909.5v-6.8H733.8v6.8Z" class="g1_175"/>
<path d="M909.8,158.2h-176l-.3,-7.1l176,-.3Zm-.5,-7.1l-175.5,.3l.2,6.5l175.3,-.2Z" class="ge_175"/>
<path d="M728.1,164.7H915.3V158H728.1v6.7Z" class="g1_175"/>
<path d="M915.6,165H728.1l-.3,-7l187.5,-.3Zm-.6,-7l-186.9,.2l.2,6.5L915,164.5Z" class="ge_175"/>
<path d="M763.1,164.8h7.8v-24h-7.8v24Z" class="g1_175"/>
<path d="M771.2,165.1h-8.1l-.2,-24.3l8,-.3Zm-.5,-24.3l-7.6,.3l.3,23.7l7.3,-.3Z" class="ge_175"/>
<path d="M764.4,164.8h5.2v-24h-5.2v24Z" class="g1_175"/>
<path d="M769.9,165.1h-5.5l-.2,-24.3l5.4,-.3Zm-.5,-24.3l-5,.3l.3,23.7l4.7,-.3Z" class="ge_175"/>
<path d="M872.4,164.8h7.8v-24h-7.8v24Z" class="g1_175"/>
<path d="M880.5,165.1h-8.1l-.3,-24.3l8.1,-.3Zm-.6,-24.3l-7.5,.3l.3,23.7l7.2,-.3Z" class="ge_175"/>
<path d="M873.7,164.8h5.2v-24h-5.2v24Z" class="g1_175"/>
<path d="M879.2,165.1h-5.5l-.3,-24.3l5.5,-.3Zm-.6,-24.3l-4.9,.3l.3,23.7l4.6,-.3Z" class="ge_175"/>
<path d="M818.8,164.8H825V114.1h-6.2v50.7Z" class="g1_175"/>
<path d="M825.3,165.1h-6.5l-.3,-50.9l6.5,-.3Zm-.5,-50.9l-6,.2l.2,50.4l5.8,-.3Z" class="ge_175"/>
<path d="M863.4,114.4l.1,-13.9c0,0,1.4,2.7,12.3,3.3c10.2,-.3,11.9,-2,12.4,-3.5l-.4,14.1Z" class="g1_175"/>
<path d="M888.1,114.7H863.4l-.2,-14.2V99.4l.5,1c0,0,1.6,2.6,12.1,3.1c10,-.3,11.7,-1.9,12.2,-3.3l.5,.1ZM863.8,101.2l-.1,13.2l23.8,-.2l.4,-12.8c-1.1,1.3,-4,2.4,-12.1,2.7c-8,-.4,-11,-2,-12,-2.9Z" class="ge_175"/>
<path d="M870.4,98.1l-3.3,-2.7c1.1,-.7,3.2,.5,3.2,.5c0,0,1.1,-3.1,5.9,-4.4c4.8,1.3,5.9,4.4,5.9,4.4c0,0,2.1,-1.2,3.2,-.5L882,98.1Z" class="g1_175"/>
<path d="M882.1,98.4H870.4l-3.5,-2.8c.3,-.6,.7,-.7,1,-.7c1.1,0,2.2,.6,2.5,.7c-.2,-.3,1.1,-3.1,5.7,-4.4c4.6,1.2,6,3.9,6.2,4.5c.2,-.4,2.2,-1.1,3.2,-.5ZM867.9,95.5c-.2,0,-.5,0,-.7,.1l3.4,2.3l11.3,-.1l2.9,-2.3c-.1,0,-.2,0,-.3,0c-1,0,-2.2,.6,-2.2,.6c-.4,-.1,-1.6,-3.1,-6.2,-4.4C871.7,93,870.6,96,870.5,96c-.4,.1,-1.6,-.5,-2.6,-.5Z" class="ge_175"/>
<path d="M868.7,105.2l-4.4,-3.8c1.5,-1,4.2,.7,4.2,.7c0,0,1.5,-4.4,7.7,-6.2c6.3,1.8,7.7,6.2,7.7,6.2c0,0,2.7,-1.7,4.2,-.7l-4.4,3.8Z" class="g1_175"/>
<path d="M883.8,105.5H868.7l-4.6,-3.9c.4,-.7,.9,-.8,1.4,-.8c1.4,0,2.9,.9,3.1,1c-.2,-.3,1.4,-4.4,7.5,-6.2c6,1.7,7.8,5.6,8,6.3c.2,-.5,2.9,-1.6,4.1,-.8Zm-18.3,-4.2c-.4,0,-.8,.1,-1,.3l4.4,3.4l14.7,-.1l4.2,-3.6c-.3,.1,-.5,0,-.9,0c-1.3,0,-2.8,1,-2.8,1c-.5,-.2,-2,-4.4,-8,-6.2c-5.8,1.8,-7.3,6,-7.4,6.1c-.4,.1,-1.9,-.9,-3.2,-.9Z" class="ge_175"/>
<path d="M876.3,76.8c.1,0,5.2,9.2,0,9.4c-5.3,.1,0,-9.1,0,-9.4Z" class="g1_175"/>
<path d="M876.1,86.5c-.9,0,-1.6,-.4,-2,-1c-1.3,-2,.9,-6.5,1.7,-8.2c.1,-.3,.2,-.4,.2,-.5c.1,0,.2,0,.3,0h.2q0,.1,0,.2c.9,1,2.4,4.5,2.4,6.6c0,1.8,-.9,2.8,-2.6,2.9Zm.2,-9.1q0,.1,0,.1c-.7,1.5,-2.9,5.9,-1.8,7.7c.3,.5,.9,.7,1.6,.7v.3l.2,-.3c.9,0,1.5,-.4,1.8,-1.1c.9,-1.9,-1,-6.1,-1.8,-7.4Z" class="ge_175"/>
<path d="M871.8,88.5l-2.5,-1.4c.8,-.4,2.4,.2,2.4,.2c0,0,.9,-1.6,4.6,-2.3c3.7,.7,4.5,2.3,4.5,2.3c0,0,1.7,-.6,2.5,-.2l-2.6,1.4Z" class="g1_175"/>
<path d="M880.8,88.8h-9L868.6,87l.6,-.2c.7,-.3,2.3,.1,2.6,.3c-.1,-.2,.9,-1.7,4.4,-2.4c3.5,.7,4.6,2.1,4.8,2.4c.1,-.2,1.7,-.6,2.4,-.3l.5,.2ZM870.1,87.2l1.9,1.1l8.6,-.1l1.8,-1c-.7,.1,-1.5,.4,-1.5,.4c-.3,-.2,-1.2,-1.7,-4.7,-2.3c-3.3,.6,-4.2,2.1,-4.2,2.2c-.3,.1,-1.1,-.2,-1.9,-.3Z" class="ge_175"/>
<path d="M874,89.7l-.1,-1.2c0,0,.5,-1.6,2.4,-2.3c1.9,.7,2.3,2.3,2.3,2.3v1.2Z" class="g1_175"/>
<path d="M878.8,90H874l-.3,-1.5c0,-.1,.5,-1.9,2.5,-2.6c2.2,.7,2.7,2.5,2.7,2.5Zm-2.6,-3.6c-1.5,.6,-2,2.1,-2,2.2l.1,1.1l4,-.3v-.9c0,0,-.4,-1.5,-2.1,-2.1Z" class="ge_175"/>
<path d="M871.7,93.2l-.1,-1.6c0,0,.9,-2.2,4.7,-3.1c3.8,.9,4.7,3.1,4.7,3.1l-.2,1.6Z" class="g1_175"/>
<path d="M881.1,93.4h-9.4l-.4,-1.8c.1,-.2,1,-2.4,4.9,-3.4c4,1,5,3.2,5,3.3Zm-4.9,-4.6c-3.4,.8,-4.3,2.9,-4.4,2.9l.2,1.4l8.6,-.2l.1,-1.3c0,0,-1,-2,-4.5,-2.8Z" class="ge_175"/>
<path d="M871.7,95.5l-.1,-1.6c0,0,.9,-2.1,4.7,-3.1c3.8,1,4.7,3.1,4.7,3.1l-.2,1.6Z" class="g1_175"/>
<path d="M881.1,95.8h-9.4L871.3,94c.1,-.3,1,-2.5,4.9,-3.4c4,.9,5,3.1,5,3.2Zm-4.9,-4.7c-3.4,.9,-4.3,2.9,-4.4,3l.2,1.4l8.6,-.3l.1,-1.3c0,0,-1,-1.9,-4.5,-2.8Z" class="ge_175"/>
<path d="M871.8,102.5l-2.5,-3.8c.8,-1,2.4,.7,2.4,.7c0,0,.9,-4.4,4.6,-6.2c3.7,1.8,4.5,6.2,4.5,6.2c0,0,1.7,-1.7,2.5,-.7l-2.6,3.8Z" class="g1_175"/>
<path d="M880.9,102.8h-9.1l-2.8,-4c.7,-1.7,2,-.4,2.6,.1c.3,-1.2,1.5,-4.4,4.6,-6c3.3,1.6,4.5,4.8,4.8,6c.6,-.5,1.9,-1.1,2.5,-.4Zm-11,-4.1c-.2,0,-.3,0,-.4,.2l2.6,3.4l8.5,-.1L883,98.6c-.1,.1,-.2,.1,-.4,.1c-.5,0,-1.3,.6,-1.6,.9l-.3,.4l-.1,-.6c0,0,-.9,-4.2,-4.4,-6c-3.3,1.8,-4.2,6,-4.2,6l-.1,.6l-.4,-.4c-.2,-.3,-1,-.9,-1.6,-.9Z" class="ge_175"/>
<path d="M871.8,107.2l-2.5,-3.9c.8,-.9,2.4,.7,2.4,.7c0,0,.9,-4.3,4.6,-6.2c3.7,1.9,4.5,6.2,4.5,6.2c0,0,1.7,-1.6,2.5,-.7l-2.6,3.9Z" class="g1_175"/>
<path d="M880.9,107.4h-9.1L869,103.5c.7,-1.7,2,-.5,2.6,0c.3,-1.2,1.5,-4.4,4.6,-5.9c3.3,1.5,4.5,4.7,4.8,5.9c.6,-.5,1.9,-1.1,2.5,-.3Zm-11,-4.1c-.2,0,-.3,.1,-.4,.2l2.6,3.5l8.5,-.1l2.4,-3.7c-.1,.2,-.2,.1,-.4,.1c-.5,0,-1.3,.7,-1.6,.9l-.3,.4l-.1,-.5c0,0,-.9,-4.3,-4.4,-6c-3.3,1.7,-4.2,6,-4.2,6l-.1,.5l-.4,-.4c-.2,-.2,-1,-.9,-1.6,-.9Z" class="ge_175"/>
<path d="M871.7,114.2l-.1,-3.9c0,0,.9,-5.5,4.7,-7.8c3.8,2.3,4.7,7.8,4.7,7.8l-.2,3.9Z" class="g1_175"/>
<path d="M881.1,114.4h-9.4l-.4,-4.1c.1,-.3,1,-5.7,4.8,-8c4.2,2.3,5.1,7.7,5.2,7.9Zm-5,-11.7c-3.3,2.2,-4.2,7.5,-4.2,7.6l.1,3.8l8.6,-.2l.1,-3.7c0,0,-.9,-5.3,-4.6,-7.5Z" class="ge_175"/>
<path d="M871.8,114.2l-2.5,-2.9c.8,-.8,2.4,.5,2.4,.5c0,0,.9,-3.3,4.6,-4.6c3.7,1.3,4.5,4.6,4.5,4.6c0,0,1.7,-1.3,2.5,-.5l-2.6,2.9Z" class="g1_175"/>
<path d="M880.8,114.4h-9l-2.7,-2.9c.2,-.6,.5,-.7,.8,-.7c.7,0,1.3,.3,1.7,.6c.3,-1,1.5,-3.4,4.6,-4.5c3.2,1.1,4.4,3.5,4.8,4.5c.6,-.4,1.8,-.9,2.5,-.3Zm-10.9,-3.1c-.2,0,-.3,.1,-.5,.2l2.7,2.5l8.5,-.1l2.3,-2.6c-.1,0,-.2,0,-.3,0c-.6,0,-1.3,.5,-1.6,.7l-.3,.3l-.1,-.4c0,0,-.9,-3.2,-4.4,-4.5c-3.3,1.3,-4.2,4.5,-4.2,4.5l-.1,.4l-.3,-.3c0,0,-.9,-.7,-1.7,-.7Z" class="ge_175"/>
<path d="M761.3,97.1L758,94.4c1.1,-.7,3.2,.5,3.2,.5c0,0,1.1,-3.1,5.9,-4.4c4.8,1.3,5.9,4.4,5.9,4.4c0,0,2.1,-1.2,3.2,-.5l-3.3,2.7Z" class="g1_175"/>
<path d="M773,97.4H761.3l-3.5,-2.8c.3,-.6,.6,-.7,1,-.7c1.1,0,2.2,.6,2.5,.8c-.2,-.3,1.1,-3.2,5.7,-4.5c4.6,1.2,6,3.9,6.2,4.5c.2,-.4,2.2,-1.1,3.2,-.5ZM758.8,94.5c-.2,0,-.5,0,-.7,.1l3.4,2.3h11.3l2.9,-2.4c-.1,0,-.2,0,-.3,0c-1,0,-2.2,.6,-2.2,.7C772.8,95,771.6,92,767,90.7C762.6,92,761.5,95,761.4,95c-.4,.1,-1.6,-.5,-2.6,-.5Z" class="ge_175"/>
<path d="M759.6,104.2l-4.4,-3.8c1.5,-1,4.2,.7,4.2,.7c0,0,1.5,-4.4,7.7,-6.2c6.3,1.8,7.7,6.2,7.7,6.2c0,0,2.7,-1.7,4.2,-.7l-4.4,3.8Z" class="g1_175"/>
<path d="M774.7,104.5H759.6l-4.5,-3.9c.3,-.7,.8,-.8,1.3,-.8c1.4,0,2.9,.9,3.1,1c-.2,-.3,1.4,-4.4,7.5,-6.2c6,1.7,7.8,5.6,8,6.3c.2,-.5,2.9,-1.6,4.1,-.8Zm-18.3,-4.2c-.4,0,-.8,.1,-1,.3l4.4,3.4l14.7,-.1l4.2,-3.6c-.2,.1,-.5,0,-.8,0c-1.4,0,-2.9,1,-2.9,1c-.5,-.2,-1.9,-4.4,-8,-6.2c-5.8,1.8,-7.3,6,-7.3,6.1c-.4,.2,-2,-.9,-3.3,-.9Z" class="ge_175"/>
<path d="M755.2,114.4l.1,-13.9c0,0,1.4,2.7,12.3,3.3c10.3,-.3,12,-2,12.4,-3.5l-.4,14.1Z" class="g1_175"/>
<path d="M779.9,114.7H755.2L755,100.5l.1,-1.1l.5,1c0,0,1.5,2.6,12,3.1c10,-.3,11.8,-1.9,12.2,-3.3l.5,.1ZM755.6,101.2l-.1,13.2l23.8,-.2l.4,-12.8c-1.1,1.3,-4,2.4,-12.1,2.7c-8,-.4,-11,-2,-12,-2.9Z" class="ge_175"/>
<path d="M767,76.8c.2,0,5.3,9.2,0,9.4c-5.2,.1,0,-9.1,0,-9.4Z" class="g1_175"/>
<path d="M766.9,86.5c-1,0,-1.7,-.4,-2.1,-1c-1.2,-2,.9,-6.5,1.7,-8.2c.1,-.3,.2,-.4,.2,-.5c.1,0,.2,0,.3,0h.3q0,.1,-.1,.2c1,1,2.4,4.5,2.4,6.6c.1,1.8,-.8,2.8,-2.6,2.9Zm.2,-9.1c0,.1,-.1,.1,-.1,.1c-.7,1.5,-2.8,5.9,-1.7,7.7c.3,.5,.8,.7,1.6,.7v.3l.1,-.3c1,0,1.6,-.4,1.9,-1.1c.8,-1.9,-1.1,-6.1,-1.8,-7.4Z" class="ge_175"/>
<path d="M762.6,88.5L760,87.1c.9,-.4,2.5,.2,2.5,.2c0,0,.8,-1.6,4.5,-2.3c3.7,.7,4.6,2.3,4.6,2.3c0,0,1.6,-.6,2.5,-.2l-2.6,1.4Z" class="g1_175"/>
<path d="M771.5,88.8h-8.9L759.4,87l.5,-.2c.8,-.3,2.3,.1,2.6,.3c-.1,-.2,1,-1.7,4.5,-2.4c3.4,.7,4.5,2.1,4.8,2.4c.1,-.2,1.6,-.6,2.4,-.3l.5,.2ZM760.9,87.2l1.8,1.1l8.7,-.1l1.8,-1c-.7,.1,-1.5,.4,-1.5,.4c-.4,-.2,-1.2,-1.7,-4.7,-2.3c-3.4,.6,-4.3,2.1,-4.3,2.2c-.3,.1,-1.1,-.2,-1.8,-.3Z" class="ge_175"/>
<path d="M764.8,89.7l-.1,-1.2c0,0,.4,-1.6,2.3,-2.3c1.9,.7,2.4,2.3,2.4,2.3l-.1,1.2Z" class="g1_175"/>
<path d="M769.6,90h-4.8l-.4,-1.5c0,-.1,.5,-1.9,2.5,-2.6c2.2,.7,2.7,2.5,2.7,2.5Zm-2.7,-3.6c-1.5,.6,-1.9,2.1,-1.9,2.2v1.1l4,-.3l.1,-.9c0,0,-.4,-1.5,-2.2,-2.1Z" class="ge_175"/>
<path d="M762.5,93.2l-.2,-1.6c0,0,.9,-2.2,4.7,-3.1c3.8,.9,4.7,3.1,4.7,3.1l-.1,1.6Z" class="g1_175"/>
<path d="M771.8,93.4h-9.3l-.4,-1.8c0,-.2,1,-2.4,4.9,-3.4c4,1,4.9,3.2,5,3.3ZM767,88.8c-3.5,.8,-4.4,2.9,-4.4,2.9l.2,1.4l8.5,-.2l.1,-1.3c0,0,-.9,-2,-4.4,-2.8Z" class="ge_175"/>
<path d="M762.5,95.5l-.2,-1.6c0,0,.9,-2.1,4.7,-3.1c3.8,1,4.7,3.1,4.7,3.1l-.1,1.6Z" class="g1_175"/>
<path d="M771.8,95.8h-9.3L762.1,94c0,-.3,1,-2.5,4.9,-3.4c4,.9,4.9,3.1,5,3.2ZM767,91.1c-3.5,.9,-4.4,2.9,-4.4,3l.2,1.4l8.5,-.3l.1,-1.3c0,0,-.9,-1.9,-4.4,-2.8Z" class="ge_175"/>
<path d="M762.6,102.5L760,98.7c.9,-1,2.5,.7,2.5,.7c0,0,.8,-4.4,4.5,-6.2c3.7,1.8,4.6,6.2,4.6,6.2c0,0,1.6,-1.7,2.5,-.7l-2.6,3.8Z" class="g1_175"/>
<path d="M771.6,102.8h-9l-2.8,-4c.7,-1.7,1.9,-.4,2.5,.1c.4,-1.2,1.5,-4.4,4.6,-6c3.3,1.6,4.5,4.8,4.8,6c.6,-.5,1.9,-1.1,2.6,-.4ZM760.7,98.7c-.2,0,-.4,0,-.5,.2l2.6,3.4l8.5,-.1l2.5,-3.6c-.1,.1,-.2,.1,-.4,.1c-.6,0,-1.4,.6,-1.6,.9l-.4,.4l-.1,-.6c0,0,-.9,-4.2,-4.4,-6c-3.3,1.8,-4.1,6,-4.2,6l-.1,.6l-.3,-.4c-.3,-.3,-1,-.9,-1.6,-.9Z" class="ge_175"/>
<path d="M762.6,107.2L760,103.3c.9,-.9,2.5,.7,2.5,.7c0,0,.8,-4.3,4.5,-6.2c3.7,1.9,4.6,6.2,4.6,6.2c0,0,1.6,-1.6,2.5,-.7l-2.6,3.9Z" class="g1_175"/>
<path d="M771.6,107.4h-9l-2.8,-3.9c.7,-1.7,1.9,-.5,2.5,0c.4,-1.2,1.5,-4.4,4.6,-5.9c3.3,1.5,4.5,4.7,4.8,5.9c.6,-.5,1.9,-1.1,2.6,-.3Zm-10.9,-4.1c-.2,0,-.4,.1,-.5,.2l2.6,3.5l8.5,-.1l2.5,-3.7c-.1,.2,-.3,.1,-.4,.1c-.6,0,-1.4,.7,-1.6,.9l-.4,.4l-.1,-.5c0,0,-.9,-4.3,-4.4,-6c-3.3,1.7,-4.1,6,-4.2,6l-.1,.5l-.3,-.4c-.3,-.2,-1,-.9,-1.6,-.9Z" class="ge_175"/>
<path d="M762.5,114.2l-.2,-3.9c0,0,.9,-5.5,4.7,-7.8c3.8,2.3,4.7,7.8,4.7,7.8l-.1,3.9Z" class="g1_175"/>
<path d="M771.9,114.4h-9.4l-.4,-4.1c0,-.3,.9,-5.7,4.8,-8c4.1,2.3,5,7.7,5.1,7.9Zm-5,-11.7c-3.4,2.2,-4.3,7.5,-4.3,7.6l.2,3.8l8.5,-.2l.1,-3.7c0,0,-.9,-5.3,-4.5,-7.5Z" class="ge_175"/>
<path d="M762.6,114.2L760,111.3c.9,-.8,2.5,.5,2.5,.5c0,0,.8,-3.3,4.5,-4.6c3.7,1.3,4.6,4.6,4.6,4.6c0,0,1.6,-1.3,2.5,-.5l-2.6,2.9Z" class="g1_175"/>
<path d="M771.6,114.4h-9l-2.8,-2.9c.3,-.6,.5,-.7,.9,-.7c.6,0,1.3,.3,1.6,.6c.4,-1,1.5,-3.4,4.6,-4.5c3.3,1.1,4.5,3.5,4.8,4.5c.6,-.4,1.9,-.9,2.5,-.3Zm-10.9,-3.1c-.2,0,-.4,.1,-.5,.2l2.6,2.5l8.5,-.1l2.4,-2.6c-.1,0,-.2,0,-.3,0c-.7,0,-1.6,.7,-1.6,.7l-.4,.3l-.1,-.4c0,0,-.9,-3.2,-4.4,-4.5c-3.3,1.3,-4.2,4.5,-4.2,4.5l-.1,.4l-.3,-.3c0,0,-.9,-.7,-1.6,-.7Z" class="ge_175"/>
<path d="M805.8,107.9h31.8c1.5,0,2.8,1.3,2.8,2.9c0,1.5,-1.3,2.8,-2.8,2.8H805.8c-1.6,0,-2.9,-1.3,-2.9,-2.8c0,-1.6,1.3,-2.9,2.9,-2.9Z" class="g1_175"/>
<path d="M837.6,113.9H805.8c-1.7,0,-3.2,-1.4,-3.2,-3.1c0,-1.8,1.5,-3.2,3.2,-3.2h31.8c1.7,0,3.1,1.4,3.1,3.2c0,1.7,-1.4,3.1,-3.1,3.1m-31.8,-5.7c-1.5,0,-2.6,1.1,-2.6,2.6c0,1.4,1.1,2.6,2.6,2.6h31.8c1.4,0,2.5,-1.2,2.5,-2.6c0,-1.5,-1.1,-2.6,-2.5,-2.6Z" class="ge_175"/>
<path d="M840.9,111.3l.3,-18.9c0,0,-.8,4.6,-2.9,4.6H805c-2.1,0,-2.8,-4.6,-2.8,-4.6l.2,18.9Z" class="g1_175"/>
<path d="M841.2,111.6H802.4l-.5,-19.2l.5,-.1c.2,1.3,1.1,4.4,2.6,4.4h33.3c1.6,0,2.4,-3.1,2.6,-4.4l.5,.1Zm-38.8,-17l.3,16.7l38,-.3l.2,-16.4c-.5,1.3,-1.3,2.7,-2.6,2.7H805c-1.3,0,-2.1,-1.4,-2.6,-2.7Z" class="ge_175"/>
<path d="M833.6,102.7V96.5c0,0,4.2,-1.1,3.6,-2.7c-.6,-1.6,-5.6,2,-5.6,2H811.7c0,0,-5,-3.6,-5.6,-2c-.6,1.6,3.6,2.7,3.6,2.7l.1,6.2Z" class="g1_175"/>
<path d="M833.8,103h-24l-.4,-6.5c-.1,.2,-2.8,-.6,-3.5,-1.8c-.1,-.4,-.2,-.7,-.1,-1c.1,-.2,.3,-.6,1,-.6c1.6,0,4.9,2.4,5,2.5l19.8,-.1c0,0,3.3,-2.4,4.9,-2.4c.7,0,.9,.4,1,.6c.1,.3,.1,.6,-.1,1c-.7,1.3,-3.6,2.1,-3.7,2.1l.1,5.9Zm-27,-9.4c-.3,0,-.4,.2,-.4,.3c-.1,.2,-.1,.3,0,.5c.5,.9,2.6,1.6,3.4,1.9l.2,6.4l23.3,-.3l.1,-5.9c.9,-.5,3,-1.2,3.5,-2.1c.1,-.2,.1,-.3,0,-.5c0,-.1,-.1,-.3,-.4,-.3c-1.2,0,-3.8,1.8,-4.7,2.4l-20.1,.1c-1.1,-.7,-3.7,-2.5,-4.9,-2.5Z" class="ge_175"/>
<path d="M835.9,108l.1,-6.5c0,0,5,-.8,4.3,-2.4c-.7,-1.6,-6.7,2,-6.7,2H809.7c0,0,-6,-3.6,-6.7,-2c-.7,1.6,4.3,2.4,4.3,2.4l.1,6.5Z" class="g1_175"/>
<path d="M836.2,108.3H807.4l-.4,-6.8c-.1,.2,-3.5,-.3,-4.2,-1.6c-.2,-.3,-.2,-.6,-.1,-.9c.2,-.3,.4,-.6,1.1,-.6c1.9,0,5.8,2.4,6,2.5h23.8c.1,-.1,4,-2.5,5.9,-2.5c.7,0,1,.3,1.1,.6c.1,.3,.1,.6,-.1,.9c-.7,1.3,-4,1.8,-4.4,1.9l.1,6.2ZM803.8,99c-.4,0,-.5,.2,-.6,.2c.5,1.3,3.2,1.9,4.1,2l.3,6.8l28.1,-.2l.1,-6.3c1.1,-.4,3.8,-1,4.2,-1.9c0,-2.2,-6.2,1.8,-6.2,1.8H809.7c-.2,0,-4.1,-2.4,-5.9,-2.4Z" class="ge_175"/>
<path d="M825.1,74.7l.1,-2.6c-3,0,-2.2,-2.8,-2.2,-3.9c.8,-1.1,1.1,-3.2,-1.3,-4.3c-2.4,1.2,-2.2,3.2,-1.3,4.2c0,1.2,.9,4,-2.3,4v2.6Z" class="g1_175"/>
<path d="M825.4,75h-7.3l-.3,-2.9c1.1,-.3,1.7,-.4,2,-.8c.6,-.6,.4,-1.6,.3,-2.4c0,-.3,0,-.6,0,-.8c-.5,-.4,-.7,-1.3,-.6,-2.1c.2,-.6,.6,-1.6,2,-2.3c1.7,.6,2.1,1.5,2.3,2.2c.2,.8,-.1,1.8,-.6,2.5c0,0,0,.2,0,.4c-.1,.8,-.1,1.9,.4,2.5c.3,.4,.9,.5,1.6,.5l.2,2.9ZM821.5,64.2c-.7,.5,-1.3,1.1,-1.4,1.9c-.1,.7,0,1.3,.5,1.8c0,.4,.1,.6,.1,.9c.1,.9,.2,2.1,-.5,2.8c-.4,.5,-1.1,.8,-2.1,.8l.3,2.3l6.5,-.2V72.1c-.6,.3,-1.3,.1,-1.7,-.4c-.7,-.8,-.6,-2.1,-.5,-2.9v-.6c.4,-.6,.7,-1.4,.5,-2.2c-.1,-.8,-.7,-1.4,-1.7,-1.8Z" class="ge_175"/>
<path d="M830.1,91.7v-5c0,0,3,-1,2.6,-2.3c-.4,-1.3,-4,1.6,-4,1.6H814.6c0,0,-3.6,-2.9,-4,-1.6c-.4,1.3,2.6,2.3,2.6,2.3v5Z" class="g1_175"/>
<path d="M830.4,92H813.2l-.3,-5.3c-.1,.1,-3,-.9,-2.5,-2.4c.1,-.3,.3,-.5,.7,-.5c1.2,0,3.4,1.8,3.7,2h13.9c.1,-.2,2.3,-2,3.5,-2c.4,0,.6,.2,.7,.5c.5,1.5,-2.3,2.5,-2.7,2.7l.2,4.7ZM811.1,84.3c-.5,1,1.5,1.9,2.2,2.1l.2,5.3l16.3,-.3l.1,-4.7c.8,-.5,2.8,-1.4,2.5,-2.2c-1,-.3,-2.9,1.2,-3.5,1.8H814.6c-.8,-.6,-2.7,-2,-3.5,-2Z" class="ge_175"/>
<path d="M831.8,96V90.7c0,0,3.6,-.6,3.1,-2c-.5,-1.3,-4.8,1.7,-4.8,1.7H813.2c0,0,-4.3,-3,-4.8,-1.7c-.4,1.4,3.1,2,3.1,2V96Z" class="g1_175"/>
<path d="M832.1,96.3H811.5l-.3,-5.6c0,.2,-2.4,-.2,-3,-1.2c-.1,-.3,-.1,-.6,0,-.9c.1,-.2,.3,-.5,.8,-.5c1.4,0,4.2,2,4.3,2.1l16.8,-.1c0,0,2.8,-2,4.2,-2c.6,0,.8,.3,.8,.5c.1,.3,.1,.6,0,.9c-.6,1,-2.9,1.4,-3.2,1.5l.2,5ZM809,88.7l-.3,.5c.4,.6,1.9,1.1,2.8,1.2l.3,5.6l19.7,-.2l.1,-5.1c.8,-.4,2.6,-.8,3,-1.5l-.3,-.5c-1,0,-3.2,1.4,-4,1.9l-17.1,.1c-1,-.6,-3.2,-2,-4.2,-2Z" class="ge_175"/>
<path d="M827.1,83.7V80.5c0,0,2,-.8,1.7,-1.7c-.3,-.9,-2.6,1.1,-2.6,1.1h-9.1c0,0,-2.3,-2,-2.6,-1.1c-.2,.9,1.7,1.7,1.7,1.7v3.2Z" class="g1_175"/>
<path d="M827.4,84H816.2l-.3,-3.5c-.1,.2,-2,-.7,-1.6,-1.8v-.2l.5,-.2c.8,0,2.2,1.2,2.5,1.4l8.9,-.1c.1,-.1,1.5,-1.3,2.3,-1.3h.2l.4,.4c.3,1.1,-1.6,2,-1.8,2l.1,3ZM814.8,78.8c-.2,.6,.9,1.2,1.5,1.4l.2,3.5l10.3,-.2l.1,-3c.7,-.5,1.8,-1.1,1.6,-1.6c-.3,0,-1.5,.7,-2.1,1.2l-9.3,.1c-.8,-.6,-1.8,-1.4,-2.3,-1.4Z" class="ge_175"/>
<path d="M828.2,86.7V83.4c0,0,2.3,-.8,2,-1.6c-.3,-.9,-3,1.1,-3,1.1h-11c0,0,-2.8,-2,-3.1,-1.1c-.3,.8,2,1.6,2,1.6v3.3Z" class="g1_175"/>
<path d="M828.5,87H815.1l-.3,-3.5c0,.1,-1.5,-.4,-1.9,-1.2l-.1,-.1v-.5c.1,-.2,.3,-.5,.7,-.5c.9,0,2.6,1.3,2.8,1.5l10.9,-.1c0,-.1,1.7,-1.4,2.6,-1.4h.2l.5,.5c0,.2,0,.4,-.1,.6c-.4,.8,-1.9,1.3,-2.1,1.4l.2,3Zm-15,-5.2c.1,.7,1.1,1.2,1.7,1.4l.2,3.5l12.5,-.3l.1,-3c.7,-.4,1.7,-.9,1.9,-1.3c-.6,-.3,-1.9,.5,-2.6,1l-11.1,.1c-.9,-.6,-2.2,-1.4,-2.7,-1.4Z" class="ge_175"/>
<path d="M825.5,78V75c0,0,1.4,-.7,1.2,-1.4c-.2,-.8,-1.8,.9,-1.8,.9h-6.5c0,0,-1.6,-1.7,-1.8,-.9c-.2,.7,1.2,1.4,1.2,1.4v2.6Z" class="g1_175"/>
<path d="M825.8,78.3l-8,-.4L817.5,75c0,.2,-1.4,-.6,-1.2,-1.5l.1,-.2l.4,-.2c.6,0,1.5,.9,1.8,1.2l6.3,-.1c.1,-.2,1,-1.1,1.6,-1.1h.2l.3,.4c.2,.9,-1.2,1.7,-1.3,1.8l.1,2.7Zm-9,-4.6c0,.3,.7,.9,1.1,1.1l.2,2.8l7.1,.1l.1,-2.7c.5,-.4,1.2,-1,1.1,-1.4c-.1,.1,-.8,.6,-1.3,1.1l-6.7,.1c-.7,-.6,-1.3,-1.1,-1.6,-1.1Z" class="ge_175"/>
<path d="M826.3,80.1V77.4c0,0,1.6,-.7,1.4,-1.4c-.2,-.7,-2.2,.9,-2.2,.9h-7.7c0,0,-2,-1.6,-2.2,-.9c-.2,.7,1.4,1.4,1.4,1.4v2.7Z" class="g1_175"/>
<path d="M826.6,80.3H817l-.3,-2.9c-.1,.1,-1.6,-.6,-1.4,-1.5l.1,-.2l.5,-.2c.6,0,1.8,1,2,1.2l7.6,-.1c.1,-.1,1.3,-1.1,2,-1.1h.1l.4,.4c.3,.9,-1.3,1.7,-1.6,1.8l.2,2.3ZM815.9,76.1c-.1,.3,.6,.8,1.2,1.1l.2,2.8l8.7,-.2V77.4c.8,-.5,1.6,-1,1.5,-1.3c-.4,0,-1.3,.6,-1.8,1l-7.9,.1c-.7,-.5,-1.6,-1.1,-1.9,-1.1Z" class="ge_175"/>
<path d="M819.2,80.2l-1.4,-1.7c.4,-.4,1.3,.4,1.3,.4c0,0,.5,-1.9,2.6,-2.7c2,.8,2.5,2.7,2.5,2.7c0,0,.9,-.8,1.4,-.4l-1.5,1.7Z" class="g1_175"/>
<path d="M824.2,80.5h-5l-2.1,-2.2l1,-.2c.3,0,.7,.2,.9,.3c.2,-.6,.9,-1.9,2.6,-2.5c1.7,.6,2.5,1.9,2.7,2.5c.3,-.1,.6,-.3,.9,-.3l.5,.2Zm-6.1,-1.8l1.3,1.3l4.6,-.1l1.4,-1.6c-.5,.4,-.9,.7,-1,.8l-.4,.2l-.1,-.4c0,0,-.5,-1.7,-2.3,-2.4c-1.7,.7,-2.2,2.4,-2.2,2.4l-.1,.4l-.3,-.2c-.2,-.1,-.6,-.4,-.9,-.4Z" class="ge_175"/>
<path d="M818.2,82.8l-2,-1.6c.7,-.4,1.9,.3,1.9,.3c0,0,.7,-1.9,3.6,-2.6c2.8,.7,3.5,2.6,3.5,2.6c0,0,1.3,-.7,1.9,-.3l-2,1.6Z" class="g1_175"/>
<path d="M825.2,83.1h-7L816,81.4c.2,-.5,.5,-.6,.7,-.6c.6,0,1.3,.3,1.5,.4c-.1,-.3,.7,-1.9,3.4,-2.6c2.6,.7,3.5,2.1,3.8,2.7c.1,-.3,1.3,-.7,1.9,-.3Zm-8.4,-1.7l1.6,1.2H825l1.5,-1.2c-.5,0,-1.1,.4,-1.2,.4c-.4,-.3,-1,-1.9,-3.7,-2.7c-2.6,.8,-3.2,2.4,-3.2,2.5c-.4,.1,-1,-.2,-1.6,-.2Z" class="ge_175"/>
<path d="M817.7,87.5l-2.3,-2.2c.8,-.5,2.2,.4,2.2,.4c0,0,.8,-2.5,4.1,-3.5c3.2,1,4,3.5,4,3.5c0,0,1.4,-.9,2.2,-.4l-2.3,2.2Z" class="g1_175"/>
<path d="M825.7,87.8h-8l-2.5,-2.3c.3,-.6,.5,-.6,.8,-.6c.7,0,1.5,.4,1.7,.5c-.2,-.3,.8,-2.5,3.9,-3.5c3,.9,4,2.9,4.3,3.6c.2,-.4,1.5,-.9,2.2,-.4ZM816,85.4c-.2,0,-.3,.1,-.4,.2l2.3,1.7l7.6,-.1l1.9,-1.8c-.5,.1,-1.3,.4,-1.5,.5c-.5,-.1,-1.2,-2.5,-4.3,-3.5c-2.9,1,-3.7,3.4,-3.7,3.4c-.5,.1,-1.2,-.4,-1.9,-.4Z" class="ge_175"/>
<path d="M816.7,93.2l-2.8,-2.7c.9,-.7,2.7,.5,2.7,.5c0,0,1,-3.1,5.1,-4.4c4.1,1.3,5,4.4,5,4.4c0,0,1.8,-1.2,2.8,-.5l-2.9,2.7Z" class="g1_175"/>
<path d="M826.7,93.5h-10l-3,-2.8c.2,-.6,.5,-.7,.9,-.7c.9,0,1.8,.6,2.1,.7c-.2,-.3,1,-3.1,4.9,-4.4c3.8,1.2,5.1,3.8,5.3,4.5c.2,-.4,1.9,-1.1,2.7,-.5ZM814.6,90.6c-.2,0,-.4,0,-.6,.1l2.9,2.3h9.6L829,90.6c-.1,0,-.2,0,-.3,0c-.8,0,-1.8,.6,-1.8,.6c-.4,-.1,-1.4,-3.1,-5.3,-4.4c-3.8,1.3,-4.7,4.3,-4.7,4.3c-.5,.1,-1.5,-.5,-2.3,-.5Z" class="ge_175"/>
<path d="M816,97.9l5.5,6.9l5.8,-6.9Z" class="g1_175"/>
<path d="M821.5,105.3l-6.1,-7.6h12.5Zm-4.9,-7.1l4.9,6.2l5.2,-6.2Z" class="ge_175"/>
<path d="M815.7,98.7l-3.4,-3c1.2,-.8,3.3,.5,3.3,.5c0,0,1.1,-3.4,6.1,-4.9c4.9,1.5,6,4.9,6,4.9c0,0,2.2,-1.3,3.3,-.5l-3.4,3Z" class="g1_175"/>
<path d="M827.7,99h-12l-3.6,-3.1c.3,-.7,.7,-.8,1.1,-.8c1.1,0,2.2,.7,2.5,.9c-.2,-.3,1.1,-3.6,5.9,-5c4.6,1.4,6.1,4.3,6.3,5c.2,-.4,2.3,-1.2,3.3,-.6ZM813.2,95.7c-.3,0,-.6,.1,-.8,.2l3.5,2.6l11.6,-.1l3.1,-2.7c-.1,0,-.3,0,-.5,0c-1,0,-2.2,.8,-2.2,.8c-.4,-.2,-1.6,-3.6,-6.3,-4.9c-4.6,1.3,-5.7,4.7,-5.8,4.7c-.4,.2,-1.6,-.6,-2.6,-.6Z" class="ge_175"/>
<path d="M815.6,105.5l5.9,8.7l6.3,-8.7Z" class="g1_175"/>
<path d="M821.5,114.6L815,105.2h13.3Zm-5.4,-8.8l5.4,7.9l5.7,-7.9Z" class="ge_175"/>
<path d="M815.3,106.5l-3.8,-3.8c1.3,-1,3.6,.7,3.6,.7c0,0,1.2,-4.4,6.6,-6.2c5.3,1.8,6.5,6.2,6.5,6.2c0,0,2.4,-1.7,3.6,-.7l-3.7,3.8Z" class="g1_175"/>
<path d="M828.2,106.8H815.3l-4,-4c.3,-.6,.7,-.7,1.2,-.7c.9,0,1.9,.5,2.4,.8c.5,-1.1,2.1,-4.4,6.7,-6c4.7,1.6,6.4,4.9,6.8,6c.7,-.4,2.6,-1.2,3.6,-.5Zm-15.7,-4.2c-.3,0,-.6,.1,-.8,.3l3.8,3.4l12.5,-.1l3.5,-3.7c-.2,.2,-.4,.1,-.7,.1c-1.1,0,-2.4,1,-2.4,1l-.3,.2l-.1,-.4c0,0,-1.3,-4.2,-6.4,-6c-5,1.8,-6.2,6,-6.3,6l-.1,.4l-.3,-.2c0,0,-1.3,-1,-2.4,-1Z" class="ge_175"/>
<path d="M815.3,114.2l-3.8,-3.9c1.3,-1,3.6,.7,3.6,.7c0,0,1.2,-4.3,6.6,-6.2c5.3,1.9,6.5,6.2,6.5,6.2c0,0,2.4,-1.7,3.6,-.7l-3.7,3.9Z" class="g1_175"/>
<path d="M828.2,114.4H815.3l-4,-3.9c.3,-.6,.7,-.7,1.2,-.7c.9,0,1.9,.5,2.4,.8c.5,-1.1,2.1,-4.5,6.7,-6c4.7,1.5,6.4,4.9,6.8,6c.7,-.4,2.6,-1.2,3.6,-.5Zm-15.7,-4.1c-.3,0,-.6,.1,-.8,.3l3.8,3.4l12.5,-.1l3.5,-3.7c-.2,.2,-.4,.1,-.7,.1c-1.1,0,-2.4,1,-2.4,1l-.3,.2l-.1,-.4c0,0,-1.3,-4.2,-6.4,-6c-5,1.8,-6.2,6,-6.3,6l-.1,.4l-.3,-.2c0,0,-1.3,-1,-2.4,-1Z" class="ge_175"/>
<path d="M783.5,136.8h2.7v-12h-2.7v12Z" class="g1_175"/>
<path d="M786.5,137h-3l-.3,-12.2l3,-.3Zm-.6,-12.2l-2.4,.3l.2,11.7l2.2,-.3Z" class="ge_175"/>
<path d="M792.8,136.8h2.8v-12h-2.8v12Z" class="g1_175"/>
<path d="M795.9,137h-3.1l-.2,-12.2l3,-.3Zm-.6,-12.2l-2.5,.2l.3,11.8l2.2,-.3Z" class="ge_175"/>
<path d="M788.4,136.8h2.8v-12h-2.8v12Z" class="g1_175"/>
<path d="M791.5,137h-3.1l-.3,-12.2l3.1,-.3Zm-.6,-12.2l-2.5,.2l.3,11.8l2.2,-.3Z" class="ge_175"/>
<path d="M838.4,136.8h2.8v-12h-2.8v12Z" class="g1_175"/>
<path d="M841.5,137h-3.1l-.2,-12.2l3,-.3Zm-.6,-12.2l-2.5,.2l.3,11.8l2.2,-.3Z" class="ge_175"/>
<path d="M857.2,136.8h2.7v-12h-2.7v12Z" class="g1_175"/>
<path d="M860.2,137h-3l-.3,-12.2l3,-.3Zm-.6,-12.2l-2.4,.2l.2,11.8l2.2,-.3Z" class="ge_175"/>
<path d="M847.8,136.8h2.8v-12h-2.8v12Z" class="g1_175"/>
<path d="M850.8,137h-3l-.3,-12.2l3.1,-.3Zm-.5,-12.2l-2.5,.2l.3,11.8l2.2,-.3Z" class="ge_175"/>
<path d="M843.4,136.8h2.7v-12h-2.7v12Z" class="g1_175"/>
<path d="M846.4,137h-3l-.3,-12.2l3.1,-.3Zm-.5,-12.2l-2.5,.2l.3,11.8l2.2,-.3Z" class="ge_175"/>
<path d="M852.2,136.8H855v-12h-2.8v12Z" class="g1_175"/>
<path d="M855.2,137h-3l-.3,-12.2l3.1,-.3Zm-.5,-12.2l-2.5,.2l.3,11.8l2.2,-.3Z" class="ge_175"/>
<path d="M802.2,136.8h2.7v-12h-2.7v12Z" class="g1_175"/>
<path d="M805.2,137h-3l-.3,-12.2l3,-.3Zm-.5,-12.2l-2.5,.2l.3,11.8l2.2,-.3Z" class="ge_175"/>
<path d="M797.2,136.8H800v-12h-2.8v12Z" class="g1_175"/>
<path d="M800.3,137h-3.1L797,124.8l3,-.3Zm-.6,-12.2l-2.5,.2l.3,11.8l2.2,-.3Z" class="ge_175"/>
<path d="M818.8,72.2h5.7V70h-5.7v2.2Z" class="g1_175"/>
<path d="M824.8,72.5h-6L818.5,70l6,-.3ZM824.2,70l-5.4,.3l.3,1.9l5.1,-.3Z" class="ge_175"/>
<path d="M819.5,70h4.2V67.9h-4.2V70Z" class="g1_175"/>
<path d="M824,70.2h-4.5l-.2,-2.3l4.4,-.3Zm-.5,-2.3l-4,.2l.3,1.9l3.7,-.3Z" class="ge_175"/>
<path d="M153.3,217.5v22.2L165,250V227.8Z" class="gf_175"/>
<path d="M153.3,200.7v39H851.1c0,0,16.8,0,16.8,-16.8v-5.4c0,0,0,-16.8,-16.8,-16.8Z" class="g5_175"/>
<path d="M211.3,212.1l-6.5,-6.4l-21.2,21.2l6.5,6.4Z" class="gg_175"/>
<path d="M190.1,233.9c.1,0,.3,-.1,.4,-.2l21.2,-21.2c.1,-.1,.1,-.2,.1,-.4c0,-.1,0,-.2,-.1,-.3l-6.5,-6.5c-.2,-.2,-.6,-.2,-.8,0l-21.2,21.2c-.1,.1,-.1,.2,-.1,.4c0,.1,0,.2,.1,.3l6.5,6.5c.1,.1,.3,.2,.4,.2m20.5,-21.8l-20.5,20.5l-5.8,-5.7l20.5,-20.5Z" class="gh_175"/>
<path d="M211.3,212.1l-6.5,-6.4l2.1,-2.2l6.5,6.5Z" class="gi_175"/>
<path d="M211.3,212.7c.1,0,.3,-.1,.4,-.2l2.1,-2.1c.1,-.1,.2,-.2,.2,-.4c0,-.1,-.1,-.3,-.2,-.4l-6.5,-6.4c-.2,-.3,-.5,-.3,-.7,0l-2.2,2.1c-.1,.1,-.1,.2,-.1,.4c0,.1,0,.2,.1,.3l6.5,6.5c.1,.1,.3,.2,.4,.2m1.4,-2.7l-1.4,1.4l-5.7,-5.7l1.3,-1.4Z" class="gh_175"/>
<path d="M217,206.4l-6.4,-6.5l-3.7,3.6l6.5,6.5Z" class="gj_175"/>
<path d="M213.4,210.5c.2,0,.3,0,.4,-.1l3.6,-3.6c.2,-.2,.2,-.6,0,-.8l-6.5,-6.5c-.2,-.2,-.5,-.2,-.7,0l-3.6,3.7c-.2,.2,-.2,.5,0,.7l6.5,6.5c.1,.1,.2,.1,.3,.1m2.9,-4.1l-2.9,2.9l-5.7,-5.8l2.9,-2.8Z" class="gh_175"/>
<path d="M179,238l4.6,-11.1l6.5,6.4Z" class="g1_175"/>
<path d="M179,238.5c0,0,.1,0,.2,0l11.1,-4.7c.2,0,.3,-.2,.3,-.4c0,-.1,0,-.3,-.1,-.4L184,226.5c-.1,-.1,-.3,-.2,-.5,-.1c-.2,0,-.3,.1,-.4,.3l-4.6,11.1c-.1,.2,0,.4,.1,.6c.1,.1,.2,.1,.4,.1m10.2,-5.3l-9.3,3.8l3.9,-9.2Z" class="gh_175"/>
<path d="M179,238l2.2,-5.4l3.1,3.1Z" class="gh_175"/>
<path d="M179,238.5c0,0,.1,0,.2,0l5.3,-2.3c.2,0,.3,-.2,.4,-.4c0,-.1,-.1,-.3,-.2,-.4l-3.1,-3.2c-.1,-.1,-.3,-.1,-.5,-.1c-.2,0,-.3,.2,-.4,.3l-2.2,5.4c-.1,.2,0,.4,.1,.6c.1,.1,.2,.1,.4,.1m4.4,-2.9l-3.5,1.4l1.5,-3.5Z" class="gh_175"/>
<path d="M209.5,210.4l-2.9,-3l-21.2,21.2l2.9,3Z" class="gk_175"/>
<path d="M188.3,232.1c.2,0,.3,0,.4,-.1l21.2,-21.2c.1,-.1,.2,-.3,.2,-.4c0,-.2,-.1,-.3,-.2,-.4l-3,-3c-.2,-.2,-.5,-.2,-.7,0L185,228.3c-.1,.1,-.2,.2,-.2,.3c0,.2,.1,.3,.2,.4l3,3c.1,.1,.2,.1,.3,.1m20.5,-21.7l-20.5,20.4l-2.2,-2.2l20.5,-20.4Z" class="gh_175"/>
<path d="M32.1,45.1H9.2m958.3,0h22.9M32.1,1331.3H9.2m958.3,0h22.9M45.1,32.1V9.2m0,1335.1v22.9M954.5,32.1V9.2m0,1335.1v22.9" class="gl_175"/>
<path d="M32.1,45.1H9.2m958.3,0h22.9M32.1,1331.3H9.2m958.3,0h22.9M45.1,32.1V9.2m0,1335.1v22.9M954.5,32.1V9.2m0,1335.1v22.9" class="gm_175"/>
<path d="M27.5,32.1H0m972.1,0h27.5M27.5,1344.3H0m972.1,0h27.5M32.1,27.5V0m0,1348.9v27.5M967.5,27.5V0m0,1348.9v27.5" class="gl_175"/>
<path d="M27.5,32.1H0m972.1,0h27.5M27.5,1344.3H0m972.1,0h27.5M32.1,27.5V0m0,1348.9v27.5M967.5,27.5V0m0,1348.9v27.5" class="gm_175"/>
</svg>