<?xml version="1.0" encoding="UTF-8" standalone="no"?>
<!DOCTYPE svg PUBLIC "-//W3C//DTD SVG 1.1//EN"
"http://www.w3.org/Graphics/SVG/1.1/DTD/svg11.dtd">
<svg viewBox="0 0 999 1376" version="1.1" xmlns="http://www.w3.org/2000/svg" xmlns:xlink="http://www.w3.org/1999/xlink">
<defs>
<clipPath id="c0_105"><path d="M727.9,522.5V304.1H939.1V522.5Z"/></clipPath>
<clipPath id="c1_105"><path d="M725.9,529.1V300.9H942.6V529.1Z"/></clipPath>
<clipPath id="c2_105"><path d="M725.6,528.8V300.6H942.3V528.8Z"/></clipPath>
<clipPath id="c3_105"><path d="M199.2,249.4l-6.5,-2.1L176.3,233.4V176.3h72v73.1Z"/></clipPath>
<clipPath id="c4_105"><path d="M198.2,771l-6.5,-2.1L175.3,755V697.9h72V771Z"/></clipPath>
<clipPath id="c5_105"><path d="M199.2,1242.5l-6.5,-2.1l-16.4,-14v-57.1h72v73.2Z"/></clipPath>
<clipPath id="c6_105"><path d="M786.5,132.5V120.1H801v12.4Z"/></clipPath>
<clipPath id="c7_105"><path d="M78.7,464.1V267.7H293.8V464.1Z"/></clipPath>
<clipPath id="c8_105"><path d="M79.2,461.8V268.7H293.7V461.8Z"/></clipPath>
<clipPath id="c9_105"><path d="M78.8,461.4v-193H293.3v193Z"/></clipPath>
<clipPath id="ca_105"><path d="M176.1,294c-.3,-.1,3.5,-8.2,3.5,-8.2l.8,.5c0,0,-4,7.7,-4.3,7.7Z"/></clipPath>
<clipPath id="cb_105"><path d="M183.6,286.3c0,0,-6.9,-1.1,-7.6,-5.2c-.7,-3.6,1.5,-3.9,2.1,-3.9c0,0,.1,0,.1,0l8.3,-12.7L185,261.4c0,0,-.5,-1.1,.2,-2.1c0,0,.1,-.1,.3,-.1c2.1,0,12.9,5.6,12.9,5.6l.1,.1c-.4,.5,-.7,1.2,-1.4,1.7c-.6,.5,-5.1,1.1,-5.1,1.1l-8.4,18.6Z"/></clipPath>
<clipPath id="cc_105"><path d="M183.2,285.9c.2,-.4,.2,-1.8,0,-2.2v-1.4c-1.6,-.5,-2.9,-1.3,-3.7,-2.5c-1.1,.6,-2.1,1.2,-3.1,1.9c1.5,2.1,3.8,3.5,6.8,4.2Zm0,-3.9c2.2,-4.5,3.9,-9.5,6.1,-14c-.9,-.4,-1.8,-1.4,-2.6,-1.4c-2.3,4.3,-4.6,8.6,-7.1,12.8c.8,1.3,2.1,2,3.6,2.6Zm-7.3,12.1c1,-2.9,2.4,-5.5,3.5,-8.3c-2,-1.5,-3.9,-3.1,-4.4,-6.2v-1.5c0,-2.7,1.9,-3.4,4.6,-3.4q.1,0,.2,0c1.9,-3.3,4.2,-6.3,6.1,-9.6c-.5,-.9,-1.1,-2.4,-.9,-3.7c.6,1.3,1.7,1.9,2.4,2.9c-.1,.6,-.2,1.1,-.3,1.8c.6,.6,1.3,1.1,2.4,1.3c.4,-.4,.5,-1.2,1.1,-1.5c.9,.4,1.8,.8,3.1,.8c.2,.1,.5,.2,.8,.2c.4,0,.7,-.1,.9,-.2c.1,0,.2,0,.3,0c.2,0,.4,0,.6,-.1c.2,-.1,.3,-.1,.5,-.1c.1,0,.2,0,.3,.1c-1.3,.6,-2.2,1.7,-4.1,1.7c-.2,0,-.3,0,-.4,0c-.9,3.8,-1.9,7.4,-2.6,11.2c.5,1.1,1.5,1.7,1.2,3.2c-.5,2.7,-3.8,4.4,-7.2,4.4c-1.3,0,-2.5,-.3,-3.6,-.8c-1,2.1,-2.1,4.1,-3.3,6c0,-.3,.3,-.4,.3,-.7c.9,-1.8,1.9,-3.6,2.6,-5.7c-1,1.7,-1.8,3.7,-2.7,5.6c-.2,.4,-.5,.8,-.7,1.2c-.3,.4,-.3,1.1,-.7,1.4Z"/></clipPath>
<clipPath id="cd_105"><path d="M193.6,266.3c-4.8,0,-13.1,-7.3,-5.5,-8.8h1.2c.2,.1,.5,.1,.7,.1c.1,0,.2,0,.2,0c.3,0,.6,0,.9,0c3.1,.7,8.2,3.8,7.5,7.1c-.2,1.1,-1.5,1.6,-3.1,1.6h-1.9Z"/></clipPath>
<clipPath id="ce_105"><path d="M826.5,320.6c-.2,-.1,3.6,-8.2,3.6,-8.2l.8,.5c0,0,-4.1,7.7,-4.4,7.7Z"/></clipPath>
<clipPath id="cf_105"><path d="M834,312.9c0,0,-6.8,-1.1,-7.5,-5.2c-.7,-3.6,1.5,-3.9,2,-3.9c.1,0,.2,0,.2,0L837,291.1L835.5,288c0,0,-.6,-1.1,.2,-2.1c0,0,.1,-.1,.3,-.1c2.1,0,12.9,5.6,12.9,5.6l.1,.1c-.4,.6,-.8,1.2,-1.4,1.7c-.7,.5,-5.1,1.1,-5.1,1.1L834,312.9Z"/></clipPath>
<clipPath id="cg_105"><path d="M833.6,312.5c.2,-.4,.2,-1.8,0,-2.2v-1.4c-1.5,-.5,-2.8,-1.2,-3.6,-2.5c-1.1,.6,-2.1,1.2,-3.1,1.9c1.5,2.1,3.8,3.5,6.7,4.2Zm0,-3.9c2.2,-4.5,4,-9.5,6.2,-14c-.9,-.4,-1.9,-1.4,-2.6,-1.4c-2.3,4.3,-4.6,8.6,-7.1,12.8c.7,1.3,2.1,2,3.5,2.6Zm-7.2,12.1c1,-2.9,2.4,-5.5,3.5,-8.3c-2,-1.5,-4,-3.1,-4.4,-6.2v-1.5c-.1,-2.6,1.9,-3.4,4.5,-3.4c.1,0,.2,.1,.2,.1c2,-3.4,4.3,-6.4,6.2,-9.7c-.6,-.9,-1.2,-2.4,-.9,-3.7c.5,1.3,1.6,1.9,2.4,2.9c-.1,.6,-.3,1.2,-.4,1.8c.6,.6,1.4,1.2,2.4,1.4c.5,-.5,.5,-1.3,1.2,-1.5c.9,.3,1.8,.7,3.1,.7c.1,.1,.5,.2,.8,.2c.4,0,.7,-.1,.8,-.2c.1,0,.2,0,.3,0c.3,0,.5,0,.6,-.1c.2,-.1,.4,-.1,.6,-.1c.1,0,.2,0,.3,.1c-1.3,.6,-2.2,1.7,-4.2,1.7c-.1,0,-.2,0,-.3,0c-.9,3.8,-1.9,7.4,-2.7,11.2c.6,1.1,1.5,1.7,1.3,3.2c-.5,2.7,-3.9,4.4,-7.2,4.4c-1.3,0,-2.5,-.3,-3.6,-.8c-1,2.1,-2.1,4.1,-3.3,6c0,-.3,.3,-.3,.3,-.7c.9,-1.8,1.9,-3.6,2.6,-5.7c-1.1,1.7,-1.8,3.7,-2.8,5.6c-.2,.4,-.4,.8,-.6,1.2c-.3,.4,-.3,1.1,-.7,1.4Z"/></clipPath>
<clipPath id="ch_105"><path d="M844.1,292.9c-4.8,0,-13.1,-7.3,-5.6,-8.8h1.3c.2,.1,.3,.1,.5,.1q.1,0,.2,0q.1,0,.2,0c.3,0,.5,0,.9,.1c3,.6,8.2,3.8,7.5,7c-.3,1.1,-1.6,1.6,-3.1,1.6h-1.8c0,0,-.1,0,-.1,0Z"/></clipPath>
<style type="text/css"><![CDATA[
.g0_105{
fill: #FEFCF4;
}
.g1_105{
fill: #FFF;
}
.g2_105{
fill: none;
stroke: #6381B7;
stroke-width: 0.763;
}
.g3_105{
fill: #F7C2D9;
}
.g4_105{
fill: #FDF4F3;
}
.g5_105{
fill: #EC008C;
}
.g6_105{
fill: none;
stroke: #949698;
stroke-width: 0.305;
stroke-dasharray: 4,4;
}
.g7_105{
fill: none;
stroke: #949698;
stroke-width: 0.305;
}
.g8_105{
fill: none;
stroke: #949698;
stroke-width: 0.305;
stroke-dasharray: 3,3;
}
.g9_105{
fill: #6D6F71;
}
.ga_105{
fill: #FCE8B0;
}
.gb_105{
fill: #6381B7;
}
.gc_105{
fill: none;
stroke: #6381B7;
stroke-width: 0.381;
stroke-dasharray: 2,1;
}
.gd_105{
fill: none;
stroke: #6381B7;
stroke-width: 0.381;
}
.ge_105{
fill: #25408F;
}
.gf_105{
fill: #A8AAAD;
}
.gg_105{
fill: none;
stroke: #949698;
stroke-width: 0.549;
}
.gh_105{
fill: none;
stroke: #BCBEC0;
stroke-width: 2.566;
}
.gi_105{
fill: #231F20;
}
.gj_105{
fill: #363637;
}
.gk_105{
fill: #5CC4BE;
}
.gl_105{
fill: #F0D73F;
}
.gm_105{
fill: none;
stroke: #00ABE5;
stroke-width: 2.291;
}
.gn_105{
fill: #3D3B39;
}
.go_105{
fill: #E5E9B7;
}
.gp_105{
fill: #61C7CB;
}
.gq_105{
fill: none;
stroke: #00ABE5;
stroke-width: 1.527;
stroke-linecap: round;
stroke-linejoin: round;
stroke-dasharray: 0,5;
}
.gr_105{
fill: none;
stroke: #00ABE5;
stroke-width: 1.527;
stroke-linecap: round;
stroke-linejoin: round;
}
.gs_105{
fill: none;
stroke: #FFF;
stroke-width: 1.909;
stroke-miterlimit: 10;
}
.gt_105{
fill: none;
stroke: #000;
stroke-width: 0.381;
stroke-miterlimit: 10;
}
]]></style>
</defs>
<path d="M45.1,1344.3H967.5V32.1H45.1V1344.3Z" class="g0_105"/>
<path d="M172.3,137.5c0,0,-18.3,0,-18.3,18.3V656.9c0,0,0,18.3,18.3,18.3H849.4c0,0,18.4,0,18.4,-18.3V137.5Z" class="g1_105"/>
<path d="M172.3,137.5c0,0,-18.3,0,-18.3,18.3V656.9c0,0,0,18.3,18.3,18.3H849.4c0,0,18.4,0,18.4,-18.3V137.5H172.3Z" class="g2_105"/>
<image clip-path="url(#c0_105)" preserveAspectRatio="none" x="727" y="305" width="212" height="218" xlink:href="img/1.png"/>
<path d="M735.7,309.4l-2.5,205.2l197.3,1.5l2.6,-205.2Z" class="g3_105"/>
<image clip-path="url(#c1_105)" preserveAspectRatio="none" x="726" y="302" width="216" height="227" xlink:href="img/2.png"/>
<image clip-path="url(#c2_105)" preserveAspectRatio="none" x="725" y="301" width="217" height="228" xlink:href="img/3.png"/>
<path d="M730.7,317.9l11.1,204.8L905,512.5l31.3,-27.3L926.9,305.4Z" class="g4_105"/>
<path d="M905.1,512.5l31.3,-27.3l-16.5,-6Z" class="g5_105"/>
<path d="M484.5,360.2c3.5,-1.5,6.3,-4.7,7.3,-8.5m-.6,-8.2c-1.4,-3.7,-4.5,-6.5,-8.3,-7.5m-8.1,.5c-3.6,1.6,-6.3,4.7,-7.3,8.6m.5,8.1c1.4,3.7,4.5,6.5,8.3,7.6" class="g6_105"/>
<path d="M492.1,350c0,-.5,.1,-1.1,.1,-1.6c0,-.6,-.1,-1.1,-.1,-1.7M481.3,335.6c-.6,0,-1.1,-.1,-1.7,-.1c-.6,0,-1.1,.1,-1.7,.1m-10.8,11.1c0,.6,-.1,1.1,-.1,1.7c0,.5,.1,1.1,.1,1.6m10.8,11.1c.6,.1,1.1,.1,1.7,.1c.6,0,1.1,0,1.7,-.1" class="g7_105"/>
<path d="M483.1,335c9.5,-2.1,34.9,-6.8,83.2,-8.2" class="g6_105"/>
<path d="M573.9,327c11.1,.7,38,3.1,22.6,8.8" class="g8_105"/>
<path d="M592.2,329.8c7.5,-2.2,26.7,-5.7,71.3,-5.3" class="g6_105"/>
<path d="M671,324.7c10.7,.4,38.1,2.6,55.8,13.7" class="g8_105"/>
<path d="M478.6,336.2c0,0,.5,-.2,1.5,-.4m87.7,-9c.6,-.1,1.1,-.1,1.6,-.1c0,0,.5,0,1.5,.1m24.2,9.5c-.5,.2,-.9,.3,-1.5,.5c0,0,-1,-.1,-2.2,-.5M588,333.6c-.3,-.6,-.3,-1.3,-.1,-2.2c0,0,.4,-.3,1.4,-.7M665,324.5c.5,.1,1,.1,1.5,.1c0,0,.5,0,1.5,0m60,14.6c.5,.3,.9,.5,1.3,.8" class="g7_105"/>
<path d="M724.6,341.9l6.2,-6.2l4.6,11.3Z" class="g9_105"/>
<path d="M231.8,178.5c0,0,-13,0,-13,13v47.6c0,0,0,13,13,13H841.9c0,0,13,0,13,-13V191.5c0,0,0,-13,-13,-13Z" class="ga_105"/>
<image clip-path="url(#c3_105)" preserveAspectRatio="none" x="175" y="175" width="75" height="76" xlink:href="img/4.png"/>
<path d="M226.6,244.7c0,0,-26.9,11.3,-51.1,-12.7c0,0,15.1,25.3,49.3,23.9c0,0,24.7,.4,20.2,-10.1c0,0,1.2,-4.4,-18.4,-1.1Z" class="ga_105"/>
<path d="M613.5,868.3c0,0,-4.3,0,-4.3,4.3v10.9c0,0,0,4.3,4.3,4.3h30.3c0,0,4.4,0,4.4,-4.3V872.6c0,0,0,-4.3,-4.4,-4.3Z" class="gb_105"/>
<path d="M600.3,859.5V897m1.4,1H868.2m1,-1.3V859.1m-1.4,-1H601.3" class="gc_105"/>
<path d="M600.3,897.4v.6h.6m267.7,0h.6v-.6m0,-38.7v-.6h-.6m-267.7,0h-.6v.6" class="gd_105"/>
<path d="M166.7,684.7c0,0,-13,0,-13,13V839.8c0,0,0,13,13,13H854.5c0,0,13,0,13,-13V697.7c0,0,0,-13,-13,-13Z" class="g1_105"/>
<path d="M166.7,684.7c0,0,-13,0,-13,13V839.8c0,0,0,13,13,13H854.5c0,0,13,0,13,-13V697.7c0,0,0,-13,-13,-13H166.7Z" class="g2_105"/>
<path d="M230.9,726.9c0,0,-13,0,-13,13v21.6c0,0,0,13,13,13H832.8c0,0,13,0,13,-13V739.9c0,0,0,-13,-13,-13Z" class="ga_105"/>
<image clip-path="url(#c4_105)" preserveAspectRatio="none" x="174" y="696" width="75" height="77" xlink:href="img/5.png"/>
<path d="M225.7,766.3c0,0,-26.9,11.3,-51.1,-12.8c0,0,15.1,25.3,49.2,24c0,0,24.8,.3,20.3,-10.1c0,0,1.2,-4.5,-18.4,-1.1Z" class="ga_105"/>
<path d="M231.8,1158.5c0,0,-13,0,-13,13v60.6c0,0,0,13,13,13H854.9c0,0,13,0,13,-13v-60.6c0,0,0,-13,-13,-13Z" class="ga_105"/>
<image clip-path="url(#c5_105)" preserveAspectRatio="none" x="175" y="1168" width="75" height="76" xlink:href="img/6.png"/>
<path d="M226.6,1237.8c0,0,-26.9,11.3,-51.1,-12.8c0,0,15.1,25.3,49.3,24c0,0,24.7,.3,20.2,-10.2c0,0,1.2,-4.4,-18.4,-1Z" class="ga_105"/>
<path d="M153.3,111.9v39L165,161.2V117Z" class="ge_105"/>
<path d="M153.3,111.9v39H851.1c0,0,16.8,0,16.8,-16.8v-5.3c0,0,0,-16.9,-16.8,-16.9Z" class="gb_105"/>
<path d="M802.6,145.6c8.2,0,14.9,-6.5,14.9,-14.5c0,-8.1,-6.7,-14.5,-14.9,-14.5c-8.2,0,-14.9,6.4,-14.9,14.5c0,8,6.7,14.5,14.9,14.5Z" class="gf_105"/>
<path d="M802.6,145.6c8.2,0,14.9,-6.5,14.9,-14.5c0,-8.1,-6.7,-14.5,-14.9,-14.5c-8.2,0,-14.9,6.4,-14.9,14.5c0,8,6.7,14.5,14.9,14.5Z" class="gg_105"/>
<path d="M802.6,136.4c3,0,5.5,-2.4,5.5,-5.3c0,-3,-2.5,-5.4,-5.5,-5.4c-3,0,-5.5,2.4,-5.5,5.4c0,2.9,2.5,5.3,5.5,5.3Z" class="g1_105"/>
<path d="M802.6,136.4c3,0,5.5,-2.4,5.5,-5.3c0,-3,-2.5,-5.4,-5.5,-5.4c-3,0,-5.5,2.4,-5.5,5.4c0,2.9,2.5,5.3,5.5,5.3Z" class="gh_105"/>
<g clip-path="url(#c6_105)" opacity="0.3">
<path d="M788,130.3c0,0,0,-4.8,3.7,-8.7l7.7,6.8c0,0,-1,.9,-1,2.6Z" class="g1_105"/>
</g>
<path d="M807.2,131c0,0,-3.5,0,-3.5,3.4v8.7c0,0,0,3.5,3.5,3.5h43.5c0,0,3.5,0,3.5,-3.5v-8.7c0,0,0,-3.4,-3.5,-3.4Z" class="gi_105"/>
<path d="M191.2,122c0,-8.3,-6.8,-15,-15.1,-15c-8.3,0,-15,6.7,-15,15c0,8.3,6.7,15.1,15,15.1c.8,0,1.7,-.1,2.4,-.2l4.5,5.2v-6.7c4.9,-2.5,8.2,-7.6,8.2,-13.4Z" class="g1_105"/>
<path d="M183.5,143.3l-5.1,-5.9c-.8,.1,-1.5,.1,-2.3,.1c-8.5,0,-15.5,-6.9,-15.5,-15.5c0,-8.5,7,-15.5,15.5,-15.5c8.6,0,15.5,7,15.5,15.5c0,5.7,-3.1,11,-8.1,13.7Zm-4.8,-6.9l3.9,4.5v-5.8l.2,-.1c4.9,-2.5,7.9,-7.5,7.9,-13c0,-8,-6.5,-14.6,-14.6,-14.6c-8,0,-14.6,6.6,-14.6,14.6c0,8.1,6.6,14.6,14.6,14.6c.8,0,1.6,-.1,2.4,-.2Z" class="gj_105"/>
<path d="M169.1,121.6c.8,0,1.4,.6,1.4,1.4c0,.8,-.6,1.5,-1.4,1.5c-.8,0,-1.4,-.7,-1.4,-1.5c0,-.8,.6,-1.4,1.4,-1.4Z" class="gk_105"/>
<path d="M169.1,124.9c-1,0,-1.9,-.8,-1.9,-1.9c0,-1,.9,-1.9,1.9,-1.9c1,0,1.9,.9,1.9,1.9c0,1.1,-.9,1.9,-1.9,1.9m0,-2.9c-.5,0,-1,.5,-1,1c0,.6,.5,1,1,1c.5,0,1,-.4,1,-1c0,-.5,-.5,-1,-1,-1Z" class="gj_105"/>
<path d="M176.1,121.6c.8,0,1.5,.6,1.5,1.4c0,.8,-.7,1.5,-1.5,1.5c-.8,0,-1.4,-.7,-1.4,-1.5c0,-.8,.6,-1.4,1.4,-1.4Z" class="gk_105"/>
<path d="M176.1,124.9c-1,0,-1.9,-.8,-1.9,-1.9c0,-1,.9,-1.9,1.9,-1.9c1.1,0,1.9,.9,1.9,1.9c0,1.1,-.8,1.9,-1.9,1.9m0,-2.9c-.5,0,-1,.5,-1,1c0,.6,.5,1,1,1c.6,0,1,-.4,1,-1c0,-.5,-.4,-1,-1,-1Z" class="gj_105"/>
<path d="M183.1,121.6c.8,0,1.5,.6,1.5,1.4c0,.8,-.7,1.5,-1.5,1.5c-.8,0,-1.4,-.7,-1.4,-1.5c0,-.8,.6,-1.4,1.4,-1.4Z" class="gk_105"/>
<path d="M183.1,124.9c-1,0,-1.9,-.8,-1.9,-1.9c0,-1,.9,-1.9,1.9,-1.9c1.1,0,1.9,.9,1.9,1.9c0,1.1,-.8,1.9,-1.9,1.9m0,-2.9c-.5,0,-1,.5,-1,1c0,.6,.5,1,1,1c.6,0,1,-.4,1,-1c0,-.5,-.4,-1,-1,-1Z" class="gj_105"/>
<path d="M185.1,136.3c0,-9.8,7.8,-17.7,17.6,-17.7c9.7,0,17.6,7.9,17.6,17.7c0,9.7,-7.9,17.6,-17.6,17.6c-1,0,-1.9,-.1,-2.9,-.3l-5.2,6.1v-7.8c-5.7,-2.9,-9.5,-8.8,-9.5,-15.6Z" class="gl_105"/>
<path d="M194.6,160.2q-.1,0,-.2,0c-.2,-.1,-.3,-.3,-.3,-.5v-7.5c-5.9,-3.2,-9.5,-9.2,-9.5,-15.9c0,-10,8.1,-18.1,18.1,-18.1c9.9,0,18,8.1,18,18.1c0,9.9,-8.1,18,-18,18c-.9,0,-1.8,0,-2.7,-.2l-5.1,5.9c-.1,.1,-.2,.2,-.3,.2m8.1,-41.1c-9.5,0,-17.2,7.7,-17.2,17.2c0,6.4,3.6,12.2,9.3,15.2c.1,.1,.2,.2,.2,.4v6.6l4.5,-5.2c.1,-.1,.3,-.1,.4,-.1c1,.1,1.9,.2,2.8,.2c9.4,0,17.1,-7.7,17.1,-17.1c0,-9.5,-7.7,-17.2,-17.1,-17.2Z" class="gj_105"/>
<path d="M210.9,135.8c.9,0,1.6,.7,1.6,1.6c0,1,-.7,1.7,-1.6,1.7c-1,0,-1.7,-.7,-1.7,-1.7c0,-.9,.7,-1.6,1.7,-1.6Z" class="g1_105"/>
<path d="M210.9,139.6c-1.2,0,-2.2,-1,-2.2,-2.2c0,-1.1,1,-2.1,2.2,-2.1c1.1,0,2.1,1,2.1,2.1c0,1.2,-1,2.2,-2.1,2.2m0,-3.4c-.7,0,-1.3,.6,-1.3,1.2c0,.7,.6,1.3,1.3,1.3c.6,0,1.2,-.6,1.2,-1.3c0,-.6,-.6,-1.2,-1.2,-1.2Z" class="gj_105"/>
<path d="M202.7,135.8c.9,0,1.6,.7,1.6,1.6c0,1,-.7,1.7,-1.6,1.7c-1,0,-1.7,-.7,-1.7,-1.7c0,-.9,.7,-1.6,1.7,-1.6Z" class="g1_105"/>
<path d="M202.7,139.6c-1.2,0,-2.2,-1,-2.2,-2.2c0,-1.1,1,-2.1,2.2,-2.1c1.1,0,2.1,1,2.1,2.1c0,1.2,-1,2.2,-2.1,2.2m0,-3.4c-.7,0,-1.3,.6,-1.3,1.2c0,.7,.6,1.3,1.3,1.3c.6,0,1.2,-.6,1.2,-1.3c0,-.6,-.6,-1.2,-1.2,-1.2Z" class="gj_105"/>
<path d="M194.5,135.8c.9,0,1.6,.7,1.6,1.6c0,1,-.7,1.7,-1.6,1.7c-1,0,-1.7,-.7,-1.7,-1.7c0,-.9,.7,-1.6,1.7,-1.6Z" class="g1_105"/>
<path d="M194.5,139.6c-1.2,0,-2.2,-1,-2.2,-2.2c0,-1.1,1,-2.1,2.2,-2.1c1.1,0,2.1,1,2.1,2.1c0,1.2,-1,2.2,-2.1,2.2m0,-3.4c-.7,0,-1.2,.6,-1.2,1.2c0,.7,.5,1.3,1.2,1.3c.6,0,1.2,-.6,1.2,-1.3c0,-.6,-.6,-1.2,-1.2,-1.2Z" class="gj_105"/>
<image clip-path="url(#c7_105)" preserveAspectRatio="none" x="79" y="268" width="214" height="196" xlink:href="img/7.png"/>
<path d="M88.9,272.4L83.6,450.6l198.6,7.2l5.3,-178.2Z" class="g3_105"/>
<image clip-path="url(#c8_105)" preserveAspectRatio="none" x="79" y="269" width="214" height="193" xlink:href="img/8.png"/>
<image clip-path="url(#c9_105)" preserveAspectRatio="none" x="79" y="269" width="214" height="193" xlink:href="img/9.png"/>
<path d="M83.9,278.6l5,176.3l167.6,-4L287,426.7L282.7,273.6Z" class="g4_105"/>
<path d="M256.8,451l30.3,-24.5l-17.5,-7.2Z" class="g5_105"/>
<path d="M384.3,297.3c3.7,-1.5,6.5,-4.6,7.5,-8.5m-.5,-8.2c-1.5,-3.7,-4.7,-6.5,-8.6,-7.5m-8.2,.5c-3.7,1.5,-6.5,4.7,-7.5,8.6m.5,8.2c1.6,3.6,4.7,6.5,8.6,7.5" class="g6_105"/>
<path d="M392.1,287.2c.1,-.6,.1,-1.1,.1,-1.7c0,-.6,0,-1.1,-.1,-1.7m-11,-11c-.6,-.1,-1.1,-.2,-1.7,-.2c-.6,0,-1.1,.1,-1.7,.2m-11,11c-.1,.6,-.1,1.1,-.1,1.7c0,.6,0,1.1,.1,1.7m11,11c.6,.1,1.1,.1,1.7,.1c.6,0,1.1,0,1.7,-.1" class="g7_105"/>
<path d="M375,270.7c-7,-2.7,-23.4,-7.6,-53.4,-9.5m-7.8,.2c-8.1,.8,-23.3,3.2,-16,9.1m3.5,-6.8c-5.5,-2.5,-18.2,-6,-46,-6m-7.7,.1c-8.2,.7,-25.5,3.4,-38.3,14.7" class="g6_105"/>
<path d="M379.3,272.5c0,0,-.5,-.2,-1.4,-.6M320,261.1c-.5,-.1,-1,-.1,-1.5,-.1c0,0,-.6,0,-1.6,.1m-17.8,10.3c.4,.2,.8,.5,1.3,.8c0,0,1,-.1,2,-.7m2.5,-3.3c.2,-.6,.3,-1.3,.2,-2.1c0,0,-.3,-.4,-1.1,-.9m-50.2,-7.5c-.5,0,-1,0,-1.5,0c0,0,-.6,0,-1.6,0m-42.5,15.8c-.4,.4,-.8,.8,-1.1,1.1" class="g7_105"/>
<path d="M212.4,274.6l-5.9,-4.9l-5.1,12.7Z" class="g9_105"/>
<image clip-path="url(#ca_105)" x="175" y="285" width="6" height="10" xlink:href="shade/1.png"/>
<image clip-path="url(#cb_105)" x="175" y="259" width="24" height="28" xlink:href="shade/2.png"/>
<image clip-path="url(#cc_105)" x="174" y="261" width="24" height="34" xlink:href="shade/3.png"/>
<image clip-path="url(#cd_105)" x="180" y="257" width="20" height="10" xlink:href="shade/4.png"/>
<image clip-path="url(#ce_105)" x="826" y="312" width="5" height="9" xlink:href="shade/5.png"/>
<image clip-path="url(#cf_105)" x="825" y="285" width="24" height="28" xlink:href="shade/6.png"/>
<image clip-path="url(#cg_105)" x="825" y="288" width="23" height="33" xlink:href="shade/7.png"/>
<image clip-path="url(#ch_105)" x="830" y="284" width="20" height="10" xlink:href="shade/8.png"/>
<path d="M154.5,942.7V914c0,0,0,-4.3,4.3,-4.3H862.4c0,0,4.4,0,4.4,4.3v29.2" class="gm_105"/>
<path d="M200.1,910.3c2.6,0,4.8,-2.2,4.8,-4.8c0,-2.7,-2.2,-4.8,-4.8,-4.8c-2.7,0,-4.8,2.1,-4.8,4.8c0,2.6,2.1,4.8,4.8,4.8Z" class="g1_105"/>
<path d="M200.1,912.2c3.6,0,6.6,-3.1,6.6,-6.7c0,-3.7,-3,-6.7,-6.6,-6.7c-3.7,0,-6.7,3,-6.7,6.7c0,3.6,3,6.7,6.7,6.7m0,-11.5c2.6,0,4.8,2.1,4.8,4.8c0,2.6,-2.2,4.8,-4.8,4.8c-2.7,0,-4.8,-2.2,-4.8,-4.8c0,-2.7,2.1,-4.8,4.8,-4.8Z" class="gn_105"/>
<path d="M205.5,914.1H194.6c-.1,0,-.3,0,-.4,0c2.7,1,4.9,3.3,5.9,6.2c1.3,-.5,2.7,-.8,4.2,-.8c2.9,0,5.5,1,7.5,2.6v-1.7c0,-3.5,-2.8,-6.3,-6.3,-6.3Z" class="g1_105"/>
<path d="M184,911.1c3.4,0,6.1,-2.8,6.1,-6.1c0,-3.4,-2.7,-6.2,-6.1,-6.2c-3.4,0,-6.1,2.8,-6.1,6.2c0,3.3,2.7,6.1,6.1,6.1Z" class="go_105"/>
<path d="M184,913c4.4,0,8,-3.6,8,-8c0,-4.5,-3.6,-8.1,-8,-8.1c-4.4,0,-8,3.6,-8,8.1c0,4.4,3.6,8,8,8m0,-14.2c3.4,0,6.1,2.8,6.1,6.2c0,3.3,-2.7,6.1,-6.1,6.1c-3.4,0,-6.1,-2.8,-6.1,-6.1c0,-3.4,2.7,-6.2,6.1,-6.2Z" class="gn_105"/>
<path d="M198.4,921.1c-1,-3.3,-4.1,-5.8,-7.7,-5.8H177.3c-4.4,0,-8,3.6,-8,8v4.3h23.8c.9,-2.7,2.8,-5,5.3,-6.5Z" class="go_105"/>
<path d="M204.3,921.4c-5.5,0,-9.9,4.4,-9.9,9.9c0,5.5,4.4,10,9.9,10c5.5,0,10,-4.5,10,-10c0,-5.5,-4.5,-9.9,-10,-9.9M211,933c0,.3,-.2,.5,-.5,.5h-4v4c0,.3,-.2,.5,-.5,.5h-3.3c-.3,0,-.5,-.2,-.5,-.5v-4h-4.1c-.2,0,-.4,-.2,-.4,-.5v-3.3c0,-.3,.2,-.5,.4,-.5h4.1v-4.1c0,-.2,.2,-.4,.5,-.4H206c.3,0,.5,.2,.5,.4v4.1h4c.3,0,.5,.2,.5,.5Z" class="gp_105"/>
<path d="M213.7,924.1v-3.7c0,-4.5,-3.7,-8.2,-8.2,-8.2H194.6c-1.6,0,-3.1,.4,-4.3,1.2h-13c-5.4,0,-9.9,4.5,-9.9,9.9v5.3c0,.5,.4,.9,1,.9h24.2c-.1,.6,-.1,1.2,-.1,1.8c0,6.6,5.3,11.9,11.8,11.9c6.6,0,11.9,-5.3,11.9,-11.9c0,-2.7,-.9,-5.2,-2.5,-7.2m-9.4,17.2c-5.5,0,-9.9,-4.5,-9.9,-10c0,-5.5,4.4,-9.9,9.9,-9.9c5.5,0,10,4.4,10,9.9c0,5.5,-4.5,10,-10,10m-35,-18c0,-4.4,3.6,-8,8,-8h13.4c3.6,0,6.7,2.5,7.7,5.8c-2.5,1.5,-4.4,3.8,-5.3,6.5H169.3Zm42.5,-1.2c-2,-1.6,-4.6,-2.6,-7.5,-2.6c-1.5,0,-2.9,.3,-4.2,.8c-1,-2.9,-3.2,-5.2,-5.9,-6.2c.1,0,.3,0,.4,0h10.9c3.5,0,6.3,2.8,6.3,6.3Z" class="gn_105"/>
<path d="M205.5,929.7v-4.1h-2.4v4.1c0,.2,-.2,.4,-.4,.4h-4.1v2.5h4.1c.2,0,.4,.2,.4,.4v4.1h2.4V933c0,-.2,.3,-.4,.5,-.4h4.1v-2.5H206c-.2,0,-.5,-.2,-.5,-.4Z" class="g1_105"/>
<path d="M210.5,929.2h-4v-4.1c0,-.2,-.2,-.4,-.5,-.4h-3.3c-.3,0,-.5,.2,-.5,.4v4.1h-4.1c-.2,0,-.4,.2,-.4,.5V933c0,.3,.2,.5,.4,.5h4.1v4c0,.3,.2,.5,.5,.5H206c.3,0,.5,-.2,.5,-.5v-4h4c.3,0,.5,-.2,.5,-.5v-3.3c0,-.3,-.2,-.5,-.5,-.5m-.4,3.4H206c-.2,0,-.5,.2,-.5,.4v4.1h-2.4V933c0,-.2,-.2,-.4,-.4,-.4h-4.1v-2.5h4.1c.2,0,.4,-.2,.4,-.4v-4.1h2.4v4.1c0,.2,.3,.4,.5,.4h4.1Z" class="gn_105"/>
<path d="M154.1,952.9v189.6m4.6,2.2H864.9m2.2,-4.5V950.6m-4.5,-2.3H156.4" class="gq_105"/>
<path d="M154.1,1144.7v0m713.1,0v0m0,-196.4v0m-713.1,0v0" class="gr_105"/>
<path d="M32.1,45.1H9.2m958.3,0h22.9M32.1,1331.3H9.2m958.3,0h22.9M45.1,32.1V9.2m0,1335.1v22.9M954.5,32.1V9.2m0,1335.1v22.9" class="gs_105"/>
<path d="M32.1,45.1H9.2m958.3,0h22.9M32.1,1331.3H9.2m958.3,0h22.9M45.1,32.1V9.2m0,1335.1v22.9M954.5,32.1V9.2m0,1335.1v22.9" class="gt_105"/>
<path d="M27.5,32.1H0m972.1,0h27.5M27.5,1344.3H0m972.1,0h27.5M32.1,27.5V0m0,1348.9v27.5M967.5,27.5V0m0,1348.9v27.5" class="gs_105"/>
<path d="M27.5,32.1H0m972.1,0h27.5M27.5,1344.3H0m972.1,0h27.5M32.1,27.5V0m0,1348.9v27.5M967.5,27.5V0m0,1348.9v27.5" class="gt_105"/>
</svg>