<?xml version="1.0" encoding="UTF-8" standalone="no"?>
<!DOCTYPE svg PUBLIC "-//W3C//DTD SVG 1.1//EN"
"http://www.w3.org/Graphics/SVG/1.1/DTD/svg11.dtd">
<svg viewBox="0 0 999 1376" version="1.1" xmlns="http://www.w3.org/2000/svg" xmlns:xlink="http://www.w3.org/1999/xlink">
<defs>
<clipPath id="c0_106"><path d="M581,600.1V536.8h72.1v63.3Z"/></clipPath>
<clipPath id="c1_106"><path d="M713.4,600.1V536.8h78.9v63.3Z"/></clipPath>
<clipPath id="c2_106"><path d="M583.2,706.2V643h63.2v63.2Z"/></clipPath>
<clipPath id="c3_106"><path d="M719.4,706.2V642.8h71.9v63.4Z"/></clipPath>
<clipPath id="c4_106"><path d="M581,810.4V747.1h70.1v63.3Z"/></clipPath>
<clipPath id="c5_106"><path d="M722.6,810.3V747.1h63.2v63.2Z"/></clipPath>
<clipPath id="c6_106"><path d="M195.6,308.8V246.5h63.2v62.3Z"/></clipPath>
<clipPath id="c7_106"><path d="M334.3,309.6V246.5h63.2v63.1Z"/></clipPath>
<clipPath id="c8_106"><path d="M662.2,1087.7v-80h81v80Z"/></clipPath>
<clipPath id="c9_106"><path d="M518.9,1086.4v-76.2h76.2v76.2Z"/></clipPath>
<clipPath id="ca_106"><path d="M375.7,1087.9v-80.2h80.8v80.2Z"/></clipPath>
<clipPath id="cb_106"><path d="M176.6,231.7l-6.5,-2.1l-16.4,-14V158.5h72v73.2Z"/></clipPath>
<clipPath id="cc_106"><path d="M176.6,936.2l-6.5,-2.1L153.7,920.2V863.1h72v73.1Z"/></clipPath>
<style type="text/css"><![CDATA[
.g0_106{
fill: #FEFCF4;
}
.g1_106{
fill: #FFF;
}
.g2_106{
fill: none;
stroke: #27639D;
stroke-width: 0.763;
}
.g3_106{
fill: none;
stroke: #949698;
stroke-width: 0.311;
}
.g4_106{
fill: none;
stroke: #231F20;
stroke-width: 1.527;
stroke-miterlimit: 3;
}
.g5_106{
fill: #EDF8FB;
}
.g6_106{
fill: #EEDEBF;
}
.g7_106{
fill: #6381B7;
}
.g8_106{
fill: none;
stroke: #6381B7;
stroke-width: 0.381;
stroke-dasharray: 2,1;
}
.g9_106{
fill: none;
stroke: #6381B7;
stroke-width: 0.381;
}
.ga_106{
fill: #FCE8B0;
}
.gb_106{
fill: #25408F;
}
.gc_106{
fill: #00BAF1;
}
.gd_106{
fill: #332D2C;
}
.ge_106{
fill: #D9DFF0;
}
.gf_106{
fill: #F27C85;
}
.gg_106{
fill: #7DD3F6;
}
.gh_106{
fill: none;
stroke: #FFF;
stroke-width: 1.909;
stroke-miterlimit: 10;
}
.gi_106{
fill: none;
stroke: #000;
stroke-width: 0.381;
stroke-miterlimit: 10;
}
]]></style>
</defs>
<path d="M32.1,1344.3H954.5V32.1H32.1V1344.3Z" class="g0_106"/>
<path d="M150.4,133.7c0,0,-18.3,0,-18.3,18.3V838.4c0,0,0,18.3,18.3,18.3H827.5c0,0,18.4,0,18.4,-18.3V133.7Z" class="g1_106"/>
<path d="M150.4,133.7c0,0,-18.3,0,-18.3,18.3V838.4c0,0,0,18.3,18.3,18.3H827.5c0,0,18.4,0,18.4,-18.3V133.7H150.4Z" class="g2_106"/>
<path d="M568.5,600.1h93V536.8h-93v63.3Z" class="g1_106"/>
<image clip-path="url(#c0_106)" preserveAspectRatio="none" x="581" y="535" width="72" height="65" xlink:href="img/1.jpg"/>
<path d="M568.5,600.1h93V536.8h-93v63.3Z" class="g3_106"/>
<path d="M706.5,600.1h93V536.8h-93v63.3Z" class="g1_106"/>
<image clip-path="url(#c1_106)" preserveAspectRatio="none" x="713" y="535" width="79" height="67" xlink:href="img/2.jpg"/>
<path d="M706.5,600.1h93V536.8h-93v63.3Z" class="g3_106"/>
<path d="M161,543.3c-.3,0,-.6,.1,-.8,.3c-.2,.3,-.3,.5,-.3,.8c0,.4,.1,.6,.3,.8c.2,.3,.5,.4,.8,.4c.3,0,.5,-.1,.7,-.4c.3,-.2,.4,-.4,.4,-.8c0,-.3,-.1,-.5,-.4,-.8c-.2,-.2,-.4,-.3,-.7,-.3Zm0,42.8c-.3,0,-.6,.1,-.8,.3c-.2,.2,-.3,.5,-.3,.8c0,.3,.1,.6,.3,.8c.2,.2,.5,.4,.8,.4c.3,0,.5,-.2,.7,-.4c.3,-.2,.4,-.5,.4,-.8c0,-.3,-.1,-.6,-.4,-.8c-.2,-.2,-.4,-.3,-.7,-.3Z" class="g4_106"/>
<path d="M568.5,706.2h93V642.8h-93v63.4Z" class="g1_106"/>
<image clip-path="url(#c2_106)" preserveAspectRatio="none" x="583" y="643" width="63" height="63" xlink:href="img/3.jpg"/>
<path d="M568.5,706.2h93V642.8h-93v63.4Z" class="g3_106"/>
<path d="M706.5,706.2h93V642.8h-93v63.4Z" class="g1_106"/>
<image clip-path="url(#c3_106)" preserveAspectRatio="none" x="719" y="641" width="72" height="67" xlink:href="img/4.jpg"/>
<path d="M706.5,706.2h93V642.8h-93v63.4Z" class="g3_106"/>
<path d="M161,651.5c-.3,0,-.6,.1,-.8,.4c-.2,.2,-.3,.5,-.3,.8c0,.3,.1,.6,.3,.8c.2,.2,.5,.3,.8,.3c.3,0,.5,-.1,.7,-.3c.3,-.2,.4,-.5,.4,-.8c0,-.3,-.1,-.6,-.4,-.8c-.2,-.3,-.4,-.4,-.7,-.4Zm0,45.9c-.3,0,-.6,.1,-.8,.3c-.2,.2,-.3,.5,-.3,.8c0,.3,.1,.6,.3,.8c.2,.2,.5,.3,.8,.3c.3,0,.5,-.1,.7,-.3c.3,-.2,.4,-.5,.4,-.8c0,-.3,-.1,-.6,-.4,-.8c-.2,-.2,-.4,-.3,-.7,-.3Z" class="g4_106"/>
<path d="M568.5,810.4h93V747.1h-93v63.3Z" class="g1_106"/>
<image clip-path="url(#c4_106)" preserveAspectRatio="none" x="581" y="745" width="70" height="67" xlink:href="img/5.jpg"/>
<path d="M568.5,810.4h93V747.1h-93v63.3Z" class="g3_106"/>
<path d="M706.5,810.4h93V747.1h-93v63.3Z" class="g1_106"/>
<image clip-path="url(#c5_106)" preserveAspectRatio="none" x="723" y="747" width="63" height="63" xlink:href="img/6.jpg"/>
<path d="M706.5,810.4h93V747.1h-93v63.3Z" class="g3_106"/>
<path d="M161,753.6c-.3,0,-.6,.1,-.8,.4c-.2,.2,-.3,.5,-.3,.8c0,.3,.1,.6,.3,.8c.2,.2,.5,.3,.8,.3c.3,0,.5,-.1,.7,-.3c.3,-.2,.4,-.5,.4,-.8c0,-.3,-.1,-.6,-.4,-.8c-.2,-.3,-.4,-.4,-.7,-.4Zm0,42.8c-.3,0,-.6,.1,-.8,.3c-.2,.3,-.3,.5,-.3,.9c0,.3,.1,.5,.3,.8c.2,.2,.5,.3,.8,.3c.3,0,.5,-.1,.7,-.3c.3,-.3,.4,-.5,.4,-.8c0,-.4,-.1,-.6,-.4,-.9c-.2,-.2,-.4,-.3,-.7,-.3ZM452.9,265.1c-.3,0,-.6,.1,-.8,.3c-.2,.2,-.3,.5,-.3,.8c0,.3,.1,.6,.3,.8c.2,.2,.5,.3,.8,.3c.3,0,.5,-.1,.7,-.3c.3,-.2,.4,-.5,.4,-.8c0,-.3,-.1,-.6,-.4,-.8c-.2,-.2,-.4,-.3,-.7,-.3Zm0,24.4c-.3,0,-.6,.1,-.8,.3c-.2,.3,-.3,.5,-.3,.8c0,.4,.1,.6,.3,.8c.2,.3,.5,.4,.8,.4c.3,0,.5,-.1,.7,-.4c.3,-.2,.4,-.4,.4,-.8c0,-.3,-.1,-.5,-.4,-.8c-.2,-.2,-.4,-.3,-.7,-.3Z" class="g4_106"/>
<path d="M183.1,309.8H276V246.5H183.1v63.3Z" class="g1_106"/>
<image clip-path="url(#c6_106)" preserveAspectRatio="none" x="196" y="246" width="63" height="63" xlink:href="img/7.jpg"/>
<path d="M183.1,309.8H276V246.5H183.1v63.3Z" class="g3_106"/>
<path d="M318.2,309.8h92.9V246.5H318.2v63.3Z" class="g1_106"/>
<image clip-path="url(#c7_106)" preserveAspectRatio="none" x="334" y="246" width="63" height="64" xlink:href="img/8.jpg"/>
<path d="M318.2,309.8h92.9V246.5H318.2v63.3Z" class="g3_106"/>
<path d="M452.9,436.6c-.3,0,-.6,.2,-.8,.4c-.2,.2,-.3,.5,-.3,.8c0,.3,.1,.6,.3,.8c.2,.2,.5,.3,.8,.3c.3,0,.5,-.1,.7,-.3c.3,-.2,.4,-.5,.4,-.8c0,-.3,-.1,-.6,-.4,-.8c-.2,-.2,-.4,-.4,-.7,-.4Zm0,47.1c-.3,0,-.6,.2,-.8,.4c-.2,.2,-.3,.5,-.3,.8c0,.3,.1,.6,.3,.8c.2,.2,.5,.3,.8,.3c.3,0,.5,-.1,.7,-.3c.3,-.2,.4,-.5,.4,-.8c0,-.3,-.1,-.6,-.4,-.8c-.2,-.2,-.4,-.4,-.7,-.4Z" class="g4_106"/>
<path d="M183.1,493.4H276V430.1H183.1v63.3Z" class="g1_106"/>
<image preserveAspectRatio="none" x="205" y="437" width="56" height="56" xlink:href="img/9.jpg"/>
<path d="M183.1,493.4H276V430.1H183.1v63.3Z" class="g3_106"/>
<path d="M318.2,493.4h92.9V430.1H318.2v63.3Z" class="g1_106"/>
<image preserveAspectRatio="none" x="331" y="430" width="63" height="63" xlink:href="img/10.jpg"/>
<path d="M318.2,493.4h92.9V430.1H318.2v63.3Z" class="g3_106"/>
<path d="M183.1,401.6H276V338.3H183.1v63.3Z" class="g1_106"/>
<image preserveAspectRatio="none" x="199" y="338" width="64" height="63" xlink:href="img/11.jpg"/>
<path d="M183.1,401.6H276V338.3H183.1v63.3Z" class="g3_106"/>
<path d="M318.2,401.6h92.9V338.3H318.2v63.3Z" class="g1_106"/>
<image preserveAspectRatio="none" x="332" y="338" width="63" height="63" xlink:href="img/12.jpg"/>
<path d="M318.2,401.6h92.9V338.3H318.2v63.3Z" class="g3_106"/>
<path d="M452.9,345c-.3,0,-.6,.1,-.8,.4c-.2,.2,-.3,.5,-.3,.8c0,.3,.1,.6,.3,.8c.2,.2,.5,.3,.8,.3c.3,0,.5,-.1,.7,-.3c.3,-.2,.4,-.5,.4,-.8c0,-.3,-.1,-.6,-.4,-.8c-.2,-.3,-.4,-.4,-.7,-.4Zm0,42.8c-.3,0,-.6,.1,-.8,.3c-.2,.3,-.3,.5,-.3,.8c0,.4,.1,.6,.3,.9c.2,.2,.5,.3,.8,.3c.3,0,.5,-.1,.7,-.3c.3,-.3,.4,-.5,.4,-.9c0,-.3,-.1,-.5,-.4,-.8c-.2,-.2,-.4,-.3,-.7,-.3Z" class="g4_106"/>
<path d="M149.4,946.2c0,0,-17.3,0,-17.3,17.4v215.7c0,0,0,17.4,17.3,17.4H828.6c0,0,17.3,0,17.3,-17.4V963.6c0,0,0,-17.4,-17.3,-17.4Z" class="g1_106"/>
<path d="M149.4,946.2c0,0,-17.3,0,-17.3,17.4v215.7c0,0,0,17.4,17.3,17.4H828.6c0,0,17.3,0,17.3,-17.4V963.6c0,0,0,-17.4,-17.3,-17.4H149.4Z" class="g2_106"/>
<image clip-path="url(#c8_106)" preserveAspectRatio="none" x="661" y="1006" width="82" height="82" xlink:href="img/13.jpg"/>
<image clip-path="url(#c9_106)" preserveAspectRatio="none" x="519" y="1010" width="76" height="76" xlink:href="img/14.jpg"/>
<image clip-path="url(#ca_106)" preserveAspectRatio="none" x="376" y="1007" width="80" height="81" xlink:href="img/15.jpg"/>
<image preserveAspectRatio="none" x="226" y="1011" width="77" height="77" xlink:href="img/16.jpg"/>
<path d="M257.3,1098.7c2,0,3.6,-1.6,3.6,-3.6c0,-2,-1.6,-3.6,-3.6,-3.6c-2,0,-3.6,1.6,-3.6,3.6c0,2,1.6,3.6,3.6,3.6Z" class="g5_106"/>
<path d="M559,1098.7c2,0,3.6,-1.6,3.6,-3.6c0,-2,-1.6,-3.6,-3.6,-3.6c-2,0,-3.6,1.6,-3.6,3.6c0,2,1.6,3.6,3.6,3.6Z" class="g5_106"/>
<path d="M413.2,1098.7c2,0,3.6,-1.6,3.6,-3.6c0,-2,-1.6,-3.6,-3.6,-3.6c-2,0,-3.6,1.6,-3.6,3.6c0,2,1.6,3.6,3.6,3.6Z" class="g5_106"/>
<path d="M704.8,1098.7c2,0,3.6,-1.6,3.6,-3.6c0,-2,-1.6,-3.6,-3.6,-3.6c-2,0,-3.6,1.6,-3.6,3.6c0,2,1.6,3.6,3.6,3.6Z" class="g5_106"/>
<path d="M257.3,1136.2c2,0,3.6,-1.6,3.6,-3.6c0,-2,-1.6,-3.6,-3.6,-3.6c-2,0,-3.6,1.6,-3.6,3.6c0,2,1.6,3.6,3.6,3.6Z" class="g5_106"/>
<path d="M559,1136.2c2,0,3.6,-1.6,3.6,-3.6c0,-2,-1.6,-3.6,-3.6,-3.6c-2,0,-3.6,1.6,-3.6,3.6c0,2,1.6,3.6,3.6,3.6Z" class="g5_106"/>
<path d="M413.2,1136.2c2,0,3.6,-1.6,3.6,-3.6c0,-2,-1.6,-3.6,-3.6,-3.6c-2,0,-3.6,1.6,-3.6,3.6c0,2,1.6,3.6,3.6,3.6Z" class="g5_106"/>
<path d="M704.8,1136.2c2,0,3.6,-1.6,3.6,-3.6c0,-2,-1.6,-3.6,-3.6,-3.6c-2,0,-3.6,1.6,-3.6,3.6c0,2,1.6,3.6,3.6,3.6Z" class="g5_106"/>
<path d="M229.9,1150.6c0,0,-8.7,0,-8.7,8.7v15.2c0,0,0,8.6,8.7,8.6h69.2c0,0,8.7,0,8.7,-8.6v-15.2c0,0,0,-8.7,-8.7,-8.7Z" class="g6_106"/>
<path d="M527.9,1150.6c0,0,-8.6,0,-8.6,8.7v15.2c0,0,0,8.6,8.6,8.6h69.3c0,0,8.7,0,8.7,-8.6v-15.2c0,0,0,-8.7,-8.7,-8.7Z" class="g6_106"/>
<path d="M378.9,1150.6c0,0,-8.7,0,-8.7,8.7v15.2c0,0,0,8.6,8.7,8.6h69.3c0,0,8.7,0,8.7,-8.6v-15.2c0,0,0,-8.7,-8.7,-8.7Z" class="g6_106"/>
<path d="M677,1150.6c0,0,-8.7,0,-8.7,8.7v15.2c0,0,0,8.6,8.7,8.6h69.3c0,0,8.7,0,8.7,-8.6v-15.2c0,0,0,-8.7,-8.7,-8.7Z" class="g6_106"/>
<path d="M640.3,1214.8c0,0,-4.4,0,-4.4,4.4V1230c0,0,0,4.3,4.4,4.3h30.3c0,0,4.3,0,4.3,-4.3v-10.8c0,0,0,-4.4,-4.3,-4.4Z" class="g7_106"/>
<path d="M627.1,1206v37.5m1.3,1H845.1m1,-1.3v-37.6m-1.4,-1H628.1" class="g8_106"/>
<path d="M627.1,1243.9v.6h.6m217.8,0h.6v-.6m0,-38.7v-.6h-.6m-217.8,0h-.6v.6" class="g9_106"/>
<path d="M209.2,187.6c0,0,-13,0,-13,12.9v21.7c0,0,0,13,13,13h602c0,0,13,0,13,-13V200.5c0,0,0,-12.9,-13,-12.9Z" class="ga_106"/>
<image clip-path="url(#cb_106)" preserveAspectRatio="none" x="152" y="157" width="75" height="76" xlink:href="img/17.png"/>
<path d="M204,227c0,0,-26.8,11.3,-51.1,-12.8c0,0,15.2,25.3,49.3,24c0,0,24.8,.3,20.3,-10.2c0,0,1.2,-4.4,-18.5,-1Z" class="ga_106"/>
<path d="M209.2,891.2c0,0,-13,0,-13,13v21.7c0,0,0,12.9,13,12.9H833.3c0,0,13,0,13,-12.9V904.2c0,0,0,-13,-13,-13Z" class="ga_106"/>
<image clip-path="url(#cc_106)" preserveAspectRatio="none" x="152" y="861" width="75" height="77" xlink:href="img/18.png"/>
<path d="M204,931.5c0,0,-26.8,11.3,-51.1,-12.8c0,0,15.2,25.3,49.3,24c0,0,24.8,.3,20.3,-10.1c0,0,1.2,-4.5,-18.5,-1.1Z" class="ga_106"/>
<path d="M131.7,126.7v22.2l11.7,10.3V137Z" class="gb_106"/>
<path d="M131.7,109.9v39H829.4c0,0,16.9,0,16.9,-16.8v-5.4c0,0,0,-16.8,-16.9,-16.8Z" class="g7_106"/>
<path d="M189.6,121.3l-6.4,-6.5L162,136l6.4,6.5Z" class="gc_106"/>
<path d="M168.4,143c.2,0,.3,0,.4,-.1L190,121.7c.1,-.1,.2,-.3,.2,-.4c0,-.1,-.1,-.3,-.2,-.4l-6.5,-6.4c-.2,-.2,-.5,-.2,-.7,0l-21.2,21.2c-.1,.1,-.2,.2,-.2,.3c0,.2,.1,.3,.2,.4l6.5,6.5c.1,.1,.2,.1,.3,.1m20.5,-21.7l-20.5,20.5L162.7,136l20.5,-20.4Z" class="gd_106"/>
<path d="M189.6,121.3l-6.4,-6.5l2.1,-2.1l6.5,6.5Z" class="ge_106"/>
<path d="M189.6,121.8c.2,0,.3,0,.4,-.1l2.1,-2.1c.1,-.1,.2,-.3,.2,-.4c0,-.2,-.1,-.3,-.2,-.4l-6.4,-6.5c-.2,-.2,-.6,-.2,-.8,0l-2.1,2.2c-.1,0,-.2,.2,-.2,.3c0,.2,.1,.3,.2,.4l6.5,6.5c.1,.1,.2,.1,.3,.1m1.4,-2.6l-1.4,1.4l-5.7,-5.8l1.4,-1.4Z" class="gd_106"/>
<path d="M195.4,115.6l-6.5,-6.5l-3.6,3.6l6.5,6.5Z" class="gf_106"/>
<path d="M191.8,119.7c.1,0,.2,0,.3,-.1l3.7,-3.7c.2,-.2,.2,-.5,0,-.7l-6.5,-6.5c-.2,-.2,-.6,-.2,-.8,0l-3.6,3.6c-.2,.2,-.2,.6,0,.8l6.5,6.5c.1,.1,.2,.1,.4,.1m2.8,-4.1l-2.8,2.8L186,112.7l2.9,-2.9Z" class="gd_106"/>
<path d="M157.3,147.2L162,136l6.4,6.5Z" class="g1_106"/>
<path d="M157.3,147.7c.1,0,.2,0,.2,-.1L168.6,143c.2,-.1,.3,-.2,.4,-.4c0,-.2,-.1,-.3,-.2,-.5l-6.5,-6.4c-.1,-.2,-.3,-.2,-.5,-.2c-.1,.1,-.3,.2,-.3,.3l-4.7,11.1c0,.2,0,.5,.1,.6c.1,.1,.3,.2,.4,.2m10.2,-5.4l-9.2,3.9l3.8,-9.2Z" class="gd_106"/>
<path d="M157.3,147.2l2.3,-5.4l3.1,3.1Z" class="gd_106"/>
<path d="M157.3,147.7c.1,0,.2,0,.2,-.1l5.4,-2.2c.1,-.1,.3,-.2,.3,-.4c0,-.2,0,-.3,-.1,-.5l-3.2,-3.1c-.1,-.1,-.3,-.2,-.4,-.1c-.2,0,-.4,.1,-.4,.3l-2.3,5.3c0,.2,0,.5,.1,.6c.1,.1,.3,.2,.4,.2m4.5,-3l-3.5,1.5l1.4,-3.5Z" class="gd_106"/>
<path d="M187.9,119.5l-3,-2.9l-21.2,21.2l3,3Z" class="gg_106"/>
<path d="M166.7,141.3c.1,0,.2,-.1,.3,-.2l21.3,-21.2c.1,-.1,.1,-.2,.1,-.4c0,-.1,0,-.2,-.1,-.3l-3,-3c-.2,-.2,-.5,-.2,-.8,0l-21.2,21.2c-.1,.1,-.1,.3,-.1,.4c0,.1,0,.3,.1,.4l3,2.9c.1,.1,.2,.2,.4,.2m20.4,-21.8L166.7,140l-2.2,-2.2l20.4,-20.5Z" class="gd_106"/>
<path d="M32.1,45.1H9.2m958.3,0h22.9M32.1,1331.3H9.2m958.3,0h22.9M45.1,32.1V9.2m0,1335.1v22.9M954.5,32.1V9.2m0,1335.1v22.9" class="gh_106"/>
<path d="M32.1,45.1H9.2m958.3,0h22.9M32.1,1331.3H9.2m958.3,0h22.9M45.1,32.1V9.2m0,1335.1v22.9M954.5,32.1V9.2m0,1335.1v22.9" class="gi_106"/>
<path d="M27.5,32.1H0m972.1,0h27.5M27.5,1344.3H0m972.1,0h27.5M32.1,27.5V0m0,1348.9v27.5M967.5,27.5V0m0,1348.9v27.5" class="gh_106"/>
<path d="M27.5,32.1H0m972.1,0h27.5M27.5,1344.3H0m972.1,0h27.5M32.1,27.5V0m0,1348.9v27.5M967.5,27.5V0m0,1348.9v27.5" class="gi_106"/>
</svg>