<?xml version="1.0" encoding="UTF-8" standalone="no"?>
<!DOCTYPE svg PUBLIC "-//W3C//DTD SVG 1.1//EN"
"http://www.w3.org/Graphics/SVG/1.1/DTD/svg11.dtd">
<svg viewBox="0 0 999 1376" version="1.1" xmlns="http://www.w3.org/2000/svg" xmlns:xlink="http://www.w3.org/1999/xlink">
<defs>
<clipPath id="c0_101"><path d="M32.1,1344.3V32.1H967.5V1344.3Z"/></clipPath>
<clipPath id="c1_101"><path d="M215,784.3V705.6H831.1v78.7Z"/></clipPath>
<clipPath id="c2_101"><path d="M215,940.3V835.8H831.1V940.3Z"/></clipPath>
<clipPath id="c3_101"><path d="M215,1096.5V992H831.1v104.5Z"/></clipPath>
<clipPath id="c4_101"><path d="M231,411v-1.2h-1.2v-1.1h-3.4v-1.2h-1.1V392.7h-1.2V372.2H223V358.6h-1.2v-1.2h16v-1.1H256v-3.4h4.6v-1.2h9.1v1.2h1.2v3.4h5.7v1.1h30.7v1.2h1.2v1.1h-1.2v45.6h-1.1v1.1h-4.6v3.4h-7.9v-2.3h-24v1.2H237.8V411Z"/></clipPath>
<clipPath id="c5_101"><path d="M294.7,520.8V520H282v-.7h-6v-.8h-5.3v-.7h-6v.7h-12v.8H238.5v-.8h-3v-.7H234V517h-.7v-.7h-.8v-.8h-.7v-.7H231v-1.5h-.7V511h-.8v-6.7h.8v-.8h-.8v-9h-.7v-.7h.7v-4.5H231V487h.8v-2.2h.7V484h-.7v-8.2H231v-3h-.7v-9h-.8v-3.7h.8v-3h.7v-1.5h.8v-1.5h.7v-1.5h.8v-.8h.7v-.7h.8v-.8h.7v-.7h.8v-.8h1.4v-.7h.8v-.8H240v-.7h1.5v-.8h2.2v-.7h3v-.8H249v-.7h3v-.8h7.5v.8h3v.7h3v.8h5.2v.7h19.5v.8H294v.7h2.2v.8h1.5v.7h1.5v.8h.8v.7h.7v.8h.8v.7h.7v.8h.8v1.5h.7v1.5h.8v1.5h.7v3h.8v3.7h.7V475H306v4.5h-.8V490h.8v8.3h.7v5.2h.8v5.3h-.8v3H306V514h-.8v1.5h-.7V517h-.8v.8H303v.7h-1.5v.8H300v.7h-2.3v.8Z"/></clipPath>
<clipPath id="c6_101"><path d="M233.6,613.3v-.8h-2.3v-.8h-1.6v-.8h-1.6v-.8h-.7v-.7h-.8v-1.6h-.8v-1.6H225v-7h.8v-1.5h.8v-.8h.8v-.8h.7v-.8h2.4v-.7h3.1v-.8h3.9v-8.6h.8v-1.6h.7v-.7h.8v-.8h1.6v.8h.8v.7h.7v1.6h.8v.8h.8v3.9h.8v-.8h.8v-.8h2.3v-.8h4.7v.8h1.5v.8h-.7v3.1h1.5v-4.7h.8v-3.1h-.8v.8h-7.8v-.8h-.8v-3.9h.8V579h.8v-.8h.8v-.8h.8v-.8h.7v-.8h.8v-.7h1.6v-.8h1.5v-.8h.8v-.8h.8V572h1.6v-.8h.7v-.8h1.6v-.8h.8v-.8h-3.1v.8h-1.6v-.8h-.8v-.7h-3.9v-.8h-.8v-3.1h.8v-.8H250v-3.9h.7v-.8h.8v-.8h2.4v-4.7h.7v-1.5h-.7V541.5h.7V540h.8v-.8H257v-.8h.8v-.7h1.5v-.8h1.6v-.8H264v-.8h4.7v.8h-.8v.8h7.8v.8h3.1v.7h.8v.8h1.5v.8h.8v1.5h-.8v2.4h-.7v.8h-.8v.7h.8v.8h.7v.8h.8v.8h.8v1.5h.8v3.9h-.8v1.6h-.8v1.6h-.8v.7h-1.5v4.7h-.8v3.1H278v1.6h-.8v1.6h.8v-.8h7v-.8h1.6v-.8h1.6v.8h.7v.8h1.6v.8h1.6v.7h.7V572h-.7v.7h-1.6v.8h-2.3v.8h-5.5v.8h-.8v.7h-.8v1.6h-.7v.8h-.8v.8h-4.7v1.5h2.3v.8h.8v.8h10.2v.8h.7v.7h.8v.8h-.8V586h3.2v2.3h-.8v.8h2.3v-.8h8.6v.8h1.5v.8h.8v.8h.8V593h.8v1.6h.8v7h-.8v1.5h-.8v.8h-1.6v.8H303v.8h-1.6v.7h-2.3v.8H296v.8h-4.7v.8h-7.8v.8h-9.4v.7h-6.2v.8h-4.7v.8h-4.7v.8h-6.2v.8Z"/></clipPath>
<clipPath id="c7_101"><path d="M682.7,183.5V65.3H865.1V183.5Z"/></clipPath>
<style type="text/css"><![CDATA[
.g0_101{
fill: #FEFCF4;
}
.g1_101{
fill: #F16865;
}
.g2_101{
fill: #6381B7;
}
.g3_101{
fill: none;
stroke: #6381B7;
stroke-width: 0.381;
stroke-dasharray: 2,1;
}
.g4_101{
fill: none;
stroke: #6381B7;
stroke-width: 0.381;
}
.g5_101{
fill: #FEF9F9;
}
.g6_101{
fill: none;
stroke: #A164A9;
stroke-width: 1.527;
stroke-linecap: round;
stroke-linejoin: round;
stroke-dasharray: 0,5;
}
.g7_101{
fill: none;
stroke: #A164A9;
stroke-width: 1.527;
stroke-linecap: round;
stroke-linejoin: round;
}
.g8_101{
fill: #A164A9;
}
.g9_101{
fill: #FFF;
}
.ga_101{
fill: none;
stroke: #231F20;
stroke-width: 0.305;
stroke-miterlimit: 10;
}
.gb_101{
fill: none;
stroke: #FFF;
stroke-width: 1.909;
stroke-miterlimit: 10;
}
.gc_101{
fill: none;
stroke: #000;
stroke-width: 0.381;
stroke-miterlimit: 10;
}
]]></style>
</defs>
<path d="M45.1,1344.3H967.5V32.1H45.1V1344.3Z" class="g0_101"/>
<g clip-path="url(#c0_101)">
<path d="M-877.3,1344.3H45.1V32.1H-877.3V1344.3Z" class="g0_101"/>
<path d="M867.9,166.7c0,0,30.3,0,30.3,-30.3v-4.3c0,0,0,-30.3,-30.3,-30.3H-735.4c0,0,-30.4,0,-30.4,30.3v4.3c0,0,0,30.3,30.4,30.3Z" class="g1_101"/>
</g>
<path d="M592,1164.1c0,0,-4.3,0,-4.3,4.3v10.9c0,0,0,4.3,4.3,4.3h30.3c0,0,4.3,0,4.3,-4.3v-10.9c0,0,0,-4.3,-4.3,-4.3Z" class="g2_101"/>
<path d="M578.8,1155.3v37.5m1.3,1H866.8m.9,-1.4v-37.5m-1.3,-1H579.8" class="g3_101"/>
<path d="M578.8,1193.2v.6h.6m287.7,0h.6v-.6m0,-38.7v-.6h-.6m-287.7,0h-.6v.6" class="g4_101"/>
<path d="M154.1,1144.3h713V251h-713v893.3Z" class="g5_101"/>
<path d="M154.1,255.6V1142m4.6,2.3H864.9m2.2,-4.6V253.3M862.6,251H156.4" class="g6_101"/>
<path d="M154.1,1144.3v0m713.1,0v0m0,-893.3v0m-713.1,0v0" class="g7_101"/>
<path d="M153.3,265.3V227c0,0,0,-8.7,8.7,-8.7H859.3c0,0,8.6,0,8.6,8.7v38.9Z" class="g8_101"/>
<image clip-path="url(#c1_101)" preserveAspectRatio="none" x="215" y="706" width="615" height="78" xlink:href="img/1.png"/>
<path d="M218.3,778.2H824.6V708.9H218.3v69.3Z" class="g9_101"/>
<path d="M298,738.7h78.4" class="ga_101"/>
<image clip-path="url(#c2_101)" preserveAspectRatio="none" x="215" y="836" width="615" height="105" xlink:href="img/2.png"/>
<path d="M218.3,934.4H824.6V839.1H218.3v95.3Z" class="g9_101"/>
<path d="M728.7,868.9H807" class="ga_101"/>
<image clip-path="url(#c3_101)" preserveAspectRatio="none" x="215" y="992" width="615" height="105" xlink:href="img/3.png"/>
<path d="M218.3,1090.6H824.6V995.3H218.3v95.3Z" class="g9_101"/>
<path d="M542.9,1025.1h89.9" class="ga_101"/>
<image clip-path="url(#c4_101)" preserveAspectRatio="none" x="217" y="347" width="96" height="70" xlink:href="img/4.png"/>
<image clip-path="url(#c5_101)" preserveAspectRatio="none" x="227" y="441" width="84" height="81" xlink:href="img/5.jpg"/>
<image clip-path="url(#c6_101)" preserveAspectRatio="none" x="223" y="534" width="88" height="81" xlink:href="img/6.jpg"/>
<image clip-path="url(#c7_101)" preserveAspectRatio="none" x="683" y="65" width="182" height="118" xlink:href="img/7.png"/>
<path d="M32.1,45.1H9.2m958.3,0h22.9M32.1,1331.3H9.2m958.3,0h22.9M45.1,32.1V9.2m0,1335.1v22.9M954.5,32.1V9.2m0,1335.1v22.9" class="gb_101"/>
<path d="M32.1,45.1H9.2m958.3,0h22.9M32.1,1331.3H9.2m958.3,0h22.9M45.1,32.1V9.2m0,1335.1v22.9M954.5,32.1V9.2m0,1335.1v22.9" class="gc_101"/>
<path d="M27.5,32.1H0m972.1,0h27.5M27.5,1344.3H0m972.1,0h27.5M32.1,27.5V0m0,1348.9v27.5M967.5,27.5V0m0,1348.9v27.5" class="gb_101"/>
<path d="M27.5,32.1H0m972.1,0h27.5M27.5,1344.3H0m972.1,0h27.5M32.1,27.5V0m0,1348.9v27.5M967.5,27.5V0m0,1348.9v27.5" class="gc_101"/>
</svg>