<?xml version="1.0" encoding="UTF-8" standalone="no"?>
<!DOCTYPE svg PUBLIC "-//W3C//DTD SVG 1.1//EN"
"http://www.w3.org/Graphics/SVG/1.1/DTD/svg11.dtd">
<svg viewBox="0 0 999 1376" version="1.1" xmlns="http://www.w3.org/2000/svg" xmlns:xlink="http://www.w3.org/1999/xlink">
<defs>
<clipPath id="c0_140"><path d="M32.1,1344.3V32.1H967.5V1344.3Z"/></clipPath>
<clipPath id="c1_140"><path d="M570.5,1170.6V852.3H783.1v318.3Z"/></clipPath>
<clipPath id="c2_140"><path d="M186,735.9l-6.5,-2.1l-16.4,-14V662.7H235v73.2Z"/></clipPath>
<clipPath id="c3_140"><path d="M178.4,137.2c.1,-1.3,.7,-2.5,1.6,-3.4c1,-1,2.4,-1.6,3.9,-1.6h19.2v5Z"/></clipPath>
<clipPath id="c4_140"><path d="M177.9,137.7v-6h25.7v6Z"/></clipPath>
<style type="text/css"><![CDATA[
.g0_140{
fill: #FEFCF4;
}
.g1_140{
fill: #F7F8E9;
}
.g2_140{
fill: none;
stroke: #BFD62F;
stroke-width: 1.527;
stroke-linecap: round;
stroke-linejoin: round;
stroke-dasharray: 0,5;
}
.g3_140{
fill: none;
stroke: #BFD62F;
stroke-width: 1.527;
stroke-linecap: round;
stroke-linejoin: round;
}
.g4_140{
fill: #BFD62F;
}
.g5_140{
fill: #D1232A;
}
.g6_140{
fill: #FFF;
}
.g7_140{
fill: #233D4A;
}
.g8_140{
fill: #FFE293;
}
.g9_140{
fill: #F89C47;
}
.ga_140{
fill: #DCE9F3;
}
.gb_140{
fill: #9BD1EA;
}
.gc_140{
fill: none;
stroke: #58595B;
stroke-width: 0.381;
stroke-miterlimit: 10;
}
.gd_140{
fill: none;
stroke: #6381B7;
stroke-width: 0.763;
}
.ge_140{
fill: #48484A;
}
.gf_140{
fill: #EFEAF4;
}
.gg_140{
fill: #AE8EC2;
}
.gh_140{
fill: none;
stroke: #231F20;
stroke-width: 0.305;
stroke-miterlimit: 10;
}
.gi_140{
fill: #6381B7;
}
.gj_140{
fill: none;
stroke: #6381B7;
stroke-width: 0.381;
stroke-dasharray: 2,1;
}
.gk_140{
fill: none;
stroke: #6381B7;
stroke-width: 0.381;
}
.gl_140{
fill: #FCE8B0;
}
.gm_140{
fill: #25408F;
}
.gn_140{
fill: none;
stroke: #231F20;
stroke-width: 1.527;
}
.go_140{
fill: #39B4D1;
stroke: #2D2A4A;
stroke-width: 1.038;
stroke-linecap: round;
stroke-linejoin: round;
}
.gp_140{
fill: #2D2A4A;
}
.gq_140{
fill: none;
stroke: #2D2A4A;
stroke-width: 1.038;
stroke-linecap: round;
stroke-linejoin: round;
}
.gr_140{
fill: #DEDAD3;
}
.gs_140{
fill: #29263F;
}
.gt_140{
fill: #E15F46;
stroke: #2D2A4A;
stroke-width: 1.038;
stroke-linecap: round;
stroke-linejoin: round;
}
.gu_140{
fill: none;
stroke: #FFF;
stroke-width: 1.909;
stroke-miterlimit: 10;
}
.gv_140{
fill: none;
stroke: #000;
stroke-width: 0.381;
stroke-miterlimit: 10;
}
]]></style>
</defs>
<path clip-path="url(#c0_140)" d="M954.5,1344.3H1877V32.1H954.5V1344.3Z" class="g0_140"/>
<path d="M132.5,644.5h713V446.8h-713V644.5Z" class="g1_140"/>
<path d="M132.5,451.4V642.2m4.5,2.3H843.2m2.3,-4.6V449.1m-4.6,-2.3H134.7" class="g2_140"/>
<path d="M132.5,644.5v0m713,0v0m0,-197.7v0m-713,0v0" class="g3_140"/>
<path d="M131.7,450.1V421.4c0,0,0,-8.6,8.6,-8.6H837.6c0,0,8.7,0,8.7,8.6v29.2Z" class="g4_140"/>
<path d="M153.3,473.5c0,0,4.8,5.5,6.1,12.3c0,0,6.7,-11.3,11.7,-13.9c0,0,-9.3,4.9,-11.1,8.2c0,0,-1.9,-4.3,-6.7,-6.6Z" class="g5_140"/>
<path d="M161.8,441.7l2.9,2.9l8.2,-8.1l-3,-3Z" class="g6_140"/>
<path d="M164.7,445.6v0c.3,0,.6,-.1,.7,-.3l8.2,-8.1c.2,-.2,.3,-.4,.3,-.7c0,-.3,-.1,-.5,-.3,-.7l-3,-3c-.4,-.3,-1,-.3,-1.4,0l-8.1,8.2c-.4,.4,-.4,1,0,1.4l2.9,2.9c.2,.2,.5,.3,.7,.3m6.8,-9.1l-6.8,6.7l-1.5,-1.5l6.7,-6.8Z" class="g7_140"/>
<path d="M168.3,414.7c-6.5,6.5,-6.5,17.1,0,23.7c6.6,6.5,17.2,6.5,23.7,0c6.5,-6.6,6.5,-17.2,0,-23.7c-6.5,-6.5,-17.1,-6.5,-23.7,0Z" class="g8_140"/>
<path d="M180.2,444.3c4.7,0,9.2,-1.9,12.5,-5.2c6.9,-6.9,6.9,-18.2,0,-25.1c-3.3,-3.3,-7.8,-5.2,-12.5,-5.2c-4.8,0,-9.2,1.9,-12.6,5.2c-6.9,6.9,-6.9,18.2,0,25.1c3.4,3.3,7.8,5.2,12.6,5.2m0,-33.5c4.2,0,8.1,1.6,11.1,4.6c6.2,6.1,6.2,16.1,0,22.3c-3,3,-6.9,4.6,-11.1,4.6c-4.2,0,-8.2,-1.6,-11.2,-4.6c-6.1,-6.2,-6.1,-16.2,0,-22.3c3,-3,7,-4.6,11.2,-4.6Z" class="g7_140"/>
<path d="M154.3,446.9l5.3,5.2l8.1,-8.2l-5.2,-5.2Z" class="g9_140"/>
<path d="M159.6,453.1c.2,0,.5,-.1,.7,-.3l8.1,-8.2c.2,-.2,.3,-.4,.3,-.7c0,-.3,-.1,-.5,-.3,-.7L163.2,438c-.4,-.4,-1,-.4,-1.4,0l-8.2,8.2c-.4,.4,-.4,1,0,1.4l5.3,5.2c.2,.2,.4,.3,.7,.3m6.7,-9.2l-6.7,6.8l-3.9,-3.8l6.8,-6.8Z" class="g7_140"/>
<path d="M168.1,426.6c0,6.6,5.4,12,12,12c6.6,0,11.9,-5.4,11.9,-12c0,-6.6,-5.3,-11.9,-11.9,-11.9c-6.6,0,-12,5.3,-12,11.9Z" class="g6_140"/>
<path d="M180.1,439.4c7,0,12.7,-5.7,12.7,-12.8c0,-7,-5.7,-12.7,-12.7,-12.7c-7.1,0,-12.8,5.7,-12.8,12.7c0,7.1,5.7,12.8,12.8,12.8m0,-23.9c6.1,0,11.1,5,11.1,11.1c0,6.2,-5,11.2,-11.1,11.2c-6.2,0,-11.2,-5,-11.2,-11.2c0,-6.1,5,-11.1,11.2,-11.1Z" class="g7_140"/>
<path d="M149,168.5c0,0,-17.3,0,-17.3,17.3V380.7c0,0,0,17.3,17.3,17.3H828.9c0,0,17.4,0,17.4,-17.3V185.8c0,0,0,-17.3,-17.4,-17.3Z" class="ga_140"/>
<path d="M193.5,216.4H446.6v26H193.5v-26Zm253.1,0H793.1v26H446.6v-26Z" class="gb_140"/>
<path d="M193.5,242.4H446.6V296H193.5V242.4Zm253.1,0H793.1V296H446.6V242.4Z" class="g6_140"/>
<path d="M193.5,216.4H446.6m0,0H793.1M446.6,242.2V216.6M193.5,242.4H446.6m0,0H793.1M446.6,295.8V242.6M193.5,296H446.6m0,0H793.1" class="gc_140"/>
<path d="M145.1,751.4c0,0,-13,0,-13,13v422.4c0,0,0,12.9,13,12.9H832.9c0,0,13,0,13,-12.9V764.4c0,0,0,-13,-13,-13Z" class="g6_140"/>
<path d="M145.1,751.4c0,0,-13,0,-13,13v422.4c0,0,0,12.9,13,12.9H832.9c0,0,13,0,13,-12.9V764.4c0,0,0,-13,-13,-13H145.1Z" class="gd_140"/>
<path d="M195.6,839.4c0,0,-4.4,0,-4.4,4.3v14.8c0,0,0,4.3,4.1,5.7l52.5,18.6c0,0,4.1,1.4,4.1,-2.9V843.7c0,0,0,-4.3,-4.4,-4.3Z" class="ge_140"/>
<path d="M216.7,826.4c0,0,-13,0,-13,13V955.9c0,0,0,13,13,13h304c0,0,13,0,13,-13V839.4c0,0,0,-13,-13,-13Z" class="gf_140"/>
<path d="M195.6,837.2c0,0,-4.4,0,-4.4,4.3v17.4c0,0,0,4.3,4.4,4.3h37.3c0,0,4.3,0,4.3,-4.3V841.5c0,0,0,-4.3,-4.3,-4.3Z" class="gg_140"/>
<path d="M341.9,941.2h65.6" class="gh_140"/>
<path d="M180.4,814.7H810.3V794.1H180.4v20.6Z" class="g6_140"/>
<path d="M824.6,774.4c0,0,-7.7,0,-7.7,7.6v6.1c0,0,0,7.6,7.7,7.6h4.9c0,0,7.7,0,7.7,-7.6V782c0,0,0,-7.6,-7.7,-7.6Z" class="g6_140"/>
<path d="M546.3,1188.6H818.8V833.1H546.3v355.5Z" class="g6_140"/>
<image clip-path="url(#c1_140)" preserveAspectRatio="none" x="570" y="852" width="213" height="320" xlink:href="img/1.jpg"/>
<path d="M330.3,1037.3H506.5m-198,72.8H497.6M300.2,1183H506.4" class="gh_140"/>
<path d="M556.5,1214.8c0,0,-4.4,0,-4.4,4.4V1230c0,0,0,4.3,4.4,4.3h30.3c0,0,4.3,0,4.3,-4.3v-10.8c0,0,0,-4.4,-4.3,-4.4Z" class="gi_140"/>
<path d="M543.3,1206v37.5m1.3,1H845.1m1,-1.3v-37.6m-1.4,-1H544.3" class="gj_140"/>
<path d="M543.3,1243.9v.6h.6m301.6,0h.6v-.6m0,-38.7v-.6h-.6m-301.6,0h-.6v.6" class="gk_140"/>
<path d="M218.6,690.9c0,0,-13,0,-13,13v21.6c0,0,0,13,13,13H833.3c0,0,13,0,13,-13V703.9c0,0,0,-13,-13,-13Z" class="gl_140"/>
<image clip-path="url(#c2_140)" preserveAspectRatio="none" x="161" y="661" width="75" height="76" xlink:href="img/2.png"/>
<path d="M213.4,731.2c0,0,-26.9,11.3,-51.1,-12.8c0,0,15.1,25.3,49.3,24c0,0,24.7,.3,20.2,-10.2c0,0,1.2,-4.4,-18.4,-1Z" class="gl_140"/>
<path d="M131.7,109.5v39l11.7,10.2V136.5Z" class="gm_140"/>
<path d="M131.7,109.5v39H829.5c0,0,16.8,0,16.8,-16.8v-5.4c0,0,0,-16.8,-16.8,-16.8Z" class="gi_140"/>
<path d="M768.8,131c0,0,-.5,-10,8.6,-9.4c0,0,6.7,-.3,6.6,9.5m-15.3,-1.5v6.5c0,0,-3.3,.3,-3.9,-3c0,0,-.1,-3.8,3.9,-3.5Zm15.4,0v6.5c0,0,3.3,.3,3.9,-3c0,0,.1,-3.8,-3.9,-3.5Z" class="gn_140"/>
<path d="M147.4,140.8h61v-32h-61v32Z" class="go_140"/>
<path d="M147.4,143.1h61v-2.3h-61v2.3Z" class="go_140"/>
<path d="M171.8,106.2H152.1v31.5h25.8V112.3c0,-3.4,-2.7,-6.1,-6.1,-6.1Z" class="g6_140"/>
<path d="M171.8,106.2v-.5H152.1c-.1,0,-.3,.1,-.4,.2c-.1,.1,-.1,.2,-.1,.3v31.5c0,.1,0,.3,.1,.4c.1,.1,.3,.1,.4,.1h25.8c.1,0,.2,0,.3,-.1c.1,-.1,.2,-.3,.2,-.4V112.3c0,-3.7,-2.9,-6.6,-6.6,-6.6v1c1.6,0,2.9,.7,3.9,1.7c1,1,1.6,2.3,1.6,3.9v24.9H152.6V106.7h19.2Z" class="gp_140"/>
<path d="M152.1,131.7v6h25.8c0,-3.3,-2.7,-6,-6.1,-6Z" class="g6_140"/>
<path d="M152.1,131.7h-.5v6c0,.1,0,.3,.1,.4c.1,.1,.3,.1,.4,.1h25.8c.1,0,.2,0,.3,-.1c.1,-.1,.2,-.3,.2,-.4c0,-3.6,-3,-6.6,-6.6,-6.6H152.1c-.1,0,-.3,.1,-.4,.2c-.1,.1,-.1,.2,-.1,.4h.5v.5h19.7c1.6,0,2.9,.6,3.9,1.6c1,1,1.6,2.4,1.6,3.9h.6v-.5H152.6v-5.5h-.5v.5Z" class="gp_140"/>
<path d="M155.6,110.9h17.2m-17.2,2.8h17.2m-17.2,2.9h17.2m-17.2,2.9h17.2m-17.2,2.8h17.2m-17.2,2.9h17.2M155.6,128h17.2" class="gq_140"/>
<path d="M171.8,132.2H152.6v5h24.7c-.1,-1.3,-.7,-2.5,-1.6,-3.4c-1,-1,-2.3,-1.6,-3.9,-1.6Z" class="gr_140"/>
<path d="M152.6,132.2h19.2c1.6,0,2.9,.6,3.9,1.6c.9,.9,1.5,2.1,1.6,3.4H152.6Zm19.2,-.5H152.1v6h25.2v-2.5c-.9,-2.1,-3,-3.5,-5.5,-3.5Z" class="gs_140"/>
<path d="M183.9,106.2h19.7v31.5H177.9V112.3c0,-3.4,2.7,-6.1,6,-6.1Z" class="g6_140"/>
<path d="M183.9,106.2v.5h19.2v30.5H178.4V112.3c0,-1.6,.6,-2.9,1.6,-3.9c1,-1,2.4,-1.7,3.9,-1.7v-1c-3.6,0,-6.6,2.9,-6.6,6.6v25.4c0,.1,.1,.3,.2,.4c.1,.1,.2,.1,.4,.1h25.7c.2,0,.3,0,.4,-.1c.1,-.1,.1,-.3,.1,-.4V106.2c0,-.1,0,-.2,-.1,-.3c-.1,-.1,-.2,-.2,-.4,-.2H183.9Z" class="gp_140"/>
<path d="M203.6,131.7v6H177.9c0,-3.3,2.7,-6,6,-6Z" class="g6_140"/>
<path d="M203.6,131.7h-.5v5.5H177.9v.5h.5c0,-1.5,.6,-2.9,1.6,-3.9c1,-1,2.4,-1.6,3.9,-1.6h19.7v-.5h-.5h.5v-.6H183.9c-3.6,0,-6.6,3,-6.6,6.6c0,.1,.1,.3,.2,.4c.1,.1,.2,.1,.4,.1h25.7c.2,0,.3,0,.4,-.1c.1,-.1,.1,-.3,.1,-.4v-6c0,-.2,0,-.3,-.1,-.4c-.1,-.1,-.2,-.2,-.4,-.2Z" class="gp_140"/>
<path d="M200.1,110.9H182.9m17.2,2.8H182.9m17.2,2.9H182.9m17.2,2.9H182.9m17.2,2.8H182.9m17.2,2.9H182.9m17.2,2.8H182.9" class="gq_140"/>
<path clip-path="url(#c3_140)" d="M178.4,137.2h24.7v-5H178.4v5Z" class="gr_140"/>
<path clip-path="url(#c4_140)" d="M178.4,137.2c.1,-1.3,.7,-2.5,1.6,-3.4c1,-1,2.4,-1.6,3.9,-1.6h19.2v5Zm25.2,-5.5H183.9c-3.3,0,-6,2.7,-6,6h25.7v-6h-.5h.5Z" class="gs_140"/>
<path d="M177.9,108.8v34.3" class="gq_140"/>
<path d="M195.5,145.5h3.3V134.7h-3.3v10.8Z" class="gt_140"/>
<path d="M32.1,45.1H9.2m958.3,0h22.9M32.1,1331.3H9.2m958.3,0h22.9M45.1,32.1V9.2m0,1335.1v22.9M954.5,32.1V9.2m0,1335.1v22.9" class="gu_140"/>
<path d="M32.1,45.1H9.2m958.3,0h22.9M32.1,1331.3H9.2m958.3,0h22.9M45.1,32.1V9.2m0,1335.1v22.9M954.5,32.1V9.2m0,1335.1v22.9" class="gv_140"/>
<path d="M27.5,32.1H0m972.1,0h27.5M27.5,1344.3H0m972.1,0h27.5M32.1,27.5V0m0,1348.9v27.5M967.5,27.5V0m0,1348.9v27.5" class="gu_140"/>
<path d="M27.5,32.1H0m972.1,0h27.5M27.5,1344.3H0m972.1,0h27.5M32.1,27.5V0m0,1348.9v27.5M967.5,27.5V0m0,1348.9v27.5" class="gv_140"/>
</svg>