<?xml version="1.0" encoding="UTF-8" standalone="no"?>
<!DOCTYPE svg PUBLIC "-//W3C//DTD SVG 1.1//EN"
"http://www.w3.org/Graphics/SVG/1.1/DTD/svg11.dtd">
<svg viewBox="0 0 999 1376" version="1.1" xmlns="http://www.w3.org/2000/svg" xmlns:xlink="http://www.w3.org/1999/xlink">
<defs>
<clipPath id="c0_178"><path d="M216.2,340.6V250.2h90.4v90.4Z"/></clipPath>
<clipPath id="c1_178"><path d="M184.7,342.3V248.6H345.8v93.7Z"/></clipPath>
<clipPath id="c2_178"><path d="M378.7,340.5V250.1h90.4v90.4Z"/></clipPath>
<clipPath id="c3_178"><path d="M696.2,341V250.6h90.4V341Z"/></clipPath>
<clipPath id="c4_178"><path d="M536.3,340.4V250h90.4v90.4Z"/></clipPath>
<clipPath id="c5_178"><path d="M216.7,486.3V395.9h90.4v90.4Z"/></clipPath>
<clipPath id="c6_178"><path d="M370.2,486.3V395.9h90.4v90.4Z"/></clipPath>
<clipPath id="c7_178"><path d="M523.7,486.3V395.9h90.4v90.4Z"/></clipPath>
<clipPath id="c8_178"><path d="M378.5,486V395.6h90.4V486Z"/></clipPath>
<clipPath id="c9_178"><path d="M696.7,485.7V395.3h90.4v90.4Z"/></clipPath>
<clipPath id="ca_178"><path d="M536.1,485.9V395.6h90.4v90.3Z"/></clipPath>
<clipPath id="cb_178"><path d="M218.1,1044.1v-67h67.1v67Z"/></clipPath>
<clipPath id="cc_178"><path d="M385.8,1043.3V976.1h63.4v67.2Z"/></clipPath>
<clipPath id="cd_178"><path d="M550,1041.8V974.6h61.9v67.2Z"/></clipPath>
<clipPath id="ce_178"><path d="M722.8,1043.5v-67h67.1v67Z"/></clipPath>
<clipPath id="cf_178"><path d="M176.6,235.1L170.1,233L153.7,219.1V162h72v73.1Z"/></clipPath>
<clipPath id="cg_178"><path d="M176.6,913.4l-6.5,-2.1l-16.4,-14V840.2h72v73.2Z"/></clipPath>
<clipPath id="ch_178"><path d="M696.2,629.9V539.5h90.4v90.4Z"/></clipPath>
<clipPath id="ci_178"><path d="M537.2,629.4V539h90.4v90.4Z"/></clipPath>
<clipPath id="cj_178"><path d="M379.2,630V539.7h90.4V630Z"/></clipPath>
<clipPath id="ck_178"><path d="M216,629.2V538.8h90.4v90.4Z"/></clipPath>
<style type="text/css"><![CDATA[
.g0_178{
fill: #FEFCF4;
}
.g1_178{
fill: #FFF;
}
.g2_178{
fill: none;
stroke: #6381B7;
stroke-width: 0.763;
}
.g3_178{
fill: none;
stroke: #949698;
stroke-width: 1.242;
}
.g4_178{
fill: #ABB2C9;
}
.g5_178{
fill: #EFE9CC;
}
.g6_178{
fill: #6381B7;
}
.g7_178{
fill: none;
stroke: #6381B7;
stroke-width: 0.381;
stroke-dasharray: 2,1;
}
.g8_178{
fill: none;
stroke: #6381B7;
stroke-width: 0.381;
}
.g9_178{
fill: #FCE8B0;
}
.ga_178{
fill: #25408F;
}
.gb_178{
fill: #00BAF1;
}
.gc_178{
fill: #332D2C;
}
.gd_178{
fill: #D9DFF0;
}
.ge_178{
fill: #F27C85;
}
.gf_178{
fill: #7DD3F6;
}
.gg_178{
fill: none;
stroke: #231F20;
stroke-width: 1.527;
}
.gh_178{
fill: none;
stroke: #FFF;
stroke-width: 1.909;
stroke-miterlimit: 10;
}
.gi_178{
fill: none;
stroke: #000;
stroke-width: 0.381;
stroke-miterlimit: 10;
}
]]></style>
</defs>
<path d="M32.1,1344.3H954.5V32.1H32.1V1344.3Z" class="g0_178"/>
<path d="M150.4,133.7c0,0,-18.3,0,-18.3,18.3V815c0,0,0,18.3,18.3,18.3H827.5c0,0,18.4,0,18.4,-18.3V133.7Z" class="g1_178"/>
<path d="M150.4,133.7c0,0,-18.3,0,-18.3,18.3V815c0,0,0,18.3,18.3,18.3H827.5c0,0,18.4,0,18.4,-18.3V133.7H150.4Z" class="g2_178"/>
<path d="M184.7,342.3H345.8V248.6H184.7v93.7Z" class="g1_178"/>
<image clip-path="url(#c0_178)" preserveAspectRatio="none" x="216" y="250" width="91" height="91" xlink:href="img/1.jpg"/>
<path clip-path="url(#c1_178)" d="M192.7,340.6H330.1V250.2H192.7v90.4ZM346.3,340.6H483.6V250.2H346.3v90.4Z" class="g3_178"/>
<path d="M342.8,348.6H502v-100H342.8v100Z" class="g1_178"/>
<image clip-path="url(#c2_178)" preserveAspectRatio="none" x="379" y="250" width="90" height="91" xlink:href="img/2.jpg"/>
<path d="M355.3,340.5H492.6V250.1H355.3v90.4Z" class="g3_178"/>
<path d="M663.5,348.6H824.6v-100H663.5v100Z" class="g1_178"/>
<image clip-path="url(#c3_178)" preserveAspectRatio="none" x="696" y="251" width="91" height="90" xlink:href="img/3.jpg"/>
<path d="M672.7,341H810V250.6H672.7V341Z" class="g3_178"/>
<path d="M512.1,347.6h144v-99h-144v99Z" class="g1_178"/>
<image clip-path="url(#c4_178)" preserveAspectRatio="none" x="536" y="250" width="91" height="90" xlink:href="img/4.jpg"/>
<path d="M512.8,340.4H650.1V250H512.8v90.4Z" class="g3_178"/>
<path d="M182.6,493.4h659V395.1h-659v98.3Z" class="g1_178"/>
<image clip-path="url(#c5_178)" preserveAspectRatio="none" x="217" y="396" width="90" height="90" xlink:href="img/5.jpg"/>
<path d="M193.2,486.3H330.5V395.9H193.2v90.4Z" class="g3_178"/>
<image clip-path="url(#c6_178)" preserveAspectRatio="none" x="370" y="396" width="91" height="90" xlink:href="img/6.jpg"/>
<path d="M346.7,486.3H484.1V395.9H346.7v90.4Z" class="g3_178"/>
<image clip-path="url(#c7_178)" preserveAspectRatio="none" x="524" y="396" width="90" height="90" xlink:href="img/7.jpg"/>
<path d="M500.3,486.3H637.6V395.9H500.3v90.4Z" class="g3_178"/>
<path d="M343.9,495.1h453v-100h-453v100Z" class="g1_178"/>
<image clip-path="url(#c8_178)" preserveAspectRatio="none" x="378" y="396" width="91" height="90" xlink:href="img/8.jpg"/>
<path d="M355.1,486H492.4V395.6H355.1V486Z" class="g3_178"/>
<path d="M663.5,495.1H824.6v-100H663.5v100Z" class="g1_178"/>
<image clip-path="url(#c9_178)" preserveAspectRatio="none" x="697" y="395" width="90" height="91" xlink:href="img/9.jpg"/>
<path d="M673.3,485.7H810.6V395.3H673.3v90.4Z" class="g3_178"/>
<path d="M502,493.4H661.1V395.1H502v98.3Z" class="g1_178"/>
<image clip-path="url(#ca_178)" preserveAspectRatio="none" x="536" y="396" width="91" height="90" xlink:href="img/10.jpg"/>
<path d="M512.7,486H650V395.6H512.7V486Z" class="g3_178"/>
<path d="M672.1,526.5h144V490.8h-144v35.7Z" class="g1_178"/>
<path d="M145.1,927.2c0,0,-13,0,-13,12.9v242.1c0,0,0,13,13,13H832.9c0,0,13,0,13,-13V940.1c0,0,0,-12.9,-13,-12.9Z" class="g1_178"/>
<path d="M145.1,927.2c0,0,-13,0,-13,12.9v242.1c0,0,0,13,13,13H832.9c0,0,13,0,13,-13V940.1c0,0,0,-12.9,-13,-12.9H145.1Z" class="g2_178"/>
<path d="M206.8,1047.3h82.3V971.5H206.8v75.8Z" class="g1_178"/>
<image clip-path="url(#cb_178)" preserveAspectRatio="none" x="218" y="977" width="67" height="67" xlink:href="img/11.jpg"/>
<path d="M383.5,1047.3h64.9V976.7H383.5v70.6Z" class="g1_178"/>
<image clip-path="url(#cc_178)" preserveAspectRatio="none" x="386" y="976" width="68" height="67" xlink:href="img/12.jpg"/>
<path d="M550.7,1047.3h60.7V971.5H550.7v75.8Z" class="g1_178"/>
<image clip-path="url(#cd_178)" preserveAspectRatio="none" x="549" y="975" width="67" height="67" xlink:href="img/13.jpg"/>
<path d="M717.3,1047.3h77.9V976.7H717.3v70.6Z" class="g1_178"/>
<image clip-path="url(#ce_178)" preserveAspectRatio="none" x="723" y="976" width="67" height="68" xlink:href="img/14.jpg"/>
<path d="M251.6,1057.8c2,0,3.6,-1.6,3.6,-3.6c0,-2,-1.6,-3.6,-3.6,-3.6c-2,0,-3.7,1.6,-3.7,3.6c0,2,1.7,3.6,3.7,3.6Z" class="g4_178"/>
<path d="M585,1057.8c2,0,3.6,-1.6,3.6,-3.6c0,-2,-1.6,-3.6,-3.6,-3.6c-2,0,-3.6,1.6,-3.6,3.6c0,2,1.6,3.6,3.6,3.6Z" class="g4_178"/>
<path d="M413.2,1057.8c2,0,3.6,-1.6,3.6,-3.6c0,-2,-1.6,-3.6,-3.6,-3.6c-2,0,-3.6,1.6,-3.6,3.6c0,2,1.6,3.6,3.6,3.6Z" class="g4_178"/>
<path d="M752.5,1057.8c2,0,3.6,-1.6,3.6,-3.6c0,-2,-1.6,-3.6,-3.6,-3.6c-2,0,-3.6,1.6,-3.6,3.6c0,2,1.6,3.6,3.6,3.6Z" class="g4_178"/>
<path d="M251.6,1141.2c2,0,3.6,-1.7,3.6,-3.6c0,-2,-1.6,-3.7,-3.6,-3.7c-2,0,-3.7,1.7,-3.7,3.7c0,1.9,1.7,3.6,3.7,3.6Z" class="g4_178"/>
<path d="M585,1141.2c2,0,3.6,-1.7,3.6,-3.6c0,-2,-1.6,-3.7,-3.6,-3.7c-2,0,-3.6,1.7,-3.6,3.7c0,1.9,1.6,3.6,3.6,3.6Z" class="g4_178"/>
<path d="M413.2,1141.2c2,0,3.6,-1.7,3.6,-3.6c0,-2,-1.6,-3.7,-3.6,-3.7c-2,0,-3.6,1.7,-3.6,3.7c0,1.9,1.6,3.6,3.6,3.6Z" class="g4_178"/>
<path d="M752.5,1141.2c2,0,3.6,-1.7,3.6,-3.6c0,-2,-1.6,-3.7,-3.6,-3.7c-2,0,-3.6,1.7,-3.6,3.7c0,1.9,1.6,3.6,3.6,3.6Z" class="g4_178"/>
<path d="M210.4,1150.5c0,0,-8.6,0,-8.6,8.7v15.2c0,0,0,8.6,8.6,8.6h69.3c0,0,8.7,0,8.7,-8.6v-15.2c0,0,0,-8.7,-8.7,-8.7Z" class="g5_178"/>
<path d="M549.7,1150.5c0,0,-8.7,0,-8.7,8.7v15.2c0,0,0,8.6,8.7,8.6h69.2c0,0,8.7,0,8.7,-8.6v-15.2c0,0,0,-8.7,-8.7,-8.7Z" class="g5_178"/>
<path d="M380,1150.5c0,0,-8.6,0,-8.6,8.7v15.2c0,0,0,8.6,8.6,8.6h69.3c0,0,8.7,0,8.7,-8.6v-15.2c0,0,0,-8.7,-8.7,-8.7Z" class="g5_178"/>
<path d="M709.4,1150.5c0,0,-8.6,0,-8.6,8.7v15.2c0,0,0,8.6,8.6,8.6h83.7c0,0,8.6,0,8.6,-8.6v-15.2c0,0,0,-8.7,-8.6,-8.7Z" class="g5_178"/>
<path d="M632.3,1214.8c0,0,-4.4,0,-4.4,4.4V1230c0,0,0,4.3,4.4,4.3h30.3c0,0,4.3,0,4.3,-4.3v-10.8c0,0,0,-4.4,-4.3,-4.4Z" class="g6_178"/>
<path d="M619.1,1206v37.5m1.3,1H845.1m1,-1.3v-37.6m-1.4,-1H620" class="g7_178"/>
<path d="M619.1,1243.9v.6h.6m225.8,0h.6v-.6m0,-38.7v-.6h-.6m-225.8,0h-.6v.6" class="g8_178"/>
<path d="M209.2,190.2c0,0,-13,0,-13,12.9v21.7c0,0,0,13,13,13H819.9c0,0,13,0,13,-13V203.1c0,0,0,-12.9,-13,-12.9Z" class="g9_178"/>
<image clip-path="url(#cf_178)" preserveAspectRatio="none" x="152" y="160" width="75" height="77" xlink:href="img/15.png"/>
<path d="M204,230.4c0,0,-26.8,11.3,-51.1,-12.7c0,0,15.2,25.3,49.3,23.9c0,0,24.8,.4,20.3,-10.1c0,0,1.2,-4.4,-18.5,-1.1Z" class="g9_178"/>
<path d="M209.2,868.4c0,0,-13,0,-13,13V903c0,0,0,13,13,13H830.8c0,0,13,0,13,-13V881.4c0,0,0,-13,-13,-13Z" class="g9_178"/>
<image clip-path="url(#cg_178)" preserveAspectRatio="none" x="152" y="839" width="75" height="76" xlink:href="img/16.png"/>
<path d="M204,908.7c0,0,-26.8,11.3,-51.1,-12.8c0,0,15.2,25.3,49.3,24c0,0,24.8,.3,20.3,-10.2c0,0,1.2,-4.4,-18.5,-1Z" class="g9_178"/>
<path d="M131.7,126.7v22.2l11.7,10.3V137Z" class="ga_178"/>
<path d="M131.7,109.9v39H829.4c0,0,16.9,0,16.9,-16.8v-5.4c0,0,0,-16.8,-16.9,-16.8Z" class="g6_178"/>
<path d="M189.6,121.3l-6.4,-6.5L162,136l6.4,6.5Z" class="gb_178"/>
<path d="M168.4,143c.2,0,.3,0,.4,-.1L190,121.7c.1,-.1,.2,-.3,.2,-.4c0,-.1,-.1,-.3,-.2,-.4l-6.5,-6.4c-.2,-.2,-.5,-.2,-.7,0l-21.2,21.2c-.1,.1,-.2,.2,-.2,.3c0,.2,.1,.3,.2,.4l6.5,6.5c.1,.1,.2,.1,.3,.1m20.5,-21.7l-20.5,20.5L162.7,136l20.5,-20.4Z" class="gc_178"/>
<path d="M189.6,121.3l-6.4,-6.5l2.1,-2.1l6.5,6.5Z" class="gd_178"/>
<path d="M189.6,121.8c.2,0,.3,0,.4,-.1l2.1,-2.1c.1,-.1,.2,-.3,.2,-.4c0,-.2,-.1,-.3,-.2,-.4l-6.4,-6.5c-.2,-.2,-.6,-.2,-.8,0l-2.1,2.2c-.1,0,-.2,.2,-.2,.3c0,.2,.1,.3,.2,.4l6.5,6.5c.1,.1,.2,.1,.3,.1m1.4,-2.6l-1.4,1.4l-5.7,-5.8l1.4,-1.4Z" class="gc_178"/>
<path d="M195.4,115.6l-6.5,-6.5l-3.6,3.6l6.5,6.5Z" class="ge_178"/>
<path d="M191.8,119.7c.1,0,.2,0,.3,-.1l3.7,-3.7c.2,-.2,.2,-.5,0,-.7l-6.5,-6.5c-.2,-.2,-.6,-.2,-.8,0l-3.6,3.6c-.2,.2,-.2,.6,0,.8l6.5,6.5c.1,.1,.2,.1,.4,.1m2.8,-4.1l-2.8,2.8L186,112.7l2.9,-2.9Z" class="gc_178"/>
<path d="M157.3,147.2L162,136l6.4,6.5Z" class="g1_178"/>
<path d="M157.3,147.7c.1,0,.2,0,.2,-.1L168.6,143c.2,-.1,.3,-.2,.4,-.4c0,-.2,-.1,-.3,-.2,-.5l-6.5,-6.4c-.1,-.2,-.3,-.2,-.5,-.2c-.1,.1,-.3,.2,-.3,.3l-4.7,11.1c0,.2,0,.5,.1,.6c.1,.1,.3,.2,.4,.2m10.2,-5.4l-9.2,3.9l3.8,-9.2Z" class="gc_178"/>
<path d="M157.3,147.2l2.3,-5.4l3.1,3.1Z" class="gc_178"/>
<path d="M157.3,147.7c.1,0,.2,0,.2,-.1l5.4,-2.2c.1,-.1,.3,-.2,.3,-.4c0,-.2,0,-.3,-.1,-.5l-3.2,-3.1c-.1,-.1,-.3,-.2,-.4,-.1c-.2,0,-.4,.1,-.4,.3l-2.3,5.3c0,.2,0,.5,.1,.6c.1,.1,.3,.2,.4,.2m4.5,-3l-3.5,1.5l1.4,-3.5Z" class="gc_178"/>
<path d="M187.9,119.5l-3,-2.9l-21.2,21.2l3,3Z" class="gf_178"/>
<path d="M166.7,141.3c.1,0,.2,-.1,.3,-.2l21.3,-21.2c.1,-.1,.1,-.2,.1,-.4c0,-.1,0,-.2,-.1,-.3l-3,-3c-.2,-.2,-.5,-.2,-.8,0l-21.2,21.2c-.1,.1,-.1,.3,-.1,.4c0,.1,0,.3,.1,.4l3,2.9c.1,.1,.2,.2,.4,.2m20.4,-21.8L166.7,140l-2.2,-2.2l20.4,-20.5Z" class="gc_178"/>
<image clip-path="url(#ch_178)" preserveAspectRatio="none" x="696" y="539" width="91" height="91" xlink:href="img/17.jpg"/>
<path d="M672.7,629.9H810V539.5H672.7v90.4Z" class="g3_178"/>
<image clip-path="url(#ci_178)" preserveAspectRatio="none" x="537" y="539" width="91" height="90" xlink:href="img/18.jpg"/>
<path d="M513.7,629.4H651V539H513.7v90.4Z" class="g3_178"/>
<image clip-path="url(#cj_178)" preserveAspectRatio="none" x="379" y="540" width="91" height="90" xlink:href="img/19.jpg"/>
<path d="M355.8,630H493.1V539.7H355.8V630Z" class="g3_178"/>
<image clip-path="url(#ck_178)" preserveAspectRatio="none" x="216" y="539" width="90" height="90" xlink:href="img/20.jpg"/>
<path d="M192.5,629.2H329.9V538.8H192.5v90.4Z" class="g3_178"/>
<path d="M211.3,692.9c-.4,0,-.6,.1,-.8,.3c-.3,.3,-.4,.5,-.4,.8c0,.3,.1,.6,.4,.8c.2,.2,.4,.3,.8,.3c.2,0,.5,-.1,.7,-.3c.2,-.2,.4,-.5,.4,-.8c0,-.3,-.2,-.5,-.4,-.8c-.2,-.2,-.5,-.3,-.7,-.3Zm0,24.5c-.4,0,-.6,.1,-.8,.3c-.3,.2,-.4,.5,-.4,.8c0,.3,.1,.6,.4,.8c.2,.2,.4,.3,.8,.3c.2,0,.5,-.1,.7,-.3c.2,-.2,.4,-.5,.4,-.8c0,-.3,-.2,-.6,-.4,-.8c-.2,-.2,-.5,-.3,-.7,-.3Zm0,24.4c-.4,0,-.6,.1,-.8,.3c-.3,.2,-.4,.5,-.4,.8c0,.3,.1,.6,.4,.8c.2,.2,.4,.3,.8,.3c.2,0,.5,-.1,.7,-.3c.2,-.2,.4,-.5,.4,-.8c0,-.3,-.2,-.6,-.4,-.8c-.2,-.2,-.5,-.3,-.7,-.3Zm0,24.4c-.4,0,-.6,.2,-.8,.4c-.3,.2,-.4,.5,-.4,.8c0,.3,.1,.5,.4,.8c.2,.2,.4,.3,.8,.3c.2,0,.5,-.1,.7,-.3c.2,-.3,.4,-.5,.4,-.8c0,-.3,-.2,-.6,-.4,-.8c-.2,-.2,-.5,-.4,-.7,-.4Zm0,24.5c-.4,0,-.6,.1,-.8,.3c-.3,.2,-.4,.5,-.4,.8c0,.3,.1,.6,.4,.8c.2,.2,.4,.3,.8,.3c.2,0,.5,-.1,.7,-.3c.2,-.2,.4,-.5,.4,-.8c0,-.3,-.2,-.6,-.4,-.8c-.2,-.2,-.5,-.3,-.7,-.3Zm0,24.4c-.4,0,-.6,.1,-.8,.4c-.3,.2,-.4,.4,-.4,.7c0,.4,.1,.6,.4,.8c.2,.3,.4,.4,.8,.4c.2,0,.5,-.1,.7,-.4c.2,-.2,.4,-.4,.4,-.8c0,-.3,-.2,-.5,-.4,-.7c-.2,-.3,-.5,-.4,-.7,-.4Z" class="gg_178"/>
<path d="M32.1,45.1H9.2m958.3,0h22.9M32.1,1331.3H9.2m958.3,0h22.9M45.1,32.1V9.2m0,1335.1v22.9M954.5,32.1V9.2m0,1335.1v22.9" class="gh_178"/>
<path d="M32.1,45.1H9.2m958.3,0h22.9M32.1,1331.3H9.2m958.3,0h22.9M45.1,32.1V9.2m0,1335.1v22.9M954.5,32.1V9.2m0,1335.1v22.9" class="gi_178"/>
<path d="M27.5,32.1H0m972.1,0h27.5M27.5,1344.3H0m972.1,0h27.5M32.1,27.5V0m0,1348.9v27.5M967.5,27.5V0m0,1348.9v27.5" class="gh_178"/>
<path d="M27.5,32.1H0m972.1,0h27.5M27.5,1344.3H0m972.1,0h27.5M32.1,27.5V0m0,1348.9v27.5M967.5,27.5V0m0,1348.9v27.5" class="gi_178"/>
</svg>