<?xml version="1.0" encoding="UTF-8" standalone="no"?>
<!DOCTYPE svg PUBLIC "-//W3C//DTD SVG 1.1//EN"
"http://www.w3.org/Graphics/SVG/1.1/DTD/svg11.dtd">
<svg viewBox="0 0 999 1376" version="1.1" xmlns="http://www.w3.org/2000/svg" xmlns:xlink="http://www.w3.org/1999/xlink">
<defs>
<clipPath id="c0_26"><path d="M32.1,1344.3V32.1H967.5V1344.3Z"/></clipPath>
<clipPath id="c1_26"><path d="M185.9,308.2l-6.5,-2l-14,-11.3V234.1h62.7v74.1Z"/></clipPath>
<clipPath id="c2_26"><path d="M369.9,480V453.6h69V480Z"/></clipPath>
<clipPath id="c3_26"><path d="M462.6,486.7V446.9h53.3v39.8Z"/></clipPath>
<clipPath id="c4_26"><path d="M692.1,482.9V456.4h69v26.5Z"/></clipPath>
<clipPath id="c5_26"><path d="M784.8,490.1V447.7h53.3v42.4Z"/></clipPath>
<clipPath id="c6_26"><path d="M370,697.8V671.3h69v26.5Z"/></clipPath>
<clipPath id="c7_26"><path d="M462.7,704.4V664.7h50.5v39.7Z"/></clipPath>
<clipPath id="c8_26"><path d="M692.5,697.8V671.3h69v26.5Z"/></clipPath>
<clipPath id="c9_26"><path d="M371.4,975l-5.7,-9.8l30.8,-17.8l5.7,9.8L371.4,975Z"/></clipPath>
<clipPath id="ca_26"><path d="M482.5,977.2l-5.7,-9.9l30.8,-17.7l5.7,9.8l-30.8,17.8Z"/></clipPath>
<clipPath id="cb_26"><path d="M688,967.1l-8.1,-7.9l24.7,-25.6l8.1,7.9L688,967.1Z"/></clipPath>
<clipPath id="cc_26"><path d="M797.2,967.1L789,959.2l24.7,-25.6l8.2,7.9l-24.7,25.6Z"/></clipPath>
<style type="text/css"><![CDATA[
.g0_26{
fill: #FFFDEA;
}
.g1_26{
fill: #BCE4EA;
}
.g2_26{
fill: #BCBEC0;
}
.g3_26{
fill: #00AABD;
}
.g4_26{
fill: #FCDCBA;
}
.g5_26{
fill: #F1EDF5;
}
.g6_26{
fill: #FFF;
}
.g7_26{
fill: none;
stroke: #FFF;
stroke-width: 1.145;
stroke-miterlimit: 10;
}
.g8_26{
fill: none;
stroke: #6D6F71;
stroke-width: 0.305;
stroke-miterlimit: 10;
}
.g9_26{
fill: none;
stroke: #6D6F71;
stroke-width: 0.19;
stroke-miterlimit: 10;
}
.ga_26{
fill: none;
stroke: #6D6F71;
stroke-width: 0.381;
stroke-miterlimit: 10;
}
.gb_26{
fill: #86888B;
}
.gc_26{
fill: none;
stroke: #231F20;
stroke-width: 0.194;
}
.gd_26{
fill: #B6B8BA;
}
.ge_26{
fill: none;
stroke: #231F20;
stroke-width: 0.152;
}
.gf_26{
fill: none;
stroke: #231F20;
stroke-width: 0.165;
}
.gg_26{
fill: none;
stroke: #231F20;
stroke-width: 0.201;
}
.gh_26{
fill: none;
stroke: #231F20;
stroke-width: 0.215;
}
.gi_26{
fill: none;
stroke: #231F20;
stroke-width: 0.268;
stroke-linecap: round;
stroke-linejoin: round;
}
.gj_26{
fill: none;
stroke: #231F20;
stroke-width: 0.178;
}
.gk_26{
fill: none;
stroke: #231F20;
stroke-width: 0.195;
}
.gl_26{
fill: none;
stroke: #231F20;
stroke-width: 0.242;
stroke-linecap: round;
stroke-linejoin: round;
}
.gm_26{
fill: #DED3E8;
}
.gn_26{
fill: #949698;
}
.go_26{
fill: none;
stroke: #868683;
stroke-width: 1.008;
stroke-linecap: round;
stroke-linejoin: round;
}
.gp_26{
fill: #868683;
}
.gq_26{
fill: #F27366;
}
.gr_26{
fill: #FECB50;
}
.gs_26{
fill: #FEBF2A;
}
.gt_26{
fill: #71CDF3;
}
.gu_26{
fill: none;
stroke: #FFF;
stroke-width: 1.909;
stroke-miterlimit: 10;
}
.gv_26{
fill: none;
stroke: #000;
stroke-width: 0.381;
stroke-miterlimit: 10;
}
]]></style>
</defs>
<g clip-path="url(#c0_26)">
<path d="M32.1,1344.3H1877V32.1H32.1V1344.3Z" class="g0_26"/>
<path d="M32.1,179.3H1877V32.1H32.1V179.3Z" class="g1_26"/>
<path d="M1877,177.2H32.1v-5.4H768.7c43.1,0,53,-37.9,115.3,-37.9h993Z" class="g2_26"/>
<path d="M1877,183.7H32.1v-9.8H768.7c43.1,0,53,-33.6,115.3,-33.6h993Z" class="g3_26"/>
</g>
<path d="M218.6,219.3c0,0,-13,0,-13,13v69.3c0,0,0,13,13,13H833.3c0,0,13,0,13,-13V232.3c0,0,0,-13,-13,-13Z" class="g4_26"/>
<image clip-path="url(#c1_26)" preserveAspectRatio="none" x="165" y="233" width="63" height="77" xlink:href="img/1.png"/>
<path d="M213.4,303.5c0,0,-26.9,11.3,-51.1,-12.8c0,0,15.1,25.3,49.2,24c0,0,24.8,.3,20.3,-10.1c0,0,1.2,-4.5,-18.4,-1.1Z" class="g4_26"/>
<path d="M201.2,430.5H362.3v95.3H201.2V430.5Zm322.2,0H684.6v95.3H523.4V430.5Z" class="g5_26"/>
<path d="M362.3,430.5H523.4v95.3H362.3V430.5Zm322.3,0H845.7v95.3H684.6V430.5Z" class="g6_26"/>
<path d="M845.7,525.6v-95" class="g7_26"/>
<path d="M362.5,430.5H523.2m161.5,0H846.3M362.5,525.8H523.2m161.5,0H846.3" class="g8_26"/>
<path d="M845.2,525.6v-95m1,95v-95" class="g9_26"/>
<path d="M523.2,430.5H684.7M523.4,525.6V430.7m161.2,94.9V430.7M523.2,525.8H684.7M201,430.5H362.5M201.2,525.6V430.7m161.1,94.9V430.7M201,525.8H362.5" class="ga_26"/>
<path d="M426.6,457.2c-5.6,-1.1,-10.6,-3.1,-13.8,-3c-3.6,-.1,-4.8,1.5,-8.5,1.4c-2,0,-4.6,-1.4,-9.2,-1.4c-2.7,0,-7.2,1,-11.8,2.7c-5.4,2.1,-11.7,1.6,-13.3,2.7c.1,.6,.3,1.9,4.2,5.1c1.7,1.3,2.7,1.4,8.3,6.8c6.9,6.5,15.2,7.2,21.9,7.2c7.9,0,15.4,-.4,21,-5.3c3.4,-3,5.5,-4.7,10.8,-9.4c2,-1.8,2,-3,2.2,-4c.2,-1.4,-6.3,-1.6,-11.8,-2.8Z" class="gb_26"/>
<path d="M375.6,464.1c.1,-.6,.5,-1,1,-1.1c1.7,-.6,2.3,-.1,2.5,.3c.3,.4,.3,.5,.6,.9c.4,.4,.5,.7,-1,3.2c-.4,.6,-3.2,-1,-3.6,-1.8c-.3,-.5,.2,.3,.5,-1.5Z" class="g6_26"/>
<path d="M375.6,464.1c.1,-.6,.5,-1,1,-1.1c1.7,-.6,2.3,-.1,2.5,.3c.3,.4,.3,.5,.6,.9c.4,.4,.5,.7,-1,3.2c-.4,.6,-3.2,-1,-3.6,-1.8c-.3,-.5,.2,.3,.5,-1.5Z" class="gc_26"/>
<path d="M381.9,464.2c-.3,-.9,-2.3,-.4,-2.8,-.3c-.5,.1,-1.3,1.7,-1,3.1c.3,1.5,2.3,2.2,3.2,2.7c1,.6,1.2,-2.8,1.3,-3.6c.1,-.9,.2,-1.3,-.7,-1.9Z" class="g6_26"/>
<path d="M381.9,464.2c-.3,-.9,-2.3,-.4,-2.8,-.3c-.5,.1,-1.3,1.7,-1,3.1c.3,1.5,2.3,2.2,3.2,2.7c1,.6,1.2,-2.8,1.3,-3.6c.1,-.9,.2,-1.3,-.7,-1.9Z" class="gc_26"/>
<path d="M434.1,463.8c-.1,-.6,-.5,-1.1,-1.1,-1.2c-1.7,-.6,-2.2,-.1,-2.5,.3c-.2,.4,-.2,.5,-.6,1c-.3,.4,1.2,7.7,1.7,4.8c.1,-.9,2.8,-3.2,2.5,-4.9Z" class="g6_26"/>
<path d="M434.1,463.8c-.1,-.6,-.5,-1.1,-1.1,-1.2c-1.7,-.6,-2.2,-.1,-2.5,.3c-.2,.4,-.2,.5,-.6,1c-.3,.4,1.2,7.7,1.7,4.8c.1,-.9,2.8,-3.2,2.5,-4.9Z" class="gc_26"/>
<path d="M430.9,464.8c-.1,-.6,-.7,-1.7,-1.2,-1.8c-1.7,-.6,-2.1,.5,-2.4,.9c-.2,.4,-.6,.8,-.9,1.2c-.4,.4,.1,2.7,1.6,5.2c.4,.6,2.7,-1.5,3.2,-2.4c.2,-.5,0,-1.4,-.3,-3.1Z" class="g6_26"/>
<path d="M430.9,464.8c-.1,-.6,-.7,-1.7,-1.2,-1.8c-1.7,-.6,-2.1,.5,-2.4,.9c-.2,.4,-.6,.8,-.9,1.2c-.4,.4,.1,2.7,1.6,5.2c.4,.6,2.7,-1.5,3.2,-2.4c.2,-.5,0,-1.4,-.3,-3.1Z" class="gc_26"/>
<path d="M387.3,467c-.3,-1,-.2,-1.5,-1.1,-2.2c-.8,-.5,-3.1,.4,-3.6,.5c-.5,.1,-1,2.4,-1.3,3.9c-.3,1.5,3.9,4,4.8,4.5c.9,.6,1.1,-2.8,1.2,-3.7c.1,-.8,.9,-2.5,0,-3Z" class="g6_26"/>
<path d="M387.3,467c-.3,-1,-.2,-1.5,-1.1,-2.2c-.8,-.5,-3.1,.4,-3.6,.5c-.5,.1,-1,2.4,-1.3,3.9c-.3,1.5,3.9,4,4.8,4.5c.9,.6,1.1,-2.8,1.2,-3.7c.1,-.8,.9,-2.5,0,-3Z" class="gc_26"/>
<path d="M392,471c-.3,-1.4,.6,-2.8,.3,-3.5c-.4,-.7,-3.6,-2,-5.1,-1.1c-.6,.4,-1.3,3.1,-1.1,4.6c.2,1.3,.5,.4,1.4,.9c1.7,1.1,4.4,1.1,4.5,-.9Z" class="g6_26"/>
<path d="M392,471c-.3,-1.4,.6,-2.8,.3,-3.5c-.4,-.7,-3.6,-2,-5.1,-1.1c-.6,.4,-1.3,3.1,-1.1,4.6c.2,1.3,.5,.4,1.4,.9c1.7,1.1,4.4,1.1,4.5,-.9Z" class="gc_26"/>
<path d="M426.6,466.3c0,-.6,-.6,-1.6,-1.2,-1.7c-1.7,-.6,-2.1,.5,-2.3,.9c-.3,.4,-.7,.8,-1,1.2c-.3,.4,.2,2.6,1.7,5.1c.3,.6,3.2,-.7,3.7,-1.5c.2,-.5,0,-2.2,-.9,-4Z" class="g6_26"/>
<path d="M426.6,466.3c0,-.6,-.6,-1.6,-1.2,-1.7c-1.7,-.6,-2.1,.5,-2.3,.9c-.3,.4,-.7,.8,-1,1.2c-.3,.4,.2,2.6,1.7,5.1c.3,.6,3.2,-.7,3.7,-1.5c.2,-.5,0,-2.2,-.9,-4Z" class="gc_26"/>
<path d="M421.4,466.1c-1.7,-.6,-2,.1,-2.3,.5c-.3,.4,-.8,1.1,-1.1,1.6c-.4,.4,-.5,2.3,1,4.8c.4,.6,3.9,-1,4.4,-1.8c.5,-.8,-.6,-4.9,-2,-5.1Z" class="g6_26"/>
<path d="M421.4,466.1c-1.7,-.6,-2,.1,-2.3,.5c-.3,.4,-.8,1.1,-1.1,1.6c-.4,.4,-.5,2.3,1,4.8c.4,.6,3.9,-1,4.4,-1.8c.5,-.8,-.6,-4.9,-2,-5.1Z" class="gc_26"/>
<path d="M411.7,471.4c1.4,0,7,1.3,7,0c.1,-1.5,-.4,-4.1,-1.4,-4.3c-1,-.2,-3.6,.5,-4.7,.8c-1.1,.2,-1,.8,-1.1,1.7c0,.9,.2,1.8,.2,1.8Z" class="g6_26"/>
<path d="M411.7,471.4c1.4,0,7,1.3,7,0c.1,-1.5,-.4,-4.1,-1.4,-4.3c-1,-.2,-3.6,.5,-4.7,.8c-1.1,.2,-1,.8,-1.1,1.7c0,.9,.2,1.8,.2,1.8Z" class="gc_26"/>
<path d="M391.4,471.3c.3,-1.6,.3,-4.2,1.7,-4.2c1.3,0,1.5,.2,2.3,.3c.8,.1,2.7,.3,2.5,1.6c-.2,1.2,-.3,2.8,-.3,2.8c0,0,-6.5,2.4,-6.2,-.5Z" class="g6_26"/>
<path d="M391.4,471.3c.3,-1.6,.3,-4.2,1.7,-4.2c1.3,0,1.5,.2,2.3,.3c.8,.1,2.7,.3,2.5,1.6c-.2,1.2,-.3,2.8,-.3,2.8c0,0,-6.5,2.4,-6.2,-.5Z" class="gc_26"/>
<path d="M397.7,471.5c-.2,-.3,-.1,-2.6,.3,-3.3c.2,-.3,.8,-.6,1.8,-.4c2,.4,3.8,-.1,4.5,.5c.3,.2,.4,3,.1,3.8c-.2,.5,-6.7,-.6,-6.7,-.6Z" class="g6_26"/>
<path d="M397.7,471.5c-.2,-.3,-.1,-2.6,.3,-3.3c.2,-.3,.8,-.6,1.8,-.4c2,.4,3.8,-.1,4.5,.5c.3,.2,.4,3,.1,3.8c-.2,.5,-6.7,-.6,-6.7,-.6Z" class="gc_26"/>
<path d="M404.5,468.8c.1,-.4,.2,-.6,.8,-.8c.6,-.3,1.5,0,2.8,-.2c1.2,-.1,2.1,-.1,2.7,.1c.8,.2,1.1,1,1.1,1c0,.5,.2,3.1,.2,3.1c0,0,-7.2,.3,-7.4,.2c-.3,-.1,-.2,-2.6,-.2,-3.4Z" class="g6_26"/>
<path d="M404.5,468.8c.1,-.4,.2,-.6,.8,-.8c.6,-.3,1.5,0,2.8,-.2c1.2,-.1,2.1,-.1,2.7,.1c.8,.2,1.1,1,1.1,1c0,.5,.2,3.1,.2,3.1c0,0,-7.2,.3,-7.4,.2c-.3,-.1,-.2,-2.6,-.2,-3.4Z" class="gc_26"/>
<path d="M427.9,461c.4,.9,.5,.8,1.8,1c1.2,.3,2,-.7,2.3,-1.5c.1,-.4,-2.8,-2.5,-4.3,-1.8c-1.5,.6,.2,2.3,.2,2.3Z" class="g6_26"/>
<path d="M427.9,461c.4,.9,.5,.8,1.8,1c1.2,.3,2,-.7,2.3,-1.5c.1,-.4,-2.8,-2.5,-4.3,-1.8c-1.5,.6,.2,2.3,.2,2.3Z" class="gc_26"/>
<path d="M376.9,461.5c.5,.3,1.3,1.2,2.6,1.4c1.2,.2,1.4,-.4,1.6,-.8c.3,-.3,1.2,-1.9,1.2,-1.9c0,0,-3,-.9,-4.5,-.2c-1.5,.6,-.9,1.5,-.9,1.5Z" class="g6_26"/>
<path d="M376.9,461.5c.5,.3,1.3,1.2,2.6,1.4c1.2,.2,1.4,-.4,1.6,-.8c.3,-.3,1.2,-1.9,1.2,-1.9c0,0,-3,-.9,-4.5,-.2c-1.5,.6,-.9,1.5,-.9,1.5Z" class="gc_26"/>
<path d="M379.5,459.1c.3,2.9,1.9,3.6,2.3,4.1c.4,.5,1.6,.7,3.6,-.6c1.9,-1.3,.4,-5.4,.4,-5.4Z" class="g6_26"/>
<path d="M379.5,459.1c.3,2.9,1.9,3.6,2.3,4.1c.4,.5,1.6,.7,3.6,-.6c1.9,-1.3,.4,-5.4,.4,-5.4l-6.3,1.9Z" class="gc_26"/>
<path d="M428,459.5c-.3,.7,.7,.8,0,2.3c-.6,1.3,-1.1,1.6,-1.8,1.7c-1.2,.1,-2.8,-.1,-3.5,-1.5c-.6,-1.4,.6,-4.1,.6,-4.1c0,0,4.7,.3,4.7,1.6Z" class="g6_26"/>
<path d="M428,459.5c-.3,.7,.7,.8,0,2.3c-.6,1.3,-1.1,1.6,-1.8,1.7c-1.2,.1,-2.8,-.1,-3.5,-1.5c-.6,-1.4,.6,-4.1,.6,-4.1c0,0,4.7,.3,4.7,1.6Z" class="gc_26"/>
<path d="M415,464.6c.2,.6,.6,1,.8,1.2c.2,.1,1.6,.2,3.4,-.2c1.2,-.3,2.5,-.8,3.3,-1.4c.4,-.3,.5,-.8,.6,-1.4c0,-.6,.4,-3.5,-.3,-5.4c-.7,-1.9,-8.2,-.7,-8.4,.5c-.3,1.1,.6,6.7,.6,6.7Z" class="g6_26"/>
<path d="M415,464.6c.2,.6,.6,1,.8,1.2c.2,.1,1.6,.2,3.4,-.2c1.2,-.3,2.5,-.8,3.3,-1.4c.4,-.3,.5,-.8,.6,-1.4c0,-.6,.4,-3.5,-.3,-5.4c-.7,-1.9,-8.2,-.7,-8.4,.5c-.3,1.1,.6,6.7,.6,6.7Z" class="gc_26"/>
<path d="M393,464.5c-.2,.6,-.4,.9,-.7,1.1c-.1,.1,-1.8,.8,-3.5,.4c-1.1,-.3,-2.6,-.5,-3.3,-1c-.4,-.4,-.5,-.9,-.6,-1.4c0,-.6,-.5,-4.2,.2,-6.1c.6,-1.9,8.3,-.7,8.5,.4c.3,1.2,-.6,6.6,-.6,6.6Z" class="g6_26"/>
<path d="M393,464.5c-.2,.6,-.4,.9,-.7,1.1c-.1,.1,-1.8,.8,-3.5,.4c-1.1,-.3,-2.6,-.5,-3.3,-1c-.4,-.4,-.5,-.9,-.6,-1.4c0,-.6,-.5,-4.2,.2,-6.1c.6,-1.9,8.3,-.7,8.5,.4c.3,1.2,-.6,6.6,-.6,6.6Z" class="gc_26"/>
<path d="M404,459.9c.1,.3,.2,1,.2,1.5c.2,1.6,.1,5,.1,5c0,0,-.2,.5,-.5,.7c-2.2,.9,-9,.9,-10.1,-.7c-1,-1.7,-.7,-5.7,-.4,-6.9l.2,-2.2c.5,-.7,9.9,.9,10.5,2.6Z" class="g6_26"/>
<path d="M404,459.9c.1,.3,.2,1,.2,1.5c.2,1.6,.1,5,.1,5c0,0,-.2,.5,-.5,.7c-2.2,.9,-9,.9,-10.1,-.7c-1,-1.7,-.7,-5.7,-.4,-6.9l.2,-2.2c.5,-.7,9.9,.9,10.5,2.6Z" class="gc_26"/>
<path d="M414.4,458c.4,.7,.7,3.9,.7,4.9c0,.9,0,2.4,-.7,3.4c-1.2,.6,-3.4,1,-5,1.2c-2.1,.3,-3.8,-.2,-4.1,-.3c-.5,-.2,-1,-.5,-1,-1.3c0,-1,0,-3.2,0,-4.6c0,-.9,.1,-1.6,.2,-1.9c.3,-.8,9,-2.8,9.9,-1.4Z" class="g6_26"/>
<path d="M414.4,458c.4,.7,.7,3.9,.7,4.9c0,.9,0,2.4,-.7,3.4c-1.2,.6,-3.4,1,-5,1.2c-2.1,.3,-3.8,-.2,-4.1,-.3c-.5,-.2,-1,-.5,-1,-1.3c0,-1,0,-3.2,0,-4.6c0,-.9,.1,-1.6,.2,-1.9c.3,-.8,9,-2.8,9.9,-1.4Z" class="gc_26"/>
<g clip-path="url(#c2_26)">
<path d="M432.1,464.2c-1.4,.9,-4.2,3.1,-9.4,4.1c-5.8,1.1,-11,1,-17.5,1c-8,0,-15.7,.4,-22,-1.9c-4.6,-1.7,-6,-3.2,-9.5,-4.9c-2,-.9,-2.8,-1.6,-2.3,-2.4c.6,-.8,7.5,.9,11,.7c3.4,-.2,5.6,-.5,8,-.5c4.9,.1,9.3,1.4,13.9,1.4c4.8,0,8.3,-1.2,13.1,-1.4c2.6,-.1,4.5,-.1,8.4,.1c3.3,.2,6.4,-.6,8.5,-.5c1.8,.1,2.8,0,3.4,.8c0,1.5,-2.3,1.3,-5.6,3.5m-5.2,-7.3c-4.9,-1.4,-9.7,-3.4,-14.1,-3.2c-3.6,-.1,-4,1.2,-8.3,1.3c-3.1,0,-3.8,-1.3,-8.4,-1.3c-2.7,0,-7,.3,-12.9,2.2c-5.5,1.8,-12.9,2.3,-13.2,4.2c-.2,1.4,.3,2.2,4.2,5.7c1.7,1.4,4.3,3.5,8.3,7.3c7.2,6.7,15.2,6.8,21.9,6.8c7.9,0,16.1,0,21.7,-5.3c5.6,-5.4,6.7,-6.9,9.9,-9.9c2,-1.9,2.9,-2.9,2.7,-4.1c-.3,-2.5,-6.3,-2.3,-11.8,-3.7Z" class="gd_26"/>
<path d="M432.1,464.2c-1.4,.9,-4.2,3.1,-9.4,4.1c-5.8,1.1,-11,1,-17.5,1c-8,0,-15.7,.4,-22,-1.9c-4.6,-1.7,-6,-3.2,-9.5,-4.9c-2,-.9,-2.8,-1.6,-2.3,-2.4c.6,-.8,7.5,.9,11,.7c3.4,-.2,5.6,-.5,8,-.5c4.9,.1,9.3,1.4,13.9,1.4c4.8,0,8.3,-1.2,13.1,-1.4c2.6,-.1,4.5,-.1,8.4,.1c3.3,.2,6.4,-.6,8.5,-.5c1.8,.1,2.8,0,3.4,.8c0,1.5,-2.3,1.3,-5.6,3.5Zm-5.2,-7.3c-4.9,-1.4,-9.7,-3.4,-14.1,-3.2c-3.6,-.1,-4,1.2,-8.3,1.3c-3.1,0,-3.8,-1.3,-8.4,-1.3c-2.7,0,-7,.3,-12.9,2.2c-5.5,1.8,-12.9,2.3,-13.2,4.2c-.2,1.4,.3,2.2,4.2,5.7c1.7,1.4,4.3,3.5,8.3,7.3c7.2,6.7,15.2,6.8,21.9,6.8c7.9,0,16.1,0,21.7,-5.3c5.6,-5.4,6.7,-6.9,9.9,-9.9c2,-1.9,2.9,-2.9,2.7,-4.1c-.3,-2.5,-6.3,-2.3,-11.8,-3.7Z" class="gc_26"/>
</g>
<path clip-path="url(#c3_26)" d="M512.6,454.9C510.4,453.1,507.9,452,506,451c-3.8,-1.9,-7.4,-3.2,-9.8,-3.1c-2.6,0,-4.1,1.2,-6.9,1.1c-1.5,0,-3.9,-1.2,-7.3,-1.2c-2.1,0,-5.2,1.1,-8.7,2.7c-4,1.7,-9.4,4.4,-10.5,6.5c-.5,2.3,.8,4.9,2.5,8.3c1.6,3.4,3.3,9.9,7.6,14.4c5.1,5.6,11.2,6.1,16.2,6.1c5.9,0,12.5,-.7,16.7,-4.9c4.2,-4.1,6.6,-14.1,8.4,-17.3c.9,-1.6,1.3,-3.6,1.3,-5c0,-1.2,-.9,-2.2,-2.9,-3.7Z" class="gb_26"/>
<path d="M468.2,452c0,0,.9,1.7,1.5,2.2c.3,.3,1.4,-.1,1.7,-.3c.2,-.3,-.5,-3.1,-.5,-3.1Z" class="g6_26"/>
<path d="M507.3,453.6c.3,.2,.8,.7,1.8,.9c.9,.2,1.2,-.5,1.4,-.8c.2,-.2,-2.4,-3.1,-3.5,-2.7c-1.1,.5,.3,2.6,.3,2.6Z" class="g6_26"/>
<path d="M507.3,453.6c.3,.2,.8,.7,1.8,.9c.9,.2,1.2,-.5,1.4,-.8c.2,-.2,-2.4,-3.1,-3.5,-2.7c-1.1,.5,.3,2.6,.3,2.6Z" class="ge_26"/>
<path d="M468.4,453.8c.4,.3,1,.9,1.9,1.1c.9,.2,1.1,-.3,1.3,-.6c.2,-.2,.9,-1.5,.9,-1.5c0,0,-2.3,-.6,-3.4,-.1c-1.1,.5,-.7,1.1,-.7,1.1Z" class="g6_26"/>
<path d="M468.4,453.8c.4,.3,1,.9,1.9,1.1c.9,.2,1.1,-.3,1.3,-.6c.2,-.2,.9,-1.5,.9,-1.5c0,0,-2.3,-.6,-3.4,-.1c-1.1,.5,-.7,1.1,-.7,1.1Z" class="ge_26"/>
<path d="M470.3,451.1c.3,2.8,1.5,3.7,1.8,4c.3,.4,1.2,.5,2.7,-.4c1.5,-1,.3,-5.1,.3,-5.1Z" class="g6_26"/>
<path d="M470.3,451.1c.3,2.8,1.5,3.7,1.8,4c.3,.4,1.2,.5,2.7,-.4c1.5,-1,.3,-5.1,.3,-5.1l-4.8,1.5Z" class="ge_26"/>
<path d="M507.6,452.4c-.2,.6,-.1,.7,-.6,1.9c-.4,.9,-.8,1.2,-1.4,1.2c-.9,.1,-2,0,-2.6,-1.1c-.5,-1.1,.3,-5.1,.3,-5.1c0,0,4.3,2.1,4.3,3.1Z" class="g6_26"/>
<path d="M507.6,452.4c-.2,.6,-.1,.7,-.6,1.9c-.4,.9,-.8,1.2,-1.4,1.2c-.9,.1,-2,0,-2.6,-1.1c-.5,-1.1,.3,-5.1,.3,-5.1c0,0,4.3,2.1,4.3,3.1Z" class="ge_26"/>
<path d="M497.2,455.7c.2,.4,.4,.7,.6,.9c.2,.1,1.2,.1,2.5,-.2c1,-.2,2,-.6,2.5,-1c.4,-.3,.4,-.7,.5,-1.1c0,-.4,.3,-2.7,-.2,-4.1c-.5,-1.4,-6.2,-.5,-6.4,.4c-.2,.8,.5,5.1,.5,5.1Z" class="g6_26"/>
<path d="M497.2,455.7c.2,.4,.4,.7,.6,.9c.2,.1,1.2,.1,2.5,-.2c1,-.2,2,-.6,2.5,-1c.4,-.3,.4,-.7,.5,-1.1c0,-.4,.3,-2.7,-.2,-4.1c-.5,-1.4,-6.2,-.5,-6.4,.4c-.2,.8,.5,5.1,.5,5.1Z" class="ge_26"/>
<path d="M480.6,455.6c-.2,.4,-.4,.7,-.6,.8c-.1,.1,-1.3,.6,-2.6,.3c-.9,-.2,-2,-.3,-2.5,-.8c-.4,-.2,-.4,-.6,-.4,-1c-.1,-.5,-.4,-3.2,.1,-4.7c.4,-1.4,6.2,-.4,6.4,.4c.2,.9,-.4,5,-.4,5Z" class="g6_26"/>
<path d="M480.6,455.6c-.2,.4,-.4,.7,-.6,.8c-.1,.1,-1.3,.6,-2.6,.3c-.9,-.2,-2,-.3,-2.5,-.8c-.4,-.2,-.4,-.6,-.4,-1c-.1,-.5,-.4,-3.2,.1,-4.7c.4,-1.4,6.2,-.4,6.4,.4c.2,.9,-.4,5,-.4,5Z" class="ge_26"/>
<path d="M488.8,452.1c.1,.2,.2,.7,.3,1.1c.1,1.2,0,3.8,0,3.8c0,0,-.1,.4,-.4,.6c-1.6,.6,-6.8,.6,-7.6,-.6c-.8,-1.2,-.6,-4.3,-.3,-5.2l.2,-1.7c.3,-.5,7.4,.7,7.8,2Z" class="g6_26"/>
<path d="M488.8,452.1c.1,.2,.2,.7,.3,1.1c.1,1.2,0,3.8,0,3.8c0,0,-.1,.4,-.4,.6c-1.6,.6,-6.8,.6,-7.6,-.6c-.8,-1.2,-.6,-4.3,-.3,-5.2l.2,-1.7c.3,-.5,7.4,.7,7.8,2Z" class="ge_26"/>
<path d="M496.7,450.7c.4,.5,.6,2.9,.6,3.7c0,.7,-.1,1.6,-.6,2.4c-.9,.4,-2.3,.6,-3.5,.8c-1.6,.2,-3.1,.1,-3.3,0c-.4,-.2,-.8,-.4,-.8,-.9c0,-.8,0,-2.5,0,-3.6c0,-.6,.1,-1.2,.2,-1.3c.2,-.7,6.7,-2.2,7.4,-1.1Z" class="g6_26"/>
<path d="M496.7,450.7c.4,.5,.6,2.9,.6,3.7c0,.7,-.1,1.6,-.6,2.4c-.9,.4,-2.3,.6,-3.5,.8c-1.6,.2,-3.1,.1,-3.3,0c-.4,-.2,-.8,-.4,-.8,-.9c0,-.8,0,-2.5,0,-3.6c0,-.6,.1,-1.2,.2,-1.3c.2,-.7,6.7,-2.2,7.4,-1.1Z" class="ge_26"/>
<path d="M476,475.1c-.3,-.8,-.1,-1.4,-.8,-1.9c-.6,-.4,-1.9,.2,-2.3,.3c-.4,.1,-1.3,1.6,-1.5,2.8c-.2,1.1,3,3.5,3.6,3.9c.7,.4,.9,-2.2,1,-2.8c0,-.7,.7,-1.9,0,-2.3Z" class="g6_26"/>
<path d="M476,475.1c-.3,-.8,-.1,-1.4,-.8,-1.9c-.6,-.4,-1.9,.2,-2.3,.3c-.4,.1,-1.3,1.6,-1.5,2.8c-.2,1.1,3,3.5,3.6,3.9c.7,.4,.9,-2.2,1,-2.8c0,-.7,.7,-1.9,0,-2.3Z" class="ge_26"/>
<path d="M479.5,476.6c-.2,-1,-.9,-1.3,-1.2,-1.9c-.3,-.5,-.9,-1,-2,-.3c-.4,.3,-1.3,2.1,-1.5,3c-.1,1,.7,1,1.3,1.4c1.3,.8,3.3,-.7,3.4,-2.2Z" class="g6_26"/>
<path d="M479.5,476.6c-.2,-1,-.9,-1.3,-1.2,-1.9c-.3,-.5,-.9,-1,-2,-.3c-.4,.3,-1.3,2.1,-1.5,3c-.1,1,.7,1,1.3,1.4c1.3,.8,3.3,-.7,3.4,-2.2Z" class="ge_26"/>
<path d="M506.4,474.1c-.5,-.4,-.9,-.8,-1.3,-.9c-1.3,-.4,-1.8,.4,-2,.7c-.2,.4,-.7,1.1,-.9,1.5c-.3,.3,-.4,1.5,.8,3.4c.2,.5,4.1,-3,4.4,-3.7c.2,-.3,-.4,-.5,-1,-1Z" class="g6_26"/>
<path d="M506.4,474.1c-.5,-.4,-.9,-.8,-1.3,-.9c-1.3,-.4,-1.8,.4,-2,.7c-.2,.4,-.7,1.1,-.9,1.5c-.3,.3,-.4,1.5,.8,3.4c.2,.5,4.1,-3,4.4,-3.7c.2,-.3,-.4,-.5,-1,-1Z" class="ge_26"/>
<path d="M502,474.4c-1.3,-.5,-1.5,0,-1.7,.4c-.2,.3,-.6,.8,-.9,1.2c-.2,.3,-.3,1.7,.8,3.6c.3,.5,2.9,-1.7,3.2,-2.4c.4,-.6,-.3,-2.6,-1.4,-2.8Z" class="g6_26"/>
<path d="M502,474.4c-1.3,-.5,-1.5,0,-1.7,.4c-.2,.3,-.6,.8,-.9,1.2c-.2,.3,-.3,1.7,.8,3.6c.3,.5,2.9,-1.7,3.2,-2.4c.4,-.6,-.3,-2.6,-1.4,-2.8Z" class="ge_26"/>
<path d="M495.2,478.1c1,0,4.7,-.7,4.7,-1.7c.1,-1.2,-.6,-1.1,-1.4,-1.3c-.7,-.1,-2.3,.5,-3.1,.6c-.9,.2,-.8,.7,-.8,1.4c-.1,.6,.6,1,.6,1Z" class="g6_26"/>
<path d="M495.2,478.1c1,0,4.7,-.7,4.7,-1.7c.1,-1.2,-.6,-1.1,-1.4,-1.3c-.7,-.1,-2.3,.5,-3.1,.6c-.9,.2,-.8,.7,-.8,1.4c-.1,.6,.6,1,.6,1Z" class="ge_26"/>
<path d="M478.3,477.7c.3,-1.1,1,-2.6,2,-2.6c1,0,1.2,.2,1.8,.3c.6,.1,2.1,.2,1.9,1.2c-.1,.9,-.2,2.1,-.2,2.1c0,0,-6.1,1,-5.5,-1Z" class="g6_26"/>
<path d="M478.3,477.7c.3,-1.1,1,-2.6,2,-2.6c1,0,1.2,.2,1.8,.3c.6,.1,2.1,.2,1.9,1.2c-.1,.9,-.2,2.1,-.2,2.1c0,0,-6.1,1,-5.5,-1Z" class="ge_26"/>
<path d="M484.1,478.5c-.1,-.3,-.1,-2,.2,-2.5c.2,-.3,.7,-.5,1.4,-.3c1.5,.3,2.9,-.1,3.4,.4c.2,.1,.3,.8,.1,1.3c-.1,.4,-5.1,1.1,-5.1,1.1Z" class="g6_26"/>
<path d="M484.1,478.5c-.1,-.3,-.1,-2,.2,-2.5c.2,-.3,.7,-.5,1.4,-.3c1.5,.3,2.9,-.1,3.4,.4c.2,.1,.3,.8,.1,1.3c-.1,.4,-5.1,1.1,-5.1,1.1Z" class="ge_26"/>
<path d="M489.3,476.4c.1,-.3,.1,-.4,.5,-.6c.5,-.2,1.2,0,2.1,-.1c1,-.1,1.7,-.1,2.1,0c.6,.2,.6,.7,.6,.7V478c0,0,-5.1,0,-5.3,0c-.2,-.1,-.1,-1,0,-1.6Z" class="g6_26"/>
<path d="M489.3,476.4c.1,-.3,.1,-.4,.5,-.6c.5,-.2,1.2,0,2.1,-.1c1,-.1,1.7,-.1,2.1,0c.6,.2,.6,.7,.6,.7V478c0,0,-5.1,0,-5.3,0c-.2,-.1,-.1,-1,0,-1.6Z" class="ge_26"/>
<g clip-path="url(#c3_26)">
<path d="M510.9,467.2c-2.1,2.7,-4.2,5.7,-8.1,7.6c-3.9,1.9,-8.1,1.7,-13,1.7c-6.1,0,-12.5,.4,-16.9,-4.2c-3.5,-3.6,-6.3,-7.1,-7.6,-8.5c-1.3,-1.4,-3.6,-6.2,-1.4,-7.8c2.2,-1.7,5.2,-1.7,7.8,-2.1c2.6,-.5,5.1,-1.2,6.9,-1.1c1.8,.1,5.2,1.3,10.3,1.3c3.7,.2,6.5,-1.1,10.1,-1.3c2,-.3,3.4,-.4,6.3,.1c2.6,.5,4.3,1.1,5.9,1.6c2.8,1.1,4.1,3.1,4.1,3.7c.3,1.7,-1.5,5.3,-4.4,9m2,-12.8c-2.3,-1.9,-4.8,-3,-6.8,-4.1c-3.8,-2,-8,-3.4,-10.4,-3.3c-2.6,-.1,-3.6,1.3,-6.4,1.3c-1.5,0,-3.5,-1.3,-6.9,-1.3c-2.1,0,-5.7,1.2,-9.2,2.8c-4.1,1.8,-9.3,5,-10.5,7.1c-.4,2.5,.7,4.8,2.3,8.3c1.7,3.6,3.4,10.3,7.7,15.1c5.2,5.7,11.3,6.3,16.4,6.3c6,0,12.7,-.7,16.9,-5.1c4.2,-4.3,6.5,-13.7,8.4,-18c.8,-1.8,1.4,-3.7,1.4,-5.2c0,-1.3,-.9,-2.3,-2.9,-3.9Z" class="gd_26"/>
<path d="M510.9,467.2c-2.1,2.7,-4.2,5.7,-8.1,7.6c-3.9,1.9,-8.1,1.7,-13,1.7c-6.1,0,-12.5,.4,-16.9,-4.2c-3.5,-3.6,-6.3,-7.1,-7.6,-8.5c-1.3,-1.4,-3.6,-6.2,-1.4,-7.8c2.2,-1.7,5.2,-1.7,7.8,-2.1c2.6,-.5,5.1,-1.2,6.9,-1.1c1.8,.1,5.2,1.3,10.3,1.3c3.7,.2,6.5,-1.1,10.1,-1.3c2,-.3,3.4,-.4,6.3,.1c2.6,.5,4.3,1.1,5.9,1.6c2.8,1.1,4.1,3.1,4.1,3.7c.3,1.7,-1.5,5.3,-4.4,9Zm2,-12.8c-2.3,-1.9,-4.8,-3,-6.8,-4.1c-3.8,-2,-8,-3.4,-10.4,-3.3c-2.6,-.1,-3.6,1.3,-6.4,1.3c-1.5,0,-3.5,-1.3,-6.9,-1.3c-2.1,0,-5.7,1.2,-9.2,2.8c-4.1,1.8,-9.3,5,-10.5,7.1c-.4,2.5,.7,4.8,2.3,8.3c1.7,3.6,3.4,10.3,7.7,15.1c5.2,5.7,11.3,6.3,16.4,6.3c6,0,12.7,-.7,16.9,-5.1c4.2,-4.3,6.5,-13.7,8.4,-18c.8,-1.8,1.4,-3.7,1.4,-5.2c0,-1.3,-.9,-2.3,-2.9,-3.9Z" class="ge_26"/>
</g>
<path d="M748.8,460.1c-5.5,-1.2,-10.6,-3.1,-13.8,-3c-3.5,-.1,-4.8,1.5,-8.4,1.4c-2,0,-4.7,-1.4,-9.2,-1.4c-2.8,0,-7.2,.9,-11.9,2.7c-5.3,2.1,-11.7,1.6,-13.2,2.7c0,.6,.3,1.9,4.2,5.1c1.6,1.3,2.6,1.4,8.3,6.8c6.8,6.5,15.2,7.2,21.9,7.2c7.9,0,15.3,-.4,20.9,-5.3c3.5,-3,5.6,-4.8,10.8,-9.4c2,-1.8,2.1,-3,2.2,-4c.3,-1.4,-6.3,-1.6,-11.8,-2.8Z" class="gb_26"/>
<path d="M697.8,467c.1,-.6,.5,-1,1.1,-1.1c1.7,-.6,2.2,-.2,2.5,.3c.3,.4,.3,.5,.6,.9c.3,.4,.4,.7,-1.1,3.2c-.3,.6,-3.1,-1,-3.6,-1.9c-.2,-.4,.3,.4,.5,-1.4Z" class="g6_26"/>
<path d="M697.8,467c.1,-.6,.5,-1,1.1,-1.1c1.7,-.6,2.2,-.2,2.5,.3c.3,.4,.3,.5,.6,.9c.3,.4,.4,.7,-1.1,3.2c-.3,.6,-3.1,-1,-3.6,-1.9c-.2,-.4,.3,.4,.5,-1.4Z" class="gc_26"/>
<path d="M704.2,467.1c-.3,-.9,-2.3,-.4,-2.8,-.3c-.5,.1,-1.3,1.7,-1.1,3.1c.3,1.5,2.4,2.2,3.3,2.7c.9,.5,1.1,-2.8,1.2,-3.7c.1,-.8,.3,-1.3,-.6,-1.8Z" class="g6_26"/>
<path d="M704.2,467.1c-.3,-.9,-2.3,-.4,-2.8,-.3c-.5,.1,-1.3,1.7,-1.1,3.1c.3,1.5,2.4,2.2,3.3,2.7c.9,.5,1.1,-2.8,1.2,-3.7c.1,-.8,.3,-1.3,-.6,-1.8Z" class="gc_26"/>
<path d="M756.4,466.6c-.1,-.6,-.6,-1,-1.1,-1.1c-1.7,-.6,-2.2,-.1,-2.5,.3c-.3,.4,-.3,.5,-.6,.9c-.4,.5,1.2,7.8,1.6,4.9c.2,-.9,2.8,-3.2,2.6,-5Z" class="g6_26"/>
<path d="M756.4,466.6c-.1,-.6,-.6,-1,-1.1,-1.1c-1.7,-.6,-2.2,-.1,-2.5,.3c-.3,.4,-.3,.5,-.6,.9c-.4,.5,1.2,7.8,1.6,4.9c.2,-.9,2.8,-3.2,2.6,-5Z" class="gc_26"/>
<path d="M753.2,467.7c-.1,-.7,-.7,-1.7,-1.3,-1.8c-1.7,-.6,-2,.5,-2.3,.9c-.3,.4,-.6,.8,-1,1.2c-.3,.4,.2,2.7,1.7,5.1c.4,.7,2.7,-1.5,3.1,-2.3c.3,-.5,0,-1.4,-.2,-3.1Z" class="g6_26"/>
<path d="M753.2,467.7c-.1,-.7,-.7,-1.7,-1.3,-1.8c-1.7,-.6,-2,.5,-2.3,.9c-.3,.4,-.6,.8,-1,1.2c-.3,.4,.2,2.7,1.7,5.1c.4,.7,2.7,-1.5,3.1,-2.3c.3,-.5,0,-1.4,-.2,-3.1Z" class="gc_26"/>
<path d="M709.5,469.9c-.3,-1,-.2,-1.6,-1.1,-2.2c-.7,-.5,-3,.3,-3.5,.5c-.5,.1,-1,2.4,-1.3,3.9c-.3,1.5,3.8,4,4.7,4.5c.9,.5,1.1,-2.8,1.2,-3.7c.1,-.8,1,-2.5,0,-3Z" class="g6_26"/>
<path d="M709.5,469.9c-.3,-1,-.2,-1.6,-1.1,-2.2c-.7,-.5,-3,.3,-3.5,.5c-.5,.1,-1,2.4,-1.3,3.9c-.3,1.5,3.8,4,4.7,4.5c.9,.5,1.1,-2.8,1.2,-3.7c.1,-.8,1,-2.5,0,-3Z" class="gc_26"/>
<path d="M714.3,473.8c-.3,-1.3,.6,-2.7,.2,-3.4c-.3,-.7,-3.6,-2,-5.1,-1.1c-.5,.3,-1.3,3,-1,4.5c.2,1.3,.5,.4,1.4,1c1.7,1.1,4.4,1,4.5,-1Z" class="g6_26"/>
<path d="M714.3,473.8c-.3,-1.3,.6,-2.7,.2,-3.4c-.3,-.7,-3.6,-2,-5.1,-1.1c-.5,.3,-1.3,3,-1,4.5c.2,1.3,.5,.4,1.4,1c1.7,1.1,4.4,1,4.5,-1Z" class="gc_26"/>
<path d="M748.9,469.2c-.1,-.6,-.7,-1.6,-1.2,-1.7c-1.7,-.6,-2.1,.5,-2.4,.9c-.2,.4,-.6,.8,-.9,1.2c-.4,.4,.1,2.6,1.6,5.1c.4,.6,3.2,-.7,3.7,-1.6c.3,-.4,0,-2.2,-.8,-3.9Z" class="g6_26"/>
<path d="M748.9,469.2c-.1,-.6,-.7,-1.6,-1.2,-1.7c-1.7,-.6,-2.1,.5,-2.4,.9c-.2,.4,-.6,.8,-.9,1.2c-.4,.4,.1,2.6,1.6,5.1c.4,.6,3.2,-.7,3.7,-1.6c.3,-.4,0,-2.2,-.8,-3.9Z" class="gc_26"/>
<path d="M743.6,468.9c-1.7,-.5,-2,.1,-2.2,.6c-.3,.4,-.8,1.1,-1.2,1.5c-.3,.5,-.5,2.4,1,4.9c.4,.6,4,-1,4.4,-1.8c.5,-.9,-.6,-4.9,-2,-5.2Z" class="g6_26"/>
<path d="M743.6,468.9c-1.7,-.5,-2,.1,-2.2,.6c-.3,.4,-.8,1.1,-1.2,1.5c-.3,.5,-.5,2.4,1,4.9c.4,.6,4,-1,4.4,-1.8c.5,-.9,-.6,-4.9,-2,-5.2Z" class="gc_26"/>
<path d="M734,474.3c1.4,0,6.9,1.3,7,0c.1,-1.6,-.4,-4.1,-1.4,-4.3c-1,-.2,-3.7,.5,-4.8,.7c-1,.2,-1,.9,-1,1.8c-.1,.8,.2,1.8,.2,1.8Z" class="g6_26"/>
<path d="M734,474.3c1.4,0,6.9,1.3,7,0c.1,-1.6,-.4,-4.1,-1.4,-4.3c-1,-.2,-3.7,.5,-4.8,.7c-1,.2,-1,.9,-1,1.8c-.1,.8,.2,1.8,.2,1.8Z" class="gc_26"/>
<path d="M713.7,474.2c.2,-1.6,.3,-4.2,1.6,-4.2c1.3,0,1.6,.2,2.4,.3c.8,.1,2.7,.3,2.5,1.6c-.2,1.2,-.3,2.8,-.3,2.8c0,0,-6.6,2.3,-6.2,-.5Z" class="g6_26"/>
<path d="M713.7,474.2c.2,-1.6,.3,-4.2,1.6,-4.2c1.3,0,1.6,.2,2.4,.3c.8,.1,2.7,.3,2.5,1.6c-.2,1.2,-.3,2.8,-.3,2.8c0,0,-6.6,2.3,-6.2,-.5Z" class="gc_26"/>
<path d="M719.9,474.4c-.1,-.3,-.1,-2.6,.4,-3.3c.1,-.3,.8,-.6,1.7,-.4c2.1,.3,3.8,-.1,4.5,.5c.3,.2,.4,3,.2,3.8c-.2,.5,-6.8,-.6,-6.8,-.6Z" class="g6_26"/>
<path d="M719.9,474.4c-.1,-.3,-.1,-2.6,.4,-3.3c.1,-.3,.8,-.6,1.7,-.4c2.1,.3,3.8,-.1,4.5,.5c.3,.2,.4,3,.2,3.8c-.2,.5,-6.8,-.6,-6.8,-.6Z" class="gc_26"/>
<path d="M726.8,471.7c0,-.5,.1,-.7,.7,-.9c.7,-.2,1.6,0,2.8,-.1c1.2,-.1,2.2,-.1,2.7,.1c.8,.2,1.1,1,1.1,1c0,.4,.3,3.1,.3,3.1c0,0,-7.2,.3,-7.5,.2c-.3,-.1,-.2,-2.6,-.1,-3.4Z" class="g6_26"/>
<path d="M726.8,471.7c0,-.5,.1,-.7,.7,-.9c.7,-.2,1.6,0,2.8,-.1c1.2,-.1,2.2,-.1,2.7,.1c.8,.2,1.1,1,1.1,1c0,.4,.3,3.1,.3,3.1c0,0,-7.2,.3,-7.5,.2c-.3,-.1,-.2,-2.6,-.1,-3.4Z" class="gc_26"/>
<path d="M750.1,463.9c.4,.9,.6,.8,1.8,1c1.2,.2,2.1,-.7,2.3,-1.5c.2,-.4,-2.8,-2.5,-4.3,-1.8c-1.4,.6,.2,2.3,.2,2.3Z" class="g6_26"/>
<path d="M750.1,463.9c.4,.9,.6,.8,1.8,1c1.2,.2,2.1,-.7,2.3,-1.5c.2,-.4,-2.8,-2.5,-4.3,-1.8c-1.4,.6,.2,2.3,.2,2.3Z" class="gc_26"/>
<path d="M699.2,464.4c.5,.3,1.3,1.2,2.5,1.4c1.2,.2,1.4,-.4,1.7,-.8c.3,-.3,1.2,-2,1.2,-2c0,0,-3,-.8,-4.5,-.1c-1.5,.6,-.9,1.5,-.9,1.5Z" class="g6_26"/>
<path d="M699.2,464.4c.5,.3,1.3,1.2,2.5,1.4c1.2,.2,1.4,-.4,1.7,-.8c.3,-.3,1.2,-2,1.2,-2c0,0,-3,-.8,-4.5,-.1c-1.5,.6,-.9,1.5,-.9,1.5Z" class="gc_26"/>
<path d="M701.7,462c.4,2.9,1.9,3.6,2.3,4.1c.4,.5,1.7,.6,3.6,-.6c2,-1.3,.5,-5.5,.5,-5.5Z" class="g6_26"/>
<path d="M701.7,462c.4,2.9,1.9,3.6,2.3,4.1c.4,.5,1.7,.6,3.6,-.6c2,-1.3,.5,-5.5,.5,-5.5l-6.4,2Z" class="gc_26"/>
<path d="M750.3,462.4c-.3,.7,.6,.8,-.1,2.3c-.5,1.2,-1,1.6,-1.8,1.7c-1.2,.1,-2.7,-.1,-3.4,-1.5c-.7,-1.4,.5,-4.2,.5,-4.2c0,0,4.7,.3,4.8,1.7Z" class="g6_26"/>
<path d="M750.3,462.4c-.3,.7,.6,.8,-.1,2.3c-.5,1.2,-1,1.6,-1.8,1.7c-1.2,.1,-2.7,-.1,-3.4,-1.5c-.7,-1.4,.5,-4.2,.5,-4.2c0,0,4.7,.3,4.8,1.7Z" class="gc_26"/>
<path d="M737.3,467.5c.2,.6,.5,1,.8,1.2c.2,.1,1.5,.2,3.3,-.2c1.3,-.3,2.6,-.9,3.3,-1.4c.5,-.4,.6,-.9,.6,-1.4c.1,-.6,.4,-3.5,-.2,-5.4c-.7,-1.9,-8.2,-.7,-8.5,.5c-.3,1.1,.7,6.7,.7,6.7Z" class="g6_26"/>
<path d="M737.3,467.5c.2,.6,.5,1,.8,1.2c.2,.1,1.5,.2,3.3,-.2c1.3,-.3,2.6,-.9,3.3,-1.4c.5,-.4,.6,-.9,.6,-1.4c.1,-.6,.4,-3.5,-.2,-5.4c-.7,-1.9,-8.2,-.7,-8.5,.5c-.3,1.1,.7,6.7,.7,6.7Z" class="gc_26"/>
<path d="M715.3,467.4c-.2,.6,-.5,.9,-.7,1.1c-.2,.1,-1.9,.7,-3.5,.3c-1.2,-.2,-2.6,-.4,-3.3,-.9c-.5,-.4,-.5,-.9,-.6,-1.4c-.1,-.6,-.5,-4.3,.1,-6.2c.7,-1.9,8.3,-.6,8.6,.5c.2,1.2,-.6,6.6,-.6,6.6Z" class="g6_26"/>
<path d="M715.3,467.4c-.2,.6,-.5,.9,-.7,1.1c-.2,.1,-1.9,.7,-3.5,.3c-1.2,-.2,-2.6,-.4,-3.3,-.9c-.5,-.4,-.5,-.9,-.6,-1.4c-.1,-.6,-.5,-4.3,.1,-6.2c.7,-1.9,8.3,-.6,8.6,.5c.2,1.2,-.6,6.6,-.6,6.6Z" class="gc_26"/>
<path d="M726.2,462.7c.2,.4,.2,1,.3,1.6c.1,1.5,.1,4.9,.1,4.9c0,0,-.2,.6,-.5,.8c-2.2,.9,-9.1,.9,-10.2,-.7c-1,-1.7,-.7,-5.7,-.4,-6.9l.3,-2.2c.5,-.7,9.8,.9,10.4,2.5Z" class="g6_26"/>
<path d="M726.2,462.7c.2,.4,.2,1,.3,1.6c.1,1.5,.1,4.9,.1,4.9c0,0,-.2,.6,-.5,.8c-2.2,.9,-9.1,.9,-10.2,-.7c-1,-1.7,-.7,-5.7,-.4,-6.9l.3,-2.2c.5,-.7,9.8,.9,10.4,2.5Z" class="gc_26"/>
<path d="M736.6,460.9c.5,.7,.8,3.9,.8,4.9c0,.9,-.1,2.4,-.7,3.4c-1.2,.6,-3.5,1,-5.1,1.2c-2,.3,-3.7,-.2,-4,-.4c-.5,-.2,-1,-.4,-1,-1.2c0,-1,-.1,-3.3,0,-4.7c0,-.8,.1,-1.6,.2,-1.8c.2,-.8,8.9,-2.9,9.8,-1.4Z" class="g6_26"/>
<path d="M736.6,460.9c.5,.7,.8,3.9,.8,4.9c0,.9,-.1,2.4,-.7,3.4c-1.2,.6,-3.5,1,-5.1,1.2c-2,.3,-3.7,-.2,-4,-.4c-.5,-.2,-1,-.4,-1,-1.2c0,-1,-.1,-3.3,0,-4.7c0,-.8,.1,-1.6,.2,-1.8c.2,-.8,8.9,-2.9,9.8,-1.4Z" class="gc_26"/>
<g clip-path="url(#c4_26)">
<path d="M754.4,467c-1.4,1,-4.3,3.2,-9.4,4.2c-5.9,1.1,-11,1,-17.5,1c-8.1,0,-15.7,.4,-22.1,-2c-4.6,-1.7,-6,-3.2,-9.5,-4.8c-1.9,-.9,-2.8,-1.6,-2.2,-2.4c.5,-.8,7.5,.9,10.9,.6c3.5,-.2,5.7,-.4,8.1,-.4c4.8,.1,9.3,1.3,13.8,1.3c4.9,.1,8.4,-1.2,13.1,-1.3c2.7,-.1,4.5,-.1,8.4,.1c3.4,.2,6.5,-.6,8.6,-.5c1.7,.1,2.8,-.1,3.4,.8c0,1.5,-2.3,1.3,-5.6,3.4m-5.2,-7.3c-4.9,-1.3,-9.7,-3.3,-14.2,-3.2c-3.5,-.1,-4,1.3,-8.3,1.3c-3.1,0,-3.8,-1.2,-8.3,-1.2c-2.8,0,-7.1,.3,-13,2.2c-5.5,1.8,-12.9,2.3,-13.1,4.2c-.3,1.3,.2,2.2,4.2,5.7c1.6,1.4,4.3,3.5,8.3,7.3c7.2,6.7,15.2,6.8,21.9,6.8c7.9,0,16.1,0,21.7,-5.4c5.5,-5.3,6.7,-6.8,9.8,-9.8c2,-1.9,3,-2.9,2.8,-4.1c-.3,-2.5,-6.4,-2.3,-11.8,-3.8Z" class="gd_26"/>
<path d="M754.4,467c-1.4,1,-4.3,3.2,-9.4,4.2c-5.9,1.1,-11,1,-17.5,1c-8.1,0,-15.7,.4,-22.1,-2c-4.6,-1.7,-6,-3.2,-9.5,-4.8c-1.9,-.9,-2.8,-1.6,-2.2,-2.4c.5,-.8,7.5,.9,10.9,.6c3.5,-.2,5.7,-.4,8.1,-.4c4.8,.1,9.3,1.3,13.8,1.3c4.9,.1,8.4,-1.2,13.1,-1.3c2.7,-.1,4.5,-.1,8.4,.1c3.4,.2,6.5,-.6,8.6,-.5c1.7,.1,2.8,-.1,3.4,.8c0,1.5,-2.3,1.3,-5.6,3.4Zm-5.2,-7.3c-4.9,-1.3,-9.7,-3.3,-14.2,-3.2c-3.5,-.1,-4,1.3,-8.3,1.3c-3.1,0,-3.8,-1.2,-8.3,-1.2c-2.8,0,-7.1,.3,-13,2.2c-5.5,1.8,-12.9,2.3,-13.1,4.2c-.3,1.3,.2,2.2,4.2,5.7c1.6,1.4,4.3,3.5,8.3,7.3c7.2,6.7,15.2,6.8,21.9,6.8c7.9,0,16.1,0,21.7,-5.4c5.5,-5.3,6.7,-6.8,9.8,-9.8c2,-1.9,3,-2.9,2.8,-4.1c-.3,-2.5,-6.4,-2.3,-11.8,-3.8Z" class="gc_26"/>
</g>
<path d="M834.2,461.1c-1.9,-2.3,-5.2,-6.4,-6.9,-7.9C823.6,450,820,448,817.6,448.1c-2.8,0,-3.7,1.3,-6.5,1.2c-1.6,0,-3.6,-1.2,-7.1,-1.2c-2.1,0,-5.8,2.1,-9.3,5.6c-3.3,3.4,-8.2,12.2,-9.3,14.1c-.5,2.4,-.5,4.5,1.9,7.5c2.1,2.5,4.7,5.6,7.4,8.8c5,5.7,11.1,5.5,16.3,5.5c6,0,13.1,-.5,17.3,-4.7c4.3,-4.2,6.3,-9,9,-12.1c.3,-.3,.8,-2.7,.5,-4c-.2,-1.2,-1.5,-5.4,-3.6,-7.7Z" class="gb_26"/>
<path d="M820.7,460.6c.2,.5,.5,.9,.7,1.1c.2,.1,1.4,.3,3,0c1.1,-.1,2.3,-.6,3,-1c.4,-.3,.5,-.7,.6,-1.2c0,-.5,.3,-3.1,-.3,-4.8c-.6,-1.7,-7.3,-1,-7.6,0c-.2,1,.6,5.9,.6,5.9Z" class="g6_26"/>
<path d="M820.7,460.6c.2,.5,.5,.9,.7,1.1c.2,.1,1.4,.3,3,0c1.1,-.1,2.3,-.6,3,-1c.4,-.3,.5,-.7,.6,-1.2c0,-.5,.3,-3.1,-.3,-4.8c-.6,-1.7,-7.3,-1,-7.6,0c-.2,1,.6,5.9,.6,5.9Z" class="gf_26"/>
<path d="M801.8,460c-.2,.4,-.4,.7,-.6,.9c-.1,.1,-1.6,.6,-3,.3c-1,-.3,-2.3,-.4,-2.9,-.9c-.4,-.3,-.4,-.7,-.5,-1.2c0,-.5,-.4,-3.6,.2,-5.3c.5,-1.6,7.1,-.5,7.3,.5c.2,.9,-.5,5.7,-.5,5.7Z" class="g6_26"/>
<path d="M801.8,460c-.2,.4,-.4,.7,-.6,.9c-.1,.1,-1.6,.6,-3,.3c-1,-.3,-2.3,-.4,-2.9,-.9c-.4,-.3,-.4,-.7,-.5,-1.2c0,-.5,-.4,-3.6,.2,-5.3c.5,-1.6,7.1,-.5,7.3,.5c.2,.9,-.5,5.7,-.5,5.7Z" class="gf_26"/>
<path d="M811.3,455.9c.1,.3,.2,.9,.2,1.4c.1,1.3,.1,4.2,.1,4.2c0,0,-.2,.5,-.4,.7c-2,.7,-7.9,.7,-8.8,-.6c-.9,-1.5,-.6,-4.9,-.4,-6l.3,-1.9c.4,-.6,8.4,.8,9,2.2Z" class="g6_26"/>
<path d="M811.3,455.9c.1,.3,.2,.9,.2,1.4c.1,1.3,.1,4.2,.1,4.2c0,0,-.2,.5,-.4,.7c-2,.7,-7.9,.7,-8.8,-.6c-.9,-1.5,-.6,-4.9,-.4,-6l.3,-1.9c.4,-.6,8.4,.8,9,2.2Z" class="gf_26"/>
<path d="M820.1,454.8c.4,.7,.6,3.5,.6,4.3c0,.8,0,2,-.6,2.8c-1,.4,-2.5,.6,-3.9,.7c-1.8,.1,-3.5,-.2,-3.8,-.3c-.4,-.2,-.8,-.5,-.8,-1.1c0,-.9,-.1,-2.9,0,-4.1c0,-.8,.1,-1.4,.1,-1.6c.3,-.7,7.7,-2,8.4,-.7Z" class="g6_26"/>
<path d="M820.1,454.8c.4,.7,.6,3.5,.6,4.3c0,.8,0,2,-.6,2.8c-1,.4,-2.5,.6,-3.9,.7c-1.8,.1,-3.5,-.2,-3.8,-.3c-.4,-.2,-.8,-.5,-.8,-1.1c0,-.9,-.1,-2.9,0,-4.1c0,-.8,.1,-1.4,.1,-1.6c.3,-.7,7.7,-2,8.4,-.7Z" class="gf_26"/>
<g clip-path="url(#c5_26)">
<path d="M833.9,474.7c-2.3,3.2,-5.4,4.5,-9.6,5.8c-4.2,1.2,-7.8,.5,-12.9,.7c-6.3,.3,-9.9,.9,-15,-1.2c-2.7,-1,-5.8,-3.6,-7.5,-5.4c-2.4,-2.7,-2.7,-4.5,-2,-5.5c.7,-1,3.4,-4.1,5.4,-6.1c3.2,-3.3,6.4,-7.2,10,-7.2c1.9,0,3.9,.9,8.3,.9c3.4,.2,4.9,-.4,9.2,-.7c2.1,-.3,5.1,.5,7.5,2.7c.9,.8,3.4,3.3,5.3,5.3c2.2,2.2,3.8,3.9,3.9,5.8c.2,1.7,-.8,2.6,-2.6,4.9m-.6,-15.4c-2,-2.4,-3.1,-4.3,-4.8,-6c-2.6,-2.9,-6.6,-5.7,-9.8,-5.5c-2.8,-.1,-4.2,1.1,-7.1,1c-1.5,0,-5.3,-1,-8.6,-.8c-1.1,0,-5.4,1.9,-9,5.7c-3.3,3.6,-7.8,12.5,-8.9,14.6c-.7,1.7,.2,5.1,2.7,8.3c2,2.7,3.3,5.5,6.4,8.6c5.6,5.7,12.3,4.8,17.6,4.8c6.2,0,10.3,.2,15.1,-2.6c1.7,-1,3.7,-3,5,-4.7c2.3,-3.2,4.3,-7,5.4,-9.9c.5,-1.4,.7,-2.7,.7,-3.7c0,-1.9,-2.6,-7.3,-4.7,-9.8Z" class="gd_26"/>
<path d="M833.9,474.7c-2.3,3.2,-5.4,4.5,-9.6,5.8c-4.2,1.2,-7.8,.5,-12.9,.7c-6.3,.3,-9.9,.9,-15,-1.2c-2.7,-1,-5.8,-3.6,-7.5,-5.4c-2.4,-2.7,-2.7,-4.5,-2,-5.5c.7,-1,3.4,-4.1,5.4,-6.1c3.2,-3.3,6.4,-7.2,10,-7.2c1.9,0,3.9,.9,8.3,.9c3.4,.2,4.9,-.4,9.2,-.7c2.1,-.3,5.1,.5,7.5,2.7c.9,.8,3.4,3.3,5.3,5.3c2.2,2.2,3.8,3.9,3.9,5.8c.2,1.7,-.8,2.6,-2.6,4.9Zm-.6,-15.4c-2,-2.4,-3.1,-4.3,-4.8,-6c-2.6,-2.9,-6.6,-5.7,-9.8,-5.5c-2.8,-.1,-4.2,1.1,-7.1,1c-1.5,0,-5.3,-1,-8.6,-.8c-1.1,0,-5.4,1.9,-9,5.7c-3.3,3.6,-7.8,12.5,-8.9,14.6c-.7,1.7,.2,5.1,2.7,8.3c2,2.7,3.3,5.5,6.4,8.6c5.6,5.7,12.3,4.8,17.6,4.8c6.2,0,10.3,.2,15.1,-2.6c1.7,-1,3.7,-3,5,-4.7c2.3,-3.2,4.3,-7,5.4,-9.9c.5,-1.4,.7,-2.7,.7,-3.7c0,-1.9,-2.6,-7.3,-4.7,-9.8Z" class="gf_26"/>
</g>
<path d="M201.2,648.3H362.4v95.3H201.2V648.3Zm322.4,0H684.9v95.3H523.6V648.3Z" class="g5_26"/>
<path d="M362.4,648.3H523.6v95.3H362.4V648.3Zm322.5,0H846.1v95.3H684.9V648.3Z" class="g6_26"/>
<path d="M362.6,648.3H523.4m161.7,0H846.3m-.2,95.1v-95M362.6,743.6H523.4m161.7,0H846.3" class="g8_26"/>
<path d="M201,648.3H362.6M201.2,743.4V648.5m161.2,94.9V648.5M201,743.6H362.6M523.4,648.3H685.1M523.6,743.4V648.5m161.3,94.9V648.5M523.4,743.6H685.1" class="ga_26"/>
<path d="M426.7,675c-5.5,-1.2,-10.6,-3.1,-13.7,-3c-3.6,-.1,-4.9,1.5,-8.5,1.4c-2,0,-4.7,-1.4,-9.2,-1.4c-2.8,0,-7.2,.9,-11.9,2.7c-5.3,2.1,-11.7,1.6,-13.2,2.7c0,.6,.3,1.9,4.2,5.1c1.6,1.3,2.6,1.4,8.3,6.8c6.8,6.5,15.2,7.2,21.9,7.2c7.9,0,15.3,-.4,20.9,-5.3c3.5,-3,5.6,-4.8,10.8,-9.4c2,-1.8,2.1,-3,2.2,-4c.3,-1.4,-6.3,-1.6,-11.8,-2.8Z" class="gb_26"/>
<path d="M375.7,681.9c.1,-.6,.5,-1,1.1,-1.1c1.7,-.6,2.2,-.1,2.5,.3c.3,.4,.3,.5,.6,.9c.3,.4,.4,.7,-1.1,3.2c-.3,.6,-3.1,-1,-3.6,-1.9c-.2,-.4,.3,.4,.5,-1.4Z" class="g6_26"/>
<path d="M375.7,681.9c.1,-.6,.5,-1,1.1,-1.1c1.7,-.6,2.2,-.1,2.5,.3c.3,.4,.3,.5,.6,.9c.3,.4,.4,.7,-1.1,3.2c-.3,.6,-3.1,-1,-3.6,-1.9c-.2,-.4,.3,.4,.5,-1.4Z" class="gc_26"/>
<path d="M382.1,682c-.3,-.9,-2.3,-.4,-2.8,-.3c-.5,.1,-1.3,1.7,-1.1,3.1c.3,1.5,2.4,2.2,3.3,2.7c.9,.6,1.1,-2.8,1.2,-3.7c.1,-.8,.3,-1.3,-.6,-1.8Z" class="g6_26"/>
<path d="M382.1,682c-.3,-.9,-2.3,-.4,-2.8,-.3c-.5,.1,-1.3,1.7,-1.1,3.1c.3,1.5,2.4,2.2,3.3,2.7c.9,.6,1.1,-2.8,1.2,-3.7c.1,-.8,.3,-1.3,-.6,-1.8Z" class="gc_26"/>
<path d="M434.3,681.5c-.1,-.6,-.6,-1,-1.1,-1.1c-1.7,-.6,-2.2,-.1,-2.5,.3c-.3,.4,-.3,.5,-.6,.9c-.4,.5,1.2,7.8,1.6,4.9c.2,-.9,2.8,-3.2,2.6,-5Z" class="g6_26"/>
<path d="M434.3,681.5c-.1,-.6,-.6,-1,-1.1,-1.1c-1.7,-.6,-2.2,-.1,-2.5,.3c-.3,.4,-.3,.5,-.6,.9c-.4,.5,1.2,7.8,1.6,4.9c.2,-.9,2.8,-3.2,2.6,-5Z" class="gc_26"/>
<path d="M431.1,682.6c-.1,-.6,-.7,-1.7,-1.3,-1.8c-1.7,-.6,-2,.5,-2.3,.9c-.3,.4,-.6,.8,-1,1.2c-.3,.4,.2,2.7,1.7,5.2c.4,.6,2.7,-1.6,3.1,-2.4c.3,-.5,0,-1.4,-.2,-3.1Z" class="g6_26"/>
<path d="M431.1,682.6c-.1,-.6,-.7,-1.7,-1.3,-1.8c-1.7,-.6,-2,.5,-2.3,.9c-.3,.4,-.6,.8,-1,1.2c-.3,.4,.2,2.7,1.7,5.2c.4,.6,2.7,-1.6,3.1,-2.4c.3,-.5,0,-1.4,-.2,-3.1Z" class="gc_26"/>
<path d="M387.4,684.8c-.3,-1,-.2,-1.6,-1.1,-2.2c-.7,-.5,-3,.4,-3.5,.5c-.5,.1,-1,2.4,-1.3,3.9c-.3,1.5,3.8,4,4.7,4.5c.9,.5,1.1,-2.8,1.2,-3.7c.1,-.8,1,-2.5,0,-3Z" class="g6_26"/>
<path d="M387.4,684.8c-.3,-1,-.2,-1.6,-1.1,-2.2c-.7,-.5,-3,.4,-3.5,.5c-.5,.1,-1,2.4,-1.3,3.9c-.3,1.5,3.8,4,4.7,4.5c.9,.5,1.1,-2.8,1.2,-3.7c.1,-.8,1,-2.5,0,-3Z" class="gc_26"/>
<path d="M392.2,688.7c-.3,-1.3,.6,-2.7,.2,-3.4c-.3,-.7,-3.6,-2,-5.1,-1.1c-.5,.3,-1.3,3,-1,4.5c.2,1.3,.5,.4,1.4,1c1.7,1.1,4.4,1.1,4.5,-1Z" class="g6_26"/>
<path d="M392.2,688.7c-.3,-1.3,.6,-2.7,.2,-3.4c-.3,-.7,-3.6,-2,-5.1,-1.1c-.5,.3,-1.3,3,-1,4.5c.2,1.3,.5,.4,1.4,1c1.7,1.1,4.4,1.1,4.5,-1Z" class="gc_26"/>
<path d="M426.8,684.1c-.1,-.6,-.7,-1.6,-1.2,-1.7c-1.7,-.6,-2.1,.5,-2.4,.9c-.2,.4,-.6,.8,-.9,1.2c-.4,.4,.1,2.6,1.6,5.1c.4,.6,3.2,-.7,3.7,-1.5c.3,-.5,0,-2.3,-.8,-4Z" class="g6_26"/>
<path d="M426.8,684.1c-.1,-.6,-.7,-1.6,-1.2,-1.7c-1.7,-.6,-2.1,.5,-2.4,.9c-.2,.4,-.6,.8,-.9,1.2c-.4,.4,.1,2.6,1.6,5.1c.4,.6,3.2,-.7,3.7,-1.5c.3,-.5,0,-2.3,-.8,-4Z" class="gc_26"/>
<path d="M421.5,683.8c-1.7,-.5,-2,.1,-2.2,.6c-.3,.4,-.8,1.1,-1.2,1.5c-.3,.5,-.5,2.4,1,4.9c.4,.6,4,-1,4.4,-1.8c.5,-.9,-.6,-4.9,-2,-5.2Z" class="g6_26"/>
<path d="M421.5,683.8c-1.7,-.5,-2,.1,-2.2,.6c-.3,.4,-.8,1.1,-1.2,1.5c-.3,.5,-.5,2.4,1,4.9c.4,.6,4,-1,4.4,-1.8c.5,-.9,-.6,-4.9,-2,-5.2Z" class="gc_26"/>
<path d="M411.9,689.2c1.4,0,6.9,1.3,7,0c.1,-1.6,-.4,-4.1,-1.4,-4.3c-1,-.2,-3.7,.5,-4.7,.7c-1.1,.3,-1.1,.9,-1.1,1.8c-.1,.8,.2,1.8,.2,1.8Z" class="g6_26"/>
<path d="M411.9,689.2c1.4,0,6.9,1.3,7,0c.1,-1.6,-.4,-4.1,-1.4,-4.3c-1,-.2,-3.7,.5,-4.7,.7c-1.1,.3,-1.1,.9,-1.1,1.8c-.1,.8,.2,1.8,.2,1.8Z" class="gc_26"/>
<path d="M391.6,689.1c.2,-1.6,.3,-4.2,1.6,-4.2c1.3,0,1.6,.2,2.4,.3c.8,.1,2.7,.3,2.5,1.6c-.2,1.2,-.3,2.8,-.3,2.8c0,0,-6.6,2.3,-6.2,-.5Z" class="g6_26"/>
<path d="M391.6,689.1c.2,-1.6,.3,-4.2,1.6,-4.2c1.3,0,1.6,.2,2.4,.3c.8,.1,2.7,.3,2.5,1.6c-.2,1.2,-.3,2.8,-.3,2.8c0,0,-6.6,2.3,-6.2,-.5Z" class="gc_26"/>
<path d="M397.8,689.3c-.1,-.3,-.1,-2.6,.4,-3.3c.1,-.3,.8,-.6,1.7,-.4c2.1,.4,3.9,-.1,4.5,.5c.3,.2,.4,3,.2,3.8c-.2,.5,-6.8,-.6,-6.8,-.6Z" class="g6_26"/>
<path d="M397.8,689.3c-.1,-.3,-.1,-2.6,.4,-3.3c.1,-.3,.8,-.6,1.7,-.4c2.1,.4,3.9,-.1,4.5,.5c.3,.2,.4,3,.2,3.8c-.2,.5,-6.8,-.6,-6.8,-.6Z" class="gc_26"/>
<path d="M404.7,686.6c0,-.4,.1,-.7,.7,-.9c.7,-.2,1.6,0,2.8,-.1c1.2,-.1,2.2,-.1,2.7,.1c.8,.2,1.1,1,1.1,1c0,.5,.3,3.1,.3,3.1c0,0,-7.2,.3,-7.5,.2c-.3,-.1,-.2,-2.6,-.1,-3.4Z" class="g6_26"/>
<path d="M404.7,686.6c0,-.4,.1,-.7,.7,-.9c.7,-.2,1.6,0,2.8,-.1c1.2,-.1,2.2,-.1,2.7,.1c.8,.2,1.1,1,1.1,1c0,.5,.3,3.1,.3,3.1c0,0,-7.2,.3,-7.5,.2c-.3,-.1,-.2,-2.6,-.1,-3.4Z" class="gc_26"/>
<path d="M428,678.8c.4,.9,.6,.8,1.8,1c1.2,.2,2.1,-.7,2.3,-1.5c.2,-.4,-2.8,-2.5,-4.3,-1.8c-1.4,.6,.2,2.3,.2,2.3Z" class="g6_26"/>
<path d="M428,678.8c.4,.9,.6,.8,1.8,1c1.2,.2,2.1,-.7,2.3,-1.5c.2,-.4,-2.8,-2.5,-4.3,-1.8c-1.4,.6,.2,2.3,.2,2.3Z" class="gc_26"/>
<path d="M377.1,679.3c.5,.3,1.3,1.2,2.5,1.4c1.2,.2,1.4,-.4,1.7,-.8c.3,-.3,1.2,-1.9,1.2,-1.9c0,0,-3,-.9,-4.5,-.2c-1.5,.6,-.9,1.5,-.9,1.5Z" class="g6_26"/>
<path d="M377.1,679.3c.5,.3,1.3,1.2,2.5,1.4c1.2,.2,1.4,-.4,1.7,-.8c.3,-.3,1.2,-1.9,1.2,-1.9c0,0,-3,-.9,-4.5,-.2c-1.5,.6,-.9,1.5,-.9,1.5Z" class="gc_26"/>
<path d="M379.6,676.9c.4,2.9,1.9,3.6,2.3,4.1c.5,.5,1.7,.6,3.6,-.6c2,-1.3,.5,-5.4,.5,-5.4Z" class="g6_26"/>
<path d="M379.6,676.9c.4,2.9,1.9,3.6,2.3,4.1c.5,.5,1.7,.6,3.6,-.6c2,-1.3,.5,-5.4,.5,-5.4l-6.4,1.9Z" class="gc_26"/>
<path d="M428.2,677.3c-.3,.7,.6,.8,-.1,2.3c-.5,1.2,-1,1.6,-1.8,1.7c-1.2,.1,-2.7,-.1,-3.4,-1.5c-.7,-1.4,.5,-4.2,.5,-4.2c0,0,4.7,.3,4.8,1.7Z" class="g6_26"/>
<path d="M428.2,677.3c-.3,.7,.6,.8,-.1,2.3c-.5,1.2,-1,1.6,-1.8,1.7c-1.2,.1,-2.7,-.1,-3.4,-1.5c-.7,-1.4,.5,-4.2,.5,-4.2c0,0,4.7,.3,4.8,1.7Z" class="gc_26"/>
<path d="M415.2,682.4c.2,.6,.5,1,.8,1.2c.2,.1,1.5,.2,3.3,-.2c1.3,-.3,2.6,-.9,3.3,-1.4c.5,-.4,.6,-.9,.6,-1.4c.1,-.6,.4,-3.5,-.2,-5.4c-.7,-1.9,-8.2,-.7,-8.5,.5c-.3,1.1,.7,6.7,.7,6.7Z" class="g6_26"/>
<path d="M415.2,682.4c.2,.6,.5,1,.8,1.2c.2,.1,1.5,.2,3.3,-.2c1.3,-.3,2.6,-.9,3.3,-1.4c.5,-.4,.6,-.9,.6,-1.4c.1,-.6,.4,-3.5,-.2,-5.4c-.7,-1.9,-8.2,-.7,-8.5,.5c-.3,1.1,.7,6.7,.7,6.7Z" class="gc_26"/>
<path d="M393.2,682.3c-.2,.6,-.5,.9,-.7,1.1c-.2,.1,-1.9,.7,-3.5,.3c-1.2,-.2,-2.6,-.4,-3.3,-.9c-.5,-.4,-.5,-.9,-.6,-1.4c-.1,-.6,-.5,-4.3,.1,-6.2c.7,-1.9,8.3,-.6,8.6,.5c.2,1.2,-.6,6.6,-.6,6.6Z" class="g6_26"/>
<path d="M393.2,682.3c-.2,.6,-.5,.9,-.7,1.1c-.2,.1,-1.9,.7,-3.5,.3c-1.2,-.2,-2.6,-.4,-3.3,-.9c-.5,-.4,-.5,-.9,-.6,-1.4c-.1,-.6,-.5,-4.3,.1,-6.2c.7,-1.9,8.3,-.6,8.6,.5c.2,1.2,-.6,6.6,-.6,6.6Z" class="gc_26"/>
<path d="M404.1,677.6c.2,.4,.3,1,.3,1.6c.1,1.5,.1,5,.1,5c0,0,-.2,.5,-.5,.7c-2.2,.9,-9.1,.9,-10.2,-.7c-1,-1.7,-.7,-5.7,-.4,-6.9l.3,-2.2c.5,-.7,9.8,.9,10.4,2.5Z" class="g6_26"/>
<path d="M404.1,677.6c.2,.4,.3,1,.3,1.6c.1,1.5,.1,5,.1,5c0,0,-.2,.5,-.5,.7c-2.2,.9,-9.1,.9,-10.2,-.7c-1,-1.7,-.7,-5.7,-.4,-6.9l.3,-2.2c.5,-.7,9.8,.9,10.4,2.5Z" class="gc_26"/>
<path d="M414.6,675.8c.4,.7,.7,3.9,.7,4.9c0,.9,-.1,2.4,-.7,3.4c-1.2,.6,-3.5,1,-5.1,1.2c-2,.3,-3.7,-.2,-4,-.4c-.5,-.2,-1,-.4,-1,-1.2c0,-1,-.1,-3.3,0,-4.7c0,-.8,.1,-1.6,.2,-1.8c.2,-.8,8.9,-2.9,9.9,-1.4Z" class="g6_26"/>
<path d="M414.6,675.8c.4,.7,.7,3.9,.7,4.9c0,.9,-.1,2.4,-.7,3.4c-1.2,.6,-3.5,1,-5.1,1.2c-2,.3,-3.7,-.2,-4,-.4c-.5,-.2,-1,-.4,-1,-1.2c0,-1,-.1,-3.3,0,-4.7c0,-.8,.1,-1.6,.2,-1.8c.2,-.8,8.9,-2.9,9.9,-1.4Z" class="gc_26"/>
<g clip-path="url(#c6_26)">
<path d="M432.3,681.9c-1.4,1,-4.3,3.2,-9.4,4.2c-5.9,1.1,-11,1,-17.5,1c-8.1,0,-15.7,.4,-22.1,-1.9c-4.6,-1.8,-6,-3.3,-9.5,-4.9c-1.9,-.9,-2.8,-1.6,-2.2,-2.4c.5,-.8,7.5,.9,10.9,.7c3.5,-.3,5.7,-.5,8.1,-.5c4.8,.1,9.3,1.3,13.8,1.3c4.9,.1,8.4,-1.2,13.1,-1.3c2.7,-.1,4.5,-.1,8.4,.1c3.4,.2,6.5,-.6,8.6,-.5c1.7,.1,2.8,0,3.4,.8c0,1.5,-2.3,1.3,-5.6,3.4m-5.2,-7.3c-4.9,-1.3,-9.7,-3.3,-14.1,-3.2c-3.6,-.1,-4.1,1.3,-8.4,1.3c-3.1,.1,-3.8,-1.2,-8.3,-1.2c-2.8,0,-7.1,.3,-13,2.2c-5.5,1.8,-12.9,2.3,-13.1,4.2c-.3,1.3,.2,2.2,4.2,5.7c1.6,1.4,4.3,3.5,8.3,7.3c7.2,6.7,15.2,6.8,21.9,6.8c7.9,0,16.1,0,21.7,-5.4c5.5,-5.3,6.7,-6.8,9.8,-9.8c2,-1.9,3,-2.9,2.8,-4.1c-.3,-2.5,-6.4,-2.3,-11.8,-3.8Z" class="gd_26"/>
<path d="M432.3,681.9c-1.4,1,-4.3,3.2,-9.4,4.2c-5.9,1.1,-11,1,-17.5,1c-8.1,0,-15.7,.4,-22.1,-1.9c-4.6,-1.8,-6,-3.3,-9.5,-4.9c-1.9,-.9,-2.8,-1.6,-2.2,-2.4c.5,-.8,7.5,.9,10.9,.7c3.5,-.3,5.7,-.5,8.1,-.5c4.8,.1,9.3,1.3,13.8,1.3c4.9,.1,8.4,-1.2,13.1,-1.3c2.7,-.1,4.5,-.1,8.4,.1c3.4,.2,6.5,-.6,8.6,-.5c1.7,.1,2.8,0,3.4,.8c0,1.5,-2.3,1.3,-5.6,3.4Zm-5.2,-7.3c-4.9,-1.3,-9.7,-3.3,-14.1,-3.2c-3.6,-.1,-4.1,1.3,-8.4,1.3c-3.1,.1,-3.8,-1.2,-8.3,-1.2c-2.8,0,-7.1,.3,-13,2.2c-5.5,1.8,-12.9,2.3,-13.1,4.2c-.3,1.3,.2,2.2,4.2,5.7c1.6,1.4,4.3,3.5,8.3,7.3c7.2,6.7,15.2,6.8,21.9,6.8c7.9,0,16.1,0,21.7,-5.4c5.5,-5.3,6.7,-6.8,9.8,-9.8c2,-1.9,3,-2.9,2.8,-4.1c-.3,-2.5,-6.4,-2.3,-11.8,-3.8Z" class="gc_26"/>
</g>
<g clip-path="url(#c7_26)">
<path d="M513.1,686.3c-.7,-1.4,-1.7,-3.5,-1.7,-3.5c-1.1,-2.7,-1.5,-3.3,-3.8,-6.8c-1.9,-3.1,-4.8,-5.7,-7,-7.6c-2.8,-2.4,-4.2,-3.7,-7.5,-3.6c-2,0,-2.4,1.1,-4.9,1.1c-2.1,0,-2.6,-1.1,-5.4,-1.1c-2.8,0,-6.4,3,-8.7,5.2c-1.7,1.5,-5.6,5.7,-7.8,9.8c-2.1,3.7,-3.5,5.9,-3.5,7c0,.7,3.4,4.3,3.5,4.5c.3,1.3,2.2,3.6,3.8,5.2c7,6.9,10.3,8,17.2,8c4.5,0,7.6,-.2,10.4,-1.2c2.3,-.9,4.4,-1.9,6.9,-4.2c2.1,-1.9,4.1,-4.6,5.4,-7.3c.1,0,.1,-.1,.1,-.1c1,-2.3,3.4,-4.5,3,-5.4Z" class="gd_26"/>
<path d="M513.1,686.3c-.7,-1.4,-1.7,-3.5,-1.7,-3.5c-1.1,-2.7,-1.5,-3.3,-3.8,-6.8c-1.9,-3.1,-4.8,-5.7,-7,-7.6c-2.8,-2.4,-4.2,-3.7,-7.5,-3.6c-2,0,-2.4,1.1,-4.9,1.1c-2.1,0,-2.6,-1.1,-5.4,-1.1c-2.8,0,-6.4,3,-8.7,5.2c-1.7,1.5,-5.6,5.7,-7.8,9.8c-2.1,3.7,-3.5,5.9,-3.5,7c0,.7,3.4,4.3,3.5,4.5c.3,1.3,2.2,3.6,3.8,5.2c7,6.9,10.3,8,17.2,8c4.5,0,7.6,-.2,10.4,-1.2c2.3,-.9,4.4,-1.9,6.9,-4.2c2.1,-1.9,4.1,-4.6,5.4,-7.3c.1,0,.1,-.1,.1,-.1c1,-2.3,3.4,-4.5,3,-5.4Z" class="gg_26"/>
</g>
<path d="M479.8,692.8c-2.4,3.8,-2.5,5.4,-2.6,6.6m21.4,-7.7c2.7,3.7,2.8,5.3,3.1,6.4m-2.5,-8.2c3.5,2.8,4.1,4.3,4.6,5.3m-18,-2.2c-.2,1,-.6,6.2,-.5,9m8.1,-24.8c.6,-.6,1.5,-1.2,2.2,-1.6c.6,-.5,2.9,-3,3.3,-4.9m-2.2,10c1.7,.4,3.4,-.8,5,-1.1c1.6,-.3,3.5,-1.5,4,-2.4m-31.9,-3.4c.1,.4,1.1,2.7,2.6,3.6c1,.7,3.3,2.3,4.3,2.4m-10.5,-1.9c.3,.8,3.2,2.6,4.1,2.8c1,.3,3.2,.8,4.6,.6" class="ge_26"/>
<path d="M496.6,681.7c.9,.8,1.9,2,2.6,2.2c4.2,1.8,5.2,1.7,2.6,1.9c-1.3,.1,-2,.5,-3.3,1c-1.3,.5,-2.7,1.2,-3.4,1.4c-3.3,1.2,-5.6,1.6,-7.4,1.5c-3.5,-.2,-7.6,-2.3,-8.5,-2.6c-.9,-.3,-2.1,-.8,-3.1,-1.1c-1.6,-.4,-2.6,-.5,-2.6,-.5c2.2,-.5,3.4,-1.8,6.3,-4.3c3.6,-3,5.2,-2.5,8.2,-2.5c2.4,0,4,0,6.4,1.2c0,0,1,.7,2.2,1.8Z" class="gb_26"/>
<path d="M463.8,686.5c1.8,-.3,5.8,-.3,9.1,-.8c2.7,-.4,4,-2,6.9,-4.5c3.6,-3,5.2,-2.5,8.2,-2.5c2.4,0,4,0,6.4,1.2c0,0,.7,.4,1.7,1.3c1,.9,2.4,2.2,3.1,2.7c4.8,3.2,13.7,2,13.6,2.9m-8.7,-1.1c-2.1,-.2,-4.1,.3,-5.6,1.1c-1.2,.7,-2.5,1.2,-3.2,1.5c-3.5,1.4,-5.7,1.2,-7.5,1.2c-3.9,-.2,-7.7,-2.1,-8.6,-2.4c-2.3,-.7,-3.5,-2,-8.3,-1.1l-3.9,.2" class="gh_26"/>
<path d="M503.2,685.5c4.6,1.1,9.7,.6,9.6,1.3m-49,-.3c1.8,-.3,6.1,-.3,9.4,-.8" class="gi_26"/>
<path d="M749.2,675c-5.6,-1.2,-10.6,-3.1,-13.8,-3c-3.5,-.1,-4.8,1.5,-8.4,1.4c-2.1,0,-4.7,-1.4,-9.3,-1.4c-2.7,0,-7.2,.9,-11.8,2.7c-5.3,2.1,-11.7,1.6,-13.3,2.7c.1,.6,.3,1.9,4.2,5.1c1.7,1.3,2.7,1.4,8.3,6.8c6.9,6.5,15.2,7.2,21.9,7.2c8,0,15.4,-.4,21,-5.3c3.5,-3,5.5,-4.8,10.8,-9.4c2,-1.8,2,-3,2.2,-4c.2,-1.4,-6.3,-1.6,-11.8,-2.8Z" class="gb_26"/>
<path d="M698.2,681.9c.1,-.6,.5,-1,1.1,-1.1c1.7,-.6,2.2,-.1,2.5,.3c.2,.4,.2,.5,.6,.9c.3,.4,.4,.7,-1.1,3.2c-.4,.6,-3.1,-1,-3.6,-1.9c-.3,-.4,.2,.4,.5,-1.4Z" class="g6_26"/>
<path d="M698.2,681.9c.1,-.6,.5,-1,1.1,-1.1c1.7,-.6,2.2,-.1,2.5,.3c.2,.4,.2,.5,.6,.9c.3,.4,.4,.7,-1.1,3.2c-.4,.6,-3.1,-1,-3.6,-1.9c-.3,-.4,.2,.4,.5,-1.4Z" class="gc_26"/>
<path d="M704.5,682c-.3,-.9,-2.2,-.4,-2.7,-.3c-.5,.1,-1.3,1.7,-1.1,3.1c.3,1.5,2.4,2.2,3.3,2.7c.9,.6,1.1,-2.8,1.2,-3.7c.1,-.8,.3,-1.3,-.7,-1.8Z" class="g6_26"/>
<path d="M704.5,682c-.3,-.9,-2.2,-.4,-2.7,-.3c-.5,.1,-1.3,1.7,-1.1,3.1c.3,1.5,2.4,2.2,3.3,2.7c.9,.6,1.1,-2.8,1.2,-3.7c.1,-.8,.3,-1.3,-.7,-1.8Z" class="gc_26"/>
<path d="M756.7,681.5c-.1,-.6,-.5,-1,-1,-1.1c-1.7,-.6,-2.3,-.1,-2.5,.3c-.3,.4,-.3,.5,-.7,.9c-.3,.5,1.3,7.8,1.7,4.9c.1,-.9,2.8,-3.2,2.5,-5Z" class="g6_26"/>
<path d="M756.7,681.5c-.1,-.6,-.5,-1,-1,-1.1c-1.7,-.6,-2.3,-.1,-2.5,.3c-.3,.4,-.3,.5,-.7,.9c-.3,.5,1.3,7.8,1.7,4.9c.1,-.9,2.8,-3.2,2.5,-5Z" class="gc_26"/>
<path d="M753.5,682.6c-.1,-.6,-.7,-1.7,-1.2,-1.8c-1.7,-.6,-2.1,.5,-2.3,.9c-.3,.4,-.7,.8,-1,1.2c-.3,.4,.1,2.7,1.7,5.2c.3,.6,2.6,-1.6,3.1,-2.4c.3,-.5,0,-1.4,-.3,-3.1Z" class="g6_26"/>
<path d="M753.5,682.6c-.1,-.6,-.7,-1.7,-1.2,-1.8c-1.7,-.6,-2.1,.5,-2.3,.9c-.3,.4,-.7,.8,-1,1.2c-.3,.4,.1,2.7,1.7,5.2c.3,.6,2.6,-1.6,3.1,-2.4c.3,-.5,0,-1.4,-.3,-3.1Z" class="gc_26"/>
<path d="M709.9,684.8c-.3,-1,-.2,-1.6,-1.1,-2.2c-.8,-.5,-3,.4,-3.6,.5c-.5,.1,-.9,2.4,-1.2,3.9c-.3,1.5,3.8,4,4.7,4.5c.9,.5,1.1,-2.8,1.2,-3.7c.1,-.8,.9,-2.5,0,-3Z" class="g6_26"/>
<path d="M709.9,684.8c-.3,-1,-.2,-1.6,-1.1,-2.2c-.8,-.5,-3,.4,-3.6,.5c-.5,.1,-.9,2.4,-1.2,3.9c-.3,1.5,3.8,4,4.7,4.5c.9,.5,1.1,-2.8,1.2,-3.7c.1,-.8,.9,-2.5,0,-3Z" class="gc_26"/>
<path d="M714.7,688.7c-.4,-1.3,.6,-2.7,.2,-3.4c-.4,-.7,-3.6,-2,-5.1,-1.1c-.5,.3,-1.3,3,-1.1,4.5c.2,1.3,.5,.4,1.4,1c1.8,1.1,4.5,1.1,4.6,-1Z" class="g6_26"/>
<path d="M714.7,688.7c-.4,-1.3,.6,-2.7,.2,-3.4c-.4,-.7,-3.6,-2,-5.1,-1.1c-.5,.3,-1.3,3,-1.1,4.5c.2,1.3,.5,.4,1.4,1c1.8,1.1,4.5,1.1,4.6,-1Z" class="gc_26"/>
<path d="M749.3,684.1c-.1,-.6,-.7,-1.6,-1.3,-1.7c-1.7,-.6,-2,.5,-2.3,.9c-.3,.4,-.6,.8,-1,1.2c-.3,.4,.2,2.6,1.7,5.1c.4,.6,3.2,-.7,3.7,-1.5c.2,-.5,0,-2.3,-.8,-4Z" class="g6_26"/>
<path d="M749.3,684.1c-.1,-.6,-.7,-1.6,-1.3,-1.7c-1.7,-.6,-2,.5,-2.3,.9c-.3,.4,-.6,.8,-1,1.2c-.3,.4,.2,2.6,1.7,5.1c.4,.6,3.2,-.7,3.7,-1.5c.2,-.5,0,-2.3,-.8,-4Z" class="gc_26"/>
<path d="M744,683.8c-1.7,-.5,-2,.1,-2.3,.6c-.2,.4,-.8,1.1,-1.1,1.5c-.3,.5,-.5,2.4,1,4.9c.4,.6,3.9,-1,4.4,-1.8c.5,-.9,-.6,-4.9,-2,-5.2Z" class="g6_26"/>
<path d="M744,683.8c-1.7,-.5,-2,.1,-2.3,.6c-.2,.4,-.8,1.1,-1.1,1.5c-.3,.5,-.5,2.4,1,4.9c.4,.6,3.9,-1,4.4,-1.8c.5,-.9,-.6,-4.9,-2,-5.2Z" class="gc_26"/>
<path d="M734.4,689.2c1.3,0,6.9,1.3,7,0c.1,-1.6,-.5,-4.1,-1.5,-4.3c-1,-.2,-3.6,.5,-4.7,.7c-1.1,.3,-1,.9,-1,1.8c-.1,.8,.2,1.8,.2,1.8Z" class="g6_26"/>
<path d="M734.4,689.2c1.3,0,6.9,1.3,7,0c.1,-1.6,-.5,-4.1,-1.5,-4.3c-1,-.2,-3.6,.5,-4.7,.7c-1.1,.3,-1,.9,-1,1.8c-.1,.8,.2,1.8,.2,1.8Z" class="gc_26"/>
<path d="M714.1,689.1c.2,-1.6,.3,-4.2,1.6,-4.2c1.3,0,1.5,.2,2.3,.3c.9,.1,2.8,.3,2.6,1.6c-.2,1.2,-.3,2.8,-.3,2.8c0,0,-6.6,2.3,-6.2,-.5Z" class="g6_26"/>
<path d="M714.1,689.1c.2,-1.6,.3,-4.2,1.6,-4.2c1.3,0,1.5,.2,2.3,.3c.9,.1,2.8,.3,2.6,1.6c-.2,1.2,-.3,2.8,-.3,2.8c0,0,-6.6,2.3,-6.2,-.5Z" class="gc_26"/>
<path d="M720.3,689.3c-.1,-.3,-.1,-2.6,.3,-3.3c.2,-.3,.9,-.6,1.8,-.4c2.1,.4,3.8,-.1,4.5,.5c.3,.2,.4,3,.1,3.8c-.1,.5,-6.7,-.6,-6.7,-.6Z" class="g6_26"/>
<path d="M720.3,689.3c-.1,-.3,-.1,-2.6,.3,-3.3c.2,-.3,.9,-.6,1.8,-.4c2.1,.4,3.8,-.1,4.5,.5c.3,.2,.4,3,.1,3.8c-.1,.5,-6.7,-.6,-6.7,-.6Z" class="gc_26"/>
<path d="M727.2,686.6c0,-.4,.1,-.7,.7,-.9c.6,-.2,1.6,0,2.8,-.1c1.2,-.1,2.2,-.1,2.7,.1c.8,.2,1.1,1,1.1,1c0,.5,.2,3.1,.2,3.1c0,0,-7.1,.3,-7.4,.2c-.3,-.1,-.2,-2.6,-.1,-3.4Z" class="g6_26"/>
<path d="M727.2,686.6c0,-.4,.1,-.7,.7,-.9c.6,-.2,1.6,0,2.8,-.1c1.2,-.1,2.2,-.1,2.7,.1c.8,.2,1.1,1,1.1,1c0,.5,.2,3.1,.2,3.1c0,0,-7.1,.3,-7.4,.2c-.3,-.1,-.2,-2.6,-.1,-3.4Z" class="gc_26"/>
<path d="M750.5,678.8c.4,.9,.6,.8,1.8,1c1.2,.2,2.1,-.7,2.3,-1.5c.1,-.4,-2.8,-2.5,-4.3,-1.8c-1.5,.6,.2,2.3,.2,2.3Z" class="g6_26"/>
<path d="M750.5,678.8c.4,.9,.6,.8,1.8,1c1.2,.2,2.1,-.7,2.3,-1.5c.1,-.4,-2.8,-2.5,-4.3,-1.8c-1.5,.6,.2,2.3,.2,2.3Z" class="gc_26"/>
<path d="M699.6,679.3c.4,.3,1.3,1.2,2.5,1.4c1.2,.2,1.4,-.4,1.7,-.8c.2,-.3,1.2,-1.9,1.2,-1.9c0,0,-3.1,-.9,-4.5,-.2c-1.5,.6,-.9,1.5,-.9,1.5Z" class="g6_26"/>
<path d="M699.6,679.3c.4,.3,1.3,1.2,2.5,1.4c1.2,.2,1.4,-.4,1.7,-.8c.2,-.3,1.2,-1.9,1.2,-1.9c0,0,-3.1,-.9,-4.5,-.2c-1.5,.6,-.9,1.5,-.9,1.5Z" class="gc_26"/>
<path d="M702.1,676.9c.4,2.9,1.9,3.6,2.3,4.1c.4,.5,1.6,.6,3.6,-.6c2,-1.3,.5,-5.4,.5,-5.4Z" class="g6_26"/>
<path d="M702.1,676.9c.4,2.9,1.9,3.6,2.3,4.1c.4,.5,1.6,.6,3.6,-.6c2,-1.3,.5,-5.4,.5,-5.4l-6.4,1.9Z" class="gc_26"/>
<path d="M750.7,677.3c-.3,.7,.6,.8,-.1,2.3c-.6,1.2,-1.1,1.6,-1.8,1.7c-1.2,.1,-2.8,-.1,-3.4,-1.5c-.7,-1.4,.5,-4.2,.5,-4.2c0,0,4.7,.3,4.8,1.7Z" class="g6_26"/>
<path d="M750.7,677.3c-.3,.7,.6,.8,-.1,2.3c-.6,1.2,-1.1,1.6,-1.8,1.7c-1.2,.1,-2.8,-.1,-3.4,-1.5c-.7,-1.4,.5,-4.2,.5,-4.2c0,0,4.7,.3,4.8,1.7Z" class="gc_26"/>
<path d="M737.7,682.4c.2,.6,.5,1,.8,1.2c.1,.1,1.5,.2,3.3,-.2c1.2,-.3,2.5,-.9,3.3,-1.4c.5,-.4,.5,-.9,.6,-1.4c.1,-.6,.4,-3.5,-.3,-5.4c-.6,-1.9,-8.1,-.7,-8.4,.5c-.3,1.1,.7,6.7,.7,6.7Z" class="g6_26"/>
<path d="M737.7,682.4c.2,.6,.5,1,.8,1.2c.1,.1,1.5,.2,3.3,-.2c1.2,-.3,2.5,-.9,3.3,-1.4c.5,-.4,.5,-.9,.6,-1.4c.1,-.6,.4,-3.5,-.3,-5.4c-.6,-1.9,-8.1,-.7,-8.4,.5c-.3,1.1,.7,6.7,.7,6.7Z" class="gc_26"/>
<path d="M715.6,682.3c-.2,.6,-.4,.9,-.6,1.1c-.2,.1,-1.9,.7,-3.6,.3c-1.1,-.2,-2.6,-.4,-3.3,-.9c-.4,-.4,-.5,-.9,-.5,-1.4c-.1,-.6,-.5,-4.3,.1,-6.2c.6,-1.9,8.3,-.6,8.5,.5c.3,1.2,-.6,6.6,-.6,6.6Z" class="g6_26"/>
<path d="M715.6,682.3c-.2,.6,-.4,.9,-.6,1.1c-.2,.1,-1.9,.7,-3.6,.3c-1.1,-.2,-2.6,-.4,-3.3,-.9c-.4,-.4,-.5,-.9,-.5,-1.4c-.1,-.6,-.5,-4.3,.1,-6.2c.6,-1.9,8.3,-.6,8.5,.5c.3,1.2,-.6,6.6,-.6,6.6Z" class="gc_26"/>
<path d="M726.6,677.6c.1,.4,.2,1,.3,1.6c.1,1.5,.1,5,.1,5c0,0,-.2,.5,-.5,.7c-2.3,.9,-9.1,.9,-10.2,-.7c-1,-1.7,-.7,-5.7,-.4,-6.9l.3,-2.2c.4,-.7,9.8,.9,10.4,2.5Z" class="g6_26"/>
<path d="M726.6,677.6c.1,.4,.2,1,.3,1.6c.1,1.5,.1,5,.1,5c0,0,-.2,.5,-.5,.7c-2.3,.9,-9.1,.9,-10.2,-.7c-1,-1.7,-.7,-5.7,-.4,-6.9l.3,-2.2c.4,-.7,9.8,.9,10.4,2.5Z" class="gc_26"/>
<path d="M737,675.8c.5,.7,.7,3.9,.7,4.9c0,.9,0,2.4,-.6,3.4c-1.3,.6,-3.5,1,-5.1,1.2c-2.1,.3,-3.7,-.2,-4.1,-.4c-.5,-.2,-.9,-.4,-.9,-1.2c0,-1,-.1,-3.3,-.1,-4.7c.1,-.8,.2,-1.6,.2,-1.8c.3,-.8,9,-2.9,9.9,-1.4Z" class="g6_26"/>
<path d="M737,675.8c.5,.7,.7,3.9,.7,4.9c0,.9,0,2.4,-.6,3.4c-1.3,.6,-3.5,1,-5.1,1.2c-2.1,.3,-3.7,-.2,-4.1,-.4c-.5,-.2,-.9,-.4,-.9,-1.2c0,-1,-.1,-3.3,-.1,-4.7c.1,-.8,.2,-1.6,.2,-1.8c.3,-.8,9,-2.9,9.9,-1.4Z" class="gc_26"/>
<g clip-path="url(#c8_26)">
<path d="M754.7,681.9c-1.4,1,-4.2,3.2,-9.4,4.2c-5.8,1.1,-11,1,-17.4,1c-8.1,0,-15.7,.4,-22.1,-1.9c-4.6,-1.8,-6,-3.3,-9.5,-4.9c-2,-.9,-2.8,-1.6,-2.3,-2.4c.6,-.8,7.6,.9,11,.7c3.5,-.3,5.6,-.5,8.1,-.5c4.8,.1,9.3,1.3,13.8,1.3c4.8,.1,8.4,-1.2,13.1,-1.3c2.6,-.1,4.5,-.1,8.4,.1c3.3,.2,6.5,-.6,8.5,-.5c1.8,.1,2.8,0,3.4,.8c0,1.5,-2.2,1.3,-5.6,3.4m-5.1,-7.3c-5,-1.3,-9.7,-3.3,-14.2,-3.2c-3.5,-.1,-4,1.3,-8.3,1.3c-3.1,.1,-3.8,-1.2,-8.3,-1.2c-2.8,0,-7.1,.3,-13,2.2c-5.5,1.8,-12.9,2.3,-13.2,4.2c-.2,1.3,.3,2.2,4.2,5.7c1.7,1.4,4.3,3.5,8.4,7.3c7.2,6.7,15.1,6.8,21.8,6.8c8,0,16.2,0,21.7,-5.4c5.6,-5.3,6.8,-6.8,9.9,-9.8c2,-1.9,2.9,-2.9,2.8,-4.1c-.4,-2.5,-6.4,-2.3,-11.8,-3.8Z" class="gd_26"/>
<path d="M754.7,681.9c-1.4,1,-4.2,3.2,-9.4,4.2c-5.8,1.1,-11,1,-17.4,1c-8.1,0,-15.7,.4,-22.1,-1.9c-4.6,-1.8,-6,-3.3,-9.5,-4.9c-2,-.9,-2.8,-1.6,-2.3,-2.4c.6,-.8,7.6,.9,11,.7c3.5,-.3,5.6,-.5,8.1,-.5c4.8,.1,9.3,1.3,13.8,1.3c4.8,.1,8.4,-1.2,13.1,-1.3c2.6,-.1,4.5,-.1,8.4,.1c3.3,.2,6.5,-.6,8.5,-.5c1.8,.1,2.8,0,3.4,.8c0,1.5,-2.2,1.3,-5.6,3.4Zm-5.1,-7.3c-5,-1.3,-9.7,-3.3,-14.2,-3.2c-3.5,-.1,-4,1.3,-8.3,1.3c-3.1,.1,-3.8,-1.2,-8.3,-1.2c-2.8,0,-7.1,.3,-13,2.2c-5.5,1.8,-12.9,2.3,-13.2,4.2c-.2,1.3,.3,2.2,4.2,5.7c1.7,1.4,4.3,3.5,8.4,7.3c7.2,6.7,15.1,6.8,21.8,6.8c8,0,16.2,0,21.7,-5.4c5.6,-5.3,6.8,-6.8,9.9,-9.8c2,-1.9,2.9,-2.9,2.8,-4.1c-.4,-2.5,-6.4,-2.3,-11.8,-3.8Z" class="gc_26"/>
</g>
<path d="M833.5,677.5c-2.8,-3.1,-5.3,-5.1,-7.7,-6.8c-3.2,-2.2,-5.4,-3.5,-9,-3.4c-2.3,0,-2.8,1,-5.6,1c-2.3,0,-2.9,-1,-5.9,-1c-3.1,0,-6.7,2.6,-9.3,4.6c-1.8,1.4,-4.9,5.2,-6.2,6.9c-.9,1.3,-3.7,4,-3.7,5.2c0,0,1,2.7,1.6,3.7c.7,1.1,2.6,5.1,4,6.9c5.3,6.6,10.9,8.2,18.6,8.2c5,0,8.1,.2,11.3,-.7c3.4,-.9,6,-2.3,8.5,-4.6c2.7,-2.6,4.9,-7.9,6.1,-10c1,-1.7,1.7,-3.2,1.7,-3.2c0,-1.5,-1.6,-3.8,-4.4,-6.8Z" class="gd_26"/>
<path d="M833.5,677.5c-2.8,-3.1,-5.3,-5.1,-7.7,-6.8c-3.2,-2.2,-5.4,-3.5,-9,-3.4c-2.3,0,-2.8,1,-5.6,1c-2.3,0,-2.9,-1,-5.9,-1c-3.1,0,-6.7,2.6,-9.3,4.6c-1.8,1.4,-4.9,5.2,-6.2,6.9c-.9,1.3,-3.7,4,-3.7,5.2c0,0,1,2.7,1.6,3.7c.7,1.1,2.6,5.1,4,6.9c5.3,6.6,10.9,8.2,18.6,8.2c5,0,8.1,.2,11.3,-.7c3.4,-.9,6,-2.3,8.5,-4.6c2.7,-2.6,4.9,-7.9,6.1,-10c1,-1.7,1.7,-3.2,1.7,-3.2c0,-1.5,-1.6,-3.8,-4.4,-6.8Z" class="gj_26"/>
<path d="M823.9,683.7c0,0,-1.1,.5,-2.2,1.1c-1.2,.6,-2.6,1.1,-3.2,1.3c-1.3,.5,-3.7,1,-5.4,1c-3.4,.1,-5.4,-.5,-6.9,-.9c-.7,-.2,-1.7,-.6,-2.4,-1.1c-1.7,-1.2,-3.4,-1.8,-3.4,-1.8c1.6,-.8,2.4,-1.2,3.7,-1.8c1.5,-.5,2.5,-1.1,3.3,-1.4c2.7,-.7,2.7,-.1,4.9,-.1c2.3,0,3.3,-.7,5.9,.9l2.4,1.3c.2,.4,3.3,1.5,3.3,1.5Z" class="gb_26"/>
<path d="M787.3,683.9c2.2,.5,6.7,.9,10.1,.3c2.5,-.5,9.2,-3.8,10,-4.1c2,-.5,2,-.1,4.9,-.1c2.3,0,3.6,-.8,6.3,1.2c0,0,4.2,2.2,5.7,2.7c3.2,1,9.4,-.4,11.3,0c2,.3,1.4,0,1.4,.1m-13.1,-.1c-1.7,.4,-4.6,1.9,-5.4,2.2c-1.3,.4,-3.2,.9,-5.4,1c-3.4,.1,-4.8,-.4,-6.3,-.8c-2.5,-.5,-5.4,-2.9,-6.3,-3" class="gk_26"/>
<path d="M806.7,689.8c-.6,.5,-.4,1.5,-.9,4.1c-.8,4.2,-.1,5.6,.2,6.5m10.7,-11.5c.6,.5,1.4,2.4,1.9,5c.8,4.2,.1,5.6,-.2,6.5m6.2,-13.9c0,0,2.9,1.3,4,2.8c1.1,1.5,1.6,3.3,1.6,3.3m-19.8,-2.4c-.2,.8,-.7,5.7,-.6,8.3M801,685.9c-1,.3,-2.7,2.4,-3.9,3.4c-1.3,1,-2.2,3.7,-2.2,3.7m21.3,-14.4c.7,-.5,2.3,-2.4,3.3,-3.5c0,0,1.6,-2.1,2.1,-3.9M806,678.3c-.7,-.5,-2.1,-1.7,-3.1,-2.7c-1.1,-1,-2.2,-2.6,-2.8,-4.2m22.5,9.4c1.8,.5,3.3,-.9,5,-1.1c1.6,-.3,3.3,-1.3,3.9,-2.1m-34.6,-1.7c.1,.3,1.1,1.2,2.7,1.9c1.2,.5,3,1.9,4,1.9" class="ge_26"/>
<path d="M823.9,683.9c3.2,1,9.8,-.4,11.7,0c2,.3,1.4,0,1.4,.1m-49.7,-.1c2.2,.5,8.5,1.2,13.2,-.6" class="gl_26"/>
<path d="M201.1,885.4H523.6v39H201.1v-39Zm322.5,0H846.1v39H523.6v-39Z" class="gm_26"/>
<path d="M201.1,924.4H308.6v108.3H201.1V924.4Zm107.5,0H416.1v108.3H308.6V924.4Zm107.5,0H523.6v108.3H416.1V924.4Zm107.5,0H631.1v108.3H523.6V924.4Zm107.5,0H738.6v108.3H631.1V924.4Zm107.5,0H846.1v108.3H738.6V924.4Z" class="g6_26"/>
<path d="M416.1,1032.5V924.6" class="g7_26"/>
<path d="M201,885.4H308.6M201.1,924.3V885.6m107.5,-.2H416.1m0,0H523.6m0,0H631.1M523.6,924.3V885.6m107.5,-.2H738.6m0,0H846.3m-.2,38.9V885.6M201,924.4H308.6M201.1,1032.5V924.6m107.5,-.2H416.1M308.6,1032.5V924.6m107.5,-.2H523.6m0,0H631.1M523.6,1032.5V924.6m107.5,-.2H738.6M631.1,1032.5V924.6m107.5,-.2H846.3M738.6,1032.5V924.6m107.5,107.9V924.6M201,1032.7H308.6m0,0H416.1m0,0H523.6m0,0H631.1m0,0H738.6m0,0H846.3" class="g8_26"/>
<path d="M415.6,1032.5V924.6m1,107.9V924.6" class="g9_26"/>
<path d="M374.1,975.9l-3.9,2v-30h-1.6v29.9l-3.8,-1.9l4.6,7.2Z" class="gn_26"/>
<path d="M702,958.2l2,3.9H674v1.6h29.9l-1.9,3.8l7.2,-4.7Z" class="gn_26"/>
<path d="M787.7,958.2l-2,3.9h30v1.6H785.8l1.9,3.8l-7.2,-4.7Z" class="gn_26"/>
<path d="M485.1,953.5l-3.8,-1.9v29.9h-1.6V951.6l-3.8,1.9l4.6,-7.2Z" class="gn_26"/>
<g clip-path="url(#c9_26)">
<path d="M379.2,963.9l-2.4,-4.2l-3.6,2.1l-2.1,4.1c.5,.4,1,1,1.5,1.8c.4,.6,.7,1.4,.9,2.2l4.5,.3l3.6,-2.1Z" class="g6_26"/>
<path d="M379.2,963.9l-2.4,-4.2l-3.6,2.1l-2.1,4.1c.5,.4,1,1,1.5,1.8c.4,.6,.7,1.4,.9,2.2l4.5,.3l3.6,-2.1l-2.4,-4.2Z" class="go_26"/>
<path d="M372.6,967.7c-.5,-.8,-1,-1.4,-1.5,-1.8l-1.8,3.8l4.2,.2c-.2,-.8,-.5,-1.6,-.9,-2.2Z" class="gp_26"/>
<path d="M372.6,967.7c-.5,-.8,-1,-1.4,-1.5,-1.8l-1.8,3.8l4.2,.2c-.2,-.8,-.5,-1.6,-.9,-2.2Z" class="go_26"/>
<path d="M396.8,959.3c2.4,-1.3,3.1,-4.3,1.8,-6.6c-1.3,-2.3,-4.3,-3.1,-6.6,-1.7l-.6,.3l4.8,8.4Z" class="gq_26"/>
<path d="M396.8,959.3c2.4,-1.3,3.1,-4.3,1.8,-6.6c-1.3,-2.3,-4.3,-3.1,-6.6,-1.7l-.6,.3l4.8,8.4l.6,-.4Z" class="go_26"/>
<path d="M391.4,951.3l-18.1,10.5h1.4c.4,0,.6,.2,.4,.6l-.9,1.5H376l17,-9.8Z" class="gr_26"/>
<path d="M391.4,951.3l-18.1,10.5h1.4c.4,0,.6,.2,.4,.6l-.9,1.5H376l17,-9.8l-1.6,-2.8Z" class="go_26"/>
<path d="M393,954.1l-17,9.8c.4,0,.5,.3,.3,.6l-.9,1.5h1.8c.4,0,.6,.3,.4,.6l-.1,.2l17.1,-9.9Z" class="gs_26"/>
<path d="M393,954.1l-17,9.8c.4,0,.5,.3,.3,.6l-.9,1.5h1.8c.4,0,.6,.3,.4,.6l-.1,.2l17.1,-9.9L393,954.1Z" class="go_26"/>
<path d="M394.6,956.9l-17.1,9.9l-.8,1.4h1.8c.3,0,.5,.3,.3,.6l-.8,1.4l18.2,-10.5Z" class="gr_26"/>
<path d="M394.6,956.9l-17.1,9.9l-.8,1.4h1.8c.3,0,.5,.3,.3,.6l-.8,1.4l18.2,-10.5l-1.6,-2.8Z" class="go_26"/>
<path d="M393.5,961.2l-4.8,-8.3l2.7,-1.6l4.8,8.4Z" class="gt_26"/>
<path d="M393.5,961.2l-4.8,-8.3l2.7,-1.6l4.8,8.4l-2.7,1.5Z" class="go_26"/>
</g>
<g clip-path="url(#ca_26)">
<path d="M490.3,966.1l-2.4,-4.2l-3.7,2.1l-2,4.1c.5,.4,1,1,1.5,1.8c.4,.6,.7,1.3,.9,2.2l4.5,.3l3.6,-2.1Z" class="g6_26"/>
<path d="M490.3,966.1l-2.4,-4.2l-3.7,2.1l-2,4.1c.5,.4,1,1,1.5,1.8c.4,.6,.7,1.3,.9,2.2l4.5,.3l3.6,-2.1l-2.4,-4.2Z" class="go_26"/>
<path d="M483.7,969.9c-.5,-.8,-1,-1.4,-1.5,-1.8l-1.8,3.7l4.2,.3c-.2,-.9,-.5,-1.6,-.9,-2.2Z" class="gp_26"/>
<path d="M483.7,969.9c-.5,-.8,-1,-1.4,-1.5,-1.8l-1.8,3.7l4.2,.3c-.2,-.9,-.5,-1.6,-.9,-2.2Z" class="go_26"/>
<path d="M507.9,961.5c2.3,-1.3,3.1,-4.3,1.8,-6.6c-1.3,-2.3,-4.3,-3.1,-6.6,-1.8l-.7,.4l4.9,8.4Z" class="gq_26"/>
<path d="M507.9,961.5c2.3,-1.3,3.1,-4.3,1.8,-6.6c-1.3,-2.3,-4.3,-3.1,-6.6,-1.8l-.7,.4l4.9,8.4l.6,-.4Z" class="go_26"/>
<path d="M502.4,953.5l-18,10.4h1.4c.4,0,.6,.3,.4,.6l-.9,1.6h1.8L504,956.3Z" class="gr_26"/>
<path d="M502.4,953.5l-18,10.4h1.4c.4,0,.6,.3,.4,.6l-.9,1.6h1.8L504,956.3l-1.6,-2.8Z" class="go_26"/>
<path d="M504,956.3l-16.9,9.8c.4,0,.5,.3,.3,.6l-.9,1.5h1.8c.4,0,.5,.3,.4,.6l-.1,.2l17.1,-9.9Z" class="gs_26"/>
<path d="M504,956.3l-16.9,9.8c.4,0,.5,.3,.3,.6l-.9,1.5h1.8c.4,0,.5,.3,.4,.6l-.1,.2l17.1,-9.9L504,956.3Z" class="go_26"/>
<path d="M505.7,959.1L488.6,969l-.8,1.3h1.7c.4,0,.6,.3,.4,.7l-.8,1.4l18.2,-10.5Z" class="gr_26"/>
<path d="M505.7,959.1L488.6,969l-.8,1.3h1.7c.4,0,.6,.3,.4,.7l-.8,1.4l18.2,-10.5l-1.6,-2.8Z" class="go_26"/>
<path d="M504.6,963.4L499.8,955l2.6,-1.5l4.9,8.4Z" class="gt_26"/>
<path d="M504.6,963.4L499.8,955l2.6,-1.5l4.9,8.4l-2.7,1.5Z" class="go_26"/>
</g>
<g clip-path="url(#cb_26)">
<path d="M692.5,954.3L689,951l-2.9,3l-.8,4.4c.5,.3,1.2,.7,1.9,1.4c.5,.5,1,1.1,1.5,1.8l4.4,-.9l2.9,-3Z" class="g6_26"/>
<path d="M692.5,954.3L689,951l-2.9,3l-.8,4.4c.5,.3,1.2,.7,1.9,1.4c.5,.5,1,1.1,1.5,1.8l4.4,-.9l2.9,-3l-3.5,-3.4Z" class="go_26"/>
<path d="M687.2,959.8c-.7,-.7,-1.4,-1.1,-1.9,-1.4l-.8,4.2l4.2,-1c-.5,-.7,-1,-1.3,-1.5,-1.8Z" class="gp_26"/>
<path d="M687.2,959.8c-.7,-.7,-1.4,-1.1,-1.9,-1.4l-.8,4.2l4.2,-1c-.5,-.7,-1,-1.3,-1.5,-1.8Z" class="go_26"/>
<path d="M708.2,945c1.8,-1.9,1.8,-5,-.1,-6.8c-2,-1.9,-5,-1.8,-6.9,.1l-.5,.6l7,6.7Z" class="gq_26"/>
<path d="M708.2,945c1.8,-1.9,1.8,-5,-.1,-6.8c-2,-1.9,-5,-1.8,-6.9,.1l-.5,.6l7,6.7l.5,-.6Z" class="go_26"/>
<path d="M700.7,938.9l-14.5,14.9l1.4,-.4c.4,-.1,.6,.2,.5,.5l-.4,1.7l1.7,-.4v-.1l13.6,-14Z" class="gr_26"/>
<path d="M700.7,938.9l-14.5,14.9l1.4,-.4c.4,-.1,.6,.2,.5,.5l-.4,1.7l1.7,-.4v-.1l13.6,-14l-2.3,-2.2Z" class="go_26"/>
<path d="M703,941.1l-13.6,14c.4,0,.6,.2,.5,.5l-.4,1.8l1.7,-.5c.3,-.1,.6,.1,.5,.5l-.1,.1l13.7,-14.2Z" class="gs_26"/>
<path d="M703,941.1l-13.6,14c.4,0,.6,.2,.5,.5l-.4,1.8l1.7,-.5c.3,-.1,.6,.1,.5,.5l-.1,.1l13.7,-14.2L703,941.1Z" class="go_26"/>
<path d="M705.3,943.3l-13.7,14.2l-.4,1.6l1.7,-.5c.4,-.1,.6,.1,.6,.5l-.4,1.6l14.6,-15.1Z" class="gr_26"/>
<path d="M705.3,943.3l-13.7,14.2l-.4,1.6l1.7,-.5c.4,-.1,.6,.1,.6,.5l-.4,1.6l14.6,-15.1l-2.4,-2.3Z" class="go_26"/>
<path d="M705.5,947.8L698.6,941l2.1,-2.1l7,6.7Z" class="gt_26"/>
<path d="M705.5,947.8L698.6,941l2.1,-2.1l7,6.7l-2.2,2.2Z" class="go_26"/>
</g>
<g clip-path="url(#cc_26)">
<path d="M801.6,954.3L798.2,951l-3,3l-.8,4.4c.6,.3,1.2,.7,2,1.4c.5,.5,1,1.1,1.4,1.8l4.4,-.9l2.9,-3Z" class="g6_26"/>
<path d="M801.6,954.3L798.2,951l-3,3l-.8,4.4c.6,.3,1.2,.7,2,1.4c.5,.5,1,1.1,1.4,1.8l4.4,-.9l2.9,-3l-3.5,-3.4Z" class="go_26"/>
<path d="M796.4,959.8c-.8,-.7,-1.4,-1.1,-2,-1.4l-.7,4.2l4.1,-1c-.4,-.7,-.9,-1.3,-1.4,-1.8Z" class="gp_26"/>
<path d="M796.4,959.8c-.8,-.7,-1.4,-1.1,-2,-1.4l-.7,4.2l4.1,-1c-.4,-.7,-.9,-1.3,-1.4,-1.8Z" class="go_26"/>
<path d="M817.3,945c1.9,-1.9,1.8,-5,-.1,-6.8c-1.9,-1.9,-5,-1.8,-6.8,.1l-.6,.6l7,6.7Z" class="gq_26"/>
<path d="M817.3,945c1.9,-1.9,1.8,-5,-.1,-6.8c-1.9,-1.9,-5,-1.8,-6.8,.1l-.6,.6l7,6.7l.5,-.6Z" class="go_26"/>
<path d="M809.8,938.9l-14.4,14.9l1.3,-.4c.4,-.1,.6,.2,.5,.5l-.4,1.7l1.7,-.4c0,0,.1,0,.1,-.1l13.6,-14Z" class="gr_26"/>
<path d="M809.8,938.9l-14.4,14.9l1.3,-.4c.4,-.1,.6,.2,.5,.5l-.4,1.7l1.7,-.4c0,0,.1,0,.1,-.1l13.6,-14l-2.4,-2.2Z" class="go_26"/>
<path d="M812.2,941.1l-13.6,14c.3,0,.5,.2,.4,.5l-.4,1.8l1.7,-.5c.4,-.1,.6,.1,.5,.5v.1l13.7,-14.2Z" class="gs_26"/>
<path d="M812.2,941.1l-13.6,14c.3,0,.5,.2,.4,.5l-.4,1.8l1.7,-.5c.4,-.1,.6,.1,.5,.5v.1l13.7,-14.2l-2.3,-2.2Z" class="go_26"/>
<path d="M814.5,943.3l-13.7,14.2l-.4,1.6l1.7,-.5c.3,-.1,.6,.1,.5,.5l-.4,1.6l14.6,-15.1Z" class="gr_26"/>
<path d="M814.5,943.3l-13.7,14.2l-.4,1.6l1.7,-.5c.3,-.1,.6,.1,.5,.5l-.4,1.6l14.6,-15.1l-2.3,-2.3Z" class="go_26"/>
<path d="M814.7,947.8l-7,-6.8l2.1,-2.1l7,6.7Z" class="gt_26"/>
<path d="M814.7,947.8l-7,-6.8l2.1,-2.1l7,6.7l-2.1,2.2Z" class="go_26"/>
</g>
<path d="M32.1,45.1H9.2m958.3,0h22.9M32.1,1331.3H9.2m958.3,0h22.9M45.1,32.1V9.2m0,1335.1v22.9M954.5,32.1V9.2m0,1335.1v22.9" class="gu_26"/>
<path d="M32.1,45.1H9.2m958.3,0h22.9M32.1,1331.3H9.2m958.3,0h22.9M45.1,32.1V9.2m0,1335.1v22.9M954.5,32.1V9.2m0,1335.1v22.9" class="gv_26"/>
<path d="M27.5,32.1H0m972.1,0h27.5M27.5,1344.3H0m972.1,0h27.5M32.1,27.5V0m0,1348.9v27.5M967.5,27.5V0m0,1348.9v27.5" class="gu_26"/>
<path d="M27.5,32.1H0m972.1,0h27.5M27.5,1344.3H0m972.1,0h27.5M32.1,27.5V0m0,1348.9v27.5M967.5,27.5V0m0,1348.9v27.5" class="gv_26"/>
</svg>