<?xml version="1.0" encoding="UTF-8" standalone="no"?>
<!DOCTYPE svg PUBLIC "-//W3C//DTD SVG 1.1//EN"
"http://www.w3.org/Graphics/SVG/1.1/DTD/svg11.dtd">
<svg viewBox="0 0 999 1376" version="1.1" xmlns="http://www.w3.org/2000/svg" xmlns:xlink="http://www.w3.org/1999/xlink">
<defs>
<clipPath id="c0_151"><path d="M32.1,1344.3V32.1H967.5V1344.3Z"/></clipPath>
<clipPath id="c1_151"><path d="M231.6,1044V976.9h67.1V1044Z"/></clipPath>
<clipPath id="c2_151"><path d="M393.4,1042.6V976.1h67.2v66.5Z"/></clipPath>
<clipPath id="c3_151"><path d="M569.1,1041.8v-68h61.1v68Z"/></clipPath>
<clipPath id="c4_151"><path d="M727.2,1041.8V976.1h65v65.7Z"/></clipPath>
<clipPath id="c5_151"><path d="M214.1,592V494.1H312V592Z"/></clipPath>
<clipPath id="c6_151"><path d="M380.3,592V494.1h97.9V592Z"/></clipPath>
<clipPath id="c7_151"><path d="M546.5,592V494.1h97.9V592Z"/></clipPath>
<clipPath id="c8_151"><path d="M712.7,592V494.1h97.9V592Z"/></clipPath>
<clipPath id="c9_151"><path d="M214.1,435.7V337.9H312v97.8Z"/></clipPath>
<clipPath id="ca_151"><path d="M380.3,435.7V337.9h97.9v97.8Z"/></clipPath>
<clipPath id="cb_151"><path d="M546.5,435.7V337.9h97.9v97.8Z"/></clipPath>
<clipPath id="cc_151"><path d="M712.7,435.7V337.9h97.9v97.8Z"/></clipPath>
<clipPath id="cd_151"><path d="M214.1,748.2V650.4H312v97.8Z"/></clipPath>
<clipPath id="ce_151"><path d="M380.3,748.2V650.4h97.9v97.8Z"/></clipPath>
<clipPath id="cf_151"><path d="M546.5,748.2V650.4h97.9v97.8Z"/></clipPath>
<clipPath id="cg_151"><path d="M712.7,748.2V650.4h97.9v97.8Z"/></clipPath>
<clipPath id="ch_151"><path d="M198.2,320.7l-6.5,-2.1L175.3,304.7V247.6h72v73.1Z"/></clipPath>
<clipPath id="ci_151"><path d="M208.1,894.2l-6.5,-2.1L185.2,878.2V821.1h72v73.1Z"/></clipPath>
<clipPath id="cj_151"><path d="M658.6,177V59h200V177Z"/></clipPath>
<style type="text/css"><![CDATA[
.g0_151{
fill: #FEFCF4;
}
.g1_151{
fill: #FFF;
}
.g2_151{
fill: none;
stroke: #6381B7;
stroke-width: 0.763;
}
.g3_151{
fill: #ABB2C9;
}
.g4_151{
fill: #EFE9CC;
}
.g5_151{
fill: none;
stroke: #949698;
stroke-width: 1.344;
}
.g6_151{
fill: #6381B7;
}
.g7_151{
fill: none;
stroke: #6381B7;
stroke-width: 0.381;
stroke-dasharray: 2,1;
}
.g8_151{
fill: none;
stroke: #6381B7;
stroke-width: 0.381;
}
.g9_151{
fill: #FCE8B0;
}
.ga_151{
fill: #2E6E51;
}
.gb_151{
fill: #BCBEC0;
}
.gc_151{
fill: #EE314A;
}
.gd_151{
fill: none;
stroke: #BCBEC0;
stroke-width: 0.432;
}
.ge_151{
fill: #25408F;
}
.gf_151{
fill: #00BAF1;
}
.gg_151{
fill: #332D2C;
}
.gh_151{
fill: #D9DFF0;
}
.gi_151{
fill: #F27C85;
}
.gj_151{
fill: #7DD3F6;
}
.gk_151{
fill: none;
stroke: #FFF;
stroke-width: 1.909;
stroke-miterlimit: 10;
}
.gl_151{
fill: none;
stroke: #000;
stroke-width: 0.381;
stroke-miterlimit: 10;
}
]]></style>
</defs>
<path d="M45.1,1344.3H967.5V32.1H45.1V1344.3Z" class="g0_151"/>
<path clip-path="url(#c0_151)" d="M-877.3,1344.3H45.1V32.1H-877.3V1344.3Z" class="g0_151"/>
<path d="M172.4,220.3c0,0,-18.3,0,-18.3,18.3V794.5c0,0,0,18.3,18.3,18.3H849.6c0,0,18.3,0,18.3,-18.3V220.3Z" class="g1_151"/>
<path d="M172.4,220.3c0,0,-18.3,0,-18.3,18.3V794.5c0,0,0,18.3,18.3,18.3H849.6c0,0,18.3,0,18.3,-18.3V220.3H172.4Z" class="g2_151"/>
<path d="M435.9,441.9H585.3v-98H435.9v98Z" class="g1_151"/>
<path d="M435.9,441.9H585.3v-98H435.9v98Z" class="g1_151"/>
<path d="M437,441.9H584.2v-98H437v98Z" class="g1_151"/>
<path d="M435.3,441.9H586v-98H435.3v98Z" class="g1_151"/>
<path d="M435.3,599.1H586V501.2H435.3v97.9Z" class="g1_151"/>
<path d="M435.3,599.1H586V501.2H435.3v97.9Z" class="g1_151"/>
<path d="M435.3,599.1H586V501.2H435.3v97.9Z" class="g1_151"/>
<path d="M435.9,599.1H585.3V501.2H435.9v97.9Z" class="g1_151"/>
<path d="M435.9,753.9H585.3v-98H435.9v98Z" class="g1_151"/>
<path d="M435.9,753.9H585.3v-98H435.9v98Z" class="g1_151"/>
<path d="M435.9,753.9H585.3v-98H435.9v98Z" class="g1_151"/>
<path d="M435.9,753.9H585.3v-98H435.9v98Z" class="g1_151"/>
<path d="M167.1,906.9c0,0,-13,0,-13,13v262.9c0,0,0,13,13,13H854.9c0,0,13,0,13,-13V919.9c0,0,0,-13,-13,-13Z" class="g1_151"/>
<path d="M167.1,906.9c0,0,-13,0,-13,13v262.9c0,0,0,13,13,13H854.9c0,0,13,0,13,-13V919.9c0,0,0,-13,-13,-13H167.1Z" class="g2_151"/>
<path d="M229,1047.1h73.6V971.3H229v75.8Z" class="g1_151"/>
<image clip-path="url(#c1_151)" preserveAspectRatio="none" x="232" y="977" width="67" height="67" xlink:href="img/1.jpg"/>
<path d="M387.1,1047.1H465V976.5H387.1v70.6Z" class="g1_151"/>
<image clip-path="url(#c2_151)" preserveAspectRatio="none" x="393" y="975" width="68" height="67" xlink:href="img/2.jpg"/>
<path d="M569.7,1047.1h65V971.3h-65v75.8Z" class="g1_151"/>
<image clip-path="url(#c3_151)" preserveAspectRatio="none" x="563" y="974" width="67" height="67" xlink:href="img/3.jpg"/>
<path d="M727.6,1047.1h64.9V976.5H727.6v70.6Z" class="g1_151"/>
<image clip-path="url(#c4_151)" preserveAspectRatio="none" x="724" y="974" width="68" height="67" xlink:href="img/4.jpg"/>
<path d="M265.1,1063c2,0,3.6,-1.6,3.6,-3.6c0,-2,-1.6,-3.6,-3.6,-3.6c-2,0,-3.6,1.6,-3.6,3.6c0,2,1.6,3.6,3.6,3.6Z" class="g3_151"/>
<path d="M592.1,1063c2,0,3.6,-1.6,3.6,-3.6c0,-2,-1.6,-3.6,-3.6,-3.6c-2,0,-3.6,1.6,-3.6,3.6c0,2,1.6,3.6,3.6,3.6Z" class="g3_151"/>
<path d="M413.8,1063c2,0,3.6,-1.6,3.6,-3.6c0,-2,-1.6,-3.6,-3.6,-3.6c-2,0,-3.6,1.6,-3.6,3.6c0,2,1.6,3.6,3.6,3.6Z" class="g3_151"/>
<path d="M749.8,1063c2,0,3.6,-1.6,3.6,-3.6c0,-2,-1.6,-3.6,-3.6,-3.6c-2,0,-3.6,1.6,-3.6,3.6c0,2,1.6,3.6,3.6,3.6Z" class="g3_151"/>
<path d="M265.1,1132.3c2,0,3.6,-1.6,3.6,-3.6c0,-2,-1.6,-3.6,-3.6,-3.6c-2,0,-3.6,1.6,-3.6,3.6c0,2,1.6,3.6,3.6,3.6Z" class="g3_151"/>
<path d="M592.1,1132.3c2,0,3.6,-1.6,3.6,-3.6c0,-2,-1.6,-3.6,-3.6,-3.6c-2,0,-3.6,1.6,-3.6,3.6c0,2,1.6,3.6,3.6,3.6Z" class="g3_151"/>
<path d="M413.8,1132.3c2,0,3.6,-1.6,3.6,-3.6c0,-2,-1.6,-3.6,-3.6,-3.6c-2,0,-3.6,1.6,-3.6,3.6c0,2,1.6,3.6,3.6,3.6Z" class="g3_151"/>
<path d="M749.8,1132.3c2,0,3.6,-1.6,3.6,-3.6c0,-2,-1.6,-3.6,-3.6,-3.6c-2,0,-3.6,1.6,-3.6,3.6c0,2,1.6,3.6,3.6,3.6Z" class="g3_151"/>
<path d="M224,1141.7c0,0,-8.7,0,-8.7,8.7v15.1c0,0,0,8.7,8.7,8.7h69.3c0,0,8.6,0,8.6,-8.7v-15.1c0,0,0,-8.7,-8.6,-8.7Z" class="g4_151"/>
<path d="M556.7,1141.7c0,0,-8.7,0,-8.7,8.7v15.1c0,0,0,8.7,8.7,8.7H626c0,0,8.7,0,8.7,-8.7v-15.1c0,0,0,-8.7,-8.7,-8.7Z" class="g4_151"/>
<path d="M387.1,1141.7c0,0,-8.7,0,-8.7,8.7v15.1c0,0,0,8.7,8.7,8.7h69.3c0,0,8.6,0,8.6,-8.7v-15.1c0,0,0,-8.7,-8.6,-8.7Z" class="g4_151"/>
<path d="M727.4,1141.7c0,0,-8.7,0,-8.7,8.7v15.1c0,0,0,8.7,8.7,8.7h69.3c0,0,8.7,0,8.7,-8.7v-15.1c0,0,0,-8.7,-8.7,-8.7Z" class="g4_151"/>
<image clip-path="url(#c5_151)" preserveAspectRatio="none" x="214" y="494" width="98" height="98" xlink:href="img/5.jpg"/>
<path d="M188.8,592H337.4V494.1H188.8V592Z" class="g5_151"/>
<image clip-path="url(#c6_151)" preserveAspectRatio="none" x="380" y="494" width="98" height="98" xlink:href="img/6.jpg"/>
<path d="M354.9,592H503.6V494.1H354.9V592Z" class="g5_151"/>
<image clip-path="url(#c7_151)" preserveAspectRatio="none" x="546" y="494" width="98" height="98" xlink:href="img/7.jpg"/>
<path d="M521.1,592H669.8V494.1H521.1V592Z" class="g5_151"/>
<image clip-path="url(#c8_151)" preserveAspectRatio="none" x="713" y="494" width="98" height="98" xlink:href="img/8.jpg"/>
<path d="M687.3,592H836V494.1H687.3V592Z" class="g5_151"/>
<image clip-path="url(#c9_151)" preserveAspectRatio="none" x="214" y="338" width="98" height="98" xlink:href="img/9.jpg"/>
<path d="M188.8,435.7H337.4V337.9H188.8v97.8Z" class="g5_151"/>
<image clip-path="url(#ca_151)" preserveAspectRatio="none" x="380" y="338" width="98" height="98" xlink:href="img/10.jpg"/>
<path d="M354.9,435.7H503.6V337.9H354.9v97.8Z" class="g5_151"/>
<image clip-path="url(#cb_151)" preserveAspectRatio="none" x="546" y="338" width="98" height="98" xlink:href="img/11.jpg"/>
<path d="M521.1,435.7H669.8V337.9H521.1v97.8Z" class="g5_151"/>
<image clip-path="url(#cc_151)" preserveAspectRatio="none" x="713" y="338" width="98" height="98" xlink:href="img/12.jpg"/>
<path d="M687.3,435.7H836V337.9H687.3v97.8Z" class="g5_151"/>
<image clip-path="url(#cd_151)" preserveAspectRatio="none" x="214" y="650" width="98" height="98" xlink:href="img/13.jpg"/>
<path d="M188.8,748.2H337.4V650.4H188.8v97.8Z" class="g5_151"/>
<image clip-path="url(#ce_151)" preserveAspectRatio="none" x="380" y="650" width="98" height="98" xlink:href="img/14.jpg"/>
<path d="M354.9,748.2H503.6V650.4H354.9v97.8Z" class="g5_151"/>
<image clip-path="url(#cf_151)" preserveAspectRatio="none" x="546" y="650" width="98" height="98" xlink:href="img/15.jpg"/>
<path d="M521.1,748.2H669.8V650.4H521.1v97.8Z" class="g5_151"/>
<image clip-path="url(#cg_151)" preserveAspectRatio="none" x="713" y="650" width="98" height="98" xlink:href="img/16.jpg"/>
<path d="M687.3,748.2H836V650.4H687.3v97.8Z" class="g5_151"/>
<path d="M189.2,490.1H835V442.4H189.2v47.7Z" class="g1_151"/>
<path d="M186.3,488.5H337.8V445.7H186.3v42.8Z" class="g1_151"/>
<path d="M353.4,488.5H505V445.7H353.4v42.8Z" class="g1_151"/>
<path d="M498.9,488.5H693.7V445.7H498.9v42.8Z" class="g1_151"/>
<path d="M687.1,488.5H837.8V445.7H687.1v42.8Z" class="g1_151"/>
<path d="M189.2,644.9H835V597.2H189.2v47.7Z" class="g1_151"/>
<path d="M186.3,643.4H337.8V600.5H186.3v42.9Z" class="g1_151"/>
<path d="M353.4,643.4H519.7V600.5H353.4v42.9Z" class="g1_151"/>
<path d="M527,643.4H665.6V600.5H527v42.9Z" class="g1_151"/>
<path d="M694.1,643.4H832.7V600.5H694.1v42.9Z" class="g1_151"/>
<path d="M178.4,800.8H839.8V753.1H178.4v47.7Z" class="g1_151"/>
<path d="M188.4,799.3H340V756.4H188.4v42.9Z" class="g1_151"/>
<path d="M355.5,800.8H507.1V756.4H355.5v44.4Z" class="g1_151"/>
<path d="M527,799.3H665.6V756.4H527v42.9Z" class="g1_151"/>
<path d="M692,799.3H830.6V756.4H692v42.9Z" class="g1_151"/>
<path d="M652.7,1213.7c0,0,-4.3,0,-4.3,4.3v10.8c0,0,0,4.4,4.3,4.4h30.4c0,0,4.3,0,4.3,-4.4V1218c0,0,0,-4.3,-4.3,-4.3Z" class="g6_151"/>
<path d="M639.6,1206.2v36.2m1.3,1H866.3m.9,-1.4v-36.2m-1.3,-1H640.5" class="g7_151"/>
<path d="M639.6,1242.8v.6h.5m226.5,0h.6v-.6m0,-37.4v-.6h-.6m-226.5,0h-.5v.6" class="g8_151"/>
<path d="M230.9,276.6c0,0,-13,0,-13,13v21.6c0,0,0,13,13,13H832.8c0,0,13,0,13,-13V289.6c0,0,0,-13,-13,-13Z" class="g9_151"/>
<image clip-path="url(#ch_151)" preserveAspectRatio="none" x="174" y="246" width="75" height="76" xlink:href="img/17.png"/>
<path d="M225.7,316c0,0,-26.9,11.3,-51.1,-12.8c0,0,15.1,25.3,49.2,24c0,0,24.8,.3,20.3,-10.1c0,0,1.2,-4.5,-18.4,-1.1Z" class="g9_151"/>
<path d="M240.7,849.3c0,0,-13,0,-13,12.9v21.7c0,0,0,13,13,13H854.2c0,0,12.9,0,12.9,-13V862.2c0,0,0,-12.9,-12.9,-12.9Z" class="g9_151"/>
<image clip-path="url(#ci_151)" preserveAspectRatio="none" x="184" y="820" width="75" height="76" xlink:href="img/18.png"/>
<path d="M235.5,889.5c0,0,-26.8,11.3,-51.1,-12.7c0,0,15.2,25.3,49.3,23.9c0,0,24.8,.4,20.3,-10.1c0,0,1.2,-4.4,-18.5,-1.1Z" class="g9_151"/>
<path d="M32.1,179.3H967.5V32.1H32.1V179.3Z" class="ga_151"/>
<g clip-path="url(#c0_151)">
<path d="M967.5,177.2H-877.3v-5.4h736.6c43.1,0,53.1,-37.9,115.3,-37.9H967.5Z" class="gb_151"/>
<path d="M967.5,183.7H-877.3v-9.8h736.6c43.1,0,53.1,-33.6,115.3,-33.6H967.5Z" class="gc_151"/>
<path d="M967.5,183.7H-877.3v-9.8h736.6c43.1,0,53.1,-33.6,115.3,-33.6H967.5v43.4Z" class="gd_151"/>
</g>
<path d="M153.3,217.5v22.2L165,250V227.8Z" class="ge_151"/>
<path d="M153.3,200.7v39H851.1c0,0,16.8,0,16.8,-16.8v-5.4c0,0,0,-16.8,-16.8,-16.8Z" class="g6_151"/>
<path d="M211.3,212.1l-6.5,-6.4l-21.2,21.2l6.5,6.4Z" class="gf_151"/>
<path d="M190.1,233.9c.1,0,.3,-.1,.4,-.2l21.2,-21.2c.1,-.1,.1,-.2,.1,-.4c0,-.1,0,-.2,-.1,-.3l-6.5,-6.5c-.2,-.2,-.6,-.2,-.8,0l-21.2,21.2c-.1,.1,-.1,.2,-.1,.4c0,.1,0,.2,.1,.3l6.5,6.5c.1,.1,.3,.2,.4,.2m20.5,-21.8l-20.5,20.5l-5.8,-5.7l20.5,-20.5Z" class="gg_151"/>
<path d="M211.3,212.1l-6.5,-6.4l2.1,-2.2l6.5,6.5Z" class="gh_151"/>
<path d="M211.3,212.7c.1,0,.3,-.1,.4,-.2l2.1,-2.1c.1,-.1,.2,-.2,.2,-.4c0,-.1,-.1,-.3,-.2,-.4l-6.5,-6.4c-.2,-.3,-.5,-.3,-.7,0l-2.2,2.1c-.1,.1,-.1,.2,-.1,.4c0,.1,0,.2,.1,.3l6.5,6.5c.1,.1,.3,.2,.4,.2m1.4,-2.7l-1.4,1.4l-5.7,-5.7l1.3,-1.4Z" class="gg_151"/>
<path d="M217,206.4l-6.4,-6.5l-3.7,3.6l6.5,6.5Z" class="gi_151"/>
<path d="M213.4,210.5c.2,0,.3,0,.4,-.1l3.6,-3.6c.2,-.2,.2,-.6,0,-.8l-6.5,-6.5c-.2,-.2,-.5,-.2,-.7,0l-3.6,3.7c-.2,.2,-.2,.5,0,.7l6.5,6.5c.1,.1,.2,.1,.3,.1m2.9,-4.1l-2.9,2.9l-5.7,-5.8l2.9,-2.8Z" class="gg_151"/>
<path d="M179,238l4.6,-11.1l6.5,6.4Z" class="g1_151"/>
<path d="M179,238.5c0,0,.1,0,.2,0l11.1,-4.7c.2,0,.3,-.2,.3,-.4c0,-.1,0,-.3,-.1,-.4L184,226.5c-.1,-.1,-.3,-.2,-.5,-.1c-.2,0,-.3,.1,-.4,.3l-4.6,11.1c-.1,.2,0,.4,.1,.6c.1,.1,.2,.1,.4,.1m10.2,-5.3l-9.3,3.8l3.9,-9.2Z" class="gg_151"/>
<path d="M179,238l2.2,-5.4l3.1,3.1Z" class="gg_151"/>
<path d="M179,238.5c0,0,.1,0,.2,0l5.3,-2.3c.2,0,.3,-.2,.4,-.4c0,-.1,-.1,-.3,-.2,-.4l-3.1,-3.2c-.1,-.1,-.3,-.1,-.5,-.1c-.2,0,-.3,.2,-.4,.3l-2.2,5.4c-.1,.2,0,.4,.1,.6c.1,.1,.2,.1,.4,.1m4.4,-2.9l-3.5,1.4l1.5,-3.5Z" class="gg_151"/>
<path d="M209.5,210.4l-2.9,-3l-21.2,21.2l2.9,3Z" class="gj_151"/>
<path d="M188.3,232.1c.2,0,.3,0,.4,-.1l21.2,-21.2c.1,-.1,.2,-.3,.2,-.4c0,-.2,-.1,-.3,-.2,-.4l-3,-3c-.2,-.2,-.5,-.2,-.7,0L185,228.3c-.1,.1,-.2,.2,-.2,.3c0,.2,.1,.3,.2,.4l3,3c.1,.1,.2,.1,.3,.1m20.5,-21.7l-20.5,20.4l-2.2,-2.2l20.5,-20.4Z" class="gg_151"/>
<image clip-path="url(#cj_151)" preserveAspectRatio="none" x="659" y="59" width="200" height="118" xlink:href="img/19.png"/>
<path d="M32.1,45.1H9.2m958.3,0h22.9M32.1,1331.3H9.2m958.3,0h22.9M45.1,32.1V9.2m0,1335.1v22.9M954.5,32.1V9.2m0,1335.1v22.9" class="gk_151"/>
<path d="M32.1,45.1H9.2m958.3,0h22.9M32.1,1331.3H9.2m958.3,0h22.9M45.1,32.1V9.2m0,1335.1v22.9M954.5,32.1V9.2m0,1335.1v22.9" class="gl_151"/>
<path d="M27.5,32.1H0m972.1,0h27.5M27.5,1344.3H0m972.1,0h27.5M32.1,27.5V0m0,1348.9v27.5M967.5,27.5V0m0,1348.9v27.5" class="gk_151"/>
<path d="M27.5,32.1H0m972.1,0h27.5M27.5,1344.3H0m972.1,0h27.5M32.1,27.5V0m0,1348.9v27.5M967.5,27.5V0m0,1348.9v27.5" class="gl_151"/>
</svg>