<?xml version="1.0" encoding="UTF-8" standalone="no"?>
<!DOCTYPE svg PUBLIC "-//W3C//DTD SVG 1.1//EN"
"http://www.w3.org/Graphics/SVG/1.1/DTD/svg11.dtd">
<svg viewBox="0 0 999 1376" version="1.1" xmlns="http://www.w3.org/2000/svg" xmlns:xlink="http://www.w3.org/1999/xlink">
<defs>
<clipPath id="c0_296"><path d="M32.1,1344.3V32.1H967.5V1344.3Z"/></clipPath>
<clipPath id="c1_296"><path d="M208.5,617.1V518.5H320.8v98.6Z"/></clipPath>
<clipPath id="c2_296"><path d="M207,733.2V624.7H320.8V733.2Z"/></clipPath>
<clipPath id="c3_296"><path d="M207,864.6v-107H320.8v107Z"/></clipPath>
<clipPath id="c4_296"><path d="M179.3,440.5l-6.5,-2.2L156.4,424.4V367.3h72v73.2Z"/></clipPath>
<clipPath id="c5_296"><path d="M176.6,1048.8l-6.5,-2.2l-16.4,-13.9V975.6h72v73.2Z"/></clipPath>
<clipPath id="c6_296"><path d="M178.4,137.2c.1,-1.3,.7,-2.5,1.6,-3.4c1,-1,2.4,-1.6,3.9,-1.6h19.2v5Z"/></clipPath>
<clipPath id="c7_296"><path d="M177.9,137.7v-6h25.7v6Z"/></clipPath>
<style type="text/css"><![CDATA[
.g0_296{
fill: #FEFCF4;
}
.g1_296{
fill: #DCE9F3;
}
.g2_296{
fill: none;
stroke: #6381B7;
stroke-width: 0.763;
}
.g3_296{
fill: none;
stroke: #231F20;
stroke-width: 0.305;
stroke-miterlimit: 10;
}
.g4_296{
fill: #D2D3D5;
}
.g5_296{
fill: #6381B7;
}
.g6_296{
fill: none;
stroke: #6381B7;
stroke-width: 0.381;
stroke-dasharray: 2,1;
}
.g7_296{
fill: none;
stroke: #6381B7;
stroke-width: 0.381;
}
.g8_296{
fill: #FFF;
}
.g9_296{
fill: #FCE8B0;
}
.ga_296{
fill: #25408F;
}
.gb_296{
fill: none;
stroke: #231F20;
stroke-width: 1.527;
}
.gc_296{
fill: #39B4D1;
stroke: #2D2A4A;
stroke-width: 1.038;
stroke-linecap: round;
stroke-linejoin: round;
}
.gd_296{
fill: #2D2A4A;
}
.ge_296{
fill: none;
stroke: #2D2A4A;
stroke-width: 1.038;
stroke-linecap: round;
stroke-linejoin: round;
}
.gf_296{
fill: #DEDAD3;
}
.gg_296{
fill: #29263F;
}
.gh_296{
fill: #E15F46;
stroke: #2D2A4A;
stroke-width: 1.038;
stroke-linecap: round;
stroke-linejoin: round;
}
.gi_296{
fill: none;
stroke: #FFF;
stroke-width: 1.909;
stroke-miterlimit: 10;
}
.gj_296{
fill: none;
stroke: #000;
stroke-width: 0.381;
stroke-miterlimit: 10;
}
]]></style>
</defs>
<path clip-path="url(#c0_296)" d="M954.5,1344.3H1877V32.1H954.5V1344.3Z" class="g0_296"/>
<path d="M149,167.4c0,0,-17.3,0,-17.3,17.4V314.7c0,0,0,17.3,17.3,17.3H828.9c0,0,17.4,0,17.4,-17.3V184.8c0,0,0,-17.4,-17.4,-17.4Z" class="g1_296"/>
<path d="M145.1,964c0,0,-13,0,-13,13v206.7c0,0,0,13,13,13H832.9c0,0,13,0,13,-13V977c0,0,0,-13,-13,-13Z" class="g0_296"/>
<path d="M145.1,964c0,0,-13,0,-13,13v206.7c0,0,0,13,13,13H832.9c0,0,13,0,13,-13V977c0,0,0,-13,-13,-13H145.1Z" class="g2_296"/>
<path d="M231.1,1169.4h137m234.4,0H739.6" class="g3_296"/>
<path d="M292.9,1061.1c0,0,-9.6,0,-9.6,9.7v15.3c0,0,0,9.7,9.6,9.7H674.6c0,0,9.6,0,9.6,-9.7v-15.3c0,0,0,-9.7,-9.6,-9.7Z" class="g4_296"/>
<path d="M617.1,1214.8c0,0,-4.3,0,-4.3,4.4V1230c0,0,0,4.3,4.3,4.3h30.3c0,0,4.4,0,4.4,-4.3v-10.8c0,0,0,-4.4,-4.4,-4.4Z" class="g5_296"/>
<path d="M603.9,1206v37.5m1.4,1H845.1m1,-1.3v-37.6m-1.4,-1H604.9" class="g6_296"/>
<path d="M603.9,1243.9v.6h.6m241,0h.6v-.6m0,-38.7v-.6h-.6m-241,0h-.6v.6" class="g7_296"/>
<path d="M145.1,454.5c0,0,-13,0,-13,13V874.2c0,0,0,13,13,13H832.9c0,0,13,0,13,-13V467.5c0,0,0,-13,-13,-13Z" class="g8_296"/>
<path d="M145.1,454.5c0,0,-13,0,-13,13V874.2c0,0,0,13,13,13H832.9c0,0,13,0,13,-13V467.5c0,0,0,-13,-13,-13H145.1Z" class="g2_296"/>
<path d="M177.9,515.9H827.5V497.3H177.9v18.6Z" class="g8_296"/>
<path d="M350.6,599.1h159M372.3,720.3h159M350.6,853.9h159" class="g3_296"/>
<image clip-path="url(#c1_296)" preserveAspectRatio="none" x="209" y="508" width="115" height="110" xlink:href="img/1.jpg"/>
<image clip-path="url(#c2_296)" preserveAspectRatio="none" x="204" y="624" width="116" height="110" xlink:href="img/2.jpg"/>
<image clip-path="url(#c3_296)" preserveAspectRatio="none" x="204" y="757" width="116" height="110" xlink:href="img/3.jpg"/>
<path d="M565.7,905.1c0,0,-4.3,0,-4.3,4.3v10.8c0,0,0,4.4,4.3,4.4H596c0,0,4.3,0,4.3,-4.4V909.4c0,0,0,-4.3,-4.3,-4.3Z" class="g5_296"/>
<path d="M552.5,896.2v37.6m1.4,1H844.8m1,-1.4V895.9m-1.4,-1H553.5" class="g6_296"/>
<path d="M552.5,934.2v.6h.6m292.1,0h.6v-.6m0,-38.7v-.6h-.6m-292.1,0h-.6v.6" class="g7_296"/>
<path d="M211.9,395.5c0,0,-13,0,-13,13v21.6c0,0,0,13,13,13H833.5c0,0,13,0,13,-13V408.5c0,0,0,-13,-13,-13Z" class="g9_296"/>
<image clip-path="url(#c4_296)" preserveAspectRatio="none" x="155" y="366" width="75" height="76" xlink:href="img/4.png"/>
<path d="M206.7,435.7c0,0,-26.9,11.3,-51.1,-12.7c0,0,15.2,25.3,49.3,24c0,0,24.7,.3,20.2,-10.2c0,0,1.3,-4.4,-18.4,-1.1Z" class="g9_296"/>
<path d="M209.2,1003.8c0,0,-13,0,-13,13v21.6c0,0,0,13,13,13h602c0,0,13,0,13,-13v-21.6c0,0,0,-13,-13,-13Z" class="g9_296"/>
<image clip-path="url(#c5_296)" preserveAspectRatio="none" x="152" y="974" width="75" height="76" xlink:href="img/5.png"/>
<path d="M204,1044c0,0,-26.8,11.3,-51.1,-12.7c0,0,15.2,25.3,49.3,23.9c0,0,24.8,.4,20.3,-10.1c0,0,1.2,-4.4,-18.5,-1.1Z" class="g9_296"/>
<path d="M131.7,109.5v39l11.7,10.2V136.5Z" class="ga_296"/>
<path d="M131.7,109.5v39H829.5c0,0,16.8,0,16.8,-16.8v-5.4c0,0,0,-16.8,-16.8,-16.8Z" class="g5_296"/>
<path d="M768.8,131c0,0,-.5,-10,8.6,-9.4c0,0,6.7,-.3,6.6,9.5m-15.3,-1.5v6.5c0,0,-3.3,.3,-3.9,-3c0,0,-.1,-3.8,3.9,-3.5Zm15.4,0v6.5c0,0,3.3,.3,3.9,-3c0,0,.1,-3.8,-3.9,-3.5Z" class="gb_296"/>
<path d="M147.4,140.8h61v-32h-61v32Z" class="gc_296"/>
<path d="M147.4,143.1h61v-2.3h-61v2.3Z" class="gc_296"/>
<path d="M171.8,106.2H152.1v31.5h25.8V112.3c0,-3.4,-2.7,-6.1,-6.1,-6.1Z" class="g8_296"/>
<path d="M171.8,106.2v-.5H152.1c-.1,0,-.3,.1,-.4,.2c-.1,.1,-.1,.2,-.1,.3v31.5c0,.1,0,.3,.1,.4c.1,.1,.3,.1,.4,.1h25.8c.1,0,.2,0,.3,-.1c.1,-.1,.2,-.3,.2,-.4V112.3c0,-3.7,-2.9,-6.6,-6.6,-6.6v1c1.6,0,2.9,.7,3.9,1.7c1,1,1.6,2.3,1.6,3.9v24.9H152.6V106.7h19.2Z" class="gd_296"/>
<path d="M152.1,131.7v6h25.8c0,-3.3,-2.7,-6,-6.1,-6Z" class="g8_296"/>
<path d="M152.1,131.7h-.5v6c0,.1,0,.3,.1,.4c.1,.1,.3,.1,.4,.1h25.8c.1,0,.2,0,.3,-.1c.1,-.1,.2,-.3,.2,-.4c0,-3.6,-3,-6.6,-6.6,-6.6H152.1c-.1,0,-.3,.1,-.4,.2c-.1,.1,-.1,.2,-.1,.4h.5v.5h19.7c1.6,0,2.9,.6,3.9,1.6c1,1,1.6,2.4,1.6,3.9h.6v-.5H152.6v-5.5h-.5v.5Z" class="gd_296"/>
<path d="M155.6,110.9h17.2m-17.2,2.8h17.2m-17.2,2.9h17.2m-17.2,2.9h17.2m-17.2,2.8h17.2m-17.2,2.9h17.2M155.6,128h17.2" class="ge_296"/>
<path d="M171.8,132.2H152.6v5h24.7c-.1,-1.3,-.7,-2.5,-1.6,-3.4c-1,-1,-2.3,-1.6,-3.9,-1.6Z" class="gf_296"/>
<path d="M152.6,132.2h19.2c1.6,0,2.9,.6,3.9,1.6c.9,.9,1.5,2.1,1.6,3.4H152.6Zm19.2,-.5H152.1v6h25.2v-2.5c-.9,-2.1,-3,-3.5,-5.5,-3.5Z" class="gg_296"/>
<path d="M183.9,106.2h19.7v31.5H177.9V112.3c0,-3.4,2.7,-6.1,6,-6.1Z" class="g8_296"/>
<path d="M183.9,106.2v.5h19.2v30.5H178.4V112.3c0,-1.6,.6,-2.9,1.6,-3.9c1,-1,2.4,-1.7,3.9,-1.7v-1c-3.6,0,-6.6,2.9,-6.6,6.6v25.4c0,.1,.1,.3,.2,.4c.1,.1,.2,.1,.4,.1h25.7c.2,0,.3,0,.4,-.1c.1,-.1,.1,-.3,.1,-.4V106.2c0,-.1,0,-.2,-.1,-.3c-.1,-.1,-.2,-.2,-.4,-.2H183.9Z" class="gd_296"/>
<path d="M203.6,131.7v6H177.9c0,-3.3,2.7,-6,6,-6Z" class="g8_296"/>
<path d="M203.6,131.7h-.5v5.5H177.9v.5h.5c0,-1.5,.6,-2.9,1.6,-3.9c1,-1,2.4,-1.6,3.9,-1.6h19.7v-.5h-.5h.5v-.6H183.9c-3.6,0,-6.6,3,-6.6,6.6c0,.1,.1,.3,.2,.4c.1,.1,.2,.1,.4,.1h25.7c.2,0,.3,0,.4,-.1c.1,-.1,.1,-.3,.1,-.4v-6c0,-.2,0,-.3,-.1,-.4c-.1,-.1,-.2,-.2,-.4,-.2Z" class="gd_296"/>
<path d="M200.1,110.9H182.9m17.2,2.8H182.9m17.2,2.9H182.9m17.2,2.9H182.9m17.2,2.8H182.9m17.2,2.9H182.9m17.2,2.8H182.9" class="ge_296"/>
<path clip-path="url(#c6_296)" d="M178.4,137.2h24.7v-5H178.4v5Z" class="gf_296"/>
<path clip-path="url(#c7_296)" d="M178.4,137.2c.1,-1.3,.7,-2.5,1.6,-3.4c1,-1,2.4,-1.6,3.9,-1.6h19.2v5Zm25.2,-5.5H183.9c-3.3,0,-6,2.7,-6,6h25.7v-6h-.5h.5Z" class="gg_296"/>
<path d="M177.9,108.8v34.3" class="ge_296"/>
<path d="M195.5,145.5h3.3V134.7h-3.3v10.8Z" class="gh_296"/>
<path d="M32.1,45.1H9.2m958.3,0h22.9M32.1,1331.3H9.2m958.3,0h22.9M45.1,32.1V9.2m0,1335.1v22.9M954.5,32.1V9.2m0,1335.1v22.9" class="gi_296"/>
<path d="M32.1,45.1H9.2m958.3,0h22.9M32.1,1331.3H9.2m958.3,0h22.9M45.1,32.1V9.2m0,1335.1v22.9M954.5,32.1V9.2m0,1335.1v22.9" class="gj_296"/>
<path d="M27.5,32.1H0m972.1,0h27.5M27.5,1344.3H0m972.1,0h27.5M32.1,27.5V0m0,1348.9v27.5M967.5,27.5V0m0,1348.9v27.5" class="gi_296"/>
<path d="M27.5,32.1H0m972.1,0h27.5M27.5,1344.3H0m972.1,0h27.5M32.1,27.5V0m0,1348.9v27.5M967.5,27.5V0m0,1348.9v27.5" class="gj_296"/>
</svg>