<?xml version="1.0" encoding="UTF-8" standalone="no"?>
<!DOCTYPE svg PUBLIC "-//W3C//DTD SVG 1.1//EN"
"http://www.w3.org/Graphics/SVG/1.1/DTD/svg11.dtd">
<svg viewBox="0 0 999 1376" version="1.1" xmlns="http://www.w3.org/2000/svg" xmlns:xlink="http://www.w3.org/1999/xlink">
<defs>
<clipPath id="c0_209"><path d="M32.1,1344.3V32.1H967.5V1344.3Z"/></clipPath>
<clipPath id="c1_209"><path d="M215,419.1V318.5H831.1V419.1Z"/></clipPath>
<clipPath id="c2_209"><path d="M215,566.7V466H831.1V566.7Z"/></clipPath>
<clipPath id="c3_209"><path d="M215,735.6V613.5H831.1V735.6Z"/></clipPath>
<clipPath id="c4_209"><path d="M215,857V782.7H831.1V857Z"/></clipPath>
<style type="text/css"><![CDATA[
.g0_209{
fill: #FEFCF4;
}
.g1_209{
fill: #6381B7;
}
.g2_209{
fill: none;
stroke: #6381B7;
stroke-width: 0.381;
stroke-dasharray: 2,1;
}
.g3_209{
fill: none;
stroke: #6381B7;
stroke-width: 0.381;
}
.g4_209{
fill: #FEF8F8;
}
.g5_209{
fill: none;
stroke: #A164A9;
stroke-width: 1.527;
stroke-linecap: round;
stroke-linejoin: round;
stroke-dasharray: 0,5;
}
.g6_209{
fill: none;
stroke: #A164A9;
stroke-width: 1.527;
stroke-linecap: round;
stroke-linejoin: round;
}
.g7_209{
fill: #A164A9;
}
.g8_209{
fill: #FFF;
}
.g9_209{
fill: none;
stroke: #231F20;
stroke-width: 0.305;
stroke-miterlimit: 10;
}
.ga_209{
fill: none;
stroke: #8CC63E;
stroke-width: 1.527;
stroke-linecap: round;
stroke-linejoin: round;
stroke-dasharray: 0,5;
}
.gb_209{
fill: none;
stroke: #8CC63E;
stroke-width: 1.527;
stroke-linecap: round;
stroke-linejoin: round;
}
.gc_209{
fill: #8CC63E;
}
.gd_209{
fill: #6CCFF6;
}
.ge_209{
fill: none;
stroke: #231F20;
stroke-width: 1.375;
stroke-miterlimit: 10;
}
.gf_209{
fill: #485E75;
}
.gg_209{
fill: #EAD646;
}
.gh_209{
fill: none;
stroke: #231F20;
stroke-width: 1.527;
}
.gi_209{
fill: #F16865;
}
.gj_209{
fill: none;
stroke: #FFF;
stroke-width: 1.909;
stroke-miterlimit: 10;
}
.gk_209{
fill: none;
stroke: #000;
stroke-width: 0.381;
stroke-miterlimit: 10;
}
]]></style>
</defs>
<path clip-path="url(#c0_209)" d="M-877.3,1344.3H45.1V32.1H-877.3V1344.3Z" class="g0_209"/>
<path d="M45.1,1344.3H967.5V32.1H45.1V1344.3Z" class="g0_209"/>
<path d="M651.9,925.8c0,0,-4.3,0,-4.3,4.3v10.8c0,0,0,4.4,4.3,4.4h30.4c0,0,4.3,0,4.3,-4.4V930.1c0,0,0,-4.3,-4.3,-4.3Z" class="g1_209"/>
<path d="M638.8,916.9v37.6m1.3,.9H867m.9,-1.3V916.5m-1.3,-.9H639.7" class="g2_209"/>
<path d="M638.8,954.9v.5h.5m228,0h.6v-.5m0,-38.7v-.6h-.6m-228,0h-.5v.6" class="g3_209"/>
<path d="M154.1,907.9h713V251h-713V907.9Z" class="g4_209"/>
<path d="M154.1,255.6v650m4.6,2.3H864.9m2.2,-4.6v-650M862.6,251H156.4" class="g5_209"/>
<path d="M154.1,907.9v0m713.1,0v0m0,-656.9v0m-713.1,0v0" class="g6_209"/>
<path d="M153.3,265.3V227c0,0,0,-8.7,8.7,-8.7H859.3c0,0,8.6,0,8.6,8.7v38.9Z" class="g7_209"/>
<image clip-path="url(#c1_209)" preserveAspectRatio="none" x="215" y="319" width="615" height="100" xlink:href="img/1.png"/>
<path d="M218.3,412.7H824.6v-91H218.3v91Z" class="g8_209"/>
<path d="M297.1,351.5h62.5" class="g9_209"/>
<image clip-path="url(#c2_209)" preserveAspectRatio="none" x="215" y="467" width="615" height="100" xlink:href="img/2.png"/>
<path d="M218.3,560.2H824.6V469.3H218.3v90.9Z" class="g8_209"/>
<path d="M278.6,499.1h74.2" class="g9_209"/>
<image clip-path="url(#c3_209)" preserveAspectRatio="none" x="215" y="614" width="615" height="122" xlink:href="img/3.png"/>
<path d="M218.3,729.4H824.6V616.8H218.3V729.4Z" class="g8_209"/>
<path d="M615.9,646.6h67.5" class="g9_209"/>
<image clip-path="url(#c4_209)" preserveAspectRatio="none" x="215" y="783" width="615" height="75" xlink:href="img/4.png"/>
<path d="M218.3,851H824.6V786H218.3v65Z" class="g8_209"/>
<path d="M624.6,815.8H761.7" class="g9_209"/>
<path d="M154.1,1243.9h713v-176h-713v176Z" class="g8_209"/>
<path d="M154.1,1072.5v169.1m4.6,2.3H864.9m2.2,-4.6V1070.2m-4.5,-2.3H156.4" class="ga_209"/>
<path d="M154.1,1243.9v0m713.1,0v0m0,-176v0m-713.1,0v0" class="gb_209"/>
<path d="M153.3,1072.5v-28.6c0,0,0,-8.7,8.7,-8.7H859.3c0,0,8.6,0,8.6,8.7V1073Z" class="gc_209"/>
<path d="M187.2,1049v-6.4c0,-4.8,-3.9,-8.7,-8.7,-8.7c-4.8,0,-8.6,3.9,-8.6,8.7v6.4Z" class="gd_209"/>
<path d="M187.2,1049v-6.4c0,-4.8,-3.9,-8.7,-8.7,-8.7c-4.8,0,-8.6,3.9,-8.6,8.7v6.4h17.3Z" class="ge_209"/>
<path d="M169.9,1050.8v5.3c0,4.8,3.8,8.7,8.6,8.7c4.8,0,8.7,-3.9,8.7,-8.7v-5.3Z" class="gd_209"/>
<path d="M169.9,1050.8v5.3c0,4.8,3.8,8.7,8.6,8.7c4.8,0,8.7,-3.9,8.7,-8.7v-5.3H169.9Z" class="ge_209"/>
<path d="M178.4,1069.7c-7.1,0,-13,-6,-13,-13.3h2.4c0,6,4.8,10.9,10.6,10.9c5.8,0,10.6,-4.9,10.6,-10.9h2.4c0,7.3,-5.8,13.3,-13,13.3Z" class="gf_209"/>
<path d="M178.4,1069.7c-7.1,0,-13,-6,-13,-13.3h2.4c0,6,4.8,10.9,10.6,10.9c5.8,0,10.6,-4.9,10.6,-10.9h2.4c0,7.3,-5.8,13.3,-13,13.3Z" class="ge_209"/>
<path d="M177.5,1076.8h2.4v-8h-2.4v8Z" class="gf_209"/>
<path d="M177.5,1076.8h2.4v-8h-2.4v8Z" class="ge_209"/>
<path d="M178.6,1073.2c-3.6,0,-6.6,2.2,-6.7,4.9h13.4c-.1,-2.7,-3.1,-4.9,-6.7,-4.9Z" class="gf_209"/>
<path d="M178.6,1073.2c-3.6,0,-6.6,2.2,-6.7,4.9h13.4c-.1,-2.7,-3.1,-4.9,-6.7,-4.9Z" class="ge_209"/>
<path d="M201.3,1028.7c-6.5,0,-11.9,5.4,-11.9,11.9c0,2.7,.9,5.2,2.4,7.2l-1.5,5.3l5.5,-1.9c1.7,.9,3.5,1.4,5.5,1.4c6.6,0,12,-5.4,12,-12c0,-6.5,-5.4,-11.9,-12,-11.9Z" class="gg_209"/>
<path d="M201.3,1028.7c-6.5,0,-11.9,5.4,-11.9,11.9c0,2.7,.9,5.2,2.4,7.2l-1.5,5.3l5.5,-1.9c1.7,.9,3.5,1.4,5.5,1.4c6.6,0,12,-5.4,12,-12c0,-6.5,-5.4,-11.9,-12,-11.9Z" class="ge_209"/>
<path d="M196.9,1040.5c0,.7,-.7,1.3,-1.4,1.3c-.8,0,-1.4,-.6,-1.4,-1.3c0,-.8,.6,-1.4,1.4,-1.4c.7,0,1.4,.6,1.4,1.4Z" class="g8_209"/>
<path d="M196.9,1040.5c0,.7,-.7,1.3,-1.4,1.3c-.8,0,-1.4,-.6,-1.4,-1.3c0,-.8,.6,-1.4,1.4,-1.4c.7,0,1.4,.6,1.4,1.4Z" class="ge_209"/>
<path d="M203,1040.5c0,.8,-.6,1.4,-1.4,1.4c-.8,0,-1.4,-.6,-1.4,-1.4c0,-.8,.6,-1.4,1.4,-1.4c.8,0,1.4,.6,1.4,1.4Z" class="g8_209"/>
<path d="M203,1040.5c0,.8,-.6,1.4,-1.4,1.4c-.8,0,-1.4,-.6,-1.4,-1.4c0,-.8,.6,-1.4,1.4,-1.4c.8,0,1.4,.6,1.4,1.4Z" class="ge_209"/>
<path d="M209.1,1040.5c0,.8,-.6,1.4,-1.4,1.4c-.8,0,-1.4,-.6,-1.4,-1.4c0,-.8,.6,-1.4,1.4,-1.4c.8,0,1.4,.6,1.4,1.4Z" class="g8_209"/>
<path d="M209.1,1040.5c0,.8,-.6,1.4,-1.4,1.4c-.8,0,-1.4,-.6,-1.4,-1.4c0,-.8,.6,-1.4,1.4,-1.4c.8,0,1.4,.6,1.4,1.4Z" class="ge_209"/>
<path d="M785.7,1054.9c0,0,-.5,-9.9,8.6,-9.3c0,0,6.8,-.4,6.7,9.5m-15.3,-1.6v6.6c0,0,-3.4,.3,-4,-3c0,0,0,-3.8,4,-3.6Zm15.3,0v6.6c0,0,3.4,.3,3.9,-3c0,0,.1,-3.8,-3.9,-3.6Z" class="gh_209"/>
<path clip-path="url(#c0_209)" d="M867.9,166.7c0,0,30.3,0,30.3,-30.3v-4.3c0,0,0,-30.3,-30.3,-30.3H-735.4c0,0,-30.4,0,-30.4,30.3v4.3c0,0,0,30.3,30.4,30.3Z" class="gi_209"/>
<image preserveAspectRatio="none" x="700" y="71" width="148" height="122" xlink:href="img/5.png"/>
<path d="M32.1,45.1H9.2m958.3,0h22.9M32.1,1331.3H9.2m958.3,0h22.9M45.1,32.1V9.2m0,1335.1v22.9M954.5,32.1V9.2m0,1335.1v22.9" class="gj_209"/>
<path d="M32.1,45.1H9.2m958.3,0h22.9M32.1,1331.3H9.2m958.3,0h22.9M45.1,32.1V9.2m0,1335.1v22.9M954.5,32.1V9.2m0,1335.1v22.9" class="gk_209"/>
<path d="M27.5,32.1H0m972.1,0h27.5M27.5,1344.3H0m972.1,0h27.5M32.1,27.5V0m0,1348.9v27.5M967.5,27.5V0m0,1348.9v27.5" class="gj_209"/>
<path d="M27.5,32.1H0m972.1,0h27.5M27.5,1344.3H0m972.1,0h27.5M32.1,27.5V0m0,1348.9v27.5M967.5,27.5V0m0,1348.9v27.5" class="gk_209"/>
</svg>