<?xml version="1.0" encoding="UTF-8" standalone="no"?>
<!DOCTYPE svg PUBLIC "-//W3C//DTD SVG 1.1//EN"
"http://www.w3.org/Graphics/SVG/1.1/DTD/svg11.dtd">
<svg viewBox="0 0 999 1376" version="1.1" xmlns="http://www.w3.org/2000/svg" xmlns:xlink="http://www.w3.org/1999/xlink">
<defs>
<clipPath id="c0_265"><path d="M153.3,939.8V131.7h716V939.8Z"/></clipPath>
<clipPath id="c1_265"><path d="M219.2,777.9v-99H805.8v99Z"/></clipPath>
<clipPath id="c2_265"><path d="M183.1,291.9V212.2H833.8v79.7Z"/></clipPath>
<clipPath id="c3_265"><path d="M183.1,437.2V357.8H833.8v79.4Z"/></clipPath>
<clipPath id="c4_265"><path d="M183.1,645.9V504.6H833.8V645.9Z"/></clipPath>
<style type="text/css"><![CDATA[
.g0_265{
fill: #FFF;
}
.g1_265{
fill: none;
stroke: #231F20;
stroke-width: 0.756;
stroke-miterlimit: 3;
}
.g2_265{
fill: #6381B7;
}
.g3_265{
fill: none;
stroke: #6381B7;
stroke-width: 0.381;
stroke-dasharray: 2,1;
}
.g4_265{
fill: none;
stroke: #6381B7;
stroke-width: 0.381;
}
.g5_265{
fill: #25408F;
}
.g6_265{
fill: #FFDE2C;
}
.g7_265{
fill: none;
stroke: #231F20;
stroke-width: 1.451;
stroke-miterlimit: 10;
}
.g8_265{
fill: #D2D3D5;
}
.g9_265{
fill: #A8AAAD;
}
.ga_265{
fill: none;
stroke: #231F20;
stroke-width: 0.828;
stroke-miterlimit: 10;
}
.gb_265{
fill: #6CCFF6;
}
.gc_265{
fill: none;
stroke: #231F20;
stroke-width: 0.828;
stroke-linecap: round;
stroke-linejoin: round;
}
.gd_265{
fill: none;
stroke: #231F20;
stroke-width: 1.451;
stroke-linecap: round;
stroke-linejoin: round;
}
.ge_265{
fill: #FEF9EC;
}
.gf_265{
fill: none;
stroke: #FECD4E;
stroke-width: 1.527;
stroke-linecap: round;
stroke-linejoin: round;
stroke-dasharray: 0,5;
}
.gg_265{
fill: none;
stroke: #FECD4E;
stroke-width: 1.527;
stroke-linecap: round;
stroke-linejoin: round;
}
.gh_265{
fill: #FECD4E;
}
.gi_265{
fill: #FFE3A6;
}
.gj_265{
fill: #F37B69;
}
.gk_265{
fill: #3D3B39;
}
.gl_265{
fill: none;
stroke: #FFF;
stroke-width: 1.909;
stroke-miterlimit: 10;
}
.gm_265{
fill: none;
stroke: #000;
stroke-width: 0.381;
stroke-miterlimit: 10;
}
]]></style>
</defs>
<path d="M153.3,939.8h716V131.7h-716V939.8Z" class="g0_265"/>
<image clip-path="url(#c0_265)" preserveAspectRatio="none" x="152" y="130" width="720" height="811" xlink:href="img/1.jpg"/>
<path d="M273.2,191.9c-.3,.7,-.8,1.3,-1.4,1.8c-.6,.5,-1.3,.9,-2.1,1.1c-.8,.3,-1.6,.4,-2.6,.4c-.9,0,-1.8,-.1,-2.6,-.4c-.8,-.2,-1.5,-.6,-2.1,-1.1c-.6,-.5,-1.1,-1.1,-1.4,-1.8c-.3,-.7,-.5,-1.4,-.5,-2.2c0,-.9,.2,-1.6,.5,-2.3c.3,-.6,.8,-1.2,1.4,-1.7c.6,-.5,1.3,-.9,2.1,-1.2c.8,-.2,1.7,-.4,2.6,-.4c1,0,1.8,.2,2.7,.4c.8,.3,1.4,.7,2,1.2c.6,.5,1.1,1.1,1.4,1.7c.3,.7,.5,1.4,.5,2.3c0,.8,-.2,1.5,-.5,2.2ZM270.3,187c-.9,-.7,-1.9,-1.1,-3.2,-1.1c-1.3,0,-2.3,.4,-3.1,1.1c-.8,.7,-1.3,1.6,-1.3,2.7c0,1,.5,1.9,1.3,2.7c.8,.7,1.8,1.1,3.1,1.1c1.3,0,2.3,-.4,3.2,-1.1c.8,-.8,1.2,-1.7,1.2,-2.7c0,-1.1,-.4,-2,-1.2,-2.7Zm7.7,-4.8H256.7v-1.8h7.5v-4.9h2.2v4.9H278v1.8Zm-6.1,-3.5c.3,-1.2,.5,-2.3,.6,-3.4c.1,-1,.1,-2,.1,-2.9c0,-.3,-.1,-.5,-.2,-.6c-.1,-.1,-.3,-.1,-.6,-.1H259.5v-1.8h12.9c.8,0,1.4,.1,1.8,.4c.4,.3,.6,.8,.6,1.5c0,.8,0,1.8,-.1,3.2c-.2,1.3,-.4,2.6,-.7,4l-2.1,-.3Zm24.2,13.2c-.3,.7,-.8,1.3,-1.4,1.8c-.5,.5,-1.2,.9,-2,1.1c-.8,.3,-1.7,.4,-2.6,.4c-1,0,-1.9,-.1,-2.7,-.4c-.8,-.2,-1.5,-.6,-2.1,-1.1c-.6,-.5,-1,-1.1,-1.4,-1.8c-.3,-.7,-.5,-1.4,-.5,-2.2c0,-.9,.2,-1.6,.5,-2.3c.4,-.6,.8,-1.2,1.4,-1.7c.6,-.5,1.3,-.9,2.1,-1.2c.8,-.2,1.7,-.4,2.7,-.4c.9,0,1.8,.2,2.6,.4c.8,.3,1.5,.7,2.1,1.2c.5,.5,1,1.1,1.3,1.7c.4,.7,.5,1.4,.5,2.3c0,.8,-.1,1.5,-.5,2.2ZM293.2,187c-.8,-.7,-1.9,-1.1,-3.1,-1.1c-1.3,0,-2.4,.4,-3.2,1.1c-.8,.7,-1.2,1.6,-1.2,2.7c0,1,.4,1.9,1.2,2.7c.8,.7,1.9,1.1,3.2,1.1c1.2,0,2.3,-.4,3.1,-1.1c.8,-.8,1.2,-1.7,1.2,-2.7c0,-1.1,-.4,-2,-1.2,-2.7Zm7.7,-4.8H279.6v-1.8h7.5v-4.9h2.3v4.9h11.5v1.8Zm-6.1,-3.5c.3,-1.2,.5,-2.3,.6,-3.4c.1,-1,.2,-2,.1,-2.9c0,-.3,0,-.5,-.2,-.6c-.1,-.1,-.3,-.1,-.5,-.1H282.5v-1.8h12.8c.9,0,1.4,.1,1.8,.4c.4,.3,.6,.8,.6,1.5c.1,.8,0,1.8,-.1,3.2c-.1,1.3,-.4,2.6,-.7,4l-2.1,-.3Zm27.1,-8.8V176h4.3v1.8h-4.3v2.9c0,1,-.1,1.9,-.4,2.7c-.3,.8,-.8,1.5,-1.7,2.2c.5,.5,.9,1.1,1.2,1.8c.2,.6,.4,1.3,.4,2.1c0,.8,-.2,1.6,-.5,2.3c-.4,.7,-.9,1.3,-1.4,1.8c-.6,.5,-1.3,.9,-2.1,1.2c-.7,.3,-1.6,.4,-2.4,.4c-.9,0,-1.7,-.1,-2.5,-.4c-.8,-.3,-1.5,-.7,-2,-1.2c-.6,-.5,-1.1,-1.1,-1.4,-1.8c-.4,-.7,-.5,-1.5,-.5,-2.3c0,-.9,.1,-1.6,.5,-2.3c.3,-.8,.8,-1.4,1.4,-1.9c.5,-.5,1.2,-.9,2,-1.2c.8,-.3,1.6,-.4,2.5,-.4c.6,0,1.2,.1,1.8,.2c.5,.2,1.1,.4,1.6,.6c.5,-.6,.9,-1.2,1,-1.8c.2,-.7,.3,-1.3,.3,-2.1V169.9h2.2Zm-18.1,.4h8.5c.4,0,.7,.1,1,.2c.2,.2,.4,.4,.5,.6c.1,.2,.1,.4,.1,.7c0,.2,0,.4,0,.6c-.2,.8,-.4,1.5,-.8,2.2c-.3,.7,-.7,1.4,-1.1,2c.5,.2,1,.4,1.3,.6c.3,.3,.6,.5,.9,.8c.4,.5,.9,1,1.3,1.5c.5,.6,.9,1.1,1.3,1.6l-1.5,1.3c-.2,-.2,-.5,-.5,-.7,-.8c-.2,-.2,-.4,-.5,-.6,-.7c-.2,-.3,-.4,-.5,-.6,-.7c-.2,-.3,-.4,-.6,-.6,-.8c-.3,-.3,-.6,-.6,-.9,-.8c-.3,-.2,-.7,-.4,-1.1,-.5c-.9,1,-1.9,1.9,-3.1,2.7c-1.2,.8,-2.5,1.6,-3.8,2.2l-1,-1.8c2.3,-1,4.1,-2.2,5.5,-3.6c1.4,-1.4,2.4,-3,3.1,-4.7c.1,-.3,.1,-.5,0,-.6c-.1,-.1,-.3,-.2,-.6,-.2h-7.1v-1.8ZM318,186.6c-.8,-.8,-1.8,-1.2,-3,-1.2c-1.2,0,-2.2,.4,-3,1.2c-.8,.8,-1.2,1.7,-1.2,2.9c0,1.2,.4,2.1,1.2,2.9c.8,.7,1.8,1.1,3,1.1c1.2,0,2.2,-.4,3,-1.1c.8,-.8,1.1,-1.7,1.1,-2.9c0,-1.2,-.3,-2.1,-1.1,-2.9Zm20.8,-13.5c0,.5,-.1,.9,-.1,1.3c-.1,.4,-.1,.7,-.2,1.1c.8,.1,1.5,.3,2.2,.6c.6,.2,1.2,.5,1.7,1c.4,.3,.8,.6,1.2,1c.4,.3,.8,.7,1.3,1.1c.4,.4,.9,.9,1.3,1.3c.5,.4,1,.9,1.4,1.3l-1.4,1.6c-.8,-.9,-1.8,-1.7,-2.7,-2.6c-.9,-.8,-1.7,-1.5,-2.4,-2.1c-.4,-.3,-.9,-.5,-1.3,-.8c-.5,-.3,-1.2,-.4,-2,-.6c-.3,.6,-.7,1.1,-1.1,1.5c-.4,.5,-.8,1,-1.3,1.4c-.8,.6,-1.7,1.3,-2.7,1.8c-1,.6,-2,1.1,-3.1,1.5l-.8,-2.1c1.1,-.3,2,-.8,2.9,-1.2c.9,-.5,1.7,-1.1,2.3,-1.6c.9,-.8,1.5,-1.6,1.9,-2.5c.4,-.8,.6,-1.9,.6,-3.1v-.5c0,-.2,-.1,-.5,-.1,-.8c0,-.4,-.1,-.7,-.2,-1l2.3,-.6c.1,.3,.1,.6,.2,1c0,.4,.1,.8,.1,1.2v.8Zm.5,8.9v5.9h9.5v1.9H327.5v-1.9H337V182h2.3Zm23.8,5.9v-4.8h-3.7v-1.8h3.9c-.4,-.5,-.6,-1.1,-.7,-1.6c-.1,-.6,-.1,-1.2,-.1,-1.8v-3.8h2.1V178c0,.6,.1,1.2,.2,1.8c.1,.5,.3,1.1,.6,1.5h5.1c.2,-.5,.4,-1,.5,-1.6c.1,-.6,.1,-1.2,.1,-1.8v-3.8h2.2v3.7c0,.6,0,1.2,-.1,1.7c-.1,.6,-.4,1.2,-.7,1.8h3.8v1.8h-3.6v4.8h6v1.9H357.4v-1.9h5.7Zm-3.4,-17h16.4v1.9H359.7v-1.9Zm5.6,17h5.2v-4.8h-5.2v4.8Zm15.2,-2.1c1.2,-.8,2.3,-1.7,3.4,-2.7c1.1,-.9,2,-2,2.9,-3c.8,-1.1,1.5,-2.1,2.1,-3.2c.5,-1.1,.9,-2.2,1,-3.2c.1,-.3,0,-.4,-.1,-.5c-.1,-.1,-.3,-.2,-.5,-.2h-8v-1.8h9.1c.9,0,1.4,.3,1.6,.8c.2,.5,.3,1.1,.2,1.7c-.2,1.1,-.5,2.1,-.9,3.1c-.5,1.1,-1,2.1,-1.7,3.1c.6,.2,1.1,.4,1.5,.6c.4,.3,.8,.6,1.1,1c.5,.7,1.1,1.5,1.7,2.4c.7,.8,1.2,1.6,1.7,2.3l-1.7,1.3c-.6,-.9,-1.2,-1.7,-1.8,-2.6c-.6,-.8,-1.2,-1.5,-1.6,-2c-.2,-.3,-.5,-.6,-.8,-.8c-.3,-.3,-.7,-.5,-1.3,-.7c-.9,1.2,-1.9,2.2,-3,3.3c-1.2,1,-2.4,2,-3.6,2.9l-1.3,-1.8Zm17.9,-15.6h2.3v22.6h-2.3V170.2ZM427.5,178.9h-4.3v7.9H421v-5.4c-1.1,.5,-2.1,.8,-3,.9c-1,.2,-1.9,.2,-2.7,.2H403.8v-1.7h3.3c-.3,-.6,-.5,-1.1,-.6,-1.6c-.1,-.4,-.1,-1,-.1,-1.6v-3.8h2.2v3.9c0,.5,0,.9,.1,1.4c.1,.5,.2,1.1,.5,1.7h3.6c.1,-.6,.3,-1.1,.4,-1.6c.1,-.5,.1,-1,.1,-1.5v-3.9h2.2v3.9c0,.5,0,1,-.2,1.5c-.1,.5,-.2,1,-.4,1.6h.4c.7,0,1.6,-.1,2.6,-.3c1,-.1,2,-.5,3.1,-1v-9.6h2.2V177h4.3v1.9Zm-17,15.4c-.8,0,-1.5,-.2,-1.8,-.5c-.4,-.4,-.6,-.9,-.6,-1.6v-6.4h2.2v5.9c0,.3,.1,.5,.2,.6c.1,.2,.3,.2,.7,.2h7.1c1,0,2,0,2.8,-.1c.9,-.2,1.8,-.4,2.7,-.7l.5,1.7c-1.1,.4,-2.1,.6,-3,.7c-.9,.2,-1.9,.2,-2.9,.2h-7.9ZM404,170.6h13.6v1.8H404v-1.8Z" class="g1_265"/>
<image clip-path="url(#c1_265)" preserveAspectRatio="none" x="217" y="677" width="590" height="103" xlink:href="img/2.png"/>
<image clip-path="url(#c2_265)" preserveAspectRatio="none" x="181" y="210" width="655" height="84" xlink:href="img/3.png"/>
<path d="M227.8,298.1c0,0,-8.6,0,-8.6,8.7v34.7c0,0,0,8.6,8.6,8.6h99.6c0,0,8.7,0,8.7,-8.6V306.8c0,0,0,-8.7,-8.7,-8.7Z" class="g0_265"/>
<path d="M379.2,298.1c0,0,-8.7,0,-8.7,8.7v34.7c0,0,0,8.6,8.7,8.6H487.5c0,0,8.6,0,8.6,-8.6V306.8c0,0,0,-8.7,-8.6,-8.7Z" class="g0_265"/>
<path d="M544.4,298.1c0,0,-8.7,0,-8.7,8.7v34.7c0,0,0,8.6,8.7,8.6H644c0,0,8.7,0,8.7,-8.6V306.8c0,0,0,-8.7,-8.7,-8.7Z" class="g0_265"/>
<path d="M692.5,298.1c0,0,-8.6,0,-8.6,8.7v34.7c0,0,0,8.6,8.6,8.6H805.1c0,0,8.7,0,8.7,-8.6V306.8c0,0,0,-8.7,-8.7,-8.7Z" class="g0_265"/>
<image clip-path="url(#c3_265)" preserveAspectRatio="none" x="181" y="356" width="655" height="83" xlink:href="img/4.png"/>
<path d="M225.7,442.8c0,0,-8.7,0,-8.7,8.7v34.6c0,0,0,8.7,8.7,8.7H333.9c0,0,8.7,0,8.7,-8.7V451.5c0,0,0,-8.7,-8.7,-8.7Z" class="g0_265"/>
<path d="M365.5,442.8c0,0,-8.6,0,-8.6,8.7v34.6c0,0,0,8.7,8.6,8.7H508c0,0,8.7,0,8.7,-8.7V451.5c0,0,0,-8.7,-8.7,-8.7Z" class="g0_265"/>
<path d="M540.5,442.8c0,0,-8.7,0,-8.7,8.7v34.6c0,0,0,8.7,8.7,8.7H644c0,0,8.7,0,8.7,-8.7V451.5c0,0,0,-8.7,-8.7,-8.7Z" class="g0_265"/>
<path d="M699,442.8c0,0,-8.6,0,-8.6,8.7v34.6c0,0,0,8.7,8.6,8.7h99.6c0,0,8.7,0,8.7,-8.7V451.5c0,0,0,-8.7,-8.7,-8.7Z" class="g0_265"/>
<image clip-path="url(#c4_265)" preserveAspectRatio="none" x="181" y="503" width="655" height="145" xlink:href="img/5.png"/>
<path d="M227.8,589c0,0,-8.6,0,-8.6,8.6v34.7c0,0,0,8.6,8.6,8.6h99.6c0,0,8.7,0,8.7,-8.6V597.6c0,0,0,-8.6,-8.7,-8.6Z" class="g0_265"/>
<path d="M369.9,589c0,0,-8.7,0,-8.7,8.6v34.7c0,0,0,8.6,8.7,8.6H495.5c0,0,8.6,0,8.6,-8.6V597.6c0,0,0,-8.6,-8.6,-8.6Z" class="g0_265"/>
<path d="M523.2,589c0,0,-8.7,0,-8.7,8.6v34.7c0,0,0,8.6,8.7,8.6H669.6c0,0,8.6,0,8.6,-8.6V597.6c0,0,0,-8.6,-8.6,-8.6Z" class="g0_265"/>
<path d="M697.3,589c0,0,-8.7,0,-8.7,8.6v34.7c0,0,0,8.6,8.7,8.6h110c0,0,8.6,0,8.6,-8.6V597.6c0,0,0,-8.6,-8.6,-8.6Z" class="g0_265"/>
<path d="M625.8,1214.8c0,0,-4.4,0,-4.4,4.4V1230c0,0,0,4.3,4.4,4.3h30.3c0,0,4.3,0,4.3,-4.3v-10.8c0,0,0,-4.4,-4.3,-4.4Z" class="g2_265"/>
<path d="M612.6,1206v37.5m1.3,1H866.8m.9,-1.3v-37.6m-1.3,-1H613.5" class="g3_265"/>
<path d="M612.6,1243.9v.6h.6m254,0h.5v-.6m0,-38.7v-.6h-.5m-254,0h-.6v.6" class="g4_265"/>
<path d="M153.3,126.3v22.2L165,158.7V136.5Z" class="g5_265"/>
<path d="M153.3,109.5v39H851.1c0,0,16.8,0,16.8,-16.8v-5.4c0,0,0,-16.8,-16.8,-16.8Z" class="g2_265"/>
<path d="M207.2,115.7c0,-9.1,-7.9,-16.6,-17.7,-16.6c-9.8,0,-17.7,7.5,-17.7,16.6c0,2.7,.6,5.2,1.8,7.4c1.2,2.4,2.9,4.6,5,6.2c1.2,1,1.6,1.7,1.7,4.3v.6c0,3.3,2.7,5.9,5.9,5.9h6.6c3.2,0,5.8,-2.6,5.8,-5.9v-.6c.2,-2.6,.6,-3.3,1.8,-4.3c2.1,-1.6,3.8,-3.8,5,-6.2c1.2,-2.2,1.8,-4.7,1.8,-7.4Z" class="g6_265"/>
<path d="M207.2,115.7c0,-9.1,-7.9,-16.6,-17.7,-16.6c-9.8,0,-17.7,7.5,-17.7,16.6c0,2.7,.6,5.2,1.8,7.4c1.2,2.4,2.9,4.6,5,6.2c1.2,1,1.6,1.7,1.7,4.3v.6c0,3.3,2.7,5.9,5.9,5.9h6.6c3.2,0,5.8,-2.6,5.8,-5.9v-.6c.2,-2.6,.6,-3.3,1.8,-4.3c2.1,-1.6,3.8,-3.8,5,-6.2c1.2,-2.2,1.8,-4.7,1.8,-7.4Z" class="g7_265"/>
<path d="M194.6,147.4c0,2.8,-2.3,5.1,-5.1,5.1c-2.8,0,-5.1,-2.3,-5.1,-5.1c0,-2.8,2.3,-5.1,5.1,-5.1c2.8,0,5.1,2.3,5.1,5.1Z" class="g0_265"/>
<path d="M194.6,147.4c0,2.8,-2.3,5.1,-5.1,5.1c-2.8,0,-5.1,-2.3,-5.1,-5.1c0,-2.8,2.3,-5.1,5.1,-5.1c2.8,0,5.1,2.3,5.1,5.1Z" class="g7_265"/>
<path d="M182.1,140.2c0,1,.8,1.8,1.8,1.8h11.2c1,0,1.8,-.8,1.8,-1.8v-1.3H182.1Z" class="g0_265"/>
<path d="M182.1,140.2c0,1,.8,1.8,1.8,1.8h11.2c1,0,1.8,-.8,1.8,-1.8v-1.3H182.1v1.3Z" class="g7_265"/>
<path d="M196.9,143.2c0,.8,-.6,1.3,-1.3,1.3H183.4c-.8,0,-1.3,-.5,-1.3,-1.3c0,-.7,.5,-1.3,1.3,-1.3h12.2c.7,0,1.3,.6,1.3,1.3Z" class="g0_265"/>
<path d="M196.9,143.2c0,.8,-.6,1.3,-1.3,1.3H183.4c-.8,0,-1.3,-.5,-1.3,-1.3c0,-.7,.5,-1.3,1.3,-1.3h12.2c.7,0,1.3,.6,1.3,1.3Z" class="g7_265"/>
<path d="M196.9,145.8c0,.7,-.6,1.3,-1.3,1.3H183.4c-.8,0,-1.3,-.6,-1.3,-1.3c0,-.7,.5,-1.3,1.3,-1.3h12.2c.7,0,1.3,.6,1.3,1.3Z" class="g0_265"/>
<path d="M196.9,145.8c0,.7,-.6,1.3,-1.3,1.3H183.4c-.8,0,-1.3,-.6,-1.3,-1.3c0,-.7,.5,-1.3,1.3,-1.3h12.2c.7,0,1.3,.6,1.3,1.3Z" class="g7_265"/>
<path d="M215.5,128.7l8.3,10.4c.6,.7,1.8,.6,2.7,-.2c.9,-.7,1.2,-1.9,.7,-2.6l-8.9,-10.2Z" class="g8_265"/>
<path d="M215.5,128.7l8.3,10.4c.6,.7,1.8,.6,2.7,-.2c.9,-.7,1.2,-1.9,.7,-2.6l-8.9,-10.2l-2.8,2.6Z" class="g7_265"/>
<path d="M217.5,125.1c.5,.6,.3,1.8,-.7,2.6c-.9,.7,-2.1,.8,-2.6,.2c-.6,-.7,-.3,-1.9,.6,-2.6c.9,-.8,2.1,-.9,2.7,-.2Z" class="g9_265"/>
<path d="M217.5,125.1c.5,.6,.3,1.8,-.7,2.6c-.9,.7,-2.1,.8,-2.6,.2c-.6,-.7,-.3,-1.9,.6,-2.6c.9,-.8,2.1,-.9,2.7,-.2Z" class="g7_265"/>
<path d="M212.7,124.7l1.7,2c.3,.3,1,.3,1.5,-.1c.5,-.5,.7,-1.1,.4,-1.5l-1.7,-2Z" class="g0_265"/>
<path d="M212.7,124.7l1.7,2c.3,.3,1,.3,1.5,-.1c.5,-.5,.7,-1.1,.4,-1.5l-1.7,-2l-1.9,1.6Z" class="ga_265"/>
<path d="M214.8,122.9c.4,.5,.2,1.3,-.5,1.8c-.6,.5,-1.4,.6,-1.8,.1c-.4,-.4,-.2,-1.2,.5,-1.7c.6,-.6,1.4,-.6,1.8,-.2Z" class="g0_265"/>
<path d="M214.8,122.9c.4,.5,.2,1.3,-.5,1.8c-.6,.5,-1.4,.6,-1.8,.1c-.4,-.4,-.2,-1.2,.5,-1.7c.6,-.6,1.4,-.6,1.8,-.2Z" class="ga_265"/>
<path d="M216.4,105.4c4.8,5.7,4.1,14.2,-1.7,19c-5.7,4.8,-14.2,4,-19,-1.7c-4.8,-5.7,-4,-14.2,1.7,-19c5.7,-4.8,14.2,-4.1,19,1.7Z" class="g0_265"/>
<path d="M216.4,105.4c4.8,5.7,4.1,14.2,-1.7,19c-5.7,4.8,-14.2,4,-19,-1.7c-4.8,-5.7,-4,-14.2,1.7,-19c5.7,-4.8,14.2,-4.1,19,1.7Z" class="g7_265"/>
<path d="M214,107.4c3.5,4.2,3,10.5,-1.3,14.1c-4.2,3.5,-10.5,2.9,-14,-1.3c-3.5,-4.2,-3,-10.5,1.2,-14c4.2,-3.6,10.5,-3,14.1,1.2Z" class="gb_265"/>
<path d="M214,107.4c3.5,4.2,3,10.5,-1.3,14.1c-4.2,3.5,-10.5,2.9,-14,-1.3c-3.5,-4.2,-3,-10.5,1.2,-14c4.2,-3.6,10.5,-3,14.1,1.2Z" class="g7_265"/>
<path d="M213,110.6l-3.1,3m3.1,-.4l-3.1,3" class="gc_265"/>
<path d="M172.1,99l3.1,3.3m1.1,-5.9l1.2,3.9m-8.1,3l3.7,1.2" class="gd_265"/>
<path d="M185.8,106.1c1.2,1.2,.2,4.3,-2.2,6.7c-2.5,2.5,-5.5,3.5,-6.8,2.3c-1.2,-1.3,-.3,-4.3,2.2,-6.8c2.5,-2.5,5.5,-3.5,6.8,-2.2Z" class="g0_265"/>
<path d="M203.7,107.6c.6,.6,.1,1.9,-.9,3c-1.1,1,-2.4,1.5,-3,.9c-.5,-.5,-.1,-1.8,1,-2.9c1.1,-1.1,2.4,-1.5,2.9,-1Z" class="g0_265"/>
<path d="M154.1,1194.5h713V995.1h-713v199.4Z" class="ge_265"/>
<path d="M154.1,999.7v192.6m4.6,2.2H864.9m2.2,-4.5V997.4m-4.5,-2.3H156.4" class="gf_265"/>
<path d="M154.1,1194.5v0m713.1,0v0m0,-199.4v0m-713.1,0v0" class="gg_265"/>
<path d="M153.3,998.4V969.8c0,0,0,-8.7,8.7,-8.7H859.3c0,0,8.6,0,8.6,8.7v29.1Z" class="gh_265"/>
<path d="M255.2,1053.9c0,0,-2.1,0,-2.1,2.2v17.3c0,0,0,2.2,2.1,2.2h18.2c0,0,2.2,0,2.2,-2.2v-17.3c0,0,0,-2.2,-2.2,-2.2Z" class="gi_265"/>
<path d="M282.5,1053.9c0,0,-2.2,0,-2.2,2.2v17.3c0,0,0,2.2,2.2,2.2h18.2c0,0,2.1,0,2.1,-2.2v-17.3c0,0,0,-2.2,-2.1,-2.2Z" class="gi_265"/>
<path d="M203.1,1085.5c0,0,-2.1,0,-2.1,2.2V1105c0,0,0,2.1,2.1,2.1h18.2c0,0,2.2,0,2.2,-2.1v-17.3c0,0,0,-2.2,-2.2,-2.2Z" class="gi_265"/>
<path d="M230.4,1085.5c0,0,-2.2,0,-2.2,2.2V1105c0,0,0,2.1,2.2,2.1h18.2c0,0,2.1,0,2.1,-2.1v-17.3c0,0,0,-2.2,-2.1,-2.2Z" class="gi_265"/>
<path d="M257.6,1085.5c0,0,-2.1,0,-2.1,2.2V1105c0,0,0,2.1,2.1,2.1h18.2c0,0,2.2,0,2.2,-2.1v-17.3c0,0,0,-2.2,-2.2,-2.2Z" class="gi_265"/>
<path d="M203.1,1140c0,0,-2.1,0,-2.1,2.1v17.4c0,0,0,2.1,2.1,2.1h18.2c0,0,2.2,0,2.2,-2.1v-17.4c0,0,0,-2.1,-2.2,-2.1Z" class="gi_265"/>
<path d="M230.4,1140c0,0,-2.2,0,-2.2,2.1v17.4c0,0,0,2.1,2.2,2.1h18.2c0,0,2.1,0,2.1,-2.1v-17.4c0,0,0,-2.1,-2.1,-2.1Z" class="gi_265"/>
<path d="M257.6,1140c0,0,-2.1,0,-2.1,2.1v17.4c0,0,0,2.1,2.1,2.1h18.2c0,0,2.2,0,2.2,-2.1v-17.4c0,0,0,-2.1,-2.2,-2.1Z" class="gi_265"/>
<path d="M284.9,1140c0,0,-2.2,0,-2.2,2.1v17.4c0,0,0,2.1,2.2,2.1h18.2c0,0,2.1,0,2.1,-2.1v-17.4c0,0,0,-2.1,-2.1,-2.1Z" class="gi_265"/>
<path d="M199.6,978.9c-.1,.1,-.2,.1,-.3,.1c-.2,0,-.3,0,-.4,-.1l-12.4,-5.3v12.6c.9,.2,1.8,.4,2.7,.6c3.3,.7,6.6,1.5,10.1,1.5c3.4,0,6.8,-.8,10,-1.5c.9,-.2,1.8,-.4,2.7,-.6V973.6Z" class="gj_265"/>
<path d="M178.3,968.1l21,8.9l20.9,-8.9l-20.9,-9Z" class="g6_265"/>
<path d="M223,967.2l-23.4,-10c-.2,-.1,-.5,-.1,-.7,0l-23.3,10c-.4,.1,-.6,.5,-.6,.9c0,.3,.2,.7,.6,.8l9,3.9V987c0,.4,.4,.8,.8,.9c1.1,.2,2.2,.5,3.4,.7c3.3,.8,6.8,1.6,10.5,1.6c3.6,0,7.1,-.8,10.5,-1.6c1.1,-.2,2.2,-.5,3.3,-.7c.5,-.1,.8,-.5,.8,-.9V972.8l3.2,-1.4v17c-1.6,.4,-2.8,1.9,-2.8,3.6v5.2c0,2.1,1.7,3.8,3.8,3.8c2,0,3.7,-1.7,3.7,-3.8V992c0,-1.7,-1.2,-3.2,-2.8,-3.6V970.6l4,-1.7c.3,-.1,.5,-.5,.5,-.8c0,-.4,-.2,-.8,-.5,-.9M220,992v3.4q-.1,-.1,-.2,-.1h-3.6V992c0,-1,.8,-1.8,1.9,-1.8c1,0,1.9,.8,1.9,1.8m-1.9,7.1c-1.1,0,-1.9,-.8,-1.9,-1.9v-.9h3.6q.1,0,.2,0v.9c0,1.1,-.9,1.9,-1.9,1.9M199.3,977l-21,-8.9l21,-9l20.9,9Zm10,9.8c-3.2,.7,-6.6,1.5,-10,1.5c-3.5,0,-6.8,-.8,-10.1,-1.5c-.9,-.2,-1.8,-.4,-2.7,-.6V973.6l12.4,5.3c.1,.1,.2,.1,.4,.1c.1,0,.2,0,.3,-.1L212,973.6v12.6c-.9,.2,-1.8,.4,-2.7,.6Z" class="gk_265"/>
<path d="M219.8,996.3h-3.6v.9c0,1.1,.8,1.9,1.9,1.9c1,0,1.9,-.8,1.9,-1.9v-.9q-.1,0,-.2,0Z" class="g0_265"/>
<path d="M218.1,990.2c-1.1,0,-1.9,.8,-1.9,1.8v3.3h3.6q.1,0,.2,.1V992c0,-1,-.9,-1.8,-1.9,-1.8Z" class="g0_265"/>
<path d="M32.1,45.1H9.2m958.3,0h22.9M32.1,1331.3H9.2m958.3,0h22.9M45.1,32.1V9.2m0,1335.1v22.9M954.5,32.1V9.2m0,1335.1v22.9" class="gl_265"/>
<path d="M32.1,45.1H9.2m958.3,0h22.9M32.1,1331.3H9.2m958.3,0h22.9M45.1,32.1V9.2m0,1335.1v22.9M954.5,32.1V9.2m0,1335.1v22.9" class="gm_265"/>
<path d="M27.5,32.1H0m972.1,0h27.5M27.5,1344.3H0m972.1,0h27.5M32.1,27.5V0m0,1348.9v27.5M967.5,27.5V0m0,1348.9v27.5" class="gl_265"/>
<path d="M27.5,32.1H0m972.1,0h27.5M27.5,1344.3H0m972.1,0h27.5M32.1,27.5V0m0,1348.9v27.5M967.5,27.5V0m0,1348.9v27.5" class="gm_265"/>
</svg>