<?xml version="1.0" encoding="UTF-8" standalone="no"?>
<!DOCTYPE svg PUBLIC "-//W3C//DTD SVG 1.1//EN"
"http://www.w3.org/Graphics/SVG/1.1/DTD/svg11.dtd">
<svg viewBox="0 0 999 1376" version="1.1" xmlns="http://www.w3.org/2000/svg" xmlns:xlink="http://www.w3.org/1999/xlink">
<defs>
<clipPath id="c0_219"><path d="M32.1,1344.3V32.1H967.5V1344.3Z"/></clipPath>
<clipPath id="c1_219"><path d="M146.8,497.8v-302H878.3v302Z"/></clipPath>
<clipPath id="c2_219"><path d="M146.8,1206.5V1033.8H878.3v172.7Z"/></clipPath>
<clipPath id="c3_219"><path d="M682.7,178.5V64.7H865.1V178.5Z"/></clipPath>
<clipPath id="c4_219"><path d="M494.4,899.6c-8.7,0,-8.7,-8.7,-8.7,-8.7V808.6c0,-8.6,8.7,-8.6,8.7,-8.6H601.3v99.6Z"/></clipPath>
<clipPath id="c5_219"><path d="M494.4,899.6c-8.7,0,-8.7,-8.7,-8.7,-8.7V808.6c0,-8.6,8.7,-8.6,8.7,-8.6H628.6c8.7,0,8.7,8.6,8.7,8.6v82.3c0,8.7,-8.7,8.7,-8.7,8.7Z"/></clipPath>
<clipPath id="c6_219"><path d="M236,898.9c-6.9,0,-6.9,-6.9,-6.9,-6.9V806.2c0,-6.9,6.9,-6.9,6.9,-6.9H373.8c6.9,0,6.9,6.9,6.9,6.9V892c0,6.9,-6.9,6.9,-6.9,6.9Z"/></clipPath>
<clipPath id="c7_219"><path d="M251.3,768.2V684.5H358.6v83.7Z"/></clipPath>
<clipPath id="c8_219"><path d="M509.5,776.1V677.9h104v98.2Z"/></clipPath>
<style type="text/css"><![CDATA[
.g0_219{
fill: #FEFCF4;
}
.g1_219{
fill: #59816A;
}
.g2_219{
fill: #FFF;
}
.g3_219{
fill: none;
stroke: #FFF;
stroke-width: 2.381;
}
.g4_219{
fill: none;
stroke: #231F20;
stroke-width: 1.527;
}
.g5_219{
fill: none;
stroke: #6381B7;
stroke-width: 0.763;
}
.g6_219{
fill: #6381B7;
}
.g7_219{
fill: none;
stroke: #6381B7;
stroke-width: 0.381;
stroke-dasharray: 2,1;
}
.g8_219{
fill: none;
stroke: #6381B7;
stroke-width: 0.381;
}
.g9_219{
fill: #FEF8F8;
}
.ga_219{
fill: none;
stroke: #A164A9;
stroke-width: 1.527;
stroke-linecap: round;
stroke-linejoin: round;
stroke-dasharray: 0,5;
}
.gb_219{
fill: none;
stroke: #A164A9;
stroke-width: 1.527;
stroke-linecap: round;
stroke-linejoin: round;
}
.gc_219{
fill: #A164A9;
}
.gd_219{
fill: none;
stroke: #FFF79A;
stroke-width: 1.527;
}
.ge_219{
fill: none;
stroke: #949698;
stroke-width: 1.384;
}
.gf_219{
fill: none;
stroke: #949698;
stroke-width: 1.222;
}
.gg_219{
fill: none;
stroke: #949698;
stroke-width: 1.527;
}
.gh_219{
fill: none;
stroke: #FFF;
stroke-width: 1.909;
stroke-miterlimit: 10;
}
.gi_219{
fill: none;
stroke: #000;
stroke-width: 0.381;
stroke-miterlimit: 10;
}
]]></style>
</defs>
<path clip-path="url(#c0_219)" d="M-877.3,1344.3H45.1V32.1H-877.3V1344.3Z" class="g0_219"/>
<path d="M45.1,1344.3H967.5V32.1H45.1V1344.3Z" class="g0_219"/>
<path clip-path="url(#c0_219)" d="M867.9,163c0,0,30.3,0,30.3,-30.3v-4.4c0,0,0,-30.3,-30.3,-30.3H-746.6c0,0,-30.3,0,-30.3,30.3v4.4c0,0,0,30.3,30.3,30.3Z" class="g1_219"/>
<image clip-path="url(#c1_219)" preserveAspectRatio="none" x="147" y="196" width="731" height="302" xlink:href="img/1.png"/>
<path d="M170.7,202.4c0,0,-17.4,0,-17.4,17.3V470.1c0,0,0,17.3,17.4,17.3H850.6c0,0,17.3,0,17.3,-17.3V219.7c0,0,0,-17.3,-17.3,-17.3Z" class="g2_219"/>
<path d="M303.3,222.2c-1.6,-1.7,-3.3,-2.6,-5.1,-2.6c-.6,0,-1.3,.3,-2.1,.9c-.7,.6,-1.1,1.2,-1.1,1.9c0,.2,.1,.5,.3,.7l.6,.6h-2.2l.8,.8h1.3v8.1l.8,.9v-9h1.5l-.9,-.8h-.9l-.3,-.8c0,-.6,.4,-1.2,1.1,-1.7c.7,-.4,1.3,-.7,1.9,-.7c.5,0,.9,.1,1.3,.2c.4,.1,.8,.3,1.1,.5c.5,.2,.8,.5,1.2,.7c.3,.2,.6,.5,.8,.7l-.1,-.4Zm3.5,2.3l-.8,-.8h-9.2l.9,.8h6.8v2.4c-.4,-1,-.9,-1.4,-1.6,-1.4c-.2,0,-.4,.1,-.7,.3c-.2,.2,-.3,.5,-.3,.7c-.6,-.7,-1.2,-1.1,-1.9,-1.1c-.6,0,-1,.3,-1.4,.8c-.3,.5,-.4,1.1,-.4,1.7c0,.3,0,.7,.1,1c.1,.3,.3,.5,.5,.7c.2,.3,.5,.4,.8,.5c.3,.1,.6,.2,1,.2c.4,0,.7,-.1,1,-.4c.2,-.2,.3,-.4,.3,-.8c0,-.8,-.4,-1.2,-1.1,-1.3c-.3,0,-.5,.1,-.7,.3c-.2,.2,-.3,.4,-.3,.7c0,.2,.1,.4,.3,.7c-.8,-.1,-1.2,-.5,-1.2,-1.2c0,-.2,0,-.4,.1,-.6c.1,-.2,.2,-.4,.4,-.6c.1,-.1,.3,-.2,.5,-.3c.2,-.1,.4,-.1,.6,-.1c.4,0,.9,.1,1.2,.4c.4,.3,.6,.7,.7,1.1l.3,-.1c0,-.2,-.1,-.4,-.1,-.5c0,-.6,.3,-.9,.8,-.9c.2,0,.5,.1,.7,.3c.2,.3,.3,.5,.3,.8v4.9l.9,.8v-9h1.5Zm4.2,-.8h-5.5l.8,.8H309c-1.1,1.4,-1.7,2.9,-1.7,4.4c0,1,.2,2,.6,2.8c.5,1,1.3,1.5,2.3,1.5c.2,0,.3,0,.5,-.1c.2,-.1,.4,-.2,.5,-.3c.1,-.1,.3,-.3,.3,-.5c.1,-.1,.2,-.3,.2,-.5c0,-.4,-.1,-.7,-.3,-.9c-.2,-.2,-.5,-.3,-.8,-.3c-.2,0,-.4,0,-.7,.2c-.2,.2,-.3,.4,-.3,.7c0,.2,.1,.3,.1,.5c.1,.2,.3,.3,.5,.4c-.6,.2,-1.1,-.1,-1.6,-.9c-.3,-.5,-.5,-1,-.5,-1.6c0,-.7,.1,-1.4,.2,-1.9c.2,-.6,.4,-1.1,.7,-1.5c.3,-.5,.7,-.9,1.2,-1.3c.4,-.3,.9,-.5,1.6,-.7l-.8,-.8Zm9.3,.8l-.8,-.8h-8.9c.2,.2,.4,.4,.6,.6c.2,.2,.3,.3,.4,.3c.2,.2,.4,.4,.6,.5c.2,.1,.4,.1,.6,.2c.3,.1,.6,.2,.9,.2c.2,.1,.4,.2,.5,.3c.2,.1,.3,.3,.4,.5c.1,.3,.1,.6,.2,1c-.3,.4,-.5,.7,-.7,.9c-.2,.2,-.3,.4,-.4,.5c-.2,.2,-.2,.3,-.3,.3c-.1,0,-.1,.1,-.2,.1c-.1,0,-.2,-.1,-.3,-.2c-.1,0,-.2,-.1,-.3,-.3c0,-.1,-.1,-.2,-.1,-.3c-.1,-.2,-.1,-.3,-.1,-.4l-.6,.5c.1,.2,.2,.4,.3,.6c.2,.3,.3,.5,.5,.7c.1,.2,.3,.3,.5,.4c.2,.2,.4,.2,.7,.2c.1,0,.2,0,.3,0c.1,-.1,.2,-.2,.4,-.3c.1,-.1,.3,-.3,.5,-.6c.2,-.3,.4,-.7,.7,-1.2c.3,-.4,.6,-.7,.9,-.7c.3,-.1,.5,0,.7,.3c.2,.2,.4,.6,.5,1.1c.2,.5,.2,1.1,.2,1.8v.2c0,.1,0,.2,0,.4c0,.1,0,.3,0,.5c0,.2,0,.5,0,.8c.1,.1,.2,.3,.4,.5c.1,.1,.2,.3,.4,.4v-9h1.5Zm-2.3,3c-.3,-.4,-.5,-.6,-.7,-.9c-.2,-.2,-.4,-.3,-.6,-.4c-.2,-.1,-.4,-.1,-.7,0c-.2,.1,-.5,.3,-.7,.6c0,-.4,-.1,-.8,-.3,-1.2c-.2,-.3,-.5,-.7,-.9,-1.1H318v3Zm10.6,-5.3c-1.6,-1.7,-3.2,-2.6,-5,-2.6c-.7,0,-1.4,.3,-2.1,.9c-.8,.6,-1.1,1.2,-1.1,1.9c0,.2,.1,.5,.3,.7l.6,.6h-2.2l.8,.8h1.2v8.1l.9,.9v-9h1.4l-.8,-.8h-.9l-.3,-.8c0,-.6,.4,-1.2,1.1,-1.7c.7,-.4,1.3,-.7,1.9,-.7c.4,0,.8,.1,1.2,.2c.4,.1,.8,.3,1.2,.5c.4,.2,.8,.5,1.1,.7c.3,.2,.6,.5,.9,.7l-.2,-.4Zm2.6,2.3l-.8,-.8h-8.1l.8,.8h5.8v4.8c-.9,-1.9,-1.9,-2.9,-3.1,-2.9c-.5,0,-1,.2,-1.4,.6c-.4,.4,-.6,.8,-.6,1.4c0,1.1,.5,1.6,1.6,1.6c.3,0,.6,-.1,.8,-.3c.2,-.3,.3,-.6,.3,-1c0,-.2,-.2,-.6,-.5,-1c0,-.1,.1,-.1,.2,-.1c.9,0,1.7,.6,2.3,1.8c.5,1,.7,2,.7,3l-.1,.9l.7,.4v-9.2h1.4Zm3.6,0c-.3,-.4,-.8,-.7,-1.3,-.7c-.5,0,-.9,.3,-1.3,.7c-.2,.2,-.3,.4,-.4,.6c-.1,.3,-.2,.5,-.2,.7c0,.6,.2,1.1,.6,1.5c.4,.4,.8,.6,1.4,.6c.5,0,.9,-.2,1.2,-.6c.4,-.4,.6,-.9,.6,-1.4c0,-.5,-.2,-1,-.6,-1.4Zm-.7,2.1c-.3,.3,-.7,.5,-1.1,.5c-.3,0,-.5,-.3,-.5,-.7c0,-.2,0,-.4,.1,-.6c.1,-.2,.2,-.4,.3,-.6c.3,-.3,.7,-.5,1.1,-.5c.4,0,.6,.3,.6,.8c0,.4,-.2,.8,-.5,1.1Zm1.9,6.2c-.5,-.7,-1.2,-1.5,-2,-2.4c-.8,-.8,-1.5,-1.6,-2.2,-2.1v1.9c.3,.2,.7,.4,1,.7c.4,.2,.7,.5,1.1,.8c.4,.3,.7,.6,1.1,.9c.3,.3,.7,.6,1,.9v-.7Zm14.1,-10.6c-1.6,-1.7,-3.3,-2.6,-5,-2.6c-.7,0,-1.4,.3,-2.1,.9c-.8,.6,-1.2,1.2,-1.2,1.9c0,.2,.1,.5,.4,.7l.5,.6h-2.2l.8,.8h1.3v8.1l.8,.9v-9h1.5l-.9,-.8h-.9l-.3,-.8c.1,-.6,.4,-1.2,1.2,-1.7c.6,-.4,1.2,-.7,1.9,-.7c.4,0,.8,.1,1.2,.2c.4,.1,.8,.3,1.2,.5c.4,.2,.8,.5,1.1,.7c.3,.2,.6,.5,.9,.7l-.2,-.4Zm2.9,6.7c0,-.6,-.1,-1,-.2,-1.4c-.2,-.3,-.4,-.5,-.7,-.6c.3,-.3,.4,-.8,.4,-1.3c0,-.5,-.1,-.9,-.4,-1.1h4.6l-.9,-.8H343.7l.8,.8h3.2c0,.4,-.1,.8,-.3,1.3c-.3,.4,-.6,.7,-.9,.7l-.8,-.6l-.4,.7l.7,.7c.2,.1,.3,.2,.5,.3c.1,0,.3,.1,.4,.1c.4,0,.8,-.3,1.1,-.9c.2,-.2,.3,-.5,.4,-.7c.1,-.2,.2,-.5,.3,-.7c0,.3,.1,.6,.3,.8c.2,.3,.4,.6,.8,.9c0,.1,.1,.1,.1,.1q.1,0,.1,.1c.1,0,.2,0,.2,0c-.1,.1,-.3,.2,-.4,.4c-.1,.1,-.2,.2,-.3,.4c-.1,.1,-.2,.3,-.3,.4c0,.2,-.1,.4,-.1,.5c-.1,.2,-.1,.4,-.1,.6c0,.2,0,.4,.1,.5c.1,.2,.2,.3,.3,.4c.1,.1,.3,.2,.4,.3c.2,.1,.4,.1,.5,.1c.3,0,.5,-.1,.7,-.3c.2,-.2,.3,-.4,.3,-.7c0,-.2,-.1,-.3,-.2,-.5c-.2,-.1,-.4,-.2,-.6,-.2h-.1c0,0,-.1,0,-.2,0c.3,-1,.7,-1.5,1.4,-1.5c.4,0,.5,.1,.5,.4v4.2c-.2,-.1,-.5,-.3,-.7,-.4c-.3,-.1,-.6,-.2,-1,-.2h-1.2c-.8,0,-1.3,-.2,-1.6,-.5c-.3,-.2,-.5,-.7,-.5,-1.2c0,-.1,0,-.2,0,-.3q0,-.1,0,-.2c0,-.1,.1,-.2,.1,-.3c0,-.1,0,-.2,.1,-.3l-.4,-.4c-.1,.4,-.2,.7,-.3,1c0,.3,0,.5,0,.8c0,.3,0,.7,.1,1c.1,.3,.2,.5,.4,.8c.2,.3,.5,.5,.7,.6c.3,.2,.6,.3,.9,.3c.2,0,.3,-.1,.5,-.1c.3,0,.5,0,.8,-.1c.3,0,.5,0,.7,0c.3,-.1,.4,-.1,.6,-.1c.4,0,.7,.2,.9,.5c.1,.1,.3,.4,.5,.9l.3,.2v-4c.2,-1.1,.7,-1.6,1.4,-1.6c.2,0,.5,.2,.7,.6q-.1,0,-.2,0c0,0,-.1,0,-.1,0c-.7,0,-1,.3,-1.1,.8c0,.3,.1,.5,.3,.6c.2,.2,.4,.3,.6,.3c.9,-.1,1.3,-.6,1.3,-1.6c0,-.2,0,-.4,-.1,-.5c-.1,-.2,-.2,-.4,-.3,-.5c-.1,-.2,-.2,-.3,-.4,-.4c-.1,0,-.3,-.1,-.5,-.1c-.7,0,-1.2,.3,-1.6,1Zm-3.9,-4.4h2.1l.3,.1c.2,.3,.3,.6,.3,.9c0,.5,-.4,.8,-1.2,.8c-.4,0,-.8,-.2,-1.1,-.5c-.3,-.4,-.4,-.8,-.4,-1.3Zm18.7,-.8h-1.3c.1,-.8,-.1,-1.5,-.7,-1.9c-.4,-.4,-1.1,-.6,-1.9,-.6c-.2,0,-.7,0,-1.3,.1c-.2,0,-.5,0,-.7,0c-.2,0,-.4,0,-.5,0c-.4,0,-.7,0,-.9,-.2c-.3,-.2,-.5,-.4,-.5,-.7c0,-.1,0,-.2,.1,-.3c0,-.1,.1,-.1,.1,-.2v-.3c-.2,0,-.4,.1,-.5,.3c-.1,.2,-.1,.5,-.1,.7c0,.6,.3,1.1,.9,1.4c.5,.4,1.1,.5,1.7,.5c.1,0,.3,0,.5,0c.2,0,.5,0,.7,0c.3,-.1,.5,-.1,.7,-.1c.2,0,.4,0,.5,0c.2,0,.3,0,.5,0c.1,.1,.3,.1,.4,.2c.2,.1,.4,.4,.4,.7c0,0,-.1,.2,-.1,.4h-3.7v2.7c-.1,-.3,-.3,-.5,-.5,-.7c-.1,-.2,-.3,-.5,-.5,-.7c-.6,-.6,-1.2,-.8,-1.8,-.8c-.3,0,-.6,0,-.9,.1c-.3,.1,-.6,.2,-.9,.4c-.7,.4,-1,.9,-1,1.4c0,.2,0,.3,.1,.5c.2,.1,.3,.2,.4,.2c.2,0,.4,0,.7,-.2c.2,-.1,.4,-.1,.6,-.1c.3,0,.5,.1,.5,.5c0,.2,-.2,.4,-.5,.7l-.6,.6l1.2,.4c.4,-.4,.8,-.8,1.2,-1.2c.5,-.5,.9,-.9,1.3,-1.3c.1,.3,.3,.5,.4,.7c.1,.2,.2,.3,.3,.5v2.1c0,2.1,.6,3.1,1.6,3c.4,0,.7,-.1,1.1,-.4c.4,-.3,.8,-.7,1.1,-1.1c.4,-.5,.6,-.9,.8,-1.4c.2,-.4,.3,-.9,.3,-1.3c0,-.4,-.2,-.8,-.4,-1.2c-.3,-.3,-.6,-.5,-1,-.5c-.4,0,-.7,.1,-.9,.4c-.2,.2,-.3,.5,-.3,.8c0,.3,.1,.5,.3,.7c.3,.2,.5,.3,.8,.3l.3,-.1c-.1,.5,-.4,1.1,-.9,1.7c-.6,.7,-1.1,1.1,-1.5,1.1c-.3,0,-.5,-.3,-.5,-.7v-6.3h5.7l-.8,-.8Zm-8.6,3.2c0,-.1,0,-.3,-.1,-.4c0,-.2,-.1,-.3,-.2,-.4c-.1,-.1,-.2,-.2,-.4,-.3c-.1,-.1,-.3,-.1,-.5,-.1c.3,-.5,.8,-.7,1.6,-.7q.1,0,.2,0c.1,0,.3,.1,.4,.1c.2,.1,.4,.2,.5,.3l-1.5,1.5Z" class="g3_219"/>
<path d="M197,230.2c0,0,-.5,-10,8.7,-9.3c0,0,6.7,-.4,6.7,9.4M197,228.8v6.5c0,0,-3.4,.3,-3.9,-3c0,0,-.1,-3.8,3.9,-3.5Zm15.4,0v6.5c0,0,3.4,.3,3.9,-3c0,0,.1,-3.8,-3.9,-3.5Z" class="g4_219"/>
<path d="M185.8,245.4H835.4" class="g5_219"/>
<path d="M630.1,507.8c0,0,-4.3,0,-4.3,4.3V523c0,0,0,4.3,4.3,4.3h30.3c0,0,4.3,0,4.3,-4.3V512.1c0,0,0,-4.3,-4.3,-4.3Z" class="g6_219"/>
<path d="M616.9,499v37.5m1.4,1H866.8m.9,-1.3V498.6m-1.3,-1H617.9" class="g7_219"/>
<path d="M616.9,536.9v.6h.6m249.6,0h.6v-.6m0,-38.7v-.6h-.6m-249.6,0h-.6v.6" class="g8_219"/>
<image clip-path="url(#c2_219)" preserveAspectRatio="none" x="147" y="1034" width="731" height="173" xlink:href="img/2.png"/>
<path d="M170.7,1040.4c0,0,-17.4,0,-17.4,17.3V1179c0,0,0,17.3,17.4,17.3H850.6c0,0,17.3,0,17.3,-17.3V1057.7c0,0,0,-17.3,-17.3,-17.3Z" class="g2_219"/>
<path d="M369,1062.5l-.8,-.9H360l.8,.9h5.7v.6c-1.8,.6,-3.5,1.5,-5.1,2.7l1.1,1.6c1.1,.1,2.1,.5,2.8,1.2c.2,.2,.4,.4,.6,.7c.3,.3,.4,.6,.6,.8c.1,.3,.2,.4,.2,.5c0,.1,.1,.2,.1,.3l.5,.6v-9H369Zm-2.5,6.7c-.8,-1.3,-1.9,-2.3,-3.4,-2.9c.6,-.4,1.2,-.8,1.8,-1.1c.5,-.2,1,-.5,1.6,-.7v4.7Zm10.6,-9.1c-1.6,-1.7,-3.3,-2.5,-5.1,-2.5c-.6,0,-1.3,.3,-2.1,.8c-.7,.6,-1.1,1.3,-1.1,2c0,.2,.1,.4,.3,.7l.6,.5h-2.2l.8,.9h1.3v8.1l.8,.8v-8.9h1.5l-.9,-.9h-.9l-.3,-.8c0,-.6,.4,-1.1,1.1,-1.6c.7,-.5,1.3,-.7,1.9,-.7c.5,0,.9,.1,1.3,.2c.4,.1,.8,.2,1.1,.5c.5,.2,.8,.4,1.2,.7c.3,.2,.6,.4,.8,.7l-.1,-.5Zm2.5,2.4l-.8,-.9h-1.6v1.2c-1.4,.9,-2.2,1.3,-2.3,1.3c-.3,0,-.6,-.1,-.9,-.2c-.2,-.2,-.3,-.4,-.3,-.7c0,-.2,0,-.4,.1,-.5c.1,.1,.2,.2,.3,.2c.1,.1,.2,.1,.3,.1c.3,0,.4,-.1,.6,-.2c.1,-.2,.1,-.3,.1,-.6c0,-.4,-.3,-.7,-1,-.7c-.4,0,-.7,.2,-1,.4c-.3,.3,-.4,.6,-.4,1c0,.3,0,.5,.1,.7c.1,.2,.3,.4,.4,.5c.4,.2,.8,.4,1.3,.4l-2.2,1.7l1,1.3c.5,.1,.9,.2,1.3,.3c.3,.1,.7,.3,1,.5c.4,.3,.8,.8,1.3,1.5c.1,.2,.3,.4,.4,.6c.1,.2,.2,.4,.3,.6l.5,.7v-9.2h1.5Zm-2.4,6.8c-.7,-1.3,-1.7,-2.2,-3.1,-2.9c.6,-.5,1.1,-.9,1.6,-1.2c.5,-.4,1,-.6,1.5,-.8v4.9Zm3.7,-12h-.7l-4.8,3.6h2l3.5,-3.6Zm7.4,4.3h-9.9l.9,.9h9.8l-.8,-.9Zm-.4,4c-.2,-.4,-.4,-.8,-.7,-1.2c-.3,-.3,-.6,-.6,-1,-.8c-.4,-.2,-.8,-.3,-1.3,-.3c-.5,0,-1,.2,-1.3,.5c-.5,.3,-.7,.8,-.7,1.3c0,.5,.2,.9,.4,1.2c.3,.3,.6,.5,1.1,.5c.8,0,1.3,-.4,1.3,-1.2c0,-.4,-.1,-.8,-.4,-1c.3,-.1,.5,-.2,.6,-.2c.5,0,.8,.3,1.1,.7c.3,.4,.4,.8,.4,1.3c0,.6,-.2,1.1,-.7,1.6c-.6,.4,-1.1,.7,-1.7,.7c-1.2,0,-2.3,-.7,-3.1,-2c-.2,-.2,-.4,-.7,-.7,-1.3c-.3,-.6,-.6,-1.3,-1,-2.2l-.5,-.1c1.3,4.6,3,6.9,5.2,6.9c.9,0,1.6,-.3,2.2,-.8c.3,-.3,.6,-.7,.8,-1c.1,-.4,.2,-.8,.2,-1.2c0,-.5,-.1,-.9,-.2,-1.4Zm15.9,-4H393.3l.8,.9h8.2v5.9l-1.1,-1.1c.1,-.4,.2,-.9,.2,-1.3c0,-.6,-.1,-1.1,-.4,-1.6c-.2,-.3,-.5,-.6,-.7,-.9c-.3,-.2,-.6,-.3,-1,-.5c-.2,0,-.4,-.1,-.6,-.1c-.5,0,-.9,.2,-1.4,.5c-.2,.2,-.3,.4,-.5,.6c-.1,.2,-.1,.4,-.1,.7c0,.2,0,.4,.1,.6c.2,.3,.5,.5,.9,.6c.4,0,.7,-.1,1,-.3c.1,-.1,.3,-.2,.4,-.4c.1,-.2,.1,-.4,.1,-.6c0,-.2,-.1,-.4,-.2,-.6c.1,-.1,.3,-.1,.5,-.1c.1,0,.3,.1,.5,.3c.1,.1,.2,.2,.3,.4c.2,.2,.3,.5,.3,.7c.1,.2,.1,.3,.1,.5c0,.4,-.1,.8,-.3,1.2c-.4,.6,-1,.9,-2,.9c-.4,0,-.8,-.1,-1.1,-.3c-.4,-.3,-.8,-.6,-1.1,-1c-.3,-.4,-.6,-.9,-.8,-1.5c-.2,-.6,-.4,-1.2,-.6,-1.9l-.5,-.2c.1,.7,.2,1.4,.4,2.1c.2,.6,.4,1.2,.7,1.6c.2,.4,.4,.7,.7,1.1c.2,.3,.5,.5,.8,.8c.3,.2,.6,.4,.8,.5c.3,.1,.6,.2,.9,.2c.5,0,.9,-.1,1.3,-.3c.4,-.2,.7,-.5,.9,-.9c1,.7,1.7,1.7,2,3.2l.3,.2v-9h1.6l-.9,-.9Zm8.7,.9l-.9,-.9h-8l.8,.9h5.8v4.7c-.9,-1.9,-1.9,-2.8,-3.1,-2.8c-.5,0,-1,.2,-1.5,.6c-.4,.3,-.6,.8,-.6,1.4c0,1.1,.6,1.6,1.6,1.6c.4,0,.7,-.1,.9,-.4c.2,-.2,.3,-.5,.3,-.9c0,-.2,-.2,-.6,-.6,-1.1c.1,0,.2,0,.3,-.1c.9,0,1.6,.6,2.3,1.8c.4,1.1,.7,2.1,.6,3.1v.9l.6,.4v-9.2h1.5Zm.3,12c0,-.1,-.1,-.2,-.2,-.3c0,-.2,-.2,-.3,-.3,-.5c-.2,-.3,-.4,-.5,-.7,-.7c-.2,-.3,-.4,-.5,-.7,-.7c.1,-.2,.1,-.5,.1,-.8c-.1,-.4,-.1,-.7,-.2,-.9l-.7,-.5c0,.4,.1,.7,.1,1.1c0,.3,0,.5,-.1,.7c-.5,-.4,-.9,-.5,-1.2,-.5c-.2,0,-.4,0,-.6,.1c-.2,.1,-.3,.2,-.5,.3c-.1,.1,-.2,.2,-.3,.4c-.1,.2,-.1,.4,-.1,.6c0,.4,.1,.7,.5,.9c.3,.3,.7,.4,1.1,.4c.7,-.1,1.2,-.4,1.7,-1c.1,.1,.3,.2,.5,.4c.2,.1,.4,.3,.6,.5c.2,.2,.4,.4,.6,.6c.1,.2,.3,.4,.4,.6v-.7Zm-3.3,-2.2c.1,.1,.2,.2,.3,.3c0,.1,-.2,.3,-.4,.5c-.3,.1,-.5,.1,-.8,.1c-.2,-.1,-.4,-.2,-.4,-.5c0,-.3,.3,-.5,.9,-.5c.1,0,.3,.1,.4,.1Zm11.9,-9.8l-.8,-.9c-.5,0,-.8,-.4,-.9,-1l-.5,-.5l.1,3.8c-.1,-.4,-.4,-.8,-.9,-1.4c-.4,-.6,-.8,-.9,-1.2,-.9c-.8,0,-1.5,.6,-2,1.8c-.1,-.5,-.4,-.9,-.8,-1.3c-.3,-.3,-.8,-.5,-1.2,-.5h-1.8l.9,.9c.1,0,.4,0,.9,0c.5,0,1,.4,1.4,1.1c-.2,0,-.4,.1,-.6,.3c-.1,.1,-.3,.3,-.4,.4c-.2,.2,-.3,.4,-.3,.6c-.1,.2,-.1,.4,-.1,.6c0,.3,.1,.6,.2,.8c.2,.3,.5,.4,.8,.4c.6,0,1.1,-.3,1.3,-1c.1,.3,.3,.5,.6,.7c.2,.2,.4,.3,.7,.3c.4,-.1,.6,-.2,.8,-.5c.2,-.2,.3,-.5,.3,-.9c0,-.4,-.4,-.9,-1.3,-1.5c0,-.2,.1,-.4,.3,-.6c.2,-.1,.4,-.2,.7,-.2c.3,0,.6,.3,1,.8c.4,.5,.6,1,.6,1.3l-.1,5.5l.9,.9v-9h1.4Zm3.3,0l-.8,-.9h-.8c-.8,-3,-2.6,-4.5,-5.3,-4.5c-.3,0,-.6,.1,-.9,.1c-.4,.1,-.7,.2,-1,.3c-.4,.2,-.7,.4,-.9,.6c-.2,.2,-.3,.5,-.3,.8c0,.3,.1,.5,.4,.8c.2,.2,.5,.4,.8,.5c.2,0,.4,0,.8,.1c.4,0,.9,.1,1.5,.2c.8,.1,1.3,.3,1.3,.6c0,.2,-.2,.5,-.4,.6h.8c.1,-.3,.1,-.5,.1,-.5c0,-.4,-.1,-.7,-.3,-1c-.2,-.3,-.6,-.5,-1,-.6c-.4,-.1,-1.2,-.2,-2.3,-.3c-.8,0,-1.3,-.2,-1.3,-.4c0,-.3,.4,-.6,1,-.7c.3,-.1,.5,-.1,.7,-.1c.3,-.1,.5,-.1,.7,-.1c2.8,0,4.4,1.2,4.8,3.6h-2.2l1,.9h1.2v8.1l.8,.8v-8.9h1.6Zm8.6,0l-.8,-.9h-9.2l.8,.9h6.8v2.3c-.3,-.9,-.8,-1.4,-1.5,-1.4c-.2,0,-.5,.1,-.7,.4c-.2,.2,-.3,.4,-.3,.7c-.6,-.7,-1.2,-1.1,-1.9,-1.1c-.6,0,-1,.2,-1.4,.8c-.3,.5,-.5,1,-.5,1.6c0,.4,.1,.7,.2,1c.1,.3,.3,.6,.5,.8c.2,.2,.5,.4,.8,.5c.3,.1,.6,.2,.9,.2c.5,-.1,.8,-.2,1,-.4c.3,-.2,.4,-.5,.4,-.8c0,-.8,-.4,-1.2,-1.2,-1.3c-.2,0,-.4,.1,-.6,.3c-.2,.2,-.3,.4,-.3,.7c0,.2,.1,.4,.3,.7c-.8,-.2,-1.2,-.6,-1.2,-1.3c0,-.2,0,-.4,.1,-.6c.1,-.2,.2,-.3,.3,-.5c.2,-.1,.4,-.2,.5,-.3c.2,-.1,.4,-.2,.6,-.2c.5,0,.9,.2,1.3,.5c.3,.3,.6,.7,.6,1.1l.4,-.1c-.1,-.2,-.1,-.4,-.1,-.6c0,-.5,.3,-.8,.7,-.8c.3,0,.6,.1,.8,.3c.2,.2,.3,.5,.3,.8v4.9l.9,.8v-9h1.5Zm4.1,-.9h-5.5l.9,.9h2.7c-1.2,1.4,-1.7,2.9,-1.7,4.3c0,1.1,.2,2.1,.6,2.9c.5,1,1.3,1.5,2.2,1.5c.2,0,.4,-.1,.6,-.1c.2,-.1,.3,-.2,.5,-.3c.1,-.2,.2,-.3,.3,-.5c.1,-.2,.1,-.4,.1,-.6c0,-.3,-.1,-.6,-.3,-.8c-.2,-.3,-.4,-.4,-.7,-.4c-.2,0,-.5,.1,-.7,.3c-.2,.2,-.3,.4,-.3,.7c0,.1,0,.3,.1,.5c.1,.1,.2,.3,.4,.4c-.5,.2,-1,-.2,-1.5,-.9c-.3,-.5,-.5,-1.1,-.5,-1.7c0,-.7,.1,-1.3,.2,-1.8c.2,-.6,.4,-1.1,.7,-1.6c.3,-.5,.7,-.9,1.1,-1.2c.5,-.3,1,-.6,1.6,-.7l-.8,-.9Zm8.5,.9l-.9,-.9h-8.1l.8,.9h5.9v4.7h-.1c-.8,-1.9,-1.9,-2.8,-3,-2.8c-.6,0,-1.1,.2,-1.5,.6c-.4,.3,-.6,.8,-.6,1.4c0,1.1,.6,1.6,1.6,1.6c.4,0,.6,-.1,.9,-.4c.2,-.2,.3,-.5,.3,-.9c0,-.2,-.2,-.6,-.6,-1.1q.1,0,.3,-.1c.8,0,1.6,.6,2.3,1.8c.4,1.1,.6,2.1,.6,3.1v.9l.6,.4v-9.2h1.5Zm7.8,0l-.8,-.9h-8.2l.8,.9h5.7v.6c-1.8,.6,-3.5,1.5,-5.1,2.7l1.1,1.6c1.1,.1,2.1,.5,2.8,1.2c.2,.2,.4,.4,.6,.7c.3,.3,.4,.5,.5,.7c.1,.2,.3,.5,.4,.9l.5,.6v-9h1.7Zm-2.5,6.7c-.8,-1.3,-1.9,-2.3,-3.4,-2.9c.6,-.4,1.2,-.8,1.8,-1.1c.5,-.2,1,-.5,1.6,-.7v4.7Zm-3.3,1.2c.2,.2,.4,.3,.6,.3c.3,0,.5,-.1,.6,-.3c.2,-.1,.3,-.3,.3,-.6c0,-.2,-.1,-.4,-.3,-.6c-.1,-.2,-.3,-.3,-.6,-.3c-.2,0,-.4,.1,-.6,.3c-.1,.2,-.2,.4,-.2,.6c0,.3,.1,.5,.2,.6Zm19.4,-10.3c-1.6,-1.7,-3.3,-2.5,-5.1,-2.5c-.6,0,-1.4,.3,-2.1,.8c-.7,.6,-1.1,1.3,-1.1,2c0,.2,.1,.4,.3,.7l.6,.5h-2.2l.8,.9h1.3v8.1l.8,.8v-8.9h1.5l-.9,-.9h-.9l-.3,-.8c0,-.6,.4,-1.1,1.1,-1.6c.7,-.5,1.3,-.7,1.9,-.7c.5,0,.9,.1,1.3,.2c.4,.1,.8,.2,1.1,.5c.5,.2,.8,.4,1.1,.7c.4,.2,.7,.4,.9,.7l-.1,-.5Zm3.5,2.4l-.8,-.9h-9.2l.9,.9h6.8v2.3c-.4,-.9,-.9,-1.4,-1.6,-1.4c-.2,0,-.4,.1,-.7,.4c-.2,.2,-.3,.4,-.3,.7c-.6,-.7,-1.2,-1.1,-1.9,-1.1c-.6,0,-1,.2,-1.4,.8c-.3,.5,-.5,1,-.5,1.6c0,.4,.1,.7,.2,1c.1,.3,.3,.6,.5,.8c.2,.2,.5,.4,.8,.5c.3,.1,.6,.2,1,.2c.4,-.1,.7,-.2,1,-.4c.2,-.2,.3,-.5,.3,-.8c0,-.8,-.4,-1.2,-1.1,-1.3c-.3,0,-.5,.1,-.7,.3c-.2,.2,-.3,.4,-.3,.7c0,.2,.1,.4,.3,.7c-.8,-.2,-1.2,-.6,-1.2,-1.3c0,-.2,0,-.4,.1,-.6c.1,-.2,.2,-.3,.4,-.5c.1,-.1,.3,-.2,.5,-.3c.2,-.1,.4,-.2,.6,-.2c.4,0,.8,.2,1.2,.5c.4,.3,.6,.7,.7,1.1l.3,-.1c0,-.2,-.1,-.4,-.1,-.6c0,-.5,.3,-.8,.7,-.8c.3,0,.6,.1,.8,.3c.2,.2,.3,.5,.3,.8v4.9l.9,.8v-9h1.5Zm4.2,-.9h-5.5l.8,.9H473c-1.1,1.4,-1.7,2.9,-1.7,4.3c0,1.1,.2,2.1,.6,2.9c.5,1,1.3,1.5,2.3,1.5c.1,0,.3,-.1,.5,-.1c.2,-.1,.4,-.2,.5,-.3c.1,-.2,.2,-.3,.3,-.5c.1,-.2,.1,-.4,.1,-.6c0,-.3,-.1,-.6,-.2,-.8c-.2,-.3,-.5,-.4,-.8,-.4c-.2,0,-.5,.1,-.7,.3c-.2,.2,-.3,.4,-.3,.7c0,.1,.1,.3,.1,.5c.1,.1,.3,.3,.5,.4c-.6,.2,-1.1,-.2,-1.6,-.9c-.3,-.5,-.5,-1.1,-.5,-1.7c0,-.7,.1,-1.3,.2,-1.8c.2,-.6,.4,-1.1,.7,-1.6c.3,-.5,.7,-.9,1.2,-1.2c.4,-.3,.9,-.6,1.6,-.7l-.8,-.9Zm9.3,.9l-.8,-.9h-8.9c.2,.3,.4,.5,.6,.7c.2,.1,.3,.3,.4,.3c.2,.2,.4,.3,.6,.4c.2,.1,.4,.2,.6,.3c.3,0,.6,.1,.9,.2c.2,.1,.4,.2,.5,.3c.2,.1,.3,.3,.4,.5c.1,.2,.1,.6,.2,1c-.3,.3,-.5,.6,-.7,.9c-.2,.2,-.3,.4,-.4,.5c-.2,.1,-.3,.2,-.3,.3q-.1,0,-.2,0c-.1,0,-.2,0,-.3,-.1c-.1,-.1,-.2,-.2,-.3,-.3c0,-.1,-.1,-.2,-.1,-.4c-.1,-.1,-.1,-.2,-.1,-.3l-.6,.5c.1,.2,.2,.4,.3,.6c.2,.2,.3,.4,.5,.6c.1,.2,.3,.4,.5,.5c.2,.1,.4,.2,.7,.2c.1,0,.2,0,.3,-.1c.1,0,.2,-.1,.3,-.2c.2,-.2,.4,-.4,.6,-.7c.2,-.2,.4,-.6,.7,-1.1c.3,-.4,.6,-.7,.9,-.8c.3,0,.5,.1,.7,.3c.2,.3,.4,.6,.5,1.2c.2,.5,.2,1.1,.2,1.7v.3c0,.1,0,.2,0,.3c0,.2,0,.4,0,.6c0,.2,0,.4,0,.7c.1,.2,.2,.4,.4,.5c.1,.2,.2,.3,.4,.5v-9h1.5Zm-2.3,2.9c-.3,-.3,-.5,-.6,-.7,-.8c-.2,-.2,-.4,-.4,-.6,-.4c-.2,-.1,-.4,-.1,-.7,0c-.2,.1,-.5,.3,-.7,.6c0,-.4,-.1,-.8,-.3,-1.2c-.2,-.3,-.5,-.7,-.9,-1.1H482v2.9Zm10.6,-5.3c-1.6,-1.7,-3.2,-2.5,-5,-2.5c-.7,0,-1.4,.3,-2.1,.8c-.8,.6,-1.1,1.3,-1.1,2c0,.2,.1,.4,.3,.7l.6,.5h-2.2l.8,.9h1.2v8.1l.9,.8v-8.9h1.4l-.8,-.9h-.9l-.3,-.8c0,-.6,.4,-1.1,1.1,-1.6c.6,-.5,1.3,-.7,1.9,-.7c.4,0,.8,.1,1.2,.2c.4,.1,.8,.2,1.2,.5c.4,.2,.8,.4,1.1,.7c.3,.2,.6,.4,.9,.7l-.2,-.5Zm2.6,2.4l-.9,-.9h-8l.8,.9h5.8v4.7c-.9,-1.9,-1.9,-2.8,-3.1,-2.8c-.5,0,-1,.2,-1.4,.6c-.4,.3,-.6,.8,-.6,1.4c0,1.1,.5,1.6,1.6,1.6c.3,0,.6,-.1,.8,-.4c.2,-.2,.3,-.5,.3,-.9c0,-.2,-.2,-.6,-.5,-1.1c0,0,.1,0,.2,-.1c.9,0,1.6,.6,2.3,1.8c.5,1.1,.7,2.1,.7,3.1l-.1,.9l.7,.4v-9.2h1.4Zm3.6,-.1c-.3,-.4,-.8,-.6,-1.3,-.6c-.5,0,-.9,.2,-1.3,.6c-.2,.2,-.4,.5,-.4,.7c-.1,.2,-.2,.5,-.2,.7c0,.6,.2,1.1,.6,1.5c.4,.4,.8,.6,1.4,.6c.5,0,.9,-.2,1.2,-.6c.4,-.4,.6,-.9,.6,-1.4c0,-.6,-.2,-1,-.6,-1.5Zm-.7,2.1c-.3,.4,-.7,.5,-1.1,.5c-.3,0,-.5,-.2,-.5,-.6c0,-.3,0,-.5,.1,-.6c.1,-.2,.2,-.4,.3,-.6c.3,-.3,.7,-.5,1.1,-.5c.4,0,.6,.2,.6,.7c0,.4,-.2,.8,-.5,1.1Zm1.9,6.3c-.5,-.7,-1.2,-1.5,-2,-2.4c-.8,-.9,-1.5,-1.6,-2.2,-2.1v1.9c.3,.2,.7,.4,1,.7c.4,.2,.7,.5,1.1,.8c.4,.2,.7,.5,1.1,.9c.3,.3,.7,.6,1,.9v-.7Zm14.1,-10.7c-1.6,-1.7,-3.3,-2.5,-5,-2.5c-.7,0,-1.4,.3,-2.2,.8c-.7,.6,-1.1,1.3,-1.1,2c0,.2,.1,.4,.3,.7l.6,.5h-2.2l.8,.9h1.3v8.1l.8,.8v-8.9h1.5l-.9,-.9h-.9l-.3,-.8c0,-.6,.4,-1.1,1.2,-1.6c.6,-.5,1.2,-.7,1.9,-.7c.4,0,.8,.1,1.2,.2c.4,.1,.8,.2,1.2,.5c.4,.2,.7,.4,1.1,.7c.3,.2,.6,.4,.9,.7l-.2,-.5Zm2.9,6.7c0,-.5,-.1,-1,-.2,-1.3c-.2,-.3,-.4,-.5,-.7,-.6c.3,-.3,.4,-.8,.4,-1.3c0,-.5,-.2,-.9,-.4,-1.1h4.6l-.9,-.9H507.7l.8,.9h3.2c0,.4,-.1,.8,-.3,1.2c-.3,.5,-.6,.8,-.9,.8l-.8,-.6l-.4,.6l.7,.7c.1,.2,.3,.3,.5,.3c.1,.1,.3,.2,.4,.2c.4,0,.8,-.3,1.1,-.9c.2,-.3,.3,-.5,.4,-.7c.1,-.3,.2,-.5,.2,-.7c.1,.2,.2,.5,.4,.8c.1,.3,.4,.6,.8,.9c0,0,.1,0,.1,.1q.1,0,.1,0q.1,.1,.2,.1c-.1,.1,-.3,.2,-.4,.3c-.1,.2,-.2,.3,-.3,.4c-.1,.2,-.2,.3,-.3,.5c0,.1,-.1,.3,-.1,.5c-.1,.2,-.1,.4,-.1,.6c0,.1,0,.3,.1,.5c.1,.1,.2,.3,.3,.4c.1,.1,.2,.2,.4,.3c.2,0,.3,.1,.5,.1c.3,0,.5,-.1,.7,-.3c.2,-.2,.3,-.4,.3,-.7c0,-.2,-.1,-.4,-.2,-.5c-.2,-.1,-.4,-.2,-.6,-.3c0,0,0,.1,-.1,.1c0,0,-.1,0,-.2,0c.3,-1,.7,-1.5,1.4,-1.5c.4,0,.5,.1,.5,.4v4.2c-.2,-.2,-.5,-.3,-.8,-.4c-.2,-.2,-.5,-.2,-.9,-.2h-1.2c-.8,0,-1.3,-.2,-1.6,-.5c-.3,-.3,-.5,-.7,-.5,-1.2c0,-.1,0,-.2,0,-.3c0,-.1,0,-.2,0,-.2c0,-.1,.1,-.2,.1,-.3c0,-.1,0,-.2,.1,-.3l-.4,-.4c-.2,.3,-.2,.7,-.3,.9c0,.3,-.1,.6,-.1,.8c0,.4,.1,.7,.2,1c.1,.3,.2,.6,.4,.9c.2,.2,.5,.5,.7,.6c.3,.1,.6,.2,.9,.2c.2,0,.3,0,.5,0c.2,0,.5,0,.8,-.1c.3,0,.5,-.1,.7,-.1c.2,0,.4,0,.6,0c.4,0,.7,.1,.9,.4c.1,.2,.3,.5,.5,1l.3,.2v-4c.2,-1.1,.7,-1.6,1.4,-1.6c.2,0,.5,.2,.7,.6q-.1,0,-.2,0c0,0,-.1,0,-.1,0c-.7,0,-1,.3,-1.1,.8c0,.2,.1,.4,.3,.6c.2,.2,.4,.2,.6,.2c.9,0,1.3,-.5,1.3,-1.5c0,-.2,0,-.4,-.1,-.6c-.1,-.2,-.2,-.3,-.3,-.5c-.1,-.1,-.2,-.2,-.4,-.3c-.1,-.1,-.3,-.1,-.5,-.1c-.7,0,-1.2,.3,-1.6,.9Zm-4,-4.3h2.2l.3,.1c.2,.2,.3,.5,.3,.8c0,.6,-.4,.9,-1.2,.9c-.4,0,-.8,-.2,-1.1,-.6c-.3,-.3,-.5,-.8,-.5,-1.2Zm18.8,-.9h-1.3c.1,-.8,-.1,-1.4,-.7,-1.8c-.4,-.4,-1.1,-.7,-1.9,-.7c-.3,0,-.7,.1,-1.3,.1c-.2,.1,-.5,.1,-.7,.1c-.2,0,-.4,0,-.5,0c-.4,0,-.7,-.1,-.9,-.2c-.3,-.2,-.5,-.4,-.5,-.7c0,-.1,0,-.2,.1,-.3c0,-.1,.1,-.2,.1,-.3v-.2c-.2,0,-.4,.1,-.5,.3c-.1,.2,-.1,.4,-.1,.7c0,.6,.3,1,.9,1.4c.5,.3,1.1,.5,1.7,.5c.1,0,.3,0,.5,0c.2,0,.5,-.1,.7,-.1c.3,0,.5,0,.7,0c.2,0,.4,-.1,.5,-.1c.2,0,.3,.1,.5,.1c.1,.1,.2,.1,.4,.2c.2,.1,.4,.3,.4,.6c0,.1,-.1,.2,-.1,.4h-3.7v2.8c-.1,-.3,-.3,-.5,-.5,-.8c-.1,-.2,-.3,-.4,-.5,-.6c-.7,-.6,-1.2,-.9,-1.8,-.9c-.3,0,-.6,.1,-.9,.2c-.3,0,-.6,.2,-.9,.4c-.7,.4,-1,.8,-1,1.4c0,.1,0,.3,.1,.5c.2,.1,.3,.2,.4,.2c.2,0,.4,-.1,.7,-.2c.2,-.1,.4,-.2,.6,-.2c.3,0,.5,.2,.5,.6c0,.1,-.2,.4,-.5,.7l-.6,.6l1.2,.4c.4,-.4,.8,-.8,1.2,-1.3c.5,-.4,.9,-.8,1.3,-1.2c.1,.2,.3,.5,.4,.6c.1,.2,.2,.4,.3,.5v2.1c0,2.2,.6,3.2,1.6,3.1c.4,0,.7,-.1,1.1,-.4c.4,-.3,.8,-.7,1.1,-1.1c.3,-.5,.6,-1,.8,-1.4c.2,-.5,.3,-.9,.3,-1.3c0,-.5,-.2,-.9,-.4,-1.2c-.3,-.3,-.6,-.5,-1.1,-.5c-.3,0,-.6,.1,-.8,.3c-.2,.2,-.3,.5,-.3,.9c0,.2,.1,.5,.3,.6c.3,.2,.5,.3,.8,.3h.3c-.1,.5,-.4,1.1,-.9,1.7c-.6,.7,-1.1,1,-1.5,1c-.3,0,-.5,-.2,-.5,-.6v-6.3h5.7l-.8,-.9Zm-8.6,3.3c0,-.2,0,-.3,-.1,-.5c0,-.1,-.1,-.2,-.2,-.4c-.1,-.1,-.2,-.2,-.4,-.2c-.1,-.1,-.3,-.1,-.5,-.1c.3,-.5,.8,-.8,1.6,-.8c.1,0,.1,.1,.2,.1c.1,0,.3,0,.4,.1c.2,.1,.4,.2,.5,.3l-1.5,1.5Z" class="g3_219"/>
<path d="M196.9,1068.1c0,0,-.5,-9.9,8.7,-9.3c0,0,6.7,-.4,6.7,9.5m-15.4,-1.5v6.5c0,0,-3.3,.3,-3.9,-3c0,0,-.1,-3.8,3.9,-3.5Zm15.4,0v6.5c0,0,3.4,.3,3.9,-3c0,0,.1,-3.8,-3.9,-3.5Z" class="g4_219"/>
<path d="M185.7,1083.4H835.3" class="g5_219"/>
<path d="M742.7,1215.5c0,0,-4.3,0,-4.3,4.3v9.1c0,0,0,4.3,4.3,4.3H773c0,0,4.3,0,4.3,-4.3v-9.1c0,0,0,-4.3,-4.3,-4.3Z" class="g6_219"/>
<path d="M729.5,1205.6v37.9m1.4,1H866.8m.9,-1.4v-37.9m-1.3,-1H730.5" class="g7_219"/>
<path d="M729.5,1243.9v.6h.6m137,0h.6v-.6m0,-39.1v-.6h-.6m-137,0h-.6v.6" class="g8_219"/>
<image clip-path="url(#c3_219)" preserveAspectRatio="none" x="683" y="65" width="182" height="113" xlink:href="img/3.png"/>
<path d="M154.1,1027.3h713V582.7h-713v444.6Z" class="g9_219"/>
<path d="M154.1,587.3V1025m4.6,2.3H864.9m2.2,-4.6V585m-4.5,-2.3H156.4" class="ga_219"/>
<path d="M154.1,1027.3v0m713.1,0v0m0,-444.6v0m-713.1,0v0" class="gb_219"/>
<path d="M153.3,597V558.7c0,0,0,-8.7,8.7,-8.7H859.3c0,0,8.6,0,8.6,8.7v39Z" class="gc_219"/>
<path d="M794,575.1c0,0,-.5,-9.9,8.6,-9.3c0,0,6.8,-.4,6.7,9.5m-15.4,-1.6v6.5c0,0,-3.3,.4,-3.9,-3c0,0,-.1,-3.7,3.9,-3.5Zm15.4,0v6.5c0,0,3.4,.4,4,-3c0,0,0,-3.7,-4,-3.5Z" class="gd_219"/>
<path d="M237.8,676.5c0,0,-8.7,0,-8.7,8.7v82.3c0,0,0,8.6,8.7,8.6H372c0,0,8.7,0,8.7,-8.6V685.2c0,0,0,-8.7,-8.7,-8.7Z" class="g2_219"/>
<path d="M494.4,676.5c0,0,-8.7,0,-8.7,8.7v82.3c0,0,0,8.6,8.7,8.6H628.6c0,0,8.7,0,8.7,-8.6V685.2c0,0,0,-8.7,-8.7,-8.7Z" class="g2_219"/>
<path d="M494.4,800c0,0,-8.7,0,-8.7,8.6v82.3c0,0,0,8.7,8.7,8.7H628.6c0,0,8.7,0,8.7,-8.7V808.6c0,0,0,-8.6,-8.7,-8.6Z" class="g2_219"/>
<image clip-path="url(#c4_219)" preserveAspectRatio="none" x="434" y="795" width="167" height="138" xlink:href="img/4.jpg"/>
<path clip-path="url(#c5_219)" d="M431,932.3H606.2V796.4H431V932.3Z" class="ge_219"/>
<path d="M494.4,859.3c0,0,-8.7,0,-8.7,8.7v22.9c0,0,0,8.7,8.7,8.7h33.3c0,0,8.7,0,8.7,-8.7V868c0,0,0,-8.7,-8.7,-8.7Z" class="g2_219"/>
<path d="M597,899.6h26.2V800H597v99.6Z" class="g2_219"/>
<g clip-path="url(#c6_219)">
<image preserveAspectRatio="none" x="229" y="782" width="153" height="122" xlink:href="img/5.jpg"/>
<path d="M227.5,903.2H382.2V783.1H227.5V903.2Z" class="gf_219"/>
</g>
<g clip-path="url(#c7_219)">
<image preserveAspectRatio="none" x="167" y="644" width="196" height="153" xlink:href="img/6.jpg"/>
<path d="M168.6,796H361.9V646H168.6V796Z" class="gg_219"/>
</g>
<image clip-path="url(#c8_219)" preserveAspectRatio="none" x="508" y="676" width="107" height="102" xlink:href="img/7.jpg"/>
<path d="M32.1,45.1H9.2m958.3,0h22.9M32.1,1331.3H9.2m958.3,0h22.9M45.1,32.1V9.2m0,1335.1v22.9M954.5,32.1V9.2m0,1335.1v22.9" class="gh_219"/>
<path d="M32.1,45.1H9.2m958.3,0h22.9M32.1,1331.3H9.2m958.3,0h22.9M45.1,32.1V9.2m0,1335.1v22.9M954.5,32.1V9.2m0,1335.1v22.9" class="gi_219"/>
<path d="M27.5,32.1H0m972.1,0h27.5M27.5,1344.3H0m972.1,0h27.5M32.1,27.5V0m0,1348.9v27.5M967.5,27.5V0m0,1348.9v27.5" class="gh_219"/>
<path d="M27.5,32.1H0m972.1,0h27.5M27.5,1344.3H0m972.1,0h27.5M32.1,27.5V0m0,1348.9v27.5M967.5,27.5V0m0,1348.9v27.5" class="gi_219"/>
</svg>