<?xml version="1.0" encoding="UTF-8" standalone="no"?>
<!DOCTYPE svg PUBLIC "-//W3C//DTD SVG 1.1//EN"
"http://www.w3.org/Graphics/SVG/1.1/DTD/svg11.dtd">
<svg viewBox="0 0 999 1376" version="1.1" xmlns="http://www.w3.org/2000/svg" xmlns:xlink="http://www.w3.org/1999/xlink">
<defs>
<clipPath id="c0_172"><path d="M32.1,1344.3V32.1H967.5V1344.3Z"/></clipPath>
<clipPath id="c1_172"><path d="M215.5,601.8V493.2H324.2V601.8Z"/></clipPath>
<clipPath id="c2_172"><path d="M215.4,475V378H324.7v97Z"/></clipPath>
<clipPath id="c3_172"><path d="M176.6,291.4l-6.5,-2.1L153.7,275.4V218.3h72v73.1Z"/></clipPath>
<clipPath id="c4_172"><path d="M176.6,704.2l-6.5,-2.1L153.7,688.2V631.1h72v73.1Z"/></clipPath>
<style type="text/css"><![CDATA[
.g0_172{
fill: #FEFCF4;
}
.g1_172{
fill: #F16865;
}
.g2_172{
fill: #FAC3B8;
}
.g3_172{
fill: #EE314A;
}
.g4_172{
fill: #26292E;
}
.g5_172{
fill: #C5CACC;
}
.g6_172{
fill: #FFF;
}
.g7_172{
fill: #F1EBEB;
}
.g8_172{
fill: #F7943B;
}
.g9_172{
fill: #ACB5B9;
}
.ga_172{
fill: #CFD3D5;
}
.gb_172{
fill: none;
stroke: #6381B7;
stroke-width: 0.763;
}
.gc_172{
fill: #6381B7;
}
.gd_172{
fill: none;
stroke: #6381B7;
stroke-width: 0.381;
stroke-dasharray: 2,1;
}
.ge_172{
fill: none;
stroke: #6381B7;
stroke-width: 0.381;
}
.gf_172{
fill: #FCE8B0;
}
.gg_172{
fill: #E3E7F2;
}
.gh_172{
fill: none;
stroke: #231F20;
stroke-width: 0.458;
stroke-miterlimit: 10;
}
.gi_172{
fill: none;
stroke: #FFF;
stroke-width: 1.909;
stroke-miterlimit: 10;
}
.gj_172{
fill: none;
stroke: #000;
stroke-width: 0.381;
stroke-miterlimit: 10;
}
]]></style>
</defs>
<path clip-path="url(#c0_172)" d="M954.5,1344.3H1877V32.1H954.5V1344.3Z" class="g0_172"/>
<path d="M32.1,1344.3H954.5V32.1H32.1V1344.3Z" class="g0_172"/>
<path clip-path="url(#c0_172)" d="M1777.4,166.7c0,0,30.3,0,30.3,-30.3v-4.3c0,0,0,-30.3,-30.3,-30.3H173.9c0,0,-30.3,0,-30.3,30.3v4.3c0,0,0,30.3,30.3,30.3Z" class="g1_172"/>
<path d="M186.5,132.1c0,27.1,-22,49,-49.1,49c-27,0,-49,-21.9,-49,-49c0,-27.1,22,-49.1,49,-49.1c27.1,0,49.1,22,49.1,49.1Z" class="g2_172"/>
<path d="M178.1,104.6c15.2,22.5,9.2,53,-13.2,68.1c-22.5,15.2,-53,9.3,-68.1,-13.2Z" class="g3_172"/>
<path d="M96.8,159.5h81.3V104.7H96.8v54.8Z" class="g4_172"/>
<path d="M137.7,156.8h16.8V136.6H137.7v20.2Z" class="g5_172"/>
<path d="M143.1,156.8h33.7V102.6H143.1v54.2Z" class="g5_172"/>
<path d="M141.6,103v50c.5,-.3,1,-.4,1.5,-.4h33.7v-50H143.1c-.5,0,-1,.2,-1.5,.4Z" class="g6_172"/>
<path d="M137.7,109v47.8c0,0,2.5,-3.1,3.9,-3.8V103c-2.2,1.1,-3.9,4.3,-3.9,6Z" class="g7_172"/>
<path d="M143.5,112.3h29.1v-1.4H143.5v1.4Z" class="g5_172"/>
<path d="M143.5,115.5h29.1v-1.4H143.5v1.4Z" class="g5_172"/>
<path d="M143.5,118.8h29.1v-1.5H143.5v1.5Z" class="g5_172"/>
<path d="M143.5,122h29.1v-1.5H143.5V122Z" class="g5_172"/>
<path d="M143.5,125.2h29.1v-1.5H143.5v1.5Z" class="g5_172"/>
<path d="M143.5,128.4h29.1v-1.5H143.5v1.5Z" class="g5_172"/>
<path d="M143.5,131.6h29.1v-1.5H143.5v1.5Z" class="g5_172"/>
<path d="M143.5,134.8h29.1v-1.5H143.5v1.5Z" class="g5_172"/>
<path d="M143.5,138h29.1v-1.4H143.5V138Z" class="g5_172"/>
<path d="M143.5,141.2h29.1v-1.4H143.5v1.4Z" class="g5_172"/>
<path d="M143.5,144.4h29.1V143H143.5v1.4Z" class="g5_172"/>
<path d="M143.5,147.6h29.1v-1.4H143.5v1.4Z" class="g5_172"/>
<path d="M159.7,150.9l1,-.9l1,.9v-49h-2Z" class="g8_172"/>
<path d="M120.9,156.8h16.8V136.6H120.9v20.2Z" class="g9_172"/>
<path d="M98.6,156.8h33.6V102.6H98.6v54.2Z" class="g9_172"/>
<path d="M98.6,102.6v50h33.6c.6,0,1.1,.1,1.6,.4V103c-.5,-.2,-1,-.4,-1.6,-.4Z" class="g6_172"/>
<path d="M133.8,103v50c1.4,.7,3.9,3.8,3.9,3.8V109c0,-1.7,-1.7,-4.9,-3.9,-6Z" class="ga_172"/>
<path d="M109.7,112.3h14.5v-1.4H109.7v1.4Z" class="g5_172"/>
<path d="M102.8,118.8h29.1v-1.5H102.8v1.5Z" class="g5_172"/>
<path d="M102.8,122h29.1v-1.5H102.8V122Z" class="g5_172"/>
<path d="M102.8,125.2h29.1v-1.5H102.8v1.5Z" class="g5_172"/>
<path d="M102.8,128.4h29.1v-1.5H102.8v1.5Z" class="g5_172"/>
<path d="M102.8,131.6h29.1v-1.5H102.8v1.5Z" class="g5_172"/>
<path d="M102.8,134.8h29.1v-1.5H102.8v1.5Z" class="g5_172"/>
<path d="M102.8,138h29.1v-1.4H102.8V138Z" class="g5_172"/>
<path d="M102.8,141.2h29.1v-1.4H102.8v1.4Z" class="g5_172"/>
<path d="M102.8,144.4h29.1V143H102.8v1.4Z" class="g5_172"/>
<path d="M102.8,147.6h29.1v-1.4H102.8v1.4Z" class="g5_172"/>
<path d="M145.1,308.2c0,0,-13,0,-13,13V603.4c0,0,0,12.9,13,12.9H832.9c0,0,13,0,13,-12.9V321.2c0,0,0,-13,-13,-13Z" class="g6_172"/>
<path d="M145.1,308.2c0,0,-13,0,-13,13V603.4c0,0,0,12.9,13,12.9H832.9c0,0,13,0,13,-12.9V321.2c0,0,0,-13,-13,-13H145.1Z" class="gb_172"/>
<image clip-path="url(#c1_172)" preserveAspectRatio="none" x="216" y="493" width="108" height="109" xlink:href="img/1.jpg"/>
<image clip-path="url(#c2_172)" preserveAspectRatio="none" x="216" y="366" width="108" height="108" xlink:href="img/2.jpg"/>
<path d="M145.1,718.4c0,0,-13,0,-13,13v476.3c0,0,0,13,13,13H832.9c0,0,13,0,13,-13V731.4c0,0,0,-13,-13,-13Z" class="g6_172"/>
<path d="M145.1,718.4c0,0,-13,0,-13,13v476.3c0,0,0,13,13,13H832.9c0,0,13,0,13,-13V731.4c0,0,0,-13,-13,-13H145.1Z" class="gb_172"/>
<path d="M608.4,1238.8c0,0,-4.3,0,-4.3,4.3V1254c0,0,0,4.3,4.3,4.3h30.4c0,0,4.3,0,4.3,-4.3v-10.9c0,0,0,-4.3,-4.3,-4.3Z" class="gc_172"/>
<path d="M595.3,1229.9v37.6m1.3,1H845.1m1,-1.4v-37.5m-1.4,-1H596.2" class="gd_172"/>
<path d="M595.3,1267.9v.6h.5m249.7,0h.6v-.6m0,-38.7v-.6h-.6m-249.7,0h-.5v.6" class="ge_172"/>
<path d="M209.2,220.5c0,0,-13,0,-13,13v47.6c0,0,0,13,13,13H830.8c0,0,13,0,13,-13V233.5c0,0,0,-13,-13,-13Z" class="gf_172"/>
<image clip-path="url(#c3_172)" preserveAspectRatio="none" x="152" y="217" width="75" height="76" xlink:href="img/3.png"/>
<path d="M204,286.7c0,0,-26.8,11.3,-51.1,-12.7c0,0,15.2,25.3,49.3,23.9c0,0,24.8,.4,20.3,-10.1c0,0,1.2,-4.4,-18.5,-1.1Z" class="gf_172"/>
<path d="M209.2,633.2c0,0,-13,0,-13,13v47.7c0,0,0,13,13,13H830.8c0,0,13,0,13,-13V646.2c0,0,0,-13,-13,-13Z" class="gf_172"/>
<image clip-path="url(#c4_172)" preserveAspectRatio="none" x="152" y="629" width="75" height="77" xlink:href="img/4.png"/>
<path d="M204,699.5c0,0,-26.8,11.3,-51.1,-12.8c0,0,15.2,25.3,49.3,24c0,0,24.8,.3,20.3,-10.1c0,0,1.2,-4.5,-18.5,-1.1Z" class="gf_172"/>
<path d="M201,854.9H807.3V785.6H201v69.3Z" class="gg_172"/>
<path d="M234.5,840.5H487.9" class="gh_172"/>
<path d="M201,1001.1H807.3V931.8H201v69.3Z" class="gg_172"/>
<path d="M234.5,986.6H487.9" class="gh_172"/>
<path d="M201,1147.2H807.3v-69.3H201v69.3Z" class="gg_172"/>
<path d="M234.5,1132.7H487.9" class="gh_172"/>
<path d="M32.1,45.1H9.2m958.3,0h22.9M32.1,1331.3H9.2m958.3,0h22.9M45.1,32.1V9.2m0,1335.1v22.9M954.5,32.1V9.2m0,1335.1v22.9" class="gi_172"/>
<path d="M32.1,45.1H9.2m958.3,0h22.9M32.1,1331.3H9.2m958.3,0h22.9M45.1,32.1V9.2m0,1335.1v22.9M954.5,32.1V9.2m0,1335.1v22.9" class="gj_172"/>
<path d="M27.5,32.1H0m972.1,0h27.5M27.5,1344.3H0m972.1,0h27.5M32.1,27.5V0m0,1348.9v27.5M967.5,27.5V0m0,1348.9v27.5" class="gi_172"/>
<path d="M27.5,32.1H0m972.1,0h27.5M27.5,1344.3H0m972.1,0h27.5M32.1,27.5V0m0,1348.9v27.5M967.5,27.5V0m0,1348.9v27.5" class="gj_172"/>
</svg>