<?xml version="1.0" encoding="UTF-8" standalone="no"?>
<!DOCTYPE svg PUBLIC "-//W3C//DTD SVG 1.1//EN"
"http://www.w3.org/Graphics/SVG/1.1/DTD/svg11.dtd">
<svg viewBox="0 0 999 1376" version="1.1" xmlns="http://www.w3.org/2000/svg" xmlns:xlink="http://www.w3.org/1999/xlink">
<defs>
<clipPath id="c0_336"><path d="M214,616V476.5H358.5V616Z"/></clipPath>
<clipPath id="c1_336"><path d="M550.3,562.3v-70H667.4v70Z"/></clipPath>
<clipPath id="c2_336"><path d="M667.2,597.2V492.3h39V597.2Z"/></clipPath>
<clipPath id="c3_336"><path d="M550.3,597.2v-35H667.4v35Z"/></clipPath>
<clipPath id="c4_336"><path d="M374.1,593.5v-83h99.3v83Z"/></clipPath>
<clipPath id="c5_336"><path d="M706.7,593.5v-83H821.8v83Z"/></clipPath>
<clipPath id="c6_336"><path d="M390.9,387.2V278.3H530V387.2Z"/></clipPath>
<clipPath id="c7_336"><path d="M252.4,371.8V259.7H374.2V371.8Z"/></clipPath>
<clipPath id="c8_336"><path d="M254.4,371.9V259.6H374.3V371.9Z"/></clipPath>
<clipPath id="c9_336"><path d="M367.9,595V507.6H490V595Z"/></clipPath>
<clipPath id="ca_336"><path d="M708.8,595V507.6H830.9V595Z"/></clipPath>
<clipPath id="cb_336"><path d="M215.4,847V706.4H356.7V847Z"/></clipPath>
<clipPath id="cc_336"><path d="M557.2,846.3V706.8H696.6V846.3Z"/></clipPath>
<clipPath id="cd_336"><path d="M374.1,831.9V749h99.3v82.9Z"/></clipPath>
<clipPath id="ce_336"><path d="M706.7,831.9V749H806v82.9Z"/></clipPath>
<clipPath id="cf_336"><path d="M364.5,827.8V740.3H486.6v87.5Z"/></clipPath>
<clipPath id="cg_336"><path d="M708.8,827.8V740.3H830.9v87.5Z"/></clipPath>
<style type="text/css"><![CDATA[
.g0_336{
fill: none;
stroke: #6381B7;
stroke-width: 0.763;
}
.g1_336{
fill: #48484A;
}
.g2_336{
fill: #F0E8F3;
}
.g3_336{
fill: #F1E6CF;
}
.g4_336{
fill: #6381B7;
}
.g5_336{
fill: none;
stroke: #6381B7;
stroke-width: 0.381;
stroke-dasharray: 2,1;
}
.g6_336{
fill: none;
stroke: #6381B7;
stroke-width: 0.381;
}
.g7_336{
fill: #F4EDDD;
}
.g8_336{
fill: #E7D6B2;
}
.g9_336{
fill: #FFF;
}
.ga_336{
fill: #766FA6;
}
.gb_336{
fill: #25408F;
}
.gc_336{
fill: #F37553;
}
.gd_336{
fill: #363637;
}
.ge_336{
fill: #EAD646;
}
.gf_336{
fill: #506CB4;
}
.gg_336{
fill: #5CC4BE;
}
.gh_336{
fill: none;
stroke: #FFF;
stroke-width: 1.909;
stroke-miterlimit: 10;
}
.gi_336{
fill: none;
stroke: #000;
stroke-width: 0.381;
stroke-miterlimit: 10;
}
]]></style>
</defs>
<path d="M145.1,167.9c0,0,-13,0,-13,13V897.8c0,0,0,13,13,13H832.9c0,0,13,0,13,-13V180.9c0,0,0,-13,-13,-13H145.1Z" class="g0_336"/>
<path d="M170.7,247.9c0,0,-4.4,0,-4.4,4.3v14.4c0,0,0,4.3,4.1,5.8l52.5,18.2c0,0,4.1,1.4,4.1,-2.9V252.2c0,0,0,-4.3,-4.4,-4.3Z" class="g1_336"/>
<path d="M191.8,235.1c0,0,-13,0,-13,13V414.6c0,0,0,13,13,13H807.3c0,0,13,0,13,-13V248.1c0,0,0,-13,-13,-13Z" class="g2_336"/>
<image clip-path="url(#c0_336)" preserveAspectRatio="none" x="214" y="475" width="145" height="142" xlink:href="img/1.jpg"/>
<image clip-path="url(#c1_336)" preserveAspectRatio="none" x="550" y="492" width="117" height="70" xlink:href="img/2.jpg"/>
<image clip-path="url(#c2_336)" preserveAspectRatio="none" x="667" y="492" width="40" height="105" xlink:href="img/3.jpg"/>
<image clip-path="url(#c3_336)" preserveAspectRatio="none" x="550" y="562" width="117" height="35" xlink:href="img/4.jpg"/>
<image clip-path="url(#c4_336)" preserveAspectRatio="none" x="374" y="510" width="100" height="84" xlink:href="img/5.jpg"/>
<path d="M381.5,512.1c0,0,-5.9,0,-5.9,5.9v62.5c0,0,0,5.9,5.9,5.9h78.9c0,0,6,0,6,-5.9V518c0,0,0,-5.9,-6,-5.9H381.5Z" class="g3_336"/>
<image clip-path="url(#c5_336)" preserveAspectRatio="none" x="706" y="510" width="116" height="84" xlink:href="img/6.jpg"/>
<path d="M714.1,512.1c0,0,-5.9,0,-5.9,5.9v62.5c0,0,0,5.9,5.9,5.9h94.7c0,0,5.9,0,5.9,-5.9V518c0,0,0,-5.9,-5.9,-5.9H714.1Z" class="g3_336"/>
<path d="M547.7,933.3c0,0,-4.3,0,-4.3,4.3v10.8c0,0,0,4.4,4.3,4.4H578c0,0,4.3,0,4.3,-4.4V937.6c0,0,0,-4.3,-4.3,-4.3Z" class="g4_336"/>
<path d="M534.5,925.8v264.4m1.4,1H845.1m1,-1.4V925.4m-1.4,-1H535.5" class="g5_336"/>
<path d="M534.5,1190.6v.6h.6m310.4,0h.6v-.6m0,-265.6v-.6h-.6m-310.4,0h-.6v.6" class="g6_336"/>
<image clip-path="url(#c6_336)" preserveAspectRatio="none" x="390" y="279" width="139" height="109" xlink:href="img/7.png"/>
<path d="M402.8,281.6c0,0,-8.7,0,-8.7,8.6v82.3c0,0,0,8.7,8.7,8.7H515.4c0,0,8.7,0,8.7,-8.7V290.2c0,0,0,-8.6,-8.7,-8.6Z" class="g7_336"/>
<path clip-path="url(#c7_336)" d="M184.4,248c0,0,-6.1,0,-6.1,6.1V405.5c0,0,0,6.1,6.1,6.1H772c0,0,6.1,0,6.1,-6.1V254.1c0,0,0,-6.1,-6.1,-6.1H184.4Z" class="g8_336"/>
<image clip-path="url(#c8_336)" preserveAspectRatio="none" x="255" y="260" width="120" height="112" xlink:href="img/8.jpg"/>
<path d="M363.8,595.1H554.4V456.5H363.8V595.1Z" class="g9_336"/>
<path d="M707.7,595.1H835.9V456.5H707.7V595.1Z" class="g9_336"/>
<image clip-path="url(#c9_336)" preserveAspectRatio="none" x="367" y="508" width="123" height="88" xlink:href="img/9.png"/>
<path d="M379.8,510.8c0,0,-8.6,0,-8.6,8.7v60.6c0,0,0,8.7,8.6,8.7h95.3c0,0,8.7,0,8.7,-8.7V519.5c0,0,0,-8.7,-8.7,-8.7Z" class="g7_336"/>
<image clip-path="url(#ca_336)" preserveAspectRatio="none" x="708" y="508" width="122" height="88" xlink:href="img/10.png"/>
<path d="M720.7,510.8c0,0,-8.7,0,-8.7,8.7v60.6c0,0,0,8.7,8.7,8.7h95.2c0,0,8.7,0,8.7,-8.7V519.5c0,0,0,-8.7,-8.7,-8.7Z" class="g7_336"/>
<image clip-path="url(#cb_336)" preserveAspectRatio="none" x="212" y="705" width="145" height="142" xlink:href="img/11.jpg"/>
<image clip-path="url(#cc_336)" preserveAspectRatio="none" x="557" y="707" width="140" height="139" xlink:href="img/12.jpg"/>
<image clip-path="url(#cd_336)" preserveAspectRatio="none" x="374" y="749" width="100" height="83" xlink:href="img/13.jpg"/>
<path d="M381.5,750.5c0,0,-5.9,0,-5.9,5.9V819c0,0,0,5.9,5.9,5.9h78.9c0,0,6,0,6,-5.9V756.4c0,0,0,-5.9,-6,-5.9H381.5Z" class="g3_336"/>
<image clip-path="url(#ce_336)" preserveAspectRatio="none" x="706" y="749" width="100" height="83" xlink:href="img/14.jpg"/>
<path d="M714.1,750.5c0,0,-5.9,0,-5.9,5.9V819c0,0,0,5.9,5.9,5.9H793c0,0,6,0,6,-5.9V756.4c0,0,0,-5.9,-6,-5.9H714.1Z" class="g3_336"/>
<path d="M361.2,835.9H554.4V688.6H361.2V835.9Z" class="g9_336"/>
<path d="M705.1,835.9H836.7V688.6H705.1V835.9Z" class="g9_336"/>
<image clip-path="url(#cf_336)" preserveAspectRatio="none" x="364" y="741" width="122" height="87" xlink:href="img/15.png"/>
<path d="M376.4,743.6c0,0,-8.7,0,-8.7,8.6v60.7c0,0,0,8.6,8.7,8.6h95.3c0,0,8.6,0,8.6,-8.6V752.2c0,0,0,-8.6,-8.6,-8.6Z" class="g7_336"/>
<image clip-path="url(#cg_336)" preserveAspectRatio="none" x="708" y="741" width="122" height="87" xlink:href="img/16.png"/>
<path d="M720.7,743.6c0,0,-8.7,0,-8.7,8.6v60.7c0,0,0,8.6,8.7,8.6h95.2c0,0,8.7,0,8.7,-8.6V752.2c0,0,0,-8.6,-8.7,-8.6Z" class="g7_336"/>
<path d="M170.7,245.7c0,0,-4.4,0,-4.4,4.4V267c0,0,0,4.3,4.4,4.3h32c0,0,4.3,0,4.3,-4.3V250.1c0,0,0,-4.4,-4.3,-4.4Z" class="ga_336"/>
<path d="M132.2,126.3v22.2l11.7,10.2V136.5Z" class="gb_336"/>
<path d="M132.2,109.5v39H829.9c0,0,16.9,0,16.9,-16.8v-5.4c0,0,0,-16.8,-16.9,-16.8Z" class="g4_336"/>
<path d="M166,111.6c.7,-.6,1.7,-.8,2.5,-.6l1.3,-1.3l-6.2,-6.1l-6.1,6.1l-1.3,-1.3c.2,-.8,0,-1.8,-.6,-2.4c-1,-1,-2.6,-1,-3.6,0c-1,1,-1,2.6,0,3.6c.6,.6,1.6,.9,2.4,.6l1.3,1.3l-6.1,6.1l6.1,6.2l-1.3,1.3c-.8,-.3,-1.8,-.1,-2.4,.6c-1,1,-1,2.6,0,3.6c1,1,2.6,1,3.6,0c.6,-.7,.9,-1.6,.6,-2.4l1.3,-1.3l6.1,6.1l6.2,-6.1l-1.3,-1.3c-.9,.2,-1.8,0,-2.5,-.7c-1,-1,-1,-2.6,0,-3.6c1,-1,2.6,-1,3.6,0c.7,.7,.9,1.6,.7,2.5l1.3,1.3l6.1,-6.2l-6.1,-6.1l-1.3,1.3c.2,.8,0,1.8,-.7,2.4c-1,1,-2.6,1,-3.6,0c-1,-.9,-1,-2.6,0,-3.6Z" class="gc_336"/>
<path d="M163.6,132.3l-6.1,-6.2l-.8,.9c.1,.9,-.2,1.9,-.8,2.6c-1.2,1.1,-3.1,1.1,-4.2,0c-1.2,-1.2,-1.2,-3,0,-4.2c.7,-.7,1.6,-1,2.6,-.8l.8,-.8L149,117.6l6.1,-6.1l-.8,-.8c-1,.1,-1.9,-.2,-2.6,-.8c-.6,-.6,-.9,-1.3,-.9,-2.1c0,-.8,.3,-1.5,.9,-2.1c1.1,-1.1,3,-1.1,4.1,0c.7,.7,1,1.7,.9,2.6l.8,.8l6.1,-6.1l6.7,6.7l-1.7,1.7h-.2c-.7,-.2,-1.5,0,-2.1,.5c-.8,.9,-.8,2.2,0,3.1c.9,.8,2.2,.8,3.1,0c.5,-.6,.7,-1.4,.5,-2.1v-.2l1.7,-1.7l6.7,6.6l-6.7,6.7l-1.8,-1.7l.1,-.2c.2,-.8,0,-1.5,-.6,-2.1c-.4,-.4,-.9,-.6,-1.5,-.6c-.5,0,-1.1,.2,-1.5,.6c-.8,.8,-.8,2.2,0,3c.5,.6,1.3,.8,2.1,.6l.2,-.1l1.7,1.8ZM157.5,125l6.1,6.1l5.6,-5.5l-.8,-.9c-1,.2,-2,-.1,-2.7,-.8c-.5,-.5,-.8,-1.3,-.8,-2.1c0,-.7,.3,-1.5,.8,-2c.6,-.6,1.3,-.9,2.1,-.9c.8,0,1.6,.3,2.1,.9c.7,.6,1,1.6,.8,2.6l.9,.8l5.5,-5.6l-5.5,-5.5l-.9,.8c.2,1,-.1,1.9,-.8,2.6c-1.1,1.2,-3,1.2,-4.1,0c-1.2,-1.1,-1.2,-3,0,-4.1c.6,-.7,1.6,-1,2.6,-.8l.8,-.9l-5.6,-5.6l-6.1,6.2l-1.7,-1.7v-.3c.2,-.7,0,-1.5,-.5,-2c-.9,-.9,-2.2,-.9,-3.1,0c-.4,.4,-.6,.9,-.6,1.5c0,.6,.2,1.1,.6,1.5c.6,.5,1.4,.8,2.1,.6l.2,-.1l1.8,1.7l-6.2,6.1l6.2,6.2l-1.8,1.7l-.2,-.1c-.7,-.2,-1.5,.1,-2,.6c-.9,.8,-.9,2.2,0,3c.8,.9,2.2,.9,3,0c.5,-.5,.7,-1.3,.5,-2v-.3Z" class="gd_336"/>
<path d="M196.6,122.1c.9,0,1.8,.5,2.2,1.3h1.8v-8.7h-8.7v-1.8c.8,-.4,1.3,-1.2,1.3,-2.2c0,-1.4,-1.1,-2.5,-2.5,-2.5c-1.5,0,-2.6,1.1,-2.6,2.5c0,1,.5,1.8,1.3,2.2v1.8h-8.7v8.7h-1.8c-.4,-.8,-1.2,-1.3,-2.2,-1.3c-1.4,0,-2.5,1.2,-2.5,2.6c0,1.4,1.1,2.5,2.5,2.5c1,0,1.8,-.5,2.2,-1.2h1.8v8.6h8.7v-1.8c-.8,-.4,-1.3,-1.2,-1.3,-2.2c0,-1.4,1.2,-2.5,2.6,-2.5c1.4,0,2.5,1.1,2.5,2.5c0,1,-.5,1.8,-1.3,2.2v1.8h8.7V126h-1.8c-.4,.7,-1.2,1.2,-2.2,1.2c-1.4,0,-2.5,-1.1,-2.5,-2.5c0,-1.4,1.1,-2.6,2.5,-2.6Z" class="ge_336"/>
<path d="M201,135h-9.5v-2.4l.2,-.1c.7,-.4,1.1,-1.1,1.1,-1.9c0,-1.2,-1,-2.1,-2.1,-2.1c-1.2,0,-2.2,.9,-2.2,2.1c0,.8,.4,1.5,1.1,1.9l.2,.1V135h-9.5v-8.6h-1.2c-.5,.7,-1.4,1.2,-2.4,1.2c-1.6,0,-2.9,-1.3,-2.9,-2.9c0,-1.6,1.3,-3,2.9,-3c1,0,1.9,.5,2.4,1.3h1.2v-8.7H189v-1.1c-.8,-.6,-1.3,-1.5,-1.3,-2.5c0,-1.6,1.3,-2.9,3,-2.9c1.6,0,2.9,1.3,2.9,2.9c0,1,-.5,1.9,-1.3,2.5v1.1H201v9.5h-2.4l-.1,-.2c-.4,-.6,-1.1,-1.1,-1.9,-1.1c-.6,0,-1.1,.3,-1.5,.7c-.4,.4,-.6,.9,-.6,1.5c0,1.2,.9,2.1,2.1,2.1c.8,0,1.5,-.4,1.9,-1l.1,-.2H201Zm-8.7,-.8h7.9v-7.8H199c-.5,.7,-1.4,1.2,-2.4,1.2c-1.6,0,-2.9,-1.3,-2.9,-2.9c0,-.8,.3,-1.5,.8,-2.1c.6,-.5,1.3,-.9,2.1,-.9c1,0,1.9,.5,2.4,1.3h1.2v-7.9h-8.7v-2.4l.2,-.1c.7,-.4,1.1,-1.1,1.1,-1.9c0,-1.2,-1,-2.1,-2.1,-2.1c-1.2,0,-2.2,.9,-2.2,2.1c0,.8,.4,1.5,1.1,1.9l.2,.1v2.4h-8.7v8.7h-2.4l-.1,-.2c-.4,-.6,-1.1,-1.1,-1.9,-1.1c-1.2,0,-2.1,1,-2.1,2.2c0,1.2,.9,2.1,2.1,2.1c.8,0,1.5,-.4,1.9,-1l.1,-.2h2.4v8.6H189V133c-.8,-.5,-1.3,-1.4,-1.3,-2.4c0,-1.6,1.3,-2.9,3,-2.9c1.6,0,2.9,1.3,2.9,2.9c0,1,-.5,1.9,-1.3,2.4Z" class="gd_336"/>
<path d="M176.7,142c1,0,1.8,.5,2.2,1.3h1.8v-8.7H172v-1.8c.8,-.4,1.3,-1.2,1.3,-2.2c0,-1.4,-1.1,-2.5,-2.5,-2.5c-1.4,0,-2.6,1.1,-2.6,2.5c0,1,.5,1.8,1.3,2.2v1.8h-8.7v8.7H159c-.4,-.8,-1.2,-1.3,-2.2,-1.3c-1.4,0,-2.5,1.2,-2.5,2.6c0,1.4,1.1,2.5,2.5,2.5c1,0,1.8,-.5,2.2,-1.2h1.8v8.6h8.7v-1.8c-.8,-.4,-1.3,-1.2,-1.3,-2.2c0,-1.4,1.2,-2.5,2.6,-2.5c1.4,0,2.5,1.1,2.5,2.5c0,1,-.5,1.8,-1.3,2.2v1.8h8.7v-8.7h-1.8c-.4,.8,-1.2,1.3,-2.2,1.3c-1.4,0,-2.5,-1.1,-2.5,-2.5c0,-1.4,1.1,-2.6,2.5,-2.6Z" class="gf_336"/>
<path d="M181.1,154.9h-9.5v-2.4l.2,-.1c.7,-.4,1.1,-1.1,1.1,-1.9c0,-1.2,-1,-2.1,-2.1,-2.1c-1.2,0,-2.2,.9,-2.2,2.1c0,.8,.4,1.5,1.1,1.9l.2,.1v2.4h-9.5v-8.6h-1.2c-.5,.7,-1.4,1.2,-2.4,1.2c-1.6,0,-2.9,-1.3,-2.9,-2.9c0,-1.6,1.3,-3,2.9,-3c1,0,1.9,.5,2.4,1.3h1.2v-8.7h8.7V133c-.8,-.5,-1.3,-1.4,-1.3,-2.4c0,-1.6,1.3,-2.9,3,-2.9c1.6,0,2.9,1.3,2.9,2.9c0,1,-.5,1.9,-1.3,2.4v1.2h8.7v9.5h-2.4l-.1,-.2c-.4,-.7,-1.1,-1.1,-1.9,-1.1c-1.2,0,-2.1,1,-2.1,2.2c0,1.1,.9,2.1,2.1,2.1c.8,0,1.5,-.4,1.9,-1.1l.1,-.2h2.4Zm-8.7,-.8h7.9v-7.9h-1.2c-.5,.8,-1.4,1.3,-2.4,1.3c-1.6,0,-2.9,-1.3,-2.9,-2.9c0,-1.6,1.3,-3,2.9,-3c1,0,1.9,.5,2.4,1.3h1.2V135h-8.7v-2.4l.2,-.1c.7,-.4,1.1,-1.1,1.1,-1.9c0,-1.2,-1,-2.1,-2.1,-2.1c-1.2,0,-2.2,.9,-2.2,2.1c0,.8,.4,1.5,1.1,1.9l.2,.1V135h-8.7v8.7h-2.4l-.1,-.2c-.4,-.7,-1.1,-1.1,-1.9,-1.1c-1.2,0,-2.1,1,-2.1,2.2c0,1.2,.9,2.1,2.1,2.1c.8,0,1.5,-.4,1.9,-1l.1,-.2h2.4v8.6h7.9v-1.2c-.8,-.5,-1.3,-1.4,-1.3,-2.4c0,-1.6,1.3,-2.9,3,-2.9c1.6,0,2.9,1.3,2.9,2.9c0,1,-.5,1.9,-1.3,2.4Z" class="gd_336"/>
<path d="M196.6,142c.9,0,1.8,.5,2.2,1.3h1.8v-8.7h-8.7v-1.8c.8,-.4,1.3,-1.2,1.3,-2.2c0,-1.4,-1.1,-2.5,-2.5,-2.5c-1.5,0,-2.6,1.1,-2.6,2.5c0,1,.5,1.8,1.3,2.2v1.8h-8.7v8.7h-1.8c-.4,-.8,-1.2,-1.3,-2.2,-1.3c-1.4,0,-2.5,1.2,-2.5,2.6c0,1.4,1.1,2.5,2.5,2.5c1,0,1.8,-.5,2.2,-1.2h1.8v8.6h8.7v-1.8c-.8,-.4,-1.3,-1.2,-1.3,-2.2c0,-1.4,1.2,-2.5,2.6,-2.5c1.4,0,2.5,1.1,2.5,2.5c0,1,-.5,1.8,-1.3,2.2v1.8h8.7v-8.7h-1.8c-.4,.8,-1.2,1.3,-2.2,1.3c-1.4,0,-2.5,-1.1,-2.5,-2.5c0,-1.4,1.1,-2.6,2.5,-2.6Z" class="gg_336"/>
<path d="M201,154.9h-9.5v-2.4l.2,-.1c.7,-.4,1.1,-1.1,1.1,-1.9c0,-1.2,-1,-2.1,-2.1,-2.1c-1.2,0,-2.2,.9,-2.2,2.1c0,.8,.4,1.5,1.1,1.9l.2,.1v2.4h-9.5v-8.6h-1.2c-.5,.7,-1.4,1.2,-2.4,1.2c-1.6,0,-2.9,-1.3,-2.9,-2.9c0,-1.6,1.3,-3,2.9,-3c1,0,1.9,.5,2.4,1.3h1.2v-8.7H189V133c-.8,-.5,-1.3,-1.4,-1.3,-2.4c0,-1.6,1.3,-2.9,3,-2.9c1.6,0,2.9,1.3,2.9,2.9c0,1,-.5,1.9,-1.3,2.4v1.2H201v9.5h-2.4l-.1,-.2c-.4,-.7,-1.1,-1.1,-1.9,-1.1c-.6,0,-1.1,.3,-1.5,.7c-.4,.4,-.6,.9,-.6,1.5c0,1.1,.9,2.1,2.1,2.1c.8,0,1.5,-.4,1.9,-1.1l.1,-.2H201Zm-8.7,-.8h7.9v-7.9H199c-.5,.8,-1.4,1.3,-2.4,1.3c-1.6,0,-2.9,-1.3,-2.9,-2.9c0,-.8,.3,-1.5,.8,-2.1c.6,-.6,1.3,-.9,2.1,-.9c1,0,1.9,.5,2.4,1.3h1.2V135h-8.7v-2.4l.2,-.1c.7,-.4,1.1,-1.1,1.1,-1.9c0,-1.2,-1,-2.1,-2.1,-2.1c-1.2,0,-2.2,.9,-2.2,2.1c0,.8,.4,1.5,1.1,1.9l.2,.1V135h-8.7v8.7h-2.4l-.1,-.2c-.4,-.7,-1.1,-1.1,-1.9,-1.1c-1.2,0,-2.1,1,-2.1,2.2c0,1.2,.9,2.1,2.1,2.1c.8,0,1.5,-.4,1.9,-1l.1,-.2h2.4v8.6H189v-1.2c-.8,-.5,-1.3,-1.4,-1.3,-2.4c0,-1.6,1.3,-2.9,3,-2.9c1.6,0,2.9,1.3,2.9,2.9c0,1,-.5,1.9,-1.3,2.4Z" class="gd_336"/>
<path d="M32.1,45.1H9.2m958.3,0h22.9M32.1,1331.3H9.2m958.3,0h22.9M45.1,32.1V9.2m0,1335.1v22.9M954.5,32.1V9.2m0,1335.1v22.9" class="gh_336"/>
<path d="M32.1,45.1H9.2m958.3,0h22.9M32.1,1331.3H9.2m958.3,0h22.9M45.1,32.1V9.2m0,1335.1v22.9M954.5,32.1V9.2m0,1335.1v22.9" class="gi_336"/>
<path d="M27.5,32.1H0m972.1,0h27.5M27.5,1344.3H0m972.1,0h27.5M32.1,27.5V0m0,1348.9v27.5M967.5,27.5V0m0,1348.9v27.5" class="gh_336"/>
<path d="M27.5,32.1H0m972.1,0h27.5M27.5,1344.3H0m972.1,0h27.5M32.1,27.5V0m0,1348.9v27.5M967.5,27.5V0m0,1348.9v27.5" class="gi_336"/>
</svg>