<?xml version="1.0" encoding="UTF-8" standalone="no"?>
<!DOCTYPE svg PUBLIC "-//W3C//DTD SVG 1.1//EN"
"http://www.w3.org/Graphics/SVG/1.1/DTD/svg11.dtd">
<svg viewBox="0 0 999 1376" version="1.1" xmlns="http://www.w3.org/2000/svg" xmlns:xlink="http://www.w3.org/1999/xlink">
<defs>
<clipPath id="c0_307"><path d="M32.1,1344.3V32.1H967.5V1344.3Z"/></clipPath>
<clipPath id="c1_307"><path d="M261,512.8V334H409.2V512.8Z"/></clipPath>
<clipPath id="c2_307"><path d="M531.2,719.2V325.3H796.7V719.2Z"/></clipPath>
<clipPath id="c3_307"><path d="M417.1,1190V882.9h181V1190Z"/></clipPath>
<clipPath id="c4_307"><path d="M310.3,1189.7V877.9H777.4v311.8Z"/></clipPath>
<clipPath id="c5_307"><path d="M198.6,325.8l-6.5,-2.1L175.7,309.8V252.7h72v73.1Z"/></clipPath>
<clipPath id="c6_307"><path d="M200.7,809l-6.5,-2.1l-16.4,-14V735.8h72V809Z"/></clipPath>
<clipPath id="c7_307"><path d="M658.6,177V59h200V177Z"/></clipPath>
<style type="text/css"><![CDATA[
.g0_307{
fill: #FEFCF4;
}
.g1_307{
fill: #FFF;
}
.g2_307{
fill: none;
stroke: #6381B7;
stroke-width: 0.763;
}
.g3_307{
fill: none;
stroke: #231F20;
stroke-width: 0.458;
stroke-dasharray: 2,1;
}
.g4_307{
fill: none;
stroke: #FFF;
stroke-width: 0.495;
}
.g5_307{
fill: none;
stroke: #77797B;
stroke-width: 0.549;
}
.g6_307{
fill: none;
stroke: #231F20;
stroke-width: 0.458;
}
.g7_307{
fill: #48484A;
}
.g8_307{
fill: #F0E8F3;
}
.g9_307{
fill: #766FA6;
}
.ga_307{
fill: #6381B7;
}
.gb_307{
fill: none;
stroke: #6381B7;
stroke-width: 0.381;
stroke-dasharray: 2,1;
}
.gc_307{
fill: none;
stroke: #6381B7;
stroke-width: 0.381;
}
.gd_307{
fill: #FCE8B0;
}
.ge_307{
fill: #2E6E51;
}
.gf_307{
fill: #BCBEC0;
}
.gg_307{
fill: #EE314A;
}
.gh_307{
fill: #25408F;
}
.gi_307{
fill: #00BAF1;
}
.gj_307{
fill: #332D2C;
}
.gk_307{
fill: #D9DFF0;
}
.gl_307{
fill: #F27C85;
}
.gm_307{
fill: #7DD3F6;
}
.gn_307{
fill: none;
stroke: #FFF;
stroke-width: 1.909;
stroke-miterlimit: 10;
}
.go_307{
fill: none;
stroke: #000;
stroke-width: 0.381;
stroke-miterlimit: 10;
}
]]></style>
</defs>
<path clip-path="url(#c0_307)" d="M-877.3,1344.3H45.1V32.1H-877.3V1344.3Z" class="g0_307"/>
<path d="M45.1,1344.3H967.5V32.1H45.1V1344.3Z" class="g0_307"/>
<path d="M172.6,224.6c0,0,-18.4,0,-18.4,18.4V712.2c0,0,0,18.3,18.4,18.3H849.7c0,0,18.3,0,18.3,-18.3V224.6Z" class="g1_307"/>
<path d="M172.6,224.6c0,0,-18.4,0,-18.4,18.4V712.2c0,0,0,18.3,18.4,18.3H849.7c0,0,18.3,0,18.3,-18.3V224.6H172.6Z" class="g2_307"/>
<image clip-path="url(#c1_307)" preserveAspectRatio="none" x="259" y="332" width="152" height="182" xlink:href="img/1.jpg"/>
<path d="M376.2,355.7h43.3m-64.1,80.4h64.1m-88.4,18.7l88.4,3.9m-80.6,21.6l80.6,6.9m-170.7,-48h24.7m-24.7,48.3L301,471.7" class="g3_307"/>
<image clip-path="url(#c2_307)" preserveAspectRatio="none" x="529" y="324" width="269" height="397" xlink:href="img/2.jpg"/>
<path d="M576.2,524.3l58.9,1.7m-87.9,26l47.7,-.2m-41,43.9l37.4,-12.3m14.8,89.8l38.4,-2.3m-52.3,33l38.4,-2.4m49.7,-68.1h38.4M661.8,549.2h56.1M692.5,529.7h25.4m40.2,-32.2H793M694.8,464.7h53.6m-65,-19.9h65M593.6,429.1l58.9,1.8m33.7,244.8h38.4" class="g3_307"/>
<path d="M166.7,822.7c0,0,-13,0,-13,12.9V1186c0,0,0,12.9,13,12.9H854.5c0,0,13,0,13,-12.9V835.6c0,0,0,-12.9,-13,-12.9Z" class="g1_307"/>
<path d="M166.7,822.7c0,0,-13,0,-13,12.9V1186c0,0,0,12.9,13,12.9H854.5c0,0,13,0,13,-12.9V835.6c0,0,0,-12.9,-13,-12.9H166.7Z" class="g2_307"/>
<image clip-path="url(#c3_307)" preserveAspectRatio="none" x="416" y="882" width="183" height="318" xlink:href="img/3.jpg"/>
<path clip-path="url(#c4_307)" d="M417.3,1201.9H597.7V883.5H417.3v318.4Z" class="g4_307"/>
<path d="M524.4,1170.1h62.8" class="g5_307"/>
<path d="M562,1157.9c0,0,-1.6,0,-1.6,1.6v21.3c0,0,0,1.5,1.6,1.5h89.9c0,0,1.5,0,1.5,-1.5v-21.3c0,0,0,-1.6,-1.5,-1.6H562Z" class="g1_307"/>
<path d="M562,1157.9c0,0,-1.6,0,-1.6,1.6v21.3c0,0,0,1.5,1.6,1.5h89.9c0,0,1.5,0,1.5,-1.5v-21.3c0,0,0,-1.6,-1.5,-1.6H562ZM511.3,1053.8h62.8" class="g5_307"/>
<path d="M548.9,1041.6c0,0,-1.6,0,-1.6,1.6v21.3c0,0,0,1.5,1.6,1.5h89.9c0,0,1.5,0,1.5,-1.5v-21.3c0,0,0,-1.6,-1.5,-1.6H548.9Z" class="g1_307"/>
<path d="M548.9,1041.6c0,0,-1.6,0,-1.6,1.6v21.3c0,0,0,1.5,1.6,1.5h89.9c0,0,1.5,0,1.5,-1.5v-21.3c0,0,0,-1.6,-1.5,-1.6H548.9ZM478.7,908.2H398.9" class="g5_307"/>
<path d="M345.4,896c0,0,-1.6,0,-1.6,1.6v21.2c0,0,0,1.6,1.6,1.6h89.9c0,0,1.5,0,1.5,-1.6V897.6c0,0,0,-1.6,-1.5,-1.6H345.4Z" class="g1_307"/>
<path d="M345.4,896c0,0,-1.6,0,-1.6,1.6v21.2c0,0,0,1.6,1.6,1.6h89.9c0,0,1.5,0,1.5,-1.6V897.6c0,0,0,-1.6,-1.5,-1.6H345.4Zm147,46.4H399.7" class="g5_307"/>
<path d="M346.2,930.3c0,0,-1.6,0,-1.6,1.6v21.2c0,0,0,1.6,1.6,1.6H436c0,0,1.6,0,1.6,-1.6V931.9c0,0,0,-1.6,-1.6,-1.6H346.2Z" class="g1_307"/>
<path d="M346.2,930.3c0,0,-1.6,0,-1.6,1.6v21.2c0,0,0,1.6,1.6,1.6H436c0,0,1.6,0,1.6,-1.6V931.9c0,0,0,-1.6,-1.6,-1.6H346.2Z" class="g5_307"/>
<path d="M346.2,971.6c0,0,-1.6,0,-1.6,1.6v21.3c0,0,0,1.5,1.6,1.5H436c0,0,1.6,0,1.6,-1.5V973.2c0,0,0,-1.6,-1.6,-1.6H346.2Z" class="g1_307"/>
<path d="M346.2,971.6c0,0,-1.6,0,-1.6,1.6v21.3c0,0,0,1.5,1.6,1.5H436c0,0,1.6,0,1.6,-1.5V973.2c0,0,0,-1.6,-1.6,-1.6H346.2Zm111.3,72.8H377.7" class="g5_307"/>
<path d="M324.2,1032.3c0,0,-1.6,0,-1.6,1.5v21.3c0,0,0,1.6,1.6,1.6h89.9c0,0,1.5,0,1.5,-1.6v-21.3c0,0,0,-1.5,-1.5,-1.5H324.2Z" class="g1_307"/>
<path d="M324.2,1032.3c0,0,-1.6,0,-1.6,1.5v21.3c0,0,0,1.6,1.6,1.6h89.9c0,0,1.5,0,1.5,-1.6v-21.3c0,0,0,-1.5,-1.5,-1.5H324.2Zm167,107.5H411.4" class="g5_307"/>
<path d="M357.9,1127.7c0,0,-1.6,0,-1.6,1.5v21.3c0,0,0,1.6,1.6,1.6h89.8c0,0,1.6,0,1.6,-1.6v-21.3c0,0,0,-1.5,-1.6,-1.5H357.9Z" class="g1_307"/>
<path d="M357.9,1127.7c0,0,-1.6,0,-1.6,1.5v21.3c0,0,0,1.6,1.6,1.6h89.8c0,0,1.6,0,1.6,-1.6v-21.3c0,0,0,-1.5,-1.6,-1.5H357.9ZM504.4,933.2l60.5,-40.3" class="g5_307"/>
<path d="M565.5,883.1c0,0,-1.5,0,-1.5,1.5v21.3c0,0,0,1.6,1.5,1.6h89.9c0,0,1.6,0,1.6,-1.6V884.6c0,0,0,-1.5,-1.6,-1.5H565.5Z" class="g1_307"/>
<path d="M565.5,883.1c0,0,-1.5,0,-1.5,1.5v21.3c0,0,0,1.6,1.5,1.6h89.9c0,0,1.6,0,1.6,-1.6V884.6c0,0,0,-1.5,-1.6,-1.5H565.5Zm-46.7,53.2L564.4,959" class="g5_307"/>
<path d="M565.5,946.7c0,0,-1.5,0,-1.5,1.5v21.3c0,0,0,1.6,1.5,1.6h89.9c0,0,1.6,0,1.6,-1.6V948.2c0,0,0,-1.5,-1.6,-1.5H565.5Z" class="g1_307"/>
<path d="M565.5,946.7c0,0,-1.5,0,-1.5,1.5v21.3c0,0,0,1.6,1.5,1.6h89.9c0,0,1.6,0,1.6,-1.6V948.2c0,0,0,-1.5,-1.6,-1.5H565.5Zm-73.8,19.2l-54.6,18.7M520,981.5L608.6,994" class="g5_307"/>
<path d="M607.3,982.4c0,0,-1.6,0,-1.6,1.5v21.3c0,0,0,1.6,1.6,1.6h89.9c0,0,1.5,0,1.5,-1.6V983.9c0,0,0,-1.5,-1.5,-1.5H607.3Z" class="g1_307"/>
<path d="M607.3,982.4c0,0,-1.6,0,-1.6,1.5v21.3c0,0,0,1.6,1.6,1.6h89.9c0,0,1.5,0,1.5,-1.6V983.9c0,0,0,-1.5,-1.5,-1.5H607.3Z" class="g5_307"/>
<path d="M343.7,923.1h99.1V893.3H343.7v29.8Z" class="g1_307"/>
<path d="M343.7,923.1h99.1V893.3H343.7v29.8Z" class="g6_307"/>
<path d="M343.7,957.8h99.1V927.9H343.7v29.9Z" class="g1_307"/>
<path d="M343.7,957.8h99.1V927.9H343.7v29.9Z" class="g6_307"/>
<path d="M343.7,998.5h99.1V968.6H343.7v29.9Z" class="g1_307"/>
<path d="M343.7,998.5h99.1V968.6H343.7v29.9Z" class="g6_307"/>
<path d="M319.4,1058.7h99.2v-29.9H319.4v29.9Z" class="g1_307"/>
<path d="M319.4,1058.7h99.2v-29.9H319.4v29.9Z" class="g6_307"/>
<path d="M354.1,1154.4h99.1v-29.9H354.1v29.9Z" class="g1_307"/>
<path d="M354.1,1154.4h99.1v-29.9H354.1v29.9Z" class="g6_307"/>
<path d="M562.8,910.1H662V880.3H562.8v29.8Z" class="g1_307"/>
<path d="M562.8,910.1H662V880.3H562.8v29.8Z" class="g6_307"/>
<path d="M562.8,973.8H662V943.9H562.8v29.9Z" class="g1_307"/>
<path d="M562.8,973.8H662V943.9H562.8v29.9Z" class="g6_307"/>
<path d="M604.4,1009.3h99.1V979.4H604.4v29.9Z" class="g1_307"/>
<path d="M604.4,1009.3h99.1V979.4H604.4v29.9Z" class="g6_307"/>
<path d="M545.1,1068.6h99.1v-29.8H545.1v29.8Z" class="g1_307"/>
<path d="M545.1,1068.6h99.1v-29.8H545.1v29.8Z" class="g6_307"/>
<path d="M558.9,1185.1h99.2v-29.8H558.9v29.8Z" class="g1_307"/>
<path d="M558.9,1185.1h99.2v-29.8H558.9v29.8Z" class="g6_307"/>
<path d="M208,902.6c0,0,-4.3,0,-4.3,4.3v14.7c0,0,0,4.4,4.1,5.8l52.4,18.5c0,0,4.1,1.5,4.1,-2.9V906.9c0,0,0,-4.3,-4.3,-4.3Z" class="g7_307"/>
<path d="M229.2,889.6c0,0,-13,0,-13,13v260.5c0,0,0,13,13,13h67.1c0,0,12.9,0,12.9,-13V902.6c0,0,0,-13,-12.9,-13Z" class="g8_307"/>
<path d="M208,900.4c0,0,-4.3,0,-4.3,4.3V922c0,0,0,4.4,4.3,4.4h37.3c0,0,4.3,0,4.3,-4.4V904.7c0,0,0,-4.3,-4.3,-4.3Z" class="g9_307"/>
<path d="M422.2,1214c0,0,-4.3,0,-4.3,4.4v10.8c0,0,0,4.3,4.3,4.3h30.3c0,0,4.4,0,4.4,-4.3v-10.8c0,0,0,-4.4,-4.4,-4.4Z" class="ga_307"/>
<path d="M409,1205.2v37.5m1.4,1H866.8m.9,-1.3v-37.6m-1.3,-1H410" class="gb_307"/>
<path d="M409,1243.1v.6h.6m457.5,0h.6v-.6m0,-38.7v-.6h-.6m-457.5,0H409v.6" class="gc_307"/>
<path d="M231.2,280.8c0,0,-12.9,0,-12.9,13v21.7c0,0,0,13,12.9,13H833.3c0,0,13,0,13,-13V293.8c0,0,0,-13,-13,-13Z" class="gd_307"/>
<image clip-path="url(#c5_307)" preserveAspectRatio="none" x="174" y="251" width="75" height="76" xlink:href="img/4.png"/>
<path d="M226,321.1c0,0,-26.8,11.3,-51.1,-12.7c0,0,15.2,25.3,49.3,23.9c0,0,24.8,.4,20.3,-10.1c0,0,1.2,-4.4,-18.5,-1.1Z" class="gd_307"/>
<path d="M233.3,764c0,0,-13,0,-13,13v21.6c0,0,0,13,13,13H854.9c0,0,13,0,13,-13V777c0,0,0,-13,-13,-13Z" class="gd_307"/>
<image clip-path="url(#c6_307)" preserveAspectRatio="none" x="176" y="734" width="75" height="77" xlink:href="img/5.png"/>
<path d="M228.1,804.3c0,0,-26.8,11.3,-51.1,-12.8c0,0,15.2,25.3,49.3,24c0,0,24.8,.3,20.3,-10.2c0,0,1.2,-4.4,-18.5,-1Z" class="gd_307"/>
<path d="M32.1,179.3H967.5V32.1H32.1V179.3Z" class="ge_307"/>
<g clip-path="url(#c0_307)">
<path d="M967.5,177.2H-877.3v-5.4h736.6c43.1,0,53.1,-37.9,115.3,-37.9H967.5Z" class="gf_307"/>
<path d="M967.5,183.7H-877.3v-9.8h736.6c43.1,0,53.1,-33.6,115.3,-33.6H967.5Z" class="gg_307"/>
</g>
<image clip-path="url(#c7_307)" preserveAspectRatio="none" x="659" y="59" width="200" height="118" xlink:href="img/6.png"/>
<path d="M153.3,217.5v22.2L165,250V227.8Z" class="gh_307"/>
<path d="M153.3,200.7v39H851.1c0,0,16.8,0,16.8,-16.8v-5.4c0,0,0,-16.8,-16.8,-16.8Z" class="ga_307"/>
<path d="M211.3,212.1l-6.5,-6.4l-21.2,21.2l6.5,6.4Z" class="gi_307"/>
<path d="M190.1,233.9c.1,0,.3,-.1,.4,-.2l21.2,-21.2c.1,-.1,.1,-.2,.1,-.4c0,-.1,0,-.2,-.1,-.3l-6.5,-6.5c-.2,-.2,-.6,-.2,-.8,0l-21.2,21.2c-.1,.1,-.1,.2,-.1,.4c0,.1,0,.2,.1,.3l6.5,6.5c.1,.1,.3,.2,.4,.2m20.5,-21.8l-20.5,20.5l-5.8,-5.7l20.5,-20.5Z" class="gj_307"/>
<path d="M211.3,212.1l-6.5,-6.4l2.1,-2.2l6.5,6.5Z" class="gk_307"/>
<path d="M211.3,212.7c.1,0,.3,-.1,.4,-.2l2.1,-2.1c.1,-.1,.2,-.2,.2,-.4c0,-.1,-.1,-.3,-.2,-.4l-6.5,-6.4c-.2,-.3,-.5,-.3,-.7,0l-2.2,2.1c-.1,.1,-.1,.2,-.1,.4c0,.1,0,.2,.1,.3l6.5,6.5c.1,.1,.3,.2,.4,.2m1.4,-2.7l-1.4,1.4l-5.7,-5.7l1.3,-1.4Z" class="gj_307"/>
<path d="M217,206.4l-6.4,-6.5l-3.7,3.6l6.5,6.5Z" class="gl_307"/>
<path d="M213.4,210.5c.2,0,.3,0,.4,-.1l3.6,-3.6c.2,-.2,.2,-.6,0,-.8l-6.5,-6.5c-.2,-.2,-.5,-.2,-.7,0l-3.6,3.7c-.2,.2,-.2,.5,0,.7l6.5,6.5c.1,.1,.2,.1,.3,.1m2.9,-4.1l-2.9,2.9l-5.7,-5.8l2.9,-2.8Z" class="gj_307"/>
<path d="M179,238l4.6,-11.1l6.5,6.4Z" class="g1_307"/>
<path d="M179,238.5c0,0,.1,0,.2,0l11.1,-4.7c.2,0,.3,-.2,.3,-.4c0,-.1,0,-.3,-.1,-.4L184,226.5c-.1,-.1,-.3,-.2,-.5,-.1c-.2,0,-.3,.1,-.4,.3l-4.6,11.1c-.1,.2,0,.4,.1,.6c.1,.1,.2,.1,.4,.1m10.2,-5.3l-9.3,3.8l3.9,-9.2Z" class="gj_307"/>
<path d="M179,238l2.2,-5.4l3.1,3.1Z" class="gj_307"/>
<path d="M179,238.5c0,0,.1,0,.2,0l5.3,-2.3c.2,0,.3,-.2,.4,-.4c0,-.1,-.1,-.3,-.2,-.4l-3.1,-3.2c-.1,-.1,-.3,-.1,-.5,-.1c-.2,0,-.3,.2,-.4,.3l-2.2,5.4c-.1,.2,0,.4,.1,.6c.1,.1,.2,.1,.4,.1m4.4,-2.9l-3.5,1.4l1.5,-3.5Z" class="gj_307"/>
<path d="M209.5,210.4l-2.9,-3l-21.2,21.2l2.9,3Z" class="gm_307"/>
<path d="M188.3,232.1c.2,0,.3,0,.4,-.1l21.2,-21.2c.1,-.1,.2,-.3,.2,-.4c0,-.2,-.1,-.3,-.2,-.4l-3,-3c-.2,-.2,-.5,-.2,-.7,0L185,228.3c-.1,.1,-.2,.2,-.2,.3c0,.2,.1,.3,.2,.4l3,3c.1,.1,.2,.1,.3,.1m20.5,-21.7l-20.5,20.4l-2.2,-2.2l20.5,-20.4Z" class="gj_307"/>
<path d="M32.1,45.1H9.2m958.3,0h22.9M32.1,1331.3H9.2m958.3,0h22.9M45.1,32.1V9.2m0,1335.1v22.9M954.5,32.1V9.2m0,1335.1v22.9" class="gn_307"/>
<path d="M32.1,45.1H9.2m958.3,0h22.9M32.1,1331.3H9.2m958.3,0h22.9M45.1,32.1V9.2m0,1335.1v22.9M954.5,32.1V9.2m0,1335.1v22.9" class="go_307"/>
<path d="M27.5,32.1H0m972.1,0h27.5M27.5,1344.3H0m972.1,0h27.5M32.1,27.5V0m0,1348.9v27.5M967.5,27.5V0m0,1348.9v27.5" class="gn_307"/>
<path d="M27.5,32.1H0m972.1,0h27.5M27.5,1344.3H0m972.1,0h27.5M32.1,27.5V0m0,1348.9v27.5M967.5,27.5V0m0,1348.9v27.5" class="go_307"/>
</svg>