<?xml version="1.0" encoding="UTF-8" standalone="no"?>
<!DOCTYPE svg PUBLIC "-//W3C//DTD SVG 1.1//EN"
"http://www.w3.org/Graphics/SVG/1.1/DTD/svg11.dtd">
<svg viewBox="0 0 999 1376" version="1.1" xmlns="http://www.w3.org/2000/svg" xmlns:xlink="http://www.w3.org/1999/xlink">
<defs>
<clipPath id="c0_166"><path d="M217.2,484.5V390h94.5v94.5Z"/></clipPath>
<clipPath id="c1_166"><path d="M377.7,484.5V390h94.5v94.5Z"/></clipPath>
<clipPath id="c2_166"><path d="M538.2,484.5V390h94.5v94.5Z"/></clipPath>
<clipPath id="c3_166"><path d="M698.7,484.5V390h94.6v94.5Z"/></clipPath>
<clipPath id="c4_166"><path d="M213.1,1068.5v-68H275v68Z"/></clipPath>
<clipPath id="c5_166"><path d="M365.1,1067v-64.9h67.3V1067Z"/></clipPath>
<clipPath id="c6_166"><path d="M533.2,1066.2v-64.1h64.2v64.1Z"/></clipPath>
<clipPath id="c7_166"><path d="M701.3,1061.6v-59.5h67.9v59.5Z"/></clipPath>
<clipPath id="c8_166"><path d="M217.2,337.9V243.4h94.5v94.5Z"/></clipPath>
<clipPath id="c9_166"><path d="M377.7,337.9V243.4h94.5v94.5Z"/></clipPath>
<clipPath id="ca_166"><path d="M538.2,337.9V243.4h94.5v94.5Z"/></clipPath>
<clipPath id="cb_166"><path d="M698.7,337.9V243.4h94.6v94.5Z"/></clipPath>
<clipPath id="cc_166"><path d="M176.6,228.6l-6.5,-2.1L153.7,212.6V155.5h72v73.1Z"/></clipPath>
<clipPath id="cd_166"><path d="M176.6,854.5l-6.5,-2.1l-16.4,-14V781.3h72v73.2Z"/></clipPath>
<clipPath id="ce_166"><path d="M176.6,939.5l-6.5,-2.1L153.7,923.5V866.4h72v73.1Z"/></clipPath>
<style type="text/css"><![CDATA[
.g0_166{
fill: #FEFCF4;
}
.g1_166{
fill: #FFF;
}
.g2_166{
fill: none;
stroke: #6381B7;
stroke-width: 0.763;
}
.g3_166{
fill: none;
stroke: #949698;
stroke-width: 1.298;
}
.g4_166{
fill: none;
stroke: #231F20;
stroke-width: 1.527;
}
.g5_166{
fill: #ABB2C9;
}
.g6_166{
fill: #EFE9CC;
}
.g7_166{
fill: #6381B7;
}
.g8_166{
fill: none;
stroke: #6381B7;
stroke-width: 0.381;
stroke-dasharray: 2,1;
}
.g9_166{
fill: none;
stroke: #6381B7;
stroke-width: 0.381;
}
.ga_166{
fill: #FCE8B0;
}
.gb_166{
fill: #25408F;
}
.gc_166{
fill: #00BAF1;
}
.gd_166{
fill: #332D2C;
}
.ge_166{
fill: #D9DFF0;
}
.gf_166{
fill: #F27C85;
}
.gg_166{
fill: #7DD3F6;
}
.gh_166{
fill: none;
stroke: #C756A0;
stroke-width: 1.527;
}
.gi_166{
fill: #C756A0;
}
.gj_166{
fill: none;
stroke: #FFF;
stroke-width: 1.909;
stroke-miterlimit: 10;
}
.gk_166{
fill: none;
stroke: #000;
stroke-width: 0.381;
stroke-miterlimit: 10;
}
]]></style>
</defs>
<path d="M32.1,1344.3H954.5V32.1H32.1V1344.3Z" class="g0_166"/>
<path d="M150.4,133.7c0,0,-18.3,0,-18.3,18.3V612.6c0,0,0,18.3,18.3,18.3H827.5c0,0,18.4,0,18.4,-18.3V133.7Z" class="g1_166"/>
<path d="M150.4,133.7c0,0,-18.3,0,-18.3,18.3V612.6c0,0,0,18.3,18.3,18.3H827.5c0,0,18.4,0,18.4,-18.3V133.7H150.4Z" class="g2_166"/>
<path d="M185.8,488.1H829.7V384.2H185.8V488.1Z" class="g1_166"/>
<image clip-path="url(#c0_166)" preserveAspectRatio="none" x="217" y="390" width="95" height="95" xlink:href="img/1.jpg"/>
<path d="M192.6,484.5H336.2V390H192.6v94.5Z" class="g3_166"/>
<image clip-path="url(#c1_166)" preserveAspectRatio="none" x="378" y="390" width="94" height="95" xlink:href="img/2.jpg"/>
<path d="M353.2,484.5H496.7V390H353.2v94.5Z" class="g3_166"/>
<image clip-path="url(#c2_166)" preserveAspectRatio="none" x="538" y="390" width="95" height="95" xlink:href="img/3.jpg"/>
<path d="M513.7,484.5H657.3V390H513.7v94.5Z" class="g3_166"/>
<image clip-path="url(#c3_166)" preserveAspectRatio="none" x="699" y="390" width="94" height="95" xlink:href="img/4.jpg"/>
<path d="M674.2,484.5H817.8V390H674.2v94.5Z" class="g3_166"/>
<path d="M197.6,541.4c-.3,0,-.6,.1,-.8,.3c-.2,.2,-.3,.5,-.3,.8c0,.3,.1,.6,.3,.8c.2,.2,.5,.3,.8,.3c.2,0,.5,-.1,.7,-.3c.2,-.2,.3,-.5,.3,-.8c0,-.3,-.1,-.6,-.3,-.8c-.2,-.2,-.5,-.3,-.7,-.3Zm0,24.4c-.3,0,-.6,.1,-.8,.4c-.2,.2,-.3,.4,-.3,.7c0,.4,.1,.6,.3,.8c.2,.2,.5,.4,.8,.4c.2,0,.5,-.2,.7,-.4c.2,-.2,.3,-.4,.3,-.8c0,-.3,-.1,-.5,-.3,-.7c-.2,-.3,-.5,-.4,-.7,-.4Zm0,24.5c-.3,0,-.6,.1,-.8,.3c-.2,.2,-.3,.5,-.3,.8c0,.3,.1,.6,.3,.8c.2,.2,.5,.3,.8,.3c.2,0,.5,-.1,.7,-.3c.2,-.2,.3,-.5,.3,-.8c0,-.3,-.1,-.6,-.3,-.8c-.2,-.2,-.5,-.3,-.7,-.3Zm0,24.4c-.3,0,-.6,.1,-.8,.3c-.2,.3,-.3,.5,-.3,.8c0,.3,.1,.6,.3,.8c.2,.2,.5,.3,.8,.3c.2,0,.5,-.1,.7,-.3c.2,-.2,.3,-.5,.3,-.8c0,-.3,-.1,-.5,-.3,-.8c-.2,-.2,-.5,-.3,-.7,-.3Z" class="g4_166"/>
<path d="M145.1,950.6c0,0,-13,0,-13,13v228.7c0,0,0,13,13,13H832.9c0,0,13,0,13,-13V963.6c0,0,0,-13,-13,-13Z" class="g1_166"/>
<path d="M145.1,950.6c0,0,-13,0,-13,13v228.7c0,0,0,13,13,13H832.9c0,0,13,0,13,-13V963.6c0,0,0,-13,-13,-13H145.1Z" class="g2_166"/>
<path d="M213.7,1073.4h60.7V997.6H213.7v75.8Z" class="g1_166"/>
<image clip-path="url(#c4_166)" preserveAspectRatio="none" x="212" y="1001" width="67" height="67" xlink:href="img/5.jpg"/>
<path d="M361.5,1073.4h86.6v-70.7H361.5v70.7Z" class="g1_166"/>
<image clip-path="url(#c5_166)" preserveAspectRatio="none" x="365" y="999" width="67" height="67" xlink:href="img/6.jpg"/>
<path d="M523,1073.4h73.7v-70.7H523v70.7Z" class="g1_166"/>
<image clip-path="url(#c6_166)" preserveAspectRatio="none" x="534" y="998" width="67" height="68" xlink:href="img/7.jpg"/>
<path d="M691.8,1073.4h77.9v-70.7H691.8v70.7Z" class="g1_166"/>
<image clip-path="url(#c7_166)" preserveAspectRatio="none" x="702" y="994" width="67" height="67" xlink:href="img/8.jpg"/>
<path d="M236.9,1097.9c2,0,3.6,-1.6,3.6,-3.6c0,-2,-1.6,-3.6,-3.6,-3.6c-2,0,-3.6,1.6,-3.6,3.6c0,2,1.6,3.6,3.6,3.6Z" class="g5_166"/>
<path d="M570.3,1097.9c2,0,3.6,-1.6,3.6,-3.6c0,-2,-1.6,-3.6,-3.6,-3.6c-2,0,-3.6,1.6,-3.6,3.6c0,2,1.6,3.6,3.6,3.6Z" class="g5_166"/>
<path d="M392,1097.9c2,0,3.7,-1.6,3.7,-3.6c0,-2,-1.7,-3.6,-3.7,-3.6c-1.9,0,-3.6,1.6,-3.6,3.6c0,2,1.7,3.6,3.6,3.6Z" class="g5_166"/>
<path d="M727,1097.9c1.9,0,3.6,-1.6,3.6,-3.6c0,-2,-1.7,-3.6,-3.6,-3.6c-2,0,-3.7,1.6,-3.7,3.6c0,2,1.7,3.6,3.7,3.6Z" class="g5_166"/>
<path d="M238.5,1150.9c2,0,3.6,-1.6,3.6,-3.6c0,-2,-1.6,-3.6,-3.6,-3.6c-2,0,-3.7,1.6,-3.7,3.6c0,2,1.7,3.6,3.7,3.6Z" class="g5_166"/>
<path d="M569.8,1150.9c2,0,3.6,-1.6,3.6,-3.6c0,-2,-1.6,-3.6,-3.6,-3.6c-2,0,-3.7,1.6,-3.7,3.6c0,2,1.7,3.6,3.7,3.6Z" class="g5_166"/>
<path d="M393.6,1150.9c2,0,3.6,-1.6,3.6,-3.6c0,-2,-1.6,-3.6,-3.6,-3.6c-2,0,-3.6,1.6,-3.6,3.6c0,2,1.6,3.6,3.6,3.6Z" class="g5_166"/>
<path d="M726.4,1150.9c2,0,3.6,-1.6,3.6,-3.6c0,-2,-1.6,-3.6,-3.6,-3.6c-2,0,-3.6,1.6,-3.6,3.6c0,2,1.6,3.6,3.6,3.6Z" class="g5_166"/>
<path d="M202.7,1160.3c0,0,-8.6,0,-8.6,8.7v15.2c0,0,0,8.6,8.6,8.6H272c0,0,8.7,0,8.7,-8.6V1169c0,0,0,-8.7,-8.7,-8.7Z" class="g6_166"/>
<path d="M538.7,1160.3c0,0,-8.6,0,-8.6,8.7v15.2c0,0,0,8.6,8.6,8.6H608c0,0,8.7,0,8.7,-8.6V1169c0,0,0,-8.7,-8.7,-8.7Z" class="g6_166"/>
<path d="M366.9,1160.3c0,0,-8.6,0,-8.6,8.7v15.2c0,0,0,8.6,8.6,8.6h69.3c0,0,8.7,0,8.7,-8.6V1169c0,0,0,-8.7,-8.7,-8.7Z" class="g6_166"/>
<path d="M695.9,1160.3c0,0,-8.6,0,-8.6,8.7v15.2c0,0,0,8.6,8.6,8.6h69.3c0,0,8.7,0,8.7,-8.6V1169c0,0,0,-8.7,-8.7,-8.7Z" class="g6_166"/>
<path d="M643.1,1220.4c0,0,-4.3,0,-4.3,4.3v10.9c0,0,0,4.3,4.3,4.3h30.3c0,0,4.3,0,4.3,-4.3v-10.9c0,0,0,-4.3,-4.3,-4.3Z" class="g7_166"/>
<path d="M629.9,1211.6v37.5m1.4,1H845.1m1,-1.4v-37.5m-1.4,-1H630.9" class="g8_166"/>
<path d="M629.9,1249.5v.6h.6m215,0h.6v-.6m0,-38.7v-.6h-.6m-215,0h-.6v.6" class="g9_166"/>
<path d="M185.8,341.7H829.7V234.3H185.8V341.7Z" class="g1_166"/>
<image clip-path="url(#c8_166)" preserveAspectRatio="none" x="217" y="243" width="95" height="95" xlink:href="img/9.jpg"/>
<path d="M192.6,337.9H336.2V243.4H192.6v94.5Z" class="g3_166"/>
<image clip-path="url(#c9_166)" preserveAspectRatio="none" x="378" y="243" width="94" height="95" xlink:href="img/10.jpg"/>
<path d="M353.2,337.9H496.7V243.4H353.2v94.5Z" class="g3_166"/>
<image clip-path="url(#ca_166)" preserveAspectRatio="none" x="538" y="243" width="95" height="95" xlink:href="img/11.jpg"/>
<path d="M513.7,337.9H657.3V243.4H513.7v94.5Z" class="g3_166"/>
<image clip-path="url(#cb_166)" preserveAspectRatio="none" x="699" y="243" width="94" height="95" xlink:href="img/12.jpg"/>
<path d="M674.2,337.9H817.8V243.4H674.2v94.5Z" class="g3_166"/>
<path d="M209.2,183.7c0,0,-13,0,-13,12.9v21.7c0,0,0,13,13,13h602c0,0,13,0,13,-13V196.6c0,0,0,-12.9,-13,-12.9Z" class="ga_166"/>
<image clip-path="url(#cc_166)" preserveAspectRatio="none" x="152" y="154" width="75" height="76" xlink:href="img/13.png"/>
<path d="M204,223.9c0,0,-26.8,11.3,-51.1,-12.7c0,0,15.2,25.3,49.3,23.9c0,0,24.8,.4,20.3,-10.1c0,0,1.2,-4.4,-18.5,-1.1Z" class="ga_166"/>
<path d="M209.2,766.2c0,0,-13,0,-13,13v64.9c0,0,0,13,13,13H833.5c0,0,13,0,13,-13V779.2c0,0,0,-13,-13,-13Z" class="ga_166"/>
<image clip-path="url(#cd_166)" preserveAspectRatio="none" x="152" y="780" width="75" height="76" xlink:href="img/14.png"/>
<path d="M204,849.8c0,0,-26.8,11.3,-51.1,-12.8c0,0,15.2,25.3,49.3,24c0,0,24.8,.3,20.3,-10.1c0,0,1.2,-4.5,-18.5,-1.1Z" class="ga_166"/>
<path d="M209.2,894.5c0,0,-13,0,-13,13v21.7c0,0,0,13,13,13H830.8c0,0,13,0,13,-13V907.5c0,0,0,-13,-13,-13Z" class="ga_166"/>
<image clip-path="url(#ce_166)" preserveAspectRatio="none" x="152" y="865" width="75" height="76" xlink:href="img/15.png"/>
<path d="M204,934.8c0,0,-26.8,11.3,-51.1,-12.8c0,0,15.2,25.3,49.3,24c0,0,24.8,.3,20.3,-10.1c0,0,1.2,-4.5,-18.5,-1.1Z" class="ga_166"/>
<path d="M131.7,126.7v22.2l11.7,10.3V137Z" class="gb_166"/>
<path d="M131.7,109.9v39H829.4c0,0,16.9,0,16.9,-16.8v-5.4c0,0,0,-16.8,-16.9,-16.8Z" class="g7_166"/>
<path d="M189.6,121.3l-6.4,-6.5L162,136l6.4,6.5Z" class="gc_166"/>
<path d="M168.4,143c.2,0,.3,0,.4,-.1L190,121.7c.1,-.1,.2,-.3,.2,-.4c0,-.1,-.1,-.3,-.2,-.4l-6.5,-6.4c-.2,-.2,-.5,-.2,-.7,0l-21.2,21.2c-.1,.1,-.2,.2,-.2,.3c0,.2,.1,.3,.2,.4l6.5,6.5c.1,.1,.2,.1,.3,.1m20.5,-21.7l-20.5,20.5L162.7,136l20.5,-20.4Z" class="gd_166"/>
<path d="M189.6,121.3l-6.4,-6.5l2.1,-2.1l6.5,6.5Z" class="ge_166"/>
<path d="M189.6,121.8c.2,0,.3,0,.4,-.1l2.1,-2.1c.1,-.1,.2,-.3,.2,-.4c0,-.2,-.1,-.3,-.2,-.4l-6.4,-6.5c-.2,-.2,-.6,-.2,-.8,0l-2.1,2.2c-.1,0,-.2,.2,-.2,.3c0,.2,.1,.3,.2,.4l6.5,6.5c.1,.1,.2,.1,.3,.1m1.4,-2.6l-1.4,1.4l-5.7,-5.8l1.4,-1.4Z" class="gd_166"/>
<path d="M195.4,115.6l-6.5,-6.5l-3.6,3.6l6.5,6.5Z" class="gf_166"/>
<path d="M191.8,119.7c.1,0,.2,0,.3,-.1l3.7,-3.7c.2,-.2,.2,-.5,0,-.7l-6.5,-6.5c-.2,-.2,-.6,-.2,-.8,0l-3.6,3.6c-.2,.2,-.2,.6,0,.8l6.5,6.5c.1,.1,.2,.1,.4,.1m2.8,-4.1l-2.8,2.8L186,112.7l2.9,-2.9Z" class="gd_166"/>
<path d="M157.3,147.2L162,136l6.4,6.5Z" class="g1_166"/>
<path d="M157.3,147.7c.1,0,.2,0,.2,-.1L168.6,143c.2,-.1,.3,-.2,.4,-.4c0,-.2,-.1,-.3,-.2,-.5l-6.5,-6.4c-.1,-.2,-.3,-.2,-.5,-.2c-.1,.1,-.3,.2,-.3,.3l-4.7,11.1c0,.2,0,.5,.1,.6c.1,.1,.3,.2,.4,.2m10.2,-5.4l-9.2,3.9l3.8,-9.2Z" class="gd_166"/>
<path d="M157.3,147.2l2.3,-5.4l3.1,3.1Z" class="gd_166"/>
<path d="M157.3,147.7c.1,0,.2,0,.2,-.1l5.4,-2.2c.1,-.1,.3,-.2,.3,-.4c0,-.2,0,-.3,-.1,-.5l-3.2,-3.1c-.1,-.1,-.3,-.2,-.4,-.1c-.2,0,-.4,.1,-.4,.3l-2.3,5.3c0,.2,0,.5,.1,.6c.1,.1,.3,.2,.4,.2m4.5,-3l-3.5,1.5l1.4,-3.5Z" class="gd_166"/>
<path d="M187.9,119.5l-3,-2.9l-21.2,21.2l3,3Z" class="gg_166"/>
<path d="M166.7,141.3c.1,0,.2,-.1,.3,-.2l21.3,-21.2c.1,-.1,.1,-.2,.1,-.4c0,-.1,0,-.2,-.1,-.3l-3,-3c-.2,-.2,-.5,-.2,-.8,0l-21.2,21.2c-.1,.1,-.1,.3,-.1,.4c0,.1,0,.3,.1,.4l3,2.9c.1,.1,.2,.2,.4,.2m20.4,-21.8L166.7,140l-2.2,-2.2l20.4,-20.5Z" class="gd_166"/>
<path d="M150.4,655.9c0,0,-18.3,0,-18.3,18.3v61.4c0,0,0,18.4,18.3,18.4H827.5c0,0,18.4,0,18.4,-18.4V674.2c0,0,0,-18.3,-18.4,-18.3Z" class="g1_166"/>
<path d="M150.4,655.9c0,0,-18.3,0,-18.3,18.3v61.4c0,0,0,18.4,18.3,18.4H827.5c0,0,18.4,0,18.4,-18.4V674.2c0,0,0,-18.3,-18.4,-18.3H150.4Z" class="gh_166"/>
<path d="M159.6,639c0,0,-6.3,0,-6.3,6.2v19.4c0,0,0,6.2,6.3,6.2H310.8c0,0,6.2,0,6.2,-6.2V645.2c0,0,0,-6.2,-6.2,-6.2Z" class="gi_166"/>
<path d="M32.1,45.1H9.2m958.3,0h22.9M32.1,1331.3H9.2m958.3,0h22.9M45.1,32.1V9.2m0,1335.1v22.9M954.5,32.1V9.2m0,1335.1v22.9" class="gj_166"/>
<path d="M32.1,45.1H9.2m958.3,0h22.9M32.1,1331.3H9.2m958.3,0h22.9M45.1,32.1V9.2m0,1335.1v22.9M954.5,32.1V9.2m0,1335.1v22.9" class="gk_166"/>
<path d="M27.5,32.1H0m972.1,0h27.5M27.5,1344.3H0m972.1,0h27.5M32.1,27.5V0m0,1348.9v27.5M967.5,27.5V0m0,1348.9v27.5" class="gj_166"/>
<path d="M27.5,32.1H0m972.1,0h27.5M27.5,1344.3H0m972.1,0h27.5M32.1,27.5V0m0,1348.9v27.5M967.5,27.5V0m0,1348.9v27.5" class="gk_166"/>
</svg>