<?xml version="1.0" encoding="UTF-8" standalone="no"?>
<!DOCTYPE svg PUBLIC "-//W3C//DTD SVG 1.1//EN"
"http://www.w3.org/Graphics/SVG/1.1/DTD/svg11.dtd">
<svg viewBox="0 0 999 1376" version="1.1" xmlns="http://www.w3.org/2000/svg" xmlns:xlink="http://www.w3.org/1999/xlink">
<defs>
<clipPath id="c0_312"><path d="M555.3,590.6V467.4H695.9l8.9,75.6v47.6Z"/></clipPath>
<clipPath id="c1_312"><path d="M225.3,591.1V467.3H365.1V591.1Z"/></clipPath>
<clipPath id="c2_312"><path d="M374.8,569.5v-1.3l100.3,-.5v1.8Z"/></clipPath>
<clipPath id="c3_312"><path d="M224.8,595.9V467.4H365.4l6.2,100.8l175.5,-.8l.6,-100H695.9l11.8,100l116.9,.4v28.1Z"/></clipPath>
<clipPath id="c4_312"><path d="M710.8,569.5v-2.1l100.3,.3v1.8Z"/></clipPath>
<clipPath id="c5_312"><path d="M553.9,815.3v-25h1l.6,-99.9H698.1L706.2,793l4.6,-.1v.6h10.7v21.8Z"/></clipPath>
<clipPath id="c6_312"><path d="M224.8,815.3V690.4H365.4l5.6,91.4v33.5Z"/></clipPath>
<clipPath id="c7_312"><path d="M374.8,793.5v-2.3l100.3,-.5v2.8Z"/></clipPath>
<clipPath id="c8_312"><path d="M224.8,818.9V690.4H365.4l6.2,100.8l183.3,-.9l.6,-99.9H698.1L706.2,793l118.4,-1.1v27Z"/></clipPath>
<clipPath id="c9_312"><path d="M721.5,793.5v-.6l89.6,-.9v1.5Z"/></clipPath>
<clipPath id="ca_312"><path d="M710.8,793.5v-.6h10.7v.6Z"/></clipPath>
<clipPath id="cb_312"><path d="M271.5,388.1V257H387.2l2,107.8L500.1,364v24.1Z"/></clipPath>
<clipPath id="cc_312"><path d="M386,372.6V263.7H503.7V372.6Z"/></clipPath>
<clipPath id="cd_312"><path d="M371,561.1V482.5H479.9v78.6Z"/></clipPath>
<clipPath id="ce_312"><path d="M360.1,787.6V696.8H493.2v90.8Z"/></clipPath>
<clipPath id="cf_312"><path d="M706.6,561.1V482.5H815.5v78.6Z"/></clipPath>
<clipPath id="cg_312"><path d="M688.8,787.4V708.8H826.3v78.6Z"/></clipPath>
<style type="text/css"><![CDATA[
.g0_312{
fill: none;
stroke: #6381B7;
stroke-width: 0.763;
}
.g1_312{
fill: #48484A;
}
.g2_312{
fill: #F0E8F3;
}
.g3_312{
fill: #6381B7;
}
.g4_312{
fill: none;
stroke: #6381B7;
stroke-width: 0.381;
stroke-dasharray: 2,1;
}
.g5_312{
fill: none;
stroke: #6381B7;
stroke-width: 0.381;
}
.g6_312{
fill: #F1E6CF;
}
.g7_312{
fill: none;
stroke: #D1232A;
stroke-width: 2.814;
}
.g8_312{
fill: #F4EDDD;
}
.g9_312{
fill: #766FA6;
}
.ga_312{
fill: #25408F;
}
.gb_312{
fill: #F37553;
}
.gc_312{
fill: #363637;
}
.gd_312{
fill: #EAD646;
}
.ge_312{
fill: #506CB4;
}
.gf_312{
fill: #5CC4BE;
}
.gg_312{
fill: none;
stroke: #FFF;
stroke-width: 1.909;
stroke-miterlimit: 10;
}
.gh_312{
fill: none;
stroke: #000;
stroke-width: 0.381;
stroke-miterlimit: 10;
}
]]></style>
</defs>
<path d="M145.1,167.9c0,0,-13,0,-13,13V863.2c0,0,0,13,13,13H832.9c0,0,13,0,13,-13V180.9c0,0,0,-13,-13,-13H145.1Z" class="g0_312"/>
<path d="M170.7,247.9c0,0,-4.4,0,-4.4,4.3v14.4c0,0,0,4.3,4.1,5.8l52.5,18.2c0,0,4.1,1.4,4.1,-2.9V252.2c0,0,0,-4.3,-4.4,-4.3Z" class="g1_312"/>
<path d="M191.8,235.1c0,0,-13,0,-13,13V411c0,0,0,13,13,13H789.4c0,0,13,0,13,-13V248.1c0,0,0,-13,-13,-13Z" class="g2_312"/>
<path d="M340,894c0,0,-4.4,0,-4.4,4.3v10.8c0,0,0,4.4,4.4,4.4h30.3c0,0,4.3,0,4.3,-4.4V898.3c0,0,0,-4.3,-4.3,-4.3Z" class="g3_312"/>
<path d="M326.8,887.6v200.8m1.3,1h517m.9,-1.4V887.2m-1.3,-.9h-517" class="g4_312"/>
<path d="M326.8,1088.8v.6h.6m518.1,0h.5v-.6m0,-201.9v-.6h-.5m-518.1,0h-.6v.6" class="g5_312"/>
<image clip-path="url(#c0_312)" preserveAspectRatio="none" x="555" y="460" width="150" height="132" xlink:href="img/1.jpg"/>
<image clip-path="url(#c1_312)" preserveAspectRatio="none" x="225" y="461" width="140" height="130" xlink:href="img/2.jpg"/>
<image clip-path="url(#c2_312)" preserveAspectRatio="none" x="374" y="485" width="101" height="85" xlink:href="img/3.jpg"/>
<g clip-path="url(#c3_312)">
<path d="M382.2,487.3c0,0,-6,0,-6,6v63.1c0,0,0,6,6,6H462c0,0,6,0,6,-6V493.3c0,0,0,-6,-6,-6H382.2Z" class="g6_312"/>
<path d="M411.4,570.1l21.4,19.5m0,-19.5l-21.4,19.5" class="g7_312"/>
</g>
<image clip-path="url(#c4_312)" preserveAspectRatio="none" x="711" y="485" width="100" height="85" xlink:href="img/4.jpg"/>
<g clip-path="url(#c3_312)">
<path d="M718.3,487.3c0,0,-6,0,-6,6v63.1c0,0,0,6,6,6H798c0,0,6,0,6,-6V493.3c0,0,0,-6,-6,-6H718.3Z" class="g6_312"/>
<path d="M747.4,570.1l21.5,19.5m0,-19.5l-21.5,19.5" class="g7_312"/>
</g>
<image clip-path="url(#c5_312)" preserveAspectRatio="none" x="554" y="687" width="167" height="129" xlink:href="img/5.jpg"/>
<image clip-path="url(#c6_312)" preserveAspectRatio="none" x="225" y="686" width="146" height="131" xlink:href="img/6.jpg"/>
<image clip-path="url(#c7_312)" preserveAspectRatio="none" x="374" y="709" width="101" height="85" xlink:href="img/7.jpg"/>
<g clip-path="url(#c8_312)">
<path d="M382.2,711.3c0,0,-6,0,-6,6v63.1c0,0,0,6,6,6H462c0,0,6,0,6,-6V717.3c0,0,0,-6,-6,-6H382.2Z" class="g6_312"/>
<path d="M411.4,794.1l21.4,19.4m0,-19.4l-21.4,19.4" class="g7_312"/>
</g>
<image clip-path="url(#c9_312)" preserveAspectRatio="none" x="721" y="709" width="90" height="85" xlink:href="img/8.jpg"/>
<image clip-path="url(#ca_312)" preserveAspectRatio="none" x="711" y="709" width="11" height="85" xlink:href="img/9.jpg"/>
<g clip-path="url(#c8_312)">
<path d="M718.3,711.3c0,0,-6,0,-6,6v63.1c0,0,0,6,6,6H798c0,0,6,0,6,-6V717.3c0,0,0,-6,-6,-6H718.3Z" class="g6_312"/>
<path d="M747.4,794.1l21.5,19.4m0,-19.4l-21.5,19.4" class="g7_312"/>
</g>
<image clip-path="url(#cb_312)" preserveAspectRatio="none" x="270" y="255" width="232" height="135" xlink:href="img/10.jpg"/>
<image clip-path="url(#cc_312)" preserveAspectRatio="none" x="386" y="264" width="117" height="109" xlink:href="img/11.png"/>
<path d="M397.9,266.9c0,0,-8.7,0,-8.7,8.7v82.3c0,0,0,8.6,8.7,8.6h90.9c0,0,8.7,0,8.7,-8.6V275.6c0,0,0,-8.7,-8.7,-8.7Z" class="g8_312"/>
<image clip-path="url(#cd_312)" preserveAspectRatio="none" x="370" y="483" width="110" height="78" xlink:href="img/12.png"/>
<path d="M382.9,485.7c0,0,-8.7,0,-8.7,8.7v52c0,0,0,8.6,8.7,8.6h82.3c0,0,8.6,0,8.6,-8.6v-52c0,0,0,-8.7,-8.6,-8.7Z" class="g8_312"/>
<image clip-path="url(#ce_312)" preserveAspectRatio="none" x="360" y="697" width="133" height="91" xlink:href="img/13.png"/>
<path d="M372,700.1c0,0,-8.6,0,-8.6,8.7v63.8c0,0,0,8.7,8.6,8.7H478.1c0,0,8.7,0,8.7,-8.7V708.8c0,0,0,-8.7,-8.7,-8.7Z" class="g8_312"/>
<image clip-path="url(#cf_312)" preserveAspectRatio="none" x="706" y="483" width="109" height="78" xlink:href="img/14.png"/>
<path d="M718.5,485.7c0,0,-8.7,0,-8.7,8.7v52c0,0,0,8.6,8.7,8.6h82.3c0,0,8.6,0,8.6,-8.6v-52c0,0,0,-8.7,-8.6,-8.7Z" class="g8_312"/>
<image clip-path="url(#cg_312)" preserveAspectRatio="none" x="688" y="709" width="138" height="78" xlink:href="img/15.png"/>
<path d="M700.7,712c0,0,-8.6,0,-8.6,8.7v51.9c0,0,0,8.7,8.6,8.7H811.6c0,0,8.7,0,8.7,-8.7V720.7c0,0,0,-8.7,-8.7,-8.7Z" class="g8_312"/>
<path d="M170.7,245.7c0,0,-4.4,0,-4.4,4.4V267c0,0,0,4.3,4.4,4.3h30.8c0,0,4.4,0,4.4,-4.3V250.1c0,0,0,-4.4,-4.4,-4.4Z" class="g9_312"/>
<path d="M132.2,126.3v22.2l11.7,10.2V136.5Z" class="ga_312"/>
<path d="M132.2,109.5v39H829.9c0,0,16.9,0,16.9,-16.8v-5.4c0,0,0,-16.8,-16.9,-16.8Z" class="g3_312"/>
<path d="M166,111.6c.7,-.6,1.7,-.8,2.5,-.6l1.3,-1.3l-6.2,-6.1l-6.1,6.1l-1.3,-1.3c.2,-.8,0,-1.8,-.6,-2.4c-1,-1,-2.6,-1,-3.6,0c-1,1,-1,2.6,0,3.6c.6,.6,1.6,.9,2.4,.6l1.3,1.3l-6.1,6.1l6.1,6.2l-1.3,1.3c-.8,-.3,-1.8,-.1,-2.4,.6c-1,1,-1,2.6,0,3.6c1,1,2.6,1,3.6,0c.6,-.7,.9,-1.6,.6,-2.4l1.3,-1.3l6.1,6.1l6.2,-6.1l-1.3,-1.3c-.9,.2,-1.8,0,-2.5,-.7c-1,-1,-1,-2.6,0,-3.6c1,-1,2.6,-1,3.6,0c.7,.7,.9,1.6,.7,2.5l1.3,1.3l6.1,-6.2l-6.1,-6.1l-1.3,1.3c.2,.8,0,1.8,-.7,2.4c-1,1,-2.6,1,-3.6,0c-1,-.9,-1,-2.6,0,-3.6Z" class="gb_312"/>
<path d="M163.6,132.3l-6.1,-6.2l-.8,.9c.1,.9,-.2,1.9,-.8,2.6c-1.2,1.1,-3.1,1.1,-4.2,0c-1.2,-1.2,-1.2,-3,0,-4.2c.7,-.7,1.6,-1,2.6,-.8l.8,-.8L149,117.6l6.1,-6.1l-.8,-.8c-1,.1,-1.9,-.2,-2.6,-.8c-.6,-.6,-.9,-1.3,-.9,-2.1c0,-.8,.3,-1.5,.9,-2.1c1.1,-1.1,3,-1.1,4.1,0c.7,.7,1,1.7,.9,2.6l.8,.8l6.1,-6.1l6.7,6.7l-1.7,1.7h-.2c-.7,-.2,-1.5,0,-2.1,.5c-.8,.9,-.8,2.2,0,3.1c.9,.8,2.2,.8,3.1,0c.5,-.6,.7,-1.4,.5,-2.1v-.2l1.7,-1.7l6.7,6.6l-6.7,6.7l-1.8,-1.7l.1,-.2c.2,-.8,0,-1.5,-.6,-2.1c-.4,-.4,-.9,-.6,-1.5,-.6c-.5,0,-1.1,.2,-1.5,.6c-.8,.8,-.8,2.2,0,3c.5,.6,1.3,.8,2.1,.6l.2,-.1l1.7,1.8ZM157.5,125l6.1,6.1l5.6,-5.5l-.8,-.9c-1,.2,-2,-.1,-2.7,-.8c-.5,-.5,-.8,-1.3,-.8,-2.1c0,-.7,.3,-1.5,.8,-2c.6,-.6,1.3,-.9,2.1,-.9c.8,0,1.6,.3,2.1,.9c.7,.6,1,1.6,.8,2.6l.9,.8l5.5,-5.6l-5.5,-5.5l-.9,.8c.2,1,-.1,1.9,-.8,2.6c-1.1,1.2,-3,1.2,-4.1,0c-1.2,-1.1,-1.2,-3,0,-4.1c.6,-.7,1.6,-1,2.6,-.8l.8,-.9l-5.6,-5.6l-6.1,6.2l-1.7,-1.7v-.3c.2,-.7,0,-1.5,-.5,-2c-.9,-.9,-2.2,-.9,-3.1,0c-.4,.4,-.6,.9,-.6,1.5c0,.6,.2,1.1,.6,1.5c.6,.5,1.4,.8,2.1,.6l.2,-.1l1.8,1.7l-6.2,6.1l6.2,6.2l-1.8,1.7l-.2,-.1c-.7,-.2,-1.5,.1,-2,.6c-.9,.8,-.9,2.2,0,3c.8,.9,2.2,.9,3,0c.5,-.5,.7,-1.3,.5,-2v-.3Z" class="gc_312"/>
<path d="M196.6,122.1c.9,0,1.8,.5,2.2,1.3h1.8v-8.7h-8.7v-1.8c.8,-.4,1.3,-1.2,1.3,-2.2c0,-1.4,-1.1,-2.5,-2.5,-2.5c-1.5,0,-2.6,1.1,-2.6,2.5c0,1,.5,1.8,1.3,2.2v1.8h-8.7v8.7h-1.8c-.4,-.8,-1.2,-1.3,-2.2,-1.3c-1.4,0,-2.5,1.2,-2.5,2.6c0,1.4,1.1,2.5,2.5,2.5c1,0,1.8,-.5,2.2,-1.2h1.8v8.6h8.7v-1.8c-.8,-.4,-1.3,-1.2,-1.3,-2.2c0,-1.4,1.2,-2.5,2.6,-2.5c1.4,0,2.5,1.1,2.5,2.5c0,1,-.5,1.8,-1.3,2.2v1.8h8.7V126h-1.8c-.4,.7,-1.2,1.2,-2.2,1.2c-1.4,0,-2.5,-1.1,-2.5,-2.5c0,-1.4,1.1,-2.6,2.5,-2.6Z" class="gd_312"/>
<path d="M201,135h-9.5v-2.4l.2,-.1c.7,-.4,1.1,-1.1,1.1,-1.9c0,-1.2,-1,-2.1,-2.1,-2.1c-1.2,0,-2.2,.9,-2.2,2.1c0,.8,.4,1.5,1.1,1.9l.2,.1V135h-9.5v-8.6h-1.2c-.5,.7,-1.4,1.2,-2.4,1.2c-1.6,0,-2.9,-1.3,-2.9,-2.9c0,-1.6,1.3,-3,2.9,-3c1,0,1.9,.5,2.4,1.3h1.2v-8.7H189v-1.1c-.8,-.6,-1.3,-1.5,-1.3,-2.5c0,-1.6,1.3,-2.9,3,-2.9c1.6,0,2.9,1.3,2.9,2.9c0,1,-.5,1.9,-1.3,2.5v1.1H201v9.5h-2.4l-.1,-.2c-.4,-.6,-1.1,-1.1,-1.9,-1.1c-.6,0,-1.1,.3,-1.5,.7c-.4,.4,-.6,.9,-.6,1.5c0,1.2,.9,2.1,2.1,2.1c.8,0,1.5,-.4,1.9,-1l.1,-.2H201Zm-8.7,-.8h7.9v-7.8H199c-.5,.7,-1.4,1.2,-2.4,1.2c-1.6,0,-2.9,-1.3,-2.9,-2.9c0,-.8,.3,-1.5,.8,-2.1c.6,-.5,1.3,-.9,2.1,-.9c1,0,1.9,.5,2.4,1.3h1.2v-7.9h-8.7v-2.4l.2,-.1c.7,-.4,1.1,-1.1,1.1,-1.9c0,-1.2,-1,-2.1,-2.1,-2.1c-1.2,0,-2.2,.9,-2.2,2.1c0,.8,.4,1.5,1.1,1.9l.2,.1v2.4h-8.7v8.7h-2.4l-.1,-.2c-.4,-.6,-1.1,-1.1,-1.9,-1.1c-1.2,0,-2.1,1,-2.1,2.2c0,1.2,.9,2.1,2.1,2.1c.8,0,1.5,-.4,1.9,-1l.1,-.2h2.4v8.6H189V133c-.8,-.5,-1.3,-1.4,-1.3,-2.4c0,-1.6,1.3,-2.9,3,-2.9c1.6,0,2.9,1.3,2.9,2.9c0,1,-.5,1.9,-1.3,2.4Z" class="gc_312"/>
<path d="M176.7,142c1,0,1.8,.5,2.2,1.3h1.8v-8.7H172v-1.8c.8,-.4,1.3,-1.2,1.3,-2.2c0,-1.4,-1.1,-2.5,-2.5,-2.5c-1.4,0,-2.6,1.1,-2.6,2.5c0,1,.5,1.8,1.3,2.2v1.8h-8.7v8.7H159c-.4,-.8,-1.2,-1.3,-2.2,-1.3c-1.4,0,-2.5,1.2,-2.5,2.6c0,1.4,1.1,2.5,2.5,2.5c1,0,1.8,-.5,2.2,-1.2h1.8v8.6h8.7v-1.8c-.8,-.4,-1.3,-1.2,-1.3,-2.2c0,-1.4,1.2,-2.5,2.6,-2.5c1.4,0,2.5,1.1,2.5,2.5c0,1,-.5,1.8,-1.3,2.2v1.8h8.7v-8.7h-1.8c-.4,.8,-1.2,1.3,-2.2,1.3c-1.4,0,-2.5,-1.1,-2.5,-2.5c0,-1.4,1.1,-2.6,2.5,-2.6Z" class="ge_312"/>
<path d="M181.1,154.9h-9.5v-2.4l.2,-.1c.7,-.4,1.1,-1.1,1.1,-1.9c0,-1.2,-1,-2.1,-2.1,-2.1c-1.2,0,-2.2,.9,-2.2,2.1c0,.8,.4,1.5,1.1,1.9l.2,.1v2.4h-9.5v-8.6h-1.2c-.5,.7,-1.4,1.2,-2.4,1.2c-1.6,0,-2.9,-1.3,-2.9,-2.9c0,-1.6,1.3,-3,2.9,-3c1,0,1.9,.5,2.4,1.3h1.2v-8.7h8.7V133c-.8,-.5,-1.3,-1.4,-1.3,-2.4c0,-1.6,1.3,-2.9,3,-2.9c1.6,0,2.9,1.3,2.9,2.9c0,1,-.5,1.9,-1.3,2.4v1.2h8.7v9.5h-2.4l-.1,-.2c-.4,-.7,-1.1,-1.1,-1.9,-1.1c-1.2,0,-2.1,1,-2.1,2.2c0,1.1,.9,2.1,2.1,2.1c.8,0,1.5,-.4,1.9,-1.1l.1,-.2h2.4Zm-8.7,-.8h7.9v-7.9h-1.2c-.5,.8,-1.4,1.3,-2.4,1.3c-1.6,0,-2.9,-1.3,-2.9,-2.9c0,-1.6,1.3,-3,2.9,-3c1,0,1.9,.5,2.4,1.3h1.2V135h-8.7v-2.4l.2,-.1c.7,-.4,1.1,-1.1,1.1,-1.9c0,-1.2,-1,-2.1,-2.1,-2.1c-1.2,0,-2.2,.9,-2.2,2.1c0,.8,.4,1.5,1.1,1.9l.2,.1V135h-8.7v8.7h-2.4l-.1,-.2c-.4,-.7,-1.1,-1.1,-1.9,-1.1c-1.2,0,-2.1,1,-2.1,2.2c0,1.2,.9,2.1,2.1,2.1c.8,0,1.5,-.4,1.9,-1l.1,-.2h2.4v8.6h7.9v-1.2c-.8,-.5,-1.3,-1.4,-1.3,-2.4c0,-1.6,1.3,-2.9,3,-2.9c1.6,0,2.9,1.3,2.9,2.9c0,1,-.5,1.9,-1.3,2.4Z" class="gc_312"/>
<path d="M196.6,142c.9,0,1.8,.5,2.2,1.3h1.8v-8.7h-8.7v-1.8c.8,-.4,1.3,-1.2,1.3,-2.2c0,-1.4,-1.1,-2.5,-2.5,-2.5c-1.5,0,-2.6,1.1,-2.6,2.5c0,1,.5,1.8,1.3,2.2v1.8h-8.7v8.7h-1.8c-.4,-.8,-1.2,-1.3,-2.2,-1.3c-1.4,0,-2.5,1.2,-2.5,2.6c0,1.4,1.1,2.5,2.5,2.5c1,0,1.8,-.5,2.2,-1.2h1.8v8.6h8.7v-1.8c-.8,-.4,-1.3,-1.2,-1.3,-2.2c0,-1.4,1.2,-2.5,2.6,-2.5c1.4,0,2.5,1.1,2.5,2.5c0,1,-.5,1.8,-1.3,2.2v1.8h8.7v-8.7h-1.8c-.4,.8,-1.2,1.3,-2.2,1.3c-1.4,0,-2.5,-1.1,-2.5,-2.5c0,-1.4,1.1,-2.6,2.5,-2.6Z" class="gf_312"/>
<path d="M201,154.9h-9.5v-2.4l.2,-.1c.7,-.4,1.1,-1.1,1.1,-1.9c0,-1.2,-1,-2.1,-2.1,-2.1c-1.2,0,-2.2,.9,-2.2,2.1c0,.8,.4,1.5,1.1,1.9l.2,.1v2.4h-9.5v-8.6h-1.2c-.5,.7,-1.4,1.2,-2.4,1.2c-1.6,0,-2.9,-1.3,-2.9,-2.9c0,-1.6,1.3,-3,2.9,-3c1,0,1.9,.5,2.4,1.3h1.2v-8.7H189V133c-.8,-.5,-1.3,-1.4,-1.3,-2.4c0,-1.6,1.3,-2.9,3,-2.9c1.6,0,2.9,1.3,2.9,2.9c0,1,-.5,1.9,-1.3,2.4v1.2H201v9.5h-2.4l-.1,-.2c-.4,-.7,-1.1,-1.1,-1.9,-1.1c-.6,0,-1.1,.3,-1.5,.7c-.4,.4,-.6,.9,-.6,1.5c0,1.1,.9,2.1,2.1,2.1c.8,0,1.5,-.4,1.9,-1.1l.1,-.2H201Zm-8.7,-.8h7.9v-7.9H199c-.5,.8,-1.4,1.3,-2.4,1.3c-1.6,0,-2.9,-1.3,-2.9,-2.9c0,-.8,.3,-1.5,.8,-2.1c.6,-.6,1.3,-.9,2.1,-.9c1,0,1.9,.5,2.4,1.3h1.2V135h-8.7v-2.4l.2,-.1c.7,-.4,1.1,-1.1,1.1,-1.9c0,-1.2,-1,-2.1,-2.1,-2.1c-1.2,0,-2.2,.9,-2.2,2.1c0,.8,.4,1.5,1.1,1.9l.2,.1V135h-8.7v8.7h-2.4l-.1,-.2c-.4,-.7,-1.1,-1.1,-1.9,-1.1c-1.2,0,-2.1,1,-2.1,2.2c0,1.2,.9,2.1,2.1,2.1c.8,0,1.5,-.4,1.9,-1l.1,-.2h2.4v8.6H189v-1.2c-.8,-.5,-1.3,-1.4,-1.3,-2.4c0,-1.6,1.3,-2.9,3,-2.9c1.6,0,2.9,1.3,2.9,2.9c0,1,-.5,1.9,-1.3,2.4Z" class="gc_312"/>
<path d="M32.1,45.1H9.2m958.3,0h22.9M32.1,1331.3H9.2m958.3,0h22.9M45.1,32.1V9.2m0,1335.1v22.9M954.5,32.1V9.2m0,1335.1v22.9" class="gg_312"/>
<path d="M32.1,45.1H9.2m958.3,0h22.9M32.1,1331.3H9.2m958.3,0h22.9M45.1,32.1V9.2m0,1335.1v22.9M954.5,32.1V9.2m0,1335.1v22.9" class="gh_312"/>
<path d="M27.5,32.1H0m972.1,0h27.5M27.5,1344.3H0m972.1,0h27.5M32.1,27.5V0m0,1348.9v27.5M967.5,27.5V0m0,1348.9v27.5" class="gg_312"/>
<path d="M27.5,32.1H0m972.1,0h27.5M27.5,1344.3H0m972.1,0h27.5M32.1,27.5V0m0,1348.9v27.5M967.5,27.5V0m0,1348.9v27.5" class="gh_312"/>
</svg>