<?xml version="1.0" encoding="UTF-8" standalone="no"?>
<!DOCTYPE svg PUBLIC "-//W3C//DTD SVG 1.1//EN"
"http://www.w3.org/Graphics/SVG/1.1/DTD/svg11.dtd">
<svg viewBox="0 0 999 1376" version="1.1" xmlns="http://www.w3.org/2000/svg" xmlns:xlink="http://www.w3.org/1999/xlink">
<defs>
<clipPath id="c0_42"><path d="M32.1,1344.3V32.1H967.5V1344.3Z"/></clipPath>
<clipPath id="c1_42"><path d="M131.1,1022.8V236.3H852.7v786.5Z"/></clipPath>
<clipPath id="c2_42"><path d="M192,225V212.4h12.5V225Z"/></clipPath>
<clipPath id="c3_42"><path d="M503.3,225V212.5h12.6V225Z"/></clipPath>
<clipPath id="c4_42"><path d="M503.4,259.9V247.4h12.5v12.5Z"/></clipPath>
<clipPath id="c5_42"><path d="M191.9,259.9V247.4h12.6v12.5Z"/></clipPath>
<clipPath id="c6_42"><path d="M255.5,745.8V672.2h77.9v73.6Z"/></clipPath>
<clipPath id="c7_42"><path d="M257.6,853V779.3h75.8V853Z"/></clipPath>
<clipPath id="c8_42"><path d="M255.5,955.5V881.8h76.2v73.7Z"/></clipPath>
<clipPath id="c9_42"><path d="M461.9,745.8V672.2h77.9v73.6Z"/></clipPath>
<clipPath id="ca_42"><path d="M465,852.9V779.3h74.8v73.6Z"/></clipPath>
<clipPath id="cb_42"><path d="M463.3,955.5V882.2h76.5v73.3Z"/></clipPath>
<clipPath id="cc_42"><path d="M681.3,745.8V672.2h77.9v73.6Z"/></clipPath>
<clipPath id="cd_42"><path d="M682.2,853V779.3h77V853Z"/></clipPath>
<clipPath id="ce_42"><path d="M684.6,955.5V882.9h74.6v72.6Z"/></clipPath>
<style type="text/css"><![CDATA[
.g0_42{
fill: #FFFDEA;
}
.g1_42{
fill: #BCE4EA;
}
.g2_42{
fill: #BCBEC0;
}
.g3_42{
fill: #00AABD;
}
.g4_42{
fill: #FCE9F1;
}
.g5_42{
fill: none;
stroke: #976EAF;
stroke-width: 3.819;
}
.g6_42{
fill: none;
stroke: #CDBCDB;
stroke-width: 3.819;
stroke-linecap: round;
stroke-linejoin: round;
stroke-dasharray: 0,14;
}
.g7_42{
fill: none;
stroke: #CDBCDB;
stroke-width: 3.819;
stroke-linecap: round;
stroke-linejoin: round;
stroke-dasharray: 0,12;
}
.g8_42{
fill: none;
stroke: #CDBCDB;
stroke-width: 3.819;
stroke-linecap: round;
stroke-linejoin: round;
}
.g9_42{
fill: #B092C4;
}
.ga_42{
fill: #976EAF;
}
.gb_42{
fill: #FFF;
}
.gc_42{
fill: #67C0E1;
}
.gd_42{
fill: #233D4A;
}
.ge_42{
fill: #F5C44D;
}
.gf_42{
fill: #FCDCBA;
}
.gg_42{
fill: none;
stroke: #FFF;
stroke-width: 1.909;
stroke-miterlimit: 10;
}
.gh_42{
fill: none;
stroke: #000;
stroke-width: 0.381;
stroke-miterlimit: 10;
}
]]></style>
</defs>
<g clip-path="url(#c0_42)">
<path d="M32.1,1344.3H1877V32.1H32.1V1344.3Z" class="g0_42"/>
<path d="M32.1,179.3H1877V32.1H32.1V179.3Z" class="g1_42"/>
<path d="M1877,177.2H32.1v-5.4H768.7c43.1,0,53,-37.9,115.3,-37.9h993Z" class="g2_42"/>
<path d="M1877,183.7H32.1v-9.8H768.7c43.1,0,53,-33.6,115.3,-33.6h993Z" class="g3_42"/>
</g>
<image clip-path="url(#c1_42)" preserveAspectRatio="none" x="131" y="237" width="722" height="786" xlink:href="img/1.png"/>
<path d="M152.1,239.9c0,0,-17.4,0,-17.4,17.4V995.9c0,0,0,17.3,17.4,17.3H825.9c0,0,17.3,0,17.3,-17.3V257.3c0,0,0,-17.4,-17.3,-17.4Z" class="g4_42"/>
<path d="M152.1,239.9c0,0,-17.4,0,-17.4,17.4V995.9c0,0,0,17.3,17.4,17.3H825.9c0,0,17.3,0,17.3,-17.3V257.3c0,0,0,-17.4,-17.3,-17.4H152.1Z" class="g5_42"/>
<path d="M139.5,244.8c-1.5,1.4,-2.8,3.3,-3.7,5.7" class="g6_42"/>
<path d="M134.7,268.8V990.2" class="g7_42"/>
<path d="M139.6,1008.5c1.4,1.5,3.3,2.8,5.7,3.7" class="g6_42"/>
<path d="M163.5,1013.2H820.2" class="g7_42"/>
<path d="M838.4,1008.4c1.5,-1.4,2.9,-3.3,3.7,-5.7" class="g6_42"/>
<path d="M843.2,984.4V263" class="g7_42"/>
<path d="M838.3,244.7c-1.4,-1.5,-3.3,-2.8,-5.7,-3.7" class="g6_42"/>
<path d="M814.5,239.9H157.8" class="g7_42"/>
<path d="M134.7,257.3v0m0,738.6v0m17.4,17.3v0m673.8,0v0m17.3,-17.3v0m0,-738.6v0M825.9,239.9v0m-673.8,0v0" class="g8_42"/>
<path d="M202.9,214l-9.4,9.4v25.5l9.4,9.5h302l9.5,-9.5V223.4L504.9,214Z" class="g9_42"/>
<path d="M203,248.9H504.9V223.5H203v25.4Z" class="gb_42"/>
<g clip-path="url(#c2_42)" style="mix-blend-mode: multiply;">
<path d="M193.5,223.5H203V214Z" class="ga_42"/>
</g>
<g clip-path="url(#c3_42)" style="mix-blend-mode: multiply;">
<path d="M504.9,214v9.5h9.5Z" class="ga_42"/>
</g>
<g clip-path="url(#c4_42)" style="mix-blend-mode: multiply;">
<path d="M514.4,248.9h-9.5v9.5Z" class="ga_42"/>
</g>
<g clip-path="url(#c5_42)" style="mix-blend-mode: multiply;">
<path d="M203,258.4v-9.5h-9.5Z" class="ga_42"/>
</g>
<path d="M177.9,247.9c.1,.2,.1,.5,.1,.8c.1,1.9,-1.3,3.4,-3.1,3.5c-1.8,.1,-3.3,-1.4,-3.3,-3.2c-.1,-.3,0,-.6,0,-.9Z" class="gc_42"/>
<path d="M174.9,252.9c-2.2,.1,-4,-1.7,-4.1,-3.9c0,-.4,0,-.7,.1,-1.1c.1,-.4,.5,-.6,.9,-.5c.4,.1,.6,.4,.5,.8c0,.3,0,.5,0,.7c0,1.5,1.2,2.6,2.6,2.6c1.4,-.1,2.5,-1.3,2.4,-2.8c0,-.2,0,-.4,-.1,-.6c-.1,-.4,.1,-.8,.5,-.9c.4,-.1,.8,.1,.9,.5c.1,.3,.2,.7,.2,1c.1,2.3,-1.7,4.2,-3.9,4.2Z" class="gd_42"/>
<path d="M172.3,223.3c-.1,-.2,-.2,-.5,-.2,-.8v-.1c0,-1.1,.8,-2,1.9,-2.1c1.1,0,2,.9,2.1,2v.1c0,.3,-.1,.5,-.2,.8Z" class="gc_42"/>
<path d="M172.3,224.1c-.3,0,-.5,-.2,-.7,-.5c-.1,-.3,-.2,-.7,-.2,-1v-.1c-.1,-1.6,1.1,-2.8,2.6,-2.9c1.5,-.1,2.7,1.2,2.8,2.7v.1c0,.3,0,.7,-.2,1c-.1,.4,-.5,.6,-.9,.5c-.4,-.2,-.6,-.6,-.4,-1c0,-.1,0,-.3,0,-.5v-.1c0,-.7,-.6,-1.3,-1.3,-1.2c-.6,0,-1.2,.6,-1.1,1.3v.1c0,.2,0,.4,.1,.5c.1,.4,0,.8,-.4,1c-.1,0,-.2,.1,-.3,.1Z" class="gd_42"/>
<path d="M186.8,242.7l-.8,-7.1c-.2,-6.9,-5.6,-12.4,-11.9,-12.2c-6.4,.2,-11.3,6.1,-11.1,13l-.2,6.9Z" class="ge_42"/>
<path d="M186.8,243.4c-.4,0,-.7,-.2,-.7,-.6l-.8,-7.1c-.2,-6.6,-5.3,-11.8,-11.2,-11.5c-5.9,.2,-10.6,5.7,-10.3,12.2l-.2,6.9c0,.4,-.4,.7,-.8,.7c-.4,0,-.7,-.3,-.7,-.7l.2,-6.9c-.2,-7.3,5,-13.5,11.8,-13.7c6.7,-.2,12.4,5.5,12.6,12.9l.8,7c.1,.4,-.2,.8,-.6,.8Z" class="gd_42"/>
<path d="M189,234.1q-.1,0,-.2,0c-.4,-.1,-.6,-.5,-.5,-.9c.8,-2.4,-.8,-3.7,-.8,-3.7c-.3,-.3,-.4,-.7,-.1,-1c.3,-.4,.7,-.4,1,-.1c.1,0,2.4,1.9,1.3,5.2c-.1,.3,-.4,.5,-.7,.5Z" class="gd_42"/>
<path d="M191.6,235c-.1,0,-.2,0,-.3,0c-.4,-.1,-.6,-.6,-.4,-.9c1.4,-4.3,-1.4,-6.7,-1.6,-6.8c-.3,-.3,-.3,-.7,-.1,-1.1c.3,-.3,.8,-.3,1.1,-.1c.1,.2,3.7,3.2,1.9,8.4c-.1,.3,-.3,.5,-.6,.5Z" class="gd_42"/>
<path d="M188.2,245.1c.1,1.1,-.8,2.1,-1.9,2.2l-23,.8c-1.1,0,-2.1,-.9,-2.1,-2.1l-.1,-.4c0,-1.2,.9,-2.2,2,-2.2l23,-.8c1.1,0,2.1,.9,2.1,2.1Z" class="ge_42"/>
<path d="M186.3,248l-23,.8c-1.5,0,-2.8,-1.2,-2.9,-2.8v-.4c0,-1.5,1.2,-2.9,2.7,-2.9l23,-.8c1.5,-.1,2.8,1.2,2.9,2.7v.4c0,1.6,-1.2,2.9,-2.7,3m-23.1,-3.9c-.8,.1,-1.4,.7,-1.3,1.5v.4c0,.7,.6,1.4,1.4,1.3l22.9,-.8c.8,0,1.3,-.6,1.3,-1.4v-.4c0,-.8,-.6,-1.4,-1.4,-1.4Z" class="gd_42"/>
<path d="M177.3,226.8c-.4,.1,-.7,.3,-.8,.7c-.2,.4,.1,.9,.6,1.1c0,0,3.9,1.3,4.1,6.3c0,.5,.4,.9,.9,.8c.5,0,.8,-.4,.8,-.9c-.2,-6.2,-5.1,-7.8,-5.3,-7.9c-.1,0,-.2,-.1,-.3,-.1Z" class="gf_42"/>
<path d="M255.5,745.8h77.9V672.2H255.5v73.6Z" class="gb_42"/>
<image clip-path="url(#c6_42)" preserveAspectRatio="none" x="256" y="670" width="77" height="77" xlink:href="img/2.jpg"/>
<path d="M255.5,853h77.9V779.3H255.5V853Z" class="gb_42"/>
<image clip-path="url(#c7_42)" preserveAspectRatio="none" x="258" y="778" width="77" height="77" xlink:href="img/3.jpg"/>
<path d="M255.5,955.5h77.9V881.8H255.5v73.7Z" class="gb_42"/>
<image clip-path="url(#c8_42)" preserveAspectRatio="none" x="254" y="880" width="78" height="77" xlink:href="img/4.jpg"/>
<path d="M461.9,745.8h77.9V672.2H461.9v73.6Z" class="gb_42"/>
<image clip-path="url(#c9_42)" preserveAspectRatio="none" x="462" y="670" width="78" height="77" xlink:href="img/5.jpg"/>
<path d="M461.9,853h77.9V779.3H461.9V853Z" class="gb_42"/>
<image clip-path="url(#ca_42)" preserveAspectRatio="none" x="465" y="778" width="77" height="75" xlink:href="img/6.jpg"/>
<path d="M461.9,955.5h77.9V881.8H461.9v73.7Z" class="gb_42"/>
<image clip-path="url(#cb_42)" preserveAspectRatio="none" x="463" y="882" width="78" height="75" xlink:href="img/7.jpg"/>
<path d="M681.3,745.8h77.9V672.2H681.3v73.6Z" class="gb_42"/>
<image clip-path="url(#cc_42)" preserveAspectRatio="none" x="681" y="670" width="78" height="77" xlink:href="img/8.jpg"/>
<path d="M681.3,853h77.9V779.3H681.3V853Z" class="gb_42"/>
<image clip-path="url(#cd_42)" preserveAspectRatio="none" x="682" y="778" width="78" height="77" xlink:href="img/9.jpg"/>
<path d="M681.3,955.5h77.9V881.8H681.3v73.7Z" class="gb_42"/>
<image clip-path="url(#ce_42)" preserveAspectRatio="none" x="685" y="883" width="76" height="74" xlink:href="img/10.jpg"/>
<path d="M32.1,45.1H9.2m958.3,0h22.9M32.1,1331.3H9.2m958.3,0h22.9M45.1,32.1V9.2m0,1335.1v22.9M954.5,32.1V9.2m0,1335.1v22.9" class="gg_42"/>
<path d="M32.1,45.1H9.2m958.3,0h22.9M32.1,1331.3H9.2m958.3,0h22.9M45.1,32.1V9.2m0,1335.1v22.9M954.5,32.1V9.2m0,1335.1v22.9" class="gh_42"/>
<path d="M27.5,32.1H0m972.1,0h27.5M27.5,1344.3H0m972.1,0h27.5M32.1,27.5V0m0,1348.9v27.5M967.5,27.5V0m0,1348.9v27.5" class="gg_42"/>
<path d="M27.5,32.1H0m972.1,0h27.5M27.5,1344.3H0m972.1,0h27.5M32.1,27.5V0m0,1348.9v27.5M967.5,27.5V0m0,1348.9v27.5" class="gh_42"/>
</svg>