<?xml version="1.0" encoding="UTF-8" standalone="no"?>
<!DOCTYPE svg PUBLIC "-//W3C//DTD SVG 1.1//EN"
"http://www.w3.org/Graphics/SVG/1.1/DTD/svg11.dtd">
<svg viewBox="0 0 999 1376" version="1.1" xmlns="http://www.w3.org/2000/svg" xmlns:xlink="http://www.w3.org/1999/xlink">
<defs>
<clipPath id="c0_282"><path d="M32.1,1344.3V32.1H967.5V1344.3Z"/></clipPath>
<clipPath id="c1_282"><path d="M176.6,518l-6.5,-2.1l-16.4,-14V444.8h72V518Z"/></clipPath>
<clipPath id="c2_282"><path d="M176.6,1141.9l-6.5,-2.1l-16.4,-14v-57h72v73.1Z"/></clipPath>
<clipPath id="c3_282"><path d="M125.5,386.7V205.8H858.6V386.7Z"/></clipPath>
<clipPath id="c4_282"><path d="M764.8,418V405.6h14.5V418Z"/></clipPath>
<clipPath id="c5_282"><path d="M568.6,768V524.4h303V768Z"/></clipPath>
<clipPath id="c6_282"><path d="M574.8,760.1V531.9H868V760.1Z"/></clipPath>
<clipPath id="c7_282"><path d="M574.5,759.8V531.5H867.7V759.8Z"/></clipPath>
<clipPath id="c8_282"><path d="M719.6,546c-.3,-.1,3.5,-8.2,3.5,-8.2l.8,.5c0,0,-4,7.7,-4.3,7.7Z"/></clipPath>
<clipPath id="c9_282"><path d="M727.1,538.3c0,0,-6.9,-1.1,-7.6,-5.2c-.7,-3.6,1.5,-3.9,2.1,-3.9q.1,0,.1,0L730,516.5l-1.4,-3.1c0,0,-.6,-1.1,.1,-2c0,-.1,.2,-.1,.3,-.1c2.1,0,12.9,5.5,12.9,5.5l.1,.2c-.3,.5,-.7,1.1,-1.4,1.6c-.6,.5,-5.1,1.2,-5.1,1.2l-8.4,18.5Z"/></clipPath>
<clipPath id="ca_282"><path d="M726.7,537.9c.2,-.4,.2,-1.8,0,-2.2v-1.4c-1.6,-.5,-2.9,-1.2,-3.7,-2.5c-1.1,.6,-2.1,1.2,-3.1,1.9c1.5,2.1,3.8,3.5,6.8,4.2Zm0,-3.9c2.2,-4.5,4,-9.5,6.1,-14c-.9,-.4,-1.8,-1.3,-2.6,-1.4c-2.3,4.3,-4.6,8.6,-7,12.8c.7,1.3,2,2,3.5,2.6Zm-7.3,12.1v0c1,-2.9,2.4,-5.5,3.5,-8.3c-2,-1.5,-3.9,-3.1,-4.4,-6.1v-1.5c0,-2.7,1.9,-3.4,4.6,-3.4c0,0,.1,0,.2,0c1.9,-3.4,4.2,-6.4,6.1,-9.7c-.5,-.9,-1.1,-2.4,-.8,-3.7c.5,1.3,1.6,1.9,2.3,2.9c-.1,.6,-.2,1.2,-.3,1.8c.6,.7,1.3,1.2,2.4,1.4c.4,-.4,.5,-1.3,1.1,-1.5c.9,.3,1.8,.7,3.1,.7c.2,.1,.5,.2,.8,.2c.4,0,.7,-.1,.9,-.2c.1,0,.2,.1,.3,.1c.2,0,.4,-.1,.6,-.2c.2,0,.3,-.1,.5,-.1c.1,0,.2,0,.3,.1c-1.3,.7,-2.2,1.8,-4.2,1.8c-.1,0,-.2,0,-.3,0c-.9,3.7,-1.9,7.3,-2.6,11.1c.5,1.1,1.5,1.7,1.2,3.2c-.4,2.7,-3.8,4.4,-7.2,4.4c-1.2,0,-2.5,-.3,-3.6,-.8c-1,2.1,-2.1,4.2,-3.3,6.1c0,-.4,.3,-.4,.3,-.8c.9,-1.8,1.9,-3.6,2.6,-5.7c-1,1.8,-1.8,3.7,-2.7,5.6c-.2,.4,-.5,.8,-.7,1.2c-.3,.4,-.3,1.2,-.7,1.4Z"/></clipPath>
<clipPath id="cb_282"><path d="M737.1,518.3c-4.8,0,-13.1,-7.3,-5.5,-8.8h1.2c.2,.1,.5,.1,.7,.1c.1,0,.2,0,.2,0c.3,0,.6,0,.9,.1c3.1,.6,8.2,3.8,7.5,7c-.2,1.2,-1.5,1.6,-3.1,1.6h-1.9Z"/></clipPath>
<clipPath id="cc_282"><path d="M635,969.5V780.9H871.5V969.5Z"/></clipPath>
<clipPath id="cd_282"><path d="M635.9,968.9V781.4H872.4V968.9Z"/></clipPath>
<clipPath id="ce_282"><path d="M635.6,968.6v-187H872.1v187Z"/></clipPath>
<clipPath id="cf_282"><path d="M751.5,800.5c-.2,-.1,3.6,-8.3,3.6,-8.3l.7,.6c0,0,-4,7.7,-4.3,7.7Z"/></clipPath>
<clipPath id="cg_282"><path d="M759,792.7c0,0,-6.8,-1.1,-7.6,-5.2c-.6,-3.6,1.6,-3.8,2.1,-3.8q.1,0,.1,0L762,770.9l-1.5,-3c0,0,-.6,-1.2,.1,-2.1c.1,-.1,.2,-.1,.3,-.1c2.2,0,13,5.5,13,5.5l.1,.2c-.4,.5,-.8,1.1,-1.4,1.6c-.7,.5,-5.1,1.2,-5.1,1.2L759,792.7Z"/></clipPath>
<clipPath id="ch_282"><path d="M758.6,792.4c.2,-.5,.2,-1.8,0,-2.3v-1.4c-1.5,-.5,-2.9,-1.2,-3.6,-2.5c-1.1,.6,-2.2,1.2,-3.2,1.9c1.6,2.1,3.8,3.6,6.8,4.3Zm0,-3.9c2.2,-4.6,4,-9.5,6.2,-14.1c-.9,-.4,-1.9,-1.3,-2.7,-1.4c-2.3,4.3,-4.6,8.7,-7,12.8c.7,1.4,2.1,2,3.5,2.7Zm-7.3,12v0c1.1,-2.9,2.4,-5.4,3.5,-8.3c-1.9,-1.5,-3.9,-3.1,-4.4,-6.1v-1.5c0,-2.7,2,-3.4,4.6,-3.4c.1,0,.2,0,.2,0c2,-3.3,4.2,-6.3,6.2,-9.7c-.6,-.8,-1.2,-2.3,-.9,-3.6c.5,1.2,1.6,1.9,2.4,2.9c-.1,.6,-.3,1.1,-.4,1.7c.6,.7,1.3,1.2,2.4,1.4c.4,-.4,.5,-1.2,1.1,-1.5c1,.3,1.9,.7,3.2,.7c.1,.2,.4,.2,.8,.2c.3,0,.7,0,.8,-.2c.1,.1,.2,.1,.3,.1c.2,0,.4,-.1,.6,-.1c.2,-.1,.4,-.2,.5,-.2c.1,0,.3,0,.4,.1c-1.4,.7,-2.2,1.8,-4.2,1.8c-.1,0,-.2,0,-.4,0c-.8,3.7,-1.8,7.3,-2.6,11.2c.5,1,1.5,1.7,1.3,3.1c-.5,2.7,-3.9,4.4,-7.2,4.4c-1.3,0,-2.6,-.2,-3.7,-.7c-1,2,-2,4.1,-3.2,6c-.1,-.4,.3,-.4,.2,-.8c1,-1.8,2,-3.6,2.7,-5.6c-1.1,1.7,-1.9,3.7,-2.8,5.5c-.2,.4,-.4,.8,-.6,1.3c-.3,.4,-.3,1.1,-.8,1.3Z"/></clipPath>
<clipPath id="ci_282"><path d="M769.1,772.8c-4.8,0,-13.1,-7.3,-5.6,-8.8h1.3c.1,0,.3,0,.6,0h.1c0,0,.1,0,.1,0c.3,0,.6,0,.9,.1c3.1,.6,8.3,3.8,7.6,7c-.3,1.2,-1.6,1.6,-3.2,1.7h-1.7q-.1,0,-.1,0Z"/></clipPath>
<style type="text/css"><![CDATA[
.g0_282{
fill: #FEFCF4;
}
.g1_282{
fill: #FFF;
}
.g2_282{
fill: none;
stroke: #6381B7;
stroke-width: 0.763;
}
.g3_282{
fill: none;
stroke: #818385;
stroke-width: 0.305;
stroke-dasharray: 4,4;
}
.g4_282{
fill: none;
stroke: #818385;
stroke-width: 0.305;
}
.g5_282{
fill: #6381B7;
}
.g6_282{
fill: none;
stroke: #6381B7;
stroke-width: 0.381;
stroke-dasharray: 2,1;
}
.g7_282{
fill: none;
stroke: #6381B7;
stroke-width: 0.381;
}
.g8_282{
fill: #FCE8B0;
}
.g9_282{
fill: #2E6E51;
}
.ga_282{
fill: none;
stroke: #FFF;
stroke-width: 0.152;
stroke-miterlimit: 1;
}
.gb_282{
fill: #BCBEC0;
}
.gc_282{
fill: #EE314A;
}
.gd_282{
fill: #CEEDFB;
}
.ge_282{
fill: #27639D;
}
.gf_282{
fill: #231F20;
}
.gg_282{
fill: none;
stroke: #204A78;
stroke-width: 1.527;
}
.gh_282{
fill: #25408F;
}
.gi_282{
fill: #A8AAAD;
}
.gj_282{
fill: none;
stroke: #949698;
stroke-width: 0.549;
}
.gk_282{
fill: none;
stroke: #BCBEC0;
stroke-width: 2.566;
}
.gl_282{
fill: #363637;
}
.gm_282{
fill: #5CC4BE;
}
.gn_282{
fill: #EAD646;
}
.go_282{
fill: #F7C2D9;
}
.gp_282{
fill: #FEF6F5;
}
.gq_282{
fill: #EC008C;
}
.gr_282{
fill: none;
stroke: #949698;
stroke-width: 0.305;
stroke-dasharray: 4,4;
}
.gs_282{
fill: none;
stroke: #949698;
stroke-width: 0.305;
stroke-dasharray: 3,3;
}
.gt_282{
fill: none;
stroke: #949698;
stroke-width: 0.305;
}
.gu_282{
fill: #6D6F71;
}
.gv_282{
fill: none;
stroke: #FFF;
stroke-width: 1.909;
stroke-miterlimit: 10;
}
.gw_282{
fill: none;
stroke: #000;
stroke-width: 0.381;
stroke-miterlimit: 10;
}
]]></style>
</defs>
<path d="M32.1,1344.3H954.5V32.1H32.1V1344.3Z" class="g0_282"/>
<path clip-path="url(#c0_282)" d="M954.5,1344.3H1877V32.1H954.5V1344.3Z" class="g0_282"/>
<path d="M150.4,410.3c0,0,-18.3,0,-18.3,18.3v598.6c0,0,0,18.3,18.3,18.3H827.5c0,0,18.4,0,18.4,-18.3V410.3Z" class="g1_282"/>
<path d="M150.4,410.3c0,0,-18.3,0,-18.3,18.3v598.6c0,0,0,18.3,18.3,18.3H827.5c0,0,18.4,0,18.4,-18.3V410.3H150.4Z" class="g2_282"/>
<path d="M294.9,628.1c12.4,-.9,22.3,-5.7,24.8,-11.8m-.7,-7.2c-3.4,-5.7,-13.5,-9.9,-25.6,-10.6m-7.6,.1c-12.4,1,-22.3,5.7,-24.8,11.8m.7,7.3c3.4,5.6,13.5,9.9,25.6,10.5" class="g3_282"/>
<path d="M320.1,614.9c.1,-.5,.1,-1,.1,-1.5c0,-.5,0,-1,-.1,-1.5M291.9,598.5c-.5,0,-1,0,-1.5,0c-.5,0,-1.1,0,-1.6,0m-28.2,13.4c-.1,.5,-.1,1,-.1,1.5c0,.5,0,1,.1,1.5m28.2,13.4c.5,0,1.1,0,1.6,0c.5,0,1,0,1.5,0" class="g4_282"/>
<path d="M145.1,1054.9c0,0,-13,0,-13,13v130.9c0,0,0,13,13,13H832.9c0,0,13,0,13,-13V1067.9c0,0,0,-13,-13,-13Z" class="g1_282"/>
<path d="M145.1,1054.9c0,0,-13,0,-13,13v130.9c0,0,0,13,13,13H832.9c0,0,13,0,13,-13V1067.9c0,0,0,-13,-13,-13H145.1Z" class="g2_282"/>
<path d="M447.3,1230c0,0,-4.3,0,-4.3,4.3v10.8c0,0,0,4.4,4.3,4.4h30.4c0,0,4.3,0,4.3,-4.4v-10.8c0,0,0,-4.3,-4.3,-4.3Z" class="g5_282"/>
<path d="M434.2,1221.1v37.6m1.3,.9H845.1m1,-1.3v-37.5m-1.4,-1H435.1" class="g6_282"/>
<path d="M434.2,1259.1v.5h.5m410.8,0h.6v-.5m0,-38.7v-.6h-.6m-410.8,0h-.5v.6" class="g7_282"/>
<path d="M209.2,447c0,0,-13,0,-13,13v47.6c0,0,0,13,13,13h602c0,0,13,0,13,-13V460c0,0,0,-13,-13,-13Z" class="g8_282"/>
<image clip-path="url(#c1_282)" preserveAspectRatio="none" x="152" y="443" width="75" height="77" xlink:href="img/1.png"/>
<path d="M204,513.3c0,0,-26.8,11.3,-51.1,-12.8c0,0,15.2,25.3,49.3,24c0,0,24.8,.3,20.3,-10.2c0,0,1.2,-4.4,-18.5,-1Z" class="g8_282"/>
<path d="M209.2,1096.9c0,0,-13,0,-13,13v21.6c0,0,0,13,13,13h602c0,0,13,0,13,-13v-21.6c0,0,0,-13,-13,-13Z" class="g8_282"/>
<image clip-path="url(#c2_282)" preserveAspectRatio="none" x="152" y="1067" width="75" height="76" xlink:href="img/2.png"/>
<path d="M204,1137.2c0,0,-26.8,11.3,-51.1,-12.8c0,0,15.2,25.3,49.3,24c0,0,24.8,.3,20.3,-10.1c0,0,1.2,-4.5,-18.5,-1.1Z" class="g8_282"/>
<path d="M32.1,179.3H967.5V32.1H32.1V179.3Z" class="g9_282"/>
<path d="M254.5,134c-.5,0,-1,.2,-1.5,.4c-.5,.3,-.9,.5,-1.3,.8c-.8,.8,-1.4,1.8,-1.8,2.8c-.4,1,-.7,2.1,-.7,3.3c0,1.5,.3,2.8,.9,3.9c.8,1.4,1.8,2.1,3.2,2.1c.3,0,.6,0,.9,-.1c.2,-.1,.5,-.2,.7,-.4c.2,-.2,.3,-.4,.4,-.7c.1,-.2,.2,-.5,.2,-.8c0,-.4,-.1,-.9,-.4,-1.2c-.3,-.3,-.7,-.5,-1,-.5c-.2,0,-.4,.1,-.6,.1c-.2,.1,-.3,.2,-.5,.3c-.1,.2,-.2,.3,-.3,.4c-.1,.2,-.1,.4,-.1,.6c0,.2,0,.4,.2,.7c.1,.2,.3,.4,.5,.6c0,0,-.1,.1,-.2,.1H253c-.8,0,-1.4,-.5,-1.9,-1.4c-.5,-.7,-.7,-1.5,-.7,-2.3c0,-1,.1,-1.9,.3,-2.7c.2,-.7,.6,-1.4,1,-2.1c.4,-.7,1,-1.3,1.6,-1.7c.7,-.5,1.5,-.8,2.4,-1L254.5,134Zm15.6,1.2L268.8,134H253.7l1.2,1.2h7.8v1c-2.6,.8,-4.9,2.1,-7,3.7l1.7,2.1c1.4,.1,2.6,.7,3.7,1.8c.4,.5,.9,1,1.3,1.6c.4,.7,.7,1.3,1,2c0,.1,.1,.1,.1,.2c.1,0,.2,.1,.3,.1v-10c1.2,0,2.1,.3,2.8,1c.6,.7,1,1.4,1,2.2l-.1,.3c-.2,-.2,-.4,-.3,-.6,-.4c-.2,-.2,-.4,-.2,-.6,-.2c-.4,0,-.8,.1,-1,.4c-.3,.2,-.4,.5,-.4,.9c0,.2,0,.4,.1,.6c.1,.2,.2,.3,.4,.5c.1,.1,.3,.2,.5,.3c.2,.1,.4,.1,.6,.1c.2,0,.5,-.1,.7,-.2c.3,-.1,.5,-.3,.7,-.5c.1,-.2,.3,-.4,.4,-.7c.1,-.3,.1,-.5,.1,-.8c0,-1.3,-.4,-2.4,-1.2,-3.4c-.9,-1.2,-2,-1.7,-3.4,-1.7v-.9h6.3Zm-7.5,9.1c-1,-1.8,-2.5,-3.1,-4.5,-4c.8,-.5,1.6,-1,2.3,-1.4c.8,-.4,1.5,-.8,2.2,-1.1v6.5Zm12.1,-9.1L273.5,134h-1.1c-.3,-.4,-.6,-1,-.7,-1.9l-.4,-.3c0,.2,0,.5,0,.9c0,.3,0,.7,.1,1.2c0,.5,0,.9,0,1.3c.1,.3,.1,.6,.1,.9c-.3,-.8,-.6,-1.3,-1,-1.6c-.4,-.3,-1,-.5,-1.7,-.5h-1.4l1.2,1.2c.4,0,.7,.1,1,.2c.4,.1,.6,.3,.9,.5c.2,.2,.4,.4,.6,.7c.1,.3,.2,.7,.2,1v8.9l1.1,1.2V135.2h2.3Zm11.9,-3.3c-2.3,-2.4,-4.8,-3.6,-7.3,-3.6c-1,0,-2,.4,-3.1,1.2c-1.1,.9,-1.6,1.8,-1.6,2.7c0,.4,.2,.7,.5,1l.8,.8h-3.2l1.2,1.2h1.8v11.3l1.2,1.2V135.2H279L277.8,134h-1.3l-.5,-1.1c.1,-.9,.6,-1.6,1.7,-2.3c.9,-.7,1.8,-1,2.7,-1c.7,0,1.3,.1,1.8,.2c.6,.2,1.2,.4,1.7,.7c.6,.4,1.1,.7,1.6,1c.5,.4,.9,.7,1.3,1l-.2,-.6Zm3.6,3.3L289,134H277.3l1.1,1.2h8.2v.9c-2.5,.8,-4.9,2.1,-7.3,3.7l1.6,2.3h-.1c1.7,.1,3.1,.7,4.1,1.6c.3,.3,.6,.6,.9,1c.4,.4,.6,.8,.8,1c.1,.3,.3,.7,.5,1.3l.7,.8V135.2h2.4Zm-3.6,9.4c-1,-1.8,-2.7,-3.2,-4.8,-4.1c.9,-.6,1.7,-1.1,2.5,-1.5c.8,-.4,1.6,-.7,2.3,-1v6.6Zm-4.7,1.7c.3,.3,.6,.4,.9,.4c.3,0,.6,-.1,.9,-.4c.2,-.2,.3,-.5,.3,-.8c0,-.4,-.1,-.7,-.3,-.9c-.3,-.3,-.6,-.4,-.9,-.4c-.3,0,-.6,.1,-.9,.4c-.2,.2,-.3,.5,-.3,.9c0,.3,.1,.6,.3,.8Zm19,-11.1L299.7,134H288.5c.6,1,1.8,1.7,3.4,2.2c.7,.2,1.2,.4,1.6,.6c.4,.2,.7,.4,.8,.6c-.5,.4,-1.1,.8,-1.7,1.4c-.6,.5,-1.2,1.1,-1.9,1.7l1.6,2.1c1.5,.1,2.7,.5,3.6,1.2c.5,.5,1.1,1.2,1.7,2.3c.6,1,1,1.6,1.3,1.8V135.2h2Zm-3.1,9.5h-.1c-1,-1.7,-2.5,-2.9,-4.5,-3.6c.5,-.5,1,-1.1,1.5,-1.6c.5,-.5,1,-.9,1.5,-1.4c-.6,-.7,-1.2,-1.3,-1.7,-1.8c-.5,-.5,-1,-.9,-1.3,-1.1h4.6v9.5Zm-4.7,2c.3,.2,.6,.3,.9,.3c.3,0,.6,-.1,.9,-.3c.2,-.3,.3,-.6,.3,-.9c0,-.3,-.1,-.6,-.3,-.9c-.3,-.2,-.6,-.3,-.9,-.3c-.3,0,-.6,.1,-.9,.3c-.2,.3,-.3,.6,-.3,.9c0,.3,.1,.6,.3,.9Zm12.5,-11.5L304.4,134h-1c-.4,-.4,-.6,-1,-.8,-1.9l-.4,-.3c0,.2,0,.5,0,.9c0,.3,.1,.7,.1,1.2c0,.5,.1,.9,.1,1.3c0,.3,0,.6,0,.9c-.3,-.8,-.6,-1.3,-1,-1.6c-.4,-.3,-.9,-.5,-1.7,-.5h-1.3l1.2,1.2c.3,0,.6,.1,1,.2c.3,.1,.6,.3,.8,.5c.3,.2,.5,.4,.6,.7c.1,.3,.2,.7,.2,1v8.9l1.2,1.2V135.2h2.2Zm11.2,0L315.5,134H303.9l1.1,1.2h8.5v6.6h-.1c-1.3,-2.6,-2.7,-4,-4.4,-4c-.8,0,-1.5,.3,-2.1,.9c-.6,.5,-.9,1.2,-.9,2c0,1.5,.8,2.2,2.3,2.2c.5,0,.9,-.2,1.2,-.5c.3,-.4,.5,-.8,.5,-1.3c0,-.3,-.3,-.8,-.8,-1.5c.1,-.1,.2,-.1,.3,-.1c1.3,0,2.4,.8,3.4,2.5c.6,1.4,.9,2.9,.9,4.2l-.1,1.3l1,.6V135.2h2.1ZM334.9,134h-12l1.2,1.2c.5,.6,.8,1,1.1,1.2c.2,.2,.5,.3,.8,.4c.3,.2,.7,.3,1.1,.4c.8,.3,1.4,.5,1.6,.8c.5,.4,.7,1.1,.7,2.2c-.2,-.2,-.6,-.3,-.9,-.3c-.8,0,-1.3,.2,-1.8,.5c-.5,.4,-.7,1,-.7,1.6c0,.6,.2,1.1,.6,1.5c.4,.4,.8,.5,1.4,.5c.3,0,.7,0,1,-.2c.4,-.1,.8,-.5,1.1,-.9c1.6,.5,2.7,2,3.4,4.4l.4,.5V135.2h2.2L334.9,134Zm-2.1,9.8c-.3,-.4,-.6,-.8,-.9,-1.2c-.4,-.4,-.8,-.8,-1.2,-1.2c0,-.1,0,-.2,0,-.3v-.3c0,-1.1,-.4,-2.1,-1.1,-3.1c-.5,-.7,-1.4,-1.5,-2.6,-2.5h5.8v8.6Zm3.9,7.4c-.1,-.2,-.2,-.4,-.3,-.5c-.1,-.2,-.3,-.4,-.5,-.7c-.3,-.3,-.6,-.7,-1,-1c-.3,-.3,-.6,-.6,-.9,-.9c0,-.4,0,-.8,0,-1.2c-.1,-.5,-.1,-.9,-.3,-1.2l-1,-.7c.1,.6,.2,1,.2,1.5c0,.4,0,.7,-.1,.9c-.8,-.4,-1.3,-.6,-1.8,-.6c-.3,0,-.6,.1,-.8,.1c-.3,.1,-.5,.3,-.7,.4c-.2,.2,-.4,.4,-.5,.6c-.1,.3,-.2,.5,-.2,.8c0,.6,.3,1,.7,1.4c.5,.3,1,.5,1.6,.5c1,-.1,1.8,-.6,2.5,-1.5c.2,.2,.5,.4,.8,.6c.2,.2,.5,.4,.8,.7c.3,.3,.5,.5,.8,.8c.2,.3,.5,.6,.7,.9v-.9Zm-4.8,-3.1c.2,.1,.3,.2,.5,.4c-.2,.2,-.4,.4,-.7,.6c-.4,.2,-.7,.3,-1.1,.2c-.4,0,-.6,-.3,-.6,-.6c.1,-.5,.5,-.7,1.3,-.8c.2,.1,.4,.1,.6,.2Zm16.2,-16.2c-2.3,-2.4,-4.7,-3.6,-7.2,-3.6c-1,0,-2,.4,-3.1,1.2c-1.1,.9,-1.6,1.8,-1.6,2.7c0,.4,.1,.7,.5,1l.8,.8h-3.2l1.2,1.2h1.8v11.3l1.2,1.2V135.2h2.1L339.4,134h-1.3l-.5,-1.1c.1,-.9,.6,-1.6,1.7,-2.3c.9,-.7,1.8,-1,2.7,-1c.6,0,1.2,.1,1.8,.2c.6,.2,1.1,.4,1.7,.7c.6,.4,1.1,.7,1.6,1c.5,.4,.9,.7,1.3,1l-.3,-.6Zm5.5,3.3L352.4,134H339l1.2,1.2h13.4Zm-1.7,2.9c-.3,-.5,-.6,-.9,-.9,-1.1c-.3,-.3,-.6,-.5,-.9,-.5c-.2,.3,-.3,.6,-.5,.9c-.2,.3,-.4,.6,-.6,.8c-.7,.7,-1.2,1,-1.8,.9c.4,-.4,.6,-.9,.6,-1.2c0,-.4,-.2,-.8,-.5,-1.1c-.3,-.2,-.7,-.4,-1.1,-.4c-1.3,0,-2,.7,-2,1.9c0,.8,.3,1.4,.9,1.9c.6,.4,1.2,.6,1.9,.6c1.5,0,2.8,-.6,3.9,-1.9c.4,0,.6,.6,.6,1.7c0,.9,-.4,1.7,-1,2.3c-.7,.7,-1.4,1,-2.3,1c-.9,0,-1.7,-.2,-2.5,-.7c-.7,-.4,-1.4,-1,-2.1,-1.7c-.4,-.6,-.8,-1.4,-1.2,-2.2c-.5,-.8,-.8,-1.7,-1.1,-2.7l-.7,-.2c.4,1.4,.9,2.7,1.3,3.7c.4,1,.7,1.8,1.1,2.3c1.3,2.3,3,3.5,4.9,3.5c1.5,0,2.6,-.6,3.5,-1.6c.4,-.5,.7,-1.1,.9,-1.7c.2,-.6,.3,-1.3,.3,-2c0,-.7,-.2,-1.5,-.7,-2.5ZM367.1,134c-.5,0,-1,.2,-1.5,.4c-.5,.3,-.9,.5,-1.3,.8c-.8,.8,-1.4,1.8,-1.8,2.8c-.4,1,-.7,2.1,-.7,3.3c0,1.5,.3,2.8,.9,3.9c.8,1.4,1.8,2.1,3.2,2.1c.3,0,.6,0,.9,-.1c.2,-.1,.5,-.2,.7,-.4c.2,-.2,.3,-.4,.4,-.7c.1,-.2,.2,-.5,.2,-.8c0,-.4,-.1,-.9,-.4,-1.2c-.3,-.3,-.7,-.5,-1.1,-.5c-.1,0,-.3,.1,-.5,.1c-.2,.1,-.3,.2,-.5,.3c-.1,.2,-.2,.3,-.3,.4c-.1,.2,-.1,.4,-.1,.6c0,.2,0,.4,.1,.7c.2,.2,.4,.4,.6,.6c0,0,-.1,.1,-.2,.1h-.1c-.8,0,-1.4,-.5,-1.9,-1.4c-.5,-.7,-.7,-1.5,-.7,-2.3c0,-1,.1,-1.9,.3,-2.7c.2,-.7,.6,-1.4,1,-2.1c.4,-.7,1,-1.3,1.6,-1.7c.7,-.5,1.5,-.8,2.4,-1L367.1,134Zm12.5,1.2L378.4,134H366.6l1.3,1.2h1.2v7.1l1.6,1.7c.6,-1.1,1.3,-2.1,2.1,-2.9c.9,-.9,1.9,-1.5,3,-1.9c-.3,1,-.5,2.1,-.5,3.1c0,.6,.1,1.3,.2,2.2c.1,.8,.3,1.8,.6,3l.8,.4c-.3,-1.6,-.5,-2.8,-.5,-3.7c0,-.9,.2,-1.8,.5,-2.8c.2,-1,.7,-2,1.2,-3l-2,-1.5c-.4,.1,-.8,.3,-1.3,.6c-.5,.2,-1,.5,-1.5,.8c-.5,.4,-1,.7,-1.5,1.2c-.5,.4,-.9,.8,-1.4,1.3v-5.6h9.2Zm6,-1.2h-7.9l1.2,1.2h3.9c-1.7,2,-2.5,4,-2.5,6.1c0,1.5,.3,2.8,.9,3.9c.8,1.4,1.8,2.1,3.2,2.1c.3,0,.6,0,.9,-.1c.2,-.1,.5,-.2,.7,-.4c.2,-.2,.3,-.4,.4,-.7c.1,-.2,.2,-.5,.2,-.8c0,-.4,-.1,-.9,-.4,-1.2c-.3,-.3,-.7,-.5,-1.1,-.5c-.3,0,-.7,.2,-1,.4c-.3,.3,-.4,.6,-.4,1c0,.2,0,.4,.1,.7c.2,.2,.4,.4,.6,.6c-.7,.2,-1.4,-.2,-2.2,-1.3c-.5,-.7,-.7,-1.5,-.7,-2.3c0,-1,.1,-1.9,.3,-2.7c.2,-.7,.6,-1.4,1,-2.1c.4,-.7,1,-1.3,1.6,-1.7c.7,-.5,1.5,-.8,2.4,-1L385.6,134Zm11.4,0c-.5,-.1,-.8,-.2,-1,-.6c0,-.1,0,-.2,-.1,-.5c0,-.2,0,-.5,0,-.7l-.7,-.4v12.3c-.8,-1.4,-2.1,-2.5,-3.8,-3.4c.7,-.2,1.4,-.6,1.9,-1.2c.6,-.6,.9,-1.3,.9,-2c0,-.7,-.3,-1.3,-.9,-1.9c-.1,-.1,-.2,-.2,-.5,-.5c-.3,-.3,-.7,-.6,-1.1,-1c-.3,.3,-.6,.5,-.8,.8c-.2,.2,-.4,.3,-.4,.4c-.2,.2,-.5,.3,-.7,.5c-.3,.1,-.5,.2,-.8,.2c0,-.7,-.4,-1.1,-1.1,-1.1c-.4,0,-.7,.2,-1,.4c-.2,.3,-.3,.6,-.3,.9c0,.5,.2,.9,.5,1.2c.4,.3,.8,.5,1.3,.5c1.3,0,2.6,-.7,3.9,-2c.4,.4,.6,.8,.6,1.3c0,.4,-.1,.7,-.4,1c-.3,.2,-.8,.5,-1.3,.8c-.5,.2,-.9,.3,-1.4,.4c-.4,.1,-.9,.2,-1.3,.2c-.1,0,-.3,0,-.5,-.1c-.1,0,-.3,0,-.4,0l2,2.5c1.1,.1,2.2,.4,3.2,1h-.1c.6,.3,1,.6,1.4,1c.4,.4,.8,.9,1.1,1.3c0,.1,.1,.3,.2,.5c0,.2,.2,.5,.3,.8c0,.2,.1,.3,.3,.5c.1,.2,.2,.4,.4,.5V135.2h1.9L397,134Zm14.6,0c-.5,0,-1,.2,-1.5,.4c-.4,.3,-.9,.5,-1.3,.8c-.7,.8,-1.3,1.8,-1.8,2.8c-.4,1,-.6,2.1,-.7,3.3c0,1.5,.4,2.8,1,3.9c.7,1.4,1.8,2.1,3.2,2.1c.3,0,.5,0,.8,-.1c.3,-.1,.5,-.2,.7,-.4c.2,-.2,.4,-.4,.5,-.7c.1,-.2,.1,-.5,.1,-.8c0,-.4,-.1,-.9,-.4,-1.2c-.3,-.3,-.6,-.5,-1,-.5c-.2,0,-.4,.1,-.6,.1c-.1,.1,-.3,.2,-.4,.3c-.2,.2,-.3,.3,-.4,.4c0,.2,-.1,.4,-.1,.6c0,.2,.1,.4,.2,.7c.1,.2,.3,.4,.6,.6c-.1,0,-.2,.1,-.3,.1h-.1c-.7,0,-1.4,-.5,-1.9,-1.4c-.4,-.7,-.6,-1.5,-.6,-2.3c0,-1,.1,-1.9,.3,-2.7c.2,-.7,.5,-1.4,.9,-2.1c.5,-.7,1,-1.3,1.7,-1.7c.6,-.5,1.4,-.8,2.3,-1L411.6,134Zm15.6,1.2L426,134H410.8l1.2,1.2h7.8v1c-2.6,.8,-4.9,2.1,-6.9,3.7l1.7,2.1c1.3,.1,2.5,.7,3.6,1.8c.5,.5,.9,1,1.3,1.6c.4,.7,.7,1.3,1,2c0,.1,.1,.1,.2,.2c.1,0,.2,.1,.2,.1v-10c1.3,0,2.2,.3,2.8,1c.7,.7,1,1.4,1,2.2l-.1,.3c-.2,-.2,-.3,-.3,-.5,-.4c-.2,-.2,-.4,-.2,-.7,-.2c-.4,0,-.7,.1,-1,.4c-.2,.2,-.4,.5,-.4,.9c0,.2,.1,.4,.2,.6c0,.2,.2,.3,.3,.5c.2,.1,.3,.2,.5,.3c.2,.1,.4,.1,.6,.1c.3,0,.5,-.1,.8,-.2c.2,-.1,.4,-.3,.6,-.5c.2,-.2,.3,-.4,.4,-.7c.1,-.3,.2,-.5,.2,-.8c0,-1.3,-.4,-2.4,-1.3,-3.4c-.8,-1.2,-1.9,-1.7,-3.3,-1.7v-.9h6.2Zm-7.4,9.1h-.1c-.9,-1.8,-2.4,-3.1,-4.4,-4c.8,-.5,1.6,-1,2.3,-1.4c.7,-.4,1.4,-.8,2.2,-1.1v6.5Zm12,-9.1L430.7,134h-1.1c-.4,-.4,-.6,-1,-.8,-1.9l-.4,-.3c0,.2,0,.5,0,.9c0,.3,.1,.7,.1,1.2c0,.5,.1,.9,.1,1.3c0,.3,0,.6,0,.9c-.2,-.8,-.6,-1.3,-1,-1.6c-.4,-.3,-.9,-.5,-1.6,-.5h-1.4l1.2,1.2c.3,0,.7,.1,1,.2c.3,.1,.6,.3,.8,.5c.3,.2,.5,.4,.6,.7c.2,.3,.2,.7,.2,1v8.9l1.2,1.2V135.2h2.2Zm11.9,-3.3c-2.3,-2.4,-4.7,-3.6,-7.3,-3.6c-1,0,-2,.4,-3,1.2c-1.1,.9,-1.7,1.8,-1.7,2.7c0,.4,.2,.7,.5,1l.9,.8h-3.2l1.1,1.2h1.9v11.3l1.2,1.2V135.2h2.1L435,134h-1.3l-.5,-1.1c0,-.9,.6,-1.6,1.6,-2.3c1,-.7,1.9,-1,2.8,-1c.6,0,1.2,.1,1.8,.2c.5,.2,1.1,.4,1.7,.7c.5,.4,1.1,.7,1.6,1c.4,.4,.9,.7,1.2,1l-.2,-.6Zm3.7,3.3L446.2,134H434.4l1.2,1.2h8.2v.9c-2.5,.8,-5,2.1,-7.4,3.7l1.6,2.3c1.7,.1,3,.7,4.1,1.6c.2,.3,.5,.6,.9,1c.3,.4,.5,.8,.7,1c.1,.3,.3,.7,.6,1.3l.6,.8V135.2h2.5Zm-3.6,9.4c-1.1,-1.8,-2.7,-3.2,-4.9,-4.1c.9,-.6,1.7,-1.1,2.5,-1.5c.8,-.4,1.6,-.7,2.4,-1v6.6Zm-4.7,1.7c.2,.3,.5,.4,.8,.4c.4,0,.7,-.1,.9,-.4c.3,-.2,.4,-.5,.4,-.8c0,-.4,-.1,-.7,-.4,-.9c-.2,-.3,-.5,-.4,-.9,-.4c-.3,0,-.6,.1,-.8,.4c-.3,.2,-.4,.5,-.4,.9c0,.3,.1,.6,.4,.8ZM458,135.2L456.8,134H445.7c.6,1,1.7,1.7,3.3,2.2c.7,.2,1.2,.4,1.7,.6c.4,.2,.6,.4,.8,.6c-.5,.4,-1.1,.8,-1.7,1.4c-.7,.5,-1.3,1.1,-1.9,1.7l1.6,2.1c1.4,.1,2.6,.5,3.5,1.2c.6,.5,1.2,1.2,1.8,2.3c.5,1,1,1.6,1.3,1.8V135.2H458Zm-3.1,9.5c-1.1,-1.7,-2.6,-2.9,-4.5,-3.6c.5,-.5,1,-1.1,1.5,-1.6c.4,-.5,.9,-.9,1.4,-1.4c-.6,-.7,-1.1,-1.3,-1.7,-1.8c-.5,-.5,-.9,-.9,-1.3,-1.1h4.6v9.5Zm-4.6,2c.2,.2,.5,.3,.8,.3c.4,0,.7,-.1,.9,-.3c.2,-.3,.4,-.6,.4,-.9c0,-.3,-.2,-.6,-.4,-.9c-.2,-.2,-.5,-.3,-.9,-.3c-.3,0,-.6,.1,-.8,.3c-.3,.3,-.4,.6,-.4,.9c0,.3,.1,.6,.4,.9Zm12.5,-11.5L461.6,134h-1.1c-.3,-.4,-.6,-1,-.7,-1.9l-.5,-.3c0,.2,0,.5,.1,.9c0,.3,0,.7,0,1.2c.1,.5,.1,.9,.1,1.3c0,.3,0,.6,0,.9c-.2,-.8,-.5,-1.3,-.9,-1.6c-.4,-.3,-1,-.5,-1.7,-.5h-1.4l1.2,1.2c.4,0,.7,.1,1,.2c.3,.1,.6,.3,.9,.5c.2,.2,.4,.4,.5,.7c.2,.3,.3,.7,.3,1v8.9l1.1,1.2V135.2h2.3Zm11.1,0L472.7,134H461l1.2,1.2h8.4v6.6c-1.3,-2.6,-2.8,-4,-4.5,-4c-.8,0,-1.5,.3,-2.1,.9c-.5,.5,-.8,1.2,-.8,2c0,1.5,.7,2.2,2.3,2.2c.5,0,.9,-.2,1.2,-.5c.3,-.4,.4,-.8,.4,-1.3c0,-.3,-.2,-.8,-.8,-1.5c.1,-.1,.2,-.1,.4,-.1c1.2,0,2.4,.8,3.3,2.5c.7,1.4,1,2.9,1,4.2l-.1,1.3l.9,.6V135.2h2.1Zm20.9,0L493.5,134H480.1l1.3,1.2h13.4Zm-1.7,2.9c-.3,-.5,-.6,-.9,-.9,-1.1c-.3,-.3,-.6,-.5,-.9,-.5c-.2,.3,-.4,.6,-.6,.9c-.1,.3,-.3,.6,-.6,.8c-.6,.7,-1.2,1,-1.7,.9c.3,-.4,.5,-.9,.5,-1.2c0,-.4,-.1,-.8,-.4,-1.1c-.3,-.2,-.7,-.4,-1.1,-.4c-1.3,0,-2,.7,-2,1.9c0,.8,.3,1.4,.9,1.9c.5,.4,1.2,.6,1.9,.6c1.5,0,2.8,-.6,3.9,-1.9c.3,0,.5,.6,.5,1.7c0,.9,-.3,1.7,-1,2.3c-.6,.7,-1.4,1,-2.3,1c-.8,0,-1.6,-.2,-2.4,-.7c-.8,-.4,-1.5,-1,-2.1,-1.7c-.4,-.6,-.9,-1.4,-1.3,-2.2c-.4,-.8,-.8,-1.7,-1,-2.7l-.8,-.2c.5,1.4,.9,2.7,1.3,3.7c.4,1,.8,1.8,1.1,2.3c1.4,2.3,3,3.5,5,3.5c1.4,0,2.6,-.6,3.5,-1.6c.4,-.5,.7,-1.1,.9,-1.7c.2,-.6,.3,-1.3,.3,-2c0,-.7,-.3,-1.5,-.7,-2.5Zm6.3,-2.9L498.3,134h-1.1c-.4,-.4,-.6,-1,-.8,-1.9l-.4,-.3c0,.2,0,.5,0,.9c.1,.3,.1,.7,.1,1.2c0,.5,.1,.9,.1,1.3c0,.3,0,.6,0,.9c-.2,-.8,-.6,-1.3,-.9,-1.6c-.4,-.3,-1,-.5,-1.7,-.5h-1.4l1.2,1.2c.3,0,.7,.1,1,.2c.3,.1,.6,.3,.8,.5c.3,.2,.5,.4,.6,.7c.2,.3,.2,.7,.2,1v8.9l1.2,1.2V135.2h2.2Zm10.7,0L508.9,134h-11c.5,.6,1,1.1,1.3,1.5c.4,.3,.7,.6,1,.7c.3,.1,.5,.2,.8,.2c.3,.1,.5,.1,.7,.2c.8,.1,1.4,.4,1.8,.8l-3.5,3c.3,.4,.6,.7,.8,1.1c.3,.4,.6,.7,.9,1c.6,.1,1.3,.2,1.8,.3c.5,.1,1,.3,1.3,.6c.3,.1,.6,.4,.9,.8c.3,.4,.7,1,1.1,1.7c.2,.3,.5,.6,.7,.9c.2,.3,.5,.6,.8,.9V135.2h1.8Zm-3,4c-1.4,-1.3,-3,-2.6,-4.9,-4h4.9v4Zm0,5.4c-1.3,-1.8,-2.8,-3,-4.5,-3.6c.5,-.6,1,-1.1,1.4,-1.4c.4,-.4,.7,-.7,1,-.9c.3,.2,.6,.4,1,.7c.3,.3,.7,.6,1.1,1v4.2Zm7.8,-9.4L513.7,134h-1.1c-.3,-.4,-.6,-1,-.7,-1.9l-.4,-.3c0,.2,0,.5,0,.9c0,.3,0,.7,0,1.2c.1,.5,.1,.9,.1,1.3c0,.3,.1,.6,.1,.9c-.3,-.8,-.6,-1.3,-1,-1.6c-.4,-.3,-1,-.5,-1.7,-.5h-1.4l1.2,1.2c.4,0,.7,.1,1,.2c.3,.1,.6,.3,.9,.5c.2,.2,.4,.4,.6,.7c.1,.3,.2,.7,.2,1v8.9l1.1,1.2V135.2h2.3Zm19.6,-3.3c-2.3,-2.4,-4.7,-3.6,-7.2,-3.6c-1,0,-2,.4,-3.1,1.2c-1.1,.9,-1.6,1.8,-1.6,2.7c0,.4,.1,.7,.5,1l.8,.8h-3.2l1.2,1.2h1.8v11.3l1.2,1.2V135.2H527L525.8,134h-1.3l-.5,-1.1c.1,-.9,.6,-1.6,1.7,-2.3c.9,-.7,1.8,-1,2.7,-1c.6,0,1.2,.1,1.8,.2c.6,.2,1.1,.4,1.7,.7c.6,.4,1.1,.7,1.6,1c.5,.4,.9,.7,1.3,1l-.3,-.6Zm5.3,3.3L538.6,134c-.7,-.1,-1.2,-.6,-1.3,-1.5l-.7,-.6l.2,5.3h-.1c-.1,-.5,-.5,-1.2,-1.2,-2c-.7,-.8,-1.3,-1.2,-1.7,-1.2c-1.3,0,-2.3,.8,-3,2.4c-.2,-.7,-.5,-1.2,-1.1,-1.7c-.5,-.5,-1.1,-.7,-1.7,-.7h-2.6l1.2,1.2c.1,0,.6,0,1.4,0c.7,0,1.4,.5,2,1.5c-.3,.1,-.6,.2,-.8,.4c-.3,.2,-.5,.4,-.7,.7c-.2,.2,-.3,.5,-.5,.8c-.1,.2,-.1,.5,-.1,.8c0,.4,.1,.8,.4,1.2c.3,.3,.6,.5,1.1,.5c.9,0,1.6,-.5,1.9,-1.5c.2,.5,.4,.8,.8,1.1c.3,.2,.7,.4,1.1,.4c.5,-.1,.9,-.3,1.2,-.7c.2,-.3,.4,-.7,.4,-1.2c0,-.6,-.7,-1.3,-1.9,-2.2c0,-.3,.1,-.6,.4,-.7c.3,-.2,.6,-.3,.9,-.3c.5,0,1,.3,1.6,1c.5,.8,.8,1.4,.8,1.9l-.1,7.7l1.2,1.2V135.2h2.1Zm12,-3.3c-2.3,-2.4,-4.7,-3.6,-7.3,-3.6c-.9,0,-2,.4,-3,1.2c-1.1,.9,-1.6,1.8,-1.6,2.7c0,.4,.1,.7,.4,1l.9,.8H538l1.2,1.2H541v11.3l1.2,1.2V135.2h2.1L543.1,134h-1.3l-.5,-1.1c.1,-.9,.6,-1.6,1.6,-2.3c1,-.7,1.9,-1,2.8,-1c.6,0,1.2,.1,1.8,.2c.6,.2,1.1,.4,1.7,.7c.6,.4,1.1,.7,1.6,1c.4,.4,.9,.7,1.3,1l-.3,-.6Zm3,2.1c-.5,-.1,-.9,-.2,-1,-.6c0,-.1,-.1,-.2,-.1,-.5c0,-.2,0,-.5,0,-.7l-.7,-.4v12.3c-.8,-1.4,-2.1,-2.5,-3.8,-3.4c.7,-.2,1.3,-.6,1.9,-1.2c.5,-.6,.8,-1.3,.8,-2c0,-.7,-.3,-1.3,-.8,-1.9c-.1,-.1,-.3,-.2,-.6,-.5c-.2,-.3,-.6,-.6,-1.1,-1c-.2,.3,-.5,.5,-.7,.8c-.3,.2,-.4,.3,-.4,.4c-.3,.2,-.5,.3,-.8,.5c-.2,.1,-.5,.2,-.7,.2c-.1,-.7,-.5,-1.1,-1.2,-1.1c-.3,0,-.6,.2,-.9,.4c-.2,.3,-.4,.6,-.4,.9c0,.5,.2,.9,.6,1.2c.3,.3,.7,.5,1.2,.5c1.3,0,2.7,-.7,4,-2c.4,.4,.6,.8,.6,1.3c0,.4,-.2,.7,-.5,1c-.3,.2,-.7,.5,-1.3,.8c-.4,.2,-.9,.3,-1.3,.4c-.5,.1,-.9,.2,-1.3,.2c-.2,0,-.3,0,-.5,-.1c-.2,0,-.3,0,-.5,0l2.1,2.5c1.1,.1,2.2,.4,3.1,1c.5,.3,1,.6,1.4,1c.4,.4,.7,.9,1,1.3c.1,.1,.1,.3,.2,.5c.1,.2,.2,.5,.3,.8c.1,.2,.2,.3,.3,.5c.2,.2,.3,.4,.5,.5V135.2H556L554.8,134Z" class="ga_282"/>
<g clip-path="url(#c0_282)">
<path d="M1877,177.2H32.1v-5.4H768.7c43.1,0,53,-37.9,115.3,-37.9h993Z" class="gb_282"/>
<path d="M1877,183.7H32.1v-9.8H768.7c43.1,0,53,-33.6,115.3,-33.6h993Z" class="gc_282"/>
</g>
<image clip-path="url(#c3_282)" preserveAspectRatio="none" x="125" y="206" width="734" height="181" xlink:href="img/3.png"/>
<path d="M144.6,231.3c0,0,-13,0,-13,13v117c0,0,0,13,13,13H833.1c0,0,13,0,13,-13v-130Z" class="gd_282"/>
<path d="M147.7,294.1l54.1,40.8l54.1,-40.8V230h8.7V211.9H155.8c-6.5,.4,-7.7,3.9,-8.2,8.4Z" class="ge_282"/>
<path d="M274,220.3c-.3,-4.7,-4.2,-8.4,-9,-8.4c-4.8,0,-8.7,3.7,-9,8.4h-.1V230h18.2v-9.7Z" class="gf_282"/>
<path d="M255.9,230.6H846.1" class="gg_282"/>
<path d="M131.7,397.4v39l11.7,10.3V402.5Z" class="gh_282"/>
<path d="M131.7,397.4v39H829.5c0,0,16.8,0,16.8,-16.8v-5.4c0,0,0,-16.8,-16.8,-16.8Z" class="g5_282"/>
<path d="M781,431c8.2,0,14.8,-6.5,14.8,-14.5c0,-8,-6.6,-14.5,-14.8,-14.5c-8.3,0,-14.9,6.5,-14.9,14.5c0,8,6.6,14.5,14.9,14.5Z" class="gi_282"/>
<path d="M781,431c8.2,0,14.8,-6.5,14.8,-14.5c0,-8,-6.6,-14.5,-14.8,-14.5c-8.3,0,-14.9,6.5,-14.9,14.5c0,8,6.6,14.5,14.9,14.5Z" class="gj_282"/>
<path d="M781,421.9c3,0,5.4,-2.4,5.4,-5.4c0,-2.9,-2.4,-5.3,-5.4,-5.3c-3.1,0,-5.5,2.4,-5.5,5.3c0,3,2.4,5.4,5.5,5.4Z" class="g1_282"/>
<path d="M781,421.9c3,0,5.4,-2.4,5.4,-5.4c0,-2.9,-2.4,-5.3,-5.4,-5.3c-3.1,0,-5.5,2.4,-5.5,5.3c0,3,2.4,5.4,5.5,5.4Z" class="gk_282"/>
<g clip-path="url(#c4_282)" opacity="0.3">
<path d="M766.4,415.8v0c0,0,-.1,-4.9,3.6,-8.7l7.8,6.7c0,0,-1,1,-1.1,2.7Z" class="g1_282"/>
</g>
<path d="M785.6,416.4c0,0,-3.5,0,-3.5,3.5v8.7c0,0,0,3.4,3.5,3.4H829c0,0,3.5,0,3.5,-3.4v-8.7c0,0,0,-3.5,-3.5,-3.5Z" class="gf_282"/>
<path d="M169.5,407.5c0,-8.3,-6.7,-15.1,-15,-15.1c-8.4,0,-15.1,6.8,-15.1,15.1c0,8.3,6.8,15,15.1,15c.8,0,1.6,0,2.4,-.2l4.5,5.3v-6.8c4.8,-2.5,8.1,-7.5,8.1,-13.3Z" class="g1_282"/>
<path d="M161.8,428.8l-5.1,-6c-.7,.1,-1.5,.2,-2.2,.2c-8.6,0,-15.6,-7,-15.6,-15.5c0,-8.6,7,-15.5,15.6,-15.5c8.5,0,15.5,6.9,15.5,15.5c0,5.7,-3.1,10.9,-8.2,13.6Zm-4.7,-7l3.8,4.5v-5.7l.3,-.2c4.8,-2.5,7.9,-7.4,7.9,-12.9c0,-8.1,-6.6,-14.6,-14.6,-14.6c-8.1,0,-14.6,6.5,-14.6,14.6c0,8,6.5,14.6,14.6,14.6c.7,0,1.5,-.1,2.3,-.2Z" class="gl_282"/>
<path d="M147.4,407c.8,0,1.5,.7,1.5,1.5c0,.8,-.7,1.4,-1.5,1.4c-.7,0,-1.4,-.6,-1.4,-1.4c0,-.8,.7,-1.5,1.4,-1.5Z" class="gm_282"/>
<path d="M147.4,410.4c-1,0,-1.8,-.9,-1.8,-1.9c0,-1.1,.8,-1.9,1.8,-1.9c1.1,0,1.9,.8,1.9,1.9c0,1,-.8,1.9,-1.9,1.9m0,-2.9c-.5,0,-.9,.4,-.9,1c0,.5,.4,1,.9,1c.6,0,1,-.5,1,-1c0,-.6,-.4,-1,-1,-1Z" class="gl_282"/>
<path d="M154.5,407c.8,0,1.4,.7,1.4,1.5c0,.8,-.6,1.4,-1.4,1.4c-.8,0,-1.5,-.6,-1.5,-1.4c0,-.8,.7,-1.5,1.5,-1.5Z" class="gm_282"/>
<path d="M154.5,410.4c-1.1,0,-1.9,-.9,-1.9,-1.9c0,-1.1,.8,-1.9,1.9,-1.9c1,0,1.9,.8,1.9,1.9c0,1,-.9,1.9,-1.9,1.9m0,-2.9c-.6,0,-1,.4,-1,1c0,.5,.4,1,1,1c.5,0,.9,-.5,.9,-1c0,-.6,-.4,-1,-.9,-1Z" class="gl_282"/>
<path d="M161.5,407c.8,0,1.4,.7,1.4,1.5c0,.8,-.6,1.4,-1.4,1.4c-.8,0,-1.5,-.6,-1.5,-1.4c0,-.8,.7,-1.5,1.5,-1.5Z" class="gm_282"/>
<path d="M161.5,410.4c-1.1,0,-1.9,-.9,-1.9,-1.9c0,-1.1,.8,-1.9,1.9,-1.9c1,0,1.9,.8,1.9,1.9c0,1,-.9,1.9,-1.9,1.9m0,-2.9c-.6,0,-1,.4,-1,1c0,.5,.4,1,1,1c.5,0,1,-.5,1,-1c0,-.6,-.5,-1,-1,-1Z" class="gl_282"/>
<path d="M163.4,421.7c0,-9.7,7.9,-17.6,17.6,-17.6c9.7,0,17.6,7.9,17.6,17.6c0,9.7,-7.9,17.6,-17.6,17.6c-.9,0,-1.9,-.1,-2.8,-.2l-5.3,6.1v-7.8c-5.6,-3,-9.5,-8.9,-9.5,-15.7Z" class="gn_282"/>
<path d="M172.9,445.7c0,0,-.1,0,-.1,-.1c-.2,0,-.3,-.2,-.3,-.4v-7.6c-5.9,-3.1,-9.6,-9.2,-9.6,-15.9c0,-10,8.2,-18.1,18.1,-18.1c10,0,18.1,8.1,18.1,18.1c0,10,-8.1,18.1,-18.1,18.1c-.8,0,-1.7,-.1,-2.6,-.2l-5.1,5.9c-.1,.1,-.2,.2,-.4,.2M181,404.6c-9.4,0,-17.1,7.7,-17.1,17.1c0,6.5,3.5,12.3,9.2,15.3c.2,0,.3,.2,.3,.4V444l4.4,-5.2c.1,-.1,.3,-.2,.5,-.1c.9,.1,1.8,.2,2.7,.2c9.5,0,17.2,-7.7,17.2,-17.2c0,-9.4,-7.7,-17.1,-17.2,-17.1Z" class="gl_282"/>
<path d="M189.2,421.2c.9,0,1.7,.8,1.7,1.7c0,.9,-.8,1.7,-1.7,1.7c-.9,0,-1.7,-.8,-1.7,-1.7c0,-.9,.8,-1.7,1.7,-1.7Z" class="g1_282"/>
<path d="M189.2,425c-1.2,0,-2.1,-.9,-2.1,-2.1c0,-1.2,.9,-2.1,2.1,-2.1c1.2,0,2.1,.9,2.1,2.1c0,1.2,-.9,2.1,-2.1,2.1m0,-3.3c-.7,0,-1.2,.5,-1.2,1.2c0,.7,.5,1.2,1.2,1.2c.7,0,1.2,-.5,1.2,-1.2c0,-.7,-.5,-1.2,-1.2,-1.2Z" class="gl_282"/>
<path d="M181,421.2c.9,0,1.7,.8,1.7,1.7c0,.9,-.8,1.7,-1.7,1.7c-.9,0,-1.7,-.8,-1.7,-1.7c0,-.9,.8,-1.7,1.7,-1.7Z" class="g1_282"/>
<path d="M181,425c-1.2,0,-2.1,-.9,-2.1,-2.1c0,-1.2,.9,-2.1,2.1,-2.1c1.2,0,2.1,.9,2.1,2.1c0,1.2,-.9,2.1,-2.1,2.1m0,-3.3c-.7,0,-1.2,.5,-1.2,1.2c0,.7,.5,1.2,1.2,1.2c.7,0,1.2,-.5,1.2,-1.2c0,-.7,-.5,-1.2,-1.2,-1.2Z" class="gl_282"/>
<path d="M172.8,421.2c.9,0,1.7,.8,1.7,1.7c0,.9,-.8,1.7,-1.7,1.7c-.9,0,-1.7,-.8,-1.7,-1.7c0,-.9,.8,-1.7,1.7,-1.7Z" class="g1_282"/>
<path d="M172.8,425c-1.2,0,-2.1,-.9,-2.1,-2.1c0,-1.2,.9,-2.1,2.1,-2.1c1.2,0,2.1,.9,2.1,2.1c0,1.2,-.9,2.1,-2.1,2.1m0,-3.3c-.7,0,-1.2,.5,-1.2,1.2c0,.7,.5,1.2,1.2,1.2c.7,0,1.2,-.5,1.2,-1.2c0,-.7,-.5,-1.2,-1.2,-1.2Z" class="gl_282"/>
<image clip-path="url(#c5_282)" preserveAspectRatio="none" x="568" y="525" width="304" height="243" xlink:href="img/4.png"/>
<path d="M573.3,552.6l18.9,209.5L865.4,739.3L848.9,529Z" class="go_282"/>
<image clip-path="url(#c6_282)" preserveAspectRatio="none" x="574" y="532" width="294" height="229" xlink:href="img/5.png"/>
<image clip-path="url(#c7_282)" preserveAspectRatio="none" x="574" y="532" width="293" height="228" xlink:href="img/6.png"/>
<path d="M579.2,544.3l5.6,209.1l239.1,-6.2l37.4,-26.8L856.6,536.3Z" class="gp_282"/>
<path d="M824.2,747l37.3,-26.8l-21.8,-7.9Z" class="gq_282"/>
<image clip-path="url(#c8_282)" x="719" y="537" width="5" height="10" xlink:href="shade/1.png"/>
<image clip-path="url(#c9_282)" x="718" y="511" width="25" height="28" xlink:href="shade/2.png"/>
<image clip-path="url(#ca_282)" x="718" y="513" width="23" height="34" xlink:href="shade/3.png"/>
<image clip-path="url(#cb_282)" x="723" y="509" width="20" height="10" xlink:href="shade/4.png"/>
<path d="M293.1,597c13,-3.5,55,-12.5,140.7,-10.3" class="gr_282"/>
<path d="M440.4,588.9c3.6,2.6,7.2,6.9,-2.9,9.8m-6.9,.5c-3.6,-.5,-7.9,-1.8,-6.5,-5.5" class="gs_282"/>
<path d="M429.1,588.4c10.6,-8.4,43.7,-32.3,80.7,-35.8m7.7,-.8c9.2,-.7,31.5,-1.3,60.4,5.6" class="gr_282"/>
<path d="M288.7,598.3c0,0,.5,-.2,1.5,-.5m145.1,-11c.6,0,1.1,0,1.6,0c0,0,.5,.2,1.2,.7m-1.9,11.6c-.5,.1,-.9,.2,-1.4,.3c0,0,-.5,0,-1.4,0m-8.7,-7c.3,-.3,.5,-.7,.9,-1.1c0,0,.3,-.4,1.1,-1m84.6,-37.9c.5,0,1,-.1,1.5,-.1c0,0,.5,-.1,1.5,-.2m65.1,5.7c.5,.1,1,.2,1.5,.4" class="gt_282"/>
<path d="M573.8,560.9l7,-6.4l6.1,8.8Z" class="gu_282"/>
<path d="M427.3,668.5c35,-.5,63.5,-6.6,69.2,-14.4m-1,-6.8C487.9,640,459.7,634.5,425.8,634.2m-7.7,0c-35,.5,-63.5,6.5,-69.1,14.3m1,6.8c7.6,7.3,35.7,12.9,69.7,13.2" class="g3_282"/>
<path d="M497.2,652.8c.2,-.5,.3,-1,.3,-1.5c0,-.5,-.1,-1,-.3,-1.5m-73,-15.7c-.5,0,-1,0,-1.5,0c-.5,0,-1,0,-1.5,0m-73,15.7c-.2,.5,-.3,1,-.3,1.5c0,.5,.1,1,.3,1.5m73,15.7c.5,0,1,0,1.5,0c.5,0,1,0,1.5,0" class="g4_282"/>
<image clip-path="url(#cc_282)" preserveAspectRatio="none" x="635" y="781" width="236" height="189" xlink:href="img/7.png"/>
<path d="M640,791.2l5,172.4l220.2,-5.5L859.5,785.6Z" class="go_282"/>
<image clip-path="url(#cd_282)" preserveAspectRatio="none" x="636" y="782" width="236" height="187" xlink:href="img/8.png"/>
<image clip-path="url(#ce_282)" preserveAspectRatio="none" x="636" y="782" width="236" height="187" xlink:href="img/9.png"/>
<path d="M644.8,786.3l-4.4,171.2l183.1,5l38.4,-23l4,-147.2Z" class="gp_282"/>
<path d="M823.6,962.8l38.1,-23.2l-15.6,-9.3Z" class="gq_282"/>
<image clip-path="url(#cf_282)" x="751" y="792" width="5" height="9" xlink:href="shade/5.png"/>
<image clip-path="url(#cg_282)" x="750" y="765" width="24" height="28" xlink:href="shade/6.png"/>
<image clip-path="url(#ch_282)" x="750" y="767" width="23" height="34" xlink:href="shade/7.png"/>
<image clip-path="url(#ci_282)" x="755" y="763" width="20" height="10" xlink:href="shade/8.png"/>
<path d="M431.2,672.8c9.9,16,49.2,76.8,84.5,90" class="gr_282"/>
<path d="M522,761.5c1.9,-2.2,2.4,-6,-6.9,-11.3m-5.9,-.6c-1,.5,-1.8,1.4,-2,2.8" class="gs_282"/>
<path d="M508.6,759.3c3.2,8,15.6,25.4,64.2,43.1" class="gr_282"/>
<path d="M580,804.8c8.7,2.7,29.8,8.1,57.8,7.6" class="gs_282"/>
<path d="M428.9,669c0,0,.2,.4,.7,1.3m87.6,93c.4,.2,.9,.4,1.4,.5c0,0,.5,-.2,1.2,-.6m-5.9,-13.6c-.4,-.2,-.8,-.5,-1.2,-.7c0,0,-.5,0,-1.2,.1m-4.2,4.6c0,.4,.1,.8,.2,1.2c0,0,0,.5,.2,1.5m66.6,46.6c.5,.2,.9,.3,1.4,.5c0,0,.5,.2,1.5,.5m62.1,8.4c.5,0,1,0,1.5,0" class="gt_282"/>
<path d="M639.2,808.3l1.4,8.5l10.8,-6.5Z" class="gu_282"/>
<path d="M32.1,45.1H9.2m958.3,0h22.9M32.1,1331.3H9.2m958.3,0h22.9M45.1,32.1V9.2m0,1335.1v22.9M954.5,32.1V9.2m0,1335.1v22.9" class="gv_282"/>
<path d="M32.1,45.1H9.2m958.3,0h22.9M32.1,1331.3H9.2m958.3,0h22.9M45.1,32.1V9.2m0,1335.1v22.9M954.5,32.1V9.2m0,1335.1v22.9" class="gw_282"/>
<path d="M27.5,32.1H0m972.1,0h27.5M27.5,1344.3H0m972.1,0h27.5M32.1,27.5V0m0,1348.9v27.5M967.5,27.5V0m0,1348.9v27.5" class="gv_282"/>
<path d="M27.5,32.1H0m972.1,0h27.5M27.5,1344.3H0m972.1,0h27.5M32.1,27.5V0m0,1348.9v27.5M967.5,27.5V0m0,1348.9v27.5" class="gw_282"/>
</svg>