<?xml version="1.0" encoding="UTF-8" standalone="no"?>
<!DOCTYPE svg PUBLIC "-//W3C//DTD SVG 1.1//EN"
"http://www.w3.org/Graphics/SVG/1.1/DTD/svg11.dtd">
<svg viewBox="0 0 999 1376" version="1.1" xmlns="http://www.w3.org/2000/svg" xmlns:xlink="http://www.w3.org/1999/xlink">
<defs>
<clipPath id="c0_318"><path d="M32.1,1344.3V32.1H967.5V1344.3Z"/></clipPath>
<clipPath id="c1_318"><path d="M176.6,544l-6.5,-2.1l-16.4,-14V470.8h72V544Z"/></clipPath>
<clipPath id="c2_318"><path d="M176.6,1113.3l-6.5,-2.1l-16.4,-13.9v-57.1h72v73.1Z"/></clipPath>
<clipPath id="c3_318"><path d="M752.2,578.7c-.3,-.1,3.5,-8.2,3.5,-8.2l.8,.5c0,0,-4,7.7,-4.3,7.7Z"/></clipPath>
<clipPath id="c4_318"><path d="M759.7,571c0,0,-6.9,-1.1,-7.6,-5.2c-.6,-3.6,1.5,-3.9,2.1,-3.9q.1,0,.1,0l8.3,-12.7l-1.4,-3.1c0,0,-.6,-1.1,.1,-2c.1,-.1,.2,-.1,.3,-.1c2.1,0,13,5.5,13,5.5v.1c-.3,.6,-.7,1.2,-1.4,1.7c-.6,.5,-5,1.1,-5,1.1L759.7,571Z"/></clipPath>
<clipPath id="c5_318"><path d="M759.3,570.6c.2,-.4,.2,-1.8,0,-2.2V567c-1.5,-.5,-2.9,-1.2,-3.7,-2.5c-1.1,.6,-2.1,1.2,-3.1,1.9c1.6,2.1,3.8,3.5,6.8,4.2Zm0,-3.9c2.2,-4.5,4,-9.5,6.1,-14c-.8,-.4,-1.8,-1.4,-2.6,-1.4c-2.3,4.3,-4.6,8.6,-7,12.8c.7,1.3,2.1,2,3.5,2.6ZM752,578.8c1,-2.9,2.4,-5.5,3.5,-8.3c-2,-1.5,-3.9,-3.1,-4.4,-6.1v-1.5c0,-2.8,1.9,-3.4,4.6,-3.4q.1,0,.2,0c1.9,-3.4,4.2,-6.4,6.1,-9.7c-.5,-.9,-1.1,-2.4,-.8,-3.7c.5,1.3,1.6,1.9,2.4,2.9c-.2,.6,-.3,1.2,-.4,1.8c.6,.7,1.3,1.2,2.4,1.4c.4,-.5,.5,-1.3,1.1,-1.5c.9,.3,1.8,.7,3.1,.7c.2,.1,.5,.2,.9,.2c.3,0,.6,-.1,.8,-.2c.1,0,.2,.1,.3,.1c.2,0,.4,-.1,.6,-.2c.2,0,.4,-.1,.5,-.1c.1,0,.2,0,.3,.1c-1.3,.6,-2.2,1.8,-4.2,1.8c-.1,0,-.2,0,-.3,0c-.9,3.7,-1.8,7.3,-2.6,11.1c.5,1.1,1.5,1.7,1.2,3.2c-.4,2.7,-3.8,4.4,-7.2,4.4c-1.2,0,-2.5,-.3,-3.6,-.8c-1,2.1,-2.1,4.2,-3.3,6c0,-.3,.3,-.3,.3,-.7c1,-1.8,1.9,-3.6,2.6,-5.7c-1,1.7,-1.8,3.7,-2.7,5.6c-.2,.4,-.4,.8,-.7,1.2c-.3,.4,-.2,1.2,-.7,1.4Z"/></clipPath>
<clipPath id="c6_318"><path d="M769.7,551c-4.8,0,-13.1,-7.3,-5.5,-8.8h1.2c.2,.1,.4,.1,.6,.1c0,0,.1,0,.1,0c.3,0,.7,0,1.1,.1c3.1,.6,8.2,3.8,7.5,7c-.2,1.2,-1.5,1.6,-3.1,1.6h-1.9Z"/></clipPath>
<clipPath id="c7_318"><path d="M78.4,975.6v-237H283v237Z"/></clipPath>
<clipPath id="c8_318"><path d="M77.7,974.7v-236H282.3v236Z"/></clipPath>
<clipPath id="c9_318"><path d="M172.3,758.8c-.3,-.1,3.5,-8.2,3.5,-8.2l.8,.5c0,0,-4,7.7,-4.3,7.7Z"/></clipPath>
<clipPath id="ca_318"><path d="M179.8,751c0,0,-6.9,-1.1,-7.6,-5.2c-.6,-3.6,1.5,-3.8,2.1,-3.8q.1,0,.1,0l8.3,-12.7l-1.4,-3.1c0,0,-.6,-1.1,.1,-2.1c.1,-.1,.2,-.1,.3,-.1c2.1,0,13,5.6,13,5.6v.1c-.3,.5,-.7,1.1,-1.4,1.6c-.6,.5,-5.1,1.2,-5.1,1.2L179.8,751Z"/></clipPath>
<clipPath id="cb_318"><path d="M179.4,750.7c.2,-.5,.2,-1.8,0,-2.3V747c-1.6,-.5,-2.9,-1.2,-3.7,-2.5c-1.1,.6,-2.1,1.3,-3.1,1.9c1.5,2.2,3.8,3.6,6.8,4.3Zm0,-3.9c2.2,-4.6,4,-9.5,6.1,-14.1c-.8,-.4,-1.8,-1.3,-2.6,-1.4c-2.3,4.4,-4.6,8.7,-7,12.9c.7,1.3,2.1,2,3.5,2.6Zm-7.3,12.1c1,-2.9,2.4,-5.5,3.5,-8.3c-2,-1.6,-3.9,-3.1,-4.4,-6.2v-1.5c0,-2.7,1.9,-3.4,4.6,-3.4q.1,0,.2,0c1.9,-3.3,4.2,-6.3,6.1,-9.7c-.5,-.8,-1.1,-2.3,-.8,-3.6c.5,1.2,1.6,1.9,2.3,2.9c-.1,.6,-.2,1.1,-.3,1.7c.6,.7,1.3,1.2,2.4,1.4c.4,-.4,.5,-1.2,1.1,-1.5c.9,.4,1.8,.8,3.1,.8c.2,.1,.5,.1,.8,.1c.4,0,.7,0,.9,-.1c.1,0,.2,0,.3,0c.2,0,.4,-.1,.6,-.1c.2,-.1,.3,-.2,.5,-.2c.1,0,.2,.1,.3,.1c-1.3,.7,-2.2,1.8,-4.1,1.8c-.2,0,-.3,0,-.4,0c-.9,3.7,-1.9,7.4,-2.6,11.2c.5,1,1.5,1.7,1.2,3.1c-.4,2.8,-3.8,4.4,-7.2,4.4c-1.2,0,-2.5,-.2,-3.6,-.7c-1,2.1,-2.1,4.1,-3.3,6c0,-.4,.3,-.4,.3,-.8c1,-1.8,1.9,-3.5,2.6,-5.6c-1,1.7,-1.8,3.7,-2.7,5.5c-.2,.4,-.4,.9,-.7,1.3c-.3,.4,-.3,1.1,-.7,1.4Z"/></clipPath>
<clipPath id="cc_318"><path d="M189.8,731.1c-4.8,0,-13.1,-7.3,-5.5,-8.8h1.2c.2,0,.4,0,.6,0c0,0,.1,0,.1,0c0,0,.1,0,.1,0c.3,0,.6,0,1,.1c3.1,.7,8.2,3.8,7.5,7.1c-.2,1.1,-1.5,1.5,-3.1,1.6h-1.9Z"/></clipPath>
<clipPath id="cd_318"><path d="M125.5,386.7V205.8H858.6V386.7Z"/></clipPath>
<clipPath id="ce_318"><path d="M764.8,435.3V422.9h14.5v12.4Z"/></clipPath>
<clipPath id="cf_318"><path d="M637.9,832.4v-281H856.2v281Z"/></clipPath>
<clipPath id="cg_318"><path d="M645.2,828.3V557.1H849.3V828.3Z"/></clipPath>
<clipPath id="ch_318"><path d="M644.9,827.4V556.8H849V827.4Z"/></clipPath>
<style type="text/css"><![CDATA[
.g0_318{
fill: #FEFCF4;
}
.g1_318{
fill: #FFF;
}
.g2_318{
fill: none;
stroke: #6381B7;
stroke-width: 0.763;
}
.g3_318{
fill: #6381B7;
}
.g4_318{
fill: none;
stroke: #6381B7;
stroke-width: 0.381;
stroke-dasharray: 2,1;
}
.g5_318{
fill: none;
stroke: #6381B7;
stroke-width: 0.381;
}
.g6_318{
fill: none;
stroke: #949698;
stroke-width: 0.305;
stroke-dasharray: 3,3;
}
.g7_318{
fill: none;
stroke: #949698;
stroke-width: 0.305;
stroke-dasharray: 4,4;
}
.g8_318{
fill: none;
stroke: #949698;
stroke-width: 0.305;
}
.g9_318{
fill: #6D6F71;
}
.ga_318{
fill: none;
stroke: #818385;
stroke-width: 0.305;
stroke-dasharray: 3,3;
}
.gb_318{
fill: none;
stroke: #818385;
stroke-width: 0.305;
}
.gc_318{
fill: #FCE8B0;
}
.gd_318{
fill: #F7C2D9;
}
.ge_318{
fill: #FEF6F5;
}
.gf_318{
fill: #EC008C;
}
.gg_318{
fill: #2E6E51;
}
.gh_318{
fill: none;
stroke: #FFF;
stroke-width: 0.152;
stroke-miterlimit: 1;
}
.gi_318{
fill: #BCBEC0;
}
.gj_318{
fill: #EE314A;
}
.gk_318{
fill: #CEEDFB;
}
.gl_318{
fill: #27639D;
}
.gm_318{
fill: #231F20;
}
.gn_318{
fill: none;
stroke: #204A78;
stroke-width: 1.527;
}
.go_318{
fill: #25408F;
}
.gp_318{
fill: #A8AAAD;
}
.gq_318{
fill: none;
stroke: #949698;
stroke-width: 0.549;
}
.gr_318{
fill: none;
stroke: #BCBEC0;
stroke-width: 2.566;
}
.gs_318{
fill: #363637;
}
.gt_318{
fill: #5CC4BE;
}
.gu_318{
fill: #EAD646;
}
.gv_318{
fill: none;
stroke: #FFF;
stroke-width: 1.909;
stroke-miterlimit: 10;
}
.gw_318{
fill: none;
stroke: #000;
stroke-width: 0.381;
stroke-miterlimit: 10;
}
]]></style>
</defs>
<path d="M32.1,1344.3H954.5V32.1H32.1V1344.3Z" class="g0_318"/>
<path clip-path="url(#c0_318)" d="M954.5,1344.3H1877V32.1H954.5V1344.3Z" class="g0_318"/>
<path d="M150.4,440.5c0,0,-18.3,0,-18.3,18.3V992.5c0,0,0,18.4,18.3,18.4H827.5c0,0,18.4,0,18.4,-18.4v-552Z" class="g1_318"/>
<path d="M150.4,440.5c0,0,-18.3,0,-18.3,18.3V992.5c0,0,0,18.4,18.3,18.4H827.5c0,0,18.4,0,18.4,-18.4v-552H150.4Z" class="g2_318"/>
<path d="M540.2,1214.8c0,0,-4.3,0,-4.3,4.4V1230c0,0,0,4.3,4.3,4.3h30.4c0,0,4.3,0,4.3,-4.3v-10.8c0,0,0,-4.4,-4.3,-4.4Z" class="g3_318"/>
<path d="M527.1,1206v37.5m1.3,1H845.1m1,-1.3v-37.6m-1.4,-1H528" class="g4_318"/>
<path d="M527.1,1243.9v.6h.5m317.9,0h.6v-.6m0,-38.7v-.6h-.6m-317.9,0h-.5v.6" class="g5_318"/>
<path d="M474.2,564.1c17.9,-9.3,92.1,-44.4,142.5,-15.3m5.7,4.1c3.1,3.4,.2,5.7,-2.8,7.1" class="g6_318"/>
<path d="M613.1,558.6c-3.3,-4.3,-4,-12.7,14.2,-11.8m8,.8c22.3,3.2,44.1,13.7,63.6,22.5" class="g7_318"/>
<path d="M470.2,566.2c0,0,.5,-.3,1.4,-.7M618,549.6c.4,.3,.9,.5,1.3,.8c.4,.3,.8,.5,1.1,.8m-2.1,9.3c-.4,.2,-.8,.4,-1.2,.5c-.5,.2,-1,.1,-1.6,-.2M629,546.9c.5,0,1.1,0,1.6,.1c.5,0,1.1,.1,1.6,.2m68.1,23.6c.5,.2,.9,.4,1.4,.6" class="g8_318"/>
<path d="M697.2,564.2l-3.6,8l12.2,.6Z" class="g9_318"/>
<path d="M465,585.8c4.2,-1.8,7.4,-6.4,8.1,-12.1m-.2,-6.9c-1.2,-5.5,-4.8,-9.8,-9.2,-11.1m-6.8,.4c-4.2,1.9,-7.4,6.5,-8.2,12.1m.3,6.9c1.2,5.5,4.7,9.9,9.2,11.1" class="ga_318"/>
<path d="M473.3,572.3c0,-.4,0,-.9,0,-1.3c0,-.5,0,-1,0,-1.4m-11,-14.2c-.4,-.1,-.9,-.1,-1.4,-.1c-.4,0,-.9,0,-1.3,.1m-11,14.2c-.1,.4,-.1,.9,-.1,1.4c0,.4,0,.9,.1,1.3m11,14.2c.4,.1,.9,.1,1.3,.1c.5,0,1,0,1.4,-.1" class="gb_318"/>
<path d="M209.2,499c0,0,-13,0,-13,13v21.6c0,0,0,13,13,13h602c0,0,13,0,13,-13V512c0,0,0,-13,-13,-13Z" class="gc_318"/>
<image clip-path="url(#c1_318)" preserveAspectRatio="none" x="152" y="469" width="75" height="77" xlink:href="img/1.png"/>
<path d="M204,539.3c0,0,-26.8,11.3,-51.1,-12.8c0,0,15.2,25.3,49.3,24c0,0,24.8,.3,20.3,-10.2c0,0,1.2,-4.4,-18.5,-1Z" class="gc_318"/>
<path d="M145.1,1027c0,0,-13,0,-13,13v146.5c0,0,0,13,13,13H832.9c0,0,13,0,13,-13V1040c0,0,0,-13,-13,-13Z" class="g1_318"/>
<path d="M145.1,1027c0,0,-13,0,-13,13v146.5c0,0,0,13,13,13H832.9c0,0,13,0,13,-13V1040c0,0,0,-13,-13,-13H145.1Z" class="g2_318"/>
<path d="M209.2,1068.4c0,0,-13,0,-13,12.9V1103c0,0,0,13,13,13h602c0,0,13,0,13,-13v-21.7c0,0,0,-12.9,-13,-12.9Z" class="gc_318"/>
<image clip-path="url(#c2_318)" preserveAspectRatio="none" x="152" y="1039" width="75" height="76" xlink:href="img/2.png"/>
<path d="M204,1108.6c0,0,-26.8,11.3,-51.1,-12.7c0,0,15.2,25.3,49.3,23.9c0,0,24.8,.4,20.3,-10.1c0,0,1.2,-4.4,-18.5,-1.1Z" class="gc_318"/>
<image clip-path="url(#c3_318)" x="751" y="570" width="6" height="9" xlink:href="shade/1.png"/>
<image clip-path="url(#c4_318)" x="751" y="543" width="24" height="28" xlink:href="shade/2.png"/>
<image clip-path="url(#c5_318)" x="751" y="546" width="23" height="33" xlink:href="shade/3.png"/>
<image clip-path="url(#c6_318)" x="756" y="542" width="20" height="10" xlink:href="shade/4.png"/>
<image clip-path="url(#c7_318)" preserveAspectRatio="none" x="78" y="739" width="205" height="237" xlink:href="img/3.png"/>
<path d="M88.7,743.4l-5,223.3l189.8,2.8L276.7,746Z" class="gd_318"/>
<g clip-path="url(#c8_318)">
<image preserveAspectRatio="none" x="77" y="739" width="205" height="236" xlink:href="img/4.png"/>
<image preserveAspectRatio="none" x="77" y="739" width="205" height="236" xlink:href="img/5.png"/>
</g>
<path d="M82.5,750l6.4,218.7l155.2,-5.3l32.2,-28.2L270.8,743.6Z" class="ge_318"/>
<path d="M244.1,963.4l32.2,-28l-21.9,-5.8Z" class="gf_318"/>
<path d="M388.5,800.3C377,785,328.9,728.4,251.7,731.4m-7.3,1.6c-3.1,2.5,-.1,7.5,3.6,7.5m5.1,-5c.6,-4.3,-4.6,-9.5,-17.9,-11.5m-7.7,-.5c-21.9,.6,-65.8,15.7,-99.4,32.5" class="g7_318"/>
<path d="M391.3,804.1c0,0,-.3,-.4,-.9,-1.3M250.2,731.5c-.6,0,-1.1,.1,-1.6,.1c-.5,0,-1,.1,-1.5,.2m2.3,8.4c.5,-.2,.9,-.5,1.3,-.8c.4,-.4,.8,-.7,1.1,-1.1M233.7,723.8c-.5,0,-1,-.1,-1.5,-.1c-.5,-.1,-1,-.1,-1.6,-.1M126.7,756.7c-.5,.2,-1,.5,-1.4,.7" class="g8_318"/>
<path d="M398.6,835.2c12,-1,21.5,-6.2,23.7,-12.7m-.6,-7.3c-3.1,-6.1,-12.8,-10.8,-24.6,-11.5m-7.4,.1c-11.9,1.1,-21.4,6.2,-23.7,12.8m.6,7.2c3.1,6.2,12.8,10.9,24.6,11.5" class="ga_318"/>
<path d="M422.7,821c0,-.5,.1,-1,.1,-1.5c0,-.5,-.1,-1,-.1,-1.5m-27,-14.3c-.5,0,-1,-.1,-1.5,-.1c-.5,0,-1,.1,-1.5,.1m-27,14.3c-.1,.5,-.1,1,-.1,1.5c0,.5,0,1,.1,1.5m27,14.4c.5,0,1,0,1.5,0c.5,0,1,0,1.5,0" class="gb_318"/>
<path d="M131.7,758.6L127.3,751l-7.6,9.5Z" class="g9_318"/>
<image clip-path="url(#c9_318)" x="172" y="750" width="5" height="9" xlink:href="shade/5.png"/>
<image clip-path="url(#ca_318)" x="171" y="724" width="24" height="28" xlink:href="shade/6.png"/>
<image clip-path="url(#cb_318)" x="171" y="726" width="23" height="33" xlink:href="shade/7.png"/>
<image clip-path="url(#cc_318)" x="176" y="722" width="20" height="10" xlink:href="shade/8.png"/>
<path d="M32.1,179.3H967.5V32.1H32.1V179.3Z" class="gg_318"/>
<path d="M254.5,134c-.5,0,-1,.2,-1.5,.4c-.5,.3,-.9,.5,-1.3,.8c-.8,.8,-1.4,1.8,-1.8,2.8c-.4,1,-.7,2.1,-.7,3.3c0,1.5,.3,2.8,.9,3.9c.8,1.4,1.8,2.1,3.2,2.1c.3,0,.6,0,.9,-.1c.2,-.1,.5,-.2,.7,-.4c.2,-.2,.3,-.4,.4,-.7c.1,-.2,.2,-.5,.2,-.8c0,-.4,-.1,-.9,-.4,-1.2c-.3,-.3,-.7,-.5,-1,-.5c-.2,0,-.4,.1,-.6,.1c-.2,.1,-.3,.2,-.5,.3c-.1,.2,-.2,.3,-.3,.4c-.1,.2,-.1,.4,-.1,.6c0,.2,0,.4,.2,.7c.1,.2,.3,.4,.5,.6c0,0,-.1,.1,-.2,.1H253c-.8,0,-1.4,-.5,-1.9,-1.4c-.5,-.7,-.7,-1.5,-.7,-2.3c0,-1,.1,-1.9,.3,-2.7c.2,-.7,.6,-1.4,1,-2.1c.4,-.7,1,-1.3,1.6,-1.7c.7,-.5,1.5,-.8,2.4,-1L254.5,134Zm15.6,1.2L268.8,134H253.7l1.2,1.2h7.8v1c-2.6,.8,-4.9,2.1,-7,3.7l1.7,2.1c1.4,.1,2.6,.7,3.7,1.8c.4,.5,.9,1,1.3,1.6c.4,.7,.7,1.3,1,2c0,.1,.1,.1,.1,.2c.1,0,.2,.1,.3,.1v-10c1.2,0,2.1,.3,2.8,1c.6,.7,1,1.4,1,2.2l-.1,.3c-.2,-.2,-.4,-.3,-.6,-.4c-.2,-.2,-.4,-.2,-.6,-.2c-.4,0,-.8,.1,-1,.4c-.3,.2,-.4,.5,-.4,.9c0,.2,0,.4,.1,.6c.1,.2,.2,.3,.4,.5c.1,.1,.3,.2,.5,.3c.2,.1,.4,.1,.6,.1c.2,0,.5,-.1,.7,-.2c.3,-.1,.5,-.3,.7,-.5c.1,-.2,.3,-.4,.4,-.7c.1,-.3,.1,-.5,.1,-.8c0,-1.3,-.4,-2.4,-1.2,-3.4c-.9,-1.2,-2,-1.7,-3.4,-1.7v-.9h6.3Zm-7.5,9.1c-1,-1.8,-2.5,-3.1,-4.5,-4c.8,-.5,1.6,-1,2.3,-1.4c.8,-.4,1.5,-.8,2.2,-1.1v6.5Zm12.1,-9.1L273.5,134h-1.1c-.3,-.4,-.6,-1,-.7,-1.9l-.4,-.3c0,.2,0,.5,0,.9c0,.3,0,.7,.1,1.2c0,.5,0,.9,0,1.3c.1,.3,.1,.6,.1,.9c-.3,-.8,-.6,-1.3,-1,-1.6c-.4,-.3,-1,-.5,-1.7,-.5h-1.4l1.2,1.2c.4,0,.7,.1,1,.2c.4,.1,.6,.3,.9,.5c.2,.2,.4,.4,.6,.7c.1,.3,.2,.7,.2,1v8.9l1.1,1.2V135.2h2.3ZM285.2,134h-.9c-.1,-.1,-.2,-.2,-.3,-.3c-.1,-.2,-.1,-.3,-.2,-.4l-.1,-.8l-.6,-.7v13.1c-.2,-.4,-.4,-.7,-.7,-1c-.3,-.4,-.7,-.7,-1.1,-1c-.2,-.2,-.5,-.4,-.9,-.7c-.4,-.2,-.9,-.5,-1.5,-.8c2,-1.2,3,-2.6,3,-4.1c0,-.9,-.3,-1.6,-.9,-2.3c-.6,-.7,-1.4,-1,-2.3,-1c-.9,0,-1.8,.3,-2.7,.8c-.9,.7,-1.4,1.5,-1.4,2.4c0,.5,.1,.9,.4,1.2c.3,.3,.7,.5,1.2,.5c.2,0,.3,0,.5,-.1c.2,-.1,.4,-.2,.5,-.3c.2,-.1,.3,-.2,.4,-.4c0,-.1,.1,-.3,.1,-.5c0,-.3,-.2,-.7,-.7,-1.2c.2,-.2,.5,-.5,1,-.8c.4,-.2,.8,-.4,1.2,-.4c.4,0,.8,.2,1.1,.5c.3,.3,.4,.6,.4,1.1c0,.4,-.1,.8,-.4,1.2c-.3,.4,-.8,.8,-1.4,1.2c-.6,.3,-1.1,.6,-1.6,.7c-.5,.2,-1,.3,-1.2,.3c-.3,0,-.6,0,-1,0l2,2.5c.7,0,1.5,.1,2.3,.4c.7,.2,1.4,.6,2,1.1c.2,.2,.6,.6,1.1,1.2c.4,.6,1,1.4,1.8,2.4V135.2h2.1L285.2,134Zm5.8,1.2L289.8,134h-1.1c-.3,-.4,-.6,-1,-.7,-1.9l-.5,-.3c0,.2,.1,.5,.1,.9c0,.3,0,.7,0,1.2c.1,.5,.1,.9,.1,1.3c0,.3,0,.6,0,.9c-.2,-.8,-.5,-1.3,-.9,-1.6c-.4,-.3,-1,-.5,-1.7,-.5h-1.4l1.2,1.2c.4,0,.7,.1,1,.2c.3,.1,.6,.3,.9,.5c.2,.2,.4,.4,.6,.7c.1,.3,.2,.7,.2,1v8.9l1.1,1.2V135.2H291Zm10.7,0L300.4,134H289.3c.6,1,1.7,1.7,3.3,2.2c.7,.2,1.3,.4,1.7,.6c.4,.2,.7,.4,.8,.6c-.5,.4,-1.1,.8,-1.7,1.4c-.6,.5,-1.3,1.1,-1.9,1.7l1.6,2.1c1.5,.1,2.6,.5,3.6,1.2c.5,.5,1.1,1.2,1.7,2.3c.5,1,1,1.6,1.3,1.8V135.2h2Zm-3.2,9.5c-1,-1.7,-2.5,-2.9,-4.5,-3.6c.5,-.5,1,-1.1,1.5,-1.6c.5,-.5,1,-.9,1.4,-1.4c-.6,-.7,-1.1,-1.3,-1.6,-1.8c-.5,-.5,-1,-.9,-1.4,-1.1h4.6v9.5Zm-4.6,2c.2,.2,.5,.3,.9,.3c.3,0,.6,-.1,.8,-.3c.3,-.3,.4,-.6,.4,-.9c0,-.3,-.1,-.6,-.4,-.9c-.2,-.2,-.5,-.3,-.8,-.3c-.4,0,-.7,.1,-.9,.3c-.2,.3,-.4,.6,-.4,.9c0,.3,.2,.6,.4,.9Zm27,-11.5L319.7,134H307.9l1.2,1.2h8.2v.9c-2.6,.8,-5,2.1,-7.4,3.7l1.6,2.3c1.7,.1,3,.7,4,1.6c.3,.3,.6,.6,1,1c.3,.4,.5,.8,.7,1.2c.2,.3,.3,.5,.4,.7c0,.1,.1,.2,.1,.4l.7,.8V135.2h2.5Zm-3.6,9.4c-1.1,-1.8,-2.7,-3.2,-4.9,-4.1c.9,-.6,1.7,-1.1,2.5,-1.5c.8,-.4,1.6,-.7,2.4,-1v6.6Zm8.1,-9.4L324.3,134h-6.1l1.2,1.2h3.5c-1.3,1.2,-2,2.6,-1.9,4.2c0,.5,.2,1.4,.5,2.4c.2,.5,.3,1,.4,1.4c0,.4,.1,.8,.1,1c0,.9,-.2,1.6,-.5,2c-.3,.3,-.6,.6,-1,.8c-.3,.2,-.7,.4,-1.1,.5l.7,.5c.4,-.1,.8,-.3,1.2,-.5c.4,-.2,.8,-.5,1.1,-.8c.4,-.4,.6,-.8,.8,-1.3c.2,-.4,.3,-.9,.3,-1.3c0,-.4,0,-.8,-.1,-1.4c0,-.5,-.1,-1.2,-.3,-1.9c-.2,-1.1,-.3,-2.2,-.3,-3.3c.2,-1.5,.8,-2.3,1.9,-2.3h.7Zm4.1,0L328.4,134h-1.1c-.4,-.4,-.6,-1,-.8,-1.9l-.4,-.3c0,.2,0,.5,0,.9c0,.3,.1,.7,.1,1.2c0,.5,.1,.9,.1,1.3c0,.3,0,.6,0,.9c-.2,-.8,-.6,-1.3,-1,-1.6c-.4,-.3,-.9,-.5,-1.6,-.5h-1.4l1.2,1.2c.3,0,.7,.1,1,.2c.3,.1,.6,.3,.8,.5c.3,.2,.5,.4,.6,.7c.2,.3,.2,.7,.2,1v8.9l1.2,1.2V135.2h2.2ZM340,134h-.9c-.1,-.1,-.2,-.2,-.3,-.3c0,-.2,-.1,-.3,-.1,-.4l-.1,-.8l-.6,-.7v13.1h-.1c-.2,-.4,-.4,-.7,-.7,-1c-.3,-.4,-.7,-.7,-1.1,-1c-.2,-.2,-.5,-.4,-.9,-.7c-.4,-.2,-.9,-.5,-1.4,-.8c1.9,-1.2,2.9,-2.6,2.9,-4.1c0,-.9,-.3,-1.6,-.9,-2.3c-.6,-.7,-1.3,-1,-2.2,-1c-1,0,-1.9,.3,-2.8,.8c-.9,.7,-1.4,1.5,-1.4,2.4c0,.5,.2,.9,.5,1.2c.3,.3,.6,.5,1.1,.5c.2,0,.4,0,.6,-.1c.1,-.1,.3,-.2,.5,-.3c.1,-.1,.2,-.2,.3,-.4c.1,-.1,.1,-.3,.1,-.5c0,-.3,-.2,-.7,-.6,-1.2c.1,-.2,.4,-.5,.9,-.8c.5,-.2,.9,-.4,1.2,-.4c.4,0,.8,.2,1.1,.5c.3,.3,.5,.6,.5,1.1c0,.4,-.2,.8,-.5,1.2c-.3,.4,-.8,.8,-1.4,1.2c-.5,.3,-1.1,.6,-1.6,.7c-.5,.2,-.9,.3,-1.2,.3c-.3,0,-.6,0,-.9,0l1.9,2.5c.8,0,1.5,.1,2.3,.4c.8,.2,1.5,.6,2,1.1c.3,.2,.6,.6,1.1,1.2c.5,.6,1.1,1.4,1.8,2.4V135.2h2.1L340,134Zm5.8,1.2L344.6,134h-1c-.4,-.4,-.6,-1,-.8,-1.9l-.4,-.3c0,.2,0,.5,0,.9c0,.3,0,.7,.1,1.2c0,.5,0,.9,.1,1.3c0,.3,0,.6,0,.9c-.3,-.8,-.6,-1.3,-1,-1.6c-.4,-.3,-.9,-.5,-1.7,-.5h-1.3l1.2,1.2c.3,0,.6,.1,.9,.2c.4,.1,.7,.3,.9,.5c.3,.2,.5,.4,.6,.7c.1,.3,.2,.7,.2,1v8.9l1.2,1.2V135.2h2.2Zm7.2,-.5c-.6,-.6,-1.4,-.9,-2.4,-.9c-.6,0,-1.1,.1,-1.6,.3c-.6,.1,-1,.4,-1.4,.7c-.5,.3,-.8,.6,-1,1.1c-.3,.4,-.4,.8,-.4,1.3v.2q0,.1,0,.2l.3,.3c.3,0,.6,-.1,.8,-.2c.3,0,.5,-.1,.8,-.2c-.1,-.1,-.1,-.2,-.1,-.3c-.1,-.1,-.1,-.2,-.1,-.3c0,-.3,.1,-.5,.2,-.8c.1,-.3,.2,-.5,.4,-.7c.2,-.2,.4,-.3,.6,-.4c.2,-.1,.5,-.2,.7,-.2c.7,0,1.3,.3,1.7,.7c.4,.5,.6,1.2,.6,2.1c0,.3,-.1,.6,-.2,.9c-.2,.2,-.4,.5,-.6,.7c-.2,.3,-.4,.5,-.7,.8c-.2,.2,-.4,.5,-.6,.8c-.2,.2,-.4,.5,-.5,.8c-.2,.3,-.2,.7,-.2,1.1l.1,1.2l.2,.2c.2,0,.3,-.1,.4,-.2c0,0,.1,-.1,.2,-.2l.1,-1c0,-.5,.1,-.9,.3,-1.2c.2,-.4,.4,-.6,.7,-.9c.3,-.2,.5,-.4,.8,-.6c.3,-.2,.6,-.5,.8,-.7c.3,-.3,.5,-.6,.7,-.9c.1,-.3,.2,-.8,.2,-1.3c0,-1,-.3,-1.8,-.8,-2.4Zm-3,10.6c-.4,0,-.8,.2,-1,.5c-.3,.3,-.5,.7,-.5,1.2c0,.4,.1,.7,.3,.9c.1,.2,.4,.3,.8,.3c.4,0,.7,-.2,1,-.5c.3,-.3,.4,-.7,.4,-1.2c0,-.8,-.3,-1.2,-1,-1.2Z" class="gh_318"/>
<g clip-path="url(#c0_318)">
<path d="M1877,177.2H32.1v-5.4H768.7c43.1,0,53,-37.9,115.3,-37.9h993Z" class="gi_318"/>
<path d="M1877,183.7H32.1v-9.8H768.7c43.1,0,53,-33.6,115.3,-33.6h993Z" class="gj_318"/>
</g>
<image clip-path="url(#cd_318)" preserveAspectRatio="none" x="125" y="206" width="734" height="181" xlink:href="img/6.png"/>
<path d="M144.6,231.3c0,0,-13,0,-13,13v117c0,0,0,13,13,13H833.1c0,0,13,0,13,-13v-130Z" class="gk_318"/>
<path d="M147.7,294.1l54.1,40.8l54.1,-40.8V230h8.7V211.9H155.8c-6.5,.4,-7.7,3.9,-8.2,8.4Z" class="gl_318"/>
<path d="M274,220.3c-.3,-4.7,-4.2,-8.4,-9,-8.4c-4.8,0,-8.7,3.7,-9,8.4h-.1V230h18.2v-9.7Z" class="gm_318"/>
<path d="M255.9,230.6H846.1" class="gn_318"/>
<path d="M131.7,414.7v39L143.4,464V419.8Z" class="go_318"/>
<path d="M131.7,414.7v39H829.5c0,0,16.8,0,16.8,-16.8v-5.4c0,0,0,-16.8,-16.8,-16.8Z" class="g3_318"/>
<path d="M781,448.3c8.2,0,14.8,-6.5,14.8,-14.5c0,-8,-6.6,-14.5,-14.8,-14.5c-8.3,0,-14.9,6.5,-14.9,14.5c0,8,6.6,14.5,14.9,14.5Z" class="gp_318"/>
<path d="M781,448.3c8.2,0,14.8,-6.5,14.8,-14.5c0,-8,-6.6,-14.5,-14.8,-14.5c-8.3,0,-14.9,6.5,-14.9,14.5c0,8,6.6,14.5,14.9,14.5Z" class="gq_318"/>
<path d="M781,439.2c3,0,5.4,-2.4,5.4,-5.4c0,-2.9,-2.4,-5.3,-5.4,-5.3c-3.1,0,-5.5,2.4,-5.5,5.3c0,3,2.4,5.4,5.5,5.4Z" class="g1_318"/>
<path d="M781,439.2c3,0,5.4,-2.4,5.4,-5.4c0,-2.9,-2.4,-5.3,-5.4,-5.3c-3.1,0,-5.5,2.4,-5.5,5.3c0,3,2.4,5.4,5.5,5.4Z" class="gr_318"/>
<g clip-path="url(#ce_318)" opacity="0.3">
<path d="M766.4,433.1v0c0,0,-.1,-4.9,3.6,-8.7l7.8,6.7c0,0,-1,1,-1.1,2.7Z" class="g1_318"/>
</g>
<path d="M785.6,433.7c0,0,-3.5,0,-3.5,3.5v8.7c0,0,0,3.5,3.5,3.5H829c0,0,3.5,0,3.5,-3.5v-8.7c0,0,0,-3.5,-3.5,-3.5Z" class="gm_318"/>
<path d="M169.5,424.8c0,-8.3,-6.7,-15.1,-15,-15.1c-8.4,0,-15.1,6.8,-15.1,15.1c0,8.3,6.8,15.1,15.1,15.1c.8,0,1.6,-.1,2.4,-.2l4.5,5.2v-6.7c4.8,-2.5,8.1,-7.6,8.1,-13.4Z" class="g1_318"/>
<path d="M161.8,446.1l-5.1,-6c-.7,.2,-1.5,.2,-2.2,.2c-8.6,0,-15.6,-6.9,-15.6,-15.5c0,-8.6,7,-15.5,15.6,-15.5c8.5,0,15.5,6.9,15.5,15.5c0,5.7,-3.1,10.9,-8.2,13.6Zm-4.7,-6.9l3.8,4.4v-5.7l.3,-.1c4.8,-2.6,7.9,-7.5,7.9,-13c0,-8,-6.6,-14.6,-14.6,-14.6c-8.1,0,-14.6,6.6,-14.6,14.6c0,8,6.5,14.6,14.6,14.6c.7,0,1.5,-.1,2.3,-.2Z" class="gs_318"/>
<path d="M147.4,424.4c.8,0,1.5,.6,1.5,1.4c0,.8,-.7,1.4,-1.5,1.4c-.7,0,-1.4,-.6,-1.4,-1.4c0,-.8,.7,-1.4,1.4,-1.4Z" class="gt_318"/>
<path d="M147.4,427.7c-1,0,-1.8,-.8,-1.8,-1.9c0,-1,.8,-1.9,1.8,-1.9c1.1,0,1.9,.9,1.9,1.9c0,1.1,-.8,1.9,-1.9,1.9m0,-2.9c-.5,0,-.9,.5,-.9,1c0,.5,.4,1,.9,1c.6,0,1,-.5,1,-1c0,-.5,-.4,-1,-1,-1Z" class="gs_318"/>
<path d="M154.5,424.4c.8,0,1.4,.6,1.4,1.4c0,.8,-.6,1.4,-1.4,1.4c-.8,0,-1.5,-.6,-1.5,-1.4c0,-.8,.7,-1.4,1.5,-1.4Z" class="gt_318"/>
<path d="M154.5,427.7c-1.1,0,-1.9,-.8,-1.9,-1.9c0,-1,.8,-1.9,1.9,-1.9c1,0,1.9,.9,1.9,1.9c0,1.1,-.9,1.9,-1.9,1.9m0,-2.9c-.6,0,-1,.5,-1,1c0,.5,.4,1,1,1c.5,0,.9,-.5,.9,-1c0,-.5,-.4,-1,-.9,-1Z" class="gs_318"/>
<path d="M161.5,424.4c.8,0,1.4,.6,1.4,1.4c0,.8,-.6,1.4,-1.4,1.4c-.8,0,-1.5,-.6,-1.5,-1.4c0,-.8,.7,-1.4,1.5,-1.4Z" class="gt_318"/>
<path d="M161.5,427.7c-1.1,0,-1.9,-.8,-1.9,-1.9c0,-1,.8,-1.9,1.9,-1.9c1,0,1.9,.9,1.9,1.9c0,1.1,-.9,1.9,-1.9,1.9m0,-2.9c-.6,0,-1,.5,-1,1c0,.5,.4,1,1,1c.5,0,1,-.5,1,-1c0,-.5,-.5,-1,-1,-1Z" class="gs_318"/>
<path d="M163.4,439c0,-9.7,7.9,-17.6,17.6,-17.6c9.7,0,17.6,7.9,17.6,17.6c0,9.8,-7.9,17.6,-17.6,17.6c-.9,0,-1.9,0,-2.8,-.2l-5.3,6.1v-7.8c-5.6,-2.9,-9.5,-8.9,-9.5,-15.7Z" class="gu_318"/>
<path d="M172.9,463c0,0,-.1,0,-.1,0c-.2,-.1,-.3,-.3,-.3,-.5V455c-5.9,-3.2,-9.6,-9.3,-9.6,-16c0,-9.9,8.2,-18,18.1,-18c10,0,18.1,8.1,18.1,18c0,10,-8.1,18.1,-18.1,18.1c-.8,0,-1.7,-.1,-2.6,-.2l-5.1,5.9c-.1,.1,-.2,.2,-.4,.2M181,421.9c-9.4,0,-17.1,7.7,-17.1,17.1c0,6.5,3.5,12.3,9.2,15.3c.2,.1,.3,.2,.3,.4v6.6l4.4,-5.2c.1,-.1,.3,-.1,.5,-.1c.9,.1,1.8,.2,2.7,.2c9.5,0,17.2,-7.7,17.2,-17.2c0,-9.4,-7.7,-17.1,-17.2,-17.1Z" class="gs_318"/>
<path d="M189.2,438.5c.9,0,1.7,.8,1.7,1.7c0,.9,-.8,1.7,-1.7,1.7c-.9,0,-1.7,-.8,-1.7,-1.7c0,-.9,.8,-1.7,1.7,-1.7Z" class="g1_318"/>
<path d="M189.2,442.3c-1.2,0,-2.1,-.9,-2.1,-2.1c0,-1.2,.9,-2.1,2.1,-2.1c1.2,0,2.1,.9,2.1,2.1c0,1.2,-.9,2.1,-2.1,2.1m0,-3.3c-.7,0,-1.2,.5,-1.2,1.2c0,.7,.5,1.2,1.2,1.2c.7,0,1.2,-.5,1.2,-1.2c0,-.7,-.5,-1.2,-1.2,-1.2Z" class="gs_318"/>
<path d="M181,438.5c.9,0,1.7,.8,1.7,1.7c0,.9,-.8,1.7,-1.7,1.7c-.9,0,-1.7,-.8,-1.7,-1.7c0,-.9,.8,-1.7,1.7,-1.7Z" class="g1_318"/>
<path d="M181,442.3c-1.2,0,-2.1,-.9,-2.1,-2.1c0,-1.2,.9,-2.1,2.1,-2.1c1.2,0,2.1,.9,2.1,2.1c0,1.2,-.9,2.1,-2.1,2.1m0,-3.3c-.7,0,-1.2,.5,-1.2,1.2c0,.7,.5,1.2,1.2,1.2c.7,0,1.2,-.5,1.2,-1.2c0,-.7,-.5,-1.2,-1.2,-1.2Z" class="gs_318"/>
<path d="M172.8,438.5c.9,0,1.7,.8,1.7,1.7c0,.9,-.8,1.7,-1.7,1.7c-.9,0,-1.7,-.8,-1.7,-1.7c0,-.9,.8,-1.7,1.7,-1.7Z" class="g1_318"/>
<path d="M172.8,442.3c-1.2,0,-2.1,-.9,-2.1,-2.1c0,-1.2,.9,-2.1,2.1,-2.1c1.2,0,2.1,.9,2.1,2.1c0,1.2,-.9,2.1,-2.1,2.1m0,-3.3c-.7,0,-1.2,.5,-1.2,1.2c0,.7,.5,1.2,1.2,1.2c.7,0,1.2,-.5,1.2,-1.2c0,-.7,-.5,-1.2,-1.2,-1.2Z" class="gs_318"/>
<image clip-path="url(#cf_318)" preserveAspectRatio="none" x="638" y="551" width="218" height="281" xlink:href="img/7.png"/>
<path d="M642.6,567.8l17.6,258.5L850,814.8l-1.6,-26L832.5,556.2Z" class="gd_318"/>
<image clip-path="url(#cg_318)" preserveAspectRatio="none" x="645" y="557" width="204" height="272" xlink:href="img/8.png"/>
<image clip-path="url(#ch_318)" preserveAspectRatio="none" x="645" y="557" width="204" height="271" xlink:href="img/9.png"/>
<path d="M650.8,561.8l-.5,257.6L808.7,821l33.4,-25.2L842.4,564Z" class="ge_318"/>
<path d="M810.1,822.6l33.3,-27.4l-13.6,-9.1Z" class="gf_318"/>
<path d="M32.1,45.1H9.2m958.3,0h22.9M32.1,1331.3H9.2m958.3,0h22.9M45.1,32.1V9.2m0,1335.1v22.9M954.5,32.1V9.2m0,1335.1v22.9" class="gv_318"/>
<path d="M32.1,45.1H9.2m958.3,0h22.9M32.1,1331.3H9.2m958.3,0h22.9M45.1,32.1V9.2m0,1335.1v22.9M954.5,32.1V9.2m0,1335.1v22.9" class="gw_318"/>
<path d="M27.5,32.1H0m972.1,0h27.5M27.5,1344.3H0m972.1,0h27.5M32.1,27.5V0m0,1348.9v27.5M967.5,27.5V0m0,1348.9v27.5" class="gv_318"/>
<path d="M27.5,32.1H0m972.1,0h27.5M27.5,1344.3H0m972.1,0h27.5M32.1,27.5V0m0,1348.9v27.5M967.5,27.5V0m0,1348.9v27.5" class="gw_318"/>
</svg>