<?xml version="1.0" encoding="UTF-8" standalone="no"?>
<!DOCTYPE svg PUBLIC "-//W3C//DTD SVG 1.1//EN"
"http://www.w3.org/Graphics/SVG/1.1/DTD/svg11.dtd">
<svg viewBox="0 0 999 1376" version="1.1" xmlns="http://www.w3.org/2000/svg" xmlns:xlink="http://www.w3.org/1999/xlink">
<defs>
<clipPath id="c0_345"><path d="M198.6,1028.9l-6.5,-2.1l-16.4,-13.9V955.8h72v73.1Z"/></clipPath>
<clipPath id="c1_345"><path d="M199.2,239.5l-6.5,-2.1L176.3,223.5V166.4h72v73.1Z"/></clipPath>
<clipPath id="c2_345"><path d="M79.2,595V410.2H273.9V595Z"/></clipPath>
<clipPath id="c3_345"><path d="M81.7,592.1V411.2H274.2V592.1Z"/></clipPath>
<clipPath id="c4_345"><path d="M81.3,591.8V410.9h192V591.8Z"/></clipPath>
<clipPath id="c5_345"><path d="M176.2,430.4c-.3,-.1,3.6,-8.2,3.6,-8.2l.7,.5c0,0,-4,7.7,-4.3,7.7Z"/></clipPath>
<clipPath id="c6_345"><path d="M183.7,422.7c0,0,-6.8,-1.1,-7.6,-5.2c-.6,-3.6,1.5,-3.9,2.1,-3.9q.1,0,.1,0l8.3,-12.7l-1.4,-3.1c0,0,-.6,-1.1,.1,-2c.1,-.1,.2,-.1,.3,-.1c2.1,0,13,5.5,13,5.5v.2c-.3,.5,-.7,1.1,-1.4,1.6c-.6,.5,-5,1.1,-5,1.1l-8.5,18.6Z"/></clipPath>
<clipPath id="c7_345"><path d="M183.3,422.3c.2,-.4,.2,-1.8,0,-2.2v-1.4c-1.5,-.5,-2.9,-1.2,-3.6,-2.5c-1.1,.6,-2.2,1.2,-3.2,1.9c1.6,2.1,3.8,3.5,6.8,4.2Zm0,-3.9c2.2,-4.5,4,-9.5,6.2,-14c-.9,-.4,-1.9,-1.4,-2.7,-1.4c-2.3,4.3,-4.6,8.6,-7,12.8c.7,1.3,2.1,2,3.5,2.6ZM176,430.5c1.1,-2.9,2.4,-5.5,3.5,-8.3c-2,-1.5,-3.9,-3.1,-4.4,-6.1v-1.5c0,-2.7,1.9,-3.4,4.6,-3.4q.1,0,.2,0c1.9,-3.4,4.2,-6.4,6.2,-9.7c-.6,-.9,-1.2,-2.4,-.9,-3.7c.5,1.3,1.6,1.9,2.4,2.9c-.1,.6,-.3,1.2,-.4,1.8c.6,.6,1.3,1.2,2.4,1.4c.4,-.5,.5,-1.3,1.1,-1.5c1,.3,1.9,.7,3.2,.7c.1,.1,.4,.2,.8,.2c.3,0,.7,-.1,.8,-.2c.1,0,.2,.1,.3,.1c.2,0,.4,-.1,.6,-.2c.2,0,.4,-.1,.5,-.1c.1,0,.2,0,.3,.1c-1.3,.6,-2.1,1.8,-4.1,1.8c-.1,0,-.3,0,-.4,-.1c-.8,3.8,-1.8,7.4,-2.6,11.2c.5,1.1,1.5,1.7,1.2,3.2c-.4,2.7,-3.8,4.4,-7.2,4.4c-1.2,0,-2.5,-.3,-3.6,-.8c-1,2.1,-2,4.2,-3.2,6c-.1,-.3,.3,-.3,.2,-.7c1,-1.8,2,-3.6,2.7,-5.7c-1.1,1.7,-1.9,3.7,-2.8,5.6c-.2,.4,-.4,.8,-.6,1.2c-.3,.4,-.3,1.2,-.8,1.4Z"/></clipPath>
<clipPath id="c8_345"><path d="M193.7,402.7c-4.8,0,-13,-7.3,-5.5,-8.8h1.3c.2,.1,.4,.1,.7,.1c0,0,.1,0,.2,0c.2,0,.5,0,.8,.1c3.1,.6,8.2,3.8,7.6,7c-.3,1.2,-1.6,1.6,-3.2,1.6h-1.7q-.1,0,-.2,0Z"/></clipPath>
<clipPath id="c9_345"><path d="M786.5,132.5V120.1H801v12.4Z"/></clipPath>
<clipPath id="ca_345"><path d="M731.8,504.1V289.6H932.5V504.1Z"/></clipPath>
<clipPath id="cb_345"><path d="M727.2,513V286.4H937.3V513Z"/></clipPath>
<clipPath id="cc_345"><path d="M726.9,512.7V286.1H937V512.7Z"/></clipPath>
<clipPath id="cd_345"><path d="M822.1,309.1c-.2,-.1,3.6,-8.2,3.6,-8.2l.8,.5c0,0,-4.1,7.7,-4.4,7.7Z"/></clipPath>
<clipPath id="ce_345"><path d="M829.7,301.4c0,0,-6.9,-1.1,-7.6,-5.3c-.7,-3.6,1.5,-3.8,2,-3.8c.1,0,.2,0,.2,0l8.3,-12.7l-1.5,-3.1c0,0,-.6,-1.1,.2,-2.1c0,0,.1,-.1,.3,-.1c2.1,0,12.9,5.6,12.9,5.6l.1,.1c-.4,.5,-.7,1.2,-1.4,1.7c-.7,.5,-5.1,1.1,-5.1,1.1l-8.4,18.6Z"/></clipPath>
<clipPath id="cf_345"><path d="M829.2,301c.3,-.5,.3,-1.8,0,-2.3v-1.3c-1.5,-.6,-2.8,-1.3,-3.6,-2.5c-1.1,.5,-2.1,1.2,-3.1,1.8c1.5,2.2,3.8,3.6,6.7,4.3Zm0,-3.9c2.2,-4.5,4,-9.5,6.2,-14.1c-.9,-.3,-1.8,-1.3,-2.6,-1.3c-2.3,4.3,-4.6,8.6,-7.1,12.8c.8,1.3,2.1,2,3.5,2.6ZM822,309.2c1,-2.9,2.4,-5.5,3.5,-8.3c-2,-1.6,-4,-3.1,-4.4,-6.2v-1.5c-.1,-2.7,1.9,-3.4,4.6,-3.4c0,0,.1,0,.1,0c2,-3.3,4.3,-6.3,6.2,-9.6c-.6,-.9,-1.1,-2.4,-.9,-3.7c.5,1.3,1.7,1.9,2.4,2.9c-.1,.6,-.3,1.1,-.4,1.8c.6,.6,1.4,1.1,2.4,1.3c.5,-.4,.5,-1.2,1.2,-1.5c.9,.4,1.8,.8,3.1,.8c.1,.1,.5,.1,.8,.1c.4,0,.7,0,.8,-.1c.1,0,.2,0,.3,0c.3,0,.5,0,.7,-.1c.1,-.1,.3,-.1,.5,-.1c.1,0,.2,0,.3,.1c-1.3,.6,-2.2,1.7,-4.2,1.7c-.1,0,-.2,0,-.3,0c-.9,3.8,-1.9,7.4,-2.7,11.2c.6,1.1,1.5,1.7,1.3,3.1c-.5,2.8,-3.9,4.4,-7.2,4.4c-1.3,0,-2.5,-.2,-3.6,-.7c-1,2.1,-2.1,4.1,-3.3,6c0,-.4,.3,-.4,.3,-.7c.9,-1.8,1.9,-3.6,2.6,-5.7c-1.1,1.7,-1.8,3.7,-2.8,5.5c-.2,.5,-.4,.9,-.6,1.3c-.3,.4,-.3,1.1,-.7,1.4Z"/></clipPath>
<clipPath id="cg_345"><path d="M839.7,281.4c-4.8,0,-13.1,-7.3,-5.6,-8.8h1.3c.2,.1,.4,.1,.7,.1q.1,0,.2,0c.3,0,.6,0,.9,0c3,.7,8.2,3.8,7.5,7.1c-.2,1.1,-1.5,1.6,-3.1,1.6h-1.8c0,0,-.1,0,-.1,0Z"/></clipPath>
<clipPath id="ch_345"><path d="M749.4,693.7V548.5H907.3V693.7Z"/></clipPath>
<clipPath id="ci_345"><path d="M747.9,695.1V545H914.5V695.1Z"/></clipPath>
<clipPath id="cj_345"><path d="M747.6,694.8V544.7H914.2V694.8Z"/></clipPath>
<clipPath id="ck_345"><path d="M834.3,564.6c-.2,-.1,3.6,-8.2,3.6,-8.2l.8,.5c0,0,-4.1,7.7,-4.4,7.7Z"/></clipPath>
<clipPath id="cl_345"><path d="M841.8,556.9c0,0,-6.8,-1.1,-7.5,-5.3c-.7,-3.6,1.5,-3.8,2,-3.8c.1,0,.2,0,.2,0l8.3,-12.7L843.3,532c0,0,-.6,-1.1,.2,-2.1c0,0,.1,-.1,.3,-.1c2.1,0,12.9,5.6,12.9,5.6l.1,.1c-.4,.5,-.8,1.2,-1.4,1.7c-.7,.5,-5.1,1.1,-5.1,1.1l-8.5,18.6Z"/></clipPath>
<clipPath id="cm_345"><path d="M841.4,556.5c.2,-.4,.2,-1.8,0,-2.2v-1.4c-1.5,-.6,-2.8,-1.3,-3.6,-2.5c-1.1,.6,-2.1,1.2,-3.2,1.8c1.6,2.2,3.9,3.6,6.8,4.3Zm0,-3.9c2.2,-4.5,4,-9.5,6.2,-14.1c-.9,-.3,-1.9,-1.3,-2.6,-1.3c-2.3,4.3,-4.7,8.6,-7.1,12.8c.7,1.3,2.1,2,3.5,2.6Zm-7.3,12.1c1.1,-2.9,2.4,-5.5,3.6,-8.3c-2,-1.5,-4,-3.1,-4.4,-6.2v-1.5c-.1,-2.7,1.9,-3.4,4.5,-3.4c.1,0,.2,0,.2,0c2,-3.3,4.3,-6.3,6.2,-9.6c-.6,-.9,-1.2,-2.4,-.9,-3.7c.5,1.3,1.6,1.9,2.4,2.9c-.1,.6,-.3,1.1,-.4,1.8c.6,.6,1.4,1.1,2.4,1.3c.5,-.4,.5,-1.2,1.1,-1.5c1,.4,1.9,.8,3.2,.8c.1,.1,.5,.1,.8,.1c.3,0,.7,0,.8,-.1c.1,0,.2,0,.3,0c.3,0,.5,0,.6,-.1c.2,-.1,.4,-.1,.6,-.1c.1,0,.2,0,.3,.1c-1.3,.6,-2.2,1.7,-4.2,1.7c-.1,0,-.2,0,-.3,0c-.9,3.8,-1.9,7.4,-2.7,11.2c.6,1.1,1.5,1.7,1.3,3.2c-.5,2.7,-3.9,4.3,-7.2,4.3c-1.3,0,-2.5,-.2,-3.6,-.7c-1,2.1,-2.1,4.1,-3.3,6c0,-.3,.3,-.4,.3,-.7c.9,-1.8,1.9,-3.6,2.6,-5.7c-1.1,1.7,-1.8,3.7,-2.8,5.6c-.2,.4,-.4,.8,-.6,1.2c-.3,.4,-.3,1.1,-.8,1.4Z"/></clipPath>
<clipPath id="cn_345"><path d="M851.9,536.9c-4.8,0,-13.1,-7.3,-5.6,-8.8h1.3c.1,.1,.3,.1,.5,.1q.1,0,.2,0c.3,0,.7,0,1.1,0c3,.7,8.2,3.8,7.5,7.1c-.3,1.1,-1.6,1.6,-3.2,1.6H852q-.1,0,-.1,0Z"/></clipPath>
<style type="text/css"><![CDATA[
.g0_345{
fill: #FEFCF4;
}
.g1_345{
fill: #FFF;
}
.g2_345{
fill: none;
stroke: #6381B7;
stroke-width: 0.763;
}
.g3_345{
fill: #6381B7;
}
.g4_345{
fill: none;
stroke: #6381B7;
stroke-width: 0.381;
stroke-dasharray: 2,1;
}
.g5_345{
fill: none;
stroke: #6381B7;
stroke-width: 0.381;
}
.g6_345{
fill: #FCE8B0;
}
.g7_345{
fill: #F7C2D9;
}
.g8_345{
fill: #FEF6F5;
}
.g9_345{
fill: #EC008C;
}
.ga_345{
fill: none;
stroke: #949698;
stroke-width: 0.305;
stroke-dasharray: 4,4;
}
.gb_345{
fill: none;
stroke: #949698;
stroke-width: 0.305;
stroke-dasharray: 3,3;
}
.gc_345{
fill: none;
stroke: #949698;
stroke-width: 0.305;
}
.gd_345{
fill: #818385;
}
.ge_345{
fill: #25408F;
}
.gf_345{
fill: #A8AAAD;
}
.gg_345{
fill: none;
stroke: #949698;
stroke-width: 0.549;
}
.gh_345{
fill: none;
stroke: #BCBEC0;
stroke-width: 2.566;
}
.gi_345{
fill: #231F20;
}
.gj_345{
fill: #363637;
}
.gk_345{
fill: #5CC4BE;
}
.gl_345{
fill: #EAD646;
}
.gm_345{
fill: #6D6F71;
}
.gn_345{
fill: none;
stroke: #FFF;
stroke-width: 1.909;
stroke-miterlimit: 10;
}
.go_345{
fill: none;
stroke: #000;
stroke-width: 0.381;
stroke-miterlimit: 10;
}
]]></style>
</defs>
<path d="M45.1,1344.3H967.5V32.1H45.1V1344.3Z" class="g0_345"/>
<path d="M172,136c0,0,-18.3,0,-18.3,18.4V896c0,0,0,18.3,18.3,18.3H849.2c0,0,18.3,0,18.3,-18.3V136Z" class="g1_345"/>
<path d="M172,136c0,0,-18.3,0,-18.3,18.4V896c0,0,0,18.3,18.3,18.3H849.2c0,0,18.3,0,18.3,-18.3V136H172Z" class="g2_345"/>
<path d="M166.7,939.3c0,0,-13,0,-13,13v179.4c0,0,0,13,13,13H854.5c0,0,13,0,13,-13V952.3c0,0,0,-13,-13,-13Z" class="g1_345"/>
<path d="M166.7,939.3c0,0,-13,0,-13,13v179.4c0,0,0,13,13,13H854.5c0,0,13,0,13,-13V952.3c0,0,0,-13,-13,-13H166.7Z" class="g2_345"/>
<path d="M546.1,1161.3c0,0,-4.3,0,-4.3,4.3v10.8c0,0,0,4.4,4.3,4.4h30.3c0,0,4.4,0,4.4,-4.4v-10.8c0,0,0,-4.3,-4.4,-4.3Z" class="g3_345"/>
<path d="M532.9,1153.8v34.8m1.4,1H866.7m1,-1.4v-34.8m-1.3,-1H533.9" class="g4_345"/>
<path d="M532.9,1189v.6h.6m333.6,0h.6v-.6m0,-36v-.6h-.6m-333.6,0h-.6v.6" class="g5_345"/>
<path d="M231.2,983.9c0,0,-12.9,0,-12.9,13v21.6c0,0,0,13,12.9,13H833.3c0,0,13,0,13,-13V996.9c0,0,0,-13,-13,-13Z" class="g6_345"/>
<image clip-path="url(#c0_345)" preserveAspectRatio="none" x="174" y="954" width="75" height="76" xlink:href="img/1.png"/>
<path d="M226,1024.2c0,0,-26.8,11.3,-51.1,-12.8c0,0,15.2,25.3,49.3,24c0,0,24.8,.3,20.3,-10.1c0,0,1.2,-4.5,-18.5,-1.1Z" class="g6_345"/>
<path d="M231.8,194.5c0,0,-13,0,-13,13v21.7c0,0,0,13,13,13h602c0,0,13,0,13,-13V207.5c0,0,0,-13,-13,-13Z" class="g6_345"/>
<image clip-path="url(#c1_345)" preserveAspectRatio="none" x="175" y="165" width="75" height="76" xlink:href="img/2.png"/>
<path d="M226.6,234.8c0,0,-26.9,11.3,-51.1,-12.7c0,0,15.1,25.3,49.3,23.9c0,0,24.7,.4,20.2,-10.1c0,0,1.2,-4.4,-18.4,-1.1Z" class="g6_345"/>
<image clip-path="url(#c2_345)" preserveAspectRatio="none" x="79" y="411" width="194" height="185" xlink:href="img/3.png"/>
<path d="M91.7,415L84,581.8l177.7,6.8L268,420.9Z" class="g7_345"/>
<image clip-path="url(#c3_345)" preserveAspectRatio="none" x="81" y="412" width="192" height="181" xlink:href="img/4.png"/>
<image clip-path="url(#c4_345)" preserveAspectRatio="none" x="81" y="412" width="192" height="180" xlink:href="img/5.png"/>
<path d="M86.3,422.1l4.4,163.5l144.4,-5.4l32.2,-23.8L263.7,415.6Z" class="g8_345"/>
<path d="M234.9,580.2l33.2,-24.5l-17.3,-8.3Z" class="g9_345"/>
<path d="M447.7,483.3C424.8,465,296.3,365.6,216.9,376.6" class="ga_345"/>
<path d="M209.8,378c-5.7,2,-2.1,4.7,1.3,5.6" class="gb_345"/>
<path d="M216.8,380.7c.7,-3.3,-1.5,-7.9,-12,-9.1m-7.5,-.1c-18.5,1.6,-65.3,15,-86,47.7" class="ga_345"/>
<path d="M451.2,486.2c0,0,-.4,-.4,-1.2,-1M215.4,376.8c-.5,.1,-1,.2,-1.5,.2c-.5,.1,-1,.2,-1.4,.3m0,6.6c.5,.1,1,.1,1.4,0c.5,0,.9,-.3,1.4,-.6m-12,-11.9c-.5,0,-1,0,-1.5,0c-.5,-.1,-1,-.1,-1.5,-.1m-89.8,49.1c-.3,.5,-.5,.9,-.8,1.3" class="gc_345"/>
<path d="M117.9,418.4l-7.2,-5l-2.8,11.8Z" class="gd_345"/>
<path d="M472.3,515.1c9.3,-1.4,16.6,-6.8,18.4,-13.6" class="ga_345"/>
<path d="M490.4,494.1c-.4,-1.3,-1.1,-2.5,-1.9,-3.7" class="gb_345"/>
<path d="M482.5,485c-3.2,-1.9,-7.2,-3.2,-11.5,-3.7m-8.4,.2c-9.3,1.4,-16.6,6.8,-18.4,13.6m.5,7.9c2.5,6.5,10.2,11.4,19.5,12.3" class="ga_345"/>
<path d="M491,499.9c.1,-.5,.1,-1.1,.1,-1.6c0,-.5,0,-1,-.1,-1.4m-3.4,-7.6c-.3,-.4,-.6,-.7,-.9,-1c-.4,-.5,-.9,-.9,-1.3,-1.2m-16.2,-5.9c-.6,-.1,-1.2,-.1,-1.7,-.1c-.6,0,-1.1,0,-1.7,.1m-21.9,15.5c-.1,.5,-.1,1,-.1,1.6c0,.5,0,1.1,.1,1.6m21.9,15.5c.6,0,1.1,.1,1.7,.1c.5,0,1,-.1,1.6,-.1" class="gc_345"/>
<image clip-path="url(#c5_345)" x="175" y="422" width="6" height="9" xlink:href="shade/1.png"/>
<image clip-path="url(#c6_345)" x="175" y="395" width="24" height="28" xlink:href="shade/2.png"/>
<image clip-path="url(#c7_345)" x="175" y="397" width="23" height="34" xlink:href="shade/3.png"/>
<image clip-path="url(#c8_345)" x="180" y="393" width="20" height="10" xlink:href="shade/4.png"/>
<path d="M153.3,111.9v39L165,161.2V117Z" class="ge_345"/>
<path d="M153.3,111.9v39H851.1c0,0,16.8,0,16.8,-16.8v-5.3c0,0,0,-16.9,-16.8,-16.9Z" class="g3_345"/>
<path d="M802.6,145.6c8.2,0,14.9,-6.5,14.9,-14.5c0,-8.1,-6.7,-14.5,-14.9,-14.5c-8.2,0,-14.9,6.4,-14.9,14.5c0,8,6.7,14.5,14.9,14.5Z" class="gf_345"/>
<path d="M802.6,145.6c8.2,0,14.9,-6.5,14.9,-14.5c0,-8.1,-6.7,-14.5,-14.9,-14.5c-8.2,0,-14.9,6.4,-14.9,14.5c0,8,6.7,14.5,14.9,14.5Z" class="gg_345"/>
<path d="M802.6,136.4c3,0,5.5,-2.4,5.5,-5.3c0,-3,-2.5,-5.4,-5.5,-5.4c-3,0,-5.5,2.4,-5.5,5.4c0,2.9,2.5,5.3,5.5,5.3Z" class="g1_345"/>
<path d="M802.6,136.4c3,0,5.5,-2.4,5.5,-5.3c0,-3,-2.5,-5.4,-5.5,-5.4c-3,0,-5.5,2.4,-5.5,5.4c0,2.9,2.5,5.3,5.5,5.3Z" class="gh_345"/>
<g clip-path="url(#c9_345)" opacity="0.3">
<path d="M788,130.3c0,0,0,-4.8,3.7,-8.7l7.7,6.8c0,0,-1,.9,-1,2.6Z" class="g1_345"/>
</g>
<path d="M807.2,131c0,0,-3.5,0,-3.5,3.4v8.7c0,0,0,3.5,3.5,3.5h43.5c0,0,3.5,0,3.5,-3.5v-8.7c0,0,0,-3.4,-3.5,-3.4Z" class="gi_345"/>
<path d="M191.2,122c0,-8.3,-6.8,-15,-15.1,-15c-8.3,0,-15,6.7,-15,15c0,8.3,6.7,15.1,15,15.1c.8,0,1.7,-.1,2.4,-.2l4.5,5.2v-6.7c4.9,-2.5,8.2,-7.6,8.2,-13.4Z" class="g1_345"/>
<path d="M183.5,143.3l-5.1,-5.9c-.8,.1,-1.5,.1,-2.3,.1c-8.5,0,-15.5,-6.9,-15.5,-15.5c0,-8.5,7,-15.5,15.5,-15.5c8.6,0,15.5,7,15.5,15.5c0,5.7,-3.1,11,-8.1,13.7Zm-4.8,-6.9l3.9,4.5v-5.8l.2,-.1c4.9,-2.5,7.9,-7.5,7.9,-13c0,-8,-6.5,-14.6,-14.6,-14.6c-8,0,-14.6,6.6,-14.6,14.6c0,8.1,6.6,14.6,14.6,14.6c.8,0,1.6,-.1,2.4,-.2Z" class="gj_345"/>
<path d="M169.1,121.6c.8,0,1.4,.6,1.4,1.4c0,.8,-.6,1.5,-1.4,1.5c-.8,0,-1.4,-.7,-1.4,-1.5c0,-.8,.6,-1.4,1.4,-1.4Z" class="gk_345"/>
<path d="M169.1,124.9c-1,0,-1.9,-.8,-1.9,-1.9c0,-1,.9,-1.9,1.9,-1.9c1,0,1.9,.9,1.9,1.9c0,1.1,-.9,1.9,-1.9,1.9m0,-2.9c-.5,0,-1,.5,-1,1c0,.6,.5,1,1,1c.5,0,1,-.4,1,-1c0,-.5,-.5,-1,-1,-1Z" class="gj_345"/>
<path d="M176.1,121.6c.8,0,1.5,.6,1.5,1.4c0,.8,-.7,1.5,-1.5,1.5c-.8,0,-1.4,-.7,-1.4,-1.5c0,-.8,.6,-1.4,1.4,-1.4Z" class="gk_345"/>
<path d="M176.1,124.9c-1,0,-1.9,-.8,-1.9,-1.9c0,-1,.9,-1.9,1.9,-1.9c1.1,0,1.9,.9,1.9,1.9c0,1.1,-.8,1.9,-1.9,1.9m0,-2.9c-.5,0,-1,.5,-1,1c0,.6,.5,1,1,1c.6,0,1,-.4,1,-1c0,-.5,-.4,-1,-1,-1Z" class="gj_345"/>
<path d="M183.1,121.6c.8,0,1.5,.6,1.5,1.4c0,.8,-.7,1.5,-1.5,1.5c-.8,0,-1.4,-.7,-1.4,-1.5c0,-.8,.6,-1.4,1.4,-1.4Z" class="gk_345"/>
<path d="M183.1,124.9c-1,0,-1.9,-.8,-1.9,-1.9c0,-1,.9,-1.9,1.9,-1.9c1.1,0,1.9,.9,1.9,1.9c0,1.1,-.8,1.9,-1.9,1.9m0,-2.9c-.5,0,-1,.5,-1,1c0,.6,.5,1,1,1c.6,0,1,-.4,1,-1c0,-.5,-.4,-1,-1,-1Z" class="gj_345"/>
<path d="M185.1,136.3c0,-9.8,7.8,-17.7,17.6,-17.7c9.7,0,17.6,7.9,17.6,17.7c0,9.7,-7.9,17.6,-17.6,17.6c-1,0,-1.9,-.1,-2.9,-.3l-5.2,6.1v-7.8c-5.7,-2.9,-9.5,-8.8,-9.5,-15.6Z" class="gl_345"/>
<path d="M194.6,160.2q-.1,0,-.2,0c-.2,-.1,-.3,-.3,-.3,-.5v-7.5c-5.9,-3.2,-9.5,-9.2,-9.5,-15.9c0,-10,8.1,-18.1,18.1,-18.1c9.9,0,18,8.1,18,18.1c0,9.9,-8.1,18,-18,18c-.9,0,-1.8,0,-2.7,-.2l-5.1,5.9c-.1,.1,-.2,.2,-.3,.2m8.1,-41.1c-9.5,0,-17.2,7.7,-17.2,17.2c0,6.4,3.6,12.2,9.3,15.2c.1,.1,.2,.2,.2,.4v6.6l4.5,-5.2c.1,-.1,.3,-.1,.4,-.1c1,.1,1.9,.2,2.8,.2c9.4,0,17.1,-7.7,17.1,-17.1c0,-9.5,-7.7,-17.2,-17.1,-17.2Z" class="gj_345"/>
<path d="M210.9,135.8c.9,0,1.6,.7,1.6,1.6c0,1,-.7,1.7,-1.6,1.7c-1,0,-1.7,-.7,-1.7,-1.7c0,-.9,.7,-1.6,1.7,-1.6Z" class="g1_345"/>
<path d="M210.9,139.6c-1.2,0,-2.2,-1,-2.2,-2.2c0,-1.1,1,-2.1,2.2,-2.1c1.1,0,2.1,1,2.1,2.1c0,1.2,-1,2.2,-2.1,2.2m0,-3.4c-.7,0,-1.3,.6,-1.3,1.2c0,.7,.6,1.3,1.3,1.3c.6,0,1.2,-.6,1.2,-1.3c0,-.6,-.6,-1.2,-1.2,-1.2Z" class="gj_345"/>
<path d="M202.7,135.8c.9,0,1.6,.7,1.6,1.6c0,1,-.7,1.7,-1.6,1.7c-1,0,-1.7,-.7,-1.7,-1.7c0,-.9,.7,-1.6,1.7,-1.6Z" class="g1_345"/>
<path d="M202.7,139.6c-1.2,0,-2.2,-1,-2.2,-2.2c0,-1.1,1,-2.1,2.2,-2.1c1.1,0,2.1,1,2.1,2.1c0,1.2,-1,2.2,-2.1,2.2m0,-3.4c-.7,0,-1.3,.6,-1.3,1.2c0,.7,.6,1.3,1.3,1.3c.6,0,1.2,-.6,1.2,-1.3c0,-.6,-.6,-1.2,-1.2,-1.2Z" class="gj_345"/>
<path d="M194.5,135.8c.9,0,1.6,.7,1.6,1.6c0,1,-.7,1.7,-1.6,1.7c-1,0,-1.7,-.7,-1.7,-1.7c0,-.9,.7,-1.6,1.7,-1.6Z" class="g1_345"/>
<path d="M194.5,139.6c-1.2,0,-2.2,-1,-2.2,-2.2c0,-1.1,1,-2.1,2.2,-2.1c1.1,0,2.1,1,2.1,2.1c0,1.2,-1,2.2,-2.1,2.2m0,-3.4c-.7,0,-1.2,.6,-1.2,1.2c0,.7,.5,1.3,1.2,1.3c.6,0,1.2,-.6,1.2,-1.3c0,-.6,-.6,-1.2,-1.2,-1.2Z" class="gj_345"/>
<image clip-path="url(#ca_345)" preserveAspectRatio="none" x="731" y="290" width="201" height="215" xlink:href="img/6.png"/>
<path d="M737.1,294.9V496.7L926.5,498L925.1,295.2Z" class="g7_345"/>
<image clip-path="url(#cb_345)" preserveAspectRatio="none" x="726" y="287" width="211" height="226" xlink:href="img/7.png"/>
<image clip-path="url(#cc_345)" preserveAspectRatio="none" x="726" y="286" width="211" height="227" xlink:href="img/8.png"/>
<path d="M731.7,302.2l13.2,204.1l154.7,-9l31.1,-26.4L919.4,290.7Z" class="g8_345"/>
<path d="M900.6,497.2l29.9,-25.6L911.8,463Z" class="g9_345"/>
<image clip-path="url(#cd_345)" x="821" y="300" width="6" height="10" xlink:href="shade/5.png"/>
<image clip-path="url(#ce_345)" x="821" y="274" width="24" height="28" xlink:href="shade/6.png"/>
<image clip-path="url(#cf_345)" x="821" y="276" width="23" height="34" xlink:href="shade/7.png"/>
<image clip-path="url(#cg_345)" x="826" y="272" width="20" height="10" xlink:href="shade/8.png"/>
<path d="M565.5,447.2c35.2,-.8,63.7,-9.5,68.1,-20.6m-.9,-7.9c-1.7,-2.7,-4.9,-5.2,-9.2,-7.5M616.2,408c-12.8,-4.7,-31.5,-7.8,-52.4,-8.1m-7.7,0c-35.2,.7,-63.7,9.4,-68.2,20.6m.7,7.5c6.3,10.6,34.6,18.7,69.1,19.2" class="ga_345"/>
<path d="M634.1,425.1c.1,-.5,.2,-1,.2,-1.6c0,-.5,-.1,-1.1,-.2,-1.7M622,410.4c-.5,-.2,-1,-.4,-1.6,-.7c-.4,-.2,-.9,-.4,-1.4,-.6m-56.7,-9.2c-.5,0,-1,0,-1.5,0c-.5,0,-1.1,0,-1.6,0M487.5,422c-.1,.5,-.2,1,-.2,1.5c0,.6,.1,1.1,.2,1.6m71.7,22.1c.5,0,1.1,0,1.6,0c.5,0,1,0,1.6,0" class="gc_345"/>
<path d="M583.8,400.2c0,0,70.2,-78,151.2,-78.2" class="ga_345"/>
<path d="M728.5,318.4l2.2,8.6l9.9,-7.1Z" class="gm_345"/>
<image clip-path="url(#ch_345)" preserveAspectRatio="none" x="749" y="549" width="158" height="145" xlink:href="img/9.png"/>
<path d="M757.1,553.4l-2.9,132.8l144.6,1.1L901,555.8Z" class="g7_345"/>
<image clip-path="url(#ci_345)" preserveAspectRatio="none" x="748" y="545" width="166" height="151" xlink:href="img/10.png"/>
<image clip-path="url(#cj_345)" preserveAspectRatio="none" x="747" y="545" width="167" height="150" xlink:href="img/11.png"/>
<path d="M762,549.6l-9.3,130.7l116.6,8.4l31.3,-23.4l7.3,-105Z" class="g8_345"/>
<path d="M869.6,688.5L900.8,665l-17.3,-6.3Z" class="g9_345"/>
<path d="M544.9,515.1c9.3,-1.4,16.7,-6.8,18.4,-13.6" class="ga_345"/>
<path d="M563,494.1c-.4,-1.3,-1.1,-2.5,-1.9,-3.7" class="gb_345"/>
<path d="M555.1,485c-3.2,-1.9,-7.2,-3.2,-11.5,-3.7m-8.3,.2c-9.4,1.4,-16.7,6.8,-18.5,13.6m.5,7.9c2.6,6.5,10.2,11.4,19.6,12.3" class="ga_345"/>
<path d="M563.6,499.9c.1,-.5,.1,-1.1,.1,-1.6c0,-.5,0,-1,0,-1.4m-3.5,-7.6c-.3,-.4,-.6,-.7,-.9,-1c-.4,-.5,-.8,-.9,-1.3,-1.2m-16.2,-5.9c-.6,-.1,-1.1,-.1,-1.7,-.1c-.6,0,-1.1,0,-1.6,.1m-22,15.5c-.1,.5,-.1,1,-.1,1.6c0,.5,0,1.1,.1,1.6m22,15.5c.5,0,1,.1,1.6,.1c.5,0,1.1,-.1,1.6,-.1" class="gc_345"/>
<path d="M552.8,515.4c0,0,61.9,47.3,196.9,53.3" class="ga_345"/>
<path d="M748.9,564.4l.7,8.8l10.9,-5.5Z" class="gm_345"/>
<image clip-path="url(#ck_345)" x="834" y="556" width="5" height="9" xlink:href="shade/9.png"/>
<image clip-path="url(#cl_345)" x="833" y="529" width="24" height="28" xlink:href="shade/10.png"/>
<image clip-path="url(#cm_345)" x="833" y="532" width="23" height="33" xlink:href="shade/11.png"/>
<image clip-path="url(#cn_345)" x="838" y="528" width="20" height="10" xlink:href="shade/12.png"/>
<path d="M32.1,45.1H9.2m958.3,0h22.9M32.1,1331.3H9.2m958.3,0h22.9M45.1,32.1V9.2m0,1335.1v22.9M954.5,32.1V9.2m0,1335.1v22.9" class="gn_345"/>
<path d="M32.1,45.1H9.2m958.3,0h22.9M32.1,1331.3H9.2m958.3,0h22.9M45.1,32.1V9.2m0,1335.1v22.9M954.5,32.1V9.2m0,1335.1v22.9" class="go_345"/>
<path d="M27.5,32.1H0m972.1,0h27.5M27.5,1344.3H0m972.1,0h27.5M32.1,27.5V0m0,1348.9v27.5M967.5,27.5V0m0,1348.9v27.5" class="gn_345"/>
<path d="M27.5,32.1H0m972.1,0h27.5M27.5,1344.3H0m972.1,0h27.5M32.1,27.5V0m0,1348.9v27.5M967.5,27.5V0m0,1348.9v27.5" class="go_345"/>
</svg>