<?xml version="1.0" encoding="UTF-8" standalone="no"?>
<!DOCTYPE svg PUBLIC "-//W3C//DTD SVG 1.1//EN"
"http://www.w3.org/Graphics/SVG/1.1/DTD/svg11.dtd">
<svg viewBox="0 0 999 1376" version="1.1" xmlns="http://www.w3.org/2000/svg" xmlns:xlink="http://www.w3.org/1999/xlink">
<defs>
<clipPath id="c0_31"><path d="M32.1,1344.3V32.1H967.5V1344.3Z"/></clipPath>
<clipPath id="c1_31"><path d="M151.6,267.4V210.2h55.6v57.2Z"/></clipPath>
<clipPath id="c2_31"><path d="M203.3,370.2l-6.5,-2L182.7,356.9V296h62.7v74.2Z"/></clipPath>
<clipPath id="c3_31"><path d="M203,895.9l-6.5,-2l-14,-11.3V821.7h62.7v74.2Z"/></clipPath>
<style type="text/css"><![CDATA[
.g0_31{
fill: #FFFDEA;
}
.g1_31{
fill: #BCE4EA;
}
.g2_31{
fill: #BCBEC0;
}
.g3_31{
fill: #00AABD;
}
.g4_31{
fill: #FEF0DB;
}
.g5_31{
fill: #FDD095;
}
.g6_31{
fill: #F47A43;
}
.g7_31{
fill: #FFF;
}
.g8_31{
fill: none;
stroke: #231F20;
stroke-width: 1.527;
}
.g9_31{
fill: #FCDCBA;
}
.ga_31{
fill: #F1EDF5;
}
.gb_31{
fill: none;
stroke: #FFF;
stroke-width: 1.145;
stroke-miterlimit: 10;
}
.gc_31{
fill: none;
stroke: #6D6F71;
stroke-width: 0.305;
stroke-miterlimit: 10;
}
.gd_31{
fill: none;
stroke: #6D6F71;
stroke-width: 0.19;
stroke-miterlimit: 10;
}
.ge_31{
fill: none;
stroke: #FFF;
stroke-width: 1.909;
stroke-miterlimit: 10;
}
.gf_31{
fill: none;
stroke: #000;
stroke-width: 0.381;
stroke-miterlimit: 10;
}
]]></style>
</defs>
<g clip-path="url(#c0_31)">
<path d="M-877.3,1344.3H967.5V32.1H-877.3V1344.3Z" class="g0_31"/>
<path d="M-877.3,179.3H967.5V32.1H-877.3V179.3Z" class="g1_31"/>
<path d="M967.5,177.2H-877.3v-5.4h736.6c43.1,0,53.1,-37.9,115.3,-37.9H967.5Z" class="g2_31"/>
<path d="M967.5,183.7H-877.3v-9.8h736.6c43.1,0,53.1,-33.6,115.3,-33.6H967.5Z" class="g3_31"/>
</g>
<path d="M502.4,219c0,0,-8.7,0,-8.7,8.7V258c0,0,0,8.6,8.7,8.6H854.7c0,0,8.6,0,8.6,-8.6V227.7c0,0,0,-8.7,-8.6,-8.7Z" class="g4_31"/>
<path d="M182.2,219c0,0,-8.7,0,-8.7,8.7V258c0,0,0,8.6,8.7,8.6h571c0,0,8.7,0,8.7,-8.6V227.7c0,0,0,-8.7,-8.7,-8.7Z" class="g5_31"/>
<image clip-path="url(#c1_31)" preserveAspectRatio="none" x="151" y="211" width="56" height="57" xlink:href="img/1.png"/>
<path d="M176.4,212c12.8,0,23.1,10.6,23.1,23.7c0,13.2,-10.3,23.8,-23.1,23.8c-12.7,0,-23.1,-10.6,-23.1,-23.8c0,-13.1,10.4,-23.7,23.1,-23.7Z" class="g6_31"/>
<path d="M193.6,235.7c0,-9.8,-7.7,-17.7,-17.2,-17.7c-9.5,0,-17.2,7.9,-17.2,17.7c0,9.8,7.7,17.8,17.2,17.8c3.6,0,7,-1.2,9.8,-3.1l6.4,1.7l-1.8,-6.7c1.8,-2.8,2.8,-6.1,2.8,-9.7Z" class="g7_31"/>
<path d="M792.4,242.1c0,0,-.5,-9.9,8.4,-9.3c0,0,6.5,-.4,6.5,9.5m-14.9,-1.6v6.5c0,0,-3.3,.4,-3.8,-3c0,0,-.1,-3.7,3.8,-3.5Zm14.9,0v6.5c0,0,3.3,.4,3.8,-3c0,0,0,-3.7,-3.8,-3.5Z" class="g8_31"/>
<path d="M235.9,325.2c0,0,-13,0,-13,13v21.7c0,0,0,12.9,13,12.9h619c0,0,13,0,13,-12.9V338.2c0,0,0,-13,-13,-13Z" class="g9_31"/>
<image clip-path="url(#c2_31)" preserveAspectRatio="none" x="183" y="295" width="62" height="77" xlink:href="img/2.png"/>
<path d="M230.7,365.5c0,0,-26.9,11.3,-51.1,-12.8c0,0,15.1,25.3,49.3,24c0,0,24.7,.3,20.2,-10.1c0,0,1.2,-4.5,-18.4,-1.1Z" class="g9_31"/>
<path d="M179.5,405.2h90.9v78H179.5v-78Zm229.5,0h91v78H409v-78Zm229.5,0h91v78h-91v-78Zm-459,78h90.9v77.9H179.5V483.2Zm229.5,0h91v77.9H409V483.2Zm229.5,0h91v77.9h-91V483.2Zm-459,77.9h90.9v78H179.5v-78Zm229.5,0h91v78H409v-78Zm229.5,0h91v78h-91v-78Zm-459,78h90.9V717H179.5V639.1Zm229.5,0h91V717H409V639.1Z" class="ga_31"/>
<path d="M270.4,405.2H409v78H270.4v-78Zm229.6,0H638.5v78H500v-78Zm229.5,0H868.1v78H729.5v-78Zm-459.1,78H409v77.9H270.4V483.2Zm229.6,0H638.5v77.9H500V483.2Zm229.5,0H868.1v77.9H729.5V483.2ZM270.4,561.1H409v78H270.4v-78Zm229.6,0H638.5v78H500v-78Zm229.5,0H868.1v78H729.5v-78Zm-459.1,78H409V717H270.4V639.1Zm229.6,0H638.5V717H500V639.1Z" class="g7_31"/>
<path d="M868.1,483.2V405.4m0,155.7V483.2m0,155.7V561.1" class="gb_31"/>
<path d="M270.4,405.2H409m91,0H638.5m91,0H868.6m-598.2,78H409m91,0H638.5m91,0h138M270.4,561.1H409m91,0H638.5m91,0h138m-597.1,78H409M270.4,717H409m91,0H638.7" class="gc_31"/>
<path d="M867.6,483.2V405.4m.9,77.8V405.4m-.9,155.7V483.2m.9,77.9V483.2m-.9,155.7V561.1m.9,77.8V561.1" class="gd_31"/>
<path d="M179.3,405.2h91.1M179.5,483V405.4M270.4,483V405.4m-91.1,77.8h91.1M179.5,561V483.3M270.4,561V483.3m-91.1,77.8h91.1m-90.9,77.8V561.3m90.9,77.6V561.3m-91.1,77.8h91.1m-90.9,77.8V639.2m90.9,77.7V639.2M179.3,717h91.1M409,405.2h91M409,483V405.4M500,483V405.4m-91,77.8h91M409,561V483.3M500,561V483.3m-91,77.8h91m-91,77.8V561.3m91,77.6V561.3M409,716.9V639.2m91,77.7V639.2M409,717h91M638.5,405.2h91m-91,77.8V405.4m91,77.6V405.4m-91,77.8h91m-91,77.8V483.3m91,77.7V483.3m-91,77.8h91m-91,77.8V561.3m91,77.6V561.3M409,639.1h91m0,0H638.5m0,0h91m-91,77.8V639.2m91,-.1H868.6" class="gc_31"/>
<path d="M235.6,850.9c0,0,-13,0,-13,13v21.6c0,0,0,13,13,13H854.7c0,0,13,0,13,-13V863.9c0,0,0,-13,-13,-13Z" class="g9_31"/>
<image clip-path="url(#c3_31)" preserveAspectRatio="none" x="182" y="821" width="63" height="76" xlink:href="img/3.png"/>
<path d="M230.4,891.2c0,0,-26.8,11.3,-51.1,-12.8c0,0,15.2,25.3,49.3,24c0,0,24.8,.3,20.3,-10.1c0,0,1.2,-4.5,-18.5,-1.1Z" class="g9_31"/>
<path d="M341.7,1032.3H508.5V1119H341.7v-86.7Zm240.4,0H748.8V1119H582.1v-86.7Z" class="g7_31"/>
<path d="M32.1,45.1H9.2m958.3,0h22.9M32.1,1331.3H9.2m958.3,0h22.9M45.1,32.1V9.2m0,1335.1v22.9M954.5,32.1V9.2m0,1335.1v22.9" class="ge_31"/>
<path d="M32.1,45.1H9.2m958.3,0h22.9M32.1,1331.3H9.2m958.3,0h22.9M45.1,32.1V9.2m0,1335.1v22.9M954.5,32.1V9.2m0,1335.1v22.9" class="gf_31"/>
<path d="M27.5,32.1H0m972.1,0h27.5M27.5,1344.3H0m972.1,0h27.5M32.1,27.5V0m0,1348.9v27.5M967.5,27.5V0m0,1348.9v27.5" class="ge_31"/>
<path d="M27.5,32.1H0m972.1,0h27.5M27.5,1344.3H0m972.1,0h27.5M32.1,27.5V0m0,1348.9v27.5M967.5,27.5V0m0,1348.9v27.5" class="gf_31"/>
</svg>