<?xml version="1.0" encoding="UTF-8" standalone="no"?>
<!DOCTYPE svg PUBLIC "-//W3C//DTD SVG 1.1//EN"
"http://www.w3.org/Graphics/SVG/1.1/DTD/svg11.dtd">
<svg viewBox="0 0 999 1376" version="1.1" xmlns="http://www.w3.org/2000/svg" xmlns:xlink="http://www.w3.org/1999/xlink">
<defs>
<clipPath id="c0_62"><path d="M32.1,1344.3V32.1H967.5V1344.3Z"/></clipPath>
<clipPath id="c1_62"><path d="M156,282.4V212.5H853.9v69.9Z"/></clipPath>
<clipPath id="c2_62"><path d="M181.3,513.1l-6.4,-2L160.8,499.9V439h62.7v74.1Z"/></clipPath>
<clipPath id="c3_62"><path d="M290,845.1V608.4H712.9V845.1Z"/></clipPath>
<clipPath id="c4_62"><path d="M290,1126.6V902.9H712.9v223.7Z"/></clipPath>
<clipPath id="c5_62"><path d="M778.6,379.6V367.2h14.5v12.4Z"/></clipPath>
<style type="text/css"><![CDATA[
.g0_62{
fill: #FFFDEA;
}
.g1_62{
fill: #BCE4EA;
}
.g2_62{
fill: #BCBEC0;
}
.g3_62{
fill: #00AABD;
}
.g4_62{
fill: #FFF;
}
.g5_62{
fill: none;
stroke: #976EAF;
stroke-width: 1.145;
stroke-linecap: round;
stroke-linejoin: round;
stroke-dasharray: 4,2;
}
.g6_62{
fill: none;
stroke: #976EAF;
stroke-width: 1.145;
stroke-linecap: round;
stroke-linejoin: round;
stroke-dasharray: 4,3;
}
.g7_62{
fill: none;
stroke: #976EAF;
stroke-width: 1.145;
stroke-linecap: round;
stroke-linejoin: round;
}
.g8_62{
fill: #FCDCBA;
}
.g9_62{
fill: #A8AAAD;
}
.ga_62{
fill: none;
stroke: #949698;
stroke-width: 0.549;
}
.gb_62{
fill: none;
stroke: #BCBEC0;
stroke-width: 2.566;
}
.gc_62{
fill: #231F20;
}
.gd_62{
fill: none;
stroke: #58595B;
stroke-width: 0.152;
stroke-miterlimit: 1;
}
.ge_62{
fill: none;
stroke: #FFF;
stroke-width: 1.909;
stroke-miterlimit: 10;
}
.gf_62{
fill: none;
stroke: #000;
stroke-width: 0.381;
stroke-miterlimit: 10;
}
]]></style>
</defs>
<g clip-path="url(#c0_62)">
<path d="M32.1,1344.3H1877V32.1H32.1V1344.3Z" class="g0_62"/>
<path d="M32.1,179.3H1877V32.1H32.1V179.3Z" class="g1_62"/>
<path d="M1877,177.2H32.1v-5.4H768.7c43.1,0,53,-37.9,115.3,-37.9h993Z" class="g2_62"/>
<path d="M1877,183.7H32.1v-9.8H768.7c43.1,0,53,-33.6,115.3,-33.6h993Z" class="g3_62"/>
</g>
<image clip-path="url(#c1_62)" preserveAspectRatio="none" x="156" y="213" width="697" height="69" xlink:href="img/1.png"/>
<path d="M171.2,214.6c0,0,-13,0,-13,12.9V261c0,0,0,13,13,13H832.7c0,0,13,0,13,-13V227.5c0,0,0,-12.9,-13,-12.9Z" class="g4_62"/>
<path d="M167.7,215.1c-3.4,.9,-8.3,3.3,-9.3,9.9" class="g5_62"/>
<path d="M158.2,231.4v26.8" class="g6_62"/>
<path d="M158.8,264.6c.9,3.4,3.3,8.2,9.9,9.2" class="g5_62"/>
<path d="M175.3,274H829.8" class="g6_62"/>
<path d="M836.2,273.5c3.5,-.9,8.3,-3.3,9.3,-9.9" class="g5_62"/>
<path d="M845.7,257.1V230.3" class="g6_62"/>
<path d="M845.2,224c-.9,-3.4,-3.4,-8.3,-9.9,-9.3" class="g5_62"/>
<path d="M828.7,214.6H174.1" class="g6_62"/>
<path d="M158.3,226c0,.5,-.1,1,-.1,1.5v1.7m0,30.2V261c0,0,0,.7,.2,1.6M169.7,274c.5,0,1,0,1.5,0H173m658,0h1.7c0,0,.6,0,1.6,-.1m11.3,-11.3c.1,-.5,.1,-1,.1,-1.6v-1.6m0,-30.2v-1.7c0,0,0,-.6,-.2,-1.5M834.3,214.6c-.5,0,-1.1,0,-1.6,0H831m-658,0h-1.8c0,0,-.6,0,-1.5,.1" class="g7_62"/>
<path d="M214,468.2c0,0,-13,0,-13,12.9v21.7c0,0,0,13,13,13H833c0,0,13,0,13,-13V481.1c0,0,0,-12.9,-13,-12.9Z" class="g8_62"/>
<image clip-path="url(#c2_62)" preserveAspectRatio="none" x="161" y="438" width="63" height="77" xlink:href="img/2.png"/>
<path d="M208.8,508.4c0,0,-26.9,11.3,-51.1,-12.7c0,0,15.1,25.3,49.3,23.9c0,0,24.7,.4,20.2,-10.1c0,0,1.2,-4.4,-18.4,-1.1Z" class="g8_62"/>
<image clip-path="url(#c3_62)" preserveAspectRatio="none" x="288" y="607" width="427" height="240" xlink:href="img/3.jpg"/>
<path d="M231,605.5c0,0,-8.7,0,-8.7,8.6v57.8c0,0,0,8.6,8.7,8.6H373.7c0,0,8.7,0,8.7,-8.6V614.1c0,0,0,-8.6,-8.7,-8.6Z" class="g4_62"/>
<path d="M661.3,595c0,0,-8.6,0,-8.6,8.7v57.7c0,0,0,8.7,8.6,8.7H779.7c0,0,8.7,0,8.7,-8.7V603.7c0,0,0,-8.7,-8.7,-8.7Z" class="g4_62"/>
<path d="M318.8,676.2v0l47.7,33.2L344.8,669Z" class="g4_62"/>
<path d="M719.8,665.7v0L672.1,699l21.7,-40.5Z" class="g4_62"/>
<image clip-path="url(#c4_62)" preserveAspectRatio="none" x="288" y="901" width="427" height="227" xlink:href="img/4.jpg"/>
<path d="M189.1,900.7c0,0,-8.7,0,-8.7,8.6v52c0,0,0,8.7,8.7,8.7h185c0,0,8.6,0,8.6,-8.7v-52c0,0,0,-8.6,-8.6,-8.6Z" class="g4_62"/>
<path d="M588.8,895.6c0,0,-8.7,0,-8.7,8.7v65.3c0,0,0,8.7,8.7,8.7H788.9c0,0,8.6,0,8.6,-8.7V904.3c0,0,0,-8.7,-8.6,-8.7Z" class="g4_62"/>
<path d="M315.9,966.7v0l45,32.6l-19,-39.8Z" class="g4_62"/>
<path d="M640.4,978.3v0l-45,31.4l16.5,-38.1Z" class="g4_62"/>
<path d="M794.7,392.6c8.2,0,14.9,-6.5,14.9,-14.5c0,-8,-6.7,-14.4,-14.9,-14.4c-8.2,0,-14.9,6.4,-14.9,14.4c0,8,6.7,14.5,14.9,14.5Z" class="g9_62"/>
<path d="M794.7,392.6c8.2,0,14.9,-6.5,14.9,-14.5c0,-8,-6.7,-14.4,-14.9,-14.4c-8.2,0,-14.9,6.4,-14.9,14.4c0,8,6.7,14.5,14.9,14.5Z" class="ga_62"/>
<path d="M794.7,383.5c3,0,5.5,-2.4,5.5,-5.4c0,-2.9,-2.5,-5.3,-5.5,-5.3c-3,0,-5.5,2.4,-5.5,5.3c0,3,2.5,5.4,5.5,5.4Z" class="g4_62"/>
<path d="M794.7,383.5c3,0,5.5,-2.4,5.5,-5.4c0,-2.9,-2.5,-5.3,-5.5,-5.3c-3,0,-5.5,2.4,-5.5,5.3c0,3,2.5,5.4,5.5,5.4Z" class="gb_62"/>
<g clip-path="url(#c5_62)" opacity="0.3">
<path d="M780.1,377.4v0c0,0,0,-4.9,3.7,-8.7l7.7,6.7c0,0,-1,1,-1,2.7Z" class="g4_62"/>
</g>
<path d="M799.3,378c0,0,-3.5,0,-3.5,3.5v8.6c0,0,0,3.5,3.5,3.5h43.5c0,0,3.5,0,3.5,-3.5v-8.6c0,0,0,-3.5,-3.5,-3.5Z" class="gc_62"/>
<path d="M254.5,134c-.5,0,-1,.2,-1.5,.4c-.5,.3,-.9,.5,-1.3,.8c-.8,.8,-1.4,1.8,-1.8,2.8c-.4,1,-.7,2.1,-.7,3.3c0,1.5,.3,2.8,.9,3.9c.8,1.4,1.8,2.1,3.2,2.1c.3,0,.6,0,.9,-.1c.2,-.1,.5,-.2,.7,-.4c.2,-.2,.3,-.4,.4,-.7c.1,-.2,.2,-.5,.2,-.8c0,-.4,-.1,-.9,-.4,-1.2c-.3,-.3,-.7,-.5,-1,-.5c-.2,0,-.4,.1,-.6,.1c-.2,.1,-.3,.2,-.5,.3c-.1,.2,-.2,.3,-.3,.4c-.1,.2,-.1,.4,-.1,.6c0,.2,0,.4,.2,.7c.1,.2,.3,.4,.5,.6c0,0,-.1,.1,-.2,.1H253c-.8,0,-1.4,-.5,-1.9,-1.4c-.5,-.7,-.7,-1.5,-.7,-2.3c0,-1,.1,-1.9,.3,-2.7c.2,-.7,.6,-1.4,1,-2.1c.4,-.7,1,-1.3,1.6,-1.7c.7,-.5,1.5,-.8,2.4,-1L254.5,134Zm15.6,1.2L268.8,134H253.7l1.2,1.2h7.8v1c-2.6,.8,-4.9,2.1,-7,3.7l1.7,2.1c1.4,.1,2.6,.7,3.7,1.8c.4,.5,.9,1,1.3,1.6c.4,.7,.7,1.3,1,2c0,.1,.1,.1,.1,.2c.1,0,.2,.1,.3,.1v-10c1.2,0,2.1,.3,2.8,1c.6,.7,1,1.4,1,2.2l-.1,.3c-.2,-.2,-.4,-.3,-.6,-.4c-.2,-.2,-.4,-.2,-.6,-.2c-.4,0,-.8,.1,-1,.4c-.3,.2,-.4,.5,-.4,.9c0,.2,0,.4,.1,.6c.1,.2,.2,.3,.4,.5c.1,.1,.3,.2,.5,.3c.2,.1,.4,.1,.6,.1c.2,0,.5,-.1,.7,-.2c.3,-.1,.5,-.3,.7,-.5c.1,-.2,.3,-.4,.4,-.7c.1,-.3,.1,-.5,.1,-.8c0,-1.3,-.4,-2.4,-1.2,-3.4c-.9,-1.2,-2,-1.7,-3.4,-1.7v-.9h6.3Zm-7.5,9.1c-1,-1.8,-2.5,-3.1,-4.5,-4c.8,-.5,1.6,-1,2.3,-1.4c.8,-.4,1.5,-.8,2.2,-1.1v6.5ZM280.4,134h-12l1.3,1.2c.4,.6,.8,1,1.1,1.2c.2,.2,.4,.3,.7,.4c.3,.2,.7,.3,1.1,.4c.9,.3,1.4,.5,1.7,.8c.4,.4,.6,1.1,.6,2.2c-.2,-.2,-.5,-.3,-.9,-.3c-.7,0,-1.3,.2,-1.7,.5c-.5,.4,-.8,1,-.8,1.6c0,.6,.2,1.1,.6,1.5c.4,.4,.9,.5,1.5,.5c.3,0,.6,0,1,-.2c.4,-.1,.7,-.5,1.1,-.9c1.6,.5,2.7,2,3.3,4.4l.5,.5V135.2h2.1L280.4,134Zm-2.1,9.8c-.2,-.4,-.5,-.8,-.9,-1.2c-.3,-.4,-.7,-.8,-1.2,-1.2c0,-.1,0,-.2,0,-.3v-.3c0,-1.1,-.3,-2.1,-1.1,-3.1c-.5,-.7,-1.3,-1.5,-2.6,-2.5h5.8v8.6ZM293,135.2L291.7,134H280.1l1.1,1.2h8.5v6.6h-.1c-1.3,-2.6,-2.7,-4,-4.4,-4c-.8,0,-1.5,.3,-2.1,.9c-.6,.5,-.9,1.2,-.9,2c0,1.5,.8,2.2,2.3,2.2c.5,0,.9,-.2,1.2,-.5c.3,-.4,.5,-.8,.5,-1.3c0,-.3,-.3,-.8,-.8,-1.5c.1,-.1,.2,-.1,.3,-.1c1.3,0,2.4,.8,3.4,2.5c.6,1.4,.9,2.9,.9,4.2l-.1,1.3l1,.6V135.2H293ZM314.2,134H299l1.2,1.2H312v8.2L310.4,142c.2,-.6,.3,-1.3,.3,-1.9c0,-.8,-.2,-1.6,-.6,-2.2c-.3,-.5,-.6,-.9,-1.1,-1.2c-.4,-.3,-.8,-.6,-1.3,-.7c-.3,-.1,-.6,-.2,-.9,-.2c-.7,0,-1.4,.2,-2.1,.7c-.2,.2,-.4,.5,-.6,.8c-.2,.3,-.3,.6,-.3,.9c0,.4,.1,.7,.3,.9c.3,.5,.7,.7,1.2,.8c.6,.1,1,0,1.4,-.3c.3,-.2,.5,-.4,.6,-.6c.2,-.3,.3,-.5,.3,-.8c0,-.3,-.2,-.6,-.4,-1c.2,-.1,.5,-.1,.7,0c.2,0,.5,.1,.7,.3c.2,.2,.4,.4,.6,.7c.2,.3,.3,.6,.4,.9c0,.3,.1,.5,.1,.7c0,.6,-.2,1.1,-.5,1.7c-.5,.8,-1.4,1.3,-2.8,1.3c-.6,0,-1.1,-.2,-1.7,-.5c-.5,-.3,-1,-.8,-1.5,-1.4c-.4,-.5,-.8,-1.2,-1.2,-2c-.3,-.8,-.6,-1.7,-.8,-2.7l-.7,-.3c.1,1,.3,2,.5,2.9c.3,.9,.6,1.7,1,2.3c.3,.5,.6,1,1,1.5c.4,.4,.8,.8,1.2,1.1c.4,.3,.8,.6,1.2,.7c.4,.2,.8,.3,1.2,.3c.8,0,1.4,-.2,1.9,-.4c.6,-.3,1,-.7,1.3,-1.2c1.4,.9,2.4,2.4,3,4.5v-.1l.4,.3V135.2h2.2L314.2,134Zm5.5,1.2L318.5,134h-1c-.4,-.4,-.6,-1,-.8,-1.9l-.4,-.3c0,.2,0,.5,0,.9c0,.3,0,.7,.1,1.2c0,.5,.1,.9,.1,1.3c0,.3,0,.6,0,.9c-.3,-.8,-.6,-1.3,-1,-1.6c-.4,-.3,-.9,-.5,-1.7,-.5h-1.3l1.2,1.2c.3,0,.6,.1,1,.2c.3,.1,.6,.3,.8,.5c.3,.2,.5,.4,.6,.7c.1,.3,.2,.7,.2,1v8.9l1.2,1.2V135.2h2.2Zm6.2,-1.2h-8l1.2,1.2h4c-1.7,2,-2.5,4,-2.5,6.1c0,1.5,.3,2.8,.9,3.9c.8,1.4,1.8,2.1,3.2,2.1c.3,0,.6,0,.8,-.1c.3,-.1,.5,-.2,.7,-.4c.2,-.2,.4,-.4,.5,-.7c.1,-.2,.2,-.5,.2,-.8c0,-.4,-.2,-.9,-.4,-1.2c-.3,-.3,-.7,-.5,-1.1,-.5c-.3,0,-.7,.2,-1,.4c-.3,.3,-.5,.6,-.5,1c0,.2,.1,.4,.2,.7c.2,.2,.3,.4,.6,.6c-.7,.2,-1.5,-.2,-2.2,-1.3c-.5,-.7,-.7,-1.5,-.7,-2.3c0,-1,.1,-1.9,.3,-2.7c.2,-.7,.5,-1.4,1,-2.1c.4,-.7,1,-1.3,1.6,-1.7c.7,-.5,1.5,-.8,2.4,-1L325.9,134Zm12.4,14.7c-.4,-.5,-.9,-1,-1.3,-1.4c-.4,-.4,-.8,-.8,-1.1,-1c-.3,-.2,-.7,-.5,-1.2,-.8c-.5,-.3,-1.1,-.6,-1.8,-1c.6,-.3,1.1,-.6,1.5,-.8c.4,-.3,.8,-.5,1,-.8c.9,-.7,1.3,-1.5,1.3,-2.5c0,-.9,-.2,-1.7,-.7,-2.4c-.6,-.7,-1.4,-1.1,-2.4,-1.1c-.3,0,-.6,0,-.8,.1c-.3,0,-.6,.1,-.9,.1c-1.3,0,-2.3,-.7,-2.8,-1.9h8.7L336.6,134H325.2l1.1,1.2h1.6v5.2c0,.2,.1,.5,.2,.6c.1,.2,.3,.4,.4,.5c.2,.2,.4,.3,.6,.4c.2,.1,.5,.1,.7,.1c.3,0,.7,-.1,1.2,-.3c.4,-.2,.8,-.4,1.2,-.7c1,-.8,1.5,-1.7,1.3,-2.6c1.3,-.2,2,.2,2,1.2c0,1.2,-.6,2.2,-2,2.9c-.5,.2,-1.1,.4,-1.7,.6c-.6,.1,-1.2,.2,-1.9,.2c-.3,0,-.5,-.1,-.8,-.1c-.3,-.1,-.6,-.1,-.9,-.2l1.1,2.2c1.8,.2,3.5,.6,5,1.3c1.5,.8,2.9,1.8,4.2,3.1l-.2,-.9Zm-6.6,-9.5c-.1,.3,-.3,.6,-.6,.8c-.2,.3,-.5,.5,-.7,.7c-.3,.1,-.6,.2,-.8,.2c-.3,0,-.5,-.2,-.5,-.7v-3.6c.7,.9,1.7,1.5,2.8,1.8c0,.3,0,.5,-.2,.8Zm17.6,-4L348.1,134H336.4l1.2,1.2H346v6.6c-1.3,-2.6,-2.8,-4,-4.5,-4c-.8,0,-1.5,.3,-2.1,.9c-.6,.5,-.8,1.2,-.8,2c0,1.5,.7,2.2,2.3,2.2c.5,0,.9,-.2,1.2,-.5c.3,-.4,.4,-.8,.4,-1.3c0,-.3,-.3,-.8,-.8,-1.5c.1,-.1,.2,-.1,.4,-.1c1.2,0,2.3,.8,3.3,2.5c.6,1.4,1,2.9,.9,4.2v1.3l.9,.6V135.2h2.1Z" class="gd_62"/>
<path d="M32.1,45.1H9.2m958.3,0h22.9M32.1,1331.3H9.2m958.3,0h22.9M45.1,32.1V9.2m0,1335.1v22.9M954.5,32.1V9.2m0,1335.1v22.9" class="ge_62"/>
<path d="M32.1,45.1H9.2m958.3,0h22.9M32.1,1331.3H9.2m958.3,0h22.9M45.1,32.1V9.2m0,1335.1v22.9M954.5,32.1V9.2m0,1335.1v22.9" class="gf_62"/>
<path d="M27.5,32.1H0m972.1,0h27.5M27.5,1344.3H0m972.1,0h27.5M32.1,27.5V0m0,1348.9v27.5M967.5,27.5V0m0,1348.9v27.5" class="ge_62"/>
<path d="M27.5,32.1H0m972.1,0h27.5M27.5,1344.3H0m972.1,0h27.5M32.1,27.5V0m0,1348.9v27.5M967.5,27.5V0m0,1348.9v27.5" class="gf_62"/>
</svg>