<?xml version="1.0" encoding="UTF-8" standalone="no"?>
<!DOCTYPE svg PUBLIC "-//W3C//DTD SVG 1.1//EN"
"http://www.w3.org/Graphics/SVG/1.1/DTD/svg11.dtd">
<svg viewBox="0 0 999 1376" version="1.1" xmlns="http://www.w3.org/2000/svg" xmlns:xlink="http://www.w3.org/1999/xlink">
<defs>
<clipPath id="c0_364"><path d="M32.1,1344.3V32.1H967.5V1344.3Z"/></clipPath>
<clipPath id="c1_364"><path d="M203.6,458.9V375.1H304.2v83.8Z"/></clipPath>
<clipPath id="c2_364"><path d="M203.2,575.1V475H304.8V575.1Z"/></clipPath>
<clipPath id="c3_364"><path d="M179.3,291.4l-6.5,-2.1L156.4,275.4V218.3h72v73.1Z"/></clipPath>
<clipPath id="c4_364"><path d="M179.3,694.2l-6.5,-2.1L156.4,678.2V621.1h72v73.1Z"/></clipPath>
<style type="text/css"><![CDATA[
.g0_364{
fill: #FEFCF4;
}
.g1_364{
fill: #F16865;
}
.g2_364{
fill: #FAC3B8;
}
.g3_364{
fill: #EE314A;
}
.g4_364{
fill: #26292E;
}
.g5_364{
fill: #C5CACC;
}
.g6_364{
fill: #FFF;
}
.g7_364{
fill: #F1EBEB;
}
.g8_364{
fill: #F7943B;
}
.g9_364{
fill: #ACB5B9;
}
.ga_364{
fill: #CFD3D5;
}
.gb_364{
fill: none;
stroke: #6381B7;
stroke-width: 0.763;
}
.gc_364{
fill: #C7CFE6;
}
.gd_364{
fill: #E3E7F2;
}
.ge_364{
fill: none;
stroke: #6381B7;
stroke-width: 0.381;
stroke-miterlimit: 10;
}
.gf_364{
fill: none;
stroke: #98A9D0;
stroke-width: 0.381;
stroke-miterlimit: 10;
}
.gg_364{
fill: none;
stroke: #231F20;
stroke-width: 0.458;
stroke-miterlimit: 10;
}
.gh_364{
fill: #FCE8B0;
}
.gi_364{
fill: none;
stroke: #FFF;
stroke-width: 1.909;
stroke-miterlimit: 10;
}
.gj_364{
fill: none;
stroke: #000;
stroke-width: 0.381;
stroke-miterlimit: 10;
}
]]></style>
</defs>
<path d="M32.1,1344.3H954.5V32.1H32.1V1344.3Z" class="g0_364"/>
<g clip-path="url(#c0_364)">
<path d="M954.5,1344.3H1877V32.1H954.5V1344.3Z" class="g0_364"/>
<path d="M1777.4,166.7c0,0,30.3,0,30.3,-30.3v-4.3c0,0,0,-30.3,-30.3,-30.3H173.9c0,0,-30.3,0,-30.3,30.3v4.3c0,0,0,30.3,30.3,30.3Z" class="g1_364"/>
</g>
<path d="M186.5,132.1c0,27.1,-22,49,-49.1,49c-27,0,-49,-21.9,-49,-49c0,-27.1,22,-49.1,49,-49.1c27.1,0,49.1,22,49.1,49.1Z" class="g2_364"/>
<path d="M178.1,104.6c15.2,22.5,9.2,53,-13.2,68.1c-22.5,15.2,-53,9.3,-68.1,-13.2Z" class="g3_364"/>
<path d="M96.8,159.5h81.3V104.7H96.8v54.8Z" class="g4_364"/>
<path d="M137.7,156.8h16.8V136.6H137.7v20.2Z" class="g5_364"/>
<path d="M143.1,156.8h33.7V102.6H143.1v54.2Z" class="g5_364"/>
<path d="M141.6,103v50c.5,-.3,1,-.4,1.5,-.4h33.7v-50H143.1c-.5,0,-1,.2,-1.5,.4Z" class="g6_364"/>
<path d="M137.7,109v47.8c0,0,2.5,-3.1,3.9,-3.8V103c-2.2,1.1,-3.9,4.3,-3.9,6Z" class="g7_364"/>
<path d="M143.5,112.3h29.1v-1.4H143.5v1.4Z" class="g5_364"/>
<path d="M143.5,115.5h29.1v-1.4H143.5v1.4Z" class="g5_364"/>
<path d="M143.5,118.8h29.1v-1.5H143.5v1.5Z" class="g5_364"/>
<path d="M143.5,122h29.1v-1.5H143.5V122Z" class="g5_364"/>
<path d="M143.5,125.2h29.1v-1.5H143.5v1.5Z" class="g5_364"/>
<path d="M143.5,128.4h29.1v-1.5H143.5v1.5Z" class="g5_364"/>
<path d="M143.5,131.6h29.1v-1.5H143.5v1.5Z" class="g5_364"/>
<path d="M143.5,134.8h29.1v-1.5H143.5v1.5Z" class="g5_364"/>
<path d="M143.5,138h29.1v-1.4H143.5V138Z" class="g5_364"/>
<path d="M143.5,141.2h29.1v-1.4H143.5v1.4Z" class="g5_364"/>
<path d="M143.5,144.4h29.1V143H143.5v1.4Z" class="g5_364"/>
<path d="M143.5,147.6h29.1v-1.4H143.5v1.4Z" class="g5_364"/>
<path d="M159.7,150.9l1,-.9l1,.9v-49h-2Z" class="g8_364"/>
<path d="M120.9,156.8h16.8V136.6H120.9v20.2Z" class="g9_364"/>
<path d="M98.6,156.8h33.6V102.6H98.6v54.2Z" class="g9_364"/>
<path d="M98.6,102.6v50h33.6c.6,0,1.1,.1,1.6,.4V103c-.5,-.2,-1,-.4,-1.6,-.4Z" class="g6_364"/>
<path d="M133.8,103v50c1.4,.7,3.9,3.8,3.9,3.8V109c0,-1.7,-1.7,-4.9,-3.9,-6Z" class="ga_364"/>
<path d="M109.7,112.3h14.5v-1.4H109.7v1.4Z" class="g5_364"/>
<path d="M102.8,118.8h29.1v-1.5H102.8v1.5Z" class="g5_364"/>
<path d="M102.8,122h29.1v-1.5H102.8V122Z" class="g5_364"/>
<path d="M102.8,125.2h29.1v-1.5H102.8v1.5Z" class="g5_364"/>
<path d="M102.8,128.4h29.1v-1.5H102.8v1.5Z" class="g5_364"/>
<path d="M102.8,131.6h29.1v-1.5H102.8v1.5Z" class="g5_364"/>
<path d="M102.8,134.8h29.1v-1.5H102.8v1.5Z" class="g5_364"/>
<path d="M102.8,138h29.1v-1.4H102.8V138Z" class="g5_364"/>
<path d="M102.8,141.2h29.1v-1.4H102.8v1.4Z" class="g5_364"/>
<path d="M102.8,144.4h29.1V143H102.8v1.4Z" class="g5_364"/>
<path d="M102.8,147.6h29.1v-1.4H102.8v1.4Z" class="g5_364"/>
<path d="M145.1,307c0,0,-13,0,-13,13V573c0,0,0,13,13,13H832.9c0,0,13,0,13,-13V320c0,0,0,-13,-13,-13Z" class="g6_364"/>
<path d="M145.1,307c0,0,-13,0,-13,13V573c0,0,0,13,13,13H832.9c0,0,13,0,13,-13V320c0,0,0,-13,-13,-13H145.1Z" class="gb_364"/>
<path d="M145.1,711.5c0,0,-13,0,-13,13v506.8c0,0,0,13,13,13H832.9c0,0,13,0,13,-13V724.5c0,0,0,-13,-13,-13Z" class="g6_364"/>
<path d="M145.1,711.5c0,0,-13,0,-13,13v506.8c0,0,0,13,13,13H832.9c0,0,13,0,13,-13V724.5c0,0,0,-13,-13,-13H145.1Z" class="gb_364"/>
<path d="M199.4,1069H610.9v-21.5H199.4V1069Z" class="gc_364"/>
<path d="M199.4,1069H372.7v45.7H199.4V1069Zm173.3,0h86.6v45.7H372.7V1069Zm86.6,0H610.9v45.7H459.3V1069Z" class="gd_364"/>
<path d="M199.4,1114.7H372.7v38.5H199.4v-38.5Zm173.3,0h86.6v38.5H372.7v-38.5Zm86.6,0H610.9v38.5H459.3v-38.5Zm-259.9,38.5H372.7v38.5H199.4v-38.5Zm173.3,0h86.6v38.5H372.7v-38.5Zm86.6,0H610.9v38.5H459.3v-38.5Zm-259.9,38.5H372.7v38.5H199.4v-38.5Zm173.3,0h86.6v38.5H372.7v-38.5Zm86.6,0H610.9v38.5H459.3v-38.5Z" class="g6_364"/>
<path d="M199.4,1068.8v-21.1" class="ge_364"/>
<path d="M199.2,1047.5H372.7m0,0h86.6m0,0H611m-.1,21.3v-21.1" class="gf_364"/>
<path d="M199.4,1114.5v-45.3m-.2,-.2H372.7m0,45.5v-45.3m0,-.2h86.6m0,45.5v-45.3m0,-.2H611m-.1,45.5v-45.3" class="ge_364"/>
<path d="M199.4,1153v-38.1" class="gf_364"/>
<path d="M199.2,1114.7H372.7" class="ge_364"/>
<path d="M372.7,1153v-38.1" class="gf_364"/>
<path d="M372.7,1114.7h86.6" class="ge_364"/>
<path d="M459.3,1153v-38.1" class="gf_364"/>
<path d="M459.3,1114.7H611" class="ge_364"/>
<path d="M610.9,1153v-38.1m-411.5,76.6v-38.1m-.2,-.2H372.7m0,38.3v-38.1m0,-.2h86.6m0,38.3v-38.1m0,-.2H611m-.1,38.3v-38.1M199.4,1230v-38.1m-.2,-.2H372.7m-173.5,38.5H372.7m0,-.2v-38.1m0,-.2h86.6m-86.6,38.5h86.6m0,-.2v-38.1m0,-.2H611m-.1,38.3v-38.1m-151.6,38.3H611" class="gf_364"/>
<path d="M205.3,804.7c0,0,-8.6,0,-8.6,8.6V970.1c0,0,0,8.7,8.6,8.7H554.4c0,0,8.6,0,8.6,-8.7V813.3c0,0,0,-8.6,-8.6,-8.6Z" class="gd_364"/>
<image clip-path="url(#c1_364)" preserveAspectRatio="none" x="202" y="374" width="103" height="85" xlink:href="img/1.jpg"/>
<image clip-path="url(#c2_364)" preserveAspectRatio="none" x="204" y="475" width="101" height="101" xlink:href="img/2.jpg"/>
<path d="M381.8,772.1h25.9" class="gg_364"/>
<path d="M211.9,220.5c0,0,-13,0,-13,13v47.6c0,0,0,13,13,13H833.5c0,0,13,0,13,-13V233.5c0,0,0,-13,-13,-13Z" class="gh_364"/>
<image clip-path="url(#c3_364)" preserveAspectRatio="none" x="155" y="217" width="75" height="76" xlink:href="img/3.png"/>
<path d="M206.7,286.7c0,0,-26.9,11.3,-51.1,-12.7c0,0,15.2,25.3,49.3,23.9c0,0,24.7,.4,20.2,-10.1c0,0,1.3,-4.4,-18.4,-1.1Z" class="gh_364"/>
<path d="M211.9,649.2c0,0,-13,0,-13,13v21.7c0,0,0,12.9,13,12.9H833.5c0,0,13,0,13,-12.9V662.2c0,0,0,-13,-13,-13Z" class="gh_364"/>
<image clip-path="url(#c4_364)" preserveAspectRatio="none" x="155" y="619" width="75" height="77" xlink:href="img/4.png"/>
<path d="M206.7,689.5c0,0,-26.9,11.3,-51.1,-12.8c0,0,15.2,25.3,49.3,24c0,0,24.7,.3,20.2,-10.1c0,0,1.3,-4.5,-18.4,-1.1Z" class="gh_364"/>
<path d="M32.1,45.1H9.2m958.3,0h22.9M32.1,1331.3H9.2m958.3,0h22.9M45.1,32.1V9.2m0,1335.1v22.9M954.5,32.1V9.2m0,1335.1v22.9" class="gi_364"/>
<path d="M32.1,45.1H9.2m958.3,0h22.9M32.1,1331.3H9.2m958.3,0h22.9M45.1,32.1V9.2m0,1335.1v22.9M954.5,32.1V9.2m0,1335.1v22.9" class="gj_364"/>
<path d="M27.5,32.1H0m972.1,0h27.5M27.5,1344.3H0m972.1,0h27.5M32.1,27.5V0m0,1348.9v27.5M967.5,27.5V0m0,1348.9v27.5" class="gi_364"/>
<path d="M27.5,32.1H0m972.1,0h27.5M27.5,1344.3H0m972.1,0h27.5M32.1,27.5V0m0,1348.9v27.5M967.5,27.5V0m0,1348.9v27.5" class="gj_364"/>
</svg>