<?xml version="1.0" encoding="UTF-8" standalone="no"?>
<!DOCTYPE svg PUBLIC "-//W3C//DTD SVG 1.1//EN"
"http://www.w3.org/Graphics/SVG/1.1/DTD/svg11.dtd">
<svg viewBox="0 0 999 1376" version="1.1" xmlns="http://www.w3.org/2000/svg" xmlns:xlink="http://www.w3.org/1999/xlink">
<defs>
<clipPath id="c0_333"><path d="M198.6,240.8l-6.5,-2.1L175.7,224.8V167.7h72v73.1Z"/></clipPath>
<clipPath id="c1_333"><path d="M198.6,1075.4l-6.5,-2.1l-16.4,-14v-57.1h72v73.2Z"/></clipPath>
<clipPath id="c2_333"><path d="M786.5,132.5V120.1H801v12.4Z"/></clipPath>
<clipPath id="c3_333"><path d="M96.4,540.2V277.3H324.7V540.2Z"/></clipPath>
<clipPath id="c4_333"><path d="M100.7,533.5V283.2H317.4V533.5Z"/></clipPath>
<clipPath id="c5_333"><path d="M100.4,533.2V282.9H317.1V533.2Z"/></clipPath>
<clipPath id="c6_333"><path d="M193.4,301.9c-.3,-.1,3.5,-8.2,3.5,-8.2l.8,.5c0,0,-4,7.7,-4.3,7.7Z"/></clipPath>
<clipPath id="c7_333"><path d="M200.9,294.2c0,0,-6.9,-1.1,-7.6,-5.3c-.6,-3.6,1.5,-3.8,2.1,-3.8q.1,0,.1,0l8.3,-12.7l-1.4,-3.1c0,0,-.6,-1.1,.1,-2.1c.1,0,.2,-.1,.3,-.1c2.1,0,13,5.6,13,5.6v.1c-.3,.5,-.7,1.2,-1.4,1.7c-.6,.5,-5,1.1,-5,1.1l-8.5,18.6Z"/></clipPath>
<clipPath id="c8_333"><path d="M200.5,293.8c.2,-.5,.2,-1.8,0,-2.2v-1.4c-1.5,-.6,-2.9,-1.3,-3.7,-2.5c-1,.5,-2.1,1.2,-3.1,1.8c1.6,2.2,3.8,3.6,6.8,4.3Zm0,-3.9c2.2,-4.5,4,-9.5,6.1,-14.1c-.8,-.3,-1.8,-1.3,-2.6,-1.3c-2.3,4.3,-4.6,8.6,-7,12.8c.7,1.3,2.1,2,3.5,2.6ZM193.2,302c1,-2.9,2.4,-5.5,3.5,-8.3c-2,-1.6,-3.9,-3.1,-4.4,-6.2V286c0,-2.7,1.9,-3.4,4.6,-3.4q.1,0,.2,0c1.9,-3.3,4.2,-6.3,6.2,-9.7c-.6,-.8,-1.2,-2.3,-.9,-3.6c.5,1.3,1.6,1.9,2.4,2.9c-.2,.6,-.3,1.1,-.4,1.8c.6,.6,1.3,1.1,2.4,1.3c.4,-.4,.5,-1.2,1.1,-1.5c.9,.4,1.8,.8,3.1,.8c.2,.1,.5,.1,.9,.1c.3,0,.6,0,.8,-.1c.1,0,.2,0,.3,0c.2,0,.4,0,.6,-.1c.2,-.1,.4,-.1,.5,-.1c.1,0,.2,0,.3,.1c-1.3,.6,-2.2,1.7,-4.1,1.7c-.2,0,-.3,0,-.4,0c-.9,3.8,-1.8,7.4,-2.6,11.2c.5,1.1,1.5,1.7,1.2,3.1c-.4,2.8,-3.8,4.4,-7.2,4.4c-1.2,0,-2.5,-.2,-3.6,-.7c-1,2.1,-2,4.1,-3.2,6c-.1,-.3,.2,-.4,.2,-.7c1,-1.8,1.9,-3.6,2.6,-5.7c-1,1.7,-1.8,3.7,-2.7,5.5c-.2,.5,-.4,.9,-.6,1.3c-.3,.4,-.3,1.1,-.8,1.4Z"/></clipPath>
<clipPath id="c9_333"><path d="M210.9,274.2c-4.8,0,-13.1,-7.3,-5.5,-8.8h1.2c.2,.1,.5,.1,.7,.1c.1,0,.2,0,.3,0c.2,0,.5,0,.8,0c3.1,.7,8.2,3.8,7.5,7.1c-.2,1.1,-1.5,1.6,-3.1,1.6h-1.9Z"/></clipPath>
<clipPath id="ca_333"><path d="M728.3,534.1V311.9H940V534.1Z"/></clipPath>
<clipPath id="cb_333"><path d="M729,530.8V313H938V530.8Z"/></clipPath>
<clipPath id="cc_333"><path d="M728.7,530.5V312.7h209V530.5Z"/></clipPath>
<clipPath id="cd_333"><path d="M840.4,331c-.3,-.1,3.6,-8.2,3.6,-8.2l.7,.5c0,0,-4,7.7,-4.3,7.7Z"/></clipPath>
<clipPath id="ce_333"><path d="M847.9,323.3c0,0,-6.8,-1.1,-7.6,-5.2c-.6,-3.7,1.6,-3.9,2.1,-3.9q.1,0,.1,0l8.3,-12.7l-1.4,-3.1c0,0,-.6,-1.1,.1,-2.1c.1,0,.2,-.1,.3,-.1c2.1,0,13,5.6,13,5.6v.1c-.3,.6,-.7,1.2,-1.4,1.7c-.6,.5,-5,1.1,-5,1.1l-8.5,18.6Z"/></clipPath>
<clipPath id="cf_333"><path d="M847.5,322.9c.2,-.4,.2,-1.8,0,-2.2v-1.4c-1.5,-.5,-2.9,-1.3,-3.6,-2.5c-1.1,.6,-2.2,1.2,-3.2,1.9c1.6,2.1,3.8,3.5,6.8,4.2Zm0,-3.9c2.2,-4.5,4,-9.5,6.2,-14c-.9,-.4,-1.9,-1.4,-2.7,-1.4c-2.3,4.3,-4.6,8.6,-7,12.8c.7,1.3,2.1,2,3.5,2.6Zm-7.3,12.1c1,-2.9,2.4,-5.5,3.5,-8.3c-2,-1.5,-3.9,-3.1,-4.4,-6.2v-1.5c0,-2.7,2,-3.4,4.6,-3.4q.1,0,.2,0c1.9,-3.3,4.2,-6.3,6.2,-9.6c-.6,-.9,-1.2,-2.4,-.9,-3.7c.5,1.3,1.6,1.9,2.4,2.9c-.1,.6,-.3,1.2,-.4,1.8c.6,.6,1.3,1.1,2.4,1.4c.4,-.5,.5,-1.3,1.1,-1.6c1,.4,1.9,.8,3.2,.8c.1,.1,.4,.2,.8,.2c.3,0,.7,-.1,.8,-.2c.1,0,.2,0,.3,0c.2,0,.4,0,.6,-.1c.2,-.1,.4,-.1,.5,-.1c.1,0,.2,0,.3,.1c-1.3,.6,-2.1,1.7,-4.1,1.7c-.1,0,-.3,0,-.4,0c-.8,3.8,-1.8,7.4,-2.6,11.2c.5,1.1,1.5,1.7,1.2,3.2c-.4,2.7,-3.8,4.3,-7.2,4.3c-1.2,0,-2.5,-.2,-3.6,-.7c-1,2.1,-2,4.1,-3.2,6c-.1,-.3,.3,-.4,.2,-.7c1,-1.8,2,-3.6,2.7,-5.7c-1.1,1.7,-1.9,3.7,-2.8,5.6c-.2,.4,-.4,.8,-.6,1.2c-.3,.4,-.3,1.1,-.8,1.4Z"/></clipPath>
<clipPath id="cg_333"><path d="M857.9,303.3c-4.8,0,-13,-7.3,-5.5,-8.8h1.3c.1,.1,.3,.1,.4,.1c.1,0,.2,0,.2,0c.4,0,.7,0,1.1,.1c3.1,.6,8.2,3.7,7.6,7c-.3,1.1,-1.6,1.6,-3.2,1.6h-1.7q-.1,0,-.2,0Z"/></clipPath>
<style type="text/css"><![CDATA[
.g0_333{
fill: #FEFCF4;
}
.g1_333{
fill: #FFF;
}
.g2_333{
fill: none;
stroke: #6381B7;
stroke-width: 0.763;
}
.g3_333{
fill: #6381B7;
}
.g4_333{
fill: none;
stroke: #6381B7;
stroke-width: 0.381;
stroke-dasharray: 2,1;
}
.g5_333{
fill: none;
stroke: #6381B7;
stroke-width: 0.381;
}
.g6_333{
fill: #FCE8B0;
}
.g7_333{
fill: #25408F;
}
.g8_333{
fill: #A8AAAD;
}
.g9_333{
fill: none;
stroke: #949698;
stroke-width: 0.549;
}
.ga_333{
fill: none;
stroke: #BCBEC0;
stroke-width: 2.566;
}
.gb_333{
fill: #231F20;
}
.gc_333{
fill: #363637;
}
.gd_333{
fill: #5CC4BE;
}
.ge_333{
fill: #EAD646;
}
.gf_333{
fill: none;
stroke: #949698;
stroke-width: 0.305;
stroke-dasharray: 3,3;
}
.gg_333{
fill: none;
stroke: #949698;
stroke-width: 0.305;
}
.gh_333{
fill: #F7C2D9;
}
.gi_333{
fill: #FEF6F5;
}
.gj_333{
fill: #EC008C;
}
.gk_333{
fill: none;
stroke: #949698;
stroke-width: 0.305;
stroke-dasharray: 4,4;
}
.gl_333{
fill: #818385;
}
.gm_333{
fill: #6D6F71;
}
.gn_333{
fill: none;
stroke: #FFF;
stroke-width: 1.909;
stroke-miterlimit: 10;
}
.go_333{
fill: none;
stroke: #000;
stroke-width: 0.381;
stroke-miterlimit: 10;
}
]]></style>
</defs>
<path d="M45.1,1344.3H967.5V32.1H45.1V1344.3Z" class="g0_333"/>
<path d="M172.1,137.3c0,0,-18.4,0,-18.4,18.4V875.2c0,0,0,18.3,18.4,18.3H849.2c0,0,18.3,0,18.3,-18.3V137.3Z" class="g1_333"/>
<path d="M172.1,137.3c0,0,-18.4,0,-18.4,18.4V875.2c0,0,0,18.3,18.4,18.3H849.2c0,0,18.3,0,18.3,-18.3V137.3H172.1Z" class="g2_333"/>
<path d="M413.6,1182.9c0,0,-4.4,0,-4.4,4.4v10.8c0,0,0,4.3,4.4,4.3h30.3c0,0,4.3,0,4.3,-4.3v-10.8c0,0,0,-4.4,-4.3,-4.4Z" class="g3_333"/>
<path d="M400.4,1174.1v37.6m1.3,.9H866.8m.9,-1.3v-37.6m-1.3,-.9H401.3" class="g4_333"/>
<path d="M400.4,1212v.6h.6m466.1,0h.6v-.6m0,-38.7v-.5h-.6m-466.1,0h-.6v.5" class="g5_333"/>
<path d="M166.7,977.4c0,0,-13,0,-13,13v161.9c0,0,0,13,13,13H854.5c0,0,13,0,13,-13V990.4c0,0,0,-13,-13,-13Z" class="g1_333"/>
<path d="M166.7,977.4c0,0,-13,0,-13,13v161.9c0,0,0,13,13,13H854.5c0,0,13,0,13,-13V990.4c0,0,0,-13,-13,-13H166.7Z" class="g2_333"/>
<path d="M231.2,195.8c0,0,-12.9,0,-12.9,13v21.7c0,0,0,13,12.9,13H833.3c0,0,13,0,13,-13V208.8c0,0,0,-13,-13,-13Z" class="g6_333"/>
<image clip-path="url(#c0_333)" preserveAspectRatio="none" x="174" y="166" width="75" height="76" xlink:href="img/1.png"/>
<path d="M226,236.1c0,0,-26.8,11.3,-51.1,-12.7c0,0,15.2,25.3,49.3,23.9c0,0,24.8,.4,20.3,-10.1c0,0,1.2,-4.5,-18.5,-1.1Z" class="g6_333"/>
<path d="M231.2,1030.4c0,0,-12.9,0,-12.9,13V1065c0,0,0,13,12.9,13H833.3c0,0,13,0,13,-13v-21.6c0,0,0,-13,-13,-13Z" class="g6_333"/>
<image clip-path="url(#c1_333)" preserveAspectRatio="none" x="174" y="1001" width="75" height="76" xlink:href="img/2.png"/>
<path d="M226,1070.7c0,0,-26.8,11.3,-51.1,-12.8c0,0,15.2,25.3,49.3,24c0,0,24.8,.3,20.3,-10.2c0,0,1.2,-4.4,-18.5,-1Z" class="g6_333"/>
<path d="M153.3,111.9v39L165,161.2V117Z" class="g7_333"/>
<path d="M153.3,111.9v39H851.1c0,0,16.8,0,16.8,-16.8v-5.3c0,0,0,-16.9,-16.8,-16.9Z" class="g3_333"/>
<path d="M802.6,145.6c8.2,0,14.9,-6.5,14.9,-14.5c0,-8.1,-6.7,-14.5,-14.9,-14.5c-8.2,0,-14.9,6.4,-14.9,14.5c0,8,6.7,14.5,14.9,14.5Z" class="g8_333"/>
<path d="M802.6,145.6c8.2,0,14.9,-6.5,14.9,-14.5c0,-8.1,-6.7,-14.5,-14.9,-14.5c-8.2,0,-14.9,6.4,-14.9,14.5c0,8,6.7,14.5,14.9,14.5Z" class="g9_333"/>
<path d="M802.6,136.4c3,0,5.5,-2.4,5.5,-5.3c0,-3,-2.5,-5.4,-5.5,-5.4c-3,0,-5.5,2.4,-5.5,5.4c0,2.9,2.5,5.3,5.5,5.3Z" class="g1_333"/>
<path d="M802.6,136.4c3,0,5.5,-2.4,5.5,-5.3c0,-3,-2.5,-5.4,-5.5,-5.4c-3,0,-5.5,2.4,-5.5,5.4c0,2.9,2.5,5.3,5.5,5.3Z" class="ga_333"/>
<g clip-path="url(#c2_333)" opacity="0.3">
<path d="M788,130.3c0,0,0,-4.8,3.7,-8.7l7.7,6.8c0,0,-1,.9,-1,2.6Z" class="g1_333"/>
</g>
<path d="M807.2,131c0,0,-3.5,0,-3.5,3.4v8.7c0,0,0,3.5,3.5,3.5h43.5c0,0,3.5,0,3.5,-3.5v-8.7c0,0,0,-3.4,-3.5,-3.4Z" class="gb_333"/>
<path d="M191.2,122c0,-8.3,-6.8,-15,-15.1,-15c-8.3,0,-15,6.7,-15,15c0,8.3,6.7,15.1,15,15.1c.8,0,1.7,-.1,2.4,-.2l4.5,5.2v-6.7c4.9,-2.5,8.2,-7.6,8.2,-13.4Z" class="g1_333"/>
<path d="M183.5,143.3l-5.1,-5.9c-.8,.1,-1.5,.1,-2.3,.1c-8.5,0,-15.5,-6.9,-15.5,-15.5c0,-8.5,7,-15.5,15.5,-15.5c8.6,0,15.5,7,15.5,15.5c0,5.7,-3.1,11,-8.1,13.7Zm-4.8,-6.9l3.9,4.5v-5.8l.2,-.1c4.9,-2.5,7.9,-7.5,7.9,-13c0,-8,-6.5,-14.6,-14.6,-14.6c-8,0,-14.6,6.6,-14.6,14.6c0,8.1,6.6,14.6,14.6,14.6c.8,0,1.6,-.1,2.4,-.2Z" class="gc_333"/>
<path d="M169.1,121.6c.8,0,1.4,.6,1.4,1.4c0,.8,-.6,1.5,-1.4,1.5c-.8,0,-1.4,-.7,-1.4,-1.5c0,-.8,.6,-1.4,1.4,-1.4Z" class="gd_333"/>
<path d="M169.1,124.9c-1,0,-1.9,-.8,-1.9,-1.9c0,-1,.9,-1.9,1.9,-1.9c1,0,1.9,.9,1.9,1.9c0,1.1,-.9,1.9,-1.9,1.9m0,-2.9c-.5,0,-1,.5,-1,1c0,.6,.5,1,1,1c.5,0,1,-.4,1,-1c0,-.5,-.5,-1,-1,-1Z" class="gc_333"/>
<path d="M176.1,121.6c.8,0,1.5,.6,1.5,1.4c0,.8,-.7,1.5,-1.5,1.5c-.8,0,-1.4,-.7,-1.4,-1.5c0,-.8,.6,-1.4,1.4,-1.4Z" class="gd_333"/>
<path d="M176.1,124.9c-1,0,-1.9,-.8,-1.9,-1.9c0,-1,.9,-1.9,1.9,-1.9c1.1,0,1.9,.9,1.9,1.9c0,1.1,-.8,1.9,-1.9,1.9m0,-2.9c-.5,0,-1,.5,-1,1c0,.6,.5,1,1,1c.6,0,1,-.4,1,-1c0,-.5,-.4,-1,-1,-1Z" class="gc_333"/>
<path d="M183.1,121.6c.8,0,1.5,.6,1.5,1.4c0,.8,-.7,1.5,-1.5,1.5c-.8,0,-1.4,-.7,-1.4,-1.5c0,-.8,.6,-1.4,1.4,-1.4Z" class="gd_333"/>
<path d="M183.1,124.9c-1,0,-1.9,-.8,-1.9,-1.9c0,-1,.9,-1.9,1.9,-1.9c1.1,0,1.9,.9,1.9,1.9c0,1.1,-.8,1.9,-1.9,1.9m0,-2.9c-.5,0,-1,.5,-1,1c0,.6,.5,1,1,1c.6,0,1,-.4,1,-1c0,-.5,-.4,-1,-1,-1Z" class="gc_333"/>
<path d="M185.1,136.3c0,-9.8,7.8,-17.7,17.6,-17.7c9.7,0,17.6,7.9,17.6,17.7c0,9.7,-7.9,17.6,-17.6,17.6c-1,0,-1.9,-.1,-2.9,-.3l-5.2,6.1v-7.8c-5.7,-2.9,-9.5,-8.8,-9.5,-15.6Z" class="ge_333"/>
<path d="M194.6,160.2q-.1,0,-.2,0c-.2,-.1,-.3,-.3,-.3,-.5v-7.5c-5.9,-3.2,-9.5,-9.2,-9.5,-15.9c0,-10,8.1,-18.1,18.1,-18.1c9.9,0,18,8.1,18,18.1c0,9.9,-8.1,18,-18,18c-.9,0,-1.8,0,-2.7,-.2l-5.1,5.9c-.1,.1,-.2,.2,-.3,.2m8.1,-41.1c-9.5,0,-17.2,7.7,-17.2,17.2c0,6.4,3.6,12.2,9.3,15.2c.1,.1,.2,.2,.2,.4v6.6l4.5,-5.2c.1,-.1,.3,-.1,.4,-.1c1,.1,1.9,.2,2.8,.2c9.4,0,17.1,-7.7,17.1,-17.1c0,-9.5,-7.7,-17.2,-17.1,-17.2Z" class="gc_333"/>
<path d="M210.9,135.8c.9,0,1.6,.7,1.6,1.6c0,1,-.7,1.7,-1.6,1.7c-1,0,-1.7,-.7,-1.7,-1.7c0,-.9,.7,-1.6,1.7,-1.6Z" class="g1_333"/>
<path d="M210.9,139.6c-1.2,0,-2.2,-1,-2.2,-2.2c0,-1.1,1,-2.1,2.2,-2.1c1.1,0,2.1,1,2.1,2.1c0,1.2,-1,2.2,-2.1,2.2m0,-3.4c-.7,0,-1.3,.6,-1.3,1.2c0,.7,.6,1.3,1.3,1.3c.6,0,1.2,-.6,1.2,-1.3c0,-.6,-.6,-1.2,-1.2,-1.2Z" class="gc_333"/>
<path d="M202.7,135.8c.9,0,1.6,.7,1.6,1.6c0,1,-.7,1.7,-1.6,1.7c-1,0,-1.7,-.7,-1.7,-1.7c0,-.9,.7,-1.6,1.7,-1.6Z" class="g1_333"/>
<path d="M202.7,139.6c-1.2,0,-2.2,-1,-2.2,-2.2c0,-1.1,1,-2.1,2.2,-2.1c1.1,0,2.1,1,2.1,2.1c0,1.2,-1,2.2,-2.1,2.2m0,-3.4c-.7,0,-1.3,.6,-1.3,1.2c0,.7,.6,1.3,1.3,1.3c.6,0,1.2,-.6,1.2,-1.3c0,-.6,-.6,-1.2,-1.2,-1.2Z" class="gc_333"/>
<path d="M194.5,135.8c.9,0,1.6,.7,1.6,1.6c0,1,-.7,1.7,-1.6,1.7c-1,0,-1.7,-.7,-1.7,-1.7c0,-.9,.7,-1.6,1.7,-1.6Z" class="g1_333"/>
<path d="M194.5,139.6c-1.2,0,-2.2,-1,-2.2,-2.2c0,-1.1,1,-2.1,2.2,-2.1c1.1,0,2.1,1,2.1,2.1c0,1.2,-1,2.2,-2.1,2.2m0,-3.4c-.7,0,-1.2,.6,-1.2,1.2c0,.7,.5,1.3,1.2,1.3c.6,0,1.2,-.6,1.2,-1.3c0,-.6,-.6,-1.2,-1.2,-1.2Z" class="gc_333"/>
<path d="M414.2,328c11.7,-1,21,-5.8,23.2,-12m-.6,-7c-3.1,-5.8,-12.5,-10.1,-24,-10.8m-7.2,.1c-11.7,1,-21,5.8,-23.2,12m.6,7c3.1,5.8,12.5,10.2,24,10.8" class="gf_333"/>
<path d="M437.8,314.6c.1,-.5,.1,-1,.1,-1.4c0,-.5,0,-1,-.1,-1.5M411.4,298.2c-.5,0,-1,0,-1.5,0c-.5,0,-.9,0,-1.4,0M382,311.7c0,.5,-.1,1,-.1,1.5c0,.4,.1,.9,.1,1.4m26.5,13.5c.5,.1,.9,.1,1.4,.1c.5,0,1,0,1.5,-.1" class="gg_333"/>
<image clip-path="url(#c3_333)" preserveAspectRatio="none" x="96" y="278" width="229" height="263" xlink:href="img/3.png"/>
<path d="M101.3,302.7l24.9,231.7l192.2,-21L293.1,282.3Z" class="gh_333"/>
<image clip-path="url(#c4_333)" preserveAspectRatio="none" x="100" y="283" width="217" height="251" xlink:href="img/4.png"/>
<image clip-path="url(#c5_333)" preserveAspectRatio="none" x="100" y="283" width="217" height="251" xlink:href="img/5.png"/>
<path d="M105.2,295.5L117.4,527l161.4,-6.5L311,490.7L299.7,287.8Z" class="gi_333"/>
<path d="M279.1,520.9l32.2,-30.1l-22,-8Z" class="gj_333"/>
<path d="M406.1,294C393.4,286.3,348.3,263.9,259,270.7" class="gk_333"/>
<path d="M251.7,271.6c-6,1.5,-2.2,4.7,1.4,5.8" class="gf_333"/>
<path d="M258.9,274.5c.8,-3.2,-1.5,-7.8,-12.4,-8.9" class="gk_333"/>
<path d="M238.9,265.3c-16,0,-46.4,4,-82.2,29.2" class="gf_333"/>
<path d="M409.9,296.6c0,0,-.4,-.4,-1.2,-.9M257.5,270.8c-.5,.1,-1,.1,-1.6,.2c-.5,0,-.9,.1,-1.4,.1m0,6.6c.5,.1,1,.1,1.4,.1c.5,-.1,1,-.3,1.5,-.7M244.9,265.4c-.5,0,-1,0,-1.5,-.1c-.5,0,-1,0,-1.5,0m-86.5,30.1c-.4,.3,-.8,.6,-1.2,.9" class="gg_333"/>
<path d="M163.9,294.6L158,288.1L152.6,299Z" class="gl_333"/>
<image clip-path="url(#c6_333)" x="193" y="293" width="5" height="9" xlink:href="shade/1.png"/>
<image clip-path="url(#c7_333)" x="192" y="267" width="24" height="28" xlink:href="shade/2.png"/>
<image clip-path="url(#c8_333)" x="192" y="269" width="23" height="33" xlink:href="shade/3.png"/>
<image clip-path="url(#c9_333)" x="197" y="265" width="20" height="10" xlink:href="shade/4.png"/>
<image clip-path="url(#ca_333)" preserveAspectRatio="none" x="728" y="312" width="212" height="223" xlink:href="img/6.png"/>
<path d="M733.4,324.6l6.4,203.3l194,-6.8L928.8,317Z" class="gh_333"/>
<image clip-path="url(#cb_333)" preserveAspectRatio="none" x="729" y="313" width="208" height="219" xlink:href="img/7.png"/>
<image clip-path="url(#cc_333)" preserveAspectRatio="none" x="728" y="313" width="209" height="218" xlink:href="img/8.png"/>
<path d="M739.2,317.4l-5.8,202.2L893,524.3l33.7,-27.6l4.9,-173.4Z" class="gi_333"/>
<path d="M892.7,525.2l33.6,-27.6l-19.6,-7.2Z" class="gj_333"/>
<image clip-path="url(#cd_333)" x="840" y="322" width="5" height="10" xlink:href="shade/5.png"/>
<image clip-path="url(#ce_333)" x="839" y="296" width="24" height="28" xlink:href="shade/6.png"/>
<image clip-path="url(#cf_333)" x="839" y="298" width="23" height="34" xlink:href="shade/7.png"/>
<image clip-path="url(#cg_333)" x="844" y="294" width="20" height="10" xlink:href="shade/8.png"/>
<path d="M562.2,560.4c0,0,83.3,-56.7,201.8,-52.4" class="gk_333"/>
<path d="M757.1,503.6l.2,8.8l11.2,-4.7Z" class="gm_333"/>
<path d="M561.9,591.2c10.2,-1.3,18.2,-6.1,20.4,-12.4m-.7,-8c-3,-5.8,-11.2,-10.2,-21.3,-11M552,560c-10.2,1.2,-18.2,6.1,-20.3,12.3m.6,8.1c3,5.8,11.3,10.1,21.3,10.9" class="gk_333"/>
<path d="M582.7,577.2c0,-.5,.1,-1.1,.1,-1.6c0,-.6,-.1,-1.1,-.1,-1.7M558.6,559.8c-.5,-.1,-1.1,-.1,-1.6,-.1c-.6,0,-1.1,0,-1.7,.1m-24,14.1c-.1,.6,-.2,1.1,-.2,1.7c0,.5,.1,1.1,.2,1.6m24,14.2c.6,0,1.1,.1,1.7,.1c.5,0,1.1,-.1,1.6,-.1" class="gg_333"/>
<path d="M32.1,45.1H9.2m958.3,0h22.9M32.1,1331.3H9.2m958.3,0h22.9M45.1,32.1V9.2m0,1335.1v22.9M954.5,32.1V9.2m0,1335.1v22.9" class="gn_333"/>
<path d="M32.1,45.1H9.2m958.3,0h22.9M32.1,1331.3H9.2m958.3,0h22.9M45.1,32.1V9.2m0,1335.1v22.9M954.5,32.1V9.2m0,1335.1v22.9" class="go_333"/>
<path d="M27.5,32.1H0m972.1,0h27.5M27.5,1344.3H0m972.1,0h27.5M32.1,27.5V0m0,1348.9v27.5M967.5,27.5V0m0,1348.9v27.5" class="gn_333"/>
<path d="M27.5,32.1H0m972.1,0h27.5M27.5,1344.3H0m972.1,0h27.5M32.1,27.5V0m0,1348.9v27.5M967.5,27.5V0m0,1348.9v27.5" class="go_333"/>
</svg>