<?xml version="1.0" encoding="UTF-8" standalone="no"?>
<!DOCTYPE svg PUBLIC "-//W3C//DTD SVG 1.1//EN"
"http://www.w3.org/Graphics/SVG/1.1/DTD/svg11.dtd">
<svg viewBox="0 0 999 1376" version="1.1" xmlns="http://www.w3.org/2000/svg" xmlns:xlink="http://www.w3.org/1999/xlink">
<defs>
<clipPath id="c0_45"><path d="M32.1,1344.3V32.1H967.5V1344.3Z"/></clipPath>
<clipPath id="c1_45"><path d="M203,277.2l-6.5,-2L182.5,264V203.1h62.7v74.1Z"/></clipPath>
<clipPath id="c2_45"><path d="M203,714.6l-6.5,-2l-14,-11.2V640.5h62.7v74.1Z"/></clipPath>
<clipPath id="c3_45"><path d="M203,816l-6.5,-2.1l-14,-11.2V741.8h62.7V816Z"/></clipPath>
<clipPath id="c4_45"><path d="M203,915.6l-6.5,-2l-14,-11.3V841.4h62.7v74.2Z"/></clipPath>
<style type="text/css"><![CDATA[
.g0_45{
fill: #FFFDEA;
}
.g1_45{
fill: #BCE4EA;
}
.g2_45{
fill: #BCBEC0;
}
.g3_45{
fill: #00AABD;
}
.g4_45{
fill: #FCDCBA;
}
.g5_45{
fill: #DED3E8;
}
.g6_45{
fill: #FFF;
}
.g7_45{
fill: none;
stroke: #231F20;
stroke-width: 0.381;
stroke-miterlimit: 10;
}
.g8_45{
fill: none;
stroke: #6D6F71;
stroke-width: 0.381;
stroke-miterlimit: 10;
}
.g9_45{
fill: none;
stroke: #6D6F71;
stroke-width: 0.305;
stroke-miterlimit: 10;
}
.ga_45{
fill: none;
stroke: #FFF;
stroke-width: 0.305;
stroke-miterlimit: 10;
}
.gb_45{
fill: none;
stroke: #6D6F71;
stroke-width: 0.152;
stroke-miterlimit: 10;
}
.gc_45{
fill: none;
stroke: #D1232A;
stroke-width: 0.763;
}
.gd_45{
fill: #231F20;
}
.ge_45{
fill: none;
stroke: #FFF;
stroke-width: 1.909;
stroke-miterlimit: 10;
}
.gf_45{
fill: none;
stroke: #000;
stroke-width: 0.381;
stroke-miterlimit: 10;
}
]]></style>
</defs>
<g clip-path="url(#c0_45)">
<path d="M-877.3,1344.3H967.5V32.1H-877.3V1344.3Z" class="g0_45"/>
<path d="M-877.3,179.3H967.5V32.1H-877.3V179.3Z" class="g1_45"/>
<path d="M967.5,177.2H-877.3v-5.4h736.6c43.1,0,53.1,-37.9,115.3,-37.9H967.5Z" class="g2_45"/>
<path d="M967.5,183.7H-877.3v-9.8h736.6c43.1,0,53.1,-33.6,115.3,-33.6H967.5Z" class="g3_45"/>
</g>
<path d="M235.6,232.2c0,0,-13,0,-13,13v21.7c0,0,0,13,13,13H854.7c0,0,13,0,13,-13V245.2c0,0,0,-13,-13,-13Z" class="g4_45"/>
<image clip-path="url(#c1_45)" preserveAspectRatio="none" x="182" y="202" width="63" height="77" xlink:href="img/1.png"/>
<path d="M230.4,272.5c0,0,-26.8,11.3,-51.1,-12.8c0,0,15.2,25.4,49.3,24c0,0,24.8,.3,20.3,-10.1c0,0,1.2,-4.5,-18.5,-1.1Z" class="g4_45"/>
<path d="M192.5,313.9H300.7v43.3H192.5V313.9Zm108.2,0H409v43.3H300.7V313.9Zm108.3,0H867.8v43.3H409V313.9Z" class="g5_45"/>
<path d="M192.5,357.2H300.7v65H192.5v-65Zm108.2,0H409v65H300.7v-65Zm108.3,0h76.5v65H409v-65Zm76.5,0h76.4v65H485.5v-65Zm76.4,0h76.5v65H561.9v-65Zm76.5,0h76.4v65H638.4v-65Zm76.4,0h76.5v65H714.8v-65Zm76.5,0h76.5v65H791.3v-65Zm-598.8,65H300.7v64.9H192.5V422.2Zm108.2,0H409v64.9H300.7V422.2Zm108.3,0h76.5v64.9H409V422.2Zm76.5,0h76.4v64.9H485.5V422.2Zm76.4,0h76.5v64.9H561.9V422.2Zm76.5,0h76.4v64.9H638.4V422.2Zm76.4,0h76.5v64.9H714.8V422.2Zm76.5,0h76.5v64.9H791.3V422.2ZM192.5,487.1H300.7v65H192.5v-65Zm108.2,0H409v65H300.7v-65Zm108.3,0h76.5v65H409v-65Zm76.5,0h76.4v65H485.5v-65Zm76.4,0h76.5v65H561.9v-65Zm76.5,0h76.4v65H638.4v-65Zm76.4,0h76.5v65H714.8v-65Zm76.5,0h76.5v65H791.3v-65Zm-598.8,65H300.7v65H192.5v-65Zm108.2,0H409v65H300.7v-65Zm108.3,0h76.5v65H409v-65Zm76.5,0h76.4v65H485.5v-65Zm76.4,0h76.5v65H561.9v-65Zm76.5,0h76.4v65H638.4v-65Zm76.4,0h76.5v65H714.8v-65Zm76.5,0h76.5v65H791.3v-65Z" class="g6_45"/>
<path d="M300.7,357.1v-43" class="g7_45"/>
<path d="M409,357.1v-43M300.7,422V357.4M409,422V357.4M485.5,422V357.4M561.9,422V357.4M638.4,422V357.4M300.7,487V422.3M409,487V422.3M485.5,487V422.3M561.9,487V422.3M638.4,487V422.3M300.7,551.9V487.3M409,551.9V487.3m76.5,64.6V487.3m76.4,64.6V487.3m76.5,64.6V487.3M300.7,616.9V552.3M409,616.9V552.3m76.5,64.6V552.3m76.4,64.6V552.3m76.5,64.6V552.3" class="g8_45"/>
<path d="M192.3,313.9H300.7M192.5,357.1v-43m108.2,-.2H409m0,0h76.5m0,0h76.4m0,0h76.5m0,0h76.4m0,0h76.5m0,0h76.6m-.1,43.2v-43M192.3,357.2H300.7M192.5,422V357.4m108.2,-.2H409m0,0h76.5m0,0h76.4m0,0h76.5m0,0h76.4m0,0h76.5M714.8,422V357.4m76.5,-.2h76.6M791.3,422V357.4M867.8,422V357.4M192.3,422.2H300.7M192.5,487V422.3m108.2,-.1H409m0,0h76.5m0,0h76.4m0,0h76.5m0,0h76.4m0,0h76.5M714.8,487V422.3m76.5,-.1h76.6M791.3,487V422.3M867.8,487V422.3M192.3,487.1H300.7M192.5,551.9V487.3m108.2,-.2H409m0,0h76.5m0,0h76.4m0,0h76.5m0,0h76.4m0,0h76.5m-76.5,64.8V487.3m76.5,-.2h76.6m-76.6,64.8V487.3m76.5,64.6V487.3M192.3,552.1H300.7M192.5,616.9V552.3m108.2,-.2H409m0,0h76.5m0,0h76.4m0,0h76.5m0,0h76.4m0,0h76.5m-76.5,64.8V552.3m76.5,-.2h76.6m-76.6,64.8V552.3m76.5,64.6V552.3M192.3,617.1H300.7m0,0H409m0,0h76.5m0,0h76.4m0,0h76.5m0,0h76.4m0,0h76.5m0,0h76.6" class="g9_45"/>
<path d="M235.6,669.6c0,0,-13,0,-13,13v21.7c0,0,0,13,13,13H854.7c0,0,13,0,13,-13V682.6c0,0,0,-13,-13,-13Z" class="g4_45"/>
<image clip-path="url(#c2_45)" preserveAspectRatio="none" x="182" y="640" width="63" height="76" xlink:href="img/2.png"/>
<path d="M230.4,709.9c0,0,-26.8,11.3,-51.1,-12.7c0,0,15.2,25.3,49.3,23.9c0,0,24.8,.4,20.3,-10.1c0,0,1.2,-4.4,-18.5,-1.1Z" class="g4_45"/>
<path d="M235.6,771c0,0,-13,0,-13,13v21.6c0,0,0,13,13,13H854.7c0,0,13,0,13,-13V784c0,0,0,-13,-13,-13Z" class="g4_45"/>
<image clip-path="url(#c3_45)" preserveAspectRatio="none" x="182" y="741" width="63" height="77" xlink:href="img/3.png"/>
<path d="M230.4,811.2c0,0,-26.8,11.3,-51.1,-12.7c0,0,15.2,25.3,49.3,24c0,0,24.8,.3,20.3,-10.2c0,0,1.2,-4.4,-18.5,-1.1Z" class="g4_45"/>
<path d="M235.6,870.6c0,0,-13,0,-13,13v21.7c0,0,0,12.9,13,12.9H854.7c0,0,13,0,13,-12.9V883.6c0,0,0,-13,-13,-13Z" class="g4_45"/>
<image clip-path="url(#c4_45)" preserveAspectRatio="none" x="182" y="841" width="63" height="76" xlink:href="img/4.png"/>
<path d="M230.4,910.9c0,0,-26.8,11.3,-51.1,-12.8c0,0,15.2,25.3,49.3,24c0,0,24.8,.3,20.3,-10.1c0,0,1.2,-4.5,-18.5,-1.1Z" class="g4_45"/>
<path d="M231.3,950.6h52v65h-52v-65Zm86.6,0h52v259.9h-52V950.6Zm103.9,0h78v65h-78v-65Zm177.6,0h52v65h-52v-65Zm86.6,0h52v259.9H686V950.6Zm104,0h77.9v65H790v-65Zm-558.7,65h52v64.9h-52v-64.9Zm190.5,0h78v64.9h-78v-64.9Zm177.6,0h52v64.9h-52v-64.9Zm190.6,0h77.9v64.9H790v-64.9Zm-558.7,64.9h52v65h-52v-65Zm190.5,0h78v65h-78v-65Zm177.6,0h52v65h-52v-65Zm190.6,0h77.9v65H790v-65Zm-558.7,65h52v65h-52v-65Zm190.5,0h78v65h-78v-65Zm177.6,0h52v65h-52v-65Zm190.6,0h77.9v65H790v-65Z" class="g6_45"/>
<path d="M317.9,1015.6V950.8m103.9,64.6V950.8M686,1015.6V950.8m104,64.6V950.8" class="ga_45"/>
<path d="M283.3,1015.4V950.8m34.5,-.2H370m-.1,65V950.8m129.9,64.6V950.8m151.6,64.6V950.8m34.5,-.2h52.2m-.1,65V950.8m129.9,64.6V950.8M283.3,1080.4v-64.7m34.6,64.8v-64.9m52,64.9v-64.9m51.9,64.8v-64.7m78,64.7v-64.7m151.6,64.7v-64.7m34.6,64.8v-64.9m52,64.9v-64.9m52,64.8v-64.7m77.9,64.7v-64.7M283.3,1145.3v-64.6m34.6,64.8v-65m52,65v-65m51.9,64.8v-64.6m78,64.6v-64.6m151.6,64.6v-64.6m34.6,64.8v-65m52,65v-65m52,64.8v-64.6m77.9,64.6v-64.6M283.3,1210.3v-64.7m34.6,64.7v-64.8m52,64.8v-64.8m51.9,64.8v-64.7m78,64.7v-64.7m151.6,64.7v-64.7m34.6,64.7v-64.8m52,64.8v-64.8m52,64.8v-64.7m77.9,64.7v-64.7m-550.1,64.9H370m315.9,0h52.2" class="g9_45"/>
<path d="M317.8,1015.6V950.8m.2,64.8V950.8m103.7,64.6V950.8m.3,64.6V950.8m263.9,64.8V950.8m.2,64.8V950.8m103.7,64.6V950.8m.3,64.6V950.8" class="gb_45"/>
<path d="M231.1,950.6h52.3m-52.1,64.8V950.8m190.4,-.2H500m99.3,0h52.2m-52.1,64.8V950.8m190.4,-.2h78.3m-637,65h52.3m-52.1,64.8v-64.7m190.4,-.1H500m99.3,0h52.2m-52.1,64.8v-64.7m190.4,-.1h78.3m-637,64.9h52.3m-52.1,64.8v-64.6m190.4,-.2H500m99.3,0h52.2m-52.1,64.8v-64.6m190.4,-.2h78.3m-637,65h52.3m-52.1,64.8v-64.7m190.4,-.1H500m99.3,0h52.2m-52.1,64.8v-64.7m190.4,-.1h78.3m-637,65h52.3m138.3,0H500m99.3,0h52.2m138.3,0h78.3" class="g9_45"/>
<path d="M344.5,449.3v15.3h18.8m-4.6,-2.5l4.9,2.4l-4.8,2.7M346.3,381.3h20v14.6m-2.5,-4.6l2.4,4.8l2.7,-4.8M348,581.9l16.4,-.1l-15,11.8m1.4,-4l-2.7,4.7l5.5,-.4M347.1,447.2h18.2m-4.6,-2.5l4.8,2.4l-4.7,2.7m-14.7,61.7h18.1M359.6,509l4.9,2.4l-4.8,2.7M346.1,530h18.1m-4.6,-2.5l4.9,2.4l-4.8,2.7M347.1,396.1h11.8m-4.7,-2.5l4.9,2.4l-4.8,2.7m-3,55.5H363m-4.7,-2.5l4.9,2.4l-4.8,2.7m-8.7,118.4h11.8m-4.7,-2.5l4.9,2.4l-4.8,2.7m4.3,8.4l7.7,4.4m-2.8,-4.4l3,4.4l-5.4,.1M347.9,516.9v7.9m2.5,-4.7L348,525l-2.7,-4.8m16.9,-3.3v7.9m2.5,-4.7l-2.4,4.9l-2.7,-4.8" class="gc_45"/>
<path d="M285.6,1210.6H316v-259H285.6v259Z" class="g0_45"/>
<path d="M299.2,1077.8h-5.3v1.8h5.3v5.4h1.9v-5.4h5.3v-1.8h-5.3v-5.3h-1.9Z" class="gd_45"/>
<path d="M654.8,1210.6h26.9v-259H654.8v259Z" class="g0_45"/>
<path d="M667.3,1077.8H662v1.8h5.3v5.4h2v-5.4h5.2v-1.8h-5.2v-5.3h-2Z" class="gd_45"/>
<path d="M32.1,45.1H9.2m958.3,0h22.9M32.1,1331.3H9.2m958.3,0h22.9M45.1,32.1V9.2m0,1335.1v22.9M954.5,32.1V9.2m0,1335.1v22.9" class="ge_45"/>
<path d="M32.1,45.1H9.2m958.3,0h22.9M32.1,1331.3H9.2m958.3,0h22.9M45.1,32.1V9.2m0,1335.1v22.9M954.5,32.1V9.2m0,1335.1v22.9" class="gf_45"/>
<path d="M27.5,32.1H0m972.1,0h27.5M27.5,1344.3H0m972.1,0h27.5M32.1,27.5V0m0,1348.9v27.5M967.5,27.5V0m0,1348.9v27.5" class="ge_45"/>
<path d="M27.5,32.1H0m972.1,0h27.5M27.5,1344.3H0m972.1,0h27.5M32.1,27.5V0m0,1348.9v27.5M967.5,27.5V0m0,1348.9v27.5" class="gf_45"/>
</svg>