<?xml version="1.0" encoding="UTF-8" standalone="no"?>
<!DOCTYPE svg PUBLIC "-//W3C//DTD SVG 1.1//EN"
"http://www.w3.org/Graphics/SVG/1.1/DTD/svg11.dtd">
<svg viewBox="0 0 999 1376" version="1.1" xmlns="http://www.w3.org/2000/svg" xmlns:xlink="http://www.w3.org/1999/xlink">
<defs>
<clipPath id="c0_138"><path d="M32.1,1344.3V32.1H967.5V1344.3Z"/></clipPath>
<clipPath id="c1_138"><path d="M126.6,386.7V205.8H859.7V386.7Z"/></clipPath>
<clipPath id="c2_138"><path d="M176.6,544l-6.5,-2.1l-16.4,-14V470.8h72V544Z"/></clipPath>
<clipPath id="c3_138"><path d="M176.6,1029.8l-6.5,-2.2l-16.4,-13.9V956.6h72v73.2Z"/></clipPath>
<clipPath id="c4_138"><path d="M764.8,434.8V422.4h14.5v12.4Z"/></clipPath>
<clipPath id="c5_138"><path d="M88.1,886.8V705.3H318V886.8Z"/></clipPath>
<clipPath id="c6_138"><path d="M84.7,892.3v-193H322.3v193Z"/></clipPath>
<clipPath id="c7_138"><path d="M84.4,892V699H322V892Z"/></clipPath>
<clipPath id="c8_138"><path d="M185.3,724.1c-.3,-.1,3.5,-8.2,3.5,-8.2l.8,.5c0,0,-4,7.7,-4.3,7.7Z"/></clipPath>
<clipPath id="c9_138"><path d="M192.8,716.4c0,0,-6.9,-1.1,-7.6,-5.2c-.7,-3.6,1.5,-3.9,2.1,-3.9q.1,0,.1,0l8.3,-12.7l-1.4,-3.1c0,0,-.6,-1.1,.1,-2c0,-.1,.2,-.1,.3,-.1c2.1,0,12.9,5.5,12.9,5.5l.1,.2c-.3,.5,-.7,1.1,-1.4,1.6c-.6,.5,-5.1,1.2,-5.1,1.2l-8.4,18.5Z"/></clipPath>
<clipPath id="ca_138"><path d="M192.4,716c.2,-.4,.2,-1.8,0,-2.2v-1.4c-1.6,-.5,-2.9,-1.2,-3.7,-2.5c-1.1,.6,-2.1,1.2,-3.1,1.9c1.5,2.1,3.8,3.5,6.8,4.2Zm0,-3.9c2.2,-4.5,4,-9.5,6.1,-14c-.9,-.4,-1.8,-1.3,-2.6,-1.4c-2.3,4.3,-4.6,8.6,-7,12.8c.7,1.3,2,2,3.5,2.6Zm-7.3,12.1c1,-2.9,2.4,-5.5,3.5,-8.3c-2,-1.5,-3.9,-3.1,-4.4,-6.1v-1.5c0,-2.7,1.9,-3.4,4.6,-3.4c0,0,.1,0,.2,0c1.9,-3.4,4.2,-6.4,6.1,-9.7c-.5,-.9,-1.1,-2.4,-.8,-3.7c.5,1.3,1.6,1.9,2.3,2.9c-.1,.6,-.2,1.2,-.3,1.8c.6,.7,1.3,1.2,2.4,1.4c.4,-.4,.5,-1.3,1.1,-1.5c.9,.3,1.8,.7,3.1,.7c.2,.1,.5,.2,.8,.2c.4,0,.7,-.1,.9,-.2c.1,0,.2,.1,.3,.1c.2,0,.4,-.1,.6,-.2c.2,0,.3,-.1,.5,-.1c.1,0,.2,0,.3,.1c-1.3,.7,-2.2,1.8,-4.1,1.8c-.2,0,-.3,0,-.4,0c-.9,3.7,-1.9,7.3,-2.6,11.1c.5,1.1,1.5,1.7,1.2,3.2c-.4,2.7,-3.8,4.4,-7.2,4.4c-1.3,0,-2.5,-.3,-3.6,-.8c-1,2.1,-2.1,4.2,-3.3,6.1c0,-.4,.3,-.4,.3,-.8c.9,-1.8,1.9,-3.6,2.6,-5.7c-1,1.8,-1.8,3.7,-2.7,5.6c-.2,.4,-.5,.8,-.7,1.2c-.3,.4,-.3,1.2,-.7,1.4Z"/></clipPath>
<clipPath id="cb_138"><path d="M202.8,696.4c-4.8,0,-13.1,-7.3,-5.5,-8.8h1.2c.2,.1,.4,.1,.6,.1c0,0,.1,0,.1,0q.1,0,.2,0c.3,0,.6,0,.9,.1c3.1,.6,8.2,3.8,7.5,7c-.2,1.2,-1.5,1.6,-3.1,1.6h-1.8c0,0,-.1,0,-.1,0Z"/></clipPath>
<clipPath id="cc_138"><path d="M664.4,890.5V658.4H927.3V890.5Z"/></clipPath>
<clipPath id="cd_138"><path d="M667.7,889.2V660.4H929V889.2Z"/></clipPath>
<clipPath id="ce_138"><path d="M667.4,888.9V660.1H928.7V888.9Z"/></clipPath>
<clipPath id="cf_138"><path d="M796.2,677.4c-.2,-.1,3.6,-8.2,3.6,-8.2l.8,.5c0,0,-4.1,7.7,-4.4,7.7Z"/></clipPath>
<clipPath id="cg_138"><path d="M803.7,669.7c0,0,-6.8,-1.1,-7.5,-5.2c-.7,-3.6,1.5,-3.9,2,-3.9c.1,0,.2,.1,.2,.1l8.3,-12.8l-1.5,-3.1c0,0,-.6,-1.1,.2,-2c0,-.1,.1,-.1,.3,-.1c2.1,0,12.9,5.5,12.9,5.5l.1,.2c-.4,.5,-.8,1.1,-1.4,1.6c-.7,.5,-5.1,1.2,-5.1,1.2l-8.5,18.5Z"/></clipPath>
<clipPath id="ch_138"><path d="M803.3,669.4c.3,-.5,.3,-1.8,0,-2.3v-1.4c-1.5,-.5,-2.8,-1.2,-3.6,-2.5c-1.1,.6,-2.1,1.2,-3.1,1.9c1.5,2.1,3.8,3.5,6.7,4.3Zm0,-3.9c2.2,-4.6,4,-9.6,6.2,-14.1c-.9,-.4,-1.8,-1.3,-2.6,-1.4c-2.3,4.3,-4.6,8.6,-7.1,12.8c.7,1.3,2.1,2,3.5,2.7Zm-7.2,12c1,-2.9,2.4,-5.5,3.5,-8.3c-2,-1.5,-4,-3.1,-4.4,-6.1v-1.5c-.1,-2.7,1.9,-3.4,4.6,-3.4c0,0,.1,0,.2,0c1.9,-3.4,4.2,-6.4,6.1,-9.7c-.6,-.9,-1.2,-2.4,-.9,-3.7c.5,1.3,1.7,1.9,2.4,2.9c-.1,.6,-.3,1.2,-.4,1.8c.6,.7,1.4,1.2,2.4,1.4c.5,-.4,.5,-1.3,1.2,-1.5c.9,.3,1.8,.7,3.1,.7c.1,.1,.5,.2,.8,.2c.4,0,.7,-.1,.8,-.2c.1,.1,.2,.1,.3,.1c.3,0,.5,-.1,.7,-.2c.1,0,.3,-.1,.5,-.1c.1,0,.2,0,.3,.1c-1.3,.7,-2.2,1.8,-4.2,1.8c-.1,0,-.2,0,-.3,0c-.9,3.7,-1.9,7.3,-2.7,11.1c.6,1.1,1.5,1.7,1.3,3.2c-.5,2.7,-3.9,4.4,-7.2,4.4c-1.3,0,-2.5,-.3,-3.6,-.8c-1,2.1,-2.1,4.2,-3.3,6.1c0,-.4,.3,-.4,.3,-.8c.9,-1.8,1.9,-3.6,2.6,-5.6c-1,1.7,-1.8,3.7,-2.8,5.5c-.2,.4,-.4,.8,-.6,1.2c-.3,.5,-.3,1.2,-.7,1.4Z"/></clipPath>
<clipPath id="ci_138"><path d="M813.8,649.7c-4.8,0,-13.1,-7.3,-5.6,-8.7h1.3c.2,0,.4,0,.6,0c0,0,.1,0,.1,0q.1,0,.2,0c.2,0,.5,0,.9,.1c3,.6,8.2,3.8,7.5,7c-.2,1.2,-1.6,1.6,-3.1,1.6h-1.8c0,0,-.1,0,-.1,0Z"/></clipPath>
<style type="text/css"><![CDATA[
.g0_138{
fill: #FEFCF4;
}
.g1_138{
fill: #CEEDFB;
}
.g2_138{
fill: #27639D;
}
.g3_138{
fill: #231F20;
}
.g4_138{
fill: none;
stroke: #204A78;
stroke-width: 1.527;
}
.g5_138{
fill: #FFF;
}
.g6_138{
fill: none;
stroke: #6381B7;
stroke-width: 0.763;
}
.g7_138{
fill: #6381B7;
}
.g8_138{
fill: none;
stroke: #6381B7;
stroke-width: 0.381;
stroke-dasharray: 2,1;
}
.g9_138{
fill: none;
stroke: #6381B7;
stroke-width: 0.381;
}
.ga_138{
fill: #FCE8B0;
}
.gb_138{
fill: #2E6E51;
}
.gc_138{
fill: none;
stroke: #FFF;
stroke-width: 0.152;
stroke-miterlimit: 1;
}
.gd_138{
fill: #BCBEC0;
}
.ge_138{
fill: #EE314A;
}
.gf_138{
fill: #25408F;
}
.gg_138{
fill: #A8AAAD;
}
.gh_138{
fill: none;
stroke: #949698;
stroke-width: 0.549;
}
.gi_138{
fill: none;
stroke: #BCBEC0;
stroke-width: 2.566;
}
.gj_138{
fill: #363637;
}
.gk_138{
fill: #5CC4BE;
}
.gl_138{
fill: #F0D73F;
}
.gm_138{
fill: none;
stroke: #818385;
stroke-width: 0.305;
stroke-dasharray: 4,4;
}
.gn_138{
fill: none;
stroke: #818385;
stroke-width: 0.305;
}
.go_138{
fill: #F7C2D9;
}
.gp_138{
fill: #FDF4F3;
}
.gq_138{
fill: #EC008C;
}
.gr_138{
fill: #6D6F71;
}
.gs_138{
fill: none;
stroke: #949698;
stroke-width: 0.305;
stroke-dasharray: 4,4;
}
.gt_138{
fill: none;
stroke: #949698;
stroke-width: 0.305;
stroke-dasharray: 3,3;
}
.gu_138{
fill: none;
stroke: #949698;
stroke-width: 0.305;
}
.gv_138{
fill: none;
stroke: #FFF;
stroke-width: 1.909;
stroke-miterlimit: 10;
}
.gw_138{
fill: none;
stroke: #000;
stroke-width: 0.381;
stroke-miterlimit: 10;
}
]]></style>
</defs>
<path clip-path="url(#c0_138)" d="M954.5,1344.3H1877V32.1H954.5V1344.3Z" class="g0_138"/>
<path d="M32.1,1344.3H954.5V32.1H32.1V1344.3Z" class="g0_138"/>
<image clip-path="url(#c1_138)" preserveAspectRatio="none" x="126" y="206" width="733" height="181" xlink:href="img/1.png"/>
<path d="M145.7,231.3c0,0,-13,0,-13,13v117c0,0,0,13,13,13H834.3c0,0,12.9,0,12.9,-13v-130Z" class="g1_138"/>
<path d="M148.8,294.1l54.1,40.8L257,294.1V230h8.7V211.9H156.9c-6.5,.4,-7.7,3.9,-8.1,8.4h-.1Z" class="g2_138"/>
<path d="M275.1,220.3c-.3,-4.7,-4.2,-8.4,-9,-8.4c-4.8,0,-8.7,3.7,-9,8.4H257V230h18.2v-9.7Z" class="g3_138"/>
<path d="M257,230.6H847.2" class="g4_138"/>
<path d="M150.4,440.5c0,0,-18.3,0,-18.3,18.3V906.7c0,0,0,18.3,18.3,18.3H827.5c0,0,18.4,0,18.4,-18.3V440.5Z" class="g5_138"/>
<path d="M150.4,440.5c0,0,-18.3,0,-18.3,18.3V906.7c0,0,0,18.3,18.3,18.3H827.5c0,0,18.4,0,18.4,-18.3V440.5H150.4Z" class="g6_138"/>
<path d="M145.1,943.5c0,0,-13,0,-13,13v150.8c0,0,0,13,13,13H832.9c0,0,13,0,13,-13V956.5c0,0,0,-13,-13,-13Z" class="g5_138"/>
<path d="M145.1,943.5c0,0,-13,0,-13,13v150.8c0,0,0,13,13,13H832.9c0,0,13,0,13,-13V956.5c0,0,0,-13,-13,-13H145.1Z" class="g6_138"/>
<path d="M493.3,1138.6c0,0,-4.4,0,-4.4,4.3v10.8c0,0,0,4.3,4.4,4.3h30.3c0,0,4.3,0,4.3,-4.3v-10.8c0,0,0,-4.3,-4.3,-4.3Z" class="g7_138"/>
<path d="M480.1,1129.7v37.6m1.3,.9H845.1m1,-1.3v-37.6m-1.4,-.9H481" class="g8_138"/>
<path d="M480.1,1167.7v.5h.5m364.9,0h.6v-.5m0,-38.8v-.5h-.6m-364.9,0h-.5v.5" class="g9_138"/>
<path d="M209.2,499c0,0,-13,0,-13,13v21.6c0,0,0,13,13,13h602c0,0,13,0,13,-13V512c0,0,0,-13,-13,-13Z" class="ga_138"/>
<image clip-path="url(#c2_138)" preserveAspectRatio="none" x="152" y="469" width="75" height="77" xlink:href="img/2.png"/>
<path d="M204,539.3c0,0,-26.8,11.3,-51.1,-12.8c0,0,15.2,25.3,49.3,24c0,0,24.8,.3,20.3,-10.2c0,0,1.2,-4.4,-18.5,-1Z" class="ga_138"/>
<path d="M209.2,984.8c0,0,-13,0,-13,13v21.6c0,0,0,13,13,13h602c0,0,13,0,13,-13V997.8c0,0,0,-13,-13,-13Z" class="ga_138"/>
<image clip-path="url(#c3_138)" preserveAspectRatio="none" x="152" y="955" width="75" height="76" xlink:href="img/3.png"/>
<path d="M204,1025c0,0,-26.8,11.4,-51.1,-12.7c0,0,15.2,25.3,49.3,24c0,0,24.8,.3,20.3,-10.2c0,0,1.2,-4.4,-18.5,-1.1Z" class="ga_138"/>
<path d="M32.1,179.3H967.5V32.1H32.1V179.3Z" class="gb_138"/>
<path d="M259.1,134H247l1.1,1.2h4.3c.6,.4,.8,.7,.8,1c-.7,0,-1.4,.3,-1.9,.8c-.6,.5,-.9,1.1,-.9,1.8c0,.4,.2,.7,.5,.9c.3,.2,.6,.3,1,.3c.5,0,1.1,-.2,1.6,-.7c.4,-.5,.7,-1,.7,-1.6c.1,0,.2,-.1,.3,-.1c.2,0,.3,0,.5,0c.1,0,.3,.1,.5,.2c.2,.1,.4,.2,.5,.4c.2,.2,.3,.4,.4,.7c0,.2,.1,.5,.1,.7c0,.8,-.5,1.5,-1.4,2c-.8,.3,-1.6,.5,-2.5,.4c-1.3,-.1,-2.4,-.4,-3.4,-1l1.5,3c.8,.2,1.7,.5,2.6,.9c.9,.3,1.7,.7,2.5,1.2c.9,.5,1.6,1,2.3,1.5c.7,.6,1.3,1.2,1.9,1.9l-.3,-1.3c-1,-1.1,-2,-2,-3,-2.8c-.9,-.8,-1.7,-1.4,-2.6,-1.9c1.2,-.3,2.1,-.7,2.7,-1.2c.8,-.6,1.2,-1.4,1.2,-2.4c0,-1,-.3,-1.8,-1,-2.5c-.4,-.5,-1.2,-.9,-2.4,-1.3c-.1,-.2,-.2,-.3,-.3,-.5c-.1,-.1,-.3,-.2,-.4,-.4h6.4L259.1,134Zm5.2,1.2L263.1,134H262c-.3,-.4,-.6,-1,-.7,-1.9l-.5,-.3c0,.2,0,.5,.1,.9c0,.3,0,.7,0,1.2c.1,.5,.1,.9,.1,1.3c0,.3,0,.6,0,.9c-.2,-.8,-.5,-1.3,-.9,-1.6c-.4,-.3,-1,-.5,-1.7,-.5H257l1.2,1.2c.3,0,.7,.1,1,.2c.3,.1,.6,.3,.9,.5c.2,.2,.4,.4,.5,.7c.2,.3,.3,.7,.3,1v8.9l1.1,1.2V135.2h2.3Zm12.4,0L275.6,134h-13c.4,.4,.7,.7,1,.9c.2,.2,.4,.4,.5,.5c.3,.2,.6,.4,.9,.6c.3,.1,.6,.2,.9,.3c.5,.1,.9,.2,1.2,.3c.4,.1,.6,.2,.9,.4c.2,.2,.4,.4,.5,.7c.1,.4,.2,.8,.3,1.4c-.4,.5,-.8,.9,-1,1.3c-.3,.3,-.5,.5,-.7,.7c-.1,.2,-.3,.3,-.4,.4c-.1,0,-.2,0,-.2,0c-.2,0,-.3,0,-.5,-.1c-.1,-.1,-.2,-.3,-.3,-.4c-.1,-.2,-.2,-.4,-.3,-.6c0,-.2,-.1,-.3,-.1,-.5l-.8,.8c.1,.2,.3,.5,.4,.8c.2,.3,.4,.6,.6,.9c.3,.3,.5,.5,.8,.7c.3,.1,.6,.2,1,.2c.1,0,.3,0,.4,-.1c.2,0,.4,-.1,.6,-.3c.2,-.2,.4,-.5,.7,-.9c.3,-.4,.7,-.9,1.1,-1.6c.4,-.6,.8,-1,1.3,-1.1c.4,0,.7,.1,1,.4c.3,.4,.6,.9,.8,1.6c.2,.7,.3,1.6,.3,2.5v.4c0,.1,-.1,.3,-.1,.5c0,.1,0,.4,0,.7c0,.3,0,.6,0,1.1c.2,.2,.3,.4,.5,.6c.2,.3,.4,.5,.6,.7V135.2h2.2Zm-3.3,4.1c-.4,-.4,-.7,-.8,-1,-1.1c-.3,-.4,-.6,-.6,-.9,-.7c-.3,-.1,-.6,-.1,-.9,.1c-.4,.1,-.8,.4,-1.2,.8c0,-.6,-.1,-1.1,-.3,-1.6c-.3,-.5,-.7,-1,-1.4,-1.6h5.7v4.1Zm16.5,-4.1L288.7,134c-.2,0,-.3,0,-.4,0c-.5,0,-.8,-.2,-.9,-.6c-.1,-.2,-.2,-.6,-.2,-1.2l-.6,-.5c.1,1.1,.1,2.2,.2,3.2c0,1.1,.1,2.1,.1,3.2c-1.5,-2.6,-3.2,-3.9,-4.9,-3.9c-.5,0,-1,.1,-1.5,.3c-.5,.1,-1,.4,-1.5,.7c-.6,.4,-1,.8,-1.3,1.2c-.3,.4,-.5,.9,-.5,1.3c0,.2,.1,.5,.3,.7c.2,.2,.4,.3,.7,.3c.2,0,.5,-.1,.8,-.3c.2,-.1,.4,-.1,.5,-.2c.2,0,.3,0,.4,0c.5,0,.7,.4,.7,1.2c0,.5,-.4,1.1,-1.2,1.9l1.7,.6l4.2,-4.2c.1,.1,.3,.2,.4,.4c.2,.2,.4,.4,.5,.6c.2,.3,.3,.5,.4,.7c.1,.3,.1,.5,.1,.6l-.2,6.4l1.3,1.3V135.2h2.1Zm-8.6,4.2c.1,-.7,0,-1.2,-.3,-1.6c-.3,-.5,-.8,-.7,-1.4,-.7c.5,-1.1,1.5,-1.6,2.8,-1.6c.7,0,1.3,.3,1.9,.9l-3,3Zm13.1,-4.2L293.2,134h-1c-.4,-.4,-.6,-1,-.8,-1.9l-.4,-.3c0,.2,0,.5,0,.9c0,.3,0,.7,.1,1.2c0,.5,0,.9,.1,1.3c0,.3,0,.6,0,.9c-.3,-.8,-.6,-1.3,-1,-1.6c-.4,-.3,-.9,-.5,-1.7,-.5h-1.3l1.2,1.2c.3,0,.6,.1,1,.2c.3,.1,.6,.3,.8,.5c.3,.2,.5,.4,.6,.7c.1,.3,.2,.7,.2,1v8.9l1.2,1.2V135.2h2.2ZM306.9,134H292.6l1.3,1.2h14.3L306.9,134Zm-.6,5.6c-.2,-.6,-.5,-1.2,-.9,-1.7c-.4,-.5,-.9,-.9,-1.5,-1.1c-.5,-.3,-1.2,-.5,-1.8,-.5c-.8,0,-1.4,.3,-2,.7c-.6,.5,-.9,1.1,-.9,1.9c0,.6,.2,1.2,.6,1.6c.3,.5,.8,.7,1.5,.7c1.2,0,1.9,-.6,1.9,-1.7c0,-.5,-.2,-1,-.5,-1.4c.4,-.1,.6,-.2,.8,-.2c.6,0,1.2,.3,1.6,.9c.4,.6,.6,1.1,.6,1.8c0,.8,-.4,1.6,-1.1,2.3c-.8,.6,-1.6,1,-2.4,1c-1.8,0,-3.3,-.9,-4.5,-2.8c-.3,-.3,-.6,-1,-1.1,-1.8c-.4,-.9,-.8,-1.9,-1.3,-3.1l-.7,-.2c1.8,6.5,4.3,9.8,7.5,9.8c1.2,0,2.2,-.5,3.2,-1.3c.4,-.4,.7,-.8,1,-1.4c.2,-.5,.4,-1,.4,-1.6c0,-.7,-.1,-1.3,-.4,-1.9Zm6.4,-4.4L311.5,134h-1c-.4,-.4,-.6,-1,-.8,-1.9l-.4,-.3c0,.2,0,.5,0,.9c0,.3,.1,.7,.1,1.2c0,.5,.1,.9,.1,1.3c0,.3,0,.6,0,.9c-.3,-.8,-.6,-1.3,-1,-1.6c-.4,-.3,-.9,-.5,-1.7,-.5h-1.3l1.2,1.2c.3,0,.6,.1,1,.2c.3,.1,.6,.3,.8,.5c.3,.2,.5,.4,.6,.7c.1,.3,.2,.7,.2,1v8.9l1.2,1.2V135.2h2.2Zm6,-1.2h-8l1.2,1.2h4c-1.7,2,-2.5,4,-2.5,6.1c0,1.5,.3,2.8,.9,3.9c.7,1.4,1.8,2.1,3.2,2.1c.3,0,.6,0,.8,-.1c.3,-.1,.5,-.2,.7,-.4c.2,-.2,.4,-.4,.5,-.7c.1,-.2,.2,-.5,.2,-.8c0,-.4,-.2,-.9,-.5,-1.2c-.2,-.3,-.6,-.5,-1,-.5c-.4,0,-.7,.2,-1,.4c-.3,.3,-.5,.6,-.5,1c0,.2,.1,.4,.2,.7c.1,.2,.3,.4,.6,.6c-.7,.2,-1.5,-.2,-2.2,-1.3c-.5,-.7,-.7,-1.5,-.7,-2.3c0,-1,.1,-1.9,.3,-2.7c.2,-.7,.5,-1.4,.9,-2.1c.5,-.7,1.1,-1.3,1.7,-1.7c.7,-.5,1.4,-.8,2.3,-1L318.7,134Zm13.6,1.2L331.1,134H317.8l1.3,1.2h9.7v3.3c-.4,-1.3,-1.2,-2,-2.2,-2c-.3,0,-.6,.2,-1,.5c-.3,.3,-.5,.6,-.5,1c-.8,-1,-1.7,-1.6,-2.7,-1.6c-.8,0,-1.5,.4,-2,1.2c-.4,.7,-.7,1.4,-.7,2.3c0,.5,.1,1,.3,1.4c.2,.4,.4,.8,.7,1.1c.3,.3,.7,.5,1.1,.7c.4,.1,.9,.2,1.4,.2c.6,-.1,1.1,-.2,1.5,-.5c.3,-.3,.5,-.7,.5,-1.2c0,-1.1,-.6,-1.7,-1.7,-1.7c-.3,0,-.6,.1,-.9,.3c-.3,.3,-.4,.6,-.4,1c0,.2,.1,.6,.4,1c-1.2,-.2,-1.8,-.8,-1.8,-1.7c0,-.3,.1,-.6,.2,-.9c.1,-.3,.3,-.5,.5,-.7c.2,-.2,.4,-.4,.7,-.5c.3,-.1,.6,-.2,.9,-.2c.7,0,1.3,.2,1.8,.6c.5,.4,.8,1,.9,1.6l.5,-.2c0,-.3,-.1,-.5,-.1,-.7c0,-.9,.4,-1.3,1,-1.3c.5,0,.8,.2,1.1,.5c.4,.3,.5,.7,.5,1.1v6.9l1.2,1.1V135.2h2.3Zm11.1,0L342.2,134H330.4l1.2,1.2h8.2v.9c-2.5,.8,-5,2.1,-7.4,3.7l1.6,2.3c1.7,.1,3,.7,4.1,1.6c.3,.3,.6,.6,.9,1c.3,.4,.6,.8,.7,1c.2,.3,.3,.7,.6,1.3l.6,.8V135.2h2.5Zm-3.6,9.4c-1.1,-1.8,-2.7,-3.2,-4.9,-4.1c.9,-.6,1.7,-1.1,2.5,-1.5c.8,-.4,1.6,-.7,2.4,-1v6.6Zm-4.7,1.7c.2,.3,.5,.4,.8,.4c.4,0,.7,-.1,.9,-.4c.3,-.2,.4,-.5,.4,-.8c0,-.4,-.1,-.7,-.4,-.9c-.2,-.3,-.5,-.4,-.9,-.4c-.3,0,-.6,.1,-.8,.4c-.3,.2,-.4,.5,-.4,.9c0,.3,.1,.6,.4,.8Zm29,-11.1L362.9,134c-.1,0,-.3,0,-.4,0c-.4,0,-.7,-.2,-.9,-.6c-.1,-.2,-.1,-.6,-.2,-1.2l-.5,-.5c0,1.1,.1,2.2,.1,3.2c.1,1.1,.1,2.1,.2,3.2h-.1c-1.5,-2.6,-3.1,-3.9,-4.9,-3.9c-.4,0,-.9,.1,-1.4,.3c-.5,.1,-1.1,.4,-1.6,.7c-.5,.4,-1,.8,-1.3,1.2c-.3,.4,-.4,.9,-.4,1.3c0,.2,.1,.5,.3,.7c.2,.2,.4,.3,.6,.3c.2,0,.5,-.1,.9,-.3c.2,-.1,.3,-.1,.5,-.2c.1,0,.2,0,.3,0c.5,0,.8,.4,.8,1.2c0,.5,-.5,1.1,-1.3,1.9l1.7,.6l4.2,-4.2c.2,.1,.3,.2,.5,.4c.1,.2,.3,.4,.5,.6c.1,.3,.2,.5,.3,.7c.1,.3,.2,.5,.2,.6l-.2,6.4l1.3,1.3V135.2h2Zm-8.5,4.2c0,-.7,-.1,-1.2,-.4,-1.6c-.3,-.5,-.7,-.7,-1.4,-.7c.6,-1.1,1.5,-1.6,2.8,-1.6c.7,0,1.4,.3,1.9,.9l-2.9,3Zm13.1,-4.2L367.5,134h-1.1c-.4,-.4,-.6,-1,-.7,-1.9l-.5,-.3c0,.2,0,.5,0,.9c.1,.3,.1,.7,.1,1.2c.1,.5,.1,.9,.1,1.3c0,.3,0,.6,0,.9c-.2,-.8,-.5,-1.3,-.9,-1.6c-.4,-.3,-1,-.5,-1.7,-.5h-1.4l1.2,1.2c.3,0,.7,.1,1,.2c.3,.1,.6,.3,.8,.5c.3,.2,.5,.4,.6,.7c.2,.3,.2,.7,.2,1v8.9l1.2,1.2V135.2h2.3Zm5.9,-1.2h-7.9l1.2,1.2h3.9c-1.7,2,-2.5,4,-2.5,6.1c0,1.5,.3,2.8,.9,3.9c.8,1.4,1.8,2.1,3.2,2.1c.3,0,.6,0,.9,-.1c.2,-.1,.5,-.2,.7,-.4c.2,-.2,.3,-.4,.4,-.7c.1,-.2,.2,-.5,.2,-.8c0,-.4,-.1,-.9,-.4,-1.2c-.3,-.3,-.7,-.5,-1.1,-.5c-.3,0,-.7,.2,-1,.4c-.3,.3,-.4,.6,-.4,1c0,.2,0,.4,.2,.7c.1,.2,.3,.4,.5,.6c-.7,.2,-1.4,-.2,-2.2,-1.3c-.4,-.7,-.7,-1.5,-.7,-2.3c0,-1,.1,-1.9,.3,-2.7c.2,-.7,.6,-1.4,1,-2.1c.4,-.7,1,-1.3,1.6,-1.7c.7,-.5,1.5,-.8,2.4,-1L374.6,134Zm13.7,1.2L387.1,134c-.7,-.1,-1.1,-.6,-1.3,-1.5l-.7,-.6l.2,5.3c-.2,-.5,-.6,-1.2,-1.2,-2c-.8,-.8,-1.3,-1.2,-1.8,-1.2c-1.3,0,-2.3,.8,-3,2.4c-.1,-.7,-.5,-1.2,-1,-1.7c-.6,-.5,-1.2,-.7,-1.8,-.7h-2.6l1.2,1.2c.2,0,.6,0,1.4,0c.8,0,1.4,.5,2,1.5c-.3,.1,-.5,.2,-.8,.4c-.3,.2,-.5,.4,-.7,.7c-.2,.2,-.3,.5,-.4,.8c-.1,.2,-.2,.5,-.2,.8c0,.4,.2,.8,.4,1.2c.3,.3,.7,.5,1.1,.5c.9,0,1.6,-.5,2,-1.5c.1,.5,.4,.8,.7,1.1c.3,.2,.7,.4,1.1,.4c.5,-.1,.9,-.3,1.2,-.7c.3,-.3,.4,-.7,.4,-1.2c0,-.6,-.6,-1.3,-1.9,-2.2c0,-.3,.2,-.6,.5,-.7c.3,-.2,.6,-.3,.9,-.3c.5,0,1,.3,1.5,1c.6,.8,.8,1.4,.8,1.9l-.1,7.7l1.3,1.2V135.2h2Zm19.2,10.3c.8,-.6,1.2,-1.4,1.2,-2.4c0,-.9,-.3,-1.7,-.9,-2.6c1.7,-1.6,2.5,-3,2.5,-4.2c0,-.7,-.2,-1.3,-.5,-1.9c-.4,-.6,-.9,-1,-1.5,-1.4c-.2,-.1,-.6,-.3,-1.3,-.5c-.6,-.3,-1.5,-.6,-2.6,-.9c-.6,-.2,-1.2,-.5,-1.5,-.8c-.4,-.2,-.6,-.6,-.6,-.9c0,-.5,.4,-.8,1.1,-1.1l-.7,-.7c-1.1,.5,-1.6,1.3,-1.6,2.3c0,.5,.2,1,.6,1.4c.3,.5,.9,.8,1.5,1.1l4,1c1.5,.5,2.2,1.2,2.2,2.1c0,.3,0,.6,-.1,1c-.1,.3,-.2,.6,-.4,.9c-.4,.9,-.8,1.3,-1.4,1.4c.1,-.1,.2,-.2,.3,-.4c.1,-.1,.2,-.3,.3,-.5c.1,-.4,.2,-.8,.2,-1.1c0,-.7,-.3,-1.4,-.9,-1.9c-.6,-.5,-1.3,-.8,-2.1,-.8c-1.2,0,-2.3,.3,-3.3,.9c-.6,.4,-1,.8,-1.3,1.3c-.3,.5,-.4,1,-.4,1.5c0,1.3,.5,1.9,1.7,1.9c.8,0,1.2,-.4,1.2,-1.1c0,-.6,-.2,-1.1,-.7,-1.4c.7,-1.2,1.9,-1.9,3.7,-1.9c1,0,1.5,.5,1.5,1.3c0,.8,-.3,1.3,-1,1.6c-.3,-.1,-.6,-.2,-.9,-.2c-1,0,-1.5,.5,-1.5,1.5c0,1,.5,1.5,1.4,1.5c.5,0,.9,-.2,1.2,-.6c.5,.4,.8,.9,.8,1.3c0,1.4,-1,2.1,-2.9,2.2c-.8,0,-1.6,-.2,-2.4,-.8c-.8,-.5,-1.5,-1.2,-2.2,-2.2c-.3,-.5,-.7,-1.2,-1.1,-2.1c-.5,-1,-.9,-2,-1.4,-3.2l-.8,-.4c2,7.1,4.6,10.6,8,10.6c1,0,1.9,-.3,2.6,-.8Zm14.3,-10.3L420.6,134h-11c.5,.6,1,1.1,1.3,1.5c.4,.3,.7,.6,1,.7c.3,.1,.5,.2,.8,.2c.3,.1,.5,.1,.7,.2c.8,.1,1.4,.4,1.9,.8l-3.6,3c.3,.4,.6,.7,.9,1.1c.2,.4,.5,.7,.8,1c.7,.1,1.3,.2,1.8,.3c.6,.1,1,.3,1.3,.6c.3,.1,.6,.4,.9,.8c.3,.4,.7,1,1.2,1.7c.2,.3,.4,.6,.6,.9c.2,.3,.5,.6,.8,.9V135.2h1.8Zm-3,4c-1.3,-1.3,-3,-2.6,-4.9,-4h4.9v4Zm0,5.4c-1.3,-1.8,-2.8,-3,-4.5,-3.6c.5,-.6,1,-1.1,1.4,-1.4c.4,-.4,.8,-.7,1.1,-.9c.2,.2,.5,.4,.9,.7c.3,.3,.7,.6,1.1,1v4.2Zm14.4,-9.4L432,134h-2.2v1.6c-2,1.3,-3.1,1.9,-3.3,1.9c-.5,0,-1,-.1,-1.3,-.4c-.4,-.2,-.5,-.5,-.5,-.9c0,-.3,0,-.5,.2,-.7c.2,.1,.3,.2,.5,.3c.1,0,.3,.1,.4,.1c.3,0,.5,-.1,.7,-.3c.2,-.2,.3,-.4,.3,-.8c0,-.6,-.5,-1,-1.5,-1c-.6,0,-1.1,.2,-1.5,.6c-.3,.4,-.5,.8,-.5,1.4c0,.4,0,.7,.2,.9c.1,.3,.3,.5,.5,.7c.5,.4,1.2,.6,1.9,.6l-3.2,2.3l1.5,2c.6,0,1.2,.2,1.8,.3c.5,.2,1,.4,1.4,.7c.6,.5,1.3,1.2,1.9,2.1c.2,.3,.4,.6,.6,.9c.1,.3,.3,.6,.4,.8l.7,1V135.2h2.2Zm-3.4,9.5c-1,-1.7,-2.5,-3.1,-4.5,-4c.8,-.7,1.6,-1.3,2.3,-1.7c.8,-.5,1.5,-.9,2.2,-1.2v6.9Zm7.9,-9.5L436.5,134h-1.1c-.3,-.4,-.6,-1,-.7,-1.9l-.4,-.3c0,.2,0,.5,0,.9c0,.3,0,.7,.1,1.2c0,.5,0,.9,0,1.3c.1,.3,.1,.6,.1,.9c-.3,-.8,-.6,-1.3,-1,-1.6c-.4,-.3,-1,-.5,-1.7,-.5h-1.4l1.2,1.2c.4,0,.7,.1,1,.2c.4,.1,.6,.3,.9,.5c.2,.2,.4,.4,.6,.7c.1,.3,.2,.7,.2,1v8.9l1.1,1.2V135.2h2.3Zm12.6,0L449.1,134H435.8l1.3,1.2h9.7v3.3c-.4,-1.3,-1.2,-2,-2.2,-2c-.3,0,-.6,.2,-1,.5c-.3,.3,-.5,.6,-.5,1c-.8,-1,-1.7,-1.6,-2.7,-1.6c-.8,0,-1.5,.4,-2,1.2c-.4,.7,-.7,1.4,-.7,2.3c0,.5,.1,1,.3,1.4c.2,.4,.4,.8,.7,1.1c.3,.3,.7,.5,1.1,.7c.4,.1,.9,.2,1.4,.2c.7,-.1,1.1,-.2,1.5,-.5c.3,-.3,.5,-.7,.5,-1.2c0,-1.1,-.6,-1.7,-1.7,-1.7c-.3,0,-.6,.1,-.9,.3c-.3,.3,-.4,.6,-.4,1c0,.2,.1,.6,.4,1c-1.2,-.2,-1.8,-.8,-1.8,-1.7c0,-.3,.1,-.6,.2,-.9c.1,-.3,.3,-.5,.5,-.7c.2,-.2,.4,-.4,.7,-.5c.3,-.1,.6,-.2,.9,-.2c.7,0,1.3,.2,1.8,.6c.5,.4,.8,1,.9,1.6l.5,-.2c0,-.3,-.1,-.5,-.1,-.7c0,-.9,.4,-1.3,1,-1.3c.5,0,.8,.2,1.1,.5c.4,.3,.5,.7,.5,1.1v6.9l1.2,1.1V135.2h2.3Zm10.7,0L459.7,134H448.6c.6,1,1.7,1.7,3.3,2.2c.7,.2,1.3,.4,1.7,.6c.4,.2,.7,.4,.8,.6c-.5,.4,-1.1,.8,-1.7,1.4c-.6,.5,-1.3,1.1,-1.9,1.7l1.6,2.1c1.5,.1,2.6,.5,3.6,1.2c.5,.5,1.1,1.2,1.7,2.3c.5,1,1,1.6,1.3,1.8V135.2h2Zm-3.2,9.5c-1,-1.7,-2.5,-2.9,-4.5,-3.6c.5,-.5,1,-1.1,1.5,-1.6c.5,-.5,1,-.9,1.4,-1.4c-.6,-.7,-1.1,-1.3,-1.6,-1.8c-.5,-.5,-1,-.9,-1.4,-1.1h4.6v9.5Zm-4.6,2c.2,.2,.5,.3,.9,.3c.3,0,.6,-.1,.8,-.3c.3,-.3,.4,-.6,.4,-.9c0,-.3,-.1,-.6,-.4,-.9c-.2,-.2,-.5,-.3,-.8,-.3c-.4,0,-.7,.1,-.9,.3c-.2,.3,-.4,.6,-.4,.9c0,.3,.2,.6,.4,.9ZM482.3,134H467.1l1.2,1.2h11.8v8.2L478.5,142c.2,-.6,.3,-1.3,.3,-1.9c0,-.8,-.2,-1.6,-.6,-2.2c-.3,-.5,-.6,-.9,-1,-1.2c-.5,-.3,-.9,-.6,-1.3,-.7c-.4,-.1,-.7,-.2,-1,-.2c-.7,0,-1.3,.2,-2,.7c-.3,.2,-.5,.5,-.7,.8c-.1,.3,-.2,.6,-.2,.9c0,.4,.1,.7,.2,.9c.3,.5,.7,.7,1.2,.8c.6,.1,1.1,0,1.5,-.3c.2,-.2,.4,-.4,.6,-.6c.1,-.3,.2,-.5,.2,-.8c0,-.3,-.1,-.6,-.4,-1c.3,-.1,.5,-.1,.7,0c.2,0,.5,.1,.8,.3c.1,.2,.3,.4,.5,.7c.2,.3,.3,.6,.4,.9c.1,.3,.1,.5,.1,.7c0,.6,-.2,1.1,-.5,1.7c-.4,.8,-1.4,1.3,-2.8,1.3c-.5,0,-1.1,-.2,-1.6,-.5c-.6,-.3,-1.1,-.8,-1.5,-1.4c-.5,-.5,-.9,-1.2,-1.2,-2c-.4,-.8,-.6,-1.7,-.8,-2.7l-.8,-.3c.1,1,.3,2,.6,2.9c.2,.9,.5,1.7,.9,2.3c.3,.5,.7,1,1,1.5c.4,.4,.8,.8,1.2,1.1c.4,.3,.8,.6,1.2,.7c.5,.2,.9,.3,1.3,.3c.7,0,1.3,-.2,1.9,-.4c.5,-.3,1,-.7,1.3,-1.2c1.4,.9,2.4,2.4,2.9,4.5v-.1l.4,.3V135.2h2.2L482.3,134Zm5.6,1.2L486.7,134h-1.1c-.4,-.4,-.6,-1,-.7,-1.9l-.5,-.3c0,.2,0,.5,0,.9c.1,.3,.1,.7,.1,1.2c.1,.5,.1,.9,.1,1.3c0,.3,0,.6,0,.9c-.2,-.8,-.5,-1.3,-.9,-1.6c-.4,-.3,-1,-.5,-1.7,-.5h-1.4l1.2,1.2c.3,0,.7,.1,1,.2c.3,.1,.6,.3,.8,.5c.3,.2,.5,.4,.6,.7c.2,.3,.2,.7,.2,1v8.9l1.2,1.2V135.2h2.3ZM494,134h-7.9l1.2,1.2h4c-1.7,2,-2.6,4,-2.6,6.1c0,1.5,.3,2.8,.9,3.9c.8,1.4,1.9,2.1,3.3,2.1c.2,0,.5,0,.8,-.1c.2,-.1,.5,-.2,.7,-.4c.2,-.2,.3,-.4,.4,-.7c.2,-.2,.2,-.5,.2,-.8c0,-.4,-.1,-.9,-.4,-1.2c-.3,-.3,-.6,-.5,-1,-.5c-.4,0,-.7,.2,-1.1,.4c-.3,.3,-.4,.6,-.4,1c0,.2,0,.4,.2,.7c.1,.2,.3,.4,.6,.6c-.8,.2,-1.5,-.2,-2.3,-1.3c-.4,-.7,-.7,-1.5,-.7,-2.3c0,-1,.1,-1.9,.3,-2.7c.3,-.7,.6,-1.4,1,-2.1c.4,-.7,1,-1.3,1.7,-1.7c.6,-.5,1.4,-.8,2.3,-1L494,134Zm12.5,14.7c-.5,-.5,-1,-1,-1.4,-1.4c-.4,-.4,-.8,-.8,-1.1,-1c-.3,-.2,-.7,-.5,-1.2,-.8c-.5,-.3,-1.1,-.6,-1.8,-1c.6,-.3,1.1,-.6,1.5,-.8c.5,-.3,.8,-.5,1.1,-.8c.8,-.7,1.3,-1.5,1.3,-2.5c0,-.9,-.3,-1.7,-.8,-2.4c-.5,-.7,-1.3,-1.1,-2.4,-1.1c-.3,0,-.5,0,-.8,.1c-.3,0,-.5,.1,-.8,.1c-1.4,0,-2.3,-.7,-2.9,-1.9h8.7L504.8,134H493.3l1.2,1.2h1.6v5.2c0,.2,0,.5,.1,.6c.2,.2,.3,.4,.5,.5c.1,.2,.3,.3,.5,.4c.3,.1,.5,.1,.7,.1c.4,0,.8,-.1,1.2,-.3c.4,-.2,.8,-.4,1.2,-.7c1.1,-.8,1.5,-1.7,1.4,-2.6c1.2,-.2,1.9,.2,2,1.2c0,1.2,-.7,2.2,-2.1,2.9c-.5,.2,-1,.4,-1.6,.6c-.6,.1,-1.3,.2,-1.9,.2c-.3,0,-.6,-.1,-.9,-.1c-.3,-.1,-.6,-.1,-.9,-.2l1.2,2.2c1.8,.2,3.4,.6,4.9,1.3c1.6,.8,3,1.8,4.2,3.1l-.1,-.9Zm-6.6,-9.5c-.2,.3,-.4,.6,-.6,.8c-.3,.3,-.5,.5,-.8,.7c-.3,.1,-.6,.2,-.8,.2c-.3,0,-.4,-.2,-.4,-.7v-3.6c.7,.9,1.6,1.5,2.7,1.8c.1,.3,0,.5,-.1,.8Z" class="gc_138"/>
<g clip-path="url(#c0_138)">
<path d="M1877,177.2H32.1v-5.4H768.7c43.1,0,53,-37.9,115.3,-37.9h993Z" class="gd_138"/>
<path d="M1877,183.7H32.1v-9.8H768.7c43.1,0,53,-33.6,115.3,-33.6h993Z" class="ge_138"/>
</g>
<path d="M131.7,414.2v39l11.7,10.3V419.2Z" class="gf_138"/>
<path d="M131.7,414.2v39H829.5c0,0,16.8,0,16.8,-16.8V431c0,0,0,-16.8,-16.8,-16.8Z" class="g7_138"/>
<path d="M781,447.8c8.2,0,14.8,-6.5,14.8,-14.5c0,-8,-6.6,-14.5,-14.8,-14.5c-8.3,0,-14.9,6.5,-14.9,14.5c0,8,6.6,14.5,14.9,14.5Z" class="gg_138"/>
<path d="M781,447.8c8.2,0,14.8,-6.5,14.8,-14.5c0,-8,-6.6,-14.5,-14.8,-14.5c-8.3,0,-14.9,6.5,-14.9,14.5c0,8,6.6,14.5,14.9,14.5Z" class="gh_138"/>
<path d="M781,438.7c3,0,5.4,-2.4,5.4,-5.4c0,-3,-2.4,-5.3,-5.4,-5.3c-3.1,0,-5.5,2.3,-5.5,5.3c0,3,2.4,5.4,5.5,5.4Z" class="g5_138"/>
<path d="M781,438.7c3,0,5.4,-2.4,5.4,-5.4c0,-3,-2.4,-5.3,-5.4,-5.3c-3.1,0,-5.5,2.3,-5.5,5.3c0,3,2.4,5.4,5.5,5.4Z" class="gi_138"/>
<g clip-path="url(#c4_138)" opacity="0.3">
<path d="M766.4,432.5c0,0,-.1,-4.8,3.6,-8.6l7.8,6.7c0,0,-1,.9,-1.1,2.7Z" class="g5_138"/>
</g>
<path d="M785.6,433.2c0,0,-3.5,0,-3.5,3.5v8.7c0,0,0,3.4,3.5,3.4H829c0,0,3.5,0,3.5,-3.4v-8.7c0,0,0,-3.5,-3.5,-3.5Z" class="g3_138"/>
<path d="M169.5,424.3c0,-8.4,-6.7,-15.1,-15,-15.1c-8.4,0,-15.1,6.7,-15.1,15.1c0,8.3,6.8,15,15.1,15c.8,0,1.6,-.1,2.4,-.2l4.5,5.2v-6.7c4.8,-2.5,8.1,-7.5,8.1,-13.3Z" class="g5_138"/>
<path d="M161.8,445.6l-5.1,-6c-.7,.1,-1.5,.2,-2.2,.2c-8.6,0,-15.6,-7,-15.6,-15.5c0,-8.6,7,-15.5,15.6,-15.5c8.5,0,15.5,6.9,15.5,15.5c0,5.7,-3.1,10.9,-8.2,13.6Zm-4.7,-7l3.8,4.5v-5.7l.3,-.2c4.8,-2.5,7.9,-7.5,7.9,-12.9c0,-8.1,-6.6,-14.6,-14.6,-14.6c-8.1,0,-14.6,6.5,-14.6,14.6c0,8,6.5,14.6,14.6,14.6c.7,0,1.5,-.1,2.3,-.2Z" class="gj_138"/>
<path d="M147.4,423.8c.8,0,1.5,.7,1.5,1.5c0,.8,-.7,1.4,-1.5,1.4c-.7,0,-1.4,-.6,-1.4,-1.4c0,-.8,.7,-1.5,1.4,-1.5Z" class="gk_138"/>
<path d="M147.4,427.2c-1,0,-1.8,-.9,-1.8,-1.9c0,-1.1,.8,-1.9,1.8,-1.9c1.1,0,1.9,.8,1.9,1.9c0,1,-.8,1.9,-1.9,1.9m0,-2.9c-.5,0,-.9,.4,-.9,1c0,.5,.4,1,.9,1c.6,0,1,-.5,1,-1c0,-.6,-.4,-1,-1,-1Z" class="gj_138"/>
<path d="M154.5,423.8c.8,0,1.4,.7,1.4,1.5c0,.8,-.6,1.4,-1.4,1.4c-.8,0,-1.5,-.6,-1.5,-1.4c0,-.8,.7,-1.5,1.5,-1.5Z" class="gk_138"/>
<path d="M154.5,427.2c-1.1,0,-1.9,-.9,-1.9,-1.9c0,-1.1,.8,-1.9,1.9,-1.9c1,0,1.9,.8,1.9,1.9c0,1,-.9,1.9,-1.9,1.9m0,-2.9c-.6,0,-1,.4,-1,1c0,.5,.4,1,1,1c.5,0,.9,-.5,.9,-1c0,-.6,-.4,-1,-.9,-1Z" class="gj_138"/>
<path d="M161.5,423.8c.8,0,1.4,.7,1.4,1.5c0,.8,-.6,1.4,-1.4,1.4c-.8,0,-1.5,-.6,-1.5,-1.4c0,-.8,.7,-1.5,1.5,-1.5Z" class="gk_138"/>
<path d="M161.5,427.2c-1.1,0,-1.9,-.9,-1.9,-1.9c0,-1.1,.8,-1.9,1.9,-1.9c1,0,1.9,.8,1.9,1.9c0,1,-.9,1.9,-1.9,1.9m0,-2.9c-.6,0,-1,.4,-1,1c0,.5,.4,1,1,1c.5,0,1,-.5,1,-1c0,-.6,-.5,-1,-1,-1Z" class="gj_138"/>
<path d="M163.4,438.5c0,-9.7,7.9,-17.6,17.6,-17.6c9.7,0,17.6,7.9,17.6,17.6c0,9.7,-7.9,17.6,-17.6,17.6c-.9,0,-1.9,-.1,-2.8,-.2l-5.3,6.1v-7.8c-5.6,-3,-9.5,-8.9,-9.5,-15.7Z" class="gl_138"/>
<path d="M172.9,462.5c0,0,-.1,-.1,-.1,-.1c-.2,0,-.3,-.2,-.3,-.4v-7.6c-5.9,-3.1,-9.6,-9.2,-9.6,-15.9c0,-10,8.2,-18.1,18.1,-18.1c10,0,18.1,8.1,18.1,18.1c0,10,-8.1,18.1,-18.1,18.1c-.8,0,-1.7,-.1,-2.6,-.2l-5.1,5.9c-.1,.1,-.2,.2,-.4,.2M181,421.4c-9.4,0,-17.1,7.6,-17.1,17.1c0,6.5,3.5,12.3,9.2,15.2c.2,.1,.3,.3,.3,.5v6.6l4.4,-5.2c.1,-.1,.3,-.2,.5,-.2c.9,.2,1.8,.3,2.7,.3c9.5,0,17.2,-7.7,17.2,-17.2c0,-9.5,-7.7,-17.1,-17.2,-17.1Z" class="gj_138"/>
<path d="M189.2,438c.9,0,1.7,.8,1.7,1.7c0,.9,-.8,1.7,-1.7,1.7c-.9,0,-1.7,-.8,-1.7,-1.7c0,-.9,.8,-1.7,1.7,-1.7Z" class="g5_138"/>
<path d="M189.2,441.8c-1.2,0,-2.1,-.9,-2.1,-2.1c0,-1.2,.9,-2.1,2.1,-2.1c1.2,0,2.1,.9,2.1,2.1c0,1.2,-.9,2.1,-2.1,2.1m0,-3.3c-.7,0,-1.2,.5,-1.2,1.2c0,.6,.5,1.2,1.2,1.2c.7,0,1.2,-.6,1.2,-1.2c0,-.7,-.5,-1.2,-1.2,-1.2Z" class="gj_138"/>
<path d="M181,438c.9,0,1.7,.8,1.7,1.7c0,.9,-.8,1.7,-1.7,1.7c-.9,0,-1.7,-.8,-1.7,-1.7c0,-.9,.8,-1.7,1.7,-1.7Z" class="g5_138"/>
<path d="M181,441.8c-1.2,0,-2.1,-.9,-2.1,-2.1c0,-1.2,.9,-2.1,2.1,-2.1c1.2,0,2.1,.9,2.1,2.1c0,1.2,-.9,2.1,-2.1,2.1m0,-3.3c-.7,0,-1.2,.5,-1.2,1.2c0,.6,.5,1.2,1.2,1.2c.7,0,1.2,-.6,1.2,-1.2c0,-.7,-.5,-1.2,-1.2,-1.2Z" class="gj_138"/>
<path d="M172.8,438c.9,0,1.7,.8,1.7,1.7c0,.9,-.8,1.7,-1.7,1.7c-.9,0,-1.7,-.8,-1.7,-1.7c0,-.9,.8,-1.7,1.7,-1.7Z" class="g5_138"/>
<path d="M172.8,441.8c-1.2,0,-2.1,-.9,-2.1,-2.1c0,-1.2,.9,-2.1,2.1,-2.1c1.2,0,2.1,.9,2.1,2.1c0,1.2,-.9,2.1,-2.1,2.1m0,-3.3c-.7,0,-1.2,.5,-1.2,1.2c0,.6,.5,1.2,1.2,1.2c.7,0,1.2,-.6,1.2,-1.2c0,-.7,-.5,-1.2,-1.2,-1.2Z" class="gj_138"/>
<path d="M416.6,866.2c10.1,-1.2,18.1,-6.2,20.2,-12.4m-.7,-8.1C433.2,839.8,425,835.4,415,834.6m-8.3,.2c-10.1,1.2,-18,6.2,-20.1,12.4m.6,8.1c3,5.9,11.2,10.3,21.2,11.1" class="gm_138"/>
<path d="M437.2,852.1c0,-.5,.1,-1,.1,-1.6c0,-.6,-.1,-1.1,-.1,-1.7M413.3,834.5c-.5,0,-1.1,0,-1.6,0c-.6,0,-1.1,0,-1.7,0m-23.8,14.3c-.1,.6,-.1,1.1,-.1,1.7c0,.6,0,1.1,.1,1.6M410,866.5c.6,0,1.1,0,1.7,0c.5,0,1.1,0,1.6,0" class="gn_138"/>
<image clip-path="url(#c5_138)" preserveAspectRatio="none" x="88" y="706" width="230" height="181" xlink:href="img/4.png"/>
<path d="M93,716.2l4.3,164.3l214.6,-5.7l-.4,-25.2l-3.6,-139Z" class="go_138"/>
<image clip-path="url(#c6_138)" preserveAspectRatio="none" x="84" y="700" width="238" height="193" xlink:href="img/5.png"/>
<image clip-path="url(#c7_138)" preserveAspectRatio="none" x="84" y="700" width="238" height="192" xlink:href="img/6.png"/>
<path d="M89.5,722.4l14.3,163.7L285.5,870.2l30.2,-28L303.6,703.7Z" class="gp_138"/>
<path d="M285.6,870.2l30.2,-27.9l-16.9,-3.4Z" class="gq_138"/>
<path d="M238.1,861.5l-7.6,6L225,856.2Z" class="gr_138"/>
<path d="M410.9,868.9c-11.7,7.2,-46.7,26.8,-69.6,22.3M336,886.3c-.1,-2,1.6,-4.1,9.2,-4.2m.1,8.2c-6.8,2.8,-23.1,6.3,-54.3,-1.1" class="gs_138"/>
<path d="M283.6,887.3c-9.3,-2.5,-31.3,-9.4,-47.9,-21.1" class="gt_138"/>
<path d="M415,866.4c0,0,-.5,.3,-1.4,.8m-73.9,23.7c-.5,-.1,-1,-.3,-1.5,-.4c0,0,-.5,-.5,-1,-1.3m9.6,-7c.5,0,1.1,0,1.6,0c0,0,.7,.5,1.3,1.2m.7,3.3c-.2,.4,-.4,.9,-.9,1.4c0,0,-.4,.4,-1.3,.9m-58.7,-.2c-.5,-.1,-1,-.2,-1.6,-.4c0,0,-.5,-.1,-1.4,-.3m-52,-22.7c-.4,-.3,-.8,-.6,-1.2,-.9" class="gu_138"/>
<image clip-path="url(#c8_138)" x="185" y="715" width="5" height="10" xlink:href="shade/1.png"/>
<image clip-path="url(#c9_138)" x="184" y="689" width="24" height="28" xlink:href="shade/2.png"/>
<image clip-path="url(#ca_138)" x="184" y="691" width="23" height="34" xlink:href="shade/3.png"/>
<image clip-path="url(#cb_138)" x="189" y="687" width="20" height="10" xlink:href="shade/4.png"/>
<path d="M536.7,730.4c35.6,-.6,64.6,-7.8,69.7,-17.1m-.8,-7.3c-7.1,-8.8,-35.8,-15.5,-70.5,-15.9m-7.8,0c-35.7,.6,-64.7,7.9,-69.8,17.2m.8,7.3c7.1,8.8,35.8,15.5,70.5,15.9" class="gm_138"/>
<path d="M607,711.8c.2,-.5,.3,-1,.3,-1.5c0,-.5,-.1,-1.1,-.3,-1.6M533.5,690.1c-.5,0,-1,0,-1.5,0c-.6,0,-1.1,0,-1.6,0m-73.5,18.6c-.2,.5,-.3,1.1,-.3,1.6c0,.5,.1,1,.3,1.5m73.5,18.7c.5,0,1,0,1.6,0c.5,0,1,0,1.5,0" class="gn_138"/>
<image clip-path="url(#cc_138)" preserveAspectRatio="none" x="664" y="659" width="263" height="232" xlink:href="img/7.png"/>
<path d="M669.4,671.6l7.4,212.6L921,875.5L920.5,843L914.2,663.1Z" class="go_138"/>
<image clip-path="url(#cd_138)" preserveAspectRatio="none" x="668" y="661" width="261" height="229" xlink:href="img/8.png"/>
<image clip-path="url(#ce_138)" preserveAspectRatio="none" x="667" y="661" width="261" height="228" xlink:href="img/9.png"/>
<path d="M677.8,664.8l-5.6,212.6L880,882.8l37.9,-31.7l4.7,-179.9Z" class="gp_138"/>
<path d="M880.1,882.8L918,851.3l-21.1,-9.4Z" class="gq_138"/>
<path d="M533.8,687.2c14.5,-5.1,33.2,-5,40.5,-4.8m7.4,1.5c10.5,3.2,37.5,9.7,52.4,.5" class="gs_138"/>
<path d="M636.9,678.7c-.2,-2.7,-1.5,-5.3,-6.5,-3m-3.4,5.4c-.4,4.6,2.1,10.7,22.2,4.4" class="gt_138"/>
<path d="M656,682.4c9.9,-4.9,36.3,-16.2,64.3,-13" class="gs_138"/>
<path d="M529.6,688.9c.5,-.2,1,-.4,1.4,-.6m44.8,-5.8c1,0,1.5,0,1.5,0c0,0,.5,.2,1.5,.5m56.6,.5c.4,-.3,.8,-.6,1.2,-.9c0,0,.1,-.5,.2,-1.3m-7.6,-5c-.4,.2,-.7,.4,-1.1,.7c0,0,-.3,.5,-.5,1.3m22.9,6.7c.5,-.1,.9,-.2,1.4,-.4c0,0,.4,-.3,1.3,-.7m68.7,-14.3c.5,0,1,.1,1.5,.2" class="gu_138"/>
<path d="M725.8,665.8l-2.7,8.4l12.2,-.9Z" class="gr_138"/>
<image clip-path="url(#cf_138)" x="795" y="669" width="6" height="9" xlink:href="shade/5.png"/>
<image clip-path="url(#cg_138)" x="795" y="642" width="24" height="28" xlink:href="shade/6.png"/>
<image clip-path="url(#ch_138)" x="795" y="644" width="23" height="34" xlink:href="shade/7.png"/>
<image clip-path="url(#ci_138)" x="800" y="640" width="20" height="10" xlink:href="shade/8.png"/>
<path d="M32.1,45.1H9.2m958.3,0h22.9M32.1,1331.3H9.2m958.3,0h22.9M45.1,32.1V9.2m0,1335.1v22.9M954.5,32.1V9.2m0,1335.1v22.9" class="gv_138"/>
<path d="M32.1,45.1H9.2m958.3,0h22.9M32.1,1331.3H9.2m958.3,0h22.9M45.1,32.1V9.2m0,1335.1v22.9M954.5,32.1V9.2m0,1335.1v22.9" class="gw_138"/>
<path d="M27.5,32.1H0m972.1,0h27.5M27.5,1344.3H0m972.1,0h27.5M32.1,27.5V0m0,1348.9v27.5M967.5,27.5V0m0,1348.9v27.5" class="gv_138"/>
<path d="M27.5,32.1H0m972.1,0h27.5M27.5,1344.3H0m972.1,0h27.5M32.1,27.5V0m0,1348.9v27.5M967.5,27.5V0m0,1348.9v27.5" class="gw_138"/>
</svg>