<?xml version="1.0" encoding="UTF-8" standalone="no"?>
<!DOCTYPE svg PUBLIC "-//W3C//DTD SVG 1.1//EN"
"http://www.w3.org/Graphics/SVG/1.1/DTD/svg11.dtd">
<svg viewBox="0 0 999 1376" version="1.1" xmlns="http://www.w3.org/2000/svg" xmlns:xlink="http://www.w3.org/1999/xlink">
<defs>
<clipPath id="c0_199"><path d="M32.1,1344.3V32.1H967.5V1344.3Z"/></clipPath>
<clipPath id="c1_199"><path d="M211.3,1145v-96.6H316.8V1145Z"/></clipPath>
<clipPath id="c2_199"><path d="M440.5,1145v-96.6H545.9V1145Z"/></clipPath>
<clipPath id="c3_199"><path d="M325.9,1145v-96.6H431.4V1145Z"/></clipPath>
<clipPath id="c4_199"><path d="M555.1,1145v-96.6H660.5V1145Z"/></clipPath>
<clipPath id="c5_199"><path d="M223.6,564.3V482.9H330.2v81.4Z"/></clipPath>
<clipPath id="c6_199"><path d="M379.9,564.3V482.9H486.5v81.4Z"/></clipPath>
<clipPath id="c7_199"><path d="M536.6,564.3V482.9H642.3v81.4Z"/></clipPath>
<clipPath id="c8_199"><path d="M692.3,564.3V482.9H798.8v81.4Z"/></clipPath>
<clipPath id="c9_199"><path d="M223.6,699V617.6H330.2V699Z"/></clipPath>
<clipPath id="ca_199"><path d="M379.9,699V617.6H486.5V699Z"/></clipPath>
<clipPath id="cb_199"><path d="M536.6,699V617.6H643.1V699Z"/></clipPath>
<clipPath id="cc_199"><path d="M692.5,699V617.6H798.8V699Z"/></clipPath>
<clipPath id="cd_199"><path d="M223.6,836V754.6H330.2V836Z"/></clipPath>
<clipPath id="ce_199"><path d="M379.9,836V754.6H486.5V836Z"/></clipPath>
<clipPath id="cf_199"><path d="M536.6,836V754.6H643.1V836Z"/></clipPath>
<clipPath id="cg_199"><path d="M692.3,836V754.6H798.8V836Z"/></clipPath>
<clipPath id="ch_199"><path d="M224.3,427.2V345.8H330.2v81.4Z"/></clipPath>
<clipPath id="ci_199"><path d="M380.5,427.2V345.8H486.1v81.4Z"/></clipPath>
<clipPath id="cj_199"><path d="M536.6,427.2V345.8H643.1v81.4Z"/></clipPath>
<clipPath id="ck_199"><path d="M692.3,427.2V345.8H798.8v81.4Z"/></clipPath>
<clipPath id="cl_199"><path d="M199.2,328l-6.5,-2.1l-16.4,-14v-57h72V328Z"/></clipPath>
<clipPath id="cm_199"><path d="M198.6,969.2l-6.5,-2.1L175.7,953.2V896.1h72v73.1Z"/></clipPath>
<clipPath id="cn_199"><path d="M658.6,177V59h200V177Z"/></clipPath>
<style type="text/css"><![CDATA[
.g0_199{
fill: #FEFCF4;
}
.g1_199{
fill: #FFF;
}
.g2_199{
fill: none;
stroke: #6381B7;
stroke-width: 0.763;
}
.g3_199{
fill: #6381B7;
}
.g4_199{
fill: none;
stroke: #6381B7;
stroke-width: 0.381;
stroke-dasharray: 2,1;
}
.g5_199{
fill: none;
stroke: #6381B7;
stroke-width: 0.381;
}
.g6_199{
fill: none;
stroke: #949698;
stroke-width: 0.481;
}
.g7_199{
fill: #48484A;
}
.g8_199{
fill: #F0E8F3;
}
.g9_199{
fill: #766FA6;
}
.ga_199{
fill: none;
stroke: #949698;
stroke-width: 1.268;
}
.gb_199{
fill: #FCE8B0;
}
.gc_199{
fill: #2E6E51;
}
.gd_199{
fill: #BCBEC0;
}
.ge_199{
fill: #EE314A;
}
.gf_199{
fill: #25408F;
}
.gg_199{
fill: #00BAF1;
}
.gh_199{
fill: #332D2C;
}
.gi_199{
fill: #D9DFF0;
}
.gj_199{
fill: #F27C85;
}
.gk_199{
fill: #7DD3F6;
}
.gl_199{
fill: none;
stroke: #FFF;
stroke-width: 1.909;
stroke-miterlimit: 10;
}
.gm_199{
fill: none;
stroke: #000;
stroke-width: 0.381;
stroke-miterlimit: 10;
}
]]></style>
</defs>
<path clip-path="url(#c0_199)" d="M-877.3,1344.3H45.1V32.1H-877.3V1344.3Z" class="g0_199"/>
<path d="M45.1,1344.3H967.5V32.1H45.1V1344.3Z" class="g0_199"/>
<path d="M172.6,224.4c0,0,-18.4,0,-18.4,18.3V872.2c0,0,0,18.3,18.4,18.3H849.7c0,0,18.3,0,18.3,-18.3V224.4Z" class="g1_199"/>
<path d="M172.6,224.4c0,0,-18.4,0,-18.4,18.3V872.2c0,0,0,18.3,18.4,18.3H849.7c0,0,18.3,0,18.3,-18.3V224.4H172.6Z" class="g2_199"/>
<path d="M463.9,1214.8c0,0,-4.3,0,-4.3,4.4V1230c0,0,0,4.3,4.3,4.3h30.3c0,0,4.4,0,4.4,-4.3v-10.8c0,0,0,-4.4,-4.4,-4.4Z" class="g3_199"/>
<path d="M450.7,1206v37.5m1.4,1H867.7m1,-1.3v-37.6m-1.3,-1H451.7" class="g4_199"/>
<path d="M450.7,1243.9v.6h.6m416.8,0h.6v-.6m0,-38.7v-.6h-.6m-416.8,0h-.6v.6" class="g5_199"/>
<path d="M167.6,979.9c0,0,-13,0,-13,13v189.8c0,0,0,13,13,13H855.4c0,0,13,0,13,-13V992.9c0,0,0,-13,-13,-13Z" class="g1_199"/>
<path d="M167.6,979.9c0,0,-13,0,-13,13v189.8c0,0,0,13,13,13H855.4c0,0,13,0,13,-13V992.9c0,0,0,-13,-13,-13H167.6Z" class="g2_199"/>
<path d="M201.3,1082.1H857.1v-62.4H201.3v62.4Z" class="g1_199"/>
<image clip-path="url(#c1_199)" preserveAspectRatio="none" x="210" y="1047" width="108" height="99" xlink:href="img/1.jpg"/>
<path d="M211.3,1176.9H316.8v-32.3H211.3v32.3Z" class="g6_199"/>
<image clip-path="url(#c2_199)" preserveAspectRatio="none" x="439" y="1047" width="107" height="99" xlink:href="img/2.jpg"/>
<path d="M440.5,1176.9H545.9v-32.3H440.5v32.3Z" class="g6_199"/>
<image clip-path="url(#c3_199)" preserveAspectRatio="none" x="325" y="1048" width="107" height="98" xlink:href="img/3.jpg"/>
<path d="M325.9,1176.9H431.3v-32.3H325.9v32.3Z" class="g6_199"/>
<image clip-path="url(#c4_199)" preserveAspectRatio="none" x="554" y="1047" width="107" height="99" xlink:href="img/4.jpg"/>
<path d="M555.1,1176.9H660.5v-32.3H555.1v32.3Z" class="g6_199"/>
<path d="M679.1,1059.8c0,0,-4.3,0,-4.3,4.3v14.7c0,0,0,4.4,4,5.8l52.5,18.5c0,0,4.1,1.5,4.1,-2.8v-36.2c0,0,0,-4.3,-4.3,-4.3Z" class="g7_199"/>
<path d="M700.2,1046.8c0,0,-13,0,-13,13v104.8c0,0,0,13,13,13H838.5c0,0,13,0,13,-13V1059.8c0,0,0,-13,-13,-13Z" class="g8_199"/>
<path d="M679.1,1057.6c0,0,-4.3,0,-4.3,4.3v17.3c0,0,0,4.4,4.3,4.4h37.3c0,0,4.3,0,4.3,-4.4v-17.3c0,0,0,-4.3,-4.3,-4.3Z" class="g9_199"/>
<path d="M206.2,588.1H848.4V479.4H206.2V588.1Z" class="g1_199"/>
<image clip-path="url(#c5_199)" preserveAspectRatio="none" x="223" y="481" width="108" height="84" xlink:href="img/5.jpg"/>
<path d="M223.6,564.3H330.2V482.9H223.6v81.4Z" class="ga_199"/>
<image clip-path="url(#c6_199)" preserveAspectRatio="none" x="380" y="481" width="107" height="85" xlink:href="img/6.jpg"/>
<path d="M379.9,564.3H486.5V482.9H379.9v81.4Z" class="ga_199"/>
<image clip-path="url(#c7_199)" preserveAspectRatio="none" x="536" y="481" width="106" height="85" xlink:href="img/7.jpg"/>
<path d="M536.6,564.3H643.1V482.9H536.6v81.4Z" class="ga_199"/>
<image clip-path="url(#c8_199)" preserveAspectRatio="none" x="691" y="481" width="108" height="84" xlink:href="img/8.jpg"/>
<path d="M692.3,564.3H798.8V482.9H692.3v81.4Z" class="ga_199"/>
<path d="M194.5,607.2H822.4v-39H194.5v39Z" class="g1_199"/>
<path d="M206.2,700.3H844.1V612.8H206.2v87.5Z" class="g1_199"/>
<image clip-path="url(#c9_199)" preserveAspectRatio="none" x="223" y="616" width="108" height="84" xlink:href="img/9.jpg"/>
<path d="M223.6,699H330.2V617.6H223.6V699Z" class="ga_199"/>
<image clip-path="url(#ca_199)" preserveAspectRatio="none" x="379" y="616" width="108" height="84" xlink:href="img/10.jpg"/>
<path d="M379.9,699H486.5V617.6H379.9V699Z" class="ga_199"/>
<image clip-path="url(#cb_199)" preserveAspectRatio="none" x="536" y="616" width="108" height="84" xlink:href="img/11.jpg"/>
<path d="M536.6,699H643.1V617.6H536.6V699Z" class="ga_199"/>
<image clip-path="url(#cc_199)" preserveAspectRatio="none" x="692" y="616" width="108" height="84" xlink:href="img/12.jpg"/>
<path d="M692.3,699H798.8V617.6H692.3V699Z" class="ga_199"/>
<path d="M194.5,742.8H822.4v-39H194.5v39Z" class="g1_199"/>
<path d="M206.2,841.9H848.4V748.8H206.2v93.1Z" class="g1_199"/>
<image clip-path="url(#cd_199)" preserveAspectRatio="none" x="222" y="753" width="109" height="84" xlink:href="img/13.jpg"/>
<path d="M223.6,836H330.2V754.6H223.6V836Z" class="ga_199"/>
<image clip-path="url(#ce_199)" preserveAspectRatio="none" x="379" y="753" width="109" height="84" xlink:href="img/14.jpg"/>
<path d="M379.9,836H486.5V754.6H379.9V836Z" class="ga_199"/>
<image clip-path="url(#cf_199)" preserveAspectRatio="none" x="536" y="753" width="108" height="84" xlink:href="img/15.jpg"/>
<path d="M536.6,836H643.1V754.6H536.6V836Z" class="ga_199"/>
<image clip-path="url(#cg_199)" preserveAspectRatio="none" x="691" y="753" width="109" height="84" xlink:href="img/16.jpg"/>
<path d="M692.3,836H798.8V754.6H692.3V836Z" class="ga_199"/>
<path d="M194.5,880H822.4V841.1H194.5V880Z" class="g1_199"/>
<image clip-path="url(#ch_199)" preserveAspectRatio="none" x="224" y="344" width="107" height="84" xlink:href="img/17.jpg"/>
<path d="M223.6,427.2H330.2V345.8H223.6v81.4Z" class="ga_199"/>
<image clip-path="url(#ci_199)" preserveAspectRatio="none" x="380" y="345" width="106" height="83" xlink:href="img/18.jpg"/>
<path d="M379.9,427.2H486.5V345.8H379.9v81.4Z" class="ga_199"/>
<image clip-path="url(#cj_199)" preserveAspectRatio="none" x="536" y="344" width="108" height="84" xlink:href="img/19.jpg"/>
<path d="M536.6,427.2H643.1V345.8H536.6v81.4Z" class="ga_199"/>
<image clip-path="url(#ck_199)" preserveAspectRatio="none" x="691" y="344" width="109" height="84" xlink:href="img/20.jpg"/>
<path d="M692.3,427.2H798.8V345.8H692.3v81.4Z" class="ga_199"/>
<path d="M194.5,470.8H822.4v-39H194.5v39Z" class="g1_199"/>
<path d="M231.8,283c0,0,-13,0,-13,13v21.7c0,0,0,12.9,13,12.9h602c0,0,13,0,13,-12.9V296c0,0,0,-13,-13,-13Z" class="gb_199"/>
<image clip-path="url(#cl_199)" preserveAspectRatio="none" x="175" y="253" width="75" height="77" xlink:href="img/21.png"/>
<path d="M226.6,323.3c0,0,-26.9,11.3,-51.1,-12.8c0,0,15.1,25.3,49.3,24c0,0,24.7,.3,20.2,-10.1c0,0,1.2,-4.5,-18.4,-1.1Z" class="gb_199"/>
<path d="M231.2,924.2c0,0,-12.9,0,-12.9,13v21.7c0,0,0,13,12.9,13H833.3c0,0,13,0,13,-13V937.2c0,0,0,-13,-13,-13Z" class="gb_199"/>
<image clip-path="url(#cm_199)" preserveAspectRatio="none" x="174" y="894" width="75" height="77" xlink:href="img/22.png"/>
<path d="M226,964.5c0,0,-26.8,11.3,-51.1,-12.8c0,0,15.2,25.4,49.3,24c0,0,24.8,.3,20.3,-10.1c0,0,1.2,-4.5,-18.5,-1.1Z" class="gb_199"/>
<path d="M32.1,179.3H967.5V32.1H32.1V179.3Z" class="gc_199"/>
<g clip-path="url(#c0_199)">
<path d="M967.5,177.2H-877.3v-5.4h736.6c43.1,0,53.1,-37.9,115.3,-37.9H967.5Z" class="gd_199"/>
<path d="M967.5,183.7H-877.3v-9.8h736.6c43.1,0,53.1,-33.6,115.3,-33.6H967.5Z" class="ge_199"/>
</g>
<image clip-path="url(#cn_199)" preserveAspectRatio="none" x="659" y="59" width="200" height="118" xlink:href="img/23.png"/>
<path d="M153.3,217.5v22.2L165,250V227.8Z" class="gf_199"/>
<path d="M153.3,200.7v39H851.1c0,0,16.8,0,16.8,-16.8v-5.4c0,0,0,-16.8,-16.8,-16.8Z" class="g3_199"/>
<path d="M211.3,212.1l-6.5,-6.4l-21.2,21.2l6.5,6.4Z" class="gg_199"/>
<path d="M190.1,233.9c.1,0,.3,-.1,.4,-.2l21.2,-21.2c.1,-.1,.1,-.2,.1,-.4c0,-.1,0,-.2,-.1,-.3l-6.5,-6.5c-.2,-.2,-.6,-.2,-.8,0l-21.2,21.2c-.1,.1,-.1,.2,-.1,.4c0,.1,0,.2,.1,.3l6.5,6.5c.1,.1,.3,.2,.4,.2m20.5,-21.8l-20.5,20.5l-5.8,-5.7l20.5,-20.5Z" class="gh_199"/>
<path d="M211.3,212.1l-6.5,-6.4l2.1,-2.2l6.5,6.5Z" class="gi_199"/>
<path d="M211.3,212.7c.1,0,.3,-.1,.4,-.2l2.1,-2.1c.1,-.1,.2,-.2,.2,-.4c0,-.1,-.1,-.3,-.2,-.4l-6.5,-6.4c-.2,-.3,-.5,-.3,-.7,0l-2.2,2.1c-.1,.1,-.1,.2,-.1,.4c0,.1,0,.2,.1,.3l6.5,6.5c.1,.1,.3,.2,.4,.2m1.4,-2.7l-1.4,1.4l-5.7,-5.7l1.3,-1.4Z" class="gh_199"/>
<path d="M217,206.4l-6.4,-6.5l-3.7,3.6l6.5,6.5Z" class="gj_199"/>
<path d="M213.4,210.5c.2,0,.3,0,.4,-.1l3.6,-3.6c.2,-.2,.2,-.6,0,-.8l-6.5,-6.5c-.2,-.2,-.5,-.2,-.7,0l-3.6,3.7c-.2,.2,-.2,.5,0,.7l6.5,6.5c.1,.1,.2,.1,.3,.1m2.9,-4.1l-2.9,2.9l-5.7,-5.8l2.9,-2.8Z" class="gh_199"/>
<path d="M179,238l4.6,-11.1l6.5,6.4Z" class="g1_199"/>
<path d="M179,238.5c0,0,.1,0,.2,0l11.1,-4.7c.2,0,.3,-.2,.3,-.4c0,-.1,0,-.3,-.1,-.4L184,226.5c-.1,-.1,-.3,-.2,-.5,-.1c-.2,0,-.3,.1,-.4,.3l-4.6,11.1c-.1,.2,0,.4,.1,.6c.1,.1,.2,.1,.4,.1m10.2,-5.3l-9.3,3.8l3.9,-9.2Z" class="gh_199"/>
<path d="M179,238l2.2,-5.4l3.1,3.1Z" class="gh_199"/>
<path d="M179,238.5c0,0,.1,0,.2,0l5.3,-2.3c.2,0,.3,-.2,.4,-.4c0,-.1,-.1,-.3,-.2,-.4l-3.1,-3.2c-.1,-.1,-.3,-.1,-.5,-.1c-.2,0,-.3,.2,-.4,.3l-2.2,5.4c-.1,.2,0,.4,.1,.6c.1,.1,.2,.1,.4,.1m4.4,-2.9l-3.5,1.4l1.5,-3.5Z" class="gh_199"/>
<path d="M209.5,210.4l-2.9,-3l-21.2,21.2l2.9,3Z" class="gk_199"/>
<path d="M188.3,232.1c.2,0,.3,0,.4,-.1l21.2,-21.2c.1,-.1,.2,-.3,.2,-.4c0,-.2,-.1,-.3,-.2,-.4l-3,-3c-.2,-.2,-.5,-.2,-.7,0L185,228.3c-.1,.1,-.2,.2,-.2,.3c0,.2,.1,.3,.2,.4l3,3c.1,.1,.2,.1,.3,.1m20.5,-21.7l-20.5,20.4l-2.2,-2.2l20.5,-20.4Z" class="gh_199"/>
<path d="M32.1,45.1H9.2m958.3,0h22.9M32.1,1331.3H9.2m958.3,0h22.9M45.1,32.1V9.2m0,1335.1v22.9M954.5,32.1V9.2m0,1335.1v22.9" class="gl_199"/>
<path d="M32.1,45.1H9.2m958.3,0h22.9M32.1,1331.3H9.2m958.3,0h22.9M45.1,32.1V9.2m0,1335.1v22.9M954.5,32.1V9.2m0,1335.1v22.9" class="gm_199"/>
<path d="M27.5,32.1H0m972.1,0h27.5M27.5,1344.3H0m972.1,0h27.5M32.1,27.5V0m0,1348.9v27.5M967.5,27.5V0m0,1348.9v27.5" class="gl_199"/>
<path d="M27.5,32.1H0m972.1,0h27.5M27.5,1344.3H0m972.1,0h27.5M32.1,27.5V0m0,1348.9v27.5M967.5,27.5V0m0,1348.9v27.5" class="gm_199"/>
</svg>