<?xml version="1.0" encoding="UTF-8" standalone="no"?>
<!DOCTYPE svg PUBLIC "-//W3C//DTD SVG 1.1//EN"
"http://www.w3.org/Graphics/SVG/1.1/DTD/svg11.dtd">
<svg viewBox="0 0 999 1376" version="1.1" xmlns="http://www.w3.org/2000/svg" xmlns:xlink="http://www.w3.org/1999/xlink">
<defs>
<clipPath id="c0_344"><path d="M32.1,1344.3V32.1H967.5V1344.3Z"/></clipPath>
<clipPath id="c1_344"><path d="M179.3,746.1L172.8,744L156.4,730.1V673h72v73.1Z"/></clipPath>
<clipPath id="c2_344"><path d="M178.4,137.2c.1,-1.3,.7,-2.5,1.6,-3.4c1,-1,2.4,-1.6,3.9,-1.6h19.2v5Z"/></clipPath>
<clipPath id="c3_344"><path d="M177.9,137.7v-6h25.7v6Z"/></clipPath>
<style type="text/css"><![CDATA[
.g0_344{
fill: #FEFCF4;
}
.g1_344{
fill: #DCE9F3;
}
.g2_344{
fill: #9BD1EA;
}
.g3_344{
fill: #FFF;
}
.g4_344{
fill: none;
stroke: #58595B;
stroke-width: 0.381;
stroke-miterlimit: 10;
}
.g5_344{
fill: none;
stroke: #6381B7;
stroke-width: 0.763;
}
.g6_344{
fill: #6381B7;
}
.g7_344{
fill: none;
stroke: #6381B7;
stroke-width: 0.381;
stroke-dasharray: 2,1;
}
.g8_344{
fill: none;
stroke: #6381B7;
stroke-width: 0.381;
}
.g9_344{
fill: #FCE8B0;
}
.ga_344{
fill: #F0E8F3;
}
.gb_344{
fill: none;
stroke: #231F20;
stroke-width: 0.305;
stroke-miterlimit: 10;
}
.gc_344{
fill: #25408F;
}
.gd_344{
fill: none;
stroke: #231F20;
stroke-width: 1.527;
}
.ge_344{
fill: #39B4D1;
stroke: #2D2A4A;
stroke-width: 1.038;
stroke-linecap: round;
stroke-linejoin: round;
}
.gf_344{
fill: #2D2A4A;
}
.gg_344{
fill: none;
stroke: #2D2A4A;
stroke-width: 1.038;
stroke-linecap: round;
stroke-linejoin: round;
}
.gh_344{
fill: #DEDAD3;
}
.gi_344{
fill: #29263F;
}
.gj_344{
fill: #E15F46;
stroke: #2D2A4A;
stroke-width: 1.038;
stroke-linecap: round;
stroke-linejoin: round;
}
.gk_344{
fill: #F7F8E9;
}
.gl_344{
fill: none;
stroke: #BFD62F;
stroke-width: 1.527;
stroke-linecap: round;
stroke-linejoin: round;
stroke-dasharray: 0,5;
}
.gm_344{
fill: none;
stroke: #BFD62F;
stroke-width: 1.527;
stroke-linecap: round;
stroke-linejoin: round;
}
.gn_344{
fill: #BFD62F;
}
.go_344{
fill: #D1232A;
}
.gp_344{
fill: #233D4A;
}
.gq_344{
fill: #FFE293;
}
.gr_344{
fill: #F89C47;
}
.gs_344{
fill: #F3F8FC;
}
.gt_344{
fill: none;
stroke: #8BBEE7;
stroke-width: 1.527;
stroke-linecap: round;
stroke-linejoin: round;
stroke-dasharray: 0,5;
}
.gu_344{
fill: none;
stroke: #8BBEE7;
stroke-width: 1.527;
stroke-linecap: round;
stroke-linejoin: round;
}
.gv_344{
fill: #7CA7D8;
}
.gw_344{
fill: #3D3B39;
}
.gx_344{
fill: #F5CA58;
}
.gy_344{
fill: none;
stroke: #FFF;
stroke-width: 1.909;
stroke-miterlimit: 10;
}
.gz_344{
fill: none;
stroke: #000;
stroke-width: 0.381;
stroke-miterlimit: 10;
}
]]></style>
</defs>
<path clip-path="url(#c0_344)" d="M954.5,1344.3H1877V32.1H954.5V1344.3Z" class="g0_344"/>
<path d="M149,166.3c0,0,-17.3,0,-17.3,17.4V399.4c0,0,0,17.4,17.3,17.4H828.9c0,0,17.4,0,17.4,-17.4V183.7c0,0,0,-17.4,-17.4,-17.4Z" class="g1_344"/>
<path d="M272.4,213.5H445.6v30.1H272.4V213.5Zm173.2,0H705.5v30.1H445.6V213.5Z" class="g2_344"/>
<path d="M272.4,243.6H445.6v53.5H272.4V243.6Zm173.2,0H705.5v53.5H445.6V243.6Z" class="g3_344"/>
<path d="M272.4,213.5H445.6m0,0H705.5M445.6,243.4V213.7M272.4,243.6H445.6m0,0H705.5M445.6,297V243.8M272.4,297.1H445.6m0,0H705.5" class="g4_344"/>
<path d="M145.1,761.1c0,0,-13,0,-13,13v245c0,0,0,13,13,13h688c0,0,13,0,13,-13v-245c0,0,0,-13,-13,-13Z" class="g3_344"/>
<path d="M145.1,761.1c0,0,-13,0,-13,13v245c0,0,0,13,13,13h688c0,0,13,0,13,-13v-245c0,0,0,-13,-13,-13h-688Z" class="g5_344"/>
<path d="M716.7,1047.1c0,0,-4.3,0,-4.3,4.3v10.8c0,0,0,4.4,4.3,4.4H747c0,0,4.4,0,4.4,-4.4v-10.8c0,0,0,-4.3,-4.4,-4.3Z" class="g6_344"/>
<path d="M703.5,1038.2v37.6m1.4,.9H845.1m1,-1.3v-37.5m-1.4,-1H704.5" class="g7_344"/>
<path d="M703.5,1076.2v.5h.6m141.4,0h.6v-.5m0,-38.7v-.6h-.6m-141.4,0h-.6v.6" class="g8_344"/>
<path d="M211.9,701.1c0,0,-13,0,-13,13v21.7c0,0,0,13,13,13H833.5c0,0,13,0,13,-13V714.1c0,0,0,-13,-13,-13Z" class="g9_344"/>
<image clip-path="url(#c1_344)" preserveAspectRatio="none" x="155" y="671" width="75" height="77" xlink:href="img/1.png"/>
<path d="M206.7,741.4c0,0,-26.9,11.3,-51.1,-12.7c0,0,15.2,25.3,49.3,23.9c0,0,24.7,.4,20.2,-10.1c0,0,1.3,-4.5,-18.4,-1.1Z" class="g9_344"/>
<path d="M198.4,810.6c0,0,-4.3,0,-4.3,4.4v56.3c0,0,0,4.3,4.3,4.3H796c0,0,4.3,0,4.3,-4.3V815c0,0,0,-4.4,-4.3,-4.4Z" class="ga_344"/>
<path d="M224.8,866.9H447.3" class="gb_344"/>
<path d="M198.4,920.8c0,0,-4.3,0,-4.3,4.4v56.3c0,0,0,4.3,4.3,4.3H796c0,0,4.3,0,4.3,-4.3V925.2c0,0,0,-4.4,-4.3,-4.4Z" class="ga_344"/>
<path d="M224.8,977.1H447.3" class="gb_344"/>
<path d="M131.7,109.5v39l11.7,10.2V136.5Z" class="gc_344"/>
<path d="M131.7,109.5v39H829.5c0,0,16.8,0,16.8,-16.8v-5.4c0,0,0,-16.8,-16.8,-16.8Z" class="g6_344"/>
<path d="M768.8,131c0,0,-.5,-10,8.6,-9.4c0,0,6.7,-.3,6.6,9.5m-15.3,-1.5v6.5c0,0,-3.3,.3,-3.9,-3c0,0,-.1,-3.8,3.9,-3.5Zm15.4,0v6.5c0,0,3.3,.3,3.9,-3c0,0,.1,-3.8,-3.9,-3.5Z" class="gd_344"/>
<path d="M147.4,140.8h61v-32h-61v32Z" class="ge_344"/>
<path d="M147.4,143.1h61v-2.3h-61v2.3Z" class="ge_344"/>
<path d="M171.8,106.2H152.1v31.5h25.8V112.3c0,-3.4,-2.7,-6.1,-6.1,-6.1Z" class="g3_344"/>
<path d="M171.8,106.2v-.5H152.1c-.1,0,-.3,.1,-.4,.2c-.1,.1,-.1,.2,-.1,.3v31.5c0,.1,0,.3,.1,.4c.1,.1,.3,.1,.4,.1h25.8c.1,0,.2,0,.3,-.1c.1,-.1,.2,-.3,.2,-.4V112.3c0,-3.7,-2.9,-6.6,-6.6,-6.6v1c1.6,0,2.9,.7,3.9,1.7c1,1,1.6,2.3,1.6,3.9v24.9H152.6V106.7h19.2Z" class="gf_344"/>
<path d="M152.1,131.7v6h25.8c0,-3.3,-2.7,-6,-6.1,-6Z" class="g3_344"/>
<path d="M152.1,131.7h-.5v6c0,.1,0,.3,.1,.4c.1,.1,.3,.1,.4,.1h25.8c.1,0,.2,0,.3,-.1c.1,-.1,.2,-.3,.2,-.4c0,-3.6,-3,-6.6,-6.6,-6.6H152.1c-.1,0,-.3,.1,-.4,.2c-.1,.1,-.1,.2,-.1,.4h.5v.5h19.7c1.6,0,2.9,.6,3.9,1.6c1,1,1.6,2.4,1.6,3.9h.6v-.5H152.6v-5.5h-.5v.5Z" class="gf_344"/>
<path d="M155.6,110.9h17.2m-17.2,2.8h17.2m-17.2,2.9h17.2m-17.2,2.9h17.2m-17.2,2.8h17.2m-17.2,2.9h17.2M155.6,128h17.2" class="gg_344"/>
<path d="M171.8,132.2H152.6v5h24.7c-.1,-1.3,-.7,-2.5,-1.6,-3.4c-1,-1,-2.3,-1.6,-3.9,-1.6Z" class="gh_344"/>
<path d="M152.6,132.2h19.2c1.6,0,2.9,.6,3.9,1.6c.9,.9,1.5,2.1,1.6,3.4H152.6Zm19.2,-.5H152.1v6h25.2v-2.5c-.9,-2.1,-3,-3.5,-5.5,-3.5Z" class="gi_344"/>
<path d="M183.9,106.2h19.7v31.5H177.9V112.3c0,-3.4,2.7,-6.1,6,-6.1Z" class="g3_344"/>
<path d="M183.9,106.2v.5h19.2v30.5H178.4V112.3c0,-1.6,.6,-2.9,1.6,-3.9c1,-1,2.4,-1.7,3.9,-1.7v-1c-3.6,0,-6.6,2.9,-6.6,6.6v25.4c0,.1,.1,.3,.2,.4c.1,.1,.2,.1,.4,.1h25.7c.2,0,.3,0,.4,-.1c.1,-.1,.1,-.3,.1,-.4V106.2c0,-.1,0,-.2,-.1,-.3c-.1,-.1,-.2,-.2,-.4,-.2H183.9Z" class="gf_344"/>
<path d="M203.6,131.7v6H177.9c0,-3.3,2.7,-6,6,-6Z" class="g3_344"/>
<path d="M203.6,131.7h-.5v5.5H177.9v.5h.5c0,-1.5,.6,-2.9,1.6,-3.9c1,-1,2.4,-1.6,3.9,-1.6h19.7v-.5h-.5h.5v-.6H183.9c-3.6,0,-6.6,3,-6.6,6.6c0,.1,.1,.3,.2,.4c.1,.1,.2,.1,.4,.1h25.7c.2,0,.3,0,.4,-.1c.1,-.1,.1,-.3,.1,-.4v-6c0,-.2,0,-.3,-.1,-.4c-.1,-.1,-.2,-.2,-.4,-.2Z" class="gf_344"/>
<path d="M200.1,110.9H182.9m17.2,2.8H182.9m17.2,2.9H182.9m17.2,2.9H182.9m17.2,2.8H182.9m17.2,2.9H182.9m17.2,2.8H182.9" class="gg_344"/>
<path clip-path="url(#c2_344)" d="M178.4,137.2h24.7v-5H178.4v5Z" class="gh_344"/>
<path clip-path="url(#c3_344)" d="M178.4,137.2c.1,-1.3,.7,-2.5,1.6,-3.4c1,-1,2.4,-1.6,3.9,-1.6h19.2v5Zm25.2,-5.5H183.9c-3.3,0,-6,2.7,-6,6h25.7v-6h-.5h.5Z" class="gi_344"/>
<path d="M177.9,108.8v34.3" class="gg_344"/>
<path d="M195.5,145.5h3.3V134.7h-3.3v10.8Z" class="gj_344"/>
<path d="M132.5,657.5h713V485.8h-713V657.5Z" class="gk_344"/>
<path d="M132.5,490.5V655.2m4.5,2.3H843.2m2.3,-4.6V488.2m-4.6,-2.4H134.7" class="gl_344"/>
<path d="M132.5,657.5v0m713,0v0m0,-171.7v0m-713,0v0" class="gm_344"/>
<path d="M131.7,489.1V460.5c0,0,0,-8.7,8.6,-8.7H837.6c0,0,8.7,0,8.7,8.7v29.1Z" class="gn_344"/>
<path d="M153.3,512.6c0,0,4.8,5.5,6.1,12.3c0,0,6.7,-11.3,11.7,-13.9c0,0,-9.3,4.9,-11.1,8.2c0,0,-1.9,-4.3,-6.7,-6.6Z" class="go_344"/>
<path d="M161.8,480.7l2.9,3l8.2,-8.2l-3,-2.9Z" class="g3_344"/>
<path d="M164.7,484.6v0c.3,0,.6,-.1,.7,-.2l8.2,-8.2c.2,-.2,.3,-.4,.3,-.7c0,-.2,-.1,-.5,-.3,-.7l-3,-2.9c-.4,-.4,-1,-.4,-1.4,0l-8.1,8.1c-.4,.4,-.4,1,0,1.4l2.9,3c.2,.1,.5,.2,.7,.2m6.8,-9.1l-6.8,6.8l-1.5,-1.6l6.7,-6.7Z" class="gp_344"/>
<path d="M168.3,453.7c-6.5,6.6,-6.5,17.2,0,23.7c6.6,6.5,17.2,6.5,23.7,0c6.5,-6.5,6.5,-17.1,0,-23.7c-6.5,-6.5,-17.1,-6.5,-23.7,0Z" class="gq_344"/>
<path d="M180.2,483.3c4.7,0,9.2,-1.9,12.5,-5.2c6.9,-6.9,6.9,-18.2,0,-25.1c-3.3,-3.3,-7.8,-5.2,-12.5,-5.2c-4.8,0,-9.2,1.9,-12.6,5.2c-6.9,6.9,-6.9,18.2,0,25.1c3.4,3.3,7.8,5.2,12.6,5.2m0,-33.5c4.2,0,8.1,1.6,11.1,4.6c6.2,6.2,6.2,16.2,0,22.3c-3,3,-6.9,4.6,-11.1,4.6c-4.2,0,-8.2,-1.6,-11.2,-4.6c-6.1,-6.1,-6.1,-16.1,0,-22.3c3,-3,7,-4.6,11.2,-4.6Z" class="gp_344"/>
<path d="M154.3,485.9l5.3,5.2l8.1,-8.2l-5.2,-5.2Z" class="gr_344"/>
<path d="M159.6,492.1c.2,0,.5,-.1,.7,-.3l8.1,-8.2c.2,-.2,.3,-.4,.3,-.7c0,-.2,-.1,-.5,-.3,-.7L163.2,477c-.4,-.4,-1,-.4,-1.4,0l-8.2,8.2c-.4,.4,-.4,1,0,1.4l5.3,5.2c.2,.2,.4,.3,.7,.3m6.7,-9.2l-6.7,6.8l-3.9,-3.8l6.8,-6.8Z" class="gp_344"/>
<path d="M168.1,465.7c0,6.6,5.4,11.9,12,11.9c6.6,0,11.9,-5.3,11.9,-11.9c0,-6.6,-5.3,-12,-11.9,-12c-6.6,0,-12,5.4,-12,12Z" class="g3_344"/>
<path d="M180.1,478.4c7,0,12.7,-5.7,12.7,-12.7c0,-7.1,-5.7,-12.8,-12.7,-12.8c-7.1,0,-12.8,5.7,-12.8,12.8c0,7,5.7,12.7,12.8,12.7m0,-23.9c6.1,0,11.1,5,11.1,11.2c0,6.1,-5,11.1,-11.1,11.1c-6.2,0,-11.2,-5,-11.2,-11.1c0,-6.2,5,-11.2,11.2,-11.2Z" class="gp_344"/>
<path d="M132.5,1243.9h713V1121h-713v122.9Z" class="gs_344"/>
<path d="M132.5,1125.6v116m4.5,2.3H843.2m2.3,-4.5V1123.3m-4.6,-2.3H134.7" class="gt_344"/>
<path d="M132.5,1243.9v0m713,0v0m0,-122.9v0m-713,0v0" class="gu_344"/>
<path d="M131.7,1124.3v-28.7c0,0,0,-8.6,8.6,-8.6H837.6c0,0,8.7,0,8.7,8.6v29.2Z" class="gv_344"/>
<path d="M173.8,1091.1c3.4,0,6.1,-2.8,6.1,-6.1c0,-3.4,-2.7,-6.1,-6.1,-6.1c-3.3,0,-6,2.7,-6,6.1c0,3.3,2.7,6.1,6,6.1Z" class="gn_344"/>
<path d="M173.8,1093c4.5,0,8.1,-3.6,8.1,-8c0,-4.5,-3.6,-8.1,-8.1,-8.1c-4.4,0,-8,3.6,-8,8.1c0,4.4,3.6,8,8,8m0,-14.1c3.4,0,6.1,2.7,6.1,6.1c0,3.3,-2.7,6.1,-6.1,6.1c-3.3,0,-6,-2.8,-6,-6.1c0,-3.4,2.7,-6.1,6,-6.1Z" class="gw_344"/>
<path d="M159.2,1107.1h29.3v-3.8c0,-4.4,-3.6,-8,-8,-8H167.2c-4.4,0,-8,3.6,-8,8Z" class="gn_344"/>
<path d="M150.9,1112.4h45.9V1109H150.9v3.4Z" class="g3_344"/>
<path d="M197.7,1107.1h-2.6v-11.6c0,-.2,-.1,-.5,-.3,-.6l-2.6,-2.6c.3,-.6,.5,-1.2,.5,-1.8c0,-2,-1.6,-3.6,-3.6,-3.6c-2,0,-3.7,1.6,-3.7,3.6c0,2,1.7,3.6,3.7,3.6c.6,0,1.2,-.2,1.7,-.5l2.4,2.3v11.2h-2.8v-3.8c0,-5.5,-4.4,-9.9,-9.9,-9.9H167.2c-5.5,0,-9.9,4.4,-9.9,9.9v3.8H150c-.6,0,-1,.4,-1,.9v5.4c0,.5,.4,.9,1,.9h2.6v11.3c0,.6,.5,1,1,1h40.5c.5,0,1,-.4,1,-1v-11.3h2.6c.6,0,1,-.4,1,-.9V1108c0,-.5,-.4,-.9,-1,-.9m-8.6,-14.9c-1,0,-1.7,-.8,-1.7,-1.7c0,-.9,.7,-1.7,1.7,-1.7c.9,0,1.6,.8,1.6,1.7c0,.9,-.7,1.7,-1.6,1.7m7.7,20.2H150.9V1109h45.9Zm-3.7,12.3H154.6v-10.4h38.5v10.4Zm-25.9,-29.4h13.3c4.4,0,8,3.6,8,8v3.8H159.2v-3.8c0,-4.4,3.6,-8,8,-8Z" class="gw_344"/>
<path d="M154.6,1124.7h38.5v-10.4H154.6v10.4Zm2.8,-7.6c0,-.2,.2,-.4,.4,-.4h32.1c.2,0,.4,.2,.4,.4v4.8c0,.2,-.2,.4,-.4,.4H157.8c-.2,0,-.4,-.2,-.4,-.4Z" class="g3_344"/>
<path d="M158.3,1121.4h31.1v-3.8H158.3v3.8Z" class="gx_344"/>
<path d="M157.8,1122.3h32.1c.2,0,.4,-.2,.4,-.4v-4.8c0,-.2,-.2,-.4,-.4,-.4H157.8c-.2,0,-.4,.2,-.4,.4v4.8c0,.2,.2,.4,.4,.4m.5,-4.7h31.1v3.8H158.3Z" class="gw_344"/>
<path d="M190.7,1090.5c0,-.9,-.7,-1.7,-1.6,-1.7c-1,0,-1.7,.8,-1.7,1.7c0,.9,.7,1.7,1.7,1.7c.9,0,1.6,-.8,1.6,-1.7Z" class="g3_344"/>
<path d="M32.1,45.1H9.2m958.3,0h22.9M32.1,1331.3H9.2m958.3,0h22.9M45.1,32.1V9.2m0,1335.1v22.9M954.5,32.1V9.2m0,1335.1v22.9" class="gy_344"/>
<path d="M32.1,45.1H9.2m958.3,0h22.9M32.1,1331.3H9.2m958.3,0h22.9M45.1,32.1V9.2m0,1335.1v22.9M954.5,32.1V9.2m0,1335.1v22.9" class="gz_344"/>
<path d="M27.5,32.1H0m972.1,0h27.5M27.5,1344.3H0m972.1,0h27.5M32.1,27.5V0m0,1348.9v27.5M967.5,27.5V0m0,1348.9v27.5" class="gy_344"/>
<path d="M27.5,32.1H0m972.1,0h27.5M27.5,1344.3H0m972.1,0h27.5M32.1,27.5V0m0,1348.9v27.5M967.5,27.5V0m0,1348.9v27.5" class="gz_344"/>
</svg>