<?xml version="1.0" encoding="UTF-8" standalone="no"?>
<!DOCTYPE svg PUBLIC "-//W3C//DTD SVG 1.1//EN"
"http://www.w3.org/Graphics/SVG/1.1/DTD/svg11.dtd">
<svg viewBox="0 0 999 1376" version="1.1" xmlns="http://www.w3.org/2000/svg" xmlns:xlink="http://www.w3.org/1999/xlink">
<defs>
<clipPath id="c0_348"><path d="M232.2,538.1v-98h144v98Z"/></clipPath>
<clipPath id="c1_348"><path d="M234.1,536.2V441.9H372.5v94.3Z"/></clipPath>
<clipPath id="c2_348"><path d="M235.3,925.7V811.9H372.8V925.7Z"/></clipPath>
<clipPath id="c3_348"><path d="M533.2,925.7V811.9H679.1V925.7Z"/></clipPath>
<clipPath id="c4_348"><path d="M239.9,775.2V655.3H370.5V775.2Z"/></clipPath>
<clipPath id="c5_348"><path d="M537,775.2V655.3H679.9V775.2Z"/></clipPath>
<style type="text/css"><![CDATA[
.g0_348{
fill: none;
stroke: #6381B7;
stroke-width: 0.763;
}
.g1_348{
fill: #6381B7;
}
.g2_348{
fill: none;
stroke: #6381B7;
stroke-width: 0.381;
stroke-dasharray: 2,1;
}
.g3_348{
fill: none;
stroke: #6381B7;
stroke-width: 0.381;
}
.g4_348{
fill: #48484A;
}
.g5_348{
fill: #F0E8F3;
}
.g6_348{
fill: #E0F3F7;
}
.g7_348{
fill: none;
stroke: #6381B7;
stroke-width: 0.381;
stroke-miterlimit: 10;
}
.g8_348{
fill: #E7D6B2;
}
.g9_348{
fill: #FFF;
}
.ga_348{
fill: #766FA6;
}
.gb_348{
fill: #25408F;
}
.gc_348{
fill: #F37553;
}
.gd_348{
fill: #363637;
}
.ge_348{
fill: #EAD646;
}
.gf_348{
fill: #506CB4;
}
.gg_348{
fill: #5CC4BE;
}
.gh_348{
fill: none;
stroke: #FFF;
stroke-width: 1.909;
stroke-miterlimit: 10;
}
.gi_348{
fill: none;
stroke: #000;
stroke-width: 0.381;
stroke-miterlimit: 10;
}
]]></style>
</defs>
<path d="M145.1,167.5c0,0,-13,0,-13,13v792c0,0,0,13,13,13H832.9c0,0,13,0,13,-13v-792c0,0,0,-13,-13,-13H145.1Z" class="g0_348"/>
<path d="M166.7,1003.4c0,0,-4.3,0,-4.3,4.3v10.9c0,0,0,4.3,4.3,4.3h30.4c0,0,4.3,0,4.3,-4.3v-10.9c0,0,0,-4.3,-4.3,-4.3Z" class="g1_348"/>
<path d="M153.6,995.9v235.4m1.3,1H845.2m.9,-1.4V995.5m-1.3,-.9H154.5" class="g2_348"/>
<path d="M153.6,1231.7v.6h.5m691.4,0h.6v-.6m0,-236.6v-.5h-.6m-691.4,0h-.5v.5" class="g3_348"/>
<path d="M169.6,394.8c0,0,-4.3,0,-4.3,4.3v14.4c0,0,0,4.4,4,5.8l52.5,18.2c0,0,4.1,1.4,4.1,-2.9V399.1c0,0,0,-4.3,-4.3,-4.3Z" class="g4_348"/>
<path d="M190.7,382c0,0,-13,0,-13,13V620.2c0,0,0,13,13,13h602c0,0,13,0,13,-13V395c0,0,0,-13,-13,-13Z" class="g5_348"/>
<path d="M164.2,219.4H424v56.8H164.2V219.4Zm259.8,0H640.5v56.8H424V219.4Zm216.5,0H805.1v56.8H640.5V219.4Z" class="g6_348"/>
<path d="M164.2,219.4H424m0,56.6V219.6m0,-.2H640.5m0,56.6V219.6m0,-.2H805.1M164.2,276.2H424m0,28.2v-28m0,-.2H640.5m0,28.2v-28m0,-.2H805.1M164.2,304.6H424m0,28.3V304.8m0,-.2H640.5m0,28.3V304.8m0,-.2H805.1M164.2,333.1H424M164.2,361.5H424m0,-.2v-28m0,-.2H640.5M424,361.5H640.5m0,-.2v-28m0,-.2H805.1M640.5,361.5H805.1" class="g7_348"/>
<path clip-path="url(#c0_348)" d="M159,415.3c0,0,-6.6,0,-6.6,6.7V572.1c0,0,0,6.6,6.6,6.6H803.1c0,0,6.7,0,6.7,-6.6V422c0,0,0,-6.7,-6.7,-6.7H159Z" class="g8_348"/>
<image clip-path="url(#c1_348)" preserveAspectRatio="none" x="232" y="440" width="142" height="97" xlink:href="img/1.jpg"/>
<path d="M547.9,939.6H678.2V928.5H547.9v11.1Z" class="g9_348"/>
<image clip-path="url(#c2_348)" preserveAspectRatio="none" x="227" y="810" width="145" height="123" xlink:href="img/2.jpg"/>
<image clip-path="url(#c3_348)" preserveAspectRatio="none" x="533" y="810" width="146" height="123" xlink:href="img/3.jpg"/>
<image clip-path="url(#c4_348)" preserveAspectRatio="none" x="239" y="654" width="131" height="122" xlink:href="img/4.jpg"/>
<image clip-path="url(#c5_348)" preserveAspectRatio="none" x="537" y="654" width="144" height="123" xlink:href="img/5.jpg"/>
<path d="M226.1,939.6H376.4V928.5H226.1v11.1Z" class="g9_348"/>
<path d="M196.7,674.3h38.9V650.1H196.7v24.2Z" class="g9_348"/>
<path d="M196.7,835.1h38.9V810.9H196.7v24.2Z" class="g9_348"/>
<path d="M504.7,674.3h38.9V650.1H504.7v24.2Z" class="g9_348"/>
<path d="M504.7,835.1h38.9V810.9H504.7v24.2Z" class="g9_348"/>
<path d="M543.8,813.4H673.3V775.2H543.8v38.2Z" class="g9_348"/>
<path d="M247.5,813.4H354.9V775.2H247.5v38.2Z" class="g9_348"/>
<path d="M169.6,392.7c0,0,-4.3,0,-4.3,4.3v16.9c0,0,0,4.4,4.3,4.4h32.5c0,0,4.3,0,4.3,-4.4V397c0,0,0,-4.3,-4.3,-4.3Z" class="ga_348"/>
<path d="M132.2,126.3v22.2l11.7,10.2V136.5Z" class="gb_348"/>
<path d="M132.2,109.5v39H829.9c0,0,16.9,0,16.9,-16.8v-5.4c0,0,0,-16.8,-16.9,-16.8Z" class="g1_348"/>
<path d="M166,111.6c.7,-.6,1.7,-.8,2.5,-.6l1.3,-1.3l-6.2,-6.1l-6.1,6.1l-1.3,-1.3c.2,-.8,0,-1.8,-.6,-2.4c-1,-1,-2.6,-1,-3.6,0c-1,1,-1,2.6,0,3.6c.6,.6,1.6,.9,2.4,.6l1.3,1.3l-6.1,6.1l6.1,6.2l-1.3,1.3c-.8,-.3,-1.8,-.1,-2.4,.6c-1,1,-1,2.6,0,3.6c1,1,2.6,1,3.6,0c.6,-.7,.9,-1.6,.6,-2.4l1.3,-1.3l6.1,6.1l6.2,-6.1l-1.3,-1.3c-.9,.2,-1.8,0,-2.5,-.7c-1,-1,-1,-2.6,0,-3.6c1,-1,2.6,-1,3.6,0c.7,.7,.9,1.6,.7,2.5l1.3,1.3l6.1,-6.2l-6.1,-6.1l-1.3,1.3c.2,.8,0,1.8,-.7,2.4c-1,1,-2.6,1,-3.6,0c-1,-.9,-1,-2.6,0,-3.6Z" class="gc_348"/>
<path d="M163.6,132.3l-6.1,-6.2l-.8,.9c.1,.9,-.2,1.9,-.8,2.6c-1.2,1.1,-3.1,1.1,-4.2,0c-1.2,-1.2,-1.2,-3,0,-4.2c.7,-.7,1.6,-1,2.6,-.8l.8,-.8L149,117.6l6.1,-6.1l-.8,-.8c-1,.1,-1.9,-.2,-2.6,-.8c-.6,-.6,-.9,-1.3,-.9,-2.1c0,-.8,.3,-1.5,.9,-2.1c1.1,-1.1,3,-1.1,4.1,0c.7,.7,1,1.7,.9,2.6l.8,.8l6.1,-6.1l6.7,6.7l-1.7,1.7h-.2c-.7,-.2,-1.5,0,-2.1,.5c-.8,.9,-.8,2.2,0,3.1c.9,.8,2.2,.8,3.1,0c.5,-.6,.7,-1.4,.5,-2.1v-.2l1.7,-1.7l6.7,6.6l-6.7,6.7l-1.8,-1.7l.1,-.2c.2,-.8,0,-1.5,-.6,-2.1c-.4,-.4,-.9,-.6,-1.5,-.6c-.5,0,-1.1,.2,-1.5,.6c-.8,.8,-.8,2.2,0,3c.5,.6,1.3,.8,2.1,.6l.2,-.1l1.7,1.8ZM157.5,125l6.1,6.1l5.6,-5.5l-.8,-.9c-1,.2,-2,-.1,-2.7,-.8c-.5,-.5,-.8,-1.3,-.8,-2.1c0,-.7,.3,-1.5,.8,-2c.6,-.6,1.3,-.9,2.1,-.9c.8,0,1.6,.3,2.1,.9c.7,.6,1,1.6,.8,2.6l.9,.8l5.5,-5.6l-5.5,-5.5l-.9,.8c.2,1,-.1,1.9,-.8,2.6c-1.1,1.2,-3,1.2,-4.1,0c-1.2,-1.1,-1.2,-3,0,-4.1c.6,-.7,1.6,-1,2.6,-.8l.8,-.9l-5.6,-5.6l-6.1,6.2l-1.7,-1.7v-.3c.2,-.7,0,-1.5,-.5,-2c-.9,-.9,-2.2,-.9,-3.1,0c-.4,.4,-.6,.9,-.6,1.5c0,.6,.2,1.1,.6,1.5c.6,.5,1.4,.8,2.1,.6l.2,-.1l1.8,1.7l-6.2,6.1l6.2,6.2l-1.8,1.7l-.2,-.1c-.7,-.2,-1.5,.1,-2,.6c-.9,.8,-.9,2.2,0,3c.8,.9,2.2,.9,3,0c.5,-.5,.7,-1.3,.5,-2v-.3Z" class="gd_348"/>
<path d="M196.6,122.1c.9,0,1.8,.5,2.2,1.3h1.8v-8.7h-8.7v-1.8c.8,-.4,1.3,-1.2,1.3,-2.2c0,-1.4,-1.1,-2.5,-2.5,-2.5c-1.5,0,-2.6,1.1,-2.6,2.5c0,1,.5,1.8,1.3,2.2v1.8h-8.7v8.7h-1.8c-.4,-.8,-1.2,-1.3,-2.2,-1.3c-1.4,0,-2.5,1.2,-2.5,2.6c0,1.4,1.1,2.5,2.5,2.5c1,0,1.8,-.5,2.2,-1.2h1.8v8.6h8.7v-1.8c-.8,-.4,-1.3,-1.2,-1.3,-2.2c0,-1.4,1.2,-2.5,2.6,-2.5c1.4,0,2.5,1.1,2.5,2.5c0,1,-.5,1.8,-1.3,2.2v1.8h8.7V126h-1.8c-.4,.7,-1.2,1.2,-2.2,1.2c-1.4,0,-2.5,-1.1,-2.5,-2.5c0,-1.4,1.1,-2.6,2.5,-2.6Z" class="ge_348"/>
<path d="M201,135h-9.5v-2.4l.2,-.1c.7,-.4,1.1,-1.1,1.1,-1.9c0,-1.2,-1,-2.1,-2.1,-2.1c-1.2,0,-2.2,.9,-2.2,2.1c0,.8,.4,1.5,1.1,1.9l.2,.1V135h-9.5v-8.6h-1.2c-.5,.7,-1.4,1.2,-2.4,1.2c-1.6,0,-2.9,-1.3,-2.9,-2.9c0,-1.6,1.3,-3,2.9,-3c1,0,1.9,.5,2.4,1.3h1.2v-8.7H189v-1.1c-.8,-.6,-1.3,-1.5,-1.3,-2.5c0,-1.6,1.3,-2.9,3,-2.9c1.6,0,2.9,1.3,2.9,2.9c0,1,-.5,1.9,-1.3,2.5v1.1H201v9.5h-2.4l-.1,-.2c-.4,-.6,-1.1,-1.1,-1.9,-1.1c-.6,0,-1.1,.3,-1.5,.7c-.4,.4,-.6,.9,-.6,1.5c0,1.2,.9,2.1,2.1,2.1c.8,0,1.5,-.4,1.9,-1l.1,-.2H201Zm-8.7,-.8h7.9v-7.8H199c-.5,.7,-1.4,1.2,-2.4,1.2c-1.6,0,-2.9,-1.3,-2.9,-2.9c0,-.8,.3,-1.5,.8,-2.1c.6,-.5,1.3,-.9,2.1,-.9c1,0,1.9,.5,2.4,1.3h1.2v-7.9h-8.7v-2.4l.2,-.1c.7,-.4,1.1,-1.1,1.1,-1.9c0,-1.2,-1,-2.1,-2.1,-2.1c-1.2,0,-2.2,.9,-2.2,2.1c0,.8,.4,1.5,1.1,1.9l.2,.1v2.4h-8.7v8.7h-2.4l-.1,-.2c-.4,-.6,-1.1,-1.1,-1.9,-1.1c-1.2,0,-2.1,1,-2.1,2.2c0,1.2,.9,2.1,2.1,2.1c.8,0,1.5,-.4,1.9,-1l.1,-.2h2.4v8.6H189V133c-.8,-.5,-1.3,-1.4,-1.3,-2.4c0,-1.6,1.3,-2.9,3,-2.9c1.6,0,2.9,1.3,2.9,2.9c0,1,-.5,1.9,-1.3,2.4Z" class="gd_348"/>
<path d="M176.7,142c1,0,1.8,.5,2.2,1.3h1.8v-8.7H172v-1.8c.8,-.4,1.3,-1.2,1.3,-2.2c0,-1.4,-1.1,-2.5,-2.5,-2.5c-1.4,0,-2.6,1.1,-2.6,2.5c0,1,.5,1.8,1.3,2.2v1.8h-8.7v8.7H159c-.4,-.8,-1.2,-1.3,-2.2,-1.3c-1.4,0,-2.5,1.2,-2.5,2.6c0,1.4,1.1,2.5,2.5,2.5c1,0,1.8,-.5,2.2,-1.2h1.8v8.6h8.7v-1.8c-.8,-.4,-1.3,-1.2,-1.3,-2.2c0,-1.4,1.2,-2.5,2.6,-2.5c1.4,0,2.5,1.1,2.5,2.5c0,1,-.5,1.8,-1.3,2.2v1.8h8.7v-8.7h-1.8c-.4,.8,-1.2,1.3,-2.2,1.3c-1.4,0,-2.5,-1.1,-2.5,-2.5c0,-1.4,1.1,-2.6,2.5,-2.6Z" class="gf_348"/>
<path d="M181.1,154.9h-9.5v-2.4l.2,-.1c.7,-.4,1.1,-1.1,1.1,-1.9c0,-1.2,-1,-2.1,-2.1,-2.1c-1.2,0,-2.2,.9,-2.2,2.1c0,.8,.4,1.5,1.1,1.9l.2,.1v2.4h-9.5v-8.6h-1.2c-.5,.7,-1.4,1.2,-2.4,1.2c-1.6,0,-2.9,-1.3,-2.9,-2.9c0,-1.6,1.3,-3,2.9,-3c1,0,1.9,.5,2.4,1.3h1.2v-8.7h8.7V133c-.8,-.5,-1.3,-1.4,-1.3,-2.4c0,-1.6,1.3,-2.9,3,-2.9c1.6,0,2.9,1.3,2.9,2.9c0,1,-.5,1.9,-1.3,2.4v1.2h8.7v9.5h-2.4l-.1,-.2c-.4,-.7,-1.1,-1.1,-1.9,-1.1c-1.2,0,-2.1,1,-2.1,2.2c0,1.1,.9,2.1,2.1,2.1c.8,0,1.5,-.4,1.9,-1.1l.1,-.2h2.4Zm-8.7,-.8h7.9v-7.9h-1.2c-.5,.8,-1.4,1.3,-2.4,1.3c-1.6,0,-2.9,-1.3,-2.9,-2.9c0,-1.6,1.3,-3,2.9,-3c1,0,1.9,.5,2.4,1.3h1.2V135h-8.7v-2.4l.2,-.1c.7,-.4,1.1,-1.1,1.1,-1.9c0,-1.2,-1,-2.1,-2.1,-2.1c-1.2,0,-2.2,.9,-2.2,2.1c0,.8,.4,1.5,1.1,1.9l.2,.1V135h-8.7v8.7h-2.4l-.1,-.2c-.4,-.7,-1.1,-1.1,-1.9,-1.1c-1.2,0,-2.1,1,-2.1,2.2c0,1.2,.9,2.1,2.1,2.1c.8,0,1.5,-.4,1.9,-1l.1,-.2h2.4v8.6h7.9v-1.2c-.8,-.5,-1.3,-1.4,-1.3,-2.4c0,-1.6,1.3,-2.9,3,-2.9c1.6,0,2.9,1.3,2.9,2.9c0,1,-.5,1.9,-1.3,2.4Z" class="gd_348"/>
<path d="M196.6,142c.9,0,1.8,.5,2.2,1.3h1.8v-8.7h-8.7v-1.8c.8,-.4,1.3,-1.2,1.3,-2.2c0,-1.4,-1.1,-2.5,-2.5,-2.5c-1.5,0,-2.6,1.1,-2.6,2.5c0,1,.5,1.8,1.3,2.2v1.8h-8.7v8.7h-1.8c-.4,-.8,-1.2,-1.3,-2.2,-1.3c-1.4,0,-2.5,1.2,-2.5,2.6c0,1.4,1.1,2.5,2.5,2.5c1,0,1.8,-.5,2.2,-1.2h1.8v8.6h8.7v-1.8c-.8,-.4,-1.3,-1.2,-1.3,-2.2c0,-1.4,1.2,-2.5,2.6,-2.5c1.4,0,2.5,1.1,2.5,2.5c0,1,-.5,1.8,-1.3,2.2v1.8h8.7v-8.7h-1.8c-.4,.8,-1.2,1.3,-2.2,1.3c-1.4,0,-2.5,-1.1,-2.5,-2.5c0,-1.4,1.1,-2.6,2.5,-2.6Z" class="gg_348"/>
<path d="M201,154.9h-9.5v-2.4l.2,-.1c.7,-.4,1.1,-1.1,1.1,-1.9c0,-1.2,-1,-2.1,-2.1,-2.1c-1.2,0,-2.2,.9,-2.2,2.1c0,.8,.4,1.5,1.1,1.9l.2,.1v2.4h-9.5v-8.6h-1.2c-.5,.7,-1.4,1.2,-2.4,1.2c-1.6,0,-2.9,-1.3,-2.9,-2.9c0,-1.6,1.3,-3,2.9,-3c1,0,1.9,.5,2.4,1.3h1.2v-8.7H189V133c-.8,-.5,-1.3,-1.4,-1.3,-2.4c0,-1.6,1.3,-2.9,3,-2.9c1.6,0,2.9,1.3,2.9,2.9c0,1,-.5,1.9,-1.3,2.4v1.2H201v9.5h-2.4l-.1,-.2c-.4,-.7,-1.1,-1.1,-1.9,-1.1c-.6,0,-1.1,.3,-1.5,.7c-.4,.4,-.6,.9,-.6,1.5c0,1.1,.9,2.1,2.1,2.1c.8,0,1.5,-.4,1.9,-1.1l.1,-.2H201Zm-8.7,-.8h7.9v-7.9H199c-.5,.8,-1.4,1.3,-2.4,1.3c-1.6,0,-2.9,-1.3,-2.9,-2.9c0,-.8,.3,-1.5,.8,-2.1c.6,-.6,1.3,-.9,2.1,-.9c1,0,1.9,.5,2.4,1.3h1.2V135h-8.7v-2.4l.2,-.1c.7,-.4,1.1,-1.1,1.1,-1.9c0,-1.2,-1,-2.1,-2.1,-2.1c-1.2,0,-2.2,.9,-2.2,2.1c0,.8,.4,1.5,1.1,1.9l.2,.1V135h-8.7v8.7h-2.4l-.1,-.2c-.4,-.7,-1.1,-1.1,-1.9,-1.1c-1.2,0,-2.1,1,-2.1,2.2c0,1.2,.9,2.1,2.1,2.1c.8,0,1.5,-.4,1.9,-1l.1,-.2h2.4v8.6H189v-1.2c-.8,-.5,-1.3,-1.4,-1.3,-2.4c0,-1.6,1.3,-2.9,3,-2.9c1.6,0,2.9,1.3,2.9,2.9c0,1,-.5,1.9,-1.3,2.4Z" class="gd_348"/>
<path d="M32.1,45.1H9.2m958.3,0h22.9M32.1,1331.3H9.2m958.3,0h22.9M45.1,32.1V9.2m0,1335.1v22.9M954.5,32.1V9.2m0,1335.1v22.9" class="gh_348"/>
<path d="M32.1,45.1H9.2m958.3,0h22.9M32.1,1331.3H9.2m958.3,0h22.9M45.1,32.1V9.2m0,1335.1v22.9M954.5,32.1V9.2m0,1335.1v22.9" class="gi_348"/>
<path d="M27.5,32.1H0m972.1,0h27.5M27.5,1344.3H0m972.1,0h27.5M32.1,27.5V0m0,1348.9v27.5M967.5,27.5V0m0,1348.9v27.5" class="gh_348"/>
<path d="M27.5,32.1H0m972.1,0h27.5M27.5,1344.3H0m972.1,0h27.5M32.1,27.5V0m0,1348.9v27.5M967.5,27.5V0m0,1348.9v27.5" class="gi_348"/>
</svg>