<?xml version="1.0" encoding="UTF-8" standalone="no"?>
<!DOCTYPE svg PUBLIC "-//W3C//DTD SVG 1.1//EN"
"http://www.w3.org/Graphics/SVG/1.1/DTD/svg11.dtd">
<svg viewBox="0 0 999 1376" version="1.1" xmlns="http://www.w3.org/2000/svg" xmlns:xlink="http://www.w3.org/1999/xlink">
<defs>
<clipPath id="c0_61"><path d="M32.1,1344.3V32.1H967.5V1344.3Z"/></clipPath>
<clipPath id="c1_61"><path d="M796.8,207.2V194.8h14.5v12.4Z"/></clipPath>
<clipPath id="c2_61"><path d="M203.3,310.2l-6.5,-2L182.7,297V236.1h62.7v74.1Z"/></clipPath>
<clipPath id="c3_61"><path d="M191,418.4V325.6H335.2v92.8Z"/></clipPath>
<clipPath id="c4_61"><path d="M434.8,418.4V325.6H579v92.8Z"/></clipPath>
<clipPath id="c5_61"><path d="M693.6,418.4V325.6h126v92.8Z"/></clipPath>
<clipPath id="c6_61"><path d="M190.9,578.6V485.9H335.2v92.7Z"/></clipPath>
<clipPath id="c7_61"><path d="M434.8,578.6V485.9H583.3v92.7Z"/></clipPath>
<clipPath id="c8_61"><path d="M683.1,578.6V485.9H822.4v92.7Z"/></clipPath>
<clipPath id="c9_61"><path d="M241.5,951.4V859.8H367.3v91.6Z"/></clipPath>
<clipPath id="ca_61"><path d="M244.3,1179.5v-92.7H372.6v92.7Z"/></clipPath>
<clipPath id="cb_61"><path d="M483.2,893.7V800.9H638.4v92.8Z"/></clipPath>
<clipPath id="cc_61"><path d="M477.6,1128.7V1036H629.7v92.7Z"/></clipPath>
<clipPath id="cd_61"><path d="M479.6,999.3V906.6H629.2v92.7Z"/></clipPath>
<clipPath id="ce_61"><path d="M480,1234.4v-92.8H629.6v92.8Z"/></clipPath>
<clipPath id="cf_61"><path d="M191.6,736.4V643.7H330.5v92.7Z"/></clipPath>
<clipPath id="cg_61"><path d="M668.9,736.4V643.7H844.6v92.7Z"/></clipPath>
<clipPath id="ch_61"><path d="M435.1,736.4V643.7H587.4v92.7Z"/></clipPath>
<style type="text/css"><![CDATA[
.g0_61{
fill: #FFFDEA;
}
.g1_61{
fill: #BCE4EA;
}
.g2_61{
fill: #BCBEC0;
}
.g3_61{
fill: #00AABD;
}
.g4_61{
fill: #A8AAAD;
}
.g5_61{
fill: none;
stroke: #949698;
stroke-width: 0.549;
}
.g6_61{
fill: #FFF;
}
.g7_61{
fill: none;
stroke: #BCBEC0;
stroke-width: 2.566;
}
.g8_61{
fill: #231F20;
}
.g9_61{
fill: #FCDCBA;
}
.ga_61{
fill: none;
stroke: #949698;
stroke-width: 0.29;
}
.gb_61{
fill: none;
stroke: #FFF;
stroke-width: 1.909;
stroke-miterlimit: 10;
}
.gc_61{
fill: none;
stroke: #000;
stroke-width: 0.381;
stroke-miterlimit: 10;
}
]]></style>
</defs>
<g clip-path="url(#c0_61)">
<path d="M-877.3,1344.3H967.5V32.1H-877.3V1344.3Z" class="g0_61"/>
<path d="M-877.3,179.3H967.5V32.1H-877.3V179.3Z" class="g1_61"/>
<path d="M967.5,177.2H-877.3v-5.4h736.6c43.1,0,53.1,-37.9,115.3,-37.9H967.5Z" class="g2_61"/>
<path d="M967.5,183.7H-877.3v-9.8h736.6c43.1,0,53.1,-33.6,115.3,-33.6H967.5Z" class="g3_61"/>
</g>
<path d="M812.9,220.2c8.2,0,14.9,-6.5,14.9,-14.4c0,-8,-6.7,-14.5,-14.9,-14.5c-8.2,0,-14.9,6.5,-14.9,14.5c0,7.9,6.7,14.4,14.9,14.4Z" class="g4_61"/>
<path d="M812.9,220.2c8.2,0,14.9,-6.5,14.9,-14.4c0,-8,-6.7,-14.5,-14.9,-14.5c-8.2,0,-14.9,6.5,-14.9,14.5c0,7.9,6.7,14.4,14.9,14.4Z" class="g5_61"/>
<path d="M812.9,211.1c3.1,0,5.5,-2.4,5.5,-5.3c0,-3,-2.4,-5.4,-5.5,-5.4c-3,0,-5.5,2.4,-5.5,5.4c0,2.9,2.5,5.3,5.5,5.3Z" class="g6_61"/>
<path d="M812.9,211.1c3.1,0,5.5,-2.4,5.5,-5.3c0,-3,-2.4,-5.4,-5.5,-5.4c-3,0,-5.5,2.4,-5.5,5.4c0,2.9,2.5,5.3,5.5,5.3Z" class="g7_61"/>
<g clip-path="url(#c1_61)" opacity="0.3">
<path d="M798.3,205v0c0,0,0,-4.8,3.7,-8.6l7.8,6.7c0,0,-1.1,.9,-1.1,2.6Z" class="g6_61"/>
</g>
<path d="M817.5,205.7c0,0,-3.4,0,-3.4,3.4v8.7c0,0,0,3.4,3.4,3.4H861c0,0,3.5,0,3.5,-3.4v-8.7c0,0,0,-3.4,-3.5,-3.4Z" class="g8_61"/>
<path d="M235.9,265.2c0,0,-13,0,-13,13v21.7c0,0,0,13,13,13h619c0,0,13,0,13,-13V278.2c0,0,0,-13,-13,-13Z" class="g9_61"/>
<image clip-path="url(#c2_61)" preserveAspectRatio="none" x="183" y="235" width="62" height="77" xlink:href="img/1.png"/>
<path d="M230.7,305.5c0,0,-26.9,11.3,-51.1,-12.7c0,0,15.1,25.3,49.3,23.9c0,0,24.7,.4,20.2,-10.1c0,0,1.2,-4.4,-18.4,-1.1Z" class="g9_61"/>
<path d="M175.2,418.4H350.9V325.6H175.2v92.8Z" class="g6_61"/>
<image clip-path="url(#c3_61)" preserveAspectRatio="none" x="191" y="324" width="144" height="96" xlink:href="img/2.jpg"/>
<path d="M175.2,418.4H350.9V325.6H175.2v92.8Z" class="ga_61"/>
<path d="M422,418.4H597.8V325.6H422v92.8Z" class="g6_61"/>
<image clip-path="url(#c4_61)" preserveAspectRatio="none" x="435" y="324" width="144" height="96" xlink:href="img/3.jpg"/>
<path d="M422,418.4H597.8V325.6H422v92.8Z" class="ga_61"/>
<path d="M668.9,418.4H844.6V325.6H668.9v92.8Z" class="g6_61"/>
<image clip-path="url(#c5_61)" preserveAspectRatio="none" x="694" y="324" width="126" height="95" xlink:href="img/4.jpg"/>
<path d="M668.9,418.4H844.6V325.6H668.9v92.8Z" class="ga_61"/>
<path d="M175.2,578.6H350.9V485.9H175.2v92.7Z" class="g6_61"/>
<image clip-path="url(#c6_61)" preserveAspectRatio="none" x="191" y="484" width="144" height="96" xlink:href="img/5.jpg"/>
<path d="M175.2,578.6H350.9V485.9H175.2v92.7Z" class="ga_61"/>
<path d="M422,578.6H597.8V485.9H422v92.7Z" class="g6_61"/>
<image clip-path="url(#c7_61)" preserveAspectRatio="none" x="435" y="484" width="148" height="96" xlink:href="img/6.jpg"/>
<path d="M422,578.6H597.8V485.9H422v92.7Z" class="ga_61"/>
<path d="M668.9,578.6H844.6V485.9H668.9v92.7Z" class="g6_61"/>
<image clip-path="url(#c8_61)" preserveAspectRatio="none" x="683" y="484" width="139" height="96" xlink:href="img/7.jpg"/>
<path d="M668.9,578.6H844.6V485.9H668.9v92.7Z" class="ga_61"/>
<path d="M218.5,951.4H394.2V858.7H218.5v92.7Z" class="g6_61"/>
<image clip-path="url(#c9_61)" preserveAspectRatio="none" x="241" y="860" width="126" height="93" xlink:href="img/8.jpg"/>
<path d="M218.5,951.4H394.2V858.7H218.5v92.7Z" class="ga_61"/>
<path d="M218.5,1179.5H394.2v-92.7H218.5v92.7Z" class="g6_61"/>
<image clip-path="url(#ca_61)" preserveAspectRatio="none" x="244" y="1086" width="129" height="95" xlink:href="img/9.jpg"/>
<path d="M218.5,1179.5H394.2v-92.7H218.5v92.7Z" class="ga_61"/>
<path d="M465.3,893.7H641.1V800.9H465.3v92.8Z" class="g6_61"/>
<image clip-path="url(#cb_61)" preserveAspectRatio="none" x="483" y="799" width="155" height="96" xlink:href="img/10.jpg"/>
<path d="M465.3,893.7H641.1V800.9H465.3v92.8Z" class="ga_61"/>
<path d="M465.3,1128.7H641.1V1036H465.3v92.7Z" class="g6_61"/>
<image clip-path="url(#cc_61)" preserveAspectRatio="none" x="478" y="1034" width="152" height="96" xlink:href="img/11.jpg"/>
<path d="M465.3,1128.7H641.1V1036H465.3v92.7Z" class="ga_61"/>
<path d="M465.3,999.3H641.1V906.6H465.3v92.7Z" class="g6_61"/>
<image clip-path="url(#cd_61)" preserveAspectRatio="none" x="480" y="905" width="149" height="96" xlink:href="img/12.jpg"/>
<path d="M465.3,999.3H641.1V906.6H465.3v92.7Z" class="ga_61"/>
<path d="M465.3,1234.4H641.1v-92.8H465.3v92.8Z" class="g6_61"/>
<image clip-path="url(#ce_61)" preserveAspectRatio="none" x="480" y="1140" width="150" height="96" xlink:href="img/13.jpg"/>
<path d="M465.3,1234.4H641.1v-92.8H465.3v92.8Z" class="ga_61"/>
<path d="M175.2,736.4H350.9V643.7H175.2v92.7Z" class="g6_61"/>
<image clip-path="url(#cf_61)" preserveAspectRatio="none" x="192" y="642" width="138" height="96" xlink:href="img/14.jpg"/>
<path d="M175.2,736.4H350.9V643.7H175.2v92.7Z" class="ga_61"/>
<path d="M668.9,736.4H844.6V643.7H668.9v92.7Z" class="g6_61"/>
<image clip-path="url(#cg_61)" preserveAspectRatio="none" x="667" y="642" width="179" height="96" xlink:href="img/15.png"/>
<path d="M668.9,736.4H844.6V643.7H668.9v92.7Z" class="ga_61"/>
<path d="M422,736.4H597.8V643.7H422v92.7Z" class="g6_61"/>
<image clip-path="url(#ch_61)" preserveAspectRatio="none" x="435" y="642" width="152" height="96" xlink:href="img/16.jpg"/>
<path d="M422,736.4H597.8V643.7H422v92.7Z" class="ga_61"/>
<path d="M32.1,45.1H9.2m958.3,0h22.9M32.1,1331.3H9.2m958.3,0h22.9M45.1,32.1V9.2m0,1335.1v22.9M954.5,32.1V9.2m0,1335.1v22.9" class="gb_61"/>
<path d="M32.1,45.1H9.2m958.3,0h22.9M32.1,1331.3H9.2m958.3,0h22.9M45.1,32.1V9.2m0,1335.1v22.9M954.5,32.1V9.2m0,1335.1v22.9" class="gc_61"/>
<path d="M27.5,32.1H0m972.1,0h27.5M27.5,1344.3H0m972.1,0h27.5M32.1,27.5V0m0,1348.9v27.5M967.5,27.5V0m0,1348.9v27.5" class="gb_61"/>
<path d="M27.5,32.1H0m972.1,0h27.5M27.5,1344.3H0m972.1,0h27.5M32.1,27.5V0m0,1348.9v27.5M967.5,27.5V0m0,1348.9v27.5" class="gc_61"/>
</svg>