<?xml version="1.0" encoding="UTF-8" standalone="no"?>
<!DOCTYPE svg PUBLIC "-//W3C//DTD SVG 1.1//EN"
"http://www.w3.org/Graphics/SVG/1.1/DTD/svg11.dtd">
<svg viewBox="0 0 999 1376" version="1.1" xmlns="http://www.w3.org/2000/svg" xmlns:xlink="http://www.w3.org/1999/xlink">
<defs>
<clipPath id="c0_80"><path d="M32.1,1344.3V32.1H967.5V1344.3Z"/></clipPath>
<clipPath id="c1_80"><path d="M191,1184.9v-77.6h87v77.6Z"/></clipPath>
<clipPath id="c2_80"><path d="M521.5,1184.9v-77.6h83.3v77.6Z"/></clipPath>
<clipPath id="c3_80"><path d="M176.6,722.3l-6.5,-2.1l-16.4,-14V649.1h72v73.2Z"/></clipPath>
<clipPath id="c4_80"><path d="M176.6,1081l-6.5,-2.1L153.7,1065v-57.1h72V1081Z"/></clipPath>
<clipPath id="c5_80"><path d="M178.4,137.2c.1,-1.3,.7,-2.5,1.6,-3.4c1,-1,2.4,-1.6,3.9,-1.6h19.2v5Z"/></clipPath>
<clipPath id="c6_80"><path d="M177.9,137.7v-6h25.7v6Z"/></clipPath>
<style type="text/css"><![CDATA[
.g0_80{
fill: #FEFCF4;
}
.g1_80{
fill: #FDF9F5;
}
.g2_80{
fill: none;
stroke: #6381B7;
stroke-width: 0.763;
}
.g3_80{
fill: none;
stroke: #231F20;
stroke-width: 0.305;
stroke-miterlimit: 10;
}
.g4_80{
fill: #FFF;
}
.g5_80{
fill: none;
stroke: #949698;
stroke-width: 0.305;
}
.g6_80{
fill: #6381B7;
}
.g7_80{
fill: none;
stroke: #6381B7;
stroke-width: 0.381;
stroke-dasharray: 2,1;
}
.g8_80{
fill: none;
stroke: #6381B7;
stroke-width: 0.381;
}
.g9_80{
fill: #48484A;
}
.ga_80{
fill: #E1E0ED;
}
.gb_80{
fill: #766FA6;
}
.gc_80{
fill: #FCE8B0;
}
.gd_80{
fill: #25408F;
}
.ge_80{
fill: none;
stroke: #231F20;
stroke-width: 1.527;
}
.gf_80{
fill: #39B4D1;
stroke: #2D2A4A;
stroke-width: 1.038;
stroke-linecap: round;
stroke-linejoin: round;
}
.gg_80{
fill: #2D2A4A;
}
.gh_80{
fill: none;
stroke: #2D2A4A;
stroke-width: 1.038;
stroke-linecap: round;
stroke-linejoin: round;
}
.gi_80{
fill: #DEDAD3;
}
.gj_80{
fill: #29263F;
}
.gk_80{
fill: #E15F46;
stroke: #2D2A4A;
stroke-width: 1.038;
stroke-linecap: round;
stroke-linejoin: round;
}
.gl_80{
fill: #DEF1F3;
}
.gm_80{
fill: #8FD5E3;
}
.gn_80{
fill: none;
stroke: #58595B;
stroke-width: 0.381;
stroke-miterlimit: 10;
}
.go_80{
fill: #F7F8E9;
}
.gp_80{
fill: none;
stroke: #BFD62F;
stroke-width: 1.527;
stroke-linecap: round;
stroke-linejoin: round;
stroke-dasharray: 0,5;
}
.gq_80{
fill: none;
stroke: #BFD62F;
stroke-width: 1.527;
stroke-linecap: round;
stroke-linejoin: round;
}
.gr_80{
fill: #BFD62F;
}
.gs_80{
fill: #D1232A;
}
.gt_80{
fill: #233D4A;
}
.gu_80{
fill: #FFE293;
}
.gv_80{
fill: #F89C47;
}
.gw_80{
fill: none;
stroke: #FFF;
stroke-width: 1.909;
stroke-miterlimit: 10;
}
.gx_80{
fill: none;
stroke: #000;
stroke-width: 0.381;
stroke-miterlimit: 10;
}
]]></style>
</defs>
<path clip-path="url(#c0_80)" d="M954.5,1344.3H1877V32.1H954.5V1344.3Z" class="g0_80"/>
<path d="M145.1,989.5c0,0,-13,0,-13,13v182.6c0,0,0,13,13,13H832.9c0,0,13,0,13,-13V1002.5c0,0,0,-13,-13,-13Z" class="g1_80"/>
<path d="M145.1,989.5c0,0,-13,0,-13,13v182.6c0,0,0,13,13,13H832.9c0,0,13,0,13,-13V1002.5c0,0,0,-13,-13,-13H145.1Z" class="g2_80"/>
<path d="M288.2,1157.7h64.5" class="g3_80"/>
<path d="M191,1184.9h87v-77.6H191v77.6Z" class="g4_80"/>
<image clip-path="url(#c1_80)" preserveAspectRatio="none" x="189" y="1106" width="91" height="81" xlink:href="img/1.jpg"/>
<path d="M191,1184.9h87v-77.6H191v77.6Z" class="g5_80"/>
<path d="M615.9,1157.7h64.5" class="g3_80"/>
<path d="M518.7,1184.9h87v-77.6h-87v77.6Z" class="g4_80"/>
<image clip-path="url(#c2_80)" preserveAspectRatio="none" x="521" y="1106" width="84" height="81" xlink:href="img/2.jpg"/>
<path d="M518.7,1184.9h87v-77.6h-87v77.6Z" class="g5_80"/>
<path d="M658.7,1214.9c0,0,-4.3,0,-4.3,4.3V1230c0,0,0,4.4,4.3,4.4H689c0,0,4.3,0,4.3,-4.4v-10.8c0,0,0,-4.3,-4.3,-4.3Z" class="g6_80"/>
<path d="M645.5,1206.1v37.4m1.3,1H845.3m1,-1.3v-37.5m-1.4,-.9H646.5" class="g7_80"/>
<path d="M645.5,1243.9v.6h.6m199.6,0h.6v-.6m0,-38.6v-.5h-.6m-199.6,0h-.6v.5" class="g8_80"/>
<path d="M145.1,735.3c0,0,-13,0,-13,12.9V963.7c0,0,0,13,13,13H832.9c0,0,13,0,13,-13V748.2c0,0,0,-12.9,-13,-12.9Z" class="g4_80"/>
<path d="M145.1,735.3c0,0,-13,0,-13,12.9V963.7c0,0,0,13,13,13H832.9c0,0,13,0,13,-13V748.2c0,0,0,-12.9,-13,-12.9H145.1Z" class="g2_80"/>
<path d="M173.6,819c0,0,-1.5,0,-1.5,1.6v6.7c0,0,0,4.3,4.2,5.3l52.2,12.9c0,0,4.2,1,4.2,-3.3V823.4c0,0,0,-4.4,-4.3,-4.4Z" class="g9_80"/>
<path d="M197.6,799.5c0,0,-13,0,-13,13v21.7c0,0,0,13,13,13H802.9c0,0,13,0,13,-13V812.5c0,0,0,-13,-13,-13Z" class="ga_80"/>
<path d="M176.4,806c0,0,-4.3,0,-4.3,4.4v17.3c0,0,0,4.3,4.3,4.3h37.3c0,0,4.4,0,4.4,-4.3V810.4c0,0,0,-4.4,-4.4,-4.4Z" class="gb_80"/>
<path d="M295.7,834.1h12.2" class="g3_80"/>
<path d="M628.6,926.2c0,0,-4.4,0,-4.4,4.3v10.8c0,0,0,4.3,4.4,4.3h30.3c0,0,4.3,0,4.3,-4.3V930.5c0,0,0,-4.3,-4.3,-4.3Z" class="g6_80"/>
<path d="M615.4,917.3v37.6m1.3,.9H826.2m1,-1.3V916.9m-1.3,-.9H616.3" class="g7_80"/>
<path d="M615.4,955.3v.5h.5m210.7,0h.6v-.5m0,-38.8V916h-.6m-210.7,0h-.5v.5" class="g8_80"/>
<path d="M209.2,677.3c0,0,-13,0,-13,13v21.6c0,0,0,13,13,13H833.3c0,0,13,0,13,-13V690.3c0,0,0,-13,-13,-13Z" class="gc_80"/>
<image clip-path="url(#c3_80)" preserveAspectRatio="none" x="152" y="648" width="75" height="76" xlink:href="img/3.png"/>
<path d="M204,717.6c0,0,-26.8,11.3,-51.1,-12.8c0,0,15.2,25.3,49.3,24c0,0,24.8,.3,20.3,-10.1c0,0,1.2,-4.5,-18.5,-1.1Z" class="gc_80"/>
<path d="M209.2,1036.1c0,0,-13,0,-13,12.9v21.7c0,0,0,13,13,13h602c0,0,13,0,13,-13V1049c0,0,0,-12.9,-13,-12.9Z" class="gc_80"/>
<image clip-path="url(#c4_80)" preserveAspectRatio="none" x="152" y="1006" width="75" height="77" xlink:href="img/4.png"/>
<path d="M204,1076.3c0,0,-26.8,11.3,-51.1,-12.7c0,0,15.2,25.3,49.3,23.9c0,0,24.8,.4,20.3,-10.1c0,0,1.2,-4.4,-18.5,-1.1Z" class="gc_80"/>
<path d="M131.7,109.5v39l11.7,10.2V136.5Z" class="gd_80"/>
<path d="M131.7,109.5v39H829.5c0,0,16.8,0,16.8,-16.8v-5.4c0,0,0,-16.8,-16.8,-16.8Z" class="g6_80"/>
<path d="M768.8,131c0,0,-.5,-10,8.6,-9.4c0,0,6.7,-.3,6.6,9.5m-15.3,-1.5v6.5c0,0,-3.3,.3,-3.9,-3c0,0,-.1,-3.8,3.9,-3.5Zm15.4,0v6.5c0,0,3.3,.3,3.9,-3c0,0,.1,-3.8,-3.9,-3.5Z" class="ge_80"/>
<path d="M147.4,140.8h61v-32h-61v32Z" class="gf_80"/>
<path d="M147.4,143.1h61v-2.3h-61v2.3Z" class="gf_80"/>
<path d="M171.8,106.2H152.1v31.5h25.8V112.3c0,-3.4,-2.7,-6.1,-6.1,-6.1Z" class="g4_80"/>
<path d="M171.8,106.2v-.5H152.1c-.1,0,-.3,.1,-.4,.2c-.1,.1,-.1,.2,-.1,.3v31.5c0,.1,0,.3,.1,.4c.1,.1,.3,.1,.4,.1h25.8c.1,0,.2,0,.3,-.1c.1,-.1,.2,-.3,.2,-.4V112.3c0,-3.7,-2.9,-6.6,-6.6,-6.6v1c1.6,0,2.9,.7,3.9,1.7c1,1,1.6,2.3,1.6,3.9v24.9H152.6V106.7h19.2Z" class="gg_80"/>
<path d="M152.1,131.7v6h25.8c0,-3.3,-2.7,-6,-6.1,-6Z" class="g4_80"/>
<path d="M152.1,131.7h-.5v6c0,.1,0,.3,.1,.4c.1,.1,.3,.1,.4,.1h25.8c.1,0,.2,0,.3,-.1c.1,-.1,.2,-.3,.2,-.4c0,-3.6,-3,-6.6,-6.6,-6.6H152.1c-.1,0,-.3,.1,-.4,.2c-.1,.1,-.1,.2,-.1,.4h.5v.5h19.7c1.6,0,2.9,.6,3.9,1.6c1,1,1.6,2.4,1.6,3.9h.6v-.5H152.6v-5.5h-.5v.5Z" class="gg_80"/>
<path d="M155.6,110.9h17.2m-17.2,2.8h17.2m-17.2,2.9h17.2m-17.2,2.9h17.2m-17.2,2.8h17.2m-17.2,2.9h17.2M155.6,128h17.2" class="gh_80"/>
<path d="M171.8,132.2H152.6v5h24.7c-.1,-1.3,-.7,-2.5,-1.6,-3.4c-1,-1,-2.3,-1.6,-3.9,-1.6Z" class="gi_80"/>
<path d="M152.6,132.2h19.2c1.6,0,2.9,.6,3.9,1.6c.9,.9,1.5,2.1,1.6,3.4H152.6Zm19.2,-.5H152.1v6h25.2v-2.5c-.9,-2.1,-3,-3.5,-5.5,-3.5Z" class="gj_80"/>
<path d="M183.9,106.2h19.7v31.5H177.9V112.3c0,-3.4,2.7,-6.1,6,-6.1Z" class="g4_80"/>
<path d="M183.9,106.2v.5h19.2v30.5H178.4V112.3c0,-1.6,.6,-2.9,1.6,-3.9c1,-1,2.4,-1.7,3.9,-1.7v-1c-3.6,0,-6.6,2.9,-6.6,6.6v25.4c0,.1,.1,.3,.2,.4c.1,.1,.2,.1,.4,.1h25.7c.2,0,.3,0,.4,-.1c.1,-.1,.1,-.3,.1,-.4V106.2c0,-.1,0,-.2,-.1,-.3c-.1,-.1,-.2,-.2,-.4,-.2H183.9Z" class="gg_80"/>
<path d="M203.6,131.7v6H177.9c0,-3.3,2.7,-6,6,-6Z" class="g4_80"/>
<path d="M203.6,131.7h-.5v5.5H177.9v.5h.5c0,-1.5,.6,-2.9,1.6,-3.9c1,-1,2.4,-1.6,3.9,-1.6h19.7v-.5h-.5h.5v-.6H183.9c-3.6,0,-6.6,3,-6.6,6.6c0,.1,.1,.3,.2,.4c.1,.1,.2,.1,.4,.1h25.7c.2,0,.3,0,.4,-.1c.1,-.1,.1,-.3,.1,-.4v-6c0,-.2,0,-.3,-.1,-.4c-.1,-.1,-.2,-.2,-.4,-.2Z" class="gg_80"/>
<path d="M200.1,110.9H182.9m17.2,2.8H182.9m17.2,2.9H182.9m17.2,2.9H182.9m17.2,2.8H182.9m17.2,2.9H182.9m17.2,2.8H182.9" class="gh_80"/>
<path clip-path="url(#c5_80)" d="M178.4,137.2h24.7v-5H178.4v5Z" class="gi_80"/>
<path clip-path="url(#c6_80)" d="M178.4,137.2c.1,-1.3,.7,-2.5,1.6,-3.4c1,-1,2.4,-1.6,3.9,-1.6h19.2v5Zm25.2,-5.5H183.9c-3.3,0,-6,2.7,-6,6h25.7v-6h-.5h.5Z" class="gj_80"/>
<path d="M177.9,108.8v34.3" class="gh_80"/>
<path d="M195.5,145.5h3.3V134.7h-3.3v10.8Z" class="gk_80"/>
<path d="M149,166.3c0,0,-17.3,0,-17.3,17.4V322.2c0,0,0,17.4,17.3,17.4H828.9c0,0,17.4,0,17.4,-17.4V183.7c0,0,0,-17.4,-17.4,-17.4Z" class="gl_80"/>
<path d="M229.1,238H488.9v25.9H229.1V238Zm259.8,0H748.8v25.9H488.9V238Z" class="gm_80"/>
<path d="M229.1,263.9H488.9v26H229.1v-26Zm259.8,0H748.8v26H488.9v-26Z" class="g4_80"/>
<path d="M229.1,238H488.9m0,0H748.8M488.9,263.7V238.1M229.1,263.9H488.9m0,0H748.8M488.9,289.7V264.1M229.1,289.9H488.9m0,0H748.8" class="gn_80"/>
<path d="M132.5,602.1h713V399.3h-713V602.1Z" class="go_80"/>
<path d="M132.5,404V599.8m4.5,2.3H843.2m2.3,-4.6V401.6m-4.6,-2.3H134.7" class="gp_80"/>
<path d="M132.5,602.1v0m713,0v0m0,-202.8v0m-713,0v0" class="gq_80"/>
<path d="M131.7,402.6V374c0,0,0,-8.7,8.6,-8.7H837.6c0,0,8.7,0,8.7,8.7v29.1Z" class="gr_80"/>
<path d="M153.3,426c0,0,4.8,5.6,6.1,12.4c0,0,6.7,-11.4,11.7,-14c0,0,-9.3,4.9,-11.1,8.2c0,0,-1.9,-4.3,-6.7,-6.6Z" class="gs_80"/>
<path d="M161.8,394.2l2.9,3l8.2,-8.2l-3,-2.9Z" class="g4_80"/>
<path d="M164.7,398.2v0c.3,0,.6,-.2,.7,-.3l8.2,-8.2c.2,-.2,.3,-.4,.3,-.7c0,-.2,-.1,-.5,-.3,-.7l-3,-2.9c-.4,-.4,-1,-.4,-1.4,0l-8.1,8.1c-.4,.4,-.4,1,0,1.4l2.9,3c.2,.1,.5,.3,.7,.3m6.8,-9.2l-6.8,6.8l-1.5,-1.6l6.7,-6.7Z" class="gt_80"/>
<path d="M168.3,367.2c-6.5,6.6,-6.5,17.2,0,23.7c6.6,6.5,17.2,6.5,23.7,0c6.5,-6.5,6.5,-17.1,0,-23.7c-6.5,-6.5,-17.1,-6.5,-23.7,0Z" class="gu_80"/>
<path d="M180.2,396.8c4.7,0,9.2,-1.9,12.5,-5.2c6.9,-6.9,6.9,-18.2,0,-25.1c-3.3,-3.3,-7.8,-5.2,-12.5,-5.2c-4.8,0,-9.2,1.9,-12.6,5.2c-6.9,6.9,-6.9,18.2,0,25.1c3.4,3.3,7.8,5.2,12.6,5.2m0,-33.5c4.2,0,8.1,1.6,11.1,4.6c6.2,6.2,6.2,16.2,0,22.3c-3,3,-6.9,4.6,-11.1,4.6c-4.2,0,-8.2,-1.6,-11.2,-4.6c-6.1,-6.1,-6.1,-16.1,0,-22.3c3,-3,7,-4.6,11.2,-4.6Z" class="gt_80"/>
<path d="M154.3,399.4l5.3,5.2l8.1,-8.2l-5.2,-5.2Z" class="gv_80"/>
<path d="M159.6,405.6c.2,0,.5,-.1,.7,-.3l8.1,-8.2c.2,-.2,.3,-.4,.3,-.7c0,-.2,-.1,-.5,-.3,-.7l-5.2,-5.2c-.4,-.4,-1,-.4,-1.4,0l-8.2,8.2c-.4,.4,-.4,1,0,1.4l5.3,5.2c.2,.2,.4,.3,.7,.3m6.7,-9.2l-6.7,6.8l-3.9,-3.8l6.8,-6.8Z" class="gt_80"/>
<path d="M168.1,379.2c0,6.6,5.4,11.9,12,11.9c6.6,0,11.9,-5.3,11.9,-11.9c0,-6.6,-5.3,-12,-11.9,-12c-6.6,0,-12,5.4,-12,12Z" class="g4_80"/>
<path d="M180.1,391.9c7,0,12.7,-5.7,12.7,-12.7c0,-7.1,-5.7,-12.8,-12.7,-12.8c-7.1,0,-12.8,5.7,-12.8,12.8c0,7,5.7,12.7,12.8,12.7m0,-23.9c6.1,0,11.1,5,11.1,11.2c0,6.1,-5,11.1,-11.1,11.1c-6.2,0,-11.2,-5,-11.2,-11.1c0,-6.2,5,-11.2,11.2,-11.2Z" class="gt_80"/>
<path d="M32.1,45.1H9.2m958.3,0h22.9M32.1,1331.3H9.2m958.3,0h22.9M45.1,32.1V9.2m0,1335.1v22.9M954.5,32.1V9.2m0,1335.1v22.9" class="gw_80"/>
<path d="M32.1,45.1H9.2m958.3,0h22.9M32.1,1331.3H9.2m958.3,0h22.9M45.1,32.1V9.2m0,1335.1v22.9M954.5,32.1V9.2m0,1335.1v22.9" class="gx_80"/>
<path d="M27.5,32.1H0m972.1,0h27.5M27.5,1344.3H0m972.1,0h27.5M32.1,27.5V0m0,1348.9v27.5M967.5,27.5V0m0,1348.9v27.5" class="gw_80"/>
<path d="M27.5,32.1H0m972.1,0h27.5M27.5,1344.3H0m972.1,0h27.5M32.1,27.5V0m0,1348.9v27.5M967.5,27.5V0m0,1348.9v27.5" class="gx_80"/>
</svg>