<?xml version="1.0" encoding="UTF-8" standalone="no"?>
<!DOCTYPE svg PUBLIC "-//W3C//DTD SVG 1.1//EN"
"http://www.w3.org/Graphics/SVG/1.1/DTD/svg11.dtd">
<svg viewBox="0 0 999 1376" version="1.1" xmlns="http://www.w3.org/2000/svg" xmlns:xlink="http://www.w3.org/1999/xlink">
<defs>
<clipPath id="c0_129"><path d="M199.2,241.2l-6.5,-2.1L176.3,225.2V168.1h72v73.1Z"/></clipPath>
<clipPath id="c1_129"><path d="M199.2,682.4l-6.5,-2.1l-16.4,-14V609.2h72v73.2Z"/></clipPath>
<clipPath id="c2_129"><path d="M199.2,1238.1l-6.5,-2.1l-16.4,-13.9V1165h72v73.1Z"/></clipPath>
<clipPath id="c3_129"><path d="M786.5,132.5V120.1H801v12.4Z"/></clipPath>
<clipPath id="c4_129"><path d="M690.8,577.8V326.5h236V577.8Z"/></clipPath>
<clipPath id="c5_129"><path d="M691.2,578.1V326.7H923.8V578.1Z"/></clipPath>
<clipPath id="c6_129"><path d="M690.9,577.7V326.4H923.5V577.7Z"/></clipPath>
<clipPath id="c7_129"><path d="M804.2,343.6q-.1,0,-.1,0c-.2,-.1,3.6,-8.3,3.6,-8.3l.8,.6c0,0,-4.1,7.7,-4.3,7.7Z"/></clipPath>
<clipPath id="c8_129"><path d="M811.7,335.8c0,0,-6.9,-1.1,-7.6,-5.2c-.7,-3.6,1.5,-3.8,2,-3.8c.1,0,.2,0,.2,0L814.6,314l-1.5,-3c0,0,-.6,-1.1,.2,-2.1c0,-.1,.1,-.1,.3,-.1c2.1,0,12.9,5.5,12.9,5.5l.1,.2c-.4,.5,-.7,1.1,-1.4,1.6c-.7,.5,-5.1,1.2,-5.1,1.2l-8.4,18.5Z"/></clipPath>
<clipPath id="c9_129"><path d="M811.3,335.5c.2,-.5,.2,-1.8,0,-2.3v-1.4c-1.6,-.5,-2.9,-1.2,-3.7,-2.5c-1.1,.6,-2.1,1.3,-3.1,1.9c1.5,2.1,3.8,3.6,6.8,4.3Zm0,-3.9c2.1,-4.6,3.9,-9.5,6.1,-14.1c-.9,-.4,-1.8,-1.3,-2.6,-1.4c-2.3,4.4,-4.6,8.7,-7.1,12.9c.8,1.3,2.1,2,3.6,2.6ZM804,343.7c1,-2.9,2.4,-5.5,3.5,-8.3c-2,-1.6,-3.9,-3.2,-4.4,-6.2v-1.5c-.1,-2.7,1.9,-3.4,4.6,-3.4c0,0,.1,0,.2,0c1.9,-3.3,4.2,-6.3,6.1,-9.7c-.6,-.8,-1.1,-2.3,-.9,-3.6c.5,1.2,1.7,1.9,2.4,2.9c-.1,.6,-.3,1.1,-.4,1.7c.6,.7,1.4,1.2,2.4,1.4c.5,-.4,.5,-1.2,1.2,-1.5c.9,.4,1.8,.8,3.1,.8c.1,.1,.5,.1,.8,.1c.4,0,.7,0,.8,-.1c.1,0,.3,0,.4,0c.2,0,.4,-.1,.6,-.1c.1,-.1,.3,-.2,.5,-.2c.1,0,.2,.1,.3,.1c-1.3,.7,-2.2,1.8,-4.2,1.8c-.1,0,-.2,0,-.3,0c-.9,3.7,-1.9,7.4,-2.7,11.2c.6,1,1.5,1.7,1.3,3.1c-.5,2.7,-3.9,4.4,-7.2,4.4c-1.3,0,-2.5,-.2,-3.6,-.7c-1,2.1,-2.1,4.1,-3.3,6c0,-.4,.3,-.4,.3,-.8c.9,-1.8,1.9,-3.5,2.6,-5.6c-1.1,1.7,-1.8,3.7,-2.8,5.5c-.2,.4,-.4,.9,-.6,1.3c-.3,.4,-.3,1.1,-.7,1.4Z"/></clipPath>
<clipPath id="ca_129"><path d="M821.7,315.9c-4.8,0,-13.1,-7.3,-5.5,-8.8h1.2c.2,0,.4,0,.7,0q.1,0,.1,0c.3,0,.6,0,1,.1c3,.7,8.2,3.8,7.5,7c-.2,1.2,-1.5,1.6,-3.1,1.7h-1.8c0,0,-.1,0,-.1,0Z"/></clipPath>
<clipPath id="cb_129"><path d="M81.5,572.6V322.3H302.1V572.6Z"/></clipPath>
<clipPath id="cc_129"><path d="M77.7,580.5v-264H303.8v264Z"/></clipPath>
<clipPath id="cd_129"><path d="M77.4,580.2v-264H303.5v264Z"/></clipPath>
<clipPath id="ce_129"><path d="M174.3,337.1c-.2,-.1,3.6,-8.2,3.6,-8.2l.8,.5c0,0,-4.1,7.7,-4.4,7.7Z"/></clipPath>
<clipPath id="cf_129"><path d="M181.8,329.3c0,0,-6.8,-1.1,-7.5,-5.2c-.7,-3.6,1.5,-3.8,2,-3.8c.1,0,.2,0,.2,0l8.3,-12.7l-1.5,-3.1c0,0,-.6,-1.1,.2,-2.1c0,-.1,.1,-.1,.3,-.1c2.1,0,12.9,5.5,12.9,5.5l.1,.2c-.4,.5,-.8,1.1,-1.4,1.6c-.7,.5,-5.1,1.2,-5.1,1.2l-8.5,18.5Z"/></clipPath>
<clipPath id="cg_129"><path d="M181.4,329c.2,-.5,.2,-1.8,0,-2.3v-1.4c-1.5,-.5,-2.8,-1.2,-3.6,-2.5c-1.1,.6,-2.1,1.3,-3.2,1.9c1.6,2.1,3.9,3.6,6.8,4.3Zm0,-3.9c2.2,-4.6,4,-9.5,6.2,-14.1c-.9,-.4,-1.9,-1.3,-2.6,-1.4c-2.3,4.4,-4.7,8.7,-7.1,12.8c.7,1.4,2.1,2.1,3.5,2.7Zm-7.3,12.1c1.1,-2.9,2.4,-5.5,3.6,-8.3c-2,-1.6,-4,-3.2,-4.4,-6.2v-1.5c-.1,-2.7,1.9,-3.4,4.6,-3.4c0,0,.1,0,.1,0c2,-3.3,4.3,-6.3,6.2,-9.7c-.6,-.8,-1.2,-2.3,-.9,-3.6c.5,1.2,1.6,1.9,2.4,2.9c-.1,.6,-.3,1.1,-.4,1.7c.6,.7,1.4,1.2,2.4,1.4c.5,-.4,.5,-1.2,1.1,-1.5c1,.4,1.9,.8,3.2,.8c.1,.1,.5,.1,.8,.1c.3,0,.7,0,.8,-.1c.1,0,.2,0,.3,0c.3,0,.5,-.1,.6,-.1c.2,-.1,.4,-.2,.6,-.2c.1,0,.2,.1,.3,.1c-1.3,.7,-2.2,1.8,-4.2,1.8c-.1,0,-.2,0,-.3,0c-.9,3.7,-1.9,7.4,-2.7,11.2c.6,1,1.5,1.7,1.3,3.1c-.5,2.7,-3.9,4.4,-7.2,4.4c-1.3,0,-2.5,-.2,-3.6,-.7c-1,2.1,-2.1,4.1,-3.3,6c0,-.4,.3,-.4,.3,-.8c.9,-1.8,1.9,-3.5,2.6,-5.6c-1.1,1.7,-1.8,3.7,-2.8,5.5c-.2,.4,-.4,.9,-.6,1.3c-.3,.4,-.3,1.1,-.8,1.4Z"/></clipPath>
<clipPath id="ch_129"><path d="M191.9,309.4c-4.8,0,-13.1,-7.3,-5.6,-8.8h1.3c.2,0,.4,0,.7,0q.1,0,.2,0c.3,0,.5,.1,.8,.1c3.1,.7,8.3,3.8,7.6,7.1c-.3,1.1,-1.6,1.5,-3.2,1.6H192c0,0,-.1,0,-.1,0Z"/></clipPath>
<style type="text/css"><![CDATA[
.g0_129{
fill: #FEFCF4;
}
.g1_129{
fill: #FFF;
}
.g2_129{
fill: none;
stroke: #6381B7;
stroke-width: 0.763;
}
.g3_129{
fill: #FCE8B0;
}
.g4_129{
fill: #6381B7;
}
.g5_129{
fill: none;
stroke: #6381B7;
stroke-width: 0.381;
stroke-dasharray: 2,1;
}
.g6_129{
fill: none;
stroke: #6381B7;
stroke-width: 0.381;
}
.g7_129{
fill: #25408F;
}
.g8_129{
fill: #A8AAAD;
}
.g9_129{
fill: none;
stroke: #949698;
stroke-width: 0.549;
}
.ga_129{
fill: none;
stroke: #BCBEC0;
stroke-width: 2.566;
}
.gb_129{
fill: #231F20;
}
.gc_129{
fill: #363637;
}
.gd_129{
fill: #5CC4BE;
}
.ge_129{
fill: #F0D73F;
}
.gf_129{
fill: none;
stroke: #949698;
stroke-width: 0.305;
stroke-dasharray: 3,3;
}
.gg_129{
fill: none;
stroke: #949698;
stroke-width: 0.305;
}
.gh_129{
fill: #F7C2D9;
}
.gi_129{
fill: #FDF4F3;
}
.gj_129{
fill: #EC008C;
}
.gk_129{
fill: none;
stroke: #949698;
stroke-width: 0.305;
stroke-dasharray: 4,4;
}
.gl_129{
fill: #6D6F71;
}
.gm_129{
fill: none;
stroke: #00ABE5;
stroke-width: 2.291;
}
.gn_129{
fill: #3D3B39;
}
.go_129{
fill: #E5E9B7;
}
.gp_129{
fill: #61C7CB;
}
.gq_129{
fill: none;
stroke: #00ABE5;
stroke-width: 1.527;
stroke-linecap: round;
stroke-linejoin: round;
stroke-dasharray: 0,5;
}
.gr_129{
fill: none;
stroke: #00ABE5;
stroke-width: 1.527;
stroke-linecap: round;
stroke-linejoin: round;
}
.gs_129{
fill: none;
stroke: #FFF;
stroke-width: 1.909;
stroke-miterlimit: 10;
}
.gt_129{
fill: none;
stroke: #000;
stroke-width: 0.381;
stroke-miterlimit: 10;
}
]]></style>
</defs>
<path d="M45.1,1344.3H967.5V32.1H45.1V1344.3Z" class="g0_129"/>
<path d="M172.1,137.3c0,0,-18.4,0,-18.4,18.4V564.3c0,0,0,18.3,18.4,18.3H850.4c0,0,18.4,0,18.4,-18.3v-427Z" class="g1_129"/>
<path d="M172.1,137.3c0,0,-18.4,0,-18.4,18.4V564.3c0,0,0,18.3,18.4,18.3H850.4c0,0,18.4,0,18.4,-18.3v-427H172.1Z" class="g2_129"/>
<path d="M231.8,170.2c0,0,-13,0,-13,13v47.7c0,0,0,13,13,13h602c0,0,13,0,13,-13V183.2c0,0,0,-13,-13,-13Z" class="g3_129"/>
<image clip-path="url(#c0_129)" preserveAspectRatio="none" x="175" y="166" width="75" height="77" xlink:href="img/1.png"/>
<path d="M226.6,236.5c0,0,-26.9,11.3,-51.1,-12.8c0,0,15.1,25.3,49.3,24c0,0,24.7,.3,20.2,-10.1c0,0,1.2,-4.5,-18.4,-1.1Z" class="g3_129"/>
<path d="M539.1,786.2c0,0,-4.4,0,-4.4,4.4v10.8c0,0,0,4.3,4.4,4.3h30.3c0,0,4.3,0,4.3,-4.3V790.6c0,0,0,-4.4,-4.3,-4.4Z" class="g4_129"/>
<path d="M525.9,777.4v37.5m1.3,1H868m1,-1.3V777m-1.4,-.9H526.8" class="g5_129"/>
<path d="M525.9,815.3v.6h.5m342,0h.6v-.6m0,-38.7v-.5h-.6m-342,0h-.5v.5" class="g6_129"/>
<path d="M166.6,596.1c0,0,-13,0,-13,13V758.2c0,0,0,12.9,13,12.9H854.4c0,0,13,0,13,-12.9V609.1c0,0,0,-13,-13,-13Z" class="g1_129"/>
<path d="M166.6,596.1c0,0,-13,0,-13,13V758.2c0,0,0,12.9,13,12.9H854.4c0,0,13,0,13,-12.9V609.1c0,0,0,-13,-13,-13H166.6Z" class="g2_129"/>
<path d="M231.8,637.4c0,0,-13,0,-13,13V672c0,0,0,13,13,13h602c0,0,13,0,13,-13V650.4c0,0,0,-13,-13,-13Z" class="g3_129"/>
<image clip-path="url(#c1_129)" preserveAspectRatio="none" x="175" y="608" width="75" height="76" xlink:href="img/2.png"/>
<path d="M226.6,677.7c0,0,-26.9,11.3,-51.1,-12.8c0,0,15.1,25.3,49.3,24c0,0,24.7,.3,20.2,-10.2c0,0,1.2,-4.4,-18.4,-1Z" class="g3_129"/>
<path d="M231.8,1149.8c0,0,-13,0,-13,13v65c0,0,0,13,13,13H855.4c0,0,13,0,13,-13v-65c0,0,0,-13,-13,-13Z" class="g3_129"/>
<image clip-path="url(#c2_129)" preserveAspectRatio="none" x="175" y="1163" width="75" height="77" xlink:href="img/3.png"/>
<path d="M226.6,1233.4c0,0,-26.9,11.3,-51.1,-12.7c0,0,15.1,25.3,49.3,23.9c0,0,24.7,.4,20.2,-10.1c0,0,1.2,-4.4,-18.4,-1.1Z" class="g3_129"/>
<path d="M153.3,111.9v39L165,161.2V117Z" class="g7_129"/>
<path d="M153.3,111.9v39H851.1c0,0,16.8,0,16.8,-16.8v-5.3c0,0,0,-16.9,-16.8,-16.9Z" class="g4_129"/>
<path d="M802.6,145.6c8.2,0,14.9,-6.5,14.9,-14.5c0,-8.1,-6.7,-14.5,-14.9,-14.5c-8.2,0,-14.9,6.4,-14.9,14.5c0,8,6.7,14.5,14.9,14.5Z" class="g8_129"/>
<path d="M802.6,145.6c8.2,0,14.9,-6.5,14.9,-14.5c0,-8.1,-6.7,-14.5,-14.9,-14.5c-8.2,0,-14.9,6.4,-14.9,14.5c0,8,6.7,14.5,14.9,14.5Z" class="g9_129"/>
<path d="M802.6,136.4c3,0,5.5,-2.4,5.5,-5.3c0,-3,-2.5,-5.4,-5.5,-5.4c-3,0,-5.5,2.4,-5.5,5.4c0,2.9,2.5,5.3,5.5,5.3Z" class="g1_129"/>
<path d="M802.6,136.4c3,0,5.5,-2.4,5.5,-5.3c0,-3,-2.5,-5.4,-5.5,-5.4c-3,0,-5.5,2.4,-5.5,5.4c0,2.9,2.5,5.3,5.5,5.3Z" class="ga_129"/>
<g clip-path="url(#c3_129)" opacity="0.3">
<path d="M788,130.3c0,0,0,-4.8,3.7,-8.7l7.7,6.8c0,0,-1,.9,-1,2.6Z" class="g1_129"/>
</g>
<path d="M807.2,131c0,0,-3.5,0,-3.5,3.4v8.7c0,0,0,3.5,3.5,3.5h43.5c0,0,3.5,0,3.5,-3.5v-8.7c0,0,0,-3.4,-3.5,-3.4Z" class="gb_129"/>
<path d="M191.2,122c0,-8.3,-6.8,-15,-15.1,-15c-8.3,0,-15,6.7,-15,15c0,8.3,6.7,15.1,15,15.1c.8,0,1.7,-.1,2.4,-.2l4.5,5.2v-6.7c4.9,-2.5,8.2,-7.6,8.2,-13.4Z" class="g1_129"/>
<path d="M183.5,143.3l-5.1,-5.9c-.8,.1,-1.5,.1,-2.3,.1c-8.5,0,-15.5,-6.9,-15.5,-15.5c0,-8.5,7,-15.5,15.5,-15.5c8.6,0,15.5,7,15.5,15.5c0,5.7,-3.1,11,-8.1,13.7Zm-4.8,-6.9l3.9,4.5v-5.8l.2,-.1c4.9,-2.5,7.9,-7.5,7.9,-13c0,-8,-6.5,-14.6,-14.6,-14.6c-8,0,-14.6,6.6,-14.6,14.6c0,8.1,6.6,14.6,14.6,14.6c.8,0,1.6,-.1,2.4,-.2Z" class="gc_129"/>
<path d="M169.1,121.6c.8,0,1.4,.6,1.4,1.4c0,.8,-.6,1.5,-1.4,1.5c-.8,0,-1.4,-.7,-1.4,-1.5c0,-.8,.6,-1.4,1.4,-1.4Z" class="gd_129"/>
<path d="M169.1,124.9c-1,0,-1.9,-.8,-1.9,-1.9c0,-1,.9,-1.9,1.9,-1.9c1,0,1.9,.9,1.9,1.9c0,1.1,-.9,1.9,-1.9,1.9m0,-2.9c-.5,0,-1,.5,-1,1c0,.6,.5,1,1,1c.5,0,1,-.4,1,-1c0,-.5,-.5,-1,-1,-1Z" class="gc_129"/>
<path d="M176.1,121.6c.8,0,1.5,.6,1.5,1.4c0,.8,-.7,1.5,-1.5,1.5c-.8,0,-1.4,-.7,-1.4,-1.5c0,-.8,.6,-1.4,1.4,-1.4Z" class="gd_129"/>
<path d="M176.1,124.9c-1,0,-1.9,-.8,-1.9,-1.9c0,-1,.9,-1.9,1.9,-1.9c1.1,0,1.9,.9,1.9,1.9c0,1.1,-.8,1.9,-1.9,1.9m0,-2.9c-.5,0,-1,.5,-1,1c0,.6,.5,1,1,1c.6,0,1,-.4,1,-1c0,-.5,-.4,-1,-1,-1Z" class="gc_129"/>
<path d="M183.1,121.6c.8,0,1.5,.6,1.5,1.4c0,.8,-.7,1.5,-1.5,1.5c-.8,0,-1.4,-.7,-1.4,-1.5c0,-.8,.6,-1.4,1.4,-1.4Z" class="gd_129"/>
<path d="M183.1,124.9c-1,0,-1.9,-.8,-1.9,-1.9c0,-1,.9,-1.9,1.9,-1.9c1.1,0,1.9,.9,1.9,1.9c0,1.1,-.8,1.9,-1.9,1.9m0,-2.9c-.5,0,-1,.5,-1,1c0,.6,.5,1,1,1c.6,0,1,-.4,1,-1c0,-.5,-.4,-1,-1,-1Z" class="gc_129"/>
<path d="M185.1,136.3c0,-9.8,7.8,-17.7,17.6,-17.7c9.7,0,17.6,7.9,17.6,17.7c0,9.7,-7.9,17.6,-17.6,17.6c-1,0,-1.9,-.1,-2.9,-.3l-5.2,6.1v-7.8c-5.7,-2.9,-9.5,-8.8,-9.5,-15.6Z" class="ge_129"/>
<path d="M194.6,160.2q-.1,0,-.2,0c-.2,-.1,-.3,-.3,-.3,-.5v-7.5c-5.9,-3.2,-9.5,-9.2,-9.5,-15.9c0,-10,8.1,-18.1,18.1,-18.1c9.9,0,18,8.1,18,18.1c0,9.9,-8.1,18,-18,18c-.9,0,-1.8,0,-2.7,-.2l-5.1,5.9c-.1,.1,-.2,.2,-.3,.2m8.1,-41.1c-9.5,0,-17.2,7.7,-17.2,17.2c0,6.4,3.6,12.2,9.3,15.2c.1,.1,.2,.2,.2,.4v6.6l4.5,-5.2c.1,-.1,.3,-.1,.4,-.1c1,.1,1.9,.2,2.8,.2c9.4,0,17.1,-7.7,17.1,-17.1c0,-9.5,-7.7,-17.2,-17.1,-17.2Z" class="gc_129"/>
<path d="M210.9,135.8c.9,0,1.6,.7,1.6,1.6c0,1,-.7,1.7,-1.6,1.7c-1,0,-1.7,-.7,-1.7,-1.7c0,-.9,.7,-1.6,1.7,-1.6Z" class="g1_129"/>
<path d="M210.9,139.6c-1.2,0,-2.2,-1,-2.2,-2.2c0,-1.1,1,-2.1,2.2,-2.1c1.1,0,2.1,1,2.1,2.1c0,1.2,-1,2.2,-2.1,2.2m0,-3.4c-.7,0,-1.3,.6,-1.3,1.2c0,.7,.6,1.3,1.3,1.3c.6,0,1.2,-.6,1.2,-1.3c0,-.6,-.6,-1.2,-1.2,-1.2Z" class="gc_129"/>
<path d="M202.7,135.8c.9,0,1.6,.7,1.6,1.6c0,1,-.7,1.7,-1.6,1.7c-1,0,-1.7,-.7,-1.7,-1.7c0,-.9,.7,-1.6,1.7,-1.6Z" class="g1_129"/>
<path d="M202.7,139.6c-1.2,0,-2.2,-1,-2.2,-2.2c0,-1.1,1,-2.1,2.2,-2.1c1.1,0,2.1,1,2.1,2.1c0,1.2,-1,2.2,-2.1,2.2m0,-3.4c-.7,0,-1.3,.6,-1.3,1.2c0,.7,.6,1.3,1.3,1.3c.6,0,1.2,-.6,1.2,-1.3c0,-.6,-.6,-1.2,-1.2,-1.2Z" class="gc_129"/>
<path d="M194.5,135.8c.9,0,1.6,.7,1.6,1.6c0,1,-.7,1.7,-1.6,1.7c-1,0,-1.7,-.7,-1.7,-1.7c0,-.9,.7,-1.6,1.7,-1.6Z" class="g1_129"/>
<path d="M194.5,139.6c-1.2,0,-2.2,-1,-2.2,-2.2c0,-1.1,1,-2.1,2.2,-2.1c1.1,0,2.1,1,2.1,2.1c0,1.2,-1,2.2,-2.1,2.2m0,-3.4c-.7,0,-1.2,.6,-1.2,1.2c0,.7,.5,1.3,1.2,1.3c.6,0,1.2,-.6,1.2,-1.3c0,-.6,-.6,-1.2,-1.2,-1.2Z" class="gc_129"/>
<path d="M535.4,421.9c5.2,-1.5,9.2,-5.7,10.3,-11m-.4,-7.1c-1.6,-5.1,-5.9,-8.9,-11.3,-10m-7.2,.4c-5.2,1.5,-9.2,5.7,-10.3,11m.3,7.1c1.6,5.1,6,9,11.4,10" class="gf_129"/>
<path d="M545.9,409.5c.1,-.5,.1,-1,.1,-1.4c0,-.5,0,-1,-.1,-1.5m-13.4,-13c-.4,0,-.9,0,-1.4,0c-.5,0,-1,0,-1.5,0m-13.3,13c-.1,.5,-.1,1,-.1,1.5c0,.4,0,.9,.1,1.4m13.3,13c.5,0,1,0,1.5,0c.5,0,1,0,1.4,0" class="gg_129"/>
<image clip-path="url(#c4_129)" preserveAspectRatio="none" x="691" y="327" width="236" height="251" xlink:href="img/4.png"/>
<path d="M703.9,331.5L695.5,564L911,571.3l9.3,-232.6Z" class="gh_129"/>
<image clip-path="url(#c5_129)" preserveAspectRatio="none" x="691" y="327" width="233" height="251" xlink:href="img/5.png"/>
<image clip-path="url(#c6_129)" preserveAspectRatio="none" x="691" y="327" width="232" height="251" xlink:href="img/6.png"/>
<path d="M696.1,338.6l7.8,232.8l182,-6.3l31.3,-28.8L910.5,331.1Z" class="gi_129"/>
<path d="M885.9,565l31.6,-28.9l-15.2,-4.7Z" class="gj_129"/>
<path d="M540.1,392.2c10.9,-4.9,24.2,-5.7,30.3,-5.8M578,388c8.7,2.8,28.5,7.7,40.2,-1.4m2.5,-7.4c-.3,-1.8,-1.4,-3.1,-3.9,-1.9" class="gk_129"/>
<path d="M612.9,383.4c-.4,4.6,1.6,10.3,16.9,3.8" class="gf_129"/>
<path d="M636.2,383.4c8.2,-5.3,28.7,-16.8,50.2,-14.9" class="gk_129"/>
<path d="M535.8,394.5c.5,-.3,.9,-.6,1.4,-.9M572,386.4c1.1,0,1.6,.1,1.6,.1c0,0,.6,.2,1.5,.5m44.3,-1.4c.4,-.4,.7,-.7,1.1,-1.1c0,0,.1,-.7,.2,-1.7m-5.4,-4.7c-.4,.3,-.9,.7,-1.4,1.1c0,0,-.2,.5,-.5,1.4m17.8,6c.4,-.2,.8,-.4,1.3,-.6c0,0,.4,-.3,1.2,-.9m54.2,-16.5c.5,.1,1,.1,1.5,.2" class="gg_129"/>
<path d="M689.2,364.6l-.1,8.9l15.2,-5.9Z" class="gl_129"/>
<image clip-path="url(#c7_129)" x="803" y="335" width="6" height="9" xlink:href="shade/1.png"/>
<image clip-path="url(#c8_129)" x="803" y="308" width="24" height="28" xlink:href="shade/2.png"/>
<image clip-path="url(#c9_129)" x="803" y="310" width="23" height="34" xlink:href="shade/3.png"/>
<image clip-path="url(#ca_129)" x="808" y="307" width="20" height="9" xlink:href="shade/4.png"/>
<image clip-path="url(#cb_129)" preserveAspectRatio="none" x="81" y="323" width="221" height="250" xlink:href="img/7.png"/>
<path d="M87.8,327.4L86.5,564.8l207,1.6l2.1,-237.5Z" class="gh_129"/>
<image clip-path="url(#cc_129)" preserveAspectRatio="none" x="77" y="317" width="226" height="264" xlink:href="img/8.png"/>
<image clip-path="url(#cd_129)" preserveAspectRatio="none" x="77" y="317" width="226" height="263" xlink:href="img/9.png"/>
<path d="M82.2,332.7L97.7,574L266.9,564l30.2,-38.1L283.8,320.8Z" class="gi_129"/>
<path d="M267,564l30.1,-38l-21.4,-3.8Z" class="gj_129"/>
<path d="M411.8,545.9c16.5,-1,29.7,-6.6,32.6,-13.9m-.7,-7.7c-4.2,-6.8,-17.4,-11.9,-33.5,-12.5m-8.1,.1c-16.4,.9,-29.7,6.6,-32.6,13.8m.7,7.7c4.2,6.8,17.4,11.9,33.5,12.5" class="gk_129"/>
<path d="M444.9,530.5c.1,-.6,.2,-1.1,.2,-1.6c0,-.6,-.1,-1.1,-.2,-1.6M408.6,511.8c-.6,-.1,-1.1,-.1,-1.6,-.1c-.6,0,-1.1,0,-1.7,.1M369,527.3c-.1,.5,-.2,1,-.2,1.6c0,.5,.1,1,.2,1.6M405.3,546c.6,0,1.1,0,1.7,0c.5,0,1,0,1.6,0" class="gg_129"/>
<path d="M420.8,506.6C417.4,491,404.5,440.4,380.7,434.7" class="gk_129"/>
<path d="M374.1,437c-3.1,3,-5.7,8.1,2.5,13.5m6,-.7c.8,-.8,1.6,-1.9,2.1,-3.4m-.7,-6.9C381.1,432,371.1,416.9,336.6,410.9" class="gf_129"/>
<path d="M329.1,409.7c-9.9,-1.2,-34.7,-2.9,-58.8,5.9" class="gk_129"/>
<path d="M421.8,511.1c0,0,-.1,-.5,-.3,-1.5M379.2,434.4c-.5,-.1,-1,-.1,-1.6,-.2c0,0,-.5,.3,-1.2,.9m1.5,16.1c.4,.3,.9,.5,1.3,.8c0,0,.6,-.2,1.3,-.6m4.5,-6.3c.1,-.4,.1,-.9,.2,-1.3c0,0,-.1,-.6,-.3,-1.5M335.1,410.6c-.4,-.1,-.9,-.2,-1.4,-.2c0,0,-.5,-.1,-1.5,-.3m-63.3,6c-.5,.2,-1,.4,-1.4,.6" class="gg_129"/>
<path d="M274.6,417.5L270.8,411l-6.8,7.4Z" class="gl_129"/>
<image clip-path="url(#ce_129)" x="174" y="328" width="5" height="10" xlink:href="shade/5.png"/>
<image clip-path="url(#cf_129)" x="173" y="302" width="24" height="28" xlink:href="shade/6.png"/>
<image clip-path="url(#cg_129)" x="173" y="304" width="23" height="34" xlink:href="shade/7.png"/>
<image clip-path="url(#ch_129)" x="178" y="300" width="20" height="10" xlink:href="shade/8.png"/>
<path d="M154.5,860.8V832.1c0,0,0,-4.3,4.3,-4.3H862.4c0,0,4.4,0,4.4,4.3v29.2" class="gm_129"/>
<path d="M200.1,828.3c2.6,0,4.8,-2.1,4.8,-4.8c0,-2.6,-2.2,-4.8,-4.8,-4.8c-2.7,0,-4.8,2.2,-4.8,4.8c0,2.7,2.1,4.8,4.8,4.8Z" class="g1_129"/>
<path d="M200.1,830.2c3.6,0,6.7,-3,6.7,-6.7c0,-3.7,-3.1,-6.7,-6.7,-6.7c-3.7,0,-6.7,3,-6.7,6.7c0,3.7,3,6.7,6.7,6.7m0,-11.5c2.6,0,4.8,2.2,4.8,4.8c0,2.7,-2.2,4.8,-4.8,4.8c-2.7,0,-4.8,-2.1,-4.8,-4.8c0,-2.6,2.1,-4.8,4.8,-4.8Z" class="gn_129"/>
<path d="M205.5,832.1H194.6c-.1,0,-.3,0,-.4,.1c2.7,1,4.9,3.3,5.9,6.1c1.3,-.5,2.7,-.8,4.2,-.8c2.9,0,5.5,1,7.5,2.7v-1.7c0,-3.5,-2.8,-6.4,-6.3,-6.4Z" class="g1_129"/>
<path d="M184,829.2c3.4,0,6.1,-2.8,6.1,-6.2c0,-3.4,-2.7,-6.1,-6.1,-6.1c-3.4,0,-6.1,2.7,-6.1,6.1c0,3.4,2.7,6.2,6.1,6.2Z" class="go_129"/>
<path d="M184,831c4.4,0,8,-3.6,8,-8c0,-4.4,-3.6,-8,-8,-8c-4.4,0,-8,3.6,-8,8c0,4.4,3.6,8,8,8m0,-14.1c3.4,0,6.1,2.7,6.1,6.1c0,3.4,-2.7,6.2,-6.1,6.2c-3.4,0,-6.1,-2.8,-6.1,-6.2c0,-3.4,2.7,-6.1,6.1,-6.1Z" class="gn_129"/>
<path d="M198.4,839.2c-1,-3.4,-4.1,-5.8,-7.7,-5.8H177.3c-4.4,0,-8,3.6,-8,8v4.3h23.8c.9,-2.8,2.8,-5.1,5.3,-6.5Z" class="go_129"/>
<path d="M204.3,839.4c-5.5,0,-9.9,4.5,-9.9,10c0,5.5,4.4,10,9.9,10c5.5,0,10,-4.5,10,-10c0,-5.5,-4.5,-10,-10,-10m6.7,11.7c0,.3,-.2,.5,-.5,.5h-4v4c0,.3,-.2,.5,-.5,.5h-3.3c-.3,0,-.5,-.2,-.5,-.5v-4h-4.1c-.2,0,-.4,-.2,-.4,-.5v-3.4c0,-.2,.2,-.4,.4,-.4h4.1v-4.1c0,-.2,.2,-.5,.5,-.5H206c.3,0,.5,.3,.5,.5v4.1h4c.3,0,.5,.2,.5,.4Z" class="gp_129"/>
<path d="M213.7,842.1v-3.6c0,-4.6,-3.7,-8.3,-8.2,-8.3H194.6c-1.6,0,-3.1,.5,-4.3,1.3h-13c-5.4,0,-9.9,4.4,-9.9,9.9v5.3c0,.5,.4,.9,1,.9h24.2c-.1,.6,-.1,1.2,-.1,1.8c0,6.6,5.3,11.9,11.8,11.9c6.6,0,11.9,-5.3,11.9,-11.9c0,-2.7,-.9,-5.3,-2.5,-7.3m-9.4,17.3c-5.5,0,-9.9,-4.5,-9.9,-10c0,-5.5,4.4,-10,9.9,-10c5.5,0,10,4.5,10,10c0,5.5,-4.5,10,-10,10m-35,-18c0,-4.4,3.6,-8,8,-8h13.4c3.6,0,6.7,2.4,7.7,5.8c-2.5,1.4,-4.4,3.7,-5.3,6.5H169.3Zm42.5,-1.2c-2,-1.7,-4.6,-2.7,-7.5,-2.7c-1.5,0,-2.9,.3,-4.2,.8c-1,-2.8,-3.2,-5.1,-5.9,-6.1c.1,-.1,.3,-.1,.4,-.1h10.9c3.5,0,6.3,2.9,6.3,6.4Z" class="gn_129"/>
<path d="M205.5,847.7v-4h-2.4v4c0,.3,-.2,.5,-.4,.5h-4.1v2.4h4.1c.2,0,.4,.2,.4,.5v4h2.4v-4c0,-.3,.3,-.5,.5,-.5h4.1v-2.4H206c-.2,0,-.5,-.2,-.5,-.5Z" class="g1_129"/>
<path d="M210.5,847.3h-4v-4.1c0,-.2,-.2,-.5,-.5,-.5h-3.3c-.3,0,-.5,.3,-.5,.5v4.1h-4.1c-.2,0,-.4,.2,-.4,.4v3.4c0,.3,.2,.5,.4,.5h4.1v4c0,.3,.2,.5,.5,.5H206c.3,0,.5,-.2,.5,-.5v-4h4c.3,0,.5,-.2,.5,-.5v-3.4c0,-.2,-.2,-.4,-.5,-.4m-.4,3.3H206c-.2,0,-.5,.2,-.5,.5v4h-2.4v-4c0,-.3,-.2,-.5,-.4,-.5h-4.1v-2.4h4.1c.2,0,.4,-.2,.4,-.5v-4h2.4v4c0,.3,.3,.5,.5,.5h4.1Z" class="gn_129"/>
<path d="M154.1,870.9v262.9m4.6,2.3H864.9m2.2,-4.6V868.7m-4.5,-2.3H156.4" class="gq_129"/>
<path d="M154.1,1136.1v0m713.1,0v0m0,-269.7v0m-713.1,0v0" class="gr_129"/>
<path d="M32.1,45.1H9.2m958.3,0h22.9M32.1,1331.3H9.2m958.3,0h22.9M45.1,32.1V9.2m0,1335.1v22.9M954.5,32.1V9.2m0,1335.1v22.9" class="gs_129"/>
<path d="M32.1,45.1H9.2m958.3,0h22.9M32.1,1331.3H9.2m958.3,0h22.9M45.1,32.1V9.2m0,1335.1v22.9M954.5,32.1V9.2m0,1335.1v22.9" class="gt_129"/>
<path d="M27.5,32.1H0m972.1,0h27.5M27.5,1344.3H0m972.1,0h27.5M32.1,27.5V0m0,1348.9v27.5M967.5,27.5V0m0,1348.9v27.5" class="gs_129"/>
<path d="M27.5,32.1H0m972.1,0h27.5M27.5,1344.3H0m972.1,0h27.5M32.1,27.5V0m0,1348.9v27.5M967.5,27.5V0m0,1348.9v27.5" class="gt_129"/>
</svg>