<?xml version="1.0" encoding="UTF-8" standalone="no"?>
<!DOCTYPE svg PUBLIC "-//W3C//DTD SVG 1.1//EN"
"http://www.w3.org/Graphics/SVG/1.1/DTD/svg11.dtd">
<svg viewBox="0 0 999 1376" version="1.1" xmlns="http://www.w3.org/2000/svg" xmlns:xlink="http://www.w3.org/1999/xlink">
<defs>
<clipPath id="c0_309"><path d="M198.6,964.9l-6.5,-2.1L175.7,948.9V891.8h72v73.1Z"/></clipPath>
<clipPath id="c1_309"><path d="M199.2,241.3l-6.5,-2.1L176.3,225.3V168.2h72v73.1Z"/></clipPath>
<clipPath id="c2_309"><path d="M691.9,526.6v-176H870.7v176Z"/></clipPath>
<clipPath id="c3_309"><path d="M687.9,532.2V346.9H874.3V532.2Z"/></clipPath>
<clipPath id="c4_309"><path d="M687.6,531.9V346.5H874V531.9Z"/></clipPath>
<clipPath id="c5_309"><path d="M771.7,369.6c-.3,-.1,3.5,-8.3,3.5,-8.3l.8,.5c0,0,-4,7.8,-4.3,7.8Z"/></clipPath>
<clipPath id="c6_309"><path d="M779.2,361.8c0,0,-6.9,-1.1,-7.6,-5.2c-.6,-3.6,1.5,-3.8,2.1,-3.8c0,0,.1,0,.1,0L782.1,340l-1.4,-3c0,0,-.6,-1.2,.1,-2.1c0,-.1,.2,-.1,.3,-.1c2.1,0,12.9,5.5,12.9,5.5l.1,.2c-.4,.5,-.7,1.1,-1.4,1.6c-.6,.5,-5.1,1.2,-5.1,1.2l-8.4,18.5Z"/></clipPath>
<clipPath id="c7_309"><path d="M778.8,361.5c.2,-.5,.2,-1.8,0,-2.3v-1.4c-1.6,-.5,-2.9,-1.2,-3.7,-2.5c-1.1,.6,-2.1,1.2,-3.1,1.9c1.5,2.1,3.8,3.5,6.8,4.3Zm0,-3.9c2.2,-4.6,4,-9.5,6.1,-14.1c-.9,-.4,-1.8,-1.3,-2.6,-1.4c-2.3,4.3,-4.6,8.7,-7.1,12.8c.8,1.4,2.1,2,3.6,2.7Zm-7.3,12c1,-2.9,2.4,-5.4,3.5,-8.3c-2,-1.5,-3.9,-3.1,-4.4,-6.1v-1.5c0,-2.7,1.9,-3.4,4.6,-3.4c0,0,.1,0,.2,0c1.9,-3.4,4.2,-6.4,6.1,-9.7c-.5,-.8,-1.1,-2.3,-.8,-3.6c.5,1.2,1.6,1.9,2.3,2.9c-.1,.6,-.2,1.1,-.3,1.7c.6,.7,1.3,1.2,2.3,1.4c.5,-.4,.6,-1.2,1.2,-1.5c.9,.3,1.8,.7,3.1,.7c.2,.1,.5,.2,.8,.2c.4,0,.7,-.1,.9,-.2c.1,.1,.2,.1,.3,.1c.2,0,.4,-.1,.6,-.1c.2,-.1,.3,-.2,.5,-.2c.1,0,.2,0,.3,.1c-1.3,.7,-2.2,1.8,-4.2,1.8c-.1,0,-.2,0,-.3,0c-.9,3.7,-1.9,7.3,-2.6,11.2c.5,1,1.5,1.6,1.2,3.1c-.4,2.7,-3.8,4.4,-7.2,4.4c-1.3,0,-2.5,-.2,-3.6,-.8c-1,2.1,-2.1,4.2,-3.3,6.1c0,-.4,.3,-.4,.3,-.8c.9,-1.8,1.9,-3.6,2.6,-5.6c-1,1.7,-1.8,3.7,-2.7,5.5c-.2,.4,-.5,.8,-.7,1.3c-.3,.4,-.3,1.1,-.7,1.3Z"/></clipPath>
<clipPath id="c8_309"><path d="M789.2,341.9c-4.8,0,-13.1,-7.3,-5.5,-8.8h1.2c.2,0,.5,0,.7,0c.1,0,.2,0,.2,0c.3,0,.6,0,.9,.1c3.1,.6,8.2,3.8,7.5,7c-.2,1.2,-1.5,1.6,-3.1,1.7h-1.8c0,0,-.1,0,-.1,0Z"/></clipPath>
<clipPath id="c9_309"><path d="M686.3,798.8V601.9H930V798.8Z"/></clipPath>
<clipPath id="ca_309"><path d="M690.9,792.9V609.7H924.7V792.9Z"/></clipPath>
<clipPath id="cb_309"><path d="M690.6,792.5V609.4H924.4V792.5Z"/></clipPath>
<clipPath id="cc_309"><path d="M801.6,628.1c-.3,-.1,3.5,-8.2,3.5,-8.2l.8,.5c0,0,-4,7.7,-4.3,7.7Z"/></clipPath>
<clipPath id="cd_309"><path d="M809.1,620.4c0,0,-6.9,-1.1,-7.6,-5.3c-.6,-3.6,1.5,-3.8,2.1,-3.8q.1,0,.1,0L812,598.6l-1.4,-3.1c0,0,-.6,-1.1,.1,-2.1c.1,0,.2,-.1,.3,-.1c2.1,0,13,5.6,13,5.6v.1c-.3,.5,-.7,1.2,-1.4,1.7c-.6,.5,-5,1.1,-5,1.1l-8.5,18.6Z"/></clipPath>
<clipPath id="ce_309"><path d="M808.7,620c.2,-.5,.2,-1.8,0,-2.2v-1.4c-1.5,-.6,-2.9,-1.3,-3.7,-2.5c-1.1,.5,-2.1,1.2,-3.1,1.8c1.6,2.2,3.8,3.6,6.8,4.3Zm0,-3.9c2.2,-4.5,4,-9.5,6.1,-14.1c-.8,-.3,-1.8,-1.3,-2.6,-1.3c-2.3,4.3,-4.6,8.6,-7,12.8c.7,1.3,2.1,2,3.5,2.6Zm-7.3,12.1c1,-2.9,2.4,-5.5,3.5,-8.3c-2,-1.6,-3.9,-3.1,-4.4,-6.2v-1.5c0,-2.7,1.9,-3.4,4.6,-3.4q.1,0,.2,0c1.9,-3.3,4.2,-6.3,6.1,-9.6c-.5,-.9,-1.1,-2.4,-.8,-3.7c.5,1.3,1.6,1.9,2.4,2.9c-.2,.6,-.3,1.1,-.4,1.8c.6,.6,1.3,1.1,2.4,1.3c.4,-.4,.5,-1.2,1.1,-1.5c.9,.4,1.8,.8,3.1,.8c.2,.1,.5,.1,.9,.1c.3,0,.6,0,.8,-.1c.1,0,.2,0,.3,0c.2,0,.4,0,.6,-.1c.2,-.1,.4,-.1,.5,-.1c.1,0,.2,0,.3,.1c-1.3,.6,-2.2,1.7,-4.1,1.7c-.1,0,-.3,0,-.4,0c-.9,3.8,-1.8,7.4,-2.6,11.2c.5,1.1,1.5,1.7,1.2,3.1c-.4,2.8,-3.8,4.4,-7.2,4.4c-1.2,0,-2.5,-.2,-3.6,-.7c-1,2.1,-2,4.1,-3.3,6c0,-.3,.3,-.4,.3,-.7c1,-1.8,1.9,-3.6,2.6,-5.7c-1,1.7,-1.8,3.7,-2.7,5.5c-.2,.5,-.4,.9,-.6,1.3c-.3,.4,-.3,1.1,-.8,1.4Z"/></clipPath>
<clipPath id="cf_309"><path d="M819.1,600.4c-4.8,0,-13.1,-7.3,-5.5,-8.8h1.2c.2,.1,.4,.1,.6,.1c0,0,.1,0,.1,0c.1,0,.2,0,.3,0c.2,0,.5,0,.8,0c3.1,.7,8.2,3.8,7.5,7.1c-.2,1.1,-1.5,1.6,-3.1,1.6h-1.9Z"/></clipPath>
<clipPath id="cg_309"><path d="M786.5,132.5V120.1H801v12.4Z"/></clipPath>
<style type="text/css"><![CDATA[
.g0_309{
fill: #FEFCF4;
}
.g1_309{
fill: #FFF;
}
.g2_309{
fill: none;
stroke: #6381B7;
stroke-width: 0.763;
}
.g3_309{
fill: #6381B7;
}
.g4_309{
fill: none;
stroke: #6381B7;
stroke-width: 0.381;
stroke-dasharray: 2,1;
}
.g5_309{
fill: none;
stroke: #6381B7;
stroke-width: 0.381;
}
.g6_309{
fill: #FCE8B0;
}
.g7_309{
fill: #F7C2D9;
}
.g8_309{
fill: #FEF6F5;
}
.g9_309{
fill: #EC008C;
}
.ga_309{
fill: none;
stroke: #949698;
stroke-width: 0.305;
stroke-dasharray: 4,4;
}
.gb_309{
fill: none;
stroke: #949698;
stroke-width: 0.305;
}
.gc_309{
fill: none;
stroke: #949698;
stroke-width: 0.305;
stroke-dasharray: 3,3;
}
.gd_309{
fill: #6D6F71;
}
.ge_309{
fill: #25408F;
}
.gf_309{
fill: #A8AAAD;
}
.gg_309{
fill: none;
stroke: #949698;
stroke-width: 0.549;
}
.gh_309{
fill: none;
stroke: #BCBEC0;
stroke-width: 2.566;
}
.gi_309{
fill: #231F20;
}
.gj_309{
fill: #363637;
}
.gk_309{
fill: #5CC4BE;
}
.gl_309{
fill: #EAD646;
}
.gm_309{
fill: none;
stroke: #FFF;
stroke-width: 1.909;
stroke-miterlimit: 10;
}
.gn_309{
fill: none;
stroke: #000;
stroke-width: 0.381;
stroke-miterlimit: 10;
}
]]></style>
</defs>
<path d="M45.1,1344.3H967.5V32.1H45.1V1344.3Z" class="g0_309"/>
<path d="M172.1,137.8c0,0,-18.4,0,-18.4,18.4V816c0,0,0,18.3,18.4,18.3H849.2c0,0,18.3,0,18.3,-18.3V137.8Z" class="g1_309"/>
<path d="M172.1,137.8c0,0,-18.4,0,-18.4,18.4V816c0,0,0,18.3,18.4,18.3H849.2c0,0,18.3,0,18.3,-18.3V137.8H172.1Z" class="g2_309"/>
<path d="M506.7,1068.8c0,0,-4.4,0,-4.4,4.4V1084c0,0,0,4.3,4.4,4.3H537c0,0,4.3,0,4.3,-4.3v-10.8c0,0,0,-4.4,-4.3,-4.4Z" class="g3_309"/>
<path d="M493.5,1060v37.5m1.3,1h372m.9,-1.3v-37.6m-1.3,-.9H494.5" class="g4_309"/>
<path d="M493.5,1097.9v.6h.6m373,0h.6v-.6m0,-38.7v-.5h-.6m-373,0h-.6v.5" class="g5_309"/>
<path d="M166.7,876.1c0,0,-13,0,-13,13v146.8c0,0,0,13,13,13H854.5c0,0,13,0,13,-13V889.1c0,0,0,-13,-13,-13Z" class="g1_309"/>
<path d="M166.7,876.1c0,0,-13,0,-13,13v146.8c0,0,0,13,13,13H854.5c0,0,13,0,13,-13V889.1c0,0,0,-13,-13,-13H166.7Z" class="g2_309"/>
<path d="M231.2,919.9c0,0,-12.9,0,-12.9,13v21.7c0,0,0,12.9,12.9,12.9H833.3c0,0,13,0,13,-12.9V932.9c0,0,0,-13,-13,-13Z" class="g6_309"/>
<image clip-path="url(#c0_309)" preserveAspectRatio="none" x="174" y="890" width="75" height="76" xlink:href="img/1.png"/>
<path d="M226,960.2c0,0,-26.8,11.3,-51.1,-12.8c0,0,15.2,25.3,49.3,24c0,0,24.8,.3,20.3,-10.1c0,0,1.2,-4.5,-18.5,-1.1Z" class="g6_309"/>
<path d="M231.8,170.4c0,0,-13,0,-13,12.9V231c0,0,0,13,13,13h602c0,0,13,0,13,-13V183.3c0,0,0,-12.9,-13,-12.9Z" class="g6_309"/>
<image clip-path="url(#c1_309)" preserveAspectRatio="none" x="175" y="167" width="75" height="76" xlink:href="img/2.png"/>
<path d="M226.6,236.6c0,0,-26.9,11.3,-51.1,-12.7c0,0,15.1,25.3,49.3,23.9c0,0,24.7,.4,20.2,-10.1c0,0,1.2,-4.5,-18.4,-1.1Z" class="g6_309"/>
<image clip-path="url(#c2_309)" preserveAspectRatio="none" x="691" y="351" width="179" height="176" xlink:href="img/3.png"/>
<path d="M696.7,359.3l4.7,161l163.1,-3.6L860.7,355.3Z" class="g7_309"/>
<image clip-path="url(#c3_309)" preserveAspectRatio="none" x="688" y="347" width="186" height="185" xlink:href="img/4.png"/>
<image clip-path="url(#c4_309)" preserveAspectRatio="none" x="688" y="347" width="186" height="185" xlink:href="img/5.png"/>
<path d="M692.5,365.3l13.9,160.5L836.8,514.4l30.9,-29.5L855.9,351.4Z" class="g8_309"/>
<path d="M836.8,514.4L867.7,485l-17.6,-6.6Z" class="g9_309"/>
<path d="M419.5,446.6c-4.4,-2.1,-7.7,-7.4,-8.6,-13.9m.3,-7.7c1.2,-6.4,5,-11.5,9.8,-13m7.5,.6c4.4,2.2,7.8,7.5,8.6,13.9m-.3,7.7c-1.2,6.4,-5,11.5,-9.7,13" class="ga_309"/>
<path d="M410.8,431.2c0,-.6,-.1,-1.1,-.1,-1.6c0,-.5,.1,-1,.1,-1.5m11.7,-16.4c.5,-.1,1,-.2,1.5,-.2c.5,0,1,.1,1.6,.2m11.6,16.4c.1,.5,.1,1,.1,1.5c0,.5,0,1,-.1,1.6m-11.6,16.4c-.6,0,-1.1,.1,-1.6,.1c-.5,0,-1,-.1,-1.5,-.1" class="gb_309"/>
<path d="M434.2,409.6c15.1,-13.8,79.6,-68.5,155.2,-77.2" class="ga_309"/>
<path d="M596.8,332c5.7,.5,2,4.6,-1.5,6.2" class="gc_309"/>
<path d="M589.4,335.6c-.7,-3.2,1.6,-7.8,12.4,-9m7.7,-.3c21.9,-.4,72.8,2.3,105.6,34.5" class="ga_309"/>
<path d="M430.8,412.7c0,0,.4,-.4,1.1,-1.1m159,-79.4c.5,-.1,1,-.1,1.5,-.2c.5,0,1,0,1.5,-.1m0,6.8c-.6,.1,-1.1,.2,-1.5,.1c-.5,0,-1,-.2,-1.4,-.6m12.4,-11.7c.5,0,1,-.1,1.6,-.1c.4,0,1,0,1.5,0m109.7,35.4c.3,.4,.7,.8,1,1.1" class="gb_309"/>
<path d="M710.8,362.1L718,357l2.8,11.9Z" class="gd_309"/>
<image clip-path="url(#c5_309)" x="771" y="361" width="5" height="9" xlink:href="shade/1.png"/>
<image clip-path="url(#c6_309)" x="770" y="334" width="25" height="28" xlink:href="shade/2.png"/>
<image clip-path="url(#c7_309)" x="770" y="336" width="23" height="34" xlink:href="shade/3.png"/>
<image clip-path="url(#c8_309)" x="776" y="333" width="19" height="9" xlink:href="shade/4.png"/>
<path d="M567.7,617.5c12.7,-1.2,22.7,-6.7,25,-13.8m-.6,-7.7c-3.3,-6.6,-13.5,-11.6,-25.9,-12.4m-7.9,.1c-12.6,1.2,-22.6,6.7,-24.9,13.8m.6,7.7c3.2,6.6,13.4,11.6,25.9,12.4" class="ga_309"/>
<path d="M593.1,602.2c0,-.5,.1,-1.1,.1,-1.6c0,-.5,-.1,-1.1,-.1,-1.6M564.6,583.6c-.5,-.1,-1,-.1,-1.6,-.1c-.5,0,-1,0,-1.5,.1M533,599c-.1,.5,-.1,1.1,-.1,1.6c0,.5,0,1.1,.1,1.6m28.5,15.4c.5,.1,1,.1,1.5,.1c.6,0,1.1,0,1.6,-.1" class="gb_309"/>
<image clip-path="url(#c9_309)" preserveAspectRatio="none" x="686" y="603" width="244" height="196" xlink:href="img/6.png"/>
<path d="M691.2,634.2l20.3,158.5L924.1,767.1L903.3,606.7Z" class="g7_309"/>
<image clip-path="url(#ca_309)" preserveAspectRatio="none" x="691" y="610" width="233" height="184" xlink:href="img/7.png"/>
<image clip-path="url(#cb_309)" preserveAspectRatio="none" x="691" y="609" width="233" height="184" xlink:href="img/8.png"/>
<path d="M695.5,626.8l9.9,159.6L887.2,776.2l31.1,-29.3l-11,-132.5Z" class="g8_309"/>
<path d="M887.2,776.2L918.4,747l-22,-6.8Z" class="g9_309"/>
<image clip-path="url(#cc_309)" x="801" y="619" width="5" height="10" xlink:href="shade/5.png"/>
<image clip-path="url(#cd_309)" x="800" y="593" width="25" height="28" xlink:href="shade/6.png"/>
<image clip-path="url(#ce_309)" x="800" y="595" width="23" height="34" xlink:href="shade/7.png"/>
<image clip-path="url(#cf_309)" x="805" y="591" width="20" height="10" xlink:href="shade/8.png"/>
<path d="M569.1,618.7c0,0,34.3,23.4,125.6,25.7" class="gc_309"/>
<path d="M689.5,640.8l.8,8.8l10.9,-5.5Z" class="gd_309"/>
<path d="M153.3,111.9v39L165,161.2V117Z" class="ge_309"/>
<path d="M153.3,111.9v39H851.1c0,0,16.8,0,16.8,-16.8v-5.3c0,0,0,-16.9,-16.8,-16.9Z" class="g3_309"/>
<path d="M802.6,145.6c8.2,0,14.9,-6.5,14.9,-14.5c0,-8.1,-6.7,-14.5,-14.9,-14.5c-8.2,0,-14.9,6.4,-14.9,14.5c0,8,6.7,14.5,14.9,14.5Z" class="gf_309"/>
<path d="M802.6,145.6c8.2,0,14.9,-6.5,14.9,-14.5c0,-8.1,-6.7,-14.5,-14.9,-14.5c-8.2,0,-14.9,6.4,-14.9,14.5c0,8,6.7,14.5,14.9,14.5Z" class="gg_309"/>
<path d="M802.6,136.4c3,0,5.5,-2.4,5.5,-5.3c0,-3,-2.5,-5.4,-5.5,-5.4c-3,0,-5.5,2.4,-5.5,5.4c0,2.9,2.5,5.3,5.5,5.3Z" class="g1_309"/>
<path d="M802.6,136.4c3,0,5.5,-2.4,5.5,-5.3c0,-3,-2.5,-5.4,-5.5,-5.4c-3,0,-5.5,2.4,-5.5,5.4c0,2.9,2.5,5.3,5.5,5.3Z" class="gh_309"/>
<g clip-path="url(#cg_309)" opacity="0.3">
<path d="M788,130.3c0,0,0,-4.8,3.7,-8.7l7.7,6.8c0,0,-1,.9,-1,2.6Z" class="g1_309"/>
</g>
<path d="M807.2,131c0,0,-3.5,0,-3.5,3.4v8.7c0,0,0,3.5,3.5,3.5h43.5c0,0,3.5,0,3.5,-3.5v-8.7c0,0,0,-3.4,-3.5,-3.4Z" class="gi_309"/>
<path d="M191.2,122c0,-8.3,-6.8,-15,-15.1,-15c-8.3,0,-15,6.7,-15,15c0,8.3,6.7,15.1,15,15.1c.8,0,1.7,-.1,2.4,-.2l4.5,5.2v-6.7c4.9,-2.5,8.2,-7.6,8.2,-13.4Z" class="g1_309"/>
<path d="M183.5,143.3l-5.1,-5.9c-.8,.1,-1.5,.1,-2.3,.1c-8.5,0,-15.5,-6.9,-15.5,-15.5c0,-8.5,7,-15.5,15.5,-15.5c8.6,0,15.5,7,15.5,15.5c0,5.7,-3.1,11,-8.1,13.7Zm-4.8,-6.9l3.9,4.5v-5.8l.2,-.1c4.9,-2.5,7.9,-7.5,7.9,-13c0,-8,-6.5,-14.6,-14.6,-14.6c-8,0,-14.6,6.6,-14.6,14.6c0,8.1,6.6,14.6,14.6,14.6c.8,0,1.6,-.1,2.4,-.2Z" class="gj_309"/>
<path d="M169.1,121.6c.8,0,1.4,.6,1.4,1.4c0,.8,-.6,1.5,-1.4,1.5c-.8,0,-1.4,-.7,-1.4,-1.5c0,-.8,.6,-1.4,1.4,-1.4Z" class="gk_309"/>
<path d="M169.1,124.9c-1,0,-1.9,-.8,-1.9,-1.9c0,-1,.9,-1.9,1.9,-1.9c1,0,1.9,.9,1.9,1.9c0,1.1,-.9,1.9,-1.9,1.9m0,-2.9c-.5,0,-1,.5,-1,1c0,.6,.5,1,1,1c.5,0,1,-.4,1,-1c0,-.5,-.5,-1,-1,-1Z" class="gj_309"/>
<path d="M176.1,121.6c.8,0,1.5,.6,1.5,1.4c0,.8,-.7,1.5,-1.5,1.5c-.8,0,-1.4,-.7,-1.4,-1.5c0,-.8,.6,-1.4,1.4,-1.4Z" class="gk_309"/>
<path d="M176.1,124.9c-1,0,-1.9,-.8,-1.9,-1.9c0,-1,.9,-1.9,1.9,-1.9c1.1,0,1.9,.9,1.9,1.9c0,1.1,-.8,1.9,-1.9,1.9m0,-2.9c-.5,0,-1,.5,-1,1c0,.6,.5,1,1,1c.6,0,1,-.4,1,-1c0,-.5,-.4,-1,-1,-1Z" class="gj_309"/>
<path d="M183.1,121.6c.8,0,1.5,.6,1.5,1.4c0,.8,-.7,1.5,-1.5,1.5c-.8,0,-1.4,-.7,-1.4,-1.5c0,-.8,.6,-1.4,1.4,-1.4Z" class="gk_309"/>
<path d="M183.1,124.9c-1,0,-1.9,-.8,-1.9,-1.9c0,-1,.9,-1.9,1.9,-1.9c1.1,0,1.9,.9,1.9,1.9c0,1.1,-.8,1.9,-1.9,1.9m0,-2.9c-.5,0,-1,.5,-1,1c0,.6,.5,1,1,1c.6,0,1,-.4,1,-1c0,-.5,-.4,-1,-1,-1Z" class="gj_309"/>
<path d="M185.1,136.3c0,-9.8,7.8,-17.7,17.6,-17.7c9.7,0,17.6,7.9,17.6,17.7c0,9.7,-7.9,17.6,-17.6,17.6c-1,0,-1.9,-.1,-2.9,-.3l-5.2,6.1v-7.8c-5.7,-2.9,-9.5,-8.8,-9.5,-15.6Z" class="gl_309"/>
<path d="M194.6,160.2q-.1,0,-.2,0c-.2,-.1,-.3,-.3,-.3,-.5v-7.5c-5.9,-3.2,-9.5,-9.2,-9.5,-15.9c0,-10,8.1,-18.1,18.1,-18.1c9.9,0,18,8.1,18,18.1c0,9.9,-8.1,18,-18,18c-.9,0,-1.8,0,-2.7,-.2l-5.1,5.9c-.1,.1,-.2,.2,-.3,.2m8.1,-41.1c-9.5,0,-17.2,7.7,-17.2,17.2c0,6.4,3.6,12.2,9.3,15.2c.1,.1,.2,.2,.2,.4v6.6l4.5,-5.2c.1,-.1,.3,-.1,.4,-.1c1,.1,1.9,.2,2.8,.2c9.4,0,17.1,-7.7,17.1,-17.1c0,-9.5,-7.7,-17.2,-17.1,-17.2Z" class="gj_309"/>
<path d="M210.9,135.8c.9,0,1.6,.7,1.6,1.6c0,1,-.7,1.7,-1.6,1.7c-1,0,-1.7,-.7,-1.7,-1.7c0,-.9,.7,-1.6,1.7,-1.6Z" class="g1_309"/>
<path d="M210.9,139.6c-1.2,0,-2.2,-1,-2.2,-2.2c0,-1.1,1,-2.1,2.2,-2.1c1.1,0,2.1,1,2.1,2.1c0,1.2,-1,2.2,-2.1,2.2m0,-3.4c-.7,0,-1.3,.6,-1.3,1.2c0,.7,.6,1.3,1.3,1.3c.6,0,1.2,-.6,1.2,-1.3c0,-.6,-.6,-1.2,-1.2,-1.2Z" class="gj_309"/>
<path d="M202.7,135.8c.9,0,1.6,.7,1.6,1.6c0,1,-.7,1.7,-1.6,1.7c-1,0,-1.7,-.7,-1.7,-1.7c0,-.9,.7,-1.6,1.7,-1.6Z" class="g1_309"/>
<path d="M202.7,139.6c-1.2,0,-2.2,-1,-2.2,-2.2c0,-1.1,1,-2.1,2.2,-2.1c1.1,0,2.1,1,2.1,2.1c0,1.2,-1,2.2,-2.1,2.2m0,-3.4c-.7,0,-1.3,.6,-1.3,1.2c0,.7,.6,1.3,1.3,1.3c.6,0,1.2,-.6,1.2,-1.3c0,-.6,-.6,-1.2,-1.2,-1.2Z" class="gj_309"/>
<path d="M194.5,135.8c.9,0,1.6,.7,1.6,1.6c0,1,-.7,1.7,-1.6,1.7c-1,0,-1.7,-.7,-1.7,-1.7c0,-.9,.7,-1.6,1.7,-1.6Z" class="g1_309"/>
<path d="M194.5,139.6c-1.2,0,-2.2,-1,-2.2,-2.2c0,-1.1,1,-2.1,2.2,-2.1c1.1,0,2.1,1,2.1,2.1c0,1.2,-1,2.2,-2.1,2.2m0,-3.4c-.7,0,-1.2,.6,-1.2,1.2c0,.7,.5,1.3,1.2,1.3c.6,0,1.2,-.6,1.2,-1.3c0,-.6,-.6,-1.2,-1.2,-1.2Z" class="gj_309"/>
<path d="M32.1,45.1H9.2m958.3,0h22.9M32.1,1331.3H9.2m958.3,0h22.9M45.1,32.1V9.2m0,1335.1v22.9M954.5,32.1V9.2m0,1335.1v22.9" class="gm_309"/>
<path d="M32.1,45.1H9.2m958.3,0h22.9M32.1,1331.3H9.2m958.3,0h22.9M45.1,32.1V9.2m0,1335.1v22.9M954.5,32.1V9.2m0,1335.1v22.9" class="gn_309"/>
<path d="M27.5,32.1H0m972.1,0h27.5M27.5,1344.3H0m972.1,0h27.5M32.1,27.5V0m0,1348.9v27.5M967.5,27.5V0m0,1348.9v27.5" class="gm_309"/>
<path d="M27.5,32.1H0m972.1,0h27.5M27.5,1344.3H0m972.1,0h27.5M32.1,27.5V0m0,1348.9v27.5M967.5,27.5V0m0,1348.9v27.5" class="gn_309"/>
</svg>