<?xml version="1.0" encoding="UTF-8" standalone="no"?>
<!DOCTYPE svg PUBLIC "-//W3C//DTD SVG 1.1//EN"
"http://www.w3.org/Graphics/SVG/1.1/DTD/svg11.dtd">
<svg viewBox="0 0 999 1376" version="1.1" xmlns="http://www.w3.org/2000/svg" xmlns:xlink="http://www.w3.org/1999/xlink">
<defs>
<clipPath id="c0_203"><path d="M32.1,1344.3V32.1H967.5V1344.3Z"/></clipPath>
<clipPath id="c1_203"><path d="M268.5,749.9V667.6h62.8v82.3Z"/></clipPath>
<clipPath id="c2_203"><path d="M234.5,853.8V777.4H311v76.4Z"/></clipPath>
<clipPath id="c3_203"><path d="M239,1034.6V966.3h66.3v68.3Z"/></clipPath>
<clipPath id="c4_203"><path d="M228.4,1041.8v-3.1H317v3.1Z"/></clipPath>
<clipPath id="c5_203"><path d="M233.1,940.3V876.8h89.2v63.5Z"/></clipPath>
<clipPath id="c6_203"><path d="M233,1131.9v-78.7h90.1v78.7Z"/></clipPath>
<clipPath id="c7_203"><path d="M198.2,555.6l-6.5,-2.1L175.4,539.6V482.5h71.9v73.1Z"/></clipPath>
<clipPath id="c8_203"><path d="M200.1,137.2c.1,-1.3,.7,-2.5,1.6,-3.4c1,-1,2.3,-1.6,3.9,-1.6h19.2v5Z"/></clipPath>
<clipPath id="c9_203"><path d="M199.5,137.7v-6h25.8v6Z"/></clipPath>
<style type="text/css"><![CDATA[
.g0_203{
fill: #FEFCF4;
}
.g1_203{
fill: #DEF1F3;
}
.g2_203{
fill: #9BD1EA;
}
.g3_203{
fill: #FFF;
}
.g4_203{
fill: none;
stroke: #58595B;
stroke-width: 0.381;
stroke-miterlimit: 10;
}
.g5_203{
fill: none;
stroke: #6381B7;
stroke-width: 0.763;
}
.g6_203{
fill: #48484A;
}
.g7_203{
fill: #F0E8F3;
}
.g8_203{
fill: #766FA6;
}
.g9_203{
fill: none;
stroke: #231F20;
stroke-width: 0.458;
stroke-miterlimit: 10;
}
.ga_203{
fill: #6381B7;
}
.gb_203{
fill: none;
stroke: #6381B7;
stroke-width: 0.381;
stroke-dasharray: 2,1;
}
.gc_203{
fill: none;
stroke: #6381B7;
stroke-width: 0.381;
}
.gd_203{
fill: none;
stroke: #231F20;
stroke-width: 0.42;
stroke-miterlimit: 10;
}
.ge_203{
fill: #FCE8B0;
}
.gf_203{
fill: #25408F;
}
.gg_203{
fill: none;
stroke: #231F20;
stroke-width: 1.527;
}
.gh_203{
fill: #39B4D1;
stroke: #2D2A4A;
stroke-width: 1.038;
stroke-linecap: round;
stroke-linejoin: round;
}
.gi_203{
fill: #2D2A4A;
}
.gj_203{
fill: none;
stroke: #2D2A4A;
stroke-width: 1.038;
stroke-linecap: round;
stroke-linejoin: round;
}
.gk_203{
fill: #DEDAD3;
}
.gl_203{
fill: #29263F;
}
.gm_203{
fill: #E15F46;
stroke: #2D2A4A;
stroke-width: 1.038;
stroke-linecap: round;
stroke-linejoin: round;
}
.gn_203{
fill: none;
stroke: #FFF;
stroke-width: 1.909;
stroke-miterlimit: 10;
}
.go_203{
fill: none;
stroke: #000;
stroke-width: 0.381;
stroke-miterlimit: 10;
}
]]></style>
</defs>
<path clip-path="url(#c0_203)" d="M-877.3,1344.3H45.1V32.1H-877.3V1344.3Z" class="g0_203"/>
<path d="M170.7,162c0,0,-17.4,0,-17.4,17.3V395.9c0,0,0,17.3,17.4,17.3H850.6c0,0,17.3,0,17.3,-17.3V179.3c0,0,0,-17.3,-17.3,-17.3Z" class="g1_203"/>
<path d="M239.9,209.2H456.5v30.1H239.9V209.2Zm216.6,0H781.3v30.1H456.5V209.2Z" class="g2_203"/>
<path d="M239.9,239.3H456.5v53.5H239.9V239.3Zm216.6,0H781.3v53.5H456.5V239.3Z" class="g3_203"/>
<path d="M239.9,209.2H456.5m0,0H781.3M456.5,239.1V209.4M239.9,239.3H456.5m0,0H781.3M456.5,292.6V239.5M239.9,292.8H456.5m0,0H781.3" class="g4_203"/>
<path d="M166.5,576.4c0,0,-13,0,-13,13v553.1c0,0,0,13,13,13H854.2c0,0,13,0,13,-13V589.4c0,0,0,-13,-13,-13Z" class="g3_203"/>
<path d="M166.5,576.4c0,0,-13,0,-13,13v553.1c0,0,0,13,13,13H854.2c0,0,13,0,13,-13V589.4c0,0,0,-13,-13,-13H166.5Z" class="g5_203"/>
<path d="M188.4,673c0,0,-4.3,0,-4.3,4.3v13.6c0,0,0,4.4,4.1,5.7l52.4,17.6c0,0,4.1,1.4,4.1,-2.9v-34c0,0,0,-4.3,-4.3,-4.3Z" class="g6_203"/>
<path d="M209.6,660.7c0,0,-13,0,-13,13v69.2c0,0,0,13,13,13H835c0,0,13,0,13,-13V673.7c0,0,0,-13,-13,-13Z" class="g7_203"/>
<path d="M188.4,671c0,0,-4.3,0,-4.3,4.3v16c0,0,0,4.3,4.3,4.3h37.3c0,0,4.3,0,4.3,-4.3v-16c0,0,0,-4.3,-4.3,-4.3Z" class="g8_203"/>
<path d="M192,635.5H835.9V617.1H192v18.4Z" class="g3_203"/>
<path d="M415.6,730.7h12.3" class="g9_203"/>
<image clip-path="url(#c1_203)" preserveAspectRatio="none" x="267" y="666" width="66" height="86" xlink:href="img/1.png"/>
<path d="M451.8,1176.6c0,0,-4.3,0,-4.3,4.4v10.8c0,0,0,4.3,4.3,4.3h30.4c0,0,4.3,0,4.3,-4.3V1181c0,0,0,-4.4,-4.3,-4.4Z" class="ga_203"/>
<path d="M438.7,1167.8v37.6m1.3,.9H866.1m.9,-1.3v-37.6m-1.3,-.9H439.6" class="gb_203"/>
<path d="M438.7,1205.7v.6h.5m427.2,0h.6v-.6m0,-38.7v-.5h-.6m-427.2,0h-.5v.5" class="gc_203"/>
<path d="M417.6,840.7H758.7" class="gd_203"/>
<image clip-path="url(#c2_203)" preserveAspectRatio="none" x="234" y="777" width="77" height="77" xlink:href="img/2.jpg"/>
<path d="M466.4,1026H758.8" class="gd_203"/>
<image clip-path="url(#c3_203)" preserveAspectRatio="none" x="238" y="965" width="68" height="70" xlink:href="img/3.jpg"/>
<image clip-path="url(#c4_203)" preserveAspectRatio="none" x="225" y="1038" width="94" height="82" xlink:href="img/4.jpg"/>
<path d="M417.6,933.3H758.7" class="gd_203"/>
<image clip-path="url(#c5_203)" preserveAspectRatio="none" x="232" y="876" width="91" height="65" xlink:href="img/5.jpg"/>
<path d="M432.2,1118.6H758.7" class="gd_203"/>
<image clip-path="url(#c6_203)" preserveAspectRatio="none" x="230" y="1051" width="94" height="82" xlink:href="img/6.jpg"/>
<path d="M230.9,510.6c0,0,-13,0,-13,13v21.7c0,0,0,13,13,13H854.2c0,0,13,0,13,-13V523.6c0,0,0,-13,-13,-13Z" class="ge_203"/>
<image clip-path="url(#c7_203)" preserveAspectRatio="none" x="174" y="481" width="75" height="76" xlink:href="img/7.png"/>
<path d="M225.7,550.9c0,0,-26.9,11.3,-51.1,-12.8c0,0,15.1,25.4,49.3,24c0,0,24.7,.3,20.2,-10.1c0,0,1.2,-4.5,-18.4,-1.1Z" class="ge_203"/>
<path d="M153.3,109.5v39L165,158.7V136.5Z" class="gf_203"/>
<path d="M153.3,109.5v39H851.1c0,0,16.8,0,16.8,-16.8v-5.4c0,0,0,-16.8,-16.8,-16.8Z" class="ga_203"/>
<path d="M790.4,131c0,0,-.5,-10,8.6,-9.4c0,0,6.8,-.3,6.7,9.5m-15.3,-1.5v6.5c0,0,-3.4,.3,-3.9,-3c0,0,-.1,-3.8,3.9,-3.5Zm15.3,0v6.5c0,0,3.4,.3,4,-3c0,0,0,-3.8,-4,-3.5Z" class="gg_203"/>
<path d="M169,140.8h61v-32H169v32Z" class="gh_203"/>
<path d="M169,143.1h61v-2.3H169v2.3Z" class="gh_203"/>
<path d="M193.5,106.2H173.8v31.5h25.7V112.3c0,-3.4,-2.7,-6.1,-6,-6.1Z" class="g3_203"/>
<path d="M193.5,106.2v-.5H173.8c-.2,0,-.3,.1,-.4,.2c-.1,.1,-.2,.2,-.2,.3v31.5c0,.1,.1,.3,.2,.4c.1,.1,.2,.1,.4,.1h25.7c.2,0,.3,0,.4,-.1c.1,-.1,.1,-.3,.1,-.4V112.3c0,-3.7,-2.9,-6.6,-6.5,-6.6v1c1.5,0,2.9,.7,3.9,1.7c1,1,1.6,2.3,1.6,3.9v24.9H174.3V106.7h19.2Z" class="gi_203"/>
<path d="M173.8,131.7v6h25.7c0,-3.3,-2.7,-6,-6,-6Z" class="g3_203"/>
<path d="M173.8,131.7h-.6v6c0,.1,.1,.3,.2,.4c.1,.1,.2,.1,.4,.1h25.7c.2,0,.3,0,.4,-.1c.1,-.1,.1,-.3,.1,-.4c0,-3.6,-2.9,-6.6,-6.5,-6.6H173.8c-.2,0,-.3,.1,-.4,.2c-.1,.1,-.2,.2,-.2,.4h.6v.5h19.7c1.5,0,2.9,.6,3.9,1.6c1,1,1.6,2.4,1.6,3.9h.5v-.5H174.3v-5.5h-.5v.5Z" class="gi_203"/>
<path d="M177.3,110.9h17.2m-17.2,2.8h17.2m-17.2,2.9h17.2m-17.2,2.9h17.2m-17.2,2.8h17.2m-17.2,2.9h17.2M177.3,128h17.2" class="gj_203"/>
<path d="M193.5,132.2H174.3v5H199c-.1,-1.3,-.7,-2.5,-1.6,-3.4c-1,-1,-2.4,-1.6,-3.9,-1.6Z" class="gk_203"/>
<path d="M174.3,132.2h19.2c1.5,0,2.9,.6,3.9,1.6c.9,.9,1.5,2.1,1.6,3.4H174.3Zm19.2,-.5H173.8v6H199v-2.5c-.9,-2.1,-3.1,-3.5,-5.5,-3.5Z" class="gl_203"/>
<path d="M205.6,106.2h19.7v31.5H199.5V112.3c0,-3.4,2.7,-6.1,6.1,-6.1Z" class="g3_203"/>
<path d="M205.6,106.2v.5h19.2v30.5H200V112.3c0,-1.6,.7,-2.9,1.7,-3.9c1,-1,2.3,-1.7,3.9,-1.7v-1c-3.7,0,-6.6,2.9,-6.6,6.6v25.4c0,.1,.1,.3,.2,.4c0,.1,.2,.1,.3,.1h25.8c.1,0,.2,0,.3,-.1c.1,-.1,.2,-.3,.2,-.4V106.2c0,-.1,-.1,-.2,-.2,-.3c-.1,-.1,-.2,-.2,-.3,-.2H205.6Z" class="gi_203"/>
<path d="M225.3,131.7v6H199.5c0,-3.3,2.7,-6,6.1,-6Z" class="g3_203"/>
<path d="M225.3,131.7h-.5v5.5H199.5v.5h.5c0,-1.5,.7,-2.9,1.7,-3.9c1,-1,2.3,-1.6,3.9,-1.6h19.7v-.5h-.5h.5v-.6H205.6c-3.7,0,-6.6,3,-6.6,6.6c0,.1,.1,.3,.2,.4c0,.1,.2,.1,.3,.1h25.8c.1,0,.2,0,.3,-.1c.1,-.1,.2,-.3,.2,-.4v-6c0,-.2,-.1,-.3,-.2,-.4c-.1,-.1,-.2,-.2,-.3,-.2Z" class="gi_203"/>
<path d="M221.8,110.9H204.6m17.2,2.8H204.6m17.2,2.9H204.6m17.2,2.9H204.6m17.2,2.8H204.6m17.2,2.9H204.6m17.2,2.8H204.6" class="gj_203"/>
<path clip-path="url(#c8_203)" d="M200.1,137.2h24.7v-5H200.1v5Z" class="gk_203"/>
<path clip-path="url(#c9_203)" d="M200.1,137.2c.1,-1.3,.7,-2.5,1.6,-3.4c1,-1,2.3,-1.6,3.9,-1.6h19.2v5Zm25.2,-5.5H205.6c-3.4,0,-6.1,2.7,-6.1,6h25.8v-6h-.5h.5Z" class="gl_203"/>
<path d="M199.5,108.8v34.3" class="gj_203"/>
<path d="M217.2,145.5h3.3V134.7h-3.3v10.8Z" class="gm_203"/>
<path d="M32.1,45.1H9.2m958.3,0h22.9M32.1,1331.3H9.2m958.3,0h22.9M45.1,32.1V9.2m0,1335.1v22.9M954.5,32.1V9.2m0,1335.1v22.9" class="gn_203"/>
<path d="M32.1,45.1H9.2m958.3,0h22.9M32.1,1331.3H9.2m958.3,0h22.9M45.1,32.1V9.2m0,1335.1v22.9M954.5,32.1V9.2m0,1335.1v22.9" class="go_203"/>
<path d="M27.5,32.1H0m972.1,0h27.5M27.5,1344.3H0m972.1,0h27.5M32.1,27.5V0m0,1348.9v27.5M967.5,27.5V0m0,1348.9v27.5" class="gn_203"/>
<path d="M27.5,32.1H0m972.1,0h27.5M27.5,1344.3H0m972.1,0h27.5M32.1,27.5V0m0,1348.9v27.5M967.5,27.5V0m0,1348.9v27.5" class="go_203"/>
</svg>