<?xml version="1.0" encoding="UTF-8" standalone="no"?>
<!DOCTYPE svg PUBLIC "-//W3C//DTD SVG 1.1//EN"
"http://www.w3.org/Graphics/SVG/1.1/DTD/svg11.dtd">
<svg viewBox="0 0 999 1376" version="1.1" xmlns="http://www.w3.org/2000/svg" xmlns:xlink="http://www.w3.org/1999/xlink">
<defs>
<clipPath id="c0_145"><path d="M154.8,1244.5V131.5H869.3v1113Z"/></clipPath>
<clipPath id="c1_145"><path d="M171.7,1094V240.8H843.4V1094Z"/></clipPath>
<clipPath id="c2_145"><path d="M171.1,1094.5v-854h673v854Z"/></clipPath>
<style type="text/css"><![CDATA[
.g0_145{
fill: #FFF;
}
.g1_145{
fill: #C3E7EF;
}
.g2_145{
fill: none;
stroke: #A8AAAD;
stroke-width: 0.725;
}
.g3_145{
fill: #EBE0C3;
}
.g4_145{
fill: #EFE9CC;
}
.g5_145{
fill: #25408F;
}
.g6_145{
fill: #6381B7;
}
.g7_145{
fill: #FFDE2C;
}
.g8_145{
fill: none;
stroke: #231F20;
stroke-width: 1.451;
stroke-miterlimit: 10;
}
.g9_145{
fill: #D2D3D5;
}
.ga_145{
fill: #A8AAAD;
}
.gb_145{
fill: none;
stroke: #231F20;
stroke-width: 0.828;
stroke-miterlimit: 10;
}
.gc_145{
fill: #6CCFF6;
}
.gd_145{
fill: none;
stroke: #231F20;
stroke-width: 0.828;
stroke-linecap: round;
stroke-linejoin: round;
}
.ge_145{
fill: none;
stroke: #231F20;
stroke-width: 1.451;
stroke-linecap: round;
stroke-linejoin: round;
}
.gf_145{
fill: none;
stroke: #231F20;
stroke-width: 0.756;
stroke-miterlimit: 3;
}
.gg_145{
fill: none;
stroke: #FFF;
stroke-width: 1.909;
stroke-miterlimit: 10;
}
.gh_145{
fill: none;
stroke: #000;
stroke-width: 0.381;
stroke-miterlimit: 10;
}
]]></style>
</defs>
<path d="M154.8,1244.5H869.3V131.5H154.8v1113Z" class="g0_145"/>
<image clip-path="url(#c0_145)" preserveAspectRatio="none" x="152" y="130" width="720" height="1116" xlink:href="img/1.jpg"/>
<path clip-path="url(#c1_145)" d="M169,228c0,0,-10.3,0,-10.3,10.3v862c0,0,0,10.2,10.3,10.2H847.8c0,0,10.3,0,10.3,-10.2v-862c0,0,0,-10.3,-10.3,-10.3H169Z" class="g1_145"/>
<image clip-path="url(#c2_145)" preserveAspectRatio="none" x="169" y="241" width="677" height="855" xlink:href="img/2.jpg"/>
<path clip-path="url(#c1_145)" d="M168.6,1096.1H845.7V240.8H168.6v855.3Z" class="g2_145"/>
<path d="M533.3,295.9c0,0,-5.7,0,-5.7,5.8v29.2c0,0,0,5.8,5.7,5.8h97.1c0,0,5.8,0,5.8,-5.8V301.7c0,0,0,-5.8,-5.8,-5.8H533.3Z" class="g3_145"/>
<path d="M612.9,396.7c0,0,-5.8,0,-5.8,5.8v29.2c0,0,0,5.8,5.8,5.8H710c0,0,5.7,0,5.7,-5.8V402.5c0,0,0,-5.8,-5.7,-5.8H612.9Z" class="g3_145"/>
<path d="M662.3,618.2c0,0,-5.8,0,-5.8,5.8v29.2c0,0,0,5.7,5.8,5.7h97.1c0,0,5.7,0,5.7,-5.7V624c0,0,0,-5.8,-5.7,-5.8H662.3Z" class="g3_145"/>
<path d="M436,381c0,0,-5.8,0,-5.8,5.7v29.2c0,0,0,5.8,5.8,5.8h97.1c0,0,5.7,0,5.7,-5.8V386.7c0,0,0,-5.7,-5.7,-5.7H436Z" class="g3_145"/>
<path d="M245.1,860c0,0,-5.8,0,-5.8,5.7V895c0,0,0,5.7,5.8,5.7h60c0,0,5.8,0,5.8,-5.7V865.7c0,0,0,-5.7,-5.8,-5.7h-60Z" class="g3_145"/>
<path d="M453.3,785.9c0,0,-5.8,0,-5.8,5.8v29.2c0,0,0,5.8,5.8,5.8h60c0,0,5.8,0,5.8,-5.8V791.7c0,0,0,-5.8,-5.8,-5.8h-60Z" class="g3_145"/>
<path d="M631,847.6c0,0,-5.8,0,-5.8,5.8v29.2c0,0,0,5.8,5.8,5.8h60.1c0,0,5.7,0,5.7,-5.8V853.4c0,0,0,-5.8,-5.7,-5.8H631Z" class="g3_145"/>
<path d="M414.1,372.5c0,0,-8.7,0,-8.7,8.6v34.7c0,0,0,8.6,8.7,8.6H549.6c0,0,8.7,0,8.7,-8.6V381.1c0,0,0,-8.6,-8.7,-8.6Z" class="g4_145"/>
<path d="M443.8,785.6c0,0,-8.7,0,-8.7,8.7v30.3c0,0,0,8.7,8.7,8.7h82.3c0,0,8.6,0,8.6,-8.7V794.3c0,0,0,-8.7,-8.6,-8.7Z" class="g4_145"/>
<path d="M622.6,845.4c0,0,-8.6,0,-8.6,8.7v30.3c0,0,0,8.6,8.6,8.6h93.7c0,0,8.7,0,8.7,-8.6V854.1c0,0,0,-8.7,-8.7,-8.7Z" class="g4_145"/>
<path d="M230.2,854.7c0,0,-8.6,0,-8.6,8.7v30.3c0,0,0,8.6,8.6,8.6h91c0,0,8.6,0,8.6,-8.6V863.4c0,0,0,-8.7,-8.6,-8.7Z" class="g4_145"/>
<path d="M595.1,394c0,0,-8.7,0,-8.7,8.7V433c0,0,0,8.7,8.7,8.7H729.3c0,0,8.7,0,8.7,-8.7V402.7c0,0,0,-8.7,-8.7,-8.7Z" class="g4_145"/>
<path d="M519.3,292.3c0,0,-8.7,0,-8.7,8.6v30.3c0,0,0,8.7,8.7,8.7h118c0,0,8.7,0,8.7,-8.7V300.9c0,0,0,-8.6,-8.7,-8.6Z" class="g4_145"/>
<path d="M655.7,614.1c0,0,-8.7,0,-8.7,8.7v30.3c0,0,0,8.7,8.7,8.7H822.4c0,0,8.7,0,8.7,-8.7V622.8c0,0,0,-8.7,-8.7,-8.7Z" class="g4_145"/>
<path d="M153.3,126.3v22.2L165,158.7V136.5Z" class="g5_145"/>
<path d="M153.3,109.5v39H851.1c0,0,16.8,0,16.8,-16.8v-5.4c0,0,0,-16.8,-16.8,-16.8Z" class="g6_145"/>
<path d="M207.2,115.7c0,-9.1,-7.9,-16.6,-17.7,-16.6c-9.8,0,-17.7,7.5,-17.7,16.6c0,2.7,.6,5.2,1.8,7.4c1.2,2.4,2.9,4.6,5,6.2c1.2,1,1.6,1.7,1.7,4.3v.6c0,3.3,2.7,5.9,5.9,5.9h6.6c3.2,0,5.8,-2.6,5.8,-5.9v-.6c.2,-2.6,.6,-3.3,1.8,-4.3c2.1,-1.6,3.8,-3.8,5,-6.2c1.2,-2.2,1.8,-4.7,1.8,-7.4Z" class="g7_145"/>
<path d="M207.2,115.7c0,-9.1,-7.9,-16.6,-17.7,-16.6c-9.8,0,-17.7,7.5,-17.7,16.6c0,2.7,.6,5.2,1.8,7.4c1.2,2.4,2.9,4.6,5,6.2c1.2,1,1.6,1.7,1.7,4.3v.6c0,3.3,2.7,5.9,5.9,5.9h6.6c3.2,0,5.8,-2.6,5.8,-5.9v-.6c.2,-2.6,.6,-3.3,1.8,-4.3c2.1,-1.6,3.8,-3.8,5,-6.2c1.2,-2.2,1.8,-4.7,1.8,-7.4Z" class="g8_145"/>
<path d="M194.6,147.4c0,2.8,-2.3,5.1,-5.1,5.1c-2.8,0,-5.1,-2.3,-5.1,-5.1c0,-2.8,2.3,-5.1,5.1,-5.1c2.8,0,5.1,2.3,5.1,5.1Z" class="g0_145"/>
<path d="M194.6,147.4c0,2.8,-2.3,5.1,-5.1,5.1c-2.8,0,-5.1,-2.3,-5.1,-5.1c0,-2.8,2.3,-5.1,5.1,-5.1c2.8,0,5.1,2.3,5.1,5.1Z" class="g8_145"/>
<path d="M182.1,140.2c0,1,.8,1.8,1.8,1.8h11.2c1,0,1.8,-.8,1.8,-1.8v-1.3H182.1Z" class="g0_145"/>
<path d="M182.1,140.2c0,1,.8,1.8,1.8,1.8h11.2c1,0,1.8,-.8,1.8,-1.8v-1.3H182.1v1.3Z" class="g8_145"/>
<path d="M196.9,143.2c0,.8,-.6,1.3,-1.3,1.3H183.4c-.8,0,-1.3,-.5,-1.3,-1.3c0,-.7,.5,-1.3,1.3,-1.3h12.2c.7,0,1.3,.6,1.3,1.3Z" class="g0_145"/>
<path d="M196.9,143.2c0,.8,-.6,1.3,-1.3,1.3H183.4c-.8,0,-1.3,-.5,-1.3,-1.3c0,-.7,.5,-1.3,1.3,-1.3h12.2c.7,0,1.3,.6,1.3,1.3Z" class="g8_145"/>
<path d="M196.9,145.8c0,.7,-.6,1.3,-1.3,1.3H183.4c-.8,0,-1.3,-.6,-1.3,-1.3c0,-.7,.5,-1.3,1.3,-1.3h12.2c.7,0,1.3,.6,1.3,1.3Z" class="g0_145"/>
<path d="M196.9,145.8c0,.7,-.6,1.3,-1.3,1.3H183.4c-.8,0,-1.3,-.6,-1.3,-1.3c0,-.7,.5,-1.3,1.3,-1.3h12.2c.7,0,1.3,.6,1.3,1.3Z" class="g8_145"/>
<path d="M215.5,128.7l8.3,10.4c.6,.7,1.8,.6,2.7,-.2c.9,-.7,1.2,-1.9,.7,-2.6l-8.9,-10.2Z" class="g9_145"/>
<path d="M215.5,128.7l8.3,10.4c.6,.7,1.8,.6,2.7,-.2c.9,-.7,1.2,-1.9,.7,-2.6l-8.9,-10.2l-2.8,2.6Z" class="g8_145"/>
<path d="M217.5,125.1c.5,.6,.3,1.8,-.7,2.6c-.9,.7,-2.1,.8,-2.6,.2c-.6,-.7,-.3,-1.9,.6,-2.6c.9,-.8,2.1,-.9,2.7,-.2Z" class="ga_145"/>
<path d="M217.5,125.1c.5,.6,.3,1.8,-.7,2.6c-.9,.7,-2.1,.8,-2.6,.2c-.6,-.7,-.3,-1.9,.6,-2.6c.9,-.8,2.1,-.9,2.7,-.2Z" class="g8_145"/>
<path d="M212.7,124.7l1.7,2c.3,.3,1,.3,1.5,-.1c.5,-.5,.7,-1.1,.4,-1.5l-1.7,-2Z" class="g0_145"/>
<path d="M212.7,124.7l1.7,2c.3,.3,1,.3,1.5,-.1c.5,-.5,.7,-1.1,.4,-1.5l-1.7,-2l-1.9,1.6Z" class="gb_145"/>
<path d="M214.8,122.9c.4,.5,.2,1.3,-.5,1.8c-.6,.5,-1.4,.6,-1.8,.1c-.4,-.4,-.2,-1.2,.5,-1.7c.6,-.6,1.4,-.6,1.8,-.2Z" class="g0_145"/>
<path d="M214.8,122.9c.4,.5,.2,1.3,-.5,1.8c-.6,.5,-1.4,.6,-1.8,.1c-.4,-.4,-.2,-1.2,.5,-1.7c.6,-.6,1.4,-.6,1.8,-.2Z" class="gb_145"/>
<path d="M216.4,105.4c4.8,5.7,4.1,14.2,-1.7,19c-5.7,4.8,-14.2,4,-19,-1.7c-4.8,-5.7,-4,-14.2,1.7,-19c5.7,-4.8,14.2,-4.1,19,1.7Z" class="g0_145"/>
<path d="M216.4,105.4c4.8,5.7,4.1,14.2,-1.7,19c-5.7,4.8,-14.2,4,-19,-1.7c-4.8,-5.7,-4,-14.2,1.7,-19c5.7,-4.8,14.2,-4.1,19,1.7Z" class="g8_145"/>
<path d="M214,107.4c3.5,4.2,3,10.5,-1.3,14.1c-4.2,3.5,-10.5,2.9,-14,-1.3c-3.5,-4.2,-3,-10.5,1.2,-14c4.2,-3.6,10.5,-3,14.1,1.2Z" class="gc_145"/>
<path d="M214,107.4c3.5,4.2,3,10.5,-1.3,14.1c-4.2,3.5,-10.5,2.9,-14,-1.3c-3.5,-4.2,-3,-10.5,1.2,-14c4.2,-3.6,10.5,-3,14.1,1.2Z" class="g8_145"/>
<path d="M213,110.6l-3.1,3m3.1,-.4l-3.1,3" class="gd_145"/>
<path d="M172.1,99l3.1,3.3m1.1,-5.9l1.2,3.9m-8.1,3l3.7,1.2" class="ge_145"/>
<path d="M185.8,106.1c1.2,1.2,.2,4.3,-2.2,6.7c-2.5,2.5,-5.5,3.5,-6.8,2.3c-1.2,-1.3,-.3,-4.3,2.2,-6.8c2.5,-2.5,5.5,-3.5,6.8,-2.2Z" class="g0_145"/>
<path d="M203.7,107.6c.6,.6,.1,1.9,-.9,3c-1.1,1,-2.4,1.5,-3,.9c-.5,-.5,-.1,-1.8,1,-2.9c1.1,-1.1,2.4,-1.5,2.9,-1Z" class="g0_145"/>
<path d="M467.4,183.4v9.2c0,.4,-.1,.8,-.2,1.2c-.1,.4,-.2,.8,-.4,1.3c-.1,.4,-.4,.8,-.6,1.1c-.3,.4,-.6,.7,-1,.9h.6c.6,0,1.1,.2,1.3,.4c.2,.3,.3,.8,.2,1.3l-.3,3.9c-.1,.3,-.2,.5,-.3,.6c-.2,.1,-.4,.2,-.7,.2H454.3v2.8h7.8c.8,0,1.7,0,2.6,-.1c.9,-.1,1.9,-.3,2.9,-.7l.4,1.7c-.8,.3,-1.7,.5,-2.7,.7c-1,.1,-2,.2,-3.1,.2h-8.4c-.6,0,-1.1,-.2,-1.3,-.4c-.3,-.3,-.4,-.7,-.4,-1.2v-4.8h13v-2.8h-13v-1.8h11.1c.8,-.6,1.2,-1.3,1.5,-2.1c.3,-.8,.4,-1.6,.4,-2.4v-9.2h2.3Zm-18.7,.4H458c.8,0,1.3,.2,1.6,.7c.3,.4,.4,1,.2,1.7c-.2,1.2,-.7,2.3,-1.3,3.3c-.7,.9,-1.5,1.8,-2.4,2.6c-.9,.8,-1.9,1.5,-3.1,2.2c-1.1,.6,-2.3,1.2,-3.6,1.7l-.8,-1.8c1.1,-.5,2.2,-1,3.3,-1.6c1,-.5,1.9,-1.2,2.7,-1.8c.8,-.7,1.4,-1.4,2,-2.2c.5,-.7,.8,-1.5,1,-2.3c0,-.2,0,-.4,-.1,-.5c-.1,-.2,-.3,-.2,-.5,-.2h-8.3v-1.8Zm39.7,22.4V193.8h-5.8V192h5.8v-8.3h2.2v22.5h-2.2ZM471.7,200c2.8,-1.8,4.9,-3.8,6.5,-6c1.6,-2.2,2.5,-4.4,2.8,-6.7c0,-.3,0,-.5,-.2,-.6c-.1,-.2,-.3,-.2,-.5,-.2h-8.8v-1.8h9.7c.8,0,1.4,.2,1.7,.6c.3,.5,.4,1.1,.3,1.9c-.3,2.5,-1.3,5,-2.9,7.6c-1.7,2.5,-4.1,4.8,-7.3,7L471.7,200Zm24.6,0c-.5,-.5,-.7,-1.2,-.7,-2.1v-6.4h8.5v-5.3h-8.5v-1.8h10.8v8.2c-.6,.2,-1.2,.4,-1.8,.5c-.6,.1,-1.3,.2,-1.9,.2h-4.9V198c0,.3,.1,.5,.2,.6c.1,.2,.3,.2,.6,.2h4c.6,0,1.3,0,2.1,-.1c.8,-.1,1.6,-.2,2.4,-.4c.9,-.2,1.7,-.4,2.5,-.7c.9,-.3,1.6,-.7,2.3,-1.1V183.7h2.3v22.5h-2.3v-7.6c-1.5,.7,-3,1.2,-4.7,1.5c-1.6,.4,-3.1,.5,-4.6,.5h-4.3c-.9,0,-1.6,-.2,-2,-.6Z" class="gf_145"/>
<path d="M32.1,45.1H9.2m958.3,0h22.9M32.1,1331.3H9.2m958.3,0h22.9M45.1,32.1V9.2m0,1335.1v22.9M954.5,32.1V9.2m0,1335.1v22.9" class="gg_145"/>
<path d="M32.1,45.1H9.2m958.3,0h22.9M32.1,1331.3H9.2m958.3,0h22.9M45.1,32.1V9.2m0,1335.1v22.9M954.5,32.1V9.2m0,1335.1v22.9" class="gh_145"/>
<path d="M27.5,32.1H0m972.1,0h27.5M27.5,1344.3H0m972.1,0h27.5M32.1,27.5V0m0,1348.9v27.5M967.5,27.5V0m0,1348.9v27.5" class="gg_145"/>
<path d="M27.5,32.1H0m972.1,0h27.5M27.5,1344.3H0m972.1,0h27.5M32.1,27.5V0m0,1348.9v27.5M967.5,27.5V0m0,1348.9v27.5" class="gh_145"/>
</svg>