<?xml version="1.0" encoding="UTF-8" standalone="no"?>
<!DOCTYPE svg PUBLIC "-//W3C//DTD SVG 1.1//EN"
"http://www.w3.org/Graphics/SVG/1.1/DTD/svg11.dtd">
<svg viewBox="0 0 999 1376" version="1.1" xmlns="http://www.w3.org/2000/svg" xmlns:xlink="http://www.w3.org/1999/xlink">
<defs>
<clipPath id="c0_356"><path d="M32.1,1344.3V32.1H967.5V1344.3Z"/></clipPath>
<clipPath id="c1_356"><path d="M179.3,562.5l-6.5,-2.1L156.4,546.5V489.4h72v73.1Z"/></clipPath>
<clipPath id="c2_356"><path d="M176.6,1082.3l-6.5,-2.1l-16.4,-13.9v-57.1h72v73.1Z"/></clipPath>
<clipPath id="c3_356"><path d="M178.4,137.2c.1,-1.3,.7,-2.5,1.6,-3.4c1,-1,2.4,-1.6,3.9,-1.6h19.2v5Z"/></clipPath>
<clipPath id="c4_356"><path d="M177.9,137.7v-6h25.7v6Z"/></clipPath>
<style type="text/css"><![CDATA[
.g0_356{
fill: #FEFCF4;
}
.g1_356{
fill: #DCE9F3;
}
.g2_356{
fill: #9BD1EA;
}
.g3_356{
fill: #FFF;
}
.g4_356{
fill: none;
stroke: #58595B;
stroke-width: 0.381;
stroke-miterlimit: 10;
}
.g5_356{
fill: #6381B7;
}
.g6_356{
fill: none;
stroke: #6381B7;
stroke-width: 0.381;
stroke-dasharray: 2,1;
}
.g7_356{
fill: none;
stroke: #6381B7;
stroke-width: 0.381;
}
.g8_356{
fill: #8B9FCA;
}
.g9_356{
fill: none;
stroke: #231F20;
stroke-width: 0.458;
stroke-miterlimit: 10;
}
.ga_356{
fill: none;
stroke: #FFF;
stroke-width: 0.152;
}
.gb_356{
fill: none;
stroke: #6381B7;
stroke-width: 0.763;
}
.gc_356{
fill: #C6DCEC;
}
.gd_356{
fill: none;
stroke: #231F20;
stroke-width: 0.305;
stroke-miterlimit: 10;
}
.ge_356{
fill: #48484A;
}
.gf_356{
fill: #F0E8F3;
}
.gg_356{
fill: #766FA6;
}
.gh_356{
fill: #FCE8B0;
}
.gi_356{
fill: #25408F;
}
.gj_356{
fill: none;
stroke: #231F20;
stroke-width: 1.527;
}
.gk_356{
fill: #39B4D1;
stroke: #2D2A4A;
stroke-width: 1.038;
stroke-linecap: round;
stroke-linejoin: round;
}
.gl_356{
fill: #2D2A4A;
}
.gm_356{
fill: none;
stroke: #2D2A4A;
stroke-width: 1.038;
stroke-linecap: round;
stroke-linejoin: round;
}
.gn_356{
fill: #DEDAD3;
}
.go_356{
fill: #29263F;
}
.gp_356{
fill: #E15F46;
stroke: #2D2A4A;
stroke-width: 1.038;
stroke-linecap: round;
stroke-linejoin: round;
}
.gq_356{
fill: none;
stroke: #FFF;
stroke-width: 1.909;
stroke-miterlimit: 10;
}
.gr_356{
fill: none;
stroke: #000;
stroke-width: 0.381;
stroke-miterlimit: 10;
}
]]></style>
</defs>
<path clip-path="url(#c0_356)" d="M954.5,1344.3H1877V32.1H954.5V1344.3Z" class="g0_356"/>
<path d="M149.3,166.3c0,0,-17.3,0,-17.3,17.4V423.9c0,0,0,17.3,17.3,17.3H829.2c0,0,17.4,0,17.4,-17.3V183.7c0,0,0,-17.4,-17.4,-17.4Z" class="g1_356"/>
<path d="M202.1,238H431v30.1H202.1V238ZM431,238H780.7v30.1H431V238Z" class="g2_356"/>
<path d="M202.1,268.1H431v53.5H202.1V268.1Zm228.9,0H780.7v53.5H431V268.1Z" class="g3_356"/>
<path d="M202.1,238H431m0,0H780.7M431,267.9V238.1m-228.9,30H431m0,0H780.7M431,321.4V268.3M202.1,321.6H431m0,0H780.7" class="g4_356"/>
<path d="M577.3,1214.8c0,0,-4.4,0,-4.4,4.4V1230c0,0,0,4.3,4.4,4.3h30.3c0,0,4.3,0,4.3,-4.3v-10.8c0,0,0,-4.4,-4.3,-4.4Z" class="g5_356"/>
<path d="M564.1,1206v37.5m1.3,1H845.1m1,-1.3v-37.6m-1.4,-1H565" class="g6_356"/>
<path d="M564.1,1243.9v.6h.6m280.8,0h.6v-.6m0,-38.7v-.6h-.6m-280.8,0h-.6v.6" class="g7_356"/>
<path d="M495.5,934.7c0,0,-4.3,0,-4.3,4.3v10.8c0,0,0,4.3,4.3,4.3h30.3c0,0,4.4,0,4.4,-4.3V939c0,0,0,-4.3,-4.4,-4.3Z" class="g8_356"/>
<path d="M482.3,927.2V962m1.4,1H845.1m1,-1.4V926.8m-1.4,-1H483.3" class="g6_356"/>
<path d="M482.3,962.4v.6h.6m362.6,0h.6v-.6m0,-36v-.6h-.6m-362.6,0h-.6v.6" class="g7_356"/>
<path d="M145.1,989.6c0,0,-13,0,-13,12.9v183.4c0,0,0,13,13,13H832.9c0,0,13,0,13,-13V1002.5c0,0,0,-12.9,-13,-12.9Z" class="g0_356"/>
<path d="M300.8,1175.8H452.1m189.4,0h156" class="g9_356"/>
<path d="M158.6,1160.9c-.4,.4,-.8,.8,-1.2,1.1c-.5,.4,-.9,.6,-1.4,.8v1.2c.5,-.3,.9,-.5,1.4,-.8c.4,-.3,.8,-.7,1.2,-1.1v11.2h1.1v-12.1c0,-.1,0,-.2,-.1,-.2c0,-.1,-.1,-.1,-.2,-.1h-.8Zm6.3,12.6h1.4V1172h-1.4v1.5Zm18.9,-9.2h-7.7v-2.9h7.7v2.9Zm1,-3.5c0,-.1,0,-.2,-.1,-.2c0,-.1,-.1,-.1,-.2,-.1h-9q-.2,0,-.3,.1c0,0,0,.1,0,.2v4.1c0,.1,0,.2,0,.2q.1,.1,.3,.1h4v2.1h-6.2v.9h13.3v-.9h-6.1v-2.1h4c.1,0,.2,0,.2,-.1c.1,0,.1,-.1,.1,-.2v-4.1Zm-1,13.1h-7.6v-3.2h7.6v3.2Zm.9,.8c.1,0,.1,-.1,.1,-.2v-4.3c0,-.1,0,-.2,-.1,-.3c0,0,-.1,0,-.2,0h-9c-.1,0,-.2,0,-.3,0c0,.1,0,.2,0,.3v4.3c0,.1,0,.2,0,.2c.1,.1,.2,.1,.3,.1h9c.1,0,.2,0,.2,-.1Zm4.7,-12.9c-.7,.9,-1,2.4,-1,4.2c0,1.9,.3,3.3,1,4.3c.6,.9,1.5,1.4,2.5,1.4c1,0,1.8,-.5,2.5,-1.4c.6,-1,.9,-2.4,.9,-4.3c0,-1.8,-.3,-3.3,-.9,-4.2c-.7,-.9,-1.5,-1.4,-2.5,-1.4c-1,0,-1.9,.5,-2.5,1.4Zm4.3,.8c.4,.9,.6,2,.6,3.4c0,1.5,-.2,2.6,-.6,3.5c-.5,.8,-1.1,1.3,-1.8,1.3c-.8,0,-1.4,-.5,-1.8,-1.3c-.5,-.9,-.7,-2,-.7,-3.5c0,-1.4,.2,-2.5,.7,-3.4c.4,-.9,1,-1.3,1.8,-1.3c.7,0,1.3,.4,1.8,1.3Zm4.8,12.3h1V1160h-1v14.9Zm9.5,-13.1c-.6,.9,-.9,2.4,-.9,4.2c0,1.9,.3,3.3,.9,4.3c.7,.9,1.5,1.4,2.5,1.4c1,0,1.8,-.5,2.5,-1.4c.6,-1,.9,-2.4,.9,-4.3c0,-1.8,-.3,-3.3,-.9,-4.2c-.7,-.9,-1.5,-1.4,-2.5,-1.4c-1,0,-1.8,.5,-2.5,1.4Zm4.3,.8c.4,.9,.6,2,.6,3.4c0,1.5,-.2,2.6,-.6,3.5c-.4,.8,-1,1.3,-1.8,1.3c-.7,0,-1.3,-.5,-1.8,-1.3c-.4,-.9,-.6,-2,-.6,-3.5c0,-1.4,.2,-2.5,.6,-3.4c.5,-.9,1.1,-1.3,1.8,-1.3c.8,0,1.3,.4,1.8,1.3Zm4.4,12.4h1.1v-8.7h2.3v-.9h-2.3V1160h-1.1v15Zm10,-13.1l-.1,8.1c-.3,0,-.7,0,-1.2,0c-.4,0,-1,0,-1.6,0l-.1,-8.1h3Zm-5.4,0h1.4l.1,8.1h-1.9v1l1.6,-.1c1.6,0,3,0,4.3,0c1.4,-.1,2.5,-.2,3.5,-.3v-.9c-.3,0,-.7,.1,-1.2,.1c-.5,.1,-.9,.1,-1.4,.1v-8h1.4v-1h-7.8v1ZM231,1175h1v-9h2.3v-.9H232V1160h-1v15Zm8,-12c0,1,-.2,1.9,-.4,2.7c-.2,.8,-.5,1.5,-.9,2.2c-.4,.7,-.8,1.3,-1.3,1.8c-.6,.6,-1.1,1,-1.8,1.4l1,.8c.5,-.4,.9,-.8,1.3,-1.2c.4,-.4,.8,-.9,1.1,-1.4c.4,-.4,.7,-.9,.9,-1.4c.3,-.5,.4,-1,.6,-1.5c.3,1.1,.9,2.1,1.6,2.9c.7,.8,1.4,1.5,2.3,2.1l.8,-.8c-1.3,-.8,-2.4,-1.7,-3.1,-2.9c-.7,-1.2,-1.1,-2.7,-1.1,-4.3v-2.7h-1v2.3Zm6.9,1.7h-3.4v.9h3.4v9.3h1V1160h-1v4.7Zm12.6,-4.1c-.7,.2,-1.2,.5,-1.6,.9c-.5,.3,-.8,.7,-1.1,1.2c-.2,.5,-.3,1.1,-.3,1.7c0,1.2,.4,2.1,1.2,2.8c.8,.7,1.9,1.1,3.3,1.2v3.6h-6.2v.9h13.4v-.9H261v-3.6c1.4,-.1,2.5,-.5,3.3,-1.2c.8,-.7,1.3,-1.6,1.3,-2.8c0,-.6,-.2,-1.2,-.4,-1.7c-.3,-.5,-.6,-.9,-1,-1.2c-.5,-.4,-1,-.7,-1.6,-.9c-.6,-.1,-1.3,-.2,-2.1,-.2c-.7,0,-1.4,.1,-2,.2Zm3.6,.8c.5,.2,.9,.4,1.3,.7c.3,.3,.6,.6,.8,1c.2,.4,.3,.8,.3,1.3c0,.5,-.1,.9,-.3,1.3c-.2,.4,-.5,.7,-.8,1c-.4,.3,-.8,.5,-1.3,.6c-.5,.2,-1,.3,-1.6,.3c-.6,0,-1.1,-.1,-1.6,-.3c-.5,-.1,-.9,-.3,-1.2,-.6c-.4,-.3,-.7,-.6,-.8,-1c-.2,-.4,-.3,-.8,-.3,-1.3c0,-.5,.1,-.9,.3,-1.3c.1,-.4,.4,-.7,.8,-1c.3,-.3,.7,-.5,1.2,-.7c.5,-.1,1,-.2,1.6,-.2c.6,0,1.1,.1,1.6,.2Zm17.8,2.9v-.9h-9V1160h-1v4c0,.1,0,.2,.1,.2c0,.1,.1,.1,.2,.1h9.7Zm-11.8,2.5h13.3v-.9H268.1v.9Zm1.9,4.4c-.1,.1,-.1,.2,-.1,.3v2.9q0,.2,.1,.3c0,0,.1,.1,.2,.1h9.7v-.9H271V1172h8.2c.1,0,.2,0,.3,-.1c0,0,0,-.1,0,-.2v-2.9c0,-.1,0,-.2,0,-.2c-.1,-.1,-.2,-.1,-.3,-.1h-9.3v.9h8.6v1.8h-8.3c-.1,0,-.2,0,-.2,0Zm16.9,-11c-.6,.1,-1.2,.3,-1.6,.6c-.4,.3,-.8,.6,-1,1c-.3,.4,-.4,.8,-.4,1.3c0,.5,.1,.9,.4,1.3c.2,.4,.6,.7,1,1c.4,.3,1,.5,1.6,.6c.6,.2,1.3,.2,2,.2c.8,0,1.4,0,2,-.2c.7,-.1,1.2,-.3,1.6,-.6c.5,-.3,.8,-.6,1,-1c.3,-.4,.4,-.8,.4,-1.3c0,-.5,-.1,-.9,-.4,-1.3c-.2,-.4,-.5,-.7,-1,-1c-.4,-.3,-.9,-.5,-1.6,-.6c-.6,-.2,-1.2,-.3,-2,-.3c-.7,0,-1.4,.1,-2,.3Zm3.6,.8c.5,.1,.9,.3,1.2,.5c.4,.2,.7,.4,.9,.7c.2,.3,.3,.6,.3,.9c0,.4,-.1,.7,-.3,.9c-.2,.3,-.5,.6,-.9,.8c-.3,.2,-.7,.3,-1.2,.4c-.5,.2,-1,.2,-1.6,.2c-.6,0,-1.1,0,-1.6,-.2c-.5,-.1,-.9,-.2,-1.2,-.4c-.4,-.2,-.7,-.5,-.8,-.8c-.2,-.2,-.3,-.5,-.3,-.9c0,-.3,.1,-.6,.3,-.9c.1,-.3,.4,-.5,.8,-.7c.3,-.2,.7,-.4,1.2,-.5c.5,-.2,1,-.2,1.6,-.2c.6,0,1.1,0,1.6,.2Zm-8.2,7.8h13.3v-.9H282.3v.9Zm12,5.8v-.9h-9.2v-3.5h-1v4.1c0,.1,.1,.2,.1,.3c0,0,.1,0,.3,0h9.8Zm159.2,-.9h1.7v-1.8h-1.7v1.8Zm28,-.5c0,0,.1,.1,.2,.1h7v-1h-6.2c.5,-.5,1.1,-1.1,1.8,-1.8c.6,-.6,1.3,-1.4,1.9,-2.1c.6,-.8,1.1,-1.5,1.6,-2.3c.4,-.8,.6,-1.5,.6,-2.3c0,-1,-.3,-1.8,-1,-2.4c-.6,-.5,-1.4,-.8,-2.4,-.8c-.5,0,-1,.1,-1.4,.2c-.4,.2,-.8,.4,-1.1,.7c-.3,.4,-.5,.7,-.7,1.1c-.2,.5,-.3,.9,-.3,1.4h1.1c0,-.3,0,-.6,.2,-.9c.1,-.4,.2,-.6,.5,-.8c.2,-.3,.4,-.5,.7,-.6c.3,-.1,.6,-.2,.9,-.2c.7,0,1.3,.2,1.8,.6c.4,.5,.7,1,.7,1.8c0,.3,-.1,.6,-.2,1c-.2,.3,-.3,.7,-.6,1c-.2,.4,-.4,.8,-.7,1.2c-.3,.4,-.6,.8,-.9,1.2c-.4,.4,-.7,.8,-1,1.2c-.4,.4,-.7,.7,-1,1.1c-.3,.3,-.6,.6,-.9,.9c-.3,.2,-.5,.5,-.7,.7v.8c0,.1,.1,.2,.1,.2Zm9.9,.3h1.4V1172h-1.4v1.5Zm9.6,-11.7h3.2v1.2c0,1.8,-.4,3.4,-1.1,4.7c-.8,1.4,-1.8,2.5,-3.2,3.4l1,.8c.8,-.7,1.6,-1.5,2.3,-2.4c.7,-1,1.2,-2,1.5,-3.1c.4,1,.9,2,1.6,2.9c.7,.8,1.5,1.6,2.3,2.1l.9,-.8c-1.5,-.9,-2.6,-1.9,-3.3,-3.2c-.6,-1.2,-1,-2.5,-1,-4v-1.6h3.3v-.9H501v.9Zm10.1,13.1h1.1V1160h-1.1v14.9Zm4.6,-14.4v.9h9c0,.3,-.1,.7,-.1,1.1c-.1,.4,-.1,.8,-.2,1.3c0,.4,-.1,.8,-.2,1.2c0,.5,-.1,.8,-.2,1.2h-9.9v.9h13.2v-.9H525c.1,-.4,.2,-.9,.2,-1.4c.1,-.4,.2,-.9,.2,-1.4c.1,-.5,.2,-1,.2,-1.4c.1,-.5,.1,-.9,.1,-1.2c0,-.1,0,-.2,-.1,-.2c0,-.1,-.1,-.1,-.2,-.1h-9.7Zm8.8,13.4h-7.6v-3.7h7.6v3.7Zm.9,.8c.1,0,.1,-.1,.1,-.2v-4.9c0,-.1,0,-.2,-.1,-.2c0,-.1,-.1,-.1,-.2,-.1h-9c-.1,0,-.2,0,-.2,.1c-.1,0,-.1,.1,-.1,.2v4.9c0,.1,0,.2,.1,.2c0,.1,.1,.1,.2,.1h9c.1,0,.2,0,.2,-.1Zm7.4,-14.5c-.6,.1,-1.1,.3,-1.5,.6c-.5,.3,-.8,.6,-1.1,1c-.2,.4,-.3,.8,-.3,1.3c0,.5,.1,.9,.3,1.3c.3,.4,.6,.7,1.1,1c.4,.3,.9,.5,1.5,.6c.7,.2,1.3,.2,2.1,.2c.7,0,1.4,0,2,-.2c.6,-.1,1.2,-.3,1.6,-.6c.4,-.3,.8,-.6,1,-1c.3,-.4,.4,-.8,.4,-1.3c0,-.5,-.1,-.9,-.4,-1.3c-.2,-.4,-.6,-.7,-1,-1c-.4,-.3,-1,-.5,-1.6,-.6c-.6,-.2,-1.3,-.3,-2,-.3c-.8,0,-1.4,.1,-2.1,.3Zm3.7,.8c.4,.1,.9,.3,1.2,.5c.4,.2,.6,.4,.8,.7c.2,.3,.3,.6,.3,.9c0,.4,-.1,.7,-.3,.9c-.2,.3,-.4,.6,-.8,.8c-.3,.2,-.8,.3,-1.2,.4c-.5,.2,-1,.2,-1.6,.2c-.6,0,-1.1,0,-1.6,-.2c-.5,-.1,-.9,-.2,-1.3,-.4c-.3,-.2,-.6,-.5,-.8,-.8c-.2,-.2,-.3,-.5,-.3,-.9c0,-.3,.1,-.6,.3,-.9c.2,-.3,.5,-.5,.8,-.7c.4,-.2,.8,-.4,1.3,-.5c.5,-.2,1,-.2,1.6,-.2c.6,0,1.1,0,1.6,.2Zm-8.2,7.8h13.2v-.9H528.3v.9Zm11.9,5.8v-.9h-9.1v-3.5h-1v4.1c0,.1,0,.2,.1,.3c0,0,.1,0,.2,0h9.8Zm13.5,-4.4h-4.6v-4.5h4.6v4.5Zm-5.6,.9q.1,0,.3,0h6c.1,0,.2,0,.2,0c.1,-.1,.1,-.2,.1,-.3v-10h-1v4h-4.6v-4h-1v10c0,.1,0,.2,0,.3Zm9.4,3.9h1.1v-8.5h2.2v-.9h-2.2V1160h-1.1v15Zm8.1,-4.8h-2.3v-4.5h2.3v4.5Zm1,-4.5h2.5v4.5h-2.5v-4.5Zm-4.2,5.4c0,0,.1,0,.2,0h7.1c.1,0,.2,0,.3,0c0,-.1,0,-.2,0,-.3v-10h-.9v4h-2.5v-4h-1v4h-2.3v-4h-.9v10c0,.1,0,.2,0,.3Zm9.6,3.8h1v-8.4h2.1v-.9H573V1160h-1v14.9Zm7.7,-11.9c0,1,-.1,1.9,-.4,2.7c-.2,.8,-.5,1.5,-.9,2.2c-.4,.7,-.8,1.3,-1.3,1.8c-.6,.6,-1.1,1,-1.8,1.4l1,.8c.5,-.4,.9,-.8,1.3,-1.2c.4,-.4,.8,-.9,1.2,-1.4c.3,-.4,.6,-.9,.8,-1.4c.3,-.5,.4,-1,.6,-1.5c.3,1.1,.9,2.1,1.6,2.9c.7,.8,1.4,1.5,2.3,2.1l.8,-.8c-1.3,-.8,-2.3,-1.7,-3.1,-2.9c-.7,-1.2,-1.1,-2.7,-1.1,-4.3v-2.7h-1v2.3Zm6.9,1.7h-3.4v.9h3.4v9.3h1.1V1160h-1.1v4.7Zm9.1,-3.1h3.1v.7c0,1.3,-.4,2.4,-1,3.5c-.6,1,-1.7,1.9,-3.1,2.5l.9,.7c.9,-.4,1.6,-1,2.2,-1.6c.6,-.7,1.1,-1.5,1.5,-2.6c.4,.9,.9,1.6,1.5,2.2c.6,.6,1.3,1.1,2.2,1.6l.8,-.8c-.6,-.3,-1.1,-.6,-1.6,-.9c-.5,-.4,-.9,-.8,-1.3,-1.3c-.4,-.4,-.6,-.9,-.8,-1.5c-.2,-.5,-.3,-1.1,-.3,-1.8v-.7h3v-.9h-7.1v.9Zm10,2h-3.2v.9h3.2v6.6h1.1V1160h-1.1v3.6Zm1.5,11v-.9h-8.6v-3.9h-1.1v4.5c0,.1,.1,.2,.1,.3q.1,0,.3,0h9.3Zm2.5,-11.1h8v-.9h-8v.9Zm1.9,-2.3h4.1v-.9h-4.1v.9Zm-.4,7.3c.5,.5,1.1,.7,2.1,.8v1.9h-4.2v.9h1.6c1.5,0,2.9,0,4.2,0c1.3,-.1,2.6,-.2,4,-.4v-.9c-.3,.1,-.7,.1,-1.1,.1c-.4,.1,-.8,.1,-1.2,.1c-.4,.1,-.8,.1,-1.2,.1c-.4,0,-.8,0,-1.1,0v-1.8c.9,-.1,1.6,-.3,2.1,-.8c.5,-.4,.7,-1,.7,-1.6c0,-.7,-.3,-1.3,-.9,-1.8c-.5,-.5,-1.3,-.7,-2.4,-.7c-1.1,0,-1.9,.2,-2.5,.7c-.5,.5,-.8,1.1,-.8,1.8c0,.6,.2,1.2,.7,1.6Zm4.3,-.5c-.4,.3,-1,.4,-1.7,.4c-.8,0,-1.3,-.1,-1.7,-.4c-.4,-.3,-.6,-.7,-.6,-1.1c0,-.5,.2,-.8,.6,-1.1c.4,-.4,.9,-.5,1.7,-.5c.7,0,1.3,.1,1.7,.5c.4,.3,.6,.6,.6,1.1c0,.4,-.2,.8,-.6,1.1Zm3.9,7h1v-7.6h2.2v-1h-2.2V1160h-1v15Zm5.5,-14.6v.8h8.4v1.4h-8.1q-.2,0,-.3,.1c0,0,0,.1,0,.2v2.5c0,.1,0,.2,0,.2q.1,.1,.3,.1h9.5v-.8h-8.8v-1.4H634c.1,0,.2,-.1,.2,-.1c.1,-.1,.1,-.2,.1,-.3v-2.4c0,-.1,0,-.2,-.1,-.2c0,-.1,-.1,-.1,-.2,-.1h-9.1Zm-1.9,7.5h13.3v-.9H623v.9Zm11.4,4.5c0,-.1,.1,-.2,.1,-.3v-2.5c0,-.1,-.1,-.2,-.1,-.3q-.1,0,-.3,0h-9.2v.8h8.5v1.5h-8.2q-.2,0,-.3,.1c0,0,0,.1,0,.2v2.5q0,.2,0,.3c.1,0,.1,.1,.3,.1h9.6v-.9h-8.9v-1.5h8.2q.2,0,.3,0Zm164.6,1.3h1.6v-1.8H799v1.8Z" class="ga_356"/>
<path d="M145.1,989.6c0,0,-13,0,-13,12.9v183.4c0,0,0,13,13,13H832.9c0,0,13,0,13,-13V1002.5c0,0,0,-12.9,-13,-12.9H145.1Z" class="gb_356"/>
<path d="M351.3,1100.1c0,0,-8.6,0,-8.6,8.7v21.5c0,0,0,8.6,8.6,8.6H626.6c0,0,8.7,0,8.7,-8.6v-21.5c0,0,0,-8.7,-8.7,-8.7Z" class="gc_356"/>
<path d="M144.6,577.3c0,0,-13,0,-13,13V906.5c0,0,0,13,13,13H832.9c0,0,13,0,13,-13V590.3c0,0,0,-13,-13,-13Z" class="g3_356"/>
<path d="M144.6,577.3c0,0,-13,0,-13,13V906.5c0,0,0,13,13,13H832.9c0,0,13,0,13,-13V590.3c0,0,0,-13,-13,-13H144.6Z" class="gb_356"/>
<path d="M172.4,654.8H796V618.4H172.4v36.4Z" class="g3_356"/>
<path d="M360.1,709.3h81.7m93.5,61.9h81.6M351.5,808.6h81.7" class="gd_356"/>
<path d="M221.1,866.8c0,0,-4.3,0,-4.3,4.4v14.7c0,0,0,4.3,4,5.9l30.8,11.6c0,0,4.1,1.5,4.1,-2.8V871.2c0,0,0,-4.4,-4.4,-4.4Z" class="ge_356"/>
<path d="M242.2,853.8c0,0,-13,0,-13,13v25.7c0,0,0,13,13,13H741.5c0,0,12.9,0,12.9,-13V866.8c0,0,0,-13,-12.9,-13Z" class="gf_356"/>
<path d="M221.1,864.7c0,0,-4.3,0,-4.3,4.3v17.3c0,0,0,4.3,4.3,4.3h37.3c0,0,4.3,0,4.3,-4.3V869c0,0,0,-4.3,-4.3,-4.3Z" class="gg_356"/>
<path d="M211.9,491.6c0,0,-13,0,-13,13v47.6c0,0,0,13,13,13H833.5c0,0,13,0,13,-13V504.6c0,0,0,-13,-13,-13Z" class="gh_356"/>
<image clip-path="url(#c1_356)" preserveAspectRatio="none" x="155" y="488" width="75" height="76" xlink:href="img/1.png"/>
<path d="M206.7,557.8c0,0,-26.9,11.3,-51.1,-12.7c0,0,15.2,25.3,49.3,23.9c0,0,24.7,.4,20.2,-10.1c0,0,1.3,-4.4,-18.4,-1.1Z" class="gh_356"/>
<path d="M209.2,1037.3c0,0,-13,0,-13,13V1072c0,0,0,13,13,13h602c0,0,13,0,13,-13v-21.7c0,0,0,-13,-13,-13Z" class="gh_356"/>
<image clip-path="url(#c2_356)" preserveAspectRatio="none" x="152" y="1008" width="75" height="76" xlink:href="img/2.png"/>
<path d="M204,1077.6c0,0,-26.8,11.3,-51.1,-12.7c0,0,15.2,25.3,49.3,23.9c0,0,24.8,.4,20.3,-10.1c0,0,1.2,-4.4,-18.5,-1.1Z" class="gh_356"/>
<path d="M131.7,109.5v39l11.7,10.2V136.5Z" class="gi_356"/>
<path d="M131.7,109.5v39H829.5c0,0,16.8,0,16.8,-16.8v-5.4c0,0,0,-16.8,-16.8,-16.8Z" class="g5_356"/>
<path d="M768.8,131c0,0,-.5,-10,8.6,-9.4c0,0,6.7,-.3,6.6,9.5m-15.3,-1.5v6.5c0,0,-3.3,.3,-3.9,-3c0,0,-.1,-3.8,3.9,-3.5Zm15.4,0v6.5c0,0,3.3,.3,3.9,-3c0,0,.1,-3.8,-3.9,-3.5Z" class="gj_356"/>
<path d="M147.4,140.8h61v-32h-61v32Z" class="gk_356"/>
<path d="M147.4,143.1h61v-2.3h-61v2.3Z" class="gk_356"/>
<path d="M171.8,106.2H152.1v31.5h25.8V112.3c0,-3.4,-2.7,-6.1,-6.1,-6.1Z" class="g3_356"/>
<path d="M171.8,106.2v-.5H152.1c-.1,0,-.3,.1,-.4,.2c-.1,.1,-.1,.2,-.1,.3v31.5c0,.1,0,.3,.1,.4c.1,.1,.3,.1,.4,.1h25.8c.1,0,.2,0,.3,-.1c.1,-.1,.2,-.3,.2,-.4V112.3c0,-3.7,-2.9,-6.6,-6.6,-6.6v1c1.6,0,2.9,.7,3.9,1.7c1,1,1.6,2.3,1.6,3.9v24.9H152.6V106.7h19.2Z" class="gl_356"/>
<path d="M152.1,131.7v6h25.8c0,-3.3,-2.7,-6,-6.1,-6Z" class="g3_356"/>
<path d="M152.1,131.7h-.5v6c0,.1,0,.3,.1,.4c.1,.1,.3,.1,.4,.1h25.8c.1,0,.2,0,.3,-.1c.1,-.1,.2,-.3,.2,-.4c0,-3.6,-3,-6.6,-6.6,-6.6H152.1c-.1,0,-.3,.1,-.4,.2c-.1,.1,-.1,.2,-.1,.4h.5v.5h19.7c1.6,0,2.9,.6,3.9,1.6c1,1,1.6,2.4,1.6,3.9h.6v-.5H152.6v-5.5h-.5v.5Z" class="gl_356"/>
<path d="M155.6,110.9h17.2m-17.2,2.8h17.2m-17.2,2.9h17.2m-17.2,2.9h17.2m-17.2,2.8h17.2m-17.2,2.9h17.2M155.6,128h17.2" class="gm_356"/>
<path d="M171.8,132.2H152.6v5h24.7c-.1,-1.3,-.7,-2.5,-1.6,-3.4c-1,-1,-2.3,-1.6,-3.9,-1.6Z" class="gn_356"/>
<path d="M152.6,132.2h19.2c1.6,0,2.9,.6,3.9,1.6c.9,.9,1.5,2.1,1.6,3.4H152.6Zm19.2,-.5H152.1v6h25.2v-2.5c-.9,-2.1,-3,-3.5,-5.5,-3.5Z" class="go_356"/>
<path d="M183.9,106.2h19.7v31.5H177.9V112.3c0,-3.4,2.7,-6.1,6,-6.1Z" class="g3_356"/>
<path d="M183.9,106.2v.5h19.2v30.5H178.4V112.3c0,-1.6,.6,-2.9,1.6,-3.9c1,-1,2.4,-1.7,3.9,-1.7v-1c-3.6,0,-6.6,2.9,-6.6,6.6v25.4c0,.1,.1,.3,.2,.4c.1,.1,.2,.1,.4,.1h25.7c.2,0,.3,0,.4,-.1c.1,-.1,.1,-.3,.1,-.4V106.2c0,-.1,0,-.2,-.1,-.3c-.1,-.1,-.2,-.2,-.4,-.2H183.9Z" class="gl_356"/>
<path d="M203.6,131.7v6H177.9c0,-3.3,2.7,-6,6,-6Z" class="g3_356"/>
<path d="M203.6,131.7h-.5v5.5H177.9v.5h.5c0,-1.5,.6,-2.9,1.6,-3.9c1,-1,2.4,-1.6,3.9,-1.6h19.7v-.5h-.5h.5v-.6H183.9c-3.6,0,-6.6,3,-6.6,6.6c0,.1,.1,.3,.2,.4c.1,.1,.2,.1,.4,.1h25.7c.2,0,.3,0,.4,-.1c.1,-.1,.1,-.3,.1,-.4v-6c0,-.2,0,-.3,-.1,-.4c-.1,-.1,-.2,-.2,-.4,-.2Z" class="gl_356"/>
<path d="M200.1,110.9H182.9m17.2,2.8H182.9m17.2,2.9H182.9m17.2,2.9H182.9m17.2,2.8H182.9m17.2,2.9H182.9m17.2,2.8H182.9" class="gm_356"/>
<path clip-path="url(#c3_356)" d="M178.4,137.2h24.7v-5H178.4v5Z" class="gn_356"/>
<path clip-path="url(#c4_356)" d="M178.4,137.2c.1,-1.3,.7,-2.5,1.6,-3.4c1,-1,2.4,-1.6,3.9,-1.6h19.2v5Zm25.2,-5.5H183.9c-3.3,0,-6,2.7,-6,6h25.7v-6h-.5h.5Z" class="go_356"/>
<path d="M177.9,108.8v34.3" class="gm_356"/>
<path d="M195.5,145.5h3.3V134.7h-3.3v10.8Z" class="gp_356"/>
<path d="M32.1,45.1H9.2m958.3,0h22.9M32.1,1331.3H9.2m958.3,0h22.9M45.1,32.1V9.2m0,1335.1v22.9M954.5,32.1V9.2m0,1335.1v22.9" class="gq_356"/>
<path d="M32.1,45.1H9.2m958.3,0h22.9M32.1,1331.3H9.2m958.3,0h22.9M45.1,32.1V9.2m0,1335.1v22.9M954.5,32.1V9.2m0,1335.1v22.9" class="gr_356"/>
<path d="M27.5,32.1H0m972.1,0h27.5M27.5,1344.3H0m972.1,0h27.5M32.1,27.5V0m0,1348.9v27.5M967.5,27.5V0m0,1348.9v27.5" class="gq_356"/>
<path d="M27.5,32.1H0m972.1,0h27.5M27.5,1344.3H0m972.1,0h27.5M32.1,27.5V0m0,1348.9v27.5M967.5,27.5V0m0,1348.9v27.5" class="gr_356"/>
</svg>