<?xml version="1.0" encoding="UTF-8" standalone="no"?>
<!DOCTYPE svg PUBLIC "-//W3C//DTD SVG 1.1//EN"
"http://www.w3.org/Graphics/SVG/1.1/DTD/svg11.dtd">
<svg viewBox="0 0 999 1376" version="1.1" xmlns="http://www.w3.org/2000/svg" xmlns:xlink="http://www.w3.org/1999/xlink">
<defs>
<clipPath id="c0_149"><path d="M32.1,1344.3V32.1H967.5V1344.3Z"/></clipPath>
<clipPath id="c1_149"><path d="M682.7,183.7V69.9H865.1V183.7Z"/></clipPath>
<clipPath id="c2_149"><path d="M409.9,800.9V722.2H830.7v78.7Z"/></clipPath>
<clipPath id="c3_149"><path d="M215,1001.9V875.4H831.1v126.5Z"/></clipPath>
<clipPath id="c4_149"><path d="M232.4,425.1v-70h69.7v70Z"/></clipPath>
<clipPath id="c5_149"><path d="M232.4,517.2v-70h69.7v70Z"/></clipPath>
<clipPath id="c6_149"><path d="M217.7,614V535.3h98.6V614Z"/></clipPath>
<clipPath id="c7_149"><path d="M218.3,844.1V730.6H388.1V844.1Z"/></clipPath>
<style type="text/css"><![CDATA[
.g0_149{
fill: #FEFCF4;
}
.g1_149{
fill: #F16865;
}
.g2_149{
fill: #6381B7;
}
.g3_149{
fill: none;
stroke: #6381B7;
stroke-width: 0.381;
stroke-dasharray: 2,1;
}
.g4_149{
fill: none;
stroke: #6381B7;
stroke-width: 0.381;
}
.g5_149{
fill: #FEF8F8;
}
.g6_149{
fill: none;
stroke: #A164A9;
stroke-width: 1.527;
stroke-linecap: round;
stroke-linejoin: round;
stroke-dasharray: 0,5;
}
.g7_149{
fill: none;
stroke: #A164A9;
stroke-width: 1.527;
stroke-linecap: round;
stroke-linejoin: round;
}
.g8_149{
fill: #A164A9;
}
.g9_149{
fill: #FFF;
}
.ga_149{
fill: none;
stroke: #231F20;
stroke-width: 0.305;
stroke-miterlimit: 10;
}
.gb_149{
fill: #CFD1D2;
}
.gc_149{
fill: none;
stroke: #231F20;
stroke-width: 0.467;
}
.gd_149{
fill: #1B5B94;
}
.ge_149{
fill: none;
stroke: #FFF;
stroke-width: 1.909;
stroke-miterlimit: 10;
}
.gf_149{
fill: none;
stroke: #000;
stroke-width: 0.381;
stroke-miterlimit: 10;
}
]]></style>
</defs>
<path d="M45.1,1344.3H967.5V32.1H45.1V1344.3Z" class="g0_149"/>
<g clip-path="url(#c0_149)">
<path d="M-877.3,1344.3H45.1V32.1H-877.3V1344.3Z" class="g0_149"/>
<path d="M867.9,167.1c0,0,30.3,0,30.3,-30.3v-4.4c0,0,0,-30.3,-30.3,-30.3H-735.4c0,0,-30.4,0,-30.4,30.3v4.4c0,0,0,30.3,30.4,30.3Z" class="g1_149"/>
</g>
<path d="M630.1,1091.6c0,0,-4.3,0,-4.3,4.3v10.8c0,0,0,4.4,4.3,4.4h30.3c0,0,4.3,0,4.3,-4.4v-10.8c0,0,0,-4.3,-4.3,-4.3Z" class="g2_149"/>
<path d="M616.9,1082.7v37.6m1.4,.9H866.8m.9,-1.3v-37.6m-1.3,-.9H617.9" class="g3_149"/>
<path d="M616.9,1120.7v.5h.6m249.6,0h.6v-.5m0,-38.7v-.6h-.6m-249.6,0h-.6v.6" class="g4_149"/>
<image clip-path="url(#c1_149)" preserveAspectRatio="none" x="683" y="70" width="182" height="114" xlink:href="img/1.png"/>
<path d="M154.1,1073.4h713V252.1h-713v821.3Z" class="g5_149"/>
<path d="M154.1,256.7v814.4m4.6,2.3H864.9m2.2,-4.6V254.4m-4.5,-2.3H156.4" class="g6_149"/>
<path d="M154.1,1073.4v0m713.1,0v0m0,-821.3v0m-713.1,0v0" class="g7_149"/>
<path d="M153.3,266.9V227c0,0,0,-8.7,8.7,-8.7H859.3c0,0,8.6,0,8.6,8.7v40.6Z" class="g8_149"/>
<image clip-path="url(#c2_149)" preserveAspectRatio="none" x="409" y="722" width="421" height="79" xlink:href="img/2.png"/>
<path d="M413.2,794.8H824.6V725.5H413.2v69.3Z" class="g9_149"/>
<path d="M450.3,781.3H639.4" class="ga_149"/>
<image clip-path="url(#c3_149)" preserveAspectRatio="none" x="215" y="876" width="615" height="126" xlink:href="img/3.png"/>
<path d="M218.3,995.6H824.6v-117H218.3v117Z" class="g9_149"/>
<path d="M378.9,908.4H507.1" class="ga_149"/>
<path d="M227,351.1c0,0,-8.7,0,-8.7,8.7v60.6c0,0,0,8.7,8.7,8.7h80.5c0,0,8.7,0,8.7,-8.7V359.8c0,0,0,-8.7,-8.7,-8.7Z" class="g9_149"/>
<g clip-path="url(#c4_149)">
<path d="M207,205.9c0,0,-13.4,0,-13.4,13.4V430.7c0,0,0,13.4,13.4,13.4H803.6c0,0,13.4,0,13.4,-13.4V219.3c0,0,0,-13.4,-13.4,-13.4H207Z" class="gb_149"/>
<path d="M214.6,209.7c0,0,-11.5,0,-11.5,11.5V429.6c0,0,0,11.5,11.5,11.5H796c0,0,11.5,0,11.5,-11.5V221.2c0,0,0,-11.5,-11.5,-11.5H214.6Z" class="g9_149"/>
</g>
<path d="M265.9,358.5c-17,0,-30.8,13.8,-30.8,30.8c0,17.1,13.8,30.9,30.8,30.9c17.1,0,30.9,-13.8,30.9,-30.9c0,-17,-13.8,-30.8,-30.9,-30.8Z" class="g9_149"/>
<path d="M265.9,358.5c-17,0,-30.8,13.8,-30.8,30.8c0,17.1,13.8,30.9,30.8,30.9c17.1,0,30.9,-13.8,30.9,-30.9c0,-17,-13.8,-30.8,-30.9,-30.8Z" class="gc_149"/>
<path d="M265.9,360.1c-16.1,0,-29.2,13.1,-29.2,29.2c0,16.2,13.1,29.3,29.2,29.3c16.2,0,29.3,-13.1,29.3,-29.3c0,-16.1,-13.1,-29.2,-29.3,-29.2Z" class="gd_149"/>
<path d="M261.4,382.5c0,0,1.5,6.8,1.5,7c0,.6,-.5,1.1,-1.2,1.1c-.2,0,-.6,-.2,-.6,-.2L247,380.6c-.2,-.2,-.4,-.5,-.4,-.9c0,-.3,.2,-.6,.4,-.8L261.1,369c.2,-.1,.4,-.2,.6,-.2c.7,0,1.2,.6,1.2,1.2c0,.2,-1.5,7,-1.5,7h7c5.8,0,10.5,4.7,10.5,10.5v23h-5.4v-23c0,-2.8,-2.3,-5,-5.1,-5Z" class="g9_149"/>
<path d="M227,443.5c0,0,-8.7,0,-8.7,8.7v60.6c0,0,0,8.7,8.7,8.7h80.5c0,0,8.7,0,8.7,-8.7V452.2c0,0,0,-8.7,-8.7,-8.7Z" class="g9_149"/>
<g clip-path="url(#c5_149)">
<path d="M25.3,298.7c0,0,-13.4,0,-13.4,13.4V523.6c0,0,0,13.4,13.4,13.4H622c0,0,13.4,0,13.4,-13.4V312.1c0,0,0,-13.4,-13.4,-13.4H25.3Z" class="gb_149"/>
<path d="M33,302.6c0,0,-11.5,0,-11.5,11.4V522.4c0,0,0,11.5,11.5,11.5H614.3c0,0,11.5,0,11.5,-11.5V314c0,0,0,-11.4,-11.5,-11.4H33Z" class="g9_149"/>
</g>
<path d="M268.1,451.3c-17.1,0,-30.9,13.8,-30.9,30.9c0,17,13.8,30.9,30.9,30.9c17,0,30.8,-13.9,30.8,-30.9c0,-17.1,-13.8,-30.9,-30.8,-30.9Z" class="g9_149"/>
<path d="M268.1,451.3c-17.1,0,-30.9,13.8,-30.9,30.9c0,17,13.8,30.9,30.9,30.9c17,0,30.8,-13.9,30.8,-30.9c0,-17.1,-13.8,-30.9,-30.8,-30.9Z" class="gc_149"/>
<path d="M268.1,453c-16.2,0,-29.3,13,-29.3,29.2c0,16.1,13.1,29.2,29.3,29.2c16.1,0,29.2,-13.1,29.2,-29.2C297.3,466,284.2,453,268.1,453Z" class="gd_149"/>
<path d="M247.6,495.5h7.5V488h7.4v-7.4H270v-7.5h7.5v-7.5h11v3.5H281v7.5h-7.5v7.5h-7.4v7.5h-7.5V499h-11Z" class="g9_149"/>
<path d="M260.8,472.1c0,0,-4.4,4.4,-6.4,6.4c-.5,.5,-1.4,.5,-1.9,0c-.5,-.5,-.5,-1.4,0,-1.9c1.7,-1.7,6.4,-6.3,6.4,-6.3c0,0,-.7,0,-3.6,0c-.7,0,-1.3,-.6,-1.3,-1.4c0,-.7,.6,-1.3,1.3,-1.3h6.8c.7,0,1.3,.6,1.3,1.3v6.7c0,.8,-.6,1.4,-1.3,1.4c-.8,0,-1.3,-.6,-1.3,-1.4Z" class="g9_149"/>
<path d="M218.3,613.8h97.9V535.9H218.3v77.9Z" class="g9_149"/>
<image clip-path="url(#c6_149)" preserveAspectRatio="none" x="218" y="517" width="99" height="99" xlink:href="img/4.jpg"/>
<path d="M227,722.4c0,0,-8.7,0,-8.7,8.7V843.7c0,0,0,8.6,8.7,8.6H379.4c0,0,8.7,0,8.7,-8.6V731.1c0,0,0,-8.7,-8.7,-8.7Z" class="g9_149"/>
<image clip-path="url(#c7_149)" preserveAspectRatio="none" x="217" y="729" width="173" height="117" xlink:href="img/5.jpg"/>
<path d="M32.1,45.1H9.2m958.3,0h22.9M32.1,1331.3H9.2m958.3,0h22.9M45.1,32.1V9.2m0,1335.1v22.9M954.5,32.1V9.2m0,1335.1v22.9" class="ge_149"/>
<path d="M32.1,45.1H9.2m958.3,0h22.9M32.1,1331.3H9.2m958.3,0h22.9M45.1,32.1V9.2m0,1335.1v22.9M954.5,32.1V9.2m0,1335.1v22.9" class="gf_149"/>
<path d="M27.5,32.1H0m972.1,0h27.5M27.5,1344.3H0m972.1,0h27.5M32.1,27.5V0m0,1348.9v27.5M967.5,27.5V0m0,1348.9v27.5" class="ge_149"/>
<path d="M27.5,32.1H0m972.1,0h27.5M27.5,1344.3H0m972.1,0h27.5M32.1,27.5V0m0,1348.9v27.5M967.5,27.5V0m0,1348.9v27.5" class="gf_149"/>
</svg>