<?xml version="1.0" encoding="UTF-8" standalone="no"?>
<!DOCTYPE svg PUBLIC "-//W3C//DTD SVG 1.1//EN"
"http://www.w3.org/Graphics/SVG/1.1/DTD/svg11.dtd">
<svg viewBox="0 0 999 1376" version="1.1" xmlns="http://www.w3.org/2000/svg" xmlns:xlink="http://www.w3.org/1999/xlink">
<defs>
<clipPath id="c0_331"><path d="M32.1,1344.3V32.1H967.5V1344.3Z"/></clipPath>
<clipPath id="c1_331"><path d="M188.2,436.8V338.5H317.7v98.3Z"/></clipPath>
<clipPath id="c2_331"><path d="M349,436.8V337.6H478v99.2Z"/></clipPath>
<clipPath id="c3_331"><path d="M509.4,433.3V341.1H638.9v92.2Z"/></clipPath>
<clipPath id="c4_331"><path d="M669.9,436.8V337.6H799.5v99.2Z"/></clipPath>
<clipPath id="c5_331"><path d="M188.2,586.2V487H317.7v99.2Z"/></clipPath>
<clipPath id="c6_331"><path d="M348.8,586.2V487H478.3v99.2Z"/></clipPath>
<clipPath id="c7_331"><path d="M509.4,586.2V487H638.9v99.2Z"/></clipPath>
<clipPath id="c8_331"><path d="M669.9,586.2V487H799.5v99.2Z"/></clipPath>
<clipPath id="c9_331"><path d="M188.2,743.4V644.6H317.7v98.8Z"/></clipPath>
<clipPath id="ca_331"><path d="M348.8,743.1V644.6H478.3v98.5Z"/></clipPath>
<clipPath id="cb_331"><path d="M222.3,1186.2V950.9H673.8v235.3Z"/></clipPath>
<clipPath id="cc_331"><path d="M198.6,321.8l-6.5,-2.2L175.7,305.7V248.6h72v73.2Z"/></clipPath>
<clipPath id="cd_331"><path d="M200.7,876.1L194.2,874L177.8,860.1V803h72v73.1Z"/></clipPath>
<clipPath id="ce_331"><path d="M658.6,177V59h200V177Z"/></clipPath>
<style type="text/css"><![CDATA[
.g0_331{
fill: #FEFCF4;
}
.g1_331{
fill: #FFF;
}
.g2_331{
fill: none;
stroke: #6381B7;
stroke-width: 0.763;
}
.g3_331{
fill: none;
stroke: #949698;
stroke-width: 0.381;
}
.g4_331{
fill: #FCE8B0;
}
.g5_331{
fill: none;
stroke: #231F20;
stroke-width: 1.527;
}
.g6_331{
fill: none;
stroke: #77797B;
stroke-width: 0.481;
}
.g7_331{
fill: none;
stroke: #231F20;
stroke-width: 0.458;
}
.g8_331{
fill: #48484A;
}
.g9_331{
fill: #F0E8F3;
}
.ga_331{
fill: #766FA6;
}
.gb_331{
fill: #6381B7;
}
.gc_331{
fill: none;
stroke: #6381B7;
stroke-width: 0.381;
stroke-dasharray: 2,1;
}
.gd_331{
fill: none;
stroke: #6381B7;
stroke-width: 0.381;
}
.ge_331{
fill: #2E6E51;
}
.gf_331{
fill: #BCBEC0;
}
.gg_331{
fill: #EE314A;
}
.gh_331{
fill: #25408F;
}
.gi_331{
fill: #00BAF1;
}
.gj_331{
fill: #332D2C;
}
.gk_331{
fill: #D9DFF0;
}
.gl_331{
fill: #F27C85;
}
.gm_331{
fill: #7DD3F6;
}
.gn_331{
fill: none;
stroke: #FFF;
stroke-width: 1.909;
stroke-miterlimit: 10;
}
.go_331{
fill: none;
stroke: #000;
stroke-width: 0.381;
stroke-miterlimit: 10;
}
]]></style>
</defs>
<path clip-path="url(#c0_331)" d="M-877.3,1344.3H45.1V32.1H-877.3V1344.3Z" class="g0_331"/>
<path d="M45.1,1344.3H967.5V32.1H45.1V1344.3Z" class="g0_331"/>
<path d="M172.1,224.6c0,0,-18.4,0,-18.4,18.4V781.5c0,0,0,18.3,18.4,18.3H849.2c0,0,18.3,0,18.3,-18.3V224.6Z" class="g1_331"/>
<path d="M172.1,224.6c0,0,-18.4,0,-18.4,18.4V781.5c0,0,0,18.3,18.4,18.3H849.2c0,0,18.3,0,18.3,-18.3V224.6H172.1Z" class="g2_331"/>
<path d="M188.2,436.8H317.7V337.6H188.2v99.2Z" class="g1_331"/>
<image clip-path="url(#c1_331)" preserveAspectRatio="none" x="187" y="339" width="132" height="99" xlink:href="img/1.jpg"/>
<path d="M188.2,436.8H317.7V337.6H188.2v99.2Z" class="g3_331"/>
<path d="M348.8,436.8H478.3V337.6H348.8v99.2Z" class="g1_331"/>
<image clip-path="url(#c2_331)" preserveAspectRatio="none" x="349" y="336" width="129" height="102" xlink:href="img/2.jpg"/>
<path d="M348.8,436.8H478.3V337.6H348.8v99.2Z" class="g3_331"/>
<path d="M509.4,436.8H638.9V337.6H509.4v99.2Z" class="g1_331"/>
<image clip-path="url(#c3_331)" preserveAspectRatio="none" x="508" y="341" width="132" height="92" xlink:href="img/3.jpg"/>
<path d="M509.4,436.8H638.9V337.6H509.4v99.2Z" class="g3_331"/>
<path d="M669.9,436.8H799.5V337.6H669.9v99.2Z" class="g1_331"/>
<image clip-path="url(#c4_331)" preserveAspectRatio="none" x="670" y="337" width="130" height="101" xlink:href="img/4.jpg"/>
<path d="M669.9,436.8H799.5V337.6H669.9v99.2Z" class="g3_331"/>
<path d="M188.2,586.2H317.7V487H188.2v99.2Z" class="g1_331"/>
<image clip-path="url(#c5_331)" preserveAspectRatio="none" x="187" y="485" width="132" height="103" xlink:href="img/5.jpg"/>
<path d="M188.2,586.2H317.7V487H188.2v99.2Z" class="g3_331"/>
<path d="M348.8,586.2H478.3V487H348.8v99.2Z" class="g1_331"/>
<image clip-path="url(#c6_331)" preserveAspectRatio="none" x="348" y="485" width="131" height="103" xlink:href="img/6.jpg"/>
<path d="M348.8,586.2H478.3V487H348.8v99.2Z" class="g3_331"/>
<path d="M509.4,586.2H638.9V487H509.4v99.2Z" class="g1_331"/>
<image clip-path="url(#c7_331)" preserveAspectRatio="none" x="509" y="485" width="131" height="103" xlink:href="img/7.jpg"/>
<path d="M509.4,586.2H638.9V487H509.4v99.2Z" class="g3_331"/>
<path d="M669.9,586.2H799.5V487H669.9v99.2Z" class="g1_331"/>
<image clip-path="url(#c8_331)" preserveAspectRatio="none" x="668" y="485" width="133" height="103" xlink:href="img/8.jpg"/>
<path d="M669.9,586.2H799.5V487H669.9v99.2Z" class="g3_331"/>
<path d="M188.2,743.9H317.7V644.6H188.2v99.3Z" class="g1_331"/>
<image clip-path="url(#c9_331)" preserveAspectRatio="none" x="188" y="643" width="130" height="100" xlink:href="img/9.jpg"/>
<path d="M188.2,743.9H317.7V644.6H188.2v99.3Z" class="g3_331"/>
<path d="M348.8,743.9H478.3V644.6H348.8v99.3Z" class="g1_331"/>
<image clip-path="url(#ca_331)" preserveAspectRatio="none" x="348" y="643" width="131" height="100" xlink:href="img/10.jpg"/>
<path d="M348.8,743.9H478.3V644.6H348.8v99.3Z" class="g3_331"/>
<path d="M500.1,642.7c0,0,-8.6,0,-8.6,8.7V778.2c0,0,0,8.6,8.6,8.6H837.9c0,0,8.7,0,8.7,-8.6V651.4c0,0,0,-8.7,-8.7,-8.7Z" class="g4_331"/>
<path d="M504.2,661.7c-.3,0,-.5,.1,-.7,.3c-.2,.2,-.3,.5,-.3,.8c0,.3,.1,.5,.3,.7c.2,.2,.4,.3,.7,.3c.3,0,.5,-.1,.7,-.3c.2,-.2,.3,-.4,.3,-.7c0,-.3,-.1,-.6,-.3,-.8c-.2,-.2,-.4,-.3,-.7,-.3Zm0,44.7c-.3,0,-.5,.1,-.7,.3c-.2,.2,-.3,.4,-.3,.7c0,.3,.1,.6,.3,.8c.2,.2,.4,.3,.7,.3c.3,0,.5,-.1,.7,-.3c.2,-.2,.3,-.5,.3,-.8c0,-.3,-.1,-.5,-.3,-.7c-.2,-.2,-.4,-.3,-.7,-.3Zm0,44.7c-.3,0,-.5,.1,-.7,.3c-.2,.2,-.3,.4,-.3,.7c0,.3,.1,.5,.3,.7c.2,.2,.4,.3,.7,.3c.3,0,.5,-.1,.7,-.3c.2,-.2,.3,-.4,.3,-.7c0,-.3,-.1,-.5,-.3,-.7c-.2,-.2,-.4,-.3,-.7,-.3Z" class="g5_331"/>
<path d="M166.7,890.2c0,0,-13,0,-13,13v280.7c0,0,0,13,13,13H854.5c0,0,13,0,13,-13V903.2c0,0,0,-13,-13,-13Z" class="g1_331"/>
<path d="M166.7,890.2c0,0,-13,0,-13,13v280.7c0,0,0,13,13,13H854.5c0,0,13,0,13,-13V903.2c0,0,0,-13,-13,-13H166.7Z" class="g2_331"/>
<image clip-path="url(#cb_331)" preserveAspectRatio="none" x="223" y="952" width="450" height="236" xlink:href="img/11.jpg"/>
<path d="M581.2,950c0,0,-1.4,0,-1.4,1.3v24.1c0,0,0,1.4,1.4,1.4h78.6c0,0,1.4,0,1.4,-1.4V951.3c0,0,0,-1.3,-1.4,-1.3H581.2Z" class="g1_331"/>
<path d="M581.2,950c0,0,-1.4,0,-1.4,1.3v24.1c0,0,0,1.4,1.4,1.4h78.6c0,0,1.4,0,1.4,-1.4V951.3c0,0,0,-1.3,-1.4,-1.3H581.2Z" class="g6_331"/>
<path d="M591,1128.1c0,0,-1.4,0,-1.4,1.4v24.1c0,0,0,1.3,1.4,1.3h78.7c0,0,1.3,0,1.3,-1.3v-24.1c0,0,0,-1.4,-1.3,-1.4H591Z" class="g1_331"/>
<path d="M591,1128.1c0,0,-1.4,0,-1.4,1.4v24.1c0,0,0,1.3,1.4,1.3h78.7c0,0,1.3,0,1.3,-1.3v-24.1c0,0,0,-1.4,-1.3,-1.4H591Z" class="g6_331"/>
<path d="M409,1147c0,0,-1.3,0,-1.3,1.3v24.1c0,0,0,1.4,1.3,1.4h78.7c0,0,1.3,0,1.3,-1.4v-24.1c0,0,0,-1.3,-1.3,-1.3H409Z" class="g1_331"/>
<path d="M409,1147c0,0,-1.3,0,-1.3,1.3v24.1c0,0,0,1.4,1.3,1.4h78.7c0,0,1.3,0,1.3,-1.4v-24.1c0,0,0,-1.3,-1.3,-1.3H409Zm72.9,-47.8l8.2,14.8m-34.9,32.7l-8.2,-15" class="g6_331"/>
<path d="M454,1071.4c0,0,-1.3,0,-1.3,1.4v24c0,0,0,1.4,1.3,1.4h78.7c0,0,1.4,0,1.4,-1.4v-24c0,0,0,-1.4,-1.4,-1.4H454Z" class="g1_331"/>
<path d="M454,1071.4c0,0,-1.3,0,-1.3,1.4v24c0,0,0,1.4,1.3,1.4h78.7c0,0,1.4,0,1.4,-1.4v-24c0,0,0,-1.4,-1.4,-1.4H454ZM589.1,1138l-7.9,-5.5" class="g6_331"/>
<path d="M579.8,978.8h94.8V944.6H579.8v34.2Z" class="g1_331"/>
<path d="M579.8,978.8h94.8V944.6H579.8v34.2Z" class="g7_331"/>
<path d="M451.1,1101.5h94.8v-34.1H451.1v34.1Z" class="g1_331"/>
<path d="M451.1,1101.5h94.8v-34.1H451.1v34.1Z" class="g7_331"/>
<path d="M403.9,1179.5h94.8v-34.2H403.9v34.2Z" class="g1_331"/>
<path d="M403.9,1179.5h94.8v-34.2H403.9v34.2Z" class="g7_331"/>
<path d="M590.2,1157.6H685v-34.2H590.2v34.2Z" class="g1_331"/>
<path d="M590.2,1157.6H685v-34.2H590.2v34.2Z" class="g7_331"/>
<path d="M740.6,929.3c0,0,-4.3,0,-4.3,4.3v14.7c0,0,0,4.4,4,5.8l52.5,18.5c0,0,4.1,1.5,4.1,-2.8V933.6c0,0,0,-4.3,-4.3,-4.3Z" class="g8_331"/>
<path d="M761.7,916.3c0,0,-13,0,-13,13v239.6c0,0,0,13,13,13h59.2c0,0,12.9,0,12.9,-13V929.3c0,0,0,-13,-12.9,-13Z" class="g9_331"/>
<path d="M740.6,927.1c0,0,-4.3,0,-4.3,4.3v17.4c0,0,0,4.3,4.3,4.3h37.3c0,0,4.3,0,4.3,-4.3V931.4c0,0,0,-4.3,-4.3,-4.3Z" class="ga_331"/>
<path d="M595.5,1214.8c0,0,-4.4,0,-4.4,4.4V1230c0,0,0,4.3,4.4,4.3h30.3c0,0,4.3,0,4.3,-4.3v-10.8c0,0,0,-4.4,-4.3,-4.4Z" class="gb_331"/>
<path d="M582.3,1206v37.5m1.3,1H866.8m.9,-1.3v-37.6m-1.3,-1H583.2" class="gc_331"/>
<path d="M582.3,1243.9v.6h.5m284.3,0h.6v-.6m0,-38.7v-.6h-.6m-284.3,0h-.5v.6" class="gd_331"/>
<path d="M231.2,276.8c0,0,-12.9,0,-12.9,13v21.6c0,0,0,13,12.9,13H833.3c0,0,13,0,13,-13V289.8c0,0,0,-13,-13,-13Z" class="g4_331"/>
<image clip-path="url(#cc_331)" preserveAspectRatio="none" x="174" y="247" width="75" height="76" xlink:href="img/12.png"/>
<path d="M226,317c0,0,-26.8,11.3,-51.1,-12.7c0,0,15.2,25.3,49.3,23.9c0,0,24.8,.4,20.3,-10.1c0,0,1.2,-4.4,-18.5,-1.1Z" class="g4_331"/>
<path d="M233.3,831.1c0,0,-13,0,-13,13v21.7c0,0,0,13,13,13H854.9c0,0,13,0,13,-13V844.1c0,0,0,-13,-13,-13Z" class="g4_331"/>
<image clip-path="url(#cd_331)" preserveAspectRatio="none" x="176" y="801" width="75" height="77" xlink:href="img/13.png"/>
<path d="M228.1,871.4c0,0,-26.8,11.3,-51.1,-12.7c0,0,15.2,25.3,49.3,23.9c0,0,24.8,.4,20.3,-10.1c0,0,1.2,-4.5,-18.5,-1.1Z" class="g4_331"/>
<path d="M32.1,179.3H967.5V32.1H32.1V179.3Z" class="ge_331"/>
<g clip-path="url(#c0_331)">
<path d="M967.5,177.2H-877.3v-5.4h736.6c43.1,0,53.1,-37.9,115.3,-37.9H967.5Z" class="gf_331"/>
<path d="M967.5,183.7H-877.3v-9.8h736.6c43.1,0,53.1,-33.6,115.3,-33.6H967.5Z" class="gg_331"/>
</g>
<image clip-path="url(#ce_331)" preserveAspectRatio="none" x="659" y="59" width="200" height="118" xlink:href="img/14.png"/>
<path d="M153.3,217.5v22.2L165,250V227.8Z" class="gh_331"/>
<path d="M153.3,200.7v39H851.1c0,0,16.8,0,16.8,-16.8v-5.4c0,0,0,-16.8,-16.8,-16.8Z" class="gb_331"/>
<path d="M211.3,212.1l-6.5,-6.4l-21.2,21.2l6.5,6.4Z" class="gi_331"/>
<path d="M190.1,233.9c.1,0,.3,-.1,.4,-.2l21.2,-21.2c.1,-.1,.1,-.2,.1,-.4c0,-.1,0,-.2,-.1,-.3l-6.5,-6.5c-.2,-.2,-.6,-.2,-.8,0l-21.2,21.2c-.1,.1,-.1,.2,-.1,.4c0,.1,0,.2,.1,.3l6.5,6.5c.1,.1,.3,.2,.4,.2m20.5,-21.8l-20.5,20.5l-5.8,-5.7l20.5,-20.5Z" class="gj_331"/>
<path d="M211.3,212.1l-6.5,-6.4l2.1,-2.2l6.5,6.5Z" class="gk_331"/>
<path d="M211.3,212.7c.1,0,.3,-.1,.4,-.2l2.1,-2.1c.1,-.1,.2,-.2,.2,-.4c0,-.1,-.1,-.3,-.2,-.4l-6.5,-6.4c-.2,-.3,-.5,-.3,-.7,0l-2.2,2.1c-.1,.1,-.1,.2,-.1,.4c0,.1,0,.2,.1,.3l6.5,6.5c.1,.1,.3,.2,.4,.2m1.4,-2.7l-1.4,1.4l-5.7,-5.7l1.3,-1.4Z" class="gj_331"/>
<path d="M217,206.4l-6.4,-6.5l-3.7,3.6l6.5,6.5Z" class="gl_331"/>
<path d="M213.4,210.5c.2,0,.3,0,.4,-.1l3.6,-3.6c.2,-.2,.2,-.6,0,-.8l-6.5,-6.5c-.2,-.2,-.5,-.2,-.7,0l-3.6,3.7c-.2,.2,-.2,.5,0,.7l6.5,6.5c.1,.1,.2,.1,.3,.1m2.9,-4.1l-2.9,2.9l-5.7,-5.8l2.9,-2.8Z" class="gj_331"/>
<path d="M179,238l4.6,-11.1l6.5,6.4Z" class="g1_331"/>
<path d="M179,238.5c0,0,.1,0,.2,0l11.1,-4.7c.2,0,.3,-.2,.3,-.4c0,-.1,0,-.3,-.1,-.4L184,226.5c-.1,-.1,-.3,-.2,-.5,-.1c-.2,0,-.3,.1,-.4,.3l-4.6,11.1c-.1,.2,0,.4,.1,.6c.1,.1,.2,.1,.4,.1m10.2,-5.3l-9.3,3.8l3.9,-9.2Z" class="gj_331"/>
<path d="M179,238l2.2,-5.4l3.1,3.1Z" class="gj_331"/>
<path d="M179,238.5c0,0,.1,0,.2,0l5.3,-2.3c.2,0,.3,-.2,.4,-.4c0,-.1,-.1,-.3,-.2,-.4l-3.1,-3.2c-.1,-.1,-.3,-.1,-.5,-.1c-.2,0,-.3,.2,-.4,.3l-2.2,5.4c-.1,.2,0,.4,.1,.6c.1,.1,.2,.1,.4,.1m4.4,-2.9l-3.5,1.4l1.5,-3.5Z" class="gj_331"/>
<path d="M209.5,210.4l-2.9,-3l-21.2,21.2l2.9,3Z" class="gm_331"/>
<path d="M188.3,232.1c.2,0,.3,0,.4,-.1l21.2,-21.2c.1,-.1,.2,-.3,.2,-.4c0,-.2,-.1,-.3,-.2,-.4l-3,-3c-.2,-.2,-.5,-.2,-.7,0L185,228.3c-.1,.1,-.2,.2,-.2,.3c0,.2,.1,.3,.2,.4l3,3c.1,.1,.2,.1,.3,.1m20.5,-21.7l-20.5,20.4l-2.2,-2.2l20.5,-20.4Z" class="gj_331"/>
<path d="M32.1,45.1H9.2m958.3,0h22.9M32.1,1331.3H9.2m958.3,0h22.9M45.1,32.1V9.2m0,1335.1v22.9M954.5,32.1V9.2m0,1335.1v22.9" class="gn_331"/>
<path d="M32.1,45.1H9.2m958.3,0h22.9M32.1,1331.3H9.2m958.3,0h22.9M45.1,32.1V9.2m0,1335.1v22.9M954.5,32.1V9.2m0,1335.1v22.9" class="go_331"/>
<path d="M27.5,32.1H0m972.1,0h27.5M27.5,1344.3H0m972.1,0h27.5M32.1,27.5V0m0,1348.9v27.5M967.5,27.5V0m0,1348.9v27.5" class="gn_331"/>
<path d="M27.5,32.1H0m972.1,0h27.5M27.5,1344.3H0m972.1,0h27.5M32.1,27.5V0m0,1348.9v27.5M967.5,27.5V0m0,1348.9v27.5" class="go_331"/>
</svg>