<?xml version="1.0" encoding="UTF-8" standalone="no"?>
<!DOCTYPE svg PUBLIC "-//W3C//DTD SVG 1.1//EN"
"http://www.w3.org/Graphics/SVG/1.1/DTD/svg11.dtd">
<svg viewBox="0 0 999 1376" version="1.1" xmlns="http://www.w3.org/2000/svg" xmlns:xlink="http://www.w3.org/1999/xlink">
<defs>
<clipPath id="c0_334"><path d="M443.4,443.3V344.1h99.2v99.2Z"/></clipPath>
<clipPath id="c1_334"><path d="M188.6,1068.2V957.9H309.1v110.3Z"/></clipPath>
<clipPath id="c2_334"><path d="M349.9,1068.2V957.9H470.4v110.3Z"/></clipPath>
<clipPath id="c3_334"><path d="M516.3,1068.2V957.9h119v110.3Z"/></clipPath>
<clipPath id="c4_334"><path d="M685,1068.2V957.9H804v110.3Z"/></clipPath>
<clipPath id="c5_334"><path d="M176.6,235.2l-6.5,-2.1l-16.4,-14V162h72v73.2Z"/></clipPath>
<clipPath id="c6_334"><path d="M176.6,866.8l-6.5,-2.1L153.7,850.8V793.7h72v73.1Z"/></clipPath>
<style type="text/css"><![CDATA[
.g0_334{
fill: #FEFCF4;
}
.g1_334{
fill: #FFF;
}
.g2_334{
fill: none;
stroke: #6381B7;
stroke-width: 0.763;
}
.g3_334{
fill: #FCE8B0;
}
.g4_334{
fill: none;
stroke: #231F20;
stroke-width: 1.527;
}
.g5_334{
fill: none;
stroke: #949698;
stroke-width: 0.381;
}
.g6_334{
fill: #48484A;
}
.g7_334{
fill: #F0E8F3;
}
.g8_334{
fill: #766FA6;
}
.g9_334{
fill: none;
stroke: #949698;
stroke-width: 0.549;
}
.ga_334{
fill: #6381B7;
}
.gb_334{
fill: none;
stroke: #6381B7;
stroke-width: 0.381;
stroke-dasharray: 2,1;
}
.gc_334{
fill: none;
stroke: #6381B7;
stroke-width: 0.381;
}
.gd_334{
fill: #25408F;
}
.ge_334{
fill: #00BAF1;
}
.gf_334{
fill: #332D2C;
}
.gg_334{
fill: #D9DFF0;
}
.gh_334{
fill: #F27C85;
}
.gi_334{
fill: #7DD3F6;
}
.gj_334{
fill: none;
stroke: #FFF;
stroke-width: 1.909;
stroke-miterlimit: 10;
}
.gk_334{
fill: none;
stroke: #000;
stroke-width: 0.381;
stroke-miterlimit: 10;
}
]]></style>
</defs>
<path d="M32.1,1344.3H954.5V32.1H32.1V1344.3Z" class="g0_334"/>
<path d="M140.5,879.3c0,0,-8.7,0,-8.7,10.5v297.6c0,0,0,10.6,8.7,10.6h697c0,0,8.6,0,8.6,-10.6V889.8c0,0,0,-10.5,-8.6,-10.5Z" class="g1_334"/>
<path d="M140.5,879.3c0,0,-8.7,0,-8.7,10.5v297.6c0,0,0,10.6,8.7,10.6h697c0,0,8.6,0,8.6,-10.6V889.8c0,0,0,-10.5,-8.6,-10.5h-697Z" class="g2_334"/>
<path d="M150.4,133.7c0,0,-18.3,0,-18.3,18.3V733.9c0,0,0,18.3,18.3,18.3H827.5c0,0,18.4,0,18.4,-18.3V133.7Z" class="g1_334"/>
<path d="M150.4,133.7c0,0,-18.3,0,-18.3,18.3V733.9c0,0,0,18.3,18.3,18.3H827.5c0,0,18.4,0,18.4,-18.3V133.7H150.4Z" class="g2_334"/>
<path d="M451.3,596.4c0,0,-8.7,0,-8.7,8.6V726.7c0,0,0,8.7,8.7,8.7H809c0,0,8.7,0,8.7,-8.7V605c0,0,0,-8.6,-8.7,-8.6Z" class="g3_334"/>
<path d="M464.1,625.7c-.3,0,-.6,.1,-.8,.3c-.2,.2,-.2,.4,-.2,.7c0,.3,0,.6,.2,.8c.2,.2,.5,.3,.8,.3c.2,0,.5,-.1,.7,-.3c.2,-.2,.3,-.5,.3,-.8c0,-.3,-.1,-.5,-.3,-.7c-.2,-.2,-.5,-.3,-.7,-.3Zm0,57.5c-.3,0,-.6,.1,-.8,.3c-.2,.2,-.2,.5,-.2,.8c0,.3,0,.5,.2,.7c.2,.2,.5,.3,.8,.3c.2,0,.5,-.1,.7,-.3c.2,-.2,.3,-.4,.3,-.7c0,-.3,-.1,-.6,-.3,-.8c-.2,-.2,-.5,-.3,-.7,-.3Z" class="g4_334"/>
<path d="M187.3,362.1H299.5V262.9H187.3v99.2Z" class="g1_334"/>
<image preserveAspectRatio="none" x="194" y="263" width="99" height="99" xlink:href="img/1.jpg"/>
<path d="M187.3,362.1H299.5V262.9H187.3v99.2Z" class="g5_334"/>
<path d="M312.1,362.1H424.3V262.9H312.1v99.2Z" class="g1_334"/>
<image preserveAspectRatio="none" x="319" y="263" width="99" height="99" xlink:href="img/2.jpg"/>
<path d="M312.1,362.1H424.3V262.9H312.1v99.2Z" class="g5_334"/>
<path d="M436.9,443.3H549.1V344H436.9v99.3Z" class="g1_334"/>
<image clip-path="url(#c0_334)" preserveAspectRatio="none" x="443" y="344" width="100" height="99" xlink:href="img/3.jpg"/>
<path d="M436.9,443.3H549.1V344H436.9v99.3Z" class="g5_334"/>
<path d="M249.7,524.5H361.9V425.2H249.7v99.3Z" class="g1_334"/>
<image preserveAspectRatio="none" x="256" y="425" width="99" height="99" xlink:href="img/4.jpg"/>
<path d="M249.7,524.5H361.9V425.2H249.7v99.3Z" class="g5_334"/>
<path d="M561.6,362.1H673.8V262.9H561.6v99.2Z" class="g1_334"/>
<image preserveAspectRatio="none" x="568" y="263" width="99" height="99" xlink:href="img/5.jpg"/>
<path d="M561.6,362.1H673.8V262.9H561.6v99.2Z" class="g5_334"/>
<path d="M686.4,362.1H798.6V262.9H686.4v99.2Z" class="g1_334"/>
<image preserveAspectRatio="none" x="693" y="263" width="99" height="99" xlink:href="img/6.jpg"/>
<path d="M686.4,362.1H798.6V262.9H686.4v99.2Z" class="g5_334"/>
<path d="M624,524.5H736.2V425.2H624v99.3Z" class="g1_334"/>
<image preserveAspectRatio="none" x="631" y="425" width="99" height="99" xlink:href="img/7.jpg"/>
<path d="M624,524.5H736.2V425.2H624v99.3Z" class="g5_334"/>
<path d="M187.3,688.5H299.5V589.3H187.3v99.2Z" class="g1_334"/>
<image preserveAspectRatio="none" x="194" y="589" width="99" height="99" xlink:href="img/8.jpg"/>
<path d="M187.3,688.5H299.5V589.3H187.3v99.2Z" class="g5_334"/>
<path d="M312.1,688.5H424.3V589.3H312.1v99.2Z" class="g1_334"/>
<image preserveAspectRatio="none" x="319" y="589" width="99" height="99" xlink:href="img/9.jpg"/>
<path d="M312.1,688.5H424.3V589.3H312.1v99.2Z" class="g5_334"/>
<path d="M175,1133.2c0,0,-4.3,0,-4.3,4.3v14.7c0,0,0,4.4,4,5.8l52.5,18.5c0,0,4.1,1.5,4.1,-2.8v-36.2c0,0,0,-4.3,-4.3,-4.3Z" class="g6_334"/>
<path d="M196.1,1120.2c0,0,-12.9,0,-12.9,13v31.4c0,0,0,13,12.9,13H801.5c0,0,13,0,13,-13v-31.4c0,0,0,-13,-13,-13Z" class="g7_334"/>
<path d="M175,1131c0,0,-4.3,0,-4.3,4.3v17.4c0,0,0,4.3,4.3,4.3h37.3c0,0,4.3,0,4.3,-4.3v-17.4c0,0,0,-4.3,-4.3,-4.3Z" class="g8_334"/>
<image clip-path="url(#c1_334)" preserveAspectRatio="none" x="187" y="956" width="122" height="113" xlink:href="img/10.jpg"/>
<path d="M188.6,1068.2H309.1V957.9H188.6v110.3Z" class="g9_334"/>
<path d="M188.6,1103.9H309.1V1067H188.6v36.9Z" class="g1_334"/>
<path d="M188.6,1103.9H309.1V1067H188.6v36.9Z" class="g9_334"/>
<path d="M343.9,1110.9H474.7V950.6H343.9v160.3Z" class="g1_334"/>
<image clip-path="url(#c2_334)" preserveAspectRatio="none" x="349" y="956" width="121" height="113" xlink:href="img/11.jpg"/>
<path d="M349.9,1068.2H470.4V957.9H349.9v110.3Z" class="g9_334"/>
<path d="M349.9,1103.9H470.4V1067H349.9v36.9Z" class="g1_334"/>
<path d="M349.9,1103.9H470.4V1067H349.9v36.9Z" class="g9_334"/>
<path d="M509.3,1110.9H640.1V950.6H509.3v160.3Z" class="g1_334"/>
<image clip-path="url(#c3_334)" preserveAspectRatio="none" x="515" y="956" width="120" height="113" xlink:href="img/12.jpg"/>
<path d="M516.3,1068.2H636.9V957.9H516.3v110.3Z" class="g9_334"/>
<path d="M516.3,1103.9H636.9V1067H516.3v36.9Z" class="g1_334"/>
<path d="M516.3,1103.9H636.9V1067H516.3v36.9Z" class="g9_334"/>
<path d="M679.1,1110.9H809.9V950.6H679.1v160.3Z" class="g1_334"/>
<image clip-path="url(#c4_334)" preserveAspectRatio="none" x="684" y="956" width="120" height="113" xlink:href="img/13.jpg"/>
<path d="M685,1068.2H805.5V957.9H685v110.3Z" class="g9_334"/>
<path d="M685,1103.9H805.5V1067H685v36.9Z" class="g1_334"/>
<path d="M685,1103.9H805.5V1067H685v36.9Z" class="g9_334"/>
<path d="M193.2,1096.6h63.9v-24.3H193.2v24.3Z" class="g1_334"/>
<path d="M352.6,1096.6h63.8v-24.3H352.6v24.3Z" class="g1_334"/>
<path d="M520.6,1096.6h63.9v-24.3H520.6v24.3Z" class="g1_334"/>
<path d="M688.6,1096.6h63.9v-24.3H688.6v24.3Z" class="g1_334"/>
<path d="M504.8,1214.8c0,0,-4.3,0,-4.3,4.4V1230c0,0,0,4.3,4.3,4.3h30.3c0,0,4.4,0,4.4,-4.3v-10.8c0,0,0,-4.4,-4.4,-4.4Z" class="ga_334"/>
<path d="M491.6,1206v37.5m1.4,1H845.1m1,-1.3v-37.6m-1.4,-1H492.6" class="gb_334"/>
<path d="M491.6,1243.9v.6h.6m353.3,0h.6v-.6m0,-38.7v-.6h-.6m-353.3,0h-.6v.6" class="gc_334"/>
<path d="M209.2,190.2c0,0,-13,0,-13,13v21.6c0,0,0,13,13,13h602c0,0,13,0,13,-13V203.2c0,0,0,-13,-13,-13Z" class="g3_334"/>
<image clip-path="url(#c5_334)" preserveAspectRatio="none" x="152" y="160" width="75" height="77" xlink:href="img/14.png"/>
<path d="M204,230.4c0,0,-26.8,11.4,-51.1,-12.7c0,0,15.2,25.3,49.3,24c0,0,24.8,.3,20.3,-10.2c0,0,1.2,-4.4,-18.5,-1.1Z" class="g3_334"/>
<path d="M209.2,821.8c0,0,-13,0,-13,13v21.7c0,0,0,13,13,13H830.8c0,0,13,0,13,-13V834.8c0,0,0,-13,-13,-13Z" class="g3_334"/>
<image clip-path="url(#c6_334)" preserveAspectRatio="none" x="152" y="792" width="75" height="76" xlink:href="img/15.png"/>
<path d="M204,862.1c0,0,-26.8,11.3,-51.1,-12.7c0,0,15.2,25.3,49.3,23.9c0,0,24.8,.4,20.3,-10.1c0,0,1.2,-4.4,-18.5,-1.1Z" class="g3_334"/>
<path d="M132.7,126.7v22.2l11.7,10.3V137Z" class="gd_334"/>
<path d="M132.7,109.9v39H830.4c0,0,16.9,0,16.9,-16.8v-5.4c0,0,0,-16.8,-16.9,-16.8Z" class="ga_334"/>
<path d="M190.6,121.3l-6.4,-6.5L162.9,136l6.5,6.5Z" class="ge_334"/>
<path d="M169.4,143c.2,0,.3,0,.4,-.1L191,121.7c.1,-.1,.2,-.3,.2,-.4c0,-.1,-.1,-.3,-.2,-.4l-6.5,-6.4c-.2,-.2,-.5,-.2,-.7,0l-21.2,21.2c-.1,.1,-.2,.2,-.2,.3c0,.2,.1,.3,.2,.4l6.5,6.5c.1,.1,.2,.1,.3,.1m20.5,-21.7l-20.5,20.5L163.7,136l20.5,-20.4Z" class="gf_334"/>
<path d="M190.6,121.3l-6.4,-6.5l2.1,-2.1l6.5,6.5Z" class="gg_334"/>
<path d="M190.6,121.8c.2,0,.3,0,.4,-.1l2.1,-2.1c.1,-.1,.2,-.3,.2,-.4c0,-.2,-.1,-.3,-.2,-.4l-6.4,-6.5c-.2,-.2,-.6,-.2,-.8,0l-2.1,2.2c-.1,0,-.2,.2,-.2,.3c0,.2,.1,.3,.2,.4l6.5,6.5c.1,.1,.2,.1,.3,.1m1.4,-2.6l-1.4,1.4l-5.7,-5.8l1.4,-1.4Z" class="gf_334"/>
<path d="M196.4,115.6l-6.5,-6.5l-3.6,3.6l6.5,6.5Z" class="gh_334"/>
<path d="M192.8,119.7c.1,0,.2,0,.3,-.1l3.6,-3.7c.3,-.2,.3,-.5,0,-.7l-6.4,-6.5c-.2,-.2,-.6,-.2,-.8,0l-3.6,3.6c-.2,.2,-.2,.6,0,.8l6.5,6.5c.1,.1,.2,.1,.4,.1m2.8,-4.1l-2.8,2.8L187,112.7l2.9,-2.9Z" class="gf_334"/>
<path d="M158.3,147.2L162.9,136l6.5,6.5Z" class="g1_334"/>
<path d="M158.3,147.7c.1,0,.2,0,.2,-.1L169.6,143c.2,-.1,.3,-.2,.3,-.4c.1,-.2,0,-.3,-.1,-.5l-6.5,-6.4c-.1,-.2,-.3,-.2,-.5,-.2c-.1,.1,-.3,.2,-.3,.3l-4.7,11.1c-.1,.2,0,.5,.1,.6c.1,.1,.3,.2,.4,.2m10.2,-5.4l-9.2,3.9l3.8,-9.2Z" class="gf_334"/>
<path d="M158.3,147.2l2.2,-5.4l3.2,3.1Z" class="gf_334"/>
<path d="M158.3,147.7c.1,0,.2,0,.2,-.1l5.4,-2.2c.1,-.1,.3,-.2,.3,-.4c0,-.2,0,-.3,-.2,-.5l-3.1,-3.1c-.1,-.1,-.3,-.2,-.5,-.1c-.1,0,-.3,.1,-.3,.3l-2.3,5.3c-.1,.2,0,.5,.1,.6c.1,.1,.3,.2,.4,.2m4.4,-3l-3.4,1.5l1.4,-3.5Z" class="gf_334"/>
<path d="M188.9,119.5l-3,-2.9l-21.2,21.2l3,3Z" class="gi_334"/>
<path d="M167.7,141.3c.1,0,.2,-.1,.3,-.2l21.3,-21.2c0,-.1,.1,-.2,.1,-.4c0,-.1,-.1,-.2,-.1,-.3l-3,-3c-.2,-.2,-.6,-.2,-.8,0l-21.2,21.2c-.1,.1,-.1,.3,-.1,.4c0,.1,0,.3,.1,.4l3,2.9c.1,.1,.2,.2,.4,.2m20.4,-21.8L167.7,140l-2.3,-2.2l20.5,-20.5Z" class="gf_334"/>
<path d="M32.1,45.1H9.2m958.3,0h22.9M32.1,1331.3H9.2m958.3,0h22.9M45.1,32.1V9.2m0,1335.1v22.9M954.5,32.1V9.2m0,1335.1v22.9" class="gj_334"/>
<path d="M32.1,45.1H9.2m958.3,0h22.9M32.1,1331.3H9.2m958.3,0h22.9M45.1,32.1V9.2m0,1335.1v22.9M954.5,32.1V9.2m0,1335.1v22.9" class="gk_334"/>
<path d="M27.5,32.1H0m972.1,0h27.5M27.5,1344.3H0m972.1,0h27.5M32.1,27.5V0m0,1348.9v27.5M967.5,27.5V0m0,1348.9v27.5" class="gj_334"/>
<path d="M27.5,32.1H0m972.1,0h27.5M27.5,1344.3H0m972.1,0h27.5M32.1,27.5V0m0,1348.9v27.5M967.5,27.5V0m0,1348.9v27.5" class="gk_334"/>
</svg>