<?xml version="1.0" encoding="UTF-8" standalone="no"?>
<!DOCTYPE svg PUBLIC "-//W3C//DTD SVG 1.1//EN"
"http://www.w3.org/Graphics/SVG/1.1/DTD/svg11.dtd">
<svg viewBox="0 0 999 1376" version="1.1" xmlns="http://www.w3.org/2000/svg" xmlns:xlink="http://www.w3.org/1999/xlink">
<defs>
<clipPath id="c0_44"><path d="M32.1,1344.3V32.1H967.5V1344.3Z"/></clipPath>
<clipPath id="c1_44"><path d="M130,266.1V208.9h55.5v57.2Z"/></clipPath>
<clipPath id="c2_44"><path d="M155.9,408.8V293.3h698V408.8Z"/></clipPath>
<clipPath id="c3_44"><path d="M181.3,927l-6.4,-2L160.8,913.8V852.9h62.7V927Z"/></clipPath>
<clipPath id="c4_44"><path d="M181.3,1203.9l-6.4,-2l-14.1,-11.3v-60.9h62.7v74.2Z"/></clipPath>
<style type="text/css"><![CDATA[
.g0_44{
fill: #FFFDEA;
}
.g1_44{
fill: #BCE4EA;
}
.g2_44{
fill: #BCBEC0;
}
.g3_44{
fill: #00AABD;
}
.g4_44{
fill: #FEF0DB;
}
.g5_44{
fill: #FDD095;
}
.g6_44{
fill: #F47A43;
}
.g7_44{
fill: #FFF;
}
.g8_44{
fill: none;
stroke: #231F20;
stroke-width: 1.527;
}
.g9_44{
fill: none;
stroke: #976EAF;
stroke-width: 1.145;
stroke-linecap: round;
stroke-linejoin: round;
stroke-dasharray: 4,2;
}
.ga_44{
fill: none;
stroke: #976EAF;
stroke-width: 1.145;
stroke-linecap: round;
stroke-linejoin: round;
stroke-dasharray: 4,3;
}
.gb_44{
fill: none;
stroke: #976EAF;
stroke-width: 1.145;
stroke-linecap: round;
stroke-linejoin: round;
}
.gc_44{
fill: none;
stroke: #6D6F71;
stroke-width: 0.305;
stroke-miterlimit: 10;
}
.gd_44{
fill: #FCDCBA;
}
.ge_44{
fill: none;
stroke: #FFF;
stroke-width: 1.909;
stroke-miterlimit: 10;
}
.gf_44{
fill: none;
stroke: #000;
stroke-width: 0.381;
stroke-miterlimit: 10;
}
]]></style>
</defs>
<g clip-path="url(#c0_44)">
<path d="M32.1,1344.3H1877V32.1H32.1V1344.3Z" class="g0_44"/>
<path d="M32.1,179.3H1877V32.1H32.1V179.3Z" class="g1_44"/>
<path d="M1877,177.2H32.1v-5.4H768.7c43.1,0,53,-37.9,115.3,-37.9h993Z" class="g2_44"/>
<path d="M1877,183.7H32.1v-9.8H768.7c43.1,0,53,-33.6,115.3,-33.6h993Z" class="g3_44"/>
</g>
<path d="M480.7,217.7c0,0,-8.6,0,-8.6,8.7v30.3c0,0,0,8.6,8.6,8.6H833c0,0,8.7,0,8.7,-8.6V226.4c0,0,0,-8.7,-8.7,-8.7Z" class="g4_44"/>
<path d="M160.5,217.7c0,0,-8.6,0,-8.6,8.7v30.3c0,0,0,8.6,8.6,8.6H731.6c0,0,8.6,0,8.6,-8.6V226.4c0,0,0,-8.7,-8.6,-8.7Z" class="g5_44"/>
<image clip-path="url(#c1_44)" preserveAspectRatio="none" x="130" y="209" width="55" height="57" xlink:href="img/1.png"/>
<path d="M154.8,210.7c12.7,0,23,10.6,23,23.7c0,13.2,-10.3,23.8,-23,23.8c-12.8,0,-23.1,-10.6,-23.1,-23.8c0,-13.1,10.3,-23.7,23.1,-23.7Z" class="g6_44"/>
<path d="M172,234.4c0,-9.8,-7.7,-17.7,-17.2,-17.7c-9.6,0,-17.3,7.9,-17.3,17.7c0,9.8,7.7,17.8,17.3,17.8c3.6,0,7,-1.2,9.7,-3.2l6.4,1.8l-1.7,-6.7c1.8,-2.8,2.8,-6.1,2.8,-9.7Z" class="g7_44"/>
<path d="M770.8,240.8c0,0,-.5,-9.9,8.3,-9.3c0,0,6.6,-.4,6.5,9.5m-14.9,-1.6v6.5c0,0,-3.2,.4,-3.8,-3c0,0,0,-3.7,3.8,-3.5Zm15,0v6.5c0,0,3.2,.4,3.7,-3c0,0,.1,-3.7,-3.7,-3.5Z" class="g8_44"/>
<image clip-path="url(#c2_44)" preserveAspectRatio="none" x="156" y="294" width="697" height="115" xlink:href="img/2.png"/>
<path d="M171.2,295.3c0,0,-13,0,-13,13v79.3c0,0,0,13,13,13H832.7c0,0,13,0,13,-13V308.3c0,0,0,-13,-13,-13Z" class="g7_44"/>
<path d="M167.7,295.8c-3.4,.9,-8.3,3.4,-9.3,9.9" class="g9_44"/>
<path d="M158.2,312.3v72.5" class="ga_44"/>
<path d="M158.8,391.1c.9,3.5,3.3,8.3,9.9,9.3" class="g9_44"/>
<path d="M175.3,400.6H829.8" class="ga_44"/>
<path d="M836.2,400.1c3.5,-.9,8.3,-3.4,9.3,-9.9" class="g9_44"/>
<path d="M845.7,383.6V311.1" class="ga_44"/>
<path d="M845.2,304.8c-.9,-3.4,-3.4,-8.3,-9.9,-9.3" class="g9_44"/>
<path d="M828.7,295.3H174.1" class="ga_44"/>
<path d="M158.3,306.7c0,.5,-.1,1.1,-.1,1.6V310m0,75.9v1.7c0,0,0,.6,.2,1.6m11.3,11.3c.5,.1,1,.1,1.5,.1H173m658,0h1.7c0,0,.6,0,1.6,-.1m11.3,-11.3c.1,-.5,.1,-1.1,.1,-1.6v-1.7m0,-75.9v-1.7c0,0,0,-.6,-.2,-1.6M834.3,295.4c-.5,-.1,-1.1,-.1,-1.6,-.1H831m-658,0h-1.8c0,0,-.6,0,-1.5,.2" class="gb_44"/>
<path d="M300.6,455.3H439.2v90.9H300.6V455.3Zm277.2,0H716.3v90.9H577.8V455.3ZM300.6,546.2H439.2v91H300.6v-91Zm277.2,0H716.3v91H577.8v-91Zm-277.2,91H439.2v90.9H300.6V637.2Zm277.2,0H716.3v90.9H577.8V637.2ZM300.6,728.1H439.2v91H300.6v-91Zm277.2,0H716.3v91H577.8v-91Z" class="g7_44"/>
<path d="M300.4,455.3H439.2M300.6,546.1V455.4m138.6,-.1H577.8M439.2,546.1V455.4m138.6,-.1H716.5M577.8,546.1V455.4m138.5,90.7V455.4M300.4,546.2H439.3M300.6,637V546.4M439.2,637V546.4m138.4,-.2H716.5M577.8,637V546.4M716.3,637V546.4M300.4,637.2H439.3M300.6,728V637.3M439.2,728V637.3m138.4,-.1H716.5M577.8,728V637.3M716.3,728V637.3M300.4,728.1H439.3M300.6,818.9V728.3m138.6,90.6V728.3m138.4,-.2H716.5M577.8,818.9V728.3m138.5,90.6V728.3M300.4,819.1H439.2m0,0H577.8m0,0H716.5" class="gc_44"/>
<path d="M214,882c0,0,-13,0,-13,13v21.7c0,0,0,13,13,13H833c0,0,13,0,13,-13V895c0,0,0,-13,-13,-13Z" class="gd_44"/>
<image clip-path="url(#c3_44)" preserveAspectRatio="none" x="161" y="852" width="63" height="77" xlink:href="img/3.png"/>
<path d="M208.8,922.3c0,0,-26.9,11.3,-51.1,-12.7c0,0,15.1,25.3,49.3,23.9c0,0,24.7,.4,20.2,-10.1c0,0,1.2,-4.4,-18.4,-1.1Z" class="gd_44"/>
<path d="M214,1158.9c0,0,-13,0,-13,13v21.7c0,0,0,12.9,13,12.9H833c0,0,13,0,13,-12.9v-21.7c0,0,0,-13,-13,-13Z" class="gd_44"/>
<image clip-path="url(#c4_44)" preserveAspectRatio="none" x="161" y="1129" width="63" height="77" xlink:href="img/4.png"/>
<path d="M208.8,1199.2c0,0,-26.9,11.3,-51.1,-12.8c0,0,15.1,25.3,49.3,24c0,0,24.7,.3,20.2,-10.1c0,0,1.2,-4.5,-18.4,-1.1Z" class="gd_44"/>
<path d="M32.1,45.1H9.2m958.3,0h22.9M32.1,1331.3H9.2m958.3,0h22.9M45.1,32.1V9.2m0,1335.1v22.9M954.5,32.1V9.2m0,1335.1v22.9" class="ge_44"/>
<path d="M32.1,45.1H9.2m958.3,0h22.9M32.1,1331.3H9.2m958.3,0h22.9M45.1,32.1V9.2m0,1335.1v22.9M954.5,32.1V9.2m0,1335.1v22.9" class="gf_44"/>
<path d="M27.5,32.1H0m972.1,0h27.5M27.5,1344.3H0m972.1,0h27.5M32.1,27.5V0m0,1348.9v27.5M967.5,27.5V0m0,1348.9v27.5" class="ge_44"/>
<path d="M27.5,32.1H0m972.1,0h27.5M27.5,1344.3H0m972.1,0h27.5M32.1,27.5V0m0,1348.9v27.5M967.5,27.5V0m0,1348.9v27.5" class="gf_44"/>
</svg>