<?xml version="1.0" encoding="UTF-8" standalone="no"?>
<!DOCTYPE svg PUBLIC "-//W3C//DTD SVG 1.1//EN"
"http://www.w3.org/Graphics/SVG/1.1/DTD/svg11.dtd">
<svg viewBox="0 0 999 1376" version="1.1" xmlns="http://www.w3.org/2000/svg" xmlns:xlink="http://www.w3.org/1999/xlink">
<defs>
<clipPath id="c0_271"><path d="M32.1,1344.3V32.1H967.5V1344.3Z"/></clipPath>
<clipPath id="c1_271"><path d="M217.1,430.1V327.3H331.4V430.1Z"/></clipPath>
<clipPath id="c2_271"><path d="M508.2,430.1V327.3H622.6V430.1Z"/></clipPath>
<clipPath id="c3_271"><path d="M360.6,430.1V327.3H475V430.1Z"/></clipPath>
<clipPath id="c4_271"><path d="M645.5,429.3v-102H748.3v102Z"/></clipPath>
<clipPath id="c5_271"><path d="M229.1,758V655.2H331.9V758Z"/></clipPath>
<clipPath id="c6_271"><path d="M372.9,757.6V654.8H475.7V757.6Z"/></clipPath>
<clipPath id="c7_271"><path d="M358.4,779.4V650.3h285V779.4Z"/></clipPath>
<clipPath id="c8_271"><path d="M508.2,757.6V654.8H622.6V757.6Z"/></clipPath>
<clipPath id="c9_271"><path d="M222.5,607V504.2H336.8V607Z"/></clipPath>
<clipPath id="ca_271"><path d="M512.7,607V504.2H615.5V607Z"/></clipPath>
<clipPath id="cb_271"><path d="M358.9,607V504.2H485.1V607Z"/></clipPath>
<clipPath id="cc_271"><path d="M655.3,607V504.2H758.1V607Z"/></clipPath>
<clipPath id="cd_271"><path d="M199.2,315.3l-6.5,-2.1L176.3,299.3V242.2h72v73.1Z"/></clipPath>
<clipPath id="ce_271"><path d="M200.7,882.6l-6.5,-2.1l-16.4,-14V809.4h72v73.2Z"/></clipPath>
<clipPath id="cf_271"><path d="M658.6,177V59h200V177Z"/></clipPath>
<style type="text/css"><![CDATA[
.g0_271{
fill: #FEFCF4;
}
.g1_271{
fill: #FFF;
}
.g2_271{
fill: none;
stroke: #6381B7;
stroke-width: 0.763;
}
.g3_271{
fill: none;
stroke: #949698;
stroke-width: 1.145;
}
.g4_271{
fill: none;
stroke: #231F20;
stroke-width: 0.305;
stroke-miterlimit: 10;
}
.g5_271{
fill: #48484A;
}
.g6_271{
fill: #F0E8F3;
}
.g7_271{
fill: #766FA6;
}
.g8_271{
fill: #6381B7;
}
.g9_271{
fill: none;
stroke: #6381B7;
stroke-width: 0.381;
stroke-dasharray: 2,1;
}
.ga_271{
fill: none;
stroke: #6381B7;
stroke-width: 0.381;
}
.gb_271{
fill: #FCE8B0;
}
.gc_271{
fill: none;
stroke: #231F20;
stroke-width: 1.527;
stroke-miterlimit: 3;
}
.gd_271{
fill: #2E6E51;
}
.ge_271{
fill: #BCBEC0;
}
.gf_271{
fill: #EE314A;
}
.gg_271{
fill: #25408F;
}
.gh_271{
fill: #00BAF1;
}
.gi_271{
fill: #332D2C;
}
.gj_271{
fill: #D9DFF0;
}
.gk_271{
fill: #F27C85;
}
.gl_271{
fill: #7DD3F6;
}
.gm_271{
fill: none;
stroke: #FFF;
stroke-width: 1.909;
stroke-miterlimit: 10;
}
.gn_271{
fill: none;
stroke: #000;
stroke-width: 0.381;
stroke-miterlimit: 10;
}
]]></style>
</defs>
<path clip-path="url(#c0_271)" d="M-877.3,1344.3H45.1V32.1H-877.3V1344.3Z" class="g0_271"/>
<path d="M45.1,1344.3H967.5V32.1H45.1V1344.3Z" class="g0_271"/>
<path d="M172.1,220.3c0,0,-18.4,0,-18.4,18.3V785.5c0,0,0,18.4,18.4,18.4H849.2c0,0,18.3,0,18.3,-18.4V220.3Z" class="g1_271"/>
<path d="M172.1,220.3c0,0,-18.4,0,-18.4,18.3V785.5c0,0,0,18.4,18.4,18.4H849.2c0,0,18.3,0,18.3,-18.4V220.3H172.1Z" class="g2_271"/>
<image clip-path="url(#c1_271)" preserveAspectRatio="none" x="217" y="326" width="114" height="105" xlink:href="img/1.jpg"/>
<path d="M216.6,430.1H343.2V327.3H216.6V430.1Z" class="g3_271"/>
<image clip-path="url(#c2_271)" preserveAspectRatio="none" x="508" y="326" width="115" height="105" xlink:href="img/2.jpg"/>
<path d="M500.4,430.1H627V327.3H500.4V430.1Z" class="g3_271"/>
<image clip-path="url(#c3_271)" preserveAspectRatio="none" x="361" y="326" width="114" height="105" xlink:href="img/3.jpg"/>
<path d="M358.5,430.1H485.1V327.3H358.5V430.1Z" class="g3_271"/>
<image clip-path="url(#c4_271)" preserveAspectRatio="none" x="646" y="326" width="102" height="103" xlink:href="img/4.jpg"/>
<path d="M642.3,430.1H769V327.3H642.3V430.1Z" class="g3_271"/>
<path d="M166.5,893c0,0,-13,0,-13,13v278.1c0,0,0,13,13,13H854.8c0,0,13,0,13,-13V906c0,0,0,-13,-13,-13Z" class="g1_271"/>
<path d="M166.5,893c0,0,-13,0,-13,13v278.1c0,0,0,13,13,13H854.8c0,0,13,0,13,-13V906c0,0,0,-13,-13,-13H166.5Z" class="g2_271"/>
<path d="M644.2,481.4c0,0,-4.3,0,-4.3,4.3V615.3c0,0,0,4.4,4.3,4.4H786.1c0,0,4.3,0,4.3,-4.4V485.7c0,0,0,-4.3,-4.3,-4.3Z" class="g1_271"/>
<path d="M210.5,779.4h285V650.3h-285V779.4Z" class="g1_271"/>
<image clip-path="url(#c5_271)" preserveAspectRatio="none" x="229" y="655" width="103" height="103" xlink:href="img/5.jpg"/>
<path d="M216.1,758H342.8V655.2H216.1V758Z" class="g3_271"/>
<path d="M358.4,779.4h285V650.3h-285V779.4Z" class="g1_271"/>
<image clip-path="url(#c6_271)" preserveAspectRatio="none" x="373" y="655" width="103" height="103" xlink:href="img/6.jpg"/>
<path clip-path="url(#c7_271)" d="M358.3,757.6H485V654.8H358.3V757.6Z" class="g3_271"/>
<image clip-path="url(#c8_271)" preserveAspectRatio="none" x="508" y="653" width="115" height="106" xlink:href="img/7.jpg"/>
<path d="M500.2,757.6H626.9V654.8H500.2V757.6Z" class="g3_271"/>
<image clip-path="url(#c9_271)" preserveAspectRatio="none" x="222" y="503" width="115" height="105" xlink:href="img/8.jpg"/>
<path d="M216.6,607H343.2V504.2H216.6V607Z" class="g3_271"/>
<image clip-path="url(#ca_271)" preserveAspectRatio="none" x="513" y="504" width="103" height="103" xlink:href="img/9.jpg"/>
<path d="M500.4,607H627V504.2H500.4V607Z" class="g3_271"/>
<image clip-path="url(#cb_271)" preserveAspectRatio="none" x="359" y="503" width="126" height="105" xlink:href="img/10.jpg"/>
<path d="M358.5,607H485.1V504.2H358.5V607Z" class="g3_271"/>
<image clip-path="url(#cc_271)" preserveAspectRatio="none" x="655" y="504" width="103" height="103" xlink:href="img/11.jpg"/>
<path d="M642.3,607H769V504.2H642.3V607Z" class="g3_271"/>
<path d="M198.8,649h453V610h-453v39Z" class="g1_271"/>
<path d="M198.8,800.1h453V761.2h-453v38.9Z" class="g1_271"/>
<path d="M273.5,975.4h98.9m-38.6,53.9h98.9m103.4,53.8h98.8M278,1112.5h98.8m-103.3,76.8h98.9" class="g4_271"/>
<path d="M702.3,959.3c0,0,-4.4,0,-4.4,4.4v15.6c0,0,0,4.3,4.1,5.8l52.5,19.3c0,0,4.1,1.4,4.1,-2.9V963.7c0,0,0,-4.4,-4.4,-4.4Z" class="g5_271"/>
<path d="M723.4,945.9c0,0,-13,0,-13,13v181.8c0,0,0,13,13,13h98c0,0,12.9,0,12.9,-13V958.9c0,0,0,-13,-12.9,-13Z" class="g6_271"/>
<path d="M702.3,957.1c0,0,-4.4,0,-4.4,4.3v18.3c0,0,0,4.4,4.4,4.4h37.2c0,0,4.4,0,4.4,-4.4V961.4c0,0,0,-4.3,-4.4,-4.3Z" class="g7_271"/>
<path d="M495.9,1214.8c0,0,-4.4,0,-4.4,4.4V1230c0,0,0,4.3,4.4,4.3h30.3c0,0,4.3,0,4.3,-4.3v-10.8c0,0,0,-4.4,-4.3,-4.4Z" class="g8_271"/>
<path d="M482.7,1206v37.5m1.3,1H866.8m.9,-1.3v-37.6m-1.3,-1H483.6" class="g9_271"/>
<path d="M482.7,1243.9v.6h.5m384,0h.5v-.6m0,-38.7v-.6h-.5m-384,0h-.5v.6" class="ga_271"/>
<path d="M653.1,493.3c0,0,-13,0,-13,13V783.5c0,0,0,13,13,13H833.8c0,0,13,0,13,-13V506.3c0,0,0,-13,-13,-13Z" class="gb_271"/>
<path d="M654.1,512.3c-.3,0,-.5,.1,-.7,.3c-.1,.1,-.2,.4,-.2,.6c0,.3,.1,.5,.2,.6c.2,.2,.4,.3,.7,.3c.2,0,.4,-.1,.6,-.3c.1,-.1,.2,-.3,.2,-.6c0,-.2,-.1,-.5,-.2,-.6c-.2,-.2,-.4,-.3,-.6,-.3Zm0,39.5c-.3,0,-.5,.1,-.7,.2c-.1,.2,-.2,.4,-.2,.7c0,.2,.1,.4,.2,.6c.2,.2,.4,.3,.7,.3c.2,0,.4,-.1,.6,-.3c.1,-.2,.2,-.4,.2,-.6c0,-.3,-.1,-.5,-.2,-.7c-.2,-.1,-.4,-.2,-.6,-.2Zm0,39.5c-.3,0,-.5,0,-.7,.2c-.1,.2,-.2,.4,-.2,.6c0,.3,.1,.5,.2,.7c.2,.2,.4,.2,.7,.2c.2,0,.4,0,.6,-.2c.1,-.2,.2,-.4,.2,-.7c0,-.2,-.1,-.4,-.2,-.6c-.2,-.2,-.4,-.2,-.6,-.2Zm0,57c-.3,0,-.5,.1,-.7,.3c-.1,.1,-.2,.3,-.2,.6c0,.2,.1,.4,.2,.6c.2,.2,.4,.3,.7,.3c.2,0,.4,-.1,.6,-.3c.1,-.2,.2,-.4,.2,-.6c0,-.3,-.1,-.5,-.2,-.6c-.2,-.2,-.4,-.3,-.6,-.3Zm0,39.5c-.3,0,-.5,0,-.7,.2c-.1,.2,-.2,.4,-.2,.7c0,.2,.1,.4,.2,.6c.2,.2,.4,.2,.7,.2c.2,0,.4,0,.6,-.2c.1,-.2,.2,-.4,.2,-.6c0,-.3,-.1,-.5,-.2,-.7c-.2,-.2,-.4,-.2,-.6,-.2Zm0,39.4c-.3,0,-.5,.1,-.7,.3c-.1,.2,-.2,.4,-.2,.6c0,.3,.1,.5,.2,.7c.2,.1,.4,.2,.7,.2c.2,0,.4,-.1,.6,-.2c.1,-.2,.2,-.4,.2,-.7c0,-.2,-.1,-.4,-.2,-.6c-.2,-.2,-.4,-.3,-.6,-.3Z" class="gc_271"/>
<path d="M231.8,248.7c0,0,-13,0,-13,13V305c0,0,0,13,13,13h602c0,0,13,0,13,-13V261.7c0,0,0,-13,-13,-13Z" class="gb_271"/>
<image clip-path="url(#cd_271)" preserveAspectRatio="none" x="175" y="241" width="75" height="76" xlink:href="img/12.png"/>
<path d="M226.6,310.6c0,0,-26.9,11.3,-51.1,-12.8c0,0,15.1,25.3,49.3,24c0,0,24.7,.3,20.2,-10.1c0,0,1.2,-4.5,-18.4,-1.1Z" class="gb_271"/>
<path d="M233.3,837.6c0,0,-13,0,-13,13v21.6c0,0,0,13,13,13H854.9c0,0,13,0,13,-13V850.6c0,0,0,-13,-13,-13Z" class="gb_271"/>
<image clip-path="url(#ce_271)" preserveAspectRatio="none" x="176" y="808" width="75" height="76" xlink:href="img/13.png"/>
<path d="M228.1,877.9c0,0,-26.8,11.3,-51.1,-12.8c0,0,15.2,25.3,49.3,24c0,0,24.8,.3,20.3,-10.1c0,0,1.2,-4.5,-18.5,-1.1Z" class="gb_271"/>
<path d="M32.1,179.3H967.5V32.1H32.1V179.3Z" class="gd_271"/>
<g clip-path="url(#c0_271)">
<path d="M967.5,177.2H-877.3v-5.4h736.6c43.1,0,53.1,-37.9,115.3,-37.9H967.5Z" class="ge_271"/>
<path d="M967.5,183.7H-877.3v-9.8h736.6c43.1,0,53.1,-33.6,115.3,-33.6H967.5Z" class="gf_271"/>
</g>
<image clip-path="url(#cf_271)" preserveAspectRatio="none" x="659" y="59" width="200" height="118" xlink:href="img/14.png"/>
<path d="M153.3,217.5v22.2L165,250V227.8Z" class="gg_271"/>
<path d="M153.3,200.7v39H851.1c0,0,16.8,0,16.8,-16.8v-5.4c0,0,0,-16.8,-16.8,-16.8Z" class="g8_271"/>
<path d="M211.3,212.1l-6.5,-6.4l-21.2,21.2l6.5,6.4Z" class="gh_271"/>
<path d="M190.1,233.9c.1,0,.3,-.1,.4,-.2l21.2,-21.2c.1,-.1,.1,-.2,.1,-.4c0,-.1,0,-.2,-.1,-.3l-6.5,-6.5c-.2,-.2,-.6,-.2,-.8,0l-21.2,21.2c-.1,.1,-.1,.2,-.1,.4c0,.1,0,.2,.1,.3l6.5,6.5c.1,.1,.3,.2,.4,.2m20.5,-21.8l-20.5,20.5l-5.8,-5.7l20.5,-20.5Z" class="gi_271"/>
<path d="M211.3,212.1l-6.5,-6.4l2.1,-2.2l6.5,6.5Z" class="gj_271"/>
<path d="M211.3,212.7c.1,0,.3,-.1,.4,-.2l2.1,-2.1c.1,-.1,.2,-.2,.2,-.4c0,-.1,-.1,-.3,-.2,-.4l-6.5,-6.4c-.2,-.3,-.5,-.3,-.7,0l-2.2,2.1c-.1,.1,-.1,.2,-.1,.4c0,.1,0,.2,.1,.3l6.5,6.5c.1,.1,.3,.2,.4,.2m1.4,-2.7l-1.4,1.4l-5.7,-5.7l1.3,-1.4Z" class="gi_271"/>
<path d="M217,206.4l-6.4,-6.5l-3.7,3.6l6.5,6.5Z" class="gk_271"/>
<path d="M213.4,210.5c.2,0,.3,0,.4,-.1l3.6,-3.6c.2,-.2,.2,-.6,0,-.8l-6.5,-6.5c-.2,-.2,-.5,-.2,-.7,0l-3.6,3.7c-.2,.2,-.2,.5,0,.7l6.5,6.5c.1,.1,.2,.1,.3,.1m2.9,-4.1l-2.9,2.9l-5.7,-5.8l2.9,-2.8Z" class="gi_271"/>
<path d="M179,238l4.6,-11.1l6.5,6.4Z" class="g1_271"/>
<path d="M179,238.5c0,0,.1,0,.2,0l11.1,-4.7c.2,0,.3,-.2,.3,-.4c0,-.1,0,-.3,-.1,-.4L184,226.5c-.1,-.1,-.3,-.2,-.5,-.1c-.2,0,-.3,.1,-.4,.3l-4.6,11.1c-.1,.2,0,.4,.1,.6c.1,.1,.2,.1,.4,.1m10.2,-5.3l-9.3,3.8l3.9,-9.2Z" class="gi_271"/>
<path d="M179,238l2.2,-5.4l3.1,3.1Z" class="gi_271"/>
<path d="M179,238.5c0,0,.1,0,.2,0l5.3,-2.3c.2,0,.3,-.2,.4,-.4c0,-.1,-.1,-.3,-.2,-.4l-3.1,-3.2c-.1,-.1,-.3,-.1,-.5,-.1c-.2,0,-.3,.2,-.4,.3l-2.2,5.4c-.1,.2,0,.4,.1,.6c.1,.1,.2,.1,.4,.1m4.4,-2.9l-3.5,1.4l1.5,-3.5Z" class="gi_271"/>
<path d="M209.5,210.4l-2.9,-3l-21.2,21.2l2.9,3Z" class="gl_271"/>
<path d="M188.3,232.1c.2,0,.3,0,.4,-.1l21.2,-21.2c.1,-.1,.2,-.3,.2,-.4c0,-.2,-.1,-.3,-.2,-.4l-3,-3c-.2,-.2,-.5,-.2,-.7,0L185,228.3c-.1,.1,-.2,.2,-.2,.3c0,.2,.1,.3,.2,.4l3,3c.1,.1,.2,.1,.3,.1m20.5,-21.7l-20.5,20.4l-2.2,-2.2l20.5,-20.4Z" class="gi_271"/>
<path d="M198.8,471.7h602v-39h-602v39Z" class="g1_271"/>
<path d="M32.1,45.1H9.2m958.3,0h22.9M32.1,1331.3H9.2m958.3,0h22.9M45.1,32.1V9.2m0,1335.1v22.9M954.5,32.1V9.2m0,1335.1v22.9" class="gm_271"/>
<path d="M32.1,45.1H9.2m958.3,0h22.9M32.1,1331.3H9.2m958.3,0h22.9M45.1,32.1V9.2m0,1335.1v22.9M954.5,32.1V9.2m0,1335.1v22.9" class="gn_271"/>
<path d="M27.5,32.1H0m972.1,0h27.5M27.5,1344.3H0m972.1,0h27.5M32.1,27.5V0m0,1348.9v27.5M967.5,27.5V0m0,1348.9v27.5" class="gm_271"/>
<path d="M27.5,32.1H0m972.1,0h27.5M27.5,1344.3H0m972.1,0h27.5M32.1,27.5V0m0,1348.9v27.5M967.5,27.5V0m0,1348.9v27.5" class="gn_271"/>
</svg>