<?xml version="1.0" encoding="UTF-8" standalone="no"?>
<!DOCTYPE svg PUBLIC "-//W3C//DTD SVG 1.1//EN"
"http://www.w3.org/Graphics/SVG/1.1/DTD/svg11.dtd">
<svg viewBox="0 0 999 1376" version="1.1" xmlns="http://www.w3.org/2000/svg" xmlns:xlink="http://www.w3.org/1999/xlink">
<defs>
<clipPath id="c0_217"><path d="M153.3,1244.1V131.1H867.8v1113Z"/></clipPath>
<clipPath id="c1_217"><path d="M163.4,1231.3v-35.7H851.9v35.7Z"/></clipPath>
<clipPath id="c2_217"><path d="M163.4,1224.5V851.7H851.9v372.8Z"/></clipPath>
<clipPath id="c3_217"><path d="M168.5,806V382.9H849.7V806Z"/></clipPath>
<clipPath id="c4_217"><path d="M323.4,643.8V528H439.2V643.8Z"/></clipPath>
<style type="text/css"><![CDATA[
.g0_217{
fill: #FFF;
}
.g1_217{
fill: none;
stroke: #231F20;
stroke-width: 0.756;
stroke-miterlimit: 3;
}
.g2_217{
fill: #D4EFFB;
}
.g3_217{
fill: #25408F;
}
.g4_217{
fill: #6381B7;
}
.g5_217{
fill: #FFDE2C;
}
.g6_217{
fill: none;
stroke: #231F20;
stroke-width: 1.451;
stroke-miterlimit: 10;
}
.g7_217{
fill: #D2D3D5;
}
.g8_217{
fill: #A8AAAD;
}
.g9_217{
fill: none;
stroke: #231F20;
stroke-width: 0.828;
stroke-miterlimit: 10;
}
.ga_217{
fill: #6CCFF6;
}
.gb_217{
fill: none;
stroke: #231F20;
stroke-width: 0.828;
stroke-linecap: round;
stroke-linejoin: round;
}
.gc_217{
fill: none;
stroke: #231F20;
stroke-width: 1.451;
stroke-linecap: round;
stroke-linejoin: round;
}
.gd_217{
fill: none;
stroke: #FFF;
stroke-width: 1.909;
stroke-miterlimit: 10;
}
.ge_217{
fill: none;
stroke: #000;
stroke-width: 0.381;
stroke-miterlimit: 10;
}
]]></style>
</defs>
<path d="M153.3,1244.1H867.8V131.1H153.3v1113Z" class="g0_217"/>
<image clip-path="url(#c0_217)" preserveAspectRatio="none" x="151" y="129" width="719" height="1117" xlink:href="img/1.jpg"/>
<path d="M422,197.4v-6.9c-.6,.3,-1.2,.5,-1.8,.7c-.6,.2,-1.3,.4,-2,.6c-.6,.1,-1.2,.2,-1.9,.3c-.6,0,-1.1,.1,-1.6,.1h-2.5c-.8,0,-1.5,-.2,-2,-.6c-.5,-.4,-.8,-1.1,-.8,-2V176.4h9.8v1.9h-7.5v11.2c0,.3,0,.5,.2,.7c.1,.1,.3,.1,.6,.1h2.1c1.2,0,2.4,-.1,3.7,-.4c1.3,-.2,2.5,-.7,3.7,-1.4V175.4h2.2v8.3h4v-8.3h2.2V198h-2.2V185.7h-4v11.7H422Zm27.7,-.1c-.4,.7,-.8,1.3,-1.4,1.7c-.6,.5,-1.3,.8,-2.1,1.1c-.8,.2,-1.7,.4,-2.6,.4c-1,0,-1.8,-.2,-2.7,-.4c-.8,-.3,-1.5,-.6,-2,-1.1c-.6,-.4,-1.1,-1,-1.4,-1.7c-.4,-.6,-.5,-1.4,-.5,-2.2c0,-1.4,.5,-2.6,1.5,-3.5c1,-.9,2.3,-1.5,3.9,-1.7v-2.5h-9.3v-1.8h21.3v1.8h-9.7v2.5c1.6,.2,2.9,.8,3.9,1.7c1.1,.9,1.6,2.1,1.6,3.5c0,.8,-.2,1.6,-.5,2.2Zm-.5,-22.2c.4,0,.6,.1,.8,.2c.2,.2,.3,.3,.4,.5c0,.2,0,.4,0,.6c-.1,.2,-.1,.4,-.2,.5c-.4,.6,-.9,1.1,-1.5,1.6c-.6,.5,-1.2,1,-1.9,1.5c.4,0,.8,.1,1.1,.3c.3,.1,.6,.2,.9,.3c.5,.3,1,.6,1.6,.9c.6,.4,1.3,.8,1.9,1.2l-1.1,1.7c-.5,-.4,-1.1,-.8,-1.7,-1.2c-.7,-.3,-1.3,-.7,-1.9,-1c-.3,-.2,-.8,-.4,-1.3,-.6c-.5,-.1,-1.2,-.2,-2,-.3c-1.3,.6,-2.7,1.1,-4.1,1.6c-1.5,.5,-3.1,.8,-4.7,1.1l-.4,-1.9c2.6,-.5,5,-1.1,7,-1.9c2,-.8,3.9,-1.9,5.6,-3.3H436.6v-1.8h12.6Zm-2.5,17.5c-.8,-.7,-1.8,-1,-3.1,-1c-1.3,0,-2.3,.3,-3.2,1c-.8,.6,-1.2,1.5,-1.2,2.5c0,1.1,.4,2,1.2,2.6c.9,.7,1.9,1,3.2,1c1.3,0,2.3,-.3,3.1,-1c.8,-.6,1.2,-1.5,1.2,-2.6c0,-1,-.4,-1.9,-1.2,-2.5Zm14,.6v-7.7h2.2v7.7h3.7v-7.7h2.2v7.7h8.6V195H456v-1.8h4.7Zm10.1,-3.1c.4,-1.6,.7,-3.2,.9,-5.1c.2,-1.8,.4,-3.7,.4,-5.9c0,-.3,-.1,-.6,-.3,-.7c-.1,-.2,-.4,-.2,-.7,-.2H458.5v-1.9h13.2c1,0,1.7,.2,2,.7c.4,.4,.6,1,.6,1.8c-.1,2,-.2,4,-.5,6c-.2,2.1,-.5,3.9,-.9,5.7l-2.1,-.4Zm29.5,-1.4H479v-1.8h9.4v-2.5h-3.1c-1,0,-1.8,-.1,-2.4,-.4c-.6,-.3,-.9,-1,-.9,-2v-7h14.9v1.7H484.3v2h12.3v1.8H484.3v1.4c0,.3,0,.5,.1,.6c.2,.1,.4,.2,.7,.2h5.5c1,0,2.1,-.1,3.2,-.1c1.2,-.1,2.3,-.3,3.4,-.5l.3,1.7c-1.1,.2,-2.2,.4,-3.4,.5c-1.2,.1,-2.3,.1,-3.4,.1v2.5h9.6v1.8Zm-4.8,8.9c-.3,.6,-.8,1.1,-1.4,1.6c-.6,.4,-1.2,.7,-2,.9c-.9,.3,-1.7,.4,-2.6,.4c-1,0,-1.9,-.1,-2.7,-.4c-.8,-.2,-1.5,-.5,-2.1,-.9c-.6,-.5,-1,-1,-1.4,-1.6c-.3,-.6,-.5,-1.4,-.5,-2.2c0,-.8,.2,-1.5,.5,-2.1c.4,-.6,.8,-1.2,1.4,-1.6c.6,-.4,1.3,-.7,2.1,-.9c.8,-.3,1.7,-.4,2.7,-.4c1.9,0,3.4,.5,4.7,1.3c1.2,.9,1.8,2.1,1.8,3.7c0,.8,-.1,1.6,-.5,2.2ZM492.6,193c-.8,-.5,-1.9,-.8,-3.1,-.8c-1.3,0,-2.4,.3,-3.2,.8c-.8,.6,-1.2,1.4,-1.2,2.4c0,1.1,.4,1.9,1.2,2.5c.8,.5,1.9,.8,3.2,.8c1.2,0,2.3,-.3,3.1,-.8c.8,-.6,1.2,-1.4,1.2,-2.5c0,-1,-.4,-1.8,-1.2,-2.4Zm37,5h-2.3V175.5h2.3V198Zm-7.1,-11.2c-.3,.9,-.8,1.7,-1.3,2.3c-.6,.7,-1.4,1.2,-2.2,1.6c-.9,.3,-1.8,.5,-2.8,.5c-1.1,0,-2.1,-.2,-2.9,-.5c-.8,-.4,-1.6,-.9,-2.1,-1.6c-.6,-.6,-1.1,-1.4,-1.4,-2.3c-.3,-.9,-.4,-1.8,-.4,-2.8c0,-1.1,.1,-2,.4,-2.9c.3,-.9,.8,-1.7,1.4,-2.3c.5,-.6,1.3,-1.2,2.1,-1.6c.8,-.3,1.8,-.5,2.9,-.5c1,0,1.9,.2,2.8,.5c.8,.4,1.6,1,2.2,1.6c.5,.6,1,1.4,1.3,2.3c.3,.9,.5,1.8,.5,2.9c0,1,-.2,1.9,-.5,2.8Zm-2.1,-4.9c-.2,-.6,-.5,-1.2,-.9,-1.7c-.4,-.5,-.8,-.9,-1.4,-1.2c-.6,-.3,-1.2,-.4,-1.9,-.4c-.8,0,-1.4,.1,-2,.4c-.5,.3,-1,.7,-1.4,1.2c-.4,.5,-.7,1.1,-.8,1.7c-.2,.7,-.3,1.3,-.3,2.1c0,.7,.1,1.4,.3,2c.1,.7,.4,1.2,.8,1.7c.4,.5,.9,.9,1.4,1.2c.6,.3,1.2,.4,2,.4c.7,0,1.3,-.1,1.9,-.4c.6,-.3,1,-.7,1.4,-1.2c.4,-.5,.7,-1,.9,-1.7c.2,-.6,.3,-1.3,.3,-2c0,-.8,-.1,-1.4,-.3,-2.1Zm33,6.5H532.1v-1.8h5.1v-4.2c-.4,-.5,-.7,-.9,-.9,-1.4c-.2,-.5,-.3,-1.1,-.3,-1.7c0,-.8,.1,-1.5,.5,-2.1c.3,-.6,.7,-1.1,1.3,-1.6c.6,-.4,1.3,-.7,2.1,-1c.8,-.2,1.7,-.3,2.6,-.3c1.9,0,3.5,.4,4.7,1.3c1.3,.9,1.9,2.1,1.9,3.7c0,.6,-.1,1.1,-.3,1.6c-.3,.5,-.5,1,-.9,1.3v4.4h5.5v1.8Zm-4.6,9.1c-.4,.6,-.8,1.2,-1.4,1.6c-.6,.5,-1.3,.8,-2.1,1c-.8,.3,-1.7,.4,-2.6,.4c-1,0,-1.8,-.1,-2.7,-.4c-.8,-.2,-1.5,-.5,-2,-1c-.6,-.4,-1.1,-1,-1.4,-1.6c-.4,-.7,-.5,-1.4,-.5,-2.2c0,-.8,.1,-1.5,.5,-2.2c.3,-.6,.8,-1.1,1.4,-1.6c.5,-.4,1.2,-.7,2,-1c.9,-.2,1.7,-.3,2.7,-.3c1.9,0,3.5,.4,4.7,1.3c1.3,.9,1.9,2.2,1.9,3.8c0,.8,-.2,1.5,-.5,2.2Zm-3,-4.7c-.8,-.5,-1.8,-.8,-3.1,-.8c-1.3,0,-2.3,.3,-3.2,.8c-.8,.6,-1.2,1.4,-1.2,2.5c0,1.1,.4,1.9,1.2,2.5c.9,.6,1.9,.9,3.2,.9c1.3,0,2.3,-.3,3.1,-.9c.8,-.6,1.2,-1.4,1.2,-2.5c0,-1.1,-.4,-1.9,-1.2,-2.5Zm-.2,-15.9c-.8,-.6,-1.8,-.8,-3.1,-.8c-1.2,0,-2.2,.2,-3,.8c-.8,.6,-1.3,1.4,-1.3,2.4c0,1,.5,1.8,1.3,2.3c.8,.6,1.8,.8,3,.8c1.3,0,2.3,-.2,3.1,-.8c.8,-.5,1.2,-1.3,1.2,-2.3c0,-1,-.4,-1.8,-1.2,-2.4Zm-4.7,7.2c-.5,-.1,-1,-.2,-1.4,-.3v2.8h6.2v-2.9c-.5,.2,-1,.3,-1.5,.4c-.5,.1,-1.1,.1,-1.7,.1c-.5,0,-1.1,0,-1.6,-.1Zm40.8,-8.9v6H586V183h-4.3v3c0,.9,-.2,1.8,-.5,2.6c-.3,.8,-.9,1.6,-1.8,2.3c.5,.5,.9,1.1,1.2,1.7c.2,.7,.4,1.4,.4,2.1c0,.9,-.2,1.7,-.5,2.3c-.4,.7,-.9,1.4,-1.4,1.9c-.6,.5,-1.3,.9,-2.1,1.2c-.7,.2,-1.6,.4,-2.4,.4c-.9,0,-1.7,-.2,-2.5,-.4c-.8,-.3,-1.5,-.7,-2,-1.2c-.6,-.5,-1.1,-1.1,-1.4,-1.8c-.4,-.7,-.5,-1.5,-.5,-2.4c0,-.8,.1,-1.6,.5,-2.3c.3,-.7,.8,-1.3,1.4,-1.8c.5,-.5,1.2,-1,2,-1.2c.8,-.3,1.6,-.5,2.5,-.5c.6,0,1.2,.1,1.8,.3c.6,.1,1.1,.3,1.6,.6c.6,-.6,1,-1.2,1.2,-1.8c.2,-.7,.2,-1.4,.2,-2.1V175.2h2.3Zm-10.1,11.2c-1.2,.4,-2.2,.5,-3.2,.5h-3c-.8,0,-1.5,-.2,-1.9,-.5c-.4,-.4,-.7,-1,-.7,-1.7v-9.1h2.3v3.6h7.1v-3.6h2.3v9.6c-.8,.5,-1.8,.9,-2.9,1.2Zm6,5.4c-.8,-.7,-1.8,-1.1,-3,-1.1c-1.2,0,-2.2,.4,-3,1.1c-.8,.8,-1.2,1.8,-1.2,2.9c0,1.2,.4,2.2,1.2,2.9c.8,.7,1.8,1.1,3,1.1c1.2,0,2.2,-.4,3,-1.1c.8,-.7,1.1,-1.7,1.1,-2.9c0,-1.1,-.3,-2.1,-1.1,-2.9Zm-12.5,-7.4c0,.2,0,.4,.2,.5c.1,.2,.3,.2,.5,.2h2.7c.6,0,1.2,-.1,1.9,-.2c.6,-.1,1.3,-.4,1.8,-.7V181h-7.1v3.4Zm31.8,2.3c-1.2,.4,-2.2,.5,-3.2,.5h-3c-.8,0,-1.5,-.2,-1.9,-.5c-.5,-.4,-.7,-1,-.7,-1.7v-9.4h2.3v3.9h7.1v-3.9h2.3v4.5h5.3v-4.9h2.2v13.2h-2.2v-6.5h-5.3v3.6c-.8,.5,-1.8,.9,-2.9,1.2Zm10.4,3.1v9.3c0,.3,0,.4,-.1,.6c-.1,.1,-.3,.2,-.6,.2H594.7c-1,0,-1.7,-.2,-2.1,-.5c-.4,-.3,-.6,-1,-.6,-1.9v-7.7h2.2V193h10.9v-3.2h2.2Zm-2.2,8.3v-3.3H594.2v2.6c0,.2,0,.4,.1,.5c.1,.1,.3,.2,.6,.2h10.2ZM590.4,184.7c0,.3,0,.4,.1,.6c.2,.1,.4,.1,.6,.1h2.7c.6,0,1.2,0,1.9,-.2c.6,-.1,1.2,-.4,1.8,-.7v-3.2h-7.1v3.4Z" class="g1_217"/>
<image clip-path="url(#c1_217)" preserveAspectRatio="none" x="162" y="1194" width="692" height="39" xlink:href="img/2.png"/>
<image clip-path="url(#c2_217)" preserveAspectRatio="none" x="162" y="850" width="692" height="376" xlink:href="img/3.png"/>
<path d="M175.9,1005H285.4V862.5H175.9V1005Z" class="g2_217"/>
<path d="M569.1,999.5H705.9V968.1H569.1v31.4Z" class="g0_217"/>
<path d="M288.7,1217.5H425.1v-95.7H288.7v95.7Z" class="g0_217"/>
<path d="M710.7,1000.9H842.8V963.7H710.7v37.2Z" class="g0_217"/>
<path d="M711.8,1219.3H841.7v-97.5H711.8v97.5Z" class="g0_217"/>
<path d="M432.6,1202.1H562.5v-80.3H432.6v80.3Z" class="g0_217"/>
<path d="M294.6,1001.5H558.8V865H294.6v136.5Z" class="g0_217"/>
<image clip-path="url(#c3_217)" preserveAspectRatio="none" x="167" y="381" width="685" height="427" xlink:href="img/4.png"/>
<path d="M177.2,487.6H285.4V430.7H177.2v56.9Z" class="g2_217"/>
<path d="M298.4,520.5H463V501H298.4v19.5Z" class="g0_217"/>
<path d="M343.3,792.7H467.8V778.2H343.3v14.5Z" class="g0_217"/>
<path d="M512.9,512.7H625.3V501H512.9v11.7Z" class="g0_217"/>
<path d="M521.9,649.6h88.7V638H521.9v11.6Z" class="g0_217"/>
<path d="M524.8,793.9h88.6V778.2H524.8v15.7Z" class="g0_217"/>
<path d="M711,512.7h87.5V501H711v11.7Z" class="g0_217"/>
<path d="M708,649.6h93.5V638H708v11.6Z" class="g0_217"/>
<path d="M177.2,627.7H285.4V575.8H177.2v51.9Z" class="g2_217"/>
<path d="M177.2,765.2H285.4V713.3H177.2v51.9Z" class="g2_217"/>
<path d="M323.4,643.8H439.2V528H323.4V643.8Z" class="g0_217"/>
<image clip-path="url(#c4_217)" preserveAspectRatio="none" x="322" y="526" width="119" height="119" xlink:href="img/5.jpg"/>
<path d="M153.3,126.3v22.2L165,158.7V136.5Z" class="g3_217"/>
<path d="M153.3,109.5v39H851.1c0,0,16.8,0,16.8,-16.8v-5.4c0,0,0,-16.8,-16.8,-16.8Z" class="g4_217"/>
<path d="M207.2,115.7c0,-9.1,-7.9,-16.6,-17.7,-16.6c-9.8,0,-17.7,7.5,-17.7,16.6c0,2.7,.6,5.2,1.8,7.4c1.2,2.4,2.9,4.6,5,6.2c1.2,1,1.6,1.7,1.7,4.3v.6c0,3.3,2.7,5.9,5.9,5.9h6.6c3.2,0,5.8,-2.6,5.8,-5.9v-.6c.2,-2.6,.6,-3.3,1.8,-4.3c2.1,-1.6,3.8,-3.8,5,-6.2c1.2,-2.2,1.8,-4.7,1.8,-7.4Z" class="g5_217"/>
<path d="M207.2,115.7c0,-9.1,-7.9,-16.6,-17.7,-16.6c-9.8,0,-17.7,7.5,-17.7,16.6c0,2.7,.6,5.2,1.8,7.4c1.2,2.4,2.9,4.6,5,6.2c1.2,1,1.6,1.7,1.7,4.3v.6c0,3.3,2.7,5.9,5.9,5.9h6.6c3.2,0,5.8,-2.6,5.8,-5.9v-.6c.2,-2.6,.6,-3.3,1.8,-4.3c2.1,-1.6,3.8,-3.8,5,-6.2c1.2,-2.2,1.8,-4.7,1.8,-7.4Z" class="g6_217"/>
<path d="M194.6,147.4c0,2.8,-2.3,5.1,-5.1,5.1c-2.8,0,-5.1,-2.3,-5.1,-5.1c0,-2.8,2.3,-5.1,5.1,-5.1c2.8,0,5.1,2.3,5.1,5.1Z" class="g0_217"/>
<path d="M194.6,147.4c0,2.8,-2.3,5.1,-5.1,5.1c-2.8,0,-5.1,-2.3,-5.1,-5.1c0,-2.8,2.3,-5.1,5.1,-5.1c2.8,0,5.1,2.3,5.1,5.1Z" class="g6_217"/>
<path d="M182.1,140.2c0,1,.8,1.8,1.8,1.8h11.2c1,0,1.8,-.8,1.8,-1.8v-1.3H182.1Z" class="g0_217"/>
<path d="M182.1,140.2c0,1,.8,1.8,1.8,1.8h11.2c1,0,1.8,-.8,1.8,-1.8v-1.3H182.1v1.3Z" class="g6_217"/>
<path d="M196.9,143.2c0,.8,-.6,1.3,-1.3,1.3H183.4c-.8,0,-1.3,-.5,-1.3,-1.3c0,-.7,.5,-1.3,1.3,-1.3h12.2c.7,0,1.3,.6,1.3,1.3Z" class="g0_217"/>
<path d="M196.9,143.2c0,.8,-.6,1.3,-1.3,1.3H183.4c-.8,0,-1.3,-.5,-1.3,-1.3c0,-.7,.5,-1.3,1.3,-1.3h12.2c.7,0,1.3,.6,1.3,1.3Z" class="g6_217"/>
<path d="M196.9,145.8c0,.7,-.6,1.3,-1.3,1.3H183.4c-.8,0,-1.3,-.6,-1.3,-1.3c0,-.7,.5,-1.3,1.3,-1.3h12.2c.7,0,1.3,.6,1.3,1.3Z" class="g0_217"/>
<path d="M196.9,145.8c0,.7,-.6,1.3,-1.3,1.3H183.4c-.8,0,-1.3,-.6,-1.3,-1.3c0,-.7,.5,-1.3,1.3,-1.3h12.2c.7,0,1.3,.6,1.3,1.3Z" class="g6_217"/>
<path d="M215.5,128.7l8.3,10.4c.6,.7,1.8,.6,2.7,-.2c.9,-.7,1.2,-1.9,.7,-2.6l-8.9,-10.2Z" class="g7_217"/>
<path d="M215.5,128.7l8.3,10.4c.6,.7,1.8,.6,2.7,-.2c.9,-.7,1.2,-1.9,.7,-2.6l-8.9,-10.2l-2.8,2.6Z" class="g6_217"/>
<path d="M217.5,125.1c.5,.6,.3,1.8,-.7,2.6c-.9,.7,-2.1,.8,-2.6,.2c-.6,-.7,-.3,-1.9,.6,-2.6c.9,-.8,2.1,-.9,2.7,-.2Z" class="g8_217"/>
<path d="M217.5,125.1c.5,.6,.3,1.8,-.7,2.6c-.9,.7,-2.1,.8,-2.6,.2c-.6,-.7,-.3,-1.9,.6,-2.6c.9,-.8,2.1,-.9,2.7,-.2Z" class="g6_217"/>
<path d="M212.7,124.7l1.7,2c.3,.3,1,.3,1.5,-.1c.5,-.5,.7,-1.1,.4,-1.5l-1.7,-2Z" class="g0_217"/>
<path d="M212.7,124.7l1.7,2c.3,.3,1,.3,1.5,-.1c.5,-.5,.7,-1.1,.4,-1.5l-1.7,-2l-1.9,1.6Z" class="g9_217"/>
<path d="M214.8,122.9c.4,.5,.2,1.3,-.5,1.8c-.6,.5,-1.4,.6,-1.8,.1c-.4,-.4,-.2,-1.2,.5,-1.7c.6,-.6,1.4,-.6,1.8,-.2Z" class="g0_217"/>
<path d="M214.8,122.9c.4,.5,.2,1.3,-.5,1.8c-.6,.5,-1.4,.6,-1.8,.1c-.4,-.4,-.2,-1.2,.5,-1.7c.6,-.6,1.4,-.6,1.8,-.2Z" class="g9_217"/>
<path d="M216.4,105.4c4.8,5.7,4.1,14.2,-1.7,19c-5.7,4.8,-14.2,4,-19,-1.7c-4.8,-5.7,-4,-14.2,1.7,-19c5.7,-4.8,14.2,-4.1,19,1.7Z" class="g0_217"/>
<path d="M216.4,105.4c4.8,5.7,4.1,14.2,-1.7,19c-5.7,4.8,-14.2,4,-19,-1.7c-4.8,-5.7,-4,-14.2,1.7,-19c5.7,-4.8,14.2,-4.1,19,1.7Z" class="g6_217"/>
<path d="M214,107.4c3.5,4.2,3,10.5,-1.3,14.1c-4.2,3.5,-10.5,2.9,-14,-1.3c-3.5,-4.2,-3,-10.5,1.2,-14c4.2,-3.6,10.5,-3,14.1,1.2Z" class="ga_217"/>
<path d="M214,107.4c3.5,4.2,3,10.5,-1.3,14.1c-4.2,3.5,-10.5,2.9,-14,-1.3c-3.5,-4.2,-3,-10.5,1.2,-14c4.2,-3.6,10.5,-3,14.1,1.2Z" class="g6_217"/>
<path d="M213,110.6l-3.1,3m3.1,-.4l-3.1,3" class="gb_217"/>
<path d="M172.1,99l3.1,3.3m1.1,-5.9l1.2,3.9m-8.1,3l3.7,1.2" class="gc_217"/>
<path d="M185.8,106.1c1.2,1.2,.2,4.3,-2.2,6.7c-2.5,2.5,-5.5,3.5,-6.8,2.3c-1.2,-1.3,-.3,-4.3,2.2,-6.8c2.5,-2.5,5.5,-3.5,6.8,-2.2Z" class="g0_217"/>
<path d="M203.7,107.6c.6,.6,.1,1.9,-.9,3c-1.1,1,-2.4,1.5,-3,.9c-.5,-.5,-.1,-1.8,1,-2.9c1.1,-1.1,2.4,-1.5,2.9,-1Z" class="g0_217"/>
<path d="M32.1,45.1H9.2m958.3,0h22.9M32.1,1331.3H9.2m958.3,0h22.9M45.1,32.1V9.2m0,1335.1v22.9M954.5,32.1V9.2m0,1335.1v22.9" class="gd_217"/>
<path d="M32.1,45.1H9.2m958.3,0h22.9M32.1,1331.3H9.2m958.3,0h22.9M45.1,32.1V9.2m0,1335.1v22.9M954.5,32.1V9.2m0,1335.1v22.9" class="ge_217"/>
<path d="M27.5,32.1H0m972.1,0h27.5M27.5,1344.3H0m972.1,0h27.5M32.1,27.5V0m0,1348.9v27.5M967.5,27.5V0m0,1348.9v27.5" class="gd_217"/>
<path d="M27.5,32.1H0m972.1,0h27.5M27.5,1344.3H0m972.1,0h27.5M32.1,27.5V0m0,1348.9v27.5M967.5,27.5V0m0,1348.9v27.5" class="ge_217"/>
</svg>