<?xml version="1.0" encoding="UTF-8" standalone="no"?>
<!DOCTYPE svg PUBLIC "-//W3C//DTD SVG 1.1//EN"
"http://www.w3.org/Graphics/SVG/1.1/DTD/svg11.dtd">
<svg viewBox="0 0 999 1376" version="1.1" xmlns="http://www.w3.org/2000/svg" xmlns:xlink="http://www.w3.org/1999/xlink">
<defs>
<clipPath id="c0_48"><path d="M32.1,1344.3V32.1H967.5V1344.3Z"/></clipPath>
<clipPath id="c1_48"><path d="M130,267V209.8h55.5V267Z"/></clipPath>
<clipPath id="c2_48"><path d="M155.9,385.5V294.2h698v91.3Z"/></clipPath>
<clipPath id="c3_48"><path d="M181.5,467L175,465L160.9,453.8V392.9h62.7V467Z"/></clipPath>
<clipPath id="c4_48"><path d="M181.3,919.9l-6.4,-2.1L160.8,906.6V845.7h62.7v74.2Z"/></clipPath>
<style type="text/css"><![CDATA[
.g0_48{
fill: #FFFDEA;
}
.g1_48{
fill: #BCE4EA;
}
.g2_48{
fill: #BCBEC0;
}
.g3_48{
fill: #00AABD;
}
.g4_48{
fill: #FEF0DB;
}
.g5_48{
fill: #FDD095;
}
.g6_48{
fill: #F47A43;
}
.g7_48{
fill: #FFF;
}
.g8_48{
fill: none;
stroke: #231F20;
stroke-width: 1.527;
}
.g9_48{
fill: none;
stroke: #976EAF;
stroke-width: 1.145;
stroke-linecap: round;
stroke-linejoin: round;
stroke-dasharray: 4,2;
}
.ga_48{
fill: none;
stroke: #976EAF;
stroke-width: 1.145;
stroke-linecap: round;
stroke-linejoin: round;
stroke-dasharray: 4,3;
}
.gb_48{
fill: none;
stroke: #976EAF;
stroke-width: 1.145;
stroke-linecap: round;
stroke-linejoin: round;
}
.gc_48{
fill: #FCDCBA;
}
.gd_48{
fill: none;
stroke: #6D6F71;
stroke-width: 0.305;
stroke-miterlimit: 10;
}
.ge_48{
fill: none;
stroke: #FFF;
stroke-width: 1.909;
stroke-miterlimit: 10;
}
.gf_48{
fill: none;
stroke: #000;
stroke-width: 0.381;
stroke-miterlimit: 10;
}
]]></style>
</defs>
<g clip-path="url(#c0_48)">
<path d="M32.1,1344.3H1877V32.1H32.1V1344.3Z" class="g0_48"/>
<path d="M32.1,179.3H1877V32.1H32.1V179.3Z" class="g1_48"/>
<path d="M1877,177.2H32.1v-5.4H768.7c43.1,0,53,-37.9,115.3,-37.9h993Z" class="g2_48"/>
<path d="M1877,183.7H32.1v-9.8H768.7c43.1,0,53,-33.6,115.3,-33.6h993Z" class="g3_48"/>
</g>
<path d="M480.7,218.6c0,0,-8.6,0,-8.6,8.6v30.3c0,0,0,8.7,8.6,8.7H833c0,0,8.7,0,8.7,-8.7V227.2c0,0,0,-8.6,-8.7,-8.6Z" class="g4_48"/>
<path d="M160.5,218.6c0,0,-8.6,0,-8.6,8.6v30.3c0,0,0,8.7,8.6,8.7H731.6c0,0,8.6,0,8.6,-8.7V227.2c0,0,0,-8.6,-8.6,-8.6Z" class="g5_48"/>
<image clip-path="url(#c1_48)" preserveAspectRatio="none" x="130" y="210" width="55" height="57" xlink:href="img/1.png"/>
<path d="M154.8,211.5c12.7,0,23,10.7,23,23.8c0,13.1,-10.3,23.8,-23,23.8c-12.8,0,-23.1,-10.7,-23.1,-23.8c0,-13.1,10.3,-23.8,23.1,-23.8Z" class="g6_48"/>
<path d="M172,235.3c0,-9.8,-7.7,-17.7,-17.2,-17.7c-9.6,0,-17.3,7.9,-17.3,17.7c0,9.8,7.7,17.7,17.3,17.7c3.6,0,7,-1.1,9.7,-3.1l6.4,1.8L169.2,245c1.8,-2.8,2.8,-6.1,2.8,-9.7Z" class="g7_48"/>
<path d="M770.8,241.7c0,0,-.5,-10,8.3,-9.4c0,0,6.6,-.3,6.5,9.5m-14.9,-1.5v6.5c0,0,-3.2,.3,-3.8,-3c0,0,0,-3.8,3.8,-3.5Zm15,0v6.5c0,0,3.2,.3,3.7,-3c0,0,.1,-3.8,-3.7,-3.5Z" class="g8_48"/>
<image clip-path="url(#c2_48)" preserveAspectRatio="none" x="156" y="295" width="697" height="91" xlink:href="img/2.png"/>
<path d="M171.2,296.2c0,0,-13,0,-13,13v55.1c0,0,0,13,13,13H832.7c0,0,13,0,13,-13V309.2c0,0,0,-13,-13,-13Z" class="g7_48"/>
<path d="M167.7,296.7c-3.4,.9,-8.3,3.3,-9.3,9.9" class="g9_48"/>
<path d="M158.2,313v48.6" class="ga_48"/>
<path d="M158.8,367.9c.9,3.4,3.3,8.2,9.9,9.2" class="g9_48"/>
<path d="M175.3,377.3H829.8" class="ga_48"/>
<path d="M836.2,376.8c3.5,-.9,8.3,-3.3,9.3,-9.9" class="g9_48"/>
<path d="M845.7,360.5V311.9" class="ga_48"/>
<path d="M845.2,305.6c-.9,-3.4,-3.4,-8.2,-9.9,-9.2" class="g9_48"/>
<path d="M828.7,296.2H174.1" class="ga_48"/>
<path d="M158.3,307.6c0,.5,-.1,1,-.1,1.6v1.6m0,51.9v1.6c0,0,0,.6,.2,1.6m11.3,11.4c.5,0,1,0,1.5,0H173m658,0h1.7c0,0,.6,0,1.6,-.1m11.3,-11.3c.1,-.5,.1,-1,.1,-1.6v-1.6m0,-51.9v-1.6c0,0,0,-.6,-.2,-1.6M834.3,296.3c-.5,-.1,-1.1,-.1,-1.6,-.1H831m-658,0h-1.8c0,0,-.6,0,-1.5,.1" class="gb_48"/>
<path d="M214.1,422c0,0,-13,0,-13,13v21.7c0,0,0,13,13,13h619c0,0,13,0,13,-13V435c0,0,0,-13,-13,-13Z" class="gc_48"/>
<image clip-path="url(#c3_48)" preserveAspectRatio="none" x="161" y="392" width="63" height="77" xlink:href="img/3.png"/>
<path d="M208.9,462.3c0,0,-26.8,11.3,-51.1,-12.7c0,0,15.2,25.3,49.3,23.9c0,0,24.7,.4,20.2,-10.1c0,0,1.3,-4.5,-18.4,-1.1Z" class="gc_48"/>
<path d="M283.3,491.8h77.9v47.6H283.3V491.8Zm77.9,0h78v47.6h-78V491.8Zm216.6,0h77.9v47.6H577.8V491.8Zm77.9,0h78v47.6h-78V491.8ZM283.3,539.4h77.9v47.7H283.3V539.4Zm77.9,0h78v47.7h-78V539.4Zm216.6,0h77.9v47.7H577.8V539.4Zm77.9,0h78v47.7h-78V539.4ZM283.3,587.1h77.9v47.6H283.3V587.1Zm77.9,0h78v47.6h-78V587.1Zm216.6,0h77.9v47.6H577.8V587.1Zm77.9,0h78v47.6h-78V587.1ZM283.3,634.7h77.9v47.7H283.3V634.7Zm77.9,0h78v47.7h-78V634.7Zm216.6,0h77.9v47.7H577.8V634.7Zm77.9,0h78v47.7h-78V634.7ZM283.3,682.4h77.9V730H283.3V682.4Zm77.9,0h78V730h-78V682.4Zm216.6,0h77.9V730H577.8V682.4Zm77.9,0h78V730h-78V682.4Z" class="g7_48"/>
<path d="M283.3,539.3V492m77.9,47.3V492m78,47.3V492m138.6,47.3V492m77.9,47.3V492m78,47.3V492M283.1,539.4h78.1m-77.9,47.5V539.6m77.9,-.2h78.1m-78.1,47.5V539.6m78,47.3V539.6m138.4,-.2h78.1m-77.9,47.5V539.6m77.9,-.2h78.1m-78.1,47.5V539.6m78,47.3V539.6M283.1,587.1h78.1m-77.9,47.5V587.2m77.9,-.1h78.1m-78.1,47.5V587.2m78,47.4V587.2m138.4,-.1h78.1m-77.9,47.5V587.2m77.9,-.1h78.1m-78.1,47.5V587.2m78,47.4V587.2M283.1,634.7h78.1m-77.9,47.5V634.9m77.9,-.2h78.1m-78.1,47.5V634.9m78,47.3V634.9m138.4,-.2h78.1m-77.9,47.5V634.9m77.9,-.2h78.1m-78.1,47.5V634.9m78,47.3V634.9M283.1,682.4h78.1m-77.9,47.4V682.5m77.9,-.1h78.1m-78.1,47.4V682.5m78,47.3V682.5m138.4,-.1h78.1m-77.9,47.4V682.5m77.9,-.1h78.1m-78.1,47.4V682.5m78,47.3V682.5M283.1,730h78.1m0,0h78m0,0H577.8m0,0h77.9m0,0h78.1M283.1,491.8h78.1m0,0h78m138.6,0h77.9m0,0h78.1m-294.6,0H577.8" class="gd_48"/>
<path d="M214,874.9c0,0,-13,0,-13,13v21.6c0,0,0,13,13,13H833c0,0,13,0,13,-13V887.9c0,0,0,-13,-13,-13Z" class="gc_48"/>
<image clip-path="url(#c4_48)" preserveAspectRatio="none" x="161" y="845" width="63" height="76" xlink:href="img/4.png"/>
<path d="M208.8,915.1c0,0,-26.9,11.3,-51.1,-12.7c0,0,15.1,25.3,49.3,23.9c0,0,24.7,.4,20.2,-10.1c0,0,1.2,-4.4,-18.4,-1.1Z" class="gc_48"/>
<path d="M32.1,45.1H9.2m958.3,0h22.9M32.1,1331.3H9.2m958.3,0h22.9M45.1,32.1V9.2m0,1335.1v22.9M954.5,32.1V9.2m0,1335.1v22.9" class="ge_48"/>
<path d="M32.1,45.1H9.2m958.3,0h22.9M32.1,1331.3H9.2m958.3,0h22.9M45.1,32.1V9.2m0,1335.1v22.9M954.5,32.1V9.2m0,1335.1v22.9" class="gf_48"/>
<path d="M27.5,32.1H0m972.1,0h27.5M27.5,1344.3H0m972.1,0h27.5M32.1,27.5V0m0,1348.9v27.5M967.5,27.5V0m0,1348.9v27.5" class="ge_48"/>
<path d="M27.5,32.1H0m972.1,0h27.5M27.5,1344.3H0m972.1,0h27.5M32.1,27.5V0m0,1348.9v27.5M967.5,27.5V0m0,1348.9v27.5" class="gf_48"/>
</svg>