<?xml version="1.0" encoding="UTF-8" standalone="no"?>
<!DOCTYPE svg PUBLIC "-//W3C//DTD SVG 1.1//EN"
"http://www.w3.org/Graphics/SVG/1.1/DTD/svg11.dtd">
<svg viewBox="0 0 999 1376" version="1.1" xmlns="http://www.w3.org/2000/svg" xmlns:xlink="http://www.w3.org/1999/xlink">
<defs>
<clipPath id="c0_361"><path d="M153.3,1246V133H867.9V1246Z"/></clipPath>
<clipPath id="c1_361"><path d="M185.7,842V501.5H841.3V842Z"/></clipPath>
<clipPath id="c2_361"><path d="M272.2,618.3V583.1H318v35.2Z"/></clipPath>
<clipPath id="c3_361"><path d="M452.7,618.3V583.1h45.9v35.2Z"/></clipPath>
<clipPath id="c4_361"><path d="M740.3,596.7V575.3h32.1v21.4Z"/></clipPath>
<clipPath id="c5_361"><path d="M783.9,596.7V575.3h30.5v21.4Z"/></clipPath>
<clipPath id="c6_361"><path d="M304.8,672.1V650.7h32.1v21.4Z"/></clipPath>
<clipPath id="c7_361"><path d="M768.8,672.1V650.7h33.6v21.4Z"/></clipPath>
<clipPath id="c8_361"><path d="M458.7,672.1V650.7h32.1v21.4Z"/></clipPath>
<clipPath id="c9_361"><path d="M304.8,701.5V680.1h32.1v21.4Z"/></clipPath>
<clipPath id="ca_361"><path d="M768.8,701.5V680.1h33.6v21.4Z"/></clipPath>
<clipPath id="cb_361"><path d="M458.7,701.5V680.1h32.1v21.4Z"/></clipPath>
<clipPath id="cc_361"><path d="M304.8,731V709.6h32.1V731Z"/></clipPath>
<clipPath id="cd_361"><path d="M768.8,731V709.6h33.6V731Z"/></clipPath>
<clipPath id="ce_361"><path d="M458.7,779.9V758.5h32.1v21.4Z"/></clipPath>
<clipPath id="cf_361"><path d="M304.8,762.6V741.2h32.1v21.4Z"/></clipPath>
<clipPath id="cg_361"><path d="M458.7,731V709.6h32.1V731Z"/></clipPath>
<clipPath id="ch_361"><path d="M615.5,672.1V650.7h33.6v21.4Z"/></clipPath>
<clipPath id="ci_361"><path d="M615.5,719.3V697.9h33.6v21.4Z"/></clipPath>
<clipPath id="cj_361"><path d="M615.5,765.6V744.2h33.6v21.4Z"/></clipPath>
<clipPath id="ck_361"><path d="M304.8,808.9V787.5h32.1v21.4Z"/></clipPath>
<clipPath id="cl_361"><path d="M458.7,808.9V787.5h33.7v21.4Z"/></clipPath>
<clipPath id="cm_361"><path d="M615.5,808.9V787.5h33.6v21.4Z"/></clipPath>
<clipPath id="cn_361"><path d="M740.3,623.1V601.7h32.1v21.4Z"/></clipPath>
<clipPath id="co_361"><path d="M783.9,623.1V601.7h30.5v21.4Z"/></clipPath>
<clipPath id="cp_361"><path d="M312,618.3V583.1h45.8v35.2Z"/></clipPath>
<clipPath id="cq_361"><path d="M492.6,618.3V583.1h45.8v35.2Z"/></clipPath>
<clipPath id="cr_361"><path d="M351.8,618.3V583.1h45.9v35.2Z"/></clipPath>
<clipPath id="cs_361"><path d="M532.4,618.3V583.1h45.9v35.2Z"/></clipPath>
<clipPath id="ct_361"><path d="M391.7,618.3V583.1h45.8v35.2Z"/></clipPath>
<clipPath id="cu_361"><path d="M572.3,618.3V583.1h45.8v35.2Z"/></clipPath>
<clipPath id="cv_361"><path d="M201.1,634.9v-71h60.2v71Z"/></clipPath>
<clipPath id="cw_361"><path d="M226,629.5c-3.6,0,-6.8,-.1,-9.5,-.3q-.1,0,-.1,0c0,0,-.1,0,-.2,0c-2.6,-.2,-4.8,-.5,-6.4,-.9c0,0,-.1,0,-.1,0q-.1,0,-.1,0c0,0,0,-.1,0,-.1q-.1,0,-.1,0h-.1c0,0,-.1,0,-.1,0h-.1q0,-.1,0,-.1c0,0,-.1,0,-.1,0c0,0,-.1,0,-.1,0q-.1,0,-.1,0c0,0,-.1,0,-.1,-.1q-.1,0,-.1,0c0,0,-.1,0,-.1,0c-.5,-.2,-.9,-.4,-1.2,-.6q-.1,0,-.1,0l-.1,-.1q-.1,0,-.1,0q0,-.1,0,-.1q-.1,0,-.1,0v-.1c0,0,-.1,0,-.1,0c0,0,0,-.1,0,-.1v-.1h-.1q0,-.1,0,-.1q0,-.1,0,-.1c0,-.1,0,-.3,.1,-.4c0,0,0,-.1,0,-.1q.1,0,.1,0c1.1,-1.4,7,-2.8,15.2,-3.7c.5,-.1,1,-.1,1.5,-.2c.2,1,.7,1.9,1.5,2.6c.7,.8,1.8,1.3,3.1,1.3h.3l18.8,-1.6c.6,-.1,1.1,-.2,1.5,-.4c.3,-.1,.7,-.3,.9,-.6c0,-.1,.1,-.2,.1,-.2q.1,-.1,.1,-.2c0,0,.1,0,.1,0c.4,-.3,.9,-.8,1.6,-1.5c3.6,.3,6.4,.7,8,1.3q.1,0,.2,0c0,0,0,.1,0,.1q.1,0,.1,0c0,0,.1,0,.1,0c0,0,0,.1,0,.1h.1q.1,0,.1,0c0,0,.1,.1,.1,.1q.1,0,.2,.1c.4,.2,.6,.4,.7,.6v.4c-.7,1.9,-10.6,3.9,-23.3,4.7q-.1,0,-.1,0c0,0,-.1,0,-.1,0q-.1,0,-.2,.1q-.1,0,-.1,0q-.1,0,-.1,0c0,0,-.1,0,-.1,0h-.2q-.1,0,-.1,0q-.1,0,-.1,0q-.1,0,-.1,0c0,0,-.1,0,-.1,0h-.2q-.1,0,-.1,0q-.1,0,-.1,0c0,0,-.1,0,-.1,0H236q-.1,.1,-.1,.1q-.1,0,-.1,0q-.1,0,-.1,0h-.2q-.1,0,-.2,0c0,0,-.1,0,-.1,0c0,0,-.1,0,-.1,0c0,0,-.1,0,-.1,0q-.1,0,-.2,0h-.1q-.1,0,-.2,0q-.1,0,-.2,0c-2.9,.2,-5.7,.2,-8.3,.2Z"/></clipPath>
<clipPath id="cx_361"><path d="M228.2,626.2c-1.2,0,-2.3,-.5,-3,-1.3h-.1v-.1q-.1,0,-.1,0c0,0,0,-.1,0,-.1q-.1,0,-.1,0c0,0,0,-.1,0,-.1q-.1,0,-.1,0q0,-.1,0,-.1c0,0,-.1,-.1,-.1,-.1c0,0,-.1,-.1,-.1,-.2h-.1c0,0,0,-.1,0,-.1V624c0,0,-.1,0,-.1,0c0,0,0,-.1,0,-.1q-.1,0,-.1,0q0,-.1,0,-.1c-.3,-.5,-.5,-1,-.6,-1.5c0,-.1,-.1,-.1,-.1,-.2c-.1,-.4,-13.7,-45.3,-13.7,-45.3c-.3,-.9,-.4,-1.5,-.4,-2.1c0,-.2,0,-.3,0,-.4c.1,-.4,.2,-.8,.4,-1c0,0,0,-.1,0,-.1l.1,-.1c0,-.1,.1,-.1,.2,-.2c0,0,-.1,.1,-.1,.1c-.2,.3,-.3,.6,-.3,1c-.1,.6,0,1.4,.3,2.5c0,0,13.7,44.9,13.8,45.3c.2,1,.7,2,1.5,2.8c.8,.8,1.8,1.3,3.1,1.3h.4l18.8,-1.6c.6,-.1,1,-.2,1.4,-.4c.3,-.1,.6,-.3,.8,-.5v.1h-.1q0,.1,0,.1c-.2,.3,-.6,.5,-.9,.6c-.4,.2,-.9,.3,-1.5,.4l-18.8,1.6h-.4Z"/></clipPath>
<clipPath id="cy_361"><path d="M228.5,625.9c-.4,0,-.8,0,-1.1,-.1c-.8,-.3,-1.5,-.7,-2,-1.2c-.8,-.8,-1.3,-1.8,-1.5,-2.8c-.1,-.4,-13.8,-45.3,-13.8,-45.3c-.3,-.9,-.4,-1.5,-.4,-2.1c0,-.1,0,-.3,.1,-.4c0,-.4,.1,-.7,.3,-1v-.1c.1,-.1,.2,-.1,.2,-.2q.1,-.1,.2,-.1c-.3,.3,-.5,.8,-.5,1.5c0,.6,.2,1.3,.5,2.2v.1c0,.2,1.6,5.5,3.7,12.5v-.1l6.2,20.3v.1c2.1,7.1,3.8,12.4,3.8,12.5c.5,1.9,2,3.8,4.4,3.8c.1,0,.2,0,.3,0l18.8,-1.6c1.1,-.2,1.6,-.2,2.4,-.7c0,0,-.1,0,-.1,0q0,.1,-.1,.2q-.1,.1,-.2,.2c-.2,.1,-.4,.2,-.6,.3c-.4,.2,-.8,.3,-1.4,.4l-18.8,1.6h-.3Z"/></clipPath>
<clipPath id="cz_361"><path d="M228.9,625.5l3.9,-.3c.5,-.7,.8,-1.2,1.2,-1.8l9.2,-.7l-1.6,1.7l6.1,-.5l-18.8,1.6Zm-2.6,-.7c-1.1,-.7,-1.8,-2,-2.1,-3.1c.3,1.1,1,2.4,2.1,3.1Zm-5.9,-15.7l-6.2,-20.3l1.3,-2.3l6.1,20.3l-1.2,2.3Zm-9.9,-32.8c0,0,-.1,0,-.1,0c0,0,.1,0,.1,0Z"/></clipPath>
<clipPath id="c10_361"><path d="M224.2,621.7c0,-.2,-1.8,-5.4,-3.8,-12.5v-.1l3.8,12.6Z"/></clipPath>
<clipPath id="c11_361"><path d="M228.5,625.5c-.3,0,-.6,0,-.8,-.1q-.1,0,-.1,0q-.1,0,-.1,0q-.1,0,-.1,0h-.1v-.1h-.1c-1.6,-.5,-2.6,-2.1,-3,-3.6l-3.8,-12.6l1.2,-2.3l4.1,13.5c.8,2.7,3.1,3.4,4.6,3.4c.1,0,.2,0,.3,0l3.4,-.3c-.2,.3,-.4,.6,-.6,.8c-.2,.3,-.4,.6,-.6,1l-3.9,.3c0,0,-.1,0,-.1,0c-.1,0,-.2,0,-.2,0Z"/></clipPath>
<clipPath id="c12_361"><path d="M214.2,588.9c-.2,-.6,-.3,-1.1,-.5,-1.6c-1.9,-6.3,-3.2,-11,-3.2,-11l3.7,12.5v.1Z"/></clipPath>
<clipPath id="c13_361"><path d="M214.2,588.8l-3.7,-12.5c0,0,-.1,0,-.1,0c0,0,0,-.1,0,-.1c-.3,-1.1,-.4,-1.9,-.3,-2.5q0,-.1,0,-.1c0,-.4,.2,-.8,.4,-1q0,-.1,.1,-.2l.1,-.1l1.1,-1.4c0,.1,-.1,.1,-.1,.1c-.2,.4,-.3,.8,-.3,1.2v.1c0,.3,.1,.7,.2,1.1l3.9,13.1l-1.3,2.3Z"/></clipPath>
<clipPath id="c14_361"><path d="M241.6,624.4l1.6,-1.7l7.2,-.7c.6,0,1.2,-.3,1.6,-.7c.1,0,.1,-.1,.1,-.1c-.1,.1,-.2,.3,-.3,.4c0,0,-.1,0,-.1,.1c-.7,.7,-1.2,1.2,-1.6,1.5c-.8,.5,-1.3,.5,-2.4,.7l-6.1,.5Z"/></clipPath>
<clipPath id="c15_361"><path d="M234,623.4c0,-.1,.1,-.2,.2,-.3l9.3,-.8l-.3,.4l-9.2,.7ZM221.6,606.8l-3.3,-10.9l-2.8,-9.4l.2,-.3l6.1,20.3l-.2,.3Z"/></clipPath>
<clipPath id="c16_361"><path d="M230.3,623.7c0,0,-.1,0,-.3,0c-1.5,-.1,-3.6,-.9,-4.3,-3.4l-4.1,-13.5l.2,-.3l3.9,13.1c.9,2.9,3.1,3.8,4.8,3.8c.1,0,.3,0,.4,0l3.3,-.3c-.1,.1,-.2,.2,-.2,.3l-3.4,.3c-.1,0,-.2,0,-.3,0Z"/></clipPath>
<clipPath id="c17_361"><path d="M215.5,586.5l-3.9,-13.1v-.1h-.1v-.2q0,-.1,0,-.1v-.1h-.1c0,0,0,-.1,0,-.1c-.1,-.8,.1,-1.3,.3,-1.8c-.2,.6,-.2,1.3,.1,2.1l3.9,13.1l-.2,.3Z"/></clipPath>
<clipPath id="c18_361"><path d="M243.2,622.7l.3,-.4l7,-.5c.5,-.1,1.1,-.2,1.5,-.5c-.1,.2,-.3,.3,-.5,.4h-.1c0,0,0,.1,0,.1c0,0,-.1,0,-.1,0c-.3,.1,-.6,.2,-.9,.2l-7.2,.7Z"/></clipPath>
<clipPath id="c19_361"><path d="M236.3,624.6c-.1,0,-.2,0,-.1,-.1l5.4,-.5c.2,0,.4,0,.5,-.2l.8,-.7v.1l-.8,.8c-.1,0,-.2,.1,-.4,.1l-5.3,.5c0,0,-.1,0,-.1,0Z"/></clipPath>
<clipPath id="c1a_361"><path d="M226,613.8c-.1,0,-.2,-.1,-.2,-.2c0,0,-.1,0,-.1,-.1l-1.3,-4.6l2.4,-30.5l11.3,-.3l.3,.2L249.3,612l-.2,.2l-23,1.6c0,0,-.1,0,-.1,0Z"/></clipPath>
<clipPath id="c1b_361"><path d="M230.4,622.9c.1,0,.2,0,.3,0l19.8,-1.6c1.2,-.1,2.7,-1.1,1.9,-3.7L237.5,572.8c-.7,-2.3,-2.7,-3,-3.9,-3l-19.1,.1c-1.3,0,-3,.8,-2.2,3.2l14,46.5c.8,2.6,2.8,3.3,4.1,3.3Zm.1,.3c-1.6,0,-3.7,-.9,-4.5,-3.7L212,573.2c-.8,-2.6,1,-3.6,2.5,-3.6h18.9c1.6,0,3.6,.8,4.4,3.3l14.8,44.6c.9,2.7,-.5,3.9,-2.1,4.1l-19.7,1.6h-.3Z"/></clipPath>
<clipPath id="c1c_361"><path d="M230.4,622.7h.2l19.8,-1.6c.9,-.1,2.1,-.7,2.1,-2.2c0,-.4,-.1,-.8,-.3,-1.3L237.4,572.8c-.8,-2.2,-2.7,-2.9,-3.8,-2.9l-19.1,.1c-.9,0,-2.3,.6,-2.2,2.1c0,.3,0,.6,.1,1l14,46.5c.8,2.5,2.7,3.1,4,3.1Zm0,.2c-1.3,0,-3.3,-.7,-4.1,-3.3l-14,-46.5c-.1,-.4,-.2,-.8,-.2,-1.1c0,-1.6,1.3,-2.1,2.4,-2.1l19.1,-.1c1.2,0,3.2,.7,3.9,3l14.9,44.8c.1,.5,.2,1,.2,1.4c0,1.6,-1.1,2.2,-2.1,2.3l-19.8,1.6c-.1,0,-.2,0,-.3,0Z"/></clipPath>
<clipPath id="c1d_361"><path d="M230.5,623.2h.3l19.7,-1.6c1.3,-.1,2.4,-.9,2.4,-2.6c0,-.4,-.1,-.9,-.3,-1.5L237.8,572.9c-.4,-1.4,-1.3,-2.3,-2.3,-2.8c-.7,-.4,-1.4,-.5,-2.1,-.5H214.5c-1.2,0,-2.7,.7,-2.7,2.4c0,.3,.1,.7,.2,1.2l14,46.3c.8,2.8,2.9,3.7,4.5,3.7Zm0,.2c-.7,0,-1.4,-.1,-2.1,-.4c-1.1,-.6,-2.2,-1.6,-2.7,-3.4L211.8,573.1c-.3,-.9,-.3,-1.5,-.1,-2.1c0,0,.1,0,.1,-.1c.3,-.9,1.3,-1.3,2.2,-1.4h.4l18.9,-.1h.1c1.6,0,3.7,.8,4.6,3.4l14.8,44.6q0,.1,0,.1q.1,0,.1,0c.1,.5,.2,.9,.2,1.2q0,.1,0,.1q0,.1,0,.1c0,0,0,.1,0,.1c.1,1,-.3,1.6,-.8,2.1c-.1,0,-.1,.1,-.2,.1q0,.1,-.1,.1h-.1q0,.1,0,.1c-.2,.1,-.4,.1,-.6,.2h-.1c0,0,-.1,0,-.1,.1c-.2,0,-.3,0,-.5,0c-.1,0,-.1,.1,-.1,.1l-19.6,1.6c-.2,0,-.3,0,-.4,0Z"/></clipPath>
<clipPath id="c1e_361"><path d="M224.2,611.3L212.8,573.4c-.2,-.5,-.2,-.8,-.2,-1.2c0,-1.5,1.3,-2,2.3,-2h12.6l-.7,8.2l-11.2,.2c-.1,0,-.2,.1,-.2,.2l9,30.1l-.2,2.4Z"/></clipPath>
<clipPath id="c1f_361"><path d="M224.4,608.9l-9,-30.1c0,-.1,.1,-.2,.2,-.2l11.2,-.2l-2.4,30.5Z"/></clipPath>
<clipPath id="c1g_361"><path d="M223.1,574.6c-.3,0,-.6,-.2,-.7,-.5l-.1,-.2c0,-.2,.2,-.4,.4,-.4l5.2,-.1l.1,.1c.2,0,.4,.2,.5,.3l.1,.1v.3c0,.2,-.1,.3,-.3,.3l-5.2,.1Z"/></clipPath>
<clipPath id="c1h_361"><path d="M223.1,574.6c-.3,0,-.6,-.2,-.7,-.5c-.1,-.4,0,-.6,.3,-.6l5.2,-.1c.3,0,.6,.3,.7,.6c.1,.3,-.1,.5,-.3,.5l-5.2,.1Z"/></clipPath>
<style type="text/css"><![CDATA[
.g0_361{
fill: #FFF;
}
.g1_361{
fill: none;
stroke: #231F20;
stroke-width: 0.756;
stroke-miterlimit: 3;
}
.g2_361{
fill: #DED1C4;
}
.g3_361{
fill: none;
stroke: #231F20;
stroke-width: 0.763;
stroke-miterlimit: 10;
}
.g4_361{
fill: none;
stroke: #231F20;
stroke-width: 0.458;
stroke-miterlimit: 10;
}
.g5_361{
fill: #EAF6FD;
}
.g6_361{
fill: #C3E7EF;
}
.g7_361{
fill: #E2F4FC;
}
.g8_361{
fill: #1C2226;
}
.g9_361{
fill: #09090E;
}
.ga_361{
fill: #67686B;
}
.gb_361{
fill: #25408F;
}
.gc_361{
fill: #6381B7;
}
.gd_361{
fill: #FFDE2C;
}
.ge_361{
fill: none;
stroke: #231F20;
stroke-width: 1.451;
stroke-miterlimit: 10;
}
.gf_361{
fill: #D2D3D5;
}
.gg_361{
fill: #A8AAAD;
}
.gh_361{
fill: none;
stroke: #231F20;
stroke-width: 0.828;
stroke-miterlimit: 10;
}
.gi_361{
fill: #6CCFF6;
}
.gj_361{
fill: none;
stroke: #231F20;
stroke-width: 0.828;
stroke-linecap: round;
stroke-linejoin: round;
}
.gk_361{
fill: none;
stroke: #231F20;
stroke-width: 1.451;
stroke-linecap: round;
stroke-linejoin: round;
}
.gl_361{
fill: none;
stroke: #FFF;
stroke-width: 1.909;
stroke-miterlimit: 10;
}
.gm_361{
fill: none;
stroke: #000;
stroke-width: 0.381;
stroke-miterlimit: 10;
}
]]></style>
</defs>
<path d="M153.3,1246H867.9V133H153.3V1246Z" class="g0_361"/>
<image clip-path="url(#c0_361)" preserveAspectRatio="none" x="151" y="131" width="719" height="1117" xlink:href="img/1.jpg"/>
<path d="M362.4,205.5h-2.2v-5.6c-1.2,.6,-2.4,1.1,-3.7,1.4c-1.2,.3,-2.7,.5,-4.4,.5h-9.8V200H349v-4.3c-1.7,-.2,-3.1,-.9,-4.1,-2c-1,-1.1,-1.5,-2.5,-1.5,-4.2c0,-.9,.1,-1.8,.5,-2.6c.3,-.7,.7,-1.4,1.3,-1.9c.6,-.6,1.3,-1,2.1,-1.3c.8,-.3,1.7,-.5,2.7,-.5c.9,0,1.8,.2,2.6,.5c.8,.3,1.5,.7,2.1,1.3c.6,.5,1,1.2,1.3,1.9c.4,.8,.5,1.7,.5,2.6c0,1.7,-.5,3.1,-1.4,4.2c-1,1.1,-2.3,1.7,-3.9,2V200h.9c1.4,0,2.8,-.1,4.1,-.4c1.3,-.3,2.6,-.9,4,-1.8V183h2.2v22.5Zm-9.3,-19.2c-.8,-.8,-1.9,-1.2,-3.1,-1.2c-1.3,0,-2.3,.4,-3.1,1.2c-.8,.8,-1.3,1.8,-1.3,3.2c0,1.5,.5,2.6,1.3,3.3c.8,.7,1.8,1.1,3.1,1.1c1.2,0,2.3,-.4,3.1,-1.1c.8,-.7,1.2,-1.8,1.2,-3.3c0,-1.4,-.4,-2.4,-1.2,-3.2Zm33.5,7.7H376.5v4.3h4.9c.8,0,1.4,.2,1.7,.6c.3,.3,.4,.9,.4,1.6l-.3,6.9h-2v-6.5c0,-.3,0,-.5,-.1,-.6c-.2,-.2,-.3,-.2,-.6,-.2H367.7v-1.8h6.5V194h-8.9v-1.8h15.1c.3,-1.1,.5,-2.3,.6,-3.5c.2,-1.3,.2,-2.4,.2,-3.5c0,-.3,-.1,-.5,-.2,-.6c-.1,-.1,-.3,-.2,-.6,-.2H368.1v-1.8h13c.8,0,1.4,.2,1.7,.5c.4,.3,.6,.8,.6,1.5c.1,1.1,0,2.4,-.2,3.7c-.2,1.4,-.4,2.7,-.6,3.9h4V194Zm21.7,5.6H406V182.7h2.3v16.9Zm-12.9,7.5c-.9,0,-1.5,-.2,-1.9,-.5c-.3,-.4,-.5,-.9,-.5,-1.6v-6.7h2.2v6.2c0,.3,.1,.5,.2,.6c.1,.1,.3,.2,.7,.2h7.1c1,0,2,-.1,2.8,-.2c.9,-.1,1.8,-.3,2.7,-.6l.5,1.7c-1.1,.3,-2.1,.6,-3,.7c-.9,.1,-1.9,.2,-3,.2h-7.8Zm5.5,-15.7c-.4,.8,-.8,1.4,-1.4,2c-.6,.5,-1.3,.9,-2,1.3c-.8,.3,-1.6,.4,-2.5,.4c-1,0,-1.9,-.2,-2.6,-.5c-.8,-.3,-1.5,-.8,-2.1,-1.3c-.5,-.6,-.9,-1.2,-1.2,-1.9c-.3,-.8,-.5,-1.6,-.5,-2.4c0,-.8,.2,-1.6,.5,-2.3c.3,-.8,.8,-1.4,1.3,-2c.6,-.5,1.3,-.9,2,-1.3c.8,-.3,1.7,-.5,2.6,-.5c.9,0,1.8,.2,2.5,.6c.8,.3,1.5,.7,2,1.3c.6,.5,1.1,1.2,1.4,1.9c.3,.8,.4,1.5,.4,2.3c0,.9,-.1,1.7,-.4,2.4ZM398,186c-.8,-.8,-1.8,-1.2,-3,-1.2c-1.3,0,-2.3,.4,-3,1.2c-.8,.9,-1.1,1.9,-1.1,3c0,1.2,.3,2.2,1.1,3c.7,.9,1.7,1.3,3,1.3c1.2,0,2.2,-.4,3,-1.3c.7,-.8,1.1,-1.8,1.1,-3c0,-1.1,-.4,-2.1,-1.1,-3Zm41.7,9.1H418.4v-1.8h15.1c.1,-.6,.2,-1.2,.3,-1.9c.1,-.7,.2,-1.3,.3,-2c.1,-.7,.1,-1.4,.2,-2.1c0,-.6,0,-1.3,0,-1.9c0,-.2,0,-.4,-.1,-.5c-.2,-.1,-.4,-.2,-.6,-.2H421.3v-1.8h12.9c.8,0,1.4,.2,1.8,.5c.3,.3,.5,.8,.6,1.5c0,.6,-.1,1.2,-.1,1.9c-.1,.7,-.1,1.5,-.2,2.2c-.1,.7,-.2,1.5,-.3,2.2c-.1,.8,-.3,1.4,-.4,2.1h4.1v1.8Zm-16.2,12c-.8,0,-1.4,-.2,-1.8,-.5c-.4,-.4,-.6,-.9,-.6,-1.6v-6.4h2.3v5.9c0,.3,0,.5,.1,.6c.1,.1,.3,.2,.7,.2h7.1c1.1,0,2,-.1,2.9,-.2c.8,-.1,1.7,-.3,2.7,-.6l.4,1.7c-1,.3,-2,.6,-2.9,.7c-1,.1,-2,.2,-3,.2h-7.9Zm22.9,-13.4c0,.3,.1,.5,.2,.7c.1,.1,.3,.2,.6,.2h5.5c1.1,0,2.3,0,3.4,-.1c1.1,-.1,2.4,-.3,3.7,-.7l.4,1.8c-.7,.2,-1.4,.3,-2,.4c-.5,.1,-1.1,.2,-1.7,.3c-.5,.1,-1.1,.1,-1.7,.1c-.5,0,-1.2,0,-1.8,0v4.3h9.7v1.8H441.3v-1.8h9.5v-4.3H447c-.9,0,-1.6,-.2,-2.1,-.5c-.5,-.4,-.7,-1.1,-.7,-1.9v-4.9h12.7v-3.6H444.2v-1.8h15v6.6c-.7,.2,-1.3,.4,-1.9,.5c-.6,.1,-1.2,.2,-1.8,.2h-9.1v2.7Zm17.8,4.9c1.2,-.8,2.3,-1.7,3.4,-2.7c1.1,-1,2,-2,2.8,-3.1c.9,-1,1.6,-2.1,2.1,-3.2c.6,-1.1,.9,-2.1,1.1,-3.2c0,-.2,0,-.4,-.1,-.5c-.1,-.1,-.3,-.1,-.5,-.1h-8V184h9.1c.9,0,1.4,.2,1.6,.8c.2,.5,.2,1.1,.2,1.7c-.2,1,-.5,2,-.9,3.1c-.5,1,-1,2,-1.7,3c.5,.2,1,.4,1.3,.7c.4,.3,.8,.6,1.1,1c.5,.7,1,1.6,1.6,2.4c.6,.9,1.1,1.7,1.6,2.5l-1.7,1.2c-.6,-.9,-1.2,-1.8,-1.7,-2.7c-.6,-.9,-1.1,-1.6,-1.5,-2.1c-.2,-.3,-.5,-.6,-.8,-.8c-.2,-.2,-.6,-.4,-1.1,-.6c-.9,1.1,-1.9,2.2,-3.1,3.3c-1.1,1,-2.3,2,-3.6,2.9l-1.2,-1.8Zm23.9,-4.9h-4.3v11.8h-2.3V183h2.3v8.9h4.3v1.8Zm5.7,13.7c-.6,0,-1.1,-.2,-1.3,-.4c-.3,-.3,-.4,-.7,-.4,-1.2v-4.3h13.4v-2.2H492.1v-1.8h14.1c.7,0,1.1,.2,1.3,.5c.2,.2,.3,.7,.3,1.2l-.4,3.3c0,.3,-.1,.5,-.3,.6c-.2,.1,-.4,.2,-.7,.2h-12v2.3h7.8c.8,0,1.7,0,2.8,-.1c1,-.1,2,-.3,3,-.7l.4,1.8c-.9,.3,-1.9,.5,-2.9,.6c-1.1,.1,-2.1,.2,-3.2,.2h-8.5Zm16.8,-11.8H489.2v-1.8h21.4v1.8Zm-16.1,-6.3c0,.2,.1,.4,.2,.5c.1,.2,.3,.2,.6,.2h5.1c1.2,0,2.4,0,3.6,-.1c1.2,-.1,2.5,-.3,3.7,-.6l.4,1.6c-1.3,.3,-2.5,.5,-3.7,.7c-1.3,.1,-2.6,.2,-4,.2H495c-.9,0,-1.6,-.2,-2,-.5c-.5,-.3,-.7,-.9,-.7,-1.8v-3.3h12.6v-1.9H492.3v-1.8h14.9v4.8c-.5,.2,-1.1,.4,-1.8,.5c-.7,.1,-1.4,.2,-2,.2h-8.9v1.3Zm39,.9c-.4,.7,-.8,1.3,-1.4,1.7c-.5,.5,-1.2,.9,-2,1.1c-.7,.3,-1.5,.4,-2.4,.4c-.8,0,-1.6,-.1,-2.4,-.4c-.8,-.2,-1.4,-.6,-2,-1.1c-.5,-.4,-1,-1,-1.3,-1.7c-.3,-.7,-.5,-1.4,-.5,-2.3c0,-.9,.2,-1.7,.5,-2.3c.3,-.7,.8,-1.3,1.3,-1.8c.6,-.4,1.2,-.8,2,-1.1c.8,-.2,1.6,-.3,2.4,-.3c.9,0,1.7,.1,2.4,.3c.8,.3,1.5,.7,2,1.1c.6,.5,1,1.1,1.4,1.8c.3,.6,.4,1.4,.4,2.3c0,.9,-.1,1.6,-.4,2.3Zm-6.6,15v-7h-7.2v-1.9h11.1c1.4,0,2.6,-.1,3.8,-.3c1.2,-.2,2.2,-.6,3.2,-1.1V183h2.3v22.5h-2.3v-8.6c-1,.4,-2.1,.8,-3.3,1c-1.3,.2,-2.5,.3,-3.7,.3h-1.6v7h-2.3Zm3.7,-19.9c-.7,-.7,-1.6,-1.1,-2.9,-1.1c-1.2,0,-2.2,.4,-2.9,1.1c-.7,.7,-1,1.6,-1,2.6c0,1.2,.3,2.1,1,2.7c.7,.7,1.7,1,2.9,1c1.3,0,2.2,-.4,2.9,-1.1c.7,-.7,1.1,-1.6,1.1,-2.6c0,-1,-.4,-1.9,-1.1,-2.6Zm24.8,9.4c-.3,.5,-.7,1.1,-1.3,1.5c-.5,.4,-1.1,.8,-1.8,1c-.8,.3,-1.5,.4,-2.3,.4c-.8,0,-1.5,-.1,-2.2,-.4c-.7,-.2,-1.4,-.5,-1.9,-1c-.5,-.4,-.9,-.9,-1.2,-1.5c-.4,-.6,-.5,-1.3,-.5,-2.1c0,-.7,.1,-1.3,.4,-1.9c.3,-.6,.8,-1.2,1.3,-1.6c.5,-.4,1.1,-.8,1.9,-1c.7,-.2,1.4,-.4,2.2,-.4c.9,0,1.6,.2,2.4,.4c.7,.2,1.3,.6,1.8,1c.5,.5,.9,1,1.2,1.6c.3,.6,.5,1.2,.5,1.9c0,.8,-.2,1.4,-.5,2.1Zm11.5,-2.5h-4.3v8h-2.2V182.7h2.2v7.6h4.3v1.9Zm-17,14.9c-.8,0,-1.5,-.2,-1.8,-.5c-.4,-.4,-.6,-.9,-.6,-1.6v-5.3h2.2v4.8c0,.3,.1,.5,.2,.6c.1,.1,.3,.2,.7,.2h7.1c1,0,2,-.1,2.8,-.2c.9,-.1,1.8,-.3,2.7,-.6l.5,1.7c-1.1,.3,-2.1,.6,-3,.7c-.9,.1,-1.9,.2,-3,.2h-7.8Zm2.7,-16.8c-.7,-.5,-1.6,-.8,-2.6,-.8c-1,0,-1.8,.3,-2.5,.8c-.7,.6,-1,1.4,-1,2.3c0,1.1,.3,1.9,1,2.4c.7,.5,1.5,.8,2.5,.8c1,0,1.9,-.3,2.6,-.8c.7,-.5,1,-1.3,1,-2.4c0,-.9,-.3,-1.7,-1,-2.3Zm4.7,-3.4H542.8v-1.8h5.5c.2,-.4,.4,-.7,.4,-1c.1,-.3,.1,-.7,.1,-1c0,-.2,0,-.3,0,-.4c0,-.1,0,-.2,-.1,-.3c0,-.1,0,-.2,0,-.3c-.1,-.1,-.1,-.2,-.1,-.3l2.1,-.6c.1,.2,.2,.5,.3,.8c0,.3,0,.6,0,.9c0,.4,-.1,.8,-.2,1.2c-.1,.3,-.2,.7,-.4,1h6.9v1.8Zm17.8,11.7c1.1,-.8,2.3,-1.7,3.4,-2.7c1,-1,2,-2,2.8,-3.1c.9,-1,1.5,-2.1,2.1,-3.2c.5,-1.1,.9,-2.1,1.1,-3.2c0,-.2,0,-.4,-.1,-.5c-.2,-.1,-.3,-.1,-.5,-.1h-8V184h9c.9,0,1.5,.2,1.7,.8c.2,.5,.2,1.1,.1,1.7c-.1,1,-.4,2.1,-.9,3.1c-.4,1,-1,2.1,-1.7,3.1c.6,.1,1.1,.3,1.5,.6c.4,.3,.8,.6,1.1,1c.6,.7,1.1,1.5,1.8,2.3c.6,.9,1.2,1.7,1.7,2.4l-1.7,1.3c-.6,-.9,-1.2,-1.8,-1.9,-2.6c-.6,-.9,-1.1,-1.5,-1.5,-2.1c-.3,-.2,-.6,-.5,-.9,-.7c-.3,-.3,-.7,-.5,-1.2,-.7c-.9,1.1,-2,2.2,-3.1,3.2c-1.1,1.1,-2.3,2,-3.6,2.9l-1.2,-1.7ZM593,183h2.3v22.5H593V183ZM611.6,188.8c-.3,.6,-.7,1.1,-1.2,1.5c-.5,.4,-1.2,.7,-1.9,.9c-.7,.2,-1.4,.3,-2.2,.3c-.8,0,-1.6,-.1,-2.3,-.3c-.7,-.2,-1.3,-.5,-1.9,-.9c-.5,-.4,-.9,-.9,-1.2,-1.5c-.3,-.6,-.5,-1.3,-.5,-2c0,-.7,.2,-1.4,.5,-2c.3,-.5,.7,-1,1.2,-1.4c.6,-.5,1.2,-.8,1.9,-1c.7,-.2,1.5,-.3,2.3,-.3c.8,0,1.5,.1,2.2,.3c.7,.2,1.3,.5,1.8,1c.6,.4,1,.9,1.3,1.5c.3,.5,.5,1.2,.5,1.9c0,.7,-.2,1.4,-.5,2Zm7.4,11.9h-2.3v-2.6h-5.1v-1.7h5.1V182.7H619v18Zm-13.4,6.4c-.9,0,-1.5,-.2,-1.9,-.5c-.4,-.4,-.6,-.9,-.6,-1.6v-4.9h2.3v4.4c0,.3,.1,.5,.2,.6c.1,.1,.3,.2,.7,.2h7.6c1.1,0,2,-.1,2.9,-.2c.8,-.1,1.7,-.3,2.7,-.6l.5,1.7c-1.1,.3,-2.1,.6,-3,.7c-1,.1,-2,.2,-3,.2h-8.4Zm-7.2,-13.9h8c1.4,0,2.7,0,4.1,-.1c1.4,-.1,2.8,-.4,4.3,-.9l.3,1.8c-1.4,.4,-2.9,.7,-4.3,.8c-1.4,.1,-2.8,.2,-4,.2v3.8h-2.3V195h-6.1v-1.8ZM609,184.8c-.6,-.6,-1.5,-.9,-2.7,-.9c-1.2,0,-2.1,.3,-2.7,.9c-.6,.5,-.9,1.2,-.9,2c0,.8,.3,1.5,.9,2.1c.6,.5,1.5,.8,2.7,.8c1.2,0,2.1,-.3,2.7,-.8c.6,-.6,.9,-1.3,.9,-2.1c0,-.8,-.3,-1.5,-.9,-2Zm20.7,14.5c2.8,-1.8,5,-3.8,6.5,-6c1.6,-2.2,2.5,-4.4,2.8,-6.7c0,-.3,0,-.5,-.2,-.6c-.1,-.1,-.3,-.2,-.5,-.2h-8.8V184h9.7c.8,0,1.4,.2,1.7,.7c.3,.4,.4,1,.3,1.8c-.3,2.5,-1.2,5,-2.9,7.6c-1.7,2.5,-4.1,4.8,-7.3,7.1l-1.3,-1.9ZM646.1,183h2.3v22.5h-2.3V183ZM657.5,194.8v-5.5h2.2v5.5h2.2c1.4,0,2.7,-.1,3.9,-.4c1.2,-.2,2.4,-.7,3.7,-1.5V182.7h2.3v7.7H676v1.8h-4.2v8.3h-2.3v-5.6c-1.1,.6,-2.2,1,-3.4,1.2c-1.1,.3,-2.5,.4,-4.2,.4h-9.4v-1.7h5Zm1.2,12.3c-.8,0,-1.4,-.2,-1.8,-.5c-.4,-.4,-.6,-.9,-.6,-1.6v-5.8h2.3v5.3c0,.3,0,.5,.1,.6c.2,.1,.4,.2,.7,.2h7.4c1.1,0,2,-.1,2.9,-.2c.8,-.1,1.7,-.3,2.7,-.6l.4,1.7c-1,.3,-2,.6,-2.9,.7c-1,.1,-2,.2,-3,.2h-8.2Zm4.1,-14.7c.2,-1.1,.4,-2.2,.6,-3.3c.1,-1.2,.2,-2.3,.2,-3.3c0,-.3,-.1,-.5,-.2,-.7c-.2,-.1,-.4,-.2,-.7,-.2h-9.1v-1.8h9.8c.9,0,1.5,.2,1.8,.6c.3,.4,.5,.9,.5,1.5c0,.5,0,1.1,0,1.7c-.1,.7,-.2,1.4,-.2,2c-.1,.7,-.2,1.4,-.3,2c-.1,.7,-.2,1.3,-.3,1.9l-2.1,-.4Z" class="g1_361"/>
<path d="M513.3,957.5H664.9v29.6H513.3V957.5Zm151.6,0H833.8v29.6H664.9V957.5Z" class="g2_361"/>
<path d="M513.3,987.1H664.9v29.5H513.3V987.1Zm151.6,0H833.8v29.5H664.9V987.1Zm-151.6,29.5H664.9v29.5H513.3v-29.5Zm151.6,0H833.8v29.5H664.9v-29.5Zm-151.6,29.5H664.9v29.6H513.3v-29.6Zm151.6,0H833.8v29.6H664.9v-29.6Zm-151.6,29.6H664.9v41.8H513.3v-41.8Zm151.6,0H833.8v41.8H664.9v-41.8Zm-151.6,41.8H664.9v29.6H513.3v-29.6Zm151.6,0H833.8v29.6H664.9v-29.6Zm-151.6,29.6H664.9v29.5H513.3v-29.5Zm151.6,0H833.8v29.5H664.9v-29.5Zm-151.6,29.5H664.9v29.5H513.3v-29.5Zm151.6,0H833.8v29.5H664.9v-29.5Z" class="g0_361"/>
<path d="M513.3,957.5H664.9m0,0H833.8M513.3,1206.2H664.9m0,0H833.8" class="g3_361"/>
<path d="M664.9,986.8V957.9M513.3,987.1H664.9m0,0H833.8m-168.9,29.3V987.3m-151.6,29.3H664.9m0,0H833.8m-168.9,29.3v-29.1m-151.6,29.3H664.9m0,0H833.8m-168.9,29.4v-29.1m-151.6,29.3H664.9m0,0H833.8m-168.9,41.6v-41.4m-151.6,41.6H664.9m0,0H833.8m-168.9,29.3v-29.1m-151.6,29.4H664.9m0,0H833.8m-168.9,29.3v-29.1m-151.6,29.3H664.9m0,0H833.8m-168.9,29.2v-29" class="g4_361"/>
<image clip-path="url(#c1_361)" preserveAspectRatio="none" x="186" y="502" width="655" height="340" xlink:href="img/2.png"/>
<path d="M199.8,503.3c0,0,-12.4,0,-12.4,12.3V822.1c0,0,0,12.4,12.4,12.4H821c0,0,12.4,0,12.4,-12.4V515.6c0,0,0,-12.3,-12.4,-12.3Z" class="g0_361"/>
<image clip-path="url(#c2_361)" preserveAspectRatio="none" x="272" y="583" width="46" height="36" xlink:href="img/3.png"/>
<image clip-path="url(#c3_361)" preserveAspectRatio="none" x="452" y="583" width="46" height="36" xlink:href="img/4.png"/>
<image clip-path="url(#c4_361)" preserveAspectRatio="none" x="740" y="576" width="32" height="21" xlink:href="img/5.png"/>
<image clip-path="url(#c5_361)" preserveAspectRatio="none" x="784" y="576" width="30" height="21" xlink:href="img/6.png"/>
<image clip-path="url(#c6_361)" preserveAspectRatio="none" x="304" y="651" width="32" height="21" xlink:href="img/7.png"/>
<image clip-path="url(#c7_361)" preserveAspectRatio="none" x="768" y="651" width="34" height="21" xlink:href="img/8.png"/>
<image clip-path="url(#c8_361)" preserveAspectRatio="none" x="458" y="651" width="32" height="21" xlink:href="img/9.png"/>
<image clip-path="url(#c9_361)" preserveAspectRatio="none" x="304" y="680" width="32" height="22" xlink:href="img/10.png"/>
<image clip-path="url(#ca_361)" preserveAspectRatio="none" x="768" y="680" width="34" height="22" xlink:href="img/11.png"/>
<image clip-path="url(#cb_361)" preserveAspectRatio="none" x="458" y="680" width="32" height="22" xlink:href="img/12.png"/>
<image clip-path="url(#cc_361)" preserveAspectRatio="none" x="304" y="710" width="32" height="22" xlink:href="img/13.png"/>
<image clip-path="url(#cd_361)" preserveAspectRatio="none" x="768" y="710" width="34" height="22" xlink:href="img/14.png"/>
<image clip-path="url(#ce_361)" preserveAspectRatio="none" x="458" y="759" width="32" height="22" xlink:href="img/15.png"/>
<image clip-path="url(#cf_361)" preserveAspectRatio="none" x="304" y="742" width="32" height="21" xlink:href="img/16.png"/>
<image clip-path="url(#cg_361)" preserveAspectRatio="none" x="458" y="710" width="32" height="22" xlink:href="img/17.png"/>
<image clip-path="url(#ch_361)" preserveAspectRatio="none" x="615" y="651" width="34" height="21" xlink:href="img/18.png"/>
<image clip-path="url(#ci_361)" preserveAspectRatio="none" x="615" y="698" width="34" height="21" xlink:href="img/19.png"/>
<image clip-path="url(#cj_361)" preserveAspectRatio="none" x="615" y="745" width="34" height="21" xlink:href="img/20.png"/>
<image clip-path="url(#ck_361)" preserveAspectRatio="none" x="304" y="788" width="32" height="22" xlink:href="img/21.png"/>
<image clip-path="url(#cl_361)" preserveAspectRatio="none" x="458" y="788" width="34" height="22" xlink:href="img/22.png"/>
<image clip-path="url(#cm_361)" preserveAspectRatio="none" x="615" y="788" width="34" height="22" xlink:href="img/23.png"/>
<image clip-path="url(#cn_361)" preserveAspectRatio="none" x="740" y="602" width="32" height="21" xlink:href="img/24.png"/>
<image clip-path="url(#co_361)" preserveAspectRatio="none" x="784" y="602" width="30" height="21" xlink:href="img/25.png"/>
<image clip-path="url(#cp_361)" preserveAspectRatio="none" x="312" y="583" width="46" height="36" xlink:href="img/26.png"/>
<image clip-path="url(#cq_361)" preserveAspectRatio="none" x="492" y="583" width="46" height="36" xlink:href="img/27.png"/>
<image clip-path="url(#cr_361)" preserveAspectRatio="none" x="351" y="583" width="46" height="36" xlink:href="img/28.png"/>
<image clip-path="url(#cs_361)" preserveAspectRatio="none" x="532" y="583" width="46" height="36" xlink:href="img/29.png"/>
<image clip-path="url(#ct_361)" preserveAspectRatio="none" x="391" y="583" width="46" height="36" xlink:href="img/30.png"/>
<image clip-path="url(#cu_361)" preserveAspectRatio="none" x="572" y="583" width="46" height="36" xlink:href="img/31.png"/>
<path d="M201.1,634.9h60.2v-71H201.1v71Z" class="g5_361"/>
<g clip-path="url(#cv_361)">
<path d="M170.1,230.5c0,0,-10.3,0,-10.3,10.3v968.1c0,0,0,10.3,10.3,10.3H848.9c0,0,10.3,0,10.3,-10.3V240.8c0,0,0,-10.3,-10.3,-10.3H170.1Z" class="g6_361"/>
<path d="M201,506.1c0,0,-12.4,0,-12.4,12.4V822.9c0,0,0,12.4,12.4,12.4H818.1c0,0,12.3,0,12.3,-12.4V518.5c0,0,0,-12.4,-12.3,-12.4H201Z" class="g7_361"/>
</g>
<image clip-path="url(#cw_361)" preserveAspectRatio="none" x="206" y="621" width="56" height="9" xlink:href="img/32.jpg"/>
<image clip-path="url(#cx_361)" x="209" y="572" width="41" height="55" xlink:href="shade/1.png"/>
<image clip-path="url(#cy_361)" x="209" y="572" width="42" height="54" xlink:href="shade/2.png"/>
<image clip-path="url(#cz_361)" x="210" y="574" width="38" height="52" xlink:href="shade/3.png"/>
<image clip-path="url(#c10_361)" preserveAspectRatio="none" x="220" y="609" width="5" height="13" xlink:href="img/33.jpg"/>
<image clip-path="url(#c11_361)" preserveAspectRatio="none" x="220" y="606" width="14" height="20" xlink:href="img/34.jpg"/>
<image clip-path="url(#c12_361)" preserveAspectRatio="none" x="210" y="576" width="5" height="13" xlink:href="img/35.jpg"/>
<image clip-path="url(#c13_361)" preserveAspectRatio="none" x="210" y="570" width="6" height="19" xlink:href="img/36.jpg"/>
<image clip-path="url(#c14_361)" preserveAspectRatio="none" x="241" y="621" width="12" height="4" xlink:href="img/37.jpg"/>
<image clip-path="url(#c15_361)" preserveAspectRatio="none" x="215" y="586" width="29" height="38" xlink:href="img/38.jpg"/>
<image clip-path="url(#c16_361)" preserveAspectRatio="none" x="221" y="606" width="14" height="18" xlink:href="img/39.jpg"/>
<image clip-path="url(#c17_361)" preserveAspectRatio="none" x="211" y="570" width="5" height="17" xlink:href="img/40.jpg"/>
<image clip-path="url(#c18_361)" preserveAspectRatio="none" x="243" y="621" width="9" height="2" xlink:href="img/41.jpg"/>
<path d="M236.2,624.5c-.1,.1,0,.1,.2,.1l5.3,-.5c.2,0,.3,-.1,.4,-.1l.8,-.8c.1,-.1,0,-.1,-.1,-.1l-5.7,.4c-.2,.1,-.4,.1,-.4,.2Z" class="g8_361"/>
<image clip-path="url(#c19_361)" x="236" y="623" width="7" height="2" xlink:href="shade/4.png"/>
<path d="M214.3,569.8l19.2,-.1c1.3,-.1,3.4,.7,4.2,3.1l14.8,44.7c.9,2.7,-.7,3.8,-2,3.9l-19.9,1.7c-1.5,.1,-3.8,-.6,-4.6,-3.5L212,573.2c-.8,-2.5,.9,-3.4,2.3,-3.4Z" class="g9_361"/>
<image clip-path="url(#c1a_361)" x="224" y="578" width="26" height="36" xlink:href="shade/5.png"/>
<image clip-path="url(#c1b_361)" x="211" y="569" width="43" height="55" xlink:href="shade/6.png"/>
<image clip-path="url(#c1c_361)" x="212" y="569" width="41" height="54" xlink:href="shade/7.png"/>
<image clip-path="url(#c1d_361)" x="211" y="569" width="43" height="55" xlink:href="shade/8.png"/>
<image clip-path="url(#c1e_361)" x="212" y="570" width="16" height="42" xlink:href="shade/9.png"/>
<image clip-path="url(#c1f_361)" preserveAspectRatio="none" x="215" y="578" width="12" height="31" xlink:href="img/42.jpg"/>
<image clip-path="url(#c1g_361)" x="222" y="573" width="7" height="2" xlink:href="shade/10.png"/>
<path clip-path="url(#c1h_361)" d="M222.4,574.3c.1,.3,.5,.6,.7,.6l5.2,-.1c.3,0,.5,-.2,.4,-.5c-.1,-.3,-.4,-.6,-.7,-.6l-5.2,.1c-.3,0,-.5,.2,-.4,.5Z" class="ga_361"/>
<path d="M153.3,126.3v22.2L165,158.7V136.5Z" class="gb_361"/>
<path d="M153.3,109.5v39H851.1c0,0,16.8,0,16.8,-16.8v-5.4c0,0,0,-16.8,-16.8,-16.8Z" class="gc_361"/>
<path d="M207.2,115.7c0,-9.1,-7.9,-16.6,-17.7,-16.6c-9.8,0,-17.7,7.5,-17.7,16.6c0,2.7,.6,5.2,1.8,7.4c1.2,2.4,2.9,4.6,5,6.2c1.2,1,1.6,1.7,1.7,4.3v.6c0,3.3,2.7,5.9,5.9,5.9h6.6c3.2,0,5.8,-2.6,5.8,-5.9v-.6c.2,-2.6,.6,-3.3,1.8,-4.3c2.1,-1.6,3.8,-3.8,5,-6.2c1.2,-2.2,1.8,-4.7,1.8,-7.4Z" class="gd_361"/>
<path d="M207.2,115.7c0,-9.1,-7.9,-16.6,-17.7,-16.6c-9.8,0,-17.7,7.5,-17.7,16.6c0,2.7,.6,5.2,1.8,7.4c1.2,2.4,2.9,4.6,5,6.2c1.2,1,1.6,1.7,1.7,4.3v.6c0,3.3,2.7,5.9,5.9,5.9h6.6c3.2,0,5.8,-2.6,5.8,-5.9v-.6c.2,-2.6,.6,-3.3,1.8,-4.3c2.1,-1.6,3.8,-3.8,5,-6.2c1.2,-2.2,1.8,-4.7,1.8,-7.4Z" class="ge_361"/>
<path d="M194.6,147.4c0,2.8,-2.3,5.1,-5.1,5.1c-2.8,0,-5.1,-2.3,-5.1,-5.1c0,-2.8,2.3,-5.1,5.1,-5.1c2.8,0,5.1,2.3,5.1,5.1Z" class="g0_361"/>
<path d="M194.6,147.4c0,2.8,-2.3,5.1,-5.1,5.1c-2.8,0,-5.1,-2.3,-5.1,-5.1c0,-2.8,2.3,-5.1,5.1,-5.1c2.8,0,5.1,2.3,5.1,5.1Z" class="ge_361"/>
<path d="M182.1,140.2c0,1,.8,1.8,1.8,1.8h11.2c1,0,1.8,-.8,1.8,-1.8v-1.3H182.1Z" class="g0_361"/>
<path d="M182.1,140.2c0,1,.8,1.8,1.8,1.8h11.2c1,0,1.8,-.8,1.8,-1.8v-1.3H182.1v1.3Z" class="ge_361"/>
<path d="M196.9,143.2c0,.8,-.6,1.3,-1.3,1.3H183.4c-.8,0,-1.3,-.5,-1.3,-1.3c0,-.7,.5,-1.3,1.3,-1.3h12.2c.7,0,1.3,.6,1.3,1.3Z" class="g0_361"/>
<path d="M196.9,143.2c0,.8,-.6,1.3,-1.3,1.3H183.4c-.8,0,-1.3,-.5,-1.3,-1.3c0,-.7,.5,-1.3,1.3,-1.3h12.2c.7,0,1.3,.6,1.3,1.3Z" class="ge_361"/>
<path d="M196.9,145.8c0,.7,-.6,1.3,-1.3,1.3H183.4c-.8,0,-1.3,-.6,-1.3,-1.3c0,-.7,.5,-1.3,1.3,-1.3h12.2c.7,0,1.3,.6,1.3,1.3Z" class="g0_361"/>
<path d="M196.9,145.8c0,.7,-.6,1.3,-1.3,1.3H183.4c-.8,0,-1.3,-.6,-1.3,-1.3c0,-.7,.5,-1.3,1.3,-1.3h12.2c.7,0,1.3,.6,1.3,1.3Z" class="ge_361"/>
<path d="M215.5,128.7l8.3,10.4c.6,.7,1.8,.6,2.7,-.2c.9,-.7,1.2,-1.9,.7,-2.6l-8.9,-10.2Z" class="gf_361"/>
<path d="M215.5,128.7l8.3,10.4c.6,.7,1.8,.6,2.7,-.2c.9,-.7,1.2,-1.9,.7,-2.6l-8.9,-10.2l-2.8,2.6Z" class="ge_361"/>
<path d="M217.5,125.1c.5,.6,.3,1.8,-.7,2.6c-.9,.7,-2.1,.8,-2.6,.2c-.6,-.7,-.3,-1.9,.6,-2.6c.9,-.8,2.1,-.9,2.7,-.2Z" class="gg_361"/>
<path d="M217.5,125.1c.5,.6,.3,1.8,-.7,2.6c-.9,.7,-2.1,.8,-2.6,.2c-.6,-.7,-.3,-1.9,.6,-2.6c.9,-.8,2.1,-.9,2.7,-.2Z" class="ge_361"/>
<path d="M212.7,124.7l1.7,2c.3,.3,1,.3,1.5,-.1c.5,-.5,.7,-1.1,.4,-1.5l-1.7,-2Z" class="g0_361"/>
<path d="M212.7,124.7l1.7,2c.3,.3,1,.3,1.5,-.1c.5,-.5,.7,-1.1,.4,-1.5l-1.7,-2l-1.9,1.6Z" class="gh_361"/>
<path d="M214.8,122.9c.4,.5,.2,1.3,-.5,1.8c-.6,.5,-1.4,.6,-1.8,.1c-.4,-.4,-.2,-1.2,.5,-1.7c.6,-.6,1.4,-.6,1.8,-.2Z" class="g0_361"/>
<path d="M214.8,122.9c.4,.5,.2,1.3,-.5,1.8c-.6,.5,-1.4,.6,-1.8,.1c-.4,-.4,-.2,-1.2,.5,-1.7c.6,-.6,1.4,-.6,1.8,-.2Z" class="gh_361"/>
<path d="M216.4,105.4c4.8,5.7,4.1,14.2,-1.7,19c-5.7,4.8,-14.2,4,-19,-1.7c-4.8,-5.7,-4,-14.2,1.7,-19c5.7,-4.8,14.2,-4.1,19,1.7Z" class="g0_361"/>
<path d="M216.4,105.4c4.8,5.7,4.1,14.2,-1.7,19c-5.7,4.8,-14.2,4,-19,-1.7c-4.8,-5.7,-4,-14.2,1.7,-19c5.7,-4.8,14.2,-4.1,19,1.7Z" class="ge_361"/>
<path d="M214,107.4c3.5,4.2,3,10.5,-1.3,14.1c-4.2,3.5,-10.5,2.9,-14,-1.3c-3.5,-4.2,-3,-10.5,1.2,-14c4.2,-3.6,10.5,-3,14.1,1.2Z" class="gi_361"/>
<path d="M214,107.4c3.5,4.2,3,10.5,-1.3,14.1c-4.2,3.5,-10.5,2.9,-14,-1.3c-3.5,-4.2,-3,-10.5,1.2,-14c4.2,-3.6,10.5,-3,14.1,1.2Z" class="ge_361"/>
<path d="M213,110.6l-3.1,3m3.1,-.4l-3.1,3" class="gj_361"/>
<path d="M172.1,99l3.1,3.3m1.1,-5.9l1.2,3.9m-8.1,3l3.7,1.2" class="gk_361"/>
<path d="M185.8,106.1c1.2,1.2,.2,4.3,-2.2,6.7c-2.5,2.5,-5.5,3.5,-6.8,2.3c-1.2,-1.3,-.3,-4.3,2.2,-6.8c2.5,-2.5,5.5,-3.5,6.8,-2.2Z" class="g0_361"/>
<path d="M203.7,107.6c.6,.6,.1,1.9,-.9,3c-1.1,1,-2.4,1.5,-3,.9c-.5,-.5,-.1,-1.8,1,-2.9c1.1,-1.1,2.4,-1.5,2.9,-1Z" class="g0_361"/>
<path d="M32.1,45.1H9.2m958.3,0h22.9M32.1,1331.3H9.2m958.3,0h22.9M45.1,32.1V9.2m0,1335.1v22.9M954.5,32.1V9.2m0,1335.1v22.9" class="gl_361"/>
<path d="M32.1,45.1H9.2m958.3,0h22.9M32.1,1331.3H9.2m958.3,0h22.9M45.1,32.1V9.2m0,1335.1v22.9M954.5,32.1V9.2m0,1335.1v22.9" class="gm_361"/>
<path d="M27.5,32.1H0m972.1,0h27.5M27.5,1344.3H0m972.1,0h27.5M32.1,27.5V0m0,1348.9v27.5M967.5,27.5V0m0,1348.9v27.5" class="gl_361"/>
<path d="M27.5,32.1H0m972.1,0h27.5M27.5,1344.3H0m972.1,0h27.5M32.1,27.5V0m0,1348.9v27.5M967.5,27.5V0m0,1348.9v27.5" class="gm_361"/>
</svg>