<?xml version="1.0" encoding="UTF-8" standalone="no"?>
<!DOCTYPE svg PUBLIC "-//W3C//DTD SVG 1.1//EN"
"http://www.w3.org/Graphics/SVG/1.1/DTD/svg11.dtd">
<svg viewBox="0 0 999 1376" version="1.1" xmlns="http://www.w3.org/2000/svg" xmlns:xlink="http://www.w3.org/1999/xlink">
<defs>
<clipPath id="c0_257"><path d="M32.1,1344.3V32.1H967.5V1344.3Z"/></clipPath>
<clipPath id="c1_257"><path d="M215,450.6V324.1H831.1V450.6Z"/></clipPath>
<clipPath id="c2_257"><path d="M215,597.8V493.3H831.1V597.8Z"/></clipPath>
<clipPath id="c3_257"><path d="M215,745.3V640.8H831.1V745.3Z"/></clipPath>
<clipPath id="c4_257"><path d="M215,974.9V848.4H831.1V974.9Z"/></clipPath>
<clipPath id="c5_257"><path d="M215,1144.1V1017.6H831.1v126.5Z"/></clipPath>
<style type="text/css"><![CDATA[
.g0_257{
fill: #FEFCF4;
}
.g1_257{
fill: #F16865;
}
.g2_257{
fill: #6381B7;
}
.g3_257{
fill: none;
stroke: #6381B7;
stroke-width: 0.381;
stroke-dasharray: 2,1;
}
.g4_257{
fill: none;
stroke: #6381B7;
stroke-width: 0.381;
}
.g5_257{
fill: #FEF9F9;
}
.g6_257{
fill: none;
stroke: #A164A9;
stroke-width: 1.527;
stroke-linecap: round;
stroke-linejoin: round;
stroke-dasharray: 0,5;
}
.g7_257{
fill: none;
stroke: #A164A9;
stroke-width: 1.527;
stroke-linecap: round;
stroke-linejoin: round;
}
.g8_257{
fill: #A164A9;
}
.g9_257{
fill: #FFF;
}
.ga_257{
fill: none;
stroke: #231F20;
stroke-width: 0.305;
stroke-miterlimit: 10;
}
.gb_257{
fill: none;
stroke: #FFF;
stroke-width: 1.909;
stroke-miterlimit: 10;
}
.gc_257{
fill: none;
stroke: #000;
stroke-width: 0.381;
stroke-miterlimit: 10;
}
]]></style>
</defs>
<path clip-path="url(#c0_257)" d="M-877.3,1344.3H45.1V32.1H-877.3V1344.3Z" class="g0_257"/>
<path d="M45.1,1344.3H967.5V32.1H45.1V1344.3Z" class="g0_257"/>
<path clip-path="url(#c0_257)" d="M867.9,166.7c0,0,30.3,0,30.3,-30.3v-4.3c0,0,0,-30.3,-30.3,-30.3H-735.4c0,0,-30.4,0,-30.4,30.3v4.3c0,0,0,30.3,30.4,30.3Z" class="g1_257"/>
<path d="M630.1,1199.4c0,0,-4.3,0,-4.3,4.4v10.8c0,0,0,4.3,4.3,4.3h30.3c0,0,4.3,0,4.3,-4.3v-10.8c0,0,0,-4.4,-4.3,-4.4Z" class="g2_257"/>
<path d="M616.9,1190.6v37.6m1.4,.9H866.8m.9,-1.3v-37.6m-1.3,-.9H617.9" class="g3_257"/>
<path d="M616.9,1228.5v.6h.6m249.6,0h.6v-.6m0,-38.7v-.5h-.6m-249.6,0h-.6v.5" class="g4_257"/>
<image preserveAspectRatio="none" x="714" y="55" width="120" height="139" xlink:href="img/1.png"/>
<path d="M154.1,1182.4h713V251h-713v931.4Z" class="g5_257"/>
<path d="M154.1,255.6v924.5m4.6,2.3H864.9m2.2,-4.6V253.3M862.6,251H156.4" class="g6_257"/>
<path d="M154.1,1182.4v0m713.1,0v0m0,-931.4v0m-713.1,0v0" class="g7_257"/>
<path d="M153.3,265.3V227c0,0,0,-8.7,8.7,-8.7H859.3c0,0,8.6,0,8.6,8.7v38.9Z" class="g8_257"/>
<image clip-path="url(#c1_257)" preserveAspectRatio="none" x="215" y="324" width="615" height="127" xlink:href="img/2.png"/>
<path d="M218.3,444.3H824.6v-117H218.3v117Z" class="g9_257"/>
<path d="M707.3,357.1h67" class="ga_257"/>
<image clip-path="url(#c2_257)" preserveAspectRatio="none" x="215" y="493" width="615" height="105" xlink:href="img/3.png"/>
<path d="M218.3,591.8H824.6V496.5H218.3v95.3Z" class="g9_257"/>
<path d="M686,526.3H807.1" class="ga_257"/>
<image clip-path="url(#c3_257)" preserveAspectRatio="none" x="215" y="642" width="615" height="103" xlink:href="img/4.png"/>
<path d="M218.3,739.3H824.6V644H218.3v95.3Z" class="g9_257"/>
<path d="M463.4,673.8h52" class="ga_257"/>
<image clip-path="url(#c4_257)" preserveAspectRatio="none" x="215" y="849" width="615" height="126" xlink:href="img/5.png"/>
<path d="M218.3,968.6H824.6V851.7H218.3V968.6Z" class="g9_257"/>
<image clip-path="url(#c5_257)" preserveAspectRatio="none" x="215" y="1018" width="615" height="126" xlink:href="img/6.png"/>
<path d="M218.3,1137.8H824.6V1020.9H218.3v116.9Z" class="g9_257"/>
<path d="M32.1,45.1H9.2m958.3,0h22.9M32.1,1331.3H9.2m958.3,0h22.9M45.1,32.1V9.2m0,1335.1v22.9M954.5,32.1V9.2m0,1335.1v22.9" class="gb_257"/>
<path d="M32.1,45.1H9.2m958.3,0h22.9M32.1,1331.3H9.2m958.3,0h22.9M45.1,32.1V9.2m0,1335.1v22.9M954.5,32.1V9.2m0,1335.1v22.9" class="gc_257"/>
<path d="M27.5,32.1H0m972.1,0h27.5M27.5,1344.3H0m972.1,0h27.5M32.1,27.5V0m0,1348.9v27.5M967.5,27.5V0m0,1348.9v27.5" class="gb_257"/>
<path d="M27.5,32.1H0m972.1,0h27.5M27.5,1344.3H0m972.1,0h27.5M32.1,27.5V0m0,1348.9v27.5M967.5,27.5V0m0,1348.9v27.5" class="gc_257"/>
</svg>