<?xml version="1.0" encoding="UTF-8" standalone="no"?>
<!DOCTYPE svg PUBLIC "-//W3C//DTD SVG 1.1//EN"
"http://www.w3.org/Graphics/SVG/1.1/DTD/svg11.dtd">
<svg viewBox="0 0 999 1376" version="1.1" xmlns="http://www.w3.org/2000/svg" xmlns:xlink="http://www.w3.org/1999/xlink">
<defs>
<clipPath id="c0_250"><path d="M201.1,363.9V243.5H321.5V363.9Z"/></clipPath>
<clipPath id="c1_250"><path d="M489.5,363.9V243.5H619.3V363.9Z"/></clipPath>
<clipPath id="c2_250"><path d="M347,363.9V243.5H467.4V363.9Z"/></clipPath>
<clipPath id="c3_250"><path d="M637.1,363.9V243.5H768.9V363.9Z"/></clipPath>
<clipPath id="c4_250"><path d="M194.4,538V417.6H326.1V538Z"/></clipPath>
<clipPath id="c5_250"><path d="M496.3,538V417.6H616.7V538Z"/></clipPath>
<clipPath id="c6_250"><path d="M346.2,538V417.6H466.6V538Z"/></clipPath>
<clipPath id="c7_250"><path d="M637.1,538V417.6H766.8V538Z"/></clipPath>
<clipPath id="c8_250"><path d="M199.4,710.8V590.4H319.8V710.8Z"/></clipPath>
<clipPath id="c9_250"><path d="M341.9,710.8V590.4H473.7V710.8Z"/></clipPath>
<clipPath id="ca_250"><path d="M191.7,1032.4v-97h92v97Z"/></clipPath>
<clipPath id="cb_250"><path d="M191.7,1168.1v-97.4h92v97.4Z"/></clipPath>
<clipPath id="cc_250"><path d="M304,1032.6V934.8h2.3v97.8Z"/></clipPath>
<clipPath id="cd_250"><path d="M304,1168.6v-98.5h2.3v98.5Z"/></clipPath>
<clipPath id="ce_250"><path d="M313.7,1019.7V935.4H398v84.3Z"/></clipPath>
<clipPath id="cf_250"><path d="M313.7,1153.1v-84.3H398v84.3Z"/></clipPath>
<clipPath id="cg_250"><path d="M434.8,1019.7V935.4h84.3v84.3Z"/></clipPath>
<clipPath id="ch_250"><path d="M434.8,1153.1v-84.3h92v84.3Z"/></clipPath>
<clipPath id="ci_250"><path d="M554.8,1153.1v-84.3h92.1v84.3Z"/></clipPath>
<clipPath id="cj_250"><path d="M555,1019.7V935.4h88.6v84.3Z"/></clipPath>
<clipPath id="ck_250"><path d="M550.9,1198V929.5H703.3V1198Z"/></clipPath>
<clipPath id="cl_250"><path d="M176.6,228.6l-6.5,-2.1L153.7,212.6V155.5h72v73.1Z"/></clipPath>
<clipPath id="cm_250"><path d="M176.6,868.8l-6.5,-2.1l-16.4,-14V795.6h72v73.2Z"/></clipPath>
<style type="text/css"><![CDATA[
.g0_250{
fill: #FEFCF4;
}
.g1_250{
fill: #FFF;
}
.g2_250{
fill: none;
stroke: #6381B7;
stroke-width: 0.763;
}
.g3_250{
fill: none;
stroke: #949698;
stroke-width: 1.191;
}
.g4_250{
fill: #6381B7;
}
.g5_250{
fill: none;
stroke: #6381B7;
stroke-width: 0.381;
stroke-dasharray: 2,1;
}
.g6_250{
fill: none;
stroke: #6381B7;
stroke-width: 0.381;
}
.g7_250{
fill: none;
stroke: #949698;
stroke-width: 0.42;
}
.g8_250{
fill: none;
stroke: #FFF;
stroke-width: 1.19;
stroke-miterlimit: 10;
}
.g9_250{
fill: none;
stroke: #000;
stroke-width: 0.238;
stroke-miterlimit: 10;
}
.ga_250{
fill: #48484A;
}
.gb_250{
fill: #F0E8F3;
}
.gc_250{
fill: #766FA6;
}
.gd_250{
fill: #FCE8B0;
}
.ge_250{
fill: none;
stroke: #231F20;
stroke-width: 1.527;
}
.gf_250{
fill: #25408F;
}
.gg_250{
fill: #00BAF1;
}
.gh_250{
fill: #332D2C;
}
.gi_250{
fill: #D9DFF0;
}
.gj_250{
fill: #F27C85;
}
.gk_250{
fill: #7DD3F6;
}
.gl_250{
fill: none;
stroke: #FFF;
stroke-width: 1.909;
stroke-miterlimit: 10;
}
.gm_250{
fill: none;
stroke: #000;
stroke-width: 0.381;
stroke-miterlimit: 10;
}
]]></style>
</defs>
<path d="M32.1,1344.3H954.5V32.1H32.1V1344.3Z" class="g0_250"/>
<path d="M150.4,133.7c0,0,-18.3,0,-18.3,18.3V769.1c0,0,0,18.3,18.3,18.3H827.5c0,0,18.4,0,18.4,-18.3V133.7Z" class="g1_250"/>
<path d="M150.4,133.7c0,0,-18.3,0,-18.3,18.3V769.1c0,0,0,18.3,18.3,18.3H827.5c0,0,18.4,0,18.4,-18.3V133.7H150.4Z" class="g2_250"/>
<image clip-path="url(#c0_250)" preserveAspectRatio="none" x="201" y="243" width="121" height="121" xlink:href="img/1.jpg"/>
<path d="M194.4,363.9H326.1V243.5H194.4V363.9Z" class="g3_250"/>
<image clip-path="url(#c1_250)" preserveAspectRatio="none" x="488" y="242" width="131" height="123" xlink:href="img/2.jpg"/>
<path d="M489.5,363.9H621.3V243.5H489.5V363.9Z" class="g3_250"/>
<image clip-path="url(#c2_250)" preserveAspectRatio="none" x="347" y="243" width="120" height="121" xlink:href="img/3.jpg"/>
<path d="M341.9,363.9H473.7V243.5H341.9V363.9Z" class="g3_250"/>
<image clip-path="url(#c3_250)" preserveAspectRatio="none" x="637" y="242" width="133" height="123" xlink:href="img/4.jpg"/>
<path d="M637.1,363.9H768.9V243.5H637.1V363.9Z" class="g3_250"/>
<image clip-path="url(#c4_250)" preserveAspectRatio="none" x="194" y="418" width="133" height="121" xlink:href="img/5.jpg"/>
<path d="M194.4,538H326.1V417.6H194.4V538Z" class="g3_250"/>
<image clip-path="url(#c5_250)" preserveAspectRatio="none" x="496" y="418" width="121" height="120" xlink:href="img/6.jpg"/>
<path d="M489.5,538H621.3V417.6H489.5V538Z" class="g3_250"/>
<image clip-path="url(#c6_250)" preserveAspectRatio="none" x="346" y="418" width="121" height="120" xlink:href="img/7.jpg"/>
<path d="M341.9,538H473.7V417.6H341.9V538Z" class="g3_250"/>
<image clip-path="url(#c7_250)" preserveAspectRatio="none" x="636" y="416" width="131" height="123" xlink:href="img/8.jpg"/>
<path d="M637.1,538H768.9V417.6H637.1V538Z" class="g3_250"/>
<image clip-path="url(#c8_250)" preserveAspectRatio="none" x="199" y="590" width="121" height="121" xlink:href="img/9.jpg"/>
<path d="M194.4,710.8H326.1V590.4H194.4V710.8Z" class="g3_250"/>
<image clip-path="url(#c9_250)" preserveAspectRatio="none" x="341" y="589" width="133" height="123" xlink:href="img/10.jpg"/>
<path d="M341.9,710.8H473.7V590.4H341.9V710.8Z" class="g3_250"/>
<path d="M145.1,881.7c0,0,-13,0,-13,13V1188c0,0,0,13,13,13H832.9c0,0,13,0,13,-13V894.7c0,0,0,-13,-13,-13Z" class="g1_250"/>
<path d="M145.1,881.7c0,0,-13,0,-13,13V1188c0,0,0,13,13,13H832.9c0,0,13,0,13,-13V894.7c0,0,0,-13,-13,-13H145.1Z" class="g2_250"/>
<path d="M197,1214.8c0,0,-4.3,0,-4.3,4.4V1230c0,0,0,4.3,4.3,4.3h30.3c0,0,4.4,0,4.4,-4.3v-10.8c0,0,0,-4.4,-4.4,-4.4Z" class="g4_250"/>
<path d="M183.8,1206v37.5m1.4,1H845.1m1,-1.3v-37.6m-1.4,-1H184.8" class="g5_250"/>
<path d="M183.8,1243.9v.6h.6m661.1,0h.6v-.6m0,-38.7v-.6h-.6m-661.1,0h-.6v.6" class="g6_250"/>
<image clip-path="url(#ca_250)" preserveAspectRatio="none" x="191" y="935" width="94" height="97" xlink:href="img/11.jpg"/>
<image clip-path="url(#cb_250)" preserveAspectRatio="none" x="191" y="1071" width="94" height="97" xlink:href="img/12.jpg"/>
<image clip-path="url(#cc_250)" preserveAspectRatio="none" x="213" y="935" width="93" height="97" xlink:href="img/13.jpg"/>
<image clip-path="url(#cd_250)" preserveAspectRatio="none" x="213" y="1071" width="93" height="97" xlink:href="img/14.jpg"/>
<image clip-path="url(#ce_250)" preserveAspectRatio="none" x="314" y="935" width="84" height="85" xlink:href="img/15.jpg"/>
<image clip-path="url(#cf_250)" preserveAspectRatio="none" x="314" y="1069" width="84" height="84" xlink:href="img/16.jpg"/>
<path d="M313.7,1049.9h92v-23.4h-92v23.4ZM313.7,1184.9h92v-23.4h-92v23.4Z" class="g7_250"/>
<image clip-path="url(#cg_250)" preserveAspectRatio="none" x="435" y="935" width="84" height="85" xlink:href="img/17.jpg"/>
<image clip-path="url(#ch_250)" preserveAspectRatio="none" x="435" y="1068" width="93" height="86" xlink:href="img/18.jpg"/>
<path d="M434.8,1049.9h92v-23.4h-92v23.4ZM434.8,1184.9h92v-23.4h-92v23.4Z" class="g7_250"/>
<image clip-path="url(#ci_250)" preserveAspectRatio="none" x="555" y="1068" width="93" height="85" xlink:href="img/19.jpg"/>
<image clip-path="url(#cj_250)" preserveAspectRatio="none" x="555" y="935" width="89" height="86" xlink:href="img/20.jpg"/>
<path d="M555,1049.9h92.1v-23.4H555v23.4ZM555,1184.9h92.1v-23.4H555v23.4Z" class="g7_250"/>
<g clip-path="url(#ck_250)">
<path d="M702.3,1176.2h23.8" class="g8_250"/>
<path d="M702.3,1176.2h23.8" class="g9_250"/>
</g>
<path d="M197.9,1056h88v-18.7h-88V1056Z" class="g1_250"/>
<path d="M676.5,968c0,0,-4.3,0,-4.3,4.4v14.7c0,0,0,4.4,4,5.8l52.5,18.5c0,0,4.1,1.5,4.1,-2.9V972.4c0,0,0,-4.4,-4.3,-4.4Z" class="ga_250"/>
<path d="M697.6,955.1c0,0,-12.9,0,-12.9,12.9v196c0,0,0,13,12.9,13h98c0,0,13,0,13,-13V968c0,0,0,-12.9,-13,-12.9Z" class="gb_250"/>
<path d="M676.5,965.9c0,0,-4.3,0,-4.3,4.3v17.3c0,0,0,4.4,4.3,4.4h37.3c0,0,4.3,0,4.3,-4.4V970.2c0,0,0,-4.3,-4.3,-4.3Z" class="gc_250"/>
<path d="M189.1,936h500V914.6h-500V936Z" class="g1_250"/>
<path d="M194.1,1189.7H282v-18.6H194.1v18.6Z" class="g1_250"/>
<path d="M209.2,183.7c0,0,-13,0,-13,12.9v21.7c0,0,0,13,13,13h602c0,0,13,0,13,-13V196.6c0,0,0,-12.9,-13,-12.9Z" class="gd_250"/>
<image clip-path="url(#cl_250)" preserveAspectRatio="none" x="152" y="154" width="75" height="76" xlink:href="img/21.png"/>
<path d="M204,223.9c0,0,-26.8,11.3,-51.1,-12.7c0,0,15.2,25.3,49.3,23.9c0,0,24.8,.4,20.3,-10.1c0,0,1.2,-4.4,-18.5,-1.1Z" class="gd_250"/>
<path d="M209.2,823.8c0,0,-13,0,-13,13v21.6c0,0,0,13,13,13H830.8c0,0,13,0,13,-13V836.8c0,0,0,-13,-13,-13Z" class="gd_250"/>
<image clip-path="url(#cm_250)" preserveAspectRatio="none" x="152" y="794" width="75" height="76" xlink:href="img/22.png"/>
<path d="M204,864.1c0,0,-26.8,11.3,-51.1,-12.8c0,0,15.2,25.3,49.3,24c0,0,24.8,.3,20.3,-10.2c0,0,1.2,-4.4,-18.5,-1Z" class="gd_250"/>
<path d="M501.5,591.3c0,0,-13,0,-13,13V760.1c0,0,0,13,13,13H811.6c0,0,13,0,13,-13V604.3c0,0,0,-13,-13,-13Z" class="gd_250"/>
<path d="M500.5,604.4c-.4,0,-.7,.1,-.9,.3c-.2,.3,-.3,.5,-.3,.9c0,.3,.1,.6,.3,.8c.2,.2,.5,.3,.9,.3c.3,0,.5,-.1,.8,-.3c.2,-.2,.3,-.5,.3,-.8c0,-.4,-.1,-.6,-.3,-.9c-.3,-.2,-.5,-.3,-.8,-.3Zm0,58c-.4,0,-.7,.2,-.9,.4c-.2,.2,-.3,.5,-.3,.8c0,.3,.1,.6,.3,.8c.2,.3,.5,.4,.9,.4c.3,0,.5,-.1,.8,-.4c.2,-.2,.3,-.5,.3,-.8c0,-.3,-.1,-.6,-.3,-.8c-.3,-.2,-.5,-.4,-.8,-.4Zm0,58.1c-.4,0,-.7,.1,-.9,.3c-.2,.3,-.3,.5,-.3,.9c0,.3,.1,.6,.3,.8c.2,.2,.5,.3,.9,.3c.3,0,.5,-.1,.8,-.3c.2,-.2,.3,-.5,.3,-.8c0,-.4,-.1,-.6,-.3,-.9c-.3,-.2,-.5,-.3,-.8,-.3Z" class="ge_250"/>
<path d="M131.7,126.7v22.2l11.7,10.3V137Z" class="gf_250"/>
<path d="M131.7,109.9v39H829.4c0,0,16.9,0,16.9,-16.8v-5.4c0,0,0,-16.8,-16.9,-16.8Z" class="g4_250"/>
<path d="M189.6,121.3l-6.4,-6.5L162,136l6.4,6.5Z" class="gg_250"/>
<path d="M168.4,143c.2,0,.3,0,.4,-.1L190,121.7c.1,-.1,.2,-.3,.2,-.4c0,-.1,-.1,-.3,-.2,-.4l-6.5,-6.4c-.2,-.2,-.5,-.2,-.7,0l-21.2,21.2c-.1,.1,-.2,.2,-.2,.3c0,.2,.1,.3,.2,.4l6.5,6.5c.1,.1,.2,.1,.3,.1m20.5,-21.7l-20.5,20.5L162.7,136l20.5,-20.4Z" class="gh_250"/>
<path d="M189.6,121.3l-6.4,-6.5l2.1,-2.1l6.5,6.5Z" class="gi_250"/>
<path d="M189.6,121.8c.2,0,.3,0,.4,-.1l2.1,-2.1c.1,-.1,.2,-.3,.2,-.4c0,-.2,-.1,-.3,-.2,-.4l-6.4,-6.5c-.2,-.2,-.6,-.2,-.8,0l-2.1,2.2c-.1,0,-.2,.2,-.2,.3c0,.2,.1,.3,.2,.4l6.5,6.5c.1,.1,.2,.1,.3,.1m1.4,-2.6l-1.4,1.4l-5.7,-5.8l1.4,-1.4Z" class="gh_250"/>
<path d="M195.4,115.6l-6.5,-6.5l-3.6,3.6l6.5,6.5Z" class="gj_250"/>
<path d="M191.8,119.7c.1,0,.2,0,.3,-.1l3.7,-3.7c.2,-.2,.2,-.5,0,-.7l-6.5,-6.5c-.2,-.2,-.6,-.2,-.8,0l-3.6,3.6c-.2,.2,-.2,.6,0,.8l6.5,6.5c.1,.1,.2,.1,.4,.1m2.8,-4.1l-2.8,2.8L186,112.7l2.9,-2.9Z" class="gh_250"/>
<path d="M157.3,147.2L162,136l6.4,6.5Z" class="g1_250"/>
<path d="M157.3,147.7c.1,0,.2,0,.2,-.1L168.6,143c.2,-.1,.3,-.2,.4,-.4c0,-.2,-.1,-.3,-.2,-.5l-6.5,-6.4c-.1,-.2,-.3,-.2,-.5,-.2c-.1,.1,-.3,.2,-.3,.3l-4.7,11.1c0,.2,0,.5,.1,.6c.1,.1,.3,.2,.4,.2m10.2,-5.4l-9.2,3.9l3.8,-9.2Z" class="gh_250"/>
<path d="M157.3,147.2l2.3,-5.4l3.1,3.1Z" class="gh_250"/>
<path d="M157.3,147.7c.1,0,.2,0,.2,-.1l5.4,-2.2c.1,-.1,.3,-.2,.3,-.4c0,-.2,0,-.3,-.1,-.5l-3.2,-3.1c-.1,-.1,-.3,-.2,-.4,-.1c-.2,0,-.4,.1,-.4,.3l-2.3,5.3c0,.2,0,.5,.1,.6c.1,.1,.3,.2,.4,.2m4.5,-3l-3.5,1.5l1.4,-3.5Z" class="gh_250"/>
<path d="M187.9,119.5l-3,-2.9l-21.2,21.2l3,3Z" class="gk_250"/>
<path d="M166.7,141.3c.1,0,.2,-.1,.3,-.2l21.3,-21.2c.1,-.1,.1,-.2,.1,-.4c0,-.1,0,-.2,-.1,-.3l-3,-3c-.2,-.2,-.5,-.2,-.8,0l-21.2,21.2c-.1,.1,-.1,.3,-.1,.4c0,.1,0,.3,.1,.4l3,2.9c.1,.1,.2,.2,.4,.2m20.4,-21.8L166.7,140l-2.2,-2.2l20.4,-20.5Z" class="gh_250"/>
<path d="M32.1,45.1H9.2m958.3,0h22.9M32.1,1331.3H9.2m958.3,0h22.9M45.1,32.1V9.2m0,1335.1v22.9M954.5,32.1V9.2m0,1335.1v22.9" class="gl_250"/>
<path d="M32.1,45.1H9.2m958.3,0h22.9M32.1,1331.3H9.2m958.3,0h22.9M45.1,32.1V9.2m0,1335.1v22.9M954.5,32.1V9.2m0,1335.1v22.9" class="gm_250"/>
<path d="M27.5,32.1H0m972.1,0h27.5M27.5,1344.3H0m972.1,0h27.5M32.1,27.5V0m0,1348.9v27.5M967.5,27.5V0m0,1348.9v27.5" class="gl_250"/>
<path d="M27.5,32.1H0m972.1,0h27.5M27.5,1344.3H0m972.1,0h27.5M32.1,27.5V0m0,1348.9v27.5M967.5,27.5V0m0,1348.9v27.5" class="gm_250"/>
</svg>