<?xml version="1.0" encoding="UTF-8" standalone="no"?>
<!DOCTYPE svg PUBLIC "-//W3C//DTD SVG 1.1//EN"
"http://www.w3.org/Graphics/SVG/1.1/DTD/svg11.dtd">
<svg viewBox="0 0 999 1376" version="1.1" xmlns="http://www.w3.org/2000/svg" xmlns:xlink="http://www.w3.org/1999/xlink">
<defs>
<clipPath id="c0_96"><path d="M326.6,883.1c-.8,0,-1.5,-.2,-2,-.4V747.8c1,-.4,2,-.4,2,-.4H460.8c4.4,0,4.4,4.3,4.4,4.3v127c0,4.4,-4.4,4.4,-4.4,4.4Z"/></clipPath>
<clipPath id="c1_96"><path d="M528.1,883.8v-136c1,-.4,2,-.4,2,-.4H668.7q.1,0,.2,0V883.8Z"/></clipPath>
<clipPath id="c2_96"><path d="M450.7,1084.4V952.5H582.6v131.9Z"/></clipPath>
<clipPath id="c3_96"><path d="M646.7,1084.4V952.5H778.6v131.9Z"/></clipPath>
<clipPath id="c4_96"><path d="M203.3,1090.2V946.3c1,-.4,2,-.4,2,-.4H381.4v144.3Z"/></clipPath>
<clipPath id="c5_96"><path d="M304.6,326.9V251.1h79.1v75.8Z"/></clipPath>
<style type="text/css"><![CDATA[
.g0_96{
fill: none;
stroke: #27639D;
stroke-width: 0.763;
}
.g1_96{
fill: #48484A;
}
.g2_96{
fill: #F0E8F3;
}
.g3_96{
fill: #FFF;
}
.g4_96{
fill: #D1E2EE;
}
.g5_96{
fill: #E9EAEB;
}
.g6_96{
fill: none;
stroke: #93BEDA;
stroke-width: 0.458;
stroke-miterlimit: 10;
}
.g7_96{
fill: #766FA6;
}
.g8_96{
fill: #25408F;
}
.g9_96{
fill: #6381B7;
}
.ga_96{
fill: #F37553;
}
.gb_96{
fill: #363637;
}
.gc_96{
fill: #F0D73F;
}
.gd_96{
fill: #506CB4;
}
.ge_96{
fill: #5CC4BE;
}
.gf_96{
fill: none;
stroke: #8CC63E;
stroke-width: 4.583;
}
.gg_96{
fill: #8CC63E;
}
.gh_96{
fill: none;
stroke: #FFF;
stroke-width: 1.909;
stroke-miterlimit: 10;
}
.gi_96{
fill: none;
stroke: #000;
stroke-width: 0.381;
stroke-miterlimit: 10;
}
]]></style>
</defs>
<path d="M145.1,166.7c0,0,-13,0,-13,13V690c0,0,0,13,13,13H832.9c0,0,13,0,13,-13V179.7c0,0,0,-13,-13,-13H145.1Z" class="g0_96"/>
<path d="M170.7,256.7c0,0,-4.4,0,-4.4,4.4v14.3c0,0,0,4.4,4.1,5.8l52.5,18.2c0,0,4.1,1.5,4.1,-2.9V261.1c0,0,0,-4.4,-4.4,-4.4Z" class="g1_96"/>
<path d="M191.8,243.9c0,0,-13,0,-13,13v63.5c0,0,0,13,13,13H789.4c0,0,13,0,13,-13V256.9c0,0,0,-13,-13,-13Z" class="g2_96"/>
<path d="M326.6,747.4c0,0,-4.4,0,-4.4,4.3v127c0,0,0,4.4,4.4,4.4H460.8c0,0,4.4,0,4.4,-4.4v-127c0,0,0,-4.3,-4.4,-4.3Z" class="g3_96"/>
<image clip-path="url(#c0_96)" preserveAspectRatio="none" x="325" y="746" width="140" height="138" xlink:href="img/1.jpg"/>
<path d="M530.1,747.4c0,0,-4.3,0,-4.3,4.3V886c0,0,0,4.3,4.3,4.3H668.7c0,0,4.3,0,4.3,-4.3V751.7c0,0,0,-4.3,-4.3,-4.3Z" class="g3_96"/>
<image clip-path="url(#c1_96)" preserveAspectRatio="none" x="528" y="746" width="141" height="138" xlink:href="img/2.jpg"/>
<path d="M449.3,948c0,0,-4.4,0,-4.4,4.4v134.2c0,0,0,4.3,4.4,4.3H587.9c0,0,4.3,0,4.3,-4.3V952.4c0,0,0,-4.4,-4.3,-4.4Z" class="g3_96"/>
<image clip-path="url(#c2_96)" preserveAspectRatio="none" x="451" y="953" width="132" height="131" xlink:href="img/3.jpg"/>
<path d="M645.2,948c0,0,-4.3,0,-4.3,4.4v134.2c0,0,0,4.3,4.3,4.3H783.8c0,0,4.4,0,4.4,-4.3V952.4c0,0,0,-4.4,-4.4,-4.4Z" class="g3_96"/>
<image clip-path="url(#c3_96)" preserveAspectRatio="none" x="647" y="953" width="132" height="131" xlink:href="img/4.jpg"/>
<path d="M205.3,945.9c0,0,-4.3,0,-4.3,4.3v142.2c0,0,0,4.3,4.3,4.3H385.8c0,0,4.3,0,4.3,-4.3V950.2c0,0,0,-4.3,-4.3,-4.3Z" class="g3_96"/>
<image clip-path="url(#c4_96)" preserveAspectRatio="none" x="203" y="944" width="178" height="146" xlink:href="img/5.jpg"/>
<path d="M529.6,352.8H802.4v53H529.6v-53Zm-281.5,0H529.6v53H248.1v-53Zm-69.3,0h69.3v53H178.8v-53Z" class="g4_96"/>
<path d="M178.8,617.7h69.3v53H178.8v-53Zm0,-53h69.3v53H178.8v-53Zm0,-53h69.3v53H178.8v-53Zm0,-53h69.3v53H178.8v-53Zm0,-52.9h69.3v52.9H178.8V405.8Z" class="g5_96"/>
<path d="M178.8,352.8h69.3m0,52.7V353m0,-.2H529.6m0,52.7V353m0,-.2H802.4m-623.6,53h69.3m0,52.7V406m0,-.2H529.6m0,52.7V406m0,-.2H802.4M178.8,458.7h69.3m0,52.8V459m0,-.3H529.6m0,52.8V459m0,-.3H802.4m-623.6,53h69.3m0,52.8V511.9m0,-.2H529.6m0,52.8V511.9m0,-.2H802.4m-623.6,53h69.3m0,52.8V564.9m0,-.2H529.6m0,52.8V564.9m0,-.2H802.4m-623.6,53h69.3m-69.3,53h69.3m0,-.3V617.9m0,-.2H529.6m-281.5,53H529.6m0,-.3V617.9m0,-.2H802.4m-272.8,53H802.4" class="g6_96"/>
<image clip-path="url(#c5_96)" preserveAspectRatio="none" x="303" y="249" width="82" height="80" xlink:href="img/6.jpg"/>
<path d="M170.1,254.6c0,0,-4.4,0,-4.4,4.3v16.9c0,0,0,4.4,4.4,4.4h34.5c0,0,4.4,0,4.4,-4.4V258.9c0,0,0,-4.3,-4.4,-4.3Z" class="g7_96"/>
<path d="M132.2,126.3v22.2l11.7,10.2V136.5Z" class="g8_96"/>
<path d="M132.2,109.5v39H829.9c0,0,16.9,0,16.9,-16.8v-5.4c0,0,0,-16.8,-16.9,-16.8Z" class="g9_96"/>
<path d="M166,111.6c.7,-.6,1.7,-.8,2.5,-.6l1.3,-1.3l-6.2,-6.1l-6.1,6.1l-1.3,-1.3c.2,-.8,0,-1.8,-.6,-2.4c-1,-1,-2.6,-1,-3.6,0c-1,1,-1,2.6,0,3.6c.6,.6,1.6,.9,2.4,.6l1.3,1.3l-6.1,6.1l6.1,6.2l-1.3,1.3c-.8,-.3,-1.8,-.1,-2.4,.6c-1,1,-1,2.6,0,3.6c1,1,2.6,1,3.6,0c.6,-.7,.9,-1.6,.6,-2.4l1.3,-1.3l6.1,6.1l6.2,-6.1l-1.3,-1.3c-.9,.2,-1.8,0,-2.5,-.7c-1,-1,-1,-2.6,0,-3.6c1,-1,2.6,-1,3.6,0c.7,.7,.9,1.6,.7,2.5l1.3,1.3l6.1,-6.2l-6.1,-6.1l-1.3,1.3c.2,.8,0,1.8,-.7,2.4c-1,1,-2.6,1,-3.6,0c-1,-.9,-1,-2.6,0,-3.6Z" class="ga_96"/>
<path d="M163.6,132.3l-6.1,-6.2l-.8,.9c.1,.9,-.2,1.9,-.8,2.6c-1.2,1.1,-3.1,1.1,-4.2,0c-1.2,-1.2,-1.2,-3,0,-4.2c.7,-.7,1.6,-1,2.6,-.8l.8,-.8L149,117.6l6.1,-6.1l-.8,-.8c-1,.1,-1.9,-.2,-2.6,-.8c-.6,-.6,-.9,-1.3,-.9,-2.1c0,-.8,.3,-1.5,.9,-2.1c1.1,-1.1,3,-1.1,4.1,0c.7,.7,1,1.7,.9,2.6l.8,.8l6.1,-6.1l6.7,6.7l-1.7,1.7h-.2c-.7,-.2,-1.5,0,-2.1,.5c-.8,.9,-.8,2.2,0,3.1c.9,.8,2.2,.8,3.1,0c.5,-.6,.7,-1.4,.5,-2.1v-.2l1.7,-1.7l6.7,6.6l-6.7,6.7l-1.8,-1.7l.1,-.2c.2,-.8,0,-1.5,-.6,-2.1c-.4,-.4,-.9,-.6,-1.5,-.6c-.5,0,-1.1,.2,-1.5,.6c-.8,.8,-.8,2.2,0,3c.5,.6,1.3,.8,2.1,.6l.2,-.1l1.7,1.8ZM157.5,125l6.1,6.1l5.6,-5.5l-.8,-.9c-1,.2,-2,-.1,-2.7,-.8c-.5,-.5,-.8,-1.3,-.8,-2.1c0,-.7,.3,-1.5,.8,-2c.6,-.6,1.3,-.9,2.1,-.9c.8,0,1.6,.3,2.1,.9c.7,.6,1,1.6,.8,2.6l.9,.8l5.5,-5.6l-5.5,-5.5l-.9,.8c.2,1,-.1,1.9,-.8,2.6c-1.1,1.2,-3,1.2,-4.1,0c-1.2,-1.1,-1.2,-3,0,-4.1c.6,-.7,1.6,-1,2.6,-.8l.8,-.9l-5.6,-5.6l-6.1,6.2l-1.7,-1.7v-.3c.2,-.7,0,-1.5,-.5,-2c-.9,-.9,-2.2,-.9,-3.1,0c-.4,.4,-.6,.9,-.6,1.5c0,.6,.2,1.1,.6,1.5c.6,.5,1.4,.8,2.1,.6l.2,-.1l1.8,1.7l-6.2,6.1l6.2,6.2l-1.8,1.7l-.2,-.1c-.7,-.2,-1.5,.1,-2,.6c-.9,.8,-.9,2.2,0,3c.8,.9,2.2,.9,3,0c.5,-.5,.7,-1.3,.5,-2v-.3Z" class="gb_96"/>
<path d="M196.6,122.1c.9,0,1.8,.5,2.2,1.3h1.8v-8.7h-8.7v-1.8c.8,-.4,1.3,-1.2,1.3,-2.2c0,-1.4,-1.1,-2.5,-2.5,-2.5c-1.5,0,-2.6,1.1,-2.6,2.5c0,1,.5,1.8,1.3,2.2v1.8h-8.7v8.7h-1.8c-.4,-.8,-1.2,-1.3,-2.2,-1.3c-1.4,0,-2.5,1.2,-2.5,2.6c0,1.4,1.1,2.5,2.5,2.5c1,0,1.8,-.5,2.2,-1.2h1.8v8.6h8.7v-1.8c-.8,-.4,-1.3,-1.2,-1.3,-2.2c0,-1.4,1.2,-2.5,2.6,-2.5c1.4,0,2.5,1.1,2.5,2.5c0,1,-.5,1.8,-1.3,2.2v1.8h8.7V126h-1.8c-.4,.7,-1.2,1.2,-2.2,1.2c-1.4,0,-2.5,-1.1,-2.5,-2.5c0,-1.4,1.1,-2.6,2.5,-2.6Z" class="gc_96"/>
<path d="M201,135h-9.5v-2.4l.2,-.1c.7,-.4,1.1,-1.1,1.1,-1.9c0,-1.2,-1,-2.1,-2.1,-2.1c-1.2,0,-2.2,.9,-2.2,2.1c0,.8,.4,1.5,1.1,1.9l.2,.1V135h-9.5v-8.6h-1.2c-.5,.7,-1.4,1.2,-2.4,1.2c-1.6,0,-2.9,-1.3,-2.9,-2.9c0,-1.6,1.3,-3,2.9,-3c1,0,1.9,.5,2.4,1.3h1.2v-8.7H189v-1.1c-.8,-.6,-1.3,-1.5,-1.3,-2.5c0,-1.6,1.3,-2.9,3,-2.9c1.6,0,2.9,1.3,2.9,2.9c0,1,-.5,1.9,-1.3,2.5v1.1H201v9.5h-2.4l-.1,-.2c-.4,-.6,-1.1,-1.1,-1.9,-1.1c-.6,0,-1.1,.3,-1.5,.7c-.4,.4,-.6,.9,-.6,1.5c0,1.2,.9,2.1,2.1,2.1c.8,0,1.5,-.4,1.9,-1l.1,-.2H201Zm-8.7,-.8h7.9v-7.8H199c-.5,.7,-1.4,1.2,-2.4,1.2c-1.6,0,-2.9,-1.3,-2.9,-2.9c0,-.8,.3,-1.5,.8,-2.1c.6,-.5,1.3,-.9,2.1,-.9c1,0,1.9,.5,2.4,1.3h1.2v-7.9h-8.7v-2.4l.2,-.1c.7,-.4,1.1,-1.1,1.1,-1.9c0,-1.2,-1,-2.1,-2.1,-2.1c-1.2,0,-2.2,.9,-2.2,2.1c0,.8,.4,1.5,1.1,1.9l.2,.1v2.4h-8.7v8.7h-2.4l-.1,-.2c-.4,-.6,-1.1,-1.1,-1.9,-1.1c-1.2,0,-2.1,1,-2.1,2.2c0,1.2,.9,2.1,2.1,2.1c.8,0,1.5,-.4,1.9,-1l.1,-.2h2.4v8.6H189V133c-.8,-.5,-1.3,-1.4,-1.3,-2.4c0,-1.6,1.3,-2.9,3,-2.9c1.6,0,2.9,1.3,2.9,2.9c0,1,-.5,1.9,-1.3,2.4Z" class="gb_96"/>
<path d="M176.7,142c1,0,1.8,.5,2.2,1.3h1.8v-8.7H172v-1.8c.8,-.4,1.3,-1.2,1.3,-2.2c0,-1.4,-1.1,-2.5,-2.5,-2.5c-1.4,0,-2.6,1.1,-2.6,2.5c0,1,.5,1.8,1.3,2.2v1.8h-8.7v8.7H159c-.4,-.8,-1.2,-1.3,-2.2,-1.3c-1.4,0,-2.5,1.2,-2.5,2.6c0,1.4,1.1,2.5,2.5,2.5c1,0,1.8,-.5,2.2,-1.2h1.8v8.6h8.7v-1.8c-.8,-.4,-1.3,-1.2,-1.3,-2.2c0,-1.4,1.2,-2.5,2.6,-2.5c1.4,0,2.5,1.1,2.5,2.5c0,1,-.5,1.8,-1.3,2.2v1.8h8.7v-8.7h-1.8c-.4,.8,-1.2,1.3,-2.2,1.3c-1.4,0,-2.5,-1.1,-2.5,-2.5c0,-1.4,1.1,-2.6,2.5,-2.6Z" class="gd_96"/>
<path d="M181.1,154.9h-9.5v-2.4l.2,-.1c.7,-.4,1.1,-1.1,1.1,-1.9c0,-1.2,-1,-2.1,-2.1,-2.1c-1.2,0,-2.2,.9,-2.2,2.1c0,.8,.4,1.5,1.1,1.9l.2,.1v2.4h-9.5v-8.6h-1.2c-.5,.7,-1.4,1.2,-2.4,1.2c-1.6,0,-2.9,-1.3,-2.9,-2.9c0,-1.6,1.3,-3,2.9,-3c1,0,1.9,.5,2.4,1.3h1.2v-8.7h8.7V133c-.8,-.5,-1.3,-1.4,-1.3,-2.4c0,-1.6,1.3,-2.9,3,-2.9c1.6,0,2.9,1.3,2.9,2.9c0,1,-.5,1.9,-1.3,2.4v1.2h8.7v9.5h-2.4l-.1,-.2c-.4,-.7,-1.1,-1.1,-1.9,-1.1c-1.2,0,-2.1,1,-2.1,2.2c0,1.1,.9,2.1,2.1,2.1c.8,0,1.5,-.4,1.9,-1.1l.1,-.2h2.4Zm-8.7,-.8h7.9v-7.9h-1.2c-.5,.8,-1.4,1.3,-2.4,1.3c-1.6,0,-2.9,-1.3,-2.9,-2.9c0,-1.6,1.3,-3,2.9,-3c1,0,1.9,.5,2.4,1.3h1.2V135h-8.7v-2.4l.2,-.1c.7,-.4,1.1,-1.1,1.1,-1.9c0,-1.2,-1,-2.1,-2.1,-2.1c-1.2,0,-2.2,.9,-2.2,2.1c0,.8,.4,1.5,1.1,1.9l.2,.1V135h-8.7v8.7h-2.4l-.1,-.2c-.4,-.7,-1.1,-1.1,-1.9,-1.1c-1.2,0,-2.1,1,-2.1,2.2c0,1.2,.9,2.1,2.1,2.1c.8,0,1.5,-.4,1.9,-1l.1,-.2h2.4v8.6h7.9v-1.2c-.8,-.5,-1.3,-1.4,-1.3,-2.4c0,-1.6,1.3,-2.9,3,-2.9c1.6,0,2.9,1.3,2.9,2.9c0,1,-.5,1.9,-1.3,2.4Z" class="gb_96"/>
<path d="M196.6,142c.9,0,1.8,.5,2.2,1.3h1.8v-8.7h-8.7v-1.8c.8,-.4,1.3,-1.2,1.3,-2.2c0,-1.4,-1.1,-2.5,-2.5,-2.5c-1.5,0,-2.6,1.1,-2.6,2.5c0,1,.5,1.8,1.3,2.2v1.8h-8.7v8.7h-1.8c-.4,-.8,-1.2,-1.3,-2.2,-1.3c-1.4,0,-2.5,1.2,-2.5,2.6c0,1.4,1.1,2.5,2.5,2.5c1,0,1.8,-.5,2.2,-1.2h1.8v8.6h8.7v-1.8c-.8,-.4,-1.3,-1.2,-1.3,-2.2c0,-1.4,1.2,-2.5,2.6,-2.5c1.4,0,2.5,1.1,2.5,2.5c0,1,-.5,1.8,-1.3,2.2v1.8h8.7v-8.7h-1.8c-.4,.8,-1.2,1.3,-2.2,1.3c-1.4,0,-2.5,-1.1,-2.5,-2.5c0,-1.4,1.1,-2.6,2.5,-2.6Z" class="ge_96"/>
<path d="M201,154.9h-9.5v-2.4l.2,-.1c.7,-.4,1.1,-1.1,1.1,-1.9c0,-1.2,-1,-2.1,-2.1,-2.1c-1.2,0,-2.2,.9,-2.2,2.1c0,.8,.4,1.5,1.1,1.9l.2,.1v2.4h-9.5v-8.6h-1.2c-.5,.7,-1.4,1.2,-2.4,1.2c-1.6,0,-2.9,-1.3,-2.9,-2.9c0,-1.6,1.3,-3,2.9,-3c1,0,1.9,.5,2.4,1.3h1.2v-8.7H189V133c-.8,-.5,-1.3,-1.4,-1.3,-2.4c0,-1.6,1.3,-2.9,3,-2.9c1.6,0,2.9,1.3,2.9,2.9c0,1,-.5,1.9,-1.3,2.4v1.2H201v9.5h-2.4l-.1,-.2c-.4,-.7,-1.1,-1.1,-1.9,-1.1c-.6,0,-1.1,.3,-1.5,.7c-.4,.4,-.6,.9,-.6,1.5c0,1.1,.9,2.1,2.1,2.1c.8,0,1.5,-.4,1.9,-1.1l.1,-.2H201Zm-8.7,-.8h7.9v-7.9H199c-.5,.8,-1.4,1.3,-2.4,1.3c-1.6,0,-2.9,-1.3,-2.9,-2.9c0,-.8,.3,-1.5,.8,-2.1c.6,-.6,1.3,-.9,2.1,-.9c1,0,1.9,.5,2.4,1.3h1.2V135h-8.7v-2.4l.2,-.1c.7,-.4,1.1,-1.1,1.1,-1.9c0,-1.2,-1,-2.1,-2.1,-2.1c-1.2,0,-2.2,.9,-2.2,2.1c0,.8,.4,1.5,1.1,1.9l.2,.1V135h-8.7v8.7h-2.4l-.1,-.2c-.4,-.7,-1.1,-1.1,-1.9,-1.1c-1.2,0,-2.1,1,-2.1,2.2c0,1.2,.9,2.1,2.1,2.1c.8,0,1.5,-.4,1.9,-1l.1,-.2h2.4v8.6H189v-1.2c-.8,-.5,-1.3,-1.4,-1.3,-2.4c0,-1.6,1.3,-2.9,3,-2.9c1.6,0,2.9,1.3,2.9,2.9c0,1,-.5,1.9,-1.3,2.4Z" class="gb_96"/>
<path d="M474.7,819.4h62.1" class="gf_96"/>
<path d="M549.6,819.4l-21.2,-7.7c0,0,8.4,7.7,0,15.4l21.2,-7.7Z" class="gg_96"/>
<path d="M386.3,1014.2h44" class="gf_96"/>
<path d="M443.1,1014.2l-21.2,-7.7c0,0,8.4,7.7,0,15.4l21.2,-7.7Z" class="gg_96"/>
<path d="M563.3,1014.2h44" class="gf_96"/>
<path d="M620.1,1014.2l-21.2,-7.7c0,0,8.4,7.7,0,15.4l21.2,-7.7Z" class="gg_96"/>
<path d="M32.1,45.1H9.2m958.3,0h22.9M32.1,1331.3H9.2m958.3,0h22.9M45.1,32.1V9.2m0,1335.1v22.9M954.5,32.1V9.2m0,1335.1v22.9" class="gh_96"/>
<path d="M32.1,45.1H9.2m958.3,0h22.9M32.1,1331.3H9.2m958.3,0h22.9M45.1,32.1V9.2m0,1335.1v22.9M954.5,32.1V9.2m0,1335.1v22.9" class="gi_96"/>
<path d="M27.5,32.1H0m972.1,0h27.5M27.5,1344.3H0m972.1,0h27.5M32.1,27.5V0m0,1348.9v27.5M967.5,27.5V0m0,1348.9v27.5" class="gh_96"/>
<path d="M27.5,32.1H0m972.1,0h27.5M27.5,1344.3H0m972.1,0h27.5M32.1,27.5V0m0,1348.9v27.5M967.5,27.5V0m0,1348.9v27.5" class="gi_96"/>
</svg>