<?xml version="1.0" encoding="UTF-8" standalone="no"?>
<!DOCTYPE svg PUBLIC "-//W3C//DTD SVG 1.1//EN"
"http://www.w3.org/Graphics/SVG/1.1/DTD/svg11.dtd">
<svg viewBox="0 0 999 1376" version="1.1" xmlns="http://www.w3.org/2000/svg" xmlns:xlink="http://www.w3.org/1999/xlink">
<defs>
<clipPath id="c0_164"><path d="M32.1,1344.3V32.1H967.5V1344.3Z"/></clipPath>
<clipPath id="c1_164"><path d="M537,1131.3v-61.9h61.9v61.9Z"/></clipPath>
<clipPath id="c2_164"><path d="M537,1064.1v-61.9h61.9v61.9Z"/></clipPath>
<clipPath id="c3_164"><path d="M206.4,1129.8v-61.9h61.9v61.9Z"/></clipPath>
<clipPath id="c4_164"><path d="M206.3,1063.2v-53.5h62.6v53.5Z"/></clipPath>
<clipPath id="c5_164"><path d="M251.3,975.4V909.1h62.8v66.3Z"/></clipPath>
<clipPath id="c6_164"><path d="M176.6,810l-6.5,-2.1L153.7,794V736.9h72V810Z"/></clipPath>
<clipPath id="c7_164"><path d="M178.4,137.2c.1,-1.3,.7,-2.5,1.6,-3.4c1,-1,2.4,-1.6,3.9,-1.6h19.2v5Z"/></clipPath>
<clipPath id="c8_164"><path d="M177.9,137.7v-6h25.7v6Z"/></clipPath>
<style type="text/css"><![CDATA[
.g0_164{
fill: #FEFCF4;
}
.g1_164{
fill: #FFF;
}
.g2_164{
fill: none;
stroke: #6381B7;
stroke-width: 0.763;
}
.g3_164{
fill: #48484A;
}
.g4_164{
fill: #EFEAF4;
}
.g5_164{
fill: #AE8EC2;
}
.g6_164{
fill: none;
stroke: #231F20;
stroke-width: 0.305;
stroke-miterlimit: 10;
}
.g7_164{
fill: #6381B7;
}
.g8_164{
fill: none;
stroke: #6381B7;
stroke-width: 0.381;
stroke-dasharray: 2,1;
}
.g9_164{
fill: none;
stroke: #6381B7;
stroke-width: 0.381;
}
.ga_164{
fill: #DCE9F3;
}
.gb_164{
fill: #BEE4E8;
}
.gc_164{
fill: none;
stroke: #58595B;
stroke-width: 0.381;
stroke-miterlimit: 10;
}
.gd_164{
fill: #FCE8B0;
}
.ge_164{
fill: #25408F;
}
.gf_164{
fill: none;
stroke: #231F20;
stroke-width: 1.527;
}
.gg_164{
fill: #39B4D1;
stroke: #2D2A4A;
stroke-width: 1.038;
stroke-linecap: round;
stroke-linejoin: round;
}
.gh_164{
fill: #2D2A4A;
}
.gi_164{
fill: none;
stroke: #2D2A4A;
stroke-width: 1.038;
stroke-linecap: round;
stroke-linejoin: round;
}
.gj_164{
fill: #DEDAD3;
}
.gk_164{
fill: #29263F;
}
.gl_164{
fill: #E15F46;
stroke: #2D2A4A;
stroke-width: 1.038;
stroke-linecap: round;
stroke-linejoin: round;
}
.gm_164{
fill: #F7F8E9;
}
.gn_164{
fill: none;
stroke: #BFD62F;
stroke-width: 1.527;
stroke-linecap: round;
stroke-linejoin: round;
stroke-dasharray: 0,5;
}
.go_164{
fill: none;
stroke: #BFD62F;
stroke-width: 1.527;
stroke-linecap: round;
stroke-linejoin: round;
}
.gp_164{
fill: #BFD62F;
}
.gq_164{
fill: #D1232A;
}
.gr_164{
fill: #233D4A;
}
.gs_164{
fill: #FFE293;
}
.gt_164{
fill: #F89C47;
}
.gu_164{
fill: none;
stroke: #FFF;
stroke-width: 1.909;
stroke-miterlimit: 10;
}
.gv_164{
fill: none;
stroke: #000;
stroke-width: 0.381;
stroke-miterlimit: 10;
}
]]></style>
</defs>
<path clip-path="url(#c0_164)" d="M954.5,1344.3H1877V32.1H954.5V1344.3Z" class="g0_164"/>
<path d="M145.1,825c0,0,-13,0,-13,13v285.5c0,0,0,13,13,13H832.9c0,0,13,0,13,-13V838c0,0,0,-13,-13,-13Z" class="g1_164"/>
<path d="M145.1,825c0,0,-13,0,-13,13v285.5c0,0,0,13,13,13H832.9c0,0,13,0,13,-13V838c0,0,0,-13,-13,-13H145.1Z" class="g2_164"/>
<path d="M163.4,916.3c0,0,-4.3,0,-4.3,4.3v14.8c0,0,0,4.3,4.1,5.7l52.5,18.6c0,0,4,1.4,4,-2.9V920.6c0,0,0,-4.3,-4.3,-4.3Z" class="g3_164"/>
<path d="M184.6,903.3c0,0,-13,0,-13,13v56.3c0,0,0,13,13,13H790c0,0,12.9,0,12.9,-13V916.3c0,0,0,-13,-12.9,-13Z" class="g4_164"/>
<path d="M163.4,914.1c0,0,-4.3,0,-4.3,4.4v17.3c0,0,0,4.3,4.3,4.3h37.3c0,0,4.4,0,4.4,-4.3V918.5c0,0,0,-4.4,-4.4,-4.4Z" class="g5_164"/>
<path d="M280.2,995.5c0,0,-4.9,0,-4.9,9v49.8c0,0,0,9,4.9,9H568.5c0,0,4.9,0,4.9,-9v-49.8c0,0,0,-9,-4.9,-9Z" class="g1_164"/>
<path d="M315.4,1023H465.8m-150.4,24.5H465.8" class="g6_164"/>
<path d="M611,995.5c0,0,-3.7,0,-3.7,9v49.8c0,0,0,9,3.7,9H825.7c0,0,3.6,0,3.6,-9v-49.8c0,0,0,-9,-3.6,-9Z" class="g1_164"/>
<path d="M647.4,1023H797.9m-150.5,24.5H797.9" class="g6_164"/>
<path d="M611,1063.3c0,0,-3.7,0,-3.7,8.5v46.9c0,0,0,8.5,3.7,8.5H827.7c0,0,3.7,0,3.7,-8.5v-46.9c0,0,0,-8.5,-3.7,-8.5Z" class="g1_164"/>
<path d="M647.4,1090.9H797.9m-150.5,24.4H797.9" class="g6_164"/>
<path d="M279.7,1063.3c0,0,-4.4,0,-4.4,9v49.8c0,0,0,9,4.4,9H539.4c0,0,4.4,0,4.4,-9v-49.8c0,0,0,-9,-4.4,-9Z" class="g1_164"/>
<path d="M315.4,1090.9H465.8m-150.4,24.4H465.8" class="g6_164"/>
<path d="M172.8,887.4H816.4V867.7H172.8v19.7Z" class="g1_164"/>
<path d="M529.4,1131.5h77.9V1002.7H529.4v128.8Z" class="g1_164"/>
<image clip-path="url(#c1_164)" preserveAspectRatio="none" x="537" y="1069" width="62" height="62" xlink:href="img/1.jpg"/>
<image clip-path="url(#c2_164)" preserveAspectRatio="none" x="537" y="1002" width="62" height="62" xlink:href="img/2.jpg"/>
<image clip-path="url(#c3_164)" preserveAspectRatio="none" x="206" y="1068" width="62" height="62" xlink:href="img/3.jpg"/>
<image clip-path="url(#c4_164)" preserveAspectRatio="none" x="206" y="1001" width="62" height="62" xlink:href="img/4.jpg"/>
<path d="M355,937h67.7M355,964.5H477.7" class="g6_164"/>
<image clip-path="url(#c5_164)" preserveAspectRatio="none" x="250" y="909" width="66" height="66" xlink:href="img/5.png"/>
<path d="M316.6,1154.1c0,0,-4.4,0,-4.4,4.4v10.8c0,0,0,4.3,4.4,4.3h30.3c0,0,4.3,0,4.3,-4.3v-10.8c0,0,0,-4.4,-4.3,-4.4Z" class="g7_164"/>
<path d="M303.4,1146.6v54.9m1.3,.9H845.1m1,-1.3v-54.9m-1.4,-.9H304.3" class="g8_164"/>
<path d="M303.4,1201.9v.5h.5m541.6,0h.6v-.5m0,-56.1v-.5h-.6m-541.6,0h-.5v.5" class="g9_164"/>
<path d="M149,162c0,0,-17.3,0,-17.3,17.3V413.2c0,0,0,17.3,17.3,17.3H828.9c0,0,17.4,0,17.4,-17.3V179.3c0,0,0,-17.3,-17.4,-17.3Z" class="ga_164"/>
<path d="M209.6,233.6H426.2v30.3H209.6V233.6Zm216.6,0H772.6v30.3H426.2V233.6Z" class="gb_164"/>
<path d="M209.6,263.9H426.2v43.3H209.6V263.9Zm216.6,0H772.6v43.3H426.2V263.9Z" class="g1_164"/>
<path d="M209.6,233.6H426.2m0,0H772.6M426.2,263.7V233.8M209.6,263.9H426.2m0,0H772.6M426.2,307V264.1M209.6,307.2H426.2m0,0H772.6" class="gc_164"/>
<path d="M209.2,765c0,0,-13,0,-13,13v21.7c0,0,0,13,13,13H830.8c0,0,13,0,13,-13V778c0,0,0,-13,-13,-13Z" class="gd_164"/>
<image clip-path="url(#c6_164)" preserveAspectRatio="none" x="152" y="735" width="75" height="77" xlink:href="img/6.png"/>
<path d="M204,805.3c0,0,-26.8,11.3,-51.1,-12.8c0,0,15.2,25.4,49.3,24c0,0,24.8,.3,20.3,-10.1c0,0,1.2,-4.5,-18.5,-1.1Z" class="gd_164"/>
<path d="M131.7,109.5v39l11.7,10.2V136.5Z" class="ge_164"/>
<path d="M131.7,109.5v39H829.5c0,0,16.8,0,16.8,-16.8v-5.4c0,0,0,-16.8,-16.8,-16.8Z" class="g7_164"/>
<path d="M768.8,131c0,0,-.5,-10,8.6,-9.4c0,0,6.7,-.3,6.6,9.5m-15.3,-1.5v6.5c0,0,-3.3,.3,-3.9,-3c0,0,-.1,-3.8,3.9,-3.5Zm15.4,0v6.5c0,0,3.3,.3,3.9,-3c0,0,.1,-3.8,-3.9,-3.5Z" class="gf_164"/>
<path d="M147.4,140.8h61v-32h-61v32Z" class="gg_164"/>
<path d="M147.4,143.1h61v-2.3h-61v2.3Z" class="gg_164"/>
<path d="M171.8,106.2H152.1v31.5h25.8V112.3c0,-3.4,-2.7,-6.1,-6.1,-6.1Z" class="g1_164"/>
<path d="M171.8,106.2v-.5H152.1c-.1,0,-.3,.1,-.4,.2c-.1,.1,-.1,.2,-.1,.3v31.5c0,.1,0,.3,.1,.4c.1,.1,.3,.1,.4,.1h25.8c.1,0,.2,0,.3,-.1c.1,-.1,.2,-.3,.2,-.4V112.3c0,-3.7,-2.9,-6.6,-6.6,-6.6v1c1.6,0,2.9,.7,3.9,1.7c1,1,1.6,2.3,1.6,3.9v24.9H152.6V106.7h19.2Z" class="gh_164"/>
<path d="M152.1,131.7v6h25.8c0,-3.3,-2.7,-6,-6.1,-6Z" class="g1_164"/>
<path d="M152.1,131.7h-.5v6c0,.1,0,.3,.1,.4c.1,.1,.3,.1,.4,.1h25.8c.1,0,.2,0,.3,-.1c.1,-.1,.2,-.3,.2,-.4c0,-3.6,-3,-6.6,-6.6,-6.6H152.1c-.1,0,-.3,.1,-.4,.2c-.1,.1,-.1,.2,-.1,.4h.5v.5h19.7c1.6,0,2.9,.6,3.9,1.6c1,1,1.6,2.4,1.6,3.9h.6v-.5H152.6v-5.5h-.5v.5Z" class="gh_164"/>
<path d="M155.6,110.9h17.2m-17.2,2.8h17.2m-17.2,2.9h17.2m-17.2,2.9h17.2m-17.2,2.8h17.2m-17.2,2.9h17.2M155.6,128h17.2" class="gi_164"/>
<path d="M171.8,132.2H152.6v5h24.7c-.1,-1.3,-.7,-2.5,-1.6,-3.4c-1,-1,-2.3,-1.6,-3.9,-1.6Z" class="gj_164"/>
<path d="M152.6,132.2h19.2c1.6,0,2.9,.6,3.9,1.6c.9,.9,1.5,2.1,1.6,3.4H152.6Zm19.2,-.5H152.1v6h25.2v-2.5c-.9,-2.1,-3,-3.5,-5.5,-3.5Z" class="gk_164"/>
<path d="M183.9,106.2h19.7v31.5H177.9V112.3c0,-3.4,2.7,-6.1,6,-6.1Z" class="g1_164"/>
<path d="M183.9,106.2v.5h19.2v30.5H178.4V112.3c0,-1.6,.6,-2.9,1.6,-3.9c1,-1,2.4,-1.7,3.9,-1.7v-1c-3.6,0,-6.6,2.9,-6.6,6.6v25.4c0,.1,.1,.3,.2,.4c.1,.1,.2,.1,.4,.1h25.7c.2,0,.3,0,.4,-.1c.1,-.1,.1,-.3,.1,-.4V106.2c0,-.1,0,-.2,-.1,-.3c-.1,-.1,-.2,-.2,-.4,-.2H183.9Z" class="gh_164"/>
<path d="M203.6,131.7v6H177.9c0,-3.3,2.7,-6,6,-6Z" class="g1_164"/>
<path d="M203.6,131.7h-.5v5.5H177.9v.5h.5c0,-1.5,.6,-2.9,1.6,-3.9c1,-1,2.4,-1.6,3.9,-1.6h19.7v-.5h-.5h.5v-.6H183.9c-3.6,0,-6.6,3,-6.6,6.6c0,.1,.1,.3,.2,.4c.1,.1,.2,.1,.4,.1h25.7c.2,0,.3,0,.4,-.1c.1,-.1,.1,-.3,.1,-.4v-6c0,-.2,0,-.3,-.1,-.4c-.1,-.1,-.2,-.2,-.4,-.2Z" class="gh_164"/>
<path d="M200.1,110.9H182.9m17.2,2.8H182.9m17.2,2.9H182.9m17.2,2.9H182.9m17.2,2.8H182.9m17.2,2.9H182.9m17.2,2.8H182.9" class="gi_164"/>
<path clip-path="url(#c7_164)" d="M178.4,137.2h24.7v-5H178.4v5Z" class="gj_164"/>
<path clip-path="url(#c8_164)" d="M178.4,137.2c.1,-1.3,.7,-2.5,1.6,-3.4c1,-1,2.4,-1.6,3.9,-1.6h19.2v5Zm25.2,-5.5H183.9c-3.3,0,-6,2.7,-6,6h25.7v-6h-.5h.5Z" class="gk_164"/>
<path d="M177.9,108.8v34.3" class="gi_164"/>
<path d="M195.5,145.5h3.3V134.7h-3.3v10.8Z" class="gl_164"/>
<path d="M132.5,632.7h713V489.6h-713V632.7Z" class="gm_164"/>
<path d="M132.5,494.2V630.4m4.5,2.3H843.2m2.3,-4.6V491.9m-4.6,-2.3H134.7" class="gn_164"/>
<path d="M132.5,632.7v0m713,0v0m0,-143.1v0m-713,0v0" class="go_164"/>
<path d="M131.7,492.8V464.2c0,0,0,-8.7,8.6,-8.7H837.6c0,0,8.7,0,8.7,8.7v29.1Z" class="gp_164"/>
<path d="M153.3,516.3c0,0,4.8,5.5,6.1,12.3c0,0,6.7,-11.3,11.7,-13.9c0,0,-9.3,4.9,-11.1,8.2c0,0,-1.9,-4.3,-6.7,-6.6Z" class="gq_164"/>
<path d="M161.8,484.4l2.9,3l8.2,-8.2l-3,-2.9Z" class="g1_164"/>
<path d="M164.7,488.4v0c.3,0,.6,-.1,.7,-.3l8.2,-8.2c.2,-.2,.3,-.4,.3,-.7c0,-.2,-.1,-.5,-.3,-.7l-3,-2.9c-.4,-.4,-1,-.4,-1.4,0l-8.1,8.1c-.4,.4,-.4,1,0,1.4l2.9,3c.2,.2,.5,.3,.7,.3m6.8,-9.2l-6.8,6.8l-1.5,-1.6l6.7,-6.7Z" class="gr_164"/>
<path d="M168.3,457.4c-6.5,6.6,-6.5,17.2,0,23.7c6.6,6.5,17.2,6.5,23.7,0c6.5,-6.5,6.5,-17.1,0,-23.7c-6.5,-6.5,-17.1,-6.5,-23.7,0Z" class="gs_164"/>
<path d="M180.2,487c4.7,0,9.2,-1.8,12.5,-5.2c6.9,-6.9,6.9,-18.2,0,-25.1c-3.3,-3.3,-7.8,-5.2,-12.5,-5.2c-4.8,0,-9.2,1.9,-12.6,5.2c-6.9,6.9,-6.9,18.2,0,25.1c3.4,3.4,7.8,5.2,12.6,5.2m0,-33.5c4.2,0,8.1,1.7,11.1,4.6c6.2,6.2,6.2,16.2,0,22.3c-3,3,-6.9,4.6,-11.1,4.6C176,485,172,483.4,169,480.4c-6.1,-6.1,-6.1,-16.1,0,-22.3c3,-2.9,7,-4.6,11.2,-4.6Z" class="gr_164"/>
<path d="M154.3,489.6l5.3,5.2l8.1,-8.2l-5.2,-5.2Z" class="gt_164"/>
<path d="M159.6,495.8c.2,0,.5,-.1,.7,-.3l8.1,-8.2c.2,-.2,.3,-.4,.3,-.7c0,-.2,-.1,-.5,-.3,-.7l-5.2,-5.2c-.4,-.4,-1,-.4,-1.4,0l-8.2,8.2c-.4,.4,-.4,1,0,1.4l5.3,5.2c.2,.2,.4,.3,.7,.3m6.7,-9.2l-6.7,6.8l-3.9,-3.8l6.8,-6.8Z" class="gr_164"/>
<path d="M168.1,469.4c0,6.6,5.4,11.9,12,11.9c6.6,0,11.9,-5.3,11.9,-11.9c0,-6.6,-5.3,-12,-11.9,-12c-6.6,0,-12,5.4,-12,12Z" class="g1_164"/>
<path d="M180.1,482.1c7,0,12.7,-5.7,12.7,-12.7c0,-7.1,-5.7,-12.8,-12.7,-12.8c-7.1,0,-12.8,5.7,-12.8,12.8c0,7,5.7,12.7,12.8,12.7m0,-23.9c6.1,0,11.1,5,11.1,11.2c0,6.1,-5,11.1,-11.1,11.1c-6.2,0,-11.2,-5,-11.2,-11.1c0,-6.2,5,-11.2,11.2,-11.2Z" class="gr_164"/>
<path d="M32.1,45.1H9.2m958.3,0h22.9M32.1,1331.3H9.2m958.3,0h22.9M45.1,32.1V9.2m0,1335.1v22.9M954.5,32.1V9.2m0,1335.1v22.9" class="gu_164"/>
<path d="M32.1,45.1H9.2m958.3,0h22.9M32.1,1331.3H9.2m958.3,0h22.9M45.1,32.1V9.2m0,1335.1v22.9M954.5,32.1V9.2m0,1335.1v22.9" class="gv_164"/>
<path d="M27.5,32.1H0m972.1,0h27.5M27.5,1344.3H0m972.1,0h27.5M32.1,27.5V0m0,1348.9v27.5M967.5,27.5V0m0,1348.9v27.5" class="gu_164"/>
<path d="M27.5,32.1H0m972.1,0h27.5M27.5,1344.3H0m972.1,0h27.5M32.1,27.5V0m0,1348.9v27.5M967.5,27.5V0m0,1348.9v27.5" class="gv_164"/>
</svg>