<?xml version="1.0" encoding="UTF-8" standalone="no"?>
<!DOCTYPE svg PUBLIC "-//W3C//DTD SVG 1.1//EN"
"http://www.w3.org/Graphics/SVG/1.1/DTD/svg11.dtd">
<svg viewBox="0 0 999 1376" version="1.1" xmlns="http://www.w3.org/2000/svg" xmlns:xlink="http://www.w3.org/1999/xlink">
<defs>
<clipPath id="c0_272"><path d="M32.1,1344.3V32.1H967.5V1344.3Z"/></clipPath>
<clipPath id="c1_272"><path d="M179,802.5l-6.5,-2.2L156.2,786.4V729.3h71.9v73.2Z"/></clipPath>
<clipPath id="c2_272"><path d="M178.4,137.2c.1,-1.3,.7,-2.5,1.6,-3.4c1,-1,2.4,-1.6,3.9,-1.6h19.2v5Z"/></clipPath>
<clipPath id="c3_272"><path d="M177.9,137.7v-6h25.7v6Z"/></clipPath>
<style type="text/css"><![CDATA[
.g0_272{
fill: #FEFCF4;
}
.g1_272{
fill: #FFF;
}
.g2_272{
fill: none;
stroke: #6381B7;
stroke-width: 0.763;
}
.g3_272{
fill: none;
stroke: #231F20;
stroke-width: 0.305;
stroke-miterlimit: 10;
}
.g4_272{
fill: #DCE9F3;
}
.g5_272{
fill: #9BD1EA;
}
.g6_272{
fill: none;
stroke: #58595B;
stroke-width: 0.381;
stroke-miterlimit: 10;
}
.g7_272{
fill: #6381B7;
}
.g8_272{
fill: none;
stroke: #6381B7;
stroke-width: 0.381;
stroke-dasharray: 2,1;
}
.g9_272{
fill: none;
stroke: #6381B7;
stroke-width: 0.381;
}
.ga_272{
fill: #FCE8B0;
}
.gb_272{
fill: #25408F;
}
.gc_272{
fill: none;
stroke: #231F20;
stroke-width: 1.527;
}
.gd_272{
fill: #39B4D1;
stroke: #2D2A4A;
stroke-width: 1.038;
stroke-linecap: round;
stroke-linejoin: round;
}
.ge_272{
fill: #2D2A4A;
}
.gf_272{
fill: none;
stroke: #2D2A4A;
stroke-width: 1.038;
stroke-linecap: round;
stroke-linejoin: round;
}
.gg_272{
fill: #DEDAD3;
}
.gh_272{
fill: #29263F;
}
.gi_272{
fill: #E15F46;
stroke: #2D2A4A;
stroke-width: 1.038;
stroke-linecap: round;
stroke-linejoin: round;
}
.gj_272{
fill: none;
stroke: #FFF;
stroke-width: 1.909;
stroke-miterlimit: 10;
}
.gk_272{
fill: none;
stroke: #000;
stroke-width: 0.381;
stroke-miterlimit: 10;
}
]]></style>
</defs>
<path clip-path="url(#c0_272)" d="M954.5,1344.3H1877V32.1H954.5V1344.3Z" class="g0_272"/>
<path d="M145.1,818c0,0,-13,0,-13,13v343.1c0,0,0,13,13,13H832.9c0,0,13,0,13,-13V831c0,0,0,-13,-13,-13Z" class="g1_272"/>
<path d="M145.1,818c0,0,-13,0,-13,13v343.1c0,0,0,13,13,13H832.9c0,0,13,0,13,-13V831c0,0,0,-13,-13,-13H145.1Z" class="g2_272"/>
<path d="M318.7,936.7h39.2M215.4,974.9H636.5M327.4,1034h51.5m-163.5,22.9H636.5M465.1,1116h39.2m-288.9,38.2H636.5" class="g3_272"/>
<path d="M149,166.3c0,0,-17.3,0,-17.3,17.4V504.1c0,0,0,17.4,17.3,17.4H828.9c0,0,17.4,0,17.4,-17.4V183.7c0,0,0,-17.4,-17.4,-17.4Z" class="g4_272"/>
<path d="M214.7,213.5H467.8v30.3H214.7V213.5Zm253.1,0H763.2v30.3H467.8V213.5Z" class="g5_272"/>
<path d="M214.7,243.8H467.8v73H214.7v-73Zm253.1,0H763.2v73H467.8v-73Z" class="g1_272"/>
<path d="M214.7,213.5H467.8m0,0H763.2M467.8,243.6V213.7M214.7,243.8H467.8m0,0H763.2M467.8,316.6V244M214.7,316.8H467.8m0,0H763.2" class="g6_272"/>
<path d="M578.4,1201.8c0,0,-4.3,0,-4.3,4.4V1217c0,0,0,4.3,4.3,4.3h30.4c0,0,4.3,0,4.3,-4.3v-10.8c0,0,0,-4.4,-4.3,-4.4Z" class="g7_272"/>
<path d="M565.3,1193v37.5m1.3,1H845.1m1,-1.3v-37.6m-1.4,-.9H566.2" class="g8_272"/>
<path d="M565.3,1230.9v.6h.5m279.7,0h.6v-.6m0,-38.7v-.5h-.6m-279.7,0h-.5v.5" class="g9_272"/>
<path d="M211.7,757.5c0,0,-13,0,-13,13v21.6c0,0,0,13,13,13H833.3c0,0,13,0,13,-13V770.5c0,0,0,-13,-13,-13Z" class="ga_272"/>
<image clip-path="url(#c1_272)" preserveAspectRatio="none" x="155" y="728" width="75" height="76" xlink:href="img/1.png"/>
<path d="M206.5,797.7c0,0,-26.9,11.4,-51.1,-12.7c0,0,15.1,25.3,49.3,24c0,0,24.7,.3,20.2,-10.2c0,0,1.2,-4.4,-18.4,-1.1Z" class="ga_272"/>
<path d="M131.7,109.5v39l11.7,10.2V136.5Z" class="gb_272"/>
<path d="M131.7,109.5v39H829.5c0,0,16.8,0,16.8,-16.8v-5.4c0,0,0,-16.8,-16.8,-16.8Z" class="g7_272"/>
<path d="M768.8,131c0,0,-.5,-10,8.6,-9.4c0,0,6.7,-.3,6.6,9.5m-15.3,-1.5v6.5c0,0,-3.3,.3,-3.9,-3c0,0,-.1,-3.8,3.9,-3.5Zm15.4,0v6.5c0,0,3.3,.3,3.9,-3c0,0,.1,-3.8,-3.9,-3.5Z" class="gc_272"/>
<path d="M147.4,140.8h61v-32h-61v32Z" class="gd_272"/>
<path d="M147.4,143.1h61v-2.3h-61v2.3Z" class="gd_272"/>
<path d="M171.8,106.2H152.1v31.5h25.8V112.3c0,-3.4,-2.7,-6.1,-6.1,-6.1Z" class="g1_272"/>
<path d="M171.8,106.2v-.5H152.1c-.1,0,-.3,.1,-.4,.2c-.1,.1,-.1,.2,-.1,.3v31.5c0,.1,0,.3,.1,.4c.1,.1,.3,.1,.4,.1h25.8c.1,0,.2,0,.3,-.1c.1,-.1,.2,-.3,.2,-.4V112.3c0,-3.7,-2.9,-6.6,-6.6,-6.6v1c1.6,0,2.9,.7,3.9,1.7c1,1,1.6,2.3,1.6,3.9v24.9H152.6V106.7h19.2Z" class="ge_272"/>
<path d="M152.1,131.7v6h25.8c0,-3.3,-2.7,-6,-6.1,-6Z" class="g1_272"/>
<path d="M152.1,131.7h-.5v6c0,.1,0,.3,.1,.4c.1,.1,.3,.1,.4,.1h25.8c.1,0,.2,0,.3,-.1c.1,-.1,.2,-.3,.2,-.4c0,-3.6,-3,-6.6,-6.6,-6.6H152.1c-.1,0,-.3,.1,-.4,.2c-.1,.1,-.1,.2,-.1,.4h.5v.5h19.7c1.6,0,2.9,.6,3.9,1.6c1,1,1.6,2.4,1.6,3.9h.6v-.5H152.6v-5.5h-.5v.5Z" class="ge_272"/>
<path d="M155.6,110.9h17.2m-17.2,2.8h17.2m-17.2,2.9h17.2m-17.2,2.9h17.2m-17.2,2.8h17.2m-17.2,2.9h17.2M155.6,128h17.2" class="gf_272"/>
<path d="M171.8,132.2H152.6v5h24.7c-.1,-1.3,-.7,-2.5,-1.6,-3.4c-1,-1,-2.3,-1.6,-3.9,-1.6Z" class="gg_272"/>
<path d="M152.6,132.2h19.2c1.6,0,2.9,.6,3.9,1.6c.9,.9,1.5,2.1,1.6,3.4H152.6Zm19.2,-.5H152.1v6h25.2v-2.5c-.9,-2.1,-3,-3.5,-5.5,-3.5Z" class="gh_272"/>
<path d="M183.9,106.2h19.7v31.5H177.9V112.3c0,-3.4,2.7,-6.1,6,-6.1Z" class="g1_272"/>
<path d="M183.9,106.2v.5h19.2v30.5H178.4V112.3c0,-1.6,.6,-2.9,1.6,-3.9c1,-1,2.4,-1.7,3.9,-1.7v-1c-3.6,0,-6.6,2.9,-6.6,6.6v25.4c0,.1,.1,.3,.2,.4c.1,.1,.2,.1,.4,.1h25.7c.2,0,.3,0,.4,-.1c.1,-.1,.1,-.3,.1,-.4V106.2c0,-.1,0,-.2,-.1,-.3c-.1,-.1,-.2,-.2,-.4,-.2H183.9Z" class="ge_272"/>
<path d="M203.6,131.7v6H177.9c0,-3.3,2.7,-6,6,-6Z" class="g1_272"/>
<path d="M203.6,131.7h-.5v5.5H177.9v.5h.5c0,-1.5,.6,-2.9,1.6,-3.9c1,-1,2.4,-1.6,3.9,-1.6h19.7v-.5h-.5h.5v-.6H183.9c-3.6,0,-6.6,3,-6.6,6.6c0,.1,.1,.3,.2,.4c.1,.1,.2,.1,.4,.1h25.7c.2,0,.3,0,.4,-.1c.1,-.1,.1,-.3,.1,-.4v-6c0,-.2,0,-.3,-.1,-.4c-.1,-.1,-.2,-.2,-.4,-.2Z" class="ge_272"/>
<path d="M200.1,110.9H182.9m17.2,2.8H182.9m17.2,2.9H182.9m17.2,2.9H182.9m17.2,2.8H182.9m17.2,2.9H182.9m17.2,2.8H182.9" class="gf_272"/>
<path clip-path="url(#c2_272)" d="M178.4,137.2h24.7v-5H178.4v5Z" class="gg_272"/>
<path clip-path="url(#c3_272)" d="M178.4,137.2c.1,-1.3,.7,-2.5,1.6,-3.4c1,-1,2.4,-1.6,3.9,-1.6h19.2v5Zm25.2,-5.5H183.9c-3.3,0,-6,2.7,-6,6h25.7v-6h-.5h.5Z" class="gh_272"/>
<path d="M177.9,108.8v34.3" class="gf_272"/>
<path d="M195.5,145.5h3.3V134.7h-3.3v10.8Z" class="gi_272"/>
<path d="M32.1,45.1H9.2m958.3,0h22.9M32.1,1331.3H9.2m958.3,0h22.9M45.1,32.1V9.2m0,1335.1v22.9M954.5,32.1V9.2m0,1335.1v22.9" class="gj_272"/>
<path d="M32.1,45.1H9.2m958.3,0h22.9M32.1,1331.3H9.2m958.3,0h22.9M45.1,32.1V9.2m0,1335.1v22.9M954.5,32.1V9.2m0,1335.1v22.9" class="gk_272"/>
<path d="M27.5,32.1H0m972.1,0h27.5M27.5,1344.3H0m972.1,0h27.5M32.1,27.5V0m0,1348.9v27.5M967.5,27.5V0m0,1348.9v27.5" class="gj_272"/>
<path d="M27.5,32.1H0m972.1,0h27.5M27.5,1344.3H0m972.1,0h27.5M32.1,27.5V0m0,1348.9v27.5M967.5,27.5V0m0,1348.9v27.5" class="gk_272"/>
</svg>