<?xml version="1.0" encoding="UTF-8" standalone="no"?>
<!DOCTYPE svg PUBLIC "-//W3C//DTD SVG 1.1//EN"
"http://www.w3.org/Graphics/SVG/1.1/DTD/svg11.dtd">
<svg viewBox="0 0 999 1376" version="1.1" xmlns="http://www.w3.org/2000/svg" xmlns:xlink="http://www.w3.org/1999/xlink">
<defs>
<clipPath id="c0_191"><path d="M32.1,1344.3V32.1H967.5V1344.3Z"/></clipPath>
<clipPath id="c1_191"><path d="M278.5,800.8V720.7h56.3v80.1Z"/></clipPath>
<clipPath id="c2_191"><path d="M220,1135.7v-70.2h73.3v70.2Z"/></clipPath>
<clipPath id="c3_191"><path d="M223.4,1051.6V981.9h76.7v69.7Z"/></clipPath>
<clipPath id="c4_191"><path d="M220,968.5V898.9h74.1v69.6Z"/></clipPath>
<clipPath id="c5_191"><path d="M220,888.2V814.1h73.3v74.1Z"/></clipPath>
<clipPath id="c6_191"><path d="M198.2,616.2l-6.5,-2.1L175.4,600.2V543.1h71.9v73.1Z"/></clipPath>
<clipPath id="c7_191"><path d="M200.1,137.2c.1,-1.3,.7,-2.5,1.6,-3.4c1,-1,2.3,-1.6,3.9,-1.6h19.2v5Z"/></clipPath>
<clipPath id="c8_191"><path d="M199.5,137.7v-6h25.8v6Z"/></clipPath>
<style type="text/css"><![CDATA[
.g0_191{
fill: #FEFCF4;
}
.g1_191{
fill: #FFF;
}
.g2_191{
fill: none;
stroke: #6381B7;
stroke-width: 0.763;
}
.g3_191{
fill: #48484A;
}
.g4_191{
fill: #F0E8F3;
}
.g5_191{
fill: #766FA6;
}
.g6_191{
fill: none;
stroke: #231F20;
stroke-width: 0.458;
stroke-miterlimit: 10;
}
.g7_191{
fill: none;
stroke: #231F20;
stroke-width: 0.381;
stroke-miterlimit: 10;
}
.g8_191{
fill: #6381B7;
}
.g9_191{
fill: none;
stroke: #6381B7;
stroke-width: 0.381;
stroke-dasharray: 2,1;
}
.ga_191{
fill: none;
stroke: #6381B7;
stroke-width: 0.381;
}
.gb_191{
fill: #FCE8B0;
}
.gc_191{
fill: #DCE9F3;
}
.gd_191{
fill: #9BD1EA;
}
.ge_191{
fill: none;
stroke: #58595B;
stroke-width: 0.381;
stroke-miterlimit: 10;
}
.gf_191{
fill: #25408F;
}
.gg_191{
fill: none;
stroke: #231F20;
stroke-width: 1.527;
}
.gh_191{
fill: #39B4D1;
stroke: #2D2A4A;
stroke-width: 1.038;
stroke-linecap: round;
stroke-linejoin: round;
}
.gi_191{
fill: #2D2A4A;
}
.gj_191{
fill: none;
stroke: #2D2A4A;
stroke-width: 1.038;
stroke-linecap: round;
stroke-linejoin: round;
}
.gk_191{
fill: #DEDAD3;
}
.gl_191{
fill: #29263F;
}
.gm_191{
fill: #E15F46;
stroke: #2D2A4A;
stroke-width: 1.038;
stroke-linecap: round;
stroke-linejoin: round;
}
.gn_191{
fill: none;
stroke: #FFF;
stroke-width: 1.909;
stroke-miterlimit: 10;
}
.go_191{
fill: none;
stroke: #000;
stroke-width: 0.381;
stroke-miterlimit: 10;
}
]]></style>
</defs>
<path clip-path="url(#c0_191)" d="M-877.3,1344.3H45.1V32.1H-877.3V1344.3Z" class="g0_191"/>
<path d="M166.7,635.3c0,0,-13,0,-13,13v484.3c0,0,0,13,13,13H854.5c0,0,13,0,13,-13V648.3c0,0,0,-13,-13,-13Z" class="g1_191"/>
<path d="M166.7,635.3c0,0,-13,0,-13,13v484.3c0,0,0,13,13,13H854.5c0,0,13,0,13,-13V648.3c0,0,0,-13,-13,-13H166.7Z" class="g2_191"/>
<path d="M193.9,734.4c0,0,-4.3,0,-4.3,4.3v14.8c0,0,0,4.3,4.1,5.7l52.4,18.6c0,0,4.1,1.4,4.1,-2.9V738.7c0,0,0,-4.3,-4.3,-4.3Z" class="g3_191"/>
<path d="M215.1,721.4c0,0,-13,0,-13,13v53.7c0,0,0,13,13,13H820.4c0,0,13,0,13,-13V734.4c0,0,0,-13,-13,-13Z" class="g4_191"/>
<path d="M193.9,732.2c0,0,-4.3,0,-4.3,4.4v17.3c0,0,0,4.3,4.3,4.3h37.3c0,0,4.3,0,4.3,-4.3V736.6c0,0,0,-4.4,-4.3,-4.4Z" class="g5_191"/>
<path d="M192.3,696.6H650.8V683.1H192.3v13.5Z" class="g1_191"/>
<path d="M377.7,784.2h81.9" class="g6_191"/>
<path d="M328.4,875.3H563.2M328.4,955.5H563.2m-234.8,80.2H563.2m-234.8,80.2H563.2" class="g7_191"/>
<image clip-path="url(#c1_191)" preserveAspectRatio="none" x="277" y="719" width="60" height="84" xlink:href="img/1.png"/>
<image clip-path="url(#c2_191)" preserveAspectRatio="none" x="219" y="1064" width="74" height="71" xlink:href="img/2.jpg"/>
<image clip-path="url(#c3_191)" preserveAspectRatio="none" x="223" y="981" width="77" height="71" xlink:href="img/3.jpg"/>
<image clip-path="url(#c4_191)" preserveAspectRatio="none" x="216" y="899" width="78" height="70" xlink:href="img/4.jpg"/>
<image clip-path="url(#c5_191)" preserveAspectRatio="none" x="219" y="814" width="74" height="74" xlink:href="img/5.jpg"/>
<path d="M344,1161.9c0,0,-4.3,0,-4.3,4.4v10.8c0,0,0,4.3,4.3,4.3h30.4c0,0,4.3,0,4.3,-4.3v-10.8c0,0,0,-4.4,-4.3,-4.4Z" class="g8_191"/>
<path d="M330.9,1153.1v37.6m1.3,.9H866.5m1,-1.3v-37.6m-1.4,-.9H331.8" class="g9_191"/>
<path d="M330.9,1191v.6h.5m535.5,0h.6v-.6m0,-38.7v-.5h-.6m-535.5,0h-.5v.5" class="ga_191"/>
<path d="M230.9,545.3c0,0,-13,0,-13,13v47.6c0,0,0,13,13,13H854.2c0,0,13,0,13,-13V558.3c0,0,0,-13,-13,-13Z" class="gb_191"/>
<image clip-path="url(#c6_191)" preserveAspectRatio="none" x="174" y="542" width="75" height="76" xlink:href="img/6.png"/>
<path d="M225.7,611.5c0,0,-26.9,11.3,-51.1,-12.7c0,0,15.1,25.3,49.3,23.9c0,0,24.7,.4,20.2,-10.1c0,0,1.2,-4.4,-18.4,-1.1Z" class="gb_191"/>
<path d="M170.7,165.3c0,0,-17.4,0,-17.4,17.3v283c0,0,0,17.3,17.4,17.3H850.3c0,0,17.4,0,17.4,-17.3v-283c0,0,0,-17.3,-17.4,-17.3Z" class="gc_191"/>
<path d="M211,262.4H470.9v30.1H211V262.4Zm259.9,0H817.3v30.1H470.9V262.4Z" class="gd_191"/>
<path d="M211,292.6H470.9v53.5H211V292.6Zm259.9,0H817.3v53.5H470.9V292.6Z" class="g1_191"/>
<path d="M211,262.4H470.9m0,0H817.3m-346.4,30V262.6M211,292.6H470.9m0,0H817.3M470.9,345.9V292.7M211,346.1H470.9m0,0H817.3" class="ge_191"/>
<path d="M153.3,109.5v39L165,158.7V136.5Z" class="gf_191"/>
<path d="M153.3,109.5v39H851.1c0,0,16.8,0,16.8,-16.8v-5.4c0,0,0,-16.8,-16.8,-16.8Z" class="g8_191"/>
<path d="M790.4,131c0,0,-.5,-10,8.6,-9.4c0,0,6.8,-.3,6.7,9.5m-15.3,-1.5v6.5c0,0,-3.4,.3,-3.9,-3c0,0,-.1,-3.8,3.9,-3.5Zm15.3,0v6.5c0,0,3.4,.3,4,-3c0,0,0,-3.8,-4,-3.5Z" class="gg_191"/>
<path d="M169,140.8h61v-32H169v32Z" class="gh_191"/>
<path d="M169,143.1h61v-2.3H169v2.3Z" class="gh_191"/>
<path d="M193.5,106.2H173.8v31.5h25.7V112.3c0,-3.4,-2.7,-6.1,-6,-6.1Z" class="g1_191"/>
<path d="M193.5,106.2v-.5H173.8c-.2,0,-.3,.1,-.4,.2c-.1,.1,-.2,.2,-.2,.3v31.5c0,.1,.1,.3,.2,.4c.1,.1,.2,.1,.4,.1h25.7c.2,0,.3,0,.4,-.1c.1,-.1,.1,-.3,.1,-.4V112.3c0,-3.7,-2.9,-6.6,-6.5,-6.6v1c1.5,0,2.9,.7,3.9,1.7c1,1,1.6,2.3,1.6,3.9v24.9H174.3V106.7h19.2Z" class="gi_191"/>
<path d="M173.8,131.7v6h25.7c0,-3.3,-2.7,-6,-6,-6Z" class="g1_191"/>
<path d="M173.8,131.7h-.6v6c0,.1,.1,.3,.2,.4c.1,.1,.2,.1,.4,.1h25.7c.2,0,.3,0,.4,-.1c.1,-.1,.1,-.3,.1,-.4c0,-3.6,-2.9,-6.6,-6.5,-6.6H173.8c-.2,0,-.3,.1,-.4,.2c-.1,.1,-.2,.2,-.2,.4h.6v.5h19.7c1.5,0,2.9,.6,3.9,1.6c1,1,1.6,2.4,1.6,3.9h.5v-.5H174.3v-5.5h-.5v.5Z" class="gi_191"/>
<path d="M177.3,110.9h17.2m-17.2,2.8h17.2m-17.2,2.9h17.2m-17.2,2.9h17.2m-17.2,2.8h17.2m-17.2,2.9h17.2M177.3,128h17.2" class="gj_191"/>
<path d="M193.5,132.2H174.3v5H199c-.1,-1.3,-.7,-2.5,-1.6,-3.4c-1,-1,-2.4,-1.6,-3.9,-1.6Z" class="gk_191"/>
<path d="M174.3,132.2h19.2c1.5,0,2.9,.6,3.9,1.6c.9,.9,1.5,2.1,1.6,3.4H174.3Zm19.2,-.5H173.8v6H199v-2.5c-.9,-2.1,-3.1,-3.5,-5.5,-3.5Z" class="gl_191"/>
<path d="M205.6,106.2h19.7v31.5H199.5V112.3c0,-3.4,2.7,-6.1,6.1,-6.1Z" class="g1_191"/>
<path d="M205.6,106.2v.5h19.2v30.5H200V112.3c0,-1.6,.7,-2.9,1.7,-3.9c1,-1,2.3,-1.7,3.9,-1.7v-1c-3.7,0,-6.6,2.9,-6.6,6.6v25.4c0,.1,.1,.3,.2,.4c0,.1,.2,.1,.3,.1h25.8c.1,0,.2,0,.3,-.1c.1,-.1,.2,-.3,.2,-.4V106.2c0,-.1,-.1,-.2,-.2,-.3c-.1,-.1,-.2,-.2,-.3,-.2H205.6Z" class="gi_191"/>
<path d="M225.3,131.7v6H199.5c0,-3.3,2.7,-6,6.1,-6Z" class="g1_191"/>
<path d="M225.3,131.7h-.5v5.5H199.5v.5h.5c0,-1.5,.7,-2.9,1.7,-3.9c1,-1,2.3,-1.6,3.9,-1.6h19.7v-.5h-.5h.5v-.6H205.6c-3.7,0,-6.6,3,-6.6,6.6c0,.1,.1,.3,.2,.4c0,.1,.2,.1,.3,.1h25.8c.1,0,.2,0,.3,-.1c.1,-.1,.2,-.3,.2,-.4v-6c0,-.2,-.1,-.3,-.2,-.4c-.1,-.1,-.2,-.2,-.3,-.2Z" class="gi_191"/>
<path d="M221.8,110.9H204.6m17.2,2.8H204.6m17.2,2.9H204.6m17.2,2.9H204.6m17.2,2.8H204.6m17.2,2.9H204.6m17.2,2.8H204.6" class="gj_191"/>
<path clip-path="url(#c7_191)" d="M200.1,137.2h24.7v-5H200.1v5Z" class="gk_191"/>
<path clip-path="url(#c8_191)" d="M200.1,137.2c.1,-1.3,.7,-2.5,1.6,-3.4c1,-1,2.3,-1.6,3.9,-1.6h19.2v5Zm25.2,-5.5H205.6c-3.4,0,-6.1,2.7,-6.1,6h25.8v-6h-.5h.5Z" class="gl_191"/>
<path d="M199.5,108.8v34.3" class="gj_191"/>
<path d="M217.2,145.5h3.3V134.7h-3.3v10.8Z" class="gm_191"/>
<path d="M32.1,45.1H9.2m958.3,0h22.9M32.1,1331.3H9.2m958.3,0h22.9M45.1,32.1V9.2m0,1335.1v22.9M954.5,32.1V9.2m0,1335.1v22.9" class="gn_191"/>
<path d="M32.1,45.1H9.2m958.3,0h22.9M32.1,1331.3H9.2m958.3,0h22.9M45.1,32.1V9.2m0,1335.1v22.9M954.5,32.1V9.2m0,1335.1v22.9" class="go_191"/>
<path d="M27.5,32.1H0m972.1,0h27.5M27.5,1344.3H0m972.1,0h27.5M32.1,27.5V0m0,1348.9v27.5M967.5,27.5V0m0,1348.9v27.5" class="gn_191"/>
<path d="M27.5,32.1H0m972.1,0h27.5M27.5,1344.3H0m972.1,0h27.5M32.1,27.5V0m0,1348.9v27.5M967.5,27.5V0m0,1348.9v27.5" class="go_191"/>
</svg>