<?xml version="1.0" encoding="UTF-8" standalone="no"?>
<!DOCTYPE svg PUBLIC "-//W3C//DTD SVG 1.1//EN"
"http://www.w3.org/Graphics/SVG/1.1/DTD/svg11.dtd">
<svg viewBox="0 0 999 1376" version="1.1" xmlns="http://www.w3.org/2000/svg" xmlns:xlink="http://www.w3.org/1999/xlink">
<defs>
<clipPath id="c0_213"><path d="M727.5,689V419H934.8V689Z"/></clipPath>
<clipPath id="c1_213"><path d="M727.7,688.4V420.5H934.5V688.4Z"/></clipPath>
<clipPath id="c2_213"><path d="M727.4,688.1V420.2H934.2V688.1Z"/></clipPath>
<clipPath id="c3_213"><path d="M199.2,254.6l-6.5,-2.1L176.3,238.6V181.5h72v73.1Z"/></clipPath>
<clipPath id="c4_213"><path d="M198.6,878.8l-6.5,-2.1L175.7,862.8V805.7h72v73.1Z"/></clipPath>
<clipPath id="c5_213"><path d="M89.6,660.5V389.4H315.1V660.5Z"/></clipPath>
<clipPath id="c6_213"><path d="M98.7,654V394.4H310.5V654Z"/></clipPath>
<clipPath id="c7_213"><path d="M98.4,653.7V394.1H310.1V653.7Z"/></clipPath>
<clipPath id="c8_213"><path d="M193.5,406.7c-.2,-.1,3.6,-8.2,3.6,-8.2l.8,.5c0,0,-4.1,7.7,-4.4,7.7Z"/></clipPath>
<clipPath id="c9_213"><path d="M201,399c0,0,-6.8,-1.1,-7.6,-5.3c-.6,-3.6,1.6,-3.8,2.1,-3.8q.1,0,.1,0L204,377.2l-1.5,-3.1c0,0,-.6,-1.1,.1,-2.1c.1,0,.2,-.1,.4,-.1c2.1,0,12.9,5.6,12.9,5.6l.1,.1c-.4,.5,-.8,1.2,-1.4,1.7c-.7,.5,-5.1,1.1,-5.1,1.1L201,399Z"/></clipPath>
<clipPath id="ca_213"><path d="M200.6,398.6c.2,-.4,.2,-1.8,0,-2.2V395c-1.5,-.6,-2.9,-1.3,-3.6,-2.5c-1.1,.5,-2.2,1.2,-3.2,1.8c1.6,2.2,3.9,3.6,6.8,4.3Zm0,-3.9c2.2,-4.5,4,-9.5,6.2,-14.1c-.9,-.3,-1.9,-1.3,-2.7,-1.3c-2.3,4.3,-4.6,8.6,-7,12.8c.7,1.3,2.1,2,3.5,2.6Zm-7.3,12.1c1.1,-2.9,2.4,-5.5,3.6,-8.3c-2,-1.5,-4,-3.1,-4.4,-6.2v-1.5c-.1,-2.7,1.9,-3.4,4.5,-3.4c.1,0,.2,0,.2,0c2,-3.3,4.2,-6.3,6.2,-9.6c-.6,-.9,-1.2,-2.4,-.9,-3.7c.5,1.3,1.6,1.9,2.4,2.9c-.1,.6,-.3,1.1,-.4,1.8c.6,.6,1.3,1.1,2.4,1.3c.5,-.4,.5,-1.2,1.1,-1.5c1,.4,1.9,.8,3.2,.8c.1,.1,.4,.1,.8,.1c.3,0,.7,0,.8,-.1c.1,0,.2,0,.3,0c.2,0,.4,0,.6,-.1c.2,-.1,.4,-.1,.6,-.1c.1,0,.2,0,.3,.1c-1.4,.6,-2.2,1.7,-4.2,1.7c-.1,0,-.2,0,-.4,0c-.8,3.8,-1.8,7.4,-2.6,11.2c.5,1.1,1.5,1.7,1.3,3.1c-.5,2.8,-3.9,4.4,-7.2,4.4c-1.3,0,-2.6,-.2,-3.6,-.7c-1,2.1,-2.1,4.1,-3.3,6c0,-.3,.3,-.4,.2,-.7c1,-1.8,2,-3.6,2.7,-5.7c-1.1,1.7,-1.9,3.7,-2.8,5.5c-.2,.5,-.4,.9,-.6,1.3c-.3,.4,-.3,1.1,-.8,1.4Z"/></clipPath>
<clipPath id="cb_213"><path d="M211.1,379c-4.8,0,-13.1,-7.3,-5.6,-8.8h1.3c.1,.1,.3,.1,.5,.1q.1,0,.2,0c.3,0,.6,0,1,0c3.1,.7,8.3,3.8,7.6,7.1c-.3,1.1,-1.6,1.6,-3.2,1.6h-1.7q-.1,0,-.1,0Z"/></clipPath>
<clipPath id="cc_213"><path d="M825.7,434.7c-.3,0,3.5,-8.2,3.5,-8.2l.8,.5c0,0,-4,7.7,-4.3,7.7Z"/></clipPath>
<clipPath id="cd_213"><path d="M833.2,427c0,0,-6.9,-1.1,-7.6,-5.2c-.7,-3.6,1.5,-3.8,2.1,-3.8q.1,0,.1,0l8.3,-12.8l-1.4,-3c0,0,-.6,-1.2,.1,-2.1c0,-.1,.2,-.1,.3,-.1c2.1,0,13,5.5,13,5.5v.2c-.3,.5,-.7,1.1,-1.4,1.6c-.6,.5,-5.1,1.2,-5.1,1.2L833.2,427Z"/></clipPath>
<clipPath id="ce_213"><path d="M832.8,426.7c.2,-.5,.2,-1.8,0,-2.3V423c-1.6,-.5,-2.9,-1.2,-3.7,-2.5c-1.1,.6,-2.1,1.2,-3.1,1.9c1.5,2.1,3.8,3.5,6.8,4.3Zm0,-3.9c2.2,-4.6,4,-9.5,6.1,-14.1c-.9,-.4,-1.8,-1.3,-2.6,-1.4c-2.3,4.3,-4.6,8.6,-7,12.8c.7,1.4,2,2,3.5,2.7Zm-7.3,12c1,-2.9,2.4,-5.4,3.5,-8.3c-2,-1.5,-3.9,-3.1,-4.4,-6.1v-1.5c0,-2.7,1.9,-3.4,4.6,-3.4q.1,0,.2,0c1.9,-3.3,4.2,-6.3,6.1,-9.7c-.5,-.9,-1.1,-2.3,-.8,-3.6c.5,1.2,1.6,1.9,2.3,2.9c-.1,.6,-.2,1.1,-.3,1.7c.6,.7,1.3,1.2,2.4,1.4c.4,-.4,.5,-1.2,1.1,-1.5c.9,.3,1.8,.7,3.1,.7c.2,.2,.5,.2,.8,.2c.4,0,.7,0,.9,-.2c.1,.1,.2,.1,.3,.1c.2,0,.4,-.1,.6,-.2c.2,0,.3,-.1,.5,-.1c.1,0,.2,0,.3,.1c-1.3,.7,-2.2,1.8,-4.1,1.8c-.2,0,-.3,0,-.4,0c-.9,3.7,-1.9,7.3,-2.6,11.2c.5,1,1.5,1.6,1.2,3.1c-.4,2.7,-3.8,4.4,-7.2,4.4c-1.3,0,-2.5,-.2,-3.6,-.8c-1,2.1,-2.1,4.2,-3.3,6.1c0,-.4,.3,-.4,.3,-.8c.9,-1.8,1.9,-3.6,2.6,-5.6c-1,1.7,-1.8,3.7,-2.7,5.5c-.2,.4,-.5,.8,-.7,1.3c-.3,.4,-.3,1.1,-.7,1.3Z"/></clipPath>
<clipPath id="cf_213"><path d="M843.2,407.1c-4.8,0,-13.1,-7.3,-5.5,-8.8h1.2c.2,0,.5,0,.7,0c.1,0,.2,0,.2,0c.3,0,.6,0,.9,.1c3.1,.6,8.2,3.8,7.5,7c-.2,1.2,-1.5,1.6,-3.1,1.7h-1.9Z"/></clipPath>
<clipPath id="cg_213"><path d="M734,1168.1v-88.3h86.2v88.3Z"/></clipPath>
<clipPath id="ch_213"><path d="M733.3,1168.6v-89.4h87.1v89.4Z"/></clipPath>
<clipPath id="ci_213"><path d="M199.4,1168.1v-88.3h84.4v88.3Z"/></clipPath>
<clipPath id="cj_213"><path d="M198.6,1168.6v-89.4h85.6v89.4Z"/></clipPath>
<clipPath id="ck_213"><path d="M378.3,1168.1v-88.3H464v88.3Z"/></clipPath>
<clipPath id="cl_213"><path d="M378.1,1168.6v-89.4h86.3v89.4Z"/></clipPath>
<clipPath id="cm_213"><path d="M556.2,1168.1v-88.3H642v88.3Z"/></clipPath>
<clipPath id="cn_213"><path d="M556.1,1168.6v-89.4h86.3v89.4Z"/></clipPath>
<clipPath id="co_213"><path d="M786.5,132.5V120.1H801v12.4Z"/></clipPath>
<style type="text/css"><![CDATA[
.g0_213{
fill: #FFF;
}
.g1_213{
fill: none;
stroke: #6381B7;
stroke-width: 0.763;
}
.g2_213{
fill: #F7C2D9;
}
.g3_213{
fill: #FDF4F3;
}
.g4_213{
fill: #EC008C;
}
.g5_213{
fill: none;
stroke: #949698;
stroke-width: 0.305;
stroke-dasharray: 3,3;
}
.g6_213{
fill: none;
stroke: #949698;
stroke-width: 0.305;
}
.g7_213{
fill: none;
stroke: #949698;
stroke-width: 0.305;
stroke-dasharray: 4,4;
}
.g8_213{
fill: #6D6F71;
}
.g9_213{
fill: #6381B7;
}
.ga_213{
fill: none;
stroke: #6381B7;
stroke-width: 0.381;
stroke-dasharray: 2,1;
}
.gb_213{
fill: none;
stroke: #6381B7;
stroke-width: 0.381;
}
.gc_213{
fill: #FCE8B0;
}
.gd_213{
fill: none;
stroke: #00ABE5;
stroke-width: 2.291;
}
.ge_213{
fill: #3D3B39;
}
.gf_213{
fill: #E5E9B7;
}
.gg_213{
fill: #61C7CB;
}
.gh_213{
fill: none;
stroke: #00ABE5;
stroke-width: 1.527;
stroke-linecap: round;
stroke-linejoin: round;
stroke-dasharray: 0,5;
}
.gi_213{
fill: none;
stroke: #00ABE5;
stroke-width: 1.527;
stroke-linecap: round;
stroke-linejoin: round;
}
.gj_213{
fill: #CFD1D2;
}
.gk_213{
fill: #25408F;
}
.gl_213{
fill: #A8AAAD;
}
.gm_213{
fill: none;
stroke: #949698;
stroke-width: 0.549;
}
.gn_213{
fill: none;
stroke: #BCBEC0;
stroke-width: 2.566;
}
.go_213{
fill: #231F20;
}
.gp_213{
fill: #363637;
}
.gq_213{
fill: #5CC4BE;
}
.gr_213{
fill: #F0D73F;
}
.gs_213{
fill: none;
stroke: #FFF;
stroke-width: 1.909;
stroke-miterlimit: 10;
}
.gt_213{
fill: none;
stroke: #000;
stroke-width: 0.381;
stroke-miterlimit: 10;
}
]]></style>
</defs>
<path d="M172.5,136.8c0,0,-18.3,0,-18.3,18.3V763.4c0,0,0,18.4,18.3,18.4H849.7c0,0,18.3,0,18.3,-18.4V136.8Z" class="g0_213"/>
<path d="M172.5,136.8c0,0,-18.3,0,-18.3,18.3V763.4c0,0,0,18.4,18.3,18.4H849.7c0,0,18.3,0,18.3,-18.4V136.8H172.5Z" class="g1_213"/>
<image clip-path="url(#c0_213)" preserveAspectRatio="none" x="727" y="419" width="207" height="271" xlink:href="img/1.png"/>
<path d="M738.9,424l-6.5,255.6l191.8,3.3l4.5,-254.8Z" class="g2_213"/>
<image clip-path="url(#c1_213)" preserveAspectRatio="none" x="727" y="421" width="207" height="268" xlink:href="img/2.png"/>
<image clip-path="url(#c2_213)" preserveAspectRatio="none" x="727" y="421" width="207" height="267" xlink:href="img/3.png"/>
<path d="M732.2,430.6l6,251.5l149.7,-4.4l40.3,-26L923.4,425.5Z" class="g3_213"/>
<path d="M888.6,678.9l40,-26.9l-23.3,-7.7Z" class="g4_213"/>
<path d="M674.2,675.8c14.6,-1,26.2,-6.7,28.7,-14.1m-.6,-7.1c-3.4,-6.9,-15.2,-12.2,-29.5,-12.8m-7.3,0c-14.6,1,-26.2,6.8,-28.7,14.2m.6,7c3.4,7,15.2,12.3,29.5,12.9" class="g5_213"/>
<path d="M703.2,660.3c.1,-.5,.1,-1,.1,-1.5c0,-.5,0,-.9,-.1,-1.4M671.3,641.7c-.5,0,-1,0,-1.4,0c-.5,0,-1,0,-1.5,0m-31.9,15.7c-.1,.5,-.1,.9,-.1,1.4c0,.5,0,1,.1,1.5m31.9,15.6c.5,.1,1,.1,1.5,.1c.4,0,.9,0,1.4,-.1" class="g6_213"/>
<path d="M681.5,680.8c7.5,7.4,26.5,23.9,42.7,20.2" class="g7_213"/>
<path d="M728.8,696c.4,-2.5,-.5,-5.4,-6.5,-6" class="g5_213"/>
<path d="M722,699.7c5.5,3.5,17.8,8.1,40.9,1.4m7.5,-2.4c7.5,-2.8,23.4,-9.5,35.6,-21.6" class="g7_213"/>
<path d="M678.2,677.4c0,0,.4,.4,1.1,1.1m46.4,22.1c.5,-.2,1,-.4,1.5,-.6c0,0,.4,-.5,.7,-1.2m-7.1,-8.9c-.5,0,-.9,-.1,-1.5,0c0,0,-.6,.5,-1.1,1.5m-.4,3.6c.1,.5,.4,1.1,.7,1.7c0,0,.3,.5,1.1,1.2m44.8,2.7c.5,-.1,1,-.3,1.5,-.4c0,0,.6,-.2,1.5,-.5M807,676c.4,-.4,.8,-.7,1.1,-1.1" class="g6_213"/>
<path d="M804.1,674l5.1,4.3l3.2,-8.4Z" class="g8_213"/>
<path d="M166.7,790.3c0,0,-13,0,-13,13V948.1c0,0,0,13,13,13H854.5c0,0,13,0,13,-13V803.3c0,0,0,-13,-13,-13Z" class="g0_213"/>
<path d="M166.7,790.3c0,0,-13,0,-13,13V948.1c0,0,0,13,13,13H854.5c0,0,13,0,13,-13V803.3c0,0,0,-13,-13,-13H166.7Z" class="g1_213"/>
<path d="M601.8,975.7c0,0,-4.3,0,-4.3,4.3v10.8c0,0,0,4.3,4.3,4.3h30.3c0,0,4.4,0,4.4,-4.3V980c0,0,0,-4.3,-4.4,-4.3Z" class="g9_213"/>
<path d="M588.6,966.8v37.6m1.4,.9H866.8m.9,-1.3V966.4m-1.3,-.9H589.6" class="ga_213"/>
<path d="M588.6,1004.8v.5h.6m277.9,0h.6v-.5m0,-38.7v-.6h-.6m-277.9,0h-.6v.6" class="gb_213"/>
<path d="M231.8,183.7c0,0,-13,0,-13,13v47.6c0,0,0,13,13,13h602c0,0,13,0,13,-13V196.7c0,0,0,-13,-13,-13Z" class="gc_213"/>
<image clip-path="url(#c3_213)" preserveAspectRatio="none" x="175" y="180" width="75" height="76" xlink:href="img/4.png"/>
<path d="M226.6,249.9c0,0,-26.9,11.3,-51.1,-12.7c0,0,15.1,25.3,49.3,23.9c0,0,24.7,.4,20.2,-10.1c0,0,1.2,-4.5,-18.4,-1.1Z" class="gc_213"/>
<path d="M231.2,833.8c0,0,-12.9,0,-12.9,13v21.7c0,0,0,13,12.9,13H833.3c0,0,13,0,13,-13V846.8c0,0,0,-13,-13,-13Z" class="gc_213"/>
<image clip-path="url(#c4_213)" preserveAspectRatio="none" x="174" y="804" width="75" height="76" xlink:href="img/5.png"/>
<path d="M226,874.1c0,0,-26.8,11.3,-51.1,-12.7c0,0,15.2,25.3,49.3,23.9c0,0,24.8,.4,20.3,-10.1c0,0,1.2,-4.4,-18.5,-1.1Z" class="gc_213"/>
<image clip-path="url(#c5_213)" preserveAspectRatio="none" x="89" y="389" width="226" height="272" xlink:href="img/6.png"/>
<path d="M94.5,404.6l13,249.8l201.2,-9.1L294.4,394.1Z" class="g2_213"/>
<image clip-path="url(#c6_213)" preserveAspectRatio="none" x="99" y="395" width="211" height="259" xlink:href="img/7.png"/>
<image clip-path="url(#c7_213)" preserveAspectRatio="none" x="98" y="395" width="212" height="259" xlink:href="img/8.png"/>
<path d="M103.7,399.4V647H263.2l40.6,-15.1V399.4Z" class="g3_213"/>
<path d="M263.8,646.7l39.7,-14.5L289.3,618.5Z" class="g4_213"/>
<path d="M533.7,645.7c-16.6,12.1,-84.1,59.2,-109.8,46.4m-4.6,-6.3C417.4,680,417,670.9,433.8,673.3m6.1,4.6c.8,1.5,1.3,3.2,1,4.8m-5.6,5.4c-8.8,5.7,-34.6,16.6,-90.4,2.2m-7.4,-2c-13,-3.7,-52,-16.1,-80.3,-39.9" class="g7_213"/>
<path d="M537.5,642.9c0,0,-.5,.3,-1.3,.9M422.5,691.3c-.4,-.2,-.8,-.5,-1.2,-.8c0,0,-.4,-.6,-.8,-1.5m15,-15.5c.5,.1,1.1,.2,1.6,.3c0,0,.5,.5,1.1,1.3m2,9c-.3,.4,-.7,.8,-1.2,1.1c0,0,-.3,.4,-1.1,1.1m-94.5,3.6c-.5,-.1,-1,-.3,-1.5,-.4c0,0,-.5,-.1,-1.5,-.4M256,647.4c-.4,-.4,-.8,-.7,-1.1,-1" class="g6_213"/>
<path d="M261.1,646.9l-6.4,5.1l-5.2,-12.4Z" class="g8_213"/>
<path d="M556.1,644.5c14.6,-1,26.2,-6.8,28.6,-14.2m-.5,-7C580.7,616.3,569,611,554.6,610.4m-7.3,.1c-14.6,1,-26.2,6.7,-28.6,14.1m.5,7.1c3.5,6.9,15.2,12.2,29.6,12.8" class="g5_213"/>
<path d="M585.1,628.9c0,-.4,.1,-.9,.1,-1.4c0,-.5,-.1,-1,-.1,-1.5M553.2,610.4c-.5,0,-1,0,-1.5,0c-.5,0,-1,0,-1.5,0M518.3,626c0,.5,-.1,1,-.1,1.5c0,.5,.1,1,.1,1.4m31.9,15.7c.5,0,1,0,1.5,0c.5,0,1,0,1.5,0" class="g6_213"/>
<image clip-path="url(#c8_213)" x="193" y="398" width="5" height="9" xlink:href="shade/1.png"/>
<image clip-path="url(#c9_213)" x="192" y="371" width="24" height="28" xlink:href="shade/2.png"/>
<image clip-path="url(#ca_213)" x="192" y="374" width="23" height="33" xlink:href="shade/3.png"/>
<image clip-path="url(#cb_213)" x="197" y="370" width="20" height="10" xlink:href="shade/4.png"/>
<image clip-path="url(#cc_213)" x="825" y="426" width="5" height="9" xlink:href="shade/5.png"/>
<image clip-path="url(#cd_213)" x="824" y="399" width="25" height="29" xlink:href="shade/6.png"/>
<image clip-path="url(#ce_213)" x="824" y="402" width="23" height="33" xlink:href="shade/7.png"/>
<image clip-path="url(#cf_213)" x="830" y="398" width="19" height="10" xlink:href="shade/8.png"/>
<path d="M154.5,1053.3v-28.7c0,0,0,-4.3,4.3,-4.3H862.4c0,0,4.4,0,4.4,4.3v29.2" class="gd_213"/>
<path d="M200.1,1020.8c2.6,0,4.8,-2.1,4.8,-4.8c0,-2.6,-2.2,-4.8,-4.8,-4.8c-2.7,0,-4.8,2.2,-4.8,4.8c0,2.7,2.1,4.8,4.8,4.8Z" class="g0_213"/>
<path d="M200.1,1022.7c3.6,0,6.6,-3,6.6,-6.7c0,-3.7,-3,-6.7,-6.6,-6.7c-3.7,0,-6.7,3,-6.7,6.7c0,3.7,3,6.7,6.7,6.7m0,-11.5c2.6,0,4.8,2.2,4.8,4.8c0,2.7,-2.2,4.8,-4.8,4.8c-2.7,0,-4.8,-2.1,-4.8,-4.8c0,-2.6,2.1,-4.8,4.8,-4.8Z" class="ge_213"/>
<path d="M205.5,1024.6H194.6c-.1,0,-.3,0,-.4,0c2.7,1.1,4.9,3.4,5.9,6.2c1.3,-.5,2.7,-.8,4.2,-.8c2.9,0,5.5,1,7.5,2.7v-1.8c0,-3.4,-2.8,-6.3,-6.3,-6.3Z" class="g0_213"/>
<path d="M184,1021.6c3.4,0,6.1,-2.7,6.1,-6.1c0,-3.4,-2.7,-6.1,-6.1,-6.1c-3.4,0,-6.1,2.7,-6.1,6.1c0,3.4,2.7,6.1,6.1,6.1Z" class="gf_213"/>
<path d="M184,1023.5c4.4,0,8,-3.6,8,-8c0,-4.4,-3.6,-8,-8,-8c-4.4,0,-8,3.6,-8,8c0,4.4,3.6,8,8,8m0,-14.1c3.4,0,6.1,2.7,6.1,6.1c0,3.4,-2.7,6.1,-6.1,6.1c-3.4,0,-6.1,-2.7,-6.1,-6.1c0,-3.4,2.7,-6.1,6.1,-6.1Z" class="ge_213"/>
<path d="M198.4,1031.7c-1,-3.4,-4.1,-5.8,-7.7,-5.8H177.3c-4.4,0,-8,3.6,-8,8v4.3h23.8c.9,-2.8,2.8,-5.1,5.3,-6.5Z" class="gf_213"/>
<path d="M204.3,1031.9c-5.5,0,-9.9,4.5,-9.9,10c0,5.5,4.4,10,9.9,10c5.5,0,10,-4.5,10,-10c0,-5.5,-4.5,-10,-10,-10m6.7,11.7c0,.2,-.2,.5,-.5,.5h-4v4c0,.3,-.2,.5,-.5,.5h-3.3c-.3,0,-.5,-.2,-.5,-.5v-4h-4.1c-.2,0,-.4,-.3,-.4,-.5v-3.4c0,-.2,.2,-.4,.4,-.4h4.1v-4.1c0,-.3,.2,-.5,.5,-.5H206c.3,0,.5,.2,.5,.5v4.1h4c.3,0,.5,.2,.5,.4Z" class="gg_213"/>
<path d="M213.7,1034.6v-3.7c0,-4.5,-3.7,-8.2,-8.2,-8.2H194.6c-1.6,0,-3.1,.5,-4.3,1.3h-13c-5.4,0,-9.9,4.4,-9.9,9.9v5.3c0,.5,.4,.9,1,.9h24.2c-.1,.6,-.1,1.2,-.1,1.8c0,6.5,5.3,11.9,11.8,11.9c6.6,0,11.9,-5.4,11.9,-11.9c0,-2.7,-.9,-5.3,-2.5,-7.3m-9.4,17.3c-5.5,0,-9.9,-4.5,-9.9,-10c0,-5.5,4.4,-10,9.9,-10c5.5,0,10,4.5,10,10c0,5.5,-4.5,10,-10,10m-35,-18c0,-4.4,3.6,-8,8,-8h13.4c3.6,0,6.7,2.4,7.7,5.8c-2.5,1.4,-4.4,3.7,-5.3,6.5H169.3Zm42.5,-1.2c-2,-1.7,-4.6,-2.7,-7.5,-2.7c-1.5,0,-2.9,.3,-4.2,.8c-1,-2.8,-3.2,-5.1,-5.9,-6.2c.1,0,.3,0,.4,0h10.9c3.5,0,6.3,2.9,6.3,6.3Z" class="ge_213"/>
<path d="M205.5,1040.2v-4h-2.4v4c0,.3,-.2,.5,-.4,.5h-4.1v2.4h4.1c.2,0,.4,.2,.4,.5v4h2.4v-4c0,-.3,.3,-.5,.5,-.5h4.1v-2.4H206c-.2,0,-.5,-.2,-.5,-.5Z" class="g0_213"/>
<path d="M210.5,1039.8h-4v-4.1c0,-.3,-.2,-.5,-.5,-.5h-3.3c-.3,0,-.5,.2,-.5,.5v4.1h-4.1c-.2,0,-.4,.2,-.4,.4v3.4c0,.2,.2,.5,.4,.5h4.1v4c0,.3,.2,.5,.5,.5H206c.3,0,.5,-.2,.5,-.5v-4h4c.3,0,.5,-.3,.5,-.5v-3.4c0,-.2,-.2,-.4,-.5,-.4m-.4,3.3H206c-.2,0,-.5,.2,-.5,.5v4h-2.4v-4c0,-.3,-.2,-.5,-.4,-.5h-4.1v-2.4h4.1c.2,0,.4,-.2,.4,-.5v-4h2.4v4c0,.3,.3,.5,.5,.5h4.1Z" class="ge_213"/>
<path d="M154.1,1063.5v178.1m4.6,2.3H864.9m2.2,-4.6V1061.2m-4.5,-2.3H156.4" class="gh_213"/>
<path d="M154.1,1243.9v0m713.1,0v0m0,-185v0m-713.1,0v0" class="gi_213"/>
<g clip-path="url(#cg_213)">
<path d="M246.7,1045.1c0,0,-13.8,0,-13.8,13.8v149.9c0,0,0,13.8,13.8,13.8H860.5c0,0,13.8,0,13.8,-13.8V1058.9c0,0,0,-13.8,-13.8,-13.8H246.7Z" class="gj_213"/>
<path d="M254.6,1049c0,0,-11.8,0,-11.8,11.9v145.8c0,0,0,11.8,11.8,11.8h598c0,0,11.8,0,11.8,-11.8V1060.9c0,0,0,-11.9,-11.8,-11.9h-598Z" class="g0_213"/>
</g>
<image clip-path="url(#ch_213)" preserveAspectRatio="none" x="734" y="1079" width="88" height="90" xlink:href="img/9.jpg"/>
<g clip-path="url(#ci_213)">
<path d="M165.1,1045.1c0,0,-13.8,0,-13.8,13.8v149.9c0,0,0,13.8,13.8,13.8H778.9c0,0,13.8,0,13.8,-13.8V1058.9c0,0,0,-13.8,-13.8,-13.8H165.1Z" class="gj_213"/>
<path d="M172.9,1049c0,0,-11.8,0,-11.8,11.9v145.8c0,0,0,11.8,11.8,11.8H771c0,0,11.8,0,11.8,-11.8V1060.9c0,0,0,-11.9,-11.8,-11.9H172.9Z" class="g0_213"/>
</g>
<image clip-path="url(#cj_213)" preserveAspectRatio="none" x="198" y="1079" width="88" height="90" xlink:href="img/10.jpg"/>
<g clip-path="url(#ck_213)">
<path d="M193.3,1045.1c0,0,-13.8,0,-13.8,13.8v149.9c0,0,0,13.8,13.8,13.8H807.1c0,0,13.8,0,13.8,-13.8V1058.9c0,0,0,-13.8,-13.8,-13.8H193.3Z" class="gj_213"/>
<path d="M201.2,1049c0,0,-11.9,0,-11.9,11.9v145.8c0,0,0,11.8,11.9,11.8h598c0,0,11.8,0,11.8,-11.8V1060.9c0,0,0,-11.9,-11.8,-11.9h-598Z" class="g0_213"/>
</g>
<image clip-path="url(#cl_213)" preserveAspectRatio="none" x="378" y="1079" width="88" height="90" xlink:href="img/11.jpg"/>
<g clip-path="url(#cm_213)">
<path d="M219.7,1045.1c0,0,-13.8,0,-13.8,13.8v149.9c0,0,0,13.8,13.8,13.8H833.5c0,0,13.8,0,13.8,-13.8V1058.9c0,0,0,-13.8,-13.8,-13.8H219.7Z" class="gj_213"/>
<path d="M227.5,1049c0,0,-11.8,0,-11.8,11.9v145.8c0,0,0,11.8,11.8,11.8H825.6c0,0,11.8,0,11.8,-11.8V1060.9c0,0,0,-11.9,-11.8,-11.9H227.5Z" class="g0_213"/>
</g>
<image clip-path="url(#cn_213)" preserveAspectRatio="none" x="555" y="1079" width="89" height="90" xlink:href="img/12.jpg"/>
<path d="M153.3,111.9v39L165,161.2V117Z" class="gk_213"/>
<path d="M153.3,111.9v39H851.1c0,0,16.8,0,16.8,-16.8v-5.3c0,0,0,-16.9,-16.8,-16.9Z" class="g9_213"/>
<path d="M802.6,145.6c8.2,0,14.9,-6.5,14.9,-14.5c0,-8.1,-6.7,-14.5,-14.9,-14.5c-8.2,0,-14.9,6.4,-14.9,14.5c0,8,6.7,14.5,14.9,14.5Z" class="gl_213"/>
<path d="M802.6,145.6c8.2,0,14.9,-6.5,14.9,-14.5c0,-8.1,-6.7,-14.5,-14.9,-14.5c-8.2,0,-14.9,6.4,-14.9,14.5c0,8,6.7,14.5,14.9,14.5Z" class="gm_213"/>
<path d="M802.6,136.4c3,0,5.5,-2.4,5.5,-5.3c0,-3,-2.5,-5.4,-5.5,-5.4c-3,0,-5.5,2.4,-5.5,5.4c0,2.9,2.5,5.3,5.5,5.3Z" class="g0_213"/>
<path d="M802.6,136.4c3,0,5.5,-2.4,5.5,-5.3c0,-3,-2.5,-5.4,-5.5,-5.4c-3,0,-5.5,2.4,-5.5,5.4c0,2.9,2.5,5.3,5.5,5.3Z" class="gn_213"/>
<g clip-path="url(#co_213)" opacity="0.3">
<path d="M788,130.3v0c0,0,0,-4.8,3.7,-8.7l7.7,6.8c0,0,-1,.9,-1,2.6Z" class="g0_213"/>
</g>
<path d="M807.2,131c0,0,-3.5,0,-3.5,3.4v8.7c0,0,0,3.5,3.5,3.5h43.5c0,0,3.5,0,3.5,-3.5v-8.7c0,0,0,-3.4,-3.5,-3.4Z" class="go_213"/>
<path d="M191.2,122c0,-8.3,-6.8,-15,-15.1,-15c-8.3,0,-15,6.7,-15,15c0,8.3,6.7,15.1,15,15.1c.8,0,1.7,-.1,2.4,-.2l4.5,5.2v-6.7c4.9,-2.5,8.2,-7.6,8.2,-13.4Z" class="g0_213"/>
<path d="M183.5,143.3l-5.1,-5.9c-.8,.1,-1.5,.1,-2.3,.1c-8.5,0,-15.5,-6.9,-15.5,-15.5c0,-8.5,7,-15.5,15.5,-15.5c8.6,0,15.5,7,15.5,15.5c0,5.7,-3.1,11,-8.1,13.7Zm-4.8,-6.9l3.9,4.5v-5.8l.2,-.1c4.9,-2.5,7.9,-7.5,7.9,-13c0,-8,-6.5,-14.6,-14.6,-14.6c-8,0,-14.6,6.6,-14.6,14.6c0,8.1,6.6,14.6,14.6,14.6c.8,0,1.6,-.1,2.4,-.2Z" class="gp_213"/>
<path d="M169.1,121.6c.8,0,1.4,.6,1.4,1.4c0,.8,-.6,1.5,-1.4,1.5c-.8,0,-1.4,-.7,-1.4,-1.5c0,-.8,.6,-1.4,1.4,-1.4Z" class="gq_213"/>
<path d="M169.1,124.9c-1,0,-1.9,-.8,-1.9,-1.9c0,-1,.9,-1.9,1.9,-1.9c1,0,1.9,.9,1.9,1.9c0,1.1,-.9,1.9,-1.9,1.9m0,-2.9c-.5,0,-1,.5,-1,1c0,.6,.5,1,1,1c.5,0,1,-.4,1,-1c0,-.5,-.5,-1,-1,-1Z" class="gp_213"/>
<path d="M176.1,121.6c.8,0,1.5,.6,1.5,1.4c0,.8,-.7,1.5,-1.5,1.5c-.8,0,-1.4,-.7,-1.4,-1.5c0,-.8,.6,-1.4,1.4,-1.4Z" class="gq_213"/>
<path d="M176.1,124.9c-1,0,-1.9,-.8,-1.9,-1.9c0,-1,.9,-1.9,1.9,-1.9c1.1,0,1.9,.9,1.9,1.9c0,1.1,-.8,1.9,-1.9,1.9m0,-2.9c-.5,0,-1,.5,-1,1c0,.6,.5,1,1,1c.6,0,1,-.4,1,-1c0,-.5,-.4,-1,-1,-1Z" class="gp_213"/>
<path d="M183.1,121.6c.8,0,1.5,.6,1.5,1.4c0,.8,-.7,1.5,-1.5,1.5c-.8,0,-1.4,-.7,-1.4,-1.5c0,-.8,.6,-1.4,1.4,-1.4Z" class="gq_213"/>
<path d="M183.1,124.9c-1,0,-1.9,-.8,-1.9,-1.9c0,-1,.9,-1.9,1.9,-1.9c1.1,0,1.9,.9,1.9,1.9c0,1.1,-.8,1.9,-1.9,1.9m0,-2.9c-.5,0,-1,.5,-1,1c0,.6,.5,1,1,1c.6,0,1,-.4,1,-1c0,-.5,-.4,-1,-1,-1Z" class="gp_213"/>
<path d="M185.1,136.3c0,-9.8,7.8,-17.7,17.6,-17.7c9.7,0,17.6,7.9,17.6,17.7c0,9.7,-7.9,17.6,-17.6,17.6c-1,0,-1.9,-.1,-2.9,-.3l-5.2,6.1v-7.8c-5.7,-2.9,-9.5,-8.8,-9.5,-15.6Z" class="gr_213"/>
<path d="M194.6,160.2q-.1,0,-.2,0c-.2,-.1,-.3,-.3,-.3,-.5v-7.5c-5.9,-3.2,-9.5,-9.2,-9.5,-15.9c0,-10,8.1,-18.1,18.1,-18.1c9.9,0,18,8.1,18,18.1c0,9.9,-8.1,18,-18,18c-.9,0,-1.8,0,-2.7,-.2l-5.1,5.9c-.1,.1,-.2,.2,-.3,.2m8.1,-41.1c-9.5,0,-17.2,7.7,-17.2,17.2c0,6.4,3.6,12.2,9.3,15.2c.1,.1,.2,.2,.2,.4v6.6l4.5,-5.2c.1,-.1,.3,-.1,.4,-.1c1,.1,1.9,.2,2.8,.2c9.4,0,17.1,-7.7,17.1,-17.1c0,-9.5,-7.7,-17.2,-17.1,-17.2Z" class="gp_213"/>
<path d="M210.9,135.8c.9,0,1.6,.7,1.6,1.6c0,1,-.7,1.7,-1.6,1.7c-1,0,-1.7,-.7,-1.7,-1.7c0,-.9,.7,-1.6,1.7,-1.6Z" class="g0_213"/>
<path d="M210.9,139.6c-1.2,0,-2.2,-1,-2.2,-2.2c0,-1.1,1,-2.1,2.2,-2.1c1.1,0,2.1,1,2.1,2.1c0,1.2,-1,2.2,-2.1,2.2m0,-3.4c-.7,0,-1.3,.6,-1.3,1.2c0,.7,.6,1.3,1.3,1.3c.6,0,1.2,-.6,1.2,-1.3c0,-.6,-.6,-1.2,-1.2,-1.2Z" class="gp_213"/>
<path d="M202.7,135.8c.9,0,1.6,.7,1.6,1.6c0,1,-.7,1.7,-1.6,1.7c-1,0,-1.7,-.7,-1.7,-1.7c0,-.9,.7,-1.6,1.7,-1.6Z" class="g0_213"/>
<path d="M202.7,139.6c-1.2,0,-2.2,-1,-2.2,-2.2c0,-1.1,1,-2.1,2.2,-2.1c1.1,0,2.1,1,2.1,2.1c0,1.2,-1,2.2,-2.1,2.2m0,-3.4c-.7,0,-1.3,.6,-1.3,1.2c0,.7,.6,1.3,1.3,1.3c.6,0,1.2,-.6,1.2,-1.3c0,-.6,-.6,-1.2,-1.2,-1.2Z" class="gp_213"/>
<path d="M194.5,135.8c.9,0,1.6,.7,1.6,1.6c0,1,-.7,1.7,-1.6,1.7c-1,0,-1.7,-.7,-1.7,-1.7c0,-.9,.7,-1.6,1.7,-1.6Z" class="g0_213"/>
<path d="M194.5,139.6c-1.2,0,-2.2,-1,-2.2,-2.2c0,-1.1,1,-2.1,2.2,-2.1c1.1,0,2.1,1,2.1,2.1c0,1.2,-1,2.2,-2.1,2.2m0,-3.4c-.7,0,-1.2,.6,-1.2,1.2c0,.7,.5,1.3,1.2,1.3c.6,0,1.2,-.6,1.2,-1.3c0,-.6,-.6,-1.2,-1.2,-1.2Z" class="gp_213"/>
<path d="M32.1,45.1H9.2m958.3,0h22.9M32.1,1331.3H9.2m958.3,0h22.9M45.1,32.1V9.2m0,1335.1v22.9M954.5,32.1V9.2m0,1335.1v22.9" class="gs_213"/>
<path d="M32.1,45.1H9.2m958.3,0h22.9M32.1,1331.3H9.2m958.3,0h22.9M45.1,32.1V9.2m0,1335.1v22.9M954.5,32.1V9.2m0,1335.1v22.9" class="gt_213"/>
<path d="M27.5,32.1H0m972.1,0h27.5M27.5,1344.3H0m972.1,0h27.5M32.1,27.5V0m0,1348.9v27.5M967.5,27.5V0m0,1348.9v27.5" class="gs_213"/>
<path d="M27.5,32.1H0m972.1,0h27.5M27.5,1344.3H0m972.1,0h27.5M32.1,27.5V0m0,1348.9v27.5M967.5,27.5V0m0,1348.9v27.5" class="gt_213"/>
</svg>