<?xml version="1.0" encoding="UTF-8" standalone="no"?>
<!DOCTYPE svg PUBLIC "-//W3C//DTD SVG 1.1//EN"
"http://www.w3.org/Graphics/SVG/1.1/DTD/svg11.dtd">
<svg viewBox="0 0 999 1376" version="1.1" xmlns="http://www.w3.org/2000/svg" xmlns:xlink="http://www.w3.org/1999/xlink">
<defs>
<clipPath id="c0_276"><path d="M231.2,835.1V720.3H351.1V835.1Z"/></clipPath>
<clipPath id="c1_276"><path d="M543.9,837.8V717.9H675.3V837.8Z"/></clipPath>
<clipPath id="c2_276"><path d="M362.9,807.2V731h91.2v76.2Z"/></clipPath>
<clipPath id="c3_276"><path d="M694.6,807.2V731h91.2v76.2Z"/></clipPath>
<clipPath id="c4_276"><path d="M545.1,607.9V488.6H674.8V607.9Z"/></clipPath>
<clipPath id="c5_276"><path d="M220.8,600.3V484.9H354.4V600.3Z"/></clipPath>
<clipPath id="c6_276"><path d="M362.9,589.9V513.8h91.2v76.1Z"/></clipPath>
<clipPath id="c7_276"><path d="M694.6,589.9V513.8h91.2v76.1Z"/></clipPath>
<clipPath id="c8_276"><path d="M360.1,571.1V492.4H460.8v78.7Z"/></clipPath>
<clipPath id="c9_276"><path d="M360.1,799.7V721.1H460.8v78.6Z"/></clipPath>
<clipPath id="ca_276"><path d="M693.6,571.1V492.4H794.2v78.7Z"/></clipPath>
<clipPath id="cb_276"><path d="M693.6,799.7V721.1H794.2v78.6Z"/></clipPath>
<clipPath id="cc_276"><path d="M347.6,388.2v-110H478.5v110Z"/></clipPath>
<clipPath id="cd_276"><path d="M251.2,376.7V283.4h86.6v93.3Z"/></clipPath>
<style type="text/css"><![CDATA[
.g0_276{
fill: none;
stroke: #6381B7;
stroke-width: 0.763;
}
.g1_276{
fill: #48484A;
}
.g2_276{
fill: #F0E8F3;
}
.g3_276{
fill: #FFF;
}
.g4_276{
fill: #F1E6CF;
}
.g5_276{
fill: #F4EDDD;
}
.g6_276{
fill: #6381B7;
}
.g7_276{
fill: none;
stroke: #6381B7;
stroke-width: 0.381;
stroke-dasharray: 2,1;
}
.g8_276{
fill: none;
stroke: #6381B7;
stroke-width: 0.381;
}
.g9_276{
fill: #766FA6;
}
.ga_276{
fill: #25408F;
}
.gb_276{
fill: #F37553;
}
.gc_276{
fill: #363637;
}
.gd_276{
fill: #EAD646;
}
.ge_276{
fill: #506CB4;
}
.gf_276{
fill: #5CC4BE;
}
.gg_276{
fill: none;
stroke: #FFF;
stroke-width: 1.909;
stroke-miterlimit: 10;
}
.gh_276{
fill: none;
stroke: #000;
stroke-width: 0.381;
stroke-miterlimit: 10;
}
]]></style>
</defs>
<path d="M145.1,168.6c0,0,-13,0,-13,13V853.1c0,0,0,13,13,13H832.9c0,0,13,0,13,-13V181.6c0,0,0,-13,-13,-13H145.1Z" class="g0_276"/>
<path d="M170.7,250c0,0,-4.4,0,-4.4,4.4v14.4c0,0,0,4.3,4.1,5.7l52.5,18.3c0,0,4.1,1.4,4.1,-2.9V254.4c0,0,0,-4.4,-4.4,-4.4Z" class="g1_276"/>
<path d="M192.3,231.5c0,0,-13,0,-13,13V387.2c0,0,0,13,13,13H790c0,0,12.9,0,12.9,-13V244.5c0,0,0,-13,-12.9,-13Z" class="g2_276"/>
<path d="M172.3,848H828.7V714.2H172.3V848Z" class="g3_276"/>
<image clip-path="url(#c0_276)" preserveAspectRatio="none" x="231" y="720" width="120" height="116" xlink:href="img/1.jpg"/>
<image clip-path="url(#c1_276)" preserveAspectRatio="none" x="543" y="717" width="132" height="122" xlink:href="img/2.jpg"/>
<image clip-path="url(#c2_276)" preserveAspectRatio="none" x="363" y="731" width="91" height="76" xlink:href="img/3.jpg"/>
<path d="M369.7,732.4c0,0,-5.5,0,-5.5,5.5v57.4c0,0,0,5.4,5.5,5.4h72.5c0,0,5.4,0,5.4,-5.4V737.9c0,0,0,-5.5,-5.4,-5.5H369.7Z" class="g4_276"/>
<image clip-path="url(#c3_276)" preserveAspectRatio="none" x="694" y="731" width="92" height="76" xlink:href="img/4.jpg"/>
<path d="M701.4,732.4c0,0,-5.5,0,-5.5,5.5v57.4c0,0,0,5.4,5.5,5.4h72.5c0,0,5.4,0,5.4,-5.4V737.9c0,0,0,-5.5,-5.4,-5.5H701.4Z" class="g4_276"/>
<path d="M172.3,667.1H828.7V485.3H172.3V667.1Z" class="g3_276"/>
<image clip-path="url(#c4_276)" preserveAspectRatio="none" x="545" y="487" width="131" height="122" xlink:href="img/5.jpg"/>
<image clip-path="url(#c5_276)" preserveAspectRatio="none" x="221" y="481" width="133" height="119" xlink:href="img/6.jpg"/>
<image clip-path="url(#c6_276)" preserveAspectRatio="none" x="363" y="513" width="91" height="77" xlink:href="img/7.jpg"/>
<path d="M369.7,515.2c0,0,-5.5,0,-5.5,5.4V578c0,0,0,5.5,5.5,5.5h72.5c0,0,5.4,0,5.4,-5.5V520.6c0,0,0,-5.4,-5.4,-5.4H369.7Z" class="g4_276"/>
<image clip-path="url(#c7_276)" preserveAspectRatio="none" x="694" y="513" width="92" height="77" xlink:href="img/8.jpg"/>
<path d="M701.4,515.2c0,0,-5.5,0,-5.5,5.4V578c0,0,0,5.5,5.5,5.5h72.5c0,0,5.4,0,5.4,-5.5V520.6c0,0,0,-5.4,-5.4,-5.4H701.4Z" class="g4_276"/>
<path d="M363.4,503.4c0,0,-4.3,0,-4.3,4.3V836.8c0,0,0,4.4,4.3,4.4H493.3c0,0,4.3,0,4.3,-4.4V507.7c0,0,0,-4.3,-4.3,-4.3Z" class="g3_276"/>
<path d="M692.5,503.4c0,0,-4.3,0,-4.3,4.3V836.8c0,0,0,4.4,4.3,4.4H805.1c0,0,4.3,0,4.3,-4.4V507.7c0,0,0,-4.3,-4.3,-4.3Z" class="g3_276"/>
<image clip-path="url(#c8_276)" preserveAspectRatio="none" x="360" y="493" width="101" height="78" xlink:href="img/9.png"/>
<path d="M372,495.7c0,0,-8.6,0,-8.6,8.7v51.9c0,0,0,8.7,8.6,8.7h73.7c0,0,8.6,0,8.6,-8.7V504.4c0,0,0,-8.7,-8.6,-8.7Z" class="g5_276"/>
<image clip-path="url(#c9_276)" preserveAspectRatio="none" x="360" y="722" width="101" height="78" xlink:href="img/10.png"/>
<path d="M372,724.4c0,0,-8.6,0,-8.6,8.6v52c0,0,0,8.6,8.6,8.6h73.7c0,0,8.6,0,8.6,-8.6V733c0,0,0,-8.6,-8.6,-8.6Z" class="g5_276"/>
<image clip-path="url(#ca_276)" preserveAspectRatio="none" x="693" y="493" width="101" height="78" xlink:href="img/11.png"/>
<path d="M705.5,495.7c0,0,-8.7,0,-8.7,8.7v51.9c0,0,0,8.7,8.7,8.7h73.6c0,0,8.7,0,8.7,-8.7V504.4c0,0,0,-8.7,-8.7,-8.7Z" class="g5_276"/>
<image clip-path="url(#cb_276)" preserveAspectRatio="none" x="693" y="722" width="101" height="78" xlink:href="img/12.png"/>
<path d="M705.5,724.4c0,0,-8.7,0,-8.7,8.6v52c0,0,0,8.6,8.7,8.6h73.6c0,0,8.7,0,8.7,-8.6V733c0,0,0,-8.6,-8.7,-8.6Z" class="g5_276"/>
<image clip-path="url(#cc_276)" preserveAspectRatio="none" x="348" y="279" width="130" height="110" xlink:href="img/13.png"/>
<path d="M359.5,281.5c0,0,-8.7,0,-8.7,8.6v83.5c0,0,0,8.6,8.7,8.6H463.4c0,0,8.7,0,8.7,-8.6V290.1c0,0,0,-8.6,-8.7,-8.6Z" class="g5_276"/>
<image clip-path="url(#cd_276)" preserveAspectRatio="none" x="250" y="282" width="90" height="96" xlink:href="img/14.jpg"/>
<path d="M441.7,885c0,0,-4.3,0,-4.3,4.3v10.9c0,0,0,4.3,4.3,4.3H472c0,0,4.4,0,4.4,-4.3V889.3c0,0,0,-4.3,-4.4,-4.3Z" class="g6_276"/>
<path d="M428.5,877.5v200m1.4,1H845.1m1,-1.4v-200m-1.4,-1H429.5" class="g7_276"/>
<path d="M428.5,1077.9v.6h.6m416.4,0h.6v-.6m0,-201.2v-.6h-.6m-416.4,0h-.6v.6" class="g8_276"/>
<path d="M170.7,247.9c0,0,-4.4,0,-4.4,4.3v17c0,0,0,4.3,4.4,4.3h31.9c0,0,4.3,0,4.3,-4.3v-17c0,0,0,-4.3,-4.3,-4.3Z" class="g9_276"/>
<path d="M132.2,126.3v22.2l11.7,10.2V136.5Z" class="ga_276"/>
<path d="M132.2,109.5v39H829.9c0,0,16.9,0,16.9,-16.8v-5.4c0,0,0,-16.8,-16.9,-16.8Z" class="g6_276"/>
<path d="M166,111.6c.7,-.6,1.7,-.8,2.5,-.6l1.3,-1.3l-6.2,-6.1l-6.1,6.1l-1.3,-1.3c.2,-.8,0,-1.8,-.6,-2.4c-1,-1,-2.6,-1,-3.6,0c-1,1,-1,2.6,0,3.6c.6,.6,1.6,.9,2.4,.6l1.3,1.3l-6.1,6.1l6.1,6.2l-1.3,1.3c-.8,-.3,-1.8,-.1,-2.4,.6c-1,1,-1,2.6,0,3.6c1,1,2.6,1,3.6,0c.6,-.7,.9,-1.6,.6,-2.4l1.3,-1.3l6.1,6.1l6.2,-6.1l-1.3,-1.3c-.9,.2,-1.8,0,-2.5,-.7c-1,-1,-1,-2.6,0,-3.6c1,-1,2.6,-1,3.6,0c.7,.7,.9,1.6,.7,2.5l1.3,1.3l6.1,-6.2l-6.1,-6.1l-1.3,1.3c.2,.8,0,1.8,-.7,2.4c-1,1,-2.6,1,-3.6,0c-1,-.9,-1,-2.6,0,-3.6Z" class="gb_276"/>
<path d="M163.6,132.3l-6.1,-6.2l-.8,.9c.1,.9,-.2,1.9,-.8,2.6c-1.2,1.1,-3.1,1.1,-4.2,0c-1.2,-1.2,-1.2,-3,0,-4.2c.7,-.7,1.6,-1,2.6,-.8l.8,-.8L149,117.6l6.1,-6.1l-.8,-.8c-1,.1,-1.9,-.2,-2.6,-.8c-.6,-.6,-.9,-1.3,-.9,-2.1c0,-.8,.3,-1.5,.9,-2.1c1.1,-1.1,3,-1.1,4.1,0c.7,.7,1,1.7,.9,2.6l.8,.8l6.1,-6.1l6.7,6.7l-1.7,1.7h-.2c-.7,-.2,-1.5,0,-2.1,.5c-.8,.9,-.8,2.2,0,3.1c.9,.8,2.2,.8,3.1,0c.5,-.6,.7,-1.4,.5,-2.1v-.2l1.7,-1.7l6.7,6.6l-6.7,6.7l-1.8,-1.7l.1,-.2c.2,-.8,0,-1.5,-.6,-2.1c-.4,-.4,-.9,-.6,-1.5,-.6c-.5,0,-1.1,.2,-1.5,.6c-.8,.8,-.8,2.2,0,3c.5,.6,1.3,.8,2.1,.6l.2,-.1l1.7,1.8ZM157.5,125l6.1,6.1l5.6,-5.5l-.8,-.9c-1,.2,-2,-.1,-2.7,-.8c-.5,-.5,-.8,-1.3,-.8,-2.1c0,-.7,.3,-1.5,.8,-2c.6,-.6,1.3,-.9,2.1,-.9c.8,0,1.6,.3,2.1,.9c.7,.6,1,1.6,.8,2.6l.9,.8l5.5,-5.6l-5.5,-5.5l-.9,.8c.2,1,-.1,1.9,-.8,2.6c-1.1,1.2,-3,1.2,-4.1,0c-1.2,-1.1,-1.2,-3,0,-4.1c.6,-.7,1.6,-1,2.6,-.8l.8,-.9l-5.6,-5.6l-6.1,6.2l-1.7,-1.7v-.3c.2,-.7,0,-1.5,-.5,-2c-.9,-.9,-2.2,-.9,-3.1,0c-.4,.4,-.6,.9,-.6,1.5c0,.6,.2,1.1,.6,1.5c.6,.5,1.4,.8,2.1,.6l.2,-.1l1.8,1.7l-6.2,6.1l6.2,6.2l-1.8,1.7l-.2,-.1c-.7,-.2,-1.5,.1,-2,.6c-.9,.8,-.9,2.2,0,3c.8,.9,2.2,.9,3,0c.5,-.5,.7,-1.3,.5,-2v-.3Z" class="gc_276"/>
<path d="M196.6,122.1c.9,0,1.8,.5,2.2,1.3h1.8v-8.7h-8.7v-1.8c.8,-.4,1.3,-1.2,1.3,-2.2c0,-1.4,-1.1,-2.5,-2.5,-2.5c-1.5,0,-2.6,1.1,-2.6,2.5c0,1,.5,1.8,1.3,2.2v1.8h-8.7v8.7h-1.8c-.4,-.8,-1.2,-1.3,-2.2,-1.3c-1.4,0,-2.5,1.2,-2.5,2.6c0,1.4,1.1,2.5,2.5,2.5c1,0,1.8,-.5,2.2,-1.2h1.8v8.6h8.7v-1.8c-.8,-.4,-1.3,-1.2,-1.3,-2.2c0,-1.4,1.2,-2.5,2.6,-2.5c1.4,0,2.5,1.1,2.5,2.5c0,1,-.5,1.8,-1.3,2.2v1.8h8.7V126h-1.8c-.4,.7,-1.2,1.2,-2.2,1.2c-1.4,0,-2.5,-1.1,-2.5,-2.5c0,-1.4,1.1,-2.6,2.5,-2.6Z" class="gd_276"/>
<path d="M201,135h-9.5v-2.4l.2,-.1c.7,-.4,1.1,-1.1,1.1,-1.9c0,-1.2,-1,-2.1,-2.1,-2.1c-1.2,0,-2.2,.9,-2.2,2.1c0,.8,.4,1.5,1.1,1.9l.2,.1V135h-9.5v-8.6h-1.2c-.5,.7,-1.4,1.2,-2.4,1.2c-1.6,0,-2.9,-1.3,-2.9,-2.9c0,-1.6,1.3,-3,2.9,-3c1,0,1.9,.5,2.4,1.3h1.2v-8.7H189v-1.1c-.8,-.6,-1.3,-1.5,-1.3,-2.5c0,-1.6,1.3,-2.9,3,-2.9c1.6,0,2.9,1.3,2.9,2.9c0,1,-.5,1.9,-1.3,2.5v1.1H201v9.5h-2.4l-.1,-.2c-.4,-.6,-1.1,-1.1,-1.9,-1.1c-.6,0,-1.1,.3,-1.5,.7c-.4,.4,-.6,.9,-.6,1.5c0,1.2,.9,2.1,2.1,2.1c.8,0,1.5,-.4,1.9,-1l.1,-.2H201Zm-8.7,-.8h7.9v-7.8H199c-.5,.7,-1.4,1.2,-2.4,1.2c-1.6,0,-2.9,-1.3,-2.9,-2.9c0,-.8,.3,-1.5,.8,-2.1c.6,-.5,1.3,-.9,2.1,-.9c1,0,1.9,.5,2.4,1.3h1.2v-7.9h-8.7v-2.4l.2,-.1c.7,-.4,1.1,-1.1,1.1,-1.9c0,-1.2,-1,-2.1,-2.1,-2.1c-1.2,0,-2.2,.9,-2.2,2.1c0,.8,.4,1.5,1.1,1.9l.2,.1v2.4h-8.7v8.7h-2.4l-.1,-.2c-.4,-.6,-1.1,-1.1,-1.9,-1.1c-1.2,0,-2.1,1,-2.1,2.2c0,1.2,.9,2.1,2.1,2.1c.8,0,1.5,-.4,1.9,-1l.1,-.2h2.4v8.6H189V133c-.8,-.5,-1.3,-1.4,-1.3,-2.4c0,-1.6,1.3,-2.9,3,-2.9c1.6,0,2.9,1.3,2.9,2.9c0,1,-.5,1.9,-1.3,2.4Z" class="gc_276"/>
<path d="M176.7,142c1,0,1.8,.5,2.2,1.3h1.8v-8.7H172v-1.8c.8,-.4,1.3,-1.2,1.3,-2.2c0,-1.4,-1.1,-2.5,-2.5,-2.5c-1.4,0,-2.6,1.1,-2.6,2.5c0,1,.5,1.8,1.3,2.2v1.8h-8.7v8.7H159c-.4,-.8,-1.2,-1.3,-2.2,-1.3c-1.4,0,-2.5,1.2,-2.5,2.6c0,1.4,1.1,2.5,2.5,2.5c1,0,1.8,-.5,2.2,-1.2h1.8v8.6h8.7v-1.8c-.8,-.4,-1.3,-1.2,-1.3,-2.2c0,-1.4,1.2,-2.5,2.6,-2.5c1.4,0,2.5,1.1,2.5,2.5c0,1,-.5,1.8,-1.3,2.2v1.8h8.7v-8.7h-1.8c-.4,.8,-1.2,1.3,-2.2,1.3c-1.4,0,-2.5,-1.1,-2.5,-2.5c0,-1.4,1.1,-2.6,2.5,-2.6Z" class="ge_276"/>
<path d="M181.1,154.9h-9.5v-2.4l.2,-.1c.7,-.4,1.1,-1.1,1.1,-1.9c0,-1.2,-1,-2.1,-2.1,-2.1c-1.2,0,-2.2,.9,-2.2,2.1c0,.8,.4,1.5,1.1,1.9l.2,.1v2.4h-9.5v-8.6h-1.2c-.5,.7,-1.4,1.2,-2.4,1.2c-1.6,0,-2.9,-1.3,-2.9,-2.9c0,-1.6,1.3,-3,2.9,-3c1,0,1.9,.5,2.4,1.3h1.2v-8.7h8.7V133c-.8,-.5,-1.3,-1.4,-1.3,-2.4c0,-1.6,1.3,-2.9,3,-2.9c1.6,0,2.9,1.3,2.9,2.9c0,1,-.5,1.9,-1.3,2.4v1.2h8.7v9.5h-2.4l-.1,-.2c-.4,-.7,-1.1,-1.1,-1.9,-1.1c-1.2,0,-2.1,1,-2.1,2.2c0,1.1,.9,2.1,2.1,2.1c.8,0,1.5,-.4,1.9,-1.1l.1,-.2h2.4Zm-8.7,-.8h7.9v-7.9h-1.2c-.5,.8,-1.4,1.3,-2.4,1.3c-1.6,0,-2.9,-1.3,-2.9,-2.9c0,-1.6,1.3,-3,2.9,-3c1,0,1.9,.5,2.4,1.3h1.2V135h-8.7v-2.4l.2,-.1c.7,-.4,1.1,-1.1,1.1,-1.9c0,-1.2,-1,-2.1,-2.1,-2.1c-1.2,0,-2.2,.9,-2.2,2.1c0,.8,.4,1.5,1.1,1.9l.2,.1V135h-8.7v8.7h-2.4l-.1,-.2c-.4,-.7,-1.1,-1.1,-1.9,-1.1c-1.2,0,-2.1,1,-2.1,2.2c0,1.2,.9,2.1,2.1,2.1c.8,0,1.5,-.4,1.9,-1l.1,-.2h2.4v8.6h7.9v-1.2c-.8,-.5,-1.3,-1.4,-1.3,-2.4c0,-1.6,1.3,-2.9,3,-2.9c1.6,0,2.9,1.3,2.9,2.9c0,1,-.5,1.9,-1.3,2.4Z" class="gc_276"/>
<path d="M196.6,142c.9,0,1.8,.5,2.2,1.3h1.8v-8.7h-8.7v-1.8c.8,-.4,1.3,-1.2,1.3,-2.2c0,-1.4,-1.1,-2.5,-2.5,-2.5c-1.5,0,-2.6,1.1,-2.6,2.5c0,1,.5,1.8,1.3,2.2v1.8h-8.7v8.7h-1.8c-.4,-.8,-1.2,-1.3,-2.2,-1.3c-1.4,0,-2.5,1.2,-2.5,2.6c0,1.4,1.1,2.5,2.5,2.5c1,0,1.8,-.5,2.2,-1.2h1.8v8.6h8.7v-1.8c-.8,-.4,-1.3,-1.2,-1.3,-2.2c0,-1.4,1.2,-2.5,2.6,-2.5c1.4,0,2.5,1.1,2.5,2.5c0,1,-.5,1.8,-1.3,2.2v1.8h8.7v-8.7h-1.8c-.4,.8,-1.2,1.3,-2.2,1.3c-1.4,0,-2.5,-1.1,-2.5,-2.5c0,-1.4,1.1,-2.6,2.5,-2.6Z" class="gf_276"/>
<path d="M201,154.9h-9.5v-2.4l.2,-.1c.7,-.4,1.1,-1.1,1.1,-1.9c0,-1.2,-1,-2.1,-2.1,-2.1c-1.2,0,-2.2,.9,-2.2,2.1c0,.8,.4,1.5,1.1,1.9l.2,.1v2.4h-9.5v-8.6h-1.2c-.5,.7,-1.4,1.2,-2.4,1.2c-1.6,0,-2.9,-1.3,-2.9,-2.9c0,-1.6,1.3,-3,2.9,-3c1,0,1.9,.5,2.4,1.3h1.2v-8.7H189V133c-.8,-.5,-1.3,-1.4,-1.3,-2.4c0,-1.6,1.3,-2.9,3,-2.9c1.6,0,2.9,1.3,2.9,2.9c0,1,-.5,1.9,-1.3,2.4v1.2H201v9.5h-2.4l-.1,-.2c-.4,-.7,-1.1,-1.1,-1.9,-1.1c-.6,0,-1.1,.3,-1.5,.7c-.4,.4,-.6,.9,-.6,1.5c0,1.1,.9,2.1,2.1,2.1c.8,0,1.5,-.4,1.9,-1.1l.1,-.2H201Zm-8.7,-.8h7.9v-7.9H199c-.5,.8,-1.4,1.3,-2.4,1.3c-1.6,0,-2.9,-1.3,-2.9,-2.9c0,-.8,.3,-1.5,.8,-2.1c.6,-.6,1.3,-.9,2.1,-.9c1,0,1.9,.5,2.4,1.3h1.2V135h-8.7v-2.4l.2,-.1c.7,-.4,1.1,-1.1,1.1,-1.9c0,-1.2,-1,-2.1,-2.1,-2.1c-1.2,0,-2.2,.9,-2.2,2.1c0,.8,.4,1.5,1.1,1.9l.2,.1V135h-8.7v8.7h-2.4l-.1,-.2c-.4,-.7,-1.1,-1.1,-1.9,-1.1c-1.2,0,-2.1,1,-2.1,2.2c0,1.2,.9,2.1,2.1,2.1c.8,0,1.5,-.4,1.9,-1l.1,-.2h2.4v8.6H189v-1.2c-.8,-.5,-1.3,-1.4,-1.3,-2.4c0,-1.6,1.3,-2.9,3,-2.9c1.6,0,2.9,1.3,2.9,2.9c0,1,-.5,1.9,-1.3,2.4Z" class="gc_276"/>
<path d="M32.1,45.1H9.2m958.3,0h22.9M32.1,1331.3H9.2m958.3,0h22.9M45.1,32.1V9.2m0,1335.1v22.9M954.5,32.1V9.2m0,1335.1v22.9" class="gg_276"/>
<path d="M32.1,45.1H9.2m958.3,0h22.9M32.1,1331.3H9.2m958.3,0h22.9M45.1,32.1V9.2m0,1335.1v22.9M954.5,32.1V9.2m0,1335.1v22.9" class="gh_276"/>
<path d="M27.5,32.1H0m972.1,0h27.5M27.5,1344.3H0m972.1,0h27.5M32.1,27.5V0m0,1348.9v27.5M967.5,27.5V0m0,1348.9v27.5" class="gg_276"/>
<path d="M27.5,32.1H0m972.1,0h27.5M27.5,1344.3H0m972.1,0h27.5M32.1,27.5V0m0,1348.9v27.5M967.5,27.5V0m0,1348.9v27.5" class="gh_276"/>
</svg>