<?xml version="1.0" encoding="UTF-8" standalone="no"?>
<!DOCTYPE svg PUBLIC "-//W3C//DTD SVG 1.1//EN"
"http://www.w3.org/Graphics/SVG/1.1/DTD/svg11.dtd">
<svg viewBox="0 0 999 1376" version="1.1" xmlns="http://www.w3.org/2000/svg" xmlns:xlink="http://www.w3.org/1999/xlink">
<defs>
<clipPath id="c0_201"><path d="M86.5,625V270.8H330.7V625Z"/></clipPath>
<clipPath id="c1_201"><path d="M92.6,615.7V276.3h231V615.7Z"/></clipPath>
<clipPath id="c2_201"><path d="M92.3,615.4V276h231V615.4Z"/></clipPath>
<clipPath id="c3_201"><path d="M199.2,241.5l-6.5,-2.1L176.3,225.5V168.4h72v73.1Z"/></clipPath>
<clipPath id="c4_201"><path d="M198.6,769.9l-6.5,-2.1L175.7,753.9V696.8h72v73.1Z"/></clipPath>
<clipPath id="c5_201"><path d="M196.9,289.4c-.3,0,3.5,-8.2,3.5,-8.2l.8,.5c0,0,-4.1,7.7,-4.3,7.7Z"/></clipPath>
<clipPath id="c6_201"><path d="M204.4,281.7c0,0,-6.9,-1.1,-7.6,-5.2c-.7,-3.6,1.5,-3.9,2.1,-3.9c0,0,.1,.1,.1,.1l8.3,-12.8l-1.5,-3.1c0,0,-.6,-1.1,.2,-2c0,-.1,.1,-.1,.3,-.1c2.1,0,12.9,5.5,12.9,5.5l.1,.2c-.4,.5,-.7,1.1,-1.4,1.6c-.7,.5,-5.1,1.2,-5.1,1.2l-8.4,18.5Z"/></clipPath>
<clipPath id="c7_201"><path d="M204,281.4c.2,-.5,.2,-1.9,0,-2.3v-1.4c-1.6,-.5,-2.9,-1.2,-3.7,-2.5c-1.1,.6,-2.1,1.2,-3.1,1.9c1.5,2.1,3.8,3.5,6.8,4.3Zm0,-3.9c2.1,-4.6,3.9,-9.5,6.1,-14.1c-.9,-.4,-1.8,-1.3,-2.6,-1.4c-2.3,4.3,-4.6,8.6,-7.1,12.8c.8,1.3,2.1,2,3.6,2.7Zm-7.3,12c1,-2.9,2.4,-5.5,3.5,-8.3c-2,-1.5,-3.9,-3.1,-4.4,-6.1v-1.5c-.1,-2.7,1.9,-3.4,4.6,-3.4c0,0,.1,0,.2,0c1.9,-3.4,4.2,-6.4,6.1,-9.7c-.6,-.9,-1.1,-2.4,-.9,-3.7c.5,1.3,1.7,1.9,2.4,2.9c-.1,.6,-.3,1.2,-.4,1.8c.6,.7,1.4,1.2,2.4,1.4c.5,-.4,.6,-1.3,1.2,-1.5c.9,.3,1.8,.7,3.1,.7c.1,.1,.5,.2,.8,.2c.4,0,.7,-.1,.8,-.2c.2,.1,.3,.1,.4,.1c.2,0,.4,-.1,.6,-.2c.2,0,.3,-.1,.5,-.1c.1,0,.2,0,.3,.1c-1.3,.7,-2.2,1.8,-4.2,1.8c-.1,0,-.2,0,-.3,0c-.9,3.7,-1.9,7.3,-2.7,11.1c.6,1.1,1.5,1.7,1.3,3.2c-.5,2.7,-3.9,4.4,-7.2,4.4c-1.3,0,-2.5,-.3,-3.6,-.8c-1,2.1,-2.1,4.2,-3.3,6.1c0,-.4,.3,-.4,.3,-.8c.9,-1.8,1.9,-3.6,2.6,-5.6c-1,1.7,-1.8,3.6,-2.8,5.5c-.2,.4,-.4,.8,-.6,1.2c-.3,.4,-.3,1.2,-.7,1.4Z"/></clipPath>
<clipPath id="c8_201"><path d="M214.4,261.8c-4.8,0,-13.1,-7.4,-5.5,-8.8h1.2c.2,0,.3,0,.5,0q.1,0,.2,0q.1,0,.2,0c.2,0,.5,0,.9,.1c3.1,.6,8.2,3.8,7.5,7c-.2,1.2,-1.5,1.6,-3.1,1.7h-1.8c0,0,-.1,0,-.1,0Z"/></clipPath>
<clipPath id="c9_201"><path d="M191.8,1065.2V979.4H750.6v85.8Z"/></clipPath>
<clipPath id="ca_201"><path d="M191.8,1192.5v-81.4H750.6v81.4Z"/></clipPath>
<clipPath id="cb_201"><path d="M786.5,132.5V120.1H801v12.4Z"/></clipPath>
<clipPath id="cc_201"><path d="M696.7,558.4V341.7H936.5V558.4Z"/></clipPath>
<clipPath id="cd_201"><path d="M704,550.3V348.4H932.2V550.3Z"/></clipPath>
<clipPath id="ce_201"><path d="M703.7,550V348.1H931.9V550Z"/></clipPath>
<clipPath id="cf_201"><path d="M821.3,361.3c-.2,-.1,3.6,-8.2,3.6,-8.2l.8,.5c0,0,-4.1,7.7,-4.4,7.7Z"/></clipPath>
<clipPath id="cg_201"><path d="M828.9,353.6c0,0,-6.9,-1.1,-7.6,-5.2c-.7,-3.6,1.5,-3.9,2,-3.9c.1,0,.2,0,.2,0l8.3,-12.7l-1.5,-3.1c0,0,-.6,-1.1,.2,-2c0,-.1,.1,-.1,.3,-.1c2.1,0,12.9,5.5,12.9,5.5l.1,.1c-.4,.6,-.7,1.2,-1.4,1.7c-.7,.5,-5.1,1.1,-5.1,1.1l-8.4,18.6Z"/></clipPath>
<clipPath id="ch_201"><path d="M828.4,353.2c.3,-.4,.3,-1.8,0,-2.2v-1.4c-1.5,-.5,-2.8,-1.2,-3.6,-2.5c-1.1,.6,-2.1,1.2,-3.1,1.9c1.5,2.1,3.8,3.5,6.7,4.2Zm0,-3.9c2.2,-4.5,4,-9.5,6.2,-14c-.9,-.4,-1.9,-1.4,-2.6,-1.4c-2.3,4.3,-4.6,8.6,-7.1,12.8c.7,1.3,2.1,2,3.5,2.6Zm-7.3,12.1v0c1.1,-2.9,2.5,-5.5,3.6,-8.3c-2,-1.5,-4,-3.1,-4.4,-6.1v-1.5c-.1,-2.8,1.9,-3.4,4.6,-3.4c0,0,.1,0,.1,0c2,-3.4,4.3,-6.4,6.2,-9.7c-.6,-.9,-1.2,-2.4,-.9,-3.7c.5,1.3,1.7,1.9,2.4,2.9c-.1,.6,-.3,1.2,-.4,1.8c.6,.7,1.4,1.2,2.4,1.4c.5,-.5,.5,-1.3,1.2,-1.5c.9,.3,1.8,.7,3.1,.7c.1,.1,.5,.2,.8,.2c.4,0,.7,-.1,.8,-.2c.1,0,.2,.1,.3,.1c.3,0,.5,-.1,.7,-.2c.1,0,.3,-.1,.5,-.1c.1,0,.2,0,.3,.1c-1.3,.7,-2.2,1.8,-4.2,1.8c-.1,0,-.2,0,-.3,-.1c-.9,3.8,-1.9,7.4,-2.7,11.2c.6,1.1,1.5,1.7,1.3,3.2c-.5,2.7,-3.9,4.4,-7.2,4.4c-1.3,0,-2.5,-.3,-3.6,-.8c-1,2.1,-2.1,4.1,-3.3,6.1c0,-.4,.3,-.4,.3,-.8c.9,-1.8,1.9,-3.6,2.6,-5.7c-1.1,1.8,-1.8,3.7,-2.8,5.6c-.2,.4,-.4,.8,-.6,1.2c-.3,.4,-.3,1.2,-.8,1.4Z"/></clipPath>
<clipPath id="ci_201"><path d="M838.9,333.6c-4.8,0,-13.1,-7.3,-5.6,-8.8h1.3c.1,.1,.3,.1,.5,.1c0,0,.1,0,.2,0c.3,0,.7,0,1.1,.1c3,.6,8.2,3.8,7.5,7c-.2,1.2,-1.6,1.6,-3.1,1.6H839c0,0,-.1,0,-.1,0Z"/></clipPath>
<style type="text/css"><![CDATA[
.g0_201{
fill: #FFF;
}
.g1_201{
fill: none;
stroke: #6381B7;
stroke-width: 0.763;
}
.g2_201{
fill: #6381B7;
}
.g3_201{
fill: none;
stroke: #6381B7;
stroke-width: 0.381;
stroke-dasharray: 2,1;
}
.g4_201{
fill: none;
stroke: #6381B7;
stroke-width: 0.381;
}
.g5_201{
fill: #F7C2D9;
}
.g6_201{
fill: #FDF4F3;
}
.g7_201{
fill: #EC008C;
}
.g8_201{
fill: none;
stroke: #949698;
stroke-width: 0.305;
stroke-dasharray: 3,3;
}
.g9_201{
fill: none;
stroke: #949698;
stroke-width: 0.305;
stroke-dasharray: 4,4;
}
.ga_201{
fill: none;
stroke: #949698;
stroke-width: 0.305;
}
.gb_201{
fill: #6D6F71;
}
.gc_201{
fill: #FCE8B0;
}
.gd_201{
fill: none;
stroke: #00ABE5;
stroke-width: 2.291;
}
.ge_201{
fill: #3D3B39;
}
.gf_201{
fill: #E5E9B7;
}
.gg_201{
fill: #61C7CB;
}
.gh_201{
fill: none;
stroke: #00ABE5;
stroke-width: 1.527;
stroke-linecap: round;
stroke-linejoin: round;
stroke-dasharray: 0,5;
}
.gi_201{
fill: none;
stroke: #00ABE5;
stroke-width: 1.527;
stroke-linecap: round;
stroke-linejoin: round;
}
.gj_201{
fill: #25408F;
}
.gk_201{
fill: #A8AAAD;
}
.gl_201{
fill: none;
stroke: #949698;
stroke-width: 0.549;
}
.gm_201{
fill: none;
stroke: #BCBEC0;
stroke-width: 2.566;
}
.gn_201{
fill: #231F20;
}
.go_201{
fill: #363637;
}
.gp_201{
fill: #5CC4BE;
}
.gq_201{
fill: #F0D73F;
}
.gr_201{
fill: none;
stroke: #FFF;
stroke-width: 1.909;
stroke-miterlimit: 10;
}
.gs_201{
fill: none;
stroke: #000;
stroke-width: 0.381;
stroke-miterlimit: 10;
}
]]></style>
</defs>
<path d="M172.1,136.8c0,0,-18.4,0,-18.4,18.3V657.8c0,0,0,18.3,18.4,18.3H849.2c0,0,18.3,0,18.3,-18.3v-521Z" class="g0_201"/>
<path d="M172.1,136.8c0,0,-18.4,0,-18.4,18.3V657.8c0,0,0,18.3,18.4,18.3H849.2c0,0,18.3,0,18.3,-18.3v-521H172.1Z" class="g1_201"/>
<path d="M552.2,872.2c0,0,-4.4,0,-4.4,4.3v10.9c0,0,0,4.3,4.4,4.3h30.3c0,0,4.3,0,4.3,-4.3V876.5c0,0,0,-4.3,-4.3,-4.3Z" class="g2_201"/>
<path d="M539,863.3v37.6m1.3,1H866.8m.9,-1.4V863m-1.3,-1H539.9" class="g3_201"/>
<path d="M539,901.3v.6h.5m327.6,0h.6v-.6m0,-38.7V862h-.6m-327.6,0H539v.6" class="g4_201"/>
<image clip-path="url(#c0_201)" preserveAspectRatio="none" x="86" y="271" width="244" height="354" xlink:href="img/1.png"/>
<path d="M91.5,286.8l17.3,332.1L324.6,607.7l-18,-332.1Z" class="g5_201"/>
<image clip-path="url(#c1_201)" preserveAspectRatio="none" x="92" y="276" width="231" height="340" xlink:href="img/2.png"/>
<image clip-path="url(#c2_201)" preserveAspectRatio="none" x="92" y="276" width="231" height="340" xlink:href="img/3.png"/>
<path d="M97.9,281.4l-.3,327.8H278.8l37.6,-28.4l.3,-299.4Z" class="g6_201"/>
<path d="M280.7,609.4l35.8,-23L304.6,575.5Z" class="g7_201"/>
<path d="M489.7,260.1c-14,-3.1,-58.4,-12.2,-87.2,-7.4" class="g8_201"/>
<path d="M397.2,256.7c1.1,.7,4.3,1.2,11.5,.7" class="g9_201"/>
<path d="M409.1,252.8c-8,-1.1,-28.2,-2.1,-68.8,5m-7.2,1.3c-10.8,2,-39.5,7.8,-60.9,16.2" class="g8_201"/>
<path d="M494.1,261.1c0,0,-.5,-.1,-1.5,-.3M401,252.9c-.5,.1,-1,.2,-1.5,.3c0,0,-.7,.4,-1.4,.9m12.3,3.2c.5,0,1.1,-.1,1.6,-.1c0,0,.7,-.3,1.3,-.6m1.3,-2.1c-.2,-.3,-.5,-.6,-1.1,-.8c0,0,-.5,-.2,-1.5,-.4M338.9,258c-.5,.1,-1,.2,-1.5,.3c0,0,-.5,.1,-1.4,.3m-65.1,17.2c-.5,.2,-1,.4,-1.4,.6" class="ga_201"/>
<path d="M275.7,277.5l-7.8,-5.7l-5.1,11.6Z" class="gb_201"/>
<path d="M504.3,295.2c10,-1.3,17.8,-6.7,19.8,-13.4m-.6,-8.2c-2.8,-6.4,-10.9,-11.2,-20.9,-12.1m-8.3,.2c-10,1.3,-17.8,6.7,-19.8,13.4m.6,8.2c2.8,6.4,10.9,11.2,20.8,12.1" class="g9_201"/>
<path d="M524.4,280.1c.1,-.5,.2,-1.1,.2,-1.6c0,-.6,-.1,-1.2,-.2,-1.7M501,261.4c-.6,-.1,-1.2,-.1,-1.7,-.1c-.6,0,-1.1,0,-1.7,.1m-23.5,15.4c0,.5,-.1,1.1,-.1,1.7c0,.5,.1,1.1,.1,1.6m23.5,15.4c.6,.1,1.1,.1,1.7,.1c.5,0,1.1,0,1.7,-.1" class="ga_201"/>
<path d="M231.8,170.6c0,0,-13,0,-13,13v47.6c0,0,0,13,13,13h602c0,0,13,0,13,-13V183.6c0,0,0,-13,-13,-13Z" class="gc_201"/>
<image clip-path="url(#c3_201)" preserveAspectRatio="none" x="175" y="167" width="75" height="76" xlink:href="img/4.png"/>
<path d="M226.6,236.8c0,0,-26.9,11.3,-51.1,-12.7c0,0,15.1,25.3,49.3,23.9c0,0,24.7,.4,20.2,-10.1c0,0,1.2,-4.4,-18.4,-1.1Z" class="gc_201"/>
<path d="M167.1,683.9c0,0,-13,0,-13,13V843.3c0,0,0,13,13,13H854.9c0,0,13,0,13,-13V696.9c0,0,0,-13,-13,-13Z" class="g0_201"/>
<path d="M167.1,683.9c0,0,-13,0,-13,13V843.3c0,0,0,13,13,13H854.9c0,0,13,0,13,-13V696.9c0,0,0,-13,-13,-13H167.1Z" class="g1_201"/>
<path d="M231.2,724.9c0,0,-12.9,0,-12.9,13v21.7c0,0,0,13,12.9,13H833.3c0,0,13,0,13,-13V737.9c0,0,0,-13,-13,-13Z" class="gc_201"/>
<image clip-path="url(#c4_201)" preserveAspectRatio="none" x="174" y="695" width="75" height="77" xlink:href="img/5.png"/>
<path d="M226,765.2c0,0,-26.8,11.3,-51.1,-12.7c0,0,15.2,25.3,49.3,23.9c0,0,24.8,.4,20.3,-10.1c0,0,1.2,-4.5,-18.5,-1.1Z" class="gc_201"/>
<image clip-path="url(#c5_201)" x="196" y="281" width="6" height="9" xlink:href="shade/1.png"/>
<image clip-path="url(#c6_201)" x="196" y="254" width="24" height="28" xlink:href="shade/2.png"/>
<image clip-path="url(#c7_201)" x="195" y="256" width="23" height="34" xlink:href="shade/3.png"/>
<image clip-path="url(#c8_201)" x="201" y="252" width="20" height="10" xlink:href="shade/4.png"/>
<image clip-path="url(#c9_201)" preserveAspectRatio="none" x="190" y="978" width="561" height="89" xlink:href="img/6.png"/>
<image clip-path="url(#ca_201)" preserveAspectRatio="none" x="190" y="1109" width="561" height="85" xlink:href="img/7.png"/>
<path d="M154.5,953V924.3c0,0,0,-4.3,4.3,-4.3H862.4c0,0,4.4,0,4.4,4.3v29.1" class="gd_201"/>
<path d="M200.1,920.5c2.6,0,4.8,-2.2,4.8,-4.8c0,-2.7,-2.2,-4.8,-4.8,-4.8c-2.7,0,-4.8,2.1,-4.8,4.8c0,2.6,2.1,4.8,4.8,4.8Z" class="g0_201"/>
<path d="M200.1,922.4c3.6,0,6.6,-3,6.6,-6.7c0,-3.7,-3,-6.7,-6.6,-6.7c-3.7,0,-6.7,3,-6.7,6.7c0,3.7,3,6.7,6.7,6.7m0,-11.5c2.6,0,4.8,2.1,4.8,4.8c0,2.6,-2.2,4.8,-4.8,4.8c-2.7,0,-4.8,-2.2,-4.8,-4.8c0,-2.7,2.1,-4.8,4.8,-4.8Z" class="ge_201"/>
<path d="M205.5,924.3H194.6c-.1,0,-.3,0,-.4,0c2.7,1.1,4.9,3.4,5.9,6.2c1.3,-.5,2.7,-.8,4.2,-.8c2.9,0,5.5,1,7.5,2.7v-1.8c0,-3.5,-2.8,-6.3,-6.3,-6.3Z" class="g0_201"/>
<path d="M184,921.3c3.4,0,6.1,-2.7,6.1,-6.1c0,-3.4,-2.7,-6.1,-6.1,-6.1c-3.4,0,-6.1,2.7,-6.1,6.1c0,3.4,2.7,6.1,6.1,6.1Z" class="gf_201"/>
<path d="M184,923.2c4.4,0,8,-3.6,8,-8c0,-4.4,-3.6,-8,-8,-8c-4.4,0,-8,3.6,-8,8c0,4.4,3.6,8,8,8m0,-14.1c3.4,0,6.1,2.7,6.1,6.1c0,3.4,-2.7,6.1,-6.1,6.1c-3.4,0,-6.1,-2.7,-6.1,-6.1c0,-3.4,2.7,-6.1,6.1,-6.1Z" class="ge_201"/>
<path d="M198.4,931.3c-1,-3.3,-4.1,-5.7,-7.7,-5.7H177.3c-4.4,0,-8,3.6,-8,8v4.3h23.8c.9,-2.8,2.8,-5.1,5.3,-6.6Z" class="gf_201"/>
<path d="M204.3,931.6c-5.5,0,-9.9,4.5,-9.9,10c0,5.5,4.4,10,9.9,10c5.5,0,10,-4.5,10,-10c0,-5.5,-4.5,-10,-10,-10m6.7,11.7c0,.2,-.2,.4,-.5,.4h-4v4.1c0,.2,-.2,.5,-.5,.5h-3.3c-.3,0,-.5,-.3,-.5,-.5v-4.1h-4.1c-.2,0,-.4,-.2,-.4,-.4v-3.4c0,-.3,.2,-.5,.4,-.5h4.1v-4c0,-.3,.2,-.5,.5,-.5H206c.3,0,.5,.2,.5,.5v4h4c.3,0,.5,.2,.5,.5Z" class="gg_201"/>
<path d="M213.7,934.3v-3.7c0,-4.5,-3.7,-8.2,-8.2,-8.2H194.6c-1.6,0,-3.1,.5,-4.3,1.3h-13c-5.4,0,-9.9,4.4,-9.9,9.9v5.2c0,.6,.4,1,1,1h24.2c-.1,.6,-.1,1.2,-.1,1.8c0,6.5,5.3,11.9,11.8,11.9c6.6,0,11.9,-5.4,11.9,-11.9c0,-2.8,-.9,-5.3,-2.5,-7.3m-9.4,17.3c-5.5,0,-9.9,-4.5,-9.9,-10c0,-5.5,4.4,-10,9.9,-10c5.5,0,10,4.5,10,10c0,5.5,-4.5,10,-10,10m-35,-18c0,-4.4,3.6,-8,8,-8h13.4c3.6,0,6.7,2.4,7.7,5.7c-2.5,1.5,-4.4,3.8,-5.3,6.6H169.3Zm42.5,-1.2c-2,-1.7,-4.6,-2.7,-7.5,-2.7c-1.5,0,-2.9,.3,-4.2,.8c-1,-2.8,-3.2,-5.1,-5.9,-6.2c.1,0,.3,0,.4,0h10.9c3.5,0,6.3,2.8,6.3,6.3Z" class="ge_201"/>
<path d="M205.5,939.9v-4h-2.4v4c0,.3,-.2,.5,-.4,.5h-4.1v2.4h4.1c.2,0,.4,.2,.4,.5v4h2.4v-4c0,-.3,.3,-.5,.5,-.5h4.1v-2.4H206c-.2,0,-.5,-.2,-.5,-.5Z" class="g0_201"/>
<path d="M210.5,939.4h-4v-4c0,-.3,-.2,-.5,-.5,-.5h-3.3c-.3,0,-.5,.2,-.5,.5v4h-4.1c-.2,0,-.4,.2,-.4,.5v3.4c0,.2,.2,.4,.4,.4h4.1v4.1c0,.2,.2,.5,.5,.5H206c.3,0,.5,-.3,.5,-.5v-4.1h4c.3,0,.5,-.2,.5,-.4v-3.4c0,-.3,-.2,-.5,-.5,-.5m-.4,3.4H206c-.2,0,-.5,.2,-.5,.5v4h-2.4v-4c0,-.3,-.2,-.5,-.4,-.5h-4.1v-2.4h4.1c.2,0,.4,-.2,.4,-.5v-4h2.4v4c0,.3,.3,.5,.5,.5h4.1Z" class="ge_201"/>
<path d="M154.1,963.2v278.4m4.6,2.3H864.9m2.2,-4.6V960.8m-4.5,-2.3H156.4" class="gh_201"/>
<path d="M154.1,1243.9v0m713.1,0v0m0,-285.4v0m-713.1,0v0" class="gi_201"/>
<path d="M153.3,111.9v39L165,161.2V117Z" class="gj_201"/>
<path d="M153.3,111.9v39H851.1c0,0,16.8,0,16.8,-16.8v-5.3c0,0,0,-16.9,-16.8,-16.9Z" class="g2_201"/>
<path d="M802.6,145.6c8.2,0,14.9,-6.5,14.9,-14.5c0,-8.1,-6.7,-14.5,-14.9,-14.5c-8.2,0,-14.9,6.4,-14.9,14.5c0,8,6.7,14.5,14.9,14.5Z" class="gk_201"/>
<path d="M802.6,145.6c8.2,0,14.9,-6.5,14.9,-14.5c0,-8.1,-6.7,-14.5,-14.9,-14.5c-8.2,0,-14.9,6.4,-14.9,14.5c0,8,6.7,14.5,14.9,14.5Z" class="gl_201"/>
<path d="M802.6,136.4c3,0,5.5,-2.4,5.5,-5.3c0,-3,-2.5,-5.4,-5.5,-5.4c-3,0,-5.5,2.4,-5.5,5.4c0,2.9,2.5,5.3,5.5,5.3Z" class="g0_201"/>
<path d="M802.6,136.4c3,0,5.5,-2.4,5.5,-5.3c0,-3,-2.5,-5.4,-5.5,-5.4c-3,0,-5.5,2.4,-5.5,5.4c0,2.9,2.5,5.3,5.5,5.3Z" class="gm_201"/>
<g clip-path="url(#cb_201)" opacity="0.3">
<path d="M788,130.3v0c0,0,0,-4.8,3.7,-8.7l7.7,6.8c0,0,-1,.9,-1,2.6Z" class="g0_201"/>
</g>
<path d="M807.2,131c0,0,-3.5,0,-3.5,3.4v8.7c0,0,0,3.5,3.5,3.5h43.5c0,0,3.5,0,3.5,-3.5v-8.7c0,0,0,-3.4,-3.5,-3.4Z" class="gn_201"/>
<path d="M191.2,122c0,-8.3,-6.8,-15,-15.1,-15c-8.3,0,-15,6.7,-15,15c0,8.3,6.7,15.1,15,15.1c.8,0,1.7,-.1,2.4,-.2l4.5,5.2v-6.7c4.9,-2.5,8.2,-7.6,8.2,-13.4Z" class="g0_201"/>
<path d="M183.5,143.3l-5.1,-5.9c-.8,.1,-1.5,.1,-2.3,.1c-8.5,0,-15.5,-6.9,-15.5,-15.5c0,-8.5,7,-15.5,15.5,-15.5c8.6,0,15.5,7,15.5,15.5c0,5.7,-3.1,11,-8.1,13.7Zm-4.8,-6.9l3.9,4.5v-5.8l.2,-.1c4.9,-2.5,7.9,-7.5,7.9,-13c0,-8,-6.5,-14.6,-14.6,-14.6c-8,0,-14.6,6.6,-14.6,14.6c0,8.1,6.6,14.6,14.6,14.6c.8,0,1.6,-.1,2.4,-.2Z" class="go_201"/>
<path d="M169.1,121.6c.8,0,1.4,.6,1.4,1.4c0,.8,-.6,1.5,-1.4,1.5c-.8,0,-1.4,-.7,-1.4,-1.5c0,-.8,.6,-1.4,1.4,-1.4Z" class="gp_201"/>
<path d="M169.1,124.9c-1,0,-1.9,-.8,-1.9,-1.9c0,-1,.9,-1.9,1.9,-1.9c1,0,1.9,.9,1.9,1.9c0,1.1,-.9,1.9,-1.9,1.9m0,-2.9c-.5,0,-1,.5,-1,1c0,.6,.5,1,1,1c.5,0,1,-.4,1,-1c0,-.5,-.5,-1,-1,-1Z" class="go_201"/>
<path d="M176.1,121.6c.8,0,1.5,.6,1.5,1.4c0,.8,-.7,1.5,-1.5,1.5c-.8,0,-1.4,-.7,-1.4,-1.5c0,-.8,.6,-1.4,1.4,-1.4Z" class="gp_201"/>
<path d="M176.1,124.9c-1,0,-1.9,-.8,-1.9,-1.9c0,-1,.9,-1.9,1.9,-1.9c1.1,0,1.9,.9,1.9,1.9c0,1.1,-.8,1.9,-1.9,1.9m0,-2.9c-.5,0,-1,.5,-1,1c0,.6,.5,1,1,1c.6,0,1,-.4,1,-1c0,-.5,-.4,-1,-1,-1Z" class="go_201"/>
<path d="M183.1,121.6c.8,0,1.5,.6,1.5,1.4c0,.8,-.7,1.5,-1.5,1.5c-.8,0,-1.4,-.7,-1.4,-1.5c0,-.8,.6,-1.4,1.4,-1.4Z" class="gp_201"/>
<path d="M183.1,124.9c-1,0,-1.9,-.8,-1.9,-1.9c0,-1,.9,-1.9,1.9,-1.9c1.1,0,1.9,.9,1.9,1.9c0,1.1,-.8,1.9,-1.9,1.9m0,-2.9c-.5,0,-1,.5,-1,1c0,.6,.5,1,1,1c.6,0,1,-.4,1,-1c0,-.5,-.4,-1,-1,-1Z" class="go_201"/>
<path d="M185.1,136.3c0,-9.8,7.8,-17.7,17.6,-17.7c9.7,0,17.6,7.9,17.6,17.7c0,9.7,-7.9,17.6,-17.6,17.6c-1,0,-1.9,-.1,-2.9,-.3l-5.2,6.1v-7.8c-5.7,-2.9,-9.5,-8.8,-9.5,-15.6Z" class="gq_201"/>
<path d="M194.6,160.2q-.1,0,-.2,0c-.2,-.1,-.3,-.3,-.3,-.5v-7.5c-5.9,-3.2,-9.5,-9.2,-9.5,-15.9c0,-10,8.1,-18.1,18.1,-18.1c9.9,0,18,8.1,18,18.1c0,9.9,-8.1,18,-18,18c-.9,0,-1.8,0,-2.7,-.2l-5.1,5.9c-.1,.1,-.2,.2,-.3,.2m8.1,-41.1c-9.5,0,-17.2,7.7,-17.2,17.2c0,6.4,3.6,12.2,9.3,15.2c.1,.1,.2,.2,.2,.4v6.6l4.5,-5.2c.1,-.1,.3,-.1,.4,-.1c1,.1,1.9,.2,2.8,.2c9.4,0,17.1,-7.7,17.1,-17.1c0,-9.5,-7.7,-17.2,-17.1,-17.2Z" class="go_201"/>
<path d="M210.9,135.8c.9,0,1.6,.7,1.6,1.6c0,1,-.7,1.7,-1.6,1.7c-1,0,-1.7,-.7,-1.7,-1.7c0,-.9,.7,-1.6,1.7,-1.6Z" class="g0_201"/>
<path d="M210.9,139.6c-1.2,0,-2.2,-1,-2.2,-2.2c0,-1.1,1,-2.1,2.2,-2.1c1.1,0,2.1,1,2.1,2.1c0,1.2,-1,2.2,-2.1,2.2m0,-3.4c-.7,0,-1.3,.6,-1.3,1.2c0,.7,.6,1.3,1.3,1.3c.6,0,1.2,-.6,1.2,-1.3c0,-.6,-.6,-1.2,-1.2,-1.2Z" class="go_201"/>
<path d="M202.7,135.8c.9,0,1.6,.7,1.6,1.6c0,1,-.7,1.7,-1.6,1.7c-1,0,-1.7,-.7,-1.7,-1.7c0,-.9,.7,-1.6,1.7,-1.6Z" class="g0_201"/>
<path d="M202.7,139.6c-1.2,0,-2.2,-1,-2.2,-2.2c0,-1.1,1,-2.1,2.2,-2.1c1.1,0,2.1,1,2.1,2.1c0,1.2,-1,2.2,-2.1,2.2m0,-3.4c-.7,0,-1.3,.6,-1.3,1.2c0,.7,.6,1.3,1.3,1.3c.6,0,1.2,-.6,1.2,-1.3c0,-.6,-.6,-1.2,-1.2,-1.2Z" class="go_201"/>
<path d="M194.5,135.8c.9,0,1.6,.7,1.6,1.6c0,1,-.7,1.7,-1.6,1.7c-1,0,-1.7,-.7,-1.7,-1.7c0,-.9,.7,-1.6,1.7,-1.6Z" class="g0_201"/>
<path d="M194.5,139.6c-1.2,0,-2.2,-1,-2.2,-2.2c0,-1.1,1,-2.1,2.2,-2.1c1.1,0,2.1,1,2.1,2.1c0,1.2,-1,2.2,-2.1,2.2m0,-3.4c-.7,0,-1.2,.6,-1.2,1.2c0,.7,.5,1.3,1.2,1.3c.6,0,1.2,-.6,1.2,-1.3c0,-.6,-.6,-1.2,-1.2,-1.2Z" class="go_201"/>
<path d="M585,293.5c5.3,-1.6,9.3,-6,10.4,-11.4m-.4,-7.3c-1.6,-5.2,-5.9,-9.3,-11.4,-10.4m-7.3,.4c-5.2,1.6,-9.3,6,-10.3,11.4m.3,7.3c1.6,5.3,6,9.3,11.4,10.4" class="g8_201"/>
<path d="M595.6,280.6c.1,-.4,.1,-.9,.1,-1.4c0,-.5,0,-1,-.1,-1.5M582.1,264.2c-.4,0,-.9,0,-1.4,0c-.5,0,-1,0,-1.5,0m-13.5,13.5c0,.5,0,1,0,1.5c0,.5,0,1,0,1.4m13.5,13.5c.5,0,1,.1,1.5,.1c.5,0,1,-.1,1.4,-.1" class="ga_201"/>
<image clip-path="url(#cc_201)" preserveAspectRatio="none" x="697" y="342" width="239" height="217" xlink:href="img/8.png"/>
<path d="M716.3,346.4L701.7,534.7l214.8,17.8l14,-189.2Z" class="g5_201"/>
<image clip-path="url(#cd_201)" preserveAspectRatio="none" x="704" y="349" width="228" height="202" xlink:href="img/9.png"/>
<image clip-path="url(#ce_201)" preserveAspectRatio="none" x="704" y="348" width="227" height="203" xlink:href="img/10.png"/>
<path d="M710.6,353.4l-1.9,187.3l182.4,3.2l33,-29.4l1.3,-157.4Z" class="g6_201"/>
<path d="M891.2,543.9l33,-29.7l-23.4,-3.4Z" class="g7_201"/>
<path d="M572.9,296.8c-4.7,19.1,-21.4,95.4,7.2,112.3" class="g8_201"/>
<path d="M587.5,408.9c5.6,-2.4,13.4,-8,4.6,-19.5m-7.5,-1.2c-1.4,.7,-3,1.9,-4.3,3.5m-2.7,7.8c-.7,10,2.4,35.3,45.1,58.8" class="g9_201"/>
<path d="M629.3,461.9c10.9,5.4,42.6,19.5,79.2,17.9" class="g8_201"/>
<path d="M574,292.5c0,0,-.2,.5,-.4,1.4m7.8,115.9c.5,.2,.9,.4,1.4,.6c0,0,.6,-.1,1.6,-.4m6.7,-21.9c-.4,-.4,-.7,-.8,-1.1,-1.2c0,0,-.7,-.1,-1.9,.1m-8.9,6.3c-.3,.5,-.6,1,-.9,1.6c0,0,-.1,.6,-.3,1.5m46,62.7c.5,.2,.9,.5,1.4,.7c0,0,.4,.3,1.3,.7M710,479.8c.5,0,1,-.1,1.5,-.1" class="ga_201"/>
<path d="M707,475.8l3.6,9l10.5,-7.1Z" class="gb_201"/>
<image clip-path="url(#cf_201)" x="821" y="353" width="5" height="9" xlink:href="shade/5.png"/>
<image clip-path="url(#cg_201)" x="820" y="326" width="24" height="28" xlink:href="shade/6.png"/>
<image clip-path="url(#ch_201)" x="820" y="328" width="23" height="34" xlink:href="shade/7.png"/>
<image clip-path="url(#ci_201)" x="825" y="324" width="20" height="10" xlink:href="shade/8.png"/>
<path d="M32.1,45.1H9.2m958.3,0h22.9M32.1,1331.3H9.2m958.3,0h22.9M45.1,32.1V9.2m0,1335.1v22.9M954.5,32.1V9.2m0,1335.1v22.9" class="gr_201"/>
<path d="M32.1,45.1H9.2m958.3,0h22.9M32.1,1331.3H9.2m958.3,0h22.9M45.1,32.1V9.2m0,1335.1v22.9M954.5,32.1V9.2m0,1335.1v22.9" class="gs_201"/>
<path d="M27.5,32.1H0m972.1,0h27.5M27.5,1344.3H0m972.1,0h27.5M32.1,27.5V0m0,1348.9v27.5M967.5,27.5V0m0,1348.9v27.5" class="gr_201"/>
<path d="M27.5,32.1H0m972.1,0h27.5M27.5,1344.3H0m972.1,0h27.5M32.1,27.5V0m0,1348.9v27.5M967.5,27.5V0m0,1348.9v27.5" class="gs_201"/>
</svg>