<?xml version="1.0" encoding="UTF-8" standalone="no"?>
<!DOCTYPE svg PUBLIC "-//W3C//DTD SVG 1.1//EN"
"http://www.w3.org/Graphics/SVG/1.1/DTD/svg11.dtd">
<svg viewBox="0 0 999 1376" version="1.1" xmlns="http://www.w3.org/2000/svg" xmlns:xlink="http://www.w3.org/1999/xlink">
<defs>
<clipPath id="c0_82"><path d="M527.3,332.9V255.3h87.1v77.6Z"/></clipPath>
<clipPath id="c1_82"><path d="M365.7,334V256.4h90.2V334Z"/></clipPath>
<clipPath id="c2_82"><path d="M699.4,332.9V255.3h81v77.6Z"/></clipPath>
<clipPath id="c3_82"><path d="M201,461.8V384.1h91.9v77.7Z"/></clipPath>
<clipPath id="c4_82"><path d="M361.3,461.8V384.1h91.9v77.7Z"/></clipPath>
<clipPath id="c5_82"><path d="M530.9,461.8V384.9h77.9v76.9Z"/></clipPath>
<clipPath id="c6_82"><path d="M684.6,461.8V384.1h95.8v77.7Z"/></clipPath>
<clipPath id="c7_82"><path d="M200.1,590.6V513h90.5v77.6Z"/></clipPath>
<clipPath id="c8_82"><path d="M519.8,590.6V513H620.5v77.6Z"/></clipPath>
<clipPath id="c9_82"><path d="M359.6,590.6V513h90.5v77.6Z"/></clipPath>
<clipPath id="ca_82"><path d="M681.4,590.6V513H788.5v77.6Z"/></clipPath>
<clipPath id="cb_82"><path d="M675.6,958.5V872.7h85.8v85.8Z"/></clipPath>
<clipPath id="cc_82"><path d="M530.3,958.5V872.7h85.8v85.8Z"/></clipPath>
<clipPath id="cd_82"><path d="M389.4,958.5V872.7h81.4v85.8Z"/></clipPath>
<clipPath id="ce_82"><path d="M233.2,953.5V872.7H319v80.8Z"/></clipPath>
<clipPath id="cf_82"><path d="M176.6,235.1L170.1,233L153.7,219.1V162h72v73.1Z"/></clipPath>
<clipPath id="cg_82"><path d="M176.6,772.2L170.1,770L153.7,756.1V699h72v73.2Z"/></clipPath>
<style type="text/css"><![CDATA[
.g0_82{
fill: #FEFCF4;
}
.g1_82{
fill: #FFF;
}
.g2_82{
fill: none;
stroke: #6381B7;
stroke-width: 0.763;
}
.g3_82{
fill: none;
stroke: #949698;
stroke-width: 0.381;
}
.g4_82{
fill: #EDF8FB;
}
.g5_82{
fill: #EEDEBF;
}
.g6_82{
fill: #6381B7;
}
.g7_82{
fill: none;
stroke: #6381B7;
stroke-width: 0.381;
stroke-dasharray: 2,1;
}
.g8_82{
fill: none;
stroke: #6381B7;
stroke-width: 0.381;
}
.g9_82{
fill: #FCE8B0;
}
.ga_82{
fill: #25408F;
}
.gb_82{
fill: #00BAF1;
}
.gc_82{
fill: #332D2C;
}
.gd_82{
fill: #D9DFF0;
}
.ge_82{
fill: #F27C85;
}
.gf_82{
fill: #7DD3F6;
}
.gg_82{
fill: none;
stroke: #FFF;
stroke-width: 1.909;
stroke-miterlimit: 10;
}
.gh_82{
fill: none;
stroke: #000;
stroke-width: 0.381;
stroke-miterlimit: 10;
}
]]></style>
</defs>
<path d="M32.1,1344.3H954.5V32.1H32.1V1344.3Z" class="g0_82"/>
<path d="M145.1,792.1c0,0,-13,0,-13,13v315.4c0,0,0,13,13,13H832.9c0,0,13,0,13,-13V805.1c0,0,0,-13,-13,-13Z" class="g1_82"/>
<path d="M145.1,792.1c0,0,-13,0,-13,13v315.4c0,0,0,13,13,13H832.9c0,0,13,0,13,-13V805.1c0,0,0,-13,-13,-13H145.1Z" class="g2_82"/>
<path d="M150.4,133.7c0,0,-18.3,0,-18.3,18.3V634.3c0,0,0,18.3,18.3,18.3H827.5c0,0,18.4,0,18.4,-18.3V133.7Z" class="g1_82"/>
<path d="M150.4,133.7c0,0,-18.3,0,-18.3,18.3V634.3c0,0,0,18.3,18.3,18.3H827.5c0,0,18.4,0,18.4,-18.3V133.7H150.4Z" class="g2_82"/>
<path d="M183.8,332.9H304.3V255.3H183.8v77.6Z" class="g1_82"/>
<image preserveAspectRatio="none" x="202" y="255" width="77" height="78" xlink:href="img/1.jpg"/>
<path d="M183.8,332.9H304.3V255.3H183.8v77.6Z" class="g3_82"/>
<path d="M511.1,332.9H631.6V255.3H511.1v77.6Z" class="g1_82"/>
<image clip-path="url(#c0_82)" preserveAspectRatio="none" x="527" y="254" width="87" height="81" xlink:href="img/2.jpg"/>
<path d="M511.1,332.9H631.6V255.3H511.1v77.6Z" class="g3_82"/>
<path d="M347.5,334H467.9V256.4H347.5V334Z" class="g1_82"/>
<image clip-path="url(#c1_82)" preserveAspectRatio="none" x="366" y="255" width="90" height="81" xlink:href="img/3.jpg"/>
<path d="M347.5,334H467.9V256.4H347.5V334Z" class="g3_82"/>
<path d="M674.7,332.9H795.2V255.3H674.7v77.6Z" class="g1_82"/>
<image clip-path="url(#c2_82)" preserveAspectRatio="none" x="699" y="255" width="81" height="80" xlink:href="img/4.jpg"/>
<path d="M674.7,332.9H795.2V255.3H674.7v77.6Z" class="g3_82"/>
<path d="M183.8,461.8H304.3V384.1H183.8v77.7Z" class="g1_82"/>
<image clip-path="url(#c3_82)" preserveAspectRatio="none" x="201" y="383" width="92" height="81" xlink:href="img/5.jpg"/>
<path d="M183.8,461.8H304.3V384.1H183.8v77.7Z" class="g3_82"/>
<path d="M347.5,461.8H467.9V384.1H347.5v77.7Z" class="g1_82"/>
<image clip-path="url(#c4_82)" preserveAspectRatio="none" x="361" y="382" width="92" height="81" xlink:href="img/6.jpg"/>
<path d="M347.5,461.8H467.9V384.1H347.5v77.7Z" class="g3_82"/>
<path d="M511.1,461.8H631.6V384.1H511.1v77.7Z" class="g1_82"/>
<image clip-path="url(#c5_82)" preserveAspectRatio="none" x="531" y="385" width="78" height="78" xlink:href="img/7.jpg"/>
<path d="M511.1,461.8H631.6V384.1H511.1v77.7Z" class="g3_82"/>
<path d="M674.7,461.8H795.2V384.1H674.7v77.7Z" class="g1_82"/>
<image clip-path="url(#c6_82)" preserveAspectRatio="none" x="685" y="383" width="95" height="80" xlink:href="img/8.jpg"/>
<path d="M674.7,461.8H795.2V384.1H674.7v77.7Z" class="g3_82"/>
<path d="M183.8,590.6H304.3V513H183.8v77.6Z" class="g1_82"/>
<image clip-path="url(#c7_82)" preserveAspectRatio="none" x="200" y="511" width="91" height="81" xlink:href="img/9.jpg"/>
<path d="M183.8,590.6H304.3V513H183.8v77.6Z" class="g3_82"/>
<path d="M511.1,590.6H631.6V513H511.1v77.6Z" class="g1_82"/>
<image clip-path="url(#c8_82)" preserveAspectRatio="none" x="520" y="511" width="101" height="81" xlink:href="img/10.jpg"/>
<path d="M511.1,590.6H631.6V513H511.1v77.6Z" class="g3_82"/>
<path d="M347.5,590.6H467.9V513H347.5v77.6Z" class="g1_82"/>
<image clip-path="url(#c9_82)" preserveAspectRatio="none" x="360" y="511" width="90" height="81" xlink:href="img/11.jpg"/>
<path d="M347.5,590.6H467.9V513H347.5v77.6Z" class="g3_82"/>
<path d="M674.7,590.6H795.2V513H674.7v77.6Z" class="g1_82"/>
<image clip-path="url(#ca_82)" preserveAspectRatio="none" x="681" y="511" width="108" height="81" xlink:href="img/12.jpg"/>
<path d="M674.7,590.6H795.2V513H674.7v77.6Z" class="g3_82"/>
<image clip-path="url(#cb_82)" preserveAspectRatio="none" x="674" y="871" width="89" height="87" xlink:href="img/13.jpg"/>
<image clip-path="url(#cc_82)" preserveAspectRatio="none" x="530" y="873" width="86" height="85" xlink:href="img/14.jpg"/>
<image clip-path="url(#cd_82)" preserveAspectRatio="none" x="389" y="873" width="84" height="85" xlink:href="img/15.jpg"/>
<image clip-path="url(#ce_82)" preserveAspectRatio="none" x="233" y="871" width="86" height="83" xlink:href="img/16.jpg"/>
<path d="M270.6,963.6c2,0,3.6,-1.6,3.6,-3.6c0,-2,-1.6,-3.6,-3.6,-3.6c-2,0,-3.6,1.6,-3.6,3.6c0,2,1.6,3.6,3.6,3.6Z" class="g4_82"/>
<path d="M572.3,963.6c2,0,3.6,-1.6,3.6,-3.6c0,-2,-1.6,-3.6,-3.6,-3.6c-2,0,-3.6,1.6,-3.6,3.6c0,2,1.6,3.6,3.6,3.6Z" class="g4_82"/>
<path d="M426.5,963.6c2,0,3.6,-1.6,3.6,-3.6c0,-2,-1.6,-3.6,-3.6,-3.6c-2,0,-3.6,1.6,-3.6,3.6c0,2,1.6,3.6,3.6,3.6Z" class="g4_82"/>
<path d="M718.1,963.6c2,0,3.6,-1.6,3.6,-3.6c0,-2,-1.6,-3.6,-3.6,-3.6c-2,0,-3.6,1.6,-3.6,3.6c0,2,1.6,3.6,3.6,3.6Z" class="g4_82"/>
<path d="M270.6,1059.6c2,0,3.6,-1.6,3.6,-3.6c0,-2,-1.6,-3.6,-3.6,-3.6c-2,0,-3.6,1.6,-3.6,3.6c0,2,1.6,3.6,3.6,3.6Z" class="g4_82"/>
<path d="M572.3,1059.6c2,0,3.6,-1.6,3.6,-3.6c0,-2,-1.6,-3.6,-3.6,-3.6c-2,0,-3.6,1.6,-3.6,3.6c0,2,1.6,3.6,3.6,3.6Z" class="g4_82"/>
<path d="M426.5,1059.6c2,0,3.6,-1.6,3.6,-3.6c0,-2,-1.6,-3.6,-3.6,-3.6c-2,0,-3.6,1.6,-3.6,3.6c0,2,1.6,3.6,3.6,3.6Z" class="g4_82"/>
<path d="M718.1,1059.6c2,0,3.6,-1.6,3.6,-3.6c0,-2,-1.6,-3.6,-3.6,-3.6c-2,0,-3.6,1.6,-3.6,3.6c0,2,1.6,3.6,3.6,3.6Z" class="g4_82"/>
<path d="M243.2,1074.1c0,0,-8.7,0,-8.7,8.6v15.2c0,0,0,8.6,8.7,8.6h69.3c0,0,8.7,0,8.7,-8.6v-15.2c0,0,0,-8.6,-8.7,-8.6Z" class="g5_82"/>
<path d="M541.3,1074.1c0,0,-8.7,0,-8.7,8.6v15.2c0,0,0,8.6,8.7,8.6h69.3c0,0,8.7,0,8.7,-8.6v-15.2c0,0,0,-8.6,-8.7,-8.6Z" class="g5_82"/>
<path d="M392.3,1074.1c0,0,-8.7,0,-8.7,8.6v15.2c0,0,0,8.6,8.7,8.6h69.2c0,0,8.7,0,8.7,-8.6v-15.2c0,0,0,-8.6,-8.7,-8.6Z" class="g5_82"/>
<path d="M690.3,1074.1c0,0,-8.6,0,-8.6,8.6v15.2c0,0,0,8.6,8.6,8.6h69.3c0,0,8.7,0,8.7,-8.6v-15.2c0,0,0,-8.6,-8.7,-8.6Z" class="g5_82"/>
<path d="M621.4,1153.3c0,0,-4.3,0,-4.3,4.3v10.8c0,0,0,4.4,4.3,4.4h30.4c0,0,4.3,0,4.3,-4.4v-10.8c0,0,0,-4.3,-4.3,-4.3Z" class="g6_82"/>
<path d="M608.3,1144.4V1182m1.3,.9H845.1m1,-1.3v-37.5m-1.4,-1H609.2" class="g7_82"/>
<path d="M608.3,1182.4v.5h.5m236.7,0h.6v-.5m0,-38.7v-.6h-.6m-236.7,0h-.5v.6" class="g8_82"/>
<path d="M209.2,190.2c0,0,-13,0,-13,12.9v21.7c0,0,0,13,13,13h602c0,0,13,0,13,-13V203.1c0,0,0,-12.9,-13,-12.9Z" class="g9_82"/>
<image clip-path="url(#cf_82)" preserveAspectRatio="none" x="152" y="160" width="75" height="77" xlink:href="img/17.png"/>
<path d="M204,230.4c0,0,-26.8,11.3,-51.1,-12.7c0,0,15.2,25.3,49.3,23.9c0,0,24.8,.4,20.3,-10.1c0,0,1.2,-4.4,-18.5,-1.1Z" class="g9_82"/>
<path d="M209.2,727.2c0,0,-13,0,-13,13v21.6c0,0,0,13,13,13H830.8c0,0,13,0,13,-13V740.2c0,0,0,-13,-13,-13Z" class="g9_82"/>
<image clip-path="url(#cg_82)" preserveAspectRatio="none" x="152" y="697" width="75" height="77" xlink:href="img/18.png"/>
<path d="M204,767.4c0,0,-26.8,11.3,-51.1,-12.7c0,0,15.2,25.3,49.3,23.9c0,0,24.8,.4,20.3,-10.1c0,0,1.2,-4.4,-18.5,-1.1Z" class="g9_82"/>
<path d="M131.7,126.7v22.2l11.7,10.3V137Z" class="ga_82"/>
<path d="M131.7,109.9v39H829.4c0,0,16.9,0,16.9,-16.8v-5.4c0,0,0,-16.8,-16.9,-16.8Z" class="g6_82"/>
<path d="M189.6,121.3l-6.4,-6.5L162,136l6.4,6.5Z" class="gb_82"/>
<path d="M168.4,143c.2,0,.3,0,.4,-.1L190,121.7c.1,-.1,.2,-.3,.2,-.4c0,-.1,-.1,-.3,-.2,-.4l-6.5,-6.4c-.2,-.2,-.5,-.2,-.7,0l-21.2,21.2c-.1,.1,-.2,.2,-.2,.3c0,.2,.1,.3,.2,.4l6.5,6.5c.1,.1,.2,.1,.3,.1m20.5,-21.7l-20.5,20.5L162.7,136l20.5,-20.4Z" class="gc_82"/>
<path d="M189.6,121.3l-6.4,-6.5l2.1,-2.1l6.5,6.5Z" class="gd_82"/>
<path d="M189.6,121.8c.2,0,.3,0,.4,-.1l2.1,-2.1c.1,-.1,.2,-.3,.2,-.4c0,-.2,-.1,-.3,-.2,-.4l-6.4,-6.5c-.2,-.2,-.6,-.2,-.8,0l-2.1,2.2c-.1,0,-.2,.2,-.2,.3c0,.2,.1,.3,.2,.4l6.5,6.5c.1,.1,.2,.1,.3,.1m1.4,-2.6l-1.4,1.4l-5.7,-5.8l1.4,-1.4Z" class="gc_82"/>
<path d="M195.4,115.6l-6.5,-6.5l-3.6,3.6l6.5,6.5Z" class="ge_82"/>
<path d="M191.8,119.7c.1,0,.2,0,.3,-.1l3.7,-3.7c.2,-.2,.2,-.5,0,-.7l-6.5,-6.5c-.2,-.2,-.6,-.2,-.8,0l-3.6,3.6c-.2,.2,-.2,.6,0,.8l6.5,6.5c.1,.1,.2,.1,.4,.1m2.8,-4.1l-2.8,2.8L186,112.7l2.9,-2.9Z" class="gc_82"/>
<path d="M157.3,147.2L162,136l6.4,6.5Z" class="g1_82"/>
<path d="M157.3,147.7c.1,0,.2,0,.2,-.1L168.6,143c.2,-.1,.3,-.2,.4,-.4c0,-.2,-.1,-.3,-.2,-.5l-6.5,-6.4c-.1,-.2,-.3,-.2,-.5,-.2c-.1,.1,-.3,.2,-.3,.3l-4.7,11.1c0,.2,0,.5,.1,.6c.1,.1,.3,.2,.4,.2m10.2,-5.4l-9.2,3.9l3.8,-9.2Z" class="gc_82"/>
<path d="M157.3,147.2l2.3,-5.4l3.1,3.1Z" class="gc_82"/>
<path d="M157.3,147.7c.1,0,.2,0,.2,-.1l5.4,-2.2c.1,-.1,.3,-.2,.3,-.4c0,-.2,0,-.3,-.1,-.5l-3.2,-3.1c-.1,-.1,-.3,-.2,-.4,-.1c-.2,0,-.4,.1,-.4,.3l-2.3,5.3c0,.2,0,.5,.1,.6c.1,.1,.3,.2,.4,.2m4.5,-3l-3.5,1.5l1.4,-3.5Z" class="gc_82"/>
<path d="M187.9,119.5l-3,-2.9l-21.2,21.2l3,3Z" class="gf_82"/>
<path d="M166.7,141.3c.1,0,.2,-.1,.3,-.2l21.3,-21.2c.1,-.1,.1,-.2,.1,-.4c0,-.1,0,-.2,-.1,-.3l-3,-3c-.2,-.2,-.5,-.2,-.8,0l-21.2,21.2c-.1,.1,-.1,.3,-.1,.4c0,.1,0,.3,.1,.4l3,2.9c.1,.1,.2,.2,.4,.2m20.4,-21.8L166.7,140l-2.2,-2.2l20.4,-20.5Z" class="gc_82"/>
<path d="M32.1,45.1H9.2m958.3,0h22.9M32.1,1331.3H9.2m958.3,0h22.9M45.1,32.1V9.2m0,1335.1v22.9M954.5,32.1V9.2m0,1335.1v22.9" class="gg_82"/>
<path d="M32.1,45.1H9.2m958.3,0h22.9M32.1,1331.3H9.2m958.3,0h22.9M45.1,32.1V9.2m0,1335.1v22.9M954.5,32.1V9.2m0,1335.1v22.9" class="gh_82"/>
<path d="M27.5,32.1H0m972.1,0h27.5M27.5,1344.3H0m972.1,0h27.5M32.1,27.5V0m0,1348.9v27.5M967.5,27.5V0m0,1348.9v27.5" class="gg_82"/>
<path d="M27.5,32.1H0m972.1,0h27.5M27.5,1344.3H0m972.1,0h27.5M32.1,27.5V0m0,1348.9v27.5M967.5,27.5V0m0,1348.9v27.5" class="gh_82"/>
</svg>