<?xml version="1.0" encoding="UTF-8" standalone="no"?>
<!DOCTYPE svg PUBLIC "-//W3C//DTD SVG 1.1//EN"
"http://www.w3.org/Graphics/SVG/1.1/DTD/svg11.dtd">
<svg viewBox="0 0 999 1376" version="1.1" xmlns="http://www.w3.org/2000/svg" xmlns:xlink="http://www.w3.org/1999/xlink">
<defs>
<clipPath id="c0_102"><path d="M32.1,1344.3V32.1H967.5V1344.3Z"/></clipPath>
<clipPath id="c1_102"><path d="M176.6,559.1L170.1,557L153.7,543.1V486h72v73.1Z"/></clipPath>
<clipPath id="c2_102"><path d="M176.6,1101.9l-6.5,-2.1l-16.4,-14v-57.1h72v73.2Z"/></clipPath>
<clipPath id="c3_102"><path d="M125.5,395.5V205.8H858.6V395.5Z"/></clipPath>
<clipPath id="c4_102"><path d="M764.8,434.8V422.4h14.5v12.4Z"/></clipPath>
<clipPath id="c5_102"><path d="M645.2,739.5V572.9H871.8V739.5Z"/></clipPath>
<clipPath id="c6_102"><path d="M648.1,729.9V577.5h220V729.9Z"/></clipPath>
<clipPath id="c7_102"><path d="M770.2,606c-.2,-.1,3.6,-8.2,3.6,-8.2l.8,.5c0,0,-4.1,7.7,-4.4,7.7Z"/></clipPath>
<clipPath id="c8_102"><path d="M777.7,598.3c0,0,-6.8,-1.1,-7.5,-5.2c-.7,-3.7,1.5,-3.9,2,-3.9c.1,0,.2,0,.2,0l8.3,-12.7l-1.5,-3.1c0,0,-.6,-1.1,.2,-2.1c0,0,.1,-.1,.3,-.1c2.1,0,12.9,5.6,12.9,5.6l.1,.1c-.4,.6,-.8,1.2,-1.4,1.7c-.7,.5,-5.1,1.1,-5.1,1.1l-8.5,18.6Z"/></clipPath>
<clipPath id="c9_102"><path d="M777.3,597.9c.2,-.4,.2,-1.8,0,-2.2v-1.4c-1.5,-.5,-2.8,-1.3,-3.6,-2.5c-1.1,.6,-2.1,1.2,-3.2,1.9c1.6,2.1,3.9,3.5,6.8,4.2Zm0,-3.9c2.2,-4.5,4,-9.5,6.2,-14c-.9,-.4,-1.9,-1.4,-2.6,-1.4c-2.3,4.3,-4.6,8.6,-7.1,12.8c.7,1.3,2.1,2,3.5,2.6ZM770,606.1v0c1.1,-2.9,2.5,-5.5,3.6,-8.3c-2,-1.5,-4,-3.1,-4.4,-6.2v-1.5c-.1,-2.7,1.9,-3.4,4.6,-3.4c0,0,.1,0,.1,0c2,-3.3,4.3,-6.3,6.2,-9.6c-.6,-.9,-1.2,-2.4,-.9,-3.7c.5,1.3,1.6,1.9,2.4,2.9c-.1,.6,-.3,1.2,-.4,1.8c.6,.6,1.4,1.1,2.4,1.4c.5,-.5,.5,-1.3,1.2,-1.6c.9,.4,1.8,.8,3.1,.8c.1,.1,.5,.2,.8,.2c.4,0,.7,-.1,.8,-.2c.1,0,.2,0,.3,0c.3,0,.5,0,.6,-.1c.2,-.1,.4,-.1,.6,-.1c.1,0,.2,0,.3,.1c-1.3,.6,-2.2,1.7,-4.2,1.7c-.1,0,-.2,0,-.3,0c-.9,3.8,-1.9,7.4,-2.7,11.2c.6,1.1,1.5,1.7,1.3,3.2c-.5,2.7,-3.9,4.3,-7.2,4.3c-1.3,0,-2.5,-.2,-3.6,-.7c-1,2.1,-2.1,4.1,-3.3,6c0,-.3,.3,-.4,.3,-.7c.9,-1.8,1.9,-3.6,2.6,-5.7c-1.1,1.7,-1.8,3.7,-2.8,5.6c-.2,.4,-.4,.8,-.6,1.2c-.3,.4,-.3,1.1,-.8,1.4Z"/></clipPath>
<clipPath id="ca_102"><path d="M787.8,578.3c-4.8,0,-13.1,-7.3,-5.6,-8.8h1.3c.1,.1,.3,.1,.5,.1c0,0,.1,0,.2,0c.3,0,.7,0,1.1,.1c3,.6,8.2,3.7,7.5,7c-.2,1.1,-1.6,1.6,-3.1,1.6h-1.8c0,0,-.1,0,-.1,0Z"/></clipPath>
<clipPath id="cb_102"><path d="M601.2,985.3V749.4H855.3V985.3Z"/></clipPath>
<clipPath id="cc_102"><path d="M599.4,995.6V747.5H855.7V995.6Z"/></clipPath>
<clipPath id="cd_102"><path d="M599.1,995.3V747.2H855.4V995.3Z"/></clipPath>
<clipPath id="ce_102"><path d="M717.5,770.1c-.2,0,3.6,-8.2,3.6,-8.2l.8,.5c0,0,-4.1,7.7,-4.4,7.7Z"/></clipPath>
<clipPath id="cf_102"><path d="M725,762.4c0,0,-6.8,-1.1,-7.5,-5.2c-.7,-3.6,1.5,-3.8,2,-3.8c.1,0,.2,0,.2,0L728,740.6l-1.5,-3c0,0,-.6,-1.2,.2,-2.1c0,-.1,.1,-.1,.3,-.1c2.1,0,12.9,5.5,12.9,5.5l.1,.2c-.4,.5,-.8,1.1,-1.4,1.6c-.7,.5,-5.1,1.2,-5.1,1.2L725,762.4Z"/></clipPath>
<clipPath id="cg_102"><path d="M724.6,762.1c.2,-.5,.2,-1.8,0,-2.3v-1.4c-1.5,-.5,-2.8,-1.2,-3.6,-2.5c-1.1,.6,-2.1,1.2,-3.2,1.9c1.6,2.1,3.9,3.5,6.8,4.3Zm0,-3.9c2.2,-4.6,4,-9.5,6.2,-14.1c-.9,-.4,-1.9,-1.3,-2.6,-1.4c-2.3,4.3,-4.7,8.6,-7.1,12.8c.7,1.4,2.1,2,3.5,2.7Zm-7.3,12c1.1,-2.9,2.4,-5.4,3.6,-8.3c-2,-1.5,-4,-3.1,-4.4,-6.1v-1.5c-.1,-2.7,1.9,-3.4,4.5,-3.4c.1,0,.2,0,.2,0c2,-3.4,4.3,-6.4,6.2,-9.7c-.6,-.9,-1.2,-2.4,-.9,-3.6c.5,1.2,1.6,1.8,2.4,2.8c-.1,.6,-.3,1.2,-.4,1.8c.6,.7,1.4,1.2,2.4,1.4c.5,-.4,.5,-1.3,1.1,-1.5c1,.3,1.9,.7,3.2,.7c.1,.1,.5,.2,.8,.2c.4,0,.7,-.1,.8,-.2c.1,.1,.2,.1,.3,.1c.3,0,.5,-.1,.6,-.2c.2,0,.4,-.1,.6,-.1c.1,0,.2,0,.3,.1c-1.3,.7,-2.2,1.8,-4.2,1.8c-.1,0,-.2,0,-.3,0c-.9,3.7,-1.9,7.3,-2.7,11.1c.6,1.1,1.5,1.7,1.3,3.2c-.5,2.7,-3.9,4.4,-7.2,4.4c-1.3,0,-2.5,-.3,-3.6,-.8c-1,2.1,-2.1,4.2,-3.3,6.1c0,-.4,.3,-.4,.3,-.8c.9,-1.8,1.9,-3.6,2.6,-5.6c-1.1,1.7,-1.8,3.7,-2.8,5.5c-.2,.4,-.4,.8,-.6,1.2c-.3,.5,-.3,1.2,-.8,1.4Z"/></clipPath>
<clipPath id="ch_102"><path d="M735.1,742.5c-4.8,0,-13.1,-7.4,-5.6,-8.8h1.3c.1,0,.3,0,.5,0q.1,0,.2,0h.1c.2,0,.6,0,1,.1c3,.6,8.2,3.8,7.5,7c-.3,1.2,-1.6,1.6,-3.2,1.7h-1.7c0,0,-.1,0,-.1,0Z"/></clipPath>
<style type="text/css"><![CDATA[
.g0_102{
fill: #FEFCF4;
}
.g1_102{
fill: #6381B7;
}
.g2_102{
fill: none;
stroke: #6381B7;
stroke-width: 0.381;
stroke-dasharray: 2,1;
}
.g3_102{
fill: none;
stroke: #6381B7;
stroke-width: 0.381;
}
.g4_102{
fill: #FFF;
}
.g5_102{
fill: none;
stroke: #6381B7;
stroke-width: 0.763;
}
.g6_102{
fill: #FCE8B0;
}
.g7_102{
fill: #2E6E51;
}
.g8_102{
fill: none;
stroke: #FFF;
stroke-width: 0.152;
stroke-miterlimit: 1;
}
.g9_102{
fill: #BCBEC0;
}
.ga_102{
fill: #EE314A;
}
.gb_102{
fill: none;
stroke: #BCBEC0;
stroke-width: 0.432;
}
.gc_102{
fill: #CEEDFB;
}
.gd_102{
fill: #27639D;
}
.ge_102{
fill: #231F20;
}
.gf_102{
fill: none;
stroke: #C3E7F1;
stroke-width: 1.527;
}
.gg_102{
fill: #25408F;
}
.gh_102{
fill: #A8AAAD;
}
.gi_102{
fill: none;
stroke: #949698;
stroke-width: 0.549;
}
.gj_102{
fill: none;
stroke: #BCBEC0;
stroke-width: 2.566;
}
.gk_102{
fill: #363637;
}
.gl_102{
fill: #5CC4BE;
}
.gm_102{
fill: #F0D73F;
}
.gn_102{
fill: none;
stroke: #818385;
stroke-width: 0.305;
stroke-dasharray: 4,4;
}
.go_102{
fill: none;
stroke: #818385;
stroke-width: 0.305;
}
.gp_102{
fill: none;
stroke: #949698;
stroke-width: 0.305;
stroke-dasharray: 3,3;
}
.gq_102{
fill: none;
stroke: #949698;
stroke-width: 0.305;
stroke-dasharray: 4,4;
}
.gr_102{
fill: none;
stroke: #949698;
stroke-width: 0.305;
}
.gs_102{
fill: #F7C2D9;
}
.gt_102{
fill: #FDF4F3;
}
.gu_102{
fill: #EC008C;
}
.gv_102{
fill: #6D6F71;
}
.gw_102{
fill: none;
stroke: #FFF;
stroke-width: 1.909;
stroke-miterlimit: 10;
}
.gx_102{
fill: none;
stroke: #000;
stroke-width: 0.381;
stroke-miterlimit: 10;
}
]]></style>
</defs>
<path clip-path="url(#c0_102)" d="M954.5,1344.3H1877V32.1H954.5V1344.3Z" class="g0_102"/>
<path d="M32.1,1344.3H954.5V32.1H32.1V1344.3Z" class="g0_102"/>
<path d="M569.8,1210.7c0,0,-4.3,0,-4.3,4.3v10.8c0,0,0,4.3,4.3,4.3h30.3c0,0,4.3,0,4.3,-4.3V1215c0,0,0,-4.3,-4.3,-4.3Z" class="g1_102"/>
<path d="M556.6,1201.8v37.6m1.3,.9H845.1m1,-1.3v-37.6m-1.4,-.9H557.6" class="g2_102"/>
<path d="M556.6,1239.8v.5h.6m288.3,0h.6v-.5m0,-38.7v-.6h-.6m-288.3,0h-.6v.6" class="g3_102"/>
<path d="M145.1,1009c0,0,-13,0,-13,13v159.5c0,0,0,13,13,13H832.9c0,0,13,0,13,-13V1022c0,0,0,-13,-13,-13Z" class="g4_102"/>
<path d="M145.1,1009c0,0,-13,0,-13,13v159.5c0,0,0,13,13,13H832.9c0,0,13,0,13,-13V1022c0,0,0,-13,-13,-13H145.1Z" class="g5_102"/>
<path d="M150.4,440.5c0,0,-18.3,0,-18.3,18.3V938c0,0,0,18.3,18.3,18.3H827.5c0,0,18.4,0,18.4,-18.3V440.5Z" class="g4_102"/>
<path d="M150.4,440.5c0,0,-18.3,0,-18.3,18.3V938c0,0,0,18.3,18.3,18.3H827.5c0,0,18.4,0,18.4,-18.3V440.5H150.4Z" class="g5_102"/>
<path d="M209.2,488.2c0,0,-13,0,-13,12.9v47.7c0,0,0,13,13,13h602c0,0,13,0,13,-13V501.1c0,0,0,-12.9,-13,-12.9Z" class="g6_102"/>
<image clip-path="url(#c1_102)" preserveAspectRatio="none" x="152" y="484" width="75" height="77" xlink:href="img/1.png"/>
<path d="M204,554.4c0,0,-26.8,11.3,-51.1,-12.7c0,0,15.2,25.3,49.3,23.9c0,0,24.8,.4,20.3,-10.1c0,0,1.2,-4.5,-18.5,-1.1Z" class="g6_102"/>
<path d="M209.2,1057.7c0,0,-13,0,-13,13v21.7c0,0,0,13,13,13h602c0,0,13,0,13,-13v-21.7c0,0,0,-13,-13,-13Z" class="g6_102"/>
<image clip-path="url(#c2_102)" preserveAspectRatio="none" x="152" y="1027" width="75" height="76" xlink:href="img/2.png"/>
<path d="M204,1097.2c0,0,-26.8,11.3,-51.1,-12.8c0,0,15.2,25.3,49.3,24c0,0,24.8,.3,20.3,-10.2c0,0,1.2,-4.4,-18.5,-1Z" class="g6_102"/>
<path d="M32.1,179.3H967.5V32.1H32.1V179.3Z" class="g7_102"/>
<path d="M262,135.2L260.8,134c-.1,0,-.3,0,-.4,0c-.4,0,-.7,-.2,-.9,-.6c0,-.2,-.1,-.6,-.2,-1.2l-.5,-.5c0,1.1,.1,2.2,.1,3.2c.1,1.1,.1,2.1,.2,3.2H259c-1.5,-2.6,-3.1,-3.9,-4.9,-3.9c-.4,0,-.9,.1,-1.4,.3c-.5,.1,-1,.4,-1.6,.7c-.5,.4,-.9,.8,-1.3,1.2c-.3,.4,-.4,.9,-.4,1.3c0,.2,.1,.5,.3,.7c.2,.2,.4,.3,.6,.3c.2,0,.5,-.1,.9,-.3c.2,-.1,.3,-.1,.5,-.2c.1,0,.2,0,.3,0c.5,0,.8,.4,.8,1.2c0,.5,-.4,1.1,-1.3,1.9l1.7,.6l4.3,-4.2c.1,.1,.2,.2,.4,.4c.2,.2,.3,.4,.5,.6c.1,.3,.3,.5,.3,.7c.1,.3,.2,.5,.2,.6l-.2,6.4l1.3,1.3V135.2h2Zm-8.5,4.2c0,-.7,-.1,-1.2,-.4,-1.6c-.2,-.5,-.7,-.7,-1.4,-.7c.6,-1.1,1.5,-1.6,2.8,-1.6c.7,0,1.4,.3,1.9,.9l-2.9,3ZM274,131.9c-2.3,-2.4,-4.7,-3.6,-7.3,-3.6c-.9,0,-2,.4,-3,1.2c-1.1,.9,-1.7,1.8,-1.7,2.7c0,.4,.2,.7,.5,1l.9,.8h-3.2l1.1,1.2h1.9v11.3l1.2,1.2V135.2h2.1L265.3,134H264l-.5,-1.1c0,-.9,.6,-1.6,1.6,-2.3c1,-.7,1.9,-1,2.8,-1c.6,0,1.2,.1,1.8,.2c.6,.2,1.1,.4,1.7,.7c.6,.4,1.1,.7,1.6,1c.4,.4,.9,.7,1.2,1l-.2,-.6Zm3.7,3.3L276.5,134H264.7l1.2,1.2h8.2v.9c-2.5,.8,-5,2.1,-7.4,3.7l1.6,2.3c1.7,.1,3,.7,4.1,1.6c.2,.3,.5,.6,.9,1c.3,.4,.5,.8,.7,1c.1,.3,.3,.7,.6,1.3l.6,.8V135.2h2.5Zm-3.6,9.4c-1.1,-1.8,-2.7,-3.2,-4.9,-4.1c.9,-.6,1.7,-1.1,2.5,-1.5c.8,-.4,1.6,-.7,2.4,-1v6.6Zm-4.7,1.7c.2,.3,.5,.4,.8,.4c.4,0,.7,-.1,.9,-.4c.3,-.2,.4,-.5,.4,-.8c0,-.4,-.1,-.7,-.4,-.9c-.2,-.3,-.5,-.4,-.9,-.4c-.3,0,-.6,.1,-.8,.4c-.3,.2,-.4,.5,-.4,.9c0,.3,.1,.6,.4,.8Zm19.4,-11.1L287.6,134H275.8l1.2,1.2h8.2v.9c-2.6,.8,-5,2.1,-7.4,3.7l1.6,2.3c1.7,.1,3,.7,4,1.6c.3,.3,.6,.6,1,1c.3,.4,.5,.8,.7,1.2c.2,.3,.3,.5,.4,.7c0,.1,.1,.2,.1,.4l.7,.8V135.2h2.5Zm-3.6,9.4c-1.1,-1.8,-2.7,-3.2,-4.9,-4.1c.9,-.6,1.7,-1.1,2.5,-1.5c.8,-.4,1.6,-.7,2.4,-1v6.6Zm7.8,-9.4L291.8,134h-1c-.4,-.4,-.6,-1,-.8,-1.9l-.4,-.3c0,.2,0,.5,0,.9c0,.3,.1,.7,.1,1.2c0,.5,.1,.9,.1,1.3c0,.3,0,.6,0,.9c-.3,-.8,-.6,-1.3,-1,-1.6c-.4,-.3,-.9,-.5,-1.7,-.5h-1.3l1.2,1.2c.3,0,.6,.1,1,.2c.3,.1,.6,.3,.8,.5c.3,.2,.5,.4,.6,.7c.1,.3,.2,.7,.2,1v8.9l1.2,1.2V135.2H293Zm6,-1.2h-8l1.2,1.2h4c-1.7,2,-2.5,4,-2.5,6.1c0,1.5,.3,2.8,.9,3.9c.7,1.4,1.8,2.1,3.2,2.1c.3,0,.6,0,.8,-.1c.3,-.1,.5,-.2,.7,-.4c.2,-.2,.4,-.4,.5,-.7c.1,-.2,.2,-.5,.2,-.8c0,-.4,-.2,-.9,-.5,-1.2c-.2,-.3,-.6,-.5,-1,-.5c-.4,0,-.7,.2,-1,.4c-.3,.3,-.5,.6,-.5,1c0,.2,.1,.4,.2,.7c.1,.2,.3,.4,.6,.6c-.7,.2,-1.5,-.2,-2.2,-1.3c-.5,-.7,-.7,-1.5,-.7,-2.3c0,-1,.1,-1.9,.3,-2.7c.2,-.7,.5,-1.4,.9,-2.1c.5,-.7,1.1,-1.3,1.7,-1.7c.7,-.5,1.4,-.8,2.3,-1L299,134Zm12.1,1.2L309.9,134H298.1l1.2,1.2h8.2v.9c-2.5,.8,-5,2.1,-7.4,3.7l1.6,2.3c1.7,.1,3.1,.7,4.1,1.6c.3,.3,.6,.6,.9,1c.3,.4,.6,.8,.7,1c.2,.3,.4,.7,.6,1.3l.7,.8V135.2h2.4Zm-3.6,9.4c-1.1,-1.8,-2.7,-3.2,-4.8,-4.1c.8,-.6,1.7,-1.1,2.5,-1.5c.7,-.4,1.5,-.7,2.3,-1v6.6Zm-4.7,1.7c.2,.3,.5,.4,.9,.4c.3,0,.6,-.1,.9,-.4c.2,-.2,.3,-.5,.3,-.8c0,-.4,-.1,-.7,-.3,-.9c-.3,-.3,-.6,-.4,-.9,-.4c-.4,0,-.7,.1,-.9,.4c-.2,.2,-.4,.5,-.4,.9c0,.3,.2,.6,.4,.8Zm30.5,-11.1L332,134H316.9l1.2,1.2h7.8v1c-2.6,.8,-4.9,2.1,-7,3.7l1.7,2.1c1.4,.1,2.6,.7,3.6,1.8c.5,.5,1,1,1.3,1.6c.4,.7,.8,1.3,1.1,2q0,.1,.1,.2c.1,0,.2,.1,.3,.1v-10c1.2,0,2.1,.3,2.8,1c.6,.7,1,1.4,1,2.2l-.2,.3c-.1,-.2,-.3,-.3,-.5,-.4c-.2,-.2,-.4,-.2,-.6,-.2c-.4,0,-.8,.1,-1,.4c-.3,.2,-.4,.5,-.4,.9c0,.2,0,.4,.1,.6c.1,.2,.2,.3,.4,.5c.1,.1,.3,.2,.5,.3c.1,.1,.3,.1,.5,.1c.3,0,.6,-.1,.8,-.2c.3,-.1,.5,-.3,.7,-.5c.1,-.2,.3,-.4,.4,-.7c.1,-.3,.1,-.5,.1,-.8c0,-1.3,-.4,-2.4,-1.2,-3.4c-.9,-1.2,-2,-1.7,-3.4,-1.7v-.9h6.3Zm-7.5,9.1c-1,-1.8,-2.5,-3.1,-4.5,-4c.8,-.5,1.6,-1,2.3,-1.4c.8,-.4,1.5,-.8,2.2,-1.1v6.5Zm10.9,-11.8l-.5,-.2c0,0,-.1,0,-.3,.1c-.1,0,-.3,.1,-.4,.1c-.2,.1,-.3,.2,-.5,.2c-.1,.1,-.2,.1,-.3,.2l.5,6.4c.2,0,.4,0,.6,-.1c.2,0,.3,-.1,.4,-.1l.5,-6.6Zm15.5,1.5H336.8l1.2,1.2h5.3c-.4,.3,-.9,.8,-1.3,1.5c-.3,.6,-.5,1.2,-.5,1.7c0,.8,.3,1.5,.8,2.1c.5,.7,1.2,1,2,1c.3,0,.8,-.1,1.3,-.3c.5,-.2,.9,-.3,.9,-.3c.3,0,.4,.1,.6,.4c.1,.2,.1,.4,.1,.6c0,.6,-.3,1,-1.1,1.3c-.6,.3,-1.2,.5,-1.8,.5c-.7,0,-1.3,-.2,-1.8,-.6c-.6,-.4,-1.1,-1,-1.5,-1.7c-.6,-.9,-1,-2.1,-1.1,-3.5c-.1,-.5,-.1,-.9,0,-1.3l-.6,-.3c0,1.2,0,2.3,.2,3.3c.2,1,.4,1.9,.7,2.7c1,2.2,2.4,3.4,4.5,3.4c.9,0,1.7,-.4,2.4,-1c.6,-.7,1,-1.5,1,-2.4c0,-.3,-.1,-.6,-.2,-.9c-.1,-.4,-.3,-.7,-.5,-1.1c-.4,-.7,-.8,-1.2,-1.3,-1.4l-1.4,.7c-.2,.1,-.5,.2,-.7,.3c-.3,.1,-.4,.1,-.6,.1c-.6,0,-.9,-.3,-.9,-.9c0,-.4,.2,-1,.7,-1.7c.2,-.4,.4,-.7,.6,-.9c.3,-.2,.5,-.3,.7,-.3l.1,.1c.7,.9,1.5,1.6,2.3,1.9c.8,.3,1.8,.5,3.1,.5c-.5,1.2,-.8,2.5,-.8,3.6c0,.9,.1,1.8,.3,2.6c.2,.8,.4,1.6,.7,2.4l1.2,.3c-.6,-1.3,-1,-2.5,-1,-3.4c0,-1.2,.2,-2.3,.6,-3.3c.3,-.9,.8,-1.7,1.5,-2.3l-1.9,-1.9c-.3,.2,-.7,.3,-1.2,.4c-.6,.1,-1.1,.1,-1.8,.1c-.1,0,-.3,0,-.5,-.1c-.3,-.1,-.5,-.1,-.7,-.3c-.3,-.1,-.5,-.2,-.6,-.3c-.2,-.2,-.3,-.3,-.3,-.5c.1,-.2,.2,-.4,.4,-.5c.2,-.2,.4,-.3,.6,-.3h6.8L352.2,134Zm12.4,1.2L363.4,134H351.7l1.2,1.2h8.4v6.6c-1.3,-2.6,-2.8,-4,-4.5,-4c-.8,0,-1.5,.3,-2.1,.9c-.5,.5,-.8,1.2,-.8,2c0,1.5,.7,2.2,2.3,2.2c.5,0,.9,-.2,1.2,-.5c.3,-.4,.4,-.8,.4,-1.3c0,-.3,-.2,-.8,-.8,-1.5c.1,-.1,.2,-.1,.4,-.1c1.2,0,2.4,.8,3.3,2.5c.7,1.4,1,2.9,1,4.2l-.1,1.3l.9,.6V135.2h2.1ZM385.8,134H370.6l1.2,1.2h11.8v8.2L382.1,142c.1,-.6,.2,-1.3,.2,-1.9c0,-.8,-.2,-1.6,-.5,-2.2c-.3,-.5,-.7,-.9,-1.1,-1.2c-.4,-.3,-.9,-.6,-1.3,-.7c-.4,-.1,-.7,-.2,-1,-.2c-.7,0,-1.3,.2,-2,.7c-.3,.2,-.5,.5,-.6,.8c-.2,.3,-.3,.6,-.3,.9c0,.4,.1,.7,.2,.9c.3,.5,.7,.7,1.2,.8c.6,.1,1.1,0,1.5,-.3c.2,-.2,.4,-.4,.6,-.6c.1,-.3,.2,-.5,.2,-.8c0,-.3,-.1,-.6,-.4,-1c.3,-.1,.5,-.1,.7,0c.3,0,.5,.1,.8,.3c.1,.2,.3,.4,.5,.7c.2,.3,.4,.6,.4,.9c.1,.3,.1,.5,.1,.7c0,.6,-.1,1.1,-.5,1.7c-.4,.8,-1.4,1.3,-2.8,1.3c-.5,0,-1.1,-.2,-1.6,-.5c-.6,-.3,-1.1,-.8,-1.5,-1.4c-.5,-.5,-.9,-1.2,-1.2,-2c-.4,-.8,-.6,-1.7,-.8,-2.7l-.8,-.3c.2,1,.3,2,.6,2.9c.2,.9,.5,1.7,.9,2.3c.3,.5,.7,1,1.1,1.5c.3,.4,.7,.8,1.1,1.1c.4,.3,.8,.6,1.3,.7c.4,.2,.8,.3,1.2,.3c.7,0,1.3,-.2,1.9,-.4c.5,-.3,1,-.7,1.3,-1.2c1.4,.9,2.4,2.4,2.9,4.5v-.1l.4,.3V135.2H387L385.8,134Zm5.6,1.2L390.2,134h-1.1c-.3,-.4,-.6,-1,-.7,-1.9l-.5,-.3c0,.2,.1,.5,.1,.9c0,.3,0,.7,0,1.2c.1,.5,.1,.9,.1,1.3c0,.3,0,.6,0,.9c-.2,-.8,-.5,-1.3,-.9,-1.6c-.4,-.3,-1,-.5,-1.7,-.5h-1.4l1.2,1.2c.4,0,.7,.1,1,.2c.3,.1,.6,.3,.9,.5c.2,.2,.4,.4,.6,.7c.1,.3,.2,.7,.2,1v8.9l1.1,1.2V135.2h2.3Zm6.1,-1.2h-7.9l1.2,1.2h4c-1.7,2,-2.6,4,-2.6,6.1c0,1.5,.3,2.8,1,3.9c.7,1.4,1.8,2.1,3.2,2.1c.3,0,.5,0,.8,-.1c.3,-.1,.5,-.2,.7,-.4c.2,-.2,.3,-.4,.5,-.7c.1,-.2,.1,-.5,.1,-.8c0,-.4,-.1,-.9,-.4,-1.2c-.3,-.3,-.6,-.5,-1,-.5c-.4,0,-.7,.2,-1,.4c-.3,.3,-.5,.6,-.5,1c0,.2,.1,.4,.2,.7c.1,.2,.3,.4,.6,.6c-.8,.2,-1.5,-.2,-2.3,-1.3c-.4,-.7,-.6,-1.5,-.7,-2.3c0,-1,.1,-1.9,.4,-2.7c.2,-.7,.5,-1.4,.9,-2.1c.5,-.7,1,-1.3,1.7,-1.7c.6,-.5,1.4,-.8,2.3,-1L397.5,134ZM410,148.7c-.5,-.5,-.9,-1,-1.4,-1.4c-.4,-.4,-.8,-.8,-1.1,-1c-.3,-.2,-.7,-.5,-1.2,-.8c-.5,-.3,-1.1,-.6,-1.8,-1c.6,-.3,1.1,-.6,1.6,-.8c.4,-.3,.7,-.5,1,-.8c.9,-.7,1.3,-1.5,1.3,-2.5c0,-.9,-.3,-1.7,-.8,-2.4c-.5,-.7,-1.3,-1.1,-2.4,-1.1c-.3,0,-.5,0,-.8,.1c-.3,0,-.5,.1,-.8,.1c-1.4,0,-2.3,-.7,-2.9,-1.9h8.7L408.3,134H396.8l1.2,1.2h1.6v5.2c0,.2,.1,.5,.2,.6c.1,.2,.2,.4,.4,.5c.1,.2,.3,.3,.6,.4c.2,.1,.4,.1,.6,.1c.4,0,.8,-.1,1.2,-.3c.4,-.2,.8,-.4,1.3,-.7c1,-.8,1.4,-1.7,1.3,-2.6c1.3,-.2,1.9,.2,2,1.2c0,1.2,-.7,2.2,-2,2.9c-.6,.2,-1.1,.4,-1.7,.6c-.6,.1,-1.2,.2,-1.9,.2c-.3,0,-.6,-.1,-.9,-.1c-.3,-.1,-.6,-.1,-.9,-.2l1.2,2.2c1.8,.2,3.4,.6,5,1.3c1.5,.8,2.9,1.8,4.1,3.1l-.1,-.9Zm-6.6,-9.5c-.2,.3,-.4,.6,-.6,.8c-.3,.3,-.5,.5,-.8,.7c-.3,.1,-.5,.2,-.8,.2c-.3,0,-.4,-.2,-.4,-.7v-3.6c.7,.9,1.6,1.5,2.8,1.8c0,.3,-.1,.5,-.2,.8ZM417,134.7c-.6,-.6,-1.4,-.9,-2.4,-.9c-.6,0,-1.1,.1,-1.7,.3c-.5,.1,-.9,.4,-1.4,.7c-.4,.3,-.7,.6,-.9,1.1c-.3,.4,-.4,.8,-.4,1.3v.2q0,.1,0,.2l.3,.3c.3,0,.6,-.1,.8,-.2c.3,0,.5,-.1,.7,-.2c0,-.1,0,-.2,0,-.3c-.1,-.1,-.1,-.2,-.1,-.3c0,-.3,.1,-.5,.2,-.8c.1,-.3,.2,-.5,.4,-.7c.1,-.2,.3,-.3,.6,-.4c.2,-.1,.4,-.2,.7,-.2c.7,0,1.3,.3,1.7,.7c.4,.5,.6,1.2,.6,2.1c0,.3,-.1,.6,-.2,.9c-.2,.2,-.4,.5,-.6,.7c-.2,.3,-.4,.5,-.7,.8c-.2,.2,-.4,.5,-.6,.8c-.2,.2,-.4,.5,-.5,.8c-.2,.3,-.2,.7,-.2,1.1l.1,1.2l.2,.2c.2,0,.3,-.1,.4,-.2c0,0,.1,-.1,.2,-.2l.1,-1c0,-.5,.1,-.9,.3,-1.2c.2,-.4,.4,-.6,.7,-.9c.3,-.2,.5,-.4,.8,-.6c.3,-.2,.6,-.5,.8,-.7c.3,-.3,.5,-.6,.7,-.9c.1,-.3,.2,-.8,.2,-1.3c0,-1,-.3,-1.8,-.8,-2.4Zm-3,10.6c-.4,0,-.8,.2,-1.1,.5c-.2,.3,-.4,.7,-.4,1.2c0,.4,.1,.7,.3,.9c.1,.2,.4,.3,.8,.3c.4,0,.7,-.2,1,-.5c.3,-.3,.4,-.7,.4,-1.2c0,-.8,-.3,-1.2,-1,-1.2Z" class="g8_102"/>
<g clip-path="url(#c0_102)">
<path d="M1877,177.2H32.1v-5.4H768.7c43.1,0,53,-37.9,115.3,-37.9h993Z" class="g9_102"/>
<path d="M1877,183.7H32.1v-9.8H768.7c43.1,0,53,-33.6,115.3,-33.6h993Z" class="ga_102"/>
<path d="M1877,183.7H32.1v-9.8H768.7c43.1,0,53,-33.6,115.3,-33.6h993v43.4Z" class="gb_102"/>
</g>
<image clip-path="url(#c3_102)" preserveAspectRatio="none" x="125" y="206" width="734" height="190" xlink:href="img/3.png"/>
<path d="M144.6,231.3c0,0,-13,0,-13,13V369.9c0,0,0,13,13,13H833.1c0,0,13,0,13,-13V231.3Z" class="gc_102"/>
<path d="M147.7,294.1l54.1,40.8l54.1,-40.8V230h8.7V211.9H155.8c-6.5,.4,-7.7,3.9,-8.2,8.4Z" class="gd_102"/>
<path d="M274,220.3c-.3,-4.7,-4.2,-8.4,-9,-8.4c-4.8,0,-8.7,3.7,-9,8.4h-.1V230h18.2v-9.7Z" class="ge_102"/>
<path d="M255.9,230.6H846.1" class="gf_102"/>
<path d="M131.7,414.2v39l11.7,10.3V419.2Z" class="gg_102"/>
<path d="M131.7,414.2v39H829.5c0,0,16.8,0,16.8,-16.8V431c0,0,0,-16.8,-16.8,-16.8Z" class="g1_102"/>
<path d="M781,447.8c8.2,0,14.8,-6.5,14.8,-14.5c0,-8,-6.6,-14.5,-14.8,-14.5c-8.3,0,-14.9,6.5,-14.9,14.5c0,8,6.6,14.5,14.9,14.5Z" class="gh_102"/>
<path d="M781,447.8c8.2,0,14.8,-6.5,14.8,-14.5c0,-8,-6.6,-14.5,-14.8,-14.5c-8.3,0,-14.9,6.5,-14.9,14.5c0,8,6.6,14.5,14.9,14.5Z" class="gi_102"/>
<path d="M781,438.7c3,0,5.4,-2.4,5.4,-5.4c0,-3,-2.4,-5.3,-5.4,-5.3c-3.1,0,-5.5,2.3,-5.5,5.3c0,3,2.4,5.4,5.5,5.4Z" class="g4_102"/>
<path d="M781,438.7c3,0,5.4,-2.4,5.4,-5.4c0,-3,-2.4,-5.3,-5.4,-5.3c-3.1,0,-5.5,2.3,-5.5,5.3c0,3,2.4,5.4,5.5,5.4Z" class="gj_102"/>
<g clip-path="url(#c4_102)" opacity="0.3">
<path d="M766.4,432.5v0c0,0,-.1,-4.8,3.6,-8.6l7.8,6.7c0,0,-1,.9,-1.1,2.7Z" class="g4_102"/>
</g>
<path d="M785.6,433.2c0,0,-3.5,0,-3.5,3.5v8.7c0,0,0,3.4,3.5,3.4H829c0,0,3.5,0,3.5,-3.4v-8.7c0,0,0,-3.5,-3.5,-3.5Z" class="ge_102"/>
<path d="M169.5,424.3c0,-8.4,-6.7,-15.1,-15,-15.1c-8.4,0,-15.1,6.7,-15.1,15.1c0,8.3,6.8,15,15.1,15c.8,0,1.6,-.1,2.4,-.2l4.5,5.2v-6.7c4.8,-2.5,8.1,-7.5,8.1,-13.3Z" class="g4_102"/>
<path d="M161.8,445.6l-5.1,-6c-.7,.1,-1.5,.2,-2.2,.2c-8.6,0,-15.6,-7,-15.6,-15.5c0,-8.6,7,-15.5,15.6,-15.5c8.5,0,15.5,6.9,15.5,15.5c0,5.7,-3.1,10.9,-8.2,13.6Zm-4.7,-7l3.8,4.5v-5.7l.3,-.2c4.8,-2.5,7.9,-7.5,7.9,-12.9c0,-8.1,-6.6,-14.6,-14.6,-14.6c-8.1,0,-14.6,6.5,-14.6,14.6c0,8,6.5,14.6,14.6,14.6c.7,0,1.5,-.1,2.3,-.2Z" class="gk_102"/>
<path d="M147.4,423.8c.8,0,1.5,.7,1.5,1.5c0,.8,-.7,1.4,-1.5,1.4c-.7,0,-1.4,-.6,-1.4,-1.4c0,-.8,.7,-1.5,1.4,-1.5Z" class="gl_102"/>
<path d="M147.4,427.2c-1,0,-1.8,-.9,-1.8,-1.9c0,-1.1,.8,-1.9,1.8,-1.9c1.1,0,1.9,.8,1.9,1.9c0,1,-.8,1.9,-1.9,1.9m0,-2.9c-.5,0,-.9,.4,-.9,1c0,.5,.4,1,.9,1c.6,0,1,-.5,1,-1c0,-.6,-.4,-1,-1,-1Z" class="gk_102"/>
<path d="M154.5,423.8c.8,0,1.4,.7,1.4,1.5c0,.8,-.6,1.4,-1.4,1.4c-.8,0,-1.5,-.6,-1.5,-1.4c0,-.8,.7,-1.5,1.5,-1.5Z" class="gl_102"/>
<path d="M154.5,427.2c-1.1,0,-1.9,-.9,-1.9,-1.9c0,-1.1,.8,-1.9,1.9,-1.9c1,0,1.9,.8,1.9,1.9c0,1,-.9,1.9,-1.9,1.9m0,-2.9c-.6,0,-1,.4,-1,1c0,.5,.4,1,1,1c.5,0,.9,-.5,.9,-1c0,-.6,-.4,-1,-.9,-1Z" class="gk_102"/>
<path d="M161.5,423.8c.8,0,1.4,.7,1.4,1.5c0,.8,-.6,1.4,-1.4,1.4c-.8,0,-1.5,-.6,-1.5,-1.4c0,-.8,.7,-1.5,1.5,-1.5Z" class="gl_102"/>
<path d="M161.5,427.2c-1.1,0,-1.9,-.9,-1.9,-1.9c0,-1.1,.8,-1.9,1.9,-1.9c1,0,1.9,.8,1.9,1.9c0,1,-.9,1.9,-1.9,1.9m0,-2.9c-.6,0,-1,.4,-1,1c0,.5,.4,1,1,1c.5,0,1,-.5,1,-1c0,-.6,-.5,-1,-1,-1Z" class="gk_102"/>
<path d="M163.4,438.5c0,-9.7,7.9,-17.6,17.6,-17.6c9.7,0,17.6,7.9,17.6,17.6c0,9.7,-7.9,17.6,-17.6,17.6c-.9,0,-1.9,-.1,-2.8,-.2l-5.3,6.1v-7.8c-5.6,-3,-9.5,-8.9,-9.5,-15.7Z" class="gm_102"/>
<path d="M172.9,462.5c0,0,-.1,-.1,-.1,-.1c-.2,0,-.3,-.2,-.3,-.4v-7.6c-5.9,-3.1,-9.6,-9.2,-9.6,-15.9c0,-10,8.2,-18.1,18.1,-18.1c10,0,18.1,8.1,18.1,18.1c0,10,-8.1,18.1,-18.1,18.1c-.8,0,-1.7,-.1,-2.6,-.2l-5.1,5.9c-.1,.1,-.2,.2,-.4,.2M181,421.4c-9.4,0,-17.1,7.6,-17.1,17.1c0,6.5,3.5,12.3,9.2,15.2c.2,.1,.3,.3,.3,.5v6.6l4.4,-5.2c.1,-.1,.3,-.2,.5,-.2c.9,.2,1.8,.3,2.7,.3c9.5,0,17.2,-7.7,17.2,-17.2c0,-9.5,-7.7,-17.1,-17.2,-17.1Z" class="gk_102"/>
<path d="M189.2,438c.9,0,1.7,.8,1.7,1.7c0,.9,-.8,1.7,-1.7,1.7c-.9,0,-1.7,-.8,-1.7,-1.7c0,-.9,.8,-1.7,1.7,-1.7Z" class="g4_102"/>
<path d="M189.2,441.8c-1.2,0,-2.1,-.9,-2.1,-2.1c0,-1.2,.9,-2.1,2.1,-2.1c1.2,0,2.1,.9,2.1,2.1c0,1.2,-.9,2.1,-2.1,2.1m0,-3.3c-.7,0,-1.2,.5,-1.2,1.2c0,.6,.5,1.2,1.2,1.2c.7,0,1.2,-.6,1.2,-1.2c0,-.7,-.5,-1.2,-1.2,-1.2Z" class="gk_102"/>
<path d="M181,438c.9,0,1.7,.8,1.7,1.7c0,.9,-.8,1.7,-1.7,1.7c-.9,0,-1.7,-.8,-1.7,-1.7c0,-.9,.8,-1.7,1.7,-1.7Z" class="g4_102"/>
<path d="M181,441.8c-1.2,0,-2.1,-.9,-2.1,-2.1c0,-1.2,.9,-2.1,2.1,-2.1c1.2,0,2.1,.9,2.1,2.1c0,1.2,-.9,2.1,-2.1,2.1m0,-3.3c-.7,0,-1.2,.5,-1.2,1.2c0,.6,.5,1.2,1.2,1.2c.7,0,1.2,-.6,1.2,-1.2c0,-.7,-.5,-1.2,-1.2,-1.2Z" class="gk_102"/>
<path d="M172.8,438c.9,0,1.7,.8,1.7,1.7c0,.9,-.8,1.7,-1.7,1.7c-.9,0,-1.7,-.8,-1.7,-1.7c0,-.9,.8,-1.7,1.7,-1.7Z" class="g4_102"/>
<path d="M172.8,441.8c-1.2,0,-2.1,-.9,-2.1,-2.1c0,-1.2,.9,-2.1,2.1,-2.1c1.2,0,2.1,.9,2.1,2.1c0,1.2,-.9,2.1,-2.1,2.1m0,-3.3c-.7,0,-1.2,.5,-1.2,1.2c0,.6,.5,1.2,1.2,1.2c.7,0,1.2,-.6,1.2,-1.2c0,-.7,-.5,-1.2,-1.2,-1.2Z" class="gk_102"/>
<path d="M489.1,626.2c4.9,-1.9,8.7,-7,9.7,-13.2m-.3,-7.7c-1.5,-6,-5.7,-10.7,-10.9,-12.1m-7.6,.5c-5,1.9,-8.7,7,-9.7,13.2m.3,7.7c1.4,6,5.6,10.8,10.9,12.1" class="gn_102"/>
<path d="M498.9,611.5c.1,-.5,.1,-1,.1,-1.5c0,-.6,0,-1.1,-.1,-1.6M486.1,592.9c-.5,0,-1.1,-.1,-1.6,-.1c-.5,0,-1,.1,-1.5,.1m-12.9,15.5c0,.5,0,1,0,1.6c0,.5,0,1,0,1.5M483,627c.5,.1,1,.1,1.5,.1c.5,0,1.1,0,1.6,-.1" class="go_102"/>
<path d="M497.8,596.3c15.9,-.8,69.2,-3.9,81.4,-9.4m-6.8,-6.5c-1.3,.2,-2.6,.6,-3.4,1.5" class="gp_102"/>
<path d="M569.4,588.1c3.3,2,12.2,3.2,35.7,-1.2m7.8,-1.1c8.9,-.4,29,.2,45.9,13.1" class="gq_102"/>
<path d="M493.3,596.6c0,0,.5,-.1,1.5,-.1m85.7,-10.3c.5,-.3,.9,-.6,1,-1c0,0,.8,-.8,0,-1.9M578.1,581c-.6,-.2,-1.2,-.4,-2,-.7c0,0,-.5,0,-1.2,-.1m-6.6,2.7c-.2,.3,-.3,.8,-.3,1.2c0,0,-.4,.7,-.3,1.5m38.9,1c.5,-.1,1,-.2,1.6,-.3c0,0,.5,-.1,1.5,-.2M660,599.9c.4,.3,.8,.7,1.2,1" class="gr_102"/>
<image clip-path="url(#c5_102)" preserveAspectRatio="none" x="645" y="574" width="227" height="166" xlink:href="img/4.png"/>
<path d="M673.3,577.3L650.1,698.8l192.8,34.9L866.1,612.2Z" class="gs_102"/>
<image clip-path="url(#c6_102)" preserveAspectRatio="none" x="648" y="578" width="220" height="152" xlink:href="img/5.png"/>
<path d="M667.9,582.3L653,706.6l140,17.1L848,722L862.1,606.1Z" class="gt_102"/>
<path d="M847.9,721.9l-55,2.1l42.6,-19.4Z" class="gu_102"/>
<path d="M662.1,595.2l-5.1,7.2l11.8,2.9Z" class="gv_102"/>
<image clip-path="url(#c7_102)" x="769" y="597" width="6" height="10" xlink:href="shade/1.png"/>
<image clip-path="url(#c8_102)" x="769" y="571" width="24" height="28" xlink:href="shade/2.png"/>
<image clip-path="url(#c9_102)" x="769" y="573" width="23" height="34" xlink:href="shade/3.png"/>
<image clip-path="url(#ca_102)" x="774" y="569" width="20" height="10" xlink:href="shade/4.png"/>
<image clip-path="url(#cb_102)" preserveAspectRatio="none" x="601" y="750" width="254" height="236" xlink:href="img/6.png"/>
<path d="M605.9,763.2l10.2,216l233.2,-8.7L839,754.6Z" class="gs_102"/>
<image clip-path="url(#cc_102)" preserveAspectRatio="none" x="599" y="748" width="257" height="248" xlink:href="img/7.png"/>
<image clip-path="url(#cd_102)" preserveAspectRatio="none" x="599" y="748" width="256" height="248" xlink:href="img/8.png"/>
<path d="M604,773l18.8,216.2L816.9,974.5L849.2,945L834.5,751.9Z" class="gt_102"/>
<path d="M816.9,974.4L849.3,945l-18.2,-8.7Z" class="gu_102"/>
<image clip-path="url(#ce_102)" x="717" y="761" width="5" height="10" xlink:href="shade/5.png"/>
<image clip-path="url(#cf_102)" x="716" y="735" width="24" height="28" xlink:href="shade/6.png"/>
<image clip-path="url(#cg_102)" x="716" y="737" width="23" height="34" xlink:href="shade/7.png"/>
<image clip-path="url(#ch_102)" x="721" y="733" width="20" height="10" xlink:href="shade/8.png"/>
<path d="M518.1,864.3c15.9,-1,28.6,-6.7,31.4,-14m-.7,-7.5c-3.9,-6.8,-16.7,-12,-32.2,-12.6m-7.8,.1c-15.9,.9,-28.6,6.6,-31.4,13.9m.6,7.5c4,6.9,16.8,12,32.3,12.6" class="gn_102"/>
<path d="M549.9,848.8c.1,-.5,.2,-1,.2,-1.5c0,-.5,-.1,-1.1,-.2,-1.6M515,830.2c-.5,-.1,-1,-.1,-1.6,-.1c-.5,0,-1,0,-1.5,.1m-35,15.5c-.1,.5,-.1,1.1,-.1,1.6c0,.5,0,1,.1,1.5m35,15.6c.5,0,1,0,1.5,0c.6,0,1.1,0,1.6,0" class="go_102"/>
<path d="M549.1,844.8c0,0,16.6,-24.2,51.9,-35.5" class="gq_102"/>
<path d="M599.7,804.4l1.3,8.8L611.5,807Z" class="gv_102"/>
<path d="M32.1,45.1H9.2m958.3,0h22.9M32.1,1331.3H9.2m958.3,0h22.9M45.1,32.1V9.2m0,1335.1v22.9M954.5,32.1V9.2m0,1335.1v22.9" class="gw_102"/>
<path d="M32.1,45.1H9.2m958.3,0h22.9M32.1,1331.3H9.2m958.3,0h22.9M45.1,32.1V9.2m0,1335.1v22.9M954.5,32.1V9.2m0,1335.1v22.9" class="gx_102"/>
<path d="M27.5,32.1H0m972.1,0h27.5M27.5,1344.3H0m972.1,0h27.5M32.1,27.5V0m0,1348.9v27.5M967.5,27.5V0m0,1348.9v27.5" class="gw_102"/>
<path d="M27.5,32.1H0m972.1,0h27.5M27.5,1344.3H0m972.1,0h27.5M32.1,27.5V0m0,1348.9v27.5M967.5,27.5V0m0,1348.9v27.5" class="gx_102"/>
</svg>