<?xml version="1.0" encoding="UTF-8" standalone="no"?>
<!DOCTYPE svg PUBLIC "-//W3C//DTD SVG 1.1//EN"
"http://www.w3.org/Graphics/SVG/1.1/DTD/svg11.dtd">
<svg viewBox="0 0 999 1376" version="1.1" xmlns="http://www.w3.org/2000/svg" xmlns:xlink="http://www.w3.org/1999/xlink">
<defs>
<clipPath id="c0_133"><path d="M154.8,1244.7V131.7H869.3v1113Z"/></clipPath>
<clipPath id="c1_133"><path d="M164.2,1202.5V263.8H857.9v938.7Z"/></clipPath>
<style type="text/css"><![CDATA[
.g0_133{
fill: #FFF;
}
.g1_133{
fill: none;
stroke: #231F20;
stroke-width: 0.756;
stroke-miterlimit: 3;
}
.g2_133{
fill: #5FB1E3;
}
.g3_133{
fill: #25408F;
}
.g4_133{
fill: #6381B7;
}
.g5_133{
fill: #FFDE2C;
}
.g6_133{
fill: none;
stroke: #231F20;
stroke-width: 1.451;
stroke-miterlimit: 10;
}
.g7_133{
fill: #D2D3D5;
}
.g8_133{
fill: #A8AAAD;
}
.g9_133{
fill: none;
stroke: #231F20;
stroke-width: 0.828;
stroke-miterlimit: 10;
}
.ga_133{
fill: #6CCFF6;
}
.gb_133{
fill: none;
stroke: #231F20;
stroke-width: 0.828;
stroke-linecap: round;
stroke-linejoin: round;
}
.gc_133{
fill: none;
stroke: #231F20;
stroke-width: 1.451;
stroke-linecap: round;
stroke-linejoin: round;
}
.gd_133{
fill: none;
stroke: #FFF;
stroke-width: 1.909;
stroke-miterlimit: 10;
}
.ge_133{
fill: none;
stroke: #000;
stroke-width: 0.381;
stroke-miterlimit: 10;
}
]]></style>
</defs>
<path d="M154.8,1244.7H869.3V131.7H154.8v1113Z" class="g0_133"/>
<image clip-path="url(#c0_133)" preserveAspectRatio="none" x="152" y="130" width="719" height="1117" xlink:href="img/1.jpg"/>
<path d="M501.5,184.7c-.3,.8,-.7,1.4,-1.3,2c-.6,.5,-1.3,.9,-2.1,1.2c-.8,.3,-1.7,.5,-2.6,.5c-1,0,-1.9,-.2,-2.7,-.5c-.8,-.3,-1.5,-.7,-2.1,-1.2c-.6,-.6,-1,-1.2,-1.3,-2c-.4,-.8,-.5,-1.6,-.5,-2.6c0,-.9,.1,-1.8,.5,-2.5c.3,-.8,.7,-1.4,1.3,-2c.6,-.5,1.3,-1,2.1,-1.3c.8,-.3,1.7,-.4,2.7,-.4c.9,0,1.8,.1,2.6,.4c.8,.3,1.5,.8,2.1,1.3c.6,.6,1,1.2,1.3,2c.4,.7,.5,1.6,.5,2.5c0,1,-.1,1.8,-.5,2.6Zm6.5,13.5h-2.3v-5.6c-1.1,.6,-2.4,1.1,-3.6,1.4c-1.3,.3,-2.7,.5,-4.4,.5h-9.9v-1.8h9.8c1.5,0,2.8,-.2,4.2,-.5c1.3,-.3,2.6,-.9,3.9,-1.8V175.6H508v22.6Zm-9.4,-19.3c-.8,-.8,-1.9,-1.2,-3.1,-1.2c-1.3,0,-2.3,.4,-3.1,1.2c-.8,.8,-1.3,1.9,-1.3,3.2c0,1.5,.5,2.6,1.3,3.3c.8,.8,1.8,1.1,3.1,1.1c1.2,0,2.3,-.3,3.1,-1.1c.8,-.7,1.2,-1.8,1.2,-3.3c0,-1.3,-.4,-2.4,-1.2,-3.2Zm17.6,6.1c0,.2,0,.4,.2,.5c.1,.2,.3,.2,.5,.2h5.6c1.1,0,2.2,0,3.4,-.1c1.1,-.1,2.4,-.3,3.7,-.7l.4,1.8c-.8,.2,-1.4,.3,-2,.4c-.6,.2,-1.2,.2,-1.8,.3c-.6,.1,-1.2,.1,-1.8,.1c-.6,0,-1.2,0,-1.9,0h-5.7c-.9,0,-1.6,-.1,-2.1,-.5c-.5,-.4,-.7,-1,-.7,-1.9v-4.4h12.7v-3H514v-1.8h15v6c-.7,.2,-1.3,.4,-1.9,.5c-.6,.1,-1.2,.1,-1.8,.1h-9.1V185Zm.4,14v-6.8h-5.5v-1.8h21.4v1.8h-5.7V199h-2.3v-6.8h-5.7V199h-2.2Z" class="g1_133"/>
<image clip-path="url(#c1_133)" preserveAspectRatio="none" x="162" y="262" width="698" height="942" xlink:href="img/2.png"/>
<path d="M438.4,465.2c0,0,-12.2,0,-12.2,12.2v5.8c0,0,0,12.3,12.2,12.3H587.2c0,0,12.2,0,12.2,-12.3v-5.8c0,0,0,-12.2,-12.2,-12.2Z" class="g2_133"/>
<path d="M395.1,704.4c0,0,-12.2,0,-12.2,12.2v5.9c0,0,0,12.2,12.2,12.2H630.5c0,0,12.2,0,12.2,-12.2v-5.9c0,0,0,-12.2,-12.2,-12.2Z" class="g2_133"/>
<path d="M196.8,921.6c0,0,-18.3,0,-18.3,18.3v15.3c0,0,0,18.4,18.3,18.4h93.3c0,0,18.3,0,18.3,-18.4V939.9c0,0,0,-18.3,-18.3,-18.3Z" class="g2_133"/>
<path d="M205.5,1160.8c0,0,-18.3,0,-18.3,18.4v15.3c0,0,0,18.3,18.3,18.3h75.9c0,0,18.4,0,18.4,-18.3v-15.3c0,0,0,-18.4,-18.4,-18.4Z" class="g2_133"/>
<path d="M374.4,921.6c0,0,-18.4,0,-18.4,18.3v15.3c0,0,0,18.4,18.4,18.4H481.5c0,0,18.3,0,18.3,-18.4V939.9c0,0,0,-18.3,-18.3,-18.3Z" class="g2_133"/>
<path d="M386.9,1160.8c0,0,-18.3,0,-18.3,18.4v15.3c0,0,0,18.3,18.3,18.3h75.9c0,0,18.4,0,18.4,-18.3v-15.3c0,0,0,-18.4,-18.4,-18.4Z" class="g2_133"/>
<path d="M565,921.6c0,0,-18.3,0,-18.3,18.3v15.3c0,0,0,18.4,18.3,18.4h75.9c0,0,18.4,0,18.4,-18.4V939.9c0,0,0,-18.3,-18.4,-18.3Z" class="g2_133"/>
<path d="M565,1160.8c0,0,-18.3,0,-18.3,18.4v15.3c0,0,0,18.3,18.3,18.3h75.9c0,0,18.4,0,18.4,-18.3v-15.3c0,0,0,-18.4,-18.4,-18.4Z" class="g2_133"/>
<path d="M743.1,921.6c0,0,-18.3,0,-18.3,18.3v15.3c0,0,0,18.4,18.3,18.4H819c0,0,18.4,0,18.4,-18.4V939.9c0,0,0,-18.3,-18.4,-18.3Z" class="g2_133"/>
<path d="M743.1,1160.8c0,0,-18.3,0,-18.3,18.4v15.3c0,0,0,18.3,18.3,18.3H819c0,0,18.4,0,18.4,-18.3v-15.3c0,0,0,-18.4,-18.4,-18.4Z" class="g2_133"/>
<path d="M153.3,126.3v22.2L165,158.7V136.5Z" class="g3_133"/>
<path d="M153.3,109.5v39H851.1c0,0,16.8,0,16.8,-16.8v-5.4c0,0,0,-16.8,-16.8,-16.8Z" class="g4_133"/>
<path d="M207.2,115.7c0,-9.1,-7.9,-16.6,-17.7,-16.6c-9.8,0,-17.7,7.5,-17.7,16.6c0,2.7,.6,5.2,1.8,7.4c1.2,2.4,2.9,4.6,5,6.2c1.2,1,1.6,1.7,1.7,4.3v.6c0,3.3,2.7,5.9,5.9,5.9h6.6c3.2,0,5.8,-2.6,5.8,-5.9v-.6c.2,-2.6,.6,-3.3,1.8,-4.3c2.1,-1.6,3.8,-3.8,5,-6.2c1.2,-2.2,1.8,-4.7,1.8,-7.4Z" class="g5_133"/>
<path d="M207.2,115.7c0,-9.1,-7.9,-16.6,-17.7,-16.6c-9.8,0,-17.7,7.5,-17.7,16.6c0,2.7,.6,5.2,1.8,7.4c1.2,2.4,2.9,4.6,5,6.2c1.2,1,1.6,1.7,1.7,4.3v.6c0,3.3,2.7,5.9,5.9,5.9h6.6c3.2,0,5.8,-2.6,5.8,-5.9v-.6c.2,-2.6,.6,-3.3,1.8,-4.3c2.1,-1.6,3.8,-3.8,5,-6.2c1.2,-2.2,1.8,-4.7,1.8,-7.4Z" class="g6_133"/>
<path d="M194.6,147.4c0,2.8,-2.3,5.1,-5.1,5.1c-2.8,0,-5.1,-2.3,-5.1,-5.1c0,-2.8,2.3,-5.1,5.1,-5.1c2.8,0,5.1,2.3,5.1,5.1Z" class="g0_133"/>
<path d="M194.6,147.4c0,2.8,-2.3,5.1,-5.1,5.1c-2.8,0,-5.1,-2.3,-5.1,-5.1c0,-2.8,2.3,-5.1,5.1,-5.1c2.8,0,5.1,2.3,5.1,5.1Z" class="g6_133"/>
<path d="M182.1,140.2c0,1,.8,1.8,1.8,1.8h11.2c1,0,1.8,-.8,1.8,-1.8v-1.3H182.1Z" class="g0_133"/>
<path d="M182.1,140.2c0,1,.8,1.8,1.8,1.8h11.2c1,0,1.8,-.8,1.8,-1.8v-1.3H182.1v1.3Z" class="g6_133"/>
<path d="M196.9,143.2c0,.8,-.6,1.3,-1.3,1.3H183.4c-.8,0,-1.3,-.5,-1.3,-1.3c0,-.7,.5,-1.3,1.3,-1.3h12.2c.7,0,1.3,.6,1.3,1.3Z" class="g0_133"/>
<path d="M196.9,143.2c0,.8,-.6,1.3,-1.3,1.3H183.4c-.8,0,-1.3,-.5,-1.3,-1.3c0,-.7,.5,-1.3,1.3,-1.3h12.2c.7,0,1.3,.6,1.3,1.3Z" class="g6_133"/>
<path d="M196.9,145.8c0,.7,-.6,1.3,-1.3,1.3H183.4c-.8,0,-1.3,-.6,-1.3,-1.3c0,-.7,.5,-1.3,1.3,-1.3h12.2c.7,0,1.3,.6,1.3,1.3Z" class="g0_133"/>
<path d="M196.9,145.8c0,.7,-.6,1.3,-1.3,1.3H183.4c-.8,0,-1.3,-.6,-1.3,-1.3c0,-.7,.5,-1.3,1.3,-1.3h12.2c.7,0,1.3,.6,1.3,1.3Z" class="g6_133"/>
<path d="M215.5,128.7l8.3,10.4c.6,.7,1.8,.6,2.7,-.2c.9,-.7,1.2,-1.9,.7,-2.6l-8.9,-10.2Z" class="g7_133"/>
<path d="M215.5,128.7l8.3,10.4c.6,.7,1.8,.6,2.7,-.2c.9,-.7,1.2,-1.9,.7,-2.6l-8.9,-10.2l-2.8,2.6Z" class="g6_133"/>
<path d="M217.5,125.1c.5,.6,.3,1.8,-.7,2.6c-.9,.7,-2.1,.8,-2.6,.2c-.6,-.7,-.3,-1.9,.6,-2.6c.9,-.8,2.1,-.9,2.7,-.2Z" class="g8_133"/>
<path d="M217.5,125.1c.5,.6,.3,1.8,-.7,2.6c-.9,.7,-2.1,.8,-2.6,.2c-.6,-.7,-.3,-1.9,.6,-2.6c.9,-.8,2.1,-.9,2.7,-.2Z" class="g6_133"/>
<path d="M212.7,124.7l1.7,2c.3,.3,1,.3,1.5,-.1c.5,-.5,.7,-1.1,.4,-1.5l-1.7,-2Z" class="g0_133"/>
<path d="M212.7,124.7l1.7,2c.3,.3,1,.3,1.5,-.1c.5,-.5,.7,-1.1,.4,-1.5l-1.7,-2l-1.9,1.6Z" class="g9_133"/>
<path d="M214.8,122.9c.4,.5,.2,1.3,-.5,1.8c-.6,.5,-1.4,.6,-1.8,.1c-.4,-.4,-.2,-1.2,.5,-1.7c.6,-.6,1.4,-.6,1.8,-.2Z" class="g0_133"/>
<path d="M214.8,122.9c.4,.5,.2,1.3,-.5,1.8c-.6,.5,-1.4,.6,-1.8,.1c-.4,-.4,-.2,-1.2,.5,-1.7c.6,-.6,1.4,-.6,1.8,-.2Z" class="g9_133"/>
<path d="M216.4,105.4c4.8,5.7,4.1,14.2,-1.7,19c-5.7,4.8,-14.2,4,-19,-1.7c-4.8,-5.7,-4,-14.2,1.7,-19c5.7,-4.8,14.2,-4.1,19,1.7Z" class="g0_133"/>
<path d="M216.4,105.4c4.8,5.7,4.1,14.2,-1.7,19c-5.7,4.8,-14.2,4,-19,-1.7c-4.8,-5.7,-4,-14.2,1.7,-19c5.7,-4.8,14.2,-4.1,19,1.7Z" class="g6_133"/>
<path d="M214,107.4c3.5,4.2,3,10.5,-1.3,14.1c-4.2,3.5,-10.5,2.9,-14,-1.3c-3.5,-4.2,-3,-10.5,1.2,-14c4.2,-3.6,10.5,-3,14.1,1.2Z" class="ga_133"/>
<path d="M214,107.4c3.5,4.2,3,10.5,-1.3,14.1c-4.2,3.5,-10.5,2.9,-14,-1.3c-3.5,-4.2,-3,-10.5,1.2,-14c4.2,-3.6,10.5,-3,14.1,1.2Z" class="g6_133"/>
<path d="M213,110.6l-3.1,3m3.1,-.4l-3.1,3" class="gb_133"/>
<path d="M172.1,99l3.1,3.3m1.1,-5.9l1.2,3.9m-8.1,3l3.7,1.2" class="gc_133"/>
<path d="M185.8,106.1c1.2,1.2,.2,4.3,-2.2,6.7c-2.5,2.5,-5.5,3.5,-6.8,2.3c-1.2,-1.3,-.3,-4.3,2.2,-6.8c2.5,-2.5,5.5,-3.5,6.8,-2.2Z" class="g0_133"/>
<path d="M203.7,107.6c.6,.6,.1,1.9,-.9,3c-1.1,1,-2.4,1.5,-3,.9c-.5,-.5,-.1,-1.8,1,-2.9c1.1,-1.1,2.4,-1.5,2.9,-1Z" class="g0_133"/>
<path d="M32.1,45.1H9.2m958.3,0h22.9M32.1,1331.3H9.2m958.3,0h22.9M45.1,32.1V9.2m0,1335.1v22.9M954.5,32.1V9.2m0,1335.1v22.9" class="gd_133"/>
<path d="M32.1,45.1H9.2m958.3,0h22.9M32.1,1331.3H9.2m958.3,0h22.9M45.1,32.1V9.2m0,1335.1v22.9M954.5,32.1V9.2m0,1335.1v22.9" class="ge_133"/>
<path d="M27.5,32.1H0m972.1,0h27.5M27.5,1344.3H0m972.1,0h27.5M32.1,27.5V0m0,1348.9v27.5M967.5,27.5V0m0,1348.9v27.5" class="gd_133"/>
<path d="M27.5,32.1H0m972.1,0h27.5M27.5,1344.3H0m972.1,0h27.5M32.1,27.5V0m0,1348.9v27.5M967.5,27.5V0m0,1348.9v27.5" class="ge_133"/>
</svg>