<?xml version="1.0" encoding="UTF-8" standalone="no"?>
<!DOCTYPE svg PUBLIC "-//W3C//DTD SVG 1.1//EN"
"http://www.w3.org/Graphics/SVG/1.1/DTD/svg11.dtd">
<svg viewBox="0 0 999 1376" version="1.1" xmlns="http://www.w3.org/2000/svg" xmlns:xlink="http://www.w3.org/1999/xlink">
<defs>
<clipPath id="c0_287"><path d="M32.1,1344.3V32.1H967.5V1344.3Z"/></clipPath>
<clipPath id="c1_287"><path d="M198.2,753.2l-6.5,-2.1L175.4,737.2V680.1h71.9v73.1Z"/></clipPath>
<clipPath id="c2_287"><path d="M200.1,137.2c.1,-1.3,.7,-2.5,1.6,-3.4c1,-1,2.3,-1.6,3.9,-1.6h19.2v5Z"/></clipPath>
<clipPath id="c3_287"><path d="M199.5,137.7v-6h25.8v6Z"/></clipPath>
<style type="text/css"><![CDATA[
.g0_287{
fill: #FEFCF4;
}
.g1_287{
fill: #FCE8B0;
}
.g2_287{
fill: #FFF;
}
.g3_287{
fill: none;
stroke: #6381B7;
stroke-width: 0.763;
}
.g4_287{
fill: #6381B7;
}
.g5_287{
fill: none;
stroke: #6381B7;
stroke-width: 0.381;
stroke-dasharray: 2,1;
}
.g6_287{
fill: none;
stroke: #6381B7;
stroke-width: 0.381;
}
.g7_287{
fill: #DCE9F3;
}
.g8_287{
fill: #F0E8F3;
}
.g9_287{
fill: none;
stroke: #231F20;
stroke-width: 0.305;
stroke-miterlimit: 10;
}
.ga_287{
fill: #25408F;
}
.gb_287{
fill: none;
stroke: #231F20;
stroke-width: 1.527;
}
.gc_287{
fill: #39B4D1;
stroke: #2D2A4A;
stroke-width: 1.038;
stroke-linecap: round;
stroke-linejoin: round;
}
.gd_287{
fill: #2D2A4A;
}
.ge_287{
fill: none;
stroke: #2D2A4A;
stroke-width: 1.038;
stroke-linecap: round;
stroke-linejoin: round;
}
.gf_287{
fill: #DEDAD3;
}
.gg_287{
fill: #29263F;
}
.gh_287{
fill: #E15F46;
stroke: #2D2A4A;
stroke-width: 1.038;
stroke-linecap: round;
stroke-linejoin: round;
}
.gi_287{
fill: none;
stroke: #FFF;
stroke-width: 1.909;
stroke-miterlimit: 10;
}
.gj_287{
fill: none;
stroke: #000;
stroke-width: 0.381;
stroke-miterlimit: 10;
}
]]></style>
</defs>
<path clip-path="url(#c0_287)" d="M-877.3,1344.3H45.1V32.1H-877.3V1344.3Z" class="g0_287"/>
<path d="M230.9,708.2c0,0,-13,0,-13,13v21.7c0,0,0,13,13,13H854.2c0,0,13,0,13,-13V721.2c0,0,0,-13,-13,-13Z" class="g1_287"/>
<image clip-path="url(#c1_287)" preserveAspectRatio="none" x="174" y="678" width="75" height="77" xlink:href="img/1.png"/>
<path d="M225.7,748.5c0,0,-26.9,11.3,-51.1,-12.8c0,0,15.1,25.4,49.3,24c0,0,24.7,.3,20.2,-10.1c0,0,1.2,-4.5,-18.4,-1.1Z" class="g1_287"/>
<path d="M166.7,770.5c0,0,-13,0,-13,13V1094c0,0,0,13,13,13H854.5c0,0,13,0,13,-13V783.5c0,0,0,-13,-13,-13Z" class="g2_287"/>
<path d="M166.7,770.5c0,0,-13,0,-13,13V1094c0,0,0,13,13,13H854.5c0,0,13,0,13,-13V783.5c0,0,0,-13,-13,-13H166.7Z" class="g3_287"/>
<path d="M747.7,1128.2c0,0,-4.3,0,-4.3,4.3v10.8c0,0,0,4.3,4.3,4.3H778c0,0,4.3,0,4.3,-4.3v-10.8c0,0,0,-4.3,-4.3,-4.3Z" class="g4_287"/>
<path d="M734.5,1119.3v37.6m1.3,.9h131m.9,-1.3v-37.6m-1.3,-.9H735.5" class="g5_287"/>
<path d="M734.5,1157.3v.5h.6m132.1,0h.5v-.5m0,-38.7v-.6h-.5m-132.1,0h-.6v.6" class="g6_287"/>
<path d="M170.7,166.3c0,0,-17.4,0,-17.4,17.4V526.2c0,0,0,17.4,17.4,17.4H850.6c0,0,17.3,0,17.3,-17.4V183.7c0,0,0,-17.4,-17.3,-17.4Z" class="g7_287"/>
<path d="M225.2,826.3c0,0,-8.6,0,-8.6,8.6v73.7c0,0,0,8.6,8.6,8.6h589c0,0,8.7,0,8.7,-8.6V834.9c0,0,0,-8.6,-8.7,-8.6Z" class="g8_287"/>
<path d="M397.9,904H624.6" class="g9_287"/>
<path d="M225.2,968c0,0,-8.6,0,-8.6,8.6v73.6c0,0,0,8.7,8.6,8.7h589c0,0,8.7,0,8.7,-8.7V976.6c0,0,0,-8.6,-8.7,-8.6Z" class="g8_287"/>
<path d="M345.3,1045.7H572" class="g9_287"/>
<path d="M153.3,109.5v39L165,158.7V136.5Z" class="ga_287"/>
<path d="M153.3,109.5v39H851.1c0,0,16.8,0,16.8,-16.8v-5.4c0,0,0,-16.8,-16.8,-16.8Z" class="g4_287"/>
<path d="M790.4,131c0,0,-.5,-10,8.6,-9.4c0,0,6.8,-.3,6.7,9.5m-15.3,-1.5v6.5c0,0,-3.4,.3,-3.9,-3c0,0,-.1,-3.8,3.9,-3.5Zm15.3,0v6.5c0,0,3.4,.3,4,-3c0,0,0,-3.8,-4,-3.5Z" class="gb_287"/>
<path d="M169,140.8h61v-32H169v32Z" class="gc_287"/>
<path d="M169,143.1h61v-2.3H169v2.3Z" class="gc_287"/>
<path d="M193.5,106.2H173.8v31.5h25.7V112.3c0,-3.4,-2.7,-6.1,-6,-6.1Z" class="g2_287"/>
<path d="M193.5,106.2v-.5H173.8c-.2,0,-.3,.1,-.4,.2c-.1,.1,-.2,.2,-.2,.3v31.5c0,.1,.1,.3,.2,.4c.1,.1,.2,.1,.4,.1h25.7c.2,0,.3,0,.4,-.1c.1,-.1,.1,-.3,.1,-.4V112.3c0,-3.7,-2.9,-6.6,-6.5,-6.6v1c1.5,0,2.9,.7,3.9,1.7c1,1,1.6,2.3,1.6,3.9v24.9H174.3V106.7h19.2Z" class="gd_287"/>
<path d="M173.8,131.7v6h25.7c0,-3.3,-2.7,-6,-6,-6Z" class="g2_287"/>
<path d="M173.8,131.7h-.6v6c0,.1,.1,.3,.2,.4c.1,.1,.2,.1,.4,.1h25.7c.2,0,.3,0,.4,-.1c.1,-.1,.1,-.3,.1,-.4c0,-3.6,-2.9,-6.6,-6.5,-6.6H173.8c-.2,0,-.3,.1,-.4,.2c-.1,.1,-.2,.2,-.2,.4h.6v.5h19.7c1.5,0,2.9,.6,3.9,1.6c1,1,1.6,2.4,1.6,3.9h.5v-.5H174.3v-5.5h-.5v.5Z" class="gd_287"/>
<path d="M177.3,110.9h17.2m-17.2,2.8h17.2m-17.2,2.9h17.2m-17.2,2.9h17.2m-17.2,2.8h17.2m-17.2,2.9h17.2M177.3,128h17.2" class="ge_287"/>
<path d="M193.5,132.2H174.3v5H199c-.1,-1.3,-.7,-2.5,-1.6,-3.4c-1,-1,-2.4,-1.6,-3.9,-1.6Z" class="gf_287"/>
<path d="M174.3,132.2h19.2c1.5,0,2.9,.6,3.9,1.6c.9,.9,1.5,2.1,1.6,3.4H174.3Zm19.2,-.5H173.8v6H199v-2.5c-.9,-2.1,-3.1,-3.5,-5.5,-3.5Z" class="gg_287"/>
<path d="M205.6,106.2h19.7v31.5H199.5V112.3c0,-3.4,2.7,-6.1,6.1,-6.1Z" class="g2_287"/>
<path d="M205.6,106.2v.5h19.2v30.5H200V112.3c0,-1.6,.7,-2.9,1.7,-3.9c1,-1,2.3,-1.7,3.9,-1.7v-1c-3.7,0,-6.6,2.9,-6.6,6.6v25.4c0,.1,.1,.3,.2,.4c0,.1,.2,.1,.3,.1h25.8c.1,0,.2,0,.3,-.1c.1,-.1,.2,-.3,.2,-.4V106.2c0,-.1,-.1,-.2,-.2,-.3c-.1,-.1,-.2,-.2,-.3,-.2H205.6Z" class="gd_287"/>
<path d="M225.3,131.7v6H199.5c0,-3.3,2.7,-6,6.1,-6Z" class="g2_287"/>
<path d="M225.3,131.7h-.5v5.5H199.5v.5h.5c0,-1.5,.7,-2.9,1.7,-3.9c1,-1,2.3,-1.6,3.9,-1.6h19.7v-.5h-.5h.5v-.6H205.6c-3.7,0,-6.6,3,-6.6,6.6c0,.1,.1,.3,.2,.4c0,.1,.2,.1,.3,.1h25.8c.1,0,.2,0,.3,-.1c.1,-.1,.2,-.3,.2,-.4v-6c0,-.2,-.1,-.3,-.2,-.4c-.1,-.1,-.2,-.2,-.3,-.2Z" class="gd_287"/>
<path d="M221.8,110.9H204.6m17.2,2.8H204.6m17.2,2.9H204.6m17.2,2.9H204.6m17.2,2.8H204.6m17.2,2.9H204.6m17.2,2.8H204.6" class="ge_287"/>
<path clip-path="url(#c2_287)" d="M200.1,137.2h24.7v-5H200.1v5Z" class="gf_287"/>
<path clip-path="url(#c3_287)" d="M200.1,137.2c.1,-1.3,.7,-2.5,1.6,-3.4c1,-1,2.3,-1.6,3.9,-1.6h19.2v5Zm25.2,-5.5H205.6c-3.4,0,-6.1,2.7,-6.1,6h25.8v-6h-.5h.5Z" class="gg_287"/>
<path d="M199.5,108.8v34.3" class="ge_287"/>
<path d="M217.2,145.5h3.3V134.7h-3.3v10.8Z" class="gh_287"/>
<path d="M32.1,45.1H9.2m958.3,0h22.9M32.1,1331.3H9.2m958.3,0h22.9M45.1,32.1V9.2m0,1335.1v22.9M954.5,32.1V9.2m0,1335.1v22.9" class="gi_287"/>
<path d="M32.1,45.1H9.2m958.3,0h22.9M32.1,1331.3H9.2m958.3,0h22.9M45.1,32.1V9.2m0,1335.1v22.9M954.5,32.1V9.2m0,1335.1v22.9" class="gj_287"/>
<path d="M27.5,32.1H0m972.1,0h27.5M27.5,1344.3H0m972.1,0h27.5M32.1,27.5V0m0,1348.9v27.5M967.5,27.5V0m0,1348.9v27.5" class="gi_287"/>
<path d="M27.5,32.1H0m972.1,0h27.5M27.5,1344.3H0m972.1,0h27.5M32.1,27.5V0m0,1348.9v27.5M967.5,27.5V0m0,1348.9v27.5" class="gj_287"/>
</svg>