<?xml version="1.0" encoding="UTF-8" standalone="no"?>
<!DOCTYPE svg PUBLIC "-//W3C//DTD SVG 1.1//EN"
"http://www.w3.org/Graphics/SVG/1.1/DTD/svg11.dtd">
<svg viewBox="0 0 999 1376" version="1.1" xmlns="http://www.w3.org/2000/svg" xmlns:xlink="http://www.w3.org/1999/xlink">
<defs>
<clipPath id="c0_135"><path d="M32.1,1344.3V32.1H967.5V1344.3Z"/></clipPath>
<clipPath id="c1_135"><path d="M146.8,440.5V211.7H878.3V440.5Z"/></clipPath>
<clipPath id="c2_135"><path d="M146.8,1194.7V1048.4H878.3v146.3Z"/></clipPath>
<clipPath id="c3_135"><path d="M278.8,704L247.5,689.6L229.1,657.7l41,-21.3l32.3,36.2L278.8,704Z"/></clipPath>
<clipPath id="c4_135"><path d="M345.8,704L314.5,689.6L296.1,657.7l41,-21.3l32.3,36.2L345.8,704Z"/></clipPath>
<clipPath id="c5_135"><path d="M322.7,748.7L291.3,734.3L273,702.4l41,-21.2l32.3,36.1l-23.6,31.4Z"/></clipPath>
<clipPath id="c6_135"><path d="M287,872.4L253.3,861.8L235.5,827.3l44.6,-13.2l23.4,32.7L287,872.4Z"/></clipPath>
<clipPath id="c7_135"><path d="M346.5,872.4L312.8,861.8L295,827.3l44.7,-13.2l23.4,32.7l-16.6,25.6Z"/></clipPath>
<clipPath id="c8_135"><path d="M287,818.8L253.3,808.3L235.5,773.7l44.6,-13.2l23.4,32.8L287,818.8Z"/></clipPath>
<clipPath id="c9_135"><path d="M346.5,818.8L312.8,808.3L295,773.7l44.7,-13.2l23.4,32.8l-16.6,25.5Z"/></clipPath>
<clipPath id="ca_135"><path d="M517.6,808.5c-2.4,0,-4.4,-.9,-4.4,-.9l-4,-1.8l-5.6,-1l-4.7,-4.3c-1.1,-1,-1.1,-2.6,-1.1,-2.6l.1,-7c0,-1.5,.8,-2.8,.8,-2.8l2.8,-4.4c.8,-1.3,2.2,-1.9,2.2,-1.9l4.9,-2.1l7.3,-3.2c2.8,-1.2,4,-4,4,-4l1.2,-2.8l5.6,-.1l5.1,-4.1c2.3,-1.9,5.4,-1.9,5.4,-1.9h2.4c1.6,0,2.7,1,2.7,1l4.2,4l4.9,-1c.2,-.1,.4,-.1,.6,-.1c1.2,0,2,.8,2,.8l3.3,3l4,7.7c1.4,2.7,1.4,5.7,1.4,5.7l-.1,6.9c0,1.5,-1.3,2.2,-1.3,2.2l-8.4,4.3l-4,1.4l-8.4,4.5c-4,2.2,-8.6,2.7,-8.6,2.7l-6.8,.8l-6.1,.9c-.5,.1,-.9,.1,-1.4,.1Z"/></clipPath>
<clipPath id="cb_135"><path d="M579.1,824.3c-2.5,0,-4.5,-.9,-4.5,-.9l-4,-1.9l-5.5,-.9l-4.7,-4.3c-1.2,-1.1,-1.1,-2.6,-1.1,-2.6v-7c.1,-1.5,.9,-2.8,.9,-2.8l2.7,-4.5c.8,-1.3,2.2,-1.9,2.2,-1.9l5,-2.1l7.3,-3.1c2.8,-1.2,3.9,-4,3.9,-4l1.2,-2.8l5.7,-.1l5,-4.1c2.4,-2,5.4,-2,5.4,-2h2.5c1.5,0,2.6,1.1,2.6,1.1l4.3,4l4.9,-1.1c.2,0,.4,0,.5,0c1.2,0,2.1,.7,2.1,.7l3.2,3l4,7.7c1.5,2.7,1.4,5.8,1.4,5.8v6.8c0,1.6,-1.4,2.3,-1.4,2.3l-8.3,4.3l-4.1,1.3l-8.3,4.6c-4.1,2.1,-8.6,2.7,-8.6,2.7l-6.9,.8l-6.1,.9c-.4,.1,-.9,.1,-1.3,.1Z"/></clipPath>
<clipPath id="cc_135"><path d="M517.6,853.6c-2.4,0,-4.4,-1,-4.4,-1l-4,-1.8l-5.6,-.9l-4.7,-4.3c-1.1,-1.1,-1.1,-2.6,-1.1,-2.6l.1,-7c0,-1.5,.8,-2.8,.8,-2.8l2.8,-4.5c.8,-1.3,2.2,-1.9,2.2,-1.9l4.9,-2.1l7.3,-3.1c2.8,-1.2,4,-4,4,-4l1.2,-2.8l5.6,-.1l5.1,-4.2c2.3,-1.9,5.4,-1.9,5.4,-1.9h2.4c1.6,0,2.7,1.1,2.7,1.1l4.2,3.9l4.9,-1c.2,0,.4,0,.6,0c1.2,0,2,.7,2,.7l3.3,3l4,7.7c1.4,2.7,1.4,5.8,1.4,5.8l-.1,6.8c0,1.5,-1.3,2.2,-1.3,2.2l-8.4,4.4l-4,1.3l-8.4,4.6c-4,2.1,-8.6,2.7,-8.6,2.7l-6.8,.8l-6.1,.9c-.5,0,-.9,.1,-1.4,.1Z"/></clipPath>
<clipPath id="cd_135"><path d="M579.1,869.3c-2.5,0,-4.5,-.9,-4.5,-.9l-4,-1.8l-5.5,-1l-4.7,-4.3c-1.2,-1,-1.1,-2.5,-1.1,-2.5v-7.1c.1,-1.5,.9,-2.8,.9,-2.8l2.7,-4.4c.8,-1.3,2.2,-1.9,2.2,-1.9l5,-2.1l7.3,-3.2c2.8,-1.2,3.9,-4,3.9,-4l1.2,-2.8l5.7,-.1l5,-4.1c2.4,-1.9,5.4,-1.9,5.4,-1.9h2.5c1.5,0,2.6,1,2.6,1l4.3,4l4.9,-1c.2,-.1,.4,-.1,.5,-.1c1.2,0,2.1,.8,2.1,.8l3.2,3l4,7.7c1.5,2.7,1.4,5.7,1.4,5.7v6.9c0,1.5,-1.4,2.2,-1.4,2.2l-8.3,4.3l-4.1,1.4l-8.3,4.5c-4.1,2.2,-8.6,2.7,-8.6,2.7l-6.9,.8l-6.1,.9c-.4,.1,-.9,.1,-1.3,.1Z"/></clipPath>
<clipPath id="ce_135"><path d="M517.6,692.5c-2.4,0,-4.4,-.9,-4.4,-.9l-4,-1.8l-5.6,-1l-4.7,-4.3c-1.1,-1,-1.1,-2.6,-1.1,-2.6l.1,-7c0,-1.5,.8,-2.8,.8,-2.8l2.8,-4.4c.8,-1.3,2.2,-1.9,2.2,-1.9l4.9,-2.1l7.3,-3.2c2.8,-1.2,4,-4,4,-4l1.2,-2.8l5.6,-.1l5.1,-4.1c2.3,-1.9,5.4,-1.9,5.4,-1.9h2.4c1.6,0,2.7,1,2.7,1l4.2,4l4.9,-1c.2,-.1,.4,-.1,.6,-.1c1.2,0,2,.8,2,.8l3.3,3l4,7.7c1.4,2.7,1.4,5.7,1.4,5.7l-.1,6.9c0,1.5,-1.3,2.2,-1.3,2.2l-8.4,4.3l-4,1.4l-8.4,4.5c-4,2.2,-8.6,2.7,-8.6,2.7l-6.8,.8l-6.1,.9c-.5,.1,-.9,.1,-1.4,.1Z"/></clipPath>
<clipPath id="cf_135"><path d="M579.1,708.3c-2.5,0,-4.5,-.9,-4.5,-.9l-4,-1.9l-5.5,-.9l-4.7,-4.3c-1.2,-1.1,-1.1,-2.6,-1.1,-2.6v-7c.1,-1.5,.9,-2.8,.9,-2.8l2.7,-4.5c.8,-1.3,2.2,-1.9,2.2,-1.9l5,-2.1l7.3,-3.1c2.8,-1.2,3.9,-4,3.9,-4l1.2,-2.8l5.7,-.1l5,-4.1c2.4,-2,5.4,-2,5.4,-2h2.5c1.5,0,2.6,1.1,2.6,1.1l4.3,4l4.9,-1.1c.2,0,.4,0,.5,0c1.2,0,2.1,.7,2.1,.7l3.2,3l4,7.7c1.5,2.7,1.4,5.8,1.4,5.8v6.8c0,1.6,-1.4,2.3,-1.4,2.3l-8.3,4.3l-4.1,1.3l-8.3,4.6c-4.1,2.1,-8.6,2.7,-8.6,2.7l-6.9,.8l-6.1,.9c-.4,.1,-.9,.1,-1.3,.1Z"/></clipPath>
<clipPath id="cg_135"><path d="M517.6,737.6c-2.4,0,-4.4,-1,-4.4,-1l-4,-1.8l-5.6,-.9l-4.7,-4.3c-1.1,-1.1,-1.1,-2.6,-1.1,-2.6l.1,-7c0,-1.5,.8,-2.8,.8,-2.8l2.8,-4.5c.8,-1.3,2.2,-1.9,2.2,-1.9l4.9,-2.1l7.3,-3.1c2.8,-1.2,4,-4,4,-4l1.2,-2.8l5.6,-.1l5.1,-4.2c2.3,-1.9,5.4,-1.9,5.4,-1.9h2.4c1.6,0,2.7,1.1,2.7,1.1l4.2,3.9l4.9,-1c.2,0,.4,0,.6,0c1.2,0,2,.7,2,.7l3.3,3l4,7.7c1.4,2.7,1.4,5.8,1.4,5.8l-.1,6.8c0,1.5,-1.3,2.2,-1.3,2.2l-8.4,4.4l-4,1.3l-8.4,4.6c-4,2.1,-8.6,2.7,-8.6,2.7l-6.8,.8l-6.1,.9c-.5,0,-.9,.1,-1.4,.1Z"/></clipPath>
<style type="text/css"><![CDATA[
.g0_135{
fill: #FEFCF4;
}
.g1_135{
fill: #59816A;
}
.g2_135{
fill: #FFF;
}
.g3_135{
fill: none;
stroke: #FFF;
stroke-width: 2.381;
}
.g4_135{
fill: none;
stroke: #231F20;
stroke-width: 1.527;
}
.g5_135{
fill: none;
stroke: #6381B7;
stroke-width: 0.763;
}
.g6_135{
fill: #6381B7;
}
.g7_135{
fill: none;
stroke: #6381B7;
stroke-width: 0.381;
stroke-dasharray: 2,1;
}
.g8_135{
fill: none;
stroke: #6381B7;
stroke-width: 0.381;
}
.g9_135{
fill: #FEF8F8;
}
.ga_135{
fill: none;
stroke: #A164A9;
stroke-width: 1.527;
stroke-linecap: round;
stroke-linejoin: round;
stroke-dasharray: 0,5;
}
.gb_135{
fill: none;
stroke: #A164A9;
stroke-width: 1.527;
stroke-linecap: round;
stroke-linejoin: round;
}
.gc_135{
fill: #A164A9;
}
.gd_135{
fill: none;
stroke: #FFF79A;
stroke-width: 1.527;
}
.ge_135{
fill: none;
stroke: #FFF;
stroke-width: 1.909;
stroke-miterlimit: 10;
}
.gf_135{
fill: none;
stroke: #000;
stroke-width: 0.381;
stroke-miterlimit: 10;
}
]]></style>
</defs>
<path d="M45.1,1344.3H967.5V32.1H45.1V1344.3Z" class="g0_135"/>
<g clip-path="url(#c0_135)">
<path d="M-877.3,1344.3H45.1V32.1H-877.3V1344.3Z" class="g0_135"/>
<path d="M867.9,163c0,0,30.3,0,30.3,-30.3v-4.4c0,0,0,-30.3,-30.3,-30.3H-746.6c0,0,-30.3,0,-30.3,30.3v4.4c0,0,0,30.3,30.3,30.3Z" class="g1_135"/>
</g>
<image clip-path="url(#c1_135)" preserveAspectRatio="none" x="147" y="212" width="731" height="229" xlink:href="img/1.png"/>
<path d="M170.7,218.3c0,0,-17.4,0,-17.4,17.3V413.2c0,0,0,17.3,17.4,17.3H850.6c0,0,17.3,0,17.3,-17.3V235.6c0,0,0,-17.3,-17.3,-17.3Z" class="g2_135"/>
<path d="M303.3,239.6C301.7,237.9,300,237,298.2,237c-.6,0,-1.3,.3,-2.1,.9c-.7,.6,-1.1,1.2,-1.1,1.9c0,.3,.1,.5,.3,.7l.6,.6h-2.2l.8,.8h1.3V250l.8,.9v-9h1.5l-.9,-.8h-.9l-.3,-.8c0,-.6,.4,-1.2,1.1,-1.7c.7,-.4,1.3,-.6,1.9,-.6c.5,0,.9,0,1.3,.1c.4,.1,.8,.3,1.1,.5c.5,.2,.8,.5,1.2,.7c.3,.3,.6,.5,.8,.7l-.1,-.4Zm3.5,2.3l-.8,-.8h-9.2l.9,.8h6.8v2.4c-.4,-1,-.9,-1.4,-1.6,-1.4c-.2,0,-.4,.1,-.7,.3c-.2,.2,-.3,.5,-.3,.8c-.6,-.8,-1.2,-1.2,-1.9,-1.2c-.6,0,-1,.3,-1.4,.8c-.3,.5,-.4,1.1,-.4,1.7c0,.3,0,.7,.1,1c.1,.3,.3,.5,.5,.8c.2,.2,.5,.3,.8,.5c.3,.1,.6,.1,1,.1c.4,0,.7,-.1,1,-.3c.2,-.3,.3,-.5,.3,-.9c0,-.8,-.4,-1.2,-1.1,-1.2c-.3,0,-.5,.1,-.7,.2c-.2,.2,-.3,.5,-.3,.7c0,.2,.1,.4,.3,.7c-.8,-.1,-1.2,-.5,-1.2,-1.2c0,-.2,0,-.4,.1,-.6c.1,-.2,.2,-.4,.4,-.5c.1,-.2,.3,-.3,.5,-.4c.2,-.1,.4,-.1,.6,-.1c.4,0,.9,.1,1.2,.4c.4,.3,.6,.7,.7,1.2l.3,-.2c0,-.2,-.1,-.4,-.1,-.5c0,-.6,.3,-.9,.8,-.9c.2,0,.5,.1,.7,.3c.2,.3,.3,.5,.3,.9v4.8l.9,.9v-9.1h1.5Zm4.2,-.8h-5.5l.8,.8H309c-1.1,1.4,-1.7,2.9,-1.7,4.4c0,1.1,.2,2,.6,2.8c.5,1,1.3,1.5,2.3,1.5c.2,0,.3,0,.5,-.1c.2,-.1,.4,-.2,.5,-.3c.1,-.1,.3,-.3,.3,-.4c.1,-.2,.2,-.4,.2,-.6c0,-.4,-.1,-.7,-.3,-.9c-.2,-.2,-.5,-.3,-.8,-.3c-.2,0,-.4,.1,-.7,.2c-.2,.2,-.3,.5,-.3,.7c0,.2,.1,.4,.1,.5c.1,.2,.3,.3,.5,.4c-.6,.2,-1.1,-.1,-1.6,-.9c-.3,-.5,-.5,-1,-.5,-1.6c0,-.7,.1,-1.3,.2,-1.9c.2,-.6,.4,-1.1,.7,-1.5c.3,-.5,.7,-.9,1.2,-1.2c.4,-.4,.9,-.6,1.6,-.8l-.8,-.8Zm9.3,.8l-.8,-.8h-8.9c.2,.2,.4,.5,.6,.6c.2,.2,.3,.3,.4,.4c.2,.1,.4,.3,.6,.4c.2,.1,.4,.2,.6,.2c.3,.1,.6,.2,.9,.2c.2,.1,.4,.2,.5,.3c.2,.1,.3,.3,.4,.6c.1,.2,.1,.5,.2,.9c-.3,.4,-.5,.7,-.7,.9c-.2,.3,-.3,.4,-.4,.6c-.2,.1,-.2,.2,-.3,.2q-.1,.1,-.2,.1c-.1,0,-.2,-.1,-.3,-.1c-.1,-.1,-.2,-.2,-.3,-.3c0,-.2,-.1,-.3,-.1,-.4c-.1,-.2,-.1,-.3,-.1,-.4l-.6,.5c.1,.2,.2,.4,.3,.7c.2,.2,.3,.4,.5,.6c.1,.2,.3,.3,.5,.5c.2,.1,.4,.1,.7,.1c.1,0,.2,0,.3,0c.1,-.1,.2,-.1,.4,-.3c.1,-.1,.3,-.3,.5,-.6c.2,-.3,.4,-.7,.7,-1.2c.3,-.4,.6,-.7,.9,-.7c.3,-.1,.5,0,.7,.3c.2,.2,.4,.6,.5,1.1c.2,.5,.2,1.1,.2,1.8v.3c0,0,0,.2,0,.3c0,.1,0,.3,0,.5c0,.2,0,.5,0,.8c.1,.1,.2,.3,.4,.5c.1,.1,.2,.3,.4,.4v-9h1.5Zm-2.3,3c-.3,-.4,-.5,-.6,-.7,-.8c-.2,-.3,-.4,-.4,-.6,-.5c-.2,-.1,-.4,-.1,-.7,0c-.2,.1,-.5,.3,-.7,.6c0,-.4,-.1,-.8,-.3,-1.1c-.2,-.4,-.5,-.8,-.9,-1.2H318v3Zm10.6,-5.3c-1.6,-1.7,-3.2,-2.6,-5,-2.6c-.7,0,-1.4,.3,-2.1,.9c-.8,.6,-1.1,1.2,-1.1,1.9c0,.3,.1,.5,.3,.7l.6,.6h-2.2l.8,.8h1.2V250l.9,.9v-9h1.4l-.8,-.8h-.9l-.3,-.8c0,-.6,.4,-1.2,1.1,-1.7c.7,-.4,1.3,-.6,1.9,-.6c.4,0,.8,0,1.2,.1c.4,.1,.8,.3,1.2,.5c.4,.2,.8,.5,1.1,.7c.3,.3,.6,.5,.9,.7l-.2,-.4Zm2.6,2.3l-.8,-.8h-8.1l.8,.8h5.8v4.8c-.9,-1.9,-1.9,-2.9,-3.1,-2.9c-.5,0,-1,.2,-1.4,.6c-.4,.4,-.6,.9,-.6,1.4c0,1.1,.5,1.7,1.6,1.7c.3,0,.6,-.2,.8,-.4c.2,-.3,.3,-.6,.3,-.9c0,-.3,-.2,-.6,-.5,-1.1c0,-.1,.1,-.1,.2,-.1c.9,0,1.7,.6,2.3,1.8c.5,1,.7,2,.7,3l-.1,.9l.7,.4v-9.2h1.4Zm3.6,0c-.3,-.4,-.8,-.6,-1.3,-.6c-.5,0,-.9,.2,-1.3,.6c-.2,.2,-.3,.4,-.4,.6c-.1,.3,-.2,.5,-.2,.8c0,.5,.2,1,.6,1.4c.4,.4,.8,.6,1.4,.6c.5,0,.9,-.2,1.2,-.6c.4,-.4,.6,-.9,.6,-1.4c0,-.5,-.2,-1,-.6,-1.4Zm-.7,2.1c-.3,.3,-.7,.5,-1.1,.5c-.3,0,-.5,-.2,-.5,-.7c0,-.2,0,-.4,.1,-.6c.1,-.2,.2,-.4,.3,-.5c.3,-.4,.7,-.6,1.1,-.6c.4,0,.6,.3,.6,.8c0,.4,-.2,.8,-.5,1.1Zm1.9,6.3c-.5,-.8,-1.2,-1.6,-2,-2.4c-.8,-.9,-1.5,-1.6,-2.2,-2.2v2c.3,.1,.7,.4,1,.6c.4,.3,.7,.5,1.1,.8c.4,.3,.7,.6,1.1,.9c.3,.3,.7,.6,1,.9v-.6Zm14.1,-10.7c-1.6,-1.7,-3.3,-2.6,-5,-2.6c-.7,0,-1.4,.3,-2.1,.9c-.8,.6,-1.2,1.2,-1.2,1.9c0,.3,.1,.5,.4,.7l.5,.6h-2.2l.8,.8h1.3V250l.8,.9v-9h1.5l-.9,-.8h-.9l-.3,-.8c.1,-.6,.4,-1.2,1.2,-1.7c.6,-.4,1.2,-.6,1.9,-.6c.4,0,.8,0,1.2,.1c.4,.1,.8,.3,1.2,.5c.4,.2,.8,.5,1.1,.7c.3,.3,.6,.5,.9,.7l-.2,-.4Zm2.9,6.7c0,-.6,-.1,-1,-.2,-1.3c-.2,-.4,-.4,-.6,-.7,-.7c.3,-.3,.4,-.7,.4,-1.3c0,-.5,-.1,-.8,-.4,-1.1h4.6l-.9,-.8H343.7l.8,.8h3.2c0,.4,-.1,.9,-.3,1.3c-.3,.5,-.6,.7,-.9,.7l-.8,-.6l-.4,.7l.7,.7c.2,.1,.3,.2,.5,.3c.1,.1,.3,.1,.4,.1c.4,0,.8,-.3,1.1,-.9c.2,-.2,.3,-.5,.4,-.7c.1,-.2,.2,-.5,.3,-.7c0,.3,.1,.6,.3,.9c.2,.3,.4,.6,.8,.8c0,.1,.1,.1,.1,.1c.1,0,.1,.1,.1,.1c.1,0,.2,0,.2,.1c-.1,0,-.3,.1,-.4,.3c-.1,.1,-.2,.2,-.3,.4c-.1,.1,-.2,.3,-.3,.5c0,.1,-.1,.3,-.1,.5c-.1,.1,-.1,.3,-.1,.5c0,.2,0,.4,.1,.5c.1,.2,.2,.3,.3,.4c.1,.2,.3,.3,.4,.3c.2,.1,.4,.1,.5,.1c.3,0,.5,-.1,.7,-.3c.2,-.2,.3,-.4,.3,-.6c0,-.2,-.1,-.4,-.2,-.6c-.2,-.1,-.4,-.2,-.6,-.2h-.1c0,0,-.1,0,-.2,0c.3,-1,.7,-1.5,1.4,-1.5c.4,0,.5,.2,.5,.4v4.2c-.2,-.1,-.5,-.3,-.7,-.4c-.3,-.1,-.6,-.2,-1,-.2h-1.2c-.8,0,-1.3,-.1,-1.6,-.4c-.3,-.3,-.5,-.7,-.5,-1.3c0,-.1,0,-.2,0,-.3q0,-.1,0,-.2c0,-.1,.1,-.2,.1,-.3c0,-.1,0,-.2,.1,-.3l-.4,-.4c-.1,.4,-.2,.7,-.3,1c0,.3,0,.6,0,.8c0,.3,0,.7,.1,1c.1,.3,.2,.6,.4,.8c.2,.3,.5,.5,.7,.6c.3,.2,.6,.3,.9,.3c.2,0,.3,0,.5,-.1c.3,0,.5,0,.8,0c.3,-.1,.5,-.1,.7,-.1c.3,0,.4,0,.6,0c.4,0,.7,.1,.9,.4c.1,.1,.3,.4,.5,1v-.1l.3,.3v-4.1c.2,-1.1,.7,-1.6,1.4,-1.6c.2,0,.5,.2,.7,.7c-.1,0,-.1,-.1,-.2,-.1c0,0,-.1,0,-.1,0c-.7,0,-1,.3,-1.1,.9c0,.2,.1,.4,.3,.5c.2,.2,.4,.3,.6,.3c.9,-.1,1.3,-.6,1.3,-1.6c0,-.2,0,-.3,-.1,-.5c-.1,-.2,-.2,-.4,-.3,-.5c-.1,-.1,-.2,-.3,-.4,-.3c-.1,-.1,-.3,-.2,-.5,-.2c-.7,0,-1.2,.4,-1.6,1Zm-3.9,-4.4h2.1l.3,.1c.2,.3,.3,.6,.3,.9c0,.5,-.4,.8,-1.2,.8c-.4,0,-.8,-.2,-1.1,-.5c-.3,-.4,-.4,-.8,-.4,-1.3Zm18.7,-.8h-1.3c.1,-.8,-.1,-1.4,-.7,-1.9c-.4,-.4,-1.1,-.6,-1.9,-.6c-.2,0,-.7,0,-1.3,.1c-.2,0,-.5,0,-.7,0c-.2,.1,-.4,.1,-.5,.1c-.4,0,-.7,-.1,-.9,-.3c-.3,-.1,-.5,-.4,-.5,-.7c0,-.1,0,-.2,.1,-.3c0,-.1,.1,-.1,.1,-.2V237c-.2,0,-.4,.1,-.5,.4c-.1,.2,-.1,.4,-.1,.6c0,.6,.3,1.1,.9,1.5c.5,.3,1.1,.4,1.7,.4c.1,0,.3,0,.5,0c.2,0,.5,0,.7,0c.3,-.1,.5,-.1,.7,-.1c.2,0,.4,0,.5,0c.2,0,.3,0,.5,.1c.1,0,.3,0,.4,.1c.2,.2,.4,.4,.4,.7c0,0,-.1,.2,-.1,.4h-3.7v2.7c-.1,-.2,-.3,-.5,-.5,-.7c-.1,-.2,-.3,-.4,-.5,-.7c-.6,-.5,-1.2,-.8,-1.8,-.8c-.3,0,-.6,0,-.9,.1c-.3,.1,-.6,.2,-.9,.4c-.7,.4,-1,.9,-1,1.4c0,.2,0,.3,.1,.5c.2,.2,.3,.2,.4,.2c.2,0,.4,0,.7,-.1c.2,-.2,.4,-.2,.6,-.2c.3,0,.5,.2,.5,.5c0,.2,-.2,.4,-.5,.7l-.6,.6l1.2,.4c.4,-.4,.8,-.8,1.2,-1.2c.5,-.4,.9,-.9,1.3,-1.2c.1,.2,.3,.4,.4,.6c.1,.2,.2,.3,.3,.5v2.1c0,2.1,.6,3.1,1.6,3.1c.4,0,.7,-.2,1.1,-.5c.4,-.3,.8,-.6,1.1,-1.1c.4,-.4,.6,-.9,.8,-1.4c.2,-.4,.3,-.9,.3,-1.2c0,-.5,-.2,-.9,-.4,-1.3c-.3,-.3,-.6,-.5,-1,-.5c-.4,0,-.7,.2,-.9,.4c-.2,.2,-.3,.5,-.3,.8c0,.3,.1,.5,.3,.7c.3,.2,.5,.3,.8,.3h.3c-.1,.4,-.4,1,-.9,1.6c-.6,.7,-1.1,1.1,-1.5,1.1c-.3,0,-.5,-.2,-.5,-.7v-6.3h5.7l-.8,-.8Zm-8.6,3.3c0,-.2,0,-.4,-.1,-.5c0,-.2,-.1,-.3,-.2,-.4c-.1,-.1,-.2,-.2,-.4,-.3c-.1,0,-.3,-.1,-.5,-.1c.3,-.5,.8,-.7,1.6,-.7q.1,0,.2,0c.1,.1,.3,.1,.4,.1c.2,.1,.4,.2,.5,.4l-1.5,1.5Z" class="g3_135"/>
<path d="M197,246c0,0,-.5,-9.9,8.7,-9.3c0,0,6.7,-.4,6.7,9.5M197,244.7v6.5c0,0,-3.4,.3,-3.9,-3c0,0,-.1,-3.8,3.9,-3.5Zm15.4,0v6.5c0,0,3.4,.3,3.9,-3c0,0,.1,-3.8,-3.9,-3.5Z" class="g4_135"/>
<path d="M185.8,261.3H835.4" class="g5_135"/>
<path d="M625.8,449.5c0,0,-4.4,0,-4.4,4.4v10.8c0,0,0,4.3,4.4,4.3h30.3c0,0,4.3,0,4.3,-4.3V453.9c0,0,0,-4.4,-4.3,-4.4Z" class="g6_135"/>
<path d="M612.6,440.7v37.6m1.3,.9H866.8m.9,-1.3V440.3m-1.3,-.9H613.5" class="g7_135"/>
<path d="M612.6,478.6v.6h.6m254,0h.5v-.6m0,-38.7v-.5h-.5m-254,0h-.6v.5" class="g8_135"/>
<path d="M744.7,1203.8c0,0,-4.4,0,-4.4,4.3v10.8c0,0,0,4.4,4.4,4.4H775c0,0,4.3,0,4.3,-4.4v-10.8c0,0,0,-4.3,-4.3,-4.3Z" class="g6_135"/>
<path d="M731.5,1194.7v38m1.3,1h134m.9,-1.4v-38m-1.3,-.9H732.5" class="g7_135"/>
<path d="M731.5,1233.1v.6h.6m135,0h.6v-.6m0,-39.1v-.6h-.6m-135,0h-.6v.6" class="g8_135"/>
<image clip-path="url(#c2_135)" preserveAspectRatio="none" x="147" y="1049" width="731" height="146" xlink:href="img/2.png"/>
<path d="M170.7,1054.8c0,0,-17.4,0,-17.4,17.3v95.3c0,0,0,17.3,17.4,17.3H850.6c0,0,17.3,0,17.3,-17.3v-95.3c0,0,0,-17.3,-17.3,-17.3Z" class="g2_135"/>
<path d="M369.1,1078.4l-.8,-.8h-8.2l.8,.8h5.7v.7c-1.8,.6,-3.5,1.5,-5.1,2.7l1.1,1.5c1.1,.2,2.1,.6,2.8,1.2c.2,.2,.4,.5,.6,.8c.2,.2,.4,.5,.5,.8c.2,.2,.3,.4,.3,.5c0,.1,.1,.2,.1,.3l.5,.5v-9h1.7Zm-2.5,6.8c-.8,-1.3,-1.9,-2.3,-3.4,-3c.6,-.4,1.2,-.7,1.7,-1c.6,-.3,1.1,-.5,1.7,-.7v4.7Zm10.6,-9.1c-1.6,-1.7,-3.3,-2.6,-5.1,-2.6c-.6,0,-1.3,.3,-2.1,.9c-.7,.6,-1.1,1.2,-1.1,1.9c0,.3,.1,.5,.3,.7l.6,.6h-2.2l.8,.8h1.3v8.1l.8,.9v-9H372l-.9,-.8h-.9l-.3,-.8c0,-.6,.4,-1.2,1.1,-1.7c.7,-.4,1.3,-.6,1.9,-.6c.5,0,.9,0,1.3,.1c.4,.1,.8,.3,1.1,.5c.5,.2,.8,.5,1.2,.7c.3,.3,.6,.5,.8,.7l-.1,-.4Zm2.5,2.3l-.8,-.8h-1.6v1.2c-1.4,.8,-2.2,1.3,-2.3,1.3c-.3,0,-.7,-.1,-.9,-.3c-.2,-.2,-.3,-.4,-.3,-.7c0,-.2,0,-.3,.1,-.5c.1,.2,.2,.2,.3,.3c.1,0,.2,0,.3,0c.3,0,.4,0,.5,-.2c.2,-.1,.2,-.3,.2,-.5c0,-.5,-.3,-.7,-1,-.7c-.4,0,-.7,.1,-1,.4c-.3,.2,-.4,.6,-.4,1c0,.2,0,.4,.1,.6c.1,.2,.3,.4,.4,.5c.4,.3,.8,.4,1.3,.4l-2.2,1.7l1,1.4c.5,0,.9,.1,1.3,.3c.3,.1,.7,.2,1,.4c.4,.4,.8,.9,1.3,1.6c.1,.2,.2,.4,.4,.6c.1,.2,.2,.4,.3,.6v-.1l.5,.7v-9.2h1.5Zm-2.4,6.8c-.7,-1.2,-1.7,-2.2,-3.1,-2.8c.6,-.5,1.1,-.9,1.6,-1.3c.5,-.3,1,-.6,1.5,-.8v4.9Zm3.7,-12h-.7l-4.8,3.6h1.9l3.6,-3.6Zm7.4,4.4h-9.9l.9,.8h9.8l-.8,-.8Zm-.4,4c-.2,-.5,-.4,-.9,-.7,-1.2c-.3,-.4,-.6,-.6,-1,-.8c-.4,-.2,-.8,-.3,-1.3,-.3c-.5,0,-1,.1,-1.3,.4c-.5,.4,-.7,.8,-.7,1.4c0,.4,.2,.8,.4,1.2c.3,.3,.6,.4,1.1,.4c.8,0,1.3,-.4,1.3,-1.2c0,-.4,-.1,-.7,-.4,-1c.3,-.1,.5,-.1,.6,-.1c.5,0,.8,.2,1.1,.6c.3,.4,.4,.8,.4,1.3c0,.6,-.2,1.1,-.7,1.6c-.6,.5,-1.1,.7,-1.7,.7c-1.2,0,-2.3,-.6,-3.1,-1.9c-.2,-.3,-.4,-.7,-.7,-1.3c-.3,-.6,-.6,-1.4,-1,-2.2l-.5,-.2c1.3,4.7,3,7,5.2,7c.9,0,1.6,-.3,2.2,-.9c.3,-.3,.6,-.6,.7,-1c.2,-.3,.3,-.7,.3,-1.2c0,-.4,-.1,-.9,-.2,-1.3Zm15.9,-4H393.4l.8,.8h8.2v5.9l-1.1,-1c.1,-.5,.2,-.9,.2,-1.3c0,-.6,-.1,-1.2,-.4,-1.7c-.2,-.3,-.5,-.6,-.8,-.8c-.2,-.2,-.5,-.4,-.9,-.5c-.2,-.1,-.4,-.1,-.6,-.1c-.5,0,-.9,.1,-1.4,.5c-.2,.1,-.3,.3,-.5,.5c-.1,.2,-.1,.5,-.1,.7c0,.2,0,.5,.1,.6c.2,.4,.5,.5,.9,.6c.4,.1,.7,0,1,-.2c.1,-.2,.3,-.3,.4,-.5c.1,-.1,.1,-.3,.1,-.5c0,-.2,-.1,-.5,-.2,-.7c.1,-.1,.3,-.1,.5,-.1c.1,.1,.3,.2,.5,.3c.1,.1,.2,.3,.3,.5c.2,.2,.3,.4,.3,.7c.1,.1,.1,.3,.1,.4c0,.4,-.1,.8,-.3,1.3c-.4,.5,-1,.8,-2,.8c-.4,0,-.8,-.1,-1.1,-.3c-.4,-.2,-.8,-.5,-1.1,-1c-.3,-.4,-.6,-.9,-.8,-1.4c-.2,-.6,-.4,-1.2,-.6,-1.9l-.5,-.3c.1,.8,.2,1.5,.4,2.1c.2,.6,.4,1.2,.7,1.7c.2,.3,.4,.7,.7,1c.2,.3,.5,.6,.8,.8c.3,.2,.6,.4,.8,.5c.3,.2,.6,.2,.9,.2c.5,0,.9,-.1,1.3,-.3c.4,-.2,.7,-.5,.9,-.8c1,.6,1.7,1.7,2,3.2l.3,.2v-9.1h1.6l-.9,-.8Zm8.7,.8l-.9,-.8h-8.1l.9,.8h5.8v4.8c-.9,-1.9,-1.9,-2.9,-3.1,-2.9c-.6,0,-1,.2,-1.5,.6c-.4,.4,-.6,.9,-.6,1.4c0,1.1,.6,1.7,1.6,1.7c.4,0,.7,-.2,.9,-.4c.2,-.3,.3,-.6,.3,-.9c0,-.3,-.2,-.6,-.6,-1.1c.1,-.1,.2,-.1,.3,-.1c.9,0,1.6,.6,2.3,1.8c.4,1,.6,2,.6,3v.9l.6,.4v-9.2h1.5Zm.3,12.1c0,-.2,-.1,-.3,-.2,-.4c-.1,-.1,-.2,-.3,-.3,-.5c-.2,-.2,-.5,-.5,-.7,-.7c-.2,-.2,-.4,-.4,-.7,-.6c.1,-.3,.1,-.6,.1,-.9c-.1,-.3,-.1,-.6,-.2,-.8l-.7,-.5c0,.4,.1,.7,.1,1c0,.3,0,.5,-.1,.7c-.5,-.3,-.9,-.5,-1.2,-.5c-.2,0,-.4,.1,-.6,.1c-.2,.1,-.3,.2,-.5,.3c-.1,.1,-.2,.3,-.3,.5c-.1,.1,-.1,.3,-.1,.5c0,.4,.1,.7,.5,1c.3,.2,.7,.3,1.1,.3c.7,0,1.2,-.4,1.7,-1c.1,.1,.3,.2,.5,.4c.2,.2,.4,.3,.6,.5c.2,.2,.4,.4,.5,.6c.2,.2,.4,.4,.5,.6v-.6Zm-3.3,-2.2c.1,0,.2,.1,.3,.2c0,.2,-.2,.4,-.4,.5c-.3,.1,-.5,.2,-.8,.1c-.2,0,-.4,-.2,-.4,-.4c0,-.4,.3,-.5,.9,-.5c.1,0,.3,0,.4,.1Zm11.9,-9.9l-.9,-.8c-.4,-.1,-.7,-.4,-.8,-1.1l-.5,-.4l.1,3.7c-.1,-.3,-.4,-.8,-.9,-1.3c-.5,-.6,-.9,-.9,-1.2,-.9c-.8,0,-1.5,.5,-2,1.7c-.1,-.5,-.4,-.9,-.8,-1.2c-.3,-.4,-.8,-.5,-1.2,-.5h-1.8l.9,.8c.1,0,.4,0,.9,0c.5,0,1,.4,1.4,1.1c-.2,.1,-.4,.2,-.6,.3c-.1,.2,-.3,.3,-.4,.5c-.2,.2,-.3,.3,-.3,.5c-.1,.2,-.1,.4,-.1,.6c0,.4,0,.6,.2,.9c.2,.2,.5,.4,.8,.4c.6,0,1.1,-.4,1.3,-1.1c.1,.3,.3,.6,.5,.8c.3,.1,.5,.2,.8,.3c.4,-.1,.6,-.3,.8,-.5c.2,-.2,.3,-.5,.3,-.9c0,-.4,-.4,-1,-1.3,-1.6c0,-.2,.1,-.4,.3,-.5c.2,-.1,.4,-.2,.7,-.2c.3,0,.6,.2,1,.8c.4,.5,.6,.9,.6,1.3l-.1,5.5l.9,.8v-9h1.4Zm3.3,0l-.8,-.8h-.8c-.8,-3,-2.6,-4.5,-5.3,-4.5c-.3,0,-.6,0,-.9,.1c-.4,.1,-.7,.2,-1,.3c-.4,.1,-.7,.3,-.9,.6c-.2,.2,-.3,.4,-.3,.7c0,.3,.1,.6,.3,.8c.3,.2,.6,.4,.9,.5c.1,0,.4,.1,.8,.1c.3,.1,.9,.2,1.5,.2c.8,.1,1.3,.3,1.3,.7c0,.2,-.2,.4,-.4,.6h.8c.1,-.3,.1,-.5,.1,-.5c0,-.5,-.1,-.8,-.3,-1.1c-.2,-.2,-.6,-.4,-1,-.6c-.4,-.1,-1.2,-.1,-2.3,-.2c-.8,-.1,-1.3,-.2,-1.3,-.5c0,-.3,.4,-.5,1,-.7c.3,0,.5,-.1,.7,-.1c.3,0,.5,0,.7,0c2.8,0,4.4,1.2,4.8,3.6h-2.2l.9,.8h1.3v8.1l.8,.9v-9h1.6Zm8.6,0l-.8,-.8h-9.2l.8,.8H431v2.4c-.3,-1,-.8,-1.4,-1.5,-1.4c-.2,0,-.5,.1,-.7,.3c-.2,.2,-.3,.5,-.3,.8c-.6,-.8,-1.2,-1.2,-1.9,-1.2c-.6,0,-1.1,.3,-1.4,.8c-.3,.5,-.5,1.1,-.5,1.7c0,.3,.1,.7,.2,1c.1,.3,.3,.5,.5,.8c.2,.2,.5,.3,.8,.5c.3,.1,.6,.1,.9,.1c.5,0,.8,-.1,1,-.3c.3,-.3,.4,-.5,.4,-.9c0,-.8,-.4,-1.2,-1.2,-1.2c-.2,0,-.4,.1,-.6,.3c-.2,.1,-.3,.4,-.3,.6c0,.2,.1,.4,.3,.7c-.8,-.1,-1.2,-.5,-1.2,-1.2c0,-.2,0,-.4,.1,-.6c.1,-.2,.2,-.4,.3,-.5c.2,-.2,.4,-.3,.5,-.4c.2,-.1,.4,-.1,.6,-.1c.5,0,.9,.1,1.3,.4c.3,.3,.6,.7,.6,1.2l.4,-.2c-.1,-.2,-.1,-.4,-.1,-.5c0,-.6,.2,-.9,.7,-.9c.3,0,.6,.1,.8,.4c.2,.2,.3,.4,.3,.8v4.8l.9,.9v-9.1h1.5Zm4.1,-.8H432l.9,.8h2.7c-1.2,1.5,-1.8,2.9,-1.8,4.4c0,1.1,.3,2,.7,2.8c.5,1,1.3,1.5,2.2,1.5c.2,0,.4,0,.6,-.1c.2,-.1,.3,-.2,.5,-.3c.1,-.1,.2,-.3,.3,-.4c.1,-.2,.1,-.4,.1,-.6c0,-.4,-.1,-.7,-.3,-.9c-.2,-.2,-.4,-.3,-.7,-.3c-.2,0,-.5,.1,-.7,.2c-.2,.2,-.3,.5,-.3,.7c0,.2,0,.4,.1,.5c.1,.2,.2,.3,.4,.5c-.5,.1,-1,-.2,-1.5,-1c-.3,-.5,-.5,-1,-.5,-1.6c0,-.7,.1,-1.3,.2,-1.9c.2,-.6,.4,-1.1,.7,-1.5c.3,-.5,.7,-.9,1.1,-1.2c.5,-.4,1,-.6,1.6,-.8l-.8,-.8Zm8.5,.8l-.9,-.8H437l.8,.8h5.9v4.8h-.1c-.8,-1.9,-1.9,-2.9,-3,-2.9c-.6,0,-1.1,.2,-1.5,.6c-.4,.4,-.6,.9,-.6,1.4c0,1.1,.6,1.7,1.6,1.7c.4,0,.6,-.2,.8,-.4c.3,-.3,.4,-.6,.4,-.9c0,-.3,-.2,-.6,-.6,-1.1q.1,-.1,.2,-.1c.9,0,1.7,.6,2.4,1.8c.4,1,.6,2,.6,3v.9l.6,.4v-9.2H446Zm7.8,0l-.8,-.8h-8.2l.8,.8h5.7v.7c-1.8,.6,-3.5,1.5,-5.1,2.7l1.1,1.5c1.1,.2,2.1,.6,2.8,1.2c.2,.2,.4,.5,.6,.8c.3,.2,.4,.5,.5,.7c.1,.2,.3,.5,.4,.9l.5,.5v-9h1.7Zm-2.5,6.8c-.8,-1.3,-1.9,-2.3,-3.4,-3c.6,-.4,1.2,-.7,1.8,-1c.5,-.3,1,-.5,1.6,-.7v4.7Zm-3.3,1.2c.2,.2,.4,.3,.6,.3c.3,0,.5,-.1,.6,-.3c.2,-.2,.3,-.4,.3,-.6c0,-.3,-.1,-.5,-.3,-.7c-.1,-.1,-.3,-.2,-.6,-.2c-.2,0,-.4,.1,-.6,.2c-.2,.2,-.2,.4,-.2,.7c0,.2,0,.4,.2,.6Zm19.4,-10.3c-1.6,-1.7,-3.3,-2.6,-5.1,-2.6c-.7,0,-1.4,.3,-2.1,.9c-.7,.6,-1.1,1.2,-1.1,1.9c0,.3,.1,.5,.3,.7l.6,.6h-2.2l.8,.8h1.3v8.1l.8,.9v-9h1.5l-.9,-.8h-.9l-.3,-.8c0,-.6,.4,-1.2,1.1,-1.7c.7,-.4,1.3,-.6,1.9,-.6c.5,0,.9,0,1.3,.1c.4,.1,.8,.3,1.1,.5c.4,.2,.8,.5,1.1,.7c.4,.3,.7,.5,.9,.7l-.1,-.4Zm3.5,2.3l-.8,-.8h-9.2l.9,.8h6.8v2.4c-.4,-1,-.9,-1.4,-1.6,-1.4c-.2,0,-.4,.1,-.7,.3c-.2,.2,-.3,.5,-.3,.8c-.6,-.8,-1.2,-1.2,-1.9,-1.2c-.6,0,-1,.3,-1.4,.8c-.3,.5,-.5,1.1,-.5,1.7c0,.3,.1,.7,.2,1c.1,.3,.3,.5,.5,.8c.2,.2,.5,.3,.8,.5c.3,.1,.6,.1,1,.1c.4,0,.7,-.1,.9,-.3c.3,-.3,.4,-.5,.4,-.9c0,-.8,-.4,-1.2,-1.1,-1.2c-.3,0,-.5,.1,-.7,.3c-.2,.1,-.3,.4,-.3,.6c0,.2,.1,.4,.3,.7c-.8,-.1,-1.2,-.5,-1.2,-1.2c0,-.2,0,-.4,.1,-.6c.1,-.2,.2,-.4,.4,-.5c.1,-.2,.3,-.3,.5,-.4c.1,-.1,.3,-.1,.6,-.1c.4,0,.8,.1,1.2,.4c.4,.3,.6,.7,.7,1.2l.3,-.2c0,-.2,-.1,-.4,-.1,-.5c0,-.6,.3,-.9,.7,-.9c.3,0,.6,.1,.8,.4c.2,.2,.3,.4,.3,.8v4.8l.9,.9v-9.1h1.5Zm4.1,-.8h-5.5l.9,.8h2.7c-1.1,1.5,-1.7,2.9,-1.7,4.4c0,1.1,.2,2,.6,2.8c.5,1,1.3,1.5,2.2,1.5c.2,0,.4,0,.6,-.1c.2,-.1,.4,-.2,.5,-.3c.1,-.1,.2,-.3,.3,-.4c.1,-.2,.1,-.4,.1,-.6c0,-.4,-.1,-.7,-.3,-.9c-.2,-.2,-.4,-.3,-.7,-.3c-.2,0,-.5,.1,-.7,.2c-.2,.2,-.3,.5,-.3,.7c0,.2,.1,.4,.1,.5c.1,.2,.3,.3,.4,.5c-.5,.1,-1,-.2,-1.5,-1c-.3,-.5,-.5,-1,-.5,-1.6c0,-.7,.1,-1.3,.2,-1.9c.2,-.6,.4,-1.1,.7,-1.5c.3,-.5,.7,-.9,1.1,-1.2c.5,-.4,1,-.6,1.7,-.8l-.9,-.8Zm9.4,.8l-.8,-.8h-9c.3,.2,.5,.5,.7,.6c.2,.2,.3,.3,.4,.4c.2,.1,.4,.3,.6,.4c.2,.1,.4,.2,.6,.2c.3,.1,.6,.2,.8,.2c.3,.1,.5,.2,.6,.3c.2,.2,.3,.3,.4,.6c.1,.2,.1,.5,.2,.9c-.3,.4,-.5,.7,-.7,.9c-.2,.3,-.3,.4,-.5,.6c-.1,.1,-.2,.2,-.2,.2c-.1,.1,-.2,.1,-.2,.1c-.1,0,-.2,-.1,-.3,-.1c-.1,-.1,-.2,-.2,-.3,-.3c0,-.2,-.1,-.3,-.1,-.4c-.1,-.2,-.1,-.3,-.1,-.4l-.6,.5c.1,.2,.2,.4,.3,.7c.2,.2,.3,.4,.4,.6c.2,.2,.4,.3,.6,.5c.2,.1,.4,.1,.7,.1c.1,0,.2,0,.3,0c.1,0,.2,-.1,.3,-.3c.2,-.1,.4,-.3,.6,-.6c.2,-.3,.4,-.7,.7,-1.2c.3,-.4,.6,-.7,.9,-.7c.3,-.1,.5,0,.7,.3c.2,.2,.4,.6,.5,1.1c.2,.5,.2,1.1,.2,1.8v.3c0,0,0,.2,0,.3c0,.1,0,.3,0,.5c0,.2,0,.5,0,.8c.1,.2,.2,.3,.4,.5c.1,.1,.2,.3,.4,.5v-9.1h1.5Zm-2.3,3c-.3,-.3,-.5,-.6,-.7,-.8c-.2,-.3,-.4,-.4,-.6,-.5c-.2,-.1,-.4,-.1,-.7,0c-.2,.1,-.5,.3,-.7,.6c-.1,-.4,-.1,-.8,-.3,-1.1c-.2,-.4,-.5,-.8,-.9,-1.2h3.9v3Zm10.6,-5.3c-1.6,-1.7,-3.2,-2.6,-5,-2.6c-.7,0,-1.4,.3,-2.1,.9c-.8,.6,-1.1,1.2,-1.1,1.9c0,.3,.1,.5,.3,.7l.6,.6h-2.2l.8,.8h1.2v8.1l.9,.9v-9h1.4l-.8,-.8h-.9l-.4,-.8c.1,-.6,.5,-1.2,1.2,-1.7c.6,-.4,1.3,-.6,1.9,-.6c.4,0,.8,0,1.2,.1c.4,.1,.8,.3,1.2,.5c.4,.2,.8,.5,1.1,.7c.3,.3,.6,.5,.9,.7l-.2,-.4Zm2.6,2.3l-.9,-.8h-8l.8,.8H493v4.8c-.9,-1.9,-1.9,-2.9,-3.1,-2.9c-.5,0,-1,.2,-1.4,.6c-.4,.4,-.6,.9,-.6,1.4c0,1.1,.5,1.7,1.6,1.7c.3,0,.6,-.2,.8,-.4c.2,-.3,.3,-.6,.3,-.9c0,-.3,-.2,-.6,-.5,-1.1c0,-.1,.1,-.1,.2,-.1c.9,0,1.6,.6,2.3,1.8c.5,1,.7,2,.7,3l-.1,.9l.7,.4v-9.2h1.4Zm3.6,0c-.4,-.4,-.8,-.6,-1.3,-.6c-.5,0,-.9,.2,-1.3,.6c-.2,.2,-.4,.4,-.4,.6c-.1,.3,-.2,.5,-.2,.8c0,.5,.2,1,.6,1.4c.4,.4,.8,.6,1.4,.6c.5,0,.9,-.2,1.2,-.6c.4,-.4,.6,-.9,.6,-1.4c0,-.5,-.2,-1,-.6,-1.4Zm-.7,2.1c-.3,.3,-.7,.5,-1.1,.5c-.3,0,-.5,-.3,-.5,-.7c0,-.2,0,-.4,.1,-.6c.1,-.2,.2,-.4,.3,-.5c.3,-.4,.7,-.6,1.1,-.6c.4,0,.6,.3,.6,.8c0,.4,-.2,.8,-.5,1.1Zm1.9,6.3c-.5,-.8,-1.2,-1.6,-2,-2.4c-.8,-.9,-1.5,-1.6,-2.2,-2.2v2c.3,.1,.7,.4,1,.6c.4,.3,.7,.5,1.1,.8c.4,.3,.7,.6,1.1,.9c.3,.3,.7,.6,1,1v-.7Zm14.1,-10.7c-1.6,-1.7,-3.3,-2.6,-5,-2.6c-.7,0,-1.4,.3,-2.2,.9c-.7,.6,-1.1,1.2,-1.1,1.9c0,.3,.1,.5,.3,.7l.6,.6h-2.2l.8,.8h1.3v8.1l.8,.9v-9H509l-.9,-.8h-.9l-.3,-.8c0,-.6,.4,-1.2,1.1,-1.7c.7,-.4,1.3,-.6,2,-.6c.4,0,.8,0,1.2,.1c.4,.1,.8,.3,1.2,.5c.4,.2,.7,.5,1.1,.7c.3,.3,.6,.5,.9,.7l-.2,-.4Zm2.9,6.7c0,-.6,-.1,-1,-.2,-1.3c-.2,-.4,-.4,-.6,-.7,-.6c.3,-.4,.4,-.8,.4,-1.4c0,-.5,-.2,-.8,-.4,-1.1h4.5l-.8,-.8H507.8l.8,.8h3.2c0,.4,-.1,.9,-.3,1.3c-.3,.5,-.6,.7,-.9,.7l-.8,-.6l-.4,.7l.7,.7c.1,.1,.3,.2,.5,.3c.1,.1,.3,.1,.4,.1c.4,0,.8,-.3,1.1,-.9c.2,-.2,.3,-.5,.4,-.7c.1,-.2,.2,-.5,.2,-.7c.1,.3,.2,.6,.3,.9c.2,.3,.5,.6,.9,.8c0,.1,.1,.1,.1,.1c0,0,.1,.1,.1,.1q.1,0,.2,.1c-.1,0,-.3,.2,-.4,.3c-.1,.1,-.2,.2,-.3,.4c-.1,.1,-.2,.3,-.3,.5c0,.1,-.1,.3,-.1,.5c-.1,.1,-.1,.3,-.1,.5c0,.2,0,.4,.1,.5c.1,.2,.2,.3,.3,.4c.1,.2,.2,.3,.4,.3c.2,.1,.3,.1,.5,.1c.3,0,.5,-.1,.7,-.3c.2,-.2,.3,-.4,.3,-.6c0,-.2,-.1,-.4,-.2,-.6c-.2,-.1,-.4,-.2,-.6,-.2h-.1c0,0,-.1,0,-.2,0c.3,-1,.7,-1.5,1.4,-1.5c.3,0,.5,.2,.5,.4v4.2c-.2,-.1,-.5,-.3,-.8,-.4c-.3,-.1,-.6,-.2,-.9,-.2h-1.2c-.8,0,-1.3,-.1,-1.6,-.4c-.4,-.3,-.5,-.7,-.5,-1.3c0,-.1,0,-.2,0,-.3q0,-.1,0,-.2c0,-.1,.1,-.2,.1,-.3c0,-.1,0,-.2,.1,-.3l-.4,-.4c-.2,.4,-.2,.7,-.3,1c0,.3,-.1,.6,-.1,.8c0,.3,.1,.7,.2,1c.1,.3,.2,.6,.4,.8c.2,.3,.5,.5,.7,.6c.3,.2,.6,.3,.9,.3c.2,0,.3,0,.5,-.1c.2,0,.5,0,.8,0c.3,-.1,.5,-.1,.7,-.1c.2,0,.4,0,.6,0c.4,0,.7,.1,.9,.4c.1,.1,.3,.4,.5,1v-.1l.3,.3v-4.1c.2,-1,.6,-1.6,1.4,-1.6c.2,0,.5,.2,.7,.7c-.1,0,-.1,-.1,-.2,-.1c0,0,-.1,0,-.1,0c-.7,0,-1,.3,-1.1,.9c0,.2,.1,.4,.3,.5c.1,.2,.4,.3,.6,.3c.8,-.1,1.3,-.6,1.3,-1.6c0,-.2,-.1,-.3,-.1,-.5c-.1,-.2,-.2,-.4,-.3,-.5c-.1,-.1,-.2,-.3,-.4,-.3c-.1,-.1,-.3,-.2,-.5,-.2c-.7,0,-1.2,.4,-1.6,1Zm-4,-4.4h2.2l.3,.1c.2,.3,.3,.6,.3,.9c0,.5,-.4,.8,-1.2,.8c-.4,0,-.8,-.2,-1.1,-.5c-.3,-.4,-.5,-.8,-.5,-1.3Zm18.7,-.8h-1.2c.1,-.8,-.2,-1.4,-.7,-1.9c-.5,-.4,-1.1,-.6,-1.9,-.6c-.3,0,-.7,0,-1.3,.1c-.3,0,-.5,0,-.7,0c-.2,.1,-.4,.1,-.5,.1c-.4,0,-.7,-.1,-.9,-.3c-.3,-.1,-.5,-.4,-.5,-.7c0,-.1,0,-.2,.1,-.3c0,-.1,.1,-.1,.1,-.2v-.3c-.2,0,-.4,.1,-.5,.4c-.1,.2,-.1,.4,-.1,.6c0,.6,.3,1.1,.9,1.5c.5,.3,1.1,.4,1.7,.4c.1,0,.3,0,.5,0c.2,0,.5,0,.7,0c.3,-.1,.5,-.1,.7,-.1c.2,0,.4,0,.5,0c.2,0,.3,0,.5,.1c.1,0,.2,.1,.4,.1c.2,.2,.4,.4,.4,.7c0,0,-.1,.2,-.2,.4h-3.6v2.7c-.1,-.2,-.3,-.5,-.5,-.7c-.2,-.2,-.3,-.4,-.5,-.7c-.7,-.5,-1.2,-.8,-1.8,-.8c-.3,0,-.6,0,-.9,.1c-.3,.1,-.6,.2,-.9,.4c-.7,.4,-1,.9,-1,1.4c0,.2,0,.3,.1,.5c.2,.2,.3,.2,.4,.2c.2,0,.4,0,.7,-.1c.2,-.2,.4,-.2,.5,-.2c.4,0,.6,.2,.6,.5c0,.2,-.2,.4,-.5,.7l-.6,.6l1.2,.4c.4,-.4,.8,-.8,1.2,-1.2c.5,-.4,.9,-.9,1.3,-1.2c.1,.2,.3,.4,.4,.6c.1,.2,.2,.3,.3,.5v2.1c0,2.1,.5,3.1,1.6,3.1c.4,0,.7,-.2,1.1,-.5c.4,-.3,.8,-.6,1.1,-1.1c.3,-.4,.6,-.9,.8,-1.4c.2,-.4,.3,-.9,.3,-1.2c0,-.5,-.2,-.9,-.4,-1.3c-.3,-.3,-.6,-.5,-1.1,-.5c-.3,0,-.6,.2,-.8,.4c-.2,.2,-.3,.5,-.3,.8c0,.3,.1,.5,.3,.7c.3,.2,.5,.3,.8,.3h.2c0,.4,-.3,1,-.8,1.6c-.6,.7,-1.1,1.1,-1.5,1.1c-.3,0,-.5,-.2,-.5,-.7v-6.3h5.7l-.9,-.8Zm-8.5,3.3c0,-.2,0,-.4,-.1,-.5c0,-.2,-.1,-.3,-.2,-.4c-.1,-.1,-.2,-.2,-.4,-.3c-.1,0,-.3,-.1,-.5,-.1c.3,-.5,.8,-.7,1.6,-.7c0,0,.1,0,.2,0c.1,.1,.2,.1,.4,.1c.2,.1,.4,.2,.4,.4l-1.4,1.5Z" class="g3_135"/>
<path d="M197,1082.6c0,0,-.5,-10,8.7,-9.4c0,0,6.7,-.4,6.7,9.5M197,1081.2v6.5c0,0,-3.4,.3,-3.9,-3c0,0,-.1,-3.8,3.9,-3.5Zm15.4,0v6.5c0,0,3.4,.3,3.9,-3c0,0,.1,-3.8,-3.9,-3.5Z" class="g4_135"/>
<path d="M185.8,1097.8H835.4" class="g5_135"/>
<image preserveAspectRatio="none" x="700" y="71" width="148" height="122" xlink:href="img/3.png"/>
<path d="M154.1,1030.2h713V544h-713v486.2Z" class="g9_135"/>
<path d="M154.1,548.6v479.3m4.6,2.3H864.9m2.2,-4.6V546.3M862.6,544H156.4" class="ga_135"/>
<path d="M154.1,1030.2v0m713.1,0v0m0,-486.2v0m-713.1,0v0" class="gb_135"/>
<path d="M153.3,558.3V520c0,0,0,-8.7,8.7,-8.7H859.3c0,0,8.6,0,8.6,8.7v38.9Z" class="gc_135"/>
<path d="M794,536.3c0,0,-.5,-9.9,8.6,-9.3c0,0,6.8,-.4,6.7,9.5M793.9,535v6.5c0,0,-3.3,.3,-3.9,-3c0,0,-.1,-3.8,3.9,-3.5Zm15.4,0v6.5c0,0,3.4,.3,4,-3c0,0,0,-3.8,-4,-3.5Z" class="gd_135"/>
<path d="M236.1,636.4c0,0,-7,0,-7,7.1v98.2c0,0,0,7,7,7H362.4c0,0,7,0,7,-7V643.5c0,0,0,-7.1,-7,-7.1Z" class="g2_135"/>
<image clip-path="url(#c3_135)" preserveAspectRatio="none" x="227" y="635" width="77" height="71" xlink:href="img/4.jpg"/>
<image clip-path="url(#c4_135)" preserveAspectRatio="none" x="294" y="635" width="77" height="71" xlink:href="img/5.jpg"/>
<image clip-path="url(#c5_135)" preserveAspectRatio="none" x="271" y="679" width="77" height="71" xlink:href="img/6.jpg"/>
<path d="M236.1,760.3c0,0,-7,0,-7,7v98.3c0,0,0,7,7,7H362.4c0,0,7,0,7,-7V767.3c0,0,0,-7,-7,-7Z" class="g2_135"/>
<image clip-path="url(#c6_135)" preserveAspectRatio="none" x="234" y="812" width="71" height="62" xlink:href="img/7.jpg"/>
<image clip-path="url(#c7_135)" preserveAspectRatio="none" x="293" y="812" width="72" height="62" xlink:href="img/8.jpg"/>
<image clip-path="url(#c8_135)" preserveAspectRatio="none" x="234" y="759" width="71" height="61" xlink:href="img/9.jpg"/>
<image clip-path="url(#c9_135)" preserveAspectRatio="none" x="293" y="759" width="72" height="61" xlink:href="img/10.jpg"/>
<path d="M497.8,636.4c0,0,-7,0,-7,7.1v98.2c0,0,0,7,7,7H624.1c0,0,7,0,7,-7V643.5c0,0,0,-7.1,-7,-7.1Z" class="g2_135"/>
<path d="M497.8,760.3c0,0,-7,0,-7,7v98.3c0,0,0,7,7,7H624.1c0,0,7,0,7,-7V767.3c0,0,0,-7,-7,-7Z" class="g2_135"/>
<image clip-path="url(#ca_135)" preserveAspectRatio="none" x="496" y="762" width="68" height="49" xlink:href="img/11.jpg"/>
<image clip-path="url(#cb_135)" preserveAspectRatio="none" x="558" y="778" width="68" height="48" xlink:href="img/12.jpg"/>
<image clip-path="url(#cc_135)" preserveAspectRatio="none" x="496" y="807" width="68" height="49" xlink:href="img/13.jpg"/>
<image clip-path="url(#cd_135)" preserveAspectRatio="none" x="558" y="823" width="68" height="48" xlink:href="img/14.jpg"/>
<image clip-path="url(#ce_135)" preserveAspectRatio="none" x="496" y="646" width="68" height="49" xlink:href="img/15.jpg"/>
<image clip-path="url(#cf_135)" preserveAspectRatio="none" x="558" y="662" width="68" height="48" xlink:href="img/16.jpg"/>
<image clip-path="url(#cg_135)" preserveAspectRatio="none" x="496" y="691" width="68" height="49" xlink:href="img/17.jpg"/>
<path d="M32.1,45.1H9.2m958.3,0h22.9M32.1,1331.3H9.2m958.3,0h22.9M45.1,32.1V9.2m0,1335.1v22.9M954.5,32.1V9.2m0,1335.1v22.9" class="ge_135"/>
<path d="M32.1,45.1H9.2m958.3,0h22.9M32.1,1331.3H9.2m958.3,0h22.9M45.1,32.1V9.2m0,1335.1v22.9M954.5,32.1V9.2m0,1335.1v22.9" class="gf_135"/>
<path d="M27.5,32.1H0m972.1,0h27.5M27.5,1344.3H0m972.1,0h27.5M32.1,27.5V0m0,1348.9v27.5M967.5,27.5V0m0,1348.9v27.5" class="ge_135"/>
<path d="M27.5,32.1H0m972.1,0h27.5M27.5,1344.3H0m972.1,0h27.5M32.1,27.5V0m0,1348.9v27.5M967.5,27.5V0m0,1348.9v27.5" class="gf_135"/>
</svg>