<?xml version="1.0" encoding="UTF-8" standalone="no"?>
<!DOCTYPE svg PUBLIC "-//W3C//DTD SVG 1.1//EN"
"http://www.w3.org/Graphics/SVG/1.1/DTD/svg11.dtd">
<svg viewBox="0 0 999 1376" version="1.1" xmlns="http://www.w3.org/2000/svg" xmlns:xlink="http://www.w3.org/1999/xlink">
<defs>
<clipPath id="c0_64"><path d="M32.1,1344.3V32.1H967.5V1344.3Z"/></clipPath>
<clipPath id="c1_64"><path d="M181.3,463.3l-6.4,-2L160.8,450V389.1h62.7v74.2Z"/></clipPath>
<clipPath id="c2_64"><path d="M183.7,729.3V572.6h296V729.3Z"/></clipPath>
<clipPath id="c3_64"><path d="M534.4,729.3V572.6H830.5V729.3Z"/></clipPath>
<clipPath id="c4_64"><path d="M183.7,1128.5V971.8H468v156.7Z"/></clipPath>
<clipPath id="c5_64"><path d="M534.4,1128.5V971.8H830.5v156.7Z"/></clipPath>
<clipPath id="c6_64"><path d="M778.6,387.5V375.1h14.5v12.4Z"/></clipPath>
<clipPath id="c7_64"><path d="M181.6,877.1l-6.5,-2l-14,-11.3V803h62.7v74.1Z"/></clipPath>
<clipPath id="c8_64"><path d="M155.9,312.6V212.5h698V312.6Z"/></clipPath>
<style type="text/css"><![CDATA[
.g0_64{
fill: #FFFDEA;
}
.g1_64{
fill: #BCE4EA;
}
.g2_64{
fill: #BCBEC0;
}
.g3_64{
fill: #00AABD;
}
.g4_64{
fill: #FCDCBA;
}
.g5_64{
fill: #FFF;
}
.g6_64{
fill: #A8AAAD;
}
.g7_64{
fill: none;
stroke: #949698;
stroke-width: 0.549;
}
.g8_64{
fill: none;
stroke: #BCBEC0;
stroke-width: 2.566;
}
.g9_64{
fill: #231F20;
}
.ga_64{
fill: none;
stroke: #58595B;
stroke-width: 0.152;
stroke-miterlimit: 1;
}
.gb_64{
fill: none;
stroke: #976EAF;
stroke-width: 1.145;
stroke-linecap: round;
stroke-linejoin: round;
stroke-dasharray: 4,2;
}
.gc_64{
fill: none;
stroke: #976EAF;
stroke-width: 1.145;
stroke-linecap: round;
stroke-linejoin: round;
stroke-dasharray: 4,3;
}
.gd_64{
fill: none;
stroke: #976EAF;
stroke-width: 1.145;
stroke-linecap: round;
stroke-linejoin: round;
}
.ge_64{
fill: none;
stroke: #FFF;
stroke-width: 1.909;
stroke-miterlimit: 10;
}
.gf_64{
fill: none;
stroke: #000;
stroke-width: 0.381;
stroke-miterlimit: 10;
}
]]></style>
</defs>
<g clip-path="url(#c0_64)">
<path d="M32.1,1344.3H1877V32.1H32.1V1344.3Z" class="g0_64"/>
<path d="M32.1,179.3H1877V32.1H32.1V179.3Z" class="g1_64"/>
<path d="M1877,177.2H32.1v-5.4H768.7c43.1,0,53,-37.9,115.3,-37.9h993Z" class="g2_64"/>
<path d="M1877,183.7H32.1v-9.8H768.7c43.1,0,53,-33.6,115.3,-33.6h993Z" class="g3_64"/>
</g>
<path d="M214,418.3c0,0,-13,0,-13,13V453c0,0,0,12.9,13,12.9H833c0,0,13,0,13,-12.9V431.3c0,0,0,-13,-13,-13Z" class="g4_64"/>
<image clip-path="url(#c1_64)" preserveAspectRatio="none" x="161" y="388" width="63" height="77" xlink:href="img/1.png"/>
<path d="M208.8,458.6c0,0,-26.9,11.3,-51.1,-12.8c0,0,15.1,25.3,49.3,24c0,0,24.7,.3,20.2,-10.1c0,0,1.2,-4.5,-18.4,-1.1Z" class="g4_64"/>
<image clip-path="url(#c2_64)" preserveAspectRatio="none" x="182" y="571" width="299" height="160" xlink:href="img/2.jpg"/>
<image clip-path="url(#c3_64)" preserveAspectRatio="none" x="533" y="571" width="299" height="160" xlink:href="img/3.jpg"/>
<path d="M341.7,508c0,0,-4.8,0,-4.8,5.5v53.9c0,0,0,5.5,4.8,5.5h129c0,0,4.8,0,4.8,-5.5V513.5c0,0,0,-5.5,-4.8,-5.5Z" class="g5_64"/>
<path d="M430.5,572.9v0l-31.4,22l11.5,-26.7Z" class="g5_64"/>
<path d="M157.6,513.8c0,0,-6.1,0,-6.1,5.4v54.3c0,0,0,5.3,6.1,5.3H303.2c0,0,6,0,6,-5.3V519.2c0,0,0,-5.4,-6,-5.4Z" class="g5_64"/>
<path d="M222.5,577.7v0l31.4,22.8L240.6,572.6Z" class="g5_64"/>
<path d="M514.5,515.4c0,0,-6.1,0,-6.1,5.1v55.7c0,0,0,5.2,6.1,5.2H681.8c0,0,6,0,6,-5.2V520.5c0,0,0,-5.1,-6,-5.1Z" class="g5_64"/>
<path d="M592.4,579.4v0l31.5,22.8L610.6,574.4Z" class="g5_64"/>
<image clip-path="url(#c4_64)" preserveAspectRatio="none" x="182" y="970" width="288" height="160" xlink:href="img/4.jpg"/>
<path d="M127.5,930.5c0,0,-6.1,0,-6.1,6.1V991c0,0,0,6.1,6.1,6.1l148.8,-2.2c0,0,6.1,4.4,6.1,-1.7v-53c0,0,0,-10.4,-6.1,-10.4Z" class="g5_64"/>
<path d="M206.9,997.1v0l31.5,22.7L225.1,992Z" class="g5_64"/>
<path d="M325.6,911.2c0,0,-4.2,0,-4.2,6.1v57.3c0,0,0,6,4.2,6H449.7c0,0,4.2,0,4.2,-6V917.3c0,0,0,-6.1,-4.2,-6.1Z" class="g5_64"/>
<path d="M428.6,978.3v0l-31.4,22l11.5,-26.6Z" class="g5_64"/>
<path d="M700.7,505.9c0,0,-6,0,-6,5.5v51.9c0,0,0,5.6,6,5.6H877.4c0,0,6,0,6,-5.6V511.4c0,0,0,-5.5,-6,-5.5Z" class="g5_64"/>
<path d="M789.1,568.9v0l-31.5,21.9l11.5,-26.6Z" class="g5_64"/>
<image clip-path="url(#c5_64)" preserveAspectRatio="none" x="533" y="970" width="299" height="160" xlink:href="img/5.jpg"/>
<path d="M491.1,906.9c0,0,-6,0,-6,6v54.4c0,0,0,6.1,6,6.1H636.7c0,0,6,0,6,-6.1V912.9c0,0,0,-6,-6,-6Z" class="g5_64"/>
<path d="M561.7,976.5v0l31.5,22.7L579.9,971.4Z" class="g5_64"/>
<path d="M750.4,916.6c0,0,-3.7,0,-3.7,6.1v44.6c0,0,0,6.1,3.7,6.1h68.7c0,0,3.8,0,3.8,-6.1V922.7c0,0,0,-6.1,-3.8,-6.1Z" class="g5_64"/>
<path d="M804.8,973.4v0l-31.5,22l11.5,-26.7Z" class="g5_64"/>
<path d="M794.7,400.5c8.2,0,14.9,-6.5,14.9,-14.4c0,-8,-6.7,-14.5,-14.9,-14.5c-8.2,0,-14.9,6.5,-14.9,14.5c0,7.9,6.7,14.4,14.9,14.4Z" class="g6_64"/>
<path d="M794.7,400.5c8.2,0,14.9,-6.5,14.9,-14.4c0,-8,-6.7,-14.5,-14.9,-14.5c-8.2,0,-14.9,6.5,-14.9,14.5c0,7.9,6.7,14.4,14.9,14.4Z" class="g7_64"/>
<path d="M794.7,391.4c3,0,5.5,-2.4,5.5,-5.3c0,-3,-2.5,-5.4,-5.5,-5.4c-3,0,-5.5,2.4,-5.5,5.4c0,2.9,2.5,5.3,5.5,5.3Z" class="g5_64"/>
<path d="M794.7,391.4c3,0,5.5,-2.4,5.5,-5.3c0,-3,-2.5,-5.4,-5.5,-5.4c-3,0,-5.5,2.4,-5.5,5.4c0,2.9,2.5,5.3,5.5,5.3Z" class="g8_64"/>
<g clip-path="url(#c6_64)" opacity="0.3">
<path d="M780.1,385.3v0c0,0,0,-4.8,3.7,-8.6l7.7,6.7c0,0,-1,.9,-1,2.6Z" class="g5_64"/>
</g>
<path d="M799.3,386c0,0,-3.5,0,-3.5,3.4v8.7c0,0,0,3.5,3.5,3.5h43.5c0,0,3.5,0,3.5,-3.5v-8.7c0,0,0,-3.4,-3.5,-3.4Z" class="g9_64"/>
<path d="M214.2,832.1c0,0,-13,0,-13,13v21.7c0,0,0,12.9,13,12.9H833.3c0,0,13,0,13,-12.9V845.1c0,0,0,-13,-13,-13Z" class="g4_64"/>
<image clip-path="url(#c7_64)" preserveAspectRatio="none" x="161" y="802" width="63" height="77" xlink:href="img/6.png"/>
<path d="M209,872.4c0,0,-26.8,11.3,-51.1,-12.8c0,0,15.2,25.3,49.3,24c0,0,24.8,.3,20.3,-10.1c0,0,1.2,-4.5,-18.5,-1.1Z" class="g4_64"/>
<path d="M261.5,135.2L260.4,134h-13c.4,.4,.7,.7,1,.9c.2,.2,.4,.4,.5,.5c.3,.2,.6,.4,.9,.6c.3,.1,.6,.2,.9,.3c.5,.1,.9,.2,1.2,.3c.4,.1,.6,.2,.9,.4c.2,.2,.4,.4,.5,.7c.1,.4,.2,.8,.3,1.4c-.4,.5,-.8,.9,-1,1.3c-.3,.3,-.5,.5,-.7,.7c-.1,.2,-.3,.3,-.4,.4c-.1,0,-.2,0,-.2,0c-.2,0,-.4,0,-.5,-.1c-.1,-.1,-.2,-.3,-.3,-.4c-.1,-.2,-.2,-.4,-.3,-.6c-.1,-.2,-.1,-.3,-.1,-.5l-.8,.8c.1,.2,.3,.5,.4,.8c.2,.3,.4,.6,.6,.9c.3,.3,.5,.5,.8,.7c.3,.1,.6,.2,1,.2c.1,0,.3,0,.4,-.1c.2,0,.4,-.1,.6,-.3c.2,-.2,.4,-.5,.7,-.9c.3,-.4,.7,-.9,1.1,-1.6c.4,-.6,.8,-1,1.2,-1.1c.5,0,.8,.1,1.1,.4c.3,.4,.6,.9,.8,1.6c.1,.7,.2,1.6,.2,2.5v.4c0,.1,0,.3,0,.5c0,.1,0,.4,0,.7c0,.3,0,.6,0,1.1c.1,.2,.3,.4,.5,.6c.2,.3,.4,.5,.6,.7V135.2h2.2Zm-3.3,4.1c-.4,-.4,-.7,-.8,-1,-1.1c-.3,-.4,-.6,-.6,-.9,-.7c-.3,-.1,-.6,-.1,-1,.1c-.3,.1,-.7,.4,-1.1,.8c0,-.6,-.1,-1.1,-.4,-1.6c-.2,-.5,-.6,-1,-1.3,-1.6h5.7v4.1Zm14,-5.3c-.3,0,-.6,-.1,-.9,-.2c-.2,-.1,-.3,-.3,-.4,-.6c0,-.2,-.1,-.5,-.1,-.9l-.6,-.5v5.3c-.3,-.8,-.8,-1.5,-1.5,-2.1c-.7,-.7,-1.5,-1,-2.3,-1c-.3,0,-.7,.1,-1.1,.3c-.5,.1,-.9,.4,-1.3,.6c-.4,.4,-.7,.7,-1,1.1c-.2,.3,-.3,.6,-.3,1c0,.5,.3,.8,1.1,.8c0,0,.1,0,.2,-.1c.1,0,.2,0,.3,0c.1,-.1,.3,-.1,.4,-.1c.2,0,.4,.1,.6,.3c0,0,0,.1,.1,.2c0,.7,-.4,1.2,-1.1,1.5l1.5,.7l3.4,-3.3c.4,.4,.7,.8,.8,1.1c.1,.3,.2,.7,.3,1.3c-.3,-.1,-.5,-.1,-.8,-.1c-.6,0,-1.1,.2,-1.6,.6c-.4,.3,-.6,.9,-.6,1.5c0,.5,.1,.8,.5,1.1c.3,.3,.6,.5,1.1,.5c.9,0,1.4,-.4,1.4,-1.2c0,-.5,-.2,-.9,-.5,-1.3h.6c.5,-.1,.9,.1,1.1,.4c.3,.4,.5,.8,.5,1.4c0,.8,-.4,1.4,-1.1,1.9c-.6,.4,-1.3,.6,-2.2,.6c-2.8,.1,-5.1,-2.5,-6.7,-7.7l-.7,-.5c.2,1.1,.5,2.2,1,3.3c.4,1.1,.9,2.2,1.6,3.3c1.2,2.1,3,3.3,5.2,3.3c.5,0,1,0,1.4,-.2c.5,-.2,.9,-.4,1.3,-.8c.8,-.7,1.2,-1.5,1.2,-2.5c0,-1.3,-.5,-2.4,-1.6,-3.3v-4.5h2L272.2,134Zm-6.1,4c-.1,-.9,-.6,-1.4,-1.4,-1.6c.5,-.7,1.2,-1.1,2,-1.1c.6,0,1.1,.3,1.5,.8l-2.1,1.9Zm12.1,-2.8L277,134h-1.1c-.3,-.4,-.6,-1,-.7,-1.9l-.4,-.3c0,.2,0,.5,0,.9c0,.3,0,.7,0,1.2c.1,.5,.1,.9,.1,1.3c0,.3,0,.6,0,.9c-.2,-.8,-.5,-1.3,-.9,-1.6c-.4,-.3,-1,-.5,-1.7,-.5h-1.4l1.2,1.2c.4,0,.7,.1,1,.2c.3,.1,.6,.3,.9,.5c.2,.2,.4,.4,.6,.7c.1,.3,.2,.7,.2,1v8.9l1.1,1.2V135.2h2.3Zm10,-1.2H276.1l1.2,1.2h4.3c.5,.4,.8,.7,.8,1c-.8,0,-1.4,.3,-2,.8c-.5,.5,-.8,1.1,-.8,1.8c0,.4,.1,.7,.4,.9c.3,.2,.6,.3,1,.3c.6,0,1.1,-.2,1.6,-.7c.5,-.5,.7,-1,.7,-1.6c.1,0,.2,-.1,.4,-.1c.1,0,.2,0,.4,0c.1,0,.3,.1,.5,.2c.2,.1,.4,.2,.5,.4c.2,.2,.3,.4,.4,.7c.1,.2,.1,.5,.1,.7c0,.8,-.4,1.5,-1.4,2c-.7,.3,-1.5,.5,-2.5,.4c-1.2,-.1,-2.3,-.4,-3.3,-1l1.4,3c.9,.2,1.7,.5,2.6,.9c.9,.3,1.7,.7,2.5,1.2c.9,.5,1.7,1,2.3,1.5c.7,.6,1.4,1.2,1.9,1.9l-.2,-1.3c-1.1,-1.1,-2.1,-2,-3,-2.8c-1,-.8,-1.8,-1.4,-2.6,-1.9c1.2,-.3,2.1,-.7,2.6,-1.2c.8,-.6,1.2,-1.4,1.2,-2.4c0,-1,-.3,-1.8,-.9,-2.5c-.4,-.5,-1.3,-.9,-2.5,-1.3c-.1,-.2,-.2,-.3,-.3,-.5c-.1,-.1,-.2,-.2,-.3,-.4h6.3L288.2,134Zm5.2,1.2L292.2,134h-1.1c-.3,-.4,-.6,-1,-.7,-1.9l-.4,-.3c0,.2,0,.5,0,.9c0,.3,0,.7,0,1.2c.1,.5,.1,.9,.1,1.3c0,.3,.1,.6,.1,.9c-.3,-.8,-.6,-1.3,-1,-1.6c-.4,-.3,-1,-.5,-1.7,-.5h-1.4l1.2,1.2c.4,0,.7,.1,1,.2c.3,.1,.6,.3,.9,.5c.2,.2,.4,.4,.6,.7c.1,.3,.2,.7,.2,1v8.9l1.1,1.2V135.2h2.3Zm13.4,0L305.6,134h-14l1.3,1.2h9c.3,0,.6,.1,.8,.4c.2,.3,.3,.7,.3,1c0,.9,-.4,1.5,-1.3,1.8c-.5,-.5,-1,-1,-1.6,-1.4c-.9,-.4,-1.6,-.6,-2.2,-.6c-.6,0,-1.1,.2,-1.5,.5c-.4,.3,-.6,.8,-.6,1.4c0,1.2,.5,1.8,1.6,1.8c.2,0,.3,0,.5,-.1c.2,-.1,.3,-.2,.5,-.4c.1,-.1,.2,-.3,.3,-.5c.1,-.2,.1,-.4,.1,-.6c0,-.3,-.2,-.6,-.5,-.9l.1,-.1c.5,.1,1,.3,1.5,.7c.7,.6,1.1,.9,1.2,1l.1,.1c-1.4,.4,-2.1,1.2,-2.1,2.3c0,.6,.2,1.1,.5,1.5c.3,.3,.8,.5,1.4,.5c.2,0,.4,0,.7,-.1c.2,-.1,.4,-.2,.5,-.4c.2,-.1,.3,-.3,.4,-.5c.1,-.2,.2,-.4,.2,-.6c0,-.3,-.1,-.5,-.2,-.8c-.1,-.2,-.2,-.4,-.4,-.6c1.4,0,2.1,.6,2.1,1.8c0,.4,-.1,.8,-.3,1.1c-.2,.4,-.5,.7,-.8,.9c-.3,.2,-.7,.4,-1,.5c-.4,.1,-.8,.2,-1.2,.2c-1.9,0,-3.5,-1,-4.9,-3.1c-.4,-.7,-.8,-1.5,-1.2,-2.5c-.4,-1,-.8,-2.1,-1,-3.1l-.6,-.3c.2,2.4,.9,4.7,2.1,6.9c1.5,2.6,3.3,4,5.4,4c.7,0,1.3,-.1,1.8,-.3c.5,-.2,1,-.5,1.4,-.8c.4,-.4,.7,-.8,.9,-1.3c.2,-.6,.3,-1.1,.3,-1.8c0,-1.7,-.7,-2.8,-2.1,-3.3c.8,-.8,1.2,-1.5,1.2,-2c0,-.7,-.2,-1.5,-.8,-2.3h3.3Zm20.9,0L326.5,134H313.1l1.2,1.2h13.4Zm-1.7,2.9c-.3,-.5,-.6,-.9,-.9,-1.1c-.3,-.3,-.5,-.5,-.8,-.5c-.2,.3,-.4,.6,-.6,.9c-.2,.3,-.4,.6,-.6,.8c-.6,.7,-1.2,1,-1.7,.9c.3,-.4,.5,-.9,.5,-1.2c0,-.4,-.2,-.8,-.5,-1.1c-.3,-.2,-.6,-.4,-1,-.4c-1.4,0,-2,.7,-2,1.9c0,.8,.3,1.4,.9,1.9c.5,.4,1.1,.6,1.9,.6c1.5,0,2.8,-.6,3.8,-1.9c.4,0,.6,.6,.6,1.7c0,.9,-.3,1.7,-1,2.3c-.6,.7,-1.4,1,-2.3,1c-.8,0,-1.7,-.2,-2.4,-.7c-.8,-.4,-1.5,-1,-2.1,-1.7c-.5,-.6,-.9,-1.4,-1.3,-2.2c-.4,-.8,-.8,-1.7,-1.1,-2.7l-.7,-.2c.5,1.4,.9,2.7,1.3,3.7c.4,1,.8,1.8,1.1,2.3c1.4,2.3,3,3.5,5,3.5c1.4,0,2.5,-.6,3.4,-1.6c.4,-.5,.8,-1.1,1,-1.7c.2,-.6,.3,-1.3,.3,-2c0,-.7,-.3,-1.5,-.8,-2.5Zm6.4,-2.9L331.2,134h-1c-.4,-.4,-.6,-1,-.8,-1.9l-.4,-.3c0,.2,0,.5,0,.9c0,.3,.1,.7,.1,1.2c0,.5,.1,.9,.1,1.3c0,.3,0,.6,0,.9c-.3,-.8,-.6,-1.3,-1,-1.6c-.4,-.3,-.9,-.5,-1.7,-.5h-1.3l1.2,1.2c.3,0,.6,.1,1,.2c.3,.1,.6,.3,.8,.5c.3,.2,.5,.4,.6,.7c.1,.3,.2,.7,.2,1v8.9l1.2,1.2V135.2h2.2Zm12.6,0L343.8,134H330.5l1.3,1.2h9.8v3.3c-.5,-1.3,-1.3,-2,-2.3,-2c-.3,0,-.6,.2,-.9,.5c-.4,.3,-.5,.6,-.5,1c-.8,-1,-1.8,-1.6,-2.8,-1.6c-.8,0,-1.4,.4,-2,1.2c-.4,.7,-.6,1.4,-.6,2.3c0,.5,0,1,.2,1.4c.2,.4,.4,.8,.7,1.1c.3,.3,.7,.5,1.1,.7c.5,.1,.9,.2,1.4,.2c.7,-.1,1.2,-.2,1.5,-.5c.3,-.3,.5,-.7,.5,-1.2c0,-1.1,-.6,-1.7,-1.7,-1.7c-.3,0,-.6,.1,-.9,.3c-.3,.3,-.4,.6,-.4,1c0,.2,.1,.6,.4,1c-1.2,-.2,-1.7,-.8,-1.7,-1.7c0,-.3,0,-.6,.1,-.9c.2,-.3,.3,-.5,.5,-.7c.2,-.2,.5,-.4,.7,-.5c.3,-.1,.6,-.2,.9,-.2c.7,0,1.3,.2,1.8,.6c.5,.4,.8,1,1,1.6l.5,-.2c-.1,-.3,-.2,-.5,-.2,-.7c0,-.9,.4,-1.3,1.1,-1.3c.4,0,.8,.2,1.1,.5c.3,.3,.4,.7,.4,1.1v6.9l1.3,1.1V135.2H345Zm22.2,0L365.9,134H350.8l1.2,1.2h7.8v1c-2.6,.8,-4.9,2.1,-7,3.7l1.7,2.1c1.4,.1,2.6,.7,3.7,1.8c.4,.5,.9,1,1.3,1.6c.4,.7,.7,1.3,1,2c0,.1,.1,.1,.2,.2c0,0,.1,.1,.2,.1v-10c1.2,0,2.1,.3,2.8,1c.6,.7,1,1.4,1,2.2l-.1,.3c-.2,-.2,-.4,-.3,-.6,-.4c-.1,-.2,-.4,-.2,-.6,-.2c-.4,0,-.7,.1,-1,.4c-.3,.2,-.4,.5,-.4,.9c0,.2,0,.4,.1,.6c.1,.2,.2,.3,.4,.5c.1,.1,.3,.2,.5,.3c.2,.1,.4,.1,.6,.1c.2,0,.5,-.1,.8,-.2c.2,-.1,.4,-.3,.6,-.5c.1,-.2,.3,-.4,.4,-.7c.1,-.3,.1,-.5,.1,-.8c0,-1.3,-.4,-2.4,-1.2,-3.4c-.8,-1.2,-2,-1.7,-3.4,-1.7v-.9h6.3Zm-7.5,9.1c-1,-1.8,-2.5,-3.1,-4.5,-4c.9,-.5,1.6,-1,2.4,-1.4c.7,-.4,1.4,-.8,2.1,-1.1v6.5ZM373.3,134h-7.9l1.2,1.2h4c-1.7,2,-2.6,4,-2.6,6.1c0,1.5,.3,2.8,.9,3.9c.8,1.4,1.9,2.1,3.3,2.1c.2,0,.5,0,.8,-.1c.2,-.1,.5,-.2,.7,-.4c.2,-.2,.3,-.4,.4,-.7c.2,-.2,.2,-.5,.2,-.8c0,-.4,-.1,-.9,-.4,-1.2c-.3,-.3,-.6,-.5,-1,-.5c-.4,0,-.7,.2,-1.1,.4c-.3,.3,-.4,.6,-.4,1c0,.2,.1,.4,.2,.7c.1,.2,.3,.4,.6,.6c-.8,.2,-1.5,-.2,-2.3,-1.3c-.4,-.7,-.7,-1.5,-.7,-2.3c0,-1,.1,-1.9,.3,-2.7c.3,-.7,.6,-1.4,1,-2.1c.4,-.7,1,-1.3,1.7,-1.7c.6,-.5,1.4,-.8,2.3,-1L373.3,134Zm12.2,1.2L384.3,134H372.5l1.2,1.2h8.1v.9c-2.5,.8,-4.9,2.1,-7.3,3.7l1.6,2.3c1.6,.1,3,.7,4,1.6c.3,.3,.6,.6,1,1c.3,.4,.5,.8,.7,1c.1,.3,.3,.7,.5,1.3l.7,.8V135.2h2.5Zm-3.7,9.4c-1,-1.8,-2.6,-3.2,-4.8,-4.1c.9,-.6,1.7,-1.1,2.5,-1.5c.8,-.4,1.6,-.7,2.3,-1v6.6Zm-4.7,1.7c.3,.3,.6,.4,.9,.4c.4,0,.7,-.1,.9,-.4c.2,-.2,.4,-.5,.4,-.8c0,-.4,-.2,-.7,-.4,-.9c-.2,-.3,-.5,-.4,-.9,-.4c-.3,0,-.6,.1,-.9,.4c-.2,.2,-.3,.5,-.3,.9c0,.3,.1,.6,.3,.8Zm30.5,-11.1L406.4,134H391.2l1.2,1.2h7.8v1c-2.6,.8,-4.9,2.1,-6.9,3.7L395,142c1.3,.1,2.5,.7,3.6,1.8c.5,.5,.9,1,1.3,1.6c.4,.7,.7,1.3,1,2c0,.1,.1,.1,.2,.2c.1,0,.1,.1,.2,.1v-10c1.2,0,2.2,.3,2.8,1c.7,.7,1,1.4,1,2.2l-.1,.3c-.2,-.2,-.3,-.3,-.5,-.4c-.2,-.2,-.4,-.2,-.7,-.2c-.4,0,-.7,.1,-1,.4c-.3,.2,-.4,.5,-.4,.9c0,.2,0,.4,.1,.6c.1,.2,.3,.3,.4,.5c.2,.1,.3,.2,.5,.3c.2,.1,.4,.1,.6,.1c.3,0,.5,-.1,.8,-.2c.2,-.1,.4,-.3,.6,-.5c.2,-.2,.3,-.4,.4,-.7c.1,-.3,.2,-.5,.2,-.8c0,-1.3,-.5,-2.4,-1.3,-3.4c-.8,-1.2,-1.9,-1.7,-3.3,-1.7v-.9h6.2Zm-7.4,9.1h-.1c-1,-1.8,-2.4,-3.1,-4.4,-4c.8,-.5,1.5,-1,2.3,-1.4c.7,-.4,1.4,-.8,2.2,-1.1v6.5Zm12,-9.1L411,134h-1c-.4,-.4,-.6,-1,-.8,-1.9l-.4,-.3c0,.2,0,.5,0,.9c0,.3,.1,.7,.1,1.2c0,.5,.1,.9,.1,1.3c0,.3,0,.6,0,.9c-.3,-.8,-.6,-1.3,-1,-1.6c-.4,-.3,-.9,-.5,-1.7,-.5H405l1.2,1.2c.3,0,.6,.1,1,.2c.3,.1,.6,.3,.8,.5c.3,.2,.5,.4,.6,.7c.1,.3,.2,.7,.2,1v8.9l1.2,1.2V135.2h2.2Zm10.3,0L421.4,134h-.7c0,-1.1,-.2,-2,-.7,-2.6c-.5,-.6,-1.3,-.9,-2.4,-.9c-.3,0,-.8,.1,-1.4,.1c-.4,.1,-.7,.1,-.9,.1c-.3,0,-.5,0,-.6,0c-.5,0,-1,-.1,-1.4,-.3c-.4,-.2,-.6,-.6,-.6,-1.1c0,-.2,.1,-.4,.3,-.6c0,-.1,0,-.2,0,-.2c0,-.1,0,-.2,0,-.2c-.6,0,-.9,.5,-.9,1.4c0,.9,.4,1.6,1.3,2c.7,.5,1.6,.7,2.5,.7c.1,0,.3,0,.4,0c.2,-.1,.4,-.1,.6,-.1c.6,-.1,.9,-.1,1.2,-.1c1,0,1.5,.3,1.5,1c0,.2,0,.3,-.1,.4c0,.2,0,.3,0,.4h-9.1l1.1,1.2h2v8c.1,.9,.4,1.6,.9,2c.4,.5,1,.7,1.8,.7c1.1,0,2.2,-.6,3.2,-1.8c1,-1.2,1.5,-2.3,1.5,-3.5c0,-.4,0,-.7,-.1,-1.1c-.1,-.3,-.3,-.6,-.4,-.9c-.5,-.7,-1,-1,-1.7,-1c-.5,0,-.8,.2,-1.1,.5c-.3,.3,-.4,.7,-.4,1.1c0,.4,.1,.8,.5,1c.3,.3,.6,.4,1,.4h.4c-.1,.8,-.4,1.6,-1.1,2.5c-.8,.8,-1.5,1.3,-2.2,1.3c-.5,0,-.9,-.3,-1.2,-.8v-8.4h7.9Zm4.7,0L426,134h-1.1c-.3,-.4,-.6,-1,-.7,-1.9l-.4,-.3c0,.2,0,.5,0,.9c0,.3,0,.7,.1,1.2c0,.5,0,.9,0,1.3c.1,.3,.1,.6,.1,.9c-.3,-.8,-.6,-1.3,-1,-1.6c-.4,-.3,-1,-.5,-1.7,-.5h-1.4l1.2,1.2c.4,0,.7,.1,1,.2c.4,.1,.6,.3,.9,.5c.2,.2,.4,.4,.6,.7c.1,.3,.2,.7,.2,1v8.9l1.1,1.2V135.2h2.3Zm11.1,0L437.1,134H425.4l1.2,1.2H435v6.6c-1.3,-2.6,-2.8,-4,-4.5,-4c-.7,0,-1.4,.3,-2,.9c-.6,.5,-.9,1.2,-.9,2c0,1.5,.8,2.2,2.3,2.2c.5,0,.9,-.2,1.2,-.5c.3,-.4,.5,-.8,.5,-1.3c0,-.3,-.3,-.8,-.8,-1.5c0,-.1,.1,-.1,.3,-.1c1.3,0,2.4,.8,3.3,2.5c.7,1.4,1,2.9,1,4.2l-.1,1.3l.9,.6V135.2h2.1Z" class="ga_64"/>
<image clip-path="url(#c8_64)" preserveAspectRatio="none" x="156" y="213" width="697" height="100" xlink:href="img/7.png"/>
<path d="M171.2,214.5c0,0,-13,0,-13,13v63.8c0,0,0,13,13,13H832.7c0,0,13,0,13,-13V227.5c0,0,0,-13,-13,-13Z" class="g5_64"/>
<path d="M167.7,215c-3.4,.9,-8.3,3.3,-9.3,9.9" class="gb_64"/>
<path d="M158.2,231.5v56.9" class="gc_64"/>
<path d="M158.8,294.8c.9,3.5,3.3,8.3,9.9,9.3" class="gb_64"/>
<path d="M175.3,304.3H829.8" class="gc_64"/>
<path d="M836.2,303.8c3.5,-.9,8.3,-3.4,9.3,-9.9" class="gb_64"/>
<path d="M845.7,287.2V230.4" class="gc_64"/>
<path d="M845.2,223.9c-.9,-3.4,-3.4,-8.2,-9.9,-9.2" class="gb_64"/>
<path d="M828.7,214.5H174.1" class="gc_64"/>
<path d="M158.3,225.9c0,.5,-.1,1,-.1,1.6v1.7m0,60.4v1.7c0,0,0,.6,.2,1.6m11.3,11.3c.5,.1,1,.1,1.5,.1H173m658,0h1.7c0,0,.6,0,1.6,-.1m11.3,-11.3c.1,-.5,.1,-1.1,.1,-1.6v-1.7m0,-60.4v-1.7c0,0,0,-.6,-.2,-1.6M834.3,214.6c-.5,-.1,-1.1,-.1,-1.6,-.1H831m-658,0h-1.8c0,0,-.6,0,-1.5,.1" class="gd_64"/>
<path d="M32.1,45.1H9.2m958.3,0h22.9M32.1,1331.3H9.2m958.3,0h22.9M45.1,32.1V9.2m0,1335.1v22.9M954.5,32.1V9.2m0,1335.1v22.9" class="ge_64"/>
<path d="M32.1,45.1H9.2m958.3,0h22.9M32.1,1331.3H9.2m958.3,0h22.9M45.1,32.1V9.2m0,1335.1v22.9M954.5,32.1V9.2m0,1335.1v22.9" class="gf_64"/>
<path d="M27.5,32.1H0m972.1,0h27.5M27.5,1344.3H0m972.1,0h27.5M32.1,27.5V0m0,1348.9v27.5M967.5,27.5V0m0,1348.9v27.5" class="ge_64"/>
<path d="M27.5,32.1H0m972.1,0h27.5M27.5,1344.3H0m972.1,0h27.5M32.1,27.5V0m0,1348.9v27.5M967.5,27.5V0m0,1348.9v27.5" class="gf_64"/>
</svg>