<?xml version="1.0" encoding="UTF-8" standalone="no"?>
<!DOCTYPE svg PUBLIC "-//W3C//DTD SVG 1.1//EN"
"http://www.w3.org/Graphics/SVG/1.1/DTD/svg11.dtd">
<svg viewBox="0 0 999 1376" version="1.1" xmlns="http://www.w3.org/2000/svg" xmlns:xlink="http://www.w3.org/1999/xlink">
<defs>
<clipPath id="c0_174"><path d="M32.1,1344.3V32.1H967.5V1344.3Z"/></clipPath>
<clipPath id="c1_174"><path d="M124.8,386.7V205.8H858V386.7Z"/></clipPath>
<clipPath id="c2_174"><path d="M176.6,551.9l-6.5,-2.1L153.7,535.9V478.8h72v73.1Z"/></clipPath>
<clipPath id="c3_174"><path d="M176.6,1096.2l-6.5,-2.1l-16.4,-13.9v-57.1h72v73.1Z"/></clipPath>
<clipPath id="c4_174"><path d="M764.8,434.8V422.4h14.5v12.4Z"/></clipPath>
<clipPath id="c5_174"><path d="M86.5,823.3V576.4H326.3V823.3Z"/></clipPath>
<clipPath id="c6_174"><path d="M92.3,818.6V582.7H319.4V818.6Z"/></clipPath>
<clipPath id="c7_174"><path d="M201,597.1c-.3,-.1,3.5,-8.2,3.5,-8.2l.8,.5c0,0,-4,7.7,-4.3,7.7Z"/></clipPath>
<clipPath id="c8_174"><path d="M208.5,589.4c0,0,-6.9,-1.1,-7.6,-5.3c-.7,-3.6,1.5,-3.8,2.1,-3.8q.1,0,.1,0l8.3,-12.7L210,564.5c0,0,-.6,-1.1,.1,-2.1c0,0,.2,-.1,.3,-.1c2.1,0,12.9,5.6,12.9,5.6l.1,.1c-.4,.5,-.7,1.2,-1.4,1.7c-.6,.5,-5.1,1.1,-5.1,1.1l-8.4,18.6Z"/></clipPath>
<clipPath id="c9_174"><path d="M208.1,589c.2,-.4,.2,-1.8,0,-2.2v-1.4c-1.6,-.6,-2.9,-1.3,-3.7,-2.5c-1.1,.5,-2.1,1.2,-3.1,1.8c1.5,2.2,3.8,3.6,6.8,4.3Zm0,-3.9c2.2,-4.5,4,-9.5,6.1,-14.1c-.9,-.3,-1.8,-1.3,-2.6,-1.3c-2.3,4.3,-4.6,8.6,-7.1,12.8c.8,1.3,2.1,2,3.6,2.6Zm-7.3,12.1c1,-2.9,2.4,-5.5,3.5,-8.3c-2,-1.5,-3.9,-3.1,-4.4,-6.2v-1.5c0,-2.7,1.9,-3.4,4.6,-3.4c0,0,.1,0,.2,0c1.9,-3.3,4.2,-6.3,6.1,-9.6c-.5,-.9,-1.1,-2.4,-.8,-3.7c.5,1.3,1.6,1.9,2.3,2.9c-.1,.6,-.2,1.1,-.3,1.8c.6,.6,1.3,1.1,2.4,1.3c.4,-.4,.5,-1.2,1.1,-1.5c.9,.4,1.8,.8,3.1,.8c.2,.1,.5,.1,.8,.1c.4,0,.7,0,.9,-.1c.1,0,.2,0,.3,0c.2,0,.4,0,.6,-.1c.2,-.1,.3,-.1,.5,-.1c.1,0,.2,0,.3,.1c-1.3,.6,-2.2,1.7,-4.2,1.7c-.1,0,-.2,0,-.3,0c-.9,3.8,-1.9,7.4,-2.6,11.2c.5,1.1,1.5,1.7,1.2,3.1c-.4,2.8,-3.8,4.4,-7.2,4.4c-1.2,0,-2.5,-.2,-3.6,-.7c-1,2.1,-2.1,4.1,-3.3,6c0,-.3,.3,-.4,.3,-.7c.9,-1.8,1.9,-3.6,2.6,-5.7c-1,1.7,-1.8,3.7,-2.7,5.5c-.2,.5,-.5,.9,-.7,1.3c-.3,.4,-.3,1.1,-.7,1.4Z"/></clipPath>
<clipPath id="ca_174"><path d="M218.5,569.4c-4.8,0,-13.1,-7.3,-5.5,-8.8h1.2c.2,.1,.4,.1,.5,.1c.1,0,.2,0,.2,0c.3,0,.7,0,1.1,0c3.1,.7,8.2,3.8,7.5,7.1c-.2,1.1,-1.5,1.6,-3.1,1.6h-1.8c0,0,-.1,0,-.1,0Z"/></clipPath>
<clipPath id="cb_174"><path d="M75.6,1009.8V829.4H314.9v180.4Z"/></clipPath>
<clipPath id="cc_174"><path d="M79.7,1003.2V834.4H310.2v168.8Z"/></clipPath>
<clipPath id="cd_174"><path d="M194.5,854.2c-.3,-.1,3.5,-8.3,3.5,-8.3l.8,.6c0,0,-4,7.7,-4.3,7.7Z"/></clipPath>
<clipPath id="ce_174"><path d="M202,846.4c0,0,-6.9,-1.1,-7.6,-5.2c-.7,-3.6,1.5,-3.8,2.1,-3.8q.1,0,.1,0l8.3,-12.8l-1.4,-3c0,0,-.6,-1.2,.1,-2.1c0,-.1,.2,-.1,.3,-.1c2.1,0,12.9,5.5,12.9,5.5l.1,.2c-.3,.5,-.7,1.1,-1.4,1.6c-.6,.5,-5.1,1.2,-5.1,1.2L202,846.4Z"/></clipPath>
<clipPath id="cf_174"><path d="M201.6,846.1c.2,-.5,.2,-1.8,0,-2.3v-1.4c-1.6,-.5,-2.9,-1.2,-3.7,-2.5c-1.1,.6,-2.1,1.2,-3.1,1.9c1.5,2.1,3.8,3.6,6.8,4.3Zm0,-3.9c2.2,-4.6,4,-9.5,6.1,-14.1c-.9,-.4,-1.8,-1.3,-2.6,-1.4c-2.3,4.4,-4.6,8.7,-7,12.8c.7,1.4,2.1,2.1,3.5,2.7Zm-7.3,12c1,-2.8,2.4,-5.4,3.5,-8.2c-2,-1.6,-3.9,-3.2,-4.4,-6.2v-1.5c0,-2.7,1.9,-3.4,4.6,-3.4q.1,0,.2,0c1.9,-3.3,4.2,-6.3,6.1,-9.7c-.5,-.8,-1.1,-2.3,-.8,-3.6c.5,1.2,1.6,1.9,2.3,2.9c-.1,.6,-.2,1.1,-.3,1.7c.6,.7,1.3,1.2,2.4,1.4c.4,-.4,.5,-1.2,1.1,-1.5c.9,.4,1.8,.7,3.1,.8c.2,.1,.5,.1,.8,.1c.4,0,.7,0,.9,-.1c.1,0,.2,0,.3,0c.2,0,.4,-.1,.6,-.1c.2,-.1,.3,-.2,.5,-.2c.1,0,.2,.1,.3,.1c-1.3,.7,-2.2,1.8,-4.1,1.8c-.2,0,-.3,0,-.4,0c-.9,3.7,-1.9,7.3,-2.6,11.2c.5,1,1.5,1.7,1.2,3.1c-.4,2.7,-3.8,4.4,-7.2,4.4c-1.2,0,-2.5,-.2,-3.6,-.7c-1,2.1,-2.1,4.1,-3.3,6c0,-.4,.3,-.4,.3,-.8c.9,-1.8,1.9,-3.6,2.6,-5.6c-1,1.7,-1.8,3.7,-2.7,5.5c-.2,.4,-.5,.8,-.7,1.3c-.3,.4,-.3,1.1,-.7,1.3Z"/></clipPath>
<clipPath id="cg_174"><path d="M212,826.5c-4.8,0,-13.1,-7.3,-5.5,-8.8h1.2c.2,0,.4,0,.6,0c0,0,.1,0,.1,0q.1,0,.2,0c.3,0,.6,0,.9,.1c3.1,.6,8.2,3.8,7.5,7c-.2,1.2,-1.5,1.6,-3.1,1.7H212Z"/></clipPath>
<style type="text/css"><![CDATA[
.g0_174{
fill: #FEFCF4;
}
.g1_174{
fill: #CEEDFB;
}
.g2_174{
fill: #27639D;
}
.g3_174{
fill: #231F20;
}
.g4_174{
fill: none;
stroke: #204A78;
stroke-width: 1.527;
}
.g5_174{
fill: #FFF;
}
.g6_174{
fill: none;
stroke: #6381B7;
stroke-width: 0.763;
}
.g7_174{
fill: #6381B7;
}
.g8_174{
fill: none;
stroke: #6381B7;
stroke-width: 0.381;
stroke-dasharray: 2,1;
}
.g9_174{
fill: none;
stroke: #6381B7;
stroke-width: 0.381;
}
.ga_174{
fill: #FCE8B0;
}
.gb_174{
fill: #2E6E51;
}
.gc_174{
fill: none;
stroke: #FFF;
stroke-width: 0.152;
stroke-miterlimit: 1;
}
.gd_174{
fill: #BCBEC0;
}
.ge_174{
fill: #EE314A;
}
.gf_174{
fill: #25408F;
}
.gg_174{
fill: #A8AAAD;
}
.gh_174{
fill: none;
stroke: #949698;
stroke-width: 0.549;
}
.gi_174{
fill: none;
stroke: #BCBEC0;
stroke-width: 2.566;
}
.gj_174{
fill: #363637;
}
.gk_174{
fill: #5CC4BE;
}
.gl_174{
fill: #F0D73F;
}
.gm_174{
fill: none;
stroke: #818385;
stroke-width: 0.305;
stroke-dasharray: 4,4;
}
.gn_174{
fill: none;
stroke: #818385;
stroke-width: 0.305;
}
.go_174{
fill: #F7C2D9;
}
.gp_174{
fill: #FDF4F3;
}
.gq_174{
fill: #EC008C;
}
.gr_174{
fill: none;
stroke: #949698;
stroke-width: 0.305;
stroke-dasharray: 4,4;
}
.gs_174{
fill: none;
stroke: #949698;
stroke-width: 0.305;
stroke-dasharray: 3,3;
}
.gt_174{
fill: none;
stroke: #949698;
stroke-width: 0.305;
}
.gu_174{
fill: #6D6F71;
}
.gv_174{
fill: none;
stroke: #818385;
stroke-width: 0.305;
stroke-dasharray: 3,3;
}
.gw_174{
fill: none;
stroke: #FFF;
stroke-width: 1.909;
stroke-miterlimit: 10;
}
.gx_174{
fill: none;
stroke: #000;
stroke-width: 0.381;
stroke-miterlimit: 10;
}
]]></style>
</defs>
<path clip-path="url(#c0_174)" d="M954.5,1344.3H1877V32.1H954.5V1344.3Z" class="g0_174"/>
<path d="M32.1,1344.3H954.5V32.1H32.1V1344.3Z" class="g0_174"/>
<image clip-path="url(#c1_174)" preserveAspectRatio="none" x="125" y="206" width="733" height="181" xlink:href="img/1.png"/>
<path d="M143.9,231.3c0,0,-13,0,-13,13v117c0,0,0,13,13,13H832.5c0,0,13,0,13,-13v-130Z" class="g1_174"/>
<path d="M147,294.1l54.2,40.8l54,-40.8V230H264V211.9H155.2c-6.5,.4,-7.7,3.9,-8.2,8.4Z" class="g2_174"/>
<path d="M273.4,220.3c-.3,-4.7,-4.3,-8.4,-9,-8.4c-4.8,0,-8.8,3.7,-9.1,8.4V230h18.1v-9.7Z" class="g3_174"/>
<path d="M255.2,230.6H845.5" class="g4_174"/>
<path d="M150.4,440.5c0,0,-18.3,0,-18.3,18.3V975.7c0,0,0,18.3,18.3,18.3H827.5c0,0,18.4,0,18.4,-18.3V440.5Z" class="g5_174"/>
<path d="M150.4,440.5c0,0,-18.3,0,-18.3,18.3V975.7c0,0,0,18.3,18.3,18.3H827.5c0,0,18.4,0,18.4,-18.3V440.5H150.4Z" class="g6_174"/>
<path d="M145.1,1009.9c0,0,-13,0,-13,13v150.8c0,0,0,13,13,13H832.9c0,0,13,0,13,-13V1022.9c0,0,0,-13,-13,-13Z" class="g5_174"/>
<path d="M145.1,1009.9c0,0,-13,0,-13,13v150.8c0,0,0,13,13,13H832.9c0,0,13,0,13,-13V1022.9c0,0,0,-13,-13,-13H145.1Z" class="g6_174"/>
<path d="M602,1202.5c0,0,-4.4,0,-4.4,4.4v10.8c0,0,0,4.3,4.4,4.3h30.3c0,0,4.3,0,4.3,-4.3v-10.8c0,0,0,-4.4,-4.3,-4.4Z" class="g7_174"/>
<path d="M588.8,1193.7v37.6m1.3,.9H845.3m1,-1.3v-37.6m-1.4,-.9H589.7" class="g8_174"/>
<path d="M588.8,1231.6v.6h.5m256.4,0h.6v-.6m0,-38.7v-.5h-.6m-256.4,0h-.5v.5" class="g9_174"/>
<path d="M209.2,480.9c0,0,-13,0,-13,13v47.7c0,0,0,12.9,13,12.9h602c0,0,13,0,13,-12.9V493.9c0,0,0,-13,-13,-13Z" class="ga_174"/>
<image clip-path="url(#c2_174)" preserveAspectRatio="none" x="152" y="477" width="75" height="77" xlink:href="img/2.png"/>
<path d="M204,547.2c0,0,-26.8,11.3,-51.1,-12.8c0,0,15.2,25.4,49.3,24c0,0,24.8,.3,20.3,-10.1c0,0,1.2,-4.5,-18.5,-1.1Z" class="ga_174"/>
<path d="M209.2,1051.2c0,0,-13,0,-13,13v21.7c0,0,0,13,13,13h602c0,0,13,0,13,-13v-21.7c0,0,0,-13,-13,-13Z" class="ga_174"/>
<image clip-path="url(#c3_174)" preserveAspectRatio="none" x="152" y="1022" width="75" height="76" xlink:href="img/3.png"/>
<path d="M204,1091.5c0,0,-26.8,11.3,-51.1,-12.7c0,0,15.2,25.3,49.3,23.9c0,0,24.8,.4,20.3,-10.1c0,0,1.2,-4.4,-18.5,-1.1Z" class="ga_174"/>
<path d="M32.1,179.3H967.5V32.1H32.1V179.3Z" class="gb_174"/>
<path d="M262.3,134H247.1l1.2,1.2h11.8v8.2L258.5,142c.2,-.6,.3,-1.3,.3,-1.9c0,-.8,-.2,-1.6,-.6,-2.2c-.3,-.5,-.6,-.9,-1,-1.2c-.5,-.3,-.9,-.6,-1.4,-.7c-.3,-.1,-.6,-.2,-.9,-.2c-.7,0,-1.3,.2,-2,.7c-.3,.2,-.5,.5,-.7,.8c-.1,.3,-.2,.6,-.2,.9c0,.4,0,.7,.2,.9c.3,.5,.7,.7,1.2,.8c.6,.1,1.1,0,1.5,-.3c.2,-.2,.4,-.4,.6,-.6c.1,-.3,.2,-.5,.2,-.8c0,-.3,-.1,-.6,-.4,-1c.3,-.1,.5,-.1,.7,0c.2,0,.5,.1,.8,.3c.1,.2,.3,.4,.5,.7c.2,.3,.3,.6,.4,.9c.1,.3,.1,.5,.1,.7c0,.6,-.2,1.1,-.5,1.7c-.4,.8,-1.4,1.3,-2.8,1.3c-.5,0,-1.1,-.2,-1.6,-.5c-.6,-.3,-1.1,-.8,-1.5,-1.4c-.5,-.5,-.9,-1.2,-1.2,-2c-.4,-.8,-.7,-1.7,-.9,-2.7l-.7,-.3c.1,1,.3,2,.6,2.9c.2,.9,.5,1.7,.9,2.3c.3,.5,.7,1,1,1.5c.4,.4,.8,.8,1.2,1.1c.4,.3,.8,.6,1.2,.7c.5,.2,.9,.3,1.3,.3c.7,0,1.3,-.2,1.9,-.4c.5,-.3,1,-.7,1.3,-1.2c1.4,.9,2.4,2.4,2.9,4.5v-.1l.4,.3V135.2h2.2L262.3,134Zm5.5,1.2L266.7,134h-1.1c-.4,-.4,-.6,-1,-.7,-1.9l-.5,-.3c0,.2,0,.5,0,.9c.1,.3,.1,.7,.1,1.2c.1,.5,.1,.9,.1,1.3c0,.3,0,.6,0,.9c-.2,-.8,-.5,-1.3,-.9,-1.6c-.4,-.3,-1,-.5,-1.7,-.5h-1.4l1.2,1.2c.3,0,.7,.1,1,.2c.3,.1,.6,.3,.8,.5c.3,.2,.5,.4,.6,.7c.2,.3,.2,.7,.2,1v8.9l1.2,1.2V135.2h2.2Zm11.4,0L278,134H266.2l1.2,1.2h8.2v.9c-2.5,.8,-5,2.1,-7.4,3.7l1.6,2.3c1.7,.1,3,.7,4.1,1.6c.2,.3,.5,.6,.9,1c.3,.4,.6,.8,.7,1.2c.2,.3,.3,.5,.4,.7c.1,.1,.1,.2,.2,.4l.6,.8V135.2h2.5Zm-3.6,9.4c-1.1,-1.8,-2.7,-3.2,-4.9,-4.1c.9,-.6,1.7,-1.1,2.5,-1.5c.8,-.4,1.6,-.7,2.4,-1v6.6ZM289,134H276.9l1.2,1.2h4.3c.5,.4,.8,.7,.8,1c-.7,0,-1.4,.3,-1.9,.8c-.6,.5,-.9,1.1,-.9,1.8c0,.4,.2,.7,.5,.9c.3,.2,.6,.3,.9,.3c.6,0,1.1,-.2,1.6,-.7c.5,-.5,.7,-1,.7,-1.6c.2,0,.3,-.1,.4,-.1c.1,0,.3,0,.4,0c.2,0,.3,.1,.5,.2c.2,.1,.4,.2,.6,.4c.1,.2,.2,.4,.3,.7c.1,.2,.1,.5,.1,.7c.1,.8,-.4,1.5,-1.4,2c-.7,.3,-1.5,.5,-2.4,.4c-1.3,-.1,-2.4,-.4,-3.4,-1l1.4,3c.9,.2,1.8,.5,2.6,.9c.9,.3,1.8,.7,2.6,1.2c.8,.5,1.6,1,2.3,1.5c.7,.6,1.3,1.2,1.9,1.9l-.3,-1.3c-1.1,-1.1,-2.1,-2,-3,-2.8c-.9,-.8,-1.8,-1.4,-2.6,-1.9c1.2,-.3,2.1,-.7,2.7,-1.2c.8,-.6,1.2,-1.4,1.2,-2.4c0,-1,-.4,-1.8,-1,-2.5c-.4,-.5,-1.2,-.9,-2.4,-1.3c-.1,-.2,-.3,-.3,-.4,-.5c-.1,-.1,-.2,-.2,-.3,-.4h6.3L289,134Zm5.2,1.2L293,134h-1c-.4,-.4,-.6,-1,-.8,-1.9l-.4,-.3c0,.2,0,.5,0,.9c0,.3,.1,.7,.1,1.2c0,.5,.1,.9,.1,1.3c0,.3,0,.6,0,.9c-.3,-.8,-.6,-1.3,-1,-1.6c-.4,-.3,-.9,-.5,-1.7,-.5H287l1.2,1.2c.3,0,.6,.1,1,.2c.3,.1,.6,.3,.8,.5c.3,.2,.5,.4,.6,.7c.1,.3,.2,.7,.2,1v8.9l1.2,1.2V135.2h2.2Zm10.7,5.1c.7,-.7,1,-1.8,1,-3.2c0,-.4,-.1,-.7,-.3,-1c-.1,-.4,-.3,-.6,-.6,-.9c-.3,-.2,-.6,-.4,-1,-.5c-.3,-.1,-.7,-.2,-1.1,-.2c-1.2,0,-2.3,.4,-3.4,1c-.5,.4,-1,.8,-1.3,1.3c-.3,.5,-.4,1,-.4,1.5c0,1.2,.5,1.8,1.7,1.8c.8,0,1.2,-.4,1.2,-1.4c0,-.4,-.3,-.8,-.8,-1.1c.4,-.6,.9,-1.1,1.6,-1.4c.3,-.2,.7,-.3,1,-.4c.3,0,.7,-.1,1,-.1c1.1,0,1.6,.5,1.6,1.5c0,.7,-.3,1.2,-1,1.5c-.3,-.2,-.6,-.3,-1,-.3c-.4,0,-.7,.2,-1,.5c-.3,.3,-.4,.7,-.4,1.1c0,.4,.2,.8,.4,1c.3,.3,.7,.5,1.1,.5c.4,0,.8,-.2,1.1,-.6c.5,.4,.8,.8,.8,1.3c0,.3,-.1,.6,-.2,.9c-.2,.3,-.4,.5,-.6,.7c-.3,.2,-.6,.4,-.9,.5c-.4,.1,-.7,.1,-1.1,.1c-.8,0,-1.6,-.2,-2.4,-.8c-.8,-.5,-1.5,-1.2,-2.2,-2.2c-.3,-.5,-.7,-1.2,-1.1,-2.1c-.4,-1,-.8,-2,-1.2,-3.3l-.9,-.3c1.9,7.1,4.6,10.6,7.9,10.6c1.1,0,2,-.3,2.6,-.9c.7,-.6,1,-1.5,1,-2.6c0,-.8,-.3,-1.6,-1.1,-2.5Zm13.3,-5.1L317,134H305.9c.6,1,1.7,1.7,3.3,2.2c.7,.2,1.2,.4,1.7,.6c.4,.2,.7,.4,.8,.6c-.5,.4,-1.1,.8,-1.7,1.4c-.6,.5,-1.3,1.1,-1.9,1.7l1.6,2.1c1.4,.1,2.6,.5,3.5,1.2c.6,.5,1.2,1.2,1.8,2.3c.5,1,1,1.6,1.3,1.8V135.2h1.9Zm-3.1,9.5c-1.1,-1.7,-2.6,-2.9,-4.5,-3.6c.5,-.5,1,-1.1,1.5,-1.6c.4,-.5,.9,-.9,1.4,-1.4c-.6,-.7,-1.1,-1.3,-1.7,-1.8c-.5,-.5,-.9,-.9,-1.3,-1.1h4.6v9.5Zm-4.6,2c.2,.2,.5,.3,.8,.3c.4,0,.7,-.1,.9,-.3c.2,-.3,.4,-.6,.4,-.9c0,-.3,-.2,-.6,-.4,-.9c-.2,-.2,-.5,-.3,-.9,-.3c-.3,0,-.6,.1,-.8,.3c-.3,.3,-.4,.6,-.4,.9c0,.3,.1,.6,.4,.9ZM323,135.2L321.8,134h-1.1c-.3,-.4,-.6,-1,-.7,-1.9l-.5,-.3c0,.2,.1,.5,.1,.9c0,.3,0,.7,0,1.2c.1,.5,.1,.9,.1,1.3c0,.3,0,.6,0,.9c-.2,-.8,-.5,-1.3,-.9,-1.6c-.4,-.3,-1,-.5,-1.7,-.5h-1.4l1.2,1.2c.4,0,.7,.1,1,.2c.3,.1,.6,.3,.9,.5c.2,.2,.4,.4,.6,.7c.1,.3,.2,.7,.2,1v8.9l1.1,1.2V135.2H323Zm20.7,0L342.5,134c-.1,0,-.3,0,-.4,0c-.4,0,-.7,-.2,-.9,-.6c0,-.2,-.1,-.6,-.2,-1.2l-.5,-.5c0,1.1,.1,2.2,.1,3.2c.1,1.1,.1,2.1,.2,3.2h-.1c-1.5,-2.6,-3.1,-3.9,-4.9,-3.9c-.4,0,-.9,.1,-1.4,.3c-.5,.1,-1,.4,-1.6,.7c-.5,.4,-.9,.8,-1.2,1.2c-.4,.4,-.5,.9,-.5,1.3c0,.2,.1,.5,.3,.7c.2,.2,.4,.3,.6,.3c.2,0,.5,-.1,.9,-.3c.2,-.1,.4,-.1,.5,-.2c.1,0,.2,0,.3,0c.5,0,.8,.4,.8,1.2c0,.5,-.4,1.1,-1.3,1.9l1.7,.6l4.3,-4.2c.1,.1,.2,.2,.4,.4c.2,.2,.3,.4,.5,.6c.1,.3,.3,.5,.3,.7c.1,.3,.2,.5,.2,.6l-.2,6.4l1.3,1.3V135.2h2Zm-8.5,4.2c0,-.7,-.1,-1.2,-.4,-1.6c-.2,-.5,-.7,-.7,-1.4,-.7c.6,-1.1,1.5,-1.6,2.8,-1.6c.7,0,1.4,.3,1.9,.9l-2.9,3Zm20.5,-7.5c-2.3,-2.4,-4.7,-3.6,-7.3,-3.6c-.9,0,-2,.4,-3,1.2c-1.1,.9,-1.6,1.8,-1.6,2.7c0,.4,.1,.7,.4,1l.9,.8h-3.2l1.1,1.2h1.9v11.3l1.2,1.2V135.2h2.1L347,134h-1.3l-.5,-1.1c0,-.9,.6,-1.6,1.6,-2.3c1,-.7,1.9,-1,2.8,-1c.6,0,1.2,.1,1.8,.2c.6,.2,1.1,.4,1.7,.7c.6,.4,1.1,.7,1.6,1c.4,.4,.9,.7,1.2,1l-.2,-.6Zm3.7,3.3L358.2,134H346.4l1.2,1.2h8.2v.9c-2.5,.8,-5,2.1,-7.4,3.7l1.6,2.3c1.7,.1,3,.7,4.1,1.6c.2,.3,.6,.6,.9,1c.3,.4,.6,.8,.7,1c.2,.3,.3,.7,.6,1.3l.6,.8V135.2h2.5Zm-3.6,9.4c-1.1,-1.8,-2.7,-3.2,-4.9,-4.1c.9,-.6,1.7,-1.1,2.5,-1.5c.8,-.4,1.6,-.7,2.4,-1v6.6Zm-4.7,1.7c.2,.3,.5,.4,.8,.4c.4,0,.7,-.1,.9,-.4c.3,-.2,.4,-.5,.4,-.8c0,-.4,-.1,-.7,-.4,-.9c-.2,-.3,-.5,-.4,-.9,-.4c-.3,0,-.6,.1,-.8,.4c-.3,.2,-.4,.5,-.4,.9c0,.3,.1,.6,.4,.8Zm23.6,-11.1L373.4,134H357.7l1.2,1.2h4.6c0,.3,-.1,.6,-.1,.9c-.1,.3,-.2,.5,-.4,.8c-.4,.7,-.8,1,-1.3,1c-.5,-.1,-.8,-.4,-1,-.7l-.6,.8c.7,1,1.4,1.6,2.3,1.6c.5,0,1,-.4,1.6,-1.2c.2,-.4,.3,-.7,.5,-1c.1,-.4,.3,-.7,.3,-1h.1c0,1.1,.7,2,2.1,2.7c-.8,.5,-1.5,.9,-2.3,1.4c-.7,.5,-1.5,1,-2.1,1.5l1.1,1.7c.7,0,1.3,.1,1.9,.3c.6,.2,1.1,.5,1.5,.9c.2,.2,.5,.5,.7,.9c.3,.3,.5,.8,.7,1.3c.4,.7,.7,1.1,.9,1.2v-8.1h.6c.3,0,.5,.1,.8,.2c.3,.1,.5,.3,.8,.5c.2,.1,.4,.3,.6,.5c.1,.2,.2,.4,.2,.6c0,.3,0,.6,-.1,.7h-.1c0,-.1,-.1,-.1,-.2,-.2c0,0,-.1,-.1,-.2,-.1c-.2,0,-.3,0,-.5,0c-.1,0,-.3,.1,-.4,.2c-.3,.2,-.4,.5,-.4,1c0,.3,.1,.5,.3,.7c.2,.3,.5,.4,.8,.4c.4,0,.8,-.2,1.1,-.5c.3,-.4,.5,-.8,.6,-1.4c0,-2.2,-1.2,-3.6,-3.5,-4.1c.4,-.6,.6,-1.2,.6,-2c0,-.5,-.2,-1.1,-.6,-1.5h4.9Zm-6.9,2.5c-.7,0,-1.2,-.3,-1.7,-.8c-.5,-.5,-.7,-1.1,-.7,-1.7h3.3l.1,.1c0,0,.1,0,.1,0c.3,.4,.5,.8,.5,1.2c0,.8,-.6,1.2,-1.6,1.2Zm.6,7.2c-.5,-.5,-.9,-1,-1.5,-1.4c-.5,-.5,-1.1,-.9,-1.8,-1.3c.6,-.5,1.1,-.9,1.7,-1.3c.5,-.3,1.1,-.5,1.6,-.7v4.7Zm10.9,-9.7L378.1,134h-1c-.4,-.4,-.6,-1,-.8,-1.9l-.4,-.3c0,.2,0,.5,0,.9c0,.3,0,.7,.1,1.2c0,.5,0,.9,.1,1.3c0,.3,0,.6,0,.9c-.3,-.8,-.6,-1.3,-1,-1.6c-.4,-.3,-1,-.5,-1.7,-.5h-1.3l1.1,1.2c.4,0,.7,.1,1,.2c.4,.1,.7,.3,.9,.5c.2,.2,.4,.4,.6,.7c.1,.3,.2,.7,.2,1v8.9l1.2,1.2V135.2h2.2Zm11.1,0L389.2,134H377.4l1.2,1.2h8.2v.9c-2.5,.8,-5,2.1,-7.3,3.7l1.5,2.3c1.7,.1,3.1,.7,4.1,1.6c.3,.3,.6,.6,.9,1c.3,.4,.6,.8,.7,1c.2,.3,.4,.7,.6,1.3l.7,.8V135.2h2.4Zm-3.6,9.4c-1.1,-1.8,-2.7,-3.2,-4.8,-4.1c.8,-.6,1.7,-1.1,2.5,-1.5c.8,-.4,1.5,-.7,2.3,-1v6.6Zm-4.7,1.7c.2,.3,.5,.4,.9,.4c.3,0,.6,-.1,.9,-.4c.2,-.2,.3,-.5,.3,-.8c0,-.4,-.1,-.7,-.3,-.9c-.3,-.3,-.6,-.4,-.9,-.4c-.4,0,-.7,.1,-.9,.4c-.2,.2,-.4,.5,-.4,.9c0,.3,.2,.6,.4,.8ZM408.2,134H396.1l1.2,1.2h4.2c.6,.4,.9,.7,.9,1c-.8,0,-1.4,.3,-2,.8c-.6,.5,-.8,1.1,-.8,1.8c0,.4,.1,.7,.4,.9c.3,.2,.6,.3,1,.3c.5,0,1.1,-.2,1.6,-.7c.5,-.5,.7,-1,.7,-1.6c.1,0,.2,-.1,.4,-.1c.1,0,.2,0,.4,0c.1,0,.3,.1,.5,.2c.2,.1,.4,.2,.5,.4c.2,.2,.3,.4,.4,.7c.1,.2,.1,.5,.1,.7c0,.8,-.4,1.5,-1.4,2c-.7,.3,-1.6,.5,-2.5,.4c-1.2,-.1,-2.4,-.4,-3.3,-1l1.4,3c.9,.2,1.7,.5,2.6,.9c.9,.3,1.7,.7,2.5,1.2c.9,.5,1.7,1,2.3,1.5c.7,.6,1.3,1.2,1.9,1.9l-.3,-1.3c-1,-1.1,-2,-2,-2.9,-2.8c-1,-.8,-1.8,-1.4,-2.6,-1.9c1.2,-.3,2.1,-.7,2.6,-1.2c.8,-.6,1.2,-1.4,1.2,-2.4c0,-1,-.3,-1.8,-1,-2.5c-.4,-.5,-1.2,-.9,-2.4,-1.3c-.1,-.2,-.2,-.3,-.3,-.5c-.1,-.1,-.2,-.2,-.4,-.4h6.4L408.2,134Zm11.4,6.3c.7,-.7,1,-1.8,1,-3.2c0,-.4,-.1,-.7,-.2,-1c-.2,-.4,-.4,-.6,-.7,-.9c-.3,-.2,-.6,-.4,-.9,-.5c-.4,-.1,-.8,-.2,-1.2,-.2c-1.2,0,-2.3,.4,-3.3,1c-.6,.4,-1,.8,-1.3,1.3c-.4,.5,-.5,1,-.5,1.5c0,1.2,.6,1.8,1.7,1.8c.8,0,1.2,-.4,1.2,-1.4c0,-.4,-.2,-.8,-.7,-1.1c.3,-.6,.8,-1.1,1.5,-1.4c.3,-.2,.7,-.3,1,-.4c.3,0,.7,-.1,1,-.1c1.1,0,1.6,.5,1.6,1.5c0,.7,-.3,1.2,-.9,1.5c-.4,-.2,-.7,-.3,-1,-.3c-.4,0,-.8,.2,-1.1,.5c-.2,.3,-.4,.7,-.4,1.1c0,.4,.2,.8,.5,1c.3,.3,.6,.5,1,.5c.5,0,.8,-.2,1.2,-.6c.5,.4,.7,.8,.7,1.3c0,.3,0,.6,-.2,.9c-.1,.3,-.3,.5,-.6,.7c-.3,.2,-.6,.4,-.9,.5c-.3,.1,-.7,.1,-1,.1c-.9,0,-1.7,-.2,-2.5,-.8c-.8,-.5,-1.5,-1.2,-2.1,-2.2c-.4,-.5,-.7,-1.2,-1.2,-2.1c-.4,-1,-.8,-2,-1.2,-3.3l-.9,-.3c1.9,7.1,4.6,10.6,7.9,10.6c1.1,0,2,-.3,2.7,-.9c.6,-.6,1,-1.5,1,-2.6c0,-.8,-.4,-1.6,-1.2,-2.5ZM433,135.2L431.7,134H420.6c.6,1,1.7,1.7,3.3,2.2c.7,.2,1.3,.4,1.7,.6c.4,.2,.7,.4,.8,.6c-.5,.4,-1.1,.8,-1.7,1.4c-.6,.5,-1.3,1.1,-1.9,1.7l1.6,2.1c1.5,.1,2.6,.5,3.6,1.2c.5,.5,1.1,1.2,1.7,2.3c.6,1,1,1.6,1.3,1.8V135.2h2Zm-3.2,9.5c-1,-1.7,-2.5,-2.9,-4.5,-3.6c.5,-.5,1,-1.1,1.5,-1.6c.5,-.5,1,-.9,1.4,-1.4c-.6,-.7,-1.1,-1.3,-1.6,-1.8c-.5,-.5,-1,-.9,-1.4,-1.1h4.6v9.5Zm-4.6,2c.2,.2,.5,.3,.9,.3c.3,0,.6,-.1,.8,-.3c.3,-.3,.4,-.6,.4,-.9c0,-.3,-.1,-.6,-.4,-.9c-.2,-.2,-.5,-.3,-.8,-.3c-.4,0,-.7,.1,-.9,.3c-.2,.3,-.4,.6,-.4,.9c0,.3,.2,.6,.4,.9Zm12.5,-11.5L436.5,134h-1.1c-.3,-.4,-.6,-1,-.7,-1.9l-.4,-.3c0,.2,0,.5,0,.9c0,.3,0,.7,.1,1.2c0,.5,0,.9,0,1.3c.1,.3,.1,.6,.1,.9c-.3,-.8,-.6,-1.3,-1,-1.6c-.4,-.3,-1,-.5,-1.7,-.5h-1.4l1.2,1.2c.4,0,.7,.1,1,.2c.4,.1,.6,.3,.9,.5c.2,.2,.4,.4,.6,.7c.1,.3,.2,.7,.2,1v8.9l1.1,1.2V135.2h2.3Zm5.9,-1.2h-7.9l1.2,1.2h4c-1.7,2,-2.6,4,-2.6,6.1c0,1.5,.3,2.8,1,3.9c.7,1.4,1.8,2.1,3.2,2.1c.3,0,.5,0,.8,-.1c.3,-.1,.5,-.2,.7,-.4c.2,-.2,.4,-.4,.5,-.7c.1,-.2,.1,-.5,.1,-.8c0,-.4,-.1,-.9,-.4,-1.2c-.3,-.3,-.6,-.5,-1,-.5c-.4,0,-.7,.2,-1,.4c-.3,.3,-.5,.6,-.5,1c0,.2,.1,.4,.2,.7c.1,.2,.3,.4,.6,.6c-.7,.2,-1.5,-.2,-2.3,-1.3c-.4,-.7,-.6,-1.5,-.6,-2.3c0,-1,.1,-1.9,.3,-2.7c.2,-.7,.5,-1.4,.9,-2.1c.5,-.7,1,-1.3,1.7,-1.7c.6,-.5,1.4,-.8,2.3,-1L443.6,134Zm13.6,0H442.9l1.3,1.2h14.2L457.2,134Zm-.6,5.6c-.2,-.6,-.5,-1.2,-.9,-1.7c-.5,-.5,-1,-.9,-1.5,-1.1c-.6,-.3,-1.2,-.5,-1.9,-.5c-.7,0,-1.4,.3,-1.9,.7c-.6,.5,-.9,1.1,-.9,1.9c0,.6,.1,1.2,.5,1.6c.4,.5,.9,.7,1.5,.7c1.3,0,1.9,-.6,1.9,-1.7c0,-.5,-.2,-1,-.5,-1.4c.4,-.1,.7,-.2,.9,-.2c.6,0,1.1,.3,1.6,.9c.3,.6,.5,1.1,.5,1.8c0,.8,-.3,1.6,-1,2.3c-.8,.6,-1.7,1,-2.5,1c-1.7,0,-3.2,-.9,-4.5,-2.8c-.2,-.3,-.6,-1,-1,-1.8c-.4,-.9,-.9,-1.9,-1.4,-3.1l-.7,-.2c1.8,6.5,4.3,9.8,7.5,9.8c1.2,0,2.3,-.5,3.2,-1.3c.5,-.4,.8,-.8,1,-1.4c.3,-.5,.4,-1,.4,-1.6c0,-.7,-.1,-1.3,-.3,-1.9Zm23,-5.6H464.4l1.2,1.2h11.8v8.2L475.8,142c.2,-.6,.3,-1.3,.3,-1.9c0,-.8,-.2,-1.6,-.6,-2.2c-.3,-.5,-.6,-.9,-1.1,-1.2c-.4,-.3,-.8,-.6,-1.3,-.7c-.3,-.1,-.6,-.2,-.9,-.2c-.7,0,-1.4,.2,-2,.7c-.3,.2,-.5,.5,-.7,.8c-.2,.3,-.2,.6,-.2,.9c0,.4,0,.7,.2,.9c.3,.5,.7,.7,1.2,.8c.6,.1,1.1,0,1.4,-.3c.3,-.2,.5,-.4,.7,-.6c.1,-.3,.2,-.5,.2,-.8c0,-.3,-.1,-.6,-.4,-1c.2,-.1,.5,-.1,.7,0c.2,0,.5,.1,.8,.3c.1,.2,.3,.4,.5,.7c.2,.3,.3,.6,.4,.9c.1,.3,.1,.5,.1,.7c0,.6,-.2,1.1,-.5,1.7c-.5,.8,-1.4,1.3,-2.8,1.3c-.6,0,-1.1,-.2,-1.7,-.5c-.5,-.3,-1,-.8,-1.5,-1.4c-.4,-.5,-.8,-1.2,-1.2,-2c-.3,-.8,-.6,-1.7,-.8,-2.7l-.7,-.3c.1,1,.3,2,.5,2.9c.3,.9,.6,1.7,1,2.3c.3,.5,.7,1,1,1.5c.4,.4,.8,.8,1.2,1.1c.4,.3,.8,.6,1.2,.7c.4,.2,.8,.3,1.2,.3c.8,0,1.4,-.2,2,-.4c.5,-.3,.9,-.7,1.3,-1.2c1.4,.9,2.3,2.4,2.9,4.5v-.1l.4,.3V135.2h2.2L479.6,134Zm5.5,1.2L484,134h-1.1c-.4,-.4,-.6,-1,-.8,-1.9l-.4,-.3c0,.2,0,.5,0,.9c0,.3,.1,.7,.1,1.2c0,.5,.1,.9,.1,1.3c0,.3,0,.6,0,.9c-.2,-.8,-.6,-1.3,-1,-1.6c-.4,-.3,-.9,-.5,-1.6,-.5h-1.4l1.2,1.2c.3,0,.7,.1,1,.2c.3,.1,.6,.3,.8,.5c.3,.2,.5,.4,.6,.7c.2,.3,.2,.7,.2,1v8.9l1.2,1.2V135.2h2.2ZM495.5,134h-12l1.2,1.2c.5,.6,.9,1,1.2,1.2c.2,.2,.4,.3,.7,.4c.3,.2,.7,.3,1.1,.4c.8,.3,1.4,.5,1.7,.8c.4,.4,.6,1.1,.6,2.2c-.2,-.2,-.5,-.3,-.9,-.3c-.7,0,-1.3,.2,-1.7,.5c-.5,.4,-.8,1,-.8,1.6c0,.6,.2,1.1,.6,1.5c.4,.4,.9,.5,1.4,.5c.4,0,.7,0,1.1,-.2c.3,-.1,.7,-.5,1.1,-.9c1.5,.5,2.7,2,3.3,4.4l.5,.5V135.2h2.1L495.5,134Zm-2.1,9.8c-.3,-.4,-.5,-.8,-.9,-1.2c-.3,-.4,-.7,-.8,-1.2,-1.2c0,-.1,0,-.2,0,-.3v-.3c0,-1.1,-.4,-2.1,-1.1,-3.1c-.5,-.7,-1.3,-1.5,-2.6,-2.5h5.8v8.6Zm7.9,-8.6L500.1,134h-1c-.4,-.4,-.6,-1,-.8,-1.9l-.4,-.3c0,.2,0,.5,0,.9c0,.3,.1,.7,.1,1.2c0,.5,.1,.9,.1,1.3c0,.3,0,.6,0,.9c-.2,-.8,-.6,-1.3,-1,-1.6c-.4,-.3,-.9,-.5,-1.7,-.5h-1.3l1.2,1.2c.3,0,.6,.1,1,.2c.3,.1,.6,.3,.8,.5c.3,.2,.5,.4,.6,.7c.2,.3,.2,.7,.2,1v8.9l1.2,1.2V135.2h2.2Zm11.1,0L511.2,134H499.5l1.1,1.2h8.2v.9c-2.5,.8,-4.9,2.1,-7.3,3.7l1.6,2.3H503c1.7,.1,3.1,.7,4.1,1.6c.3,.3,.6,.6,.9,1c.4,.4,.6,.8,.8,1c.1,.3,.3,.7,.5,1.3l.7,.8V135.2h2.4Zm-3.6,9.4c-1,-1.8,-2.6,-3.2,-4.8,-4.1c.9,-.6,1.7,-1.1,2.5,-1.5c.8,-.4,1.6,-.7,2.3,-1v6.6Zm-4.7,1.7c.3,.3,.6,.4,.9,.4c.3,0,.6,-.1,.9,-.4c.2,-.2,.3,-.5,.3,-.8c0,-.4,-.1,-.7,-.3,-.9c-.3,-.3,-.6,-.4,-.9,-.4c-.3,0,-.6,.1,-.9,.4c-.2,.2,-.3,.5,-.3,.9c0,.3,.1,.6,.3,.8ZM530.4,134H518.3l1.3,1.2c.4,.6,.8,1,1.1,1.2c.2,.2,.5,.3,.8,.4c.3,.2,.6,.3,1.1,.4c.8,.3,1.3,.5,1.6,.8c.5,.4,.7,1.1,.7,2.2c-.3,-.2,-.6,-.3,-1,-.3c-.7,0,-1.3,.2,-1.7,.5c-.5,.4,-.8,1,-.8,1.6c0,.6,.2,1.1,.6,1.5c.4,.4,.9,.5,1.5,.5c.3,0,.6,0,1,-.2c.4,-.1,.7,-.5,1.1,-.9c1.6,.5,2.7,2,3.3,4.4l.5,.5V135.2h2.2L530.4,134Zm-2.2,9.8c-.2,-.4,-.5,-.8,-.9,-1.2c-.3,-.4,-.7,-.8,-1.2,-1.2c0,-.1,.1,-.2,.1,-.3v-.3c0,-1.1,-.4,-2.1,-1.2,-3.1c-.4,-.7,-1.3,-1.5,-2.5,-2.5h5.8v8.6h-.1Zm14.7,-8.6L541.6,134H530l1.2,1.2h8.4v6.6h-.1c-1.2,-2.6,-2.7,-4,-4.4,-4c-.8,0,-1.5,.3,-2.1,.9c-.6,.5,-.9,1.2,-.9,2c0,1.5,.8,2.2,2.4,2.2c.5,0,.9,-.2,1.2,-.5c.3,-.4,.4,-.8,.4,-1.3c0,-.3,-.3,-.8,-.8,-1.5c.1,-.1,.2,-.1,.4,-.1c1.2,0,2.3,.8,3.3,2.5c.6,1.4,.9,2.9,.9,4.2l-.1,1.3l1,.6V135.2h2.1Zm20.8,0L562.5,134H549.1l1.2,1.2h13.4Zm-1.7,2.9c-.3,-.5,-.6,-.9,-.9,-1.1c-.3,-.3,-.5,-.5,-.8,-.5c-.2,.3,-.4,.6,-.6,.9c-.2,.3,-.4,.6,-.6,.8c-.6,.7,-1.2,1,-1.7,.9c.3,-.4,.5,-.9,.5,-1.2c0,-.4,-.2,-.8,-.5,-1.1c-.3,-.2,-.6,-.4,-1,-.4c-1.4,0,-2,.7,-2,1.9c0,.8,.3,1.4,.9,1.9c.5,.4,1.1,.6,1.9,.6c1.5,0,2.8,-.6,3.8,-1.9c.4,0,.6,.6,.6,1.7c0,.9,-.3,1.7,-1,2.3c-.6,.7,-1.4,1,-2.3,1c-.8,0,-1.7,-.2,-2.4,-.7c-.8,-.4,-1.5,-1,-2.1,-1.7c-.5,-.6,-.9,-1.4,-1.3,-2.2c-.4,-.8,-.8,-1.7,-1.1,-2.7l-.7,-.2c.5,1.4,.9,2.7,1.3,3.7c.4,1,.8,1.8,1.1,2.3c1.4,2.3,3,3.5,5,3.5c1.4,0,2.5,-.6,3.4,-1.6c.4,-.5,.8,-1.1,1,-1.7c.2,-.6,.3,-1.3,.3,-2c0,-.7,-.3,-1.5,-.8,-2.5Zm6.4,-2.9L567.2,134h-1c-.4,-.4,-.6,-1,-.8,-1.9l-.4,-.3c0,.2,0,.5,0,.9c0,.3,.1,.7,.1,1.2c0,.5,.1,.9,.1,1.3c0,.3,0,.6,0,.9c-.3,-.8,-.6,-1.3,-1,-1.6c-.4,-.3,-.9,-.5,-1.7,-.5h-1.3l1.2,1.2c.3,0,.6,.1,1,.2c.3,.1,.6,.3,.8,.5c.3,.2,.5,.4,.6,.7c.1,.3,.2,.7,.2,1v8.9l1.2,1.2V135.2h2.2Zm12.6,0L579.8,134H566.5l1.3,1.2h9.8v3.3c-.5,-1.3,-1.3,-2,-2.3,-2c-.3,0,-.6,.2,-.9,.5c-.4,.3,-.5,.6,-.5,1c-.8,-1,-1.8,-1.6,-2.8,-1.6c-.8,0,-1.4,.4,-2,1.2c-.4,.7,-.6,1.4,-.6,2.3c0,.5,0,1,.2,1.4c.2,.4,.4,.8,.7,1.1c.3,.3,.7,.5,1.1,.7c.5,.1,.9,.2,1.4,.2c.7,-.1,1.2,-.2,1.5,-.5c.3,-.3,.5,-.7,.5,-1.2c0,-1.1,-.6,-1.7,-1.7,-1.7c-.3,0,-.6,.1,-.9,.3c-.3,.3,-.4,.6,-.4,1c0,.2,.1,.6,.4,1c-1.2,-.2,-1.7,-.8,-1.7,-1.7c0,-.3,0,-.6,.1,-.9c.2,-.3,.3,-.5,.5,-.7c.2,-.2,.5,-.4,.7,-.5c.3,-.1,.6,-.2,.9,-.2c.7,0,1.3,.2,1.8,.6c.5,.4,.8,1,1,1.6l.5,-.2c-.1,-.3,-.2,-.5,-.2,-.7c0,-.9,.4,-1.3,1.1,-1.3c.4,0,.8,.2,1.1,.5c.3,.3,.4,.7,.4,1.1v6.9l1.3,1.1V135.2H581Z" class="gc_174"/>
<g clip-path="url(#c0_174)">
<path d="M1877,177.2H32.1v-5.4H768.7c43.1,0,53,-37.9,115.3,-37.9h993Z" class="gd_174"/>
<path d="M1877,183.7H32.1v-9.8H768.7c43.1,0,53,-33.6,115.3,-33.6h993Z" class="ge_174"/>
</g>
<path d="M131.7,414.2v39l11.7,10.3V419.2Z" class="gf_174"/>
<path d="M131.7,414.2v39H829.5c0,0,16.8,0,16.8,-16.8V431c0,0,0,-16.8,-16.8,-16.8Z" class="g7_174"/>
<path d="M781,447.8c8.2,0,14.8,-6.5,14.8,-14.5c0,-8,-6.6,-14.5,-14.8,-14.5c-8.3,0,-14.9,6.5,-14.9,14.5c0,8,6.6,14.5,14.9,14.5Z" class="gg_174"/>
<path d="M781,447.8c8.2,0,14.8,-6.5,14.8,-14.5c0,-8,-6.6,-14.5,-14.8,-14.5c-8.3,0,-14.9,6.5,-14.9,14.5c0,8,6.6,14.5,14.9,14.5Z" class="gh_174"/>
<path d="M781,438.7c3,0,5.4,-2.4,5.4,-5.4c0,-3,-2.4,-5.3,-5.4,-5.3c-3.1,0,-5.5,2.3,-5.5,5.3c0,3,2.4,5.4,5.5,5.4Z" class="g5_174"/>
<path d="M781,438.7c3,0,5.4,-2.4,5.4,-5.4c0,-3,-2.4,-5.3,-5.4,-5.3c-3.1,0,-5.5,2.3,-5.5,5.3c0,3,2.4,5.4,5.5,5.4Z" class="gi_174"/>
<g clip-path="url(#c4_174)" opacity="0.3">
<path d="M766.4,432.5c0,0,-.1,-4.8,3.6,-8.6l7.8,6.7c0,0,-1,.9,-1.1,2.7Z" class="g5_174"/>
</g>
<path d="M785.6,433.2c0,0,-3.5,0,-3.5,3.5v8.7c0,0,0,3.4,3.5,3.4H829c0,0,3.5,0,3.5,-3.4v-8.7c0,0,0,-3.5,-3.5,-3.5Z" class="g3_174"/>
<path d="M169.5,424.3c0,-8.4,-6.7,-15.1,-15,-15.1c-8.4,0,-15.1,6.7,-15.1,15.1c0,8.3,6.8,15,15.1,15c.8,0,1.6,-.1,2.4,-.2l4.5,5.2v-6.7c4.8,-2.5,8.1,-7.5,8.1,-13.3Z" class="g5_174"/>
<path d="M161.8,445.6l-5.1,-6c-.7,.1,-1.5,.2,-2.2,.2c-8.6,0,-15.6,-7,-15.6,-15.5c0,-8.6,7,-15.5,15.6,-15.5c8.5,0,15.5,6.9,15.5,15.5c0,5.7,-3.1,10.9,-8.2,13.6Zm-4.7,-7l3.8,4.5v-5.7l.3,-.2c4.8,-2.5,7.9,-7.5,7.9,-12.9c0,-8.1,-6.6,-14.6,-14.6,-14.6c-8.1,0,-14.6,6.5,-14.6,14.6c0,8,6.5,14.6,14.6,14.6c.7,0,1.5,-.1,2.3,-.2Z" class="gj_174"/>
<path d="M147.4,423.8c.8,0,1.5,.7,1.5,1.5c0,.8,-.7,1.4,-1.5,1.4c-.7,0,-1.4,-.6,-1.4,-1.4c0,-.8,.7,-1.5,1.4,-1.5Z" class="gk_174"/>
<path d="M147.4,427.2c-1,0,-1.8,-.9,-1.8,-1.9c0,-1.1,.8,-1.9,1.8,-1.9c1.1,0,1.9,.8,1.9,1.9c0,1,-.8,1.9,-1.9,1.9m0,-2.9c-.5,0,-.9,.4,-.9,1c0,.5,.4,1,.9,1c.6,0,1,-.5,1,-1c0,-.6,-.4,-1,-1,-1Z" class="gj_174"/>
<path d="M154.5,423.8c.8,0,1.4,.7,1.4,1.5c0,.8,-.6,1.4,-1.4,1.4c-.8,0,-1.5,-.6,-1.5,-1.4c0,-.8,.7,-1.5,1.5,-1.5Z" class="gk_174"/>
<path d="M154.5,427.2c-1.1,0,-1.9,-.9,-1.9,-1.9c0,-1.1,.8,-1.9,1.9,-1.9c1,0,1.9,.8,1.9,1.9c0,1,-.9,1.9,-1.9,1.9m0,-2.9c-.6,0,-1,.4,-1,1c0,.5,.4,1,1,1c.5,0,.9,-.5,.9,-1c0,-.6,-.4,-1,-.9,-1Z" class="gj_174"/>
<path d="M161.5,423.8c.8,0,1.4,.7,1.4,1.5c0,.8,-.6,1.4,-1.4,1.4c-.8,0,-1.5,-.6,-1.5,-1.4c0,-.8,.7,-1.5,1.5,-1.5Z" class="gk_174"/>
<path d="M161.5,427.2c-1.1,0,-1.9,-.9,-1.9,-1.9c0,-1.1,.8,-1.9,1.9,-1.9c1,0,1.9,.8,1.9,1.9c0,1,-.9,1.9,-1.9,1.9m0,-2.9c-.6,0,-1,.4,-1,1c0,.5,.4,1,1,1c.5,0,1,-.5,1,-1c0,-.6,-.5,-1,-1,-1Z" class="gj_174"/>
<path d="M163.4,438.5c0,-9.7,7.9,-17.6,17.6,-17.6c9.7,0,17.6,7.9,17.6,17.6c0,9.7,-7.9,17.6,-17.6,17.6c-.9,0,-1.9,-.1,-2.8,-.2l-5.3,6.1v-7.8c-5.6,-3,-9.5,-8.9,-9.5,-15.7Z" class="gl_174"/>
<path d="M172.9,462.5c0,0,-.1,-.1,-.1,-.1c-.2,0,-.3,-.2,-.3,-.4v-7.6c-5.9,-3.1,-9.6,-9.2,-9.6,-15.9c0,-10,8.2,-18.1,18.1,-18.1c10,0,18.1,8.1,18.1,18.1c0,10,-8.1,18.1,-18.1,18.1c-.8,0,-1.7,-.1,-2.6,-.2l-5.1,5.9c-.1,.1,-.2,.2,-.4,.2M181,421.4c-9.4,0,-17.1,7.6,-17.1,17.1c0,6.5,3.5,12.3,9.2,15.2c.2,.1,.3,.3,.3,.5v6.6l4.4,-5.2c.1,-.1,.3,-.2,.5,-.2c.9,.2,1.8,.3,2.7,.3c9.5,0,17.2,-7.7,17.2,-17.2c0,-9.5,-7.7,-17.1,-17.2,-17.1Z" class="gj_174"/>
<path d="M189.2,438c.9,0,1.7,.8,1.7,1.7c0,.9,-.8,1.7,-1.7,1.7c-.9,0,-1.7,-.8,-1.7,-1.7c0,-.9,.8,-1.7,1.7,-1.7Z" class="g5_174"/>
<path d="M189.2,441.8c-1.2,0,-2.1,-.9,-2.1,-2.1c0,-1.2,.9,-2.1,2.1,-2.1c1.2,0,2.1,.9,2.1,2.1c0,1.2,-.9,2.1,-2.1,2.1m0,-3.3c-.7,0,-1.2,.5,-1.2,1.2c0,.6,.5,1.2,1.2,1.2c.7,0,1.2,-.6,1.2,-1.2c0,-.7,-.5,-1.2,-1.2,-1.2Z" class="gj_174"/>
<path d="M181,438c.9,0,1.7,.8,1.7,1.7c0,.9,-.8,1.7,-1.7,1.7c-.9,0,-1.7,-.8,-1.7,-1.7c0,-.9,.8,-1.7,1.7,-1.7Z" class="g5_174"/>
<path d="M181,441.8c-1.2,0,-2.1,-.9,-2.1,-2.1c0,-1.2,.9,-2.1,2.1,-2.1c1.2,0,2.1,.9,2.1,2.1c0,1.2,-.9,2.1,-2.1,2.1m0,-3.3c-.7,0,-1.2,.5,-1.2,1.2c0,.6,.5,1.2,1.2,1.2c.7,0,1.2,-.6,1.2,-1.2c0,-.7,-.5,-1.2,-1.2,-1.2Z" class="gj_174"/>
<path d="M172.8,438c.9,0,1.7,.8,1.7,1.7c0,.9,-.8,1.7,-1.7,1.7c-.9,0,-1.7,-.8,-1.7,-1.7c0,-.9,.8,-1.7,1.7,-1.7Z" class="g5_174"/>
<path d="M172.8,441.8c-1.2,0,-2.1,-.9,-2.1,-2.1c0,-1.2,.9,-2.1,2.1,-2.1c1.2,0,2.1,.9,2.1,2.1c0,1.2,-.9,2.1,-2.1,2.1m0,-3.3c-.7,0,-1.2,.5,-1.2,1.2c0,.6,.5,1.2,1.2,1.2c.7,0,1.2,-.6,1.2,-1.2c0,-.7,-.5,-1.2,-1.2,-1.2Z" class="gj_174"/>
<path d="M483,632c9.6,-1.4,17.2,-6.8,19,-13.7m-.5,-8C498.8,603.8,491,598.9,481.4,598m-8.2,.2c-9.7,1.4,-17.2,6.8,-19.1,13.6m.6,8.1c2.6,6.5,10.5,11.3,20.1,12.3" class="gm_174"/>
<path d="M502.4,616.7c0,-.5,.1,-1.1,.1,-1.6c0,-.6,-.1,-1.1,-.1,-1.6M479.7,597.9c-.5,0,-1.1,0,-1.6,0c-.6,0,-1.1,0,-1.7,0m-22.6,15.6c-.1,.5,-.1,1,-.1,1.6c0,.5,0,1.1,.1,1.6m22.6,15.6c.6,0,1.1,0,1.7,0c.5,0,1.1,0,1.6,0" class="gn_174"/>
<image clip-path="url(#c5_174)" preserveAspectRatio="none" x="86" y="577" width="240" height="246" xlink:href="img/4.png"/>
<path d="M105.2,581.2L91.3,804.4l215.2,12.5L320.4,593.7Z" class="go_174"/>
<image clip-path="url(#c6_174)" preserveAspectRatio="none" x="92" y="583" width="227" height="236" xlink:href="img/5.png"/>
<path d="M97.4,587.6l1,224.5l160.9,.1L313,803.5L312.3,588Z" class="gp_174"/>
<path d="M313.1,803.4l-53.6,8.9l36.3,-25.6Z" class="gq_174"/>
<path d="M456.8,600c-14.5,-4.9,-33.2,-4.7,-40.5,-4.3m-7.4,1.6c-10.5,3.3,-37.3,10.2,-52.4,1.1" class="gr_174"/>
<path d="M353.6,592.8c.2,-2.7,1.5,-5.4,6.6,-3.1m3.4,5.3c.5,4.6,-2,10.8,-22.1,4.7" class="gs_174"/>
<path d="M334.6,596.8C324.7,592,298.1,581.1,270.1,584.6" class="gr_174"/>
<path d="M461.1,601.6c-.5,-.2,-1,-.4,-1.4,-.6m-44.9,-5.2c-1,0,-1.5,.1,-1.5,.1c0,0,-.5,.1,-1.4,.5m-56.7,1.2c-.4,-.3,-.8,-.6,-1.2,-.9c0,0,-.1,-.5,-.2,-1.3m7.5,-5.1c.4,.2,.8,.4,1.2,.6c0,0,.2,.6,.5,1.4m-22.9,7c-.4,-.1,-.9,-.3,-1.3,-.4c0,0,-.5,-.3,-1.4,-.7M268.6,584.8c-.5,.1,-1,.1,-1.5,.2" class="gt_174"/>
<path d="M264.6,581l2.8,8.4l-12.2,-.7Z" class="gu_174"/>
<image clip-path="url(#c7_174)" x="200" y="588" width="6" height="10" xlink:href="shade/1.png"/>
<image clip-path="url(#c8_174)" x="200" y="562" width="24" height="28" xlink:href="shade/2.png"/>
<image clip-path="url(#c9_174)" x="199" y="564" width="24" height="34" xlink:href="shade/3.png"/>
<image clip-path="url(#ca_174)" x="205" y="560" width="20" height="10" xlink:href="shade/4.png"/>
<image clip-path="url(#cb_174)" preserveAspectRatio="none" x="76" y="829" width="239" height="181" xlink:href="img/6.png"/>
<path d="M94.2,834.1l-14,148.2l214.5,21.6L308.6,855.8Z" class="go_174"/>
<image clip-path="url(#cc_174)" preserveAspectRatio="none" x="79" y="835" width="231" height="169" xlink:href="img/7.png"/>
<path d="M89.2,839.1L84.8,990.2l160.8,6.9l54,-4.9l4.3,-143.8Z" class="gp_174"/>
<path d="M298.9,992l-53.5,5.3l41.4,-21.7Z" class="gq_174"/>
<image clip-path="url(#cd_174)" x="194" y="845" width="5" height="10" xlink:href="shade/5.png"/>
<image clip-path="url(#ce_174)" x="193" y="819" width="24" height="28" xlink:href="shade/6.png"/>
<image clip-path="url(#cf_174)" x="193" y="821" width="23" height="34" xlink:href="shade/7.png"/>
<image clip-path="url(#cg_174)" x="198" y="817" width="20" height="10" xlink:href="shade/8.png"/>
<path d="M444.5,919.3c17.5,-.8,31.5,-6.7,34.3,-14.2m-.6,-6.9c-4,-7.1,-18,-12.4,-35.1,-13m-7.2,.1c-17.4,.8,-31.4,6.7,-34.2,14.2m.6,6.9c4,7.1,18,12.5,35.1,13" class="gv_174"/>
<path d="M479.2,903.7c0,-.4,.1,-.9,.1,-1.4c0,-.5,-.1,-.9,-.1,-1.4M441.7,885.2c-.5,0,-1,0,-1.5,0c-.5,0,-.9,0,-1.4,0m-37.5,15.7c-.1,.5,-.1,.9,-.1,1.4c0,.5,0,1,.1,1.4m37.5,15.7c.5,0,.9,0,1.4,0c.5,0,1,0,1.5,0" class="gn_174"/>
<path d="M402.5,891.1C392.2,884.5,361.9,868,329.6,879m-4.5,4c-.1,1.1,.1,2.1,1.5,2.9" class="gs_174"/>
<path d="M332,879.5c-3.8,-3,-11.1,-6.3,-23.1,-2.5" class="gr_174"/>
<path d="M301.6,879.1c-7.7,1.3,-24.6,2.1,-43.8,-10.8" class="gs_174"/>
<path d="M406.2,893.6c0,0,-.4,-.3,-1.2,-.9M328.1,879.5c-.4,.2,-.9,.3,-1.4,.5c0,0,-.3,.4,-.7,.9m1.7,5.5c.3,.1,.7,.2,1.1,.3c0,0,1,.4,2.2,.4m3.6,-2c.3,-.5,.5,-1.2,.6,-2.1c0,0,-.3,-.5,-.9,-1.3m-26.9,-4.2c-.5,.2,-1,.4,-1.5,.6c0,0,-.5,.1,-1.4,.4M256.6,867.4c-.4,-.3,-.8,-.6,-1.2,-.9" class="gt_174"/>
<path d="M256.9,873.4l2.8,-8.4l-12.1,.7Z" class="gu_174"/>
<path d="M32.1,45.1H9.2m958.3,0h22.9M32.1,1331.3H9.2m958.3,0h22.9M45.1,32.1V9.2m0,1335.1v22.9M954.5,32.1V9.2m0,1335.1v22.9" class="gw_174"/>
<path d="M32.1,45.1H9.2m958.3,0h22.9M32.1,1331.3H9.2m958.3,0h22.9M45.1,32.1V9.2m0,1335.1v22.9M954.5,32.1V9.2m0,1335.1v22.9" class="gx_174"/>
<path d="M27.5,32.1H0m972.1,0h27.5M27.5,1344.3H0m972.1,0h27.5M32.1,27.5V0m0,1348.9v27.5M967.5,27.5V0m0,1348.9v27.5" class="gw_174"/>
<path d="M27.5,32.1H0m972.1,0h27.5M27.5,1344.3H0m972.1,0h27.5M32.1,27.5V0m0,1348.9v27.5M967.5,27.5V0m0,1348.9v27.5" class="gx_174"/>
</svg>