<?xml version="1.0" encoding="UTF-8" standalone="no"?>
<!DOCTYPE svg PUBLIC "-//W3C//DTD SVG 1.1//EN"
"http://www.w3.org/Graphics/SVG/1.1/DTD/svg11.dtd">
<svg viewBox="0 0 999 1376" version="1.1" xmlns="http://www.w3.org/2000/svg" xmlns:xlink="http://www.w3.org/1999/xlink">
<defs>
<clipPath id="c0_93"><path d="M134.5,442.6V284.2h176V442.6Z"/></clipPath>
<clipPath id="c1_93"><path d="M131.8,447.6V279.9H312.7V447.6Z"/></clipPath>
<clipPath id="c2_93"><path d="M199.2,243.8l-6.5,-2.1L176.3,227.8V170.7h72v73.1Z"/></clipPath>
<clipPath id="c3_93"><path d="M199.2,694.8l-6.5,-2.1l-16.4,-14V621.6h72v73.2Z"/></clipPath>
<clipPath id="c4_93"><path d="M786.5,132.5V120.1H801v12.4Z"/></clipPath>
<clipPath id="c5_93"><path d="M681.5,537.8V354.1H891.6V537.8Z"/></clipPath>
<clipPath id="c6_93"><path d="M678.9,541.4V347.8H893.4V541.4Z"/></clipPath>
<clipPath id="c7_93"><path d="M773.2,372c-.3,-.1,3.5,-8.3,3.5,-8.3l.8,.5c0,0,-4,7.8,-4.3,7.8Z"/></clipPath>
<clipPath id="c8_93"><path d="M780.7,364.2c0,0,-6.9,-1.1,-7.6,-5.2c-.7,-3.6,1.5,-3.8,2.1,-3.8c0,0,.1,0,.1,0l8.3,-12.8l-1.5,-3c0,0,-.5,-1.2,.2,-2.1c0,-.1,.1,-.1,.3,-.1c2.1,0,12.9,5.5,12.9,5.5l.1,.2c-.4,.5,-.7,1.1,-1.4,1.6c-.6,.5,-5.1,1.2,-5.1,1.2l-8.4,18.5Z"/></clipPath>
<clipPath id="c9_93"><path d="M780.3,363.9c.2,-.5,.2,-1.8,0,-2.3v-1.4c-1.6,-.5,-2.9,-1.2,-3.7,-2.5c-1.1,.6,-2.1,1.2,-3.1,1.9c1.5,2.1,3.8,3.6,6.8,4.3Zm0,-3.9c2.2,-4.6,3.9,-9.5,6.1,-14.1c-.9,-.4,-1.8,-1.3,-2.6,-1.4c-2.3,4.3,-4.6,8.7,-7.1,12.8c.8,1.4,2.1,2,3.6,2.7ZM773,372c1,-2.8,2.4,-5.4,3.5,-8.3c-2,-1.5,-3.9,-3.1,-4.4,-6.1v-1.5c-.1,-2.7,1.9,-3.4,4.5,-3.4c.1,0,.2,0,.3,0c1.9,-3.3,4.2,-6.3,6.1,-9.7c-.5,-.8,-1.1,-2.3,-.9,-3.6c.6,1.2,1.7,1.9,2.4,2.9c-.1,.6,-.2,1.1,-.3,1.7c.5,.7,1.3,1.2,2.3,1.4c.5,-.4,.6,-1.2,1.2,-1.5c.9,.4,1.8,.7,3.1,.7c.1,.2,.5,.2,.8,.2c.4,0,.7,0,.9,-.2c.1,.1,.2,.1,.3,.1c.2,0,.4,-.1,.6,-.1c.2,-.1,.3,-.2,.5,-.2c.1,0,.2,0,.3,.1c-1.3,.7,-2.2,1.8,-4.2,1.8c-.1,0,-.2,0,-.3,0c-.9,3.7,-1.9,7.3,-2.7,11.2c.6,1,1.6,1.7,1.3,3.1c-.5,2.7,-3.8,4.4,-7.2,4.4c-1.3,0,-2.5,-.2,-3.6,-.8c-1,2.2,-2.1,4.2,-3.3,6.1c0,-.4,.3,-.4,.3,-.8c.9,-1.8,1.9,-3.6,2.6,-5.6c-1,1.7,-1.8,3.7,-2.7,5.5c-.3,.4,-.5,.8,-.7,1.3c-.3,.4,-.3,1.1,-.7,1.3Z"/></clipPath>
<clipPath id="ca_93"><path d="M790.7,344.3c-4.8,0,-13.1,-7.3,-5.5,-8.8h1.2c.2,0,.3,0,.5,0q.1,0,.2,0c.3,0,.7,0,1.1,.1c3.1,.6,8.2,3.8,7.5,7c-.2,1.2,-1.5,1.6,-3.1,1.7h-1.8c0,0,-.1,0,-.1,0Z"/></clipPath>
<clipPath id="cb_93"><path d="M204.8,303c-.3,-.1,3.5,-8.3,3.5,-8.3l.8,.6c0,0,-4,7.7,-4.3,7.7Z"/></clipPath>
<clipPath id="cc_93"><path d="M212.3,295.2c0,0,-6.9,-1.1,-7.6,-5.2c-.7,-3.6,1.5,-3.8,2.1,-3.8c0,0,.1,0,.1,0l8.3,-12.7l-1.5,-3.1c0,0,-.6,-1.1,.2,-2.1c0,-.1,.1,-.1,.3,-.1c2.1,0,12.9,5.5,12.9,5.5l.1,.2c-.4,.5,-.7,1.1,-1.4,1.6c-.7,.5,-5.1,1.2,-5.1,1.2l-8.4,18.5Z"/></clipPath>
<clipPath id="cd_93"><path d="M211.9,294.9c.2,-.5,.2,-1.8,0,-2.3v-1.4c-1.6,-.5,-2.9,-1.2,-3.7,-2.5c-1.1,.6,-2.1,1.3,-3.1,1.9c1.5,2.1,3.8,3.6,6.8,4.3Zm0,-3.9c2.2,-4.6,3.9,-9.5,6.1,-14.1c-.9,-.4,-1.8,-1.3,-2.6,-1.4c-2.3,4.4,-4.6,8.7,-7.1,12.8c.8,1.4,2.1,2.1,3.6,2.7Zm-7.3,12.1c1,-2.9,2.4,-5.5,3.5,-8.3c-2,-1.6,-3.9,-3.2,-4.4,-6.2v-1.5c-.1,-2.7,1.9,-3.4,4.6,-3.4c0,0,.1,0,.2,0c1.9,-3.3,4.2,-6.3,6.1,-9.7c-.5,-.8,-1.1,-2.3,-.9,-3.6c.6,1.2,1.7,1.9,2.4,2.9c-.1,.6,-.3,1.1,-.3,1.7c.5,.7,1.3,1.2,2.3,1.4c.5,-.4,.6,-1.2,1.2,-1.5c.9,.4,1.8,.8,3.1,.8c.1,.1,.5,.1,.8,.1c.4,0,.7,0,.8,-.1c.2,0,.3,0,.4,0c.2,0,.4,-.1,.6,-.1c.2,-.1,.3,-.2,.5,-.2c.1,0,.2,.1,.3,.1c-1.3,.7,-2.2,1.8,-4.2,1.8c-.1,0,-.2,0,-.3,0c-.9,3.7,-1.9,7.4,-2.7,11.2c.6,1,1.5,1.7,1.3,3.1c-.5,2.7,-3.9,4.4,-7.2,4.4c-1.3,0,-2.5,-.2,-3.6,-.7c-1,2.1,-2.1,4.1,-3.3,6c0,-.4,.3,-.4,.3,-.8c.9,-1.8,1.9,-3.5,2.6,-5.6c-1,1.7,-1.8,3.7,-2.7,5.5c-.3,.4,-.5,.9,-.7,1.3c-.3,.4,-.3,1.1,-.7,1.4Z"/></clipPath>
<clipPath id="ce_93"><path d="M222.3,275.3c-4.8,0,-13.1,-7.3,-5.5,-8.8H218c.2,0,.4,0,.7,0q.1,0,.2,0c.2,0,.5,0,.9,.1c3.1,.7,8.2,3.8,7.5,7c-.2,1.2,-1.5,1.6,-3.1,1.7h-1.8c0,0,-.1,0,-.1,0Z"/></clipPath>
<style type="text/css"><![CDATA[
.g0_93{
fill: #FEFCF4;
}
.g1_93{
fill: #FFF;
}
.g2_93{
fill: none;
stroke: #6381B7;
stroke-width: 0.763;
}
.g3_93{
fill: #F7C2D9;
}
.g4_93{
fill: #FDF4F3;
}
.g5_93{
fill: #EC008C;
}
.g6_93{
fill: none;
stroke: #949698;
stroke-width: 0.305;
stroke-dasharray: 4,4;
}
.g7_93{
fill: none;
stroke: #949698;
stroke-width: 0.305;
}
.g8_93{
fill: #6D6F71;
}
.g9_93{
fill: #6381B7;
}
.ga_93{
fill: none;
stroke: #6381B7;
stroke-width: 0.381;
stroke-dasharray: 2,1;
}
.gb_93{
fill: none;
stroke: #6381B7;
stroke-width: 0.381;
}
.gc_93{
fill: #FCE8B0;
}
.gd_93{
fill: #25408F;
}
.ge_93{
fill: #A8AAAD;
}
.gf_93{
fill: none;
stroke: #949698;
stroke-width: 0.549;
}
.gg_93{
fill: none;
stroke: #BCBEC0;
stroke-width: 2.566;
}
.gh_93{
fill: #231F20;
}
.gi_93{
fill: #363637;
}
.gj_93{
fill: #5CC4BE;
}
.gk_93{
fill: #F0D73F;
}
.gl_93{
fill: none;
stroke: #949698;
stroke-width: 0.305;
stroke-dasharray: 3,3;
}
.gm_93{
fill: none;
stroke: #00ABE5;
stroke-width: 2.291;
}
.gn_93{
fill: #3D3B39;
}
.go_93{
fill: #E5E9B7;
}
.gp_93{
fill: #61C7CB;
}
.gq_93{
fill: none;
stroke: #00ABE5;
stroke-width: 1.527;
stroke-linecap: round;
stroke-linejoin: round;
stroke-dasharray: 0,5;
}
.gr_93{
fill: none;
stroke: #00ABE5;
stroke-width: 1.527;
stroke-linecap: round;
stroke-linejoin: round;
}
.gs_93{
fill: #D2D3D5;
}
.gt_93{
fill: #DCE2F0;
}
.gu_93{
fill: none;
stroke: #231F20;
stroke-width: 0.305;
stroke-miterlimit: 10;
}
.gv_93{
fill: none;
stroke: #FFF;
stroke-width: 1.909;
stroke-miterlimit: 10;
}
.gw_93{
fill: none;
stroke: #000;
stroke-width: 0.381;
stroke-miterlimit: 10;
}
]]></style>
</defs>
<path d="M45.1,1344.3H967.5V32.1H45.1V1344.3Z" class="g0_93"/>
<path d="M172.1,137.3c0,0,-18.4,0,-18.4,18.4V553c0,0,0,18.3,18.4,18.3H849.2c0,0,18.3,0,18.3,-18.3V137.3Z" class="g1_93"/>
<path d="M172.1,137.3c0,0,-18.4,0,-18.4,18.4V553c0,0,0,18.3,18.4,18.3H849.2c0,0,18.3,0,18.3,-18.3V137.3H172.1Z" class="g2_93"/>
<image clip-path="url(#c0_93)" preserveAspectRatio="none" x="134" y="285" width="176" height="158" xlink:href="img/1.png"/>
<path d="M139.3,291.8l1.9,144.8L304.3,434L302.4,289.2Z" class="g3_93"/>
<image clip-path="url(#c1_93)" preserveAspectRatio="none" x="131" y="280" width="181" height="168" xlink:href="img/2.png"/>
<path d="M136.9,297.1l8.2,144.2L256,433.8l50.8,-13.9L296.1,285Z" class="g4_93"/>
<path d="M307,421.9l-42.7,11.3l28,-23.2Z" class="g5_93"/>
<path d="M490.9,314.6c6,-1.8,10.7,-6.8,11.9,-13.1m-.4,-8.3c-1.8,-6,-6.9,-10.6,-13.1,-11.9m-8.3,.4c-6.1,1.8,-10.7,6.9,-11.9,13.1m.4,8.3c1.8,6.1,6.9,10.7,13.1,11.9" class="g6_93"/>
<path d="M503,299.8c.1,-.5,.1,-1.1,.1,-1.6c0,-.6,0,-1.2,-.1,-1.7M487.6,281.1c-.5,-.1,-1.1,-.1,-1.7,-.1c-.5,0,-1.1,0,-1.6,.1m-15.4,15.4c-.1,.5,-.1,1.1,-.1,1.7c0,.5,0,1.1,.1,1.6m15.4,15.5c.5,0,1.1,0,1.6,0c.6,0,1.2,0,1.7,0" class="g7_93"/>
<path d="M238.1,291.2l-6,-6.4L227,295.9Z" class="g8_93"/>
<path d="M485.8,281C465.6,274.3,380.9,247.9,342.1,262.2m-5.2,5.7c-.5,2.7,.9,5.5,8.6,6.2m1,-9.9C340,260.3,324,254.8,292.2,261.9m-7.6,1.9c-9.4,2.5,-31.7,9.6,-48.8,22.9" class="g6_93"/>
<path d="M490.2,282.5c0,0,-.5,-.2,-1.4,-.5M340.6,262.8c-.5,.2,-.9,.4,-1.4,.6c0,0,-.5,.5,-1,1.4m9,9.4c.6,0,1.1,0,1.8,0c0,0,.7,-.5,1.4,-1.4m.8,-3.9c-.2,-.6,-.4,-1.2,-.9,-1.9c0,0,-.3,-.4,-1.1,-1.1m-58.5,-3.6c-.6,.1,-1.1,.2,-1.6,.4c0,0,-.5,.1,-1.5,.3m-53,24.7c-.4,.3,-.8,.6,-1.2,1" class="g7_93"/>
<path d="M166.7,589.9c0,0,-13,0,-13,13V772.3c0,0,0,12.9,13,12.9H854.5c0,0,13,0,13,-12.9V602.9c0,0,0,-13,-13,-13Z" class="g1_93"/>
<path d="M166.7,589.9c0,0,-13,0,-13,13V772.3c0,0,0,12.9,13,12.9H854.5c0,0,13,0,13,-12.9V602.9c0,0,0,-13,-13,-13H166.7Z" class="g2_93"/>
<path d="M607.6,800.3c0,0,-4.3,0,-4.3,4.4v10.8c0,0,0,4.3,4.3,4.3h30.3c0,0,4.3,0,4.3,-4.3V804.7c0,0,0,-4.4,-4.3,-4.4Z" class="g9_93"/>
<path d="M594.4,791.5V829m1.3,1H866.8m.9,-1.3V791.1m-1.3,-1h-271" class="ga_93"/>
<path d="M594.4,829.4v.6h.6m272.1,0h.6v-.6m0,-38.7v-.6h-.6m-272.1,0h-.6v.6" class="gb_93"/>
<path d="M231.8,172.8c0,0,-13,0,-13,13v47.7c0,0,0,13,13,13h602c0,0,13,0,13,-13V185.8c0,0,0,-13,-13,-13Z" class="gc_93"/>
<image clip-path="url(#c2_93)" preserveAspectRatio="none" x="175" y="169" width="75" height="76" xlink:href="img/3.png"/>
<path d="M226.6,239.1c0,0,-26.9,11.3,-51.1,-12.8c0,0,15.1,25.3,49.3,24c0,0,24.7,.3,20.2,-10.1c0,0,1.2,-4.5,-18.4,-1.1Z" class="gc_93"/>
<path d="M231.8,623.8c0,0,-13,0,-13,13v47.6c0,0,0,13,13,13h602c0,0,13,0,13,-13V636.8c0,0,0,-13,-13,-13Z" class="gc_93"/>
<image clip-path="url(#c3_93)" preserveAspectRatio="none" x="175" y="620" width="75" height="76" xlink:href="img/4.png"/>
<path d="M226.6,690.1c0,0,-26.9,11.3,-51.1,-12.8c0,0,15.1,25.3,49.3,24c0,0,24.7,.3,20.2,-10.1c0,0,1.2,-4.5,-18.4,-1.1Z" class="gc_93"/>
<path d="M153.3,111.9v39L165,161.2V117Z" class="gd_93"/>
<path d="M153.3,111.9v39H851.1c0,0,16.8,0,16.8,-16.8v-5.3c0,0,0,-16.9,-16.8,-16.9Z" class="g9_93"/>
<path d="M802.6,145.6c8.2,0,14.9,-6.5,14.9,-14.5c0,-8.1,-6.7,-14.5,-14.9,-14.5c-8.2,0,-14.9,6.4,-14.9,14.5c0,8,6.7,14.5,14.9,14.5Z" class="ge_93"/>
<path d="M802.6,145.6c8.2,0,14.9,-6.5,14.9,-14.5c0,-8.1,-6.7,-14.5,-14.9,-14.5c-8.2,0,-14.9,6.4,-14.9,14.5c0,8,6.7,14.5,14.9,14.5Z" class="gf_93"/>
<path d="M802.6,136.4c3,0,5.5,-2.4,5.5,-5.3c0,-3,-2.5,-5.4,-5.5,-5.4c-3,0,-5.5,2.4,-5.5,5.4c0,2.9,2.5,5.3,5.5,5.3Z" class="g1_93"/>
<path d="M802.6,136.4c3,0,5.5,-2.4,5.5,-5.3c0,-3,-2.5,-5.4,-5.5,-5.4c-3,0,-5.5,2.4,-5.5,5.4c0,2.9,2.5,5.3,5.5,5.3Z" class="gg_93"/>
<g clip-path="url(#c4_93)" opacity="0.3">
<path d="M788,130.3c0,0,0,-4.8,3.7,-8.7l7.7,6.8c0,0,-1,.9,-1,2.6Z" class="g1_93"/>
</g>
<path d="M807.2,131c0,0,-3.5,0,-3.5,3.4v8.7c0,0,0,3.5,3.5,3.5h43.5c0,0,3.5,0,3.5,-3.5v-8.7c0,0,0,-3.4,-3.5,-3.4Z" class="gh_93"/>
<path d="M191.2,122c0,-8.3,-6.8,-15,-15.1,-15c-8.3,0,-15,6.7,-15,15c0,8.3,6.7,15.1,15,15.1c.8,0,1.7,-.1,2.4,-.2l4.5,5.2v-6.7c4.9,-2.5,8.2,-7.6,8.2,-13.4Z" class="g1_93"/>
<path d="M183.5,143.3l-5.1,-5.9c-.8,.1,-1.5,.1,-2.3,.1c-8.5,0,-15.5,-6.9,-15.5,-15.5c0,-8.5,7,-15.5,15.5,-15.5c8.6,0,15.5,7,15.5,15.5c0,5.7,-3.1,11,-8.1,13.7Zm-4.8,-6.9l3.9,4.5v-5.8l.2,-.1c4.9,-2.5,7.9,-7.5,7.9,-13c0,-8,-6.5,-14.6,-14.6,-14.6c-8,0,-14.6,6.6,-14.6,14.6c0,8.1,6.6,14.6,14.6,14.6c.8,0,1.6,-.1,2.4,-.2Z" class="gi_93"/>
<path d="M169.1,121.6c.8,0,1.4,.6,1.4,1.4c0,.8,-.6,1.5,-1.4,1.5c-.8,0,-1.4,-.7,-1.4,-1.5c0,-.8,.6,-1.4,1.4,-1.4Z" class="gj_93"/>
<path d="M169.1,124.9c-1,0,-1.9,-.8,-1.9,-1.9c0,-1,.9,-1.9,1.9,-1.9c1,0,1.9,.9,1.9,1.9c0,1.1,-.9,1.9,-1.9,1.9m0,-2.9c-.5,0,-1,.5,-1,1c0,.6,.5,1,1,1c.5,0,1,-.4,1,-1c0,-.5,-.5,-1,-1,-1Z" class="gi_93"/>
<path d="M176.1,121.6c.8,0,1.5,.6,1.5,1.4c0,.8,-.7,1.5,-1.5,1.5c-.8,0,-1.4,-.7,-1.4,-1.5c0,-.8,.6,-1.4,1.4,-1.4Z" class="gj_93"/>
<path d="M176.1,124.9c-1,0,-1.9,-.8,-1.9,-1.9c0,-1,.9,-1.9,1.9,-1.9c1.1,0,1.9,.9,1.9,1.9c0,1.1,-.8,1.9,-1.9,1.9m0,-2.9c-.5,0,-1,.5,-1,1c0,.6,.5,1,1,1c.6,0,1,-.4,1,-1c0,-.5,-.4,-1,-1,-1Z" class="gi_93"/>
<path d="M183.1,121.6c.8,0,1.5,.6,1.5,1.4c0,.8,-.7,1.5,-1.5,1.5c-.8,0,-1.4,-.7,-1.4,-1.5c0,-.8,.6,-1.4,1.4,-1.4Z" class="gj_93"/>
<path d="M183.1,124.9c-1,0,-1.9,-.8,-1.9,-1.9c0,-1,.9,-1.9,1.9,-1.9c1.1,0,1.9,.9,1.9,1.9c0,1.1,-.8,1.9,-1.9,1.9m0,-2.9c-.5,0,-1,.5,-1,1c0,.6,.5,1,1,1c.6,0,1,-.4,1,-1c0,-.5,-.4,-1,-1,-1Z" class="gi_93"/>
<path d="M185.1,136.3c0,-9.8,7.8,-17.7,17.6,-17.7c9.7,0,17.6,7.9,17.6,17.7c0,9.7,-7.9,17.6,-17.6,17.6c-1,0,-1.9,-.1,-2.9,-.3l-5.2,6.1v-7.8c-5.7,-2.9,-9.5,-8.8,-9.5,-15.6Z" class="gk_93"/>
<path d="M194.6,160.2q-.1,0,-.2,0c-.2,-.1,-.3,-.3,-.3,-.5v-7.5c-5.9,-3.2,-9.5,-9.2,-9.5,-15.9c0,-10,8.1,-18.1,18.1,-18.1c9.9,0,18,8.1,18,18.1c0,9.9,-8.1,18,-18,18c-.9,0,-1.8,0,-2.7,-.2l-5.1,5.9c-.1,.1,-.2,.2,-.3,.2m8.1,-41.1c-9.5,0,-17.2,7.7,-17.2,17.2c0,6.4,3.6,12.2,9.3,15.2c.1,.1,.2,.2,.2,.4v6.6l4.5,-5.2c.1,-.1,.3,-.1,.4,-.1c1,.1,1.9,.2,2.8,.2c9.4,0,17.1,-7.7,17.1,-17.1c0,-9.5,-7.7,-17.2,-17.1,-17.2Z" class="gi_93"/>
<path d="M210.9,135.8c.9,0,1.6,.7,1.6,1.6c0,1,-.7,1.7,-1.6,1.7c-1,0,-1.7,-.7,-1.7,-1.7c0,-.9,.7,-1.6,1.7,-1.6Z" class="g1_93"/>
<path d="M210.9,139.6c-1.2,0,-2.2,-1,-2.2,-2.2c0,-1.1,1,-2.1,2.2,-2.1c1.1,0,2.1,1,2.1,2.1c0,1.2,-1,2.2,-2.1,2.2m0,-3.4c-.7,0,-1.3,.6,-1.3,1.2c0,.7,.6,1.3,1.3,1.3c.6,0,1.2,-.6,1.2,-1.3c0,-.6,-.6,-1.2,-1.2,-1.2Z" class="gi_93"/>
<path d="M202.7,135.8c.9,0,1.6,.7,1.6,1.6c0,1,-.7,1.7,-1.6,1.7c-1,0,-1.7,-.7,-1.7,-1.7c0,-.9,.7,-1.6,1.7,-1.6Z" class="g1_93"/>
<path d="M202.7,139.6c-1.2,0,-2.2,-1,-2.2,-2.2c0,-1.1,1,-2.1,2.2,-2.1c1.1,0,2.1,1,2.1,2.1c0,1.2,-1,2.2,-2.1,2.2m0,-3.4c-.7,0,-1.3,.6,-1.3,1.2c0,.7,.6,1.3,1.3,1.3c.6,0,1.2,-.6,1.2,-1.3c0,-.6,-.6,-1.2,-1.2,-1.2Z" class="gi_93"/>
<path d="M194.5,135.8c.9,0,1.6,.7,1.6,1.6c0,1,-.7,1.7,-1.6,1.7c-1,0,-1.7,-.7,-1.7,-1.7c0,-.9,.7,-1.6,1.7,-1.6Z" class="g1_93"/>
<path d="M194.5,139.6c-1.2,0,-2.2,-1,-2.2,-2.2c0,-1.1,1,-2.1,2.2,-2.1c1.1,0,2.1,1,2.1,2.1c0,1.2,-1,2.2,-2.1,2.2m0,-3.4c-.7,0,-1.2,.6,-1.2,1.2c0,.7,.5,1.3,1.2,1.3c.6,0,1.2,-.6,1.2,-1.3c0,-.6,-.6,-1.2,-1.2,-1.2Z" class="gi_93"/>
<image clip-path="url(#c5_93)" preserveAspectRatio="none" x="681" y="354" width="210" height="184" xlink:href="img/5.png"/>
<path d="M686.8,360.6l4.6,170.7l193.8,-2.6L883.1,359Z" class="g3_93"/>
<image clip-path="url(#c6_93)" preserveAspectRatio="none" x="678" y="348" width="215" height="193" xlink:href="img/6.png"/>
<path d="M683.9,366.1l10.8,169.3l133.4,-7.7l59,-14.3L877.7,352.6Z" class="g4_93"/>
<path d="M887.3,515.5l-49.6,11.6l32.5,-24Z" class="g5_93"/>
<path d="M482.6,524.9c24.7,-.6,44.7,-6.5,48.8,-14.2m-.8,-6.9C525,496.6,505.2,491.2,481.1,490.7m-7.4,.1C449,491.4,429,497.4,424.9,505m.8,7c5.6,7.2,25.4,12.6,49.5,13" class="gl_93"/>
<path d="M531.9,509.3c.2,-.5,.2,-.9,.2,-1.4c0,-.5,0,-1,-.2,-1.5M479.6,490.7c-.5,0,-1,0,-1.5,0c-.5,0,-.9,0,-1.4,0m-52.3,15.7c-.2,.5,-.2,1,-.2,1.5c0,.5,0,.9,.2,1.4M476.7,525c.5,0,.9,0,1.4,0c.5,0,1,0,1.5,0" class="g7_93"/>
<path d="M517.3,493.9c9.8,-4.8,36.5,-15.9,68.9,-11.4m7.6,.7c3.5,.4,8,1.3,9.9,3.5" class="g6_93"/>
<path d="M600.8,491.5c-2.5,.9,-6.1,1.4,-9.8,-.5" class="gl_93"/>
<path d="M590.1,485c2.7,-3,10.1,-6.1,29.9,-3.9m7.9,.9c12.9,1.6,49.4,6.5,66.1,13" class="g6_93"/>
<path d="M513.3,496.1c0,0,.5,-.3,1.3,-.8m73.1,-12.5c.5,0,1,.1,1.5,.2c0,0,.6,0,1.6,0m13.6,5c.2,.4,.3,.9,.2,1.5c0,0,-.4,.3,-1.2,.8m-13.6,0c-.4,-.2,-.8,-.5,-1.2,-.8c0,0,-.2,-.7,0,-1.6m33,-6.6c.5,0,1.1,.1,1.6,.2c0,0,.6,0,1.6,.2m70.6,13.9c.5,.2,1,.4,1.4,.6" class="g7_93"/>
<path d="M691.4,498.6l4.1,-7.8l8,9.2Z" class="g8_93"/>
<image clip-path="url(#c7_93)" x="772" y="363" width="6" height="10" xlink:href="shade/1.png"/>
<image clip-path="url(#c8_93)" x="772" y="337" width="24" height="28" xlink:href="shade/2.png"/>
<image clip-path="url(#c9_93)" x="772" y="339" width="23" height="34" xlink:href="shade/3.png"/>
<image clip-path="url(#ca_93)" x="777" y="335" width="20" height="10" xlink:href="shade/4.png"/>
<image clip-path="url(#cb_93)" x="204" y="294" width="6" height="10" xlink:href="shade/5.png"/>
<image clip-path="url(#cc_93)" x="203" y="268" width="25" height="28" xlink:href="shade/6.png"/>
<image clip-path="url(#cd_93)" x="203" y="270" width="23" height="34" xlink:href="shade/7.png"/>
<image clip-path="url(#ce_93)" x="209" y="266" width="19" height="10" xlink:href="shade/8.png"/>
<path d="M154.5,888.4V859.7c0,0,0,-4.3,4.3,-4.3H862.4c0,0,4.4,0,4.4,4.3v29.2" class="gm_93"/>
<path d="M200.1,855.9c2.6,0,4.8,-2.1,4.8,-4.8c0,-2.6,-2.2,-4.8,-4.8,-4.8c-2.7,0,-4.8,2.2,-4.8,4.8c0,2.7,2.1,4.8,4.8,4.8Z" class="g1_93"/>
<path d="M200.1,857.8c3.6,0,6.6,-3,6.6,-6.7c0,-3.7,-3,-6.7,-6.6,-6.7c-3.7,0,-6.7,3,-6.7,6.7c0,3.7,3,6.7,6.7,6.7m0,-11.5c2.6,0,4.8,2.2,4.8,4.8c0,2.7,-2.2,4.8,-4.8,4.8c-2.7,0,-4.8,-2.1,-4.8,-4.8c0,-2.6,2.1,-4.8,4.8,-4.8Z" class="gn_93"/>
<path d="M205.5,859.7H194.6c-.1,0,-.3,0,-.4,0c2.7,1.1,4.9,3.4,5.9,6.2c1.3,-.5,2.7,-.8,4.2,-.8c2.9,0,5.5,1,7.5,2.7V866c0,-3.5,-2.8,-6.3,-6.3,-6.3Z" class="g1_93"/>
<path d="M184,856.7c3.4,0,6.1,-2.7,6.1,-6.1c0,-3.4,-2.7,-6.1,-6.1,-6.1c-3.4,0,-6.1,2.7,-6.1,6.1c0,3.4,2.7,6.1,6.1,6.1Z" class="go_93"/>
<path d="M184,858.6c4.4,0,8,-3.6,8,-8c0,-4.4,-3.6,-8,-8,-8c-4.4,0,-8,3.6,-8,8c0,4.4,3.6,8,8,8m0,-14.1c3.4,0,6.1,2.7,6.1,6.1c0,3.4,-2.7,6.1,-6.1,6.1c-3.4,0,-6.1,-2.7,-6.1,-6.1c0,-3.4,2.7,-6.1,6.1,-6.1Z" class="gn_93"/>
<path d="M198.4,866.8c-1,-3.4,-4.1,-5.8,-7.7,-5.8H177.3c-4.4,0,-8,3.6,-8,8v4.3h23.8c.9,-2.8,2.8,-5.1,5.3,-6.5Z" class="go_93"/>
<path d="M204.3,867c-5.5,0,-9.9,4.5,-9.9,10c0,5.5,4.4,10,9.9,10c5.5,0,10,-4.5,10,-10c0,-5.5,-4.5,-10,-10,-10m6.7,11.7c0,.2,-.2,.4,-.5,.4h-4v4.1c0,.3,-.2,.5,-.5,.5h-3.3c-.3,0,-.5,-.2,-.5,-.5v-4.1h-4.1c-.2,0,-.4,-.2,-.4,-.4v-3.4c0,-.2,.2,-.5,.4,-.5h4.1v-4c0,-.3,.2,-.5,.5,-.5H206c.3,0,.5,.2,.5,.5v4h4c.3,0,.5,.3,.5,.5Z" class="gp_93"/>
<path d="M213.7,869.7V866c0,-4.5,-3.7,-8.2,-8.2,-8.2H194.6c-1.6,0,-3.1,.5,-4.3,1.3h-13c-5.4,0,-9.9,4.4,-9.9,9.9v5.2c0,.6,.4,1,1,1h24.2c-.1,.6,-.1,1.2,-.1,1.8c0,6.5,5.3,11.9,11.8,11.9c6.6,0,11.9,-5.4,11.9,-11.9c0,-2.8,-.9,-5.3,-2.5,-7.3M204.3,887c-5.5,0,-9.9,-4.5,-9.9,-10c0,-5.5,4.4,-10,9.9,-10c5.5,0,10,4.5,10,10c0,5.5,-4.5,10,-10,10m-35,-18c0,-4.4,3.6,-8,8,-8h13.4c3.6,0,6.7,2.4,7.7,5.8c-2.5,1.4,-4.4,3.7,-5.3,6.5H169.3Zm42.5,-1.2c-2,-1.7,-4.6,-2.7,-7.5,-2.7c-1.5,0,-2.9,.3,-4.2,.8c-1,-2.8,-3.2,-5.1,-5.9,-6.2c.1,0,.3,0,.4,0h10.9c3.5,0,6.3,2.8,6.3,6.3Z" class="gn_93"/>
<path d="M205.5,875.3v-4h-2.4v4c0,.3,-.2,.5,-.4,.5h-4.1v2.4h4.1c.2,0,.4,.2,.4,.5v4h2.4v-4c0,-.3,.3,-.5,.5,-.5h4.1v-2.4H206c-.2,0,-.5,-.2,-.5,-.5Z" class="g1_93"/>
<path d="M210.5,874.8h-4v-4c0,-.3,-.2,-.5,-.5,-.5h-3.3c-.3,0,-.5,.2,-.5,.5v4h-4.1c-.2,0,-.4,.3,-.4,.5v3.4c0,.2,.2,.4,.4,.4h4.1v4.1c0,.3,.2,.5,.5,.5H206c.3,0,.5,-.2,.5,-.5v-4.1h4c.3,0,.5,-.2,.5,-.4v-3.4c0,-.2,-.2,-.5,-.5,-.5m-.4,3.4H206c-.2,0,-.5,.2,-.5,.5v4h-2.4v-4c0,-.3,-.2,-.5,-.4,-.5h-4.1v-2.4h4.1c.2,0,.4,-.2,.4,-.5v-4h2.4v4c0,.3,.3,.5,.5,.5h4.1Z" class="gn_93"/>
<path d="M154.1,898.6v343m4.6,2.3H864.9m2.2,-4.6v-343M862.6,894H156.4" class="gq_93"/>
<path d="M154.1,1243.9v0m713.1,0v0m0,-349.9v0m-713.1,0v0" class="gr_93"/>
<path d="M175.1,936.7H461V915H175.1v21.7Z" class="gs_93"/>
<path d="M175.1,936.7h95.3v23.8H175.1V936.7Zm190.6,0H461v23.8H365.7V936.7ZM175.1,960.5h95.3v23.8H175.1V960.5Zm190.6,0H461v23.8H365.7V960.5ZM175.1,984.3h95.3v23.8H175.1V984.3Zm190.6,0H461v23.8H365.7V984.3Zm-190.6,23.8h95.3v23.8H175.1v-23.8Zm190.6,0H461v23.8H365.7v-23.8Zm-190.6,23.8h95.3v23.8H175.1v-23.8Zm190.6,0H461v23.8H365.7v-23.8Zm-190.6,23.8h95.3v23.9H175.1v-23.9Zm190.6,0H461v23.9H365.7v-23.9Zm-190.6,23.9h95.3v23.8H175.1v-23.8Zm190.6,0H461v23.8H365.7v-23.8Zm-190.6,23.8h95.3v23.8H175.1v-23.8Zm190.6,0H461v23.8H365.7v-23.8Zm-190.6,23.8h95.3V1151H175.1v-23.8Zm190.6,0H461V1151H365.7v-23.8ZM175.1,1151h95.3v23.8H175.1V1151Zm190.6,0H461v23.8H365.7V1151Zm-190.6,23.8h95.3v23.9H175.1v-23.9Zm190.6,0H461v23.9H365.7v-23.9Zm-190.6,23.9h95.3v23.8H175.1v-23.8Zm190.6,0H461v23.8H365.7v-23.8Z" class="g1_93"/>
<path d="M270.4,936.7h95.3v23.8H270.4V936.7Zm0,23.8h95.3v23.8H270.4V960.5Zm0,23.8h95.3v23.8H270.4V984.3Zm0,23.8h95.3v23.8H270.4v-23.8Zm0,23.8h95.3v23.8H270.4v-23.8Zm0,23.8h95.3v23.9H270.4v-23.9Zm0,23.9h95.3v23.8H270.4v-23.8Zm0,23.8h95.3v23.8H270.4v-23.8Zm0,23.8h95.3V1151H270.4v-23.8Zm0,23.8h95.3v23.8H270.4V1151Zm0,23.8h95.3v23.9H270.4v-23.9Zm0,23.9h95.3v23.8H270.4v-23.8Z" class="gt_93"/>
<path d="M175,915h95.4m-95.3,21.5V915.2m95.3,-.2h95.3m0,0h95.4m-.1,21.5V915.2M175,936.7h95.4m-95.3,23.6V936.8m95.3,-.1h95.3m-95.3,23.6V936.8m95.3,-.1h95.4m-95.4,23.6V936.8M461,960.3V936.8M175,960.5h95.4m-95.3,23.6V960.6m95.3,-.1h95.3m-95.3,23.6V960.6m95.3,-.1h95.4m-95.4,23.6V960.6M461,984.1V960.6M175,984.3h95.4M175.1,1008V984.4m95.3,-.1h95.3M270.4,1008V984.4m95.3,-.1h95.4M365.7,1008V984.4M461,1008V984.4m-286,23.7h95.4m-95.3,23.7v-23.5m95.3,-.2h95.3m-95.3,23.7v-23.5m95.3,-.2h95.4m-95.4,23.7v-23.5m95.3,23.5v-23.5m-286,23.6h95.4m-95.3,23.7v-23.5m95.3,-.2h95.3m-95.3,23.7v-23.5m95.3,-.2h95.4m-95.4,23.7v-23.5m95.3,23.5v-23.5m-286,23.6h95.4m-95.3,23.7v-23.5m95.3,-.2h95.3m-95.3,23.7v-23.5m95.3,-.2h95.4m-95.4,23.7v-23.5m95.3,23.5v-23.5m-286,23.7h95.4m-95.3,23.6v-23.5m95.3,-.1h95.3m-95.3,23.6v-23.5m95.3,-.1h95.4m-95.4,23.6v-23.5m95.3,23.5v-23.5m-286,23.7h95.4M175.1,1127v-23.5m95.3,-.1h95.3M270.4,1127v-23.5m95.3,-.1h95.4M365.7,1127v-23.5M461,1127v-23.5m-286,23.7h95.4m-95.3,23.7v-23.5m95.3,-.2h95.3m-95.3,23.7v-23.5m95.3,-.2h95.4m-95.4,23.7v-23.5m95.3,23.5v-23.5M175,1151h95.4m-95.3,23.7v-23.5m95.3,-.2h95.3m-95.3,23.7v-23.5m95.3,-.2h95.4m-95.4,23.7v-23.5m95.3,23.5v-23.5m-286,23.6h95.4m-95.3,23.7V1175m95.3,-.2h95.3m-95.3,23.7V1175m95.3,-.2h95.4m-95.4,23.7V1175m95.3,23.5V1175m-286,23.7h95.4m-95.3,23.6v-23.5m95.3,-.1h95.3m-95.3,23.6v-23.5m95.3,-.1h95.4m-95.4,23.6v-23.5m95.3,23.5v-23.5m-286,23.7h95.4m0,0h95.3m0,0h95.4" class="gu_93"/>
<path d="M482.3,936.7H768.1V915H482.3v21.7Z" class="gs_93"/>
<path d="M482.3,936.7h95.2v19H482.3v-19Zm190.5,0h95.3v19H672.8v-19Zm-190.5,19h95.2v19.1H482.3V955.7Zm190.5,0h95.3v19.1H672.8V955.7ZM482.3,974.8h95.2v19H482.3v-19Zm190.5,0h95.3v19H672.8v-19Zm-190.5,19h95.2v19.1H482.3V993.8Zm190.5,0h95.3v19.1H672.8V993.8Zm-190.5,19.1h95.2v19H482.3v-19Zm190.5,0h95.3v19H672.8v-19Zm-190.5,19h95.2V1051H482.3v-19.1Zm190.5,0h95.3V1051H672.8v-19.1ZM482.3,1051h95.2v19H482.3v-19Zm190.5,0h95.3v19H672.8v-19Zm-190.5,19h95.2v19.1H482.3V1070Zm190.5,0h95.3v19.1H672.8V1070Zm-190.5,19.1h95.2v19H482.3v-19Zm190.5,0h95.3v19H672.8v-19Zm-190.5,19h95.2v19.1H482.3v-19.1Zm190.5,0h95.3v19.1H672.8v-19.1Zm-190.5,19.1h95.2v19.1H482.3v-19.1Zm190.5,0h95.3v19.1H672.8v-19.1Zm-190.5,19.1h95.2v19H482.3v-19Zm190.5,0h95.3v19H672.8v-19Zm-190.5,19h95.2v19.1H482.3v-19.1Zm190.5,0h95.3v19.1H672.8v-19.1Zm-190.5,19.1h95.2v19H482.3v-19Zm190.5,0h95.3v19H672.8v-19Z" class="g1_93"/>
<path d="M577.5,936.7h95.3v19H577.5v-19Zm0,19h95.3v19.1H577.5V955.7Zm0,19.1h95.3v19H577.5v-19Zm0,19h95.3v19.1H577.5V993.8Zm0,19.1h95.3v19H577.5v-19Zm0,19h95.3V1051H577.5v-19.1Zm0,19.1h95.3v19H577.5v-19Zm0,19h95.3v19.1H577.5V1070Zm0,19.1h95.3v19H577.5v-19Zm0,19h95.3v19.1H577.5v-19.1Zm0,19.1h95.3v19.1H577.5v-19.1Zm0,19.1h95.3v19H577.5v-19Zm0,19h95.3v19.1H577.5v-19.1Zm0,19.1h95.3v19H577.5v-19Zm-95.2,19H768.1v19.1H482.3v-19.1Z" class="gt_93"/>
<path d="M482.1,915h95.4m-95.2,21.5V915.2m95.2,-.2h95.3m0,0h95.5m-.2,21.5V915.2m-286,21.5h95.4m-95.2,18.9V936.8m95.2,-.1h95.3m-95.3,18.9V936.8m95.3,-.1h95.5m-95.5,18.9V936.8m95.3,18.8V936.8m-286,18.9h95.4m-95.2,18.9V955.9m95.2,-.2h95.3m-95.3,18.9V955.9m95.3,-.2h95.5m-95.5,18.9V955.9m95.3,18.7V955.9m-286,18.9h95.4m-95.2,18.9V974.9m95.2,-.1h95.3m-95.3,18.9V974.9m95.3,-.1h95.5m-95.5,18.9V974.9m95.3,18.8V974.9m-286,18.9h95.4m-95.2,18.9V994m95.2,-.2h95.3m-95.3,18.9V994m95.3,-.2h95.5m-95.5,18.9V994m95.3,18.7V994m-286,18.9h95.4m-95.2,18.9V1013m95.2,-.1h95.3m-95.3,18.9V1013m95.3,-.1h95.5m-95.5,18.9V1013m95.3,18.8V1013m-286,18.9h95.4m-95.2,18.9v-18.7m95.2,-.2h95.3m-95.3,18.9v-18.7m95.3,-.2h95.5m-95.5,18.9v-18.7m95.3,18.7v-18.7m-286,18.9h95.4m-95.2,18.9v-18.8m95.2,-.1h95.3m-95.3,18.9v-18.8m95.3,-.1h95.5m-95.5,18.9v-18.8m95.3,18.8v-18.8m-286,18.9h95.4m-95.2,18.9v-18.7m95.2,-.2h95.3m-95.3,18.9v-18.7m95.3,-.2h95.5m-95.5,18.9v-18.7m95.3,18.7v-18.7m-286,18.9h95.4M482.3,1108v-18.8m95.2,-.1h95.3M577.5,1108v-18.8m95.3,-.1h95.5M672.8,1108v-18.8m95.3,18.8v-18.8m-286,18.9h95.4M482.3,1127v-18.7m95.2,-.2h95.3M577.5,1127v-18.7m95.3,-.2h95.5M672.8,1127v-18.7m95.3,18.7v-18.7m-286,18.9h95.4m-95.2,18.9v-18.7m95.2,-.2h95.3m-95.3,18.9v-18.7m95.3,-.2h95.5m-95.5,18.9v-18.7m95.3,18.7v-18.7m-286,18.9h95.4m-95.2,18.9v-18.8m95.2,-.1h95.3m-95.3,18.9v-18.8m95.3,-.1h95.5m-95.5,18.9v-18.8m95.3,18.8v-18.8m-286,18.9h95.4m-95.2,18.9v-18.7m95.2,-.2h95.3m-95.3,18.9v-18.7m95.3,-.2h95.5m-95.5,18.9v-18.7m95.3,18.7v-18.7m-286,18.9h95.4m-95.2,18.9v-18.8m95.2,-.1h95.3m-95.3,18.9v-18.8m95.3,-.1h95.5m-95.5,18.9v-18.8m95.3,18.8v-18.8m-286,18.9h95.4m-95.2,18.9v-18.7m95.2,-.2h95.3m0,0h95.5m-.2,18.9v-18.7m-286,18.9h95.4m0,0h95.3m0,0h95.5" class="gu_93"/>
<path d="M32.1,45.1H9.2m958.3,0h22.9M32.1,1331.3H9.2m958.3,0h22.9M45.1,32.1V9.2m0,1335.1v22.9M954.5,32.1V9.2m0,1335.1v22.9" class="gv_93"/>
<path d="M32.1,45.1H9.2m958.3,0h22.9M32.1,1331.3H9.2m958.3,0h22.9M45.1,32.1V9.2m0,1335.1v22.9M954.5,32.1V9.2m0,1335.1v22.9" class="gw_93"/>
<path d="M27.5,32.1H0m972.1,0h27.5M27.5,1344.3H0m972.1,0h27.5M32.1,27.5V0m0,1348.9v27.5M967.5,27.5V0m0,1348.9v27.5" class="gv_93"/>
<path d="M27.5,32.1H0m972.1,0h27.5M27.5,1344.3H0m972.1,0h27.5M32.1,27.5V0m0,1348.9v27.5M967.5,27.5V0m0,1348.9v27.5" class="gw_93"/>
</svg>