<?xml version="1.0" encoding="UTF-8" standalone="no"?>
<!DOCTYPE svg PUBLIC "-//W3C//DTD SVG 1.1//EN"
"http://www.w3.org/Graphics/SVG/1.1/DTD/svg11.dtd">
<svg viewBox="0 0 999 1376" version="1.1" xmlns="http://www.w3.org/2000/svg" xmlns:xlink="http://www.w3.org/1999/xlink">
<defs>
<clipPath id="c0_50"><path d="M32.1,1344.3V32.1H967.5V1344.3Z"/></clipPath>
<clipPath id="c1_50"><path d="M181.5,287.5L175,285.4L160.9,274.2V213.3h62.7v74.2Z"/></clipPath>
<clipPath id="c2_50"><path d="M181.9,745.6l-6.5,-2l-14,-11.2V671.5H224v74.1Z"/></clipPath>
<clipPath id="c3_50"><path d="M181.5,841.3L175,839.2L160.9,828V767.1h62.7v74.2Z"/></clipPath>
<clipPath id="c4_50"><path d="M130.5,1255.5V917.8H852.1v337.7Z"/></clipPath>
<clipPath id="c5_50"><path d="M191.4,906.6V894h12.5v12.6Z"/></clipPath>
<clipPath id="c6_50"><path d="M502.7,906.5V894h12.6v12.5Z"/></clipPath>
<clipPath id="c7_50"><path d="M502.7,941.5V928.9h12.6v12.6Z"/></clipPath>
<clipPath id="c8_50"><path d="M191.3,941.4V928.9h12.6v12.5Z"/></clipPath>
<style type="text/css"><![CDATA[
.g0_50{
fill: #FFFDEA;
}
.g1_50{
fill: #BCE4EA;
}
.g2_50{
fill: #BCBEC0;
}
.g3_50{
fill: #00AABD;
}
.g4_50{
fill: #FCDCBA;
}
.g5_50{
fill: #DED3E8;
}
.g6_50{
fill: #FFF;
}
.g7_50{
fill: none;
stroke: #6D6F71;
stroke-width: 0.305;
stroke-miterlimit: 10;
}
.g8_50{
fill: none;
stroke: #231F20;
stroke-width: 0.305;
stroke-miterlimit: 10;
}
.g9_50{
fill: #FCE9F1;
}
.ga_50{
fill: none;
stroke: #976EAF;
stroke-width: 3.819;
}
.gb_50{
fill: none;
stroke: #CDBCDB;
stroke-width: 3.819;
stroke-linecap: round;
stroke-linejoin: round;
stroke-dasharray: 0,14;
}
.gc_50{
fill: none;
stroke: #CDBCDB;
stroke-width: 3.819;
stroke-linecap: round;
stroke-linejoin: round;
stroke-dasharray: 0,12;
}
.gd_50{
fill: none;
stroke: #CDBCDB;
stroke-width: 3.819;
stroke-linecap: round;
stroke-linejoin: round;
}
.ge_50{
fill: #B092C4;
}
.gf_50{
fill: #976EAF;
}
.gg_50{
fill: #67C0E1;
}
.gh_50{
fill: #233D4A;
}
.gi_50{
fill: #F5C44D;
}
.gj_50{
fill: none;
stroke: #6D6F71;
stroke-width: 0.305;
}
.gk_50{
fill: none;
stroke: #FFF;
stroke-width: 1.909;
stroke-miterlimit: 10;
}
.gl_50{
fill: none;
stroke: #000;
stroke-width: 0.381;
stroke-miterlimit: 10;
}
]]></style>
</defs>
<g clip-path="url(#c0_50)">
<path d="M32.1,1344.3H1877V32.1H32.1V1344.3Z" class="g0_50"/>
<path d="M32.1,179.3H1877V32.1H32.1V179.3Z" class="g1_50"/>
<path d="M1877,177.2H32.1v-5.4H768.7c43.1,0,53,-37.9,115.3,-37.9h993Z" class="g2_50"/>
<path d="M1877,183.7H32.1v-9.8H768.7c43.1,0,53,-33.6,115.3,-33.6h993Z" class="g3_50"/>
</g>
<path d="M214.1,242.5c0,0,-13,0,-13,13v21.6c0,0,0,13,13,13h619c0,0,13,0,13,-13V255.5c0,0,0,-13,-13,-13Z" class="g4_50"/>
<image clip-path="url(#c1_50)" preserveAspectRatio="none" x="161" y="212" width="63" height="77" xlink:href="img/1.png"/>
<path d="M208.9,282.7c0,0,-26.9,11.3,-51.1,-12.7c0,0,15.1,25.3,49.3,24c0,0,24.7,.3,20.2,-10.2c0,0,1.3,-4.4,-18.4,-1.1Z" class="g4_50"/>
<path d="M171.4,324.2h77v51.9h-77V324.2Zm77,0h74.8v51.9H248.4V324.2Zm74.8,0H398v51.9H323.2V324.2Zm74.8,0h74.8v51.9H398V324.2Zm74.8,0h74.7v51.9H472.8V324.2Zm74.7,0h74.8v51.9H547.5V324.2Zm74.8,0h74.8v51.9H622.3V324.2Zm74.8,0h74.8v51.9H697.1V324.2Zm74.8,0h74.7v51.9H771.9V324.2Z" class="g5_50"/>
<path d="M171.4,376.1h77v52h-77v-52Zm77,0h74.8v52H248.4v-52Zm74.8,0H398v52H323.2v-52Zm74.8,0h74.8v52H398v-52Zm74.8,0h74.7v52H472.8v-52Zm74.7,0h74.8v52H547.5v-52Zm74.8,0h74.8v52H622.3v-52Zm74.8,0h74.8v52H697.1v-52Zm74.8,0h74.7v52H771.9v-52Zm-600.5,52h77v52h-77v-52Zm77,0h74.8v52H248.4v-52Zm74.8,0H398v52H323.2v-52Zm74.8,0h74.8v52H398v-52Zm74.8,0h74.7v52H472.8v-52Zm74.7,0h74.8v52H547.5v-52Zm74.8,0h74.8v52H622.3v-52Zm74.8,0h74.8v52H697.1v-52Zm74.8,0h74.7v52H771.9v-52Zm-600.5,52h77V532h-77V480.1Zm77,0h74.8V532H248.4V480.1Zm74.8,0H398V532H323.2V480.1Zm74.8,0h74.8V532H398V480.1Zm74.8,0h74.7V532H472.8V480.1Zm74.7,0h74.8V532H547.5V480.1Zm74.8,0h74.8V532H622.3V480.1Zm74.8,0h74.8V532H697.1V480.1Zm74.8,0h74.7V532H771.9V480.1ZM171.4,532h77v52h-77V532Zm77,0h74.8v52H248.4V532Zm74.8,0H398v52H323.2V532Zm74.8,0h74.8v52H398V532Zm74.8,0h74.7v52H472.8V532Zm74.7,0h74.8v52H547.5V532Zm74.8,0h74.8v52H622.3V532Zm74.8,0h74.8v52H697.1V532Zm74.8,0h74.7v52H771.9V532ZM171.4,584h77v52h-77V584Zm77,0h74.8v52H248.4V584Zm74.8,0H398v52H323.2V584Zm74.8,0h74.8v52H398V584Zm74.8,0h74.7v52H472.8V584Zm74.7,0h74.8v52H547.5V584Zm74.8,0h74.8v52H622.3V584Zm74.8,0h74.8v52H697.1V584Zm74.8,0h74.7v52H771.9V584Z" class="g6_50"/>
<path d="M171.4,427.9V376.3m77,51.6V376.3m74.8,51.6V376.3M398,427.9V376.3m74.8,51.6V376.3m74.7,51.6V376.3m74.8,51.6V376.3m74.8,51.6V376.3m74.8,51.6V376.3m74.7,51.6V376.3M171.2,428.1h77.2m-77,51.8V428.2m77,-.1h74.8m-74.8,51.8V428.2m74.8,-.1H398m-74.8,51.8V428.2m74.8,-.1h74.8M398,479.9V428.2m74.8,-.1h74.7m-74.7,51.8V428.2m74.7,-.1h74.8m-74.8,51.8V428.2m74.8,-.1h74.8m-74.8,51.8V428.2m74.8,-.1h74.8m-74.8,51.8V428.2m74.8,-.1h74.9m-74.9,51.8V428.2m74.7,51.7V428.2M171.2,480.1h77.2m-77,51.8V480.2m77,-.1h74.8m-74.8,51.8V480.2m74.8,-.1H398m-74.8,51.8V480.2m74.8,-.1h74.8M398,531.9V480.2m74.8,-.1h74.7m-74.7,51.8V480.2m74.7,-.1h74.8m-74.8,51.8V480.2m74.8,-.1h74.8m-74.8,51.8V480.2m74.8,-.1h74.8m-74.8,51.8V480.2m74.8,-.1h74.9m-74.9,51.8V480.2m74.7,51.7V480.2M171.2,532h77.2m-77,51.8V532.2m77,-.2h74.8m-74.8,51.8V532.2m74.8,-.2H398m-74.8,51.8V532.2M398,532h74.8M398,583.8V532.2m74.8,-.2h74.7m-74.7,51.8V532.2m74.7,-.2h74.8m-74.8,51.8V532.2m74.8,-.2h74.8m-74.8,51.8V532.2m74.8,-.2h74.8m-74.8,51.8V532.2m74.8,-.2h74.9m-74.9,51.8V532.2m74.7,51.6V532.2M171.2,584h77.2m-77,51.8V584.2m77,-.2h74.8m-74.8,51.8V584.2m74.8,-.2H398m-74.8,51.8V584.2M398,584h74.8M398,635.8V584.2m74.8,-.2h74.7m-74.7,51.8V584.2m74.7,-.2h74.8m-74.8,51.8V584.2m74.8,-.2h74.8m-74.8,51.8V584.2m74.8,-.2h74.8m-74.8,51.8V584.2m74.8,-.2h74.9m-74.9,51.8V584.2m74.7,51.6V584.2M171.2,636h77.2m0,0h74.8m0,0H398m0,0h74.8m0,0h74.7m0,0h74.8m0,0h74.8m0,0h74.8m0,0h74.9M171.2,324.2h77.2m0,0h74.8m0,0H398m0,0h74.8m0,0h74.7m0,0h74.8m0,0h74.8m0,0h74.8m0,0h74.9M171.2,376.1h77.2m0,0h74.8m0,0H398m0,0h74.8m0,0h74.7m0,0h74.8m0,0h74.8m0,0h74.8m0,0h74.9M171.4,376V324.3" class="g7_50"/>
<path d="M248.4,376V324.3M323.2,376V324.3M398,376V324.3M472.8,376V324.3M547.5,376V324.3M622.3,376V324.3M697.1,376V324.3M771.9,376V324.3M846.6,376V324.3" class="g8_50"/>
<path d="M214.5,674.6c0,0,-13,0,-13,13v47.7c0,0,0,13,13,13H833.6c0,0,12.9,0,12.9,-13V687.6c0,0,0,-13,-12.9,-13Z" class="g4_50"/>
<image clip-path="url(#c2_50)" preserveAspectRatio="none" x="161" y="671" width="63" height="76" xlink:href="img/2.png"/>
<path d="M209.3,740.9c0,0,-26.8,11.3,-51.1,-12.8c0,0,15.2,25.4,49.3,24c0,0,24.8,.4,20.2,-10.1c0,0,1.3,-4.5,-18.4,-1.1Z" class="g4_50"/>
<path d="M214.1,796.3c0,0,-13,0,-13,13v21.6c0,0,0,13,13,13h619c0,0,13,0,13,-13V809.3c0,0,0,-13,-13,-13Z" class="g4_50"/>
<image clip-path="url(#c3_50)" preserveAspectRatio="none" x="161" y="766" width="63" height="77" xlink:href="img/3.png"/>
<path d="M208.9,836.6c0,0,-26.9,11.3,-51.1,-12.8c0,0,15.1,25.3,49.3,24c0,0,24.7,.3,20.2,-10.1c0,0,1.3,-4.5,-18.4,-1.1Z" class="g4_50"/>
<image clip-path="url(#c4_50)" preserveAspectRatio="none" x="130" y="918" width="722" height="338" xlink:href="img/4.png"/>
<path d="M151.5,921.4c0,0,-17.4,0,-17.4,17.4v289.8c0,0,0,17.3,17.4,17.3H825.3c0,0,17.3,0,17.3,-17.3V938.8c0,0,0,-17.4,-17.3,-17.4Z" class="g9_50"/>
<path d="M151.5,921.4c0,0,-17.4,0,-17.4,17.4v289.8c0,0,0,17.3,17.4,17.3H825.3c0,0,17.3,0,17.3,-17.3V938.8c0,0,0,-17.4,-17.3,-17.4H151.5Z" class="ga_50"/>
<path d="M138.9,926.3c-1.5,1.4,-2.8,3.3,-3.7,5.7" class="gb_50"/>
<path d="M134.1,950.4v272.4" class="gc_50"/>
<path d="M139,1241.1c1.4,1.5,3.3,2.8,5.7,3.7" class="gb_50"/>
<path d="M162.9,1245.9H819.6" class="gc_50"/>
<path d="M837.8,1241c1.5,-1.4,2.9,-3.3,3.7,-5.7" class="gb_50"/>
<path d="M842.6,1217V944.6" class="gc_50"/>
<path d="M837.7,926.2c-1.4,-1.5,-3.3,-2.8,-5.7,-3.7" class="gb_50"/>
<path d="M813.9,921.4H157.2" class="gc_50"/>
<path d="M134.1,938.8v0m0,289.8v0m17.4,17.3v0m673.8,0v0m17.3,-17.3v0m0,-289.8v0M825.3,921.4v0m-673.8,0v0" class="gd_50"/>
<path d="M202.3,895.5l-9.4,9.4v25.6l9.4,9.4h302l9.5,-9.4V904.9l-9.5,-9.4Z" class="ge_50"/>
<path d="M202.4,930.4H504.3V905H202.4v25.4Z" class="g6_50"/>
<g clip-path="url(#c5_50)" style="mix-blend-mode: multiply;">
<path d="M192.9,905h9.5v-9.5Z" class="gf_50"/>
</g>
<g clip-path="url(#c6_50)" style="mix-blend-mode: multiply;">
<path d="M504.2,895.5V905h9.6Z" class="gf_50"/>
</g>
<g clip-path="url(#c7_50)" style="mix-blend-mode: multiply;">
<path d="M513.8,930.4h-9.5v9.5Z" class="gf_50"/>
</g>
<g clip-path="url(#c8_50)" style="mix-blend-mode: multiply;">
<path d="M202.4,939.9v-9.5h-9.5Z" class="gf_50"/>
</g>
<path d="M177.3,929.4c.1,.3,.1,.6,.1,.8c.1,1.9,-1.3,3.5,-3.1,3.5c-1.8,.1,-3.3,-1.4,-3.4,-3.2c0,-.3,.1,-.6,.1,-.9Z" class="gg_50"/>
<path d="M174.3,934.5c-2.2,0,-4,-1.7,-4.1,-4c0,-.4,0,-.7,.1,-1c.1,-.4,.5,-.7,.9,-.6c.4,.1,.6,.5,.5,.9c0,.2,0,.4,0,.6c0,1.5,1.2,2.6,2.6,2.6c1.4,-.1,2.5,-1.3,2.4,-2.7c0,-.3,0,-.5,-.1,-.7c-.1,-.4,.1,-.8,.5,-.9c.4,-.1,.8,.1,.9,.5c.1,.3,.2,.7,.2,1c0,2.3,-1.7,4.2,-3.9,4.3Z" class="gh_50"/>
<path d="M171.7,904.8c-.1,-.2,-.2,-.5,-.2,-.7V904c0,-1.2,.8,-2.1,1.9,-2.1c1.1,-.1,2,.8,2.1,1.9v.1c0,.3,-.1,.6,-.2,.8Z" class="gg_50"/>
<path d="M171.7,905.6c-.3,0,-.5,-.2,-.7,-.5c-.1,-.3,-.2,-.7,-.2,-1V904c-.1,-1.5,1.1,-2.8,2.6,-2.9c1.5,0,2.7,1.2,2.8,2.7v.1c0,.4,0,.7,-.2,1.1c-.1,.4,-.5,.5,-.9,.4c-.4,-.1,-.6,-.6,-.4,-.9c0,-.2,0,-.4,0,-.6c0,-.8,-.6,-1.3,-1.3,-1.3c-.6,0,-1.2,.6,-1.2,1.3v.1c.1,.2,.1,.4,.2,.5c.1,.4,0,.9,-.4,1c-.1,.1,-.2,.1,-.3,.1Z" class="gh_50"/>
<path d="M186.2,924.2l-.8,-7c-.2,-7,-5.6,-12.5,-11.9,-12.3c-6.4,.3,-11.3,6.1,-11.1,13.1l-.2,6.8Z" class="gi_50"/>
<path d="M186.2,925c-.4,0,-.7,-.3,-.7,-.7l-.8,-7.1c-.3,-6.6,-5.3,-11.7,-11.2,-11.5c-5.9,.2,-10.6,5.7,-10.3,12.2l-.2,6.9c0,.4,-.4,.7,-.8,.7c-.4,0,-.7,-.3,-.7,-.7l.2,-6.9c-.3,-7.3,5,-13.5,11.8,-13.7c6.7,-.2,12.4,5.6,12.6,12.9l.8,7c.1,.4,-.2,.8,-.6,.9Z" class="gh_50"/>
<path d="M188.4,915.7q-.1,0,-.2,-.1c-.4,-.1,-.6,-.5,-.5,-.9c.8,-2.4,-.8,-3.7,-.8,-3.7c-.3,-.2,-.4,-.7,-.1,-1c.3,-.3,.7,-.4,1,-.1c.1,.1,2.4,2,1.3,5.3c-.1,.3,-.4,.5,-.7,.5Z" class="gh_50"/>
<path d="M191,916.6c-.1,0,-.2,-.1,-.3,-.1c-.4,-.1,-.6,-.5,-.4,-.9c1.4,-4.3,-1.4,-6.7,-1.6,-6.8c-.3,-.3,-.3,-.7,-.1,-1c.3,-.3,.7,-.4,1.1,-.1c.1,.1,3.7,3.1,1.9,8.4c-.1,.3,-.3,.4,-.6,.5Z" class="gh_50"/>
<path d="M187.6,926.6c.1,1.2,-.8,2.1,-1.9,2.2l-23,.8c-1.2,0,-2.1,-.9,-2.2,-2.1v-.4c0,-1.1,.9,-2.1,2,-2.2l23,-.8c1.1,0,2.1,.9,2.1,2.1Z" class="gi_50"/>
<path d="M185.7,929.5l-23,.8c-1.5,.1,-2.8,-1.2,-2.9,-2.8v-.3c0,-1.6,1.2,-2.9,2.7,-3l23,-.8c1.5,-.1,2.8,1.2,2.9,2.8v.3c0,1.6,-1.2,3,-2.7,3m-23.1,-3.8c-.8,0,-1.4,.6,-1.3,1.4v.4c0,.8,.6,1.4,1.4,1.4l22.9,-.8c.8,-.1,1.3,-.7,1.3,-1.5v-.4c0,-.8,-.6,-1.4,-1.4,-1.3Z" class="gh_50"/>
<path d="M176.7,908.4c-.4,0,-.7,.2,-.8,.6c-.2,.4,.1,.9,.6,1.1c0,0,3.9,1.3,4.1,6.3c0,.5,.4,.9,.9,.9c.5,0,.8,-.4,.8,-.9c-.2,-6.3,-5.1,-7.9,-5.3,-8c-.1,0,-.2,0,-.3,0Z" class="g4_50"/>
<path d="M171.1,324.1L247,375.7" class="gj_50"/>
<path d="M32.1,45.1H9.2m958.3,0h22.9M32.1,1331.3H9.2m958.3,0h22.9M45.1,32.1V9.2m0,1335.1v22.9M954.5,32.1V9.2m0,1335.1v22.9" class="gk_50"/>
<path d="M32.1,45.1H9.2m958.3,0h22.9M32.1,1331.3H9.2m958.3,0h22.9M45.1,32.1V9.2m0,1335.1v22.9M954.5,32.1V9.2m0,1335.1v22.9" class="gl_50"/>
<path d="M27.5,32.1H0m972.1,0h27.5M27.5,1344.3H0m972.1,0h27.5M32.1,27.5V0m0,1348.9v27.5M967.5,27.5V0m0,1348.9v27.5" class="gk_50"/>
<path d="M27.5,32.1H0m972.1,0h27.5M27.5,1344.3H0m972.1,0h27.5M32.1,27.5V0m0,1348.9v27.5M967.5,27.5V0m0,1348.9v27.5" class="gl_50"/>
</svg>