<?xml version="1.0" encoding="UTF-8" standalone="no"?>
<!DOCTYPE svg PUBLIC "-//W3C//DTD SVG 1.1//EN"
"http://www.w3.org/Graphics/SVG/1.1/DTD/svg11.dtd">
<svg viewBox="0 0 999 1376" version="1.1" xmlns="http://www.w3.org/2000/svg" xmlns:xlink="http://www.w3.org/1999/xlink">
<defs>
<clipPath id="c0_237"><path d="M719.5,738.4V483.2H938.4V738.4Z"/></clipPath>
<clipPath id="c1_237"><path d="M718.6,740.3V483.4H939.2V740.3Z"/></clipPath>
<clipPath id="c2_237"><path d="M718.3,740V483.1H938.9V740Z"/></clipPath>
<clipPath id="c3_237"><path d="M198.6,889.1L192.1,887L175.7,873V815.9h72v73.2Z"/></clipPath>
<clipPath id="c4_237"><path d="M199.2,235.9l-6.5,-2.1L176.3,219.9V162.8h72v73.1Z"/></clipPath>
<clipPath id="c5_237"><path d="M85.5,687.7V422H317V687.7Z"/></clipPath>
<clipPath id="c6_237"><path d="M89,680.5V428.1H310.6V680.5Z"/></clipPath>
<clipPath id="c7_237"><path d="M88.7,680.2V427.7H310.3V680.2Z"/></clipPath>
<clipPath id="c8_237"><path d="M196,441c-.3,-.1,3.5,-8.2,3.5,-8.2l.8,.5c0,0,-4,7.7,-4.3,7.7Z"/></clipPath>
<clipPath id="c9_237"><path d="M203.5,433.3c0,0,-6.9,-1.1,-7.6,-5.2c-.6,-3.7,1.5,-3.9,2.1,-3.9q.1,0,.1,0l8.3,-12.7L205,408.4c0,0,-.6,-1.1,.1,-2.1c.1,0,.2,-.1,.3,-.1c2.1,0,13,5.6,13,5.6v.1c-.3,.6,-.7,1.2,-1.4,1.7c-.6,.5,-5,1.1,-5,1.1l-8.5,18.6Z"/></clipPath>
<clipPath id="ca_237"><path d="M203.1,432.9c.2,-.4,.2,-1.8,0,-2.2v-1.4c-1.5,-.5,-2.9,-1.3,-3.7,-2.5c-1,.6,-2.1,1.2,-3.1,1.9c1.6,2.1,3.8,3.5,6.8,4.2Zm0,-3.9c2.2,-4.5,4,-9.5,6.1,-14c-.8,-.4,-1.8,-1.4,-2.6,-1.4c-2.3,4.3,-4.6,8.6,-7,12.8c.7,1.3,2.1,2,3.5,2.6Zm-7.3,12.1c1,-2.9,2.4,-5.5,3.5,-8.3c-2,-1.5,-3.9,-3.1,-4.4,-6.2v-1.5c0,-2.7,1.9,-3.4,4.6,-3.4q.1,0,.2,0c1.9,-3.3,4.2,-6.3,6.2,-9.6c-.6,-.9,-1.2,-2.4,-.9,-3.7c.5,1.3,1.6,1.9,2.4,2.9c-.2,.6,-.3,1.2,-.4,1.8c.6,.6,1.3,1.1,2.4,1.4c.4,-.5,.5,-1.3,1.1,-1.6c.9,.4,1.8,.8,3.1,.8c.2,.1,.5,.2,.9,.2c.3,0,.6,-.1,.8,-.2c.1,0,.2,0,.3,0c.2,0,.4,0,.6,-.1c.2,-.1,.4,-.1,.5,-.1c.1,0,.2,0,.3,.1c-1.3,.6,-2.2,1.7,-4.1,1.7c-.1,0,-.3,0,-.4,0c-.9,3.8,-1.8,7.4,-2.6,11.2c.5,1.1,1.5,1.7,1.2,3.2c-.4,2.7,-3.8,4.3,-7.2,4.3c-1.2,0,-2.5,-.2,-3.6,-.7c-1,2.1,-2,4.1,-3.2,6c-.1,-.3,.2,-.4,.2,-.7c1,-1.8,1.9,-3.6,2.6,-5.7c-1,1.7,-1.8,3.7,-2.7,5.6c-.2,.4,-.4,.8,-.6,1.2c-.3,.4,-.3,1.1,-.8,1.4Z"/></clipPath>
<clipPath id="cb_237"><path d="M213.5,413.3c-4.8,0,-13.1,-7.3,-5.5,-8.8h1.2c.2,.1,.3,.1,.5,.1c.1,0,.2,0,.2,0c.4,0,.7,0,1.1,.1c3.1,.6,8.2,3.7,7.5,7c-.2,1.1,-1.5,1.6,-3.1,1.6h-1.9Z"/></clipPath>
<clipPath id="cc_237"><path d="M823.9,499.5c-.2,-.1,3.6,-8.2,3.6,-8.2l.8,.5c0,0,-4.1,7.7,-4.4,7.7Z"/></clipPath>
<clipPath id="cd_237"><path d="M831.4,491.8c0,0,-6.8,-1.2,-7.5,-5.3c-.7,-3.6,1.5,-3.8,2,-3.8c.1,0,.2,0,.2,0l8.3,-12.8l-1.5,-3c0,0,-.6,-1.1,.2,-2.1c0,-.1,.1,-.1,.3,-.1c2.1,0,12.9,5.5,12.9,5.5l.1,.2c-.4,.5,-.8,1.1,-1.4,1.6c-.7,.5,-5.1,1.2,-5.1,1.2l-8.5,18.6Z"/></clipPath>
<clipPath id="ce_237"><path d="M831,491.4c.2,-.5,.2,-1.8,0,-2.3v-1.4c-1.5,-.5,-2.8,-1.2,-3.6,-2.5c-1.1,.6,-2.1,1.3,-3.1,1.9c1.5,2.2,3.8,3.6,6.7,4.3Zm0,-3.9c2.2,-4.6,4,-9.5,6.2,-14.1c-.9,-.4,-1.8,-1.3,-2.6,-1.4c-2.3,4.4,-4.6,8.7,-7.1,12.9c.7,1.3,2.1,2,3.5,2.6Zm-7.3,12.1c1.1,-2.9,2.4,-5.5,3.6,-8.3c-2,-1.6,-4,-3.1,-4.4,-6.2v-1.5c-.1,-2.7,1.9,-3.4,4.5,-3.4c.1,0,.2,0,.2,0c2,-3.3,4.3,-6.3,6.2,-9.7c-.6,-.8,-1.2,-2.3,-.9,-3.6c.5,1.2,1.6,1.9,2.4,2.9c-.1,.6,-.3,1.1,-.4,1.7c.6,.7,1.4,1.2,2.4,1.4c.5,-.4,.5,-1.2,1.2,-1.5c.9,.4,1.8,.8,3.1,.8c.1,.1,.5,.1,.8,.1c.4,0,.7,0,.8,-.1c.1,0,.2,0,.3,0c.3,0,.5,-.1,.7,-.1c.1,-.1,.3,-.2,.5,-.2c.1,0,.2,.1,.3,.1c-1.3,.7,-2.2,1.8,-4.2,1.8c-.1,0,-.2,0,-.3,0c-.9,3.7,-1.9,7.4,-2.7,11.2c.6,1,1.5,1.7,1.3,3.1c-.5,2.7,-3.9,4.4,-7.2,4.4c-1.3,0,-2.5,-.2,-3.6,-.7c-1,2.1,-2.1,4.1,-3.3,6c0,-.4,.3,-.4,.3,-.8c.9,-1.8,1.9,-3.5,2.6,-5.6c-1.1,1.7,-1.8,3.7,-2.8,5.5c-.2,.4,-.4,.9,-.6,1.3c-.3,.4,-.3,1.1,-.8,1.4Z"/></clipPath>
<clipPath id="cf_237"><path d="M841.5,471.8c-4.8,0,-13.1,-7.3,-5.6,-8.8h1.3c.1,0,.3,0,.5,0q.1,0,.2,0c.3,0,.7,0,1.1,.1c3,.7,8.2,3.8,7.5,7.1c-.2,1.1,-1.6,1.5,-3.1,1.6h-1.8c0,0,-.1,0,-.1,0Z"/></clipPath>
<clipPath id="cg_237"><path d="M786.5,132.5V120.1H801v12.4Z"/></clipPath>
<style type="text/css"><![CDATA[
.g0_237{
fill: #FEFCF4;
}
.g1_237{
fill: #FFF;
}
.g2_237{
fill: none;
stroke: #6381B7;
stroke-width: 0.763;
}
.g3_237{
fill: #F7C2D9;
}
.g4_237{
fill: #FDF4F3;
}
.g5_237{
fill: #EC008C;
}
.g6_237{
fill: none;
stroke: #949698;
stroke-width: 0.305;
stroke-dasharray: 4,4;
}
.g7_237{
fill: none;
stroke: #949698;
stroke-width: 0.305;
}
.g8_237{
fill: #6D6F71;
}
.g9_237{
fill: none;
stroke: #949698;
stroke-width: 0.305;
stroke-dasharray: 3,3;
}
.ga_237{
fill: #6381B7;
}
.gb_237{
fill: none;
stroke: #6381B7;
stroke-width: 0.381;
stroke-dasharray: 2,1;
}
.gc_237{
fill: none;
stroke: #6381B7;
stroke-width: 0.381;
}
.gd_237{
fill: #FCE8B0;
}
.ge_237{
fill: none;
stroke: #00ABE5;
stroke-width: 2.291;
}
.gf_237{
fill: #3D3B39;
}
.gg_237{
fill: #E5E9B7;
}
.gh_237{
fill: #61C7CB;
}
.gi_237{
fill: none;
stroke: #00ABE5;
stroke-width: 1.527;
stroke-linecap: round;
stroke-linejoin: round;
stroke-dasharray: 0,5;
}
.gj_237{
fill: none;
stroke: #00ABE5;
stroke-width: 1.527;
stroke-linecap: round;
stroke-linejoin: round;
}
.gk_237{
fill: #25408F;
}
.gl_237{
fill: #A8AAAD;
}
.gm_237{
fill: none;
stroke: #949698;
stroke-width: 0.549;
}
.gn_237{
fill: none;
stroke: #BCBEC0;
stroke-width: 2.566;
}
.go_237{
fill: #231F20;
}
.gp_237{
fill: #363637;
}
.gq_237{
fill: #5CC4BE;
}
.gr_237{
fill: #F0D73F;
}
.gs_237{
fill: none;
stroke: #FFF;
stroke-width: 1.909;
stroke-miterlimit: 10;
}
.gt_237{
fill: none;
stroke: #000;
stroke-width: 0.381;
stroke-miterlimit: 10;
}
]]></style>
</defs>
<path d="M45.1,1344.3H967.5V32.1H45.1V1344.3Z" class="g0_237"/>
<path d="M172.2,136.8c0,0,-18.3,0,-18.3,18.3V774.7c0,0,0,18.3,18.3,18.3H849.4c0,0,18.3,0,18.3,-18.3V136.8Z" class="g1_237"/>
<path d="M172.2,136.8c0,0,-18.3,0,-18.3,18.3V774.7c0,0,0,18.3,18.3,18.3H849.4c0,0,18.3,0,18.3,-18.3V136.8H172.2Z" class="g2_237"/>
<image clip-path="url(#c0_237)" preserveAspectRatio="none" x="719" y="483" width="219" height="256" xlink:href="img/1.png"/>
<path d="M731.6,488.4l-6.9,239.1l201.8,4.7l5.9,-238.6Z" class="g3_237"/>
<image clip-path="url(#c1_237)" preserveAspectRatio="none" x="718" y="484" width="221" height="257" xlink:href="img/2.png"/>
<image clip-path="url(#c2_237)" preserveAspectRatio="none" x="718" y="483" width="221" height="257" xlink:href="img/3.png"/>
<path d="M723.4,498.3L734,733.7l170.2,-9l28.4,-27.8L923.9,487.8Z" class="g4_237"/>
<path d="M904.3,724.9l28,-27.8l-17.5,-8.7Z" class="g5_237"/>
<path d="M573.5,552.1c13.6,-1,24.6,-5.7,27.4,-11.9m-.8,-7.7c-3.9,-5.7,-14.9,-9.9,-28.3,-10.5m-8.1,.1C550,523,539,527.8,536.2,533.9m.8,7.7c3.9,5.7,15,9.9,28.3,10.5" class="g6_237"/>
<path d="M601.4,538.7c.2,-.5,.2,-1.1,.2,-1.6c0,-.6,0,-1.1,-.2,-1.6M570.2,521.9c-.6,0,-1.1,0,-1.6,0c-.6,0,-1.1,0,-1.7,0m-31.2,13.6c-.2,.5,-.2,1,-.2,1.6c0,.5,0,1.1,.2,1.6m31.2,13.5c.6,0,1.1,0,1.7,0c.5,0,1,0,1.6,0" class="g7_237"/>
<path d="M723,477.3l4.4,-5l5.1,6.9Z" class="g8_237"/>
<path d="M565.1,517.5c8.3,-11.4,34,-44.4,56.1,-45.5m6.2,3.9c1,2.4,.3,5.5,-6.6,7.8" class="g6_237"/>
<path d="M617.7,474.4c5.2,-5.1,18.7,-13.9,49.5,-13.6m7.4,.2c9.1,.5,31,2.6,49.3,11.9" class="g9_237"/>
<path d="M562.3,521.4c0,0,.3,-.5,.9,-1.3m59.6,-48.2c.5,.1,1,.1,1.5,.1c0,0,.6,.5,1.3,1.2m-6.4,11c-.5,.1,-1.1,.2,-1.6,.4c0,0,-.8,-.4,-1.6,-1.2m-1.5,-3.6c0,-.6,.1,-1.2,.3,-1.9c0,0,.3,-.5,.9,-1.3m53,-15.8c.5,0,1,0,1.5,0c0,0,.5,0,1.4,.1m53.6,12.7c.4,.3,.9,.5,1.3,.7" class="g7_237"/>
<path d="M535.4,990.9c0,0,-4.3,0,-4.3,4.3V1006c0,0,0,4.4,4.3,4.4h30.3c0,0,4.3,0,4.3,-4.4V995.2c0,0,0,-4.3,-4.3,-4.3Z" class="ga_237"/>
<path d="M522.2,982v37.6m1.4,.9H866.8m.9,-1.3V981.6m-1.3,-.9H523.2" class="gb_237"/>
<path d="M522.2,1020v.5h.6m344.4,0h.5v-.5m0,-38.7v-.6h-.5m-344.4,0h-.6v.6" class="gc_237"/>
<path d="M166.7,805.5c0,0,-13,0,-13,13V963c0,0,0,13,13,13H854.5c0,0,13,0,13,-13V818.5c0,0,0,-13,-13,-13Z" class="g1_237"/>
<path d="M166.7,805.5c0,0,-13,0,-13,13V963c0,0,0,13,13,13H854.5c0,0,13,0,13,-13V818.5c0,0,0,-13,-13,-13H166.7Z" class="g2_237"/>
<path d="M231.2,844.1c0,0,-12.9,0,-12.9,13v21.6c0,0,0,13,12.9,13H833.3c0,0,13,0,13,-13V857.1c0,0,0,-13,-13,-13Z" class="gd_237"/>
<image clip-path="url(#c3_237)" preserveAspectRatio="none" x="174" y="814" width="75" height="77" xlink:href="img/4.png"/>
<path d="M226,884.4c0,0,-26.8,11.3,-51.1,-12.8c0,0,15.2,25.3,49.3,24c0,0,24.8,.3,20.3,-10.2c0,0,1.2,-4.4,-18.5,-1Z" class="gd_237"/>
<path d="M231.8,164.9c0,0,-13,0,-13,13v47.6c0,0,0,13,13,13h602c0,0,13,0,13,-13V177.9c0,0,0,-13,-13,-13Z" class="gd_237"/>
<image clip-path="url(#c4_237)" preserveAspectRatio="none" x="175" y="161" width="75" height="76" xlink:href="img/5.png"/>
<path d="M226.6,231.2c0,0,-26.9,11.3,-51.1,-12.8c0,0,15.1,25.3,49.3,24c0,0,24.7,.3,20.2,-10.1c0,0,1.2,-4.5,-18.4,-1.1Z" class="gd_237"/>
<image clip-path="url(#c5_237)" preserveAspectRatio="none" x="85" y="422" width="231" height="266" xlink:href="img/6.png"/>
<path d="M90.5,437.6l12.1,244L311.1,670.7l-2.2,-41.6L299,426.7Z" class="g3_237"/>
<image clip-path="url(#c6_237)" preserveAspectRatio="none" x="89" y="428" width="221" height="253" xlink:href="img/7.png"/>
<image clip-path="url(#c7_237)" preserveAspectRatio="none" x="89" y="428" width="221" height="252" xlink:href="img/8.png"/>
<path d="M94.9,433.1l-1,240.6H271.2l31.5,-28l1,-212.6Z" class="g4_237"/>
<path d="M270.7,674.1l31.6,-28.2l-13.8,-7.5Z" class="g5_237"/>
<path d="M230.2,665.9l-7.8,5.8l-5.2,-11.5Z" class="g8_237"/>
<path d="M551.4,655c-17.1,9.5,-85.8,45.5,-130.5,39.4m-6.5,-3.9c-2.4,-3.5,-2.2,-8.5,18,-9.2" class="g6_237"/>
<path d="M438.9,683.6c.9,1,1.4,2.2,.9,3.7m-5.5,4.4c-9.8,4.4,-39.4,13.4,-105.3,4.2" class="g9_237"/>
<path d="M321.4,694.8c-14.7,-2.2,-60.9,-10.1,-94.9,-26.9" class="g6_237"/>
<path d="M555.3,652.8c0,0,-.4,.2,-1.3,.7M419.4,694.1c-.5,0,-1,-.1,-1.5,-.2c0,0,-.6,-.4,-1.3,-1M434,681.3c.6,0,1.1,0,1.7,0c0,0,.5,.2,1.1,.6m2.4,6.6c-.3,.4,-.6,.7,-.9,1c0,0,-.4,.3,-1.3,.8m-109.5,5.4c-.5,0,-.9,-.1,-1.4,-.2c0,0,-.6,-.1,-1.6,-.2M225.1,667.2c-.4,-.2,-.9,-.5,-1.4,-.7" class="g7_237"/>
<path d="M558.9,653.7c15,-1,26.9,-6.7,29.5,-14.1m-.6,-7.2c-3.6,-6.9,-15.7,-12.2,-30.4,-12.8m-7.4,.1c-14.9,1,-26.9,6.7,-29.4,14.1m.6,7.2c3.5,6.9,15.6,12.1,30.3,12.7" class="g9_237"/>
<path d="M588.7,638.2c.1,-.5,.2,-1,.2,-1.5c0,-.5,-.1,-1,-.2,-1.5M556,619.6c-.5,0,-1,-.1,-1.5,-.1c-.5,0,-1,.1,-1.5,.1m-32.8,15.6c-.1,.5,-.1,1,-.1,1.5c0,.5,0,1,.1,1.5M553,653.8c.5,0,1,0,1.5,0c.5,0,1,0,1.5,0" class="g7_237"/>
<image clip-path="url(#c8_237)" x="195" y="432" width="6" height="10" xlink:href="shade/1.png"/>
<image clip-path="url(#c9_237)" x="195" y="406" width="24" height="28" xlink:href="shade/2.png"/>
<image clip-path="url(#ca_237)" x="194" y="408" width="24" height="34" xlink:href="shade/3.png"/>
<image clip-path="url(#cb_237)" x="200" y="404" width="20" height="10" xlink:href="shade/4.png"/>
<image clip-path="url(#cc_237)" x="823" y="491" width="6" height="9" xlink:href="shade/5.png"/>
<image clip-path="url(#cd_237)" x="823" y="464" width="24" height="28" xlink:href="shade/6.png"/>
<image clip-path="url(#ce_237)" x="822" y="466" width="23" height="34" xlink:href="shade/7.png"/>
<image clip-path="url(#cf_237)" x="828" y="462" width="20" height="10" xlink:href="shade/8.png"/>
<path d="M154.5,1069.6v-28.7c0,0,0,-4.4,4.3,-4.4H862.4c0,0,4.4,0,4.4,4.4V1070" class="ge_237"/>
<path d="M200.1,1037.1c2.6,0,4.8,-2.2,4.8,-4.8c0,-2.7,-2.2,-4.8,-4.8,-4.8c-2.7,0,-4.8,2.1,-4.8,4.8c0,2.6,2.1,4.8,4.8,4.8Z" class="g1_237"/>
<path d="M200.1,1039c3.6,0,6.6,-3,6.6,-6.7c0,-3.7,-3,-6.7,-6.6,-6.7c-3.7,0,-6.7,3,-6.7,6.7c0,3.7,3,6.7,6.7,6.7m0,-11.5c2.6,0,4.8,2.1,4.8,4.8c0,2.6,-2.2,4.8,-4.8,4.8c-2.7,0,-4.8,-2.2,-4.8,-4.8c0,-2.7,2.1,-4.8,4.8,-4.8Z" class="gf_237"/>
<path d="M205.5,1040.9H194.6c-.1,0,-.3,0,-.4,0c2.7,1.1,4.9,3.4,5.9,6.2c1.3,-.5,2.7,-.8,4.2,-.8c2.9,0,5.5,1,7.5,2.7v-1.8c0,-3.5,-2.8,-6.3,-6.3,-6.3Z" class="g1_237"/>
<path d="M184,1037.9c3.4,0,6.1,-2.7,6.1,-6.1c0,-3.4,-2.7,-6.2,-6.1,-6.2c-3.4,0,-6.1,2.8,-6.1,6.2c0,3.4,2.7,6.1,6.1,6.1Z" class="gg_237"/>
<path d="M184,1039.8c4.4,0,8,-3.6,8,-8c0,-4.4,-3.6,-8,-8,-8c-4.4,0,-8,3.6,-8,8c0,4.4,3.6,8,8,8m0,-14.2c3.4,0,6.1,2.8,6.1,6.2c0,3.4,-2.7,6.1,-6.1,6.1c-3.4,0,-6.1,-2.7,-6.1,-6.1c0,-3.4,2.7,-6.2,6.1,-6.2Z" class="gf_237"/>
<path d="M198.4,1047.9c-1,-3.3,-4.1,-5.7,-7.7,-5.7H177.3c-4.4,0,-8,3.6,-8,8v4.3h23.8c.9,-2.8,2.8,-5.1,5.3,-6.6Z" class="gg_237"/>
<path d="M204.3,1048.2c-5.5,0,-9.9,4.5,-9.9,10c0,5.5,4.4,10,9.9,10c5.5,0,10,-4.5,10,-10c0,-5.5,-4.5,-10,-10,-10m6.7,11.7c0,.2,-.2,.4,-.5,.4h-4v4.1c0,.2,-.2,.4,-.5,.4h-3.3c-.3,0,-.5,-.2,-.5,-.4v-4.1h-4.1c-.2,0,-.4,-.2,-.4,-.4v-3.4c0,-.3,.2,-.5,.4,-.5h4.1v-4c0,-.3,.2,-.5,.5,-.5H206c.3,0,.5,.2,.5,.5v4h4c.3,0,.5,.2,.5,.5Z" class="gh_237"/>
<path d="M213.7,1050.9v-3.7c0,-4.5,-3.7,-8.2,-8.2,-8.2H194.6c-1.6,0,-3.1,.5,-4.3,1.3h-13c-5.4,0,-9.9,4.4,-9.9,9.9v5.2c0,.5,.4,1,1,1h24.2c-.1,.6,-.1,1.2,-.1,1.8c0,6.5,5.3,11.8,11.8,11.8c6.6,0,11.9,-5.3,11.9,-11.8c0,-2.8,-.9,-5.3,-2.5,-7.3m-9.4,17.3c-5.5,0,-9.9,-4.5,-9.9,-10c0,-5.5,4.4,-10,9.9,-10c5.5,0,10,4.5,10,10c0,5.5,-4.5,10,-10,10m-35,-18c0,-4.4,3.6,-8,8,-8h13.4c3.6,0,6.7,2.4,7.7,5.7c-2.5,1.5,-4.4,3.8,-5.3,6.6H169.3Zm42.5,-1.2c-2,-1.7,-4.6,-2.7,-7.5,-2.7c-1.5,0,-2.9,.3,-4.2,.8c-1,-2.8,-3.2,-5.1,-5.9,-6.2c.1,0,.3,0,.4,0h10.9c3.5,0,6.3,2.8,6.3,6.3Z" class="gf_237"/>
<path d="M205.5,1056.5v-4h-2.4v4c0,.3,-.2,.5,-.4,.5h-4.1v2.4h4.1c.2,0,.4,.2,.4,.5v4h2.4v-4c0,-.3,.3,-.5,.5,-.5h4.1V1057H206c-.2,0,-.5,-.2,-.5,-.5Z" class="g1_237"/>
<path d="M210.5,1056h-4v-4c0,-.3,-.2,-.5,-.5,-.5h-3.3c-.3,0,-.5,.2,-.5,.5v4h-4.1c-.2,0,-.4,.2,-.4,.5v3.4c0,.2,.2,.4,.4,.4h4.1v4.1c0,.2,.2,.4,.5,.4H206c.3,0,.5,-.2,.5,-.4v-4.1h4c.3,0,.5,-.2,.5,-.4v-3.4c0,-.3,-.2,-.5,-.5,-.5m-.4,3.4H206c-.2,0,-.5,.2,-.5,.5v4h-2.4v-4c0,-.3,-.2,-.5,-.4,-.5h-4.1V1057h4.1c.2,0,.4,-.2,.4,-.5v-4h2.4v4c0,.3,.3,.5,.5,.5h4.1Z" class="gf_237"/>
<path d="M154.1,1079.7V1246m4.6,2.3H864.9m2.2,-4.6V1077.4m-4.5,-2.3H156.4" class="gi_237"/>
<path d="M154.1,1248.3v0m713.1,0v0m0,-173.2v0m-713.1,0v0" class="gj_237"/>
<path d="M153.3,111.9v39L165,161.2V117Z" class="gk_237"/>
<path d="M153.3,111.9v39H851.1c0,0,16.8,0,16.8,-16.8v-5.3c0,0,0,-16.9,-16.8,-16.9Z" class="ga_237"/>
<path d="M802.6,145.6c8.2,0,14.9,-6.5,14.9,-14.5c0,-8.1,-6.7,-14.5,-14.9,-14.5c-8.2,0,-14.9,6.4,-14.9,14.5c0,8,6.7,14.5,14.9,14.5Z" class="gl_237"/>
<path d="M802.6,145.6c8.2,0,14.9,-6.5,14.9,-14.5c0,-8.1,-6.7,-14.5,-14.9,-14.5c-8.2,0,-14.9,6.4,-14.9,14.5c0,8,6.7,14.5,14.9,14.5Z" class="gm_237"/>
<path d="M802.6,136.4c3,0,5.5,-2.4,5.5,-5.3c0,-3,-2.5,-5.4,-5.5,-5.4c-3,0,-5.5,2.4,-5.5,5.4c0,2.9,2.5,5.3,5.5,5.3Z" class="g1_237"/>
<path d="M802.6,136.4c3,0,5.5,-2.4,5.5,-5.3c0,-3,-2.5,-5.4,-5.5,-5.4c-3,0,-5.5,2.4,-5.5,5.4c0,2.9,2.5,5.3,5.5,5.3Z" class="gn_237"/>
<g clip-path="url(#cg_237)" opacity="0.3">
<path d="M788,130.3v0c0,0,0,-4.8,3.7,-8.7l7.7,6.8c0,0,-1,.9,-1,2.6Z" class="g1_237"/>
</g>
<path d="M807.2,131c0,0,-3.5,0,-3.5,3.4v8.7c0,0,0,3.5,3.5,3.5h43.5c0,0,3.5,0,3.5,-3.5v-8.7c0,0,0,-3.4,-3.5,-3.4Z" class="go_237"/>
<path d="M191.2,122c0,-8.3,-6.8,-15,-15.1,-15c-8.3,0,-15,6.7,-15,15c0,8.3,6.7,15.1,15,15.1c.8,0,1.7,-.1,2.4,-.2l4.5,5.2v-6.7c4.9,-2.5,8.2,-7.6,8.2,-13.4Z" class="g1_237"/>
<path d="M183.5,143.3l-5.1,-5.9c-.8,.1,-1.5,.1,-2.3,.1c-8.5,0,-15.5,-6.9,-15.5,-15.5c0,-8.5,7,-15.5,15.5,-15.5c8.6,0,15.5,7,15.5,15.5c0,5.7,-3.1,11,-8.1,13.7Zm-4.8,-6.9l3.9,4.5v-5.8l.2,-.1c4.9,-2.5,7.9,-7.5,7.9,-13c0,-8,-6.5,-14.6,-14.6,-14.6c-8,0,-14.6,6.6,-14.6,14.6c0,8.1,6.6,14.6,14.6,14.6c.8,0,1.6,-.1,2.4,-.2Z" class="gp_237"/>
<path d="M169.1,121.6c.8,0,1.4,.6,1.4,1.4c0,.8,-.6,1.5,-1.4,1.5c-.8,0,-1.4,-.7,-1.4,-1.5c0,-.8,.6,-1.4,1.4,-1.4Z" class="gq_237"/>
<path d="M169.1,124.9c-1,0,-1.9,-.8,-1.9,-1.9c0,-1,.9,-1.9,1.9,-1.9c1,0,1.9,.9,1.9,1.9c0,1.1,-.9,1.9,-1.9,1.9m0,-2.9c-.5,0,-1,.5,-1,1c0,.6,.5,1,1,1c.5,0,1,-.4,1,-1c0,-.5,-.5,-1,-1,-1Z" class="gp_237"/>
<path d="M176.1,121.6c.8,0,1.5,.6,1.5,1.4c0,.8,-.7,1.5,-1.5,1.5c-.8,0,-1.4,-.7,-1.4,-1.5c0,-.8,.6,-1.4,1.4,-1.4Z" class="gq_237"/>
<path d="M176.1,124.9c-1,0,-1.9,-.8,-1.9,-1.9c0,-1,.9,-1.9,1.9,-1.9c1.1,0,1.9,.9,1.9,1.9c0,1.1,-.8,1.9,-1.9,1.9m0,-2.9c-.5,0,-1,.5,-1,1c0,.6,.5,1,1,1c.6,0,1,-.4,1,-1c0,-.5,-.4,-1,-1,-1Z" class="gp_237"/>
<path d="M183.1,121.6c.8,0,1.5,.6,1.5,1.4c0,.8,-.7,1.5,-1.5,1.5c-.8,0,-1.4,-.7,-1.4,-1.5c0,-.8,.6,-1.4,1.4,-1.4Z" class="gq_237"/>
<path d="M183.1,124.9c-1,0,-1.9,-.8,-1.9,-1.9c0,-1,.9,-1.9,1.9,-1.9c1.1,0,1.9,.9,1.9,1.9c0,1.1,-.8,1.9,-1.9,1.9m0,-2.9c-.5,0,-1,.5,-1,1c0,.6,.5,1,1,1c.6,0,1,-.4,1,-1c0,-.5,-.4,-1,-1,-1Z" class="gp_237"/>
<path d="M185.1,136.3c0,-9.8,7.8,-17.7,17.6,-17.7c9.7,0,17.6,7.9,17.6,17.7c0,9.7,-7.9,17.6,-17.6,17.6c-1,0,-1.9,-.1,-2.9,-.3l-5.2,6.1v-7.8c-5.7,-2.9,-9.5,-8.8,-9.5,-15.6Z" class="gr_237"/>
<path d="M194.6,160.2q-.1,0,-.2,0c-.2,-.1,-.3,-.3,-.3,-.5v-7.5c-5.9,-3.2,-9.5,-9.2,-9.5,-15.9c0,-10,8.1,-18.1,18.1,-18.1c9.9,0,18,8.1,18,18.1c0,9.9,-8.1,18,-18,18c-.9,0,-1.8,0,-2.7,-.2l-5.1,5.9c-.1,.1,-.2,.2,-.3,.2m8.1,-41.1c-9.5,0,-17.2,7.7,-17.2,17.2c0,6.4,3.6,12.2,9.3,15.2c.1,.1,.2,.2,.2,.4v6.6l4.5,-5.2c.1,-.1,.3,-.1,.4,-.1c1,.1,1.9,.2,2.8,.2c9.4,0,17.1,-7.7,17.1,-17.1c0,-9.5,-7.7,-17.2,-17.1,-17.2Z" class="gp_237"/>
<path d="M210.9,135.8c.9,0,1.6,.7,1.6,1.6c0,1,-.7,1.7,-1.6,1.7c-1,0,-1.7,-.7,-1.7,-1.7c0,-.9,.7,-1.6,1.7,-1.6Z" class="g1_237"/>
<path d="M210.9,139.6c-1.2,0,-2.2,-1,-2.2,-2.2c0,-1.1,1,-2.1,2.2,-2.1c1.1,0,2.1,1,2.1,2.1c0,1.2,-1,2.2,-2.1,2.2m0,-3.4c-.7,0,-1.3,.6,-1.3,1.2c0,.7,.6,1.3,1.3,1.3c.6,0,1.2,-.6,1.2,-1.3c0,-.6,-.6,-1.2,-1.2,-1.2Z" class="gp_237"/>
<path d="M202.7,135.8c.9,0,1.6,.7,1.6,1.6c0,1,-.7,1.7,-1.6,1.7c-1,0,-1.7,-.7,-1.7,-1.7c0,-.9,.7,-1.6,1.7,-1.6Z" class="g1_237"/>
<path d="M202.7,139.6c-1.2,0,-2.2,-1,-2.2,-2.2c0,-1.1,1,-2.1,2.2,-2.1c1.1,0,2.1,1,2.1,2.1c0,1.2,-1,2.2,-2.1,2.2m0,-3.4c-.7,0,-1.3,.6,-1.3,1.2c0,.7,.6,1.3,1.3,1.3c.6,0,1.2,-.6,1.2,-1.3c0,-.6,-.6,-1.2,-1.2,-1.2Z" class="gp_237"/>
<path d="M194.5,135.8c.9,0,1.6,.7,1.6,1.6c0,1,-.7,1.7,-1.6,1.7c-1,0,-1.7,-.7,-1.7,-1.7c0,-.9,.7,-1.6,1.7,-1.6Z" class="g1_237"/>
<path d="M194.5,139.6c-1.2,0,-2.2,-1,-2.2,-2.2c0,-1.1,1,-2.1,2.2,-2.1c1.1,0,2.1,1,2.1,2.1c0,1.2,-1,2.2,-2.1,2.2m0,-3.4c-.7,0,-1.2,.6,-1.2,1.2c0,.7,.5,1.3,1.2,1.3c.6,0,1.2,-.6,1.2,-1.3c0,-.6,-.6,-1.2,-1.2,-1.2Z" class="gp_237"/>
<path d="M32.1,45.1H9.2m958.3,0h22.9M32.1,1331.3H9.2m958.3,0h22.9M45.1,32.1V9.2m0,1335.1v22.9M954.5,32.1V9.2m0,1335.1v22.9" class="gs_237"/>
<path d="M32.1,45.1H9.2m958.3,0h22.9M32.1,1331.3H9.2m958.3,0h22.9M45.1,32.1V9.2m0,1335.1v22.9M954.5,32.1V9.2m0,1335.1v22.9" class="gt_237"/>
<path d="M27.5,32.1H0m972.1,0h27.5M27.5,1344.3H0m972.1,0h27.5M32.1,27.5V0m0,1348.9v27.5M967.5,27.5V0m0,1348.9v27.5" class="gs_237"/>
<path d="M27.5,32.1H0m972.1,0h27.5M27.5,1344.3H0m972.1,0h27.5M32.1,27.5V0m0,1348.9v27.5M967.5,27.5V0m0,1348.9v27.5" class="gt_237"/>
</svg>