<?xml version="1.0" encoding="UTF-8" standalone="no"?>
<!DOCTYPE svg PUBLIC "-//W3C//DTD SVG 1.1//EN"
"http://www.w3.org/Graphics/SVG/1.1/DTD/svg11.dtd">
<svg viewBox="0 0 999 1376" version="1.1" xmlns="http://www.w3.org/2000/svg" xmlns:xlink="http://www.w3.org/1999/xlink">
<defs>
<clipPath id="c0_235"><path d="M32.1,1344.3V32.1H967.5V1344.3Z"/></clipPath>
<clipPath id="c1_235"><path d="M224.3,428.6v-85H330v85Z"/></clipPath>
<clipPath id="c2_235"><path d="M538.2,428.6v-85H644v85Z"/></clipPath>
<clipPath id="c3_235"><path d="M380.5,428.6v-85H487.1v85Z"/></clipPath>
<clipPath id="c4_235"><path d="M694.5,428.6v-85H801.1v85Z"/></clipPath>
<clipPath id="c5_235"><path d="M230.1,703.6v-85H324v85Z"/></clipPath>
<clipPath id="c6_235"><path d="M550.4,701.8V618.6h85v83.2Z"/></clipPath>
<clipPath id="c7_235"><path d="M380.5,702.6v-84H487.1v84Z"/></clipPath>
<clipPath id="c8_235"><path d="M700.3,703.6v-85h99.4v85Z"/></clipPath>
<clipPath id="c9_235"><path d="M223.7,566.1v-85H329.8v85Z"/></clipPath>
<clipPath id="ca_235"><path d="M537.5,565.8V481.1H644v84.7Z"/></clipPath>
<clipPath id="cb_235"><path d="M386.5,566.1v-85h98.7v85Z"/></clipPath>
<clipPath id="cc_235"><path d="M694.5,566.1v-85h103v85Z"/></clipPath>
<clipPath id="cd_235"><path d="M226.6,841.1v-85H330v85Z"/></clipPath>
<clipPath id="ce_235"><path d="M548.6,841.1v-85h85v85Z"/></clipPath>
<clipPath id="cf_235"><path d="M386.4,838.4V756.1h87.5v82.3Z"/></clipPath>
<clipPath id="cg_235"><path d="M447.8,1143.1v-91.6H548.2v91.6Z"/></clipPath>
<clipPath id="ch_235"><path d="M571.1,1143.5v-92h92v92Z"/></clipPath>
<clipPath id="ci_235"><path d="M326.3,1143v-91.5H426.7V1143Z"/></clipPath>
<clipPath id="cj_235"><path d="M202.1,1143.5v-92h92v92Z"/></clipPath>
<clipPath id="ck_235"><path d="M200.7,970.8l-6.5,-2.1L177.8,954.8V897.7h72v73.1Z"/></clipPath>
<clipPath id="cl_235"><path d="M199.2,323.1l-6.5,-2.2L176.3,307V249.9h72v73.2Z"/></clipPath>
<clipPath id="cm_235"><path d="M658.6,177V59h200V177Z"/></clipPath>
<style type="text/css"><![CDATA[
.g0_235{
fill: #FEFCF4;
}
.g1_235{
fill: #FFF;
}
.g2_235{
fill: none;
stroke: #6381B7;
stroke-width: 0.763;
}
.g3_235{
fill: none;
stroke: #949698;
stroke-width: 1.268;
}
.g4_235{
fill: #6381B7;
}
.g5_235{
fill: none;
stroke: #6381B7;
stroke-width: 0.381;
stroke-dasharray: 2,1;
}
.g6_235{
fill: none;
stroke: #6381B7;
stroke-width: 0.381;
}
.g7_235{
fill: none;
stroke: #949698;
stroke-width: 0.458;
}
.g8_235{
fill: #48484A;
}
.g9_235{
fill: #F0E8F3;
}
.ga_235{
fill: #766FA6;
}
.gb_235{
fill: #FCE8B0;
}
.gc_235{
fill: #2E6E51;
}
.gd_235{
fill: #BCBEC0;
}
.ge_235{
fill: #EE314A;
}
.gf_235{
fill: #25408F;
}
.gg_235{
fill: #00BAF1;
}
.gh_235{
fill: #332D2C;
}
.gi_235{
fill: #D9DFF0;
}
.gj_235{
fill: #F27C85;
}
.gk_235{
fill: #7DD3F6;
}
.gl_235{
fill: none;
stroke: #FFF;
stroke-width: 1.909;
stroke-miterlimit: 10;
}
.gm_235{
fill: none;
stroke: #000;
stroke-width: 0.381;
stroke-miterlimit: 10;
}
]]></style>
</defs>
<path clip-path="url(#c0_235)" d="M-877.3,1344.3H45.1V32.1H-877.3V1344.3Z" class="g0_235"/>
<path d="M45.1,1344.3H967.5V32.1H45.1V1344.3Z" class="g0_235"/>
<path d="M172.6,225.9c0,0,-18.4,0,-18.4,18.4V869.4c0,0,0,18.4,18.4,18.4H849.7c0,0,18.3,0,18.3,-18.4V225.9Z" class="g1_235"/>
<path d="M172.6,225.9c0,0,-18.4,0,-18.4,18.4V869.4c0,0,0,18.4,18.4,18.4H849.7c0,0,18.3,0,18.3,-18.4V225.9H172.6Z" class="g2_235"/>
<image clip-path="url(#c1_235)" preserveAspectRatio="none" x="224" y="342" width="107" height="88" xlink:href="img/1.jpg"/>
<path d="M223.4,428.6H330v-85H223.4v85Z" class="g3_235"/>
<image clip-path="url(#c2_235)" preserveAspectRatio="none" x="538" y="342" width="106" height="88" xlink:href="img/2.jpg"/>
<path d="M537.5,428.6H644v-85H537.5v85Z" class="g3_235"/>
<image clip-path="url(#c3_235)" preserveAspectRatio="none" x="379" y="342" width="109" height="88" xlink:href="img/3.jpg"/>
<path d="M380.5,428.6H487.1v-85H380.5v85Z" class="g3_235"/>
<image clip-path="url(#c4_235)" preserveAspectRatio="none" x="693" y="343" width="109" height="87" xlink:href="img/4.jpg"/>
<path d="M694.5,428.6H801.1v-85H694.5v85Z" class="g3_235"/>
<image clip-path="url(#c5_235)" preserveAspectRatio="none" x="230" y="617" width="94" height="88" xlink:href="img/5.jpg"/>
<path d="M223.4,703.6H330v-85H223.4v85Z" class="g3_235"/>
<image clip-path="url(#c6_235)" preserveAspectRatio="none" x="550" y="617" width="85" height="85" xlink:href="img/6.jpg"/>
<path d="M537.5,703.6H644v-85H537.5v85Z" class="g3_235"/>
<image clip-path="url(#c7_235)" preserveAspectRatio="none" x="380" y="617" width="108" height="86" xlink:href="img/7.jpg"/>
<path d="M380.5,703.6H487.1v-85H380.5v85Z" class="g3_235"/>
<image clip-path="url(#c8_235)" preserveAspectRatio="none" x="700" y="617" width="100" height="88" xlink:href="img/8.jpg"/>
<path d="M694.5,703.6H801.1v-85H694.5v85Z" class="g3_235"/>
<image clip-path="url(#c9_235)" preserveAspectRatio="none" x="224" y="480" width="106" height="87" xlink:href="img/9.jpg"/>
<path d="M223.4,566.1H330v-85H223.4v85Z" class="g3_235"/>
<image clip-path="url(#ca_235)" preserveAspectRatio="none" x="536" y="481" width="109" height="85" xlink:href="img/10.jpg"/>
<path d="M537.5,566.1H644v-85H537.5v85Z" class="g3_235"/>
<image clip-path="url(#cb_235)" preserveAspectRatio="none" x="386" y="480" width="99" height="87" xlink:href="img/11.jpg"/>
<path d="M380.5,566.1H487.1v-85H380.5v85Z" class="g3_235"/>
<image clip-path="url(#cc_235)" preserveAspectRatio="none" x="693" y="480" width="105" height="87" xlink:href="img/12.jpg"/>
<path d="M694.5,566.1H801.1v-85H694.5v85Z" class="g3_235"/>
<image clip-path="url(#cd_235)" preserveAspectRatio="none" x="227" y="754" width="104" height="88" xlink:href="img/13.jpg"/>
<path d="M223.4,841.1H330v-85H223.4v85Z" class="g3_235"/>
<image clip-path="url(#ce_235)" preserveAspectRatio="none" x="549" y="756" width="85" height="85" xlink:href="img/14.jpg"/>
<path d="M537.5,841.1H644v-85H537.5v85Z" class="g3_235"/>
<image clip-path="url(#cf_235)" preserveAspectRatio="none" x="386" y="755" width="88" height="84" xlink:href="img/15.jpg"/>
<path d="M380.5,841.1H487.1v-85H380.5v85Z" class="g3_235"/>
<path d="M203.1,473.8H826.8v-39H203.1v39Z" class="g1_235"/>
<path d="M203.1,610.2H826.8V571.3H203.1v38.9Z" class="g1_235"/>
<path d="M203.1,746.7H826.8v-39H203.1v39Z" class="g1_235"/>
<path d="M203.1,884.2H826.8v-39H203.1v39Z" class="g1_235"/>
<path d="M581.3,1214.8c0,0,-4.4,0,-4.4,4.4V1230c0,0,0,4.3,4.4,4.3h30.3c0,0,4.3,0,4.3,-4.3v-10.8c0,0,0,-4.4,-4.3,-4.4Z" class="g4_235"/>
<path d="M568.1,1206v37.5m1.3,1H866.7m.9,-1.3v-37.6m-1.3,-1H569" class="g5_235"/>
<path d="M568.1,1243.9v.6h.6m298.3,0h.6v-.6m0,-38.7v-.6H867m-298.3,0h-.6v.6" class="g6_235"/>
<path d="M166.7,985.2c0,0,-13,0,-13,13v185.5c0,0,0,12.9,13,12.9H854.5c0,0,13,0,13,-12.9V998.2c0,0,0,-13,-13,-13Z" class="g1_235"/>
<path d="M166.7,985.2c0,0,-13,0,-13,13v185.5c0,0,0,12.9,13,12.9H854.5c0,0,13,0,13,-12.9V998.2c0,0,0,-13,-13,-13H166.7Z" class="g2_235"/>
<image clip-path="url(#cg_235)" preserveAspectRatio="none" x="447" y="1050" width="102" height="93" xlink:href="img/16.jpg"/>
<path d="M447.8,1178.2H548.2v-30.8H447.8v30.8Z" class="g7_235"/>
<image clip-path="url(#ch_235)" preserveAspectRatio="none" x="571" y="1051" width="92" height="93" xlink:href="img/17.jpg"/>
<path d="M571.1,1178.2H671.5v-30.8H571.1v30.8Z" class="g7_235"/>
<image clip-path="url(#ci_235)" preserveAspectRatio="none" x="326" y="1051" width="101" height="92" xlink:href="img/18.jpg"/>
<path d="M326.3,1178.2H426.7v-30.8H326.3v30.8Z" class="g7_235"/>
<image clip-path="url(#cj_235)" preserveAspectRatio="none" x="202" y="1051" width="92" height="93" xlink:href="img/19.jpg"/>
<path d="M202.1,1178.2H302.5v-30.8H202.1v30.8Z" class="g7_235"/>
<path d="M703.6,1030.7c0,0,-4.3,0,-4.3,4.3v14.7c0,0,0,4.4,4.1,5.8l52.4,18.6c0,0,4.1,1.4,4.1,-2.9V1035c0,0,0,-4.3,-4.3,-4.3Z" class="g8_235"/>
<path d="M724.8,1017.7c0,0,-13,0,-13,13v134c0,0,0,13,13,13h97.9c0,0,13,0,13,-13v-134c0,0,0,-13,-13,-13Z" class="g9_235"/>
<path d="M703.6,1028.5c0,0,-4.3,0,-4.3,4.3v17.4c0,0,0,4.3,4.3,4.3h37.3c0,0,4.3,0,4.3,-4.3v-17.4c0,0,0,-4.3,-4.3,-4.3Z" class="ga_235"/>
<path d="M233.3,925.9c0,0,-13,0,-13,13v21.6c0,0,0,13,13,13H854.9c0,0,13,0,13,-13V938.9c0,0,0,-13,-13,-13Z" class="gb_235"/>
<image clip-path="url(#ck_235)" preserveAspectRatio="none" x="176" y="896" width="75" height="76" xlink:href="img/20.png"/>
<path d="M228.1,966.1c0,0,-26.8,11.3,-51.1,-12.7c0,0,15.2,25.3,49.3,23.9c0,0,24.8,.4,20.3,-10.1c0,0,1.2,-4.4,-18.5,-1.1Z" class="gb_235"/>
<path d="M231.8,278.1c0,0,-13,0,-13,13v21.6c0,0,0,13,13,13h602c0,0,13,0,13,-13V291.1c0,0,0,-13,-13,-13Z" class="gb_235"/>
<image clip-path="url(#cl_235)" preserveAspectRatio="none" x="175" y="248" width="75" height="77" xlink:href="img/21.png"/>
<path d="M226.6,318.3c0,0,-26.9,11.3,-51.1,-12.7c0,0,15.1,25.3,49.3,23.9c0,0,24.7,.4,20.2,-10.1c0,0,1.2,-4.4,-18.4,-1.1Z" class="gb_235"/>
<path d="M32.1,179.3H967.5V32.1H32.1V179.3Z" class="gc_235"/>
<g clip-path="url(#c0_235)">
<path d="M967.5,177.2H-877.3v-5.4h736.6c43.1,0,53.1,-37.9,115.3,-37.9H967.5Z" class="gd_235"/>
<path d="M967.5,183.7H-877.3v-9.8h736.6c43.1,0,53.1,-33.6,115.3,-33.6H967.5Z" class="ge_235"/>
</g>
<image clip-path="url(#cm_235)" preserveAspectRatio="none" x="659" y="59" width="200" height="118" xlink:href="img/22.png"/>
<path d="M153.3,217.5v22.2L165,250V227.8Z" class="gf_235"/>
<path d="M153.3,200.7v39H851.1c0,0,16.8,0,16.8,-16.8v-5.4c0,0,0,-16.8,-16.8,-16.8Z" class="g4_235"/>
<path d="M211.3,212.1l-6.5,-6.4l-21.2,21.2l6.5,6.4Z" class="gg_235"/>
<path d="M190.1,233.9c.1,0,.3,-.1,.4,-.2l21.2,-21.2c.1,-.1,.1,-.2,.1,-.4c0,-.1,0,-.2,-.1,-.3l-6.5,-6.5c-.2,-.2,-.6,-.2,-.8,0l-21.2,21.2c-.1,.1,-.1,.2,-.1,.4c0,.1,0,.2,.1,.3l6.5,6.5c.1,.1,.3,.2,.4,.2m20.5,-21.8l-20.5,20.5l-5.8,-5.7l20.5,-20.5Z" class="gh_235"/>
<path d="M211.3,212.1l-6.5,-6.4l2.1,-2.2l6.5,6.5Z" class="gi_235"/>
<path d="M211.3,212.7c.1,0,.3,-.1,.4,-.2l2.1,-2.1c.1,-.1,.2,-.2,.2,-.4c0,-.1,-.1,-.3,-.2,-.4l-6.5,-6.4c-.2,-.3,-.5,-.3,-.7,0l-2.2,2.1c-.1,.1,-.1,.2,-.1,.4c0,.1,0,.2,.1,.3l6.5,6.5c.1,.1,.3,.2,.4,.2m1.4,-2.7l-1.4,1.4l-5.7,-5.7l1.3,-1.4Z" class="gh_235"/>
<path d="M217,206.4l-6.4,-6.5l-3.7,3.6l6.5,6.5Z" class="gj_235"/>
<path d="M213.4,210.5c.2,0,.3,0,.4,-.1l3.6,-3.6c.2,-.2,.2,-.6,0,-.8l-6.5,-6.5c-.2,-.2,-.5,-.2,-.7,0l-3.6,3.7c-.2,.2,-.2,.5,0,.7l6.5,6.5c.1,.1,.2,.1,.3,.1m2.9,-4.1l-2.9,2.9l-5.7,-5.8l2.9,-2.8Z" class="gh_235"/>
<path d="M179,238l4.6,-11.1l6.5,6.4Z" class="g1_235"/>
<path d="M179,238.5c0,0,.1,0,.2,0l11.1,-4.7c.2,0,.3,-.2,.3,-.4c0,-.1,0,-.3,-.1,-.4L184,226.5c-.1,-.1,-.3,-.2,-.5,-.1c-.2,0,-.3,.1,-.4,.3l-4.6,11.1c-.1,.2,0,.4,.1,.6c.1,.1,.2,.1,.4,.1m10.2,-5.3l-9.3,3.8l3.9,-9.2Z" class="gh_235"/>
<path d="M179,238l2.2,-5.4l3.1,3.1Z" class="gh_235"/>
<path d="M179,238.5c0,0,.1,0,.2,0l5.3,-2.3c.2,0,.3,-.2,.4,-.4c0,-.1,-.1,-.3,-.2,-.4l-3.1,-3.2c-.1,-.1,-.3,-.1,-.5,-.1c-.2,0,-.3,.2,-.4,.3l-2.2,5.4c-.1,.2,0,.4,.1,.6c.1,.1,.2,.1,.4,.1m4.4,-2.9l-3.5,1.4l1.5,-3.5Z" class="gh_235"/>
<path d="M209.5,210.4l-2.9,-3l-21.2,21.2l2.9,3Z" class="gk_235"/>
<path d="M188.3,232.1c.2,0,.3,0,.4,-.1l21.2,-21.2c.1,-.1,.2,-.3,.2,-.4c0,-.2,-.1,-.3,-.2,-.4l-3,-3c-.2,-.2,-.5,-.2,-.7,0L185,228.3c-.1,.1,-.2,.2,-.2,.3c0,.2,.1,.3,.2,.4l3,3c.1,.1,.2,.1,.3,.1m20.5,-21.7l-20.5,20.4l-2.2,-2.2l20.5,-20.4Z" class="gh_235"/>
<path d="M32.1,45.1H9.2m958.3,0h22.9M32.1,1331.3H9.2m958.3,0h22.9M45.1,32.1V9.2m0,1335.1v22.9M954.5,32.1V9.2m0,1335.1v22.9" class="gl_235"/>
<path d="M32.1,45.1H9.2m958.3,0h22.9M32.1,1331.3H9.2m958.3,0h22.9M45.1,32.1V9.2m0,1335.1v22.9M954.5,32.1V9.2m0,1335.1v22.9" class="gm_235"/>
<path d="M27.5,32.1H0m972.1,0h27.5M27.5,1344.3H0m972.1,0h27.5M32.1,27.5V0m0,1348.9v27.5M967.5,27.5V0m0,1348.9v27.5" class="gl_235"/>
<path d="M27.5,32.1H0m972.1,0h27.5M27.5,1344.3H0m972.1,0h27.5M32.1,27.5V0m0,1348.9v27.5M967.5,27.5V0m0,1348.9v27.5" class="gm_235"/>
</svg>