<?xml version="1.0" encoding="UTF-8" standalone="no"?>
<!DOCTYPE svg PUBLIC "-//W3C//DTD SVG 1.1//EN"
"http://www.w3.org/Graphics/SVG/1.1/DTD/svg11.dtd">
<svg viewBox="0 0 999 1376" version="1.1" xmlns="http://www.w3.org/2000/svg" xmlns:xlink="http://www.w3.org/1999/xlink">
<defs>
<clipPath id="c0_306"><path d="M32.1,1344.3V32.1H967.5V1344.3Z"/></clipPath>
<clipPath id="c1_306"><path d="M707.4,1013.7v-231H907.6v231Z"/></clipPath>
<clipPath id="c2_306"><path d="M702.1,1017.5V778.8H911.6v238.7Z"/></clipPath>
<clipPath id="c3_306"><path d="M701.8,1017.2V778.5h209v238.7Z"/></clipPath>
<clipPath id="c4_306"><path d="M176.6,544l-6.5,-2.1l-16.4,-14V470.8h72V544Z"/></clipPath>
<clipPath id="c5_306"><path d="M176.6,1114.5l-6.5,-2.1l-16.4,-14v-57.1h72v73.2Z"/></clipPath>
<clipPath id="c6_306"><path d="M72.8,885.5V606.1H270.3V885.5Z"/></clipPath>
<clipPath id="c7_306"><path d="M78.8,882.6V609.8H264.1V882.6Z"/></clipPath>
<clipPath id="c8_306"><path d="M78.8,881.5V609.8H263.6V881.5Z"/></clipPath>
<clipPath id="c9_306"><path d="M166.3,628.9c-.2,-.1,3.6,-8.3,3.6,-8.3l.8,.5c0,0,-4.1,7.8,-4.4,7.8Z"/></clipPath>
<clipPath id="ca_306"><path d="M173.8,621.1c0,0,-6.8,-1.1,-7.6,-5.2c-.6,-3.6,1.6,-3.8,2.1,-3.8c.1,0,.2,0,.2,0l8.3,-12.8l-1.5,-3c0,0,-.6,-1.2,.1,-2.1c.1,-.1,.2,-.1,.4,-.1c2.1,0,12.9,5.5,12.9,5.5l.1,.2c-.4,.5,-.8,1.1,-1.4,1.6c-.7,.5,-5.1,1.2,-5.1,1.2l-8.5,18.5Z"/></clipPath>
<clipPath id="cb_306"><path d="M173.4,620.8c.2,-.5,.2,-1.8,0,-2.3v-1.4c-1.5,-.5,-2.8,-1.2,-3.6,-2.5c-1.1,.6,-2.2,1.2,-3.2,1.9c1.6,2.1,3.9,3.5,6.8,4.3Zm0,-3.9c2.2,-4.6,4,-9.5,6.2,-14.1c-.9,-.4,-1.9,-1.3,-2.7,-1.4c-2.3,4.3,-4.6,8.7,-7,12.8c.7,1.4,2.1,2,3.5,2.7Zm-7.3,12c1.1,-2.9,2.4,-5.4,3.6,-8.3c-2,-1.5,-4,-3.1,-4.4,-6.1V613c-.1,-2.7,1.9,-3.4,4.5,-3.4c.1,0,.2,0,.2,0c2,-3.4,4.2,-6.4,6.2,-9.7c-.6,-.8,-1.2,-2.4,-.9,-3.6c.5,1.2,1.6,1.9,2.4,2.9c-.1,.5,-.3,1.1,-.4,1.7c.6,.7,1.3,1.2,2.4,1.4c.5,-.4,.5,-1.2,1.1,-1.5c1,.3,1.9,.7,3.2,.7c.1,.1,.5,.2,.8,.2c.3,0,.7,-.1,.8,-.2c.1,.1,.2,.1,.3,.1c.2,0,.4,-.1,.6,-.1c.2,-.1,.4,-.2,.6,-.2c.1,0,.2,0,.3,.1c-1.4,.7,-2.2,1.8,-4.2,1.8c-.1,0,-.2,0,-.4,0c-.8,3.7,-1.8,7.3,-2.6,11.2c.5,1,1.5,1.6,1.3,3.1c-.5,2.7,-3.9,4.4,-7.2,4.4c-1.3,0,-2.6,-.2,-3.6,-.8c-1,2.1,-2.1,4.2,-3.3,6.1c0,-.4,.3,-.4,.2,-.8c1,-1.8,2,-3.6,2.7,-5.6c-1.1,1.7,-1.8,3.7,-2.8,5.5c-.2,.4,-.4,.8,-.6,1.3c-.3,.4,-.3,1.1,-.8,1.3Z"/></clipPath>
<clipPath id="cc_306"><path d="M183.9,601.2c-4.8,0,-13.1,-7.3,-5.6,-8.8h1.3c.1,0,.3,0,.5,0q.1,0,.2,0c.3,0,.6,0,1,.1c3.1,.6,8.3,3.8,7.6,7c-.3,1.2,-1.6,1.6,-3.2,1.7H184q-.1,0,-.1,0Z"/></clipPath>
<clipPath id="cd_306"><path d="M801.6,798.8c-.3,-.1,3.5,-8.2,3.5,-8.2l.8,.5c0,0,-4,7.7,-4.3,7.7Z"/></clipPath>
<clipPath id="ce_306"><path d="M809.1,791.1c0,0,-6.9,-1.1,-7.6,-5.2c-.6,-3.6,1.5,-3.9,2.1,-3.9c.1,0,.1,.1,.1,.1L812,769.3l-1.4,-3.1c0,0,-.6,-1.1,.1,-2c.1,-.1,.2,-.1,.3,-.1c2.1,0,13,5.5,13,5.5v.2c-.3,.5,-.7,1.1,-1.4,1.6c-.6,.5,-5,1.2,-5,1.2l-8.5,18.5Z"/></clipPath>
<clipPath id="cf_306"><path d="M808.7,790.7c.2,-.4,.2,-1.7,0,-2.2v-1.4c-1.6,-.5,-2.9,-1.2,-3.7,-2.5c-1.1,.6,-2.1,1.2,-3.1,1.9c1.6,2.1,3.8,3.5,6.8,4.2Zm0,-3.8c2.2,-4.6,4,-9.5,6.1,-14.1c-.8,-.4,-1.8,-1.3,-2.6,-1.4c-2.3,4.3,-4.6,8.6,-7,12.8c.7,1.3,2.1,2,3.5,2.7Zm-7.3,12v0c1,-2.9,2.4,-5.5,3.5,-8.3c-2,-1.5,-3.9,-3.1,-4.4,-6.1V783c0,-2.7,1.9,-3.4,4.6,-3.4q.1,0,.2,0c1.9,-3.4,4.2,-6.4,6.1,-9.7c-.5,-.9,-1.1,-2.4,-.8,-3.7c.5,1.3,1.6,1.9,2.4,2.9c-.2,.6,-.3,1.2,-.4,1.8c.6,.7,1.3,1.2,2.4,1.4c.4,-.4,.5,-1.3,1.1,-1.5c.9,.3,1.8,.7,3.1,.7c.2,.1,.5,.2,.9,.2c.3,0,.6,-.1,.8,-.2c.1,.1,.2,.1,.3,.1c.2,0,.4,-.1,.6,-.2c.2,0,.3,-.1,.5,-.1c.1,0,.2,0,.3,.1c-1.3,.7,-2.2,1.8,-4.1,1.8c-.2,0,-.3,0,-.4,0c-.9,3.7,-1.9,7.3,-2.6,11.1c.5,1.1,1.5,1.7,1.2,3.2c-.4,2.7,-3.8,4.4,-7.2,4.4c-1.2,0,-2.5,-.3,-3.6,-.8c-1,2.1,-2.1,4.2,-3.3,6.1c0,-.4,.3,-.4,.3,-.8c1,-1.8,1.9,-3.6,2.6,-5.7c-1,1.8,-1.8,3.8,-2.7,5.6c-.2,.4,-.4,.8,-.7,1.2c-.3,.4,-.2,1.2,-.7,1.4Z"/></clipPath>
<clipPath id="cg_306"><path d="M819.1,771.1c-4.8,0,-13.1,-7.3,-5.5,-8.8h1.2c.2,.1,.4,.1,.7,.1c.1,0,.2,0,.2,0c.3,0,.6,0,.9,.1c3.1,.6,8.2,3.8,7.5,7c-.2,1.2,-1.5,1.6,-3.1,1.6h-1.9Z"/></clipPath>
<clipPath id="ch_306"><path d="M125.5,386.7V205.8H858.6V386.7Z"/></clipPath>
<clipPath id="ci_306"><path d="M764.8,435.3V422.9h14.5v12.4Z"/></clipPath>
<style type="text/css"><![CDATA[
.g0_306{
fill: #FEFCF4;
}
.g1_306{
fill: #FFF;
}
.g2_306{
fill: none;
stroke: #6381B7;
stroke-width: 0.763;
}
.g3_306{
fill: #6381B7;
}
.g4_306{
fill: none;
stroke: #6381B7;
stroke-width: 0.381;
stroke-dasharray: 2,1;
}
.g5_306{
fill: none;
stroke: #6381B7;
stroke-width: 0.381;
}
.g6_306{
fill: #F7C2D9;
}
.g7_306{
fill: #FEF6F5;
}
.g8_306{
fill: #EC008C;
}
.g9_306{
fill: none;
stroke: #818385;
stroke-width: 0.305;
stroke-dasharray: 4,4;
}
.ga_306{
fill: none;
stroke: #818385;
stroke-width: 0.305;
}
.gb_306{
fill: none;
stroke: #949698;
stroke-width: 0.305;
stroke-dasharray: 4,4;
}
.gc_306{
fill: #6D6F71;
}
.gd_306{
fill: #FCE8B0;
}
.ge_306{
fill: none;
stroke: #231F20;
stroke-width: 1.527;
stroke-miterlimit: 10;
}
.gf_306{
fill: none;
stroke: #949698;
stroke-width: 0.305;
stroke-dasharray: 3,3;
}
.gg_306{
fill: none;
stroke: #949698;
stroke-width: 0.305;
}
.gh_306{
fill: #2E6E51;
}
.gi_306{
fill: none;
stroke: #FFF;
stroke-width: 0.152;
stroke-miterlimit: 1;
}
.gj_306{
fill: #BCBEC0;
}
.gk_306{
fill: #EE314A;
}
.gl_306{
fill: #CEEDFB;
}
.gm_306{
fill: #27639D;
}
.gn_306{
fill: #231F20;
}
.go_306{
fill: none;
stroke: #204A78;
stroke-width: 1.527;
}
.gp_306{
fill: #25408F;
}
.gq_306{
fill: #A8AAAD;
}
.gr_306{
fill: none;
stroke: #949698;
stroke-width: 0.549;
}
.gs_306{
fill: none;
stroke: #BCBEC0;
stroke-width: 2.566;
}
.gt_306{
fill: #363637;
}
.gu_306{
fill: #5CC4BE;
}
.gv_306{
fill: #EAD646;
}
.gw_306{
fill: none;
stroke: #FFF;
stroke-width: 1.909;
stroke-miterlimit: 10;
}
.gx_306{
fill: none;
stroke: #000;
stroke-width: 0.381;
stroke-miterlimit: 10;
}
]]></style>
</defs>
<path d="M32.1,1344.3H954.5V32.1H32.1V1344.3Z" class="g0_306"/>
<path clip-path="url(#c0_306)" d="M954.5,1344.3H1877V32.1H954.5V1344.3Z" class="g0_306"/>
<path d="M150.2,440.5c0,0,-18.3,0,-18.3,18.3V997.7c0,0,0,18.4,18.3,18.4H827.4c0,0,18.3,0,18.3,-18.4V440.5Z" class="g1_306"/>
<path d="M150.2,440.5c0,0,-18.3,0,-18.3,18.3V997.7c0,0,0,18.4,18.3,18.4H827.4c0,0,18.3,0,18.3,-18.4V440.5H150.2Z" class="g2_306"/>
<path d="M145.1,1025.8c0,0,-13,0,-13,13v146.5c0,0,0,13,13,13H832.9c0,0,13,0,13,-13V1038.8c0,0,0,-13,-13,-13Z" class="g1_306"/>
<path d="M145.1,1025.8c0,0,-13,0,-13,13v146.5c0,0,0,13,13,13H832.9c0,0,13,0,13,-13V1038.8c0,0,0,-13,-13,-13H145.1Z" class="g2_306"/>
<path d="M504.8,1214.8c0,0,-4.3,0,-4.3,4.4V1230c0,0,0,4.3,4.3,4.3h30.3c0,0,4.4,0,4.4,-4.3v-10.8c0,0,0,-4.4,-4.4,-4.4Z" class="g3_306"/>
<path d="M491.6,1206v37.5m1.4,1H845.1m1,-1.3v-37.6m-1.4,-1H492.6" class="g4_306"/>
<path d="M491.6,1243.9v.6h.6m353.3,0h.6v-.6m0,-38.7v-.6h-.6m-353.3,0h-.6v.6" class="g5_306"/>
<image clip-path="url(#c1_306)" preserveAspectRatio="none" x="707" y="783" width="201" height="231" xlink:href="img/1.png"/>
<path d="M712.7,791.1l4.1,216.5l184.3,-4.1L897.3,787.9Z" class="g6_306"/>
<image clip-path="url(#c2_306)" preserveAspectRatio="none" x="702" y="779" width="209" height="239" xlink:href="img/2.png"/>
<image clip-path="url(#c3_306)" preserveAspectRatio="none" x="701" y="779" width="210" height="238" xlink:href="img/3.png"/>
<path d="M706.5,795l16.9,216.3l150.4,-11.2L905,970.9L890,783.4Z" class="g7_306"/>
<path d="M871.6,1002.4l34.1,-31.6l-16.6,-5Z" class="g8_306"/>
<path d="M445.5,892.2c15.3,-1,27.6,-6.7,30.2,-14m-.6,-7.4C471.4,864,459,858.8,443.9,858.1m-7.5,.1c-15.4,1,-27.7,6.7,-30.3,14m.6,7.4c3.7,6.9,16.1,12.1,31.2,12.7" class="g9_306"/>
<path d="M476.1,876.7c.1,-.5,.2,-1,.2,-1.5c0,-.5,-.1,-1,-.2,-1.5M442.4,858.1c-.5,0,-1,0,-1.5,0c-.5,0,-1,0,-1.5,0m-33.7,15.6c-.1,.5,-.2,1,-.2,1.5c0,.5,.1,1,.2,1.5m33.7,15.6c.5,0,1,0,1.5,0c.5,0,1,0,1.5,0" class="ga_306"/>
<path d="M450.7,858.2c0,0,116.2,-37.4,254.8,-25.5" class="gb_306"/>
<path d="M700.9,828.9l-.6,8.1L712,833.8Z" class="gc_306"/>
<path d="M209.2,499c0,0,-13,0,-13,13v21.6c0,0,0,13,13,13h602c0,0,13,0,13,-13V512c0,0,0,-13,-13,-13Z" class="gd_306"/>
<image clip-path="url(#c4_306)" preserveAspectRatio="none" x="152" y="469" width="75" height="77" xlink:href="img/4.png"/>
<path d="M204,539.3c0,0,-26.8,11.3,-51.1,-12.8c0,0,15.2,25.3,49.3,24c0,0,24.8,.3,20.3,-10.2c0,0,1.2,-4.4,-18.5,-1Z" class="gd_306"/>
<path d="M209.2,1069.5c0,0,-13,0,-13,13v21.6c0,0,0,13,13,13h602c0,0,13,0,13,-13v-21.6c0,0,0,-13,-13,-13Z" class="gd_306"/>
<image clip-path="url(#c5_306)" preserveAspectRatio="none" x="152" y="1040" width="75" height="76" xlink:href="img/5.png"/>
<path d="M204,1109.8c0,0,-26.8,11.3,-51.1,-12.8c0,0,15.2,25.3,49.3,24c0,0,24.8,.3,20.3,-10.2c0,0,1.2,-4.4,-18.5,-1Z" class="gd_306"/>
<image clip-path="url(#c6_306)" preserveAspectRatio="none" x="73" y="606" width="197" height="280" xlink:href="img/6.png"/>
<path d="M77.6,619.8L91.2,879.3l172.9,-9L250.5,610.8Z" class="g6_306"/>
<image clip-path="url(#c7_306)" preserveAspectRatio="none" x="79" y="610" width="185" height="273" xlink:href="img/7.png"/>
<image clip-path="url(#c8_306)" preserveAspectRatio="none" x="79" y="610" width="185" height="272" xlink:href="img/8.png"/>
<path d="M84.1,615.1V874.9H225.8l31.5,-21.4V615.1Z" class="g7_306"/>
<path d="M226,874.9l31.5,-21.5l-12,-10.5Z" class="g8_306"/>
<path d="M226,874.9l31.5,-21.5l-12,-10.5l-19.5,32Z" class="ge_306"/>
<path d="M414.8,688.4c8.6,-1.4,15.4,-6.8,16.9,-13.7m-.4,-7.5C429,660.6,422,655.7,413.2,654.7m-7.6,.2c-8.7,1.5,-15.5,6.9,-17,13.7m.4,7.6c2.3,6.5,9.4,11.5,18.1,12.5" class="g9_306"/>
<path d="M432,673.2c.1,-.5,.1,-1,.1,-1.5c0,-.5,0,-1,-.1,-1.5M411.7,654.6c-.5,0,-1,0,-1.5,0c-.6,0,-1.1,0,-1.6,0m-20.3,15.6c-.1,.5,-.1,1,-.1,1.5c0,.5,0,1,.1,1.5m20.3,15.6c.5,0,1,0,1.6,0c.5,0,1,0,1.5,0" class="ga_306"/>
<path d="M406.4,649.5c-11.2,-16.7,-60.9,-82.8,-143.9,-83" class="gf_306"/>
<path d="M255,567.8c-2.8,2.5,.8,7.7,4.7,7.5m4.9,-5.4c.1,-4.4,-5.9,-9,-20.1,-9.6m-7.7,.1c-24.9,2,-84.6,18.6,-113.1,49.6" class="gb_306"/>
<path d="M408.9,653.3c0,0,-.3,-.5,-.8,-1.3M261,566.5c-.5,0,-1,0,-1.5,0c-.6,0,-1.1,.1,-1.6,.1m3.3,8.4c.5,-.2,.9,-.5,1.3,-.9c.4,-.4,.8,-.8,1.1,-1.2M242.9,560.2c-.5,0,-1.1,0,-1.6,0c-.5,0,-1,0,-1.5,0m-117.1,51c-.3,.3,-.6,.7,-1,1.1" class="gg_306"/>
<path d="M127.1,615.7l-6.3,-6.2l-4.7,11.2Z" class="gc_306"/>
<image clip-path="url(#c9_306)" x="166" y="620" width="5" height="9" xlink:href="shade/1.png"/>
<image clip-path="url(#ca_306)" x="165" y="594" width="24" height="28" xlink:href="shade/2.png"/>
<image clip-path="url(#cb_306)" x="165" y="596" width="23" height="33" xlink:href="shade/3.png"/>
<image clip-path="url(#cc_306)" x="170" y="592" width="20" height="10" xlink:href="shade/4.png"/>
<image clip-path="url(#cd_306)" x="801" y="790" width="5" height="9" xlink:href="shade/5.png"/>
<image clip-path="url(#ce_306)" x="800" y="764" width="25" height="28" xlink:href="shade/6.png"/>
<image clip-path="url(#cf_306)" x="800" y="766" width="23" height="33" xlink:href="shade/7.png"/>
<image clip-path="url(#cg_306)" x="805" y="762" width="20" height="10" xlink:href="shade/8.png"/>
<path d="M32.1,179.3H967.5V32.1H32.1V179.3Z" class="gh_306"/>
<path d="M261.9,135.2L260.7,134H247.3l1.3,1.2h13.3Zm-1.6,2.9c-.3,-.5,-.6,-.9,-.9,-1.1c-.3,-.3,-.6,-.5,-.9,-.5c-.2,.3,-.4,.6,-.6,.9c-.1,.3,-.4,.6,-.6,.8c-.6,.7,-1.2,1,-1.7,.9c.3,-.4,.5,-.9,.5,-1.2c0,-.4,-.1,-.8,-.5,-1.1c-.3,-.2,-.6,-.4,-1,-.4c-1.3,0,-2,.7,-2,1.9c0,.8,.3,1.4,.9,1.9c.5,.4,1.1,.6,1.9,.6c1.5,0,2.8,-.6,3.8,-1.9c.4,0,.6,.6,.6,1.7c0,.9,-.3,1.7,-1,2.3c-.6,.7,-1.4,1,-2.3,1c-.8,0,-1.7,-.2,-2.4,-.7c-.8,-.4,-1.5,-1,-2.1,-1.7c-.5,-.6,-.9,-1.4,-1.3,-2.2c-.4,-.8,-.8,-1.7,-1.1,-2.7l-.7,-.2c.5,1.4,.9,2.7,1.3,3.7c.4,1,.8,1.8,1.1,2.3c1.4,2.3,3,3.5,5,3.5c1.4,0,2.6,-.6,3.4,-1.6c.5,-.5,.8,-1.1,1,-1.7c.2,-.6,.3,-1.3,.3,-2c0,-.7,-.3,-1.5,-.7,-2.5Zm6.3,-2.9L265.5,134h-1.1c-.4,-.4,-.6,-1,-.8,-1.9l-.4,-.3c0,.2,0,.5,0,.9c0,.3,.1,.7,.1,1.2c0,.5,.1,.9,.1,1.3c0,.3,0,.6,0,.9c-.2,-.8,-.6,-1.3,-1,-1.6c-.4,-.3,-.9,-.5,-1.7,-.5h-1.3l1.2,1.2c.3,0,.7,.1,1,.2c.3,.1,.6,.3,.8,.5c.3,.2,.5,.4,.6,.7c.2,.3,.2,.7,.2,1v8.9l1.2,1.2V135.2h2.2ZM279.1,134H264.9l1.2,1.2h14.3L279.1,134Zm-.5,5.6c-.3,-.6,-.6,-1.2,-1,-1.7c-.4,-.5,-.9,-.9,-1.5,-1.1c-.5,-.3,-1.1,-.5,-1.8,-.5c-.8,0,-1.4,.3,-2,.7c-.6,.5,-.9,1.1,-.9,1.9c0,.6,.2,1.2,.6,1.6c.3,.5,.8,.7,1.5,.7c1.2,0,1.9,-.6,1.9,-1.7c0,-.5,-.2,-1,-.5,-1.4c.4,-.1,.7,-.2,.9,-.2c.6,0,1.1,.3,1.5,.9c.4,.6,.6,1.1,.6,1.8c0,.8,-.4,1.6,-1,2.3c-.9,.6,-1.7,1,-2.5,1c-1.8,0,-3.3,-.9,-4.5,-2.8c-.3,-.3,-.6,-1,-1,-1.8c-.5,-.9,-.9,-1.9,-1.4,-3.1l-.7,-.2c1.8,6.5,4.3,9.8,7.5,9.8c1.2,0,2.3,-.5,3.2,-1.3c.4,-.4,.8,-.8,1,-1.4c.3,-.5,.4,-1,.4,-1.6c0,-.7,-.1,-1.3,-.3,-1.9ZM298.7,134c-.5,-.1,-.8,-.2,-1,-.6c0,-.1,-.1,-.2,-.1,-.5c0,-.2,0,-.5,0,-.7l-.7,-.4v12.3c-.8,-1.4,-2.1,-2.5,-3.8,-3.4c.7,-.2,1.4,-.6,1.9,-1.2c.6,-.6,.8,-1.3,.8,-2c0,-.7,-.2,-1.3,-.8,-1.9c-.1,-.1,-.3,-.2,-.5,-.5c-.3,-.3,-.7,-.6,-1.2,-1c-.2,.3,-.5,.5,-.7,.8c-.3,.2,-.4,.3,-.4,.4c-.3,.2,-.5,.3,-.8,.5c-.2,.1,-.5,.2,-.7,.2c-.1,-.7,-.4,-1.1,-1.2,-1.1c-.3,0,-.6,.2,-.9,.4c-.2,.3,-.3,.6,-.3,.9c0,.5,.1,.9,.5,1.2c.3,.3,.8,.5,1.2,.5c1.4,0,2.7,-.7,4,-2c.4,.4,.6,.8,.6,1.3c0,.4,-.1,.7,-.5,1c-.3,.2,-.7,.5,-1.3,.8c-.4,.2,-.9,.3,-1.3,.4c-.5,.1,-.9,.2,-1.3,.2c-.2,0,-.3,0,-.5,-.1c-.1,0,-.3,0,-.5,0l2.1,2.5c1.1,.1,2.2,.4,3.1,1c.5,.3,1,.6,1.4,1c.4,.4,.7,.9,1,1.3c.1,.1,.1,.3,.2,.5c.1,.2,.2,.5,.3,.8c.1,.2,.2,.3,.3,.5c.2,.2,.3,.4,.5,.5V135.2h1.8L298.7,134Zm5.8,1.2L303.3,134h-1c-.4,-.4,-.6,-1,-.8,-1.9l-.4,-.3c0,.2,0,.5,0,.9c0,.3,0,.7,.1,1.2c0,.5,0,.9,.1,1.3c0,.3,0,.6,0,.9c-.3,-.8,-.6,-1.3,-1,-1.6c-.4,-.3,-.9,-.5,-1.7,-.5h-1.3l1.2,1.2c.3,0,.6,.1,.9,.2c.4,.1,.7,.3,.9,.5c.3,.2,.5,.4,.6,.7c.1,.3,.2,.7,.2,1v8.9l1.2,1.2V135.2h2.2Zm10.7,5.1c.6,-.7,1,-1.8,1,-3.2c0,-.4,-.1,-.7,-.3,-1c-.1,-.4,-.3,-.6,-.6,-.9c-.3,-.2,-.6,-.4,-1,-.5c-.4,-.1,-.7,-.2,-1.1,-.2c-1.2,0,-2.3,.4,-3.4,1c-.5,.4,-1,.8,-1.3,1.3c-.3,.5,-.4,1,-.4,1.5c0,1.2,.5,1.8,1.6,1.8c.9,0,1.3,-.4,1.3,-1.4c0,-.4,-.3,-.8,-.8,-1.1c.4,-.6,.9,-1.1,1.6,-1.4c.3,-.2,.6,-.3,1,-.4c.3,0,.7,-.1,1,-.1c1,0,1.6,.5,1.6,1.5c0,.7,-.4,1.2,-1,1.5c-.3,-.2,-.6,-.3,-1,-.3c-.4,0,-.7,.2,-1,.5c-.3,.3,-.4,.7,-.4,1.1c0,.4,.1,.8,.4,1c.3,.3,.7,.5,1.1,.5c.4,0,.8,-.2,1.1,-.6c.5,.4,.8,.8,.8,1.3c0,.3,-.1,.6,-.2,.9c-.2,.3,-.4,.5,-.6,.7c-.3,.2,-.6,.4,-.9,.5c-.4,.1,-.7,.1,-1.1,.1c-.8,0,-1.7,-.2,-2.4,-.8c-.8,-.5,-1.5,-1.2,-2.2,-2.2c-.3,-.5,-.7,-1.2,-1.1,-2.1c-.5,-1,-.9,-2,-1.2,-3.3l-.9,-.3c1.9,7.1,4.5,10.6,7.9,10.6c1.1,0,2,-.3,2.6,-.9c.7,-.6,1,-1.5,1,-2.6c0,-.8,-.4,-1.6,-1.1,-2.5Zm13.3,-5.1L327.3,134H316.2c.6,1,1.7,1.7,3.3,2.2c.7,.2,1.2,.4,1.6,.6c.5,.2,.7,.4,.9,.6c-.5,.4,-1.1,.8,-1.7,1.4c-.7,.5,-1.3,1.1,-1.9,1.7l1.6,2.1c1.4,.1,2.6,.5,3.5,1.2c.6,.5,1.2,1.2,1.8,2.3c.5,1,1,1.6,1.3,1.8V135.2h1.9Zm-3.1,9.5c-1.1,-1.7,-2.6,-2.9,-4.5,-3.6c.5,-.5,1,-1.1,1.4,-1.6c.5,-.5,1,-.9,1.5,-1.4c-.6,-.7,-1.2,-1.3,-1.7,-1.8c-.5,-.5,-.9,-.9,-1.3,-1.1h4.6v9.5Zm-4.6,2c.2,.2,.5,.3,.8,.3c.4,0,.7,-.1,.9,-.3c.2,-.3,.4,-.6,.4,-.9c0,-.3,-.2,-.6,-.4,-.9c-.2,-.2,-.5,-.3,-.9,-.3c-.3,0,-.6,.1,-.8,.3c-.3,.3,-.4,.6,-.4,.9c0,.3,.1,.6,.4,.9Zm12.5,-11.5L332.1,134H331c-.3,-.4,-.6,-1,-.7,-1.9l-.5,-.3c0,.2,0,.5,.1,.9c0,.3,0,.7,0,1.2c.1,.5,.1,.9,.1,1.3c0,.3,0,.6,0,.9c-.2,-.8,-.5,-1.3,-.9,-1.6c-.4,-.3,-1,-.5,-1.7,-.5H326l1.2,1.2c.3,0,.7,.1,1,.2c.3,.1,.6,.3,.9,.5c.2,.2,.4,.4,.5,.7c.2,.3,.3,.7,.3,1v8.9l1.1,1.2V135.2h2.3Zm11.1,0L343.2,134H331.4l1.2,1.2h8.2v.9c-2.5,.8,-5,2.1,-7.4,3.7l1.6,2.3c1.7,.1,3,.7,4.1,1.6c.2,.3,.5,.6,.9,1c.3,.4,.5,.8,.7,1c.1,.3,.3,.7,.6,1.3l.6,.8V135.2h2.5Zm-3.6,9.4c-1.1,-1.8,-2.7,-3.2,-4.9,-4.1c.9,-.6,1.7,-1.1,2.5,-1.5c.8,-.4,1.6,-.7,2.4,-1v6.6Zm-4.7,1.7c.2,.3,.5,.4,.8,.4c.4,0,.7,-.1,.9,-.4c.3,-.2,.4,-.5,.4,-.8c0,-.4,-.1,-.7,-.4,-.9c-.2,-.3,-.5,-.4,-.9,-.4c-.3,0,-.6,.1,-.8,.4c-.3,.2,-.4,.5,-.4,.9c0,.3,.1,.6,.4,.8Zm29,-11.1L363.9,134c-.2,0,-.3,0,-.4,0c-.4,0,-.8,-.2,-.9,-.6c-.1,-.2,-.1,-.6,-.2,-1.2l-.5,-.5c0,1.1,0,2.2,.1,3.2c.1,1.1,.1,2.1,.1,3.2c-1.5,-2.6,-3.1,-3.9,-4.9,-3.9c-.4,0,-.9,.1,-1.4,.3c-.6,.1,-1.1,.4,-1.6,.7c-.5,.4,-1,.8,-1.3,1.2c-.3,.4,-.4,.9,-.4,1.3c0,.2,.1,.5,.2,.7c.2,.2,.5,.3,.7,.3c.2,0,.5,-.1,.9,-.3c.2,-.1,.3,-.1,.4,-.2c.2,0,.3,0,.4,0c.5,0,.7,.4,.7,1.2c0,.5,-.4,1.1,-1.2,1.9l1.7,.6l4.2,-4.2c.2,.1,.3,.2,.5,.4c.1,.2,.3,.4,.4,.6c.2,.3,.3,.5,.4,.7c.1,.3,.1,.5,.1,.6l-.1,6.4l1.2,1.3V135.2h2.1Zm-8.6,4.2c.1,-.7,0,-1.2,-.3,-1.6c-.3,-.5,-.7,-.7,-1.4,-.7c.6,-1.1,1.5,-1.6,2.8,-1.6c.7,0,1.3,.3,1.9,.9l-3,3Zm19.8,-4.2L375.1,134H363.3l1.2,1.2h8.2v.9c-2.5,.8,-4.9,2.1,-7.3,3.7l1.5,2.3c1.7,.1,3.1,.7,4.1,1.6c.3,.3,.6,.6,.9,1c.4,.4,.6,.8,.7,1c.2,.3,.4,.7,.6,1.3l.7,.8V135.2h2.4Zm-3.6,9.4c-1.1,-1.8,-2.7,-3.2,-4.8,-4.1c.8,-.6,1.7,-1.1,2.5,-1.5c.8,-.4,1.5,-.7,2.3,-1v6.6Zm-4.7,1.7c.3,.3,.5,.4,.9,.4c.3,0,.6,-.1,.9,-.4c.2,-.2,.3,-.5,.3,-.8c0,-.4,-.1,-.7,-.3,-.9c-.3,-.3,-.6,-.4,-.9,-.4c-.4,0,-.6,.1,-.9,.4c-.2,.2,-.4,.5,-.4,.9c0,.3,.2,.6,.4,.8Zm26.8,-6c.6,-.7,.9,-1.8,.9,-3.2c0,-.4,-.1,-.7,-.2,-1c-.2,-.4,-.4,-.6,-.7,-.9c-.2,-.2,-.6,-.4,-.9,-.5c-.4,-.1,-.8,-.2,-1.2,-.2c-1.2,0,-2.3,.4,-3.3,1c-.6,.4,-1,.8,-1.3,1.3c-.3,.5,-.5,1,-.5,1.5c0,1.2,.6,1.8,1.7,1.8c.8,0,1.3,-.4,1.3,-1.4c0,-.4,-.3,-.8,-.8,-1.1c.3,-.6,.8,-1.1,1.5,-1.4c.4,-.2,.7,-.3,1,-.4c.4,0,.7,-.1,1.1,-.1c1,0,1.5,.5,1.5,1.5c0,.7,-.3,1.2,-.9,1.5c-.3,-.2,-.7,-.3,-1,-.3c-.4,0,-.8,.2,-1,.5c-.3,.3,-.4,.7,-.4,1.1c0,.4,.1,.8,.4,1c.3,.3,.6,.5,1.1,.5c.4,0,.8,-.2,1.1,-.6c.5,.4,.8,.8,.8,1.3c0,.3,-.1,.6,-.3,.9c-.1,.3,-.3,.5,-.6,.7c-.2,.2,-.5,.4,-.9,.5c-.3,.1,-.6,.1,-1,.1c-.9,0,-1.7,-.2,-2.5,-.8c-.7,-.5,-1.4,-1.2,-2.1,-2.2c-.3,-.5,-.7,-1.2,-1.2,-2.1c-.4,-1,-.8,-2,-1.1,-3.3l-1,-.3c2,7.1,4.6,10.6,7.9,10.6c1.2,0,2,-.3,2.7,-.9c.7,-.6,1,-1.5,1,-2.6c0,-.8,-.4,-1.6,-1.1,-2.5Zm13.3,-5.1L406.9,134H395.8c.6,.6,1,1.1,1.4,1.5c.4,.3,.7,.6,.9,.7c.3,.1,.6,.2,.8,.2c.3,.1,.5,.1,.7,.2c.8,.1,1.4,.4,1.9,.8l-3.5,3c.2,.4,.5,.7,.8,1.1c.3,.4,.6,.7,.8,1c.7,.1,1.3,.2,1.9,.3c.5,.1,.9,.3,1.3,.6c.2,.1,.5,.4,.8,.8c.4,.4,.8,1,1.2,1.7c.2,.3,.4,.6,.6,.9c.3,.3,.5,.6,.8,.9V135.2h1.9Zm-3,4c-1.4,-1.3,-3,-2.6,-5,-4h5v4Zm-.1,5.4c-1.3,-1.8,-2.7,-3,-4.4,-3.6c.5,-.6,.9,-1.1,1.3,-1.4c.4,-.4,.8,-.7,1.1,-.9c.3,.2,.6,.4,.9,.7c.3,.3,.7,.6,1.1,1v4.2Zm3.9,7.4c-.1,-.1,-.2,-.3,-.3,-.5c-.1,-.1,-.2,-.4,-.5,-.7c-.3,-.3,-.6,-.6,-.9,-1c-.4,-.3,-.7,-.6,-1,-.9c0,-.3,0,-.7,0,-1.2c0,-.4,-.1,-.8,-.2,-1.2l-1.1,-.6c.1,.5,.2,1,.2,1.4c.1,.5,0,.8,-.1,1c-.7,-.4,-1.3,-.6,-1.7,-.6c-.3,0,-.6,0,-.9,.1c-.2,.1,-.5,.2,-.7,.4c-.2,.2,-.3,.4,-.4,.6c-.2,.2,-.2,.5,-.2,.8c0,.5,.2,1,.7,1.3c.4,.4,1,.5,1.6,.5c1,0,1.8,-.5,2.4,-1.4c.3,.1,.5,.3,.8,.5c.3,.3,.6,.5,.8,.8c.3,.2,.6,.5,.8,.8c.3,.3,.5,.6,.7,.9v-1Zm-4.8,-3c.2,.1,.4,.2,.5,.3c-.1,.3,-.3,.5,-.7,.7c-.3,.2,-.7,.2,-1,.2c-.4,-.1,-.6,-.3,-.6,-.7c0,-.5,.4,-.7,1.2,-.7c.2,0,.4,.1,.6,.2Zm15.4,-13.8L418.3,134h-2.2v1.6c-2.1,1.3,-3.2,1.9,-3.3,1.9c-.6,0,-1,-.1,-1.4,-.4c-.3,-.2,-.5,-.5,-.5,-.9c0,-.3,.1,-.5,.2,-.7c.2,.1,.4,.2,.5,.3c.2,0,.3,.1,.4,.1c.3,0,.6,-.1,.8,-.3c.2,-.2,.2,-.4,.2,-.8c0,-.6,-.5,-1,-1.5,-1c-.5,0,-1,.2,-1.4,.6c-.4,.4,-.6,.8,-.6,1.4c0,.4,.1,.7,.2,.9c.2,.3,.4,.5,.6,.7c.5,.4,1.1,.6,1.9,.6l-3.2,2.3l1.4,2c.7,0,1.3,.2,1.8,.3c.6,.2,1,.4,1.5,.7c.6,.5,1.2,1.2,1.9,2.1c.2,.3,.4,.6,.5,.9c.2,.3,.3,.6,.5,.8l.7,1V135.2h2.2Zm-3.4,9.5c-1.1,-1.7,-2.6,-3.1,-4.5,-4c.7,-.7,1.5,-1.3,2.3,-1.7c.7,-.5,1.4,-.9,2.2,-1.2v6.9ZM437.7,134c-.5,-.1,-.8,-.2,-1,-.6c0,-.1,0,-.2,-.1,-.5c0,-.2,0,-.5,0,-.7l-.7,-.4v12.3c-.8,-1.4,-2.1,-2.5,-3.8,-3.4c.7,-.2,1.4,-.6,1.9,-1.2c.6,-.6,.8,-1.3,.8,-2c0,-.7,-.2,-1.3,-.8,-1.9c-.1,-.1,-.3,-.2,-.5,-.5c-.3,-.3,-.7,-.6,-1.2,-1c-.2,.3,-.5,.5,-.7,.8c-.2,.2,-.4,.3,-.4,.4c-.3,.2,-.5,.3,-.8,.5c-.2,.1,-.5,.2,-.7,.2c0,-.7,-.4,-1.1,-1.2,-1.1c-.3,0,-.6,.2,-.9,.4c-.2,.3,-.3,.6,-.3,.9c0,.5,.1,.9,.5,1.2c.3,.3,.8,.5,1.3,.5c1.3,0,2.6,-.7,3.9,-2c.4,.4,.6,.8,.6,1.3c0,.4,-.1,.7,-.5,1c-.3,.2,-.7,.5,-1.2,.8c-.5,.2,-1,.3,-1.4,.4c-.5,.1,-.9,.2,-1.3,.2c-.1,0,-.3,0,-.5,-.1c-.1,0,-.3,0,-.5,0l2.1,2.5c1.1,.1,2.2,.4,3.1,1c.5,.3,1,.6,1.4,1c.4,.4,.7,.9,1,1.3c.1,.1,.1,.3,.2,.5c.1,.2,.2,.5,.3,.8c.1,.2,.2,.3,.3,.5c.2,.2,.3,.4,.5,.5V135.2h1.8L437.7,134Zm5.8,1.2L442.3,134h-1c-.4,-.4,-.6,-1,-.8,-1.9l-.4,-.3c0,.2,0,.5,0,.9c0,.3,0,.7,.1,1.2c0,.5,0,.9,.1,1.3c0,.3,0,.6,0,.9c-.3,-.8,-.6,-1.3,-1,-1.6c-.4,-.3,-.9,-.5,-1.7,-.5h-1.3l1.2,1.2c.3,0,.6,.1,1,.2c.3,.1,.6,.3,.8,.5c.3,.2,.5,.4,.6,.7c.1,.3,.2,.7,.2,1v8.9l1.2,1.2V135.2h2.2Zm11.2,0L453.4,134H441.8l1.1,1.2h8.5v6.6h-.1c-1.3,-2.6,-2.7,-4,-4.4,-4c-.8,0,-1.5,.3,-2.1,.9c-.6,.5,-.9,1.2,-.9,2c0,1.5,.8,2.2,2.3,2.2c.5,0,.9,-.2,1.2,-.5c.3,-.4,.5,-.8,.5,-1.3c0,-.3,-.3,-.8,-.8,-1.5c.1,-.1,.2,-.1,.3,-.1c1.3,0,2.4,.8,3.4,2.5c.6,1.4,.9,2.9,.9,4.2l-.1,1.3l1,.6V135.2h2.1Z" class="gi_306"/>
<g clip-path="url(#c0_306)">
<path d="M1877,177.2H32.1v-5.4H768.7c43.1,0,53,-37.9,115.3,-37.9h993Z" class="gj_306"/>
<path d="M1877,183.7H32.1v-9.8H768.7c43.1,0,53,-33.6,115.3,-33.6h993Z" class="gk_306"/>
</g>
<image clip-path="url(#ch_306)" preserveAspectRatio="none" x="125" y="206" width="734" height="181" xlink:href="img/9.png"/>
<path d="M144.6,231.3c0,0,-13,0,-13,13v117c0,0,0,13,13,13H833.1c0,0,13,0,13,-13v-130Z" class="gl_306"/>
<path d="M147.7,294.1l54.1,40.8l54.1,-40.8V230h8.7V211.9H155.8c-6.5,.4,-7.7,3.9,-8.2,8.4Z" class="gm_306"/>
<path d="M274,220.3c-.3,-4.7,-4.2,-8.4,-9,-8.4c-4.8,0,-8.7,3.7,-9,8.4h-.1V230h18.2v-9.7Z" class="gn_306"/>
<path d="M255.9,230.6H846.1" class="go_306"/>
<path d="M131.7,414.7v39L143.4,464V419.8Z" class="gp_306"/>
<path d="M131.7,414.7v39H829.5c0,0,16.8,0,16.8,-16.8v-5.4c0,0,0,-16.8,-16.8,-16.8Z" class="g3_306"/>
<path d="M781,448.3c8.2,0,14.8,-6.5,14.8,-14.5c0,-8,-6.6,-14.5,-14.8,-14.5c-8.3,0,-14.9,6.5,-14.9,14.5c0,8,6.6,14.5,14.9,14.5Z" class="gq_306"/>
<path d="M781,448.3c8.2,0,14.8,-6.5,14.8,-14.5c0,-8,-6.6,-14.5,-14.8,-14.5c-8.3,0,-14.9,6.5,-14.9,14.5c0,8,6.6,14.5,14.9,14.5Z" class="gr_306"/>
<path d="M781,439.2c3,0,5.4,-2.4,5.4,-5.4c0,-2.9,-2.4,-5.3,-5.4,-5.3c-3.1,0,-5.5,2.4,-5.5,5.3c0,3,2.4,5.4,5.5,5.4Z" class="g1_306"/>
<path d="M781,439.2c3,0,5.4,-2.4,5.4,-5.4c0,-2.9,-2.4,-5.3,-5.4,-5.3c-3.1,0,-5.5,2.4,-5.5,5.3c0,3,2.4,5.4,5.5,5.4Z" class="gs_306"/>
<g clip-path="url(#ci_306)" opacity="0.3">
<path d="M766.4,433.1v0c0,0,-.1,-4.9,3.6,-8.7l7.8,6.7c0,0,-1,1,-1.1,2.7Z" class="g1_306"/>
</g>
<path d="M785.6,433.7c0,0,-3.5,0,-3.5,3.5v8.7c0,0,0,3.5,3.5,3.5H829c0,0,3.5,0,3.5,-3.5v-8.7c0,0,0,-3.5,-3.5,-3.5Z" class="gn_306"/>
<path d="M169.5,424.8c0,-8.3,-6.7,-15.1,-15,-15.1c-8.4,0,-15.1,6.8,-15.1,15.1c0,8.3,6.8,15.1,15.1,15.1c.8,0,1.6,-.1,2.4,-.2l4.5,5.2v-6.7c4.8,-2.5,8.1,-7.6,8.1,-13.4Z" class="g1_306"/>
<path d="M161.8,446.1l-5.1,-6c-.7,.2,-1.5,.2,-2.2,.2c-8.6,0,-15.6,-6.9,-15.6,-15.5c0,-8.6,7,-15.5,15.6,-15.5c8.5,0,15.5,6.9,15.5,15.5c0,5.7,-3.1,10.9,-8.2,13.6Zm-4.7,-6.9l3.8,4.4v-5.7l.3,-.1c4.8,-2.6,7.9,-7.5,7.9,-13c0,-8,-6.6,-14.6,-14.6,-14.6c-8.1,0,-14.6,6.6,-14.6,14.6c0,8,6.5,14.6,14.6,14.6c.7,0,1.5,-.1,2.3,-.2Z" class="gt_306"/>
<path d="M147.4,424.4c.8,0,1.5,.6,1.5,1.4c0,.8,-.7,1.4,-1.5,1.4c-.7,0,-1.4,-.6,-1.4,-1.4c0,-.8,.7,-1.4,1.4,-1.4Z" class="gu_306"/>
<path d="M147.4,427.7c-1,0,-1.8,-.8,-1.8,-1.9c0,-1,.8,-1.9,1.8,-1.9c1.1,0,1.9,.9,1.9,1.9c0,1.1,-.8,1.9,-1.9,1.9m0,-2.9c-.5,0,-.9,.5,-.9,1c0,.5,.4,1,.9,1c.6,0,1,-.5,1,-1c0,-.5,-.4,-1,-1,-1Z" class="gt_306"/>
<path d="M154.5,424.4c.8,0,1.4,.6,1.4,1.4c0,.8,-.6,1.4,-1.4,1.4c-.8,0,-1.5,-.6,-1.5,-1.4c0,-.8,.7,-1.4,1.5,-1.4Z" class="gu_306"/>
<path d="M154.5,427.7c-1.1,0,-1.9,-.8,-1.9,-1.9c0,-1,.8,-1.9,1.9,-1.9c1,0,1.9,.9,1.9,1.9c0,1.1,-.9,1.9,-1.9,1.9m0,-2.9c-.6,0,-1,.5,-1,1c0,.5,.4,1,1,1c.5,0,.9,-.5,.9,-1c0,-.5,-.4,-1,-.9,-1Z" class="gt_306"/>
<path d="M161.5,424.4c.8,0,1.4,.6,1.4,1.4c0,.8,-.6,1.4,-1.4,1.4c-.8,0,-1.5,-.6,-1.5,-1.4c0,-.8,.7,-1.4,1.5,-1.4Z" class="gu_306"/>
<path d="M161.5,427.7c-1.1,0,-1.9,-.8,-1.9,-1.9c0,-1,.8,-1.9,1.9,-1.9c1,0,1.9,.9,1.9,1.9c0,1.1,-.9,1.9,-1.9,1.9m0,-2.9c-.6,0,-1,.5,-1,1c0,.5,.4,1,1,1c.5,0,1,-.5,1,-1c0,-.5,-.5,-1,-1,-1Z" class="gt_306"/>
<path d="M163.4,439c0,-9.7,7.9,-17.6,17.6,-17.6c9.7,0,17.6,7.9,17.6,17.6c0,9.8,-7.9,17.6,-17.6,17.6c-.9,0,-1.9,0,-2.8,-.2l-5.3,6.1v-7.8c-5.6,-2.9,-9.5,-8.9,-9.5,-15.7Z" class="gv_306"/>
<path d="M172.9,463c0,0,-.1,0,-.1,0c-.2,-.1,-.3,-.3,-.3,-.5V455c-5.9,-3.2,-9.6,-9.3,-9.6,-16c0,-9.9,8.2,-18,18.1,-18c10,0,18.1,8.1,18.1,18c0,10,-8.1,18.1,-18.1,18.1c-.8,0,-1.7,-.1,-2.6,-.2l-5.1,5.9c-.1,.1,-.2,.2,-.4,.2M181,421.9c-9.4,0,-17.1,7.7,-17.1,17.1c0,6.5,3.5,12.3,9.2,15.3c.2,.1,.3,.2,.3,.4v6.6l4.4,-5.2c.1,-.1,.3,-.1,.5,-.1c.9,.1,1.8,.2,2.7,.2c9.5,0,17.2,-7.7,17.2,-17.2c0,-9.4,-7.7,-17.1,-17.2,-17.1Z" class="gt_306"/>
<path d="M189.2,438.5c.9,0,1.7,.8,1.7,1.7c0,.9,-.8,1.7,-1.7,1.7c-.9,0,-1.7,-.8,-1.7,-1.7c0,-.9,.8,-1.7,1.7,-1.7Z" class="g1_306"/>
<path d="M189.2,442.3c-1.2,0,-2.1,-.9,-2.1,-2.1c0,-1.2,.9,-2.1,2.1,-2.1c1.2,0,2.1,.9,2.1,2.1c0,1.2,-.9,2.1,-2.1,2.1m0,-3.3c-.7,0,-1.2,.5,-1.2,1.2c0,.7,.5,1.2,1.2,1.2c.7,0,1.2,-.5,1.2,-1.2c0,-.7,-.5,-1.2,-1.2,-1.2Z" class="gt_306"/>
<path d="M181,438.5c.9,0,1.7,.8,1.7,1.7c0,.9,-.8,1.7,-1.7,1.7c-.9,0,-1.7,-.8,-1.7,-1.7c0,-.9,.8,-1.7,1.7,-1.7Z" class="g1_306"/>
<path d="M181,442.3c-1.2,0,-2.1,-.9,-2.1,-2.1c0,-1.2,.9,-2.1,2.1,-2.1c1.2,0,2.1,.9,2.1,2.1c0,1.2,-.9,2.1,-2.1,2.1m0,-3.3c-.7,0,-1.2,.5,-1.2,1.2c0,.7,.5,1.2,1.2,1.2c.7,0,1.2,-.5,1.2,-1.2c0,-.7,-.5,-1.2,-1.2,-1.2Z" class="gt_306"/>
<path d="M172.8,438.5c.9,0,1.7,.8,1.7,1.7c0,.9,-.8,1.7,-1.7,1.7c-.9,0,-1.7,-.8,-1.7,-1.7c0,-.9,.8,-1.7,1.7,-1.7Z" class="g1_306"/>
<path d="M172.8,442.3c-1.2,0,-2.1,-.9,-2.1,-2.1c0,-1.2,.9,-2.1,2.1,-2.1c1.2,0,2.1,.9,2.1,2.1c0,1.2,-.9,2.1,-2.1,2.1m0,-3.3c-.7,0,-1.2,.5,-1.2,1.2c0,.7,.5,1.2,1.2,1.2c.7,0,1.2,-.5,1.2,-1.2c0,-.7,-.5,-1.2,-1.2,-1.2Z" class="gt_306"/>
<path d="M32.1,45.1H9.2m958.3,0h22.9M32.1,1331.3H9.2m958.3,0h22.9M45.1,32.1V9.2m0,1335.1v22.9M954.5,32.1V9.2m0,1335.1v22.9" class="gw_306"/>
<path d="M32.1,45.1H9.2m958.3,0h22.9M32.1,1331.3H9.2m958.3,0h22.9M45.1,32.1V9.2m0,1335.1v22.9M954.5,32.1V9.2m0,1335.1v22.9" class="gx_306"/>
<path d="M27.5,32.1H0m972.1,0h27.5M27.5,1344.3H0m972.1,0h27.5M32.1,27.5V0m0,1348.9v27.5M967.5,27.5V0m0,1348.9v27.5" class="gw_306"/>
<path d="M27.5,32.1H0m972.1,0h27.5M27.5,1344.3H0m972.1,0h27.5M32.1,27.5V0m0,1348.9v27.5M967.5,27.5V0m0,1348.9v27.5" class="gx_306"/>
</svg>