<?xml version="1.0" encoding="UTF-8" standalone="no"?>
<!DOCTYPE svg PUBLIC "-//W3C//DTD SVG 1.1//EN"
"http://www.w3.org/Graphics/SVG/1.1/DTD/svg11.dtd">
<svg viewBox="0 0 999 1376" version="1.1" xmlns="http://www.w3.org/2000/svg" xmlns:xlink="http://www.w3.org/1999/xlink">
<defs>
<clipPath id="c0_54"><path d="M32.1,1344.3V32.1H967.5V1344.3Z"/></clipPath>
<clipPath id="c1_54"><path d="M185.9,293.5l-6.5,-2.1l-14,-11.2V219.3h62.7v74.2Z"/></clipPath>
<clipPath id="c2_54"><path d="M181.3,741.9l-6.4,-2L160.8,728.6V667.8h62.7v74.1Z"/></clipPath>
<clipPath id="c3_54"><path d="M181.3,839.3l-6.4,-2.1L160.8,826V765.1h62.7v74.2Z"/></clipPath>
<style type="text/css"><![CDATA[
.g0_54{
fill: #FFFDEA;
}
.g1_54{
fill: #BCE4EA;
}
.g2_54{
fill: #BCBEC0;
}
.g3_54{
fill: #00AABD;
}
.g4_54{
fill: #FCDCBA;
}
.g5_54{
fill: #D8CCE4;
}
.g6_54{
fill: #FFF;
}
.g7_54{
fill: none;
stroke: #FFF;
stroke-width: 0.305;
stroke-miterlimit: 10;
}
.g8_54{
fill: none;
stroke: #6D6F71;
stroke-width: 0.305;
stroke-miterlimit: 10;
}
.g9_54{
fill: none;
stroke: #6D6F71;
stroke-width: 0.305;
stroke-miterlimit: 10;
stroke-dasharray: 2,2;
}
.ga_54{
fill: #DED3E8;
}
.gb_54{
fill: none;
stroke: #6D6F71;
stroke-width: 0.152;
stroke-miterlimit: 10;
}
.gc_54{
fill: none;
stroke: #976EAF;
stroke-width: 0.763;
stroke-dasharray: 3,3;
}
.gd_54{
fill: none;
stroke: #976EAF;
stroke-width: 0.763;
}
.ge_54{
fill: none;
stroke: #FFF;
stroke-width: 1.909;
stroke-miterlimit: 10;
}
.gf_54{
fill: none;
stroke: #000;
stroke-width: 0.381;
stroke-miterlimit: 10;
}
]]></style>
</defs>
<g clip-path="url(#c0_54)">
<path d="M32.1,1344.3H1877V32.1H32.1V1344.3Z" class="g0_54"/>
<path d="M32.1,179.3H1877V32.1H32.1V179.3Z" class="g1_54"/>
<path d="M1877,177.2H32.1v-5.4H768.7c43.1,0,53,-37.9,115.3,-37.9h993Z" class="g2_54"/>
<path d="M1877,183.7H32.1v-9.8H768.7c43.1,0,53,-33.6,115.3,-33.6h993Z" class="g3_54"/>
</g>
<path d="M218.6,248.5c0,0,-13,0,-13,13v21.6c0,0,0,13,13,13h619c0,0,13,0,13,-13V261.5c0,0,0,-13,-13,-13Z" class="g4_54"/>
<image clip-path="url(#c1_54)" preserveAspectRatio="none" x="165" y="218" width="63" height="77" xlink:href="img/1.png"/>
<path d="M213.4,288.8c0,0,-26.9,11.3,-51.1,-12.8c0,0,15.1,25.3,49.2,24c0,0,24.8,.3,20.3,-10.2c0,0,1.2,-4.4,-18.4,-1Z" class="g4_54"/>
<path d="M319.5,415.1H445.1V328.5H319.5v86.6Z" class="g5_54"/>
<path d="M445.1,328.5H570.7v43.3H445.1V328.5Zm125.6,0H696.3v43.3H570.7V328.5Z" class="g6_54"/>
<path d="M445.1,371.8H570.7v43.3H445.1V371.8Zm125.6,0H696.3v43.3H570.7V371.8Z" class="g6_54"/>
<path d="M445.3,371.8H570.7m0,0H696.1" class="g7_54"/>
<path d="M319.4,328.5H445.1M319.5,371.8V328.6m125.6,-.1H570.7M445.1,371.8V328.6m125.6,-.1H696.5M570.7,371.6v-43m125.6,43.2V328.6M319.5,414.9V371.8m125.6,43.1V371.8m125.6,43.1v-43m125.6,43V371.8M319.4,415.1H445.1m0,0H570.7m0,0H696.5" class="g8_54"/>
<path d="M447.1,371.8H569.5" class="g9_54"/>
<path d="M445.3,371.8h.6m124.2,0h.6" class="g8_54"/>
<path d="M572.6,371.8H694.9" class="g9_54"/>
<path d="M570.7,371.8h.6m124.2,0h.6" class="g8_54"/>
<path d="M170.8,428.4H306.4v43.3H170.8V428.4Zm0,43.3H306.4V515H170.8V471.7Zm0,43.3H306.4v43.3H170.8V515Zm0,43.3H306.4v43.3H170.8V558.3Zm0,43.3H306.4v43.3H170.8V601.6Z" class="ga_54"/>
<path d="M306.4,428.4h67.4v43.3H306.4V428.4Zm67.4,0h67.5v43.3H373.8V428.4Zm67.5,0h67.5v43.3H441.3V428.4Zm67.5,0h67.4v43.3H508.8V428.4Zm67.4,0h67.5v43.3H576.2V428.4Zm67.5,0h67.5v43.3H643.7V428.4Zm67.5,0h67.4v43.3H711.2V428.4Zm67.4,0h67.5v43.3H778.6V428.4ZM306.4,471.7h67.4V515H306.4V471.7Zm67.4,0h67.5V515H373.8V471.7Zm67.5,0h67.5V515H441.3V471.7Zm67.5,0h67.4V515H508.8V471.7Zm67.4,0h67.5V515H576.2V471.7Zm67.5,0h67.5V515H643.7V471.7Zm67.5,0h67.4V515H711.2V471.7Zm67.4,0h67.5V515H778.6V471.7ZM306.4,515h67.4v43.3H306.4V515Zm67.4,0h67.5v43.3H373.8V515Zm67.5,0h67.5v43.3H441.3V515Zm67.5,0h67.4v43.3H508.8V515Zm67.4,0h67.5v43.3H576.2V515Zm67.5,0h67.5v43.3H643.7V515Zm67.5,0h67.4v43.3H711.2V515Zm67.4,0h67.5v43.3H778.6V515ZM306.4,558.3h67.4v43.3H306.4V558.3Zm67.4,0h67.5v43.3H373.8V558.3Zm67.5,0h67.5v43.3H441.3V558.3Zm67.5,0h67.4v43.3H508.8V558.3Zm67.4,0h67.5v43.3H576.2V558.3Zm67.5,0h67.5v43.3H643.7V558.3Zm67.5,0h67.4v43.3H711.2V558.3Zm67.4,0h67.5v43.3H778.6V558.3ZM306.4,601.6h67.4v43.3H306.4V601.6Zm67.4,0h67.5v43.3H373.8V601.6Zm67.5,0h67.5v43.3H441.3V601.6Zm67.5,0h67.4v43.3H508.8V601.6Zm67.4,0h67.5v43.3H576.2V601.6Zm67.5,0h67.5v43.3H643.7V601.6Zm67.5,0h67.4v43.3H711.2V601.6Zm67.4,0h67.5v43.3H778.6V601.6Z" class="g6_54"/>
<path d="M441.3,471.6V428.5" class="g7_54"/>
<path d="M306.4,428.4h67.4m0,0h67.5m-67.5,43.2V428.5m67.5,-.1h67.5m0,0h67.4m-67.4,43.2V428.5m67.4,-.1h67.5m-67.5,43.2V428.5m67.5,-.1h67.5m-67.5,43.2V428.5m67.5,-.1h67.4m-67.4,43.2V428.5m67.4,-.1h67.7m-67.7,43.2V428.5m67.5,43.1V428.5M306.4,471.7h67.4m0,0h67.5m-67.5,43.2v-43m67.5,-.2h67.5m-67.5,43.2v-43m67.5,-.2h67.4m-67.4,43.2v-43m67.4,-.2h67.5m-67.5,43.2v-43m67.5,-.2h67.5m-67.5,43.2v-43m67.5,-.2h67.4m-67.4,43.2v-43m67.4,-.2h67.7m-67.7,43.2v-43m67.5,43v-43M306.4,515h67.4m0,0h67.5m-67.5,43.2v-43m67.5,-.2h67.5m-67.5,43.2v-43m67.5,-.2h67.4m-67.4,43.2v-43m67.4,-.2h67.5m-67.5,43.2v-43m67.5,-.2h67.5m-67.5,43.2v-43m67.5,-.2h67.4m-67.4,43.2v-43m67.4,-.2h67.7m-67.7,43.2v-43m67.5,43v-43M306.4,558.3h67.4m0,0h67.5m-67.5,43.2v-43m67.5,-.2h67.5m-67.5,43.2v-43m67.5,-.2h67.4m-67.4,43.2v-43m67.4,-.2h67.5m-67.5,43.2v-43m67.5,-.2h67.5m-67.5,43.2v-43m67.5,-.2h67.4m-67.4,43.2v-43m67.4,-.2h67.7m-67.7,43.2v-43m67.5,43v-43M306.4,601.6h67.4m0,0h67.5m-67.5,43.2v-43m67.5,-.2h67.5m-67.5,43.2v-43m67.5,-.2h67.4m-67.4,43.2v-43m67.4,-.2h67.5m-67.5,43.2v-43m67.5,-.2h67.5m-67.5,43.2v-43m67.5,-.2h67.4m-67.4,43.2v-43m67.4,-.2h67.7m-67.7,43.2v-43m67.5,43v-43M306.4,644.9h67.4m0,0h67.5m0,0h67.5m0,0h67.4m0,0h67.5m0,0h67.5m0,0h67.4m0,0h67.7" class="g8_54"/>
<path d="M441.2,471.6V428.5m.2,43.1V428.5" class="gb_54"/>
<path d="M170.7,428.4H306.4M170.8,471.6V428.5m135.6,43.1V428.5M170.7,471.7H306.4M170.8,514.9v-43m135.6,43v-43M170.7,515H306.4M170.8,558.2v-43m135.6,43v-43M170.7,558.3H306.4M170.8,601.5v-43m135.6,43v-43M170.7,601.6H306.4M170.8,644.8v-43m135.6,43v-43M170.7,644.9H306.4" class="g8_54"/>
<path d="M214,696.9c0,0,-13,0,-13,13v21.7c0,0,0,13,13,13H833c0,0,13,0,13,-13V709.9c0,0,0,-13,-13,-13Z" class="g4_54"/>
<image clip-path="url(#c2_54)" preserveAspectRatio="none" x="161" y="667" width="63" height="77" xlink:href="img/2.png"/>
<path d="M208.8,737.2c0,0,-26.9,11.3,-51.1,-12.8c0,0,15.1,25.4,49.3,24c0,0,24.7,.3,20.2,-10.1c0,0,1.2,-4.5,-18.4,-1.1Z" class="g4_54"/>
<path d="M214,794.3c0,0,-13,0,-13,13v21.6c0,0,0,13,13,13H833c0,0,13,0,13,-13V807.3c0,0,0,-13,-13,-13Z" class="g4_54"/>
<image clip-path="url(#c3_54)" preserveAspectRatio="none" x="161" y="764" width="63" height="77" xlink:href="img/3.png"/>
<path d="M208.8,834.5c0,0,-26.9,11.3,-51.1,-12.7c0,0,15.1,25.3,49.3,24c0,0,24.7,.3,20.2,-10.2c0,0,1.2,-4.4,-18.4,-1.1Z" class="g4_54"/>
<path d="M323.9,956.9H449.5V861.6H323.9v95.3Z" class="g5_54"/>
<path d="M449.5,861.6h60.6v47.6H449.5V861.6Zm60.6,0h60.6v47.6H510.1V861.6Zm60.6,0h60.6v47.6H570.7V861.6Zm60.6,0H692v47.6H631.3V861.6Z" class="g6_54"/>
<path d="M449.5,909.2H570.7v47.7H449.5V909.2Zm121.2,0H692v47.7H570.7V909.2Z" class="g6_54"/>
<path d="M449.6,909.2h60.5m0,0h60.6m0,0h60.6m0,0h60.5" class="g7_54"/>
<path d="M323.7,861.6H449.5M323.9,909.2V861.8m125.6,-.2h60.6m-60.6,47.6V861.8m60.6,-.2h60.6m-60.6,47.5V861.8m60.6,-.2h60.6m-60.6,47.5V861.8m60.6,-.2h60.8m-60.8,47.5V861.8M692,909.2V861.8M323.9,956.7V909.2m125.6,47.5V909.2m121.2,47.5V909.4M692,956.7V909.2M323.7,956.9H449.5m0,0h60.6m0,0h60.6m0,0h60.6m0,0h60.8" class="g8_54"/>
<path d="M451.4,909.2h57.5" class="g9_54"/>
<path d="M449.6,909.2h.6m59.3,0h.6" class="g8_54"/>
<path d="M511.9,909.2h57.6" class="g9_54"/>
<path d="M510.1,909.2h.6m59.4,0h.6" class="g8_54"/>
<path d="M572.5,909.2h57.6" class="g9_54"/>
<path d="M570.7,909.2h.6m59.4,0h.6" class="g8_54"/>
<path d="M633.2,909.2h57.4" class="g9_54"/>
<path d="M631.3,909.2h.6m59.3,0h.6" class="g8_54"/>
<path d="M170.8,970.2H335.4v43.3H170.8V970.2Zm0,43.3H335.4v43.3H170.8v-43.3Zm0,43.3H335.4v43.3H170.8v-43.3Zm0,43.3H335.4v43.3H170.8v-43.3Zm0,43.3H335.4v43.3H170.8v-43.3Z" class="ga_54"/>
<path d="M335.4,970.2h63.8v43.3H335.4V970.2Zm63.8,0h63.9v43.3H399.2V970.2Zm63.9,0h63.8v43.3H463.1V970.2Zm63.8,0h63.8v43.3H526.9V970.2Zm63.8,0h63.9v43.3H590.7V970.2Zm63.9,0h63.8v43.3H654.6V970.2Zm63.8,0h63.9v43.3H718.4V970.2Zm63.9,0h63.8v43.3H782.3V970.2Zm-446.9,43.3h63.8v43.3H335.4v-43.3Zm63.8,0h63.9v43.3H399.2v-43.3Zm63.9,0h63.8v43.3H463.1v-43.3Zm63.8,0h63.8v43.3H526.9v-43.3Zm63.8,0h63.9v43.3H590.7v-43.3Zm63.9,0h63.8v43.3H654.6v-43.3Zm63.8,0h63.9v43.3H718.4v-43.3Zm63.9,0h63.8v43.3H782.3v-43.3Zm-446.9,43.3h63.8v43.3H335.4v-43.3Zm63.8,0h63.9v43.3H399.2v-43.3Zm63.9,0h63.8v43.3H463.1v-43.3Zm63.8,0h63.8v43.3H526.9v-43.3Zm63.8,0h63.9v43.3H590.7v-43.3Zm63.9,0h63.8v43.3H654.6v-43.3Zm63.8,0h63.9v43.3H718.4v-43.3Zm63.9,0h63.8v43.3H782.3v-43.3Zm-446.9,43.3h63.8v43.3H335.4v-43.3Zm63.8,0h63.9v43.3H399.2v-43.3Zm63.9,0h63.8v43.3H463.1v-43.3Zm63.8,0h63.8v43.3H526.9v-43.3Zm63.8,0h63.9v43.3H590.7v-43.3Zm63.9,0h63.8v43.3H654.6v-43.3Zm63.8,0h63.9v43.3H718.4v-43.3Zm63.9,0h63.8v43.3H782.3v-43.3Zm-446.9,43.3h63.8v43.3H335.4v-43.3Zm63.8,0h63.9v43.3H399.2v-43.3Zm63.9,0h63.8v43.3H463.1v-43.3Zm63.8,0h63.8v43.3H526.9v-43.3Zm63.8,0h63.9v43.3H590.7v-43.3Zm63.9,0h63.8v43.3H654.6v-43.3Zm63.8,0h63.9v43.3H718.4v-43.3Zm63.9,0h63.8v43.3H782.3v-43.3Z" class="g6_54"/>
<path d="M463.1,1013.3v-43" class="g7_54"/>
<path d="M335.4,970.2h63.8m0,0h63.9m-63.9,43.1v-43m63.9,-.1h63.8m0,0h63.8m-63.8,43.1v-43m63.8,-.1h63.9m-63.9,43.1v-43m63.9,-.1h63.8m-63.8,43.1v-43m63.8,-.1h63.9m-63.9,43.1v-43m63.9,-.1h64m-64,43.1v-43m63.8,43v-43m-510.7,43.2h63.8m0,0h63.9m-63.9,43.1v-43m63.9,-.1h63.8m-63.8,43.1v-43m63.8,-.1h63.8m-63.8,43.1v-43m63.8,-.1h63.9m-63.9,43.1v-43m63.9,-.1h63.8m-63.8,43.1v-43m63.8,-.1h63.9m-63.9,43.1v-43m63.9,-.1h64m-64,43.1v-43m63.8,43v-43m-510.7,43.2h63.8m0,0h63.9m-63.9,43.1v-43m63.9,-.1h63.8m-63.8,43.1v-43m63.8,-.1h63.8m-63.8,43.1v-43m63.8,-.1h63.9m-63.9,43.1v-43m63.9,-.1h63.8m-63.8,43.1v-43m63.8,-.1h63.9m-63.9,43.1v-43m63.9,-.1h64m-64,43.1v-43m63.8,43v-43m-510.7,43.2h63.8m0,0h63.9m-63.9,43.1v-43m63.9,-.1h63.8m-63.8,43.1v-43m63.8,-.1h63.8m-63.8,43.1v-43m63.8,-.1h63.9m-63.9,43.1v-43m63.9,-.1h63.8m-63.8,43.1v-43m63.8,-.1h63.9m-63.9,43.1v-43m63.9,-.1h64m-64,43.1v-43m63.8,43v-43m-510.7,43.2h63.8m0,0h63.9m-63.9,43.2v-43m63.9,-.2h63.8m-63.8,43.2v-43m63.8,-.2h63.8m-63.8,43.2v-43m63.8,-.2h63.9m-63.9,43.2v-43m63.9,-.2h63.8m-63.8,43.2v-43m63.8,-.2h63.9m-63.9,43.2v-43m63.9,-.2h64m-64,43.2v-43m63.8,43v-43m-510.7,43.1h63.8m0,0h63.9m0,0h63.8m0,0h63.8m0,0h63.9m0,0h63.8m0,0h63.9m0,0h64" class="g8_54"/>
<path d="M462.9,1013.3v-43m.3,43v-43" class="gb_54"/>
<path d="M170.7,970.2H335.4m-164.6,43.1v-43m164.6,43v-43m-164.7,43.2H335.4m-164.6,43.1v-43m164.6,43v-43m-164.6,86.3v-43m164.6,43v-43m-164.7,-.1H335.4m-164.7,43.3H335.4m-164.6,43.1v-43m164.6,43v-43m-164.7,43.2H335.4m-164.6,43.2v-43m164.6,43v-43m-164.7,43.1H335.4" class="g8_54"/>
<path d="M386.4,360.2c5.2,-1.6,9.2,-5.9,10.2,-11.3m-.3,-7.1c-1.6,-5.2,-5.9,-9.2,-11.3,-10.2m-7.1,.3c-5.2,1.6,-9.2,5.9,-10.2,11.3m.3,7.1c1.6,5.2,5.9,9.2,11.3,10.3" class="gc_54"/>
<path d="M396.9,347.5c0,-.5,0,-.9,0,-1.4c0,-.5,0,-1,0,-1.5M383.6,331.4c-.5,-.1,-1,-.1,-1.4,-.1c-.5,0,-1,0,-1.5,.1m-13.3,13.2c0,.5,0,1,0,1.5c0,.5,0,.9,0,1.4m13.3,13.3c.5,0,1,0,1.5,0c.4,0,.9,0,1.4,0" class="gd_54"/>
<path d="M32.1,45.1H9.2m958.3,0h22.9M32.1,1331.3H9.2m958.3,0h22.9M45.1,32.1V9.2m0,1335.1v22.9M954.5,32.1V9.2m0,1335.1v22.9" class="ge_54"/>
<path d="M32.1,45.1H9.2m958.3,0h22.9M32.1,1331.3H9.2m958.3,0h22.9M45.1,32.1V9.2m0,1335.1v22.9M954.5,32.1V9.2m0,1335.1v22.9" class="gf_54"/>
<path d="M27.5,32.1H0m972.1,0h27.5M27.5,1344.3H0m972.1,0h27.5M32.1,27.5V0m0,1348.9v27.5M967.5,27.5V0m0,1348.9v27.5" class="ge_54"/>
<path d="M27.5,32.1H0m972.1,0h27.5M27.5,1344.3H0m972.1,0h27.5M32.1,27.5V0m0,1348.9v27.5M967.5,27.5V0m0,1348.9v27.5" class="gf_54"/>
</svg>