<?xml version="1.0" encoding="UTF-8" standalone="no"?>
<!DOCTYPE svg PUBLIC "-//W3C//DTD SVG 1.1//EN"
"http://www.w3.org/Graphics/SVG/1.1/DTD/svg11.dtd">
<svg viewBox="0 0 999 1376" version="1.1" xmlns="http://www.w3.org/2000/svg" xmlns:xlink="http://www.w3.org/1999/xlink">
<defs>
<clipPath id="c0_259"><path d="M32.1,1344.3V32.1H967.5V1344.3Z"/></clipPath>
<clipPath id="c1_259"><path d="M206.6,455.2V333.3h122V455.2Z"/></clipPath>
<clipPath id="c2_259"><path d="M505.6,455.2V333.3H627.5V455.2Z"/></clipPath>
<clipPath id="c3_259"><path d="M356.1,455.2V333.3h122V455.2Z"/></clipPath>
<clipPath id="c4_259"><path d="M649.1,455.2V333.3H782.5V455.2Z"/></clipPath>
<clipPath id="c5_259"><path d="M206.6,820.7v-122h122v122Z"/></clipPath>
<clipPath id="c6_259"><path d="M357,820.7v-122H478.9v122Z"/></clipPath>
<clipPath id="c7_259"><path d="M223.1,1077v-67.4h67.4V1077Z"/></clipPath>
<clipPath id="c8_259"><path d="M354.4,1076.2v-66.5h66.5v66.5Z"/></clipPath>
<clipPath id="c9_259"><path d="M482.8,1076.9v-68h66.4v68Z"/></clipPath>
<clipPath id="ca_259"><path d="M605.8,1076.2v-66.5h66.4v66.5Z"/></clipPath>
<clipPath id="cb_259"><path d="M734.1,1076.2v-66.5h68v66.5Z"/></clipPath>
<clipPath id="cc_259"><path d="M200.6,647.5V525.6H332.1V647.5Z"/></clipPath>
<clipPath id="cd_259"><path d="M503,642.4V525.6H625V642.4Z"/></clipPath>
<clipPath id="ce_259"><path d="M353.5,647.5V525.6H481.7V647.5Z"/></clipPath>
<clipPath id="cf_259"><path d="M651.6,647.5V525.6H782.5V647.5Z"/></clipPath>
<clipPath id="cg_259"><path d="M199.2,319.1L192.7,317L176.3,303V245.9h72v73.2Z"/></clipPath>
<clipPath id="ch_259"><path d="M198.6,954.6l-6.5,-2.1L175.7,938.6V881.5h72v73.1Z"/></clipPath>
<clipPath id="ci_259"><path d="M658.6,177V59h200V177Z"/></clipPath>
<style type="text/css"><![CDATA[
.g0_259{
fill: #FEFCF4;
}
.g1_259{
fill: #FFF;
}
.g2_259{
fill: none;
stroke: #6381B7;
stroke-width: 0.763;
}
.g3_259{
fill: none;
stroke: #949698;
stroke-width: 1.206;
}
.g4_259{
fill: #EFE9CC;
}
.g5_259{
fill: #ABB2C9;
}
.g6_259{
fill: #6381B7;
}
.g7_259{
fill: none;
stroke: #6381B7;
stroke-width: 0.381;
stroke-dasharray: 2,1;
}
.g8_259{
fill: none;
stroke: #6381B7;
stroke-width: 0.381;
}
.g9_259{
fill: #FCE8B0;
}
.ga_259{
fill: none;
stroke: #231F20;
stroke-width: 1.527;
stroke-miterlimit: 3;
}
.gb_259{
fill: #2E6E51;
}
.gc_259{
fill: #BCBEC0;
}
.gd_259{
fill: #EE314A;
}
.ge_259{
fill: #25408F;
}
.gf_259{
fill: #00BAF1;
}
.gg_259{
fill: #332D2C;
}
.gh_259{
fill: #D9DFF0;
}
.gi_259{
fill: #F27C85;
}
.gj_259{
fill: #7DD3F6;
}
.gk_259{
fill: none;
stroke: #FFF;
stroke-width: 1.909;
stroke-miterlimit: 10;
}
.gl_259{
fill: none;
stroke: #000;
stroke-width: 0.381;
stroke-miterlimit: 10;
}
]]></style>
</defs>
<path clip-path="url(#c0_259)" d="M-877.3,1344.3H45.1V32.1H-877.3V1344.3Z" class="g0_259"/>
<path d="M45.1,1344.3H967.5V32.1H45.1V1344.3Z" class="g0_259"/>
<path d="M173.1,225.4c0,0,-18.4,0,-18.4,18.3V852c0,0,0,18.3,18.4,18.3H850.2c0,0,18.3,0,18.3,-18.3V225.4Z" class="g1_259"/>
<path d="M173.1,225.4c0,0,-18.4,0,-18.4,18.3V852c0,0,0,18.3,18.4,18.3H850.2c0,0,18.3,0,18.3,-18.3V225.4H173.1Z" class="g2_259"/>
<image clip-path="url(#c1_259)" preserveAspectRatio="none" x="207" y="333" width="122" height="122" xlink:href="img/1.jpg"/>
<path d="M200.6,455.2H334.1V333.3H200.6V455.2Z" class="g3_259"/>
<image clip-path="url(#c2_259)" preserveAspectRatio="none" x="506" y="333" width="122" height="122" xlink:href="img/2.jpg"/>
<path d="M499.6,455.2H633V333.3H499.6V455.2Z" class="g3_259"/>
<image clip-path="url(#c3_259)" preserveAspectRatio="none" x="356" y="333" width="122" height="122" xlink:href="img/3.jpg"/>
<path d="M350.1,455.2H483.6V333.3H350.1V455.2Z" class="g3_259"/>
<image clip-path="url(#c4_259)" preserveAspectRatio="none" x="648" y="332" width="135" height="124" xlink:href="img/4.jpg"/>
<path d="M649.1,455.2H782.5V333.3H649.1V455.2Z" class="g3_259"/>
<path d="M185.8,498.7H822.4v-39H185.8v39Z" class="g1_259"/>
<path d="M199.9,866.7H836.3v-171H199.9v171Z" class="g1_259"/>
<image clip-path="url(#c5_259)" preserveAspectRatio="none" x="207" y="699" width="122" height="122" xlink:href="img/5.jpg"/>
<path d="M200.6,820.7H334.1v-122H200.6v122Z" class="g3_259"/>
<image clip-path="url(#c6_259)" preserveAspectRatio="none" x="357" y="699" width="122" height="122" xlink:href="img/6.jpg"/>
<path d="M350.1,820.7H483.6v-122H350.1v122Z" class="g3_259"/>
<path d="M185.8,861.4H492.4v-39H185.8v39Z" class="g1_259"/>
<path d="M166.7,966.3c0,0,-13,0,-13,13v207.1c0,0,0,13,13,13H854.5c0,0,13,0,13,-13V979.3c0,0,0,-13,-13,-13Z" class="g1_259"/>
<path d="M166.7,966.3c0,0,-13,0,-13,13v207.1c0,0,0,13,13,13H854.5c0,0,13,0,13,-13V979.3c0,0,0,-13,-13,-13H166.7Z" class="g2_259"/>
<path d="M218.3,1080.7h77.9v-75.8H218.3v75.8Z" class="g1_259"/>
<image clip-path="url(#c7_259)" preserveAspectRatio="none" x="223" y="1010" width="68" height="67" xlink:href="img/7.jpg"/>
<path d="M350.9,1080.7h69.3V1010H350.9v70.7Z" class="g1_259"/>
<image clip-path="url(#c8_259)" preserveAspectRatio="none" x="355" y="1009" width="67" height="67" xlink:href="img/8.jpg"/>
<path d="M483.5,1080.7h65v-75.8h-65v75.8Z" class="g1_259"/>
<image clip-path="url(#c9_259)" preserveAspectRatio="none" x="482" y="1008" width="70" height="70" xlink:href="img/9.jpg"/>
<path d="M606.1,1080.7h69.2V1010H606.1v70.7Z" class="g1_259"/>
<image clip-path="url(#ca_259)" preserveAspectRatio="none" x="604" y="1008" width="68" height="68" xlink:href="img/10.jpg"/>
<path d="M729.3,1080.7h78V1010h-78v70.7Z" class="g1_259"/>
<image clip-path="url(#cb_259)" preserveAspectRatio="none" x="733" y="1007" width="70" height="70" xlink:href="img/11.jpg"/>
<path d="M206,1155.8c0,0,-8.7,0,-8.7,8.6v15.2c0,0,0,8.6,8.7,8.6H310.1c0,0,8.7,0,8.7,-8.6v-15.2c0,0,0,-8.6,-8.7,-8.6Z" class="g4_259"/>
<path d="M488.9,1155.8c0,0,-8.6,0,-8.6,8.6v15.2c0,0,0,8.6,8.6,8.6h52.5c0,0,8.6,0,8.6,-8.6v-15.2c0,0,0,-8.6,-8.6,-8.6Z" class="g4_259"/>
<path d="M365.3,1155.8c0,0,-8.7,0,-8.7,8.6v15.2c0,0,0,8.6,8.7,8.6h69.3c0,0,8.6,0,8.6,-8.6v-15.2c0,0,0,-8.6,-8.6,-8.6Z" class="g4_259"/>
<path d="M595.8,1155.8c0,0,-8.7,0,-8.7,8.6v15.2c0,0,0,8.6,8.7,8.6h83.6c0,0,8.7,0,8.7,-8.6v-15.2c0,0,0,-8.6,-8.7,-8.6Z" class="g4_259"/>
<path d="M733.5,1155.8c0,0,-8.6,0,-8.6,8.6v15.2c0,0,0,8.6,8.6,8.6h83.7c0,0,8.7,0,8.7,-8.6v-15.2c0,0,0,-8.6,-8.7,-8.6Z" class="g4_259"/>
<path d="M258,1091.2c2,0,3.6,-1.7,3.6,-3.7c0,-1.9,-1.6,-3.6,-3.6,-3.6c-2,0,-3.6,1.7,-3.6,3.6c0,2,1.6,3.7,3.6,3.7Z" class="g5_259"/>
<path d="M510.2,1091.2c2,0,3.6,-1.7,3.6,-3.7c0,-1.9,-1.6,-3.6,-3.6,-3.6c-2,0,-3.6,1.7,-3.6,3.6c0,2,1.6,3.7,3.6,3.7Z" class="g5_259"/>
<path d="M380.7,1091.2c2,0,3.6,-1.7,3.6,-3.7c0,-1.9,-1.6,-3.6,-3.6,-3.6c-2,0,-3.6,1.7,-3.6,3.6c0,2,1.6,3.7,3.6,3.7Z" class="g5_259"/>
<path d="M634.4,1091.2c2,0,3.6,-1.7,3.6,-3.7c0,-1.9,-1.6,-3.6,-3.6,-3.6c-2,0,-3.6,1.7,-3.6,3.6c0,2,1.6,3.7,3.6,3.7Z" class="g5_259"/>
<path d="M762.4,1091.2c2,0,3.6,-1.7,3.6,-3.7c0,-1.9,-1.6,-3.6,-3.6,-3.6c-2,0,-3.6,1.7,-3.6,3.6c0,2,1.6,3.7,3.6,3.7Z" class="g5_259"/>
<path d="M258,1146.4c2,0,3.6,-1.6,3.6,-3.6c0,-2,-1.6,-3.6,-3.6,-3.6c-2,0,-3.6,1.6,-3.6,3.6c0,2,1.6,3.6,3.6,3.6Z" class="g5_259"/>
<path d="M510.2,1146.4c2,0,3.6,-1.6,3.6,-3.6c0,-2,-1.6,-3.6,-3.6,-3.6c-2,0,-3.6,1.6,-3.6,3.6c0,2,1.6,3.6,3.6,3.6Z" class="g5_259"/>
<path d="M380.7,1146.4c2,0,3.6,-1.6,3.6,-3.6c0,-2,-1.6,-3.6,-3.6,-3.6c-2,0,-3.6,1.6,-3.6,3.6c0,2,1.6,3.6,3.6,3.6Z" class="g5_259"/>
<path d="M634.4,1146.4c2,0,3.6,-1.6,3.6,-3.6c0,-2,-1.6,-3.6,-3.6,-3.6c-2,0,-3.6,1.6,-3.6,3.6c0,2,1.6,3.6,3.6,3.6Z" class="g5_259"/>
<path d="M762.4,1146.4c2,0,3.6,-1.6,3.6,-3.6c0,-2,-1.6,-3.6,-3.6,-3.6c-2,0,-3.6,1.6,-3.6,3.6c0,2,1.6,3.6,3.6,3.6Z" class="g5_259"/>
<path d="M612.8,1214.8c0,0,-4.4,0,-4.4,4.4V1230c0,0,0,4.3,4.4,4.3h30.3c0,0,4.3,0,4.3,-4.3v-10.8c0,0,0,-4.4,-4.3,-4.4Z" class="g6_259"/>
<path d="M599.6,1206v37.5m1.3,1H866.8m.9,-1.3v-37.6m-1.3,-1H600.6" class="g7_259"/>
<path d="M599.6,1243.9v.6h.6m266.9,0h.6v-.6m0,-38.7v-.6h-.6m-266.9,0h-.6v.6" class="g8_259"/>
<path d="M511.5,696.8c0,0,-14.3,0,-14.3,14.3v136c0,0,0,14.3,14.3,14.3H843.2c0,0,14.3,0,14.3,-14.3v-136c0,0,0,-14.3,-14.3,-14.3Z" class="g9_259"/>
<path d="M512.1,723.4c-.2,0,-.5,.1,-.7,.3c-.2,.2,-.3,.4,-.3,.7c0,.3,.1,.6,.3,.8c.2,.2,.5,.3,.7,.3c.3,0,.5,-.1,.8,-.3c.2,-.2,.3,-.5,.3,-.8c0,-.3,-.1,-.5,-.3,-.7c-.3,-.2,-.5,-.3,-.8,-.3Zm0,24.2c-.2,0,-.5,.1,-.7,.3c-.2,.2,-.3,.4,-.3,.7c0,.3,.1,.6,.3,.8c.2,.2,.5,.3,.7,.3c.3,0,.5,-.1,.8,-.3c.2,-.2,.3,-.5,.3,-.8c0,-.3,-.1,-.5,-.3,-.7c-.3,-.2,-.5,-.3,-.8,-.3Zm0,24.2c-.2,0,-.5,.1,-.7,.3c-.2,.2,-.3,.4,-.3,.7c0,.3,.1,.6,.3,.8c.2,.2,.5,.3,.7,.3c.3,0,.5,-.1,.8,-.3c.2,-.2,.3,-.5,.3,-.8c0,-.3,-.1,-.5,-.3,-.7c-.3,-.2,-.5,-.3,-.8,-.3Zm0,44c-.2,0,-.5,.1,-.7,.3c-.2,.2,-.3,.5,-.3,.8c0,.3,.1,.5,.3,.7c.2,.2,.5,.3,.7,.3c.3,0,.5,-.1,.8,-.3c.2,-.2,.3,-.4,.3,-.7c0,-.3,-.1,-.6,-.3,-.8c-.3,-.2,-.5,-.3,-.8,-.3Z" class="ga_259"/>
<path d="M199.9,695H836.3V521.8H199.9V695Z" class="g1_259"/>
<image clip-path="url(#cc_259)" preserveAspectRatio="none" x="199" y="524" width="133" height="125" xlink:href="img/12.jpg"/>
<path d="M200.6,647.5H334.1V525.6H200.6V647.5Z" class="g3_259"/>
<image clip-path="url(#cd_259)" preserveAspectRatio="none" x="503" y="524" width="122" height="118" xlink:href="img/13.jpg"/>
<path d="M499.6,647.5H633V525.6H499.6V647.5Z" class="g3_259"/>
<image clip-path="url(#ce_259)" preserveAspectRatio="none" x="353" y="524" width="129" height="125" xlink:href="img/14.jpg"/>
<path d="M350.1,647.5H483.6V525.6H350.1V647.5Z" class="g3_259"/>
<image clip-path="url(#cf_259)" preserveAspectRatio="none" x="652" y="524" width="132" height="124" xlink:href="img/15.jpg"/>
<path d="M649.1,647.5H782.5V525.6H649.1V647.5Z" class="g3_259"/>
<path d="M185.8,690.4H822.4v-39H185.8v39Z" class="g1_259"/>
<path d="M231.8,274.1c0,0,-13,0,-13,13v21.6c0,0,0,13,13,13h602c0,0,13,0,13,-13V287.1c0,0,0,-13,-13,-13Z" class="g9_259"/>
<image clip-path="url(#cg_259)" preserveAspectRatio="none" x="175" y="244" width="75" height="77" xlink:href="img/16.png"/>
<path d="M226.6,314.4c0,0,-26.9,11.3,-51.1,-12.8c0,0,15.1,25.3,49.3,24c0,0,24.7,.3,20.2,-10.2c0,0,1.2,-4.4,-18.4,-1Z" class="g9_259"/>
<path d="M231.2,909.6c0,0,-12.9,0,-12.9,13v21.7c0,0,0,13,12.9,13H833.3c0,0,13,0,13,-13V922.6c0,0,0,-13,-13,-13Z" class="g9_259"/>
<image clip-path="url(#ch_259)" preserveAspectRatio="none" x="174" y="880" width="75" height="76" xlink:href="img/17.png"/>
<path d="M226,949.9c0,0,-26.8,11.3,-51.1,-12.8c0,0,15.2,25.4,49.3,24c0,0,24.8,.3,20.3,-10.1c0,0,1.2,-4.5,-18.5,-1.1Z" class="g9_259"/>
<path d="M32.1,179.3H967.5V32.1H32.1V179.3Z" class="gb_259"/>
<g clip-path="url(#c0_259)">
<path d="M967.5,177.2H-877.3v-5.4h736.6c43.1,0,53.1,-37.9,115.3,-37.9H967.5Z" class="gc_259"/>
<path d="M967.5,183.7H-877.3v-9.8h736.6c43.1,0,53.1,-33.6,115.3,-33.6H967.5Z" class="gd_259"/>
</g>
<image clip-path="url(#ci_259)" preserveAspectRatio="none" x="659" y="59" width="200" height="118" xlink:href="img/18.png"/>
<path d="M153.3,217.5v22.2L165,250V227.8Z" class="ge_259"/>
<path d="M153.3,200.7v39H851.1c0,0,16.8,0,16.8,-16.8v-5.4c0,0,0,-16.8,-16.8,-16.8Z" class="g6_259"/>
<path d="M211.3,212.1l-6.5,-6.4l-21.2,21.2l6.5,6.4Z" class="gf_259"/>
<path d="M190.1,233.9c.1,0,.3,-.1,.4,-.2l21.2,-21.2c.1,-.1,.1,-.2,.1,-.4c0,-.1,0,-.2,-.1,-.3l-6.5,-6.5c-.2,-.2,-.6,-.2,-.8,0l-21.2,21.2c-.1,.1,-.1,.2,-.1,.4c0,.1,0,.2,.1,.3l6.5,6.5c.1,.1,.3,.2,.4,.2m20.5,-21.8l-20.5,20.5l-5.8,-5.7l20.5,-20.5Z" class="gg_259"/>
<path d="M211.3,212.1l-6.5,-6.4l2.1,-2.2l6.5,6.5Z" class="gh_259"/>
<path d="M211.3,212.7c.1,0,.3,-.1,.4,-.2l2.1,-2.1c.1,-.1,.2,-.2,.2,-.4c0,-.1,-.1,-.3,-.2,-.4l-6.5,-6.4c-.2,-.3,-.5,-.3,-.7,0l-2.2,2.1c-.1,.1,-.1,.2,-.1,.4c0,.1,0,.2,.1,.3l6.5,6.5c.1,.1,.3,.2,.4,.2m1.4,-2.7l-1.4,1.4l-5.7,-5.7l1.3,-1.4Z" class="gg_259"/>
<path d="M217,206.4l-6.4,-6.5l-3.7,3.6l6.5,6.5Z" class="gi_259"/>
<path d="M213.4,210.5c.2,0,.3,0,.4,-.1l3.6,-3.6c.2,-.2,.2,-.6,0,-.8l-6.5,-6.5c-.2,-.2,-.5,-.2,-.7,0l-3.6,3.7c-.2,.2,-.2,.5,0,.7l6.5,6.5c.1,.1,.2,.1,.3,.1m2.9,-4.1l-2.9,2.9l-5.7,-5.8l2.9,-2.8Z" class="gg_259"/>
<path d="M179,238l4.6,-11.1l6.5,6.4Z" class="g1_259"/>
<path d="M179,238.5c0,0,.1,0,.2,0l11.1,-4.7c.2,0,.3,-.2,.3,-.4c0,-.1,0,-.3,-.1,-.4L184,226.5c-.1,-.1,-.3,-.2,-.5,-.1c-.2,0,-.3,.1,-.4,.3l-4.6,11.1c-.1,.2,0,.4,.1,.6c.1,.1,.2,.1,.4,.1m10.2,-5.3l-9.3,3.8l3.9,-9.2Z" class="gg_259"/>
<path d="M179,238l2.2,-5.4l3.1,3.1Z" class="gg_259"/>
<path d="M179,238.5c0,0,.1,0,.2,0l5.3,-2.3c.2,0,.3,-.2,.4,-.4c0,-.1,-.1,-.3,-.2,-.4l-3.1,-3.2c-.1,-.1,-.3,-.1,-.5,-.1c-.2,0,-.3,.2,-.4,.3l-2.2,5.4c-.1,.2,0,.4,.1,.6c.1,.1,.2,.1,.4,.1m4.4,-2.9l-3.5,1.4l1.5,-3.5Z" class="gg_259"/>
<path d="M209.5,210.4l-2.9,-3l-21.2,21.2l2.9,3Z" class="gj_259"/>
<path d="M188.3,232.1c.2,0,.3,0,.4,-.1l21.2,-21.2c.1,-.1,.2,-.3,.2,-.4c0,-.2,-.1,-.3,-.2,-.4l-3,-3c-.2,-.2,-.5,-.2,-.7,0L185,228.3c-.1,.1,-.2,.2,-.2,.3c0,.2,.1,.3,.2,.4l3,3c.1,.1,.2,.1,.3,.1m20.5,-21.7l-20.5,20.4l-2.2,-2.2l20.5,-20.4Z" class="gg_259"/>
<path d="M32.1,45.1H9.2m958.3,0h22.9M32.1,1331.3H9.2m958.3,0h22.9M45.1,32.1V9.2m0,1335.1v22.9M954.5,32.1V9.2m0,1335.1v22.9" class="gk_259"/>
<path d="M32.1,45.1H9.2m958.3,0h22.9M32.1,1331.3H9.2m958.3,0h22.9M45.1,32.1V9.2m0,1335.1v22.9M954.5,32.1V9.2m0,1335.1v22.9" class="gl_259"/>
<path d="M27.5,32.1H0m972.1,0h27.5M27.5,1344.3H0m972.1,0h27.5M32.1,27.5V0m0,1348.9v27.5M967.5,27.5V0m0,1348.9v27.5" class="gk_259"/>
<path d="M27.5,32.1H0m972.1,0h27.5M27.5,1344.3H0m972.1,0h27.5M32.1,27.5V0m0,1348.9v27.5M967.5,27.5V0m0,1348.9v27.5" class="gl_259"/>
</svg>