<?xml version="1.0" encoding="UTF-8" standalone="no"?>
<!DOCTYPE svg PUBLIC "-//W3C//DTD SVG 1.1//EN"
"http://www.w3.org/Graphics/SVG/1.1/DTD/svg11.dtd">
<svg viewBox="0 0 999 1376" version="1.1" xmlns="http://www.w3.org/2000/svg" xmlns:xlink="http://www.w3.org/1999/xlink">
<defs>
<clipPath id="c0_84"><path d="M233.9,591.5V371H638.8V591.5Z"/></clipPath>
<clipPath id="c1_84"><path d="M234.6,832.6V612H639.5V832.6Z"/></clipPath>
<clipPath id="c2_84"><path d="M176.8,955.8l-6.5,-2.1L153.9,939.8V882.7h72v73.1Z"/></clipPath>
<clipPath id="c3_84"><path d="M200.3,1175.8V1096h86.4v79.8Z"/></clipPath>
<clipPath id="c4_84"><path d="M510.6,1175.8v-76.7H617.8c.2,.7,.2,1.2,.2,1.2v71.2c0,4.3,-4.3,4.3,-4.3,4.3Z"/></clipPath>
<style type="text/css"><![CDATA[
.g0_84{
fill: none;
stroke: #6381B7;
stroke-width: 0.763;
}
.g1_84{
fill: #48484A;
}
.g2_84{
fill: #E1E0ED;
}
.g3_84{
fill: #766FA6;
}
.g4_84{
fill: #FCE8B0;
}
.g5_84{
fill: #25408F;
}
.g6_84{
fill: #6381B7;
}
.g7_84{
fill: #F37553;
}
.g8_84{
fill: #363637;
}
.g9_84{
fill: #EAD646;
}
.ga_84{
fill: #506CB4;
}
.gb_84{
fill: #5CC4BE;
}
.gc_84{
fill: #FCFBEC;
}
.gd_84{
fill: none;
stroke: #EAD646;
stroke-width: 1.527;
stroke-linecap: round;
stroke-linejoin: round;
stroke-dasharray: 0,5;
}
.ge_84{
fill: none;
stroke: #EAD646;
stroke-width: 1.527;
stroke-linecap: round;
stroke-linejoin: round;
}
.gf_84{
fill: #231F20;
}
.gg_84{
fill: #58595B;
}
.gh_84{
fill: #61C7CB;
}
.gi_84{
fill: #FFF;
}
.gj_84{
fill: #F5CA58;
}
.gk_84{
fill: #3D3B39;
}
.gl_84{
fill: none;
stroke: #949698;
stroke-width: 0.305;
}
.gm_84{
fill: none;
stroke: #6381B7;
stroke-width: 0.381;
stroke-dasharray: 2,1;
}
.gn_84{
fill: none;
stroke: #6381B7;
stroke-width: 0.381;
}
.go_84{
fill: none;
stroke: #FFF;
stroke-width: 1.909;
stroke-miterlimit: 10;
}
.gp_84{
fill: none;
stroke: #000;
stroke-width: 0.381;
stroke-miterlimit: 10;
}
]]></style>
</defs>
<path d="M145.3,166.7c0,0,-13,0,-13,13V837.2c0,0,0,13,13,13H833.1c0,0,13,0,13,-13V179.7c0,0,0,-13,-13,-13H145.3Z" class="g0_84"/>
<path d="M170.7,233.3c0,0,-4.4,0,-4.4,4.3V252c0,0,0,4.3,4.1,5.7L222.9,276c0,0,4.1,1.4,4.1,-2.9V237.6c0,0,0,-4.3,-4.4,-4.3Z" class="g1_84"/>
<path d="M191.8,220.5c0,0,-13,0,-13,13v105c0,0,0,13,13,13H789.4c0,0,13,0,13,-13v-105c0,0,0,-13,-13,-13Z" class="g2_84"/>
<image clip-path="url(#c0_84)" preserveAspectRatio="none" x="234" y="371" width="407" height="221" xlink:href="img/1.jpg"/>
<image clip-path="url(#c1_84)" preserveAspectRatio="none" x="235" y="612" width="406" height="221" xlink:href="img/2.jpg"/>
<path d="M170.7,231.1c0,0,-4.4,0,-4.4,4.4v16.9c0,0,0,4.3,4.4,4.3h31.1c0,0,4.4,0,4.4,-4.3V235.5c0,0,0,-4.4,-4.4,-4.4Z" class="g3_84"/>
<path d="M209.4,884.8c0,0,-12.9,0,-12.9,13v47.7c0,0,0,12.9,12.9,12.9H833.5c0,0,13,0,13,-12.9V897.8c0,0,0,-13,-13,-13Z" class="g4_84"/>
<image clip-path="url(#c2_84)" preserveAspectRatio="none" x="152" y="881" width="75" height="76" xlink:href="img/3.png"/>
<path d="M204.2,951.1c0,0,-26.8,11.3,-51.1,-12.8c0,0,15.2,25.3,49.3,24c0,0,24.8,.3,20.3,-10.1c0,0,1.2,-4.5,-18.5,-1.1Z" class="g4_84"/>
<path d="M132.2,126.3v22.2l11.7,10.2V136.5Z" class="g5_84"/>
<path d="M132.2,109.5v39H829.9c0,0,16.9,0,16.9,-16.8v-5.4c0,0,0,-16.8,-16.9,-16.8Z" class="g6_84"/>
<path d="M166,111.6c.7,-.6,1.7,-.8,2.5,-.6l1.3,-1.3l-6.2,-6.1l-6.1,6.1l-1.3,-1.3c.2,-.8,0,-1.8,-.6,-2.4c-1,-1,-2.6,-1,-3.6,0c-1,1,-1,2.6,0,3.6c.6,.6,1.6,.9,2.4,.6l1.3,1.3l-6.1,6.1l6.1,6.2l-1.3,1.3c-.8,-.3,-1.8,-.1,-2.4,.6c-1,1,-1,2.6,0,3.6c1,1,2.6,1,3.6,0c.6,-.7,.9,-1.6,.6,-2.4l1.3,-1.3l6.1,6.1l6.2,-6.1l-1.3,-1.3c-.9,.2,-1.8,0,-2.5,-.7c-1,-1,-1,-2.6,0,-3.6c1,-1,2.6,-1,3.6,0c.7,.7,.9,1.6,.7,2.5l1.3,1.3l6.1,-6.2l-6.1,-6.1l-1.3,1.3c.2,.8,0,1.8,-.7,2.4c-1,1,-2.6,1,-3.6,0c-1,-.9,-1,-2.6,0,-3.6Z" class="g7_84"/>
<path d="M163.6,132.3l-6.1,-6.2l-.8,.9c.1,.9,-.2,1.9,-.8,2.6c-1.2,1.1,-3.1,1.1,-4.2,0c-1.2,-1.2,-1.2,-3,0,-4.2c.7,-.7,1.6,-1,2.6,-.8l.8,-.8L149,117.6l6.1,-6.1l-.8,-.8c-1,.1,-1.9,-.2,-2.6,-.8c-.6,-.6,-.9,-1.3,-.9,-2.1c0,-.8,.3,-1.5,.9,-2.1c1.1,-1.1,3,-1.1,4.1,0c.7,.7,1,1.7,.9,2.6l.8,.8l6.1,-6.1l6.7,6.7l-1.7,1.7h-.2c-.7,-.2,-1.5,0,-2.1,.5c-.8,.9,-.8,2.2,0,3.1c.9,.8,2.2,.8,3.1,0c.5,-.6,.7,-1.4,.5,-2.1v-.2l1.7,-1.7l6.7,6.6l-6.7,6.7l-1.8,-1.7l.1,-.2c.2,-.8,0,-1.5,-.6,-2.1c-.4,-.4,-.9,-.6,-1.5,-.6c-.5,0,-1.1,.2,-1.5,.6c-.8,.8,-.8,2.2,0,3c.5,.6,1.3,.8,2.1,.6l.2,-.1l1.7,1.8ZM157.5,125l6.1,6.1l5.6,-5.5l-.8,-.9c-1,.2,-2,-.1,-2.7,-.8c-.5,-.5,-.8,-1.3,-.8,-2.1c0,-.7,.3,-1.5,.8,-2c.6,-.6,1.3,-.9,2.1,-.9c.8,0,1.6,.3,2.1,.9c.7,.6,1,1.6,.8,2.6l.9,.8l5.5,-5.6l-5.5,-5.5l-.9,.8c.2,1,-.1,1.9,-.8,2.6c-1.1,1.2,-3,1.2,-4.1,0c-1.2,-1.1,-1.2,-3,0,-4.1c.6,-.7,1.6,-1,2.6,-.8l.8,-.9l-5.6,-5.6l-6.1,6.2l-1.7,-1.7v-.3c.2,-.7,0,-1.5,-.5,-2c-.9,-.9,-2.2,-.9,-3.1,0c-.4,.4,-.6,.9,-.6,1.5c0,.6,.2,1.1,.6,1.5c.6,.5,1.4,.8,2.1,.6l.2,-.1l1.8,1.7l-6.2,6.1l6.2,6.2l-1.8,1.7l-.2,-.1c-.7,-.2,-1.5,.1,-2,.6c-.9,.8,-.9,2.2,0,3c.8,.9,2.2,.9,3,0c.5,-.5,.7,-1.3,.5,-2v-.3Z" class="g8_84"/>
<path d="M196.6,122.1c.9,0,1.8,.5,2.2,1.3h1.8v-8.7h-8.7v-1.8c.8,-.4,1.3,-1.2,1.3,-2.2c0,-1.4,-1.1,-2.5,-2.5,-2.5c-1.5,0,-2.6,1.1,-2.6,2.5c0,1,.5,1.8,1.3,2.2v1.8h-8.7v8.7h-1.8c-.4,-.8,-1.2,-1.3,-2.2,-1.3c-1.4,0,-2.5,1.2,-2.5,2.6c0,1.4,1.1,2.5,2.5,2.5c1,0,1.8,-.5,2.2,-1.2h1.8v8.6h8.7v-1.8c-.8,-.4,-1.3,-1.2,-1.3,-2.2c0,-1.4,1.2,-2.5,2.6,-2.5c1.4,0,2.5,1.1,2.5,2.5c0,1,-.5,1.8,-1.3,2.2v1.8h8.7V126h-1.8c-.4,.7,-1.2,1.2,-2.2,1.2c-1.4,0,-2.5,-1.1,-2.5,-2.5c0,-1.4,1.1,-2.6,2.5,-2.6Z" class="g9_84"/>
<path d="M201,135h-9.5v-2.4l.2,-.1c.7,-.4,1.1,-1.1,1.1,-1.9c0,-1.2,-1,-2.1,-2.1,-2.1c-1.2,0,-2.2,.9,-2.2,2.1c0,.8,.4,1.5,1.1,1.9l.2,.1V135h-9.5v-8.6h-1.2c-.5,.7,-1.4,1.2,-2.4,1.2c-1.6,0,-2.9,-1.3,-2.9,-2.9c0,-1.6,1.3,-3,2.9,-3c1,0,1.9,.5,2.4,1.3h1.2v-8.7H189v-1.1c-.8,-.6,-1.3,-1.5,-1.3,-2.5c0,-1.6,1.3,-2.9,3,-2.9c1.6,0,2.9,1.3,2.9,2.9c0,1,-.5,1.9,-1.3,2.5v1.1H201v9.5h-2.4l-.1,-.2c-.4,-.6,-1.1,-1.1,-1.9,-1.1c-.6,0,-1.1,.3,-1.5,.7c-.4,.4,-.6,.9,-.6,1.5c0,1.2,.9,2.1,2.1,2.1c.8,0,1.5,-.4,1.9,-1l.1,-.2H201Zm-8.7,-.8h7.9v-7.8H199c-.5,.7,-1.4,1.2,-2.4,1.2c-1.6,0,-2.9,-1.3,-2.9,-2.9c0,-.8,.3,-1.5,.8,-2.1c.6,-.5,1.3,-.9,2.1,-.9c1,0,1.9,.5,2.4,1.3h1.2v-7.9h-8.7v-2.4l.2,-.1c.7,-.4,1.1,-1.1,1.1,-1.9c0,-1.2,-1,-2.1,-2.1,-2.1c-1.2,0,-2.2,.9,-2.2,2.1c0,.8,.4,1.5,1.1,1.9l.2,.1v2.4h-8.7v8.7h-2.4l-.1,-.2c-.4,-.6,-1.1,-1.1,-1.9,-1.1c-1.2,0,-2.1,1,-2.1,2.2c0,1.2,.9,2.1,2.1,2.1c.8,0,1.5,-.4,1.9,-1l.1,-.2h2.4v8.6H189V133c-.8,-.5,-1.3,-1.4,-1.3,-2.4c0,-1.6,1.3,-2.9,3,-2.9c1.6,0,2.9,1.3,2.9,2.9c0,1,-.5,1.9,-1.3,2.4Z" class="g8_84"/>
<path d="M176.7,142c1,0,1.8,.5,2.2,1.3h1.8v-8.7H172v-1.8c.8,-.4,1.3,-1.2,1.3,-2.2c0,-1.4,-1.1,-2.5,-2.5,-2.5c-1.4,0,-2.6,1.1,-2.6,2.5c0,1,.5,1.8,1.3,2.2v1.8h-8.7v8.7H159c-.4,-.8,-1.2,-1.3,-2.2,-1.3c-1.4,0,-2.5,1.2,-2.5,2.6c0,1.4,1.1,2.5,2.5,2.5c1,0,1.8,-.5,2.2,-1.2h1.8v8.6h8.7v-1.8c-.8,-.4,-1.3,-1.2,-1.3,-2.2c0,-1.4,1.2,-2.5,2.6,-2.5c1.4,0,2.5,1.1,2.5,2.5c0,1,-.5,1.8,-1.3,2.2v1.8h8.7v-8.7h-1.8c-.4,.8,-1.2,1.3,-2.2,1.3c-1.4,0,-2.5,-1.1,-2.5,-2.5c0,-1.4,1.1,-2.6,2.5,-2.6Z" class="ga_84"/>
<path d="M181.1,154.9h-9.5v-2.4l.2,-.1c.7,-.4,1.1,-1.1,1.1,-1.9c0,-1.2,-1,-2.1,-2.1,-2.1c-1.2,0,-2.2,.9,-2.2,2.1c0,.8,.4,1.5,1.1,1.9l.2,.1v2.4h-9.5v-8.6h-1.2c-.5,.7,-1.4,1.2,-2.4,1.2c-1.6,0,-2.9,-1.3,-2.9,-2.9c0,-1.6,1.3,-3,2.9,-3c1,0,1.9,.5,2.4,1.3h1.2v-8.7h8.7V133c-.8,-.5,-1.3,-1.4,-1.3,-2.4c0,-1.6,1.3,-2.9,3,-2.9c1.6,0,2.9,1.3,2.9,2.9c0,1,-.5,1.9,-1.3,2.4v1.2h8.7v9.5h-2.4l-.1,-.2c-.4,-.7,-1.1,-1.1,-1.9,-1.1c-1.2,0,-2.1,1,-2.1,2.2c0,1.1,.9,2.1,2.1,2.1c.8,0,1.5,-.4,1.9,-1.1l.1,-.2h2.4Zm-8.7,-.8h7.9v-7.9h-1.2c-.5,.8,-1.4,1.3,-2.4,1.3c-1.6,0,-2.9,-1.3,-2.9,-2.9c0,-1.6,1.3,-3,2.9,-3c1,0,1.9,.5,2.4,1.3h1.2V135h-8.7v-2.4l.2,-.1c.7,-.4,1.1,-1.1,1.1,-1.9c0,-1.2,-1,-2.1,-2.1,-2.1c-1.2,0,-2.2,.9,-2.2,2.1c0,.8,.4,1.5,1.1,1.9l.2,.1V135h-8.7v8.7h-2.4l-.1,-.2c-.4,-.7,-1.1,-1.1,-1.9,-1.1c-1.2,0,-2.1,1,-2.1,2.2c0,1.2,.9,2.1,2.1,2.1c.8,0,1.5,-.4,1.9,-1l.1,-.2h2.4v8.6h7.9v-1.2c-.8,-.5,-1.3,-1.4,-1.3,-2.4c0,-1.6,1.3,-2.9,3,-2.9c1.6,0,2.9,1.3,2.9,2.9c0,1,-.5,1.9,-1.3,2.4Z" class="g8_84"/>
<path d="M196.6,142c.9,0,1.8,.5,2.2,1.3h1.8v-8.7h-8.7v-1.8c.8,-.4,1.3,-1.2,1.3,-2.2c0,-1.4,-1.1,-2.5,-2.5,-2.5c-1.5,0,-2.6,1.1,-2.6,2.5c0,1,.5,1.8,1.3,2.2v1.8h-8.7v8.7h-1.8c-.4,-.8,-1.2,-1.3,-2.2,-1.3c-1.4,0,-2.5,1.2,-2.5,2.6c0,1.4,1.1,2.5,2.5,2.5c1,0,1.8,-.5,2.2,-1.2h1.8v8.6h8.7v-1.8c-.8,-.4,-1.3,-1.2,-1.3,-2.2c0,-1.4,1.2,-2.5,2.6,-2.5c1.4,0,2.5,1.1,2.5,2.5c0,1,-.5,1.8,-1.3,2.2v1.8h8.7v-8.7h-1.8c-.4,.8,-1.2,1.3,-2.2,1.3c-1.4,0,-2.5,-1.1,-2.5,-2.5c0,-1.4,1.1,-2.6,2.5,-2.6Z" class="gb_84"/>
<path d="M201,154.9h-9.5v-2.4l.2,-.1c.7,-.4,1.1,-1.1,1.1,-1.9c0,-1.2,-1,-2.1,-2.1,-2.1c-1.2,0,-2.2,.9,-2.2,2.1c0,.8,.4,1.5,1.1,1.9l.2,.1v2.4h-9.5v-8.6h-1.2c-.5,.7,-1.4,1.2,-2.4,1.2c-1.6,0,-2.9,-1.3,-2.9,-2.9c0,-1.6,1.3,-3,2.9,-3c1,0,1.9,.5,2.4,1.3h1.2v-8.7H189V133c-.8,-.5,-1.3,-1.4,-1.3,-2.4c0,-1.6,1.3,-2.9,3,-2.9c1.6,0,2.9,1.3,2.9,2.9c0,1,-.5,1.9,-1.3,2.4v1.2H201v9.5h-2.4l-.1,-.2c-.4,-.7,-1.1,-1.1,-1.9,-1.1c-.6,0,-1.1,.3,-1.5,.7c-.4,.4,-.6,.9,-.6,1.5c0,1.1,.9,2.1,2.1,2.1c.8,0,1.5,-.4,1.9,-1.1l.1,-.2H201Zm-8.7,-.8h7.9v-7.9H199c-.5,.8,-1.4,1.3,-2.4,1.3c-1.6,0,-2.9,-1.3,-2.9,-2.9c0,-.8,.3,-1.5,.8,-2.1c.6,-.6,1.3,-.9,2.1,-.9c1,0,1.9,.5,2.4,1.3h1.2V135h-8.7v-2.4l.2,-.1c.7,-.4,1.1,-1.1,1.1,-1.9c0,-1.2,-1,-2.1,-2.1,-2.1c-1.2,0,-2.2,.9,-2.2,2.1c0,.8,.4,1.5,1.1,1.9l.2,.1V135h-8.7v8.7h-2.4l-.1,-.2c-.4,-.7,-1.1,-1.1,-1.9,-1.1c-1.2,0,-2.1,1,-2.1,2.2c0,1.2,.9,2.1,2.1,2.1c.8,0,1.5,-.4,1.9,-1l.1,-.2h2.4v8.6H189v-1.2c-.8,-.5,-1.3,-1.4,-1.3,-2.4c0,-1.6,1.3,-2.9,3,-2.9c1.6,0,2.9,1.3,2.9,2.9c0,1,-.5,1.9,-1.3,2.4Z" class="g8_84"/>
<path d="M132.5,1198.6h713v-161h-713v161Z" class="gc_84"/>
<path d="M132.5,1042.2v154.1m4.5,2.3H843.2m2.3,-4.6V1039.9m-4.6,-2.3H134.7" class="gd_84"/>
<path d="M132.5,1198.6v0m713,0v0m0,-161v0m-713,0v0" class="ge_84"/>
<path d="M131.7,1040.8v-28.6c0,0,0,-8.7,8.6,-8.7H837.6c0,0,8.7,0,8.7,8.7v29.2Z" class="g9_84"/>
<path d="M263.1,1064.8c0,0,4.1,5.5,5.2,12.3c0,0,5.7,-11.4,10.1,-14c0,0,-8,5,-9.6,8.2c0,0,-1.6,-4.3,-5.7,-6.5Z" class="gf_84"/>
<path d="M404.2,1066c0,0,3.5,4.7,4.5,10.5c0,0,4.9,-9.7,8.5,-11.9c0,0,-6.7,4.2,-8.1,6.9c0,0,-1.4,-3.6,-4.9,-5.5Z" class="gg_84"/>
<path d="M160.4,1029.4H155c.1,3.1,1.1,5.9,2.7,8.2h4.1c-.8,-2.4,-1.4,-5.2,-1.4,-8.2Z" class="gh_84"/>
<path d="M160.4,1028.5c0,-3,.6,-5.8,1.4,-8.2h-4.1c-1.6,2.4,-2.6,5.2,-2.7,8.2Z" class="gh_84"/>
<path d="M170.6,1019.1v.3h6.6c-.2,-.4,-.4,-.8,-.6,-1.1c-1.9,.4,-3.9,.8,-6,.8Z" class="gh_84"/>
<path d="M177.5,1018.1c.2,.4,.4,.8,.6,1.3h2.3c.1,-.4,.3,-.8,.6,-1.1c-.3,-.3,-.6,-.6,-.9,-.8c-.1,0,-.2,0,-.3,.1c-.8,.1,-1.5,.3,-2.3,.5Z" class="gh_84"/>
<path d="M179.9,1029.4c0,3,-.5,5.8,-1.4,8.2h4.1c1.7,-2.3,2.7,-5.1,2.7,-8.2Z" class="gh_84"/>
<path d="M179,1028.5c0,-3,-.6,-5.8,-1.5,-8.2h-6.9v8.2Z" class="gh_84"/>
<path d="M169.7,1038.5h-6.5c1.1,2.6,2.6,4.5,4.4,5.4c.7,.2,1.4,.2,2.1,.3Z" class="gh_84"/>
<path d="M180.3,1023.7v-3.4h-1.8c.9,2.4,1.4,5.2,1.4,8.2h5.4c0,-.9,-.1,-1.8,-.3,-2.6c-.5,.4,-1.1,.7,-1.8,.7c-1.6,0,-2.9,-1.3,-2.9,-2.9Z" class="gh_84"/>
<path d="M170.6,1038.5v5.7c.7,-.1,1.5,-.1,2.2,-.3c1.7,-.9,3.3,-2.8,4.4,-5.4Z" class="gh_84"/>
<path d="M178.1,1038.5c-.8,2,-1.9,3.7,-3.1,4.9c2.7,-.9,5.2,-2.6,6.9,-4.9Z" class="gh_84"/>
<path d="M170.6,1029.4v8.2h6.9c.9,-2.3,1.5,-5.1,1.5,-8.2Z" class="gh_84"/>
<path d="M162.2,1019.4c.2,-.5,.4,-.9,.6,-1.3c-.8,-.2,-1.5,-.4,-2.3,-.5q-.1,-.1,-.2,-.1c-.7,.6,-1.4,1.2,-1.9,1.9Z" class="gh_84"/>
<path d="M169.7,1019.1c-2.1,0,-4,-.4,-6,-.8c-.2,.3,-.4,.7,-.5,1.1h6.5Z" class="gh_84"/>
<path d="M165.3,1043.4c-1.2,-1.2,-2.3,-2.9,-3.1,-4.9h-3.8c1.8,2.3,4.2,4,6.9,4.9Z" class="gh_84"/>
<path d="M169.7,1028.5v-8.2h-6.9c-.9,2.4,-1.4,5.2,-1.5,8.2Z" class="gh_84"/>
<path d="M169.7,1029.4h-8.4c.1,3.1,.6,5.9,1.5,8.2h6.9Z" class="gh_84"/>
<path d="M161.6,1015.9c.6,.1,1.1,.3,1.7,.4c2.2,.5,4.5,1,6.9,1c2.3,0,4.6,-.5,6.9,-1c.5,-.1,1,-.3,1.6,-.4v-5.1l-8.2,3.5c-.1,0,-.2,0,-.3,0c-.2,0,-.3,0,-.4,0l-8.2,-3.5Z" class="gi_84"/>
<path d="M170.2,1012.4l13.7,-5.9l-13.7,-5.9l-13.8,5.9Z" class="gj_84"/>
<path d="M182.1,1023.7c0,.6,.5,1.1,1.1,1.1c.5,0,1,-.5,1,-1.1v-.5h-2.1Z" class="gi_84"/>
<path d="M183.2,1019.1c-.6,0,-1.1,.5,-1.1,1.1v2.1h2.1v-2.1c0,-.6,-.5,-1.1,-1,-1.1Z" class="gi_84"/>
<path d="M186,1020.2c0,-1.3,-.8,-2.4,-1.9,-2.8v-8.9l2.5,-1.1c.4,-.2,.6,-.5,.6,-.9c0,-.3,-.2,-.7,-.6,-.8l-16.1,-6.9c-.2,-.1,-.5,-.1,-.7,0l-16.1,6.9c-.3,.1,-.6,.5,-.6,.8c0,.4,.3,.7,.6,.9l6.1,2.6v5.5c-4,3.1,-6.7,8,-6.7,13.5c0,9.4,7.7,17,17.1,17c9.4,0,17,-7.6,17,-17c0,-2.2,-.4,-4.3,-1.2,-6.2Zm-15.8,-19.6l13.7,5.9l-13.7,5.9l-13.8,-5.9Zm15.1,27.9h-5.4c0,-3,-.5,-5.8,-1.4,-8.2h1.8v3.4c0,1.6,1.3,2.9,2.9,2.9c.7,0,1.3,-.3,1.8,-.7c.2,.8,.3,1.7,.3,2.6m-2.7,9.1h-4.1c.9,-2.4,1.4,-5.2,1.4,-8.2h5.4c0,3.1,-1,5.9,-2.7,8.2m-9.8,6.3c-.7,.2,-1.5,.2,-2.2,.3v-5.7h6.6c-1.1,2.6,-2.7,4.5,-4.4,5.4m-9.6,-5.4h6.5v5.7c-.7,-.1,-1.4,-.1,-2.1,-.3c-1.8,-.9,-3.3,-2.8,-4.4,-5.4m-8.2,-9.1h5.4c0,3,.6,5.8,1.4,8.2h-4.1c-1.6,-2.3,-2.6,-5.1,-2.7,-8.2m2.7,-9.1h4.1c-.8,2.4,-1.4,5.2,-1.4,8.2H155c.1,-3,1.1,-5.8,2.7,-8.2m23.3,-2c-.3,.3,-.5,.7,-.6,1.1h-2.3c-.2,-.5,-.4,-.9,-.6,-1.3c.8,-.2,1.5,-.4,2.3,-.5c.1,-.1,.2,-.1,.3,-.1c.3,.2,.6,.5,.9,.8m3.2,4.9v.5c0,.6,-.5,1.1,-1,1.1c-.6,0,-1.1,-.5,-1.1,-1.1v-.5Zm-13.6,-3.8v-.3c2.1,0,4.1,-.4,6,-.8c.2,.3,.4,.7,.6,1.1Zm6.9,.9c.9,2.4,1.5,5.2,1.5,8.2h-8.4v-8.2Zm-13.8,-2c2,.4,3.9,.8,6,.8v.3h-6.5c.1,-.4,.3,-.8,.5,-1.1m6,2v8.2h-8.4c.1,-3,.6,-5.8,1.5,-8.2Zm-8.4,9.1h8.4v8.2h-6.9c-.9,-2.3,-1.4,-5.1,-1.5,-8.2m9.3,8.2v-8.2H179c0,3.1,-.6,5.9,-1.5,8.2Zm13.6,-15.3h-2.1v-2.1c0,-.6,.5,-1.1,1.1,-1.1c.5,0,1,.5,1,1.1Zm-14.4,-8c.1,0,.2,0,.4,0c.1,0,.2,0,.3,0l8.2,-3.5v5.1c-.6,.1,-1.1,.3,-1.6,.4c-2.3,.5,-4.6,1,-6.9,1c-2.4,0,-4.7,-.5,-6.9,-1c-.6,-.1,-1.1,-.3,-1.7,-.4v-5.1Zm-9.5,3.2q.1,0,.2,.1c.8,.1,1.5,.3,2.3,.5c-.2,.4,-.4,.8,-.6,1.3h-3.8c.5,-.7,1.2,-1.3,1.9,-1.9m1.9,21c.8,2,1.9,3.7,3.1,4.9c-2.7,-.9,-5.1,-2.6,-6.9,-4.9Zm12.8,4.9c1.2,-1.2,2.3,-2.9,3.1,-4.9H182c-1.9,2.3,-4.3,4,-7,4.9m7.2,-26.4c-.5,-.6,-1.1,-1.1,-1.7,-1.5V1010l1.7,-.8Z" class="gk_84"/>
<path d="M192.5,1096c0,0,-4.4,0,-4.4,4.3v71.2c0,0,0,4.3,4.4,4.3H296.1c0,0,4.3,0,4.3,-4.3v-71.2c0,0,0,-4.3,-4.3,-4.3Z" class="gi_84"/>
<image clip-path="url(#c3_84)" preserveAspectRatio="none" x="200" y="1094" width="87" height="83" xlink:href="img/4.jpg"/>
<path d="M192.5,1096c0,0,-4.4,0,-4.4,4.3v71.2c0,0,0,4.3,4.4,4.3H296.1c0,0,4.3,0,4.3,-4.3v-71.2c0,0,0,-4.3,-4.3,-4.3H192.5Z" class="gl_84"/>
<path d="M510.1,1096c0,0,-4.4,0,-4.4,4.3v71.2c0,0,0,4.3,4.4,4.3H613.7c0,0,4.3,0,4.3,-4.3v-71.2c0,0,0,-4.3,-4.3,-4.3Z" class="gi_84"/>
<image clip-path="url(#c4_84)" preserveAspectRatio="none" x="511" y="1099" width="108" height="79" xlink:href="img/5.jpg"/>
<path d="M510.1,1096c0,0,-4.4,0,-4.4,4.3v71.2c0,0,0,4.3,4.4,4.3H613.7c0,0,4.3,0,4.3,-4.3v-71.2c0,0,0,-4.3,-4.3,-4.3H510.1Z" class="gl_84"/>
<path d="M644.5,1214.8c0,0,-4.3,0,-4.3,4.4V1230c0,0,0,4.3,4.3,4.3h30.4c0,0,4.3,0,4.3,-4.3v-10.8c0,0,0,-4.4,-4.3,-4.4Z" class="g6_84"/>
<path d="M631.4,1206v37.5m1.3,1H845.1m1,-1.3v-37.6m-1.4,-1H632.3" class="gm_84"/>
<path d="M631.4,1243.9v.6h.5m213.6,0h.6v-.6m0,-38.7v-.6h-.6m-213.6,0h-.5v.6" class="gn_84"/>
<path d="M32.1,45.1H9.2m958.3,0h22.9M32.1,1331.3H9.2m958.3,0h22.9M45.1,32.1V9.2m0,1335.1v22.9M954.5,32.1V9.2m0,1335.1v22.9" class="go_84"/>
<path d="M32.1,45.1H9.2m958.3,0h22.9M32.1,1331.3H9.2m958.3,0h22.9M45.1,32.1V9.2m0,1335.1v22.9M954.5,32.1V9.2m0,1335.1v22.9" class="gp_84"/>
<path d="M27.5,32.1H0m972.1,0h27.5M27.5,1344.3H0m972.1,0h27.5M32.1,27.5V0m0,1348.9v27.5M967.5,27.5V0m0,1348.9v27.5" class="go_84"/>
<path d="M27.5,32.1H0m972.1,0h27.5M27.5,1344.3H0m972.1,0h27.5M32.1,27.5V0m0,1348.9v27.5M967.5,27.5V0m0,1348.9v27.5" class="gp_84"/>
</svg>