<?xml version="1.0" encoding="UTF-8" standalone="no"?>
<!DOCTYPE svg PUBLIC "-//W3C//DTD SVG 1.1//EN"
"http://www.w3.org/Graphics/SVG/1.1/DTD/svg11.dtd">
<svg viewBox="0 0 999 1376" version="1.1" xmlns="http://www.w3.org/2000/svg" xmlns:xlink="http://www.w3.org/1999/xlink">
<defs>
<clipPath id="c0_360"><path d="M226.1,603.3V473.5H375.8V603.3Z"/></clipPath>
<clipPath id="c1_360"><path d="M577.5,604.1V473.5H711.9V604.1Z"/></clipPath>
<clipPath id="c2_360"><path d="M381.7,570.5V488.6h97.2v81.9Z"/></clipPath>
<clipPath id="c3_360"><path d="M216.8,811.9V677.6H365.9V811.9Z"/></clipPath>
<clipPath id="c4_360"><path d="M561.5,815.7V677.4H710.4V815.7Z"/></clipPath>
<clipPath id="c5_360"><path d="M381.7,785.9V704h97.2v81.9Z"/></clipPath>
<clipPath id="c6_360"><path d="M377.9,577.6V481.4H500v96.2Z"/></clipPath>
<clipPath id="c7_360"><path d="M377.9,792V695.8H500V792Z"/></clipPath>
<clipPath id="c8_360"><path d="M713.1,577.6V481.4H835.2v96.2Z"/></clipPath>
<clipPath id="c9_360"><path d="M713.1,792V695.8H835.2V792Z"/></clipPath>
<clipPath id="ca_360"><path d="M396.1,386.1V281.6H527V386.1Z"/></clipPath>
<clipPath id="cb_360"><path d="M237.4,387V278.1H388.1V387Z"/></clipPath>
<clipPath id="cc_360"><path d="M238.3,387.1V278.7H386.5V387.1Z"/></clipPath>
<style type="text/css"><![CDATA[
.g0_360{
fill: none;
stroke: #6381B7;
stroke-width: 0.763;
}
.g1_360{
fill: #48484A;
}
.g2_360{
fill: #F0E8F3;
}
.g3_360{
fill: #F1E6CF;
}
.g4_360{
fill: #6381B7;
}
.g5_360{
fill: none;
stroke: #6381B7;
stroke-width: 0.381;
stroke-dasharray: 2,1;
}
.g6_360{
fill: none;
stroke: #6381B7;
stroke-width: 0.381;
}
.g7_360{
fill: #F4EDDD;
}
.g8_360{
fill: #FFF;
}
.g9_360{
fill: #E7D6B2;
}
.ga_360{
fill: #766FA6;
}
.gb_360{
fill: #25408F;
}
.gc_360{
fill: #F37553;
}
.gd_360{
fill: #363637;
}
.ge_360{
fill: #EAD646;
}
.gf_360{
fill: #506CB4;
}
.gg_360{
fill: #5CC4BE;
}
.gh_360{
fill: none;
stroke: #FFF;
stroke-width: 1.909;
stroke-miterlimit: 10;
}
.gi_360{
fill: none;
stroke: #000;
stroke-width: 0.381;
stroke-miterlimit: 10;
}
]]></style>
</defs>
<path d="M145.1,167.9c0,0,-13,0,-13,13V862.3c0,0,0,13,13,13H832.9c0,0,13,0,13,-13V180.9c0,0,0,-13,-13,-13H145.1Z" class="g0_360"/>
<path d="M170.7,260.3c0,0,-4.4,0,-4.4,4.3V279c0,0,0,4.3,4.1,5.8L222.9,303c0,0,4.1,1.4,4.1,-2.9V264.6c0,0,0,-4.3,-4.4,-4.3Z" class="g1_360"/>
<path d="M191.8,247.5c0,0,-13,0,-13,13V445.1c0,0,0,13,13,13H815.9c0,0,13,0,13,-13V260.5c0,0,0,-13,-13,-13Z" class="g2_360"/>
<image clip-path="url(#c0_360)" preserveAspectRatio="none" x="226" y="465" width="149" height="138" xlink:href="img/1.jpg"/>
<image clip-path="url(#c1_360)" preserveAspectRatio="none" x="578" y="469" width="134" height="135" xlink:href="img/2.jpg"/>
<image clip-path="url(#c2_360)" preserveAspectRatio="none" x="381" y="488" width="98" height="83" xlink:href="img/3.jpg"/>
<path d="M388.9,490.2c0,0,-5.8,0,-5.8,5.8v61.7c0,0,0,5.9,5.8,5.9h77.4c0,0,5.8,0,5.8,-5.9V496c0,0,0,-5.8,-5.8,-5.8H388.9Z" class="g3_360"/>
<image clip-path="url(#c3_360)" preserveAspectRatio="none" x="217" y="676" width="149" height="136" xlink:href="img/4.jpg"/>
<image clip-path="url(#c4_360)" preserveAspectRatio="none" x="562" y="676" width="151" height="140" xlink:href="img/5.jpg"/>
<image clip-path="url(#c5_360)" preserveAspectRatio="none" x="381" y="704" width="98" height="82" xlink:href="img/6.jpg"/>
<path d="M388.9,705.5c0,0,-5.8,0,-5.8,5.9v61.7c0,0,0,5.8,5.8,5.8h77.4c0,0,5.8,0,5.8,-5.8V711.4c0,0,0,-5.9,-5.8,-5.9H388.9Z" class="g3_360"/>
<path d="M204,896.9c0,0,-4.4,0,-4.4,4.3V912c0,0,0,4.4,4.4,4.4h30.3c0,0,4.3,0,4.3,-4.4V901.2c0,0,0,-4.3,-4.3,-4.3Z" class="g4_360"/>
<path d="M190.8,889.4V1027m1.3,1h653m1,-1.4V889m-1.4,-1h-653" class="g5_360"/>
<path d="M190.8,1027.4v.6h.5m654.2,0h.6v-.6m0,-138.8V888h-.6m-654.2,0h-.5v.6" class="g6_360"/>
<image clip-path="url(#c6_360)" preserveAspectRatio="none" x="377" y="482" width="123" height="96" xlink:href="img/7.png"/>
<path d="M389.8,484.6c0,0,-8.7,0,-8.7,8.7v69.3c0,0,0,8.7,8.7,8.7h95.3c0,0,8.6,0,8.6,-8.7V493.3c0,0,0,-8.7,-8.6,-8.7Z" class="g7_360"/>
<image clip-path="url(#c7_360)" preserveAspectRatio="none" x="377" y="697" width="123" height="96" xlink:href="img/8.png"/>
<path d="M389.8,699c0,0,-8.7,0,-8.7,8.7V777c0,0,0,8.6,8.7,8.6h95.3c0,0,8.6,0,8.6,-8.6V707.7c0,0,0,-8.7,-8.6,-8.7Z" class="g7_360"/>
<image clip-path="url(#c8_360)" preserveAspectRatio="none" x="713" y="482" width="122" height="96" xlink:href="img/9.png"/>
<path d="M725,484.6c0,0,-8.7,0,-8.7,8.7v69.3c0,0,0,8.7,8.7,8.7h95.3c0,0,8.6,0,8.6,-8.7V493.3c0,0,0,-8.7,-8.6,-8.7Z" class="g7_360"/>
<image clip-path="url(#c9_360)" preserveAspectRatio="none" x="713" y="697" width="122" height="96" xlink:href="img/10.png"/>
<path d="M725,699c0,0,-8.7,0,-8.7,8.7V777c0,0,0,8.6,8.7,8.6h95.3c0,0,8.6,0,8.6,-8.6V707.7c0,0,0,-8.7,-8.6,-8.7Z" class="g7_360"/>
<path d="M530.3,705.9h30.3V681.7H530.3v24.2Z" class="g8_360"/>
<path d="M530.3,494.2h30.3V470H530.3v24.2Z" class="g8_360"/>
<image clip-path="url(#ca_360)" preserveAspectRatio="none" x="396" y="282" width="130" height="104" xlink:href="img/11.png"/>
<path d="M408,284.9c0,0,-8.7,0,-8.7,8.6v78c0,0,0,8.7,8.7,8.7H511.9c0,0,8.7,0,8.7,-8.7v-78c0,0,0,-8.6,-8.7,-8.6Z" class="g7_360"/>
<path clip-path="url(#cb_360)" d="M167.4,262.5c0,0,-6.3,0,-6.3,5.9V416.9c0,0,0,6,6.3,6h609c0,0,6.3,0,6.3,-6V268.4c0,0,0,-5.9,-6.3,-5.9h-609Z" class="g9_360"/>
<image clip-path="url(#cc_360)" preserveAspectRatio="none" x="238" y="278" width="148" height="110" xlink:href="img/12.jpg"/>
<path d="M170.7,258.2c0,0,-4.4,0,-4.4,4.3v16.9c0,0,0,4.4,4.4,4.4h32.9c0,0,4.3,0,4.3,-4.4V262.5c0,0,0,-4.3,-4.3,-4.3Z" class="ga_360"/>
<path d="M132.2,126.3v22.2l11.7,10.2V136.5Z" class="gb_360"/>
<path d="M132.2,109.5v39H829.9c0,0,16.9,0,16.9,-16.8v-5.4c0,0,0,-16.8,-16.9,-16.8Z" class="g4_360"/>
<path d="M166,111.6c.7,-.6,1.7,-.8,2.5,-.6l1.3,-1.3l-6.2,-6.1l-6.1,6.1l-1.3,-1.3c.2,-.8,0,-1.8,-.6,-2.4c-1,-1,-2.6,-1,-3.6,0c-1,1,-1,2.6,0,3.6c.6,.6,1.6,.9,2.4,.6l1.3,1.3l-6.1,6.1l6.1,6.2l-1.3,1.3c-.8,-.3,-1.8,-.1,-2.4,.6c-1,1,-1,2.6,0,3.6c1,1,2.6,1,3.6,0c.6,-.7,.9,-1.6,.6,-2.4l1.3,-1.3l6.1,6.1l6.2,-6.1l-1.3,-1.3c-.9,.2,-1.8,0,-2.5,-.7c-1,-1,-1,-2.6,0,-3.6c1,-1,2.6,-1,3.6,0c.7,.7,.9,1.6,.7,2.5l1.3,1.3l6.1,-6.2l-6.1,-6.1l-1.3,1.3c.2,.8,0,1.8,-.7,2.4c-1,1,-2.6,1,-3.6,0c-1,-.9,-1,-2.6,0,-3.6Z" class="gc_360"/>
<path d="M163.6,132.3l-6.1,-6.2l-.8,.9c.1,.9,-.2,1.9,-.8,2.6c-1.2,1.1,-3.1,1.1,-4.2,0c-1.2,-1.2,-1.2,-3,0,-4.2c.7,-.7,1.6,-1,2.6,-.8l.8,-.8L149,117.6l6.1,-6.1l-.8,-.8c-1,.1,-1.9,-.2,-2.6,-.8c-.6,-.6,-.9,-1.3,-.9,-2.1c0,-.8,.3,-1.5,.9,-2.1c1.1,-1.1,3,-1.1,4.1,0c.7,.7,1,1.7,.9,2.6l.8,.8l6.1,-6.1l6.7,6.7l-1.7,1.7h-.2c-.7,-.2,-1.5,0,-2.1,.5c-.8,.9,-.8,2.2,0,3.1c.9,.8,2.2,.8,3.1,0c.5,-.6,.7,-1.4,.5,-2.1v-.2l1.7,-1.7l6.7,6.6l-6.7,6.7l-1.8,-1.7l.1,-.2c.2,-.8,0,-1.5,-.6,-2.1c-.4,-.4,-.9,-.6,-1.5,-.6c-.5,0,-1.1,.2,-1.5,.6c-.8,.8,-.8,2.2,0,3c.5,.6,1.3,.8,2.1,.6l.2,-.1l1.7,1.8ZM157.5,125l6.1,6.1l5.6,-5.5l-.8,-.9c-1,.2,-2,-.1,-2.7,-.8c-.5,-.5,-.8,-1.3,-.8,-2.1c0,-.7,.3,-1.5,.8,-2c.6,-.6,1.3,-.9,2.1,-.9c.8,0,1.6,.3,2.1,.9c.7,.6,1,1.6,.8,2.6l.9,.8l5.5,-5.6l-5.5,-5.5l-.9,.8c.2,1,-.1,1.9,-.8,2.6c-1.1,1.2,-3,1.2,-4.1,0c-1.2,-1.1,-1.2,-3,0,-4.1c.6,-.7,1.6,-1,2.6,-.8l.8,-.9l-5.6,-5.6l-6.1,6.2l-1.7,-1.7v-.3c.2,-.7,0,-1.5,-.5,-2c-.9,-.9,-2.2,-.9,-3.1,0c-.4,.4,-.6,.9,-.6,1.5c0,.6,.2,1.1,.6,1.5c.6,.5,1.4,.8,2.1,.6l.2,-.1l1.8,1.7l-6.2,6.1l6.2,6.2l-1.8,1.7l-.2,-.1c-.7,-.2,-1.5,.1,-2,.6c-.9,.8,-.9,2.2,0,3c.8,.9,2.2,.9,3,0c.5,-.5,.7,-1.3,.5,-2v-.3Z" class="gd_360"/>
<path d="M196.6,122.1c.9,0,1.8,.5,2.2,1.3h1.8v-8.7h-8.7v-1.8c.8,-.4,1.3,-1.2,1.3,-2.2c0,-1.4,-1.1,-2.5,-2.5,-2.5c-1.5,0,-2.6,1.1,-2.6,2.5c0,1,.5,1.8,1.3,2.2v1.8h-8.7v8.7h-1.8c-.4,-.8,-1.2,-1.3,-2.2,-1.3c-1.4,0,-2.5,1.2,-2.5,2.6c0,1.4,1.1,2.5,2.5,2.5c1,0,1.8,-.5,2.2,-1.2h1.8v8.6h8.7v-1.8c-.8,-.4,-1.3,-1.2,-1.3,-2.2c0,-1.4,1.2,-2.5,2.6,-2.5c1.4,0,2.5,1.1,2.5,2.5c0,1,-.5,1.8,-1.3,2.2v1.8h8.7V126h-1.8c-.4,.7,-1.2,1.2,-2.2,1.2c-1.4,0,-2.5,-1.1,-2.5,-2.5c0,-1.4,1.1,-2.6,2.5,-2.6Z" class="ge_360"/>
<path d="M201,135h-9.5v-2.4l.2,-.1c.7,-.4,1.1,-1.1,1.1,-1.9c0,-1.2,-1,-2.1,-2.1,-2.1c-1.2,0,-2.2,.9,-2.2,2.1c0,.8,.4,1.5,1.1,1.9l.2,.1V135h-9.5v-8.6h-1.2c-.5,.7,-1.4,1.2,-2.4,1.2c-1.6,0,-2.9,-1.3,-2.9,-2.9c0,-1.6,1.3,-3,2.9,-3c1,0,1.9,.5,2.4,1.3h1.2v-8.7H189v-1.1c-.8,-.6,-1.3,-1.5,-1.3,-2.5c0,-1.6,1.3,-2.9,3,-2.9c1.6,0,2.9,1.3,2.9,2.9c0,1,-.5,1.9,-1.3,2.5v1.1H201v9.5h-2.4l-.1,-.2c-.4,-.6,-1.1,-1.1,-1.9,-1.1c-.6,0,-1.1,.3,-1.5,.7c-.4,.4,-.6,.9,-.6,1.5c0,1.2,.9,2.1,2.1,2.1c.8,0,1.5,-.4,1.9,-1l.1,-.2H201Zm-8.7,-.8h7.9v-7.8H199c-.5,.7,-1.4,1.2,-2.4,1.2c-1.6,0,-2.9,-1.3,-2.9,-2.9c0,-.8,.3,-1.5,.8,-2.1c.6,-.5,1.3,-.9,2.1,-.9c1,0,1.9,.5,2.4,1.3h1.2v-7.9h-8.7v-2.4l.2,-.1c.7,-.4,1.1,-1.1,1.1,-1.9c0,-1.2,-1,-2.1,-2.1,-2.1c-1.2,0,-2.2,.9,-2.2,2.1c0,.8,.4,1.5,1.1,1.9l.2,.1v2.4h-8.7v8.7h-2.4l-.1,-.2c-.4,-.6,-1.1,-1.1,-1.9,-1.1c-1.2,0,-2.1,1,-2.1,2.2c0,1.2,.9,2.1,2.1,2.1c.8,0,1.5,-.4,1.9,-1l.1,-.2h2.4v8.6H189V133c-.8,-.5,-1.3,-1.4,-1.3,-2.4c0,-1.6,1.3,-2.9,3,-2.9c1.6,0,2.9,1.3,2.9,2.9c0,1,-.5,1.9,-1.3,2.4Z" class="gd_360"/>
<path d="M176.7,142c1,0,1.8,.5,2.2,1.3h1.8v-8.7H172v-1.8c.8,-.4,1.3,-1.2,1.3,-2.2c0,-1.4,-1.1,-2.5,-2.5,-2.5c-1.4,0,-2.6,1.1,-2.6,2.5c0,1,.5,1.8,1.3,2.2v1.8h-8.7v8.7H159c-.4,-.8,-1.2,-1.3,-2.2,-1.3c-1.4,0,-2.5,1.2,-2.5,2.6c0,1.4,1.1,2.5,2.5,2.5c1,0,1.8,-.5,2.2,-1.2h1.8v8.6h8.7v-1.8c-.8,-.4,-1.3,-1.2,-1.3,-2.2c0,-1.4,1.2,-2.5,2.6,-2.5c1.4,0,2.5,1.1,2.5,2.5c0,1,-.5,1.8,-1.3,2.2v1.8h8.7v-8.7h-1.8c-.4,.8,-1.2,1.3,-2.2,1.3c-1.4,0,-2.5,-1.1,-2.5,-2.5c0,-1.4,1.1,-2.6,2.5,-2.6Z" class="gf_360"/>
<path d="M181.1,154.9h-9.5v-2.4l.2,-.1c.7,-.4,1.1,-1.1,1.1,-1.9c0,-1.2,-1,-2.1,-2.1,-2.1c-1.2,0,-2.2,.9,-2.2,2.1c0,.8,.4,1.5,1.1,1.9l.2,.1v2.4h-9.5v-8.6h-1.2c-.5,.7,-1.4,1.2,-2.4,1.2c-1.6,0,-2.9,-1.3,-2.9,-2.9c0,-1.6,1.3,-3,2.9,-3c1,0,1.9,.5,2.4,1.3h1.2v-8.7h8.7V133c-.8,-.5,-1.3,-1.4,-1.3,-2.4c0,-1.6,1.3,-2.9,3,-2.9c1.6,0,2.9,1.3,2.9,2.9c0,1,-.5,1.9,-1.3,2.4v1.2h8.7v9.5h-2.4l-.1,-.2c-.4,-.7,-1.1,-1.1,-1.9,-1.1c-1.2,0,-2.1,1,-2.1,2.2c0,1.1,.9,2.1,2.1,2.1c.8,0,1.5,-.4,1.9,-1.1l.1,-.2h2.4Zm-8.7,-.8h7.9v-7.9h-1.2c-.5,.8,-1.4,1.3,-2.4,1.3c-1.6,0,-2.9,-1.3,-2.9,-2.9c0,-1.6,1.3,-3,2.9,-3c1,0,1.9,.5,2.4,1.3h1.2V135h-8.7v-2.4l.2,-.1c.7,-.4,1.1,-1.1,1.1,-1.9c0,-1.2,-1,-2.1,-2.1,-2.1c-1.2,0,-2.2,.9,-2.2,2.1c0,.8,.4,1.5,1.1,1.9l.2,.1V135h-8.7v8.7h-2.4l-.1,-.2c-.4,-.7,-1.1,-1.1,-1.9,-1.1c-1.2,0,-2.1,1,-2.1,2.2c0,1.2,.9,2.1,2.1,2.1c.8,0,1.5,-.4,1.9,-1l.1,-.2h2.4v8.6h7.9v-1.2c-.8,-.5,-1.3,-1.4,-1.3,-2.4c0,-1.6,1.3,-2.9,3,-2.9c1.6,0,2.9,1.3,2.9,2.9c0,1,-.5,1.9,-1.3,2.4Z" class="gd_360"/>
<path d="M196.6,142c.9,0,1.8,.5,2.2,1.3h1.8v-8.7h-8.7v-1.8c.8,-.4,1.3,-1.2,1.3,-2.2c0,-1.4,-1.1,-2.5,-2.5,-2.5c-1.5,0,-2.6,1.1,-2.6,2.5c0,1,.5,1.8,1.3,2.2v1.8h-8.7v8.7h-1.8c-.4,-.8,-1.2,-1.3,-2.2,-1.3c-1.4,0,-2.5,1.2,-2.5,2.6c0,1.4,1.1,2.5,2.5,2.5c1,0,1.8,-.5,2.2,-1.2h1.8v8.6h8.7v-1.8c-.8,-.4,-1.3,-1.2,-1.3,-2.2c0,-1.4,1.2,-2.5,2.6,-2.5c1.4,0,2.5,1.1,2.5,2.5c0,1,-.5,1.8,-1.3,2.2v1.8h8.7v-8.7h-1.8c-.4,.8,-1.2,1.3,-2.2,1.3c-1.4,0,-2.5,-1.1,-2.5,-2.5c0,-1.4,1.1,-2.6,2.5,-2.6Z" class="gg_360"/>
<path d="M201,154.9h-9.5v-2.4l.2,-.1c.7,-.4,1.1,-1.1,1.1,-1.9c0,-1.2,-1,-2.1,-2.1,-2.1c-1.2,0,-2.2,.9,-2.2,2.1c0,.8,.4,1.5,1.1,1.9l.2,.1v2.4h-9.5v-8.6h-1.2c-.5,.7,-1.4,1.2,-2.4,1.2c-1.6,0,-2.9,-1.3,-2.9,-2.9c0,-1.6,1.3,-3,2.9,-3c1,0,1.9,.5,2.4,1.3h1.2v-8.7H189V133c-.8,-.5,-1.3,-1.4,-1.3,-2.4c0,-1.6,1.3,-2.9,3,-2.9c1.6,0,2.9,1.3,2.9,2.9c0,1,-.5,1.9,-1.3,2.4v1.2H201v9.5h-2.4l-.1,-.2c-.4,-.7,-1.1,-1.1,-1.9,-1.1c-.6,0,-1.1,.3,-1.5,.7c-.4,.4,-.6,.9,-.6,1.5c0,1.1,.9,2.1,2.1,2.1c.8,0,1.5,-.4,1.9,-1.1l.1,-.2H201Zm-8.7,-.8h7.9v-7.9H199c-.5,.8,-1.4,1.3,-2.4,1.3c-1.6,0,-2.9,-1.3,-2.9,-2.9c0,-.8,.3,-1.5,.8,-2.1c.6,-.6,1.3,-.9,2.1,-.9c1,0,1.9,.5,2.4,1.3h1.2V135h-8.7v-2.4l.2,-.1c.7,-.4,1.1,-1.1,1.1,-1.9c0,-1.2,-1,-2.1,-2.1,-2.1c-1.2,0,-2.2,.9,-2.2,2.1c0,.8,.4,1.5,1.1,1.9l.2,.1V135h-8.7v8.7h-2.4l-.1,-.2c-.4,-.7,-1.1,-1.1,-1.9,-1.1c-1.2,0,-2.1,1,-2.1,2.2c0,1.2,.9,2.1,2.1,2.1c.8,0,1.5,-.4,1.9,-1l.1,-.2h2.4v8.6H189v-1.2c-.8,-.5,-1.3,-1.4,-1.3,-2.4c0,-1.6,1.3,-2.9,3,-2.9c1.6,0,2.9,1.3,2.9,2.9c0,1,-.5,1.9,-1.3,2.4Z" class="gd_360"/>
<path d="M32.1,45.1H9.2m958.3,0h22.9M32.1,1331.3H9.2m958.3,0h22.9M45.1,32.1V9.2m0,1335.1v22.9M954.5,32.1V9.2m0,1335.1v22.9" class="gh_360"/>
<path d="M32.1,45.1H9.2m958.3,0h22.9M32.1,1331.3H9.2m958.3,0h22.9M45.1,32.1V9.2m0,1335.1v22.9M954.5,32.1V9.2m0,1335.1v22.9" class="gi_360"/>
<path d="M27.5,32.1H0m972.1,0h27.5M27.5,1344.3H0m972.1,0h27.5M32.1,27.5V0m0,1348.9v27.5M967.5,27.5V0m0,1348.9v27.5" class="gh_360"/>
<path d="M27.5,32.1H0m972.1,0h27.5M27.5,1344.3H0m972.1,0h27.5M32.1,27.5V0m0,1348.9v27.5M967.5,27.5V0m0,1348.9v27.5" class="gi_360"/>
</svg>